<?xml version="1.0" encoding="utf-8"?>
<!-- Generator: Adobe Illustrator 15.0.0, SVG Export Plug-In . SVG Version: 6.00 Build 0)  -->
<!DOCTYPE svg PUBLIC "-//W3C//DTD SVG 1.1//EN" "http://www.w3.org/Graphics/SVG/1.1/DTD/svg11.dtd">
<svg version="1.1" id="Layer_1" xmlns="http://www.w3.org/2000/svg" xmlns:xlink="http://www.w3.org/1999/xlink" x="0px" y="0px"
	 width="64px" height="64px" viewBox="0 0 64 64" enable-background="new 0 0 64 64" xml:space="preserve">
<g>
	<path fill="#D0D0D0" d="M62,52c0,5.523-4.478,10-10,10H12C6.477,62,2,57.523,2,52V12C2,6.477,6.477,2,12,2h40
		c5.522,0,10,4.477,10,10V52z"/>
	<path fill="#FFFFFF" d="M57,45.666C57,50.27,53.269,54,48.667,54H15.333C10.731,54,7,50.27,7,45.666V12.333
		C7,7.731,10.731,4,15.333,4h33.333C53.269,4,57,7.731,57,12.333V45.666z"/>
	<g>
		<path fill="#9AA0A5" d="M45.474,33.291c0.377,0.161,0.55,0.477,0.523,0.943c-0.027,0.469-0.35,1.223-0.966,2.264
			c-0.618,1.072-1.121,1.725-1.51,1.967c-0.389,0.24-0.745,0.24-1.067,0l-8.573-6.216l1.128,10.508
			c0.079,0.399-0.096,0.708-0.524,0.921C34.056,43.893,33.223,44,31.989,44c-1.236,0-2.066-0.107-2.496-0.322
			c-0.43-0.213-0.604-0.521-0.523-0.921l1.127-10.508l-8.533,6.216c-0.322,0.24-0.685,0.24-1.087,0
			c-0.402-0.242-0.913-0.895-1.53-1.967c-0.618-1.041-0.933-1.795-0.946-2.264c-0.015-0.467,0.167-0.782,0.543-0.943l9.701-4.29
			l-9.701-4.251c-0.376-0.187-0.558-0.515-0.543-0.983c0.013-0.467,0.328-1.223,0.946-2.265c0.617-1.044,1.127-1.685,1.53-1.926
			c0.402-0.24,0.765-0.24,1.087,0l8.533,6.176L28.97,15.285c-0.08-0.428,0.094-0.749,0.523-0.963S30.753,14,31.989,14
			c1.233,0,2.066,0.108,2.495,0.322s0.604,0.535,0.524,0.963l-1.128,10.466l8.573-6.176c0.322-0.24,0.679-0.24,1.067,0
			c0.389,0.242,0.892,0.897,1.51,1.966c0.616,1.016,0.938,1.758,0.966,2.225c0.026,0.469-0.146,0.796-0.523,0.983l-9.701,4.251
			L45.474,33.291z"/>
	</g>
</g>
</svg>
