<?xml version="1.0" encoding="utf-8"?>
<!-- Generator: Adobe Illustrator 15.0.0, SVG Export Plug-In . SVG Version: 6.00 Build 0)  -->
<!DOCTYPE svg PUBLIC "-//W3C//DTD SVG 1.1//EN" "http://www.w3.org/Graphics/SVG/1.1/DTD/svg11.dtd">
<svg version="1.1" id="Layer_1" xmlns="http://www.w3.org/2000/svg" xmlns:xlink="http://www.w3.org/1999/xlink" x="0px" y="0px"
	 width="64px" height="64px" viewBox="0 0 64 64" enable-background="new 0 0 64 64" xml:space="preserve">
<g>
	<g>
		<path fill="#D0D0D0" d="M62,52c0,5.523-4.478,10-10,10H12C6.478,62,2,57.523,2,52V12C2,6.477,6.478,2,12,2h40
			c5.522,0,10,4.477,10,10V52z"/>
		<path fill="#FFFFFF" d="M57,45.666C57,50.27,53.269,54,48.667,54H15.333C10.731,54,7,50.27,7,45.666V12.334
			C7,7.73,10.731,4,15.333,4h33.334C53.269,4,57,7.73,57,12.334V45.666z"/>
	</g>
	<g>
		<path fill="#9AA0A5" d="M38,45h-6.108V21.979c-2.232,2.086-4.862,3.629-7.892,4.629v-5.543c1.594-0.521,3.326-1.512,5.195-2.967
			c1.87-1.455,3.152-3.156,3.848-5.098H38V45z"/>
	</g>
</g>
</svg>
