<?xml version="1.0" encoding="utf-8"?>
<!-- Generator: Adobe Illustrator 15.0.0, SVG Export Plug-In . SVG Version: 6.00 Build 0)  -->
<!DOCTYPE svg PUBLIC "-//W3C//DTD SVG 1.1//EN" "http://www.w3.org/Graphics/SVG/1.1/DTD/svg11.dtd">
<svg version="1.1" id="Layer_1" xmlns="http://www.w3.org/2000/svg" xmlns:xlink="http://www.w3.org/1999/xlink" x="0px" y="0px"
	 width="64px" height="64px" viewBox="0 0 64 64" enable-background="new 0 0 64 64" xml:space="preserve">
<g>
	<g>
		<path fill="#D0D0D0" d="M62,52c0,5.523-4.478,10-10,10H12C6.478,62,2,57.523,2,52V12C2,6.477,6.478,2,12,2h40
			c5.522,0,10,4.477,10,10V52z"/>
		<path fill="#FFFFFF" d="M57,45.666C57,50.27,53.269,54,48.667,54H15.333C10.731,54,7,50.27,7,45.666V12.334
			C7,7.73,10.731,4,15.333,4h33.334C53.269,4,57,7.73,57,12.334V45.666z"/>
	</g>
	<g>
		<path fill="#9AA0A5" d="M42,39.326V45H22c0.216-2.146,0.865-4.178,1.949-6.098c1.083-1.922,3.221-4.467,6.416-7.643
			c2.571-2.564,4.148-4.303,4.731-5.217c0.784-1.26,1.177-2.508,1.177-3.738c0-1.363-0.342-2.41-1.025-3.143
			s-1.627-1.098-2.832-1.098c-1.191,0-2.14,0.385-2.843,1.152c-0.704,0.768-1.11,2.045-1.218,3.826l-5.686-0.609
			c0.338-3.361,1.401-5.773,3.188-7.238C27.645,13.732,29.878,13,32.559,13c2.936,0,5.246,0.848,6.924,2.543S42,19.348,42,21.869
			c0,1.434-0.24,2.801-0.721,4.098c-0.48,1.299-1.242,2.656-2.284,4.076c-0.691,0.941-1.937,2.297-3.737,4.064
			c-1.799,1.77-2.94,2.943-3.42,3.523c-0.48,0.578-0.871,1.145-1.168,1.695H42z"/>
	</g>
</g>
</svg>
