<?xml version="1.0" encoding="utf-8"?>
<!-- Generator: Adobe Illustrator 15.0.0, SVG Export Plug-In . SVG Version: 6.00 Build 0)  -->
<!DOCTYPE svg PUBLIC "-//W3C//DTD SVG 1.1//EN" "http://www.w3.org/Graphics/SVG/1.1/DTD/svg11.dtd">
<svg version="1.1" id="Layer_1" xmlns="http://www.w3.org/2000/svg" xmlns:xlink="http://www.w3.org/1999/xlink" x="0px" y="0px"
	 width="64px" height="64px" viewBox="0 0 64 64" enable-background="new 0 0 64 64" xml:space="preserve">
<g>
	<g>
		<path fill="#D0D0D0" d="M61.978,51.994c0,5.523-4.478,10-10,10h-40c-5.522,0-10-4.477-10-10v-40c0-5.523,4.478-10,10-10h40
			c5.522,0,10,4.477,10,10V51.994z"/>
		<path fill="#FFFFFF" d="M56.978,45.66c0,4.604-3.731,8.334-8.333,8.334H15.311c-4.602,0-8.333-3.73-8.333-8.334V12.328
			c0-4.604,3.731-8.334,8.333-8.334h33.334c4.602,0,8.333,3.73,8.333,8.334V45.66z"/>
	</g>
	<g>
		<path fill="#9AA0A5" d="M21.978,36.145l5.585-0.707c0.179,1.482,0.657,2.617,1.438,3.4s1.725,1.176,2.834,1.176
			c1.19,0,2.193-0.471,3.009-1.41c0.814-0.941,1.223-2.209,1.223-3.807c0-1.51-0.391-2.707-1.172-3.59
			c-0.781-0.885-1.731-1.324-2.854-1.324c-0.74,0-1.623,0.148-2.65,0.447l0.637-4.895c1.561,0.043,2.752-0.311,3.573-1.059
			s1.232-1.742,1.232-2.982c0-1.055-0.301-1.896-0.903-2.521c-0.603-0.627-1.404-0.941-2.403-0.941
			c-0.985,0-1.827,0.355-2.525,1.068s-1.122,1.752-1.273,3.121l-5.317-0.939c0.369-1.896,0.928-3.41,1.674-4.543
			c0.745-1.133,1.785-2.023,3.121-2.672c1.334-0.648,2.83-0.973,4.486-0.973c2.833,0,5.106,0.939,6.816,2.822
			c1.41,1.539,2.115,3.275,2.115,5.215c0,2.75-1.444,4.945-4.332,6.584c1.725,0.385,3.104,1.246,4.138,2.586
			c1.033,1.34,1.55,2.957,1.55,4.854c0,2.75-0.965,5.094-2.895,7.031c-1.932,1.938-4.334,2.908-7.208,2.908
			c-2.724,0-4.983-0.816-6.776-2.447C23.306,40.914,22.266,38.779,21.978,36.145z"/>
	</g>
</g>
</svg>
