<?xml version="1.0" encoding="utf-8"?>
<!-- Generator: Adobe Illustrator 15.0.0, SVG Export Plug-In . SVG Version: 6.00 Build 0)  -->
<!DOCTYPE svg PUBLIC "-//W3C//DTD SVG 1.1//EN" "http://www.w3.org/Graphics/SVG/1.1/DTD/svg11.dtd">
<svg version="1.1" id="Layer_1" xmlns="http://www.w3.org/2000/svg" xmlns:xlink="http://www.w3.org/1999/xlink" x="0px" y="0px"
	 width="64px" height="64px" viewBox="0 0 64 64" enable-background="new 0 0 64 64" xml:space="preserve">
<g>
	<g>
		<path fill="#D0D0D0" d="M62,52c0,5.523-4.478,10-10,10H12C6.478,62,2,57.523,2,52V12C2,6.477,6.478,2,12,2h40
			c5.522,0,10,4.477,10,10V52z"/>
		<path fill="#FFFFFF" d="M57,45.666C57,50.27,53.269,54,48.667,54H15.333C10.731,54,7,50.27,7,45.666V12.334
			C7,7.73,10.731,4,15.333,4h33.334C53.269,4,57,7.73,57,12.334V45.666z"/>
	</g>
	<g>
		<path fill="#9AA0A5" d="M22,36.254l5.68-0.631c0.162,1.379,0.643,2.469,1.44,3.273c0.798,0.807,1.717,1.209,2.759,1.209
			c1.189,0,2.197-0.52,3.021-1.557c0.825-1.035,1.237-2.598,1.237-4.688c0-1.957-0.409-3.426-1.228-4.404
			c-0.817-0.979-1.883-1.469-3.193-1.469c-1.637,0-3.104,0.777-4.402,2.328l-4.625-0.719L25.611,13h15.07v5.721h-10.75l-0.893,5.418
			c1.271-0.682,2.568-1.023,3.895-1.023c2.527,0,4.672,0.986,6.43,2.959C41.121,28.045,42,30.605,42,33.754
			c0,2.623-0.71,4.967-2.129,7.025C37.937,43.592,35.252,45,31.818,45c-2.746,0-4.984-0.791-6.715-2.371
			C23.373,41.047,22.338,38.922,22,36.254z"/>
	</g>
</g>
</svg>
