<?xml version="1.0" encoding="utf-8"?>
<!-- Generator: Adobe Illustrator 15.0.0, SVG Export Plug-In . SVG Version: 6.00 Build 0)  -->
<!DOCTYPE svg PUBLIC "-//W3C//DTD SVG 1.1//EN" "http://www.w3.org/Graphics/SVG/1.1/DTD/svg11.dtd">
<svg version="1.1" id="Layer_1" xmlns="http://www.w3.org/2000/svg" xmlns:xlink="http://www.w3.org/1999/xlink" x="0px" y="0px"
	 width="64px" height="64px" viewBox="0 0 64 64" enable-background="new 0 0 64 64" xml:space="preserve">
<g>
	<g>
		<path fill="#94989B" d="M32,62C15.457,62,2,48.541,2,32S15.457,2,32,2c16.543,0,30,13.459,30,30S48.543,62,32,62z M32,6.139
			C17.738,6.139,6.136,17.74,6.136,32c0,14.262,11.602,25.863,25.863,25.863c14.26,0,25.862-11.602,25.862-25.863
			C57.861,17.74,46.26,6.139,32,6.139z"/>
	</g>
	<g>
		<path fill="#94989B" d="M32.335,50C22.775,50,15,41.925,15,32c0-9.924,7.775-18,17.336-18c5.768,0,11.141,2.965,14.374,7.937
			l-3.379,2.37c-2.475-3.802-6.584-6.072-10.995-6.072c-7.311,0-13.258,6.176-13.258,13.766s5.947,13.764,13.258,13.764
			c4.575,0,8.768-2.399,11.217-6.422L47,41.604C43.801,46.861,38.316,50,32.335,50z"/>
	</g>
</g>
</svg>
