<?xml version="1.0" encoding="utf-8"?>
<!-- Generator: Adobe Illustrator 15.0.0, SVG Export Plug-In . SVG Version: 6.00 Build 0)  -->
<!DOCTYPE svg PUBLIC "-//W3C//DTD SVG 1.1//EN" "http://www.w3.org/Graphics/SVG/1.1/DTD/svg11.dtd">
<svg version="1.1" id="Layer_1" xmlns="http://www.w3.org/2000/svg" xmlns:xlink="http://www.w3.org/1999/xlink" x="0px" y="0px"
	 width="64px" height="64px" viewBox="0 0 64 64" enable-background="new 0 0 64 64" xml:space="preserve">
<g>
	<g>
		<path fill="#94989B" d="M32,62C15.457,62,2,48.543,2,32C2,15.458,15.457,2,32,2c16.541,0,30,13.458,30,30
			C62,48.543,48.541,62,32,62z M32,6C17.664,6,6,17.663,6,32c0,14.338,11.664,26,26,26s26-11.662,26-26C58,17.663,46.336,6,32,6z"/>
	</g>
	<path fill="#94989B" d="M48,27.301C48,20.519,42.797,15,36.4,15H20v22.646V39.6v8.607h4V39.6h11.1l4.271,9.4l3.656-1.584
		l-3.734-8.22C44.291,37.828,48,33.022,48,27.301z M36.4,35.693H24V18.906h12.4c4.189,0,7.6,3.766,7.6,8.395
		C44,31.928,40.59,35.693,36.4,35.693z"/>
</g>
</svg>
