<?xml version="1.0" encoding="utf-8"?>
<!-- Generator: Adobe Illustrator 15.0.0, SVG Export Plug-In . SVG Version: 6.00 Build 0)  -->
<!DOCTYPE svg PUBLIC "-//W3C//DTD SVG 1.1//EN" "http://www.w3.org/Graphics/SVG/1.1/DTD/svg11.dtd">
<svg version="1.1" id="Layer_1" xmlns="http://www.w3.org/2000/svg" xmlns:xlink="http://www.w3.org/1999/xlink" x="0px" y="0px"
	 width="64px" height="64px" viewBox="0 0 64 64" enable-background="new 0 0 64 64" xml:space="preserve">
<g>
	<path fill="#B69467" d="M64.001,30.793L64.001,30.793v-8.402h-5.746v2.975L40.358,10.976c-0.947-0.762-2.482-0.762-3.43,0
		L5.745,36.05v-2.843H0v8.271c0,0.001,0,0.001,0,0.002v0.209h0.025c0.057,0.426,0.278,0.841,0.685,1.168l22.932,18.439
		c0.947,0.762,2.482,0.762,3.429,0l36.22-29.125c0.447-0.36,0.677-0.826,0.699-1.299H64L64.001,30.793z"/>
	<path fill="#EFDEC2" d="M27.071,53.023c-0.947,0.762-2.482,0.762-3.429,0L0.71,34.585c-0.947-0.761-0.947-1.996,0-2.757
		L36.929,2.704c0.947-0.76,2.482-0.76,3.43,0l22.933,18.439c0.945,0.762,0.945,1.995,0,2.756L27.071,53.023z"/>
	<path fill-rule="evenodd" clip-rule="evenodd" fill="#B70000" d="M46.541,13.479c0.823,2.12,0.275,4.201,0.264,6.297
		c-1.772,2.118-3.725-0.001-5.48,2.548c3.83,1.971,9.125,6.42,6.587,10.511c-4.122-0.582-8.261-1.594-12.269,0.566
		c0-1.2-1.976-2.449-3.507-3.688c-6.467,2.126-9.514,10.247-16.29,11.238c0.263-4.635,11.336-8.978,13.399-13.564
		c-1.573-1.96-3.028-1.139-4.588-2.82c4.193-3.629-3.083-7.569,3.444-11.138c2.126,1.556,0.076,2.998,1.307,4.529
		c2.482,1.458,4.922,1.886,7.404,3.346c3.808-2.593,3.157-5.305,5.254-7.944C43.543,13.058,45.074,14.025,46.541,13.479z
		 M38.044,24.031c-1.622,1.304-3.243,2.608-4.865,3.912c3.634,2.25,7.142,1.529,10.609-0.162
		C43.531,25.576,39.943,24.722,38.044,24.031z M30.062,20.22c-0.884,1.923-2.262,3.833,0.804,5.861
		c1.455-1.457,4.847-2.862,3.167-4.405C32.74,21.929,31.39,20.808,30.062,20.22z"/>
</g>
</svg>
