<?xml version="1.0" encoding="utf-8"?>
<!-- Generator: Adobe Illustrator 15.0.0, SVG Export Plug-In . SVG Version: 6.00 Build 0)  -->
<!DOCTYPE svg PUBLIC "-//W3C//DTD SVG 1.1//EN" "http://www.w3.org/Graphics/SVG/1.1/DTD/svg11.dtd">
<svg version="1.1" id="Layer_1" xmlns="http://www.w3.org/2000/svg" xmlns:xlink="http://www.w3.org/1999/xlink" x="0px" y="0px"
	 width="64px" height="64px" viewBox="0 0 64 64" enable-background="new 0 0 64 64" xml:space="preserve">
<g>
	<g>
		<path fill="#EFEDED" d="M13,62.5c-3.033,0-5.5-2.468-5.5-5.5V7c0-3.032,2.467-5.5,5.5-5.5h38c3.033,0,5.5,2.468,5.5,5.5v50
			c0,3.032-2.467,5.5-5.5,5.5H13z"/>
		<path fill="#262626" d="M51,3c2.209,0,4,1.79,4,4v50c0,2.209-1.791,4-4,4H13c-2.209,0-4-1.791-4-4V7c0-2.21,1.791-4,4-4H51 M51,0
			H13C9.14,0,6,3.141,6,7v50c0,3.859,3.14,7,7,7h38c3.859,0,7-3.141,7-7V7C58,3.141,54.859,0,51,0L51,0z"/>
	</g>
	<g>
		<g>
			<g>
				<path fill="#333333" d="M43.648,55.167l-7.273-12.846c-1.174,1.299-2.719,4.247-4.414,4.247c-1.651,0-3.163-2.91-4.325-4.154
					l-7.325,12.753l8.661-7.332l-0.89,7.332l3.945-7.704l3.853,7.704l-0.809-7.343L43.648,55.167z"/>
			</g>
		</g>
		<g>
			<path fill="#FED0AC" d="M39.309,26.891H24.681c0,0-3.048,5.757,2.563,15.254c1.772,2.999,3.339,4.483,4.75,4.511
				c1.413-0.027,2.981-1.512,4.752-4.511C42.354,32.647,39.309,26.891,39.309,26.891z"/>
		</g>
		<g>
			<path fill="#333333" d="M35.635,39.625c0,0-0.123,0.089-0.334,0.228c-0.102,0.071-0.225,0.156-0.369,0.244
				c-0.141,0.088-0.299,0.184-0.471,0.277c-0.346,0.19-0.74,0.375-1.158,0.5c-0.211,0.063-0.425,0.111-0.645,0.142
				c-0.054,0.005-0.109,0.017-0.164,0.022c-0.054,0.002-0.115,0.012-0.164,0.014l-0.072,0.004l-0.035,0.003h-0.02l-0.026,0.002
				l-0.188,0.004c-0.47,0-0.912-0.062-1.333-0.182c-0.416-0.118-0.813-0.3-1.15-0.491c-0.341-0.188-0.626-0.383-0.828-0.528
				s-0.322-0.238-0.322-0.238s-0.004,0.035,0,0.101c0.006,0.067,0.018,0.164,0.044,0.283c0.054,0.242,0.173,0.583,0.429,0.953
				c0.126,0.187,0.288,0.376,0.487,0.563c0.202,0.182,0.442,0.356,0.719,0.507c0.279,0.146,0.593,0.27,0.925,0.348
				c0.335,0.08,0.681,0.122,1.027,0.124h0.006h0.032l0.015-0.002h0.026h0.053l0.108-0.005h0.028l0.034-0.005l0.072-0.005
				l0.142-0.016c0.182-0.019,0.349-0.05,0.515-0.092c0.336-0.082,0.646-0.208,0.922-0.36c0.277-0.15,0.514-0.326,0.713-0.509
				c0.197-0.183,0.359-0.374,0.486-0.558c0.127-0.182,0.221-0.359,0.293-0.521c0.07-0.159,0.117-0.305,0.148-0.423
				C35.639,39.769,35.635,39.625,35.635,39.625z"/>
		</g>
		<g>
			<g>
				<path fill="#333333" d="M30.252,33.401c-0.023-0.061-0.06-0.125-0.107-0.198c-0.023-0.038-0.049-0.077-0.079-0.118
					c-0.028-0.038-0.064-0.078-0.1-0.121s-0.076-0.083-0.12-0.127c-0.046-0.043-0.092-0.088-0.147-0.128
					c-0.053-0.038-0.105-0.083-0.171-0.121c-0.058-0.036-0.124-0.074-0.192-0.11c-0.141-0.065-0.294-0.125-0.464-0.163
					c-0.041-0.007-0.082-0.016-0.125-0.024c-0.043-0.006-0.087-0.012-0.131-0.015c-0.086-0.014-0.176-0.01-0.265-0.012
					c-0.172,0.009-0.347,0.027-0.508,0.074c-0.162,0.042-0.313,0.101-0.448,0.17c-0.135,0.065-0.254,0.146-0.357,0.223
					c-0.106,0.082-0.195,0.163-0.271,0.243c-0.154,0.163-0.249,0.317-0.309,0.428c-0.027,0.055-0.044,0.101-0.056,0.133
					c-0.015,0.029-0.018,0.048-0.018,0.048s0.07-0.03,0.191-0.081c0.12-0.051,0.284-0.122,0.475-0.199
					c0.098-0.035,0.197-0.074,0.305-0.11c-0.061,0.12-0.095,0.252-0.095,0.391c0,0.536,0.489,0.974,1.094,0.974
					c0.602,0,1.092-0.438,1.092-0.974c0-0.155-0.043-0.301-0.114-0.432c0.013,0.005,0.023,0.011,0.037,0.015
					c0.054,0.015,0.101,0.038,0.15,0.058c0.051,0.019,0.1,0.038,0.145,0.061c0.093,0.04,0.183,0.077,0.26,0.118
					c0.079,0.034,0.151,0.067,0.206,0.094c0.059,0.028,0.109,0.049,0.142,0.066c0.032,0.014,0.05,0.021,0.05,0.021
					s-0.003-0.018-0.017-0.048C30.294,33.503,30.279,33.456,30.252,33.401z"/>
			</g>
			<g>
				<path fill="#333333" d="M37.588,33.534c-0.012-0.031-0.027-0.078-0.057-0.133c-0.021-0.061-0.057-0.125-0.104-0.198
					c-0.023-0.038-0.051-0.077-0.08-0.118c-0.029-0.038-0.064-0.078-0.1-0.121s-0.078-0.083-0.119-0.127
					c-0.047-0.043-0.092-0.088-0.148-0.128c-0.053-0.038-0.105-0.083-0.17-0.121c-0.059-0.036-0.125-0.074-0.193-0.11
					c-0.143-0.065-0.295-0.125-0.463-0.163c-0.041-0.007-0.082-0.016-0.127-0.024c-0.043-0.006-0.084-0.012-0.131-0.015
					c-0.088-0.014-0.174-0.01-0.262-0.012c-0.174,0.009-0.35,0.027-0.508,0.074c-0.164,0.042-0.314,0.101-0.449,0.17
					c-0.137,0.065-0.254,0.146-0.359,0.223c-0.104,0.082-0.195,0.163-0.27,0.243c-0.154,0.163-0.25,0.317-0.309,0.428
					c-0.027,0.055-0.045,0.101-0.059,0.133c-0.01,0.029-0.014,0.048-0.014,0.048s0.068-0.03,0.189-0.081s0.285-0.122,0.477-0.199
					c0.096-0.035,0.197-0.074,0.303-0.11c-0.059,0.12-0.092,0.252-0.092,0.391c0,0.536,0.488,0.974,1.09,0.974
					c0.604,0,1.092-0.438,1.092-0.974c0-0.155-0.041-0.301-0.111-0.432c0.01,0.005,0.023,0.011,0.035,0.015
					c0.055,0.015,0.102,0.038,0.152,0.058c0.049,0.019,0.1,0.038,0.143,0.061c0.094,0.04,0.184,0.077,0.26,0.118
					c0.078,0.034,0.152,0.067,0.207,0.094c0.057,0.028,0.109,0.049,0.139,0.066c0.035,0.014,0.053,0.021,0.053,0.021
					S37.6,33.564,37.588,33.534z"/>
			</g>
		</g>
		<g>
			<path fill="#333333" d="M46.438,14.946C38.932,10.942,33.844,20.063,32,24.179c-1.847-4.115-6.933-13.236-14.438-9.232
				c-2.429,1.296-4.692,3.78-4.692,3.78s10.454-1.283,11.237,9.962c2.158-1.389,4.843-4.1,7.734-4.1c3.027,0,5.878,2.588,8.085,4.1
				c0.676-11.483,11.203-9.962,11.203-9.962S48.863,16.242,46.438,14.946z"/>
		</g>
		<g>
			<path fill="#94989B" d="M39.252,26.494c-0.451-1.783-2.525-9.255-7.258-15.834V10.56h-0.07v0.101
				c-5.415,7.531-7.354,16.23-7.354,16.23c0.003-0.002,0.003-0.002,0.003-0.002c-0.392,0.999-0.654,2.187-0.719,3.6
				c0,0,1.151-3.598,4.389-3.598c3.233,0,3.752,3.598,3.752,3.598s0.518-3.598,3.754-3.598c3.236,0,4.385,3.598,4.385,3.598
				C40.063,28.884,39.732,27.569,39.252,26.494z"/>
		</g>
		<g>
			<g>
				<ellipse fill="#333333" cx="31.981" cy="10.56" rx="1.942" ry="1.727"/>
			</g>
			<g>
				<ellipse fill="#94989B" cx="12.871" cy="18.737" rx="1.944" ry="1.728"/>
			</g>
			<g>
				<ellipse fill="#94989B" cx="51.131" cy="18.716" rx="1.945" ry="1.728"/>
			</g>
		</g>
	</g>
</g>
</svg>
