<?xml version="1.0" encoding="utf-8"?>
<!-- Generator: Adobe Illustrator 15.0.0, SVG Export Plug-In . SVG Version: 6.00 Build 0)  -->
<!DOCTYPE svg PUBLIC "-//W3C//DTD SVG 1.1//EN" "http://www.w3.org/Graphics/SVG/1.1/DTD/svg11.dtd">
<svg version="1.1" id="Layer_1" xmlns="http://www.w3.org/2000/svg" xmlns:xlink="http://www.w3.org/1999/xlink" x="0px" y="0px"
	 width="64px" height="64px" viewBox="0 0 64 64" enable-background="new 0 0 64 64" xml:space="preserve">
<g>
	<path fill="#ED4C5C" d="M62,52c0,5.523-4.477,10-10,10H12C6.477,62,2,57.523,2,52V12C2,6.477,6.477,2,12,2h40
		c5.523,0,10,4.477,10,10V52z"/>
	<g>
		<g>
			<path fill="#FFFFFF" d="M32,48c-8.822,0-16-7.177-16-16c0-8.82,7.177-16,16-16c8.823,0,16,7.18,16,16C48,40.823,40.822,48,32,48z
				 M32,21.053c-6.035,0-10.947,4.911-10.947,10.947S25.964,42.947,32,42.947c6.038,0,10.948-4.911,10.948-10.947
				S38.037,21.053,32,21.053z"/>
		</g>
	</g>
</g>
</svg>
