<?xml version="1.0" encoding="utf-8"?>
<!-- Generator: Adobe Illustrator 15.0.0, SVG Export Plug-In . SVG Version: 6.00 Build 0)  -->
<!DOCTYPE svg PUBLIC "-//W3C//DTD SVG 1.1//EN" "http://www.w3.org/Graphics/SVG/1.1/DTD/svg11.dtd">
<svg version="1.1" id="Layer_1" xmlns="http://www.w3.org/2000/svg" xmlns:xlink="http://www.w3.org/1999/xlink" x="0px" y="0px"
	 width="64px" height="64px" viewBox="0 0 64 64" enable-background="new 0 0 64 64" xml:space="preserve">
<g>
	<path fill="#ED4C5C" d="M62,52c0,5.523-4.477,10-10,10H12C6.477,62,2,57.523,2,52V12C2,6.477,6.477,2,12,2h40
		c5.523,0,10,4.477,10,10V52z"/>
	<g>
		<g>
			<g>
				<path fill="#FFFFFF" d="M28.139,45H32l-8.807-26h-4.388L10,45h3.862l3.082-9.1h8.111L28.139,45z M18.266,32L21,23.926L23.736,32
					H18.266z"/>
			</g>
			<path fill="#FFFFFF" d="M52,26.535C52,22.391,49.768,19,46,19H36v26l9.169-0.017c3.768,0,6.831-3.374,6.831-7.516
				c0-2.155-0.828-4.097-2.15-5.468C51.172,30.629,52,28.688,52,26.535z M45.169,40.883h-5.624v-6.832h5.624
				c1.712,0,3.105,1.531,3.105,3.417C48.274,39.35,46.881,40.883,45.169,40.883z M45.169,29.952h-5.624v-6.835h5.624
				c1.712,0,3.105,1.535,3.105,3.418S46.881,29.952,45.169,29.952z"/>
		</g>
	</g>
</g>
</svg>
