<?xml version="1.0" encoding="utf-8"?>
<!-- Generator: Adobe Illustrator 15.0.0, SVG Export Plug-In . SVG Version: 6.00 Build 0)  -->
<!DOCTYPE svg PUBLIC "-//W3C//DTD SVG 1.1//EN" "http://www.w3.org/Graphics/SVG/1.1/DTD/svg11.dtd">
<svg version="1.1" id="Layer_1" xmlns="http://www.w3.org/2000/svg" xmlns:xlink="http://www.w3.org/1999/xlink" x="0px" y="0px"
	 width="64px" height="64px" viewBox="0 0 64 64" enable-background="new 0 0 64 64" xml:space="preserve">
<g>
	<path fill="#F2B200" d="M62,52c0,5.523-4.477,10-10,10H12C6.477,62,2,57.523,2,52V12C2,6.477,6.477,2,12,2h40
		c5.523,0,10,4.477,10,10V52z"/>
	<g>
		<g>
			<path fill="#FFFFFF" d="M44.002,30.174c-2.377,0-4.311-1.912-4.311-4.262c0-2.348,1.934-4.26,4.311-4.26
				c2.373,0,4.307,1.912,4.307,4.26H52C52,21.549,48.412,18,44.002,18C39.59,18,36,21.549,36,25.912s3.59,7.914,8.002,7.914
				c2.373,0,4.307,1.912,4.307,4.26c0,2.35-1.934,4.262-4.307,4.262c-2.377,0-4.311-1.912-4.311-4.262H36
				C36,42.449,39.59,46,44.002,46C48.412,46,52,42.449,52,38.086S48.412,30.174,44.002,30.174z"/>
			<polygon fill="#FFFFFF" points="24.58,46 34,18 30.021,18 23.164,38.379 15.998,18 12,18 21.848,46 			"/>
		</g>
	</g>
</g>
</svg>
