<?xml version="1.0" encoding="utf-8"?>
<!-- Generator: Adobe Illustrator 15.0.0, SVG Export Plug-In . SVG Version: 6.00 Build 0)  -->
<!DOCTYPE svg PUBLIC "-//W3C//DTD SVG 1.1//EN" "http://www.w3.org/Graphics/SVG/1.1/DTD/svg11.dtd">
<svg version="1.1" id="Layer_1" xmlns="http://www.w3.org/2000/svg" xmlns:xlink="http://www.w3.org/1999/xlink" x="0px" y="0px"
	 width="64px" height="64px" viewBox="0 0 64 64" enable-background="new 0 0 64 64" xml:space="preserve">
<g>
	<path fill="#ED4C5C" d="M62,52c0,5.523-4.477,10-10,10H12C6.477,62,2,57.523,2,52V12C2,6.477,6.477,2,12,2h40
		c5.523,0,10,4.477,10,10V52z"/>
	<g>
		<g>
			<path fill="#FFFFFF" d="M23,43.087c-2.375,0-4.309-2.048-4.309-4.565V25.479c0-2.518,1.934-4.565,4.309-4.565
				s4.309,2.048,4.309,4.565H31c0-1.144-0.211-2.255-0.629-3.303c-0.403-1.008-0.979-1.915-1.714-2.693
				c-0.734-0.777-1.589-1.388-2.541-1.816C25.127,17.225,24.08,17,23,17s-2.129,0.225-3.114,0.666
				c-0.954,0.429-1.809,1.039-2.543,1.816c-0.733,0.778-1.311,1.686-1.714,2.693C15.211,23.224,15,24.335,15,25.479v13.043
				c0,1.144,0.211,2.254,0.629,3.3c0.403,1.011,0.98,1.918,1.714,2.694c0.734,0.778,1.589,1.39,2.543,1.817
				C20.871,46.775,21.92,47,23,47s2.127-0.225,3.116-0.667c0.952-0.428,1.807-1.039,2.541-1.817
				c0.735-0.776,1.311-1.684,1.714-2.694c0.418-1.046,0.629-2.156,0.629-3.3h-3.691C27.309,41.039,25.375,43.087,23,43.087z"/>
			<polygon fill="#FFFFFF" points="49,43.086 40.693,43.086 40.693,17 37,17 37,47 49,47 			"/>
		</g>
	</g>
</g>
</svg>
