<?xml version="1.0" encoding="utf-8"?>
<!-- Generator: Adobe Illustrator 15.0.0, SVG Export Plug-In . SVG Version: 6.00 Build 0)  -->
<!DOCTYPE svg PUBLIC "-//W3C//DTD SVG 1.1//EN" "http://www.w3.org/Graphics/SVG/1.1/DTD/svg11.dtd">
<svg version="1.1" id="Layer_1" xmlns="http://www.w3.org/2000/svg" xmlns:xlink="http://www.w3.org/1999/xlink" x="0px" y="0px"
	 width="64px" height="64px" viewBox="0 0 64 64" enable-background="new 0 0 64 64" xml:space="preserve">
<g>
	<path fill="#42ADE2" d="M62,52c0,5.523-4.477,10-10,10H12C6.477,62,2,57.523,2,52V12C2,6.477,6.477,2,12,2h40
		c5.523,0,10,4.477,10,10V52z"/>
	<g>
		<g>
			<path fill="#FFFFFF" d="M15,37.715c-1.378,0-2.5-1.026-2.5-2.286v-6.857c0-1.26,1.122-2.285,2.5-2.285s2.5,1.025,2.5,2.285H20
				C20,26.052,17.758,24,15,24c-2.756,0-5,2.052-5,4.571v6.857C10,37.95,12.245,40,15,40c2.758,0,5-2.05,5-4.571h-2.5
				C17.5,36.688,16.378,37.715,15,37.715z"/>
			<g>
				<path fill="#FFFFFF" d="M27,24c-2.756,0-5,2.052-5,4.571v6.857C22,37.95,24.244,40,27,40s5-2.05,5-4.571v-6.857
					C32,26.052,29.756,24,27,24z M27,37.715c-1.377,0-2.5-1.026-2.5-2.286v-6.857c0-1.26,1.123-2.285,2.5-2.285
					c1.379,0,2.5,1.025,2.5,2.285v6.857C29.5,36.688,28.379,37.715,27,37.715z"/>
			</g>
			<g>
				<path fill="#FFFFFF" d="M39,24c-2.758,0-5,2.052-5,4.571v6.857C34,37.949,36.242,40,39,40c2.756,0,5-2.051,5-4.571v-6.857
					C44,26.052,41.756,24,39,24z M39,37.715c-1.377,0-2.5-1.026-2.5-2.286v-6.857c0-1.26,1.123-2.286,2.5-2.286
					c1.379,0,2.5,1.026,2.5,2.286v6.857C41.5,36.688,40.379,37.715,39,37.715z"/>
			</g>
			<polygon fill="#FFFFFF" points="48.287,24 46,24 46,40 54,40 54,37.715 48.287,37.715 			"/>
		</g>
	</g>
</g>
</svg>
