<?xml version="1.0" encoding="utf-8"?>
<!-- Generator: Adobe Illustrator 15.0.0, SVG Export Plug-In . SVG Version: 6.00 Build 0)  -->
<!DOCTYPE svg PUBLIC "-//W3C//DTD SVG 1.1//EN" "http://www.w3.org/Graphics/SVG/1.1/DTD/svg11.dtd">
<svg version="1.1" id="Layer_1" xmlns="http://www.w3.org/2000/svg" xmlns:xlink="http://www.w3.org/1999/xlink" x="0px" y="0px"
	 width="64px" height="64px" viewBox="0 0 64 64" enable-background="new 0 0 64 64" xml:space="preserve">
<g>
	<path fill="#42ADE2" d="M62,52c0,5.523-4.477,10-10,10H12C6.477,62,2,57.523,2,52V12C2,6.477,6.477,2,12,2h40
		c5.523,0,10,4.477,10,10V52z"/>
	<g>
		<g>
			<g>
				<path fill="#FFFFFF" d="M12,22h4.051v10.65c0,1.689,0.051,2.785,0.151,3.285c0.173,0.805,0.587,1.452,1.238,1.938
					c0.652,0.488,1.544,0.73,2.676,0.73c1.15,0,2.017-0.228,2.601-0.69c0.584-0.461,0.936-1.025,1.055-1.695
					c0.118-0.671,0.178-1.784,0.178-3.34V22H28v10.328c0,2.36-0.109,4.028-0.328,5.003c-0.219,0.976-0.623,1.798-1.211,2.469
					c-0.589,0.671-1.376,1.205-2.361,1.602C23.114,41.8,21.827,42,20.24,42c-1.916,0-3.37-0.219-4.359-0.65
					c-0.991-0.435-1.773-0.999-2.348-1.691c-0.575-0.693-0.954-1.42-1.137-2.179C12.132,36.353,12,34.688,12,32.488V22z"/>
				<path fill="#FFFFFF" d="M31,42V22h5.922c2.244,0,3.707,0.1,4.389,0.299c1.047,0.302,1.924,0.953,2.63,1.959
					c0.707,1.004,1.06,2.303,1.06,3.896c0,1.228-0.203,2.259-0.61,3.095c-0.407,0.838-0.925,1.495-1.553,1.974
					c-0.627,0.477-1.265,0.792-1.913,0.946c-0.881,0.191-2.157,0.287-3.827,0.287h-2.405V42H31z M34.691,25.382v5.677h2.018
					c1.455,0,2.428-0.105,2.918-0.313c0.49-0.21,0.875-0.538,1.152-0.984c0.279-0.445,0.418-0.963,0.418-1.556
					c0-0.727-0.193-1.327-0.585-1.8c-0.391-0.473-0.886-0.77-1.483-0.888c-0.441-0.09-1.326-0.137-2.656-0.137H34.691z"/>
				<path fill="#FFFFFF" d="M48,42v-4h4v4H48z"/>
			</g>
			<rect x="48" y="22" fill="#FFFFFF" width="4" height="12"/>
		</g>
	</g>
</g>
</svg>
