<?xml version="1.0" encoding="utf-8"?>
<!-- Generator: Adobe Illustrator 15.0.0, SVG Export Plug-In . SVG Version: 6.00 Build 0)  -->
<!DOCTYPE svg PUBLIC "-//W3C//DTD SVG 1.1//EN" "http://www.w3.org/Graphics/SVG/1.1/DTD/svg11.dtd">
<svg version="1.1" id="Layer_1" xmlns="http://www.w3.org/2000/svg" xmlns:xlink="http://www.w3.org/1999/xlink" x="0px" y="0px"
	 width="64px" height="64px" viewBox="0 0 64 64" enable-background="new 0 0 64 64" xml:space="preserve">
<g>
	<path fill="#42ADE2" d="M62,52c0,5.523-4.477,10-10,10H12C6.477,62,2,57.523,2,52V12C2,6.477,6.477,2,12,2h40
		c5.523,0,10,4.477,10,10V52z"/>
	<g>
		<g>
			<g>
				<polygon fill="#FFFFFF" points="34,41 42,41 42,38 36.909,38 36.909,33.5 42,33.5 42,30.5 36.909,30.5 36.909,26 42,26 42,23 
					34,23 				"/>
				<polygon fill="#FFFFFF" points="54,26 54,23 46,23 46,41 54,41 54,38 48.909,38 48.909,33.5 54,33.5 54,30.5 48.909,30.5 
					48.909,26 				"/>
			</g>
			<path fill="#FFFFFF" d="M23.857,41v-7.5h1.125l2.47,7.5h3.022l-2.596-7.885C29.707,32.334,31,30.447,31,28.25
				c0-2.895-2.242-5.25-5-5.25h-5v18H23.857z M23.857,26H26c1.182,0,2.143,1.01,2.143,2.25S27.182,30.5,26,30.5h-2.143V26z"/>
			<polygon fill="#FFFFFF" points="12.909,41 12.909,33.5 18,33.5 18,30.5 12.909,30.5 12.909,26 18,26 18,23 10,23 10,41 			"/>
		</g>
	</g>
</g>
</svg>
