<?xml version="1.0" encoding="utf-8"?>
<!-- Generator: Adobe Illustrator 15.0.0, SVG Export Plug-In . SVG Version: 6.00 Build 0)  -->
<!DOCTYPE svg PUBLIC "-//W3C//DTD SVG 1.1//EN" "http://www.w3.org/Graphics/SVG/1.1/DTD/svg11.dtd">
<svg version="1.1" id="Layer_1" xmlns="http://www.w3.org/2000/svg" xmlns:xlink="http://www.w3.org/1999/xlink" x="0px" y="0px"
	 width="64px" height="64px" viewBox="0 0 64 64" enable-background="new 0 0 64 64" xml:space="preserve">
<g>
	<path fill="#ED4C5C" d="M62,52c0,5.523-4.477,10-10,10H12C6.476,62,2,57.523,2,52V12C2,6.477,6.476,2,12,2h40
		c5.523,0,10,4.477,10,10V52z"/>
	<g>
		<g>
			<path fill="#FFFFFF" d="M22.99,34.616c-0.352-0.795-0.851-1.516-1.484-2.142c-0.634-0.627-1.364-1.121-2.175-1.472
				c-0.853-0.37-1.749-0.558-2.665-0.558c-1.91,0-3.934-1.89-3.934-3.674c0-2.011,1.664-3.646,3.711-3.646
				c2.046,0,3.928,1.611,3.928,3.622h3.181c0-0.914-0.182-1.801-0.543-2.636c-0.348-0.807-0.844-1.531-1.477-2.152
				c-0.631-0.62-1.368-1.108-2.19-1.45C18.493,20.154,17.373,20,16.443,20s-1.833,0.179-2.682,0.533
				c-0.822,0.34-1.56,0.828-2.19,1.448c-0.633,0.623-1.129,1.347-1.477,2.153c-0.361,0.836-0.543,1.723-0.543,2.637
				c0,1.685,0.804,3.41,2.201,4.736c1.383,1.311,3.174,2.063,4.913,2.063c1.938,0,3.705,1.744,3.705,3.658
				c0,2.011-1.664,3.646-3.711,3.646c-2.046,0-3.928-1.658-3.928-3.668H9.552c0,0.913,0.182,1.8,0.543,2.635
				c0.348,0.808,0.844,1.531,1.477,2.152c0.631,0.62,1.368,1.108,2.19,1.45C14.61,43.799,15.73,44,16.66,44
				c0.931,0,1.833-0.179,2.682-0.533c0.822-0.34,1.56-0.828,2.19-1.45c0.633-0.621,1.129-1.345,1.477-2.151
				c0.361-0.836,0.543-1.723,0.543-2.637C23.552,36.336,23.363,35.457,22.99,34.616z"/>
			<g>
				<path fill="#FFFFFF" d="M39.001,24.143c-0.354-0.809-0.858-1.533-1.5-2.156c-0.642-0.622-1.391-1.111-2.226-1.452
					C34.413,20.181,33.496,20,32.552,20s-1.861,0.181-2.726,0.534c-0.833,0.341-1.582,0.83-2.224,1.452
					c-0.644,0.623-1.148,1.348-1.5,2.156c-0.365,0.838-0.551,1.727-0.551,2.641v10.435c0,0.915,0.186,1.804,0.551,2.64
					c0.352,0.81,0.856,1.534,1.5,2.156c0.642,0.622,1.391,1.111,2.224,1.453C30.69,43.82,31.607,44,32.552,44
					s1.861-0.18,2.724-0.533c0.835-0.342,1.584-0.831,2.226-1.453s1.146-1.347,1.5-2.156c0.365-0.836,0.551-1.725,0.551-2.64V26.783
					C39.552,25.869,39.366,24.98,39.001,24.143z M32.552,40.869c-2.078,0-3.77-1.637-3.77-3.651V26.783
					c0-2.014,1.691-3.652,3.77-3.652s3.77,1.639,3.77,3.652v10.435C36.321,39.232,34.63,40.869,32.552,40.869z"/>
			</g>
			<path fill="#FFFFFF" d="M54.993,34.616c-0.354-0.795-0.854-1.516-1.485-2.142c-0.634-0.627-1.367-1.121-2.175-1.472
				c-0.855-0.37-1.752-0.559-2.665-0.559c-1.914,0-3.935-1.889-3.935-3.673c0-2.012,1.664-3.646,3.711-3.646
				c2.046,0,3.927,1.611,3.927,3.622h3.181c0-0.914-0.183-1.801-0.543-2.636c-0.346-0.807-0.843-1.531-1.475-2.152
				c-0.633-0.621-1.37-1.108-2.19-1.45C50.492,20.154,49.374,20,48.444,20s-1.833,0.179-2.685,0.532
				c-0.819,0.341-1.558,0.829-2.188,1.45c-0.634,0.622-1.131,1.346-1.477,2.152c-0.36,0.836-0.543,1.723-0.543,2.637
				c0,1.684,0.802,3.41,2.201,4.736c1.384,1.311,3.175,2.063,4.915,2.063c1.938,0,3.703,1.744,3.703,3.658
				c0,2.011-1.665,3.646-3.712,3.646c-2.046,0-3.926-1.658-3.926-3.67h-3.182c0,0.914,0.183,1.801,0.543,2.637
				c0.346,0.808,0.843,1.53,1.477,2.152c0.631,0.62,1.369,1.108,2.188,1.45C46.611,43.798,47.729,44,48.659,44
				s1.833-0.179,2.685-0.533c0.82-0.34,1.558-0.828,2.19-1.449c0.632-0.622,1.129-1.346,1.475-2.152
				c0.36-0.836,0.543-1.723,0.543-2.637C55.552,36.336,55.363,35.457,54.993,34.616z"/>
		</g>
	</g>
</g>
</svg>
