<?xml version="1.0" encoding="utf-8"?>
<!-- Generator: Adobe Illustrator 15.0.0, SVG Export Plug-In . SVG Version: 6.00 Build 0)  -->
<!DOCTYPE svg PUBLIC "-//W3C//DTD SVG 1.1//EN" "http://www.w3.org/Graphics/SVG/1.1/DTD/svg11.dtd">
<svg version="1.1" id="Layer_1" xmlns="http://www.w3.org/2000/svg" xmlns:xlink="http://www.w3.org/1999/xlink" x="0px" y="0px"
	 width="64px" height="64px" viewBox="0 0 64 64" enable-background="new 0 0 64 64" xml:space="preserve">
<g>
	<path fill="#42ADE2" d="M62,52c0,5.523-4.477,10-10,10H12C6.477,62,2,57.523,2,52V12C2,6.477,6.477,2,12,2h40
		c5.523,0,10,4.477,10,10V52z"/>
	<g>
		<g>
			<path fill="#FFFFFF" d="M11,39V25h2.476l5.16,9.349V25H21v14h-2.552l-5.084-9.131V39H11z"/>
			<path fill="#FFFFFF" d="M25,39V25h9.75v2.368h-7.096v3.103h6.6v2.359h-6.6v3.81H35V39H25z"/>
			<path fill="#FFFFFF" d="M40.275,39L37,25h2.836l2.067,9.615L44.41,25h3.293l2.403,9.779L52.212,25H55l-3.332,14H48.73
				l-2.729-10.467L43.278,39H40.275z"/>
		</g>
	</g>
</g>
</svg>
