<?xml version="1.0" encoding="utf-8"?>
<!-- Generator: Adobe Illustrator 15.0.0, SVG Export Plug-In . SVG Version: 6.00 Build 0)  -->
<!DOCTYPE svg PUBLIC "-//W3C//DTD SVG 1.1//EN" "http://www.w3.org/Graphics/SVG/1.1/DTD/svg11.dtd">
<svg version="1.1" id="Layer_1" xmlns="http://www.w3.org/2000/svg" xmlns:xlink="http://www.w3.org/1999/xlink" x="0px" y="0px"
	 width="64px" height="64px" viewBox="0 0 64 64" enable-background="new 0 0 64 64" xml:space="preserve">
<g>
	<path fill="#42ADE2" d="M62,52c0,5.523-4.477,10-10,10H12C6.477,62,2,57.523,2,52V12C2,6.477,6.477,2,12,2h40
		c5.523,0,10,4.477,10,10V52z"/>
	<g>
		<g>
			<path fill="#FFFFFF" d="M11.999,32.119c0-1.971,0.315-3.624,0.942-4.961c0.47-0.984,1.108-1.869,1.921-2.651
				c0.811-0.783,1.699-1.364,2.664-1.741C18.813,22.256,20.293,22,21.971,22c3.038,0,5.47,0.884,7.294,2.651
				c1.823,1.769,2.734,4.227,2.734,7.375c0,3.122-0.904,5.565-2.715,7.328C27.476,41.119,25.058,42,22.027,42
				c-3.066,0-5.503-0.877-7.313-2.632C12.905,37.613,11.999,35.197,11.999,32.119z M16.288,31.986c0,2.19,0.541,3.851,1.618,4.98
				c1.079,1.131,2.447,1.695,4.106,1.695c1.66,0,3.022-0.561,4.088-1.682c1.063-1.122,1.595-2.804,1.595-5.047
				c0-2.216-0.518-3.87-1.554-4.96c-1.036-1.091-2.412-1.636-4.129-1.636c-1.715,0-3.098,0.552-4.148,1.655
				C16.815,28.098,16.288,29.762,16.288,31.986z"/>
			<path fill="#FFFFFF" d="M33.999,42V22h4.03v8.881L46.171,22h5.42l-7.517,7.79L51.999,42h-5.215l-5.486-9.387l-3.269,3.343V42
				H33.999z"/>
		</g>
	</g>
</g>
</svg>
