<?xml version="1.0" encoding="utf-8"?>
<!-- Generator: Adobe Illustrator 15.0.0, SVG Export Plug-In . SVG Version: 6.00 Build 0)  -->
<!DOCTYPE svg PUBLIC "-//W3C//DTD SVG 1.1//EN" "http://www.w3.org/Graphics/SVG/1.1/DTD/svg11.dtd">
<svg version="1.1" id="Layer_1" xmlns="http://www.w3.org/2000/svg" xmlns:xlink="http://www.w3.org/1999/xlink" x="0px" y="0px"
	 width="64px" height="64px" viewBox="0 0 64 64" enable-background="new 0 0 64 64" xml:space="preserve">
<g>
	<g>
		<path fill="#83BF4F" d="M32,2C18.939,2,7.833,10.349,3.714,22h56.572C56.167,10.349,45.061,2,32,2z"/>
		<path fill="#ED4C5C" d="M32,62c13.061,0,24.167-8.35,28.286-20H3.714C7.833,53.65,18.939,62,32,62z"/>
		<path fill="#F9F9F9" d="M3.714,22C2.607,25.128,2,28.492,2,32c0,3.508,0.607,6.872,1.714,10h56.572C61.393,38.871,62,35.508,62,32
			c0-3.508-0.607-6.871-1.714-10H3.714z"/>
	</g>
	<g>
		<g>
			<path fill="#FFFFFF" d="M59.367,44.285c-0.087,0.193-0.172,0.389-0.263,0.58h0.263V44.285z"/>
			<path fill="#FFFFFF" d="M4.896,44.865c-0.092-0.191-0.176-0.387-0.263-0.58v0.58H4.896z"/>
			<path fill="#FFFFFF" d="M5.634,18.799H5.059c-0.055,0.11-0.109,0.222-0.162,0.333h0.737V18.799z"/>
			<path fill="#FFFFFF" d="M5.634,21v-0.334h-1v-0.6h1.533V21h2.2v-2.267H8.033v1.933h-0.6v-1.933H7.101v1.933H6.5v-1.933H6.167v1
				H4.625c-0.11,0.244-0.221,0.487-0.324,0.735V21H5.634z"/>
			<path fill="#FFFFFF" d="M5.634,44.865H4.896c0.053,0.113,0.107,0.223,0.162,0.334h0.575V44.865z"/>
			<path fill="#FFFFFF" d="M4.634,44.266h1.533v0.934h2.2v-2.268H8.033v1.934h-0.6v-1.934H7.101v1.934H6.5v-1.934H6.167v1H4.474
				c0.052,0.119,0.106,0.236,0.16,0.354V44.266z"/>
			<path fill="#FFFFFF" d="M5.634,42.998H4.091c0.044,0.111,0.087,0.225,0.132,0.334h1.411V42.998z"/>
			<polygon fill="#FFFFFF" points="13.634,21 14.967,21 14.967,20.666 13.967,20.666 13.967,20.066 15.5,20.066 15.5,21 17.701,21 
				17.701,18.733 17.367,18.733 17.367,20.666 16.768,20.666 16.768,18.733 16.434,18.733 16.434,20.666 15.834,20.666 
				15.834,18.733 15.5,18.733 15.5,19.733 13.634,19.733 			"/>
			<polygon fill="#FFFFFF" points="13.033,21 13.033,19.733 11.701,19.733 11.701,20.066 12.701,20.066 12.701,20.666 
				11.167,20.666 11.167,19.733 8.967,19.733 8.967,21.066 9.301,21.066 9.301,20.066 10.834,20.066 10.834,21 			"/>
			<rect x="9.834" y="20.666" fill="#FFFFFF" width="0.467" height="0.334"/>
			<rect x="8.9" y="18.799" fill="#FFFFFF" width="6.066" height="0.333"/>
			<polygon fill="#FFFFFF" points="11.701,44.266 12.701,44.266 12.701,44.865 11.167,44.865 11.167,43.932 8.967,43.932 
				8.967,45.266 9.301,45.266 9.301,44.266 10.834,44.266 10.834,45.199 13.033,45.199 13.033,43.932 11.701,43.932 			"/>
			<rect x="9.834" y="44.865" fill="#FFFFFF" width="0.467" height="0.334"/>
			<rect x="8.9" y="42.998" fill="#FFFFFF" width="6.066" height="0.334"/>
			<polygon fill="#FFFFFF" points="17.367,44.865 16.768,44.865 16.768,42.932 16.434,42.932 16.434,44.865 15.834,44.865 
				15.834,42.932 15.5,42.932 15.5,43.932 13.634,43.932 13.634,45.199 14.967,45.199 14.967,44.865 13.967,44.865 13.967,44.266 
				15.5,44.266 15.5,45.199 17.701,45.199 17.701,42.932 17.367,42.932 			"/>
			<polygon fill="#FFFFFF" points="22.967,21 24.301,21 24.301,20.666 23.301,20.666 23.301,20.066 24.834,20.066 24.834,21 
				27.033,21 27.033,18.733 26.701,18.733 26.701,20.666 26.101,20.666 26.101,18.733 25.768,18.733 25.768,20.666 25.167,20.666 
				25.167,18.733 24.834,18.733 24.834,19.733 22.967,19.733 			"/>
			<polygon fill="#FFFFFF" points="22.367,21 22.367,19.733 21.033,19.733 21.033,20.066 22.033,20.066 22.033,20.666 20.5,20.666 
				20.5,19.733 18.301,19.733 18.301,21.066 18.634,21.066 18.634,20.066 20.167,20.066 20.167,21 			"/>
			<rect x="18.234" y="18.799" fill="#FFFFFF" width="6.066" height="0.333"/>
			<rect x="19.167" y="20.666" fill="#FFFFFF" width="0.467" height="0.334"/>
			<polygon fill="#FFFFFF" points="26.701,44.865 26.101,44.865 26.101,42.932 25.768,42.932 25.768,44.865 25.167,44.865 
				25.167,42.932 24.834,42.932 24.834,43.932 22.967,43.932 22.967,45.199 24.301,45.199 24.301,44.865 23.301,44.865 
				23.301,44.266 24.834,44.266 24.834,45.199 27.033,45.199 27.033,42.932 26.701,42.932 			"/>
			<rect x="19.167" y="44.865" fill="#FFFFFF" width="0.467" height="0.334"/>
			<rect x="18.234" y="42.998" fill="#FFFFFF" width="6.066" height="0.334"/>
			<polygon fill="#FFFFFF" points="21.033,44.266 22.033,44.266 22.033,44.865 20.5,44.865 20.5,43.932 18.301,43.932 
				18.301,45.266 18.634,45.266 18.634,44.266 20.167,44.266 20.167,45.199 22.367,45.199 22.367,43.932 21.033,43.932 			"/>
			<polygon fill="#FFFFFF" points="31.701,21 31.701,19.733 30.367,19.733 30.367,20.066 31.367,20.066 31.367,20.666 
				29.834,20.666 29.834,19.733 27.634,19.733 27.634,21.066 27.967,21.066 27.967,20.066 29.5,20.066 29.5,21 			"/>
			<rect x="27.566" y="18.799" fill="#FFFFFF" width="6.066" height="0.333"/>
			<rect x="28.5" y="20.666" fill="#FFFFFF" width="0.467" height="0.334"/>
			<polygon fill="#FFFFFF" points="32.301,21 33.633,21 33.633,20.666 32.633,20.666 32.633,20.066 34.168,20.066 34.168,21 
				36.367,21 36.367,18.733 36.033,18.733 36.033,20.666 35.434,20.666 35.434,18.733 35.1,18.733 35.1,20.666 34.5,20.666 
				34.5,18.733 34.168,18.733 34.168,19.733 32.301,19.733 			"/>
			<rect x="27.566" y="42.998" fill="#FFFFFF" width="6.066" height="0.334"/>
			<polygon fill="#FFFFFF" points="30.367,44.266 31.367,44.266 31.367,44.865 29.834,44.865 29.834,43.932 27.634,43.932 
				27.634,45.266 27.967,45.266 27.967,44.266 29.5,44.266 29.5,45.199 31.701,45.199 31.701,43.932 30.367,43.932 			"/>
			<rect x="28.5" y="44.865" fill="#FFFFFF" width="0.467" height="0.334"/>
			<polygon fill="#FFFFFF" points="36.033,44.865 35.434,44.865 35.434,42.932 35.1,42.932 35.1,44.865 34.5,44.865 34.5,42.932 
				34.168,42.932 34.168,43.932 32.301,43.932 32.301,45.199 33.633,45.199 33.633,44.865 32.633,44.865 32.633,44.266 
				34.168,44.266 34.168,45.199 36.367,45.199 36.367,42.932 36.033,42.932 			"/>
			<rect x="37.834" y="20.666" fill="#FFFFFF" width="0.467" height="0.334"/>
			<rect x="36.9" y="18.799" fill="#FFFFFF" width="6.066" height="0.333"/>
			<polygon fill="#FFFFFF" points="41.633,21 42.967,21 42.967,20.666 41.967,20.666 41.967,20.066 43.5,20.066 43.5,21 45.701,21 
				45.701,18.733 45.367,18.733 45.367,20.666 44.768,20.666 44.768,18.733 44.434,18.733 44.434,20.666 43.834,20.666 
				43.834,18.733 43.5,18.733 43.5,19.733 41.633,19.733 			"/>
			<polygon fill="#FFFFFF" points="41.033,21 41.033,19.733 39.701,19.733 39.701,20.066 40.701,20.066 40.701,20.666 
				39.168,20.666 39.168,19.733 36.967,19.733 36.967,21.066 37.301,21.066 37.301,20.066 38.834,20.066 38.834,21 			"/>
			<rect x="36.9" y="42.998" fill="#FFFFFF" width="6.066" height="0.334"/>
			<polygon fill="#FFFFFF" points="45.367,44.865 44.768,44.865 44.768,42.932 44.434,42.932 44.434,44.865 43.834,44.865 
				43.834,42.932 43.5,42.932 43.5,43.932 41.633,43.932 41.633,45.199 42.967,45.199 42.967,44.865 41.967,44.865 41.967,44.266 
				43.5,44.266 43.5,45.199 45.701,45.199 45.701,42.932 45.367,42.932 			"/>
			<polygon fill="#FFFFFF" points="39.701,44.266 40.701,44.266 40.701,44.865 39.168,44.865 39.168,43.932 36.967,43.932 
				36.967,45.266 37.301,45.266 37.301,44.266 38.834,44.266 38.834,45.199 41.033,45.199 41.033,43.932 39.701,43.932 			"/>
			<rect x="37.834" y="44.865" fill="#FFFFFF" width="0.467" height="0.334"/>
			<polygon fill="#FFFFFF" points="50.367,21 50.367,19.733 49.033,19.733 49.033,20.066 50.033,20.066 50.033,20.666 48.5,20.666 
				48.5,19.733 46.301,19.733 46.301,21.066 46.633,21.066 46.633,20.066 48.168,20.066 48.168,21 			"/>
			<rect x="47.168" y="20.666" fill="#FFFFFF" width="0.465" height="0.334"/>
			<rect x="46.234" y="18.799" fill="#FFFFFF" width="6.066" height="0.333"/>
			<polygon fill="#FFFFFF" points="50.967,21 52.301,21 52.301,20.666 51.301,20.666 51.301,20.066 52.834,20.066 52.834,21 
				55.033,21 55.033,18.733 54.701,18.733 54.701,20.666 54.1,20.666 54.1,18.733 53.768,18.733 53.768,20.666 53.168,20.666 
				53.168,18.733 52.834,18.733 52.834,19.733 50.967,19.733 			"/>
			<rect x="47.168" y="44.865" fill="#FFFFFF" width="0.465" height="0.334"/>
			<polygon fill="#FFFFFF" points="49.033,44.266 50.033,44.266 50.033,44.865 48.5,44.865 48.5,43.932 46.301,43.932 
				46.301,45.266 46.633,45.266 46.633,44.266 48.168,44.266 48.168,45.199 50.367,45.199 50.367,43.932 49.033,43.932 			"/>
			<rect x="46.234" y="42.998" fill="#FFFFFF" width="6.066" height="0.334"/>
			<polygon fill="#FFFFFF" points="54.701,44.865 54.1,44.865 54.1,42.932 53.768,42.932 53.768,44.865 53.168,44.865 
				53.168,42.932 52.834,42.932 52.834,43.932 50.967,43.932 50.967,45.199 52.301,45.199 52.301,44.865 51.301,44.865 
				51.301,44.266 52.834,44.266 52.834,45.199 55.033,45.199 55.033,42.932 54.701,42.932 			"/>
			<path fill="#FFFFFF" d="M55.566,19.132h3.538c-0.053-0.111-0.107-0.223-0.162-0.333h-3.376V19.132z"/>
			<path fill="#FFFFFF" d="M58.367,20.066h1v0.6h-1.533v-0.933h-2.201v1.333h0.334v-1H57.5V21h2.201v-0.528
				c-0.104-0.249-0.215-0.493-0.325-0.738h-1.009V20.066z"/>
			<rect x="56.5" y="20.666" fill="#FFFFFF" width="0.467" height="0.334"/>
			<rect x="56.5" y="44.865" fill="#FFFFFF" width="0.467" height="0.334"/>
			<path fill="#FFFFFF" d="M55.566,42.998v0.334h4.212c0.045-0.109,0.087-0.223,0.131-0.334H55.566z"/>
			<path fill="#FFFFFF" d="M58.367,44.266h1v0.02c0.053-0.117,0.108-0.234,0.159-0.354h-1.159V44.266z"/>
			<path fill="#FFFFFF" d="M57.834,44.865v-0.934h-2.201v1.334h0.334v-1H57.5v0.934h1.441c0.055-0.111,0.11-0.221,0.163-0.334
				H57.834z"/>
		</g>
		<g>
			<path fill="#ED4C5C" d="M36.508,33.879c0.854-2.622,0.047-5.499-2.043-7.297c2.269,3.358,1.446,7.889-1.805,10.254l0.225-5.589
				v-4.409c-0.352-0.169-0.656-0.425-0.885-0.743c-0.228,0.318-0.531,0.574-0.885,0.743v4.409l0.227,5.591
				c-3.253-2.365-4.075-6.898-1.805-10.256c-2.091,1.799-2.896,4.676-2.045,7.297c0.572,1.76,1.791,3.127,3.308,3.93
				c-0.929,0.336-1.912,0.512-2.911,0.463c1.18,0.385,2.387,0.424,3.519,0.186l0.01,0.238L32,39.498l0.584-0.803l0.01-0.238
				c1.133,0.238,2.339,0.199,3.518-0.186c-0.998,0.049-1.981-0.127-2.91-0.463C34.717,37.006,35.937,35.641,36.508,33.879z"/>
			<path fill="#ED4C5C" d="M38.732,29.131c-0.777-1.342-2.064-2.313-3.57-2.689c3.311,2.488,3.979,7.189,1.488,10.5
				c-0.004,0.006-0.008,0.012-0.012,0.018C39.377,35.375,40.314,31.872,38.732,29.131z"/>
			<path fill="#ED4C5C" d="M28.838,26.442c-1.504,0.376-2.793,1.348-3.568,2.689c-1.584,2.74-0.646,6.244,2.094,7.828
				c-0.004-0.006-0.009-0.012-0.014-0.018C24.861,33.631,25.527,28.93,28.838,26.442z"/>
			<path fill="#ED4C5C" d="M30.492,26.028c0.489,0.344,1.164,0.227,1.508-0.263c0.344,0.489,1.02,0.606,1.508,0.263
				c0.41-0.288,0.568-0.82,0.383-1.286c-0.104,0.555-0.639,0.92-1.195,0.815c-0.292-0.056-0.546-0.235-0.695-0.492
				c-0.148,0.257-0.402,0.437-0.695,0.492c-0.555,0.104-1.09-0.261-1.195-0.815C29.924,25.208,30.082,25.74,30.492,26.028z"/>
		</g>
	</g>
</g>
</svg>
