<?xml version="1.0" encoding="utf-8"?>
<!-- Generator: Adobe Illustrator 15.0.0, SVG Export Plug-In . SVG Version: 6.00 Build 0)  -->
<!DOCTYPE svg PUBLIC "-//W3C//DTD SVG 1.1//EN" "http://www.w3.org/Graphics/SVG/1.1/DTD/svg11.dtd">
<svg version="1.1" id="Layer_1" xmlns="http://www.w3.org/2000/svg" xmlns:xlink="http://www.w3.org/1999/xlink" x="0px" y="0px"
	 width="64px" height="64px" viewBox="0 0 64 64" enable-background="new 0 0 64 64" xml:space="preserve">
<g>
	<circle fill="#ED4C5C" cx="32" cy="32" r="30"/>
	<polygon fill="#FFE62E" points="22,28.371 30.034,34 27.001,24.844 35,19 25.09,19 22,10 19,19 9,19 16.999,24.844 13.965,34 	"/>
	<polygon fill="#FFE62E" points="35.272,35.277 33,35.836 35.242,36.697 35.233,39 36.669,37.252 38.889,38.079 37.553,36.176 
		39,34.411 36.691,34.932 35.329,33 	"/>
	<polygon fill="#FFE62E" points="38.71,28.467 37,29.998 39.288,29.82 40.259,32 40.747,29.715 43,29.514 41.046,28.307 41.537,26 
		39.779,27.513 37.791,26.289 	"/>
	<polygon fill="#FFE62E" points="39.278,20.729 39.966,23 40.698,20.77 43,20.799 41.171,19.35 41.87,17.143 40.045,18.459 
		38.199,17 38.852,19.309 37,20.65 	"/>
	<polygon fill="#FFE62E" points="35.272,12.723 35.327,15 36.691,13.067 39,13.589 37.565,11.84 38.888,9.921 36.682,10.764 
		35.232,9 35.241,11.302 33,12.162 	"/>
</g>
</svg>
