<?xml version="1.0" encoding="utf-8"?>
<!-- Generator: Adobe Illustrator 15.0.0, SVG Export Plug-In . SVG Version: 6.00 Build 0)  -->
<!DOCTYPE svg PUBLIC "-//W3C//DTD SVG 1.1//EN" "http://www.w3.org/Graphics/SVG/1.1/DTD/svg11.dtd">
<svg version="1.1" id="Layer_1" xmlns="http://www.w3.org/2000/svg" xmlns:xlink="http://www.w3.org/1999/xlink" x="0px" y="0px"
	 width="64px" height="64px" viewBox="0 0 64 64" enable-background="new 0 0 64 64" xml:space="preserve">
<g>
	<g>
		<path fill="#2A5F9E" d="M32,62c9.814,0,18.527-4.713,24-12H8C13.473,57.287,22.186,62,32,62z"/>
		<path fill="#2A5F9E" d="M32,2C15.432,2,2,15.432,2,32h60C62,15.432,48.568,2,32,2z"/>
		<path fill="#FFFFFF" d="M61.398,38C61.792,36.061,62,34.055,62,32H2c0,2.055,0.208,4.061,0.602,6H61.398z"/>
		<path fill="#ED4C5C" d="M4.504,44h54.992c0.834-1.906,1.479-3.912,1.902-6H2.602C3.025,40.088,3.671,42.094,4.504,44z"/>
		<path fill="#FFFFFF" d="M4.504,44C5.439,46.141,6.613,48.154,8,50h48c1.387-1.846,2.561-3.859,3.496-6H4.504z"/>
	</g>
	<polygon fill="#FFCE31" points="25,26.062 26.236,27 25.768,25.474 27,24.527 25.475,24.523 25,23 24.525,24.523 23,24.527 
		24.232,25.474 23.764,27 	"/>
	<polygon fill="#FFCE31" points="25,56.063 26.236,57 25.768,55.475 27,54.527 25.475,54.523 25,53 24.525,54.523 23,54.527 
		24.232,55.475 23.764,57 	"/>
	<polygon fill="#FFCE31" points="36,36.063 37.236,37 36.768,35.475 38,34.527 36.475,34.523 36,33 35.525,34.523 34,34.527 
		35.232,35.475 34.764,37 	"/>
	<polygon fill="#FFCE31" points="18,29.062 19.236,30 18.768,28.474 20,27.527 18.475,27.523 18,26 17.525,27.523 16,27.527 
		17.232,28.474 16.764,30 	"/>
	<polygon fill="#FFCE31" points="32,29.062 33.236,30 32.768,28.474 34,27.527 32.475,27.523 32,26 31.525,27.523 30,27.527 
		31.232,28.474 30.764,30 	"/>
	<polygon fill="#FFCE31" points="13,36.063 14.236,37 13.768,35.475 15,34.527 13.475,34.523 13,33 12.525,34.523 11,34.527 
		12.232,35.475 11.764,37 	"/>
	<polygon fill="#FFCE31" points="36,48.063 37.236,49 36.768,47.475 38,46.527 36.475,46.523 36,45 35.525,46.523 34,46.527 
		35.232,47.475 34.764,49 	"/>
	<polygon fill="#FFCE31" points="13,48.063 14.236,49 13.768,47.475 15,46.527 13.475,46.523 13,45 12.525,46.523 11,46.527 
		12.232,47.475 11.764,49 	"/>
	<polygon fill="#FFCE31" points="31,54.063 32.236,55 31.768,53.475 33,52.527 31.475,52.523 31,51 30.525,52.523 29,52.527 
		30.232,53.475 29.764,55 	"/>
	<polygon fill="#FFCE31" points="18,54.063 19.236,55 18.768,53.475 20,52.527 18.475,52.523 18,51 17.525,52.523 16,52.527 
		17.232,53.475 16.764,55 	"/>
</g>
</svg>
