<?xml version="1.0" encoding="utf-8"?>
<!-- Generator: Adobe Illustrator 15.0.0, SVG Export Plug-In . SVG Version: 6.00 Build 0)  -->
<!DOCTYPE svg PUBLIC "-//W3C//DTD SVG 1.1//EN" "http://www.w3.org/Graphics/SVG/1.1/DTD/svg11.dtd">
<svg version="1.1" id="Layer_1" xmlns="http://www.w3.org/2000/svg" xmlns:xlink="http://www.w3.org/1999/xlink" x="0px" y="0px"
	 width="64px" height="64px" viewBox="0 0 64 64" enable-background="new 0 0 64 64" xml:space="preserve">
<g>
	<path fill="#83BF4F" d="M11.005,32v21.421C16.416,58.725,23.824,62,32,62c16.568,0,30-13.432,30-30H11.005z"/>
	<path fill="#42ADE2" d="M11.005,32H62C62,15.432,48.568,2,32,2c-8.176,0-15.584,3.275-20.995,8.579V32z"/>
	<path fill="#F9F9F9" d="M11.005,10.578C5.45,16.023,2,23.607,2,32s3.45,15.977,9.006,21.422L32.427,32L11.005,10.578z"/>
	<polygon fill="#C94747" points="14,35.716 18.323,39 16.693,33.658 21,30.25 15.662,30.25 14,25 12.385,30.25 7,30.25 
		11.308,33.658 9.676,39 	"/>
</g>
</svg>
