<?xml version="1.0" encoding="utf-8"?>
<!-- Generator: Adobe Illustrator 15.0.0, SVG Export Plug-In . SVG Version: 6.00 Build 0)  -->
<!DOCTYPE svg PUBLIC "-//W3C//DTD SVG 1.1//EN" "http://www.w3.org/Graphics/SVG/1.1/DTD/svg11.dtd">
<svg version="1.1" id="Layer_1" xmlns="http://www.w3.org/2000/svg" xmlns:xlink="http://www.w3.org/1999/xlink" x="0px" y="0px"
	 width="64px" height="64px" viewBox="0 0 64 64" enable-background="new 0 0 64 64" xml:space="preserve">
<g>
	<path fill="#ED4C5C" d="M57.025,15.46h-8.484v-0.001L15.459,48.541h0.002v8.484H15.46C20.203,60.166,25.887,62,32,62
		c16.568,0,30-13.432,30-30C62,25.886,60.166,20.202,57.025,15.46z"/>
	<path fill="#75A843" d="M32,2C15.432,2,2,15.432,2,32c0,6.115,1.834,11.799,4.975,16.541h3.813h4.672l33.082-33.082v-4.672V6.975
		C43.799,3.834,38.114,2,32,2z"/>
	<path fill="#FFE62E" d="M6.975,48.541c1.112,1.68,2.385,3.242,3.803,4.662l0.02,0.02c1.42,1.42,2.984,2.691,4.664,3.803
		L57.025,15.46c-2.229-3.366-5.118-6.256-8.484-8.485L6.975,48.541z"/>
</g>
</svg>
