<?xml version="1.0" encoding="utf-8"?>
<!-- Generator: Adobe Illustrator 15.0.0, SVG Export Plug-In . SVG Version: 6.00 Build 0)  -->
<!DOCTYPE svg PUBLIC "-//W3C//DTD SVG 1.1//EN" "http://www.w3.org/Graphics/SVG/1.1/DTD/svg11.dtd">
<svg version="1.1" id="Layer_1" xmlns="http://www.w3.org/2000/svg" xmlns:xlink="http://www.w3.org/1999/xlink" x="0px" y="0px"
	 width="64px" height="64px" viewBox="0 0 64 64" enable-background="new 0 0 64 64" xml:space="preserve">
<g>
	<g>
		<path fill="#428BC1" d="M32,62.001c13.062,0,24.167-8.35,28.286-20H3.714C7.833,53.651,18.939,62.001,32,62.001z"/>
		<path fill="#699635" d="M32,2C18.939,2,7.833,10.35,3.714,22h56.572C56.167,10.35,45.062,2,32,2z"/>
		<path fill="#FFE62E" d="M60.286,42.001C61.392,38.872,62,35.509,62,32c0-3.508-0.608-6.871-1.714-10H3.714
			C2.608,25.129,2,28.492,2,32c0,3.509,0.608,6.872,1.714,10.001H60.286z"/>
	</g>
</g>
</svg>
