<?xml version="1.0" encoding="utf-8"?>
<!-- Generator: Adobe Illustrator 15.0.0, SVG Export Plug-In . SVG Version: 6.00 Build 0)  -->
<!DOCTYPE svg PUBLIC "-//W3C//DTD SVG 1.1//EN" "http://www.w3.org/Graphics/SVG/1.1/DTD/svg11.dtd">
<svg version="1.1" id="Layer_1" xmlns="http://www.w3.org/2000/svg" xmlns:xlink="http://www.w3.org/1999/xlink" x="0px" y="0px"
	 width="64px" height="64px" viewBox="0 0 64 64" enable-background="new 0 0 64 64" xml:space="preserve">
<g>
	<path fill="#FFFFFF" d="M26.815,6.058l-0.01-0.001l-0.011,0.001c-3.61,0-4.713-0.966-6.793-1.555
		c-2.398,1.047-4.631,2.4-6.652,4.008c0.807-0.185,1.773-0.309,3.061-0.309h0.011h0.01c5.188,0,5.193,1.997,10.375,2
		c5.183-0.003,5.188-2,10.377-2h0.011h0.011c5.188,0,5.192,1.997,10.374,2c2.007-0.001,3.236-0.302,4.292-0.669
		c-1.487-1.316-3.106-2.485-4.834-3.489c-4.65-0.135-4.85-1.983-9.843-1.986C32.01,4.061,32.006,6.058,26.815,6.058z"/>
	<path fill="#2A5F9E" d="M47.578,10.202h-0.011c-5.188,0-5.192-1.997-10.374-2c-5.184,0.003-5.188,2-10.378,2h-0.01h-0.011
		c-5.188,0-5.171,4.143,0.011,4.145c5.183-0.002,5.188-1.999,10.377-1.999h0.011h0.011c5.188,0,5.192,1.997,10.374,1.999
		c3.91-0.002,4.876-1.137,7.341-1.695c-0.938-1.11-1.956-2.15-3.044-3.114c-1.054,0.366-2.282,0.665-4.287,0.665H47.578z"/>
	<path fill="#2A5F9E" d="M37.183,4.058h0.011h0.011c4.996,0,5.198,1.846,9.831,1.986C42.613,3.477,37.48,2,32,2
		c-4.265,0-8.803,4.055-5.194,4.057C31.988,6.055,31.993,4.058,37.183,4.058z"/>
	<path fill="#FFFFFF" d="M47.578,14.347l-0.011,0.001c-5.188,0-5.192-1.997-10.374-2c-5.184,0.003-5.188,2-10.378,2l-0.01-0.001
		l-0.011,0.001c-5.188,0-5.193-1.997-10.374-2c-4.514,0.002-5.104,1.515-8.606,1.907C6.84,15.58,5.976,16.99,5.227,18.47
		c0.245,0.013,0.499,0.021,0.771,0.021l0.035,0.001c5.187-0.001,5.188-2,10.377-2h0.011h0.01c5.188,0,5.193,1.997,10.375,2
		c5.183-0.003,5.188-2,10.377-2h0.011h0.011c5.188,0,5.192,1.997,10.374,2c5.089-0.003,5.199-1.922,10.11-1.993
		c-0.821-1.357-1.749-2.641-2.768-3.846c-2.456,0.561-3.423,1.694-7.333,1.694L47.578,14.347z"/>
	<path fill="#2A5F9E" d="M47.578,18.492h-0.011c-5.188,0-5.192-1.997-10.374-2c-5.184,0.003-5.188,2-10.378,2h-0.01h-0.011
		c-5.188,0-5.171,4.143,0.011,4.145c5.183-0.002,5.188-1.999,10.377-1.999h0.011h0.011c5.188,0,5.192,1.997,10.374,1.999
		c5.185-0.002,5.189-1.999,10.382-1.999h0.005h0.005l0.031,0.001c0.685,0.001,1.274,0.033,1.8,0.087
		c-0.597-1.47-1.301-2.884-2.112-4.227c-4.899,0.074-5.009,1.993-10.101,1.993H47.578z"/>
	<path fill="#FFFFFF" d="M57.965,20.638c-5.186,0.001-5.188,2-10.377,2l-0.01-0.001l-0.011,0.001c-5.188,0-5.192-1.997-10.374-2
		c-5.184,0.003-5.188,2-10.378,2l-0.01-0.001l-0.011,0.001c-5.188,0-5.193-1.997-10.374-2c-5.185,0.003-5.189,2-10.382,2H6.033
		H6.028l-0.03-0.001c-0.978-0.002-1.769-0.064-2.443-0.167c-0.418,1.248-0.758,2.531-1.01,3.846c0.89,0.268,1.955,0.463,3.453,0.466
		l0.035,0.001c5.187-0.001,5.188-2,10.377-2h0.011h0.01c5.188,0,5.193,1.997,10.375,2c5.183-0.003,5.188-2,10.377-2h0.011h0.011
		c5.188,0,5.192,1.997,10.374,2c5.185-0.003,5.189-2,10.382-2h0.005h0.005l0.031,0.001c1.362,0.003,2.36,0.124,3.189,0.306
		c-0.352-1.491-0.813-2.939-1.378-4.336c-0.531-0.07-1.125-0.113-1.812-0.114L57.965,20.638z"/>
	<path fill="#2A5F9E" d="M57.965,24.782c-5.186,0.002-5.188,2-10.377,2h-0.01h-0.011c-5.188,0-5.192-1.997-10.374-2
		c-5.184,0.003-5.188,2-10.378,2h-0.01h-0.011c-5.188,0-5.171,4.143,0.011,4.145c5.183-0.002,5.188-2,10.377-2h0.011h0.011
		c5.188,0,5.192,1.998,10.374,2c5.185-0.002,5.189-2,10.382-2h0.005h0.005l0.031,0.001c1.762,0.003,2.915,0.205,3.88,0.479
		c-0.123-1.441-0.35-2.853-0.669-4.229c-0.842-0.231-1.848-0.394-3.211-0.396L57.965,24.782z"/>
	<path fill="#FFFFFF" d="M57.965,28.928c-5.186,0.002-5.188,2-10.377,2h-0.01h-0.011c-5.188,0-5.192-1.997-10.374-2
		c-5.184,0.003-5.188,2-10.378,2h-0.01h-0.011c-5.188,0-5.193-1.997-10.374-2c-5.185,0.003-5.189,2-10.382,2H6.033H6.028h-0.03
		c-1.809-0.004-2.977-0.215-3.957-0.5C2.015,30.947,2,31.472,2,32c0,0.832,0.043,1.653,0.109,2.465
		c0.977,0.338,2.139,0.604,3.889,0.607h0.035c5.187,0,5.188-2,10.377-2h0.011h0.01c5.188,0,5.193,1.998,10.375,2
		c5.183-0.002,5.188-2,10.377-2h0.011h0.011c5.188,0,5.192,1.998,10.374,2c5.185-0.002,5.189-2,10.382-2h0.005h0.005l0.031,0.002
		c1.809,0.004,2.978,0.215,3.957,0.5C61.985,33.053,62,32.529,62,32c0-0.83-0.043-1.65-0.109-2.463
		c-0.978-0.338-2.14-0.605-3.89-0.608L57.965,28.928z"/>
	<path fill="#2A5F9E" d="M57.965,33.072c-5.186,0.002-5.188,2-10.377,2h-0.01h-0.011c-5.188,0-5.192-1.996-10.374-2
		c-5.184,0.004-5.188,2-10.378,2h-0.01h-0.011c-5.188,0-5.193-1.996-10.374-2c-5.185,0.004-5.189,2-10.382,2H6.033H6.028h-0.03
		c-1.762-0.004-2.915-0.205-3.88-0.479c0.124,1.441,0.35,2.852,0.67,4.229c0.841,0.23,1.847,0.393,3.21,0.395l0.035,0.002
		c5.187-0.002,5.188-2,10.377-2h0.011h0.01c5.188,0,5.193,1.996,10.375,2c5.183-0.004,5.188-2,10.377-2h0.011h0.011
		c5.188,0,5.192,1.996,10.374,2c5.185-0.004,5.189-2,10.382-2h0.005h0.005h0.031c1.521,0.004,2.587,0.154,3.471,0.371
		c0.239-1.27,0.403-2.568,0.478-3.889c-0.99-0.348-2.164-0.625-3.948-0.627L57.965,33.072z"/>
	<path fill="#FFFFFF" d="M57.965,37.219c-5.186,0.002-5.188,2-10.377,2h-0.01h-0.011c-5.188,0-5.192-1.998-10.374-2
		c-5.184,0.002-5.188,2-10.378,2h-0.01h-0.011c-5.188,0-5.193-1.998-10.374-2c-5.185,0.002-5.189,2-10.382,2H6.033H6.028
		l-0.03-0.002c-1.362-0.002-2.359-0.123-3.189-0.305c0.353,1.492,0.813,2.939,1.379,4.336c0.53,0.07,1.124,0.113,1.811,0.115h0.035
		c5.187-0.002,5.188-2,10.377-2h0.011h0.01c5.188,0,5.193,1.998,10.375,2c5.183-0.002,5.188-2,10.377-2h0.011h0.011
		c5.188,0,5.192,1.998,10.374,2c5.185-0.002,5.189-2,10.382-2h0.005h0.005l0.031,0.002c0.978,0,1.769,0.064,2.444,0.166
		c0.418-1.248,0.757-2.531,1.01-3.846c-0.891-0.268-1.956-0.463-3.454-0.467H57.965z"/>
	<path fill="#2A5F9E" d="M57.965,41.363c-5.186,0.002-5.188,2-10.377,2h-0.01h-0.011c-5.188,0-5.192-1.996-10.374-2
		c-5.184,0.004-5.188,2-10.378,2h-0.01h-0.011c-5.188,0-5.193-1.996-10.374-2c-5.185,0.004-5.189,2-10.382,2H6.033H6.028h-0.03
		c-0.685-0.002-1.273-0.033-1.8-0.088c0.597,1.469,1.301,2.883,2.112,4.227c4.898-0.074,5.009-1.994,10.1-1.994h0.011h0.01
		c5.188,0,5.193,1.998,10.375,2c5.183-0.002,5.188-2,10.377-2h0.011h0.011c5.188,0,5.192,1.998,10.374,2
		c5.185-0.002,5.189-2,10.382-2h0.005h0.005l0.031,0.002c0.273,0,0.529,0.006,0.774,0.016c0.642-1.268,1.195-2.586,1.654-3.949
		c-0.676-0.129-1.464-0.211-2.429-0.211L57.965,41.363z"/>
	<path fill="#FFFFFF" d="M57.965,45.508c-5.186,0.002-5.188,2-10.377,2h-0.01h-0.011c-5.188,0-5.192-1.996-10.374-2
		c-5.184,0.004-5.188,2-10.378,2h-0.01h-0.011c-5.188,0-5.193-1.996-10.374-2c-5.089,0.004-5.199,1.922-10.109,1.994
		c0.82,1.357,1.749,2.641,2.767,3.846c2.456-0.561,3.423-1.693,7.332-1.693h0.011h0.01c5.188,0,5.193,1.996,10.375,1.998
		c5.183-0.002,5.188-1.998,10.377-1.998h0.011h0.011c5.188,0,5.192,1.996,10.374,1.998c4.514-0.002,5.104-1.514,8.606-1.906
		c0.975-1.326,1.84-2.736,2.589-4.215c-0.246-0.014-0.5-0.021-0.772-0.021L57.965,45.508z"/>
	<path fill="#2A5F9E" d="M47.578,51.652l-0.011,0.002c-5.188,0-5.192-1.998-10.374-2c-5.184,0.002-5.188,2-10.378,2l-0.01-0.002
		l-0.011,0.002c-5.188,0-5.193-1.998-10.374-2c-3.91,0.002-4.876,1.137-7.34,1.695c0.938,1.109,1.955,2.15,3.043,3.113
		c1.054-0.365,2.282-0.664,4.286-0.664h0.011h0.01c5.188,0,5.193,1.996,10.375,2c5.183-0.004,5.188-2,10.377-2h0.011h0.011
		c5.188,0,5.192,1.996,10.374,2c1.295-0.002,2.268-0.127,3.078-0.314c2.086-1.658,3.947-3.586,5.527-5.736
		c-3.489,0.395-4.082,1.906-8.596,1.906L47.578,51.652z"/>
	<path fill="#FFFFFF" d="M47.578,55.799h-0.011c-5.188,0-5.192-1.998-10.374-2c-5.184,0.002-5.188,2-10.378,2h-0.01h-0.011
		c-5.188,0-5.193-1.998-10.374-2c-2.007,0.002-3.236,0.301-4.292,0.668c1.487,1.316,3.106,2.486,4.835,3.49
		c4.649,0.135,4.849,1.984,9.842,1.986c5.183-0.002,5.188-2,10.377-2h0.011h0.011c3.61,0,4.713,0.967,6.793,1.555
		c2.398-1.047,4.631-2.4,6.653-4.008c-0.808,0.186-1.774,0.309-3.063,0.309H47.578z"/>
	<path fill="#2A5F9E" d="M26.815,59.943h-0.01h-0.011c-4.996,0-5.198-1.846-9.83-1.986C21.386,60.523,26.519,62,32,62
		c4.264,0,8.316-0.895,11.989-2.498c-2.086-0.588-3.188-1.557-6.796-1.559C32.01,57.947,32.006,59.943,26.815,59.943z"/>
	<path fill="#75A843" d="M54.436,24.646l3.938,0.054c-0.997-1.765-4.337-1.864-7.001-1.432c1.676-0.532,3.74-1.111,4.067-1.175
		c-0.827-0.61-4.286-2.753-8.689,1.605l-0.07,0.002c-4.402-4.363-7.866-2.218-8.693-1.607c0.327,0.064,2.392,0.644,4.071,1.175
		c-2.668-0.433-6.008-0.333-7.005,1.432l3.938-0.054c-1.646,0.788-2.544,0.869-2.784,2.805c0.095-0.039,2.14-0.583,4.237-1.136
		c-1.143,0.569-2.16,1.262-2.623,1.972c1.865,0.147,3.508-0.358,4.75-0.954c-0.77,0.989-1.25,2.067-1.18,2.689
		c0.927-0.165,1.883-0.959,2.665-1.793c-0.476,1.825-0.438,3.687,0.087,4.444c0.766-0.592,1.32-1.613,1.725-2.71l-0.053,1.067h1.65
		L47.4,29.519c0.414,1.256,1.018,2.484,1.883,3.154c0.525-0.757,0.563-2.619,0.092-4.444c0.777,0.834,1.733,1.628,2.66,1.793
		c0.074-0.622-0.41-1.7-1.18-2.689c1.242,0.596,2.885,1.101,4.75,0.954c-0.463-0.709-1.48-1.403-2.619-1.972
		c2.094,0.552,4.139,1.097,4.237,1.136C56.979,25.515,56.082,25.435,54.436,24.646z"/>
	<rect x="45.386" y="28.229" fill="#C94747" width="2.661" height="21.761"/>
	<path fill="#F1BF31" d="M40.332,42.119l2.183,2.316l8.143-0.008l2.21-2.309l0.233-3.402l-5.308-1.623l0.464-0.412l-1.658-1.025
		l-1.656,1.025l0.464,0.412l-4.778,1.189L40.332,42.119z M51.841,39.316L50.5,41.283l-1.334-0.477l-1.585-0.258l0.016-2.947
		L51.841,39.316z M41.358,39.316l4.221-1.686l0.039,2.918l-1.585,0.258l-1.334,0.477L41.358,39.316z"/>
	<g>
		<rect x="11" y="11" fill="#2A5F9E" width="21" height="21"/>
		<polygon fill="#FFFFFF" points="18.912,8.14 18.912,14 11.6,14 26,32 32,32 32,24.5 		"/>
		<path fill="#FFFFFF" d="M11,18.912H5.011C3.088,22.869,2,27.306,2,32h12V13.912h-3V18.912z"/>
		<polygon fill="#ED4C5C" points="32,27.059 19,11 13,11 30,32 32,32 		"/>
		<path fill="#FFFFFF" d="M18.912,5.012V11H11v3h21V2C27.306,2,22.868,3.088,18.912,5.012z"/>
		<path fill="#ED4C5C" d="M32,5H18.912C12.857,7.94,7.94,12.857,5,18.912V32h6V11h21V5z"/>
	</g>
	<path fill="#D8A322" d="M21.876,5.906l-0.003,0.006L21.876,5.906z"/>
	<path fill="#D8A322" d="M21.871,5.918l-0.036,0.079L21.871,5.918z"/>
</g>
</svg>
