<?xml version="1.0" encoding="utf-8"?>
<!-- Generator: Adobe Illustrator 15.0.0, SVG Export Plug-In . SVG Version: 6.00 Build 0)  -->
<!DOCTYPE svg PUBLIC "-//W3C//DTD SVG 1.1//EN" "http://www.w3.org/Graphics/SVG/1.1/DTD/svg11.dtd">
<svg version="1.1" id="Layer_1" xmlns="http://www.w3.org/2000/svg" xmlns:xlink="http://www.w3.org/1999/xlink" x="0px" y="0px"
	 width="64px" height="64px" viewBox="0 0 64 64" enable-background="new 0 0 64 64" xml:space="preserve">
<g>
	<path fill="#F9F9F9" d="M26.772,61.536L36,56l-10-6l10-6l-10-6l10-6l-10-6l10-6l-10-6l10-6l-9.228-5.537
		C12.697,4.938,2,17.216,2,32S12.697,59.062,26.772,61.536z"/>
	<path fill="#C94747" d="M32,2c-1.784,0-3.529,0.165-5.228,0.463l0,0L36,8l-10,6l10,6l-10,6l10,6l-10,6l10,6l-10,6l10,6
		l-9.228,5.536l0,0C28.471,61.835,30.216,62,32,62c16.568,0,30-13.432,30-30S48.568,2,32,2z"/>
</g>
</svg>
