<?xml version="1.0" encoding="utf-8"?>
<!-- Generator: Adobe Illustrator 15.0.0, SVG Export Plug-In . SVG Version: 6.00 Build 0)  -->
<!DOCTYPE svg PUBLIC "-//W3C//DTD SVG 1.1//EN" "http://www.w3.org/Graphics/SVG/1.1/DTD/svg11.dtd">
<svg version="1.1" id="Layer_1" xmlns="http://www.w3.org/2000/svg" xmlns:xlink="http://www.w3.org/1999/xlink" x="0px" y="0px"
	 width="64px" height="64px" viewBox="0 0 64 64" enable-background="new 0 0 64 64" xml:space="preserve">
<g>
	<g>
		<path fill="#3E4347" d="M2,32c0,16.568,13.432,30,30,30s30-13.432,30-30c0-3.508-0.607-6.871-1.714-10H3.714
			C2.608,25.129,2,28.492,2,32z"/>
		<path fill="#2A5F9E" d="M32,2C18.939,2,7.833,10.35,3.714,22h56.572C56.167,10.35,45.062,2,32,2z"/>
	</g>
	<path id="a" fill="#FFCE31" d="M30.898,5.164c-0.961,1.585-1.076,2.854-0.42,5.043c0.316,1.021,0.663,2.547,0.809,3.374
		c0.194,1.168,0.174,1.278,0.201,1.532c0.243,0,0.795,0.002,1.05,0c0.038-0.404,0.067-0.871,0.153-1.513
		c0.101-0.748,0.398-2.313,0.719-3.399c0.641-2.172,0.599-3.504-0.397-5.013c-0.365-0.56-0.851-1.022-1.069-1.022
		C31.725,4.167,31.229,4.594,30.898,5.164z M35.619,9.649c-1.361,0.583-2.18,2.2-2.626,4.427c-0.083,0.418-0.103,0.566-0.145,1.038
		c0.295,0.001,0.411,0.003,0.697,0.001c0.063-0.316,0.108-0.484,0.246-0.935c0.55-1.741,2.168-2.439,2.094-0.81
		c-0.023,0.45-0.213,0.701-0.424,0.942c0.26-0.065,0.814-0.323,1.264-0.579C39.229,12.227,38.243,8.53,35.619,9.649L35.619,9.649z
		 M30.059,15.682c1.099,0.006,2.997,0.014,3.908,0.009c0.001-0.234,0.004-0.114,0.007-0.304c-0.672-0.006-3.241,0.004-3.909,0.004
		C30.065,15.513,30.063,15.572,30.059,15.682z M30.382,16.969c-0.396,0.428-1.015,0.747-1.015,0.747s0.548,0.062,1.058,0.024
		s0.793-0.102,1.095-0.248c-0.082,0.609-0.087,1.197-0.087,1.197c0.075,0.783,0.158,0.982,0.328,1.365
		c0.23,0.316,0.364,0.318,0.533-0.018c0.183-0.375,0.304-0.762,0.342-1.352c-0.014-0.441-0.038-0.645-0.143-1.186
		c0.353,0.153,0.576,0.193,1.103,0.24c0.538,0.049,1.034,0.025,1.034,0.025s-0.729-0.366-1.049-0.814
		c-0.315-0.443-0.248-0.367-0.479-0.938c-0.279-0.014-1.696-0.001-2.146-0.001C30.711,16.533,30.686,16.641,30.382,16.969
		L30.382,16.969z M28.382,9.648c1.36,0.584,2.179,2.2,2.626,4.428c0.082,0.418,0.103,0.565,0.144,1.037
		c-0.294,0.001-0.41,0.003-0.697,0.001c-0.063-0.317-0.108-0.484-0.246-0.935c-0.55-1.74-2.167-2.439-2.094-0.81
		c0.024,0.45,0.214,0.701,0.425,0.942c-0.261-0.064-0.815-0.324-1.265-0.579C24.771,12.225,25.758,8.529,28.382,9.648L28.382,9.648z
		"/>
	<g>
		<path fill="#FFCE31" d="M13.568,13.581c0.194,1.168,0.174,1.278,0.201,1.532c0.243,0,0.795,0.002,1.05,0
			c0.038-0.404,0.067-0.871,0.153-1.513c0.101-0.748,0.398-2.313,0.719-3.399c0.43-1.457,0.543-2.533,0.276-3.541
			c-1.214,0.77-2.372,1.619-3.459,2.551c0.065,0.313,0.144,0.639,0.251,0.996C13.076,11.229,13.423,12.754,13.568,13.581z"/>
		<path fill="#FFCE31" d="M16.248,15.69c0.001-0.234,0.004-0.114,0.007-0.304c-0.672-0.006-3.241,0.004-3.909,0.004
			c0.001,0.122-0.002,0.182-0.006,0.291C13.438,15.688,15.337,15.695,16.248,15.69z"/>
		<path fill="#FFCE31" d="M9.556,13.733c0.449,0.255,1.004,0.515,1.265,0.579c-0.211-0.241-0.4-0.492-0.425-0.942
			c-0.073-1.63,1.544-0.931,2.094,0.81c0.138,0.45,0.184,0.617,0.246,0.935c0.287,0.002,0.403,0,0.697-0.001
			c-0.041-0.472-0.062-0.619-0.144-1.037c-0.353-1.754-0.939-3.119-1.834-3.909c-0.96,0.904-1.855,1.873-2.689,2.896
			C8.976,13.313,9.236,13.541,9.556,13.733z"/>
		<path fill="#FFCE31" d="M15.862,16.951c-0.315-0.443-0.248-0.367-0.479-0.938c-0.279-0.014-1.696-0.001-2.146-0.001
			c-0.246,0.521-0.271,0.628-0.575,0.956c-0.396,0.428-1.015,0.747-1.015,0.747s0.548,0.062,1.058,0.024s0.793-0.102,1.095-0.248
			c-0.082,0.609-0.087,1.197-0.087,1.197c0.075,0.783,0.158,0.982,0.328,1.365c0.23,0.316,0.364,0.318,0.533-0.018
			c0.183-0.375,0.304-0.762,0.342-1.352c-0.014-0.441-0.038-0.645-0.143-1.186c0.353,0.153,0.576,0.193,1.103,0.24
			c0.538,0.049,1.034,0.025,1.034,0.025S16.183,17.399,15.862,16.951z"/>
		<path fill="#FFCE31" d="M17.9,9.649c-1.361,0.583-2.18,2.2-2.626,4.427c-0.083,0.418-0.103,0.566-0.145,1.038
			c0.295,0.001,0.411,0.003,0.697,0.001c0.063-0.316,0.108-0.484,0.246-0.935c0.55-1.741,2.168-2.439,2.094-0.81
			c-0.023,0.45-0.213,0.701-0.424,0.942c0.26-0.065,0.814-0.323,1.264-0.579C21.51,12.227,20.524,8.53,17.9,9.649z"/>
		<path fill="#FFCE31" d="M48.173,15.114c0.287,0.002,0.403,0,0.697-0.001c-0.041-0.472-0.062-0.619-0.144-1.037
			c-0.447-2.228-1.266-3.844-2.626-4.428c-2.624-1.119-3.61,2.576-1.107,4.085c0.449,0.255,1.004,0.515,1.265,0.579
			c-0.211-0.241-0.4-0.492-0.425-0.942c-0.073-1.63,1.544-0.931,2.094,0.81C48.064,14.63,48.11,14.797,48.173,15.114z"/>
		<path fill="#FFCE31" d="M48.197,10.207c0.316,1.021,0.663,2.547,0.809,3.374c0.194,1.168,0.174,1.278,0.201,1.532
			c0.243,0,0.795,0.002,1.05,0c0.038-0.404,0.067-0.871,0.153-1.513c0.101-0.748,0.398-2.313,0.719-3.399
			c0.114-0.387,0.198-0.738,0.268-1.077c-1.079-0.917-2.229-1.751-3.431-2.509C47.67,7.646,47.749,8.711,48.197,10.207z"/>
		<path fill="#FFCE31" d="M51.3,16.951c-0.315-0.443-0.248-0.367-0.479-0.938c-0.279-0.014-1.696-0.001-2.146-0.001
			c-0.246,0.521-0.271,0.628-0.575,0.956c-0.396,0.428-1.015,0.747-1.015,0.747s0.548,0.062,1.058,0.024s0.793-0.102,1.095-0.248
			c-0.082,0.609-0.087,1.197-0.087,1.197c0.075,0.783,0.158,0.982,0.328,1.365c0.23,0.316,0.364,0.318,0.533-0.018
			c0.183-0.375,0.304-0.762,0.342-1.352c-0.014-0.441-0.038-0.645-0.143-1.186c0.353,0.153,0.576,0.193,1.103,0.24
			c0.538,0.049,1.034,0.025,1.034,0.025S51.62,17.399,51.3,16.951z"/>
		<path fill="#FFCE31" d="M47.777,15.682c1.099,0.006,2.997,0.014,3.908,0.009c0.001-0.234,0.004-0.114,0.007-0.304
			c-0.672-0.006-3.241,0.004-3.909,0.004C47.784,15.513,47.781,15.572,47.777,15.682z"/>
		<path fill="#FFCE31" d="M50.712,14.076c-0.083,0.418-0.103,0.566-0.145,1.038c0.295,0.001,0.411,0.003,0.697,0.001
			c0.063-0.316,0.108-0.484,0.246-0.935c0.55-1.741,2.168-2.439,2.094-0.81c-0.023,0.45-0.213,0.701-0.424,0.942
			c0.26-0.065,0.814-0.323,1.264-0.579c0.32-0.193,0.581-0.422,0.791-0.672c-0.834-1.021-1.729-1.991-2.689-2.895
			C51.65,10.957,51.063,12.322,50.712,14.076z"/>
	</g>
	<g>
		<g>
			<g>
				<polygon fill="#83BF4F" points="53.822,50.824 53.637,51.465 37.785,44.621 37.971,43.98 				"/>
				<polygon fill="#83BF4F" points="54.31,49.147 54.122,49.793 38.006,43.861 38.191,43.215 				"/>
				<polygon fill="#83BF4F" points="54.738,47.669 54.552,48.313 38.216,43.135 38.403,42.49 				"/>
				
					<rect x="46.488" y="35.638" transform="matrix(0.2789 -0.9603 0.9603 0.2789 -8.686 76.8392)" fill="#83BF4F" width="0.672" height="17.131"/>
				<polygon fill="#83BF4F" points="55.624,44.609 55.437,45.255 38.779,41.19 38.967,40.543 				"/>
			</g>
			<g>
				<g>
					<polygon fill="#83BF4F" points="14.348,28.117 14.747,27.583 27.165,39.58 26.765,40.113 					"/>
					<polygon fill="#83BF4F" points="12.016,28.709 12.417,28.173 25.404,39.408 25.002,39.947 					"/>
					<polygon fill="#83BF4F" points="9.621,28.168 10.024,27.63 23.481,38.238 23.079,38.775 					"/>
					
						<rect x="15.919" y="26.021" transform="matrix(-0.5981 0.8014 -0.8014 -0.5981 53.696 42.2498)" fill="#83BF4F" width="0.673" height="17.133"/>
					<polygon fill="#83BF4F" points="6.382,29.541 6.785,29.004 20.937,38.684 20.533,39.225 					"/>
				</g>
				<g>
					<polygon fill="#83BF4F" points="6.263,32.338 6.326,31.675 23.174,35.456 23.111,36.12 					"/>
					<polygon fill="#83BF4F" points="4.863,33.586 4.927,32.918 21.864,35.753 21.802,36.422 					"/>
					<polygon fill="#83BF4F" points="6.987,35.352 7.051,34.682 24.063,36.735 23.999,37.404 					"/>
					
						<rect x="13.112" y="28.373" transform="matrix(-0.0943 0.9955 -0.9955 -0.0943 51.4901 27.0341)" fill="#83BF4F" width="0.673" height="17.13"/>
					<polygon fill="#83BF4F" points="7.817,38.676 7.883,38.006 25.005,38.908 24.94,39.578 					"/>
				</g>
			</g>
		</g>
		<path fill="#FFCE31" d="M33.265,50.629l0.674,0.48c0.967,0.676,1.499,1.611,1.446,2.58l-0.036,0.799l0.317-0.787
			c0.348-0.821,0.299-2.067-0.111-2.988l-0.239-0.54l0.76,0.331c1.086,0.46,1.802,1.266,1.949,2.224l0.132,0.788l0.146-0.835
			c0.169-0.878-0.136-2.086-0.729-2.9l-0.346-0.478l0.811,0.165c1.158,0.222,2.024,0.862,2.368,1.769l0.292,0.744l-0.029-0.849
			c-0.017-0.892-0.565-2.011-1.315-2.685l-0.437-0.395l0.829-0.007c1.178-0.024,2.157,0.421,2.684,1.235l0.44,0.668l-0.207-0.823
			c-0.201-0.87-0.97-1.849-1.844-2.354l-0.509-0.295l0.809-0.178c1.147-0.269,2.198-0.036,2.882,0.649l0.568,0.562l-0.371-0.762
			c-0.379-0.81-1.334-1.607-2.293-1.918l-0.559-0.184l0.754-0.342c1.066-0.502,2.142-0.494,2.953,0.035l0.674,0.43l-0.523-0.668
			c-0.537-0.711-1.638-1.292-2.64-1.398l-0.585-0.061l0.666-0.494c0.938-0.712,1.994-0.928,2.896-0.579l0.748,0.281l-0.648-0.546
			c-0.675-0.584-1.872-0.924-2.875-0.817l-0.585,0.061l0.55-0.621c0.771-0.891,1.756-1.323,2.713-1.169l0.789,0.119l-0.747-0.398
			c-0.781-0.432-2.022-0.514-2.982-0.202l-0.559,0.181l0.409-0.721c0.568-1.033,1.443-1.661,2.41-1.709l0.797-0.048l-0.814-0.233
			c-0.854-0.26-2.084-0.082-2.957,0.422l-0.511,0.295l0.25-0.791c0.343-1.129,1.067-1.924,2.004-2.174l0.77-0.213l-0.845-0.059
			c-0.889-0.076-2.057,0.354-2.806,1.029l-0.437,0.394l0.078-0.825c0.101-1.176,0.646-2.105,1.51-2.544l0.707-0.368l-0.838,0.118
			c-0.885,0.11-1.938,0.774-2.53,1.591l-0.347,0.477l-0.093-0.824c-0.146-1.17,0.193-2.193,0.946-2.802l0.616-0.508l-0.795,0.29
			c-0.843,0.292-1.733,1.16-2.146,2.083l-0.238,0.538l-0.262-0.787c-0.388-1.113-0.268-2.186,0.344-2.936l0.498-0.626l-0.719,0.448
			c-0.764,0.461-1.455,1.497-1.665,2.484l-0.122,0.576l-0.42-0.715c-0.61-1.011-0.714-2.082-0.273-2.943l0.356-0.717l-0.609,0.59
			c-0.65,0.609-1.112,1.767-1.112,2.775v0.59l-0.56-0.613c-0.806-0.859-1.131-1.887-0.879-2.822l0.201-0.773l-0.474,0.703
			c-0.511,0.73-0.723,1.959-0.513,2.946l0.121,0.575l-0.673-0.481c-0.967-0.674-1.498-1.611-1.446-2.579l0.036-0.798l-0.317,0.786
			c-0.348,0.821-0.3,2.067,0.109,2.988l0.24,0.539l-0.76-0.332c-1.085-0.457-1.801-1.264-1.949-2.221l-0.132-0.789l-0.146,0.836
			c-0.169,0.877,0.137,2.084,0.729,2.9l0.345,0.477l-0.811-0.166c-1.156-0.223-2.024-0.861-2.368-1.768l-0.292-0.744l0.028,0.848
			c0.018,0.893,0.567,2.01,1.316,2.687l0.437,0.394l-0.828,0.006c-1.178,0.024-2.157-0.42-2.683-1.234l-0.44-0.668l0.205,0.824
			c0.201,0.869,0.973,1.848,1.845,2.353l0.509,0.294l-0.809,0.179c-1.147,0.269-2.198,0.037-2.882-0.649l-0.569-0.561l0.371,0.762
			c0.379,0.809,1.335,1.605,2.294,1.918l0.56,0.182l-0.754,0.344c-1.067,0.501-2.145,0.494-2.954-0.036l-0.673-0.43l0.521,0.668
			c0.537,0.712,1.638,1.294,2.641,1.398l0.585,0.062l-0.667,0.493c-0.939,0.712-1.993,0.929-2.896,0.579l-0.748-0.281l0.649,0.546
			c0.674,0.584,1.87,0.925,2.873,0.819l0.585-0.063l-0.549,0.621c-0.771,0.893-1.758,1.324-2.713,1.17l-0.789-0.118l0.747,0.397
			c0.781,0.432,2.023,0.514,2.982,0.202l0.559-0.183l-0.408,0.723c-0.569,1.031-1.445,1.66-2.411,1.709l-0.798,0.047l0.816,0.234
			c0.853,0.26,2.083,0.082,2.956-0.422l0.51-0.295l-0.25,0.791c-0.341,1.128-1.066,1.924-2.003,2.174l-0.77,0.211l0.845,0.061
			c0.89,0.076,2.056-0.354,2.805-1.029l0.438-0.395l-0.08,0.826c-0.101,1.174-0.645,2.104-1.508,2.543l-0.708,0.368l0.837-0.119
			c0.885-0.11,1.939-0.774,2.531-1.591l0.347-0.475l0.092,0.824c0.146,1.17-0.192,2.191-0.946,2.8l-0.616,0.51l0.795-0.29
			c0.844-0.293,1.735-1.162,2.146-2.084l0.239-0.538l0.262,0.787c0.387,1.114,0.267,2.184-0.344,2.937l-0.499,0.626l0.72-0.45
			c0.764-0.461,1.455-1.497,1.664-2.484l0.123-0.574l0.419,0.714c0.61,1.01,0.715,2.082,0.274,2.944l-0.357,0.715l0.609-0.588
			c0.651-0.61,1.113-1.768,1.113-2.777v-0.589l0.56,0.612c0.806,0.861,1.131,1.888,0.878,2.824l-0.199,0.773l0.474-0.704
			c0.51-0.73,0.721-1.959,0.513-2.946L33.265,50.629"/>
	</g>
</g>
</svg>
