<?xml version="1.0" encoding="utf-8"?>
<!-- Generator: Adobe Illustrator 15.0.0, SVG Export Plug-In . SVG Version: 6.00 Build 0)  -->
<!DOCTYPE svg PUBLIC "-//W3C//DTD SVG 1.1//EN" "http://www.w3.org/Graphics/SVG/1.1/DTD/svg11.dtd">
<svg version="1.1" id="Layer_1" xmlns="http://www.w3.org/2000/svg" xmlns:xlink="http://www.w3.org/1999/xlink" x="0px" y="0px"
	 width="64px" height="64px" viewBox="0 0 64 64" enable-background="new 0 0 64 64" xml:space="preserve">
<g>
	<circle fill="#F5F5F5" cx="32" cy="32" r="30"/>
	<g>
		<path id="path3048" fill="#699635" d="M12.476,36.952c0,0-0.162,1.374,0.404,2.02c0.566,0.647,1.938,1.372,2.422,1.452
			c0.484,0.082-0.564-1.774-0.564-1.774S13.203,36.711,12.476,36.952L12.476,36.952z"/>
		<path id="path3050" fill="#699635" d="M12.718,40.424c0,0,0.161,1.293,1.049,1.455c0.889,0.161,1.696,0.081,1.696,0.081
			S15.463,40.506,12.718,40.424z"/>
		<path id="path3052" fill="#699635" d="M15.625,37.761c0,0,0.888,0.322,0.888,1.131c0,0.806-0.08,1.614-0.08,1.614
			s-0.647-0.809-0.647-1.211C15.786,38.892,15.625,37.761,15.625,37.761z"/>
		<path id="path3054" fill="#699635" d="M15.296,42.621c0,0-0.114,0.799,0.799,0.799C17.009,43.42,16.21,42.393,15.296,42.621z"/>
		<path id="path3056" fill="#699635" d="M15.239,43.877c0,0,0.971-0.285,2.113-0.057c1.142,0.229,1.712,1.084,1.712,1.084
			s-1.198,0.344-2.569,0C15.126,44.563,15.239,43.877,15.239,43.877z"/>
		<path id="path3060" fill="#699635" d="M15.868,41.022c0,0,1.37-0.399,2.683,2.569C18.551,43.592,16.038,42.965,15.868,41.022z"/>
		<path id="path3062" fill="#699635" d="M17.294,40.395c0,0,1.542-0.857,2.799,3.139C20.093,43.533,18.323,42.849,17.294,40.395z"/>
		<path id="path3064" fill="#699635" d="M19.351,44.105c0,0,1.542-0.572,3.541,1.77C19.636,45.762,19.351,44.105,19.351,44.105z"/>
		<path id="path3054-9" fill="#699635" d="M20.382,43.018c0,0-0.076,0.9,0.528,0.9S20.986,42.761,20.382,43.018z"/>
		<path id="path3054-9-4" fill="#699635" d="M19.271,45.355c0,0-0.059,0.787,0.413,0.787S19.741,45.132,19.271,45.355z"/>
		<path id="path3054-9-7" fill="#699635" d="M23.979,47.785c0,0-0.075,0.9,0.529,0.9C25.112,48.686,24.583,47.527,23.979,47.785z"/>
		<path id="path3054-9-71" fill="#699635" d="M25.408,45.102c0,0-0.076,0.9,0.528,0.9S26.011,44.846,25.408,45.102z"/>
		<path id="path3127" fill="#699635" d="M21.635,43.533c0,0,2.17-0.568,3.083,2.172C22.092,45.305,21.635,43.533,21.635,43.533z"/>
		<path id="path3129" fill="#699635" d="M19.693,46.562c0,0,2.456-0.628,3.598,0.229C24.433,47.646,21.121,47.988,19.693,46.562z"/>
		<path id="path3131" fill="#699635" d="M23.977,46.619c0,0,1.655-0.8,3.483,0.97C24.033,48.045,23.977,46.619,23.977,46.619z"/>
		<path id="path3133" fill="#699635" d="M26.774,45.533c0,0,1.656-0.514,3.255,2.512C26.431,47.531,26.774,45.533,26.774,45.533z"/>
		<path id="path3135" fill="#699635" d="M29.628,48.845c0,0-1.827,1.257-4.111-0.058C25.518,48.787,26.26,47.246,29.628,48.845z"/>
		<path id="path3048-1" fill="#699635" d="M51.523,36.926c0,0,0.162,1.371-0.402,2.018c-0.564,0.646-1.939,1.373-2.424,1.453
			c-0.484,0.081,0.566-1.777,0.566-1.777S50.797,36.682,51.523,36.926z"/>
		<path id="path3050-1" fill="#699635" d="M51.283,40.396c0,0-0.162,1.292-1.051,1.453c-0.889,0.162-1.695,0.08-1.695,0.08
			S48.537,40.478,51.283,40.396L51.283,40.396z"/>
		<path id="path3052-6" fill="#699635" d="M48.375,37.732c0,0-0.889,0.322-0.889,1.129c0,0.809,0.08,1.616,0.08,1.616
			s0.646-0.808,0.646-1.212S48.375,37.732,48.375,37.732z"/>
		<path id="path3054-3" fill="#699635" d="M48.703,42.592c0,0,0.115,0.799-0.799,0.799S47.791,42.363,48.703,42.592z"/>
		<path id="path3056-5" fill="#699635" d="M48.76,43.85c0,0-0.969-0.286-2.113-0.059c-1.141,0.229-1.711,1.086-1.711,1.086
			s1.197,0.342,2.57,0C48.875,44.534,48.76,43.85,48.76,43.85L48.76,43.85z"/>
		<path id="path3060-7" fill="#699635" d="M48.133,40.994c0,0-1.369-0.4-2.684,2.569C45.449,43.563,47.961,42.935,48.133,40.994z"/>
		<path id="path3062-6" fill="#699635" d="M46.705,40.366c0,0-1.543-0.857-2.797,3.14C43.908,43.506,45.678,42.82,46.705,40.366z"/>
		<path id="path3064-8" fill="#699635" d="M44.65,44.077c0,0-1.541-0.571-3.541,1.77C44.363,45.734,44.65,44.077,44.65,44.077z"/>
		<path id="path3054-9-2" fill="#699635" d="M43.619,42.988c0,0,0.074,0.9-0.529,0.9S43.014,42.732,43.619,42.988z"/>
		<path id="path3054-9-4-1" fill="#699635" d="M44.73,45.328c0,0,0.059,0.786-0.412,0.786C43.846,46.114,44.26,45.102,44.73,45.328z
			"/>
		<path id="path3054-9-7-1" fill="#699635" d="M40.021,47.756c0,0,0.074,0.901-0.529,0.901
			C38.887,48.657,39.416,47.499,40.021,47.756z"/>
		<path id="path3054-9-71-4" fill="#699635" d="M38.594,45.073c0,0,0.076,0.899-0.529,0.899
			C37.461,45.973,37.99,44.816,38.594,45.073z"/>
		<path id="path3127-3" fill="#699635" d="M42.365,43.506c0,0-2.17-0.571-3.084,2.17C41.908,45.275,42.365,43.506,42.365,43.506z"/>
		<path id="path3129-0" fill="#699635" d="M44.307,46.533c0,0-2.455-0.629-3.598,0.229C39.568,47.617,42.879,47.96,44.307,46.533z"
			/>
		<path id="path3131-7" fill="#699635" d="M40.023,46.589c0,0-1.656-0.8-3.482,0.972C39.967,48.018,40.023,46.589,40.023,46.589z"/>
		<path id="path3133-1" fill="#699635" d="M37.227,45.504c0,0-1.656-0.514-3.256,2.514C37.568,47.504,37.227,45.504,37.227,45.504z"
			/>
		<path id="path3135-1" fill="#699635" d="M34.371,48.816c0,0,1.826,1.257,4.111-0.058C38.482,48.759,37.74,47.217,34.371,48.816z"
			/>
		<path id="path3203" fill="#699635" d="M31.655,49.55c0,0-1.251,1.697-1.251,1.536c0-0.164-0.889-0.889-0.889-0.889l1.534-1.13
			l-0.605-0.284l0.323-0.362l1.131,0.483"/>
		<path id="path3203-2" fill="#699635" d="M31.998,49.545c0,0,1.252,1.695,1.252,1.535c0-0.162,0.889-0.889,0.889-0.889
			l-1.535-1.131l0.605-0.283l-0.323-0.362l-1.13,0.483"/>
		<path id="path3223" fill="#699635" d="M31.575,49.631H32.1"/>
	</g>
	<path id="path3993" fill="#FF8736" d="M18.038,29.521c0,0,0.436,1.144,0.926,1.144s1.798,0.109,1.798,0.109
		s0.653-0.109,0.871-0.708c0.219-0.599,0.816-3.104,3.813-1.58c2.996,1.524,3.159-2.615,3.159-2.615l-0.491-0.708l0.109-1.361
		c0,0,1.634,1.144,2.668,1.089c1.036-0.054,1.798,0.328,2.126,0.328c0.326,0,1.359,0.327,1.359,0.327l2.67,0.108
		c0,0,0.436-0.38,0.871-0.326c0.438,0.054,0.438-0.272,1.252-0.272c0.818,0,1.635-1.036,1.635-1.036s0.219-0.217,1.416,0
		c0,0,0.818-0.653,2.016-1.035c1.199-0.38,1.035-0.871,1.035-0.871s0.871-0.164,1.252-0.109c0.381,0.054,0.6-0.654,0.6-0.654
		l0.926-0.108l0.381-0.544l0.928-0.165c0,0,1.09-0.762,1.252-1.252c0.164-0.491,1.416-0.109,1.416-0.109s0.545-0.491,0.6-0.763
		c0.055-0.271,0.545-0.055,0.545-0.055l-0.055,0.872l-0.6,0.328v0.544H51.59l-0.055,0.545l-0.762,0.055l-0.109,0.653L50.5,21.623
		l-0.217,0.109h-0.545l-0.219,0.326l-0.545,0.381l-0.381,0.49l-0.762-0.054l-0.49,0.654l-0.328-0.055l-0.49,0.818l-0.381,0.49
		l-0.217,0.327l-0.381,0.109l-0.109,0.435l-0.654,0.165l-0.871,0.217l-0.326,0.381c0,0-0.928,1.853,0.055,2.506
		c0.979,0.653,1.033,1.361,1.033,1.361l0.492,0.328l0.381,0.653l0.162,0.762c0,0-0.162,0.108-0.381,0.055
		c-0.219-0.055-0.6-0.11-0.6-0.11l-0.436-0.38l-0.816-0.055l-0.436,0.49c0,0-0.219,0.327-0.219,0.545s-0.109,0.163-0.381,0
		s-0.709-0.437-0.709-0.437l-0.6-0.163l-0.053-0.272l-0.383,0.218c0,0-0.107,0.328-0.326,0.217
		c-0.217-0.108-0.436-0.108-0.436-0.108h-0.381c0,0-0.871,0.654-0.762,2.778l-0.982,0.163l-0.49,0.436l-0.271,0.273h-0.709
		l-0.381,0.326l-0.707,0.272l-0.328,0.436l-0.871,0.054l-0.381,0.272l-0.164,0.381l-0.599-0.381l-0.816-0.218l-0.708,0.163
		c0,0-0.218,0.055-0.436,0.219c-0.217,0.164-0.817,0.271-0.817,0.271s-0.381,0.109-0.381,0.328c0,0.218-0.109,0.599-0.109,0.599
		v0.817c0,0-0.109,0.544-0.544,0.544c-0.435,0-0.326,0-0.544-0.054c-0.218-0.055-0.164-0.545-0.164-0.545v-0.6l-0.872-0.816
		l-0.544-0.219l-0.599,0.055l-0.545,0.326l-0.49,0.327c0,0,0.109,0.382-0.272,0.109s-0.654-0.381-0.654-0.381l-0.49-0.272
		l-0.654-0.164l-0.489-0.599l-1.252-0.054l-1.09-1.254l-0.327-0.326l-0.055-0.981l-0.708-0.108v-0.544l-0.273-0.546l0.109-0.98
		l-0.653-0.271l-0.272-0.927L18.038,29.521z"/>
</g>
</svg>
