<?xml version="1.0" encoding="utf-8"?>
<!-- Generator: Adobe Illustrator 15.0.0, SVG Export Plug-In . SVG Version: 6.00 Build 0)  -->
<!DOCTYPE svg PUBLIC "-//W3C//DTD SVG 1.1//EN" "http://www.w3.org/Graphics/SVG/1.1/DTD/svg11.dtd">
<svg version="1.1" id="Layer_1" xmlns="http://www.w3.org/2000/svg" xmlns:xlink="http://www.w3.org/1999/xlink" x="0px" y="0px"
	 width="64px" height="64px" viewBox="0 0 64 64" enable-background="new 0 0 64 64" xml:space="preserve">
<g>
	<g>
		<path fill="#2A5F9E" d="M32,62c5.318,0,10.311-1.391,14.643-3.818L46.787,5.9C42.422,3.422,37.379,2,32,2
			C17.075,2,4.7,12.902,2.391,27.178v9.645C4.7,51.098,17.075,62,32,62z"/>
		<path fill="#F9F9F9" d="M62,32c0-7.672-2.891-14.664-7.629-19.969l0.006-0.006c-0.891-0.996-1.846-1.928-2.859-2.797L51.516,9.23
			c-0.335-0.285-0.68-0.561-1.027-0.834h-3.701V7.971L3.592,29.518C3.526,30.33,2,31.17,2,32c0,0.832,1.869,1.609,1.936,2.424
			l42.707,21.537v-0.357h3.846c0.348-0.271,0.691-0.545,1.026-0.832l0.003,0.002c1.014-0.869,1.969-1.803,2.859-2.799l-0.006-0.006
			C59.109,46.664,62,39.674,62,32z"/>
		<path fill="#ED4C5C" d="M50.504,55.604l-48.5-23.408c0.012,1.574,0.143,3.119,0.387,4.627l44.251,21.359
			C47.998,57.422,49.289,56.559,50.504,55.604z"/>
		<path fill="#ED4C5C" d="M2.391,27.178c-0.244,1.508-0.375,3.053-0.387,4.627l48.5-23.408c-1.215-0.955-2.506-1.818-3.861-2.578
			L2.391,27.178z"/>
	</g>
	<g>
		<g>
			<polygon fill="#9C3900" points="44.703,37.877 43.104,37.635 42.957,35.34 43.197,34.41 42.957,33.535 42.887,32.563 
				40.824,31.936 39.156,31.752 37.939,30.77 38.289,27.943 34.252,27.248 36.975,24.975 37.058,23.057 39.307,22.01 43.643,20.178 
				43.811,20.801 47.529,19.152 47.519,19.758 50.664,19.047 54.042,17.846 53.658,21.422 52.625,22.904 51.889,24.566 
				48.22,26.854 52.967,28.752 51.043,31.129 48.901,31.205 50.13,32.137 48.863,32.736 49.814,32.803 49.195,33.469 50.364,33.289 
				48.853,34.564 49.1,35.83 47.939,35.338 48.713,36.609 47.213,36.25 47.453,37.559 46.418,37.256 46.328,38.408 			"/>
			<path fill="#3E4347" d="M53.896,18.029l-0.363,3.379l-1.011,1.424l-0.747,1.684l-3.831,2.363l4.819,1.926l-1.782,2.201
				l-2.435,0.088l1.344,1.018l-1.512,0.717l1.166,0.082l-0.686,0.736l1.084-0.166l-1.228,1.035l0.216,1.107l-1.301-0.553
				l0.819,1.348l-1.395-0.334l0.237,1.297l-0.987-0.289l-0.091,1.148l-1.473-0.482l-1.52-0.232l-0.142-2.193l0.237-0.889
				l-0.24-0.939l-0.073-1.037l-2.144-0.65l-1.691-0.189l-1.099-0.91l0.356-2.875L34.54,27.17l2.515-2.1l0.123-1.932l2.182-1.016
				l4.199-1.775l0.17,0.627l3.672-1.629l-0.01,0.568l3.301-0.746L53.896,18.029 M54.188,17.66l-0.375,0.135l-3.205,1.139
				L47.646,19.6l0.004-0.248l0.008-0.393l-0.359,0.158l-3.405,1.512l-0.093-0.346l-0.075-0.277l-0.264,0.111l-4.2,1.775l-2.189,1.02
				l-0.135,0.063l-0.01,0.148l-0.116,1.824l-2.432,2.031l-0.415,0.346l0.533,0.092l3.652,0.631l-0.327,2.639l-0.017,0.137
				l0.105,0.086l1.098,0.912l0.059,0.047l0.074,0.008l1.69,0.189l1.935,0.592l0.061,0.865l0.231,0.92l-0.22,0.826l-0.011,0.039
				l0.003,0.041l0.141,2.193l0.013,0.201l0.199,0.031l1.521,0.232l1.433,0.473l0.302,0.1l0.025-0.318l0.066-0.842l0.691,0.203
				l0.39,0.113l-0.073-0.398l-0.168-0.92l1.021,0.246l0.585,0.141l-0.313-0.514l-0.416-0.684l0.586,0.248l0.434,0.184l-0.09-0.461
				l-0.188-0.963l1.116-0.941l0.68-0.574l-0.879,0.135l-0.374,0.059l0.195-0.211l0.356-0.383l-0.522-0.037l-0.214-0.016l0.649-0.307
				l0.372-0.176l-0.328-0.25l-0.785-0.594l1.734-0.063l0.113-0.004l0.072-0.09l1.781-2.199l0.214-0.264l-0.315-0.127l-4.357-1.742
				l3.408-2.102l0.066-0.041l0.031-0.07l0.747-1.684l0.986-1.381l0.038-0.053l0.007-0.064l0.362-3.379L54.188,17.66L54.188,17.66z"
				/>
		</g>
		<g>
			<g>
				<path fill="#FFC221" d="M46.441,42.918c0.001-0.002,0.006-0.002,0.006-0.004C46.447,42.904,46.445,42.906,46.441,42.918z"/>
				<path fill="#3E4347" d="M46.446,42.908c0.001,0,0.001,0.002,0.001,0.006c0,0.002-0.004,0.002-0.006,0.004
					C46.444,42.912,46.445,42.908,46.446,42.908 M46.441,42.918L46.441,42.918L46.441,42.918"/>
			</g>
			<g>
				<path fill="#FFCE31" d="M41.463,44.369l0.543,0.891l-9.002-4.158l1.469-1.262l0.171,0.34l5.118,0.451l-0.068-0.275l1.145-0.525
					l0.025-0.275l-2.296,0.465l-0.089-1.164l-2.443-0.512l-0.127,0.668l-0.738-0.043l-0.18,0.625l-1.26-0.367l0.274-1.367
					l-1.906,0.912l-3.312-2.752l4.191-0.793l1.311,1.471l0.357-1.27l1.273,0.318l-0.17,0.592l0.677,0.127l-0.172,0.822l2.526,0.59
					l0.445-0.98l2.535,1.574l1.414-1.111l0.262,0.148l0.625-1.168l1.105,0.201l0.324,0.928l-0.537,1.482l0.268,0.42l5.973,1.393
					l-0.287,0.971l-0.586-0.137l0.135,0.809l-12.652-0.865l-0.277,0.443l4.537,0.217L41.76,42.58l2.961-0.369l-0.172,0.736
					l2.754-0.227l-1.995,0.766l2.198,1.023l-2.578-0.047l1.395,1.291l-2.659-1.023l0.044,1.033L41.463,44.369z M48.898,41.271
					l-4.066-0.938l-0.902,0.504l-0.012,0.035L48.898,41.271z"/>
				<path fill="#3E4347" d="M32.932,35.363l1.416,1.588l0.386-1.373l1.03,0.258l-0.171,0.6l0.686,0.129l-0.171,0.816l2.746,0.643
					l0.428-0.945l2.489,1.545l1.416-1.113l0.3,0.17l0.645-1.201l0.943,0.172l0.301,0.859l-0.559,1.457l0.301,0.473l5.92,1.416
					l-0.215,0.73l-5.963-1.373l-0.986,0.514l-0.129,0.258l6.435,0.514l0.13,0.771l-12.57-0.857l-0.43,0.688l4.505,0.215
					l-0.343,0.428l3.088-0.385l-0.17,0.729l2.053-0.168l-1.453,0.557l1.93,0.9l-2.316-0.043l1.158,1.072l-2.23-0.859l0.043,0.988
					l-2.488-1.547l0.602,0.986l-8.453-3.902l1.201-1.031l0.13,0.258l5.362,0.473l-0.086-0.344l1.115-0.514l0.049-0.514l-2.322,0.471
					l-0.086-1.117l-2.66-0.557l-0.129,0.686l-0.729-0.043l-0.172,0.602l-1.029-0.301l0.301-1.5l-2.06,0.984l-3.047-2.531
					L32.932,35.363 M33.024,35.092l-0.139,0.025l-3.861,0.729l-0.522,0.1l0.409,0.34l3.046,2.531l0.123,0.102l0.145-0.068
					l1.609-0.77l-0.203,1.01l-0.045,0.225l0.221,0.064l1.029,0.301l0.24,0.07l0.069-0.242l0.116-0.408l0.529,0.031l0.221,0.014
					l0.04-0.217l0.082-0.436l2.227,0.467l0.071,0.93l0.021,0.281l0.277-0.057l1.992-0.402l-0.003,0.035l-0.985,0.453l-0.188,0.086
					l0.05,0.201l0.001,0.004l-4.873-0.43l-0.068-0.133l-0.143-0.285l-0.242,0.207l-1.201,1.031l-0.295,0.252l0.353,0.164
					l8.452,3.902l0.746,0.346l-0.428-0.701l-0.055-0.092l1.597,0.992l0.401,0.25l-0.02-0.473l-0.026-0.605l1.874,0.721l1.215,0.469
					l-0.955-0.885l-0.677-0.627l1.661,0.031l1.179,0.021l-1.069-0.498l-1.396-0.652l0.903-0.346l1.633-0.625l-1.742,0.143
					l-1.712,0.141l0.093-0.395l0.062-0.266l5.427,0.371l0.316,0.021l-0.053-0.313l-0.078-0.467l0.289,0.066l0.23,0.053l0.066-0.225
					l0.215-0.73l0.074-0.252l-0.256-0.063l-5.822-1.393l-0.178-0.279l0.512-1.34l0.033-0.086l-0.03-0.086l-0.301-0.859l-0.048-0.137
					l-0.143-0.027l-0.943-0.172l-0.18-0.031l-0.086,0.16l-0.523,0.975l-0.077-0.043l-0.146-0.082l-0.132,0.104l-1.278,1.004
					l-2.34-1.453l-0.242-0.148l-0.117,0.258l-0.345,0.758l-2.308-0.539l0.121-0.578l0.052-0.25l-0.251-0.047l-0.416-0.078
					l0.096-0.336l0.07-0.248l-0.25-0.063l-1.03-0.258l-0.235-0.059l-0.066,0.234l-0.262,0.932l-1.111-1.246L33.024,35.092
					L33.024,35.092z M44.314,40.779l0.578-0.303l2.318,0.533L44.314,40.779L44.314,40.779z M37.746,41.871l0.125-0.199l6.568,0.447
					l-2.389,0.299l0.264-0.33l-0.489-0.023L37.746,41.871L37.746,41.871z"/>
			</g>
			<g>
				<path fill="#FFCE31" d="M32.361,35.131c-0.521-0.26-0.811-0.602-0.861-1.016c-0.102-0.822,0.799-1.604,0.836-1.635l0.162-0.139
					l0.043,0.209c0.088,0.443,1.049,0.543,1.416,0.543c-0.002-0.002,0.135-0.041,0.314-0.041c0.257,0,0.615,0.076,0.865,0.438
					l0.049,0.07l-0.048,0.07c-0.527,0.779-1.252,0.943-1.767,0.943c-0.311,0-0.563-0.059-0.69-0.096
					c-0.032,0.068-0.092,0.227-0.14,0.559l-0.023,0.172L32.361,35.131z"/>
				<path fill="#3E4347" d="M32.418,32.574c0.129,0.645,1.544,0.645,1.544,0.645s0.13-0.041,0.31-0.041
					c0.231,0,0.545,0.068,0.763,0.383c-0.489,0.723-1.156,0.889-1.663,0.889c-0.426,0-0.738-0.117-0.738-0.117
					s-0.129,0.086-0.215,0.688C30.615,34.119,32.418,32.574,32.418,32.574L32.418,32.574 M32.623,32.324h-0.205
					c-0.245,0-0.883,0.793-1.014,1.35c-0.107,0.457-0.039,1.1,0.902,1.57l0.31,0.154l0.05-0.344
					c0.029-0.209,0.064-0.344,0.092-0.428c0.148,0.035,0.363,0.072,0.613,0.072c0.545,0,1.313-0.174,1.87-0.998l0.097-0.143
					l-0.098-0.141c-0.22-0.316-0.563-0.49-0.969-0.49c-0.154,0-0.279,0.025-0.342,0.041c-0.488-0.006-1.207-0.148-1.266-0.443
					L32.623,32.324L32.623,32.324z"/>
			</g>
		</g>
		<g>
			<g>
				<polygon fill="#FFFFFF" points="32.336,32.578 32.684,31.994 32.875,31.105 37.337,28.885 38.672,27.301 38.181,28.805 
					39.963,28.42 38.548,29.498 40.453,29.072 38.771,30.229 40.931,30.033 39.293,31.07 40.712,31.203 39.037,32.025 
					36.749,32.635 35.121,33.658 32.83,33.727 				"/>
				<path fill="#3E4347" d="M38.355,27.865l-0.361,1.107l1.446-0.313l-1.423,1.084l1.832-0.41l-1.542,1.061l2.12-0.191l-1.254,0.795
					l-0.723,0.119l1.807,0.17l-1.276,0.625l-2.265,0.602l-1.662,1.037L32.911,33.6l-0.435-1.012l0.314-0.529l0.192-0.867
					l4.409-2.193L38.355,27.865 M38.987,26.736l-0.821,0.967l-0.931,1.094l-4.363,2.17l-0.106,0.053l-0.026,0.117l-0.185,0.828
					l-0.293,0.494l-0.064,0.109l0.05,0.117l0.435,1.014l0.066,0.154l0.169-0.004l2.144-0.049l0.068-0.002l0.059-0.035l1.63-1.018
					l2.228-0.592l1.323-0.643l0.798-0.391l-0.885-0.084l-0.613-0.057l0.893-0.566l0.873-0.553l-1.029,0.094l-1.168,0.105l0.756-0.52
					l1.064-0.732l-1.262,0.281l-0.717,0.162l0.514-0.393l0.893-0.68l-1.097,0.236l-1.021,0.221l0.227-0.695L38.987,26.736
					L38.987,26.736z"/>
			</g>
			<g>
				<polygon fill="#FFFFFF" points="50.836,31.24 50.141,30.344 50.674,28.816 50.412,28.334 50.612,27.346 54.678,26.639 
					54.057,27.83 55.43,28.875 54.49,30.494 55.246,32.082 				"/>
				<path fill="#3E4347" d="M54.449,26.805l-0.553,1.061l1.369,1.043l-0.917,1.58l0.679,1.424l-4.168-0.795l-0.578-0.795
					l0.529-1.518l-0.289-0.531l0.193-0.818L54.449,26.805 M54.904,26.473l-0.498,0.086l-3.734,0.65l-0.162,0.029l-0.038,0.16
					l-0.192,0.818l-0.022,0.092l0.046,0.084l0.235,0.436l-0.493,1.412l-0.043,0.123l0.076,0.107l0.578,0.795l0.059,0.078l0.098,0.02
					l4.168,0.795l0.484,0.092l-0.212-0.445L54.631,30.5l0.852-1.467l0.111-0.191l-0.176-0.133l-1.202-0.916l0.455-0.873
					L54.904,26.473L54.904,26.473z"/>
			</g>
		</g>
	</g>
</g>
</svg>
