<?xml version="1.0" encoding="utf-8"?>
<!-- Generator: Adobe Illustrator 15.0.0, SVG Export Plug-In . SVG Version: 6.00 Build 0)  -->
<!DOCTYPE svg PUBLIC "-//W3C//DTD SVG 1.1//EN" "http://www.w3.org/Graphics/SVG/1.1/DTD/svg11.dtd">
<svg version="1.1" id="Layer_1" xmlns="http://www.w3.org/2000/svg" xmlns:xlink="http://www.w3.org/1999/xlink" x="0px" y="0px"
	 width="64px" height="64px" viewBox="0 0 64 64" enable-background="new 0 0 64 64" xml:space="preserve">
<g>
	<g>
		<g>
			<path fill="#ED4C5C" d="M32,62c13.061,0,24.168-8.35,28.287-20H3.715C7.834,53.65,18.939,62,32,62z"/>
			<path fill="#699635" d="M32,2C18.939,2,7.834,10.35,3.715,22h56.572C56.168,10.35,45.061,2,32,2z"/>
			<path fill="#FFCE31" d="M60.287,42C61.393,38.872,62,35.508,62,32c0-3.507-0.607-6.871-1.713-10H3.715
				C2.607,25.129,2,28.493,2,32c0,3.508,0.607,6.872,1.715,10H60.287z"/>
		</g>
	</g>
	<circle fill="#428BC1" cx="32" cy="32" r="14"/>
	<g>
		<path fill="#FFCE31" d="M35.791,33.295L35.791,33.295l6.061-4.318l-7.51-0.021v-0.002l0,0L32,22l-2.342,6.953l0,0v0.002
			l-7.51,0.021l6.063,4.318l0,0l0,0l-2.299,6.967L32,35.979l0,0h0.002l6.088,4.282L35.791,33.295L35.791,33.295z M39.311,29.779
			l-3.791,2.704l-0.904-2.716L39.311,29.779z M29.189,32.985l1.074-3.22h3.473l1.074,3.22L32,34.975L29.189,32.985z M32,24.604
			l1.465,4.35h-2.93L32,24.604z M24.689,29.779l4.697-0.012l-0.906,2.716L24.689,29.779z M27.482,38.158l1.438-4.36l2.371,1.679
			L27.482,38.158z M36.52,38.158l-3.809-2.682l2.369-1.679L36.52,38.158z"/>
		<polygon fill="#FFCE31" points="31.584,37.271 31.584,42 32.418,42 32.418,37.271 32,36.979 		"/>
		<polygon fill="#FFCE31" points="25.906,32.659 22,33.801 22.24,34.577 26.75,33.259 		"/>
		<polygon fill="#FFCE31" points="29.055,28.144 29.328,27.334 26.221,23.487 25.566,23.987 28.922,28.145 		"/>
		<polygon fill="#FFCE31" points="35.078,28.145 38.434,23.987 37.779,23.487 34.672,27.334 34.945,28.144 		"/>
		<polygon fill="#FFCE31" points="38.094,32.659 37.25,33.259 41.762,34.577 42,33.801 		"/>
	</g>
</g>
</svg>
