<?xml version="1.0" encoding="utf-8"?>
<!-- Generator: Adobe Illustrator 15.0.0, SVG Export Plug-In . SVG Version: 6.00 Build 0)  -->
<!DOCTYPE svg PUBLIC "-//W3C//DTD SVG 1.1//EN" "http://www.w3.org/Graphics/SVG/1.1/DTD/svg11.dtd">
<svg version="1.1" id="Layer_1" xmlns="http://www.w3.org/2000/svg" xmlns:xlink="http://www.w3.org/1999/xlink" x="0px" y="0px"
	 width="64px" height="64px" viewBox="0 0 64 64" enable-background="new 0 0 64 64" xml:space="preserve">
<g>
	<path fill="#ED4C5C" d="M2,32c0,13.061,8.35,24.167,20,28.286V3.714C10.35,7.833,2,18.939,2,32z"/>
	<path fill="#699635" d="M32,2c-3.51,0-6.87,0.62-10,1.729V22h38.286C56.167,10.35,45.062,2,32,2z"/>
	<path fill="#F9F9F9" d="M60.286,22H22v20h38.286C61.392,38.871,62,35.508,62,32S61.392,25.129,60.286,22z"/>
	<path fill="#3E4347" d="M22,42v18.271C25.13,61.38,28.49,62,32,62c13.062,0,24.167-8.35,28.286-20H22z"/>
</g>
</svg>
