<?xml version="1.0" encoding="utf-8"?>
<!-- Generator: Adobe Illustrator 15.0.0, SVG Export Plug-In . SVG Version: 6.00 Build 0)  -->
<!DOCTYPE svg PUBLIC "-//W3C//DTD SVG 1.1//EN" "http://www.w3.org/Graphics/SVG/1.1/DTD/svg11.dtd">
<svg version="1.1" id="Layer_1" xmlns="http://www.w3.org/2000/svg" xmlns:xlink="http://www.w3.org/1999/xlink" x="0px" y="0px"
	 width="64px" height="64px" viewBox="0 0 64 64" enable-background="new 0 0 64 64" xml:space="preserve">
<g>
	<circle fill="#428BC1" cx="32" cy="32" r="30"/>
	<g>
		<polygon fill="#FFFFFF" points="32.777,21.619 35.183,23.444 34.271,20.477 36.667,18.637 33.701,18.628 32.777,15.666 
			31.854,18.628 28.889,18.637 31.283,20.477 30.373,23.444 		"/>
		<polygon fill="#FFFFFF" points="32.777,42.381 35.183,40.556 34.271,43.523 36.667,45.362 33.701,45.372 32.777,48.333 
			31.854,45.372 28.889,45.362 31.283,43.523 30.373,40.556 		"/>
		<polygon fill="#FFFFFF" points="21.889,29.937 24.293,28.111 23.383,31.078 25.777,32.918 22.813,32.928 21.889,35.889 
			20.964,32.928 18,32.918 20.394,31.078 19.484,28.111 		"/>
		<polygon fill="#FFFFFF" points="42.111,29.937 39.706,28.111 40.617,31.078 38.223,32.918 41.188,32.928 42.111,35.889 
			43.035,32.928 46,32.918 43.605,31.078 44.516,28.111 		"/>
	</g>
</g>
</svg>
