<?xml version="1.0" encoding="utf-8"?>
<!-- Generator: Adobe Illustrator 15.0.0, SVG Export Plug-In . SVG Version: 6.00 Build 0)  -->
<!DOCTYPE svg PUBLIC "-//W3C//DTD SVG 1.1//EN" "http://www.w3.org/Graphics/SVG/1.1/DTD/svg11.dtd">
<svg version="1.1" id="Layer_1" xmlns="http://www.w3.org/2000/svg" xmlns:xlink="http://www.w3.org/1999/xlink" x="0px" y="0px"
	 width="64px" height="64px" viewBox="0 0 64 64" enable-background="new 0 0 64 64" xml:space="preserve">
<g>
	<circle fill="#3A7DCE" cx="32" cy="32" r="30"/>
	<g>
		<polyline fill="#FFFFFF" points="17.619,30.691 17.28,29.337 16.981,29.343 16.529,29.839 16.434,28.49 15.757,27.983 
			15.419,28.152 15.35,28.423 14.7,28.129 14.235,27.476 15.419,26.461 13.389,24.938 12.373,21.216 19.818,26.461 24.386,25.276 
			24.217,24.6 25.063,24.431 25.498,22.924 25.401,22.4 25.703,22.004 25.887,21.027 25.738,20.58 26.375,19.957 26.248,18.508 
			27.771,17.832 29.123,16.479 28.954,15.801 29.948,16.293 30.699,15.77 30.985,14.955 31.365,15.6 35.701,15.785 36.59,16.643 
			40.053,17.334 40.801,18.015 41.307,17.832 41.85,19.534 42.141,19.479 42.532,19.021 45.693,20.108 45.932,20.555 46.721,20.369 
			47.566,21.216 48.512,26.117 47.734,28.83 51.119,29.845 51.299,32.119 50.601,33.848 51.627,34.582 51.119,37.459 49.427,38.812 
			49.766,40.842 48.75,41.52 48.243,41.35 48.243,43.211 47.396,43.211 47.734,43.889 46.043,44.564 46.509,45.639 45.367,46.765 
			45.705,47.103 45.028,46.934 41.824,48.826 41.982,48.287 41.032,48.467 40.823,47.99 40.048,48.639 39.707,48.463 39.216,49.125 
			35.587,48.641 35.139,48.348 34.538,48.625 33.168,47.637 33.818,47.045 34.668,45.191 34.707,44.057 34.03,42.534 33.195,43.275 
			28.518,42.071 27.549,42.223 26.676,42.725 24.386,42.534 24.386,42.872 19.648,41.18 19.648,40.166 18.803,40.166 18.633,37.289 
			17.957,37.459 17.111,35.428 17.28,35.936 15.588,34.074 16.603,34.074 16.275,32.06 17.108,30.744 17.619,30.691 		"/>
	</g>
</g>
</svg>
