<?xml version="1.0" encoding="utf-8"?>
<!-- Generator: Adobe Illustrator 15.0.0, SVG Export Plug-In . SVG Version: 6.00 Build 0)  -->
<!DOCTYPE svg PUBLIC "-//W3C//DTD SVG 1.1//EN" "http://www.w3.org/Graphics/SVG/1.1/DTD/svg11.dtd">
<svg version="1.1" id="Layer_1" xmlns="http://www.w3.org/2000/svg" xmlns:xlink="http://www.w3.org/1999/xlink" x="0px" y="0px"
	 width="64px" height="64px" viewBox="0 0 64 64" enable-background="new 0 0 64 64" xml:space="preserve">
<g>
	<g>
		<path fill="#2A5F9E" d="M52.387,10C47.035,5.038,39.873,2,32,2c-7.875,0-15.035,3.037-20.389,8H52.387z"/>
		<path fill="#2A5F9E" d="M11.611,54c5.354,4.963,12.514,8,20.389,8c7.873,0,15.035-3.037,20.387-8H11.611z"/>
	</g>
	<path fill="#C94747" d="M2,32c0,4.267,0.896,8.324,2.504,12h54.992C61.104,40.324,62,36.268,62,32c0-4.268-0.896-8.324-2.504-12
		H4.504C2.896,23.676,2,27.733,2,32z"/>
	<path fill="#F9F9F9" d="M11.627,54h40.744c3.014-2.791,5.461-6.184,7.129-10h-55C6.168,47.816,8.615,51.209,11.627,54z"/>
	<path fill="#F9F9F9" d="M52.371,10H11.627C8.615,12.792,6.168,16.184,4.5,20h55C57.832,16.184,55.385,12.792,52.371,10z"/>
</g>
</svg>
