<?xml version="1.0" encoding="utf-8"?>
<!-- Generator: Adobe Illustrator 15.0.0, SVG Export Plug-In . SVG Version: 6.00 Build 0)  -->
<!DOCTYPE svg PUBLIC "-//W3C//DTD SVG 1.1//EN" "http://www.w3.org/Graphics/SVG/1.1/DTD/svg11.dtd">
<svg version="1.1" id="Layer_1" xmlns="http://www.w3.org/2000/svg" xmlns:xlink="http://www.w3.org/1999/xlink" x="0px" y="0px"
	 width="64px" height="64px" viewBox="0 0 64 64" enable-background="new 0 0 64 64" xml:space="preserve">
<g>
	<g>
		<path fill="#ED4C5C" d="M32,2C18.939,2,7.833,10.35,3.714,22h56.572C56.167,10.35,45.061,2,32,2z"/>
		<path fill="#428BC1" d="M32,62c13.061,0,24.167-8.35,28.286-20H3.714C7.833,53.65,18.939,62,32,62z"/>
		<path fill="#F9F9F9" d="M3.714,22C2.607,25.129,2,28.492,2,32s0.607,6.871,1.714,10h56.572C61.393,38.871,62,35.508,62,32
			s-0.607-6.871-1.714-10H3.714z"/>
	</g>
	<g>
		<path fill="#FFFFFF" d="M42.883,25.166l2.642-5.989l-2.013-3.25l-3.334,1.234l-2.342-2.676l-3.085,1.768L32.001,14l-2.751,2.253
			l-3.085-1.768l-2.341,2.676l-3.335-1.235l-2.013,3.251l2.638,5.99c3.325-1.505,7.011-2.343,10.887-2.343
			C35.875,22.824,39.56,23.662,42.883,25.166L42.883,25.166z"/>
		<path fill="#428BC1" d="M34.734,16.528l-0.006,0.003L32,14.297l-2.722,2.23l0.513,6.18c0.729-0.061,1.466-0.092,2.209-0.092
			c0.748,0,1.488,0.032,2.221,0.093L34.734,16.528L34.734,16.528z"/>
		<g>
			<g>
				<path fill="#ED4C5C" d="M32.003,50L32.003,50c6.208,0,11.286-5.078,11.286-11.286V25.303H20.717v13.411
					C20.717,44.922,25.796,50,32.003,50L32.003,50z"/>
				<path fill="#FFFFFF" d="M32.003,49.82L32.003,49.82c6.089,0,11.071-4.982,11.071-11.072V25.52H20.932v13.228
					C20.932,44.838,25.915,49.82,32.003,49.82z"/>
				<g>
					<path fill="#ED4C5C" d="M25.605,25.937h-4.26v4.681h4.26V25.937z"/>
					<path fill="#ED4C5C" d="M25.605,35.298h4.261v-4.68h-4.261V35.298z"/>
					<path fill="#ED4C5C" d="M21.345,38.723c0,0.425,0.026,0.844,0.075,1.257h4.185v-4.682h-4.26V38.723z"/>
					<path fill="#ED4C5C" d="M34.127,35.298h-4.261v4.682h4.261V35.298z"/>
					<path fill="#ED4C5C" d="M34.127,44.66h4.261v-4.681h-4.261V44.66z"/>
					<path fill="#ED4C5C" d="M38.388,47.221c0.944-0.713,1.768-1.579,2.433-2.561h-2.433V47.221z"/>
					<path fill="#ED4C5C" d="M25.606,44.66h4.26v-4.681h-4.26V44.66z"/>
					<path fill="#ED4C5C" d="M23.169,44.66c0.665,0.982,1.49,1.85,2.437,2.563V44.66H23.169z"/>
					<path fill="#ED4C5C" d="M32.738,49.341c0.473-0.032,0.936-0.096,1.389-0.188V44.66h-4.261v4.492
						c0.452,0.093,0.914,0.156,1.384,0.188C31.746,49.371,32.243,49.369,32.738,49.341L32.738,49.341z"/>
					<path fill="#ED4C5C" d="M42.568,39.979c0.05-0.414,0.076-0.835,0.076-1.261v-3.42h-4.258v4.681H42.568L42.568,39.979z"/>
					<path fill="#ED4C5C" d="M34.127,35.298h4.261v-4.68h-4.261V35.298z"/>
					<path fill="#ED4C5C" d="M34.127,25.937h-4.261v4.681h4.261V25.937z"/>
					<path fill="#ED4C5C" d="M42.645,30.618v-4.681h-4.257v4.681H42.645z"/>
				</g>
			</g>
			<path fill="#428BC1" d="M23.896,17.426l-0.004,0.005l-3.307-1.224l-1.85,2.988l0.709,1.611l1.796,4.077
				c1.34-0.593,2.738-1.079,4.183-1.447L23.896,17.426L23.896,17.426z"/>
			<path fill="#FFFFFF" d="M23.707,20.38c0.118,0.225,0.186,0.48,0.186,0.75c0,0.891-0.726,1.617-1.616,1.617
				c-0.785,0-1.441-0.564-1.586-1.308c0.278,0.494,0.809,0.828,1.414,0.828c0.895,0,1.624-0.729,1.624-1.625
				C23.728,20.553,23.721,20.466,23.707,20.38L23.707,20.38z"/>
			<polygon fill="#FFE62E" points="22.225,18.144 22.22,18.17 22.107,18.75 22.552,19.14 22.573,19.157 22.546,19.166 
				21.988,19.359 21.874,19.939 21.868,19.966 21.848,19.948 21.402,19.56 20.843,19.75 20.817,19.759 20.822,19.733 20.935,19.153 
				20.49,18.764 20.47,18.746 20.495,18.737 21.054,18.545 21.168,17.965 21.174,17.938 21.194,17.956 21.64,18.344 22.199,18.153 
							"/>
			<g>
				<path fill="#2A5F9E" d="M29.278,16.526l-0.005,0.005l-3.06-1.753l-2.317,2.648l1.526,6.01c1.415-0.36,2.875-0.606,4.368-0.729
					L29.278,16.526L29.278,16.526z"/>
				<g>
					<path fill="#ED4C5C" d="M25.043,21.944c1.497-0.381,3.04-0.642,4.621-0.771l-0.13-1.562c-1.667,0.137-3.297,0.412-4.876,0.814
						L25.043,21.944L25.043,21.944z"/>
					<path fill="#ED4C5C" d="M24.277,18.924c1.661-0.423,3.375-0.712,5.129-0.857l-0.127-1.533c-1.839,0.152-3.638,0.455-5.38,0.898
						L24.277,18.924z"/>
				</g>
			</g>
			<g>
				<path fill="#FFE62E" d="M31.995,19.307c-0.164-0.018-0.514,0.745-0.893,0.192c0,0,0.327,0.436,0.287,0.577
					c0.026,0.013-0.32-0.097-0.321-0.053c-0.011,2.066,1.886,2.05,1.878-0.004c0-0.039-0.338,0.067-0.314,0.056
					c-0.039-0.129,0.294-0.595,0.283-0.577C32.54,20.046,32.256,19.35,31.995,19.307C31.989,19.306,31.995,19.307,31.995,19.307z"/>
				<g>
					<path fill="#FFE62E" d="M33.24,16.388c-0.164-0.018-0.514,0.745-0.892,0.192c0,0,0.326,0.436,0.286,0.577
						c0.026,0.013-0.32-0.097-0.32-0.053c-0.012,2.066,1.885,2.05,1.877-0.004c0-0.039-0.339,0.067-0.314,0.056
						c-0.037-0.129,0.296-0.595,0.284-0.577C33.785,17.128,33.501,16.432,33.24,16.388C33.234,16.388,33.24,16.388,33.24,16.388z"/>
					<path fill="#FFE62E" d="M30.749,16.388c-0.164-0.018-0.514,0.745-0.892,0.192c0,0,0.326,0.436,0.286,0.577
						c0.026,0.013-0.32-0.097-0.32-0.053c-0.012,2.066,1.885,2.05,1.878-0.004c-0.001-0.039-0.339,0.067-0.314,0.056
						c-0.038-0.129,0.295-0.595,0.284-0.577C31.293,17.128,31.009,16.432,30.749,16.388C30.743,16.388,30.749,16.388,30.749,16.388z
						"/>
				</g>
			</g>
			<path fill="#2A5F9E" d="M40.115,17.429l-0.006,0.002l-2.322-2.653l-3.053,1.75l-0.514,6.18c1.492,0.124,2.953,0.37,4.367,0.731
				L40.115,17.429L40.115,17.429z"/>
			<path fill="#FFE62E" d="M35.336,17.809c0.109-0.033,0.213-0.023,0.313,0.032c0.182,0.076,0.174,0.002,0.349-0.099
				c0.237-0.139,0.785-0.224,1.438,0.108c0.108,0.055,0.727,0.115,0.727,0.115s-0.501,0.23-1.01-0.027
				c0.178,0.121,0.318,0.287,0.5,0.402c0.074,0.046,0.84,0.198,0.84,0.198s-0.602,0.281-0.963-0.02
				c-0.315-0.263-0.646-0.594-1.113-0.451c0.043,0.009,0.328,0.141,0.334,0.129c-0.063,0.124-0.383,0.245-0.473,0.128
				c-0.045,0.293,0.955,1.259,2.229,1.031c0.537-0.208,0.223,0.159,0.102,0.369c-0.055,0.095-0.518,2.348-1.561,1.81
				c-0.006,0.04,0.572-0.229,0.624-0.606c-0.005-0.006-0.183-0.224-0.181-0.214c-0.377,0.009-0.7,1.214-1.164,0.599
				c-0.025-0.034,0.603-0.28,0.542-0.773c-0.068,0.042-0.356,0.037-0.447,0.001c-0.253,0.099-0.187,1.158-0.824,0.861
				c0.021,0.037,0.673-0.965,0.299-1.018c-0.069,0.173-0.265,0.418-0.268,0.596c0.173,0.178-0.456,0.226-0.429,0.01
				c0.006-0.056,0.49-0.592,0.355-1.143c-0.179-0.135,0.018-1.014,0.119-1.201c-0.602,0.014-0.242-0.198-0.134-0.555
				C35.422,18.011,35.334,17.961,35.336,17.809C35.443,17.784,35.336,17.809,35.336,17.809z"/>
			<path fill="#428BC1" d="M42.757,24.881l2.509-5.686l-1.851-2.987l-3.3,1.222l-1.527,6.009
				C40.027,23.805,41.42,24.29,42.757,24.881L42.757,24.881z"/>
			<path fill="#FFFFFF" d="M39.559,19.622c1.652,0.422,3.253,0.979,4.787,1.658l-0.967,2.194c-1.414-0.625-2.889-1.138-4.412-1.526
				L39.559,19.622z"/>
			<path fill="#ED4C5C" d="M43.533,23.121l0.647-1.466c-1.515-0.67-3.093-1.218-4.724-1.635l-0.381,1.5
				c1.547,0.395,3.045,0.916,4.48,1.55L43.533,23.121z"/>
			<path fill="#FFE62E" d="M42.02,17.408l0.006,0.026l0.111,0.585l-0.449,0.391l-0.02,0.019l0.025,0.009l0.563,0.194l0.114,0.585
				l0.006,0.026l0.021-0.018l0.45-0.391l0.563,0.193l0.027,0.009l-0.006-0.027l-0.113-0.584l0.449-0.392l0.021-0.018l-0.027-0.01
				l-0.563-0.194l-0.113-0.584l-0.006-0.027l-0.021,0.018l-0.449,0.391l-0.564-0.194L42.02,17.408z"/>
		</g>
	</g>
</g>
</svg>
