<?xml version="1.0" encoding="utf-8"?>
<!-- Generator: Adobe Illustrator 15.0.0, SVG Export Plug-In . SVG Version: 6.00 Build 0)  -->
<!DOCTYPE svg PUBLIC "-//W3C//DTD SVG 1.1//EN" "http://www.w3.org/Graphics/SVG/1.1/DTD/svg11.dtd">
<svg version="1.1" id="Layer_1" xmlns="http://www.w3.org/2000/svg" xmlns:xlink="http://www.w3.org/1999/xlink" x="0px" y="0px"
	 width="64px" height="64px" viewBox="0 0 64 64" enable-background="new 0 0 64 64" xml:space="preserve">
<g>
	<circle fill="#F5F5F5" cx="32" cy="32.001" r="30"/>
	<path fill="#3E4347" d="M47.428,38.174L47.34,38.05c-0.282-0.393-0.388-0.539-0.669-0.539l-0.243,0.002l-0.149,0.185
		c-0.162,0.199-0.119,0.405-0.073,0.622c0.028,0.133,0.07,0.33,0.1,0.579c0.06,0.501-3.177,0.958-4.24,1.108
		c-0.744,0.105-1.465,0.209-2.068,0.328l-0.103,0.027c-0.708,0.152-1.22,0.488-1.438,0.941c-0.142,0.285-0.012,0.506,0.272,0.99
		c0.272,0.463,0.75,1.275,0.845,1.9c-0.09,0.057-0.18,0.111-0.271,0.162c-2.517,1.369-4.505,1.877-7.336,1.877
		c-2.83,0-4.818-0.508-7.335-1.877c-0.092-0.051-0.182-0.105-0.271-0.162c0.095-0.625,0.574-1.439,0.847-1.904
		c0.282-0.48,0.411-0.699,0.273-0.984c-0.22-0.455-0.732-0.789-1.413-0.938l-0.131-0.033c-0.604-0.119-1.324-0.223-2.068-0.328
		c-1.063-0.15-4.3-0.607-4.24-1.109c0.029-0.248,0.071-0.445,0.1-0.578c0.045-0.218,0.089-0.424-0.073-0.622l-0.155-0.187h-0.238
		c-0.28,0-0.386,0.146-0.667,0.538l-0.088,0.123c-0.264,0.363-0.353,0.718-0.265,1.054c0.03,0.117,0.129,0.338,0.267,0.629
		c0.149,0.314,0.347,0.73,0.522,1.197c0.245,0.65,0.389,1.232,0.414,1.688c0.042,0.744,0.881,1.006,1.382,1.16
		c0.432,0.135,0.99,0.166,1.486,0.182c-0.016,0.367-0.079,0.75-0.197,1.207c-0.091,0.348-0.019,0.758,0.188,1.068
		c0.218,0.334,0.546,0.541,0.835,0.723l0.105,0.066c3.321,2.129,7.13,3.301,10.724,3.301c3.598,0,7.406-1.172,10.725-3.301
		l0.108-0.068c0.288-0.182,0.614-0.387,0.834-0.719c0.207-0.32,0.276-0.719,0.186-1.07c-0.118-0.457-0.183-0.84-0.198-1.207
		c0.497-0.016,1.056-0.047,1.486-0.182c0.501-0.154,1.34-0.416,1.383-1.16c0.025-0.455,0.168-1.039,0.413-1.688
		c0.176-0.465,0.373-0.879,0.521-1.193c0.14-0.293,0.238-0.516,0.268-0.631C47.779,38.89,47.69,38.535,47.428,38.174z"/>
	<path fill="#FFFFFF" d="M47.022,38.466c-0.563-0.781-0.324-0.494-0.222,0.373c0.155,1.305-4.257,1.502-6.708,1.986L40,40.851
		c-0.521,0.113-0.939,0.35-1.097,0.674c-0.069,0.139-0.039,0.324,0.035,0.467l-0.05-0.02c0.452,0.791,1.244,1.342,1.198,2.49
		c-0.182,0.113-0.36,0.232-0.548,0.334c-2.702,1.469-4.768,1.938-7.574,1.938c-2.805,0-4.871-0.469-7.572-1.938
		c-0.188-0.102-0.367-0.221-0.549-0.334c-0.046-1.148,0.746-1.699,1.198-2.49l-0.05,0.02c0.074-0.143,0.104-0.328,0.037-0.467
		c-0.157-0.324-0.578-0.561-1.099-0.674l-0.093-0.025c-2.451-0.484-6.863-0.682-6.708-1.986c0.103-0.867,0.341-1.154-0.222-0.373
		c-0.145,0.199-0.242,0.418-0.185,0.635c0.06,0.232,0.451,0.92,0.772,1.775c0.227,0.6,0.413,1.26,0.445,1.836
		c0.019,0.32,0.39,0.512,1.031,0.711c0.509,0.158,1.298,0.154,1.832,0.17c0.033,0.521-0.013,1.068-0.208,1.822
		c-0.057,0.219-0.002,0.48,0.123,0.668c0.181,0.277,0.505,0.457,0.791,0.641c3.32,2.129,7.052,3.223,10.454,3.223
		c3.403,0,7.135-1.092,10.455-3.223c0.286-0.184,0.611-0.363,0.793-0.639c0.123-0.189,0.178-0.449,0.121-0.67
		c-0.196-0.754-0.241-1.301-0.208-1.822c0.534-0.016,1.323-0.012,1.832-0.17c0.642-0.199,1.013-0.391,1.031-0.711
		c0.032-0.576,0.218-1.236,0.444-1.836c0.323-0.855,0.714-1.543,0.773-1.775C47.265,38.884,47.167,38.665,47.022,38.466z"/>
	<path fill="#2A5F9E" d="M40.487,21.782H23.509c-0.046,2.884-0.043,5.77,0,8.655c0.04,2.779,0.177,4.948,1.4,6.645
		c1.474,2.043,3.93,3.517,7.089,4.965c3.159-1.448,5.615-2.922,7.088-4.965c1.224-1.696,1.36-3.865,1.401-6.645
		C40.53,27.552,40.532,24.666,40.487,21.782z"/>
	<path fill="#ED4C5C" d="M40.251,34.044c0.006-0.721,0.155-1.063,0.155-1.785c0.075-1.447,0.104-2.885,0.081-4.327H23.509
		c-0.023,1.442,0.005,2.868,0.081,4.327c0,0.722,0.153,1.064,0.159,1.785H40.251z"/>
	<path fill="#FFCE31" d="M21.593,17.275l1.916,4.507c5.2-1.556,11.592-1.55,16.979,0l1.951-4.604l0.554,0.183l0.703-1.611
		l-1.296-0.37l-0.303,0.772l-0.626-0.171l0.273-0.771l-1.313-0.297l-0.24,0.782l-0.622-0.123l0.204-0.794l-1.317-0.229l-0.183,0.792
		l-0.862-0.128l-0.08,0.4L37,15.565l0.063-0.399l-0.666-0.072l-0.061,0.391l-0.334-0.032l0.054-0.402l-0.663-0.061l-0.056,0.401
		l-0.646-0.045l0.121-1.215l-1.334-0.059l-0.049,0.802l-0.649-0.013l0.021-0.806h-1.343l0.012,0.796l-0.639,0.01l-0.043-0.789
		l-1.34,0.068l0.118,1.199l-0.646,0.049l-0.055-0.405l-0.665,0.061l0.049,0.405l-0.326,0.033l-0.069-0.401l-0.667,0.087l0.066,0.395
		l-0.324,0.042l-0.076-0.397L25.98,15.33l-0.18-0.786l-1.319,0.23l0.224,0.78l-0.647,0.124l-0.234-0.771l-1.314,0.303l0.268,0.741
		l-0.624,0.185l-0.293-0.756l-1.291,0.381l0.703,1.611L21.593,17.275z"/>
	<polygon fill="#FFFFFF" points="32.097,30.88 32.937,28.817 32.02,29.429 31.104,28.817 31.943,30.88 29.882,30.04 30.493,30.956 
		29.882,31.873 31.943,31.032 31.104,33.095 32.02,32.483 32.937,33.095 32.097,31.032 34.158,31.873 33.547,30.956 34.158,30.04 	
		"/>
	<path fill="#3E4347" d="M23.827,31.913l-0.021-0.486h-0.369l0.001-0.21c0.083-1.922-1.255-3.063-2.549-4.167
		c-0.326-0.277-0.657-0.56-0.975-0.859c0.997,0.654,2.029,1.41,2.434,1.741l-0.093,0.363l0.495,0.288h0.143
		c0.44,0,0.667-0.439,0.744-0.627l0.055-0.135l-0.025-0.142c-0.148-0.842-1.718-2.528-3.102-3.876
		c0.018-0.455-0.096-0.823-0.341-1.097c-0.159-0.179-0.367-0.307-0.612-0.38c0.196-0.221,0.412-0.4,0.56-0.522
		c0.207-0.172,0.371-0.308,0.364-0.649c-0.102-0.622-0.784-0.782-1.49-0.342l-0.202-0.119c-0.396-0.198-0.858-0.059-1.287,0.448
		h-0.125c-0.153,0-0.384,0.047-0.605,0.269c-0.176,0.177-0.313,0.436-0.416,0.721l-0.105,0.021
		c-0.436,0.084-0.901,0.444-0.903,1.592l-0.017,0.014c-0.325-0.487-0.494-0.937-0.601-1.22c-0.108-0.29-0.221-0.589-0.634-0.622
		c-0.209,0-0.401,0.097-0.527,0.265c-0.056,0.075-0.139,0.186-0.164,0.452l-0.138,0.003l-0.136,0.106
		c-0.231,0.181-0.369,0.436-0.4,0.74l-0.109-0.01l-0.41,0.114l-0.08,0.217c-0.129,0.347-0.101,0.711,0.005,1.059l-0.308,0.015
		l-0.146,0.242c-0.091,0.151-0.179,0.296,0.124,1.021l-0.274,0.104c-0.192,0.147-0.301,0.362-0.303,0.605
		c-0.002,0.232,0.105,0.484,0.269,0.73l-0.044,0.061c-0.128,0.174-0.174,0.391-0.131,0.611c0.042,0.213,0.177,0.432,0.356,0.639
		c-0.105,0.178-0.133,0.383-0.076,0.588c0.167,0.615,1.228,1.169,2.156,1.545c-0.521,0.607-0.833,1.252-0.759,1.635l0.091,0.338
		l0.277,0.092l0.192,0.031c0.098,0,0.194-0.021,0.295-0.063c-0.022,0.191-0.013,0.365,0.039,0.512
		c0.083,0.236,0.266,0.402,0.501,0.451l0.106,0.012c0.355,0,0.539-0.283,0.815-0.713l0.01-0.016l0.02,0.199
		c-0.334,0.403-1.055,1.283-1.284,1.646c-0.255,0.308-0.199,0.568-0.141,0.701l0.005,0.012c-0.312,0.304-0.649,0.611-0.848,0.738
		c-0.354,0.243-0.311,0.535-0.274,0.65l0.194,0.377h0.099l0.018,0.045l0.052,0.121l0.105,0.081c0.264,0.2,0.682,0.159,1.047-0.005
		l0.032,0.021l0.118,0.07h0.138c0.192,0,0.417-0.09,0.637-0.215l0.321,0.107l0.2-0.126c0.185-0.116,0.865-0.67,1.4-1.11
		c0.149,0.383,0.264,0.855,0.314,1.154l0.075,0.436l0.038-0.002c-0.015,1.311-0.028,1.557-0.025,1.562l-0.049,0.263l0.19,0.186
		c0.712,0.697,0.995,1.092,1.201,1.379c0.116,0.16,0.212,0.293,0.33,0.418l0.424,0.457l0.354-0.512
		c0.095-0.137,0.203-0.197,0.352-0.197l0.136,0.016h-0.001l0.534,0.199l0.128-0.555c0.067-0.291,0.456-0.65,0.634-0.779l1.102-0.795
		l-1.354-0.109c-0.799-0.064-2.093-0.438-2.436-0.609c-0.041-0.116-0.101-0.434,0.024-1.176c0.187-0.18,0.727-0.711,1.363-1.432
		c0.304,0.078,0.585,0.208,0.853,0.395l0.145,0.07c0.189,0.057,0.376,0.055,0.561,0.023l0.166-0.029l0.114-0.123l0.178-0.201
		c0.135-0.158,0.547-0.641,0.688-0.675l0.584,0.136l0.029-0.598C23.909,34.792,23.83,32.03,23.827,31.913z M22.438,34.047
		c-0.121,0.661-0.308,1.26-0.498,1.346c-0.001-0.001-0.097-0.019-0.28-0.22C21.955,34.781,22.215,34.405,22.438,34.047z"/>
	<path fill="#FFCE31" d="M18.944,36.962l-0.785,0.476c-0.021,2.499-0.044,2.587-0.044,2.587c1.095,1.072,1.225,1.467,1.548,1.814
		c0.42-0.609,1.072-0.365,1.072-0.365c0.133-0.575,0.829-1.072,0.829-1.072c-0.972-0.078-2.653-0.576-2.785-0.775
		C18.338,38.966,18.944,36.962,18.944,36.962z"/>
	<path fill="#FFCE31" d="M23.054,32.485c0.117,0.813-0.352,5.754-2.275,2.485l-1.82,1.28c0,0,1.352-0.551,2.738,0.421
		c0.131,0.039,0.229,0.027,0.333,0.009c0.269-0.286,0.876-1.131,1.345-1.021c0.035-0.713-0.047-3.564-0.047-3.564
		C23.124,32.087,23.054,32.485,23.054,32.485z"/>
	<path fill="#FFCE31" d="M22.905,27.94l-0.074,0.291c0.177,0.109,0.344-0.298,0.344-0.298c-0.177-1.006-3.409-4.037-3.409-4.037
		l-1.423,0.299l-0.125,0.626C19.379,25.242,22.827,27.741,22.905,27.94z"/>
	<path fill="#FFFFFF" d="M18.627,25.702c0,0-0.473-1.407,0.398-0.786c0.703-0.109,0.642-0.807,0.642-0.807h0.387
		c0.162-1.419-1.163-1.185-1.31-1.155c0.319-0.885,1.299-1.459,1.299-1.55c-0.109-0.67-1.367,0.425-1.969,1.067
		c0.2-0.664,0.589-1.14,0.546-1.162c-0.4-0.2-0.89,0.541-1.197,1.125c0.021-0.354,0.037-0.625,0.009-0.625
		c-0.51,0-0.811,1.421-0.807,2.084c-0.12-0.534-0.177-0.994-0.226-1.083c-0.623,0.121-0.515,1.347-0.435,1.892
		c-0.189-0.195-0.332-0.328-0.332-0.328c-0.08,0.072-0.06,0.359-0.047,0.583c-1.121-1.129-1.29-2.362-1.418-2.374
		c-0.47-0.039-0.057,1.506,0.124,2.113c-0.565-0.756-0.715-1.459-0.799-1.394c-0.841,0.658,1.019,2.831,1.444,3.232
		c-1.981-1.184-2.05-2.477-2.283-2.392c-0.482,1.305,2.529,3.568-0.377,1.426c-0.477-0.351,0.608,1.702,0.608,1.702
		c0.482,0.449-0.737-0.533-0.996-0.463c-0.545,0.415,1.205,1.792,1.205,1.792c0.164,0.246-0.959-0.551-1.183-0.498
		c-0.366,0.498,1.404,1.581,1.404,1.581c0.763,0.438-1.075-0.533-1.117-0.421c-0.567,0.666,2.516,1.73,2.516,1.73
		c-0.974,0.84-1.291,1.733-1.133,1.787c0.233,0.078,1.079-0.764,1.544-1.016c-0.629,0.773-0.938,1.854-0.57,1.934
		c0.229,0.01,0.849-1.596,1.749-1.856c-0.289,0.626-0.551,1.427-0.357,1.954c0,0-1.199,1.431-1.424,1.815
		c-0.332,0.366,0.313,0.263,0.313,0.263s-0.954,1.009-1.419,1.305c-0.391,0.268,0.744,0.002,0.971-0.137
		c-0.219,0.139-0.795,0.512-0.758,0.602c0.272,0.207,1.063-0.375,1.063-0.375s-0.188,0.266-0.031,0.359
		c0.266,0,0.876-0.484,0.876-0.484s-0.124,0.281,0.016,0.328c0.242-0.152,1.681-1.348,1.819-1.464
		c0.44,0.575,0.655,1.847,0.655,1.847l0.753-0.035c0,0,4.244-3.994,4.157-6.457C23.049,28.813,20.308,27.847,18.627,25.702z
		 M19.271,28.536c0.162,0.354,0.175,0.818,0.143,1.226c-0.214-0.007-0.626-0.01-1.107,0.041c-0.03-0.51-0.08-1.638,0.006-2.331
		C18.807,28.108,19.271,28.536,19.271,28.536z M17.125,32.146c-0.03,0.232-0.042,0.424-0.036,0.575l-0.562,0.528
		C16.717,32.769,16.934,32.243,17.125,32.146z"/>
	<path fill="#3E4347" d="M40.127,35.517l0.029,0.598l0.584-0.137c0.141,0.035,0.553,0.518,0.688,0.676l0.178,0.201l0.114,0.123
		l0.166,0.029c0.185,0.031,0.371,0.033,0.561-0.023l0.145-0.07c0.268-0.188,0.549-0.316,0.853-0.395
		c0.637,0.721,1.177,1.252,1.363,1.432c0.125,0.742,0.065,1.059,0.024,1.176c-0.343,0.172-1.637,0.545-2.436,0.609l-1.354,0.107
		l1.102,0.797c0.178,0.127,0.566,0.486,0.634,0.777l0.128,0.557l0.534-0.199h-0.001l0.136-0.018c0.148,0,0.257,0.061,0.352,0.197
		l0.354,0.514l0.424-0.457c0.118-0.127,0.214-0.258,0.33-0.42c0.206-0.287,0.489-0.68,1.201-1.377l0.19-0.188l-0.049-0.262
		c0.003-0.004-0.011-0.25-0.025-1.561l0.038,0.002l0.075-0.436c0.051-0.299,0.165-0.771,0.314-1.154
		c0.535,0.439,1.216,0.994,1.4,1.109l0.2,0.127l0.321-0.107c0.22,0.125,0.444,0.215,0.637,0.215h0.138l0.118-0.07l0.032-0.021
		c0.365,0.164,0.783,0.205,1.047,0.004l0.105-0.08l0.052-0.121l0.018-0.045h0.099l0.194-0.377c0.036-0.115,0.08-0.408-0.274-0.65
		c-0.198-0.127-0.536-0.436-0.848-0.738l0.005-0.012c0.059-0.133,0.114-0.395-0.141-0.701c-0.229-0.363-0.95-1.244-1.284-1.646
		l0.02-0.199l0.01,0.016c0.276,0.43,0.46,0.713,0.815,0.713l0.106-0.012c0.235-0.049,0.418-0.215,0.501-0.451
		c0.052-0.146,0.062-0.32,0.039-0.512c0.101,0.041,0.197,0.063,0.295,0.063l0.192-0.031l0.277-0.092l0.091-0.338
		c0.074-0.383-0.238-1.027-0.759-1.635c0.929-0.377,1.989-0.93,2.156-1.545c0.057-0.205,0.029-0.41-0.076-0.588
		c0.18-0.207,0.314-0.426,0.356-0.639c0.043-0.221-0.003-0.438-0.131-0.611l-0.044-0.061c0.163-0.246,0.271-0.498,0.269-0.73
		c-0.002-0.244-0.11-0.459-0.303-0.605l-0.274-0.104c0.303-0.726,0.215-0.87,0.124-1.021l-0.146-0.241l-0.308-0.016
		c0.105-0.348,0.134-0.712,0.005-1.059l-0.08-0.217l-0.41-0.114l-0.109,0.01c-0.031-0.305-0.169-0.559-0.4-0.74l-0.136-0.105
		l-0.138-0.003c-0.025-0.267-0.108-0.377-0.164-0.452c-0.126-0.168-0.318-0.265-0.527-0.265c-0.413,0.033-0.525,0.332-0.634,0.622
		c-0.106,0.283-0.275,0.733-0.601,1.22l-0.017-0.014c-0.002-1.148-0.468-1.508-0.903-1.592l-0.105-0.021
		c-0.104-0.285-0.24-0.544-0.416-0.721c-0.222-0.223-0.452-0.27-0.605-0.27h-0.125c-0.429-0.507-0.891-0.646-1.287-0.447
		l-0.202,0.118c-0.706-0.439-1.389-0.279-1.49,0.343c-0.007,0.341,0.157,0.477,0.364,0.648c0.147,0.122,0.363,0.302,0.56,0.522
		c-0.245,0.073-0.453,0.201-0.612,0.38c-0.245,0.273-0.358,0.643-0.341,1.097c-1.384,1.348-2.953,3.034-3.102,3.875l-0.025,0.143
		l0.055,0.135c0.077,0.188,0.304,0.627,0.744,0.627h0.143l0.495-0.289l-0.093-0.363c0.404-0.33,1.437-1.085,2.434-1.74
		c-0.317,0.299-0.648,0.581-0.975,0.859c-1.294,1.104-2.632,2.244-2.549,4.166l0.001,0.211h-0.369l-0.021,0.486
		C40.17,32.03,40.091,34.792,40.127,35.517z M42.341,35.173c-0.184,0.201-0.279,0.219-0.28,0.219
		c-0.19-0.086-0.377-0.684-0.498-1.346C41.785,34.405,42.045,34.78,42.341,35.173z"/>
	<path fill="#FFCE31" d="M45.056,36.962l0.785,0.475c0.021,2.5,0.044,2.588,0.044,2.588c-1.095,1.072-1.225,1.465-1.548,1.813
		c-0.42-0.607-1.072-0.365-1.072-0.365c-0.133-0.574-0.829-1.072-0.829-1.072c0.972-0.078,2.653-0.574,2.785-0.773
		C45.662,38.966,45.056,36.962,45.056,36.962z"/>
	<path fill="#FFCE31" d="M40.946,32.485c-0.117,0.813,0.352,5.754,2.275,2.484l1.82,1.281c0,0-1.352-0.551-2.738,0.42
		c-0.131,0.039-0.229,0.027-0.333,0.01c-0.269-0.287-0.876-1.131-1.345-1.021c-0.035-0.713,0.047-3.564,0.047-3.564
		C40.876,32.087,40.946,32.485,40.946,32.485z"/>
	<path fill="#FFCE31" d="M41.095,27.94l0.074,0.291c-0.177,0.109-0.344-0.299-0.344-0.299c0.177-1.005,3.409-4.037,3.409-4.037
		l1.423,0.3l0.125,0.626C44.621,25.242,41.173,27.741,41.095,27.94z"/>
	<path fill="#FFFFFF" d="M41.061,31.362c-0.087,2.463,4.157,6.457,4.157,6.457l0.753,0.035c0,0,0.215-1.271,0.655-1.848
		c0.139,0.117,1.577,1.313,1.819,1.465c0.14-0.047,0.016-0.328,0.016-0.328s0.61,0.484,0.876,0.484
		c0.157-0.094-0.031-0.359-0.031-0.359s0.791,0.582,1.063,0.375c0.037-0.09-0.539-0.463-0.758-0.602
		c0.227,0.139,1.361,0.404,0.971,0.137c-0.465-0.297-1.419-1.305-1.419-1.305s0.646,0.104,0.313-0.264
		c-0.225-0.385-1.424-1.814-1.424-1.814c0.193-0.527-0.068-1.328-0.357-1.955c0.9,0.262,1.52,1.867,1.749,1.857
		c0.368-0.08,0.059-1.16-0.57-1.934c0.465,0.252,1.311,1.094,1.544,1.016c0.158-0.055-0.159-0.947-1.133-1.787
		c0,0,3.083-1.064,2.516-1.73c-0.042-0.113-1.88,0.859-1.117,0.42c0,0,1.771-1.082,1.404-1.58c-0.224-0.053-1.347,0.744-1.183,0.498
		c0,0,1.75-1.377,1.205-1.792c-0.259-0.07-1.479,0.913-0.996,0.463c0,0,1.085-2.053,0.608-1.703
		c-2.906,2.142,0.105-0.121-0.377-1.426c-0.233-0.086-0.302,1.208-2.283,2.392c0.426-0.401,2.285-2.574,1.444-3.232
		c-0.084-0.064-0.233,0.639-0.799,1.395c0.181-0.607,0.594-2.152,0.124-2.113c-0.128,0.011-0.297,1.244-1.418,2.373
		c0.013-0.224,0.033-0.511-0.047-0.583c0,0-0.143,0.133-0.332,0.328c0.08-0.545,0.188-1.771-0.435-1.892
		c-0.049,0.089-0.105,0.549-0.226,1.083c0.004-0.663-0.297-2.084-0.807-2.084c-0.028,0-0.012,0.271,0.009,0.624
		c-0.308-0.584-0.797-1.325-1.197-1.125c-0.043,0.021,0.346,0.498,0.546,1.162c-0.602-0.642-1.859-1.737-1.969-1.067
		c0,0.091,0.979,0.665,1.299,1.55c-0.146-0.029-1.472-0.264-1.31,1.155h0.387c0,0-0.062,0.698,0.642,0.808
		c0.871-0.622,0.398,0.785,0.398,0.785C43.692,27.847,40.951,28.813,41.061,31.362z M45.688,27.472
		c0.086,0.693,0.036,1.82,0.006,2.33c-0.481-0.051-0.894-0.047-1.107-0.041c-0.032-0.406-0.02-0.871,0.143-1.225
		C44.729,28.536,45.193,28.108,45.688,27.472z M47.473,33.249l-0.562-0.529c0.006-0.15-0.006-0.342-0.036-0.574
		C47.066,32.243,47.283,32.769,47.473,33.249z"/>
	<polyline fill="#FFCE31" points="37.578,22.577 36.347,25.749 37.183,26.037 36.793,27.136 38.369,27.136 37.974,26.037 
		38.815,25.749 37.578,22.577 	"/>
	<polyline fill="#FFCE31" points="26.454,22.577 25.223,25.749 26.059,26.037 25.669,27.136 27.245,27.136 26.85,26.037 
		27.691,25.749 26.454,22.577 	"/>
	<polyline fill="#FFCE31" points="32.017,22.577 30.785,25.749 31.621,26.037 31.231,27.136 32.808,27.136 32.412,26.037 
		33.254,25.749 32.017,22.577 	"/>
	<polygon fill="#FFCE31" points="30.871,37.298 26.871,37.298 26.871,34.298 28.109,35.753 28.871,34.298 29.633,35.753 
		30.871,34.298 	"/>
	<polygon fill="#FFCE31" points="37.16,37.298 33.16,37.298 33.16,34.298 34.398,35.753 35.16,34.298 35.922,35.753 37.16,34.298 	
		"/>
	<polygon fill="#FFCE31" points="34.016,40.813 30.016,40.813 30.016,37.813 31.254,39.267 32.016,37.813 32.777,39.267 
		34.016,37.813 	"/>
</g>
</svg>
