<?xml version="1.0" encoding="utf-8"?>
<!-- Generator: Adobe Illustrator 15.0.0, SVG Export Plug-In . SVG Version: 6.00 Build 0)  -->
<!DOCTYPE svg PUBLIC "-//W3C//DTD SVG 1.1//EN" "http://www.w3.org/Graphics/SVG/1.1/DTD/svg11.dtd">
<svg version="1.1" id="Layer_1" xmlns="http://www.w3.org/2000/svg" xmlns:xlink="http://www.w3.org/1999/xlink" x="0px" y="0px"
	 width="64px" height="64px" viewBox="0 0 64 64" enable-background="new 0 0 64 64" xml:space="preserve">
<g>
	<g>
		<path fill="#FFCE31" d="M62,32c0-13.061-8.35-24.167-20-28.286v56.573C53.65,56.168,62,45.061,62,32z"/>
		<path fill="#83BF4F" d="M2,32c0,13.061,8.35,24.168,20,28.287V3.714C10.35,7.833,2,18.939,2,32z"/>
		<path fill="#C94747" d="M42,3.714C38.871,2.607,35.508,2,32,2s-6.871,0.607-10,1.714v56.573C25.129,61.393,28.492,62,32,62
			s6.871-0.607,10-1.713V3.714z"/>
	</g>
	<polygon fill="#FFCE31" points="32,36.246 37.254,40 35.267,33.895 40.5,30.11 34.021,30.092 32,24 29.978,30.092 23.5,30.11 
		28.73,33.895 26.746,40 	"/>
</g>
</svg>
