<?xml version="1.0" encoding="utf-8"?>
<!-- Generator: Adobe Illustrator 15.0.0, SVG Export Plug-In . SVG Version: 6.00 Build 0)  -->
<!DOCTYPE svg PUBLIC "-//W3C//DTD SVG 1.1//EN" "http://www.w3.org/Graphics/SVG/1.1/DTD/svg11.dtd">
<svg version="1.1" id="Layer_1" xmlns="http://www.w3.org/2000/svg" xmlns:xlink="http://www.w3.org/1999/xlink" x="0px" y="0px"
	 width="64px" height="64px" viewBox="0 0 64 64" enable-background="new 0 0 64 64" xml:space="preserve">
<g>
	<path fill="#2A5F9E" d="M32,2v10H12v20H2c0,16.568,13.432,30,30,30s30-13.432,30-30S48.568,2,32,2z"/>
	<path fill="#FFFFFF" d="M14,8C6.714,13.473,2,22.186,2,32h12V8z"/>
	<path fill="#FFFFFF" d="M8,14h24V2C22.186,2,13.473,6.714,8,14z"/>
	<path fill="#FFFFFF" d="M9.831,11.789L26,32h6v-7.5L17.15,5.938C14.413,7.5,11.941,9.476,9.831,11.789z"/>
	<path fill="#ED4C5C" d="M32,5H18.913C12.857,7.94,7.94,12.857,5,18.912V32h6V11h21V5z"/>
	<polygon fill="#ED4C5C" points="32,27.059 19,11 13,11 30,32 32,32 	"/>
	<polygon fill="#FFFFFF" points="8,35.715 10.226,33 9.542,36.477 13,36.568 9.923,38.189 12.009,41.019 8.855,39.563 8,43 
		7.145,39.563 3.991,41.019 6.077,38.189 3,36.568 6.458,36.477 5.774,33 	"/>
	<polygon fill="#FFFFFF" points="52,20.172 53.781,18 53.234,20.781 56,20.855 53.538,22.152 55.207,24.415 52.684,23.25 52,26 
		51.316,23.25 48.793,24.415 50.461,22.152 48,20.855 50.766,20.781 50.219,18 	"/>
	<polygon fill="#FFFFFF" points="52,40.172 53.781,38 53.234,40.781 56,40.855 53.538,42.152 55.207,44.415 52.684,43.25 52,46 
		51.316,43.25 48.793,44.415 50.461,42.152 48,40.855 50.766,40.781 50.219,38 	"/>
	<polygon fill="#FFFFFF" points="42,26.172 43.781,24 43.234,26.781 46,26.855 43.538,28.152 45.207,30.415 42.684,29.25 42,32 
		41.316,29.25 38.793,30.415 40.461,28.152 38,26.855 40.766,26.781 40.219,24 	"/>
</g>
</svg>
