<?xml version="1.0" encoding="utf-8"?>
<!-- Generator: Adobe Illustrator 15.0.0, SVG Export Plug-In . SVG Version: 6.00 Build 0)  -->
<!DOCTYPE svg PUBLIC "-//W3C//DTD SVG 1.1//EN" "http://www.w3.org/Graphics/SVG/1.1/DTD/svg11.dtd">
<svg version="1.1" id="Layer_1" xmlns="http://www.w3.org/2000/svg" xmlns:xlink="http://www.w3.org/1999/xlink" x="0px" y="0px"
	 width="64px" height="64px" viewBox="0 0 64 64" enable-background="new 0 0 64 64" xml:space="preserve">
<g>
	<g>
		<g>
			<g>
				<rect x="11.105" y="11.301" fill="#2A5F9E" width="21.262" height="21.425"/>
				<polygon fill="#FFFFFF" points="18.648,8.153 18.648,14.014 11.336,14.014 25.736,32.014 31.736,32.014 31.736,24.514 				"/>
				<path fill="#2A5F9E" d="M31.736,2.014v30h-30c0,16.568,13.432,30,30,30s30-13.432,30-30S48.305,2.014,31.736,2.014z"/>
				<path fill="#FFFFFF" d="M10.736,18.926H4.747c-1.923,3.957-3.011,8.394-3.011,13.088h12V13.926h-3V18.926z"/>
				<polygon fill="#ED4C5C" points="31.736,27.072 18.736,11.014 12.736,11.014 29.736,32.014 31.736,32.014 				"/>
				<path fill="#FFFFFF" d="M18.648,5.025v5.988h-7.912v3h21v-12C27.042,2.014,22.604,3.102,18.648,5.025z"/>
				<path fill="#ED4C5C" d="M31.736,5.014H18.648c-6.055,2.94-10.972,7.857-13.912,13.912v13.088h6v-21h21V5.014z"/>
			</g>
		</g>
	</g>
	<g>
		<g>
			<g>
				<g>
					<path fill="#89664C" d="M38.77,35.619c0-0.082-0.949-0.322-1.389-0.24c-0.438,0.083-1.245,2.229-1.282,2.27
						c-0.035,0.042,0.771,1.033,0.807,0.99c0.037-0.04,0.549-0.783,1.098-0.865c0.254-0.039,0.531,0.188,0.756,0.442
						c-0.007,0.046-0.793,2.9-1.78,3.147c-0.165,0.041-0.337,0.033-0.513-0.006c-0.054-0.145-0.073-1.645-0.073-1.645
						s-0.184-0.908-0.952-0.784c-0.77,0.124-0.806,0.784-0.806,1.031c0,0.248,1.486,3.322,1.831,3.427
						c0.549,0.164,2.087-0.496,3.039-1.569c0.951-1.073,1.171-4.127,1.171-4.209C40.676,37.608,38.77,35.625,38.77,35.619z"/>
					<path fill="#89664C" d="M55.147,39.96c0-0.247-0.036-0.907-0.806-1.031c-0.769-0.124-0.952,0.784-0.952,0.784
						s-0.02,1.5-0.074,1.646c-0.174,0.038-0.347,0.046-0.511,0.005c-0.988-0.247-1.773-3.102-1.781-3.147
						c0.225-0.255,0.502-0.481,0.757-0.442c0.549,0.082,1.061,0.825,1.098,0.865c0.037,0.043,0.842-0.948,0.806-0.99
						c-0.037-0.04-0.843-2.187-1.282-2.27c-0.439-0.082-1.388,0.158-1.388,0.24c0,0.006-1.907,1.989-1.907,1.989
						c0,0.082,0.22,3.136,1.172,4.209s2.49,1.733,3.039,1.569C53.662,43.282,55.147,40.208,55.147,39.96z"/>
				</g>
				<path fill="#DBB471" d="M36.315,37.16c-0.439,0.578-0.674,1.023-0.856,1.354c-0.184,0.331-0.075,0.79,0.348,1.444
					c0.456,0.707,4.204,3.469,9.085,3.469c4.882,0,8.63-2.762,9.086-3.469c0.423-0.654,0.527-1.113,0.344-1.444
					c-0.183-0.331-0.414-0.776-0.854-1.354c0,0.867-3.104,3.998-8.576,3.998C39.421,41.158,36.315,38.027,36.315,37.16z"/>
			</g>
		</g>
		<g>
			<g>
				<g>
					<path fill="#42ADE2" d="M37.173,20.52v13c0,3.866,3.455,7,7.718,7s7.718-3.134,7.718-7v-13H37.173z"/>
				</g>
			</g>
			<path fill="#FFFFFF" d="M52.608,30.02c0,0-2.895-2-3.859-2c-0.964,0-2.747,2-3.858,2s-2.895-2-3.858-2c-0.965,0-3.859,2-3.859,2
				v2c0,0,2.895-2,3.859-2c0.964,0,2.747,2,3.858,2s2.895-2,3.858-2c0.965,0,3.859,2,3.859,2V30.02z"/>
			<path fill="#FFFFFF" d="M52.521,34.52c0,0-2.829-2-3.771-2c-0.965,0-2.749,2-3.86,2s-2.895-2-3.858-2c-0.942,0-3.772,2-3.772,2
				c0.112,0.707,0.34,1.378,0.666,2c0,0,2.33-2,3.107-2c0.964,0,2.747,2,3.857,2c1.111,0,2.895-2,3.858-2c0.776,0,3.106,2,3.106,2
				C52.182,35.897,52.409,35.227,52.521,34.52z"/>
			<path fill="#FFFFFF" d="M50.081,38.688c0,0-0.998-2-1.33-2c-0.965,0-2.749,2-3.86,2c-1.11,0-2.894-2-3.857-2
				c-0.334,0-1.335,2-1.335,2c1.372,1.134,3.19,1.831,5.192,1.831S48.71,39.822,50.081,38.688z"/>
			<path fill="#FFFFFF" d="M42.686,23.395c0,1.105,0,2-2.205,2c-1.218,0-2.205-2-2.205-2s0.987-2,2.205-2
				C42.686,21.395,42.686,22.289,42.686,23.395z"/>
			<path fill="#FFFFFF" d="M49.301,26.395c0,0.553-0.494,1-1.103,1h-6.615c-0.608,0-1.103-0.447-1.103-1v-2c0-0.553,0.494-1,1.103-1
				h6.615c0.608,0,1.103,0.447,1.103,1V26.395z"/>
			<path fill="#FFFFFF" d="M41.583,27.995c0,0.221,0.493,0.399,1.103,0.399l0,0c0.608,0,1.103-0.179,1.103-0.399v-1.202
				c0-0.22-0.494-0.398-1.103-0.398l0,0c-0.609,0-1.103,0.179-1.103,0.398V27.995z"/>
			<path fill="#FFFFFF" d="M45.993,27.995c0,0.221,0.493,0.399,1.103,0.399l0,0c0.608,0,1.103-0.179,1.103-0.399v-1.202
				c0-0.22-0.494-0.398-1.103-0.398l0,0c-0.609,0-1.103,0.179-1.103,0.398V27.995z"/>
			<g>
				<path fill="#89664C" d="M50.851,35.934v-0.365l0.203-0.371c0,0-3.207,0.38-3.207,0.41c0-0.029-0.015,0.496-0.018,0.668
					c-0.098,0.08-0.222,0.176-0.367,0.279c0.014-1.168,0.072-6.132,0.072-6.187h-0.259l-0.071,6.359
					c-0.601,0.382-1.463,0.784-2.438,0.769c-0.167-0.003-0.32-0.008-0.467-0.016c0.032-1.211,0.063-7.42,0.063-7.447
					c0-0.03-0.333,0-0.333,0s-0.088,6.145-0.106,7.42c-1.197-0.111-1.66-0.406-1.996-0.658c-0.405-0.305-0.774-0.762-0.774-0.762
					l-0.024-0.008c0.026-1.01,0.026-5.505,0.026-5.505l-0.221-0.03l-0.036,5.459l-1.884-0.617l0.111,0.671l0.773,0.243
					c0,0,0.368,3.14,4.607,3.049c3.564-0.078,4.966-2.264,5.321-2.959l1.149,0.003C50.939,36.247,50.851,35.934,50.851,35.934z"/>
				<g>
					<path fill="#ED4C5C" d="M41.039,30.569c-0.11,0.061-1.954,0.427-1.695,0.396c0.258-0.031,1.732,0.305,1.695,0.213
						C41.001,31.087,41.039,30.63,41.039,30.569z"/>
					<path fill="#ED4C5C" d="M44.173,30.112c-0.073,0-1.143,0.335-1.107,0.335c0.038,0,1.217,0.274,1.181,0.213
						S44.21,30.204,44.173,30.112L44.173,30.112z"/>
					<path fill="#ED4C5C" d="M47.38,30.417c-0.073,0.03-1.327,0.274-1.105,0.305c0.221,0.03,1.069,0.274,1.069,0.213
						S47.344,30.447,47.38,30.417z"/>
				</g>
				<g>
					<path fill="#FFE62E" d="M46.277,32.223c0,0-0.369,0.335-0.259,0.792c0.111,0.457,0.259,0.854,0.295,0.854
						c0.038,0,0.443-0.609,0.886-0.641c0.442-0.03,1.253,0.336,1.253,0.336s-0.11-0.732-0.073-1.067
						c0.037-0.335,0.663-0.915,0.663-0.915L46.277,32.223L46.277,32.223z"/>
					<path fill="#FFE62E" d="M39.899,32.406c0,0-0.332,0.091-0.221,0.64c0.11,0.549,0.369,0.854,0.404,0.854
						c0.039,0,0.333-0.52,0.775-0.61c0.442-0.092,1.216,0.274,1.216,0.274s-0.072-0.487,0.037-0.945
						c0.111-0.457,0.479-0.792,0.479-0.792S40.01,32.406,39.899,32.406L39.899,32.406z"/>
					<path fill="#FFE62E" d="M43.064,31.857c0,0.061-0.367,0.549-0.257,1.006c0.109,0.457,0.33,0.884,0.369,0.884
						c0.035,0,0.589-0.487,1.068-0.579c0.479-0.091,1.179,0.305,1.142,0.305c-0.035,0-0.184-0.457-0.184-0.792
						c0-0.335,0.553-1.372,0.553-1.372L43.064,31.857L43.064,31.857z"/>
				</g>
			</g>
		</g>
	</g>
</g>
</svg>
