<?xml version="1.0" encoding="utf-8"?>
<!-- Generator: Adobe Illustrator 15.0.0, SVG Export Plug-In . SVG Version: 6.00 Build 0)  -->
<!DOCTYPE svg PUBLIC "-//W3C//DTD SVG 1.1//EN" "http://www.w3.org/Graphics/SVG/1.1/DTD/svg11.dtd">
<svg version="1.1" id="Layer_1" xmlns="http://www.w3.org/2000/svg" xmlns:xlink="http://www.w3.org/1999/xlink" x="0px" y="0px"
	 width="64px" height="64px" viewBox="0 0 64 64" enable-background="new 0 0 64 64" xml:space="preserve">
<g>
	<g>
		<path fill="#ED4C5C" d="M60.286,42H3.714C7.833,53.65,18.939,62,32,62S56.167,53.65,60.286,42z"/>
		<path fill="#F9F9F9" d="M60.286,42C61.393,38.871,62,35.508,62,32C62,15.432,48.568,2,32,2S2,15.432,2,32
			c0,3.508,0.607,6.871,1.714,10H60.286z"/>
	</g>
	<g>
		<g>
			<path fill="#ED4C5C" d="M48.524,24.502v-1.074h1.15v-2.495h-1.15v1.375h-1.926v-1.375h-1.39v-8.43h0.522V11.36h0.896V9.173
				h-1.591v1.113h-1.561V9.173h-2.383v1.113h-1.56V9.173h-1.292v2.188h0.501v1.143h0.463v8.43h-0.239v1.375h-2.166v-1.375h-0.679
				V10.279h0.753V8.763h0.92V7h-1.457v0.972h-1.643V7h-1.874v0.972h-1.643V7h-1.874v0.972h-1.643V7h-1.457v1.763h0.92v1.516h0.753
				v10.654h-0.679v1.375h-2.166v-1.375h-0.239v-8.43h0.463V11.36h0.501V9.173h-1.292v1.113h-1.56V9.173h-2.383v1.113h-1.56V9.173
				h-1.591v2.188h0.896v1.143h0.522v8.43h-1.39v1.375h-1.926v-1.375h-1.15v2.495h1.15v1.074h0.934v13.386L14.34,39.25v1.441h8.768
				v0.707h7.697h2.391h7.697v-0.707h8.768V39.25l-2.069-1.361V24.502H48.524z"/>
			<path fill="#3E4347" d="M24.279,37.883v-3.529c0-3.828-4.884-3.774-4.884,0v3.529H24.279z"/>
			<path fill="#3E4347" d="M23.412,18.619c0-2.119-3.17-2.09-3.17,0v3.689h3.163L23.412,18.619z"/>
			<path fill="#3E4347" d="M35.457,38.586v-4.863c0-4.757-6.914-4.77-6.914,0v4.863H35.457z"/>
			<path fill="#3E4347" d="M44.605,37.883v-3.529c0-3.774-4.885-3.828-4.885,0v3.529H44.605z"/>
			<path fill="#3E4347" d="M40.595,22.308h3.163v-3.689c0-2.09-3.17-2.119-3.17,0L40.595,22.308z"/>
			<rect x="31.657" y="11.487" fill="#3E4347" width="0.686" height="3.645"/>
			<rect x="29.686" y="12.205" fill="#3E4347" width="0.694" height="2.666"/>
			<path fill="#3E4347" d="M30.104,17.784v4.524h3.793v-4.524C33.896,15.464,30.104,15.464,30.104,17.784z"/>
			<rect x="33.62" y="12.205" fill="#3E4347" width="0.694" height="2.666"/>
		</g>
		<path fill="#FFE62E" d="M28.494,40.656H27.83v1.061h0.664l2.802,1.625v0.973v6.898h-4.128v1.92h1.203V52.17h1.636v0.963h1.289
			v0.727h-1.289v0.963h-1.636v-0.963h-1.203v1.924h4.128v0.494V57h1.192v-0.723V44.314v-0.973l2.801-1.625h0.665v-1.061h-0.665
			l-3.397-1.973L28.494,40.656z M34.431,41.189l-2.539,1.469l-2.538-1.469l2.538-1.48L34.431,41.189z"/>
	</g>
</g>
</svg>
