<?xml version="1.0" encoding="utf-8"?>
<!-- Generator: Adobe Illustrator 15.0.0, SVG Export Plug-In . SVG Version: 6.00 Build 0)  -->
<!DOCTYPE svg PUBLIC "-//W3C//DTD SVG 1.1//EN" "http://www.w3.org/Graphics/SVG/1.1/DTD/svg11.dtd">
<svg version="1.1" id="Layer_1" xmlns="http://www.w3.org/2000/svg" xmlns:xlink="http://www.w3.org/1999/xlink" x="0px" y="0px"
	 width="64px" height="64px" viewBox="0 0 64 64" enable-background="new 0 0 64 64" xml:space="preserve">
<g>
	<g>
		<path fill="#F42F4C" d="M32.001,62C48.568,62,62,48.57,62,32.001H2C2,48.57,15.433,62,32.001,62z"/>
		<path fill="#2A5F9E" d="M32.001,2C15.433,2,2,15.432,2,32.001h60C62,15.432,48.568,2,32.001,2z"/>
	</g>
	<g>
		<path fill="#FFFFFF" d="M20,22v17.351c0.271-0.191,23.74-0.012,24,0.129V22H20z"/>
		<path fill="#699635" d="M32.373,37.372c0.004,0,0.01,0,0.014-0.002l0,0C32.381,37.37,32.378,37.372,32.373,37.372z"/>
		<path fill="#699635" d="M39.232,37.546l-14.496,0.008L20,39.351v2.65h24v-2.521L39.232,37.546z M37.441,40.589
			c0,0-1.944,0.729-5.457,0.729c-3.498,0-5.457-0.729-5.457-0.729V39.79c0,0,1.498,0.684,5.457,0.684
			c3.975,0,5.457-0.684,5.457-0.684V40.589z"/>
		<g>
			<path fill="#F42F4C" d="M31.529,35.397c-0.023-0.258-0.049-0.535-0.072-0.811l-1.979-2.199c-0.636,0.105-0.285,0.992-0.123,1.379
				L31.529,35.397z"/>
			<path fill="#F42F4C" d="M28.68,33.63c-0.635,0.195-0.357,1.043-0.164,1.5l2.601,1.49c0.14-0.07,0.319-0.117,0.522-0.145
				c-0.015-0.135-0.035-0.334-0.061-0.582L28.68,33.63z"/>
			<path fill="#F42F4C" d="M30.883,36.8l-2.611-1.455c-0.223,0.092-0.31,0.289-0.307,0.545l1.24,1.793l1.6,0.496L30.883,36.8z"/>
			<path fill="#F42F4C" d="M34.611,33.765c0.161-0.387,0.512-1.271-0.124-1.377l-2.04,2.268c-0.023,0.271-0.05,0.541-0.075,0.791
				L34.611,33.765z"/>
			<path fill="#F42F4C" d="M35.45,35.13c0.194-0.457,0.47-1.305-0.163-1.5l-2.967,2.316c-0.025,0.223-0.045,0.402-0.06,0.527
				c0.231,0.029,0.429,0.088,0.577,0.17L35.45,35.13z"/>
			<path fill="#F42F4C" d="M36,35.89c0.004-0.256-0.084-0.453-0.307-0.543l-2.648,1.475l0.078,1.369l1.638-0.508L36,35.89z"/>
		</g>
		<path fill="#699635" d="M32.335,27.761c0,0,0.005,0.131,0.017,0.35c0.18,0.481,0.422,0.932,0.758,1.191
			c0.234-0.336,0.25-1.164,0.041-1.977c0.346,0.371,0.771,0.725,1.184,0.799c0.031-0.277-0.182-0.758-0.524-1.197
			c0.552,0.266,1.282,0.49,2.112,0.424c-0.205-0.314-0.659-0.623-1.165-0.877c0.932,0.246,1.842,0.488,1.885,0.506
			c-0.108-0.861-0.507-0.896-1.239-1.248l1.752,0.023c-0.444-0.785-1.929-0.828-3.115-0.637c0.746-0.236,1.665-0.494,1.809-0.521
			c-0.336-0.249-1.658-1.064-3.381,0.291c-0.022,0.529-0.246,0.951-0.523,0.951c-0.287,0-0.516-0.442-0.527-0.992
			c-1.699-1.297-2.997-0.496-3.332-0.25c0.146,0.027,1.065,0.285,1.811,0.521c-1.186-0.191-2.671-0.148-3.115,0.637l1.752-0.023
			c-0.731,0.352-1.131,0.387-1.238,1.248c0.043-0.018,0.953-0.26,1.885-0.506c-0.508,0.254-0.961,0.563-1.166,0.877
			c0.83,0.066,1.561-0.158,2.113-0.424c-0.343,0.439-0.557,0.92-0.525,1.197c0.412-0.074,0.838-0.428,1.185-0.799
			c-0.21,0.813-0.194,1.641,0.04,1.977c0.258-0.199,0.462-0.51,0.625-0.861c0.012-0.41,0.02-0.68,0.02-0.68H32.335z"/>
		<path fill="#FFFFFF" d="M26.527,39.79v0.799c0,0,1.959,0.729,5.457,0.729c3.513,0,5.457-0.729,5.457-0.729V39.79
			c0,0-1.482,0.684-5.457,0.684C28.025,40.474,26.527,39.79,26.527,39.79z"/>
		<g>
			<path fill="#2A5F9E" d="M29.479,32.388l-2.412-2.679c-0.664,0.591-0.693,1.5-0.678,1.83l2.967,2.228
				C29.193,33.38,28.843,32.493,29.479,32.388z"/>
			<path fill="#2A5F9E" d="M28.68,33.63l-3.6-2.811c-0.47,0.6-0.17,2.066-0.082,2.438l3.518,1.873
				C28.322,34.673,28.045,33.825,28.68,33.63z"/>
			<path fill="#2A5F9E" d="M23.928,34.294c0.008,0.346-0.107,0.568,0.117,1.197l3.92,0.398c-0.003-0.256,0.084-0.453,0.307-0.545
				l-4.494-2.5C23.507,33.411,23.786,34.171,23.928,34.294z"/>
			<path fill="#2A5F9E" d="M37.576,31.538c0.016-0.33-0.014-1.239-0.677-1.829l-2.412,2.679c0.636,0.105,0.285,0.99,0.124,1.377
				L37.576,31.538z"/>
			<path fill="#2A5F9E" d="M38.967,33.257c0.088-0.373,0.389-1.838-0.082-2.438l-3.598,2.811c0.633,0.195,0.357,1.043,0.163,1.5
				L38.967,33.257z"/>
			<path fill="#2A5F9E" d="M40.189,32.845l-4.496,2.502c0.223,0.09,0.311,0.287,0.307,0.543l3.92-0.398
				c0.225-0.629,0.109-0.852,0.117-1.197C40.18,34.171,40.459,33.411,40.189,32.845z"/>
			<path fill="#2A5F9E" d="M31.943,25.839c0.277,0,0.501-0.422,0.523-0.951c0.001-0.027,0.008-0.051,0.008-0.08
				c0-0.568-0.238-1.029-0.531-1.029c-0.295,0-0.531,0.461-0.531,1.029c0,0.014,0.004,0.025,0.004,0.039
				C31.428,25.396,31.656,25.839,31.943,25.839z"/>
		</g>
		<path fill="#FFE62E" d="M40.348,36.29l-0.139-0.828l-1.744,0.176c-0.245-0.129-0.521-0.208-0.818-0.208
			c-0.426,0-0.811,0.155-1.117,0.405l-2.025,0.207l0.166,0.82l0.605-0.061l-0.515,0.881l-1.638,0.508v-1.172h-2.318v1.16l-1.6-0.496
			L28.74,36.89l-0.051-0.088l0.605,0.061l0.166-0.82l-1.982-0.203c-0.307-0.252-0.695-0.409-1.123-0.409
			c-0.301,0-0.578,0.081-0.826,0.212l-1.772-0.18l-0.139,0.828l1.155,0.116c-0.123,0.243-0.199,0.514-0.199,0.805
			c0,0.983,0.797,1.781,1.781,1.781c0.83,0,1.52-0.569,1.719-1.337l0.26,0.41l2.471,0.742c0,0.211,0.52,0.381,1.158,0.381
			c0.641,0,1.16-0.17,1.16-0.381l2.508-0.742l0.295-0.416c0.197,0.771,0.891,1.343,1.721,1.343c0.984,0,1.781-0.798,1.781-1.781
			c0-0.292-0.078-0.564-0.203-0.808L40.348,36.29z"/>
		<path fill="#FFE62E" d="M24.613,30.485l0.047,0.037c-0.069,0.092-0.128,0.182-0.179,0.271l0.425,0.205l0.159-0.191l6.483,5.142
			l0.088,0.525h0.654l0.059-0.525l6.551-5.142l0.159,0.191l0.425-0.205c-0.051-0.09-0.109-0.18-0.18-0.271l0.048-0.037l0.317-0.004
			l0.57-0.842l-1.01,0.422l-0.03,0.225l-0.058,0.047c-0.064-0.064-0.136-0.131-0.223-0.199l-0.316,0.318l0.162,0.193l-6.357,4.723
			l0.06-0.688l4.57-5.124l0.191,0.16l0.38-0.271c-0.064-0.08-0.139-0.16-0.225-0.238l0.039-0.045l0.313-0.057l0.41-0.924
			l-0.918,0.584l0.009,0.227l-0.047,0.057c-0.076-0.055-0.158-0.107-0.255-0.16l-0.255,0.367l0.195,0.164l-2.751,2.943l0.531-1.141
			l-0.276-0.059l-1.266,2.283l1.023-2.75l-0.406-0.025L32.65,33.72l0.701-2.906l-0.354-0.008l-0.461,1.941
			c-0.025-1.049-0.202-4.986-0.202-4.986h-0.866c0,0-0.102,3.625-0.113,4.68l-0.389-1.635l-0.354,0.008l0.701,2.902l-1.082-3.045
			l-0.405,0.025l1.022,2.75l-1.266-2.283l-0.275,0.059l0.531,1.143l-2.75-2.945l0.193-0.164l-0.254-0.367
			c-0.098,0.053-0.18,0.105-0.254,0.16l-0.049-0.057l0.01-0.227l-0.918-0.584l0.41,0.924l0.313,0.057l0.039,0.045
			c-0.086,0.078-0.158,0.158-0.225,0.238l0.381,0.271l0.191-0.16l4.502,5.124l0.06,0.688l-6.29-4.723l0.162-0.193l-0.316-0.318
			c-0.086,0.068-0.158,0.135-0.222,0.199l-0.058-0.047l-0.031-0.225l-1.01-0.422l0.57,0.842L24.613,30.485z"/>
		<path fill="#FFE62E" d="M23.637,33.05l0.125-0.213l7.121,3.963l0.552-0.156l-7.565-3.986l0.127-0.217l-0.362-0.268
			c-0.075,0.08-0.134,0.158-0.187,0.232l-0.065-0.039l-0.066-0.217l-1.065-0.264l0.699,0.744l0.314-0.045l0.053,0.031
			c-0.055,0.102-0.097,0.199-0.133,0.295L23.637,33.05z"/>
		<path fill="#FFE62E" d="M41.016,32.63l0.699-0.744l-1.064,0.264l-0.066,0.217l-0.065,0.039c-0.053-0.074-0.112-0.152-0.187-0.232
			l-0.363,0.268l0.127,0.217l-7.524,3.963l0.474,0.201l2.648-1.475l4.51-2.51l0.127,0.213l0.451-0.139
			c-0.035-0.096-0.078-0.193-0.133-0.295l0.053-0.031L41.016,32.63z"/>
		<ellipse fill="#2A5F9E" cx="32" cy="36.974" rx="1.25" ry="0.572"/>
	</g>
</g>
</svg>
