<?xml version="1.0" encoding="utf-8"?>
<!-- Generator: Adobe Illustrator 15.0.0, SVG Export Plug-In . SVG Version: 6.00 Build 0)  -->
<!DOCTYPE svg PUBLIC "-//W3C//DTD SVG 1.1//EN" "http://www.w3.org/Graphics/SVG/1.1/DTD/svg11.dtd">
<svg version="1.1" id="Layer_1" xmlns="http://www.w3.org/2000/svg" xmlns:xlink="http://www.w3.org/1999/xlink" x="0px" y="0px"
	 width="64px" height="64px" viewBox="0 0 64 64" enable-background="new 0 0 64 64" xml:space="preserve">
<g>
	<g>
		<path fill="#FFFFFF" d="M61.721,28c-0.137-1.016-0.314-2.02-0.551-3H2.831c-0.235,0.98-0.414,1.984-0.551,3H61.721z"/>
		<path fill="#FFFFFF" d="M2.28,36c0.137,1.016,0.315,2.018,0.551,3H61.17c0.236-0.982,0.414-1.984,0.551-3H2.28z"/>
	</g>
	<g>
		<path fill="#FFFFFF" d="M20,4.488c-1.03,0.451-2.033,0.953-3,1.514v51.996c0.967,0.561,1.97,1.063,3,1.512V4.488z"/>
		<path fill="#FFFFFF" d="M28,2.262v59.475c0.986,0.133,1.984,0.23,3,0.264V2C29.984,2.033,28.986,2.131,28,2.262z"/>
	</g>
	<path fill="#2A5F9E" d="M2,32c0,1.357,0.099,2.689,0.273,4h59.453C61.902,34.689,62,33.357,62,32s-0.098-2.691-0.273-4H2.274
		C2.099,29.309,2,30.643,2,32z"/>
	<path fill="#2A5F9E" d="M20,59.496c2.508,1.096,5.191,1.855,8,2.23V2.273c-2.809,0.375-5.492,1.135-8,2.23V59.496z"/>
	<path fill="#ED4C5C" d="M17,25V6.023C9.983,10.084,4.766,16.902,2.831,25H17z"/>
	<path fill="#ED4C5C" d="M17,39.023V58C9.983,53.939,4.766,47.121,2.831,39.023H17z"/>
	<path fill="#ED4C5C" d="M32,2c-0.336,0-0.666,0.014-1,0.025V25h30.17C58.016,11.809,46.158,2,32,2z"/>
	<path fill="#ED4C5C" d="M31,39v22.975C31.334,61.984,31.664,62,32,62c14.158,0,26.016-9.811,29.17-23H31z"/>
</g>
</svg>
