<?xml version="1.0" encoding="utf-8"?>
<!-- Generator: Adobe Illustrator 15.0.0, SVG Export Plug-In . SVG Version: 6.00 Build 0)  -->
<!DOCTYPE svg PUBLIC "-//W3C//DTD SVG 1.1//EN" "http://www.w3.org/Graphics/SVG/1.1/DTD/svg11.dtd">
<svg version="1.1" id="Layer_1" xmlns="http://www.w3.org/2000/svg" xmlns:xlink="http://www.w3.org/1999/xlink" x="0px" y="0px"
	 width="64px" height="64px" viewBox="0 0 64 64" enable-background="new 0 0 64 64" xml:space="preserve">
<g>
	<path fill="#2A5F9E" d="M2,32c0,11.511,6.486,21.502,16,26.532V5.467C8.486,10.498,2,20.489,2,32z"/>
	<path fill="#C94747" d="M62,32c0-11.511-6.486-21.502-16-26.533v53.065C55.514,53.502,62,43.511,62,32z"/>
	<path fill="#FFE62E" d="M32,2c-5.058,0-9.819,1.257-14,3.467v53.065C22.181,60.743,26.942,62,32,62s9.819-1.257,14-3.468V5.467
		C41.819,3.257,37.058,2,32,2z"/>
	<path fill="#C7B37F" d="M29.217,17c1.249,0,1.962,1.225,3.308,0.889c0.993-0.248,2.486-1.654,3.303-0.286
		c0.322,0.54,0.2,1.112,0.006,1.669c-0.166,0.478-0.674,1.158-0.162,1.591c0.74,0.626,2.242,0.367,2.875-0.274
		c-0.604-0.026-0.955-0.699-0.482-1.139c0.222-0.207,0.439-0.103,0.648-0.212c0.088-0.046,0.156-0.237,0.252-0.306
		c0.122-0.088,0.25-0.137,0.402-0.137c0.215,0,0.354,0.211,0.527,0.211c0.248,0,0.635-0.274,0.82,0.053
		c0.129,0.227,0.293,0.085,0.504,0.038c0.342-0.077,0.62,0.088,0.834,0.34c0.188,0.221,0.303,0.179,0.552,0.33
		c0.181,0.109,0.29,0.466,0.456,0.53c0.704,0.271,0.741,0.847,0.444,1.477c-0.437,0.927-2.501,2.025-1.747,3.178
		c-0.135-0.789,1.124-0.44,0.816,0.301c1.585-1.047,3.307,1.192,3.278,2.642c-0.026,1.376-0.63,2.45-2.013,2.84
		c0.429,0.18,0.778,0.629,0.523,1.096c-0.111,0.204-0.324,0.339-0.558,0.339c-0.407,0-0.45-0.342-0.724,0.078
		c-0.545,0.833-0.236,2.12,0.487,2.744c0.224-0.337,0.704-0.563,1.043-0.213c0.233,0.241,0.246,0.652,0.374,0.936
		c0.156,0.35,0.408,0.625,0.102,1.019c-0.298,0.38-0.622,0.241-1.02,0.28c0.857,0.857,1.285,1.842,0.94,3.076
		c-0.349,1.244-1.284,2.147-2.491,2.57c-1.197,0.42-2.497,0.494-3.752,0.547c-1.271,0.055-2.572,0.054-3.53,1.012
		c0.405,0.297,0.722,0.719,0.541,1.246c-0.064,0.188-0.194,0.346-0.359,0.454c-0.192,0.128-0.542,0.103-0.655,0.312
		c-0.256,0.467-1.113,0.291-1.449,0.027c-0.242-0.19-0.33,0.057-0.517,0.255C32.64,46.677,32.315,47,32.071,47
		c-0.245,0-0.458-0.235-0.636-0.376c-0.247-0.193-0.384-0.543-0.675-0.365c-0.392,0.239-1.076,0.42-1.412-0.026
		c-0.141-0.188-0.389-0.172-0.583-0.28c-0.232-0.131-0.428-0.327-0.514-0.584c-0.176-0.53,0.117-0.97,0.592-1.189
		c-0.896-0.896-2.106-0.91-3.298-0.963c-1.266-0.055-2.815-0.029-3.986-0.572c-1.016-0.475-1.948-1.174-2.374-2.246
		c-0.492-1.24-0.272-2.406,0.667-3.346c-0.4-0.094-0.792-0.078-0.988-0.525c-0.206-0.469,0.189-0.67,0.202-1.072
		c0.007-0.254,0.383-0.741,0.623-0.818c0.222-0.072,0.46,0.01,0.609,0.182c0.205,0.236,0.335,0.011,0.469-0.223
		c0.416-0.724,0.741-1.924,0.044-2.622c-0.779,0.779-1.827-0.773-0.801-1.247c-0.284-0.245-0.665-0.314-0.942-0.579
		c-0.236-0.225-0.442-0.539-0.59-0.828c-0.357-0.694-0.408-1.483-0.23-2.231c0.159-0.669,0.613-1.417,1.228-1.76
		c0.706-0.394,1.196-0.347,1.911-0.127c-0.119-0.037,0.107-0.598,0.194-0.672c0.326-0.276,0.567-0.017,0.727,0.265
		c0.637-1.062-1.477-2.248-1.852-3.092c-0.18-0.404-0.27-1.428,0.424-1.434c0.204-0.001,0.309-0.33,0.456-0.459
		c0.135-0.118,0.315-0.112,0.46-0.212c0.116-0.08,0.183-0.24,0.284-0.338c0.203-0.196,0.466-0.244,0.74-0.21
		c0.39,0.049,0.191,0.122,0.54-0.043c0.297-0.143,0.454,0.006,0.746,0.006c0.232,0,0.347-0.308,0.666-0.224
		c0.253,0.067,0.336,0.283,0.542,0.402c0.207,0.122,0.44,0.104,0.638,0.283c0.537,0.484,0.149,1.015-0.376,1.187
		c0.518,0.414,1.141,0.559,1.797,0.515c0.544-0.037,1.375-0.341,1.175-1.046c-0.213-0.755-0.649-1.261-0.531-2.104
		C28.106,17.384,28.586,16.992,29.217,17C30.335,17,29.217,17,29.217,17z"/>
	<rect x="23.952" y="23.942" fill="#C94747" width="7.629" height="7.615"/>
	<path fill="#FFFFFF" d="M27.53,29.938c0,0-0.004,0.272-0.08,0.491c-0.086,0.252-0.087,0.252-0.167,0.375
		c-0.107,0.165-0.237,0.286-0.354,0.361c-0.182,0.117-0.366,0.175-0.552,0.159c-0.509-0.045-0.746-0.598-0.862-1.046
		c-0.123-0.477-0.471-0.736-0.693-0.563c-0.13,0.101-0.137,0.271-0.029,0.433c0.116,0.173,0.381,0.26,0.381,0.26l-0.272,0.346
		c0,0-0.585-0.076-0.7-0.686c-0.043-0.231,0.069-0.663,0.454-0.792c0.492-0.165,0.807,0.186,0.958,0.482
		c0.208,0.407,0.298,1.155,0.875,1.039c0.314-0.063,0.462-0.52,0.462-0.729l0.229-0.246l0.339,0.108L27.53,29.938z"/>
	<path fill="#FFFFFF" d="M28.005,29.938c0,0,0.005,0.272,0.08,0.491c0.087,0.252,0.087,0.252,0.167,0.375
		c0.107,0.165,0.237,0.286,0.354,0.361c0.182,0.117,0.367,0.175,0.552,0.159c0.51-0.045,0.746-0.598,0.862-1.046
		c0.123-0.477,0.471-0.736,0.693-0.563c0.13,0.101,0.137,0.271,0.029,0.433c-0.115,0.173-0.38,0.26-0.38,0.26l0.272,0.346
		c0,0,0.585-0.076,0.699-0.686c0.043-0.231-0.069-0.663-0.454-0.792c-0.492-0.165-0.806,0.186-0.958,0.482
		c-0.208,0.407-0.298,1.155-0.875,1.039c-0.314-0.063-0.462-0.52-0.462-0.729l-0.229-0.246l-0.339,0.108L28.005,29.938
		L28.005,29.938z"/>
	<path fill="#FFCE31" d="M28.451,26.7c0.282-0.305,1.152-0.932,1.148-1.397c-0.523-0.059-0.026-0.173,0.052-0.483
		c-0.101,0.007-0.202,0.014-0.303,0.021c0.108-0.372,1.046-0.738,1.457-0.569c1.028,0.423,0.291,2.019-0.506,1.333
		c0.13-0.41,0.657-0.235,0.63-0.591c-0.024-0.327-0.388-0.544-0.674-0.351c-0.411,0.277-0.134,0.88-0.505,1.233
		c-0.326,0.517-0.881,0.954-1.302,1.408c-1.236,1.337-2.473,2.675-3.709,4.012c-0.711-0.384,1.077-1.766,1.416-2.132
		C26.92,28.355,27.686,27.527,28.451,26.7z"/>
	<path fill="#FFFFFF" d="M25.516,27.079c0,0,0.25,1.242,1.102,3.104c0.434-0.159,0.689-0.26,1.148-0.26s0.715,0.086,1.148,0.26
		c0.852-1.862,1.102-3.104,1.102-3.104l-2.25-2.895L25.516,27.079z"/>
	<path fill="#FFCE31" d="M27.986,25.164l1.562,2.009c0,0-0.208,0.977-0.843,2.447c-0.246-0.056-0.456-0.105-0.718-0.123
		L27.986,25.164z"/>
	<path fill="#FFCE31" d="M27.546,25.164l-1.562,2.009c0,0,0.208,0.977,0.843,2.447c0.246-0.056,0.457-0.105,0.718-0.123
		L27.546,25.164z"/>
	<rect x="32.395" y="23.942" fill="#FFCE31" width="7.63" height="7.615"/>
	<rect x="33.464" y="23.942" fill="#C94747" width="1.137" height="7.615"/>
	<rect x="35.644" y="23.942" fill="#C94747" width="1.137" height="7.615"/>
	<rect x="37.823" y="23.942" fill="#C94747" width="1.138" height="7.615"/>
	<path fill="#FFCE31" d="M23.98,38.162c0.021,0.138,0.07,0.372,0.201,0.613c0.137,0.217,0.086,0.21,0.397,0.558
		c0.153,0.17,0.391,0.316,0.578,0.417c0.188,0.101,0.327,0.15,0.635,0.231c0.605,0.158,1.03,0.169,1.539,0.148
		c0.397-0.016,0.701-0.064,0.952-0.099c0.358-0.048,0.625-0.077,1.032-0.094c0.198-0.009,0.385-0.011,0.57,0
		c0.223,0.013,0.444,0.047,0.679,0.094c0.505,0.101,1.018,0.296,1.018,0.296l0.001-7.952l-7.631-0.002v5.435L23.98,38.162
		L23.98,38.162z"/>
	<polygon fill="#C94747" points="24.866,39.556 25.224,39.765 25.714,39.94 25.713,32.372 24.866,32.372 	"/>
	<path fill="#C94747" d="M29.105,39.901l0.001-7.53h-0.849v7.65c0,0,0.581-0.075,0.848-0.092L29.105,39.901z"/>
	<path fill="#C94747" d="M30.799,32.372h-0.846v7.556c0.276,0.03,0.559,0.079,0.848,0.156L30.799,32.372z"/>
	<path fill="#C94747" d="M27.411,32.372v7.736c-0.009,0.002-0.566,0.029-0.852,0l0-7.735L27.411,32.372z"/>
	<path fill="#FFCE31" d="M39.997,38.16c-0.021,0.138-0.07,0.372-0.201,0.613c-0.137,0.217-0.086,0.211-0.396,0.558
		c-0.153,0.17-0.392,0.316-0.578,0.417c-0.188,0.101-0.327,0.151-0.636,0.231c-0.604,0.159-1.03,0.169-1.538,0.148
		c-0.398-0.016-0.701-0.064-0.952-0.098c-0.358-0.049-0.625-0.078-1.032-0.095c-0.198-0.009-0.385-0.01-0.57,0
		c-0.223,0.013-0.443,0.048-0.679,0.095c-0.505,0.101-1.024,0.295-1.024,0.295l0.005-7.952l7.631-0.002v5.435L39.997,38.16z"/>
	<path fill="#C94747" d="M34.347,33.009c-0.293,0.196-0.436,0.5-0.74,0.676c0.196,0.383,0.612,0.282,0.87,0.465
		c0.173,0,0.413,0.644,0.386,0.67c-0.344,0.331,0.113,1.177,0.241,0.935c0.132-0.252-0.381-0.926,0.302-0.731
		c0.232,0.066,0.347,0.795,0.07,0.995c0.146,0.274,0.441,0.109,0.396-0.2c-0.081-0.549,0.009-0.789,0.52-0.807
		c0.618-0.023,0.479,0.172,0.815,0.25l0.299-0.004l0.174-0.193c-0.007,0.346-0.401,0.681-0.606,0.853
		c0.415,0.175,1.041-0.575,0.984-0.948c0.375,0.184,0.079,0.912-0.076,1.14c1.049,0.249,0.089-1.788,0.424-1.97
		c0.904-0.497-0.523-0.842-0.873-0.821c-0.758,0.044-1.864,0.355-2.6,0.128c0.152-0.055,0.16-0.182,0.261-0.285
		C35.009,33.011,34.631,33.197,34.347,33.009z M34.529,34.114"/>
	<path fill="#C94747" d="M34.347,36.406c-0.293,0.196-0.436,0.499-0.74,0.676c0.195,0.384,0.612,0.282,0.87,0.464
		c0.174,0,0.413,0.645,0.386,0.671c-0.344,0.331,0.113,1.177,0.241,0.935c0.132-0.252-0.381-0.926,0.302-0.731
		c0.232,0.065,0.347,0.796,0.07,0.995c0.146,0.273,0.441,0.109,0.396-0.2c-0.081-0.55,0.009-0.789,0.52-0.808
		c0.622-0.022,0.476,0.17,0.815,0.25l0.299-0.002l0.174-0.195c-0.007,0.346-0.401,0.682-0.606,0.854
		c0.415,0.174,1.041-0.576,0.984-0.949c0.375,0.184,0.079,0.913-0.076,1.141c1.049,0.249,0.089-1.787,0.424-1.971
		c0.904-0.497-0.522-0.84-0.873-0.82c-0.758,0.043-1.864,0.355-2.6,0.127c0.152-0.055,0.16-0.182,0.261-0.283
		C35.008,36.408,34.632,36.595,34.347,36.406z M34.529,37.512"/>
</g>
</svg>
