<?xml version="1.0" encoding="utf-8"?>
<!-- Generator: Adobe Illustrator 15.0.0, SVG Export Plug-In . SVG Version: 6.00 Build 0)  -->
<!DOCTYPE svg PUBLIC "-//W3C//DTD SVG 1.1//EN" "http://www.w3.org/Graphics/SVG/1.1/DTD/svg11.dtd">
<svg version="1.1" id="Layer_1" xmlns="http://www.w3.org/2000/svg" xmlns:xlink="http://www.w3.org/1999/xlink" x="0px" y="0px"
	 width="64px" height="64px" viewBox="0 0 64 64" enable-background="new 0 0 64 64" xml:space="preserve">
<g>
	<path fill="#C94747" d="M32,2C18.939,2,7.833,10.35,3.714,22h56.571C56.166,10.35,45.061,2,32,2z"/>
	<path fill="#83BF4F" d="M32,62c13.061,0,24.166-8.35,28.285-20H3.714C7.833,53.65,18.939,62,32,62z"/>
	<path fill="#FFCE31" d="M3.714,22C2.607,25.129,2,28.493,2,32c0,3.507,0.607,6.871,1.714,10h56.571C61.393,38.871,62,35.508,62,32
		c0-3.508-0.607-6.871-1.715-10H3.714z"/>
	<rect x="31.318" y="37.73" fill="#ED1C24" width="1.364" height="2.908"/>
	<rect x="30.241" y="37.986" fill="#FFE000" width="1.364" height="2.908"/>
	<rect x="32.394" y="37.986" fill="#FFE000" width="1.364" height="2.908"/>
	<rect x="30.005" y="37.986" fill="#699635" width="0.862" height="3.651"/>
	<rect x="33.133" y="37.986" fill="#699635" width="0.861" height="3.651"/>
	<path fill="#699635" d="M29.6,23.378c0,0-0.331-0.094-0.593-0.09l0.01-0.013c0.208-0.318,0.276-0.912,0.276-0.912
		s-0.514,0.302-0.723,0.617c-0.109-0.229-0.307-0.464-0.307-0.464s-0.243,0.273-0.206,0.538c0.037,0.264,0.374,0.66,0.374,0.66
		s0.5,0.145,0.759,0.07C29.447,23.71,29.6,23.378,29.6,23.378z"/>
	<path fill="#83BF4F" d="M29.123,24.14c0,0-0.343-0.007-0.595,0.064l0.005-0.015c0.118-0.361,0.028-0.953,0.028-0.953
		s-0.417,0.424-0.536,0.782c-0.166-0.193-0.42-0.369-0.42-0.369s-0.162,0.326-0.058,0.572c0.104,0.247,0.533,0.541,0.533,0.541
		s0.521,0.012,0.751-0.126C29.063,24.498,29.123,24.14,29.123,24.14z"/>
	<path fill="#699635" d="M28.862,24.995c0,0-0.334,0.082-0.558,0.217l0.001-0.016c0.021-0.379-0.22-0.929-0.22-0.929
		s-0.293,0.517-0.316,0.894c-0.209-0.144-0.5-0.249-0.5-0.249s-0.072,0.356,0.092,0.567c0.166,0.211,0.656,0.386,0.656,0.386
		s0.506-0.123,0.691-0.316C28.897,25.358,28.862,24.995,28.862,24.995z"/>
	<path fill="#83BF4F" d="M28.832,25.889c0,0-0.301,0.165-0.483,0.354l-0.004-0.017c-0.077-0.371-0.453-0.838-0.453-0.838
		s-0.147,0.573-0.072,0.943c-0.238-0.085-0.547-0.111-0.547-0.111s0.023,0.363,0.238,0.525c0.214,0.161,0.734,0.204,0.734,0.204
		s0.457-0.249,0.586-0.482C28.96,26.23,28.832,25.889,28.832,25.889z"/>
	<path fill="#699635" d="M29.037,26.76c0,0-0.247,0.237-0.374,0.465l-0.009-0.014c-0.172-0.338-0.657-0.694-0.657-0.694
		s0.006,0.592,0.176,0.931c-0.253-0.021-0.559,0.032-0.559,0.032s0.117,0.345,0.367,0.446c0.25,0.101,0.762,0.008,0.762,0.008
		s0.377-0.358,0.442-0.618C29.249,27.057,29.037,26.76,29.037,26.76z"/>
	<path fill="#83BF4F" d="M29.461,27.549c0,0-0.176,0.292-0.24,0.546l-0.011-0.012c-0.256-0.283-0.816-0.501-0.816-0.501
		s0.16,0.571,0.414,0.854c-0.25,0.044-0.531,0.175-0.531,0.175s0.203,0.303,0.47,0.337c0.267,0.033,0.738-0.188,0.738-0.188
		s0.27-0.443,0.265-0.71C29.744,27.781,29.461,27.549,29.461,27.549z"/>
	<path fill="#699635" d="M30.078,28.203c0,0-0.094,0.327-0.091,0.588l-0.014-0.009c-0.32-0.207-0.918-0.275-0.918-0.275
		s0.303,0.51,0.621,0.718c-0.23,0.109-0.467,0.306-0.467,0.306s0.275,0.241,0.542,0.203c0.267-0.036,0.664-0.37,0.664-0.37
		s0.146-0.496,0.071-0.754C30.411,28.354,30.078,28.203,30.078,28.203z"/>
	<path fill="#83BF4F" d="M30.842,28.675c0,0-0.005,0.341,0.067,0.591l-0.015-0.004c-0.364-0.117-0.959-0.029-0.959-0.029
		s0.427,0.415,0.787,0.535c-0.194,0.164-0.372,0.415-0.372,0.415s0.329,0.161,0.578,0.058c0.248-0.104,0.545-0.529,0.545-0.529
		s0.011-0.516-0.128-0.746C31.205,28.736,30.842,28.675,30.842,28.675z"/>
	<path fill="#699635" d="M34.4,23.378c0,0,0.328-0.094,0.592-0.09l-0.01-0.013c-0.207-0.318-0.275-0.912-0.275-0.912
		s0.512,0.302,0.721,0.617c0.109-0.229,0.311-0.464,0.311-0.464s0.242,0.273,0.205,0.538c-0.037,0.264-0.375,0.66-0.375,0.66
		s-0.5,0.145-0.758,0.07C34.553,23.71,34.4,23.378,34.4,23.378z"/>
	<path fill="#83BF4F" d="M34.875,24.14c0,0,0.344-0.007,0.598,0.064l-0.008-0.015c-0.117-0.361-0.027-0.953-0.027-0.953
		s0.418,0.424,0.535,0.782c0.166-0.193,0.422-0.369,0.422-0.369s0.162,0.326,0.057,0.572c-0.105,0.247-0.533,0.541-0.533,0.541
		s-0.52,0.012-0.75-0.126C34.936,24.498,34.875,24.14,34.875,24.14z"/>
	<path fill="#699635" d="M35.137,24.995c0,0,0.334,0.082,0.559,0.217v-0.016c-0.021-0.379,0.219-0.929,0.219-0.929
		s0.295,0.517,0.314,0.894c0.211-0.144,0.502-0.249,0.502-0.249s0.072,0.356-0.094,0.567c-0.164,0.211-0.654,0.386-0.654,0.386
		s-0.506-0.123-0.693-0.316C35.104,25.358,35.137,24.995,35.137,24.995z"/>
	<path fill="#83BF4F" d="M35.168,25.889c0,0,0.299,0.165,0.482,0.354l0.002-0.017c0.08-0.371,0.455-0.838,0.455-0.838
		s0.148,0.573,0.072,0.943c0.238-0.085,0.549-0.111,0.549-0.111s-0.023,0.363-0.24,0.525c-0.215,0.161-0.732,0.204-0.732,0.204
		s-0.457-0.249-0.588-0.482C35.039,26.23,35.168,25.889,35.168,25.889z"/>
	<path fill="#699635" d="M34.963,26.76c0,0,0.246,0.237,0.373,0.465l0.008-0.014c0.174-0.338,0.658-0.694,0.658-0.694
		s-0.008,0.592-0.178,0.931c0.254-0.021,0.559,0.032,0.559,0.032s-0.117,0.345-0.365,0.446c-0.25,0.101-0.764,0.008-0.764,0.008
		s-0.375-0.358-0.439-0.618S34.963,26.76,34.963,26.76z"/>
	<path fill="#83BF4F" d="M34.539,27.549c0,0,0.174,0.292,0.24,0.546l0.01-0.012c0.256-0.283,0.814-0.501,0.814-0.501
		s-0.16,0.571-0.412,0.854c0.25,0.044,0.531,0.175,0.531,0.175s-0.201,0.303-0.469,0.337c-0.27,0.033-0.74-0.188-0.74-0.188
		s-0.27-0.443-0.264-0.71S34.539,27.549,34.539,27.549z"/>
	<path fill="#699635" d="M33.922,28.203c0,0,0.094,0.327,0.09,0.588l0.014-0.009c0.32-0.207,0.92-0.275,0.92-0.275
		s-0.305,0.51-0.621,0.718c0.229,0.109,0.467,0.306,0.467,0.306s-0.275,0.241-0.543,0.203c-0.266-0.036-0.664-0.37-0.664-0.37
		s-0.146-0.496-0.07-0.754C33.588,28.354,33.922,28.203,33.922,28.203z"/>
	<path fill="#83BF4F" d="M33.156,28.675c0,0,0.006,0.341-0.066,0.591l0.016-0.004c0.363-0.117,0.959-0.029,0.959-0.029
		s-0.428,0.415-0.787,0.535c0.193,0.164,0.371,0.415,0.371,0.415s-0.328,0.161-0.576,0.058c-0.248-0.104-0.544-0.529-0.544-0.529
		s-0.012-0.516,0.128-0.746C32.795,28.736,33.156,28.675,33.156,28.675z"/>
	<path fill="#594640" d="M35.309,25.648c-1.035,0-2.207,1.182-3.309,1.182c-1.103,0-2.273-1.182-3.308-1.182
		c-1.032,0-4.961,1.182-4.961,1.182c5.514,0,8.27,2.953,8.27,2.953s2.756-2.953,8.27-2.953C40.27,26.83,36.34,25.648,35.309,25.648z
		"/>
	<circle fill="#FFFFFF" cx="32" cy="26.336" r="0.689"/>
	<path fill="#FFE000" d="M27.223,32.199l0.596,0.493l0.28-0.564l0.053-0.346c-0.042-0.991-0.02-1.965-0.02-1.965l0.175,0.128
		c-0.194-0.164-0.425-0.356-0.67-0.561l-0.394-0.324C27.243,29.06,27.235,31.145,27.223,32.199z"/>
	<path fill="#699635" d="M28.152,31.781l0.592-1.471l-0.612-0.494C28.132,29.816,28.11,30.791,28.152,31.781z"/>
	<path fill="#D52B1E" d="M27.244,29.06l0.394,0.324c-0.718-0.601-1.558-1.305-1.984-1.666c-0.08-0.067-0.098,1.436-0.089,3.11
		l1.658,1.371C27.236,31.144,27.244,29.06,27.244,29.06z"/>
	<path fill="#FFE000" d="M36.777,32.199l-0.596,0.493L35.9,32.127l-0.053-0.346c0.043-0.991,0.021-1.965,0.021-1.965l-0.176,0.128
		c0.193-0.164,0.426-0.356,0.67-0.561l0.395-0.324C36.758,29.06,36.764,31.145,36.777,32.199z"/>
	<path fill="#699635" d="M35.848,31.781l-0.592-1.471l0.613-0.494C35.869,29.816,35.891,30.791,35.848,31.781z"/>
	<path fill="#D52B1E" d="M36.756,29.06l-0.393,0.324c0.717-0.601,1.557-1.305,1.982-1.666c0.08-0.067,0.098,1.436,0.09,3.11
		l-1.658,1.371C36.764,31.144,36.756,29.06,36.756,29.06z"/>
	<path fill="#D52B1E" d="M27.763,38.038c-1.333-0.702-1.551-2.845-1.531-3.138c0.021-0.291,0.032-3.714,0.032-3.714l0.395,0.325
		c-0.718-0.601-1.558-1.306-1.984-1.667c-0.137-0.116-0.039,4.483-0.039,6.526c0,0.957,0.715,4.335,4.905,2.635
		c0,0,2.094-0.629,2.706-1.386c-0.143,0-0.283-0.008-0.423-0.022l-0.203,0.08C29.204,39.039,27.763,38.037,27.763,38.038
		L27.763,38.038z"/>
	<path fill="#FFE000" d="M26.232,34.9c-0.021,0.293,0.197,2.436,1.531,3.137c0,0,1.442,1.002,3.858-0.359
		c-0.73,0.252-1.327,0.306-1.717,0.209c-1.169-0.289-2.405-1.417-2.602-2.559c-0.198-1.143-0.149-3.385-0.149-3.385l0.176,0.128
		c-0.195-0.163-0.425-0.355-0.67-0.56l-0.395-0.325C26.265,31.187,26.253,34.609,26.232,34.9z"/>
	<path fill="#699635" d="M27.943,33.423c-0.011-0.104-0.02-0.472-0.021-0.873c-0.275-0.231,0.053,0.052-0.589-0.485l-0.179-0.153
		l0,0.073c-0.005,0.311-0.033,2.293,0.148,3.344c0.198,1.143,1.399,2.27,2.568,2.559c0.391,0.097,1.021,0.043,1.751-0.209
		l0.15-0.086C29.657,37.34,28.199,35.693,27.943,33.423z"/>
	<path fill="#D52B1E" d="M36.236,38.115c1.334-0.702,1.551-2.846,1.531-3.137c-0.021-0.293-0.033-3.715-0.033-3.715l-0.393,0.324
		c0.717-0.601,1.557-1.306,1.982-1.667c0.137-0.115,0.039,4.483,0.039,6.526c0,0.957-0.715,4.336-4.906,2.635
		c0,0-2.093-0.627-2.705-1.385c0.143,0,0.284-0.008,0.423-0.023l0.204,0.081C34.797,39.116,36.236,38.115,36.236,38.115z"/>
	<path fill="#FFE000" d="M37.768,34.979c0.02,0.291-0.197,2.435-1.531,3.137c0,0-1.441,1.001-3.858-0.36
		c0.731,0.251,1.327,0.306,1.717,0.208c1.17-0.289,2.404-1.416,2.602-2.559c0.197-1.142,0.148-3.384,0.148-3.384l-0.176,0.128
		c0.195-0.164,0.426-0.355,0.67-0.56l0.395-0.324C37.734,31.264,37.746,34.686,37.768,34.979z"/>
	<path fill="#699635" d="M36.057,33.5c0.012-0.104,0.02-0.472,0.021-0.874c0.275-0.23-0.053,0.052,0.59-0.484l0.178-0.153v0.073
		c0.006,0.31,0.033,2.292-0.146,3.342c-0.199,1.143-1.4,2.271-2.568,2.559c-0.391,0.098-1.021,0.044-1.752-0.208l-0.149-0.086
		C34.342,37.418,35.801,35.77,36.057,33.5z"/>
	<ellipse fill="#00A6DE" cx="31.999" cy="33.277" rx="4.235" ry="4.907"/>
	<path fill="#E8A30E" d="M35.457,33.435c0,2.265-6.915,2.265-6.915,0c0-2.264,1.548-4.099,3.458-4.099S35.457,31.17,35.457,33.435z"
		/>
	<ellipse fill="#D52B1E" cx="31.911" cy="31.632" rx="1.667" ry="1.429"/>
	<path fill="#699635" d="M31.818,31.285c-1.039,0.023-3.276,2.19-3.276,2.19c0,2.105,1.548,3.813,3.458,3.813
		c1.91,0,3.457-1.707,3.457-3.813C35.457,33.475,32.93,31.261,31.818,31.285z"/>
	<rect x="32.333" y="35.023" fill="#E8A30E" width="0.851" height="1.444"/>
	<rect x="33.578" y="33.428" fill="#FFFFFF" width="0.457" height="2.772"/>
</g>
</svg>
