<?xml version="1.0" encoding="utf-8"?>
<!-- Generator: Adobe Illustrator 15.0.0, SVG Export Plug-In . SVG Version: 6.00 Build 0)  -->
<!DOCTYPE svg PUBLIC "-//W3C//DTD SVG 1.1//EN" "http://www.w3.org/Graphics/SVG/1.1/DTD/svg11.dtd">
<svg version="1.1" id="Layer_1" xmlns="http://www.w3.org/2000/svg" xmlns:xlink="http://www.w3.org/1999/xlink" x="0px" y="0px"
	 width="64px" height="64px" viewBox="0 0 64 64" enable-background="new 0 0 64 64" xml:space="preserve">
<g>
	<g>
		<path fill="#2A5F9E" d="M10.787,53.213c11.716,11.717,30.711,11.717,42.426,0L10.787,10.788
			C-0.929,22.502-0.929,41.498,10.787,53.213z"/>
		<path fill="#FFCE31" d="M10.787,10.788l42.426,42.425V10.788C41.498-0.928,22.503-0.928,10.787,10.788z"/>
		<path fill="#2A5F9E" d="M53.213,10.788v42.425C64.929,41.498,64.929,22.502,53.213,10.788z"/>
	</g>
	<polygon fill="#FFFFFF" points="10.907,20.981 13.322,22.815 12.409,19.833 14.814,17.985 11.836,17.975 10.907,15 9.979,17.975 
		7,17.985 9.405,19.833 8.492,22.815 	"/>
	<polygon fill="#FFFFFF" points="17.744,27.819 20.159,29.652 19.247,26.67 21.651,24.823 18.674,24.813 17.744,21.838 
		16.815,24.813 13.838,24.823 16.242,26.67 15.329,29.652 	"/>
	<polygon fill="#FFFFFF" points="24.582,34.656 26.997,36.488 26.084,33.508 28.488,31.66 25.511,31.65 24.582,28.674 23.652,31.65 
		20.675,31.66 23.079,33.508 22.166,36.488 	"/>
	<polygon fill="#FFFFFF" points="31.419,41.492 33.834,43.326 32.921,40.346 35.326,38.496 32.348,38.486 31.419,35.512 
		30.49,38.486 27.512,38.496 29.917,40.346 29.004,43.326 	"/>
	<polygon fill="#FFFFFF" points="38.256,48.33 40.671,50.162 39.759,47.182 42.163,45.334 39.186,45.324 38.256,42.35 
		37.327,45.324 34.349,45.334 36.754,47.182 35.841,50.162 	"/>
	<polygon fill="#FFFFFF" points="45.094,55.166 47.509,57 46.596,54.02 49,52.172 46.022,52.162 45.094,49.186 44.164,52.162 
		41.187,52.172 43.591,54.02 42.678,57 	"/>
</g>
</svg>
