<?xml version="1.0" encoding="utf-8"?>
<!-- Generator: Adobe Illustrator 15.0.0, SVG Export Plug-In . SVG Version: 6.00 Build 0)  -->
<!DOCTYPE svg PUBLIC "-//W3C//DTD SVG 1.1//EN" "http://www.w3.org/Graphics/SVG/1.1/DTD/svg11.dtd">
<svg version="1.1" id="Layer_1" xmlns="http://www.w3.org/2000/svg" xmlns:xlink="http://www.w3.org/1999/xlink" x="0px" y="0px"
	 width="64px" height="64px" viewBox="0 0 64 64" enable-background="new 0 0 64 64" xml:space="preserve">
<g>
	<g>
		<path fill="#FFFFFF" d="M3.16,26.591v0.983h0.579v0.983h0.58v-0.983h0.579v-0.983h0.58v-0.984h0.58v-0.983h0.579V23.64h0.58
			v-0.983h-0.58v-0.983H6.059v-0.984H4.319v0.984h1.159v0.983h-0.58v0.983H4.319v0.983h-0.58V23.64H3.195
			c-0.239,0.824-0.446,1.661-0.615,2.513v0.438H3.16z"/>
		<path fill="#FFFFFF" d="M10.116,11.516c-0.1,0.106-0.199,0.213-0.298,0.32h0.298V11.516z"/>
		<path fill="#FFFFFF" d="M14.754,7.902h-0.58v0.983h-0.579v0.983h-0.58v0.983h-0.579v0.983h-0.58v-0.983h-0.58v-0.509
			c-0.194,0.187-0.39,0.373-0.579,0.564v0.928h0.579v0.984h0.58v0.983h-0.58v0.983h-0.579v0.983h-0.58v-0.983H9.537v-0.983h-0.58
			v-0.979c-0.195,0.234-0.392,0.467-0.58,0.707v0.271H8.172c-0.126,0.165-0.252,0.33-0.375,0.498v0.485H7.443
			c-0.077,0.11-0.149,0.223-0.226,0.334v0.649H6.778c-0.209,0.323-0.407,0.652-0.604,0.983h0.463v0.984h0.58v0.983h0.579v0.983h0.58
			v0.983h0.232h0.115h0.232v-0.983h0.58v-0.983h0.579v-0.983h0.58v-0.984h0.579v-0.983h0.58v-0.983h0.58v0.983h0.579v0.983h0.58
			v0.984h0.579v0.983h0.58v0.983h0.58v-1.967h-0.58v-0.984h0.58v-2.95h-0.58v0.983h-0.58v0.983h-0.579v-0.983h-0.58v-0.983h-0.579
			V12.82h0.579v-0.984h0.58v-0.983h0.579v0.983h0.58v0.984h0.58V9.869h-0.58V8.886h0.58V7.067c-0.193,0.13-0.39,0.257-0.58,0.391
			V7.902z M8.957,17.738H8.725H8.609H8.377v-1.968h0.232h0.115h0.232V17.738z"/>
		<path fill="#FFFFFF" d="M2.58,35.443v-0.984h0.58v-0.983h0.579v-0.983h0.58v-0.394v-0.196v-0.394h-0.58v-0.983H3.16v-0.984H2.58
			v-0.983H2.202C2.073,29.688,2,30.835,2,32c0,1.166,0.073,2.313,0.203,3.443H2.58z"/>
		<polygon fill="#FFFFFF" points="14.754,29.541 14.174,29.541 14.174,30.525 13.595,30.525 13.595,31.509 13.015,31.509 
			13.015,31.902 13.015,32.099 13.015,32.492 13.595,32.492 13.595,33.476 14.174,33.476 14.174,34.459 14.754,34.459 
			14.754,35.443 15.334,35.443 15.334,28.558 14.754,28.558 		"/>
		<path fill="#FFFFFF" d="M9.537,12.14c-0.197,0.223-0.386,0.453-0.576,0.681h0.576V12.14z"/>
		<path fill="#FFFFFF" d="M9.818,52.164c0.099,0.107,0.198,0.215,0.298,0.32v-0.32H9.818z"/>
		<path fill="#FFFFFF" d="M8.962,51.181c0.19,0.228,0.378,0.458,0.575,0.68v-0.68H8.962z"/>
		<path fill="#FFFFFF" d="M14.754,55.115v-0.983h0.58v-2.951h-0.58v0.983h-0.58v0.983h-0.579v-0.983h-0.58v-0.983h-0.579v-0.983
			h0.579v-0.984h0.58v-0.983h0.579v0.983h0.58v0.984h0.58v-2.951h-0.58v-0.983h0.58v-1.968h-0.58v0.984h-0.58v0.983h-0.579v0.983
			h-0.58v0.983h-0.579v0.983h-0.58v-0.983h-0.58v-0.983h-0.579v-0.983h-0.58v-0.983H9.537v-0.984h-0.58v-0.983H8.725H8.609H8.377
			v0.983h-0.58v0.984H7.218v0.983h-0.58v0.983H6.175c0.197,0.331,0.395,0.661,0.604,0.983h0.439v0.649
			c0.076,0.111,0.148,0.225,0.226,0.334h0.354v0.486c0.123,0.167,0.249,0.333,0.376,0.498h0.204v0.271
			c0.188,0.24,0.385,0.474,0.58,0.707v-0.978h0.58v-0.984h0.579v-0.983h0.58v0.983h0.579v0.984h0.58v0.983h-0.58v0.983h-0.579v0.929
			c0.189,0.191,0.385,0.378,0.579,0.563v-0.509h0.58v-0.983h0.58v0.983h0.579v0.984h0.58v0.983h0.579v0.983h0.58v0.443
			c0.19,0.135,0.387,0.262,0.58,0.392v-1.818H14.754z M8.957,48.229H8.725H8.609H8.377v-1.967h0.232h0.115h0.232V48.229z"/>
		<polygon fill="#FFFFFF" points="14.754,37.41 14.174,37.41 14.174,36.427 13.595,36.427 13.595,35.443 13.015,35.443 
			13.015,36.427 12.436,36.427 12.436,37.41 11.855,37.41 11.855,38.394 11.275,38.394 11.275,39.377 10.696,39.377 10.696,40.361 
			10.116,40.361 10.116,41.345 10.696,41.345 10.696,42.328 11.275,42.328 11.275,43.312 13.015,43.312 13.015,42.328 
			11.855,42.328 11.855,41.345 12.436,41.345 12.436,40.361 13.015,40.361 13.015,39.377 13.595,39.377 13.595,40.361 
			14.174,40.361 14.174,41.345 14.754,41.345 14.754,42.328 15.334,42.328 15.334,40.361 14.754,40.361 14.754,39.377 
			15.334,39.377 15.334,38.394 14.754,38.394 		"/>
		<polygon fill="#FFFFFF" points="14.754,22.656 14.174,22.656 14.174,23.64 13.595,23.64 13.595,24.623 13.015,24.623 
			13.015,23.64 12.436,23.64 12.436,22.656 11.855,22.656 11.855,21.673 13.015,21.673 13.015,20.688 11.275,20.688 11.275,21.673 
			10.696,21.673 10.696,22.656 10.116,22.656 10.116,23.64 10.696,23.64 10.696,24.623 11.275,24.623 11.275,25.606 11.855,25.606 
			11.855,26.591 12.436,26.591 12.436,27.574 13.015,27.574 13.015,28.558 13.595,28.558 13.595,27.574 14.174,27.574 
			14.174,26.591 14.754,26.591 14.754,25.606 15.334,25.606 15.334,24.623 14.754,24.623 14.754,23.64 15.334,23.64 15.334,21.673 
			14.754,21.673 		"/>
		<path fill="#FFFFFF" d="M3.739,39.377h0.58v0.984h0.579v0.983h0.58v0.983H4.319v0.983h1.739v-0.983h0.579v-0.983h0.58v-0.983
			h-0.58v-0.984H6.059v-0.983h-0.58V37.41h-0.58v-0.983H4.319v-0.983h-0.58v0.983H3.16v0.983H2.58v0.438
			c0.169,0.852,0.376,1.688,0.615,2.513h0.544V39.377z"/>
		<path fill="#FFFFFF" d="M10.116,26.591H9.537v-0.984h-0.58v-0.983H8.725H8.609H8.377v0.983h-0.58v0.984H7.218v0.983h-0.58v0.983
			H6.059v0.983h-0.58v2.361v0.196v2.36h0.58v0.984h0.579v0.983h0.58v0.983h0.579v0.983h0.58v0.983h0.232h0.115h0.232v-0.983h0.58
			V37.41h0.579v-0.983h0.58v-0.983h0.579v-0.984h0.58v-2.36v-0.196v-2.361h-0.58v-0.983h-0.579v-0.983h-0.58V26.591z M6.638,31.902
			v0.196v0.394H6.059v-0.394v-0.196v-0.394h0.579V31.902z M10.696,32.099v-0.196v-0.394h0.579v0.394v0.196v0.394h-0.579V32.099z
			 M8.377,26.591h0.232h0.115h0.232v0.983H8.725H8.609H8.377V26.591z M8.957,37.41H8.725H8.609H8.377v-0.983h0.232h0.115h0.232
			V37.41z M10.116,30.525H9.537v0.983h-0.58v0.394v0.196v0.394h0.58v0.983h0.579v1.968H9.537v-0.984h-0.58v-0.983H8.725H8.609H8.377
			v0.983h-0.58v0.984H7.218v-1.968h0.579v-0.983h0.58v-0.394v-0.196v-0.394h-0.58v-0.983H7.218v-1.968h0.579v0.983h0.58v0.984h0.232
			h0.115h0.232v-0.984h0.58v-0.983h0.579V30.525z"/>
		<path fill="#C8313E" d="M7.218,15.121c-0.147,0.216-0.298,0.43-0.439,0.649h0.439V15.121z"/>
		<path fill="#C8313E" d="M7.797,14.787v-0.485c-0.118,0.161-0.238,0.321-0.354,0.485H7.797z"/>
		<path fill="#C8313E" d="M8.377,13.804v-0.271c-0.07,0.089-0.136,0.182-0.205,0.271H8.377z"/>
		<polygon fill="#C8313E" points="6.059,31.902 6.059,32.099 6.059,32.492 6.638,32.492 6.638,32.099 6.638,31.902 6.638,31.509 
			6.059,31.509 		"/>
		<rect x="14.754" y="16.754" fill="#C8313E" width="0.58" height="0.984"/>
		<polygon fill="#C8313E" points="8.957,12.82 8.957,12.825 8.961,12.82 		"/>
		<path fill="#C8313E" d="M9.537,13.804v0.983h0.579v0.983h0.58v-0.983h0.579v-0.983h0.58V12.82h-0.58v-0.984h-0.579v-0.928
			c-0.197,0.198-0.389,0.403-0.58,0.607v0.32H9.818c-0.093,0.103-0.189,0.2-0.281,0.304v0.681H8.961
			c-0.001,0.002-0.003,0.003-0.004,0.005v0.979H9.537z"/>
		<rect x="14.754" y="8.886" fill="#C8313E" width="0.58" height="0.983"/>
		<polygon fill="#C8313E" points="14.754,11.836 14.174,11.836 14.174,10.853 13.595,10.853 13.595,11.836 13.015,11.836 
			13.015,12.82 12.436,12.82 12.436,13.804 13.015,13.804 13.015,14.787 13.595,14.787 13.595,15.771 14.174,15.771 14.174,14.787 
			14.754,14.787 14.754,13.804 15.334,13.804 15.334,12.82 14.754,12.82 		"/>
		<path fill="#C8313E" d="M11.855,10.853v0.983h0.58v-0.983h0.579V9.869h0.58V8.886h0.579V7.902h0.58V7.458
			C13.65,8.235,12.6,9.085,11.612,10h0.016c-0.12,0.111-0.234,0.23-0.353,0.344v0.509H11.855z"/>
		<polygon fill="#C8313E" points="8.609,15.771 8.377,15.771 8.377,17.738 8.609,17.738 8.725,17.738 8.957,17.738 8.957,15.771 
			8.725,15.771 		"/>
		<polygon fill="#C8313E" points="9.537,29.541 8.957,29.541 8.957,30.525 8.725,30.525 8.609,30.525 8.377,30.525 8.377,29.541 
			7.797,29.541 7.797,28.558 7.218,28.558 7.218,30.525 7.797,30.525 7.797,31.509 8.377,31.509 8.377,31.902 8.377,32.099 
			8.377,32.492 7.797,32.492 7.797,33.476 7.218,33.476 7.218,35.443 7.797,35.443 7.797,34.459 8.377,34.459 8.377,33.476 
			8.609,33.476 8.725,33.476 8.957,33.476 8.957,34.459 9.537,34.459 9.537,35.443 10.116,35.443 10.116,33.476 9.537,33.476 
			9.537,32.492 8.957,32.492 8.957,32.099 8.957,31.902 8.957,31.509 9.537,31.509 9.537,30.525 10.116,30.525 10.116,28.558 
			9.537,28.558 		"/>
		<rect x="14.754" y="23.64" fill="#C8313E" width="0.58" height="0.983"/>
		<path fill="#C8313E" d="M14.754,18.722h-0.58v-0.983h-0.579v-0.984h-0.58v-0.983h-0.579v-0.983h-0.58v0.983h-0.58v0.983h-0.579
			v0.984h-0.58v0.983H9.537v0.983h-0.58v0.983H8.725H8.609H8.377v-0.983h-0.58v-0.983H7.218v-0.983h-0.58v-0.984H6.175
			C5.556,17.798,4.99,18.879,4.5,20h0.004c-0.514,1.175-0.946,2.393-1.309,3.64h0.544v0.983h0.58V23.64h0.579v-0.983h0.58v-0.983
			H4.319v-0.984h1.739v0.984h0.579v0.983h0.58v0.983h-0.58v0.983H6.059v0.983h-0.58v0.984h-0.58v0.983H4.319v0.983h-0.58v-0.983
			H3.16v-0.983H2.58v-0.438c-0.157,0.791-0.284,1.593-0.378,2.405H2.58v0.983h0.58v0.984h0.579v0.983h0.58v0.394v0.196v0.394h-0.58
			v0.983H3.16v0.983H2.58v0.984H2.203c0.093,0.813,0.22,1.614,0.377,2.405V37.41h0.58v-0.983h0.579v-0.983h0.58v0.983h0.579v0.983
			h0.58v0.983h0.58v0.983h0.579v0.984h0.58v0.983h-0.58v0.983H6.059v0.983H4.319v-0.983h1.159v-0.983h-0.58v-0.983H4.319v-0.984
			h-0.58v0.984H3.195C3.559,41.608,3.99,42.826,4.504,44H4.5c0.49,1.122,1.056,2.202,1.675,3.246h0.463v-0.983h0.58v-0.983h0.579
			v-0.984h0.58v-0.983h0.232h0.115h0.232v0.983h0.58v0.984h0.579v0.983h0.58v0.983h0.579v0.983h0.58v0.983h0.58v-0.983h0.579v-0.983
			h0.58v-0.983h0.579v-0.983h0.58v-0.984h0.58v-1.967h-0.58v-0.983h-0.58v-0.983h-0.579v-0.984h-0.58v0.984h-0.579v0.983h-0.58
			v0.983h1.159v0.983h-1.739v-0.983h-0.579v-0.983h-0.58v-0.983h0.58v-0.984h0.579v-0.983h0.58V37.41h0.58v-0.983h0.579v-0.983h0.58
			v0.983h0.579v0.983h0.58v0.983h0.58v-2.95h-0.58v-0.984h-0.58v-0.983h-0.579v-0.983h-0.58v-0.394v-0.196v-0.394h0.58v-0.983h0.579
			v-0.984h0.58v-0.983h0.58v-2.951h-0.58v0.984h-0.58v0.983h-0.579v0.983h-0.58v-0.983h-0.579v-0.983h-0.58v-0.984h-0.58v-0.983
			h-0.579V23.64h-0.58v-0.983h0.58v-0.983h0.579v-0.984h1.739v0.984h-1.159v0.983h0.58v0.983h0.579v0.983h0.58V23.64h0.579v-0.983
			h0.58v-0.983h0.58v-1.968h-0.58V18.722z M10.696,27.574v0.983h0.579v0.983h0.58v2.361v0.196v2.36h-0.58v0.984h-0.579v0.983h-0.58
			v0.983H9.537v0.983h-0.58v0.983H8.725H8.609H8.377v-0.983h-0.58V37.41H7.218v-0.983h-0.58v-0.983H6.059v-0.984h-0.58v-2.36v-0.196
			v-2.361h0.58v-0.983h0.579v-0.983h0.58v-0.983h0.579v-0.984h0.58v-0.983h0.232h0.115h0.232v0.983h0.58v0.984h0.579v0.983H10.696z"
			/>
		<polygon fill="#C8313E" points="8.725,27.574 8.957,27.574 8.957,26.591 8.725,26.591 8.609,26.591 8.377,26.591 8.377,27.574 
			8.609,27.574 		"/>
		<path fill="#C8313E" d="M7.218,48.229H6.778c0.142,0.22,0.292,0.434,0.439,0.649V48.229z"/>
		<path fill="#C8313E" d="M7.797,49.213H7.443c0.115,0.164,0.235,0.324,0.354,0.486V49.213z"/>
		<path fill="#C8313E" d="M8.377,50.197H8.173c0.068,0.09,0.135,0.182,0.204,0.271V50.197z"/>
		<rect x="14.754" y="46.263" fill="#C8313E" width="0.58" height="0.983"/>
		<polygon fill="#C8313E" points="14.754,49.213 14.174,49.213 14.174,48.229 13.595,48.229 13.595,49.213 13.015,49.213 
			13.015,50.197 12.436,50.197 12.436,51.181 13.015,51.181 13.015,52.164 13.595,52.164 13.595,53.147 14.174,53.147 
			14.174,52.164 14.754,52.164 14.754,51.181 15.334,51.181 15.334,50.197 14.754,50.197 		"/>
		<polygon fill="#C8313E" points="8.962,51.181 8.957,51.175 8.957,51.181 		"/>
		<path fill="#C8313E" d="M9.537,51.181v0.68c0.092,0.104,0.188,0.202,0.281,0.304h0.298v0.32c0.191,0.205,0.383,0.409,0.58,0.608
			v-0.929h0.579v-0.983h0.58v-0.983h-0.58v-0.984h-0.579v-0.983h-0.58v0.983H9.537v0.984h-0.58v0.978
			c0.002,0.002,0.003,0.004,0.005,0.006H9.537z"/>
		<rect x="14.754" y="54.132" fill="#C8313E" width="0.58" height="0.983"/>
		<path fill="#C8313E" d="M11.612,54c0.987,0.916,2.038,1.765,3.142,2.542v-0.443h-0.58v-0.983h-0.579v-0.983h-0.58v-0.984h-0.579
			v-0.983h-0.58v0.983h-0.58v0.509c0.118,0.113,0.232,0.232,0.353,0.344H11.612z"/>
		<polygon fill="#C8313E" points="8.609,46.263 8.377,46.263 8.377,48.229 8.609,48.229 8.725,48.229 8.957,48.229 8.957,46.263 
			8.725,46.263 		"/>
		<rect x="14.754" y="39.377" fill="#C8313E" width="0.58" height="0.984"/>
		<polygon fill="#C8313E" points="11.275,32.099 11.275,31.902 11.275,31.509 10.696,31.509 10.696,31.902 10.696,32.099 
			10.696,32.492 11.275,32.492 		"/>
		<polygon fill="#C8313E" points="8.609,36.427 8.377,36.427 8.377,37.41 8.609,37.41 8.725,37.41 8.957,37.41 8.957,36.427 
			8.725,36.427 		"/>
	</g>
	<g>
		<path fill="#83BF4F" d="M15.334,44v12.933C20.102,60.129,25.829,62,32,62c7.874,0,15.035-3.037,20.388-8h-0.016
			c3.013-2.791,5.46-6.184,7.128-10h-0.004H15.334z"/>
		<path fill="#C94747" d="M59.496,44C61.104,40.324,62,36.268,62,32s-0.896-8.324-2.504-12H59.5c-1.668-3.816-4.115-7.209-7.128-10
			h0.016C47.035,5.037,39.874,2,32,2c-6.171,0-11.898,1.871-16.666,5.066V44H59.496z"/>
	</g>
</g>
</svg>
