<?xml version="1.0" encoding="utf-8"?>
<!-- Generator: Adobe Illustrator 15.0.0, SVG Export Plug-In . SVG Version: 6.00 Build 0)  -->
<!DOCTYPE svg PUBLIC "-//W3C//DTD SVG 1.1//EN" "http://www.w3.org/Graphics/SVG/1.1/DTD/svg11.dtd">
<svg version="1.1" id="Layer_1" xmlns="http://www.w3.org/2000/svg" xmlns:xlink="http://www.w3.org/1999/xlink" x="0px" y="0px"
	 width="64px" height="64px" viewBox="0 0 64 64" enable-background="new 0 0 64 64" xml:space="preserve">
<g>
	<path fill="#FFFFFF" d="M45.227,38.756c1.031-2.033,1.625-4.322,1.625-6.756c0-2.433-0.594-4.723-1.625-6.755l10.972-10.972
		c-1.87-2.549-4.133-4.787-6.698-6.633L38.539,18.6c-2.027-1.015-4.31-1.6-6.733-1.6s-4.706,0.585-6.734,1.6L14.273,7.802
		c-2.548,1.87-4.787,4.133-6.633,6.698l10.745,10.745C17.354,27.277,16.76,29.567,16.76,32c0,2.434,0.594,4.723,1.625,6.756
		L7.64,49.5c1.847,2.566,4.085,4.828,6.633,6.699L25.072,45.4c2.028,1.016,4.31,1.6,6.734,1.6s4.706-0.584,6.733-1.6L49.5,56.359
		c2.565-1.846,4.828-4.084,6.698-6.633L45.227,38.756z"/>
	<g>
		<path fill="#ED4C5C" d="M31.806,17c2.424,0,4.706,0.585,6.733,1.6L49.5,7.641C44.573,4.095,38.533,2,32,2
			c-6.633,0-12.76,2.156-17.727,5.802L25.072,18.6C27.1,17.585,29.382,17,31.806,17z"/>
		<path fill="#83BF4F" d="M46.852,32c0,2.434-0.594,4.723-1.625,6.756l10.972,10.971C59.844,44.76,62,38.633,62,32
			s-2.156-12.76-5.802-17.727L45.227,25.245C46.258,27.277,46.852,29.567,46.852,32z"/>
		<path fill="#83BF4F" d="M16.76,32c0-2.433,0.594-4.723,1.625-6.755L7.64,14.5C4.095,19.427,2,25.467,2,32s2.095,12.574,5.64,17.5
			l10.745-10.744C17.354,36.723,16.76,34.434,16.76,32z"/>
		<path fill="#ED4C5C" d="M31.806,47c-2.424,0-4.706-0.584-6.734-1.6L14.273,56.199C19.24,59.844,25.367,62,32,62
			c6.533,0,12.573-2.094,17.5-5.641L38.539,45.4C36.512,46.416,34.229,47,31.806,47z"/>
	</g>
	<path fill="#ED4C5C" d="M34.806,25h-1.999l-1.001-2l-1,2h-1.999l0,0l0,0l1.001,2l-1.001,2h1.999l1,2l1.001-2h1.999l-1.001-2
		L34.806,25L34.806,25z"/>
	<path fill="#ED4C5C" d="M28.806,35h-1.999l-1.001-2l-1,2h-1.999l0,0l0,0l1.001,2l-1.001,2h1.999l1,2l1.001-2h1.999l-1.001-2
		L28.806,35L28.806,35z"/>
	<path fill="#ED4C5C" d="M40.806,35h-1.999l-1.002-2l-1,2h-1.999l0,0l0,0l1.001,2l-1.001,2h1.999l1,2l1.002-2h1.999l-1.001-2
		L40.806,35L40.806,35z"/>
</g>
</svg>
