<?xml version="1.0" encoding="utf-8"?>
<!-- Generator: Adobe Illustrator 15.0.0, SVG Export Plug-In . SVG Version: 6.00 Build 0)  -->
<!DOCTYPE svg PUBLIC "-//W3C//DTD SVG 1.1//EN" "http://www.w3.org/Graphics/SVG/1.1/DTD/svg11.dtd">
<svg version="1.1" id="Layer_1" xmlns="http://www.w3.org/2000/svg" xmlns:xlink="http://www.w3.org/1999/xlink" x="0px" y="0px"
	 width="64px" height="64px" viewBox="0 0 64 64" enable-background="new 0 0 64 64" xml:space="preserve">
<g>
	<path fill="#F9F9F9" d="M2,32c0,5.885,1.701,11.368,4.628,16h50.744C60.299,43.368,62,37.885,62,32s-1.701-11.368-4.628-16H6.628
		C3.701,20.632,2,26.115,2,32z"/>
	<g>
		<path fill="#B4D7EE" d="M57.372,16C52.057,7.59,42.684,2,32,2S11.943,7.59,6.628,16H57.372z"/>
		<path fill="#B4D7EE" d="M6.628,48C11.943,56.41,21.316,62,32,62s20.057-5.59,25.372-14H6.628z"/>
	</g>
	<g>
		<g>
			<g>
				<path fill="#F6B40E" d="M45.742,31.829l-8.164-0.308c-0.003-0.031-0.004-0.062-0.007-0.093c1.335-0.245,2.286-0.999,3.671-0.874
					c1.697,0.152,2.657-0.78,3.316-0.996c0.66-0.216,1.055,0.234,1.149,0.041c0.094-0.194-0.428-0.62-1.366-0.481
					c-0.938,0.138-1.217,0.851-3.289,0.683c-1.76-0.142-2.376,0.565-3.677,0.632c-0.012-0.042-0.024-0.084-0.037-0.126l7.423-3.406
					c0,0,0.238-0.099,0.172-0.258c-0.064-0.159-0.304-0.06-0.304-0.06l-7.659,2.84c-0.014-0.027-0.027-0.056-0.042-0.083
					c1.14-0.736,1.729-1.797,3.056-2.212c1.627-0.509,2.157-1.737,2.685-2.189c0.526-0.453,1.064-0.188,1.077-0.403
					c0.012-0.215-0.633-0.408-1.446,0.079c-0.814,0.487-0.8,1.252-2.778,1.89c-1.68,0.542-1.979,1.431-3.154,1.991
					c-0.027-0.034-0.055-0.067-0.084-0.101l5.555-5.989c0,0,0.184-0.183,0.063-0.305c-0.122-0.123-0.306,0.061-0.306,0.061
					l-5.989,5.555c-0.023-0.02-0.047-0.04-0.07-0.059c0.771-1.117,0.91-2.324,1.978-3.215c1.308-1.092,1.327-2.429,1.642-3.049
					c0.313-0.619,0.91-0.581,0.84-0.784s-0.74-0.135-1.305,0.626c-0.566,0.761-0.26,1.462-1.844,2.81
					c-1.344,1.144-1.277,2.079-2.149,3.047c-0.039-0.021-0.079-0.041-0.118-0.062l2.84-7.659c0,0,0.1-0.239-0.061-0.305
					C37.199,19,37.1,19.239,37.1,19.239l-3.407,7.422c-0.028-0.009-0.059-0.018-0.089-0.027c0.286-1.327-0.048-2.495,0.598-3.726
					c0.79-1.51,0.297-2.753,0.35-3.446c0.053-0.693,0.619-0.885,0.477-1.046c-0.145-0.161-0.736,0.158-0.967,1.078
					c-0.231,0.92,0.32,1.45-0.628,3.301c-0.805,1.571-0.388,2.411-0.823,3.638c-0.043-0.004-0.086-0.008-0.13-0.012l-0.307-8.164
					c0,0,0-0.258-0.172-0.258s-0.172,0.258-0.172,0.258l-0.308,8.164c-0.03,0.002-0.062,0.004-0.092,0.007
					c-0.245-1.335-1-2.286-0.875-3.671c0.152-1.697-0.78-2.657-0.996-3.317c-0.216-0.66,0.234-1.055,0.04-1.149
					c-0.194-0.094-0.619,0.428-0.479,1.366c0.138,0.938,0.85,1.217,0.683,3.29c-0.142,1.759,0.564,2.375,0.632,3.676
					c-0.042,0.012-0.084,0.024-0.125,0.037l-3.407-7.422c0,0-0.099-0.239-0.258-0.173c-0.159,0.065-0.06,0.305-0.06,0.305
					l2.839,7.658c-0.027,0.015-0.055,0.027-0.082,0.042c-0.737-1.14-1.798-1.729-2.212-3.056c-0.509-1.627-1.737-2.157-2.19-2.684
					c-0.452-0.527-0.187-1.063-0.402-1.077c-0.215-0.012-0.408,0.632,0.079,1.446c0.487,0.814,1.252,0.799,1.891,2.778
					c0.542,1.679,1.431,1.979,1.992,3.155c-0.034,0.027-0.068,0.055-0.102,0.083l-5.989-5.555c0,0-0.183-0.183-0.305-0.062
					c-0.122,0.122,0.061,0.305,0.061,0.305l5.555,5.989c-0.02,0.024-0.04,0.047-0.06,0.071c-1.117-0.772-2.324-0.911-3.215-1.978
					c-1.093-1.308-2.43-1.328-3.05-1.642c-0.619-0.313-0.58-0.91-0.784-0.84c-0.204,0.071-0.135,0.74,0.626,1.306
					c0.761,0.565,1.462,0.259,2.81,1.843c1.144,1.345,2.08,1.278,3.046,2.15c-0.021,0.039-0.041,0.079-0.062,0.118l-7.658-2.84
					c0,0-0.239-0.099-0.305,0.061C19,26.801,19.239,26.9,19.239,26.9l7.422,3.406c-0.01,0.03-0.018,0.06-0.027,0.089
					c-1.328-0.286-2.495,0.048-3.726-0.597c-1.51-0.791-2.753-0.297-3.445-0.349c-0.693-0.053-0.885-0.62-1.047-0.477
					c-0.16,0.144,0.159,0.735,1.078,0.966c0.92,0.231,1.45-0.32,3.301,0.627c1.57,0.805,2.411,0.388,3.638,0.823
					c-0.005,0.043-0.008,0.087-0.012,0.13l-8.164,0.308c0,0-0.258,0-0.258,0.172c0,0.173,0.258,0.172,0.258,0.172l8.164,0.308
					c0.003,0.031,0.004,0.062,0.007,0.092c-1.335,0.244-2.286,1-3.671,0.875c-1.697-0.152-2.657,0.779-3.317,0.996
					c-0.66,0.215-1.055-0.234-1.149-0.041c-0.094,0.194,0.428,0.619,1.366,0.48c0.938-0.139,1.217-0.85,3.29-0.683
					c1.759,0.142,2.375-0.565,3.676-0.632c0.012,0.041,0.023,0.084,0.037,0.125l-7.422,3.406c0,0-0.239,0.1-0.173,0.259
					s0.305,0.06,0.305,0.06l7.659-2.84c0.014,0.027,0.027,0.057,0.042,0.082c-1.14,0.738-1.729,1.799-3.057,2.213
					c-1.627,0.51-2.156,1.738-2.684,2.189c-0.527,0.453-1.064,0.188-1.077,0.403s0.632,0.408,1.446-0.079
					c0.814-0.486,0.799-1.252,2.778-1.891c1.68-0.542,1.979-1.431,3.155-1.99c0.027,0.033,0.055,0.066,0.083,0.1l-5.555,5.99
					c0,0-0.183,0.183-0.062,0.305c0.122,0.121,0.305-0.061,0.305-0.061l5.989-5.556c0.024,0.021,0.047,0.04,0.071,0.06
					c-0.771,1.117-0.91,2.324-1.978,3.215c-1.308,1.092-1.327,2.43-1.642,3.05c-0.313,0.619-0.911,0.58-0.84,0.784
					c0.071,0.203,0.74,0.135,1.306-0.627s0.259-1.461,1.843-2.809c1.345-1.145,1.278-2.08,2.15-3.048
					c0.039,0.022,0.079,0.042,0.118,0.062l-2.839,7.66c0,0-0.1,0.238,0.06,0.305C26.801,45,26.9,44.761,26.9,44.761l3.407-7.422
					c0.029,0.009,0.059,0.018,0.089,0.027c-0.286,1.326,0.048,2.494-0.598,3.726c-0.79,1.511-0.297,2.753-0.35,3.445
					c-0.052,0.692-0.619,0.886-0.476,1.046c0.144,0.161,0.735-0.158,0.966-1.078c0.231-0.92-0.32-1.449,0.628-3.301
					c0.804-1.57,0.387-2.41,0.823-3.639c0.043,0.006,0.087,0.008,0.13,0.013l0.307,8.163c0,0,0,0.259,0.172,0.259
					c0.173,0,0.172-0.259,0.172-0.259l0.308-8.163c0.031-0.003,0.062-0.005,0.092-0.007c0.244,1.335,0.999,2.285,0.874,3.671
					c-0.152,1.697,0.78,2.657,0.996,3.317c0.217,0.66-0.233,1.055-0.039,1.148c0.193,0.094,0.618-0.428,0.479-1.367
					c-0.138-0.938-0.851-1.217-0.683-3.289c0.142-1.758-0.564-2.375-0.633-3.676c0.042-0.012,0.084-0.023,0.126-0.037l3.406,7.422
					c0,0,0.1,0.239,0.259,0.174c0.159-0.066,0.061-0.305,0.061-0.305l-2.84-7.658c0.027-0.016,0.055-0.027,0.082-0.043
					c0.736,1.14,1.797,1.729,2.213,3.057c0.508,1.627,1.736,2.156,2.189,2.684c0.452,0.527,0.188,1.063,0.402,1.076
					s0.408-0.632-0.078-1.445c-0.488-0.814-1.253-0.799-1.892-2.778c-0.542-1.68-1.431-1.979-1.991-3.155
					c0.034-0.027,0.068-0.055,0.102-0.083l5.988,5.556c0,0,0.184,0.183,0.305,0.061c0.122-0.121-0.061-0.305-0.061-0.305
					l-5.555-5.988c0.02-0.024,0.04-0.048,0.06-0.072c1.117,0.772,2.323,0.911,3.215,1.979c1.093,1.309,2.43,1.328,3.05,1.642
					c0.619,0.313,0.58,0.911,0.784,0.841c0.204-0.072,0.136-0.74-0.626-1.307c-0.762-0.564-1.463-0.259-2.811-1.842
					c-1.143-1.346-2.079-1.278-3.047-2.15c0.021-0.039,0.043-0.078,0.063-0.119l7.658,2.841c0,0,0.239,0.099,0.305-0.06
					C45,37.198,44.762,37.1,44.762,37.1l-7.423-3.407c0.01-0.029,0.018-0.059,0.026-0.088c1.328,0.285,2.495-0.049,3.727,0.597
					c1.51,0.79,2.754,0.296,3.445,0.349c0.693,0.053,0.885,0.62,1.047,0.477c0.16-0.143-0.159-0.734-1.078-0.967
					c-0.92-0.23-1.451,0.32-3.301-0.627c-1.571-0.804-2.412-0.387-3.639-0.823c0.005-0.043,0.008-0.087,0.012-0.13l8.164-0.308
					c0,0,0.258,0,0.258-0.172C46,31.828,45.742,31.829,45.742,31.829z"/>
				<g>
					<path fill="#85340A" d="M34.974,31.269c-0.28-0.301-0.683-0.466-1.064-0.466c-0.383,0-0.749,0.166-0.964,0.511
						C33.376,31.701,34.328,31.742,34.974,31.269z M34.672,31.225c-0.164,0.179-0.364,0.285-0.573,0.328
						c0.11-0.069,0.185-0.19,0.185-0.329c0-0.131-0.065-0.246-0.164-0.316C34.4,30.954,34.633,31.089,34.672,31.225z M33.648,30.927
						c-0.085,0.071-0.141,0.177-0.141,0.297c0,0.147,0.084,0.275,0.205,0.34c-0.216-0.029-0.423-0.117-0.592-0.251
						C33.255,31.1,33.446,30.981,33.648,30.927z"/>
					<path fill="#85340A" d="M33.981,30.537L33.981,30.537c-0.56,0-0.688,0.129-0.948,0.344c-0.258,0.215-0.387,0.172-0.43,0.215
						c-0.042,0.043,0,0.172,0.086,0.129c0.086-0.043,0.259-0.129,0.517-0.345c0.259-0.215,0.517-0.215,0.775-0.215
						c0.775,0,1.206,0.646,1.292,0.603S34.843,30.537,33.981,30.537z"/>
					<polygon fill="#85340A" points="35.532,30.794 35.53,30.792 35.531,30.794 					"/>
					<path fill="#85340A" d="M32.344,30.363c-0.06,0.16-0.105,0.324-0.135,0.491c-0.113,0.64,0.008,1.312,0.351,1.965
						c0.043-0.043,0.129-0.086,0.172-0.086c-0.384-0.543-0.537-1.073-0.45-1.563c0.044-0.252,0.152-0.494,0.321-0.719
						c0.689-0.646,1.936-0.518,2.927,0.342C34.582,29.502,33.291,29.588,32.344,30.363z"/>
					<path fill="#85340A" d="M33.293,31.656c-0.346-0.172-0.431-0.258-0.517-0.258c-0.086,0-0.086,0.086,0.344,0.344
						s1.163,0.301,1.896-0.258l0,0C34.154,31.829,33.637,31.829,33.293,31.656z"/>
					<path fill="#85340A" d="M32.819,33.278c-0.137,0-0.25-0.109-0.258-0.246c-0.042,0.084-0.208,0.334-0.535,0.347
						c-0.328-0.013-0.494-0.263-0.535-0.347c-0.008,0.137-0.122,0.246-0.259,0.246c-0.144,0-0.258-0.116-0.258-0.258
						c0-0.11,0.067-0.21,0.17-0.247c-0.185,0.034-0.315,0.197-0.315,0.383c0,0.215,0.177,0.386,0.391,0.386
						c0.126,0,0.243-0.06,0.315-0.164c0.149,0.112,0.355,0.124,0.466,0.126c0.017,0,0.039,0,0.051,0
						c0.11-0.002,0.317-0.014,0.466-0.126c0.073,0.104,0.189,0.164,0.314,0.164c0.214,0,0.392-0.171,0.392-0.386
						c0-0.186-0.132-0.349-0.315-0.383c0.103,0.037,0.17,0.137,0.17,0.247C33.077,33.162,32.962,33.278,32.819,33.278z"/>
					<path fill="#85340A" d="M31.993,34.179h0.006c0.172,0,0.43-0.209,0.731-0.037s0.477,0.342,0.694,0.429
						c-0.389-0.259-0.565-0.649-0.996-0.649c-0.086,0-0.257,0.047-0.429,0.133h-0.006c-0.172-0.086-0.343-0.133-0.429-0.133
						c-0.431,0-0.602,0.391-0.989,0.649c0.215-0.087,0.385-0.257,0.687-0.429C31.564,33.97,31.821,34.179,31.993,34.179z"/>
					<path fill="#85340A" d="M31.999,34.481h-0.006c-0.161,0-0.29-0.063-0.573-0.05c-0.167,0.007-0.387,0.041-0.701,0.134
						c-0.044,0-0.091,0-0.142,0.005c0.905,0.086,0.47,0.604,1.417,0.604H32c0.947,0,0.519-0.519,1.424-0.604
						c-0.059-0.005-0.113-0.009-0.162-0.009C32.426,34.315,32.254,34.481,31.999,34.481z M32,35.044h-0.006
						c-0.727,0-0.503-0.488-1.253-0.48c-0.004,0-0.01,0.002-0.014,0.002c0.753-0.161,0.925,0.092,1.266,0.092h0.006
						c0.339,0,0.511-0.25,1.251-0.096C32.512,34.558,32.724,35.044,32,35.044z"/>
					<path fill="#85340A" d="M32,35.188c-0.428,0-0.775,0.349-0.775,0.776c0.085-0.359,0.407-0.613,0.775-0.613
						c0.37,0,0.69,0.254,0.775,0.613C32.776,35.536,32.429,35.188,32,35.188z"/>
					<polygon fill="#85340A" points="28.519,30.794 28.519,30.794 28.521,30.792 					"/>
					<path fill="#85340A" d="M31.448,30.45c0.168,0.226,0.277,0.467,0.321,0.719c0.086,0.491-0.067,1.021-0.451,1.563
						c0.043,0,0.13,0.043,0.173,0.086c0.342-0.653,0.463-1.325,0.351-1.965c-0.029-0.167-0.075-0.331-0.135-0.491
						c-0.947-0.775-2.239-0.861-3.186,0.429C29.51,29.933,30.759,29.804,31.448,30.45z"/>
					<path fill="#85340A" d="M30.845,30.881c0.258,0.215,0.431,0.301,0.517,0.345c0.085,0.043,0.129-0.086,0.085-0.129
						c-0.043-0.043-0.171,0-0.431-0.215c-0.258-0.215-0.387-0.344-0.947-0.344l0,0c-0.861,0-1.378,0.689-1.292,0.732
						c0.086,0.043,0.517-0.603,1.292-0.603C30.328,30.666,30.585,30.666,30.845,30.881z"/>
					<path fill="#85340A" d="M29.078,31.313c0.23,0.207,0.608,0.313,1.009,0.298c0.002,0,0.004,0.001,0.005,0.001
						c0.004,0,0.008-0.001,0.012-0.001c0.345-0.017,0.706-0.125,1.002-0.342c-0.28-0.301-0.683-0.466-1.065-0.466
						C29.66,30.802,29.293,30.968,29.078,31.313z M29.255,31.313c0.152-0.244,0.38-0.364,0.615-0.405
						c-0.1,0.07-0.165,0.185-0.165,0.316c0,0.154,0.091,0.286,0.222,0.349C29.683,31.556,29.444,31.464,29.255,31.313z
						 M30.804,31.225c-0.137,0.15-0.3,0.249-0.472,0.302c0.09-0.071,0.148-0.18,0.148-0.303c0-0.122-0.057-0.229-0.145-0.3
						C30.578,30.981,30.77,31.103,30.804,31.225z"/>
					<path fill="#85340A" d="M31.274,31.398c-0.086,0-0.172,0.086-0.517,0.258s-0.861,0.172-1.723-0.172l0,0
						c0.732,0.56,1.464,0.517,1.895,0.258C31.361,31.484,31.361,31.398,31.274,31.398z"/>
				</g>
			</g>
		</g>
	</g>
</g>
</svg>
