<?xml version="1.0" encoding="utf-8"?>
<!-- Generator: Adobe Illustrator 15.0.0, SVG Export Plug-In . SVG Version: 6.00 Build 0)  -->
<!DOCTYPE svg PUBLIC "-//W3C//DTD SVG 1.1//EN" "http://www.w3.org/Graphics/SVG/1.1/DTD/svg11.dtd">
<svg version="1.1" id="Layer_1" xmlns="http://www.w3.org/2000/svg" xmlns:xlink="http://www.w3.org/1999/xlink" x="0px" y="0px"
	 width="64px" height="64px" viewBox="0 0 64 64" enable-background="new 0 0 64 64" xml:space="preserve">
<g>
	<circle fill="#699635" cx="32" cy="32" r="30"/>
	<path fill="#FFCE31" d="M35.554,39.937c-4.384,0-7.937-3.554-7.937-7.937c0-4.384,3.553-7.937,7.937-7.937
		c1.278,0,2.468,0.331,3.538,0.868c-1.721-1.594-4.016-2.576-6.547-2.576c-5.326,0-9.645,4.318-9.645,9.645
		c0,5.327,4.318,9.646,9.645,9.646c2.532,0,4.828-0.983,6.549-2.579C38.024,39.604,36.833,39.937,35.554,39.937z"/>
	<circle fill="#FFCE31" cx="13.141" cy="23.741" r="9"/>
	<path fill="#802000" d="M12.52,30.527h2.248c0,0,0.102-0.206-0.023-0.31c-0.124-0.103-0.607-0.125-0.476-0.49
		c0.268-0.748,0.305-0.518,0.474-2.296c0.168-1.779,0.25-4.57,0.25-4.57h-0.325c0,0,0.063,0.868-0.125,1.998
		c-0.188,1.129-0.244,1.229-0.45,2.097c-0.206,0.868-0.237,0.942-0.424,1.448c-0.187,0.506-0.206,0.53-0.499,0.998
		c-0.294,0.469-0.188,0.295-0.35,0.574c-0.081,0.142-0.181,0.104-0.235,0.206C12.529,30.286,12.52,30.527,12.52,30.527z"/>
	<path fill="#699635" d="M14.234,17.185c0.019,0.35-0.016,0.811-0.161,1.187c-0.146,0.419-0.306,0.836-0.298,1.271
		c-0.233,0.079-0.474-0.505-0.698-0.161c0.168,0.474,0.558,0.85,0.825,1.278c0.045,0.133,0.429,0.479,0.207,0.559
		c-0.561-0.192-0.697-0.902-1.045-1.333c-0.404-0.726-1.157-1.239-1.996-1.275c-0.316,0.009-1.34-0.078-1.074,0.461
		c0.394,0.267,0.877,0.441,1.265,0.741c0.29,0.027,0.813,0.509,0.782,0.691c-0.508-0.206-0.746-0.452-1.293-0.669
		c-0.742-0.286-1.768-0.114-2.178,0.622c-0.078,0.192-0.19,0.75,0.051,0.804c0.281-0.44,0.684-0.931,1.28-0.799
		c0.469,0.036-0.522,0.873-0.144,0.704c0.12-0.053,0.397-0.234,0.59-0.254c0.193-0.019,0.3,0.126,0.446,0.146
		c0.292,0.041,0.372,0.162,0.345,0.234c-0.032,0.083-0.125,0.012-0.421,0.106c-0.148,0.047-0.226,0.177-0.399,0.237
		s-0.533,0.064-0.668,0.011c-0.471-0.204-1.243-0.168-1.389,0.421c0,0.259-0.231-0.029-0.338,0.083
		c-0.08,0.283-0.101,0.574-0.521,0.549c-0.255,0.267-0.516,0.544-0.839,0.734c0.189,0.437,0.942-0.438,0.907-0.069
		c-0.329,0.448,0.169,0.543,0.387,0.198c0.369-0.39,0.826-0.864,1.376-0.471c0.262,0.247,0.416-0.13,0.604-0.11
		c0.12,0.307,0.27,0.014,0.406-0.072c0.223-0.027,0.159,0.277,0.424,0.089c0.526-0.348,1.173-0.056,1.686-0.394
		c0.547-0.25,0.078,0.201-0.073,0.377c-0.24,0.466-0.033,1.078-0.553,1.367c-0.209,0.556,0.247,1.288-0.219,1.7
		c-0.067,0.257,0.599,0.228,0.787,0.333c0.328,0.014-0.014-0.75,0.312-0.853c0.436,0.271,0.415-0.483,0.325-0.715
		c0.042-0.528,0.072-1.105,0.335-1.583c0.279-0.587,0.537,0.239,0.225,0.471c-0.177,0.539-0.436,1.213-0.033,1.715
		c0.116,0.025,0.211,0.308,0.362,0.394c0.151,0.087,0.356-0.022,0.394-0.278c0.193-0.771,0.096-1.602,0.372-2.353
		c0.195-0.232,0.463-0.038,0.584,0.176c0.386,0.449,0.658,1.01,1.125,1.379c0.426,0.2,0.802,0.501,1,0.939
		c-0.003,0.338,0.96,0.391,0.672,0.014c-0.275-0.366-0.093-0.732,0.186-0.976c0.15,0.038,0.106-0.231-0.011-0.125
		c-0.188-0.044-0.201-0.389,0.061-0.226c0.44,0.143-0.034-0.318-0.194-0.333c-0.372-0.231-0.8-0.496-0.983-0.897
		c0.485,0.004,0.989,0.266,1.484,0.104c0.396-0.204,0.8,0.018,0.939,0.367c0.307-0.049,0.176-0.356,0-0.459
		c0.225-0.093,0.379-0.285,0.107-0.455c-0.145-0.188,0.193-0.507-0.221-0.494c0.013-0.316-0.111-0.605-0.456-0.714
		c-0.345-0.292-1.358,0.43-1.328-0.229c-0.103-0.358,0.411-0.048,0.554-0.227c0.148-0.378-0.706-0.341-0.424-0.634
		c0.184-0.119,1.048-0.289,0.371-0.416c-0.338,0.092-0.628,0.024-0.895-0.144c-0.243,0.406-0.936-0.22-0.812,0.501
		c-0.095,0.272-0.714,0.979-0.882,0.437c0.144-0.424,0.876-0.563,0.649-1.135c-0.035-0.357-0.331,0.063-0.47,0.036
		c-0.07-0.222,0.213-0.484,0.411-0.537c0.394,0.303,0.406-0.381,0.779-0.325c0.272-0.061-0.088-0.178-0.165-0.229
		c0.075-0.2,0.495-0.302,0.083-0.476c-0.363-0.269-0.631,0.268-0.93,0.296c-0.288-0.324,0.261-0.479,0.412-0.65
		c0.008-0.126-0.32-0.038-0.221-0.149c0.085-0.153,0.665-0.164,0.394-0.394c-0.409-0.14-0.937-0.105-1.33,0.076
		c-0.247,0.08-0.319,0.639-0.532,0.616C14.444,17.748,14.577,17.257,14.234,17.185L14.234,17.185z M16.167,22.644
		c0.313-0.053,0.007,0.473-0.143,0.465c0.014-0.188-0.45-0.17-0.162-0.335C15.955,22.713,16.059,22.667,16.167,22.644z"/>
	<polygon fill="#FFCE31" points="48.152,42.865 48.67,44.476 50.254,43.877 49.316,45.287 50.771,46.15 49.084,46.298 
		49.318,47.975 48.152,46.747 46.984,47.975 47.219,46.298 45.531,46.15 46.986,45.287 46.049,43.877 47.633,44.476 	"/>
	<polygon fill="#FFCE31" points="38.743,27.968 39.262,29.58 40.846,28.98 39.908,30.391 41.363,31.255 39.677,31.401 
		39.909,33.078 38.743,31.851 37.577,33.078 37.81,31.401 36.123,31.255 37.578,30.391 36.641,28.98 38.225,29.58 	"/>
	<polygon fill="#FFCE31" points="48.152,17.776 48.67,19.388 50.254,18.789 49.316,20.198 50.771,21.063 49.084,21.209 
		49.318,22.886 48.152,21.659 46.984,22.886 47.219,21.209 45.531,21.063 46.986,20.198 46.049,18.789 47.633,19.388 	"/>
	<polygon fill="#FFCE31" points="56.514,25.459 57.033,27.071 58.615,26.472 57.68,27.882 59.135,28.746 57.447,28.893 
		57.682,30.569 56.514,29.342 55.348,30.569 55.58,28.893 53.893,28.746 55.35,27.882 54.412,26.472 55.996,27.071 	"/>
	<polygon fill="#FFCE31" points="51.914,33.009 52.324,34.014 53.406,34.092 52.578,34.792 52.836,35.846 51.914,35.273 
		50.994,35.846 51.252,34.792 50.424,34.092 51.506,34.014 	"/>
</g>
</svg>
