<?xml version="1.0" encoding="utf-8"?>
<!-- Generator: Adobe Illustrator 15.0.0, SVG Export Plug-In . SVG Version: 6.00 Build 0)  -->
<!DOCTYPE svg PUBLIC "-//W3C//DTD SVG 1.1//EN" "http://www.w3.org/Graphics/SVG/1.1/DTD/svg11.dtd">
<svg version="1.1" id="Layer_1" xmlns="http://www.w3.org/2000/svg" xmlns:xlink="http://www.w3.org/1999/xlink" x="0px" y="0px"
	 width="64px" height="64px" viewBox="0 0 64 64" enable-background="new 0 0 64 64" xml:space="preserve">
<g>
	<g>
		<path fill="#ED4C5C" d="M11.192,53.6C16.587,58.797,23.917,62,32,62c8.084,0,15.415-3.203,20.809-8.4H11.192z"/>
		<path fill="#ED4C5C" d="M52.809,10.4C47.414,5.202,40.082,2,32,2c-8.082,0-15.413,3.202-20.807,8.4H52.809z"/>
		<path fill="#007168" d="M5.377,45.822L32,32L5.377,18.176C3.224,22.314,2,27.013,2,32C2,36.986,3.224,41.686,5.377,45.822z"/>
		<path fill="#007168" d="M62,32c0-4.987-1.223-9.686-3.377-13.824L32,32l26.624,13.822C60.777,41.686,62,36.986,62,32z"/>
		<path fill="#FFCE31" d="M58.623,45.822L32,32L5.377,45.822c1.51,2.904,3.48,5.527,5.815,7.777h41.616
			C55.143,51.35,57.113,48.727,58.623,45.822z"/>
		<path fill="#FFCE31" d="M5.377,18.176L32,32l26.624-13.824c-1.51-2.903-3.48-5.526-5.814-7.776H11.193
			C8.857,12.65,6.888,15.273,5.377,18.176z"/>
	</g>
	<circle fill="#ED4C5C" cx="32" cy="32" r="9"/>
	<g>
		<path fill="#CE1126" d="M8.285,34.414c0.774,0.803,1.64,1.475,2.448,1.814c0.013-0.887-0.147-1.904-0.417-2.92
			c-0.685-0.64-1.456-1.188-2.213-1.477C7.993,32.644,8.075,33.545,8.285,34.414z"/>
		<path fill="#FFCE31" d="M5.022,26.326c1.306,2.722-3.387,9.215,4.431,10.738c-0.516-0.705-0.928-1.654-1.169-2.65
			c-0.209-0.869-0.292-1.771-0.182-2.582c0.757,0.288,1.528,0.837,2.213,1.477c0.797,0.746,1.475,1.617,1.851,2.369
			C14.212,28.248,6.918,28.7,5.022,26.326z"/>
	</g>
	<polygon fill="#FFCE31" points="21.958,4.856 22.548,6.672 24.458,6.672 22.914,7.795 23.503,9.611 21.958,8.489 20.414,9.611 
		21.003,7.795 19.458,6.672 21.369,6.672 	"/>
	<polygon fill="#FFCE31" points="22.958,54.1 23.548,55.914 25.458,55.914 23.914,57.037 24.503,58.854 22.958,57.732 
		21.414,58.854 22.003,57.037 20.458,55.914 22.369,55.914 	"/>
	<polygon fill="#FFCE31" points="32,23 33.932,29.254 40.188,29.254 35.129,33.117 37.063,39.375 32,35.508 26.941,39.375 
		28.873,33.117 23.812,29.254 30.068,29.254 	"/>
	<polygon fill="#FFCE31" points="31.958,4.855 32.548,6.672 34.459,6.672 32.914,7.795 33.504,9.611 31.958,8.489 30.414,9.611 
		31.003,7.795 29.458,6.672 31.369,6.672 	"/>
	<polygon fill="#FFCE31" points="41.959,4.856 42.549,6.672 44.459,6.672 42.914,7.795 43.504,9.611 41.959,8.489 40.414,9.611 
		41.004,7.795 39.459,6.672 41.369,6.672 	"/>
</g>
</svg>
