<?xml version="1.0" encoding="utf-8"?>
<!-- Generator: Adobe Illustrator 15.0.0, SVG Export Plug-In . SVG Version: 6.00 Build 0)  -->
<!DOCTYPE svg PUBLIC "-//W3C//DTD SVG 1.1//EN" "http://www.w3.org/Graphics/SVG/1.1/DTD/svg11.dtd">
<svg version="1.1" id="Layer_1" xmlns="http://www.w3.org/2000/svg" xmlns:xlink="http://www.w3.org/1999/xlink" x="0px" y="0px"
	 width="64px" height="64px" viewBox="0 0 64 64" enable-background="new 0 0 64 64" xml:space="preserve">
<g>
	<g>
		<g>
			<path fill="#2A5F9E" d="M22,60.285V46.469L11.687,54.07C14.639,56.789,18.138,58.92,22,60.285z"/>
			<path fill="#2A5F9E" d="M42,60.285c3.875-1.369,7.383-3.51,10.341-6.24l-10.339-7.598L42,60.285z"/>
			<path fill="#2A5F9E" d="M3.714,42c0.347,0.979,0.739,1.936,1.182,2.865L8.785,42H3.714z"/>
			<path fill="#2A5F9E" d="M55.212,42l3.893,2.867c0.442-0.93,0.835-1.889,1.182-2.867H55.212z"/>
		</g>
		<g>
			<path fill="#FFFFFF" d="M23.457,38h-9.243H2.602c0.277,1.369,0.654,2.703,1.112,4h5.071l-3.89,2.865
				c0.787,1.656,1.726,3.227,2.791,4.697L18.002,42h0.044H22v2.049v0.021l-11.707,8.623c0.451,0.473,0.913,0.934,1.394,1.377
				L22,46.469v13.816c1.295,0.459,2.63,0.834,4,1.113V43.52v-2.395v-0.014V38h-2.523H23.457z"/>
			<path fill="#FFFFFF" d="M61.398,38H49.781h-2.985h-0.003h-6.762h-0.005H38v5.506v17.893c1.37-0.277,2.705-0.654,4-1.113
				l0.002-13.838l10.339,7.598c1.38-1.273,2.641-2.672,3.762-4.184L45.448,42h0.014h6.757l6.063,4.469v0.002
				c0.29-0.525,0.564-1.061,0.823-1.604L55.212,42h5.074C60.744,40.703,61.121,39.369,61.398,38z"/>
		</g>
		<g>
			<path fill="#ED4C5C" d="M7.719,49.607c0.779,1.076,1.635,2.096,2.548,3.057c0.009,0.01,0.018,0.02,0.026,0.029L22,44.07v-0.021
				V42h-3.954L7.719,49.607z"/>
			<path fill="#ED4C5C" d="M45.462,42l10.651,7.846c0.371-0.5,0.723-1.014,1.062-1.537c0.052-0.08,0.103-0.16,0.153-0.24
				c0.332-0.523,0.652-1.055,0.953-1.6L52.219,42H45.462z"/>
		</g>
	</g>
	<g>
		<g>
			<path fill="#2A5F9E" d="M42,3.713v13.817l10.313-7.602C49.36,7.21,45.861,5.08,42,3.713z"/>
			<path fill="#2A5F9E" d="M22,3.713c-3.875,1.369-7.383,3.51-10.341,6.24l10.339,7.599L22,3.713z"/>
			<path fill="#2A5F9E" d="M60.286,22c-0.347-0.979-0.739-1.937-1.182-2.866L55.214,22H60.286z"/>
			<path fill="#2A5F9E" d="M8.788,22l-3.893-2.867C4.453,20.062,4.061,21.02,3.714,22H8.788z"/>
		</g>
		<g>
			<path fill="#FFFFFF" d="M40.542,26h9.243h11.613c-0.278-1.37-0.654-2.704-1.112-4h-5.072l3.891-2.866
				c-0.788-1.656-1.726-3.226-2.791-4.697L45.997,22h-0.044H42v-2.049v-0.021l11.706-8.623c-0.45-0.473-0.913-0.935-1.394-1.377
				L42,17.531V3.713c-1.296-0.458-2.63-0.834-4-1.112V20.48v2.395v0.013V26h2.523H40.542z"/>
			<path fill="#FFFFFF" d="M2.602,26h11.617h2.985h0.003h6.762h0.005H26v-5.506V2.601c-1.37,0.277-2.705,0.654-4,1.112
				l-0.002,13.839L11.659,9.954c-1.38,1.273-2.641,2.673-3.762,4.184l10.654,7.861h-0.014L11.781,22l-6.063-4.47v-0.001
				c-0.29,0.525-0.564,1.06-0.823,1.604L8.788,22H3.714C3.256,23.295,2.879,24.629,2.602,26z"/>
		</g>
		<g>
			<path fill="#ED4C5C" d="M56.281,14.392c-0.779-1.076-1.635-2.097-2.549-3.057c-0.009-0.01-0.017-0.02-0.025-0.029L42,19.929
				v0.021V22h3.953L56.281,14.392z"/>
			<path fill="#ED4C5C" d="M18.538,21.999L7.887,14.153c-0.371,0.5-0.723,1.015-1.062,1.538C6.773,15.77,6.723,15.85,6.672,15.93
				c-0.332,0.523-0.652,1.055-0.953,1.6L11.781,22L18.538,21.999z"/>
			<path fill="#ED4C5C" d="M61.398,26H49.785h-9.243h-0.019H38v-3.112v-0.013V20.48V2.601C36.061,2.208,34.055,2,32,2
				s-4.062,0.208-6,0.602v17.893V26h-2.026h-0.005h-6.762h-0.003h-2.985H2.602C2.208,27.938,2,29.945,2,32
				c0,2.055,0.207,4.061,0.602,6h11.612h9.243h0.02H26v3.111v0.014v2.395v17.879C27.938,61.791,29.945,62,32,62s4.062-0.209,6-0.602
				V43.506V38h2.026h0.005h6.762h0.003h2.985h11.617C61.792,36.061,62,34.055,62,32C62,29.945,61.792,27.938,61.398,26z"/>
		</g>
	</g>
</g>
</svg>
