<?xml version="1.0" encoding="utf-8"?>
<!-- Generator: Adobe Illustrator 15.0.0, SVG Export Plug-In . SVG Version: 6.00 Build 0)  -->
<!DOCTYPE svg PUBLIC "-//W3C//DTD SVG 1.1//EN" "http://www.w3.org/Graphics/SVG/1.1/DTD/svg11.dtd">
<svg version="1.1" id="Layer_1" xmlns="http://www.w3.org/2000/svg" xmlns:xlink="http://www.w3.org/1999/xlink" x="0px" y="0px"
	 width="64px" height="64px" viewBox="0 0 64 64" enable-background="new 0 0 64 64" xml:space="preserve">
<g>
	<path fill="#ED4C5C" d="M61.182,25C58.026,11.81,46.168,2,32.011,2c-0.335,0-0.667,0.015-1,0.025V25H61.182z"/>
	<path fill="#ED4C5C" d="M17.011,6.023C9.993,10.084,4.777,16.902,2.84,25h14.17V6.023z"/>
	<path fill="#ED4C5C" d="M2.84,39c1.937,8.098,7.153,14.916,14.17,18.977V39H2.84z"/>
	<path fill="#ED4C5C" d="M31.011,61.975c0.333,0.011,0.665,0.025,1,0.025c14.157,0,26.016-9.81,29.171-23H31.011V61.975z"/>
	<path fill="#FFFFFF" d="M61.182,25H31.011V2.025c-5.09,0.167-9.857,1.601-14,3.998V25H2.84c-0.537,2.247-0.83,4.589-0.83,7
		s0.292,4.754,0.83,7h14.17v18.977c4.143,2.397,8.91,3.831,14,3.998V39h30.171c0.537-2.246,0.829-4.589,0.829-7
		S61.719,27.247,61.182,25z"/>
</g>
</svg>
