<?xml version="1.0" encoding="utf-8"?>
<!-- Generator: Adobe Illustrator 15.0.0, SVG Export Plug-In . SVG Version: 6.00 Build 0)  -->
<!DOCTYPE svg PUBLIC "-//W3C//DTD SVG 1.1//EN" "http://www.w3.org/Graphics/SVG/1.1/DTD/svg11.dtd">
<svg version="1.1" id="Layer_1" xmlns="http://www.w3.org/2000/svg" xmlns:xlink="http://www.w3.org/1999/xlink" x="0px" y="0px"
	 width="64px" height="64px" viewBox="0 0 64 64" enable-background="new 0 0 64 64" xml:space="preserve">
<g>
	<g>
		<path fill="#699635" d="M53.127,10.699c-11.695-11.6-30.561-11.6-42.256,0L32,26.953L53.127,10.699z"/>
		<path fill="#699635" d="M10.871,53.301c11.695,11.599,30.561,11.599,42.256,0L32,37.047L10.871,53.301z"/>
		<path fill="#3E4347" d="M58.01,46.962c5.32-9.233,5.32-20.689,0-29.924L38.561,32L58.01,46.962z"/>
		<path fill="#3E4347" d="M5.988,17.038c-5.318,9.234-5.318,20.69,0,29.924L25.438,32L5.988,17.038z"/>
	</g>
	<path fill="#FFE62E" d="M53.127,10.699L32,26.952L10.871,10.699c-1.895,1.88-3.535,4.014-4.879,6.342L25.438,32L5.994,46.959
		c1.344,2.329,2.982,4.463,4.879,6.342L32,37.047l21.125,16.254c1.896-1.879,3.537-4.013,4.881-6.342L38.561,32l19.445-14.959
		C56.664,14.713,55.023,12.579,53.127,10.699z"/>
</g>
</svg>
