<?xml version="1.0" encoding="utf-8"?>
<!-- Generator: Adobe Illustrator 15.0.0, SVG Export Plug-In . SVG Version: 6.00 Build 0)  -->
<!DOCTYPE svg PUBLIC "-//W3C//DTD SVG 1.1//EN" "http://www.w3.org/Graphics/SVG/1.1/DTD/svg11.dtd">
<svg version="1.1" id="Layer_1" xmlns="http://www.w3.org/2000/svg" xmlns:xlink="http://www.w3.org/1999/xlink" x="0px" y="0px"
	 width="64px" height="64px" viewBox="0 0 64 64" enable-background="new 0 0 64 64" xml:space="preserve">
<g>
	<g>
		<path fill="#FFFFFF" d="M6.628,16C3.701,20.632,2,26.115,2,32h60c0-5.885-1.701-11.368-4.628-16H6.628z"/>
		<path fill="#699635" d="M57.372,48C60.299,43.369,62,37.885,62,32H2c0,5.885,1.701,11.369,4.628,16H57.372z"/>
	</g>
	<path fill="#FFE62E" d="M6.628,48c3.937,6.229,10.102,10.902,17.373,12.912h15.998c7.271-2.01,13.437-6.684,17.373-12.912H6.628z"
		/>
	<path fill="#2A5F9E" d="M39.999,3.088H24.001C16.729,5.098,10.564,9.771,6.628,16h50.744C53.436,9.771,47.271,5.098,39.999,3.088z"
		/>
	<path fill="#F42F4C" d="M40,3.088C37.452,2.384,34.771,2,32,2s-5.452,0.384-8,1.088v57.824C26.548,61.617,29.229,62,32,62
		s5.452-0.383,8-1.088V3.088z"/>
	<polygon fill="#FFE62E" points="18,11.593 19.854,13 19.154,10.711 21,9.291 18.715,9.285 18,7 17.286,9.285 15,9.291 
		16.846,10.711 16.145,13 	"/>
</g>
</svg>
