<?xml version="1.0" encoding="utf-8"?>
<!-- Generator: Adobe Illustrator 15.0.0, SVG Export Plug-In . SVG Version: 6.00 Build 0)  -->
<!DOCTYPE svg PUBLIC "-//W3C//DTD SVG 1.1//EN" "http://www.w3.org/Graphics/SVG/1.1/DTD/svg11.dtd">
<svg version="1.1" id="Layer_1" xmlns="http://www.w3.org/2000/svg" xmlns:xlink="http://www.w3.org/1999/xlink" x="0px" y="0px"
	 width="64px" height="64px" viewBox="0 0 64 64" enable-background="new 0 0 64 64" xml:space="preserve">
<g>
	<path fill="#428BC1" d="M56,14H32v6h27.496C58.561,17.859,57.387,15.845,56,14z"/>
	<g>
		<path fill="#F9F9F9" d="M32,14h24c-1.706-2.271-3.729-4.293-6-6H32V14z"/>
		<path fill="#F9F9F9" d="M59.496,20H32v6h29.398C60.975,23.912,60.33,21.906,59.496,20z"/>
		<path fill="#428BC1" d="M4.504,44h54.992c0.834-1.906,1.479-3.912,1.902-6H2.602C3.025,40.088,3.67,42.094,4.504,44z"/>
		<path fill="#F9F9F9" d="M8,50h48c1.387-1.846,2.561-3.859,3.496-6H4.504C5.439,46.141,6.613,48.154,8,50z"/>
		<path fill="#428BC1" d="M8,50c1.706,2.271,3.729,4.293,6,6h36c2.271-1.707,4.294-3.729,6-6H8z"/>
		<path fill="#F9F9F9" d="M14,56c5.014,3.766,11.246,6,18,6s12.986-2.234,18-6H14z"/>
	</g>
	<path fill="#F9F9F9" d="M20,32V20h12v-6H20V4.503c-2.146,0.938-4.151,2.129-6,3.519V14H8.018c-1.389,1.846-2.566,3.859-3.505,6H14
		v12H2c0,2.055,0.207,4.061,0.602,6h58.797C61.793,36.061,62,34.055,62,32H20z"/>
	<path fill="#428BC1" d="M61.398,26H32v-6H20v12h12h30C62,29.945,61.793,27.939,61.398,26z"/>
	<path fill="#428BC1" d="M32,2c-4.268,0-8.324,0.896-12,2.504V14h12V8h18C44.986,4.233,38.754,2,32,2z"/>
	<path fill="#428BC1" d="M14,14V8c-2.271,1.707-4.294,3.729-6,6H14z"/>
	<path fill="#428BC1" d="M4.504,20C2.896,23.675,2,27.732,2,32h12V20H4.504z"/>
</g>
</svg>
