<?xml version="1.0" encoding="utf-8"?>
<!-- Generator: Adobe Illustrator 15.0.0, SVG Export Plug-In . SVG Version: 6.00 Build 0)  -->
<!DOCTYPE svg PUBLIC "-//W3C//DTD SVG 1.1//EN" "http://www.w3.org/Graphics/SVG/1.1/DTD/svg11.dtd">
<svg version="1.1" id="Layer_1" xmlns="http://www.w3.org/2000/svg" xmlns:xlink="http://www.w3.org/1999/xlink" x="0px" y="0px"
	 width="64px" height="64px" viewBox="0 0 64 64" enable-background="new 0 0 64 64" xml:space="preserve">
<g>
	<g>
		<path fill="#ED4C5C" d="M32,2C18.939,2,7.833,10.35,3.714,22h56.572C56.167,10.35,45.061,2,32,2z"/>
		<path fill="#3E4347" d="M32,62c13.061,0,24.167-8.35,28.286-20H3.714C7.833,53.65,18.939,62,32,62z"/>
		<path fill="#F9F9F9" d="M3.714,22C2.607,25.128,2,28.492,2,32c0,3.507,0.607,6.871,1.714,10h56.572C61.393,38.871,62,35.507,62,32
			c0-3.508-0.607-6.872-1.714-10H3.714z"/>
	</g>
	<g>
		<path fill="none" d="M31.998,34.684L31.998,34.684c-0.136-0.104-0.261-0.21-0.381-0.318l-0.744,3.383
			c0.371,0.015,0.751,0.027,1.126,0.044c0.377,0,0.76-0.005,1.133-0.019l-0.75-3.41C32.261,34.472,32.134,34.579,31.998,34.684z"/>
		<g>
			<path fill="#FFFFFF" d="M30.579,25.134c0.274-0.22,0.514-0.02,0.68,0.22c0.146,0.21,0.136,0.806-0.074,1.502
				c-0.123,0.408-0.364,0.815-0.555,1.097c0.443-0.019,0.902-0.121,1.37-0.293c0.467,0.171,0.923,0.273,1.364,0.293
				c-0.215-0.426-0.375-1.166-0.348-1.793c0.036-0.881-0.126-1.228-0.256-1.357c-0.165-0.165-0.696-0.311-1.045-0.33
				c-0.198-0.01-0.166,0.149-0.166,0.149c-0.365-0.094-0.732-0.13-0.896-0.02C30.497,24.706,30.465,25.224,30.579,25.134z"/>
			<path fill="#FFFFFF" d="M37.294,28.13c-0.193-1.144-1.348-0.822-2.201-0.334c-0.37,0.237-0.762,0.378-1.168,0.438
				c-0.106,0.016-0.214,0.027-0.321,0.032c-0.515,0.022-1.052-0.075-1.604-0.269c-0.549,0.193-1.084,0.29-1.595,0.269
				c-0.055-0.003-0.109-0.007-0.164-0.012c-0.467-0.043-0.914-0.189-1.334-0.458c-0.822-0.47-1.922-0.785-2.176,0.214
				c0.195-0.125,0.439-0.26,0.549-0.26l-0.404,9.632l0.2-0.182l0.416-9.3c0.138,0.137,0.549,0.475,0.623,0.549v0l-0.347,8.123
				l0.277-0.252l0.344-7.658c0.137,0.137,0.41,0.337,0.484,0.412l0,0l-0.27,6.741l0.764-0.693l0.771-2.733
				c-0.704-1.494-0.602-2.815-0.602-2.815c0.067,0.015,0.138,0.021,0.209,0.021c0.49,0,1.6-0.275,2.1-0.592
				c0.074-0.047,0.135-0.094,0.178-0.142c0.04,0.052,0.097,0.102,0.165,0.151c0.478,0.336,1.57,0.583,2.064,0.583
				c0.071,0,0.139-0.007,0.21-0.021c0,0,0.1,1.319-0.603,2.813l0.745,2.646l0.795,0.737l-0.266-6.629l0,0
				c0.073-0.074,0.343-0.27,0.477-0.405l0.337,7.543l0.272,0.253l-0.341-8.004v0c0.074-0.074,0.477-0.405,0.611-0.54l0.41,9.176
				l0.196,0.183l-0.398-9.507C36.817,27.838,37.097,28,37.294,28.13z"/>
			<path fill="#FFFFFF" d="M31.122,29.654v3.457v0.315c0.017,0.021,0.032,0.04,0.049,0.06c0.023,0.027,0.048,0.055,0.071,0.082
				c0.14,0.16,0.29,0.313,0.449,0.459c0.099,0.091,0.2,0.179,0.307,0.263c0.106-0.085,0.21-0.174,0.31-0.266
				c0.18-0.164,0.348-0.338,0.503-0.521c0.005-0.007,0.01-0.013,0.015-0.02v-0.105v-0.21v-3.521
				c-0.326-0.104-0.628-0.238-0.811-0.395C31.813,29.405,31.478,29.545,31.122,29.654z"/>
		</g>
		<path fill="#C09300" d="M36.337,37.863c0-0.463-0.462-0.521-0.854-0.392c-0.055,0.019-0.114,0.036-0.176,0.052l-0.616-2.188
			l3.28,3.195l-0.421-10.442c-0.062-1.582-1.372-1.219-2.323-0.648c-0.451,0.304-0.933,0.463-1.436,0.505
			c-0.683-1.241-0.305-2.765-0.801-3.212c-0.233-0.21-0.939-0.475-1.381-0.502c-0.251-0.014-0.21,0.21-0.21,0.21
			c-0.463-0.133-0.896-0.078-1.104,0.078c-0.197,0.146-0.003,1.076,0.141,0.948c0.349-0.312,0.416-0.225,0.625,0.114
			c0.172,0.278-0.216,1.477-0.703,2.375c-0.557-0.021-1.09-0.181-1.585-0.515c-0.952-0.571-2.262-0.934-2.324,0.648L26.028,38.53
			l3.251-3.094l-0.588,2.086c-0.061-0.017-0.12-0.032-0.176-0.051c-0.391-0.13-0.854-0.071-0.854,0.392
			c-0.569-0.123-0.817,0.777-0.2,0.982c0,0.262,0,0.463,0.402,0.533c0.912,0.262,2.488,0.392,4.135,0.392
			c1.647,0,3.224-0.13,4.148-0.392c0.391-0.07,0.391-0.271,0.391-0.533C37.154,38.641,36.906,37.74,36.337,37.863z M31.242,33.568
			c-0.023-0.027-0.048-0.055-0.071-0.082c-0.017-0.02-0.032-0.039-0.049-0.06v-0.315v-3.457c0.355-0.109,0.691-0.249,0.893-0.402
			c0.183,0.157,0.484,0.291,0.811,0.395v3.521v0.21v0.105c-0.005,0.007-0.01,0.013-0.015,0.02c-0.155,0.183-0.323,0.356-0.503,0.521
			c-0.1,0.092-0.203,0.181-0.31,0.266c-0.106-0.084-0.208-0.172-0.307-0.263C31.532,33.882,31.382,33.729,31.242,33.568z
			 M31.185,26.856c0.21-0.696,0.22-1.292,0.074-1.502c-0.166-0.24-0.405-0.44-0.68-0.22c-0.114,0.09-0.082-0.428,0.074-0.531
			c0.164-0.11,0.531-0.074,0.896,0.02c0,0-0.032-0.159,0.166-0.149c0.349,0.019,0.88,0.165,1.045,0.33
			c0.13,0.129,0.292,0.476,0.256,1.357c-0.027,0.627,0.133,1.367,0.348,1.793c-0.441-0.02-0.897-0.122-1.364-0.293
			c-0.468,0.172-0.927,0.274-1.37,0.293C30.82,27.672,31.062,27.265,31.185,26.856z M28.604,35.814l0.27-6.741l0,0
			c-0.074-0.075-0.348-0.274-0.484-0.412l-0.344,7.658l-0.277,0.252l0.347-8.123v0c-0.074-0.075-0.485-0.412-0.623-0.549l-0.416,9.3
			l-0.2,0.182l0.404-9.632c-0.109,0-0.354,0.135-0.549,0.26c0.254-0.999,1.354-0.684,2.176-0.214
			c0.42,0.269,0.867,0.415,1.334,0.458c0.055,0.005,0.109,0.009,0.164,0.012c0.511,0.021,1.046-0.076,1.595-0.269
			c0.552,0.194,1.089,0.291,1.604,0.269c0.107-0.005,0.215-0.016,0.321-0.032c0.406-0.06,0.798-0.201,1.168-0.438
			c0.854-0.488,2.008-0.809,2.201,0.334c-0.197-0.13-0.477-0.292-0.595-0.292l0.398,9.507l-0.196-0.183l-0.41-9.176
			c-0.135,0.134-0.537,0.466-0.611,0.54v0l0.341,8.004l-0.272-0.253l-0.337-7.543c-0.134,0.135-0.403,0.331-0.477,0.405l0,0
			l0.266,6.629l-0.795-0.737l-0.745-2.646c0.702-1.493,0.603-2.813,0.603-2.813c-0.071,0.015-0.139,0.021-0.21,0.021
			c-0.494,0-1.587-0.247-2.064-0.583c-0.068-0.049-0.125-0.099-0.165-0.151c-0.043,0.048-0.104,0.095-0.178,0.142
			c-0.5,0.317-1.609,0.592-2.1,0.592c-0.071,0-0.142-0.007-0.209-0.021c0,0-0.103,1.321,0.602,2.815l-0.771,2.733L28.604,35.814z
			 M31.999,37.792c-0.375-0.017-0.755-0.029-1.126-0.044l0.744-3.383c0.12,0.108,0.245,0.215,0.381,0.318l0,0
			c0.136-0.104,0.263-0.212,0.384-0.32l0.75,3.41C32.759,37.787,32.376,37.792,31.999,37.792z"/>
	</g>
</g>
</svg>
