<?xml version="1.0" encoding="utf-8"?>
<!-- Generator: Adobe Illustrator 15.0.0, SVG Export Plug-In . SVG Version: 6.00 Build 0)  -->
<!DOCTYPE svg PUBLIC "-//W3C//DTD SVG 1.1//EN" "http://www.w3.org/Graphics/SVG/1.1/DTD/svg11.dtd">
<svg version="1.1" id="Layer_1" xmlns="http://www.w3.org/2000/svg" xmlns:xlink="http://www.w3.org/1999/xlink" x="0px" y="0px"
	 width="64px" height="64px" viewBox="0 0 64 64" enable-background="new 0 0 64 64" xml:space="preserve">
<g>
	<rect x="11.873" y="12.007" fill="#2A5F9E" width="20.75" height="20.75"/>
	<polygon fill="#FFFFFF" points="18.785,8.146 18.785,14.007 11.473,14.007 25.873,32.007 31.873,32.007 31.873,24.507 	"/>
	<path fill="#2A5F9E" d="M31.873,2.007v30h-30c0,16.568,13.432,30,30,30s30-13.432,30-30S48.441,2.007,31.873,2.007z"/>
	<path fill="#FFFFFF" d="M10.873,18.919H4.885c-1.924,3.957-3.012,8.394-3.012,13.088h12V13.919h-3V18.919z"/>
	<polygon fill="#ED4C5C" points="31.873,27.065 18.873,11.007 12.873,11.007 29.873,32.007 31.873,32.007 	"/>
	<path fill="#FFFFFF" d="M18.785,5.019v5.988h-7.912v3h21v-12C27.18,2.007,22.742,3.095,18.785,5.019z"/>
	<path fill="#ED4C5C" d="M31.873,5.007H18.785C12.73,7.947,7.814,12.864,4.873,18.919v13.088h6v-21h21V5.007z"/>
	<path fill="#FFFFFF" d="M49.926,27.926c0.572-1.522,1.924-2.422,3.021-2.01c0.303,0.113,0.551,0.313,0.746,0.575
		c-0.053-0.924-0.484-1.689-1.203-1.959c-1.098-0.412-2.451,0.488-3.021,2.01c-0.414,1.104-0.303,2.232,0.211,2.926
		C49.652,28.981,49.729,28.451,49.926,27.926z"/>
	<path fill="#FFFFFF" d="M42.1,24.512C41.002,24.1,39.65,25,39.08,26.522c-0.252,0.669-0.289,1.335-0.182,1.919
		c-0.502,0.385-1.186,0.649-1.957,0.699c-0.559,0.036-1.09-0.043-1.547-0.211c0.516,0.691,1.561,1.127,2.738,1.052
		c1.623-0.104,2.877-1.136,2.803-2.307c-0.027-0.421-0.233-0.795-0.548-1.106c0.644-0.648,1.459-0.938,2.171-0.671
		c0.301,0.113,0.551,0.313,0.744,0.575C43.252,25.547,42.82,24.782,42.1,24.512z"/>
	<path fill="#FFFFFF" d="M59.594,27.552c-0.951-1.131-2.264-1.364-2.928-0.521c-0.182,0.23-0.297,0.519-0.348,0.838
		c-0.285-0.857-0.234-1.733,0.201-2.285c0.666-0.843,1.977-0.609,2.928,0.521c0.691,0.821,1.002,1.888,0.867,2.734
		C60.164,28.387,59.922,27.942,59.594,27.552z"/>
	<path fill="#FFFFFF" d="M36.248,27.147c0.52-1.096,0.236-2.157-0.629-2.368c-0.238-0.058-0.494-0.046-0.752,0.024
		c0.545-0.504,1.221-0.764,1.789-0.626c0.865,0.212,1.148,1.272,0.629,2.368c-0.377,0.796-1.07,1.391-1.754,1.578
		C35.818,27.858,36.068,27.525,36.248,27.147z"/>
	<path d="M42.648,31.804c0,0,0.055,5.053,0.131,5.52c0.078,0.468,0.361,3.367,4.537,5.107c0,0,3.227-1.369,4.049-3.271
		c0.82-1.901,0.658-5.478,0.658-5.478v-1.951L42.648,31.804"/>
	<path fill="#FFFFFF" d="M42.986,32.179c0,0,0.051,4.694,0.123,5.128c0.072,0.436,0.336,3.129,4.215,4.746
		c0,0,2.998-1.272,3.762-3.039c0.762-1.766,0.611-5.09,0.611-5.09v-1.812L42.986,32.179"/>
	<polyline fill="#1B81B6" points="51.746,33.705 50.463,33.311 48.893,34.029 47.303,33.469 45.889,34.029 44.24,33.311 
		42.994,33.777 43.002,35.396 44.248,34.93 45.896,35.648 47.311,35.088 48.9,35.648 50.471,34.93 51.752,35.325 51.746,33.705 	"/>
	<path fill="#1B81B6" d="M43.852,39.418c0.148-0.047,2.09,0.641,2.09,0.641l1.412-0.562l1.586,0.562c0,0,1.846-0.699,1.979-0.67
		c0.471,0.106-2.74,2.664-3.555,2.664C46.551,42.053,43.432,39.552,43.852,39.418"/>
	<path fill="#1B81B6" d="M51.361,38.023c-0.244-0.114-0.996-0.258-0.996-0.258l-1.541,0.719l-1.561-0.562l-1.389,0.562l-1.617-0.719
		c0,0-0.805,0.218-1.045,0.355c-0.109,0.064-0.188-1.24-0.188-1.24l1.227-0.466l1.615,0.719l1.391-0.562l1.561,0.562l1.541-0.719
		l1.256,0.396C51.615,36.811,51.521,38.098,51.361,38.023"/>
	
		<linearGradient id="SVGID_1_" gradientUnits="userSpaceOnUse" x1="-1163.2017" y1="-1526.9863" x2="-1162.2017" y2="-1526.9863" gradientTransform="matrix(4.7034 4.7034 4.7034 -4.7034 12698.0791 -1674.7612)">
		<stop  offset="0" style="stop-color:#288549"/>
		<stop  offset="1" style="stop-color:#288549"/>
	</linearGradient>
	<path fill="url(#SVGID_1_)" d="M50.705,39.719l-0.004,0.003L50.6,39.85l0.102-0.127L50.705,39.719 M47.49,34.182l-4.111,4.388
		c0.162,0.433,0.393,0.849,0.715,1.253l3.416-3.488l3.195,3.385c0.336-0.445,0.563-0.904,0.715-1.388L47.49,34.182"/>
	<polygon points="44.553,28.26 45.193,29.746 49.381,29.746 50.021,28.26 47.287,21.927 	"/>
	<polygon fill="#7ED16D" points="44.834,28.129 45.41,29.461 49.164,29.461 49.738,28.129 47.287,22.448 	"/>
	<polygon fill="#93695A" points="44.119,26.93 46.232,29.511 48.75,29.408 49.336,27.64 47.5,27.532 46.311,28.127 	"/>
	<path fill="#6BAAA7" d="M47.094,29.085l-3.213,0.946l1.516,1.813l-0.012,1.651l1.598-0.247c0,0,0.752-1.464,0.855-1.493
		c0.104-0.028,1.506,0.468,1.506,0.468l0.326-0.813l1.801-0.634l-3.104-0.744l0.111-0.765L47.094,29.085z"/>
	<linearGradient id="SVGID_2_" gradientUnits="userSpaceOnUse" x1="47.5596" y1="29.7456" x2="52.9102" y2="29.7456">
		<stop  offset="0" style="stop-color:#288549"/>
		<stop  offset="1" style="stop-color:#288549"/>
	</linearGradient>
	<path fill="url(#SVGID_2_)" d="M51.93,29.77c-0.555,0.348-1.187,0.453-1.786,0.364c0.732-0.146,1.362-0.676,1.585-1.442
		c0.234-0.797-0.035-1.621-0.621-2.135c0.098,0.354,0.1,0.739-0.012,1.118c-0.318,1.098-1.539,1.91-2.566,1.408
		c-0.498-0.243-0.58-0.855-0.625-1.228c-0.34,0.68-0.357,1.486-0.048,2.212c-0.062,0.099-0.125,0.196-0.169,0.309
		c-0.375,0.967,0.104,2.057,1.072,2.432c0.703,0.272,1.469,0.094,1.98-0.394c-0.33,0.059-0.678,0.031-1.012-0.099
		c-0.568-0.221-0.962-0.69-1.119-1.235c0.854,0.692,2.079,0.812,3.061,0.195c0.898-0.563,1.34-1.576,1.221-2.563
		C52.68,29.133,52.355,29.502,51.93,29.77z"/>
	
		<linearGradient id="SVGID_3_" gradientUnits="userSpaceOnUse" x1="-1246.3809" y1="-1430.7285" x2="-1245.3804" y2="-1430.7285" gradientTransform="matrix(1.1995 -5.0853 -4.2924 -2.6342 -4604.2378 -10076.6689)">
		<stop  offset="0" style="stop-color:#288549"/>
		<stop  offset="1" style="stop-color:#288549"/>
	</linearGradient>
	<path fill="url(#SVGID_3_)" d="M42.588,25.895c0.541,1.533,0.082,3.092-1.023,3.481c-0.303,0.107-0.623,0.114-0.939,0.038
		c0.633,0.675,1.455,0.984,2.18,0.729c1.105-0.39,1.564-1.948,1.023-3.481c-0.391-1.113-1.203-1.906-2.041-2.107
		C42.121,24.909,42.402,25.366,42.588,25.895z"/>
	
		<linearGradient id="SVGID_4_" gradientUnits="userSpaceOnUse" x1="-1215.3574" y1="-1594.2705" x2="-1214.3574" y2="-1594.2705" gradientTransform="matrix(-0.6286 -2.665 2.2494 -1.3805 2858.5693 -5410.2827)">
		<stop  offset="0" style="stop-color:#288549"/>
		<stop  offset="1" style="stop-color:#288549"/>
	</linearGradient>
	<path fill="url(#SVGID_4_)" d="M36.076,27.186c-0.283,0.803-0.045,1.621,0.535,1.825c0.16,0.056,0.328,0.06,0.494,0.02
		c-0.332,0.354-0.764,0.516-1.143,0.382c-0.58-0.204-0.82-1.021-0.537-1.825c0.205-0.583,0.631-0.999,1.07-1.104
		C36.32,26.669,36.174,26.908,36.076,27.186z"/>
	
		<linearGradient id="SVGID_5_" gradientUnits="userSpaceOnUse" x1="-1315.6011" y1="-1452.3447" x2="-1314.6011" y2="-1452.3447" gradientTransform="matrix(1.972 -1.9014 2.3361 1.2306 6043.3521 -687.3411)">
		<stop  offset="0" style="stop-color:#288549"/>
		<stop  offset="1" style="stop-color:#288549"/>
	</linearGradient>
	<path fill="url(#SVGID_5_)" d="M58.023,25.417c-0.836,0.167-1.416,0.79-1.295,1.393c0.031,0.165,0.113,0.312,0.232,0.434
		c-0.473-0.105-0.832-0.393-0.91-0.788c-0.121-0.603,0.459-1.226,1.295-1.393c0.607-0.121,1.18,0.032,1.496,0.356
		C58.592,25.363,58.311,25.359,58.023,25.417z"/>
	
		<linearGradient id="SVGID_6_" gradientUnits="userSpaceOnUse" x1="-1169.1934" y1="-1557.8262" x2="-1168.1929" y2="-1557.8262" gradientTransform="matrix(4.2109 1.6428 2.7757 -3.3581 9299.6279 -3284.314)">
		<stop  offset="0" style="stop-color:#288549"/>
		<stop  offset="1" style="stop-color:#288549"/>
	</linearGradient>
	<path fill="url(#SVGID_6_)" d="M55.912,27.458c-1.299,0.321-2.504-0.351-2.693-1.5c-0.051-0.316-0.02-0.634,0.078-0.937
		c-0.617,0.532-0.961,1.304-0.838,2.057c0.188,1.15,1.395,1.821,2.693,1.501c0.943-0.233,1.676-0.925,1.934-1.726
		C56.76,27.133,56.359,27.348,55.912,27.458z"/>
	<path fill="#74948F" d="M36.131,43.282c-1.26-0.505,2.9-2.749,4.736-2.646c1.41,0.079,4.213,2.49,3.195,2.774
		C39.063,44.807,39.236,44.527,36.131,43.282z"/>
	<path fill="#E5C9BD" d="M40.564,31.82c0.074-0.415,0.516-1.192,0.84-1.463c0.299-0.252,1.084-0.58,1.471-0.53
		c0.271,0.034,1,0.36,0.898,0.612l-0.277-0.046c-0.293,0.146-0.383,0.923-0.607,1.162c-0.18,0.192-0.771,0.315-0.898,0.545
		c-0.119,0.219,0.111,0.991,0.111,0.991l-1.455,0.132C40.646,33.224,40.504,32.166,40.564,31.82z"/>
	<path fill="#C6A397" d="M40.992,36.859c-0.033,0.098,0.707,1.758,0.873,2.453c0.299,1.248-1.602,3.293-1.471,2.286
		c0.174-1.321-0.473-2.556-0.473-2.556L40.992,36.859z"/>
	<path fill="#E5C9BD" d="M40.461,37.946c-0.063,0.082,0.133,1.89,0.078,2.603c-0.098,1.279-2.535,2.644-2.102,1.725
		c0.57-1.204,0.334-2.576,0.334-2.576L40.461,37.946z"/>
	<path fill="#E5C9BD" d="M41.457,33.303c0.027,0.1,1.572,1.059,2.098,1.541c0.945,0.867,0.518,3.627,0.063,2.719
		c-0.598-1.19-1.822-1.852-1.822-1.852L41.457,33.303z"/>
	<path fill="#D66B3C" d="M41.01,32.432c-1.23,0.122-2.861,2.494-3.363,3.624c-0.529,1.195-1.205,4.964-0.451,5.212
		c0.887,0.293,3.936-2.029,4.646-3.258c0.586-1.019,0.9-3.613,0.412-4.682C42.094,32.979,41.391,32.395,41.01,32.432z"/>
	<path fill="#74948F" d="M58.555,43.282c1.258-0.505-2.9-2.749-4.734-2.646c-1.412,0.079-4.215,2.49-3.195,2.774
		C55.623,44.807,55.447,44.527,58.555,43.282z"/>
	<path fill="#E5C9BD" d="M54.121,31.82c-0.074-0.415-0.516-1.192-0.84-1.463c-0.299-0.252-1.082-0.58-1.471-0.53
		c-0.27,0.034-1,0.36-0.898,0.612l0.277-0.046c0.295,0.146,0.381,0.923,0.605,1.162c0.18,0.192,0.775,0.315,0.9,0.545
		c0.119,0.219-0.113,0.991-0.113,0.991l1.457,0.132C54.039,33.224,54.182,32.166,54.121,31.82z"/>
	<path fill="#C6A397" d="M53.693,36.859c0.033,0.098-0.707,1.758-0.875,2.453c-0.297,1.248,1.604,3.293,1.473,2.286
		c-0.172-1.321,0.473-2.556,0.473-2.556L53.693,36.859z"/>
	<path fill="#E5C9BD" d="M54.225,37.946c0.063,0.082-0.133,1.89-0.078,2.603c0.1,1.279,2.535,2.644,2.102,1.725
		c-0.57-1.204-0.334-2.576-0.334-2.576L54.225,37.946z"/>
	<path fill="#E5C9BD" d="M53.229,33.303c-0.027,0.1-1.57,1.059-2.098,1.541c-0.947,0.867-0.518,3.627-0.063,2.719
		c0.598-1.19,1.822-1.852,1.822-1.852L53.229,33.303z"/>
	<path fill="#D66B3C" d="M53.676,32.432c1.229,0.122,2.861,2.494,3.363,3.624c0.529,1.195,1.205,4.964,0.451,5.212
		c-0.887,0.293-3.936-2.029-4.645-3.258c-0.588-1.019-0.902-3.613-0.412-4.682C52.592,32.979,53.295,32.395,53.676,32.432z"/>
</g>
</svg>
