<?xml version="1.0" encoding="utf-8"?>
<!-- Generator: Adobe Illustrator 15.0.0, SVG Export Plug-In . SVG Version: 6.00 Build 0)  -->
<!DOCTYPE svg PUBLIC "-//W3C//DTD SVG 1.1//EN" "http://www.w3.org/Graphics/SVG/1.1/DTD/svg11.dtd">
<svg version="1.1" id="Layer_1" xmlns="http://www.w3.org/2000/svg" xmlns:xlink="http://www.w3.org/1999/xlink" x="0px" y="0px"
	 width="64px" height="64px" viewBox="0 0 64 64" enable-background="new 0 0 64 64" xml:space="preserve">
<g>
	<g>
		<path fill="#3E4347" d="M32,62c16.568,0,30-13.432,30-30H2C2,48.568,15.432,62,32,62z"/>
		<path fill="#ED4C5C" d="M32,2C15.432,2,2,15.432,2,32h60C62,15.432,48.568,2,32,2z"/>
	</g>
	<g>
		<polygon fill="#FFE62E" points="27.487,24.479 26.169,28.539 29.621,26.03 33.075,28.539 31.757,24.479 35.211,21.97 
			30.941,21.97 29.621,17.91 28.303,21.97 24.033,21.97 		"/>
		<path fill="#FFE62E" d="M48.03,48.573c-0.506-0.822-1.131-1.424-1.946-2.148c-0.815-0.724-1.941-1.521-2.777-2.329l-1.587,1.861
			c-0.066,0.079-0.041,0.26,0.044,0.273c1.78,0.306,2.34,0.938,3.047,1.542c0.957,0.967,1.35,2.137,1.975,2.57
			C47.939,51.145,48.771,49.778,48.03,48.573z"/>
		<path fill="#FFE62E" d="M33.759,41.704c-1.703,0.586-3.558,0.821-5.468,0.621c-2.474-0.26-4.816-1.238-6.74-2.815l-1.863,2.272
			c0.807,0.662,1.661,1.227,2.547,1.701l-0.614,1.15c0.979,0.525,2.009,0.951,3.074,1.273l0.378-1.247
			c0.988,0.299,1.998,0.499,3.014,0.598l-0.128,1.3c1.107,0.108,2.222,0.108,3.328,0l-0.128-1.301c1.02-0.1,2.028-0.301,3.013-0.599
			l0.38,1.25c0.525-0.159,1.044-0.346,1.551-0.555l-0.688-2.672L33.759,41.704z"/>
		<path fill="#FFE62E" d="M42.285,30.993c-0.358,3.4-2.024,6.344-4.445,8.389l3.58,2.481c0.468-0.452,0.912-0.929,1.326-1.432
			l-1.011-0.829c0.003-0.002,0.004-0.004,0.006-0.007c0.662-0.806,1.228-1.66,1.701-2.546l1.152,0.615
			c0.523-0.98,0.95-2.011,1.272-3.074l-1.247-0.379c0.299-0.988,0.498-1.998,0.598-3.014l1.299,0.128
			c0.109-1.106,0.109-2.221,0-3.328l-1.299,0.128c-0.101-1.02-0.302-2.029-0.6-3.013l1.249-0.379
			c-0.322-1.064-0.749-2.094-1.272-3.075l-1.151,0.615c-0.478-0.896-1.047-1.752-1.707-2.554l1.01-0.828
			c-0.707-0.859-1.494-1.647-2.354-2.353l-0.828,1.01c-0.003-0.002-0.006-0.005-0.008-0.007c-0.795-0.651-1.649-1.218-2.548-1.698
			l0.616-1.154c-0.979-0.524-2.011-0.951-3.073-1.273l-0.38,1.251c-0.945-0.287-1.919-0.486-2.911-0.59L30.953,17
			C37.946,17.735,43.02,24,42.285,30.993z"/>
		<path fill="#FFE62E" d="M37.34,41.172c-3.364-2.37-6.845-4.821-9.771-7.577l0.224-0.238c2.909,2.741,6.38,5.186,9.736,7.549
			c1.659,1.17,3.378,2.379,5.001,3.606l0.449-0.526c-5.594-3.998-18.829-13.189-18.993-16.539c-2.613,5.101,0.699,8.15,2.833,9.363
			c5.43,3.088,9.034,5.123,14.699,8.891l0.8-0.939C40.703,43.54,38.994,42.336,37.34,41.172z"/>
	</g>
</g>
</svg>
