<?xml version="1.0" encoding="utf-8"?>
<!-- Generator: Adobe Illustrator 15.0.0, SVG Export Plug-In . SVG Version: 6.00 Build 0)  -->
<!DOCTYPE svg PUBLIC "-//W3C//DTD SVG 1.1//EN" "http://www.w3.org/Graphics/SVG/1.1/DTD/svg11.dtd">
<svg version="1.1" id="Layer_1" xmlns="http://www.w3.org/2000/svg" xmlns:xlink="http://www.w3.org/1999/xlink" x="0px" y="0px"
	 width="64px" height="64px" viewBox="0 0 64 64" enable-background="new 0 0 64 64" xml:space="preserve">
<g>
	<g>
		<path fill="#42ADE2" d="M11.005,32v21.422C16.416,58.726,23.824,62,32,62c16.568,0,30-13.432,30-30H11.005z"/>
		<path fill="#83BF4F" d="M11.005,32H62C62,15.432,48.568,2,32,2c-8.176,0-15.584,3.275-20.995,8.58V32z"/>
		<path fill="#ED4C5C" d="M11.005,10.579C5.45,16.023,2,23.607,2,32s3.45,15.977,9.006,21.422L61.427,32L11.005,10.579z"/>
	</g>
	<g>
		<path fill="#FFCE31" d="M16.981,23.413c1.243,0,2.253-1.161,2.253-2.597c0-1.432-1.01,0.809-2.253,0.809
			c-1.244,0-2.255-2.24-2.255-0.809C14.727,22.252,15.737,23.413,16.981,23.413z"/>
		<path fill="#FFCE31" d="M26.956,35.51c0.28-0.728,0.482-1.494,0.604-2.288c0.843-0.377,1.44-1.313,1.44-2.415
			c0.001-1.043-0.535-0.139-1.307,0.43c-0.021-0.818-0.13-1.619-0.319-2.393c0.545-0.683,0.702-1.707,0.314-2.662
			c-0.366-0.91-0.525-0.031-0.962,0.768c-0.335-0.746-0.748-1.453-1.236-2.104c0.175-0.809-0.071-1.737-0.743-2.422
			c-0.647-0.664-0.514,0.1-0.59,0.957c-0.592-0.543-1.245-1.021-1.956-1.426c-0.168-0.78-0.736-1.497-1.578-1.854
			c-1.293-0.549,0.346,1.261-0.132,2.438c-0.476,1.18-2.888,1.273-1.589,1.823c1.019,0.433,2.122,0.198,2.778-0.495
			c0.504,0.322,0.956,0.703,1.38,1.113c-0.999,0.277-2.293-0.109-1.499,0.705c0.755,0.773,1.818,1.004,2.67,0.672
			c0.324,0.475,0.602,0.979,0.831,1.51c-0.989-0.178-1.95-0.943-1.537,0.082c0.388,0.959,1.216,1.572,2.08,1.654
			c0.112,0.533,0.187,1.078,0.203,1.639c-0.776-0.569-1.316-1.482-1.317-0.436c0.001,0.989,0.487,1.84,1.195,2.277
			c-0.09,0.524-0.225,1.031-0.4,1.521c-0.439-0.801-0.599-1.689-0.971-0.776c-0.348,0.862-0.252,1.78,0.171,2.454
			c-0.258,0.425-0.551,0.824-0.871,1.197c-0.073-0.846,0.05-1.586-0.593-0.93c-0.612,0.629-0.878,1.463-0.784,2.221
			c-0.377,0.287-0.775,0.545-1.195,0.768c0.248-0.756,0.567-1.318-0.232-0.98c-0.774,0.33-1.316,0.967-1.529,1.675
			c-0.729,0.2-1.492,0.317-2.281,0.317c-0.791,0-1.553-0.117-2.282-0.317c-0.212-0.708-0.755-1.345-1.528-1.675
			c-0.8-0.338-0.48,0.225-0.232,0.98c-0.42-0.223-0.818-0.48-1.195-0.768c0.094-0.758-0.171-1.592-0.784-2.221
			c-0.643-0.656-0.52,0.084-0.593,0.932c-0.321-0.374-0.613-0.773-0.871-1.199c0.423-0.673,0.52-1.592,0.171-2.454
			c-0.371-0.915-0.53-0.023-0.972,0.777c-0.176-0.489-0.311-0.997-0.4-1.521c0.709-0.438,1.195-1.289,1.196-2.278
			c-0.001-1.048-0.542-0.133-1.319,0.437c0.017-0.56,0.088-1.105,0.199-1.64c0.867-0.079,1.697-0.693,2.087-1.654
			c0.416-1.033-0.562-0.25-1.559-0.08c0.23-0.535,0.524-1.033,0.851-1.512c0.854,0.332,1.917,0.101,2.671-0.672
			c0.798-0.818-0.516-0.422-1.518-0.709c0.426-0.412,0.898-0.775,1.407-1.1c0.658,0.686,1.756,0.916,2.771,0.485
			c1.297-0.55-1.115-0.644-1.591-1.823c-0.478-1.177,1.161-2.986-0.132-2.438c-0.842,0.356-1.409,1.072-1.577,1.852
			c-0.712,0.404-1.367,0.879-1.957,1.418c-0.075-0.854,0.055-1.609-0.591-0.947c-0.671,0.684-0.917,1.611-0.743,2.421
			c-0.488,0.649-0.904,1.351-1.239,2.095c-0.433-0.795-0.592-1.664-0.959-0.758c-0.387,0.953-0.23,1.975,0.313,2.657
			c-0.188,0.773-0.297,1.575-0.317,2.396C5.534,30.666,4.999,29.764,5,30.807c0,1.102,0.598,2.037,1.439,2.414
			c0.121,0.795,0.322,1.562,0.603,2.289c-0.985-0.181-1.937-0.936-1.523,0.083C5.951,36.664,6.93,37.3,7.896,37.25
			c0.403,0.67,0.87,1.292,1.401,1.855c-1.002,0.283-2.308-0.109-1.51,0.705c0.833,0.854,2.035,1.045,2.922,0.551
			c0.606,0.453,1.258,0.844,1.949,1.16c-0.808,0.7-2.266,0.846-1.196,1.298c1.114,0.472,2.327,0.158,2.949-0.687
			c0.128,0.033,0.252,0.073,0.382,0.102c-0.373,0.488-0.605,1.097-0.605,1.766h5.623c0-0.669-0.232-1.277-0.605-1.766
			c0.13-0.028,0.254-0.068,0.382-0.102c0.622,0.845,1.835,1.158,2.949,0.687c1.069-0.452-0.389-0.598-1.196-1.298
			c0.692-0.316,1.343-0.708,1.949-1.16c0.887,0.494,2.089,0.303,2.922-0.551c0.798-0.814-0.51-0.422-1.511-0.705
			c0.531-0.563,0.999-1.187,1.402-1.855c0.966,0.051,1.945-0.586,2.378-1.657C28.895,34.574,27.942,35.329,26.956,35.51z"/>
	</g>
	<g>
		<path fill="#FFCE31" d="M16,25.875c0,5.334,0,10.667,0,16c0,1.29,2,1.29,2,0c0-5.333,0-10.666,0-16C18,24.586,16,24.586,16,25.875
			L16,25.875z"/>
	</g>
	<path fill="#FFCE31" d="M20.998,34.002c0,0-2.672-0.07-3.43,0.688c-0.758,0.756-0.758,1.984,0,2.742s1.986,0.758,2.744,0
		S20.998,34.002,20.998,34.002z"/>
	<path fill="#FFCE31" d="M13.002,32.002c0,0,2.672-0.07,3.43,0.688c0.758,0.756,0.758,1.984,0,2.742s-1.986,0.758-2.744,0
		S13.002,32.002,13.002,32.002z"/>
	<path fill="#FFCE31" d="M13.002,27.002c0,0,2.672-0.07,3.43,0.688c0.758,0.756,0.758,1.984,0,2.742s-1.986,0.758-2.744,0
		S13.002,27.002,13.002,27.002z"/>
	<path fill="#FFCE31" d="M20.998,29.002c0,0-2.672-0.07-3.43,0.688c-0.758,0.756-0.758,1.984,0,2.742s1.986,0.758,2.744,0
		S20.998,29.002,20.998,29.002z"/>
	<path fill="#FFCE31" d="M18.999,26.002c0,0-1.336-0.036-1.715,0.343c-0.379,0.378-0.379,0.993,0,1.372s0.993,0.379,1.372,0
		S18.999,26.002,18.999,26.002z"/>
</g>
</svg>
