<?xml version="1.0" encoding="utf-8"?>
<!-- Generator: Adobe Illustrator 15.0.0, SVG Export Plug-In . SVG Version: 6.00 Build 0)  -->
<!DOCTYPE svg PUBLIC "-//W3C//DTD SVG 1.1//EN" "http://www.w3.org/Graphics/SVG/1.1/DTD/svg11.dtd">
<svg version="1.1" id="Layer_1" xmlns="http://www.w3.org/2000/svg" xmlns:xlink="http://www.w3.org/1999/xlink" x="0px" y="0px"
	 width="64px" height="64px" viewBox="0 0 64 64" enable-background="new 0 0 64 64" xml:space="preserve">
<g>
	<g>
		<path fill="#2A5F9E" d="M32,2v30H2c0,16.568,13.432,30,30,30s30-13.432,30-30S48.568,2,32,2z"/>
		<g>
			<rect x="12" y="12" fill="#2A5F9E" width="21" height="21"/>
			<polygon fill="#FFFFFF" points="18.912,8.139 18.912,14 11.6,14 26,32 32,32 32,24.5 			"/>
			<path fill="#FFFFFF" d="M11,18.912H5.012C3.088,22.869,2,27.305,2,32h12V13.912h-3V18.912z"/>
			<polygon fill="#ED4C5C" points="32,27.059 19,11 13,11 30,32 32,32 			"/>
			<path fill="#FFFFFF" d="M18.912,5.012V11H11v3h21V2C27.307,2,22.869,3.088,18.912,5.012z"/>
			<path fill="#ED4C5C" d="M32,5H18.912C12.857,7.939,7.941,12.857,5,18.912V32h6V11h21V5z"/>
			<path fill="#D8A322" d="M34.541,33.848l-0.002,0.007L34.541,33.848z"/>
			<path fill="#D8A322" d="M34.537,33.86L34.5,33.939L34.537,33.86z"/>
			<path fill="#D8A322" d="M34.539,33.854l-0.002,0.006L34.539,33.854z"/>
		</g>
	</g>
	<polygon fill="#FFFFFF" points="15.295,35.637 16.4,40.012 20.512,38.148 17.779,41.74 21.8,43.793 17.287,43.898 18.189,48.32 
		15.295,44.857 12.4,48.32 13.303,43.898 8.79,43.793 12.811,41.74 10.078,38.148 14.189,40.012 	"/>
	<g>
		<polygon fill="#FFFFFF" points="48.201,18.691 48.671,20.551 50.419,19.759 49.257,21.286 50.966,22.158 49.048,22.203 
			49.432,24.083 48.201,22.61 46.971,24.083 47.354,22.203 45.437,22.158 47.146,21.286 45.983,19.759 47.731,20.551 		"/>
		<polygon fill="#FFFFFF" points="56.518,26.331 56.987,28.19 58.734,27.398 57.573,28.926 59.282,29.799 57.363,29.842 
			57.747,31.723 56.518,30.25 55.287,31.723 55.671,29.842 53.752,29.799 55.461,28.926 54.3,27.398 56.047,28.19 		"/>
		<polygon fill="#FFFFFF" points="38.846,28.826 39.316,30.686 41.063,29.894 39.902,31.42 41.611,32.293 39.692,32.337 
			40.076,34.217 38.846,32.744 37.616,34.217 38,32.337 36.081,32.293 37.79,31.42 36.629,29.894 38.376,30.686 		"/>
		<polygon fill="#FFFFFF" points="48.201,43.639 48.671,45.498 50.419,44.707 49.257,46.232 50.966,47.105 49.048,47.15 
			49.432,49.029 48.201,47.559 46.971,49.029 47.354,47.15 45.437,47.105 47.146,46.232 45.983,44.707 47.731,45.498 		"/>
		<polygon fill="#FFFFFF" points="51.943,33.992 52.293,35.069 53.426,35.069 52.509,35.735 52.859,36.813 51.943,36.147 
			51.026,36.813 51.377,35.735 50.46,35.069 51.594,35.069 		"/>
	</g>
</g>
</svg>
