<?xml version="1.0" encoding="utf-8"?>
<!-- Generator: Adobe Illustrator 15.0.0, SVG Export Plug-In . SVG Version: 6.00 Build 0)  -->
<!DOCTYPE svg PUBLIC "-//W3C//DTD SVG 1.1//EN" "http://www.w3.org/Graphics/SVG/1.1/DTD/svg11.dtd">
<svg version="1.1" id="Layer_1" xmlns="http://www.w3.org/2000/svg" xmlns:xlink="http://www.w3.org/1999/xlink" x="0px" y="0px"
	 width="64px" height="64px" viewBox="0 0 64 64" enable-background="new 0 0 64 64" xml:space="preserve">
<g>
	<g>
		<path fill="#ED4C5C" d="M60,42c-5.523,0-10-4.477-10-10H10.787v21.213l-0.002-0.001C16.215,58.642,23.715,62,32,62
			c13.066,0,24.176-8.356,28.291-20.015C60.193,41.988,60.098,42,60,42z"/>
		<path fill="#83BF4F" d="M60,22c0.098,0,0.193,0.012,0.291,0.015C56.176,10.356,45.066,2,32,2c-8.285,0-15.785,3.358-21.215,8.788
			l0.002-0.001V32H50C50,26.477,54.477,22,60,22z"/>
		<path fill="#F9F9F9" d="M60.287,22h-49.5v20h49.5C61.393,38.871,62,35.508,62,32S61.393,25.129,60.287,22z"/>
		<path fill="#42ADE2" d="M10.787,10.787C5.357,16.216,2,23.716,2,32s3.357,15.784,8.787,21.213L21,32L10.787,10.787z"/>
	</g>
	<g>
		<g id="stars">
			<path fill="#FFE62E" d="M33.65,24.103l-0.584,0.027l-0.291,0.523l-0.318-0.499l-0.586,0.024l0.266-0.526l-0.318-0.499
				l0.611-0.026l0.266-0.523l0.318,0.499l0.584-0.024l-0.266,0.525L33.65,24.103z"/>
			<path fill="#FFE62E" d="M31.154,24.296L30.57,24.44l-0.158,0.565l-0.426-0.425l-0.557,0.139l0.158-0.565l-0.396-0.43l0.557-0.141
				l0.16-0.568l0.424,0.424l0.584-0.138l-0.186,0.568L31.154,24.296z"/>
			<path fill="#FFE62E" d="M28.738,24.793l-0.529,0.263l-0.027,0.589l-0.506-0.324l-0.529,0.26l0.053-0.589l-0.504-0.326
				l0.531-0.266l0.053-0.59l0.479,0.324l0.529-0.26l-0.025,0.59L28.738,24.793z"/>
			<path fill="#FFE62E" d="M34.42,24.103l0.584,0.027l0.266,0.523l0.32-0.499l0.582,0.024l-0.264-0.526l0.318-0.499l-0.584-0.026
				l-0.293-0.523l-0.318,0.499l-0.584-0.024l0.266,0.525L34.42,24.103z"/>
			<path fill="#FFE62E" d="M36.916,24.296l0.559,0.144l0.158,0.565l0.426-0.425l0.557,0.139l-0.158-0.565l0.424-0.43l-0.584-0.141
				l-0.158-0.568l-0.426,0.424l-0.557-0.138l0.158,0.568L36.916,24.296z"/>
			<path fill="#FFE62E" d="M39.307,24.793l0.529,0.263l0.027,0.589l0.504-0.324l0.531,0.26l-0.025-0.589l0.479-0.326L40.818,24.4
				l-0.025-0.59l-0.504,0.324l-0.531-0.26l0.053,0.59L39.307,24.793z"/>
		</g>
		<path fill="#3E4347" d="M28.898,25.595h10.168v10.651c0,3.585-4.672,0.823-5.07,2.734c-0.689-1.964-5.072,0.877-5.072-2.946
			C28.924,32.317,28.898,25.595,28.898,25.595z"/>
		<path fill="#FFFFFF" d="M29.297,26.12h9.371v9.817c0,3.304-4.305,0.759-4.672,2.521c-0.637-1.811-4.676,0.808-4.676-2.717
			C29.32,32.315,29.297,26.12,29.297,26.12z"/>
		<path fill="#89664C" d="M35.35,29.98l-0.318-0.265c0,0-0.309,0.135-0.729,0.537c0.02-0.226,0.041-0.459,0.064-0.697h-0.479
			l-0.008,0.729c-0.057-0.074-0.344-0.448-0.654-0.543l-0.055,0.425c0.904,0.478,0.479,4.858-0.504,6.85h2.443
			C34.021,33.498,34.156,30.592,35.35,29.98z"/>
		<path fill="#83BF4F" d="M35.457,27.75c0.158-0.186,0.158-0.186,0.451-0.186c0.053-0.398,0.715-0.398,0.77,0.106
			c0.529-0.106,0.637,0.212,0.424,0.531c0.504-0.133,0.957,0,0.824,0.584c0.902,0.239,0.557,0.876,0.158,1.009
			c-0.053,0.398-0.424,0.531-0.928,0.372c-0.639,0.451-1.01,0.292-1.301-0.16c-0.719,0.107-0.771-0.053-1.09-0.451
			c-0.557,0.239-0.662,0.239-1.141-0.053c-0.027,0.372-0.16,0.266-0.398,0.239c0.027,0.478-0.16,0.69-0.586,0.531
			c0.32,0.664-0.504,0.956-0.902,0.398c-0.371,0.026-0.398-0.08-0.584-0.213c-0.158,0.531-0.742,0.452-0.85,0.16
			c-0.742-0.106-0.664-0.504-0.051-0.531c0.051-0.425,0.424-0.345,0.662-0.292c0.025-0.266,0.186-0.213,0.318-0.159
			c-0.08-0.186-0.025-0.292,0.213-0.346c-0.346-0.451-0.133-0.61,0.213-0.77c-0.188-0.425,0.133-0.398,0.371-0.425
			c-0.027-0.451,0.105-0.531,0.584-0.584c-0.053-0.159,0.025-0.292,0.293-0.292c-0.16-0.451,0.053-0.555,0.529-0.479
			c0.08-0.655,1.486-0.345,1.381,0.558C35.217,27.353,35.35,27.432,35.457,27.75z"/>
		<path fill="#D3D3D3" d="M41.377,33.525c-0.186,1.195-1.514,1.699-1.355,2.469c0.186,0.205,0.598,1.114,0.598,1.114
			c-0.303,0.442-0.518,0.743-1.553,1.169c-1.354,0.531-3.266,0.186-3.266,0.186l0.055,1.302l-3.666-0.026l0.055-1.275
			c0,0-1.912,0.346-3.266-0.186c-0.875-0.355-1.395-0.867-1.695-1.307c0,0,0.676-0.977,0.686-0.977
			c0.16-0.77-1.193-1.273-1.381-2.469c-0.105,1.963-1.061,2.654,0.156,3.316c-0.076,0.322-0.188,0.683-0.342,0.932
			c0.479,2.442,4.885,2.496,4.885,2.496v0.45c0,0.903,5.471,0.903,5.471,0v-0.45c0,0,4.406-0.054,4.857-2.496
			c-0.248-0.402-0.346-0.93-0.346-0.93C42.492,36.153,41.482,35.49,41.377,33.525z"/>
	</g>
</g>
</svg>
