<?xml version="1.0" encoding="utf-8"?>
<!-- Generator: Adobe Illustrator 15.0.0, SVG Export Plug-In . SVG Version: 6.00 Build 0)  -->
<!DOCTYPE svg PUBLIC "-//W3C//DTD SVG 1.1//EN" "http://www.w3.org/Graphics/SVG/1.1/DTD/svg11.dtd">
<svg version="1.1" id="Layer_1" xmlns="http://www.w3.org/2000/svg" xmlns:xlink="http://www.w3.org/1999/xlink" x="0px" y="0px"
	 width="64px" height="64px" viewBox="0 0 64 64" enable-background="new 0 0 64 64" xml:space="preserve">
<g>
	<g>
		<path fill="#FFCE31" d="M17.002,6.024C2.656,14.307-2.259,32.653,6.023,46.998l51.953-29.995
			C49.693,2.657,31.349-2.259,17.002,6.024z"/>
		<path fill="#ED4C5C" d="M46.998,57.977C61.344,49.693,66.26,31.35,57.977,17.003L6.023,46.998
			C14.307,61.344,32.651,66.26,46.998,57.977z"/>
	</g>
	<path fill="#FFFFFF" d="M57.652,18.39c0,0-1.539-0.136-2.316-0.131c-0.805,0.005-1.539,0.496-2.359,0.573
		c0.555-0.251,0.867-0.829,1.434-1.06c0.523-0.215,1.279-0.26,1.391-0.955c-0.521,0.396-1.189,0.255-1.787,0.232
		c-0.602-0.022-0.955,0.505-1.389,0.821c0.182-0.88,0.689-1.499,0.762-2.42c0.063-0.817,1.381-1.423,1.043-2.262
		c-0.094,0.757-1.125,0.928-1.359,1.647c-0.307,0.939-1.08,1.618-1.191,2.599c-0.135,1.183-0.967,0.638-1.768,0.895
		c-0.234,0.075-1.131-1.049-2.418-0.997c-2.047,0.084-2.805,0.068-5.357-2.469c-0.588-0.585-2.744-0.825-3.506-0.305
		c0.754-0.04,1.504,0.199,2.127,0.62c-0.438,0.327-0.977-0.375-1.467-0.087c0.85,0.045,1.082,0.354,0.988,1.078
		c-0.736-0.54-1.852-1.232-2.787-0.762c-0.563,0.282-1.699-0.134-1.973,0.654c0.783-0.381,1.631-0.058,2.371,0.246
		c-0.428,0.145-1.377,0.077-1.695,0.483c0.381-0.114,0.764-0.114,1.145-0.001c-0.123,0.284-0.168,0.581-0.129,0.89
		c-1.07-0.434-2.613-0.995-3.643-0.167c-1.083,0.869,0.613,1.934,0.852,1.309c-0.725,0.305-1.046-0.86-0.025-0.937
		c1.359-0.103,2.705,0.48,3.895,1.069c-0.627,0.171-2.521,0.025-2.781-0.762c-0.096,0.307-0.076,0.682,0.219,0.879
		c-0.914,0.032-1.676,0.861-2.469,0.835c-0.739-0.024-2.056-0.037-2.238,0.92c1.1-0.987,2.626-0.206,3.91-0.412
		c-0.34,0.636-0.496,1.331-0.68,1.952c-0.271,0.916-1.248,1.288-1.707,2.24c0.413-0.413,0.942-0.711,1.518-0.825
		c-0.348,0.656-1.087,1.791-0.706,2.524c0.188-1.106,0.925-0.848,1.671-1.248c-0.227,0.546,0.248,1.385,0.902,1.202
		c-0.33,0.48-0.006,1.242,0.557,1.363c-0.434,0.539-1.383,0.168-1.646,0.737c0.709-0.305,1.326,0.754,2.182,0.455
		c-0.098,0.355-0.029,0.673,0.207,0.957c-0.531-0.129-1.418,0.275-1.703-0.41c-0.313,0.75,1.086,0.597,0.893,1.23
		c-0.27-0.033-0.688-0.782-0.895-0.213c-0.146-0.048-0.262-0.62-0.588-0.74c-0.355-0.132-0.891,0.174-1.076,0.103
		c0.412-0.553-0.726-1.018-1.095-0.642c0.14-0.887-1.552-1.488-1.589-2.161c-0.251,0.483,0.274,0.899,0.204,1.388
		c-0.169-0.192-0.381-0.272-0.635-0.238c-0.614,0.113-0.185-0.105-0.791-0.19c-0.576-0.081-0.274,0.297-0.761-0.013
		c-0.256-0.163-0.657-0.134-0.841,0.13c-0.301-1.023-1.612-0.466-1.931-1.281c-0.132,0.464,0.597,1.008,0.681,1.503
		c-0.591-0.499-1.662,0.098-1.363,0.881c-0.244,0.14-1.622-0.439-1.275,0.698c-0.429-0.354-2.659-0.1-2.685,0.633
		c0.36-0.275,1.159-0.125,1.517,0.081c-0.332,0.232-0.441,0.934-0.188,1.242c-1.133-0.136-0.565,1.436-1.08,1.704
		c-0.746,0.387-1.353,1.395-2.317,1.121c0.48,0.764,1.477,0.027,2.134,0.096c-0.731,0.5-0.134,1.341-0.566,1.811
		c-0.42,0.457-0.897,1.71-1.821,1.418c0.15,0.362,0.618,0.451,0.95,0.51c-0.292,0.181-0.561,0.563-0.963,0.428
		c0.035,0.268,0.163,0.477,0.386,0.629c-0.476-0.046-0.941,0.236-1.414,0.057c0.001,0.246,0.071,0.472,0.209,0.676
		c-0.579-0.199-1.845-0.547-2.206,0.193c0.294-0.023,0.75,0.017,0.868,0.361c-0.433-0.27-0.937-0.109-1.397-0.055
		c-0.696,0.082-1.145-0.322-1.769-0.516c-0.485-0.151-2.844-0.643-2.884,0.176c0.517-0.416,1.581,0.378,2.205,0.332
		c0.884-0.064,1.563,0.609,2.395,0.768c-1.2-0.121-1.898,0.471-2.994,0.6c-0.469,0.055-1.636-0.095-1.708,0.609
		c0.545-0.295,1.129,0.066,1.694-0.082c0.48-0.127,0.977-0.547,1.502-0.297c-0.327,0.393-0.793,0.623-1.289,0.716
		c-0.764,0.142-1.117,0.429-1.781,0.774c-0.543,0.283-1.21,0.168-1.701,0.578c-0.413,0.348-0.8,0.777-1.368,0.848
		c0.702,0.449,1.373-0.271,1.978-0.533c0.781-0.338,1.585-0.18,2.335-0.684c-0.427,1.008-1.778,0.84-2.56,1.382
		c-0.969,0.674-1.665,1.813-2.92,1.991c0.512,0.58,1.56-0.161,2.047-0.418c0.875-0.46,2.021-0.295,2.782-0.951
		c0.765-0.657,1.66-0.83,2.387-1.504c0.214-0.2,2.025-1.414,2.169-1.363c-0.74,0.332-0.819,1.411-1.674,1.572
		c0.711,0.28,2.231-0.934,3.004-1.169c-0.448,0.634-1.667,0.858-1.837,1.626c0.691-0.559,1.688-0.363,2.33-0.916
		c0.602-0.519,1.755-1.299,2.18-1.951c0.41-0.629,0.771-0.939,1.404-1.348c0.318-0.206,0.619-0.506,1.013-0.563
		c0.406-0.057,0.845,0.178,1.236-0.025c0.134,1.753-0.645,0.332-1.235,1.129c-0.093,0.125,0.649,0.342,0.682,0.51
		c0.006,0.028-1.133,0.988-1.217,0.996c0.326,0.396,1.023,0.08,1.268-0.242c-0.058,0.328,0.326,0.555,0.178,0.888
		c0.208,0.022,0.695-1.146,0.888-0.886c-0.548,0.24,0.358,0.523,0.375,0.549c-0.304,0.179,0,0.473,0.233,0.414
		c-0.329,0.111-0.042,0.559-0.151,0.814c-0.217,0.513-0.623,0.359-1.08,0.783c-0.403,0.373-0.464,0.906-0.375,1.422
		c0.066,0.379,0.423,1.713,0.6,0.852c-0.38,1.854,2.048,3.129,3.356,1.764c0.678-0.708,1.532-3.646,0.339-4.176
		c0.238,0.07,0.454,0.029,0.647-0.127c0.09,0.172,0.227,0.284,0.414,0.338c0.725,0.217,0.933,1.115,0.842,1.754
		c0.495-0.643,0.446-2.069-0.057-2.713c-0.168-0.215-0.921-0.533-1.187-0.574c-0.27-0.045-0.481,0.045-0.634,0.27
		c-0.214-0.197-0.467-0.273-0.754-0.229c0.08-0.402-0.441-1.396-0.811-1.615c-0.813-0.479-0.263-1.797-0.12-2.479
		c0.335,0.229,1.161,0.531,1.558,0.701c0.362,0.156,2.6,0.725,1.651,0.276c1.957,0.784,3.225-2.353,1.275-3.149
		c0.817,0.123,0.129-0.732-0.334-0.882c-0.624-0.202-1.796,0.126-2.322,0.476c0.101-0.081,0.332-0.78,0.447-0.923
		c0.27-0.323,0.648-0.567,1.134-0.446c-1.883-2.465-2.55,2.068-3.37,1.704c-0.571-0.253-0.678-2.05-0.354-2.446
		c0.188-0.23-0.031-0.547,0.133-0.761c0.23-0.3,0.635-0.563,0.824-0.872c0.709-1.159,3.556-0.599,4.919-0.004
		c1.696,0.74,3.979,1.041,5.84,1.154c-0.191,0.375,0.064,0.615-0.029,0.9c-0.162-0.104-1.777-0.149-1.861-0.02
		c0.447,0.017,0.811,0.484,1.307,0.533c-0.766,0.052-0.877,1.221-1.535,1.166c0.367,0.35,2.678-1.143,1.674,0.621
		c0.447-0.01,0.641-0.506,0.734-0.855c0.371,0.217,2.791,2.24,3.287,1.416c-0.018,0.45,0.703,0.51,1.002,0.506
		c0.508-0.009,1.441,0.4,1.838,0.279c-1.543,1.051,2.604,4.645,2.613,3.248c0.006-0.922,1.348,0.803,2.551-0.427
		c1.32-1.345,0.232-3.769-1.646-3.689c0.521-0.148,1.604-0.16,1.76,0.69c0.908-1.467-1.457-2.293-2.502-1.902
		c0.602-0.342,0.158-0.623,0.717-0.86c0.393-0.167,0.66-0.646,1.15-0.509c-0.582-0.68-3.039-0.453-2.791,0.736
		c-0.293-0.098-0.533-0.025-0.721,0.219c0.012,0.391-0.18,0.541-0.576,0.451c-0.18,0.417-0.387,0.455-0.621,0.113
		c-0.387-0.212-0.635-0.135-1.016-0.372c-0.279-0.175-0.982-0.236-1.314-0.176c-0.518,0.095-0.674-0.647-1.256-0.438
		c-0.09-0.966,0.65-1.643,1.096-2.408c0.523-0.899,1.033-1.819,1.17-2.868c0.119-0.922-0.238-1.695,0.959-1.848
		c0.947-0.12,1.064,1.045,0.213,1.301c0.426,0.268,0.92-0.105,1.129-0.457c-0.285,0.628-0.326,1.716,0.52,1.928
		c-0.24-0.489,0.424-0.895,0.166-1.37c0.412,0.175,0.789,0.635,0.771,1.103c0.516-0.574-0.24-1.226-0.25-1.827
		c0.91,0.068,1.498-0.244,2.219-0.753c0.754-0.534,0.867-0.458,1.51,0.008c1.113,0.81,3.502,0.615,4.189-0.71
		c0.342-0.662,0.986-0.692,0.398-1.525c-0.4-0.568-0.934-1.12-1.182-1.711c-0.803-1.9-3.336,0.231-3.646,0.777
		c-0.441,0.628-0.145,0.682-0.883,0.618c-1.049-0.089-1.922,0.603-3.029,0.414c-0.967-0.165-1.664-0.727-2.514-1.155
		c-1.115-0.562-1.74-0.632-2.473-1.715c0.645,0.131,1.307,0.243,1.834,0.674c0.436,0.356,0.85,0.969,1.506,0.793
		c-0.715-0.194-1.383-1.257-2.074-1.661c0.709-0.909,2.244-0.636,3.256-0.619c0.891,0.014,1.316,1.022,1.99,1.442
		c-0.395,0.185-0.473,0.79-0.965,0.813c0.441,0.236,0.938,0.077,1.277-0.25c-0.135,0.386,0.01,0.843,0.424,0.985
		c-0.277-0.379,0.189-0.675,0.367-0.936c0.131,0.27,0.545,0.485,0.379,0.848c0.953-0.216,0.326-2.611-0.426-2.814
		c1.268-1.128,1.576,0.945,1.227,1.774c0.498-0.363,0.496-1.028,0.504-1.578c0.98,0.328,5.783-1.099,5.637,0.804
		c0.68-0.806-0.631-1.373-1.234-1.476c-0.467-0.081-0.752-1.524-1.547-0.909c0.828-0.112,0.42,0.986-0.051,1.167
		c0.182-0.665-0.547-1.225-1.158-0.964c1.668,0.484-0.939,1.838-0.715,0.857c0.133-0.576,0.578-0.991,0.467-1.636
		c-0.053-0.302-0.291-0.663-0.264-0.874c0.387,0.125,0.404-0.24,0.113-0.372c0.279,0.104,0.58-0.201,0.895-0.247
		c0.721-0.108,1.314-0.417,1.955-0.733C55.205,18.763,57.652,18.39,57.652,18.39L57.652,18.39L57.652,18.39L57.652,18.39z
		 M46.424,21.697c0.326-0.691,1.947-1.425,1.412-0.176c0.219-0.131,0.512-0.762,0.848-0.627c0.391,0.157,0.553,0.571,0.115,0.818
		c0.393,0,0.766-0.267,1.164-0.154c-0.236,0.246-0.236,0.62-0.545,0.813C48.844,22.733,47.344,21.814,46.424,21.697z M48.195,23.257
		c-0.438-0.192-1.154-0.64-1.479-0.996c0.639,0.166,1.275,0.337,1.898,0.554C48.57,22.85,48.301,23.096,48.195,23.257z"/>
</g>
</svg>
