<?xml version="1.0" encoding="utf-8"?>
<!-- Generator: Adobe Illustrator 15.0.0, SVG Export Plug-In . SVG Version: 6.00 Build 0)  -->
<!DOCTYPE svg PUBLIC "-//W3C//DTD SVG 1.1//EN" "http://www.w3.org/Graphics/SVG/1.1/DTD/svg11.dtd">
<svg version="1.1" id="Layer_1" xmlns="http://www.w3.org/2000/svg" xmlns:xlink="http://www.w3.org/1999/xlink" x="0px" y="0px"
	 width="64px" height="64px" viewBox="0 0 64 64" enable-background="new 0 0 64 64" xml:space="preserve">
<g>
	<g>
		<path fill="#2A5F9E" d="M2,32c0,9.815,4.714,18.528,12,24h36.001C57.286,50.527,62,41.814,62,32c0-9.814-4.714-18.526-11.999-24
			H14C6.714,13.473,2,22.185,2,32z"/>
		<path fill="#ED4C5C" d="M14,8h36.001C44.986,4.233,38.754,2,32,2S19.014,4.233,14,8z"/>
		<path fill="#ED4C5C" d="M32,62c6.754,0,12.986-2.232,18.001-6H14C19.014,59.768,25.246,62,32,62z"/>
	</g>
	<path fill="#ED4C5C" d="M43.548,32C43.548,42.205,32,50.475,32,50.475S20.453,42.205,20.453,32C20.453,21.795,32,13.524,32,13.524
		S43.548,21.795,43.548,32z"/>
	<g>
		<path fill="#B4D7EE" d="M42,32c0,8.836-10,16-10,16s-10-7.164-10-16c0-8.837,10-16,10-16S42,23.163,42,32z"/>
		<path fill="#B4D7EE" d="M42,32c0,8.836-10,16-10,16s-10-7.164-10-16c0-8.837,10-16,10-16S42,23.163,42,32z"/>
		<path fill="#FFE62E" d="M26.629,39.404C28.961,42.783,32,45,32,45s8-5.82,8-13h-0.007C36.238,35.416,31.68,37.982,26.629,39.404z"
			/>
		<path fill="#428BC1" d="M24,32c0,2.752,1.179,5.301,2.629,7.405c5.051-1.422,9.609-3.988,13.364-7.405H24z"/>
		<polygon fill="#FFFFFF" points="28,30 28,34 32,34 		"/>
		<g>
			<path fill="#89664C" d="M34.944,39c-3.787-6.752-3.285-13.708-3.262-14l0.831,0.084c-0.006,0.069-0.494,6.938,3.135,13.411
				L34.944,39z"/>
		</g>
		<polygon fill="#83BF4F" points="32,22.223 34.5,20 33.666,23.111 37,24 33.666,24.888 34.5,28 32,25.776 29.5,28 30.335,24.888 
			27,24 30.335,23.111 29.5,20 		"/>
	</g>
</g>
</svg>
