<?xml version="1.0" encoding="utf-8"?>
<!-- Generator: Adobe Illustrator 15.0.0, SVG Export Plug-In . SVG Version: 6.00 Build 0)  -->
<!DOCTYPE svg PUBLIC "-//W3C//DTD SVG 1.1//EN" "http://www.w3.org/Graphics/SVG/1.1/DTD/svg11.dtd">
<svg version="1.1" id="Layer_1" xmlns="http://www.w3.org/2000/svg" xmlns:xlink="http://www.w3.org/1999/xlink" x="0px" y="0px"
	 width="64px" height="64px" viewBox="0 0 64 64" enable-background="new 0 0 64 64" xml:space="preserve">
<g>
	<path fill="#F9F9F9" d="M55.229,13.015h-4.243V8.772c-11.017-9.029-26.956-9.029-37.974,0h0.001v4.242H8.772
		C-0.256,24.03-0.258,39.972,8.77,50.987h4.244v4.244h-0.001c11.018,9.025,26.957,9.025,37.975-0.002v-4.242h4.242
		C64.257,39.972,64.256,24.032,55.229,13.015z"/>
	<path fill="#ED4C5C" d="M32,27.759L13.014,8.772c-0.768,0.627-1.512,1.299-2.228,2.014c-0.716,0.717-1.388,1.461-2.016,2.229
		l18.987,18.986L8.77,50.987c0.629,0.768,1.3,1.512,2.016,2.229c0.716,0.715,1.46,1.387,2.228,2.016L32,36.243l18.987,18.988
		c0.768-0.629,1.512-1.301,2.227-2.016c0.717-0.717,1.389-1.461,2.016-2.229L36.243,32.001l18.986-18.986
		c-0.627-0.768-1.299-1.512-2.016-2.229c-0.715-0.715-1.459-1.387-2.228-2.014L32,27.759z"/>
	<g>
		<g>
			<path fill="#ED4C5C" d="M37.11,10.665c1.254,5.082,0.566,11.358-5.103,14.84c-5.669-3.481-6.357-9.758-5.103-14.84
				C28.242,9.45,34.315,8.701,37.11,10.665L37.11,10.665z"/>
			<g>
				<path fill="#FFE62E" d="M36.945,13.183c-0.046-0.127-0.077-0.177-0.239-0.12c-0.396,0.138-1.482,0.06-1.829-0.179
					c0.52,0.215,1.183-0.239,1.183-0.615c0-0.418-0.514-0.76-1.554-0.532c-1.04,0.226-2.308,0.13-2.308-0.216
					c0-0.347,0.909-0.395,1.376-0.322c0.466,0.072,0.8,0.12,1.673-0.191c-0.215,0.083-0.909,0.107-1.458-0.048
					c-0.55-0.154-1.901-0.154-1.913,0.573c-0.012,0.729,1.438,0.662,2.69,0.478c0.729-0.107,1.111-0.035,1.111,0.204
					c0,0.227-0.669,0.322-1.184,0.263s-1.046-0.067-1.649,0.132c-1.089,0.361-2.342,0.096-2.67-0.427
					c0.023-0.053,0.039-0.12,0.039-0.226c0-0.003,0-0.005,0-0.009c0.077-0.079,0.151-0.231,0.184-0.343
					c0.073-0.261-0.027-0.269-0.326-0.149c-0.104-0.103-0.276-0.165-0.566-0.165c-0.291,0-0.464,0.063-0.566,0.166
					c-0.302-0.12-0.402-0.112-0.328,0.148c0.031,0.112,0.107,0.269,0.186,0.347c0,0.002,0,0.004,0,0.005
					c0.002,0.402,0.439,0.994,0.431,1.017c-0.569-0.052-1.319-1.13-1.454-1.569c-0.061-0.199-0.294-0.324-0.423-0.277
					c-0.112,0.042-0.155,0.14-0.058,0.213s0.221,0.084,0.248,0.271c-0.127-0.152-0.314-0.207-0.406-0.113
					c-0.055,0.059-0.032,0.191,0.086,0.204c0.173,0.018,0.082,0.17,0.215,0.333c-0.17-0.159-0.314-0.165-0.408-0.059
					c-0.063,0.072,0,0.198,0.134,0.185c0.194-0.02,0.812,0.896,2.317,1.734c-0.021,0.116-0.264,0.094-0.452,0.102
					c-0.353,0.016-0.824-0.038-1.07-0.316c-0.218-0.248-0.509-0.446-0.74-0.262c-0.12,0.094-0.005,0.218,0.09,0.184
					c0.093-0.035,0.204,0.034,0.304,0.078c-0.16-0.068-0.335-0.016-0.404,0.047c-0.094,0.083,0.021,0.246,0.135,0.188
					c0.09-0.044,0.273-0.074,0.393,0.035c-0.129-0.025-0.264-0.02-0.328,0.05s-0.014,0.171,0.125,0.163
					c0.224-0.009,1.83,1.012,3.139-0.166c0.191,0.007,1.522-0.043,2.039-0.36c0.344,0.394,0.398,0.35,0.7,0.408
					c0.311,0.06,0.501,0.06,0.293,0.233c-0.071,0.061-0.37,0.031-0.604,0.042c-0.521,0.022-0.759-0.361-0.913-0.162
					c-0.116,0.15-0.016,0.224,0.201,0.229c-0.167,0-0.351,0.009-0.314,0.157c0.068,0.281,0.337-0.053,0.44,0.063
					c-0.088-0.021-0.229,0.035-0.233,0.118c-0.005,0.086,0.199,0.195,0.423,0.017c0.123-0.098,0.274-0.135,0.373-0.135
					c0.367,0.002,1.193,0.189,1.465-0.113c0.105-0.117-0.03-0.215-0.138-0.322c-0.104-0.104-0.13-0.247-0.109-0.484
					c0.309,0.055,0.706,0.065,1.264-0.036c0.664-0.121,0.872,0.102,0.872,0.406c0,0.21-0.123,0.228-0.215,0.234
					c-0.37,0.021-0.528-0.14-0.674-0.087c-0.099,0.033-0.158,0.193-0.017,0.248c-0.116,0.061-0.103,0.171-0.042,0.213
					c0.06,0.041,0.213,0.003,0.318-0.045c-0.135,0.061-0.273,0.169-0.195,0.285c0.049,0.068,0.171,0.127,0.285-0.021
					c0.113-0.148,0.326-0.24,0.455-0.253C36.896,14.574,37.146,13.738,36.945,13.183z"/>
				<polygon fill="#FFE62E" points="29.505,11.29 29.505,11.29 29.505,11.29 				"/>
			</g>
			<g>
				<path fill="#FFE62E" d="M36.675,17.601c-0.043-0.12-0.072-0.168-0.227-0.113c-0.374,0.13-1.4,0.057-1.729-0.17
					c0.492,0.204,1.119-0.227,1.119-0.581c0-0.396-0.486-0.718-1.47-0.504c-0.983,0.216-2.181,0.124-2.181-0.204
					c0-0.327,0.858-0.371,1.3-0.304c0.44,0.067,0.757,0.111,1.582-0.182c-0.203,0.08-0.859,0.102-1.378-0.045
					c-0.521-0.147-1.797-0.147-1.81,0.542c-0.011,0.69,1.36,0.627,2.543,0.453c0.689-0.103,1.052-0.035,1.052,0.191
					c0,0.215-0.633,0.305-1.119,0.249c-0.486-0.058-0.989-0.064-1.561,0.125c-1.028,0.34-2.213,0.089-2.523-0.405
					c0.023-0.05,0.037-0.112,0.037-0.211c0-0.004,0-0.006,0-0.01c0.073-0.074,0.144-0.22,0.174-0.324
					c0.069-0.246-0.025-0.254-0.309-0.142c-0.098-0.097-0.262-0.157-0.535-0.157c-0.275,0-0.438,0.061-0.535,0.159
					c-0.285-0.114-0.381-0.106-0.311,0.14c0.029,0.105,0.102,0.254,0.175,0.328c0,0.002,0,0.002,0,0.006
					c0.003,0.377,0.416,0.938,0.408,0.96c-0.538-0.051-1.248-1.068-1.374-1.485c-0.059-0.188-0.278-0.306-0.4-0.26
					c-0.107,0.039-0.146,0.131-0.055,0.2s0.209,0.079,0.234,0.255c-0.119-0.144-0.298-0.195-0.383-0.104
					c-0.053,0.054-0.032,0.18,0.08,0.191c0.163,0.017,0.078,0.161,0.203,0.315c-0.16-0.152-0.298-0.158-0.387-0.057
					c-0.059,0.067,0,0.188,0.127,0.175c0.184-0.019,0.768,0.847,2.191,1.641c-0.021,0.109-0.25,0.087-0.428,0.095
					c-0.334,0.017-0.779-0.035-1.012-0.298c-0.207-0.235-0.48-0.423-0.7-0.249c-0.112,0.09-0.005,0.207,0.085,0.174
					c0.088-0.033,0.192,0.033,0.287,0.075c-0.15-0.066-0.316-0.016-0.381,0.041c-0.09,0.081,0.019,0.234,0.127,0.181
					c0.084-0.044,0.258-0.07,0.371,0.032c-0.123-0.023-0.25-0.02-0.311,0.046c-0.061,0.067-0.014,0.161,0.117,0.155
					c0.212-0.009,1.73,0.956,2.967-0.157c0.182,0.008,1.439-0.041,1.93-0.34c0.324,0.371,0.375,0.331,0.66,0.385
					c0.295,0.057,0.475,0.057,0.277,0.222c-0.067,0.056-0.35,0.03-0.57,0.039c-0.493,0.021-0.719-0.341-0.864-0.153
					c-0.11,0.143-0.015,0.211,0.19,0.217c-0.158,0-0.332,0.009-0.297,0.148c0.064,0.265,0.318-0.05,0.417,0.059
					c-0.085-0.02-0.216,0.032-0.222,0.113c-0.004,0.08,0.188,0.183,0.4,0.015c0.115-0.093,0.259-0.128,0.352-0.128
					c0.348,0.002,1.129,0.179,1.385-0.107c0.1-0.11-0.028-0.202-0.129-0.304c-0.1-0.1-0.123-0.235-0.104-0.457
					c0.292,0.051,0.668,0.061,1.194-0.035c0.628-0.115,0.825,0.096,0.825,0.384c0,0.197-0.116,0.215-0.204,0.221
					c-0.35,0.021-0.499-0.131-0.637-0.082c-0.092,0.032-0.148,0.184-0.015,0.234c-0.11,0.058-0.097,0.162-0.04,0.201
					c0.056,0.039,0.201,0.004,0.301-0.042c-0.127,0.057-0.259,0.161-0.184,0.27c0.045,0.064,0.16,0.12,0.268-0.02
					c0.108-0.141,0.309-0.228,0.432-0.239C36.628,18.916,36.864,18.125,36.675,17.601z"/>
				<polygon fill="#FFE62E" points="29.642,15.81 29.642,15.81 29.642,15.81 				"/>
			</g>
			<g>
				<path fill="#FFE62E" d="M35.433,21.42c-0.032-0.087-0.054-0.122-0.167-0.083c-0.274,0.096-1.027,0.042-1.268-0.124
					c0.36,0.149,0.82-0.167,0.82-0.428c0-0.29-0.356-0.525-1.077-0.368c-0.723,0.157-1.601,0.091-1.601-0.15
					c0-0.239,0.63-0.272,0.954-0.224c0.322,0.05,0.555,0.083,1.16-0.133c-0.149,0.059-0.631,0.075-1.012-0.033
					c-0.382-0.108-1.318-0.108-1.326,0.398c-0.009,0.505,0.997,0.461,1.865,0.331c0.506-0.074,0.771-0.023,0.771,0.142
					c0,0.157-0.464,0.226-0.82,0.183c-0.356-0.042-0.726-0.048-1.144,0.092c-0.756,0.25-1.625,0.066-1.854-0.297
					c0.018-0.036,0.028-0.082,0.028-0.156c0-0.002,0-0.004,0-0.006c0.054-0.056,0.104-0.162,0.126-0.238
					c0.052-0.18-0.018-0.186-0.226-0.104c-0.071-0.072-0.191-0.115-0.392-0.115c-0.203,0-0.322,0.043-0.395,0.115
					c-0.209-0.082-0.278-0.078-0.227,0.104c0.021,0.078,0.074,0.186,0.128,0.24c0,0.001,0,0.002,0,0.004
					c0.003,0.278,0.306,0.689,0.3,0.705c-0.396-0.037-0.916-0.783-1.008-1.088c-0.043-0.139-0.205-0.226-0.294-0.192
					c-0.079,0.028-0.107,0.097-0.04,0.146c0.066,0.052,0.153,0.059,0.172,0.188c-0.088-0.104-0.219-0.142-0.281-0.078
					c-0.039,0.041-0.023,0.134,0.059,0.143c0.119,0.012,0.057,0.117,0.148,0.229c-0.117-0.109-0.218-0.114-0.282-0.04
					c-0.043,0.049,0,0.138,0.093,0.129c0.135-0.014,0.563,0.62,1.607,1.203c-0.016,0.08-0.184,0.063-0.314,0.069
					c-0.244,0.012-0.571-0.026-0.742-0.22c-0.15-0.172-0.352-0.309-0.514-0.183c-0.082,0.066-0.002,0.152,0.063,0.129
					c0.065-0.023,0.143,0.023,0.211,0.054c-0.111-0.048-0.232-0.011-0.279,0.032c-0.065,0.059,0.014,0.17,0.094,0.13
					c0.061-0.029,0.189-0.051,0.271,0.025c-0.09-0.018-0.184-0.014-0.228,0.034s-0.011,0.117,0.086,0.113
					c0.155-0.007,1.27,0.701,2.177-0.114c0.134,0.005,1.057-0.031,1.416-0.251c0.238,0.271,0.275,0.243,0.484,0.284
					c0.216,0.04,0.348,0.04,0.203,0.159c-0.05,0.043-0.257,0.023-0.418,0.031c-0.362,0.015-0.527-0.251-0.635-0.112
					c-0.08,0.104-0.01,0.153,0.141,0.157c-0.116,0.002-0.244,0.007-0.219,0.109c0.047,0.195,0.233-0.036,0.307,0.045
					c-0.063-0.016-0.159,0.022-0.162,0.081c-0.004,0.06,0.137,0.135,0.293,0.012c0.084-0.067,0.189-0.095,0.258-0.093
					c0.256,0,0.828,0.131,1.016-0.08c0.074-0.08-0.02-0.15-0.095-0.223c-0.072-0.072-0.09-0.172-0.076-0.336
					c0.214,0.038,0.49,0.045,0.876-0.025c0.461-0.084,0.605,0.07,0.605,0.281c0,0.146-0.085,0.158-0.149,0.162
					c-0.256,0.017-0.366-0.096-0.468-0.06c-0.068,0.023-0.109,0.135-0.01,0.172c-0.082,0.042-0.072,0.119-0.029,0.147
					c0.041,0.028,0.147,0.003,0.22-0.03c-0.093,0.042-0.19,0.117-0.134,0.196c0.032,0.048,0.117,0.09,0.196-0.014
					s0.226-0.166,0.315-0.176C35.397,22.385,35.571,21.805,35.433,21.42z"/>
				<polygon fill="#FFE62E" points="30.272,20.106 30.272,20.106 30.272,20.106 				"/>
			</g>
		</g>
		<path fill="#FFE62E" d="M31.999,9.646c2.079,0,4.015,0.55,5.156,1.264c0.223-1.754,1.018-3.506,1.955-4.829
			c-0.979-0.021-1.416,0.499-1.426,1.038c-0.245-0.692-1.203-0.651-1.498-0.275c1.07,0.725,0.244,2.007-0.723,1.743
			c-0.455-0.124-0.695-0.442-0.78-0.902c0.29-0.018,0.51-0.269,0.491-0.558c-0.018-0.291-0.268-0.509-0.558-0.491
			s-0.511,0.268-0.491,0.557c0.013,0.206,0.143,0.383,0.334,0.458c-0.307,0.499-0.855,0.649-1.248,0.539
			c-0.51-0.144-0.723-0.601-0.723-1.008c0-1.06,1.018-1.224,1.324-1.041c-0.02-0.712-1.141-1.282-1.487-0.692
			C32.714,4.755,32.692,3.778,32,3.126c-0.692,0.652-0.713,1.629-0.325,2.321c-0.347-0.59-1.467-0.02-1.488,0.692
			c0.307-0.183,1.325-0.019,1.325,1.041c0,0.407-0.214,0.864-0.724,1.008c-0.394,0.11-0.941-0.04-1.248-0.539
			c0.271-0.105,0.404-0.41,0.299-0.681c-0.105-0.271-0.41-0.404-0.681-0.3c-0.271,0.106-0.405,0.411-0.299,0.682
			c0.074,0.191,0.253,0.321,0.457,0.333c-0.086,0.46-0.326,0.778-0.78,0.902c-0.968,0.264-1.793-1.019-0.723-1.743
			c-0.296-0.376-1.253-0.417-1.498,0.275c-0.01-0.539-0.448-1.06-1.426-1.038c0.936,1.323,1.73,3.075,1.955,4.829
			C27.985,10.195,29.922,9.646,31.999,9.646L31.999,9.646z"/>
	</g>
</g>
</svg>
