<?xml version="1.0" encoding="utf-8"?>
<!-- Generator: Adobe Illustrator 15.0.0, SVG Export Plug-In . SVG Version: 6.00 Build 0)  -->
<!DOCTYPE svg PUBLIC "-//W3C//DTD SVG 1.1//EN" "http://www.w3.org/Graphics/SVG/1.1/DTD/svg11.dtd">
<svg version="1.1" id="Layer_1" xmlns="http://www.w3.org/2000/svg" xmlns:xlink="http://www.w3.org/1999/xlink" x="0px" y="0px"
	 width="64px" height="64px" viewBox="0 0 64 64" enable-background="new 0 0 64 64" xml:space="preserve">
<g>
	<g>
		<path fill="#C94747" d="M32,2C18.939,2,7.833,10.349,3.714,22h56.572C56.167,10.349,45.061,2,32,2z"/>
		<path fill="#3E4347" d="M32,62c13.061,0,24.167-8.35,28.286-20H3.714C7.833,53.65,18.939,62,32,62z"/>
		<path fill="#F9F9F9" d="M3.714,22C2.607,25.128,2,28.492,2,32c0,3.508,0.607,6.872,1.714,10h56.572C61.393,38.871,62,35.508,62,32
			c0-3.508-0.607-6.871-1.714-10H3.714z"/>
	</g>
	<g id="g6">
		<g id="g8">
			<g id="g10">
				<path id="path12" fill="#699635" d="M44.724,26.572c-0.178-0.094-0.377-0.244-0.444-0.334c-0.099-0.14-0.041-0.145,0.37-0.033
					c0.735,0.199,1.211,0.122,1.683-0.278l0.415-0.35l0.488,0.249c0.271,0.136,0.557,0.23,0.638,0.209
					c0.212-0.057,0.651-0.62,0.637-0.815c-0.017-0.241,0.187-0.181,0.285,0.084c0.194,0.518-0.089,1.112-0.592,1.243
					c-0.246,0.064-0.473,0.041-0.845-0.089c-0.457-0.16-0.535-0.157-0.764,0.019C46.081,26.871,45.365,26.908,44.724,26.572z"/>
				<path id="path14" fill="#699635" d="M46.543,24.908c-0.179-0.228-0.394-1.087-0.323-1.299c0.061-0.182,0.124-0.22,0.29-0.167
					c0.292,0.092,0.358,0.292,0.313,0.973C46.791,24.97,46.71,25.116,46.543,24.908z"/>
			</g>
			<path id="path16" fill="#699635" d="M25.103,24.29c-0.058,0.417,0.738,1.451,1.099,1.637c-0.245,0.11-0.549,0.061-0.772,0.184
				c-1.255,1.255-5.833,5.718-6.67,6.785c2.477,0.049,5.224-0.035,7.546-0.14c-0.001-1.683,1.593-1.77,2.661-2.383
				c0.55,0.866,1.93,0.799,2.104,2.102c0,1.56,0.002,3.908,0.002,5.603c-7.006,0-14.153,0-21.157,0
				c-0.373,1.645-1.856,2.898-3.924,2.383c0.639-0.668,1.717-0.898,2.102-1.82c0.325-2.023-0.65-3.27-1.28-4.416
				c1.044-0.381,1.201-0.475,2.262-1.189c-0.744,2.262,1.934,2.014,3.923,1.963c0.066-0.768,0.029-1.674-0.562-1.785
				c0.761-0.277,0.888-0.373,2.104-1.403c0,0.935,0,2.112,0,3.047c4.726,0,9.826-0.037,14.65-0.037c0-0.951,0.253-2.484-0.501-2.484
				c-0.722,0-0.033,1.96-0.594,1.96s-7.532,0-11.315,0c0-0.422-0.012-1.303-0.012-1.938c0.481-0.479,0.424-0.438,3.7-3.714
				C20.794,28.318,23.093,26.241,25.103,24.29z"/>
			<path id="path18" fill="#699635" d="M53.385,24.209c0.791,0.425,1.415,1.014,2.383,1.261c-0.112,0.4-0.469,0.558-0.562,0.981
				c0,2.848,0,5.696,0,8.544c1.08,0.238,1.309-0.373,1.822-0.699c0.14,1.367,1.011,2.707,0.98,3.781c-1.541,0-3.082,0-4.624,0
				C53.385,33.457,53.385,28.833,53.385,24.209z"/>
			<path id="path20" fill="#699635" d="M47.221,28.786c0,0,1.681-1.419,1.681-1.474c0,2.428,0,5.029,0,7.458l1.212-0.002
				c0-2.841-0.036-5.723-0.036-8.364c0.489-0.492,1.453-1.204,1.693-1.701c0,5.076,0,9.374,0,13.356
				c-3.412,0-9.779,0.004-10.62,0.004c-0.155-2.771-0.183-5.643,3.048-5.027c0-0.471,0-0.751,0-1.129
				c-0.098-0.193-0.274,0.047-0.316-0.205c0.514-0.514,0.688-0.645,2.076-1.858c0,1.465,0.027,4.921,0.027,4.921
				c0.338,0,1,0.002,1.225,0.002C47.21,34.766,47.221,28.976,47.221,28.786z M43.233,34.693c0.227,0.342,1.003,0.336,0.965-0.238
				C44.069,33.98,43.052,34.16,43.233,34.693z"/>
			<circle id="circle22" fill="#699635" cx="12.489" cy="39.653" r="0.649"/>
			<path id="path24" fill="#699635" d="M49.692,34.867"/>
			<path id="path26" fill="#699635" d="M45.97,34.867"/>
			<path id="path28" fill="#699635" d="M32.503,24.223c0.791,0.425,1.417,1.013,2.383,1.261c-0.111,0.399-0.468,0.558-0.562,0.979
				c0,2.849,0,5.698,0,8.546c1.08,0.238,1.307-0.375,1.822-0.701c0.14,1.369,1.011,2.709,0.98,3.783c-1.54,0-3.083,0-4.624,0
				C32.503,33.469,32.503,28.847,32.503,24.223z"/>
		</g>
	</g>
</g>
</svg>
