<?xml version="1.0" encoding="utf-8"?>
<!-- Generator: Adobe Illustrator 15.0.0, SVG Export Plug-In . SVG Version: 6.00 Build 0)  -->
<!DOCTYPE svg PUBLIC "-//W3C//DTD SVG 1.1//EN" "http://www.w3.org/Graphics/SVG/1.1/DTD/svg11.dtd">
<svg version="1.1" id="Layer_1" xmlns="http://www.w3.org/2000/svg" xmlns:xlink="http://www.w3.org/1999/xlink" x="0px" y="0px"
	 width="64px" height="64px" viewBox="0 0 64 64" enable-background="new 0 0 64 64" xml:space="preserve">
<g>
	<g>
		<path fill="#2A5F9E" d="M62,31.999C62,15.431,48.568,2,32,2S2,15.431,2,31.999C2,36.268,2.897,40.324,4.503,44h54.993
			C61.104,40.324,62,36.268,62,31.999z"/>
		<path fill="#2A5F9E" d="M32,62c9.814,0,18.527-4.714,24-12H8C13.473,57.286,22.186,62,32,62z"/>
		<path fill="#FFCE31" d="M4.503,44c0.936,2.142,2.11,4.154,3.497,6h48c1.387-1.846,2.561-3.858,3.496-6H4.503z"/>
	</g>
	<g>
		<polygon fill="#FFFFFF" points="11.442,15.495 12.68,19.307 16.687,19.307 13.445,21.661 14.684,25.472 11.442,23.116 8.2,25.472 
			9.438,21.661 6.197,19.307 10.204,19.307 		"/>
		<polygon fill="#FFFFFF" points="22.822,24.459 24.562,29.813 30.191,29.813 25.637,33.124 27.377,38.478 22.822,35.169 
			18.267,38.478 20.006,33.124 15.452,29.813 21.082,29.813 		"/>
	</g>
</g>
</svg>
