<?xml version="1.0" encoding="utf-8"?>
<!-- Generator: Adobe Illustrator 15.0.0, SVG Export Plug-In . SVG Version: 6.00 Build 0)  -->
<!DOCTYPE svg PUBLIC "-//W3C//DTD SVG 1.1//EN" "http://www.w3.org/Graphics/SVG/1.1/DTD/svg11.dtd">
<svg version="1.1" id="Layer_1" xmlns="http://www.w3.org/2000/svg" xmlns:xlink="http://www.w3.org/1999/xlink" x="0px" y="0px"
	 width="64px" height="64px" viewBox="0 0 64 64" enable-background="new 0 0 64 64" xml:space="preserve">
<g>
	<g>
		<path fill="#428BC1" d="M32,2C18.939,2,7.833,10.35,3.714,22h56.572C56.167,10.35,45.061,2,32,2z"/>
		<path fill="#83BF4F" d="M32,62c13.061,0,24.167-8.35,28.286-20H3.714C7.833,53.65,18.939,62,32,62z"/>
		<path fill="#ED4C5C" d="M3.714,22C2.607,25.129,2,28.492,2,32s0.607,6.871,1.714,10h56.572C61.393,38.871,62,35.508,62,32
			s-0.607-6.871-1.714-10H3.714z"/>
	</g>
	<path fill="#FFFFFF" d="M31.607,40.192c-4.515,0-8.173-3.668-8.173-8.192c0-4.523,3.658-8.192,8.173-8.192
		c1.075,0,2.099,0.214,3.039,0.591c-1.604-1.224-3.594-1.958-5.765-1.958c-5.261,0-9.528,4.28-9.528,9.559
		c0,5.278,4.268,9.559,9.528,9.559c2.171,0,4.161-0.733,5.765-1.958C33.706,39.979,32.683,40.192,31.607,40.192z"/>
	<polygon fill="#FFFFFF" points="40.424,33.427 38.197,34.854 39.583,32.602 37,32.035 39.574,31.424 38.146,29.196 40.399,30.584 
		40.965,28 41.576,30.573 43.803,29.146 42.417,31.398 45,31.965 42.426,32.576 43.854,34.804 41.601,33.416 41.035,36 	"/>
</g>
</svg>
