<?xml version="1.0" encoding="utf-8"?>
<!-- Generator: Adobe Illustrator 15.0.0, SVG Export Plug-In . SVG Version: 6.00 Build 0)  -->
<!DOCTYPE svg PUBLIC "-//W3C//DTD SVG 1.1//EN" "http://www.w3.org/Graphics/SVG/1.1/DTD/svg11.dtd">
<svg version="1.1" id="Layer_1" xmlns="http://www.w3.org/2000/svg" xmlns:xlink="http://www.w3.org/1999/xlink" x="0px" y="0px"
	 width="64px" height="64px" viewBox="0 0 64 64" enable-background="new 0 0 64 64" xml:space="preserve">
<g>
	<rect x="12" y="12" fill="#428BC1" width="20" height="20"/>
	<polygon fill="#FFFFFF" points="18.912,8.14 18.912,14 11.6,14 26,32 32,32 32,24.5 	"/>
	<path fill="#ED4C5C" d="M32,2v30H2c0,16.568,13.432,30,30,30s30-13.432,30-30C62,15.432,48.568,2,32,2z"/>
	<path fill="#FFFFFF" d="M11,18.913H5.011C3.088,22.87,2,27.306,2,32h12V13.913h-3V18.913z"/>
	<polygon fill="#ED4C5C" points="32.464,27.643 19,11 13,11 30.464,32.584 32.464,32.584 	"/>
	<path fill="#FFFFFF" d="M18.912,5.012V11H11v3h21V2C27.306,2,22.868,3.088,18.912,5.012z"/>
	<path fill="#ED4C5C" d="M33,5H18.912C12.857,7.941,7.94,12.858,5,18.913V33h6V11h22V5z"/>
	<g>
		<g>
			<g>
				<path fill="#3E4347" d="M47,46.987l-6.244-2.386c-1.33-0.518-3.79-1.475-3.79-4.104V21.084h20.068v19.414
					c0,2.625-2.458,3.584-3.779,4.102L47,46.987z"/>
			</g>
			<g>
				<path fill="#FFFFFF" d="M38.399,22.518v17.98c0,1.525,1.398,2.193,2.866,2.766L47,45.453l5.734-2.189
					c1.468-0.574,2.867-1.24,2.867-2.766v-17.98H38.399z"/>
			</g>
			<g>
				<path fill="#83BF4F" d="M39.832,38.285v1.397c0,1.335,1.166,1.921,2.391,2.421L47,44.02l4.777-1.916
					c1.225-0.502,2.391-1.086,2.391-2.421v-1.397H39.832z"/>
			</g>
		</g>
		<g>
			<g>
				<path fill="#ED4C5C" d="M41.821,40.244c-0.421-0.17-0.263-1.527,0.091-1.813c0.27-0.217,1.389-0.117,1.389-0.117l0.465-1.107
					l1.42,0.73l-0.977,1.188c0,0-0.188,0.939-0.455,0.998c-0.127,0.027-0.264-0.357-0.395-0.344
					c-0.234,0.025-0.322,0.783-0.558,0.762c-0.254-0.025-0.178-0.893-0.432-0.928C42.162,39.584,42.016,40.322,41.821,40.244z"/>
				<path fill="#ED4C5C" d="M51.932,40.363c0.421-0.17,0.263-1.527-0.09-1.812c-0.272-0.218-1.39-0.118-1.39-0.118l-0.465-1.107
					l-1.421,0.73l0.979,1.188c0,0,0.186,0.94,0.453,0.998c0.129,0.027,0.264-0.357,0.396-0.344c0.233,0.025,0.321,0.785,0.556,0.762
					c0.256-0.025,0.18-0.893,0.434-0.928C51.589,39.703,51.737,40.441,51.932,40.363z"/>
			</g>
			<path fill="#ED4C5C" d="M50.358,32.209c0,0,2.368,0.274,2.919,0.792c0.608,0.573,0.938,2.773,0.314,3.329
				c-0.334,0.299-1.75-0.369-1.75-0.369l-0.025-0.74l-1.868-1.587L50.358,32.209z"/>
			<path fill="#ED4C5C" d="M43.09,31.675c0,0-1.682,0.508-2.086,0.909c-0.644,0.64-1.359,3.064-0.611,3.576
				c0.365,0.25,1.514-0.908,1.514-0.908l1.708-1.148L43.09,31.675z"/>
			<path fill="#42ADE2" d="M43.388,33.004l-1.835-1.465c0,0-0.49-1.572,0.75-1.816c1.184-0.234,4.816-0.388,4.816-0.388
				s4.545,0.14,4.818,0.309c1.096,0.686-0.027,2.212-0.027,2.212l-1.534,1.4l1.143,2.69l-8.389-0.161L43.388,33.004z"/>
			<polygon fill="#FFCE31" points="42.814,34.75 43.268,31.675 45.629,30.859 47.311,33.383 47.171,37.436 			"/>
			<polygon fill="#3E4347" points="45.25,35.771 45.634,33.505 48.668,32.703 50.376,35.853 47.658,37.844 			"/>
			<path fill="#FFFFFF" d="M42.063,35.303l0.822-0.709c0,0,1.303,0.97,1.817,1.104c0.349,0.092,1.147-0.256,1.443-0.051
				c0.231,0.16,0.091,0.971,0.354,1.064c0.569,0.2,1.43-1.219,2.024-1.307c0.345-0.051,1.025,0.525,1.343,0.381
				c0.438-0.199,0.814-1.738,0.814-1.738l1.229,1.146l-0.648,2.301l-1.713,0.396l-2.73,2.023l-2.487-2.069l-1.595-0.365
				L42.063,35.303z"/>
			<path fill="#ED4C5C" d="M42.303,29.723c0,0-0.871-0.45-0.734-0.715c0.215-0.416,1.417-0.42,1.852-0.249
				c0.166,0.066,0.452,0.556,0.452,0.556l1.19-0.313l0.107-0.827c0,0-0.555-0.401-0.526-0.599c0.038-0.276,0.944-0.602,0.944-0.602
				s-0.928-0.12-0.944-0.374c-0.015-0.188,0.652-0.373,0.652-0.373s-0.451-0.549-0.323-0.691c0.111-0.125,0.636,0.218,0.636,0.218
				s-0.255-0.586-0.192-0.776c0.055-0.167,0.539-0.453,0.539-0.453s0.02-0.739,0.246-0.82c0.132-0.048,0.84,0.176,0.84,0.176
				s0.464-0.458,0.578-0.469c0.162-0.015,0.314,0.504,0.314,0.504s0.57-0.227,0.633-0.212c0.148,0.034,0.097,0.905,0.097,0.905
				s0.425,0.16,0.458,0.291c0.041,0.159-0.316,0.581-0.316,0.581s0.672-0.04,0.75,0.134c0.074,0.164-0.379,0.612-0.379,0.612
				s0.55,0.376,0.516,0.564c-0.033,0.189-0.685,0.353-0.685,0.353s0.633,0.407,0.593,0.618c-0.03,0.155-0.576,0.262-0.576,0.262
				l0.375,0.735l0.803,0.513c0,0,1.295-0.539,1.742-0.481c0.156,0.02,0.484,0.169,0.543,0.314c0.081,0.196-0.549,0.539-0.549,0.539
				l-0.711,0.777l-2.832-0.877l-3.225,0.148l-2.078,0.891L42.303,29.723z"/>
			<ellipse fill="#3E4347" cx="46.713" cy="25.307" rx="0.314" ry="0.224"/>
			<ellipse fill="#3E4347" cx="47.835" cy="25.307" rx="0.315" ry="0.224"/>
			<path fill="#FFCE31" d="M42.303,29.723c0,0,0.639,1.065,1.084,1.097c0.544,0.04,2.033-0.79,2.033-0.79s-0.027,0.291,0.038,0.35
				c0.546,0.489,2.454,0.554,2.935,0c0.101-0.116-0.086-0.605-0.086-0.605s2.174,0.866,2.922,0.765
				c0.332-0.045,0.709-0.896,0.709-0.896s-0.63,0.35-0.99,0.308c-0.775-0.089-2.217-0.962-2.994-0.887
				c-0.193,0.018-0.67,0.397-0.67,0.397l-0.836,0.042c0,0-0.599-0.323-0.816-0.307c-0.609,0.042-1.636,0.892-2.241,0.972
				C42.999,30.22,42.303,29.723,42.303,29.723z"/>
			<g>
				<polygon fill="#FFCE31" points="52.508,31.54 51.576,31.54 50.096,33.266 51.006,34.885 51.709,35.367 51.104,37.205 
					50.184,37.684 49.668,37.373 49.006,37.539 49.285,38.008 48.078,38.711 47.162,39.177 47.027,39.813 47.48,40.165 
					47.896,39.735 47.786,39.307 49.07,38.868 49.669,38.076 50.66,38.176 51.352,37.68 52.031,35.512 52.197,35.068 51.395,34.633 
					50.625,33.266 51.73,32.199 52.16,32.463 52.549,32.297 				"/>
				<polygon fill="#FFCE31" points="41.391,31.54 42.322,31.54 43.803,33.266 42.891,34.885 42.189,35.367 42.794,37.205 
					43.713,37.684 44.229,37.373 44.892,37.539 44.612,38.008 45.821,38.711 46.735,39.177 46.871,39.813 46.419,40.165 
					46.002,39.735 46.111,39.307 44.828,38.868 44.229,38.076 43.238,38.176 42.545,37.68 41.867,35.512 41.7,35.068 42.504,34.633 
					43.273,33.266 42.168,32.199 41.738,32.463 41.349,32.297 				"/>
			</g>
		</g>
	</g>
</g>
</svg>
