<?xml version="1.0" encoding="utf-8"?>
<!-- Generator: Adobe Illustrator 15.0.0, SVG Export Plug-In . SVG Version: 6.00 Build 0)  -->
<!DOCTYPE svg PUBLIC "-//W3C//DTD SVG 1.1//EN" "http://www.w3.org/Graphics/SVG/1.1/DTD/svg11.dtd">
<svg version="1.1" id="Layer_1" xmlns="http://www.w3.org/2000/svg" xmlns:xlink="http://www.w3.org/1999/xlink" x="0px" y="0px"
	 width="64px" height="64px" viewBox="0 0 64 64" enable-background="new 0 0 64 64" xml:space="preserve">
<g>
	<path fill="#FFCE31" d="M2,32c0,5.885,1.701,11.367,4.628,16h50.744C60.299,43.367,62,37.885,62,32s-1.701-11.368-4.628-16H6.628
		C3.701,20.632,2,26.115,2,32z"/>
	<path fill="#ED4C5C" d="M57.372,16C52.057,7.59,42.684,2,32,2S11.943,7.59,6.628,16H57.372z"/>
	<path fill="#ED4C5C" d="M6.628,48C11.943,56.41,21.316,62,32,62s20.057-5.59,25.372-14H6.628z"/>
	<rect x="9.242" y="28.711" fill="#C8B100" width="3.2" height="1.763"/>
	<rect x="9.198" y="41.895" fill="#C8B100" width="3.285" height="1.652"/>
	<path fill="#ED4C5C" d="M8.941,39.061c-0.325,0.188-0.546,0.381-0.51,0.477c0.018,0.088,0.12,0.154,0.269,0.252
		c0.232,0.162,0.373,0.451,0.263,0.584c0.192-0.156,0.313-0.387,0.313-0.645C9.276,39.459,9.148,39.217,8.941,39.061"/>
	<rect x="9.668" y="30.457" fill="#FFFFFF" width="2.334" height="11.434"/>
	<path fill="#ED4C5C" d="M14.387,34.733c-0.511-0.21-1.375-0.366-2.368-0.399c-0.343,0.003-0.725,0.035-1.119,0.102
		c-1.396,0.232-2.459,0.789-2.375,1.244l0.008,0.037l-0.531-1.224c-0.094-0.504,1.086-1.123,2.635-1.382
		c0.486-0.08,0.961-0.112,1.373-0.107c0.99,0,1.852,0.127,2.371,0.319L14.387,34.733"/>
	<path fill="#ED4C5C" d="M9.665,36.169c-0.646-0.047-1.089-0.22-1.141-0.489c-0.039-0.217,0.18-0.455,0.57-0.672
		c0.174,0.02,0.37,0.043,0.573,0.043L9.665,36.169"/>
	<path fill="#ED4C5C" d="M12.007,35.295c0.404,0.062,0.707,0.162,0.859,0.285l0.014,0.025c0.071,0.147-0.283,0.462-0.877,0.813
		L12.007,35.295"/>
	<path fill="#ED4C5C" d="M8.216,38.375c-0.063-0.186,0.568-0.555,1.461-0.883c0.407-0.145,0.744-0.297,1.162-0.48
		c1.238-0.549,2.153-1.177,2.041-1.406l-0.013-0.023l0.169,1.184c0.111,0.209-0.726,0.828-1.866,1.375
		c-0.365,0.174-1.136,0.459-1.5,0.586c-0.65,0.227-1.298,0.652-1.238,0.811L8.216,38.375"/>
	<rect x="30.655" y="28.711" fill="#C8B100" width="3.2" height="1.763"/>
	<rect x="30.614" y="41.895" fill="#C8B100" width="3.285" height="1.652"/>
	<path fill="#ED4C5C" d="M34.156,39.061c0.325,0.188,0.546,0.381,0.511,0.477c-0.018,0.088-0.121,0.154-0.27,0.252
		c-0.232,0.162-0.373,0.451-0.263,0.584c-0.192-0.156-0.313-0.387-0.313-0.645C33.822,39.459,33.95,39.217,34.156,39.061"/>
	<rect x="31.096" y="30.457" fill="#FFFFFF" width="2.334" height="11.434"/>
	<path fill="#ED4C5C" d="M28.711,34.733c0.511-0.21,1.376-0.366,2.37-0.399c0.341,0.003,0.723,0.035,1.117,0.102
		c1.396,0.232,2.459,0.789,2.375,1.244l-0.008,0.037l0.531-1.224c0.094-0.504-1.086-1.123-2.635-1.382
		c-0.486-0.08-0.961-0.112-1.371-0.107c-0.992,0-1.854,0.127-2.373,0.319L28.711,34.733"/>
	<path fill="#ED4C5C" d="M33.433,36.169c0.648-0.047,1.09-0.22,1.141-0.489c0.039-0.217-0.18-0.455-0.57-0.672
		c-0.174,0.02-0.371,0.043-0.573,0.043L33.433,36.169"/>
	<path fill="#ED4C5C" d="M31.092,35.295c-0.405,0.062-0.708,0.162-0.86,0.285l-0.014,0.025c-0.072,0.147,0.283,0.462,0.877,0.813
		L31.092,35.295"/>
	<path fill="#ED4C5C" d="M34.882,38.375c0.063-0.186-0.568-0.555-1.461-0.883c-0.407-0.145-0.744-0.297-1.162-0.48
		c-1.238-0.549-2.153-1.177-2.039-1.406l0.011-0.023l-0.167,1.184c-0.113,0.209,0.725,0.828,1.864,1.375
		c0.365,0.174,1.136,0.459,1.5,0.586c0.651,0.227,1.298,0.652,1.239,0.811L34.882,38.375"/>
	<path fill="#ED4C5C" d="M21.456,22.278c1.916,0,5.779,0.438,7.191,1.768c-1.486,3.601-3.924,2.123-7.159,2.122
		c-3.245-0.001-5.682,1.482-7.175-2.122C15.721,22.727,19.55,22.278,21.456,22.278C22.411,22.278,20.504,22.278,21.456,22.278z"/>
	<path fill="#C8B100" d="M26.444,26.278c-1.244-0.696-2.99-0.844-4.92-0.849c-1.928,0.005-3.66,0.153-4.905,0.849l0.446,1.689
		c1.126,0.339,2.703,0.547,4.464,0.55c1.761-0.002,3.337-0.211,4.463-0.55L26.444,26.278z"/>
	<path fill="#C8B100" d="M28.116,22.044c-0.381-0.331-1.156-0.552-1.938-0.552c-0.31,0-0.607,0.034-0.881,0.096
		c0.041,0.045-0.551-0.83-1.956-0.83c-0.495,0-0.948,0.122-1.298,0.325l-0.009-0.059c-0.052-0.224-0.269-0.392-0.522-0.392
		c-0.253,0-0.479,0.167-0.531,0.392l-0.008,0.058c-0.35-0.203-0.802-0.324-1.295-0.324c-1.375,0-1.996,0.874-1.956,0.83
		c-0.274-0.063-0.571-0.096-0.882-0.096c-4.617,0-2.253,3.108-2.253,3.108l0.378-0.618c-1.068-1.401-0.141-2.25,1.875-2.25
		c0.254,0,0.498,0.024,0.725,0.068c-0.689,1.026,0.6,1.886,0.6,1.886l0.299-0.489c-0.727-0.461-0.785-2.203,1.215-2.203
		c0.497,0,0.945,0.135,1.263,0.352c-0.01,0.109-0.104,1.455-0.208,1.728l0.779,0.737l0.771-0.737
		c-0.103-0.273-0.196-1.617-0.206-1.726c0.316-0.218,0.766-0.354,1.265-0.354c2.054,0,2.126,1.729,1.214,2.203l0.299,0.489
		c0,0,1.091-0.867,0.6-1.886c0.227-0.044,0.472-0.072,0.725-0.068c2.388,0.035,2.549,1.776,1.875,2.25l0.378,0.618
		C28.432,24.6,29.47,23.221,28.116,22.044z"/>
	<path fill="#005BBF" d="M20.879,20.063c0-0.333,0.285-0.603,0.636-0.603c0.352,0,0.637,0.27,0.637,0.603
		c0,0.333-0.285,0.602-0.637,0.602C21.164,20.666,20.879,20.396,20.879,20.063"/>
	<polygon fill="#C8B100" points="21.349,18.375 21.349,18.7 21.001,18.7 21.001,19.03 21.349,19.03 21.349,19.481 21.349,19.979 
		20.91,19.979 20.879,20.064 20.929,20.299 20.933,20.303 22.099,20.303 22.103,20.299 22.153,20.064 22.121,19.979 21.696,19.979 
		21.696,19.485 21.696,19.03 22.045,19.03 22.045,18.7 21.696,18.7 21.696,18.375 	"/>
	<path fill="#ED4C5C" d="M21.524,28.286c-1.588-0.001-3.024-0.186-4.118-0.468c1.094-0.283,2.53-0.456,4.118-0.458
		c1.59,0.002,3.033,0.175,4.127,0.458C24.558,28.101,23.114,28.285,21.524,28.286"/>
	<path fill="#FFFFFF" d="M21.578,45.625c-1.878,0-3.739-0.461-5.305-1.227c-1.154-0.57-1.919-1.723-1.919-3.041v-4.781h14.419v4.781
		c0,1.318-0.765,2.471-1.919,3.041C25.29,45.164,23.457,45.625,21.578,45.625"/>
	<rect x="21.547" y="28.568" fill="#FFFFFF" width="7.227" height="7.999"/>
	<path fill="#ED4C5C" d="M21.552,41.352c0,1.889-1.6,3.42-3.595,3.42s-3.612-1.531-3.612-3.42v-4.789h7.207V41.352"/>
	<path fill="#C8B100" d="M15.919,44.174c0.226,0.121,0.535,0.32,0.865,0.398l-0.02-8.178h-0.846V44.174z"/>
	<path fill="#C8B100" d="M14.333,41.287c0.021,1.01,0.422,1.76,0.824,2.25v-7.104h-0.814L14.333,41.287z"/>
	<path fill="#C7B500" d="M17.526,44.752c0.33,0.033,0.577,0.027,0.844,0v-8.357h-0.844V44.752z"/>
	<path fill="#C8B100" d="M19.112,44.572c0.332-0.066,0.704-0.271,0.866-0.377v-7.801h-0.845L19.112,44.572z"/>
	<rect x="14.346" y="28.568" fill="#ED4C5C" width="7.204" height="7.999"/>
	<path fill="#C8B100" d="M20.763,43.457c0.352-0.313,0.682-1.021,0.803-1.832l0.021-5.23h-0.845L20.763,43.457z"/>
	<path fill="#ED4C5C" d="M28.78,36.563v4.789c0,1.889-1.619,3.42-3.615,3.42c-1.994,0-3.613-1.531-3.613-3.42v-4.789H28.78"/>
	<path fill="#ED4C5C" d="M26.169,29.964c0.256,0.603,0.253,2.077-0.647,1.763c0.17,0.059,0.257,0.813,0.567,1.162
		c0.528,0.598,1.107,0.061,0.965-0.581c-0.245-1.105-0.117-1.814,0.106-2.892c0.019,0.144,0.501,0.119,0.676-0.107
		c-0.134,0.288-0.158,0.688-0.045,0.699c-0.176,0.29-0.726,0.771-0.76,1.094c-0.071,0.695,0.975,2.048-0.205,2.318
		c-0.783,0.18-0.311,0.799,0.017,1.109c-0.009-0.008-0.361,1.275-0.204,1.219c-0.845,0.305-0.566-0.375-0.566-0.375
		c0.36-1.152-0.654-1.271-0.567-1.472c-1-0.053,0.128,0.935-0.821,0.935c-0.159,0-0.573,0.174-0.579,0.174
		c-1.099-0.09-0.451-1.139-0.132-0.987c0.308,0.146,0.586,0.647,0.639-0.051c0,0-0.512-0.81,0.757-0.802
		c-0.468-0.003-0.84-0.447-0.997-0.897c-0.166,0.128-0.55,0.608-1.616,0.692c0,0-0.339-1.073-0.005-0.923
		c0.367,0.164,0.646,0.171,0.982-0.209c-0.24-0.254-1.404-0.718-1.23-1.43c0.048-0.191,0.589-0.479,0.589-0.479
		c-0.086,0.494,0.173,0.968,0.813,1.045c0.827,0.1,0.486-0.198,0.557-0.449c0.064-0.224,0.683,0.083,0.533-0.419
		c-0.021-0.072-0.715-0.233-0.488-0.45c0.557-0.509,1.231-0.2,1.664,0.316"/>
	<polyline fill="#ED4C5C" points="21.606,44.611 21.373,44.078 21.607,43.545 21.839,44.078 21.606,44.611 	"/>
	<polygon fill="#C8B100" points="16.454,30.284 16.454,30.815 16.687,30.815 16.687,31.18 16.188,31.18 16.188,32.242 
		16.454,32.242 16.454,34.365 15.922,34.365 15.922,35.461 20.003,35.461 20.003,34.365 19.472,34.365 19.472,32.242 19.737,32.242 
		19.737,31.18 19.239,31.18 19.239,30.815 19.472,30.815 19.472,30.284 18.478,30.284 18.478,30.815 18.71,30.815 18.71,31.18 
		18.212,31.18 18.212,30.019 18.478,30.019 18.478,29.488 17.448,29.488 17.448,30.019 17.714,30.019 17.714,31.18 17.216,31.18 
		17.216,30.815 17.448,30.815 17.448,30.284 	"/>
	<path fill="#C8B100" d="M27.75,42.607v-4.992h-5.168v4.992l2.414,1.111v0.002h0.002h0.334h0.004v-0.002L27.75,42.607z
		 M24.994,37.957l0.002,1.738l-1.74-1.738H24.994z M22.924,38.109l2,1.998l-2,2.002V38.109z M23.061,42.457l1.936-1.936v2.818
		L23.061,42.457z M25.336,43.34v-2.818l1.936,1.936L25.336,43.34z M27.408,42.109l-2-2.002l2-1.998V42.109z M25.336,37.957h1.74
		l-1.74,1.738V37.957z"/>
	<path fill="#ED4C5C" d="M19.235,36.533c0-1.451,1.045-2.627,2.334-2.627s2.334,1.176,2.334,2.627c0,1.449-1.045,2.625-2.334,2.625
		S19.235,37.982,19.235,36.533"/>
	<path fill="#005BBF" d="M19.927,36.528c0-1.064,0.736-1.927,1.644-1.927c0.906,0,1.642,0.862,1.642,1.927
		c0,1.063-0.735,1.927-1.642,1.927C20.663,38.455,19.927,37.592,19.927,36.528"/>
	<polyline fill="#C8B100" points="20.794,35.202 20.369,36.299 20.659,36.398 20.524,36.779 21.067,36.779 20.933,36.398 
		21.224,36.299 20.794,35.202 	"/>
	<polyline fill="#C8B100" points="22.321,35.202 21.896,36.299 22.186,36.398 22.05,36.779 22.595,36.779 22.459,36.398 
		22.75,36.299 22.321,35.202 	"/>
	<polyline fill="#C8B100" points="21.558,36.516 21.132,37.611 21.422,37.713 21.287,38.092 21.832,38.092 21.696,37.713 
		21.987,37.611 21.557,36.516 	"/>
</g>
</svg>
