<?xml version="1.0" encoding="utf-8"?>
<!-- Generator: Adobe Illustrator 15.0.0, SVG Export Plug-In . SVG Version: 6.00 Build 0)  -->
<!DOCTYPE svg PUBLIC "-//W3C//DTD SVG 1.1//EN" "http://www.w3.org/Graphics/SVG/1.1/DTD/svg11.dtd">
<svg version="1.1" id="Layer_1" xmlns="http://www.w3.org/2000/svg" xmlns:xlink="http://www.w3.org/1999/xlink" x="0px" y="0px"
	 width="64px" height="64px" viewBox="0 0 64 64" enable-background="new 0 0 64 64" xml:space="preserve">
<g>
	<circle fill="#F42F4C" cx="32" cy="32" r="30"/>
	<path fill="#3E4347" d="M48.916,41.886c-0.904-1.605-3.42-0.406-4.719-0.361c0.65-0.551,2.537-1.885,3.494-1.92
		c-0.664-0.555-2.025-0.119-2.518,0.469c-1.793,2.142-2.949,0.981-5.543,0.227c2.105-2.18-6.008-3.755-3.426-5.554
		c0.539-0.376,1.436,3.076,2.84,2.517c0.604-0.24-2.326-2.461-0.781-3.004c0.539-0.189,2.543,5.711,3.934,3.312
		c0.521-0.897-3.088-1.685-2.072-3.491c-0.738,1.313,8.813,6.186,7.582,3.02c-0.574-1.481-6.357-0.408-5.857-4.32
		c-0.135,1.047,6.742,4.214,5.971,1.252c-0.17-0.652-6.887-0.19-5.711-3.37c0.18-0.49,5.895,3.866,5.689,0.654
		c-0.076-1.173-6.08-0.263-5.484-2.92c0.012-0.051,6.213,2.579,5.479-0.182c-0.102-0.381-6.871,0.379-5.633-1.961
		c-0.574,1.084,8.115,0.553,5.527-1.573c-0.898-0.738-4.729,2.704-5.459-0.32c0.1,0.405,7.498-0.593,5.414-2.725
		c-0.543-0.556-5.168,3.088-5.34,0.701c-0.035-0.464,6.201-3.354,5.256-4.877c-1.141-1.836-7.186,3.179-7.902,3.512
		c-4.666,2.169,0.047,0.902-2.328,3.689c-1.385,1.626-2.461-0.923-2.068-1.997c0.844-2.307,5.58-2.048,5.801-3.514
		c-0.715,0.452-1.377,0.437-1.984-0.047c0.098-0.008,5.055-0.745,3.414-1.415c-0.189-0.078-0.75,0.255-1.383,0.568
		c0.102-2.435-6.432-0.584-7.082-0.539c2.721,2.284-2.172,0.967,0.611,2.152c-0.723,0.132-1.35,0.445-1.883,0.939
		C34.045,21.043,32,22.465,32,22.465s-2.046-1.422-0.754-1.657c-0.533-0.494-1.16-0.807-1.882-0.939
		c2.783-1.185-2.109,0.132,0.61-2.152c-0.65-0.046-7.184-1.896-7.082,0.539c-0.633-0.313-1.193-0.646-1.383-0.568
		c-1.64,0.67,3.316,1.407,3.415,1.415c-0.608,0.484-1.271,0.499-1.985,0.047c0.221,1.466,4.958,1.207,5.801,3.514
		c0.393,1.073-0.685,3.623-2.069,1.997c-2.374-2.787,2.339-1.52-2.328-3.689c-0.715-0.333-6.76-5.348-7.901-3.512
		c-0.945,1.522,5.291,4.413,5.257,4.877c-0.173,2.387-4.797-1.257-5.341-0.701c-2.084,2.132,5.315,3.129,5.413,2.725
		c-0.729,3.023-4.561-0.418-5.458,0.32c-2.588,2.126,6.101,2.657,5.526,1.573c1.238,2.341-5.53,1.58-5.632,1.961
		c-0.734,2.76,5.468,0.13,5.479,0.182c0.596,2.658-5.409,1.748-5.483,2.92c-0.205,3.212,5.508-1.145,5.688-0.654
		c1.177,3.18-5.542,2.718-5.712,3.37c-0.771,2.962,6.105-0.205,5.971-1.252c0.502,3.912-5.281,2.839-5.856,4.32
		c-1.229,3.166,8.319-1.707,7.582-3.02c1.017,1.808-2.594,2.594-2.073,3.491c1.391,2.399,3.396-3.501,3.936-3.312
		c1.544,0.543-1.386,2.765-0.782,3.004c1.404,0.56,2.301-2.893,2.84-2.517c2.582,1.799-5.531,3.374-3.425,5.554
		c-2.594,0.755-3.75,1.915-5.543-0.227c-0.493-0.588-1.855-1.023-2.52-0.469c0.959,0.035,2.845,1.369,3.495,1.92
		c-1.299-0.045-3.814-1.244-4.72,0.361c1.13-0.463,3.601,0.024,4.705,0.098c-1.205,1.023-3.387,0.291-2.981,2.758
		c0.6-1.994,6.595-3.529,7.305-0.65c0.721-1.278-2.123-2.004-2.736-2.178c0.416-0.134,5.085-0.126,5.085-0.126
		s2.596-5.137,3.762-3.865c2.791,3.044-4.647,4.654-4.898,5.271c-0.778,1.921,3.756,0.183,3.624,0.062
		c1.247,1.146-3.028,2.062-3.019,2.435c0.051,2.077,3.49-0.813,3.652-0.776c1.633,0.375-2.294,2.844-2.25,2.545
		c-0.329,2.238,3.396-0.686,3.337-1.186c0.388,0.555,0.369,1.145-0.057,1.77C29.269,50.371,30.507,50.618,32,53
		c1.493-2.382,2.731-2.629,1.389-4.958c-0.426-0.625-0.443-1.215-0.057-1.77c-0.061,0.5,3.666,3.424,3.336,1.186
		c0.045,0.299-3.881-2.17-2.25-2.545c0.162-0.037,3.604,2.854,3.654,0.776c0.008-0.373-4.266-1.288-3.02-2.435
		c-0.133,0.121,4.402,1.859,3.623-0.062c-0.25-0.617-7.688-2.228-4.896-5.271c1.164-1.271,3.76,3.865,3.76,3.865
		s4.67-0.008,5.086,0.126c-0.613,0.174-3.457,0.898-2.736,2.178c0.711-2.879,6.705-1.344,7.305,0.65
		c0.406-2.467-1.775-1.734-2.98-2.758C45.316,41.91,47.787,41.423,48.916,41.886z M40.996,18.311
		c-0.578,0.281-1.199,0.526-1.645,0.42C39.738,18.247,40.498,17.747,40.996,18.311z M37.82,17.865c1.016,0.22,1.016,0.458,0,0.713
		C36.811,18.339,36.811,18.101,37.82,17.865z M23.003,18.311c0.499-0.564,1.258-0.063,1.645,0.42
		C24.204,18.836,23.582,18.591,23.003,18.311z M26.179,18.579c-1.017-0.256-1.017-0.494,0-0.713
		C27.19,18.101,27.19,18.339,26.179,18.579z"/>
</g>
</svg>
