<?xml version="1.0" encoding="utf-8"?>
<!-- Generator: Adobe Illustrator 15.0.0, SVG Export Plug-In . SVG Version: 6.00 Build 0)  -->
<!DOCTYPE svg PUBLIC "-//W3C//DTD SVG 1.1//EN" "http://www.w3.org/Graphics/SVG/1.1/DTD/svg11.dtd">
<svg version="1.1" id="Layer_1" xmlns="http://www.w3.org/2000/svg" xmlns:xlink="http://www.w3.org/1999/xlink" x="0px" y="0px"
	 width="64px" height="64px" viewBox="0 0 64 64" enable-background="new 0 0 64 64" xml:space="preserve">
<g>
	<g>
		<path fill="#ED4C5C" d="M22,60.285V3.714C10.35,7.833,2,18.939,2,32S10.35,56.166,22,60.285z"/>
		<path fill="#FFCE31" d="M22,32h40C62,15.432,48.568,2,32,2c-3.508,0-6.871,0.607-10,1.714V32z"/>
		<path fill="#699635" d="M22,32v28.285C25.129,61.393,28.492,62,32,62c16.568,0,30-13.432,30-30H22z"/>
	</g>
	<polygon fill="#3E4347" points="13,35.715 17.322,39 15.693,33.658 20,30.25 14.662,30.25 13,25 11.385,30.25 6,30.25 
		10.307,33.658 8.676,39 	"/>
</g>
</svg>
