<?xml version="1.0" encoding="utf-8"?>
<!-- Generator: Adobe Illustrator 15.0.0, SVG Export Plug-In . SVG Version: 6.00 Build 0)  -->
<!DOCTYPE svg PUBLIC "-//W3C//DTD SVG 1.1//EN" "http://www.w3.org/Graphics/SVG/1.1/DTD/svg11.dtd">
<svg version="1.1" id="Layer_1" xmlns="http://www.w3.org/2000/svg" xmlns:xlink="http://www.w3.org/1999/xlink" x="0px" y="0px"
	 width="64px" height="64px" viewBox="0 0 64 64" enable-background="new 0 0 64 64" xml:space="preserve">
<g>
	<circle fill="#2A5F9E" cx="32" cy="32" r="30"/>
	<g>
		<polygon fill="#FFCE31" points="32.002,11.801 32.719,14.006 35.037,14.006 33.162,15.369 33.877,17.574 32.002,16.211 
			30.125,17.574 30.842,15.369 28.967,14.006 31.285,14.006 		"/>
		<polygon fill="#FFCE31" points="32,45.778 32.717,47.984 35.037,47.984 33.16,49.348 33.877,51.553 32,50.189 30.125,51.553 
			30.842,49.348 28.967,47.984 31.285,47.984 		"/>
		<polygon fill="#FFCE31" points="40.42,43.032 41.137,45.239 43.456,45.239 41.58,46.602 42.297,48.807 40.42,47.444 
			38.545,48.807 39.262,46.602 37.386,45.239 39.704,45.239 		"/>
		<polygon fill="#FFCE31" points="46.221,37.233 46.938,39.439 49.256,39.439 47.379,40.803 48.096,43.008 46.221,41.645 
			44.344,43.008 45.061,40.803 43.186,39.439 45.504,39.439 		"/>
		<polygon fill="#FFCE31" points="48.965,28.789 49.682,30.995 52,30.995 50.125,32.358 50.841,34.563 48.965,33.2 47.089,34.563 
			47.805,32.358 45.93,30.995 48.248,30.995 		"/>
		<polygon fill="#FFCE31" points="46.221,20.344 46.938,22.551 49.256,22.551 47.379,23.914 48.096,26.119 46.221,24.756 
			44.344,26.119 45.061,23.914 43.186,22.551 45.504,22.551 		"/>
		<polygon fill="#FFCE31" points="40.42,14.546 41.137,16.752 43.456,16.752 41.58,18.115 42.297,20.32 40.42,18.957 38.545,20.32 
			39.261,18.115 37.385,16.752 39.704,16.752 		"/>
		<g>
			<polygon fill="#FFCE31" points="23.58,43.032 22.863,45.239 20.545,45.239 22.421,46.602 21.704,48.807 23.58,47.444 
				25.457,48.807 24.74,46.602 26.615,45.239 24.297,45.239 			"/>
			<polygon fill="#FFCE31" points="17.781,37.233 17.064,39.439 14.746,39.439 16.622,40.803 15.905,43.008 17.781,41.645 
				19.656,43.008 18.94,40.803 20.816,39.439 18.498,39.439 			"/>
			<polygon fill="#FFCE31" points="15.036,28.789 14.32,30.995 12,30.995 13.876,32.358 13.16,34.563 15.036,33.2 16.912,34.563 
				16.196,32.358 18.071,30.995 15.752,30.995 			"/>
			<polygon fill="#FFCE31" points="17.781,20.344 17.064,22.551 14.746,22.551 16.622,23.914 15.905,26.119 17.781,24.756 
				19.656,26.119 18.94,23.914 20.816,22.551 18.498,22.551 			"/>
			<polygon fill="#FFCE31" points="23.58,14.546 22.864,16.752 20.545,16.752 22.421,18.115 21.705,20.32 23.58,18.957 
				25.457,20.32 24.74,18.115 26.615,16.752 24.297,16.752 			"/>
		</g>
	</g>
</g>
</svg>
