<?xml version="1.0" encoding="utf-8"?>
<!-- Generator: Adobe Illustrator 15.0.0, SVG Export Plug-In . SVG Version: 6.00 Build 0)  -->
<!DOCTYPE svg PUBLIC "-//W3C//DTD SVG 1.1//EN" "http://www.w3.org/Graphics/SVG/1.1/DTD/svg11.dtd">
<svg version="1.1" id="Layer_1" xmlns="http://www.w3.org/2000/svg" xmlns:xlink="http://www.w3.org/1999/xlink" x="0px" y="0px"
	 width="64px" height="64px" viewBox="0 0 64 64" enable-background="new 0 0 64 64" xml:space="preserve">
<g>
	<g>
		<g>
			<path fill="#42ADE2" d="M62,32c0-13.061-8.35-24.167-20-28.286v56.572C53.65,56.166,62,45.061,62,32z"/>
			<path fill="#42ADE2" d="M2,32c0,13.061,8.35,24.167,20,28.286V3.713C10.35,7.833,2,18.939,2,32z"/>
			<path fill="#F9F9F9" d="M42,3.713C38.871,2.607,35.508,2,32,2s-6.871,0.607-10,1.714v56.572C25.129,61.393,28.492,62,32,62
				s6.871-0.607,10-1.715V3.713z"/>
		</g>
	</g>
	<g>
		<path fill="#699635" d="M27.053,25.937c0,0-0.681-0.193-1.224-0.184c0.007-0.011,0.014-0.018,0.021-0.028
			c0.428-0.655,0.57-1.881,0.57-1.881s-1.06,0.622-1.492,1.272c-0.224-0.472-0.635-0.957-0.635-0.957s-0.5,0.563-0.424,1.108
			s0.77,1.36,0.77,1.36s1.032,0.298,1.564,0.146C26.738,26.621,27.053,25.937,27.053,25.937z"/>
		<path fill="#83BF4F" d="M26.07,27.504c0,0-0.708-0.013-1.229,0.136c0.003-0.012,0.009-0.021,0.012-0.033
			c0.243-0.743,0.061-1.963,0.061-1.963s-0.861,0.873-1.108,1.613c-0.341-0.399-0.865-0.762-0.865-0.762s-0.335,0.673-0.12,1.18
			c0.216,0.508,1.099,1.116,1.099,1.116s1.074,0.023,1.549-0.262C25.945,28.245,26.07,27.504,26.07,27.504z"/>
		<path fill="#699635" d="M25.53,29.27c0,0-0.687,0.17-1.151,0.447c0.001-0.012,0.004-0.022,0.003-0.034
			c0.041-0.78-0.453-1.912-0.453-1.912s-0.604,1.064-0.65,1.842c-0.432-0.297-1.032-0.513-1.032-0.513s-0.149,0.736,0.191,1.17
			c0.341,0.436,1.352,0.795,1.352,0.795s1.044-0.252,1.429-0.651C25.604,30.017,25.53,29.27,25.53,29.27z"/>
		<path fill="#83BF4F" d="M25.469,31.113c0,0-0.618,0.342-0.995,0.729c-0.002-0.013-0.003-0.022-0.006-0.034
			c-0.163-0.765-0.937-1.73-0.937-1.73s-0.307,1.183-0.148,1.946c-0.494-0.176-1.131-0.23-1.131-0.23s0.048,0.749,0.491,1.082
			c0.443,0.333,1.513,0.42,1.513,0.42s0.941-0.513,1.209-0.995C25.734,31.817,25.469,31.113,25.469,31.113z"/>
		<path fill="#699635" d="M25.891,32.91c0,0-0.508,0.489-0.771,0.959c-0.006-0.012-0.009-0.021-0.016-0.031
			c-0.357-0.697-1.355-1.431-1.355-1.431s0.013,1.222,0.364,1.919c-0.523-0.043-1.153,0.066-1.153,0.066s0.241,0.711,0.757,0.92
			c0.514,0.207,1.571,0.018,1.571,0.018s0.776-0.738,0.909-1.273S25.891,32.91,25.891,32.91z"/>
		<path fill="#83BF4F" d="M26.768,34.537c0,0-0.364,0.602-0.496,1.125c-0.008-0.01-0.014-0.018-0.022-0.027
			c-0.526-0.58-1.683-1.033-1.683-1.033s0.332,1.176,0.853,1.76c-0.517,0.094-1.097,0.361-1.097,0.361s0.419,0.625,0.97,0.693
			c0.552,0.068,1.522-0.387,1.522-0.387s0.558-0.912,0.547-1.463C27.35,35.016,26.768,34.537,26.768,34.537z"/>
		<path fill="#699635" d="M28.037,35.885c0,0-0.194,0.674-0.186,1.213c-0.01-0.008-0.018-0.014-0.028-0.021
			c-0.659-0.424-1.895-0.564-1.895-0.564s0.626,1.051,1.282,1.48c-0.476,0.223-0.965,0.631-0.965,0.631s0.567,0.496,1.117,0.42
			s1.37-0.764,1.37-0.764s0.301-1.025,0.146-1.555S28.037,35.885,28.037,35.885z"/>
		<path fill="#83BF4F" d="M29.614,36.857c0,0-0.012,0.703,0.138,1.221c-0.012-0.004-0.02-0.01-0.033-0.012
			c-0.748-0.242-1.977-0.061-1.977-0.061s0.879,0.855,1.624,1.102c-0.401,0.338-0.768,0.855-0.768,0.855s0.678,0.334,1.188,0.121
			c0.513-0.215,1.125-1.092,1.125-1.092s0.023-1.066-0.265-1.537C30.36,36.982,29.614,36.857,29.614,36.857z"/>
		<path fill="#699635" d="M36.947,25.937c0,0,0.681-0.193,1.224-0.184c-0.007-0.011-0.014-0.018-0.021-0.028
			c-0.428-0.655-0.57-1.881-0.57-1.881s1.06,0.622,1.491,1.272c0.225-0.472,0.636-0.957,0.636-0.957s0.5,0.563,0.424,1.108
			s-0.77,1.36-0.77,1.36s-1.032,0.298-1.564,0.146C37.262,26.621,36.947,25.937,36.947,25.937z"/>
		<path fill="#83BF4F" d="M37.93,27.504c0,0,0.708-0.013,1.229,0.136c-0.004-0.012-0.009-0.021-0.012-0.033
			c-0.243-0.743-0.061-1.963-0.061-1.963s0.861,0.873,1.108,1.613c0.341-0.399,0.864-0.762,0.864-0.762s0.336,0.673,0.12,1.18
			c-0.216,0.508-1.099,1.116-1.099,1.116s-1.074,0.023-1.55-0.262C38.055,28.245,37.93,27.504,37.93,27.504z"/>
		<path fill="#699635" d="M38.47,29.27c0,0,0.687,0.17,1.151,0.447c-0.001-0.012-0.004-0.022-0.003-0.034
			c-0.041-0.78,0.453-1.912,0.453-1.912s0.604,1.064,0.65,1.842c0.433-0.297,1.032-0.513,1.032-0.513s0.149,0.736-0.191,1.17
			c-0.341,0.436-1.352,0.795-1.352,0.795s-1.044-0.252-1.429-0.651C38.396,30.017,38.47,29.27,38.47,29.27z"/>
		<path fill="#83BF4F" d="M38.53,31.113c0,0,0.619,0.342,0.996,0.729c0.002-0.013,0.003-0.022,0.005-0.034
			c0.164-0.765,0.938-1.73,0.938-1.73s0.307,1.183,0.148,1.946c0.494-0.176,1.131-0.23,1.131-0.23s-0.049,0.749-0.49,1.082
			c-0.443,0.333-1.514,0.42-1.514,0.42s-0.941-0.513-1.209-0.995C38.266,31.817,38.53,31.113,38.53,31.113z"/>
		<path fill="#699635" d="M38.109,32.91c0,0,0.508,0.489,0.771,0.959c0.006-0.012,0.009-0.021,0.016-0.031
			c0.357-0.697,1.355-1.431,1.355-1.431s-0.013,1.222-0.364,1.919c0.523-0.043,1.153,0.066,1.153,0.066s-0.241,0.711-0.757,0.92
			c-0.514,0.207-1.571,0.018-1.571,0.018s-0.776-0.738-0.909-1.273S38.109,32.91,38.109,32.91z"/>
		<path fill="#83BF4F" d="M37.232,34.537c0,0,0.364,0.602,0.496,1.125c0.008-0.01,0.014-0.018,0.022-0.027
			c0.526-0.58,1.683-1.033,1.683-1.033s-0.332,1.176-0.853,1.76c0.517,0.094,1.097,0.361,1.097,0.361s-0.42,0.625-0.97,0.693
			c-0.552,0.068-1.522-0.387-1.522-0.387s-0.558-0.912-0.547-1.463C36.65,35.016,37.232,34.537,37.232,34.537z"/>
		<path fill="#699635" d="M35.963,35.885c0,0,0.194,0.674,0.186,1.213c0.01-0.008,0.018-0.014,0.028-0.021
			c0.659-0.424,1.895-0.564,1.895-0.564s-0.626,1.051-1.282,1.48c0.476,0.223,0.965,0.631,0.965,0.631s-0.567,0.496-1.117,0.42
			s-1.37-0.764-1.37-0.764s-0.301-1.025-0.147-1.555C35.274,36.195,35.963,35.885,35.963,35.885z"/>
		<path fill="#83BF4F" d="M34.386,36.857c0,0,0.012,0.703-0.138,1.221c0.012-0.004,0.02-0.01,0.033-0.012
			c0.748-0.242,1.977-0.061,1.977-0.061s-0.879,0.855-1.624,1.102c0.401,0.338,0.768,0.855,0.768,0.855s-0.678,0.334-1.188,0.121
			c-0.513-0.215-1.125-1.092-1.125-1.092s-0.023-1.066,0.265-1.537C33.64,36.982,34.386,36.857,34.386,36.857z"/>
	</g>
	<g>
		<polygon fill="#94989B" points="39.996,24.072 25.996,36.994 27.164,38.072 		"/>
		<polygon fill="#94989B" points="24.004,24.072 38.004,36.994 36.836,38.072 		"/>
		<path fill="#FFDD7D" d="M29.188,32.998h4c0,0,1-0.999,1-4c0-3.008-1-4-1-4h-4c0,0,1,0.992,1,4
			C30.188,32,29.188,32.998,29.188,32.998z"/>
		<path fill="#699635" d="M31,20.833c0,0-0.02,0.076-0.016,0.215c-0.012,0.132,0.031,0.339,0.086,0.567
			c0.039,0.112,0.082,0.235,0.129,0.37c0.08,0.125,0.15,0.26,0.229,0.396c0.06,0.143,0.214,0.266,0.32,0.404
			c0.117,0.137,0.22,0.286,0.391,0.411c0.299,0.271,0.623,0.544,1.029,0.796c0.205,0.143,0.416,0.289,0.632,0.438
			c0.228,0.163,0.423,0.281,0.669,0.514c0.493,0.451,0.932,0.907,1.285,1.452c0.181,0.27,0.365,0.542,0.5,0.843
			c0.155,0.291,0.288,0.596,0.395,0.912c0.229,0.625,0.366,1.293,0.4,1.961c0.051,0.668-0.055,1.338-0.219,1.961
			c-0.174,0.622-0.465,1.184-0.811,1.651c-0.149,0.25-0.357,0.441-0.545,0.635c-0.189,0.191-0.373,0.367-0.582,0.496
			c-0.199,0.137-0.389,0.268-0.57,0.391c-0.19,0.105-0.385,0.18-0.558,0.26c-0.343,0.166-0.653,0.271-0.921,0.324
			C32.318,35.953,32.025,36,32.025,36s0.236-0.207,0.638-0.525c0.21-0.145,0.432-0.363,0.678-0.605
			c0.263-0.225,0.503-0.523,0.753-0.838c0.139-0.146,0.24-0.328,0.34-0.514c0.101-0.186,0.242-0.348,0.305-0.561
			c0.185-0.393,0.291-0.828,0.375-1.275c0.068-0.453,0.057-0.928,0.001-1.41c-0.063-0.48-0.163-0.977-0.351-1.449
			c-0.072-0.244-0.17-0.479-0.289-0.707c-0.1-0.235-0.223-0.459-0.354-0.676c-0.254-0.438-0.549-0.861-0.83-1.191
			c-0.381-0.391-0.748-0.77-1.097-1.128c-0.187-0.204-0.386-0.37-0.54-0.585c-0.145-0.221-0.285-0.434-0.421-0.639
			c-0.142-0.191-0.238-0.415-0.317-0.629c-0.07-0.219-0.177-0.395-0.197-0.607c-0.033-0.202-0.066-0.387-0.082-0.556
			c0.007-0.177,0.025-0.337,0.037-0.476c0.045-0.279,0.131-0.484,0.207-0.612C30.949,20.886,31,20.833,31,20.833z"/>
		<path fill="#594640" d="M25.408,39.9c-0.324,0.322-0.849,0.322-1.173,0l0,0c-0.323-0.324-0.323-0.848,0-1.172l2.343-2.344
			c0.324-0.322,0.848-0.322,1.172,0l0,0c0.324,0.324,0.324,0.85,0,1.172L25.408,39.9z"/>
		<path fill="#594640" d="M38.592,39.9c0.324,0.322,0.849,0.322,1.173,0l0,0c0.323-0.324,0.323-0.848,0-1.172l-2.343-2.344
			c-0.324-0.322-0.848-0.322-1.172,0l0,0c-0.324,0.324-0.324,0.85,0,1.172L38.592,39.9z"/>
	</g>
</g>
</svg>
