<?xml version="1.0" encoding="utf-8"?>
<!-- Generator: Adobe Illustrator 15.0.0, SVG Export Plug-In . SVG Version: 6.00 Build 0)  -->
<!DOCTYPE svg PUBLIC "-//W3C//DTD SVG 1.1//EN" "http://www.w3.org/Graphics/SVG/1.1/DTD/svg11.dtd">
<svg version="1.1" id="Layer_1" xmlns="http://www.w3.org/2000/svg" xmlns:xlink="http://www.w3.org/1999/xlink" x="0px" y="0px"
	 width="64px" height="64px" viewBox="0 0 64 64" enable-background="new 0 0 64 64" xml:space="preserve">
<g>
	<path fill="#F5F5F5" d="M37.969,2.601H26.032C14.264,4.978,4.989,14.235,2.602,26v11.998c2.388,11.766,11.662,21.023,23.431,23.4
		H38c11.764-2.387,21.022-11.662,23.399-23.43V26C59.012,14.235,49.737,4.978,37.969,2.601z"/>
	<path fill="#ED4C5C" d="M38,25.999V2.601c-1.938-0.395-3.945-0.602-6-0.602s-4.061,0.207-6,0.602v23.398H2.602
		C2.208,27.938,2,29.944,2,31.999C2,34.055,2.208,36.061,2.602,38H26v23.398C27.939,61.793,29.945,62,32,62s4.062-0.207,6-0.602V38
		h23.399C61.793,36.061,62,34.055,62,31.999c0-2.055-0.207-4.061-0.601-6H38z"/>
	<polygon fill="#FFCE31" points="52,29.5 34.5,29.5 34.5,12 37,9.5 27,9.5 29.5,12 29.5,29.5 12,29.5 9.5,27 9.5,37 12,34.5 
		29.5,34.5 29.5,52 27,54.5 37,54.5 34.5,52 34.5,34.5 52,34.5 54.5,37 54.5,27 	"/>
</g>
</svg>
