<?xml version="1.0" encoding="utf-8"?>
<!-- Generator: Adobe Illustrator 15.0.0, SVG Export Plug-In . SVG Version: 6.00 Build 0)  -->
<!DOCTYPE svg PUBLIC "-//W3C//DTD SVG 1.1//EN" "http://www.w3.org/Graphics/SVG/1.1/DTD/svg11.dtd">
<svg version="1.1" id="Layer_1" xmlns="http://www.w3.org/2000/svg" xmlns:xlink="http://www.w3.org/1999/xlink" x="0px" y="0px"
	 width="64px" height="64px" viewBox="0 0 64 64" enable-background="new 0 0 64 64" xml:space="preserve">
<g>
	<g>
		<path fill="#FFCE31" d="M2,32c0,16.568,13.432,30,30,30c11.744,0,21.906-6.753,26.832-16.584L5.168,18.584
			C3.145,22.622,2,27.176,2,32z"/>
		<path fill="#699635" d="M32,2C20.255,2,10.094,8.753,5.168,18.584l53.664,26.832C60.855,41.378,62,36.824,62,32
			C62,15.432,48.568,2,32,2z"/>
	</g>
	<polygon fill="#DA121A" points="32,17.912 35.291,28.037 45.938,28.037 37.324,34.296 40.614,44.422 32,38.164 23.386,44.422 
		26.676,34.296 18.063,28.037 28.709,28.037 	"/>
</g>
</svg>
