<?xml version="1.0" encoding="utf-8"?>
<!-- Generator: Adobe Illustrator 15.0.0, SVG Export Plug-In . SVG Version: 6.00 Build 0)  -->
<!DOCTYPE svg PUBLIC "-//W3C//DTD SVG 1.1//EN" "http://www.w3.org/Graphics/SVG/1.1/DTD/svg11.dtd">
<svg version="1.1" id="Layer_1" xmlns="http://www.w3.org/2000/svg" xmlns:xlink="http://www.w3.org/1999/xlink" x="0px" y="0px"
	 width="64px" height="64px" viewBox="0 0 64 64" enable-background="new 0 0 64 64" xml:space="preserve">
<g>
	<g>
		<path fill="#C94747" d="M32,2C18.938,2,7.833,10.349,3.713,22h56.572C56.166,10.349,45.061,2,32,2z"/>
		<path fill="#699635" d="M32,62c13.061,0,24.166-8.35,28.285-20H3.713C7.833,53.65,18.938,62,32,62z"/>
		<path fill="#FFCE31" d="M3.713,22C2.607,25.128,2,28.492,2,32c0,3.508,0.608,6.872,1.714,10h56.572C61.392,38.871,62,35.508,62,32
			c0-3.508-0.608-6.871-1.715-10H3.713z"/>
	</g>
	<polygon fill="#3E4347" points="32,37.309 38.181,42 35.847,34.369 42,29.5 34.377,29.5 32,22 29.691,29.5 22,29.5 28.152,34.369 
		25.818,42 	"/>
</g>
</svg>
