<?xml version="1.0" encoding="utf-8"?>
<!-- Generator: Adobe Illustrator 15.0.0, SVG Export Plug-In . SVG Version: 6.00 Build 0)  -->
<!DOCTYPE svg PUBLIC "-//W3C//DTD SVG 1.1//EN" "http://www.w3.org/Graphics/SVG/1.1/DTD/svg11.dtd">
<svg version="1.1" id="Layer_1" xmlns="http://www.w3.org/2000/svg" xmlns:xlink="http://www.w3.org/1999/xlink" x="0px" y="0px"
	 width="64px" height="64px" viewBox="0 0 64 64" enable-background="new 0 0 64 64" xml:space="preserve">
<g>
	<g>
		<path fill="#F9F9F9" d="M2,32c0,11.51,6.486,21.502,16,26.531V5.467C8.486,10.498,2,20.488,2,32z"/>
		<path fill="#FFCE31" d="M62,32c0-11.512-6.486-21.502-16-26.533v53.064C55.514,53.502,62,43.51,62,32z"/>
		<path fill="#2A5F9E" d="M32,2c-5.058,0-9.819,1.256-14,3.467v53.064C22.181,60.742,26.942,62,32,62s9.819-1.258,14-3.469V5.467
			C41.819,3.256,37.058,2,32,2z"/>
	</g>
	<g>
		<path fill="#FFFFFF" d="M23.886,38.805C23.883,38.771,23.916,38.684,23.886,38.805z M36.172,26.629L36.172,26.629z M44.28,38.068
			c0.69-0.738,0.6-2.063-0.354-2.482c-0.194-0.084-0.537,0.172-0.605,0.35c-0.186,0.48,0.528,0.869,0.123,1.303
			c-0.404,0.434-0.495-0.297-0.603-0.533c-0.245-0.533-0.643-0.83-1.073-1.201c-0.857-0.738-1.332-1.855-1.324-2.982
			c0.01-1.426,0.318-3.484-1.481-3.977c-0.539-0.154-0.965-0.014-1.482-0.105c-0.786-0.285-0.989,0.398-0.901,1.092
			c-0.824-0.23-0.874,0.785-1.572,0.58c0.185-0.363,0.351-0.766,0.581-1.104c0.223,0.111,0.603-0.096,0.603-0.342
			c0-0.363,0.461-0.734,0.461-1.131c0-0.361-0.087-1.023-0.485-1.189c-0.151-0.705-1.271-0.82-1.846-0.859
			c-0.373-0.027-0.3,0.166-0.599-0.129c-0.195-0.193-0.776-0.229-1.027-0.213c0.15-1.078-1.521-1.076-1.37-0.002
			c-0.175-0.016-0.701,0.023-0.856,0.094c-0.416,0.189-0.249,0.398-0.691,0.244c-0.207,0.018-0.434-0.037-0.573,0.129
			c-0.334-0.121-1.128,0.225-1.287,0.553c-0.113,0.234-0.325,0.299-0.418,0.551c-0.083,0.229-0.009,0.383-0.09,0.594
			c-0.104,0.285,0.207,1.078,0.439,1.266c-0.115,0.346,0.229,0.422,0.489,0.438c0.257,0.018,0.569,0.9,0.673,1.102
			c-0.346,0-0.412,0.074-0.593-0.209c-0.229-0.361-0.601-0.475-0.996-0.371c0.113-0.846-0.207-1.344-1.03-1.045
			c-0.354,0.129-0.37-0.041-0.728-0.063c-0.329-0.021-0.829,0.168-1.098,0.328c-1.564,0.932-0.829,2.947-1.058,4.42
			c-0.093,0.598-0.322,1.176-0.674,1.67c-0.394,0.553-1.004,0.863-1.402,1.402c-0.123,0.166-0.428,1.121-0.59,1.121
			c-0.681,0-0.27-0.713-0.163-0.99c0.359-0.93-0.914-0.92-1.248-0.207c-0.573,1.223,0.512,2.756,1.887,2.305
			c0.022,0.297-0.038,0.617-0.354,0.742c-0.378,0.148-0.209,0.859-0.129,1.121c0.191,0.627,0.618,1.93,1.398,1.93
			c0.701,0,1.758-0.086,0.945-1.07c-0.333-0.404-1.041-0.402-0.768-1.119c0.197-0.516,0.896-0.629,1.139-1.186
			c0.346-0.791,0.331,0.227,0.216,0.188c-0.054,0.236,0.487,0.6,0.616,0.801c0.54,0.838,0.754,0.967,1.736,0.967
			c0.497,0,0.418-0.543,0.271-0.852c-0.206-0.438-1.057-0.572-1.057-1.02c0-0.445,0.424-0.645,0.292-1.152
			c-0.127-0.488-0.518-0.832-0.939-1.092c0.505-0.512,1.199-0.74,1.69-1.25c0.408-0.424,0.551-0.957,0.965-1.371
			c0,0.783,0,1.564,0,2.348c0,0.779-0.141,1.764,0.192,2.494c0.701,1.539,2.952,1.908,4.463,1.908c1.512,0,3.763-0.369,4.463-1.908
			c0.313-0.686,0.192-1.576,0.192-2.309c0-0.848,0-1.695,0-2.543c0.327,0,0.631,0.955,0.786,1.158
			c0.493,0.648,1.31,0.895,1.879,1.471c-0.605,0.371-1.418,1.258-0.751,1.965c0.46,0.52-0.388,0.686-0.638,0.891
			c-0.243,0.201-0.802,1.26-0.103,1.26c0.677,0.287,1.368-0.193,1.657-0.73c0.123-0.229,0.767-0.754,0.767-0.971
			c0-0.264-0.308-0.432,0.111-0.527c0.17,0.709,2.09,1.695,0.865,2.266c-0.349,0.162-0.966,0.891-0.569,1.287
			c0.199,0.199,0.739,0.096,0.979,0.096c0.922,0,1.075-0.926,1.413-1.627c0.141-0.293,0.383-1,0.138-1.316
			c-0.262-0.338-0.523-0.344-0.504-0.852C43.245,38.658,43.874,38.5,44.28,38.068C44.581,37.746,44.28,38.068,44.28,38.068z
			 M44.281,35.742L44.281,35.742z M24.802,24.494c0.153,0.336,0.435,0.588,0.75,0.771c-0.161,0.174-1.143,0.717-0.304,0.906
			c0.426,0.096,0.888,0.082,1.319,0.039c0.475-0.045,3.793-0.977,3.12-1.818c1.53-0.195,3.048-0.195,4.578,0.002
			c-0.419,1.049,2.453,1.752,3.121,1.816c0.432,0.043,0.894,0.057,1.319-0.039c0.839-0.189-0.142-0.732-0.305-0.906
			c0.203-0.119,1.423-1.318,0.579-1.428c-0.25-0.033-0.515,0.133-0.78,0.113c-0.353-0.025-0.716-0.113-1.033-0.27
			c-0.69-0.34-0.472-1.217-1.249-1.543c-0.915-0.383-2.199-0.357-3.178-0.393c-1.12-0.041-2.246,0.01-3.358,0.148
			c-0.827,0.105-1.873,0.16-2.1,1.146c-0.153,0.67-0.892,0.863-1.529,0.91C25.396,23.979,24.294,23.695,24.802,24.494
			C24.957,24.834,24.802,24.494,24.802,24.494z"/>
		<path fill="#4C86C7" d="M27.671,30.441h8.648v7.584c0,2.504-4.324,2.504-4.324,2.504s-4.324,0-4.324-2.504V30.441z"/>
		<path fill="#FFFFFF" d="M31.405,32.783l-1.011-1.121c-0.179-0.197-0.463-0.197-0.64,0l-1.012,1.123h2.662V32.783z"/>
		<path fill="#FFFFFF" d="M31.405,35.023l-1.011-1.121c-0.179-0.199-0.463-0.199-0.64,0l-1.012,1.121H31.405z"/>
		<path fill="#FFFFFF" d="M31.405,37.295l-1.011-1.121c-0.179-0.197-0.463-0.197-0.64,0l-1.012,1.121H31.405z"/>
		<path fill="#FFFFFF" d="M33.322,39.549l-1.011-1.119c-0.179-0.201-0.464-0.201-0.64-0.002l-1.013,1.121H33.322z"/>
		<path fill="#FFFFFF" d="M35.248,32.783l-1.011-1.121c-0.179-0.197-0.463-0.197-0.64,0l-1.013,1.123h2.663V32.783z"/>
		<path fill="#FFFFFF" d="M35.248,35.023l-1.011-1.121c-0.179-0.199-0.463-0.199-0.64,0l-1.013,1.121H35.248z"/>
		<path fill="#FFFFFF" d="M35.248,37.295l-1.011-1.121c-0.179-0.197-0.463-0.197-0.64,0l-1.013,1.121H35.248z"/>
		<path fill="#A5A7A9" d="M38.852,24.354l0.069-0.184c-0.174,0.076-0.366,0.113-0.569,0.117c-0.408,0.008-1.627-0.186-1.964-0.869
			l-0.024,0.016l0.016-0.105c0-0.463-0.33-0.852-0.767-0.938l-0.009-0.002c-1.168-0.213-2.371-0.326-3.602-0.326H31.95
			c-1.228,0-2.432,0.113-3.6,0.326l-0.009,0.002c-0.438,0.086-0.769,0.475-0.769,0.938l0.016,0.104l-0.022-0.014
			c-0.337,0.684-1.556,0.877-1.965,0.869c-0.202-0.004-0.396-0.041-0.568-0.117l0.068,0.184c0.172,0.383,0.505,0.676,0.909,0.793
			c-0.131,0.414-0.429,0.559-0.75,0.688c0.352,0.111,2.637,0.297,4.128-1.219l0.04-0.01l-0.01-0.016l0.004-0.002l-0.009-0.006
			l-0.226-0.387l-0.028-0.066c0.911-0.139,1.839-0.227,2.79-0.227h0.052c0.954,0,1.887,0.088,2.801,0.229l-0.037,0.064h-0.002
			l-0.225,0.387l-0.008,0.006l0.004,0.002l-0.01,0.016l0.04,0.01c1.49,1.516,3.774,1.33,4.127,1.219
			c-0.319-0.129-0.619-0.273-0.75-0.688C38.348,25.029,38.68,24.736,38.852,24.354z"/>
		<path fill="#C09B5A" d="M26.71,32.898c0.343-0.379,0.357-1.068,0.467-1.545c0.158-0.693,0.438-0.922,1.067-0.922
			c0-0.939-0.932-0.582-1.253-0.086c-0.318,0.492-0.637,0.984-0.955,1.479c-0.013-0.311-0.029-0.623-0.029-0.934
			c0.391-0.357,0.96-0.621,1.066-1.189c0.042-0.236,0.186-0.807-0.039-0.99c-0.138-0.113-0.507,0.072-0.637,0.119
			c-0.374,0.135-0.355-0.078-0.734-0.078c-2.074,0-1.786,2.387-1.777,3.771c0.007,1.15-0.447,2.287-1.279,3.086
			c-0.328,0.316-0.714,0.537-0.973,0.924c-0.212,0.318-0.284,1.164-0.792,1.164c-0.578,0-0.895-0.658-0.666-1.146
			c0.341-0.725-0.224-0.84-0.486-0.145c-0.441,1.164,0.922,2.434,1.952,1.516c-0.056,0.523,0.162,1.066-0.326,1.463
			c-0.415,0.34-0.239,0.887,0.066,1.336c0.169,0.348,0.308,1.215,0.799,1.215c0.254,0.082,0.66,0,0.93,0
			c0-0.439-0.341-0.85-0.797-0.85c-0.331-0.275-0.352-0.852-0.174-1.215c0.064-0.131,1.649-1.572,1.282-1.645
			c0.243,0.047,0.654,0.074,0.759,0.352c0.103,0.271-0.045,0.289-0.083,0.52c0.201,0.1,0.356,0.305,0.482,0.484
			c0.207,0.295,0.354,0.934,0.8,0.934c0.222,0.068,0.562,0,0.796,0c0-0.904-1.508-0.818-1.124-1.814
			c0.132-0.342,0.457-0.527,0.224-0.949c-0.154-0.42-0.685-0.785-1.08-0.938c0.791-0.877,2.162-1.33,2.498-2.535
			c0.983-0.762,0.967-1.166,0.966-2.309c-0.285,0-0.414,0.254-0.428,0.492c-0.021,0.373-0.16,0.609-0.488,0.813
			C26.726,33.15,26.715,33.025,26.71,32.898z"/>
		<path fill="#C09B5A" d="M44.039,35.967c-0.118-0.102-0.236-0.102-0.354,0c-0.2,0.215,0.056,0.406,0.14,0.584
			c0.229,0.488-0.088,1.146-0.666,1.146c-0.396,0-0.444-0.396-0.546-0.678c-0.164-0.451-0.45-0.754-0.803-1.063
			c-1.521-1.102-1.699-2.766-1.688-4.488c0.004-0.639,0.081-1.309-0.279-1.877c-0.221-0.35-0.565-0.617-0.966-0.727
			c-0.173-0.047-0.357-0.113-0.539-0.113c-0.21,0-0.351,0.227-0.534,0.154c-0.196-0.08-0.796-0.41-0.903-0.086
			c-0.105,0.314-0.031,0.846,0.11,1.141c0.197,0.408,0.66,0.635,0.983,0.93c0,0.311-0.017,0.623-0.029,0.934
			c-0.29-0.449-0.579-0.898-0.869-1.346c-0.081-0.125-0.159-0.307-0.267-0.41c-0.339-0.512-1.072-0.199-1.072,0.363
			c0.631,0,0.91,0.227,1.068,0.922c0.126,0.551,0.517,1.389,0.433,1.922c-0.329-0.203-0.468-0.438-0.488-0.813
			c-0.014-0.238-0.142-0.492-0.428-0.492c-0.001,1.143-0.018,1.547,0.966,2.309c0.336,1.205,1.707,1.658,2.498,2.535
			c-0.451,0.176-0.83,0.512-1.075,0.928c-0.183,0.479,0.069,0.572,0.219,0.959c0.384,0.996-1.124,0.91-1.124,1.814
			c0.826,0,1.015,0.018,1.455-0.717c0.127-0.211,0.273-0.424,0.46-0.588c0.285-0.25,0.044-0.096,0.044-0.396
			c0-0.473,0.422-0.516,0.795-0.588c0.063-0.012,0.181,0.58,0.26,0.703c0.229,0.359,0.638,0.426,0.895,0.74
			c0.33,0.406,0.315,1.029-0.039,1.416c-0.349,0.297-0.804,0.176-0.804,0.85c0.27,0,0.675,0.082,0.929,0
			c0.491,0,0.633-0.867,0.802-1.215c0.304-0.449,0.48-0.996,0.065-1.336c-0.492-0.4-0.265-0.938-0.327-1.463
			C43.584,39.016,45.08,37.08,44.039,35.967C43.941,35.865,44.522,36.484,44.039,35.967z"/>
		<path fill="#ED4C5C" d="M32.007,26.775c1.034,0,3.118,0.26,3.88,1.045c-0.802,2.131-2.117,1.256-3.862,1.256
			c-1.751,0-3.065,0.877-3.87-1.256C28.913,27.041,30.979,26.775,32.007,26.775C32.522,26.775,31.493,26.775,32.007,26.775z"/>
		<path fill="#C8B100" d="M34.698,29.141c-0.671-0.41-1.613-0.498-2.654-0.502c-1.04,0.004-1.975,0.092-2.646,0.502l0.241,1
			c0.607,0.201,1.458,0.324,2.408,0.326c0.949-0.002,1.8-0.125,2.407-0.326L34.698,29.141z"/>
		<path fill="#C8B100" d="M35.6,26.637c-0.205-0.195-0.623-0.326-1.045-0.326c-0.167,0-0.327,0.02-0.475,0.057
			c0.021,0.027-0.298-0.49-1.056-0.49c-0.267,0-0.512,0.072-0.7,0.191l-0.005-0.035c-0.027-0.131-0.145-0.23-0.281-0.23
			s-0.259,0.1-0.287,0.23l-0.004,0.035c-0.188-0.121-0.433-0.191-0.699-0.191c-0.741,0-1.076,0.516-1.055,0.49
			c-0.148-0.037-0.309-0.057-0.476-0.057c-2.491,0-1.216,1.838-1.216,1.838l0.204-0.365c-0.576-0.828-0.076-1.33,1.012-1.33
			c0.137,0,0.269,0.014,0.391,0.039c-0.372,0.607,0.323,1.117,0.323,1.117l0.161-0.289c-0.392-0.273-0.423-1.303,0.655-1.303
			c0.269,0,0.511,0.078,0.682,0.207c-0.005,0.064-0.057,0.861-0.112,1.021l0.421,0.438l0.415-0.438
			c-0.055-0.16-0.105-0.955-0.111-1.02c0.171-0.131,0.413-0.209,0.683-0.209c1.108,0,1.146,1.021,0.655,1.303l0.161,0.289
			c0,0,0.588-0.514,0.323-1.117c0.122-0.025,0.254-0.041,0.391-0.039c1.288,0.02,1.375,1.051,1.012,1.33l0.204,0.365
			C35.771,28.148,36.33,27.334,35.6,26.637z"/>
		<path fill="#005BBF" d="M31.695,25.465c0-0.197,0.154-0.355,0.344-0.355s0.343,0.158,0.343,0.355s-0.153,0.357-0.343,0.357
			S31.695,25.662,31.695,25.465"/>
		<polygon fill="#C8B100" points="31.949,24.467 31.949,24.658 31.762,24.658 31.762,24.854 31.949,24.854 31.949,25.121 
			31.949,25.416 31.713,25.416 31.695,25.467 31.723,25.605 31.725,25.607 32.354,25.607 32.355,25.605 32.383,25.467 
			32.366,25.416 32.137,25.416 32.137,25.123 32.137,24.854 32.325,24.854 32.325,24.658 32.137,24.658 32.137,24.467 		"/>
		<path fill="#ED4C5C" d="M32.044,30.328c-0.856,0-1.632-0.109-2.222-0.275c0.59-0.168,1.365-0.27,2.222-0.271
			c0.857,0.002,1.637,0.104,2.227,0.271C33.681,30.219,32.901,30.328,32.044,30.328"/>
	</g>
</g>
</svg>
