<?xml version="1.0" encoding="utf-8"?>
<!-- Generator: Adobe Illustrator 15.0.0, SVG Export Plug-In . SVG Version: 6.00 Build 0)  -->
<!DOCTYPE svg PUBLIC "-//W3C//DTD SVG 1.1//EN" "http://www.w3.org/Graphics/SVG/1.1/DTD/svg11.dtd">
<svg version="1.1" id="Layer_1" xmlns="http://www.w3.org/2000/svg" xmlns:xlink="http://www.w3.org/1999/xlink" x="0px" y="0px"
	 width="64px" height="64px" viewBox="0 0 64 64" enable-background="new 0 0 64 64" xml:space="preserve">
<g>
	<path fill="#699635" d="M32,2C26.682,2,21.689,3.39,17.357,5.818L17.213,58.1C21.578,60.578,26.621,62,32,62
		c14.926,0,27.301-10.902,29.609-25.178v-9.645C59.301,12.902,46.926,2,32,2z"/>
	<path fill="#FFE62E" d="M60.064,29.576L17.357,8.039v0.357h-3.846c-0.348,0.273-0.693,0.548-1.029,0.836v45.536
		c0.336,0.287,0.682,0.563,1.029,0.836h3.701v0.426l43.195-21.547C60.475,33.67,62,32.831,62,32S60.131,30.39,60.064,29.576z"/>
	<path fill="#FFFFFF" d="M13.496,8.396l48.5,23.408c-0.012-1.574-0.143-3.119-0.387-4.627L17.357,5.818
		C16.002,6.578,14.711,7.441,13.496,8.396z"/>
	<path fill="#ED4C5C" d="M12.453,12.025H9.635C4.893,17.33,2,24.324,2,32c0,7.676,2.893,14.67,7.635,19.975h2.818L32.428,32
		L12.453,12.025z"/>
	<path fill="#3E4347" d="M12.482,9.226c-1.014,0.87-1.969,1.803-2.859,2.799L29.598,32L9.623,51.975
		c0.891,0.996,1.846,1.928,2.859,2.797L35.256,32L12.482,9.226z"/>
	<path fill="#FFFFFF" d="M61.609,36.822c0.244-1.508,0.375-3.053,0.387-4.627l-48.5,23.409c1.215,0.955,2.506,1.818,3.861,2.578
		L61.609,36.822z"/>
</g>
</svg>
