<?xml version="1.0" encoding="utf-8"?>
<!-- Generator: Adobe Illustrator 15.0.0, SVG Export Plug-In . SVG Version: 6.00 Build 0)  -->
<!DOCTYPE svg PUBLIC "-//W3C//DTD SVG 1.1//EN" "http://www.w3.org/Graphics/SVG/1.1/DTD/svg11.dtd">
<svg version="1.1" id="Layer_1" xmlns="http://www.w3.org/2000/svg" xmlns:xlink="http://www.w3.org/1999/xlink" x="0px" y="0px"
	 width="64px" height="64px" viewBox="0 0 64 64" enable-background="new 0 0 64 64" xml:space="preserve">
<g>
	<path fill="#2A5F9E" d="M32,1.999V32H2c0,16.568,13.432,30,30,30c16.569,0,30-13.432,30-30C62,15.431,48.568,1.999,32,1.999z"/>
	<rect x="12" y="11.999" fill="#2A5F9E" width="21" height="21.001"/>
	<polygon fill="#FFFFFF" points="18.912,8.139 18.912,13.999 11.6,13.999 26,32 32,32 32,24.499 	"/>
	<path fill="#FFFFFF" d="M11,18.911H5.011C3.088,22.868,2,27.305,2,32h12V13.911h-3V18.911z"/>
	<polygon fill="#ED4C5C" points="32,27.059 19,10.999 13,10.999 30,32 32,32 	"/>
	<path fill="#FFFFFF" d="M18.912,5.011v5.988H11v3h21v-12C27.306,1.999,22.869,3.087,18.912,5.011z"/>
	<path fill="#ED4C5C" d="M32,4.999H18.912C12.857,7.939,7.94,12.856,5,18.911V32h6V10.999h21V4.999z"/>
	<path fill="#6A4C2D" d="M44.564,41.695c-0.617,0.586-1.799,1.174-2.641,0.598c-1.053,0.24-0.496,0.52-1.461-0.168
		c-0.734,0.227-0.852,0.234-1.861-0.23c-0.471,0.938-1.125,1.109-1.875,0.463c0.143-0.195,0.279-0.395,0.414-0.596
		c0,0.352-1.627,0.258-1.727,0.281c0.873-2.926,4.553-5.26,6.676-7.322C43.107,36.596,45.773,39.5,44.564,41.695z"/>
	<polygon fill="#FFFFFF" points="48.752,42.041 50.287,41.986 49.633,41.664 55.48,41.443 54.654,41.129 53.922,40.137 
		50.295,39.822 49.996,39.279 48.131,39.137 46.965,39.934 47.752,41.947 	"/>
	<path fill="#656263" d="M48.754,31.109c0.117-0.072,0.486-0.189,0.441-0.73c-0.045-0.539-0.514-0.604-0.775-0.586
		c-0.262,0.02-0.496,0.244-0.496,0.244l-0.865-0.549c0,0,0.434-2.732,0.893-2.903c0.436-0.314,0.514-0.451,0.514-0.523l-0.162-0.252
		l-2.82-0.333l-2.668,0.315c0,0-0.207,0.316-0.18,0.443c0.025,0.125,0.035,0.261,0.512,0.631c0.529,0.407,0.893,2.741,0.893,2.741
		l-0.793,0.324c-0.045-0.045-0.27-0.09-0.387-0.072s-0.504,0.215-0.504,0.729c0,0.516,0.387,0.813,0.387,0.813
		s2.551-0.297,2.93,0.404C46.041,30.957,48.465,31.254,48.754,31.109z"/>
	<path fill="#3E4347" d="M51.5,28.271c0.211-0.574,0.584-0.559,1.174-0.57c1.234-0.027,1.123,0.408,1.494,1.389
		c0.533,1.404,1.359,2.801,1.457,4.352c0.104,1.674,0.064,3.998-0.717,5.52c-0.557,1.084,0.746,1.377,1.547,1.773l-0.607-0.227
		l0.607,0.508l-0.691-0.324l0.408,0.408l-1.002-0.451l0.439,0.424l-0.75-0.352c0.143,0.154,0.289,0.305,0.439,0.451
		c-0.213-0.104-0.43-0.197-0.65-0.283l0.027,0.24c-0.758-0.633-2.006-0.658-2.309-1.564c-0.352-1.049-1.162-2.465-1.109-3.578
		C51.365,33.643,52.096,30.557,51.5,28.271z"/>
	<polygon fill="#00713D" points="43.99,39.74 43.748,40.676 44.082,40.225 44.107,41.225 44.441,40.656 44.447,41.857 
		44.742,41.283 44.709,42.381 44.971,41.891 45.193,42.885 45.461,42.236 45.904,43.027 46.016,42.414 46.645,43.086 46.645,42.408 
		47.322,43.027 47.35,42.557 48.008,42.877 47.99,42.453 48.799,42.709 48.303,42.191 48.768,42.191 47.99,41.715 48.428,41.689 
		47.656,41.145 48.18,41.119 47.389,40.525 47.799,40.441 	"/>
	<path fill="#FFFFFF" d="M41.916,31.391c0.721-0.014,1.441-0.025,2.162-0.039c0,0,1.428,0,1.582,0.465
		c0.27-0.619,1.506-0.58,1.506-0.58c0.746-0.023,1.492-0.051,2.238-0.076c0.012,1.801,0.025,3.602,0.039,5.404
		c-0.438,2.096-1.957,3.576-3.629,4.207c-1.994-0.645-3.256-2.33-3.666-4.246C42.07,34.814,41.994,33.102,41.916,31.391z"/>
	<path fill="#006B00" d="M42.686,31.371l3.148,8.391l2.846-8.572c-0.883,0.057-2.775-0.141-3.012,0.664
		C45.305,31.133,43.313,31.424,42.686,31.371z"/>
	<polygon fill="#CDAD56" points="43.984,17.825 45.826,16.298 46.068,15.166 45.725,15.428 45.613,14.903 45.523,14.812 
		45.361,15.024 45.189,14.599 44.906,15.034 45.412,16.025 44.916,16.823 44.744,16.268 44.926,15.722 44.602,15.833 44.623,15.216 
		44.197,15.55 44.057,15.489 44.531,16.743 44.209,17.137 43.703,15.823 43.582,16.116 43.359,15.884 43.521,16.581 43.268,16.642 
		43.621,17.026 43.299,17.359 43.875,17.157 43.713,17.602 	"/>
	<polygon fill="#CDAD56" points="42.598,17.825 41.035,16.436 40.881,15.395 41.121,15.644 41.293,15.083 41.492,15.388 
		41.777,14.991 41.959,15.285 41.389,16.187 41.809,16.914 41.955,16.408 41.689,16.012 42.074,16.012 42.098,15.492 42.389,15.765 
		42.629,15.538 42.135,16.84 42.35,17.088 42.738,16.063 42.941,16.27 43.131,16.058 42.994,16.693 43.209,16.748 43.08,17.098 
		43.182,17.401 42.693,17.218 42.83,17.622 	"/>
	<path fill="#FFC900" d="M48.154,32.623l-0.316-0.361l0.373-0.477l-0.607,0.15l-0.105-0.611l-0.152,0.646l-0.598-0.268l0.424,0.48
		l-1.154,0.811l0.297,0.084l-0.402,0.055l0.129,0.225l-0.303,0.104l0.178,0.125l-0.783,0.025l0,0l-0.051-0.6l0.836,0.041
		l-0.408-0.801l-0.26,0.168l-0.26-0.359l-0.697,0.205l0.424-0.48l-0.596,0.268l-0.154-0.645l-0.104,0.609l-0.607-0.15l0.479,0.355
		l-0.422,0.484l0.545-0.23l0.205,0.607l0.074-0.363l-0.006-0.021l0.271,0.209h0.057L44.6,34.92l-0.156,0.426l0.119-0.098l0.27,0.654
		l0.088-0.568l0.465-0.229l0.328-0.113l0.193,0.061l0.146,0.557l-0.455,0.656l-0.559,0.271l-0.213,0.273l0.574-0.285l0.016,0.295
		l0.326-0.279l0.016,0.232l0.193-0.109l-0.512,1.318l0.455-0.387l-0.047,0.568l0.199-0.412l0.248-0.225l0.088,0.215l0.045-0.547
		l0.17,0.135l-0.203-0.699l0.271,0.164l-0.227-0.871l0.771-0.424l-0.033-0.4l-0.217,0.135l0.17-0.4l0.09-0.613l-0.021,0.299v-0.508
		l0.26,0.102l-0.191-0.262l0.443-0.18l-0.217-0.014l0.49-0.494l-1.162,0.871l-0.133,1.697l-0.42-1.939l0.25,0.303l0.17-0.787
		l0.42,0.096l-0.193-0.266l0.205,0.061l-0.336-0.193l0.449-0.084L46.855,32.6l0.51-0.195L47.404,33l0.205-0.607L48.154,32.623z
		 M44.953,34.811l0.105-0.656l0.801-0.096L44.953,34.811z"/>
	<path fill="#ED4C5C" d="M38.773,48.82c0.316-0.078,2.035,0.379,2.699,1.09c-0.141-1.266-0.492-2.234-0.492-2.234
		s-1.025-0.293-1.164-0.152C39.609,47.74,38.99,48.391,38.773,48.82z"/>
	<path fill="#ED4C5C" d="M38.248,42.975c-0.119,0.02-0.24,0.102-0.361,0.301c-0.141,0.342-0.24,1.205-0.441,1.406
		s-0.383,0.221-0.383,0.402s0.021,0.604,0.563,0.762c0.543,0.021,1.406-0.863,1.406-0.863s0.443-0.482,0.623-1.004
		C38.609,44.34,37.867,43.375,38.248,42.975z"/>
	<path fill="#ED4C5C" d="M53.357,48.617c-0.316-0.074-2.055,0.379-2.713,1.086c0.141-1.26,0.488-2.223,0.488-2.223
		c0.121-0.033,1.006-0.291,1.145-0.15C52.482,47.545,53.141,48.193,53.357,48.617z"/>
	<path fill="#ED4C5C" d="M53.844,42.807c0.119,0.02,0.162,0.178,0.26,0.377c0.139,0.34,0.283,0.834,0.482,1.033
		c0.199,0.201,0.379,0.496,0.379,0.676s-0.043,0.424-0.58,0.582c-0.539,0.02-1.318-0.67-1.318-0.67s-0.439-0.48-0.619-1
		C53.484,44.164,54.156,43.24,53.844,42.807z"/>
	<path fill="#FFCE31" d="M52.336,45.42c0.414-0.438,0.73-0.576,0.73-0.576s-0.479-0.6-0.598-1.018
		c0.957,0.479,2.291-1.08,0.836-1.199c-1.039,0.107-1.881,0.906-2.502,1.875c-3.063-1.488-6.689-1.377-9.564,0.068
		c-0.6-0.973-1.418-1.762-2.447-1.777c-1.467,0.121-0.121,1.688,0.844,1.205c-0.121,0.424-0.604,1.025-0.604,1.025
		s0.285,0.125,0.666,0.508c-0.795,0.605-1.492,1.336-2.051,2.184c0,0,1.084,0.742,1.104,1.086c0.502-0.744,1.139-1.4,1.869-1.949
		c0.363,0.723,0.697,1.709,0.883,3.053c0,0,0.564-1.627,0.904-1.646c0.15-0.01-0.006-1.057-0.457-2.232
		c2.426-1.236,5.477-1.449,8.148-0.16c-0.455,1.107-0.633,2.131-0.502,2.383c0.34,0.02,1.018,1.449,1.018,1.449
		c0.184-1.316,0.508-2.289,0.861-3.002c0.666,0.486,1.291,1.084,1.859,1.803c0.564-0.742,1.146-0.984,1.146-0.984
		C53.846,46.686,53.121,45.988,52.336,45.42z"/>
	<path fill="#1E5AA6" d="M48.697,31.189l0.424-0.01l-0.758,0.961l0.91,1.061l-1.789,2.254l1.688,2.033
		c-0.186,0.455-0.4,0.869-0.688,1.244l-0.971-1.074l1.76-2.191l-1.445-1.639L48.697,31.189z"/>
	<path fill="#1E5AA6" d="M42.631,31.383l-0.455,0.01l0.85,0.918l-0.898,1.123l1.869,2.033l-1.547,2.072
		c0.186,0.455,0.451,0.961,0.738,1.334l0.92-1.162l-1.891-2.104l1.385-1.758L42.631,31.383z"/>
	<path fill="#1E5AA6" d="M44.734,36.84l-0.668,0.891l2.387,2.76c0.42-0.213,0.752-0.455,1.111-0.748l-1.244-1.436l0.508-1.486
		l0.727,0.838l-2.275,2.902c-0.381-0.162-0.801-0.414-1.182-0.729l1.203-1.525L44.734,36.84z"/>
	<polygon fill="#1E5AA6" points="43.996,35.455 44.43,36.002 44.146,35.266 	"/>
	<polygon fill="#1E5AA6" points="47.109,35.938 47.461,35.475 47.328,35.293 	"/>
	<path fill="#F5F5F5" d="M51.543,29.514c0.193-0.014,1.439,0.031,1.439,0.197c-0.471,0.209-0.832,0.543-1.086,1.002
		c0.301,0.455,0.594,0.916,0.875,1.381c0.078,1.045-1.316,2.02-1.17,3.533c0.104,1.068,0.113,2.168,0.957,2.92
		c1.125,1.004,0.635-2.094,0.693-2.371c0.045-0.229,1.096,1.002,1.072,1.383c-0.07,1.092-0.451,0.508-0.521,0.775
		c-0.303,1.139-0.346,1.848-1.254,1.762C51.135,39.287,49.764,31.324,51.543,29.514z"/>
	<path fill="#FFFFFF" d="M47.443,27.629c0,0,1.125,1.215,1.854,1.203c0.131,0.357-0.332,0.688-0.516,0.846
		c-0.371-0.117-0.707,0.023-1.566-1.035C47.27,27.969,47.457,27.654,47.443,27.629z"/>
	<path fill="#FFFFFF" d="M48.965,24.797c0.146-0.45,0.438-0.807,0.688-0.847c-0.066-0.343,0.529-1.864,2.262-2.446
		c0.105,0.78-0.74,1.548-0.74,1.548s2.553-0.437,3.068-1.085c-0.053,0.291-0.568,2.103-3.293,2.089
		c1.031,0.979-0.33,1.76-0.912,1.521C51.107,24.758,49.732,24.269,48.965,24.797z"/>
	<path fill="#0000FF" d="M48.766,29.678c0,0,1.402,0.383,1.563-1.627c-0.305-0.873-0.729-2.751-0.08-3.293
		c-0.596-0.41-1.244,0.013-1.244,0.013c-0.039,0.093-0.568,0.847,0.146,2.168c-1.693-0.449-1.006,1.151-1.006,1.151
		c0.066-0.25,0.967-0.488,1.191,0.795C49.428,29.201,48.727,29.691,48.766,29.678z"/>
	<path fill="#0000FF" d="M50.34,28.064c0,0,1.482-0.793,1.441-2.658c-1.256,0.026-1.705,1.652-1.705,1.652L50.34,28.064z"/>
	<path fill="#FFFFFF" d="M43.701,27.971c0,0-1.098,0.953-1.719,0.648c-0.463,0.277-1.006-0.211-1.006-0.211s0.635,2.34,2.91,0.646
		C43.848,28.541,43.729,28.012,43.701,27.971z"/>
	<path fill="#0000FF" d="M41.969,28.58c0.092-0.49,0.477-0.729,0.781-0.266c0.41,0.08,0.818-1.599-0.637-1.322
		c0.41-2.195-0.818-3.015-0.818-3.015s-0.438,2.433-0.238,2.882c0.197,0.451-0.291-0.832-1.865-1.19c-0.025,1.838,1.76,2.7,1.76,2.7
		S41.453,28.832,41.969,28.58z"/>
	<path fill="#FFFFFF" d="M41.096,24.89c0-0.013-1.045,0-0.422,1.058c-0.465,0.146-1.496-0.529-0.781-1.428
		c-2.34-0.053-3.293-1.177-3.293-2.209c0.688,0.714,2.328,0.424,2.91,0.86c-0.715-0.661-0.57-1.573-0.57-1.573
		s1.998,0.595,2.355,2.367C41.176,24.309,41.123,24.917,41.096,24.89z"/>
	<path fill="#923F00" d="M42.936,24.333c-0.051,0.175-0.102,0.35-0.154,0.525c1.871,0.036,3.74,0.072,5.611,0.107
		c-0.113-0.578-0.506-1.235-0.74-1.705c0.063-0.442,0.143-1.057,0.25-1.631c0.09-0.48-0.652-0.603-0.471-1.102
		c-0.059,0.158,0.633,0.037,0.621,0.038c-0.254,0.021-0.365-1.018-0.703-1.146c-0.65-0.247-1.008,0.014-1.625-0.018
		c-0.828-0.043-2.012-0.02-1.771-1.164c0.389,0.122,0.871,0.03,1.018-0.41c-0.102-0.075-1.434-0.282-1.641-0.292
		c-0.186-0.008-1.609,0.356-1.719,0.45c0.395,0.515,0.779,0.379,1.16,0.751c0.176,0.172,0.318,1.069,0.137,1.008h0.211
		c-0.102,0.086-0.168,0.197-0.199,0.331c0.123-0.032,0.246-0.041,0.371-0.026c-0.082,0.178-0.184,0.345-0.303,0.502l0.502,0.04
		c-0.074,0.153-0.133,0.312-0.174,0.477c0.117-0.045,0.236-0.08,0.359-0.106C43.994,21.916,43.295,23.439,42.936,24.333z
		 M47.068,23.307C47.291,23.235,47.285,23.237,47.068,23.307z M46.916,21.425c0.836,0,0.4,1.842,0.084,1.887
		C46.234,23.422,46.342,21.425,46.916,21.425C47.152,21.425,46.676,21.425,46.916,21.425z M44.932,22.02
		c-0.26-1.63,2.008-1.064,1.293,0.095c-0.098,0.159-0.584,1.274-0.623,1.274C44.975,23.391,44.797,22.484,44.932,22.02z
		 M43.926,23.038c0.391-0.51-0.293-1.747,0.648-1.984c0.004,0.74,0.008,1.739-0.418,2.382c-0.094-0.181-0.244-0.262-0.449-0.242
		C43.816,23.18,43.889,23.128,43.926,23.038z"/>
	<path fill="#B4B6B9" d="M42.709,26.423l2.781,1.821l2.506-1.685c0,0,0.523-0.29,0.479-0.497c-0.045-0.207-0.227-0.126-0.316-0.089
		l-2.623,1.83l-2.693-1.705c0,0-0.199-0.062-0.234,0.063C42.57,26.288,42.682,26.359,42.709,26.423z"/>
	<polygon fill="#FF7000" points="52.035,39.824 50.965,39.926 51.297,40.232 52.617,40.211 	"/>
	<polygon fill="#FF7000" points="51.604,28.396 50.275,29.09 50.607,29.396 51.93,29.375 	"/>
	<polygon fill="#FF7000" points="51.32,40.379 51.908,40.799 53.6,40.539 53.117,40.223 	"/>
	
		<linearGradient id="SVGID_1_" gradientUnits="userSpaceOnUse" x1="-1133.2891" y1="-731.5283" x2="-1132.2891" y2="-731.5283" gradientTransform="matrix(-0.5968 -1.5125 1.2072 -0.7477 257.7824 -2226.2068)">
		<stop  offset="0" style="stop-color:#D5DFFF"/>
		<stop  offset="1" style="stop-color:#FFFFFF"/>
	</linearGradient>
	<path fill="url(#SVGID_1_)" d="M51.01,31.715c-0.154-0.078-0.834-0.17-1.59,0.324l0.031,1.744c0,0,1.111-0.602,1.652-0.463
		C51.072,32.779,51.072,32.086,51.01,31.715z"/>
	<path fill="#8A9396" d="M40.037,30.016c-0.291,0.775,0.691,2.004,1.023,2.674c0.67-0.848,0.961-0.943,0.967,0.193
		c0.002,0.262,0.076,0.723-0.023,0.971c-0.127,0.324-0.766,0.143-0.539,0.535c0.568,0.984,0.465,1.586,0.168,2.641
		c-0.115,0.406-0.527,2.502-1.055,2.59c0.029-0.004,0.064-1.527,0.021-1.748c-0.053-0.26-0.559-1.018-0.375-1.314
		c-0.213,0.342-1.025,1.457-1.535,1.133c0.223,0.479,0.01,0.732-0.074,1.162c-0.057,0.301-0.074,0.654-0.131,1.014
		c-0.068,0.438-0.688,0.771-0.578,1.422c-2.07-0.732-3.539-2.291-2.838-4.576c0.154-0.506,0.43-0.99,0.869-1.299
		c0.547-0.387,0.59-1.033,0.83-1.67c0.094-0.25,0.291-0.547,0.258-0.822c-0.068-0.551,0.268-0.783,0.34-1.236
		c0.107-0.67,0.166-1.541,0.16-2.221c-0.008-1.113,0.395-1.01,1.264-1.488c0.271-0.148,1.537,0.084,1.813,0.314
		C40.922,28.559,40.24,29.848,40.037,30.016z"/>
	<rect x="42.564" y="24.723" fill="#FFFFFF" width="5.947" height="1.179"/>
</g>
</svg>
