<?xml version="1.0" encoding="utf-8"?>
<!-- Generator: Adobe Illustrator 15.0.0, SVG Export Plug-In . SVG Version: 6.00 Build 0)  -->
<!DOCTYPE svg PUBLIC "-//W3C//DTD SVG 1.1//EN" "http://www.w3.org/Graphics/SVG/1.1/DTD/svg11.dtd">
<svg version="1.1" id="Layer_1" xmlns="http://www.w3.org/2000/svg" xmlns:xlink="http://www.w3.org/1999/xlink" x="0px" y="0px"
	 width="64px" height="64px" viewBox="0 0 64 64" enable-background="new 0 0 64 64" xml:space="preserve">
<g>
	<g>
		<g>
			<path fill="#F9F9F9" d="M52.124,10C46.771,5.037,39.61,2,31.736,2s-15.035,3.037-20.388,8H52.124z"/>
			<path fill="#F9F9F9" d="M11.349,54c5.353,4.962,12.514,8,20.388,8s15.035-3.038,20.388-8H11.349z"/>
		</g>
		<path fill="#F9F9F9" d="M1.736,32c0,4.268,0.896,8.324,2.504,12h54.992c1.607-3.676,2.504-7.732,2.504-12s-0.896-8.324-2.504-12
			H4.24C2.633,23.676,1.736,27.732,1.736,32z"/>
		<path fill="#428BC1" d="M11.364,54h40.744c3.013-2.792,5.46-6.185,7.128-10h-55C5.904,47.815,8.352,51.208,11.364,54z"/>
		<path fill="#428BC1" d="M52.108,10H11.364c-3.013,2.791-5.46,6.184-7.128,10h55C57.568,16.184,55.121,12.791,52.108,10z"/>
	</g>
	<path fill="#428BC1" d="M40.736,27h-5.999l-3.002-5l-3.001,5h-5.998l0,0l0,0l3.001,5l-3.001,5h5.998l3.001,5l3.002-5h5.999
		l-3.001-5L40.736,27L40.736,27z M31.735,24.929L32.979,27h-2.486L31.735,24.929z M25.373,28.464h2.483l-1.24,2.071L25.373,28.464z
		 M25.373,35.535l1.243-2.071l1.24,2.071H25.373z M31.735,39.07L30.492,37h2.486L31.735,39.07z M33.857,35.535h-4.242L27.492,32
		l2.123-3.536h4.242L35.978,32L33.857,35.535z M38.1,35.535h-2.483l1.24-2.071L38.1,35.535z M36.856,30.535l-1.24-2.071H38.1
		L36.856,30.535z"/>
</g>
</svg>
