<?xml version="1.0" encoding="utf-8"?>
<!-- Generator: Adobe Illustrator 15.0.0, SVG Export Plug-In . SVG Version: 6.00 Build 0)  -->
<!DOCTYPE svg PUBLIC "-//W3C//DTD SVG 1.1//EN" "http://www.w3.org/Graphics/SVG/1.1/DTD/svg11.dtd">
<svg version="1.1" id="Layer_1" xmlns="http://www.w3.org/2000/svg" xmlns:xlink="http://www.w3.org/1999/xlink" x="0px" y="0px"
	 width="64px" height="64px" viewBox="0 0 64 64" enable-background="new 0 0 64 64" xml:space="preserve">
<g>
	<circle fill="#ED4C5C" cx="31.873" cy="32" r="30"/>
	<g>
		<g>
			<path fill="#FFFFFF" d="M29.916,27.792c0.67-1.803,2.391-2.08,3.26-4.423c0.377-1.021-0.314-2.981,0.063-3.999
				c0.857-2.312,3.234-1.9,3.234-1.9c-4.111-1.466-8.66,0.613-10.158,4.644c-1.494,4.022,0.615,8.468,4.715,9.945
				C29.889,30.766,29.328,29.375,29.916,27.792z"/>
			<circle fill="#ED4C5C" cx="30.26" cy="21.305" r="0.938"/>
		</g>
		<g>
			<path fill="#FFFFFF" d="M26.543,31.778c-1.543-1.183-1.279-2.871-3.285-4.408c-0.871-0.669-2.988-0.625-3.861-1.293
				c-1.977-1.514-0.844-3.602-0.844-3.602c-2.695,3.38-2.082,8.261,1.367,10.901c3.441,2.637,8.41,2.045,11.109-1.318
				C29.42,32.721,27.898,32.815,26.543,31.778z"/>
			<circle fill="#ED4C5C" cx="20.771" cy="29.457" r="0.937"/>
		</g>
		<g>
			<path fill="#FFFFFF" d="M29.369,36.15c-1.625,1.076-3.182,0.306-5.291,1.701c-0.918,0.606-1.531,2.596-2.449,3.2
				c-2.08,1.374-3.756-0.328-3.756-0.328c2.449,3.556,7.373,4.493,11.002,2.097c3.621-2.395,4.582-7.207,2.154-10.762
				C31.174,33.761,30.793,35.209,29.369,36.15z"/>
			<path fill="#ED4C5C" d="M24.99,40.27c0.301-0.42,0.887-0.511,1.311-0.208c0.416,0.304,0.51,0.892,0.205,1.31
				c-0.305,0.419-0.891,0.512-1.309,0.207S24.686,40.688,24.99,40.27z"/>
		</g>
		<g>
			<path fill="#FFFFFF" d="M34.488,34.869c0.537,1.846-0.686,3.061,0.014,5.456c0.307,1.046,2.045,2.231,2.35,3.273
				C37.543,45.961,35.375,47,35.375,47c4.205-1.186,6.639-5.485,5.43-9.609c-1.201-4.116-5.578-6.499-9.775-5.332
				C32.727,32.451,34.014,33.25,34.488,34.869z"/>
			<path fill="#ED4C5C" d="M37.557,40.242c-0.305-0.418-0.211-1.004,0.207-1.31c0.416-0.303,1.002-0.211,1.311,0.206
				c0.303,0.422,0.209,1.008-0.209,1.312C38.443,40.755,37.859,40.662,37.557,40.242z"/>
		</g>
		<g>
			<path fill="#FFFFFF" d="M34.826,29.703c1.955,0.068,2.756,1.588,5.301,1.672c1.107,0.039,2.795-1.217,3.9-1.177
				c2.502,0.086,2.842,2.429,2.842,2.429c0.152-4.289-3.271-7.883-7.645-8.035c-4.365-0.15-8.029,3.192-8.195,7.466
				C31.932,30.597,33.109,29.643,34.826,29.703z"/>
			<path fill="#ED4C5C" d="M41.391,28.522c-0.49,0.161-1.02-0.109-1.178-0.601c-0.162-0.493,0.105-1.021,0.602-1.183
				c0.49-0.16,1.02,0.108,1.182,0.602C42.154,27.834,41.887,28.363,41.391,28.522z"/>
		</g>
	</g>
</g>
</svg>
