<?xml version="1.0" encoding="utf-8"?>
<!-- Generator: Adobe Illustrator 15.0.0, SVG Export Plug-In . SVG Version: 6.00 Build 0)  -->
<!DOCTYPE svg PUBLIC "-//W3C//DTD SVG 1.1//EN" "http://www.w3.org/Graphics/SVG/1.1/DTD/svg11.dtd">
<svg version="1.1" id="Layer_1" xmlns="http://www.w3.org/2000/svg" xmlns:xlink="http://www.w3.org/1999/xlink" x="0px" y="0px"
	 width="64px" height="64px" viewBox="0 0 64 64" enable-background="new 0 0 64 64" xml:space="preserve">
<g>
	<rect x="12" y="12" fill="#2A5F9E" width="20" height="20"/>
	<polygon fill="#FFFFFF" points="18.912,8.14 18.912,14 11.6,14 26,32 32,32 32,24.5 	"/>
	<path fill="#42ADE2" d="M32,2v30H2c0,16.568,13.432,30,30,30s30-13.432,30-30S48.568,2,32,2z"/>
	<path fill="#FFFFFF" d="M11,18.912H5.011C3.088,22.869,2,27.306,2,32h12V13.912h-3V18.912z"/>
	<polygon fill="#ED4C5C" points="32,27.059 19,11 13,11 30,32 32,32 	"/>
	<path fill="#FFFFFF" d="M18.912,5.012V11H11v3h21V2C27.306,2,22.868,3.088,18.912,5.012z"/>
	<path fill="#ED4C5C" d="M32,5H18.912C12.857,7.94,7.94,12.857,5,18.912V32h6V11h21V5z"/>
	<g>
		<path fill="#FFFFFF" d="M39.146,26.894v13.147c0,4.299,7.77,6.854,7.77,6.854s7.77-2.555,7.77-6.854V26.894H39.146z"/>
		<polygon fill="#ED4C5C" points="54.686,31.971 54.686,26.894 39.146,26.894 39.146,31.971 45.839,31.971 45.839,37.433 
			39.146,37.433 39.146,39.586 45.839,39.586 45.839,46.484 46.916,46.895 47.993,46.484 47.993,39.586 54.686,39.586 
			54.686,37.433 47.993,37.433 47.993,31.971 		"/>
		<path fill="#FFE62E" d="M54.174,30.613c0-0.125-0.349-0.142-0.375-0.327c-0.063-0.493-0.238-0.678-0.502-0.749
			c-0.265-0.071-0.44,0.044-0.44,0.044c-0.079,0.115-0.476,0.115-0.696,0.123c-0.22,0.009-0.662-0.527-0.717-0.555
			c0.285,0.004,0.5-0.128,0.823-0.466c0.352-0.37,0.604-0.227,0.604-0.227c-0.171,0.345,0.057,0.315,0.057,0.315
			c0.467-0.238-0.07-1.126-0.212-1.1c-0.619,0.865-0.608-0.107-1.506-0.16c-0.482-0.028-1.55,0.211-1.902,0.353
			c-0.353,0.141-1.475-0.179-2.137-0.097c-1.453,0.182-1.495-0.578-1.495-0.578s-0.948,0.813,0.858,1.625
			c0,0-0.703-0.691,2.71-0.492c0.774-0.132,2.12-0.661,2.479-0.322c0,0,0.041,0.268,0.191,0.339c0,0,0.02,0.302-0.986,0.246
			c-2.451-0.136-5.947,1.094-6.378,0.24c-0.274-0.543,0.741-0.742,0.741-0.742c-0.229-0.282-0.714-0.132-0.714-0.132
			c0.009-0.344-0.132-0.74-0.132-0.74c-0.476,0.053-0.748,0.449-0.748,0.449c-0.018-0.352-0.468-0.554-0.468-0.554
			c0.167,0.202,0.062,2.018-1.163,1.457c0,0-0.68-0.403-0.919-0.388c-0.238,0.015-1.522,0.612-1.171,0.948
			c0,0,0.99-0.632,1.472-0.118c0.572,0.611,1.541,0.568,1.541,0.568c-0.123,0.264-0.473,1.057-0.473,1.057
			c0.003,0.001,0.006,0.001,0.009,0.002c-0.004,0.007-0.009,0.014-0.012,0.021c0,0-0.537,0.187-0.775,0.448
			c0,0-1.714-1.352-1.837-0.045c-0.029,0.312,1.403,0.75,2.439,0.412c0.589-0.141,0.785-0.382,0.785-0.382
			c0.185-0.036,2.794,0.218,5.556-1.196c0.572-0.819,1.428-0.393,1.428-0.393s-1.368,0.033-1.252,0.903
			c0.025,0.189,0.625,0.353,0.47,0.602c-0.003,0.004-0.006,0.008-0.009,0.012c-0.264,0.361-0.974-0.431-1.315-0.526
			c-0.158-0.044-0.659,0.106-0.245,0.612c0.453,0.554,1.308,1.289,2.668-0.119c0.232-0.241-0.273-0.37-0.379-0.52
			c-0.106-0.15,0.026-0.124,0.026-0.124c0.423,0.229,0.458-0.502,0.458-0.502c0.044,0.422,0.414,0.537,0.414,0.537
			c0.229-0.229,0.062-0.696,0.062-0.696c0.546,0.978,0.877,0.822,0.877,0.822c-0.294-0.182-0.146-0.426-0.146-0.426
			c0.265,1.039,1.348,0.132,1.348,0.132c-0.053,0.15,0.001,0.238,0.098,0.335c0.097,0.097,0.211,0.141,0.158,0.317
			S52.786,31,52.786,31s-0.493-0.026-0.449,0.388C52.363,31.484,54.174,31.603,54.174,30.613z"/>
		<g>
			<path fill="#CECECE" d="M45.062,44.647L45.062,44.647C45.086,44.654,45.077,44.652,45.062,44.647z"/>
			<path fill="#CECECE" d="M44.221,43.636c-0.033-0.304-0.406-1.006-0.406-1.006c1.059,0.143,1.457-0.984,1.457-0.984
				c-0.265,0.106-0.934-0.196-0.934-0.196c0.974-0.092,0.934-1.098,0.934-1.098c-0.158,0.674-1.447,0.584-1.447,0.584
				c0.371-0.16,0.583-0.902,0.583-0.902c-0.085,0.264-0.778,0.482-1.222,0.73c-0.443,0.249-0.21,0.965-0.21,0.965
				c-0.125-0.085-0.366-0.467-0.413-0.801c-0.047-0.335-0.179-0.467-0.482-0.506s-0.482,0.303-0.482,0.303l-0.451,0.234l0.459,0.016
				c0,0,0.327,0.109,0.327,0.365c0,0.258-0.288,1.285,0.187,1.861c0.318,0.386,1.466,0.613,1.545,0.629l0.438,1.061l0.381-0.42
				l0.765,0.037C44.969,44.461,44.221,43.636,44.221,43.636z"/>
		</g>
		<path fill="#C94747" d="M53.458,40.19L53.458,40.19L53.458,40.19c-0.001-0.001-0.313-0.091-0.791-0.277s-1.018,0.524-1.018,0.524
			l0,0c-0.217,0.381,0.382,0.366,0.396,0.299c0.015-0.066,0.205-0.262,0.437-0.403c0.231-0.143,0.476,0.337,0.729,0.337
			C53.463,40.67,53.457,40.203,53.458,40.19L53.458,40.19z"/>
		<path fill="#FFE62E" d="M50.027,41.17c0,0,0-0.948,0.852-0.98c0.539-0.02,1.721,0.604,1.839,1.129
			c0.123,0.547-0.256,0.935-0.596,1.1"/>
		<g>
			<path fill="#75A843" d="M53.207,33.379l0.93,0.012c-0.235-0.416-1.023-0.439-1.652-0.338c0.396-0.125,0.883-0.262,0.96-0.277
				c-0.195-0.144-1.012-0.65-2.051,0.378l-0.017,0.001c-1.039-1.03-1.856-0.523-2.052-0.379c0.077,0.015,0.564,0.152,0.961,0.277
				c-0.63-0.102-1.418-0.078-1.653,0.338l0.93-0.012c-0.389,0.186-0.601,0.205-0.657,0.662c0.022-0.01,0.505-0.139,1-0.269
				c-0.27,0.134-0.51,0.298-0.619,0.466c0.44,0.034,0.828-0.085,1.121-0.226c-0.182,0.233-0.295,0.487-0.278,0.635
				c0.219-0.039,0.444-0.227,0.629-0.423c-0.112,0.43-0.104,0.869,0.021,1.049c0.181-0.141,0.312-0.381,0.407-0.641l-0.013,0.252
				h0.39l-0.016-0.356c0.098,0.296,0.24,0.587,0.444,0.745c0.124-0.18,0.133-0.619,0.021-1.049c0.184,0.196,0.409,0.384,0.628,0.423
				c0.018-0.147-0.097-0.401-0.278-0.635c0.293,0.141,0.681,0.26,1.121,0.226c-0.109-0.168-0.35-0.332-0.618-0.466
				c0.494,0.13,0.977,0.259,1,0.269C53.808,33.584,53.596,33.564,53.207,33.379z"/>
			<rect x="51.071" y="34.225" fill="#C94747" width="0.628" height="2.775"/>
		</g>
		<g>
			<g>
				<path fill="#75A843" d="M49.96,41.162c-0.642-0.002-0.137,1.406-0.426,1.248c-0.407-0.222-0.634,1.061,0.01,1.49
					c1.029,0.685,1.846-0.154,1.725-0.377c-0.207-0.377,0.934-0.567,0.934-0.859C52.202,41.84,50.635,41.164,49.96,41.162z"/>
				<path fill="#75A843" d="M43.854,34.268c-0.007-0.023-0.014-0.047-0.022-0.072c-0.021-0.221-0.093-0.395-0.24-0.457
					c-0.234-0.277-0.475-0.121-0.678,0.188c-0.134,0.088-0.224,0.173-0.282,0.247c0.023-0.865,0.148-1.667,1.271-0.564
					c0,0,0.026-0.445-0.618-0.938c-0.674-0.515-0.946,0.119-1.021,0.91c-0.086-0.146-0.286-0.377-0.741-0.572
					c-0.809-0.348-0.911,0.357-0.787,1.127c-0.32-0.393-0.719-0.569-1.091-0.022c-0.407,0.599-0.231,0.892-0.231,0.892
					c0.72-1.391,1.122-0.527,1.468,0.129c-0.455-0.365-1.094-0.671-1.204-0.017c-0.084,0.496,0.132,0.64,0.132,0.64
					c0.057-1.582,1.197,0.07,1.529-0.086c0.003-0.001,0.006-0.004,0.008-0.007c0.013-0.007,0.021-0.026,0.023-0.054
					c0.111-0.165,0.145-0.629,0.24-0.973c0.327,0.227,0.663,0.885,0.873,0.83c0.004-0.002,0.007-0.004,0.01-0.006
					c0.015-0.006,0.026-0.023,0.035-0.053c0.107-0.109,0.21-0.393,0.324-0.672c0.371-0.056,0.377,0.994,0.607,1.014
					c0.004,0,0.006-0.001,0.009-0.002c0.013,0,0.027-0.012,0.044-0.032c0.356-0.179,1.219-1.702,1.218-0.168
					c0,0,0.188-0.19,0.133-0.703c-0.072-0.661-0.603-0.257-1,0.198c0.313-0.754,0.68-1.7,1.243-0.366c0,0,0.159-0.344-0.17-0.908
					C44.58,33.16,44.162,33.635,43.854,34.268z M41.435,34.194c-0.098-0.019-0.19-0.002-0.271,0.065
					c-0.02-0.113-0.033-0.221-0.038-0.321c0.325-0.299,0.537-0.284,0.686-0.117C41.649,33.828,41.525,33.98,41.435,34.194z
					 M41.239,34.641c0.024-0.023,0.049-0.041,0.073-0.053c-0.015,0.068-0.027,0.139-0.039,0.207
					C41.263,34.744,41.251,34.692,41.239,34.641z M42.729,34.27c-0.037,0.082-0.072,0.166-0.104,0.252
					c0.001-0.064,0.002-0.129,0.003-0.193C42.663,34.307,42.697,34.287,42.729,34.27z M42.254,33.705
					c-0.004-0.008-0.008-0.016-0.011-0.022c0.004,0.002,0.008,0.005,0.012,0.007C42.254,33.694,42.254,33.699,42.254,33.705z
					 M41.735,34.346c0.069-0.096,0.161-0.137,0.289-0.086c0.053,0.171,0.096,0.361,0.138,0.539
					C42.037,34.629,41.888,34.461,41.735,34.346z M42.989,34.427c0.075-0.149,0.156-0.272,0.247-0.331
					c0.373,0.009,0.266,0.572,0.192,1.041C43.35,34.813,43.201,34.475,42.989,34.427z"/>
			</g>
			<g>
				<path fill="#C94747" d="M49.604,44.124c-0.034-0.024,0.117-0.101,0.117-0.121c0-0.053-0.089-0.149-0.119-0.134
					c0,0-0.102,0.16-0.119,0.148c-0.62-0.41-1.017,1.278-1.017,1.278S50.272,44.605,49.604,44.124z"/>
				<polygon fill="#C94747" points="41.055,35.366 41.266,36.78 41.592,36.74 41.381,35.326 				"/>
				
					<rect x="42.215" y="35.092" transform="matrix(-0.997 -0.0769 0.0769 -0.997 81.875 74.8939)" fill="#C94747" width="0.33" height="1.556"/>
				<polygon fill="#C94747" points="42.848,36.578 43.086,36.688 43.665,35.502 43.427,35.391 				"/>
			</g>
		</g>
	</g>
</g>
</svg>
