<?xml version="1.0" encoding="utf-8"?>
<!-- Generator: Adobe Illustrator 15.0.0, SVG Export Plug-In . SVG Version: 6.00 Build 0)  -->
<!DOCTYPE svg PUBLIC "-//W3C//DTD SVG 1.1//EN" "http://www.w3.org/Graphics/SVG/1.1/DTD/svg11.dtd">
<svg version="1.1" id="Layer_1" xmlns="http://www.w3.org/2000/svg" xmlns:xlink="http://www.w3.org/1999/xlink" x="0px" y="0px"
	 width="64px" height="64px" viewBox="0 0 64 64" enable-background="new 0 0 64 64" xml:space="preserve">
<g>
	<path fill="#FFCE31" d="M2,32c0,5.885,1.701,11.369,4.628,16h50.745C60.299,43.369,62,37.885,62,32s-1.701-11.367-4.627-16H6.628
		C3.701,20.633,2,26.115,2,32z"/>
	<path fill="#ED4C5C" d="M57.373,16C52.057,7.59,42.684,2,32,2C21.316,2,11.943,7.59,6.628,16H57.373z"/>
	<path fill="#ED4C5C" d="M6.628,48C11.943,56.41,21.316,62,32,62c10.684,0,20.057-5.59,25.374-14H6.628z"/>
	<rect x="9.242" y="28.711" fill="#C8B100" width="3.2" height="1.764"/>
	<rect x="9.198" y="41.895" fill="#C8B100" width="3.285" height="1.654"/>
	<path fill="#ED4C5C" d="M8.941,39.063c-0.325,0.188-0.546,0.379-0.51,0.475c0.018,0.09,0.12,0.154,0.269,0.252
		c0.232,0.162,0.373,0.451,0.263,0.584c0.192-0.154,0.313-0.387,0.313-0.645C9.276,39.459,9.148,39.217,8.941,39.063"/>
	<rect x="9.668" y="30.457" fill="#FFFFFF" width="2.334" height="11.434"/>
	<path fill="#ED4C5C" d="M14.387,34.734c-0.511-0.211-1.375-0.367-2.368-0.4c-0.343,0.004-0.725,0.035-1.119,0.102
		c-1.396,0.232-2.459,0.789-2.375,1.244l0.008,0.037l-0.531-1.223c-0.094-0.504,1.086-1.123,2.635-1.383
		c0.486-0.08,0.961-0.111,1.373-0.107c0.99,0,1.852,0.127,2.371,0.32L14.387,34.734"/>
	<path fill="#ED4C5C" d="M9.665,36.17c-0.646-0.047-1.089-0.221-1.141-0.49c-0.039-0.217,0.18-0.455,0.57-0.672
		c0.174,0.02,0.37,0.043,0.573,0.043L9.665,36.17"/>
	<path fill="#ED4C5C" d="M12.007,35.295c0.404,0.063,0.707,0.162,0.859,0.285l0.014,0.025c0.071,0.148-0.283,0.463-0.877,0.813
		L12.007,35.295"/>
	<path fill="#ED4C5C" d="M8.216,38.375c-0.063-0.186,0.568-0.555,1.461-0.881c0.407-0.146,0.744-0.299,1.162-0.482
		c1.238-0.549,2.153-1.176,2.041-1.406l-0.013-0.023l0.169,1.184c0.111,0.209-0.726,0.828-1.866,1.375
		c-0.365,0.176-1.136,0.459-1.5,0.588c-0.65,0.225-1.298,0.65-1.238,0.809L8.216,38.375"/>
	<rect x="30.656" y="28.711" fill="#C8B100" width="3.2" height="1.764"/>
	<rect x="30.615" y="41.895" fill="#C8B100" width="3.286" height="1.654"/>
	<path fill="#ED4C5C" d="M34.156,39.063c0.326,0.188,0.547,0.379,0.512,0.475c-0.018,0.09-0.121,0.154-0.27,0.252
		c-0.232,0.162-0.373,0.451-0.264,0.584c-0.191-0.154-0.313-0.387-0.313-0.645C33.822,39.459,33.951,39.217,34.156,39.063"/>
	<rect x="31.095" y="30.457" fill="#FFFFFF" width="2.334" height="11.434"/>
	<path fill="#ED4C5C" d="M28.71,34.734c0.512-0.211,1.377-0.367,2.371-0.4c0.34,0.004,0.723,0.035,1.117,0.102
		c1.395,0.232,2.459,0.789,2.375,1.244l-0.008,0.037l0.531-1.223c0.094-0.504-1.086-1.123-2.635-1.383
		c-0.486-0.08-0.961-0.111-1.371-0.107c-0.992,0-1.854,0.127-2.373,0.32L28.71,34.734"/>
	<path fill="#ED4C5C" d="M33.434,36.17c0.648-0.047,1.09-0.221,1.141-0.49c0.039-0.217-0.18-0.455-0.57-0.672
		c-0.174,0.02-0.371,0.043-0.574,0.043L33.434,36.17"/>
	<path fill="#ED4C5C" d="M31.091,35.295c-0.404,0.063-0.707,0.162-0.859,0.285l-0.014,0.025c-0.072,0.148,0.283,0.463,0.877,0.813
		L31.091,35.295"/>
	<path fill="#ED4C5C" d="M34.883,38.375c0.063-0.186-0.568-0.555-1.461-0.881c-0.408-0.146-0.745-0.299-1.163-0.482
		c-1.238-0.549-2.154-1.176-2.039-1.406l0.01-0.023l-0.166,1.184c-0.113,0.209,0.725,0.828,1.863,1.375
		c0.365,0.176,1.137,0.459,1.5,0.588c0.652,0.225,1.299,0.65,1.24,0.809L34.883,38.375"/>
	<path fill="#ED4C5C" d="M21.457,22.277c1.916,0,5.779,0.438,7.191,1.768c-1.486,3.602-3.924,2.123-7.16,2.123
		c-3.245-0.002-5.681,1.482-7.174-2.123C15.721,22.727,19.55,22.277,21.457,22.277C22.412,22.277,20.503,22.277,21.457,22.277z"/>
	<path fill="#C8B100" d="M26.445,26.277c-1.244-0.695-2.99-0.844-4.92-0.848c-1.928,0.004-3.661,0.152-4.906,0.848l0.446,1.689
		c1.126,0.34,2.704,0.549,4.463,0.551c1.762-0.002,3.338-0.211,4.463-0.551L26.445,26.277z"/>
	<path fill="#C8B100" d="M28.117,22.045c-0.381-0.332-1.156-0.553-1.938-0.553c-0.311,0-0.607,0.033-0.881,0.096
		c0.041,0.045-0.551-0.83-1.957-0.83c-0.494,0-0.947,0.123-1.297,0.326l-0.01-0.059c-0.051-0.225-0.268-0.393-0.521-0.393
		s-0.48,0.168-0.531,0.393l-0.008,0.057c-0.35-0.203-0.803-0.324-1.295-0.324c-1.375,0-1.997,0.875-1.957,0.83
		c-0.274-0.063-0.571-0.096-0.882-0.096c-4.617,0-2.253,3.107-2.253,3.107l0.378-0.617c-1.068-1.4-0.141-2.25,1.875-2.25
		c0.254,0,0.498,0.023,0.725,0.068c-0.689,1.025,0.6,1.887,0.6,1.887l0.299-0.49c-0.727-0.461-0.785-2.201,1.215-2.201
		c0.496,0,0.945,0.135,1.262,0.352c-0.01,0.109-0.104,1.455-0.207,1.727l0.779,0.738l0.77-0.738
		c-0.102-0.271-0.195-1.617-0.205-1.725c0.316-0.219,0.766-0.354,1.264-0.354c2.055,0,2.127,1.729,1.215,2.201l0.299,0.49
		c0,0,1.09-0.867,0.6-1.887c0.227-0.045,0.471-0.072,0.725-0.068c2.387,0.035,2.549,1.775,1.875,2.25l0.377,0.617
		C28.431,24.6,29.47,23.221,28.117,22.045z"/>
	<path fill="#005BBF" d="M20.878,20.064c0-0.334,0.285-0.604,0.637-0.604s0.637,0.27,0.637,0.604c0,0.332-0.285,0.602-0.637,0.602
		S20.878,20.396,20.878,20.064"/>
	<polygon fill="#C8B100" points="21.349,18.375 21.349,18.699 21.001,18.699 21.001,19.029 21.349,19.029 21.349,19.482 
		21.349,19.979 20.91,19.979 20.878,20.064 20.929,20.299 20.933,20.303 22.099,20.303 22.103,20.299 22.154,20.064 22.121,19.979 
		21.697,19.979 21.697,19.486 21.697,19.029 22.044,19.029 22.044,18.699 21.697,18.699 21.697,18.375 	"/>
	<path fill="#ED4C5C" d="M21.525,28.287c-1.588-0.002-3.025-0.186-4.119-0.469c1.094-0.283,2.531-0.455,4.119-0.459
		c1.59,0.004,3.033,0.176,4.127,0.459C24.558,28.102,23.115,28.285,21.525,28.287"/>
	<path fill="#FFFFFF" d="M21.578,45.625c-1.877,0-3.739-0.459-5.304-1.227c-1.154-0.57-1.919-1.723-1.919-3.041v-4.781h14.418v4.781
		c0,1.318-0.764,2.471-1.918,3.041C25.291,45.166,23.457,45.625,21.578,45.625"/>
	<rect x="21.546" y="28.568" fill="#FFFFFF" width="7.227" height="8"/>
	<path fill="#ED4C5C" d="M21.552,41.352c0,1.891-1.6,3.422-3.595,3.422c-1.995,0-3.612-1.531-3.612-3.422v-4.789h7.208V41.352"/>
	<path fill="#C8B100" d="M15.919,44.176c0.226,0.119,0.535,0.318,0.865,0.398l-0.02-8.18h-0.846V44.176z"/>
	<path fill="#C8B100" d="M14.333,41.287c0.021,1.01,0.422,1.76,0.824,2.25v-7.104h-0.814L14.333,41.287z"/>
	<path fill="#C7B500" d="M17.526,44.752c0.33,0.033,0.577,0.027,0.844,0v-8.357h-0.844V44.752z"/>
	<path fill="#C8B100" d="M19.113,44.574c0.332-0.066,0.703-0.273,0.865-0.379v-7.801h-0.844L19.113,44.574z"/>
	<rect x="14.346" y="28.568" fill="#ED4C5C" width="7.205" height="8"/>
	<path fill="#C8B100" d="M20.763,43.459c0.352-0.313,0.682-1.023,0.803-1.834l0.02-5.23h-0.844L20.763,43.459z"/>
	<path fill="#ED4C5C" d="M28.781,36.563v4.789c0,1.891-1.619,3.422-3.615,3.422c-1.994,0-3.613-1.531-3.613-3.422v-4.789H28.781"/>
	<path fill="#ED4C5C" d="M26.169,29.965c0.256,0.602,0.252,2.076-0.648,1.762c0.17,0.059,0.258,0.813,0.568,1.162
		c0.527,0.598,1.107,0.061,0.965-0.58c-0.246-1.105-0.117-1.814,0.105-2.893c0.02,0.145,0.502,0.119,0.676-0.107
		c-0.133,0.289-0.158,0.689-0.045,0.699c-0.176,0.291-0.725,0.771-0.76,1.094c-0.07,0.695,0.975,2.049-0.205,2.318
		c-0.783,0.18-0.311,0.799,0.018,1.109c-0.01-0.008-0.361,1.275-0.205,1.219c-0.844,0.305-0.566-0.375-0.566-0.375
		c0.361-1.152-0.654-1.27-0.566-1.471c-1-0.053,0.127,0.934-0.822,0.934c-0.158,0-0.572,0.174-0.578,0.174
		c-1.1-0.09-0.451-1.139-0.133-0.986c0.309,0.145,0.586,0.646,0.639-0.051c0,0-0.512-0.811,0.758-0.803
		c-0.469-0.002-0.84-0.447-0.998-0.896c-0.166,0.127-0.549,0.607-1.615,0.691c0,0-0.34-1.074-0.006-0.924
		c0.367,0.164,0.646,0.172,0.982-0.209c-0.24-0.254-1.404-0.719-1.23-1.43c0.049-0.191,0.59-0.479,0.59-0.479
		c-0.086,0.494,0.172,0.967,0.813,1.045c0.826,0.1,0.486-0.199,0.557-0.449c0.064-0.225,0.682,0.082,0.533-0.418
		c-0.021-0.072-0.715-0.234-0.488-0.451c0.557-0.51,1.23-0.199,1.664,0.316"/>
	<polyline fill="#ED4C5C" points="21.607,44.613 21.373,44.08 21.607,43.547 21.839,44.08 21.607,44.613 	"/>
	<polygon fill="#C8B100" points="16.454,30.285 16.454,30.816 16.687,30.816 16.687,31.18 16.188,31.18 16.188,32.242 
		16.454,32.242 16.454,34.365 15.922,34.365 15.922,35.461 20.003,35.461 20.003,34.365 19.472,34.365 19.472,32.242 19.738,32.242 
		19.738,31.18 19.24,31.18 19.24,30.816 19.472,30.816 19.472,30.285 18.478,30.285 18.478,30.816 18.71,30.816 18.71,31.18 
		18.212,31.18 18.212,30.02 18.478,30.02 18.478,29.488 17.448,29.488 17.448,30.02 17.714,30.02 17.714,31.18 17.216,31.18 
		17.216,30.816 17.448,30.816 17.448,30.285 	"/>
	<path fill="#C8B100" d="M27.75,42.607v-4.992h-5.168v4.992l2.414,1.111v0.002h0.002h0.334h0.004v-0.002L27.75,42.607z
		 M24.994,37.957l0.002,1.738l-1.74-1.738H24.994z M22.923,38.109l2,1.998l-2,2.002V38.109z M23.06,42.457l1.936-1.936v2.818
		L23.06,42.457z M25.335,43.34v-2.818l1.936,1.936L25.335,43.34z M27.408,42.109l-2-2.002l2-1.998V42.109z M25.335,37.957h1.74
		l-1.74,1.738V37.957z"/>
	<path fill="#ED4C5C" d="M19.236,36.533c0-1.451,1.045-2.627,2.334-2.627s2.334,1.176,2.334,2.627s-1.045,2.627-2.334,2.627
		S19.236,37.984,19.236,36.533"/>
	<path fill="#005BBF" d="M19.927,36.529c0-1.064,0.736-1.928,1.643-1.928s1.643,0.863,1.643,1.928c0,1.063-0.736,1.926-1.643,1.926
		S19.927,37.592,19.927,36.529"/>
	<polyline fill="#C8B100" points="20.794,35.203 20.369,36.299 20.66,36.398 20.525,36.779 21.068,36.779 20.933,36.398 
		21.224,36.299 20.794,35.203 	"/>
	<polyline fill="#C8B100" points="22.322,35.203 21.896,36.299 22.185,36.398 22.05,36.779 22.595,36.779 22.458,36.398 
		22.75,36.299 22.322,35.203 	"/>
	<polyline fill="#C8B100" points="21.558,36.516 21.132,37.611 21.421,37.713 21.287,38.092 21.832,38.092 21.697,37.713 
		21.988,37.611 21.556,36.516 	"/>
</g>
</svg>
