<?xml version="1.0" encoding="utf-8"?>
<!-- Generator: Adobe Illustrator 15.0.0, SVG Export Plug-In . SVG Version: 6.00 Build 0)  -->
<!DOCTYPE svg PUBLIC "-//W3C//DTD SVG 1.1//EN" "http://www.w3.org/Graphics/SVG/1.1/DTD/svg11.dtd">
<svg version="1.1" id="Layer_1" xmlns="http://www.w3.org/2000/svg" xmlns:xlink="http://www.w3.org/1999/xlink" x="0px" y="0px"
	 width="64px" height="64px" viewBox="0 0 64 64" enable-background="new 0 0 64 64" xml:space="preserve">
<g>
	<path fill="#ED4C5C" d="M62,32c0,16.568-13.432,30-30,30S2,48.568,2,32S15.432,2,32,2S62,15.432,62,32"/>
	<polyline fill="#FFFFFF" points="49.289,22.791 44.158,22.504 43.776,22.246 42.727,23.073 42.859,23.897 42.533,25.169 
		40.254,29.953 40.055,30.982 40.152,32.046 39.667,32.217 34.563,29.51 34.361,29.674 34.586,29.464 32.898,24.276 30.698,20.566 
		28.781,20.408 27.328,21.523 20.644,24.323 19.043,23.766 16.423,21.382 15.624,21.758 18.194,26.207 18.187,26.668 19.454,27.093 
		20.072,26.53 21.314,26.107 26.565,25.393 27.535,24.996 28.371,24.332 28.78,24.644 29.278,30.089 25.535,33.916 23.256,37.578 
		23.999,39.353 25.658,40.128 31.223,44.771 31.465,46.448 30.558,49.872 31.26,50.408 34.023,46.077 34.436,45.87 34.229,44.55 
		33.445,44.261 32.497,43.354 29.457,39.048 28.631,38.345 27.67,37.908 27.758,37.401 32.448,34.394 32.455,34.433 37.719,35.864 
		42.028,36.055 43.211,34.538 43.073,32.711 44.393,25.586 45.736,24.552 49.166,23.665 49.289,22.791 	"/>
	<polygon fill="#FFE606" points="23.961,37.596 25.723,37.668 26.299,37.355 26.683,36.853 27.15,37.044 27.246,38.483 
		26.635,38.614 26.203,38.183 25.195,38.147 24.297,38.53 23.77,38.291 	"/>
	<polyline fill="#F9DD19" points="32.912,47.354 31.234,47.693 31.048,48.474 32.709,47.974 32.912,47.354 	"/>
	<polyline fill="#F9DD19" points="46.457,22.721 45.816,22.847 46.936,24.144 47.707,23.924 46.457,22.721 	"/>
	<polyline fill="#F9DD19" points="40.861,32.134 39.654,32.923 39.716,33.424 40.343,33.512 40.896,33.86 41.697,35.432 
		42.398,35.259 42.348,34.681 41.859,34.323 41.573,34.085 41.111,33.189 41.275,32.603 40.861,32.134 	"/>
	<polyline fill="#F9DD19" points="17.438,22.461 17.117,24.166 17.572,24.632 18.045,22.986 17.438,22.461 	"/>
	<polyline fill="#F9DD19" points="29.829,20.693 29.373,21.051 29.299,22.026 28.804,22.903 28.221,23.087 28.057,23.69 
		29.378,24.269 29.764,23.942 29.494,23.369 29.482,22.715 30.357,21.184 29.829,20.693 	"/>
	<path fill="#F9DB17" d="M32.448,34.394l-0.114,0.073l0.02,0.084h0.533l-0.432-0.118L32.448,34.394 M29.211,29.707l-0.167,0.563
		l0.04,0.018l0.194-0.199l-0.034-0.371L29.211,29.707 M34.57,28.772l-0.168,0.127l0.184,0.564l-0.225,0.21l0.201-0.164l0.148,0.079
		l0.147-0.121L34.57,28.772"/>
	<polyline fill="#F9DD19" points="34.402,28.899 32.053,30.667 29.244,29.718 29.278,30.089 29.084,30.288 31.621,31.409 
		32.334,34.467 32.448,34.394 32.455,34.433 32.887,34.551 32.965,34.551 32.58,31.35 34.711,29.589 34.563,29.51 34.361,29.674 
		34.586,29.464 34.402,28.899 	"/>
	<polygon fill="#F9DD16" points="19.528,25.971 20.021,27.487 21.616,27.487 20.326,28.425 20.818,29.942 19.528,29.005 
		18.238,29.942 18.73,28.425 17.44,27.487 19.035,27.487 	"/>
	<polygon fill="#F9DD16" points="41.707,20.495 42.2,22.012 43.795,22.012 42.505,22.95 42.998,24.467 41.707,23.529 40.417,24.467 
		40.91,22.95 39.619,22.012 41.215,22.012 	"/>
	<polygon fill="#F9DD16" points="35.244,41.525 35.737,43.043 37.332,43.043 36.042,43.98 36.535,45.497 35.244,44.56 
		33.954,45.497 34.447,43.98 33.156,43.043 34.752,43.043 	"/>
</g>
</svg>
