<?xml version="1.0" encoding="utf-8"?>
<!-- Generator: Adobe Illustrator 15.0.0, SVG Export Plug-In . SVG Version: 6.00 Build 0)  -->
<!DOCTYPE svg PUBLIC "-//W3C//DTD SVG 1.1//EN" "http://www.w3.org/Graphics/SVG/1.1/DTD/svg11.dtd">
<svg version="1.1" id="Layer_1" xmlns="http://www.w3.org/2000/svg" xmlns:xlink="http://www.w3.org/1999/xlink" x="0px" y="0px"
	 width="64px" height="64px" viewBox="0 0 64 64" enable-background="new 0 0 64 64" xml:space="preserve">
<g>
	<g>
		<path fill="#428BC1" d="M61.721,28c-0.137-1.016-0.315-2.019-0.551-3H2.83c-0.235,0.981-0.414,1.984-0.551,3H61.721z"/>
		<path fill="#428BC1" d="M2.279,36c0.137,1.016,0.315,2.019,0.551,3h58.34c0.235-0.981,0.414-1.984,0.551-3H2.279z"/>
	</g>
	<g>
		<path fill="#428BC1" d="M20,4.489c-1.03,0.45-2.033,0.952-3,1.513v51.996c0.967,0.561,1.97,1.063,3,1.513V4.489z"/>
		<path fill="#428BC1" d="M28,2.263v59.475c0.986,0.132,1.984,0.229,3,0.263V2C29.984,2.033,28.986,2.131,28,2.263z"/>
	</g>
	<path fill="#ED4C5C" d="M2,32c0,1.357,0.099,2.69,0.273,4h59.453C61.901,34.69,62,33.357,62,32s-0.099-2.69-0.273-4H2.273
		C2.099,29.31,2,30.643,2,32z"/>
	<path fill="#ED4C5C" d="M20,59.496c2.507,1.096,5.191,1.855,8,2.23V2.273c-2.809,0.375-5.493,1.135-8,2.23V59.496z"/>
	<path fill="#F9F9F9" d="M17,25V6.023C9.982,10.084,4.766,16.902,2.83,25H17z"/>
	<path fill="#F9F9F9" d="M17,39.023V58C9.982,53.939,4.766,47.121,2.83,39.023H17z"/>
	<path fill="#F9F9F9" d="M32,2c-0.336,0-0.667,0.015-1,0.025V25h30.17C58.016,11.81,46.157,2,32,2z"/>
	<path fill="#F9F9F9" d="M31,39v22.975C31.333,61.985,31.664,62,32,62c14.157,0,26.016-9.81,29.17-23H31z"/>
</g>
</svg>
