<?xml version="1.0" encoding="utf-8"?>
<!-- Generator: Adobe Illustrator 15.0.0, SVG Export Plug-In . SVG Version: 6.00 Build 0)  -->
<!DOCTYPE svg PUBLIC "-//W3C//DTD SVG 1.1//EN" "http://www.w3.org/Graphics/SVG/1.1/DTD/svg11.dtd">
<svg version="1.1" id="Layer_1" xmlns="http://www.w3.org/2000/svg" xmlns:xlink="http://www.w3.org/1999/xlink" x="0px" y="0px"
	 width="64px" height="64px" viewBox="0 0 64 64" enable-background="new 0 0 64 64" xml:space="preserve">
<g>
	<path fill="#2A5F9E" d="M32,2v30H2c0,16.568,13.432,30,30,30c16.569,0,30-13.432,30-30C62,15.431,48.568,2,32,2z"/>
	<rect x="12" y="12" fill="#2A5F9E" width="21" height="21"/>
	<polygon fill="#FFFFFF" points="18.912,8.139 18.912,14 11.6,14 26,32 32,32 32,24.5 	"/>
	<path fill="#FFFFFF" d="M11,18.912H5.011C3.088,22.869,2,27.305,2,32h12V13.912h-3V18.912z"/>
	<polygon fill="#ED4C5C" points="32,27.059 19,11 13,11 30,32 32,32 	"/>
	<path fill="#FFFFFF" d="M18.912,5.011V11H11v3h21V2C27.306,2,22.869,3.087,18.912,5.011z"/>
	<path fill="#ED4C5C" d="M32,5H18.912C12.857,7.94,7.94,12.857,5,18.912V32h6V11h21V5z"/>
	<path fill="#D8A322" d="M34.541,33.848l-0.002,0.007L34.541,33.848z"/>
	<path fill="#D8A322" d="M34.537,33.86L34.5,33.939L34.537,33.86z"/>
	<path fill="#D8A322" d="M34.539,33.854l-0.002,0.006L34.539,33.854z"/>
	<path fill="#FFCE31" d="M38.457,26.744c0.059-0.523-0.053-1.061-0.436-1.398c-0.738-0.649-1.461-0.435-2,0.089
		c-0.807-0.435-1.234,1.108-2.148,0.849c0.152,0.5,0.393,0.717,0.85,0.544c-0.48,0.436,0,0.958-0.566,1.48
		c1.023,0.326,1.568-0.239,1.523-1.221c0.395,0.348,1.002,0.327,1.328-0.066c-0.545-0.175-0.547-0.646-0.326-1.089
		C37.008,25.28,38.543,25.307,38.457,26.744z"/>
	<path fill="#699635" d="M40.818,34.32c-1.154,0.61-3.266,0.35-3.461-1.154c-0.197-1.504,1.262-2.18,1.654-2.373
		c0.611-0.307,1.09,0.238,0.893,0.872c0.676-0.238,0.828-1.024,0.5-1.479c0.895,0.065,1.721-0.61,2.07-1.568
		c-0.314,0.299-1.168,0.096-1.871,0.052c0.219-0.237,0.215-0.704,0.15-0.945c-0.738,0.76-1.809,0.411-3.221,2.61
		c0.217-0.762,0.631-2.285,0.871-3.289c0.023-0.099,0.041-0.198,0.055-0.301c0.084-1.438-1.447-1.464-1.775-0.809
		c0.359,0.403,0.17,0.875,0.041,1.59c-0.15,0.848-0.479,2.809-0.762,3.461c-0.086-1.023-0.762-1.089-0.893-1.589
		c-0.195,0.131-0.305,0.479-0.262,0.718c-0.24-0.263-1.068,0.064-1.373-0.328c-0.326,0.652,0.197,1.307,0.742,1.59
		c-0.316,0.021-0.393,0.403-0.742,0.403c0.469,0.545,0.949,0.763,1.504,0.808c0.555,0.044,0.969,0.25,1.307,0.924
		C36.791,34.604,38.865,35.311,40.818,34.32z"/>
	<path fill="#FFCE31" d="M43.693,32.99c-0.65,1.807-2.438,3.093-3.244,3.289c-1.371,0.333-4.17,1.692-4.918,2.392
		c-0.117-0.026-0.229-0.068-0.309-0.126c-0.369-0.262-0.676-1.11-0.021-1.83c2.049-1.918,4.248-1.09,5.621-2.396
		c-1.156,0.609-3.266,0.348-3.463-1.155c1.242,0.327,3.486,0.349,5.27-1.568C42.867,31.859,43.563,32.687,43.693,32.99z"/>
	<path fill="#699635" d="M43.029,32.152c-0.369,0.555-1.211,1.317-2.014,1.623c0.172-0.195,0.229-0.445,0.238-0.651
		c-1.023,0.393-3.072,0.349-3.9,0.044c1.242,0.328,3.486,0.349,5.27-1.568C42.801,31.793,42.953,31.967,43.029,32.152z"/>
	<path fill="#699635" d="M35.201,36.715c-1.666,1.558-0.566,2.917,0.086,3.224c-0.172,1.089,0.85,0.958,0.828,1.872
		c0.414-0.238,0.523-0.871,0.459-1.372c0.523,0.565,1.852-0.065,2.135,0.979c0.174-1.155-0.719-2.307-1.83-2.2
		c0.459-0.413,0.197-1.089-0.236-1.262c-0.088,0.849-1.045,0.849-1.418,0.589C34.854,38.283,34.547,37.435,35.201,36.715z"/>
	<path fill="#FFCE31" d="M50.945,36.738c2.68,2.244,2.854,4.027,2.439,5.075c-0.219-0.979-1.328-2.504-2.482-2.896L50.945,36.738z"
		/>
	<path fill="#699635" d="M50.945,36.738c1.828,1.262,3.18,2.482,3.572,4.441c0.395,1.959,1.135,2.482,2.049,1.959
		c-0.217,1.131-1.352,1.262-2.309,0.393c0.088,1.307-0.434,2.876-1.785,3.441c-0.086-0.783,0.432-1.404,0.283-2.048
		c-0.064-0.282-0.086-0.938,0.283-1.241c-0.719,0.238-1.852-0.218-1.959-1.286c0.826,0.393,1.893,0.458,2.307-0.589
		C53.799,40.766,53.625,38.98,50.945,36.738z"/>
	<path fill="#FFCE31" d="M52.803,46.98c0.133-0.165,0.16-0.427-0.039-0.55c-0.168-0.104-0.395-0.149-0.484,0.212
		c-0.084,0.356-0.867,0.414-0.691,1.141c-0.225,0.037-0.441,0.164-0.559,0.354c-0.195,0.322-0.977,0.705-1.283,0.755
		c0.092,0.136,0.354,0.293,0.564,0.228c-0.105,0.519,0.227,0.688,0.402,0.587c-0.01,0.23,0.246,0.508,0.447,0.358
		c0.135,0.347,0.502,0.44,0.676,0.173c0.162,0.23,0.58,0.145,0.777,0.055c-0.316-0.023-0.303-0.9-0.242-1.262
		c0.07-0.432,0.049-0.696-0.023-0.869C52.854,47.924,52.564,47.272,52.803,46.98z"/>
	<path fill="#699635" d="M46.156,35.473h4.965c0,0,0,1.308,0,5.88c0,5.01-2.787,7.972-5.619,9.538
		c-2.832-1.568-5.621-4.531-5.621-9.538c0-4.572,0-5.88,0-5.88h3.486c0.006,0.305,0.033,0.763,0.393,1.221
		C44.582,36.612,45.512,35.996,46.156,35.473z"/>
	<path fill="#006EC7" d="M51.121,35.473c0,0,0,1.308,0,5.88c0,1.511-0.254,2.839-0.686,3.993l-4.932-9.047l-4.932,9.047
		c-0.432-1.156-0.686-2.482-0.686-3.993c0-4.572,0-5.88,0-5.88H51.121z"/>
	<path fill="#FFCE31" d="M50.584,44.914c-0.086,0.268-0.246,0.699-0.365,0.967l-4.715-8.764l-4.713,8.764
		c-0.123-0.268-0.281-0.699-0.367-0.967l5.082-9.423L50.584,44.914z"/>
	<path fill="#F7E017" d="M48.439,46.451c-0.283,0.721-1.24,0.697-1.504,1.132c0.16,0.081,0.311,0.187,0.438,0.277
		c-0.326,0.327-1.092,0.874-1.525,1.006v-4.63c0.506-0.031,1.293-0.105,1.625-0.105c0.111,0,0.203-0.165,0.203-0.369
		s-0.09-0.369-0.203-0.369c-0.355,0-1.24-0.084-1.736-0.112c0-0.159,0-0.738,0-0.925c0-0.217-0.043-0.534-0.238-0.534
		c-0.117,0-0.18,0.115-0.211,0.253c-0.096-0.044-0.205-0.069-0.32-0.069c-0.385,0-0.699,0.285-0.699,0.639
		c0,0.354,0.313,0.64,0.699,0.64c0.105,0,0.205-0.022,0.293-0.061v0.059c-0.494,0.027-1.373,0.111-1.73,0.111
		c-0.109,0-0.201,0.165-0.201,0.369s0.088,0.369,0.201,0.369c0.332,0,1.115,0.072,1.621,0.105v4.63
		c-0.238-0.696-1.178-0.458-1.613-1.155c0.17-0.042,0.352-0.055,0.523-0.021c-0.326-1.109-1.221-1.196-1.393-1.523
		c0,0.458-0.197,1.523,0.109,1.982c0.068-0.081,0.17-0.168,0.297-0.24c0.369,0.806,2.035,0.809,2.428,2.137
		c0.314-0.49,1.447-1.056,2.24-1.907c0.131,0.065,0.373,0.187,0.48,0.231C48.484,47.845,48.527,47.105,48.439,46.451z
		 M44.967,43.053c-0.248,0-0.447-0.184-0.447-0.409s0.201-0.409,0.447-0.409c0.115,0,0.217,0.039,0.295,0.102l-0.002,0.02
		c0,0.113,0,0.373,0,0.595C45.182,43.014,45.08,43.053,44.967,43.053z"/>
	<rect x="44.5" y="39.263" fill="#FFFFFF" width="1.871" height="2.095"/>
	<path fill="#FFCE31" d="M39.518,37.232c-0.838,0.711-1.637,1.748-1.834,2.686c-0.553,2.637-1.285,3.223-2.416,2.658
		c0,1.416,1.24,1.523,1.785,0.695c0,1.328,0.482,2.48,1.568,3.463c0.459,0.414,0.545,0.131,0.328-0.327s-0.217-1.938-0.652-2.786
		c0.697,0.5,1.721,0.217,1.635-1.156c-0.893,0.525-1.781,0.504-1.873-0.74C37.945,40.266,38.514,38.146,39.518,37.232z"/>
	<path fill="#699635" d="M39.518,37.232c-1.035,0.878-1.572,3.033-1.461,4.492c0.031,0.406,0.143,0.681,0.316,0.849
		c0.076-0.828,0.652-2.968,2.121-3.921c1.242-0.807,3.18-2.613,3.9-4.683c-0.133-0.369-0.35-0.631-0.764-0.893
		C42.916,35.03,41.008,35.968,39.518,37.232z"/>
	<path fill="#FFCE31" d="M40.295,48.217c-0.098-0.178-0.289-0.299-0.486-0.34c0.182-0.646-0.516-0.726-0.58-1.046
		c-0.064-0.327-0.271-0.293-0.424-0.207c-0.18,0.105-0.168,0.338-0.055,0.489c0.201,0.27-0.082,0.844,0.367,1.074
		c-0.072,0.152-0.1,0.388-0.051,0.778c0.039,0.325,0.021,1.11-0.262,1.12c0.174,0.087,0.545,0.182,0.697-0.021
		c0.146,0.246,0.479,0.175,0.609-0.131c0.174,0.142,0.414-0.097,0.414-0.304c0.152,0.097,0.459-0.045,0.379-0.511
		c0.188,0.065,0.426-0.065,0.512-0.187C41.145,48.879,40.457,48.51,40.295,48.217z"/>
	<path fill="#96877D" d="M48.963,34.334c0.279,0.312,0.369,0.728,0.219,1.137h-0.414c0.172-0.523,0.064-1.021-0.676-1.087
		c-1.107-0.097-2.396,2.048-4.334,2.307c-0.566-0.675-0.537-1.961,0.184-2.571c-0.373-1.071-1.156-2.25-1.701-2.758
		c-0.355-0.058-0.768-0.086-1.031-0.07c0.283-0.61,1.09-1.252,1.744-1.514c0.105-0.154,0.221-0.305,0.324-0.438
		c0.066-0.838,4.053-0.445,4.9,0.076C48.18,30.355,48.551,33.485,48.963,34.334z"/>
	<path fill="#699635" d="M53.256,26.545c0.566-1.479,2.049-1.327,2.549-0.696c1.459-0.828,1.654,1.045,2.896,0.676
		c-0.021,0.348-0.436,0.675-0.895,0.651c0.48,0.436-0.195,1.09,0.828,1.48c-0.871,0.435-2.09-0.021-2.416-1.221
		c-0.283,0.566-1.307,0.566-1.721,0.11c0.893-0.238,0.826-1.066,0.326-1.394C54.32,25.822,53.43,25.956,53.256,26.545z"/>
	<path fill="#699635" d="M48.838,29.806c0.406,1.31,1.246,2.53,2.152,3.36c1.045,0.959,2.625,0.717,3.508-0.197
		c0.02,1.823-1.869,1.965-2.918,1.395c-0.465-0.252-0.838-0.121-0.393,0.282c0.676,0.61,2.152,1.063,3.896,1.438
		c3.049,0.652,1.961,3.072,1.068,3.049c0.258-0.005,0.467-0.272,0.098-0.604c-2.646-2.381-8.025-1.443-7.939-6.758
		c-0.564,1.394-2.895,0.85-1.807-0.807c0.35,0.283,1.461,0.18,1.133-1.098L48.838,29.806z"/>
	<path fill="#FFCE31" d="M51.576,34.363c1.264,0.827,2.693,0.827,4.008-0.697c0.414-0.479,1.066-0.893,1.523-0.938
		c0.459-0.045,0.436-0.479,0.785-0.565c-0.219-0.065-0.305-0.327-0.633-0.294c0.818-0.282,0.576-0.938,0.98-1.252
		c-0.328,0.121-0.838-0.369-1.307,0.252c0.119-0.283-0.045-0.621-0.164-0.752c0.045,0.328-0.641,0.393-0.771,1.221
		c-0.074,0.463-0.328,0.435-0.369-0.283c-0.031-0.525-0.283-1.982-0.586-2.721c-0.305-0.741-0.375-1.757,0.039-1.909
		c-0.064-0.104-0.15-0.199-0.258-0.268c-0.504-0.33-1.393-0.196-1.568,0.393c-0.564,1.48,1.023,2.331,0.893,3.942
		c-0.238-1.197-2.178-1.504-2.154-2.68c-0.631,0.283-0.545,0.807-0.305,1.221c-0.393-0.61-1.285,0.393-2.047-0.435
		c-0.088,1.089,0.871,1.503,1.654,1.545c-0.393,0.696,0.131,1.286,0.652,1.479c0.021-1.221,2.521-0.721,2.549,1.373
		C54.518,34.776,52.602,34.928,51.576,34.363z"/>
	<path fill="#FFCE31" d="M55.084,36.083c3.049,0.652,1.961,3.072,1.068,3.049c-0.568-0.013-1.109-0.49-1.145-0.903
		c-0.652,0.348-0.479,1.034,0.021,1.307c-1.373-0.162-1.949,0.74-1.982,1.73c0.252-0.458,1.014-0.489,1.297-0.393
		c0.281,0.098,1.014,0.152,1.307-0.176c-0.242,0.207,0.152,0.687-0.188,1.056c1.145-0.044,1.645-1.11,1.449-1.579
		C58.395,38.828,58.111,36.628,55.084,36.083z"/>
	<polygon fill="#96877D" points="48.818,28.984 43.342,28.984 42.549,26.016 49.889,24.095 	"/>
	<rect x="43.029" y="28.656" fill="#FFCE31" width="5.871" height="1.342"/>
</g>
</svg>
