<?xml version="1.0" encoding="utf-8"?>
<!-- Generator: Adobe Illustrator 15.0.0, SVG Export Plug-In . SVG Version: 6.00 Build 0)  -->
<!DOCTYPE svg PUBLIC "-//W3C//DTD SVG 1.1//EN" "http://www.w3.org/Graphics/SVG/1.1/DTD/svg11.dtd">
<svg version="1.1" id="Layer_1" xmlns="http://www.w3.org/2000/svg" xmlns:xlink="http://www.w3.org/1999/xlink" x="0px" y="0px"
	 width="64px" height="64px" viewBox="0 0 64 64" enable-background="new 0 0 64 64" xml:space="preserve">
<g>
	<g>
		<path fill="#2A5F9E" d="M32,2C21.744,2,12.695,7.149,7.285,15h49.43C51.305,7.149,42.256,2,32,2z"/>
		<path fill="#2A5F9E" d="M32,62c10.256,0,19.305-5.149,24.715-13H7.285C12.695,56.851,21.744,62,32,62z"/>
		<path fill="#C94747" d="M59.045,19H4.955C3.062,22.934,2,27.343,2,32s1.062,9.066,2.955,13h54.09C60.938,41.066,62,36.657,62,32
			S60.938,22.934,59.045,19z"/>
		<path fill="#FFCE31" d="M4.955,45c0.674,1.398,1.457,2.732,2.33,4h49.43c0.873-1.268,1.656-2.602,2.33-4H4.955z"/>
		<path fill="#FFCE31" d="M59.045,19c-0.674-1.398-1.457-2.732-2.33-4H7.285c-0.873,1.268-1.656,2.602-2.33,4H59.045z"/>
	</g>
	<g>
		<g>
			<path fill="#FFCE31" d="M58.413,31.563H5.587c-0.259,0-0.468,0.197-0.468,0.438c0,0.242,0.209,0.438,0.468,0.438h52.826
				c0.258,0,0.468-0.196,0.468-0.438C58.881,31.76,58.671,31.563,58.413,31.563z"/>
			<path fill="#FFCE31" d="M12.44,28.494h38.82l1.79,0.584l2.688-0.876l-2.688-0.877l-1.793,0.584h-0.572c-0.001,0-0.002,0-0.003,0
				l0,0h-0.313c-0.001,0-0.003,0-0.004,0l0,0h-0.313c-0.001,0-0.002,0-0.004,0l0,0H12.44c-0.189,0-0.344,0.132-0.344,0.293
				S12.251,28.494,12.44,28.494z"/>
			<path fill="#FFCE31" d="M9.91,30.247h37.608v0.001c0.001,0,0.003-0.001,0.005-0.001h0.312v0.001c0.002,0,0.004-0.001,0.005-0.001
				h0.312v0.001c0.002,0,0.004-0.001,0.006-0.001h0.571l1.793,0.585l2.688-0.877l-2.688-0.876l-1.791,0.583H9.91
				c-0.189,0-0.343,0.132-0.343,0.293S9.721,30.247,9.91,30.247z"/>
		</g>
		<g>
			<path fill="#FFFFFF" d="M47.518,32.001c-3.163,2.921-7.38,8.766-15.813,8.766c-7.38,0-4.926-8.766-4.926-8.766
				s-2.454-8.767,4.926-8.767C40.137,23.234,44.354,29.078,47.518,32.001L47.518,32.001z"/>
			<path fill="#3E4347" d="M30.601,26.284c0.841,0.874,0.139,1.226,1.029,1.284c0.939,0.063,0.407,0.924,1.196,0.954
				c0.553,0.021-0.055,2.06,0.477,2.732c0.542,0.702,0.996,0.205,1.005,0.712c0.01,0.523-1.474,0.472-1.5,2.086
				c-0.043,0.93-1.252,0.99-1.31,1.588c-0.071,0.563,2.381,0.88,2.348,1.383s-2.647,0.424-2.762,0.998
				c-0.059,0.514,3.592,0.936,3.886,2.425c-0.545,0.163-2.095,0.319-3.266,0.32c-7.378,0.005-12.65-5.845-15.812-8.767
				c3.161-2.922,8.433-8.767,15.813-8.767C31.705,23.233,29.515,25.083,30.601,26.284L30.601,26.284z"/>
			<g>
				<rect x="21.795" y="28.883" fill="#FFFFFF" width="0.768" height="2.338"/>
				<rect x="21.795" y="32.78" fill="#FFFFFF" width="0.768" height="2.337"/>
				<rect x="23.328" y="28.883" fill="#FFFFFF" width="0.768" height="2.338"/>
				<rect x="23.328" y="32.78" fill="#FFFFFF" width="0.768" height="2.337"/>
				<rect x="24.862" y="28.883" fill="#FFFFFF" width="0.766" height="2.338"/>
				<rect x="24.862" y="32.78" fill="#FFFFFF" width="0.766" height="2.337"/>
				<rect x="26.395" y="28.883" fill="#FFFFFF" width="0.768" height="2.338"/>
				<rect x="26.395" y="32.78" fill="#FFFFFF" width="0.768" height="2.337"/>
				<rect x="27.928" y="28.883" fill="#FFFFFF" width="0.768" height="2.338"/>
				<rect x="27.928" y="32.78" fill="#FFFFFF" width="0.768" height="2.337"/>
				<rect x="29.461" y="28.883" fill="#FFFFFF" width="0.767" height="2.338"/>
				<rect x="29.461" y="32.78" fill="#FFFFFF" width="0.767" height="2.337"/>
			</g>
			<g>
				<rect x="33.392" y="28.883" fill="#3E4347" width="0.767" height="2.338"/>
				<rect x="33.392" y="32.78" fill="#3E4347" width="0.767" height="2.337"/>
				<rect x="34.925" y="28.883" fill="#3E4347" width="0.766" height="2.338"/>
				<rect x="34.925" y="32.78" fill="#3E4347" width="0.766" height="2.337"/>
				<rect x="36.458" y="28.883" fill="#3E4347" width="0.767" height="2.338"/>
				<rect x="36.458" y="32.78" fill="#3E4347" width="0.767" height="2.337"/>
				<rect x="37.991" y="28.883" fill="#3E4347" width="0.767" height="2.338"/>
				<rect x="37.991" y="32.78" fill="#3E4347" width="0.767" height="2.337"/>
				<rect x="39.524" y="28.883" fill="#3E4347" width="0.767" height="2.338"/>
				<rect x="39.524" y="32.78" fill="#3E4347" width="0.767" height="2.337"/>
				<rect x="41.058" y="28.883" fill="#3E4347" width="0.767" height="2.338"/>
				<rect x="41.058" y="32.78" fill="#3E4347" width="0.767" height="2.337"/>
			</g>
		</g>
		<polygon fill="#A70000" points="55.099,31.652 55.099,31.654 55.099,31.652 		"/>
		<g>
			<path fill="#428BC1" d="M29.248,25.841c-3.783-2.623-4.927,1.153-4.624,2.843c0.457-0.55,2.784,1.645,4.23,1.838
				C27.739,29.703,31.168,27.178,29.248,25.841C27.358,24.53,29.598,26.084,29.248,25.841z"/>
			<path fill="#428BC1" d="M56.476,36.287c2.792-3.527-1.308-4.537-3.134-4.237c0.601,0.416-1.746,2.592-1.938,3.93
				C52.277,34.939,55.05,38.078,56.476,36.287C57.87,34.526,56.216,36.612,56.476,36.287z"/>
			<path fill="#428BC1" d="M9.207,31.765c-4.644,0.825-2.387,4.144-0.829,5.073c-0.133-0.682,3.19-0.799,4.317-1.658
				C11.288,35.392,11.57,31.349,9.207,31.765C6.889,32.176,9.638,31.688,9.207,31.765z"/>
		</g>
	</g>
</g>
</svg>
