<?xml version="1.0" encoding="utf-8"?>
<!-- Generator: Adobe Illustrator 15.0.0, SVG Export Plug-In . SVG Version: 6.00 Build 0)  -->
<!DOCTYPE svg PUBLIC "-//W3C//DTD SVG 1.1//EN" "http://www.w3.org/Graphics/SVG/1.1/DTD/svg11.dtd">
<svg version="1.1" id="Layer_1" xmlns="http://www.w3.org/2000/svg" xmlns:xlink="http://www.w3.org/1999/xlink" x="0px" y="0px"
	 width="64px" height="64px" viewBox="0 0 64 64" enable-background="new 0 0 64 64" xml:space="preserve">
<g>
	<g>
		<path fill="#42ADE2" d="M32,2C19.32,2,8.502,9.88,4.111,21h55.777C55.498,9.88,44.68,2,32,2z"/>
		<path fill="#83BF4F" d="M32,62c12.68,0,23.498-7.88,27.889-19H4.111C8.502,54.12,19.32,62,32,62z"/>
		<path fill="#FFFFFF" d="M62,32c0-3.138-0.489-6.158-1.383-9H3.383C2.489,25.842,2,28.862,2,32s0.489,6.158,1.383,9h57.234
			C61.511,38.158,62,35.138,62,32z"/>
		<path fill="#C94747" d="M59.889,21c0.131,0.334,0.277,0.66,0.397,1c0.116,0.33,0.225,0.665,0.331,1"/>
		<g>
			<path fill="#C94747" d="M60.286,22c-0.12-0.34-0.267-0.666-0.397-1H4.111c-0.131,0.334-0.277,0.66-0.397,1
				c-0.117,0.33-0.225,0.665-0.331,1h57.234C60.511,22.665,60.402,22.33,60.286,22z"/>
			<path fill="#C94747" d="M3.714,42c0.12,0.34,0.266,0.666,0.397,1h55.777c0.131-0.334,0.277-0.66,0.397-1
				c0.116-0.33,0.225-0.665,0.331-1H3.383C3.489,41.335,3.597,41.67,3.714,42z"/>
		</g>
	</g>
	<path fill="#FFFFFF" d="M20.41,17.285c-2.361,0-4.275-1.918-4.275-4.285c0-2.366,1.914-4.285,4.275-4.285
		c0.563,0,1.098,0.111,1.59,0.309C21.161,8.384,20.12,8,18.984,8C16.232,8,14,10.238,14,13s2.232,5,4.984,5
		c1.136,0,2.177-0.384,3.016-1.023C21.508,17.174,20.973,17.285,20.41,17.285z"/>
	<g>
		<polygon fill="#FFFFFF" points="24.731,15.203 25.08,16.271 26.209,16.271 25.295,16.932 25.645,18 24.731,17.34 23.817,18 
			24.166,16.932 23.253,16.271 24.383,16.271 		"/>
		<polygon fill="#FFFFFF" points="28.992,15.203 29.341,16.271 30.469,16.271 29.557,16.932 29.905,18 28.992,17.34 28.079,18 
			28.428,16.932 27.514,16.271 28.643,16.271 		"/>
		<polygon fill="#FFFFFF" points="33.253,15.203 33.602,16.271 34.73,16.271 33.817,16.932 34.166,18 33.253,17.34 32.34,18 
			32.688,16.932 31.775,16.271 32.904,16.271 		"/>
		<polygon fill="#FFFFFF" points="37.514,15.203 37.863,16.271 38.992,16.271 38.078,16.932 38.427,18 37.514,17.34 36.601,18 
			36.949,16.932 36.037,16.271 37.165,16.271 		"/>
		<polygon fill="#FFFFFF" points="41.775,15.203 42.123,16.271 43.253,16.271 42.34,16.932 42.688,18 41.775,17.34 40.862,18 
			41.211,16.932 40.297,16.271 41.426,16.271 		"/>
		<polygon fill="#FFFFFF" points="28.992,11.602 29.341,12.67 30.469,12.67 29.557,13.33 29.905,14.398 28.992,13.738 
			28.079,14.398 28.428,13.33 27.514,12.67 28.643,12.67 		"/>
		<polygon fill="#FFFFFF" points="33.253,11.602 33.602,12.67 34.73,12.67 33.817,13.33 34.166,14.398 33.253,13.738 32.34,14.398 
			32.688,13.33 31.775,12.67 32.904,12.67 		"/>
		<polygon fill="#FFFFFF" points="37.514,11.602 37.863,12.67 38.992,12.67 38.078,13.33 38.427,14.398 37.514,13.738 
			36.601,14.398 36.949,13.33 36.037,12.67 37.165,12.67 		"/>
		<polygon fill="#FFFFFF" points="41.775,11.602 42.123,12.67 43.253,12.67 42.34,13.33 42.688,14.398 41.775,13.738 40.862,14.398 
			41.211,13.33 40.297,12.67 41.426,12.67 		"/>
		<polygon fill="#FFFFFF" points="33.253,8 33.602,9.067 34.73,9.067 33.817,9.729 34.166,10.795 33.253,10.136 32.34,10.795 
			32.688,9.729 31.775,9.067 32.904,9.067 		"/>
		<polygon fill="#FFFFFF" points="37.514,8 37.863,9.067 38.992,9.067 38.078,9.729 38.427,10.795 37.514,10.136 36.601,10.795 
			36.949,9.729 36.037,9.067 37.165,9.067 		"/>
		<polygon fill="#FFFFFF" points="41.775,8 42.123,9.067 43.253,9.067 42.34,9.729 42.688,10.795 41.775,10.136 40.862,10.795 
			41.211,9.729 40.297,9.067 41.426,9.067 		"/>
	</g>
</g>
</svg>
