<?xml version="1.0" encoding="utf-8"?>
<!-- Generator: Adobe Illustrator 15.0.0, SVG Export Plug-In . SVG Version: 6.00 Build 0)  -->
<!DOCTYPE svg PUBLIC "-//W3C//DTD SVG 1.1//EN" "http://www.w3.org/Graphics/SVG/1.1/DTD/svg11.dtd">
<svg version="1.1" id="Layer_1" xmlns="http://www.w3.org/2000/svg" xmlns:xlink="http://www.w3.org/1999/xlink" x="0px" y="0px"
	 width="64px" height="64px" viewBox="0 0 64 64" enable-background="new 0 0 64 64" xml:space="preserve">
<g>
	<path fill="#F9F9F9" d="M17,58V6C8.036,11.192,2,20.889,2,32S8.036,52.808,17,58z"/>
	<path fill="#699635" d="M32,2c-5.466,0-10.586,1.469-15,4.023v51.953C21.414,60.531,26.534,62,32,62c16.568,0,30-13.432,30-30
		S48.568,2,32,2z"/>
	<path fill="#FFFFFF" d="M38,38.127c-6.074,0-11-4.82-11-10.767c0-2.851,1.14-5.435,2.987-7.36C25.837,22.125,23,26.373,23,31.275
		C23,38.304,28.82,44,36,44s13-5.696,13-12.725c0-0.691-0.071-1.363-0.18-2.024C47.905,34.293,43.415,38.127,38,38.127z"/>
	<polygon fill="#FFFFFF" points="40,19.876 42.472,18 41.538,21.053 44,22.943 40.95,22.954 40,26 39.05,22.954 36,22.943 
		38.462,21.053 37.528,18 	"/>
</g>
</svg>
