<?xml version="1.0" encoding="utf-8"?>
<!-- Generator: Adobe Illustrator 15.0.0, SVG Export Plug-In . SVG Version: 6.00 Build 0)  -->
<!DOCTYPE svg PUBLIC "-//W3C//DTD SVG 1.1//EN" "http://www.w3.org/Graphics/SVG/1.1/DTD/svg11.dtd">
<svg version="1.1" id="Layer_1" xmlns="http://www.w3.org/2000/svg" xmlns:xlink="http://www.w3.org/1999/xlink" x="0px" y="0px"
	 width="64px" height="64px" viewBox="0 0 64 64" enable-background="new 0 0 64 64" xml:space="preserve">
<g>
	<g>
		<path fill="#3E4347" d="M32,2C19.32,2,8.502,9.879,4.112,21h55.776C55.498,9.879,44.68,2,32,2z"/>
		<path fill="#699635" d="M32,62c12.68,0,23.498-7.881,27.889-19H4.112C8.502,54.119,19.32,62,32,62z"/>
		<path fill="#ED4C5C" d="M62,32c0-3.139-0.489-6.158-1.383-9H3.384C2.49,25.842,2,28.861,2,32c0,3.137,0.49,6.158,1.384,9h57.233
			C61.511,38.158,62,35.137,62,32z"/>
		<g>
			<path fill="#FFFFFF" d="M60.286,22c-0.12-0.34-0.266-0.668-0.397-1H4.112c-0.132,0.332-0.278,0.66-0.398,1
				c-0.116,0.33-0.225,0.664-0.33,1h57.233C60.512,22.664,60.403,22.33,60.286,22z"/>
			<path fill="#FFFFFF" d="M3.714,42c0.12,0.34,0.267,0.666,0.398,1h55.776c0.132-0.334,0.277-0.66,0.397-1
				c0.117-0.33,0.226-0.664,0.331-1H3.384C3.489,41.336,3.598,41.67,3.714,42z"/>
		</g>
	</g>
	<g>
		<g>
			<path fill="#2A5F9E" d="M10.787,10.787C5.357,16.215,2,23.715,2,32c0,8.283,3.357,15.783,8.787,21.213L32,32L10.787,10.787z"/>
			<polygon fill="#FFCE31" points="16.782,31.008 19.976,26.803 14.779,28.389 11.467,24.197 11.467,29.393 6.358,31.008 
				11.467,32.578 11.467,37.814 14.779,33.625 19.976,35.209 			"/>
		</g>
	</g>
</g>
</svg>
