<?xml version="1.0" encoding="utf-8"?>
<!-- Generator: Adobe Illustrator 15.0.0, SVG Export Plug-In . SVG Version: 6.00 Build 0)  -->
<!DOCTYPE svg PUBLIC "-//W3C//DTD SVG 1.1//EN" "http://www.w3.org/Graphics/SVG/1.1/DTD/svg11.dtd">
<svg version="1.1" id="Layer_1" xmlns="http://www.w3.org/2000/svg" xmlns:xlink="http://www.w3.org/1999/xlink" x="0px" y="0px"
	 width="64px" height="64px" viewBox="0 0 64 64" enable-background="new 0 0 64 64" xml:space="preserve">
<g>
	<g>
		<g>
			<path fill="#ED4C5C" d="M56,14H32v6h27.496C58.561,17.859,57.387,15.846,56,14z"/>
			<path fill="#F9F9F9" d="M61.398,38C61.793,36.061,62,34.055,62,32H2c0,2.055,0.207,4.061,0.602,6H61.398z"/>
		</g>
		<g>
			<path fill="#ED4C5C" d="M32,2v6h18C44.986,4.232,38.754,2,32,2z"/>
			<path fill="#F9F9F9" d="M32,14h24c-1.705-2.271-3.729-4.293-6-6H32V14z"/>
			<path fill="#F9F9F9" d="M59.496,20H32v6h29.398C60.975,23.912,60.33,21.906,59.496,20z"/>
			<path fill="#ED4C5C" d="M32,26v6h30c0-2.055-0.207-4.061-0.602-6H32z"/>
			<path fill="#ED4C5C" d="M4.504,44h54.992c0.834-1.906,1.479-3.912,1.902-6H2.602C3.025,40.088,3.67,42.094,4.504,44z"/>
			<path fill="#F9F9F9" d="M8,50h48c1.387-1.846,2.561-3.859,3.496-6H4.504C5.439,46.141,6.613,48.154,8,50z"/>
			<path fill="#ED4C5C" d="M8,50c1.707,2.271,3.729,4.293,6,6h36c2.271-1.707,4.295-3.729,6-6H8z"/>
			<path fill="#F9F9F9" d="M14,56c5.014,3.766,11.246,6,18,6s12.986-2.234,18-6H14z"/>
		</g>
		<path fill="#2A5F9E" d="M32,2C15.432,2,2,15.432,2,32h30V2z"/>
	</g>
	<polygon fill="#FFFFFF" points="20,22.244 25.563,26 23.459,19.893 29,16.109 22.141,16.092 20,10 17.859,16.092 11,16.109 
		16.537,19.893 14.438,26 	"/>
</g>
</svg>
