<?xml version="1.0" encoding="utf-8"?>
<!-- Generator: Adobe Illustrator 15.0.0, SVG Export Plug-In . SVG Version: 6.00 Build 0)  -->
<!DOCTYPE svg PUBLIC "-//W3C//DTD SVG 1.1//EN" "http://www.w3.org/Graphics/SVG/1.1/DTD/svg11.dtd">
<svg version="1.1" id="Layer_1" xmlns="http://www.w3.org/2000/svg" xmlns:xlink="http://www.w3.org/1999/xlink" x="0px" y="0px"
	 width="64px" height="64px" viewBox="0 0 64 64" enable-background="new 0 0 64 64" xml:space="preserve">
<g>
	<path fill="#3E4347" d="M2,32c0,5.885,1.701,11.369,4.628,16h50.744C60.299,43.369,62,37.885,62,32s-1.701-11.367-4.628-16H6.628
		C3.701,20.633,2,26.115,2,32z"/>
	<g>
		<path fill="#C94747" d="M57.372,16C52.057,7.59,42.684,2,32,2S11.943,7.59,6.628,16H57.372z"/>
		<path fill="#83BF4F" d="M6.628,48C11.943,56.41,21.316,62,32,62s20.057-5.59,25.372-14H6.628z"/>
	</g>
	<polygon fill="#FFFFFF" points="38.231,36.666 38.239,33.096 34.667,32 38.239,30.904 38.231,27.334 40.433,30.227 44,29.115 
		41.787,32 44,34.885 40.433,33.773 	"/>
	<path fill="#FFFFFF" d="M32.833,40c-4.368,0-7.91-3.582-7.91-8s3.542-8,7.91-8c1.673,0,3.223,0.527,4.5,1.422
		C35.521,23.326,32.857,22,29.887,22C24.426,22,20,26.477,20,32s4.426,10,9.887,10c2.971,0,5.634-1.324,7.446-3.422
		C36.056,39.475,34.506,40,32.833,40z"/>
</g>
</svg>
