<?xml version="1.0" encoding="utf-8"?>
<!-- Generator: Adobe Illustrator 15.0.0, SVG Export Plug-In . SVG Version: 6.00 Build 0)  -->
<!DOCTYPE svg PUBLIC "-//W3C//DTD SVG 1.1//EN" "http://www.w3.org/Graphics/SVG/1.1/DTD/svg11.dtd">
<svg version="1.1" id="Layer_1" xmlns="http://www.w3.org/2000/svg" xmlns:xlink="http://www.w3.org/1999/xlink" x="0px" y="0px"
	 width="64px" height="64px" viewBox="0 0 64 64" enable-background="new 0 0 64 64" xml:space="preserve">
<g>
	<g>
		<path fill="#ED4C5C" d="M60,42c-5.523,0-10-4.477-10-10H10.787v21.213l-0.001-0.002C16.214,58.641,23.715,62,32,62
			c13.066,0,24.176-8.357,28.291-20.016C60.193,41.988,60.098,42,60,42z"/>
		<path fill="#699635" d="M60,22c0.098,0,0.193,0.012,0.291,0.014C56.176,10.355,45.066,2,32,2c-8.285,0-15.786,3.357-21.215,8.787
			h0.001V32H50C50,26.477,54.477,22,60,22z"/>
		<path fill="#F9F9F9" d="M60.285,22H10.787v20h49.499C61.392,38.871,62,35.508,62,32S61.392,25.129,60.285,22z"/>
	</g>
	<path fill="#3E4347" d="M10.787,10.787C5.357,16.215,2,23.715,2,32c0,8.283,3.358,15.783,8.787,21.213L22,42V22L10.787,10.787z"/>
</g>
</svg>
