<?xml version="1.0" encoding="utf-8"?>
<!-- Generator: Adobe Illustrator 15.0.0, SVG Export Plug-In . SVG Version: 6.00 Build 0)  -->
<!DOCTYPE svg PUBLIC "-//W3C//DTD SVG 1.1//EN" "http://www.w3.org/Graphics/SVG/1.1/DTD/svg11.dtd">
<svg version="1.1" id="Layer_1" xmlns="http://www.w3.org/2000/svg" xmlns:xlink="http://www.w3.org/1999/xlink" x="0px" y="0px"
	 width="64px" height="64px" viewBox="0 0 64 64" enable-background="new 0 0 64 64" xml:space="preserve">
<g>
	<path fill="#F9F9F9" d="M26,2.602C12.307,5.381,2,17.486,2,32h24V2.602z"/>
	<path fill="#C94747" d="M32,2c-2.055,0-4.062,0.207-6,0.602V32H2c0,16.568,13.432,30,30,30s30-13.432,30-30S48.568,2,32,2z"/>
	<polygon fill="#C94747" points="22,18 17,18 17,13 13,13 13,18 8,18 8,22 13,22 13,27 17,27 17,22 22,22 	"/>
</g>
</svg>
