<?xml version="1.0" encoding="utf-8"?>
<!-- Generator: Adobe Illustrator 15.0.0, SVG Export Plug-In . SVG Version: 6.00 Build 0)  -->
<!DOCTYPE svg PUBLIC "-//W3C//DTD SVG 1.1//EN" "http://www.w3.org/Graphics/SVG/1.1/DTD/svg11.dtd">
<svg version="1.1" id="Layer_1" xmlns="http://www.w3.org/2000/svg" xmlns:xlink="http://www.w3.org/1999/xlink" x="0px" y="0px"
	 width="64px" height="64px" viewBox="0 0 64 64" enable-background="new 0 0 64 64" xml:space="preserve">
<g>
	<path fill="#FFFFFF" d="M25.789,9.307h-0.005h-0.016l-6.878,0.006L15.38,9.316l-0.002-2.192V7.027
		c-0.785,0.523-1.543,1.083-2.273,1.676c-1.716,1.393-3.271,2.974-4.642,4.708l2.763-0.002l0.003,2.129l0.007,6.041H3.862
		C2.66,24.825,2,28.334,2,32c0,3.512,0.609,6.881,1.719,10.012h22.044V21.578h-10.37l-0.006-5.974l-0.003-2.2l3.525-0.003
		l6.859-0.006h0.016h0.008L25.789,9.307z"/>
	<path fill="#0091C8" d="M32,2c-2.132,0-4.21,0.226-6.216,0.648v58.704C27.79,61.773,29.868,62,32,62c16.568,0,30-13.432,30-30
		C62,15.431,48.568,2,32,2z"/>
	<path fill="#FFCE31" d="M61.467,32.35c0.033-0.158,0.259-0.676,0.512-1.205c-0.009-0.311-0.018-0.619-0.035-0.928
		c-0.205,0.363-0.39,0.717-0.438,0.873c-0.229,0.648-0.357,0.203-0.434-1.551c-0.063-1.375,0.009-2.759,0.199-4.107
		c-0.742-3.321-2.032-6.435-3.774-9.24c-0.411,0.135-0.726,0.23-0.736,0.208c-0.017-0.008,0.164-0.272,0.445-0.663
		c-0.085-0.13-0.165-0.263-0.251-0.391c-0.598,0.752-1.203,1.469-1.314,1.512c-0.152,0.063-0.903,0.331-1.653,0.61l-1.386,0.496
		l1.055-0.991c0.585-0.534,1.692-1.564,2.455-2.29l0.23-0.211c-0.083-0.114-0.162-0.232-0.246-0.346l-1.46,1.371
		c-1.628,1.526-3.154,2.875-3.384,3.014c-0.229,0.14-0.458,0.343-0.521,0.458c-0.141,0.254,0.024,0.712,0.292,0.814
		c0.166,0.063,0.063,0.28-0.51,1.068c-0.826,1.144-1.462,2.365-1.958,3.726l-0.356,0.954l-0.204-0.7
		c-0.331-1.119-0.584-2.747-0.584-3.816c0-0.979,0-0.979,0.66-1.92c0.802-1.145,2.685-3.103,3.729-3.892
		c0.42-0.318,1.132-0.75,1.59-0.966c1.017-0.471,1.271-0.688,1.271-1.043c0-0.42-0.305-0.624-0.789-0.522
		c-0.278,0.051-1.412-0.127-3.345-0.521c-1.604-0.318-2.939-0.598-2.952-0.598c0-0.014,0.128-0.56,0.306-1.221
		c0.204-0.775,0.42-1.322,0.623-1.539c0.382-0.407,0.395-0.877,0.014-1.233c-0.637-0.598-1.591-0.076-1.45,0.789l0.063,0.433
		L46.29,8.871c-0.458,0.051-1.552,0.28-2.417,0.521c-1.755,0.484-3.129,0.56-4.032,0.242c-0.28-0.102-0.522-0.191-0.535-0.191
		c-0.025,0-0.037,0.14-0.037,0.318c0,0.547,0.342,1.03,0.902,1.31l0.534,0.267l-0.355,0.09c-0.191,0.05-0.764,0.05-1.285,0.012
		s-0.941-0.038-0.941,0c0,0.267,0.623,0.979,1.03,1.183c0.891,0.458,2.748,0.293,4.809-0.432c1.03-0.356,2.366-0.458,2.276-0.178
		c-0.05,0.152-1.844,1.5-4.922,3.701c-1.553,1.106-1.794,1.411-1.553,1.946c0.128,0.292,0.089,0.407-0.292,1.043
		c-0.827,1.399-1.604,3.802-1.604,5.023c0,0.61-0.038,0.661-0.878,1.551c-1.718,1.807-5.075,6.016-5.801,7.273l-0.229,0.396
		l-0.241-0.307c-0.484-0.609-1.502-0.268-1.502,0.51c0,0.533,0.33,0.84,0.929,0.84c0.331,0,0.993,0.252,2.138,0.838l1.666,0.828
		l-0.318,0.342c-0.61,0.662-0.737,1.184-0.42,1.629c0.153,0.203,0.344,0.242,1.057,0.242c0.764,0,1.018,0.063,1.896,0.494
		c0.864,0.434,1.196,0.701,2.468,2.023c3.751,3.92,4.806,4.875,6.938,6.215c0.607,0.275,1.102,0.455,1.334,0.516
		c0.199-0.111,0.605-0.418,0.979-0.832c1.746-2.014,3.122-1.506,6.321,0.348c1.569,0.93,2.165,1.107,2.386,1.125l0.046-0.17
		c0.402-1.783,0.956-2.426,2.394-2.559c0.831-1.721,1.501-3.535,1.994-5.42c-0.758,0.033-1.676,0.045-2.254,0.014l-1.297-0.076
		l0.076-0.395c0.114-0.609,0.508-1.322,1.082-1.934c0.278-0.305,0.533-0.559,0.559-0.559c0.038,0,0.445,0.23,0.916,0.521
		c0.411,0.252,0.86,0.551,1.288,0.848c0.23-1.127,0.389-2.279,0.488-3.449C61.596,33.541,61.409,32.596,61.467,32.35z M46.837,14.29
		c0.279-1.17,0.61-2.302,0.674-2.302c0.052,0,1.082,0.204,2.315,0.458c2.672,0.547,2.723,0.56,2.227,0.7
		c-0.204,0.063-1.488,0.419-2.838,0.801l-2.467,0.687L46.837,14.29z M36.112,35.197l-0.406-0.037
		c-0.534-0.064-4.326-1.807-4.326-1.998c0-0.482,3.626-5.15,5.662-7.3l0.763-0.801l0.038,0.42c0.025,0.242,0.128,0.788,0.216,1.22
		l0.18,0.776l-1.057,3.866L36.112,35.197z M40.069,37.168c-0.115,0-0.789-0.342-1.501-0.762c-0.7-0.42-1.45-0.814-1.666-0.891
		l-0.382-0.139l0.954-3.486c0.521-1.92,0.991-3.498,1.03-3.498c0.051,0,0.203,0.306,0.355,0.675c0.229,0.533,0.28,0.914,0.28,1.971
		v1.297h0.42h0.407l0.024,1.119c0.014,0.609,0.141,1.564,0.281,2.111C40.526,36.648,40.477,37.168,40.069,37.168z M41.71,27.885
		l-0.355,1.208l-0.866,0.037c-0.482,0.025-0.928-0.012-1.004-0.088c-0.179-0.179,0.014-1.095,0.33-1.565
		c0.331-0.496,1.247-0.992,1.832-0.992c0.229,0,0.42,0.038,0.42,0.089C42.066,26.638,41.901,27.223,41.71,27.885z M44.089,29.156
		h-1.158l0.077-0.355c0.051-0.191,0.179-0.649,0.28-1.018l0.19-0.662l0.445,0.344c0.255,0.19,0.648,0.598,0.891,0.903
		c0.242,0.317,0.433,0.622,0.433,0.674C45.247,29.105,44.725,29.156,44.089,29.156z M44.382,15.281
		c-0.534,0.14-1.374,0.381-1.857,0.521c-0.483,0.127-0.84,0.216-0.814,0.178c0.103-0.089,4.224-3.103,4.262-3.103l-0.025,0.152
		c-0.025,0.089-0.166,0.572-0.318,1.068l-0.254,0.916L44.382,15.281z M49.241,37.066c-1.057-0.75-2.163-2.225-2.773-3.688
		c-0.382-0.904-0.407-1.043-0.14-1.043c0.165,0,0.19-0.268,0.19-1.59v-1.59h-0.382c-0.33,0-0.394-0.063-0.534-0.546
		c-0.102-0.318-0.164-1.222-0.164-2.251c0-1.882,0.178-2.67,0.99-4.49c0.434-0.966,0.573-0.929,0.586,0.14
		c0.014,0.737,0.33,2.2,0.712,3.332c0.255,0.75,0.294,1.018,0.191,1.45c-0.063,0.279-0.178,1.145-0.255,1.895
		c-0.241,2.429,0.153,4.744,1.197,6.892c0.317,0.625,0.597,1.285,0.648,1.451l0.088,0.305L49.241,37.066z M52.473,34.523
		c-0.038,0.09-0.306,0.902-0.611,1.818c-0.292,0.904-0.585,1.705-0.637,1.756c-0.05,0.064-0.317,0-0.597-0.141
		c-0.42-0.215-0.521-0.344-0.661-0.902c-0.152-0.623-0.152-0.674,0.164-1.221c0.408-0.688,1.006-1.158,1.68-1.324
		C52.498,34.346,52.536,34.346,52.473,34.523z M56.021,39.408c-0.368-0.039-1.246-0.205-1.946-0.344l-1.298-0.268l0.306-0.979
		c0.165-0.535,0.458-1.463,0.649-2.088c0.33-1.105,0.381-1.17,0.891-1.029c0.228,0.064,0.317,0.256,0.496,1.121
		c0.151,0.66,0.47,1.5,0.902,2.352l0.661,1.311L56.021,39.408z M58.171,37.066c-0.33,0.369-0.686,0.93-0.8,1.248
		c-0.116,0.316-0.242,0.621-0.293,0.674c-0.229,0.254-1.654-3.053-1.654-3.828c0-0.268,0.471-0.115,2.01,0.609l1.323,0.637
		L58.171,37.066z"/>
	<path fill="#3E4347" d="M56.636,47.588l-0.046,0.17c-0.221-0.018-0.816-0.195-2.386-1.125c-3.199-1.854-4.575-2.361-6.321-0.348
		c-0.373,0.414-0.779,0.721-0.979,0.832c-0.232-0.061-0.727-0.24-1.334-0.516c-0.23-0.104-0.474-0.219-0.729-0.35
		c-1.921-0.994-3.314-1.297-4.388-0.953c-0.656,0.209-1.161,0.648-1.49,1.287c-0.234,0.432-0.429,0.67-0.577,0.709
		c-0.524,0.139-2.182-0.908-2.806-1.301c-2.276-1.438-3.735-1.467-5.784-0.121c-0.446,0.297-0.801,0.525-0.968,0.549
		c-0.144,0.02-0.467-0.088-0.935-0.25c-0.529-0.191-0.872-0.396-0.996-0.494c-0.187-0.357-0.601-0.553-1.009-0.451l-0.12,0.057
		l-0.006,0.004v0.996v0.76l0.006,0.004c0.348,0.293,0.846,0.566,1.526,0.813c1.6,0.557,1.991,0.502,3.487-0.49
		c1.353-0.891,2.059-0.986,3.843,0.139c1.949,1.229,3.135,1.801,4.214,1.52c0.864-0.227,1.361-0.967,1.706-1.604
		c0.15-0.293,0.321-0.379,0.453-0.42c0.324-0.102,1.146-0.133,3.022,0.84c0.216,0.109,2.136,1.082,2.946,1.082
		c0.495,0,1.053-0.361,1.497-0.73c0.367-0.305,0.658-0.613,0.761-0.727c0.789-0.91,0.954-1.1,4.074,0.709
		c1.296,0.768,2.261,1.234,3.054,1.332c0.302-0.42,0.593-0.848,0.873-1.281l0.164-0.256c0.403-0.641,0.784-1.295,1.14-1.967
		l0.086-0.168c0.14-0.268,0.282-0.535,0.414-0.809C57.592,45.162,57.038,45.805,56.636,47.588z"/>
	<polygon fill="#3E4347" points="25.543,33.955 25.763,34.184 25.769,34.189 25.769,33.721 25.763,33.725 	"/>
	<polygon fill="#3E4347" points="23.095,33.955 24.396,34.301 24.727,33.955 24.396,33.609 	"/>
	<polygon fill="#3E4347" points="24.789,33.281 25.135,33.613 25.481,33.281 25.135,31.982 	"/>
	<polygon fill="#3E4347" points="25.769,37.201 25.769,35.479 25.763,35.467 25.233,34.273 24.995,34.273 23.737,37.201 
		24.539,37.201 24.995,37.875 25.233,37.875 25.665,37.201 25.763,37.201 	"/>
	<polygon fill="#3E4347" points="17.455,33.955 17.786,34.301 19.086,33.955 17.786,33.609 	"/>
	<polygon fill="#3E4347" points="15.008,33.955 16.308,34.301 16.639,33.955 16.308,33.609 	"/>
	<polygon fill="#3E4347" points="16.7,33.281 17.047,33.613 17.394,33.281 17.047,31.982 	"/>
	<polygon fill="#3E4347" points="16.908,34.273 15.649,37.201 16.451,37.201 16.908,37.875 17.146,37.875 17.578,37.201 
		18.445,37.201 17.146,34.273 	"/>
	<polygon fill="#3E4347" points="9.362,33.955 9.693,34.301 10.994,33.955 9.693,33.609 	"/>
	<polygon fill="#3E4347" points="8.546,33.955 8.215,33.609 6.915,33.955 8.215,34.301 	"/>
	<polygon fill="#3E4347" points="8.607,33.281 8.954,33.613 9.301,33.281 8.954,31.982 	"/>
	<polygon fill="#3E4347" points="8.815,34.273 7.556,37.201 8.357,37.201 8.815,37.875 9.054,37.875 9.484,37.201 10.353,37.201 
		9.054,34.273 	"/>
	<polygon fill="#3E4347" points="24.995,23.688 25.233,23.688 25.665,23.013 25.763,23.013 25.769,23.013 25.769,21.578 
		25.763,21.578 24.354,21.578 23.737,23.013 24.539,23.013 	"/>
	<polygon fill="#3E4347" points="16.908,23.688 17.146,23.688 17.578,23.013 18.445,23.013 17.809,21.578 16.266,21.578 
		15.649,23.013 16.451,23.013 	"/>
	<polygon fill="#3E4347" points="8.815,23.688 9.054,23.688 9.484,23.013 10.353,23.013 9.716,21.578 8.173,21.578 7.556,23.013 
		8.357,23.013 	"/>
	<polygon fill="#3E4347" points="6.947,26.983 5.647,26.636 5.316,26.983 5.647,27.33 	"/>
	<polygon fill="#3E4347" points="4.5,26.983 4.169,26.636 2.869,26.983 4.169,27.33 	"/>
	<polygon fill="#3E4347" points="5.254,26.311 4.907,25.01 4.562,26.311 4.907,26.641 	"/>
	<polygon fill="#3E4347" points="4.769,27.301 3.51,30.229 4.311,30.229 4.769,30.904 5.007,30.904 5.438,30.229 6.306,30.229 
		5.007,27.301 	"/>
	<polygon fill="#3E4347" points="15.04,26.983 13.74,26.636 13.408,26.983 13.74,27.33 	"/>
	<polygon fill="#3E4347" points="12.592,26.983 12.262,26.636 10.961,26.983 12.262,27.33 	"/>
	<polygon fill="#3E4347" points="13.348,26.311 13.001,25.01 12.654,26.311 13.001,26.641 	"/>
	<polygon fill="#3E4347" points="12.862,27.301 11.603,30.229 12.404,30.229 12.862,30.904 13.101,30.904 13.531,30.229 
		14.398,30.229 13.101,27.301 	"/>
	<polygon fill="#3E4347" points="23.133,26.983 21.833,26.636 21.502,26.983 21.833,27.33 	"/>
	<polygon fill="#3E4347" points="20.686,26.983 20.354,26.636 19.054,26.983 20.354,27.33 	"/>
	<polygon fill="#3E4347" points="21.44,26.311 21.094,25.01 20.747,26.311 21.094,26.641 	"/>
	<polygon fill="#3E4347" points="20.954,27.301 19.696,30.229 20.497,30.229 20.954,30.904 21.192,30.904 21.624,30.229 
		22.492,30.229 21.192,27.301 	"/>
	<polygon fill="#3E4347" points="13.408,41.486 13.74,41.832 15.04,41.486 13.74,41.141 	"/>
	<polygon fill="#3E4347" points="10.961,41.486 12.262,41.832 12.592,41.486 12.262,41.141 	"/>
	<polygon fill="#3E4347" points="12.654,40.814 13.001,41.145 13.348,40.814 13.001,39.514 	"/>
	<polygon fill="#3E4347" points="21.502,41.486 21.833,41.832 23.133,41.486 21.833,41.141 	"/>
	<polygon fill="#3E4347" points="19.054,41.486 20.354,41.832 20.686,41.486 20.354,41.141 	"/>
	<polygon fill="#3E4347" points="20.747,40.814 21.094,41.145 21.44,40.814 21.094,39.514 	"/>
	<polygon fill="#ED4C5C" points="22.724,21.565 15.387,15.604 15.393,21.578 16.266,21.578 17.809,21.578 24.354,21.578 
		25.763,21.578 25.769,21.578 24.356,21.572 	"/>
	<polygon fill="#ED4C5C" points="18.891,9.313 25.769,9.307 25.784,9.307 25.784,3.713 25.769,3.726 	"/>
	<polygon fill="#ED4C5C" points="18.909,13.402 25.769,18.954 25.777,18.961 25.784,20.427 25.784,13.396 25.769,13.396 	"/>
	<polygon fill="#ED4C5C" points="3.896,21.495 3.862,21.578 8.173,21.578 9.716,21.578 11.235,21.578 11.229,15.538 	"/>
	<polygon fill="#DC241F" points="25.78,2.649 25.784,3.109 25.784,2.648 	"/>
	<polygon fill="#699635" points="25.784,20.427 25.777,18.961 25.769,18.954 18.909,13.402 15.384,13.405 15.387,15.604 
		22.724,21.565 24.356,21.572 25.769,21.578 25.784,21.578 25.789,21.578 25.788,21.335 	"/>
	<path fill="#699635" d="M25.784,3.109L25.78,2.649l-0.012,0.002c-3.542,0.749-6.851,2.125-9.811,4.003
		c-0.194,0.123-0.39,0.245-0.58,0.372v0.098l0.002,2.192l3.511-0.003l6.878-5.588l0.016-0.013l0.005-0.004L25.784,3.109z"/>
	<path fill="#699635" d="M8.463,13.411c-1.915,2.421-3.467,5.142-4.567,8.084l7.333-5.958l-0.003-2.129L8.463,13.411z"/>
	<path fill="#FFFFFF" d="M53.299,48.178c-3.12-1.809-3.285-1.619-4.074-0.709c-0.103,0.113-0.394,0.422-0.761,0.727
		c-0.444,0.369-1.002,0.73-1.497,0.73c-0.811,0-2.73-0.973-2.946-1.082c-1.877-0.973-2.698-0.941-3.022-0.84
		c-0.132,0.041-0.303,0.127-0.453,0.42c-0.345,0.637-0.842,1.377-1.706,1.604c-1.079,0.281-2.265-0.291-4.214-1.52
		c-1.784-1.125-2.49-1.029-3.843-0.139c-1.496,0.992-1.888,1.047-3.487,0.49c-0.681-0.246-1.179-0.52-1.526-0.813l-0.006-0.004
		v0.547l0.006,0.004c0.322,0.396,0.918,0.76,1.802,1.078c1.601,0.559,1.992,0.504,3.488-0.49c1.352-0.889,2.059-0.986,3.843,0.141
		c1.948,1.229,3.136,1.801,4.214,1.52c0.864-0.227,1.361-0.967,1.706-1.604c0.15-0.293,0.321-0.379,0.453-0.422
		c0.323-0.104,1.145-0.131,3.022,0.84c0.216,0.111,2.135,1.084,2.946,1.084c0.707,0,1.546-0.734,1.988-1.176
		c0.122-0.121,0.22-0.227,0.27-0.281c0.789-0.91,0.953-1.1,4.074,0.709c0.92,0.543,1.665,0.928,2.312,1.152
		c0.159-0.209,0.313-0.422,0.466-0.635C55.56,49.412,54.595,48.945,53.299,48.178z"/>
	<path fill="#FFFFFF" d="M32.67,51.689c0.847-0.111,1.411,0.029,2.541,0.668c2.164,1.25,3.073,1.334,4.517,0.443
		c1.725-1.027,2.415-1.223,3.764-0.943c1.035,0.193,1.129,0.193,0.722-0.168c-0.879-0.805-2.604-0.805-4.141,0
		c-1.757,0.891-2.604,0.918-4.579,0.029c-1.789-0.807-2.446-0.863-3.326-0.279C31.604,51.801,31.666,51.828,32.67,51.689z"/>
	<path fill="#FFFFFF" d="M49.891,52.496c-1.443-0.334-1.569-0.111-0.314,0.557c1.028,0.537,1.956,0.596,3.641,0.156
		c0.424-0.424,0.831-0.865,1.229-1.314C52.395,52.564,50.977,52.76,49.891,52.496z"/>
	<path fill="#FFFFFF" d="M47.443,55.887c-1.474,1.195-2.415,1.225-3.952,0.141c-1.412-1-2.353-1.029-4.234-0.141
		c-1.066,0.502-1.286,0.695-0.879,0.834c0.283,0.111,0.941-0.027,1.475-0.25c1.381-0.639,2.07-0.557,3.827,0.527
		c0.877,0.529,1.726,0.975,1.851,0.975s0.814-0.389,1.537-0.834c1.415-0.914,2.104-1.256,2.984-1.18
		c0.256-0.193,0.508-0.393,0.758-0.596C49.182,54.738,48.734,54.842,47.443,55.887z"/>
	<path fill="#FFFFFF" d="M41.609,59.25c-1.192-0.916-2.415-0.916-4.234,0c-1.663,0.834-2.228,0.75-4.298-0.723
		c-1.725-1.193-1.787-1.223-2.76-0.807c-0.376,0.168-0.848,0.529-1.035,0.834c-0.377,0.5-0.346,0.529,0.22,0.279
		c0.783-0.389,2.132-0.389,2.384,0C32.011,59,32.67,59.5,33.36,59.945c1.631,1.029,2.979,1.057,4.642,0.084
		c1.255-0.723,2.103-0.779,3.921-0.25C42.361,59.916,42.3,59.75,41.609,59.25z"/>
	<path fill="#ED4C5C" d="M20.59,59.465c-0.289-0.102-0.167-0.387,0.033-0.447c0.298-0.094,0.621,0.193,1.376,0.154
		c0.187-0.01,0.439-0.041,0.439-0.42c0-0.549-0.426-0.945-1.779-0.727c-1.14,0.178-1.951,0.162-2.579,0.064
		c-0.02,0.197-0.016,0.355,0.012,0.49c0.757,0.396,1.53,0.766,2.323,1.098C20.417,59.602,20.465,59.521,20.59,59.465z"/>
	<path fill="#ED4C5C" d="M3.719,42.012c0.651,1.842,1.478,3.6,2.46,5.256c0.506,0.482,3.204,3.521,2.547,3.656
		c1.659,2.037,3.581,3.848,5.712,5.391c0.232-0.043,7.293,3.604,7.053,3.787c1.379,0.518,2.806,0.934,4.272,1.244V47.59v-0.547
		v-0.76v-0.996v-3.275H3.719z"/>
	<g>
		<path fill="#FFE62E" d="M23.499,48.553c-0.092-0.229-0.155-0.316-0.488-0.215c-0.809,0.25-3.025,0.107-3.73-0.32
			c1.059,0.385,2.412-0.43,2.412-1.105c0-0.75-1.049-1.365-3.17-0.957c-2.124,0.406-4.71,0.234-4.71-0.385
			c0-0.623,1.854-0.709,2.806-0.578c0.951,0.127,1.634,0.215,3.416-0.344c-0.439,0.148-1.855,0.191-2.977-0.088
			c-1.12-0.277-3.881-0.277-3.904,1.031c-0.024,1.307,2.936,1.188,5.491,0.855c1.487-0.191,2.268-0.063,2.268,0.367
			c0,0.408-1.364,0.58-2.415,0.471c-1.05-0.105-2.134-0.119-3.366,0.238c-2.223,0.646-4.779,0.17-5.449-0.768
			c0.047-0.096,0.08-0.215,0.08-0.404v-0.014c0.158-0.145,0.309-0.418,0.374-0.619c0.149-0.467-0.057-0.48-0.664-0.266
			c-0.214-0.184-0.564-0.295-1.157-0.295c-0.594,0-0.948,0.111-1.156,0.295c-0.616-0.215-0.821-0.201-0.67,0.266
			c0.064,0.203,0.221,0.486,0.379,0.621v0.012c0.004,0.723,0.896,1.785,0.879,1.826c-0.499-0.041-1.062-0.428-1.567-0.91
			c0.455,0.77,0.945,1.514,1.465,2.236c0.114,0.158,0.225,0.32,0.342,0.477c0.239,0.32,0.488,0.633,0.74,0.943
			c0.657-0.135,1.326-0.41,1.961-0.912c0.389,0.01,3.106-0.076,4.161-0.646c0.701,0.707,0.813,0.627,1.427,0.732
			c0.637,0.107,1.024,0.107,0.602,0.42c-0.146,0.109-0.757,0.057-1.234,0.074c-1.062,0.039-1.55-0.648-1.863-0.291
			c-0.238,0.271-0.032,0.402,0.41,0.41c-0.341,0-0.716,0.018-0.643,0.283c0.141,0.506,0.688-0.094,0.898,0.109
			c-0.179-0.035-0.466,0.064-0.477,0.215c-0.01,0.154,0.406,0.352,0.865,0.029c0.251-0.178,0.56-0.244,0.761-0.244
			c0.748,0.006,2.435,0.342,2.988-0.199c0.216-0.211-0.06-0.387-0.281-0.578c-0.21-0.189-0.263-0.447-0.221-0.871
			c0.628,0.098,1.439,0.115,2.579-0.064c1.354-0.217,1.779,0.18,1.779,0.727c0,0.379-0.253,0.412-0.439,0.422
			c-0.755,0.039-1.078-0.25-1.376-0.156c-0.2,0.061-0.322,0.348-0.033,0.447c-0.236,0.107-0.208,0.305-0.087,0.379
			c0.124,0.076,0.436,0.008,0.651-0.078c-0.276,0.109-0.558,0.303-0.398,0.51c0.1,0.125,0.349,0.229,0.582-0.037
			c0.231-0.266,0.666-0.434,0.929-0.455C23.399,51.053,23.908,49.551,23.499,48.553z"/>
		<path fill="#FFE62E" d="M23.499,57.186c-0.092-0.229-0.155-0.316-0.488-0.215c-0.809,0.25-3.025,0.107-3.73-0.32
			c1.059,0.385,2.412-0.43,2.412-1.104c0-0.752-1.049-1.365-3.17-0.959c-2.124,0.408-4.71,0.236-4.71-0.385s1.854-0.709,2.806-0.576
			c0.951,0.127,1.634,0.215,3.416-0.348c-0.439,0.15-1.855,0.195-2.977-0.084c-1.12-0.277-3.881-0.277-3.904,1.029
			c-0.024,1.307,2.936,1.189,5.491,0.857c1.487-0.193,2.268-0.063,2.268,0.367c0,0.406-1.364,0.578-2.415,0.471
			c-1.05-0.105-2.134-0.121-3.366,0.238c-0.228,0.066-0.461,0.113-0.693,0.156c1.159,0.838,2.379,1.596,3.654,2.266
			c-0.027-0.135-0.031-0.293-0.012-0.49c0.628,0.098,1.439,0.113,2.579-0.064c1.354-0.219,1.779,0.178,1.779,0.727
			c0,0.379-0.253,0.41-0.439,0.42c-0.755,0.039-1.078-0.248-1.376-0.154c-0.2,0.061-0.322,0.346-0.033,0.447
			c-0.125,0.057-0.173,0.137-0.175,0.213c0.145,0.061,0.293,0.115,0.438,0.174l0.074,0.029c0.188,0.074,0.374,0.15,0.563,0.221
			c0.24-0.184,0.563-0.301,0.776-0.318C23.399,59.686,23.908,58.186,23.499,57.186z"/>
	</g>
</g>
</svg>
