<?xml version="1.0" encoding="utf-8"?>
<!-- Generator: Adobe Illustrator 15.0.0, SVG Export Plug-In . SVG Version: 6.00 Build 0)  -->
<!DOCTYPE svg PUBLIC "-//W3C//DTD SVG 1.1//EN" "http://www.w3.org/Graphics/SVG/1.1/DTD/svg11.dtd">
<svg version="1.1" id="Layer_1" xmlns="http://www.w3.org/2000/svg" xmlns:xlink="http://www.w3.org/1999/xlink" x="0px" y="0px"
	 width="64px" height="64px" viewBox="0 0 64 64" enable-background="new 0 0 64 64" xml:space="preserve">
<g>
	<g>
		<path fill="#F9F9F9" d="M2,32c0,16.568,13.432,30,30,30V2C15.432,2,2,15.432,2,32z"/>
		<path fill="#ED4C5C" d="M62,32C62,15.432,48.568,2,32,2v60C48.568,62,62,48.568,62,32z"/>
	</g>
	<path fill="#ED4C5C" d="M8.63,17.042v5.656h5.656c0,0.942,0.943,1.885,1.885,1.885v5.656h5.655v-5.656
		c0.943,0,1.885-0.942,1.885-1.885h5.656v-5.656h-5.656c0-0.942-0.942-1.885-1.885-1.885V9.501h-5.655v5.656
		c-0.943,0-1.885,0.942-1.885,1.885H8.63L8.63,17.042z"/>
	<path fill="#BCBCBC" d="M9.196,17.607v4.524h5.655c0,0.943,0.943,1.886,1.885,1.886v5.655h4.524v-5.655
		c0.942,0,1.886-0.942,1.886-1.886h5.654v-4.524h-5.654c0-0.942-0.943-1.885-1.886-1.885v-5.656h-4.524v5.656
		c-0.942,0-1.885,0.942-1.885,1.885H9.196z"/>
	<g id="vi">
		<path fill="#94989B" d="M16.383,15.655c0.332,0.331,0.242,0.958-0.2,1.4c-0.441,0.44-1.068,0.53-1.399,0.199
			c-0.332-0.332-0.242-0.958,0.2-1.4C15.425,15.413,16.052,15.324,16.383,15.655z"/>
		<path fill="#D0D0D0" d="M14.717,16.654l0.133-0.134l0.533,0.268l-0.267-0.533l0.133-0.134l0.533,1.066L14.717,16.654
			L14.717,16.654z"/>
		<path fill="#D0D0D0" d="M15.517,15.854l0.133-0.133l0.8,0.799l-0.133,0.134L15.517,15.854z"/>
	</g>
	<g transform="rotate(90,105.555,105.557)">
		<g id="vi_1_">
			<path fill="#94989B" d="M23.213,17.255c-0.331,0.331-0.958,0.241-1.399-0.2c-0.442-0.441-0.532-1.068-0.2-1.399
				s0.958-0.242,1.4,0.199C23.455,16.297,23.545,16.923,23.213,17.255z"/>
			<path fill="#D0D0D0" d="M22.214,15.588l0.133,0.134l-0.266,0.533l0.533-0.267l0.133,0.133l-1.066,0.533L22.214,15.588
				L22.214,15.588z"/>
			<path fill="#D0D0D0" d="M23.014,16.389l0.133,0.133l-0.799,0.8l-0.133-0.133L23.014,16.389z"/>
		</g>
	</g>
	<g transform="rotate(180,105.555,105.557)">
		<g id="vi_2_">
			<path fill="#94989B" d="M21.614,24.085c-0.332-0.331-0.242-0.958,0.2-1.399c0.441-0.441,1.068-0.532,1.399-0.2
				c0.332,0.332,0.242,0.958-0.199,1.399C22.572,24.327,21.945,24.416,21.614,24.085z"/>
			<path fill="#D0D0D0" d="M23.28,23.085l-0.134,0.134l-0.533-0.267l0.268,0.534l-0.134,0.133l-0.533-1.066L23.28,23.085
				L23.28,23.085z"/>
			<path fill="#D0D0D0" d="M22.48,23.885l-0.133,0.134l-0.8-0.8l0.133-0.134L22.48,23.885z"/>
		</g>
	</g>
	<g transform="rotate(270,105.555,105.557)">
		<g id="vi_3_">
			<path fill="#94989B" d="M14.784,22.485c0.331-0.332,0.958-0.241,1.399,0.2c0.442,0.441,0.532,1.068,0.2,1.399
				c-0.331,0.331-0.958,0.242-1.4-0.2C14.542,23.443,14.452,22.817,14.784,22.485z"/>
			<path fill="#D0D0D0" d="M15.783,24.152l-0.133-0.134l0.267-0.533l-0.534,0.266l-0.133-0.132l1.066-0.534L15.783,24.152
				L15.783,24.152z"/>
			<path fill="#D0D0D0" d="M14.983,23.352l-0.133-0.133l0.8-0.8l0.133,0.133L14.983,23.352z"/>
		</g>
	</g>
	<g>
		<polygon fill="#3E4347" points="17.491,22.886 17.679,23.075 17.491,23.263 17.302,23.075 17.491,22.886 		"/>
		<polygon fill="#3E4347" points="20.506,22.886 20.695,23.075 20.506,23.263 20.318,23.075 20.506,22.886 		"/>
		<path fill="#3E4347" d="M18.874,23.075v0.196h-0.251v0.196h0.251v0.196l0.235,0.017l0.016-0.212h0.251v-0.197h-0.251v-0.196
			H18.874L18.874,23.075L18.874,23.075z"/>
	</g>
	<path fill="#94989B" d="M20.691,19.081c0.328-0.082,0.566,0.182,0.676,0.172c0.091,0.182,0.3,0.045,0.3,0.045
		s-0.176-0.146-0.351-0.287c-0.144-0.021-0.43-0.204-0.605-0.204c-0.099,0.146-0.401,0.307-0.401,0.307s-0.137-0.206-0.229-0.249
		c0.043-0.086-0.095-0.286-0.215-0.434c0.113-0.102,0.204-0.2,0.265-0.272c0.062-0.01,0.101-0.04,0.134-0.072
		c0,0,0.077,0.018,0.089-0.051c0.013-0.067,0.017-0.11-0.038-0.223c-0.19-0.011-0.467-0.124-0.67-0.102
		c0.041-0.067,0.013-0.167,0.013-0.167s-0.079,0.021-0.168,0.089c-0.054-0.033-0.128,0.001-0.128,0.001l-0.007,0.013
		c0.001-0.013,0.004-0.025,0.004-0.038c0-0.227-0.185-0.41-0.412-0.41c-0.195,0-0.359,0.136-0.4,0.319
		c-1.635-0.36-2.44,1.18-1.994,1.646c0.144,0.15,0.539-0.071,0.801-0.225c-0.018,0.101-0.021,0.181-0.021,0.181
		s-0.008,0.013-0.019,0.03c-0.049-0.016-0.116-0.032-0.13-0.015l0,0c-0.021,0.027,0.37,0.325,0.37,0.325l0.29,0.249
		c-0.149,0.093-0.271,0.231-0.334,0.454h-0.001c-0.208,0.056-0.57-0.27-0.739-0.145c-0.169,0.125-0.09,0.434,0.022,0.587
		c0.11,0.149-0.161,0.203-0.234,0.292c-0.069,0.084,0.179,0.605,0.266,0.618c-0.031-0.064,0.022-0.243,0.022-0.243
		s0.151,0.011,0.189-0.055s-0.036-0.207-0.036-0.207s0.187-0.206,0.185-0.365c-0.002-0.159-0.34-0.328-0.216-0.41
		c0.135-0.09,0.369,0.226,0.571,0.092c0.118,0.276,0.462,0.479,0.683,0.52c0.044,0.148-0.1,0.382-0.058,0.471
		c0.034,0.07,0.188-0.014,0.471,0.149c-0.034,0.053-0.065,0.102-0.099,0.138l-0.327,0.039l-0.127,0.146l-0.402,0.031l-0.631-0.012
		l0.408,0.312l0,0h3.22l0.249-0.197l-0.415-0.224l-0.039-0.013c0.046-0.014,0.084-0.057,0.084-0.057s0.105,0.001,0.151-0.047
		c0.429,0.304,0.583-0.049,0.583-0.049s-0.062-0.016-0.058-0.076c-0.046,0.021-0.077-0.063-0.077-0.063s-0.008,0.199-0.102,0.197
		c-0.043-0.001-0.104-0.044-0.159-0.091c0.16-0.117,0.306-0.362,0.306-0.362l0.083-0.159l0.122-0.025c0,0,0.008-0.08-0.058-0.077
		c-0.001-0.048-0.043-0.073-0.102-0.063c0.011-0.028-0.032-0.051-0.032-0.051c-0.115,0.029-0.121,0.318-0.121,0.318
		s-0.201,0.153-0.274,0.191c-0.003-0.166-0.28-0.391-0.223-0.497c0.058-0.106,0.238,0.165,0.396,0.114
		c0.109-0.033,0.179-0.143,0.215-0.26c0.067,0.057,0.158,0.079,0.158,0.079s0.003-0.044-0.022-0.096
		c0.042,0.022,0.137,0.007,0.137,0.007s-0.051-0.054-0.093-0.058c0.022-0.014,0.067-0.048,0.067-0.048s-0.115,0.006-0.146-0.013
		c0.029-0.015,0.019-0.061,0.019-0.061s-0.054-0.007-0.109-0.005c-0.05-0.107-0.136-0.248-0.136-0.248l-0.103-0.006l-0.089-0.217
		c0,0-0.188,0.122-0.185,0.229c0.002,0.08,0.112,0.151,0.167,0.182c-0.073,0.038-0.292-0.1-0.292-0.1s0.063,0.097,0.164,0.161
		c-0.019,0-0.038-0.002-0.058-0.008c-0.01,0.108,0.127,0.088,0.179,0.09c0.025,0.078,0.102,0.121,0.102,0.121
		s0.048,0.119-0.076,0.107c-0.124-0.01-0.271-0.297-0.446-0.165c-0.187,0.14,0.083,0.396,0.083,0.396s-0.04,0.021-0.091,0.068
		c-0.023-0.03-0.057-0.07-0.099-0.115c0.019-0.212,0.085-0.642,0.317-0.839c-0.121-0.03-0.347,0.173-0.51,0.342
		c-0.121-0.097-0.29-0.22-0.344-0.271c-0.024-0.046-0.056-0.111-0.089-0.186c0.031-0.015,0.062-0.028,0.095-0.039
		c0.308,0.034,0.565-0.094,0.784-0.152c0.078,0.063,0.124,0.056,0.217,0.044c0.303,0.161,0.306,0.508,0.382,0.294
		c0.077,0.265,0.281,0.229,0.281,0.229l-0.223-0.383c0,0-0.25-0.194-0.421-0.338c-0.165-0.1-0.465-0.058-0.465-0.058
		S20.682,19.373,20.691,19.081z M20.889,20.401l0.001-0.013c0.007,0.004,0.012,0.006,0.012,0.006S20.896,20.397,20.889,20.401z
		 M19.069,18.815l0-0.008 M20.022,18.156c0.01,0.002,0.017,0.001,0.026,0.002c-0.053,0.062-0.128,0.141-0.223,0.226
		c-0.064-0.077-0.116-0.132-0.116-0.132S19.921,18.233,20.022,18.156z M19.107,18.074l-0.112,0.093l-0.001,0.046l-0.003-0.001
		l-0.142-0.074c0,0,0.037-0.017,0.057-0.038c0.043,0.019,0.122-0.063,0.138-0.092c0.003-0.001,0.005-0.002,0.008-0.003
		c0.04,0.014,0.076,0.013,0.083-0.01c0.002-0.005,0.003-0.014,0.005-0.025c0.014-0.007,0.027-0.014,0.04-0.021L19.107,18.074z
		 M18.558,17.734c0.019,0.059,0.049,0.11,0.089,0.154c-0.026,0.019-0.06,0.039-0.06,0.039s-0.016-0.007-0.042-0.014
		c-0.021-0.011-0.042-0.017-0.065-0.019c-0.037-0.011-0.077-0.02-0.119-0.029C18.401,17.815,18.48,17.773,18.558,17.734z
		 M17.655,19.347l-0.094-0.058c0.018,0.003,0.075,0.043,0.092,0.03c0.02-0.015-0.004-0.061-0.014-0.078
		c-0.01-0.016-0.07-0.033-0.084-0.108c-0.015-0.075,0.038-0.179,0.038-0.179s0.083-0.066,0.157-0.152
		c0.255-0.118,0.362-0.25,0.362-0.25l0.006,0.002c-0.036,0.142-0.013,0.312,0.09,0.394c0.013,0.168,0.152,0.502,0.267,0.551
		c-0.136,0.032-0.28,0.063-0.416,0.11L17.655,19.347z M18.479,21.052c0.104-0.049,0.206-0.312,0.158-0.392
		c0.126,0.157,0.031,0.39,0.091,0.437c0.069,0.053,0.166-0.025,0.166-0.025c0.174,0.046,0.484-0.052,0.484-0.052
		c0.137,0.077,0.083-0.036,0.166-0.031c0.02,0.051,0.054,0.085,0.091,0.108c-0.13,0.022-0.271,0.067-0.442,0.102
		c-0.219-0.118-0.354-0.014-0.459,0.126C18.618,21.26,18.519,21.194,18.479,21.052z M19.761,20.369
		c-0.002,0.029-0.002,0.064,0.024,0.1c0.026,0.035,0.148,0.041,0.154,0.021c0.017,0.024,0.056,0.044,0.1,0.059
		c-0.032,0.036-0.057,0.064-0.072,0.083c-0.24-0.145-0.549-0.229-0.888-0.077c0.362-0.039,0.37,0.16,0.37,0.16
		s0.246-0.012,0.197,0.165c0.144-0.021,0.147,0.134,0.147,0.134s0.123-0.056,0.14,0.052c0.081-0.043,0.14,0.05,0.167,0.105
		c-0.105-0.06-0.201-0.085-0.297-0.088c-0.076-0.072-0.209-0.192-0.304-0.235c-0.107,0.063-0.418,0.073-0.472,0.063
		c-0.061-0.011-0.022-0.085-0.051-0.128c0.097-0.093,0.048-0.302-0.007-0.428c0.042,0.001,0.116-0.009,0.237-0.063
		c0.103-0.046,0.193-0.111,0.281-0.174C19.568,20.216,19.665,20.301,19.761,20.369z"/>
</g>
</svg>
