<?xml version="1.0" encoding="utf-8"?>
<!-- Generator: Adobe Illustrator 15.0.0, SVG Export Plug-In . SVG Version: 6.00 Build 0)  -->
<!DOCTYPE svg PUBLIC "-//W3C//DTD SVG 1.1//EN" "http://www.w3.org/Graphics/SVG/1.1/DTD/svg11.dtd">
<svg version="1.1" id="Layer_1" xmlns="http://www.w3.org/2000/svg" xmlns:xlink="http://www.w3.org/1999/xlink" x="0px" y="0px"
	 width="64px" height="64px" viewBox="0 0 64 64" enable-background="new 0 0 64 64" xml:space="preserve">
<g>
	<g>
		<g>
			<g>
				<rect x="12" y="12" fill="#2872A0" width="20" height="20"/>
				<path fill="#5B97B1" d="M32,2v30H2c0,16.568,13.432,30,30,30s30-13.432,30-30S48.568,2,32,2z"/>
				<path fill="#FFFFFF" d="M32,2c-4.694,0-9.132,1.088-13.088,3.012V8.14V11H11v2.912V14v4.912H5.011C3.088,22.869,2,27.306,2,32
					h12V17l12,15h6v-7.5L23.6,14H32V2z"/>
				<path fill="#ED4C5C" d="M32,5H18.912C12.857,7.94,7.94,12.857,5,18.912V32h6V11h2l17,21h2v-4.941L19,11h13V5z"/>
			</g>
		</g>
	</g>
	<g>
		<polygon fill="#FFE62E" points="28.916,50.15 28.251,48.104 27.586,50.15 25.433,50.15 27.174,51.416 26.509,53.463 28.25,52.197 
			29.992,53.463 29.327,51.415 31.068,50.15 		"/>
		<polygon fill="#FFE62E" points="37.768,48.559 38.433,46.512 36.691,47.777 34.95,46.512 35.615,48.559 33.874,49.824 
			36.026,49.824 36.691,51.871 37.356,49.824 39.509,49.824 		"/>
		<polygon fill="#FFE62E" points="38.433,39.296 36.691,40.562 34.95,39.296 35.615,41.343 33.874,42.608 36.026,42.608 
			36.691,44.655 37.356,42.608 39.509,42.608 37.768,41.343 		"/>
		<polygon fill="#FFE62E" points="45.221,46.734 45.886,44.688 44.145,45.953 42.403,44.688 43.068,46.734 41.327,48 43.479,48 
			44.145,50.048 44.81,48 46.962,48 		"/>
		<polygon fill="#FFE62E" points="43.479,32.301 44.145,34.348 44.81,32.301 46.962,32.3 45.221,31.035 45.886,28.988 
			44.145,30.254 42.403,28.988 43.068,31.035 41.327,32.301 		"/>
		<polygon fill="#FFE62E" points="49.685,41.222 49.02,39.176 48.354,41.222 46.202,41.222 47.943,42.487 47.278,44.534 
			49.02,43.269 50.761,44.534 50.096,42.487 51.837,41.222 		"/>
		<polygon fill="#FFE62E" points="49.743,30.16 50.408,32.205 51.073,30.16 53.226,30.16 51.484,28.895 52.149,26.848 
			50.408,28.113 48.667,26.848 49.332,28.895 47.591,30.16 		"/>
		<polygon fill="#FFE62E" points="55.979,37.17 55.313,35.123 54.648,37.17 52.495,37.17 54.236,38.436 53.571,40.482 
			55.313,39.217 57.054,40.482 56.389,38.435 58.13,37.17 		"/>
		<polygon fill="#FFE62E" points="54.236,24.59 53.571,26.637 55.313,25.371 57.054,26.637 56.389,24.59 58.13,23.324 
			55.979,23.324 55.313,21.277 54.648,23.324 52.495,23.324 		"/>
	</g>
</g>
</svg>
