<?xml version="1.0" encoding="utf-8"?>
<!-- Generator: Adobe Illustrator 15.0.0, SVG Export Plug-In . SVG Version: 6.00 Build 0)  -->
<!DOCTYPE svg PUBLIC "-//W3C//DTD SVG 1.1//EN" "http://www.w3.org/Graphics/SVG/1.1/DTD/svg11.dtd">
<svg version="1.1" id="Layer_1" xmlns="http://www.w3.org/2000/svg" xmlns:xlink="http://www.w3.org/1999/xlink" x="0px" y="0px"
	 width="64px" height="64px" viewBox="0 0 64 64" enable-background="new 0 0 64 64" xml:space="preserve">
<g>
	<circle fill="#00AFCA" cx="32" cy="32" r="30"/>
	<path fill="none" stroke="#FFE62E" stroke-width="2" stroke-miterlimit="10" d="M26.621,45.119"/>
	<g>
		<path fill="#FFE62E" d="M56.698,33.139c-0.666-0.408-1.466,0.148-1.507,0.77c-0.322,4.879-8.852,6.158-13.004,6.229
			c-4.127,0.068-12.899-1.439-13.226-6.229c-0.044-0.65-0.825-1.141-1.507-0.77c-2.072,1.131-2.797,3.211-2.308,5.252
			c0.916,3.824,5.603,6.496,9.607,7.67c-0.269,0.701-0.438,1.408-0.485,2.082c-0.06,0.844,1.098,1.086,1.709,0.629
			c2.26-1.688,5.881-2.367,8.871-2.408c1.29-0.018,1.292-1.797,0-1.779c-2.688,0.037-5.574,0.496-8.033,1.613
			c0.947-2.064,3-4.154,5.26-4.281c0.006-0.002,0.01-0.004,0.016-0.004c0.03,0,0.064,0.002,0.096,0.004
			c4.789,0.08,12.48-1.592,14.508-6.055c0.316,0.764,0.286,1.672,0.043,2.471c-0.988,3.25-4.529,4.521-7.758,5.395
			c-1.232,0.332-0.707,2.051,0.532,1.715c4.243-1.146,7.511-2.766,9.157-6.637C59.523,36.797,58.676,34.355,56.698,33.139z
			 M35.579,44.42c-3.253-0.9-5.826-2.516-7.776-5.08c-0.842-1.107-1.096-2.568-0.414-3.668c1.459,3.541,6.398,5.252,10.834,5.906
			C37.16,42.338,36.256,43.334,35.579,44.42z"/>
		<g>
			<circle fill="#FFE62E" cx="42.001" cy="27" r="7.686"/>
			<g id="r4">
				<path id="r" fill="#FFE62E" d="M42.001,18.267c0.456-0.006,0.628-0.293,0.628-0.635c0-0.457-0.628-2.632-0.628-2.632
					s-0.63,2.175-0.63,2.632C41.371,17.974,41.543,18.267,42.001,18.267z"/>
				<g transform="rotate(90)">
					<path id="r_1_" fill="#FFE62E" d="M50.733,27c0.006,0.457,0.291,0.626,0.634,0.626C51.824,27.626,54,27,54,27
						s-2.176-0.63-2.633-0.63C51.024,26.37,50.733,26.543,50.733,27z"/>
				</g>
				<g transform="rotate(180)">
					<path id="r_2_" fill="#FFE62E" d="M42.001,35.733c-0.458,0.006-0.63,0.29-0.63,0.632c0,0.457,0.63,2.635,0.63,2.635
						s0.628-2.178,0.628-2.635C42.629,36.023,42.457,35.733,42.001,35.733z"/>
				</g>
				<g transform="rotate(270)">
					<path id="r_3_" fill="#FFE62E" d="M33.268,27c-0.006-0.457-0.291-0.63-0.635-0.63C32.177,26.37,30,27,30,27
						s2.177,0.626,2.633,0.626C32.977,27.626,33.268,27.457,33.268,27z"/>
				</g>
			</g>
			<path id="r_4_" fill="#FFE62E" d="M45.343,18.932c0.425,0.166,0.692-0.029,0.822-0.346c0.176-0.425,0.428-2.673,0.428-2.673
				s-1.414,1.769-1.589,2.189C44.873,18.419,44.92,18.756,45.343,18.932z"/>
			<path id="r_5_" fill="#FFE62E" d="M50.068,30.34c-0.17,0.425,0.028,0.694,0.346,0.823c0.422,0.175,2.673,0.427,2.673,0.427
				s-1.77-1.411-2.192-1.586C50.578,29.872,50.243,29.919,50.068,30.34z"/>
			<path id="r_6_" fill="#FFE62E" d="M38.658,35.068c-0.424-0.169-0.691,0.029-0.822,0.346c-0.175,0.422-0.428,2.673-0.428,2.673
				s1.414-1.771,1.588-2.192C39.128,35.578,39.081,35.241,38.658,35.068z"/>
			<path id="r_7_" fill="#FFE62E" d="M33.932,23.657c0.17-0.425-0.027-0.691-0.344-0.823c-0.424-0.175-2.674-0.427-2.674-0.427
				s1.771,1.414,2.191,1.586C33.422,24.125,33.758,24.078,33.932,23.657z"/>
			<path id="r_8_" fill="#FFE62E" d="M48.175,20.823c0.327,0.319,0.651,0.24,0.894-0.004c0.322-0.322,1.418-2.307,1.418-2.307
				s-1.984,1.095-2.307,1.417C47.938,20.172,47.854,20.501,48.175,20.823z"/>
			<path id="r_9_" fill="#FFE62E" d="M48.175,33.175c-0.317,0.328-0.237,0.649,0.005,0.893c0.322,0.322,2.307,1.417,2.307,1.417
				s-1.096-1.981-1.418-2.307C48.826,32.937,48.498,32.853,48.175,33.175z"/>
			<path id="r_10_" fill="#FFE62E" d="M35.826,33.175c-0.328-0.32-0.65-0.238-0.893,0.003c-0.324,0.325-1.418,2.307-1.418,2.307
				s1.982-1.095,2.306-1.417C36.064,33.824,36.149,33.497,35.826,33.175z"/>
			<path id="r_11_" fill="#FFE62E" d="M35.826,20.823c0.318-0.326,0.238-0.651-0.005-0.894c-0.323-0.322-2.306-1.417-2.306-1.417
				s1.094,1.984,1.418,2.307C35.176,21.063,35.502,21.148,35.826,20.823z"/>
			<path id="r_12_" fill="#FFE62E" d="M50.068,23.657c0.181,0.418,0.51,0.468,0.826,0.336c0.423-0.172,2.192-1.586,2.192-1.586
				s-2.251,0.252-2.673,0.427C50.097,22.966,49.893,23.235,50.068,23.657z"/>
			<path id="r_13_" fill="#FFE62E" d="M45.343,35.068c-0.421,0.179-0.47,0.51-0.339,0.826c0.175,0.421,1.589,2.192,1.589,2.192
				s-0.252-2.251-0.428-2.673C46.035,35.098,45.764,34.894,45.343,35.068z"/>
			<path id="r_14_" fill="#FFE62E" d="M33.932,30.34c-0.18-0.418-0.51-0.468-0.826-0.336c-0.421,0.175-2.191,1.586-2.191,1.586
				s2.25-0.252,2.674-0.427C33.904,31.034,34.107,30.762,33.932,30.34z"/>
			<path id="r_15_" fill="#FFE62E" d="M38.658,18.932c0.42-0.182,0.47-0.513,0.338-0.829c-0.174-0.421-1.588-2.189-1.588-2.189
				s0.253,2.248,0.428,2.673C37.967,18.902,38.236,19.104,38.658,18.932z"/>
			<path id="r_16_" fill="#FFE62E" d="M43.705,18.434c0.449,0.082,0.672-0.164,0.738-0.501c0.09-0.447-0.102-2.704-0.102-2.704
				s-1.041,2.014-1.131,2.462C43.145,18.023,43.256,18.343,43.705,18.434z"/>
			<path id="r_17_" fill="#FFE62E" d="M50.564,28.704c-0.083,0.447,0.164,0.673,0.5,0.737c0.449,0.091,2.705-0.103,2.705-0.103
				s-2.012-1.039-2.459-1.13C50.973,28.145,50.654,28.256,50.564,28.704z"/>
			<path id="r_18_" fill="#FFE62E" d="M40.297,35.563c-0.449-0.082-0.673,0.164-0.74,0.501c-0.09,0.447,0.103,2.704,0.103,2.704
				s1.04-2.011,1.13-2.459C40.856,35.974,40.745,35.654,40.297,35.563z"/>
			<path id="r_19_" fill="#FFE62E" d="M33.436,25.296c0.084-0.45-0.162-0.673-0.499-0.74c-0.448-0.088-2.705,0.103-2.705,0.103
				s2.011,1.039,2.459,1.13C33.027,25.855,33.346,25.744,33.436,25.296z"/>
			<path id="r_20_" fill="#FFE62E" d="M46.852,19.736c0.383,0.249,0.686,0.108,0.875-0.179c0.254-0.378,0.939-2.538,0.939-2.538
				s-1.729,1.461-1.984,1.842C46.492,19.145,46.473,19.484,46.852,19.736z"/>
			<path id="r_21_" fill="#FFE62E" d="M49.262,31.851c-0.25,0.384-0.107,0.686,0.178,0.875c0.381,0.256,2.538,0.941,2.538,0.941
				s-1.46-1.731-1.84-1.986C49.852,31.49,49.516,31.47,49.262,31.851z"/>
			<path id="r_22_" fill="#FFE62E" d="M37.148,34.261c-0.383-0.249-0.685-0.105-0.875,0.179c-0.253,0.381-0.939,2.538-0.939,2.538
				s1.731-1.461,1.984-1.842C37.509,34.853,37.527,34.516,37.148,34.261z"/>
			<path id="r_23_" fill="#FFE62E" d="M34.74,22.146c0.248-0.384,0.106-0.683-0.18-0.875c-0.379-0.252-2.537-0.94-2.537-0.94
				s1.461,1.733,1.84,1.985C34.148,22.507,34.484,22.527,34.74,22.146z"/>
			<path id="r_24_" fill="#FFE62E" d="M49.262,22.146c0.258,0.378,0.59,0.36,0.876,0.17c0.38-0.252,1.84-1.985,1.84-1.985
				s-2.157,0.688-2.538,0.94C49.154,21.464,49.008,21.769,49.262,22.146z"/>
			<path id="r_25_" fill="#FFE62E" d="M46.852,34.261c-0.376,0.258-0.359,0.592-0.17,0.875c0.255,0.381,1.984,1.842,1.984,1.842
				s-0.686-2.157-0.939-2.538C47.537,34.155,47.232,34.006,46.852,34.261z"/>
			<path id="r_26_" fill="#FFE62E" d="M34.74,31.851c-0.26-0.378-0.592-0.36-0.877-0.17c-0.379,0.255-1.84,1.986-1.84,1.986
				s2.158-0.686,2.537-0.941C34.847,32.536,34.992,32.231,34.74,31.851z"/>
			<path id="r_27_" fill="#FFE62E" d="M37.148,19.736c0.377-0.258,0.36-0.592,0.17-0.875c-0.253-0.381-1.984-1.842-1.984-1.842
				s0.687,2.16,0.939,2.538C36.464,19.845,36.768,19.991,37.148,19.736z"/>
			<path id="r_28_" fill="#FFE62E" d="M50.564,25.296c0.096,0.445,0.408,0.56,0.746,0.492c0.447-0.091,2.459-1.13,2.459-1.13
				s-2.256-0.19-2.705-0.103C50.729,24.623,50.476,24.849,50.564,25.296z"/>
			<path id="r_29_" fill="#FFE62E" d="M43.705,35.563c-0.448,0.097-0.561,0.41-0.494,0.746c0.09,0.448,1.131,2.459,1.131,2.459
				s0.191-2.257,0.102-2.704C44.377,35.728,44.152,35.476,43.705,35.563z"/>
			<path id="r_30_" fill="#FFE62E" d="M33.436,28.704c-0.096-0.448-0.408-0.56-0.745-0.495c-0.448,0.091-2.459,1.13-2.459,1.13
				s2.257,0.193,2.705,0.103C33.273,29.377,33.525,29.151,33.436,28.704z"/>
			<path id="r_31_" fill="#FFE62E" d="M40.297,18.434c0.447-0.097,0.56-0.41,0.492-0.743c-0.09-0.448-1.13-2.462-1.13-2.462
				s-0.192,2.257-0.103,2.704C39.624,18.27,39.848,18.521,40.297,18.434z"/>
		</g>
	</g>
	<g>
		<path fill="#FFE62E" d="M16.505,51.634h-1.113v3.698H13.15c1.062,0.859,2.181,1.649,3.355,2.359V51.634z"/>
		<path fill="#FFE62E" d="M15.393,8.668v3.699h1.113V6.309c-1.174,0.71-2.293,1.5-3.355,2.359H15.393z"/>
		<path fill="#FFE62E" d="M12.945,8.829c-0.297,0.244-0.586,0.499-0.874,0.754l3.006,6.484h-2.521v-3.7h-1.111v3.7H8.923l2.91-6.277
			c-0.817,0.742-1.588,1.534-2.32,2.362L7.22,17.096l3.91,8.432H8.608v-3.703H7.496v9.813h1.113v-4.052h2.616L9.722,32l1.502,4.414
			H8.608v-4.052H7.496v9.81h1.113v-3.699h2.522l-3.91,8.432l2.293,4.943c0.731,0.828,1.502,1.62,2.32,2.362l-2.91-6.279h2.521v3.703
			h1.111v-3.703h2.521l-3.006,6.486c0.288,0.255,0.576,0.51,0.874,0.754l3.835-8.267l-3.91-8.432h2.522v3.699h1.113v-9.81h-1.113
			v4.052h-2.616L14.279,32l-1.502-4.414h2.616v4.052h1.113v-9.813h-1.113v3.703h-2.522l3.91-8.432L12.945,8.829z M15.078,45.875
			h-2.521v-3.703h-1.111v3.703H8.923L12,39.238L15.078,45.875z M12,35.245l-0.792-2.329h1.583L12,35.245z M12.792,31.084h-1.583
			L12,28.755L12.792,31.084z M12,24.762l-3.077-6.637h2.521v3.699h1.111v-3.699h2.521L12,24.762z"/>
	</g>
</g>
</svg>
