<?xml version="1.0" encoding="utf-8"?>
<!-- Generator: Adobe Illustrator 15.0.0, SVG Export Plug-In . SVG Version: 6.00 Build 0)  -->
<!DOCTYPE svg PUBLIC "-//W3C//DTD SVG 1.1//EN" "http://www.w3.org/Graphics/SVG/1.1/DTD/svg11.dtd">
<svg version="1.1" id="Layer_1" xmlns="http://www.w3.org/2000/svg" xmlns:xlink="http://www.w3.org/1999/xlink" x="0px" y="0px"
	 width="64px" height="64px" viewBox="0 0 64 64" enable-background="new 0 0 64 64" xml:space="preserve">
<g>
	<path fill="#2A5F9E" d="M39.113,2.855V27.6H2.324C2.113,29.037,2,30.505,2,32c0,16.568,13.432,30,30,30c16.569,0,30-13.432,30-30
		C62,17.883,52.246,6.05,39.113,2.855z"/>
	<path fill="#FFFFFF" d="M39.113,2.855c-0.215-0.052-0.43-0.101-0.645-0.148v24.249H25.583V2.694
		C20.75,3.749,16.354,5.965,12.7,9.039v17.917H2.431C2.394,27.17,2.356,27.385,2.324,27.6h36.789V2.855z"/>
	<path fill="#2A5F9E" d="M2.431,26.956H12.7V9.039C7.38,13.516,3.642,19.805,2.431,26.956z"/>
	<path fill="#ED4C5C" d="M25.583,2.694v24.262h12.885V2.707C36.385,2.249,34.223,2,32,2C29.796,2,27.652,2.244,25.583,2.694z"/>
	<path fill="#FFFFFF" d="M42.838,43.751V39.1h1.943l1.441-2.297h-3.385v-1.472h4.313l1.516-2.415H34.299l1.518,2.415h4.313v8.42
		l-3.238-5.064l-4.358,6.949h2.12l0.428-0.767h3.615l2.789,5.006l2.787-5.006h3.613l0.428,0.767h2.121l-4.357-6.949L42.838,43.751z
		 M36.002,43.221l0.889-1.59l0.885,1.59H36.002z M45.189,43.221l0.887-1.59l0.889,1.59H45.189z"/>
	<polygon fill="#FFFFFF" points="42.039,53.232 41.484,51.523 40.928,53.232 39.131,53.232 40.586,54.288 40.029,55.997 
		41.484,54.941 42.938,55.997 42.381,54.288 43.836,53.232 	"/>
	<polygon fill="#FFFFFF" points="36.74,49.229 36.184,47.52 35.629,49.229 33.832,49.229 35.285,50.284 34.73,51.993 36.184,50.938 
		37.639,51.993 37.082,50.284 38.535,49.229 	"/>
	<polygon fill="#FFFFFF" points="47.338,49.229 46.783,47.52 46.229,49.229 44.432,49.229 45.885,50.284 45.33,51.993 
		46.783,50.938 48.236,51.993 47.682,50.284 49.135,49.229 	"/>
	<polygon fill="#FFFFFF" points="31.708,39.043 33.162,40.099 32.607,38.39 34.061,37.334 32.263,37.334 31.708,35.625 
		31.154,37.334 29.357,37.334 30.81,38.39 30.255,40.099 	"/>
	<polygon fill="#FFFFFF" points="52.156,38.39 53.609,37.334 51.813,37.334 51.258,35.625 50.703,37.334 48.906,37.334 
		50.359,38.39 49.805,40.099 51.258,39.043 52.711,40.099 	"/>
</g>
</svg>
