<?xml version="1.0" encoding="utf-8"?>
<!-- Generator: Adobe Illustrator 15.0.0, SVG Export Plug-In . SVG Version: 6.00 Build 0)  -->
<!DOCTYPE svg PUBLIC "-//W3C//DTD SVG 1.1//EN" "http://www.w3.org/Graphics/SVG/1.1/DTD/svg11.dtd">
<svg version="1.1" id="Layer_1" xmlns="http://www.w3.org/2000/svg" xmlns:xlink="http://www.w3.org/1999/xlink" x="0px" y="0px"
	 width="64px" height="64px" viewBox="0 0 64 64" enable-background="new 0 0 64 64" xml:space="preserve">
<g>
	<g>
		<path fill="#ED4C5C" d="M10.787,10.787V32H62C62,15.432,48.568,2,32,2c-8.285,0-15.785,3.358-21.214,8.788L10.787,10.787z"/>
		<path fill="#428BC1" d="M10.787,32v21.213l-0.001-0.002C16.215,58.641,23.715,62,32,62c16.568,0,30-13.432,30-30H10.787z"/>
		<path fill="#F9F9F9" d="M10.787,10.787C5.358,16.216,2,23.716,2,32s3.358,15.783,8.787,21.213L32,32L10.787,10.787z"/>
	</g>
	<g>
		<path fill="#FFFF00" d="M18.463,25.533l0.01-0.377c0,0-0.201-0.32,0.033-0.666c0,0-0.498-0.262-0.382-0.674
			c0,0-0.449-0.114-0.416-0.609c0,0-0.485-0.033-0.535-0.445c0,0-0.485,0.079-0.699-0.322c0,0-0.473,0.092-0.606-0.24
			c0,0-0.46,0.159-0.732-0.23c0,0-0.486,0.197-0.689-0.172c-0.202,0.367-0.686,0.172-0.686,0.172
			c-0.27,0.389-0.732,0.227-0.732,0.227c-0.129,0.334-0.601,0.24-0.601,0.24c-0.212,0.4-0.697,0.322-0.697,0.322
			c-0.047,0.412-0.532,0.445-0.532,0.445c0.039,0.495-0.41,0.607-0.41,0.607c0.119,0.411-0.377,0.674-0.377,0.674
			c0.239,0.347,0.041,0.664,0.041,0.664l-0.012,0.347L18.463,25.533"/>
		<path fill="#FFCE31" d="M18.463,25.533l0.01-0.377c0,0-0.201-0.32,0.033-0.666c0,0-0.498-0.262-0.382-0.674
			c0,0-0.449-0.114-0.416-0.609c0,0-0.485-0.033-0.535-0.445c0,0-0.485,0.079-0.699-0.322c0,0-0.473,0.092-0.606-0.24
			c0,0-0.46,0.159-0.732-0.23c0,0-0.486,0.197-0.689-0.172c-0.202,0.367-0.686,0.172-0.686,0.172
			c-0.27,0.389-0.732,0.227-0.732,0.227c-0.129,0.334-0.601,0.24-0.601,0.24c-0.212,0.4-0.697,0.322-0.697,0.322
			c-0.047,0.412-0.532,0.445-0.532,0.445c0.039,0.495-0.41,0.607-0.41,0.607c0.119,0.411-0.377,0.674-0.377,0.674
			c0.239,0.347,0.041,0.664,0.041,0.664l-0.012,0.347L18.463,25.533L18.463,25.533L18.463,25.533z"/>
		<path fill="#ED4C5C" d="M18.275,25.064c-1.26-0.127-2.712-0.426-3.832,0.205c-0.75-0.443-1.797-0.415-2.688-0.328
			c-0.483,0.086-1.052,0.086-1.558,0.168l-0.08,0.012c-0.916,0.061-1.748-0.211-2.545-0.566c0.252,1.436,0.535,2.907,0.672,4.41
			c0.301,2.227-1.054,4.096-0.498,6.295c0.331,1.055,1.491,1.67,2.554,1.791c1.028,0.061,2.092,0.229,3.045,0.436
			c0.181,0.039,0.395,0.121,0.52,0.176c0.263,0.11,0.455,0.271,0.623,0.443c0.575-0.599,1.417-0.765,2.248-0.853
			c1.499-0.175,3.344-0.079,4.261-1.437V35.74c0.499-0.75,0.433-1.896,0.217-2.746c-0.015-0.295-0.095-0.557-0.138-0.84
			c-0.914-2.416-0.131-5.133,0.263-7.568c-0.479,0.262-1.018,0.387-1.553,0.518c-0.426,0.059-0.902,0.031-1.334,0.008L18.275,25.064
			 M20.158,31.998L20.158,31.998"/>
		<path fill="#428BC1" d="M20.158,31.998c-0.006,0.158,0.08,0.283,0.111,0.43c0.175,1.058,0.344,2.456-0.743,3.111
			c-1.203,0.765-2.78,0.438-4.173,0.842c-0.278,0.078-0.661,0.334-0.856,0.516c-0.125-0.084-0.252-0.211-0.415-0.285
			c-1.144-0.609-2.633-0.404-3.926-0.734c-0.65-0.205-1.326-0.711-1.492-1.375c-0.422-1.745,0.591-3.23,0.471-4.961
			c-0.078-1.32-0.3-2.588-0.604-3.826c1.01,0.47,2.181,0.549,3.316,0.323c0.842-0.118,1.821-0.119,2.61,0.235
			c0.434-0.188,0.943-0.27,1.411-0.322c0.891,0.087,1.849,0.248,2.765,0.242c0.612-0.033,1.17-0.21,1.702-0.445
			C20.021,27.795,19.413,29.939,20.158,31.998"/>
		<g>
			<path fill="#FFFFFF" d="M19.245,34.935l-0.683-0.001l-0.008-2.068h0.143l-0.004-0.435H18.34l-0.009-1.95h0.237l-2.942-1.899
				l-0.005-0.987h0.284l-1.471-1.053l-1.463,1.053h0.283l0.005,0.986l-2.928,1.897l0.234,0.001l0.01,1.943H10.22v0.438l0.168,0.005
				l0.007,2.062H9.763l0.003,0.6l9.479,0.011V34.935L19.245,34.935z"/>
		</g>
		<path fill="#FFFFFF" d="M18.373,26.371c0.277-0.006,0.349,1.14,0.349,1.708c0.238,0.065,0.765,0.398,0.999,0.697l-2.675-0.003
			c0.23-0.296,0.754-0.629,0.989-0.696C18.034,27.509,18.093,26.363,18.373,26.371"/>
		<path fill="#FFCE31" d="M24.33,32.629L24.33,32.629l-0.469,0.032c-0.049-0.45-0.154-1.008-0.369-1.638v0.002l0,0l-1.367,0.434
			l0.433,2.221l0.382,0.061c-0.205,1.682-1.098,4.432-5.168,4.613l0.026,0.234c-0.761,0.324-2.148,0.543-3.293,0.538l0,0
			c-1.144,0-2.571-0.22-3.337-0.543l0.024-0.239c-4.069-0.184-4.987-2.932-5.208-4.613l0.383-0.06l0.415-2.224L5.41,31.009v-0.001
			c-0.209,0.629-0.309,1.186-0.354,1.638l-0.469-0.034c-0.229,1.848,0.138,6.387,4.842,7.175l-0.005,0.485
			c1.327,0.73,4.415,0.889,5.088,0.885c0.67,0.004,3.722-0.152,5.043-0.881l-0.008-0.48C24.243,39.014,24.572,34.476,24.33,32.629z"
			/>
		<path fill="#BC715F" d="M9.58,23.867c0.104-0.252,1.072-0.939,4.245-0.639c0,0,0.537,0.328,0.852,0.285
			c0.18-0.023-0.106,0.012-0.34-0.182c-0.239-0.195-0.29-0.596,0.257-0.586c0.543,0.016,2.579,0.131,2.616,0.313
			c0.037,0.185-1.076,0.261-1.49,0.251c-0.415-0.012-0.366,0.199,0.047,0.184c1.292-0.047,2.702-0.502,4.192,0.551
			c0.178,0.128-0.449,0.149-0.934-0.057c0,0-1.314,0.068-1.882-0.024c0,0-0.437,0.354-1.006,0.319
			c0.074,0.186-0.21,0.872-1.999,0.355c-0.295,0.091-1.372,0.271-1.254-0.049c-0.283,0-0.779,0.09-0.854-0.07
			c-0.071-0.158,0.875-0.399,1.041-0.57c0,0-2.001,0.02-2.38-0.119c0,0-1.181,0.266-1.112,0.035"/>
		<polyline fill="#699635" points="10.222,26.67 10.373,26.51 12.353,26.689 12.013,27.217 12.195,27.742 12.076,27.96 
			11.615,27.805 11.747,28.006 11.455,28.019 11.38,28.224 11.149,28.014 11.225,28.219 10.922,28.904 10.749,28.991 10.698,28.525 
			10.363,28.982 10.044,28.542 10.172,27.953 9.905,27.721 9.294,27.779 9.48,27.058 8.821,26.354 10.22,26.67 		"/>
	</g>
</g>
</svg>
