<?xml version="1.0" encoding="utf-8"?>
<!-- Generator: Adobe Illustrator 15.0.0, SVG Export Plug-In . SVG Version: 6.00 Build 0)  -->
<!DOCTYPE svg PUBLIC "-//W3C//DTD SVG 1.1//EN" "http://www.w3.org/Graphics/SVG/1.1/DTD/svg11.dtd">
<svg version="1.1" id="Layer_1" xmlns="http://www.w3.org/2000/svg" xmlns:xlink="http://www.w3.org/1999/xlink" x="0px" y="0px"
	 width="64px" height="64px" viewBox="0 0 64 64" enable-background="new 0 0 64 64" xml:space="preserve">
<g>
	<g>
		<path fill="#428BC1" d="M32,2C18.938,2,7.833,10.35,3.714,22h56.572C56.167,10.35,45.062,2,32,2z"/>
		<path fill="#428BC1" d="M32,62c13.062,0,24.167-8.35,28.286-20H3.714C7.833,53.65,18.938,62,32,62z"/>
		<path fill="#F9F9F9" d="M3.714,22C2.608,25.129,2,28.492,2,32s0.608,6.871,1.714,10h56.572C61.392,38.871,62,35.508,62,32
			s-0.608-6.871-1.714-10H3.714z"/>
	</g>
	<g>
		<path fill="#428BC1" d="M35.546,27.933l-1.19,1.191C34.758,29.635,35,30.276,35,30.977c0,1.656-1.344,3-3,3c-1.657,0-3-1.344-3-3
			c0-0.7,0.242-1.343,0.645-1.853l-1.19-1.191c-0.662,0.798-1.061,1.822-1.061,2.94c0,2.544,2.063,4.606,4.606,4.606
			s4.606-2.063,4.606-4.606C36.606,29.755,36.208,28.73,35.546,27.933z"/>
		<path fill="#428BC1" d="M34.037,25.392l-0.684,0.685c0.231,0.293,0.37,0.662,0.37,1.064c0,0.951-0.771,1.724-1.724,1.724
			s-1.724-0.772-1.724-1.724c0-0.402,0.139-0.771,0.37-1.064l-0.684-0.685c-0.381,0.458-0.609,1.047-0.609,1.689
			c0,1.461,1.185,2.646,2.646,2.646s2.646-1.186,2.646-2.646C34.646,26.438,34.418,25.85,34.037,25.392z"/>
		<g>
			<path fill="#699635" d="M28.359,29.511c0,0-0.5-0.143-0.899-0.136c0.005-0.008,0.01-0.013,0.015-0.021
				c0.315-0.482,0.419-1.384,0.419-1.384s-0.778,0.458-1.096,0.937c-0.166-0.348-0.468-0.704-0.468-0.704s-0.368,0.413-0.313,0.815
				c0.057,0.401,0.567,1.001,0.567,1.001s0.759,0.22,1.151,0.106C28.128,30.014,28.359,29.511,28.359,29.511z"/>
			<path fill="#83BF4F" d="M27.638,30.664c0,0-0.521-0.01-0.904,0.1c0.002-0.009,0.007-0.016,0.009-0.024
				c0.179-0.546,0.044-1.444,0.044-1.444s-0.633,0.643-0.814,1.187c-0.251-0.293-0.637-0.56-0.637-0.56s-0.246,0.494-0.088,0.867
				c0.159,0.374,0.809,0.821,0.809,0.821s0.789,0.017,1.14-0.192C27.546,31.208,27.638,30.664,27.638,30.664z"/>
			<path fill="#699635" d="M27.24,31.962c0,0-0.506,0.125-0.847,0.329c0-0.009,0.002-0.016,0.002-0.024
				c0.03-0.574-0.334-1.407-0.334-1.407s-0.444,0.783-0.479,1.355c-0.317-0.219-0.759-0.378-0.759-0.378s-0.11,0.542,0.141,0.86
				c0.251,0.32,0.995,0.586,0.995,0.586s0.768-0.187,1.05-0.479C27.294,32.513,27.24,31.962,27.24,31.962z"/>
			<path fill="#83BF4F" d="M27.195,33.318c0,0-0.455,0.251-0.732,0.536c-0.002-0.01-0.002-0.017-0.005-0.025
				c-0.119-0.563-0.688-1.272-0.688-1.272s-0.225,0.87-0.109,1.432c-0.362-0.13-0.832-0.17-0.832-0.17s0.035,0.551,0.361,0.796
				c0.325,0.244,1.113,0.31,1.113,0.31s0.693-0.377,0.89-0.731C27.391,33.836,27.195,33.318,27.195,33.318z"/>
			<path fill="#699635" d="M27.506,34.641c0,0-0.375,0.359-0.567,0.705c-0.004-0.008-0.007-0.015-0.012-0.022
				c-0.263-0.513-0.997-1.053-0.997-1.053s0.009,0.898,0.268,1.412c-0.385-0.032-0.849,0.049-0.849,0.049s0.179,0.523,0.557,0.677
				c0.379,0.152,1.156,0.013,1.156,0.013s0.571-0.543,0.669-0.937C27.828,35.09,27.506,34.641,27.506,34.641z"/>
			<path fill="#83BF4F" d="M28.149,35.837c0,0-0.267,0.443-0.364,0.828c-0.006-0.007-0.009-0.013-0.017-0.02
				c-0.388-0.428-1.236-0.76-1.236-0.76s0.242,0.865,0.626,1.294c-0.38,0.068-0.806,0.267-0.806,0.267s0.307,0.459,0.712,0.51
				c0.406,0.05,1.121-0.284,1.121-0.284s0.409-0.671,0.401-1.077C28.579,36.189,28.149,35.837,28.149,35.837z"/>
			<path fill="#699635" d="M29.084,36.829c0,0-0.143,0.496-0.137,0.892c-0.007-0.005-0.013-0.01-0.021-0.015
				c-0.485-0.313-1.394-0.416-1.394-0.416s0.461,0.773,0.942,1.089c-0.349,0.164-0.709,0.465-0.709,0.465s0.418,0.364,0.822,0.309
				s1.008-0.562,1.008-0.562s0.222-0.754,0.107-1.144C29.591,37.058,29.084,36.829,29.084,36.829z"/>
			<path fill="#83BF4F" d="M30.245,37.545c0,0-0.009,0.517,0.101,0.897c-0.008-0.003-0.015-0.007-0.023-0.009
				c-0.551-0.177-1.455-0.044-1.455-0.044s0.647,0.629,1.195,0.811c-0.296,0.248-0.565,0.63-0.565,0.63s0.499,0.245,0.876,0.088
				c0.376-0.158,0.826-0.803,0.826-0.803s0.018-0.784-0.194-1.131C30.794,37.637,30.245,37.545,30.245,37.545z"/>
			<path fill="#699635" d="M35.641,29.511c0,0,0.5-0.143,0.899-0.136c-0.005-0.008-0.01-0.013-0.015-0.021
				c-0.315-0.482-0.419-1.384-0.419-1.384s0.778,0.458,1.096,0.937c0.165-0.348,0.468-0.704,0.468-0.704s0.368,0.413,0.312,0.815
				c-0.056,0.401-0.566,1.001-0.566,1.001s-0.759,0.22-1.151,0.106C35.872,30.014,35.641,29.511,35.641,29.511z"/>
			<path fill="#83BF4F" d="M36.362,30.664c0,0,0.521-0.01,0.904,0.1c-0.002-0.009-0.007-0.016-0.009-0.024
				c-0.179-0.546-0.044-1.444-0.044-1.444s0.633,0.643,0.814,1.187c0.251-0.293,0.637-0.56,0.637-0.56s0.246,0.494,0.088,0.867
				c-0.159,0.374-0.809,0.821-0.809,0.821s-0.789,0.017-1.14-0.192C36.454,31.208,36.362,30.664,36.362,30.664z"/>
			<path fill="#699635" d="M36.76,31.962c0,0,0.505,0.125,0.847,0.329c0-0.009-0.002-0.016-0.002-0.024
				c-0.03-0.574,0.334-1.407,0.334-1.407s0.444,0.783,0.479,1.355c0.317-0.219,0.759-0.378,0.759-0.378s0.11,0.542-0.141,0.86
				c-0.251,0.32-0.995,0.586-0.995,0.586s-0.768-0.187-1.051-0.479C36.706,32.513,36.76,31.962,36.76,31.962z"/>
			<path fill="#83BF4F" d="M36.805,33.318c0,0,0.455,0.251,0.732,0.536c0.002-0.01,0.002-0.017,0.005-0.025
				c0.119-0.563,0.688-1.272,0.688-1.272s0.225,0.87,0.109,1.432c0.362-0.13,0.832-0.17,0.832-0.17s-0.035,0.551-0.361,0.796
				c-0.326,0.244-1.113,0.31-1.113,0.31s-0.693-0.377-0.89-0.731C36.609,33.836,36.805,33.318,36.805,33.318z"/>
			<path fill="#699635" d="M36.494,34.641c0,0,0.375,0.359,0.567,0.705c0.004-0.008,0.007-0.015,0.012-0.022
				c0.263-0.513,0.997-1.053,0.997-1.053s-0.01,0.898-0.268,1.412c0.385-0.032,0.848,0.049,0.848,0.049s-0.178,0.523-0.556,0.677
				c-0.379,0.152-1.156,0.013-1.156,0.013s-0.571-0.543-0.669-0.937C36.171,35.09,36.494,34.641,36.494,34.641z"/>
			<path fill="#83BF4F" d="M35.851,35.837c0,0,0.267,0.443,0.364,0.828c0.006-0.007,0.009-0.013,0.017-0.02
				c0.388-0.428,1.236-0.76,1.236-0.76s-0.243,0.865-0.626,1.294c0.38,0.068,0.806,0.267,0.806,0.267s-0.307,0.459-0.712,0.51
				c-0.406,0.05-1.121-0.284-1.121-0.284s-0.409-0.671-0.401-1.077C35.421,36.189,35.851,35.837,35.851,35.837z"/>
			<path fill="#699635" d="M34.915,36.829c0,0,0.144,0.496,0.138,0.892c0.007-0.005,0.013-0.01,0.021-0.015
				c0.485-0.313,1.394-0.416,1.394-0.416s-0.461,0.773-0.942,1.089c0.349,0.164,0.709,0.465,0.709,0.465s-0.418,0.364-0.822,0.309
				s-1.008-0.562-1.008-0.562s-0.222-0.754-0.107-1.144C34.409,37.058,34.915,36.829,34.915,36.829z"/>
			<path fill="#83BF4F" d="M33.755,37.545c0,0,0.009,0.517-0.101,0.897c0.008-0.003,0.015-0.007,0.023-0.009
				c0.551-0.177,1.455-0.044,1.455-0.044s-0.647,0.629-1.195,0.811c0.295,0.248,0.564,0.63,0.564,0.63s-0.498,0.245-0.875,0.088
				c-0.376-0.158-0.826-0.803-0.826-0.803s-0.018-0.784,0.194-1.131C33.206,37.637,33.755,37.545,33.755,37.545z"/>
		</g>
		<g>
			<g>
				<path fill="#FFCE31" d="M38,35.965H26l6-10L38,35.965z M27.835,34.906h8.33L32,27.963L27.835,34.906z"/>
			</g>
			<polygon fill="#3E4347" points="32.5,30.154 32,30.965 32,30.965 31.5,30.154 31.5,27.775 32,26.965 32,26.965 32.5,27.775 
				32.5,30.154 			"/>
			<circle fill="#C94747" cx="32" cy="30.965" r="2"/>
			<path fill="#FFC7CE" d="M32,29.465c-0.828,0-1.5,0.672-1.5,1.5h3C33.5,30.137,32.828,29.465,32,29.465z"/>
		</g>
		<g>
			<path fill="#FFCC00" d="M41.717,32.423c0-5.366-4.351-9.717-9.717-9.717s-9.717,4.351-9.717,9.717
				c0,3.833,2.226,7.139,5.451,8.72l0.684-1.202c-2.809-1.341-4.753-4.199-4.753-7.518c0-4.604,3.731-8.335,8.335-8.335
				s8.335,3.731,8.335,8.335c0,3.367-2.001,6.262-4.876,7.577l0.492,1.294C39.347,39.779,41.717,36.381,41.717,32.423z"/>
		</g>
	</g>
</g>
</svg>
