<?xml version="1.0" encoding="utf-8"?>
<!-- Generator: Adobe Illustrator 15.0.0, SVG Export Plug-In . SVG Version: 6.00 Build 0)  -->
<!DOCTYPE svg PUBLIC "-//W3C//DTD SVG 1.1//EN" "http://www.w3.org/Graphics/SVG/1.1/DTD/svg11.dtd">
<svg version="1.1" id="Layer_1" xmlns="http://www.w3.org/2000/svg" xmlns:xlink="http://www.w3.org/1999/xlink" x="0px" y="0px"
	 width="64px" height="64px" viewBox="0 0 64 64" enable-background="new 0 0 64 64" xml:space="preserve">
<g>
	<g>
		<path fill="#ED4C5C" d="M62,32.003c0-13.061-8.35-24.166-20-28.285v56.573C53.65,56.172,62,45.064,62,32.003z"/>
		<path fill="#75A843" d="M2,32.003c0,13.061,8.35,24.168,20,28.288V3.718C10.35,7.837,2,18.943,2,32.003z"/>
		<path fill="#FFFFFF" d="M42,3.718c-3.129-1.106-6.492-1.715-10-1.715c-3.507,0-6.872,0.608-10,1.715v56.573
			c3.128,1.105,6.493,1.713,10,1.713c3.508,0,6.871-0.607,10-1.713V3.718z"/>
	</g>
	<g>
		<path fill="#75A843" d="M40.744,31.659c-0.064-0.265-0.156,0.069-0.168,0.207c-0.039-0.265-0.127-0.526-0.27-0.753v0
			c-0.289,0.296-0.371,0.68-0.398,1.079c-0.066-0.296-0.195-0.59-0.492-0.706h-0.002c0.17,0.277,0.109,0.477,0.078,0.786
			c-0.047,0.449,0.309,0.69,0.318,1.13c0.018,0.431-0.178,0.711-0.494,0.976c0.023-0.101,0.014-0.204,0.045-0.307
			c-1.012,0.352-0.811,0.938-0.77,1.765c0.041,0.875-0.488,0.713-1.098,1.176c0.098-0.221,0.102-0.468-0.021-0.678v0.002
			c-0.045,0.556-0.768,0.643-0.922,1.143c-0.078,0.25-0.039,0.555-0.26,0.744c-0.188,0.121-0.48,0.287-0.531,0.524
			c-0.221-0.11-0.443-0.104-0.678-0.06c0.107-0.059,0.197-0.138,0.268-0.238c-1.018-0.457-1.313,0.555-2.168,0.721
			c-0.275-0.019-0.984-0.398-1.018,0.021c0.854-0.006,1.309,0.788,2.045,0.812c0.625,0.021,1.105-0.545,1.73-0.549l0,0
			c-0.057-0.041-0.404-0.192-0.656-0.189c0.473-0.27,0.785-0.914,1.367-0.918c1.047-0.008,1.48-0.234,1.822-1.188
			c-0.107-0.008-0.209,0.013-0.305,0.061c0-0.442,0.447-0.867,0.781-1.111c1.031-0.191,0.859-1.045,1.48-1.67
			c-0.246,0.012-0.418,0.133-0.594,0.311c0.039-0.598-0.143-1.158,0.436-1.575C41.043,32.614,40.932,32.433,40.744,31.659
			C40.732,31.605,40.77,31.767,40.744,31.659z M35.838,38.819l0.002-0.009L35.838,38.819z M38.4,36.66l-0.002,0.002L38.4,36.66z"/>
		<path fill="#75A843" d="M23.256,31.659c-0.187,0.773-0.298,0.955,0.474,1.514c0.577,0.417,0.396,0.978,0.434,1.575
			c-0.174-0.178-0.348-0.299-0.594-0.311c0.623,0.625,0.45,1.479,1.48,1.67c0.335,0.244,0.784,0.669,0.783,1.111
			c-0.096-0.048-0.198-0.068-0.305-0.061c0.342,0.953,0.774,1.18,1.823,1.188c0.581,0.004,0.894,0.648,1.367,0.918
			c-0.253-0.003-0.601,0.148-0.657,0.189l0,0c0.625,0.004,1.106,0.57,1.73,0.549c0.736-0.023,1.192-0.817,2.046-0.812
			c-0.033-0.419-0.742-0.039-1.018-0.021c-0.855-0.166-1.15-1.178-2.169-0.721c0.071,0.101,0.161,0.18,0.269,0.238
			c-0.235-0.045-0.458-0.051-0.677,0.06c-0.052-0.237-0.345-0.403-0.532-0.524c-0.222-0.189-0.183-0.494-0.26-0.744
			c-0.153-0.5-0.877-0.587-0.921-1.143l-0.001-0.002c-0.122,0.21-0.118,0.457-0.021,0.678c-0.608-0.463-1.14-0.301-1.098-1.176
			c0.041-0.827,0.241-1.413-0.77-1.765c0.03,0.103,0.021,0.206,0.043,0.307c-0.316-0.265-0.512-0.545-0.493-0.976
			c0.01-0.44,0.365-0.682,0.319-1.13c-0.032-0.31-0.093-0.509,0.077-0.786h-0.002c-0.296,0.116-0.425,0.41-0.492,0.706
			c-0.028-0.399-0.109-0.783-0.397-1.079l0,0c-0.142,0.227-0.231,0.488-0.27,0.753C23.412,31.729,23.321,31.395,23.256,31.659
			C23.23,31.767,23.269,31.605,23.256,31.659z M28.161,38.811l0.003,0.009L28.161,38.811z M25.603,36.662L25.6,36.66L25.603,36.662z
			"/>
		<path fill="#428BC1" d="M34.656,37.652c-0.168-0.049-0.295-0.15-0.381-0.304c0.043-0.208,0.762-0.36,0.949-0.386
			c0.004-0.081,0.008-0.162,0.014-0.242c-1.33,0.414-5.224,0.65-6.006-0.688c-0.438,0.56-1.083,0.151-1.843-0.304
			c0.146,0.188,0.533,1.204,0.469,1.08c0.2,0.08,1.51,0.359,1.528,0.679c-0.07,0.144-0.181,0.231-0.334,0.263
			C31.217,38.553,32.487,38.768,34.656,37.652z"/>
		<path fill="#ED4C5C" d="M33.373,37.715c0.086-0.105,0.141-0.24,0.141-0.378c0-0.038-0.07-0.265-0.064-0.271
			c0.219-0.24,0.037-0.73-0.314-0.561c-0.162,0.078-0.088,0.109-0.273,0.033c-0.063-0.025-0.127-0.066-0.195-0.07
			c-0.244-0.012-0.49-0.025-0.734-0.037c-0.208-0.01-0.491,0.008-0.724,0.019c-0.147,0.007-0.296-0.021-0.447-0.005
			c-0.161,0.016-0.224-0.057-0.357-0.104c-0.183-0.064-0.332,0.078-0.375,0.248c-0.044,0.172,0.132,0.215,0.132,0.343
			c-0.001,0.103-0.139,0.221-0.134,0.36c0.005,0.154,0.088,0.299,0.194,0.406c-0.41,0.338,0.049,0.832,0.375,0.469
			c0.087,0.227,0.447,0.21,0.652,0.218c0.357,0.015,0.716,0.017,1.074,0.017c0.205,0,0.631,0.055,0.748-0.164
			C33.443,38.547,33.773,37.9,33.373,37.715z"/>
		<path fill="#428BC1" d="M36.641,35.143c-0.84-1.041-1.242,0.496-2.139,0.447c0.219-1.152-1.574-0.824-2.119-0.481
			c0.125-0.138,0.198-0.323,0.318-0.466c-0.381,0.049-0.874,0.174-1.212-0.06c-0.615-0.425-1.434-0.626-1.874,0.12
			c-0.438-0.553-1.492-1.219-2.113-0.557c-0.006-0.623-0.567-1.486-1.282-1.392c-0.78,0.103-0.473,1.11-0.079,1.45
			c0.314,0.271,0.727,0.396,1.137,0.381c-0.027,0.168,0.077,0.315,0.198,0.422c0.465,0.412,1.506,0.549,2,0.123
			c0.041,1.025,1.963,1.008,2.49,0.475c-0.203,0.479-0.379,1.504,0.326,1.463c0.57-0.035,0.439-0.586,0.926-0.85
			c0.43-0.232,0.871-0.252,1.295-0.082C35.121,36.381,37.316,36.309,36.641,35.143C36.641,35.143,36.715,35.271,36.641,35.143z"/>
		<path fill="#6C4119" d="M29.039,25.415L29.039,25.415L29.039,25.415z"/>
		<path fill="#75A843" d="M28.358,32.637c-0.073-0.22-0.303-0.366-0.342-0.404c-0.356,0.111-0.444-0.192-0.515-0.482
			c-0.111-0.455-0.82-0.662-0.82-1.1c-0.001-0.434,0.405-0.788,0.071-1.211c-0.279-0.354-0.756-0.584-0.814-0.369
			c-0.055,0.203,0.425,0.233,0.425,0.728c0.002,0.641-0.587,1.073,0.087,1.638c0.517,0.431,0.503,1.573,1.265,1.573
			C28.014,33.008,28.275,32.912,28.358,32.637z"/>
		<path fill="#717732" d="M27.986,32.292L27.986,32.292L27.986,32.292z"/>
		<path fill="#75A843" d="M29.854,32.106c-0.247-0.448,0.006-0.962-0.447-1.346c-0.477-0.404-1.523,0.388-1.586-0.617
			c-0.014-0.218,1.148-1.405,1.256-1.528c0.304-0.35,0.25-1.138-0.09-1.331c-0.413-0.235-0.542,0.046-0.813,0.368
			c0.134,0.077,0.458,0.267,0.455,0.431c-0.296,0.654-1.161,0.767-1.419,1.46c-0.198,0.529-0.107,1.314,0.389,1.649
			c0.266,0.181,0.522,0.189,0.813,0.163c0.904-0.079,0.374,0.078,0.507,0.325C29.068,31.953,29.445,32.651,29.854,32.106z"/>
		<path fill="#75A843" d="M26.881,27.211c0.024,0.588,0.597,0.466,1.046,0.437c-0.035-0.188,0.029-0.41,0.112-0.613
			c-0.155,0.057-0.452,0.114-0.604,0.034c-0.334-0.236,0.685-0.588,0.58-0.632c-0.027-0.011-1.013,0.522-0.581-0.065
			c0.127-0.173,0.292-0.447,0.385-0.635c0.112-0.227-0.302,0.028-0.272,0.025c-0.135,0.015-0.194-0.025-0.321,0.078
			C26.634,26.302,26.802,26.565,26.881,27.211C26.881,27.211,26.855,27,26.881,27.211z"/>
		<path fill="#89664C" d="M37.516,27.182c-0.498-0.654-2.377-2.96-5.119-3.177c-0.307-0.024-1.093,0.262-1.35,0.425
			c-0.894,0.57,1.006,1.061,1.113,1.531c0.039,0.164,0.065,0.335,0.09,0.509c-0.264-0.522-0.646-0.835-0.66-0.951
			c-0.468,0.223-1.321-0.132-1.396-0.595l0,0l0,0c-0.055,0.187-0.122,0.321-0.262,0.463c-0.019-0.3-0.079-0.295-0.179-0.488
			c0.025,0.294,0.007,0.693-0.306,0.803c0.15-0.161,0.039-0.438-0.091-0.556c0.037,0.264-0.031,0.541-0.21,0.742
			c0.052-0.208-0.077-0.333-0.107-0.472l0,0c-0.074,0.756-1.184,1.116-0.143,1.395c0.409,0.11,0.613-0.035,0.974,0.169
			c0.092,0.052,0.254,0.251,0.301,0.243c-0.037,0.146-0.377,0.509-0.107,0.551c-0.054,0.085-0.43,0.747-0.436,0.746
			c0.284,0.04,0.052,0.214-0.057,0.427c-0.276,0.547,0.043,1.04,0.126,1.604c-0.03-0.192,0.334,0.121,0.346,0.389
			c0.02,0.437,0.416,0.552,0.517,0.901c-0.513-0.452-0.597,0.008-0.029,0.283c-0.465,0.038-0.61,0.327-0.147,0.543
			c-1.213,0.026-0.236,0.54-0.017,0.606c0.757,0.231,1.363-0.443,1.36-0.549c-0.001,0,1.631,1.58,1.715,1.56
			c0.068-0.015,0.887-0.44,1.076-0.218c0.217,0.26,0.438-0.006,0.598,0.113c0.215,0.162,0.99,0.026,1.225-0.1
			c0.066-0.036,1.092-0.243,0.932-0.393c0.012,0.01,0.027,0.024,0,0c-0.01-0.01-0.006-0.008,0,0
			c-0.479-0.447-1.059-0.818-1.582-1.206c-0.479-0.356-0.955-0.715-1.432-1.074c-0.246-0.187-0.238-0.557-0.32-0.894
			c0.893,0.892,1.832,1.394,1.705-0.331c0.584,0.45,1.779,3.254,1.908,3.254c0.268,0,0.049-3.032,0.033-3.292
			c0.438,0.375,0.365,3.693,0.451,3.69C38.461,33.816,39.209,29.404,37.516,27.182z M29.718,26.833"/>
		<path fill="#FFCE31" d="M30.309,32.328c-0.141-0.005-0.581-0.665-0.618-0.801c0.321,1.168-0.917,0.521-0.632-0.013
			c-0.443-0.058-1.413,0.541-0.978,1.054c-0.2,0.448,1.38,0.144,1.542-0.054C30.031,33.385,31.029,32.355,30.309,32.328
			C30.159,32.323,30.511,32.336,30.309,32.328z"/>
		<path fill="#FFCE31" d="M34.971,35.307c0.479-0.719-1.58-0.9-1.363-1.736c-0.266,0.205-0.668,0.945-1.118,0.7
			c-0.237-0.13-1.049,0.362-0.564,0.71h0.004c0.026-0.414,0.199-0.125,0.477-0.17c-0.11,0.274-0.384,0.598,0.099,0.762
			c-0.189-0.533,0.581-0.234,0.446-0.595c-0.174-0.19,0.705-0.179,0.756-0.177c0.26,0.01,1.254,0.275,0.885,0.568
			C34.707,35.422,34.891,35.428,34.971,35.307C34.973,35.303,34.945,35.344,34.971,35.307z"/>
		<path fill="#FFCE31" d="M28.287,26.7c-0.12,0.25-0.545,0.487-0.46,0.82c0.035,0.21,0.5,0.694,0.741,0.428
			c-0.599-0.42,0.077-0.707,0.371-0.702c0.116,0.002,0.125,0.19,0.138,0.21c0.095,0.138,0.885-0.176,0.849-0.409
			C29.861,26.633,28.562,26.597,28.287,26.7z M28.284,26.704L28.284,26.704L28.284,26.704z"/>
	</g>
</g>
</svg>
