<?xml version="1.0" encoding="utf-8"?>
<!-- Generator: Adobe Illustrator 15.0.0, SVG Export Plug-In . SVG Version: 6.00 Build 0)  -->
<!DOCTYPE svg PUBLIC "-//W3C//DTD SVG 1.1//EN" "http://www.w3.org/Graphics/SVG/1.1/DTD/svg11.dtd">
<svg version="1.1" id="Layer_1" xmlns="http://www.w3.org/2000/svg" xmlns:xlink="http://www.w3.org/1999/xlink" x="0px" y="0px"
	 width="64px" height="64px" viewBox="0 0 64 64" enable-background="new 0 0 64 64" xml:space="preserve">
<g>
	<circle fill="#FFCE31" cx="32" cy="32" r="30"/>
	<circle fill="#ED4C5C" cx="31.979" cy="31.961" r="27"/>
	<path fill="#FFCE31" d="M45.616,31.336l2.516-1.193l1.135-1.613l-0.127-0.377l-1.391,0.982l-1.162,0.455l-0.213,0.021l1.666-1
		l1.117-2.117l-0.213-0.387l-1.201,1.252l-1.252,0.885l-0.133-0.029l2.127-2.545l0.357-2.045l-0.215-0.143l-1.424,2.32l-0.58,0.611
		l-0.072-0.072l1.182-1.994l0.396-2.098l-0.285-1.313l-0.215-0.113l-0.752,2.373l-0.865,1.648l-0.082-0.061l0.906-3.563
		l-0.336-2.697l-0.381-0.553l-0.266,2.455l-0.738,2.213l-0.059-0.139l0.344-1.619l-0.174-2.842l-0.795-1.457l-0.619,4.611
		l-0.271,0.078l-0.9,2.502l-0.879,1.285l-0.197-0.428l-0.23-0.023l-1.215,1.887l-1.168,1.969l0.832,1.297l0.475,0.822l-0.844,0.498
		l-0.971,0.07l-0.336,0.486l-0.383,0.277l-0.129,0.018l0.643-2.518l-1.887-2.217l-0.291,0.137l-0.057-0.084l-0.332-1.004
		l0.451,0.043l-0.008-0.369l-0.068-0.941l0.051-0.301l0.445,0.301l0.18-0.361l0.393-0.84l0.641,0.207l1.172-0.445l0.357-0.438
		l1.205,0.266l1.342-0.609l-0.137-1.139h-0.23l-0.307,0.771l-0.863,0.102l-1.197-0.146l-0.494,0.104l0.793-0.539l0.752,0.197
		l0.342,0.043l-0.127-1.037l-0.924-0.395l-0.52,0.102l-0.693-0.658l-1.795,0.393l-0.828-0.025l-0.705-0.35l0.141-0.457l0.246-0.084
		l0.115-0.191l-0.236-0.287l0.377-0.527l0.367-0.18l0.34-0.027l0.098-0.115l0.25-0.17l0.029-0.398l-0.041-0.213l0.133-0.313
		l0.006-0.129l0.135-0.262l-0.189-0.318l-0.109-0.018l-0.121-0.301l-0.184-0.244l0.037-0.201l-0.238-0.258h-0.201l-0.475-0.273
		l-0.189-0.098l-0.061-0.209l-0.25-0.104l-0.141,0.037l-0.773-0.178l-0.238-0.055l-0.676-0.27l-0.244-0.055l0.209-0.514l-0.365-0.65
		l-0.205-0.1l-0.004-0.189l0.367,0.037l0.029-0.588l-0.357,0.045l0.055-0.355l-0.746-0.01l0.055,0.355l-0.359-0.023l0.029,0.58
		l0.379-0.049l-0.037,0.219l-0.256,0.111l-0.348,0.617l0.178,0.52L31.19,14.34l-0.676,0.27l-0.238,0.055l-0.773,0.178l-0.141-0.037
		l-0.25,0.104l-0.061,0.209l-0.189,0.098l-0.477,0.273h-0.199l-0.238,0.258l0.037,0.201l-0.184,0.244l-0.121,0.301l-0.111,0.018
		l-0.188,0.318l0.133,0.262l0.006,0.129l0.135,0.313l-0.043,0.213l0.031,0.398l0.25,0.17l0.098,0.115l0.34,0.027l0.367,0.18
		l0.377,0.527l-0.236,0.285l0.115,0.193l0.244,0.084l0.143,0.455l-0.705,0.352l-0.828,0.025l-1.795-0.393l-0.693,0.658l-0.52-0.102
		l-0.924,0.393l-0.129,1.039l0.342-0.043l0.752-0.197l0.795,0.539l-0.496-0.104l-1.195,0.146l-0.863-0.104l-0.309-0.77h-0.23
		l-0.137,1.139l1.342,0.609l1.205-0.266l0.359,0.436l1.172,0.447l0.641-0.207l0.393,0.84l0.18,0.361l0.443-0.301l0.051,0.301
		l-0.066,0.941l-0.01,0.369l0.453-0.043l-0.334,1.004l-0.053,0.078l-0.279-0.131l-1.885,2.217l0.641,2.529v-0.012l-0.137-0.018
		l-0.383-0.277l-0.334-0.486l-0.973-0.07l-0.844-0.498l0.475-0.822l0.832-1.297l-1.168-1.969l-1.215-1.887l-0.23,0.023l-0.197,0.428
		l-0.879-1.285l-0.9-2.502l-0.271-0.078l-0.619-4.611l-0.795,1.457l-0.172,2.842l0.342,1.619l-0.057,0.139l-0.74-2.213l-0.268-2.455
		l-0.379,0.553l-0.336,2.697l0.906,3.563l-0.082,0.061l-0.865-1.648l-0.752-2.373l-0.215,0.113l-0.285,1.313l0.396,2.098
		l1.182,1.994l-0.072,0.072l-0.58-0.611l-1.424-2.32l-0.215,0.143l0.357,2.045l2.127,2.545l-0.133,0.029l-1.252-0.885l-1.201-1.252
		l-0.213,0.387l1.117,2.117l1.666,1l-0.215-0.021l-1.16-0.455l-1.391-0.982l-0.127,0.377l1.135,1.613l2.516,1.193l0.107,0.102
		l-0.881-0.184l-2.152-0.938l-0.307,0.139l1.146,1.654l2.223,0.619l0.092,0.072l-1.072-0.057l-1.416-0.365l-0.063-0.262
		l-0.158-0.096l-0.246,0.146L15.722,32.1l-0.043-0.383l-0.146-0.086l-0.598,0.256l0.063,0.309l0.186,0.334l-0.467,0.123
		l-0.051,0.188l0.248,0.586l0.146,0.045l0.354-0.209l0.123,0.475l-0.342,0.162l0.08,0.352l0.744,0.674l0.518,2.838l1.209,2.244
		l0.055,0.162l-0.072,0.459l0.42,0.484l0.09,0.17v0.863l0.645,1.293l0.117,0.205l-0.25,0.127l-0.43,0.475l-0.037,0.584l0.43,0.512
		l-0.088,0.217l0.305,0.564l0.518,0.217l0.045,0.287l0.385,0.314l0.537-0.018l0.27,0.125l0.045,0.746l-0.045,0.457l0.402-0.072
		l0.367,0.072l0.457,0.18l0.035-0.305l0.088-0.484l0.494-0.127l0.225-0.17l-0.42-0.242l-0.539-0.369l-0.098-0.225l0.125-0.188
		l0.018-0.234l0.225-0.232l0.26-0.289l0.35-0.592l0.455-0.432l0.699-0.584l0.76-0.395l0.135,0.494l0.967-0.576l1.119-0.609
		l0.305,0.422l1.102-1.086l1.738-1.918l0.172,0.078l-0.047,0.139l-0.34,0.678l-0.65,0.805l-0.33,1.133l0.215,0.518l-0.51,0.668
		l-0.178,0.865l-0.205,0.322L27.3,46.207l-0.99,0.652l-0.088,0.383l0.633,0.42l0.633,0.063l-0.043,0.248l-0.188,0.75l0.598,0.215
		l0.695-0.215l-0.035,0.1l-0.055,0.445l0.125,0.482l0.357-0.117l0.598-0.213l0.393-0.188l-0.09,0.285l0.037,0.66l0.365,0.553
		l0.383-0.125l0.438-0.508l0.215,0.705l0.838,1.158l0.838-1.158l0.215-0.705l0.438,0.508l0.383,0.125l0.367-0.553l0.035-0.66
		l-0.09-0.285l0.393,0.188l0.598,0.213l0.357,0.117l0.125-0.482l-0.053-0.445l-0.037-0.1l0.697,0.215l0.598-0.215l-0.188-0.75
		l-0.045-0.248l0.633-0.063l0.635-0.42l-0.09-0.383l-0.99-0.652l-0.775-0.713l-0.205-0.322l-0.18-0.865l-0.508-0.668l0.215-0.518
		l-0.332-1.133l-0.65-0.805l-0.34-0.678l-0.045-0.135l0.23-0.102l1.742,1.922l1.102,1.086l0.303-0.422l1.119,0.611l0.967,0.574
		l0.102-0.334l0.783,0.252l0.738,0.287l1.047,0.699l1.654,0.133l2.793-0.973l1.148-0.639l0.139-0.605l-0.186-0.346l-0.012-0.213
		l-0.127-0.428l-0.072-0.453l-1.092-1.727l-0.072-0.121l-0.141-0.084l0.008-0.455l0.076-0.047l0.223,0.137l0.193-0.168l0.15-0.48
		l-0.057-0.152l-0.283-0.049l-0.059-0.061l0.143-0.254l-0.084-0.188l-0.629-0.178l-0.143,0.129l0.008,0.342l-0.115,0.037
		l-0.225-0.146l-0.17,0.084l-0.158,0.561l0.021,0.209h0.377l0.053,0.07l-0.178,0.303l-0.221,0.098l-0.273-0.002l-1.182,0.398
		l-0.719,0.861l-0.244,0.205l-0.297,0.438l-0.166,0.359l-0.104,1.08l0.502,0.797l-0.078,0.217l-0.371-0.23l-1.105-0.848
		l-0.076-0.193l0.244-0.064l0.025-0.217l-0.59-0.332l0.035-0.277l0.252-0.414l-0.932-0.225l-0.314-0.16l0.189-0.271l-0.027-0.242
		l-1.004-0.25l-1.461-1.625l0.012-0.018l1.006,0.852l0.625-0.428l-0.395-0.51l0.127,0.012l1.602,0.693l1.059-0.336l-0.344-0.363
		l0.107-0.082l1.457,0.025l1.104-0.768l-0.807-0.17l-0.18-0.189l1.641,0.012l0.809-0.928l-0.895-0.225l-0.316-0.154l1.783-0.133
		l0.885-1.158l-0.021-0.18l-1.348,0.186l-0.758-0.057l2.428-0.543l0.859-1.475l-1.498,0.395l-1.072,0.057l0.092-0.072l2.223-0.619
		l1.146-1.654l-0.307-0.137l-2.152,0.936l-0.879,0.184l0.08-0.113L45.616,31.336L45.616,31.336z M16.532,33.193l-0.326,0.186
		l-0.164-0.344l0.027-0.113l0.287-0.051l0.043-0.008l0.143,0.324l-0.012,0.008L16.532,33.193L16.532,33.193z M26.448,39
		l-1.127,0.926l-1.004,0.25l-0.027,0.242l0.189,0.271l-0.314,0.16l-0.932,0.225l0.252,0.414l0.035,0.277l-0.59,0.332l0.025,0.217
		l0.637,0.162l-0.295,0.232l-1.119,0.377l-1.52,0.01l-0.74-0.045l-0.07-0.551l-0.396-1.008l-0.473-0.641l0.031-0.199l-0.07-0.424
		l-0.467-0.496l-0.016-0.418l-0.264-1.367l-1.008-1.814l-0.531-1.691l-0.021-0.852l0.063-0.168l0.449,0.402l2.43,0.543l-0.758,0.057
		l-1.35-0.186l-0.02,0.18l0.885,1.158l1.783,0.133L19.8,35.861l-0.895,0.227l0.809,0.926l1.641-0.01l-0.18,0.189l-0.807,0.17
		l1.104,0.768l1.457-0.025l0.107,0.082l-0.344,0.363l1.059,0.336l1.6-0.693l0.129-0.012l-0.395,0.51l0.625,0.428l1.008-0.857
		l0.01,0.014l0.029,0.037l-0.307,0.686L26.448,39L26.448,39z M35.028,15.988l-0.146-0.27l0.639,0.457l0.27,0.545l-0.035,0.605
		l0.01,0.447l0.086,0.123l-0.346,0.111l-0.506,0.025l-0.076-0.24l0.395-0.635l-0.287-1.17H35.028L35.028,15.988z M32.843,17.316
		l0.059-0.928l-0.156-1.172l0.723,0.453l0.521,0.982l-0.117,0.621l0.053,0.355l-0.297,0.162l-0.451,0.146l-0.469-0.174l-0.203-0.074
		l0.336-0.373H32.843L32.843,17.316z M30.769,15.67l0.723-0.453l-0.156,1.172l0.059,0.928l0.34,0.373l-0.205,0.074l-0.469,0.174
		l-0.451-0.146l-0.297-0.162l0.055-0.355l-0.119-0.621l0.523-0.982H30.769L30.769,15.67z M29.237,18.033l-0.508-0.025l-0.346-0.111
		l0.088-0.123l0.01-0.447l-0.035-0.605l0.268-0.545l0.639-0.457l-0.146,0.27l-0.289,1.17l0.396,0.637l-0.078,0.238H29.237
		L29.237,18.033z M34.903,22.117l-0.643,0.352l0.395,0.301l-0.684,0.6l-0.65,0.309l-0.051,0.205l0.281,0.369l0.146,0.068
		l-0.752,0.736l-0.547,0.318l-0.053,0.523l0.301,0.352l0.008,0.281l-0.531,0.723l-0.008,0.004l-0.533-0.727l0.008-0.281l0.299-0.352
		l-0.051-0.523l-0.547-0.318L30.54,24.32l0.146-0.068l0.281-0.369l-0.051-0.205l-0.65-0.309l-0.684-0.6l0.393-0.301l-0.641-0.352
		l-0.555-0.523l0.727-0.65l0.096-0.463l0.018,0.006l2.5,0.355l2.496-0.355l0.02-0.006l0.096,0.463l0.727,0.65l-0.555,0.525V22.117
		L34.903,22.117z"/>
	<g>
		<rect x="27" y="31" fill="#428BC1" width="10" height="6"/>
		<polygon fill="#83BF4F" points="32,43 36,39 28,39 32,43 		"/>
		<polygon fill="#FFCE31" points="30.258,36.504 29.697,37 31.081,37 31.35,36.577 32.453,35.656 33.117,36.577 33.274,37 
			34.303,37 34.068,36.516 34.912,35.656 35.348,35.398 35.457,32.438 34.654,32.941 34.902,34.466 33.783,33.59 31.639,33.59 
			31.842,32.996 30.912,32 29.982,32.996 30.234,33.669 29.48,34.453 28.705,34.06 28.236,34.92 29.441,35.506 30.258,36.504 		"/>
	</g>
</g>
</svg>
