<?xml version="1.0" encoding="utf-8"?>
<!-- Generator: Adobe Illustrator 15.0.0, SVG Export Plug-In . SVG Version: 6.00 Build 0)  -->
<!DOCTYPE svg PUBLIC "-//W3C//DTD SVG 1.1//EN" "http://www.w3.org/Graphics/SVG/1.1/DTD/svg11.dtd">
<svg version="1.1" id="Layer_1" xmlns="http://www.w3.org/2000/svg" xmlns:xlink="http://www.w3.org/1999/xlink" x="0px" y="0px"
	 width="64px" height="64px" viewBox="0 0 64 64" enable-background="new 0 0 64 64" xml:space="preserve">
<g>
	<circle fill="#699635" cx="32" cy="32" r="30"/>
	<g>
		<path fill="#FFCE31" d="M47.68,28.8C46.195,36.103,39.74,41.6,32,41.6s-14.195-5.497-15.68-12.8C16.111,29.834,16,30.904,16,32
			c0,8.837,7.164,16,16,16s16-7.163,16-16C48,30.904,47.889,29.834,47.68,28.8z"/>
		<polygon fill="#FFCE31" points="26.561,32 32,28.247 37.439,32 35.385,25.895 40.801,22 34.092,22 32,16 29.97,22 23.199,22 
			28.615,25.895 		"/>
	</g>
</g>
</svg>
