<?xml version="1.0" encoding="utf-8"?>
<!-- Generator: Adobe Illustrator 15.0.0, SVG Export Plug-In . SVG Version: 6.00 Build 0)  -->
<!DOCTYPE svg PUBLIC "-//W3C//DTD SVG 1.1//EN" "http://www.w3.org/Graphics/SVG/1.1/DTD/svg11.dtd">
<svg version="1.1" id="Layer_1" xmlns="http://www.w3.org/2000/svg" xmlns:xlink="http://www.w3.org/1999/xlink" x="0px" y="0px"
	 width="64px" height="64px" viewBox="0 0 64 64" enable-background="new 0 0 64 64" xml:space="preserve">
<g>
	<g>
		<path fill="#699635" d="M60.448,22.494l-8.195-2.196v-0.001L11.735,43.689h0.002l-2.196,8.195l0,0
			c3.768,4.262,8.783,7.504,14.688,9.086c16.004,4.288,32.454-5.209,36.742-21.213C62.555,33.852,62.255,27.888,60.448,22.494z"/>
		<path fill="#2A5F9E" d="M39.759,3.016C23.755-1.272,7.305,8.225,3.017,24.229C1.434,30.135,1.734,36.1,3.541,41.494l3.682,0.986
			l4.513,1.209l40.518-23.393l1.209-4.513l0.986-3.683C50.681,7.841,45.665,4.598,39.759,3.016z"/>
		<path fill="#FFE62E" d="M3.54,41.493c0.641,1.91,1.464,3.749,2.467,5.487l0.015,0.024c1.004,1.738,2.185,3.372,3.52,4.88
			l50.907-29.391c-1.282-3.829-3.325-7.368-6-10.393L3.54,41.493z"/>
	</g>
	<g>
		<polygon fill="#FFFFFF" points="18.994,20.52 20.993,21.868 20.237,19.675 22.229,18.315 19.764,18.307 18.994,16.118 
			18.226,18.307 15.76,18.315 17.751,19.675 16.995,21.868 		"/>
		<polygon fill="#FFFFFF" points="13.604,14.769 15.603,16.118 14.848,13.925 16.838,12.564 14.373,12.557 13.604,10.368 
			12.835,12.557 10.369,12.564 12.359,13.925 11.605,16.118 		"/>
		<polygon fill="#FFFFFF" points="24.385,14.769 26.383,16.118 25.629,13.925 27.619,12.564 25.154,12.557 24.385,10.368 
			23.616,12.557 21.15,12.564 23.141,13.925 22.386,16.118 		"/>
		<polygon fill="#FFFFFF" points="13.604,26.27 15.603,27.618 14.848,25.424 16.838,24.064 14.373,24.058 13.604,21.868 
			12.835,24.058 10.369,24.064 12.359,25.424 11.605,27.618 		"/>
		<polygon fill="#FFFFFF" points="24.385,26.27 26.383,27.618 25.629,25.424 27.619,24.064 25.154,24.058 24.385,21.868 
			23.616,24.058 21.15,24.064 23.141,25.424 22.386,27.618 		"/>
	</g>
</g>
</svg>
