<?xml version="1.0" encoding="utf-8"?>
<!-- Generator: Adobe Illustrator 15.0.0, SVG Export Plug-In . SVG Version: 6.00 Build 0)  -->
<!DOCTYPE svg PUBLIC "-//W3C//DTD SVG 1.1//EN" "http://www.w3.org/Graphics/SVG/1.1/DTD/svg11.dtd">
<svg version="1.1" id="Layer_1" xmlns="http://www.w3.org/2000/svg" xmlns:xlink="http://www.w3.org/1999/xlink" x="0px" y="0px"
	 width="64px" height="64px" viewBox="0 0 64 64" enable-background="new 0 0 64 64" xml:space="preserve">
<g>
	<path fill="#699635" d="M2,31.999C2,43.51,8.486,53.502,18,58.531V5.466C8.486,10.497,2,20.488,2,31.999z"/>
	<path fill="#699635" d="M62,31.999c0-11.511-6.486-21.502-16-26.533v53.065C55.514,53.502,62,43.51,62,31.999z"/>
	<path fill="#FFFFFF" d="M32,1.999c-5.058,0-9.819,1.257-14,3.467v53.065C22.181,60.742,26.942,62,32,62s9.819-1.258,14-3.469V5.466
		C41.819,3.256,37.058,1.999,32,1.999z"/>
	<path fill="#699635" d="M32.315,13.06c-0.076,0.826-0.153,1.653-0.229,2.48c-0.28,0.042-0.56,0.084-0.84,0.126
		c0,0,0.583,0.327,0.686,0.656l-0.014,0.129l-0.031,0.03c-0.168,0.131-0.668,0.069-0.668,0.069s0.662,0.559,0.713,0.761l0.002,0.014
		v0.014l-0.005,0.011l-0.022,0.03c-0.155,0.144-0.889,0.185-0.889,0.185s0.813,0.58,0.864,0.909c0.046,0.297,0.007,0.472,0,0.502
		c-0.057-0.049-1.369-1.15-2.216-0.829l-0.077,0.063l-0.003,0.033c0.059,0.184,1.257,0.371,2.091,1.093
		c-0.021,0.181-2.379-0.574-2.466-0.101c0.073,0.133,2.538,0.487,2.721,0.81c-0.908,0.033-2.783-0.199-2.721,0.099
		c-0.19,0.346,1.771,0.15,2.594,0.432c0.241,0.272,0.218,0.502-0.202,0.53c-0.793-0.377-2.567-0.657-2.572-0.176v0.003l0.003,0.002
		l0.003,0.006l0.015,0.009c0.2,0.1,1.853,0.051,2.475,0.461c-0.882,0.2-3.873-0.404-3.893-0.11c0.085,0.139,0.559,0.742,1.374,0.717
		c0.813-0.024,2.697,0.33,2.825,0.583l0.003,0.021c-0.056,0.177-2.481-0.537-3.414-0.098c-0.968,0.455,2.772,0.179,3.384,0.735
		c0.61,0.557-1.221-0.053-1.221-0.053s-2.545-0.353-2.926-0.175c-0.383,0.177-0.814,0.582-0.814,0.582s0.253,0.505,0.508,0.403
		l0.08-0.013h0.003l0.003,0.003l0.003,0.002l0.002,0.003l0.003,0.003l0.003,0.01l-0.174,0.298c0,0,3.563,0.858,4.353,1.617
		c0.79,0.759-4.529-1.189-4.529-1.189s-2.139,0.784,0.127,0.835c-0.253,0.367,0.104,0.593,0.127,0.607c0,0,3.768,0.785,4.149,1.392
		c0.381,0.607-2.57-0.584-3.232-0.912c-0.639-0.317-2.415,0.168-2.517,0.316l-0.002,0.006v0.002v0.006v0.004v0.002l0.002,0.002
		v0.004l0.006,0.008l0.003,0.002c0.113,0.125,0.906,0.297,0.931,0.512v0.002l-0.009,0.035c-0.1,0.193-1.046,0.275-1.085,0.457
		l-0.003,0.012c0,0.201,4.761,1.188,6.032,2.252c1.273,1.062-3.739-1.268-3.739-1.268s0.279,0.381,0,0.48
		c-0.28,0.102-1.274-1.416-2.903-0.48c-0.297,0.387,1.422,0.691,1.859,0.734c-0.149,0.381-0.279,0.508,0.331,0.887l0.119,0.08
		l0.003,0.004l0.002,0.002v0.002v0.004h-0.002h-0.003c-0.095-0.016-1.192-0.576-1.307-0.6h-0.006h-0.003l0.127,0.658
		c-0.563-0.455-1.245-0.592-1.884-0.125c-0.001,0.027-0.006,0.462,0.635,0.732c-0.361,0.735,0.408,0.508,1.63,1.19
		c-1.814-0.473-1.96,0.404-0.662,0.607s4.861,0.33,5.701,1.418c0.178,0.229,0.226,0.344,0.19,0.381
		c-0.14,0.127-1.429-0.801-1.616-0.834h-0.002l-0.003,0.002l-0.009,0.014c-0.046,0.102-0.088,0.539-0.088,0.539
		c-0.543-0.313-1.041-0.594-1.69-0.727c-0.052,0.102-0.041,0.246-0.092,0.348c-0.589-0.424-1.103-0.721-1.958-0.762
		c-0.034,0.135-0.068,0.271-0.103,0.406c0,0-0.713-0.885-2.113,0c-0.781,0.557,2.953,0.203,3.563,0.859
		c0.611,0.658,0.127,0.76,0.127,0.76c-0.509-0.188-1.016-0.369-1.524-0.555c0,0-1.81-0.332-2.317,0.072
		c-0.51,0.406,7.431,1.393,7.66,2.48c0.153,0.59-1.866-0.617-3.613-1.137c-0.068,0.193-0.137,0.387-0.205,0.58
		c-0.041-0.041-0.717-0.695-1.475-0.809l-0.003,0.004v0.006l0.155,0.674c0,0-1.959-0.91-2.95-0.43
		c-0.993,0.48,3.46,0.734,3.867,1.189l0.061,0.109l-0.006,0.014c-0.099,0.143-1.426-0.385-1.558-0.123
		c-0.152,0.303-2.315-0.557-2.29-0.152c0.025,0.406,0.307,0.633,0.307,0.633s4.504,0.43,4.656,0.961
		c0.154,0.531-2.493-0.303-2.493-0.303s-0.257,0.379-0.053,0.555l0.017,0.018v0.002h-0.003c-0.092-0.029-1.526-0.963-1.387-0.246
		c-0.562-0.223-2.01-0.91-1.807-0.379c0.201,0.523,3.979,1.268,4.091,1.291c-0.1,0.008-1.698,0.141-1.624,0.557
		c-2.142-1.297-2.137-0.52-2.088-0.459v0.004c-0.121-0.02-2.756-0.672-0.661,0.455c1.125,0.605,1.398,0.84,1.403,0.932v0.008
		l-0.002,0.008l-0.003,0.004l-0.003,0.004l-0.003,0.004l-0.003,0.002l-0.002,0.004l-0.003,0.002l-0.18,0.018h-0.006l-0.002,0.002
		l0.002,0.002l0.186,0.568l-0.003,0.006v0.004h-0.003v0.002h-0.003h-0.003c-0.091-0.023-1.479-0.76-1.955-0.811
		c-0.484-0.051-2.774,0.633-0.332,1.695c2.443,1.063,3.944-0.254,5.292-0.102c1.35,0.152,1.987,0.379,1.859,0.811
		c-0.127,0.43-1.38-1.412-2.695,0.182c-1.497-0.297-2.514-0.467-1.74,0.627c-2.445-0.908-3.938,0.277-0.859,0.76
		c3.026,0.088,4.887-0.734,4.887-0.734s0.511,0.939,1.248,0.281c0.703-0.629,0.759,0.17,0.784,0.246l0.003,0.004v0.002h0.003
		l0.711-0.305h0.179v6.072c0.823,0.008,1.645,0.016,2.467,0.025c0,0-0.788-5.287-0.356-5.996c0.419-0.686,0.815-0.611,0.84-0.607
		c0,0,1.604,0.48,1.782,0.404l0.008-0.004l0.006-0.002l0.011-0.008l0.002-0.002c0.131-0.119-0.002-0.586,0.813-0.516
		c0.251-0.09,0.154-0.488,0.316-0.586l0.012-0.006l0.022-0.01l0.033-0.004c0.254-0.025,5.166,1.365,6.234,0.049
		c-0.28-0.734-1.249-0.051-1.503-0.025c-0.229,0-1.197-0.455-1.757,0c-0.509-0.379-2.823-0.631-2.823-0.631
		c-0.305-0.305,5.522,0.15,5.854-0.076c0.687-0.684-1.272-0.607-1.577-0.379c-0.543-0.33-1.226-0.307-1.642-0.078
		c-0.199-0.475-2.091-0.268-3.144-0.404c-0.336-0.195-0.28-0.309-0.053-0.432c2.197,0.094,4.384,0.379,6.592,0.281
		c0.597-0.773-0.752-1.064-1.578-0.406c-0.484-0.793-1.476-0.025-2.137-0.102c-0.662-0.076-0.357-0.885,0.482-0.758
		c0.841,0.127,2.343-0.053,2.622-0.432c0.28-0.381-0.167-0.764-1.553-0.404c-0.469-0.455-1.499,0-1.983,0.152
		c-0.643-0.357-2.14-0.051-2.649,0.076c-0.498-0.309,2.622-0.811,2.622-0.811c1.204-0.021,1.883-0.229,2.265-0.33
		c1.82-0.971-0.025-1.072-0.98-0.367c-0.593-0.461-1.156,0.039-1.69,0.217c-0.501,0.166-1.428,0.287-1.541,0.238l-0.006-0.002
		l-0.003-0.002l-0.003-0.004v-0.002v-0.004l0.003-0.006c0.075-0.115,1.447-0.953,1.447-0.953s1.782-0.127,2.139-0.178
		c0.217-0.031,0.978-0.389,0.978-0.521c-0.007-0.082-0.323-0.074-1.285,0.168c-0.864,0.074-1.373,0.025-1.703,0.051
		c-0.533-0.055-0.757-0.109-0.802-0.158l-0.006-0.01l0.006-0.025l0.009-0.01c0.13-0.104,0.972-0.178,0.972-0.178
		s2.57-0.234,2.74-0.369l0.003-0.002l0.003-0.006l0.002-0.002c0.054-1.045-2.18-0.563-2.239-0.555c0.006-0.736-2.016-0.012-2.11,0
		h-0.003l-0.133-0.154l0.006-0.059c0.051-0.15,0.355-0.268,0.355-0.268c0.561-0.135,1.397-0.178,1.616-0.355
		c0,0,1.58-0.014,1.768-0.432c-0.387-1.063-3.344,0.189-3.739,0.381l-0.151-0.053c-0.131-0.189,0.511-0.811,0.532-0.832l0.003-0.004
		c0.098-0.027,2.458-0.148,3.586-1.668c0.079-0.938-1.349,0.531-1.349,0.531c-0.106-1.219-1.552,0.078-2.392,0.178
		c-0.84,0.102-0.865-0.379-0.279-0.455c0.585-0.076,1.246-0.025,1.577-0.912c0.331-0.886,1.324,0.053,1.503-0.278
		c0.173-0.318-0.325-0.59-0.356-0.607c0,0,0.737-0.759-0.459-0.734c-1.184,0.023-2.715-0.148-2.746-0.152
		c0.075-0.027,1.281-0.48,2.415-0.455c1.171,0.025,0.534-0.836-0.586-0.836c-1.119,0-1.704-0.379-1.704-0.379
		c0.636-0.236,1.272-0.473,1.909-0.709c-0.043-0.178-0.085-0.354-0.127-0.529c0,0,1.119-0.886-0.459-0.684s-1.757,0.227-1.757,0.227
		l-3.18,0.482h-0.003c-0.029-0.006-0.337-0.102-0.395-0.219l-0.006-0.014l-0.002-0.016v-0.02c0.013-0.061,0.108-0.129,0.353-0.189
		c0.814-0.203,3.692-0.784,4.124-0.631l0.122-0.006c0.162-0.146-0.378-1.077-1.701-1.208c-1.527-0.152-2.467,0.379-2.467,0.379
		s-0.993-0.355-0.078-0.659c0.917-0.304,2.367,0.102,2.367,0.102s1.629-0.481,0.279-0.685c-1.349-0.202-1.773,0.183-2.393,0.204
		c-0.246-0.307,2.118-0.379,2.266-0.633c-0.249-0.455-1.712,0-2.569,0c-0.363-0.153-0.388-0.403,0.025-0.557
		c0.874-0.034,1.695,0.017,2.569-0.017c-0.026-0.465,0-1.015-0.025-1.478c-1.108-0.201-2.408,0.146-3.03,0.118
		c0.166-0.507,2.56-0.637,2.826-0.774c0.55-0.685-2.295-0.011-2.365,0c-0.505-0.074-0.474-0.392-0.154-0.583
		c0.738-0.084,2.394,0.107,2.268-0.39c-0.096-0.467-1.147-0.217-1.579-0.115c-0.433,0.101-1.069,0.023-1.069,0.023
		c-0.277-0.37,2.494-0.219,2.47-0.505c-0.036-0.328-1.757-0.102-2.343-0.076c-0.45-0.309,2.116-0.515,2.237-0.555l0.003-0.003
		c0.096-0.842-1.782,0-2.138,0l-0.142-0.041l-0.021-0.022c-0.122-0.142-0.015-0.467-0.015-0.467l0.711-0.371l0.003-0.002v-0.003
		v-0.003l-0.003-0.002l-0.009-0.009l-0.6-0.218h-0.003l-0.003-0.003l-0.003-0.003l-0.002-0.002l0.008-0.574
		c0,0,0.53-0.395,0.564-0.552v-0.005v-0.006v-0.006V16.66v-0.003l-0.003-0.006v-0.003l-0.003-0.002l-0.003-0.003l-0.003-0.005
		l-0.003-0.003l-0.008-0.005l-0.006-0.003c-0.134-0.064-0.688,0.126-0.688,0.126c0-0.169,0-0.337,0-0.506
		c0,0,0.485-0.052,0.536-0.28V15.93l-0.002-0.017l-0.014-0.03l-0.006-0.006c-0.111-0.142-0.564-0.161-0.564-0.161
		C32.484,14.83,32.399,13.945,32.315,13.06z M31.862,21.732v0.35c0,0-0.57-0.029-0.677-0.118l-0.003-0.003l-0.003-0.002
		l-0.002-0.003l-0.003-0.003l-0.003-0.006v-0.003l-0.003-0.002v-0.003v-0.006v-0.003v-0.002l0.003-0.009l0.003-0.002l0.005-0.009
		l0.003-0.003l0.005-0.006l0.015-0.011c0.191-0.134,0.574-0.13,0.649-0.151h0.002l0.003-0.003h0.003L31.862,21.732z M32.672,22.198
		c0.02,0,1.137,0.009,1.234,0.153l0.003,0.006l0.003,0.008v0.005v0.009l-0.003,0.008c-0.085,0.181-1.215,0.289-1.215,0.289
		L32.672,22.198L32.672,22.198z M32.608,22.887h0.002h0.003l0.586,0.11L33.201,23v0.002l0.003,0.003v0.003v0.002v0.003v0.003v0.003
		l-0.003,0.003v0.003l-0.002,0.006l-0.003,0.002v0.003c-0.096,0.117-0.522,0.148-0.544,0.148h-0.003v-0.003l-0.002-0.003
		L32.608,22.887z M29.202,23.804c0.364-0.019,1.089,0.066,2.447,0.439l0.017,0.438l-0.003,0.002v0.003l-0.003,0.003
		c-0.021-0.011-2.472-0.711-2.695-0.7h-0.02l-0.017-0.003l-0.02-0.009l-0.008-0.003l-0.003-0.002l-0.02-0.019l-0.003-0.003
		l-0.003-0.006v-0.003l-0.002-0.006v-0.003v-0.005v-0.006l0.002-0.011l0.017-0.024C28.928,23.851,29.021,23.813,29.202,23.804z
		 M30.473,24.84c0.391-0.014,1.327,0.209,1.379,0.198l-0.006,0.496l-0.003,0.003L31.84,25.54l-0.003,0.003l-0.005,0.003h-0.003
		h-0.006H31.82c-0.079-0.021-1.46-0.457-1.514-0.635V24.9l0.008-0.019l0.003-0.003l0.003-0.003L30.473,24.84z M34.318,25.802
		c0.372-0.008,0.636,0.024,0.538,0.137c-0.267,0.307-2.107,0.56-2.107,0.56l-0.033-0.56C32.755,25.933,33.69,25.813,34.318,25.802z
		 M29.048,27.548c0.313-0.018,1.042,0.154,2.665,0.838l0.011,0.402c0,0-2.748-0.828-2.845-0.967
		C28.832,27.755,28.744,27.564,29.048,27.548z M34.434,28.15l0.163,0.023l0.003,0.004l0.003,0.008l0.003,0.008l-0.025,0.045
		c-0.256,0.285-1.63,0.57-1.63,0.57v-0.369h0.003C33.016,28.435,34.024,28.169,34.434,28.15z M28.406,28.199
		c0.411-0.021,1.338,0.195,3.414,1.174l0.012,0.379h-0.003c-0.123-0.041-3.737-1.303-3.737-1.303
		C28.088,28.435,28.034,28.218,28.406,28.199z M35.287,29.779c0.105-0.006,0.174,0.004,0.19,0.027l0.003,0.01l-0.027,0.043
		c-0.327,0.293-2.417,0.65-2.492,0.656h-0.003h-0.002l-0.003-0.004l-0.003-0.006v-0.002l-0.002-0.006l0.032-0.34v-0.004h0.003
		l0.003,0.004h0.003C33.123,30.154,34.724,29.802,35.287,29.779z M29.145,30.699c0.621-0.031,2.507,0.826,2.599,0.853h0.003
		l-0.02,0.398v0.006h-0.003c-0.051-0.027-2.633-1.093-2.748-1.007C28.904,30.781,28.979,30.707,29.145,30.699z M34.702,30.923
		c0.129-0.006,0.224,0,0.254,0.018l0.009,0.008v0.002v0.004v0.004l-0.003,0.004l-0.009,0.008c-0.191,0.169-1.972,0.519-1.972,0.519
		l-0.009-0.359C33.023,31.118,34.172,30.947,34.702,30.923z M34.559,32.059c0.125-0.004,0.214,0.002,0.234,0.025l0.003,0.002v0.006
		l0.003,0.002l-0.003,0.004v0.006l-0.003,0.002l-0.006,0.008l-0.008,0.008c-0.192,0.166-1.701,0.48-1.701,0.48l-0.042-0.371
		C33.078,32.232,34.087,32.074,34.559,32.059z M28.188,32.148c0.364-0.021,1.267,0.127,3.494,0.932l0.074,0.434
		c0,0-3.709-1.189-3.814-1.227v-0.004V32.27l0.02-0.043C27.988,32.193,28.048,32.158,28.188,32.148z M33.075,33.092
		c0.044,0.01,0.666,0.029,0.781,0.125l0.003,0.004l0.003,0.002l0.003,0.004l0.003,0.004l0.002,0.004l0.003,0.008v0.004v0.002v0.006
		v0.002l-0.003,0.006v0.002l-0.002,0.006c-0.097,0.148-0.746,0.203-0.746,0.203S33.09,33.182,33.075,33.092z M34.58,33.938
		c0.146-0.004,0.249,0.012,0.271,0.055l-0.081,0.127c-0.532,0.434-1.692,0.518-1.692,0.518V34.16h0.002
		C33.146,34.152,34.1,33.949,34.58,33.938z M36.058,34.383c0.185-0.008,0.264,0.023,0.288,0.064l0.005,0.014l0.003,0.025
		l-0.11,0.162c-0.181,0.17-3.068,1.08-3.068,1.08l-0.012-0.656C34.852,34.563,35.678,34.396,36.058,34.383z M34.19,36.09
		c0.184-0.006,0.327,0.004,0.371,0.047l0.008,0.012l0.003,0.008v0.008v0.014l-0.014,0.029c-0.248,0.24-1.448,0.275-1.448,0.275
		v-0.299c0.226-0.008,0.728-0.08,1.08-0.092V36.09z M35.393,36.582l0.097,0.025v0.006l-0.056,0.059
		c-0.479,0.34-2.281,0.688-2.281,0.688l0.033-0.293C33.235,37.064,34.962,36.594,35.393,36.582z M36.403,36.959
		c0.212-0.002,0.374,0.029,0.467,0.096h0.003v0.002v0.004v0.006c-0.009,0.064-0.144,0.375-0.619,0.508
		c-0.592-0.053-3.104,0.686-3.154,0.697h-0.003v-0.006l0.033-0.303C33.996,37.449,35.57,36.967,36.403,36.959z M29.97,38.408h0.017
		c1.087,0.117,1.493,0.521,1.608,0.686c-0.218,0.377-1.935-0.471-1.755-0.652L29.97,38.408z M36.199,38.48l0.11,0.025l0.03,0.029
		l0.02,0.066c-0.113,0.174-0.701,0.098-0.738,0.092C35.651,38.684,35.99,38.488,36.199,38.48z M33.87,39.656l0.186,0.027
		l0.014,0.012l0.006,0.004l0.005,0.008l0.003,0.008l-0.014,0.084c-0.171,0.316-0.917,0.199-0.917,0.199v-0.223h0.002
		C33.197,39.779,33.608,39.666,33.87,39.656z M29.473,40.494c0.229-0.012,0.431,0.137,0.641,0.258
		c0.469-0.096,1.432,0.074,1.432,0.074v0.422l-0.003,0.004h-0.003c-0.088,0.016-1.215-0.035-1.467-0.193
		c-0.205,0-0.787-0.305-0.831-0.461l-0.003-0.006v-0.008v-0.006v-0.004V40.57l0.003-0.006v-0.002L29.473,40.494z M34.403,40.701
		c0.177-0.008,0.252,0.045,0.114,0.24c-0.385,0.539-1.376,0.318-1.376,0.318L33.1,40.924C33.45,40.938,34.089,40.719,34.403,40.701z
		 M30.696,41.797c0.401-0.018,0.837,0.141,0.837,0.141c0.011,0.021,0.216,0.424,0.033,0.559l-0.021,0.014
		c-0.224,0.117-1.294-0.092-1.356-0.52C30.314,41.857,30.501,41.807,30.696,41.797z M26.562,42.006
		c0.367-0.021,0.776,0.203,0.823,0.227h0.003l-0.014,0.406c0,0-0.727-0.201-0.956-0.607L26.562,42.006z M33.547,42.063
		c0.41-0.004,0.904,0.092,0.976,0.23l-0.017,0.09c-0.203,0.244-1.354,0.021-1.354,0.021v-0.295
		C33.255,42.078,33.396,42.063,33.547,42.063z"/>
</g>
</svg>
