<?xml version="1.0" encoding="utf-8"?>
<!-- Generator: Adobe Illustrator 15.0.0, SVG Export Plug-In . SVG Version: 6.00 Build 0)  -->
<!DOCTYPE svg PUBLIC "-//W3C//DTD SVG 1.1//EN" "http://www.w3.org/Graphics/SVG/1.1/DTD/svg11.dtd">
<svg version="1.1" id="Layer_1" xmlns="http://www.w3.org/2000/svg" xmlns:xlink="http://www.w3.org/1999/xlink" x="0px" y="0px"
	 width="64px" height="64px" viewBox="0 0 64 64" enable-background="new 0 0 64 64" xml:space="preserve">
<g>
	<g>
		<path fill="#FFFFFF" d="M61.721,28c-0.138-1.016-0.315-2.019-0.55-3H2.83c-0.235,0.981-0.413,1.984-0.55,3H61.721z"/>
		<path fill="#FFFFFF" d="M2.279,36c0.137,1.016,0.315,2.018,0.55,3h58.341c0.234-0.982,0.412-1.984,0.55-3H2.279z"/>
	</g>
	<g>
		<path fill="#FFFFFF" d="M20,4.489c-1.03,0.45-2.034,0.952-3,1.513v51.997c0.966,0.561,1.97,1.063,3,1.512V4.489z"/>
		<path fill="#FFFFFF" d="M28,2.262v59.474c0.987,0.133,1.985,0.23,3,0.264V2C29.985,2.033,28.987,2.13,28,2.262z"/>
	</g>
	<path fill="#428BC1" d="M2,32c0,1.358,0.099,2.69,0.273,4h59.453C61.901,34.689,62,33.357,62,32c0-1.357-0.099-2.69-0.273-4H2.273
		C2.099,29.309,2,30.642,2,32z"/>
	<path fill="#428BC1" d="M20,59.496c2.507,1.096,5.192,1.855,8,2.23V2.273c-2.808,0.375-5.493,1.135-8,2.23V59.496z"/>
	<path fill="#ED4C5C" d="M17,25V6.023C9.982,10.083,4.766,16.902,2.83,25H17z"/>
	<path fill="#ED4C5C" d="M17,39.023V58C9.982,53.939,4.766,47.121,2.83,39.023H17z"/>
	<path fill="#ED4C5C" d="M32,2c-0.335,0-0.667,0.015-1,0.025V25h30.171C58.017,11.809,46.157,2,32,2z"/>
	<path fill="#ED4C5C" d="M31,39v22.975C31.333,61.984,31.665,62,32,62c14.157,0,26.017-9.811,29.171-23H31z"/>
</g>
</svg>
