<?xml version="1.0" encoding="utf-8"?>
<!-- Generator: Adobe Illustrator 15.0.0, SVG Export Plug-In . SVG Version: 6.00 Build 0)  -->
<!DOCTYPE svg PUBLIC "-//W3C//DTD SVG 1.1//EN" "http://www.w3.org/Graphics/SVG/1.1/DTD/svg11.dtd">
<svg version="1.1" id="Layer_1" xmlns="http://www.w3.org/2000/svg" xmlns:xlink="http://www.w3.org/1999/xlink" x="0px" y="0px"
	 width="64px" height="64px" viewBox="0 0 64 64" enable-background="new 0 0 64 64" xml:space="preserve">
<g>
	<g>
		<path fill="#C94747" d="M2,32c0,13.061,8.35,24.166,20,28.285V3.713C10.35,7.832,2,18.939,2,32z"/>
		<path fill="#C94747" d="M62,32c0-13.061-8.35-24.168-20-28.287v56.572C53.65,56.166,62,45.061,62,32z"/>
		<path fill="#2872A0" d="M22,60.285C25.129,61.393,28.492,62,32,62s6.871-0.607,10-1.715V3.713C38.871,2.607,35.508,2,32,2
			s-6.871,0.607-10,1.713V60.285z"/>
	</g>
	<g>
		<g transform="scale(5)">
			<g>
				<circle fill="#F9CF02" cx="2.636" cy="4.76" r="0.715"/>
			</g>
			<g>
				<circle fill="#C94747" cx="2.636" cy="4.435" r="0.78"/>
			</g>
			<g>
				<circle fill="#F9CF02" cx="2.636" cy="4.565" r="0.52"/>
			</g>
			<g>
				<path fill="#F9CF02" d="M2.311,3.59c0,0.179,0.146,0.325,0.325,0.325c0.18,0,0.325-0.146,0.325-0.325
					c0-0.13-0.081-0.146-0.081-0.195c0-0.049,0.049-0.114-0.049-0.195C2.88,3.281,2.799,3.297,2.799,3.379
					c0,0.081,0.032,0.081,0.032,0.146c0,0.036-0.029,0.065-0.065,0.065c-0.036,0-0.065-0.029-0.065-0.065
					c0-0.065,0.065-0.13,0.065-0.228S2.75,3.168,2.701,3.086C2.653,3.005,2.571,2.94,2.636,2.875
					C2.539,2.908,2.588,3.038,2.588,3.119s-0.065,0.13-0.065,0.228c0,0.097,0.049,0.114,0.049,0.179
					c0,0.036-0.029,0.065-0.065,0.065c-0.036,0-0.065-0.029-0.065-0.065c0-0.065,0.032-0.065,0.032-0.146
					c0-0.081-0.081-0.098-0.032-0.179C2.344,3.281,2.392,3.346,2.392,3.395C2.392,3.444,2.311,3.46,2.311,3.59z"/>
			</g>
			<g>
				<path fill="#F9CF02" d="M1.206,5.605v3.12h0.65v-3.12H1.206z M3.416,5.605v3.12h0.65v-3.12H3.416z M1.986,6.125v0.26h1.3v-0.26
					H1.986z M1.986,7.945v0.26h1.3v-0.26H1.986z M1.986,5.605h1.3l-0.65,0.39L1.986,5.605z M1.986,8.335h1.3l-0.65,0.39L1.986,8.335
					z"/>
			</g>
		</g>
		<g>
			<g>
				<circle fill="#F9CF02" cx="13.182" cy="35.826" r="3.445"/>
				<path fill="#C94747" d="M13.182,39.453c-2,0-3.627-1.627-3.627-3.628s1.627-3.628,3.627-3.628c2,0,3.627,1.627,3.627,3.628
					S15.182,39.453,13.182,39.453z M13.182,32.563c-1.799,0-3.262,1.464-3.262,3.262s1.463,3.263,3.262,3.263
					s3.262-1.465,3.262-3.263S14.98,32.563,13.182,32.563z"/>
			</g>
			<g>
				<path fill="#C94747" d="M13.182,39.453c-1.05,0-1.905-0.854-1.905-1.905s0.855-1.905,1.905-1.905c0.849,0,1.54-0.691,1.54-1.539
					c0-0.849-0.69-1.54-1.54-1.54v-0.366c1.05,0,1.905,0.854,1.905,1.906c0,1.051-0.855,1.904-1.905,1.904
					c-0.849,0-1.54,0.691-1.54,1.54s0.69,1.54,1.54,1.54V39.453z"/>
			</g>
		</g>
		<g>
			<g>
				<circle fill="#C94747" cx="13.182" cy="34.103" r="0.65"/>
			</g>
			<g>
				<circle fill="#C94747" cx="13.182" cy="37.548" r="0.649"/>
			</g>
		</g>
	</g>
</g>
</svg>
