<?xml version="1.0" encoding="utf-8"?>
<!-- Generator: Adobe Illustrator 15.0.0, SVG Export Plug-In . SVG Version: 6.00 Build 0)  -->
<!DOCTYPE svg PUBLIC "-//W3C//DTD SVG 1.1//EN" "http://www.w3.org/Graphics/SVG/1.1/DTD/svg11.dtd">
<svg version="1.1" id="Layer_1" xmlns="http://www.w3.org/2000/svg" xmlns:xlink="http://www.w3.org/1999/xlink" x="0px" y="0px"
	 width="64px" height="64px" viewBox="0 0 64 64" enable-background="new 0 0 64 64" xml:space="preserve">
<g>
	<path fill="#428BC1" d="M11.006,48v5.404C16.416,58.715,23.82,62,32,62c10.684,0,20.057-5.59,25.373-14H11.006z"/>
	<path fill="#ED4C5C" d="M11.006,32v16h46.367C60.299,43.369,62,37.885,62,32H11.006z"/>
	<path fill="#FFFFFF" d="M11.006,32H62c0-5.885-1.701-11.368-4.627-16H11.006V32z"/>
	<path fill="#FFCE31" d="M11.006,16h46.367C52.057,7.59,42.684,2,32,2c-8.18,0-15.584,3.285-20.994,8.596V16z"/>
	<path fill="#75A843" d="M11.006,10.578C5.451,16.023,2,23.607,2,32s3.451,15.977,9.006,21.422L32.426,32L11.006,10.578z"/>
	<g>
		<path fill="#F9F9F9" d="M18,41.801c-4.564-0.928-8-4.963-8-9.801s3.436-8.872,8-9.8c-0.646-0.13-1.314-0.2-2-0.2
			c-5.523,0-10,4.478-10,10c0,5.523,4.477,10,10,10C16.686,42,17.354,41.93,18,41.801z"/>
		<polygon fill="#F9F9F9" points="16.764,36 18,35.063 19.236,36 18.77,34.475 20,33.5 18.475,33.5 18,32 17.539,33.5 16,33.5 
			17.23,34.475 		"/>
		<polygon fill="#F9F9F9" points="16.764,40 18,39.063 19.236,40 18.77,38.475 20,37.5 18.475,37.5 18,36 17.539,37.5 16,37.5 
			17.23,38.475 		"/>
		<polygon fill="#F9F9F9" points="16.764,28 18,27.062 19.236,28 18.77,26.474 20,25.5 18.475,25.5 18,24 17.539,25.5 16,25.5 
			17.23,26.474 		"/>
		<polygon fill="#F9F9F9" points="16.764,32 18,31.062 19.236,32 18.77,30.474 20,29.5 18.475,29.5 18,28 17.539,29.5 16,29.5 
			17.23,30.474 		"/>
	</g>
</g>
</svg>
