<?xml version="1.0" encoding="utf-8"?>
<!-- Generator: Adobe Illustrator 15.0.0, SVG Export Plug-In . SVG Version: 6.00 Build 0)  -->
<!DOCTYPE svg PUBLIC "-//W3C//DTD SVG 1.1//EN" "http://www.w3.org/Graphics/SVG/1.1/DTD/svg11.dtd">
<svg version="1.1" id="Layer_1" xmlns="http://www.w3.org/2000/svg" xmlns:xlink="http://www.w3.org/1999/xlink" x="0px" y="0px"
	 width="64px" height="64px" viewBox="0 0 64 64" enable-background="new 0 0 64 64" xml:space="preserve">
<g>
	<g>
		<path fill="#2A5F9E" d="M32,2v30H2c0,16.568,13.432,30,30,30c16.569,0,30-13.432,30-30S48.568,2,32,2z"/>
		<g>
			<rect x="12" y="12" fill="#2A5F9E" width="21" height="21"/>
			<polygon fill="#FFFFFF" points="18.912,8.139 18.912,14 11.6,14 26,32 32,32 32,24.5 			"/>
			<path fill="#FFFFFF" d="M11,18.912H5.012C3.088,22.869,2,27.305,2,32h12V13.912h-3V18.912z"/>
			<polygon fill="#ED4C5C" points="32,27.059 19,11 13,11 30,32 32,32 			"/>
			<path fill="#FFFFFF" d="M18.912,5.012V11H11v3h21V2C27.306,2,22.869,3.088,18.912,5.012z"/>
			<path fill="#ED4C5C" d="M32,5H18.912C12.857,7.939,7.941,12.857,5,18.912V32h6V11h21V5z"/>
			<path fill="#D8A322" d="M34.541,33.848l-0.002,0.007L34.541,33.848z"/>
			<path fill="#D8A322" d="M34.537,33.86L34.5,33.939L34.537,33.86z"/>
			<path fill="#D8A322" d="M34.539,33.854l-0.002,0.006L34.539,33.854z"/>
		</g>
	</g>
	<g>
		<path fill="#FFFFFF" d="M57.979,26.492v9.268c0,7.61-2.99,14.576-11.855,18.811c-8.867-4.234-11.857-11.2-11.857-18.811v-9.268
			H57.979L57.979,26.492z"/>
		<path fill="#FFCE31" d="M57.182,27.437v8.645c0,7.099-2.789,13.596-11.059,17.544c-8.271-3.948-11.059-10.445-11.059-17.544
			v-8.645H57.182L57.182,27.437z"/>
		<g>
			<path fill="#FF9E3D" d="M40.973,31.225c-0.479-0.359-0.406,0.021-0.615-0.58c-0.152-0.444-0.551-0.457-0.885-0.682
				c-0.176-0.117-1.17-1.549-1.465-1.388c-0.26,0.142-0.373,0.97-0.441,1.147c-0.24,0.637,0.141,0.482,0.244,0.889
				c-0.35,0,0.061,0.414,0.201,0.44c-0.119,0.116-0.107,0.219,0.039,0.308c-0.598,0-1.098,0.596-1.48,0.92
				c0.32,0.038,0.428-0.158,0.715-0.176c0.283-0.018,0.473,0.264,0.779,0.203c-0.236,0.162-0.5,0.414-0.533,0.72
				c-0.066,0.64-0.762,0.632-0.961,1.174c0.371,0.916,1.344,0.991,2.055,1.54c0.564,0.438,1.021,0.766,1.395,1.406
				c0.41,0.709,1.295,1.748,1.98,0.563c0.424-0.732,0.221-2.168,0.172-2.962C42.107,33.71,42.021,31.818,40.973,31.225
				C40.813,31.105,40.973,31.225,40.973,31.225z"/>
			<path fill="#FF927F" d="M41.652,29.09c-0.795,0.854-0.691,1.367-0.723,2.459c-0.031,1.101-0.883,1.221-1.164,2.128
				c-0.318,1.03,1.027,1.577,1.25,2.527c0.105,0.45,0.113,0.968,0.393,1.359c0.238,0.339,1.068,0.182,1.365-0.024
				c0.334-0.23,0.139-0.664,0.277-0.98c0.154-0.354,0.654-0.319,0.883-0.625c0.512-0.686,0.467-1.969,0.08-2.693
				c-0.225-0.422,0.084-0.898-0.359-1.215c-0.363-0.26-0.178-0.682-0.561-0.986C42.426,30.504,42.664,29.484,41.652,29.09
				C41.279,29.49,41.652,29.09,41.652,29.09z"/>
			<path fill="#FF9EE1" d="M41.799,37.803c0.895-0.227,0.814-1.695,0.682-2.309s-0.477-1.492-0.213-2.188
				c0.373-0.987-0.455-1.922-0.242-2.295c0.215-0.373,0.188-0.574,0.16-0.693c-0.025-0.12-0.225-0.214-0.238,0.039
				c-0.014,0.254-0.08,0.348-0.24,0.508s-0.121,0.506,0,0.895c0.119,0.386,0.373,0.973-0.027,1.746
				c-0.4,0.774-0.234,1.119-0.08,1.481C41.84,35.548,42.414,37.496,41.799,37.803L41.799,37.803z"/>
			<path fill="#FF9E3D" d="M37.797,29.438c0.102,0,0.295-0.04,0.295,0.094"/>
			<path fill="#FF9E3D" d="M37.598,30.078c0.121-0.087,0.334,0.014,0.547-0.113"/>
			<path fill="#FF9E3D" d="M37.811,30.611c0.16,0,0.373-0.007,0.574-0.166"/>
			<path fill="#FF9E3D" d="M38.012,31.052c0.146,0,0.42-0.093,0.486-0.286"/>
			<path fill="#FF9E3D" d="M38.051,31.359c0.287-0.014,0.668,0.093,0.721-0.008"/>
			<path fill="#FF9E3D" d="M38.064,32.307c0.199-0.188,0.674-0.314,0.781-0.508"/>
			<path fill="#FF9E3D" d="M38.57,29.331c0.334,0.106,0.197,0.313,0.361,0.44c0.293,0.227,0.025,0.48,0.268,0.547
				c0.24,0.066,0.236,0.107,0.172,0.373c-0.074,0.313,0.227,0.327,0.121,0.533"/>
			<path fill="#FF9E3D" d="M40.398,31.025c-0.133,0-0.525,0.014-0.693,0.366"/>
			<path fill="#FF9E3D" d="M37.551,34.874c0.154,0.026,0.23-0.061,0.273-0.147c0.047-0.092,0.066-0.16,0.207-0.166
				c0.139-0.007,0.354-0.047,0.4-0.153s0.213-0.007,0.354-0.287c0.139-0.28,0.232-0.614,0.605-0.733"/>
		</g>
		<g>
			<g>
				<path fill="#699635" d="M48.135,40.703c0.15,0.22-0.006,0.457,0.25,0.551c0.301,0.111,0.039,0.507,0.393,0.646
					c0.313,0.123,0.002,0.5,0.342,0.67c0.303,0.151-0.051,0.506,0.354,0.708s-0.076,0.658,0.227,0.835s-0.1,0.632,0.254,0.811
					c0.354,0.176-0.152,0.53,0.178,0.782c0.326,0.254-0.076,0.634,0.252,0.861s-0.201,0.53,0.127,0.859
					c0.252,0.253-0.092,0.501,0.1,0.886c0.129,0.252-0.125,1.264-0.834,1.162c-0.252,0.432-1.238,0.811-1.594,0.685
					c-0.354,0.253-1.492,0.606-2.074,0.051c-0.58,0.556-1.719,0.202-2.072-0.051c-0.354,0.126-1.342-0.253-1.594-0.685
					c-0.709,0.102-0.961-0.91-0.834-1.162c0.191-0.385-0.152-0.633,0.1-0.886c0.328-0.329-0.201-0.632,0.127-0.859
					s-0.076-0.607,0.252-0.861c0.33-0.252-0.176-0.606,0.178-0.782c0.355-0.179-0.051-0.634,0.254-0.811
					c0.303-0.177-0.178-0.633,0.227-0.835s0.051-0.557,0.354-0.708c0.34-0.17,0.027-0.547,0.342-0.67
					c0.355-0.14,0.092-0.535,0.393-0.646c0.26-0.096,0.094-0.338,0.258-0.561C44.844,40.989,47.176,41.201,48.135,40.703
					L48.135,40.703z"/>
			</g>
			<path fill="#ED4C5C" d="M48.156,40.539c-0.039-0.05-0.098-0.068-0.162-0.075c-0.055-2.429-0.496-3.307-1.887-3.307
				s-1.83,0.878-1.885,3.307c-0.064,0.007-0.123,0.025-0.164,0.075c-0.18,0.227-0.15,0.402,0.367,0.604
				c0.438,0.17,1.088,0.275,1.684,0.275c0.594,0,1.244-0.105,1.68-0.275C48.309,40.941,48.336,40.766,48.156,40.539z"/>
		</g>
		<path fill="#B95A1E" d="M54.643,33.377l0.027-0.707l2.24-0.227l-2.229-0.152l0.004-0.252l-0.066-0.647l2.186-0.414l-2.264,0.085
			l-0.305-0.574l1.617-1.262l-1.877,0.967l-0.836-0.416l-0.762-1.221l0.135-0.424l-0.766,1.752l0.023,0.563l-0.164,0.578
			l-0.141-0.58l0.023-0.561l-0.768-1.752l0.137,0.424l-0.76,1.221l-0.838,0.416l-1.877-0.967l1.617,1.261l-0.303,0.575l-2.268-0.085
			l2.188,0.414l-0.066,0.647l0.006,0.252l-2.232,0.152l2.242,0.227l0.027,0.707l-2.012,0.818l2.027-0.492l0.197,4.263l-0.512,2.828
			l0.766-2.56l-0.121-4.528h0.02l1.1,0.282l0.152,0.476l0.098,0.604l0.158,0.531l0.025,0.063l-0.025,0.014l0.107,0.63l0.146,0.583
			l0.006,0.008l0.096,0.53l0.197,0.164l-0.924,0.929l-0.133,0.734l0.559-0.217l0.127,0.668l0.336-0.146l0.242,0.303l0.391-0.787
			l0.391,0.787l0.24-0.303l0.338,0.146l0.127-0.666l0.559,0.215l-0.135-0.734l-0.922-0.928l0.195-0.165l0.098-0.532l0.004-0.006
			l0.146-0.582l0.109-0.631l-0.027-0.014L52.77,35.6l0.156-0.53l0.098-0.605l0.154-0.476l1.098-0.282h0.021l-0.123,4.528l0.768,2.56
			l-0.512-2.828l0.197-4.263l2.025,0.492L54.643,33.377L54.643,33.377z M51.127,30.924l-0.697-0.752l0.73,0.539L51.127,30.924
			L51.127,30.924z M50.902,31.223l-0.105,0.064L49.6,30.403l0.553-0.229L50.902,31.223L50.902,31.223z M50.881,28.605l0.354,1.279
			l-0.006,0.209l-0.863-0.34L50.881,28.605L50.881,28.605z M49.318,30.707l1.156,0.886l-0.123,0.172l-1.066-0.518l-0.201-0.068
			L49.318,30.707L49.318,30.707z M48.936,32.039l0.061-0.511l1.236,0.609l-0.02,0.306l-0.094,0.283l-0.84-0.283l-0.352-0.086
			L48.936,32.039L48.936,32.039z M48.936,33.384l-0.008-0.64l1.158,0.356v0.017l-0.035,0.467l-0.994-0.197L48.936,33.384
			L48.936,33.384z M52.441,31.287l-0.105-0.064l0.75-1.049l0.551,0.23L52.441,31.287L52.441,31.287z M52.109,30.924l-0.033-0.213
			l0.732-0.539L52.109,30.924L52.109,30.924z M52.887,31.765h-0.002l-0.121-0.171l1.156-0.885l0.234,0.471l-0.201,0.067
			L52.887,31.765L52.887,31.765z M52.357,28.605l0.516,1.148l-0.863,0.34l-0.008-0.209L52.357,28.605L52.357,28.605z M53.004,32.138
			l1.238-0.609l0.061,0.511l0.008,0.318l-0.352,0.086l-0.84,0.283l-0.096-0.283L53.004,32.138L53.004,32.138z M54.182,33.387
			l-0.994,0.197l-0.035-0.467V33.1l1.158-0.355l-0.008,0.64L54.182,33.387L54.182,33.387z"/>
	</g>
</g>
</svg>
