<?xml version="1.0" encoding="utf-8"?>
<!-- Generator: Adobe Illustrator 15.0.0, SVG Export Plug-In . SVG Version: 6.00 Build 0)  -->
<!DOCTYPE svg PUBLIC "-//W3C//DTD SVG 1.1//EN" "http://www.w3.org/Graphics/SVG/1.1/DTD/svg11.dtd">
<svg version="1.1" id="Layer_1" xmlns="http://www.w3.org/2000/svg" xmlns:xlink="http://www.w3.org/1999/xlink" x="0px" y="0px"
	 width="64px" height="64px" viewBox="0 0 64 64" enable-background="new 0 0 64 64" xml:space="preserve">
<g>
	<circle fill="#0071BC" cx="32" cy="32" r="30"/>
	<g>
		<path fill="#8C8A8C" d="M37.447,47.896l-1.129-8.348l-1.281-11.539c0,0-0.051-0.757-0.104-1.514
			c-0.051-0.756-0.281-0.986-0.525-1.191l-0.142,0.027c1.696-0.708,1.476-2.899,1.476-2.899s0.525-0.641,0.436-1.692
			s-1.923-1.167-1.923-1.167c-0.013,0.026-3.948-0.051-5.244,0.014c-1.295,0.063-1.475,1.09-1.475,1.09s0.103,1.294,0.462,3.128
			c0.359,1.833,1.244,1.615,1.244,1.615s0.262,0.016,0.678,0.031c-0.313,0.002-0.558,0.007-0.691,0.021
			c-0.654,0.243-0.808,1.872-0.808,1.872L27.1,39.548l-1.358,9.655c0,0,0.205,0.961,1.462,1.359c0.18,0.73,1.191,1.077,1.641,1.141
			c0.449,0.064,1.449-0.32,2.025-0.372c0.578-0.052,1.526,0.347,1.795,0.359c0.295,0.013,3.283-0.321,3.834-1.475
			c0.757-0.077,1.025-1.025,1.025-1.025L37.447,47.896z"/>
		<path fill="#FFFFFF" d="M51.297,31.297c0.015,0.015,1.825-1.768-0.42-3.563c0.971-1.825-0.203-2.274-0.203-2.274
			s0.564-1.478-0.971-1.55c0.754-1.174-0.971-2.478-0.971-2.478s0.275-1.796-2.447-1.984c0.65-2.984-2.348-2.304-2.348-2.304
			s0.551-2.491-3.26-2.144c-0.84-2.086-2.636-1.174-2.636-1.174s-1.116-1.535-2.419-0.681c-0.986-1.217-2.264-0.253-2.621-0.113
			c-0.987-0.239-2.515-1.424-3.232-0.19c-0.564-0.232-1.694,0.507-1.694,0.507s-1.782-1.203-2.984,1.145
			c-2.361-0.928-2.897,0.999-2.897,0.999s-1.738-0.318-2.23,1.275c-2.55-0.174-2.593,1.607-2.593,1.607s-1.622,0.058-1.767,2.304
			c-2.318,0.927-1.463,3.144-1.463,3.144s-1.623,0.651-1.333,3.375c-1.796,1.275-0.029,3.071-0.029,3.071s-1.376,0.941-0.101,2.824
			c-1.709,1.318,0.507,2.463,0.507,2.463s-1,1.116,0.608,2.087c-0.869,2.216,0.812,2.245,1.058,2.332
			c-0.063,0.387,0.092,0.772,0.507,0.941c0,0-0.145,1.854,1.752,1.681c-0.304,0.768,0.507,1.13,0.521,1.144
			c0.015,0.015-0.043,1.564,1.796,1.188c0.449,1.507,1.318,1.173,1.362,1.173c0.043,0-0.565,1.812,2.188,1.884
			c1.173,1.261,2.752,1.261,2.752,1.261s1.058-4.883,0.811-5.606c-0.246-0.725-2.115-0.232-2.115-0.232s-0.289-1.55-2.303-1.506
			c0.435-0.869-0.666-0.913-0.666-0.913s1.115-1.304-1.246-1.564c0.334-1.55-0.348-1.376-1.116-1.724
			c-0.014-0.564,0.362-1.521-0.84-1.912c1.057-1.392-0.623-2.145-0.623-2.145s0.884-2.101-0.333-2.419
			c1.26-1.304,0.333-2.463,0.333-2.463s0.869-1.028,0.536-1.868c0.941-0.479,0.84-1.971,0.84-1.971s1.043-0.261,1.304-1.796
			c1.999-0.349,1.825-1.652,1.825-1.652s1.666-0.028,1.999-1.506c1.449,0.405,2.348-1.188,2.348-1.188s1.057,0.521,2.244-0.681
			c0.666,1.028,2.681-0.304,2.681-0.304s0.854,0.999,2.39,0.043c0.768,1.231,2.057,0.594,2.057,0.594s0.393,0.826,1.29,0.362
			c0.464,1.753,2.781,1.13,2.796,1.13s0.145,1.159,1.318,0.971c0.217,1.55,2,1.188,2,1.188s0.23,1.869,1.391,2.072
			c-0.508,1.681,0.896,2.043,0.896,2.043s-0.42,1.231,0.869,2.317c-1.217,0.695,0.146,3.114,0.16,3.144
			c0.014,0.028-1.072,1.159-0.262,2.709c-1.332,0.449-1.07,2.405-1.07,2.405s-1.275,1.043-1.334,2.303
			c-2.1,0.406-1.94,2.26-1.94,2.26s-1.638,0.131-2.072,1.811c-1.448-0.304-2.954,1.289-2.954,1.289l0.564,4.304
			c0.058,0.028,3.01,0.623,3.621-1.377c2.521,0.667,2.709-1.825,2.709-1.825s1.982-0.109,2.057-1.466
			c1.898-0.928,1.392-1.808,1.392-1.808s1.912-0.247,1.941-2.274c1.506-0.493,1.158-2.217,1.158-2.217s1.348-0.681,1.015-3.347
			C52.499,32.745,51.282,31.282,51.297,31.297z"/>
		<polygon fill="#FFFFFF" points="31.846,36.157 38.539,41.021 35.982,33.15 42.676,28.287 34.402,28.287 31.846,20.417 
			29.289,28.287 21.016,28.287 27.709,33.15 25.152,41.02 		"/>
		<path fill="#FFCE31" d="M37.273,46.841c0,0,8.59-2.427,11.186-12.97c-1.507,10.822-10.906,14.252-10.906,14.252L37.273,46.841
			L37.273,46.841z"/>
		<path fill="#FFCE31" d="M26.016,46.612c0,0-8.512-2.471-11.082-13.202c1.492,11.016,10.806,14.508,10.806,14.508L26.016,46.612
			L26.016,46.612z"/>
		<polygon fill="#ED4C5C" points="48.791,29.76 48.125,29.842 47.898,30.723 48.336,31.521 49.001,31.437 49.229,30.557 		"/>
		<polygon fill="#ED4C5C" points="48.858,29.69 49.086,28.809 48.648,28.012 47.982,28.095 47.756,28.976 48.191,29.772 		"/>
		<polygon fill="#ED4C5C" points="48.582,27.84 48.73,26.943 48.226,26.188 47.57,26.328 47.42,27.226 47.926,27.981 		"/>
		<polygon fill="#ED4C5C" points="48.168,25.898 48.084,24.993 47.402,24.392 46.805,24.695 46.889,25.601 47.57,26.203 		"/>
		<polygon fill="#ED4C5C" points="47.477,24.334 47.393,23.429 46.711,22.827 46.113,23.131 46.197,24.036 46.879,24.639 		"/>
		<polygon fill="#ED4C5C" points="46.41,21.855 45.681,21.313 45.11,21.667 45.271,22.562 46.001,23.104 46.571,22.751 		"/>
		<polygon fill="#ED4C5C" points="45.317,20.34 44.538,19.871 44.004,20.277 44.252,21.153 45.03,21.622 45.563,21.215 		"/>
		<polygon fill="#ED4C5C" points="44.014,18.927 43.174,18.575 42.705,19.055 43.077,19.886 43.916,20.236 44.385,19.757 		"/>
		<polygon fill="#ED4C5C" points="42.546,17.625 41.678,17.354 41.256,17.874 41.701,18.667 42.568,18.939 42.99,18.418 		"/>
		<polygon fill="#ED4C5C" points="40.99,16.588 40.09,16.463 39.76,17.047 40.33,17.755 41.23,17.879 41.561,17.295 		"/>
		<polygon fill="#ED4C5C" points="39.25,15.666 38.342,15.624 38.065,16.235 38.699,16.889 39.607,16.931 39.883,16.318 		"/>
		<polygon fill="#ED4C5C" points="37.543,14.979 36.634,14.998 36.399,15.626 37.074,16.235 37.984,16.217 38.218,15.588 		"/>
		<polygon fill="#ED4C5C" points="35.808,14.435 34.902,14.522 34.717,15.167 35.438,15.723 36.342,15.635 36.527,14.99 		"/>
		<polygon fill="#ED4C5C" points="33.018,14.336 32.934,15.001 33.73,15.439 34.611,15.213 34.695,14.547 33.898,14.109 		"/>
		<polygon fill="#ED4C5C" points="31.155,14.304 31.129,14.974 31.959,15.343 32.817,15.041 32.845,14.371 32.014,14.003 		"/>
		<polygon fill="#ED4C5C" points="29.428,14.364 29.401,15.034 30.232,15.403 31.091,15.103 31.117,14.433 30.287,14.063 		"/>
		<polygon fill="#ED4C5C" points="28.262,14.304 27.513,14.818 27.662,15.473 28.561,15.61 29.311,15.096 29.161,14.441 		"/>
		<polygon fill="#ED4C5C" points="26.421,14.765 25.717,15.34 25.92,15.979 26.826,16.043 27.531,15.468 27.328,14.829 		"/>
		<polygon fill="#ED4C5C" points="24.74,15.484 24.109,16.14 24.388,16.75 25.296,16.705 25.927,16.05 25.648,15.439 		"/>
		<polygon fill="#ED4C5C" points="23.065,16.343 22.492,17.05 22.821,17.635 23.723,17.512 24.295,16.806 23.967,16.221 		"/>
		<polygon fill="#ED4C5C" points="21.48,17.418 20.988,18.183 21.378,18.729 22.261,18.509 22.754,17.744 22.363,17.199 		"/>
		<polygon fill="#ED4C5C" points="20.014,18.53 19.587,19.333 20.021,19.844 20.883,19.55 21.309,18.747 20.874,18.236 		"/>
		<polygon fill="#ED4C5C" points="18.719,19.883 18.351,20.714 18.822,21.192 19.659,20.838 20.027,20.006 19.557,19.528 		"/>
		<polygon fill="#ED4C5C" points="17.604,21.387 17.307,22.246 17.816,22.684 18.621,22.26 18.917,21.4 18.409,20.963 		"/>
		<polygon fill="#ED4C5C" points="16.584,22.926 16.381,23.813 16.934,24.193 17.689,23.687 17.892,22.8 17.339,22.42 		"/>
		<polygon fill="#ED4C5C" points="15.735,24.672 15.687,25.58 16.297,25.86 16.954,25.23 17.001,24.323 16.392,24.043 		"/>
		<polygon fill="#ED4C5C" points="15.66,25.811 15.063,26.496 15.097,27.405 15.729,27.628 16.327,26.942 16.292,26.034 		"/>
		<polygon fill="#ED4C5C" points="15.803,27.736 15.149,27.588 14.634,28.338 14.773,29.236 15.131,29.318 14.89,29.3 14.479,29.95 
			14.734,30.649 15.402,30.699 15.814,30.05 15.558,29.35 15.457,29.343 15.942,28.636 		"/>
		<polygon fill="#FFCE31" points="47.836,27.512 48.496,27.303 47.986,26.571 		"/>
		<polygon fill="#FFCE31" points="48.16,29.322 48.834,29.164 48.382,28.396 		"/>
		<polygon fill="#FFCE31" points="47.393,25.86 47.979,25.49 47.3,24.912 		"/>
		<polygon fill="#FFCE31" points="46.588,24.212 47.173,23.843 46.494,23.265 46.588,24.213 		"/>
		<polygon fill="#FFCE31" points="44.654,21.194 45.174,20.735 44.412,20.274 		"/>
		<polygon fill="#FFCE31" points="43.393,19.879 43.893,19.401 43.113,18.969 		"/>
		<polygon fill="#FFCE31" points="40.738,17.64 41.067,17.03 40.193,16.859 		"/>
		<polygon fill="#FFCE31" points="42.119,18.675 42.549,18.133 41.718,17.813 		"/>
		<polygon fill="#FFCE31" points="39.162,16.77 39.426,16.13 38.539,16.05 		"/>
		<polygon fill="#FFCE31" points="37.551,16.066 37.721,15.396 36.832,15.443 		"/>
		<polygon fill="#FFCE31" points="35.816,15.529 35.929,14.846 35.047,14.969 		"/>
		<polygon fill="#FFCE31" points="28.771,15.326 28.596,14.657 27.84,15.128 		"/>
		<polygon fill="#FFCE31" points="30.512,15.098 30.428,14.41 29.615,14.775 		"/>
		<polygon fill="#FFCE31" points="23.796,17.198 23.41,16.623 22.852,17.317 		"/>
		<polygon fill="#FFCE31" points="25.371,16.394 25.059,15.775 24.42,16.396 		"/>
		<polygon fill="#FFCE31" points="20.864,19.239 20.367,18.758 19.966,19.553 		"/>
		<polygon fill="#FFCE31" points="22.264,18.095 21.805,17.575 21.343,18.337 		"/>
		<polygon fill="#FFCE31" points="19.622,20.464 19.083,20.029 18.755,20.857 		"/>
		<polygon fill="#FFCE31" points="18.508,21.909 17.932,21.525 17.681,22.38 		"/>
		<polygon fill="#FFCE31" points="17.576,23.387 16.948,23.096 16.831,23.979 		"/>
		<polygon fill="#FFCE31" points="16.758,24.965 16.097,24.758 16.096,25.648 16.758,24.965 		"/>
		<polygon fill="#FFCE31" points="16.103,26.585 15.418,26.484 15.558,27.364 		"/>
		<polygon fill="#FFCE31" points="15.665,28.39 14.975,28.336 15.173,29.205 		"/>
		<polygon fill="#FFCE31" points="15.486,29.892 14.797,29.943 15.085,30.596 		"/>
		<polygon fill="#FFCE31" points="45.868,22.744 46.395,22.293 45.639,21.82 		"/>
		<polygon fill="#FFCE31" points="48.359,31.156 49.033,30.997 48.58,30.229 		"/>
		<polygon fill="#FFCE31" points="36.55,18.189 37.932,16.771 36.838,16.133 		"/>
		<polygon fill="#FFCE31" points="27.027,18.526 27.545,16.614 26.278,16.589 		"/>
		<polygon fill="#FFCE31" points="25.142,19.095 25.658,17.184 24.393,17.157 		"/>
		<polygon fill="#FFCE31" points="23.049,19.74 23.566,17.829 22.301,17.804 		"/>
		<polygon fill="#FFCE31" points="21.577,21.213 22.094,19.301 20.828,19.275 		"/>
		<polygon fill="#FFCE31" points="20.027,22.634 20.543,20.723 19.277,20.697 		"/>
		<polygon fill="#FFCE31" points="23.59,14.356 22.578,16.059 23.791,16.425 		"/>
		<polygon fill="#FFCE31" points="26.689,13.401 25.678,15.104 26.891,15.469 		"/>
		<polygon fill="#FFCE31" points="15.139,21.77 16.145,23.475 17.048,22.588 		"/>
		<polygon fill="#FFCE31" points="13.59,25.731 14.314,27.574 15.347,26.841 		"/>
		<polygon fill="#FFCE31" points="17.162,30.157 15.839,28.684 15.129,29.731 		"/>
		<polygon fill="#FFCE31" points="16.42,28.244 16.974,26.343 15.709,26.293 		"/>
		<polygon fill="#FFCE31" points="38.746,19.146 40.127,17.727 39.034,17.088 		"/>
		<polygon fill="#FFCE31" points="41.995,20.767 42.383,18.824 41.118,18.884 		"/>
		<polygon fill="#FFCE31" points="50.862,29.973 49.537,28.5 48.828,29.549 		"/>
		<polygon fill="#FFCE31" points="46.527,30.658 47.274,28.825 48.297,29.571 		"/>
		<polygon fill="#FFCE31" points="45.828,18.113 43.848,18.12 44.158,19.348 		"/>
		<polygon fill="#FFCE31" points="43.297,15.995 41.316,16.002 41.627,17.229 		"/>
		<polygon fill="#FFCE31" points="39.521,13.976 38.488,15.665 39.697,16.045 		"/>
		<polygon fill="#FFCE31" points="37.064,13.384 37.059,15.364 38.288,15.063 		"/>
		<polygon fill="#FFCE31" points="30.092,17.635 30.746,15.766 29.484,15.648 		"/>
		<polygon fill="#FFCE31" points="44.553,23.426 44.939,21.484 43.676,21.543 44.553,23.426 		"/>
		<path fill="#699635" d="M18.633,20.528c0.979,0.979-1.009,3.63,0.058,5.157C18.636,24.972,19.625,20.528,18.633,20.528z"/>
		<path fill="#699635" d="M18.321,20.774c-1.54,1.437-1.081,4.299-1.199,6.227C17.157,26.412,18.819,21.272,18.321,20.774z"/>
		<path fill="#699635" d="M45.986,21.313c-0.934,0-0.018,4.839-0.273,5.623C47.17,25.274,44.937,22.361,45.986,21.313z"/>
		<path fill="#699635" d="M47.246,24.083c-1.629,2.003,1.277,3.642,1.156,5.595C48.531,27.602,46.86,26.143,47.246,24.083z"/>
		<path fill="#699635" d="M32.902,14.733c-0.536-0.43-1.266-0.488-1.863,0.307c1.847-0.429,2.378,1.615,1.268,2.801
			c1.533-0.447,1.563-1.765,1.014-2.628c1.133,0.309,1.533,1.323,1.374,2.613C36.58,16.805,34.385,13.842,32.902,14.733z"/>
		<path fill="#699635" d="M48.867,31.948l-0.002-0.018l0.002,0.016l-0.002-0.016c-0.268,1.691-1.9,5.94-0.83,7.415
			c-0.344-0.963,0.621-2.896,0.949-3.877c-0.029,0.6,0.043,1.178,0.43,1.71C48.747,35.319,50.505,33.92,48.867,31.948z
			 M48.867,31.948l0.001,0.02L48.867,31.948z M48.868,31.95c0.321,0.623,0.345,1.264,0.291,1.898
			C49.092,33.247,48.918,32.68,48.868,31.95z"/>
		<path fill="#699635" d="M14.293,32.306c-0.004,0.07-0.008,0.123-0.01,0.157L14.293,32.306z"/>
		<path fill="#699635" d="M15.311,39.514c1.204-1.653-0.715-5.395-1.013-7.273C14.133,34.817,15.551,37.022,15.311,39.514z"/>
		<path fill="#699635" d="M14.283,32.463C14.279,32.533,14.277,32.562,14.283,32.463z"/>
		<path fill="#699635" d="M14.438,38.797c1.249-1.718-0.971-4.325-0.142-6.538l-0.003,0.047l0.003-0.047l0.001-0.004l-0.001,0.001
			l0.001-0.016l-0.001,0.016C12.129,34.868,15.29,36.429,14.438,38.797z"/>
	</g>
</g>
</svg>
