<?xml version="1.0" encoding="utf-8"?>
<!-- Generator: Adobe Illustrator 15.0.0, SVG Export Plug-In . SVG Version: 6.00 Build 0)  -->
<!DOCTYPE svg PUBLIC "-//W3C//DTD SVG 1.1//EN" "http://www.w3.org/Graphics/SVG/1.1/DTD/svg11.dtd">
<svg version="1.1" id="Layer_1" xmlns="http://www.w3.org/2000/svg" xmlns:xlink="http://www.w3.org/1999/xlink" x="0px" y="0px"
	 width="64px" height="64px" viewBox="0 0 64 64" enable-background="new 0 0 64 64" xml:space="preserve">
<g>
	<path fill="#699635" d="M60.899,40C61.604,37.451,62,34.773,62,32c0-2.774-0.401-5.451-1.108-8H31.74L14.823,7.417
		c-4.031,2.822-7.326,6.609-9.569,11.026L19,32L5.254,45.557c2.244,4.418,5.546,8.195,9.578,11.018L31.74,40H60.899z"/>
	<path fill="#3E4347" d="M3.55,22.49C2.55,25.479,2,28.674,2,32c0,3.326,0.55,6.521,1.55,9.51L13.191,32L3.55,22.49z"/>
	<path fill="#428BC1" d="M18.334,58.686C22.435,60.793,27.072,62,32,62c12.328,0,22.897-7.449,27.512-18.08H33.397L18.334,58.686z"
		/>
	<path fill="#ED4C5C" d="M59.516,20.081C54.903,9.447,44.329,2,32,2c-4.929,0-9.575,1.197-13.677,3.303l15.074,14.777H59.516z"/>
	<path fill="#FFFFFF" d="M60.519,22.688c-0.291-0.89-0.634-1.755-1.003-2.607H33.397L18.323,5.303
		c-0.672,0.345-1.331,0.707-1.972,1.1c-0.522,0.32-1.028,0.664-1.528,1.014L31.74,24h29.151
		C60.771,23.561,60.659,23.118,60.519,22.688z"/>
	<path fill="#FFCE31" d="M5.254,18.443c-0.114,0.224-0.24,0.44-0.349,0.667c-0.52,1.091-0.969,2.221-1.355,3.379L13.191,32
		L3.55,41.51c0.388,1.158,0.836,2.289,1.356,3.381c0.108,0.227,0.233,0.443,0.348,0.666L19,32L5.254,18.443z"/>
	<path fill="#FFFFFF" d="M31.74,40L14.832,56.574c0.348,0.242,0.69,0.492,1.048,0.721c0.791,0.506,1.615,0.961,2.454,1.391
		L33.397,43.92h26.114c0.438-1.012,0.844-2.041,1.171-3.107c0.082-0.268,0.143-0.543,0.217-0.813H31.74z"/>
</g>
</svg>
