<?xml version="1.0" encoding="utf-8"?>
<!-- Generator: Adobe Illustrator 15.0.0, SVG Export Plug-In . SVG Version: 6.00 Build 0)  -->
<!DOCTYPE svg PUBLIC "-//W3C//DTD SVG 1.1//EN" "http://www.w3.org/Graphics/SVG/1.1/DTD/svg11.dtd">
<svg version="1.1" id="Layer_1" xmlns="http://www.w3.org/2000/svg" xmlns:xlink="http://www.w3.org/1999/xlink" x="0px" y="0px"
	 width="64px" height="64px" viewBox="0 0 64 64" enable-background="new 0 0 64 64" xml:space="preserve">
<g>
	<circle fill="#F42F4C" cx="32" cy="32" r="30"/>
	<g id="path6">
		<path fill="#4F682E" d="M23.348,44l3.305-9.93L18,27.937h10.693L32,18l3.309,9.937H46l-8.65,6.134L40.654,44L32,37.863L23.348,44z
			 M33.846,36.557l2.684,1.902l-1.025-3.078L33.846,36.557z M28.496,35.381l-1.023,3.078l2.684-1.902L28.496,35.381z M29.201,33.263
			L32,35.248l2.801-1.985l-1.068-3.208H30.27L29.201,33.263z M24.676,30.055l2.68,1.9l0.633-1.9H24.676z M36.645,31.955l2.682-1.9
			h-3.314L36.645,31.955z M30.975,27.937h2.053L32,24.851L30.975,27.937z"/>
	</g>
</g>
</svg>
