<?xml version="1.0" encoding="utf-8"?>
<!-- Generator: Adobe Illustrator 15.0.0, SVG Export Plug-In . SVG Version: 6.00 Build 0)  -->
<!DOCTYPE svg PUBLIC "-//W3C//DTD SVG 1.1//EN" "http://www.w3.org/Graphics/SVG/1.1/DTD/svg11.dtd">
<svg version="1.1" id="Layer_1" xmlns="http://www.w3.org/2000/svg" xmlns:xlink="http://www.w3.org/1999/xlink" x="0px" y="0px"
	 width="64px" height="64px" viewBox="0 0 64 64" enable-background="new 0 0 64 64" xml:space="preserve">
<g>
	<path fill="#ED4C5C" d="M32,2C22.807,2,14.583,6.141,9.08,12.652V32h52.09v-7C58.016,11.81,46.157,2,32,2z"/>
	<path fill="#83BF4F" d="M9.08,32v19.348C14.583,57.86,22.807,62,32,62c14.156,0,26.015-9.809,29.17-22.998V32H9.08z"/>
	<path fill="#3E4347" d="M9.08,12.652c-0.941,1.114-1.797,2.301-2.57,3.545v3.688H4.559C2.918,23.591,2,27.688,2,32
		s0.918,8.409,2.559,12.114H6.51v3.688c0.773,1.244,1.629,2.431,2.57,3.545L28.427,32L9.08,12.652z"/>
	<path fill="#3E4347" d="M61.926,34v-4h0.002c-0.115-1.709-0.371-3.381-0.758-5H9.08v14h52.09c0.387-1.619,0.643-3.291,0.758-5
		H61.926z"/>
	<path fill="#FFCE31" d="M6.51,16.184c-0.734,1.182-1.387,2.418-1.955,3.702L16.67,32L4.555,44.114
		c0.568,1.284,1.221,2.521,1.955,3.702L20.326,34h41.6C61.97,33.338,62,32.673,62,32s-0.03-1.338-0.074-2h-41.6L6.51,16.184z"/>
	<path fill="#FDCE12" d="M7.322,26.688c-1.125,0-4.599,0.806-4.599,4.431S6.13,35.08,6.802,35.08c0.671,0,3.189-0.604,2.904-3.322
		c0,0.771-0.873,2.399-2.703,2.399c-1.829,0-2.97-1.359-2.97-2.702s1.107-3.139,3.037-3.139s3.34,1.712,3.34,3.441
		c0,1.729-1.359,3.927-3.524,3.927c0,0,0,1.309,0,2.064c1.796,0,5.32-1.376,5.32-5.807C12.206,27.511,8.446,26.688,7.322,26.688z"/>
	<path fill="#FDCE12" d="M7.396,30.855c-0.02-0.008-0.036-0.02-0.056-0.028c0.028-0.026,0.048-0.059,0.08-0.079
		c0.149-0.103,0.375-0.113,0.542-0.181c0.314-0.168,0.519-0.433,0.681-0.863l-0.04-0.079c-0.475-0.084-0.854,0.089-1.1,0.378
		c-0.112,0.163-0.159,0.393-0.275,0.536c-0.04,0.053-0.095,0.093-0.147,0.133c-0.054-0.04-0.108-0.08-0.148-0.133
		c-0.116-0.144-0.163-0.373-0.275-0.536c-0.246-0.289-0.625-0.462-1.1-0.378l-0.039,0.079c0.161,0.431,0.365,0.695,0.679,0.863
		c0.168,0.067,0.394,0.078,0.543,0.181c0.032,0.021,0.053,0.053,0.08,0.079c-0.02,0.009-0.035,0.021-0.055,0.028
		c-0.385,0.144-0.674,0.396-0.912,0.684c-0.207,0.316-0.354,0.679-0.333,1.14l0.071,0.05c0.438-0.135,0.727-0.351,0.979-0.597
		c0.208-0.26,0.386-0.539,0.51-0.887c0.123,0.348,0.301,0.627,0.509,0.887c0.253,0.246,0.543,0.462,0.979,0.597l0.072-0.05
		c0.021-0.461-0.126-0.823-0.333-1.14C8.068,31.252,7.779,30.999,7.396,30.855z"/>
</g>
</svg>
