<?xml version="1.0" encoding="utf-8"?>
<!-- Generator: Adobe Illustrator 15.0.0, SVG Export Plug-In . SVG Version: 6.00 Build 0)  -->
<!DOCTYPE svg PUBLIC "-//W3C//DTD SVG 1.1//EN" "http://www.w3.org/Graphics/SVG/1.1/DTD/svg11.dtd">
<svg version="1.1" id="Layer_1" xmlns="http://www.w3.org/2000/svg" xmlns:xlink="http://www.w3.org/1999/xlink" x="0px" y="0px"
	 width="64px" height="64px" viewBox="0 0 64 64" enable-background="new 0 0 64 64" xml:space="preserve">
<g>
	<path fill="#75A843" d="M32,2c-6.159,0-11.882,1.858-16.646,5.041h33.291C43.882,3.858,38.159,2,32,2z"/>
	<path fill="#75A843" d="M32,62c6.159,0,11.882-1.858,16.646-5.041H15.354C20.118,60.142,25.841,62,32,62z"/>
	<path fill="#ED4C5C" d="M7.048,47.041h50.904c1.777-3.06,3.029-6.46,3.633-10.082H3.415C4.019,40.581,5.271,43.981,7.048,47.041z"
		/>
	<path fill="#3E4347" d="M3,32c0,1.719,0.152,3.401,0.431,5.041h58.139C61.848,35.401,62,33.719,62,32s-0.152-3.401-0.431-5.041
		H3.431C3.152,28.599,3,30.281,3,32z"/>
	<path fill="#ED4C5C" d="M3.415,27.041h58.17c-0.604-3.622-1.855-7.022-3.633-10.082H7.048C5.271,20.019,4.019,23.419,3.415,27.041z
		"/>
	<path fill="#FFCE31" d="M12.304,17.041h45.697c-2.338-4.054-5.592-7.51-9.485-10.082H15.484c-1.117,0.738-2.175,1.557-3.181,2.434
		V17.041z"/>
	<path fill="#FFCE31" d="M12.304,46.959v7.648c1.006,0.877,2.063,1.695,3.181,2.434h33.031c3.894-2.572,7.147-6.028,9.485-10.082
		H12.304z"/>
	<path fill="#F9F9F9" d="M12.631,12.204H9.478C4.828,17.487,2,24.41,2,32c0,7.746,2.944,14.801,7.765,20.123h2.539L32.427,32
		L12.631,12.204z"/>
	<path fill="#3E4347" d="M12.304,9.382c-1.006,0.878-1.953,1.819-2.835,2.822L29.265,32L9.469,51.796
		c0.882,1.003,1.829,1.944,2.835,2.822L34.922,32L12.304,9.382z"/>
	<g>
		<polygon fill="#ED4C5C" points="17.46,33.93 22.839,29.414 16.495,28.348 13.214,21.693 9.93,28.348 3.589,29.414 8.968,33.93 
			7.569,40.633 13.214,37.406 18.855,40.633 		"/>
		<g>
			<path id="path40" fill="#FFCE31" d="M11.341,30.111c0.69,1.502,0.861,1.602,2.586,2.191c1.726,0.592,6.6,1.154,7.079,1.209
				c-0.313-0.313-5.803-4.381-6.931-5.193c-1.126-0.814-1.442-1.182-1.442-1.182s-1.015-1.83-1.367-2.365
				c-0.351-0.537-0.996-1.295-1.847-1.295s-1.367,0.5-1.613,1.387c-0.138,0.037-0.864,0.48-0.838,0.938
				c0.207-0.025,1.527-0.395,1.981,1.094c0.457,1.492,0.482,3.934,0.013,5.139c-0.467,1.207-1.195,2.119-1.195,3.178
				c0,0.148,0.099,0.443,0.345,0.443C8.2,36.125,8.89,39.463,8.89,39.463h9.831l1.562-6.035"/>
			<path id="path44" fill="#FFCE31" stroke="#000000" stroke-width="0.2" stroke-linecap="round" stroke-linejoin="round" d="
				M11.341,30.111c0.69,1.502,0.861,1.602,2.586,2.191c1.726,0.592,6.6,1.154,7.079,1.209c-0.313-0.313-5.803-4.381-6.931-5.193
				c-1.126-0.814-1.442-1.182-1.442-1.182s-1.015-1.83-1.367-2.365c-0.351-0.537-0.996-1.295-1.847-1.295s-1.367,0.5-1.613,1.387
				c-0.138,0.037-0.864,0.48-0.838,0.938c0.207-0.025,1.527-0.395,1.981,1.094c0.457,1.492,0.482,3.934,0.013,5.139
				c-0.467,1.207-1.195,2.119-1.195,3.178c0,0.148,0.099,0.443,0.345,0.443C8.2,36.125,8.89,39.463,8.89,39.463h9.831l1.562-6.035"
				/>
			<path id="path46" fill="#FFCE31" stroke="#000000" stroke-width="0.2" stroke-linecap="round" stroke-linejoin="round" d="
				M8.111,35.654c0,0,2.096-0.121,2.661-0.121c0.568,0,5.845,0.006,8.786,0.688"/>
			<path id="path48" fill="#FFCE31" stroke="#000000" stroke-width="0.2" stroke-linecap="round" stroke-linejoin="round" d="
				M8.854,35.613c0,0-0.21-0.254-0.075-0.758c0.135-0.506,1.613-1.813,1.613-3.66"/>
			<path id="path50" fill="#FFCE31" stroke="#000000" stroke-width="0.2" stroke-linecap="round" stroke-linejoin="round" d="
				M10.119,35.533c0,0-0.171-0.824,1.715-1.527c0.529-0.162,2.044-1.012,2.093-1.703"/>
			<path id="path52" fill="#FFCE31" stroke="#000000" stroke-width="0.2" stroke-linecap="round" stroke-linejoin="round" d="
				M11.634,34.084c0,0,4.623,0.02,8.283,0.76"/>
			<path id="path54" fill="#FFCE31" stroke="#000000" stroke-width="0.2" stroke-linecap="round" stroke-linejoin="round" d="
				M12.791,33.531c0,0,1.59,0.055,1.847-0.02c0.26-0.074,0.719-0.266,0.9-0.809"/>
			<path id="path56" fill="#FFCE31" stroke="#000000" stroke-width="0.2" stroke-linecap="round" stroke-linejoin="round" d="
				M13.732,33.551c0,0,0.851-0.443,1.017-1.016"/>
			<path id="path58" fill="#FFCE31" stroke="#000000" stroke-width="0.2" stroke-linecap="round" stroke-linejoin="round" d="
				M11.167,39.463c0,0-0.363-2.52-0.436-3.93l0.949,0.904l1.002-0.875l0.863,0.92l0.999-0.848l0.86,0.969l0.988-0.84l0.786,0.916
				l0.986-0.713l1.172,1.113"/>
			<path id="path60" fill="#FFCE31" stroke="#000000" stroke-width="0.2" stroke-linecap="round" stroke-linejoin="round" d="
				M19.131,37.875c-3.521-0.506-8.229-0.471-8.229-0.471"/>
			<path id="path62" fill="#FFCE31" stroke="#000000" stroke-width="0.2" stroke-linecap="round" stroke-linejoin="round" d="
				M9.266,28.695c0,0,2.864-1.367,3.367-1.559"/>
			
				<polyline id="polyline66" fill="#FFCE31" stroke="#000000" stroke-width="0.2" stroke-linecap="round" stroke-linejoin="round" points="
				10.81,36.531 11.771,37.406 12.641,36.537 13.521,37.445 14.47,36.604 15.344,37.523 16.329,36.711 17.136,37.65 18.116,36.9 
				19.149,37.811 			"/>
			
				<circle id="circle68" fill="#FFCE31" stroke="#000000" stroke-width="0.2" stroke-linecap="round" stroke-linejoin="round" cx="13.541" cy="34.867" r="0.383"/>
			
				<circle id="circle70" fill="#FFCE31" stroke="#000000" stroke-width="0.2" stroke-linecap="round" stroke-linejoin="round" cx="15.151" cy="34.976" r="0.382"/>
			
				<circle id="circle72" fill="#FFCE31" stroke="#000000" stroke-width="0.2" stroke-linecap="round" stroke-linejoin="round" cx="9.151" cy="24.659" r="0.296"/>
		</g>
	</g>
</g>
</svg>
