<?xml version="1.0" encoding="utf-8"?>
<!-- Generator: Adobe Illustrator 15.0.0, SVG Export Plug-In . SVG Version: 6.00 Build 0)  -->
<!DOCTYPE svg PUBLIC "-//W3C//DTD SVG 1.1//EN" "http://www.w3.org/Graphics/SVG/1.1/DTD/svg11.dtd">
<svg version="1.1" id="Layer_1" xmlns="http://www.w3.org/2000/svg" xmlns:xlink="http://www.w3.org/1999/xlink" x="0px" y="0px"
	 width="64px" height="64px" viewBox="0 0 64 64" enable-background="new 0 0 64 64" xml:space="preserve">
<g>
	<polygon fill="#2A5F9E" points="14,8 14,8 14,56 14,56 38.001,32 	"/>
	<path fill="#FFCE31" d="M56,14C50.527,6.714,41.814,2,32,2c-6.754,0-12.985,2.233-18,6l24,24L56,14z"/>
	<path fill="#ED4C5C" d="M56,50c3.768-5.014,6-11.246,6-18c0-6.753-2.232-12.985-6-17.999L38.001,32L56,50z"/>
	<path fill="#699635" d="M38.001,32L14,56c5.014,3.768,11.246,6,18,6c9.814,0,18.527-4.713,24-12L38.001,32z"/>
	<path fill="#2A5F9E" d="M6,17.041C3.46,21.445,2,26.55,2,32c0,5.45,1.46,10.555,4,14.959V17.041z"/>
	<path fill="#FFFFFF" d="M6,17.041v29.918c1.13,1.961,2.472,3.781,4,5.43V11.612C8.472,13.26,7.13,15.081,6,17.041z"/>
	<path fill="#ED4C5C" d="M10,11.612v40.776c1.223,1.318,2.56,2.529,4,3.611V8C12.56,9.082,11.223,10.293,10,11.612z"/>
	<circle fill="#FFFFFF" cx="38.001" cy="32" r="12"/>
</g>
</svg>
