<?xml version="1.0" encoding="utf-8"?>
<!-- Generator: Adobe Illustrator 15.0.0, SVG Export Plug-In . SVG Version: 6.00 Build 0)  -->
<!DOCTYPE svg PUBLIC "-//W3C//DTD SVG 1.1//EN" "http://www.w3.org/Graphics/SVG/1.1/DTD/svg11.dtd">
<svg version="1.1" id="Layer_1" xmlns="http://www.w3.org/2000/svg" xmlns:xlink="http://www.w3.org/1999/xlink" x="0px" y="0px"
	 width="64px" height="64px" viewBox="0 0 64 64" enable-background="new 0 0 64 64" xml:space="preserve">
<g>
	<g>
		<path fill="#3E4347" d="M32,62c9.814,0,18.528-4.713,24.001-11.999L7.999,14C4.232,19.014,2,25.246,2,32C2,48.569,15.432,62,32,62
			z"/>
		<path fill="#C94747" d="M62,32C62,15.432,48.569,2,32,2C22.186,2,13.473,6.714,7.999,14l48.002,36.001
			C59.768,44.987,62,38.755,62,32z"/>
	</g>
	<path fill="#FFCE31" d="M53.027,29.71c-0.213-2.784-1.14-3.183-1.281-3.607c-0.144-0.43,0.229,0.114,0.543,0.229
		c0.315,0.115-0.057-0.601-0.143-0.916c-0.086-0.314,0.944,0.658,1.201,0.744c0.258,0.086-0.601-2.346-0.857-2.518
		c-0.258-0.172,0.257,0.057,0.429,0.114s-1.573-2.661-1.945-2.661s0.314-0.143,0.515-0.143s-2.003-1.774-2.375-1.774
		s0.801-0.458,0.916-0.486c0.2,0.028-2.547-1.459-5.008,0.028c-0.143-0.114,1.159-1.016,1.202-1.401
		c0.015-0.101-0.429-0.315-0.458-0.43c-0.028-0.114,0.687-0.457,0.716-0.715c-0.172-0.229-0.487-0.144-0.658-0.2
		c-0.043-0.215,0.601-0.744,0.544-0.973c-0.043-0.129-0.516-0.172-0.63-0.086s0.3-0.602,0.229-0.802
		c-0.057-0.085-0.286-0.028-0.515,0.029c-0.144-0.029,0.744-1.26,0.572-1.431c-0.172-0.172-2.575,1.259-3.462,2.861
		c-0.888,1.602-0.2,2.89-0.315,3.433c-0.114,0.544-0.258,1.088-0.629,1.088c-0.372,0-1.23-0.572-1.517-0.858
		s-0.344-0.486-0.744-0.601c-0.4-0.115-1.316,0.229-1.659,0.257c-0.344,0.029-1.688-0.257-1.774-0.172
		c-0.086,0.086,1.316,0.602,1.631,0.773c0.315,0.171,0.344,0.4,0.572,0.543c0.229,0.144,2.375,0.772,1.688,1.66
		c-0.484,0.625-1.631-0.63-3.005-0.658c-1.373-0.029-2.346,1.315-2.746,1.773c-0.401,0.458-1.688,2.861-1.66,3.119
		c0.029,0.258,0.802-0.716,1.088-0.887c0.028,0.343-0.315,0.743-0.229,0.858c0.086,0.114,1.002-0.688,1.316-0.716
		c0.086,0.229-0.172,0.458-0.086,0.801c0.114,0.115,0.63-0.572,0.973-0.715c0.058,0.258-0.314,0.744-0.114,1.059
		c0.144,0.028,1.001-0.973,1.288-1.087c0.286-0.115-0.144,0.944,0,1.03c0.257-0.172,1.059-1.088,1.315-1.202
		c0.258-0.114-0.028,1.173,0.086,1.173c0.315-0.229,1.116-1.316,1.202-1.487c0.086-0.172-0.086,1.659,0.801,2.632
		s2.232,2.089,2.375,2.089c0.172-0.314-0.057-0.973,0.086-0.944c0.4,0.43,1.145,1.059,1.316,1.059s-0.115-0.687,0.114-0.687
		c0.458,0.43,1.774,2.117,4.349,2.89c-0.171-0.486-0.543-0.915-0.572-1.145c0.172,0.029,0.773,0.315,0.888,0.286
		c0.114-0.028-1.259-1.717-1.173-1.945c0.314-0.028,0.457,0.172,0.572,0.028c-0.144-0.229-1.346-1.573-1.346-1.889
		c0-0.314,0.372,0.058,0.486,0c0.115-0.057-0.457-1.259-0.343-1.401c0.114-0.144,1.373,0.772,1.688,0.772
		c0.122,0,0.162-0.168,0.174-0.378c0.853,0.697,2.522,2.026,3.665,3.72c-0.011,0.363-0.064,0.739-0.177,1.122
		c-0.858,2.089-2.575,3.204-5.093,2.289c0.143,0.229,1.487,1.345,2.946,0.943c1.23-0.337,2.683-1.203,2.99-3.179
		c0.326,0.715,0.529,1.474,0.529,2.264c0,3.776-3.376,3.662-4.349,3.548c1.087,0.916,5.207,0.744,5.207-3.548
		C54.378,32.053,53.813,30.822,53.027,29.71z M48.66,25.561c0.003-0.124,0.015-0.216,0.053-0.23
		c0.143-0.058,1.202,0.601,1.431,0.601s0.2-0.486,0.286-0.43c0.062,0.042,1.377,1.352,1.779,3.175
		C50.897,27.172,49.351,26.008,48.66,25.561z"/>
	<g>
		<polygon fill="#FFFFFF" points="19.372,41.239 18.993,40.008 18.61,41.239 17.396,41.239 18.379,41.983 18.015,43.155 
			18.979,42.438 19.972,43.189 19.599,41.978 20.591,41.239 		"/>
		<polygon fill="#FFFFFF" points="14.408,26.601 13.681,28.942 15.609,27.509 17.594,29.011 16.849,26.587 18.833,25.11 
			16.395,25.11 15.637,22.647 14.871,25.11 12.441,25.11 		"/>
		<polygon fill="#FFFFFF" points="8.878,34.72 8.121,32.257 7.355,34.72 4.925,34.72 6.893,36.209 6.164,38.552 8.093,37.118 
			10.077,38.62 9.332,36.196 11.317,34.72 		"/>
		<polygon fill="#FFFFFF" points="24.329,35.513 26.313,34.036 23.875,34.036 23.117,31.573 22.352,34.036 19.922,34.036 
			21.89,35.525 21.161,37.868 23.09,36.435 25.074,37.937 		"/>
		<polygon fill="#FFFFFF" points="16.395,47.702 15.637,45.239 14.871,47.702 12.441,47.702 14.408,49.191 13.681,51.534 
			15.609,50.101 17.594,51.603 16.849,49.179 18.833,47.702 		"/>
	</g>
</g>
</svg>
