<?xml version="1.0" encoding="utf-8"?>
<!-- Generator: Adobe Illustrator 15.0.0, SVG Export Plug-In . SVG Version: 6.00 Build 0)  -->
<!DOCTYPE svg PUBLIC "-//W3C//DTD SVG 1.1//EN" "http://www.w3.org/Graphics/SVG/1.1/DTD/svg11.dtd">
<svg version="1.1" id="Layer_1" xmlns="http://www.w3.org/2000/svg" xmlns:xlink="http://www.w3.org/1999/xlink" x="0px" y="0px"
	 width="64px" height="64px" viewBox="0 0 64 64" enable-background="new 0 0 64 64" xml:space="preserve">
<g>
	<g>
		<g>
			<path fill="#2A5F9E" d="M32,2v10H12v20H2c0,16.568,13.432,30,30,30s30-13.432,30-30S48.568,2,32,2z"/>
			<path fill="#FFFFFF" d="M14,8C6.714,13.473,2,22.186,2,32h12V8z"/>
			<path fill="#FFFFFF" d="M8,14h24V2C22.186,2,13.473,6.714,8,14z"/>
			<path fill="#FFFFFF" d="M9.831,11.789L26,32h6v-7.5L17.15,5.938C14.412,7.5,11.941,9.476,9.831,11.789z"/>
			<path fill="#ED4C5C" d="M32,5H18.912C12.857,7.94,7.94,12.857,5,18.912V32h6V11h21V5z"/>
			<polygon fill="#ED4C5C" points="32,27.059 19,11 13,11 30,32 32,32 			"/>
		</g>
		<g>
			<g>
				<path fill="#FFFFFF" d="M37.134,32l1.01-2.926l-2.721-1.914h3.393l0.976-2.816l1.004,2.816h3.378l-2.72,1.914L42.462,32
					l-2.664-1.796L37.134,32z"/>
			</g>
			<g>
				<polygon fill="#ED4C5C" points="39.798,29.521 41.393,30.596 40.789,28.849 42.375,27.733 40.41,27.733 39.798,26.017 
					39.203,27.733 37.221,27.733 38.808,28.849 38.205,30.596 				"/>
			</g>
		</g>
		<g>
			<g>
				<path fill="#FFFFFF" d="M54.634,32l1.01-2.926l-2.721-1.914h3.393l0.976-2.816l1.004,2.816h3.378l-2.72,1.914L59.962,32
					l-2.664-1.796L54.634,32z"/>
			</g>
			<g>
				<polygon fill="#ED4C5C" points="57.298,29.521 58.893,30.596 58.289,28.849 59.875,27.733 57.91,27.733 57.298,26.017 
					56.703,27.733 54.721,27.733 56.308,28.849 55.705,30.596 				"/>
			</g>
		</g>
		<g>
			<g>
				<path fill="#FFFFFF" d="M45.884,21.656l1.01-2.926l-2.721-1.914h3.393L48.541,14l1.004,2.816h3.378l-2.72,1.914l1.009,2.926
					l-2.664-1.796L45.884,21.656z"/>
			</g>
			<g>
				<polygon fill="#ED4C5C" points="48.548,19.178 50.143,20.252 49.539,18.505 51.125,17.389 49.16,17.389 48.548,15.673 
					47.953,17.389 45.971,17.389 47.558,18.505 46.955,20.252 				"/>
			</g>
		</g>
		<g>
			<g>
				<path fill="#FFFFFF" d="M45.047,48.656l1.326-3.846l-3.575-2.516h4.459l1.281-3.701l1.319,3.701h4.44l-3.573,2.516l1.324,3.846
					l-3.501-2.361L45.047,48.656z"/>
			</g>
			<g>
				<polygon fill="#ED4C5C" points="48.548,45.398 50.643,46.811 49.852,44.514 51.936,43.047 49.352,43.047 48.548,40.793 
					47.766,43.047 45.16,43.047 47.246,44.514 46.454,46.811 				"/>
			</g>
		</g>
	</g>
	<rect x="12.563" y="11" fill="#FFFFFF" width="12.188" height="3"/>
</g>
</svg>
