<?xml version="1.0" encoding="utf-8"?>
<!-- Generator: Adobe Illustrator 15.0.0, SVG Export Plug-In . SVG Version: 6.00 Build 0)  -->
<!DOCTYPE svg PUBLIC "-//W3C//DTD SVG 1.1//EN" "http://www.w3.org/Graphics/SVG/1.1/DTD/svg11.dtd">
<svg version="1.1" id="Layer_1" xmlns="http://www.w3.org/2000/svg" xmlns:xlink="http://www.w3.org/1999/xlink" x="0px" y="0px"
	 width="64px" height="64px" viewBox="0 0 64 64" enable-background="new 0 0 64 64" xml:space="preserve">
<g>
	<path fill="#ED4C5C" d="M32,62c13.062,0,24.168-8.35,28.287-20H3.714C7.833,53.65,18.939,62,32,62z"/>
	<path fill="#F9F9F9" d="M32,2C18.939,2,7.833,10.35,3.714,22h56.573C56.168,10.35,45.062,2,32,2z"/>
	<path fill="#428BC1" d="M60.287,42C61.393,38.871,62,35.508,62,32s-0.607-6.871-1.713-10H3.714C2.608,25.129,2,28.492,2,32
		s0.608,6.871,1.714,10H60.287z"/>
	<path fill="#428BC1" d="M30.188,24.253L31,13.095c-6.329-2.793-13.671-2.793-20,0l0.812,11.158C12.176,29.267,15.835,33.547,21,35
		C26.165,33.547,29.823,29.267,30.188,24.253"/>
	<path fill="#FFFFFF" d="M13.5,25.764c0.869,3.646,3.709,6.608,7.5,7.824c3.79-1.216,6.63-4.178,7.5-7.824l-3.75-4.657l-1.5,1.863
		L21,18.779l-2.25,4.191l-1.5-1.863L13.5,25.764"/>
	<path fill="#428BC1" d="M13.835,26.929c0.69,1.114,2.22,1.495,3.415,0.853c0.774-0.417,1.726-0.417,2.5,0
		c0.773,0.415,1.726,0.415,2.499,0c0.774-0.417,1.727-0.417,2.501,0c1.196,0.643,2.724,0.261,3.415-0.853v0.672
		c-0.691,1.114-2.219,1.496-3.415,0.853c-0.774-0.416-1.727-0.416-2.501,0c-0.773,0.417-1.726,0.417-2.499,0
		c-0.774-0.416-1.727-0.416-2.5,0c-1.195,0.643-2.725,0.262-3.415-0.853V26.929z"/>
	<path fill="#428BC1" d="M13.835,28.273c0.69,1.114,2.22,1.496,3.415,0.853c0.774-0.417,1.726-0.417,2.5,0
		c0.773,0.416,1.726,0.416,2.499,0c0.774-0.417,1.727-0.417,2.501,0c1.196,0.643,2.724,0.261,3.415-0.853v0.672
		c-0.691,1.114-2.219,1.496-3.415,0.854c-0.774-0.417-1.727-0.417-2.501,0c-0.773,0.415-1.726,0.415-2.499,0
		c-0.774-0.417-1.727-0.417-2.5,0c-1.195,0.643-2.725,0.26-3.415-0.853v-0.001V28.273z"/>
	<path fill="#ED4C5C" d="M11.702,12.798l0.831,11.409c0.339,4.661,3.694,8.658,8.468,10.088c4.774-1.43,8.128-5.427,8.468-10.088
		l0.83-11.409C30.531,12.9,30.764,13,31,13.095l-0.812,11.158C29.823,29.267,26.165,33.547,21,35
		c-5.165-1.453-8.824-5.733-9.188-10.747L11,13.095C11.236,13,11.47,12.9,11.702,12.798"/>
</g>
<g>
	<g>
		<polygon fill="#FFE62E" points="17,11.9 17.22,12.636 18,12.45 17.441,13 18,13.55 17.22,13.364 17,14.1 16.78,13.364 16,13.55 
			16.559,13 16,12.45 16.78,12.636 		"/>
		<polygon fill="#FFE62E" points="25,11.9 25.22,12.636 26,12.45 25.441,13 26,13.55 25.22,13.364 25,14.1 24.78,13.364 24,13.55 
			24.559,13 24,12.45 24.78,12.636 		"/>
	</g>
	<polygon fill="#FFE62E" points="21,14.8 21.221,15.536 22,15.35 21.44,15.9 22,16.45 21.221,16.264 21,17 20.78,16.264 20,16.45 
		20.56,15.9 20,15.35 20.78,15.536 	"/>
</g>
</svg>
