<?xml version="1.0" encoding="utf-8"?>
<!-- Generator: Adobe Illustrator 15.0.0, SVG Export Plug-In . SVG Version: 6.00 Build 0)  -->
<!DOCTYPE svg PUBLIC "-//W3C//DTD SVG 1.1//EN" "http://www.w3.org/Graphics/SVG/1.1/DTD/svg11.dtd">
<svg version="1.1" id="Layer_1" xmlns="http://www.w3.org/2000/svg" xmlns:xlink="http://www.w3.org/1999/xlink" x="0px" y="0px"
	 width="64px" height="64px" viewBox="0 0 64 64" enable-background="new 0 0 64 64" xml:space="preserve">
<g>
	<circle fill="#F5F5F5" cx="32" cy="32.001" r="30"/>
	<path fill="#ED4C5C" d="M17.773,21.168v-4.063h1.326l0.866,3.093l0.855-3.093h1.33v4.063h-0.84v-3.277l-0.885,3.277H19.51
		l-0.897-3.277v3.277H17.773 M24.682,17.918l-0.602,1.729h1.209L24.682,17.918 M24.162,17.105h1.035l1.57,4.063h-0.941l-0.295-0.836
		h-1.689l-0.287,0.836h-0.943L24.162,17.105 M29.162,21.168h-0.895v-1.515l-1.582-2.549h1.096l0.932,1.752l0.861-1.752h1.023
		l-1.436,2.549V21.168 M31.713,19.141c0,0.446,0.105,0.794,0.318,1.042c0.213,0.247,0.512,0.37,0.895,0.37
		c0.385,0,0.686-0.123,0.9-0.37c0.215-0.248,0.322-0.596,0.322-1.042c0-0.447-0.107-0.794-0.322-1.04
		c-0.215-0.248-0.516-0.373-0.9-0.373c-0.383,0-0.682,0.124-0.895,0.37S31.713,18.692,31.713,19.141 M30.799,19.141
		c0-0.657,0.191-1.178,0.574-1.562c0.383-0.387,0.9-0.579,1.553-0.579c0.65,0,1.168,0.192,1.551,0.579
		c0.387,0.386,0.58,0.906,0.58,1.562c0,0.654-0.193,1.175-0.58,1.562c-0.383,0.386-0.9,0.579-1.551,0.579
		c-0.652,0-1.17-0.193-1.553-0.579C30.99,20.316,30.799,19.795,30.799,19.141 M36.67,21.168v-3.338h-1.293v-0.726h3.473v0.726
		h-1.285v3.338H36.67 M40.266,21.168v-3.338h-1.293v-0.726h3.473v0.726h-1.283v3.338H40.266 M42.959,21.168v-4.063h3.162v0.706
		h-2.277v0.866h2.082v0.695h-2.082v1.046h2.385v0.75H42.959"/>
	<path fill="#3E4347" d="M22.73,44.749c-1.258,0.426-3.07,1.301-3.794,1.791c-0.233,0.17-0.213,0.359,0.15,1.086
		c0.256,0.469,0.512,0.873,0.555,0.873c0.063,0,0.766-0.318,1.555-0.723c0.789-0.385,1.797-0.891,2.26-0.982
		c0.354-0.068,0.678-0.135,0.877-0.219c0.081,0.197,0.031,0.09,0.178,0.395c0.211,0.443,0.08,0.434,0.445,0.555
		c0.385,0.127,1.334-0.389,1.334-0.389c1.108-0.383,1.727-0.426,5.711-0.426s4.604,0.043,5.711,0.447c0,0,0.893,0.303,1.008,0.342
		c0.111,0.035,0.174,0.063,0.295,0.035c0.109-0.027,0.223-0.195,0.273-0.297c0,0,0.246-0.59,0.309-0.795
		c0.213,0.104,0.598,0.236,0.973,0.352c0.447,0.15,1.449,0.598,2.236,0.982c0.789,0.404,1.492,0.723,1.557,0.723
		c0.041,0,0.299-0.404,0.555-0.873c0.51-1.002,0.553-0.916-1.301-1.875c-2.473-1.279-4.943-1.854-5.18-1.236
		c-0.043,0.119-0.078,0.186-0.137,0.338c-0.248-0.057-0.898-0.211-1.547-0.316c-2.004-0.363-7.5-0.363-9.504,0
		c-0.649,0.105-1.09,0.283-1.457,0.387c-0.207-0.416-0.164-0.25-0.206-0.367C25.414,44.128,24.285,44.196,22.73,44.749z"/>
	<path fill="#DFDFDF" d="M24.754,44.442c-0.916,0.029-2.631,0.615-4.367,1.498c-1.492,0.746-1.534,0.789-1.13,1.578
		c0.171,0.363,0.364,0.684,0.384,0.725l0.004,0.004c0.08,0.021,0.744-0.273,1.507-0.666c0.811-0.404,1.836-0.85,2.283-0.977
		c0.331-0.117,0.569-0.129,0.865-0.191c-0.054-0.314,0.013-0.043-0.196-0.641c0.242-0.607,0.708-1.131,1.162-1.244
		C25.148,44.464,24.977,44.437,24.754,44.442z"/>
	<path fill="#DFDFDF" d="M31.756,44.458c-1.768,0.018-3.504,0.104-4.297,0.227c-1.354,0.225-2.084,0.654-2.586,0.916
		c-0.186,0.135-0.346,0.168-0.545,0.289c0.158,0.359,0.152,0.576,0.285,0.889c0.145,0.332,0.072,0.543,0.463,0.551
		c0.387,0.012,1.233-0.406,1.233-0.406c1.088-0.385,1.728-0.428,5.69-0.428c3.986,0,4.789,0.127,5.709,0.447
		c0.668,0.23,0.943,0.412,1.213,0.365c0.137-0.027,0.209-0.225,0.305-0.465c0.133-0.326,0.291-0.764,0.369-1.313
		c-0.209-0.031-0.115,0.076-0.4-0.053c-0.619-0.275-0.736-0.297-1.143-0.469c-0.482-0.203-0.936-0.203-1.645-0.336
		c-0.832-0.129-2.678-0.178-4.482-0.215H31.756z"/>
	<path fill="#DFDFDF" d="M39.16,44.462c-0.119,0-0.223,0.014-0.309,0.039c0.186,0.115,0.404,0.313,0.525,0.375
		c0.445,0.234,0.445,0.451,0.4,0.854c-0.02,0.186-0.035,0.256-0.109,0.512c0.168,0.076,0.58,0.246,0.922,0.363
		c0.426,0.127,1.447,0.572,2.258,0.977c0.752,0.387,1.408,0.678,1.504,0.666l0.006-0.004h0.004c0.02-0.041,0.213-0.361,0.385-0.725
		c0.277-0.533,0.297-0.723,0.084-0.893c-0.469-0.385-2.365-1.26-3.73-1.729C40.227,44.606,39.586,44.458,39.16,44.462z"/>
	<path fill="#DFDFDF" d="M38.625,44.634l-0.041,0.051c-0.064,0.08-0.074,0.164-0.094,0.262c0.143,0.049,0.619,0.346,0.863,0.336
		l0.119-0.014l0.006-0.002l0.002-0.004l0.006-0.006l0.006-0.002l0.002-0.004v-0.002v-0.004v-0.002v-0.004l-0.002-0.01l-0.006-0.006
		l-0.006-0.008c-0.033-0.045-0.137-0.117-0.34-0.23C38.994,44.905,38.764,44.745,38.625,44.634z"/>
	<path fill="#DFDFDF" d="M25.393,44.64c-0.14,0.107-0.377,0.254-0.529,0.357c-0.274,0.186-0.314,0.33-0.434,0.59l-0.006,0.016v0.004
		h0.003h0.003c0.04-0.018,0.246-0.205,0.742-0.373c0.426-0.16,0.199-0.082,0.463-0.191c-0.174-0.27-0.197-0.287-0.217-0.352
		L25.393,44.64z"/>
	<path fill="#2A5F9E" d="M26.051,24.776c-0.475,0.246-0.719,0.609-0.759,1.102c-0.038,0.531,0.077,0.907,0.382,1.192
		c0.137,0.137,0.254,0.266,0.254,0.299c0,0.025-0.104,0.154-0.234,0.277c-0.304,0.285-0.479,0.662-0.479,1.051
		c0,0.402,0.123,0.68,0.453,1.043l0.272,0.299l-0.298,0.33c-0.596,0.662-0.577,1.418,0.044,2.047l0.267,0.279h6.105h6.098
		l0.297-0.318c0.576-0.615,0.576-1.283,0.008-1.988l-0.293-0.357l0.273-0.322c0.596-0.713,0.582-1.369-0.033-2.055
		c-0.277-0.305-0.285-0.363-0.064-0.506c0.355-0.24,0.576-1.049,0.414-1.542c-0.238-0.738-1.27-1.231-1.898-0.907
		c-0.117,0.059-0.35,0.221-0.525,0.356c-0.174,0.143-0.336,0.253-0.369,0.253c-0.025,0-0.182-0.116-0.342-0.26
		c-0.629-0.537-1.369-0.499-1.998,0.11l-0.238,0.233l-0.318-0.292c-0.641-0.603-1.445-0.577-2.1,0.059l-0.24,0.233l-0.26-0.233
		c-0.381-0.35-0.633-0.453-1.074-0.46c-0.422-0.007-0.816,0.169-1.129,0.505l-0.154,0.162l-0.338-0.284
		C27.152,24.548,26.653,24.458,26.051,24.776z"/>
	<path fill="#ED4C5C" d="M25.736,33.075c-0.636,0.705-0.629,1.426,0.013,2.139l0.239,0.266l-0.272,0.297
		c-0.148,0.162-0.311,0.395-0.362,0.514c-0.207,0.498-0.051,1.166,0.355,1.547c0.247,0.24,0.254,0.338,0.021,0.623
		c-0.104,0.123-0.228,0.297-0.272,0.389c-0.485,0.92,0.24,2.074,1.314,2.074c0.429,0,0.753-0.137,1.043-0.447
		c0.234-0.246,0.357-0.254,0.564-0.033c0.305,0.338,0.707,0.545,1.045,0.545c0.395,0,0.641-0.123,1.043-0.506l0.305-0.299
		l0.277,0.305c0.604,0.648,1.213,0.668,2.023,0.053l0.33-0.246l0.285,0.258c0.355,0.313,0.621,0.436,0.971,0.436
		c0.352,0,0.609-0.137,1.018-0.537l0.338-0.324l0.26,0.232c0.498,0.447,0.771,0.59,1.133,0.59c0.377,0,0.643-0.123,1.018-0.461
		c0.352-0.316,0.539-0.686,0.492-0.99c-0.045-0.332-0.344-0.934-0.563-1.141l-0.188-0.182l0.291-0.33
		c0.635-0.746,0.641-1.322,0.014-2.063l-0.26-0.311l0.271-0.33c0.609-0.719,0.604-1.387-0.012-2.041l-0.332-0.344l-6.064,0.008
		l-6.066,0.006L25.736,33.075z"/>
	<path fill="#3E4347" d="M24.395,32.233c0,0,0.004,6.064,0.016,8.379c-0.021,0.344,0.18,0.426,0.475,0.654
		c0.475,0.369,0.982,0.756,3.703,0.545c2.5,0.016,3.023,0.209,3.285,1.205l0.141,0.559l0.121-0.559
		c0.193-0.961,0.785-1.189,3.197-1.205c3.105,0.047,3.363-0.148,3.807-0.529c0,0,0.326-0.25,0.408-0.49
		c0.096-0.27,0.049-0.49,0.049-0.49v-8.068v-8.493h-7.6h-7.602V32.233z M39.422,32.304l0.033,6.996c0,0.941,0.068,1.23-0.033,1.41
		c-0.1,0.18-0.303,0.418-0.303,0.418c-0.473,0.473-0.873,0.568-3.023,0.541c-1.391,0.002-2.141,0.041-3.236,0.215
		c-0.172,0.154-0.645,0.141-0.863,1.039c-0.285-0.898-0.49-0.859-0.49-0.859c-1.162-0.488-1.684-0.393-3.547-0.41
		c-1.206,0.174-2.5-0.053-2.989-0.541c0,0-0.073,0.02-0.401-0.369c0.002-1.705,0-8.439,0-8.439v-8.388h7.428h7.426V32.304z"/>
	<path fill="#FFFFFF" d="M30.93,29.351c0.84,0.541,2.113,0.367,2.76-0.35c0.264-0.297,0.424-0.76,0.49-0.996
		c0.066-0.232,0.078-0.268,0.117-0.498c0.102,0.225,0.158,0.342,0.205,0.689c0.07,0.516-0.043,0.945-0.166,1.26
		c-0.609,1.607-2.566,2.098-3.791,0.943c-0.596-0.543-1.066-1.607-0.809-2.293c0.092-0.244,0.113-0.383,0.232-0.641
		c0.021,0.176,0.035,0.416,0.156,0.785C30.283,28.757,30.563,29.124,30.93,29.351z"/>
	<path fill="#FFCE31" d="M29.045,35.659c-0.012,0.379,0.008,0.551,0.066,0.832c-0.189-0.184-0.381-0.313-0.646-0.465
		c-0.334-0.195-0.758-0.381-0.902-0.143c-0.139,0.229,0.26,0.541,0.57,0.717c0.34,0.191,0.537,0.219,0.758,0.305
		c-0.188,0.1-0.443,0.166-0.727,0.348c-0.277,0.178-0.693,0.547-0.535,0.783c0.16,0.24,0.623-0.029,0.885-0.205
		c0.217-0.145,0.506-0.375,0.617-0.494c-0.021,0.17-0.09,0.508-0.084,0.83c0.006,0.391,0.061,0.828,0.352,0.828
		c0.299-0.002,0.359-0.518,0.355-0.865c-0.004-0.365-0.045-0.621-0.082-0.801c0.129,0.131,0.324,0.318,0.58,0.521
		c0.211,0.166,0.73,0.414,0.885,0.176c0.158-0.24-0.088-0.48-0.539-0.766c-0.316-0.201-0.541-0.27-0.748-0.355
		c0.209-0.086,0.438-0.107,0.771-0.311c0.494-0.301,0.703-0.502,0.551-0.762c-0.146-0.25-0.445-0.113-0.896,0.174
		c-0.242,0.154-0.469,0.359-0.623,0.506c0.035-0.23,0.072-0.572,0.07-0.824c-0.006-0.377-0.086-0.861-0.342-0.863
		C29.123,34.823,29.059,35.245,29.045,35.659z"/>
	<path fill="#FFFFFF" d="M29.779,36.909c0,0.219-0.178,0.398-0.398,0.398c-0.219,0-0.398-0.18-0.398-0.398
		c0-0.221,0.18-0.398,0.398-0.398c0.221,0,0.398,0.178,0.398,0.396"/>
	<path fill="#FFCE31" d="M34.26,35.659c-0.014,0.379,0.006,0.551,0.066,0.832c-0.191-0.184-0.383-0.313-0.646-0.465
		c-0.336-0.195-0.76-0.381-0.904-0.143c-0.139,0.229,0.26,0.541,0.57,0.717c0.34,0.191,0.535,0.219,0.758,0.305
		c-0.188,0.1-0.443,0.166-0.727,0.348c-0.277,0.178-0.693,0.547-0.537,0.783c0.162,0.24,0.625-0.029,0.887-0.205
		c0.217-0.145,0.506-0.375,0.619-0.494c-0.023,0.17-0.09,0.508-0.084,0.83c0.004,0.391,0.059,0.828,0.35,0.828
		c0.299-0.002,0.361-0.518,0.355-0.865c-0.004-0.365-0.045-0.621-0.082-0.801c0.129,0.131,0.324,0.318,0.58,0.521
		c0.213,0.166,0.73,0.414,0.885,0.176c0.158-0.24-0.088-0.48-0.539-0.766c-0.316-0.201-0.541-0.27-0.748-0.355
		c0.209-0.086,0.438-0.107,0.771-0.311c0.494-0.301,0.703-0.502,0.553-0.762c-0.148-0.25-0.447-0.113-0.898,0.174
		c-0.242,0.154-0.469,0.359-0.623,0.506c0.035-0.23,0.074-0.572,0.07-0.824c-0.004-0.377-0.086-0.861-0.342-0.863
		C34.336,34.823,34.271,35.245,34.26,35.659z"/>
	<path fill="#FFFFFF" d="M34.992,36.909c0,0.219-0.178,0.398-0.398,0.398c-0.219,0-0.396-0.18-0.396-0.398
		c0-0.221,0.178-0.398,0.396-0.398c0.221,0,0.398,0.178,0.398,0.396"/>
	<path fill="#3E4347" d="M23.385,34.743c-0.447-1.809-1.402-3.213-2.688-4.008c0.65,0.025,1.111-0.012,1.111-0.012l1.451-0.121
		l-1.221-0.795c-0.359-0.234-1.395-1.064-1.436-1.771c-0.01-0.158,0.02-0.404,0.379-0.703l0.891-0.737l-0.996-0.125l0.395-0.951
		l-1.094,0.273l-0.107-0.997l0.406-0.262l-0.859-0.776l-0.793-0.07l-0.923,0.36l-0.273-0.821l-0.482,0.751l-0.557-0.763
		l-0.308,1.232l-0.761-0.435l-0.188,0.966L14.3,24.211l0.086,1.609l-1.549-0.259l0.355,1.199l-1.304-0.096l1.016,1.927l-1.186,0.734
		l1.697,1.672l0.041,0.455L9.99,30.608l2.059,2.1l-0.563,2.055l2.373,0.189l-0.897,1.855l2.919-0.734l0.721,1.895
		c-0.129-0.035-0.263-0.053-0.398-0.053c-1.616,0-3.035,2.453-3.035,3.934c0,1.408,2.359,3.832,4.774,3.832
		c1.008,0,1.919-0.4,2.708-1.191C23.156,41.983,24.23,38.157,23.385,34.743z M18.024,36.384c0.623,0.576,1.837,1.965,1.89,4.078
		c0.018,0.719-0.424,1.648-1.127,2.369c-0.471,0.484-0.899,0.705-1.121,0.705h-0.002c-1.912-0.363-2.904-1.211-2.794-2.389
		c0.085-0.898,0.746-1.508,0.946-1.508c0.361,0,0.386,0.09,0.428,0.471c0.024,0.217,0.061,0.543,0.38,0.688l0.181,0.063h0.107
		c0.354,0,0.679-0.258,0.852-0.672c0.193-0.469,0.192-1.176-0.391-1.76c-0.188-0.188-0.396-0.324-0.618-0.41L18.024,36.384z"/>
	<path fill="#DFDFDF" d="M18.942,24.288l-1.304,0.508l-0.109-0.328l-0.313,0.486l-0.355-0.488l-0.208,0.834l-0.729-0.416
		l-0.208,1.063l-0.813-0.605l0.063,1.168l-1.375-0.23l0.333,1.125l-1.125-0.082l0.813,1.541l-1.042,0.646l1.375,1.354l0.119,1.334
		l-2.443-0.596l1.033,1.053l-0.479,1.75l2.5,0.199l-0.75,1.551l2.313-0.582l0.625,1.645l1.13-1.455c0,0,2.39,1.639,2.468,4.779
		c0.045,1.752-1.937,3.75-2.843,3.578c-5.043-0.957-2.922-4.887-1.754-4.887c1.16,0,0.808,1.109,1.014,1.203
		c0.358,0.162,0.926-0.824,0.189-1.561c-1.367-1.367-3.352,1.406-3.352,3.066c0,1.381,3.773,5.143,6.628,2.287
		c4.326-4.326,3.52-12.076-0.863-13.432c-4.357-1.348-3.267-3.246-3.267-3.246c0.451,3.193,5.601,2.768,5.601,2.768
		s-2.837-1.84-1.104-3.277l-0.5-0.063l0.266-0.641l-0.688,0.172l-0.094-0.875l-0.531,0.547l-0.753-0.17l-0.187-0.498l1.481-0.953
		l-0.252-0.227L18.942,24.288z"/>
	<path fill="#3E4347" d="M43.352,44.489c0.789,0.791,1.701,1.191,2.709,1.191c2.414,0,4.773-2.424,4.773-3.832
		c0-1.48-1.418-3.934-3.035-3.934c-0.137,0-0.27,0.018-0.398,0.053l0.721-1.895l2.92,0.734l-0.898-1.855l2.373-0.189l-0.563-2.055
		l2.059-2.1l-3.467,0.846l0.039-0.455l1.697-1.672l-1.186-0.734l1.016-1.927l-1.303,0.096l0.355-1.199l-1.549,0.259l0.086-1.609
		l-1.031,0.768l-0.189-0.966l-0.76,0.435l-0.309-1.232l-0.555,0.763l-0.482-0.751l-0.273,0.821l-0.924-0.36l-0.793,0.07
		l-0.859,0.776l0.404,0.262l-0.105,0.997L42.73,25.52l0.395,0.951l-0.996,0.125l0.891,0.737c0.357,0.299,0.387,0.545,0.379,0.703
		c-0.041,0.707-1.076,1.537-1.438,1.771l-1.219,0.795l1.451,0.121c0,0,0.461,0.037,1.111,0.012c-1.287,0.795-2.24,2.199-2.688,4.008
		C39.771,38.157,40.846,41.983,43.352,44.489z M47.248,38.019c-0.223,0.086-0.432,0.223-0.619,0.41
		c-0.584,0.584-0.584,1.291-0.391,1.76c0.172,0.414,0.498,0.672,0.852,0.672h0.107l0.18-0.063c0.32-0.145,0.357-0.471,0.381-0.688
		c0.043-0.381,0.066-0.471,0.428-0.471c0.201,0,0.861,0.609,0.945,1.508c0.111,1.178-0.881,2.025-2.793,2.389h-0.002
		c-0.223,0-0.65-0.221-1.121-0.705c-0.703-0.721-1.145-1.65-1.127-2.369c0.053-2.113,1.266-3.502,1.891-4.078L47.248,38.019z"/>
	<path fill="#DFDFDF" d="M45.059,24.288l-0.51,0.045l-0.25,0.227l1.48,0.953l-0.188,0.498l-0.754,0.17l-0.531-0.547l-0.094,0.875
		l-0.688-0.172l0.266,0.641l-0.5,0.063c1.734,1.438-1.104,3.277-1.104,3.277s5.15,0.426,5.602-2.768c0,0,1.09,1.898-3.268,3.246
		c-4.381,1.355-5.189,9.105-0.863,13.432c2.855,2.855,6.629-0.906,6.629-2.287c0-1.66-1.984-4.434-3.352-3.066
		c-0.736,0.736-0.168,1.723,0.189,1.561c0.207-0.094-0.146-1.203,1.014-1.203c1.168,0,3.289,3.93-1.754,4.887
		c-0.906,0.172-2.887-1.826-2.844-3.578c0.078-3.141,2.469-4.779,2.469-4.779l1.131,1.455l0.625-1.645l2.313,0.582l-0.75-1.551
		l2.5-0.199l-0.48-1.75l1.033-1.053l-2.443,0.596l0.119-1.334l1.375-1.354l-1.041-0.646l0.813-1.541l-1.125,0.082l0.332-1.125
		l-1.375,0.23l0.063-1.168l-0.813,0.605l-0.207-1.063l-0.73,0.416l-0.207-0.834l-0.355,0.488l-0.313-0.486l-0.109,0.328
		L45.059,24.288z"/>
</g>
</svg>
