<?xml version="1.0" encoding="utf-8"?>
<!-- Generator: Adobe Illustrator 15.0.0, SVG Export Plug-In . SVG Version: 6.00 Build 0)  -->
<!DOCTYPE svg PUBLIC "-//W3C//DTD SVG 1.1//EN" "http://www.w3.org/Graphics/SVG/1.1/DTD/svg11.dtd">
<svg version="1.1" id="Layer_1" xmlns="http://www.w3.org/2000/svg" xmlns:xlink="http://www.w3.org/1999/xlink" x="0px" y="0px"
	 width="64px" height="64px" viewBox="0 0 64 64" enable-background="new 0 0 64 64" xml:space="preserve">
<g>
	<g>
		<path fill="#83BF4F" d="M32,62c13.061,0,24.167-8.35,28.286-20H3.714C7.833,53.65,18.939,62,32,62z"/>
		<path fill="#2A5F9E" d="M32,2C18.939,2,7.833,10.35,3.714,22h56.572C56.167,10.35,45.061,2,32,2z"/>
		<path fill="#ED4C5C" d="M60.286,42C61.393,38.871,62,35.508,62,32s-0.607-6.871-1.714-10H3.714C2.607,25.129,2,28.492,2,32
			s0.607,6.871,1.714,10H60.286z"/>
	</g>
	<g>
		<circle fill="#FFE62E" cx="24" cy="32.001" r="17.7"/>
		<path fill="#3E4347" d="M24,14c-9.926,0-18,8.074-18,18c0,9.928,8.074,18,18,18c9.928,0,18-8.072,18-18C42,22.074,33.928,14,24,14
			z M6.602,32c0-9.474,7.61-17.203,17.04-17.396v3.857c-1.085,0.481-1.948,0.912-2.12,1.867c-0.022,0.126-0.052,1.445-0.083,1.77
			c0,0,0.185,0.023,0.626-0.334c0.192-0.157,0.781-0.258,1.577-0.746v2.013c-1.154,0.176-2.04,1.167-2.04,2.368
			c0,1.204,0.886,2.2,2.04,2.371v0.503c-0.913-0.049-1.716-0.332-2.401-1.733c-0.383-0.779-1.382-1.979-1.382-1.979
			s0.472,1.347,0.542,2.699c0.104,1.985,1.856,2.197,3.241,2.217v0.363h-2.643v0.721h2.643v0.362
			c-1.154,0.108-2.04,0.738-2.04,1.498c0,0.761,0.886,1.391,2.04,1.501v0.359h-2.643v0.721h2.643v0.368
			c-2.038,0.084-3.024,0.906-3.136,2.075c-0.234,2.541-0.705,4.518-0.705,4.518s0.754-0.932,1.638-3.118
			c0.41-1.004,1.304-1.64,2.203-1.775v0.262c-0.924,0.246-1.622,1.42-1.622,2.831c0,1.413,0.698,2.586,1.622,2.831v0.824
			c-1.19,0.031-2.354,0.294-2.963,0.771c-0.823,0.65-2.831,2.642-3.558,3.393C10.938,45.308,6.602,39.15,6.602,32z M30.569,48.113
			c-0.714-0.762-2.528-2.67-3.566-3.526c-0.554-0.453-1.563-0.704-2.645-0.761v-0.834c0.924-0.245,1.624-1.418,1.624-2.831
			c0-1.411-0.7-2.585-1.624-2.831v-0.262c0.899,0.136,1.798,0.771,2.204,1.775c0.883,2.187,1.64,3.118,1.64,3.118
			s-0.471-1.977-0.708-4.518c-0.107-1.169-1.096-1.991-3.136-2.075v-0.368h2.643V34.28h-2.643v-0.359
			c1.157-0.11,2.044-0.74,2.044-1.501c0-0.76-0.887-1.39-2.044-1.498V30.56h2.643v-0.721h-2.643v-0.363
			c1.387-0.02,3.14-0.231,3.242-2.217c0.07-1.353,0.542-2.699,0.542-2.699s-0.999,1.2-1.382,1.979
			c-0.686,1.401-1.489,1.685-2.402,1.733V27.77c1.157-0.171,2.044-1.167,2.044-2.371c0-1.201-0.887-2.192-2.044-2.368V20.5
			c0.703-0.581,1.5-1.479,2.292-2.909c0.439-0.785,0.23-1.134,0.231-1.134h-0.001c0,0,0.023,0.052-0.302,0.333
			c-0.712,0.616-1.489,1.019-2.221,1.353v-3.539C33.79,14.797,41.401,22.526,41.401,32C41.401,39.272,36.917,45.515,30.569,48.113z"
			/>
	</g>
</g>
</svg>
