<?xml version="1.0" encoding="utf-8"?>
<!-- Generator: Adobe Illustrator 15.0.0, SVG Export Plug-In . SVG Version: 6.00 Build 0)  -->
<!DOCTYPE svg PUBLIC "-//W3C//DTD SVG 1.1//EN" "http://www.w3.org/Graphics/SVG/1.1/DTD/svg11.dtd">
<svg version="1.1" id="Layer_1" xmlns="http://www.w3.org/2000/svg" xmlns:xlink="http://www.w3.org/1999/xlink" x="0px" y="0px"
	 width="64px" height="64px" viewBox="0 0 64 64" enable-background="new 0 0 64 64" xml:space="preserve">
<g>
	<g>
		<path fill="#ED4C5C" d="M45.58,32.997l16.341,1.072C61.968,33.385,62,32.696,62,32c0-5.393-1.43-10.448-3.921-14.821L43.811,25.25
			l-2.582-3.236L52.271,9.89c-4.256-3.904-9.641-6.596-15.609-7.527L34.07,18.566H29.93L27.338,2.362
			c-5.971,0.932-11.357,3.625-15.613,7.53l11.046,12.123l-2.582,3.236L5.917,17.185C3.429,21.557,2,26.61,2,32
			c0,0.698,0.032,1.389,0.079,2.075l16.342-1.076l0.922,4.037l-15.19,6.121c2.208,5.504,5.995,10.201,10.807,13.528l9.339-13.438
			l3.73,1.797l-4.682,15.683C26.088,61.552,28.991,62,32,62c3.012,0,5.917-0.448,8.658-1.274l-4.684-15.683l3.73-1.797l9.34,13.437
			c4.812-3.328,8.598-8.026,10.805-13.53l-15.19-6.118L45.58,32.997z"/>
		<path fill="#FFCE31" d="M34.07,18.566l2.592-16.204C35.143,2.125,33.586,2,32,2s-3.143,0.125-4.662,0.362l2.592,16.204H34.07z"/>
		<path fill="#FFCE31" d="M43.811,25.25l14.269-8.071c-1.552-2.725-3.513-5.185-5.808-7.289L41.229,22.014L43.811,25.25z"/>
		<path fill="#FFCE31" d="M45.58,32.997l-0.921,4.037l15.19,6.118c1.138-2.84,1.854-5.892,2.071-9.083L45.58,32.997z"/>
		<path fill="#FFCE31" d="M35.975,45.043l4.684,15.683c3.025-0.91,5.848-2.285,8.387-4.043l-9.34-13.437L35.975,45.043z"/>
		<path fill="#FFCE31" d="M24.298,43.248l-9.339,13.438c2.54,1.757,5.362,3.132,8.388,4.042l4.682-15.683L24.298,43.248z"/>
		<path fill="#FFCE31" d="M18.421,32.999L2.079,34.075c0.219,3.191,0.935,6.243,2.073,9.082l15.19-6.121L18.421,32.999z"/>
		<path fill="#FFCE31" d="M22.771,22.016L11.725,9.893c-2.295,2.106-4.256,4.567-5.808,7.292l14.271,8.067L22.771,22.016z"/>
	</g>
	<circle fill="#FFCE31" cx="32" cy="32" r="9"/>
</g>
</svg>
