<?xml version="1.0" encoding="utf-8"?>
<!-- Generator: Adobe Illustrator 15.0.0, SVG Export Plug-In . SVG Version: 6.00 Build 0)  -->
<!DOCTYPE svg PUBLIC "-//W3C//DTD SVG 1.1//EN" "http://www.w3.org/Graphics/SVG/1.1/DTD/svg11.dtd">
<svg version="1.1" id="Layer_1" xmlns="http://www.w3.org/2000/svg" xmlns:xlink="http://www.w3.org/1999/xlink" x="0px" y="0px"
	 width="64px" height="64px" viewBox="0 0 64 64" enable-background="new 0 0 64 64" xml:space="preserve">
<g>
	<g>
		<path fill="#83BF4F" d="M42,32h10h10C62,15.431,48.569,2,32,2S2,15.431,2,32s13.431,30,30,30V32H42z"/>
		<path fill="#FF8736" d="M52,54.355C58.136,48.862,62,40.884,62,32H52V54.355z"/>
		<path fill="#3E4347" d="M42,32v28.286c3.727-1.317,7.114-3.348,10-5.931V32H42z"/>
		<path fill="#C94747" d="M42,32H32v30c3.508,0,6.871-0.607,10-1.714V32z"/>
	</g>
	<g>
		<path fill="#FF8736" stroke="#2B2B2B" stroke-width="0.25" stroke-miterlimit="10" d="M57.524,22.273
			c1.291-0.741,1.493-1.396,1.475-1.422c0.017-0.119-0.867,0.514-2.486,1.231c1.982-0.962,1.981-1.769,1.894-1.787
			c-0.31-0.037-1.503,0.829-3.067,1.511c1.432-0.672,2.148-1.515,2.049-1.625c-0.304,0.254-3.431,1.479-3.431,1.479l-0.033-0.012
			c0.371-0.231,0.655-0.69,0.352-0.657c-0.511,0.353-2.397,0.732-2.989,0.833c-0.372,0.114-1.542,0.505-1.763,0.48
			c-2.037-0.139-2.547,0.139-2.547,0.139c0.007,0,0.042,0.046,0.094,0.113c-0.024-0.016-0.048-0.029-0.067-0.041
			c-0.014-0.008-0.023-0.019-0.036-0.028c-0.044-0.054-0.06-0.104-0.069-0.137c-0.293-0.635,0.096-0.841,0.323-0.871
			c0.186-0.02,0.241,0.006,0.375-0.054c-0.099-0.035-0.199-0.07-0.3-0.105c0.237,0.049,0.535,0.045,0.446,0.357
			c0.232-0.081,0.729-0.621-0.562-0.743c-0.419-0.442-2.146-0.695-2.577,1.231c0.034,0.027,0.053,0.05,0.162,0.124
			c-0.544-0.242-2.015-0.429-2.544-0.508c-1.431-0.378-2.917-1.29-3.06-1.178c-0.19,0.077,0.865,0.979,0.809,0.998
			c-0.914-0.489-1.75-0.837-2.528-1.151c-0.548-0.188-1.096-0.625-1.156-0.542c-0.201,0.382,0.877,1.345,1.078,1.458
			c0.201,0.108,1.779,0.78,1.756,0.788c-2.377-0.989-2.775-1.169-2.896-1.284c-0.209-0.042-0.72-0.675-0.861-0.634
			c-0.078,0.069,0.078,1.069,1.212,1.518c0.035,0.023,0.16,0.073,0.316,0.133c-0.316-0.12-0.551-0.21-0.579-0.22
			c-0.496-0.178-1.104-0.803-1.216-0.732c-0.108,0.064,0.279,0.74,0.78,0.951c0.165,0.066,0.623,0.272,1.166,0.488
			c-0.492-0.18-1.056-0.387-1.432-0.531c-0.368-0.187-0.541-0.42-0.598-0.37c-0.083,0.05,0.134,1.048,2.74,1.611
			c0.008,0.003,0.028,0.002,0.053,0c-0.048,0.007-0.087,0.012-0.101,0.011c-0.072-0.01-0.529,0.049-0.537,0.07
			c-0.026,0.067,0.166,0.426,1.511,0.351c0.172-0.01,1.105-0.311,1.027-0.246c-0.039,0.032-1.271,0.399-1.364,0.406
			c-0.082,0.012-0.515,0.054-0.531,0.095c-0.019,0.058,0.321,0.313,1.043,0.354c0.641,0.031,1.856-0.359,1.832-0.334
			c-0.024,0.026-1.172,0.386-1.203,0.408c-0.041,0.021-0.461,0.042-0.476,0.072c-0.035,0.073,0.605,0.622,2.5,0.037
			c-0.19,0.235-1.108,0.396-1.107,0.438c-0.004,0.03,0.203,0.215,0.523,0.279c0.16,0.033,0.38,0.026,0.581-0.003
			c0.36-0.066,0.74-0.197,1.224-0.606c0.057,0.128-1.206,0.716-1.146,0.771c0.273,0.233,1.184-0.03,1.243-0.062
			c0.061-0.03,1.753-0.905,1.746-1.007c0.027,0.129-2.183,1.23-2.158,1.275c0.142,0.208,0.896-0.011,0.933-0.03
			c0.035-0.019,0.963-0.478,0.988-0.49c0.025-0.015-1.089,0.597-0.99,0.691c-0.041,0.342,1.275-0.107,1.731-0.293
			c-0.246,0.119-0.711,0.367-0.712,0.507c0.3,0.464,1.258,0.317,1.405,0.215c0.074-0.051-0.087,0.345-0.035,0.31
			c0.019-0.008,0.209-0.215,0.282-0.364c-0.024,0.13-0.129,0.335-0.189,0.569c-0.062,0.234-0.08,0.499-0.164,0.779
			c-0.017,0.105,0.428-0.15,0.499-0.775c-0.037,0.445-0.176,0.973-0.125,1.009c0.037,0.025,0.096-0.009,0.157-0.066l-0.02,0.056
			c-0.005,0.076-0.09,0.537-0.603,0.537c-0.627,0-0.645,0.512-0.645,0.512s-0.052,0.037-0.017,0.285
			c0.104-0.168,0.154-0.221,0.154-0.221c0.07,0.01,0.357,0.089,0.813-0.238c-0.414,0.396-0.167,0.544-0.167,0.544
			s-0.099,0.312,0.219,0.374c-0.098-0.126-0.041-0.237-0.041-0.237s0.443-0.042,0.415-0.537c0.018,0.448,0.281,0.559,0.281,0.559
			s0,0.249,0.289,0.27c-0.156-0.126-0.121-0.322-0.121-0.322s0.373-0.248,0.057-0.671c0.056-0.029,0.106-0.075,0.153-0.124
			c-0.004,0.047-0.01,0.092,0.002,0.151c0,0.264,0.007,0.332,0.202,0.479c-0.052-0.173-0.034-0.295-0.034-0.295
			s0.259,0.143,0.512-0.248c-0.173,0.385-0.052,0.523-0.011,0.532c0.039,0.069-0.07,0.381,0.275,0.376
			c-0.132-0.117-0.069-0.286-0.069-0.286s0.362-0.052,0.235-0.653c0.133-0.121,0.186-0.006,0.186-0.006s0.04,0.359,0.355,0.285
			c0.145,0.074-0.022,0.269-0.022,0.269s0.231,0.007,0.3-0.174c0.068-0.18,0.148-0.501-0.229-0.633
			c-0.048-0.127,0.148-0.138,0.148-0.138s0.242,0.074,0.312,0.185c0.068,0.111,0.046-0.289-0.253-0.332
			c-0.368-0.012-0.392-0.08-0.392-0.096c0-0.006-0.009-0.129-0.021-0.293c0.292,0.206,0.608,0.246,0.617,0.232
			c0.004-0.057-0.629-0.838-0.468-0.939c0.161,0.03,0.424,0.386,0.638,0.27c-0.064-0.138-0.256-0.06-0.473-0.414
			c-0.038-0.07-0.069-0.148-0.101-0.23l0,0c0.013,0.013,0.468,0.479,0.907,0.455c0.166-0.127-0.344-0.405-0.344-0.469
			c0.179,0.152,0.936,0.746,1.418,0.531c0.193-0.252-0.344-0.215-0.936-0.896c0.412,0.252,1.445,0.808,1.928,0.594
			c0.134-0.131-0.355-0.442-0.834-0.779c0.188,0.099,0.33,0.171,0.394,0.197c0.454,0.19,0.964-0.074,0.978-0.113
			c-0.007-0.059-0.201-0.101-0.494-0.168c0.573,0.063,1.019-0.041,1.072-0.122c-0.021-0.075-0.104-0.102-0.661-0.24
			c1.234,0.157,2.162-0.492,2.162-0.492s0.292-0.092-0.207-0.085c3.439-0.403,4.042-1.875,3.98-1.886
			c-0.146-0.017-0.672,0.362-1.511,0.733c1.468-0.674,2.231-1.618,2.186-1.681C58.722,21.735,58.192,21.967,57.524,22.273z
			 M38.081,23.038c0.261-0.054,0.574-0.127,0.548-0.11C38.622,22.933,38.335,22.991,38.081,23.038z M37.045,21.947
			c0.712,0.263,1.957,0.685,1.94,0.729C38.982,22.686,37.836,22.249,37.045,21.947z M48.696,24.912
			c-0.129-0.137-0.224-0.255-0.207-0.313c0.043,0.08,0.129,0.183,0.235,0.291L48.696,24.912z M55.234,23.994
			c-1.002,0.26-2.238,0.369-3.673,0.028C52.987,24.324,54.216,24.246,55.234,23.994z M55.788,23.041
			c-0.223,0.085-0.422,0.152-0.576,0.186C55.415,23.166,55.605,23.104,55.788,23.041z M46.167,26.427
			c0.005-0.079,0.007-0.161-0.002-0.251C46.174,26.25,46.172,26.337,46.167,26.427z M47.793,27.88
			c-0.021,0.024-0.42-0.035-0.66,0.098c-0.054-0.021-0.253-0.103-0.358-0.177c-0.058-0.11-0.005-0.715-0.005-0.717
			c0.095,0.129,0.202,0.249,0.301,0.292c-0.021-0.263,0.003-0.251-0.082-0.511c0.049-0.345,0.056-0.82,0.067-1.358
			c0.517,0.905,0.722,1.289,0.578,1.984c0.063,0.023,0.137-0.063,0.206-0.18l0.028,0.469C47.868,27.78,47.827,27.843,47.793,27.88z
			 M48.134,25.236c0.02,0.018,0.039,0.036,0.06,0.053l-0.011,0.008C48.168,25.277,48.149,25.257,48.134,25.236z M55.509,23.917
			c0.06-0.018,0.119-0.035,0.178-0.054C55.628,23.882,55.568,23.899,55.509,23.917z"/>
		<path fill="#FF8736" stroke="#2B2B2B" stroke-width="0.25" stroke-miterlimit="10" d="M46.17,27.521l0.004-0.01
			C46.175,27.494,46.173,27.489,46.17,27.521z"/>
	</g>
</g>
</svg>
