<?xml version="1.0" encoding="utf-8"?>
<!-- Generator: Adobe Illustrator 15.0.0, SVG Export Plug-In . SVG Version: 6.00 Build 0)  -->
<!DOCTYPE svg PUBLIC "-//W3C//DTD SVG 1.1//EN" "http://www.w3.org/Graphics/SVG/1.1/DTD/svg11.dtd">
<svg version="1.1" id="Layer_1" xmlns="http://www.w3.org/2000/svg" xmlns:xlink="http://www.w3.org/1999/xlink" x="0px" y="0px"
	 width="64px" height="64px" viewBox="0 0 64 64" enable-background="new 0 0 64 64" xml:space="preserve">
<g>
	<g>
		<path fill="#3E4347" d="M32,2C19.701,2,9.14,9.407,4.51,20h54.981C54.861,9.407,44.3,2,32,2z"/>
		<path fill="#75A843" d="M32,62c12.3,0,22.861-7.407,27.491-18H4.51C9.14,54.593,19.701,62,32,62z"/>
		<path fill="#C94747" d="M62,32c0-2.772-0.385-5.452-1.09-8H3.091C2.385,26.548,2,29.228,2,32s0.385,5.452,1.091,8H60.91
			C61.615,37.452,62,34.772,62,32z"/>
		<g>
			<path fill="#FFFFFF" d="M3.714,42c0.24,0.679,0.509,1.345,0.796,2h54.981c0.286-0.655,0.555-1.321,0.795-2
				c0.232-0.656,0.437-1.324,0.624-2H3.091C3.277,40.676,3.482,41.344,3.714,42z"/>
			<path fill="#FFFFFF" d="M60.286,22c-0.24-0.679-0.509-1.345-0.795-2H4.51c-0.287,0.655-0.556,1.321-0.796,2
				c-0.231,0.656-0.437,1.324-0.623,2H60.91C60.723,23.324,60.519,22.656,60.286,22z"/>
		</g>
	</g>
	<g>
		<g id="spear">
			<g>
				<path id="spearshape" fill="#FFFFFF" d="M20.207,52.283l0.714,0.413l19.277-33.39c1.128-0.302,1.746-1.374,2.365-2.446
					c0.413-0.715,2.064-3.574,2.78-7.289c-2.861,2.478-4.511,5.336-4.924,6.051c-0.619,1.072-1.238,2.145-0.936,3.271L20.207,52.283
					z"/>
			</g>
		</g>
		<g id="spear_1_">
			<g>
				<path id="spearshape_2_" fill="#FFFFFF" d="M43.794,52.283l-0.715,0.413l-19.277-33.39c-1.127-0.302-1.746-1.374-2.365-2.446
					c-0.413-0.715-2.063-3.574-2.779-7.289c2.86,2.478,4.51,5.336,4.923,6.051c0.619,1.072,1.238,2.145,0.937,3.271L43.794,52.283z"
					/>
			</g>
		</g>
	</g>
	<path fill="#C94747" d="M40,32c0,11.045-8,20-8,20s-8-8.955-8-20c0-11.047,8-20,8-20S40,20.953,40,32z"/>
	<path fill="#3E4347" d="M26.133,40C27.851,38.348,29,35.387,29,32c0-3.389-1.149-6.348-2.867-8C25.418,26.344,25,29.072,25,32
		C25,34.926,25.418,37.656,26.133,40z"/>
	<path fill="#3E4347" d="M37.867,24C36.149,25.652,35,28.611,35,32c0,3.387,1.149,6.348,2.867,8C38.582,37.656,39,34.926,39,32
		C39,29.072,38.582,26.344,37.867,24z"/>
	<g>
		<ellipse fill="#FFFFFF" cx="32" cy="32" rx="1.61" ry="2.413"/>
	</g>
	<g>
		<path fill="#FFFFFF" d="M31.433,12.747c-0.575,1.741-0.96,4.858-0.96,8.428c0,3.568,0.385,6.688,0.96,8.428
			c0.239-2.469,0.379-5.346,0.379-8.428C31.812,18.091,31.672,15.216,31.433,12.747z"/>
		<path fill="#FFFFFF" d="M32.567,12.747c0.575,1.741,0.96,4.858,0.96,8.428c0,3.568-0.385,6.688-0.96,8.428
			c-0.239-2.469-0.379-5.346-0.379-8.428C32.188,18.091,32.328,15.216,32.567,12.747z"/>
	</g>
	<g>
		<path fill="#FFFFFF" d="M31.433,34.413c-0.575,1.741-0.96,4.858-0.96,8.428c0,3.568,0.385,6.688,0.96,8.428
			c0.239-2.469,0.379-5.346,0.379-8.428C31.812,39.757,31.672,36.882,31.433,34.413z"/>
		<path fill="#FFFFFF" d="M32.567,34.413c0.575,1.741,0.96,4.858,0.96,8.428c0,3.568-0.385,6.688-0.96,8.428
			c-0.239-2.469-0.379-5.346-0.379-8.428C32.188,39.757,32.328,36.882,32.567,34.413z"/>
	</g>
</g>
</svg>
