<?xml version="1.0" encoding="utf-8"?>
<!-- Generator: Adobe Illustrator 15.0.0, SVG Export Plug-In . SVG Version: 6.00 Build 0)  -->
<!DOCTYPE svg PUBLIC "-//W3C//DTD SVG 1.1//EN" "http://www.w3.org/Graphics/SVG/1.1/DTD/svg11.dtd">
<svg version="1.1" id="Layer_1" xmlns="http://www.w3.org/2000/svg" xmlns:xlink="http://www.w3.org/1999/xlink" x="0px" y="0px"
	 width="64px" height="64px" viewBox="0 0 64 64" enable-background="new 0 0 64 64" xml:space="preserve">
<g>
	<path fill="#2A5F9E" d="M53.416,53H11.38c0,0,25.987-29.384,42.358-38.18c0,0-11.847,21.52,2.969,34.192
		C60.043,44.177,62,38.318,62,32C62,15.432,48.568,2,32,2S2,15.432,2,32c0,9.814,4.714,18.526,12,24h36
		C51.215,55.088,52.354,54.082,53.416,53z"/>
	<path fill="#2A5F9E" d="M32,62c4.692,0,9.133-1.079,13.088-3H18.912C22.867,60.921,27.308,62,32,62z"/>
	<path fill="#FFCE31" d="M53.738,14.82C37.367,23.616,11.38,53,11.38,53h42.036c1.207-1.231,2.309-2.565,3.291-3.988
		C41.892,36.34,53.738,14.82,53.738,14.82z"/>
	<path fill="#FFCE31" d="M14,56c1.531,1.149,3.175,2.156,4.913,3h26.176c1.737-0.844,3.382-1.851,4.912-3H14z"/>
	<polygon fill="#FFFFFF" points="18.495,10.275 19.043,11.963 20.817,11.963 19.382,13.006 19.93,14.695 18.495,13.651 
		17.059,14.695 17.607,13.006 16.171,11.963 17.946,11.963 	"/>
	<polygon fill="#FFFFFF" points="27.143,18.137 27.626,19.625 29.19,19.625 27.925,20.545 28.408,22.033 27.143,21.113 
		25.877,22.033 26.36,20.545 25.095,19.625 26.659,19.625 	"/>
	<polygon fill="#FFFFFF" points="8.297,20.502 8.842,22.178 10.604,22.178 9.178,23.214 9.723,24.89 8.297,23.854 6.872,24.89 
		7.417,23.214 5.991,22.178 7.753,22.178 	"/>
	<polygon fill="#FFFFFF" points="18.455,33.299 19.099,35.279 21.181,35.279 19.496,36.504 20.14,38.484 18.455,37.26 
		16.771,38.484 17.414,36.504 15.73,35.279 17.812,35.279 	"/>
</g>
</svg>
