<?xml version="1.0" encoding="utf-8"?>
<!-- Generator: Adobe Illustrator 15.0.0, SVG Export Plug-In . SVG Version: 6.00 Build 0)  -->
<!DOCTYPE svg PUBLIC "-//W3C//DTD SVG 1.1//EN" "http://www.w3.org/Graphics/SVG/1.1/DTD/svg11.dtd">
<svg version="1.1" id="Layer_1" xmlns="http://www.w3.org/2000/svg" xmlns:xlink="http://www.w3.org/1999/xlink" x="0px" y="0px"
	 width="64px" height="64px" viewBox="0 0 64 64" enable-background="new 0 0 64 64" xml:space="preserve">
<g>
	<g>
		<path fill="#A0CFEB" d="M32,62c16.568,0,30-13.432,30-30H2C2,48.568,15.432,62,32,62z"/>
		<path fill="#F9F9F9" d="M32,2C15.432,2,2,15.432,2,32h60C62,15.432,48.568,2,32,2z"/>
	</g>
	<g>
		<polygon fill="#699635" points="22.899,24.584 20.649,24.246 20.687,24.193 21.735,20.734 18.993,23.074 17.824,21.314 
			17.045,23.354 18.461,25.855 21.339,26.123 22.899,24.584 		"/>
		<polygon fill="#83BF4F" points="21.094,27.467 18.833,27.717 18.855,27.656 18.966,24.045 16.928,27.012 15.338,25.609 
			15.117,27.781 17.139,29.834 19.988,29.352 21.094,27.467 		"/>
		<polygon fill="#699635" points="20.101,30.713 17.983,31.535 17.988,31.473 17.154,27.955 15.958,31.344 14.06,30.398 
			14.411,32.553 16.898,34.016 19.525,32.818 20.101,30.713 		"/>
		<polygon fill="#83BF4F" points="19.988,34.104 18.157,35.443 18.146,35.381 16.424,32.197 16.15,35.777 14.07,35.354 
			14.973,37.344 17.756,38.117 19.98,36.287 19.988,34.104 		"/>
		<polygon fill="#699635" points="20.764,37.408 19.346,39.172 19.317,39.115 16.824,36.482 17.494,40.012 15.373,40.137 
			16.764,41.826 19.654,41.859 21.326,39.518 20.764,37.408 		"/>
		<polygon fill="#83BF4F" points="22.375,40.4 21.463,42.469 21.422,42.422 18.328,40.521 19.896,43.756 17.879,44.422 
			19.662,45.697 22.463,44.986 23.468,42.295 22.375,40.4 		"/>
		<polygon fill="#699635" points="24.711,42.879 24.369,45.109 24.317,45.072 20.833,44.033 23.19,46.756 21.417,47.916 
			23.472,48.689 25.992,47.283 26.262,44.426 24.711,42.879 		"/>
		<polygon fill="#699635" points="41.101,24.584 43.351,24.246 43.313,24.193 42.265,20.734 45.007,23.074 46.176,21.314 
			46.955,23.354 45.539,25.855 42.661,26.123 41.101,24.584 		"/>
		<polygon fill="#83BF4F" points="42.906,27.467 45.167,27.717 45.145,27.656 45.034,24.045 47.072,27.012 48.662,25.609 
			48.883,27.781 46.861,29.834 44.012,29.352 42.906,27.467 		"/>
		<polygon fill="#699635" points="43.899,30.713 46.017,31.535 46.012,31.473 46.846,27.955 48.042,31.344 49.94,30.398 
			49.589,32.553 47.102,34.016 44.475,32.818 43.899,30.713 		"/>
		<polygon fill="#83BF4F" points="44.012,34.104 45.843,35.443 45.854,35.381 47.576,32.197 47.85,35.777 49.93,35.354 
			49.027,37.344 46.244,38.117 44.02,36.287 44.012,34.104 		"/>
		<polygon fill="#699635" points="43.236,37.408 44.654,39.172 44.683,39.115 47.176,36.482 46.506,40.012 48.627,40.137 
			47.236,41.826 44.346,41.859 42.674,39.518 43.236,37.408 		"/>
		<polygon fill="#83BF4F" points="41.625,40.4 42.537,42.469 42.578,42.422 45.672,40.521 44.104,43.756 46.121,44.422 
			44.338,45.697 41.537,44.986 40.532,42.295 41.625,40.4 		"/>
		<polygon fill="#699635" points="39.289,42.879 39.631,45.109 39.683,45.072 43.167,44.033 40.81,46.756 42.583,47.916 
			40.528,48.689 38.008,47.283 37.738,44.426 39.289,42.879 		"/>
	</g>
	<g>
		<path fill="#F1BF31" d="M25.732,16.07l2.183,2.316l8.143-0.008l2.21-2.309l0.233-3.403l-5.308-1.622l0.464-0.412l-1.658-1.025
			l-1.656,1.025l0.464,0.412l-4.778,1.189L25.732,16.07L25.732,16.07L25.732,16.07z M37.241,13.268L35.9,15.234l-1.334-0.477
			L32.981,14.5l0.016-2.947L37.241,13.268L37.241,13.268L37.241,13.268z M26.759,13.268l4.221-1.686l0.039,2.918l-1.585,0.258
			L28.1,15.234L26.759,13.268L26.759,13.268L26.759,13.268z"/>
		<polygon fill="#F1BF31" points="31.122,7.449 31.729,7.389 31.724,7.504 31.589,8.615 32.411,8.615 32.276,7.508 32.271,7.389 
			32.878,7.449 33.212,7.066 32.878,6.699 32.341,6.793 32.384,6.168 32,5.816 31.616,6.168 31.659,6.793 31.122,6.699 
			30.788,7.066 31.122,7.449 		"/>
	</g>
	<g>
		<path fill="#A0CFEB" d="M31.828,22.48c1.851-0.033,9.811-1.367,9.811,9.689C41.639,42.729,32,46.928,32,46.928
			s-9.639-4.068-9.639-15.561C22.361,21.113,31.828,22.48,31.828,22.48L31.828,22.48z"/>
		<path fill="#83BF4F" d="M34.955,38.994c0.563-0.314,1.214-0.494,1.905-0.494c1.126,0,2.14,0.475,2.854,1.234
			c-2.812,5.057-7.713,7.193-7.713,7.193s-4.776-2.016-7.604-7.217c0.714-0.746,1.718-1.211,2.831-1.211
			c0.776,0,1.5,0.225,2.107,0.615c0.715-0.77,1.735-1.25,2.869-1.25C33.276,37.865,34.247,38.297,34.955,38.994L34.955,38.994z"/>
		<path fill="#F1BF31" d="M43.534,29.471c-0.274-3.949-1.44-6.449-2.949-7.758c-1.408-1.219-3.036-1.469-4.227-1.051l-0.068-0.004
			l-3.58,1.555c-0.155-0.207-0.4-0.34-0.678-0.34s-0.523,0.133-0.678,0.34l-3.58-1.555l-0.123,0.008
			c-1.191-0.424-2.824-0.176-4.236,1.047c-1.509,1.309-2.675,3.809-2.949,7.758c-0.436,6.252,2.24,10.789,5.244,13.533
			c1.578,1.441,4.107,3.156,6.289,3.99c2.184-0.834,4.713-2.549,6.291-3.99C41.294,40.26,43.97,35.723,43.534,29.471z
			 M23.325,30.496c0.2-4.336,1.42-5.697,2.045-6.182c0.217,0.652,0.881,1.059,1.519,1.059c0.544,0,4.415-2.223,4.415-2.223
			c0.147,0.248,0.418,0.416,0.729,0.416s0.58-0.168,0.729-0.416c0,0,3.746,2.223,4.351,2.223c0.638,0,1.302-0.406,1.519-1.059
			c0.625,0.484,1.845,1.846,2.045,6.182c0.373,8.078-6.675,15.695-8.676,15.695C30,46.191,22.952,38.574,23.325,30.496z"/>
		<g>
			<path fill="#FFFFFF" d="M31.882,37.879c0.105-0.008,0.213-0.014,0.322-0.014c0.479,0,0.937,0.086,1.361,0.244l-0.465-1.885
				v-3.789l0.465-0.66v-1.34l-0.721-0.23v0.809l-0.529-0.148v-0.826l-0.424-0.143l-0.422,0.164v0.826l-0.53,0.189v-0.818
				l-0.72,0.283v1.316l0.518,0.635l0.012,3.768l-0.529,2.145C30.714,38.113,31.278,37.928,31.882,37.879z"/>
			<path fill="#FFFFFF" d="M36.649,38.506c0.07-0.004,0.141-0.006,0.211-0.006c0.52,0,1.014,0.102,1.468,0.285l-0.464-1.82v-3.766
				l0.464-0.656v-1.324l-0.72-0.24v0.807l-0.529-0.178v-0.828l-0.424-0.143l-0.423,0.133v0.826l-0.53,0.156v-0.818l-0.719,0.232
				V32.5l0.517,0.662l0.013,3.764l-0.529,2.053C35.482,38.705,36.048,38.537,36.649,38.506z"/>
			<path fill="#FFFFFF" d="M27.123,38.506c0.069-0.004,0.14-0.006,0.211-0.006c0.519,0,1.015,0.102,1.468,0.285l-0.465-1.82v-3.766
				l0.465-0.656v-1.324l-0.721-0.24v0.807l-0.529-0.178v-0.828l-0.423-0.143l-0.423,0.133v0.826l-0.529,0.156v-0.818l-0.721,0.232
				V32.5l0.518,0.662l0.012,3.764l-0.529,2.053C25.956,38.705,26.521,38.537,27.123,38.506z"/>
			<path fill="#FFFFFF" d="M27.045,27.178l0.032-0.043c0.494-0.088,0.709,0.422,0.798,0.814c0.787-0.541,0.53-1.568-0.462-1.588
				c-0.146-0.004-0.3,0.039-0.436,0.09c-0.287,0.109-0.584,0.479-0.657,0.773c-0.265,1.072,0.766,1.814,0.786,2.957
				C27.89,29.828,27.067,27.832,27.045,27.178z"/>
			<path fill="#FFFFFF" d="M32.702,27.209c0.787-0.541,0.53-1.568-0.461-1.59c-0.146-0.002-0.301,0.039-0.436,0.09
				c-0.289,0.109-0.585,0.479-0.658,0.775c-0.265,1.072,0.766,1.814,0.787,2.957c0.783-0.354-0.04-2.35-0.063-3.006l0.032-0.043
				C32.397,26.305,32.613,26.816,32.702,27.209z"/>
			<path fill="#FFFFFF" d="M36.698,27.178l0.033-0.043c0.492-0.088,0.709,0.422,0.799,0.814c0.786-0.541,0.529-1.568-0.463-1.588
				c-0.146-0.004-0.301,0.039-0.436,0.09c-0.288,0.109-0.584,0.479-0.657,0.773c-0.265,1.072,0.765,1.814,0.786,2.957
				C37.544,29.828,36.722,27.832,36.698,27.178z"/>
		</g>
	</g>
	<path fill="#FFFFFF" d="M45.856,51.898c0,0,1.129-0.963,1.238-2.229c-0.99,0.744-1.98,0.852-2.971,0.852
		c-0.988,0-1.622-0.598-2.918-0.803c0.073-0.447,0.151-0.904,0.269-1.533c0.127-0.686-0.063-1.244-1.062-1.361
		c-2.174-0.254-4.279,1-8.125,1.061c-3.873-0.061-6.527-1.314-8.701-1.061c-1,0.117-1.188,0.676-1.061,1.361
		c0.116,0.629,0.194,1.086,0.267,1.533c-1.296,0.205-1.929,0.803-2.917,0.803c-0.99,0-1.98-0.107-2.97-0.852
		c0.109,1.266,1.237,2.229,1.237,2.229c-1.506,0.064-2.97-0.248-2.97-0.248c1.98,2.227,4.428,3.414,7.671,1.752
		c1.484-0.762,3.014,0.104,4.454,0.104c1.979,0,1.483-1.602,1.236-2.443c1.123,0.223,2.366,0.344,3.729,0.344l0.001-0.004
		c1.228-0.016,2.15-0.133,3.2-0.34c-0.247,0.842-0.743,2.443,1.237,2.443c1.439,0,2.969-0.865,4.453-0.104
		c3.243,1.662,5.691,0.475,7.672-1.752C48.827,51.65,47.362,51.963,45.856,51.898z"/>
</g>
</svg>
