<?xml version="1.0" encoding="utf-8"?>
<!-- Generator: Adobe Illustrator 15.0.0, SVG Export Plug-In . SVG Version: 6.00 Build 0)  -->
<!DOCTYPE svg PUBLIC "-//W3C//DTD SVG 1.1//EN" "http://www.w3.org/Graphics/SVG/1.1/DTD/svg11.dtd">
<svg version="1.1" id="Layer_1" xmlns="http://www.w3.org/2000/svg" xmlns:xlink="http://www.w3.org/1999/xlink" x="0px" y="0px"
	 width="64px" height="64px" viewBox="0 0 64 64" enable-background="new 0 0 64 64" xml:space="preserve">
<g>
	<path fill="#C94747" d="M61.17,39V25l0,0C58.016,11.809,46.157,2,32,2S5.984,11.809,2.83,25v14C5.984,52.189,17.843,62,32,62
		S58.016,52.189,61.17,39L61.17,39z"/>
	<path opacity="0.15" fill="#C28FEF" d="M61.17,39V25l0,0C58.016,11.809,46.157,2,32,2S5.984,11.809,2.83,25v14
		C5.984,52.189,17.843,62,32,62S58.016,52.189,61.17,39L61.17,39z"/>
	<path fill="#FFFFFF" d="M2,32c0,2.41,0.293,4.752,0.83,7h58.34c0.537-2.248,0.83-4.59,0.83-7c0-2.412-0.293-4.754-0.83-7H2.83
		C2.293,27.246,2,29.588,2,32z"/>
</g>
</svg>
