<?xml version="1.0" encoding="utf-8"?>
<!-- Generator: Adobe Illustrator 15.0.0, SVG Export Plug-In . SVG Version: 6.00 Build 0)  -->
<!DOCTYPE svg PUBLIC "-//W3C//DTD SVG 1.1//EN" "http://www.w3.org/Graphics/SVG/1.1/DTD/svg11.dtd">
<svg version="1.1" id="Layer_1" xmlns="http://www.w3.org/2000/svg" xmlns:xlink="http://www.w3.org/1999/xlink" x="0px" y="0px"
	 width="64px" height="64px" viewBox="0 0 64 64" enable-background="new 0 0 64 64" xml:space="preserve">
<g>
	<g>
		<path fill="#3E4347" d="M32,62c13.061,0,24.167-8.35,28.286-20H3.714C7.833,53.65,18.939,62,32,62z"/>
		<path fill="#ED4C5C" d="M32,2C18.939,2,7.833,10.35,3.714,22h56.572C56.167,10.35,45.061,2,32,2z"/>
		<path fill="#F9F9F9" d="M60.286,42C61.393,38.871,62,35.508,62,32s-0.607-6.871-1.714-10H3.714C2.607,25.129,2,28.492,2,32
			s0.607,6.871,1.714,10H60.286z"/>
	</g>
	<polygon fill="#75A843" points="21,35.186 25.326,38 23.692,33.422 28,30.5 22.664,30.5 21,26 19.386,30.5 14,30.5 18.309,33.422 
		16.674,38 	"/>
	<polygon fill="#75A843" points="43,35.186 47.326,38 45.692,33.422 50,30.5 44.664,30.5 43,26 41.386,30.5 36,30.5 40.309,33.422 
		38.674,38 	"/>
</g>
</svg>
