<?xml version="1.0" encoding="utf-8"?>
<!-- Generator: Adobe Illustrator 15.0.0, SVG Export Plug-In . SVG Version: 6.00 Build 0)  -->
<!DOCTYPE svg PUBLIC "-//W3C//DTD SVG 1.1//EN" "http://www.w3.org/Graphics/SVG/1.1/DTD/svg11.dtd">
<svg version="1.1" id="Layer_1" xmlns="http://www.w3.org/2000/svg" xmlns:xlink="http://www.w3.org/1999/xlink" x="0px" y="0px"
	 width="64px" height="64px" viewBox="0 0 64 64" enable-background="new 0 0 64 64" xml:space="preserve">
<g>
	<g>
		<path fill="#83BF4F" d="M60,42c-5.523,0-10-4.477-10-10H10.787v21.213l-0.001-0.001C16.215,58.642,23.715,62,32,62
			c13.066,0,24.176-8.356,28.291-20.015C60.193,41.988,60.098,42,60,42z"/>
		<path fill="#83BF4F" d="M60,22c0.098,0,0.193,0.012,0.291,0.015C56.176,10.356,45.066,2,32,2c-8.285,0-15.785,3.358-21.214,8.788
			l0.001-0.001V32H50C50,26.477,54.477,22,60,22z"/>
		<path fill="#FFE62E" d="M60.286,22H10.787v20h49.499C61.393,38.871,62,35.508,62,32S61.393,25.129,60.286,22z"/>
		<path fill="#ED4C5C" d="M10.787,10.787C5.358,16.216,2,23.716,2,32s3.358,15.784,8.787,21.213L32,32L10.787,10.787z"/>
	</g>
	<polygon fill="#3E4347" points="40,34.124 42.473,36 41.539,32.948 44,31.056 40.951,31.046 40,28 39.049,31.046 36,31.056 
		38.461,32.948 37.527,36 	"/>
	<polygon fill="#3E4347" points="52,34.124 54.473,36 53.539,32.948 56,31.056 52.951,31.046 52,28 51.049,31.046 48,31.056 
		50.461,32.948 49.527,36 	"/>
</g>
</svg>
