<?xml version="1.0" encoding="utf-8"?>
<!-- Generator: Adobe Illustrator 15.0.0, SVG Export Plug-In . SVG Version: 6.00 Build 0)  -->
<!DOCTYPE svg PUBLIC "-//W3C//DTD SVG 1.1//EN" "http://www.w3.org/Graphics/SVG/1.1/DTD/svg11.dtd">
<svg version="1.1" id="Layer_1" xmlns="http://www.w3.org/2000/svg" xmlns:xlink="http://www.w3.org/1999/xlink" x="0px" y="0px"
	 width="64px" height="64px" viewBox="0 0 64 64" enable-background="new 0 0 64 64" xml:space="preserve">
<g>
	<circle fill="#428BC1" cx="32" cy="32" r="30"/>
	<path fill="#DBB471" d="M29.021,26.76c0,0-1.004,1.537-2.701,2.154c0,0,0.078,2.539-1.471,2.689c-1.539,0.154-2.852,0-2.852,0
		s0.23,2.311-0.849,1.693c-1.083-0.613-4.091-0.461-2.856,1.309c1.235,1.768,3.086,2.617,3.628,6.768c0,0,5.168,1.846,5.555,5.461
		c0.388,3.613-0.073,4.289-0.073,4.289s3.165,0.172,3.165-2.367c0-2.543,1.926-2.383,2.775-2.463s1.697-2.383,2.857-1.383
		c1.156,1,2.156,1.232,3.086-0.23c0.926-1.461,3.627-1.691,3.627-1.691S42.989,38.68,46,36.066c0,0-1.467-2.615-4.938-2.615
		c0,0-0.232-3.152-2.935-3.152c0,0-1.853-3.539-5.02-3.539c0,0-1.107-1.402-1.107-3.635c0,0-1.977,0.324-2.825,1.02
		c-0.849,0.697-1.466,0.615-1.466,0.615S28.48,25.451,29.021,26.76z"/>
	<polygon fill="#FFFFFF" points="28,17.467 29.854,18.875 29.152,16.586 31,15.166 28.713,15.158 28,12.875 27.287,15.158 
		25,15.166 26.847,16.586 26.146,18.875 	"/>
	<polygon fill="#FFFFFF" points="21,19.467 22.854,20.875 22.152,18.586 24,17.166 21.713,17.158 21,14.875 20.287,17.158 
		18,17.166 19.847,18.586 19.146,20.875 	"/>
	<polygon fill="#FFFFFF" points="36,17.467 37.854,18.875 37.152,16.586 39,15.166 36.713,15.158 36,12.875 35.287,15.158 
		33,15.166 34.847,16.586 34.146,18.875 	"/>
	<polygon fill="#FFFFFF" points="14,23.467 15.854,24.875 15.152,22.586 17,21.166 14.713,21.158 14,18.875 13.287,21.158 
		11,21.166 12.847,22.586 12.146,24.875 	"/>
	<polygon fill="#FFFFFF" points="50,22.467 51.854,23.875 51.152,21.586 53,20.166 50.713,20.158 50,17.875 49.287,20.158 
		47,20.166 48.847,21.586 48.146,23.875 	"/>
	<polygon fill="#FFFFFF" points="43,19.467 44.854,20.875 44.152,18.586 46,17.166 43.713,17.158 43,14.875 42.287,17.158 
		40,17.166 41.847,18.586 41.146,20.875 	"/>
</g>
</svg>
