<?xml version="1.0" encoding="utf-8"?>
<!-- Generator: Adobe Illustrator 15.0.0, SVG Export Plug-In . SVG Version: 6.00 Build 0)  -->
<!DOCTYPE svg PUBLIC "-//W3C//DTD SVG 1.1//EN" "http://www.w3.org/Graphics/SVG/1.1/DTD/svg11.dtd">
<svg version="1.1" id="Layer_1" xmlns="http://www.w3.org/2000/svg" xmlns:xlink="http://www.w3.org/1999/xlink" x="0px" y="0px"
	 width="64px" height="64px" viewBox="0 0 64 64" enable-background="new 0 0 64 64" xml:space="preserve">
<g>
	<path fill="#F9F9F9" d="M31.942,2.003c-13.061,0-24.166,8.35-28.285,20h56.572C56.11,10.353,45.003,2.003,31.942,2.003z"/>
	<path fill="#ED4C5C" d="M31.942,62.004c13.061,0,24.168-8.35,28.287-20H3.657C7.776,53.654,18.882,62.004,31.942,62.004z"/>
	<path fill="#428BC1" d="M3.657,22.003c-1.107,3.129-1.715,6.492-1.715,10c0,3.508,0.607,6.872,1.715,10h56.572
		c1.105-3.129,1.713-6.492,1.713-10c0-3.508-0.607-6.871-1.713-10H3.657z"/>
</g>
</svg>
