<?xml version="1.0" encoding="utf-8"?>
<!-- Generator: Adobe Illustrator 15.0.0, SVG Export Plug-In . SVG Version: 6.00 Build 0)  -->
<!DOCTYPE svg PUBLIC "-//W3C//DTD SVG 1.1//EN" "http://www.w3.org/Graphics/SVG/1.1/DTD/svg11.dtd">
<svg version="1.1" id="Layer_1" xmlns="http://www.w3.org/2000/svg" xmlns:xlink="http://www.w3.org/1999/xlink" x="0px" y="0px"
	 width="64px" height="64px" viewBox="0 0 64 64" enable-background="new 0 0 64 64" xml:space="preserve">
<g>
	<g>
		<path fill="#2A5F9E" d="M32,2C21.745,2,12.695,7.149,7.285,15h49.43C51.305,7.149,42.256,2,32,2z"/>
		<path fill="#2A5F9E" d="M32,62c10.255,0,19.304-5.149,24.714-13H7.285C12.695,56.851,21.745,62,32,62z"/>
		<path fill="#ED4C5C" d="M59.045,19H4.956C3.062,22.934,2,27.343,2,32s1.062,9.066,2.956,13h54.089C60.938,41.066,62,36.657,62,32
			S60.938,22.934,59.045,19z"/>
		<path fill="#FFFFFF" d="M4.956,45c0.673,1.398,1.456,2.732,2.329,4h49.43c0.873-1.268,1.656-2.602,2.33-4H4.956z"/>
		<path fill="#FFFFFF" d="M59.045,19c-0.674-1.398-1.457-2.732-2.33-4H7.285c-0.873,1.268-1.656,2.602-2.329,4H59.045z"/>
	</g>
	<g>
		<circle fill="#FFFFFF" cx="18" cy="32" r="11"/>
		<polygon fill="#ED4C5C" points="18,35.911 22.946,39.666 21.073,33.561 26,29.776 19.9,29.758 18,23.666 16.098,29.758 10,29.776 
			14.924,33.561 13.055,39.666 		"/>
	</g>
</g>
</svg>
