<?xml version="1.0" encoding="utf-8"?>
<!-- Generator: Adobe Illustrator 15.0.0, SVG Export Plug-In . SVG Version: 6.00 Build 0)  -->
<!DOCTYPE svg PUBLIC "-//W3C//DTD SVG 1.1//EN" "http://www.w3.org/Graphics/SVG/1.1/DTD/svg11.dtd">
<svg version="1.1" id="Layer_1" xmlns="http://www.w3.org/2000/svg" xmlns:xlink="http://www.w3.org/1999/xlink" x="0px" y="0px"
	 width="64px" height="64px" viewBox="0 0 64 64" enable-background="new 0 0 64 64" xml:space="preserve">
<g>
	<g>
		<path fill="#ED4C5C" d="M56,14.003H32v6h27.496C58.561,17.862,57.387,15.849,56,14.003z"/>
		<path fill="#F9F9F9" d="M61.398,38.004c0.395-1.939,0.602-3.945,0.602-6H2c0,2.055,0.208,4.061,0.601,6H61.398z"/>
	</g>
	<g>
		<path fill="#ED4C5C" d="M32,2.003v6h18C44.986,4.237,38.754,2.003,32,2.003z"/>
		<path fill="#F9F9F9" d="M32,14.003h24c-1.706-2.272-3.729-4.294-6-6H32V14.003z"/>
		<path fill="#F9F9F9" d="M59.496,20.003H32v6h29.398C60.975,23.916,60.33,21.909,59.496,20.003z"/>
		<path fill="#ED4C5C" d="M32,26.003v6h30c0-2.055-0.207-4.062-0.602-6H32z"/>
		<path fill="#ED4C5C" d="M4.503,44.004h54.993c0.834-1.906,1.479-3.912,1.902-6H2.601C3.025,40.092,3.67,42.098,4.503,44.004z"/>
		<path fill="#F9F9F9" d="M8,50.004h48c1.387-1.846,2.561-3.859,3.496-6H4.503C5.439,46.145,6.613,48.158,8,50.004z"/>
		<path fill="#ED4C5C" d="M8,50.004c1.707,2.271,3.729,4.293,6,6h36c2.271-1.707,4.294-3.729,6-6H8z"/>
		<path fill="#F9F9F9" d="M14,56.004c5.014,3.766,11.247,6,18,6s12.986-2.234,18-6H14z"/>
	</g>
	<path fill="#2A5F9E" d="M32,2.003c-16.568,0-30,13.432-30,30h30V2.003z"/>
	<path fill="#FFE62E" d="M19.884,25.604c-3.024,0-5.476-2.508-5.476-5.6c0-3.094,2.452-5.602,5.476-5.602
		c1.158,0,2.231,0.369,3.116,0.996c-1.255-1.469-3.099-2.396-5.155-2.396c-3.781,0-6.845,3.134-6.845,7.001
		c0,3.865,3.064,6.999,6.845,6.999c2.057,0,3.9-0.927,5.155-2.396C22.116,25.237,21.042,25.604,19.884,25.604z"/>
	<polygon fill="#FFE62E" points="26,18.82 26.667,17.003 26.5,18.937 27.871,17.598 26.902,19.266 28.703,18.668 27.125,19.741 
		29,20.003 27.125,20.266 28.703,21.338 26.902,20.741 27.871,22.409 26.5,21.07 26.667,23.003 26,21.187 25.333,23.003 25.5,21.07 
		24.129,22.409 25.098,20.741 23.297,21.338 24.875,20.266 23,20.003 24.875,19.741 23.297,18.668 25.098,19.266 24.129,17.598 
		25.5,18.937 25.333,17.003 	"/>
</g>
</svg>
