<?xml version="1.0" encoding="utf-8"?>
<!-- Generator: Adobe Illustrator 15.0.0, SVG Export Plug-In . SVG Version: 6.00 Build 0)  -->
<!DOCTYPE svg PUBLIC "-//W3C//DTD SVG 1.1//EN" "http://www.w3.org/Graphics/SVG/1.1/DTD/svg11.dtd">
<svg version="1.1" id="Layer_1" xmlns="http://www.w3.org/2000/svg" xmlns:xlink="http://www.w3.org/1999/xlink" x="0px" y="0px"
	 width="64px" height="64px" viewBox="0 0 64 64" enable-background="new 0 0 64 64" xml:space="preserve">
<g>
	<path fill="#FFFFFF" d="M10.764,26.003h50.611c-0.899-4.434-2.777-8.512-5.398-12H10.764V26.003z"/>
	<path fill="#FFFFFF" d="M10.764,38.004v12h45.213c2.621-3.488,4.499-7.566,5.398-12H10.764z"/>
	<path fill="#ED4C5C" d="M61.375,26.003H10.764v12h50.611c0.394-1.939,0.602-3.945,0.602-6
		C61.977,29.949,61.769,27.943,61.375,26.003z"/>
	<path fill="#ED4C5C" d="M10.764,14.003h45.213c-5.473-7.286-14.186-12-24-12c-8.289,0-15.783,3.371-21.213,8.806V14.003z"/>
	<path fill="#ED4C5C" d="M10.764,50.004v3.193c5.43,5.436,12.924,8.807,21.213,8.807c9.814,0,18.527-4.715,24-12H10.764z"/>
	<path fill="#428BC1" d="M10.764,10.791c-5.43,5.429-8.787,12.929-8.787,21.213c0,8.284,3.357,15.784,8.787,21.213l21.213-21.213
		L10.764,10.791z"/>
	<polygon fill="#FFFFFF" points="9.961,38.004 13.978,35.189 17.992,38.004 16.478,33.426 20.477,30.503 15.521,30.503 
		13.978,26.003 12.477,30.503 7.477,30.503 11.475,33.426 	"/>
</g>
</svg>
