<?xml version="1.0" encoding="utf-8"?>
<!-- Generator: Adobe Illustrator 15.0.0, SVG Export Plug-In . SVG Version: 6.00 Build 0)  -->
<!DOCTYPE svg PUBLIC "-//W3C//DTD SVG 1.1//EN" "http://www.w3.org/Graphics/SVG/1.1/DTD/svg11.dtd">
<svg version="1.1" id="Layer_1" xmlns="http://www.w3.org/2000/svg" xmlns:xlink="http://www.w3.org/1999/xlink" x="0px" y="0px"
	 width="64px" height="64px" viewBox="0 0 64 64" enable-background="new 0 0 64 64" xml:space="preserve">
<g>
	<g>
		<path fill="#3E4347" d="M32,2C18.939,2,7.832,10.35,3.713,22h56.572C56.166,10.35,45.061,2,32,2z"/>
		<path fill="#83BF4F" d="M32,62c13.061,0,24.166-8.35,28.285-20H3.713C7.832,53.65,18.939,62,32,62z"/>
		<path fill="#ED4C5C" d="M3.713,22C2.607,25.129,2,28.492,2,32s0.607,6.871,1.713,10h56.572C61.393,38.871,62,35.508,62,32
			s-0.607-6.871-1.715-10H3.713z"/>
	</g>
	<g>
		<path fill="#ED4C5C" d="M32,12.34c-5.027,0-9.305,3.213-10.891,7.697h21.777C41.305,15.553,37.027,12.34,32,12.34z"/>
		<path fill="#ED4C5C" d="M32.537,6.79c0-0.591-0.18-1.164-0.537-1.164c-0.395,0-0.537,0.591-0.537,1.164
			c0,1.432,0.178,2.148,0.537,4.207C32.365,8.938,32.537,8.203,32.537,6.79z"/>
		<path fill="#ED4C5C" d="M34.023,6.901c0.053-0.589-0.074-1.175-0.434-1.206c-0.393-0.034-0.586,0.542-0.637,1.113
			c-0.123,1.426-0.006,2.155,0.17,4.237C33.666,9.026,33.9,8.311,34.023,6.901z"/>
		<path fill="#ED4C5C" d="M34.238,11.193c0.717-1.965,1.014-2.658,1.26-4.051c0.104-0.582,0.025-1.177-0.328-1.239
			c-0.389-0.068-0.631,0.488-0.73,1.053C34.191,8.367,34.242,9.103,34.238,11.193z"/>
		<path fill="#ED4C5C" d="M36.943,7.511c0.152-0.57,0.127-1.169-0.217-1.263c-0.381-0.102-0.672,0.433-0.82,0.985
			c-0.371,1.383-0.383,2.121-0.57,4.202C36.221,9.542,36.578,8.877,36.943,7.511z"/>
		<path fill="#ED4C5C" d="M38.352,8.004c0.203-0.555,0.23-1.153-0.105-1.277c-0.373-0.134-0.707,0.372-0.904,0.911
			c-0.49,1.345-0.566,2.079-0.934,4.136C37.457,9.964,37.867,9.333,38.352,8.004z"/>
		<path fill="#ED4C5C" d="M39.711,8.619c0.252-0.536,0.33-1.131,0.006-1.283c-0.357-0.165-0.736,0.31-0.979,0.829
			c-0.604,1.297-0.746,2.021-1.291,4.039C38.648,10.492,39.113,9.9,39.711,8.619z"/>
		<path fill="#ED4C5C" d="M41.014,9.35c0.295-0.513,0.428-1.098,0.117-1.277c-0.344-0.197-0.764,0.243-1.049,0.739
			c-0.715,1.24-0.918,1.95-1.637,3.911C39.791,11.123,40.307,10.573,41.014,9.35z"/>
		<path fill="#ED4C5C" d="M42.246,10.19c0.338-0.485,0.52-1.057,0.227-1.263c-0.322-0.226-0.779,0.176-1.107,0.646
			c-0.822,1.173-1.084,1.861-1.971,3.754C40.873,11.851,41.434,11.349,42.246,10.19z"/>
		<path fill="#ED4C5C" d="M40.285,14.013c1.604-1.343,2.205-1.795,3.115-2.878c0.379-0.453,0.609-1.006,0.336-1.236
			c-0.301-0.254-0.789,0.106-1.158,0.546C41.658,11.541,41.334,12.205,40.285,14.013z"/>
		<path fill="#ED4C5C" d="M41.115,14.771c1.713-1.197,2.354-1.594,3.354-2.595c0.418-0.418,0.695-0.949,0.443-1.203
			c-0.279-0.278-0.799,0.039-1.203,0.444C42.695,12.43,42.316,13.063,41.115,14.771z"/>
		<path fill="#ED4C5C" d="M41.875,15.601c1.811-1.044,2.482-1.384,3.566-2.292c0.451-0.38,0.775-0.886,0.547-1.159
			c-0.252-0.303-0.799-0.032-1.236,0.335C43.654,13.405,43.221,14.004,41.875,15.601z"/>
		<path fill="#ED4C5C" d="M42.559,16.493c1.895-0.882,2.596-1.161,3.754-1.973c0.484-0.339,0.85-0.815,0.645-1.108
			c-0.227-0.322-0.793-0.101-1.26,0.229C44.523,14.461,44.039,15.019,42.559,16.493z"/>
		<path fill="#ED4C5C" d="M43.162,17.441c1.967-0.713,2.688-0.932,3.912-1.639c0.512-0.296,0.918-0.737,0.74-1.046
			c-0.199-0.342-0.781-0.171-1.277,0.116C45.297,15.588,44.766,16.102,43.162,17.441z"/>
		<path fill="#ED4C5C" d="M43.682,18.438c2.02-0.538,2.76-0.693,4.039-1.29c0.537-0.25,0.979-0.655,0.828-0.979
			c-0.166-0.357-0.762-0.237-1.281,0.005C45.969,16.779,45.395,17.244,43.682,18.438z"/>
		<path fill="#ED4C5C" d="M44.111,19.479c2.061-0.362,2.809-0.451,4.137-0.936c0.557-0.201,1.033-0.565,0.91-0.902
			c-0.135-0.37-0.738-0.302-1.277-0.107C46.537,18.024,45.926,18.438,44.111,19.479z"/>
		<path fill="#ED4C5C" d="M48.652,19.98c0.57-0.153,1.076-0.474,0.986-0.82c-0.104-0.381-0.711-0.365-1.266-0.217
			c-1.076,0.288-1.707,0.568-2.826,1.094h2.887C48.504,20.019,48.576,20.001,48.652,19.98z"/>
		<path fill="#ED4C5C" d="M15.623,18.943c-0.57-0.153-1.168-0.129-1.262,0.217c-0.102,0.381,0.432,0.672,0.986,0.82
			c0.072,0.021,0.146,0.038,0.219,0.057h2.893C17.328,19.508,16.689,19.229,15.623,18.943z"/>
		<path fill="#ED4C5C" d="M15.752,18.543c1.344,0.49,2.078,0.566,4.135,0.936c-1.811-1.048-2.439-1.461-3.77-1.945
			c-0.555-0.201-1.152-0.229-1.275,0.107C14.707,18.011,15.213,18.348,15.752,18.543z"/>
		<path fill="#ED4C5C" d="M16.279,17.148c1.295,0.604,2.021,0.745,4.039,1.29c-1.711-1.2-2.305-1.667-3.586-2.265
			c-0.535-0.249-1.131-0.329-1.281-0.005C15.283,16.526,15.758,16.905,16.279,17.148z"/>
		<path fill="#ED4C5C" d="M16.924,15.803c1.242,0.717,1.951,0.92,3.912,1.639c-1.6-1.346-2.15-1.861-3.373-2.568
			c-0.514-0.296-1.098-0.427-1.277-0.116C15.988,15.098,16.43,15.517,16.924,15.803z"/>
		<path fill="#ED4C5C" d="M17.688,14.521c1.172,0.821,1.861,1.085,3.754,1.973c-1.477-1.479-1.979-2.041-3.139-2.853
			c-0.484-0.339-1.057-0.521-1.262-0.229C16.814,13.735,17.217,14.191,17.688,14.521z"/>
		<path fill="#ED4C5C" d="M18.559,13.309c1.096,0.92,1.76,1.244,3.566,2.292c-1.342-1.603-1.793-2.206-2.877-3.116
			c-0.451-0.379-1.006-0.61-1.236-0.335C17.758,12.45,18.119,12.939,18.559,13.309z"/>
		<path fill="#ED4C5C" d="M22.885,14.771c-1.197-1.714-1.594-2.354-2.594-3.354c-0.418-0.419-0.949-0.697-1.203-0.444
			c-0.277,0.278,0.039,0.798,0.443,1.203C20.545,13.189,21.176,13.57,22.885,14.771z"/>
		<path fill="#ED4C5C" d="M23.713,14.013c-1.043-1.813-1.383-2.485-2.291-3.568c-0.381-0.453-0.885-0.775-1.158-0.546
			c-0.305,0.253-0.033,0.797,0.336,1.236C21.518,12.231,22.117,12.665,23.713,14.013z"/>
		<path fill="#ED4C5C" d="M24.605,13.328c-0.881-1.896-1.16-2.596-1.971-3.754c-0.34-0.485-0.814-0.852-1.109-0.646
			c-0.322,0.227-0.1,0.792,0.229,1.263C22.574,11.363,23.131,11.847,24.605,13.328z"/>
		<path fill="#ED4C5C" d="M25.555,12.723c-0.713-1.965-0.93-2.687-1.639-3.911C23.621,8.3,23.18,7.894,22.869,8.072
			c-0.34,0.197-0.168,0.78,0.117,1.277C23.703,10.59,24.215,11.12,25.555,12.723z"/>
		<path fill="#ED4C5C" d="M26.553,12.204c-0.539-2.02-0.693-2.758-1.291-4.039c-0.25-0.536-0.656-0.979-0.98-0.829
			c-0.355,0.167-0.236,0.764,0.006,1.283C24.895,9.916,25.357,10.49,26.553,12.204z"/>
		<path fill="#ED4C5C" d="M27.592,11.773c-0.361-2.06-0.451-2.808-0.934-4.136c-0.203-0.556-0.566-1.032-0.904-0.911
			c-0.369,0.135-0.301,0.74-0.107,1.277C26.137,9.351,26.551,9.962,27.592,11.773z"/>
		<path fill="#ED4C5C" d="M28.664,11.436c-0.182-2.083-0.203-2.836-0.57-4.202c-0.154-0.57-0.475-1.078-0.82-0.985
			c-0.381,0.103-0.365,0.709-0.217,1.263C27.426,8.895,27.785,9.54,28.664,11.436z"/>
		<path fill="#ED4C5C" d="M29.762,11.193c0.002-2.092,0.043-2.845-0.201-4.237c-0.104-0.581-0.379-1.114-0.732-1.053
			c-0.389,0.068-0.424,0.676-0.326,1.239C28.75,8.553,29.051,9.227,29.762,11.193z"/>
		<path fill="#ED4C5C" d="M30.877,11.046c0.184-2.082,0.289-2.829,0.166-4.237c-0.049-0.589-0.277-1.144-0.633-1.113
			c-0.393,0.034-0.484,0.636-0.434,1.206C30.1,8.328,30.342,9.026,30.877,11.046z"/>
	</g>
</g>
</svg>
