<?xml version="1.0" encoding="utf-8"?>
<!-- Generator: Adobe Illustrator 15.0.0, SVG Export Plug-In . SVG Version: 6.00 Build 0)  -->
<!DOCTYPE svg PUBLIC "-//W3C//DTD SVG 1.1//EN" "http://www.w3.org/Graphics/SVG/1.1/DTD/svg11.dtd">
<svg version="1.1" id="Layer_1" xmlns="http://www.w3.org/2000/svg" xmlns:xlink="http://www.w3.org/1999/xlink" x="0px" y="0px"
	 width="64px" height="64px" viewBox="0 0 64 64" enable-background="new 0 0 64 64" xml:space="preserve">
<g>
	<g>
		<path fill="#ED4C5C" d="M32,2v30H2c0,16.568,13.432,30,30,30s30-13.432,30-30S48.568,2,32,2z"/>
		<path fill="#2A5F9E" d="M32,2C15.432,2,2,15.432,2,32h30V2z"/>
	</g>
	<polygon fill="#FFFFFF" points="19,13.062 20.236,13.999 19.77,12.476 21,11.528 19.477,11.522 19,10.001 18.521,11.522 17,11.528 
		18.23,12.476 17.762,13.999 	"/>
	<polygon fill="#FFFFFF" points="19,27.06 20.236,28 19.77,26.472 21,25.526 19.477,25.522 19,24 18.521,25.522 17,25.526 
		18.23,26.472 17.762,28 	"/>
	<polygon fill="#FFFFFF" points="14.002,18.062 15.238,19 14.77,17.474 16,16.528 14.475,16.522 14.002,15 13.525,16.522 12,16.528 
		13.23,17.474 12.764,19 	"/>
	<polygon fill="#FFFFFF" points="23.996,18.062 25.234,19 24.768,17.474 26,16.528 24.475,16.522 23.996,15 23.525,16.522 
		22,16.528 23.23,17.474 22.76,19 	"/>
	<polygon fill="#FFFFFF" points="22.004,22.53 22.631,23 22.391,22.236 23.018,21.765 22.242,21.761 22.004,21 21.76,21.761 
		20.982,21.765 21.609,22.236 21.371,23 	"/>
</g>
</svg>
