<?xml version="1.0" encoding="utf-8"?>
<!-- Generator: Adobe Illustrator 15.0.0, SVG Export Plug-In . SVG Version: 6.00 Build 0)  -->
<!DOCTYPE svg PUBLIC "-//W3C//DTD SVG 1.1//EN" "http://www.w3.org/Graphics/SVG/1.1/DTD/svg11.dtd">
<svg version="1.1" id="Layer_1" xmlns="http://www.w3.org/2000/svg" xmlns:xlink="http://www.w3.org/1999/xlink" x="0px" y="0px"
	 width="64px" height="64px" viewBox="0 0 64 64" enable-background="new 0 0 64 64" xml:space="preserve">
<g>
	<g>
		<path fill="#FFE62E" d="M32,62c5.885,0,11.368-1.701,16-4.628V6.628C43.368,3.701,37.885,2,32,2c-5.884,0-11.368,1.701-16,4.628
			v50.744C20.632,60.299,26.116,62,32,62z"/>
		<g>
			<path fill="#2A5F9E" d="M16,6.628C7.59,11.943,2,21.316,2,32s5.59,20.057,14,25.372V6.628z"/>
			<path fill="#699635" d="M48,57.372C56.41,52.057,62,42.684,62,32S56.41,11.943,48,6.628V57.372z"/>
		</g>
	</g>
	<g>
		<polygon fill="#699635" points="24.772,17.92 18.75,28.271 24.772,38.623 30.796,28.271 		"/>
		<polygon fill="#699635" points="39.228,17.92 33.204,28.271 39.228,38.623 45.25,28.271 		"/>
		<polygon fill="#699635" points="25.978,41.729 32,52.08 38.022,41.729 32,31.377 		"/>
	</g>
</g>
</svg>
