<?xml version="1.0" encoding="utf-8"?>
<!-- Generator: Adobe Illustrator 15.0.0, SVG Export Plug-In . SVG Version: 6.00 Build 0)  -->
<!DOCTYPE svg PUBLIC "-//W3C//DTD SVG 1.1//EN" "http://www.w3.org/Graphics/SVG/1.1/DTD/svg11.dtd">
<svg version="1.1" id="Layer_1" xmlns="http://www.w3.org/2000/svg" xmlns:xlink="http://www.w3.org/1999/xlink" x="0px" y="0px"
	 width="64px" height="64px" viewBox="0 0 64 64" enable-background="new 0 0 64 64" xml:space="preserve">
<g>
	<circle fill="#83BF4F" cx="32" cy="32.003" r="30"/>
	<path fill="#FFFFFF" d="M37.45,30.385c-0.742,0.21-1.398,0.534-1.978,0.919c0.099-0.59,0.153-1.214,0.153-1.861
		c0-3.562-3.582-7.439-3.582-7.439s-3.583,3.878-3.583,7.439c0,0.674,0.058,1.322,0.164,1.934c-0.603-0.417-1.289-0.77-2.075-0.991
		C22.683,29.292,18,31.71,18,31.71s3.202,4.999,7.068,6.088c3.273,0.924,5.764-1.57,6.716-1.932
		c0.104-0.039,0.337-0.033,0.439,0.008c0.958,0.381,3.446,2.844,6.708,1.924C42.798,36.709,46,31.71,46,31.71
		S41.317,29.292,37.45,30.385z"/>
	<path fill="#FFFFFF" d="M24.744,48.004c2.151,1.271,4.623,2,7.256,2s5.104-0.729,7.255-2H24.744z"/>
	<path fill="#FFFFFF" d="M20.301,44.004c0.545,0.723,1.149,1.387,1.801,2h19.796c0.651-0.613,1.257-1.277,1.801-2H20.301z"/>
	<polygon fill="#FFE62E" points="32,18.125 34.474,20.003 33.538,16.951 36,15.058 32.952,15.048 32,12.003 31.047,15.048 
		28,15.058 30.461,16.951 29.529,20.003 	"/>
	<polygon fill="#FFE62E" points="24.652,19.343 26.501,19.576 25.099,18.269 25.811,16.548 24.224,17.458 22.815,16.162 
		23.234,18.029 21.653,18.949 23.499,19.193 23.931,21.059 	"/>
	<polygon fill="#FFE62E" points="19.34,24.656 21.057,23.933 19.19,23.503 18.945,21.658 18.026,23.238 16.158,22.819 
		17.455,24.228 16.546,25.814 18.266,25.103 19.573,26.503 	"/>
	<polygon fill="#FFE62E" points="44.66,24.655 44.428,26.503 45.732,25.103 47.455,25.813 46.546,24.226 47.842,22.818 
		45.973,23.238 45.055,21.656 44.81,23.501 42.943,23.933 	"/>
	<polygon fill="#FFE62E" points="39.348,19.342 40.07,21.059 40.5,19.195 42.348,18.949 40.766,18.029 41.184,16.161 39.776,17.458 
		38.189,16.548 38.9,18.269 37.5,19.576 	"/>
	<path fill="#FFFFFF" d="M46.317,40.004H35.566c-2.399,0-2.559-1.676-2.566-2h-2c0,0.203-0.072,2-2.566,2H17.683
		c0.306,0.689,0.637,1.363,1.016,2h9.735c1.765,0,2.88-0.641,3.566-1.436c0.687,0.795,1.802,1.436,3.566,1.436h9.735
		C45.681,41.367,46.012,40.693,46.317,40.004z"/>
</g>
</svg>
