<?xml version="1.0" encoding="utf-8"?>
<!-- Generator: Adobe Illustrator 15.0.0, SVG Export Plug-In . SVG Version: 6.00 Build 0)  -->
<!DOCTYPE svg PUBLIC "-//W3C//DTD SVG 1.1//EN" "http://www.w3.org/Graphics/SVG/1.1/DTD/svg11.dtd">
<svg version="1.1" id="Layer_1" xmlns="http://www.w3.org/2000/svg" xmlns:xlink="http://www.w3.org/1999/xlink" x="0px" y="0px"
	 width="64px" height="64px" viewBox="0 0 64 64" enable-background="new 0 0 64 64" xml:space="preserve">
<g>
	<g>
		<path fill="#FFE62E" d="M32,2C18.939,2,7.833,10.35,3.714,22h56.572C56.167,10.35,45.061,2,32,2z"/>
		<path fill="#ED4C5C" d="M32,62c13.061,0,24.167-8.35,28.286-20H3.714C7.833,53.65,18.939,62,32,62z"/>
		<path fill="#2A5F9E" d="M3.714,22C2.607,25.129,2,28.492,2,32s0.607,6.871,1.714,10h56.572C61.393,38.871,62,35.508,62,32
			s-0.607-6.871-1.714-10H3.714z"/>
	</g>
	<polygon fill="#FFFFFF" points="34.558,27.146 35.599,28.196 35.399,26.738 36.748,26.086 35.274,25.83 35.066,24.375 
		34.355,25.674 32.876,25.431 33.91,26.487 33.205,27.791 	"/>
	<polygon fill="#FFFFFF" points="29.166,27.175 30.539,27.807 29.792,26.511 30.793,25.443 29.325,25.703 28.57,24.411 
		28.41,25.869 26.942,26.141 28.311,26.779 28.157,28.238 	"/>
	<polygon fill="#FFFFFF" points="24.168,29.027 25.686,29.154 24.492,28.193 25.012,26.855 23.747,27.596 22.548,26.643 
		22.959,28.061 21.7,28.811 23.223,28.945 23.64,30.363 	"/>
	<polygon fill="#FFFFFF" points="20.234,32.45 21.698,32.055 20.215,31.56 20.185,30.133 19.293,31.253 17.812,30.768 
		18.741,31.954 17.861,33.082 19.323,32.693 20.263,33.878 	"/>
	<polygon fill="#FFFFFF" points="17.901,36.981 19.11,36.117 17.542,36.155 16.96,34.832 16.564,36.18 15,36.227 16.322,37.022 
		15.938,38.375 17.148,37.518 18.479,38.309 	"/>
	<polygon fill="#FFFFFF" points="46.123,36.823 45.587,38.157 46.892,37.35 48.128,38.194 47.705,36.848 49,36.037 47.436,36.008 
		46.998,34.662 46.46,35.993 44.89,35.974 	"/>
	<polygon fill="#FFFFFF" points="43.648,32.317 43.666,33.748 44.566,32.551 46.043,32.924 45.13,31.807 46.02,30.609 
		44.554,31.112 43.629,30.002 43.641,31.429 42.175,31.939 	"/>
	<polygon fill="#FFFFFF" points="39.611,28.939 40.178,30.271 40.553,28.848 42.07,28.696 40.789,27.959 41.158,26.541 
		39.99,27.505 38.702,26.779 39.262,28.111 38.097,29.086 	"/>
</g>
</svg>
