<?xml version="1.0" encoding="utf-8"?>
<!-- Generator: Adobe Illustrator 15.0.0, SVG Export Plug-In . SVG Version: 6.00 Build 0)  -->
<!DOCTYPE svg PUBLIC "-//W3C//DTD SVG 1.1//EN" "http://www.w3.org/Graphics/SVG/1.1/DTD/svg11.dtd">
<svg version="1.1" id="Layer_1" xmlns="http://www.w3.org/2000/svg" xmlns:xlink="http://www.w3.org/1999/xlink" x="0px" y="0px"
	 width="64px" height="64px" viewBox="0 0 64 64" enable-background="new 0 0 64 64" xml:space="preserve">
<g>
	<g>
		<g>
			<g>
				<rect x="12" y="12" fill="#2A5F9E" width="20.344" height="20.344"/>
				<path fill="#2A5F9E" d="M32,2v30H2c0,16.568,13.432,30,30,30s30-13.432,30-30S48.568,2,32,2z"/>
				<path fill="#FFFFFF" d="M32,2c-4.694,0-9.132,1.088-13.088,3.012V8.14V11H11v2.912V14v4.912H5.011C3.088,22.869,2,27.306,2,32
					h12V17l12,15h6v-7.5L23.601,14H32V2z"/>
				<path fill="#ED4C5C" d="M32,5H18.912C12.857,7.94,7.94,12.857,5,18.912V32h6V11h2l17,21h2v-4.941L19,11h13V5z"/>
			</g>
		</g>
	</g>
	<g>
		<g id="g50">
			<path id="path52_1_" fill="#49C3F2" d="M57.909,29.221c-0.02,7.376-1.184,15.323-10.732,19.108
				c-9.547-3.785-10.711-11.732-10.731-19.108H57.909z"/>
		</g>
		<g id="g54">
			<path id="path56_1_" fill="#428BC1" d="M47.177,48.329c4.329-1.715,6.934-4.287,8.492-7.272
				c-0.233,0.007-0.723-0.006-0.933-0.021c-0.236-0.016-9.154-0.91-10.211-1.299c-0.92-0.337-4.427,0.286-6.063,0.87
				C39.988,43.784,42.634,46.528,47.177,48.329z"/>
		</g>
		<g id="g58">
			<path id="path60_1_" fill="#C94747" d="M40.504,43.756c0.146-0.046,2.584,0.387,2.972-0.249c0.364-0.598-1.152-1.876-1.098-2.572
				c0.017-0.206,0.248-0.619,0.438-0.704c0.429-0.192,1.733,0.294,1.792-0.552c0.105-1.506-1.199-2.706-1.592-4.055
				c-0.251-0.858-0.302-1.72-0.377-2.604c-0.033-0.393-0.076-0.609-0.513-0.739c-0.533-0.156-0.479-0.599-0.664-1.089
				c-0.246,0.038-0.704,0.382-0.704,0.646c0,0.897-0.82,0.948-1.185,1.562c-0.341-0.416-0.497-1.139-0.845-1.491
				c-0.376-0.38-0.483-0.447-0.389-1.009c-0.583-0.481-0.615,0.289-1.021,0.479c-0.12,0.154-0.481,0.537-0.776,0.995
				C36.813,36.457,37.732,40.513,40.504,43.756C40.649,43.71,40.504,43.756,40.504,43.756z"/>
		</g>
		<g id="g62">
			<path id="path64" fill="#FFE62E" d="M57.909,29.221c0.008-2.778-0.146-5.477-0.074-7.842c-3.568-1.597-8.265-1.925-10.658-1.925
				c-2.395,0-7.088,0.328-10.656,1.925c0.071,2.365-0.082,5.063-0.075,7.842H57.909z"/>
		</g>
		<g id="g338">
			<path id="path340" fill="#3E4347" d="M49.597,39.901c-1.361,0.024-2.748,0.024-3.687-0.116c-0.938-0.142-1.235-0.274-1.879-0.658
				c-0.962-0.575-1.197-0.716-2.559-1.514c-0.208-0.123-0.434,0.028-0.141,0.224c1.374,0.902,1.894,1.238,2.548,1.666
				c0.68,0.446,2.723,1.689,2.723,1.689h8.134l1.338-2.664c0.011-0.153-0.059-0.387-0.105-0.481c-1.479,0.059-2.93,0.104-3.968,0.13
				c-0.118,0.093-0.246,0.339-0.27,0.493c-0.633,0.104-1.01,0.151-1.174,0.187C50.394,38.893,49.761,39.69,49.597,39.901z"/>
		</g>
		<g id="g922">
			<path id="path924" fill="#C94747" d="M44.721,21.281c-0.359,0.011-1.136,0.019-1.3,0.109c-0.161,0.093-0.233,0.134,0.051,0.184
				c0.287,0.051,0.77,0.187,1.036,0.351c0.264,0.164,0.487,0.453,0.413,0.864c-0.219,1.239,0.431,2.43,1.368,2.881
				c0.09,0.043,0.11,0.076,0.093,0.244c-0.021,0.169-0.082,0.45-0.134,0.521c-0.051,0.071-0.076,0.189,0.088,0.133
				c-0.113,0.21-0.364,0.628-0.438,0.736c-0.751-0.093-1.364,0.01-1.42,0.795c-0.006,0.077,0.02,0.199,0.138,0.007
				c0.118-0.194,0.249-0.379,0.572-0.431c-0.19,0.292-0.252,0.553-0.221,0.721c0.03,0.169,0.077,0.271,0.159,0.057
				s0.23-0.416,0.392-0.536c0.062-0.046,0.103-0.057,0.057,0.077c-0.046,0.133,0.021,0.418,0.112,0.515
				c0.093,0.098,0.139,0.057,0.113-0.103c-0.025-0.157,0.013-0.489,0.208-0.592c0.281-0.147,0.521-0.072,0.633,0.123
				c0.112,0.193,0.21,0.01,0.087-0.21c-0.123-0.218-0.251-0.372-0.453-0.388c0.177-0.316,0.387-0.699,0.433-0.776
				s0.118-0.113,0.177-0.066c0.062,0.046,0.103,0.041,0.164-0.086c0.062-0.128,0.17-0.507,0.323-0.659
				c0.074-0.021,0.197-0.05,0.243-0.091c0.2,0.29,0.377,0.612,0.424,0.683c0.046,0.072,0.097,0.104,0.051,0.25
				c-0.046,0.149-0.202,0.618-0.229,0.721c-0.556,0.021-0.813,0.031-0.991,0.342c-0.077,0.137,0.046,0.188,0.179,0.117
				c0.134-0.07,0.323-0.132,0.418-0.117c0.098,0.016,0.144,0.065,0.047,0.112c-0.342,0.169-0.555,0.383-0.541,0.679
				c0.005,0.107,0.051,0.162,0.133,0.016c0.118-0.204,0.331-0.407,0.592-0.464c-0.015,0.25,0.041,0.618,0.192,0.694
				c0.154,0.076,0.164-0.002,0.108-0.148c-0.093-0.236,0.005-0.472,0.117-0.598c0.241-0.267,0.787,0.103,0.888,0.195
				c0.103,0.091,0.194,0.129,0.138-0.107c-0.076-0.318-0.525-0.5-0.907-0.552c0.107-0.517,0.393-1.559,0.546-1.915
				c0.224,0.123,0.4-0.199,0.774-0.062c0.633,0.235,1.582,0.827,1.746,0.959c0.164,0.134,0.223,0.103,0.305,0.031
				s0.226,0,0.339,0.021c0.109,0.021,0.212,0.051,0.068-0.234c-0.141-0.286-0.489-0.786-1.068-1.175
				c0.346,0.031,0.814,0.031,0.814-0.06c0-0.093-0.54-0.268-0.766-0.287c0.215-0.052,0.543-0.175,0.694-0.347
				c0.09-0.103-0.018-0.128-0.336-0.133c-0.979-0.021-1.469-0.013-1.979-0.307c-0.818-0.471-1.284-0.965-1.685-1.176
				c-0.215-0.111-0.346-0.371-0.428-0.595c-0.265-0.715-0.252-1.037-0.875-1.271C45.762,20.697,45.046,20.985,44.721,21.281z"/>
		</g>
	</g>
</g>
</svg>
