<?xml version="1.0" encoding="utf-8"?>
<!-- Generator: Adobe Illustrator 15.0.0, SVG Export Plug-In . SVG Version: 6.00 Build 0)  -->
<!DOCTYPE svg PUBLIC "-//W3C//DTD SVG 1.1//EN" "http://www.w3.org/Graphics/SVG/1.1/DTD/svg11.dtd">
<svg version="1.1" id="Layer_1" xmlns="http://www.w3.org/2000/svg" xmlns:xlink="http://www.w3.org/1999/xlink" x="0px" y="0px"
	 width="64px" height="64px" viewBox="0 0 64 64" enable-background="new 0 0 64 64" xml:space="preserve">
<g>
	<g>
		<path fill="#ED4C5C" d="M32,62c16.568,0,30-13.432,30-30H2C2,48.568,15.432,62,32,62z"/>
		<path fill="#2A5F9E" d="M32,2C15.432,2,2,15.432,2,32h60C62,15.432,48.568,2,32,2z"/>
	</g>
	<g>
		<g>
			<g>
				<g>
					<path fill="#FFCE31" d="M28.689,20.896c0-2.846-0.653-5.154-5.186-5.154c-1.228,0-1.98,0.273-2.828,0.477
						c-0.17-0.291-3.193-0.281-3.363,0.021c-0.812-0.178-1.55-0.416-2.723-0.416c-5.3,0-5.146,2.289-5.146,5.113
						C9.443,21.383,9,22.223,9,22.223L10.94,29H27.06L29,22.223C29,22.223,28.689,21.357,28.689,20.896z"/>
					<ellipse fill="#3E4347" cx="19" cy="29" rx="8" ry="1"/>
				</g>
				<g>
					<path fill="#3E4347" d="M25.66,25h-1.068c0-1.322-0.674-2.4-1.505-2.4c-0.832,0-1.511,1.078-1.511,2.4h-1.069
						c0-1.322-0.677-2.4-1.507-2.4c-0.833,0-1.507,1.078-1.507,2.4h-1.069c0-1.322-0.679-2.4-1.512-2.4
						c-0.83,0-1.505,1.078-1.505,2.4h-1.068c0-4-3.339-2.818-3.339-2.818C9.49,21.42,10.14,21,10.83,21
						c0.83,0,1.57,0.613,2.041,1.564C13.343,21.613,14.082,21,14.912,21c0.831,0,1.573,0.615,2.044,1.564
						C17.43,21.615,18.168,21,19,21c0.83,0,1.57,0.615,2.041,1.564C21.515,21.615,22.257,21,23.087,21
						c0.831,0,1.569,0.613,2.041,1.564C25.6,21.613,26.34,21,27.17,21c0.69,0,1.34,0.42,1.83,1.182C29,22.182,25.66,21,25.66,25z"/>
				</g>
			</g>
			<g>
				<ellipse fill="#FFCE31" cx="16.839" cy="15.876" rx="0.527" ry="0.533"/>
				<ellipse fill="#FFCE31" cx="15.638" cy="15.57" rx="0.526" ry="0.534"/>
				<ellipse fill="#FFCE31" cx="14.431" cy="15.367" rx="0.526" ry="0.534"/>
				<ellipse fill="#FFCE31" cx="13.225" cy="15.247" rx="0.527" ry="0.534"/>
				<ellipse fill="#FFCE31" cx="12.041" cy="15.314" rx="0.527" ry="0.534"/>
				<ellipse fill="#FFCE31" cx="10.914" cy="15.706" rx="0.527" ry="0.534"/>
				<ellipse fill="#FFCE31" cx="9.963" cy="16.413" rx="0.528" ry="0.534"/>
				<ellipse fill="#FFCE31" cx="9.289" cy="17.399" rx="0.527" ry="0.533"/>
				<ellipse fill="#FFCE31" cx="8.965" cy="18.56" rx="0.527" ry="0.533"/>
				<ellipse fill="#FFCE31" cx="8.977" cy="19.763" rx="0.527" ry="0.533"/>
				<ellipse fill="#FFCE31" cx="9.204" cy="20.942" rx="0.526" ry="0.534"/>
				<ellipse fill="#FFCE31" cx="21.161" cy="15.876" rx="0.527" ry="0.533"/>
				<ellipse fill="#FFCE31" cx="22.362" cy="15.57" rx="0.527" ry="0.534"/>
				<ellipse fill="#FFCE31" cx="23.569" cy="15.367" rx="0.527" ry="0.534"/>
				<ellipse fill="#FFCE31" cx="24.775" cy="15.247" rx="0.527" ry="0.534"/>
				<ellipse fill="#FFCE31" cx="25.958" cy="15.314" rx="0.527" ry="0.534"/>
				<ellipse fill="#FFCE31" cx="27.086" cy="15.706" rx="0.528" ry="0.534"/>
				<ellipse fill="#FFCE31" cx="28.037" cy="16.413" rx="0.525" ry="0.534"/>
				<ellipse fill="#FFCE31" cx="28.71" cy="17.399" rx="0.527" ry="0.533"/>
				<ellipse fill="#FFCE31" cx="29.035" cy="18.56" rx="0.527" ry="0.533"/>
				<ellipse fill="#FFCE31" cx="29.023" cy="19.763" rx="0.527" ry="0.533"/>
				<ellipse fill="#FFCE31" cx="28.796" cy="20.942" rx="0.527" ry="0.533"/>
			</g>
		</g>
		<path fill="#FFCE31" d="M18.342,11.22c0.063,0.256,0.268,0.454,0.527,0.505l-0.766,1.431l0.282,0.529
			c-0.556,0.2-0.984,0.661-1.14,1.236c-0.04,0.151-0.064,0.31-0.064,0.474c0,1.004,0.814,1.817,1.818,1.817s1.818-0.813,1.818-1.817
			c0-0.164-0.024-0.322-0.064-0.474c-0.155-0.575-0.585-1.036-1.14-1.236l0.282-0.529l-0.767-1.431
			c0.26-0.051,0.466-0.249,0.528-0.505l1.124,0.716l1.414-0.896l-1.414-0.896l-1.135,0.722c-0.074-0.245-0.28-0.432-0.537-0.474
			l0.786-1.469L19,7.243l-0.896,1.679l0.786,1.469c-0.257,0.042-0.463,0.229-0.537,0.474l-1.135-0.722l-1.414,0.896l1.414,0.896
			L18.342,11.22z"/>
		<path fill="#3E4347" d="M15.464,20.724c-0.486,0.486-1.08,0.798-1.704,0.944c0.949,0.236,1.991-0.006,2.734-0.748
			c1.125-1.125,1.125-2.95,0-4.075c-0.133-0.133-0.275-0.245-0.425-0.347C16.809,17.85,16.608,19.579,15.464,20.724z"/>
		<path fill="#3E4347" d="M22.536,20.724c0.486,0.486,1.08,0.798,1.704,0.944c-0.949,0.236-1.991-0.006-2.733-0.748
			c-1.125-1.125-1.125-2.95,0-4.075c0.132-0.133,0.275-0.245,0.424-0.347C21.191,17.85,21.392,19.579,22.536,20.724z"/>
		<g>
			<g>
				
					<ellipse transform="matrix(0.9918 -0.1281 0.1281 0.9918 -3.1454 2.132)" fill="#3E4347" cx="15.008" cy="25.527" rx="0.358" ry="1.645"/>
				
					<ellipse transform="matrix(0.9607 -0.2776 0.2776 0.9607 -6.7053 4.1296)" fill="#3E4347" cx="11.231" cy="25.745" rx="0.359" ry="1.646"/>
			</g>
			<g>
				
					<ellipse transform="matrix(-0.9918 -0.1281 0.1281 -0.9918 42.5261 53.7888)" fill="#3E4347" cx="22.992" cy="25.527" rx="0.358" ry="1.645"/>
				
					<ellipse transform="matrix(-0.9607 -0.2776 0.2776 -0.9607 45.3383 57.9092)" fill="#3E4347" cx="26.769" cy="25.745" rx="0.359" ry="1.646"/>
			</g>
		</g>
		<ellipse fill="#3E4347" cx="19" cy="25.43" rx="0.375" ry="1.718"/>
		<circle fill="#3E4347" cx="19" cy="20.018" r="1.143"/>
		<circle fill="#3E4347" cx="19" cy="18.026" r="1"/>
		<circle fill="#3E4347" cx="19" cy="16.409" r="0.75"/>
	</g>
</g>
</svg>
