<?xml version="1.0" encoding="utf-8"?>
<!-- Generator: Adobe Illustrator 15.0.0, SVG Export Plug-In . SVG Version: 6.00 Build 0)  -->
<!DOCTYPE svg PUBLIC "-//W3C//DTD SVG 1.1//EN" "http://www.w3.org/Graphics/SVG/1.1/DTD/svg11.dtd">
<svg version="1.1" id="Layer_1" xmlns="http://www.w3.org/2000/svg" xmlns:xlink="http://www.w3.org/1999/xlink" x="0px" y="0px"
	 width="64px" height="64px" viewBox="0 0 64 64" enable-background="new 0 0 64 64" xml:space="preserve">
<g>
	<path fill="#F9F9F9" d="M2,32c0,5.885,1.701,11.368,4.627,16h50.744C60.299,43.368,62,37.885,62,32s-1.701-11.368-4.629-16H6.627
		C3.701,20.632,2,26.115,2,32z"/>
	<g>
		<path fill="#ED4C5C" d="M57.371,16C52.057,7.59,42.684,2,32,2S11.943,7.59,6.627,16H57.371z"/>
		<path fill="#ED4C5C" d="M6.627,48C11.943,56.41,21.316,62,32,62s20.057-5.59,25.371-14H6.627z"/>
	</g>
	<g>
		<path fill="#ED4C5C" d="M30.496,34.556c-1.049,1.642-3.992,1.164-4.648,0.019v-9.791l-1.486-0.009v9.998
			C25.082,38.303,29.316,39.2,30.496,34.556L30.496,34.556z"/>
		<path fill="#ED4C5C" d="M37.756,24.774v9.79c-0.656,1.146-3.463,1.633-4.512-0.009c1.182,4.645,5.412,3.747,6.135,0.217v-9.998
			H37.756z"/>
		<g>
			<polygon fill="#FF9C10" points="28.568,29.886 28.568,29.886 28.568,29.886 			"/>
			<polygon fill="#FF9C10" points="44.838,29.679 44.838,29.679 44.838,29.679 			"/>
			<path fill="#FFCE31" d="M28.986,19.879l-0.367-0.638c-0.973,0.258-1.902,0.623-2.771,1.083c0.748,1.453,2.613,5.035,2.613,5.035
				S28.494,20.157,28.986,19.879z"/>
			<path fill="#FFCE31" d="M34.986,22.725c0,0-0.004,1.969-0.004,2.707c1.021-1.728,2.047-3.455,3.072-5.182
				c-0.248-0.126-0.498-0.245-0.752-0.356c-0.479-0.193-0.967-0.358-1.457-0.515c-0.262-0.088-0.527-0.164-0.795-0.231
				c-0.029-0.006-0.057-0.014-0.084-0.021c-0.363,1.199-1.09,3.598-1.09,3.598H34.986z"/>
			<path fill="#2A5F9E" d="M34.545,42.39c-1.143,0.039-1.914,1.106-2.834,1.027c-0.922-0.078-1.291-1.063-2.617-1.063
				c-0.043,0-0.082-0.003-0.123,0c-0.873,0.047-2.199,0.575-2.668,0.908c0,0,2.133,1.738,5.508,1.738
				c3.404,0,5.621-1.738,5.621-1.738S35.688,42.351,34.545,42.39z"/>
			<path fill="#2A5F9E" d="M34.768,40.954c-1.326,0.104-1.658-0.766-2.873-0.73c-1.217,0.034-1.916,0.73-2.838,0.765
				c-0.92,0.035-2.1-0.869-2.801-0.834c-0.557,0.027-2.254,0.67-2.926,0.933c0.207,0.183,0.422,0.426,0.643,0.595h16.014
				c0.104-0.077,0.205-0.156,0.305-0.237c-0.5-0.423-1.648-1.265-2.943-1.29C35.617,40.119,36.096,40.85,34.768,40.954z"/>
			<path fill="#2A5F9E" d="M40.074,38.136c-1.031,0.035-1.77,1.009-2.615,1.044c-0.848,0.035-1.807-1.009-2.764-0.974
				c-0.959,0.035-1.953,0.974-2.912,0.974s-1.658-1.009-2.873-1.009c-1.217,0-1.77,1.113-2.691,1.044
				c-0.922-0.07-1.73-1.113-2.615-1.113c-0.625,0-1.541,0.622-2.129,0.965c0.158,0.218,0.326,0.496,0.5,0.703h20.037
				c0.111-0.13,0.221-0.263,0.326-0.396C42.061,38.869,41.035,38.216,40.074,38.136z"/>
			<path fill="#2A5F9E" d="M31.82,36.357c-1.441,0.035-2.42,1.426-2.344,1.426l0,0h4.688C34.201,37.748,33.113,36.252,31.82,36.357z
				"/>
			<path fill="#2A5F9E" d="M40.199,37.249c-0.83-0.036-0.717-0.25-1.131-0.464c-0.227,0.428-1.059,0.998-1.059,0.998h5.457
				c0.115-0.208,0.225-0.527,0.33-0.741c-0.352-0.314-0.793-0.631-1.182-0.648C41.822,36.358,41.029,37.284,40.199,37.249z"/>
			<path fill="#2A5F9E" d="M24.502,36.785c-0.414,0.214-0.301,0.428-1.131,0.464c-0.83,0.035-1.623-0.891-2.416-0.855
				c-0.27,0.012-0.564,0.169-0.838,0.368c0.143,0.312,0.295,0.724,0.461,1.021h4.98C25.559,37.783,24.729,37.213,24.502,36.785z"/>
			<path fill="#2A5F9E" d="M23.861,34.486c-1.18-0.383-2.139,0.834-2.986,0.869c-0.57,0.023-1.156-0.379-1.479-0.645
				c0.092,0.36,0.201,0.749,0.322,1.096h4.473C24.191,35.807,23.896,35.216,23.861,34.486z"/>
			<path fill="#2A5F9E" d="M42.766,35.355c-0.848-0.035-1.807-1.252-2.986-0.869c-0.037,0.729-0.332,1.32-0.332,1.32h4.57
				l0.479-1.32C44.496,34.486,43.611,35.39,42.766,35.355z"/>
			<path fill="#2A5F9E" d="M30.641,35.807L30.641,35.807h2.32c0,0,0.037-0.729-1.178-0.729
				C30.566,35.077,30.678,35.842,30.641,35.807z"/>
			<path fill="#ED4C5C" d="M29.424,28.678l4.828,1.217v-6.504c-2.211,0.105-4.055-3.964-0.148-4.241
				c-3.832-0.522-4.273,0.417-4.717,1.425L29.424,28.678L29.424,28.678z"/>
			<g>
				<polygon fill="#FFCE31" points="26.529,29.3 26.529,30.072 28.578,30.129 				"/>
				<path fill="#FFCE31" d="M28.568,29.886l0.018-1.113c-0.572-0.371-1.525-1.279-2.057-1.599v1.722L28.568,29.886z"/>
				<path fill="#FFCE31" d="M19.037,30.588C19.012,30.913,19,31.242,19,31.574c0,0.659,0.051,1.306,0.148,1.938l4.361,0.032v-2.754
					L19.037,30.588z"/>
				<path fill="#FFCE31" d="M19.936,26.811c-0.381,0.931-0.654,1.915-0.805,2.939l4.379,0.4v-2.002L19.936,26.811z"/>
				<path fill="#FFCE31" d="M21.963,23.46c-0.66,0.788-1.229,1.654-1.682,2.584l3.229,1.479v-2.793L21.963,23.46z"/>
				<path fill="#FFCE31" d="M26.529,26.404l2.039,1.865l0.01-2.044l-3.633-5.376c-0.84,0.534-1.613,1.16-2.303,1.864
					c0.445,0.467,1.055,1.106,1.404,1.474h2.482V26.404z"/>
			</g>
			<g>
				<path fill="#FFCE31" d="M45,30.497l-5.047,0.358v2.69h4.764l0,0C44.717,33.546,45,32.281,45,30.497z"/>
				<path fill="#FFCE31" d="M44.838,29.679c-0.205-1.78-0.814-3.052-0.832-3.092l-4.053,1.619v2.026L44.838,29.679z"/>
				<path fill="#FFCE31" d="M43.631,25.778c-0.469-0.9-1.043-1.74-1.707-2.502c-0.656,0.474-1.313,0.948-1.971,1.422v2.907
					C41.18,26.996,42.406,26.388,43.631,25.778z"/>
				<polygon fill="#FFCE31" points="34.988,30.189 37.027,30.105 37.027,29.344 				"/>
				<path fill="#FFCE31" d="M34.979,28.852l0.01,0.903l0,0l2.039-0.913v-1.711C36.313,27.715,34.979,28.852,34.979,28.852z"/>
				<path fill="#FFCE31" d="M39.658,24.188c0,0,1.189-1.159,1.629-1.59c-0.748-0.743-1.588-1.396-2.502-1.943
					c-1.266,1.857-2.529,3.714-3.795,5.569c-0.002,0.719-0.004,1.437-0.004,2.155c0.68-0.618,1.363-1.234,2.041-1.853v-2.339H39.658
					z"/>
			</g>
			<g>
				<path fill="#ED4C5C" d="M26.807,35.069H29c0.875,0,1.279-1.246,1.279-1.246h-2.041C27.213,33.823,26.807,35.069,26.807,35.069z"
					/>
				<path fill="#ED4C5C" d="M35.35,33.823h-2.039c0,0,0.402,1.246,1.279,1.246h2.191C36.781,35.069,36.375,33.823,35.35,33.823z"/>
				<rect x="26.295" y="33.214" fill="#ED4C5C" width="10.998" height="0.368"/>
				<polygon fill="#ED4C5C" points="31.102,32.749 31.793,32.087 32.486,32.748 32.697,32.548 32.004,31.887 32.697,31.226 
					32.486,31.024 31.941,31.544 31.941,30.721 31.645,30.721 31.645,31.544 31.102,31.024 30.891,31.226 31.584,31.887 
					30.891,32.548 				"/>
				<polygon fill="#ED4C5C" points="37.293,31.226 37.082,31.024 36.539,31.544 36.537,30.721 36.24,30.721 36.24,31.544 
					35.697,31.024 35.486,31.226 36.18,31.887 35.486,32.548 35.697,32.749 36.389,32.087 37.082,32.748 37.293,32.548 36.6,31.887 
									"/>
				<polygon fill="#ED4C5C" points="33.4,32.749 34.092,32.087 34.785,32.748 34.994,32.548 34.303,31.887 34.994,31.226 
					34.785,31.024 34.242,31.544 34.24,30.721 33.943,30.721 33.943,31.544 33.4,31.024 33.189,31.226 33.883,31.887 33.189,32.548 
									"/>
				<polygon fill="#ED4C5C" points="28.805,32.749 29.496,32.087 30.189,32.748 30.398,32.548 29.707,31.887 30.398,31.226 
					30.189,31.024 29.645,31.544 29.645,30.721 29.348,30.721 29.348,31.544 28.805,31.024 28.594,31.226 29.287,31.887 
					28.594,32.548 				"/>
				<polygon fill="#ED4C5C" points="26.506,32.749 27.197,32.087 27.891,32.748 28.102,32.548 27.408,31.887 28.102,31.226 
					27.891,31.024 27.346,31.544 27.346,30.721 27.049,30.721 27.049,31.544 26.506,31.024 26.295,31.226 26.988,31.887 
					26.295,32.548 				"/>
			</g>
		</g>
	</g>
</g>
</svg>
