<?xml version="1.0" encoding="utf-8"?>
<!-- Generator: Adobe Illustrator 15.0.0, SVG Export Plug-In . SVG Version: 6.00 Build 0)  -->
<!DOCTYPE svg PUBLIC "-//W3C//DTD SVG 1.1//EN" "http://www.w3.org/Graphics/SVG/1.1/DTD/svg11.dtd">
<svg version="1.1" id="Layer_1" xmlns="http://www.w3.org/2000/svg" xmlns:xlink="http://www.w3.org/1999/xlink" x="0px" y="0px"
	 width="64px" height="64px" viewBox="0 0 64 64" enable-background="new 0 0 64 64" xml:space="preserve">
<g>
	<g>
		<path fill="#3E4347" d="M6.02,47.016c1.943,3.365,4.444,6.204,7.313,8.482L61.689,27.58c-0.54-3.625-1.748-7.21-3.69-10.575
			c-1.942-3.366-4.444-6.205-7.313-8.484L2.328,36.439C2.867,40.064,4.076,43.649,6.02,47.016z"/>
		<path fill="#FFE62E" d="M19.102,59.099l42.821-24.723c0.181-2.252,0.104-4.531-0.233-6.796L13.333,55.498
			C15.125,56.925,17.061,58.13,19.102,59.099z"/>
		<path fill="#FFE62E" d="M2.328,36.439L50.686,8.521c-1.793-1.425-3.729-2.631-5.768-3.601L2.095,29.644
			C1.914,31.895,1.991,34.174,2.328,36.439z"/>
		<g>
			<path fill="#699635" d="M44.909,4.925c-8.611-4.096-19.022-4.033-27.905,1.096C8.12,11.149,2.861,20.134,2.103,29.64
				L44.909,4.925z"/>
			<path fill="#ED4C5C" d="M19.108,59.095C27.72,63.19,38.131,63.128,47.014,58c8.884-5.13,14.143-14.113,14.901-23.62
				L19.108,59.095z"/>
		</g>
	</g>
	<polygon fill="#FFFFFF" points="21.998,40.125 26.574,40.704 23.104,37.467 24.867,33.202 20.935,35.454 17.446,32.241 
		18.484,36.868 14.567,39.149 19.143,39.754 20.211,44.378 	"/>
	<polygon fill="#FFFFFF" points="44.041,27.396 48.619,27.977 45.148,24.739 46.912,20.474 42.979,22.727 39.491,19.513 
		40.53,24.141 36.613,26.42 41.188,27.026 42.256,31.649 	"/>
</g>
</svg>
