<?xml version="1.0" encoding="utf-8"?>
<!-- Generator: Adobe Illustrator 15.0.0, SVG Export Plug-In . SVG Version: 6.00 Build 0)  -->
<!DOCTYPE svg PUBLIC "-//W3C//DTD SVG 1.1//EN" "http://www.w3.org/Graphics/SVG/1.1/DTD/svg11.dtd">
<svg version="1.1" id="Layer_1" xmlns="http://www.w3.org/2000/svg" xmlns:xlink="http://www.w3.org/1999/xlink" x="0px" y="0px"
	 width="64px" height="64px" viewBox="0 0 64 64" enable-background="new 0 0 64 64" xml:space="preserve">
<g>
	<g>
		<path fill="#ED4C5C" d="M31.999,2C18.938,2,7.832,10.35,3.713,22h56.572C56.166,10.35,45.061,2,31.999,2z"/>
		<path fill="#F9F9F9" d="M31.999,62c13.062,0,24.167-8.35,28.286-20H3.713C7.832,53.65,18.938,62,31.999,62z"/>
		<path fill="#2872A0" d="M3.713,22c-1.106,3.129-1.714,6.492-1.714,10s0.607,6.871,1.714,10h56.572C61.393,38.871,62,35.508,62,32
			s-0.607-6.871-1.715-10H3.713z"/>
	</g>
	<g>
		<path fill="#ED4C5C" d="M15.473,21.719v16.173C15.473,43.475,20.187,48,25.999,48c5.813,0,10.526-4.525,10.526-10.108V21.719
			H15.473z"/>
		<g>
			<path fill="#FFFFFF" d="M29.753,46.345l-0.17-0.867l-0.744-1.527l0.266-0.152l-0.234-0.859l-0.66-1.054l-0.008-0.029l0.176-0.138
				l-0.18-0.861l-0.501-1.041l0.777-1.539l0.504,1.644l0.428-0.56h0.001l0.644,0.88l0.166-0.622l0.583,0.344l-0.13-1.166
				l-0.002-0.005l0.021,0.028l1.411,0.439l-0.993-1.343l0.146,0.008l-0.769-1.648l0.199-0.587l0.474,1.008l0.208-0.388l0.798,2.247
				l0.029-0.054l0.426,0.783l0.194-0.405l0.811,1.578l0.291-0.866l1.164,0.931c0,0-0.143-2.961-0.082-3.945
				c0.158-2.583,1.132-7.853,0.436-10.345c-0.329-1.177-2.708-4.069-2.708-4.069s-0.14,3.511-0.724,4.558
				c-0.241,0.432-2.036,1.508-2.036,1.508l-0.729-0.229l0,0l0.29-0.082l-1.282-1.319l0.473-2.636l1.271-1.85l-1.969,0.111
				l-1.515,0.428l0.399,0.645l-0.903,3.072l-0.903-3.072l0.399-0.645l-1.514-0.428l-1.97-0.111l1.271,1.85l0.473,2.636l-1.281,1.319
				l0.289,0.082l-0.729,0.229c0,0-1.794-1.076-2.034-1.508c-0.584-1.047-0.726-4.558-0.726-4.558s-2.378,2.893-2.707,4.069
				c-0.697,2.492,0.275,7.761,0.434,10.345c0.061,0.984-0.08,3.945-0.08,3.945l1.163-0.931l0.291,0.866l0.811-1.578l0.194,0.405
				l0.426-0.783l0.029,0.054l0.798-2.247l0.208,0.388l0.474-1.008l0.199,0.587l-0.769,1.648l0.146-0.008l-0.993,1.343l1.411-0.439
				l0.021-0.028l-0.002,0.005l-0.13,1.166l0.583-0.344l0.166,0.622l0.644-0.88h0.001l0.427,0.56l0.505-1.644l0.777,1.539
				L23.8,40.856l-0.18,0.861l0.176,0.138l-0.008,0.029l-0.661,1.054l-0.234,0.859l0.267,0.152l-0.744,1.527l-0.171,0.867H29.753
				L29.753,46.345z"/>
			<g>
				<g>
					<polygon fill="#FFCE31" points="20.05,41.696 20.221,41.318 21.129,40.94 21.682,40.719 21.66,40.691 22.147,40.661 
						22.227,40.587 21.567,40.31 21.455,40.227 21.04,40.388 20.6,40.665 21.415,39.729 22.091,38.123 22.091,38.122 20.98,38.835 
						19.965,40.591 19.6,40.786 18.598,40.761 18.097,40.71 17.547,41.015 17.625,41.077 18.037,41.075 18.371,41.266 
						19.347,41.185 18.347,41.511 18.072,41.86 18.134,42.49 18.222,42.472 18.297,42.239 18.754,42.163 19.698,41.446 
						19.036,42.479 18.938,43.005 19.248,43.687 19.352,43.585 19.416,43.122 19.418,43.124 19.776,42.693 20.05,41.696 					"/>
					<polygon fill="#FFCE31" points="31.949,41.696 31.778,41.318 30.869,40.94 30.317,40.719 30.338,40.691 29.852,40.661 
						29.772,40.587 30.431,40.31 30.543,40.227 30.958,40.388 31.399,40.665 30.584,39.729 29.908,38.123 29.908,38.122 
						31.019,38.835 32.034,40.591 32.399,40.786 33.401,40.761 33.902,40.71 34.451,41.015 34.373,41.077 33.962,41.075 
						33.627,41.266 32.651,41.185 33.652,41.511 33.926,41.86 33.865,42.49 33.777,42.472 33.702,42.239 33.245,42.163 
						32.301,41.446 32.963,42.479 33.061,43.005 32.75,43.687 32.646,43.585 32.582,43.122 32.581,43.124 32.223,42.693 
						31.949,41.696 					"/>
				</g>
				<path fill="#FFCE31" d="M21.449,22.204c-0.991,0.107-0.944,0.756-0.018,1.674c0.178,0.176,0.238,0.17,0.276-0.014
					c0.066-0.318,0.419-0.507,0.604-0.264c0.126,0.166,0.098,0.26,0.518,0.201c0.14,0.117,0.272,0.227,0.38,0.321
					c-0.001-0.001-0.003-0.002-0.004-0.003c-0.139-0.026-0.485,0.082-1.092,0.232c-0.45,0.111-0.846-0.085-1.178-0.48
					c0.11,0.55,1.299,0.816,1.224,0.813c0.117,0.229,0.139,0.256,0.202,0.275c0.386,0.076,0.792-0.166,1.181-0.094
					c0.853,0.158-0.57-2.305-0.543-2.402C23.07,22.216,21.672,21.771,21.449,22.204z"/>
				<path fill="#FFCE31" d="M29.636,24.96c0.063-0.02,0.085-0.047,0.202-0.275c-0.075,0.004,1.113-0.263,1.224-0.813
					c-0.332,0.396-0.728,0.592-1.178,0.48c-0.606-0.15-0.953-0.259-1.092-0.232c-0.001,0.001-0.003,0.002-0.004,0.003
					c0.107-0.095,0.24-0.204,0.38-0.321c0.42,0.059,0.392-0.035,0.518-0.201c0.186-0.243,0.538-0.055,0.604,0.264
					c0.037,0.184,0.099,0.189,0.275,0.014c0.928-0.918,0.975-1.566-0.017-1.674c-0.223-0.433-1.619,0.012-1.549,0.26
					c0.027,0.098-1.397,2.561-0.545,2.402C28.844,24.794,29.25,25.036,29.636,24.96z"/>
			</g>
			<g>
				<path fill="#ED4C5C" d="M21.565,28.617v7.285c0,2.189,1.985,3.965,4.434,3.965s4.434-1.775,4.434-3.965v-7.285H21.565z"/>
				<rect x="24.773" y="27.311" fill="#FFFFFF" width="2.5" height="15"/>
				<rect x="19.124" y="32.311" fill="#FFFFFF" width="13.75" height="2.5"/>
				<polygon fill="#FFFFFF" points="24,30.436 23.023,31.412 23.297,30.436 23.023,29.459 24,30.436 				"/>
				<polygon fill="#FFFFFF" points="24,36.686 23.023,37.662 23.297,36.686 23.023,35.709 24,36.686 				"/>
				<polygon fill="#FFFFFF" points="28.048,30.436 29.023,31.412 28.751,30.436 29.023,29.459 28.048,30.436 				"/>
				<polygon fill="#FFFFFF" points="28.048,36.686 29.023,37.662 28.751,36.686 29.023,35.709 28.048,36.686 				"/>
			</g>
		</g>
	</g>
	<g>
		<polygon fill="#428BC1" points="26.999,11.733 25.011,11.745 24.999,13.733 26.987,13.722 26.999,11.733 		"/>
		<polygon fill="#FFCE31" points="25.114,10.364 25.3,10.547 25.485,10.369 25.813,10.369 25.813,11.625 24.996,11.643 
			24.975,11.854 24.985,12 25.999,11.98 27.014,12 27.023,11.854 27.003,11.643 27.003,11.643 26.186,11.625 26.186,10.369 
			26.513,10.369 26.698,10.547 26.884,10.364 27.068,10.176 26.884,9.988 26.698,9.806 26.513,9.992 26.186,9.992 26.186,9.607 
			26.366,9.42 26.185,9.231 25.999,9.045 25.813,9.231 25.633,9.42 25.813,9.607 25.813,9.992 25.485,9.992 25.3,9.806 
			25.114,9.988 24.93,10.176 25.114,10.364 		"/>
	</g>
	<path fill="#FFCE31" d="M32.463,14.441c-1.29-0.725-2.132-0.854-2.438-0.374c-0.026,0.045-0.04,0.097-0.055,0.147
		c-1.627-0.824-2.763-0.949-3.971-0.401c-1.209-0.548-2.346-0.421-3.974,0.401c-0.015-0.05-0.027-0.103-0.055-0.146
		c-0.305-0.482-1.149-0.352-2.438,0.375c-1.273,0.726-2.515,1.733-2.232,2.148c0.089,0.675,0.498,1.323,1.229,1.978
		c0.786,0.413,2.393,0.518,4.116,0.434c2.233-0.112,4.479-0.112,6.712,0c1.722,0.083,3.324-0.022,4.109-0.434
		c0.73-0.654,1.139-1.303,1.229-1.979C34.98,16.177,33.74,15.169,32.463,14.441z"/>
	<g>
		<path fill="#ED4C5C" d="M27.416,17.24c0.779-0.726,1.334-1.436,1.664-2.146c-0.691-0.212-1.39-0.288-2.034-0.209
			C27.169,15.67,27.293,16.455,27.416,17.24z"/>
		<path fill="#ED4C5C" d="M24.586,17.241c0.123-0.785,0.246-1.57,0.369-2.355c-0.645-0.079-1.343-0.003-2.035,0.209
			C23.25,15.805,23.806,16.516,24.586,17.241z"/>
		<path fill="#ED4C5C" d="M32.585,15.758c-0.114-0.132-0.316-0.269-0.561-0.386c-0.28-0.134-0.571-0.208-0.816-0.227
			c-0.066,0.809-0.432,1.601-1.098,2.401c0.301-0.039,0.575-0.09,0.785-0.166c0.762-0.448,1.331-0.884,1.709-1.32
			C32.711,15.996,32.699,15.888,32.585,15.758z"/>
		<path fill="#ED4C5C" d="M20.792,15.146c-0.245,0.019-0.536,0.093-0.816,0.227c-0.503,0.242-0.799,0.556-0.582,0.689
			c0.017,0.013,0.032,0.025,0.048,0.036c0.376,0.425,0.93,0.846,1.662,1.283c0.211,0.076,0.485,0.127,0.787,0.166
			C21.225,16.746,20.858,15.954,20.792,15.146z"/>
	</g>
	<rect x="18.58" y="18.485" fill="#FFCE31" width="14.838" height="2.043"/>
	<g>
		<polygon fill="#428BC1" points="18.605,18.901 18.237,19.559 18.708,20.111 19.415,19.414 18.605,18.901 		"/>
		<polygon fill="#428BC1" points="33.395,18.901 32.584,19.414 33.291,20.111 33.762,19.559 33.395,18.901 		"/>
		<polygon fill="#428BC1" points="25.999,18.449 25.237,19.058 25.999,19.665 26.761,19.058 25.999,18.449 		"/>
		<g>
			<polygon fill="#ED4C5C" points="22.264,19.797 22.992,19.134 22.201,18.583 21.472,19.244 22.264,19.797 			"/>
			<polygon fill="#ED4C5C" points="29.735,19.797 30.526,19.244 29.798,18.583 29.797,18.583 29.006,19.134 29.735,19.797 			"/>
		</g>
	</g>
</g>
</svg>
