<?xml version="1.0" encoding="utf-8"?>
<!-- Generator: Adobe Illustrator 15.0.0, SVG Export Plug-In . SVG Version: 6.00 Build 0)  -->
<!DOCTYPE svg PUBLIC "-//W3C//DTD SVG 1.1//EN" "http://www.w3.org/Graphics/SVG/1.1/DTD/svg11.dtd">
<svg version="1.1" id="Layer_1" xmlns="http://www.w3.org/2000/svg" xmlns:xlink="http://www.w3.org/1999/xlink" x="0px" y="0px"
	 width="64px" height="64px" viewBox="0 0 64 64" enable-background="new 0 0 64 64" xml:space="preserve">
<g>
	<path fill="#ED4C5C" d="M53.213,10.781c-8.699-8.7-21.406-10.931-32.171-6.713l38.882,38.884
		C64.141,32.187,61.91,19.479,53.213,10.781z"/>
	<path fill="#ED4C5C" d="M10.78,53.213c8.699,8.698,21.406,10.929,32.171,6.711L4.069,21.041
		C-0.149,31.807,2.082,44.515,10.78,53.213z"/>
	<path fill="#3E4347" d="M10.78,10.781c-1.961,1.962-3.578,4.132-4.88,6.435l40.878,40.877c2.303-1.303,4.473-2.918,6.436-4.88
		c1.961-1.962,3.576-4.134,4.881-6.435L17.215,5.899C14.913,7.202,12.741,8.818,10.78,10.781z"/>
	<g>
		<path fill="#FFFFFF" d="M4.92,19.064c-0.311,0.649-0.591,1.311-0.852,1.977l38.882,38.883c0.666-0.261,1.326-0.541,1.977-0.852
			c0.627-0.299,1.24-0.634,1.85-0.979L5.899,17.216C5.555,17.824,5.22,18.438,4.92,19.064z"/>
		<path fill="#FFFFFF" d="M21.042,4.068c-0.666,0.261-1.327,0.541-1.978,0.852c-0.627,0.299-1.24,0.634-1.849,0.979l40.879,40.879
			c0.344-0.609,0.68-1.223,0.979-1.849c0.311-0.65,0.592-1.312,0.852-1.978L21.042,4.068z"/>
	</g>
</g>
</svg>
