<?xml version="1.0" encoding="utf-8"?>
<!-- Generator: Adobe Illustrator 15.0.0, SVG Export Plug-In . SVG Version: 6.00 Build 0)  -->
<!DOCTYPE svg PUBLIC "-//W3C//DTD SVG 1.1//EN" "http://www.w3.org/Graphics/SVG/1.1/DTD/svg11.dtd">
<svg version="1.1" id="Layer_1" xmlns="http://www.w3.org/2000/svg" xmlns:xlink="http://www.w3.org/1999/xlink" x="0px" y="0px"
	 width="64px" height="64px" viewBox="0 0 64 64" enable-background="new 0 0 64 64" xml:space="preserve">
<g>
	<g>
		<path fill="#ED4C5C" d="M32,2v30H2c0,16.568,13.432,30,30,30s30-13.432,30-30S48.568,2,32,2z"/>
		<path fill="#2A5F9E" d="M32,2C15.432,2,2,15.432,2,32h30V2z"/>
	</g>
	<g>
		<path fill="#FFFFFF" d="M23.988,20.337L29,19l-5.012-1.337L27.66,14l-5.009,1.349L24,10.34l-3.663,3.672L19,9l-1.337,5.012
			L14,10.34l1.349,5.009L10.34,14l3.672,3.663L9,19l5.012,1.337L10.34,24l5.009-1.349L14,27.66l3.663-3.672L19,29l1.337-5.012
			L24,27.66l-1.349-5.009L27.66,24L23.988,20.337z"/>
		<circle fill="#428BC1" cx="19" cy="19" r="5.667"/>
		<circle fill="#FFFFFF" cx="19" cy="19" r="5"/>
	</g>
</g>
</svg>
