<?xml version="1.0" encoding="utf-8"?>
<!-- Generator: Adobe Illustrator 15.0.0, SVG Export Plug-In . SVG Version: 6.00 Build 0)  -->
<!DOCTYPE svg PUBLIC "-//W3C//DTD SVG 1.1//EN" "http://www.w3.org/Graphics/SVG/1.1/DTD/svg11.dtd">
<svg version="1.1" id="Layer_1" xmlns="http://www.w3.org/2000/svg" xmlns:xlink="http://www.w3.org/1999/xlink" x="0px" y="0px"
	 width="64px" height="64px" viewBox="0 0 64 64" enable-background="new 0 0 64 64" xml:space="preserve">
<g>
	<rect x="12" y="12" fill="#2A5F9E" width="20.625" height="20.625"/>
	<polygon fill="#FFFFFF" points="18.912,8.14 18.912,14 11.6,14 26,32 32,32 32,24.5 	"/>
	<path fill="#2A5F9E" d="M32,2v30H2c0,16.568,13.432,30,30,30s30-13.432,30-30S48.568,2,32,2z"/>
	<path fill="#FFFFFF" d="M11,18.913H5.011C3.088,22.869,2,27.306,2,32h12V13.913h-3V18.913z"/>
	<polygon fill="#ED4C5C" points="32,27.059 19,11 13,11 30,32 32,32 	"/>
	<path fill="#FFFFFF" d="M18.912,5.011V11H11v3h21V2C27.306,2,22.868,3.089,18.912,5.011z"/>
	<path fill="#ED4C5C" d="M32,5H18.912C12.857,7.94,7.94,12.857,5,18.913V32h6V11h21V5z"/>
	<g>
		<path fill="#FFFFFF" d="M37.93,28.475v11.689c0,1.174,1.036,1.686,2.125,2.125l4.251,1.682l4.25-1.682
			c1.089-0.439,2.125-0.951,2.125-2.125V28.475H37.93z"/>
		<path fill="#42ADE2" d="M50.681,36.977c0,0-1.343-0.893-3.188-0.893c-1.846,0-2.134,0.893-3.188,0.893
			c-1.282,0-1.344-0.893-3.188-0.893s-3.188,0.893-3.188,0.893v-1.785c0,0,1.343-0.895,3.188-0.895s1.906,0.895,3.188,0.895
			c1.054,0,1.342-0.895,3.188-0.895c1.845,0,3.188,0.895,3.188,0.895V36.977z"/>
		<path fill="#ED4C5C" d="M37.93,27.413v6.044c0,0,1.343-1.512,3.188-1.512s1.906,1.512,3.188,1.512
			c1.054,0,1.342-1.512,3.188-1.512c1.845,0,3.188,1.512,3.188,1.512v-6.044H37.93z"/>
		<path fill="#42ADE2" d="M50.681,40.164c0,0-1.343-0.834-3.188-0.834c-1.846,0-2.134,0.834-3.188,0.834
			c-1.282,0-1.344-0.834-3.188-0.834s-3.188,0.834-3.188,0.834v-1.668c0,0,1.343-0.834,3.188-0.834s1.906,0.834,3.188,0.834
			c1.054,0,1.342-0.834,3.188-0.834c1.845,0,3.188,0.834,3.188,0.834V40.164z"/>
		<path fill="#42ADE2" d="M41.117,41.227c-0.889,0-1.655,0.248-2.218,0.504c0.343,0.217,0.744,0.393,1.155,0.559l4.251,1.682
			l4.25-1.682c0.41-0.166,0.812-0.342,1.156-0.559c-0.563-0.256-1.331-0.504-2.219-0.504c-1.846,0-2.134,1.063-3.188,1.063
			C43.023,42.289,42.962,41.227,41.117,41.227z"/>
		<g>
			<path fill="#ED4C5C" d="M34.803,46.484L33.68,44.17c1.048-0.715,2.219-1.307,3.479-1.76l0.65,2.555
				C36.713,45.359,35.701,45.869,34.803,46.484z"/>
		</g>
		<g>
			<path fill="#ED4C5C" d="M53.794,46.539c-0.914-0.633-1.945-1.16-3.067-1.566l0.655-2.555c1.29,0.467,2.484,1.078,3.549,1.818
				L53.794,46.539z"/>
		</g>
		<path fill="none" stroke="#FFE62E" stroke-width="2" stroke-miterlimit="10" d="M44.306,27.413"/>
		<polygon fill="#83BF4F" points="44.306,40.229 45.619,41.227 45.123,39.605 46.43,38.6 44.811,38.594 44.306,36.977 43.8,38.594 
			42.181,38.6 43.487,39.605 42.991,41.227 		"/>
		<polygon fill="#83BF4F" points="41.117,35.979 42.432,36.977 41.935,35.354 43.242,34.35 41.623,34.344 41.117,32.726 
			40.612,34.344 38.993,34.35 40.3,35.354 39.804,36.977 		"/>
		<polygon fill="#83BF4F" points="47.493,35.979 48.807,36.977 48.311,35.354 49.618,34.35 47.998,34.344 47.493,32.726 
			46.987,34.344 45.368,34.35 46.675,35.354 46.179,36.977 		"/>
		<g>
			<path fill="#FFE62E" d="M44.269,47.746c-2.775,0-5.442-1.211-7.506-3.406l1.501-1.988c1.651,1.756,3.783,2.725,6.005,2.725
				c2.249,0,4.402-0.988,6.063-2.787l1.515,1.973C49.771,46.51,47.079,47.746,44.269,47.746z"/>
		</g>
		<g>
			<path fill="#FFE62E" d="M35.865,48.609l-1.123-2.314c1.048-0.715,2.218-1.307,3.48-1.76l0.649,2.555
				C37.776,47.484,36.764,47.994,35.865,48.609z"/>
		</g>
		<g>
			<path fill="#FFE62E" d="M52.73,48.664c-0.913-0.635-1.943-1.16-3.065-1.566l0.655-2.553c1.288,0.465,2.483,1.076,3.548,1.816
				L52.73,48.664z"/>
		</g>
		<path fill="#FFE62E" d="M49.551,30.055c-0.048-0.127-0.081-0.176-0.254-0.12c-0.421,0.139-1.575,0.06-1.942-0.178
			c0.552,0.214,1.256-0.239,1.256-0.614c0-0.417-0.546-0.759-1.65-0.533c-1.105,0.226-2.452,0.13-2.452-0.214
			c0-0.346,0.966-0.395,1.461-0.322c0.495,0.071,0.851,0.12,1.778-0.192c-0.229,0.083-0.966,0.107-1.55-0.047
			c-0.583-0.154-2.021-0.154-2.032,0.573c-0.013,0.728,1.528,0.662,2.858,0.477c0.774-0.107,1.181-0.035,1.181,0.204
			c0,0.226-0.71,0.322-1.257,0.262c-0.547-0.059-1.111-0.067-1.753,0.132c-1.157,0.36-2.488,0.095-2.837-0.427
			c0.024-0.053,0.042-0.119,0.042-0.225c0-0.003,0-0.006,0-0.009c0.082-0.08,0.16-0.232,0.194-0.343
			c0.078-0.26-0.029-0.268-0.346-0.149c-0.111-0.102-0.294-0.164-0.603-0.164s-0.493,0.062-0.602,0.165
			c-0.321-0.12-0.428-0.112-0.349,0.148c0.033,0.112,0.114,0.269,0.197,0.346c0,0.003,0,0.005,0,0.006
			c0.002,0.401,0.467,0.993,0.457,1.015c-0.604-0.051-1.401-1.128-1.545-1.566c-0.063-0.2-0.312-0.325-0.449-0.278
			c-0.12,0.042-0.165,0.139-0.062,0.213c0.104,0.073,0.235,0.084,0.264,0.27c-0.135-0.153-0.334-0.207-0.432-0.113
			c-0.058,0.058-0.034,0.191,0.092,0.203c0.184,0.019,0.087,0.171,0.229,0.333c-0.181-0.159-0.335-0.165-0.434-0.058
			c-0.067,0.071,0,0.197,0.142,0.184c0.206-0.02,0.862,0.895,2.462,1.732c-0.022,0.117-0.279,0.095-0.48,0.103
			c-0.375,0.015-0.875-0.039-1.137-0.317c-0.231-0.248-0.541-0.446-0.787-0.261c-0.127,0.094-0.005,0.217,0.096,0.183
			c0.099-0.035,0.217,0.034,0.322,0.078c-0.17-0.068-0.355-0.015-0.43,0.046c-0.099,0.083,0.023,0.246,0.144,0.188
			c0.097-0.044,0.291-0.075,0.418,0.035c-0.138-0.026-0.28-0.02-0.35,0.049c-0.068,0.069-0.015,0.171,0.134,0.164
			c0.237-0.009,1.943,1.01,3.335-0.166c0.202,0.006,1.617-0.043,2.166-0.361c0.365,0.393,0.424,0.349,0.743,0.408
			c0.331,0.059,0.533,0.059,0.313,0.233c-0.075,0.061-0.394,0.032-0.643,0.042c-0.553,0.021-0.807-0.361-0.97-0.162
			c-0.124,0.151-0.017,0.224,0.214,0.229c-0.178,0-0.373,0.009-0.335,0.157c0.073,0.281,0.358-0.052,0.468,0.062
			c-0.093-0.021-0.242,0.035-0.248,0.119c-0.005,0.085,0.212,0.195,0.45,0.017c0.131-0.098,0.292-0.135,0.396-0.135
			c0.39,0.002,1.268,0.189,1.556-0.112c0.112-0.117-0.031-0.215-0.146-0.322c-0.109-0.104-0.137-0.247-0.115-0.483
			c0.327,0.054,0.75,0.064,1.343-0.036c0.705-0.121,0.927,0.101,0.927,0.405c0,0.21-0.132,0.228-0.229,0.234
			c-0.394,0.022-0.562-0.139-0.717-0.086c-0.104,0.034-0.168,0.193-0.018,0.248c-0.123,0.06-0.108,0.171-0.045,0.212
			c0.064,0.042,0.227,0.004,0.339-0.044c-0.144,0.061-0.29,0.168-0.207,0.284c0.052,0.069,0.182,0.127,0.303-0.021
			c0.12-0.148,0.347-0.24,0.483-0.253C49.499,31.444,49.764,30.61,49.551,30.055z"/>
		<path fill="#FFE62E" d="M48.505,20.616l-2.313,0.04l2.042-1.978l-2.451,1.025l0.606-2.907l-1.671,2.295l-0.894-2.505l-0.247,2.737
			L41.865,17.4l0.944,3.104l-1.822-0.126c0,0,1.828,1.278,2.186,1.722h2.75C46.603,21.293,48.505,20.616,48.505,20.616z"/>
		<g>
			<path fill="#83BF4F" d="M41.117,23.163c0,0.586-1.537,1.063-2.124,1.063c-0.588,0-1.063-0.477-1.063-1.063
				c0-0.586,0.476-1.063,1.063-1.063C39.58,22.1,41.117,22.577,41.117,23.163z"/>
			<ellipse fill="#83BF4F" cx="41.118" cy="26.351" rx="0.531" ry="1.063"/>
			<ellipse fill="#83BF4F" cx="45.367" cy="26.351" rx="0.531" ry="1.063"/>
			<ellipse fill="#83BF4F" cx="47.493" cy="26.351" rx="0.531" ry="1.063"/>
			<path fill="#83BF4F" d="M48.556,23.754c0,2.251-1.903,2.422-4.25,2.422c-2.348,0-4.251-0.171-4.251-2.422
				c0-1.424,1.903-2.716,4.251-2.716C46.652,21.038,48.556,22.1,48.556,23.754z"/>
		</g>
	</g>
</g>
</svg>
