<?xml version="1.0" encoding="utf-8"?>
<!-- Generator: Adobe Illustrator 15.0.0, SVG Export Plug-In . SVG Version: 6.00 Build 0)  -->
<!DOCTYPE svg PUBLIC "-//W3C//DTD SVG 1.1//EN" "http://www.w3.org/Graphics/SVG/1.1/DTD/svg11.dtd">
<svg version="1.1" id="Layer_1" xmlns="http://www.w3.org/2000/svg" xmlns:xlink="http://www.w3.org/1999/xlink" x="0px" y="0px"
	 width="64px" height="64px" viewBox="0 0 64 64" enable-background="new 0 0 64 64" xml:space="preserve">
<g>
	<path fill="#83BF4F" d="M16.999,6.01C6.347,12.16,0.903,23.857,2.189,35.349L49.813,7.854C40.505,0.993,27.652-0.142,16.999,6.01z"
		/>
	<path fill="#428BC1" d="M14.192,56.136c9.308,6.859,22.159,7.994,32.813,1.843c10.652-6.149,16.096-17.848,14.81-29.338
		L14.192,56.136z"/>
	<path fill="#3E4347" d="M57.987,16.992c-1.387-2.402-3.067-4.526-4.954-6.381L2.969,39.518c0.662,2.561,1.661,5.076,3.049,7.479
		c1.387,2.403,3.066,4.526,4.953,6.381l50.064-28.906C60.373,21.91,59.374,19.395,57.987,16.992z"/>
	<g>
		<path fill="#FFCE31" d="M61.503,26.511c-0.127-0.683-0.292-1.362-0.468-2.04L10.971,53.377c0.498,0.49,1.004,0.973,1.532,1.424
			c0.548,0.469,1.113,0.91,1.689,1.335l47.622-27.495C61.734,27.93,61.635,27.219,61.503,26.511z"/>
		<path fill="#FFCE31" d="M51.501,9.188c-0.548-0.468-1.112-0.91-1.688-1.334L2.189,35.349c0.08,0.711,0.18,1.422,0.312,2.13
			c0.127,0.683,0.292,1.361,0.468,2.039l50.064-28.906C52.534,10.121,52.029,9.639,51.501,9.188z"/>
	</g>
</g>
</svg>
