<?xml version="1.0" encoding="utf-8"?>
<!-- Generator: Adobe Illustrator 15.0.0, SVG Export Plug-In . SVG Version: 6.00 Build 0)  -->
<!DOCTYPE svg PUBLIC "-//W3C//DTD SVG 1.1//EN" "http://www.w3.org/Graphics/SVG/1.1/DTD/svg11.dtd">
<svg version="1.1" id="Layer_1" xmlns="http://www.w3.org/2000/svg" xmlns:xlink="http://www.w3.org/1999/xlink" x="0px" y="0px"
	 width="64px" height="64px" viewBox="0 0 64 64" enable-background="new 0 0 64 64" xml:space="preserve">
<g>
	<g>
		<g>
			<path fill="#ED4C5C" d="M62,32c0-13.062-8.35-24.167-20-28.286v56.572C53.65,56.167,62,45.062,62,32z"/>
		</g>
		<g>
			<path fill="#2A5F9E" d="M2,32c0,13.062,8.35,24.167,20,28.286V3.714C10.35,7.833,2,18.938,2,32z"/>
		</g>
		<g>
			<path fill="#FFE62E" d="M42,3.714C38.873,2.608,35.508,2,32,2c-3.506,0-6.871,0.608-10,1.714v56.572
				C25.129,61.392,28.494,62,32,62c3.508,0,6.873-0.608,10-1.714V3.714z"/>
		</g>
	</g>
	<path fill="#997361" d="M41.23,30.862l0.129-0.022v-1.026l-0.828,0.604l0.057,0.116c-0.031,0.027-0.064,0.063-0.086,0.108
		c-0.02,0.039-0.027,0.08-0.029,0.119c-0.059-0.004-0.123-0.006-0.184-0.006c-0.18,0-0.246,0.02-0.287,0.047
		c-0.104,0.067-0.094,0.196-0.078,0.376c0.01,0.12,0.021,0.27,0,0.397c-0.035,0.229-0.098,0.276-0.139,0.309
		c-0.018,0.014-0.039,0.036-0.061,0.064c0.004-3.55,0.014-6.838,0.014-6.897c0-0.599-1.941-2.401-1.941-2.401l-1.854,1.453
		l0.096,1.212c-0.443,0.048-1.945,0.88-2.141,0.942c-1.6-0.891-0.533-2.887-0.537-2.951c0.008,0.006,0.014,0.012,0.02,0.018
		l0.234,0.237c0,0,0.199-0.835-0.156-1.359c0.043-0.016,0.82-0.17,0.82-0.17s-1.949-1.368-3.691-0.739
		c0.002-0.017,0.008-0.03,0.008-0.047c0-0.176-0.047-0.334-0.125-0.438l-0.164-0.208l-0.072,0.255c-0.02,0.066-0.08,0.11-0.152,0.11
		h-0.207v-0.208c0-0.072,0.045-0.133,0.109-0.151l0.252-0.075l-0.207-0.16c-0.205-0.16-0.668-0.16-0.873,0l-0.211,0.161l0.256,0.074
		c0.066,0.019,0.109,0.079,0.109,0.151v0.208h-0.207c-0.07,0-0.133-0.044-0.152-0.11l-0.074-0.249l-0.16,0.204
		c-0.08,0.104-0.125,0.263-0.125,0.438c0,0.177,0.045,0.336,0.125,0.437l0.16,0.204l0.074-0.248c0.02-0.067,0.08-0.111,0.152-0.111
		h0.207v1.511c0,0.068-0.041,0.126-0.104,0.147l-0.523,0.187l0.551,0.075c0.086,0.011,0.201,0.171,0.232,0.269l0.129,0.394
		l0.127-0.395c0.031-0.098,0.145-0.257,0.232-0.268l0.559-0.076c0.043,0.157,0.254,2.057-0.756,2.885
		c-0.18-0.058-1.699-0.895-2.141-0.942l0.094-1.212l-1.854-1.453c0,0-1.939,1.803-1.939,2.401c0,0.047,0.006,2.125,0.01,4.754
		l-0.092-0.126l-0.098,0.201c-0.004,0.007-0.055,0.113-0.098,0.246c-0.178-0.157-0.41-0.291-0.475-0.325l-0.164-0.092l-0.033,0.187
		c-0.008,0.048-0.075,0.461,0.047,0.755c-0.127-0.026-0.224-0.03-0.232-0.03l-0.179-0.008l0.043,0.175
		c0.006,0.021,0.139,0.543,0.465,0.794c0.207,0.159,0.471,0.195,0.645,0.202l0.172,0.379c0,0.035,0,0.071,0,0.106
		c-0.203-0.055-0.4-0.082-0.543-0.082c-0.1,0-0.162,0.007-0.162,0.007l-0.199,0.022l0.096,0.175
		c0.014,0.025,0.055,0.099,0.115,0.178c-0.057,0.017-0.1,0.033-0.109,0.036l-0.15,0.058l0.084,0.139
		c0.012,0.021,0.303,0.491,0.717,0.641c0.045,0.017,0.104,0.016,0.154,0.025c0,2.372-0.262,6.806-0.262,6.806
		s2.762-2.469,2.824-2.495c0,0-0.543,0.715-0.6,1.001c-0.072,0.355,0.217,1.26,1.328,0.886l-0.1,0.454l0.941,0.512
		c-0.117,0.086-0.652,0.327-0.652,0.327l4.416,2.932l4.416-2.932c0,0-2.367-0.903-3.154-4.083c0.037-0.017,0.688-0.31,0.705-0.317
		c0.27,0.229,2.271,2.753,2.324,2.811c-0.023,0.022-0.049,0.045-0.061,0.067c-0.006,0.013-0.012,0.026-0.016,0.04
		c-0.061-0.005-0.107,0.002-0.146,0.021c-0.08,0.04-0.133,0.066-0.074,0.935l0.016,0.226l0.191-0.121
		c0.736-0.465,0.727-0.521,0.709-0.609c-0.008-0.046-0.033-0.09-0.068-0.131c0.002-0.002,0.002-0.004,0.004-0.006
		c0.027,0.004,0.041,0.022,0.072,0.022c0.096,0,0.551-0.22,0.658-0.376c0.473-0.693,0.186-1.307,0.211-1.341
		c0.223,0.304,2.371,2.178,2.371,2.178s-0.262-4.273-0.262-6.557l0.471-0.923c0.006-0.01,0.037-0.027,0.055-0.038
		c0.049-0.029,0.109-0.064,0.141-0.128c0.016-0.027,0.021-0.059,0.021-0.089c0.047-0.014,0.096-0.036,0.133-0.067
		c0.063-0.054,0.064-0.124,0.066-0.166c0.002-0.052,0.006-0.131,0.168-0.293c0.092-0.092,0.219-0.17,0.32-0.231
		c0.154-0.096,0.268-0.165,0.26-0.287c-0.002-0.03-0.006-0.112-0.244-0.406c0.031-0.022,0.059-0.052,0.078-0.091
		C41.217,30.951,41.229,30.904,41.23,30.862z M30.111,21.6c-0.094,0-0.164,0.029-0.236,0.055v-0.125h0.207
		c0.053,0,0.094,0.029,0.123,0.067C30.172,21.598,30.137,21.602,30.111,21.6z M36.367,37.676c-0.117-0.204-0.832-1.591-0.98-1.878
		c0.123-0.068,0.246-0.138,0.352-0.206c0.193-0.126,0.377-0.292,0.49-0.432c0.18,0.652,0.498,1.707,0.82,2.271
		C37.057,37.452,36.432,37.787,36.367,37.676z M27.113,37.78l-0.125-0.275c0.148-0.102,0.357-0.27,0.48-0.498
		c0.193-0.362,0.129-0.831,0.125-0.852L27.57,35.99c0,0-0.291,0.109-0.342,0.132c-0.006-0.055,0.135-0.735,0.199-0.966
		c0.113,0.142,0.299,0.31,0.494,0.435c0.104,0.067,0.227,0.137,0.35,0.205C28.203,36.836,27.133,37.783,27.113,37.78z M29.98,23.188
		c-0.064-0.021-0.105-0.079-0.105-0.147v-0.394c0.291,0.128,0.527,0.314,0.639,0.724L29.98,23.188z M28.357,39.556l-0.635-0.443
		c0.027-0.053,1.869-2.326,2.141-2.556c0.018,0.009,0.67,0.301,0.703,0.315c-0.313,0.676-1.383,2.876-2.432,3.708L28.357,39.556z"/>
	<g>
		<g>
			<g>
				<g>
					<polygon fill="#FFD200" points="27.457,39.217 28.203,39.625 28.023,40.455 27.275,40.049 					"/>
				</g>
				<g>
					<path fill="#FFD200" d="M23.979,31.233l-0.268,0.123l3.037,6.657h0.324L23.979,31.233z M27.563,39.083l-0.219,0.228
						l0.137,0.302l0.266-0.123L27.563,39.083z"/>
				</g>
				<g>
					<path fill="#699635" d="M24.924,36.481l0.449,0.602l-0.426,0.093l1.064,0.548l0.615-0.179l-0.084-0.438L24.924,36.481
						L24.924,36.481L24.924,36.481z"/>
				</g>
				<g>
					<path fill="#699635" d="M26.854,35.535l-0.451,0.652l0.361,1.303l0.586-0.546l0.111-0.77l-0.369,0.174L26.854,35.535
						L26.854,35.535L26.854,35.535z"/>
				</g>
				<g>
					<path fill="#699635" d="M25.717,35.394l-0.791,0.112l-0.684-0.334l0.463-0.182l-0.41-0.48l0.648,0.011L25.717,35.394
						L25.717,35.394L25.717,35.394z"/>
				</g>
				<g>
					<path fill="#699635" d="M25.855,33.43l0.152,0.562l0.299-0.247l0.006,1.091l-0.553,0.574l-0.457-0.892l0.074-0.591
						L25.855,33.43L25.855,33.43L25.855,33.43z"/>
				</g>
				<g>
					<path fill="#699635" d="M23.24,32.328l0.832,0.118l0.596,0.827l-0.846,0.043l-0.646-0.585l0.359-0.062L23.24,32.328
						L23.24,32.328L23.24,32.328L23.24,32.328z"/>
				</g>
				<g>
					<path fill="#699635" d="M24.605,31.513l0.197,0.527l0.289-0.315l0.191,1.014l-0.406,0.669l-0.541-1.441L24.605,31.513
						L24.605,31.513L24.605,31.513z"/>
				</g>
				<g>
					<path fill="#699635" d="M23.102,29.919l0.055,0.715l0.197,0.285l-0.575-0.164l0.417,0.721l0.746,0.172l0.277-0.823
						l-0.359-0.885l-0.146,0.484L23.102,29.919L23.102,29.919L23.102,29.919z"/>
				</g>
			</g>
			<g>
				<path fill="#FFD200" d="M40.701,30.461l0.059,0.124l-0.139,0.118l0.029,0.204l-0.576,0.009l-0.018,0.682l-0.23,0.45l0.063,0.196
					l-0.115,0.068l-0.016,0.254l-2.057,4.038l-0.492,0.477l0.064,0.504l-0.279,0.135l0.146,0.375l0.393-0.101l-0.061-0.305
					l0.447-0.247l0.1-0.676l2.057-4.037l0.195-0.165l-0.01-0.133l0.195-0.063l0.229-0.453l0.539-0.416l-0.332-0.469l0.182-0.097
					l0.014-0.185l0.137-0.023v-0.648L40.701,30.461L40.701,30.461z M36.18,39.496v0.145l-0.223-0.023v0.805l0.648-0.475
					l-0.148-0.167l0.115-0.083l-0.125-0.24l-0.145-0.033L36.18,39.496L36.18,39.496L36.18,39.496z"/>
			</g>
		</g>
		<g>
			<g>
				<path fill="#F5D402" d="M36.318,27.311c0-0.306,0.4-0.607,0.4-0.607h-9.781c0,0,0.402,0.302,0.402,0.607v7.28
					c0,0.192,0.059,0.317,0.152,0.439c0.094,0.132,0.295,0.313,0.502,0.448c0.643,0.417,1.717,0.856,2.529,1.227
					c0.678,0.309,0.953,0.433,1.307,0.869c0.352-0.437,0.629-0.561,1.305-0.869c0.814-0.37,1.889-0.81,2.529-1.227
					c0.209-0.135,0.41-0.316,0.504-0.448c0.094-0.122,0.15-0.247,0.15-0.439V27.311z"/>
			</g>
			<g>
				<path fill="#ED4C5C" d="M27.57,31.43v-4.119c0-0.234-0.119-0.376-0.119-0.376h8.754c0,0-0.117,0.142-0.117,0.376l0.002,4.119
					l-4.26,1.29L27.57,31.43z"/>
			</g>
			<g>
				<path fill="#428BC1" d="M36.09,31.43l-2.637-0.05h-3.246l-2.637,0.05v3.161c0,0.159,0.164,0.532,1.115,1.006
					c1.572,0.783,2.781,1.148,3.145,1.596c0.361-0.447,1.568-0.813,3.141-1.596c0.951-0.474,1.117-0.847,1.117-1.006L36.09,31.43z"
					/>
			</g>
			<g>
				<g>
					<path fill="#FFE62E" d="M28.914,33.27l-0.84,1.008l0.695,1.114l1.273-0.321l0.09-1.31L28.914,33.27L28.914,33.27L28.914,33.27z
						"/>
				</g>
				<g>
					<path fill="#FFE62E" d="M33.516,34.53c0.047,0.441,0.406,0.812,0.85,0.918c-0.076-0.124-0.127-0.262-0.143-0.409
						c-0.055-0.523,0.35-0.948,0.904-0.948c0.088,0,0.172,0.012,0.256,0.03c-0.195-0.319-0.564-0.541-0.963-0.541
						C33.865,33.58,33.461,34.006,33.516,34.53z"/>
				</g>
			</g>
			<g>
				<g>
					<path fill="#FFE62E" d="M29.588,29.157l1.385,1.482l0.396-0.193l0.461,0.212l0.461-0.212l0.396,0.193l1.385-1.482l-0.51-1.646
						l1.115,1.743l-1.539,1.896l0.346,0.78l-0.768,0.307l-0.125,2.879l0.449,0.432L31.83,36.26l-1.211-0.713l0.449-0.432
						l-0.123-2.879l-0.77-0.307l0.346-0.78l-1.541-1.896l1.117-1.743L29.588,29.157L29.588,29.157L29.588,29.157z"/>
				</g>
				<g>
					<path fill="#FFE62E" d="M31.832,27.669l0.17,0.479l0.457-0.221l-0.217,0.461l0.477,0.17l-0.477,0.17l0.217,0.458l-0.457-0.218
						l-0.172,0.477l-0.172-0.477l-0.457,0.218l0.217-0.458l-0.477-0.17l0.477-0.17l-0.217-0.461l0.457,0.221L31.832,27.669
						L31.832,27.669z"/>
				</g>
				<g>
					<path fill="#FFE62E" d="M29.705,31.409l-0.797,0.597l-0.891-0.563l0.885-0.525L29.705,31.409L29.705,31.409L29.705,31.409z"/>
				</g>
				<g>
					<path fill="#FFE62E" d="M35.643,31.443l-0.891,0.563l-0.797-0.597l0.801-0.491L35.643,31.443L35.643,31.443z"/>
				</g>
			</g>
		</g>
	</g>
</g>
</svg>
