<?xml version="1.0" encoding="utf-8"?>
<!-- Generator: Adobe Illustrator 15.0.0, SVG Export Plug-In . SVG Version: 6.00 Build 0)  -->
<!DOCTYPE svg PUBLIC "-//W3C//DTD SVG 1.1//EN" "http://www.w3.org/Graphics/SVG/1.1/DTD/svg11.dtd">
<svg version="1.1" id="Layer_1" xmlns="http://www.w3.org/2000/svg" xmlns:xlink="http://www.w3.org/1999/xlink" x="0px" y="0px"
	 width="64px" height="64px" viewBox="0 0 64 64" enable-background="new 0 0 64 64" xml:space="preserve">
<g>
	<path fill="#ED4C5C" d="M32,2v30h30C62,15.432,48.568,2,32,2z"/>
	<path fill="#2A5F9E" d="M32,62V32H2C2,48.568,15.432,62,32,62z"/>
	<path fill="#F9F9F9" d="M32,62V32h30C62,48.568,48.568,62,32,62z"/>
	<path fill="#F9F9F9" d="M32,2v30H2C2,15.432,15.432,2,32,2z"/>
	<polygon fill="#2A5F9E" points="17,20.654 20.09,23 18.924,19.186 22,16.75 18.188,16.75 17,13 15.847,16.75 12,16.75 
		15.077,19.186 13.91,23 	"/>
	<polygon fill="#ED4C5C" points="47,46.654 50.09,49 48.924,45.186 52,42.75 48.188,42.75 47,39 45.847,42.75 42,42.75 
		45.077,45.186 43.91,49 	"/>
</g>
</svg>
