<?xml version="1.0" encoding="utf-8"?>
<!-- Generator: Adobe Illustrator 15.0.0, SVG Export Plug-In . SVG Version: 6.00 Build 0)  -->
<!DOCTYPE svg PUBLIC "-//W3C//DTD SVG 1.1//EN" "http://www.w3.org/Graphics/SVG/1.1/DTD/svg11.dtd">
<svg version="1.1" id="Layer_1" xmlns="http://www.w3.org/2000/svg" xmlns:xlink="http://www.w3.org/1999/xlink" x="0px" y="0px"
	 width="64px" height="64px" viewBox="0 0 64 64" enable-background="new 0 0 64 64" xml:space="preserve">
<g>
	<path fill="#2A5F9E" d="M2,32c0,5.885,1.701,11.367,4.628,16h50.744C60.3,43.367,62,37.885,62,32s-1.7-11.369-4.628-16H6.628
		C3.701,20.631,2,26.115,2,32z"/>
	<g>
		<path fill="#ED4C5C" d="M57.372,16C52.058,7.59,42.685,2,32,2C21.316,2,11.943,7.59,6.628,16H57.372z"/>
		<path fill="#ED4C5C" d="M6.628,48C11.943,56.41,21.316,62,32,62c10.685,0,20.058-5.59,25.372-14H6.628z"/>
	</g>
	<circle fill="#FFFFFF" cx="32" cy="32" r="10"/>
</g>
</svg>
