<?xml version="1.0" encoding="utf-8"?>
<!-- Generator: Adobe Illustrator 15.0.0, SVG Export Plug-In . SVG Version: 6.00 Build 0)  -->
<!DOCTYPE svg PUBLIC "-//W3C//DTD SVG 1.1//EN" "http://www.w3.org/Graphics/SVG/1.1/DTD/svg11.dtd">
<svg version="1.1" id="Layer_1" xmlns="http://www.w3.org/2000/svg" xmlns:xlink="http://www.w3.org/1999/xlink" x="0px" y="0px"
	 width="64px" height="64px" viewBox="0 0 64 64" enable-background="new 0 0 64 64" xml:space="preserve">
<g>
	<g>
		<path fill="#428BC1" d="M32,62c13.061,0,24.167-8.35,28.286-20H3.714C7.833,53.65,18.939,62,32,62z"/>
		<path fill="#ED4C5C" d="M32,2C18.939,2,7.833,10.35,3.714,22h56.572C56.167,10.35,45.061,2,32,2z"/>
		<path fill="#F9F9F9" d="M60.286,42C61.393,38.871,62,35.508,62,32s-0.607-6.871-1.714-10H3.714C2.607,25.129,2,28.492,2,32
			s0.607,6.871,1.714,10H60.286z"/>
	</g>
	<g>
		<path fill="#3E4347" d="M32,41c-4.963,0-9-4.037-9-9s4.037-9,9-9s9,4.037,9,9S36.963,41,32,41z M32,23.291
			c-4.803,0-8.709,3.906-8.709,8.709s3.906,8.71,8.709,8.71s8.709-3.907,8.709-8.71S36.803,23.291,32,23.291z"/>
	</g>
	<g>
		<path fill="#ED4C5C" d="M32,24.408c-4.191,0-7.592,3.4-7.592,7.592c0,4.19,3.4,7.592,7.592,7.592c4.19,0,7.592-3.401,7.592-7.592
			C39.592,27.809,36.19,24.408,32,24.408z M32,37.694c-3.144,0-5.694-2.551-5.694-5.694s2.551-5.694,5.694-5.694
			s5.694,2.551,5.694,5.694S35.143,37.694,32,37.694z"/>
	</g>
	<path fill="#FFCE31" d="M26,32c0-3.313,2.688-6,6-6s6,2.688,6,6h1.313c0-4.037-3.276-7.313-7.313-7.313S24.687,27.963,24.687,32H26
		z"/>
	<path id="path7655" fill="#428BC1" d="M34.867,31.651c0,1.579-1.28,2.858-2.858,2.858c-1.579,0-2.859-1.279-2.859-2.858
		s1.28-2.858,2.859-2.858C33.587,28.793,34.867,30.072,34.867,31.651z"/>
	<path id="path1740" fill="#FFCE31" d="M33.554,33.619l-1.551-1.072l-1.551,1.072l0.581-1.715l-1.356-1.072h1.744l0.582-1.715
		l0.581,1.715h1.745l-1.357,1.072L33.554,33.619L33.554,33.619z"/>
	<g>
		<path fill="#699635" d="M29.412,29.485c0,0-0.356-0.102-0.641-0.097c0.004-0.006,0.009-0.009,0.012-0.015
			c0.224-0.343,0.297-0.983,0.297-0.983s-0.552,0.325-0.779,0.666c-0.117-0.248-0.332-0.501-0.332-0.501s-0.261,0.294-0.222,0.579
			c0.04,0.286,0.403,0.712,0.403,0.712s0.538,0.156,0.818,0.076C29.247,29.842,29.412,29.485,29.412,29.485z"/>
		<path fill="#83BF4F" d="M28.899,30.305c0,0-0.371-0.007-0.645,0.071c0.003-0.006,0.006-0.012,0.007-0.018
			c0.128-0.388,0.032-1.026,0.032-1.026s-0.45,0.456-0.58,0.844c-0.178-0.209-0.452-0.399-0.452-0.399s-0.175,0.353-0.063,0.618
			c0.112,0.265,0.575,0.584,0.575,0.584s0.561,0.011,0.81-0.138S28.899,30.305,28.899,30.305z"/>
		<path fill="#699635" d="M28.616,31.229c0,0-0.358,0.088-0.602,0.233c0-0.007,0.001-0.012,0.001-0.018c0.021-0.408-0.237-1-0.237-1
			s-0.316,0.557-0.34,0.963c-0.227-0.156-0.54-0.269-0.54-0.269s-0.078,0.385,0.1,0.613c0.178,0.227,0.708,0.415,0.708,0.415
			s0.545-0.132,0.746-0.341C28.654,31.619,28.616,31.229,28.616,31.229z"/>
		<path fill="#83BF4F" d="M28.584,32.192c0,0-0.323,0.179-0.521,0.381c-0.001-0.007-0.001-0.012-0.003-0.018
			c-0.085-0.4-0.489-0.905-0.489-0.905s-0.161,0.619-0.078,1.018c-0.259-0.092-0.592-0.121-0.592-0.121s0.024,0.392,0.257,0.566
			c0.231,0.174,0.791,0.221,0.791,0.221s0.492-0.269,0.633-0.521C28.723,32.561,28.584,32.192,28.584,32.192z"/>
		<path fill="#699635" d="M28.805,33.132c0,0-0.266,0.256-0.403,0.502c-0.003-0.006-0.005-0.011-0.008-0.016
			c-0.187-0.365-0.71-0.749-0.71-0.749s0.008,0.639,0.191,1.004c-0.273-0.022-0.603,0.035-0.603,0.035s0.126,0.371,0.396,0.479
			c0.268,0.108,0.821,0.01,0.821,0.01s0.405-0.387,0.476-0.666S28.805,33.132,28.805,33.132z"/>
		<path fill="#83BF4F" d="M29.263,33.982c0,0-0.189,0.315-0.259,0.589c-0.004-0.005-0.006-0.009-0.012-0.014
			c-0.276-0.305-0.88-0.541-0.88-0.541s0.173,0.616,0.445,0.92c-0.271,0.049-0.573,0.189-0.573,0.189s0.219,0.327,0.508,0.363
			c0.288,0.035,0.796-0.202,0.796-0.202s0.291-0.478,0.286-0.767C29.567,34.232,29.263,33.982,29.263,33.982z"/>
		<path fill="#699635" d="M29.927,34.688c0,0-0.101,0.354-0.097,0.635c-0.005-0.003-0.01-0.007-0.015-0.011
			c-0.345-0.223-0.991-0.296-0.991-0.296s0.328,0.55,0.671,0.774c-0.249,0.116-0.504,0.329-0.504,0.329s0.296,0.261,0.584,0.222
			c0.287-0.041,0.716-0.4,0.716-0.4s0.158-0.536,0.077-0.813C30.287,34.851,29.927,34.688,29.927,34.688z"/>
		<path fill="#83BF4F" d="M30.752,35.197c0,0-0.006,0.368,0.072,0.638c-0.006-0.002-0.01-0.004-0.018-0.007
			c-0.391-0.125-1.033-0.03-1.033-0.03s0.46,0.446,0.849,0.576c-0.209,0.176-0.401,0.447-0.401,0.447s0.354,0.174,0.622,0.063
			c0.268-0.112,0.589-0.57,0.589-0.57s0.012-0.558-0.139-0.805C31.143,35.263,30.752,35.197,30.752,35.197z"/>
		<path fill="#699635" d="M34.588,29.485c0,0,0.356-0.102,0.641-0.097c-0.004-0.006-0.009-0.009-0.012-0.015
			c-0.224-0.343-0.297-0.983-0.297-0.983s0.552,0.325,0.779,0.666c0.117-0.248,0.332-0.501,0.332-0.501s0.261,0.294,0.222,0.579
			c-0.04,0.286-0.403,0.712-0.403,0.712s-0.538,0.156-0.818,0.076C34.752,29.842,34.588,29.485,34.588,29.485z"/>
		<path fill="#83BF4F" d="M35.101,30.305c0,0,0.371-0.007,0.644,0.071c-0.002-0.006-0.005-0.012-0.006-0.018
			c-0.129-0.388-0.032-1.026-0.032-1.026s0.45,0.456,0.58,0.844c0.178-0.209,0.452-0.399,0.452-0.399s0.175,0.353,0.063,0.618
			c-0.112,0.265-0.575,0.584-0.575,0.584s-0.561,0.011-0.81-0.138S35.101,30.305,35.101,30.305z"/>
		<path fill="#699635" d="M35.384,31.229c0,0,0.358,0.088,0.602,0.233c0-0.007-0.001-0.012-0.001-0.018
			c-0.021-0.408,0.237-1,0.237-1s0.316,0.557,0.34,0.963c0.226-0.156,0.54-0.269,0.54-0.269s0.078,0.385-0.1,0.613
			c-0.178,0.227-0.708,0.415-0.708,0.415s-0.545-0.132-0.746-0.341C35.346,31.619,35.384,31.229,35.384,31.229z"/>
		<path fill="#83BF4F" d="M35.416,32.192c0,0,0.323,0.179,0.521,0.381c0.001-0.007,0.001-0.012,0.003-0.018
			c0.085-0.4,0.489-0.905,0.489-0.905s0.161,0.619,0.078,1.018c0.259-0.092,0.592-0.121,0.592-0.121s-0.024,0.392-0.257,0.566
			c-0.231,0.174-0.791,0.221-0.791,0.221s-0.493-0.269-0.633-0.521C35.277,32.561,35.416,32.192,35.416,32.192z"/>
		<path fill="#699635" d="M35.195,33.132c0,0,0.266,0.256,0.403,0.502c0.003-0.006,0.005-0.011,0.008-0.016
			c0.187-0.365,0.71-0.749,0.71-0.749s-0.008,0.639-0.191,1.004c0.273-0.022,0.603,0.035,0.603,0.035s-0.126,0.371-0.396,0.479
			c-0.268,0.108-0.821,0.01-0.821,0.01s-0.405-0.387-0.476-0.666S35.195,33.132,35.195,33.132z"/>
		<path fill="#83BF4F" d="M34.737,33.982c0,0,0.189,0.315,0.259,0.589c0.004-0.005,0.006-0.009,0.012-0.014
			c0.276-0.305,0.88-0.541,0.88-0.541s-0.173,0.616-0.446,0.92c0.271,0.049,0.574,0.189,0.574,0.189s-0.219,0.327-0.508,0.363
			c-0.288,0.035-0.796-0.202-0.796-0.202s-0.291-0.478-0.286-0.767C34.432,34.232,34.737,33.982,34.737,33.982z"/>
		<path fill="#699635" d="M34.073,34.688c0,0,0.101,0.354,0.097,0.635c0.005-0.003,0.01-0.007,0.015-0.011
			c0.345-0.223,0.991-0.296,0.991-0.296s-0.328,0.55-0.671,0.774c0.249,0.116,0.504,0.329,0.504,0.329s-0.296,0.261-0.584,0.222
			c-0.287-0.041-0.716-0.4-0.716-0.4s-0.158-0.536-0.077-0.813C33.713,34.851,34.073,34.688,34.073,34.688z"/>
		<path fill="#83BF4F" d="M33.248,35.197c0,0,0.006,0.368-0.072,0.638c0.006-0.002,0.01-0.004,0.018-0.007
			c0.391-0.125,1.033-0.03,1.033-0.03s-0.46,0.446-0.849,0.576c0.209,0.176,0.401,0.447,0.401,0.447s-0.354,0.174-0.622,0.063
			c-0.268-0.112-0.589-0.57-0.589-0.57s-0.012-0.558,0.139-0.805C32.857,35.263,33.248,35.197,33.248,35.197z"/>
	</g>
</g>
</svg>
