<?xml version="1.0" encoding="utf-8"?>
<!-- Generator: Adobe Illustrator 15.0.0, SVG Export Plug-In . SVG Version: 6.00 Build 0)  -->
<!DOCTYPE svg PUBLIC "-//W3C//DTD SVG 1.1//EN" "http://www.w3.org/Graphics/SVG/1.1/DTD/svg11.dtd">
<svg version="1.1" id="Layer_1" xmlns="http://www.w3.org/2000/svg" xmlns:xlink="http://www.w3.org/1999/xlink" x="0px" y="0px"
	 width="64px" height="64px" viewBox="0 0 64 64" enable-background="new 0 0 64 64" xml:space="preserve">
<g>
	<g>
		<path fill="#F9F9F9" d="M2,32c0,5.885,1.701,11.367,4.627,16h50.744C60.299,43.367,62,37.885,62,32s-1.701-11.369-4.629-16H6.627
			C3.701,20.631,2,26.115,2,32z"/>
		<g>
			<path fill="#428BC1" d="M57.371,16C52.057,7.59,42.684,2,32,2S11.943,7.59,6.627,16H57.371z"/>
			<path fill="#83BF4F" d="M6.627,48C11.943,56.41,21.316,62,32,62s20.057-5.59,25.371-14H6.627z"/>
		</g>
	</g>
	<path fill="#3E4347" d="M35.135,30.756c0.871-1.127,1.41-2.727,1.41-4.533C36.545,22.732,34.549,20,32,20s-4.547,2.732-4.547,6.223
		c0,1.807,0.539,3.406,1.41,4.533L22,38.738c0,0,0,5.262,10,5.262s10-5.262,10-5.262L35.135,30.756z M34.727,26.223
		c0,1.201-0.311,2.311-0.807,3.121l-1.467-1.705V26l1.365-0.666l-1.365-0.668v-2.811C33.725,22.221,34.727,24.064,34.727,26.223z
		 M29.271,26.223c0-2.158,1.004-4.002,2.273-4.367v2.811l-1.363,0.668L31.545,26v1.639l-1.465,1.705
		C29.584,28.533,29.271,27.424,29.271,26.223z"/>
</g>
</svg>
