<?xml version="1.0" encoding="utf-8"?>
<!-- Generator: Adobe Illustrator 15.0.0, SVG Export Plug-In . SVG Version: 6.00 Build 0)  -->
<!DOCTYPE svg PUBLIC "-//W3C//DTD SVG 1.1//EN" "http://www.w3.org/Graphics/SVG/1.1/DTD/svg11.dtd">
<svg version="1.1" id="Layer_1" xmlns="http://www.w3.org/2000/svg" xmlns:xlink="http://www.w3.org/1999/xlink" x="0px" y="0px"
	 width="64px" height="64px" viewBox="0 0 64 64" enable-background="new 0 0 64 64" xml:space="preserve">
<g>
	<path fill="#699635" d="M17,58V6C8.036,11.192,2,20.888,2,32C2,43.111,8.036,52.807,17,58z"/>
	<path fill="#ED4C5C" d="M32,2c-5.466,0-10.586,1.47-15,4.023v51.954C21.414,60.529,26.534,62,32,62c16.568,0,30-13.432,30-30
		C62,15.431,48.568,2,32,2z"/>
	<path fill="#FFE62E" d="M17,20c-6.627,0-12,5.373-12,12c0,6.627,5.373,12,12,12s12-5.373,12-12C29,25.373,23.627,20,17,20z
		 M17,42.5c-5.798,0-10.5-4.701-10.5-10.5c0-5.798,4.702-10.5,10.5-10.5S27.5,26.201,27.5,32C27.5,37.799,22.798,42.5,17,42.5z"/>
	<path fill="#FFE62E" d="M21.104,43.682c-0.194,0.193-0.513,0.193-0.707,0L6.674,25.619c-0.194-0.194-0.194-0.513,0-0.707
		l0.354-0.354c0.194-0.194,0.513-0.194,0.707,0l13.724,18.063c0.194,0.193,0.194,0.512,0,0.707L21.104,43.682z"/>
	<path fill="#FFE62E" d="M17.25,19.5c0.275,0,0.5,0.225,0.5,0.5v24c0,0.275-0.225,0.5-0.5,0.5h-0.5c-0.274,0-0.5-0.225-0.5-0.5V20
		c0-0.275,0.226-0.5,0.5-0.5H17.25z"/>
	<path fill="#FFE62E" d="M28.948,33.345L17,31.238v1.523l11.688,2.061c0.271,0.047,0.531-0.135,0.579-0.406l0.087-0.492
		C29.401,33.652,29.219,33.393,28.948,33.345z"/>
	<path fill="#FFE62E" d="M17,31.084l-9.399-6.582c-0.226-0.158-0.539-0.103-0.696,0.123l-0.287,0.41
		C6.46,25.26,6.515,25.573,6.74,25.731L17,32.915V31.084z"/>
	<path fill="#FFE62E" d="M16.581,30.002l-9.373,9.395c-0.194,0.193-0.194,0.512,0,0.707l0.354,0.354
		c0.194,0.193,0.513,0.193,0.707,0l8.313-8.333V30.002z"/>
	<path fill="#FFE62E" d="M17,25.549L4.476,31.39c-0.249,0.116-0.358,0.415-0.242,0.664l0.211,0.453
		c0.117,0.249,0.416,0.358,0.665,0.242L17,27.204V25.549z"/>
	<path fill="#FFE62E" d="M28.076,27.179l-11.948-2.107v1.523l11.688,2.061c0.271,0.048,0.531-0.135,0.579-0.405l0.087-0.493
		C28.529,27.487,28.347,27.227,28.076,27.179z"/>
	<path fill="#FFE62E" d="M16.882,38.875c-0.249,0.115-0.357,0.414-0.241,0.664l0.211,0.453c0.116,0.248,0.415,0.357,0.664,0.242
		l9.969-4.648l0.54-1.907L16.882,38.875z"/>
	<polygon fill="#FFE62E" points="16.907,35.49 5.702,31.413 5.702,33.008 16.907,37.086 	"/>
	<path fill="#FFE62E" d="M9.125,38.754v1.504l14.809,0.986c0.562-0.416,1.084-0.883,1.562-1.395L9.125,38.754z"/>
	<g>
		<path fill="#FFFFFF" d="M12,27v7c0,2.76,2.238,5,5,5s5-2.24,5-5v-7H12z"/>
		<path fill="#ED4C5C" d="M17,41c-3.859,0-7-3.141-7-7v-9h14v9C24,37.859,20.86,41,17,41z M14,29v5c0,1.654,1.346,3,3,3s3-1.346,3-3
			v-5H14z"/>
	</g>
	<path fill="#0071BC" d="M16.138,29.362v1.654c0,0.253,0.207,0.46,0.46,0.46h0.806c0.252,0,0.459-0.207,0.459-0.46v-1.654H16.138z"
		/>
	<path fill="#0071BC" d="M16.138,31.862v1.654c0,0.254,0.207,0.461,0.46,0.461h0.806c0.252,0,0.459-0.207,0.459-0.461v-1.654H16.138
		z"/>
	<path fill="#0071BC" d="M14.125,31.862v1.654c0,0.254,0.207,0.461,0.46,0.461h0.806c0.253,0,0.46-0.207,0.46-0.461v-1.654H14.125z"
		/>
	<path fill="#0071BC" d="M18.15,31.862v1.654c0,0.254,0.207,0.461,0.46,0.461h0.805c0.253,0,0.46-0.207,0.46-0.461v-1.654H18.15z"/>
	<path fill="#0071BC" d="M16.138,34.305v1.654c0,0.252,0.207,0.461,0.46,0.461h0.806c0.252,0,0.459-0.209,0.459-0.461v-1.654H16.138
		z"/>
	<circle fill="#FFFFFF" cx="17" cy="32.915" r="0.249"/>
	<circle fill="#FFFFFF" cx="16.594" cy="33.416" r="0.249"/>
	<circle fill="#FFFFFF" cx="17.414" cy="33.416" r="0.249"/>
	<circle fill="#FFFFFF" cx="16.594" cy="32.422" r="0.249"/>
	<circle fill="#FFFFFF" cx="17.414" cy="32.422" r="0.249"/>
	<circle fill="#FFFFFF" cx="16.993" cy="30.408" r="0.249"/>
	<circle fill="#FFFFFF" cx="16.586" cy="30.909" r="0.249"/>
	<circle fill="#FFFFFF" cx="17.406" cy="30.909" r="0.249"/>
	<circle fill="#FFFFFF" cx="16.586" cy="29.915" r="0.249"/>
	<circle fill="#FFFFFF" cx="17.406" cy="29.915" r="0.249"/>
	<circle fill="#FFFFFF" cx="19.009" cy="32.915" r="0.249"/>
	<circle fill="#FFFFFF" cx="18.603" cy="33.416" r="0.249"/>
	<circle fill="#FFFFFF" cx="19.422" cy="33.416" r="0.249"/>
	<circle fill="#FFFFFF" cx="18.603" cy="32.422" r="0.249"/>
	<circle fill="#FFFFFF" cx="19.422" cy="32.422" r="0.249"/>
	<circle fill="#FFFFFF" cx="14.984" cy="32.911" r="0.249"/>
	<circle fill="#FFFFFF" cx="14.578" cy="33.412" r="0.249"/>
	<circle fill="#FFFFFF" cx="15.398" cy="33.412" r="0.249"/>
	<circle fill="#FFFFFF" cx="14.578" cy="32.418" r="0.249"/>
	<circle fill="#FFFFFF" cx="15.398" cy="32.418" r="0.249"/>
	<circle fill="#FFFFFF" cx="16.997" cy="35.357" r="0.249"/>
	<circle fill="#FFFFFF" cx="16.59" cy="35.859" r="0.249"/>
	<circle fill="#FFFFFF" cx="17.41" cy="35.859" r="0.249"/>
	<circle fill="#FFFFFF" cx="16.59" cy="34.865" r="0.249"/>
	<circle fill="#FFFFFF" cx="17.41" cy="34.865" r="0.249"/>
	<g>
		<polygon fill="#FFE62E" points="16,28 18,28 17.75,27 17.75,26 17.987,26 17.987,25.549 17.737,25.549 17.737,25.774 
			17.578,25.774 17.578,25.549 17.328,25.549 17.328,25.774 17.117,25.774 17.117,25.549 16.867,25.549 16.867,25.774 
			16.672,25.774 16.672,25.549 16.422,25.549 16.422,25.774 16.25,25.774 16.25,25.549 16,25.549 16,26 16.125,26 16.25,26 
			16.25,27 		"/>
		<g>
			<path fill="#3E4347" d="M17.295,28h-0.1v-0.435c0-0.107-0.088-0.195-0.195-0.195s-0.194,0.087-0.194,0.195V28h-0.1v-0.435
				c0-0.163,0.132-0.294,0.294-0.294c0.163,0,0.295,0.132,0.295,0.294V28z"/>
		</g>
		<g>
			<path fill="#3E4347" d="M16.967,26.917h-0.589v-0.485c0-0.163,0.132-0.294,0.294-0.294c0.163,0,0.295,0.132,0.295,0.294V26.917z
				 M16.478,26.818h0.39v-0.385c0-0.107-0.088-0.195-0.195-0.195s-0.194,0.087-0.194,0.195V26.818z"/>
		</g>
		<g>
			<path fill="#3E4347" d="M17.622,26.917h-0.589v-0.485c0-0.163,0.132-0.294,0.295-0.294c0.162,0,0.294,0.132,0.294,0.294V26.917z
				 M17.133,26.818h0.39v-0.385c0-0.107-0.087-0.195-0.194-0.195s-0.195,0.087-0.195,0.195V26.818z"/>
		</g>
	</g>
	<g>
		<polygon fill="#FFE62E" points="11,28 13,28 12.75,27 12.75,26 12.987,26 12.987,25.549 12.737,25.549 12.737,25.774 
			12.578,25.774 12.578,25.549 12.328,25.549 12.328,25.774 12.117,25.774 12.117,25.549 11.867,25.549 11.867,25.774 
			11.672,25.774 11.672,25.549 11.422,25.549 11.422,25.774 11.25,25.774 11.25,25.549 11,25.549 11,26 11.125,26 11.25,26 
			11.25,27 		"/>
		<g>
			<path fill="#3E4347" d="M12.295,28h-0.1v-0.435c0-0.107-0.088-0.195-0.195-0.195s-0.194,0.087-0.194,0.195V28h-0.1v-0.435
				c0-0.163,0.132-0.294,0.294-0.294c0.163,0,0.295,0.132,0.295,0.294V28z"/>
		</g>
		<g>
			<path fill="#3E4347" d="M11.967,26.917h-0.589v-0.485c0-0.163,0.132-0.294,0.294-0.294c0.163,0,0.295,0.132,0.295,0.294V26.917z
				 M11.478,26.818h0.39v-0.385c0-0.107-0.088-0.195-0.195-0.195s-0.194,0.087-0.194,0.195V26.818z"/>
		</g>
		<g>
			<path fill="#3E4347" d="M12.622,26.917h-0.589v-0.485c0-0.163,0.132-0.294,0.295-0.294c0.162,0,0.294,0.132,0.294,0.294V26.917z
				 M12.133,26.818h0.39v-0.385c0-0.107-0.087-0.195-0.194-0.195s-0.195,0.087-0.195,0.195V26.818z"/>
		</g>
	</g>
	<g>
		<polygon fill="#FFE62E" points="11.033,33.896 13.033,33.896 12.783,32.896 12.783,31.896 13.021,31.896 13.021,31.445 
			12.771,31.445 12.771,31.67 12.611,31.67 12.611,31.445 12.361,31.445 12.361,31.67 12.15,31.67 12.15,31.445 11.9,31.445 
			11.9,31.67 11.705,31.67 11.705,31.445 11.455,31.445 11.455,31.67 11.283,31.67 11.283,31.445 11.033,31.445 11.033,31.896 
			11.158,31.896 11.283,31.896 11.283,32.896 		"/>
		<g>
			<path fill="#3E4347" d="M12.328,33.896h-0.1v-0.435c0-0.107-0.088-0.195-0.195-0.195s-0.194,0.088-0.194,0.195v0.435h-0.1v-0.435
				c0-0.163,0.132-0.295,0.294-0.295c0.163,0,0.295,0.132,0.295,0.295V33.896z"/>
		</g>
		<g>
			<path fill="#3E4347" d="M12,32.813h-0.589v-0.485c0-0.163,0.132-0.294,0.294-0.294c0.163,0,0.295,0.132,0.295,0.294V32.813z
				 M11.511,32.714h0.39v-0.385c0-0.107-0.088-0.195-0.195-0.195s-0.194,0.087-0.194,0.195V32.714z"/>
		</g>
		<g>
			<path fill="#3E4347" d="M12.655,32.813h-0.589v-0.485c0-0.163,0.132-0.294,0.295-0.294c0.162,0,0.294,0.132,0.294,0.294V32.813z
				 M12.166,32.714h0.39v-0.385c0-0.107-0.087-0.195-0.194-0.195s-0.195,0.087-0.195,0.195V32.714z"/>
		</g>
	</g>
	<g>
		<polygon fill="#FFE62E" points="21,34.021 23,34.021 22.75,33.021 22.75,32.021 22.987,32.021 22.987,31.57 22.737,31.57 
			22.737,31.795 22.578,31.795 22.578,31.57 22.328,31.57 22.328,31.795 22.117,31.795 22.117,31.57 21.867,31.57 21.867,31.795 
			21.672,31.795 21.672,31.57 21.422,31.57 21.422,31.795 21.25,31.795 21.25,31.57 21,31.57 21,32.021 21.125,32.021 21.25,32.021 
			21.25,33.021 		"/>
		<g>
			<path fill="#3E4347" d="M22.295,34.021h-0.1v-0.435c0-0.107-0.088-0.195-0.195-0.195s-0.194,0.088-0.194,0.195v0.435h-0.1v-0.435
				c0-0.163,0.132-0.295,0.294-0.295c0.163,0,0.295,0.132,0.295,0.295V34.021z"/>
		</g>
		<g>
			<path fill="#3E4347" d="M21.967,32.938h-0.589v-0.485c0-0.163,0.132-0.294,0.294-0.294c0.163,0,0.295,0.132,0.295,0.294V32.938z
				 M21.478,32.839h0.39v-0.385c0-0.107-0.088-0.195-0.195-0.195s-0.194,0.087-0.194,0.195V32.839z"/>
		</g>
		<g>
			<path fill="#3E4347" d="M22.622,32.938h-0.589v-0.485c0-0.163,0.132-0.294,0.295-0.294c0.162,0,0.294,0.132,0.294,0.294V32.938z
				 M22.133,32.839h0.39v-0.385c0-0.107-0.087-0.195-0.194-0.195s-0.195,0.087-0.195,0.195V32.839z"/>
		</g>
	</g>
	<g>
		<polygon fill="#FFE62E" points="21,28 23,28 22.75,27 22.75,26 22.987,26 22.987,25.549 22.737,25.549 22.737,25.774 
			22.578,25.774 22.578,25.549 22.328,25.549 22.328,25.774 22.117,25.774 22.117,25.549 21.867,25.549 21.867,25.774 
			21.672,25.774 21.672,25.549 21.422,25.549 21.422,25.774 21.25,25.774 21.25,25.549 21,25.549 21,26 21.125,26 21.25,26 
			21.25,27 		"/>
		<g>
			<path fill="#3E4347" d="M22.295,28h-0.1v-0.435c0-0.107-0.088-0.195-0.195-0.195s-0.194,0.087-0.194,0.195V28h-0.1v-0.435
				c0-0.163,0.132-0.294,0.294-0.294c0.163,0,0.295,0.132,0.295,0.294V28z"/>
		</g>
		<g>
			<path fill="#3E4347" d="M21.967,26.917h-0.589v-0.485c0-0.163,0.132-0.294,0.294-0.294c0.163,0,0.295,0.132,0.295,0.294V26.917z
				 M21.478,26.818h0.39v-0.385c0-0.107-0.088-0.195-0.195-0.195s-0.194,0.087-0.194,0.195V26.818z"/>
		</g>
		<g>
			<path fill="#3E4347" d="M22.622,26.917h-0.589v-0.485c0-0.163,0.132-0.294,0.295-0.294c0.162,0,0.294,0.132,0.294,0.294V26.917z
				 M22.133,26.818h0.39v-0.385c0-0.107-0.087-0.195-0.194-0.195s-0.195,0.087-0.195,0.195V26.818z"/>
		</g>
	</g>
	<g>
		<polygon fill="#FFE62E" points="14.214,39.553 15.628,38.139 14.744,37.609 14.037,36.902 14.205,36.734 13.887,36.416 
			13.71,36.592 13.869,36.752 13.757,36.865 13.598,36.705 13.421,36.883 13.58,37.041 13.431,37.189 13.271,37.031 13.095,37.207 
			13.254,37.367 13.116,37.504 12.957,37.346 12.78,37.523 12.939,37.682 12.817,37.803 12.658,37.645 12.481,37.82 12.8,38.139 
			12.889,38.051 12.977,37.963 13.684,38.67 		"/>
		<g>
			<path fill="#3E4347" d="M15.13,38.639l-0.071,0.07L14.751,38.4c-0.075-0.076-0.199-0.076-0.275,0
				c-0.075,0.076-0.075,0.199,0,0.275l0.308,0.309l-0.07,0.07l-0.308-0.309c-0.115-0.115-0.115-0.301,0-0.416s0.302-0.115,0.417,0
				L15.13,38.639z"/>
		</g>
		<g>
			<path fill="#3E4347" d="M14.133,38.105l-0.417,0.416l-0.343-0.344c-0.115-0.113-0.115-0.301,0-0.416s0.302-0.115,0.416,0
				L14.133,38.105z M13.716,38.381l0.275-0.275l-0.272-0.273c-0.075-0.076-0.199-0.076-0.275,0s-0.076,0.199,0,0.275L13.716,38.381z
				"/>
		</g>
		<g>
			<path fill="#3E4347" d="M14.596,37.641l-0.416,0.418l-0.343-0.344c-0.115-0.115-0.115-0.301,0-0.416s0.302-0.115,0.416,0
				L14.596,37.641z M14.18,37.916l0.275-0.275l-0.272-0.271c-0.076-0.076-0.199-0.076-0.275,0s-0.076,0.199,0,0.275L14.18,37.916z"
				/>
		</g>
	</g>
	<g>
		<polygon fill="#FFE62E" points="19.771,39.553 18.356,38.139 19.24,37.609 19.947,36.902 19.779,36.734 20.098,36.416 
			20.274,36.592 20.115,36.752 20.229,36.865 20.388,36.705 20.564,36.883 20.405,37.041 20.554,37.189 20.713,37.031 20.89,37.207 
			20.73,37.367 20.869,37.504 21.028,37.346 21.205,37.523 21.046,37.682 21.167,37.803 21.326,37.645 21.503,37.82 21.185,38.139 
			21.097,38.051 21.008,37.963 20.301,38.67 		"/>
		<g>
			<path fill="#3E4347" d="M18.855,38.639l0.07,0.07l0.308-0.309c0.076-0.076,0.199-0.076,0.275,0s0.076,0.199,0,0.275l-0.308,0.309
				l0.07,0.07l0.308-0.309c0.115-0.115,0.115-0.301,0-0.416c-0.114-0.115-0.301-0.115-0.416,0L18.855,38.639z"/>
		</g>
		<g>
			<path fill="#3E4347" d="M20.195,37.762c0.115-0.115,0.302-0.115,0.416,0c0.115,0.115,0.115,0.303,0,0.416l-0.343,0.344
				l-0.416-0.416L20.195,37.762z M20.541,38.107c0.076-0.076,0.076-0.199,0-0.275c-0.075-0.076-0.199-0.076-0.275,0l-0.272,0.273
				l0.275,0.275L20.541,38.107z"/>
		</g>
		<g>
			<path fill="#3E4347" d="M19.731,37.299c0.115-0.115,0.302-0.115,0.417,0c0.114,0.115,0.114,0.301,0,0.416l-0.343,0.344
				l-0.417-0.418L19.731,37.299z M20.077,37.645c0.076-0.076,0.076-0.199,0-0.275c-0.075-0.076-0.199-0.076-0.275,0l-0.272,0.271
				l0.276,0.275L20.077,37.645z"/>
		</g>
	</g>
</g>
</svg>
