<?xml version="1.0" encoding="utf-8"?>
<!-- Generator: Adobe Illustrator 15.0.0, SVG Export Plug-In . SVG Version: 6.00 Build 0)  -->
<!DOCTYPE svg PUBLIC "-//W3C//DTD SVG 1.1//EN" "http://www.w3.org/Graphics/SVG/1.1/DTD/svg11.dtd">
<svg version="1.1" id="Layer_1" xmlns="http://www.w3.org/2000/svg" xmlns:xlink="http://www.w3.org/1999/xlink" x="0px" y="0px"
	 width="64px" height="64px" viewBox="0 0 64 64" enable-background="new 0 0 64 64" xml:space="preserve">
<g>
	<path fill="#2A5F9E" d="M16.996,6.011C6.343,12.161,0.899,23.857,2.186,35.349L49.808,7.854C40.499,0.994,27.649-0.14,16.996,6.011
		z M25.546,17.438l-3.183-0.912l0.908,3.184l-2.3-2.379l-0.805,3.211l-0.804-3.211l-2.303,2.379l0.909-3.184l-3.182,0.91
		l2.378-2.303l-3.212-0.801l3.212-0.807l-2.379-2.303l3.183,0.91l-0.909-3.182l2.302,2.379l0.804-3.213l0.805,3.213l2.303-2.379
		l-0.91,3.184l3.182-0.91l-2.378,2.301l3.212,0.803l-3.212,0.805L25.546,17.438z"/>
	<path fill="#83BF4F" d="M14.187,56.136c9.309,6.86,22.16,7.994,32.813,1.844c10.652-6.15,16.098-17.849,14.81-29.339L14.187,56.136
		z"/>
	<path fill="#ED4C5C" d="M57.981,16.993c-1.386-2.403-3.065-4.526-4.951-6.38L2.965,39.519c0.663,2.56,1.661,5.077,3.049,7.479
		c1.387,2.402,3.065,4.525,4.951,6.379L61.03,24.472C60.368,21.911,59.369,19.396,57.981,16.993z"/>
	<g>
		<path fill="#FFFFFF" d="M61.498,26.511c-0.127-0.683-0.292-1.361-0.468-2.039L10.965,53.376c0.499,0.491,1.005,0.975,1.533,1.426
			c0.548,0.468,1.112,0.91,1.688,1.334L61.81,28.641C61.729,27.93,61.63,27.219,61.498,26.511z"/>
		<path fill="#FFFFFF" d="M51.498,9.188c-0.548-0.469-1.114-0.91-1.69-1.335L2.186,35.349c0.08,0.711,0.18,1.422,0.312,2.131
			c0.127,0.683,0.292,1.361,0.468,2.039L53.03,10.613C52.531,10.122,52.026,9.64,51.498,9.188z"/>
	</g>
	<polygon fill="#FFCE31" points="23.167,13.526 25.545,11.226 22.363,12.136 23.273,8.952 20.971,11.331 20.166,8.118 
		19.362,11.331 17.061,8.952 17.97,12.134 14.787,11.224 17.166,13.526 13.954,14.333 17.166,15.134 14.788,17.437 17.97,16.526 
		17.061,19.71 19.363,17.331 20.167,20.542 20.972,17.331 23.271,19.71 22.363,16.526 25.546,17.438 23.167,15.134 26.379,14.329 	
		"/>
</g>
</svg>
