<?xml version="1.0" encoding="utf-8"?>
<!-- Generator: Adobe Illustrator 15.0.0, SVG Export Plug-In . SVG Version: 6.00 Build 0)  -->
<!DOCTYPE svg PUBLIC "-//W3C//DTD SVG 1.1//EN" "http://www.w3.org/Graphics/SVG/1.1/DTD/svg11.dtd">
<svg version="1.1" id="Layer_1" xmlns="http://www.w3.org/2000/svg" xmlns:xlink="http://www.w3.org/1999/xlink" x="0px" y="0px"
	 width="64px" height="64px" viewBox="0 0 64 64" enable-background="new 0 0 64 64" xml:space="preserve">
<g>
	<g>
		<path fill="#ED4C5C" d="M47.971,6.61C43.346,3.694,37.871,2,32,2v4.61H47.971z"/>
		<path fill="#FFFFFF" d="M32,11.22h21.625c-1.688-1.755-3.584-3.305-5.654-4.61H32V11.22z"/>
		<path fill="#ED4C5C" d="M32,15.83h25.262c-1.061-1.655-2.279-3.198-3.637-4.61H32V15.83z"/>
		<path fill="#FFFFFF" d="M32,20.439h27.688c-0.674-1.614-1.49-3.153-2.426-4.61H32V20.439z"/>
		<path fill="#ED4C5C" d="M32,25.049h29.182c-0.377-1.588-0.875-3.13-1.494-4.61H32V25.049z"/>
		<path fill="#FFFFFF" d="M32,29.659h29.9c-0.121-1.573-0.363-3.113-0.719-4.61H32V29.659z"/>
		<path fill="#ED4C5C" d="M61.9,29.659H32V32H2c0,0.764,0.037,1.52,0.094,2.27h59.812C61.961,33.52,62,32.764,62,32
			C62,31.211,61.959,30.433,61.9,29.659z"/>
		<path fill="#FFFFFF" d="M2.801,38.879h58.396c0.352-1.496,0.59-3.036,0.709-4.609H2.094C2.211,35.843,2.45,37.383,2.801,38.879z"
			/>
		<path fill="#ED4C5C" d="M4.284,43.488h55.433c0.613-1.479,1.107-3.021,1.48-4.609H2.801C3.174,40.467,3.668,42.009,4.284,43.488z"
			/>
		<path fill="#FFFFFF" d="M6.692,48.099h50.617c0.928-1.457,1.738-2.997,2.408-4.61H4.284C4.954,45.102,5.762,46.642,6.692,48.099z"
			/>
		<path fill="#ED4C5C" d="M10.305,52.709h43.388c1.35-1.413,2.561-2.956,3.615-4.61H6.692C7.747,49.753,8.958,51.296,10.305,52.709z
			"/>
		<path fill="#FFFFFF" d="M15.917,57.318h32.167c2.053-1.308,3.936-2.857,5.609-4.609H10.305
			C11.979,54.461,13.862,56.011,15.917,57.318z"/>
		<path fill="#ED4C5C" d="M32,62c5.92,0,11.434-1.722,16.084-4.682H15.917C20.564,60.278,26.08,62,32,62z"/>
		<path fill="#428BC1" d="M16.028,6.61c-2.068,1.305-3.967,2.854-5.654,4.61c-1.355,1.412-2.574,2.955-3.637,4.61
			c-0.934,1.457-1.75,2.996-2.426,4.61c-0.617,1.479-1.115,3.021-1.492,4.61c-0.355,1.497-0.598,3.037-0.719,4.61
			C2.04,30.433,2,31.211,2,32h30v-2.341v-4.61v-4.61v-4.61v-4.61V6.61V2C26.127,2,20.654,3.694,16.028,6.61z"/>
	</g>
	<g>
		<g>
			<g>
				<g>
					<polygon fill="#FFFFFF" points="25,3 25.473,4.482 27,4.482 25.764,5.462 26.236,6.976 25,6.077 23.764,7 24.236,5.458 
						23,4.482 24.527,4.482 					"/>
				</g>
				<g>
					<polygon fill="#FFFFFF" points="29,9 29.473,10.482 31,10.482 29.764,11.462 30.236,12.976 29,12.077 27.764,13 28.236,11.458 
						27,10.482 28.527,10.482 					"/>
					<polygon fill="#FFFFFF" points="21,9 21.473,10.482 23,10.482 21.764,11.462 22.236,12.976 21,12.077 19.764,13 20.236,11.458 
						19,10.482 20.527,10.482 					"/>
				</g>
				<g>
					<polygon fill="#FFFFFF" points="25,15 25.473,16.482 27,16.482 25.764,17.462 26.236,18.976 25,18.077 23.764,19 
						24.236,17.458 23,16.482 24.527,16.482 					"/>
					<polygon fill="#FFFFFF" points="17,15 17.473,16.482 19,16.482 17.764,17.462 18.237,18.976 17,18.077 15.764,19 
						16.237,17.458 15,16.482 16.528,16.482 					"/>
					<polygon fill="#FFFFFF" points="9,15 9.473,16.482 11,16.482 9.764,17.462 10.237,18.976 9,18.077 7.764,19 8.237,17.458 
						7,16.482 8.528,16.482 					"/>
				</g>
				<g>
					<polygon fill="#FFFFFF" points="29,21 29.473,22.482 31,22.482 29.764,23.462 30.236,24.976 29,24.077 27.764,25 
						28.236,23.458 27,22.482 28.527,22.482 					"/>
					<polygon fill="#FFFFFF" points="21,21 21.473,22.482 23,22.482 21.764,23.462 22.236,24.976 21,24.077 19.764,25 
						20.236,23.458 19,22.482 20.527,22.482 					"/>
					<polygon fill="#FFFFFF" points="13,21 13.473,22.482 15,22.482 13.764,23.462 14.237,24.976 13,24.077 11.764,25 
						12.237,23.458 11,22.482 12.528,22.482 					"/>
				</g>
				<g>
					<polygon fill="#FFFFFF" points="25,27 25.473,28.482 27,28.482 25.764,29.462 26.236,30.977 25,30.076 23.764,31 
						24.236,29.459 23,28.482 24.527,28.482 					"/>
					<polygon fill="#FFFFFF" points="17,27 17.473,28.482 19,28.482 17.764,29.462 18.237,30.977 17,30.076 15.764,31 
						16.237,29.459 15,28.482 16.528,28.482 					"/>
					<polygon fill="#FFFFFF" points="9,27 9.473,28.482 11,28.482 9.764,29.462 10.237,30.977 9,30.076 7.764,31 8.237,29.459 
						7,28.482 8.528,28.482 					"/>
				</g>
				<g>
					<path fill="#FFFFFF" d="M11.764,13L13,12.077l1.236,0.899l-0.473-1.514L15,10.482h-1.527L13,9l-0.473,1.482h-1.422
						c-0.016,0.016-0.031,0.03-0.047,0.046l1.178,0.931L11.764,13z"/>
					<path fill="#FFFFFF" d="M3.764,25L5,24.077l1.236,0.899l-0.473-1.514L7,22.482H5.473L5,21l-0.473,1.482H3.551
						c-0.039,0.115-0.08,0.228-0.117,0.343l0.803,0.633L3.764,25z"/>
				</g>
			</g>
		</g>
	</g>
</g>
</svg>
