<?xml version="1.0" encoding="utf-8"?>
<!-- Generator: Adobe Illustrator 15.0.0, SVG Export Plug-In . SVG Version: 6.00 Build 0)  -->
<!DOCTYPE svg PUBLIC "-//W3C//DTD SVG 1.1//EN" "http://www.w3.org/Graphics/SVG/1.1/DTD/svg11.dtd">
<svg version="1.1" id="Layer_1" xmlns="http://www.w3.org/2000/svg" xmlns:xlink="http://www.w3.org/1999/xlink" x="0px" y="0px"
	 width="64px" height="64px" viewBox="0 0 64 64" enable-background="new 0 0 64 64" xml:space="preserve">
<g>
	<g>
		<path fill="#2A5F9E" d="M39.77,3.03C23.766-1.258,7.315,8.239,3.027,24.243c-1.316,4.913-1.329,9.867-0.258,14.5L46.416,5.696
			C44.357,4.57,42.137,3.664,39.77,3.03z"/>
		<path fill="#2A5F9E" d="M11.611,54.01c3.466,3.219,7.742,5.666,12.629,6.975c16.004,4.289,32.453-5.209,36.742-21.213
			c0.617-2.303,0.939-4.613,1.008-6.898L11.611,54.01z"/>
		<path fill="#FF8736" d="M58.027,17.083c-2.705-4.715-6.685-8.693-11.611-11.388L2.769,38.742c0.677,2.924,1.783,5.723,3.275,8.299
			L58.027,17.083z"/>
		<path fill="#FFFFFF" d="M58.027,17.083L6.044,47.041c1.491,2.574,3.367,4.926,5.567,6.969L61.99,32.874
			C62.156,27.251,60.732,21.801,58.027,17.083z"/>
	</g>
	<polygon fill="#FFFFFF" points="19.64,18.139 26.311,17.738 19.64,17.337 23.314,15.938 19.432,16.562 22.619,14.261 
		19.031,15.869 21.514,12.82 18.464,15.302 20.073,11.714 17.77,14.9 18.395,11.02 16.995,14.693 16.595,8.023 16.194,14.693 
		14.794,11.02 15.419,14.9 13.117,11.714 14.726,15.302 11.676,12.82 14.159,15.869 10.57,14.261 13.757,16.562 9.875,15.938 
		13.549,17.337 6.879,17.738 13.549,18.139 9.875,19.538 13.757,18.914 10.57,21.216 14.159,19.608 11.676,22.657 14.726,20.175 
		13.117,23.762 15.419,20.576 14.794,24.457 16.194,20.783 16.595,27.454 16.995,20.783 18.395,24.457 17.77,20.576 20.073,23.762 
		18.464,20.175 21.514,22.657 19.031,19.608 22.619,21.216 19.432,18.914 23.314,19.538 	"/>
</g>
</svg>
