<?xml version="1.0" encoding="utf-8"?>
<!-- Generator: Adobe Illustrator 15.0.0, SVG Export Plug-In . SVG Version: 6.00 Build 0)  -->
<!DOCTYPE svg PUBLIC "-//W3C//DTD SVG 1.1//EN" "http://www.w3.org/Graphics/SVG/1.1/DTD/svg11.dtd">
<svg version="1.1" id="Layer_1" xmlns="http://www.w3.org/2000/svg" xmlns:xlink="http://www.w3.org/1999/xlink" x="0px" y="0px"
	 width="64px" height="64px" viewBox="0 0 64 64" enable-background="new 0 0 64 64" xml:space="preserve">
<g>
	<g>
		<path fill="#83BF4F" d="M2,32c0,6.131,1.843,11.83,5,16.58V15.42C3.842,20.17,2,25.869,2,32z"/>
		<path fill="#83BF4F" d="M32,2c-5.467,0-10.586,1.469-15,4.023v51.953C21.414,60.531,26.533,62,32,62c16.568,0,30-13.432,30-30
			S48.568,2,32,2z"/>
		<path fill="#ED4C5C" d="M7,15.42v33.16c2.56,3.852,5.986,7.073,10,9.396V6.023C12.986,8.347,9.559,11.568,7,15.42z"/>
	</g>
	<g>
		<path fill="#FFFFFF" d="M37.178,8.846c2.484,2.117,4.001,5.315,3.848,8.827c-0.264,6.049-5.383,10.74-11.433,10.476
			c-1.362-0.059-2.657-0.366-3.841-0.874c1.914,1.631,4.395,2.615,7.105,2.615c6.055,0,10.965-4.91,10.965-10.965
			C43.822,14.405,41.085,10.523,37.178,8.846z"/>
		<polygon fill="#FFFFFF" points="26.721,16.905 27.194,15.445 28.73,15.445 27.488,14.543 27.962,13.082 26.72,13.985 
			25.478,13.082 25.952,14.543 24.71,15.445 26.246,15.445 		"/>
		<polygon fill="#FFFFFF" points="26.246,9.806 26.721,11.266 27.194,9.806 28.73,9.806 27.488,8.902 27.962,7.442 26.72,8.345 
			25.478,7.442 25.952,8.902 24.71,9.806 		"/>
		<polygon fill="#FFFFFF" points="31.817,12.695 32.292,14.156 32.766,12.695 34.303,12.695 33.06,11.793 33.533,10.332 
			32.291,11.235 31.049,10.332 31.523,11.793 30.281,12.695 		"/>
		<polygon fill="#FFFFFF" points="21.916,17.292 22.391,15.832 21.148,16.734 19.906,15.832 20.381,17.292 19.139,18.195 
			20.674,18.195 21.148,19.655 21.623,18.195 23.158,18.195 		"/>
		<polygon fill="#FFFFFF" points="26.721,22.546 27.194,21.085 28.73,21.085 27.488,20.183 27.962,18.723 26.72,19.625 
			25.478,18.723 25.952,20.183 24.71,21.085 26.246,21.085 		"/>
	</g>
	<g>
		<polygon fill="#FFE62E" points="7,15.42 7,21.379 9.979,18.399 		"/>
		<polygon fill="#FFE62E" points="17,21.379 17,15.42 14.02,18.399 		"/>
	</g>
	<g>
		<polygon fill="#FFE62E" points="7,29.89 7,35.849 9.979,32.869 		"/>
		<polygon fill="#FFE62E" points="17,35.849 17,29.89 14.02,32.869 		"/>
	</g>
	<g>
		<polygon fill="#FFE62E" points="7,42.621 7,48.58 9.979,45.601 		"/>
		<polygon fill="#FFE62E" points="17,48.58 17,42.621 14.02,45.601 		"/>
	</g>
	<polygon fill="#83BF4F" points="9.75,42.551 7.5,39.205 9.75,35.858 14.25,35.858 16.5,39.205 14.25,42.551 	"/>
	<polygon fill="#FFE62E" points="9.75,28.847 7.5,25.501 9.75,22.154 14.25,22.154 16.5,25.501 14.25,28.847 	"/>
	<polygon fill="#ED4C5C" points="10.367,27.929 8.734,25.501 10.367,23.072 13.632,23.072 15.265,25.501 13.632,27.929 	"/>
	<polygon fill="#FFFFFF" points="11.346,26.473 10.692,25.501 11.346,24.528 12.653,24.528 13.307,25.501 12.653,26.473 	"/>
	<g>
		<polygon fill="#83BF4F" points="9.25,14.612 8.489,13.481 14.02,8.322 16,11.267 13.75,14.612 		"/>
		<polygon fill="#ED4C5C" points="9.867,13.694 9.127,12.595 13.132,8.838 14.765,11.267 13.132,13.694 		"/>
	</g>
	<g>
		<polygon fill="#FFE62E" points="9.034,48.994 8.259,50.114 13.722,55.345 15.74,52.427 13.534,49.052 		"/>
		<polygon fill="#ED4C5C" points="9.639,49.92 8.886,51.01 12.841,54.818 14.505,52.411 12.904,49.962 		"/>
	</g>
	<polygon fill="#ED4C5C" points="10.367,41.633 8.734,39.205 10.367,36.776 13.632,36.776 15.265,39.205 13.632,41.633 	"/>
	<polygon fill="#FFE62E" points="11.292,40.177 10.639,39.205 11.292,38.232 12.6,38.232 13.254,39.205 12.6,40.177 	"/>
	<polygon fill="#FFE62E" points="10.883,11.913 10.485,11.321 12.049,9.854 12.844,10.941 12.19,11.913 	"/>
	<polygon fill="#FFFFFF" points="10.439,51.709 10.042,52.301 11.606,53.769 12.401,52.681 11.747,51.709 	"/>
</g>
</svg>
