<?xml version="1.0" encoding="utf-8"?>
<!-- Generator: Adobe Illustrator 15.0.0, SVG Export Plug-In . SVG Version: 6.00 Build 0)  -->
<!DOCTYPE svg PUBLIC "-//W3C//DTD SVG 1.1//EN" "http://www.w3.org/Graphics/SVG/1.1/DTD/svg11.dtd">
<svg version="1.1" id="Layer_1" xmlns="http://www.w3.org/2000/svg" xmlns:xlink="http://www.w3.org/1999/xlink" x="0px" y="0px"
	 width="64px" height="64px" viewBox="0 0 64 64" enable-background="new 0 0 64 64" xml:space="preserve">
<g>
	<circle fill="#F5F5F5" cx="32" cy="32" r="30"/>
	<g>
		<g>
			<g>
				<path fill="#FFCE31" d="M28.708,24.583c-0.232,0.462-0.574,0.705-0.574,0.705s7.89,0.716,7.607-0.005
					c-0.283-0.719-0.939-1.224-0.939-1.224s0.639-0.072,0.797-0.278c-1.016-0.49-1.594-1.517-1.594-1.517
					c0.287,0.087,0.733-0.009,0.733-0.009c-1.116-1.565-0.597-1.953-1.007-2.991c-0.41-1.036-1.113-1.243-1.285-1.339
					c-0.174-0.096-1.336-0.191-1.773,0.028c-0.438,0.221-0.465,0.543-0.516,0.543c-0.05,0-0.404-0.058-0.542,0.312
					c-0.02,0.055-0.033,0.102-0.04,0.146c-0.175,0.002-0.371,0.016-0.589,0.042c-1.071,0.129-0.921,1.468-0.921,1.468
					c0.084-0.061,0.285-0.475,0.661-0.414c0.374,0.059,0.513-0.035,0.749-0.029c0.748,0.018,0.819,0.676,0.818,0.936
					c-0.039,0.019-0.084,0.062-0.15,0.155c-0.26,0.376-0.301,0.635-0.301,0.635c-0.246,1.167-0.93,1.252-0.93,1.252
					c0.35,0.191,0.52,0.135,0.554,0.118c-0.355,0.18-0.854,0.818-0.854,0.818c-0.342,0.519-0.602,0.432-0.602,0.432
					C28.36,24.713,28.708,24.583,28.708,24.583z"/>
				<path fill="#FFCE31" d="M57.058,16.998c-0.419-0.771-1.705,0.134-3.228,0.555c0,0-3.558,1.121-5.689,1.557
					c-0.22,0.021-0.436,0.08-0.436,0.08c-0.008,0.003-0.016,0.006-0.022,0.006l0,0h-0.001c-5.797,1.477-7.378,2.416-7.378,2.416
					c-1.095,0.662-0.828,2.261-0.11,2.794c0.294,0.217,0.274,0.594,0.061,0.799c-0.255,0.243-0.579,0.021-0.579,0.021
					c-0.965-0.478-1.505-0.071-1.505-0.071s-0.889,4.313,0.241,4.92l-0.2,1.401c0,0,0.849,0.691,1.56,0c0,0,0.287,0.346,0.86,0.244
					c0.575-0.101,0.671-0.402,0.726-0.574c0,0,0.496,0.289,0.916,0.06c0.419-0.229,0.419-0.575,0.419-0.575s0.729,0.145,1.103-0.35
					c0.374-0.494,0.146-0.984-0.055-1.042c0,0,0.789,0.206,1.003-0.47c0.183-0.576-0.228-0.874-0.228-0.874s1.661-0.009,2.343-0.528
					c0,0,0.564-0.355,0.228-0.729c0,0,1.495-0.24,1.869-0.835c0,0,0.164-0.164,0.109-0.451c0,0-0.01-0.165-0.174-0.174
					c0,0,1.705-0.263,2.197-0.825c0,0,0.237-0.26,0.118-0.604c0,0-0.024-0.093-0.065-0.152c0,0,1.552-0.328,2.317-1.02
					c0,0,0.442-0.394,0.214-0.922c0,0,2.594-0.709,1.992-1.853c0,0,1.213-0.394,0.829-1.488
					C56.492,18.313,57.495,17.804,57.058,16.998z"/>
				<path fill="#FFCE31" d="M19.257,28.768c0.215,0.676,1.004,0.47,1.004,0.47c-0.201,0.058-0.429,0.548-0.055,1.042
					c0.373,0.494,1.103,0.35,1.103,0.35s0,0.347,0.419,0.575c0.42,0.229,0.916-0.06,0.916-0.06c0.055,0.172,0.15,0.474,0.726,0.574
					c0.573,0.102,0.861-0.244,0.861-0.244c0.711,0.691,1.559,0,1.559,0l-0.2-1.401c1.13-0.607,0.241-4.92,0.241-4.92
					s-0.54-0.406-1.504,0.071c0,0-0.325,0.223-0.58-0.021c-0.214-0.205-0.233-0.582,0.061-0.799c0.718-0.533,0.984-2.132-0.11-2.794
					c0,0-1.581-0.939-7.378-2.416l0,0l0,0c-0.008,0-0.016-0.003-0.023-0.006c0,0-0.216-0.06-0.436-0.08
					c-2.132-0.436-5.689-1.557-5.689-1.557c-1.522-0.421-2.809-1.326-3.228-0.555c-0.438,0.806,0.565,1.314,0.565,1.314
					c-0.382,1.095,0.83,1.488,0.83,1.488c-0.602,1.144,1.992,1.853,1.992,1.853c-0.229,0.528,0.214,0.922,0.214,0.922
					c0.766,0.691,2.317,1.02,2.317,1.02c-0.041,0.06-0.066,0.152-0.066,0.152c-0.119,0.345,0.118,0.604,0.118,0.604
					c0.492,0.563,2.197,0.825,2.197,0.825c-0.165,0.009-0.173,0.174-0.173,0.174c-0.054,0.287,0.11,0.451,0.11,0.451
					c0.374,0.595,1.869,0.835,1.869,0.835c-0.338,0.373,0.228,0.729,0.228,0.729c0.682,0.52,2.343,0.528,2.343,0.528
					S19.075,28.191,19.257,28.768z"/>
				<path fill="#FFCE31" d="M26.146,37.407c0,0,0.154-0.586,1.111-1.104c0,0,1.086-0.409,1.059-0.943
					c-0.028-0.535-2.414-3.402-2.414-3.402s-0.176,0.938-1.56,2.117c0,0-1.067,0.942-1.041,2.026c0.028,1.104-0.19,1.229-0.61,1.604
					c0,0,0.105,0.007,0.26-0.007c-0.256,0.352-0.773,0.942-1.363,0.956c0,0-1.441-0.176-1.85,0.202
					c-0.285,0.263-0.574,0.479-0.693,1.152c-0.118,0.672,0.229,0.815,0.31,0.844c0,0,0.064,0.48,0.538,0.355
					c0,0,0.027,0.499,0.867,0.26c0.838-0.24,1.184-0.164,1.348-0.998c0.164-0.836,0.316-0.822,0.466-0.922
					c0.2-0.135,0.577-0.263,0.856-0.423c0.223-0.128,1.003-0.526,1.406-0.643c0.012,0.091,0.031,0.186,0.062,0.278
					c0,0,0.063-0.241,0.401-0.347C25.298,38.415,25.908,38.29,26.146,37.407z"/>
				<path fill="#FFCE31" d="M44.265,38.857c-0.408-0.378-1.851-0.202-1.851-0.202c-0.589-0.014-1.106-0.604-1.362-0.956
					c0.154,0.014,0.26,0.007,0.26,0.007c-0.42-0.375-0.639-0.5-0.611-1.604c0.027-1.084-1.041-2.026-1.041-2.026
					c-1.383-1.18-1.559-2.117-1.559-2.117s-2.387,2.867-2.414,3.402c-0.027,0.534,1.058,0.943,1.058,0.943
					c0.957,0.518,1.112,1.104,1.112,1.104c0.237,0.882,0.848,1.007,0.848,1.007c0.337,0.105,0.4,0.347,0.4,0.347
					c0.031-0.093,0.051-0.188,0.063-0.278c0.402,0.116,1.184,0.515,1.406,0.643c0.279,0.16,0.656,0.288,0.856,0.423
					c0.149,0.1,0.301,0.086,0.465,0.922c0.164,0.834,0.511,0.758,1.349,0.998c0.84,0.239,0.866-0.26,0.866-0.26
					c0.475,0.125,0.538-0.355,0.538-0.355c0.082-0.028,0.428-0.172,0.311-0.844C44.839,39.337,44.549,39.12,44.265,38.857z"/>
				<path fill="#FFCE31" d="M36.093,36.842c0.014-0.211-0.11-0.526-0.521-0.992c-1-1.133-2.594,1.259-3.048,2
					c-0.142-0.178-0.323-0.284-0.522-0.284c-0.2,0-0.383,0.106-0.523,0.284c-0.453-0.741-2.047-3.133-3.047-2
					c-0.412,0.466-0.535,0.781-0.522,0.992c-3.934,3.617-2.021,3.935-2.021,3.935l0,0l0,0l0,0c0,0.932,0.829,0.712,0.829,0.712
					c-0.091,0.988,0.675,0.854,0.675,0.854c-0.009,1.114,0.811,0.922,0.811,0.922c0.146,1.19,1.049,0.71,1.049,0.71l0,0l0,0l0,0
					c-0.045,1.019,0.565,1.075,0.565,1.075c0.713,0.074,1.007-0.661,1.087-0.921c0.005,0.174,0.013,0.341,0.025,0.501
					c0.062,0.797,0.489,1.447,1.072,1.447c0.584,0,1.01-0.65,1.072-1.447c0.014-0.16,0.02-0.327,0.025-0.501
					c0.08,0.26,0.373,0.995,1.087,0.921c0,0,0.61-0.057,0.565-1.075c0,0,0.902,0.48,1.048-0.71l0,0l0,0c0,0,0.82,0.192,0.812-0.922
					l0,0l0,0c0,0,0.766,0.135,0.674-0.854c0,0,0.83,0.22,0.83-0.712l0,0l0,0l0,0C38.114,40.776,40.028,40.46,36.093,36.842z"/>
			</g>
			<g>
				<polygon fill="#0081C6" points="47.288,33.862 48.088,34.291 44.134,38.922 44.563,39.403 48.533,34.713 49.028,35.513 
					50.909,31.47 				"/>
				<polygon fill="#428BC1" points="47.571,32.225 48.226,32.885 49.194,28.502 46.177,31.691 47.048,31.919 44.251,37.25 
					45.118,33.508 45.912,33.968 45.771,29.469 43.64,33.371 44.538,33.355 43.25,38.825 43.796,39.217 43.854,38.962 
					44.019,39.056 				"/>
				<path fill="#428BC1" d="M43.384,42.301l-0.373-0.638l0.128-0.522c-0.002-0.002-0.004-0.002-0.005-0.006l0.338-0.428
					c0.008-0.11-0.033-0.204-0.09-0.282v-0.002c-0.076-0.124-0.185-0.195-0.285-0.238l0,0l0,0c-0.143-0.06-0.269-0.059-0.269-0.059
					l-0.507,0.981l-0.986-0.003l-0.416,0.79l-0.265-0.066l-2.848,3.334l1.48,0.111l0.261,1.539l1.003-1.176l-0.253,1.07l1.357-0.634
					l0.916,1.229l1.029-4.349l-0.368-0.367L43.384,42.301z"/>
			</g>
			<g>
				<path id="path5" fill="#83BF4F" d="M20.917,39.061c0,0-0.047-0.324,0.568-0.563s0.663-1.122,0.539-1.713
					c0,0-0.32,0.562-0.711,0.749c0,0-0.635,0.33-0.664,0.964c0,0-0.006,0.23-0.053,0.41c-0.027,0.099-0.309-0.79,0.225-1.454
					c0.551-0.684,0.705-1.237,0.268-2.318c0,0-0.041,0.655-0.473,1.028c-0.431,0.376-0.485,0.404-0.478,1.298
					c0,0,0.007,0.31-0.157,0.41c0,0-0.336-0.489-0.424-0.814c-0.09-0.323-0.131-0.46,0.252-0.835c0,0,1.227-0.792,0.342-2.527
					c0,0-0.026,0.598-0.451,0.951c-0.424,0.353-0.389,0.59-0.41,1.202c-0.02,0.612-0.061,0.568-0.108,0.655
					c0,0-0.78-1.434-0.179-2.195c0.602-0.764,0.938-0.923,0.273-2.341c0,0,0.029,0.728-0.501,1.087
					c-0.53,0.36-0.408,1.203-0.408,1.203s0.034,0.316-0.075,0.547c0,0-0.75-1.465-0.034-2.254c0.608-0.669,0.65-1.138,0.321-2.088
					c0,0-0.041,0.439-0.375,0.678c-0.334,0.236-0.602,0.474-0.541,1.389c0,0,0.028,0.641-0.054,0.821c0,0-0.314-0.583-0.403-0.965
					s-0.124-0.604,0.109-0.986s1.156-1.477,0.055-3.054c0,0-0.034,0.511-0.314,0.972s-0.15,1.01-0.089,1.426
					c0.062,0.418-0.144,0.821-0.144,0.821s-0.479-0.878-0.376-1.885c0.103-1.01-0.308-1.837-1.237-2.434
					c0,0-0.677,1.568,0.246,2.367c0,0,0.786,0.778,0.985,1.721c0,0-0.595-0.057-1.136-1.107c-0.54-1.052-1.661-0.887-1.736-0.894
					c0,0,0.185,1.626,1.908,2.089c0,0,1.101,0.187,1.306,0.993c0,0,0.184,0.554,0.26,0.849c0,0-0.349-0.137-0.67-0.611
					c-0.322-0.476-0.281-0.533-1.368-0.643c0,0-0.438-0.049-0.669-0.359c0,0,0.457,1.723,1.633,1.708c0,0,1.074-0.116,1.675,1.296
					c0,0-0.116-0.073-0.274-0.182c-0.158-0.107-0.554-0.309-1.339-0.215c-0.786,0.094-1.006-0.036-1.204-0.102
					c0,0,0.793,1.455,1.914,1.022c1.122-0.432,1.663,1.145,1.676,1.174c0,0-0.151-0.115-0.349-0.309
					c-0.198-0.195-0.61-0.435-1.388-0.188c0,0-0.561,0.216-1.128,0.043c0,0,0.546,1.058,1.825,0.879c1.278-0.18,1.6,0.944,1.6,0.944
					s-0.171-0.102-0.287-0.194c-0.116-0.095-0.547-0.34-1.469-0.065c-0.923,0.273-1.258-0.044-1.258-0.044s0.513,0.936,1.497,1.044
					c0,0,0.547-0.007,0.779-0.093c0.233-0.087,0.848-0.224,1.271,0.389c0,0-0.115,0.021-0.293-0.059c0,0-0.657-0.237-1.156,0.18
					c0,0-0.444,0.454-1.073,0.368c0,0,0.813,0.792,2.105,0.122c0,0,0.438-0.317,0.759-0.071
					C20.173,39.542,20.917,39.061,20.917,39.061z"/>
				<path id="path193" fill="#83BF4F" d="M20.775,41.048c0,0-0.021-0.583,0.718-0.626l2.175,3.023c0,0-0.082,0.194-1.067,0.173
					c0,0-0.104-0.001-0.158,0.115C22.358,43.909,20.775,41.048,20.775,41.048z"/>
			</g>
		</g>
		<g>
			<path id="path123" fill="#FFFFFF" d="M31.93,38.378c0,0,6.583-2.918,6.601-9.666H25.329C25.347,35.46,31.93,38.378,31.93,38.378z
				"/>
			<path id="path131" fill="#ED4C5C" d="M26.346,28.712v4.313c0,0,0.505,0.999,1.015,1.627v-5.939H26.346L26.346,28.712z"/>
			<path id="path133" fill="#ED4C5C" d="M28.376,28.712v7.108c0,0,0.635,0.622,1.016,0.922v-8.03H28.376z"/>
			<path id="path135" fill="#ED4C5C" d="M30.407,28.712v8.786c0,0,0.724,0.469,1.016,0.621v-9.407H30.407z"/>
			<path id="path143" fill="#ED4C5C" d="M37.515,28.712v4.313c0,0-0.504,0.999-1.016,1.627v-5.939H37.515z"/>
			<path id="path145" fill="#ED4C5C" d="M35.483,28.712v7.108c0,0-0.635,0.622-1.016,0.922v-8.03H35.483z"/>
			<path id="path147" fill="#ED4C5C" d="M33.452,28.712v8.786c0,0-0.724,0.469-1.014,0.621v-9.407H33.452z"/>
			<path id="path215" fill="#428BC1" d="M38.53,23.809c0,0-3.23,1.688-6.601-0.14c-3.37,1.828-6.601,0.14-6.601,0.14v4.903H38.53
				V23.809L38.53,23.809z"/>
		</g>
		<g>
			<path id="path217" fill="#428BC1" d="M8.432,36.389c0.319-0.131,0.55-0.257,0.549-0.599c0-0.081-0.045-0.261-0.137-0.54
				l-2.147-6.564c-0.127-0.39-0.224-0.622-0.269-0.707c-0.096-0.186-0.286-0.26-0.541-0.367h0.265h2.2h0.266
				c-0.297,0.141-0.567,0.251-0.564,0.566c0.001,0.119,0.034,0.289,0.104,0.508l1.646,5.151l1.644-5.151
				c0.069-0.219,0.105-0.389,0.104-0.508c-0.003-0.323-0.285-0.439-0.562-0.566h0.262h2.121h0.263
				c-0.241,0.098-0.438,0.174-0.54,0.367c-0.044,0.085-0.141,0.317-0.268,0.707l-2.148,6.564c-0.091,0.279-0.123,0.462-0.137,0.547
				c0,0-0.099,0.415,0.55,0.592H8.432L8.432,36.389z"/>
			<path id="path219" fill="#428BC1" d="M54.207,35.713V28.28c0-0.129-0.021-0.228-0.063-0.296c-0.043-0.068-0.228-0.266-0.49-0.373
				h0.263h1.934h0.264c-0.264,0.088-0.448,0.3-0.49,0.37s-0.064,0.17-0.064,0.299v7.433c0,0.134,0.022,0.234,0.066,0.306
				c0.044,0.07,0.225,0.243,0.488,0.37H55.85h-1.934h-0.263c0.263-0.12,0.447-0.305,0.49-0.373
				C54.186,35.947,54.207,35.847,54.207,35.713z"/>
		</g>
	</g>
</g>
</svg>
