<?xml version="1.0" encoding="utf-8"?>
<!-- Generator: Adobe Illustrator 15.0.0, SVG Export Plug-In . SVG Version: 6.00 Build 0)  -->
<!DOCTYPE svg PUBLIC "-//W3C//DTD SVG 1.1//EN" "http://www.w3.org/Graphics/SVG/1.1/DTD/svg11.dtd">
<svg version="1.1" id="Layer_1" xmlns="http://www.w3.org/2000/svg" xmlns:xlink="http://www.w3.org/1999/xlink" x="0px" y="0px"
	 width="64px" height="64px" viewBox="0 0 64 64" enable-background="new 0 0 64 64" xml:space="preserve">
<g>
	<path fill="#428BC1" d="M61.171,25C58.016,11.809,46.157,2,32,2c-0.335,0-0.667,0.015-1,0.025V25H61.171z"/>
	<path fill="#428BC1" d="M17,6.023C9.982,10.084,4.767,16.902,2.829,25H17V6.023z"/>
	<path fill="#428BC1" d="M2.829,39C4.767,47.098,9.982,53.915,17,57.977V39H2.829z"/>
	<path fill="#428BC1" d="M31,61.975C31.333,61.984,31.665,62,32,62c14.157,0,26.016-9.811,29.171-23H31V61.975z"/>
	<path fill="#FFE62E" d="M61.171,25H31V2.025c-5.091,0.167-9.857,1.601-14,3.998V25H2.829C2.292,27.246,2,29.588,2,32
		c0,2.411,0.292,4.753,0.829,7H17v18.977c4.143,2.396,8.909,3.83,14,3.998V39h30.171C61.708,36.753,62,34.41,62,32
		C62,29.588,61.708,27.246,61.171,25z"/>
</g>
</svg>
