<?xml version="1.0" encoding="utf-8"?>
<!-- Generator: Adobe Illustrator 15.0.0, SVG Export Plug-In . SVG Version: 6.00 Build 0)  -->
<!DOCTYPE svg PUBLIC "-//W3C//DTD SVG 1.1//EN" "http://www.w3.org/Graphics/SVG/1.1/DTD/svg11.dtd">
<svg version="1.1" id="Layer_1" xmlns="http://www.w3.org/2000/svg" xmlns:xlink="http://www.w3.org/1999/xlink" x="0px" y="0px"
	 width="64px" height="64px" viewBox="0 0 64 64" enable-background="new 0 0 64 64" xml:space="preserve">
<g>
	<g>
		<g>
			<path fill="#ED4C5C" d="M32,62c13.062,0,24.167-8.35,28.286-20H3.714C7.833,53.65,18.938,62,32,62z"/>
			<path fill="#FFE62E" d="M32,2C18.938,2,7.833,10.35,3.714,22h56.572C56.167,10.35,45.062,2,32,2z"/>
			<path fill="#699635" d="M60.286,42C61.392,38.871,62,35.508,62,32s-0.608-6.871-1.714-10H3.714C2.608,25.129,2,28.492,2,32
				s0.608,6.871,1.714,10H60.286z"/>
		</g>
	</g>
	<polygon fill="#FFFFFF" points="32,41.083 43.744,50 39.302,35.499 51,26.512 36.519,26.469 32,12 27.479,26.469 13,26.512 
		24.691,35.499 20.256,50 	"/>
</g>
</svg>
