<?xml version="1.0" encoding="utf-8"?>
<!-- Generator: Adobe Illustrator 15.0.0, SVG Export Plug-In . SVG Version: 6.00 Build 0)  -->
<!DOCTYPE svg PUBLIC "-//W3C//DTD SVG 1.1//EN" "http://www.w3.org/Graphics/SVG/1.1/DTD/svg11.dtd">
<svg version="1.1" id="Layer_1" xmlns="http://www.w3.org/2000/svg" xmlns:xlink="http://www.w3.org/1999/xlink" x="0px" y="0px"
	 width="64px" height="64px" viewBox="0 0 64 64" enable-background="new 0 0 64 64" xml:space="preserve">
<g>
	<g>
		<path fill="#FFE62E" d="M10.79,41.992h-0.003v11.221l-0.002-0.001C16.215,58.642,23.715,62,32,62c12.302,0,22.862-7.404,27.491-18
			H11.755C11.403,43.343,11.083,42.673,10.79,41.992z"/>
		<path fill="#007168" d="M11.755,20h47.736C54.862,9.404,44.302,2,32,2c-8.285,0-15.785,3.358-21.215,8.788l0.002-0.001v11.221
			h0.003C11.083,21.327,11.403,20.657,11.755,20z"/>
		<path fill="#3E4347" d="M62,32c0-2.776-0.393-5.451-1.1-8H10.787v16H60.9C61.607,37.451,62,34.776,62,32z"/>
		<polygon fill="#3E4347" points="10.787,22.008 10.787,22.016 10.79,22.008 		"/>
		<polygon fill="#3E4347" points="10.787,41.984 10.787,41.992 10.79,41.992 		"/>
		<path fill="#F9F9F9" d="M10.024,24h0.763v-1.984C10.507,22.667,10.251,23.328,10.024,24z"/>
		<path fill="#F9F9F9" d="M10.024,40c0.227,0.672,0.482,1.333,0.763,1.984V40H10.024z"/>
		<g>
			<path fill="#FFFFFF" d="M60.288,22.008c-0.24-0.682-0.51-1.35-0.797-2.008H11.755c-0.352,0.657-0.672,1.327-0.965,2.008
				C10.789,22.01,10.787,24,10.787,24H60.9C60.714,23.328,60.519,22.66,60.288,22.008z"/>
			<path fill="#FFFFFF" d="M60.288,41.992c0.23-0.652,0.426-1.32,0.612-1.992H10.787v1.984c0.001,0.003,0.002,0.006,0.003,0.008
				c0.293,0.681,0.613,1.351,0.965,2.008h47.736C59.778,43.342,60.048,42.674,60.288,41.992"/>
		</g>
	</g>
	<path fill="#ED4C5C" d="M10.787,10.787C5.357,16.216,2,23.716,2,32s3.357,15.784,8.787,21.213L32,32L10.787,10.787z"/>
	<g>
		<path fill="#FFE62E" d="M20.646,42.018l-6.516-4.77L7.624,42.02l2.523-7.672l-6.549-4.712l8.074,0.028l2.459-7.684L16.6,29.67
			l8.068-0.036l-6.55,4.722L20.646,42.018z"/>
		<path fill="#FFFFFF" d="M8.476,36.669h4.693c0.377,0.424,1.221,0.597,2.022-0.005c1.472-0.807,4.317,0.005,4.317,0.005
			l0.561-0.596l-1.366-4.483l-0.491-0.523c0,0-1.051-0.632-3.047-0.422c-1.996,0.211-2.697-0.069-2.697-0.069
			s-1.751,0.21-2.241,0.454c-0.054,0.045-0.56,0.561-0.56,0.561L8.476,36.669z"/>
		<path fill="#3E4347" d="M5.427,37.207l1.104,1.295c0.13,0.076,0.246,0.072,0.361,0l1.635-1.963l0.688-0.852
			c0.106-0.126,0.141-0.267,0.131-0.393l1.313-1.167c0.108,0.007,0.171,0.02,0.278,0.026c-0.127-0.033-0.22-0.095-0.119-0.233
			l0.295-0.229l0.229,0.295c0,0-0.328,0.426-0.36,0.426s-0.359,0-0.359,0l-0.688,0.621l0.301,0.266l0.452,1.24l0.557-0.395
			l-0.359-1.274l0.784-0.852l-0.293-0.458l0.195-0.261c0,0,2.717,1.711,3.764,1.252c0.029,0.011,0.064-1.22,0.064-1.22
			s-2.814-0.295-2.879-0.852c-0.066-0.556,0.621-0.621,0.621-0.621l-0.295-0.426l0.066-0.229l0.49,0.621l1.112-0.948l6.543,7.459
			c0.356-0.146,0.435-0.231,0.458-0.589c-0.009-0.008-6.412-7.361-6.412-7.361l0.491-0.523c0.097-0.109,0.13-0.154,0.13-0.326
			l0.753-0.655c0.227,0.079,0.371,0.214,0.491,0.394l2.068-1.754c0.055,0.055,0.221,0.109,0.333,0.048l3.419-3.283l-3.727,2.634
			l-0.131-0.1c0-0.107,0.135-0.135,0-0.326c-0.145-0.174-0.36,0.164-0.393,0.164c-0.033,0-0.54-0.18-0.65-0.406l-0.037,0.602
			l-0.948,0.883l-0.72-0.032l-1.047,1.015l-0.131,0.393l0.163,0.326c0,0-0.556,0.491-0.556,0.459c0-0.033-0.113-0.145-0.118-0.158
			l0.478-0.431l0.066-0.294l-0.16-0.249c-0.049,0.036-0.659,0.673-0.691,0.608c-0.055-0.061-1.767-1.994-1.767-1.994l0.099-0.361
			l-1.113-1.209c-0.404-0.141-1.047-0.165-1.178,0.719c-0.102,0.207-0.948,0.032-0.948,0.032l-0.458,0.099l-2.585,3.664l1.44,1.733
			l2.944-3.729l0.087-1.057l0.618,0.691c0.205,0.025,0.401,0.029,0.589-0.065l1.744,1.946l-0.291,0.285
			c0.1,0.108,0.166,0.178,0.264,0.287c0.099-0.066,0.192-0.145,0.291-0.209c0.033,0.044,0.088,0.125,0.12,0.169
			c-0.147,0.08-0.249,0.187-0.396,0.266c-0.233-0.153-0.459-0.343-0.441-0.646l-0.982,0.818l-0.033,0.164l-2.911,2.421L9.018,33.43
			l-0.065,0.752l1.898-1.57v-0.229l0.195,0.164l1.473-1.178c0,0,0.098,0.13,0.064,0.13s-1.309,1.179-1.309,1.179l-0.032,0.131
			l-0.229,0.195l-0.13-0.098l-1.767,1.57H8.854l-0.982,0.982c-0.253,0.021-0.473,0.049-0.687,0.195L5.427,37.207z"/>
	</g>
</g>
</svg>
