<?xml version="1.0" encoding="utf-8"?>
<!-- Generator: Adobe Illustrator 15.0.0, SVG Export Plug-In . SVG Version: 6.00 Build 0)  -->
<!DOCTYPE svg PUBLIC "-//W3C//DTD SVG 1.1//EN" "http://www.w3.org/Graphics/SVG/1.1/DTD/svg11.dtd">
<svg version="1.1" id="Layer_1" xmlns="http://www.w3.org/2000/svg" xmlns:xlink="http://www.w3.org/1999/xlink" x="0px" y="0px"
	 width="64px" height="64px" viewBox="0 0 64 64" enable-background="new 0 0 64 64" xml:space="preserve">
<g>
	<path fill="#ED4C5C" d="M44.46,56.46L20,32h24L18.707,6.706h-2.829V6.7C7.534,12.028,2,21.366,2,32c0,16.568,13.432,30,30,30
		c4.447,0,8.664-0.976,12.46-2.712V56.46z"/>
	<path fill="#F9F9F9" d="M32,2c-4.448,0-8.664,0.979-12.46,2.716v4.85l21.01,21.01H19.54v3.165l23.554,23.554h5.015
		C56.456,51.968,62,42.636,62,32C62,15.432,48.568,2,32,2z"/>
	<path fill="#428BC1" d="M19.54,4.712c-1.271,0.581-2.494,1.248-3.662,1.994L39.172,30h-24L44.46,59.288
		c1.271-0.581,2.494-1.248,3.662-1.994L24.828,34h24L19.54,4.712z"/>
	<path fill="#FFFFFF" d="M19.553,21.802C19.829,21.259,20,20.651,20,20c0-2.209-1.791-4-4-4s-4,1.791-4,4
		c0,0.651,0.171,1.259,0.447,1.802C10.502,21.044,9,20,9,20s1.5,6,7.001,6C21.625,26,23,20,23,20S21.498,21.045,19.553,21.802z"/>
	<polygon fill="#FFFFFF" points="16,39.563 17.608,38 18.219,40.158 20.392,39.607 19.842,41.781 22,42.392 20.436,44 22,45.608 
		19.842,46.218 20.392,48.393 18.219,47.843 17.608,50 16,48.437 14.392,50 13.78,47.843 11.607,48.393 12.158,46.218 10,45.608 
		11.563,44 10,42.392 12.158,41.781 11.607,39.607 13.78,40.158 14.392,38 	"/>
</g>
</svg>
