<?xml version="1.0" encoding="utf-8"?>
<!-- Generator: Adobe Illustrator 15.0.0, SVG Export Plug-In . SVG Version: 6.00 Build 0)  -->
<!DOCTYPE svg PUBLIC "-//W3C//DTD SVG 1.1//EN" "http://www.w3.org/Graphics/SVG/1.1/DTD/svg11.dtd">
<svg version="1.1" id="Layer_1" xmlns="http://www.w3.org/2000/svg" xmlns:xlink="http://www.w3.org/1999/xlink" x="0px" y="0px"
	 width="64px" height="64px" viewBox="0 0 64 64" enable-background="new 0 0 64 64" xml:space="preserve">
<g>
	<g>
		<g>
			<g>
				<g>
					<g>
						<rect x="12" y="12" fill="#2A5F9E" width="21" height="21"/>
						<polygon fill="#FFFFFF" points="18.912,8.14 18.912,14 11.6,14 26,32 32,32 32,24.5 						"/>
						<path fill="#2A5F9E" d="M32,2v30H2c0,16.568,13.432,30,30,30s30-13.432,30-30S48.568,2,32,2z"/>
						<path fill="#FFFFFF" d="M11,18.912H5.011C3.088,22.869,2,27.306,2,32h12V13.912h-3V18.912z"/>
						<polygon fill="#ED4C5C" points="32,27.059 19,11 13,11 30,32 32,32 						"/>
						<path fill="#FFFFFF" d="M18.912,5.012V11H11v3h21V2C27.306,2,22.868,3.088,18.912,5.012z"/>
						<path fill="#ED4C5C" d="M32,5H18.912C12.857,7.94,7.94,12.857,5,18.912V32h6V11h21V5z"/>
					</g>
				</g>
			</g>
		</g>
	</g>
	<g>
		<path fill="#FFFFFF" d="M36.587,21.776h19.977L56.54,35.991c0.166,5.714-3.396,9.26-9.949,10.858
			c-4.653-1.155-10.02-3.546-10.027-10.696L36.587,21.776L36.587,21.776z"/>
		<path fill="#42ADE2" d="M37.028,22.204H56.12l-0.022,13.622c0.159,5.476-3.245,8.873-9.508,10.405
			c-4.447-1.107-9.576-3.397-9.583-10.25L37.028,22.204L37.028,22.204z"/>
		<g>
			<path fill="#C94747" d="M37.16,37.466c0.86,5.821,5.302,7.589,9.429,8.696c4.663-1.212,8.688-3.496,9.383-8.723L37.16,37.466z"/>
			<polygon fill="#A53D08" points="55.972,37.439 55.972,37.439 55.973,37.439 			"/>
		</g>
		<path d="M45.833,24.742l-0.026-1.717l1.357,0.013l0.013,1.704h3.713l0.014,1.33l-3.727,0.014l-0.029,15.695l-1.324,0.008
			l-0.017-15.717l-3.7,0.014v-1.357L45.833,24.742z"/>
		<path fill="#FF9A08" d="M44.69,33.862c-0.927,0.378-0.757,1.962-1.977,2.45c-1.135,0.454-1.625,2.509-0.111,1.903
			c0.055,0.338,3.539,4.955,3.941,4.731C48.953,41.582,47.477,34.139,44.69,33.862C44.638,33.884,46.406,34.032,44.69,33.862z
			 M46.226,41.613c-0.727-0.754-3.89-4.162-3.959-4.066c0.133,0.082,2.56-2.283,2.773-2.943
			C46.737,35.58,47.564,40.143,46.226,41.613C46.226,41.613,47.401,40.321,46.226,41.613z"/>
		<g>
			<path fill="#699635" d="M50.636,37.176c0.112-1.188-0.066-2.287-0.358-2.825s-0.337-1.211-0.785-1.996
				c0.332,0.056,0.516-0.628,0.595-1.458c0.044-0.47,0.011-0.829,0.111-1.67c0.102-0.841-0.201-1.145-0.409-1.317
				c-0.207-0.174-0.342-0.23-0.442-0.241c-0.297-0.102-1.021-0.012-1.167,0.033c-0.146,0.045-0.344,0.057-0.489,0.034
				s-0.268,0.101-0.503,0.303l0,0v9.878c0.077,0.882-0.162,2.759-0.655,4.127c-0.197,0.547-0.112,0.762,0.157,0.941
				c1.175,0.784,1.973,0,2.825-0.65c0.278-0.212,0.426-0.224,0.763,0.135c0.336,0.358,0.717,0.471,0.874,0.358
				C50.21,41.033,50.524,38.365,50.636,37.176z"/>
			<g>
				<path fill="#FFFFFF" d="M47.581,27.13c0.859,0.472-0.008,0.654,0.453,1.547c0.395-0.558,1.615-0.463,1.043-1.269
					c-0.406-0.572,0.974-2.16-0.572-2.182C47.979,25.219,46.98,26.796,47.581,27.13C47.631,27.157,47.398,27.028,47.581,27.13z"/>
				<path fill="#FFFFFF" d="M44.614,29.417c0.898-0.105,1.457,0.268,1.2-0.965c-1.691,0,0.697-2.881,0.477-3.353
					C45.726,23.885,43.334,29.565,44.614,29.417C44.996,29.372,44.446,29.437,44.614,29.417z"/>
				<path fill="#FFFFFF" d="M49.896,29.518c-0.033-0.174-2.795,2.054-3.285,2.422c0.26-0.195-3.385,2.425-2.146,2.557
					c0.521,0.069,0.89-0.702,1.169-1.141C46.877,31.393,49.896,33.205,49.896,29.518C49.896,29.125,49.896,30.112,49.896,29.518z"/>
				<path fill="#FFFFFF" d="M50.462,42.827c-0.122-0.459-0.503-0.775-0.947-0.493c0.14,0.508-0.533,1.669-0.247,1.89
					C49.785,44.614,50.558,43.186,50.462,42.827C50.426,42.691,50.501,42.974,50.462,42.827z"/>
				<path fill="#FFFFFF" d="M46.324,43.299c0.157,0.156,0.511,0.162,0.757-0.102c-0.089-0.039-0.285-0.129-0.375-0.201
					C46.582,43.119,46.442,43.26,46.324,43.299z"/>
			</g>
			<path fill="#870F00" d="M47.911,25.47c0.211-1.365,2.639,0.648,2.215,1.469C49.401,28.34,48.243,25.012,47.911,25.47
				C47.973,25.072,47.968,25.392,47.911,25.47z"/>
		</g>
	</g>
</g>
</svg>
