<?xml version="1.0" encoding="utf-8"?>
<!-- Generator: Adobe Illustrator 15.0.0, SVG Export Plug-In . SVG Version: 6.00 Build 0)  -->
<!DOCTYPE svg PUBLIC "-//W3C//DTD SVG 1.1//EN" "http://www.w3.org/Graphics/SVG/1.1/DTD/svg11.dtd">
<svg version="1.1" id="Layer_1" xmlns="http://www.w3.org/2000/svg" xmlns:xlink="http://www.w3.org/1999/xlink" x="0px" y="0px"
	 width="64px" height="64px" viewBox="0 0 64 64" enable-background="new 0 0 64 64" xml:space="preserve">
<g>
	<g>
		<path fill="#ED4C5C" d="M52.388,10C47.035,5.037,39.874,2,32,2s-15.035,3.037-20.388,8H52.388z"/>
		<path fill="#ED4C5C" d="M11.612,54c5.353,4.963,12.514,8,20.388,8s15.035-3.037,20.388-8H11.612z"/>
	</g>
	<path fill="#2A5F9E" d="M2,32c0,4.268,0.896,8.324,2.504,12h54.992C61.104,40.324,62,36.268,62,32s-0.896-8.324-2.504-12H4.504
		C2.896,23.676,2,27.732,2,32z"/>
	<path fill="#F9F9F9" d="M11.628,54h40.744c3.013-2.791,5.46-6.184,7.128-10h-55C6.168,47.816,8.615,51.209,11.628,54z"/>
	<path fill="#F9F9F9" d="M52.372,10H11.628c-3.013,2.791-5.46,6.184-7.128,10h55C57.832,16.184,55.385,12.791,52.372,10z"/>
</g>
</svg>
