<?xml version="1.0" encoding="utf-8"?>
<!-- Generator: Adobe Illustrator 15.0.0, SVG Export Plug-In . SVG Version: 6.00 Build 0)  -->
<!DOCTYPE svg PUBLIC "-//W3C//DTD SVG 1.1//EN" "http://www.w3.org/Graphics/SVG/1.1/DTD/svg11.dtd">
<svg version="1.1" id="Layer_1" xmlns="http://www.w3.org/2000/svg" xmlns:xlink="http://www.w3.org/1999/xlink" x="0px" y="0px"
	 width="64px" height="64px" viewBox="0 0 64 64" enable-background="new 0 0 64 64" xml:space="preserve">
<g>
	<path fill="#F9F9F9" d="M2,32c0,5.883,1.701,11.367,4.629,16h50.744C60.299,43.367,62,37.883,62,32c0-5.885-1.701-11.369-4.627-16
		H6.629C3.701,20.631,2,26.115,2,32z"/>
	<g>
		<path fill="#ED4C5C" d="M57.373,16C52.057,7.59,42.684,2,32,2S11.943,7.59,6.629,16H57.373z"/>
		<path fill="#ED4C5C" d="M6.629,48C11.943,56.41,21.316,62,32,62s20.057-5.59,25.373-14H6.629z"/>
	</g>
	<g>
		<path fill-rule="evenodd" clip-rule="evenodd" fill="#83BF4F" d="M23.537,45c0,0,6.516-4.291,14.094-0.475v-1.582
			c0,0-6.416-4.166-1.014-4.76C42.021,37.59,45,40.422,45,40.422v-1.357c0,0-9.182-4.879-1.271-3.006v-1.371
			c0,0-7.123-2.488-2.822-2.488s1.85,0,1.85,0v-0.906c0,0-7.283-1.014-1.152-1.412v-0.926c0,0-11.02-5.074-2.789-3.066v-1.008
			c0,0-3.98-0.756-0.939-1.207c0,0-1.563-2.117-4.197-2.117c-2.637,0-2.207-2.557-2.207-2.557l-3.264,3.523
			c0,0,2.264-0.242-1.434,1.736c0,0,3.074,0.348-3.91,4.445c0,0,2.588-0.959,2.588,0.701s-4.592,3.965-4.592,3.965l0.381,1.09
			c0,0,3.215-2.488,2.984-0.83C23.996,35.291,19,37.932,19,37.932l0.479,0.83c0,0,4.057-2.414,4.211-1.359
			c0,0,0.584,0.707-3.422,2.014l0.512,0.779c0,0,6.127-3.018,7.658-0.83s-5.055,4.525-5.055,4.525L23.537,45z"/>
		<ellipse fill-rule="evenodd" clip-rule="evenodd" fill="#F9F9F9" cx="29.77" cy="26.639" rx="0.92" ry="0.904"/>
		<ellipse fill-rule="evenodd" clip-rule="evenodd" fill="#F9F9F9" cx="33.413" cy="28.125" rx="0.919" ry="0.904"/>
		<ellipse fill-rule="evenodd" clip-rule="evenodd" fill="#F9F9F9" cx="26.011" cy="32.928" rx="0.919" ry="0.906"/>
		<ellipse fill-rule="evenodd" clip-rule="evenodd" fill="#F9F9F9" cx="36.018" cy="33.834" rx="0.918" ry="0.904"/>
		<ellipse fill-rule="evenodd" clip-rule="evenodd" fill="#F9F9F9" cx="38.927" cy="34.738" rx="0.919" ry="0.906"/>
		<ellipse fill-rule="evenodd" clip-rule="evenodd" fill="#F9F9F9" cx="27.104" cy="28.842" rx="0.919" ry="0.906"/>
		<ellipse fill-rule="evenodd" clip-rule="evenodd" fill="#F9F9F9" cx="32.188" cy="32.047" rx="0.919" ry="0.906"/>
	</g>
</g>
</svg>
