<?xml version="1.0" encoding="utf-8"?>
<!-- Generator: Adobe Illustrator 15.0.0, SVG Export Plug-In . SVG Version: 6.00 Build 0)  -->
<!DOCTYPE svg PUBLIC "-//W3C//DTD SVG 1.1//EN" "http://www.w3.org/Graphics/SVG/1.1/DTD/svg11.dtd">
<svg version="1.1" id="Layer_1" xmlns="http://www.w3.org/2000/svg" xmlns:xlink="http://www.w3.org/1999/xlink" x="0px" y="0px"
	 width="64px" height="64px" viewBox="0 0 64 64" enable-background="new 0 0 64 64" xml:space="preserve">
<path fill="#42ADE2" d="M62,52c0,5.523-4.477,10-10,10H12C6.477,62,2,57.523,2,52V12C2,6.477,6.477,2,12,2h40
	c5.523,0,10,4.477,10,10V52z"/>
<g>
	<g>
		<path fill="#FFFFFF" d="M17.084,46.742C16.3,46.742,14.627,46.794,14,47v-6.518c0.68,0.157,2.092,0.26,2.979,0.26h7.374V23.104
			h-7.165c-0.836,0-2.457,0.104-3.032,0.207V17c0.785,0.155,2.353,0.311,3.032,0.311h9.204c0.629,0,3.189-0.103,3.555-0.155
			c0,1.087-0.051,2.897-0.051,4.19v20.173c0,1.551,0.104,5.224,0.104,5.224H17.084z"/>
		<path fill="#FFFFFF" d="M37.127,46.742c-0.781,0-2.449,0.052-3.127,0.258v-6.518c0.73,0.157,2.137,0.26,3.023,0.26h7.35V23.104
			h-7.141c-0.834,0-2.451,0.104-3.023,0.207V17c0.781,0.155,2.344,0.311,2.971,0.311h9.225c0.627,0,3.18-0.103,3.543-0.155
			c0,1.087-0.051,2.897-0.051,4.19v20.173c0,1.551,0.104,5.224,0.104,5.224H37.127z"/>
	</g>
</g>
</svg>
