<?xml version="1.0" encoding="utf-8"?>
<!-- Generator: Adobe Illustrator 15.0.0, SVG Export Plug-In . SVG Version: 6.00 Build 0)  -->
<!DOCTYPE svg PUBLIC "-//W3C//DTD SVG 1.1//EN" "http://www.w3.org/Graphics/SVG/1.1/DTD/svg11.dtd">
<svg version="1.1" id="Layer_1" xmlns="http://www.w3.org/2000/svg" xmlns:xlink="http://www.w3.org/1999/xlink" x="0px" y="0px"
	 width="64px" height="64px" viewBox="0 0 64 64" enable-background="new 0 0 64 64" xml:space="preserve">
<path fill="#42ADE2" d="M62,52c0,5.523-4.477,10-10,10H12C6.477,62,2,57.523,2,52V12C2,6.477,6.477,2,12,2h40
	c5.523,0,10,4.477,10,10V52z"/>
<g>
	<path fill="#FFFFFF" d="M20.144,30.4c-1.783,0-3.306,0.053-4.144,0.105v-5.78c0.682,0.105,2.412,0.315,4.144,0.315h2.414v-3.153
		c0-1.313-0.157-2.89-0.21-3.573h5.928c-0.105,0.684-0.264,2.208-0.264,3.627v3.1h8.185v-3.363c0-1.419-0.104-2.942-0.21-3.678
		h6.086c-0.105,0.735-0.262,2.259-0.262,3.678v3.363h2.046c1.835,0,3.198-0.158,4.144-0.264v5.729
		c-0.734-0.053-2.309-0.105-4.144-0.105h-2.046v0.42c0,8.986-2.729,15.187-11.961,19.18l-4.355-4.361
		c6.979-2.365,10.702-5.727,10.702-14.607V30.4h-8.185v4.047c0,1.576,0.158,3.31,0.211,4.045h-5.875
		c0.104-0.735,0.21-2.469,0.21-4.045V30.4H20.144z"/>
</g>
</svg>
