<?xml version="1.0" encoding="utf-8"?>
<!-- Generator: Adobe Illustrator 15.0.0, SVG Export Plug-In . SVG Version: 6.00 Build 0)  -->
<!DOCTYPE svg PUBLIC "-//W3C//DTD SVG 1.1//EN" "http://www.w3.org/Graphics/SVG/1.1/DTD/svg11.dtd">
<svg version="1.1" id="Layer_1" xmlns="http://www.w3.org/2000/svg" xmlns:xlink="http://www.w3.org/1999/xlink" x="0px" y="0px"
	 width="64px" height="64px" viewBox="0 0 64 64" enable-background="new 0 0 64 64" xml:space="preserve">
<g>
	<path fill="#F2B200" d="M62,52c0,5.523-4.477,10-10,10H12C6.477,62,2,57.523,2,52V12C2,6.477,6.477,2,12,2h40
		c5.523,0,10,4.477,10,10V52z"/>
	<g>
		<path fill="#FFFFFF" d="M19.981,24.203c-0.767,0.731-1.495,1.424-2.262,2.003c-0.844-0.81-2.684-2.271-3.72-3.003
			c3.221-2.118,6.249-5.622,7.938-9.203l4.445,1.31c-0.422,0.925-0.918,1.81-1.494,2.695h23.004v4.043h-3.604v4.928h4.983v4.08
			h-4.983v4.892h4.446v4.08H15.42v-4.08h4.562v-4.892h-5.138v-4.08h5.138V24.203z M14.461,48.228
			c1.688-1.617,3.411-4.581,4.294-7.392l4.409,1.077C22.32,44.84,20.672,47.998,18.793,50L14.461,48.228z M24.008,26.976h2.759
			v-4.928h-2.759V26.976z M24.008,35.947h2.759v-4.892h-2.759V35.947z M29.872,41.683c0.461,2.349,0.883,5.391,0.921,7.199
			l-4.448,0.655c0-1.847-0.307-5.004-0.729-7.354L29.872,41.683z M33.399,26.976v-4.928h-2.838v4.928H33.399z M30.562,31.056v4.892
			h2.838v-4.892H30.562z M37.503,41.528c0.919,2.273,1.878,5.275,2.224,7.162l-4.563,0.886c-0.231-1.85-1.111-4.968-1.955-7.316
			L37.503,41.528z M40.109,22.048h-2.915v4.928h2.915V22.048z M40.109,31.056h-2.915v4.892h2.915V31.056z M45.17,40.683
			c1.725,2.349,3.873,5.581,4.83,7.7l-4.678,1.578c-0.805-2.041-2.836-5.428-4.523-7.893L45.17,40.683z"/>
	</g>
</g>
</svg>
