<?xml version="1.0" encoding="utf-8"?>
<!-- Generator: Adobe Illustrator 15.0.0, SVG Export Plug-In . SVG Version: 6.00 Build 0)  -->
<!DOCTYPE svg PUBLIC "-//W3C//DTD SVG 1.1//EN" "http://www.w3.org/Graphics/SVG/1.1/DTD/svg11.dtd">
<svg version="1.1" id="Layer_1" xmlns="http://www.w3.org/2000/svg" xmlns:xlink="http://www.w3.org/1999/xlink" x="0px" y="0px"
	 width="64px" height="64px" viewBox="0 0 64 64" enable-background="new 0 0 64 64" xml:space="preserve">
<g>
	<path fill="#75A843" d="M62,52c0,5.523-4.477,10-10,10H12C6.477,62,2,57.523,2,52V12C2,6.477,6.477,2,12,2h40
		c5.523,0,10,4.477,10,10V52z"/>
	<g>
		<path fill="#FFFFFF" d="M28.278,34.373c-1.488,0.425-2.979,0.85-4.506,1.273v9.375c0,2.276-0.381,3.357-1.678,4.091
			c-1.26,0.694-3.092,0.81-5.766,0.81c-0.114-1.157-0.726-3.009-1.26-4.205c1.488,0.077,3.016,0.077,3.513,0.077
			c0.534-0.038,0.726-0.193,0.726-0.734v-8.218l-4.238,1.081L14,33.563c1.527-0.347,3.359-0.771,5.307-1.234V25.46h-4.734v-4.243
			h4.734V14h4.465v7.217h3.895v4.243h-3.895v5.788c1.338-0.348,2.674-0.694,3.971-1.041L28.278,34.373z M29.575,32.405H48.13v17.439
			h-4.505V48.34H33.89V50h-4.314V32.405z M43.395,26.077c1.91,0,2.215-0.617,2.482-4.437C46.832,22.335,48.74,23.068,50,23.3
			c-0.571,5.438-1.908,6.907-6.26,6.907h-7.406c-5.308,0-6.681-1.313-6.681-5.75V14h4.541v5.055
			c3.817-0.964,7.636-2.199,10.155-3.395l3.359,3.317c-3.894,1.583-8.971,2.894-13.515,3.821v1.619c0,1.467,0.383,1.659,2.558,1.659
			H43.395z M33.89,36.186v2.354h9.735v-2.354H33.89z M43.625,44.675v-2.546H33.89v2.546H43.625z"/>
	</g>
</g>
</svg>
