<?xml version="1.0" encoding="utf-8"?>
<!-- Generator: Adobe Illustrator 15.0.0, SVG Export Plug-In . SVG Version: 6.00 Build 0)  -->
<!DOCTYPE svg PUBLIC "-//W3C//DTD SVG 1.1//EN" "http://www.w3.org/Graphics/SVG/1.1/DTD/svg11.dtd">
<svg version="1.1" id="Layer_1" xmlns="http://www.w3.org/2000/svg" xmlns:xlink="http://www.w3.org/1999/xlink" x="0px" y="0px"
	 width="64px" height="64px" viewBox="0 0 64 64" enable-background="new 0 0 64 64" xml:space="preserve">
<g>
	<path fill="#ED4C5C" d="M62,52c0,5.523-4.477,10-10,10H12C6.477,62,2,57.523,2,52V12C2,6.478,6.477,2,12,2h40
		c5.523,0,10,4.477,10,10V52z"/>
	<g>
		<path fill="#FFFFFF" d="M19.605,32c-1.58-1.373-4.957-3.133-7.606-4.205l2.693-3.861c2.606,0.814,6.026,2.401,7.734,3.775
			L19.605,32z M13.112,48.523c1.921-3.305,4.657-8.711,6.836-13.733l4.017,3.047c-1.923,4.593-4.145,9.527-6.367,13.691
			L13.112,48.523z M17.042,12.3c2.522,1.16,5.728,3.049,7.351,4.551l-3.162,4.033c-1.454-1.501-4.613-3.646-7.181-4.892L17.042,12.3
			z M39.822,27.537v2.575h11.239V47.15c0,2.232-0.43,3.39-1.882,4.078c-1.454,0.686-3.505,0.729-6.41,0.729
			c-0.085-1.243-0.599-3.047-1.154-4.248c1.582,0.086,3.418,0.086,3.974,0.086c0.558-0.043,0.727-0.215,0.727-0.688V34.532h-7.051
			v6.826h2.094v-5.066h2.949v10.171h-2.949v-1.416h-7.734v2.49h-3.033V36.292h3.033v5.066h1.923v-6.826h-6.71V52h-4.485V30.112
			h10.597v-2.575H23.069v-4.462h6.794v-3.177h-5.471v-4.42h5.471V12h4.744v3.477h5.725V12h4.916v3.477h5.556v4.42h-5.556v3.177
			h6.751v4.462H39.822z M34.607,23.075h5.725v-3.177h-5.725V23.075z"/>
	</g>
</g>
</svg>
