<?xml version="1.0" encoding="utf-8"?>
<!-- Generator: Adobe Illustrator 15.0.0, SVG Export Plug-In . SVG Version: 6.00 Build 0)  -->
<!DOCTYPE svg PUBLIC "-//W3C//DTD SVG 1.1//EN" "http://www.w3.org/Graphics/SVG/1.1/DTD/svg11.dtd">
<svg version="1.1" id="Layer_1" xmlns="http://www.w3.org/2000/svg" xmlns:xlink="http://www.w3.org/1999/xlink" x="0px" y="0px"
	 width="64px" height="64px" viewBox="0 0 64 64" enable-background="new 0 0 64 64" xml:space="preserve">
<g>
	<path fill="#F2B200" d="M62,52c0,5.523-4.477,10-10,10H12C6.477,62,2,57.523,2,52V12C2,6.478,6.477,2,12,2h40
		c5.523,0,10,4.477,10,10V52z"/>
	<g>
		<path fill="#FFFFFF" d="M28.996,22.963c-0.471,1.041-0.98,2.041-1.57,3.042h18.177v19.02c0,2.271-0.432,3.504-2.041,4.197
			c-1.531,0.732-3.769,0.77-6.948,0.77c-0.197-1.27-0.824-3.195-1.414-4.428c2.002,0.117,4.28,0.117,4.947,0.117
			c0.667-0.039,0.903-0.232,0.903-0.771v-2.309H26.878v7.354h-4.634v-16.75c-1.57,1.695-3.259,3.234-5.183,4.504
			c-0.667-1-2.158-2.656-3.062-3.504c4.162-2.732,7.42-6.775,9.774-11.242h-8.597v-4.312h10.56c0.63-1.579,1.141-3.119,1.533-4.659
			l4.827,1.078c-0.393,1.193-0.785,2.387-1.255,3.581H50v4.312H28.996z M41.05,30.01H26.878v2.465H41.05V30.01z M41.05,38.789
			v-2.504H26.878v2.504H41.05z"/>
	</g>
</g>
</svg>
