<?xml version="1.0" encoding="utf-8"?>
<!-- Generator: Adobe Illustrator 15.0.0, SVG Export Plug-In . SVG Version: 6.00 Build 0)  -->
<!DOCTYPE svg PUBLIC "-//W3C//DTD SVG 1.1//EN" "http://www.w3.org/Graphics/SVG/1.1/DTD/svg11.dtd">
<svg version="1.1" id="Layer_1" xmlns="http://www.w3.org/2000/svg" xmlns:xlink="http://www.w3.org/1999/xlink" x="0px" y="0px"
	 width="64px" height="64px" viewBox="0 0 64 64" enable-background="new 0 0 64 64" xml:space="preserve">
<g>
	<path fill="#F2B200" d="M62,52c0,5.523-4.477,10-10,10H12C6.476,62,2,57.523,2,52V12C2,6.477,6.476,2,12,2h40
		c5.523,0,10,4.477,10,10V52z"/>
	<g>
		<path fill="#FFFFFF" d="M47,42.517c0,2.598-0.625,3.823-2.318,4.546c-1.768,0.758-4.344,0.829-8.135,0.829
			c-0.258-1.263-1.143-3.319-1.842-4.51c2.576,0.145,5.67,0.108,6.479,0.108c0.883,0,1.18-0.289,1.18-1.046v-5.231H26.607
			c-0.957,4.04-2.797,7.974-6.221,10.787c-0.662-0.902-2.429-2.49-3.387-3.103c5.559-4.654,6.075-11.545,6.075-17.028V16H47V42.517z
			 M42.363,33.063v-4.4H27.602c-0.037,1.371-0.111,2.886-0.258,4.4H42.363z M27.602,20.185v4.402h14.762v-4.402H27.602z"/>
	</g>
</g>
</svg>
