<?xml version="1.0" encoding="utf-8"?>
<!-- Generator: Adobe Illustrator 15.0.0, SVG Export Plug-In . SVG Version: 6.00 Build 0)  -->
<!DOCTYPE svg PUBLIC "-//W3C//DTD SVG 1.1//EN" "http://www.w3.org/Graphics/SVG/1.1/DTD/svg11.dtd">
<svg version="1.1" id="Layer_1" xmlns="http://www.w3.org/2000/svg" xmlns:xlink="http://www.w3.org/1999/xlink" x="0px" y="0px"
	 width="64px" height="64px" viewBox="0 0 64 64" enable-background="new 0 0 64 64" xml:space="preserve">
<g>
	<path fill="#F2B200" d="M62,52c0,5.523-4.477,10-10,10H12C6.477,62,2,57.523,2,52V12C2,6.477,6.477,2,12,2h40
		c5.523,0,10,4.477,10,10V52z"/>
	<g>
		<path fill="#FFFFFF" d="M47,20.584v20.295h-4.61v-1.646h-8.253v8.776H29.49v-8.776h-8.065v1.817H17V20.584h12.49V15.99h4.646
			v4.594H47z M21.425,24.492v3.462h8.065v-3.462H21.425z M29.49,35.326v-3.635h-8.065v3.635H29.49z M34.137,24.492v3.462h8.253
			v-3.462H34.137z M42.39,35.326v-3.635h-8.253v3.635H42.39z"/>
	</g>
</g>
</svg>
