<?xml version="1.0" encoding="utf-8"?>
<!-- Generator: Adobe Illustrator 15.0.0, SVG Export Plug-In . SVG Version: 6.00 Build 0)  -->
<!DOCTYPE svg PUBLIC "-//W3C//DTD SVG 1.1//EN" "http://www.w3.org/Graphics/SVG/1.1/DTD/svg11.dtd">
<svg version="1.1" id="Layer_1" xmlns="http://www.w3.org/2000/svg" xmlns:xlink="http://www.w3.org/1999/xlink" x="0px" y="0px"
	 width="64px" height="64px" viewBox="0 0 64 64" enable-background="new 0 0 64 64" xml:space="preserve">
<path fill="#C28FEF" d="M62,52c0,5.523-4.477,10-10,10H12C6.477,62,2,57.523,2,52V12C2,6.477,6.477,2,12,2h40
	c5.523,0,10,4.477,10,10V52z"/>
<g>
	<path fill="#FFFFFF" d="M30.142,21.859c-0.697,6.589-2.827,10.756-12.663,12.939c-0.387-1.111-1.549-3.016-2.479-3.97
		c8.442-1.508,9.797-4.286,10.417-8.97h-5.344v4.604h-4.53v-8.891h14.018V14h4.725v3.572h14.367v8.216h-4.764v-3.929h-5.461v6.271
		c0,1.071,0.232,1.23,1.434,1.23h3.446c0.968,0,1.161-0.396,1.316-2.898c0.853,0.675,2.749,1.35,3.95,1.628
		c-0.465,4.167-1.704,5.279-4.802,5.279h-4.607c-4.338,0-5.268-1.271-5.268-5.199v-6.312H30.142z M49,45.714V50H15.117v-4.286
		h14.443v-5.913H19.183v-4.248h26.526v4.248H34.285v5.913H49z"/>
</g>
</svg>
