<?xml version="1.0" encoding="utf-8"?>
<!-- Generator: Adobe Illustrator 15.0.0, SVG Export Plug-In . SVG Version: 6.00 Build 0)  -->
<!DOCTYPE svg PUBLIC "-//W3C//DTD SVG 1.1//EN" "http://www.w3.org/Graphics/SVG/1.1/DTD/svg11.dtd">
<svg version="1.1" id="Layer_1" xmlns="http://www.w3.org/2000/svg" xmlns:xlink="http://www.w3.org/1999/xlink" x="0px" y="0px"
	 width="64px" height="64px" viewBox="0 0 64 64" enable-background="new 0 0 64 64" xml:space="preserve">
<g>
	<path fill="#E84D88" d="M62,52c0,5.523-4.477,10-10,10H12C6.477,62,2,57.523,2,52V12C2,6.477,6.477,2,12,2h40
		c5.523,0,10,4.477,10,10V52z"/>
	<g>
		<path fill="#FFFFFF" d="M27.122,17.223h8.004v6.68h-1.982v2.951h-6.099v1.632h5.564v3.066h-5.564v1.672h7.661v3.534H15.115v-3.534
			h7.775v-1.672H17.25v-3.066h5.641v-1.632h-6.023v-2.951H15v-6.68h7.776V14h4.346V17.223z M17.136,38.078h15.97v11.533h-4.308
			v-1.32h-7.585V50h-4.077V38.078z M30.934,20.718H19.003v2.874h3.888v-2.097h4.154v2.097h3.889V20.718z M21.213,41.533v3.301h7.585
			v-3.301H21.213z M41.034,39.593h-4.308V17.882h4.308V39.593z M49,14.466v29.941c0,2.563-0.458,3.847-1.982,4.584
			c-1.486,0.776-3.85,0.931-6.976,0.931c-0.189-1.319-0.839-3.455-1.485-4.776c2.21,0.116,4.384,0.077,5.146,0.077
			c0.647,0,0.914-0.232,0.914-0.854V14.466H49z"/>
	</g>
</g>
</svg>
