<?xml version="1.0" encoding="utf-8"?>
<!-- Generator: Adobe Illustrator 15.0.0, SVG Export Plug-In . SVG Version: 6.00 Build 0)  -->
<!DOCTYPE svg PUBLIC "-//W3C//DTD SVG 1.1//EN" "http://www.w3.org/Graphics/SVG/1.1/DTD/svg11.dtd">
<svg version="1.1" id="Layer_1" xmlns="http://www.w3.org/2000/svg" xmlns:xlink="http://www.w3.org/1999/xlink" x="0px" y="0px"
	 width="64px" height="64px" viewBox="0 0 64 64" enable-background="new 0 0 64 64" xml:space="preserve">
<g>
	<path fill="#ED4C5C" d="M62,52c0,5.523-4.477,10-10,10H12C6.477,62,2,57.523,2,52V12C2,6.477,6.477,2,12,2h40
		c5.523,0,10,4.477,10,10V52z"/>
	<g>
		<path fill="#FFFFFF" d="M20.127,24.577c-1.533,2.054-3.278,3.893-5.105,5.133c-0.683-1.025-2.002-2.652-3.021-3.463
			c2.468-1.37,4.979-3.852,6.766-6.419h-5.106v-4.106h6.468V12h4.681v3.722h5.404v4.106h-5.404v0.043
			c1.703,0.942,5.32,3.209,6.341,3.893l-2.64,3.423c-0.808-0.813-2.296-2.01-3.701-3.123v5.563h-4.681V24.577z M24.766,43.615
			c-2.085,3.037-5.489,6.074-8.468,7.873c-0.937-0.855-2.853-2.398-3.958-3.125c2.979-1.496,5.957-3.85,7.659-6.246L24.766,43.615z
			 M13.405,37.07h37.401v4.277H34.724v5.775c0,2.396-0.512,3.51-2.342,4.193C30.637,51.959,28.298,52,25.191,52
			c-0.298-1.367-1.063-3.164-1.703-4.404c2.128,0.127,4.596,0.127,5.234,0.084c0.681-0.043,0.895-0.172,0.895-0.686v-5.646H13.405
			V37.07z M18.043,30.824h28.509v4.106H18.043V30.824z M44.596,19.828c1.998,2.439,4.893,4.964,7.404,6.333
			c-1.022,0.814-2.428,2.396-3.15,3.466c-1.744-1.242-3.617-3.209-5.318-5.306v5.306h-4.767v-5.521
			c-1.703,2.182-3.701,4.151-5.744,5.436c-0.682-1.028-2.042-2.61-2.979-3.423c2.64-1.327,5.404-3.765,7.234-6.291h-5.575v-4.106
			h7.063V12h4.767v3.722h6.979v4.106H44.596z M42.212,41.947c2.852,1.84,6.596,4.705,8.469,6.717l-4.341,2.652
			c-1.618-1.924-5.234-4.963-8.17-6.973L42.212,41.947z"/>
	</g>
</g>
</svg>
