<?xml version="1.0" encoding="utf-8"?>
<!-- Generator: Adobe Illustrator 15.0.0, SVG Export Plug-In . SVG Version: 6.00 Build 0)  -->
<!DOCTYPE svg PUBLIC "-//W3C//DTD SVG 1.1//EN" "http://www.w3.org/Graphics/SVG/1.1/DTD/svg11.dtd">
<svg version="1.1" id="Layer_1" xmlns="http://www.w3.org/2000/svg" xmlns:xlink="http://www.w3.org/1999/xlink" x="0px" y="0px"
	 width="64px" height="64px" viewBox="0 0 64 64" enable-background="new 0 0 64 64" xml:space="preserve">
<g>
	<circle fill="#ED4C5C" cx="32" cy="32" r="30"/>
	<circle fill="#FFFFFF" cx="32" cy="32" r="24"/>
	<g>
		<path fill="#ED4C5C" d="M23.24,22.814c-1.906,3.312-5.219,6.575-8.23,8.784c0.654,1.204,1.756,3.916,2.008,4.968
			c1.055-0.854,2.109-1.807,3.164-2.859v15.059h4.416v-20.18c1.055-1.354,2.008-2.811,2.762-4.166L23.24,22.814z"/>
		<path fill="#ED4C5C" d="M26.756,16.84l-4.168-1.706c-1.506,2.359-4.467,5.22-7.023,6.928c0.598,0.954,1.605,2.911,1.955,3.915
			C20.682,23.768,24.348,20.104,26.756,16.84z"/>
		<path fill="#ED4C5C" d="M44.324,35.764v-1.756h3.764v-3.814H27.309v3.814h12.299v1.756H26.404v3.916h4.619l-2.459,1.605
			c1.506,1.506,3.26,3.564,4.064,4.971l3.365-2.41c-0.705-1.205-2.211-2.811-3.566-4.166h7.18v4.518c0,0.453-0.15,0.604-0.652,0.604
			c-0.504,0-1.959,0-3.465-0.051c0.553,1.154,1.205,2.861,1.355,4.115c2.561,0,4.367-0.049,5.723-0.703
			c1.406-0.652,1.756-1.807,1.756-3.865V39.68h4.668v-3.916H44.324z"/>
		<path fill="#ED4C5C" d="M47.336,16.188H28.764v12.55h18.572V16.188z M42.369,25.675h-8.885v-1.756h8.885V25.675z M42.369,21.006
			h-8.885v-1.705h8.885V21.006z"/>
	</g>
</g>
</svg>
