<?xml version="1.0" encoding="utf-8"?>
<!-- Generator: Adobe Illustrator 15.0.0, SVG Export Plug-In . SVG Version: 6.00 Build 0)  -->
<!DOCTYPE svg PUBLIC "-//W3C//DTD SVG 1.1//EN" "http://www.w3.org/Graphics/SVG/1.1/DTD/svg11.dtd">
<svg version="1.1" id="Layer_1" xmlns="http://www.w3.org/2000/svg" xmlns:xlink="http://www.w3.org/1999/xlink" x="0px" y="0px"
	 width="64px" height="64px" viewBox="0 0 64 64" enable-background="new 0 0 64 64" xml:space="preserve">
<g>
	<path fill="#008DB3" d="M62,32c0,16.568-13.432,30-30,30S2,48.568,2,32c0-4.381,0.939-8.542,2.627-12.294L36.65,2.358
		c2.271,0.354,4.456,0.961,6.527,1.793l0.659,1.52l1.13-0.732C55.043,9.775,62,20.076,62,32z"/>
	<g>
		<path fill="#FFC942" d="M7.504,20.89c0.939,1.794,2.051-0.599,1.965,1.196c-0.084,1.795,1.197,5.811,1.967,5.299
			c0.77-0.514,0.768-3.452,2.137-3.82c1.367-0.367,3.332-2.675,3.93-1.649c0.6,1.025,0.428,2.905,0.941,2.479
			c0.512-0.428,1.195,0,1.109,1.281c-0.084,1.282,1.111,3.077,1.453,3.761s-2.137-1.966-3.332-3.59
			c-1.197-1.623,0.854,3.419,2.393,5.299c1.537,1.88,7.35,3.247,8.887,4.017c1.539,0.769,5.727-1.453,4.102-1.367
			c0,0-3.674,0.513-5.041-0.171S23.57,32.941,23.057,32c-0.512-0.941-0.512-2.309-1.453-3.59c-0.939-1.282-1.537-3.59-0.256-2.564
			s2.65,1.197,2.82,0.513c0.172-0.684-2.393-2.991-0.77-4.017c1.625-1.025,3.162-0.256,3.932-1.025
			c0.77-0.769,2.564-3.076,2.137-4.188c-0.428-1.11-0.514-1.88,0-2.222c0.512-0.342-2.479-0.342-1.281-1.196
			c1.195-0.854,2.477-1.623,2.563,0c0.086,1.624,0,3.076,0.598,3.076c0.6,0,1.539-1.794,1.283-2.563
			c-0.258-0.769,0.256-2.478,1.453-2.563c1.195-0.086,2.563-2.051,2.904-4.017s0.342-3.504-0.598-3.333
			c-0.828,0.15-0.934-1.029,0.254-1.953C35.129,2.122,33.578,2,32,2C19.813,2,9.32,9.27,4.627,19.709
			C5.604,19.658,6.939,19.812,7.504,20.89z"/>
		<path fill="#FFC942" d="M42.627,7.9c-0.672,1.192,1.129-0.476,2.336-2.963c-0.586-0.281-1.182-0.543-1.787-0.786
			C43.199,5.178,43.154,6.962,42.627,7.9z"/>
		<path fill="#FFC942" d="M34.252,16.873c1.367-0.94,3.59-0.94,3.59-2.82s5.383-5.127,4.102-5.042
			c-1.281,0.086-3.76,2.479-3.76,0.854c0-1.623,0-4.614-0.342-5.384c-0.42-0.943-0.182,4.358-0.561,5.299
			c-0.381,0.939,0.047,4.188-1.148,4.614c-1.197,0.428-3.248,1.282-3.248,2.479S32.885,17.813,34.252,16.873z"/>
		<path fill="#FFC942" d="M35.809,32.709c0.74,0.57-0.398,2.165,0.398,1.823c0.799-0.342,1.652,0.551,2.053,0.048
			c0.398-0.504,0.455-0.891,1.709,0.157c1.252,1.049,2.164,0.832,1.367,0c-0.799-0.832-1.539-2.25-3.191-2.737
			c0,0-1.766-0.202-3.02-0.772c0,0-1.719-0.911-2.254-0.342c-0.537,0.57-0.463-1.595-0.871-1.196
			c-0.406,0.398,0.219,1.709-0.977,1.367c-1.197-0.342-1.596,0.058-1.938-0.911s-2.051-0.456-0.684-1.196
			c1.367-0.741,2.051-0.969,2.107-0.399c0.059,0.57,1.426-0.513,0.912-2.051c-0.512-1.538-1.881-1.025-1.822-2.963
			c0.025-0.884-1.367,0.342-1.141,1.425c0.229,1.082-0.285,1.311-0.797,2.165c-0.514,0.854-2.621,2.849-3.191,2.849
			c-0.568,0-0.398,1.14,0,1.823s2.393,0.798,2.793,0.911c0.398,0.114,0.854-3.076,0.969-2.222c0.113,0.854,0.283,3.418,0.568,2.849
			c0.285-0.57,1.367,0.228,1.367-0.342c0-0.57-0.455-1.532,0.627-0.994s2.564,0.88,2.508,0.254
			C33.246,31.627,35.068,32.14,35.809,32.709z M29.199,26.043c0.533,2.145-0.74,2.45-1.139,2.108S29.07,25.521,29.199,26.043z"/>
		<path fill="#FFC942" d="M40.652,39.66c-1.652-1.481-2.393-3.872-2.793-4.215c-0.658-0.566-0.361,2.05-0.578,2.563
			c-0.219,0.513-1.188-0.627-1.643-0.854c-0.457-0.228-0.172-0.569,0-1.025c0.17-0.456-0.855-0.853-1.652-0.683
			c-0.799,0.17-0.807-0.059-1.115,0.568S32.807,37.188,32,36.771c-0.807-0.416-1.318,0.211-1.889,0.838
			c-0.57,0.626-0.797,0.854-1.025,1.311c-0.229,0.455-3.361,0.17-3.361,1.651s1.311,2.678,1.025,3.817s0.229,2.336,1.197,1.767
			c0.969-0.57,2.393-0.399,2.791-0.854c0.398-0.456,3.076-1.197,3.533-0.342c0.455,0.854,0.969,1.318,1.766,1.343
			s0.912,0.765,0.912,1.335c0,0.569,1.195,0.113,1.879,0.342c0.684,0.228,2.336,0.057,2.451-1.254
			c0.113-1.311,0.854-2.222,1.139-2.905S42.305,41.142,40.652,39.66z"/>
		<path fill="#FFC942" d="M39.17,48.776c-0.797-0.114-0.17,1.766,0.342,1.937c0.514,0.171,0.783-1.122,0.742-1.937
			C40.221,48.16,39.969,48.89,39.17,48.776z"/>
		<path fill="#FFC942" d="M51.762,47.124c-0.512,0.057-0.912-1.254-1.254-0.969c-0.668,0.558,0.799,1.88,0,2.621
			c-0.797,0.74-1.025,1.854-1.652,1.952s-1.594,1.01-0.969,1.522c0.627,0.513,1.596,0,1.938-0.968
			c0.342-0.969,0.627-1.375,1.311-1.656s0.627-1.08,1.254-1.563C53.016,47.579,52.275,47.066,51.762,47.124z"/>
	</g>
</g>
</svg>
