<?xml version="1.0" encoding="utf-8"?>
<!-- Generator: Adobe Illustrator 15.0.0, SVG Export Plug-In . SVG Version: 6.00 Build 0)  -->
<!DOCTYPE svg PUBLIC "-//W3C//DTD SVG 1.1//EN" "http://www.w3.org/Graphics/SVG/1.1/DTD/svg11.dtd">
<svg version="1.1" id="Layer_1" xmlns="http://www.w3.org/2000/svg" xmlns:xlink="http://www.w3.org/1999/xlink" x="0px" y="0px"
	 width="64px" height="64px" viewBox="0 0 64 64" enable-background="new 0 0 64 64" xml:space="preserve">
<g>
	<g>
		<path fill="#42ADE2" d="M34.153,31.134c2.547,6.066-3.762,9.743-9.031,7.436c-3.931-1.723-5.195-6.282-5.142-10.19
			c0.132-9.751,11.319-14.954,19.774-13.424c10.862,1.965,15.519,14.458,13.815,24.25c-1.846,10.612-11.505,17.566-21.55,19.413
			c-3.482,0.64-2.003,5.936,1.461,5.299C48.481,61.158,59.893,48.854,59.445,33.3C59.011,18.217,46.114,6.909,31.25,9.7
			c-12.675,2.379-20.413,16.085-14.732,27.816c2.784,5.75,9.66,8.278,15.649,6.956c6.376-1.407,9.681-9.091,7.285-14.798
			C38.103,26.457,32.782,27.868,34.153,31.134L34.153,31.134z"/>
	</g>
	<g>
		<path fill="#42ADE2" d="M31.756-0.02C17.175,1.192,5.652,13.18,4.542,27.732C3.439,42.19,15.907,55.567,30.399,55.053
			C45.17,54.526,54.672,37.792,47.43,25.049c-6.798-11.961-27.075-5.244-22.216,8.795c1.152,3.327,6.462,1.896,5.299-1.461
			c-1.807-5.22,1.76-8.84,7.297-8.08c4.281,0.587,6.324,5.443,6.782,9.199c1.5,12.29-12.81,18.82-22.677,14.437
			c-9.33-4.146-13.472-14.832-11.21-24.403c2.274-9.624,11.332-17.252,21.052-18.06C35.262,5.185,35.29-0.313,31.756-0.02
			L31.756-0.02z"/>
	</g>
</g>
</svg>
