<?xml version="1.0" encoding="utf-8"?>
<!-- Generator: Adobe Illustrator 15.0.0, SVG Export Plug-In . SVG Version: 6.00 Build 0)  -->
<!DOCTYPE svg PUBLIC "-//W3C//DTD SVG 1.1//EN" "http://www.w3.org/Graphics/SVG/1.1/DTD/svg11.dtd">
<svg version="1.1" id="Layer_1" xmlns="http://www.w3.org/2000/svg" xmlns:xlink="http://www.w3.org/1999/xlink" x="0px" y="0px"
	 width="64px" height="64px" viewBox="0 0 64 64" enable-background="new 0 0 64 64" xml:space="preserve">
<g>
	<path fill="#008DB3" d="M62,32c0,16.568-13.432,30-30,30S2,48.568,2,32C2,17.602,12.144,5.572,25.674,2.668l0.847,0.014l0.61-0.288
		c0.49-0.08,0.984-0.148,1.482-0.204l1.05,0.032l0.731-0.18c0.142-0.007,0.283-0.014,0.426-0.02L32,2.186l0.781-0.176
		c0.149,0.004,0.298,0.009,0.446,0.015l1.646,0.414l1.942-0.054c0.23,0.037,0.46,0.077,0.688,0.119l7.117,4.534l7.763,2.951
		C58.298,15.469,62,23.303,62,32z"/>
	<g>
		<path fill="#FFC942" d="M33.455,11.469c1.955,0.624,1.877-0.61,3.111,0.829c0.707,0.825,1.99,2.334,3.514,2.706
			c0.211,0.053,0.688-0.403,0.688-0.768c0-0.363-1.051-1.131-1.656-1.295c-0.607-0.164,0.242-1.29-0.566-1.635
			s-1.697-1.635-2.02-2.645c-0.324-1.01-1.738-0.162-2.223-0.363c-0.484-0.203-1.09-0.082-1.615,0.686S32.954,11.309,33.455,11.469z
			"/>
		<g>
			<path fill="#FFC942" d="M44.039,39.729c-0.021-0.423-3.866-2.526-4.334-2.555c-0.769-0.045-1.816-0.431-2.519-0.019
				c-0.304,0.173-0.551,0.404-0.741,0.694c-0.132,0.25-0.882-0.216-1.172-0.061c-0.695,0.37-1.087-0.831-0.889-1.292
				c0.481-1.126-1.229-0.413-1.406-0.722c0.209,0.363-0.058-3.207-0.658-1.191c-0.454,1.526-2.23-0.224-2.017-1.332
				c0.332-1.715,2.914-1.963,3.483-1.66c0.287,0.152,1.337,1.676,1.471,1.633c0.289-0.091-0.17-1.793-0.227-2.021
				c-0.207-0.829,1.387-1.108,1.5-1.976c0.096-0.737,0.595-0.481,1.092-0.875c0.722-0.571,0.158-1.636,1.082-2.182
				c0.314-0.187,1.491-0.323,1.646-0.652c0.142-0.301-0.993-1.125-0.017-1.363c0.876-0.213,1.771,0.166,2.008-1.098
				c0.216-1.146-1.051-1.412-1.436-2.302c-0.116-0.269-0.262-1.807-0.804-1.522c-0.67,0.352-1.087,1.203-1.634,0.192
				c-0.986-1.82-3.434-2.606-2.288,0.258c0.591,1.479-1.62,5.978-1.939,1.818c-0.111-1.444-4.434-1.88-2.982-3.479
				c1.475-1.624,3.484-1.68,4.03-4.173c0.758-3.458-1.636-0.516-2.86-1.185c-1.826-0.997-0.279-0.459-1.223,0.836
				c-0.358,0.492-1.534-0.312-2.054-0.233c-0.484,0.072-1.729,1.145-2.062,0.477c-0.613-1.222-4.897-1.978-6.06-1.542
				c-2.416,0.907-3.255-0.319-5.671-0.797c-0.838-0.165-4.952-0.283-4.684,1.141c0.105,0.559,0.499,0.999,0.673,1.529
				c0.257,0.784-0.921,0.18-1.192,0.371c-0.072,0.051,1.388,1.079,1.507,1.201c0.395,0.402-1.515,0.894-1.703,1.567
				c-0.384,1.371,2.617,0.979,2.069,2.621c-0.168,0.501-1.887,1.317-2.051,2.997c-0.031,0.323,2.134-2.082,3.535-1.573
				c1.237,0.449,1.129-2.909,2.666-2.909c2.861,0,3.415,2.789,4.924,4.658c0.704,0.871,1.269,1.234,1.396,2.373
				c0.117,1.06-0.111,2.35,0.273,3.357c0.368,0.964,1.115,1.031,1.609,1.809c0.585,0.918,0.917,1.808,1.713,2.602
				c1.156,1.157,3.122,2.931,4.935,2.659c0.359-0.054,1.708,0.715,2.014,0.944c0.473,0.355,0.713,0.899,1.057,1.358
				c0.319,0.427,1.332,0.158,1.777,0.363c0.396,0.183-1.028,3.183-0.498,3.973c0.583,0.868,0.583,1.841,1.457,2.527
				c0.827,0.648,1.076,0.699,1.178,1.823c0.164,1.829-0.367,3.675-0.809,5.377c-0.227,0.875,0.23,1.841-0.109,2.676
				c-0.426,1.044-0.714,1.94-0.342,3.097c0.646,2.014,4.271,2.343,2.119,0.586c-0.915-0.748,0.988-2.552,0.396-2.727
				c-1.019-0.425,0.188-0.81,0.322-1.253c0.268-0.881,4.313-4.529,4.612-5.133c0.251-0.506,0.089-1.029,0.5-1.468
				c0.457-0.486,1.085-0.314,1.599-0.658c1.068-0.715,0.683-1.926,1.124-2.914c0.875-1.961,1.245-1.183,0.046-2.715
				C47.029,41.104,44.123,41.31,44.039,39.729z"/>
			<path fill="#FFC942" d="M22.416,10.076c0.736,0.768,1.465-0.404,1.586,0s0.141,1.168,1.02,1.23s-0.818,0.627-0.252,0.87
				c0.564,0.242,1.777,1.01,2.221,0.687c0.445-0.323,0.971-0.565,1.172-0.323c0.203,0.243,1.414-0.04,1.07-0.444
				c-0.342-0.404-1.271-1.363-1.232-1.914c0.041-0.551,1.092-1.965-0.08-1.844c-0.764,0.08-0.93,0.769-0.93,1.172
				c0,0.404-1.09-0.605-1.293-0.586c-0.201,0.021-0.969-1.231-1.252-1.231s-2.182-0.606-2.02,0S21.68,9.309,22.416,10.076z"/>
			<path fill="#FFC942" d="M39.354,15.854c-0.57-0.326-1.656-1.818-2.141-1.334c-0.486,0.484,0.121,1.576,0.523,2.061
				c0.404,0.484,2.102,1.535,1.859,1.051S40.484,16.5,39.354,15.854z"/>
			<path fill="#FFC942" d="M23.529,5.578c0.297-0.027,0.754,0.996,1.186,1.104c0.432,0.108,0.646,0.62,0.809,0.741
				s1.967-0.578,2.396-0.741c0.5-0.188-0.539-1.158-0.889-1.857c-0.35-0.701-0.08,1.158-0.592,0.856s-0.432-0.722-1.051-0.722
				s-0.189-1.267-0.971-0.997S23.234,5.605,23.529,5.578z"/>
			<path fill="#FFC942" d="M30.021,8.002C29.494,8.11,29.59,8.46,29.293,8.756c-0.295,0.297-0.268,0.7,0,1.051
				c0.27,0.35,0.701,0.967,1.023,0.375c0.324-0.591,0-1.075,0-1.453C30.316,8.352,30.281,7.948,30.021,8.002z"/>
			<path fill="#FFC942" d="M31.098,9.887c0.135,0.324,0.377-0.564,0.902-1.023c0.525-0.457-0.256-1.615-0.74-1.023
				C30.932,8.241,30.963,9.564,31.098,9.887z"/>
			<path fill="#FFC942" d="M31.002,10.291c-0.281,0.395-0.502,1.45,0,1.535c0.502,0.086,0.807-0.484,0.586-0.889
				S31.119,10.129,31.002,10.291z"/>
			<path fill="#FFC942" d="M33.037,3.477c-0.484,0.216,0.701,0.62-0.107,0.836c-0.809,0.215-0.836,0.889-1.535,0.322
				c-0.701-0.564-1.463,0.189-0.934,0.539s1.418,1.186,1.391,1.643c-0.025,0.459,0.836,0.675,1.645,0.621
				c0.807-0.055,1.777,0.188,1.803-0.162c0.027-0.351,0.123-0.495,0.027-0.755c-0.141-0.382-0.484-0.754-1.318-0.431
				c-0.836,0.323-1.377,0.162-1.496-0.242c-0.121-0.404,1.631-1.186,2.41-0.646c0.781,0.539,1.51-0.297,0.943-0.674
				s-0.189-0.781,0.201-0.835c0.283-0.038,0.539-0.752,0.748-1.308c-1.176-0.189-2.373-0.311-3.588-0.359
				C33.232,2.787,33.518,3.264,33.037,3.477z"/>
			<path fill="#FFC942" d="M25.873,2.804c0.541,0.229,1.422-0.004,1.256-0.41c-0.488,0.08-0.973,0.171-1.453,0.274
				C25.721,2.721,25.785,2.767,25.873,2.804z"/>
			<path fill="#FFC942" d="M26.207,3.234c-0.76-0.39-0.717,0.566-0.367,0.943S27.188,3.739,26.207,3.234z"/>
			<path fill="#FFC942" d="M30.82,2.023c0.568,0.104,0.938,0.546,1.031,0.871c0.102,0.34,0.918-0.399,0.93-0.885
				C32.521,2.004,32.262,2,32,2C31.605,2,31.213,2.008,30.82,2.023z"/>
			<path fill="#FFC942" d="M29.232,3.143c-0.342,0.469-0.047,1.039,0.357,0.566c0.404-0.475,0.08-1.659,0.404-1.147
				c0.322,0.512,0.916,1.325,1.32,1.362c0.402,0.038,0.053-0.474,0-0.904c-0.045-0.359-1.008-0.834-0.922-0.977
				c-0.598,0.031-1.191,0.08-1.779,0.146C29.037,2.464,29.479,2.807,29.232,3.143z"/>
			<path fill="#FFC942" d="M31.002,7.193c0.473,0.189,0-0.969,0-0.969C30.506,6.521,30.529,7.006,31.002,7.193z"/>
			<path fill="#FFC942" d="M29.293,6.439c0.082,0.324,0.594,0.432,0.863,0c0.27-0.431-0.014-2.002-0.385-1.508
				c-0.385,0.512-0.828,0.27-1.609,0S29.213,6.117,29.293,6.439z"/>
			<path fill="#FFC942" d="M34.566,33.973c0.666-0.081,1.051,0.727,1.818,0.687s1.879,1.094,2.523,0.425
				c0.525-0.546-2.303-0.99-3.23-1.475C34.748,33.124,33.898,34.053,34.566,33.973z"/>
			<path fill="#FFC942" d="M37.859,3.611c0.928,0.445,0.768,0.43,0.201,0.861s-0.363,1.375,0.889,1.308s2.02-1.307,2.586,0.444
				c0.564,1.75,0.162,3.667,0.889,4.203c0.727,0.537,0.121,0.904,0,1.407s0.201,0.866,0.768,0.705s0.404,0.89,0,1.333
				c-0.404,0.445-0.885,1.293,0.365,2.828s1.412,1.334,1.816,1.858c0.404,0.525,0.727-0.194,0.848-0.804s-0.283-2.743,1.131-2.747
				c1.414-0.005,1.818-1.136,1.98-1.499s1.293-0.323,1.898-0.849c0.537-0.465,1.137-0.858,1.154-2.671
				c-4.072-3.773-9.195-6.432-14.879-7.486C37.395,2.924,37.4,3.393,37.859,3.611z"/>
		</g>
	</g>
</g>
</svg>
