<?xml version="1.0" encoding="utf-8"?>
<!-- Generator: Adobe Illustrator 15.0.0, SVG Export Plug-In . SVG Version: 6.00 Build 0)  -->
<!DOCTYPE svg PUBLIC "-//W3C//DTD SVG 1.1//EN" "http://www.w3.org/Graphics/SVG/1.1/DTD/svg11.dtd">
<svg version="1.1" id="Layer_1" xmlns="http://www.w3.org/2000/svg" xmlns:xlink="http://www.w3.org/1999/xlink" x="0px" y="0px"
	 width="64px" height="64px" viewBox="0 0 64 64" enable-background="new 0 0 64 64" xml:space="preserve">
<g>
	<rect x="0" fill="#F2B200" width="64" height="64"/>
	<g>
		<circle fill="#FFDF99" cx="32" cy="32" r="10.72"/>
		<g>
			<g>
				<path fill="#FFDF99" d="M3.486,4.158c2.257,4.452,5.591,8.386,9.173,11.826c3.318,3.187,7.175,6.409,11.484,8.159
					c-1.889-4.648-5.449-8.775-8.945-12.289C11.691,8.352,7.561,4.787,2.91,2.909C3.081,3.334,3.278,3.75,3.486,4.158
					C3.876,4.929,3.29,3.773,3.486,4.158z"/>
				<path fill="#FFDF99" d="M42.209,19.859c-0.886,1.357-1.739,2.777-2.352,4.283c4.647-1.882,8.779-5.451,12.289-8.945
					c3.516-3.521,7.032-7.635,8.945-12.288c-3.641,1.462-6.949,4.052-9.852,6.64C47.832,12.589,44.711,16.032,42.209,19.859
					C41.816,20.461,42.996,18.655,42.209,19.859z"/>
			</g>
			<g>
				<path fill="#FFDF99" d="M29.906,0.361c-0.371,3.654-0.374,7.371-0.007,11.025c0.314,3.179,0.83,6.546,2.102,9.501
					c2.024-4.699,2.407-10.339,2.363-15.39c-0.012-1.357-0.064-2.715-0.171-4.068C34.179,1.256,34.13,0,34.008,0
					c-0.211,0-0.421,0-0.632,0c-0.749,0-1.497,0-2.246,0C30.588,0,29.959-0.243,29.906,0.361C29.727,2.12,29.917,0.24,29.906,0.361z
					"/>
				<path fill="#FFDF99" d="M18.702,3.215c0.965,3.543,2.299,7.014,3.956,10.291c1.437,2.859,3.127,5.798,5.36,8.119
					c0.198-5.112-1.468-10.511-3.309-15.213c-0.539-1.376-1.125-2.734-1.77-4.063C22.647,1.745,22.151,0,21.423,0
					c-1.162,0-2.324,0-3.486,0C18.153,1.08,18.41,2.153,18.702,3.215C19.167,4.922,18.394,2.097,18.702,3.215z"/>
				<path fill="#FFDF99" d="M42.955,2.244c-1.825,3.188-3.339,6.583-4.49,10.07c-1.007,3.036-1.896,6.315-1.945,9.534
					c2.787-2.59,4.896-6.063,6.647-9.405C45.229,8.51,46.879,4.325,47.904,0c-0.825,0-1.65,0-2.476,0c-0.353,0-0.704,0-1.057,0
					C44.029,0,43.142,1.917,42.955,2.244C42.076,3.779,43.406,1.454,42.955,2.244z"/>
			</g>
			<g>
				<path fill="#FFDF99" d="M63.639,29.905c-3.653-0.371-7.372-0.376-11.025-0.007c-3.171,0.313-6.557,0.818-9.5,2.102
					c4.719,2.007,10.323,2.405,15.389,2.362c1.357-0.012,2.715-0.065,4.068-0.172c0.173-0.014,1.43-0.063,1.43-0.183
					c0-0.211,0-0.421,0-0.632c0-0.749,0-1.498,0-2.247C64,30.584,64.243,29.963,63.639,29.905
					C61.879,29.727,63.762,29.917,63.639,29.905z"/>
				<path fill="#FFDF99" d="M60.785,18.701c-3.543,0.961-7.014,2.3-10.291,3.955c-2.858,1.438-5.8,3.126-8.119,5.361
					c5.135,0.155,10.484-1.459,15.213-3.31c1.376-0.539,2.734-1.124,4.064-1.769C62.255,22.646,64,22.15,64,21.422
					c0-1.162,0-2.324,0-3.486C62.92,18.153,61.848,18.408,60.785,18.701C59.078,19.164,61.904,18.393,60.785,18.701z"/>
			</g>
			<g>
				<path fill="#FFDF99" d="M0.362,34.1c3.653,0.371,7.372,0.365,11.025-0.006c3.18-0.315,6.541-0.834,9.501-2.094
					c-4.714-2.004-10.329-2.398-15.389-2.364c-1.357,0.009-2.715,0.061-4.068,0.167C1.257,29.816,0,29.864,0,29.987
					c0,0.211,0,0.422,0,0.633c0,0.751,0,1.502,0,2.253C0,33.42-0.243,34.041,0.362,34.1C2.122,34.278,0.241,34.088,0.362,34.1z"/>
				<path fill="#FFDF99" d="M2.245,21.045c3.187,1.824,6.582,3.341,10.07,4.489c3.03,1.007,6.319,1.908,9.535,1.945
					c-2.601-2.783-6.059-4.893-9.405-6.647C8.514,18.771,4.325,17.114,0,16.096c0,0.825,0,1.65,0,2.475c0,0.352,0,0.704,0,1.055
					C0,19.968,1.918,20.859,2.245,21.045C3.78,21.924,1.454,20.594,2.245,21.045z"/>
			</g>
		</g>
	</g>
	<polygon fill="#3E4347" points="0,29.834 0,41.096 16.717,36.729 	"/>
	<polygon fill="#D0D0D0" points="64,31.822 47.283,22.275 32,34.996 16.717,27.271 0,38.532 0,42.72 64,42.72 	"/>
	<polygon fill="#3E4347" points="47.283,22.275 52.863,28.916 42.721,32.498 55.643,36.729 42.721,40.5 16.717,27.271 
		12.514,34.996 21.281,36.729 16.717,42.72 64,42.72 64,31.822 	"/>
	<path fill="#83BF4F" d="M64,39.757c-1.826,0.308-3.557,0.903-5.137,1.743c-0.922-1.204-2.373-1.98-4.006-1.98
		c-1.418,0-2.699,0.587-3.617,1.529c-0.352-0.332-0.824-0.536-1.348-0.536c-0.785,0-1.461,0.459-1.777,1.123
		c-0.703-0.345-1.49-0.54-2.324-0.54c-1.166,0-2.244,0.379-3.117,1.019c-1.359-1.587-3.375-2.595-5.629-2.595
		c-2.197,0-4.169,0.958-5.527,2.477c-0.557-0.89-1.543-1.483-2.671-1.483c-1.423,0-2.625,0.943-3.017,2.239
		c-0.963-1.019-2.324-1.656-3.836-1.656c-1.082,0-2.086,0.325-2.924,0.884c-0.057-2.91-2.431-5.25-5.354-5.25
		c-2.664,0-4.873,1.943-5.287,4.489c-1.275-1.061-2.914-1.699-4.701-1.699c-1.361,0-2.635,0.371-3.729,1.016V64h64V39.757z"/>
	<g>
		<path fill="#699635" d="M63.518,47.225c-2.449-1.239-5.371-1.157-7.689,0.342c-0.648-2.393-2.818-4.378-5.357-4.421
			c-2.476-0.042-6.107,1.816-6.107,4.704c-1.903-0.812-4.269-0.672-5.93,0.638c-0.987-1.627-3.108-2.146-4.815-1.454
			c-0.709,0.288-0.945,0.952-1.67,0.387c-0.789-0.615-1.7-1.07-2.659-1.35c-1.864-0.543-3.875-0.385-5.641,0.42
			c-0.417,0.19-0.818,0.415-1.2,0.669c-0.402,0.268-0.769,0.761-1.204,0.955c-0.246,0.109-0.678-0.234-0.888-0.313
			c-0.533-0.202-1.115-0.318-1.684-0.355c-0.858-0.055-1.564,0.169-2.378,0.361c-0.279,0.066-0.488-0.256-0.683-0.396
			c-0.325-0.232-0.789-0.438-1.194-0.446c-0.574-0.013-1.109,0.354-1.671,0.334c-0.235-0.008-0.674-0.412-0.891-0.527
			c-0.466-0.247-0.961-0.439-1.477-0.554c-1.823-0.402-3.815,0.249-5.054,1.649c-0.487,0.55-1.519-0.211-2.097-0.395
			C2.174,47.137,1.09,46.911,0,46.739c1.708,0.452,3.4,1.008,4.917,1.933c0.494,0.302,0.85-0.519,1.219-0.795
			c0.779-0.586,1.724-0.912,2.696-0.953c0.885-0.037,1.685,0.189,2.466,0.594c0.516,0.267,0.771,0.91,1.304,1.151
			c0.235,0.106,0.485-0.216,0.639-0.346c0.307-0.256,0.742-0.33,1.127-0.245c0.362,0.08,0.668,0.296,0.867,0.607
			c0.152,0.24,0.239,0.623,0.6,0.564c0.916-0.15,1.59-0.587,2.569-0.494c0.975,0.092,1.872,0.493,2.685,1.021
			c0.444,0.289,0.586-0.079,0.974-0.41c0.423-0.361,0.847-0.726,1.288-1.065c3.055-2.355,6.909-0.541,9.177,1.871
			c0.819-1.03,1.688-2.185,3.187-1.832c1.263,0.297,1.747,1.701,2.133,2.782c1.005-0.976,2.054-2.04,3.507-2.25
			c1.555-0.226,2.907,0.518,4.212,1.254c0.155-2.78,1.094-5.261,4.134-5.798c3.025-0.535,4.997,1.893,5.655,4.529
			c2.509-2.064,5.637-2.739,8.645-1.34c-0.17-0.11-0.343-0.216-0.521-0.312C63.565,47.253,63.578,47.259,63.518,47.225
			C61.025,45.964,63.684,47.314,63.518,47.225z M14.131,48.044h0.004c-0.004,0-0.004,0-0.008,0
			C14.129,48.044,14.13,48.044,14.131,48.044L14.131,48.044z M42.043,48.816L42.043,48.816L42.043,48.816L42.043,48.816
			L42.043,48.816L42.043,48.816z"/>
	</g>
	<path fill="#699635" d="M64,58.354c-2.315-1.829-5.602-2.221-8.289-1.01c-0.729,0.329-1.403,0.772-2.012,1.291
		c-0.736,0.628-1.026,0.098-1.877-0.116c-0.728-0.184-1.5-0.226-2.244-0.148c-0.063,0.006-1.487,0.384-1.486,0.385
		c-0.434-0.581-1.211-0.911-1.925-0.921c-0.293-0.003-0.6,0.056-0.874,0.156c-0.621,0.229-0.521,0.208-1.107-0.158
		c-1.276-0.798-2.751-1.047-4.213-0.659c-0.649,0.172-1.268,0.46-1.814,0.849c-0.366,0.261-0.914,1.103-1.419,0.914
		c-1.579-0.59-3.065-1.042-4.739-1.303c1.613,0.427,3.347,0.915,4.761,1.834c0.544,0.354,0.652,0.041,1.025-0.396
		c0.563-0.657,1.571-1.047,2.401-1.191c0.854-0.147,1.729-0.071,2.533,0.255c0.697,0.283,1.059,0.758,1.61,1.235
		c0.513,0.443,0.841-0.049,1.318-0.309c0.804-0.436,1.453,0.266,1.812,0.898c0.3,0.53,1.222-0.133,1.721-0.241
		c0.975-0.212,2.092-0.092,2.983,0.36c0.221,0.112,1.121,0.934,1.355,0.773c0.535-0.365,0.863-0.994,1.399-1.388
		c2.847-2.085,6.707-1.491,9.079,1.038C64,59.822,63.98,58.914,64,58.354C61.669,56.514,64,58.354,64,58.354z M46.125,58.938
		C46.138,58.938,46.138,58.938,46.125,58.938C46.125,58.938,46.137,58.938,46.125,58.938C46.128,58.938,46.137,58.938,46.125,58.938
		z M50.244,59.61C50.249,59.61,50.265,59.61,50.244,59.61C50.244,59.61,50.248,59.61,50.244,59.61z"/>
	<path fill="#699635" d="M35.145,55.108c-2.426-1.269-5.392-1.16-7.691,0.34c-0.647-2.403-2.818-4.359-5.357-4.42
		c-1.561-0.037-3.165,0.478-4.313,1.559c-0.499,0.47-1.044,1.085-1.286,1.735c-0.158,0.425-0.174,1.074-0.508,1.409
		c-1.41-0.622-3.205-0.699-4.637-0.085c-0.365,0.156-1.223,0.915-1.489,0.472c-0.354-0.59-1.055-1.022-1.682-1.263
		c-0.71-0.271-1.479-0.335-2.223-0.172c-0.318,0.069-0.628,0.177-0.921,0.319c-0.235,0.114-0.791,0.678-1.046,0.633
		c-0.221-0.039-0.507-0.406-0.684-0.531c-0.357-0.253-0.736-0.473-1.13-0.659C1.486,54.117,0.75,53.891,0,53.744
		c0,0.482-0.019,0.966-0.019,1.447c0,0.185,1.349,0.563,1.594,0.688c1.018,0.521,1.803,1.353,2.578,2.174
		c0.821-1.028,1.686-2.186,3.186-1.832c1.262,0.298,1.747,1.701,2.133,2.782c1.005-0.975,2.054-2.039,3.507-2.249
		c1.555-0.226,2.909,0.519,4.214,1.254c0.156-2.781,1.09-5.258,4.131-5.798c3.028-0.536,4.991,1.894,5.657,4.528
		c2.519-2.062,5.628-2.727,8.645-1.339c-0.169-0.109-0.343-0.218-0.521-0.312C35.193,55.135,35.206,55.141,35.145,55.108
		C32.688,53.823,35.311,55.196,35.145,55.108z"/>
</g>
</svg>
