<?xml version="1.0" encoding="utf-8"?>
<!-- Generator: Adobe Illustrator 15.0.0, SVG Export Plug-In . SVG Version: 6.00 Build 0)  -->
<!DOCTYPE svg PUBLIC "-//W3C//DTD SVG 1.1//EN" "http://www.w3.org/Graphics/SVG/1.1/DTD/svg11.dtd">
<svg version="1.1" id="Layer_1" xmlns="http://www.w3.org/2000/svg" xmlns:xlink="http://www.w3.org/1999/xlink" x="0px" y="0px"
	 width="64px" height="64px" viewBox="0 0 64 64" enable-background="new 0 0 64 64" xml:space="preserve">
<g>
	<g>
		<rect fill="#F2B200" width="64" height="64"/>
		<g>
			<circle fill="#FFDF99" cx="32" cy="32" r="10.72"/>
			<g>
				<g>
					<path fill="#FFDF99" d="M3.485,4.157c0.391,0.771,0.984,1.837,1.772,3.04c0.785,1.204,1.763,2.549,2.885,3.916
						c1.118,1.369,2.386,2.757,3.712,4.084c1.33,1.324,2.718,2.59,4.088,3.708c1.368,1.121,2.713,2.098,3.917,2.886
						c0.603,0.392,1.167,0.739,1.681,1.035c0.513,0.296,0.97,0.544,1.355,0.737c0.384,0.198,0.696,0.342,0.912,0.438
						c0.216,0.095,0.335,0.142,0.335,0.142s-0.047-0.12-0.143-0.335c-0.095-0.216-0.238-0.528-0.437-0.912
						c-0.193-0.386-0.441-0.843-0.738-1.354c-0.295-0.515-0.642-1.079-1.035-1.682c-0.787-1.204-1.765-2.548-2.885-3.917
						c-1.118-1.37-2.384-2.758-3.707-4.088c-1.328-1.326-2.716-2.594-4.086-3.712c-1.366-1.122-2.711-2.1-3.915-2.886
						c-1.203-0.787-2.27-1.381-3.04-1.771C3.774,3.288,3.462,3.146,3.245,3.051C3.029,2.955,2.909,2.909,2.909,2.909
						s0.046,0.12,0.142,0.336C3.146,3.462,3.29,3.774,3.485,4.157z"/>
					<path fill="#FFDF99" d="M42.209,19.859c-0.393,0.603-0.74,1.167-1.035,1.682c-0.296,0.512-0.544,0.969-0.738,1.354
						c-0.197,0.384-0.341,0.696-0.437,0.912c-0.095,0.215-0.142,0.335-0.142,0.335s0.12-0.047,0.335-0.142
						c0.216-0.096,0.527-0.239,0.912-0.438c0.385-0.193,0.843-0.441,1.354-0.737c0.515-0.296,1.08-0.644,1.682-1.035
						c1.204-0.788,2.548-1.765,3.917-2.886c1.369-1.118,2.758-2.384,4.088-3.708c1.326-1.327,2.593-2.715,3.712-4.084
						c1.121-1.367,2.099-2.712,2.886-3.916c0.787-1.203,1.381-2.27,1.771-3.04c0.197-0.383,0.341-0.695,0.436-0.912
						c0.095-0.216,0.142-0.336,0.142-0.336s-0.12,0.046-0.336,0.142c-0.216,0.095-0.528,0.237-0.913,0.436
						c-0.771,0.39-1.836,0.983-3.039,1.771c-1.205,0.786-2.549,1.764-3.916,2.886c-1.37,1.118-2.757,2.386-4.085,3.712
						c-1.323,1.33-2.59,2.718-3.707,4.088C43.974,17.312,42.997,18.655,42.209,19.859z"/>
				</g>
				<g>
					<path fill="#FFDF99" d="M29.905,0.361c-0.179,1.759-0.265,3.636-0.27,5.513c0.001,1.877,0.086,3.753,0.264,5.513
						c0.174,1.759,0.433,3.401,0.729,4.81c0.294,1.407,0.628,2.58,0.897,3.4c0.132,0.41,0.252,0.733,0.337,0.954
						C31.948,20.77,32,20.888,32,20.888s0.051-0.118,0.138-0.337c0.085-0.221,0.205-0.544,0.337-0.954
						c0.27-0.82,0.603-1.993,0.897-3.4c0.296-1.408,0.554-3.051,0.728-4.81c0.179-1.76,0.264-3.636,0.264-5.513
						c-0.004-1.877-0.089-3.754-0.269-5.513C34.082,0.239,34.068,0.12,34.057,0h-4.113C29.931,0.12,29.918,0.239,29.905,0.361z"/>
					<path fill="#FFDF99" d="M18.701,3.215c0.465,1.707,1.058,3.488,1.729,5.241c0.677,1.751,1.429,3.472,2.227,5.05
						c0.794,1.581,1.625,3.021,2.404,4.229c0.391,0.604,0.765,1.152,1.114,1.629c0.349,0.479,0.665,0.892,0.938,1.228
						c0.271,0.335,0.497,0.594,0.655,0.769s0.248,0.267,0.248,0.267s0.007-0.128,0.007-0.364c0.001-0.235-0.004-0.579-0.027-1.011
						c-0.021-0.432-0.062-0.95-0.124-1.538c-0.06-0.589-0.148-1.247-0.263-1.957c-0.228-1.419-0.575-3.046-1.042-4.751
						c-0.463-1.706-1.056-3.489-1.724-5.243c-0.674-1.752-1.426-3.474-2.222-5.053C22.326,1.118,22.024,0.547,21.722,0h-3.785
						C18.14,1.014,18.394,2.097,18.701,3.215z"/>
					<path fill="#FFDF99" d="M42.955,2.244c-0.879,1.534-1.721,3.213-2.488,4.926c-0.763,1.716-1.448,3.465-2.001,5.144
						c-0.558,1.68-0.988,3.284-1.291,4.69c-0.304,1.405-0.476,2.612-0.564,3.472c-0.046,0.43-0.067,0.773-0.079,1.009
						s-0.012,0.364-0.012,0.364s0.095-0.087,0.263-0.253c0.168-0.165,0.408-0.411,0.696-0.732c0.58-0.642,1.361-1.577,2.203-2.743
						c0.843-1.165,1.746-2.561,2.621-4.098c0.879-1.534,1.719-3.215,2.483-4.929c0.76-1.716,1.444-3.466,1.996-5.146
						C47.243,2.558,47.615,1.219,47.903,0h-3.588C43.862,0.703,43.405,1.454,42.955,2.244z"/>
				</g>
				<g>
					<path fill="#FFDF99" d="M63.639,29.905c-1.76-0.18-3.636-0.265-5.513-0.27c-1.877,0.001-3.753,0.086-5.513,0.264
						c-1.76,0.174-3.401,0.433-4.809,0.729c-1.408,0.294-2.582,0.627-3.402,0.896c-0.41,0.133-0.733,0.252-0.953,0.337
						c-0.22,0.087-0.337,0.138-0.337,0.138s0.117,0.052,0.337,0.138c0.22,0.085,0.543,0.206,0.953,0.338
						c0.82,0.27,1.994,0.603,3.402,0.897c1.407,0.296,3.049,0.554,4.809,0.728c1.76,0.179,3.636,0.264,5.513,0.264
						c1.877-0.004,3.753-0.089,5.513-0.269c0.122-0.013,0.241-0.026,0.361-0.039v-4.113C63.88,29.931,63.761,29.918,63.639,29.905z"
						/>
					<path fill="#FFDF99" d="M60.784,18.701c-1.706,0.464-3.488,1.056-5.24,1.729c-1.751,0.676-3.472,1.429-5.051,2.227
						c-1.579,0.794-3.021,1.624-4.229,2.404c-0.604,0.39-1.151,0.765-1.629,1.114c-0.479,0.349-0.892,0.665-1.227,0.938
						c-0.336,0.271-0.595,0.498-0.77,0.656c-0.174,0.157-0.266,0.248-0.266,0.248s0.128,0.007,0.363,0.007s0.58-0.005,1.011-0.027
						c0.433-0.021,0.95-0.063,1.538-0.124c0.59-0.06,1.247-0.148,1.958-0.263c1.42-0.229,3.046-0.576,4.751-1.043
						c1.706-0.462,3.489-1.055,5.243-1.723c1.751-0.675,3.474-1.426,5.053-2.223c0.59-0.296,1.162-0.598,1.709-0.9v-3.785
						C62.985,18.14,61.903,18.393,60.784,18.701z"/>
				</g>
				<g>
					<path fill="#FFDF99" d="M0.361,34.1c1.76,0.179,3.636,0.264,5.513,0.264c1.877-0.004,3.753-0.089,5.513-0.269
						c1.76-0.175,3.402-0.436,4.81-0.73c0.704-0.146,1.349-0.301,1.921-0.456c0.571-0.153,1.07-0.301,1.48-0.437
						c0.411-0.131,0.733-0.251,0.953-0.335c0.22-0.086,0.337-0.138,0.337-0.138s-0.117-0.05-0.337-0.136
						c-0.22-0.085-0.542-0.204-0.953-0.336c-0.41-0.136-0.909-0.282-1.48-0.437c-0.572-0.155-1.217-0.309-1.921-0.456
						c-1.407-0.296-3.05-0.555-4.81-0.729c-1.76-0.18-3.636-0.265-5.513-0.27c-1.877,0.001-3.753,0.086-5.513,0.264
						C0.239,29.911,0.12,29.924,0,29.938v4.124C0.12,34.075,0.239,34.089,0.361,34.1z"/>
					<path fill="#FFDF99" d="M2.245,21.045c1.534,0.879,3.213,1.721,4.926,2.487c1.716,0.763,3.465,1.449,5.144,2.002
						c1.679,0.557,3.283,0.987,4.689,1.29c1.405,0.304,2.614,0.477,3.474,0.564c0.428,0.046,0.771,0.068,1.007,0.079
						c0.236,0.013,0.364,0.013,0.364,0.013s-0.086-0.096-0.252-0.263c-0.166-0.169-0.412-0.408-0.733-0.697
						c-0.642-0.58-1.577-1.361-2.743-2.202c-1.165-0.843-2.56-1.747-4.096-2.621c-1.536-0.879-3.216-1.719-4.93-2.483
						c-1.717-0.76-3.467-1.444-5.146-1.996C2.558,16.757,1.219,16.384,0,16.096v3.586C0.704,20.136,1.453,20.593,2.245,21.045z"/>
				</g>
			</g>
		</g>
	</g>
	<rect y="32" fill="#42ADE2" width="64" height="32"/>
	<ellipse fill="#FFDF99" cx="30.982" cy="36.185" rx="12.864" ry="1.419"/>
	<ellipse fill="#FFDF99" cx="34.014" cy="41.103" rx="10.292" ry="1.135"/>
	<ellipse fill="#FFDF99" cx="30.072" cy="45.51" rx="8.232" ry="0.908"/>
	<ellipse fill="#FFDF99" cx="32.559" cy="49.508" rx="6.587" ry="0.726"/>
	<ellipse fill="#FFDF99" cx="30.193" cy="53.055" rx="5.269" ry="0.582"/>
	<ellipse fill="#FFDF99" cx="32.559" cy="56.208" rx="4.216" ry="0.464"/>
</g>
</svg>
