<?xml version="1.0" encoding="utf-8"?>
<!-- Generator: Adobe Illustrator 15.0.0, SVG Export Plug-In . SVG Version: 6.00 Build 0)  -->
<!DOCTYPE svg PUBLIC "-//W3C//DTD SVG 1.1//EN" "http://www.w3.org/Graphics/SVG/1.1/DTD/svg11.dtd">
<svg version="1.1" id="Layer_1" xmlns="http://www.w3.org/2000/svg" xmlns:xlink="http://www.w3.org/1999/xlink" x="0px" y="0px"
	 width="64px" height="64px" viewBox="0 0 64 64" enable-background="new 0 0 64 64" xml:space="preserve">
<g>
	<g>
		<path fill="#FF6666" d="M62,6.503V2C35.034,2,13.172,23.776,13.172,50.638h4.521C17.692,26.264,37.532,6.503,62,6.503z"/>
		<path fill="#FFFB80" d="M17.692,50.638h4.521c0-21.884,17.814-39.631,39.786-39.631V6.503
			C37.532,6.503,17.692,26.264,17.692,50.638z"/>
		<path fill="#A3E66F" d="M62,15.51v-4.503c-21.972,0-39.786,17.747-39.786,39.631h4.521C26.735,31.238,42.525,15.51,62,15.51z"/>
		<path fill="#66C2FF" d="M26.735,50.638h4.521c0-16.911,13.766-30.624,30.743-30.624V15.51
			C42.525,15.51,26.735,31.238,26.735,50.638z"/>
		<path fill="#9180FF" d="M62,24.518v-4.504c-16.978,0-30.743,13.713-30.743,30.624h4.521C35.777,36.212,47.52,24.518,62,24.518z"/>
	</g>
	<g>
		<path fill="#FFFFFF" d="M10.137,60.652c-0.724,0-1.44-0.116-2.129-0.344c-2.781-0.913-4.651-3.484-4.651-6.398
			c0-1.946,0.848-3.796,2.326-5.078c0.382-0.332,0.796-0.619,1.24-0.856L6.9,47.975l0.45-1.56c1.123-3.894,4.75-6.613,8.819-6.613
			c0.405,0,0.821,0.032,1.311,0.103c0.375,0.054,0.742,0.13,1.102,0.226l0.18-0.323c1.644-2.945,4.766-4.775,8.146-4.775
			c5.135,0,9.312,4.154,9.312,9.261c0,0.25-0.017,0.492-0.036,0.736l-0.015,0.182c0.396,0.15,0.782,0.332,1.155,0.547
			c2.482,1.422,4.025,4.072,4.025,6.912c0,3.74-2.56,6.938-6.225,7.774c-0.598,0.138-1.205,0.209-1.801,0.209H10.137z"/>
		<path fill="#75D6FF" d="M26.907,36.38c4.394,0,7.955,3.544,7.955,7.912c0,0.213-0.015,0.42-0.032,0.627
			c-1.839,0.141-3.509,0.869-4.821,2.002c0.977-0.558,2.105-0.882,3.313-0.882c0.447,0,0.884,0.045,1.306,0.128
			c0.723,0.143,1.4,0.403,2.017,0.757c1.999,1.146,3.347,3.286,3.347,5.745c0,3.149-2.209,5.784-5.17,6.461
			c-0.482,0.11-0.982,0.174-1.498,0.174c0,0,0,0-0.001,0H10.137l0,0c-0.595,0-1.165-0.099-1.7-0.274
			c-2.162-0.711-3.723-2.733-3.723-5.119c0-1.623,0.722-3.074,1.861-4.062c0.516-0.45,1.117-0.8,1.776-1.029
			c0.56-0.193,1.159-0.306,1.786-0.306c1.749,0,3.299,0.826,4.292,2.105l0.048-0.001c-1.151-2.108-3.304-3.595-5.823-3.833
			c0.937-3.25,3.944-5.635,7.514-5.635c0.382,0,0.752,0.036,1.118,0.089c0.725,0.104,1.417,0.302,2.063,0.588
			c2.405,1.068,4.163,3.305,4.555,5.984c0-0.014,0-0.031,0-0.046c0-3.052-1.573-5.738-3.957-7.305
			C21.306,38.03,23.912,36.38,26.907,36.38 M26.907,33.684c-3.658,0-7.053,1.869-9.004,4.92c-0.075-0.011-0.151-0.022-0.227-0.035
			c-0.559-0.078-1.036-0.114-1.507-0.114c-4.671,0-8.834,3.12-10.123,7.589l-0.307,1.063c-0.333,0.212-0.651,0.451-0.952,0.712
			C3.017,49.354,2,51.575,2,53.91c0,3.497,2.245,6.582,5.585,7.679C8.407,61.862,9.268,62,10.137,62h23.185
			c0.7,0,1.41-0.081,2.112-0.244c4.278-0.977,7.271-4.715,7.271-9.087c0-3.321-1.804-6.418-4.706-8.081
			c-0.14-0.08-0.281-0.156-0.425-0.229c0-0.022,0-0.044,0-0.066C37.575,38.442,32.79,33.684,26.907,33.684L26.907,33.684z"/>
	</g>
</g>
</svg>
