<?xml version="1.0" encoding="utf-8"?>
<!-- Generator: Adobe Illustrator 15.0.0, SVG Export Plug-In . SVG Version: 6.00 Build 0)  -->
<!DOCTYPE svg PUBLIC "-//W3C//DTD SVG 1.1//EN" "http://www.w3.org/Graphics/SVG/1.1/DTD/svg11.dtd">
<svg version="1.1" id="Layer_1" xmlns="http://www.w3.org/2000/svg" xmlns:xlink="http://www.w3.org/1999/xlink" x="0px" y="0px"
	 width="64px" height="64px" viewBox="0 0 64 64" enable-background="new 0 0 64 64" xml:space="preserve">
<g>
	<path fill="#008DB3" d="M58.404,22.718l1.646,19.946C55.751,53.968,44.813,62,32,62C15.432,62,2,48.568,2,32S15.432,2,32,2
		c6.007,0,11.602,1.766,16.293,4.806L58.404,22.718z"/>
	<g>
		<g>
			<path fill="#FFC942" d="M48.287,6.802c0.346,0.957,0.617,2.14-0.439,1.587c-1.68-0.881-3.922-1.939-3.201-1.25
				s1.004,1.532-0.139,1.392c-1.143-0.142-3.143-0.382-4.023,0.898c-0.881,1.281-2.08,1.041-2.4,1.521
				c-0.32,0.479-0.801,2.561-1.682,1.921c-0.879-0.641-2.721-2.902-1.199-2.252c1.52,0.65,3.201-0.069,1.84-1.67
				c-1.361-1.602-2.801-1.041-3.361-1.921c-0.561-0.881-2.641-2.001-4.082,0.24c-1.441,2.24-2.744,5.124-3.533,5.724
				c-0.789,0.599-2.469,1.72-2.23,2.6c0.24,0.881,0.32,3.042,1.201,2.401s1.441-0.88,1.762-0.32c0.32,0.561,0.24,1.841,0.881,1.761
				c0,0,1.439-1.04,1.52-1.921c0.08-0.88-1.041-1.44-0.16-2.721c0.881-1.281,2.563-3.769,2.162-2.524
				c-0.4,1.243-1.281,3.004-0.641,3.805s4.082-0.24,2.48,0.561c-1.6,0.8-2.4,1.36-2.721,2.4c-0.32,1.041-0.561,1.842-1.361,1.441
				s-1.76-0.24-2.24-0.24s-0.641-1.841-1.281-1.44c-0.641,0.399,0.24,1.73-0.48,1.785c-0.721,0.056-0.801,0.855-1.6,1.496
				c-0.801,0.641-1.922,1.761-2.643,1.921s1.121,0.961,0.801,1.841c-0.32,0.881-1.92,0.801-2.48,0.881s-0.08,1.28-0.4,2.001
				c-0.32,0.72,0.32,1.44,1.279,1.44c0.961,0,2.002-0.24,2.082-1.121c0.08-0.88,1.041-2.4,1.682-2.081
				c0.639,0.32,2.057-0.56,2.389-0.079c0.332,0.479,2.172,2.16,2.012,2.4s-1.119,0.721-0.719,0.881c0,0,0.254,0.504,0.521,0.397
				s0.721-1.414,0.961-1.574s0.32-0.854-0.135-1.174c-0.453-0.32-2.16-1.521-1.787-2.081s1.334,0.693,1.707,1.12
				c0.375,0.428,0.961,0.881,0.988,1.814s0.561,0.881,0.641,1.334c0.08,0.454,0.266,0.644,0.801,0.575
				c0.533-0.068,0.746-1.242,0.453-1.535c-0.293-0.294-0.293-0.935,0.266-0.935c0.561,0,1.254-0.479,1.281-0.773
				c0.027-0.293,0.561-2.107,0.961-2.107s0.666,0.72,0.826,1.094c0.16,0.373,1.174-0.294,1.014-0.667
				c-0.16-0.374,0.08-0.507,0.375-0.507c0.293,0,0.053,0.773,0.346,1.014c0.295,0.24,1.654,1.121,1.201,1.574
				s-1.201,0.187-1.707-0.214c-0.508-0.399-1.814-0.16-2.162,0.24c-0.346,0.4-0.641,0.587-1.227,0.614
				c-0.588,0.026-0.508,1.094,0,1.547c0.506,0.454,1.201,0.054,1.707,0.374c0.508,0.32,1.307-0.427,1.441,0.08
				c0.133,0.507-0.08,2.027-0.588,2.081c-0.506,0.053-2.084,0.427-3.244-0.107c-1.158-0.533-2.277-0.746-2.385-0.187
				c-0.107,0.561-0.133,0.968-0.934,0.471s-1.494-0.791-2.002-0.791c-0.506,0-0.533-0.854-0.426-1.601
				c0.105-0.747-1.229-0.48-2.002-0.293c-0.773,0.187-2.4,0.747-3.361,0.747s-1.441,0.213-1.602,0.64s-1.094,0.427-1.121,1.228
				c-0.025,0.801,0.135,1.033-0.719,1.37c-0.854,0.338-1.121,1.885-1.549,2.312c-0.426,0.428,0.428,1.441,0,1.975
				c-0.426,0.534-0.832,1.921-0.123,2.241c0.711,0.32,1.404,1.654,1.725,2.188c0.32,0.534,1.387,0.961,2.455,0.801
				c1.066-0.16,3.148-0.801,4.162-0.32s2.24,0.374,1.654,1.388c-0.588,1.014,0.266,2.295,1.014,3.042
				c0.746,0.747,0.48,2.454,0.105,3.041c-0.373,0.587-0.266,1.601,0.107,2.135c0.373,0.533,0.641,1.654,0.641,2.135
				c0,0.479,0.801,1.387,0.906,2.348c0.107,0.96-0.586,2.081,0.32,2.081c0.908,0,3.203,0.106,3.363-0.32s2.027-1.975,2.508-2.722
				s1.547-1.921,1.227-2.614c-0.32-0.694,0.053-1.281,1.068-1.654c1.014-0.374,0.959-3.202,0.479-3.949
				c-0.479-0.747,0.428-2.401,1.549-2.935c1.119-0.533,3.734-5.069,2.881-4.695c-0.854,0.373-2.615,0.693-3.201,0.319
				c-0.588-0.373-4.057-6.438-3.576-6.794s3.307,5.457,3.789,6.207c0.482,0.751,5.23-2.134,5.764-2.828
				c0.533-0.693-0.32-1.44-0.641-1.44s-1.387-0.747-1.654-0.32s-2.348-2.882-1.602-2.562c0.748,0.32,2.242,1.334,3.576,2.081
				s2.988-0.533,3.949,0.961c0.959,1.494,1.6,0.48,1.547,1.228s1.227,3.575,1.654,4.482c0.426,0.906,1.334-0.374,1.441-1.441
				c0.105-1.067,2.24-2.774,2.986-3.361c0.748-0.587,2.135,0.267,2.35,1.494c0.213,1.227,1.227-0.214,1.227,0.747
				c0,0.96-0.174,2.334,0.5,3.488C61.311,39.35,62,35.755,62,32C62,21.436,56.539,12.146,48.287,6.802z"/>
			<path fill="#FFC942" d="M16.393,10.63c-0.561,0.155-1.199,0.88-2,0.48c-0.801-0.4-2.48,0.159-1.441,1.12
				c1.041,0.961,0.631,1.601,1.557,1.681s1.645-1.28,2.285-1.2S17.055,10.447,16.393,10.63z"/>
			<path fill="#FFC942" d="M40.715,49.74c-0.68,0.075-0.535,1.494-1.281,1.654c-0.748,0.16-0.111,0.8-0.455,1.334
				c-0.346,0.533-0.51,1.654,0,2.348c0.508,0.693,0.723,0.747,1.256-0.373C40.768,53.582,42.154,49.58,40.715,49.74z"/>
			<path fill="#FFC942" d="M20.65,17.27c-0.287-0.018-0.588,0.187-0.908,0.24c-0.318,0.054-0.506,0.453-0.533,0.907
				c-0.025,0.453,0.801,0.641,0.48,0.934c-0.32,0.294-1.895,0.587-1.654,1.067s0.533,0.934,0.213,1.44
				c-0.318,0.507,0.32,0.561,0.881,0.374s0.961-0.881,0.908-1.334c-0.055-0.454,0.854-0.561,0.613-0.24s-0.773,1.398-0.508,1.673
				c0.268,0.274-0.826,0.781-0.426,0.969c0.4,0.187,1.451-0.801,2.107-0.641s0.826-0.16,0.906-0.721
				c0.08-0.56-0.826-1.334-1.146-1.974C21.264,19.324,21.531,17.323,20.65,17.27z"/>
		</g>
	</g>
</g>
</svg>
