<?xml version="1.0" encoding="utf-8"?>
<!-- Generator: Adobe Illustrator 15.0.0, SVG Export Plug-In . SVG Version: 6.00 Build 0)  -->
<!DOCTYPE svg PUBLIC "-//W3C//DTD SVG 1.1//EN" "http://www.w3.org/Graphics/SVG/1.1/DTD/svg11.dtd">
<svg version="1.1" id="Layer_1" xmlns="http://www.w3.org/2000/svg" xmlns:xlink="http://www.w3.org/1999/xlink" x="0px" y="0px"
	 width="64px" height="64px" viewBox="0 0 64 64" enable-background="new 0 0 64 64" xml:space="preserve">
<g>
	<g>
		<rect fill="#3F3261" width="64" height="46"/>
		<rect y="46" fill="#42ADE2" width="64" height="10.016"/>
		<rect y="34" fill="#296D8F" width="64" height="1.016"/>
		<rect y="37" fill="#3283AB" width="64" height="2"/>
		<rect y="40.982" fill="#3B9AC9" width="64" height="3.018"/>
		<path fill="#3E4347" d="M0,55c0,0,5.775-3.779,8-4c2.836-0.281,8.164,3.281,11,3c2.225-0.221,5.789-3.668,8-4
			c1.504-0.227,4.514,1.319,6,1c1.763-0.378,4.197-3.974,6-4c2.358-0.035,5.643,4.939,8,5c2.573,0.066,6.472-4.516,9-5
			c1.98-0.379,8,1.036,8,1.036V64H0V55z"/>
	</g>
	<g>
		
			<rect x="7.439" y="22.439" transform="matrix(0.7071 -0.7071 0.7071 0.7071 -14.1274 12.8934)" fill="#FFFFFF" width="2.121" height="2.121"/>
		
			<rect x="12.439" y="17.439" transform="matrix(0.7071 -0.7071 0.7071 0.7071 -9.1274 14.9645)" fill="#FFFFFF" width="2.121" height="2.121"/>
		
			<rect x="18.439" y="20.439" transform="matrix(0.7071 -0.7071 0.7071 0.7071 -9.4914 20.0858)" fill="#FFFFFF" width="2.121" height="2.121"/>
		
			<rect x="20.439" y="12.45" transform="matrix(0.7071 -0.7071 0.7071 0.7071 -3.2563 19.16)" fill="#FFFFFF" width="2.121" height="2.121"/>
		
			<rect x="24.439" y="17.439" transform="matrix(0.7071 -0.7071 0.7071 0.7071 -5.6127 23.4497)" fill="#FFFFFF" width="2.121" height="2.121"/>
		
			<rect x="28.439" y="11.439" transform="matrix(0.7071 -0.7071 0.7071 0.7071 -0.1985 24.5208)" fill="#FFFFFF" width="2.121" height="2.121"/>
		
			<rect x="30.439" y="19.439" transform="matrix(0.7071 -0.7071 0.7071 0.7071 -5.2696 28.2782)" fill="#FFFFFF" width="2.121" height="2.121"/>
		
			<rect x="35.439" y="11.439" transform="matrix(0.7071 -0.7071 0.7071 0.7071 1.8518 29.4706)" fill="#FFFFFF" width="2.121" height="2.121"/>
		
			<rect x="41.439" y="8.439" transform="matrix(0.7071 -0.7071 0.7071 0.7071 5.7304 32.8345)" fill="#FFFFFF" width="2.121" height="2.121"/>
		
			<rect x="42.439" y="13.439" transform="matrix(0.7071 -0.7071 0.7071 0.7071 2.4878 35.0061)" fill="#FFFFFF" width="2.121" height="2.121"/>
		
			<rect x="48.439" y="13.439" transform="matrix(0.7071 -0.7071 0.7071 0.7071 4.2452 39.2487)" fill="#FFFFFF" width="2.121" height="2.121"/>
		
			<rect x="49.439" y="6.439" transform="matrix(0.7071 -0.7071 0.7071 0.7071 9.4878 37.9056)" fill="#FFFFFF" width="2.121" height="2.121"/>
		
			<rect x="57.439" y="2.439" transform="matrix(0.7071 -0.7071 0.7071 0.7071 14.6594 42.3909)" fill="#FFFFFF" width="2.121" height="2.121"/>
	</g>
	<g>
		
			<rect x="36.793" y="16.793" transform="matrix(0.7071 -0.7071 0.7071 0.7071 -1.3909 31.6421)" fill="#D9D9FF" width="1.414" height="1.414"/>
		
			<rect x="45.877" y="10.606" transform="matrix(0.7071 -0.7071 0.7071 0.7071 5.6443 36.2535)" fill="#D9D9FF" width="1.414" height="1.414"/>
		
			<rect x="60.543" y="7.043" transform="matrix(0.7071 -0.7071 0.7071 0.7071 12.4596 45.5802)" fill="#D9D9FF" width="1.414" height="1.414"/>
		
			<rect x="26.043" y="26.043" transform="matrix(0.7071 -0.7071 0.7071 0.7071 -11.0802 26.75)" fill="#D9D9FF" width="1.414" height="1.414"/>
		
			<rect x="3.043" y="23.043" transform="matrix(0.7071 -0.7071 0.7071 0.7071 -15.6954 9.6079)" fill="#D9D9FF" width="1.414" height="1.414"/>
		
			<rect x="4.293" y="14.793" transform="matrix(0.7071 -0.7071 0.7071 0.7071 -9.4957 8.0754)" fill="#D9D9FF" width="1.414" height="1.414"/>
		
			<rect x="19.043" y="5.043" transform="matrix(0.7071 -0.7071 0.7071 0.7071 1.7188 15.6495)" fill="#D9D9FF" width="1.414" height="1.414"/>
		
			<rect x="48.543" y="20.543" transform="matrix(0.7071 -0.7071 0.7071 0.7071 -0.601 41.049)" fill="#D9D9FF" width="1.414" height="1.414"/>
	</g>
	<g>
		
			<rect x="45.543" y="5.543" transform="matrix(0.7071 -0.7071 0.7071 0.7071 9.1269 34.5343)" fill="#EFE8FF" width="1.414" height="1.414"/>
		
			<rect x="54.586" y="7.107" transform="matrix(0.7071 -0.7071 0.7071 0.7071 10.6693 41.3868)" fill="#EFE8FF" width="1.414" height="1.414"/>
		
			<rect x="55.586" y="11.543" transform="matrix(0.7071 -0.7071 0.7071 0.7071 7.8258 43.3931)" fill="#EFE8FF" width="1.414" height="1.414"/>
		
			<rect x="37.043" y="7.293" transform="matrix(0.7071 -0.7071 0.7071 0.7071 5.3999 29.0364)" fill="#EFE8FF" width="1.414" height="1.414"/>
		
			<rect x="31.293" y="14.793" transform="matrix(0.7071 -0.7071 0.7071 0.7071 -1.5876 27.1673)" fill="#EFE8FF" width="1.414" height="1.414"/>
		
			<rect x="18.043" y="16.401" transform="matrix(0.7071 -0.7071 0.7071 0.7071 -6.6057 18.2692)" fill="#EFE8FF" width="1.414" height="1.414"/>
		
			<rect x="14.043" y="26.543" transform="matrix(0.7071 -0.7071 0.7071 0.7071 -14.9485 18.4112)" fill="#EFE8FF" width="1.414" height="1.414"/>
		
			<rect x="7.793" y="17.401" transform="matrix(0.7071 -0.7071 0.7071 0.7071 -10.315 11.3142)" fill="#EFE8FF" width="1.414" height="1.414"/>
		
			<rect x="3.543" y="27.543" transform="matrix(0.7071 -0.7071 0.7071 0.7071 -18.731 11.2794)" fill="#EFE8FF" width="1.414" height="1.414"/>
		
			<rect x="7.043" y="6.043" transform="matrix(0.7071 -0.7071 0.7071 0.7071 -2.503 7.4571)" fill="#EFE8FF" width="1.414" height="1.414"/>
		
			<rect x="45.293" y="28.293" transform="matrix(0.7071 -0.7071 0.7071 0.7071 -7.033 41.0208)" fill="#EFE8FF" width="1.414" height="1.414"/>
		
			<rect x="58.793" y="22.089" transform="matrix(0.7071 -0.7071 0.7071 0.7071 1.308 48.7496)" fill="#EFE8FF" width="1.414" height="1.414"/>
		
			<rect x="30.793" y="1.793" transform="matrix(0.7071 -0.7071 0.7071 0.7071 7.4584 23.0061)" fill="#EFE8FF" width="1.414" height="1.414"/>
	</g>
	<g>
		
			<rect x="54.439" y="16.146" transform="matrix(0.7071 -0.7071 0.7071 0.7071 4.3812 43.5772)" fill="#FFB8F0" width="0.707" height="0.707"/>
		
			<rect x="18.896" y="25.146" transform="matrix(0.7071 -0.7071 0.7071 0.7071 -12.393 21.0806)" fill="#FFB8F0" width="0.707" height="0.707"/>
		
			<rect x="14.396" y="8.396" transform="matrix(0.7071 -0.7071 0.7071 0.7071 -1.867 12.9926)" fill="#FFB8F0" width="0.707" height="0.707"/>
		
			<rect x="2.396" y="1.646" transform="matrix(0.7071 -0.7071 0.7071 0.7071 -0.6088 2.5303)" fill="#FFB8F0" width="0.707" height="0.707"/>
		
			<rect x="50.396" y="1.646" transform="matrix(0.7071 -0.7071 0.7071 0.7071 13.4501 36.4715)" fill="#FFB8F0" width="0.707" height="0.707"/>
		
			<rect x="31.646" y="24.896" transform="matrix(0.7071 -0.7071 0.7071 0.7071 -8.4819 30.023)" fill="#FFB8F0" width="0.707" height="0.707"/>
		
			<rect x="3.896" y="19.146" transform="matrix(0.7071 -0.7071 0.7071 0.7071 -12.5438 8.7166)" fill="#FFB8F0" width="0.707" height="0.707"/>
		
			<rect x="43.854" y="18.896" transform="matrix(0.7071 -0.7071 0.7071 0.7071 -0.6636 36.898)" fill="#FFB8F0" width="0.707" height="0.707"/>
	</g>
	<g>
		
			<rect x="54.939" y="27.396" transform="matrix(0.7071 -0.7071 0.7071 0.7071 -3.4273 47.2258)" fill="#D9ADFF" width="0.707" height="0.707"/>
		
			<rect x="60.646" y="16.755" transform="matrix(0.7071 -0.7071 0.7071 0.7071 5.769 48.1444)" fill="#D9ADFF" width="0.707" height="0.707"/>
		
			<rect x="35.146" y="28.146" transform="matrix(0.7071 -0.7071 0.7071 0.7071 -9.7548 33.4497)" fill="#D9ADFF" width="0.707" height="0.707"/>
		
			<rect x="33.146" y="9.986" transform="matrix(0.7071 -0.7071 0.7071 0.7071 2.5005 26.7165)" fill="#D9ADFF" width="0.707" height="0.707"/>
		
			<rect x="25.146" y="13.646" transform="matrix(0.7071 -0.7071 0.7071 0.7071 -2.4307 22.1317)" fill="#D9ADFF" width="0.707" height="0.707"/>
		
			<rect x="26.396" y="22.146" transform="matrix(0.7071 -0.7071 0.7071 0.7071 -8.075 25.5052)" fill="#D9ADFF" width="0.707" height="0.707"/>
		
			<rect x="13.646" y="22.396" transform="matrix(0.7071 -0.7071 0.7071 0.7071 -11.9862 16.5628)" fill="#D9ADFF" width="0.707" height="0.707"/>
		
			<rect x="10.708" y="14.146" transform="matrix(0.7071 -0.7071 0.7071 0.7071 -7.0132 12.0686)" fill="#D9ADFF" width="0.707" height="0.707"/>
		
			<rect x="2.396" y="9.486" transform="matrix(0.7071 -0.7071 0.7071 0.7071 -6.1524 4.8266)" fill="#D9ADFF" width="0.707" height="0.707"/>
		
			<rect x="14.646" y="1.646" transform="matrix(0.7071 -0.7071 0.7071 0.7071 2.9792 11.1924)" fill="#D9ADFF" width="0.707" height="0.707"/>
		
			<rect x="9.646" y="29.812" transform="matrix(0.7071 -0.7071 0.7071 0.7071 -18.4017 15.9065)" fill="#D9ADFF" width="0.707" height="0.707"/>
		
			<rect x="52.146" y="10.646" transform="matrix(0.7071 -0.7071 0.7071 0.7071 7.5987 40.3449)" fill="#D9ADFF" width="0.707" height="0.707"/>
		
			<rect x="53.771" y="4.896" transform="matrix(0.7071 -0.7071 0.7071 0.7071 12.1405 39.8098)" fill="#D9ADFF" width="0.707" height="0.707"/>
	</g>
	<g>
		
			<rect x="39.396" y="23.442" transform="matrix(0.7071 -0.7071 0.7071 0.7071 -5.1837 35.0772)" fill="#906EED" width="0.707" height="0.707"/>
		
			<rect x="61.896" y="27.896" transform="matrix(0.7071 -0.7071 0.7071 0.7071 -1.7432 52.2916)" fill="#906EED" width="0.707" height="0.707"/>
		
			<rect x="28.854" y="17.479" transform="matrix(0.7071 -0.7071 0.7071 0.7071 -4.055 25.8763)" fill="#906EED" width="0.707" height="0.707"/>
		
			<rect x="15.896" y="12.146" transform="matrix(0.7071 -0.7071 0.7071 0.7071 -4.0793 15.1517)" fill="#906EED" width="0.707" height="0.707"/>
		
			<rect x="26.646" y="6.146" transform="matrix(0.7071 -0.7071 0.7071 0.7071 3.3119 20.9957)" fill="#906EED" width="0.707" height="0.707"/>
		
			<rect x="41.146" y="1.146" transform="matrix(0.7071 -0.7071 0.7071 0.7071 11.0944 29.7843)" fill="#906EED" width="0.707" height="0.707"/>
		
			<rect x="22.396" y="29.646" transform="matrix(0.7071 -0.7071 0.7071 0.7071 -14.5499 24.8735)" fill="#906EED" width="0.707" height="0.707"/>
		
			<rect x="0.937" y="25.896" transform="matrix(0.7071 -0.7071 0.7071 0.7071 -18.1834 8.6013)" fill="#906EED" width="0.707" height="0.707"/>
		
			<rect x="55.146" y="19.896" transform="matrix(0.7071 -0.7071 0.7071 0.7071 1.9367 45.1755)" fill="#906EED" width="0.707" height="0.707"/>
		
			<rect x="59.646" y="10.896" transform="matrix(0.7071 -0.7071 0.7071 0.7071 9.6186 45.7215)" fill="#906EED" width="0.707" height="0.707"/>
		
			<rect x="61.896" y="2.313" transform="matrix(0.7071 -0.7071 0.7071 0.7071 16.3468 44.7985)" fill="#906EED" width="0.707" height="0.707"/>
		
			<rect x="39.396" y="13.813" transform="matrix(0.7071 -0.7071 0.7071 0.7071 1.6249 32.2569)" fill="#906EED" width="0.707" height="0.707"/>
	</g>
</g>
</svg>
