<?xml version="1.0" encoding="utf-8"?>
<!-- Generator: Adobe Illustrator 15.0.0, SVG Export Plug-In . SVG Version: 6.00 Build 0)  -->
<!DOCTYPE svg PUBLIC "-//W3C//DTD SVG 1.1//EN" "http://www.w3.org/Graphics/SVG/1.1/DTD/svg11.dtd">
<svg version="1.1" id="Layer_1" xmlns="http://www.w3.org/2000/svg" xmlns:xlink="http://www.w3.org/1999/xlink" x="0px" y="0px"
	 width="64px" height="64px" viewBox="0 0 64 64" enable-background="new 0 0 64 64" xml:space="preserve">
<g>
	<path fill="#42ADE2" d="M58.919,2.589c-0.371-0.141-0.748-0.224-1.123-0.263C56.845,2.111,55.597,2,54.001,2
		c-15.322,0-27.53,8.78-33.377,22.541C13.008,42.467,13.441,57.734,2,57.734C2,60.09,3.919,62,6.289,62
		c2.37,0,4.292-1.91,4.292-4.266c0,2.355,1.922,4.266,4.292,4.266c2.369,0,4.291-1.91,4.291-4.266c0,2.355,1.922,4.266,4.291,4.266
		s4.291-1.91,4.291-4.266c0,2.355,1.922,4.266,4.291,4.266c2.37,0,4.291-1.91,4.291-4.266c0,2.355,1.922,4.266,4.29,4.266
		c2.37,0,4.292-1.91,4.292-4.266C44.909,60.09,46.831,62,49.2,62c2.37,0,4.291-1.91,4.291-4.266c0,2.355,1.922,4.266,4.29,4.266
		C60.151,62,62,60.042,62,57.687c0,0-28.792-4.479-19.743-23.818c1.188-2.404,2.877-3.589,3.914-4.122
		c0.523,0.699,1.23,1.262,2.092,1.587c2.43,0.916,5.115-0.383,5.998-2.902c0.459-1.309,0.338-2.687-0.221-3.841
		c1.143-0.509,2.09-1.484,2.549-2.793c0.381-1.084,0.363-2.217,0.029-3.23c1.199-0.493,2.197-1.49,2.674-2.846
		c0.484-1.383,0.322-2.844-0.32-4.034c1.23-0.482,2.26-1.494,2.744-2.876C62.601,6.29,61.349,3.505,58.919,2.589z"/>
	<path fill="#FFFFFF" d="M50.39,23.065c-0.137,0.563,0.926,2.335,0.432,3.743c-0.672,1.913-3.967,2.427-2.123,3.122
		c1.846,0.697,3.885-0.289,4.557-2.204c0.502-1.431,0.096-2.976-0.912-3.954c1.379-0.078,2.648-0.99,3.15-2.421
		c0.502-1.432,0.096-2.978-0.914-3.955c1.381-0.077,2.648-0.99,3.152-2.421c0.514-1.47,0.07-3.055-0.996-4.029
		c1.422-0.034,2.744-0.953,3.26-2.422c0.67-1.913-0.281-4.029-2.125-4.725c-1.846-0.697,0.361,1.893-0.311,3.807
		c-0.514,1.466-2.568,2.109-2.67,2.645c-0.254,0.477,0.922,2.338,0.406,3.805c-0.494,1.408-2.406,2.059-2.648,2.58
		c-0.004,0.009-0.01,0.017-0.012,0.026c-0.004,0.009-0.006,0.019-0.008,0.028c-0.139,0.561,0.924,2.334,0.43,3.742
		s-2.406,2.057-2.648,2.579c-0.004,0.01-0.01,0.017-0.012,0.026C50.394,23.048,50.394,23.057,50.39,23.065z"/>
	<g>
		<path fill="#428BC1" d="M54.946,4.452c-1.4-0.124-2.84-0.014-4.232,0.14C47.132,4.983,43.675,5.94,40.37,7.43
			c-4.031,1.818-7.674,4.559-10.656,7.902c-4.027,4.514-6.77,10.076-8.565,15.903c-0.559,1.812,2.183,2.582,2.735,0.782
			c1.838-5.963,4.74-11.524,9.029-15.881c1.752-1.779,3.365-3.049,5.48-4.355c0.92-0.569,1.873-1.082,2.846-1.549
			c0.225-0.107,0.449-0.211,0.676-0.313c0.371-0.168-0.266,0.114,0.107-0.047c0.109-0.048,0.223-0.095,0.334-0.141
			c0.469-0.197,0.945-0.379,1.424-0.553c1.459-0.528,2.957-0.94,4.473-1.252c0.334-0.068,0.668-0.13,1.004-0.188
			c0.146-0.024,0.293-0.048,0.439-0.071c0.113-0.018,0.711-0.103,0.215-0.035c0.563-0.076,1.127-0.137,1.691-0.184
			c1.104-0.092,2.238-0.152,3.344-0.055c0.771,0.067,1.418-0.721,1.418-1.471C56.364,5.07,55.718,4.52,54.946,4.452L54.946,4.452z"
			/>
	</g>
	<g>
		<path fill="#428BC1" d="M52.456,11.609c-1.844-0.252-3.801-0.004-5.615,0.32c-4.291,0.767-8.275,2.815-11.613,5.688
			c-4.156,3.575-7.014,8.479-9.02,13.617c-0.291,0.744,0.311,1.614,0.99,1.809c0.811,0.232,1.455-0.284,1.744-1.026
			c1.227-3.14,2.842-6.178,4.92-8.797c1.689-2.13,3.563-3.866,5.705-5.27c0.939-0.616,1.926-1.153,2.941-1.624
			c0.033-0.015,0.418-0.186,0.121-0.057c0.113-0.05,0.229-0.097,0.342-0.145c0.225-0.093,0.451-0.182,0.678-0.268
			c0.469-0.178,0.943-0.337,1.422-0.484c0.83-0.253,1.674-0.451,2.523-0.607c0.186-0.034,0.369-0.064,0.555-0.093
			c0.09-0.015,0.18-0.027,0.268-0.041c-0.432,0.063-0.119,0.018-0.027,0.006c0.35-0.044,0.701-0.078,1.055-0.106
			c0.99-0.077,2.021-0.116,3.012,0.02c0.77,0.105,1.418-0.749,1.418-1.472C53.874,12.199,53.224,11.715,52.456,11.609L52.456,11.609
			z"/>
	</g>
	<g>
		<path fill="#428BC1" d="M49.983,17.579c-2.426-0.065-4.988,0.597-7.213,1.541c-5.256,2.231-8.986,6.598-10.891,12.115
			c-0.26,0.756,0.289,1.608,0.992,1.809c0.787,0.226,1.482-0.273,1.744-1.026c0.898-2.604,2.27-4.927,4.162-6.829
			c0.838-0.845,1.475-1.341,2.443-1.974c0.43-0.281,0.877-0.539,1.33-0.78c0.236-0.126,0.477-0.244,0.719-0.359
			c0.117-0.057,0.236-0.11,0.355-0.164c-0.283,0.128,0.102-0.04,0.133-0.053c0.793-0.33,1.611-0.597,2.439-0.814
			c0.359-0.094,0.721-0.175,1.084-0.248c0.18-0.035,0.361-0.067,0.541-0.099c0.117-0.021,0.711-0.105,0.203-0.036
			c0.645-0.088,1.305-0.158,1.957-0.141C51.813,20.569,51.81,17.628,49.983,17.579L49.983,17.579z"/>
	</g>
	<g>
		<path fill="#428BC1" d="M47.714,24.161c-4.371-0.045-8.453,3.043-10.301,7.017c-0.336,0.722-0.197,1.584,0.508,2.013
			c0.627,0.381,1.605,0.194,1.941-0.528c0.598-1.285,1.357-2.396,2.387-3.345c0.387-0.359,0.764-0.619,1.266-0.928
			c0.209-0.13,0.426-0.246,0.645-0.36c0.127-0.065,0.254-0.125,0.383-0.185c-0.258,0.12,0.141-0.059,0.158-0.065
			c0.746-0.304,1.527-0.51,2.318-0.634c0.189-0.03-0.346,0.039,0.07-0.005c0.111-0.013,0.225-0.021,0.336-0.028
			c0.096-0.006,0.193-0.012,0.289-0.011C49.544,27.121,49.542,24.18,47.714,24.161L47.714,24.161z"/>
	</g>
</g>
</svg>
