<?xml version="1.0" encoding="utf-8"?>
<!-- Generator: Adobe Illustrator 15.0.0, SVG Export Plug-In . SVG Version: 6.00 Build 0)  -->
<!DOCTYPE svg PUBLIC "-//W3C//DTD SVG 1.1//EN" "http://www.w3.org/Graphics/SVG/1.1/DTD/svg11.dtd">
<svg version="1.1" id="Layer_1" xmlns="http://www.w3.org/2000/svg" xmlns:xlink="http://www.w3.org/1999/xlink" x="0px" y="0px"
	 width="64px" height="64px" viewBox="0 0 64 64" enable-background="new 0 0 64 64" xml:space="preserve">
<g>
	<rect fill="#B4D7EE" width="64" height="64"/>
	<g>
		<path fill="#DAE3EA" d="M19.677,6.373c0,0.804-0.651,1.455-1.455,1.455H5.288c-0.804,0-1.455-0.651-1.455-1.455l0,0
			c0-0.804,0.651-1.455,1.455-1.455h12.934C19.025,4.918,19.677,5.569,19.677,6.373L19.677,6.373z"/>
		<path fill="#DAE3EA" d="M25.407,3.462c0,0.804-0.652,1.456-1.455,1.456H11.019c-0.804,0-1.455-0.652-1.455-1.456l0,0
			c0-0.804,0.651-1.455,1.455-1.455h12.934C24.755,2.007,25.407,2.659,25.407,3.462L25.407,3.462z"/>
		<path fill="#DAE3EA" d="M60.167,19.588c0,0.805-0.651,1.456-1.455,1.456H45.778c-0.804,0-1.455-0.651-1.455-1.456l0,0
			c0-0.804,0.651-1.455,1.455-1.455h12.934C59.516,18.133,60.167,18.784,60.167,19.588L60.167,19.588z"/>
		<path fill="#DAE3EA" d="M56.793,16.678c0,0.804-0.651,1.455-1.455,1.455H42.404c-0.804,0-1.455-0.651-1.455-1.455l0,0
			c0-0.804,0.651-1.455,1.455-1.455h12.934C56.142,15.223,56.793,15.874,56.793,16.678L56.793,16.678z"/>
	</g>
	<g>
		<g>
			<path fill="#7C8D93" d="M48,30.738c3.25,0,16,0,16,0V49H44V34.738C44,32.537,45.8,30.738,48,30.738z"/>
			<path fill="#D6EEF0" d="M60.8,34h0.4c0.439,0,0.8,0.436,0.8,0.967V49h-2V34.967C60,34.436,60.36,34,60.8,34z"/>
			<path fill="#D6EEF0" d="M55.8,34h0.4c0.439,0,0.8,0.436,0.8,0.967V49h-2V34.967C55,34.436,55.36,34,55.8,34z"/>
		</g>
		<rect x="51.306" y="27.994" fill="#7C8D93" width="11.021" height="2.864"/>
		<polygon fill="#7C8D93" points="0,28.112 13.14,28.112 13.14,22.888 0,25.888 		"/>
		<g>
			<rect y="28" fill="#7C8D93" width="13" height="21"/>
			<path fill="#D6EEF0" d="M9.5,36c0,0.549-0.45,1-1,1h-3c-0.55,0-1-0.451-1-1v-2c0-0.551,0.45-1,1-1h3c0.55,0,1,0.449,1,1V36z"/>
			<path fill="#D6EEF0" d="M9.5,44c0,0.549-0.45,1-1,1h-3c-0.55,0-1-0.451-1-1v-2c0-0.551,0.45-1,1-1h3c0.55,0,1,0.449,1,1V44z"/>
		</g>
		<polygon fill="#62727A" points="23,4 13,15.316 13,49 33,49 33,15.316 		"/>
		<path fill="#D6EEF0" d="M30,28c0,0.549-0.45,1-1,1H17c-0.55,0-1-0.451-1-1v-2c0-0.551,0.45-1,1-1h12c0.55,0,1,0.449,1,1V28z"/>
		<path fill="#FFDD7D" d="M30,44c0,0.549-0.45,1-1,1H17c-0.55,0-1-0.451-1-1v-2c0-0.551,0.45-1,1-1h12c0.55,0,1,0.449,1,1V44z"/>
		<path fill="#D6EEF0" d="M30,20c0,0.549-0.45,1-1,1H17c-0.55,0-1-0.451-1-1v-2c0-0.551,0.45-1,1-1h12c0.55,0,1,0.449,1,1V20z"/>
		<g>
			<polygon fill="#62727A" points="50,23 50,19 44,17 44,6 42,6 42,17 36,19 36,23 33,23 33,49 53,49 53,23 			"/>
			<path fill="#D6EEF0" d="M41.5,30c0,0.549-0.45,1-1,1h-3c-0.55,0-1-0.451-1-1v-2c0-0.551,0.45-1,1-1h3c0.55,0,1,0.449,1,1V30z"/>
			<path fill="#D6EEF0" d="M49.5,38c0,0.549-0.45,1-1,1h-3c-0.55,0-1-0.451-1-1v-2c0-0.551,0.45-1,1-1h3c0.55,0,1,0.449,1,1V38z"/>
			<path fill="#6ADBC6" d="M41.5,46c0,0.549-0.45,1-1,1h-3c-0.55,0-1-0.451-1-1v-2c0-0.551,0.45-1,1-1h3c0.55,0,1,0.449,1,1V46z"/>
			<path fill="#6ADBC6" d="M49.5,46c0,0.549-0.45,1-1,1h-3c-0.55,0-1-0.451-1-1v-2c0-0.551,0.45-1,1-1h3c0.55,0,1,0.449,1,1V46z"/>
		</g>
		<path fill="#D6EEF0" d="M30,36c0,0.549-0.45,1-1,1H17c-0.55,0-1-0.451-1-1v-2c0-0.551,0.45-1,1-1h12c0.55,0,1,0.449,1,1V36z"/>
	</g>
	<g>
		<polygon fill="#D0D0D0" points="0,56.012 64,46.027 64,64 0,64 		"/>
		<path fill="#E8E8E8" d="M47,40.937c0.383,0,0.744,0.077,1.08,0.208c0.38-2.379,2.43-4.202,4.919-4.202
			c2.003,0,3.721,1.183,4.518,2.882c0.684-0.545,1.54-0.885,2.484-0.885c2.207,0,3.999,1.789,3.999,3.993
			c0,2.206-1.792,3.994-3.999,3.994H47c-1.657,0-3-1.341-3-2.995C44,42.278,45.343,40.937,47,40.937z"/>
		<ellipse fill="#D0D0D0" cx="8" cy="52.918" rx="8" ry="7.988"/>
		<path fill="#E8E8E8" d="M8.9,42.533c0.497,0,0.968,0.109,1.403,0.293c0.495-3.331,3.159-5.884,6.396-5.884
			c2.604,0,4.836,1.657,5.873,4.035c0.888-0.765,2.001-1.239,3.229-1.239c2.87,0,5.199,2.504,5.199,5.591
			c0,3.089-2.329,5.592-5.199,5.592H8.9c-2.154,0-3.9-1.878-3.9-4.194C5,44.412,6.746,42.533,8.9,42.533z"/>
		<path fill="#E8E8E8" d="M0,53.966c2.489,0,4.54,1.813,4.92,4.182c0.336-0.13,0.697-0.208,1.08-0.208c1.657,0,3,1.336,3,2.98
			c0,1.646-1.343,3.03-3,3.03H0V53.966z"/>
		<path fill="#D0D0D0" d="M58.203,41.574c-2.67,0-5.087,0.949-7.019,2.477c-2.252-4.75-7.104-8.057-12.764-8.057
			c-7.03,0-12.82,5.095-13.896,11.746c-0.944-0.365-1.969-0.584-3.049-0.584c-4.684,0-8.476,3.752-8.476,8.371
			c0,4.622,3.792,8.423,8.476,8.423H64V43.17C62.303,42.164,60.324,41.574,58.203,41.574z"/>
		<path fill="#E8E8E8" d="M59.199,50.322c-0.611,0-1.191,0.125-1.727,0.333c-0.609-3.806-3.889-6.724-7.871-6.724
			c-3.205,0-5.953,1.894-7.229,4.611c-1.094-0.873-2.463-1.417-3.975-1.417c-3.531,0-6.398,2.862-6.398,6.39
			c0,3.53,2.867,6.391,6.398,6.391h20.801c2.652,0,4.801-2.146,4.801-4.793C64,52.469,61.852,50.322,59.199,50.322z"/>
		<path fill="#E8E8E8" d="M28,57.96c-0.383,0-0.744,0.077-1.08,0.208c-0.38-2.379-2.43-4.202-4.919-4.202
			c-2.003,0-3.721,1.183-4.518,2.882c-0.684-0.546-1.54-0.885-2.484-0.885c-2.207,0-3.999,1.789-3.999,3.993
			c0,2.206,1.792,3.994,3.999,3.994H28c1.657,0,3-1.342,3-2.995S29.657,57.96,28,57.96z"/>
		<path fill="#D0D0D0" d="M47,63.9c-0.945-4.557-5.063-7.987-10-7.987s-9.055,3.431-10,7.987H47z"/>
		<path fill="#D0D0D0" d="M21.5,63.95c-1.7-3.577-4.865-5.991-8.5-5.991s-6.8,2.414-8.5,5.991H21.5z"/>
		<path fill="#D0D0D0" d="M0,42.934v7.987h9.799C8.872,46.363,4.838,42.934,0,42.934z"/>
	</g>
</g>
</svg>
