<?xml version="1.0" encoding="utf-8"?>
<!-- Generator: Adobe Illustrator 15.0.0, SVG Export Plug-In . SVG Version: 6.00 Build 0)  -->
<!DOCTYPE svg PUBLIC "-//W3C//DTD SVG 1.1//EN" "http://www.w3.org/Graphics/SVG/1.1/DTD/svg11.dtd">
<svg version="1.1" id="Layer_1" xmlns="http://www.w3.org/2000/svg" xmlns:xlink="http://www.w3.org/1999/xlink" x="0px" y="0px"
	 width="64px" height="64px" viewBox="0 0 64 64" enable-background="new 0 0 64 64" xml:space="preserve">
<g>
	<g>
		<rect fill="#EF8A45" width="64" height="64"/>
		<g>
			<polygon opacity="0.5" fill="#F9B04E" points="28.25,0 30,28 34,28 35.75,0 			"/>
			<polygon opacity="0.5" fill="#F9B04E" points="46.848,0 37.041,28.604 40.736,30.136 56.482,0 			"/>
			<polygon opacity="0.5" fill="#F9B04E" points="64,8.415 43.314,31.857 46.143,34.687 64,18.93 			"/>
			<polygon opacity="0.5" fill="#F9B04E" points="64,29.369 47.865,37.265 49.395,40.96 64,35.952 			"/>
			<polygon opacity="0.5" fill="#F9B04E" points="23.264,30.135 26.959,28.604 17.152,0 7.518,0 			"/>
			<polygon opacity="0.5" fill="#F9B04E" points="0,18.93 17.857,34.686 20.686,31.857 0,8.414 			"/>
			<polygon opacity="0.5" fill="#F9B04E" points="0,35.952 14.604,40.959 16.135,37.264 0,29.367 			"/>
			<polygon fill="#F9B04E" points="0,48.875 14,48 14,44 0,43.125 			"/>
		</g>
		<g>
			<g>
				<circle fill="#FFC466" cx="32" cy="38.652" r="25.348"/>
			</g>
		</g>
	</g>
	<g>
		<g>
			<path fill="#62727A" d="M48,45.738c3.25,0,16,0,16,0V64H44V49.738C44,47.537,45.8,45.738,48,45.738z"/>
			<path fill="#D0D0D0" d="M60.8,49h0.4c0.439,0,0.8,0.436,0.8,0.967V64h-2V49.967C60,49.436,60.36,49,60.8,49z"/>
			<path fill="#D0D0D0" d="M55.8,49h0.4c0.439,0,0.8,0.436,0.8,0.967V64h-2V49.967C55,49.436,55.36,49,55.8,49z"/>
		</g>
		<rect x="51.306" y="42.994" fill="#62727A" width="11.021" height="2.864"/>
		<polygon fill="#62727A" points="0,43.112 13.14,43.112 13.14,37.888 0,40.888 		"/>
		<g>
			<rect y="43" fill="#62727A" width="13" height="21"/>
			<path fill="#ED4C5C" d="M9.5,51c0,0.549-0.45,1-1,1h-3c-0.55,0-1-0.451-1-1v-2c0-0.551,0.45-1,1-1h3c0.55,0,1,0.449,1,1V51z"/>
			<path fill="#ED4C5C" d="M9.5,59c0,0.549-0.45,1-1,1h-3c-0.55,0-1-0.451-1-1v-2c0-0.551,0.45-1,1-1h3c0.55,0,1,0.449,1,1V59z"/>
		</g>
		<polygon fill="#3E4347" points="50,38 50,34 44,32 44,21 42,21 42,32 36,34 36,38 33,38 33,30.316 23,19 13,30.316 13,64 33,64 
			53,64 53,38 		"/>
		<path fill="#6ADBC6" d="M41.5,45c0,0.549-0.45,1-1,1h-3c-0.55,0-1-0.451-1-1v-2c0-0.551,0.45-1,1-1h3c0.55,0,1,0.449,1,1V45z"/>
		<path fill="#6ADBC6" d="M49.5,53c0,0.549-0.45,1-1,1h-3c-0.55,0-1-0.451-1-1v-2c0-0.551,0.45-1,1-1h3c0.55,0,1,0.449,1,1V53z"/>
		<path fill="#6ADBC6" d="M41.5,61c0,0.549-0.45,1-1,1h-3c-0.55,0-1-0.451-1-1v-2c0-0.551,0.45-1,1-1h3c0.55,0,1,0.449,1,1V61z"/>
		<path fill="#6ADBC6" d="M49.5,61c0,0.549-0.45,1-1,1h-3c-0.55,0-1-0.451-1-1v-2c0-0.551,0.45-1,1-1h3c0.55,0,1,0.449,1,1V61z"/>
		<path fill="#FFDD7D" d="M30,43c0,0.549-0.45,1-1,1H17c-0.55,0-1-0.451-1-1v-2c0-0.551,0.45-1,1-1h12c0.55,0,1,0.449,1,1V43z"/>
		<path fill="#FFDD7D" d="M30,59c0,0.549-0.45,1-1,1H17c-0.55,0-1-0.451-1-1v-2c0-0.551,0.45-1,1-1h12c0.55,0,1,0.449,1,1V59z"/>
		<path fill="#FFDD7D" d="M30,35c0,0.549-0.45,1-1,1H17c-0.55,0-1-0.451-1-1v-2c0-0.551,0.45-1,1-1h12c0.55,0,1,0.449,1,1V35z"/>
		<path fill="#FFDD7D" d="M30,51c0,0.549-0.45,1-1,1H17c-0.55,0-1-0.451-1-1v-2c0-0.551,0.45-1,1-1h12c0.55,0,1,0.449,1,1V51z"/>
	</g>
</g>
</svg>
