<?xml version="1.0" encoding="utf-8"?>
<!-- Generator: Adobe Illustrator 15.0.0, SVG Export Plug-In . SVG Version: 6.00 Build 0)  -->
<!DOCTYPE svg PUBLIC "-//W3C//DTD SVG 1.1//EN" "http://www.w3.org/Graphics/SVG/1.1/DTD/svg11.dtd">
<svg version="1.1" id="Layer_1" xmlns="http://www.w3.org/2000/svg" xmlns:xlink="http://www.w3.org/1999/xlink" x="0px" y="0px"
	 width="64px" height="64px" viewBox="0 0 64 64" enable-background="new 0 0 64 64" xml:space="preserve">
<g>
	<g>
		<g>
			
				<rect x="34.037" y="19.027" transform="matrix(-0.7071 0.7071 -0.7071 -0.7071 86.1673 4.9468)" fill="#D0D0D0" width="16.045" height="2.587"/>
			<g>
				<path fill="#F2B200" d="M36.736,26.263c-4.757-4.756-3.914-9.196-2.326-12.491L2.739,59.991l47.047-32.013
					C46.494,29.544,41.315,30.843,36.736,26.263z"/>
			</g>
			<g>
				<path fill="#FFCE31" d="M21.567,11.095c-2.949-2.948-4.271-6.741-3.739-9.829L2.739,59.991l32.147-46.913
					C31.756,16.208,25.792,15.32,21.567,11.095z"/>
			</g>
			<g>
				<path fill="#FF8736" d="M61.599,45.037c-3.088,0.53-6.882-0.792-9.829-3.74c-4.225-4.225-5.113-10.188-1.983-13.319
					L2.739,59.991L61.599,45.037z"/>
			</g>
		</g>
		<path fill="#3E4347" d="M46.816,13.733l0.101,0.101l1.729,1.729l0.346,0.346l6.262-6.262c1.025-1.025,2.979-0.735,4.364,0.65
			c1.384,1.385,1.675,3.339,0.649,4.365l-0.019,0.017c-0.513,0.514-0.367,1.491,0.325,2.183c0.693,0.692,1.67,0.838,2.183,0.324
			c0.001-0.002,0.002-0.003,0.005-0.004c0.005-0.004,0.009-0.01,0.013-0.014c2.052-2.051,1.47-5.958-1.3-8.728
			c-2.769-2.77-6.677-3.351-8.729-1.3l0,0l-6.261,6.262L46.816,13.733z"/>
		<path fill="#3E4347" d="M0.462,62.269c0.506,0.505,1.219,0.611,1.594,0.236c0.003-0.002,1.357-1.357,3.132-3.131
			c-0.154-0.385-0.399-0.765-0.731-1.098c-0.336-0.333-0.715-0.578-1.1-0.732c-1.773,1.773-3.129,3.128-3.132,3.131
			C-0.149,61.05-0.044,61.763,0.462,62.269z"/>
	</g>
	<path fill="#3E4347" d="M44.419,21.3c-0.103,0.01-0.269-0.107-0.417-0.258l0,0l-0.384-0.382l1.151-1.153
		C44.58,20.464,44.88,21.257,44.419,21.3z"/>
</g>
</svg>
