<?xml version="1.0" encoding="utf-8"?>
<!-- Generator: Adobe Illustrator 15.0.0, SVG Export Plug-In . SVG Version: 6.00 Build 0)  -->
<!DOCTYPE svg PUBLIC "-//W3C//DTD SVG 1.1//EN" "http://www.w3.org/Graphics/SVG/1.1/DTD/svg11.dtd">
<svg version="1.1" id="Layer_1" xmlns="http://www.w3.org/2000/svg" xmlns:xlink="http://www.w3.org/1999/xlink" x="0px" y="0px"
	 width="64px" height="64px" viewBox="0 0 64 64" enable-background="new 0 0 64 64" xml:space="preserve">
<g>
	<g>
		<circle fill="#3E4347" cx="32" cy="32" r="30"/>
	</g>
	<g>
		<circle fill="#464D51" cx="25.941" cy="7.804" r="3.413"/>
		<circle fill="#464D51" cx="46.869" cy="14.6" r="5.671"/>
		<circle fill="#464D51" cx="34.743" cy="14.134" r="2.6"/>
		<circle fill="#464D51" cx="57.494" cy="36.992" r="2.021"/>
		<circle fill="#464D51" cx="55.473" cy="22.292" r="2.021"/>
		<circle fill="#464D51" cx="22.528" cy="15.67" r="2.021"/>
		<circle fill="#464D51" cx="14.411" cy="16.733" r="4.631"/>
		<circle fill="#464D51" cx="51.946" cy="29.43" r="2.6"/>
	</g>
	<g opacity="0.7">
		<path fill="#FFFFFF" d="M33.795,32.984c0.095-0.344,0.382-0.633,0.677-0.848c0.299-0.221,0.629-0.365,0.948-0.51
			c0.649-0.263,1.294-0.413,1.916-0.54c1.247-0.24,2.419-0.359,3.51-0.521c1.093-0.164,2.086-0.35,3.038-0.717
			c0.957-0.359,1.892-0.963,2.947-1.87c0.115,1.38-0.521,2.827-1.639,3.833c-1.117,1.012-2.565,1.531-3.913,1.722
			c-1.362,0.196-2.673,0.102-3.899-0.097c-0.615-0.103-1.21-0.229-1.792-0.354C34.994,32.967,34.46,32.808,33.795,32.984z"/>
		<path fill="#FFFFFF" d="M17.825,35.121c-1.096,0.267-1.599,0.803-2.344,1.284c-0.717,0.487-1.55,1.004-2.612,1.313
			c-1.038,0.318-2.396,0.337-3.491-0.211c-1.094-0.539-1.822-1.471-2.079-2.557c1.11,0.179,1.979,0.329,2.701,0.281
			c0.716-0.035,1.297-0.189,2.046-0.397c0.74-0.204,1.604-0.499,2.646-0.644c0.521-0.063,1.095-0.09,1.674,0.038
			C16.939,34.364,17.509,34.637,17.825,35.121z"/>
		<path fill="#FFFFFF" d="M14.322,23.531c1.668-0.143,3.444,0.148,5.037,1.073c0.781,0.475,1.487,1.106,2.072,1.836
			c0.576,0.736,1.008,1.569,1.348,2.418c0.683,1.708,0.901,3.5,0.965,5.238c0.043,1.745-0.102,3.461-0.362,5.141
			c-0.133,0.84-0.282,1.674-0.471,2.497c-0.154,0.708-0.209,1.328-0.145,1.938c0.131,1.181,0.83,2.127,2.088,2.712
			c1.242,0.554,2.799,0.747,4.333,0.592c1.546-0.139,3.099-0.597,4.531-1.461c-1.021,1.348-2.573,2.289-4.236,2.843
			c-1.674,0.52-3.54,0.722-5.411,0.16c-0.923-0.284-1.873-0.763-2.617-1.55c-0.753-0.771-1.256-1.809-1.443-2.837
			c-0.204-1.017-0.136-2.066,0.031-2.97c0.133-0.792,0.271-1.579,0.383-2.367c0.438-3.137,0.725-6.321,0.084-9.206
			c-0.345-1.424-0.971-2.752-2.053-3.775C17.399,24.752,15.908,24.068,14.322,23.531z"/>
		<path fill="#FFFFFF" d="M19.063,53.365c2.734,0.033,5.348,0.229,7.919,0.136c2.566-0.068,5.076-0.335,7.489-0.923
			c2.412-0.588,4.764-1.501,7.075-2.617c2.327-1.099,4.561-2.468,6.977-3.75c-1.576,2.217-3.519,4.17-5.771,5.777
			c-2.252,1.594-4.819,2.839-7.574,3.504c-2.754,0.669-5.605,0.739-8.338,0.355C24.104,55.45,21.482,54.607,19.063,53.365z"/>
	</g>
</g>
</svg>
