<?xml version="1.0" encoding="utf-8"?>
<!-- Generator: Adobe Illustrator 15.0.0, SVG Export Plug-In . SVG Version: 6.00 Build 0)  -->
<!DOCTYPE svg PUBLIC "-//W3C//DTD SVG 1.1//EN" "http://www.w3.org/Graphics/SVG/1.1/DTD/svg11.dtd">
<svg version="1.1" id="Layer_1" xmlns="http://www.w3.org/2000/svg" xmlns:xlink="http://www.w3.org/1999/xlink" x="0px" y="0px"
	 width="64px" height="64px" viewBox="0 0 64 64" enable-background="new 0 0 64 64" xml:space="preserve">
<g>
	<path fill="#42ADE2" d="M32,2C15.458,2,2,15.459,2,32c0,16.543,13.458,30,30,30s30-13.457,30-30C62,15.459,48.542,2,32,2z
		 M52.047,48.204c-1.195-1.083-2.464-2.058-3.793-2.923c1.674-3.385,2.703-7.074,3.012-10.859h6.409
		C57.189,39.613,55.158,44.363,52.047,48.204z M6.325,34.422h6.297c0.312,3.803,1.35,7.514,3.039,10.914
		c-1.299,0.852-2.538,1.809-3.708,2.868C8.842,44.363,6.811,39.613,6.325,34.422z M11.952,15.797
		c1.171,1.061,2.41,2.018,3.709,2.867c-1.783,3.588-2.842,7.52-3.084,11.547H6.273C6.648,24.773,8.716,19.793,11.952,15.797z
		 M29.895,9.559v9.648c-2.927-0.234-5.746-0.955-8.368-2.125C23.717,14.012,26.568,11.429,29.895,9.559z M29.895,23.428v6.783
		H16.796c0.235-3.359,1.127-6.57,2.558-9.488C22.637,22.254,26.193,23.175,29.895,23.428z M29.895,34.422v6.15
		c-3.714,0.255-7.282,1.181-10.574,2.723c-1.327-2.732-2.182-5.727-2.473-8.873H29.895z M29.895,44.795v9.668
		c-3.363-1.867-6.226-4.447-8.413-7.523C24.116,45.758,26.951,45.029,29.895,44.795z M34.105,54.375v-9.58
		c2.894,0.23,5.681,0.938,8.277,2.084C40.215,49.929,37.394,52.502,34.105,54.375z M34.105,40.572v-6.15h12.934
		c-0.297,3.111-1.157,6.088-2.488,8.812C41.295,41.729,37.771,40.824,34.105,40.572z M34.105,30.211v-6.783
		c3.666-0.25,7.192-1.156,10.45-2.662c1.418,2.906,2.302,6.102,2.536,9.445H34.105z M34.105,19.207V9.623
		c3.292,1.872,6.113,4.445,8.282,7.496C39.79,18.268,37.001,18.975,34.105,19.207z M44.532,12.966
		c-1.984-2.404-4.327-4.471-6.918-6.138c4.357,0.971,8.302,3.048,11.524,5.92c-0.954,0.857-1.962,1.637-3.016,2.333
		C45.626,14.354,45.096,13.648,44.532,12.966z M19.355,12.967c-0.55,0.666-1.068,1.354-1.556,2.063
		c-1.026-0.684-2.008-1.445-2.938-2.281c3.181-2.835,7.064-4.896,11.355-5.883C23.647,8.525,21.325,10.579,19.355,12.967z
		 M17.801,48.971c0.408,0.594,0.838,1.174,1.29,1.738c2.022,2.521,4.44,4.689,7.13,6.428c-4.292-0.986-8.178-3.048-11.359-5.884
		C15.793,50.416,16.774,49.654,17.801,48.971z M44.573,50.984c0.548-0.666,1.065-1.355,1.551-2.064
		c1.054,0.696,2.061,1.476,3.015,2.333c-3.223,2.872-7.167,4.948-11.524,5.92C40.225,55.494,42.58,53.41,44.573,50.984z
		 M51.311,30.211c-0.241-4.008-1.289-7.92-3.057-11.492c1.329-0.864,2.598-1.839,3.793-2.922c3.237,3.996,5.305,8.977,5.68,14.414
		H51.311z"/>
</g>
</svg>
