<?xml version="1.0" encoding="utf-8"?>
<!-- Generator: Adobe Illustrator 15.0.0, SVG Export Plug-In . SVG Version: 6.00 Build 0)  -->
<!DOCTYPE svg PUBLIC "-//W3C//DTD SVG 1.1//EN" "http://www.w3.org/Graphics/SVG/1.1/DTD/svg11.dtd">
<svg version="1.1" id="Layer_1" xmlns="http://www.w3.org/2000/svg" xmlns:xlink="http://www.w3.org/1999/xlink" x="0px" y="0px"
	 width="64px" height="64px" viewBox="0 0 64 64" enable-background="new 0 0 64 64" xml:space="preserve">
<g>
	<g>
		<polygon fill="#FFCE31" points="32,2 39.081,23.012 62,23.012 43.459,36 50.541,57.01 32,44.023 13.459,57.01 20.541,36 2,23.012 
			24.919,23.012 		"/>
		<polygon fill="#FFFFFF" points="32,13.413 36.248,26.4 50,26.4 38.877,34.427 43.123,47.413 32,39.386 20.875,47.413 
			25.123,34.427 14,26.4 27.751,26.4 		"/>
	</g>
	<g>
		<polygon fill="#FFDF85" points="46.234,20.344 50.159,8.857 39.721,16.068 41.182,20.344 		"/>
		<polygon fill="#FFDF85" points="27.911,50.034 31.999,62 36.089,50.034 31.999,47.21 		"/>
		<polygon fill="#FFDF85" points="50.68,34.307 46.855,36.948 48.479,41.701 61.383,41.701 		"/>
		<polygon fill="#FFDF85" points="24.277,16.068 13.84,8.857 17.765,20.344 22.818,20.344 		"/>
		<polygon fill="#FFDF85" points="13.321,34.307 2.616,41.701 15.52,41.701 17.145,36.948 		"/>
	</g>
</g>
</svg>
