<?xml version="1.0" encoding="utf-8"?>
<!-- Generator: Adobe Illustrator 15.0.0, SVG Export Plug-In . SVG Version: 6.00 Build 0)  -->
<!DOCTYPE svg PUBLIC "-//W3C//DTD SVG 1.1//EN" "http://www.w3.org/Graphics/SVG/1.1/DTD/svg11.dtd">
<svg version="1.1" id="Layer_1" xmlns="http://www.w3.org/2000/svg" xmlns:xlink="http://www.w3.org/1999/xlink" x="0px" y="0px"
	 width="64px" height="64px" viewBox="0 0 64 64" enable-background="new 0 0 64 64" xml:space="preserve">
<g>
	<g>
		<path fill="#FFE8A6" d="M32.001,2c-1.104,0-2,13.432-2,30s0.896,30,2,30C48.568,62,62,48.568,62,32S48.568,2,32.001,2z"/>
		<path fill="#3E4347" d="M30.001,32c0-16.568,0.896-30,2-30c-16.568,0-30,13.432-30,30s13.432,30,30,30
			C30.896,62,30.001,48.568,30.001,32z"/>
	</g>
	<g>
		<g>
			<circle fill="#F4DC9F" cx="50" cy="35.248" r="7"/>
			<path fill="#F4DC9F" d="M30.149,43.344c0.14,5.105,0.369,9.508,0.66,12.751c1.454-1.599,2.349-3.716,2.349-6.048
				C33.158,47.38,31.992,44.992,30.149,43.344z"/>
			<circle fill="#F4DC9F" cx="37" cy="18.248" r="4"/>
			<circle fill="#F4DC9F" cx="39" cy="9.248" r="2"/>
			<circle fill="#F4DC9F" cx="52" cy="50.047" r="2"/>
			<circle fill="#F4DC9F" cx="46.002" cy="52.623" r="4"/>
			<path fill="#F4DC9F" d="M34.16,10.75c0-2.114-1.315-3.913-3.168-4.645c-0.268,2.353-0.496,5.608-0.666,9.491
				C32.522,15.069,34.16,13.104,34.16,10.75z"/>
		</g>
		<g>
			<path fill="#464D51" d="M24.158,41.047c-0.133,0-0.262,0.015-0.393,0.02c0.227-0.631,0.355-1.309,0.355-2.018
				c0-3.314-2.687-6.002-6-6.002c-3.314,0-6,2.688-6,6.002c0,2.854,1.995,5.237,4.666,5.844c-1.023,1.461-1.629,3.235-1.629,5.154
				c0,4.971,4.029,9,9,9c2.639,0,5.005-1.143,6.651-2.952c-0.291-3.243-0.521-7.646-0.66-12.751
				C28.557,41.92,26.462,41.047,24.158,41.047z"/>
			<path fill="#464D51" d="M24,21.248c2.209,0,4-1.789,4-4c0-0.645-0.168-1.245-0.438-1.784c0.505,0.171,1.036,0.284,1.599,0.284
				c0.403,0,0.791-0.061,1.166-0.151c0.17-3.883,0.398-7.139,0.666-9.491c-0.569-0.225-1.185-0.357-1.832-0.357
				c-2.764,0-5.002,2.238-5.002,5.002c0,0.961,0.285,1.851,0.756,2.612c-0.295-0.068-0.598-0.114-0.914-0.114c-2.209,0-4,1.791-4,4
				C20,19.459,21.791,21.248,24,21.248z"/>
			<circle fill="#464D51" cx="12.123" cy="25.924" r="4"/>
			<circle fill="#464D51" cx="8.121" cy="39.047" r="2"/>
			<circle fill="#464D51" cx="25" cy="29.924" r="3"/>
			<circle fill="#464D51" cx="15" cy="15.748" r="2"/>
		</g>
	</g>
</g>
</svg>
