<?xml version="1.0" encoding="utf-8"?>
<!-- Generator: Adobe Illustrator 15.0.0, SVG Export Plug-In . SVG Version: 6.00 Build 0)  -->
<!DOCTYPE svg PUBLIC "-//W3C//DTD SVG 1.1//EN" "http://www.w3.org/Graphics/SVG/1.1/DTD/svg11.dtd">
<svg version="1.1" id="Layer_1" xmlns="http://www.w3.org/2000/svg" xmlns:xlink="http://www.w3.org/1999/xlink" x="0px" y="0px"
	 width="64px" height="64px" viewBox="0 0 64 64" enable-background="new 0 0 64 64" xml:space="preserve">
<g>
	<g>
		<path fill="#3E4347" d="M49,32c0-16.568-7.611-30-17-30C15.432,2,2,15.432,2,32s13.432,30,30,30C41.389,62,49,48.568,49,32z"/>
		<path fill="#FFE8A6" d="M32,2c9.389,0,17,13.432,17,30s-7.611,30-17,30c16.568,0,30-13.432,30-30S48.568,2,32,2z"/>
	</g>
	<g>
		<g>
			<path fill="#464D51" d="M48.869,28.348c-3.328,0.54-5.87,3.42-5.87,6.901c0,3.184,2.127,5.866,5.036,6.715
				C48.658,38.846,49,35.494,49,32C49,30.763,48.952,29.545,48.869,28.348z"/>
			<path fill="#464D51" d="M24.156,41.047c-0.133,0-0.261,0.014-0.393,0.02c0.227-0.632,0.356-1.309,0.356-2.019
				c0-3.313-2.687-6.001-6.001-6.001c-3.313,0-5.999,2.688-5.999,6.001c0,2.854,1.995,5.237,4.665,5.845
				c-1.023,1.461-1.628,3.235-1.628,5.154c0,4.97,4.028,9,8.999,9s9.001-4.03,9.001-9C33.157,45.076,29.127,41.047,24.156,41.047z"
				/>
			<path fill="#464D51" d="M23.999,21.248c2.209,0,3.999-1.79,3.999-4c0-0.645-0.167-1.245-0.438-1.785
				c0.504,0.172,1.035,0.285,1.598,0.285c2.761,0,5.001-2.24,5.001-4.998c0-2.764-2.24-5.002-5.001-5.002
				c-2.764,0-5.001,2.238-5.001,5.002c0,0.961,0.284,1.851,0.756,2.613c-0.295-0.069-0.599-0.115-0.914-0.115
				c-2.209,0-4.001,1.791-4.001,4C19.998,19.458,21.79,21.248,23.999,21.248z"/>
			<circle fill="#464D51" cx="36.999" cy="18.248" r="4"/>
			<circle fill="#464D51" cx="12.121" cy="25.923" r="4"/>
			<circle fill="#464D51" cx="38.998" cy="9.248" r="2"/>
			<circle fill="#464D51" cx="8.12" cy="39.047" r="2"/>
			<circle fill="#464D51" cx="24.998" cy="29.923" r="3"/>
			<circle fill="#464D51" cx="14.998" cy="15.748" r="2"/>
			<path fill="#464D51" d="M41.999,52.623c0,0.93,0.33,1.773,0.862,2.453c1.262-1.853,2.369-4.021,3.284-6.438
				c-0.05-0.002-0.096-0.015-0.146-0.015C43.791,48.623,41.999,50.414,41.999,52.623z"/>
		</g>
		<path fill="#F4DC9F" d="M56.999,35.249c0-3.866-3.135-7.001-7.001-7.001c-0.385,0-0.76,0.039-1.129,0.1
			C48.952,29.545,49,30.763,49,32c0,3.494-0.342,6.846-0.965,9.964c0.623,0.182,1.281,0.284,1.963,0.284
			C53.864,42.248,56.999,39.114,56.999,35.249z"/>
		<circle fill="#F4DC9F" cx="51.999" cy="50.047" r="2"/>
		<path fill="#F4DC9F" d="M46,56.623c2.209,0,3.999-1.79,3.999-4c0-2.159-1.714-3.907-3.854-3.985
			c-0.915,2.417-2.022,4.586-3.284,6.438C43.594,56.012,44.721,56.623,46,56.623z"/>
	</g>
</g>
</svg>
