<?xml version="1.0" encoding="utf-8"?>
<!-- Generator: Adobe Illustrator 15.0.0, SVG Export Plug-In . SVG Version: 6.00 Build 0)  -->
<!DOCTYPE svg PUBLIC "-//W3C//DTD SVG 1.1//EN" "http://www.w3.org/Graphics/SVG/1.1/DTD/svg11.dtd">
<svg version="1.1" id="Layer_1" xmlns="http://www.w3.org/2000/svg" xmlns:xlink="http://www.w3.org/1999/xlink" x="0px" y="0px"
	 width="64px" height="64px" viewBox="0 0 64 64" enable-background="new 0 0 64 64" xml:space="preserve">
<g>
	<g>
		<path fill="#FFE8A6" d="M34,32c0-16.568-0.895-30-2-30C15.432,2,2,15.432,2,32s13.431,30,30,30C33.105,62,34,48.568,34,32z"/>
		<path fill="#3E4347" d="M32,2c1.105,0,2,13.432,2,30s-0.895,30-2,30c16.568,0,30-13.432,30-30S48.568,2,32,2z"/>
	</g>
	<g>
		<g>
			<path fill="#F4DC9F" d="M24.157,41.047c-0.132,0-0.261,0.014-0.392,0.02c0.226-0.632,0.355-1.31,0.355-2.02c0-3.313-2.688-6-6-6
				c-3.314,0-6,2.688-6,6c0,2.855,1.994,5.238,4.665,5.846c-1.022,1.461-1.628,3.235-1.628,5.154c0,4.969,4.028,9,8.999,9
				s9.001-4.031,9.001-9C33.158,45.076,29.128,41.047,24.157,41.047z"/>
			<path fill="#F4DC9F" d="M24,21.248c2.209,0,3.999-1.791,3.999-4c0-0.645-0.167-1.245-0.438-1.785
				c0.504,0.172,1.035,0.285,1.598,0.285c1.91,0,3.552-1.085,4.394-2.659c-0.107-1.989-0.232-3.767-0.37-5.285
				c-0.911-1.241-2.368-2.056-4.023-2.056c-2.764,0-5.001,2.238-5.001,5.002c0,0.961,0.285,1.851,0.756,2.613
				c-0.295-0.069-0.598-0.115-0.914-0.115c-2.209,0-4.001,1.791-4.001,4S21.791,21.248,24,21.248z"/>
			<path fill="#F4DC9F" d="M33.854,20.691c-0.045-1.643-0.1-3.21-0.162-4.691c-0.436,0.641-0.692,1.414-0.692,2.248
				C32.999,19.173,33.326,20.014,33.854,20.691z"/>
			<circle fill="#F4DC9F" cx="12.122" cy="25.922" r="4"/>
			<circle fill="#F4DC9F" cx="8.121" cy="39.047" r="2"/>
			<circle fill="#F4DC9F" cx="24.999" cy="29.922" r="3"/>
			<circle fill="#F4DC9F" cx="14.999" cy="15.748" r="2"/>
		</g>
		<g>
			<circle fill="#464D51" cx="49.999" cy="35.248" r="7"/>
			<path fill="#464D51" d="M37,14.248c-1.375,0-2.588,0.695-3.309,1.752c0.063,1.481,0.117,3.049,0.162,4.691
				c0.731,0.94,1.862,1.557,3.146,1.557c2.209,0,3.999-1.791,3.999-4S39.209,14.248,37,14.248z"/>
			<circle fill="#464D51" cx="38.999" cy="9.248" r="2"/>
			<circle fill="#464D51" cx="52" cy="50.047" r="2"/>
			<circle fill="#464D51" cx="46.001" cy="52.623" r="4"/>
			<path fill="#464D51" d="M33.183,7.804c0.138,1.519,0.263,3.296,0.37,5.285c0.375-0.701,0.607-1.489,0.607-2.339
				C34.16,9.644,33.79,8.631,33.183,7.804z"/>
		</g>
	</g>
</g>
</svg>
