<?xml version="1.0" encoding="utf-8"?>
<!-- Generator: Adobe Illustrator 15.0.0, SVG Export Plug-In . SVG Version: 6.00 Build 0)  -->
<!DOCTYPE svg PUBLIC "-//W3C//DTD SVG 1.1//EN" "http://www.w3.org/Graphics/SVG/1.1/DTD/svg11.dtd">
<svg version="1.1" id="Layer_1" xmlns="http://www.w3.org/2000/svg" xmlns:xlink="http://www.w3.org/1999/xlink" x="0px" y="0px"
	 width="64px" height="64px" viewBox="0 0 64 64" enable-background="new 0 0 64 64" xml:space="preserve">
<g>
	<path fill="#FFE8A6" d="M22.402,2.154c5.037,2.469,9.391,6.371,12.356,11.522c1.563,2.715,2.625,5.575,3.213,8.479
		c0.803,3.943,0.119,9.505-6.827,7.61c-3.719-1.015-7.316,5.671-0.355,7.57c2.01,0.548-4.725,2.127,0.422,4.895
		c0,0-5.488,1.34-2.146,3.904c1.51,1.158-0.205,3.136-1.068,3.853c-1.422,1.181-2.977,2.248-4.658,3.182
		C18.478,55.863,13.185,57.082,8,56.976c9.316,6.075,21.762,6.891,32.252,1.073c14.818-8.217,20.119-26.542,11.838-40.93
		C45.969,6.484,34.141,0.987,22.402,2.154z"/>
	<g>
		<g>
			<path fill="#F4DC9F" d="M42.895,47.476c-1.473-0.401-2.996,0.445-3.404,1.888c-0.41,1.441,0.451,2.938,1.922,3.34
				s2.994-0.444,3.402-1.888C45.223,49.373,44.363,47.877,42.895,47.476z"/>
			<path fill="#F4DC9F" d="M46.908,15c-1.471-0.401-2.994,0.443-3.404,1.888c-0.406,1.442,0.455,2.938,1.924,3.339
				c1.473,0.4,2.994-0.443,3.402-1.886C49.24,16.896,48.379,15.401,46.908,15z"/>
			<path fill="#F4DC9F" d="M34.129,48.522c-2.434-0.663-4.954,0.734-5.631,3.122c-0.676,2.39,0.748,4.864,3.182,5.528
				c2.434,0.664,4.956-0.734,5.633-3.123C37.988,51.662,36.563,49.187,34.129,48.522z"/>
			<path fill="#F4DC9F" d="M51.115,31.097c-2.561-0.698-5.213,0.771-5.926,3.285c-0.711,2.514,0.787,5.118,3.35,5.816
				c2.559,0.698,5.211-0.772,5.924-3.286C55.174,34.398,53.676,31.796,51.115,31.097z"/>
			<path fill="#F4DC9F" d="M24.267,55.149c-1.166-0.317-2.375,0.352-2.699,1.498c-0.324,1.145,0.357,2.329,1.525,2.647
				c1.166,0.318,2.373-0.351,2.699-1.495C26.117,56.653,25.433,55.469,24.267,55.149z"/>
			<path fill="#F4DC9F" d="M38.506,7.395c-0.912-0.249-1.859,0.275-2.111,1.171c-0.254,0.896,0.279,1.825,1.193,2.074
				c0.912,0.249,1.857-0.277,2.111-1.172C39.953,8.571,39.418,7.644,38.506,7.395z"/>
		</g>
	</g>
	<g>
		<path fill="#7F5629" d="M45.529,41.731c-0.313,0.548-0.878,0.944-1.448,1.224c-0.582,0.278-1.198,0.469-1.821,0.595
			c-1.247,0.264-2.514,0.307-3.767,0.271c-1.253-0.056-2.497-0.202-3.719-0.463c-1.22-0.255-2.427-0.603-3.564-1.127
			c2.478,0.246,4.894,0.502,7.321,0.591c1.21,0.054,2.42,0.054,3.614-0.041c0.596-0.055,1.19-0.131,1.765-0.284
			C44.491,42.353,45.042,42.135,45.529,41.731z"/>
	</g>
	<g>
		<path fill="#B79918" d="M37.438,46.811c-1.269,0.065-2.439-0.087-3.605-0.177c-0.581-0.061-1.156-0.098-1.729-0.122
			c-0.577-0.011-1.14-0.01-1.761,0.128c0.412-0.505,1.064-0.771,1.685-0.904c0.631-0.142,1.271-0.145,1.895-0.098
			C35.165,45.769,36.372,46.113,37.438,46.811z"/>
	</g>
	<g>
		<path fill="#7F5629" d="M34.533,37.501c-0.326-0.192-0.56-0.285-0.788-0.354l-0.74-0.176c-0.537-0.151-1.145-0.36-1.617-0.903
			c0.682-0.223,1.25-0.205,1.874-0.063c0.302,0.093,0.643,0.218,0.915,0.495C34.447,36.764,34.598,37.156,34.533,37.501z"/>
	</g>
	<g>
		<path fill="#FFFFFF" d="M44.051,23.014c2.721,0.742,4.744,3.624,3.986,6.294c-0.756,2.669-4.004,4.113-6.723,3.371
			c-2.721-0.742-2.164-2.921-1.408-5.589C40.664,24.419,41.332,22.271,44.051,23.014z"/>
		<path fill="#7F5629" d="M42.756,24.612c1.699,0.463,3.135,2.313,2.662,3.981c-0.473,1.668-2.674,2.524-4.373,2.06
			c-1.699-0.463-1.338-1.82-0.865-3.49C40.652,25.494,41.057,24.147,42.756,24.612z"/>
	</g>
	<g>
		<path fill="#B79918" d="M37.125,35.235c0.692,0.972,1.726,1.496,2.731,2.042l3.138,1.542c1.043,0.55,2.104,1.123,3.037,1.927
			c0.465,0.398,0.896,0.865,1.199,1.423c0.298,0.558,0.415,1.228,0.236,1.804c-0.087-1.227-0.994-1.988-1.909-2.606
			c-0.944-0.613-1.979-1.13-3.02-1.657c-1.033-0.543-2.092-1.08-3.082-1.766C38.497,37.27,37.45,36.427,37.125,35.235z"/>
	</g>
</g>
</svg>
