<?xml version="1.0" encoding="utf-8"?>
<!-- Generator: Adobe Illustrator 15.0.0, SVG Export Plug-In . SVG Version: 6.00 Build 0)  -->
<!DOCTYPE svg PUBLIC "-//W3C//DTD SVG 1.1//EN" "http://www.w3.org/Graphics/SVG/1.1/DTD/svg11.dtd">
<svg version="1.1" id="Layer_1" xmlns="http://www.w3.org/2000/svg" xmlns:xlink="http://www.w3.org/1999/xlink" x="0px" y="0px"
	 width="64px" height="64px" viewBox="0 0 64 64" enable-background="new 0 0 64 64" xml:space="preserve">
<g>
	<g>
		<path fill="#FFE62E" d="M20.519,59.717l7.027-7.2c-2.498-0.54-4.824-1.529-6.904-2.87L20.519,59.717z"/>
		<path fill="#FFE62E" d="M43.482,4.284l-7.027,7.199c2.498,0.541,4.824,1.529,6.904,2.871L43.482,4.284z"/>
		<path fill="#FFE62E" d="M4.283,43.479l10.07-0.122c-1.341-2.08-2.33-4.406-2.869-6.903L4.283,43.479z"/>
		<path fill="#FFE62E" d="M59.717,20.52l-10.07,0.123c1.342,2.08,2.33,4.407,2.871,6.904L59.717,20.52z"/>
		<path fill="#FFE62E" d="M4.284,20.519l7.2,7.027c0.54-2.498,1.529-4.824,2.87-6.904L4.284,20.519z"/>
		<path fill="#FFE62E" d="M59.717,43.48l-7.201-7.026c-0.539,2.497-1.527,4.824-2.869,6.904L59.717,43.48z"/>
		<path fill="#FFE62E" d="M20.52,4.283l0.122,10.07c2.08-1.342,4.407-2.33,6.904-2.87L20.52,4.283z"/>
		<path fill="#FFE62E" d="M43.48,59.716l-0.121-10.069c-2.08,1.341-4.408,2.33-6.904,2.87L43.48,59.716z"/>
	</g>
	<g>
		<path fill="#FFCE31" d="M14.751,43.962l-3.965,9.251l9.252-3.965C17.976,47.815,16.185,46.023,14.751,43.962z"/>
		<path fill="#FFCE31" d="M49.25,20.039l3.965-9.252l-9.252,3.965C46.025,16.186,47.816,17.977,49.25,20.039z"/>
		<path fill="#FFCE31" d="M11.351,28.259L2,31.999l9.352,3.74C11.132,34.524,11,33.278,11,32S11.132,29.476,11.351,28.259z"/>
		<path fill="#FFCE31" d="M52.648,35.741L62,32l-9.352-3.741C52.867,29.476,53,30.722,53,32C53,33.279,52.867,34.525,52.648,35.741z
			"/>
		<path fill="#FFCE31" d="M20.039,14.751l-9.252-3.965l3.965,9.252C16.185,17.976,17.976,16.185,20.039,14.751z"/>
		<path fill="#FFCE31" d="M43.963,49.248l9.25,3.965l-3.965-9.251C47.816,46.024,46.025,47.815,43.963,49.248z"/>
		<path fill="#FFCE31" d="M35.742,11.352L32,2l-3.741,9.352C29.476,11.133,30.721,11,32,11C33.279,11,34.525,11.133,35.742,11.352z"
			/>
		<path fill="#FFCE31" d="M28.259,52.648L32,62l3.742-9.352C34.525,52.867,33.279,53,32,53C30.721,53,29.476,52.867,28.259,52.648z"
			/>
	</g>
	<circle fill="#FFCE31" cx="32" cy="32" r="19"/>
	<path fill="#664E27" d="M22.211,37.839c1.649,0.971,3.243,1.559,4.875,1.949c1.627,0.391,3.268,0.557,4.913,0.561
		c1.647-0.007,3.288-0.174,4.911-0.564c1.633-0.391,3.227-0.978,4.879-1.945c-0.707,1.812-2.277,3.235-4.029,4.147
		c-1.77,0.919-3.775,1.361-5.76,1.359c-1.986-0.002-3.99-0.444-5.757-1.364C24.491,41.071,22.92,39.648,22.211,37.839z"/>
	<g>
		<g>
			<g>
				<circle fill="#664E27" cx="24.717" cy="28.575" r="2.85"/>
			</g>
			<g>
				<circle fill="#664E27" cx="39.285" cy="28.575" r="2.85"/>
			</g>
		</g>
	</g>
</g>
</svg>
