<?xml version="1.0" encoding="utf-8"?>
<!-- Generator: Adobe Illustrator 15.0.0, SVG Export Plug-In . SVG Version: 6.00 Build 0)  -->
<!DOCTYPE svg PUBLIC "-//W3C//DTD SVG 1.1//EN" "http://www.w3.org/Graphics/SVG/1.1/DTD/svg11.dtd">
<svg version="1.1" id="Layer_1" xmlns="http://www.w3.org/2000/svg" xmlns:xlink="http://www.w3.org/1999/xlink" x="0px" y="0px"
	 width="64px" height="64px" viewBox="0 0 64 64" enable-background="new 0 0 64 64" xml:space="preserve">
<g>
	<circle fill="#FFE8A6" cx="32" cy="32" r="30"/>
	<g>
		<circle fill="#F4DC9F" cx="49.999" cy="35.249" r="7"/>
		<circle fill="#F4DC9F" cx="18.12" cy="39.048" r="6"/>
		<circle fill="#F4DC9F" cx="24.157" cy="50.047" r="9"/>
		<circle fill="#F4DC9F" cx="23.998" cy="17.248" r="4"/>
		<circle fill="#F4DC9F" cx="36.998" cy="18.248" r="4"/>
		<circle fill="#F4DC9F" cx="12.12" cy="25.922" r="4"/>
		<circle fill="#F4DC9F" cx="38.998" cy="9.248" r="2"/>
		<circle fill="#F4DC9F" cx="8.12" cy="39.046" r="2"/>
		<circle fill="#F4DC9F" cx="51.999" cy="50.046" r="2"/>
		<circle fill="#F4DC9F" cx="24.998" cy="29.923" r="3"/>
		<circle fill="#F4DC9F" cx="14.998" cy="15.748" r="2"/>
		<circle fill="#F4DC9F" cx="45.999" cy="52.623" r="4"/>
		<path fill="#F4DC9F" d="M24.157,10.75c0,2.758,2.237,4.998,5.001,4.998c2.761,0,5.001-2.24,5.001-4.998
			c0-2.764-2.24-5.002-5.001-5.002C26.395,5.748,24.157,7.986,24.157,10.75z"/>
	</g>
</g>
</svg>
