<?xml version="1.0" encoding="utf-8"?>
<!-- Generator: Adobe Illustrator 15.0.0, SVG Export Plug-In . SVG Version: 6.00 Build 0)  -->
<!DOCTYPE svg PUBLIC "-//W3C//DTD SVG 1.1//EN" "http://www.w3.org/Graphics/SVG/1.1/DTD/svg11.dtd">
<svg version="1.1" id="Layer_1" xmlns="http://www.w3.org/2000/svg" xmlns:xlink="http://www.w3.org/1999/xlink" x="0px" y="0px"
	 width="64px" height="64px" viewBox="0 0 64 64" enable-background="new 0 0 64 64" xml:space="preserve">
<g>
	<g>
		<circle fill="#FFE8A6" cx="32" cy="31.998" r="30"/>
		<g>
			<circle fill="#F4DC9F" cx="49.999" cy="35.247" r="7"/>
			<circle fill="#F4DC9F" cx="18.12" cy="39.046" r="6"/>
			<circle fill="#F4DC9F" cx="24.157" cy="50.045" r="9"/>
			<circle fill="#F4DC9F" cx="23.998" cy="17.246" r="4"/>
			<circle fill="#F4DC9F" cx="36.998" cy="18.246" r="4"/>
			<circle fill="#F4DC9F" cx="12.12" cy="25.92" r="4"/>
			<circle fill="#F4DC9F" cx="38.998" cy="9.246" r="2"/>
			<circle fill="#F4DC9F" cx="8.12" cy="39.044" r="2"/>
			<circle fill="#F4DC9F" cx="51.999" cy="50.044" r="2"/>
			<circle fill="#F4DC9F" cx="24.998" cy="29.921" r="3"/>
			<circle fill="#F4DC9F" cx="14.998" cy="15.746" r="2"/>
			<circle fill="#F4DC9F" cx="45.999" cy="52.621" r="4"/>
			<path fill="#F4DC9F" d="M24.157,10.748c0,2.758,2.237,4.998,5.001,4.998c2.761,0,5.001-2.24,5.001-4.998
				c0-2.764-2.24-5.002-5.001-5.002C26.395,5.746,24.157,7.984,24.157,10.748z"/>
		</g>
	</g>
	<g>
		<g>
			<path fill="#D3B475" d="M15.259,46.872c-0.393-0.71-0.604-1.513-0.629-2.349c-0.026-0.824,0.172-1.771,0.854-2.475
				c0.703-0.683,1.647-0.882,2.473-0.855c0.838,0.025,1.641,0.236,2.35,0.63c-0.805,0.012-1.574,0.034-2.301,0.149
				c-0.717,0.121-1.393,0.346-1.814,0.783c-0.438,0.422-0.662,1.098-0.784,1.814C15.291,45.297,15.27,46.066,15.259,46.872z"/>
		</g>
		<g>
			<path fill="#D3B475" d="M43.691,41.825c0.711-0.394,1.513-0.603,2.35-0.629c0.831-0.021,1.755,0.157,2.488,0.868
				c0.652,0.674,0.873,1.641,0.841,2.457c-0.024,0.838-0.236,1.641-0.629,2.351c-0.013-0.806-0.035-1.575-0.149-2.301
				c-0.129-0.724-0.33-1.378-0.798-1.829c-0.394-0.41-1.09-0.654-1.801-0.771C45.268,41.857,44.497,41.835,43.691,41.825z"/>
		</g>
	</g>
	<g>
		<g>
			<g>
				<ellipse fill="#7F5629" cx="18.983" cy="26.574" rx="3.5" ry="4"/>
			</g>
		</g>
	</g>
	<g>
		<g>
			<g>
				<ellipse fill="#7F5629" cx="45.015" cy="26.414" rx="3.501" ry="4"/>
			</g>
		</g>
	</g>
	<path fill="#7F5629" d="M46.683,42.768c-0.296,1.434-1.229,2.709-2.292,3.756c-1.079,1.042-2.378,1.87-3.699,2.508
		c-2.738,1.293-5.715,1.872-8.691,1.88c-2.971-0.004-5.966-0.591-8.677-1.874l-0.518-0.255l-0.464-0.257
		c-0.341-0.192-0.666-0.387-0.974-0.596c-0.625-0.417-1.216-0.885-1.759-1.406c-1.062-1.048-1.997-2.322-2.293-3.756
		c0.988,1.053,2.096,1.79,3.292,2.357c0.591,0.289,1.199,0.538,1.813,0.759l0.913,0.303l0.499,0.149l0.456,0.124
		c2.517,0.662,5.117,0.94,7.713,0.953c2.591-0.002,5.209-0.289,7.701-0.94c1.286-0.339,2.504-0.764,3.695-1.34
		C44.592,44.563,45.7,43.824,46.683,42.768z"/>
	<path fill="#7F5629" d="M35.396,39.196c-0.854,0.828-2.134,1.268-3.404,1.223c-1.263-0.054-2.561-0.466-3.6-1.373
		c-0.518-0.446-0.975-1.028-1.229-1.728c-0.264-0.692-0.323-1.473-0.2-2.193c0.03-0.158,0.079-0.395,0.119-0.515
		c0.064-0.198,0.124-0.358,0.191-0.515c0.133-0.314,0.281-0.6,0.432-0.874c0.302-0.547,0.617-1.046,0.915-1.539
		c1.247-1.917,2.229-3.825,2.265-5.947c0.051-2.119-0.832-4.283-1.946-6.357c1.751,1.552,3.225,3.691,3.505,6.281
		c0.16,1.279-0.065,2.597-0.467,3.796c-0.421,1.201-1.05,2.278-1.661,3.286c-0.626,0.98-1.308,1.952-1.5,2.757
		c-0.23,0.842,0.026,1.696,0.663,2.433C30.795,39.355,33.212,40.142,35.396,39.196z"/>
</g>
</svg>
