<?xml version="1.0" encoding="utf-8"?>
<!-- Generator: Adobe Illustrator 15.0.0, SVG Export Plug-In . SVG Version: 6.00 Build 0)  -->
<!DOCTYPE svg PUBLIC "-//W3C//DTD SVG 1.1//EN" "http://www.w3.org/Graphics/SVG/1.1/DTD/svg11.dtd">
<svg version="1.1" id="Layer_1" xmlns="http://www.w3.org/2000/svg" xmlns:xlink="http://www.w3.org/1999/xlink" x="0px" y="0px"
	 width="64px" height="64px" viewBox="0 0 64 64" enable-background="new 0 0 64 64" xml:space="preserve">
<g>
	<path fill="#FFE8A6" d="M41.598,2.154c-5.037,2.469-9.39,6.371-12.355,11.522c-1.563,2.715-2.625,5.575-3.213,8.479
		c-0.803,3.943-0.119,9.505,6.826,7.61c3.718-1.015,7.316,5.671,0.355,7.57c-2.009,0.548,4.725,2.127-0.421,4.895
		c0,0,5.488,1.34,2.146,3.904c-1.51,1.158,0.205,3.136,1.068,3.853c1.422,1.181,2.977,2.248,4.658,3.182
		c4.859,2.693,10.152,3.912,15.338,3.806c-9.316,6.075-21.762,6.891-32.251,1.073C8.93,49.832,3.629,31.507,11.911,17.119
		C18.032,6.484,29.86,0.987,41.598,2.154z"/>
	<g>
		<g>
			<path fill="#F4DC9F" d="M21.106,47.476c1.473-0.401,2.996,0.445,3.404,1.888c0.41,1.441-0.451,2.938-1.922,3.34
				s-2.994-0.444-3.402-1.888C18.778,49.373,19.637,47.877,21.106,47.476z"/>
			<path fill="#F4DC9F" d="M17.092,15c1.471-0.401,2.994,0.443,3.402,1.888c0.408,1.442-0.453,2.938-1.922,3.339
				c-1.473,0.4-2.996-0.443-3.402-1.886C14.76,16.896,15.622,15.401,17.092,15z"/>
			<path fill="#F4DC9F" d="M29.872,48.522c2.434-0.663,4.953,0.734,5.63,3.122c0.676,2.39-0.748,4.864-3.181,5.528
				c-2.434,0.664-4.955-0.734-5.633-3.123C26.012,51.662,27.438,49.187,29.872,48.522z"/>
			<path fill="#F4DC9F" d="M12.885,31.097c2.561-0.698,5.213,0.771,5.926,3.285c0.711,2.514-0.787,5.118-3.348,5.816
				s-5.213-0.772-5.926-3.286C8.827,34.398,10.325,31.796,12.885,31.097z"/>
			<path fill="#F4DC9F" d="M39.732,55.149c1.166-0.317,2.375,0.352,2.699,1.498c0.324,1.145-0.357,2.329-1.525,2.647
				c-1.166,0.318-2.373-0.351-2.699-1.495C37.883,56.653,38.566,55.469,39.732,55.149z"/>
			<path fill="#F4DC9F" d="M25.495,7.395c0.912-0.249,1.859,0.275,2.111,1.171c0.254,0.896-0.279,1.825-1.193,2.074
				c-0.912,0.249-1.857-0.277-2.111-1.172C24.047,8.571,24.583,7.644,25.495,7.395z"/>
		</g>
	</g>
	<g>
		<path fill="#7F5629" d="M18.471,41.731c0.487,0.403,1.038,0.621,1.62,0.766c0.574,0.153,1.168,0.229,1.764,0.284
			c1.194,0.095,2.404,0.095,3.614,0.041c2.426-0.089,4.842-0.345,7.32-0.591c-1.137,0.524-2.344,0.872-3.564,1.127
			c-1.221,0.261-2.465,0.407-3.718,0.463c-1.252,0.035-2.52-0.008-3.767-0.271c-0.623-0.126-1.239-0.316-1.821-0.595
			C19.349,42.676,18.784,42.279,18.471,41.731z"/>
	</g>
	<g>
		<path fill="#B79918" d="M26.563,46.811c1.065-0.697,2.272-1.042,3.517-1.173c0.624-0.047,1.263-0.044,1.894,0.098
			c0.621,0.133,1.273,0.399,1.685,0.904c-0.621-0.138-1.185-0.139-1.761-0.128c-0.574,0.024-1.149,0.062-1.729,0.122
			C29.002,46.724,27.832,46.876,26.563,46.811z"/>
	</g>
	<g>
		<path fill="#7F5629" d="M29.467,37.501c-0.065-0.345,0.085-0.737,0.356-1.001c0.272-0.277,0.613-0.402,0.915-0.495
			c0.623-0.143,1.192-0.16,1.874,0.063c-0.472,0.543-1.08,0.752-1.616,0.903l-0.741,0.176
			C30.026,37.216,29.794,37.309,29.467,37.501z"/>
	</g>
	<g>
		<path fill="#FFFFFF" d="M19.95,23.014c-2.721,0.742-4.744,3.624-3.986,6.294c0.756,2.669,4.004,4.113,6.723,3.371
			c2.721-0.742,2.164-2.921,1.408-5.589C23.336,24.419,22.668,22.271,19.95,23.014z"/>
		<path fill="#7F5629" d="M21.245,24.612c-1.699,0.463-3.135,2.313-2.662,3.981c0.473,1.668,2.674,2.524,4.373,2.06
			c1.699-0.463,1.338-1.82,0.865-3.49C23.348,25.494,22.944,24.147,21.245,24.612z"/>
	</g>
	<g>
		<path fill="#B79918" d="M26.875,35.235c-0.326,1.191-1.372,2.034-2.331,2.708c-0.99,0.686-2.048,1.223-3.083,1.766
			c-1.041,0.527-2.075,1.044-3.019,1.657c-0.916,0.618-1.822,1.38-1.909,2.606c-0.179-0.576-0.062-1.246,0.236-1.804
			c0.302-0.558,0.734-1.024,1.199-1.423c0.934-0.804,1.994-1.377,3.037-1.927l3.138-1.542C25.15,36.731,26.184,36.207,26.875,35.235
			z"/>
	</g>
</g>
</svg>
