<?xml version="1.0" encoding="utf-8"?>
<!-- Generator: Adobe Illustrator 15.0.0, SVG Export Plug-In . SVG Version: 6.00 Build 0)  -->
<!DOCTYPE svg PUBLIC "-//W3C//DTD SVG 1.1//EN" "http://www.w3.org/Graphics/SVG/1.1/DTD/svg11.dtd">
<svg version="1.1" id="Layer_1" xmlns="http://www.w3.org/2000/svg" xmlns:xlink="http://www.w3.org/1999/xlink" x="0px" y="0px"
	 width="64px" height="64px" viewBox="0 0 64 64" enable-background="new 0 0 64 64" xml:space="preserve">
<g>
	<path fill="#D9A559" d="M51.276,4.362c5.819,5.82,0.033,21.037-12.922,33.994C25.399,51.313,10.179,57.097,4.361,51.278
		c-8.621-8.621,8.176-12.83,21.13-25.785C38.447,12.538,42.656-4.259,51.276,4.362z"/>
	<path fill="#FBBF67" d="M27.167,27.171c12.428-12.43,16.81-28.377,24.756-22.047c-0.199-0.266-0.409-0.525-0.646-0.762
		c-8.62-8.621-12.829,8.176-25.786,21.131C12.537,38.448-4.26,42.657,4.361,51.278c0.236,0.238,0.494,0.447,0.762,0.646
		C-1.208,43.978,14.739,39.597,27.167,27.171z"/>
	<path fill="#C94747" d="M54.623,5.194c5.792,5.795-2.046,20.336-15.85,34.139c-13.804,13.805-28.345,21.643-34.14,15.85
		c-6.715-6.717,10.424-11.957,24.227-25.762C42.664,15.616,47.905-1.521,54.623,5.194z"/>
	<path fill="#FBBF67" d="M59.791,12.876c5.744,5.746-0.104,20.902-13.059,33.857S18.619,65.536,12.874,59.792
		c-5.744-5.744,9.018-11.988,21.974-24.943C47.803,21.894,54.046,7.132,59.791,12.876z"/>
	<g opacity="0.5">
		<path opacity="0.5" fill="#3E4347" d="M54.487,12.534c0.685-0.449,1.345-0.754,1.984-0.875c0.284-2.672-0.277-4.893-1.849-6.465
			c-1.342-1.34-2.622-1.719-3.925-1.375C54.299,5.968,55.185,9.077,54.487,12.534z"/>
		<path opacity="0.5" fill="#3E4347" d="M13.234,53.54c-8.285,2.873-9.681-3.064-9.682-3.07c-0.756,1.578-0.528,3.104,1.081,4.713
			c1.672,1.67,4.073,2.201,6.973,1.789C11.648,55.888,12.235,54.755,13.234,53.54z"/>
	</g>
	<path fill="#D9A559" d="M43.661,43.661C24.851,62.47,13.437,59.612,12.454,59.319c0.127,0.156,0.263,0.316,0.42,0.473
		c5.745,5.744,20.904-0.104,33.859-13.059c12.251-12.25,18.139-26.463,13.888-32.832C62.041,19.267,58.94,28.382,43.661,43.661z"/>
	<path opacity="0.5" fill="#3E4347" d="M14.358,44.903c2.228,0.521,3.9,1.389,3.735,1.936c-0.165,0.551-2.107,0.57-4.334,0.051
		c-2.229-0.521-3.9-1.389-3.735-1.936C10.189,44.403,12.13,44.384,14.358,44.903z"/>
	<path opacity="0.5" fill="#3E4347" d="M20.223,40.714c2.227,0.521,3.899,1.389,3.733,1.938c-0.165,0.549-2.105,0.57-4.332,0.049
		c-2.229-0.52-3.901-1.389-3.735-1.936C16.053,40.216,17.995,40.194,20.223,40.714z"/>
	<path opacity="0.5" fill="#3E4347" d="M26.924,35.688c2.228,0.52,3.9,1.389,3.735,1.936c-0.164,0.549-2.107,0.57-4.334,0.051
		c-2.229-0.521-3.899-1.389-3.735-1.938C22.755,35.188,24.697,35.169,26.924,35.688z"/>
	<path opacity="0.5" fill="#3E4347" d="M32.789,29.823c2.229,0.521,3.901,1.389,3.737,1.936c-0.166,0.551-2.106,0.57-4.334,0.051
		c-2.229-0.521-3.9-1.389-3.735-1.938S30.561,29.304,32.789,29.823z"/>
	<path opacity="0.5" fill="#3E4347" d="M39.492,23.122c2.228,0.52,3.899,1.387,3.735,1.936c-0.165,0.549-2.106,0.57-4.334,0.051
		c-2.229-0.521-3.899-1.389-3.736-1.938C35.323,22.622,37.265,22.601,39.492,23.122z"/>
	<path opacity="0.5" fill="#3E4347" d="M45.356,15.581c2.228,0.52,3.9,1.389,3.735,1.936c-0.165,0.549-2.105,0.57-4.334,0.051
		c-2.228-0.521-3.901-1.389-3.735-1.938C41.188,15.083,43.128,15.062,45.356,15.581z"/>
	<g>
		<path fill="#FFCE31" d="M10.545,52.124c0.795-4.41,4.895-2.689,6.818-5.654c0.952-1.469,1.541-3.152,2.329-4.717
			c0.729-1.445,3.588-0.914,5.094-1.439c3.656-1.268,2.095-8.328,6.58-7.885c2.097,0.205,4.784-0.75,5.12-3.24
			c0.171-1.275,0.166-2.352,0.025-3.645c-0.398-3.617,4.259-2.975,5.997-3.943c2.387-1.33,3.359-2.77,2.613-5.514
			c-0.766-2.809,3.4,0.184,7.081-3.5c1.776-1.775,0.548-4.928-0.45-6.063c-1.52-1.727-2.669,0.236-2.517,2.516
			c0.105,1.574-3.02,0.92-4.253,0.904c-0.778-0.008-1.899,0.207-2.475,0.801c-1.823,1.877,0.373,3.973-0.832,6.244
			c-1.457,2.746-5.193,0.865-7.639,4.395c-2.375,3.428-0.503,7.695-3.797,7.371c-2.404-0.236-3.994,2.232-5.054,3.979
			c-1.146,1.885-1.622,4.787-4.576,4.465c-0.998-0.107-1.71,0.313-2.486,0.846c-3.248,2.238-1.778,5.801-6.151,6.973
			c-3.471,0.93-4.243,2.711-4.871,6.203C6.697,53.462,10.139,54.392,10.545,52.124L10.545,52.124z"/>
	</g>
</g>
</svg>
