<?xml version="1.0" encoding="utf-8"?>
<!-- Generator: Adobe Illustrator 15.0.0, SVG Export Plug-In . SVG Version: 6.00 Build 0)  -->
<!DOCTYPE svg PUBLIC "-//W3C//DTD SVG 1.1//EN" "http://www.w3.org/Graphics/SVG/1.1/DTD/svg11.dtd">
<svg version="1.1" id="Layer_1" xmlns="http://www.w3.org/2000/svg" xmlns:xlink="http://www.w3.org/1999/xlink" x="0px" y="0px"
	 width="64px" height="64px" viewBox="0 0 64 64" enable-background="new 0 0 64 64" xml:space="preserve">
<g>
	<g>
		<g>
			<polygon fill="#F5A300" points="7,30.982 21.055,41.253 14.204,62 32.139,49.178 50.073,62 57,2 			"/>
			<g>
				<polygon fill="#FFFFFF" points="38.869,39.859 49.757,32.076 36.299,32.076 32.139,19.48 27.98,32.076 14.521,32.076 
					25.41,39.859 21.251,52.456 32.139,44.672 43.027,52.456 				"/>
			</g>
			<g>
				<polygon fill="#FFFFFF" points="38.869,39.859 49.757,32.076 36.299,32.076 32.139,19.48 27.98,32.076 14.521,32.076 
					25.41,39.859 21.251,52.456 32.139,44.672 43.027,52.456 				"/>
			</g>
		</g>
	</g>
	<g>
		<polygon fill="#FFCE31" points="38.99,28.432 42.49,28.432 57,2 37.756,24.693 		"/>
		<polygon fill="#FFCE31" points="57,2 34.559,15.009 36.391,20.559 		"/>
		<polygon fill="#FFCE31" points="53.891,28.432 57,2 47.191,28.432 		"/>
	</g>
</g>
</svg>
