<?xml version="1.0" encoding="utf-8"?>
<!-- Generator: Adobe Illustrator 15.0.0, SVG Export Plug-In . SVG Version: 6.00 Build 0)  -->
<!DOCTYPE svg PUBLIC "-//W3C//DTD SVG 1.1//EN" "http://www.w3.org/Graphics/SVG/1.1/DTD/svg11.dtd">
<svg version="1.1" id="Layer_1" xmlns="http://www.w3.org/2000/svg" xmlns:xlink="http://www.w3.org/1999/xlink" x="0px" y="0px"
	 width="64px" height="64px" viewBox="0 0 64 64" enable-background="new 0 0 64 64" xml:space="preserve">
<g>
	<g>
		<path fill="#FFCE31" d="M11.751,28.354l-3.966,9.024l9.252-3.867C14.975,32.112,13.184,30.364,11.751,28.354z"/>
		<path fill="#FFCE31" d="M32.249,18.672l3.964-9.026l-9.25,3.868C29.025,14.913,30.816,16.66,32.249,18.672z"/>
		<path fill="#FFCE31" d="M11.351,19.862L2,23.511l9.352,3.649C11.132,25.975,11,24.76,11,23.513
			C11,22.265,11.132,21.05,11.351,19.862z"/>
		<path fill="#FFCE31" d="M32.648,27.162l9.351-3.649l-9.351-3.65C32.867,21.05,33,22.265,33,23.513S32.867,25.976,32.648,27.162z"
			/>
		<path fill="#FFCE31" d="M17.039,13.513L7.787,9.646l3.965,9.025C13.185,16.659,14.976,14.912,17.039,13.513z"/>
		<path fill="#FFCE31" d="M26.961,34.486l9.251,3.868l-3.964-9.025C30.815,31.341,29.024,33.088,26.961,34.486z"/>
		<path fill="#FFCE31" d="M25.741,13.123L22,4l-3.741,9.123c1.216-0.213,2.462-0.343,3.74-0.343
			C23.279,12.78,24.525,12.91,25.741,13.123z"/>
		<path fill="#FFCE31" d="M18.259,34.877L22,44l3.74-9.123C24.525,35.09,23.279,35.22,22,35.22
			C20.721,35.22,19.475,35.09,18.259,34.877z"/>
	</g>
	<g>
		<path fill="#FFFFFF" d="M17.195,58.112c-0.996,0-1.982-0.161-2.93-0.48c-3.826-1.279-6.398-4.88-6.398-8.958
			c0-2.725,1.166-5.314,3.199-7.109c0.525-0.466,1.096-0.867,1.705-1.2l-0.03-0.002l0.619-2.184
			c1.544-5.451,6.534-9.258,12.133-9.258c0.558,0,1.13,0.046,1.803,0.144c0.515,0.074,1.021,0.181,1.516,0.315l0.247-0.452
			c2.263-4.124,6.556-6.687,11.208-6.687c7.063,0,12.81,5.816,12.81,12.967c0,0.349-0.022,0.688-0.049,1.03l-0.021,0.254
			c0.545,0.21,1.076,0.466,1.59,0.767c3.415,1.992,5.537,5.701,5.537,9.677c0,5.238-3.521,9.714-8.563,10.885
			c-0.823,0.193-1.658,0.292-2.478,0.292H17.195z"/>
		<path fill="#75D6FF" d="M40.266,24.13c6.044,0,10.942,4.961,10.942,11.078c0,0.298-0.02,0.587-0.043,0.878
			c-2.529,0.195-4.828,1.216-6.635,2.802c1.345-0.781,2.898-1.235,4.561-1.235c0.615,0,1.215,0.063,1.796,0.181
			c0.993,0.199,1.925,0.564,2.774,1.06c2.749,1.604,4.604,4.601,4.604,8.043c0,4.408-3.04,8.098-7.114,9.045
			c-0.662,0.155-1.35,0.245-2.06,0.245h-0.001H17.195h-0.001c-0.817,0-1.603-0.138-2.339-0.386
			c-2.974-0.994-5.122-3.826-5.122-7.166c0-2.273,0.994-4.305,2.561-5.688c0.71-0.63,1.536-1.119,2.444-1.44
			c0.77-0.271,1.594-0.428,2.457-0.428c2.405,0,4.539,1.157,5.904,2.947l0.066-0.001c-1.584-2.951-4.545-5.032-8.012-5.366
			c1.29-4.551,5.428-7.89,10.339-7.89c0.524,0,1.034,0.051,1.538,0.125c0.997,0.145,1.949,0.422,2.838,0.822
			c3.31,1.496,5.728,4.628,6.265,8.38c0-0.021,0.002-0.045,0.002-0.064c0-4.274-2.166-8.034-5.445-10.228
			C32.558,26.439,36.144,24.13,40.266,24.13 M40.266,20.354c-5.034,0-9.703,2.618-12.388,6.89c-0.104-0.016-0.208-0.031-0.312-0.048
			c-0.77-0.11-1.426-0.162-2.073-0.162c-6.427,0-12.154,4.368-13.927,10.624l-0.423,1.49c-0.458,0.298-0.896,0.632-1.31,0.998
			C7.398,42.296,6,45.404,6,48.674c0,4.896,3.088,9.215,7.684,10.751C14.814,59.807,15.998,60,17.194,60h31.897
			c0.962,0,1.939-0.114,2.906-0.342c5.885-1.367,10.002-6.601,10.002-12.723c0-4.649-2.48-8.984-6.473-11.313
			c-0.193-0.112-0.388-0.22-0.585-0.321c0.001-0.031,0.001-0.062,0.001-0.093C54.942,27.019,48.358,20.354,40.266,20.354
			L40.266,20.354z"/>
	</g>
</g>
</svg>
