<?xml version="1.0" encoding="utf-8"?>
<!-- Generator: Adobe Illustrator 15.0.0, SVG Export Plug-In . SVG Version: 6.00 Build 0)  -->
<!DOCTYPE svg PUBLIC "-//W3C//DTD SVG 1.1//EN" "http://www.w3.org/Graphics/SVG/1.1/DTD/svg11.dtd">
<svg version="1.1" id="Layer_1" xmlns="http://www.w3.org/2000/svg" xmlns:xlink="http://www.w3.org/1999/xlink" x="0px" y="0px"
	 width="64px" height="64px" viewBox="0 0 64 64" enable-background="new 0 0 64 64" xml:space="preserve">
<g>
	<g>
		<path fill="#FFCE31" d="M10.777,23.918L7.208,32.04l8.327-3.48C13.678,27.301,12.066,25.728,10.777,23.918z"/>
		<path fill="#FFCE31" d="M29.224,15.205l3.568-8.124l-8.325,3.481C26.323,11.822,27.935,13.395,29.224,15.205z"/>
		<path fill="#FFCE31" d="M10.417,16.276L2,19.56l8.417,3.284c-0.197-1.066-0.316-2.16-0.316-3.282
			C10.1,18.438,10.22,17.345,10.417,16.276z"/>
		<path fill="#FFCE31" d="M29.583,22.846L38,19.562l-8.417-3.285c0.197,1.068,0.316,2.162,0.316,3.285S29.78,21.778,29.583,22.846z"
			/>
		<path fill="#FFCE31" d="M15.535,10.562l-8.327-3.48l3.568,8.123C12.067,13.394,13.679,11.821,15.535,10.562z"/>
		<path fill="#FFCE31" d="M24.466,29.438l8.326,3.481l-3.568-8.123C27.935,26.606,26.321,28.179,24.466,29.438z"/>
		<path fill="#FFCE31" d="M23.367,10.211L20.001,2l-3.367,8.211C17.728,10.02,18.85,9.902,20,9.902
			C21.151,9.902,22.272,10.02,23.367,10.211z"/>
		<path fill="#FFCE31" d="M16.634,29.789L20.001,38l3.366-8.211c-1.095,0.191-2.216,0.309-3.367,0.309
			C18.85,30.098,17.728,29.98,16.634,29.789z"/>
	</g>
	<g>
		<path fill="#FFFFFF" d="M23.995,33.471c-0.844,0-1.681-0.136-2.484-0.401c-3.246-1.065-5.428-4.066-5.428-7.467
			c0-2.27,0.99-4.428,2.715-5.925c0.445-0.388,0.93-0.723,1.445-1l-0.025-0.001l0.525-1.819c1.309-4.545,5.543-7.717,10.291-7.717
			c0.473,0,0.959,0.037,1.529,0.119c0.436,0.062,0.865,0.151,1.285,0.263l0.21-0.377c1.92-3.438,5.563-5.572,9.507-5.572
			c5.991,0,10.865,4.848,10.865,10.807c0,0.291-0.019,0.575-0.041,0.859l-0.018,0.212c0.462,0.175,0.912,0.387,1.348,0.639
			c2.896,1.66,4.696,4.751,4.696,8.064c0,4.366-2.987,8.096-7.263,9.072c-0.698,0.161-1.407,0.244-2.102,0.244H23.995z"/>
		<path fill="#B6C1D1" d="M43.565,5.147c5.126,0,9.281,4.134,9.281,9.232c0,0.248-0.017,0.489-0.035,0.732
			c-2.146,0.162-4.096,1.014-5.629,2.336c1.141-0.651,2.458-1.03,3.867-1.03c0.523,0,1.031,0.053,1.525,0.149
			c0.842,0.167,1.633,0.47,2.352,0.884c2.333,1.338,3.906,3.835,3.906,6.703c0,3.675-2.578,6.75-6.034,7.538
			c-0.563,0.132-1.146,0.205-1.747,0.205c0,0,0,0-0.002,0H23.995l0,0c-0.694,0-1.359-0.114-1.984-0.322
			c-2.521-0.827-4.344-3.188-4.344-5.973c0-1.894,0.843-3.587,2.171-4.739c0.603-0.524,1.303-0.933,2.073-1.2
			c0.653-0.226,1.353-0.357,2.084-0.357c2.041,0,3.851,0.966,5.01,2.457l0.057-0.001c-1.345-2.461-3.857-4.195-6.797-4.473
			c1.095-3.792,4.604-6.576,8.77-6.576c0.445,0,0.879,0.043,1.305,0.104c0.846,0.121,1.653,0.353,2.407,0.686
			c2.808,1.247,4.858,3.857,5.314,6.984c0-0.018,0.002-0.037,0.002-0.054c0-3.563-1.837-6.696-4.618-8.524
			C37.027,7.071,40.069,5.147,43.565,5.147 M43.565,2c-4.27,0-8.23,2.183-10.508,5.742c-0.088-0.014-0.177-0.026-0.266-0.041
			c-0.651-0.092-1.208-0.134-1.758-0.134c-5.451,0-10.309,3.641-11.813,8.854l-0.358,1.242c-0.388,0.248-0.759,0.526-1.11,0.832
			c-2.066,1.791-3.253,4.383-3.253,7.106c0,4.08,2.62,7.682,6.518,8.962c0.958,0.317,1.962,0.479,2.978,0.479H51.05
			c0.817,0,1.646-0.095,2.466-0.285c4.993-1.14,8.483-5.501,8.483-10.604c0-3.875-2.104-7.488-5.489-9.43
			c-0.163-0.094-0.329-0.182-0.496-0.267c0-0.026,0-0.052,0-0.078C56.014,7.555,50.429,2,43.565,2L43.565,2z"/>
	</g>
	<g>
		<path fill="#42ADE2" d="M28.765,46.03c-0.572,1.569-0.086,3.189,1.086,3.616s2.586-0.502,3.156-2.071
			c0.674-1.85,0.719-4.382,0.262-7.316C31.067,42.183,29.437,44.181,28.765,46.03z"/>
		<path fill="#42ADE2" d="M41.862,47.575c0.672-1.85,0.719-4.382,0.262-7.316c-2.203,1.924-3.832,3.922-4.506,5.771
			c-0.57,1.569-0.086,3.189,1.086,3.616S41.29,49.145,41.862,47.575z"/>
		<path fill="#42ADE2" d="M50.978,40.259c-2.202,1.924-3.832,3.922-4.505,5.771c-0.571,1.569-0.086,3.189,1.086,3.616
			s2.586-0.502,3.157-2.071C51.389,45.726,51.435,43.193,50.978,40.259z"/>
		<path fill="#42ADE2" d="M19.91,46.03c-0.571,1.569-0.086,3.189,1.086,3.616s2.586-0.502,3.157-2.071
			c0.673-1.85,0.719-4.382,0.262-7.316C22.213,42.183,20.583,44.181,19.91,46.03z"/>
		<path fill="#42ADE2" d="M21.814,58.28c-0.571,1.569-0.086,3.189,1.086,3.616s2.586-0.502,3.157-2.071
			c0.673-1.85,0.719-4.382,0.262-7.316C24.117,54.433,22.487,56.431,21.814,58.28z"/>
		<path fill="#42ADE2" d="M34.912,59.825c0.673-1.85,0.719-4.382,0.262-7.316c-2.202,1.924-3.832,3.922-4.505,5.771
			c-0.571,1.569-0.086,3.189,1.086,3.616S34.341,61.395,34.912,59.825z"/>
		<path fill="#42ADE2" d="M44.028,52.509c-2.203,1.924-3.832,3.922-4.506,5.771c-0.57,1.569-0.086,3.189,1.086,3.616
			s2.586-0.502,3.158-2.071C44.438,57.976,44.485,55.443,44.028,52.509z"/>
		<path fill="#42ADE2" d="M12.96,58.28c-0.571,1.569-0.086,3.189,1.086,3.616s2.586-0.502,3.157-2.071
			c0.673-1.85,0.719-4.382,0.262-7.316C15.263,54.433,13.633,56.431,12.96,58.28z"/>
	</g>
</g>
</svg>
