<?xml version="1.0" encoding="utf-8"?>
<!-- Generator: Adobe Illustrator 15.0.0, SVG Export Plug-In . SVG Version: 6.00 Build 0)  -->
<!DOCTYPE svg PUBLIC "-//W3C//DTD SVG 1.1//EN" "http://www.w3.org/Graphics/SVG/1.1/DTD/svg11.dtd">
<svg version="1.1" id="Layer_1" xmlns="http://www.w3.org/2000/svg" xmlns:xlink="http://www.w3.org/1999/xlink" x="0px" y="0px"
	 width="64px" height="64px" viewBox="0 0 64 64" enable-background="new 0 0 64 64" xml:space="preserve">
<g>
	<g>
		<polygon fill="#FFCE31" points="24.527,31.937 19.597,48.053 32.144,48.053 27.886,62 44.403,41.758 32.526,41.758 35.438,31.937 
					"/>
	</g>
	<g>
		<path fill="#FFFFFF" d="M18.196,32.477c-0.818,0-1.628-0.131-2.406-0.389c-3.144-1.031-5.257-3.938-5.257-7.23
			c0-2.198,0.958-4.288,2.629-5.738c0.431-0.375,0.899-0.699,1.4-0.968l-0.024-0.001l0.508-1.763c1.269-4.4,5.367-7.473,9.967-7.473
			c0.457,0,0.928,0.036,1.48,0.115c0.423,0.06,0.839,0.146,1.245,0.255l0.203-0.365c1.858-3.329,5.386-5.396,9.206-5.396
			c5.803,0,10.522,4.694,10.522,10.466c0,0.281-0.019,0.557-0.04,0.832l-0.018,0.205c0.448,0.169,0.885,0.375,1.306,0.618
			c2.806,1.608,4.549,4.602,4.549,7.811c0,4.228-2.893,7.84-7.034,8.785c-0.676,0.156-1.362,0.236-2.035,0.236H18.196z"/>
		<path fill="#B6C1D1" d="M37.147,5.048c4.965,0,8.989,4.004,8.989,8.941c0,0.24-0.017,0.474-0.036,0.709
			c-2.078,0.157-3.965,0.981-5.449,2.262c1.104-0.631,2.38-0.997,3.745-0.997c0.506,0,0.998,0.051,1.476,0.145
			c0.816,0.162,1.582,0.455,2.279,0.855c2.258,1.296,3.782,3.714,3.782,6.492c0,3.559-2.497,6.536-5.844,7.3
			c-0.544,0.127-1.109,0.198-1.692,0.198c0,0,0,0-0.001,0h-26.2h-0.001c-0.672,0-1.316-0.11-1.921-0.312
			c-2.442-0.802-4.207-3.088-4.207-5.784c0-1.834,0.816-3.474,2.103-4.59c0.583-0.508,1.262-0.903,2.008-1.162
			c0.633-0.219,1.31-0.347,2.019-0.347c1.976,0,3.729,0.936,4.85,2.38l0.055-0.001c-1.301-2.383-3.733-4.063-6.58-4.331
			c1.059-3.673,4.457-6.369,8.492-6.369c0.431,0,0.85,0.042,1.264,0.102c0.818,0.117,1.602,0.341,2.331,0.664
			c2.719,1.207,4.705,3.735,5.146,6.764c0-0.018,0.002-0.036,0.002-0.053c0-3.449-1.779-6.484-4.474-8.255
			C30.816,6.911,33.763,5.048,37.147,5.048 M37.147,2c-4.135,0-7.97,2.113-10.176,5.561c-0.085-0.013-0.171-0.025-0.257-0.039
			c-0.631-0.089-1.171-0.13-1.702-0.13c-5.279,0-9.984,3.525-11.44,8.575l-0.347,1.202c-0.377,0.24-0.736,0.51-1.076,0.806
			C10.149,19.71,9,22.22,9,24.857c0,3.951,2.537,7.438,6.313,8.679C16.24,33.844,17.213,34,18.195,34h26.201
			c0.791,0,1.594-0.092,2.388-0.275C51.618,32.62,55,28.397,55,23.455c0-3.753-2.037-7.252-5.317-9.132
			c-0.157-0.091-0.317-0.177-0.479-0.259c0-0.025,0-0.05,0-0.075C49.203,7.379,43.795,2,37.147,2L37.147,2z"/>
	</g>
</g>
</svg>
