<?xml version="1.0" encoding="utf-8"?>
<!-- Generator: Adobe Illustrator 15.0.0, SVG Export Plug-In . SVG Version: 6.00 Build 0)  -->
<!DOCTYPE svg PUBLIC "-//W3C//DTD SVG 1.1//EN" "http://www.w3.org/Graphics/SVG/1.1/DTD/svg11.dtd">
<svg version="1.1" id="Layer_1" xmlns="http://www.w3.org/2000/svg" xmlns:xlink="http://www.w3.org/1999/xlink" x="0px" y="0px"
	 width="64px" height="64px" viewBox="0 0 64 64" enable-background="new 0 0 64 64" xml:space="preserve">
<g>
	<g>
		<polygon fill="#75D6FF" points="20.579,43.172 22.102,40.827 19.756,42.349 19.146,38.209 18.535,42.35 16.19,40.827 
			17.712,43.17 13.574,43.782 17.714,44.394 16.19,46.737 18.535,45.215 19.146,49.354 19.758,45.215 22.102,46.737 20.578,44.392 
			24.719,43.782 		"/>
		<polygon fill="#75D6FF" points="50.717,43.172 52.238,40.827 49.894,42.349 49.283,38.209 48.672,42.349 46.327,40.827 
			47.849,43.17 43.711,43.782 47.851,44.394 46.327,46.737 48.672,45.215 49.283,49.354 49.895,45.215 52.238,46.737 50.715,44.392 
			54.855,43.782 		"/>
		<polygon fill="#75D6FF" points="35.648,43.172 37.17,40.827 34.824,42.349 34.215,38.209 33.605,42.349 31.26,40.827 
			32.781,43.17 28.643,43.782 32.783,44.394 31.26,46.737 33.604,45.216 34.215,49.354 34.826,45.216 37.17,46.737 35.646,44.392 
			39.787,43.782 		"/>
		<g>
			<polygon fill="#75D6FF" points="13.149,54.317 14.672,51.972 12.326,53.493 11.717,49.354 11.105,53.494 8.761,51.972 
				10.281,54.315 6.144,54.927 10.284,55.539 8.761,57.883 11.104,56.359 11.717,60.5 12.328,56.359 14.672,57.883 13.147,55.537 
				17.289,54.927 			"/>
			<polygon fill="#75D6FF" points="43.286,54.317 44.808,51.972 42.463,53.493 41.854,49.354 41.242,53.493 38.897,51.972 
				40.418,54.315 36.28,54.927 40.42,55.539 38.897,57.883 41.242,56.359 41.854,60.5 42.465,56.359 44.808,57.883 43.284,55.537 
				47.426,54.927 			"/>
			<polygon fill="#75D6FF" points="28.219,54.317 29.739,51.972 27.395,53.493 26.785,49.354 26.176,53.493 23.83,51.972 
				25.351,54.315 21.212,54.927 25.353,55.539 23.83,57.883 26.174,56.36 26.785,60.5 27.396,56.36 29.739,57.883 28.216,55.537 
				32.357,54.927 			"/>
		</g>
	</g>
	<g>
		<path fill="#FFFFFF" d="M21.051,33.977c-0.816,0-1.627-0.129-2.406-0.389c-3.143-1.031-5.256-3.938-5.256-7.229
			c0-2.198,0.958-4.289,2.629-5.738c0.431-0.376,0.9-0.699,1.4-0.969l-0.025-0.002l0.509-1.763c1.269-4.398,5.367-7.472,9.966-7.472
			c0.458,0,0.929,0.037,1.48,0.115c0.424,0.062,0.84,0.146,1.246,0.256l0.203-0.365c1.857-3.329,5.387-5.397,9.207-5.397
			c5.802,0,10.521,4.695,10.521,10.466c0,0.282-0.019,0.557-0.041,0.832l-0.017,0.204c0.448,0.17,0.884,0.377,1.306,0.619
			c2.805,1.608,4.549,4.602,4.549,7.811c0,4.228-2.893,7.842-7.034,8.786c-0.677,0.156-1.362,0.235-2.034,0.235H21.051z"/>
		<path fill="#75D6FF" d="M40.004,6.547c4.963,0,8.988,4.005,8.988,8.942c0,0.241-0.018,0.474-0.037,0.708
			c-2.076,0.159-3.965,0.983-5.449,2.263c1.105-0.63,2.381-0.996,3.746-0.996c0.506,0,0.998,0.05,1.476,0.144
			c0.815,0.162,1.581,0.456,2.278,0.856c2.259,1.295,3.783,3.713,3.783,6.491c0,3.559-2.498,6.536-5.844,7.301
			c-0.545,0.125-1.109,0.198-1.691,0.198h-0.002H21.051l0,0c-0.672,0-1.316-0.112-1.922-0.313c-2.441-0.801-4.206-3.087-4.206-5.783
			c0-1.835,0.815-3.476,2.104-4.592c0.582-0.506,1.261-0.901,2.007-1.162c0.633-0.218,1.31-0.345,2.018-0.345
			c1.977,0,3.729,0.935,4.85,2.38l0.056-0.001c-1.301-2.382-3.733-4.063-6.581-4.332c1.06-3.674,4.458-6.368,8.492-6.368
			c0.431,0,0.85,0.042,1.264,0.101c0.82,0.118,1.602,0.341,2.332,0.665c2.719,1.205,4.704,3.734,5.146,6.763
			c0-0.017,0.002-0.036,0.002-0.052c0-3.45-1.779-6.485-4.475-8.256C33.672,8.412,36.617,6.547,40.004,6.547 M40.004,3.5
			c-4.135,0-7.971,2.113-10.178,5.562c-0.084-0.015-0.17-0.026-0.256-0.039c-0.631-0.09-1.17-0.131-1.703-0.131
			c-5.278,0-9.983,3.525-11.439,8.576l-0.347,1.202c-0.376,0.239-0.736,0.51-1.075,0.804c-2.001,1.736-3.149,4.246-3.149,6.885
			c0,3.951,2.536,7.438,6.312,8.678c0.928,0.308,1.9,0.464,2.883,0.464h26.201c0.791,0,1.594-0.091,2.387-0.274
			c4.836-1.105,8.217-5.328,8.217-10.271c0-3.753-2.037-7.253-5.317-9.132c-0.157-0.09-0.317-0.178-0.479-0.259
			c0-0.025,0-0.049,0-0.075C52.059,8.88,46.65,3.5,40.004,3.5L40.004,3.5z"/>
	</g>
</g>
</svg>
