<?xml version="1.0" encoding="utf-8"?>
<!-- Generator: Adobe Illustrator 15.0.0, SVG Export Plug-In . SVG Version: 6.00 Build 0)  -->
<!DOCTYPE svg PUBLIC "-//W3C//DTD SVG 1.1//EN" "http://www.w3.org/Graphics/SVG/1.1/DTD/svg11.dtd">
<svg version="1.1" id="Layer_1" xmlns="http://www.w3.org/2000/svg" xmlns:xlink="http://www.w3.org/1999/xlink" x="0px" y="0px"
	 width="64px" height="64px" viewBox="0 0 64 64" enable-background="new 0 0 64 64" xml:space="preserve">
<g>
	<g>
		<path fill="#D3976E" d="M16.383,61.923c-6.147,0-11.979-0.027-14.257-30.822c-3.097-41.982,52.104-26.739,52.104-2.469
			C54.229,41.855,16.383,61.923,16.383,61.923z"/>
		<path opacity="0.5" fill="#FFFFFF" enable-background="new    " d="M3.603,31.101C2.276,13.125,11.644,5.671,22.788,4.892
			c-0.012-0.022-0.01-0.044-0.016-0.063C11.007,5.037,0.741,12.341,2.126,31.101c2.107,28.52,7.343,30.806,12.902,30.806
			C9.886,61.021,5.524,57.109,3.603,31.101z"/>
	</g>
	<path fill="#594640" d="M19.344,25.512L4.39,32.071L2.155,37.02l2.656,1.59l-1.92,4.253l1.453,0.872l-2.053,4.547l3.256,1.952
		L3.61,54.522l4.114,2.466L6.997,58.6l4.478,2.686l0.892-1.973l2.229,2.535l3.618-0.928l11.678-22.48L19.344,25.512z M17.268,54.895
		l0.001-0.002l1.188-1.352l0.001,0.003L17.268,54.895z"/>
	<path fill="#89664C" d="M23.139,42.904l-0.42-0.478l1.855-2.11l-0.402-0.458l2.18-2.477l-2.556-2.905l-2.556,2.905l0.402,0.458
		l-1.251,1.422l-1.193-1.357l2.457-2.792L19.1,32.208l-1.552,1.763l-2.177-2.474l-1.381,1.57l-1.414-0.847l-1.623,3.592l0.512,0.308
		l-0.795,1.759l-1.519-0.911l1.561-3.453L7.46,31.564l-0.986,2.181l-2.77-1.66l-1.621,3.592l3.251,1.951l0.986-2.183l1.675,1.005
		l-1.282,2.84L4.441,37.93l-1.622,3.593l3.251,1.95l1.346-2.98l2.166,1.299l-0.146,0.32l2.003,1.2l-0.552,0.628l-3.05-1.83
		l-1.292,2.86l-2.703-1.621l-1.625,3.593l3.253,1.949l1.291-2.859l2.706,1.619l0.843-1.865l0.667,0.758l-1.046,2.315l-1.573-0.94
		L7.083,50.74L5.16,49.588l-1.622,3.593l3.252,1.952l1.275-2.825l1.922,1.152l0.331-0.733l1.03,1.173l-0.515,1.139l-2.286-1.371
		l-1.624,3.594l3.252,1.946l1.409-3.117l2.354,3.358l2.218-2.521l1.798,2.044l2.555-2.905l-2.555-2.905l-2.219,2.522l-0.701-0.797
		l0.46-1.019l2.304-2.722l1.235,1.404l2.556-2.906l-2.556-2.904l-2.427,2.758l-1.236-1.402l-1.978,2.246l1.331-2.945l-1.157-0.693
		l0.677-0.771l0.563,0.337l1.697,1.928l2.555-2.902l-2.555-2.908l-0.192,0.219l-0.934-0.559l1.177-1.338l1.701,1.936l-0.229,0.26
		l2.311,2.625l-0.527,0.598l2.557,2.905l2.555-2.905l-2.309-2.625L23.139,42.904z M16.221,39.338l-1.373-1.562l0.107-0.238
		l-0.512-0.308l0.292-0.646l0.636,0.724l1.553-1.765l1.316,1.497L16.221,39.338z"/>
	<g>
		<g>
			<polygon fill="#D3976E" points="4.911,39.285 3.497,38.438 2.792,40 4.206,40.85 			"/>
			<polygon fill="#D3976E" points="5.834,42.291 4.418,41.443 3.712,43.006 5.127,43.854 			"/>
			<polygon fill="#D3976E" points="9.628,38.069 7.363,36.713 6.231,39.214 8.498,40.573 			"/>
			<polygon fill="#D3976E" points="13.964,36.829 14.671,35.267 13.255,34.419 12.549,35.982 			"/>
			<polygon fill="#D3976E" points="12.903,38.752 11.488,37.904 10.781,39.468 12.197,40.316 			"/>
			<polygon fill="#D3976E" points="10.577,42.239 9.871,43.804 11.286,44.651 11.993,43.088 			"/>
			<polygon fill="#D3976E" points="11.133,45.68 10.427,47.244 11.842,48.092 12.549,46.529 			"/>
			<polygon fill="#D3976E" points="13.156,41.493 14.572,42.34 15.278,40.777 13.863,39.928 			"/>
			<polygon fill="#D3976E" points="4.543,44.701 3.13,43.854 2.421,45.417 3.839,46.266 			"/>
			<polygon fill="#D3976E" points="4.679,50.713 3.974,52.277 5.388,53.125 6.094,51.563 			"/>
			<polygon fill="#D3976E" points="7.357,56.355 8.773,57.202 9.479,55.641 8.064,54.79 			"/>
			<polygon fill="#D3976E" points="7.316,46.266 8.022,44.703 6.607,43.854 5.9,45.418 			"/>
			<polygon fill="#D3976E" points="7.58,47.412 6.449,49.914 8.715,51.272 9.846,48.77 			"/>
			<polygon fill="#D3976E" points="10.781,52.975 12.196,53.822 12.903,52.26 11.487,51.41 			"/>
			<polygon fill="#D3976E" points="12.108,56.689 13.524,57.539 14.23,55.975 12.815,55.127 			"/>
		</g>
	</g>
	<g>
		<polygon fill="#D3976E" points="18.215,35.152 17.102,33.889 15.99,35.152 17.102,36.418 		"/>
		<polygon fill="#D3976E" points="19.344,39.109 17.563,37.087 15.783,39.109 17.563,41.135 		"/>
		<polygon fill="#D3976E" points="22.43,40.287 23.542,41.551 24.654,40.287 23.542,39.021 		"/>
		<polygon fill="#D3976E" points="19.808,40.916 18.695,42.182 19.808,43.445 20.92,42.182 		"/>
		<polygon fill="#D3976E" points="20.396,45.405 21.51,46.668 22.621,45.405 21.51,44.14 		"/>
		<polygon fill="#D3976E" points="16.451,47.1 17.564,48.363 18.676,47.1 17.564,45.834 		"/>
		<polygon fill="#D3976E" points="18.056,48.987 19.169,50.25 20.28,48.987 19.169,47.722 		"/>
		<polygon fill="#D3976E" points="15.729,45.834 16.84,44.57 15.729,43.305 14.615,44.57 		"/>
		<polygon fill="#D3976E" points="14.217,47.363 12.437,49.386 14.217,51.41 15.997,49.386 		"/>
		<polygon fill="#D3976E" points="16.766,53.359 17.878,54.623 18.99,53.359 17.878,52.094 		"/>
		<polygon fill="#D3976E" points="14.91,57.201 16.022,58.467 17.135,57.201 16.022,55.938 		"/>
	</g>
	<g>
		<polygon fill="#FFEC40" points="45.706,8.807 36.239,2.526 34.913,2 35.295,5.9 24.001,3.579 22.804,3.925 13.563,10.417 
			11.496,13.472 9.918,16.939 6.293,24.026 3.239,26.384 3.778,27.82 7.526,25.112 18.942,24.803 6.692,28.194 7.675,32.616 
			25.712,33.843 		"/>
		<g>
			<path fill="#83BF4F" d="M19.35,11.13c-1.124,0.019-3.852-2.218-3.71-3.217c0.111-0.789,2.541-0.856,3.239-1.365
				c0.526-0.382,0.982-1.794,1.64-1.938c2.896-0.628,4.854,1.48,5.411,2.06C26.313,7.068,20.796,11.103,19.35,11.13z"/>
			<path fill="#83BF4F" d="M11.537,17.138c0.282-0.815,1.04-2.789,0.382-3.379c-0.523-0.47-2.377-0.131-3,0.265
				c-0.583,0.368-1.081,1.687-1.214,2.308c-0.118,0.563,0.446,1.751,0.175,2.274c-0.488,0.948-3.408,1.528-3.735,2.527
				c-0.21,0.642,0.517,2.022,1.071,2.447c0.472,0.363,1.869,0.743,2.443,0.495C9.61,23.23,10.901,18.983,11.537,17.138z"/>
			<path fill="#83BF4F" d="M24.657,31.313c-0.933-0.928-4.579-0.357-5.648,0.498c-0.764,0.61-0.324,2.768-0.859,3.55
				c-0.298,0.436-1.61,0.813-1.77,1.301c-0.204,0.629,0.732,1.898,1.632,2.107c0.898,0.206,2.541,1.544,3.441,1.271
				C22.409,39.744,25.689,32.341,24.657,31.313z"/>
			<g>
				<polygon fill="#ED4C5C" points="13.33,25.512 10.702,31.65 17.301,34.035 20.957,27.345 				"/>
				<polygon fill="#ED4C5C" points="9.705,24.259 13.124,26.997 18.802,22.973 15.1,20.014 				"/>
				<polygon fill="#ED4C5C" points="20.889,19.502 25.544,23.024 31.47,19.428 28.366,15.217 				"/>
				<polygon fill="#ED4C5C" points="15.886,11.453 16.257,16.286 22.765,13.278 22.503,9.882 19.485,8.207 				"/>
				<polygon fill="#C94747" points="22.769,5.023 21.956,9.58 28.616,10.138 29.077,6.399 				"/>
				<polygon fill="#ED4C5C" points="26.701,7.491 24.987,11.616 32.564,12.792 34.089,8.994 				"/>
				<polygon fill="#ED4C5C" points="30.209,3.032 28.533,8.097 35.79,8.843 35.411,3.909 				"/>
				<polygon fill="#ED4C5C" points="36.156,2.508 36.541,7.512 43.222,6.773 44.056,3.73 				"/>
				<polygon fill="#C94747" points="19.485,8.207 20.001,14.906 23.271,13.264 22.993,9.667 				"/>
				<polygon fill="#C94747" points="33.676,3.619 34.062,8.642 35.79,8.843 35.411,3.909 				"/>
				<polygon fill="#C94747" points="36.156,2.508 40.767,4.06 40.678,7.055 43.284,6.917 44.056,3.73 				"/>
				<polygon fill="#C94747" points="45.336,3.99 40.974,7.284 47.96,9.577 47.642,5.435 				"/>
				<polygon fill="#C94747" points="20.889,19.502 27.038,17.436 29.827,20.425 31.47,19.428 28.366,15.217 				"/>
				<polygon fill="#C94747" points="13.892,20.964 16.675,24.48 18.802,22.973 15.1,20.014 				"/>
				<polygon fill="#C94747" points="15.596,33.419 17.301,34.035 20.957,27.345 13.17,25.526 17.907,28.02 				"/>
				<polygon fill="#C94747" points="26.701,7.491 32.404,9.377 31.246,12.587 32.564,12.792 34.089,8.994 				"/>
			</g>
			<path fill="#83BF4F" d="M35.154,11.71c-1.011-0.255-3.771,1.1-3.671,1.995c0.038,0.337,1.147,0.59,0.843,1.13
				c-0.261,0.461-3.855-0.369-4.585,0.404c-0.977,1.033,1.428,4.655,2.057,4.815C31.988,20.611,37.906,12.403,35.154,11.71z"/>
			<path fill="#83BF4F" d="M40.321,9.741c-0.833-0.493-1.954-2.321-1.77-3.215c0.136-0.667,1.447-1.941,2.2-1.906
				c0.672,0.032,0.973,1.842,1.646,1.87c0.604,0.025,1.148-1.553,1.752-1.536c1.076,0.03,2.862,1.946,2.737,2.91
				c-0.104,0.814-2.014,1.848-2.898,2.076C43.098,10.173,41.079,10.19,40.321,9.741z"/>
			<path fill="#83BF4F" d="M6.725,26.523c-1.023,0.309-1.71,2.58-2.652,3.048C3.771,29.72,2.94,29.455,2.718,29.69
				c-0.521,0.547-0.297,2.295,0.217,2.822c0.443,0.452,2.521-0.113,2.655,0.482c0.156,0.67-2.478,1.014-2.487,1.705
				c-0.004,0.382,0.926,0.894,1.353,0.898c0.663,0.004,1.632-0.376,2.529-0.898c-0.314,0.533-0.417,1.034-0.003,1.32
				c1.016,0.698,2.721,1.617,3.538,1.157c0.766-0.431,0.229-2.577,0.911-3.112c0.692-0.548,2.867,0.051,3.628-0.419
				C15.472,33.392,14.582,24.158,6.725,26.523z"/>
			<path fill="#83BF4F" d="M18.036,21.854c-1.416-0.016-4.746-1.07-4.962-2.316c-0.085-0.493,1.346-1.014,1.541-1.487
				c0.245-0.59-0.683-2.11-0.108-2.479c0.826-0.534,2.715,1.472,3.707,1.296c0.459-0.082,0.918-1.187,1.381-1.155
				c0.54,0.033,1.096,1.077,1.281,1.526c0.385,0.931,1.027,3.202,0.307,3.985C20.665,21.786,18.837,21.864,18.036,21.854z"/>
		</g>
		<polygon fill="#FFFFD4" points="20.696,23.952 9.793,25.396 6.962,27.539 8.237,28.467 18.958,25.016 21.747,24.752 		"/>
		<polygon fill="#FFFFD4" points="29.796,11.949 25.112,11.537 14.81,14.959 16.41,16.238 24.896,13.521 29.883,13.082 		"/>
		<polygon fill="#FFFFD4" points="23.602,21.423 22.456,21.523 24.549,26.619 27.619,27.186 28.452,25.397 26.635,24.697 		"/>
		<polygon fill="#FFFFD4" points="21.504,27.725 23.743,33.907 22.064,35.016 20.28,29.547 		"/>
		<polygon fill="#FFFFD4" points="18.269,9.301 12.684,11.635 11.496,13.472 12.302,14.231 13.999,12.642 		"/>
		<polygon fill="#FFFFD4" points="38.566,7.288 36.525,6.705 34.913,2 33.561,2.119 35.184,7.586 37.914,8.658 		"/>
		<polygon fill="#FFFFD4" points="29.614,5.261 22.804,3.925 22.124,4.953 29.278,6.933 		"/>
		<polygon fill="#FFFFD4" points="11.843,28.577 6.922,32.208 8.205,34.288 11.607,30.817 		"/>
		<polygon fill="#FFEC40" points="20.005,29.572 20.789,36.161 22.064,35.016 20.242,29.055 		"/>
		<polygon fill="#FFEC40" points="6.922,32.208 6.321,30.517 12.065,27.504 11.87,28.925 		"/>
	</g>
	<g>
		<path fill="#FBBF67" d="M16.383,61.923c0,0,4.183,0,6.636-16.221c2.48-16.401,13.484-38.53,30.625-38.53
			c5.943,0,9.979,3.944,7.722,25.171C60.966,36.081,21.603,61.923,16.383,61.923z"/>
		<path fill="#FDDFB3" d="M53.664,6.153c-21.651,0-28.388,24.61-30.646,39.55c-2.453,16.22-9.104,16.166-9.104,16.166
			s4.177,0.527,5.415-0.541c1.771-1.526,3.861-5.365,5.166-13.98c2.26-14.933,10.35-39.661,29.736-39.661
			c5.455,0,7.345,7.922,7.345,7.922S60.605,6.153,53.664,6.153z"/>
		<g>
			<polygon fill="#D3976E" points="39.17,40.835 40.171,39.764 41.171,40.836 40.169,41.907 			"/>
			<polygon fill="#D3976E" points="40.481,26.783 41.482,25.711 42.481,26.783 41.48,27.854 			"/>
			<polygon fill="#D3976E" points="56.112,26.783 57.112,25.712 58.112,26.783 57.112,27.854 			"/>
			<polygon fill="#D3976E" points="54.229,15.771 55.229,14.701 56.229,15.771 55.229,16.842 			"/>
			<polyline fill="#FDDFB3" points="48.344,33.358 47.345,34.431 48.344,35.501 49.345,34.431 48.344,33.358 			"/>
			<polyline fill="#FDDFB3" points="50.655,20.757 49.657,21.829 50.655,22.899 51.657,21.829 50.655,20.757 			"/>
			<polyline fill="#FDDFB3" points="42.969,17.028 41.97,18.1 42.969,19.169 43.97,18.1 42.969,17.028 			"/>
			<polyline fill="#FDDFB3" points="33.537,32.802 32.537,33.874 33.537,34.943 34.537,33.874 33.537,32.802 			"/>
			<polyline fill="#FDDFB3" points="31.233,46.389 30.235,47.461 31.233,48.531 32.235,47.461 31.233,46.389 			"/>
		</g>
	</g>
</g>
</svg>
