<?xml version="1.0" encoding="utf-8"?>
<!-- Generator: Adobe Illustrator 15.0.0, SVG Export Plug-In . SVG Version: 6.00 Build 0)  -->
<!DOCTYPE svg PUBLIC "-//W3C//DTD SVG 1.1//EN" "http://www.w3.org/Graphics/SVG/1.1/DTD/svg11.dtd">
<svg version="1.1" id="Layer_1" xmlns="http://www.w3.org/2000/svg" xmlns:xlink="http://www.w3.org/1999/xlink" x="0px" y="0px"
	 width="64px" height="64px" viewBox="0 0 64 64" enable-background="new 0 0 64 64" xml:space="preserve">
<g>
	<path fill="#C8D2DA" d="M21.979,55.293L0.04,40.464V64C2.318,57.729,21.979,55.293,21.979,55.293z"/>
	<path fill="#E4EEF7" d="M17.346,54.325C8.191,49.432,6.518,38.926,6.518,38.926s-1.419-5.62,6.012-15.609
		c4.088-5.498,16.444-9.635,18.104-5.48c3.451,8.643,0.035,11.53,1.468,13.64c1.761,2.593,2.969,3.482,3.975,4.006
		c0.731,0.383,1.171,0.952,1.116,2.037c-0.08,1.547-2.938,1.793-3.027,2.238c-0.227,1.116,0.663,1.628,2.016,2.524
		c1.354,0.895-1.111,1.795-0.635,4.652c0.479,2.854,0.734,3.936,0.734,3.936c-1.114,0.816-3.525,0.776-3.254,2.514
		C33.653,57.448,28.311,60.187,17.346,54.325z"/>
	<path fill="#91999F" d="M33.705,45.462c0.642-0.408,1.255-0.84,1.724-1.322c0.438-0.479,0.78-1.047,0.409-2.098
		c0.433,0.117,0.865,0.57,1.035,1.184c0.155,0.625,0.042,1.313-0.189,1.847c-0.22,0.518-0.512,0.94-0.839,1.307
		c0.35,0.371,0.671,0.867,0.81,1.418c0.171,0.577,0.159,1.146,0.09,1.649c-0.096,0.51-0.229,0.978-0.465,1.423
		c-0.376-0.925-0.622-1.819-1.002-2.309c-0.199-0.238-0.377-0.416-0.64-0.589c-0.253-0.182-0.56-0.358-0.885-0.542l-1.652-0.938
		L33.705,45.462z"/>
	<path fill="#ADB5BC" d="M30.222,33.233c-4.254,2.942-7.726-0.235-7.726-0.235C26.196,33.89,30.222,33.233,30.222,33.233z"/>
	<path fill="#C8D2DA" d="M29.504,42.222c0.502,0.505,0.881,1.152,1.18,1.849c0.305,0.695,0.501,1.463,0.602,2.259
		c0.076,0.799,0.052,1.635-0.166,2.41c-0.205,0.777-0.593,1.479-1.112,1.951c0.206-0.749,0.353-1.439,0.405-2.135
		c0.052-0.695,0.035-1.387-0.046-2.079C30.217,45.085,29.859,43.717,29.504,42.222z"/>
	<path fill="#91999F" d="M26.508,24.878c-3.267,0-6.582,2.951-6.582,2.951c7.098-3.246,12.085,0,12.085,0
		C31.374,27.022,29.064,24.873,26.508,24.878z"/>
	<path fill="#91999F" d="M14.223,26.35c0,0-6.525,20.704,0,37.65H9.418c0,0-7.021-18.763,0.789-38.168L14.223,26.35z"/>
	<path fill="#ADB5BC" d="M10.262,26.258c0,0-6.525,20.796,0,37.742H5.457c0,0-7.021-18.854,0.789-38.258L10.262,26.258z"/>
	<path fill="#91999F" d="M6.41,26.35c0,0-6.525,20.704,0,37.65H0.04V40.464L6.41,26.35z"/>
	<path fill="#C8D2DA" d="M18.101,8.584c0,0,3.634-1.037,5.343-0.119c11.585,6.223,6.036,7.258,1.949,5.663
		C22.462,12.984,18.101,8.584,18.101,8.584z"/>
	<path fill="#ADB5BC" d="M26.47,13.455c0,0,3.763-1.253,5.343-0.12c7.617,5.467,1.246,16.1,1.246,16.1s1.465-10.385-2.623-11.98
		C27.506,16.31,26.47,13.455,26.47,13.455z"/>
	<path fill="#C8D2DA" d="M0.04,8.702c12.288-5.861,19.623,0.713,19.623,0.713L0.04,30.733V8.702z"/>
	<path fill="#C8D2DA" d="M19.516,21.308c7.323-6.609,10.92-3.854,10.92-3.854C19.663-0.563-0.472,24.504,0.04,40.464
		C0.04,40.464,12.949,27.236,19.516,21.308z"/>
	<path fill="#C8D2DA" d="M15.927,31.038c8.495-8.727,12.209-16.657,12.209-16.657C19.103,25.832,3.225,32.338,0.03,60.344
		C0.03,60.344,8.031,39.149,15.927,31.038z"/>
	<path fill="#ADB5BC" d="M12.153,17.434c7.708-7.414,13.721-4.907,13.721-4.907C17.242,1.741,2.602,7.87,0.04,26.583v13.881
		C0.04,40.464,5.771,23.573,12.153,17.434z"/>
	<g>
		<path fill="none" stroke="#FFFFFF" stroke-miterlimit="10" d="M0.04,16.184c0,0,16.163,7.735,31.772,5.236"/>
		<ellipse fill="#FFFFFF" cx="2.602" cy="17.271" rx="1.945" ry="1.995"/>
		<ellipse fill="#FFFFFF" cx="7.676" cy="19.267" rx="1.158" ry="1.188"/>
		<ellipse fill="#FFFFFF" cx="12.95" cy="20.909" rx="0.983" ry="1.008"/>
		<ellipse fill="#FFFFFF" cx="17.77" cy="21.308" rx="1.746" ry="1.792"/>
		<ellipse fill="#FFFFFF" cx="24.422" cy="22.313" rx="0.979" ry="1.004"/>
		<ellipse fill="#FFFFFF" cx="29.504" cy="21.917" rx="1.368" ry="1.402"/>
	</g>
	<path fill="#42ADE2" d="M36.516,45.8c4.004-0.938,7.846-2.295,10.598-4.888c1.398-1.243,2.311-2.883,2.495-4.689
		c0.202-1.779-0.313-3.652-1.507-4.954c-1.139-1.307-3.056-1.757-4.637-1.016c-1.609,0.713-2.635,2.48-2.394,4.303
		c0.114,0.895,0.502,1.751,1.165,2.401c0.598,0.586,1.563,0.888,2.442,0.652c0.874-0.223,1.694-0.892,1.995-1.808
		c0.313-0.906,0.185-2.011-0.462-2.818c0.737,0.717,1.07,1.86,0.822,2.921c-0.237,1.069-1.084,1.987-2.157,2.36
		c-1.087,0.383-2.355,0.156-3.292-0.617c-0.87-0.713-1.45-1.789-1.667-2.906c-0.222-1.124-0.075-2.326,0.434-3.388
		c0.118-0.256,0.299-0.54,0.471-0.782l0.236-0.302c0.142-0.158,0.204-0.231,0.319-0.344c0.41-0.411,0.888-0.766,1.413-1.039
		c1.049-0.551,2.298-0.751,3.486-0.537c1.188,0.208,2.297,0.849,3.104,1.695c1.633,1.689,2.379,4.092,2.142,6.373
		c-0.114,1.141-0.441,2.26-0.978,3.276c-0.534,1.019-1.266,1.917-2.072,2.667c-1.633,1.508-3.635,2.518-5.695,3.06
		C40.718,45.964,38.58,46.14,36.516,45.8z"/>
	<path fill="#42ADE2" d="M50.606,43.067c2.833-1.287,5.59-2.507,7.764-4.297c0.525-0.454,1.022-0.94,1.425-1.457
		c0.361-0.491,0.641-1.096,0.787-1.711c0.291-1.238,0.107-2.596-0.617-3.623c-0.08-0.115-0.21-0.277-0.268-0.342
		c-0.136-0.145-0.273-0.284-0.354-0.34c-0.198-0.163-0.465-0.338-0.729-0.431c-0.534-0.215-1.141-0.251-1.709-0.079
		c-0.563,0.17-1.097,0.54-1.468,1.045c-0.332,0.455-0.556,1.1-0.532,1.733c0.011,0.635,0.253,1.282,0.653,1.761
		c0.401,0.492,1.028,0.752,1.672,0.65c0.626-0.1,1.268-0.55,1.518-1.195c0.264-0.645,0.212-1.473-0.26-2.09
		c0.565,0.522,0.833,1.396,0.626,2.206c-0.202,0.827-0.864,1.514-1.726,1.763c-0.855,0.261-1.871-0.016-2.518-0.643
		c-0.659-0.628-1.048-1.469-1.157-2.357c-0.103-0.892,0.063-1.813,0.579-2.631c0.486-0.76,1.224-1.374,2.104-1.71
		c0.877-0.333,1.886-0.366,2.791-0.054c0.461,0.152,0.861,0.375,1.264,0.682c0.229,0.172,0.359,0.305,0.493,0.433
		c0.207,0.211,0.316,0.349,0.466,0.538c1.108,1.447,1.463,3.385,1.057,5.118c-0.199,0.874-0.557,1.694-1.092,2.442
		c-0.514,0.709-1.107,1.313-1.774,1.816c-1.31,1.03-2.804,1.713-4.323,2.165C53.754,42.902,52.184,43.154,50.606,43.067z"/>
	<path fill="#42ADE2" d="M36.516,46.781c2.143-0.509,4.349-0.685,6.562-0.669c2.211,0.046,4.452,0.301,6.633,1.007
		c1.082,0.364,2.173,0.801,3.163,1.472c0.234,0.15,0.517,0.363,0.718,0.52c0.256,0.207,0.49,0.412,0.703,0.629
		c0.433,0.436,0.821,0.915,1.147,1.433c1.33,2.057,1.708,4.701,0.944,7.036c-0.186,0.579-0.443,1.145-0.748,1.658
		c-0.335,0.558-0.729,1.035-1.204,1.461c-0.938,0.852-2.183,1.369-3.452,1.433c-1.268,0.07-2.554-0.354-3.523-1.081
		c-1.057-0.787-1.681-1.938-1.908-3.138c-0.229-1.199-0.041-2.462,0.529-3.522c0.558-1.074,1.68-1.914,2.902-2.001
		c1.226-0.111,2.423,0.493,3.022,1.522c0.592,1.009,0.53,2.289-0.044,3.211c0.461-0.993,0.309-2.179-0.287-2.997
		c-0.573-0.807-1.682-1.206-2.603-1.025c-1.982,0.339-2.83,2.759-2.33,4.552c0.23,0.918,0.808,1.743,1.52,2.228
		c0.796,0.533,1.71,0.766,2.611,0.677c0.898-0.09,1.747-0.504,2.403-1.125c0.325-0.307,0.615-0.687,0.828-1.065
		c0.235-0.427,0.417-0.86,0.55-1.318c0.531-1.824,0.188-3.867-0.845-5.453c-1.006-1.615-2.796-2.556-4.724-3.268
		c-1.936-0.686-4.014-1.12-6.123-1.438C40.849,47.187,38.701,46.977,36.516,46.781z"/>
	<path fill="#42ADE2" d="M47.778,45.415c2.778-0.629,5.611-0.812,8.473-0.64c1.437,0.095,2.869,0.302,4.349,0.829
		c0.37,0.137,0.738,0.322,1.11,0.561l0.139,0.096l0.104,0.075l0.051,0.042l0.204,0.164c0.148,0.135,0.357,0.322,0.487,0.479
		c0.578,0.644,0.977,1.428,1.181,2.258c0.368,1.665-0.065,3.54-1.484,4.723c-0.711,0.568-1.664,0.836-2.565,0.716
		c-0.45-0.059-0.884-0.21-1.265-0.433c-0.104-0.066-0.166-0.097-0.301-0.194c-0.076-0.063-0.12-0.089-0.223-0.184
		c-0.197-0.178-0.341-0.338-0.466-0.526c-0.503-0.741-0.661-1.643-0.495-2.467c0.084-0.412,0.242-0.81,0.48-1.149
		c0.253-0.366,0.601-0.645,1-0.811c0.803-0.35,1.771-0.096,2.268,0.543c0.514,0.635,0.478,1.53,0.077,2.104
		c0.264-0.658,0.056-1.41-0.402-1.799c-0.466-0.39-1.141-0.419-1.591-0.127c-0.228,0.141-0.417,0.354-0.524,0.586
		c-0.122,0.258-0.201,0.531-0.219,0.811c-0.044,0.557,0.149,1.118,0.488,1.494c0.08,0.095,0.184,0.187,0.249,0.235
		c0.024,0.026,0.133,0.091,0.194,0.134l0.15,0.073c0.233,0.107,0.479,0.166,0.725,0.174c0.492,0.021,0.965-0.18,1.331-0.501
		c0.73-0.658,1.004-1.921,0.71-2.943c-0.142-0.522-0.401-1.015-0.768-1.404c-0.096-0.109-0.153-0.152-0.261-0.254l-0.206-0.161
		l-0.052-0.04c0.057,0.043-0.007-0.003-0.004,0l-0.078-0.051c-0.22-0.135-0.485-0.249-0.767-0.363
		c-1.142-0.457-2.497-0.679-3.829-0.915C53.354,46.115,50.583,45.858,47.778,45.415z"/>
</g>
</svg>
