<?xml version="1.0" encoding="utf-8"?>
<!-- Generator: Adobe Illustrator 15.0.0, SVG Export Plug-In . SVG Version: 6.00 Build 0)  -->
<!DOCTYPE svg PUBLIC "-//W3C//DTD SVG 1.1//EN" "http://www.w3.org/Graphics/SVG/1.1/DTD/svg11.dtd">
<svg version="1.1" id="Layer_1" xmlns="http://www.w3.org/2000/svg" xmlns:xlink="http://www.w3.org/1999/xlink" x="0px" y="0px"
	 width="64px" height="64px" viewBox="0 0 64 64" enable-background="new 0 0 64 64" xml:space="preserve">
<g>
	<g>
		<circle fill="#E5E5E5" cx="32.377" cy="54.396" r="9.603"/>
		<path fill="#E5E5E5" d="M22.774,8.787l3.602,42.01h12.002l3.602-42.01C41.979-2.929,22.774-2.929,22.774,8.787z"/>
		<path fill="#F5F5F5" d="M26.616,8.542l2.16,42.255h7.201l2.16-42.255C38.138,1.751,26.616,1.751,26.616,8.542z"/>
		<circle fill="#F5F5F5" cx="32.377" cy="54.396" r="7.202"/>
	</g>
	<polygon fill="#ED4C5C" points="28.536,20.667 29.976,50.037 34.777,50.037 36.218,20.667 	"/>
	<circle fill="#ED4C5C" cx="32.377" cy="54.396" r="6.001"/>
	<ellipse fill="#A5203C" cx="32.377" cy="20.667" rx="3.841" ry="1.286"/>
	<polygon fill="#51575B" points="31.179,27.916 25.974,27.916 25.894,26.331 31.097,26.331 	"/>
	<polygon fill="#51575B" points="31.213,32.417 26.222,32.417 26.145,30.833 31.136,30.833 	"/>
	<polygon fill="#51575B" points="31.218,36.918 26.427,36.918 26.353,35.332 31.144,35.332 	"/>
	<polygon fill="#51575B" points="31.251,41.418 26.927,41.418 26.858,39.834 31.183,39.834 	"/>
	<polygon fill="#51575B" points="31.288,45.92 27.292,45.92 27.229,44.335 31.226,44.335 	"/>
	<g>
		<path fill="#42ADE2" d="M18.994,18.588c0,0-1.77,0.529-3.96,8.871c-1.45,5.521-8.854,3.25-7.209-2.709
			C9.558,18.475,18.994,18.588,18.994,18.588z"/>
		<path fill="#42ADE2" d="M19.217,30.524c0,0-0.59,1.038,2.118,5.916c1.791,3.227-2.685,5.479-4.582,1.957
			C14.757,34.69,19.217,30.524,19.217,30.524z"/>
		<path fill="#42ADE2" d="M19.468,7.684c0,0-1.186,0.135-3.534,5.196c-1.551,3.349-6.008,1.058-4.28-2.548
			C13.474,6.535,19.468,7.684,19.468,7.684z"/>
	</g>
	<path fill="#42ADE2" d="M44.192,24.383c0,0,1.357,1.252-0.336,9.708c-1.121,5.597,6.529,6.807,7.666,0.73
		C52.72,28.423,44.192,24.383,44.192,24.383z"/>
	<path fill="#42ADE2" d="M44.619,12.065c0,0,1.624-0.009,5.61,6.45c2.633,4.273,8.283,0.462,5.371-4.13
		C52.531,9.548,44.619,12.065,44.619,12.065z"/>
</g>
</svg>
