<?xml version="1.0" encoding="utf-8"?>
<!-- Generator: Adobe Illustrator 15.0.0, SVG Export Plug-In . SVG Version: 6.00 Build 0)  -->
<!DOCTYPE svg PUBLIC "-//W3C//DTD SVG 1.1//EN" "http://www.w3.org/Graphics/SVG/1.1/DTD/svg11.dtd">
<svg version="1.1" id="Layer_1" xmlns="http://www.w3.org/2000/svg" xmlns:xlink="http://www.w3.org/1999/xlink" x="0px" y="0px"
	 width="64px" height="64px" viewBox="0 0 64 64" enable-background="new 0 0 64 64" xml:space="preserve">
<g>
	<path fill="#97A3A2" d="M14.641,3.698c-3.204,0.09-11.807,0.38-10.212,7.961c1.595,7.581-0.829,6.747,0,9.246
		c0.829,2.498,2.212,5.521,2.461,8.474c0.25,2.954,4.875,6.679,4.875,6.679s-4.737,0.967-0.75,5.78
		c3.987,4.813,3.25,6.546,6.25,7.316c0,0,2.023,7.285,4.375,7.19c0,0,4.25,7.377,10.375,2.405c0,0-2.881-1.854,0.439-3.817
		c0,0-0.254-4.123-1.814-6.747c0,0,7.579-9.236,7.875-12c0,0,5.146,0.397,7.376-3.211c0,0,10.874,2.056,12.875-3.082
		c0,0,4.999-11.3-15.126-21.316C43.641,8.577,30.764,3.245,14.641,3.698z"/>
	<path fill="#C8D9D8" d="M6.498,20.607c0.008,0.021,0.02,0.038,0.028,0.059C6.505,20.598,6.38,20.265,6.498,20.607z"/>
	<path fill="#C8D9D8" d="M26.946,59.068c0.009,0,0.019,0.002,0.027,0.002C27.144,59.075,27.067,59.072,26.946,59.068z"/>
	<path fill="#C8D9D8" d="M40.633,34.322C40.984,34.28,40.621,34.141,40.633,34.322L40.633,34.322z"/>
	<g>
		<path fill="#C8D9D8" d="M61.038,22.407c0.045,0.142,0.097,0.282,0.151,0.42c-0.832-1.909-2.146-3.556-3.677-4.919
			c0.456,0.293,4.362,2.359,4.373,2.408c-0.464-2.061-4.938-4.613-6.508-5.793c-2.721-2.043-5.574-3.901-8.559-5.506
			c-5.622-3.025-11.685-5.038-17.936-6.117C22.719,1.834,15.646,1.484,9.55,3.15c-2.239,0.612-4.643,1.688-5.886,3.82
			C2.92,8.247,2.766,9.789,3.035,11.234c0.127,0.663,0.334,1.298,0.624,1.904C3.101,13.763,2.668,14.5,2.393,15.3
			c-0.938,2.726-0.06,5.801,1.219,8.246c1.455,2.783,0.749,6.029,2.448,9.044c0.646,1.147,1.436,2.206,2.348,3.143
			c0.766,0.787-0.484,2.066-0.564,3.177c-0.205,2.818,1.931,4.958,4.115,6.266c1.312,0.787,1.15,0.804,1.665,2.216
			c0.212,0.584,1.682,1.962,1.577,2.409c-0.732,2.824,0.19,5.641,2.699,7.135c0.877,0.523,2.288,0.537,2.604,1.623
			c0.383,1.312,1.42,2.245,2.61,2.778c1.298,0.581,2.787,0.754,4.189,0.62c0.706-0.065,1.498-0.15,2.5-0.453
			c2.198-0.664,3.393-1.95,4.343-4.041c-0.562-0.216-1.136-0.381-1.726-0.492c4.008-2.061,4.665-7.383-0.569-7.892
			c0.55-0.466,0.979-1.036,1.33-1.672c0.604-1.1,1.22-1.573,2.019-2.514c1.175-1.382,1.247-2.555,2.665-3.693
			c1.493-1.197,1.575-2.699,3.507-2.979c1.938-0.283,3.953-0.845,5.466-2.191c0.318-0.281,0.787-1.156,1.194-1.272
			c1.1-0.313,2.623-0.023,3.778-0.134c2.087-0.198,4.196-0.618,6.08-1.602c3.534-1.846,4.762-5.773,3.559-9.55
			C61.374,23.32,61.079,22.387,61.038,22.407z M6.917,21.468c-0.74-1.451-1.559-3.417-0.973-5.052
			c1.263,1.353,2.705,2.514,4.191,3.596C8.991,20.316,7.881,20.751,6.917,21.468z M11.249,32.994
			c-0.229-0.201-0.148-0.13,0.005,0.004C11.251,32.996,11.25,32.996,11.249,32.994z M8.987,29.872
			c1.495,1.167,3.118,2.15,4.791,3.018c-1.075,0.443-1.499,0.883-2.355,0.239C10.428,32.204,9.615,31.087,8.987,29.872z
			 M15.997,47.732c0.108-0.204-0.269-0.265-0.115-0.096c-0.365-0.261-0.665-0.582-0.88-0.987c0.145,0.263,1.14,0.325,1.415,0.399
			C16.277,47.276,16.138,47.506,15.997,47.732z M16.814,42.885c-0.006-0.002-0.009-0.002-0.015-0.004
			c-1.48-0.494-3.013-1.093-4.178-2.189c-0.579-0.544-1.555-2.734-0.01-1.834c3.198,1.865,6.708,3.166,10.294,3.975
			C20.542,43.513,19.262,43.699,16.814,42.885C17.068,42.969,17.23,43.024,16.814,42.885z M25.267,48.185
			c-0.269,0.041-0.47,0.065-0.641,0.084c-1.42,0.188-2.854,0.267-4.286,0.234C21.47,47.43,23.777,48.188,25.267,48.185z
			 M21.67,53.672c-0.001,0.002-0.001,0.002-0.002,0.004c-0.001,0-0.001,0-0.002,0.002c-0.921,1.121-2.841-1.093-2.767-2.077
			c0.091-1.224,0.888-0.585,1.79-0.489c1.349,0.144,2.708,0.189,4.062,0.123C23.615,51.883,22.512,52.643,21.67,53.672z
			 M28.513,58.787C28.561,58.719,28.592,58.673,28.513,58.787c-0.368,0.527-1.335,0.293-1.853,0.271
			c0.095,0.004,0.19,0.006,0.286,0.011c-0.88-0.034-1.784-0.19-2.573-0.615c1.629,0.026,3.262-0.101,4.864-0.417
			C28.964,58.255,28.724,58.506,28.513,58.787z M26.807,54.259c1.131-0.542,3.701-0.815,4.37-1.174
			C29.868,53.907,28.304,54.123,26.807,54.259z M24.382,38.954c-2.967-0.62-5.871-1.607-8.584-2.998
			c3.1-1.618,5.34,0.008,8.553,0.814c1.567,0.394,3.149,0.727,4.741,0.999c1.277,0.218,3.363,0.004,4.127,1.341
			C30.333,39.887,27.27,39.56,24.382,38.954z M35.419,34.436c-0.352-0.018-0.703-0.044-1.054-0.068
			c0.313,0.021,0.63,0.04,0.944,0.062c-2.632-0.178-5.248-0.584-7.828-1.147c0.631-0.005,5.261,0.805,5.57,0.041
			c0.883-2.179-10.569-2.554-11.385-2.472c-4.411,0.447-9.734-3.153-12.665-6.381c2.653-2.443,5.734-1.375,8.361,0.145
			c-0.389,0.142-3.342,1.226-3.059,1.91c0.153,0.371,2.097-0.24,2.333-0.289c1.455-0.301,2.568-0.57,3.905,0.141
			c2.097,1.114,4.238,2.142,6.416,3.078c2.036,0.874,4.104,1.655,6.202,2.356c1.836,0.613,3.815,0.397,3.872,2.691
			C36.495,34.489,35.956,34.468,35.419,34.436C35.457,34.438,35.956,34.467,35.419,34.436z M40.633,34.322
			c-0.019-0.181-0.034-0.36-0.052-0.541c0.493,0.102,0.986,0.202,1.48,0.303C41.589,34.19,41.113,34.27,40.633,34.322z
			 M41.801,29.91c-0.237-0.05-0.204-0.042-0.097-0.018c-1.399-0.285-2.487-0.299-3.437-1.429c-0.713-0.846-1.586-1.539-2.506-2.127
			c-2.092-1.336-4.369-2.461-6.634-3.45c-4.981-2.176-10.713-2.19-15.224-5.164c6.08,0.748,12.041,1.7,17.827,3.832
			c4.396,1.62,11.012,4.006,12.906,8.907C43.686,30.318,42.742,30.116,41.801,29.91z M58.335,27.283
			c-0.315,1.467-1.732,2.245-2.998,2.694c0.956-2.893-0.859-5.776-3.021-7.483c-0.839-0.662-2.124-1.614-3.262-1.485
			c-1.499,0.171,1.062,3.463,1.35,3.923c1.46,2.349,1.838,4.39-1.076,5.599c-1.18,0.491-0.935-0.458-1.296-1.373
			c-0.594-1.504-1.563-2.798-2.687-3.927c-4.142-4.159-10.269-6.098-15.767-7.452c-3.809-0.938-7.717-1.408-11.63-1.539
			c-1.561-0.052-3.123-0.056-4.683,0c-1.852,0.067-2.669-0.837-3.968-2.076c6.122-1.503,13.186,0.159,19.223,1.436
			c3.073,0.65,6.123,1.401,9.166,2.183c1.69,0.436,3.38,0.881,5.067,1.326c0.864,0.228,2.428,0.985,3.332,0.687
			c0.326-0.107-2.329-1.604-2.398-1.638c-1.823-0.888-3.718-1.63-5.611-2.344c-3.55-1.336-7.169-2.476-10.838-3.412
			c-3.747-0.956-7.553-1.813-11.41-2.118c-2.048-0.162-4.131-0.176-6.171,0.107c-1.164,0.161-2.922,1.389-2.921-0.479
			c0.004-5.337,15.122-4.238,18.103-4.033c7.729,0.532,15.312,2.64,22.3,6.066c-4.79-1.878-9.836-3.082-14.952-3.451
			c-2.47-0.177-4.96-0.183-7.434-0.096c-1.588,0.054-6.221-0.363-7.44,0.875c-0.041,0.042,2.999,0.496,3.272,0.514
			c2.476,0.159,4.953,0.292,7.423,0.524c4.253,0.399,8.469,1.169,12.559,2.447c3.961,1.238,7.916,2.882,11.419,5.176
			C54.739,19.74,59.43,23.314,58.335,27.283z"/>
		<path fill="#C8D9D8" d="M21.67,53.672C21.872,53.425,22.164,53.068,21.67,53.672L21.67,53.672z"/>
		<path fill="#C8D9D8" d="M61.446,23.472C62.677,27.337,61.478,23.54,61.446,23.472L61.446,23.472z"/>
		<path fill="#C8D9D8" d="M6.917,21.468C7.903,20.734,6.781,21.203,6.917,21.468L6.917,21.468z"/>
		<path fill="#C8D9D8" d="M24.625,48.269c0.214-0.028,0.428-0.052,0.641-0.084C24.089,48.188,23.756,48.362,24.625,48.269z"/>
		<path fill="#C8D9D8" d="M40.633,34.322C41.113,34.264,40.62,34.142,40.633,34.322L40.633,34.322z"/>
	</g>
	<path fill="#C8D9D8" d="M18.229,34.937C17.435,35.246,18.261,34.925,18.229,34.937L18.229,34.937z"/>
	<path fill="#C8D9D8" d="M35.378,34.434c0.014,0.001,0.026,0.001,0.041,0.002c-0.022-0.002-0.062-0.005-0.108-0.008
		C35.333,34.43,35.355,34.433,35.378,34.434z"/>
	<g>
		<path fill="#FFFFFF" d="M43.331,18.628c-0.246-0.193-0.556-0.428-0.965-0.69c-0.432-0.255-0.943-0.544-1.526-0.86
			c-0.593-0.313-1.341-0.629-2.116-0.979c-0.401-0.169-0.857-0.328-1.313-0.5c-0.462-0.166-0.918-0.352-1.447-0.504
			c-2.039-0.67-4.48-1.244-7.044-1.765c-0.651-0.118-1.293-0.235-1.927-0.351c-0.636-0.119-1.259-0.225-1.868-0.311
			c-1.223-0.18-2.4-0.354-3.528-0.503c-1.129-0.146-2.204-0.278-3.21-0.397c-1.009-0.116-1.963-0.196-2.827-0.276
			c-1.723-0.166-3.143-0.209-4.109-0.227c-0.97-0.013-1.502,0.03-1.511,0.132c-0.009,0.101,0.505,0.251,1.428,0.435
			c0.923,0.19,2.255,0.382,3.889,0.672c0.818,0.135,1.713,0.281,2.672,0.438c0.96,0.167,1.985,0.338,3.068,0.514
			c1.077,0.182,2.205,0.372,3.376,0.569c0.595,0.092,1.174,0.198,1.752,0.312c0.583,0.109,1.177,0.22,1.776,0.331
			c2.371,0.483,4.578,0.959,6.443,1.492c0.49,0.118,0.91,0.269,1.349,0.4c0.429,0.137,0.866,0.259,1.262,0.393
			c0.767,0.28,1.529,0.525,2.182,0.774c0.645,0.254,1.243,0.48,1.785,0.677c0.524,0.205,0.972,0.388,1.365,0.528
			c0.786,0.282,1.318,0.419,1.51,0.367C43.982,19.251,43.814,19.016,43.331,18.628z"/>
		<path fill="#FFFFFF" d="M32.081,29.202c-2.83-1.102-6.641-2.64-10.601-4.735c-7.812-4.302-13.678-8.617-14.394-8.095
			c-0.315,0.224,0.797,1.544,2.956,3.466c2.191,1.897,5.486,4.392,9.687,6.674c4.243,2.249,8.555,3.666,11.705,4.376
			c0.39,0.107,0.769,0.175,1.133,0.225c0.362,0.054,0.701,0.105,1.021,0.15c0.639,0.087,1.187,0.148,1.641,0.181
			c0.903,0.065,1.411,0.018,1.448-0.153C36.756,30.933,34.936,30.215,32.081,29.202z"/>
		<path fill="#FFFFFF" d="M33.06,36.434c-0.628-0.242-1.552-0.491-2.661-0.82c-0.557-0.154-1.166-0.32-1.816-0.498
			c-0.643-0.19-1.328-0.386-2.051-0.58c-1.436-0.439-3.012-0.921-4.666-1.425c-3.33-1.03-6.275-1.993-8.31-2.744
			c-2.061-0.731-3.135-1.317-3.599-1.193c-0.205,0.064-0.2,0.351,0.145,0.793c0.332,0.453,1.027,1.01,1.996,1.61
			c1.943,1.198,4.997,2.477,8.499,3.559c0.897,0.275,1.697,0.518,2.579,0.741c0.865,0.221,1.695,0.447,2.5,0.611
			c0.812,0.159,1.583,0.301,2.305,0.424c0.723,0.117,1.399,0.186,2.014,0.256c1.23,0.145,2.229,0.156,2.92,0.135
			c0.692-0.028,1.078-0.117,1.1-0.272C34.033,36.874,33.688,36.67,33.06,36.434z"/>
		<path fill="#FFFFFF" d="M28.936,41.278c-1.774-0.458-4.182-1.027-6.8-1.672c-2.587-0.684-4.886-1.313-6.543-1.82
			c-0.217-0.058-0.424-0.112-0.621-0.165c-0.184-0.06-0.358-0.114-0.523-0.166c-0.336-0.104-0.647-0.185-0.922-0.242
			c-0.552-0.117-0.964-0.142-1.163-0.041c-0.195,0.101-0.153,0.317,0.117,0.641c0.135,0.162,0.33,0.349,0.576,0.562
			c0.125,0.104,0.262,0.216,0.415,0.333c0.159,0.106,0.339,0.211,0.529,0.321c1.491,0.934,3.986,1.918,6.897,2.683
			c2.93,0.723,5.699,1.092,7.698,1.162c2.009,0.065,3.225-0.119,3.234-0.426C31.843,42.118,30.7,41.73,28.936,41.278z"/>
		<path fill="#FFFFFF" d="M28.67,46.479c1.361-0.315,1.803-0.784,1.428-0.981c-0.388-0.219-1.144-0.265-2.124-0.351
			c-0.989-0.072-2.386-0.171-4.035-0.251c-3.296-0.175-6.324-0.16-6.682,0.36c-0.352,0.496,2.248,1.347,6.182,1.562
			C25.398,46.912,27.333,46.802,28.67,46.479z"/>
		<path fill="#FFFFFF" d="M27.5,54.954c-0.759,0.063-1.395,0.221-1.835,0.344c-0.448,0.143-0.759,0.327-0.728,0.514
			c0.027,0.189,0.425,0.347,1.124,0.447c0.723,0.114,1.604,0.095,2.544,0.012c1.813-0.216,2.819-0.739,2.395-1.08
			C30.566,54.84,29.016,54.775,27.5,54.954z"/>
		<path fill="#FFFFFF" d="M25.654,52.639c-0.417,0.221-0.691,0.458-0.631,0.636c0.061,0.181,0.479,0.268,1.185,0.239
			c0.73-0.016,1.593-0.192,2.507-0.441c1.749-0.537,2.651-1.231,2.174-1.491c-0.485-0.267-2.023-0.054-3.484,0.394
			C26.667,52.171,26.067,52.44,25.654,52.639z"/>
		<path fill="#FFFFFF" d="M27.714,49.99c1.749-0.536,2.651-1.231,2.174-1.491c-0.486-0.267-2.023-0.054-3.484,0.394
			c-0.736,0.196-1.336,0.467-1.75,0.664c-0.417,0.221-0.691,0.457-0.631,0.636c0.061,0.181,0.479,0.268,1.185,0.239
			C25.938,50.418,26.8,50.241,27.714,49.99z"/>
	</g>
</g>
</svg>
