<?xml version="1.0" encoding="utf-8"?>
<!-- Generator: Adobe Illustrator 15.0.0, SVG Export Plug-In . SVG Version: 6.00 Build 0)  -->
<!DOCTYPE svg PUBLIC "-//W3C//DTD SVG 1.1//EN" "http://www.w3.org/Graphics/SVG/1.1/DTD/svg11.dtd">
<svg version="1.1" id="Layer_1" xmlns="http://www.w3.org/2000/svg" xmlns:xlink="http://www.w3.org/1999/xlink" x="0px" y="0px"
	 width="64px" height="64px" viewBox="0 0 64 64" enable-background="new 0 0 64 64" xml:space="preserve">
<g>
	<g>
		<path fill="#42ADE2" d="M23.916,44.848c-0.571,1.569-0.086,3.189,1.086,3.616s2.586-0.502,3.157-2.071
			c0.673-1.85,0.719-4.382,0.262-7.316C26.219,41,24.589,42.998,23.916,44.848z"/>
		<path fill="#42ADE2" d="M37.014,46.393c0.673-1.85,0.719-4.382,0.262-7.316c-2.202,1.924-3.832,3.922-4.505,5.771
			c-0.571,1.569-0.086,3.189,1.086,3.616S36.442,47.962,37.014,46.393z"/>
		<path fill="#42ADE2" d="M46.13,39.076c-2.203,1.924-3.832,3.922-4.506,5.771c-0.57,1.569-0.086,3.189,1.086,3.616
			s2.586-0.502,3.158-2.071C46.54,44.543,46.587,42.011,46.13,39.076z"/>
		<path fill="#42ADE2" d="M15.062,44.848c-0.571,1.569-0.086,3.189,1.086,3.616s2.585-0.502,3.158-2.071
			c0.672-1.85,0.719-4.382,0.262-7.316C17.365,41,15.735,42.998,15.062,44.848z"/>
		<path fill="#42ADE2" d="M16.966,57.098c-0.571,1.569-0.086,3.189,1.086,3.616c1.171,0.427,2.585-0.502,3.158-2.071
			c0.672-1.85,0.719-4.382,0.262-7.316C19.269,53.25,17.639,55.248,16.966,57.098z"/>
		<path fill="#42ADE2" d="M30.063,58.643c0.674-1.85,0.719-4.382,0.262-7.316c-2.201,1.924-3.832,3.922-4.504,5.771
			c-0.572,1.569-0.086,3.189,1.086,3.616S29.493,60.212,30.063,58.643z"/>
		<path fill="#42ADE2" d="M39.18,51.326c-2.202,1.924-3.832,3.922-4.505,5.771c-0.571,1.569-0.086,3.189,1.086,3.616
			s2.586-0.502,3.157-2.071C39.591,56.793,39.637,54.261,39.18,51.326z"/>
		<path fill="#42ADE2" d="M8.112,57.098c-0.571,1.569-0.086,3.189,1.086,3.616s2.586-0.502,3.157-2.071
			c0.673-1.85,0.719-4.382,0.262-7.316C10.415,53.25,8.785,55.248,8.112,57.098z"/>
	</g>
	<g>
		<path fill="#FFFFFF" d="M19.322,33.659c-0.818,0-1.627-0.131-2.406-0.389c-3.143-1.031-5.256-3.938-5.256-7.23
			c0-2.198,0.958-4.288,2.628-5.738c0.431-0.375,0.9-0.699,1.401-0.968l-0.025-0.001l0.508-1.763c1.269-4.4,5.368-7.473,9.966-7.473
			c0.458,0,0.929,0.036,1.481,0.115c0.422,0.06,0.838,0.146,1.244,0.255l0.203-0.365c1.859-3.329,5.387-5.396,9.207-5.396
			c5.802,0,10.521,4.694,10.521,10.466c0,0.281-0.018,0.557-0.04,0.832l-0.017,0.205c0.447,0.169,0.883,0.375,1.305,0.618
			c2.806,1.608,4.549,4.602,4.549,7.811c0,4.228-2.893,7.84-7.033,8.785c-0.677,0.156-1.363,0.236-2.035,0.236H19.322z"/>
		<path fill="#B6C1D1" d="M38.274,6.23c4.964,0,8.988,4.004,8.988,8.941c0,0.24-0.017,0.474-0.035,0.709
			c-2.078,0.157-3.966,0.981-5.45,2.262c1.104-0.631,2.38-0.997,3.745-0.997c0.506,0,0.998,0.051,1.477,0.145
			c0.815,0.162,1.581,0.455,2.277,0.855c2.26,1.296,3.783,3.714,3.783,6.492c0,3.559-2.497,6.536-5.844,7.3
			c-0.545,0.127-1.109,0.198-1.691,0.198h-0.002h-26.2h-0.001c-0.672,0-1.316-0.11-1.921-0.312
			c-2.442-0.802-4.207-3.088-4.207-5.784c0-1.834,0.816-3.474,2.103-4.59c0.583-0.508,1.262-0.903,2.007-1.162
			c0.633-0.219,1.31-0.347,2.019-0.347c1.976,0,3.729,0.936,4.851,2.38l0.055-0.001c-1.302-2.383-3.734-4.063-6.581-4.331
			c1.06-3.673,4.458-6.369,8.492-6.369c0.431,0,0.851,0.042,1.264,0.102c0.819,0.117,1.601,0.341,2.331,0.664
			c2.719,1.207,4.705,3.735,5.146,6.764c0-0.018,0.002-0.036,0.002-0.053c0-3.449-1.779-6.484-4.473-8.255
			C31.942,8.094,34.888,6.23,38.274,6.23 M38.274,3.183c-4.135,0-7.971,2.113-10.177,5.561c-0.085-0.013-0.171-0.025-0.257-0.039
			c-0.631-0.089-1.17-0.13-1.702-0.13c-5.279,0-9.984,3.525-11.44,8.575l-0.347,1.202c-0.376,0.24-0.736,0.51-1.076,0.806
			c-2,1.735-3.149,4.245-3.149,6.883c0,3.951,2.537,7.438,6.312,8.679c0.928,0.308,1.901,0.464,2.883,0.464h26.201
			c0.791,0,1.594-0.092,2.388-0.275c4.835-1.104,8.216-5.327,8.216-10.27c0-3.753-2.037-7.252-5.316-9.132
			c-0.158-0.091-0.318-0.177-0.48-0.259c0-0.025,0-0.05,0-0.075C50.329,8.562,44.921,3.183,38.274,3.183L38.274,3.183z"/>
	</g>
</g>
</svg>
