<?xml version="1.0" encoding="utf-8"?>
<!-- Generator: Adobe Illustrator 15.0.0, SVG Export Plug-In . SVG Version: 6.00 Build 0)  -->
<!DOCTYPE svg PUBLIC "-//W3C//DTD SVG 1.1//EN" "http://www.w3.org/Graphics/SVG/1.1/DTD/svg11.dtd">
<svg version="1.1" id="Layer_1" xmlns="http://www.w3.org/2000/svg" xmlns:xlink="http://www.w3.org/1999/xlink" x="0px" y="0px"
	 width="64px" height="64px" viewBox="0 0 64 64" enable-background="new 0 0 64 64" xml:space="preserve">
<g>
	<g>
		<polygon fill="#75A843" points="32.89,17.304 35.391,64 30.39,64 		"/>
	</g>
	<path fill="#83BF4F" d="M27.063,45.323c6.841,3.661,5.327,10.11,5.327,10.11s-5.65,5.061-12.494,1.398
		c-4.714-2.521-8.783-12.369-8.783-12.369S22.346,42.802,27.063,45.323z"/>
	<polygon fill="#947151" points="40.933,48.36 33.568,46.29 33.533,50.316 	"/>
	<g>
		<path fill="#871212" d="M25.587,22.186c3.718,9.54,5.245,14.456,11.711,14.456c6.469,0,16.32-16.617,6.899-21.992
			C34.966,9.384,35.257,2,35.257,2S19.548,6.688,25.587,22.186z"/>
		<path fill="#991D1D" d="M45.152,24.203c-4.79,9.134-5.243,14.457-11.711,14.457s-18.331-21.8-7.83-25.124
			c12.997-4.114,16.319-8.87,16.319-8.87S52.305,10.563,45.152,24.203z"/>
		<path fill="#AD2727" d="M45.986,16.041c0.031-3.912-17.045-7.177-19.998-13.253c0,0-8.25,5.912-5.066,11.961
			C22.693,18.11,45.883,29.203,45.986,16.041z"/>
		<path fill="#CC3636" d="M36.823,19.463c10.4,12.962,4.817,20.751-3.688,20.751c-8.502,0-17.806-8.205-15.396-17.774
			c2.422-9.621-1.016-17.774-1.016-17.774S28.875,9.555,36.823,19.463z"/>
		<path fill="#E24B4B" d="M27.301,18.471c-11.835,11.896-2.059,21.743,6.447,21.743c8.504,0,15.397-7.957,15.397-17.774
			c0-9.816,2.635-15.832,2.635-15.832S35.731,9.996,27.301,18.471z"/>
		<path fill="#75A843" d="M34.007,36.067c13.147-0.177,7.391,4.961-1.115,4.961c-20.92,0-19.994-18.258-19.994-18.258
			S22.338,36.226,34.007,36.067z"/>
		<path fill="#83BF4F" d="M34.007,36.067c-3.533,1.441-12.719,3.476-4.41,5.127c16.424,3.261,23.291-17.783,23.291-17.783
			S44.495,31.793,34.007,36.067z"/>
	</g>
</g>
</svg>
