<?xml version="1.0" encoding="utf-8"?>
<!-- Generator: Adobe Illustrator 15.0.0, SVG Export Plug-In . SVG Version: 6.00 Build 0)  -->
<!DOCTYPE svg PUBLIC "-//W3C//DTD SVG 1.1//EN" "http://www.w3.org/Graphics/SVG/1.1/DTD/svg11.dtd">
<svg version="1.1" id="Layer_1" xmlns="http://www.w3.org/2000/svg" xmlns:xlink="http://www.w3.org/1999/xlink" x="0px" y="0px"
	 width="64px" height="64px" viewBox="0 0 64 64" enable-background="new 0 0 64 64" xml:space="preserve">
<g>
	<g>
		<path fill="#83BF4F" d="M45.643,35.021c-9.465-3.094-15.154,15.67-15.154,15.67s3.148,6.191,12.988,7.744
			C61.123,61.222,62,37.528,62,37.528S53.264,37.512,45.643,35.021z"/>
		<path fill="#83BF4F" d="M18.359,35.021c9.467-3.094,15.154,15.67,15.154,15.67s-3.15,6.191-12.986,7.744
			C2.879,61.222,2,37.528,2,37.528S10.736,37.512,18.359,35.021z"/>
	</g>
	<g>
		<g>
			<g>
				<circle fill="#FFC7CE" cx="32.002" cy="18.876" r="13.539"/>
				<g>
					<circle fill="#FFC7CE" cx="23.414" cy="41.739" r="13.539"/>
					<circle fill="#FFC7CE" cx="40.589" cy="41.739" r="13.54"/>
				</g>
				<g>
					<circle fill="#FFC7CE" cx="19.408" cy="27.067" r="13.539"/>
					<circle fill="#FFC7CE" cx="44.595" cy="27.067" r="13.54"/>
				</g>
			</g>
		</g>
		<g>
			<g>
				<circle fill="#FF506E" cx="32.001" cy="21.381" r="10.571"/>
				<g>
					<circle fill="#FF506E" cx="25.296" cy="39.233" r="10.571"/>
					<circle fill="#FF506E" cx="38.706" cy="39.233" r="10.571"/>
				</g>
				<g>
					<path fill="#FF506E" d="M32.74,27.778c0,5.839-4.732,10.572-10.572,10.572c-5.836,0-10.572-4.732-10.572-10.572
						c0-5.84,4.736-10.572,10.572-10.572C28.008,17.206,32.74,21.938,32.74,27.778z"/>
					<circle fill="#FF506E" cx="41.835" cy="27.778" r="10.571"/>
				</g>
			</g>
		</g>
	</g>
	<g>
		<g>
			<path fill="#FFC7CE" d="M30.795,27.325c-0.354-0.109-0.707-0.214-1.07-0.298c-2.592-0.599-3.936-3.015-5.811-5.186
				c-1.455-1.691-1.479-4.986-0.525-7.254c0.361-0.86-0.008-1.577,1.01-1.997c2.453-1.014,3.76-3.081,6.525-3.841
				c0.518-0.143,1.059-0.212,1.604-0.249c-1.57-0.109-3.17,0.062-4.559,0.661c-2.633,1.135-3.641,3.364-5.93,4.707
				c-0.301,0.178-0.547,0.386-0.768,0.607c-0.475,0.475-0.787,1.035-0.949,1.65c-0.631,2.379,0.842,5.499,2.52,6.973
				c2.152,1.891,3.822,4.095,6.475,4.331c0.912,0.08,1.814,0.27,2.719,0.44c0.002-0.042,0.012-0.089,0.014-0.132
				c-0.314-0.108-0.629-0.214-0.947-0.315C30.998,27.389,30.898,27.356,30.795,27.325z"/>
		</g>
		<g>
			<path fill="#FFC7CE" d="M32.357,27.842c0.688-3.682,5.396-8.885,7.809-9.862c1.746-0.705,3.578-0.588,5.4-0.075
				c0.996,0.279,1.992,0.672,2.965,1.121c2.764,1.273,4.389,4.16,5.311,6.918c0.465,1.387,0.822,3.014,0.893,4.661
				c0.234-2.649-0.623-5.454-1.684-7.588c-1.297-2.605-3.307-5.239-6.219-6.117c-1.029-0.309-2.066-0.561-3.094-0.701
				c-1.875-0.253-3.705-0.117-5.34,0.823c-2.25,1.302-6.191,7.107-6.363,10.848c-0.021,0.445,0,0.865,0.096,1.239
				c0.105,0.417,0.221,0.755,0.34,1.052c-0.074-0.31-0.141-0.657-0.189-1.079C32.238,28.697,32.275,28.278,32.357,27.842z"/>
		</g>
		<g>
			<path fill="#FFC7CE" d="M50.352,40.532c-0.129-0.553-0.195-1.111-0.234-1.669c-0.166-2.54,0.332-3.063-1.27-4.97
				c-1.959-2.32-5.008-2.836-8.605-4.293c-3.1-1.258-4.402,0.879-7.16,0.659c-0.186-0.016-0.373-0.004-0.561,0.029
				c-0.031,0.006-0.063,0.019-0.092,0.025c0.023-0.003,0.051-0.01,0.076-0.01c0.189-0.008,0.379,0.007,0.561,0.048
				c2.699,0.601,4.285-1.333,7.18,0.339c3.363,1.943,6.588,2.895,8.207,5.467c1.324,2.107,0.479,2.539,0.291,5.077
				c-0.039,0.558-0.049,1.119,0.002,1.685c0.281,2.99-3.482,7.449-6.123,9.242c0.912-0.285,1.758-0.675,2.469-1.227
				C47.494,49.077,51.094,43.655,50.352,40.532z"/>
		</g>
		<g>
			<path fill="#FFC7CE" d="M34.527,37.356c-1.137-2.633,0.328-5.285-2.141-6.265c-0.092-0.037-0.197-0.065-0.301-0.095
				c0.059,0.027,0.123,0.054,0.176,0.084c2.311,1.313,0.49,3.736,1.25,6.5c0.76,2.762,0.605,6.127-0.707,8.436
				c-0.941,1.656-2.717,2.865-4.664,3.7c-0.764,0.328-1.553,0.605-2.334,0.82c-1.586,0.436-3.455,0.677-5.012,0.373
				c0.018,0.021,0.039,0.045,0.057,0.067c1.635,2.092,5.207,1.412,7.84,0.277c0.74-0.321,1.484-0.705,2.195-1.136
				c1.814-1.097,3.402-2.54,4.107-4.31C35.975,43.34,35.662,39.985,34.527,37.356z"/>
		</g>
		<path fill="#FFC7CE" d="M31.445,30.747c-3.168,0.533-4.141,3.184-6.578,3.886c-2.529,0.728-6.115,1.905-8.514,1.207
			c-1.078-0.313-1.869-1.092-2.533-2.078c-0.813-1.208-1.439-2.735-2.145-4.191c-1.676-3.455,0.381-6.225,0.938-9.32
			c-0.75,0.473-1.254,1.035-1.191,1.927c0.244,3.475-1.977,6.774,0.369,10.271c0.9,1.344,1.73,2.77,2.705,3.854
			c0.793,0.885,1.682,1.545,2.797,1.707c2.473,0.359,5.861-1.305,8.262-2.374c2.316-1.034,2.916-3.794,5.98-4.761
			c0.111-0.035,0.219-0.074,0.342-0.104c0.297-0.077,0.512-0.195,0.68-0.342c-0.191,0.134-0.436,0.227-0.758,0.262
			C31.676,30.704,31.563,30.728,31.445,30.747z"/>
	</g>
	<g>
		<g>
			<path fill="#83BF4F" d="M31.111,32.356l-7.073-9.334l2.578-1.697l7.075,9.334C35.063,32.469,32.352,33.987,31.111,32.356z"/>
		</g>
		<polygon fill="#FABF49" points="26.023,20.381 28.829,20.381 29.714,21.266 31.062,19.918 29.714,18.571 28.829,19.456 
			26.025,19.456 25.469,18.898 27.683,16.683 28.934,16.683 28.934,14.777 27.027,14.777 27.027,16.029 24.813,18.243 
			24.255,17.685 24.255,14.88 25.141,13.996 23.793,12.647 22.444,13.996 23.329,14.88 23.329,17.685 22.772,18.243 20.558,16.029 
			20.558,14.777 18.65,14.777 18.65,16.683 19.902,16.683 22.116,18.897 21.559,19.456 18.754,19.456 17.869,18.571 16.521,19.918 
			17.869,21.266 18.754,20.381 21.561,20.381 22.118,20.938 19.902,23.153 18.651,23.153 18.651,25.058 20.558,25.058 
			20.558,23.807 22.773,21.593 23.329,22.149 23.329,24.956 22.444,25.84 23.793,27.188 25.141,25.84 24.255,24.956 24.255,22.149 
			24.812,21.592 27.027,23.807 27.027,25.058 28.934,25.058 28.934,23.153 27.683,23.153 25.468,20.937 		"/>
		<polygon fill="#FFD582" points="27.315,22.165 30.095,21.784 31.094,22.54 32.245,21.02 30.726,19.868 29.969,20.866 
			27.191,21.247 26.564,20.77 28.457,18.275 29.695,18.104 29.434,16.216 27.547,16.477 27.717,17.716 25.826,20.211 25.198,19.735 
			24.814,16.956 25.57,15.959 24.052,14.808 22.899,16.326 23.896,17.082 24.279,19.86 23.804,20.489 21.309,18.598 21.139,17.358 
			19.248,17.618 19.51,19.506 20.748,19.335 23.242,21.227 22.767,21.856 19.988,22.237 18.99,21.483 17.84,23 19.359,24.153 
			20.115,23.156 22.896,22.774 23.522,23.249 21.629,25.745 20.392,25.915 20.651,27.802 22.539,27.543 22.368,26.304 
			24.262,23.808 24.888,24.284 25.27,27.063 24.514,28.06 26.032,29.211 27.185,27.694 26.188,26.938 25.806,24.157 26.281,23.53 
			28.777,25.422 28.947,26.661 30.836,26.403 30.576,24.514 29.337,24.684 26.842,22.792 		"/>
		<polygon fill="#FFCC66" points="28.768,24.742 31.561,25.016 32.354,25.983 33.828,24.774 32.618,23.301 31.65,24.094 
			28.86,23.82 28.36,23.209 30.782,21.223 32.026,21.346 32.213,19.45 30.316,19.263 30.193,20.508 27.772,22.495 27.273,21.885 
			27.547,19.093 28.513,18.3 27.304,16.827 25.83,18.036 26.625,19.002 26.351,21.793 25.742,22.294 23.756,19.875 23.877,18.629 
			21.979,18.442 21.794,20.34 23.039,20.462 25.025,22.881 24.416,23.383 21.624,23.108 20.829,22.141 19.357,23.35 20.567,24.825 
			21.533,24.03 24.328,24.305 24.827,24.913 22.404,26.9 21.161,26.778 20.975,28.674 22.87,28.862 22.993,27.616 25.415,25.629 
			25.912,26.237 25.639,29.03 24.671,29.823 25.881,31.298 27.354,30.088 26.56,29.121 26.837,26.328 27.443,25.829 29.432,28.25 
			29.311,29.495 31.207,29.682 31.392,27.784 30.148,27.662 28.16,25.241 		"/>
	</g>
</g>
</svg>
