<?xml version="1.0" encoding="utf-8"?>
<!-- Generator: Adobe Illustrator 15.0.0, SVG Export Plug-In . SVG Version: 6.00 Build 0)  -->
<!DOCTYPE svg PUBLIC "-//W3C//DTD SVG 1.1//EN" "http://www.w3.org/Graphics/SVG/1.1/DTD/svg11.dtd">
<svg version="1.1" id="Layer_1" xmlns="http://www.w3.org/2000/svg" xmlns:xlink="http://www.w3.org/1999/xlink" x="0px" y="0px"
	 width="64px" height="64px" viewBox="0 0 64 64" enable-background="new 0 0 64 64" xml:space="preserve">
<g>
	<path fill="#83BF4F" d="M48.531,38.418c-8.006,0-10.145-6.625-10.145-6.625s2.139-8.259,10.145-8.259
		c5.517,0,14.469,7.441,14.469,7.441S54.048,38.418,48.531,38.418z"/>
	<path fill="#83BF4F" d="M18.027,6.665c6.253,6.351,2.551,13.592,2.551,13.592s-7.746,4.385-14-1.966C2.269,13.915,1,1,1,1
		S13.718,2.289,18.027,6.665z"/>
	<g>
		<path fill="#75A843" d="M63,30.976c-4.974-1.04-10.088-1.581-15.075-1.024c-4.946,0.535-9.854,2.298-13.231,5.7
			c-1.673,1.677-2.945,3.735-3.528,5.925c-0.144,0.545-0.25,1.095-0.298,1.641c-0.055,0.567-0.043,1.019-0.002,1.703l0.189,3.815
			L31.809,64h-5l0.755-15.265l0.189-3.815c0.027-0.588,0.054-1.411,0.186-2.104c0.119-0.716,0.308-1.408,0.539-2.077
			c0.938-2.679,2.635-4.963,4.685-6.738c2.058-1.781,4.474-3.044,6.979-3.862c2.511-0.823,5.115-1.21,7.699-1.31
			C53.023,28.638,58.115,29.574,63,30.976z"/>
	</g>
	<g>
		<path fill="#75A843" d="M1,1c5.25,3.174,9.967,7.219,14.203,11.693c4.224,4.494,8.016,9.418,11.148,14.805
			c1.541,2.711,2.972,5.501,3.863,8.655c0.216,0.794,0.389,1.618,0.458,2.512l0.107,2.361l0.206,4.595L31.809,64h-5l0.823-18.38
			l0.206-4.595l0.051-1.149c0.014-0.366,0.042-0.809,0.039-1.085c-0.011-0.636-0.107-1.327-0.255-2.021
			c-0.613-2.796-1.826-5.595-3.163-8.278c-2.729-5.378-6.178-10.44-10.088-15.103C10.496,8.74,6.06,4.467,1,1z"/>
	</g>
</g>
</svg>
