<?xml version="1.0" encoding="utf-8"?>
<!-- Generator: Adobe Illustrator 15.0.0, SVG Export Plug-In . SVG Version: 6.00 Build 0)  -->
<!DOCTYPE svg PUBLIC "-//W3C//DTD SVG 1.1//EN" "http://www.w3.org/Graphics/SVG/1.1/DTD/svg11.dtd">
<svg version="1.1" id="Layer_1" xmlns="http://www.w3.org/2000/svg" xmlns:xlink="http://www.w3.org/1999/xlink" x="0px" y="0px"
	 width="64px" height="64px" viewBox="0 0 64 64" enable-background="new 0 0 64 64" xml:space="preserve">
<g>
	<rect x="25" y="52.125" fill="#947151" width="14" height="11.875"/>
	<path fill="#71A03A" d="M32,34.931L2,55.133c0,0,14.5,3.439,30,3.439c15.501,0,30-3.439,30-3.439L32,34.931z"/>
	<path fill="#76AA3F" d="M32,23.62L7,43.824c0,0,12.083,3.438,25,3.438s25-3.438,25-3.438L32,23.62z"/>
	<path fill="#7CB545" d="M32,12.31L12,32.514c0,0,9.667,3.438,20,3.438c10.334,0,20-3.438,20-3.438L32,12.31z"/>
	<path fill="#83BF4F" d="M32,1L17,20.811c0,0,7.25,3.831,15,3.831s15-3.831,15-3.831L32,1z"/>
</g>
</svg>
