<?xml version="1.0" encoding="utf-8"?>
<!-- Generator: Adobe Illustrator 15.0.0, SVG Export Plug-In . SVG Version: 6.00 Build 0)  -->
<!DOCTYPE svg PUBLIC "-//W3C//DTD SVG 1.1//EN" "http://www.w3.org/Graphics/SVG/1.1/DTD/svg11.dtd">
<svg version="1.1" id="Layer_1" xmlns="http://www.w3.org/2000/svg" xmlns:xlink="http://www.w3.org/1999/xlink" x="0px" y="0px"
	 width="64px" height="64px" viewBox="0 0 64 64" enable-background="new 0 0 64 64" xml:space="preserve">
<g>
	<path fill="#83BF4F" d="M43.801,63.429c-7.748,2.017-10.992-1.96-10.992-1.96s0.604-6.168,8.352-8.186
		c5.338-1.389,15.323,1.428,15.323,1.428S49.14,62.039,43.801,63.429z"/>
	<path fill="#83BF4F" d="M21.009,58.027c7.748,2.018,10.992-1.959,10.992-1.959s-0.604-6.169-8.352-8.186
		c-5.338-1.389-15.323,1.428-15.323,1.428S15.67,56.639,21.009,58.027z"/>
	<path fill="none" stroke="#75A843" stroke-width="4" stroke-miterlimit="10" d="M32.001,28c0,3.81,0,36,0,36"/>
	<g>
		<g>
			<path fill="#FFD68D" d="M50.308,19.591c-4.922,4.922-15.035,8.408-16.67,6.773c-1.637-1.637,1.849-11.751,6.771-16.673
				C47.346,2.754,57.245,12.653,50.308,19.591z"/>
			<path fill="#FFD68D" d="M13.692,36.408c4.922-4.922,15.036-8.408,16.673-6.771c1.635,1.634-1.852,11.748-6.773,16.67
				C16.654,53.245,6.754,43.346,13.692,36.408z"/>
		</g>
		<g>
			<path fill="#FFD68D" d="M40.408,46.308C35.486,41.386,32,31.271,33.635,29.637c1.637-1.637,11.751,1.849,16.674,6.771
				C57.245,43.346,47.346,53.245,40.408,46.308z"/>
			<path fill="#FFD68D" d="M23.592,9.691c4.922,4.922,8.408,15.037,6.771,16.674c-1.635,1.634-11.75-1.852-16.672-6.774
				C6.754,12.654,16.654,2.754,23.592,9.691z"/>
		</g>
	</g>
	<g>
		<g>
			<path fill="#FFE9AB" d="M50.891,34.999c-6.96,0-16.576-4.686-16.576-6.998c0-2.314,9.616-7.002,16.576-7.002
				C60.702,20.999,60.702,34.999,50.891,34.999z"/>
			<path fill="#FFE9AB" d="M13.109,21c6.961,0,16.576,4.687,16.576,7.001c0.001,2.312-9.615,6.998-16.576,6.998
				C3.298,35,3.298,21,13.109,21z"/>
		</g>
		<g>
			<path fill="#FFE9AB" d="M25,46.891c0-6.961,4.687-16.578,6.998-16.578c2.314,0,7.002,9.617,7.002,16.578
				C39,56.702,25,56.701,25,46.891z"/>
			<path fill="#FFE9AB" d="M39,9.107c0,6.961-4.688,16.579-7.002,16.578C29.687,25.686,25,16.069,25,9.108
				C25-0.703,39-0.703,39,9.107z"/>
		</g>
	</g>
	<circle fill="#F29A2E" cx="32" cy="28" r="9.638"/>
</g>
</svg>
