<?xml version="1.0" encoding="utf-8"?>
<!-- Generator: Adobe Illustrator 15.0.0, SVG Export Plug-In . SVG Version: 6.00 Build 0)  -->
<!DOCTYPE svg PUBLIC "-//W3C//DTD SVG 1.1//EN" "http://www.w3.org/Graphics/SVG/1.1/DTD/svg11.dtd">
<svg version="1.1" id="Layer_1" xmlns="http://www.w3.org/2000/svg" xmlns:xlink="http://www.w3.org/1999/xlink" x="0px" y="0px"
	 width="64px" height="64px" viewBox="0 0 64 64" enable-background="new 0 0 64 64" xml:space="preserve">
<g>
	<path fill="#8CC63E" d="M59.256,48.432c0.94,0.979,0.939,2.566,0,3.547l-4.197,4.375c-0.939,0.98-2.463,0.98-3.402,0L53,50.168
		L59.256,48.432z"/>
	<path fill="#64892F" d="M56.636,52.322c5.403-4.49,9.392-11.455-1.703-22.62c-8.372-8.426-0.95-13.811-0.95-13.811
		S28.921,15.855,56.636,52.322z"/>
	<path fill="#C9AC1C" d="M11.301,7.308c-5.062,4.917,1.097,19.636,21.827,39.77c11.325,11.004,16.85,9.162,21.825,4.156
		c4.975-5.006,6.804-10.566-4.13-21.964C30.815,8.412,16.188,2.214,11.301,7.308z"/>
	<g>
		<path fill="#FFE62E" d="M13.643,6.442c-1.751-1.366-5.26,1.796-2.607,4.028C12.648,11.828,16.315,8.53,13.643,6.442z"/>
		<path fill="#FFE62E" d="M16.984,9.708c-1.854-1.47-5.374,1.681-2.561,4.074C16.133,15.237,19.813,11.951,16.984,9.708z"/>
		<path fill="#FFE62E" d="M20.383,13.032c-1.676-1.292-5.176,1.879-2.639,3.994C19.286,18.313,22.943,15.005,20.383,13.032z"/>
		<path fill="#FFE62E" d="M23.746,16.318c-1.676-1.292-5.176,1.879-2.64,3.995C22.648,21.6,26.307,18.292,23.746,16.318z"/>
		<path fill="#FFE62E" d="M27.109,19.605c-1.677-1.292-5.177,1.879-2.64,3.995C26.012,24.886,29.67,21.579,27.109,19.605z"/>
		<path fill="#FFE62E" d="M30.516,22.937c-1.676-1.292-5.176,1.879-2.639,3.995C29.419,28.218,33.076,24.91,30.516,22.937z"/>
		<path fill="#FFE62E" d="M33.779,26.501c-1.676-1.292-5.176,1.879-2.639,3.995C32.683,31.782,36.34,28.475,33.779,26.501z"/>
		<path fill="#FFE62E" d="M37.073,29.71c-1.676-1.292-5.176,1.879-2.64,3.995C35.977,34.99,39.634,31.683,37.073,29.71z"/>
		<path fill="#FFE62E" d="M40.174,32.831c-1.676-1.292-5.176,1.878-2.64,3.994C39.076,38.111,42.734,34.803,40.174,32.831z"/>
		<path fill="#FFE62E" d="M43.545,36.086c-1.676-1.291-5.176,1.879-2.639,3.994C42.447,41.367,46.105,38.059,43.545,36.086z"/>
		<path fill="#FFE62E" d="M46.664,39.574c-1.677-1.291-5.177,1.879-2.641,3.994C45.566,44.855,49.224,41.549,46.664,39.574z"/>
		<path fill="#FFE62E" d="M50.258,42.842c-1.676-1.293-5.176,1.879-2.64,3.994C49.16,48.123,52.818,44.814,50.258,42.842z"/>
		<path fill="#FFE62E" d="M53.512,46.217c-1.677-1.291-5.177,1.879-2.641,3.994C52.414,51.498,56.071,48.189,53.512,46.217z"/>
		<path fill="#FFE62E" d="M56.279,49.002c-1.053-0.664-4.479,2.58-2.92,3.713C54.307,53.402,57.886,50.016,56.279,49.002z"/>
		<g>
			<path fill="#FFE62E" d="M59.527,44.684c0.505,0.869-0.824,3.158-1.699,3.645C55.438,49.658,58.498,42.908,59.527,44.684z"/>
			<path fill="#FFE62E" d="M32.645,17.533c-1.676-1.292-5.176,1.879-2.64,3.994C31.547,22.813,35.205,19.505,32.645,17.533z"/>
			<path fill="#FFE62E" d="M37.94,15.821c-1.654-1.314-4.788,1.488-2.275,3.628C37.192,20.751,40.467,17.828,37.94,15.821z"/>
			<path fill="#FFE62E" d="M41.484,19.253c-1.654-1.314-4.788,1.488-2.275,3.627C40.736,24.182,44.012,21.259,41.484,19.253z"/>
			<path fill="#FFE62E" d="M45.417,22.516c-1.874-1.488-5.423,1.686-2.577,4.108C44.57,28.098,48.279,24.788,45.417,22.516z"/>
			<path fill="#FFE62E" d="M49.287,26.409c-1.874-1.488-5.424,1.686-2.577,4.109C48.439,31.992,52.148,28.682,49.287,26.409z"/>
			<path fill="#FFE62E" d="M52.918,30.368c-1.873-1.488-5.422,1.686-2.576,4.109C52.071,35.949,55.78,32.64,52.918,30.368z"/>
			<path fill="#FFE62E" d="M56.481,34.861c-1.36-1.964-4.539-0.449-2.487,2.676C55.24,39.439,58.561,37.859,56.481,34.861z"/>
			<path fill="#FFE62E" d="M36.131,21.041c-1.677-1.292-5.177,1.879-2.641,3.994C35.033,26.321,38.69,23.013,36.131,21.041z"/>
			<path fill="#FFE62E" d="M39.621,24.554c-1.676-1.292-5.176,1.879-2.639,3.995C38.524,29.834,42.182,26.527,39.621,24.554z"/>
			<path fill="#FFE62E" d="M43.141,28.095c-1.676-1.292-5.176,1.879-2.64,3.994C42.043,33.375,45.701,30.067,43.141,28.095z"/>
			<path fill="#FFE62E" d="M46.627,31.603c-1.677-1.292-5.177,1.878-2.641,3.993C45.529,36.883,49.187,33.576,46.627,31.603z"/>
			<path fill="#FFE62E" d="M50.192,35.191c-1.677-1.293-5.176,1.879-2.64,3.994C49.096,40.471,52.753,37.164,50.192,35.191z"/>
			<path fill="#FFE62E" d="M53.612,38.633c-1.677-1.293-5.177,1.877-2.64,3.994C52.516,43.912,56.173,40.605,53.612,38.633z"/>
			<path fill="#FFE62E" d="M57.148,42.189c-1.677-1.291-5.177,1.879-2.641,3.996C56.051,47.471,59.708,44.164,57.148,42.189z"/>
			<path fill="#FFE62E" d="M29.318,14.186c-1.676-1.292-5.176,1.879-2.64,3.995C28.221,19.467,31.879,16.159,29.318,14.186z"/>
			<path fill="#FFE62E" d="M34.95,15.486c1.138-1.698-2.097-4.903-3.973-2.324C29.836,14.729,33.212,18.08,34.95,15.486z"/>
			<path fill="#FFE62E" d="M25.783,11.038c-1.677-1.292-5.177,1.879-2.64,3.994C24.686,16.319,28.344,13.011,25.783,11.038z"/>
			<path fill="#FFE62E" d="M22.3,8.441c-1.521-1.172-4.696,1.704-2.395,3.624C21.305,13.232,24.622,10.231,22.3,8.441z"/>
			<path fill="#FFE62E" d="M18.637,6.911c-1.241-1.028-3.232,0.708-1.339,2.37C18.449,10.291,20.531,8.481,18.637,6.911z"/>
			<path fill="#FFE62E" d="M14.416,5.506c-0.608,0.808,0.958,2.553,1.957,1.331C16.98,6.093,15.346,4.271,14.416,5.506z"/>
			<path fill="#FFE62E" d="M16.494,5.286c-0.178,0.362,1.521,1.78,1.971,0.496C18.738,5,16.757,4.748,16.494,5.286z"/>
			<path fill="#FFE62E" d="M18.881,6.017c-0.211,0.432,1.815,2.124,2.352,0.591C21.558,5.676,19.195,5.375,18.881,6.017z"/>
			<path fill="#FFE62E" d="M21.68,6.802c-0.309,0.368,1.255,2.5,2.142,1.143C24.359,7.119,22.139,6.255,21.68,6.802z"/>
			<path fill="#FFE62E" d="M58.592,42.48c0.863-0.086,1.498-4.838-1.354-4.195C55.506,38.678,57.313,42.611,58.592,42.48z"/>
			<path fill="#FFE62E" d="M27.68,9.841c-0.799,0.66,0.83,4.827,3.303,2.37C32.485,10.716,28.865,8.863,27.68,9.841z"/>
			<path fill="#FFE62E" d="M24.348,7.974c-0.645,0.532,0.67,3.896,2.667,1.914C28.229,8.68,25.305,7.183,24.348,7.974z"/>
		</g>
		<g>
			<path fill="#FFE62E" d="M21.541,28.706c-1.285-1.687,1.867-5.209,3.969-2.656C26.789,27.602,23.502,31.282,21.541,28.706z"/>
			<path fill="#FFE62E" d="M19.84,34.035c-1.306-1.665,1.479-4.818,3.605-2.289C24.738,33.283,21.834,36.578,19.84,34.035z"/>
			<path fill="#FFE62E" d="M25.026,32.214c-1.284-1.687,1.867-5.209,3.97-2.656C30.274,31.11,26.987,34.791,25.026,32.214z"/>
			<path fill="#FFE62E" d="M28.518,35.727c-1.283-1.688,1.867-5.208,3.97-2.656C33.766,34.623,30.479,38.303,28.518,35.727z"/>
			<path fill="#FFE62E" d="M18.215,25.359c-1.284-1.687,1.867-5.209,3.969-2.656C23.463,24.255,20.176,27.936,18.215,25.359z"/>
			<path fill="#FFE62E" d="M19.507,31.027c-1.688,1.145-4.873-2.111-2.31-3.999C18.756,25.88,22.085,29.277,19.507,31.027z"/>
			<path fill="#FFE62E" d="M15.086,21.801c-1.283-1.687,1.867-5.208,3.971-2.656C20.334,20.697,17.047,24.377,15.086,21.801z"/>
			<path fill="#FFE62E" d="M12.506,18.297c-1.165-1.53,1.693-4.726,3.602-2.41C17.268,17.295,14.285,20.634,12.506,18.297z"/>
			<path fill="#FFE62E" d="M10.986,14.609c-1.021-1.248,0.703-3.252,2.354-1.346C14.345,14.421,12.546,16.516,10.986,14.609z"/>
			<path fill="#FFE62E" d="M9.589,10.363c0.803-0.612,2.537,0.964,1.323,1.969C10.173,12.944,8.362,11.299,9.589,10.363z"/>
			<path fill="#FFE62E" d="M9.371,12.454c0.36-0.178,1.77,1.532,0.493,1.983C9.087,14.712,8.836,12.719,9.371,12.454z"/>
			<path fill="#FFE62E" d="M10.097,14.856c0.43-0.213,2.11,1.827,0.588,2.366C9.758,17.55,9.459,15.173,10.097,14.856z"/>
			<path fill="#FFE62E" d="M10.877,17.673c0.366-0.311,2.485,1.262,1.135,2.154C11.192,20.369,10.334,18.134,10.877,17.673z"/>
			<path fill="#FFE62E" d="M13.898,23.71c0.654-0.803,4.795,0.835,2.354,3.324C14.767,28.546,12.926,24.902,13.898,23.71z"/>
			<path fill="#FFE62E" d="M12.041,20.357c0.529-0.649,3.873,0.674,1.902,2.683C12.742,24.262,11.256,21.32,12.041,20.357z"/>
		</g>
	</g>
	<path fill="#8CC63E" d="M2,30.549c0,0,22.259,8.168,30.48,20.902c5.367,8.313,16.137,11.387,22.628,0.73
		C35.5,25.706,2,30.549,2,30.549z"/>
</g>
</svg>
