<?xml version="1.0" encoding="utf-8"?>
<!-- Generator: Adobe Illustrator 15.0.0, SVG Export Plug-In . SVG Version: 6.00 Build 0)  -->
<!DOCTYPE svg PUBLIC "-//W3C//DTD SVG 1.1//EN" "http://www.w3.org/Graphics/SVG/1.1/DTD/svg11.dtd">
<svg version="1.1" id="Layer_1" xmlns="http://www.w3.org/2000/svg" xmlns:xlink="http://www.w3.org/1999/xlink" x="0px" y="0px"
	 width="64px" height="64px" viewBox="0 0 64 64" enable-background="new 0 0 64 64" xml:space="preserve">
<g>
	<g>
		<path fill="#83BF4F" d="M39.429,49.488C32.706,54.682,30.878,64,30.878,64h2.418c9.02-13.063,26.549-22.179,26.549-22.179
			S48.013,42.854,39.429,49.488z"/>
		<g>
			<polygon fill="#75A843" points="30.474,1 32.974,64 27.974,64 			"/>
		</g>
		<path fill="#83BF4F" d="M23.929,50.738C29.753,56.922,30.474,64,30.474,64h-2.416C19.034,48.691,4.155,43.398,4.155,43.398
			S16.985,43.367,23.929,50.738z"/>
	</g>
	<g>
		<g>
			<g>
				<g>
					<path fill="#F4BC58" d="M42.808,23.607c-5.303-1.42-7.92-0.209-8.51,1.992s1.07,4.559,6.373,5.98
						c5.303,1.421,12.828-0.834,12.828-0.834S48.11,25.028,42.808,23.607z"/>
					<path fill="#F4BC58" d="M18.544,25.651c5.301,1.42,7.92,0.209,8.508-1.992c0.592-2.202-1.07-4.56-6.373-5.981
						c-5.301-1.421-12.826,0.835-12.826,0.835S13.241,24.23,18.544,25.651z"/>
				</g>
				<g>
					<path fill="#F4BC58" d="M29.653,12.498c-1.42,5.301-0.209,7.918,1.992,8.509c2.201,0.59,4.561-1.071,5.98-6.373
						c1.422-5.302-0.834-12.828-0.834-12.828S31.075,7.195,29.653,12.498z"/>
					<path fill="#F4BC58" d="M31.696,36.762c1.422-5.303,0.211-7.92-1.992-8.51c-2.201-0.59-4.559,1.072-5.979,6.373
						c-1.422,5.303,0.836,12.828,0.836,12.828S30.276,42.063,31.696,36.762z"/>
				</g>
			</g>
			<g>
				<g>
					<path fill="#F4BC58" d="M38.532,15.328c-4.754,2.745-5.748,5.452-4.609,7.427c1.141,1.973,3.98,2.466,8.736-0.279
						c4.754-2.745,8.48-9.661,8.48-9.661S43.284,12.584,38.532,15.328z"/>
					<path fill="#F4BC58" d="M22.819,33.93c4.752-2.744,5.748-5.451,4.609-7.424c-1.141-1.975-3.982-2.468-8.736,0.277
						c-4.754,2.745-8.48,9.661-8.48,9.661S18.065,36.674,22.819,33.93z"/>
				</g>
				<g>
					<path fill="#F4BC58" d="M21.374,16.773c2.744,4.753,5.453,5.748,7.426,4.608c1.975-1.14,2.467-3.981-0.279-8.735
						c-2.744-4.754-9.66-8.48-9.66-8.48S18.63,12.019,21.374,16.773z"/>
					<path fill="#F4BC58" d="M39.976,32.485c-2.744-4.753-5.451-5.748-7.426-4.608c-1.973,1.14-2.465,3.981,0.279,8.736
						c2.744,4.753,9.662,8.479,9.662,8.479S42.722,37.238,39.976,32.485z"/>
				</g>
			</g>
		</g>
		<g>
			<g>
				<g>
					<path fill="#FFCC66" d="M34.804,13.174c0,5.49-1.85,7.704-4.129,7.704s-4.127-2.214-4.127-7.704
						C26.548,7.686,30.675,1,30.675,1S34.804,7.686,34.804,13.174z"/>
					<path fill="#FFCC66" d="M26.548,36.084c0-5.49,1.848-7.704,4.127-7.704s4.129,2.214,4.129,7.704
						c0,5.488-4.129,12.174-4.129,12.174S26.548,41.572,26.548,36.084z"/>
				</g>
				<g>
					<path fill="#FFCC66" d="M42.13,28.756c-5.488,0-7.705-1.848-7.705-4.126c0-2.279,2.217-4.126,7.705-4.126
						s12.174,4.126,12.174,4.126S47.618,28.756,42.13,28.756z"/>
					<path fill="#FFCC66" d="M19.222,20.503c5.488,0,7.703,1.847,7.703,4.126c0,2.279-2.215,4.126-7.703,4.126
						S7.048,24.629,7.048,24.629S13.733,20.503,19.222,20.503z"/>
				</g>
			</g>
			<g>
				<g>
					<path fill="#FFCC66" d="M41.692,19.448c-3.881,3.881-6.754,4.14-8.365,2.529s-1.352-4.483,2.529-8.366
						c3.881-3.881,11.527-5.69,11.527-5.69S45.575,15.566,41.692,19.448z"/>
					<path fill="#FFCC66" d="M19.657,29.811c3.883-3.881,6.754-4.142,8.365-2.53c1.613,1.612,1.354,4.484-2.529,8.366
						c-3.881,3.881-11.525,5.691-11.525,5.691S15.776,33.693,19.657,29.811z"/>
				</g>
				<g>
					<path fill="#FFCC66" d="M35.856,35.646c-3.881-3.881-4.141-6.754-2.529-8.365c1.613-1.612,4.484-1.352,8.365,2.529
						c3.883,3.883,5.691,11.527,5.691,11.527S39.737,39.527,35.856,35.646z"/>
					<path fill="#FFCC66" d="M25.493,13.611c3.883,3.882,4.143,6.754,2.529,8.366c-1.611,1.612-4.482,1.352-8.365-2.53
						c-3.881-3.881-5.689-11.526-5.689-11.526S21.612,9.73,25.493,13.611z"/>
				</g>
			</g>
		</g>
		<g>
			<g>
				<g>
					<path fill="#FFD68D" d="M31.696,12.497c1.422,5.302,0.211,7.92-1.992,8.509c-2.201,0.59-4.559-1.071-5.979-6.373
						C22.304,9.331,24.56,1.806,24.56,1.806S30.274,7.195,31.696,12.497z"/>
					<path fill="#FFD68D" d="M29.653,36.762c-1.42-5.303-0.209-7.92,1.992-8.51s4.561,1.07,5.98,6.373
						c1.422,5.303-0.836,12.828-0.836,12.828S31.075,42.063,29.653,36.762z"/>
				</g>
				<g>
					<path fill="#FFD68D" d="M42.806,25.651c-5.301,1.42-7.918,0.209-8.508-1.992c-0.59-2.202,1.07-4.56,6.373-5.98
						c5.303-1.421,12.828,0.835,12.828,0.835S48.11,24.23,42.806,25.651z"/>
					<path fill="#FFD68D" d="M18.542,23.607c5.303-1.42,7.922-0.209,8.51,1.992c0.59,2.201-1.07,4.559-6.373,5.98
						c-5.301,1.421-12.826-0.835-12.826-0.835S13.241,25.028,18.542,23.607z"/>
				</g>
			</g>
			<g>
				<g>
					<path fill="#FFD68D" d="M39.976,16.773c-2.744,4.754-5.451,5.748-7.426,4.608c-1.973-1.14-2.467-3.981,0.279-8.735
						c2.744-4.754,9.662-8.48,9.662-8.48S42.722,12.019,39.976,16.773z"/>
					<path fill="#FFD68D" d="M21.374,32.485c2.744-4.754,5.453-5.748,7.426-4.608c1.975,1.14,2.467,3.981-0.279,8.734
						c-2.744,4.755-9.66,8.48-9.66,8.48S18.63,37.238,21.374,32.485z"/>
				</g>
				<g>
					<path fill="#FFD68D" d="M38.532,33.93c-4.754-2.744-5.75-5.451-4.609-7.425c1.141-1.974,3.98-2.467,8.734,0.277
						c4.756,2.746,8.482,9.662,8.482,9.662S43.284,36.674,38.532,33.93z"/>
					<path fill="#FFD68D" d="M22.819,15.328c4.752,2.745,5.748,5.452,4.609,7.426c-1.141,1.974-3.982,2.467-8.736-0.278
						c-4.754-2.745-8.48-9.661-8.48-9.661S18.065,12.584,22.819,15.328z"/>
				</g>
			</g>
		</g>
		<circle fill="#947151" cx="30.676" cy="24.385" r="13.167"/>
	</g>
	<circle fill="#3E4347" cx="30.677" cy="24.386" r="9.98"/>
</g>
</svg>
