<?xml version="1.0" encoding="utf-8"?>
<!-- Generator: Adobe Illustrator 15.0.0, SVG Export Plug-In . SVG Version: 6.00 Build 0)  -->
<!DOCTYPE svg PUBLIC "-//W3C//DTD SVG 1.1//EN" "http://www.w3.org/Graphics/SVG/1.1/DTD/svg11.dtd">
<svg version="1.1" id="Layer_1" xmlns="http://www.w3.org/2000/svg" xmlns:xlink="http://www.w3.org/1999/xlink" x="0px" y="0px"
	 width="64px" height="64px" viewBox="0 0 64 64" enable-background="new 0 0 64 64" xml:space="preserve">
<g>
	<g>
		<ellipse fill="#83BF4F" cx="17.824" cy="38.31" rx="15.824" ry="15.191"/>
		<ellipse fill="#83BF4F" cx="17.824" cy="21.425" rx="14.983" ry="14.383"/>
		<ellipse fill="#83BF4F" cx="34.193" cy="16.897" rx="15.52" ry="14.898"/>
		<ellipse fill="#83BF4F" cx="48.969" cy="28.533" rx="13.031" ry="12.509"/>
		<ellipse fill="#83BF4F" cx="39.508" cy="40.245" rx="13.031" ry="12.51"/>
		<g>
			<g>
				<path fill="#947151" d="M28.928,64.039c0.293-4.027-0.276-8.242-0.925-12.63c-0.649-4.377-1.362-8.91-1.425-13.519
					c-0.083-4.601,0.549-9.255,2.066-13.553c1.507-4.305,3.809-8.223,6.547-11.717c-2.259,3.823-3.979,7.941-4.862,12.187
					c-0.892,4.25-0.896,8.578-0.262,12.81c0.62,4.245,1.84,8.398,3.067,12.682c1.212,4.265,2.485,8.796,2.793,13.661L28.928,64.039z
					"/>
			</g>
			<g>
				<path fill="#947151" d="M28.359,36.176c2.028,0.191,4.198,0.133,6.29-0.104c2.104-0.244,4.192-0.691,6.194-1.406
					c1.999-0.713,3.914-1.699,5.609-3.006c1.697-1.302,3.157-2.933,4.275-4.792c-0.972,1.939-2.318,3.708-3.955,5.176
					c-1.634,1.473-3.538,2.649-5.558,3.549c-2.021,0.902-4.16,1.537-6.336,1.961c-2.19,0.415-4.369,0.654-6.67,0.616L28.359,36.176z
					"/>
			</g>
			<g>
				<path fill="#947151" d="M27.835,34.811c-1.482-0.877-2.775-1.854-4.033-2.933c-1.244-1.079-2.402-2.257-3.421-3.546
					c-2.038-2.556-3.516-5.654-3.699-8.882c0.523,3.192,2.263,5.993,4.451,8.223c1.096,1.124,2.311,2.126,3.592,3.023
					c1.274,0.887,2.654,1.708,4.009,2.33L27.835,34.811z"/>
			</g>
			<g>
				<path fill="#947151" d="M29.413,46.209c-1.749-0.08-3.342-0.384-4.95-0.821c-1.592-0.443-3.138-1.048-4.583-1.833
					c-2.897-1.551-5.35-3.903-6.859-6.736c1.801,2.663,4.406,4.655,7.291,5.835c1.442,0.598,2.952,1.012,4.48,1.271
					c1.515,0.254,3.114,0.373,4.566,0.285L29.413,46.209z"/>
			</g>
		</g>
	</g>
	<path fill="#75A843" d="M9.808,41.901c0,2.196-1.786,3.976-1.786,3.976s-1.786-1.779-1.786-3.976c0-2.194,1.786-3.974,1.786-3.974
		S9.808,39.707,9.808,41.901z"/>
	<path fill="#75A843" d="M56.109,33.263c0,2.195-1.785,3.975-1.785,3.975s-1.785-1.779-1.785-3.975s1.785-3.976,1.785-3.976
		S56.109,31.067,56.109,33.263z"/>
	<path fill="#75A843" d="M14.807,46.971c0,2.196-1.786,3.977-1.786,3.977s-1.785-1.78-1.785-3.977c0-2.195,1.785-3.975,1.785-3.975
		S14.807,44.775,14.807,46.971z"/>
	<path fill="#75A843" d="M9.808,20.923c0,2.196-1.786,3.976-1.786,3.976s-1.786-1.78-1.786-3.976c0-2.195,1.786-3.975,1.786-3.975
		S9.808,18.728,9.808,20.923z"/>
	<path fill="#75A843" d="M14.807,15.112c0,2.196-1.786,3.976-1.786,3.976s-1.785-1.78-1.785-3.976c0-2.195,1.785-3.975,1.785-3.975
		S14.807,12.917,14.807,15.112z"/>
	<path fill="#75A843" d="M40.549,18.018c0,2.196-1.786,3.976-1.786,3.976s-1.786-1.78-1.786-3.976c0-2.195,1.786-3.975,1.786-3.975
		S40.549,15.822,40.549,18.018z"/>
	<path fill="#75A843" d="M45.457,12.621c0,2.196-1.785,3.975-1.785,3.975s-1.783-1.779-1.783-3.975c0-2.195,1.783-3.975,1.783-3.975
		S45.457,10.425,45.457,12.621z"/>
	<path fill="#75A843" d="M22.242,35.809c0,2.195-1.785,3.975-1.785,3.975s-1.783-1.779-1.783-3.975s1.783-3.975,1.783-3.975
		S22.242,33.613,22.242,35.809z"/>
	<path fill="#75A843" d="M16.591,30.658c0,2.196-1.785,3.976-1.785,3.976s-1.783-1.779-1.783-3.976c0-2.195,1.783-3.975,1.783-3.975
		S16.591,28.463,16.591,30.658z"/>
	<path fill="#75A843" d="M26.052,20.923c0,2.196-1.785,3.975-1.785,3.975s-1.783-1.779-1.783-3.975c0-2.195,1.783-3.975,1.783-3.975
		S26.052,18.728,26.052,20.923z"/>
	<path fill="#75A843" d="M29.967,14.043c0,2.196-1.785,3.975-1.785,3.975s-1.783-1.779-1.783-3.975c0-2.195,1.783-3.975,1.783-3.975
		S29.967,11.848,29.967,14.043z"/>
	<path fill="#75A843" d="M35.433,30.658c0,2.196-1.785,3.976-1.785,3.976s-1.783-1.779-1.783-3.976c0-2.195,1.783-3.975,1.783-3.975
		S35.433,28.463,35.433,30.658z"/>
	<path fill="#75A843" d="M49.025,39.783c0,2.196-1.785,3.976-1.785,3.976s-1.783-1.779-1.783-3.976c0-2.195,1.783-3.975,1.783-3.975
		S49.025,37.588,49.025,39.783z"/>
	<path fill="#75A843" d="M45.457,23.119c0,2.196-1.785,3.976-1.785,3.976s-1.783-1.779-1.783-3.976c0-2.195,1.783-3.975,1.783-3.975
		S45.457,20.924,45.457,23.119z"/>
	<path fill="#75A843" d="M39.509,42.995c0,2.196-1.786,3.976-1.786,3.976s-1.785-1.779-1.785-3.976c0-2.194,1.785-3.974,1.785-3.974
		S39.509,40.801,39.509,42.995z"/>
	<path fill="#75A843" d="M44.209,47.479c0,2.196-1.785,3.976-1.785,3.976s-1.785-1.779-1.785-3.976c0-2.194,1.785-3.975,1.785-3.975
		S44.209,45.284,44.209,47.479z"/>
</g>
</svg>
