<?xml version="1.0" encoding="utf-8"?>
<!-- Generator: Adobe Illustrator 15.0.0, SVG Export Plug-In . SVG Version: 6.00 Build 0)  -->
<!DOCTYPE svg PUBLIC "-//W3C//DTD SVG 1.1//EN" "http://www.w3.org/Graphics/SVG/1.1/DTD/svg11.dtd">
<svg version="1.1" id="Layer_1" xmlns="http://www.w3.org/2000/svg" xmlns:xlink="http://www.w3.org/1999/xlink" x="0px" y="0px"
	 width="64px" height="64px" viewBox="0 0 64 64" enable-background="new 0 0 64 64" xml:space="preserve">
<g>
	<g>
		<path fill="#947151" d="M62,32c0,15.465-13.432,28-30,28C15.431,60,2,47.465,2,32C2,16.536,32,4,32,4S62,16.536,62,32z"/>
		<path fill="#E0AC7E" d="M32,50.915c-10.341,0-19.908-3.063-27.743-8.255C8.751,52.836,19.476,60,32,60
			c12.523,0,23.25-7.164,27.742-17.34C51.908,47.853,42.34,50.915,32,50.915z"/>
	</g>
	<g>
		<g>
			<path fill="#846144" d="M32,4c-3.417,3-6.73,6.011-9.799,9.219c-1.51,1.625-3.009,3.244-4.349,4.98
				c-1.362,1.714-2.637,3.486-3.701,5.362c-2.164,3.71-3.681,7.794-3.648,12.033c-0.009,4.243,1.643,8.444,4.084,12.271
				c-1.707-1.51-3.166-3.327-4.308-5.375c-1.115-2.058-1.881-4.366-2.113-6.763c-0.281-2.395,0.021-4.832,0.611-7.146
				c0.617-2.317,1.603-4.5,2.786-6.534c2.413-4.049,5.549-7.532,9.033-10.521C24.076,8.535,27.893,5.967,32,4z"/>
		</g>
		<g>
			<path fill="#846144" d="M32,4c4.107,1.967,7.924,4.535,11.404,7.527c3.484,2.988,6.62,6.472,9.033,10.521
				c1.183,2.033,2.168,4.217,2.786,6.534c0.591,2.314,0.893,4.751,0.611,7.146c-0.232,2.396-0.998,4.705-2.113,6.763
				c-1.143,2.048-2.602,3.865-4.309,5.375c2.441-3.827,4.093-8.028,4.084-12.271c0.032-4.239-1.483-8.323-3.648-12.033
				c-1.063-1.876-2.339-3.648-3.7-5.362c-1.34-1.736-2.84-3.355-4.35-4.98C38.73,10.011,35.418,7,32,4z"/>
		</g>
		<g>
			<path fill="#846144" d="M32,4c-1.253,4.064-2.625,7.934-3.925,11.796c-1.307,3.853-2.551,7.676-3.569,11.509
				c-1.007,3.832-1.817,7.673-2.022,11.528c-0.202,3.854,0.231,7.723,2.104,11.566c-1.755-1.229-3.158-3.013-4.16-4.999
				c-0.998-1.996-1.585-4.191-1.872-6.392c-0.553-4.423,0.018-8.838,1.119-12.988c1.113-4.161,2.776-8.108,4.819-11.814
				C26.564,10.518,28.966,7.009,32,4z"/>
		</g>
		<g>
			<path fill="#846144" d="M32,4c3.034,3.009,5.437,6.518,7.507,10.206c2.043,3.706,3.706,7.653,4.819,11.814
				c1.101,4.15,1.672,8.565,1.119,12.988c-0.287,2.2-0.874,4.396-1.872,6.392c-1.002,1.986-2.405,3.771-4.16,4.999
				c1.873-3.844,2.307-7.713,2.104-11.566c-0.205-3.855-1.016-7.697-2.022-11.528c-1.019-3.833-2.263-7.656-3.569-11.509
				C34.625,11.934,33.253,8.064,32,4z"/>
		</g>
		<g>
			<path fill="#846144" d="M32,4c1.034,3.91,1.571,7.819,1.959,11.729c0.367,3.91,0.537,7.819,0.54,11.729
				c0.004,3.91-0.167,7.819-0.533,11.729c-0.385,3.909-0.924,7.819-1.966,11.729c-1.042-3.909-1.581-7.819-1.966-11.729
				c-0.366-3.91-0.538-7.819-0.533-11.729c0.002-3.91,0.173-7.819,0.54-11.729C30.428,11.819,30.965,7.91,32,4z"/>
		</g>
	</g>
</g>
</svg>
