<?xml version="1.0" encoding="utf-8"?>
<!-- Generator: Adobe Illustrator 15.0.0, SVG Export Plug-In . SVG Version: 6.00 Build 0)  -->
<!DOCTYPE svg PUBLIC "-//W3C//DTD SVG 1.1//EN" "http://www.w3.org/Graphics/SVG/1.1/DTD/svg11.dtd">
<svg version="1.1" id="Layer_1" xmlns="http://www.w3.org/2000/svg" xmlns:xlink="http://www.w3.org/1999/xlink" x="0px" y="0px"
	 width="64px" height="64px" viewBox="0 0 64 64" enable-background="new 0 0 64 64" xml:space="preserve">
<g>
	<path fill="#83BF4F" d="M39.75,45.086C33.402,50.401,33.879,64,33.879,64h2.223C41.885,46.211,62,39.461,62,39.461
		S49.153,37.211,39.75,45.086z"/>
	<g>
		<polygon fill="#75A843" points="33.639,1 36.139,64 31.139,64 		"/>
	</g>
	<g>
		<path fill="#AA1F65" d="M45.209,25.089c0,10.983-5.18,15.684-11.57,15.684c-6.39,0-11.571-4.701-11.571-15.684
			C22.068,14.106,33.639,1,33.639,1S45.209,14.106,45.209,25.089z"/>
		<path fill="#D33777" d="M36.98,19.946c14.752,9.257,4.758,22.515-3.645,22.515c-8.401,0-15.213-8.634-15.213-19.284
			c0-10.65,8.271-19.284,8.271-19.284S26.117,13.131,36.98,19.946z"/>
		<path fill="#E84D88" d="M30.296,19.946c-14.751,9.257-4.759,22.515,3.644,22.515c8.401,0,15.213-8.634,15.213-19.284
			c0-10.65-8.271-19.284-8.271-19.284S41.16,13.131,30.296,19.946z"/>
	</g>
	<path fill="#83BF4F" d="M24.759,43.145C31.325,49.711,33.506,64,33.506,64H28.75C21,45.836,2,32.5,2,32.5
		S18.212,36.598,24.759,43.145z"/>
</g>
</svg>
