<?xml version="1.0" encoding="utf-8"?>
<!-- Generator: Adobe Illustrator 15.0.0, SVG Export Plug-In . SVG Version: 6.00 Build 0)  -->
<!DOCTYPE svg PUBLIC "-//W3C//DTD SVG 1.1//EN" "http://www.w3.org/Graphics/SVG/1.1/DTD/svg11.dtd">
<svg version="1.1" id="Layer_1" xmlns="http://www.w3.org/2000/svg" xmlns:xlink="http://www.w3.org/1999/xlink" x="0px" y="0px"
	 width="64px" height="64px" viewBox="0 0 64 64" enable-background="new 0 0 64 64" xml:space="preserve">
<g>
	<g>
		<g>
			<path fill="#83BF4F" d="M15.182,31.385c0,1.66-1.358,3.008-3.031,3.008h-2.122C8.356,34.393,7,33.045,7,31.385V18.054
				c0-5.872,8.182-5.872,8.182,0V31.385z"/>
			<path fill="#83BF4F" d="M23.418,26.272c1.673,0,3.03,1.347,3.03,3.007v2.105c-0.001,1.66-1.357,3.008-3.03,3.008H10.029
				C8.356,34.393,7,33.045,7,31.385v-2.105c0-1.66,1.356-3.007,3.029-3.007H23.418z"/>
		</g>
		<g>
			<path fill="#699635" d="M26.911,28.503v-1.177H15.886c-0.249,0-1.749-0.055-1.749-1.764V18.53c0-4.253-3.046-4.879-3.046-4.879
				s1.879,0.76,1.879,4.879v7.742c0,2.23,1.8,2.23,2.212,2.23H26.911z"/>
			<path fill="#699635" d="M13.423,29.744c-0.249,0-1.75-0.199-1.75-2.818v-8.395c0-3.337-0.583-4.879-0.583-4.879
				s-0.584,1.542-0.584,4.879v9.106c0,3.284,1.799,3.284,2.212,3.284h14.273v-1.177H13.423z"/>
			<path fill="#699635" d="M9.211,29.368V18.53c0-4.121,1.88-4.879,1.88-4.879s-3.046,0.626-3.046,4.879v11.522
				c0,3.285,2.844,3.285,3.256,3.285h15.692v-1.176H11.98C11.74,32.162,9.211,31.867,9.211,29.368z"/>
		</g>
	</g>
	<g>
		<g>
			<path fill="#83BF4F" d="M46.43,47.184c0,2.146,1.756,3.886,3.914,3.886h2.742c2.162,0,3.914-1.74,3.914-3.886V29.963
				c0-7.584-10.57-7.584-10.57,0V47.184z"/>
			<path fill="#83BF4F" d="M35.791,40.58c-2.162,0-3.916,1.74-3.916,3.885v2.719c0.002,2.146,1.753,3.886,3.916,3.886h17.295
				c2.162,0,3.914-1.74,3.914-3.886v-2.719c0-2.145-1.752-3.885-3.914-3.885H35.791z"/>
		</g>
		<g>
			<path fill="#699635" d="M31.279,43.461v-1.52H45.52c0.322,0,2.26-0.071,2.26-2.279v-9.084c0-5.494,3.936-6.302,3.936-6.302
				s-2.43,0.982-2.43,6.303V40.58c0,2.881-2.322,2.881-2.855,2.881H31.279z"/>
			<path fill="#699635" d="M48.701,45.064c0.322,0,2.26-0.258,2.26-3.641V30.579c0-4.312,0.754-6.303,0.754-6.303
				s0.752,1.992,0.752,6.302v11.764c0,4.243-2.322,4.243-2.855,4.243H31.172v-1.521H48.701z"/>
			<path fill="#699635" d="M54.143,44.578v-14c0-5.324-2.428-6.302-2.428-6.302s3.934,0.808,3.934,6.302v14.886
				c0,4.243-3.674,4.243-4.205,4.243H31.172v-1.52h19.392C50.875,48.188,54.143,47.807,54.143,44.578z"/>
		</g>
	</g>
	<g>
		<path fill="#83BF4F" d="M39.51,64H22.791V9.999C22.791-2,39.51-2,39.51,9.999V64z"/>
		<g>
			<path fill="#699635" d="M37.373,64V10.971C37.373,2.279,31.15,1,31.15,1s3.84,1.554,3.84,9.972V64H37.373z"/>
			<path fill="#699635" d="M32.342,64V10.972C32.342,4.153,31.15,1,31.15,1s-1.192,3.152-1.192,9.971V64H32.342z"/>
			<path fill="#699635" d="M27.309,64V10.971C27.309,2.549,31.15,1,31.15,1s-6.224,1.279-6.224,9.971V64H27.309z"/>
		</g>
	</g>
</g>
</svg>
