<?xml version="1.0" encoding="utf-8"?>
<!-- Generator: Adobe Illustrator 15.0.0, SVG Export Plug-In . SVG Version: 6.00 Build 0)  -->
<!DOCTYPE svg PUBLIC "-//W3C//DTD SVG 1.1//EN" "http://www.w3.org/Graphics/SVG/1.1/DTD/svg11.dtd">
<svg version="1.1" id="Layer_1" xmlns="http://www.w3.org/2000/svg" xmlns:xlink="http://www.w3.org/1999/xlink" x="0px" y="0px"
	 width="64px" height="64px" viewBox="0 0 64 64" enable-background="new 0 0 64 64" xml:space="preserve">
<g>
	<path fill="#75A843" d="M10.69,27.466c-0.574,3.037-0.881,6.079-0.754,9.097c0.133,3.014,0.682,5.986,1.645,8.827
		c0.957,2.843,2.314,5.55,3.953,8.093c0.828,1.268,1.717,2.502,2.682,3.682c0.957,1.189,1.98,2.33,3.086,3.41
		c-1.318-0.82-2.502-1.838-3.633-2.908c-1.115-1.086-2.158-2.254-3.1-3.506c-1.896-2.49-3.412-5.297-4.42-8.289
		c-1.008-2.988-1.496-6.162-1.387-9.303C8.854,33.428,9.516,30.326,10.69,27.466z"/>
	<path fill="#75A843" d="M51.331,27.965c-3.197,1.844-6.283,3.814-9.17,6.033c-2.883,2.223-5.574,4.672-7.998,7.363
		c-2.426,2.69-4.584,5.617-6.44,8.74c-0.918,1.566-1.771,3.176-2.523,4.838c-0.762,1.66-1.438,3.363-1.961,5.131
		c0.195-1.84,0.691-3.641,1.27-5.403c0.604-1.757,1.328-3.477,2.182-5.134c1.691-3.322,3.852-6.41,6.352-9.184
		c2.502-2.771,5.344-5.23,8.432-7.305C44.554,30.961,47.868,29.242,51.331,27.965z"/>
	<g>
		<path fill="#F4BC58" d="M28.463,14.719c-1.461,1.75-4.115,1.181-4.115,1.181s-1.035-2.509,0.426-4.259
			c1.461-1.751,5.049-2.301,5.049-2.301S29.924,12.969,28.463,14.719z"/>
		<g>
			<path fill="#F4BC58" d="M23.172,15.074c0.422,1.803-1.242,3.247-1.242,3.247s-2.135-0.553-2.557-2.356
				c-0.424-1.803,0.971-4.399,0.971-4.399S22.749,13.272,23.172,15.074z"/>
			<path fill="#F4BC58" d="M25.971,20.056c-1.803,0.423-3.246-1.242-3.246-1.242s0.553-2.133,2.355-2.556s4.4,0.972,4.4,0.972
				S27.774,19.633,25.971,20.056z"/>
		</g>
		<g>
			<path fill="#F4BC58" d="M20.2,19.618c0.646,1.735-0.822,3.377-0.822,3.377s-2.186-0.28-2.832-2.015
				c-0.648-1.735,0.408-4.486,0.408-4.486S19.553,17.883,20.2,19.618z"/>
			<path fill="#F4BC58" d="M23.606,24.207c-1.734,0.647-3.377-0.822-3.377-0.822s0.279-2.186,2.014-2.833
				c1.736-0.647,4.486,0.409,4.486,0.409S25.34,23.561,23.606,24.207z"/>
		</g>
		<g>
			<path fill="#F4BC58" d="M18.209,24.366c0.855,1.737-0.502,3.599-0.502,3.599s-2.305-0.061-3.158-1.799
				c-0.855-1.738-0.043-4.711-0.043-4.711S17.356,22.628,18.209,24.366z"/>
			<path fill="#F4BC58" d="M22.235,28.783c-1.738,0.855-3.602-0.502-3.602-0.502s0.063-2.304,1.801-3.158
				c1.736-0.854,4.711-0.043,4.711-0.043S23.971,27.93,22.235,28.783z"/>
		</g>
		<g>
			<path fill="#F4BC58" d="M16.401,30.025c1.242,1.721,0.115,3.98,0.115,3.98s-2.498,0.355-3.74-1.365
				c-1.24-1.721-0.91-5.081-0.91-5.081S15.161,28.305,16.401,30.025z"/>
			<path fill="#F4BC58" d="M21.557,34.062c-1.721,1.241-3.98,0.116-3.98,0.116s-0.355-2.5,1.365-3.741s5.08-0.909,5.08-0.909
				S23.278,32.82,21.557,34.062z"/>
		</g>
		<g>
			<path fill="#F4BC58" d="M15.295,36.661c1.527,1.646,0.639,4.167,0.639,4.167s-2.58,0.697-4.107-0.949s-1.615-5.221-1.615-5.221
				S13.768,35.015,15.295,36.661z"/>
			<path fill="#F4BC58" d="M21.235,40.232c-1.646,1.527-4.166,0.639-4.166,0.639s-0.697-2.58,0.949-4.107s5.221-1.615,5.221-1.615
				S22.881,38.705,21.235,40.232z"/>
		</g>
		<path fill="#F4BC58" d="M24.493,15.843c-2.547,3.06-4.264,6.662-5.367,10.414c-0.543,1.881-0.967,3.796-1.252,5.737
			c-0.299,1.938-0.49,3.893-0.58,5.855c-0.109,1.961-0.119,3.93-0.064,5.896c0.039,1.97,0.176,3.937,0.334,5.904
			c0.174,1.965,0.391,3.93,0.664,5.889c0.264,1.961,0.582,3.916,0.951,5.867c-0.621-1.889-1.09-3.824-1.516-5.769
			c-0.408-1.948-0.75-3.913-1.004-5.89c-0.268-1.977-0.428-3.967-0.533-5.962c-0.088-1.995-0.086-3.997,0.006-5.997
			c0.113-1.998,0.314-3.996,0.656-5.973c0.354-1.974,0.814-3.936,1.475-5.834c0.648-1.901,1.479-3.744,2.508-5.466
			C21.807,18.8,23.04,17.202,24.493,15.843z"/>
	</g>
	<g>
		<path fill="#FFCC66" d="M51.722,8.707c-2.424,1.695-5.553,0.08-5.553,0.08s-0.443-3.493,1.98-5.188
			c2.426-1.695,7.104-1.164,7.104-1.164S54.146,7.012,51.722,8.707z"/>
		<g>
			<path fill="#FFCC66" d="M44.976,7.353c-0.082,2.4-2.658,3.642-2.658,3.642s-2.482-1.417-2.398-3.818
				C40.001,4.776,42.63,2,42.63,2S45.06,4.952,44.976,7.353z"/>
			<path fill="#FFCC66" d="M46.788,14.542c-2.4-0.083-3.643-2.658-3.643-2.658s1.418-2.483,3.818-2.399
				c2.4,0.083,5.178,2.711,5.178,2.711S49.188,14.625,46.788,14.542z"/>
		</g>
		<g>
			<path fill="#FFCC66" d="M39.712,12.031c0.221,2.392-2.178,3.949-2.178,3.949s-2.643-1.093-2.861-3.485
				c-0.221-2.392,2.037-5.478,2.037-5.478S39.491,9.64,39.712,12.031z"/>
			<path fill="#FFCC66" d="M42.417,18.934c-2.393,0.22-3.949-2.178-3.949-2.178s1.094-2.642,3.484-2.862
				c2.393-0.22,5.479,2.038,5.479,2.038S44.808,18.714,42.417,18.934z"/>
		</g>
		<g>
			<path fill="#FFCC66" d="M35.606,17.298c0.479,2.465-1.854,4.336-1.854,4.336s-2.862-0.861-3.342-3.327
				c-0.479-2.466,1.547-5.913,1.547-5.913S35.128,14.832,35.606,17.298z"/>
			<path fill="#FFCC66" d="M39.144,24.197c-2.467,0.479-4.338-1.853-4.338-1.853s0.861-2.863,3.328-3.342
				c2.465-0.479,5.912,1.547,5.912,1.547S41.608,23.718,39.144,24.197z"/>
		</g>
		<g>
			<path fill="#FFCC66" d="M31.418,23.769c0.969,2.576-1.209,5.023-1.209,5.023s-3.25-0.405-4.219-2.981
				c-0.969-2.576,0.588-6.67,0.588-6.67S30.45,21.193,31.418,23.769z"/>
			<path fill="#FFCC66" d="M36.501,30.574c-2.576,0.969-5.024-1.208-5.024-1.208s0.406-3.25,2.983-4.219
				c2.576-0.969,6.67,0.588,6.67,0.588S39.077,29.605,36.501,30.574z"/>
		</g>
		<g>
			<path fill="#FFCC66" d="M27.78,31.701c1.352,2.58-0.619,5.434-0.619,5.434s-3.467-0.006-4.818-2.586s-0.248-7.083-0.248-7.083
				S26.426,29.12,27.78,31.701z"/>
			<path fill="#FFCC66" d="M34.001,38.191c-2.581,1.352-5.434-0.618-5.434-0.618s0.004-3.467,2.586-4.819
				c2.581-1.352,7.084-0.246,7.084-0.246S36.581,36.838,34.001,38.191z"/>
		</g>
		<path fill="#FFCC66" d="M46.37,8.764c-4.229,2.965-7.604,6.892-10.26,11.213c-1.32,2.17-2.502,4.424-3.52,6.755
			c-1.029,2.325-1.936,4.708-2.713,7.134c-0.805,2.418-1.486,4.879-2.088,7.361c-0.621,2.479-1.117,4.986-1.588,7.504
			c-0.449,2.52-0.848,5.053-1.17,7.598c-0.336,2.545-0.604,5.102-0.803,7.67c-0.137-2.576-0.066-5.159,0.063-7.738
			c0.152-2.577,0.391-5.152,0.746-7.715c0.334-2.564,0.813-5.111,1.359-7.644c0.566-2.528,1.248-5.034,2.045-7.507
			c0.82-2.463,1.75-4.895,2.85-7.254c1.115-2.351,2.358-4.65,3.833-6.802c1.455-2.161,3.123-4.185,4.996-5.991
			C42.001,11.554,44.089,9.972,46.37,8.764z"/>
	</g>
	<path fill="#83BF4F" d="M39.427,39.518c-2.48,0.509-4.883,1.178-7.108,2.201c-2.219,1.026-4.25,2.39-5.973,4.084
		c-1.73,1.688-3.15,3.686-4.293,5.855c-0.563,1.09-1.068,2.217-1.496,3.383c-0.439,1.162-0.807,2.357-1.1,3.589
		c-0.041-1.271,0.137-2.542,0.387-3.794c0.27-1.25,0.643-2.485,1.141-3.676c0.977-2.385,2.432-4.611,4.305-6.438
		c1.867-1.83,4.146-3.238,6.588-4.092C34.315,39.759,36.897,39.402,39.427,39.518z"/>
</g>
</svg>
