<?xml version="1.0" encoding="utf-8"?>
<!-- Generator: Adobe Illustrator 15.0.0, SVG Export Plug-In . SVG Version: 6.00 Build 0)  -->
<!DOCTYPE svg PUBLIC "-//W3C//DTD SVG 1.1//EN" "http://www.w3.org/Graphics/SVG/1.1/DTD/svg11.dtd">
<svg version="1.1" id="Layer_1" xmlns="http://www.w3.org/2000/svg" xmlns:xlink="http://www.w3.org/1999/xlink" x="0px" y="0px"
	 width="64px" height="64px" viewBox="0 0 64 64" enable-background="new 0 0 64 64" xml:space="preserve">
<g>
	<path fill="#46A03C" d="M25.43,2c1.12,2.277,2.032,4.655,2.857,7.061c0.817,2.408,1.52,4.859,2.112,7.338
		c1.186,4.959,1.933,10.037,2.206,15.157c0.273,5.119,0.066,10.281-0.652,15.391C31.238,52.056,30.004,57.108,28.275,62
		l-3.237-1.247c3.844-9.144,5.808-19.115,5.833-29.154c0.019-5.02-0.429-10.055-1.32-15.022c-0.446-2.484-1.003-4.951-1.679-7.389
		C27.189,6.753,26.418,4.336,25.43,2z"/>
	<path fill="#4EBD3B" d="M35.476,42.005c-4.947,2.152-4.562,7.349-4.562,7.349s3.689,4.398,8.639,2.247
		c3.411-1.482,7.746-8.459,7.746-8.459S38.887,40.522,35.476,42.005z"/>
	<path fill="#4EBD3B" d="M32.726,24.673c-3.718,2.964-0.563,6.505-0.563,6.505s5.666,2.227,9.385-0.737
		c2.564-2.043,2.313-8.242,2.313-8.242S35.29,22.63,32.726,24.673z"/>
	<path fill="#4EBD3B" d="M30.834,11.855c-2.782,2.24-0.418,4.92-0.418,4.92s4.242,1.687,7.025-0.553
		c1.919-1.544,1.728-6.232,1.728-6.232S32.753,10.312,30.834,11.855z"/>
	<path fill="#4EBD3B" d="M29.279,33.259c4.703,2.217,2.137,6.15,2.137,6.15s-5.581,3.096-10.285,0.88
		c-3.243-1.528-4.43-7.521-4.43-7.521S26.037,31.731,29.279,33.259z"/>
	<path fill="#4EBD3B" d="M30.603,18.263c2.861,2.863-0.071,5.166-0.071,5.166s-4.923,0.905-7.785-1.958
		c-1.973-1.974-1.245-6.778-1.245-6.778S28.63,16.29,30.603,18.263z"/>
	<path fill="#4EBD3B" d="M30.183,6.573c0.938,2.594-1.696,3.416-1.696,3.416s-3.478-0.588-4.416-3.183C23.424,5.017,25.43,2,25.43,2
		S29.536,4.785,30.183,6.573z"/>
	<path fill="#46A03C" d="M31.416,39.409c-0.47-0.486-1.082-0.795-1.669-1.117c-0.59-0.324-1.193-0.623-1.806-0.904
		c-1.223-0.563-2.456-1.107-3.704-1.617c-1.243-0.521-2.501-1.01-3.756-1.512l-1.891-0.734l-1.89-0.756
		c1.329,0.287,2.635,0.66,3.93,1.071c1.296,0.405,2.569,0.882,3.828,1.397c1.253,0.527,2.493,1.092,3.685,1.756
		c0.594,0.334,1.182,0.68,1.75,1.059c0.28,0.195,0.556,0.398,0.819,0.615C30.974,38.886,31.243,39.111,31.416,39.409z"/>
	<path fill="#46A03C" d="M30.531,23.428c-0.295-0.463-0.468-0.982-0.734-1.447c-0.244-0.475-0.525-0.924-0.832-1.354
		c-0.622-0.854-1.355-1.622-2.16-2.311c-1.605-1.393-3.447-2.502-5.304-3.624c2.051,0.708,4.006,1.755,5.683,3.188
		c0.827,0.723,1.582,1.55,2.155,2.5c0.289,0.472,0.528,0.974,0.717,1.489C30.241,22.387,30.357,22.917,30.531,23.428z"/>
	<path fill="#46A03C" d="M32.163,31.178c0.262-0.575,0.584-1.12,0.924-1.656c0.354-0.526,0.739-1.032,1.147-1.52
		c0.816-0.975,1.764-1.839,2.775-2.61c1.022-0.76,2.114-1.427,3.27-1.956c0.576-0.264,1.163-0.505,1.759-0.719
		c0.603-0.195,1.204-0.386,1.822-0.518c-1.157,0.503-2.292,1.027-3.38,1.633c-1.084,0.611-2.136,1.272-3.122,2.022
		c-0.995,0.739-1.922,1.565-2.797,2.447C33.69,29.188,32.898,30.154,32.163,31.178z"/>
	<path fill="#46A03C" d="M30.416,16.775c0.283-0.928,0.75-1.8,1.322-2.593c0.569-0.797,1.258-1.513,2.027-2.126
		c0.776-0.606,1.636-1.11,2.554-1.461c0.913-0.359,1.883-0.559,2.85-0.605c-1.858,0.534-3.576,1.347-5.045,2.521
		c-0.74,0.576-1.412,1.238-2.033,1.95C31.48,15.18,30.902,15.941,30.416,16.775z"/>
	<path fill="#46A03C" d="M28.486,9.989c-0.412-1.413-0.688-2.822-1.154-4.167C26.883,4.471,26.279,3.196,25.43,2
		c0.588,0.441,1.097,1,1.495,1.628c0.407,0.625,0.714,1.309,0.955,2.009c0.23,0.705,0.397,1.427,0.493,2.157
		C28.478,8.522,28.499,9.256,28.486,9.989z"/>
	<path fill="#46A03C" d="M30.914,49.354c0.454-0.594,0.995-1.124,1.56-1.623c0.578-0.485,1.197-0.922,1.84-1.319
		c1.288-0.796,2.691-1.383,4.122-1.856c1.436-0.46,2.904-0.804,4.39-1.024c0.742-0.11,1.486-0.203,2.231-0.274
		c0.748-0.054,1.494-0.109,2.242-0.114c-0.736,0.135-1.474,0.248-2.204,0.395c-0.733,0.129-1.464,0.27-2.188,0.431
		c-1.45,0.321-2.89,0.675-4.293,1.138c-1.406,0.45-2.775,1.008-4.081,1.691C33.23,47.485,32.009,48.333,30.914,49.354z"/>
</g>
</svg>
