<?xml version="1.0" encoding="utf-8"?>
<!-- Generator: Adobe Illustrator 15.0.0, SVG Export Plug-In . SVG Version: 6.00 Build 0)  -->
<!DOCTYPE svg PUBLIC "-//W3C//DTD SVG 1.1//EN" "http://www.w3.org/Graphics/SVG/1.1/DTD/svg11.dtd">
<svg version="1.1" id="Layer_1" xmlns="http://www.w3.org/2000/svg" xmlns:xlink="http://www.w3.org/1999/xlink" x="0px" y="0px"
	 width="64px" height="64px" viewBox="0 0 64 64" enable-background="new 0 0 64 64" xml:space="preserve">
<g>
	<path fill="#F2EACC" d="M46.596,42.178c-6.489,9.362-16.808,1.186-10.319-8.176C48.062,22.686,47.76,6.556,52.22,6.02
		C57.833,5.346,61.991,22.019,46.596,42.178z"/>
	<g>
		<g>
			<path fill="#9C6525" d="M5.455,40.734L2,43.684c0.856,1.35,1.821,2.619,2.878,3.801c1.721-1.394,3.65-3.228,4.922-4.974
				C8.281,42.053,6.826,41.46,5.455,40.734z"/>
			<path fill="#FEE801" d="M34.214,20.129c-7.189-1.834-11.881,3.224-11.881,3.224c6.792-3.631,16.848,4.626,15.38,7.257
				c-5.129,9.193-15.238,14.488-25.69,12.464c-0.759-0.147-1.495-0.345-2.223-0.563c-1.271,1.746-3.201,3.58-4.922,4.974
				c14.077,7.024,30.94,2.875,38.081-11.268C45.869,30.452,40.313,21.685,34.214,20.129z"/>
		</g>
		<g>
			<path fill="#E5C900" d="M61.991,43.193c0,0-1.37-5.73-8.178-8.43c-6.636-2.63-10.854,1.453-10.854,1.453
				c-5.391,9.654-16.008,15.217-26.984,13.089c-3.285-0.637-6.297-1.925-8.971-3.688c-0.705,0.671-1.432,1.307-2.126,1.867
				c3.841,4.305,8.941,7.406,14.845,8.551c9.261,1.795,18.278-1.621,24.4-8.29C53.537,35.875,61.991,43.193,61.991,43.193z"/>
		</g>
		<g>
			<path fill="#F5F5F5" d="M34.549,41.113c2.923-1.837,4.414-4.918,3.328-6.881c-0.347-0.629-0.93-1.045-1.639-1.289
				c-0.178,0.253-0.356,0.506-0.541,0.75c0.52,0.204,0.95,0.528,1.213,1.003c0.882,1.595-0.328,4.098-2.704,5.589
				c-2.31,1.452-4.856,1.4-5.808-0.072c-0.371,0.219-0.747,0.426-1.13,0.625c0.008,0.015,0.012,0.031,0.021,0.045
				C28.375,42.848,31.624,42.949,34.549,41.113z"/>
			<path fill="#42ADE2" d="M28.398,40.213c0.951,1.473,3.498,1.524,5.808,0.072c2.376-1.491,3.586-3.994,2.704-5.589
				c-0.263-0.475-0.693-0.799-1.213-1.003C33.677,36.357,31.191,38.568,28.398,40.213z"/>
		</g>
	</g>
	<path fill="#FEE801" d="M61.991,43.193c0.222,5.295-3.674,13.652-10.326,14.764c-6.653,1.112,8.433-19.828-1.615-24.058
		C50.05,33.899,61.602,33.881,61.991,43.193z"/>
	<path fill="#E5C900" d="M35.92,20.755c-14.852-6.11-19.875,12.637-12.459,10.415C26.15,30.363,27.678,24.84,35.92,20.755z"/>
</g>
</svg>
