<?xml version="1.0" encoding="utf-8"?>
<!-- Generator: Adobe Illustrator 15.0.0, SVG Export Plug-In . SVG Version: 6.00 Build 0)  -->
<!DOCTYPE svg PUBLIC "-//W3C//DTD SVG 1.1//EN" "http://www.w3.org/Graphics/SVG/1.1/DTD/svg11.dtd">
<svg version="1.1" id="Layer_1" xmlns="http://www.w3.org/2000/svg" xmlns:xlink="http://www.w3.org/1999/xlink" x="0px" y="0px"
	 width="64px" height="64px" viewBox="0 0 64 64" enable-background="new 0 0 64 64" xml:space="preserve">
<g>
	<g>
		<path fill="#EF4D3C" d="M61.96,31.649C62.842,46.975,48.851,60,32.093,60S0.44,46.182,2.132,30.932
			C4.513,9.443,20.423,8.006,32.093,8.006C39.19,8.006,60.246,1.845,61.96,31.649z"/>
	</g>
	<g>
		<path fill="#8CC63E" d="M10.979,27.018c6.183-9.639,16.822-6.802,19.621-10.356c0,6.869,4.993,3.536,7.517,6.63
			c3.245,3.978,4.434,11.107,8.167,12.51c-3.676-7.896,2.344-7.589-6.117-18.185c4.459,2.769,6.769-0.033,12.854,2.461
			c-5.207-8.51-13.537-6.05-13.537-6.05s5.239-4.785,9.6-2.29c-4.621-6.802-17.863,1.846-17.863,1.846s-5.532-9.468-17.344,0.444
			c6.865-2.802,14.545,0,14.545,0S15.894,10.919,10.979,27.018z"/>
		<path fill="#64892F" d="M10.979,27.018c0,0,7.256-13.467,19.85-12.271C19.765,9.586,10.979,20.421,10.979,27.018z"/>
		<path fill="#64892F" d="M13.876,14.029c0,0,9.208-6.903,17.344,0C28.778,5.553,16.511,9.518,13.876,14.029z"/>
		<path fill="#64892F" d="M33.204,14.85c12.17,5.639,8.07,11.963,13.08,20.953C42.944,28.373,51.263,14.85,33.204,14.85z"/>
		<path fill="#64892F" d="M28.421,14.029c0,0,2.802-4.161,3.807-9.39c0.132-0.687,3.07-0.627,2.973,0.069
			c-0.955,6.729,1.681,10.449,1.681,10.449s-2.115,0.718-4.718,0.718C29.624,15.875,28.421,14.029,28.421,14.029z"/>
		<ellipse fill="#8CC63E" cx="33.714" cy="4.639" rx="1.486" ry="0.637"/>
	</g>
</g>
</svg>
