<?xml version="1.0" encoding="utf-8"?>
<!-- Generator: Adobe Illustrator 15.0.0, SVG Export Plug-In . SVG Version: 6.00 Build 0)  -->
<!DOCTYPE svg PUBLIC "-//W3C//DTD SVG 1.1//EN" "http://www.w3.org/Graphics/SVG/1.1/DTD/svg11.dtd">
<svg version="1.1" id="Layer_1" xmlns="http://www.w3.org/2000/svg" xmlns:xlink="http://www.w3.org/1999/xlink" x="0px" y="0px"
	 width="64px" height="64px" viewBox="0 0 64 64" enable-background="new 0 0 64 64" xml:space="preserve">
<g>
	<g>
		<path fill="#64892F" d="M16.935,11.238c4.893,4.894,5.663,8.215,4.092,9.788c-1.573,1.572-4.894,0.802-9.787-4.092
			C6.345,12.039,3.304,3.302,3.304,3.302S12.04,6.343,16.935,11.238z"/>
		<g>
			<g>
				<path fill="#64892F" d="M23.71,14.118c2.924,6.273,2.512,9.657,0.496,10.597c-2.015,0.94-4.872-0.919-7.796-7.193
					C13.483,11.25,13.615,2,13.615,2S20.784,7.845,23.71,14.118z"/>
				<path fill="#64892F" d="M29.632,21.245c-2.881,6.294-5.724,8.173-7.746,7.249c-2.022-0.925-2.458-4.306,0.422-10.6
					C25.188,11.6,32.315,5.703,32.315,5.703S32.512,14.951,29.632,21.245z"/>
				<path fill="#64892F" d="M26.912,17.956c-0.398,6.91-2.365,9.694-4.587,9.565c-2.22-0.128-3.853-3.12-3.453-10.03
					c0.399-6.911,4.899-14.992,4.899-14.992S27.313,11.045,26.912,17.956z"/>
				<path fill="#64892F" d="M33.202,23.979c-4.449,5.302-7.689,6.358-9.394,4.93c-1.703-1.429-1.226-4.805,3.224-10.107
					S39.92,9.709,39.92,9.709S37.652,18.677,33.202,23.979z"/>
			</g>
			<g>
				<path fill="#64892F" d="M14.119,23.708c6.273,2.926,9.656,2.514,10.595,0.498c0.941-2.015-0.918-4.872-7.19-7.797
					C11.25,13.483,2,13.614,2,13.614S7.847,20.783,14.119,23.708z"/>
				<path fill="#64892F" d="M21.245,29.631c6.294-2.88,8.174-5.724,7.248-7.746c-0.924-2.022-4.307-2.457-10.6,0.423
					C11.6,25.188,5.704,32.316,5.704,32.316S14.951,32.512,21.245,29.631z"/>
				<path fill="#64892F" d="M17.957,26.912c6.909-0.398,9.693-2.366,9.564-4.587c-0.128-2.219-3.119-3.853-10.03-3.454
					S2.5,23.771,2.5,23.771S11.046,27.312,17.957,26.912z"/>
				<path fill="#64892F" d="M23.98,33.201c5.302-4.448,6.358-7.689,4.929-9.393c-1.429-1.704-4.805-1.225-10.105,3.224
					C13.501,31.481,9.709,39.92,9.709,39.92S18.678,37.651,23.98,33.201z"/>
			</g>
		</g>
	</g>
	<path fill="#B46137" d="M55.909,31.198c7.997,7.997,5.762,16.826-1.062,23.649c-6.823,6.824-15.653,9.059-23.648,1.063
		c-7.997-7.997-14.739-25.803-7.916-32.627C30.107,16.459,47.913,23.201,55.909,31.198z"/>
	<g>
		<g>
			<path fill="#E7A74F" d="M47.054,47.055c-0.973,0.973-2.11,4.344-1.207,5.248c0.906,0.904,4.276-0.233,5.25-1.207
				c0.972-0.973,2.11-4.344,1.206-5.248S48.026,46.082,47.054,47.055z"/>
			<path fill="#E7A74F" d="M52.873,52.873c-0.973,0.974-1.821,4.635-0.916,5.539c0.904,0.904,7.359-5.552,6.455-6.455
				C57.508,51.052,53.846,51.9,52.873,52.873z"/>
			<path fill="#E7A74F" d="M34.833,34.832c-0.974,0.973-2.11,4.344-1.208,5.248c0.905,0.904,4.275-0.233,5.249-1.206
				c0.973-0.974,2.111-4.345,1.207-5.249S35.805,33.859,34.833,34.832z"/>
			<path fill="#E7A74F" d="M40.941,40.941c-0.973,0.973-2.111,4.344-1.207,5.248s4.276-0.234,5.249-1.207s2.111-4.344,1.207-5.248
				S41.914,39.968,40.941,40.941z"/>
			<path fill="#E7A74F" d="M28.975,28.973c-0.973,0.973-2.11,4.345-1.207,5.249s4.275-0.233,5.249-1.206
				c0.972-0.973,2.11-4.346,1.206-5.25S29.946,28,28.975,28.973z"/>
		</g>
		<g>
			<g>
				<path fill="#E7A74F" d="M29.131,52.004c-1.383,1.383-1.008,5.797,3.589,6.958c1.219,0.308,3.497-7.446,2.593-8.351
					C33.637,48.936,30.021,51.113,29.131,52.004z"/>
				<path fill="#E7A74F" d="M36.449,57.65c-3.495,3.496,2.351,5.733,4.706,3.377c0.891-0.889,1.17-3.402,0.266-4.307
					C40.518,55.816,37.34,56.761,36.449,57.65z"/>
				<path fill="#E7A74F" d="M38.147,48.996c-0.973,0.973-2.101,5.096-1.196,6s5.218-0.031,6.191-1.004
					c0.973-0.973,1.526-4.82,0.622-5.725C42.86,47.364,39.119,48.023,38.147,48.996z"/>
				<path fill="#E7A74F" d="M44.337,55.186c-0.973,0.974-1.764,4.691-0.859,5.596c1.676,1.678,4.855,0.346,5.827-0.627
					c0.973-0.973,1.532-4.924,0.628-5.828C49.029,53.422,45.311,54.213,44.337,55.186z"/>
				<path fill="#E7A74F" d="M32.211,43.06c-0.974,0.973-2.355,4.841-1.451,5.745c0.903,0.904,5.111-0.139,6.083-1.111
					c0.973-0.973,1.772-4.686,0.868-5.59C36.807,41.2,33.184,42.087,32.211,43.06z"/>
				<path fill="#E7A74F" d="M20.572,31.266c-0.972,0.973-1.421,3.656-0.519,4.561c0.904,0.904,3.589,0.454,4.561-0.519
					c0.973-0.974,2.111-4.345,1.207-5.249S21.546,30.293,20.572,31.266z"/>
				<path fill="#E7A74F" d="M20.638,38.054c-0.889,0.89,0.761,6.509,1.65,5.618c0.89-0.889,2.447-4.68,1.543-5.584
					S21.527,37.164,20.638,38.054z"/>
				<path fill="#E7A74F" d="M24.321,45.344c-1.161,1.16-1.399,6.221,1.848,6.666c1.247,0.171,4.154-6.388,3.25-7.292
					C28.515,43.813,25.211,44.453,24.321,45.344z"/>
				<path fill="#E7A74F" d="M26.237,37.087c-0.973,0.973-1.835,4.73-0.931,5.636c0.903,0.904,4.772,0.152,5.746-0.821
					c0.972-0.973,1.614-4.731,0.71-5.636S27.211,36.113,26.237,37.087z"/>
			</g>
			<g>
				<path fill="#E7A74F" d="M52.005,29.131c1.383-1.383,5.796-1.009,6.957,3.588c0.309,1.22-7.447,3.498-8.351,2.594
					C48.936,33.635,51.113,30.021,52.005,29.131z"/>
				<path fill="#E7A74F" d="M57.65,36.449c3.495-3.496,5.733,2.35,3.378,4.707c-0.891,0.889-3.404,1.169-4.307,0.266
					C55.816,40.517,56.762,37.339,57.65,36.449z"/>
				<path fill="#E7A74F" d="M48.996,38.146c0.973-0.973,5.097-2.101,6.001-1.196s-0.032,5.218-1.006,6.192
					c-0.973,0.973-4.819,1.525-5.724,0.621C47.364,42.859,48.023,39.119,48.996,38.146z"/>
				<path fill="#E7A74F" d="M55.187,44.336c0.973-0.973,4.689-1.764,5.595-0.859c1.677,1.677,0.346,4.855-0.627,5.828
					s-4.923,1.532-5.827,0.628C53.423,49.029,54.213,45.31,55.187,44.336z"/>
				<path fill="#E7A74F" d="M43.061,32.21c0.973-0.974,4.841-2.356,5.744-1.451c0.904,0.904-0.138,5.112-1.111,6.085
					s-4.685,1.771-5.588,0.866C41.201,36.807,42.088,33.183,43.061,32.21z"/>
				<path fill="#E7A74F" d="M31.267,20.572c0.973-0.973,3.656-1.423,4.561-0.519s0.454,3.588-0.519,4.561
					c-0.974,0.973-4.344,2.111-5.249,1.207C29.155,24.917,30.294,21.544,31.267,20.572z"/>
				<path fill="#E7A74F" d="M38.056,20.637c0.888-0.889,6.508,0.761,5.617,1.651c-0.889,0.889-4.68,2.447-5.584,1.542
					S37.165,21.527,38.056,20.637z"/>
				<path fill="#E7A74F" d="M45.343,24.32c1.163-1.161,6.223-1.399,6.667,1.848c0.172,1.246-6.388,4.154-7.291,3.25
					C43.813,28.514,44.454,25.21,45.343,24.32z"/>
				<path fill="#E7A74F" d="M37.088,26.237c0.973-0.973,4.73-1.836,5.635-0.932s0.153,4.773-0.82,5.747
					c-0.973,0.972-4.732,1.614-5.636,0.71C35.362,30.857,36.114,27.21,37.088,26.237z"/>
			</g>
		</g>
	</g>
	<g>
		<path fill="#84B234" d="M21.91,18.431c3.731,3.732,4.512,6.07,3.551,7.031c-0.96,0.96-3.298,0.179-7.029-3.552
			s-6.482-9.96-6.482-9.96S18.178,14.699,21.91,18.431z"/>
		<g>
			<g>
				<path fill="#84B234" d="M25.719,31.508c3.302-2.652,3.783-4.798,2.672-6.076c-1.11-1.278-3.392-1.206-6.695,1.447
					c-3.302,2.652-5.267,8.159-5.267,8.159S22.415,34.16,25.719,31.508z"/>
				<path fill="#84B234" d="M21.385,24.163c4.657-0.046,6.887,1.182,7.234,2.717c0.351,1.536-1.313,2.8-5.968,2.846
					c-4.657,0.044-10.892-2.684-10.892-2.684S16.729,24.207,21.385,24.163z"/>
				<path fill="#84B234" d="M20.91,20.394c4.774,1.292,6.702,3.031,6.62,4.51c-0.081,1.479-2.145,2.14-6.919,0.848
					c-4.773-1.293-10.368-5.526-10.368-5.526S16.136,19.102,20.91,20.394z"/>
			</g>
			<g>
				<path fill="#84B234" d="M31.509,25.717c-2.652,3.303-4.799,3.783-6.075,2.673c-1.279-1.111-1.206-3.393,1.445-6.696
					c2.653-3.303,8.159-5.266,8.159-5.266S34.161,22.415,31.509,25.717z"/>
				<path fill="#84B234" d="M24.163,21.385c-0.046,4.656,1.182,6.885,2.718,7.234c1.535,0.35,2.801-1.313,2.846-5.969
					c0.044-4.657-2.684-10.892-2.684-10.892S24.208,16.729,24.163,21.385z"/>
				<path fill="#84B234" d="M20.396,20.909c1.291,4.775,3.029,6.703,4.51,6.621c1.479-0.083,2.139-2.145,0.848-6.919
					c-1.295-4.775-5.527-10.37-5.527-10.37S19.104,16.135,20.396,20.909z"/>
			</g>
		</g>
	</g>
	<path fill="#8CC63E" d="M29.788,22.538c-1.119-2.154-3.348-3.82-3.348-3.82s-0.758,1.684-1.186,3.634
		c-2.123-0.919-5.643-2.74-5.643-2.74s1.82,3.521,2.741,5.643c-1.951,0.428-3.634,1.185-3.634,1.185s1.666,2.228,3.819,3.347
		c-1.649,2.323-2.462,5.478-2.462,5.478s6.226-1.841,9.785-5.402c3.562-3.562,5.403-9.787,5.403-9.787S32.111,20.889,29.788,22.538z
		"/>
</g>
</svg>
