<?xml version="1.0" encoding="utf-8"?>
<!-- Generator: Adobe Illustrator 15.0.0, SVG Export Plug-In . SVG Version: 6.00 Build 0)  -->
<!DOCTYPE svg PUBLIC "-//W3C//DTD SVG 1.1//EN" "http://www.w3.org/Graphics/SVG/1.1/DTD/svg11.dtd">
<svg version="1.1" id="Layer_1" xmlns="http://www.w3.org/2000/svg" xmlns:xlink="http://www.w3.org/1999/xlink" x="0px" y="0px"
	 width="64px" height="64px" viewBox="0 0 64 64" enable-background="new 0 0 64 64" xml:space="preserve">
<g>
	<circle fill="#4BAE42" cx="32" cy="31" r="2.79"/>
	<g>
		<g>
			<g>
				<path fill="#4BAE42" d="M4.237,39.995c-5.795,9.806,4.214,12.814,8.708,9.52c-3.322,4.979-0.071,14.423,9.522,8.703
					c10.686-6.372,7.826-24.547,8.328-26.552C29.045,31.912,10.472,29.45,4.237,39.995z"/>
			</g>
			<g>
				<path fill="#46A03C" d="M12.945,49.514c1.373-1.602,2.806-3.142,4.25-4.674c1.437-1.538,2.917-3.032,4.398-4.527
					c1.493-1.481,2.988-2.961,4.525-4.398l2.309-2.154c0.79-0.697,1.56-1.413,2.366-2.095c-0.68,0.806-1.397,1.576-2.095,2.367
					l-2.153,2.308c-1.437,1.537-2.918,3.033-4.398,4.525c-1.495,1.48-2.989,2.962-4.527,4.398
					C16.087,46.706,14.547,48.14,12.945,49.514z"/>
			</g>
		</g>
		<g>
			<g>
				<g>
					<path fill="#4BAE42" d="M59.762,22.005c5.795-9.805-4.214-12.815-8.708-9.52c3.322-4.979,0.07-14.423-9.522-8.702
						c-10.687,6.371-7.826,24.544-8.328,26.551C34.954,30.089,53.526,32.549,59.762,22.005z"/>
				</g>
			</g>
			<g>
				<path fill="#46A03C" d="M51.054,12.485c-1.374,1.602-2.807,3.143-4.251,4.674c-1.436,1.538-2.917,3.033-4.397,4.527
					c-1.493,1.48-2.987,2.961-4.525,4.398l-2.309,2.153c-0.789,0.699-1.561,1.416-2.366,2.097c0.681-0.807,1.397-1.577,2.095-2.367
					l2.154-2.309c1.438-1.538,2.917-3.032,4.398-4.526c1.495-1.48,2.989-2.96,4.527-4.397
					C47.912,15.293,49.453,13.858,51.054,12.485z"/>
			</g>
		</g>
		<g>
			<g>
				<g>
					<path fill="#4EBD3B" d="M22.465,3.778C12.66-2.017,9.65,7.992,12.944,12.486c-4.979-3.322-14.422-0.07-8.702,9.523
						c6.37,10.685,24.545,7.827,26.55,8.327C30.547,28.585,33.01,10.013,22.465,3.778z"/>
				</g>
			</g>
			<g>
				<path fill="#46A03C" d="M12.945,12.486c1.602,1.374,3.142,2.807,4.674,4.25c1.538,1.437,3.032,2.917,4.527,4.397
					c1.481,1.494,2.961,2.989,4.399,4.526l2.153,2.308c0.697,0.79,1.415,1.561,2.095,2.367c-0.807-0.681-1.577-1.398-2.366-2.095
					l-2.309-2.153c-1.538-1.438-3.032-2.918-4.526-4.399c-1.48-1.495-2.961-2.989-4.398-4.527
					C15.753,15.628,14.319,14.087,12.945,12.486z"/>
			</g>
		</g>
		<g>
			<g>
				<path fill="#4EBD3B" d="M41.535,58.222c9.805,5.796,12.814-4.214,9.52-8.708c4.979,3.323,14.423,0.071,8.703-9.522
					c-6.371-10.685-24.545-7.826-26.551-8.326C33.452,33.414,30.99,51.986,41.535,58.222z"/>
			</g>
			<g>
				<path fill="#46A03C" d="M51.054,49.514c-1.601-1.373-3.142-2.807-4.674-4.25c-1.538-1.437-3.032-2.918-4.527-4.397
					c-1.481-1.493-2.96-2.988-4.398-4.526L35.3,34.032c-0.697-0.791-1.414-1.562-2.095-2.367c0.806,0.682,1.577,1.397,2.366,2.095
					l2.309,2.154c1.538,1.438,3.032,2.918,4.525,4.398c1.48,1.495,2.962,2.989,4.397,4.527
					C48.247,46.372,49.68,47.912,51.054,49.514z"/>
			</g>
		</g>
	</g>
	<g>
		<path fill="#309126" d="M32,35.385l2.5,24.614c0.141,1.381-0.865,2.613-2.246,2.754s-2.614-0.865-2.754-2.246
			c-0.017-0.167-0.015-0.347,0-0.508L32,35.385z"/>
	</g>
</g>
</svg>
