<?xml version="1.0" encoding="utf-8"?>
<!-- Generator: Adobe Illustrator 15.0.0, SVG Export Plug-In . SVG Version: 6.00 Build 0)  -->
<!DOCTYPE svg PUBLIC "-//W3C//DTD SVG 1.1//EN" "http://www.w3.org/Graphics/SVG/1.1/DTD/svg11.dtd">
<svg version="1.1" id="Layer_1" xmlns="http://www.w3.org/2000/svg" xmlns:xlink="http://www.w3.org/1999/xlink" x="0px" y="0px"
	 width="64px" height="64px" viewBox="0 0 64 64" enable-background="new 0 0 64 64" xml:space="preserve">
<g>
	<path fill="#FFD93B" d="M56.541,31.346c0.014-0.452,0.113-0.888,0.277-1.307c-1.869-1.109-3.032-2.708-2.983-4.459
		c0.079-2.823,3.271-5.08,7.407-5.459c1.006-9.474,0.721-17.084,0.721-17.084S24.876,1.727,11.425,14.73
		c-0.238,0.229-0.44,0.447-0.668,0.672c1.982,1.227,3.278,3.225,3.278,5.489c0,3.733-3.511,6.759-7.841,6.759
		c-1.292,0-2.508-0.274-3.583-0.751c-3.897,11.734,12.013,15.14,15.508,18.518c4.484,4.335,9.014,28.442,31.747,6.47
		C54,47.89,56.732,41.732,58.539,35.123C57.258,34.082,56.502,32.764,56.541,31.346z"/>
	<polygon fill="#DB9523" points="24.527,40.89 29.1,36.267 48.081,48.04 29.828,35.532 37.395,27.878 54.422,35.407 38.149,27.117 
		45.242,19.942 58.123,19.29 46.235,18.94 61.963,3.037 45.51,18.24 45.146,6.748 44.473,19.198 37.052,26.056 28.473,10.325 
		36.263,26.784 28.345,34.099 15.403,16.456 27.585,34.802 22.802,39.221 9.926,31.596 22.058,39.908 9.631,51.392 11.937,53.62 
		23.817,41.607 32.416,53.336 	"/>
</g>
</svg>
