<?xml version="1.0" encoding="utf-8"?>
<!-- Generator: Adobe Illustrator 15.0.0, SVG Export Plug-In . SVG Version: 6.00 Build 0)  -->
<!DOCTYPE svg PUBLIC "-//W3C//DTD SVG 1.1//EN" "http://www.w3.org/Graphics/SVG/1.1/DTD/svg11.dtd">
<svg version="1.1" id="Layer_1" xmlns="http://www.w3.org/2000/svg" xmlns:xlink="http://www.w3.org/1999/xlink" x="0px" y="0px"
	 width="64px" height="64px" viewBox="0 0 64 64" enable-background="new 0 0 64 64" xml:space="preserve">
<g>
	<path fill-rule="evenodd" clip-rule="evenodd" fill="#83BF4F" d="M31.434,4.901c1.127,2.467-0.53,10.864-0.53,10.864
		s-7.52-4.425-8.646-6.89c-1.128-2.466,0.012-5.354,2.545-6.452C27.339,1.326,30.307,2.436,31.434,4.901z"/>
	<g>
		<path fill="#947151" d="M33.313,16.304h-2.625c0-4.258,2.395-11.594,12.02-11.594v2.554C33.957,7.264,33.313,15.452,33.313,16.304
			z"/>
	</g>
	<path fill-rule="evenodd" clip-rule="evenodd" fill="#EF4D3C" d="M32,15.839C24.742,8.395,3,8.071,3,29.318
		C3,42.748,18.782,62,25.668,62c3.125,0,4.25-1.953,6.063-1.953c1.844,0,2.438,1.95,6.436,1.95C45.059,61.997,61,42.81,61,29.318
		C61,8.071,39.258,8.395,32,15.839z"/>
</g>
</svg>
