<?xml version="1.0" encoding="utf-8"?>
<!-- Generator: Adobe Illustrator 15.0.0, SVG Export Plug-In . SVG Version: 6.00 Build 0)  -->
<!DOCTYPE svg PUBLIC "-//W3C//DTD SVG 1.1//EN" "http://www.w3.org/Graphics/SVG/1.1/DTD/svg11.dtd">
<svg version="1.1" id="Layer_1" xmlns="http://www.w3.org/2000/svg" xmlns:xlink="http://www.w3.org/1999/xlink" x="0px" y="0px"
	 width="64px" height="64px" viewBox="0 0 64 64" enable-background="new 0 0 64 64" xml:space="preserve">
<path fill-rule="evenodd" clip-rule="evenodd" fill="#77A836" d="M28.154,4.645c-7.223-3.253-12.233,6.863-12.233,6.863
	s2.059,4.738,5.326,5.733c11.559,3.522,21.64-12.006,21.64-12.006S35.282,7.857,28.154,4.645z"/>
<path fill="#947151" d="M8.98,7.877C8.594,7.831,8.474,9.33,8.854,9.411c6.366,1.367,8.985,6.131,9.194,7.01
	c0.293,1.232,2.094-0.09,1.48-1.564C19.401,14.551,15.663,8.688,8.98,7.877z"/>
<path fill="#64892F" d="M57.822,57.841c0.268,0.277,1.521,0.604,2.1,0.006c0.575-0.598,0.261-1.896-0.006-2.172
	c-0.268-0.278-0.953-0.017-1.531,0.581C57.807,56.855,57.556,57.563,57.822,57.841z"/>
<path fill="#FFE62E" d="M17.285,19.061c-0.513-0.697,0.138-2.346,1.521-3.778c1.386-1.432,2.976-2.104,3.651-1.576
	c8.393-5.444,21.216-2.908,30.42,6.621c8.225,8.516,11.051,20.022,7.812,28.579c1.63,2.101,1.054,5.688-1.438,8.266
	c-2.494,2.584-5.965,3.179-7.993,1.481c-8.262,3.339-19.361,0.41-27.578-8.097C14.475,41.027,12.026,27.754,17.285,19.061z"/>
<g>
	<path fill-rule="evenodd" clip-rule="evenodd" fill="#8CC63E" d="M18.669,16.101c-1.458-4.199-7.623-6.609-7.623-6.609
		s-12.618,7.113-8.05,16.339C7.507,34.936,4.601,45,4.601,45S23.833,30.962,18.669,16.101z"/>
	<path fill="#7FB539" d="M11.046,9.491c-0.899,1.158-1.663,2.472-2.291,3.884c-0.599,1.428-1.011,2.975-1.234,4.553
		c-0.446,3.183-0.047,6.342,0.176,9.385c0.268,3.05,0.304,6.099-0.218,9.092C6.97,39.398,5.897,42.268,4.601,45
		c0.828-1.23,1.542-2.569,2.181-3.963c0.603-1.412,1.101-2.898,1.458-4.44c0.731-3.085,0.715-6.334,0.466-9.425
		c-0.256-3.098-0.661-6.125-0.416-9.144C8.521,15.006,9.575,12.103,11.046,9.491z"/>
</g>
</svg>
