<?xml version="1.0" encoding="utf-8"?>
<!-- Generator: Adobe Illustrator 15.0.0, SVG Export Plug-In . SVG Version: 6.00 Build 0)  -->
<!DOCTYPE svg PUBLIC "-//W3C//DTD SVG 1.1//EN" "http://www.w3.org/Graphics/SVG/1.1/DTD/svg11.dtd">
<svg version="1.1" id="Layer_1" xmlns="http://www.w3.org/2000/svg" xmlns:xlink="http://www.w3.org/1999/xlink" x="0px" y="0px"
	 width="64px" height="64px" viewBox="0 0 64 64" enable-background="new 0 0 64 64" xml:space="preserve">
<g>
	<path fill="#FF8E66" d="M59.282,33.605c-1.078-0.474-1.128-1.445-1.018-2.103l2.576-9.136l-8.684,1.817
		c-0.301,0.04-1.134-0.025-1.559-1.738l-0.77-3.11l-6.02,6.959c0,0-3.901,4.259-2.68-2.242l2.617-13.89L38.91,12.58
		c-0.276,0.108-1.229,0.245-2.493-2.161L32,2l-4.417,8.419c-1.264,2.406-2.217,2.27-2.493,2.161l-4.833-2.417l2.613,13.89
		c1.222,6.501-2.68,2.242-2.68,2.242l-6.02-6.959l-0.77,3.11c-0.425,1.713-1.253,1.778-1.559,1.738l-8.684-1.817l2.576,9.136
		c0.11,0.657,0.061,1.629-1.018,2.103L2,34.805c0,0,9.963,8.008,13.228,10.742c0.637,0.527,2.176,2.076,1.645,3.738l-1.163,3.633
		l13.633-2.084c0.703-0.061,4.619-0.061,5.316,0l13.633,2.084l-1.163-3.633c-0.533-1.662,1.008-3.211,1.645-3.738
		C52.037,42.813,62,34.805,62,34.805L59.282,33.605z"/>
	<path fill="#C65C3C" d="M56.752,35.528c-1.764,0.138-3.53,0.23-5.298,0.306c-2.915,0.122-5.834,0.188-8.751,0.227
		c1.263-0.943,2.531-1.881,3.803-2.814l7.264-5.313l3.609-2.69c1.182-0.922,2.409-1.803,3.462-2.876
		c-1.107,1.011-2.378,1.819-3.607,2.673l-3.749,2.482l-7.206,4.68c0.474-1.949,0.952-3.897,1.458-5.839l0.958-3.541
		c0.344-1.173,0.663-2.356,1.135-3.486c-0.549,1.097-0.949,2.261-1.372,3.409l-1.2,3.476c-0.754,2.251-1.479,4.509-2.19,6.775
		c-2.223,1.452-4.44,2.913-6.636,4.421c-1.24,0.854-2.475,1.72-3.69,2.63c-0.598,0.449-1.189,0.908-1.774,1.395l-0.36-13.862
		c1.357-3.095,3.03-6.052,4.875-8.903c1.918-2.95,4.009-5.797,6.263-8.513c-2.38,2.606-4.608,5.357-6.675,8.23
		c-1.64,2.288-3.17,4.669-4.516,7.158L32,4.289l-0.553,21.263c-1.346-2.489-2.876-4.87-4.516-7.158
		c-2.066-2.873-4.295-5.624-6.675-8.23c2.254,2.716,4.345,5.563,6.263,8.513c1.845,2.852,3.518,5.809,4.875,8.903l-0.36,13.862
		c-0.585-0.486-1.177-0.945-1.774-1.395c-1.216-0.91-2.45-1.775-3.69-2.63c-2.195-1.508-4.413-2.969-6.636-4.421
		c-0.711-2.267-1.437-4.524-2.19-6.775l-1.2-3.476c-0.423-1.148-0.823-2.313-1.372-3.409c0.472,1.13,0.791,2.313,1.135,3.486
		l0.958,3.541c0.506,1.941,0.984,3.89,1.458,5.839l-7.206-4.68L6.767,25.04c-1.229-0.854-2.5-1.662-3.607-2.673
		c1.053,1.073,2.28,1.954,3.462,2.876l3.609,2.69l7.264,5.313c1.271,0.934,2.54,1.871,3.803,2.814
		c-2.917-0.039-5.836-0.104-8.751-0.227c-1.768-0.075-3.534-0.168-5.298-0.306C5.49,35.372,3.715,35.25,2,34.805
		c1.695,0.526,3.47,0.732,5.223,0.973c1.76,0.221,3.524,0.397,5.29,0.556c3.362,0.299,6.728,0.532,10.1,0.725
		c0.692,0.523,1.388,1.042,2.073,1.571c1.119,0.865,2.229,1.744,3.308,2.643c-1.923,1.873-3.749,3.805-5.636,5.688
		c-1.052,1.055-2.113,2.102-3.204,3.115c-1.096,1.01-2.206,2.008-3.444,2.844c1.284-0.766,2.455-1.707,3.609-2.654
		c1.15-0.955,2.271-1.945,3.384-2.941c2.018-1.801,3.987-3.666,6.014-5.426c0.375,0.322,0.754,0.645,1.109,0.975
		c0.417,0.396,0.829,0.801,1.141,1.197L30.5,62h3l-0.466-17.932c0.312-0.396,0.724-0.801,1.141-1.197
		c0.355-0.33,0.734-0.652,1.109-0.975c2.026,1.76,3.996,3.625,6.014,5.426c1.112,0.996,2.233,1.986,3.384,2.941
		c1.154,0.947,2.325,1.889,3.609,2.654c-1.238-0.836-2.349-1.834-3.444-2.844c-1.091-1.014-2.152-2.061-3.204-3.115
		c-1.887-1.883-3.713-3.814-5.636-5.688c1.079-0.898,2.188-1.777,3.308-2.643c0.686-0.529,1.381-1.048,2.073-1.571
		c3.372-0.192,6.737-0.426,10.1-0.725c1.766-0.158,3.53-0.335,5.29-0.556c1.753-0.24,3.527-0.446,5.223-0.973
		C60.285,35.25,58.51,35.372,56.752,35.528z"/>
</g>
</svg>
