<?xml version="1.0" encoding="utf-8"?>
<!-- Generator: Adobe Illustrator 15.0.0, SVG Export Plug-In . SVG Version: 6.00 Build 0)  -->
<!DOCTYPE svg PUBLIC "-//W3C//DTD SVG 1.1//EN" "http://www.w3.org/Graphics/SVG/1.1/DTD/svg11.dtd">
<svg version="1.1" id="Layer_1" xmlns="http://www.w3.org/2000/svg" xmlns:xlink="http://www.w3.org/1999/xlink" x="0px" y="0px"
	 width="64px" height="64px" viewBox="0 0 64 64" enable-background="new 0 0 64 64" xml:space="preserve">
<g>
	<path fill="#E84D88" d="M54.711,13.662c-3.158-3.103-6.984-5.783-10.738-7.79C43.789,11.439,38.506,15.906,32,15.906
		c-6.505,0-11.787-4.467-11.973-10.033c-3.752,2.007-7.58,4.687-10.738,7.79c2.083,3.282,1.128,8.832-2.326,12.819
		c-1.486,1.717-3.208,2.87-4.904,3.436C2.993,47.414,16.038,46.724,32,46.724c15.963,0,29.008,0.69,29.942-16.807
		c-1.697-0.566-3.418-1.718-4.904-3.436C53.584,22.494,52.629,16.944,54.711,13.662z"/>
	<path fill="#FDEEFF" d="M32,15.906c6.506,0,11.79-4.467,11.973-10.033C39.428,3.442,34.994,2,32,2
		c-2.994,0-7.428,1.442-11.973,3.873C20.212,11.439,25.495,15.906,32,15.906z"/>
	<path fill="#FDEEFF" d="M9.289,13.662C5.038,17.836,2,22.771,2,27.851c0,0.719,0.023,1.402,0.059,2.066
		c1.696-0.566,3.417-1.718,4.904-3.436C10.417,22.494,11.372,16.944,9.289,13.662z"/>
	<path fill="#FDEEFF" d="M54.711,13.662c-2.082,3.282-1.127,8.832,2.326,12.819c1.486,1.717,3.207,2.87,4.904,3.436
		C61.977,29.253,62,28.569,62,27.851C62,22.771,58.963,17.836,54.711,13.662z"/>
	<path fill="#A52355" d="M50,41.53c0,4.283-8.059,5.196-18,5.196c-9.941,0-18-0.913-18-5.196c0-4.187,8.609-8.062,18-8.062
		C41.391,33.469,50,37.344,50,41.53z"/>
	<path fill="#E2CCAF" d="M47,64H17c0,0,2.82-8.25,3.687-14.874C21.682,41.52,22.21,35.237,32,35.237
		c9.792,0,10.319,6.281,11.315,13.89C44.182,55.75,47,64,47,64z"/>
</g>
</svg>
