<?xml version="1.0" encoding="utf-8"?>
<!-- Generator: Adobe Illustrator 15.0.0, SVG Export Plug-In . SVG Version: 6.00 Build 0)  -->
<!DOCTYPE svg PUBLIC "-//W3C//DTD SVG 1.1//EN" "http://www.w3.org/Graphics/SVG/1.1/DTD/svg11.dtd">
<svg version="1.1" id="Layer_1" xmlns="http://www.w3.org/2000/svg" xmlns:xlink="http://www.w3.org/1999/xlink" x="0px" y="0px"
	 width="64px" height="64px" viewBox="0 0 64 64" enable-background="new 0 0 64 64" xml:space="preserve">
<g>
	<path fill="#FF5555" d="M2.098,50.285c16.181,15.627,43.56,15.627,59.806-0.063L31.967,2L2.098,50.285z"/>
	<path fill="#CEFF80" d="M5.958,44.046l-1.125,1.551c11.849,10.399,36.891,14.502,54.325-0.074l-1.119-1.526
		C42.865,55.475,21.084,55.475,5.958,44.046z"/>
	<path fill="#8CC63E" d="M4.852,45.579L2,50.196c16.199,15.748,43.734,15.748,60-0.064l-2.842-4.608
		C43.664,57.981,20.301,57.984,4.852,45.579z"/>
	<path fill-rule="evenodd" clip-rule="evenodd" fill="#3E4347" d="M16.007,38.545c-0.016-1.293,2.352-4.605,2.352-4.605
		s2.455,3.425,2.471,4.72c0.018,1.296-1.049,2.319-2.381,2.288C17.116,40.916,16.023,39.839,16.007,38.545z"/>
	<path fill-rule="evenodd" clip-rule="evenodd" fill="#3E4347" d="M28.422,43.12c-0.016-1.293,2.352-4.605,2.352-4.605
		s2.455,3.425,2.471,4.72c0.018,1.296-1.049,2.32-2.381,2.288C29.529,45.491,28.438,44.414,28.422,43.12z"/>
	<path fill-rule="evenodd" clip-rule="evenodd" fill="#3E4347" d="M36.514,31.536c-0.016-1.293,2.354-4.605,2.354-4.605
		s2.455,3.425,2.471,4.72c0.018,1.296-1.049,2.32-2.381,2.288C37.623,33.907,36.529,32.83,36.514,31.536z"/>
	<path fill-rule="evenodd" clip-rule="evenodd" fill="#3E4347" d="M44.727,42.471c-0.016-1.293,2.352-4.605,2.352-4.605
		s2.455,3.424,2.471,4.719c0.018,1.296-1.049,2.32-2.381,2.289C45.834,44.842,44.742,43.765,44.727,42.471z"/>
	<path fill-rule="evenodd" clip-rule="evenodd" fill="#3E4347" d="M27.172,20.878c-0.016-1.293,2.352-4.605,2.352-4.605
		s2.455,3.425,2.471,4.72c0.018,1.295-1.049,2.319-2.381,2.288C28.279,23.249,27.188,22.172,27.172,20.878z"/>
	<g>
		<g>
			<path fill="#64892F" d="M28.227,54.722v7.122c2.51,0.205,5.037,0.204,7.547-0.009v-7.121
				C33.264,54.926,30.736,54.93,28.227,54.722z"/>
			<path fill="#64892F" d="M10.552,49.405L8.37,55.237c2.141,1.37,4.396,2.525,6.729,3.479l2.338-6.244
				C15.062,51.658,12.757,50.634,10.552,49.405z"/>
			<path fill="#64892F" d="M53.436,49.371c-2.205,1.23-4.51,2.258-6.881,3.074l2.334,6.234c2.33-0.957,4.586-2.116,6.727-3.488
				L53.436,49.371z"/>
		</g>
	</g>
</g>
</svg>
