<?xml version="1.0" encoding="utf-8"?>
<!-- Generator: Adobe Illustrator 15.0.0, SVG Export Plug-In . SVG Version: 6.00 Build 0)  -->
<!DOCTYPE svg PUBLIC "-//W3C//DTD SVG 1.1//EN" "http://www.w3.org/Graphics/SVG/1.1/DTD/svg11.dtd">
<svg version="1.1" id="Layer_1" xmlns="http://www.w3.org/2000/svg" xmlns:xlink="http://www.w3.org/1999/xlink" x="0px" y="0px"
	 width="64px" height="64px" viewBox="0 0 64 64" enable-background="new 0 0 64 64" xml:space="preserve">
<g>
	<g>
		<path fill="#628C2C" d="M30.187,11.5l0.187-1.214c0.034,0.018,3.63,2.104,7.816,0.709l0.245,0.78
			C33.916,13.281,30.336,11.582,30.187,11.5z"/>
	</g>
	<ellipse fill-rule="evenodd" clip-rule="evenodd" fill="#F29A2E" cx="27.881" cy="38.113" rx="25.881" ry="23.887"/>
	<path fill-rule="evenodd" clip-rule="evenodd" fill="#7FB539" d="M21.957,18.891c0.172-1.196,4.674-0.553,4.674-0.553
		s-0.194-2.979,0.566-3.167c0.85-0.21,2.131,2.849,2.131,2.849s3.646-1.44,4.091-0.485c0.384,0.825-2.531,2.569-2.531,2.569
		s3.814,3.056,3.049,4.071c-0.82,1.088-4.921-2.169-4.921-2.169s-2.563,4.396-3.715,3.769c-1.095-0.597,0.896-5.011,0.896-5.011
		S21.791,20.064,21.957,18.891z"/>
	<g>
		<g>
			<polyline fill="#FFC44A" points="18.618,29.098 17.843,29.894 18.618,30.689 19.393,29.894 18.618,29.098 			"/>
			<polyline fill="#FFC44A" points="12.6,28.639 11.826,29.436 12.6,30.23 13.375,29.436 12.6,28.639 			"/>
			<polyline fill="#FFC44A" points="7.757,28.639 6.982,29.435 7.757,30.23 8.531,29.435 7.757,28.639 			"/>
		</g>
		<g>
			<polyline fill="#FFC44A" points="21.953,32.438 21.178,33.234 21.953,34.03 22.727,33.234 21.953,32.438 			"/>
			<polyline fill="#FFC44A" points="18.618,36.521 17.843,37.318 18.618,38.113 19.393,37.318 18.618,36.521 			"/>
			<polyline fill="#FFC44A" points="13.375,36.521 12.6,37.318 13.375,38.113 14.149,37.318 13.375,36.521 			"/>
			<polyline fill="#FFC44A" points="7.382,36.961 6.607,37.756 7.382,38.553 8.156,37.756 7.382,36.961 			"/>
		</g>
		<g>
			<polyline fill="#FFC44A" points="15.996,32.631 15.221,33.428 15.996,34.223 16.77,33.428 15.996,32.631 			"/>
			<polyline fill="#FFC44A" points="10.752,32.631 9.978,33.428 10.752,34.223 11.527,33.428 10.752,32.631 			"/>
			<polyline fill="#FFC44A" points="5.51,32.631 4.735,33.427 5.51,34.223 6.284,33.427 5.51,32.631 			"/>
		</g>
		<g>
			<polyline fill="#FFC44A" points="21.406,25.564 20.631,26.36 21.406,27.156 22.18,26.36 21.406,25.564 			"/>
			<polyline fill="#FFC44A" points="15.623,25.564 14.848,26.359 15.623,27.156 16.397,26.359 15.623,25.564 			"/>
			<polyline fill="#FFC44A" points="9.978,24.768 9.204,25.564 9.978,26.36 10.752,25.564 9.978,24.768 			"/>
		</g>
		<g>
			<polyline fill="#FFC44A" points="19.205,22.494 18.43,23.29 19.205,24.085 19.979,23.29 19.205,22.494 			"/>
			<polyline fill="#FFC44A" points="17.005,19.49 16.23,20.286 17.005,21.082 17.779,20.286 17.005,19.49 			"/>
			<polyline fill="#FFC44A" points="13.375,21.697 12.6,22.494 13.375,23.29 14.149,22.494 13.375,21.697 			"/>
		</g>
		<g>
			<polyline fill="#FFC44A" points="15.996,40.515 15.221,41.311 15.996,42.106 16.77,41.311 15.996,40.515 			"/>
			<polyline fill="#FFC44A" points="10.46,40.514 9.686,41.311 10.46,42.106 11.235,41.311 10.46,40.514 			"/>
		</g>
	</g>
	<path fill-rule="evenodd" clip-rule="evenodd" fill="#8CC63E" d="M47.41,6.184C53.891,11.589,62,10.085,62,10.085
		s-13.14,16.486-23.98,9.747C27.838,13.499,38.02-1.647,47.41,6.184z"/>
	<path fill="#628C2C" d="M30.498,2.842l-1.875,0.917c2.938,9.327-0.676,14.513-1.549,15.359c-1.225,1.188,1.609,2.332,2.884,0.612
		C30.223,19.374,33.95,13.8,30.498,2.842z"/>
	<ellipse fill="#8CC63E" cx="29.573" cy="3.345" rx="0.999" ry="1.344"/>
	<path fill="#7FB539" d="M33.84,11.784c1.002-0.707,2.106-1.269,3.271-1.687c1.174-0.392,2.416-0.589,3.66-0.604
		c2.508-0.028,4.896,0.743,7.217,1.333c2.319,0.631,4.665,1.045,7.037,0.923c2.371-0.114,4.711-0.773,6.975-1.664
		c-1.049,0.632-2.166,1.142-3.318,1.574c-1.162,0.397-2.368,0.687-3.598,0.832c-2.469,0.309-4.973-0.107-7.327-0.728
		c-2.358-0.627-4.645-1.387-7.003-1.529C38.396,10.076,36.031,10.715,33.84,11.784z"/>
</g>
</svg>
