<?xml version="1.0" encoding="utf-8"?>
<!-- Generator: Adobe Illustrator 15.0.0, SVG Export Plug-In . SVG Version: 6.00 Build 0)  -->
<!DOCTYPE svg PUBLIC "-//W3C//DTD SVG 1.1//EN" "http://www.w3.org/Graphics/SVG/1.1/DTD/svg11.dtd">
<svg version="1.1" id="Layer_1" xmlns="http://www.w3.org/2000/svg" xmlns:xlink="http://www.w3.org/1999/xlink" x="0px" y="0px"
	 width="64px" height="64px" viewBox="0 0 64 64" enable-background="new 0 0 64 64" xml:space="preserve">
<g>
	<path fill="#7A2D77" d="M53.365,34.431c-7.638-9.102-19.516-10.328-30.587-21.122C16.095,6.793,4.266,19.703,7.52,25.875
		c4.303,8.164,14.191,23.901,23.145,30.817C49.684,71.384,68.783,52.808,53.365,34.431z"/>
	<path opacity="0.15" enable-background="new    " d="M10.002,27.877c2.175-2.632,1.588-6.941,1.588-6.941s1.651,2.014,4.207,2.043
		l0.186-4.439c0,0,3.779-0.141,7.07-3.845l-11.172-0.354l-3.94,6.363L10.002,27.877z"/>
	<g>
		<path fill="#83B730" d="M10.924,12.473L9.992,14.13C7.551,12.464,4.193,8.08,7.611,2.003l1.464,0.999
			C5.971,8.528,10.434,12.139,10.924,12.473z"/>
	</g>
	<path fill="#83B730" d="M17.234,16.208c3.83,0.418,7.336-2.552,7.336-2.552s-2.704-3.646-6.531-4.067
		c-3.83-0.421-7.115,0.722-7.339,2.547C10.479,13.962,13.4,15.786,17.234,16.208z"/>
	<path fill="#83B730" d="M5.062,20.223c-0.477,3.957,1.975,7.479,1.975,7.479s3.228-2.898,3.712-6.856
		c0.484-3.957-0.402-7.306-1.969-7.48C7.209,13.198,5.55,16.265,5.062,20.223z"/>
	<path fill="#8CC63E" d="M8.668,17.972c2.545,3.541,7.906,3.536,7.906,3.536s1.236-5.742-1.307-9.283
		C12.728,8.682,9.186,7.1,7.361,8.687C5.547,10.269,6.126,14.43,8.668,17.972z"/>
</g>
</svg>
