<?xml version="1.0" encoding="utf-8"?>
<!-- Generator: Adobe Illustrator 15.0.0, SVG Export Plug-In . SVG Version: 6.00 Build 0)  -->
<!DOCTYPE svg PUBLIC "-//W3C//DTD SVG 1.1//EN" "http://www.w3.org/Graphics/SVG/1.1/DTD/svg11.dtd">
<svg version="1.1" id="Layer_1" xmlns="http://www.w3.org/2000/svg" xmlns:xlink="http://www.w3.org/1999/xlink" x="0px" y="0px"
	 width="64px" height="64px" viewBox="0 0 64 64" enable-background="new 0 0 64 64" xml:space="preserve">
<g>
	<path fill-rule="evenodd" clip-rule="evenodd" fill="#64892F" d="M31.432,4.901c1.128,2.467-0.529,10.864-0.529,10.864
		s-7.52-4.425-8.646-6.89c-1.127-2.466,0.014-5.354,2.545-6.452C27.338,1.326,30.307,2.436,31.432,4.901z"/>
	<g>
		<path fill="#947151" d="M33.313,16.304h-2.625c0-4.258,2.394-11.594,12.02-11.594v2.554C33.956,7.264,33.313,15.452,33.313,16.304
			z"/>
	</g>
	<path fill-rule="evenodd" clip-rule="evenodd" fill="#8CC63E" d="M32,15.839C24.742,8.395,3,8.071,3,29.318
		c0,13.43,15.781,32.683,22.667,32.683c3.125,0,4.25-1.953,6.063-1.953c1.844,0,2.438,1.949,6.437,1.949
		C45.058,61.997,61,42.81,61,29.318C61,8.071,39.258,8.395,32,15.839z"/>
</g>
</svg>
