<?xml version="1.0" encoding="utf-8"?>
<!-- Generator: Adobe Illustrator 15.0.0, SVG Export Plug-In . SVG Version: 6.00 Build 0)  -->
<!DOCTYPE svg PUBLIC "-//W3C//DTD SVG 1.1//EN" "http://www.w3.org/Graphics/SVG/1.1/DTD/svg11.dtd">
<svg version="1.1" id="Layer_1" xmlns="http://www.w3.org/2000/svg" xmlns:xlink="http://www.w3.org/1999/xlink" x="0px" y="0px"
	 width="64px" height="64px" viewBox="0 0 64 64" enable-background="new 0 0 64 64" xml:space="preserve">
<g>
	<path fill="#FFC800" d="M24.45,42.517c-1.975,0.346-3.95,0.688-5.926,1.034c-2.43-13.918-2.43-28.15,0-42.067
		c1.975,0.352,3.947,0.702,5.922,1.054C22.142,15.764,22.142,29.289,24.45,42.517z"/>
	<path fill="#FFD41F" d="M29.951,42.532c1.975-0.311,3.95-0.622,5.925-0.938c-3.975-11.638-5.973-24.212-5.652-37.164
		c-2.037,0.726-4.066,1.507-6.089,2.343C24.146,19.203,26.174,31.271,29.951,42.532z"/>
	<path fill="#FFE62E" d="M16.382,39.547c1.969-0.344,3.938-0.688,5.904-1.03c-3.829-11.234-5.751-23.371-5.438-35.872
		c-2.088,0.962-4.162,1.995-6.222,3.1C10.765,17.501,12.767,28.902,16.382,39.547z"/>
	<path fill="#FFE62E" d="M39.92,42.029c1.884-0.328,3.769-0.657,5.651-0.986c0.982-11.596,4.076-22.415,8.75-31.976
		c-2.197-0.085-4.397-0.148-6.602-0.189C43.335,18.958,40.584,30.165,39.92,42.029z"/>
	<path fill="#FFE62E" d="M13.252,40.396c1.679-0.293,3.354-0.586,5.034-0.879c-4.93-7.228-8.703-15.89-10.676-25.601
		c-1.898,1.278-3.768,2.66-5.598,4.145C4.636,26.506,8.526,34.024,13.252,40.396z"/>
	<path fill="#FFE62E" d="M45.407,38.474c1.855-0.324,3.71-0.647,5.564-0.972c2.178-9.921,6.041-18.813,11.016-26.344
		c-1.719-1.019-3.418-2.091-5.096-3.215C51.418,16.708,47.356,27.037,45.407,38.474z"/>
	<path fill="#FFE62E" d="M38.42,42.517c-1.976,0.346-3.95,0.688-5.925,1.034c-2.317-13.276-2.317-26.854,0-40.133
		c1.974,0.353,3.947,0.703,5.922,1.055C36.224,17.06,36.224,29.931,38.42,42.517z"/>
	<path fill="#FFC800" d="M48.649,39.517c-1.976,0.346-3.95,0.688-5.926,1.034c-2.07-11.865-2.07-24.001,0-35.866
		c1.87,0.943,3.752,1.854,5.645,2.73C46.703,18.056,46.797,28.899,48.649,39.517z"/>
	<path fill="#FFE62E" d="M25.783,41.469c-1.97-0.375-3.939-0.752-5.908-1.127c1.972-10.332,1.972-20.942,0-31.273
		c2.243,1.062,4.469,2.23,6.667,3.511C27.854,22.176,27.603,31.935,25.783,41.469z"/>
	<path fill="#FFC800" d="M18.149,40.53c-1.916-0.365-3.832-0.731-5.748-1.098C11.187,27.6,7.593,16.755,2.349,7.476
		c2.301-0.188,4.604-0.354,6.91-0.497C14.185,16.952,17.354,28.327,18.149,40.53z"/>
	<path fill="#FFC800" d="M39.354,39.353c-1.463-0.278-2.927-0.559-4.39-0.838c7.423-7.128,13.693-16.741,17.546-28.331
		c1.764,1.277,3.497,2.645,5.196,4.1C53.06,24.52,46.636,32.978,39.354,39.353z"/>
	<path fill="#FFD41F" d="M40.581,38.104c-1.971,0.344-3.939,0.688-5.909,1.03c-0.448-10.229,0.929-20.229,3.892-29.553
		c1.596,1.47,3.228,2.867,4.893,4.192C41.285,21.513,40.274,29.717,40.581,38.104z"/>
	<path fill="#FFD41F" d="M21.815,35.638c-1.941,0.338-3.885,0.678-5.826,1.018c-3.598-6.618-6.11-14.23-7.109-22.502
		c2.087,0.663,4.182,1.299,6.281,1.907C16.231,23.276,18.571,29.894,21.815,35.638z"/>
	<path fill="#FFC800" d="M29.897,44.017c-1.924-0.47-3.846-1.004-5.76-1.604c-0.773-7.451-0.381-14.942,1.145-22.208
		c1.434,1.379,2.906,2.687,4.412,3.918C28.771,30.707,28.834,37.414,29.897,44.017z"/>
	<path fill="#FFD41F" d="M53.571,40.038c-1.735,0.304-3.473,0.605-5.209,0.909c1.719-8.844,5.074-16.758,9.494-23.393
		c1.285,1.367,2.613,2.66,3.979,3.878C58.226,26.76,55.345,33.029,53.571,40.038z"/>
	<path fill="#FFE62E" d="M40.233,41.633c-1.979-0.289-3.953-0.586-5.928-0.889c3.487-7.198,5.676-15.39,6.119-24.145
		c2.082,1.232,4.131,2.602,6.135,4.103C45.542,28.236,43.347,35.293,40.233,41.633z"/>
	<path fill="#FFE62E" d="M50.701,37.531c-1.38-0.162-2.757-0.331-4.134-0.509c2.66-5.727,4.283-12.199,4.539-19.079
		c1.449,0.975,2.869,2.04,4.256,3.194C54.663,27.013,53.045,32.538,50.701,37.531z"/>
	<path fill="#EF4D3C" d="M46.591,27.916c0,5.351-6.557,9.688-14.641,9.688c-8.082,0-14.639-4.338-14.639-9.688H4.206l4.529,30.101
		c8.672,6,37.762,6,46.434,0l4.527-30.101H46.591z"/>
	<g>
		<path fill="#AB2D1F" d="M33.088,55.715l-0.606,0.349c-0.063-0.133-0.189-0.228-0.34-0.228h-0.381
			c-0.148,0-0.277,0.095-0.339,0.228l-0.606-0.349l-1.457-0.834v1.668v1.668l1.457-0.834l0.606-0.349
			c0.062,0.135,0.188,0.229,0.339,0.229h0.381c0.147,0,0.278-0.094,0.34-0.229l0.606,0.349l1.455,0.834v-1.668v-1.668L33.088,55.715
			z"/>
		<path fill="#AB2D1F" d="M29.687,50.997c0.244,0.382,0.584,0.659,0.979,0.852c0.395,0.188,0.84,0.284,1.287,0.284
			c0.447-0.002,0.895-0.096,1.287-0.286c0.395-0.189,0.734-0.468,0.978-0.85c0.054,0.445-0.177,0.934-0.606,1.277
			c-0.424,0.35-1.041,0.554-1.657,0.552c-0.617,0.002-1.233-0.203-1.658-0.554C29.864,51.931,29.634,51.442,29.687,50.997z"/>
		<path fill="#AB2D1F" d="M38.397,46.54v-0.122c0-0.094-0.01-0.112-0.063-0.139c-0.089-0.046-0.182-0.089-0.275-0.121
			c-0.07-0.025-0.146-0.048-0.229-0.068c-0.979-2.278-3.242-3.875-5.881-3.875c-2.637,0-4.901,1.597-5.881,3.875
			c-0.082,0.021-0.158,0.043-0.229,0.068c-0.094,0.032-0.188,0.075-0.274,0.121c-0.053,0.026-0.063,0.045-0.063,0.139v0.122
			c0,0.229-0.026,0.141,0.136,0.234c0.055,0.031,0.104,0.07,0.147,0.119c-0.152,0.547-0.232,1.123-0.232,1.72
			c0,3.532,2.863,6.396,6.396,6.396c3.532,0,6.396-2.863,6.396-6.396c0-0.597-0.08-1.173-0.232-1.722
			c0.046-0.047,0.095-0.086,0.148-0.117C38.426,46.681,38.397,46.769,38.397,46.54z M31.951,42.972c2.151,0,4.022,1.204,4.973,2.977
			c-0.758-0.07-1.601-0.055-2.093-0.012c-0.792,0.067-1.453,0.246-1.993,0.522c-0.508,0.254-1.267,0.254-1.772,0
			c-0.541-0.276-1.203-0.455-1.994-0.522c-0.491-0.043-1.334-0.06-2.092,0.012C27.929,44.176,29.799,42.972,31.951,42.972z
			 M31.951,54.255c-3.115,0-5.644-2.525-5.644-5.642c0-0.044,0.002-0.084,0.002-0.128c0.199,0.755,0.646,1.242,1.313,1.494
			c0.716,0.27,1.519,0.26,2.229-0.024c0.391-0.155,0.732-0.401,1.004-0.801c0.477-0.699,0.332-1.138,0.578-1.738
			c0.215-0.522,0.816-0.522,1.031,0c0.244,0.603,0.104,1.039,0.578,1.738c0.271,0.399,0.614,0.646,1.004,0.801
			c0.711,0.284,1.514,0.294,2.23,0.024c0.668-0.252,1.113-0.739,1.313-1.494c0,0.041,0.002,0.084,0.002,0.128
			C37.594,51.728,35.065,54.255,31.951,54.255z"/>
	</g>
</g>
</svg>
