<?xml version="1.0" encoding="utf-8"?>
<!-- Generator: Adobe Illustrator 15.0.0, SVG Export Plug-In . SVG Version: 6.00 Build 0)  -->
<!DOCTYPE svg PUBLIC "-//W3C//DTD SVG 1.1//EN" "http://www.w3.org/Graphics/SVG/1.1/DTD/svg11.dtd">
<svg version="1.1" id="Layer_1" xmlns="http://www.w3.org/2000/svg" xmlns:xlink="http://www.w3.org/1999/xlink" x="0px" y="0px"
	 width="64px" height="64px" viewBox="0 0 64 64" enable-background="new 0 0 64 64" xml:space="preserve">
<g>
	<g>
		<g>
			<g>
				<path fill="#DDDDDD" d="M26.514,42.63l-5.66-5.168c0,0-6.32,6.437-8.082,6.652c-1.994,0.244-5.934-2.098-9.107,1.077
					c-2.219,2.219-2.219,5.813,0,8.032c1.547,1.545,3.76,2.011,5.712,1.403c-0.608,1.948-0.144,4.163,1.401,5.71
					c2.219,2.218,5.813,2.218,8.033,0.001c3.174-3.176,0.832-7.115,1.075-9.109C19.76,49.04,26.514,42.63,26.514,42.63z"/>
			</g>
			<g>
				<path fill="#DDDDDD" d="M42.63,26.513l-5.168-5.66c0,0,6.437-6.32,6.652-8.082c0.244-1.994-2.097-5.934,1.076-9.106
					c2.22-2.22,5.813-2.22,8.033,0c1.545,1.545,2.011,3.76,1.403,5.711c1.948-0.609,4.163-0.144,5.71,1.401
					c2.218,2.22,2.217,5.814,0,8.034c-3.175,3.173-7.114,0.832-9.108,1.075C49.04,19.759,42.63,26.513,42.63,26.513z"/>
			</g>
		</g>
		<path fill="#A86332" d="M31.874,10.63c-3.152,0.764-20.48,18.093-21.242,21.242c-1.186,4.886,16.612,22.681,21.496,21.495
			c3.146-0.762,20.476-18.09,21.241-21.241C54.553,27.244,36.757,9.445,31.874,10.63z"/>
		<g>
			<polyline fill="#E6B858" points="14.614,31.925 13.614,32.925 14.614,33.925 15.614,32.925 14.614,31.925 			"/>
			<polyline fill="#E6B858" points="17.948,33.301 16.948,34.301 17.948,35.301 18.948,34.301 17.948,33.301 			"/>
			<g>
				
					<rect x="36.909" y="19.102" transform="matrix(0.7071 -0.7071 0.7071 0.7071 -2.9898 32.4007)" fill="#E6B858" width="1.414" height="1.415"/>
				
					<rect x="33.307" y="14.112" transform="matrix(-0.707 -0.7072 0.7072 -0.707 47.9347 50.2045)" fill="#E6D0A3" width="2.121" height="2.121"/>
				
					<rect x="32.368" y="18.337" transform="matrix(-0.7069 -0.7073 0.7073 -0.7069 42.9872 55.9004)" fill="#E6B858" width="1.414" height="1.415"/>
				
					<rect x="31.161" y="12.966" transform="matrix(-0.7071 -0.7071 0.7071 -0.7071 44.7335 45.8745)" fill="#E6D0A3" width="1.414" height="1.414"/>
			</g>
			<g>
				
					<rect x="21.311" y="23.814" transform="matrix(-0.7073 0.7069 -0.7069 -0.7073 54.9257 26.2989)" fill="#E6D0A3" width="1.414" height="1.415"/>
				
					<rect x="24.457" y="27.598" transform="matrix(0.7071 0.7071 -0.7071 0.7071 27.7385 -9.6502)" fill="#E6B858" width="2.121" height="2.121"/>
				
					<rect x="27.311" y="29.451" transform="matrix(0.7069 0.7073 -0.7073 0.7069 29.5412 -10.9783)" fill="#E6B858" width="1.415" height="1.414"/>
			</g>
		</g>
		<g>
			<polyline fill="#804C26" points="44.195,38.811 43.195,39.811 44.195,40.811 45.195,39.811 44.195,38.811 			"/>
			<polyline fill="#804C26" points="40.945,40.061 39.445,41.561 40.945,43.061 42.445,41.561 40.945,40.061 			"/>
			<polyline fill="#804C26" points="39.213,36.089 38.213,37.089 39.213,38.089 40.213,37.089 39.213,36.089 			"/>
			<polyline fill="#804C26" points="30.782,47.373 29.282,48.873 30.782,50.373 32.282,48.873 30.782,47.373 			"/>
			<polyline fill="#804C26" points="28.548,42.901 27.549,43.901 28.549,44.901 29.549,43.901 28.548,42.901 			"/>
			<polyline fill="#804C26" points="27.855,46.447 26.855,47.447 27.855,48.447 28.855,47.447 27.855,46.447 			"/>
			<polyline fill="#804C26" points="47.518,29.21 46.518,30.21 47.518,31.21 48.518,30.21 47.518,29.21 			"/>
			<polyline fill="#804C26" points="50.637,29.943 49.637,30.942 50.637,31.943 51.637,30.943 50.637,29.943 			"/>
			<polyline fill="#804C26" points="42.945,35.561 41.945,36.561 42.945,37.561 43.945,36.561 42.945,35.561 			"/>
		</g>
		<polygon fill="#E6B858" points="49.803,37.481 22.92,17.792 24.471,16.241 50.66,36.623 		"/>
		<polygon fill="#E6B858" points="37.379,49.727 14.366,26.713 15.137,25.843 38.959,48.457 		"/>
		<polygon fill="#804C26" points="38.825,48.877 14.788,25.926 15.559,25.056 41.467,45.816 		"/>
		<polygon fill="#804C26" points="49.215,38.069 20.735,19.356 23.071,17.02 50.242,37.46 		"/>
	</g>
	<path opacity="0.4" fill="#FFFFFF" d="M11.649,59.833c-0.576-2.981,0.598-5.876,2.777-7.58c-0.061,0.009-0.121,0.004-0.182,0.016
		c-2.51,0.485-4.141,2.989-3.639,5.589c0.172,0.877,0.576,1.642,1.113,2.268C11.698,60.027,11.667,59.933,11.649,59.833z"/>
	<path opacity="0.4" fill="#FFFFFF" d="M3.959,50.903c-0.414-2.152,0.432-4.243,2.006-5.473c-0.043,0.007-0.086,0.003-0.131,0.011
		c-1.813,0.351-2.988,2.158-2.627,4.035c0.123,0.634,0.416,1.186,0.805,1.637C3.995,51.043,3.973,50.975,3.959,50.903z"/>
	<path opacity="0.4" fill="#FFFFFF" d="M59.84,11.411c-2.98-0.575-5.877,0.598-7.58,2.778c0.009-0.062,0.004-0.121,0.016-0.182
		c0.484-2.511,2.988-4.141,5.588-3.639c0.879,0.171,1.643,0.575,2.268,1.113C60.033,11.459,59.939,11.429,59.84,11.411z"/>
	<path opacity="0.4" fill="#FFFFFF" d="M50.91,3.722c-2.152-0.415-4.242,0.432-5.473,2.006c0.006-0.044,0.003-0.087,0.012-0.131
		c0.35-1.813,2.157-2.989,4.034-2.627c0.634,0.123,1.186,0.415,1.638,0.804C51.051,3.757,50.982,3.736,50.91,3.722z"/>
</g>
</svg>
