<?xml version="1.0" encoding="utf-8"?>
<!-- Generator: Adobe Illustrator 15.0.0, SVG Export Plug-In . SVG Version: 6.00 Build 0)  -->
<!DOCTYPE svg PUBLIC "-//W3C//DTD SVG 1.1//EN" "http://www.w3.org/Graphics/SVG/1.1/DTD/svg11.dtd">
<svg version="1.1" id="Layer_1" xmlns="http://www.w3.org/2000/svg" xmlns:xlink="http://www.w3.org/1999/xlink" x="0px" y="0px"
	 width="64px" height="64px" viewBox="0 0 64 64" enable-background="new 0 0 64 64" xml:space="preserve">
<g>
	<g>
		<path fill="#8E6244" d="M34.373,9.093c0-2.301-3.408-2.735-3.408-0.487c0,2.635-1.361,3.594-1.361,5.01
			c0,1.767,4.017,2.084,4.017,0.204C33.62,11.957,34.373,12.218,34.373,9.093z"/>
		<path fill="#A87451" d="M33.088,8.8c2.766,0-2.296-3.595-2.296-0.279c0,2.635-1.89,3.872-1.068,5.59
			C31.511,11.867,30.178,8.8,33.088,8.8z"/>
	</g>
	<path fill="#FF9463" d="M4.45,32.674C4.448,16.47,17.653,6.572,31.693,14.148C45.974,6.944,61.998,16.47,62,32.673
		c0,14.55-7.967,22.693-17.972,26.416c-3.616,1.346-10.378,2.978-14.246,2.909c-2.818-0.051-2.749-1.469-5.444-2.27
		C13.453,56.497,4.45,48.141,4.45,32.674z"/>
	<g>
		<path fill="#8CC63E" d="M32.433,8.34c-0.114,0-0.229-0.062-0.309-0.184c-1.995-2.979-3.935-2.295-3.935-2.295l-0.205-1.017
			c0,0,2.44-0.838,4.759,2.627c0.148,0.22,0.129,0.552-0.043,0.741C32.623,8.298,32.528,8.34,32.433,8.34z"/>
	</g>
	<path fill-rule="evenodd" clip-rule="evenodd" fill="#7FB539" d="M24.294,2.056C14.318,1.104,4.046,12.597,4.046,12.597
		s6.98-2.646,13.045-1.371c6.144,1.29,11.451-6.008,11.451-6.008S27.112,2.326,24.294,2.056z"/>
	<g>
		<path fill-rule="evenodd" clip-rule="evenodd" fill="#8CC63E" d="M14.998,10.015C9.804,17.014,2,21.033,2,21.033
			s14.858,1.539,23.912-8.849c2.556-2.935,2.63-7.128,2.63-7.128S20.263,2.924,14.998,10.015z"/>
		<path fill="#7FB539" d="M28.542,5.056c-1.046,0.198-2.164,0.541-3.316,1.002c-1.157,0.481-2.348,1.116-3.511,1.857
			c-2.345,1.494-4.451,3.373-6.522,5.107c-2.067,1.758-4.189,3.407-6.424,4.766C6.539,19.149,4.253,20.181,2,21.033
			c1.078-0.268,2.201-0.65,3.343-1.095c1.147-0.472,2.318-1.032,3.49-1.689c2.352-1.309,4.621-3.055,6.721-4.827
			c2.103-1.78,4.116-3.591,6.293-5.092C24.021,6.82,26.33,5.761,28.542,5.056z"/>
	</g>
	<path fill="#D97448" d="M40.48,33.873c0.423,3.576,0.253,7.13-0.701,10.508c-0.988,3.367-2.833,6.521-5.847,9.205
		c4.188-1.578,7.253-4.689,8.916-8.209c1.718-3.533,2.172-7.488,1.707-11.41c-0.485-3.926-1.879-7.88-4.269-11.54
		c-2.341-3.618-5.777-7.125-10.292-9.112c3.491,2.973,5.726,6.386,7.404,9.872C39.021,26.694,40.048,30.294,40.48,33.873z"/>
</g>
</svg>
