<?xml version="1.0" encoding="utf-8"?>
<!-- Generator: Adobe Illustrator 15.0.0, SVG Export Plug-In . SVG Version: 6.00 Build 0)  -->
<!DOCTYPE svg PUBLIC "-//W3C//DTD SVG 1.1//EN" "http://www.w3.org/Graphics/SVG/1.1/DTD/svg11.dtd">
<svg version="1.1" id="Layer_1" xmlns="http://www.w3.org/2000/svg" xmlns:xlink="http://www.w3.org/1999/xlink" x="0px" y="0px"
	 width="64px" height="64px" viewBox="0 0 64 64" enable-background="new 0 0 64 64" xml:space="preserve">
<g>
	<g>
		<path fill="#E8E1D6" d="M61.841,46.767c-0.661-1.631-0.927-1.993-1.359-4.207c-0.348-1.775-0.569-2.568-0.637-4.432
			c-0.088-2.432-1.354-5.465-2.321-7.648c-1.153-2.617-2.91-6.307-5.292-8.024c2.075-1.039-0.912-2.245-1.545-2.406
			c0.354-1.909,0.059-1.632-0.61-3.168c-1.248-2.881-3.905-3.395-4.788-6.039c-0.955-2.861-4.409-4.333-6.703-5.294
			c-0.989-0.415-5.869-5.332-7.186-2.856c0.039-0.073-6.983,0.288-5.561,2.081c-2.663,0-9.716,6.653-8.45,7.349
			c-0.59,0.642-2.421,0.481-2.514,1.638c-0.153,1.933,2.293,1.318-0.72,2.821c-1.467,0.731-3.265,2.199-3.795,3.848
			c-0.438,1.356,1.544,0.851,0.694,1.971c-2.124-2.66-2.138,2.143-2.028,2.78c-1.304-1.17-2.606,5.231-3.058,6.482
			c-1.084,1.203-1.741,2.848-2.103,4.41c-1.011,0.26-2.117,3.381-1.816,4.125c0.747,1.842,0.055,2.629,0.141,4.815
			c0.121,3.226,1.935,3.509,1.287,6.167c-0.484,1.994,0.274,2.227,1.788,2.762c1.889,0.67,2.332,2.461,4.592,3.314
			c1.203,0.453,2.399-0.043,2.574,1.096c0.284,1.76,33.85,4.469,37.493,0.512c1.01,3.878,3.576-2.368,3.828-3.535
			c1.374,3.008,2.477-0.551,2.624-1.744c3.29,2.617,2.486-1.418,1.432-3.173C59.043,50.127,62.633,48.712,61.841,46.767
			C61.671,46.348,62.271,47.819,61.841,46.767z"/>
		<path fill="#FFFBE9" d="M59.908,46.922c-0.235-0.446-0.605-0.714-1.109-0.802c0.07-0.482,0.095-0.969,0.072-1.457
			c-0.042-1.148-0.252-2.303-0.611-3.393c-0.592-1.791,0.594-5.615-1.514-6.834c-0.003-2.593-2.188-4.234-2.54-6.396
			c-0.285-1.746-2.678-5.283-4.726-5.131c-1.158,0.085-0.021,0.401-1.795,0.01c-0.415-0.934,0.37-1.157,1.108-0.934
			c0.778,0.235,0.906-0.788,0.891-1.304c0.982-1.177-0.2-1.521-0.602-2.485c-0.996-2.394-2.494-3.25-4.153-4.783
			c-0.809-0.749-1.811-1.422-2.883-1.704c0.07-0.899,0.472-1.762-0.88-2.076c1.902-1.146-1.665-1.94-2.338-1.971
			c-0.293-0.856-1.934-0.785-2.578-0.742C35.706,6.055,34.871,5.347,34,4.838c-1.34-0.784-3.485-0.594-4.991-0.367
			c-1.141,0.173-4.643,1.887-1.731,2.429c-0.805,0.758-1.122,1.626-2.37,1.196c-0.484-0.167-4.171-0.945-3.39,0.728
			c-0.897,0.578-1.437,1.732-1.772,2.706c-0.768,0.157-3.136,1.127-1.512,2.04c-0.53,0.595-2.288,0.509-2.364,1.592
			c-0.081,1.113,1.09,0.347,0.776,1.683c-0.238,1.016-0.549,0.598-1.445,1.059c-1.314,0.676-2.58,1.82-3.296,3.134
			c-0.751,1.376,0.97,1.751,0.408,2.503c-1.71-2.187-2.092,1.304-1.938,2.412c0.117,0.837,0.354,1.669,0.725,2.427
			c0.465,0.948-0.329,1.313-0.74,2.296c-0.404-1.728-1.63-0.541-2.137,0.358c-0.89,1.577-1.435,3.693-1.179,5.512
			c-1.298,0.002-4.157,0.941-2.091,2.543c-0.94,0.234-1.337,1.012-0.807,1.87c0.627,1.019,0.172,1.396,0.054,2.618
			c-0.09,0.93-0.119,6.254,1.788,5.818c-0.395,0.936-0.801,2.044-0.711,3.082c0.089,1.029,0.83,0.646,1.473,1.082
			c1.778,1.21,4.201-1.252,5.444-0.514c-2.158,2.081,1.82,2.709,3.128,2.567c-2.819,2.069-0.857,3.8,1.918,3.108
			c1.376-0.344,31.935-2.611,31.993-2.275c0.641,3.594,2.641,0.527,3.063-1.392c1.163,2.626,2.287-0.325,2.459-1.651
			c2.938,2.393,2.398-1.229,1.359-3.013C57.29,50.106,60.621,48.744,59.908,46.922C59.756,46.523,60.301,47.925,59.908,46.922z"/>
		<g>
			<path fill="#E8E1D6" d="M35.054,23.205c0.196,0.682,0.641,1.51,1.292,2.316c1.258,1.554,2.77,2.402,3.354,1.87
				c0.582-0.528,0.011-2.209-1.252-3.735c-0.563-0.681-1.169-1.207-1.719-1.543c0.666-0.604,0.997-1.231,0.797-1.673
				c-0.329-0.731-1.965-0.694-3.667,0.085c-0.737,0.337-1.361,0.761-1.82,1.193c0.035-0.089,0.058-0.18,0.055-0.272
				c-0.024-0.804-1.56-1.406-3.433-1.351c-1.873,0.057-3.396,0.748-3.4,1.555c-0.004,0.812,1.534,1.432,3.438,1.374
				c1.189-0.036,2.228-0.327,2.834-0.737c-0.257,0.377-0.354,0.735-0.234,1.022c0.313,0.758,1.987,0.718,3.726-0.09
				C35.034,23.214,35.043,23.208,35.054,23.205z"/>
			<path fill="#E8E1D6" d="M26.943,31.959c-1.88-0.726-3.628-0.616-3.923,0.243c-0.297,0.871,0.995,2.181,2.9,2.929
				c1.918,0.753,3.707,0.644,3.978-0.251C30.165,33.998,28.835,32.69,26.943,31.959z"/>
			<path fill="#E8E1D6" d="M11.947,41.745c-0.003,0.377,0.006,0.766,0.046,1.17c0.226,2.309,1.108,4.037,1.972,3.808
				c0.853-0.228,1.331-2.305,1.07-4.597c-0.253-2.24-1.123-3.852-1.947-3.641c-0.187,0.047-0.353,0.195-0.5,0.404
				c-0.239-0.472-0.545-0.953-0.926-1.415c-1.27-1.536-2.797-2.249-3.438-1.612c-0.645,0.642-0.157,2.42,1.109,3.992
				C10.195,40.928,11.188,41.61,11.947,41.745z"/>
			<path fill="#E8E1D6" d="M12.677,50.789c0.688-0.77,0.112-2.854-1.259-4.633c-1.35-1.752-2.98-2.562-3.665-1.837
				c-0.691,0.73-0.178,2.756,1.171,4.552C10.29,50.694,11.983,51.566,12.677,50.789z"/>
			<path fill="#E8E1D6" d="M12.687,52.983c-2.037-0.764-3.976-0.527-4.343,0.528c-0.372,1.067,0.993,2.575,3.063,3.364
				c2.085,0.799,4.063,0.557,4.403-0.541C16.146,55.254,14.741,53.753,12.687,52.983z"/>
			<path fill="#E8E1D6" d="M16.672,23.275c1.583-1.151,2.514-2.582,2.102-3.205c-0.411-0.621-1.999-0.22-3.57,0.904
				c-1.591,1.134-2.576,2.587-2.175,3.238C13.431,24.864,15.071,24.439,16.672,23.275z"/>
			<path fill="#E8E1D6" d="M11.314,34.344c0.687,0.382,2.077-0.864,3.085-2.755c0.985-1.853,1.224-3.618,0.552-3.976
				c-0.669-0.356-2.009,0.813-3.012,2.64C10.917,32.116,10.626,33.961,11.314,34.344z"/>
			<path fill="#E8E1D6" d="M19.354,30.817c0.151-0.752,0.168-1.727,0.009-2.753c-0.029-0.189-0.067-0.368-0.106-0.547
				c0.929,0.933,1.892,1.345,2.386,0.923c0.26-0.223,0.34-0.646,0.276-1.17c1.633-0.186,2.875-0.851,2.882-1.603
				c0.007-0.841-1.542-1.468-3.455-1.41c-0.273,0.009-0.536,0.033-0.792,0.067c-1.088-1.407-2.383-2.138-2.989-1.645
				c-0.403,0.33-0.404,1.129-0.071,2.077c-0.035,0.002-0.068-0.01-0.103-0.002c-0.781,0.19-1.187,1.977-0.902,4.028
				c0.219,1.579,0.782,2.855,1.393,3.302c-0.485,0.519-0.85,1.043-1.059,1.509c-1.041-0.038-1.841,0.243-2.036,0.808
				c-0.312,0.889,0.974,2.146,2.881,2.801c1.924,0.663,3.721,0.462,4.003-0.449c0.231-0.744-0.636-1.723-2.011-2.403
				c0.316-0.189,0.636-0.401,0.957-0.653c1.68-1.32,2.654-2.957,2.206-3.672C22.406,29.362,20.905,29.727,19.354,30.817z"/>
			<path fill="#E8E1D6" d="M26.938,14.394c0.073-0.746-1.322-1.449-3.113-1.579c-1.785-0.132-3.315,0.357-3.413,1.098
				c-0.102,0.746,1.288,1.463,3.102,1.598C25.335,15.646,26.864,15.141,26.938,14.394z"/>
			<path fill="#E8E1D6" d="M23.568,12.21c1.67-0.709,2.792-1.816,2.52-2.469c-0.27-0.649-1.813-0.615-3.462,0.076
				c-1.664,0.697-2.82,1.802-2.57,2.471C20.307,12.96,21.888,12.927,23.568,12.21z"/>
			<path fill="#E8E1D6" d="M28.254,16.491c-0.286-0.702-1.891-0.662-3.594,0.083c-1.72,0.75-2.909,1.943-2.64,2.665
				c0.269,0.725,1.909,0.689,3.648-0.085C27.393,18.387,28.543,17.194,28.254,16.491z"/>
			<path fill="#E8E1D6" d="M36.382,26.983c-1.938-0.152-3.552,0.415-3.602,1.279c-0.055,0.867,1.499,1.705,3.469,1.862
				c1.976,0.16,3.593-0.429,3.613-1.302C39.884,27.954,38.327,27.134,36.382,26.983z"/>
			<path fill="#E8E1D6" d="M44.808,30.604c1.633-0.807,2.674-2.028,2.49-2.832c0.206-0.012,0.377-0.071,0.486-0.201
				c0.484-0.574-0.312-2.142-1.757-3.482c-0.406-0.377-0.819-0.688-1.217-0.94c0.256-0.188,0.414-0.408,0.414-0.657
				c-0.003-0.813-1.532-1.581-3.418-1.723c-1.881-0.144-3.425,0.389-3.451,1.198c-0.026,0.813,1.498,1.596,3.407,1.744
				c0.269,0.021,0.527,0.025,0.778,0.019c0.238,0.691,0.848,1.574,1.714,2.395c0.4,0.377,0.809,0.695,1.204,0.954
				c-0.606,0.074-1.301,0.277-2.004,0.619c-1.743,0.844-2.875,2.188-2.513,3.001C41.308,31.517,43.046,31.477,44.808,30.604z"/>
			<path fill="#E8E1D6" d="M36.937,30.995c-0.317,0.012-0.645,0.037-0.984,0.094c-1.955,0.33-3.442,1.321-3.313,2.22
				c0.075,0.53,0.703,0.903,1.601,1.057c0.529,0.636,2.136,0.536,3.805-0.288c1.806-0.894,2.963-2.285,2.598-3.105
				C40.293,30.183,38.661,30.204,36.937,30.995z"/>
			<path fill="#E8E1D6" d="M50.033,35.464c1.672-0.869,2.733-2.18,2.552-3.057c0.34,0.074,0.69,0.135,1.061,0.166
				c2.036,0.164,3.642-0.453,3.586-1.369c-0.057-0.911-1.727-1.77-3.729-1.932c-0.583-0.046-1.124-0.021-1.608,0.05
				c0.081-0.788-0.031-1.86-0.364-3.007c-0.609-2.093-1.71-3.621-2.472-3.448c-0.764,0.174-0.921,1.993-0.342,4.101
				c0.361,1.301,0.916,2.402,1.475,3.035c-0.176,0.18-0.272,0.387-0.266,0.611c0.009,0.359,0.279,0.711,0.719,1.018
				c-0.629,0.084-1.347,0.303-2.072,0.674c-0.081,0.041-0.154,0.09-0.235,0.134c-0.625-0.554-1.804-0.99-3.165-1.099
				c-1.988-0.161-3.613,0.434-3.626,1.336c-0.015,0.909,1.613,1.785,3.635,1.949c0.306,0.025,0.597,0.027,0.879,0.018
				c-0.137,0.34-0.173,0.658-0.056,0.924C46.396,36.456,48.209,36.415,50.033,35.464z"/>
			<path fill="#E8E1D6" d="M30.665,12.981c1.622,0.796,3.202,0.901,3.521,0.237c0.314-0.662-0.745-1.826-2.35-2.6
				c-1.589-0.769-3.137-0.871-3.466-0.229C28.038,11.035,29.06,12.193,30.665,12.981z"/>
			<path fill="#E8E1D6" d="M26.199,8.913c1.086-0.031,2.038-0.275,2.607-0.621c-0.149,0.152-0.233,0.315-0.231,0.484
				c0.009,0.705,1.453,1.242,3.224,1.193c1.769-0.049,3.175-0.666,3.14-1.37c-0.033-0.698-1.474-1.221-3.22-1.172
				c-1.075,0.03-2.021,0.271-2.587,0.614c0.148-0.151,0.233-0.314,0.23-0.481C29.35,6.869,27.936,6.354,26.2,6.401
				c-1.737,0.047-3.156,0.641-3.17,1.334C23.019,8.43,24.435,8.962,26.199,8.913z"/>
			<path fill="#E8E1D6" d="M27.423,26.503c1.729,0.921,3.427,1.043,3.78,0.275c0.349-0.767-0.768-2.112-2.477-3.004
				c-1.692-0.886-3.353-1.005-3.72-0.265C24.638,24.252,25.71,25.593,27.423,26.503z"/>
			<path fill="#E8E1D6" d="M18.257,19.671c1.64,0.853,3.272,0.967,3.635,0.252c0.36-0.711-0.674-1.959-2.296-2.791
				c-1.607-0.821-3.199-0.932-3.578-0.244C15.64,17.579,16.636,18.825,18.257,19.671z"/>
			<path fill="#E8E1D6" d="M30.827,19.358c1.681,0.853,3.318,0.965,3.646,0.251c0.322-0.71-0.773-1.957-2.438-2.787
				c-1.646-0.822-3.246-0.933-3.588-0.247C28.104,17.268,29.164,18.513,30.827,19.358z"/>
			<path fill="#E8E1D6" d="M28.146,28.124c-1.952,0.061-3.544,0.815-3.551,1.692c-0.009,0.885,1.593,1.56,3.583,1.497
				c1.982-0.064,3.572-0.838,3.546-1.721C31.701,28.718,30.099,28.064,28.146,28.124z"/>
			<path fill="#E8E1D6" d="M41.199,11.916c1.354,1.254,2.858,1.853,3.341,1.323c0.478-0.526-0.251-1.958-1.603-3.184
				c-1.336-1.211-2.79-1.775-3.271-1.277C39.185,9.282,39.862,10.681,41.199,11.916z"/>
			<path fill="#E8E1D6" d="M36.362,13.89c0.665,0.649,1.369,1.128,1.978,1.387c-1.619,0.76-2.678,1.937-2.351,2.655
				c0.332,0.732,1.979,0.695,3.66-0.086c1.668-0.773,2.723-1.98,2.37-2.691c-0.238-0.483-1.069-0.609-2.097-0.406
				c-0.028-0.722-0.682-1.839-1.718-2.831c-1.344-1.281-2.822-1.877-3.331-1.351C34.364,11.101,35.021,12.581,36.362,13.89z"/>
			<path fill="#E8E1D6" d="M43.142,15.065c-0.551,0.477-0.007,2.027,1.238,3.483c1.267,1.479,2.762,2.282,3.317,1.778
				c0.555-0.502-0.045-2.099-1.313-3.547C45.135,15.351,43.692,14.59,43.142,15.065z"/>
			<path fill="#E8E1D6" d="M49.721,42.496c-1.826,1.046-2.957,2.657-2.516,3.595c0.45,0.953,2.322,0.847,4.168-0.23
				c1.824-1.065,2.91-2.672,2.44-3.591C53.348,41.366,51.524,41.462,49.721,42.496z"/>
			<path fill="#E8E1D6" d="M57.517,33.77c-0.722-0.576-2.184,0.458-3.289,2.35c-1.121,1.922-1.455,4.009-0.719,4.629
				c0.739,0.626,2.258-0.487,3.368-2.45C57.966,36.366,58.245,34.355,57.517,33.77z"/>
			<path fill="#E8E1D6" d="M49.208,50.913c-1.23,1.875-1.654,3.982-0.925,4.69c0.734,0.712,2.334-0.28,3.556-2.194
				c1.199-1.881,1.564-3.926,0.842-4.598C51.961,48.149,50.415,49.079,49.208,50.913z"/>
		</g>
	</g>
	<path fill="#334037" d="M47.06,59.875c0,2.833-31.206,2.833-31.206,0V36.36H47.06V59.875z"/>
	<g>
		<g>
			<polygon fill="#3F4F44" points="20.256,47.081 19.257,48.628 20.256,50.177 21.256,48.63 			"/>
			<polygon fill="#3F4F44" points="31.638,47.081 30.638,48.628 31.638,50.177 32.638,48.63 			"/>
			<polygon fill="#3F4F44" points="43.021,47.081 42.021,48.628 43.021,50.177 44.02,48.63 			"/>
		</g>
		<g>
			<polygon fill="#3F4F44" points="20.256,37.737 19.257,39.284 20.256,40.833 21.256,39.286 			"/>
			<polygon fill="#3F4F44" points="31.638,37.737 30.638,39.284 31.638,40.833 32.638,39.286 			"/>
			<polygon fill="#3F4F44" points="43.021,37.737 42.021,39.284 43.021,40.833 44.02,39.286 			"/>
		</g>
		<g>
			<polygon fill="#3F4F44" points="20.256,56.425 19.257,57.972 20.256,59.521 21.256,57.974 			"/>
			<polygon fill="#3F4F44" points="31.638,56.425 30.638,57.972 31.638,59.521 32.638,57.974 			"/>
			<polygon fill="#3F4F44" points="43.021,56.425 42.021,57.972 43.021,59.521 44.02,57.974 			"/>
		</g>
		<g>
			<polygon fill="#3F4F44" points="37.329,51.753 36.329,53.3 37.329,54.849 38.329,53.302 			"/>
			<polygon fill="#3F4F44" points="25.947,51.753 24.948,53.3 25.947,54.849 26.947,53.302 			"/>
		</g>
		<g>
			<polygon fill="#3F4F44" points="37.329,42.409 36.329,43.956 37.329,45.506 38.329,43.958 			"/>
			<polygon fill="#3F4F44" points="25.947,42.409 24.948,43.956 25.947,45.506 26.947,43.958 			"/>
		</g>
	</g>
</g>
</svg>
