<?xml version="1.0" encoding="utf-8"?>
<!-- Generator: Adobe Illustrator 15.0.0, SVG Export Plug-In . SVG Version: 6.00 Build 0)  -->
<!DOCTYPE svg PUBLIC "-//W3C//DTD SVG 1.1//EN" "http://www.w3.org/Graphics/SVG/1.1/DTD/svg11.dtd">
<svg version="1.1" id="Layer_1" xmlns="http://www.w3.org/2000/svg" xmlns:xlink="http://www.w3.org/1999/xlink" x="0px" y="0px"
	 width="64px" height="64px" viewBox="0 0 64 64" enable-background="new 0 0 64 64" xml:space="preserve">
<g>
	<g>
		<g>
			<path fill="#8CC63E" d="M23.549,13.07C24.964,9.205,35.705,2,35.705,2s3.374,12.875,1.96,16.736
				c-1.417,3.862-5.726,5.724-9.623,4.16C24.142,21.329,22.13,16.93,23.549,13.07z"/>
			<path fill="#64892F" d="M17.157,20.809c-1.718-3.74,0.805-16.464,0.805-16.464s11.449,6.705,13.165,10.44
				c1.716,3.737-0.021,8.116-3.877,9.777C23.392,26.227,18.87,24.545,17.157,20.809z"/>
			<path fill="#8CC63E" d="M20.722,17.227c-3.724-1.726-16.388,0.81-16.388,0.81s6.674,11.499,10.392,13.226
				c3.722,1.724,8.078-0.019,9.732-3.895C26.113,23.489,24.441,18.949,20.722,17.227z"/>
			<path fill="#64892F" d="M13.017,23.647C9.171,25.072,2,35.861,2,35.861s12.814,3.392,16.657,1.971
				c3.847-1.426,5.7-5.754,4.145-9.667C21.241,24.245,16.859,22.224,13.017,23.647z"/>
		</g>
		<path fill="#EF4D3C" d="M51.534,16.714c11.496,11.551,12.812,36.72,7.386,42.172c-5.48,5.506-30.409,4.123-41.958-7.479
			c-8.505-8.545-4.522-21.428,4.332-30.322C30.122,12.216,43.029,8.168,51.534,16.714z"/>
	</g>
	<g>
		<path fill="#FFF0F0" d="M40.748,15.718c-0.53,0-0.989,0.187-1.252,0.563c-0.533,0.763-0.061,2.018,1.058,2.799
			c0.568,0.397,1.193,0.597,1.741,0.597c0.53,0,0.988-0.187,1.25-0.563c0.535-0.763,0.062-2.017-1.056-2.799
			C41.921,15.917,41.296,15.718,40.748,15.718"/>
		<path fill="#FFF0F0" d="M44.389,33.238c-0.333,0-0.638,0.099-0.875,0.304c-0.703,0.61-0.548,1.941,0.346,2.973
			c0.593,0.683,1.363,1.063,2.021,1.063c0.333,0,0.638-0.098,0.874-0.304c0.704-0.61,0.548-1.94-0.346-2.972
			C45.815,33.618,45.046,33.238,44.389,33.238"/>
		<path fill="#FFF0F0" d="M35.762,24.593c-0.322,0-0.618,0.093-0.851,0.289c-0.714,0.6-0.582,1.934,0.297,2.979
			c0.591,0.702,1.367,1.095,2.029,1.095c0.323,0,0.618-0.093,0.852-0.289c0.713-0.599,0.579-1.932-0.297-2.979
			C37.201,24.985,36.424,24.593,35.762,24.593"/>
		<path fill="#FFF0F0" d="M50.497,25.582c-0.209,0-0.41,0.047-0.592,0.146c-0.817,0.448-0.949,1.781-0.295,2.979
			c0.509,0.93,1.343,1.505,2.073,1.505c0.21,0,0.411-0.047,0.593-0.147c0.818-0.447,0.949-1.781,0.295-2.979
			C52.063,26.156,51.228,25.582,50.497,25.582"/>
		<path fill="#FFF0F0" d="M55.078,38.803c-0.1,0-0.199,0.013-0.298,0.038c-0.901,0.234-1.354,1.496-1.009,2.816
			c0.307,1.176,1.143,2.003,1.959,2.003c0.1,0,0.199-0.013,0.297-0.038c0.902-0.236,1.354-1.496,1.01-2.817
			C56.729,39.63,55.895,38.803,55.078,38.803"/>
		<path fill="#FFF0F0" d="M53.904,51.212c-0.348,0-0.663,0.104-0.903,0.322c-0.689,0.623-0.508,1.953,0.407,2.965
			c0.597,0.658,1.357,1.021,2.006,1.021c0.348,0,0.663-0.104,0.904-0.321c0.69-0.626,0.509-1.953-0.408-2.965
			C55.314,51.575,54.554,51.212,53.904,51.212"/>
		<path fill="#FFF0F0" d="M31.727,49.687c-0.55,0-1.022,0.197-1.285,0.589c-0.519,0.773-0.02,2.018,1.114,2.776
			c0.56,0.375,1.17,0.563,1.707,0.563c0.55,0,1.022-0.197,1.285-0.589c0.518-0.772,0.021-2.017-1.114-2.776
			C32.874,49.874,32.264,49.687,31.727,49.687"/>
		<path fill="#FFF0F0" d="M20.175,46.386c-0.551,0-1.023,0.197-1.286,0.589c-0.518,0.773-0.02,2.018,1.114,2.776
			c0.561,0.375,1.17,0.563,1.707,0.563c0.55,0,1.022-0.197,1.285-0.589c0.517-0.772,0.02-2.017-1.115-2.776
			C21.321,46.573,20.711,46.386,20.175,46.386"/>
		<path fill="#FFF0F0" d="M41.636,54.496c-0.784,0-1.439,0.319-1.672,0.894c-0.347,0.863,0.396,1.979,1.662,2.488
			c0.425,0.172,0.854,0.253,1.252,0.253c0.783,0,1.438-0.319,1.67-0.894c0.348-0.863-0.395-1.979-1.661-2.488
			C42.462,54.578,42.032,54.496,41.636,54.496"/>
		<path fill="#FFF0F0" d="M43.854,44.524c-0.606,0-1.122,0.224-1.382,0.66c-0.477,0.801,0.088,2.017,1.261,2.714
			c0.533,0.316,1.101,0.472,1.605,0.472c0.605,0,1.122-0.224,1.382-0.66c0.476-0.801-0.089-2.018-1.262-2.714
			C44.926,44.679,44.359,44.524,43.854,44.524"/>
		<path fill="#FFF0F0" d="M33.188,37.43c-0.457,0-0.858,0.153-1.118,0.466c-0.595,0.718-0.227,2.006,0.824,2.877
			c0.592,0.49,1.274,0.744,1.863,0.744c0.457,0,0.857-0.152,1.117-0.466c0.595-0.718,0.227-2.007-0.824-2.877
			C34.458,37.684,33.776,37.43,33.188,37.43"/>
		<path fill="#FFF0F0" d="M24.535,23.897c-0.378,0-0.717,0.117-0.965,0.36c-0.664,0.654-0.427,1.973,0.53,2.945
			c0.6,0.609,1.34,0.938,1.973,0.938c0.378,0,0.717-0.117,0.965-0.361c0.664-0.653,0.427-1.973-0.53-2.944
			C25.908,24.225,25.167,23.897,24.535,23.897"/>
		<path fill="#FFF0F0" d="M21.668,34.74c-0.477,0-0.893,0.161-1.154,0.491c-0.578,0.729-0.181,2.011,0.889,2.856
			c0.587,0.466,1.254,0.704,1.832,0.704c0.476,0,0.892-0.161,1.152-0.491c0.577-0.729,0.181-2.01-0.889-2.857
			C22.913,34.979,22.247,34.74,21.668,34.74"/>
	</g>
</g>
</svg>
