<?xml version="1.0" encoding="utf-8"?>
<!-- Generator: Adobe Illustrator 15.0.0, SVG Export Plug-In . SVG Version: 6.00 Build 0)  -->
<!DOCTYPE svg PUBLIC "-//W3C//DTD SVG 1.1//EN" "http://www.w3.org/Graphics/SVG/1.1/DTD/svg11.dtd">
<svg version="1.1" id="Layer_1" xmlns="http://www.w3.org/2000/svg" xmlns:xlink="http://www.w3.org/1999/xlink" x="0px" y="0px"
	 width="64px" height="64px" viewBox="0 0 64 64" enable-background="new 0 0 64 64" xml:space="preserve">
<g>
	<g>
		<path fill-rule="evenodd" clip-rule="evenodd" fill="#D33B23" d="M61.042,39.208c3.747,10.468-4.113,18.43-12.85,19.867
			c-8.734,1.438-18.36-3.579-18.79-14.661c-0.567-14.688,10.083-12.955,13.93-13.588C49.624,29.79,56.259,25.848,61.042,39.208z"/>
		<path fill-rule="evenodd" clip-rule="evenodd" fill="none" stroke="#83BF4F" stroke-width="2" stroke-miterlimit="10" d="
			M45.078,33.988c-2.091-2.36-10.558-9.956-7.661-25.036"/>
		<path fill-rule="evenodd" clip-rule="evenodd" fill="#EF4D3C" d="M38.542,42.16C40.717,54.547,30.402,62,20.362,62
			c-10.039,0-19.83-7.377-18.179-19.84c2.19-16.52,13.759-12.625,18.179-12.625C27.593,29.535,35.766,26.349,38.542,42.16z"/>
		<path fill-rule="evenodd" clip-rule="evenodd" fill="none" stroke="#9FC427" stroke-width="2" stroke-miterlimit="10" d="
			M20.362,33.046c0-4.091,5.953-25.487,34.107-30.049"/>
		<g>
			<path fill="#CE0F00" d="M13.252,31.576c2.254,0.337,4.364,0.67,6.507,0.902c1.068,0.12,2.134,0.203,3.212,0.27
				c1.08,0.057,2.163,0.066,3.314,0.086c-0.994,0.586-2.12,0.918-3.255,1.083c-1.139,0.175-2.298,0.178-3.436,0.052
				c-1.138-0.129-2.26-0.378-3.333-0.77C15.192,32.815,14.143,32.316,13.252,31.576z"/>
		</g>
		<g>
			<path fill="#A51000" d="M38.453,34.794l5.64-1.309c0.916-0.223,1.82-0.469,2.734-0.725l2.795-0.872
				c-0.622,0.818-1.449,1.455-2.338,1.949c-0.889,0.504-1.851,0.863-2.835,1.104c-0.985,0.237-1.994,0.366-3.006,0.353
				C40.437,35.288,39.412,35.174,38.453,34.794z"/>
		</g>
	</g>
	<path fill-rule="evenodd" clip-rule="evenodd" fill="#64892F" d="M46.317,7.097c-3.82,8.894,9.326,21.198,9.326,21.198
		s-1.321-9.304,2.224-17.618C60.066,5.515,54.47,2,54.47,2S48.234,2.636,46.317,7.097z"/>
</g>
</svg>
