<?xml version="1.0" encoding="utf-8"?>
<!-- Generator: Adobe Illustrator 15.0.0, SVG Export Plug-In . SVG Version: 6.00 Build 0)  -->
<!DOCTYPE svg PUBLIC "-//W3C//DTD SVG 1.1//EN" "http://www.w3.org/Graphics/SVG/1.1/DTD/svg11.dtd">
<svg version="1.1" id="Layer_1" xmlns="http://www.w3.org/2000/svg" xmlns:xlink="http://www.w3.org/1999/xlink" x="0px" y="0px"
	 width="64px" height="64px" viewBox="0 0 64 64" enable-background="new 0 0 64 64" xml:space="preserve">
<g>
	<g>
		<path fill="#E7A74F" d="M61.999,44.457C61.999,56.461,51.135,62,32.185,62C13.234,62,2.369,56.461,2.369,44.457
			C2.369,26.912,61.999,26.912,61.999,44.457z"/>
		<path fill="#BA8443" d="M61.84,36.209c0,12.006-10.807,17.545-29.654,17.545c-18.849,0-29.656-5.539-29.656-17.545
			C2.53,18.665,61.84,18.665,61.84,36.209z"/>
		<path fill="#826046" d="M2.369,36.52c0-4.964,5.897-11.94,29.816-11.94s29.814,6.976,29.814,11.94
			c0,9.072-8.38,15.705-29.814,15.705C10.75,52.225,2.369,45.592,2.369,36.52z"/>
		<path fill="#68472C" d="M3.026,31.287c0-4.965,5.766-11.94,29.158-11.94c23.393,0,29.157,6.976,29.157,11.94
			c0,9.072-8.195,15.706-29.157,15.706S3.026,40.358,3.026,31.287z"/>
		<path fill="#EF4D3C" d="M3.153,24.841c1.448-3.024,5.106-3.195,17.15,1.946c12.043,5.141,14.322,7.847,12.875,10.871
			c-2.647,5.531-9.679,9.6-20.471,4.992S0.504,30.372,3.153,24.841z"/>
		<path fill="#D33B23" d="M4.173,21.391c1.448-3.024,5.106-3.196,17.15,1.946c12.043,5.141,14.322,7.847,12.874,10.871
			c-2.648,5.53-9.678,9.601-20.471,4.992C2.934,34.593,1.524,26.921,4.173,21.391z"/>
		<path fill="#EF4D3C" d="M29.252,34.523c-0.793-3.233,2.003-5.466,14.879-8.284c12.876-2.818,16.428-1.975,17.221,1.259
			c1.452,5.912-1.519,13.175-13.058,15.701C36.756,45.725,30.704,40.436,29.252,34.523z"/>
		<path fill="#D33B23" d="M28.005,31.259c-0.794-3.233,2.002-5.467,14.88-8.284c12.873-2.818,16.426-1.975,17.22,1.259
			c1.451,5.912-1.519,13.175-13.058,15.701C35.509,42.459,29.456,37.171,28.005,31.259z"/>
		<polygon fill="#FFE62E" points="9.678,30.924 29.748,50.109 49.259,30.924 		"/>
	</g>
	<path fill="#8CC63E" d="M60.729,25.869c0,0,0.856,3.393-0.019,4.37c-0.779,0.871-3.343-0.073-4.4,0.703
		c-0.952,0.698-0.716,3.389-1.867,3.997c-1.056,0.556-3.208-1.116-4.412-0.646c-1.12,0.438-1.512,3.118-2.745,3.475
		c-1.164,0.335-2.959-1.708-4.21-1.452c-1.193,0.243-2.017,2.827-3.277,2.992c-1.213,0.158-2.691-2.121-3.957-2.041
		c-1.224,0.078-2.393,2.529-3.657,2.529c-1.263,0-2.432-2.451-3.656-2.529c-1.265-0.08-2.745,2.2-3.957,2.041
		c-1.261-0.165-2.084-2.749-3.277-2.992c-1.251-0.256-3.049,1.787-4.213,1.451c-1.233-0.355-1.626-3.036-2.746-3.475
		c-1.204-0.471-3.356,1.201-4.412,0.645c-1.153-0.608-0.916-3.3-1.868-3.998c-1.06-0.776-3.622,0.167-4.402-0.704
		c-0.874-0.977-0.015-4.368-0.015-4.368L60.729,25.869z"/>
	<g>
		<path fill="#E7A74F" d="M61.999,23.445c0,6.481-13.349,9.723-29.814,9.723c-16.466,0-29.816-3.242-29.816-9.723
			C2.369,11.602,15.718,2,32.185,2C48.65,2,61.999,11.602,61.999,23.445z"/>
		<g>
			<polygon fill="#FFC17A" points="16.261,14.449 14.747,15.949 13.233,14.449 14.747,12.949 16.261,14.449 			"/>
			<polygon fill="#FFC17A" points="23.725,11.984 22.211,13.484 20.697,11.984 22.211,10.484 23.725,11.984 			"/>
			<polygon fill="#FFC17A" points="27.96,18.833 26.446,20.333 24.933,18.833 26.446,17.333 27.96,18.833 			"/>
			<polygon fill="#FFC17A" points="33.192,13.449 32.185,14.449 31.175,13.449 32.185,12.449 33.192,13.449 			"/>
			<polygon fill="#FFC17A" points="51.949,17.333 50.94,18.333 49.932,17.333 50.94,16.333 51.949,17.333 			"/>
			<polygon fill="#FFC17A" points="58.078,18.333 57.07,19.333 56.06,18.333 57.07,17.333 58.078,18.333 			"/>
			<polygon fill="#FFC17A" points="46.419,10.984 45.41,11.984 44.401,10.984 45.41,9.984 46.419,10.984 			"/>
			<polygon fill="#FFC17A" points="15.893,9.734 14.884,10.734 13.875,9.734 14.884,8.734 15.893,9.734 			"/>
			<polygon fill="#FFC17A" points="10.508,14.449 9.499,15.449 8.49,14.449 9.499,13.449 10.508,14.449 			"/>
			<polygon fill="#FFC17A" points="16.766,21.052 15.757,22.052 14.747,21.052 15.757,20.052 16.766,21.052 			"/>
			<polygon fill="#FFC17A" points="28.465,5.734 27.456,6.734 26.446,5.734 27.456,4.734 28.465,5.734 			"/>
			<polygon fill="#FFC17A" points="37.989,4.734 36.98,5.734 35.972,4.734 36.98,3.734 37.989,4.734 			"/>
			<polygon fill="#FFC17A" points="22.211,6.734 21.202,7.734 20.193,6.734 21.202,5.734 22.211,6.734 			"/>
			<polygon fill="#FFC17A" points="50.874,9.109 49.866,10.109 48.856,9.109 49.866,8.109 50.874,9.109 			"/>
			<polygon fill="#FFC17A" points="40.008,21.673 38.494,23.173 36.98,21.673 38.494,20.173 40.008,21.673 			"/>
			<polygon fill="#FFC17A" points="37.637,13.984 36.124,15.484 34.609,13.984 36.124,12.484 37.637,13.984 			"/>
			<polygon fill="#FFC17A" points="43.215,8.234 41.701,9.734 40.188,8.234 41.701,6.734 43.215,8.234 			"/>
			<polygon fill="#FFC17A" points="47.576,14.652 46.063,16.152 44.549,14.652 46.063,13.152 47.576,14.652 			"/>
			<polygon fill="#FFC17A" points="53.968,12.484 52.454,13.984 50.94,12.484 52.454,10.984 53.968,12.484 			"/>
			<polygon fill="#FFC17A" points="49.09,21.268 47.577,22.768 46.063,21.268 47.577,19.768 49.09,21.268 			"/>
			<polygon fill="#FFC17A" points="12.526,18.673 11.013,20.173 9.499,18.673 11.013,17.173 12.526,18.673 			"/>
		</g>
	</g>
</g>
</svg>
