<?xml version="1.0" encoding="utf-8"?>
<!-- Generator: Adobe Illustrator 15.0.0, SVG Export Plug-In . SVG Version: 6.00 Build 0)  -->
<!DOCTYPE svg PUBLIC "-//W3C//DTD SVG 1.1//EN" "http://www.w3.org/Graphics/SVG/1.1/DTD/svg11.dtd">
<svg version="1.1" id="Layer_1" xmlns="http://www.w3.org/2000/svg" xmlns:xlink="http://www.w3.org/1999/xlink" x="0px" y="0px"
	 width="64px" height="64px" viewBox="0 0 64 64" enable-background="new 0 0 64 64" xml:space="preserve">
<g>
	<path fill="#DDDDDD" d="M28.362,35.635c-4.511-4.512-10.495,7.04-15.061,7.599c-2.093,0.257-6.226-2.2-9.556,1.129
		c-2.328,2.329-2.328,6.101,0,8.429c1.623,1.621,3.945,2.109,5.993,1.473c-0.64,2.044-0.151,4.369,1.469,5.991
		c2.33,2.327,6.101,2.327,8.43,0.001c3.33-3.332,0.874-7.466,1.128-9.559C21.327,46.135,32.876,40.147,28.362,35.635z"/>
	<g>
		<path opacity="0.15" d="M22.924,46.94l1.002-1.106l1.94-6.664l-7.655,0.864l-1.24,1.12l2.877,0.717
			c-1.838,2.268-3.048,4.252-3.048,4.252s3.274,0.08,5.571-0.352L22.924,46.94z"/>
	</g>
	<path opacity="0.4" fill="#FFFFFF" d="M11.534,58.746c-0.575-2.98,0.598-5.876,2.778-7.58c-0.062,0.01-0.121,0.004-0.182,0.016
		c-2.511,0.485-4.141,2.989-3.639,5.589c0.171,0.878,0.575,1.642,1.113,2.268C11.583,58.94,11.553,58.846,11.534,58.746z"/>
	<path opacity="0.4" fill="#FFFFFF" d="M3.846,49.816c-0.415-2.152,0.432-4.242,2.006-5.473c-0.044,0.007-0.087,0.004-0.131,0.012
		c-1.813,0.35-2.989,2.158-2.627,4.035c0.123,0.633,0.415,1.186,0.804,1.637C3.881,49.957,3.859,49.889,3.846,49.816z"/>
	<path fill="#A8693F" d="M54.463,35.437c20.58-20.58-5.319-46.479-25.899-25.9c-8.229,8.229-6.696,18.171-8.313,25.971
		c-0.575,2.765-3.038,4.829-3.038,4.829s1.708,0.646,3.646,1.003c-1.615,1.994-2.682,3.737-2.682,3.737s2.403,0.224,4.854-0.313
		c0.314,1.175,0.636,2.025,0.636,2.025s2.063-2.465,4.827-3.039C36.291,42.129,46.234,43.664,54.463,35.437z"/>
	<g>
		<g>
			
				<rect x="40.687" y="17.765" transform="matrix(-0.7068 -0.7074 0.7074 -0.7068 57.6173 60.8972)" fill="#C28D69" width="1.484" height="1.485"/>
			
				<rect x="45.004" y="12.893" transform="matrix(0.7074 -0.7068 0.7068 0.7074 3.7469 36.3214)" fill="#C28D69" width="1.484" height="1.484"/>
			
				<rect x="36.609" y="22.338" transform="matrix(-0.7071 -0.7071 0.7071 -0.7071 47.4414 65.811)" fill="#C28D69" width="1.483" height="1.485"/>
			
				<rect x="31.733" y="27.213" transform="matrix(-0.7074 -0.7068 0.7068 -0.7074 35.6915 70.6833)" fill="#C28D69" width="1.484" height="1.484"/>
		</g>
		<g>
			
				<rect x="33.359" y="8.995" transform="matrix(-0.7069 -0.7073 0.7073 -0.7069 51.3208 40.7394)" fill="#C28D69" width="1.484" height="1.484"/>
			
				<rect x="29.053" y="13.735" transform="matrix(-0.7071 -0.7071 0.7071 -0.7071 40.6266 45.7812)" fill="#C28D69" width="1.483" height="1.483"/>
			
				<rect x="25.799" y="19.524" transform="matrix(-0.7074 -0.7068 0.7068 -0.7074 30.993 53.3605)" fill="#C28D69" width="1.484" height="1.483"/>
			
				<rect x="38.621" y="5.216" transform="matrix(0.7069 -0.7073 0.7073 0.7069 7.322 29.5865)" fill="#C28D69" width="1.484" height="1.484"/>
		</g>
		<g>
			
				<rect x="34.767" y="15.574" transform="matrix(-0.7071 -0.7071 0.7071 -0.7071 49.0807 52.9627)" fill="#C28D69" width="1.485" height="1.484"/>
			
				<rect x="40.37" y="10.037" transform="matrix(-0.7069 -0.7073 0.7073 -0.7069 62.8554 48.2196)" fill="#C28D69" width="2.099" height="2.099"/>
			
				<rect x="25.462" y="25.93" transform="matrix(-0.7068 -0.7074 0.7074 -0.7068 25.8548 64.0612)" fill="#C28D69" width="1.484" height="1.485"/>
			
				<rect x="30.594" y="21.232" transform="matrix(-0.7069 -0.7073 0.7073 -0.7069 38.2512 60.414)" fill="#C28D69" width="2.099" height="2.099"/>
			
				<rect x="45.648" y="5.744" transform="matrix(0.7076 -0.7066 0.7066 0.7076 8.9812 34.6765)" fill="#C28D69" width="1.485" height="1.484"/>
		</g>
	</g>
</g>
</svg>
