<?xml version="1.0" encoding="utf-8"?>
<!-- Generator: Adobe Illustrator 15.0.0, SVG Export Plug-In . SVG Version: 6.00 Build 0)  -->
<!DOCTYPE svg PUBLIC "-//W3C//DTD SVG 1.1//EN" "http://www.w3.org/Graphics/SVG/1.1/DTD/svg11.dtd">
<svg version="1.1" id="Layer_1" xmlns="http://www.w3.org/2000/svg" xmlns:xlink="http://www.w3.org/1999/xlink" x="0px" y="0px"
	 width="64px" height="64px" viewBox="0 0 64 64" enable-background="new 0 0 64 64" xml:space="preserve">
<g>
	<g>
		<path fill="#B2C1C0" d="M45.866,46.295c-3.834,0.888-8.943,1.035-14.029,1.035c-5.076,0-9.573-0.146-14.006-1.03v11.733
			C22.264,60.641,26.802,62,31.837,62c5.045,0,10.195-1.364,14.029-3.979V46.295z"/>
		<g>
			<path fill="#B2C1C0" d="M31.999,20.665c-16.568,0-30,5.342-30,11.927c0,0.284,0.025,0.562,0.075,0.839
				c0.093,0.528,0.271,1.05,0.532,1.559c2.789,5.438,14.889,9.528,29.393,9.528s26.605-4.091,29.395-9.528
				c0.262-0.509,0.438-1.03,0.531-1.559c0.05-0.277,0.074-0.555,0.074-0.839C61.999,26.007,48.569,20.665,31.999,20.665z"/>
		</g>
		<g>
			<g>
				<path fill="#F2B200" d="M31.999,44.518c14.504,0,26.605-4.091,29.395-9.528c0.058-0.162,0.115-0.328,0.173-0.492
					c-2.422-5.62-14.736-9.898-29.567-9.898c-14.83,0-27.145,4.278-29.566,9.898c0.057,0.164,0.115,0.331,0.174,0.492
					C5.396,40.427,17.495,44.518,31.999,44.518z"/>
			</g>
		</g>
		<g>
			<g>
				<g>
					<path fill="#E8E8E8" d="M17.692,2c2.123,1.056,3.956,3.249,4.41,6.058c0.47,2.803-0.535,5.71-2.224,7.784
						c-1.205,1.467-1.808,3.345-1.839,5.469c-0.013,1.052,0.074,2.157,0.342,3.235c0.113,0.548,0.292,1.078,0.501,1.604
						c0.221,0.518,0.473,1.031,0.929,1.432c-0.61-0.052-1.174-0.447-1.639-0.869c-0.475-0.431-0.863-0.945-1.226-1.481
						c-0.676-1.098-1.183-2.33-1.423-3.655c-0.252-1.321-0.254-2.733,0.063-4.116c0.156-0.688,0.395-1.366,0.699-2.01
						c0.168-0.318,0.324-0.619,0.546-0.951c0.243-0.378,0.342-0.494,0.591-0.825c1.242-1.552,2.09-3.409,2.17-5.408
						C19.716,6.256,18.933,4.115,17.692,2z"/>
				</g>
			</g>
			<g>
				<g>
					<path fill="#E8E8E8" d="M30.892,2c2.123,1.056,3.957,3.249,4.412,6.058c0.469,2.803-0.537,5.71-2.227,7.781
						c-1.205,1.468-1.808,3.346-1.84,5.47c-0.012,1.053,0.074,2.157,0.344,3.235c0.113,0.549,0.29,1.08,0.5,1.604
						c0.221,0.52,0.473,1.033,0.93,1.433c-0.612-0.054-1.174-0.449-1.641-0.869c-0.473-0.432-0.863-0.946-1.225-1.48
						c-0.676-1.099-1.183-2.334-1.423-3.657c-0.251-1.321-0.254-2.731,0.062-4.114c0.156-0.688,0.396-1.366,0.699-2.012
						c0.168-0.316,0.325-0.619,0.547-0.949c0.243-0.379,0.342-0.494,0.59-0.825c1.243-1.555,2.09-3.411,2.172-5.411
						C32.913,6.256,32.132,4.115,30.892,2z"/>
				</g>
			</g>
			<g>
				<g>
					<path fill="#E8E8E8" d="M44.09,2c2.123,1.056,3.956,3.249,4.412,6.058c0.468,2.803-0.537,5.71-2.225,7.784
						c-1.206,1.467-1.81,3.345-1.841,5.469c-0.013,1.052,0.073,2.157,0.342,3.235c0.114,0.548,0.292,1.078,0.502,1.604
						c0.221,0.518,0.474,1.031,0.929,1.432c-0.611-0.052-1.175-0.447-1.64-0.869c-0.473-0.431-0.863-0.945-1.226-1.481
						c-0.676-1.098-1.183-2.33-1.423-3.655c-0.249-1.321-0.254-2.733,0.063-4.116c0.155-0.688,0.395-1.366,0.7-2.01
						c0.166-0.318,0.322-0.619,0.545-0.951c0.242-0.378,0.342-0.494,0.59-0.825c1.242-1.552,2.09-3.409,2.172-5.408
						C46.113,6.256,45.332,4.115,44.09,2z"/>
				</g>
			</g>
		</g>
		<g>
			<path fill="#FFE299" d="M17.095,39.842c-3.335,0-8.056-1.55-9.061-4.256c-0.422-1.139-0.35-2.917,2.404-4.924
				c4.595-3.349,10.254-1.413,15.246,0.295c2.778,0.95,5.402,1.848,7.669,1.848c3.974,0,6.714-1.182,9.131-2.225
				c2.614-1.128,5.083-2.191,8.437-1.466c3.125,0.678,5.208,2.918,5.067,5.45c-0.124,2.232-2.112,4.788-7.324,5.267l-0.095-1.127
				c4.527-0.414,6.245-2.443,6.342-4.205c0.109-1.958-1.621-3.717-4.207-4.277c-3.032-0.655-5.246,0.299-7.809,1.403
				c-2.51,1.083-5.355,2.309-9.542,2.309c-2.438,0-5.142-0.924-8.003-1.903c-4.986-1.704-10.143-3.468-14.297-0.438
				c-1.748,1.272-2.425,2.479-2.015,3.583c0.851,2.292,5.949,3.922,9.134,3.467l0.146,1.121
				C17.941,39.815,17.53,39.842,17.095,39.842z"/>
		</g>
		<g>
			<path fill="#FFE299" d="M40.077,39.587c-2.15,0-4.406-0.604-6.646-1.787c-8.776-4.643-15.507-3.488-18.101-2.074l-0.498-1.002
				c0.844-0.46,3.24-1.513,7.275-1.362c3.805,0.143,7.777,1.297,11.809,3.43c5.897,3.119,11.578,1.793,14.826-3.46l0.904,0.615
				c-1.742,2.82-4.182,4.669-7.053,5.351C41.778,39.49,40.936,39.587,40.077,39.587z"/>
		</g>
		<g>
			<path fill="#FFE299" d="M33.103,41.161c-5.971-3.28-11.205-0.051-11.257-0.018l-0.558-0.968
				c0.234-0.148,5.812-3.588,12.314-0.017L33.103,41.161z"/>
		</g>
		<g>
			<path fill="#E8E8E8" d="M31.999,44.518c-14.504,0-26.604-4.091-29.393-9.528C7.707,49.117,18.95,58.936,31.999,58.936
				c13.05,0,24.293-9.818,29.395-23.946C58.604,40.427,46.503,44.518,31.999,44.518z"/>
		</g>
		<g>
			<g>
				<path fill="#B2C1C0" d="M16.166,49.804c-0.985-0.315-1.976-0.661-2.971-1.034c-0.55-0.807-1.106-1.615-1.673-2.428
					c0.317,0.119,0.633,0.234,0.949,0.349c0.341,0.507,0.678,1.012,1.012,1.517c0.428,0.153,0.854,0.302,1.278,0.444
					c-0.647-1.033-1.307-2.071-1.979-3.113c-1.329-0.445-2.669-0.938-4.019-1.475c-0.229-0.307-0.458-0.611-0.689-0.918
					c1.739,0.69,3.46,1.311,5.167,1.854C14.245,46.607,15.22,48.209,16.166,49.804z"/>
			</g>
		</g>
		<g>
			<g>
				<path fill="#B2C1C0" d="M21.419,51.221c-1.012-0.22-2.025-0.472-3.045-0.756c-0.395-0.757-0.797-1.518-1.204-2.276
					c0.354,0.099,0.71,0.192,1.063,0.284c0.239,0.476,0.476,0.951,0.71,1.427c0.378,0.096,0.755,0.19,1.132,0.279
					c-0.445-0.977-0.899-1.957-1.361-2.937c-1.261-0.299-2.527-0.641-3.801-1.025c-0.167-0.285-0.335-0.569-0.504-0.854
					c1.701,0.512,3.389,0.95,5.065,1.315C20.142,48.195,20.79,49.711,21.419,51.221z"/>
			</g>
		</g>
		<g>
			<g>
				<path fill="#B2C1C0" d="M26.487,52.068c-0.961-0.11-1.926-0.25-2.891-0.419c-0.242-0.724-0.49-1.448-0.74-2.173
					c0.307,0.054,0.613,0.105,0.92,0.153c0.142,0.454,0.282,0.909,0.422,1.363c0.373,0.06,0.746,0.114,1.119,0.164
					c-0.249-0.941-0.502-1.884-0.762-2.826c-1.244-0.168-2.494-0.377-3.747-0.629c-0.109-0.271-0.219-0.542-0.329-0.812
					c1.674,0.336,3.339,0.601,4.998,0.791C25.823,49.145,26.16,50.608,26.487,52.068z"/>
			</g>
		</g>
		<g>
			<g>
				<path fill="#B2C1C0" d="M31.643,52.385c-0.998-0.007-1.996-0.044-2.995-0.115c-0.096-0.706-0.195-1.413-0.295-2.118
					c0.348,0.024,0.695,0.044,1.044,0.061c0.044,0.445,0.089,0.891,0.133,1.337c0.33,0.016,0.659,0.029,0.989,0.04
					c-0.056-0.926-0.111-1.852-0.169-2.777c-1.192-0.035-2.386-0.111-3.582-0.225c-0.051-0.263-0.103-0.524-0.153-0.783
					c1.657,0.156,3.311,0.241,4.963,0.254C31.599,49.501,31.621,50.943,31.643,52.385z"/>
			</g>
		</g>
		<g>
			<g>
				<path fill="#B2C1C0" d="M36.556,52.17c-0.92,0.088-1.839,0.148-2.758,0.184c0.052-0.704,0.105-1.407,0.158-2.111
					c0.304-0.013,0.607-0.025,0.912-0.042c-0.05,0.445-0.098,0.89-0.146,1.335c0.329-0.018,0.66-0.04,0.989-0.064
					c0.138-0.93,0.278-1.859,0.422-2.79c-1.195,0.089-2.388,0.141-3.581,0.152c0.006-0.259,0.012-0.519,0.017-0.777
					c1.605-0.016,3.211-0.1,4.821-0.252C37.103,49.259,36.825,50.714,36.556,52.17z"/>
			</g>
		</g>
		<g>
			<path fill="#B2C1C0" d="M41.737,51.399c-0.969,0.195-1.935,0.362-2.897,0.499c0.197-0.717,0.397-1.434,0.601-2.149
				c0.35-0.052,0.699-0.104,1.049-0.161c-0.146,0.455-0.291,0.911-0.436,1.367c0.291-0.048,0.582-0.098,0.873-0.149
				c0.332-0.955,0.671-1.91,1.016-2.867c-1.158,0.208-2.313,0.38-3.464,0.516c0.063-0.263,0.126-0.525,0.19-0.788
				c1.611-0.189,3.229-0.449,4.854-0.775C42.911,48.396,42.315,49.899,41.737,51.399z"/>
		</g>
		<g>
			<path fill="#B2C1C0" d="M46.854,50.11c-0.941,0.283-1.878,0.541-2.811,0.772c0.349-0.747,0.702-1.493,1.062-2.242
				c0.31-0.077,0.62-0.154,0.93-0.237c-0.243,0.477-0.484,0.953-0.724,1.429c0.336-0.089,0.673-0.181,1.01-0.277
				c0.536-1,1.082-2.002,1.639-3.008c-1.223,0.346-2.438,0.651-3.648,0.919c0.119-0.273,0.24-0.545,0.361-0.817
				c1.63-0.36,3.269-0.788,4.922-1.285C48.653,46.95,47.74,48.532,46.854,50.11z"/>
		</g>
		<g>
			<path fill="#B2C1C0" d="M52.181,48.237c-1.001,0.401-1.996,0.771-2.985,1.114c0.501-0.79,1.01-1.582,1.526-2.376
				c0.359-0.125,0.72-0.252,1.08-0.383c-0.344,0.508-0.687,1.015-1.025,1.521c0.3-0.108,0.6-0.22,0.899-0.334
				c0.74-1.067,1.496-2.14,2.265-3.213c-1.246,0.473-2.484,0.904-3.717,1.298c0.18-0.288,0.358-0.576,0.539-0.865
				c1.707-0.545,3.428-1.163,5.166-1.854C54.642,44.852,53.392,46.55,52.181,48.237z"/>
		</g>
	</g>
	<g>
		<g>
			<path fill="#FFE299" d="M24.709,10.87l-0.511-0.952c2.645-1.419,3.814-6.114,3.825-6.162l1.05,0.255
				C29.022,4.223,27.78,9.222,24.709,10.87z"/>
		</g>
		<g>
			<path fill="#FFE299" d="M31.012,10.405l-0.899-0.599c0.018-0.026,1.729-2.619,2.124-5.147l1.067,0.167
				C32.87,7.594,31.087,10.292,31.012,10.405z"/>
		</g>
		<g>
			<polygon fill="#D3976E" points="61.999,10.225 21.417,2.614 21.204,3.686 61.569,13.333 			"/>
		</g>
		<g>
			<polygon fill="#D3976E" points="59.691,19.323 21.05,4.792 20.651,5.811 58.728,22.311 			"/>
		</g>
		<g>
			<path fill="#FFE299" d="M27.156,10.934c-0.56,0-1.11-0.28-1.536-0.791c-1.229-1.473-0.635-4.587,0.18-6.328
				c0.383-0.817,1.02-1.794,1.871-1.794c0.615,0,0.958,0.268,1.138,0.494c0.46,0.577,0.287,1.398,0.267,1.491l-1.053-0.243
				l0.526,0.121l-0.528-0.116c0.037-0.168,0.037-0.464-0.058-0.58c-0.048-0.059-0.146-0.087-0.292-0.087
				c-0.07,0-0.453,0.219-0.909,1.21c-0.773,1.681-1.093,4.205-0.313,5.139c0.242,0.291,0.521,0.433,0.781,0.399
				c0.316-0.039,0.633-0.344,0.867-0.833l0.975,0.466c-0.402,0.841-1.01,1.351-1.709,1.439
				C27.294,10.93,27.225,10.934,27.156,10.934z"/>
		</g>
		<g>
			<path fill="#FFE299" d="M29.475,11.459c-0.567,0-1.122-0.298-1.512-0.82c-1.821-2.442-0.774-5.769,0.312-7.293
				c0.646-0.904,1.34-1.294,1.955-1.098C30.847,2.446,31.16,3.15,31.16,4.34h-1.081c0-0.757-0.141-1-0.186-1.057
				c-0.154,0.032-0.657,0.392-1.154,1.389c-0.719,1.437-1.125,3.692,0.09,5.319c0.195,0.264,0.467,0.409,0.706,0.383
				c0.276-0.03,0.442-0.282,0.532-0.486l0.988,0.437c-0.285,0.646-0.795,1.055-1.4,1.124C29.595,11.454,29.535,11.459,29.475,11.459
				z"/>
		</g>
		<g>
			<path fill="#FFE299" d="M26.702,40.134c0.493-2.001,1.055-4.27-0.206-9.378c-0.975-3.947,0.274-6.704,1.376-9.138
				c0.779-1.72,1.451-3.205,1.275-4.873c-0.941-8.872,0.501-13.276,2.165-14.439c0.467-0.325,0.972-0.396,1.39-0.189
				c0.442,0.217,0.713,0.701,0.742,1.329c0.018,0.373-0.03,0.846-0.145,1.404l-1.059-0.215c0.094-0.465,0.139-0.858,0.124-1.137
				c-0.013-0.257-0.093-0.389-0.14-0.412c-0.033-0.017-0.139-0.002-0.294,0.104c-1.085,0.759-2.665,4.441-1.71,13.441
				c0.207,1.96-0.557,3.647-1.365,5.434c-1.08,2.383-2.196,4.849-1.312,8.432c1.324,5.367,0.729,7.772,0.206,9.896
				C27.437,41.662,26.377,41.448,26.702,40.134z"/>
		</g>
	</g>
</g>
</svg>
