<?xml version="1.0" encoding="utf-8"?>
<!-- Generator: Adobe Illustrator 15.0.0, SVG Export Plug-In . SVG Version: 6.00 Build 0)  -->
<!DOCTYPE svg PUBLIC "-//W3C//DTD SVG 1.1//EN" "http://www.w3.org/Graphics/SVG/1.1/DTD/svg11.dtd">
<svg version="1.1" id="Layer_1" xmlns="http://www.w3.org/2000/svg" xmlns:xlink="http://www.w3.org/1999/xlink" x="0px" y="0px"
	 width="64px" height="64px" viewBox="0 0 64 64" enable-background="new 0 0 64 64" xml:space="preserve">
<g>
	<g>
		<path fill="#94989B" d="M57.977,49.179c0,7.067-11.627,12.797-25.976,12.797c-14.352,0-25.975-5.729-25.975-12.797
			c0-7.064,11.623-12.795,25.975-12.795C46.35,36.384,57.977,42.114,57.977,49.179z"/>
	</g>
	<g>
		<path fill="#C7D7D7" d="M62,43.963c0,8.649-13.43,15.658-30.001,15.658C15.432,59.621,2,52.612,2,43.963
			c0-8.645,13.432-15.655,29.999-15.655C48.57,28.308,62,35.318,62,43.963z"/>
	</g>
	<g>
		<path fill="#94989B" d="M56.702,42.626c0,5.758-11.058,10.428-24.701,10.428c-13.64,0-24.699-4.67-24.699-10.428
			c0-5.752,11.059-10.42,24.699-10.42C45.645,32.206,56.702,36.874,56.702,42.626z"/>
	</g>
</g>
<g>
	<path fill="#D3976E" d="M50.21,50.524c-2.811,0.508-3.263,3.717-11.424,2.92c-3.788-0.369-5.968,0.82-10.718,1.184
		S-1.78,50.174,8.361,38.685c10.142-11.487,48.391-6.243,48.813,1.219C57.595,47.366,52.442,50.121,50.21,50.524z"/>
</g>
<g>
	<path fill="#839391" d="M8.431,19.364c-0.895,0.569,0.234,0.658,0.234,0.658s10.18-3.482,10.656-2.533
		c0.478,0.951-10.334,3.967-10.108,5.214c0.209,1.163,10.965-3.407,11.22-2.375c0.252,1.033-9.812,4.835-9.812,4.835
		s-0.808,0.786,0.248,0.655c12.957-1.611,17.05-5.543,17.05-5.543s0.895-0.734,0.572-1.611c-0.029-0.078,28.415-10.23,32.235-11.605
		c1.855-0.667-0.059-5.691-1.912-5.024C54.994,3.412,26.607,13.719,26.58,13.64c-0.322-0.875-1.482-0.869-1.482-0.869
		S19.404,12.359,8.431,19.364z"/>
	<g>
		<path fill="#FFE299" d="M57.582,39.737c-0.334-2.107-2.671-3.959-7.117-5.638c-2.621-2.117-6.346-2.701-8.558-2.85
			c-2.104-0.142-4.249-0.004-6.205,0.357c-0.923,0.104-1.762,0.269-2.514,0.491c-4.259-1.2-8.778-0.937-11.565-0.565
			c-1.375,0.184-2.735,0.444-4.042,0.764V18.004c0-0.41-0.336-0.743-0.75-0.743s-0.75,0.333-0.75,0.743v14.696
			c-0.952,0.276-1.863,0.583-2.717,0.917V19.128c0-0.41-0.336-0.743-0.75-0.743s-0.75,0.333-0.75,0.743v15.125
			c-1.521,0.706-2.783,1.49-3.65,2.307c-0.979,0.924-1.424,1.864-1.322,2.797c0.032,0.292,0.121,0.565,0.255,0.823
			c-0.542,0.738-0.843,1.463-0.853,2.138c-0.012,0.784,0.331,1.721,1.75,2.21c-1.033,1.074-1.173,2.153-1.097,2.878
			c0.172,1.623,1.506,3.056,3.966,4.256c3.74,1.828,6.903,2.38,9.36,2.38c0.922,0,1.739-0.079,2.455-0.196
			c1.207,0.582,2.579,0.916,4.103,0.984c0.207,0.01,0.411,0.014,0.612,0.014c2.703,0,4.856-0.783,4.954-0.818l-0.24-1.16
			C32.097,52.887,30.623,53.866,27,53c0.062-0.021,3,0,5.502-1.089c0,0,2.056,0.496,3.52,0.599c0.313,0.021,0.643,0.033,0.988,0.033
			c1.273,0,2.756-0.153,4.313-0.425c1.616-0.015,3.502-0.179,5.687-0.595c4.641-0.885,7.512-2.8,7.313-4.88
			c-0.011-0.112-0.039-0.218-0.068-0.321c0.234-0.364,0.402-0.744,0.465-1.141c0.044-0.277,0.032-0.544-0.013-0.805
			c0.658-0.425,1.216-0.868,1.651-1.325C57.354,42.007,57.766,40.894,57.582,39.737z M26.32,33.8
			c0.291,0.048,0.401,0.136,0.426,0.164c0,0.002-0.001,0.005-0.001,0.007c-2.784-0.062-5.771,0.661-9.164,2.211v-0.786
			c0.018-0.009,0.037-0.018,0.054-0.026C20.116,34.617,23.014,34.044,26.32,33.8z M43.719,49.648l-0.25-1.145
			c-0.427,0.166-0.783,0.255-1.088,0.301c0.074-0.201,0.154-0.407,0.239-0.618c1.292-0.169,2.547-0.39,3.747-0.656
			C45.84,48.434,44.878,49.184,43.719,49.648z M43.556,49.715c-0.063,0.023-0.128,0.044-0.192,0.066
			C43.427,49.76,43.49,49.738,43.556,49.715z M34.404,47.25c-3.427-0.266-6.333-1.044-8.293-2.304
			c-0.357-0.229-0.722-0.445-1.093-0.649c0.393,0.086,0.784,0.169,1.204,0.271c4.06,0.979,7.535,1.735,10.553,2.183
			c-0.058,0.125-0.107,0.248-0.151,0.372C35.907,47.205,35.176,47.25,34.404,47.25z M14.422,49.859
			c-1.178-1.171-1.793-2.557-1.656-3.656c0.671,0.559,1.507,1.056,2.507,1.464c0.858,0.351,1.781,0.615,2.732,0.791
			c0.071,0.187,0.137,0.371,0.223,0.565c0.311,0.699,0.688,1.319,1.099,1.896c-1.243-0.014-2.455-0.093-3.585-0.256
			C15.201,50.449,14.75,50.186,14.422,49.859z M17.397,44.952c-0.043,0.654,0.009,1.39,0.197,2.202
			c-1.773-0.401-3.299-1.111-4.333-1.968C14.285,44.889,15.674,44.783,17.397,44.952z M43.883,36.482
			c0.313,0.164,0.604,0.325,0.848,0.479c-0.167,0.371-0.323,0.784-0.476,1.213c-0.806-0.4-1.689-0.891-2.657-1.485
			C42.312,36.557,43.1,36.471,43.883,36.482z M47.079,37.427c0.251,0.194,0.459,0.39,0.63,0.575
			c-0.178,0.184-0.363,0.382-0.552,0.585c0.024-0.238,0.003-0.532-0.155-0.877c-0.087-0.189-0.217-0.381-0.38-0.574
			C46.779,37.225,46.936,37.315,47.079,37.427z M51.151,42.615c-0.439,0.023-0.967,0.023-1.586-0.014
			c-0.004-0.165,0.003-0.324,0.027-0.475c0.021-0.008,0.048-0.014,0.069-0.022c0.505,0.104,1.016,0.267,1.529,0.47
			C51.178,42.588,51.165,42.602,51.151,42.615z M45.104,38.579c0.136-0.38,0.273-0.738,0.417-1.051
			c0.493,0.407,0.719,0.731,0.747,0.895c-0.036,0.048-0.21,0.216-0.735,0.328C45.389,38.692,45.255,38.646,45.104,38.579z
			 M51.087,41.272c0.485-0.407,0.792-0.831,0.985-1.183c0.299,0.007,0.592,0.061,0.868,0.213c-0.009,0.014-0.014,0.025-0.022,0.04
			c-0.297,0.471-0.606,0.896-0.923,1.3C51.692,41.503,51.39,41.378,51.087,41.272z M50.221,38.134
			c-0.065-0.138-0.146-0.281-0.23-0.428c0.657-0.23,1.114-0.108,1.362,0.136C50.942,37.863,50.565,37.968,50.221,38.134z
			 M40.818,35.24c0.094,0.03,0.193,0.055,0.286,0.086c0.159,0.053,0.293,0.106,0.442,0.16c-0.492,0.089-0.961,0.192-1.365,0.302
			c-0.206-0.136-0.431-0.297-0.643-0.439C39.961,35.308,40.383,35.267,40.818,35.24z M18.502,40.151
			c-1.466,0.581-3.319,1.117-5.208,1.191c0.043-0.094,0.071-0.196,0.071-0.307V40.7c0.923-0.159,1.834-0.437,2.717-0.799v0.013
			C16.082,40.323,21.305,39.04,18.502,40.151z M14.342,39.263c0.504-0.36,1.097-0.714,1.74-1.062v0.436
			C15.51,38.881,14.931,39.097,14.342,39.263z M16.082,36.899c-1.119,0.575-2.013,1.152-2.717,1.719v-0.151
			c0.483-0.486,1.409-1.331,2.717-2.188V36.899z M18.296,45.062c0.118,0.017,0.221,0.021,0.342,0.041
			c-0.152,0.69-0.183,1.378-0.09,2.049C18.341,46.415,18.253,45.717,18.296,45.062z M47.117,48.204
			c0.174-0.309,0.301-0.625,0.395-0.945c0.496-0.126,0.98-0.259,1.451-0.398c0.266,0.471,0.588,0.929,0.962,1.367
			c-0.809,0.391-1.754,0.786-2.862,1.176c-0.475,0.167-0.957,0.324-1.441,0.473C46.248,49.399,46.764,48.833,47.117,48.204z
			 M11.865,40.153c-0.268,0.365-0.473,0.723-0.616,1.066c-0.62-0.105-1.23-0.277-1.818-0.541c-0.356-0.159-0.641-0.334-0.889-0.513
			c0.776-0.759,1.896-1.586,3.323-2.39V40.153z M9.517,46.022c0.108-0.359,0.369-0.752,0.797-1.138
			c0.305,0.015,0.615,0.024,0.936,0.024c0.005,0,0.011-0.001,0.017-0.001c-0.569,0.469-0.949,1.053-1.096,1.741
			c-0.112,0.523-0.08,1.05,0.069,1.565C9.696,47.587,9.281,46.81,9.517,46.022z M11.036,46.979c0.092-0.431,0.389-0.841,0.881-1.185
			c-0.252,1.368,0.234,2.924,1.332,4.306c-0.083-0.027-0.159-0.062-0.24-0.091C11.458,48.963,10.864,47.781,11.036,46.979z
			 M19.533,45.271c0.942,0.192,1.952,0.449,3.051,0.802c1.212,0.389,2.315,0.716,3.348,1c-0.949,0.041-1.995,0.132-3.175,0.302
			c-1.092,0.157-2.173,0.173-3.21,0.086C19.352,46.75,19.34,46.012,19.533,45.271z M40.302,48.418
			c-0.052,0.377,0.02,0.742,0.218,1.026c0.43,0.616,1.369,0.759,2.572,0.422c-1.537,0.451-3.328,0.41-4.921-0.412
			c-0.523-0.271-0.749-0.583-0.828-0.894C38.302,48.555,39.295,48.498,40.302,48.418z M51.845,47.142
			c-0.249-0.268-0.525-0.601-0.801-0.981c0.315-0.119,0.62-0.242,0.916-0.367c0.459,0.119,0.803,0.274,1.039,0.439
			C52.703,46.52,52.316,46.825,51.845,47.142z M17.582,33.517c1.229-0.303,2.517-0.554,3.834-0.737
			c-1.465,0.303-2.744,0.798-3.834,1.333V33.517z M16.082,33.923v0.732c-0.944,0.328-1.854,0.687-2.717,1.081v-0.878
			C14.209,34.52,15.12,34.206,16.082,33.923z M7.783,39.183c-0.047-0.429,0.299-1.026,0.95-1.639
			c0.749-0.706,1.827-1.394,3.132-2.025v0.958c-1.696,0.91-3.068,1.894-4.02,2.876C7.826,39.296,7.789,39.238,7.783,39.183z
			 M7.194,42.343c0.005-0.359,0.223-0.825,0.613-1.344c0.347,0.302,0.79,0.575,1.337,0.82c0.559,0.25,1.173,0.411,1.81,0.531
			c-0.015,0.143-0.023,0.281-0.023,0.415c-0.625,0.232-1.19,0.508-1.694,0.823C7.967,43.421,7.185,42.949,7.194,42.343z
			 M7.838,47.237c-0.082-0.773,0.416-1.438,0.847-1.86c0.037-0.036,0.085-0.068,0.125-0.104c-0.042,0.101-0.096,0.197-0.127,0.301
			c-0.244,0.813-0.358,2.439,1.622,4.209c0.622,0.556,1.421,0.981,2.322,1.319c0.085,0.057,0.169,0.114,0.258,0.169
			c-0.541-0.22-1.092-0.46-1.661-0.738C9.188,49.539,7.955,48.339,7.838,47.237z M32.596,49.446
			c-0.033,0.007-0.697,0.152-1.772,0.349c-0.727-0.504-0.968-0.937-0.973-0.946l-0.376,0.332l-0.381,0.318
			c0.032,0.067,0.135,0.267,0.36,0.532c-0.728,0.119-1.561,0.243-2.451,0.36l-0.396-0.875c-0.019,0.016-0.739,0.573-1.95,1.145
			c-0.746,0.072-1.512,0.133-2.289,0.179c-0.297-0.189-0.593-0.391-0.884-0.62c-0.586-0.462-1.043-0.979-1.388-1.525
			c0.928,0.042,1.858,0.005,2.757-0.125c7.673-1.107,9.967,0.976,9.991,0.998l0.265-0.486l-0.271,0.48l0.541-0.962
			c-0.015-0.015-0.089-0.082-0.217-0.176c0.383,0.023,0.731,0.012,1.094,0.015c0.707,0.058,1.428,0.101,2.174,0.114
			c0.087,0.865,0.571,1.586,1.417,2.022c0.101,0.052,0.205,0.088,0.308,0.135c-2.759-0.392-4.06-1.219-4.082-1.233l-0.403,1.075
			c0.054,0.036,0.511,0.333,1.411,0.659c-0.992-0.127-1.804-0.323-2.47-0.55c0.061-0.013,0.11-0.024,0.134-0.029L32.596,49.446z
			 M55.113,42.73c0.003-0.04,0.01-0.079,0.011-0.119c0.507-0.514,0.773-1.062,0.819-1.663c0.078-1.009-0.475-2.005-1.699-3.069
			c-0.09-0.29-0.212-0.546-0.348-0.761c-0.06-0.094-0.14-0.177-0.209-0.266c2.306,1.326,2.907,2.457,3.014,3.135
			c0.106,0.668-0.196,1.381-0.899,2.118C55.601,42.316,55.37,42.525,55.113,42.73z"/>
		<path fill="#FFE299" d="M10.504,33.775c0.414,0,0.75-0.333,0.75-0.742v-12.75c0-0.41-0.336-0.743-0.75-0.743
			s-0.75,0.333-0.75,0.743v12.75C9.754,33.442,10.09,33.775,10.504,33.775z"/>
		<path fill="#FFE299" d="M14.722,28.69c0.414,0,0.75-0.333,0.75-0.743V15.198c0-0.41-0.336-0.743-0.75-0.743
			s-0.75,0.333-0.75,0.743v12.749C13.972,28.357,14.308,28.69,14.722,28.69z"/>
		<path fill="#FFE299" d="M18.941,26.871c0.414,0,0.75-0.333,0.75-0.743V13.379c0-0.41-0.336-0.743-0.75-0.743
			s-0.75,0.333-0.75,0.743v12.749C18.191,26.539,18.527,26.871,18.941,26.871z"/>
	</g>
</g>
<g>
	<path fill="#EC6430" d="M15.163,41.069c1.047,1.953,2.451,0.843,3.151,3.005c0.7,2.161,2.44-0.16,3.903,1.149
		c1.463,1.309,3.61-1.643,4.634-0.305c1.024,1.338,0.872,0.946,2.528,1.239c1.656,0.294,1.894-0.927,3.88-0.255
		c1.985,0.673,1.521-0.733,2.877-0.104c1.355,0.629,1.926-0.107,3.506-0.063s1.119-1.73,3.594-1.09
		c2.474,0.641,0.69-1.852,3.796-1.653c3.106,0.197-2.396-6.266-5.065-5.487c-2.671,0.776-3.103-2.005-4.886-1.889
		c-1.783,0.117-0.754-2.76-2.661-2.434s-3.014-0.827-4.917,0.312c-1.904,1.139-4.023,0.677-4.601,1.316s-0.371,0.224-2.182,0.944
		c-1.812,0.722-3.465,0.83-3.465,0.83S13.813,38.55,15.163,41.069z"/>
</g>
<g>
	<polygon fill="#EF4D3C" points="37.244,36.479 37.623,38.529 39.09,39.865 38.345,37.282 37.244,36.479 	"/>
</g>
<g>
	<polygon fill="#EF4D3C" points="19.173,41.317 21.916,41.681 19.919,44.086 19.173,41.317 	"/>
</g>
<g>
	<polygon fill="#EF4D3C" points="19.745,37.695 16.411,40.286 19,40 19.745,37.695 	"/>
</g>
<g>
	<polygon fill="#EF4D3C" points="22.076,37.695 20.335,40.286 22.076,39.745 22.076,37.695 	"/>
</g>
<g>
	<polygon fill="#EF4D3C" points="24.345,36.785 26.932,35.497 28.745,35.421 27.242,36.785 24.345,36.785 	"/>
</g>
<g>
	<polygon fill="#EF4D3C" points="23.678,38.952 23.345,41.574 24.325,41.163 25.411,39.318 23.678,38.952 	"/>
</g>
<g>
	<polygon fill="#EF4D3C" points="23.15,43.964 25.57,41.816 26.496,40.286 26.496,42.762 24.133,44.31 23.15,43.964 	"/>
</g>
<g>
	<polygon fill="#EF4D3C" points="33.871,34.049 35.409,35.406 34.646,36.889 32,35 33.871,34.049 	"/>
</g>
<g>
	<polygon fill="#EF4D3C" points="27.611,38.335 30.478,37.206 29,40 27.611,38.335 	"/>
</g>
<g>
	<polygon fill="#EF4D3C" points="28.345,41.66 28.068,44.175 30,45 28.345,41.66 	"/>
</g>
<g>
	<polygon fill="#EF4D3C" points="30.145,39.923 31.229,42.629 32.535,44.612 32.002,41.308 30.145,39.923 	"/>
</g>
<g>
	<polygon fill="#EF4D3C" points="34.332,43.964 36.842,42.983 36.842,44.612 34.332,44.967 34.332,43.964 	"/>
</g>
<g>
	<polygon fill="#EF4D3C" points="35.421,38.277 35,41 36.807,41.96 36.807,39.458 35.421,38.277 	"/>
</g>
<g>
	<polygon fill="#EF4D3C" points="39.428,40.802 39,43 40.104,44.612 42,42 39.428,40.802 	"/>
</g>
<g>
	<polygon fill="#EF4D3C" points="40.082,38.898 41.652,38.687 43.203,38.898 42.053,40.011 40.082,38.898 	"/>
</g>
<g>
	<polygon fill="#EF4D3C" points="43.178,40.705 46,41 45.378,42.506 44.428,43.508 43.678,41.96 43.178,40.705 	"/>
</g>
<g>
	<g>
		<polygon fill="#8CC63E" points="26.585,33.011 25.229,34.787 25.817,35.715 27.086,33.706 26.585,33.011 		"/>
	</g>
	<g>
		<polygon fill="#8CC63E" points="26.89,35.739 26.401,36.841 28.164,38.952 28.406,37.346 26.89,35.739 		"/>
	</g>
	<g>
		<polygon fill="#8CC63E" points="24.603,36.278 23.908,36.701 24.218,38.729 24.753,38.397 24.603,36.278 		"/>
	</g>
	<g>
		<polygon fill="#8CC63E" points="29.323,33.754 30.692,35.896 29.971,36.263 28.894,34.488 29.323,33.754 		"/>
	</g>
	<g>
		<polygon fill="#8CC63E" points="31.125,34.867 31.474,37.927 32.288,37.56 31.885,35.112 31.125,34.867 		"/>
	</g>
	<g>
		<polygon fill="#8CC63E" points="33.203,37.061 33.746,38.866 34.609,38.866 33.746,36.724 33.203,37.061 		"/>
	</g>
	<g>
		<polygon fill="#8CC63E" points="33.86,36.061 32.785,34.652 33.252,33.918 34.258,35.509 33.86,36.061 		"/>
	</g>
	<g>
		<polygon fill="#8CC63E" points="36.154,33.754 34.785,35.896 35.506,36.263 36.583,34.488 36.154,33.754 		"/>
	</g>
	<g>
		<polygon fill="#8CC63E" points="35.861,37.626 36.303,38.376 37.684,36.533 36.947,36.011 35.861,37.626 		"/>
	</g>
	<g>
		<polygon fill="#8CC63E" points="33.893,32.926 31.785,32.973 32.057,33.938 33.766,33.842 33.893,32.926 		"/>
	</g>
</g>
</svg>
