<?xml version="1.0" encoding="utf-8"?>
<!-- Generator: Adobe Illustrator 15.0.0, SVG Export Plug-In . SVG Version: 6.00 Build 0)  -->
<!DOCTYPE svg PUBLIC "-//W3C//DTD SVG 1.1//EN" "http://www.w3.org/Graphics/SVG/1.1/DTD/svg11.dtd">
<svg version="1.1" id="Layer_1" xmlns="http://www.w3.org/2000/svg" xmlns:xlink="http://www.w3.org/1999/xlink" x="0px" y="0px"
	 width="64px" height="64px" viewBox="0 0 64 64" enable-background="new 0 0 64 64" xml:space="preserve">
<path fill="#CED74D" d="M47.574,27.752c-3.767-6.16-3.546-16.682-13.394-16.692c-9.862-0.01-8.874,10.532-12.615,16.692
	c-2.73,4.499-8.233,10.616-8.224,17.23c0.028,22.69,42.52,22.69,42.492,0C55.825,38.36,50.333,32.261,47.574,27.752z"/>
<path fill="#947151" d="M35.169,2.077c-0.124-0.271-1.145,0.245-1.046,0.526c1.666,4.72-0.376,8.33-0.863,8.816
	c-0.683,0.682,0.897,1.338,1.608,0.351C35.017,11.565,37.323,6.784,35.169,2.077z"/>
<g>
	<path fill-rule="evenodd" clip-rule="evenodd" fill="#8CC63E" d="M21.167,5.234C16.591,10.719,9,13.078,9,13.078
		s15.468,3.828,23.642-4.091c2.309-2.238,1.922-6.021,1.922-6.021S25.803-0.32,21.167,5.234z"/>
	<path fill="#7FB539" d="M34.563,2.966c-1.055,0.008-2.168,0.135-3.305,0.363c-1.138,0.246-2.293,0.626-3.409,1.105
		c-2.25,0.968-4.211,2.324-6.152,3.555c-1.933,1.253-3.937,2.397-6.085,3.261c-2.146,0.867-4.387,1.426-6.612,1.828
		c1.08-0.066,2.195-0.228,3.322-0.443c1.129-0.239,2.272-0.555,3.406-0.958c2.277-0.799,4.422-2.008,6.387-3.268
		c1.969-1.267,3.841-2.576,5.918-3.578C30.104,3.822,32.364,3.242,34.563,2.966z"/>
</g>
</svg>
