<?xml version="1.0" encoding="utf-8"?>
<!-- Generator: Adobe Illustrator 15.0.0, SVG Export Plug-In . SVG Version: 6.00 Build 0)  -->
<!DOCTYPE svg PUBLIC "-//W3C//DTD SVG 1.1//EN" "http://www.w3.org/Graphics/SVG/1.1/DTD/svg11.dtd">
<svg version="1.1" id="Layer_1" xmlns="http://www.w3.org/2000/svg" xmlns:xlink="http://www.w3.org/1999/xlink" x="0px" y="0px"
	 width="64px" height="64px" viewBox="0 0 64 64" enable-background="new 0 0 64 64" xml:space="preserve">
<g>
	<path fill="#F6DA77" d="M62.252,47.064C62.169,22.736,41.517,2.083,17.089,2.004L2.255,62L62.252,47.064z"/>
	<path fill="#860D16" d="M54.498,48.994l2.053-0.354C55.577,29.6,41.962,9.711,15.515,7.722L15.174,9.75
		C35.524,12.288,51.956,28.717,54.498,48.994z"/>
	<path fill="#C98E52" d="M56.522,48.641l5.732-1.432C62.255,22.77,41.484,2,16.947,2l-1.433,5.72
		C38.953,9.939,54.296,25.279,56.522,48.641z"/>
	<path fill="#83BF4F" d="M13.462,41.652c-1.661,0-3.219-0.643-4.389-1.811c-0.481-0.479-0.482-1.26-0.001-1.74
		c0.465-0.467,1.279-0.469,1.743,0c1.41,1.408,3.882,1.408,5.296,0c0.705-0.705,1.092-1.643,1.092-2.641
		c0-1-0.388-1.939-1.093-2.643c-0.48-0.48-0.48-1.262-0.001-1.74c0.463-0.467,1.28-0.465,1.745,0
		c1.169,1.168,1.815,2.725,1.816,4.381c-0.001,1.656-0.646,3.213-1.815,4.381C16.683,41.01,15.123,41.652,13.462,41.652z"/>
	<path fill="#83BF4F" d="M38.569,21.899c0.036,0.164,0.034,0.33-0.004,0.493c-0.064,0.291-0.242,0.537-0.496,0.694
		c-0.251,0.158-0.553,0.208-0.843,0.142c-0.797-0.185-1.618-0.05-2.317,0.385c-0.694,0.433-1.18,1.109-1.363,1.904
		c-0.375,1.602,0.707,3.305,2.294,3.674c0.579,0.137,0.968,0.76,0.837,1.334c-0.139,0.602-0.74,0.975-1.341,0.838
		c-1.976-0.459-3.538-2.035-3.979-4.016c-0.174-0.773-0.166-1.559,0.014-2.333c0.318-1.375,1.157-2.546,2.36-3.292
		c1.201-0.752,2.626-0.988,4.002-0.668C38.147,21.154,38.479,21.485,38.569,21.899z"/>
	<path fill="#83BF4F" d="M43.918,50.881c-0.155,0.029-0.313,0.023-0.465-0.018c-0.274-0.074-0.503-0.248-0.644-0.494
		c-0.139-0.242-0.178-0.527-0.104-0.801c0.203-0.744,0.1-1.523-0.287-2.195c-0.385-0.674-1.011-1.154-1.76-1.354
		c-1.502-0.408-3.154,0.553-3.557,2.037c-0.148,0.545-0.751,0.891-1.295,0.746c-0.563-0.15-0.896-0.732-0.747-1.293
		c0.505-1.85,2.048-3.27,3.941-3.619c0.738-0.137,1.483-0.104,2.21,0.092c1.293,0.348,2.372,1.178,3.042,2.338
		c0.667,1.162,0.843,2.512,0.494,3.799C44.641,50.51,44.315,50.809,43.918,50.881z"/>
	<path fill="#B21725" d="M37.12,36.201c1.391,4.094-0.847,8.531-4.993,9.906c-4.159,1.375-8.654-0.828-10.05-4.93
		c-1.396-4.092,0.843-8.531,4.995-9.908C31.228,29.896,35.72,32.104,37.12,36.201z"/>
	<path fill="#B21725" d="M49.562,36.959c0.832,2.461-0.509,5.127-3,5.955c-2.502,0.824-5.204-0.5-6.043-2.961
		c-0.834-2.463,0.511-5.129,3.008-5.957C46.017,33.176,48.722,34.5,49.562,36.959z"/>
	<path fill="#B21725" d="M29.018,19.013c1.138,3.348-0.694,6.979-4.085,8.104c-3.4,1.127-7.077-0.676-8.223-4.031
		c-1.135-3.347,0.697-6.979,4.088-8.101C24.196,13.862,27.87,15.667,29.018,19.013z"/>
	<path fill="#B21725" d="M34.357,54.008l-9.69,2.414c-0.865-2.551,0.895-5.699,3.531-6.367
		C31.394,49.246,33.488,51.459,34.357,54.008z"/>
	<path fill="#B21725" d="M19.596,47.027c1.169,3.447-0.715,7.182-4.207,8.342c-3.508,1.16-7.292-0.695-8.465-4.154
		c-1.17-3.445,0.713-7.18,4.204-8.342C14.626,41.721,18.413,43.58,19.596,47.027z"/>
	<path fill="#E0A763" d="M15.515,7.722c5.298,0.089,10.634,1.081,15.642,3.05c5.015,1.948,9.661,4.937,13.514,8.751
		c3.833,3.834,6.841,8.47,8.805,13.479c1.984,5.003,2.986,10.34,3.075,15.639c-0.919-5.217-2.329-10.303-4.511-15.024
		c-2.184-4.71-5.111-9.053-8.779-12.677c-3.639-3.654-7.994-6.566-12.711-8.736C25.821,10.034,20.733,8.636,15.515,7.722z"/>
	<g>
		
			<rect x="17.417" y="12.035" transform="matrix(0.7071 -0.7071 0.7071 0.7071 -3.9945 17.2548)" fill="#FFAB41" width="2.828" height="2.828"/>
		
			<rect x="30.339" y="17.608" transform="matrix(0.7071 -0.7071 0.7071 0.7071 -4.1507 28.0243)" fill="#FFAB41" width="2.828" height="2.828"/>
		
			<rect x="13.539" y="25.025" transform="matrix(0.7071 -0.7071 0.7071 0.7071 -14.3158 18.3174)" fill="#FFAB41" width="2.828" height="2.828"/>
		
			<rect x="20.343" y="30.67" transform="matrix(0.7071 -0.7071 0.7071 0.7071 -16.3144 24.7816)" fill="#FFAB41" width="2.828" height="2.828"/>
		
			<rect x="38.088" y="30.951" transform="matrix(0.7071 -0.7071 0.7071 0.7071 -11.3158 37.4117)" fill="#FFAB41" width="2.828" height="2.828"/>
		
			<rect x="49.639" y="45.101" transform="matrix(0.7071 -0.7071 0.7071 0.7071 -17.9382 49.7245)" fill="#FFAB41" width="2.828" height="2.828"/>
		
			<rect x="20.248" y="43.215" transform="matrix(0.7071 -0.7071 0.7071 0.7071 -25.2127 28.3889)" fill="#FFAB41" width="2.828" height="2.828"/>
		
			<rect x="21.597" y="50.471" transform="matrix(0.7071 -0.7071 0.7071 0.7071 -29.9484 31.4677)" fill="#FFAB41" width="2.828" height="2.828"/>
		
			<rect x="4.946" y="56.785" transform="matrix(0.7071 -0.7071 0.7071 0.7071 -39.2903 21.5433)" fill="#FFAB41" width="2.828" height="2.828"/>
		
			<rect x="14.366" y="16.272" transform="matrix(0.7071 -0.7071 0.7071 0.7071 -7.738 15.9847)" fill="#FFAB41" width="2.121" height="2.121"/>
		
			<rect x="27.036" y="26.826" transform="matrix(0.7071 -0.7071 0.7071 0.7071 -11.4896 28.0352)" fill="#FFAB41" width="2.121" height="2.121"/>
		
			<rect x="40.501" y="26.879" transform="matrix(0.7071 -0.7071 0.7071 0.7071 -7.5831 37.5717)" fill="#FFAB41" width="2.121" height="2.121"/>
		
			<rect x="13.892" y="35.131" transform="matrix(0.7071 -0.7071 0.7071 0.7071 -21.2115 21.1737)" fill="#FFAB41" width="2.121" height="2.121"/>
		
			<rect x="7.848" y="41.02" transform="matrix(0.7071 -0.7071 0.7071 0.7071 -27.1466 18.6243)" fill="#FFAB41" width="2.121" height="2.121"/>
		
			<rect x="5.516" y="53.449" transform="matrix(0.7071 -0.7071 0.7071 0.7071 -36.618 20.6159)" fill="#FFAB41" width="2.121" height="2.121"/>
		
			<rect x="18.339" y="54.195" transform="matrix(0.7072 -0.707 0.707 0.7072 -33.3857 29.8929)" fill="#FFAB41" width="2.122" height="2.122"/>
		
			<rect x="31.192" y="47.271" transform="matrix(0.7071 -0.7071 0.7071 0.7071 -24.7292 36.9624)" fill="#FFAB41" width="2.121" height="2.121"/>
		
			<rect x="37.534" y="49.839" transform="matrix(0.7071 -0.7071 0.7071 0.7071 -24.6872 42.1987)" fill="#FFAB41" width="2.121" height="2.121"/>
		
			<rect x="45.821" y="44.085" transform="matrix(0.7071 -0.7071 0.7071 0.7071 -18.1913 46.3733)" fill="#FFAB41" width="2.121" height="2.121"/>
	</g>
</g>
</svg>
