<?xml version="1.0" encoding="utf-8"?>
<!-- Generator: Adobe Illustrator 15.0.0, SVG Export Plug-In . SVG Version: 6.00 Build 0)  -->
<!DOCTYPE svg PUBLIC "-//W3C//DTD SVG 1.1//EN" "http://www.w3.org/Graphics/SVG/1.1/DTD/svg11.dtd">
<svg version="1.1" id="Layer_1" xmlns="http://www.w3.org/2000/svg" xmlns:xlink="http://www.w3.org/1999/xlink" x="0px" y="0px"
	 width="64px" height="64px" viewBox="0 0 64 64" enable-background="new 0 0 64 64" xml:space="preserve">
<g>
	<path fill="#F29A2E" d="M52.28,49.806c-0.684-0.684-1.792-0.684-2.475,0l0,0c-0.684,0.683-0.684,1.792,0,2.476l7.316,7.316
		c0.684,0.684,1.791,0.684,2.475,0l0,0c0.684-0.684,0.684-1.791,0-2.475L52.28,49.806z"/>
	<path fill="#DAE3EA" d="M60.74,38.578c1.566,1.566,1.689,3.983,0.273,5.398L43.977,61.014c-1.416,1.416-3.832,1.293-5.398-0.273
		l-7.67-7.67c-1.567-1.566-1.69-3.984-0.274-5.398l17.037-17.038c1.415-1.415,3.832-1.292,5.399,0.274L60.74,38.578z"/>
	<path fill="#F29A2E" d="M38.955,36.48c-0.684-0.684-1.792-0.684-2.476,0l0,0c-0.683,0.684-0.683,1.791,0,2.475l3.874,3.873
		c0.684,0.684,1.791,0.684,2.475,0l0,0c0.684-0.684,0.684-1.791,0-2.475L38.955,36.48z"/>
	
		<ellipse transform="matrix(0.7071 -0.7071 0.7071 0.7071 -12.9083 31.1638)" fill="#8E725E" cx="31.163" cy="31.163" rx="14.381" ry="12.638"/>
	<path fill="#F29A2E" d="M21.972,19.497c-0.684-0.683-1.792-0.683-2.475,0l0,0c-0.684,0.684-0.684,1.792,0,2.475l3.873,3.874
		c0.684,0.684,1.791,0.684,2.475,0l0,0c0.684-0.683,0.684-1.791,0-2.475L21.972,19.497z"/>
	<path fill="#62727A" d="M29.942,7.023c4.937,4.936-1.21,10.477-6.826,16.093C17.5,28.732,11.959,34.879,7.022,29.943
		c-2.64-2.64-5.103-21.38-1.781-24.702S27.303,4.383,29.942,7.023z"/>
	<path fill="#F29A2E" d="M4.987,2.513c-0.684-0.684-1.791-0.684-2.475,0l0,0c-0.684,0.684-0.684,1.791,0,2.475l3.873,3.874
		c0.684,0.684,1.792,0.684,2.476,0l0,0c0.684-0.684,0.684-1.792,0-2.475L4.987,2.513z"/>
</g>
</svg>
