<?xml version="1.0" encoding="utf-8"?>
<!-- Generator: Adobe Illustrator 15.0.0, SVG Export Plug-In . SVG Version: 6.00 Build 0)  -->
<!DOCTYPE svg PUBLIC "-//W3C//DTD SVG 1.1//EN" "http://www.w3.org/Graphics/SVG/1.1/DTD/svg11.dtd">
<svg version="1.1" id="Layer_1" xmlns="http://www.w3.org/2000/svg" xmlns:xlink="http://www.w3.org/1999/xlink" x="0px" y="0px"
	 width="64px" height="64px" viewBox="0 0 64 64" enable-background="new 0 0 64 64" xml:space="preserve">
<g>
	<g>
		<path fill="#8F6453" d="M32.979,15.973L5.515,22.604c0,0-3.515,6.213-3.515,12.608c0,4.259,0.895,7.723,4.387,11.449
			c3.491,3.726,3.129,3.473,3.491,5.285C10.241,53.758,13.104,62,32.223,62c0,0,0,0,0.002,0l0,0
			c19.119,0,22.309-8.212,22.345-10.054c0.048-2.438,1.26-3.015,4.752-6.74L32.979,15.973z"/>
	</g>
	<g>
		<path fill="#FFCE31" d="M55.535,12.455c-1.971-1.243-0.688-1.22-1.201-4.21C53.844,5.382,48.536,2,32.249,2
			C15.957,2,10.626,5.254,10.114,8.245c-0.512,2.99,0.695,2.857-1.202,4.21c-1.896,1.352-6.07,10.476-4.115,12.289
			c2.269,2.102,5.498-3.242,10.094-3.242c3.168,0,3.565,6.618,6.207,6.618c2.641,0,11.213-6.618,13.203-6.618
			c7.395,0,5.811,13.366,12.279,13.366c5.023,0,9.648,15.953,12.939,12.051C64.693,40.782,60.997,15.902,55.535,12.455z"/>
	</g>
	<path fill="#E3A300" d="M53.926,11.863c0,0.529-9.411,5.056-21.701,5.056c-12.291,0-21.7-4.526-21.7-5.056s9.409,3.396,21.7,3.396
		C44.515,15.259,53.926,11.334,53.926,11.863z"/>
	<path fill="#724E41" d="M54.617,49.509c0,0.529-8.045,6.338-22.4,6.338c-14.357,0-22.403-5.809-22.403-6.338
		c0-0.528,8.045,4.421,22.403,4.421C46.572,53.93,54.617,48.98,54.617,49.509z"/>
	<g>
		<path fill="#E3A300" d="M47.348,7.92c1.09-0.407,1.718-0.86,1.718-1.343c0-1.693-7.54-3.066-16.841-3.066
			s-16.84,1.373-16.84,3.066c0,0.482,0.627,0.936,1.717,1.343c2.736-1.021,8.47-1.725,15.123-1.725
			C38.878,6.195,44.612,6.899,47.348,7.92z"/>
		<path fill="#BD8800" d="M47.348,7.92c-2.735-1.021-8.47-1.725-15.123-1.725c-6.652,0-12.387,0.704-15.123,1.725
			c2.736,1.02,8.47,1.723,15.123,1.723C38.878,9.643,44.612,8.939,47.348,7.92z"/>
	</g>
</g>
</svg>
