<?xml version="1.0" encoding="utf-8"?>
<!-- Generator: Adobe Illustrator 15.0.0, SVG Export Plug-In . SVG Version: 6.00 Build 0)  -->
<!DOCTYPE svg PUBLIC "-//W3C//DTD SVG 1.1//EN" "http://www.w3.org/Graphics/SVG/1.1/DTD/svg11.dtd">
<svg version="1.1" id="Layer_1" xmlns="http://www.w3.org/2000/svg" xmlns:xlink="http://www.w3.org/1999/xlink" x="0px" y="0px"
	 width="64px" height="64px" viewBox="0 0 64 64" enable-background="new 0 0 64 64" xml:space="preserve">
<g>
	<g>
		<ellipse fill="#C1C9CB" cx="31.999" cy="57.775" rx="14.445" ry="4.225"/>
		<path fill="#ACAFB5" d="M37.165,55.656c3.515,3.345-13.848,3.345-10.333,0c5.399-5.14,5.167-31.409,5.167-31.409
			S31.897,50.643,37.165,55.656z"/>
		<path fill-rule="evenodd" clip-rule="evenodd" fill="#839391" d="M23.184,18.106c0,0-10.088-11.454-11.011-12.619
			C11.217,4.281,9.067,2.199,6.42,2.199c-5.955,0-5.834,3.974,0,4.243c3.793,0.177,13.721,13.991,13.721,13.991L23.184,18.106z"/>
		<path fill="#839391" d="M59.562,27.154c0,0,0,0.199,0.002,0.541C59.563,27.353,59.562,27.154,59.562,27.154z"/>
		<g>
			<path fill="#DFE9EB" d="M61.999,25.835c0,15.595-13.432,23.865-30,23.865c-16.57,0-30-8.27-30-23.865
				c0-10.588,13.432-14.476,30-14.476S61.999,15.248,61.999,25.835z"/>
		</g>
		<g>
			<ellipse fill="#FF78B5" cx="31.999" cy="16.25" rx="14.979" ry="14.249"/>
		</g>
		<g>
			<ellipse fill="#BEDD4B" cx="44.369" cy="26.388" rx="14.979" ry="14.25"/>
		</g>
		<g>
			<ellipse fill="#9B5C54" cx="19.629" cy="26.388" rx="14.979" ry="14.25"/>
		</g>
		<path fill="#DFE9EB" d="M58.999,18.388v5.219c0,7.188-12.088,10.362-27,10.362c-14.91,0-27-3.173-27-10.362v-5.219
			c-1.92,1.989-3,4.448-3,7.447c0,15.595,13.43,23.865,30,23.865c16.568,0,30-8.27,30-23.865
			C61.999,22.836,60.921,20.377,58.999,18.388z"/>
		<path fill="#FFFFFF" d="M60.827,27.909c0.102,1.074-0.432,2.149-1.131,2.975c-0.703,0.843-1.568,1.525-2.465,2.132
			c-1.817,1.19-3.805,2.063-5.832,2.769c-4.064,1.412-8.313,2.143-12.566,2.517c-4.262,0.328-8.549,0.265-12.779-0.256
			c-4.229-0.509-8.412-1.44-12.379-2.933c4.179,0.687,8.34,1.166,12.512,1.378c4.168,0.195,8.341,0.172,12.484-0.182
			c4.143-0.325,8.267-0.95,12.269-2.01c1.989-0.554,3.968-1.194,5.799-2.125c0.92-0.455,1.794-1.001,2.561-1.672
			C60.05,29.832,60.708,28.976,60.827,27.909z"/>
	</g>
	<g>
		
			<rect x="25.316" y="20.698" transform="matrix(0.7073 -0.7069 0.7069 0.7073 -7.6618 25.0127)" opacity="0.3" fill-rule="evenodd" clip-rule="evenodd" fill="#FFFFFF" width="2.121" height="2.122"/>
		
			<rect x="23.711" y="17.022" transform="matrix(0.7075 -0.7068 0.7068 0.7075 -5.3867 22.4443)" opacity="0.3" fill-rule="evenodd" clip-rule="evenodd" fill="#FFFFFF" width="1.414" height="1.415"/>
		
			<rect x="28.595" y="19.272" transform="matrix(0.7075 -0.7068 0.7068 0.7075 -5.5482 26.5542)" opacity="0.3" fill-rule="evenodd" clip-rule="evenodd" fill="#FFFFFF" width="1.414" height="1.415"/>
		
			<rect x="27.169" y="24.897" transform="matrix(0.7075 -0.7068 0.7068 0.7075 -9.9409 27.1921)" opacity="0.3" fill-rule="evenodd" clip-rule="evenodd" fill="#FFFFFF" width="1.414" height="1.415"/>
		
			<rect x="20.607" y="23.052" transform="matrix(0.7075 -0.7068 0.7068 0.7075 -10.5569 22.0143)" opacity="0.3" fill-rule="evenodd" clip-rule="evenodd" fill="#FFFFFF" width="1.414" height="1.415"/>
		
			<rect x="28.023" y="17.875" transform="matrix(0.7078 -0.7064 0.7064 0.7078 -4.5857 25.3718)" opacity="0.3" fill-rule="evenodd" clip-rule="evenodd" fill="#FFFFFF" width="0.706" height="0.708"/>
		
			<rect x="20.732" y="15" transform="matrix(0.7078 -0.7064 0.7064 0.7078 -4.6852 19.3812)" opacity="0.3" fill-rule="evenodd" clip-rule="evenodd" fill="#FFFFFF" width="0.706" height="0.708"/>
		
			<rect x="20.232" y="16.375" transform="matrix(0.7078 -0.7064 0.7064 0.7078 -5.8026 19.4298)" opacity="0.3" fill-rule="evenodd" clip-rule="evenodd" fill="#FFFFFF" width="0.706" height="0.708"/>
		
			<rect x="28.949" y="22.905" transform="matrix(0.7078 -0.7064 0.7064 0.7078 -7.8687 27.4956)" opacity="0.3" fill-rule="evenodd" clip-rule="evenodd" fill="#FFFFFF" width="0.706" height="0.708"/>
		
			<rect x="21.96" y="24.905" transform="matrix(0.7078 -0.7064 0.7064 0.7078 -11.3235 23.1434)" opacity="0.3" fill-rule="evenodd" clip-rule="evenodd" fill="#FFFFFF" width="0.706" height="0.708"/>
		
			<rect x="26.523" y="27.555" transform="matrix(0.7078 -0.7064 0.7064 0.7078 -11.8619 27.1406)" opacity="0.3" fill-rule="evenodd" clip-rule="evenodd" fill="#FFFFFF" width="0.706" height="0.708"/>
	</g>
	<g>
		
			<rect x="49.341" y="21.244" transform="matrix(0.7073 -0.7069 0.7069 0.7073 -1.0164 42.1554)" opacity="0.3" fill-rule="evenodd" clip-rule="evenodd" fill="#FFFFFF" width="2.121" height="2.122"/>
		
			<rect x="47.736" y="17.567" transform="matrix(0.7075 -0.7068 0.7068 0.7075 1.2557 39.5835)" opacity="0.3" fill-rule="evenodd" clip-rule="evenodd" fill="#FFFFFF" width="1.414" height="1.415"/>
		
			<rect x="42.048" y="14.901" transform="matrix(0.7075 -0.7068 0.7068 0.7075 1.4761 34.7838)" opacity="0.3" fill-rule="evenodd" clip-rule="evenodd" fill="#FFFFFF" width="1.414" height="1.415"/>
		
			<rect x="45.271" y="27.701" transform="matrix(0.7075 -0.7068 0.7068 0.7075 -6.6275 40.806)" opacity="0.3" fill-rule="evenodd" clip-rule="evenodd" fill="#FFFFFF" width="1.414" height="1.415"/>
		
			<rect x="52.618" y="19.817" transform="matrix(0.7075 -0.7068 0.7068 0.7075 1.094 43.6927)" opacity="0.3" fill-rule="evenodd" clip-rule="evenodd" fill="#FFFFFF" width="1.414" height="1.415"/>
		
			<rect x="45.753" y="20.802" transform="matrix(0.7075 -0.7068 0.7068 0.7075 -1.6102 39.1286)" opacity="0.3" fill-rule="evenodd" clip-rule="evenodd" fill="#FFFFFF" width="1.414" height="1.415"/>
		
			<rect x="52.048" y="18.421" transform="matrix(0.7078 -0.7064 0.7064 0.7078 2.0489 42.5032)" opacity="0.3" fill-rule="evenodd" clip-rule="evenodd" fill="#FFFFFF" width="0.706" height="0.708"/>
		
			<rect x="48.089" y="14.755" transform="matrix(0.7078 -0.7064 0.7064 0.7078 3.4818 38.6353)" opacity="0.3" fill-rule="evenodd" clip-rule="evenodd" fill="#FFFFFF" width="0.706" height="0.708"/>
		
			<rect x="52.972" y="23.451" transform="matrix(0.7078 -0.7064 0.7064 0.7078 -1.2346 44.6257)" opacity="0.3" fill-rule="evenodd" clip-rule="evenodd" fill="#FFFFFF" width="0.706" height="0.708"/>
		
			<rect x="47.124" y="26.035" transform="matrix(0.7078 -0.7064 0.7064 0.7078 -4.7687 41.2498)" opacity="0.3" fill-rule="evenodd" clip-rule="evenodd" fill="#FFFFFF" width="0.706" height="0.708"/>
		
			<rect x="42.902" y="18.034" transform="matrix(0.7078 -0.7064 0.7064 0.7078 -0.3505 35.929)" opacity="0.3" fill-rule="evenodd" clip-rule="evenodd" fill="#FFFFFF" width="0.706" height="0.708"/>
		
			<rect x="48.548" y="28.318" transform="matrix(0.7078 -0.7064 0.7064 0.7078 -5.9655 42.9228)" opacity="0.3" fill-rule="evenodd" clip-rule="evenodd" fill="#FFFFFF" width="0.706" height="0.708"/>
	</g>
	<g>
		
			<rect x="34.097" y="5.558" transform="matrix(0.7075 -0.7068 0.7068 0.7075 5.7538 26.4308)" opacity="0.3" fill-rule="evenodd" clip-rule="evenodd" fill="#FFFFFF" width="1.414" height="1.415"/>
		
			<rect x="35.249" y="8.546" transform="matrix(0.7075 -0.7068 0.7068 0.7075 3.9789 28.1194)" opacity="0.3" fill-rule="evenodd" clip-rule="evenodd" fill="#FFFFFF" width="1.414" height="1.415"/>
		
			<rect x="33.097" y="11.921" transform="matrix(0.7075 -0.7068 0.7068 0.7075 0.9639 27.5856)" opacity="0.3" fill-rule="evenodd" clip-rule="evenodd" fill="#FFFFFF" width="1.414" height="1.415"/>
		
			<rect x="36.552" y="5.272" transform="matrix(0.7078 -0.7064 0.7064 0.7078 6.8099 27.7142)" opacity="0.3" fill-rule="evenodd" clip-rule="evenodd" fill="#FFFFFF" width="0.706" height="0.708"/>
		
			<rect x="39.06" y="7.367" transform="matrix(0.7078 -0.7064 0.7064 0.7078 6.0622 30.0982)" opacity="0.3" fill-rule="evenodd" clip-rule="evenodd" fill="#FFFFFF" width="0.706" height="0.708"/>
		
			<rect x="33.451" y="7.867" transform="matrix(0.7078 -0.7064 0.7064 0.7078 4.0699 26.2817)" opacity="0.3" fill-rule="evenodd" clip-rule="evenodd" fill="#FFFFFF" width="0.706" height="0.708"/>
		
			<rect x="32.451" y="10.4" transform="matrix(0.7078 -0.7064 0.7064 0.7078 1.9889 26.3152)" opacity="0.3" fill-rule="evenodd" clip-rule="evenodd" fill="#FFFFFF" width="0.706" height="0.708"/>
		
			<rect x="28.949" y="4.911" transform="matrix(0.7078 -0.7064 0.7064 0.7078 4.8427 22.2377)" opacity="0.3" fill-rule="evenodd" clip-rule="evenodd" fill="#FFFFFF" width="0.706" height="0.708"/>
		
			<rect x="31.951" y="3.911" transform="matrix(0.7078 -0.7064 0.7064 0.7078 6.4263 24.0661)" opacity="0.3" fill-rule="evenodd" clip-rule="evenodd" fill="#FFFFFF" width="0.706" height="0.708"/>
	</g>
</g>
</svg>
