<?xml version="1.0" encoding="utf-8"?>
<!-- Generator: Adobe Illustrator 15.0.0, SVG Export Plug-In . SVG Version: 6.00 Build 0)  -->
<!DOCTYPE svg PUBLIC "-//W3C//DTD SVG 1.1//EN" "http://www.w3.org/Graphics/SVG/1.1/DTD/svg11.dtd">
<svg version="1.1" id="Layer_1" xmlns="http://www.w3.org/2000/svg" xmlns:xlink="http://www.w3.org/1999/xlink" x="0px" y="0px"
	 width="64px" height="64px" viewBox="0 0 64 64" enable-background="new 0 0 64 64" xml:space="preserve">
<g>
	<g>
		<path fill="#F29A2E" d="M57.702,61.313c1.057,1.063,2.471,0.808,3.463-0.19l0,0c0.988-1,1.183-2.364,0.126-3.428L32.605,28.861
			c-1.057-1.063-2.718-1.112-3.71-0.114l0,0c-0.99,0.998-0.937,2.671,0.123,3.731L57.702,61.313z"/>
		<path fill="#FBBF67" d="M28.886,28.756c-0.734,0.742-0.473,2.21,0.586,3.271l28.701,28.819c1.056,1.06,2.264,1.012,3,0.266
			c0.735-0.743,0.723-1.899-0.338-2.964L32.134,29.329C31.075,28.268,29.622,28.012,28.886,28.756z"/>
	</g>
	<g>
		<g>
			<path fill="#B2F25E" d="M37.798,34.125c2.036,4.237,3.182,9.244,2.574,14.701c0.752-0.47,1.475-0.97,2.17-1.498
				c2.096-1.613,3.148-3.543,3.448-5.245c0.304-1.718-0.122-3.235-0.927-4.429c-0.804-1.199-1.988-2.083-3.279-2.664
				C40.493,34.41,39.095,34.127,37.798,34.125z"/>
			<path fill="#A93FEB" d="M33.708,35.386c-0.141,0.104-0.279,0.21-0.421,0.308c0.669,2.555,0.894,5.319,0.534,8.159
				c-0.356,2.836-1.307,5.747-2.875,8.514c3.369-0.526,6.612-1.779,9.426-3.54c0.607-5.457-0.538-10.464-2.574-14.701
				C36.248,34.125,34.876,34.489,33.708,35.386z"/>
			<path fill="#B2F25E" d="M29.337,37.478c-0.26,2.612-1.115,5.247-2.551,7.713c-1.43,2.466-3.436,4.75-5.893,6.689
				c3.227,0.822,6.684,1.021,10.053,0.486c1.57-2.767,2.52-5.678,2.875-8.514c0.359-2.84,0.135-5.604-0.534-8.159
				C32.029,36.577,30.706,37.173,29.337,37.478z"/>
			<path fill="#A93FEB" d="M25.116,37.531c-2.552,4.598-7.29,8.292-13.109,10.271c2.649,1.834,5.654,3.26,8.887,4.077
				c2.459-1.939,4.463-4.224,5.893-6.69c1.436-2.467,2.291-5.101,2.551-7.712C27.972,37.783,26.549,37.805,25.116,37.531z"/>
			<path fill="#B2F25E" d="M20.896,35.857c-1.025,0.823-2.146,1.562-3.341,2.206c-0.607,0.315-1.192,0.646-1.82,0.915
				c-0.628,0.276-1.278,0.51-1.959,0.704c-2.708,0.775-5.8,0.851-8.937,0.187c0.854,1.599,1.915,3.122,3.165,4.49
				c0.624,0.685,1.295,1.331,2.004,1.928l0.538,0.438l0.481,0.37c0.322,0.24,0.648,0.478,0.979,0.707
				c5.819-1.979,10.558-5.674,13.109-10.271C23.683,37.26,22.245,36.688,20.896,35.857z"/>
			<path fill="#A93FEB" d="M18.042,33.23c-2.429,0.767-5.175,0.834-7.922,0.227c-2.756-0.604-5.512-1.873-8.075-3.705
				c0.202,3.426,1.085,6.91,2.795,10.117c3.138,0.664,6.229,0.589,8.937-0.187c0.68-0.194,1.33-0.428,1.959-0.704
				c0.628-0.27,1.213-0.6,1.82-0.915c1.196-0.645,2.316-1.383,3.342-2.206c-0.646-0.396-1.426-0.976-1.752-1.291
				C18.733,34.183,18.364,33.739,18.042,33.23z"/>
			<path fill="#B2F25E" d="M16.778,29.521c-5.076-1.023-9.988-4.532-13.418-9.793c-1.045,3.194-1.516,6.593-1.315,10.024
				c2.562,1.833,5.319,3.102,8.075,3.705c2.747,0.607,5.493,0.54,7.922-0.227C17.397,32.222,16.946,30.936,16.778,29.521z"/>
			<path fill="#A93FEB" d="M17.104,25.123c-4.286-2.977-7.625-7.993-8.963-14.165c-2.104,2.587-3.738,5.575-4.783,8.769
				c3.432,5.26,8.343,8.769,13.418,9.793C16.604,28.107,16.714,26.583,17.104,25.123z"/>
			<path fill="#B2F25E" d="M19.042,21.036c-1.457-2.183-2.542-4.746-3.116-7.536c-0.556-2.808-0.485-5.901,0.265-9.041
				c-1.572,0.774-3.07,1.736-4.439,2.854c-0.684,0.558-1.342,1.16-1.949,1.785c-0.58,0.592-1.133,1.215-1.66,1.86
				c1.336,6.172,4.676,11.188,8.963,14.165C17.493,23.658,18.155,22.265,19.042,21.036z"/>
			<path fill="#A93FEB" d="M22.062,18.196c-0.573-2.541-0.514-5.319,0.18-8.095c0.693-2.772,2.01-5.539,3.869-8.088
				c-3.35,0.106-6.771,0.893-9.92,2.446c-0.75,3.139-0.82,6.233-0.265,9.04c0.574,2.79,1.661,5.354,3.116,7.537
				c0.222-0.308,0.459-0.604,0.711-0.891c0.246-0.281,0.527-0.578,0.75-0.785C20.979,18.91,21.497,18.522,22.062,18.196z"/>
			<path fill="#B2F25E" d="M25.918,16.989c1.185-5.124,4.747-10.022,9.95-13.426c-3.098-1.108-6.402-1.659-9.758-1.55
				c-1.858,2.55-3.178,5.315-3.869,8.088c-0.693,2.775-0.753,5.554-0.18,8.095C23.182,17.541,24.495,17.123,25.918,16.989z"/>
			<path fill="#A93FEB" d="M30.314,17.437c3.043-4.286,7.988-7.63,14.086-8.904c-2.532-2.183-5.436-3.862-8.532-4.969
				c-5.203,3.403-8.766,8.302-9.95,13.426C27.339,16.851,28.859,17.005,30.314,17.437z"/>
			<path fill="#B2F25E" d="M34.351,19.484c1.08-0.729,2.252-1.361,3.499-1.88c1.253-0.513,2.55-0.942,3.94-1.186
				c2.771-0.501,5.828-0.336,8.905,0.584c-0.72-1.662-1.64-3.242-2.721-4.681c-0.542-0.719-1.125-1.403-1.739-2.047
				c-0.609-0.636-1.199-1.189-1.836-1.741c-6.097,1.274-11.044,4.618-14.086,8.902C31.77,17.865,33.157,18.57,34.351,19.484z"/>
			<path fill="#A93FEB" d="M36.991,22.492c2.495-0.536,5.224-0.394,7.914,0.456c2.688,0.845,5.335,2.393,7.683,4.558
				c0.171-3.539-0.452-7.176-1.893-10.503c-3.077-0.92-6.134-1.085-8.905-0.584c-1.391,0.243-2.688,0.673-3.941,1.186
				c-1.246,0.52-2.42,1.152-3.499,1.88c0.298,0.229,0.585,0.471,0.86,0.725c0.135,0.127,0.271,0.259,0.399,0.39
				c0.111,0.115,0.22,0.23,0.324,0.352C36.349,21.428,36.705,21.94,36.991,22.492z"/>
			<path fill="#B2F25E" d="M37.915,26.178c4.94,1.409,9.48,5.539,11.972,11.438c1.596-3.104,2.534-6.566,2.7-10.111
				c-2.347-2.165-4.994-3.713-7.681-4.558c-2.692-0.85-5.42-0.993-7.915-0.455C37.567,23.591,37.888,24.852,37.915,26.178z"/>
		</g>
		<path opacity="0.1" enable-background="new    " d="M7.565,32.752c0.635,4.053,2.428,7.948,5.088,11.04
			c0.33,0.388,0.676,0.76,1.029,1.121c0.344,0.349,0.695,0.688,1.06,1.016c0.728,0.653,1.495,1.267,2.301,1.827
			c1.61,1.121,3.365,2.041,5.2,2.72c3.669,1.364,7.604,1.348,11.32,0.511c4.65-1.046,10.191-4.742,11.93-7.29l1.896-10.04
			c1.014-3.416,1.164-7.089,0.632-9.986c-0.444-2.424-1.362-4.836-2.747-7.012c-0.692-1.086-1.496-2.113-2.396-3.052
			c-0.443-0.465-0.936-0.926-1.404-1.334l-0.341-0.288l-0.31-0.25c-0.207-0.164-0.418-0.325-0.631-0.48
			c-3.418-2.52-7.622-3.905-11.814-3.929c-4.195-0.048-8.417,1.265-11.88,3.725c-0.865,0.612-1.681,1.29-2.438,2.022
			c-0.751,0.734-1.413,1.471-2.045,2.282c-1.256,1.608-2.299,3.405-3.071,5.312C7.392,24.474,6.913,28.697,7.565,32.752z
			 M24.102,25.771c0.155-0.235,0.325-0.465,0.514-0.681c0.093-0.106,0.198-0.218,0.292-0.314c0.088-0.091,0.182-0.172,0.273-0.253
			c0.736-0.634,1.641-1.02,2.614-1.104c0.971-0.088,1.96,0.141,2.774,0.628c0.205,0.121,0.4,0.263,0.591,0.416
			c0.053,0.048,0.032,0.029,0.037,0.031c2.287-0.438,4.954,0.094,7.526,1.65c0.021,1.407-0.268,2.864-0.849,4.201
			c-0.294,0.679-0.658,1.327-1.091,1.932c-0.217,0.301-0.447,0.592-0.695,0.872c-0.121,0.139-0.25,0.273-0.382,0.408
			c-0.115,0.115-0.231,0.229-0.352,0.336c-0.96,0.865-2.103,1.458-3.347,1.748c-1.24,0.291-2.566,0.257-3.787-0.093
			c-1.225-0.349-2.333-0.996-3.262-1.915c-0.844-0.834-1.397-1.817-1.676-2.933c-0.275-1.109-0.242-2.318,0.1-3.402
			C23.554,26.76,23.796,26.245,24.102,25.771z"/>
		<g>
			<path fill="#B2F25E" d="M34.784,33.431c1.111,2.327,1.632,5.055,1.404,7.909c-0.223,2.851-1.186,5.824-2.895,8.598
				c3.578-0.533,7.042-2.004,9.932-4.234c0.096-1.631,0.002-3.223-0.262-4.719c-0.277-1.486-0.691-2.896-1.235-4.219
				c-1.085-2.642-2.673-4.902-4.603-6.632c-0.273,0.631-0.611,1.233-1.013,1.795c-0.202,0.279-0.415,0.55-0.644,0.81
				c-0.115,0.131-0.236,0.255-0.357,0.382C35.007,33.227,34.897,33.332,34.784,33.431z"/>
			<path fill="#B2F25E" d="M28.159,34.969c-2.608,4.437-7.956,7.646-14.469,7.656c0.308,0.36,0.628,0.707,0.957,1.043
				c0.318,0.325,0.645,0.64,0.983,0.942c0.677,0.607,1.39,1.18,2.139,1.698c1.497,1.043,3.126,1.896,4.831,2.527
				c2.809-1.609,5.041-3.761,6.576-6.157c1.539-2.398,2.381-5.042,2.5-7.622C30.525,35.325,29.292,35.293,28.159,34.969z"/>
			<path fill="#B2F25E" d="M23.57,30.464c-2.525,0.015-5.142-0.787-7.485-2.376c-2.343-1.582-4.409-3.955-5.842-6.953
				c-1.441,3.543-1.886,7.467-1.281,11.233c2.763,1.781,5.749,2.709,8.559,2.802c2.822,0.106,5.443-0.645,7.607-1.978
				C24.343,32.416,23.829,31.501,23.57,30.464z"/>
			<path fill="#B2F25E" d="M25.331,24.723c-1.191-2.238-1.65-4.984-1.17-7.807c0.469-2.822,1.867-5.706,4.141-8.176
				c-3.896-0.045-7.82,1.176-11.037,3.461c-0.229,1.679-0.215,3.313,0.008,4.843c0.24,1.519,0.662,2.947,1.246,4.249
				c1.168,2.608,2.985,4.681,5.145,6.011c0.156-0.505,0.381-0.981,0.666-1.421c0.145-0.22,0.303-0.432,0.479-0.634
				c0.086-0.099,0.182-0.2,0.271-0.289C25.159,24.873,25.247,24.798,25.331,24.723z"/>
			<path fill="#B2F25E" d="M30.339,24.279c0.418-0.471,0.883-0.91,1.387-1.31c0.494-0.406,1.072-0.742,1.604-1.095
				c1.067-0.708,2.382-1.172,3.86-1.308c2.935-0.279,6.404,0.864,9.365,3.36c-0.412-2.254-1.266-4.496-2.553-6.517
				c-0.641-1.009-1.388-1.964-2.226-2.836c-0.413-0.432-0.867-0.861-1.306-1.239l-0.316-0.27l-0.286-0.231
				c-0.194-0.15-0.389-0.303-0.587-0.447c-3.27,0.673-6.053,2.213-8.032,4.245c-1.989,2.028-3.184,4.534-3.489,7.062
				C28.663,23.615,29.581,23.826,30.339,24.279z"/>
			<path fill="#A93FEB" d="M37.126,30.134c1.93,1.729,3.518,3.99,4.603,6.632c0.544,1.323,0.958,2.732,1.235,4.219
				c0.264,1.498,0.357,3.088,0.262,4.719c0.722-0.555,1.41-1.154,2.055-1.793c0.635-0.63,1.201-1.255,1.756-1.932
				c1.097-1.342,2.054-2.809,2.851-4.362c-2.492-5.899-7.031-10.029-11.972-11.438C37.942,27.502,37.675,28.875,37.126,30.134z"/>
			<path fill="#A93FEB" d="M31.679,35.056c-0.12,2.581-0.961,5.225-2.501,7.623c-1.536,2.396-3.767,4.547-6.577,6.157
				c3.411,1.267,7.113,1.644,10.693,1.102c1.709-2.774,2.672-5.747,2.895-8.599c0.229-2.854-0.293-5.581-1.404-7.908
				C33.896,34.234,32.833,34.786,31.679,35.056z"/>
			<path fill="#A93FEB" d="M25.128,33.191c-2.163,1.334-4.785,2.084-7.605,1.979c-2.811-0.093-5.797-1.021-8.559-2.803
				c0.59,3.767,2.255,7.386,4.728,10.256c6.511-0.009,11.859-3.219,14.468-7.655C27.021,34.644,25.987,34.042,25.128,33.191z"/>
			<path fill="#A93FEB" d="M23.663,27.304c-2.159-1.33-3.977-3.401-5.145-6.011c-0.584-1.302-1.006-2.73-1.246-4.249
				c-0.223-1.531-0.235-3.164-0.008-4.843c-0.803,0.569-1.562,1.201-2.265,1.881c-0.698,0.681-1.313,1.363-1.901,2.119
				c-1.168,1.495-2.136,3.165-2.854,4.934c1.431,2.998,3.497,5.371,5.84,6.953c2.344,1.589,4.961,2.391,7.486,2.376
				C23.315,29.436,23.345,28.313,23.663,27.304z"/>
			<path fill="#A93FEB" d="M27.76,23.696c0.307-2.527,1.501-5.033,3.489-7.062c1.98-2.032,4.762-3.572,8.031-4.245
				c-3.174-2.339-7.082-3.628-10.979-3.649c-2.273,2.47-3.672,5.354-4.141,8.175c-0.48,2.822-0.021,5.569,1.17,7.807
				C26.016,24.133,26.854,23.775,27.76,23.696z"/>
			<path fill="#A93FEB" d="M30.923,24.695c2.603-0.497,5.734,0.354,8.588,2.656c2.4,2.15,4.174,5.402,4.893,9.121
				c2.053-3.53,2.984-8.018,2.152-12.545c-2.961-2.497-6.43-3.641-9.365-3.36c-1.479,0.136-2.793,0.6-3.86,1.308
				c-0.532,0.353-1.11,0.688-1.604,1.095c-0.504,0.399-0.969,0.839-1.387,1.31c0.19,0.113,0.373,0.244,0.549,0.387
				C30.937,24.711,30.917,24.695,30.923,24.695C30.921,24.697,30.923,24.695,30.923,24.695z"/>
		</g>
		<path opacity="0.1" enable-background="new    " d="M14.829,38.25c2.193,3.49,5.647,6.094,9.491,7.357
			c3.851,1.273,8.128,1.189,11.968-0.286c3.846-1.457,8.636-5.018,11.207-12.021c0,0-0.846-1.191-1.191-1.529
			c-0.751,2.686-1.9,4.702-1.9,4.702l-4.893-9.121c-0.791-4.865-4.33-9.011-8.906-10.312c-4.686-1.329-13.689,1.488-16.639,9.342
			C12.54,30.174,12.626,34.774,14.829,38.25z M31.483,24.45c-0.096,0.016-0.191,0.027-0.285,0.045
			C30.946,24.359,31.081,24.353,31.483,24.45z"/>
		<path fill="#B2F25E" d="M30.923,24.695c2.713,1.896,5.003,5.178,6.17,9.404c0.518,3.216,0.027,6.717-1.441,9.945
			c3.574-1.354,6.7-4.021,8.753-7.574c-0.721-3.719-2.494-6.971-4.894-9.121C36.657,25.05,33.525,24.198,30.923,24.695z"/>
		<path fill="#B2F25E" d="M30.923,24.695c-0.992,4.272-3.396,8.258-6.787,11.133c-2.41,1.293-5.336,1.913-8.423,1.646
			c2.039,3.244,5.245,5.663,8.817,6.838c2.838-1.684,5.055-4.034,6.422-6.723C32.326,33.108,32.234,28.511,30.923,24.695
			L30.923,24.695z"/>
		<path fill="#B2F25E" d="M30.278,25.38c-2.489,0.511-4.482-0.027-5.336-0.904c-0.652-0.474-1.288-1.119-1.775-1.973
			c-0.477-0.855-0.826-1.921-0.718-3.228c-0.899,0.507-6.364,3.18-7.698,8.028C19.438,32.904,26.998,28.974,30.278,25.38z"/>
		<path fill="#A93FEB" d="M30.923,24.695c1.312,3.815,1.404,8.413,0.029,12.896c-1.367,2.688-3.584,5.038-6.422,6.723
			c3.579,1.184,7.553,1.106,11.121-0.267c1.469-3.23,1.959-6.731,1.441-9.947C35.926,29.875,33.636,26.591,30.923,24.695z"/>
		<path fill="#A93FEB" d="M30.923,24.695c-2.961,2.992-10.662,6.214-16.172,2.608c-0.766,3.685-0.588,6.997,0.962,10.171
			c3.087,0.267,6.013-0.354,8.423-1.646C27.526,32.954,29.931,28.968,30.923,24.695L30.923,24.695z"/>
		<path fill="#A93FEB" d="M30.278,25.38c-1.061-0.578,7.463,2.114,8.299,3.842c0.082-0.545,0.077-1.218,0.025-1.939l-0.088-0.596
			l-0.045-0.299l-0.068-0.321c-0.105-0.433-0.245-0.893-0.433-1.377c-0.386-0.964-0.979-2.047-1.882-3.123
			c-0.46-0.529-0.99-1.049-1.588-1.505c-0.295-0.234-0.611-0.444-0.936-0.634c-0.316-0.205-0.648-0.365-0.977-0.536
			c-0.665-0.311-1.328-0.544-1.963-0.714c-0.637-0.164-1.232-0.254-1.793-0.307c-1.116-0.095-2.045-0.014-2.834,0.126
			c-1.574,0.291-2.636,0.781-3.547,1.28c-0.108,1.307,0.24,2.372,0.718,3.228c0.485,0.854,1.123,1.499,1.775,1.973
			C25.796,25.353,27.789,25.891,30.278,25.38z"/>
		<g>
			<path opacity="0.1" enable-background="new    " d="M25.853,35.97c1.427,1.384,3.303,2.047,5.646,1.462
				c2.851-0.708,8.392-2.787,8.012-10.08c-0.418-0.293-1.006-0.746-1.006-0.746s0.271,1.398,0.072,2.616L25.284,31.95
				C24.671,33.314,24.812,34.961,25.853,35.97z"/>
			<g>
				<path fill="#B2F25E" d="M30.278,25.38c0.295,0.05,0.754,0.316,1.26,0.865c0.502,0.544,1.045,1.381,1.373,2.474
					c1.063,2.697,0.256,5.674-1.699,8.005c1.828-0.338,3.635-1.23,4.939-2.55c0.654-0.652,1.178-1.378,1.58-2.172
					c0.398-0.804,0.703-1.66,0.845-2.781C36.552,20.911,28.227,24.341,30.278,25.38z"/>
				<path fill="#A93FEB" d="M30.278,25.38c1.672,3.349-1.709,6.125-5.16,7.188c-0.232,0.821-0.092,1.832,0.85,2.796
					c0.467,0.473,1.144,0.91,1.945,1.178c0.1,0.033,0.201,0.065,0.305,0.093c0.042,0.012,0.158,0.038,0.235,0.054l0.214,0.043
					c0.213,0.044,0.434,0.073,0.656,0.097c0.447,0.039,0.912,0.033,1.392-0.028c0.165-0.02,0.332-0.045,0.497-0.074
					c1.955-2.332,2.762-5.308,1.7-8.005c-0.329-1.093-0.872-1.93-1.374-2.474C31.032,25.696,30.573,25.43,30.278,25.38z"/>
				<path fill="#B2F25E" d="M30.278,25.38c-1.422,3.771-4.654,4.378-5.16,7.188C27.47,32.287,32.731,29.438,30.278,25.38z"/>
			</g>
		</g>
	</g>
</g>
</svg>
