<?xml version="1.0" encoding="utf-8"?>
<!-- Generator: Adobe Illustrator 15.0.0, SVG Export Plug-In . SVG Version: 6.00 Build 0)  -->
<!DOCTYPE svg PUBLIC "-//W3C//DTD SVG 1.1//EN" "http://www.w3.org/Graphics/SVG/1.1/DTD/svg11.dtd">
<svg version="1.1" id="Layer_1" xmlns="http://www.w3.org/2000/svg" xmlns:xlink="http://www.w3.org/1999/xlink" x="0px" y="0px"
	 width="64px" height="64px" viewBox="0 0 64 64" enable-background="new 0 0 64 64" xml:space="preserve">
<g>
	<path fill="#F46C6C" d="M27.683,12.215c-3.796,5.201-23.066,9.573-23.066,9.573s2.75-5.378,10.394-8.827
		c0,0-8.018,3.262-13.01,1.527c0,0,7.737-8.678,24.023-10.169L27.683,12.215z"/>
	<g>
		<g>
			<g>
				<path fill="#F8BD17" d="M58.172,43.874c0.004,0.003-0.018,0.014-0.014,0.018S58.168,43.871,58.172,43.874z"/>
				<path fill="#F8D317" d="M60.868,27.079c-0.672-2.758,0.569-5.837-1.688-6.9c-1.136-0.535-1.754-2.076-2.027-3.331
					c-0.281-1.289-0.086-2.289-1.09-3.171c-1.014-0.889-2.677-1.463-3.675-2.375c-0.935-0.856-0.559-2.169-1.258-3.212
					c-0.882-1.309-2.109-1.702-3.576-1.938c-1.397-0.224-2.49-0.686-3.598-1.596c-1.115-0.914-2.178-1.877-3.693-1.836
					c-1.207,0.036-2.358,0.575-3.571,0.549c-1.353-0.032-2.332-1.345-3.675-1.266c-1.11,0.066-1.875,1.062-2.837,1.521
					c-1.117,0.535-2.237-0.13-3.372-0.036c-1.094,0.09-1.687,1.133-2.177,2.035c-0.681,1.254-1.948,1.423-2.96,2.289
					c0.002,0.001,0.004,0.002,0.006,0.003c-0.732,0.511-0.941,1.672-0.031,3.258c-0.148-0.259-0.284-0.494,0.002,0.004
					c0.753,1.309,0.642,3.232,1.653,4.358c1.065,1.185,3.452-0.573,4.767,0.083c1.573,0.784,2.105,1.69,3.991,2.034
					c1.216,0.221,2.865,2.744,3.66,3.188c1.15,0.642,3.027,1.811,3.671,2.813c0.566,0.88,1.122,3.03,1.335,4.127
					c0.246,1.254-0.566,3.264-1.432,3.87c-1.162,0.812-2.589,2.336-3.612,3.276c-1.706,1.568-3.736-0.265-5.637,0.304
					c-1.158,0.345-2.099,1.192-3.347,1.198c-1.337,0.008-2.534-0.69-3.854-0.789c-1.588-0.12-3.893,1.568-5.042,2.544
					c-1.376,1.164-2.896,1.324-4.472,2.002c-1.528,0.655-2.031,2.112-2.443,3.658c-0.399,1.485-2.274,1.579-2.731,2.352
					c-0.863,1.458,1.281,3.474,2.302,6.859c1.153,3.826,1.707,1.614,4.801,3.262c1.167,0.641,1.901,2.427,3.376,3.035
					c1.673,0.679,3.338-0.492,4.944,0.5c1.077,0.666,1.554,2.507,2.991,2.217c1.3-0.262,2.519-2.262,3.913-1.779
					c3.47,1.202,3.317-0.527,6.507-0.438c1.747,0.05,3.579,1.694,5.122,0.33c1.393-1.231,2.284-3.103,4.118-3.269
					c3.51-0.317,3.69-3.052,6.428-4.638c3.632-2.104,4.928-6.235,5.516-8.303c0.808-2.838,1.223-5.943,3.266-9.669
					C62.735,31.835,61.463,29.517,60.868,27.079z"/>
			</g>
		</g>
	</g>
	<g>
		<path fill="#F8B100" d="M21.832,42.06c-0.98,1.112-2.11,1.91-3.199,2.337c1.514,1.064,3.604,0.82,4.916-0.667
			c1.309-1.484,1.376-3.698,0.253-5.203C23.479,39.702,22.811,40.946,21.832,42.06z"/>
		<path fill="#F8B100" d="M32.278,46.702c-0.979,1.114-2.108,1.909-3.198,2.338c1.516,1.063,3.605,0.819,4.915-0.664
			c1.309-1.488,1.376-3.7,0.254-5.207C33.926,44.345,33.259,45.59,32.278,46.702z"/>
		<path fill="#F8B100" d="M25.309,54.705c-0.979,1.113-2.108,1.908-3.198,2.337c1.515,1.064,3.605,0.82,4.915-0.664
			c1.309-1.487,1.376-3.7,0.253-5.206C26.956,52.347,26.289,53.592,25.309,54.705z"/>
		<path fill="#F8B100" d="M39.932,53.227c-0.979,1.114-2.108,1.909-3.198,2.338c1.515,1.063,3.605,0.819,4.914-0.664
			c1.31-1.488,1.376-3.7,0.254-5.207C41.579,50.869,40.911,52.114,39.932,53.227z"/>
		<path fill="#F8B100" d="M52.606,45.52c-0.979,1.113-2.108,1.909-3.198,2.338c1.516,1.063,3.606,0.819,4.915-0.664
			c1.309-1.488,1.376-3.701,0.254-5.207C54.254,43.161,53.587,44.407,52.606,45.52z"/>
		<path fill="#F8B100" d="M37.965,37.455c-0.979,1.112-2.109,1.908-3.198,2.337c1.516,1.063,3.606,0.819,4.915-0.666
			s1.378-3.697,0.255-5.205C39.614,35.098,38.945,36.341,37.965,37.455z"/>
		<path fill="#F8B100" d="M45.496,40.429c-0.979,1.111-2.108,1.908-3.199,2.336c1.515,1.064,3.607,0.819,4.916-0.665
			c1.31-1.485,1.378-3.699,0.254-5.206C47.144,38.07,46.477,39.315,45.496,40.429z"/>
		<path fill="#F8B100" d="M48.686,28.357c-0.979,1.112-2.108,1.909-3.197,2.336c1.513,1.064,3.606,0.82,4.914-0.666
			c1.309-1.484,1.378-3.696,0.254-5.204C50.333,25.999,49.668,27.243,48.686,28.357z"/>
		<path fill="#F8B100" d="M41.295,19.052c-0.979,1.114-2.109,1.911-3.197,2.339c1.515,1.063,3.605,0.819,4.914-0.666
			c1.309-1.486,1.378-3.698,0.253-5.205C42.942,16.694,42.274,17.939,41.295,19.052z"/>
		<path fill="#F8B100" d="M50.997,17.502c-0.98,1.112-2.11,1.909-3.199,2.336c1.514,1.063,3.606,0.819,4.913-0.666
			c1.31-1.485,1.38-3.696,0.256-5.204C52.645,15.144,51.977,16.388,50.997,17.502z"/>
		<path fill="#F8B100" d="M41.075,10.06c-0.98,1.113-2.108,1.909-3.2,2.336c1.516,1.065,3.606,0.821,4.915-0.664
			c1.311-1.485,1.378-3.698,0.256-5.205C42.723,7.701,42.056,8.945,41.075,10.06z"/>
		<path fill="#F8B100" d="M31.562,10.443c-1.124,0.961-2.356,1.588-3.494,1.854c1.351,1.271,3.457,1.326,4.96,0.043
			s1.885-3.466,0.98-5.117C33.526,8.343,32.691,9.479,31.562,10.443z"/>
		<polygon fill="#F8B100" points="15.592,41.143 14.578,42.147 15.592,43.153 16.605,42.147 		"/>
		<polygon fill="#F8B100" points="16.501,48.314 15.487,49.32 16.501,50.325 17.515,49.32 		"/>
		<polygon fill="#F8B100" points="29.749,39.15 28.735,40.156 29.749,41.162 30.763,40.156 		"/>
		<polygon fill="#F8B100" points="39.711,44.421 38.697,45.426 39.711,46.431 40.725,45.426 		"/>
		<polygon fill="#F8B100" points="43.834,33.811 42.82,34.815 43.834,35.82 44.848,34.815 		"/>
		<polygon fill="#F8B100" points="54.352,33.199 53.338,34.206 54.352,35.211 55.365,34.206 		"/>
		<polygon fill="#F8B100" points="50.776,39.521 49.763,40.526 50.776,41.531 51.79,40.526 		"/>
		<polygon fill="#F8B100" points="47.243,50.166 46.229,51.172 47.243,52.177 48.257,51.172 		"/>
		<polygon fill="#F8B100" points="33.072,53.429 32.059,54.435 33.072,55.439 34.086,54.435 		"/>
		<polygon fill="#F8B100" points="18.633,52.679 17.619,53.685 18.633,54.689 19.646,53.685 		"/>
		<polygon fill="#F8B100" points="11.869,48.307 10.855,49.312 11.869,50.316 12.883,49.312 		"/>
		<polygon fill="#F8B100" points="58.166,36.178 57.152,37.184 58.166,38.188 59.18,37.184 		"/>
		<polygon fill="#F8B100" points="25.089,10.94 24.075,11.945 25.089,12.95 26.104,11.945 		"/>
		<polygon fill="#F8B100" points="55.049,22.044 54.035,23.05 55.049,24.056 56.063,23.05 		"/>
		<polygon fill="#F8B100" points="45.488,23.818 44.475,24.823 45.488,25.828 46.502,24.823 		"/>
		<polygon fill="#F8B100" points="49.271,12.961 48.257,13.968 49.271,14.973 50.284,13.968 		"/>
		<polygon fill="#F8B100" points="36.732,15.843 35.719,16.848 36.732,17.854 37.746,16.848 		"/>
		<polygon fill="#F8B100" points="39.111,4.975 38.098,5.979 39.111,6.985 40.125,5.979 		"/>
		<polygon fill="#F8B100" points="29.749,5.521 28.735,6.526 29.749,7.533 30.763,6.526 		"/>
		<polygon fill="#F8B100" points="24.591,46.188 23.577,47.193 24.591,48.199 25.604,47.193 		"/>
		<polygon fill="#F8B100" points="56.063,27.079 55.049,28.085 56.063,29.091 57.076,28.085 		"/>
		<polygon fill="#F8B100" points="46.502,8.239 45.488,9.245 46.502,10.25 47.517,9.245 		"/>
	</g>
</g>
</svg>
