<?xml version="1.0" encoding="utf-8"?>
<!-- Generator: Adobe Illustrator 15.0.0, SVG Export Plug-In . SVG Version: 6.00 Build 0)  -->
<!DOCTYPE svg PUBLIC "-//W3C//DTD SVG 1.1//EN" "http://www.w3.org/Graphics/SVG/1.1/DTD/svg11.dtd">
<svg version="1.1" id="Layer_1" xmlns="http://www.w3.org/2000/svg" xmlns:xlink="http://www.w3.org/1999/xlink" x="0px" y="0px"
	 width="64px" height="64px" viewBox="0 0 64 64" enable-background="new 0 0 64 64" xml:space="preserve">
<g>
	<g>
		<rect x="14.609" y="3.685" fill="#B37B47" width="8.559" height="8.423"/>
		<polygon fill="#A16745" points="14.609,3.685 12.896,2 12.896,13.791 14.609,12.107 		"/>
		<polygon fill="#633F2C" points="23.168,12.107 24.879,13.791 24.879,2 23.168,3.685 		"/>
		<polygon fill="#8C5B3E" points="23.168,3.685 24.879,2 12.896,2 14.609,3.685 		"/>
		<polygon fill="#523420" points="23.168,12.107 14.609,12.107 12.896,13.791 24.879,13.791 		"/>
		<rect x="26.59" y="3.685" fill="#B37B47" width="8.559" height="8.423"/>
		<polygon fill="#A16745" points="26.59,12.107 26.59,3.685 24.879,2 24.879,13.791 		"/>
		<path fill="#633F2C" d="M36.861,13.791V6.482c-0.549-0.429-1.01-0.985-1.316-1.667c-0.176-0.391-0.27-0.794-0.328-1.197
			l-0.068,0.066v8.423L36.861,13.791z"/>
		<path fill="#8C5B3E" d="M35.148,3.685l0.068-0.066C35.137,3.071,35.154,2.525,35.271,2H24.879l1.711,1.685H35.148z"/>
		<polygon fill="#523420" points="35.148,12.107 26.59,12.107 24.879,13.791 36.861,13.791 		"/>
		<path fill="#B37B47" d="M39.34,10.818c-0.502-1.114-0.506-2.322-0.119-3.386c-0.219-0.021-0.436-0.063-0.648-0.115v4.79h1.65
			C39.865,11.742,39.563,11.313,39.34,10.818z"/>
		<path fill="#A16745" d="M38.572,7.317c-0.623-0.152-1.205-0.438-1.711-0.835v7.309l1.711-1.684V7.317z"/>
		<path fill="#523420" d="M36.861,13.791h7.324c-0.025-0.128-0.057-0.256-0.072-0.384c-1.436,0.216-2.887-0.274-3.891-1.3h-1.65
			L36.861,13.791z"/>
		<rect x="14.609" y="15.477" fill="#B37B47" width="8.559" height="8.422"/>
		<polygon fill="#A16745" points="14.609,15.477 12.896,13.791 12.896,25.584 14.609,23.898 		"/>
		<polygon fill="#633F2C" points="23.168,15.477 23.168,23.898 24.879,25.584 24.879,13.791 		"/>
		<polygon fill="#8C5B3E" points="23.168,15.477 24.879,13.791 12.896,13.791 14.609,15.477 		"/>
		<polygon fill="#523420" points="23.168,23.898 14.609,23.898 12.896,25.584 24.879,25.584 		"/>
		<rect x="26.59" y="15.477" fill="#B37B47" width="8.559" height="8.422"/>
		<polygon fill="#A16745" points="26.59,15.477 24.879,13.791 24.879,25.584 26.59,23.898 		"/>
		<polygon fill="#633F2C" points="35.148,15.477 35.148,23.898 36.861,25.584 36.861,13.791 		"/>
		<polygon fill="#8C5B3E" points="35.148,15.477 36.861,13.791 24.879,13.791 26.59,15.477 		"/>
		<polygon fill="#523420" points="26.59,23.898 24.879,25.584 36.861,25.584 35.148,23.898 		"/>
		<path fill="#B37B47" d="M44.922,15.477h-6.35v8.422h8.557v-6.821C46.262,16.786,45.482,16.244,44.922,15.477z"/>
		<polygon fill="#A16745" points="36.861,13.791 36.861,25.584 38.572,23.898 38.572,15.477 		"/>
		<path fill="#633F2C" d="M47.129,17.077v6.821l1.713,1.686v-8.283C48.256,17.339,47.676,17.261,47.129,17.077z"/>
		<path fill="#8C5B3E" d="M38.572,15.477h6.35c-0.182-0.249-0.342-0.518-0.473-0.81c-0.129-0.287-0.205-0.581-0.264-0.876h-7.324
			L38.572,15.477z"/>
		<polygon fill="#523420" points="38.572,23.898 36.861,25.584 48.842,25.584 47.129,23.898 		"/>
		<rect x="14.609" y="27.268" fill="#B37B47" width="8.559" height="8.424"/>
		<polygon fill="#A16745" points="14.609,27.268 12.896,25.584 12.896,37.375 14.609,35.691 		"/>
		<polygon fill="#633F2C" points="23.168,27.268 23.168,35.691 24.879,37.375 24.879,25.584 		"/>
		<polygon fill="#8C5B3E" points="23.168,27.268 24.879,25.584 12.896,25.584 14.609,27.268 		"/>
		<polygon fill="#8C5B3E" points="23.168,35.691 14.609,35.691 12.896,37.375 24.879,37.375 		"/>
		<rect x="26.59" y="27.268" fill="#B37B47" width="8.559" height="8.424"/>
		<polygon fill="#A16745" points="26.59,27.268 24.879,25.584 24.879,37.375 26.59,35.691 		"/>
		<polygon fill="#633F2C" points="35.148,35.691 36.861,37.375 36.861,25.584 35.148,27.268 		"/>
		<polygon fill="#8C5B3E" points="26.59,27.268 35.148,27.268 36.861,25.584 24.879,25.584 		"/>
		<polygon fill="#8C5B3E" points="26.59,35.691 24.879,37.375 36.861,37.375 35.148,35.691 		"/>
		<rect x="38.572" y="27.268" fill="#B37B47" width="8.557" height="8.424"/>
		<polygon fill="#A16745" points="38.572,35.691 38.572,27.268 36.861,25.584 36.861,37.375 		"/>
		<polygon fill="#633F2C" points="47.129,35.691 48.842,37.375 48.842,25.584 47.129,27.268 		"/>
		<polygon fill="#8C5B3E" points="38.572,27.268 47.129,27.268 48.842,25.584 36.861,25.584 		"/>
		<polygon fill="#8C5B3E" points="38.572,35.691 36.861,37.375 48.842,37.375 47.129,35.691 		"/>
	</g>
	<polygon fill-rule="evenodd" clip-rule="evenodd" fill="#FF4A4A" points="12.896,36.768 12.896,60.959 13.467,62 48.271,62 
		48.842,60.959 48.842,36.768 	"/>
	<path fill="#A33737" d="M41.365,41.987c-0.339-3.567-28.469-5.22-28.469-5.22s11.926,0.94,16.223,7.803
		c6.886,11,15.805,11.667,15.805,11.667C42.882,50.883,42.025,48.937,41.365,41.987z"/>
	<path fill="#FFFFFF" d="M51.057,37.644c-0.037-0.39-0.099-0.747-0.168-1.094l0.007-0.003l-0.009-0.008
		c-0.565-2.817-2.041-4.205-2.041-4.205s-1.089-0.19-2.938-0.373l-0.025-0.023l-0.031,0.018c-2.135-0.209-5.277-0.398-8.972-0.279
		l-0.012-0.004l0.002,0.005c-1.636,0.053-3.376,0.168-5.188,0.371l-0.09-0.021l-0.045,0.037c-0.371,0.042-0.74,0.08-1.115,0.13
		c-1.137,0.15-2.822,0.518-4.703,0.981l0.002-0.025l-0.023,0.016l-0.039,0.025c-1.545,0.382-3.217,0.828-4.83,1.273
		c-1.369,0.378-2.689,0.755-3.852,1.092c-2.385,0.69-4.088,1.21-4.088,1.21s2.59,0.081,5.934,0.704
		c2.006,0.375,4.279,0.945,6.432,1.812c0.002,0,0.004,0.001,0.004,0.001c1.02,0.411,2.01,0.888,2.93,1.441l-0.004,0.012l0.082,0.034
		c1.176,0.716,2.234,1.557,3.086,2.549c0.67,0.781,1.33,1.497,1.982,2.166l0.001,0.006l0.004-0.002
		c1.215,1.248,2.395,2.313,3.52,3.213v0.058l0.012-0.002l0.048-0.008c1.993,1.589,3.816,2.675,5.374,3.419
		c3.293,1.572,5.395,1.609,5.395,1.609c-0.401-1.054-0.482-2.047-0.37-3.018c0.149-1.28,0.643-2.522,1.231-3.802
		c0.007-0.015,0.014-0.029,0.021-0.045l0.016-0.002l-0.012-0.007c0.889-1.926,1.957-3.949,2.355-6.337
		C51.091,39.65,51.155,38.686,51.057,37.644z"/>
	<g>
		<path fill="none" d="M25.729,33.175l0.002-0.025l-0.023,0.016l0.006,0.015C25.717,33.179,25.723,33.177,25.729,33.175z"/>
		<path fill="none" d="M25.707,33.165l-0.039,0.025c0.016-0.004,0.029-0.008,0.045-0.011L25.707,33.165z"/>
		<polygon fill="none" points="48.594,46.911 48.582,46.904 48.578,46.913 		"/>
		<path fill="none" d="M31.592,32.026l-0.045,0.037c0.012-0.002,0.021-0.003,0.033-0.004L31.592,32.026z"/>
		<polygon fill="none" points="50.896,36.547 50.887,36.539 50.888,36.544 		"/>
		<polygon fill="none" points="50.889,36.55 50.896,36.547 50.888,36.544 		"/>
		<path fill="none" d="M31.682,32.048l-0.09-0.021l0.004,0.031C31.625,32.054,31.652,32.051,31.682,32.048z"/>
		<path fill="none" d="M31.596,32.058l-0.004-0.031L31.58,32.06C31.584,32.059,31.59,32.058,31.596,32.058z"/>
		<path fill="none" d="M36.88,48.757l0.048-0.008c-0.007-0.004-0.013-0.009-0.019-0.014L36.88,48.757z"/>
		<polygon fill="none" points="20.838,34.464 20.838,34.464 20.838,34.464 		"/>
		<polygon fill="none" points="36.868,31.672 36.87,31.677 36.88,31.676 		"/>
		<path fill="none" d="M28.193,40.735l0.082,0.034c-0.025-0.016-0.053-0.03-0.078-0.046L28.193,40.735z"/>
		<path fill="none" d="M45.883,31.938l-0.031,0.018c0.021,0.002,0.037,0.004,0.057,0.006L45.883,31.938z"/>
		<path fill="none" d="M36.868,48.701v0.058l0.012-0.002l0.029-0.021C36.896,48.725,36.882,48.712,36.868,48.701z"/>
		<polygon fill="none" points="33.345,45.49 33.349,45.488 33.344,45.484 		"/>
		<polygon fill="#9BA8A7" points="43.594,43.85 43.57,43.904 45.472,47.374 45.485,47.4 48.542,46.919 48.522,46.867 		"/>
		<polygon fill="#BAC9C9" points="48.542,46.919 48.578,46.913 48.582,46.904 48.522,46.867 		"/>
		<polygon fill="#BAC9C9" points="43.514,43.8 43.57,43.904 43.594,43.85 		"/>
		<polygon fill="#C8D6D6" points="42.751,33.716 42.018,41.07 45.535,39.278 50.889,36.55 50.888,36.544 		"/>
		<path fill="#BAC9C9" d="M50.938,40.567c0.153-0.917,0.218-1.882,0.119-2.924c-0.037-0.39-0.099-0.747-0.168-1.094l-5.354,2.729
			L50.938,40.567z"/>
		<path fill="#9BA8A7" d="M48.522,46.867l0.06,0.037c0.889-1.926,1.957-3.949,2.355-6.337l-5.402-1.289L48.522,46.867z"/>
		<polygon fill="#BAC9C9" points="39.118,35.778 42.018,41.07 42.751,33.716 		"/>
		<polygon fill="#BAC9C9" points="45.469,47.403 45.485,47.4 45.472,47.374 		"/>
		<polygon fill="#BAC9C9" points="32.598,39.967 32.602,39.968 32.602,39.962 		"/>
		<polygon fill="#BAC9C9" points="29.029,38.569 29.033,38.563 29.027,38.565 		"/>
		<polygon fill="#BAC9C9" points="42.122,47.931 42.152,47.926 42.12,47.892 		"/>
		<polygon fill="#9BA8A7" points="45.106,51.043 47.321,50.75 45.485,47.4 45.469,47.403 		"/>
		<path fill="#DCE3E3" d="M31.58,32.06l-2.547,6.504l3.223-1.17l-0.66-5.336C31.59,32.058,31.584,32.059,31.58,32.06z"/>
		<polygon fill="#EFFCFC" points="43.594,43.85 45.535,39.278 42.018,41.07 43.514,43.8 		"/>
		<polygon fill="#BAC9C9" points="43.513,43.8 43.514,43.8 42.018,41.07 36.869,43.694 43.57,43.904 43.514,43.8 		"/>
		<path fill="#BAC9C9" d="M50.888,36.544c0-0.002,0-0.003-0.001-0.005l-4.979-4.578c-0.02-0.002-0.036-0.004-0.057-0.006
			l-3.101,1.761L50.888,36.544z"/>
		<polygon fill="#C8D6D6" points="48.522,46.867 45.535,39.278 43.594,43.85 		"/>
		<path fill="#C8D6D6" d="M48.846,32.334c0,0-1.089-0.19-2.938-0.373l4.979,4.578C50.321,33.722,48.846,32.334,48.846,32.334z"/>
		<polygon fill="#C8D6D6" points="39.035,35.826 39.118,35.778 37.88,33.518 32.602,39.962 32.602,39.968 42.018,41.07 
			39.118,35.778 		"/>
		<path fill="#DCE3E3" d="M42.12,47.892l0.032,0.034l3.316-0.522l0.003-0.029l-1.901-3.47l-6.661,4.831
			c0.006,0.005,0.012,0.01,0.019,0.014l5.194-0.818L42.12,47.892z"/>
		<path fill="#9BA8A7" d="M29.029,38.569l-0.83,2.151l0,0l0,0l-0.002,0.003c0.025,0.016,0.053,0.03,0.078,0.046l4.693,1.937
			L29.029,38.569z"/>
		<path fill="#BAC9C9" d="M32.598,39.967l0.004-0.005l-0.346-2.568l-3.223,1.17l-0.004,0.006l3.939,4.137l-4.693-1.937
			c1.176,0.716,2.234,1.557,3.086,2.549c0.67,0.781,1.33,1.497,1.982,2.166l-0.742-5.517L32.598,39.967z"/>
		<path fill="#9BA8A7" d="M33.349,45.488c1.215,1.248,2.395,2.313,3.52,3.213v-5.007L33.349,45.488z"/>
		<polygon fill="#DCE3E3" points="36.869,43.694 42.018,41.07 32.602,39.968 33.344,45.484 33.349,45.488 36.868,43.694 		"/>
		<polygon fill="#BAC9C9" points="25.264,39.281 25.268,39.282 25.264,39.278 		"/>
		<path fill="#9BA8A7" d="M26.656,36.046l-0.932-2.825l-0.26,3.411l0.031,0.009l-0.031-0.009l-0.201,2.646l0.004,0.004
			c1.02,0.411,2.01,0.888,2.93,1.441l0.002-0.003L26.656,36.046z"/>
		<path fill="#C8D6D6" d="M36.928,48.749c1.993,1.589,3.816,2.675,5.374,3.419l-0.18-4.237L36.928,48.749z"/>
		<path fill="#DCE3E3" d="M45.485,47.4l1.836,3.35l0.005,0.01c0.149-1.28,0.643-2.522,1.231-3.802l-0.016-0.039L45.485,47.4z"/>
		<path fill="#C8D6D6" d="M43.57,43.904l-6.701-0.21h-0.001v5.007c0.014,0.011,0.027,0.023,0.041,0.034L43.57,43.904z"/>
		<path fill="#BAC9C9" d="M45.106,51.043l0.362-3.64l-3.316,0.522l5.544,5.852c-0.401-1.054-0.482-2.047-0.37-3.018l-0.005-0.01
			L45.106,51.043z"/>
		<path fill="#9BA8A7" d="M48.542,46.919l0.016,0.039c0.007-0.015,0.014-0.029,0.021-0.045L48.542,46.919z"/>
		<path fill="#EFFCFC" d="M42.122,47.931l0.18,4.237c3.293,1.572,5.395,1.609,5.395,1.609l-5.544-5.852L42.122,47.931z"/>
		<path fill="#BAC9C9" d="M21.906,35.626l-1.068-1.162l0,0l-2.006,3.006l0,0c2.006,0.375,4.279,0.945,6.432,1.812v-0.003
			L21.906,35.626z"/>
		<polygon fill="#BAC9C9" points="18.832,37.47 18.832,37.47 18.832,37.47 		"/>
		<path fill="#C8D6D6" d="M28.199,40.721l0.83-2.151l-0.002-0.004l0.006-0.002l2.547-6.504c-0.012,0.001-0.021,0.002-0.033,0.004
			l-4.891,3.982L28.199,40.721z"/>
		<path fill="#DCE3E3" d="M26.656,36.046l4.891-3.982c-0.371,0.042-0.74,0.08-1.115,0.13c-1.137,0.15-2.822,0.518-4.703,0.981
			l-0.004,0.046L26.656,36.046z"/>
		<polygon fill="#C8D6D6" points="25.264,39.278 25.465,36.632 21.906,35.626 		"/>
		<path fill="#BAC9C9" d="M32.256,37.394l0.346,2.568l5.278-6.444l-6.198-1.47c-0.029,0.003-0.057,0.006-0.086,0.01L32.256,37.394z"
			/>
		<polygon fill="#EFFCFC" points="39.118,35.778 42.751,33.716 36.88,31.676 36.87,31.677 37.88,33.518 		"/>
		<path fill="#C8D6D6" d="M36.87,31.677c-1.636,0.053-3.376,0.168-5.188,0.371l6.198,1.47L36.87,31.677z"/>
		<path fill="#EFFCFC" d="M20.838,34.464c-1.369,0.378-2.689,0.755-3.852,1.092l1.846,1.914L20.838,34.464z"/>
		<path fill="#C8D6D6" d="M16.986,35.556c-2.385,0.69-4.088,1.21-4.088,1.21s2.59,0.081,5.934,0.704l0,0L16.986,35.556z"/>
		<path fill="#DCE3E3" d="M45.852,31.955c-2.135-0.209-5.277-0.398-8.972-0.279l5.871,2.04L45.852,31.955z"/>
		<path fill="#EFFCFC" d="M25.465,36.632l0.26-3.411l-0.012-0.041c-0.016,0.003-0.029,0.007-0.045,0.011l-3.762,2.436L25.465,36.632
			z"/>
		<path fill="#BAC9C9" d="M25.725,33.221l0.004-0.046c-0.006,0.002-0.012,0.004-0.016,0.005L25.725,33.221z"/>
		<path fill="#DCE3E3" d="M25.668,33.19c-1.545,0.382-3.217,0.828-4.83,1.273l1.068,1.162L25.668,33.19z"/>
	</g>
</g>
</svg>
