<?xml version="1.0" encoding="utf-8"?>
<!-- Generator: Adobe Illustrator 15.0.0, SVG Export Plug-In . SVG Version: 6.00 Build 0)  -->
<!DOCTYPE svg PUBLIC "-//W3C//DTD SVG 1.1//EN" "http://www.w3.org/Graphics/SVG/1.1/DTD/svg11.dtd">
<svg version="1.1" id="Layer_1" xmlns="http://www.w3.org/2000/svg" xmlns:xlink="http://www.w3.org/1999/xlink" x="0px" y="0px"
	 width="64px" height="64px" viewBox="0 0 64 64" enable-background="new 0 0 64 64" xml:space="preserve">
<g>
	<path fill="#E0E1E5" d="M32,52C15.458,52,2,44.565,2,35.431c0-9.136,13.458-16.567,30-16.567s30,7.432,30,16.567
		C62,44.565,48.542,52,32,52z"/>
	<path fill="#F5F5F5" d="M60.488,34.774c0,8.415-12.755,15.236-28.488,15.236S3.512,43.189,3.512,34.774
		c0-8.41,12.755-15.231,28.488-15.231S60.488,26.365,60.488,34.774z"/>
	<path fill="#A8521A" d="M51.496,25.78c-3.607-2.05-35.246-8.243-42.17,4.458c-1.932,3.541-0.354,8.376,5.499,11.704
		c3.608,2.054,11.253,5.481,16.112,6.254c4.857,0.77,9.393-2.052,13.223-2.925c6.215-1.409,10.236-4.304,10.579-8.795
		C55.082,31.988,57.348,29.105,51.496,25.78z"/>
	<ellipse fill="#7D3D15" cx="32" cy="33.724" rx="19.238" ry="10.659"/>
	<g>
		<path fill="#FFD170" d="M45.599,16.792H18.401c0,0-3.054,17.33-3.054,17.534c0,3.763,7.455,6.81,16.652,6.81
			c9.196,0,16.652-3.047,16.652-6.81C48.652,34.121,45.599,16.792,45.599,16.792z"/>
		<path fill="#FED0AC" d="M46.221,20.037"/>
		<path fill="#7D3D15" d="M45.877,17.928c0-3.133-6.213-5.674-13.877-5.674s-13.877,2.541-13.877,5.674S24.336,23.602,32,23.602
			C40.469,23.602,45.877,19.609,45.877,17.928z"/>
		<path fill="#A8521A" d="M44.818,17.063c0-2.796-5.756-5.063-12.855-5.063s-12.854,2.267-12.854,5.063
			c0,2.798,5.754,5.065,12.854,5.065C39.808,22.127,44.818,18.563,44.818,17.063z"/>
	</g>
</g>
</svg>
