<?xml version="1.0" encoding="utf-8"?>
<!-- Generator: Adobe Illustrator 15.0.0, SVG Export Plug-In . SVG Version: 6.00 Build 0)  -->
<!DOCTYPE svg PUBLIC "-//W3C//DTD SVG 1.1//EN" "http://www.w3.org/Graphics/SVG/1.1/DTD/svg11.dtd">
<svg version="1.1" id="Layer_1" xmlns="http://www.w3.org/2000/svg" xmlns:xlink="http://www.w3.org/1999/xlink" x="0px" y="0px"
	 width="64px" height="64px" viewBox="0 0 64 64" enable-background="new 0 0 64 64" xml:space="preserve">
<g>
	<path fill="#DDA85F" d="M36.912,22.734l2.536-18.588C37.024,3.494,34.628,2,31.999,2c-2.633,0-5.033,1.502-7.461,2.15
		c-2.514,0.672-5.342,0.592-7.54,1.863c-2.232,1.293-3.568,3.793-5.379,5.604c-1.813,1.813-4.313,3.148-5.604,5.379
		c-1.273,2.201-1.191,5.027-1.863,7.541C3.504,26.965,2,29.367,2,31.999c0,2.633,1.504,5.033,2.152,7.463
		c0.672,2.512,0.59,5.34,1.863,7.539c1.291,2.232,3.791,3.568,5.604,5.379c1.811,1.811,3.146,4.313,5.379,5.604
		c2.198,1.274,5.026,1.192,7.54,1.864C26.966,60.498,29.366,62,31.999,62c2.635,0,5.035-1.502,7.465-2.152
		c2.512-0.672,5.34-0.59,7.538-1.864c2.232-1.291,3.568-3.793,5.379-5.604c1.813-1.811,4.313-3.146,5.604-5.379
		c1.273-2.199,1.191-5.027,1.863-7.539c0.648-2.43,2.152-4.83,2.152-7.463c0-2.632-2.104-8.081-2.104-8.081L36.912,22.734z"/>
	<path fill="#F2CB7D" d="M59.42,22.404c-0.963,0.257-2.384,0.24-3.884-0.368c-2.065-0.838-3.416-2.46-3.786-4.515
		c-0.983,0.277-3.387-0.01-5.025-1.037c-2.388-1.496-2.862-5.666-2.862-5.666c-2.705-0.783-4.739-3.964-4.414-6.672
		c-2.222-0.599-5.039-0.479-7.449-0.479c-2.413,0-4.614,1.377-6.839,1.971c-2.305,0.616-4.896,0.543-6.913,1.708
		c-2.046,1.186-3.27,3.478-4.93,5.137c-1.661,1.661-3.953,2.886-5.137,4.931c-1.167,2.018-1.092,4.608-1.708,6.913
		C5.879,26.552,4.5,28.754,4.5,31.166c0,2.413,1.379,4.614,1.973,6.841c0.616,2.303,0.541,4.895,1.708,6.911
		c1.184,2.046,3.476,3.271,5.137,4.931c1.66,1.659,2.884,3.953,4.93,5.137c2.017,1.167,4.608,1.092,6.913,1.708
		c2.225,0.596,4.426,1.973,6.839,1.973c2.415,0,4.615-1.377,6.843-1.973c2.303-0.616,4.895-0.541,6.91-1.708
		c2.046-1.184,3.271-3.478,4.931-5.137c1.661-1.66,3.953-2.885,5.137-4.931c1.167-2.017,1.092-4.608,1.708-6.911
		c0.594-2.227,2.96-3.977,3.321-6.362C61.474,27.52,59.525,23.064,59.42,22.404z"/>
	<g>
		<g>
			<g>
				<polygon fill="#DDA85F" points="50.106,10.828 48.731,12.203 47.356,10.828 48.731,9.453 50.106,10.828 				"/>
			</g>
			<g>
				<polygon fill="#DDA85F" points="55.849,17.756 55.151,18.453 54.452,17.756 55.151,17.057 55.849,17.756 				"/>
			</g>
			<g>
				<polygon fill="#DDA85F" points="50.805,13.219 50.107,13.916 49.408,13.219 50.107,12.52 50.805,13.219 				"/>
			</g>
			<g>
				<polygon fill="#DDA85F" points="44.556,7.135 43.858,7.832 43.159,7.135 43.858,6.436 44.556,7.135 				"/>
			</g>
			<g>
				<polygon fill="#DDA85F" points="57.245,20.336 56.548,21.033 55.849,20.336 56.548,19.637 57.245,20.336 				"/>
			</g>
			<g>
				<polygon fill="#DDA85F" points="57.763,17.756 57.065,18.453 56.366,17.756 57.065,17.057 57.763,17.756 				"/>
			</g>
		</g>
	</g>
	<g>
		<path fill="#6D4934" d="M11.808,20.621c-0.967,1.662,0.501,4.844,2.455,5.654c2.927,1.216,4.638,1.396,6.397-1.661
			c0.62-1.077,1.413-3.979,1.115-4.662c-0.436-1.002-2.106-2.972-3.198-2.977C15.453,16.962,12.518,19.4,11.808,20.621z"/>
		<path fill="#A37F6A" d="M12.29,20.618c-0.716,1.231,1.129,4.798,3.46,4.542c3.259-0.358,3.025-7.243,1.557-7.243
			C14.992,17.917,12.816,19.714,12.29,20.618z"/>
	</g>
	<g>
		<path fill="#6D4934" d="M45.236,39.094c1.439-0.381,2.376-2.927,1.752-4.44c-0.938-2.268-1.775-3.304-4.413-2.594
			c-0.929,0.251-2.952,1.405-3.162,1.942c-0.312,0.787-0.474,2.78,0.121,3.381C41.237,39.101,44.18,39.373,45.236,39.094z"/>
		<path fill="#A37F6A" d="M43.763,36.705c1.066-0.281,2.765-3.661,0.971-3.948c-3.134-0.501-5.528,0.953-5.196,2.681
			C39.875,37.198,42.979,36.913,43.763,36.705z"/>
	</g>
	<g>
		<path fill="#6D4934" d="M24.902,44.519c-0.33-1.249-2.539-2.062-3.852-1.52c-1.967,0.813-2.866,1.54-2.25,3.828
			c0.218,0.806,1.219,2.561,1.685,2.743c0.683,0.271,2.412,0.411,2.933-0.105C24.908,47.987,25.145,45.436,24.902,44.519z"/>
		<path fill="#A37F6A" d="M23.159,43.591c-0.244-0.925-4.419,0.446-3.976,1.959c0.779,2.659,0.8,3.145,1.641,2.954
			C22.341,48.162,23.34,44.271,23.159,43.591z"/>
	</g>
	<g>
		<path fill="#6D4934" d="M51.095,25.519c-1.249,0.33-2.062,2.539-1.52,3.852c0.813,1.967,2.699,2.3,4.794,1.191
			c1.771-0.938,1.892-4.146,1.375-4.666C54.267,24.405,52.012,25.276,51.095,25.519z"/>
		<path fill="#A37F6A" d="M50.619,26.583c-0.646,0.704-1.096,3.506,0.417,3.063c2.659-0.779,4.583-3.542,3.375-3.917
			C52.927,25.268,51.3,25.842,50.619,26.583z"/>
	</g>
	
		<rect x="23.308" y="14.665" transform="matrix(0.7071 -0.7071 0.7071 0.7071 -4.13 22.1933)" fill="#6D4934" width="2.834" height="2.834"/>
	
		<rect x="15.255" y="32.093" transform="matrix(0.7069 -0.7073 0.7073 0.7069 -18.8149 21.6119)" fill="#DDA85F" width="2.833" height="2.834"/>
	
		<rect x="35.286" y="43.415" transform="matrix(0.7071 -0.7071 0.7071 0.7071 -20.9509 39.084)" fill="#DDA85F" width="2.834" height="2.834"/>
	
		<rect x="32.79" y="37.355" transform="matrix(0.7071 -0.7071 0.7071 0.7071 -17.6003 36.0365)" fill="#DDA85F" width="3.819" height="3.818"/>
	
		<rect x="25.515" y="7.925" transform="matrix(0.7071 -0.7071 0.7071 0.7071 1.0787 22.2722)" fill="#DDA85F" width="3.819" height="3.818"/>
	
		<rect x="41.742" y="44.903" transform="matrix(0.7071 -0.7071 0.7071 0.7071 -20.1124 44.0851)" fill="#6D4934" width="2.834" height="2.834"/>
	
		<rect x="49.679" y="33.843" transform="matrix(0.7071 -0.7071 0.7071 0.7071 -9.9668 46.4575)" fill="#6D4934" width="2.834" height="2.834"/>
	
		<rect x="42.14" y="23.909" transform="matrix(0.7071 -0.7071 0.7071 0.7071 -4.8568 37.5071)" fill="#6D4934" width="1.414" height="1.414"/>
	
		<rect x="13.961" y="37.557" transform="matrix(0.7071 -0.7071 0.7071 0.7071 -22.7604 21.579)" fill="#6D4934" width="1.414" height="1.414"/>
</g>
</svg>
