<?xml version="1.0" encoding="utf-8"?>
<!-- Generator: Adobe Illustrator 15.0.0, SVG Export Plug-In . SVG Version: 6.00 Build 0)  -->
<!DOCTYPE svg PUBLIC "-//W3C//DTD SVG 1.1//EN" "http://www.w3.org/Graphics/SVG/1.1/DTD/svg11.dtd">
<svg version="1.1" id="Layer_1" xmlns="http://www.w3.org/2000/svg" xmlns:xlink="http://www.w3.org/1999/xlink" x="0px" y="0px"
	 width="64px" height="64px" viewBox="0 0 64 64" enable-background="new 0 0 64 64" xml:space="preserve">
<g>
	<path fill="#F7F2DF" d="M50,45c6.045-8.248-45.498-10.161-45.498-10.161s-1.205,1.71-0.274,3.027C4.784,38.652,5.3,39.1,5,40
		c-0.33,0.989,0.828,1.979,1,3c0.277,1.645-0.627,2.385,1.299,3.253c0.703,0.316,4.364,1.583,4.6,0.027
		c0.614,1.367,1.849,2.657,3.21,3.289c1.435,0.666,3.158,0.818,4.511,1.083c0.691,1.578,1.657,0.899,2.816,1.749
		c1.181,0.866,2.983,1.679,4.488,1.419c1.318-0.229,1.168-0.938,2.608,0.177c-0.116,1.618,1.429,0.933,2.469,1.261
		c1.04,0.327,5.246,0.252,5.771,0.496c0.643,0.295-0.524,1.616,0.424,2.141c1.486,0.824,3.273-2.806,3.957-3.443
		c-0.122,0.614-0.397,3.283,0.99,2.866c1.764-0.531,1.314-3.058,2.791-3.641c1.668-0.66,2.8-1.711,3.199-3.485
		c0.151-0.674,0.199-1.356,0.153-2.045C50.452,47.885,50.593,45.605,50,45z"/>
	<g>
		<path fill="#E8E1D6" d="M27.731,51.477c-1.674-0.906-3.336-1.109-3.715-0.46c-0.377,0.649,0.672,1.908,2.348,2.813
			c1.671,0.903,3.336,1.11,3.715,0.46C30.457,53.639,29.406,52.379,27.731,51.477z"/>
		<path fill="#E8E1D6" d="M12.012,45.456c-1.711-0.833-3.383-0.966-3.729-0.302c-0.348,0.666,0.758,1.879,2.471,2.711
			c1.714,0.834,3.385,0.971,3.73,0.305C14.833,47.505,13.726,46.288,12.012,45.456z"/>
		<path fill="#E8E1D6" d="M18.591,48.551c-1.712-0.833-3.384-0.967-3.729-0.303c-0.348,0.666,0.76,1.879,2.472,2.713
			c1.713,0.832,3.383,0.969,3.729,0.303C21.411,50.6,20.306,49.383,18.591,48.551z"/>
		<path fill="#E8E1D6" d="M38.695,52.481c0.245-0.482,0.299-0.904,0.082-1.168c-0.484-0.594-2.096-0.172-3.594,0.94
			c-1.5,1.112-2.319,2.494-1.834,3.088c0.222,0.27,0.683,0.319,1.253,0.199c-0.379,0.671-0.478,1.262-0.179,1.57
			c0.531,0.557,2.1,0.012,3.498-1.211c1.4-1.224,2.104-2.666,1.57-3.221C39.321,52.502,39.038,52.448,38.695,52.481z"/>
		<path fill="#E8E1D6" d="M33.337,50.051c0.022,0.081,0.053,0.158,0.104,0.222c0.488,0.595,2.096,0.173,3.594-0.939
			c1.5-1.111,2.322-2.496,1.836-3.088c-0.484-0.594-2.096-0.172-3.592,0.939c-0.113,0.084-0.214,0.171-0.319,0.258
			c-0.001-0.202-0.05-0.376-0.171-0.501c-0.345-0.358-1.129-0.251-2.018,0.199c-0.324-0.05-0.661-0.088-1.018-0.1
			c-1.909-0.061-3.472,0.498-3.485,1.244c-0.011,0.515,0.722,0.979,1.796,1.243c-0.52,0.784-0.683,1.495-0.343,1.847
			c0.533,0.557,2.099,0.013,3.5-1.214C33.262,50.125,33.297,50.087,33.337,50.051z"/>
		<path fill="#E8E1D6" d="M44.514,48.029c-0.713-0.314-1.924,0.775-2.699,2.436C41.344,51.472,41,54,41.709,54.033
			c0.779,0.036,1.922-0.778,2.697-2.437C45.182,49.939,45.23,48.34,44.514,48.029z"/>
		<path fill="#E8E1D6" d="M49.52,42.029c-0.713-0.313-1.922,0.777-2.697,2.437c-0.775,1.658-0.822,3.258-0.104,3.568
			c0.715,0.314,1.924-0.776,2.695-2.435C50.189,43.939,50.238,42.342,49.52,42.029z"/>
		<path fill="#E8E1D6" d="M14.034,44.537c-0.347,0.667,0.761,1.88,2.474,2.713c1.712,0.833,3.382,0.97,3.73,0.303
			c0.347-0.663-0.759-1.881-2.474-2.714C16.053,44.007,14.381,43.872,14.034,44.537z"/>
		<path fill="#E8E1D6" d="M9.98,41.189c-0.111-1.823-0.839-3.275-1.62-3.24c-0.782,0.034-1.324,1.539-1.211,3.362
			s0.836,3.276,1.62,3.241C9.549,44.518,10.093,43.014,9.98,41.189z"/>
		<path fill="#E8E1D6" d="M15.444,42.558c1.113-1.467,1.5-3.018,0.863-3.463c-0.635-0.443-2.054,0.387-3.167,1.854
			c-1.114,1.468-1.503,3.018-0.868,3.462C12.909,44.856,14.329,44.027,15.444,42.558z"/>
		<path fill="#E8E1D6" d="M28.903,46.445c0.016-0.747-1.52-1.404-3.434-1.465c-1.908-0.061-3.47,0.498-3.485,1.244
			c-0.015,0.748,1.522,1.402,3.433,1.463C27.329,47.748,28.889,47.194,28.903,46.445z"/>
	</g>
</g>
<g>
	<rect x="13.391" y="13.677" fill="#3F4237" width="25.4" height="9.884"/>
	<path fill="#3F4237" d="M38.156,21.129c2.477,4.749-2.432,10.317-12.064,10.317c-9.635,0-14.543-5.568-12.064-10.317
		c1.754-3.368,6.972-5.454,12.064-5.454C31.184,15.675,36.4,17.761,38.156,21.129z"/>
	<path fill="#8CC63E" d="M38.156,11.429c2.477,4.75-2.43,10.316-12.064,10.316c-9.635,0-14.543-5.566-12.064-10.316
		C15.782,8.062,21,5.976,26.092,5.976C31.184,5.976,36.4,8.062,38.156,11.429z"/>
	<path fill="#FFEEE2" d="M37.059,11.429c2.01,4.238-2.551,9.015-10.966,9.015c-8.418,0-12.979-4.776-10.969-9.015
		c1.471-3.102,6.236-5.066,10.969-5.066S35.588,8.328,37.059,11.429z"/>
	<path fill="#FF5555" d="M31.576,11.902c0.462,1.942-1.96,3.773-5.483,3.773c-3.521,0-5.945-1.831-5.484-3.773
		c0.394-1.662,2.828-2.844,5.484-2.844S31.182,10.24,31.576,11.902z"/>
</g>
<g>
	<rect x="36.598" y="21.378" fill="#3F4237" width="25.402" height="9.884"/>
	<path fill="#3F4237" d="M61.361,28.832c2.477,4.748-2.43,10.316-12.064,10.316c-9.633,0-14.539-5.568-12.064-10.316
		c1.758-3.368,6.973-5.455,12.064-5.455S59.605,25.463,61.361,28.832z"/>
	<path fill="#8CC63E" d="M61.363,19.131c2.477,4.749-2.432,10.317-12.066,10.317c-9.633,0-14.539-5.568-12.063-10.317
		c1.756-3.368,6.971-5.454,12.063-5.454S59.605,15.763,61.363,19.131z"/>
	<path fill="#FFEEE2" d="M60.266,19.131c2.01,4.239-2.551,9.015-10.969,9.015c-8.416,0-12.979-4.775-10.967-9.015
		c1.471-3.103,6.236-5.067,10.967-5.067C54.029,14.064,58.795,16.029,60.266,19.131z"/>
	<path fill="#FF5555" d="M54.783,19.605c0.459,1.94-1.963,3.771-5.486,3.771c-3.521,0-5.943-1.831-5.482-3.771
		c0.395-1.663,2.828-2.845,5.482-2.845C51.953,16.76,54.387,17.942,54.783,19.605z"/>
</g>
<g>
	<path fill="#EC6430" d="M2.004,31.222c-0.105,2.209,1.512,5.082,3.777,6.517s36.445,14.467,38.173,12.589
		c1.725-1.879-6.723-12.676-11.447-14.725C20.028,30.192,2.004,31.222,2.004,31.222z"/>
	<path fill="#E8491F" d="M43.477,46.356c-0.141,1.098,0.125,4.22,0.479,3.972c2.188-1.551,8.299-9.421,5.492-15.683L43.477,46.356z"
		/>
	<path fill="#F3813B" d="M2.004,31.222c0,0,5.649-7.033,7.699-7.771c5.924-2.127,6.078-1.989,10.537-0.958
		c4.463,1.031,24.619,6.023,29.207,12.152c1.199,1.602-4.713,12.25-6,12.958c-1.15,0.631-8.184-1.394-17.643-7.47
		C15.077,33.243,4.272,31.774,2.004,31.222z"/>
	<path fill="#F4A24E" d="M38.312,45.524c-0.545-0.282-1.078-0.59-1.613-0.893c-0.315-3.267,0.898-7.118,0.737-10.429
		c-0.651,3.021-2.353,6.001-3.207,8.997c-0.24-0.143-0.479-0.283-0.719-0.426c-1.919-1.172-3.857-2.345-5.828-3.481
		c1.3-3.893,2.097-8.298,0.186-12.084c0.941,3.809-0.555,7.536-2.49,10.79c-0.526-0.288-1.05-0.579-1.583-0.858
		c-1.71-0.893-3.461-1.733-5.252-2.49c-0.755-3.376,2.192-7.63-0.889-10.46c1.835,2.871-0.653,6.306-1.544,9.5
		c-0.93-0.341-1.871-0.657-2.824-0.938c-3.65-1.1-7.486-1.748-11.28-1.529c3.648,1.026,7.106,2.267,10.479,3.729
		c3.364,1.478,6.641,3.132,9.923,4.847c3.286,1.705,6.564,3.495,10.022,5.043c1.72,0.786,3.5,1.488,5.337,2.044
		c1.84,0.513,3.777,0.923,5.682,0.719C41.607,47.144,39.937,46.388,38.312,45.524z"/>
</g>
</svg>
