<?xml version="1.0" encoding="utf-8"?>
<!-- Generator: Adobe Illustrator 15.0.0, SVG Export Plug-In . SVG Version: 6.00 Build 0)  -->
<!DOCTYPE svg PUBLIC "-//W3C//DTD SVG 1.1//EN" "http://www.w3.org/Graphics/SVG/1.1/DTD/svg11.dtd">
<svg version="1.1" id="Layer_1" xmlns="http://www.w3.org/2000/svg" xmlns:xlink="http://www.w3.org/1999/xlink" x="0px" y="0px"
	 width="64px" height="64px" viewBox="0 0 64 64" enable-background="new 0 0 64 64" xml:space="preserve">
<g>
	<path fill="#F29A2E" d="M50.914,48.568c-0.648-0.646-1.697-0.646-2.344,0l0,0c-0.648,0.648-0.648,1.697,0,2.346l10.6,10.6
		c0.646,0.648,1.697,0.648,2.344,0l0,0c0.648-0.646,0.648-1.697,0-2.344L50.914,48.568z"/>
	
		<ellipse transform="matrix(0.7071 -0.7071 0.7071 0.7071 -19.4666 46.9969)" fill="#8CC63E" cx="46.999" cy="46.998" rx="13.621" ry="11.971"/>
	<path fill="#F29A2E" d="M38.291,35.947c-0.646-0.647-1.695-0.647-2.344,0l0,0c-0.646,0.647-0.646,1.697,0,2.344l3.67,3.67
		c0.646,0.646,1.697,0.646,2.344,0l0,0c0.646-0.648,0.646-1.697,0-2.344L38.291,35.947z"/>
	
		<ellipse transform="matrix(0.7071 -0.7071 0.7071 0.7071 -12.8037 30.9109)" fill="#DAE3EA" cx="30.911" cy="30.911" rx="13.622" ry="11.971"/>
	<path fill="#F29A2E" d="M22.206,19.86c-0.648-0.647-1.697-0.647-2.345,0l0,0c-0.647,0.647-0.647,1.697,0,2.344l3.668,3.669
		c0.648,0.647,1.697,0.647,2.346,0l0,0c0.646-0.647,0.646-1.697,0-2.344L22.206,19.86z"/>
	
		<ellipse transform="matrix(0.7071 -0.7071 0.7071 0.7071 -6.1401 14.824)" fill="#FF99AD" cx="14.823" cy="14.823" rx="13.621" ry="11.972"/>
	<path fill="#F29A2E" d="M6.118,3.773c-0.647-0.647-1.697-0.647-2.345,0l0,0c-0.647,0.647-0.647,1.697,0,2.344l3.67,3.669
		c0.647,0.647,1.697,0.647,2.344,0l0,0c0.647-0.647,0.647-1.697,0-2.344L6.118,3.773z"/>
</g>
</svg>
