<?xml version="1.0" encoding="utf-8"?>
<!-- Generator: Adobe Illustrator 15.0.0, SVG Export Plug-In . SVG Version: 6.00 Build 0)  -->
<!DOCTYPE svg PUBLIC "-//W3C//DTD SVG 1.1//EN" "http://www.w3.org/Graphics/SVG/1.1/DTD/svg11.dtd">
<svg version="1.1" id="Layer_1" xmlns="http://www.w3.org/2000/svg" xmlns:xlink="http://www.w3.org/1999/xlink" x="0px" y="0px"
	 width="64px" height="64px" viewBox="0 0 64 64" enable-background="new 0 0 64 64" xml:space="preserve">
<g>
	<g>
		<path fill="#F0154F" d="M18.711,13.51c0-1.828,1.658-1.828,1.658-3.655c0-1.829-0.564-1.829-0.564-3.657
			c0-0.241-0.008-0.449-0.018-0.635c-0.248,0.163-0.491,0.331-0.715,0.51c-0.442,0.352-0.526,1.086-0.933,1.473
			c-0.408,0.387-0.638,0.899-1.008,1.318c-0.37,0.419-1.13,0.544-1.462,0.992c-0.33,0.447-0.307,1.107-0.596,1.581
			c-0.288,0.472-1.029,0.726-1.274,1.223c-0.243,0.494-0.204,1.116-0.402,1.633c-0.196,0.511-0.672,0.958-0.822,1.488
			c-0.147,0.525-0.213,1.097-0.313,1.639c-0.098,0.536-0.208,1.098-0.258,1.647c-0.049,0.539,0.529,1.11,0.529,1.663
			c0,0.552-0.183,1.09-0.134,1.63c0.05,0.55-0.226,1.143-0.127,1.678c0.1,0.541,0.505,1.026,0.653,1.551
			c0.149,0.531,0.094,1.13,0.291,1.642c0.198,0.517,0.72,0.905,0.963,1.399c0.244,0.498,4.425,1.33,4.425-0.497
			s1.501-1.827,1.501-3.655s0.207-1.828,0.207-3.656c0-1.826-1.279-1.826-1.279-3.654S18.711,15.338,18.711,13.51z"/>
		<path fill="#F27A52" d="M27.783,9.854c0-1.829-1.588-1.829-1.588-3.657c0-1.83,1.718-1.83,1.718-3.66
			c0-0.127-0.015-0.246-0.036-0.361c-0.354,0.045-0.704,0.09-1.039,0.176c-0.561,0.143-0.977,0.709-1.516,0.896
			c-0.544,0.188-1.13,0.243-1.65,0.474c-0.523,0.232-0.91,0.684-1.408,0.955c-0.499,0.275-1.295,0.108-1.766,0.423
			C20.497,5.1,20.496,5.1,20.495,5.1c-0.23,0.153-0.472,0.307-0.708,0.463c0.01,0.186,0.018,0.394,0.018,0.635
			c0,1.828,0.564,1.828,0.564,3.657c0,1.827-1.658,1.827-1.658,3.655s0.322,1.828,0.322,3.656s1.279,1.828,1.279,3.654
			c0,1.828-0.207,1.828-0.207,3.656s-1.501,1.828-1.501,3.655s7.679,1.827,7.679,0s-0.408-1.827-0.408-3.655
			s1.353-1.828,1.353-3.656c0-1.826-0.433-1.826-0.433-3.654s1.102-1.828,1.102-3.656S27.783,11.682,27.783,9.854z"/>
		<path fill="#FAD85C" d="M34.598,28.132c0-1.827,0.311-1.827,0.311-3.655s1.228-1.828,1.228-3.656c0-1.826-1.541-1.826-1.541-3.654
			s0.817-1.828,0.817-3.656s-0.818-1.828-0.818-3.655c0-1.829,0.543-1.829,0.543-3.657c0-1.83-0.81-1.83-0.81-3.66
			c0-0.134-0.005-0.258-0.013-0.377c-0.189-0.018-0.381-0.033-0.574-0.049C33.17,2.064,32.605,2,32.023,2s-1.139,0.143-1.709,0.188
			c-0.479,0.04-0.977-0.113-1.455-0.118c-0.1-0.002-0.201-0.006-0.3,0.011c-0.226,0.037-0.454,0.065-0.683,0.095
			c0.021,0.115,0.036,0.234,0.036,0.361c0,1.83-1.718,1.83-1.718,3.66c0,1.828,1.588,1.828,1.588,3.657
			c0,1.827,0.113,1.827,0.113,3.655s-1.102,1.828-1.102,3.656s0.433,1.828,0.433,3.654c0,1.828-1.353,1.828-1.353,3.656
			s0.408,1.828,0.408,3.655S34.598,29.959,34.598,28.132z"/>
		<path fill="#8CC63E" d="M42.672,28.132c0-1.827,1.031-1.827,1.031-3.655s-0.473-1.828-0.473-3.656
			c0-1.826,0.551-1.826,0.551-3.654s-1.4-1.828-1.4-3.656s1.293-1.828,1.293-3.655c0-1.829-0.619-1.829-0.619-3.657
			c0-0.449-0.015-0.789-0.037-1.072c-0.377-0.201-0.78-0.363-1.158-0.571c-0.498-0.272-0.906-0.706-1.43-0.938
			c-0.521-0.23-1.034-0.508-1.579-0.695c-0.39-0.135-0.757-0.377-1.144-0.556c-0.148-0.069-0.298-0.13-0.453-0.169
			c-0.553-0.141-1.233,0.188-1.805,0.094c-0.375-0.063-0.753-0.098-1.135-0.129c0.008,0.119,0.013,0.243,0.013,0.377
			c0,1.83,0.81,1.83,0.81,3.66c0,1.828-0.543,1.828-0.543,3.657c0,1.827,0.818,1.827,0.818,3.655s-0.817,1.828-0.817,3.656
			s1.541,1.828,1.541,3.654c0,1.828-1.228,1.828-1.228,3.656s-0.311,1.828-0.311,3.655S42.672,29.959,42.672,28.132z"/>
		<path fill="#42ADE2" d="M51.635,19.1c-0.05-0.55,0.264-1.146,0.165-1.682c-0.101-0.542-0.419-1.051-0.567-1.576
			c-0.149-0.531-0.2-1.103-0.396-1.614c-0.197-0.516-0.73-0.901-0.975-1.396c-0.244-0.497-0.176-1.153-0.463-1.626
			c-0.289-0.475-0.626-0.943-0.957-1.391c-0.33-0.448-0.578-0.99-0.949-1.408c-0.369-0.42-1.079-0.564-1.486-0.952
			c-0.373-0.355-0.717-0.744-1.11-1.079c-0.034-0.029-0.065-0.064-0.103-0.095c-0.44-0.352-0.945-0.628-1.418-0.943
			c-0.115-0.077-0.234-0.146-0.357-0.212c0.022,0.283,0.037,0.623,0.037,1.072c0,1.828,0.619,1.828,0.619,3.657
			c0,1.827-1.293,1.827-1.293,3.655s1.4,1.828,1.4,3.656s-0.551,1.828-0.551,3.654c0,1.828,0.473,1.828,0.473,3.656
			s-1.031,1.828-1.031,3.655s6.961,1.001,7.206,0.503c0.243-0.494,0.847-0.857,1.045-1.373c0.196-0.512,0.141-1.117,0.29-1.649
			c0.148-0.525,0.131-1.088,0.232-1.63c0.098-0.535,0.28-1.063,0.33-1.612C51.824,21.83,52,21.281,52,20.729
			C52,20.177,51.684,19.64,51.635,19.1z"/>
	</g>
	<g>
		<polygon fill="#E0E1E5" points="13.872,30.553 32,62 50.128,30.553 		"/>
		<path fill="#C1C4CB" d="M52,29.668c0,0.979-0.834,1.771-1.865,1.771c0,0-9.125-0.531-18.135-0.531s-18.135,0.531-18.135,0.531
			c-1.03,0-1.865-0.792-1.865-1.771l0,0c0-0.979,0.834-1.771,1.865-1.771c0,0,9.125-0.53,18.135-0.53s18.135,0.53,18.135,0.53
			C51.166,27.896,52,28.689,52,29.668L52,29.668z"/>
	</g>
</g>
</svg>
