<?xml version="1.0" encoding="utf-8"?>
<!-- Generator: Adobe Illustrator 15.0.0, SVG Export Plug-In . SVG Version: 6.00 Build 0)  -->
<!DOCTYPE svg PUBLIC "-//W3C//DTD SVG 1.1//EN" "http://www.w3.org/Graphics/SVG/1.1/DTD/svg11.dtd">
<svg version="1.1" id="Layer_1" xmlns="http://www.w3.org/2000/svg" xmlns:xlink="http://www.w3.org/1999/xlink" x="0px" y="0px"
	 width="64px" height="64px" viewBox="0 0 64 64" enable-background="new 0 0 64 64" xml:space="preserve">
<g>
	<path fill="#F2B5B5" d="M22.809,41.191c5.422,5.422,3.314,16.324-0.338,19.977c-3.654,3.652-3.217-5.578-8.639-11
		c-5.424-5.424-14.654-4.984-11-8.639C6.484,37.877,17.387,35.768,22.809,41.191z"/>
	<path fill="#FFE6E8" d="M2.832,41.529c0,0,6.09,0.326,7.145,5.129c0.508,2.314-0.758,4.508,1.05,6.314
		c1.806,1.807,4.001,0.543,6.315,1.051c4.803,1.053,5.129,7.145,5.129,7.145c3.652-3.652,5.76-14.555,0.338-19.977
		C17.387,35.768,6.484,37.877,2.832,41.529z"/>
	<g>
		<path fill="#F2B5B5" d="M41.189,22.811c-5.422-5.424-3.315-16.324,0.34-19.979c3.652-3.652,3.215,5.578,8.639,11
			c5.422,5.424,14.652,4.984,10.998,8.639C57.514,26.123,46.613,28.232,41.189,22.811z"/>
		<path fill="#FFE6E8" d="M61.166,22.471c0,0-6.09-0.324-7.144-5.129c-0.507-2.314,0.757-4.508-1.05-6.314
			c-1.805-1.805-4.002-0.543-6.314-1.049c-4.805-1.055-5.129-7.146-5.129-7.146c-3.655,3.654-5.762,14.555-0.34,19.979
			C46.613,28.232,57.514,26.123,61.166,22.471z"/>
	</g>
	<g>
		<path fill="#F0154F" d="M31.97,32.025c-0.001-0.004-0.002-0.008-0.003-0.012c-2.844,1.984-6.777,1.721-9.309-0.811
			c-2.177-2.176-2.673-5.385-1.511-8.051c-3.509,4.293-4.081,10.182-1.725,14.998C28.049,40.25,30.431,33.863,31.97,32.025z"/>
		<path fill="#F0154F" d="M31.954,31.957c0,0-0.001-0.002,0-0.002c-1.952-2.838-1.672-6.75,0.855-9.277
			c2.171-2.17,5.359-2.68,8.015-1.547c-4.287-3.49-10.156-4.059-14.964-1.715C23.72,28.049,30.103,30.422,31.954,31.957z"/>
		<path fill="#F0154F" d="M32.028,31.965c-0.003,0.01-0.007,0.02-0.01,0.029c0.006,0.008,0.01,0.016,0.015,0.021
			c2.847-1.996,6.79-1.738,9.327,0.799c2.15,2.15,2.658,5.307,1.552,7.953c3.442-4.273,4.002-10.098,1.683-14.877
			C35.981,23.766,33.571,30.078,32.028,31.965z"/>
		<path fill="#F0154F" d="M32.126,32.16c1.882,2.828,1.583,6.682-0.918,9.182c-2.166,2.168-5.349,2.678-8.001,1.553
			c4.277,3.461,10.116,4.023,14.905,1.699C40.2,36.143,34.107,33.697,32.126,32.16z"/>
		<path fill="#FFE6E8" d="M41.71,21.922c-0.287-0.277-0.581-0.543-0.886-0.791c-2.655-1.133-5.844-0.623-8.015,1.547
			c-2.527,2.527-2.808,6.439-0.855,9.277c-0.001,0,0,0.002,0,0.002c-1.852-1.535-8.234-3.908-6.094-12.541
			c-0.361,0.178-0.717,0.369-1.064,0.578c-0.961,0.576-1.868,1.277-2.696,2.105c-0.062,0.063-0.118,0.125-0.179,0.188
			c-0.271,0.281-0.53,0.568-0.773,0.865c-1.162,2.666-0.666,5.875,1.511,8.051c2.531,2.531,6.465,2.795,9.309,0.811
			c0.001,0.004,0.002,0.008,0.003,0.012c-1.539,1.838-3.921,8.225-12.547,6.125c0.185,0.379,0.387,0.75,0.608,1.115
			c0.57,0.938,1.258,1.822,2.067,2.633c0.069,0.068,0.141,0.133,0.21,0.201c0.292,0.277,0.591,0.545,0.898,0.795
			c2.652,1.125,5.835,0.615,8.001-1.553c2.501-2.5,2.8-6.354,0.918-9.182c1.981,1.537,8.074,3.982,5.986,12.434
			c0.367-0.178,0.729-0.371,1.081-0.584c0.965-0.578,1.874-1.279,2.705-2.111c0.067-0.066,0.129-0.137,0.193-0.203
			c0.289-0.301,0.564-0.609,0.82-0.928c1.106-2.646,0.599-5.803-1.552-7.953c-2.537-2.537-6.48-2.795-9.327-0.799
			c-0.005-0.006-0.009-0.014-0.015-0.021c0.003-0.01,0.007-0.02,0.01-0.029c1.543-1.887,3.953-8.199,12.566-6.074
			c-0.166-0.344-0.344-0.684-0.54-1.014c-0.587-0.992-1.305-1.926-2.157-2.777C41.837,22.039,41.772,21.98,41.71,21.922z"/>
	</g>
</g>
</svg>
