<?xml version="1.0" encoding="utf-8"?>
<!-- Generator: Adobe Illustrator 15.0.0, SVG Export Plug-In . SVG Version: 6.00 Build 0)  -->
<!DOCTYPE svg PUBLIC "-//W3C//DTD SVG 1.1//EN" "http://www.w3.org/Graphics/SVG/1.1/DTD/svg11.dtd">
<svg version="1.1" id="Layer_1" xmlns="http://www.w3.org/2000/svg" xmlns:xlink="http://www.w3.org/1999/xlink" x="0px" y="0px"
	 width="64px" height="64px" viewBox="0 0 64 64" enable-background="new 0 0 64 64" xml:space="preserve">
<g>
	<path fill-rule="evenodd" clip-rule="evenodd" fill="#B2C1C0" d="M62.001,32.071c0.006,2.501-4.309,4.412-4.918,6.717
		c-0.633,2.39,2.148,6.185,0.943,8.274c-1.223,2.121-5.91,1.615-7.631,3.335c-1.719,1.719-1.213,6.407-3.334,7.631
		c-2.09,1.204-5.885-1.576-8.271-0.946c-2.307,0.61-4.217,4.925-6.721,4.918c-2.506-0.007-4.4-4.332-6.715-4.958
		c-2.391-0.646-6.207,2.116-8.301,0.9c-2.125-1.233-1.617-5.929-3.344-7.653c-1.725-1.726-6.418-1.219-7.65-3.343
		c-1.217-2.096,1.543-5.908,0.898-8.3c-0.623-2.313-4.951-4.21-4.957-6.717c-0.008-2.502,4.307-4.412,4.916-6.718
		c0.631-2.39-2.15-6.184-0.945-8.273c1.223-2.121,5.91-1.616,7.631-3.335c1.719-1.72,1.213-6.408,3.334-7.63
		c2.09-1.205,5.885,1.575,8.273,0.943C27.517,6.308,29.427,1.993,31.929,2c2.508,0.007,4.402,4.333,6.717,4.958
		c2.389,0.646,6.203-2.114,8.299-0.898c2.125,1.232,1.617,5.928,3.344,7.653c1.727,1.725,6.418,1.219,7.652,3.342
		c1.217,2.095-1.545,5.91-0.898,8.3C57.667,27.668,61.993,29.564,62.001,32.071z"/>
	<path fill-rule="evenodd" clip-rule="evenodd" fill="#E2F0F2" d="M62.001,30.858c0.006,2.401-4.309,4.234-4.918,6.446
		c-0.633,2.293,2.148,5.935,0.943,7.94c-1.223,2.036-5.91,1.55-7.631,3.2c-1.719,1.649-1.213,6.148-3.334,7.323
		c-2.09,1.155-5.885-1.513-8.271-0.907c-2.307,0.585-4.217,4.726-6.721,4.719c-2.506-0.007-4.4-4.157-6.715-4.758
		c-2.391-0.619-6.207,2.03-8.301,0.863c-2.125-1.184-1.617-5.688-3.344-7.344c-1.725-1.656-6.418-1.17-7.65-3.208
		c-1.217-2.011,1.543-5.671,0.898-7.966c-0.623-2.22-4.951-4.04-4.957-6.445c-0.008-2.402,4.307-4.234,4.916-6.447
		c0.631-2.292-2.15-5.934-0.945-7.939c1.223-2.035,5.91-1.551,7.631-3.2c1.719-1.65,1.213-6.149,3.334-7.322
		c2.09-1.156,5.885,1.512,8.273,0.905C27.517,6.134,29.427,1.994,31.929,2c2.508,0.007,4.402,4.158,6.717,4.758
		c2.389,0.62,6.203-2.028,8.299-0.861c2.125,1.183,1.617,5.688,3.344,7.344s6.418,1.17,7.652,3.208
		c1.217,2.009-1.545,5.671-0.898,7.964C57.667,26.633,61.993,28.453,62.001,30.858z"/>
	<path fill="#FC97B2" d="M51.06,37.872c-0.911,2.968-2.593,5.793-4.933,8.069c-2.325,2.288-5.328,3.983-8.59,4.799
		c-6.504,1.681-14.005-0.21-18.783-5.14c-2.404-2.431-4-5.596-4.681-8.839c-0.685-3.258-0.494-6.585,0.356-9.664
		c0.849-3.082,2.385-5.945,4.506-8.323c2.089-2.426,4.98-4.247,8.208-5.069c3.222-0.815,6.807-0.609,9.996,0.801
		c3.163,1.376,6.023,3.933,7.444,7.376c1.44,3.394,1.427,7.407-0.127,10.837c-0.762,1.716-1.886,3.281-3.294,4.526
		c-1.53,1.366-3.347,2.216-5.291,2.622c-1.938,0.373-3.966,0.261-5.828-0.371c-1.859-0.627-3.561-1.726-4.835-3.184
		c-1.37-1.539-2.195-3.489-2.364-5.481c-0.178-1.992,0.337-4.002,1.372-5.653c0.509-0.818,1.176-1.58,1.883-2.15
		c0.848-0.687,1.709-1.11,2.671-1.389c1.897-0.55,3.952-0.269,5.563,0.697c0.807,0.481,1.505,1.095,2.04,1.846
		c0.557,0.782,0.885,1.666,0.988,2.565c0.216,1.803-0.584,3.582-1.892,4.548l-0.354-0.354c0.875-1.177,1.046-2.671,0.614-3.856
		c-0.203-0.593-0.562-1.122-0.991-1.501c-0.457-0.403-0.991-0.736-1.55-0.93c-1.121-0.394-2.341-0.312-3.323,0.146
		c-0.478,0.218-0.955,0.584-1.24,0.917c-0.415,0.459-0.714,0.9-0.949,1.412c-0.939,2.013-0.415,4.479,1.072,5.819
		c1.618,1.535,3.941,2.163,6.041,1.672c1.039-0.206,2.05-0.739,2.816-1.376c0.884-0.762,1.618-1.691,2.155-2.73
		c1.066-2.083,1.259-4.653,0.47-6.937c-0.405-1.153-0.996-2.176-1.869-3.156c-0.816-0.896-1.861-1.781-2.977-2.444
		c-2.247-1.355-5.009-2.044-7.782-1.751c-2.779,0.25-5.474,1.569-7.5,3.639c-2.04,2.074-3.477,4.766-3.998,7.624
		c-0.542,2.855-0.161,5.821,0.889,8.405c1.048,2.603,2.743,4.807,4.756,6.576c2.021,1.775,4.377,3.155,6.959,3.942
		c2.575,0.803,5.345,1.001,8.054,0.6c2.711-0.407,5.356-1.447,7.712-3.061c2.361-1.615,4.392-3.795,6.135-6.305L51.06,37.872z"/>
</g>
</svg>
