<?xml version="1.0" encoding="utf-8"?>
<!-- Generator: Adobe Illustrator 15.0.0, SVG Export Plug-In . SVG Version: 6.00 Build 0)  -->
<!DOCTYPE svg PUBLIC "-//W3C//DTD SVG 1.1//EN" "http://www.w3.org/Graphics/SVG/1.1/DTD/svg11.dtd">
<svg version="1.1" id="Layer_1" xmlns="http://www.w3.org/2000/svg" xmlns:xlink="http://www.w3.org/1999/xlink" x="0px" y="0px"
	 width="64px" height="64px" viewBox="0 0 64 64" enable-background="new 0 0 64 64" xml:space="preserve">
<g>
	<path fill-rule="evenodd" clip-rule="evenodd" fill="#FFD170" d="M2,33.32C2,46.398,15.431,57,32,57c16.567,0,30-10.602,30-23.68
		C62,20.24,48.567,9.639,32,9.639C15.431,9.639,2,20.24,2,33.32z M20.925,35.508c0-3.8,4.958-6.881,11.075-6.881
		c6.114,0,11.073,3.081,11.073,6.881c0,3.799-4.959,6.881-11.073,6.881C25.883,42.389,20.925,39.307,20.925,35.508z"/>
	<path fill-rule="evenodd" clip-rule="evenodd" fill="#FF4085" d="M2,26.932c0,1.914,0.234,3.735,0.693,5.449
		c0.604,2.257,0.979,6.232,2.346,8.089c0.68,0.922,2.162-0.34,3.361-0.34c2.233,0,2.616,4.857,5.272,4.857
		c3.984,0,2.102,3.338,7.616,3.338c2.947,0,4.227-2.732,5.745-2.732c3.817,0,3.628,5.092,7.255,5.092
		c3.802,0,3.604-6.021,7.063-6.021c3.375,0,4.079,3.104,6.732,3.104c2.812,0,2.106-9.201,5.226-9.201
		c3.593,0,5.601-1.424,6.354-2.748C61.168,33.172,62,30.186,62,26.932C62,16.35,48.566,7,32,7S2,16.35,2,26.932z M20.925,27.246
		c0-1.234,1.326-2.109,2.241-3.11c0.671-0.733,1.186-2.647,2.227-3.182c1.915-0.981,3.614,2.473,6.29,2.473
		c1.382,0,4.253-2.443,5.474-2.155c2.046,0.482,1.155,1.779,2.415,2.864c1.313,1.131,3.502,1.609,3.502,3.11
		c0,3.801-2.438,6.881-11.073,6.881C23.362,34.127,20.925,31.046,20.925,27.246z"/>
	<path fill-rule="evenodd" clip-rule="evenodd" fill="#63B6E6" d="M40.511,38.859l-5.758,3.025c-0.93,0.488-1.754-1.061-0.824-1.549
		l5.758-3.023C40.614,36.822,41.438,38.371,40.511,38.859z"/>
	<path fill-rule="evenodd" clip-rule="evenodd" fill="#63B6E6" d="M51.339,19.77l-6.148-2.14c-0.992-0.345-0.422-2.003,0.57-1.657
		l6.15,2.14C52.902,18.458,52.331,20.115,51.339,19.77z"/>
	<path fill-rule="evenodd" clip-rule="evenodd" fill="#9729CC" d="M17.485,33.111l-6.171,2.076c-0.996,0.336-1.56-1.324-0.564-1.658
		l6.171-2.077C17.917,31.117,18.481,32.777,17.485,33.111z"/>
	<path fill-rule="evenodd" clip-rule="evenodd" fill="#9729CC" d="M28.876,15.628l-6.048-2.41c-0.976-0.389-0.333-2.018,0.644-1.63
		L29.52,14C30.495,14.388,29.853,16.017,28.876,15.628z"/>
	<path fill-rule="evenodd" clip-rule="evenodd" fill="#FFFFFF" d="M12.632,26.896l-5.848-2.863
		c-0.942-0.463-0.177-2.039,0.766-1.576l5.848,2.863C14.341,25.783,13.575,27.359,12.632,26.896z"/>
	<path fill-rule="evenodd" clip-rule="evenodd" fill="#FFFFFF" d="M57.044,24.751l-6.172,2.075c-0.996,0.334-1.56-1.324-0.564-1.659
		l6.172-2.075C57.476,22.758,58.04,24.417,57.044,24.751z"/>
	<path fill-rule="evenodd" clip-rule="evenodd" fill="#FFF080" d="M25.425,40.402l-6.508,0.281c-1.05,0.047-1.127-1.703-0.078-1.75
		l6.508-0.281C26.396,38.605,26.474,40.355,25.425,40.402z"/>
	<path fill-rule="evenodd" clip-rule="evenodd" fill="#FFF080" d="M42.78,11.929l-6.26,1.8c-1.01,0.293-1.496-1.392-0.487-1.683
		l6.26-1.802C43.304,9.954,43.788,11.636,42.78,11.929z"/>
	<path fill-rule="evenodd" clip-rule="evenodd" fill="#84E060" d="M46.587,32.824l6.49,0.297c1.047,0.047,0.955,1.801-0.093,1.752
		l-6.489-0.297C45.448,34.529,45.54,32.775,46.587,32.824z"/>
	<path fill-rule="evenodd" clip-rule="evenodd" fill="#84E060" d="M18.618,17.314l-6.297,1.652c-1.016,0.266-1.455-1.43-0.438-1.697
		l6.297-1.652C19.195,15.35,19.634,17.046,18.618,17.314z"/>
</g>
</svg>
