<?xml version="1.0" encoding="utf-8"?>
<!-- Generator: Adobe Illustrator 15.0.0, SVG Export Plug-In . SVG Version: 6.00 Build 0)  -->
<!DOCTYPE svg PUBLIC "-//W3C//DTD SVG 1.1//EN" "http://www.w3.org/Graphics/SVG/1.1/DTD/svg11.dtd">
<svg version="1.1" id="Layer_1" xmlns="http://www.w3.org/2000/svg" xmlns:xlink="http://www.w3.org/1999/xlink" x="0px" y="0px"
	 width="64px" height="64px" viewBox="0 0 64 64" enable-background="new 0 0 64 64" xml:space="preserve">
<g>
	<g>
		<path fill="#FFC861" d="M20.222,45.258l2.287,12.768h0.012C22.593,60.805,26.446,62,33.433,62c6.984,0,10.84-1.195,10.91-3.975
			h0.014l2.283-12.768H20.222z"/>
		<path fill="#B17F4A" d="M20.284,45.602c0,0,3.102,2.689,13.148,2.689c10.045,0,13.146-2.689,13.146-2.689H20.284z"/>
		<path fill="#FFC861" d="M16.433,34.99l1,8.076h0.016c0.094,2.777,6.795,3.975,15.984,3.975c9.188,0,15.889-1.197,15.982-3.975
			h0.018l1-8.076H16.433z"/>
		<path fill="#B17F4A" d="M16.884,38.645c0.002,0.002,3.832,3.816,16.549,3.816c12.713,0,16.51-3.518,16.51-3.518L16.884,38.645z"/>
		<g>
			<path fill="#FFE0B5" d="M52.966,32.917c0,8.197-8.656,8.201-19.334,8.201c-10.68,0-19.336-0.004-19.336-8.201
				c0-5.725,8.656-10.365,19.336-10.365C44.31,22.551,52.966,27.192,52.966,32.917z"/>
			<path fill="#8F6453" d="M50.112,29.061c-6.043-4.113-12.602,0.842-19.4-0.691c-1.658-0.375-3.018-0.971-4.139-1.676l-2.309-7.389
				c0,0,4.627-5.617-2.316-6.041c-6.945-0.426-11.705,14.254-6.377,21.972c3.605,5.225,9.936,2.063,13.279,2.127
				c3.65,0.068,6.303,2.152,14.59,0.195c6.104-1.443,7.613-1.9,8.287-0.264C51.728,37.295,54.108,31.782,50.112,29.061z"/>
			<path fill="#FFE0B5" d="M28.353,34.727c0,0-10.926,5.168-16.348-2.667c-5.424-7.838,1.102-20.723,8.377-20.299
				c7.275,0.426,2.426,6.043,2.426,6.043L28.353,34.727z"/>
			<path fill="#8F6453" d="M49.835,28.897c0.662-0.332,3.201-6.451,0.422-10.465c-2.775-4.012-6.412-4.887-9.646-7.076
				c-1.758-1.189-4.824-4.457-0.592-7.336c0,0-8.998-5.713-15.934,2.076c-4.33,4.861-4.938,9.535-3.438,15.199
				c1.777,6.721,17.943,10.102,17.943,10.102L49.835,28.897z"/>
			<path fill="#FFE0B5" d="M40.019,4.02c-2.045,0.037-4.037,0.189-5.857,0.732c-1.824,0.496-3.443,1.381-4.691,2.551
				c-2.525,2.334-3.475,5.859-2.967,9.166c0.486,3.326,2.418,6.424,5.396,8.416c2.971,2.053,6.875,2.912,10.939,3.176
				c-1.955,0.596-4.039,0.834-6.16,0.746c-2.109-0.131-4.273-0.617-6.236-1.615c-1.969-0.979-3.715-2.447-5.014-4.225
				c-1.301-1.779-2.146-3.859-2.471-6.014c-0.316-2.156-0.113-4.395,0.676-6.463c0.787-2.063,2.186-3.949,4.035-5.248
				c1.836-1.322,4.055-1.986,6.191-2.141C36.015,2.983,38.106,3.313,40.019,4.02z"/>
			<path fill="#8F6453" d="M20.319,12.795c-2.264,1.629-3.549,3.771-4.322,6.014c-0.758,2.24-0.969,4.621-0.541,6.801
				c0.432,2.18,1.527,4.115,3.408,5.482c1.869,1.398,4.424,2.16,7.182,2.73c-2.666,0.842-5.789,0.904-8.641-0.424
				c-1.412-0.658-2.686-1.693-3.625-2.953c-0.943-1.26-1.547-2.721-1.842-4.201c-0.578-2.973,0.035-6.008,1.5-8.537
				c0.744-1.26,1.709-2.404,2.891-3.285C17.517,13.557,18.894,12.917,20.319,12.795z"/>
			<path fill="#FFE0B5" d="M40.019,4.02c-2.586,1.123-4.303,2.758-5.023,4.666c-0.76,1.895-0.762,4.035-0.305,6.123
				c0.467,2.094,1.387,4.143,2.715,6.039c1.318,1.918,3.059,3.645,5.201,5.389c-2.822-0.068-5.627-1.25-7.834-3.148
				c-2.211-1.898-3.834-4.512-4.463-7.4c-0.635-2.854-0.27-6.137,1.648-8.686c0.947-1.258,2.281-2.244,3.729-2.748
				C37.136,3.749,38.653,3.688,40.019,4.02z"/>
			<path fill="#FFE0B5" d="M40.019,4.02c-0.783,1.053-1.555,2.084-1.859,3.127c-0.322,1.043-0.115,1.842,0.422,2.646
				c0.539,0.809,1.375,1.604,2.275,2.383c0.908,0.783,1.885,1.568,2.867,2.385c1.953,1.641,3.961,3.449,5.473,5.75
				c0.744,1.146,1.352,2.428,1.617,3.785c0.254,1.354,0.193,2.754-0.326,3.965c-0.506-2.572-1.863-4.449-3.531-6.119
				c-1.668-1.674-3.633-3.156-5.592-4.805c-0.977-0.83-1.969-1.686-2.906-2.672c-0.926-0.988-1.859-2.09-2.43-3.553
				c-0.275-0.727-0.434-1.566-0.324-2.389c0.1-0.826,0.453-1.576,0.91-2.164C37.562,5.196,38.753,4.491,40.019,4.02z"/>
			<path fill="#8F6453" d="M51.728,37.295c0,0,6.178-5.685-1.84-9.738c-6.725-3.396-13.201,0.844-20.324-0.689
				c-8.182-1.764-9.535-8.436-9.535-8.436c-2.291,5.602-0.176,12.148,5.057,14.917c5.234,2.768,12.352,3.359,17.814,1.951
				C49.247,33.664,51.021,35.658,51.728,37.295z"/>
			<path fill="#FFE0B5" d="M20.028,18.432c0.564,1.516,1.408,2.838,2.357,4.049c0.949,1.205,2.016,2.283,3.195,3.174
				c2.348,1.801,5.119,2.783,8.051,2.977c0.732,0.057,1.477,0.063,2.225,0.025c0.375-0.012,0.752-0.037,1.129-0.072l1.189-0.129
				c1.727-0.174,3.463-0.232,5.217-0.059c1.744,0.172,3.516,0.551,5.123,1.342c1.586,0.783,3.031,2.039,3.555,3.611
				c-1.211-1.144-2.656-1.751-4.158-2.031c-1.498-0.293-3.041-0.32-4.59-0.229c-1.543,0.096-3.107,0.303-4.645,0.58l-0.598,0.107
				l-0.658,0.104c-0.441,0.063-0.887,0.117-1.334,0.152c-0.898,0.064-1.807,0.072-2.721,0.014c-1.82-0.133-3.652-0.561-5.328-1.324
				c-1.674-0.76-3.178-1.838-4.389-3.121c-1.215-1.287-2.16-2.758-2.797-4.316C20.253,21.727,19.806,20.067,20.028,18.432z"/>
		</g>
	</g>
	<g>
		<g>
			<g>
				<path fill="#E3A93D" d="M21.62,47.622c0.012,0.077,0.023,0.155,0.036,0.233c0.969,0.221,1.942,0.415,2.922,0.581
					c0.056,0.482,0.112,0.967,0.17,1.451c-0.96-0.163-1.917-0.354-2.866-0.57c0.012,0.077,0.023,0.156,0.036,0.234
					c1.249,0.284,2.508,0.523,3.774,0.715c-0.066-0.638-0.134-1.274-0.2-1.911C24.193,48.159,22.901,47.915,21.62,47.622z"/>
				<path fill="#E3A93D" d="M26.513,48.499c0.008,0.077,0.015,0.154,0.022,0.231c0.983,0.129,1.97,0.229,2.96,0.305
					c0.025,0.479,0.05,0.959,0.075,1.438c-0.97-0.073-1.938-0.172-2.903-0.299c0.008,0.077,0.014,0.155,0.021,0.231
					c1.27,0.167,2.545,0.285,3.822,0.357c-0.025-0.633-0.05-1.266-0.076-1.897C29.124,48.793,27.815,48.67,26.513,48.499z"/>
				<path fill="#E3A93D" d="M31.463,48.914c0.003,0.076,0.005,0.153,0.007,0.229c0.991,0.038,1.983,0.046,2.977,0.027
					c-0.007,0.479-0.014,0.958-0.021,1.438c-0.973,0.019-1.945,0.01-2.919-0.026c0.003,0.076,0.005,0.152,0.007,0.229
					c1.278,0.048,2.56,0.048,3.838,0c0.018-0.632,0.033-1.265,0.051-1.896C34.089,48.963,32.776,48.963,31.463,48.914z"/>
				<path fill="#E3A93D" d="M36.432,48.866c-0.003,0.077-0.007,0.152-0.01,0.23c0.99-0.057,1.979-0.141,2.966-0.251
					c-0.038,0.481-0.077,0.962-0.115,1.443c-0.967,0.107-1.937,0.19-2.907,0.245c-0.003,0.076-0.007,0.153-0.01,0.229
					c1.277-0.072,2.553-0.19,3.822-0.357c0.058-0.636,0.115-1.271,0.175-1.907C39.05,48.67,37.741,48.793,36.432,48.866z"/>
				<path fill="#E3A93D" d="M41.373,48.355c-0.008,0.077-0.017,0.154-0.024,0.231c0.981-0.149,1.958-0.325,2.931-0.528
					c-0.07,0.486-0.14,0.973-0.209,1.459c-0.953,0.199-1.911,0.372-2.874,0.517c-0.008,0.077-0.016,0.154-0.023,0.232
					c1.267-0.191,2.525-0.431,3.774-0.715c0.1-0.644,0.199-1.287,0.298-1.93C43.964,47.915,42.671,48.159,41.373,48.355z"/>
			</g>
			<g>
				<path fill="#E3A93D" d="M21.982,49.972c0.013,0.078,0.024,0.156,0.036,0.234c0.939,0.214,1.883,0.401,2.833,0.563
					c0.056,0.482,0.112,0.967,0.169,1.45c-0.93-0.157-1.855-0.342-2.776-0.552c0.013,0.077,0.024,0.154,0.036,0.232
					c1.211,0.275,2.431,0.508,3.656,0.692c-0.066-0.638-0.133-1.273-0.2-1.91C24.478,50.493,23.226,50.255,21.982,49.972z"/>
				<path fill="#E3A93D" d="M26.726,50.822c0.008,0.076,0.015,0.154,0.021,0.231c0.954,0.125,1.91,0.224,2.869,0.295
					c0.025,0.479,0.051,0.959,0.076,1.438c-0.94-0.069-1.878-0.166-2.813-0.288c0.007,0.077,0.014,0.152,0.021,0.229
					c1.229,0.161,2.465,0.276,3.701,0.347c-0.024-0.633-0.05-1.265-0.075-1.897C29.256,51.106,27.988,50.987,26.726,50.822z"/>
				<path fill="#E3A93D" d="M31.524,51.225c0.002,0.076,0.003,0.153,0.006,0.229c0.961,0.035,1.923,0.045,2.884,0.026
					c-0.006,0.479-0.013,0.957-0.02,1.437c-0.942,0.018-1.885,0.01-2.827-0.025c0.002,0.076,0.005,0.151,0.007,0.229
					c1.238,0.046,2.479,0.046,3.717,0c0.017-0.632,0.033-1.264,0.05-1.896C34.069,51.271,32.796,51.271,31.524,51.225z"/>
				<path fill="#E3A93D" d="M36.339,51.178c-0.004,0.076-0.006,0.154-0.009,0.229c0.96-0.054,1.918-0.134,2.873-0.242
					c-0.038,0.48-0.076,0.962-0.114,1.443c-0.936,0.105-1.875,0.185-2.816,0.237c-0.004,0.077-0.006,0.152-0.009,0.229
					c1.236-0.07,2.472-0.186,3.701-0.347c0.058-0.635,0.116-1.271,0.175-1.906C38.877,50.987,37.609,51.106,36.339,51.178z"/>
				<path fill="#E3A93D" d="M41.129,50.683c-0.009,0.077-0.017,0.155-0.024,0.231c0.951-0.144,1.898-0.313,2.84-0.511
					c-0.069,0.485-0.139,0.973-0.207,1.458c-0.925,0.192-1.853,0.36-2.785,0.501c-0.007,0.076-0.016,0.153-0.023,0.23
					c1.226-0.185,2.445-0.417,3.656-0.692c0.099-0.644,0.198-1.286,0.298-1.929C43.64,50.255,42.388,50.493,41.129,50.683z"/>
			</g>
			<g>
				<path fill="#E3A93D" d="M22.346,52.322c0.013,0.078,0.023,0.154,0.036,0.23c0.909,0.209,1.823,0.391,2.741,0.545
					c0.058,0.485,0.113,0.97,0.17,1.454c-0.899-0.152-1.795-0.33-2.686-0.534c0.013,0.078,0.024,0.155,0.036,0.232
					c1.171,0.269,2.351,0.491,3.537,0.67c-0.066-0.636-0.133-1.272-0.199-1.908C24.761,52.827,23.549,52.598,22.346,52.322z"/>
				<path fill="#E3A93D" d="M26.939,53.146c0.007,0.076,0.013,0.152,0.021,0.228c0.923,0.122,1.849,0.217,2.777,0.285
					c0.026,0.481,0.051,0.961,0.076,1.442c-0.91-0.067-1.816-0.16-2.722-0.279c0.008,0.076,0.015,0.153,0.021,0.229
					c1.189,0.156,2.384,0.268,3.581,0.335c-0.025-0.633-0.051-1.264-0.075-1.896C29.389,53.422,28.161,53.307,26.939,53.146z"/>
				<path fill="#E3A93D" d="M31.585,53.536c0.002,0.076,0.004,0.15,0.006,0.227c0.93,0.034,1.861,0.043,2.792,0.025
					c-0.007,0.479-0.013,0.959-0.019,1.438c-0.913,0.017-1.824,0.009-2.736-0.024c0.002,0.076,0.004,0.152,0.006,0.229
					c1.199,0.043,2.398,0.043,3.598,0c0.016-0.633,0.032-1.265,0.049-1.896C34.049,53.581,32.816,53.581,31.585,53.536z"/>
				<path fill="#E3A93D" d="M36.246,53.491c-0.003,0.075-0.006,0.151-0.009,0.227c0.93-0.053,1.857-0.132,2.783-0.235
					c-0.038,0.481-0.077,0.964-0.115,1.445c-0.906,0.103-1.814,0.18-2.726,0.23c-0.003,0.076-0.006,0.152-0.009,0.229
					c1.197-0.067,2.392-0.179,3.58-0.335c0.06-0.636,0.117-1.27,0.175-1.905C38.704,53.307,37.477,53.422,36.246,53.491z"/>
				<path fill="#E3A93D" d="M40.884,53.012c-0.007,0.076-0.015,0.151-0.023,0.229c0.921-0.14,1.838-0.304,2.75-0.496
					c-0.069,0.487-0.139,0.975-0.209,1.462c-0.893,0.187-1.791,0.349-2.692,0.484c-0.009,0.077-0.017,0.152-0.024,0.229
					c1.187-0.179,2.366-0.401,3.537-0.67c0.1-0.643,0.198-1.284,0.298-1.928C43.316,52.597,42.104,52.827,40.884,53.012z"/>
			</g>
			<g>
				<path fill="#E3A93D" d="M22.709,54.672c0.012,0.078,0.024,0.154,0.036,0.232c0.879,0.201,1.763,0.376,2.651,0.527
					c0.056,0.483,0.113,0.968,0.17,1.451c-0.87-0.147-1.735-0.32-2.596-0.517c0.012,0.079,0.024,0.157,0.036,0.235
					c1.131,0.259,2.271,0.475,3.418,0.647c-0.066-0.637-0.134-1.274-0.2-1.911C25.046,55.16,23.872,54.938,22.709,54.672z"/>
				<path fill="#E3A93D" d="M27.151,55.468c0.007,0.078,0.015,0.154,0.021,0.23c0.893,0.117,1.789,0.209,2.687,0.275
					c0.025,0.479,0.05,0.959,0.074,1.439c-0.878-0.065-1.755-0.155-2.629-0.271c0.007,0.079,0.015,0.156,0.021,0.233
					c1.148,0.15,2.304,0.259,3.46,0.324c-0.025-0.633-0.051-1.266-0.075-1.899C29.521,55.734,28.334,55.624,27.151,55.468z"/>
				<path fill="#E3A93D" d="M31.646,55.845c0.002,0.076,0.004,0.152,0.006,0.228c0.899,0.035,1.8,0.042,2.7,0.025
					c-0.007,0.479-0.012,0.957-0.019,1.437c-0.882,0.018-1.764,0.009-2.645-0.023c0.002,0.077,0.004,0.154,0.006,0.231
					c1.158,0.043,2.318,0.043,3.477,0c0.016-0.632,0.033-1.265,0.049-1.897C34.029,55.889,32.836,55.889,31.646,55.845z"/>
				<path fill="#E3A93D" d="M36.154,55.801c-0.003,0.076-0.006,0.153-0.009,0.229c0.898-0.05,1.796-0.125,2.69-0.227
					c-0.038,0.48-0.076,0.962-0.113,1.442c-0.876,0.1-1.755,0.173-2.635,0.224c-0.003,0.076-0.006,0.153-0.009,0.231
					c1.156-0.065,2.312-0.174,3.46-0.324c0.058-0.636,0.116-1.271,0.175-1.908C38.531,55.624,37.345,55.734,36.154,55.801z"/>
				<path fill="#E3A93D" d="M40.641,55.338c-0.008,0.076-0.017,0.153-0.024,0.23c0.892-0.135,1.777-0.294,2.659-0.479
					c-0.069,0.485-0.138,0.973-0.207,1.458c-0.863,0.182-1.731,0.337-2.604,0.469c-0.009,0.078-0.017,0.155-0.024,0.233
					c1.146-0.173,2.287-0.389,3.418-0.647c0.1-0.644,0.199-1.286,0.298-1.93C42.993,54.938,41.819,55.16,40.641,55.338z"/>
			</g>
			<g>
				<path fill="#E3A93D" d="M23.071,57.021c0.013,0.077,0.025,0.156,0.036,0.234c0.85,0.194,1.704,0.364,2.563,0.51
					c0.056,0.482,0.112,0.966,0.17,1.45c-0.84-0.143-1.676-0.309-2.507-0.498c0.013,0.078,0.025,0.155,0.036,0.232
					c1.093,0.25,2.193,0.458,3.3,0.625c-0.066-0.636-0.134-1.273-0.2-1.91C25.329,57.492,24.195,57.277,23.071,57.021z"/>
				<path fill="#E3A93D" d="M27.364,57.79c0.007,0.077,0.014,0.154,0.021,0.231c0.862,0.113,1.729,0.202,2.596,0.267
					c0.025,0.479,0.05,0.96,0.075,1.439c-0.849-0.063-1.694-0.15-2.538-0.262c0.007,0.078,0.014,0.154,0.021,0.231
					c1.108,0.145,2.223,0.25,3.34,0.313c-0.025-0.633-0.052-1.266-0.076-1.898C29.653,58.048,28.507,57.94,27.364,57.79z"/>
				<path fill="#E3A93D" d="M31.706,58.154c0.002,0.076,0.004,0.153,0.006,0.229c0.869,0.032,1.739,0.041,2.608,0.023
					c-0.007,0.479-0.013,0.958-0.019,1.437c-0.852,0.017-1.702,0.009-2.552-0.022c0.002,0.077,0.004,0.152,0.005,0.229
					c1.118,0.041,2.237,0.041,3.355,0c0.016-0.632,0.033-1.264,0.049-1.896C34.009,58.196,32.856,58.196,31.706,58.154z"/>
				<path fill="#E3A93D" d="M36.063,58.111c-0.003,0.077-0.006,0.154-0.009,0.231c0.868-0.05,1.735-0.123,2.6-0.22
					c-0.038,0.48-0.077,0.962-0.115,1.442c-0.845,0.096-1.693,0.168-2.542,0.215c-0.003,0.077-0.006,0.152-0.01,0.229
					c1.116-0.063,2.231-0.168,3.34-0.313c0.059-0.635,0.117-1.271,0.175-1.907C38.358,57.94,37.212,58.048,36.063,58.111z"/>
				<path fill="#E3A93D" d="M40.396,57.664c-0.008,0.077-0.016,0.154-0.023,0.231c0.859-0.13,1.717-0.283,2.568-0.462
					c-0.069,0.485-0.138,0.973-0.208,1.458c-0.833,0.175-1.672,0.324-2.513,0.451c-0.008,0.079-0.017,0.155-0.024,0.231
					c1.106-0.167,2.208-0.375,3.3-0.625c0.099-0.642,0.198-1.285,0.298-1.929C42.67,57.277,41.536,57.492,40.396,57.664z"/>
			</g>
		</g>
	</g>
</g>
</svg>
