<?xml version="1.0" encoding="utf-8"?>
<!-- Generator: Adobe Illustrator 15.0.0, SVG Export Plug-In . SVG Version: 6.00 Build 0)  -->
<!DOCTYPE svg PUBLIC "-//W3C//DTD SVG 1.1//EN" "http://www.w3.org/Graphics/SVG/1.1/DTD/svg11.dtd">
<svg version="1.1" id="Layer_1" xmlns="http://www.w3.org/2000/svg" xmlns:xlink="http://www.w3.org/1999/xlink" x="0px" y="0px"
	 width="64px" height="64px" viewBox="0 0 64 64" enable-background="new 0 0 64 64" xml:space="preserve">
<g>
	<g>
		<g>
			<g>
				<g>
					<polygon fill="#D3976E" points="57.695,54.677 2,62 2,51.593 57.725,44.074 					"/>
				</g>
			</g>
		</g>
		<g>
			<g>
				<polygon fill="#D3976E" points="57.757,33.184 2,40.906 2,29.931 57.787,21.996 				"/>
			</g>
			<g>
				<polygon fill="#FFFFFF" points="57.725,44.074 2,51.593 2,40.906 57.757,33.184 				"/>
				<g>
					<path fill="#EF4D3C" d="M20.815,39.718c0.188,4.39-3.544,8.441-8.327,9.092c-4.774,0.649-8.864-2.327-9.146-6.691
						L20.815,39.718z"/>
					<path fill="#FF717F" d="M18.567,40.025c0.148,3.263-2.626,6.287-6.187,6.774c-3.558,0.483-6.6-1.737-6.801-4.987L18.567,40.025
						z"/>
				</g>
				<g>
					<path fill="#EF4D3C" d="M56.16,34.857c-0.004,4.443-3.936,8.542-8.776,9.201c-4.83,0.657-8.815-2.353-8.908-6.771L56.16,34.857
						z"/>
					<path fill="#FF717F" d="M53.882,35.171c0.006,3.302-2.912,6.362-6.518,6.853c-3.602,0.493-6.564-1.757-6.622-5.046
						L53.882,35.171z"/>
				</g>
				<g>
					<path fill="#EF4D3C" d="M21.192,47.624c-0.184-4.35,3.589-8.452,8.441-9.118c4.857-0.668,8.875,2.371,8.968,6.749
						L21.192,47.624z"/>
					<path fill="#FF717F" d="M23.423,47.32c-0.128-3.231,2.68-6.271,6.275-6.763c3.601-0.494,6.584,1.756,6.661,5.003L23.423,47.32z
						"/>
				</g>
			</g>
			<g>
				<g>
					<g>
						<polygon fill="#C98659" points="2.984,34.736 5.737,36.766 8.196,34.014 5.443,31.968 						"/>
					</g>
					<g>
						<polygon fill="#C98659" points="20.764,34.223 23.472,36.258 25.995,33.5 23.283,31.454 						"/>
					</g>
					<g>
						<polygon fill="#C98659" points="47.456,31.508 50.106,33.554 52.729,30.779 50.077,28.719 						"/>
					</g>
					<g>
						<polygon fill="#C98659" points="25.616,30.615 27.778,32.253 29.811,30.031 27.646,28.386 						"/>
					</g>
					<g>
						<polygon fill="#C98659" points="45.581,27.863 43.501,30.097 45.63,31.736 47.709,29.512 						"/>
					</g>
					<g>
						<polygon fill="#C98659" points="18.669,28.152 16.659,30.384 18.842,32.021 20.851,29.8 						"/>
					</g>
					<g>
						<polygon fill="#C98659" points="8.519,36.382 10.915,38.155 13.086,35.75 10.687,33.963 						"/>
					</g>
					<g>
						<polygon fill="#C98659" points="14.341,31.305 12.938,32.864 14.477,34.014 15.88,32.458 						"/>
					</g>
					<g>
						<polygon fill="#C98659" points="30.765,32.351 32.278,33.502 33.716,31.942 32.202,30.787 						"/>
					</g>
					<g>
						<polygon fill="#C98659" points="35.14,28.798 36.653,29.96 38.107,28.386 36.592,27.223 						"/>
					</g>
					<g>
						<polygon fill="#C98659" points="39.686,32.094 41.188,33.244 42.645,31.684 41.141,30.53 						"/>
					</g>
					<g>
						<polygon fill="#C98659" points="49.638,25.406 48.133,24.232 46.653,25.821 48.157,26.989 						"/>
					</g>
					<g>
						<polygon fill="#C98659" points="34.064,34.227 35.571,35.372 37.01,33.82 35.506,32.674 						"/>
					</g>
					<g>
						<polygon fill="#C98659" points="16.084,36.711 17.612,37.85 19.015,36.305 17.487,35.165 						"/>
					</g>
					<g>
						<polygon fill="#C98659" points="10.512,30.771 8.962,29.613 7.567,31.181 9.115,32.335 						"/>
					</g>
					<g>
						<polygon fill="#C98659" points="54.555,24.225 53.062,25.812 54.558,26.98 56.048,25.397 						"/>
					</g>
				</g>
			</g>
			<g>
				<g>
					<g>
						<polygon fill="#C98659" points="56.031,50.104 53.447,48.139 50.878,50.799 53.458,52.75 						"/>
					</g>
					<g>
						<polygon fill="#C98659" points="38.574,50.595 35.951,48.634 33.442,51.29 36.063,53.238 						"/>
					</g>
					<g>
						<polygon fill="#C98659" points="12.533,53.187 9.854,51.239 7.439,53.876 10.114,55.813 						"/>
					</g>
					<g>
						<polygon fill="#C98659" points="33.786,54.032 31.694,52.48 29.711,54.582 31.802,56.122 						"/>
					</g>
					<g>
						<polygon fill="#C98659" points="14.489,56.608 16.428,54.519 14.302,52.969 12.368,55.067 						"/>
					</g>
					<g>
						<polygon fill="#C98659" points="40.472,56.342 42.479,54.25 40.402,52.699 38.396,54.798 						"/>
					</g>
					<g>
						<polygon fill="#C98659" points="50.685,48.513 48.402,46.783 46.158,49.124 48.438,50.845 						"/>
					</g>
					<g>
						<polygon fill="#C98659" points="44.764,53.38 46.19,51.896 44.729,50.797 43.305,52.286 						"/>
					</g>
					<g>
						<polygon fill="#C98659" points="28.78,52.386 27.294,51.289 25.903,52.774 27.387,53.868 						"/>
					</g>
					<g>
						<polygon fill="#C98659" points="24.555,55.739 23.073,54.65 21.695,56.122 23.179,57.207 						"/>
					</g>
					<g>
						<polygon fill="#C98659" points="20.084,52.631 18.588,51.532 17.211,53.019 18.705,54.11 						"/>
					</g>
					<g>
						<polygon fill="#C98659" points="10.687,58.887 12.182,59.962 13.534,58.503 12.041,57.424 						"/>
					</g>
					<g>
						<polygon fill="#C98659" points="25.543,50.591 24.05,49.489 22.661,50.982 24.152,52.081 						"/>
					</g>
					<g>
						<polygon fill="#C98659" points="43.241,48.191 41.769,47.084 40.343,48.586 41.813,49.69 						"/>
					</g>
					<g>
						<polygon fill="#C98659" points="48.465,53.884 49.915,54.974 51.348,53.497 49.897,52.401 						"/>
					</g>
					<g>
						<polygon fill="#C98659" points="6.039,59.971 7.382,58.511 5.88,57.433 4.539,58.894 						"/>
					</g>
				</g>
			</g>
		</g>
	</g>
	<path fill="#8F6453" d="M62,21.577c0-4.271-17.843-8.744-21.735-8.226C23.579,15.57,2,29.931,2,29.931
		c16.568-2.167,50.078-6.477,52.973-6.842c1.516-0.191,2.428,0.071,2.428,1.318c0,4.306-0.02,30.311-0.02,30.311L62,54.167
		C62,54.167,62,25.454,62,21.577z"/>
	<path fill="#724E41" d="M55.94,20.948c8.533-1.187-15.456-7.695-19.165-7.215C20.877,15.796,4.812,28.152,4.812,28.152
		S53.876,21.235,55.94,20.948z"/>
	<polygon fill-rule="evenodd" clip-rule="evenodd" fill="#8CC63E" points="42.283,10.009 44.207,7.317 39.808,6.851 39.302,2.779 
		36.396,4.56 32.917,2 31.945,12.994 45.048,13.228 	"/>
	<path fill-rule="evenodd" clip-rule="evenodd" fill="#EF4D3C" d="M39.776,18.502c-4.138,3.828-13.153,4.267-15.107,2.46
		c-1.974-1.828-1.478-10.131,2.679-13.978c3.061-2.83,7.675-1.503,10.863,1.443C41.388,11.368,42.836,15.666,39.776,18.502z"/>
	<g>
		<polygon fill-rule="evenodd" clip-rule="evenodd" fill="#FFFFC4" points="29.245,16.438 28.533,17.1 29.245,17.762 29.957,17.1 		
			"/>
		<polygon fill-rule="evenodd" clip-rule="evenodd" fill="#FFFFC4" points="39.468,12.38 38.756,13.042 39.468,13.703 
			40.178,13.042 		"/>
		<polygon fill-rule="evenodd" clip-rule="evenodd" fill="#FFFFC4" points="36.064,13.042 35.354,13.703 36.064,14.365 
			36.776,13.703 		"/>
		<polygon fill-rule="evenodd" clip-rule="evenodd" fill="#FFFFC4" points="32.785,12.38 32.072,13.042 32.785,13.703 
			33.495,13.042 		"/>
		<polygon fill-rule="evenodd" clip-rule="evenodd" fill="#FFFFC4" points="36.55,9.689 35.838,10.351 36.55,11.013 37.261,10.351 
					"/>
		<polygon fill-rule="evenodd" clip-rule="evenodd" fill="#FFFFC4" points="34.471,6.851 33.76,7.513 34.471,8.175 35.183,7.513 		
			"/>
		<polygon fill-rule="evenodd" clip-rule="evenodd" fill="#FFFFC4" points="32.072,9.299 31.361,9.96 32.072,10.622 32.784,9.96 		
			"/>
		<polygon fill-rule="evenodd" clip-rule="evenodd" fill="#FFFFC4" points="29.12,12.174 28.407,12.836 29.12,13.497 29.831,12.836 
					"/>
		<polygon fill-rule="evenodd" clip-rule="evenodd" fill="#FFFFC4" points="32.958,16.026 32.247,16.688 32.958,17.35 
			33.671,16.688 		"/>
		<polygon fill-rule="evenodd" clip-rule="evenodd" fill="#FFFFC4" points="38.211,16.131 37.499,16.793 38.211,17.454 
			38.923,16.793 		"/>
		<polygon fill-rule="evenodd" clip-rule="evenodd" fill="#FFFFC4" points="35.354,18.791 34.643,19.453 35.354,20.115 
			36.064,19.453 		"/>
		<polygon fill-rule="evenodd" clip-rule="evenodd" fill="#FFFFC4" points="30.669,19.453 29.957,20.115 30.669,20.776 
			31.381,20.115 		"/>
		<polygon fill-rule="evenodd" clip-rule="evenodd" fill="#FFFFC4" points="26.233,18.13 25.521,18.791 26.233,19.453 
			26.944,18.791 		"/>
		<polygon fill-rule="evenodd" clip-rule="evenodd" fill="#FFFFC4" points="25.747,14.703 25.037,15.364 25.747,16.026 
			26.458,15.364 		"/>
		<polygon fill-rule="evenodd" clip-rule="evenodd" fill="#FFFFC4" points="27.935,8.175 27.223,8.836 27.935,9.498 28.647,8.836 		
			"/>
		<polygon fill-rule="evenodd" clip-rule="evenodd" fill="#FFFFC4" points="26.233,11.205 25.521,11.866 26.233,12.528 
			26.944,11.866 		"/>
		<polygon fill-rule="evenodd" clip-rule="evenodd" fill="#FFFFC4" points="30.873,6.004 30.162,6.665 30.873,7.327 31.585,6.665 		
			"/>
	</g>
</g>
</svg>
