<?xml version="1.0" encoding="utf-8"?>
<!-- Generator: Adobe Illustrator 15.0.0, SVG Export Plug-In . SVG Version: 6.00 Build 0)  -->
<!DOCTYPE svg PUBLIC "-//W3C//DTD SVG 1.1//EN" "http://www.w3.org/Graphics/SVG/1.1/DTD/svg11.dtd">
<svg version="1.1" id="Layer_1" xmlns="http://www.w3.org/2000/svg" xmlns:xlink="http://www.w3.org/1999/xlink" x="0px" y="0px"
	 width="64px" height="64px" viewBox="0 0 64 64" enable-background="new 0 0 64 64" xml:space="preserve">
<g>
	<circle fill="#DAE3EA" cx="31" cy="32" r="22"/>
	<g>
		<path fill="#ACB8BF" d="M31.002,17.08c8.647,0,15.675,6.633,15.969,14.92c0.007-0.18,0.031-0.358,0.031-0.54
			c0-8.54-7.164-15.46-16-15.46c-8.838,0-16,6.921-16,15.46c0,0.181,0.021,0.359,0.026,0.54
			C15.327,23.713,22.354,17.08,31.002,17.08z"/>
		<path fill="#FFFFFF" d="M31.002,46.92c-8.648,0-15.675-6.633-15.974-14.92c-0.005,0.18-0.026,0.357-0.026,0.54
			c0,8.54,7.162,15.46,16,15.46c8.836,0,16-6.921,16-15.46c0-0.182-0.024-0.359-0.031-0.54C46.677,40.287,39.649,46.92,31.002,46.92
			z"/>
	</g>
	<g>
		<path fill="#ACB8BF" d="M60.518,7.42c-0.239-0.94-0.714-0.01-0.714-0.01s-0.167,9.74-1.247,9.845
			c-1.08,0.106-0.248-10.021-1.525-10.216c-1.188-0.189-0.509,10.377-1.592,10.27c-1.077-0.114-1.26-9.849-1.26-9.849
			S53.7,6.531,53.463,7.465c-2.928,11.509-0.558,16.215-0.558,16.215s0.4,0.989,1.35,0.995c0.088-0.005,0.021,27.335,0.027,31.011
			c-0.002,1.787,5.499,1.732,5.495-0.047c-0.004-3.676-0.11-31.014-0.024-31.011c0.953,0,1.352-0.989,1.352-0.989
			S63.466,18.936,60.518,7.42z"/>
	</g>
	<g>
		<path fill="#ACB8BF" d="M2.62,7C3.858,6.997,8.993,10.7,9,24.462c0.005,4.401-2.395,4.4-2.391,7.154
			c0.003,2.748,0.019,24.606,0.019,24.606s-2.634,1.807-4.592-0.084L2,7.39C2.001,7.391,1.995,6.999,2.62,7z"/>
	</g>
</g>
</svg>
