<?xml version="1.0" encoding="utf-8"?>
<!-- Generator: Adobe Illustrator 15.0.0, SVG Export Plug-In . SVG Version: 6.00 Build 0)  -->
<!DOCTYPE svg PUBLIC "-//W3C//DTD SVG 1.1//EN" "http://www.w3.org/Graphics/SVG/1.1/DTD/svg11.dtd">
<svg version="1.1" id="Layer_1" xmlns="http://www.w3.org/2000/svg" xmlns:xlink="http://www.w3.org/1999/xlink" x="0px" y="0px"
	 width="64px" height="64px" viewBox="0 0 64 64" enable-background="new 0 0 64 64" xml:space="preserve">
<g>
	<g>
		<g>
			<path fill="#C7D7D7" d="M45.5,49.229v-4.802c4.376,0,7.714-2.943,8.558-6.325c0.864-3.461,1.649-8.735,1.098-12.222
				c-0.565-3.566-9.655-1.093-9.655-1.093v-4.805c0,0,12.793-2.876,13.689,2.608c0.664,4.07,0.197,11.705-0.775,15.505
				C57.025,43.523,51.976,49.229,45.5,49.229z"/>
		</g>
		<path fill="#FFFFFF" d="M45.5,24.484c0,0,3.98-2.011,9.638-1.297C49.68,20.64,45.5,22.602,45.5,22.602V24.484z"/>
		<path fill="#FFFFFF" d="M45.5,45.412c0,0,3.781,0.133,7.594-2.717c-2.541,4.772-7.594,4.633-7.594,4.633V45.412z"/>
	</g>
	<g>
		<path fill="#C7D7D7" d="M45.867,9.034H12.369v48.771c0,5.426,33.499,5.426,33.499,0V9.034z"/>
		<rect x="14.726" y="12.065" fill="#FFFFFF" width="28.784" height="14.54"/>
		<path fill="#FF9617" d="M43.51,26.605H14.726v27.432c0,4.403,28.784,4.403,28.784,0V26.605z"/>
		<path fill="#D8D2B8" d="M43.51,8.838c0,2.533-3.087,4.59-6.9,4.59c-3.813,0-6.901-2.057-6.901-4.59
			c0-2.542,3.088-4.598,6.901-4.598C40.423,4.24,43.51,6.296,43.51,8.838z"/>
		<path fill="#D8D2B8" d="M48.5,10.837c0,2.13-2.026,3.855-4.526,3.855c-2.497,0-4.521-1.726-4.521-3.855
			c0-2.136,2.024-3.862,4.521-3.862C46.474,6.975,48.5,8.701,48.5,10.837z"/>
		<path fill="#D8D2B8" d="M15.654,23.4c0,2.084-1.882,3.778-4.207,3.778c-2.328,0-4.213-1.694-4.213-3.778
			c0-2.094,1.885-3.787,4.213-3.787C13.772,19.61,15.654,21.307,15.654,23.4z"/>
		<path fill="#D8D2B8" d="M17.757,28.498c0,2.084-1.882,3.779-4.207,3.779c-2.328,0-4.213-1.695-4.213-3.779
			c0-2.094,1.885-3.787,4.213-3.787C15.875,24.71,17.757,26.404,17.757,28.498z"/>
		<path fill="#D8D2B8" d="M26.044,11.186c0,4.112-3.715,7.45-8.299,7.45c-4.581,0-8.301-3.338-8.301-7.45
			c0-4.126,3.72-7.461,8.301-7.461C22.33,3.723,26.044,7.06,26.044,11.186z"/>
		<path fill="#D8D2B8" d="M18.388,16.71c0,3.585-3.104,6.489-6.945,6.489c-3.836,0-6.943-2.904-6.943-6.489
			c0-3.593,3.107-6.497,6.943-6.497C15.285,10.211,18.388,13.117,18.388,16.71z"/>
		<path fill="#D8D2B8" d="M34.59,7.596c0,3.013-2.819,5.46-6.293,5.46c-3.473,0-6.291-2.447-6.291-5.46
			c0-3.026,2.818-5.471,6.291-5.471C31.771,2.122,34.59,4.569,34.59,7.596z"/>
		<path fill="#FFFFFF" d="M43.187,9.545c0,2.485-2.9,4.5-6.474,4.5c-3.576,0-6.477-2.015-6.477-4.5c0-2.492,2.901-4.505,6.477-4.505
			C40.286,5.04,43.187,7.053,43.187,9.545z"/>
		<path fill="#FFFFFF" d="M47.579,11c0,1.88-1.976,3.404-4.413,3.404c-2.439,0-4.415-1.524-4.415-3.404
			c0-1.884,1.976-3.41,4.415-3.41C45.604,7.59,47.579,9.116,47.579,11z"/>
		<path fill="#FFFFFF" d="M16.812,23.203c0,1.978-1.842,3.583-4.108,3.583c-2.269,0-4.108-1.605-4.108-3.583
			c0-1.985,1.84-3.59,4.108-3.59C14.97,19.612,16.812,21.218,16.812,23.203z"/>
		<path fill="#FFFFFF" d="M36.452,12.614c0,1.978-1.841,3.585-4.111,3.585c-2.266,0-4.107-1.607-4.107-3.585
			c0-1.984,1.842-3.59,4.107-3.59C34.611,9.023,36.452,10.63,36.452,12.614z"/>
		<path fill="#FFFFFF" d="M26.661,11.92c0,3.899-3.622,7.064-8.096,7.064c-4.469,0-8.098-3.165-8.098-7.064
			c0-3.914,3.629-7.073,8.098-7.073C23.039,4.842,26.661,8.006,26.661,11.92z"/>
		<path fill="#FFFFFF" d="M19.195,16.918c0,3.265-3.037,5.914-6.779,5.914c-3.741,0-6.777-2.649-6.777-5.914
			c0-3.275,3.036-5.92,6.777-5.92C16.158,10.997,19.195,13.643,19.195,16.918z"/>
		<path fill="#FFFFFF" d="M34.59,8.516c0,2.855-2.655,5.176-5.935,5.176c-3.275,0-5.936-2.32-5.936-5.176
			c0-2.868,2.66-5.186,5.936-5.186C31.935,3.328,34.59,5.647,34.59,8.516z"/>
		<path fill="#FFFFFF" d="M18.565,28.496c0,1.979-1.839,3.584-4.109,3.584c-2.267,0-4.105-1.604-4.105-3.584
			c0-1.984,1.839-3.588,4.105-3.588C16.726,24.907,18.565,26.512,18.565,28.496z"/>
		<path fill="#FFFFFF" d="M23.751,24.911c0,1.905-1.772,3.451-3.955,3.451c-2.186,0-3.955-1.546-3.955-3.451
			c0-1.91,1.77-3.457,3.955-3.457C21.979,21.452,23.751,23.001,23.751,24.911z"/>
		<path fill="#D8D2B8" d="M26.044,21.729c-0.336-0.443-0.769-0.771-1.248-0.98c-0.22-0.089-0.527-0.195-0.746-0.218
			c-0.229-0.038-0.497-0.041-0.743-0.04l-0.356,0.002l-0.142-0.382c-0.177-0.478-0.463-0.909-0.862-1.233
			c-0.189-0.16-0.438-0.304-0.637-0.408c-0.16-0.079-0.295-0.132-0.393-0.162c-0.111-0.034-0.25-0.075-0.375-0.1
			c-1.045-0.23-2.229,0.037-3.041,0.726l-0.459,0.389l-0.368-0.344c-0.085-0.078-0.181-0.163-0.274-0.22
			c-0.168-0.094-0.205-0.115-0.348-0.173c-0.244-0.101-0.52-0.163-0.807-0.164c-0.577-0.02-1.195,0.179-1.698,0.592
			c0.222-0.577,0.85-1.046,1.603-1.22c0.379-0.078,0.787-0.085,1.185-0.016c0.183,0.023,0.45,0.122,0.575,0.171
			c0.201,0.079,0.372,0.181,0.541,0.29l-0.827,0.047c0.929-1.122,2.701-1.657,4.272-1.291c0.196,0.045,0.378,0.101,0.58,0.176
			c0.215,0.081,0.382,0.157,0.512,0.228c0.375,0.199,0.672,0.409,0.934,0.683c0.537,0.525,0.852,1.193,0.932,1.863l-0.5-0.379
			c0.345,0.043,0.668,0.11,0.995,0.244c0.169,0.068,0.33,0.139,0.438,0.213c0.115,0.063,0.289,0.173,0.391,0.266
			C25.658,20.68,25.978,21.202,26.044,21.729z"/>
		<path fill="#D8D2B8" d="M29.554,6.211c-0.604-0.093-1.178-0.054-1.689,0.097C27.72,6.354,27.646,6.386,27.5,6.446
			c-0.15,0.05-0.25,0.116-0.342,0.172c-0.189,0.117-0.38,0.281-0.549,0.436l-0.244,0.223l-0.414-0.171
			c-0.523-0.215-1.081-0.342-1.631-0.319c-0.262,0.003-0.564,0.059-0.779,0.103c-0.367,0.093-0.5,0.161-0.763,0.29
			c-0.923,0.471-1.521,1.391-1.495,2.372l0.016,0.567l-0.55-0.011c-0.128-0.002-0.262,0-0.37,0.018
			c-0.195,0.035-0.245,0.048-0.387,0.094c-0.252,0.077-0.492,0.205-0.692,0.381c-0.415,0.339-0.669,0.863-0.661,1.461
			c-0.336-0.526-0.301-1.249,0.079-1.839c0.202-0.289,0.479-0.548,0.815-0.742c0.148-0.098,0.409-0.192,0.535-0.236
			c0.211-0.068,0.408-0.103,0.611-0.131L20.146,9.67c-0.324-1.358,0.481-2.866,1.899-3.571c0.319-0.165,0.808-0.328,1.091-0.382
			c0.44-0.09,0.809-0.13,1.218-0.097c0.801,0.037,1.565,0.301,2.178,0.705l-0.658,0.054c0.277-0.188,0.56-0.346,0.904-0.452
			c0.177-0.061,0.341-0.108,0.481-0.123c0.134-0.03,0.348-0.058,0.495-0.057C28.414,5.726,29.068,5.89,29.554,6.211z"/>
		<g>
			<g>
				<g>
					<g>
						<g>
							<ellipse fill="#FCB334" cx="33.791" cy="34.389" rx="5.363" ry="5.139"/>
						</g>
						<g>
							<ellipse fill="#FCB334" cx="26.035" cy="42.891" rx="4.023" ry="3.854"/>
						</g>
						<g>
							<ellipse fill="#FCB334" cx="33.969" cy="46.435" rx="2.684" ry="2.569"/>
						</g>
						<g>
							<ellipse fill="#FCB334" cx="28.001" cy="51.863" rx="1.879" ry="1.799"/>
						</g>
					</g>
				</g>
			</g>
		</g>
	</g>
</g>
</svg>
