<?xml version="1.0" encoding="utf-8"?>
<!-- Generator: Adobe Illustrator 15.0.0, SVG Export Plug-In . SVG Version: 6.00 Build 0)  -->
<!DOCTYPE svg PUBLIC "-//W3C//DTD SVG 1.1//EN" "http://www.w3.org/Graphics/SVG/1.1/DTD/svg11.dtd">
<svg version="1.1" id="Layer_1" xmlns="http://www.w3.org/2000/svg" xmlns:xlink="http://www.w3.org/1999/xlink" x="0px" y="0px"
	 width="64px" height="64px" viewBox="0 0 64 64" enable-background="new 0 0 64 64" xml:space="preserve">
<g>
	<g>
		<path fill="#C7D7D7" d="M15.708,2C15.708,2,10,9.052,10,20.445c0,11.169,9.848,21.519,22,21.519c12.15,0,22-10.35,22-21.519
			C54,9.042,48.292,2.002,48.291,2H15.708z"/>
	</g>
	<path fill="#C7D7D7" d="M35.314,57.038c-3.266-4.808-2.014-28.865-2.014-28.865h-2.603c0,0,1.251,24.058-2.015,28.865
		c-2.169,3.196-9.771,1.554-9.771,4.962h26.177C45.089,58.591,37.483,60.234,35.314,57.038z"/>
	<g>
		<path fill="#FFFFFF" d="M52.058,20.325C51.971,10.077,46.859,3.76,46.858,3.757H17.141c0,0-5.205,6.432-5.205,16.824
			c0,0.687,0.047,1.37,0.128,2.049C26.059,27.081,40.624,18.772,52.058,20.325z"/>
		<path fill="#961623" d="M12.063,22.63C13.165,31.997,21.665,40.207,32,40.207c11.082,0,20.064-9.439,20.064-19.626
			c0-0.088-0.006-0.17-0.007-0.256C40.624,18.772,26.059,27.081,12.063,22.63z"/>
	</g>
</g>
</svg>
