<?xml version="1.0" encoding="utf-8"?>
<!-- Generator: Adobe Illustrator 15.0.0, SVG Export Plug-In . SVG Version: 6.00 Build 0)  -->
<!DOCTYPE svg PUBLIC "-//W3C//DTD SVG 1.1//EN" "http://www.w3.org/Graphics/SVG/1.1/DTD/svg11.dtd">
<svg version="1.1" id="Layer_1" xmlns="http://www.w3.org/2000/svg" xmlns:xlink="http://www.w3.org/1999/xlink" x="0px" y="0px"
	 width="64px" height="64px" viewBox="0 0 64 64" enable-background="new 0 0 64 64" xml:space="preserve">
<g>
	<g>
		<path fill="#3E4347" d="M62,55.628C62,56.385,61.385,57,60.625,57H3.377C2.617,57,2,56.385,2,55.628V8.373
			C2,7.616,2.617,7,3.377,7h57.248C61.385,7,62,7.616,62,8.373V55.628z"/>
		<path fill="#3E4347" d="M62,55.628C62,56.385,61.385,57,60.625,57H3.377C2.617,57,2,56.385,2,55.628V8.373
			C2,7.616,2.617,7,3.377,7h57.248C61.385,7,62,7.616,62,8.373V55.628z"/>
		<g>
			<g>
				<path fill="#FF5760" d="M36.129,36.809c0-1.511-1.238-2.747-2.752-2.747H8.881c-1.513,0-2.752,1.236-2.752,2.747v13.323
					c0,1.511,1.239,2.749,2.752,2.749h24.496c1.514,0,2.752-1.238,2.752-2.749V36.809z"/>
			</g>
			<g>
				<path fill="#FF5760" d="M43.01,34.062c-1.514,0-2.752,1.236-2.752,2.747v13.323c0,1.511,1.238,2.749,2.752,2.749h12.109
					c1.514,0,2.752-1.238,2.752-2.749V36.809c0-1.511-1.238-2.747-2.752-2.747H43.01z"/>
			</g>
		</g>
		<g>
			<g>
				<path fill="#FF5760" d="M23.745,13.869c0-1.512-1.241-2.748-2.754-2.748H8.881c-1.513,0-2.752,1.236-2.752,2.748v13.323
					c0,1.511,1.239,2.747,2.752,2.747h12.11c1.513,0,2.754-1.236,2.754-2.747V13.869z"/>
			</g>
			<g>
				<path fill="#FF5760" d="M30.625,11.121c-1.516,0-2.754,1.236-2.754,2.748v13.323c0,1.511,1.238,2.747,2.754,2.747h24.494
					c1.514,0,2.752-1.236,2.752-2.747V13.869c0-1.512-1.238-2.748-2.752-2.748H30.625z"/>
			</g>
		</g>
		<path fill="#FFFFFF" d="M33.514,41.41c0-1.139-0.923-2.062-2.063-2.062c1.141,0,2.063-0.921,2.063-2.06
			c0-1.138-0.923-2.06-2.063-2.06c-1.142,0-2.064,0.922-2.064,2.06c0-1.138-0.924-2.06-2.065-2.06c-1.138,0-2.063,0.922-2.063,2.06
			c0-1.138-0.926-2.06-2.063-2.06c-1.141,0-2.065,0.922-2.065,2.06c0-1.138-0.923-2.06-2.063-2.06S17,36.151,17,37.289
			c0-1.138-0.923-2.06-2.063-2.06c-1.139,0-2.063,0.922-2.063,2.06c0-1.138-0.926-2.06-2.064-2.06c-1.141,0-2.064,0.922-2.064,2.06
			c0,1.139,0.924,2.06,2.064,2.06c-1.141,0-2.064,0.923-2.064,2.062c0,1.138,0.924,2.06,2.064,2.06
			c-1.141,0-2.064,0.923-2.064,2.062c0,1.137,0.924,2.06,2.064,2.06c-1.141,0-2.064,0.924-2.064,2.062
			c0,1.137,0.924,2.06,2.064,2.06c1.139,0,2.064-0.923,2.064-2.06c0,1.137,0.924,2.06,2.063,2.06c1.141,0,2.063-0.923,2.063-2.06
			c0,1.137,0.925,2.06,2.065,2.06s2.063-0.923,2.063-2.06c0,1.137,0.925,2.06,2.065,2.06c1.138,0,2.063-0.923,2.063-2.06
			c0,1.137,0.925,2.06,2.063,2.06c1.142,0,2.065-0.923,2.065-2.06c0,1.137,0.923,2.06,2.064,2.06c1.141,0,2.063-0.923,2.063-2.06
			c0-1.138-0.923-2.062-2.063-2.062c1.141,0,2.063-0.923,2.063-2.06c0-1.139-0.923-2.062-2.063-2.062
			C32.591,43.47,33.514,42.548,33.514,41.41z"/>
		<circle fill="#FF5760" cx="21.13" cy="43.47" r="2.064"/>
		<ellipse fill="#3E4347" cx="14.937" cy="20.531" rx="7.981" ry="7.966"/>
		<ellipse fill="#C94747" cx="14.938" cy="20.531" rx="6.386" ry="6.374"/>
		<g>
			<path fill="#FBBF67" d="M54.844,37.151c0-1.062-0.861-1.922-1.926-1.922c-0.352,0-0.68,0.096-0.963,0.259
				c-0.285-0.163-0.613-0.259-0.965-0.259c-0.35,0-0.68,0.096-0.963,0.259c-0.283-0.163-0.611-0.259-0.963-0.259
				s-0.68,0.096-0.963,0.259c-0.283-0.163-0.613-0.259-0.963-0.259c-0.352,0-0.68,0.096-0.965,0.259
				c-0.283-0.163-0.611-0.259-0.963-0.259c-1.064,0-1.926,0.86-1.926,1.922c-1.064,0-1.928,0.862-1.928,1.925
				c0,1.062,0.863,1.921,1.928,1.921c0,1.063,0.861,1.925,1.926,1.925c0.352,0,0.68-0.096,0.963-0.261
				c0.285,0.165,0.613,0.261,0.965,0.261c0.35,0,0.68-0.096,0.963-0.261c0.283,0.165,0.611,0.261,0.963,0.261
				s0.68-0.096,0.963-0.261c0.283,0.165,0.613,0.261,0.963,0.261c0.352,0,0.68-0.096,0.965-0.261
				c0.283,0.165,0.611,0.261,0.963,0.261c1.064,0,1.926-0.862,1.926-1.925c1.064,0,1.928-0.859,1.928-1.921
				C56.771,38.014,55.908,37.151,54.844,37.151z"/>
			<g>
				<path fill="#89664C" d="M45.998,37.243c0.332,1.188,0.332,2.476,0,3.664c-0.119,0.429,0.545,0.608,0.664,0.183
					c0.363-1.306,0.363-2.727,0-4.029C46.543,36.634,45.879,36.816,45.998,37.243L45.998,37.243z"/>
			</g>
			<g>
				<path fill="#89664C" d="M48.75,37.243c0.332,1.188,0.332,2.476,0,3.664c-0.119,0.429,0.545,0.608,0.664,0.183
					c0.363-1.306,0.363-2.727,0-4.029C49.295,36.634,48.631,36.816,48.75,37.243L48.75,37.243z"/>
			</g>
			<g>
				<path fill="#89664C" d="M51.502,37.243c0.332,1.188,0.332,2.476,0,3.664c-0.119,0.429,0.545,0.608,0.664,0.183
					c0.363-1.306,0.363-2.727,0-4.029C52.047,36.634,51.383,36.816,51.502,37.243L51.502,37.243z"/>
			</g>
		</g>
		<g>
			<path fill="#FBBF67" d="M54.99,45.942c0-1.063-0.861-1.923-1.926-1.923c-0.352,0-0.68,0.096-0.963,0.26
				c-0.283-0.164-0.613-0.26-0.963-0.26c-0.352,0-0.68,0.096-0.965,0.26c-0.283-0.164-0.611-0.26-0.963-0.26s-0.68,0.096-0.963,0.26
				c-0.283-0.164-0.611-0.26-0.963-0.26s-0.68,0.096-0.963,0.26c-0.285-0.164-0.613-0.26-0.965-0.26
				c-1.063,0-1.926,0.86-1.926,1.923c-1.064,0-1.928,0.861-1.928,1.924c0,1.062,0.863,1.922,1.928,1.922
				c0,1.063,0.863,1.924,1.926,1.924c0.352,0,0.68-0.096,0.965-0.26c0.283,0.164,0.611,0.26,0.963,0.26s0.68-0.096,0.963-0.26
				c0.283,0.164,0.611,0.26,0.963,0.26s0.68-0.096,0.963-0.26c0.285,0.164,0.613,0.26,0.965,0.26c0.35,0,0.68-0.096,0.963-0.26
				c0.283,0.164,0.611,0.26,0.963,0.26c1.064,0,1.926-0.86,1.926-1.924c1.064,0,1.928-0.86,1.928-1.922
				C56.918,46.804,56.055,45.942,54.99,45.942z"/>
			<g>
				<path fill="#89664C" d="M46.145,46.034c0.332,1.188,0.332,2.476,0,3.664c-0.119,0.429,0.545,0.607,0.664,0.182
					c0.363-1.305,0.363-2.727,0-4.028C46.689,45.425,46.025,45.606,46.145,46.034L46.145,46.034z"/>
			</g>
			<g>
				<path fill="#89664C" d="M48.896,46.034c0.332,1.188,0.332,2.476,0,3.664c-0.119,0.429,0.545,0.607,0.664,0.182
					c0.363-1.305,0.363-2.727,0-4.028C49.441,45.425,48.777,45.606,48.896,46.034L48.896,46.034z"/>
			</g>
			<g>
				<path fill="#89664C" d="M51.648,46.034c0.332,1.188,0.332,2.476,0,3.664c-0.119,0.429,0.545,0.607,0.664,0.182
					c0.363-1.305,0.363-2.727,0-4.028C52.193,45.425,51.529,45.606,51.648,46.034L51.648,46.034z"/>
			</g>
		</g>
		<g>
			<g>
				<path fill="#83BF4F" d="M32.586,22.75c0.049-0.023,0.097-0.044,0.146-0.064c-0.101,0.045-0.209,0.091-0.312,0.131
					c1.46-0.553,2.931-0.933,4.473-1.176c-0.088,0.009-0.176,0.02-0.263,0.033c1.571-0.217,3.188-0.224,4.76-0.016
					c-0.079-0.012-0.158-0.021-0.238-0.029c0.648,0.108,1.29,0.221,1.926,0.392c0.446,0.12,0.891,0.258,1.325,0.418
					c-0.034-0.013,0.892,0.354,0.397,0.146c0.874,0.368,1.883,0.635,2.578-0.232c0.563-0.698,0.506-1.92-0.268-2.454
					c-0.982-0.682-2.455-1.008-3.603-1.285c-1.325-0.32-2.691-0.512-4.057-0.53c-2.792-0.041-5.724,0.434-8.289,1.56
					C28.954,20.611,30.378,23.78,32.586,22.75C32.609,22.738,32.586,22.75,32.586,22.75z"/>
			</g>
			<g>
				<path fill="#83BF4F" d="M32.586,27.352c0.05-0.022,0.097-0.044,0.146-0.065c-0.1,0.047-0.209,0.093-0.312,0.132
					c1.463-0.544,2.928-0.937,4.473-1.176c-0.088,0.009-0.176,0.021-0.263,0.034c1.581-0.21,3.177-0.208,4.76-0.018
					c-0.079-0.011-0.158-0.021-0.238-0.028c0.647,0.111,1.29,0.22,1.926,0.391c0.446,0.12,0.891,0.259,1.325,0.418
					c-0.033-0.011,0.891,0.356,0.397,0.146c0.871,0.375,1.885,0.632,2.578-0.23c0.563-0.702,0.506-1.921-0.268-2.456
					c-0.982-0.681-2.455-1.006-3.603-1.282c-1.325-0.32-2.691-0.511-4.057-0.53c-2.792-0.043-5.723,0.436-8.289,1.56
					C28.953,25.211,30.379,28.381,32.586,27.352C32.609,27.341,32.586,27.352,32.586,27.352z"/>
			</g>
			<g>
				<path fill="#83BF4F" d="M32.586,18.147c0.05-0.023,0.097-0.045,0.146-0.065c-0.101,0.047-0.209,0.093-0.312,0.134
					c1.46-0.551,2.93-0.94,4.473-1.176c-0.088,0.008-0.176,0.02-0.263,0.031c1.572-0.208,3.188-0.231,4.76-0.016
					c-0.079-0.011-0.158-0.02-0.238-0.03c0.648,0.111,1.29,0.223,1.926,0.393c0.447,0.12,0.891,0.261,1.325,0.418
					c-0.033-0.011,0.891,0.355,0.397,0.146c0.869,0.378,1.886,0.629,2.578-0.231c0.563-0.701,0.506-1.921-0.268-2.455
					c-0.983-0.681-2.454-1.008-3.603-1.284c-1.325-0.32-2.691-0.51-4.057-0.531c-2.794-0.04-5.722,0.437-8.289,1.562
					C28.953,16.011,30.378,19.178,32.586,18.147C32.609,18.139,32.586,18.147,32.586,18.147z"/>
			</g>
		</g>
	</g>
	<g>
		<path fill-rule="evenodd" clip-rule="evenodd" fill="#DAE3EA" d="M57.113,19.75c-0.001-0.411-0.573-0.566-0.69-0.93
			c0.063-0.364,0.482-0.512,0.646-0.825c0.207-0.399-0.378-0.697-0.569-0.956c-0.314-0.424,0.284-0.91,0.043-1.328
			c-0.209-0.357-0.799-0.192-1.076-0.469c-0.278-0.277-0.109-0.867-0.471-1.078c-0.356-0.207-0.79,0.23-1.167,0.128
			c-0.386-0.103-0.642-0.896-1.114-0.652c-0.341,0.178-0.517,0.704-0.958,0.656c-0.315-0.034-0.867-0.394-1.103-0.02
			c-0.203,0.323-0.093,0.87-0.499,1.049c-0.39,0.171-1.079,0.11-0.943,0.729c0.096,0.432,0.303,0.757-0.063,1.116
			c-0.282,0.278-0.668,0.563-0.317,0.959c0.191,0.215,0.697,0.482,0.454,0.814c-0.253,0.343-0.873,0.638-0.456,1.109
			c0.212,0.239,0.728,0.521,0.456,0.891c-0.192,0.26-0.771,0.557-0.566,0.954c0.125,0.243,0.729,0.55,0.647,0.862
			c-0.102,0.387-0.894,0.644-0.646,1.115c0.179,0.341,0.707,0.515,0.661,0.958c-0.031,0.316-0.387,0.871-0.014,1.104
			c0.325,0.204,0.873,0.094,1.052,0.501c0.172,0.392,0.111,1.081,0.731,0.948c0.435-0.092,0.76-0.3,1.12,0.069
			c0.279,0.286,0.564,0.673,0.963,0.318c0.332-0.299,0.5-0.637,1-0.499c0.547,0.15,0.885,0.244,1.034-0.411
			c0.117-0.509,0.267-0.659,0.776-0.776c0.498-0.112,0.624-0.333,0.474-0.82c-0.154-0.501-0.099-0.704,0.282-1.06
			c0.481-0.451,0.255-0.713-0.151-1.106c-0.721-0.701,0.93-0.975,0.309-1.675c-0.155-0.177-0.61-0.446-0.535-0.731
			C56.522,20.315,57.114,20.17,57.113,19.75C57.112,19.403,57.114,20.1,57.113,19.75z"/>
		<path fill="#839391" d="M50.306,16.728c0.187-0.368,0.018-0.99,0.429-1.222c0.336-0.192,0.885,0.17,1.129,0.067
			c0.363-0.208,0.565-0.749,1.051-0.726c0.437,0.021,0.681,0.66,0.955,0.721c0.386,0.044,0.843-0.272,1.201-0.035
			c0.383,0.221,0.222,0.867,0.396,1.21c-0.284-0.267-0.259-0.715-0.56-0.954c-0.203-0.135-0.803,0.328-1.141,0.222
			c-0.356-0.092-0.579-0.668-0.91-0.668c-0.136,0-0.556,0.579-0.84,0.655c-0.421,0.086-0.775-0.243-1.18-0.206
			C50.595,15.943,50.556,16.495,50.306,16.728L50.306,16.728z"/>
		<path fill="#839391" d="M50.306,20.728c0.187-0.368,0.018-0.991,0.429-1.224c0.336-0.189,0.873,0.154,1.129,0.069
			c0.362-0.208,0.565-0.75,1.051-0.727c0.437,0.022,0.682,0.663,0.955,0.722c0.386,0.044,0.844-0.272,1.201-0.034
			c0.384,0.222,0.221,0.866,0.396,1.208c-0.284-0.266-0.259-0.714-0.56-0.954c-0.203-0.135-0.803,0.33-1.141,0.222
			c-0.355-0.091-0.58-0.667-0.91-0.667c-0.136,0-0.556,0.58-0.84,0.657c-0.422,0.084-0.775-0.244-1.18-0.209
			C50.595,19.942,50.556,20.495,50.306,20.728L50.306,20.728z"/>
		<path fill="#839391" d="M50.306,18.729c0.187-0.368,0.018-0.992,0.429-1.224c0.336-0.19,0.885,0.17,1.129,0.067
			c0.363-0.206,0.565-0.748,1.051-0.725c0.437,0.021,0.681,0.662,0.955,0.721c0.386,0.044,0.843-0.272,1.201-0.035
			c0.383,0.221,0.222,0.866,0.396,1.209c-0.284-0.266-0.259-0.714-0.56-0.954c-0.203-0.135-0.803,0.33-1.141,0.222
			c-0.356-0.091-0.579-0.667-0.91-0.667c-0.136,0-0.556,0.581-0.84,0.656c-0.422,0.085-0.775-0.245-1.18-0.207
			C50.595,17.942,50.556,18.494,50.306,18.729L50.306,18.729z"/>
		<g>
			<path fill="#FC97B2" d="M55.306,24.396c-0.005,0.017-0.008,0.024-0.012,0.039C55.301,24.414,55.306,24.396,55.306,24.396z"/>
			<path fill="#FC97B2" d="M55.294,24.436c-0.004,0.011-0.007,0.021-0.011,0.035C55.286,24.46,55.29,24.447,55.294,24.436z"/>
			<path fill="#FC97B2" d="M55.263,24.536C55.256,24.559,55.257,24.555,55.263,24.536L55.263,24.536z"/>
			<path fill="#FC97B2" d="M51.567,24.719c-0.912-1.061-0.35-3.107,1.257-2.913c1.303,0.157,1.73,2.374,0.275,2.216
				c-0.562-0.061-0.976-0.907-0.334-1.19c0.609-0.287,0.747,0.415,0.672,0.777c0.787-0.581-0.426-1.554-1.123-0.99
				c-0.653,0.525-0.425,1.512,0.258,1.88c1.945,1.05,2.96-2.465,0.771-3.001c-1.967-0.481-3.172,2.119-2.105,3.592
				c1.084,1.497,3.53,1.056,4.068-0.692c-0.585,0.308-0.885,0.971-1.713,1.096C52.832,25.604,52.065,25.299,51.567,24.719z"/>
			<path fill="#FC97B2" d="M55.272,24.503c-0.004,0.013-0.007,0.024-0.01,0.033C55.265,24.527,55.269,24.519,55.272,24.503z"/>
			<path fill="#FC97B2" d="M55.283,24.471c-0.004,0.01-0.008,0.023-0.011,0.032C55.276,24.492,55.279,24.481,55.283,24.471z"/>
		</g>
	</g>
</g>
</svg>
