<?xml version="1.0" encoding="utf-8"?>
<!-- Generator: Adobe Illustrator 15.0.0, SVG Export Plug-In . SVG Version: 6.00 Build 0)  -->
<!DOCTYPE svg PUBLIC "-//W3C//DTD SVG 1.1//EN" "http://www.w3.org/Graphics/SVG/1.1/DTD/svg11.dtd">
<svg version="1.1" id="Layer_1" xmlns="http://www.w3.org/2000/svg" xmlns:xlink="http://www.w3.org/1999/xlink" x="0px" y="0px"
	 width="64px" height="64px" viewBox="0 0 64 64" enable-background="new 0 0 64 64" xml:space="preserve">
<g>
	<path fill="#FFE62E" d="M12.907,8.358c-0.656-0.106-1.548-1.75-3.898-4.102C6.188,1.438,4.22,1.595,2.907,2.909
		c-1.312,1.311-1.47,3.28,1.35,6.1c2.351,2.351,3.995,3.242,4.101,3.898c0.587,3.678-1.812,7.077-0.35,8.539L21.445,8.008
		C19.983,6.547,16.583,8.946,12.907,8.358z"/>
	<path fill="#B4D7EE" d="M60.986,39.57c1.352,1.352,1.352,3.545-0.001,4.896l-16.52,16.52c-1.351,1.352-3.544,1.352-4.895,0
		L12.807,34.223c-1.353-1.351-1.352-3.544,0-4.895l16.521-16.521c1.352-1.351,3.544-1.352,4.896,0L60.986,39.57z"/>
	<path fill="#FFFFFF" d="M56.534,40.139c1.034,1.033,1.034,2.713,0,3.748L43.886,56.533c-1.035,1.035-2.713,1.035-3.747,0
		L21.828,38.223l32.792,0.002L56.534,40.139z"/>
	<g>
		
			<rect x="15.985" y="29.311" transform="matrix(0.7071 -0.7071 0.7071 0.7071 -15.5871 23.4153)" fill="#2090BC" width="8.97" height="2.423"/>
		
			<rect x="20.485" y="33.811" transform="matrix(0.7071 -0.7071 0.7071 0.7071 -17.4516 27.9158)" fill="#2090BC" width="8.97" height="2.423"/>
		
			<rect x="24.985" y="38.311" transform="matrix(0.707 -0.7072 0.7072 0.707 -19.3161 32.422)" fill="#2090BC" width="8.97" height="2.423"/>
		
			<rect x="29.486" y="42.812" transform="matrix(0.7072 -0.707 0.707 0.7072 -21.1784 36.9066)" fill="#2090BC" width="8.97" height="2.422"/>
		
			<rect x="33.987" y="47.312" transform="matrix(0.7071 -0.7072 0.7072 0.7071 -23.044 41.4198)" fill="#2090BC" width="8.968" height="2.423"/>
		
			<rect x="38.486" y="51.812" transform="matrix(0.7072 -0.7071 0.7071 0.7072 -24.9069 45.9099)" fill="#2090BC" width="8.969" height="2.423"/>
	</g>
	<path fill="#2090BC" d="M6.699,25.356c-1.533-1.533-0.423-2.906,1.11-4.439L20.917,7.809c1.532-1.533,2.906-2.642,4.438-1.109
		l3.374,3.375c1.532,1.532,0.426,2.906-1.108,4.438L14.514,27.621c-1.533,1.534-2.908,2.642-4.44,1.11L6.699,25.356z"/>
	<g>
		
			<rect x="9.184" y="21.98" transform="matrix(0.7067 -0.7076 0.7076 0.7067 -15.3165 14.4135)" fill="#095972" width="1.081" height="7.397"/>
		
			<rect x="25.382" y="5.784" transform="matrix(0.7071 -0.7071 0.7071 0.7071 0.8866 21.1063)" fill="#095972" width="1.077" height="7.397"/>
		
			<rect x="22.682" y="8.483" transform="matrix(0.7071 -0.7071 0.7071 0.7071 -1.8119 19.988)" fill="#095972" width="1.08" height="7.397"/>
		
			<rect x="19.982" y="11.183" transform="matrix(0.7076 -0.7067 0.7067 0.7076 -4.515 18.8537)" fill="#095972" width="1.079" height="7.397"/>
		
			<rect x="17.284" y="13.882" transform="matrix(0.7071 -0.7071 0.7071 0.7071 -7.2113 17.7515)" fill="#095972" width="1.077" height="7.397"/>
		
			<rect x="14.584" y="16.581" transform="matrix(0.7076 -0.7067 0.7067 0.7076 -9.9076 16.618)" fill="#095972" width="1.079" height="7.397"/>
		
			<rect x="11.883" y="19.28" transform="matrix(0.7071 -0.7071 0.7071 0.7071 -12.6102 15.5152)" fill="#095972" width="1.08" height="7.398"/>
	</g>
</g>
</svg>
