<?xml version="1.0" encoding="utf-8"?>
<!-- Generator: Adobe Illustrator 15.0.0, SVG Export Plug-In . SVG Version: 6.00 Build 0)  -->
<!DOCTYPE svg PUBLIC "-//W3C//DTD SVG 1.1//EN" "http://www.w3.org/Graphics/SVG/1.1/DTD/svg11.dtd">
<svg version="1.1" id="Layer_1" xmlns="http://www.w3.org/2000/svg" xmlns:xlink="http://www.w3.org/1999/xlink" x="0px" y="0px"
	 width="64px" height="64px" viewBox="0 0 64 64" enable-background="new 0 0 64 64" xml:space="preserve">
<g>
	<g>
		<path fill="#42ADE2" d="M33.339,12.18c-0.944-1.31,0.08-1.895,1.336-1.661c-1.195-1.468-0.458-2.486,1.424-2.086
			c0.588,0.124-0.23,1.117-0.758,1.081c1.583,1.185,0.715,2.436-0.961,2.141c1.481,2.034-1.063,1.534-2.176,1.618
			c-0.291,1.522,1.447,3.259,0.867,3.259C31.776,16.532,29.713,11.728,33.339,12.18z"/>
	</g>
	<g>
		<path fill="#FF8736" d="M9.412,19.75c-1.008,0.454-3.89-4.052-0.358-4.091c-2.027-1.844-1.767-2.732,0.955-2.787
			c-3.118-3.124,1.809-4.255,2.328-2.583c0.154,0.502-1.509-0.44-2.051,0.457c-0.625,1.037,3.837,3.654-0.768,3.5
			c1.693,1.724,1.796,2.527-0.905,2.817C8.965,17.553,10.052,19.461,9.412,19.75z"/>
	</g>
	<g>
		<path fill="#C28FEF" d="M19.198,21.311c-1.209,1.574-3.052,2.453-4.448,3.829c-1.453,1.433-2.321,5.374-2.321,5.374
			s0.52-4.11,1.908-5.692c1.257-1.431,3.056-2.474,4.029-4.139c1.74-2.976,0.187-6.96-2.035-9.235
			c0.467-0.416,1.086-0.941,1.46-1.303C19.88,12.828,21.739,18.007,19.198,21.311z"/>
	</g>
	<path fill="#FF8736" d="M40.337,49.362c-4.843,1.984-12.374,1.352-12.374,1.352s8.464,1.134,12.708-0.549
		c6.625-2.628,15.513,2.814,15.513,2.814s1.172-0.804,1.74-1.194C53.852,49.254,45.643,47.188,40.337,49.362z"/>
	<g>
		<path fill="#42ADE2" d="M53.669,40.042c-2,0.64-3.7,1.915-5.554,2.858c-1.727,0.882-3.657,1.549-5.623,1.275
			c-2.14-0.298-5.488-3.082-5.488-3.082s3.556,2.451,5.694,2.501c2.185,0.048,4.153-1.092,5.883-2.309
			c3.233-2.274,6.945-4.639,11.103-3.73c-0.196,0.733-0.588,2.196-0.588,2.196S57.003,38.977,53.669,40.042z"/>
	</g>
	
		<rect x="27.054" y="5.858" transform="matrix(0.7071 -0.7071 0.7071 0.7071 3.3425 21.9065)" fill="#ED4C5C" width="2.121" height="2.121"/>
	
		<rect x="49.969" y="56.031" transform="matrix(0.7069 -0.7073 0.7073 0.7069 -25.4253 52.8299)" fill="#ED4C5C" width="2.121" height="2.122"/>
	
		<rect x="55.885" y="28.317" transform="matrix(0.7073 -0.7069 0.7069 0.7073 -4.1004 48.851)" fill="#C28FEF" width="2.121" height="2.121"/>
	
		<rect x="34.455" y="54.092" transform="matrix(0.7071 -0.7071 0.7071 0.7071 -28.5966 41.2664)" fill="#42ADE2" width="2.12" height="2.121"/>
	<g>
		<g>
			<path fill="#D3976E" d="M61.787,8.194l-1.395-2.402c-0.439-0.756-1.419-1.016-2.176-0.58l-0.691,0.396
				c-0.57,0.326-0.862,0.959-0.782,1.572l-1.491,0.857c-0.761,0.436-1.021,1.412-0.582,2.164l0.396,0.69
				c0.442,0.758,1.419,1.016,2.178,0.582l1.479-0.852c0.497,0.393,1.208,0.475,1.79,0.139l0.691-0.397
				C61.963,9.928,62.227,8.952,61.787,8.194z"/>
			<path fill="#89664C" d="M61.787,8.194c0,0,0.07,0.971-0.813,1.477c-0.255,0.148-0.483,0.283-0.704,0.371
				c-0.179,0.07-0.845,0.188-1.52-0.982c-0.796-1.373-1.486-1.867-1.486-1.867s1.691,2.232,0.448,3.109
				c-0.924,0.634-2.145,1.454-3.043-0.1l0.396,0.69c0.442,0.758,1.419,1.016,2.178,0.582l1.479-0.852
				c0.497,0.393,1.208,0.475,1.79,0.139l0.691-0.397C61.963,9.928,62.227,8.952,61.787,8.194z"/>
		</g>
		<path fill="#B2C1C0" d="M42.549,11.847c0,0,1.725,1.264,2.298,4.611c0.448,2.63,3.021,1.667,4.178,2.815l-3.866,1.539
			l-3.664-0.355l-1.392,0.713c0,0,1.245-1.611,1.392-2.256C42.025,16.558,42.154,12.24,42.549,11.847z"/>
		<path fill="#3E4347" d="M42.549,11.847c0,0,1.725,1.264,2.298,4.611c0.448,2.63,3.021,1.667,4.178,2.815l-3.866,1.539
			l-3.664-0.355l-1.392,0.713c0,0,1.245-1.611,1.392-2.256C42.025,16.558,42.154,12.24,42.549,11.847z"/>
		<path fill="#46732F" d="M35.456,32.446c3.414-6.664,5.4-8.219,7.278-10.094c0,0,0.182-0.18,1.887-1.869
			c0.336-0.332,1.026-0.396,1.61-0.975c0.585-0.582,1.452-2.568,2.076-3.183c0,0,0.347,0.166,0.668-0.15
			c0.316-0.316-0.169-1.115-1.444-2.381c-1.275-1.268-2.08-1.748-2.398-1.432c-0.32,0.314-0.15,0.66-0.15,0.66
			c-0.621,0.619-2.623,1.479-3.209,2.063c-0.582,0.58-0.646,1.264-0.977,1.6c-1.702,1.69-1.886,1.872-1.886,1.872
			c-1.89,1.863-3.454,3.836-10.165,7.227c-7.37,3.723-9.155,3.746-12.747,7.326L2.579,46.434c-0.783,0.777-0.76,1.904,0,2.663
			l9.395,9.327c0.766,0.756,1.9,0.779,2.683,0l13.42-13.322C31.681,41.533,31.705,39.76,35.456,32.446z"/>
		<path fill="#FFE791" d="M23.998,46.381c0.674-2.512,0.025-5.303-1.961-7.275c-1.985-1.971-4.796-2.615-7.328-1.945l-1.394-1.385
			L3.92,45.102l12.078,11.99l9.394-9.326L23.998,46.381z"/>
		<g>
			<path fill="#3E4347" d="M14.144,39.549c2.338-0.822,4.604-0.377,6.217,1.223c1.611,1.6,2.059,3.85,1.23,6.17l-0.102,0.281
				l2.224,2.206l0.673-0.664l-1.807-1.792c0.822-2.576,0.266-5.066-1.548-6.867c-1.815-1.801-4.321-2.354-6.919-1.539l-1.806-1.793
				l-0.67,0.666l2.226,2.211L14.144,39.549z"/>
			<polygon fill="#3E4347" points="17.675,55.426 5.598,43.436 4.926,44.102 17.005,56.092 			"/>
		</g>
		<path fill="#FFE791" d="M35.456,32.446c3.414-6.664,6.741-9.551,8.618-11.426l-2.268-0.67l-1.704,0.82l1.034-1.361l-0.365-3.066
			c-1.737,1.68-5.314,5.65-12.025,9.041c-0.643,0.324-1.229,0.613-1.792,0.887l7.608,7.552
			C34.837,33.664,35.128,33.084,35.456,32.446z"/>
		<polygon fill="#FFE791" points="32.1,34.443 34.784,29.116 32.099,26.45 26.734,29.116 28.269,31.657 28.41,32.778 29.542,32.918 
			32.1,34.443 		"/>
		<path opacity="0.5" fill="#3E4347" d="M40.103,21.17c0,0,2.079-2.281,0.716-4.507l-1.601,1.589
			c0.399,0.746,0.809,1.967,0.367,3.432c0,0,2.001-0.645,3.39,0.428l0.925-0.918C43.214,20.784,41.385,19.895,40.103,21.17z"/>
		<path fill="#FFE791" d="M42.186,18.534c0.402-0.746,0.531-2.136,0.057-3.384c0,0,0.699-0.084,0.796-0.57
			c0.099-0.484-0.489-1.789-0.489-2.732c0,0-0.838,0.707-1.552,0.707c-0.711,0,0.603,1.346,0.728,1.998c0,0-0.963-0.152-1.857-0.152
			c-0.896,0,2.078,4.938,0.235,6.771C40.103,21.17,41.609,19.61,42.186,18.534z"/>
		<path fill="#FFE791" d="M40.103,21.17c0,0,1.354-1.398,3.554-1.398c0,0,0.24,1.018,0.631,0.629
			c0.393-0.391-0.193-1.332,1.342-1.332c1.538,0,2.18,0.662,3.396,0.205c0,0,0.108,1.496-1.084,1.756
			c-1.192,0.258-2.151-0.189-2.151,0.408c0,0.832-0.635,1.877-1.891,0.629C42.637,20.817,41.283,20.551,40.103,21.17z"/>
		<path fill="#E8E8E8" d="M51.33,15.035c-1.186,0.363-2.476-0.432-2.871-1.775c-0.394-1.344,0.251-2.726,1.441-3.091
			c1.188-0.359,2.476,0.433,2.872,1.776C53.168,13.289,52.521,14.671,51.33,15.035z"/>
		<path fill="#E8E8E8" d="M48.598,13.435c-1.387,0.422-2.773-0.133-3.096-1.24c-0.327-1.107,0.53-2.347,1.915-2.771
			c1.385-0.422,2.772,0.133,3.101,1.241C50.844,11.773,49.98,13.013,48.598,13.435z"/>
		<path fill="#E8E8E8" d="M53.426,18.524c-1.187,0.361-2.518-0.576-2.965-2.095c-0.447-1.52,0.154-3.045,1.346-3.406
			c1.19-0.365,2.52,0.574,2.966,2.094C55.221,16.636,54.617,18.161,53.426,18.524z"/>
		<path fill="#E8E8E8" d="M50.197,17.417c-1.602,0.488-3.289-0.445-3.773-2.085c-0.484-1.641,0.426-3.365,2.023-3.854
			c1.602-0.49,3.293,0.445,3.776,2.086C52.705,15.205,51.797,16.928,50.197,17.417z"/>
		<path fill="#E8E8E8" d="M52.531,20.838c-0.934,0.283-2.014-0.594-2.414-1.959c-0.404-1.363,0.025-2.698,0.953-2.983
			c0.935-0.283,2.014,0.592,2.415,1.958C53.887,19.219,53.459,20.553,52.531,20.838z"/>
		<path fill="#E8E8E8" d="M49.859,20.262c-0.876,0.266-1.808-0.266-2.079-1.191c-0.272-0.926,0.216-1.891,1.096-2.158
			c0.874-0.267,1.804,0.268,2.079,1.191C51.227,19.03,50.736,19.995,49.859,20.262z"/>
		<path fill="#E8E8E8" d="M51.199,22.417c-0.777,0.236-1.625-0.301-1.893-1.205c-0.265-0.902,0.15-1.824,0.93-2.063
			s1.627,0.301,1.892,1.203C52.394,21.254,51.978,22.18,51.199,22.417z"/>
		<path opacity="0.33" fill="#3E4347" d="M54.576,14.652c0.004,0.195,0.006,0.359,0.005,0.408c0,1.283-0.597,2.382-1.461,2.931
			c0.059,0.188,0.095,0.387,0.095,0.596c0,0.932-0.609,1.686-1.374,1.734c-0.185,0.604-0.616,1.029-1.124,1.029
			c-0.672,0-1.501-0.443-1.41-0.139c0.268,0.904,1.115,1.441,1.893,1.205c0.623-0.191,1.007-0.82,1.003-1.527
			c0.109-0.006,0.219-0.018,0.329-0.051c0.793-0.244,1.215-1.256,1.072-2.395c1.066-0.459,1.591-1.89,1.169-3.327
			C54.723,14.947,54.646,14.802,54.576,14.652z"/>
		<path opacity="0.33" fill="#3E4347" d="M51.42,12.906c-0.402,0-0.77,0.141-1.076,0.371c0.088-0.012,0.178-0.029,0.27-0.029
			c1.193,0,2.157,1.021,2.158,2.277c-0.001,0.26-0.05,0.502-0.123,0.734c0.372-0.354,0.608-0.857,0.609-1.426
			C53.258,13.771,52.435,12.906,51.42,12.906z"/>
		<path opacity="0.33" fill="#3E4347" d="M48.642,12.298c0.456-0.389,1.071-0.471,1.646-0.283c-0.004-0.004-0.004-0.004-0.002-0.006
			c-0.582-0.703-1.582-0.818-2.236-0.26c-0.655,0.557-0.717,1.58-0.137,2.283c0.077,0.094,0.164,0.178,0.255,0.248
			C47.93,13.556,48.088,12.769,48.642,12.298z"/>
		<g>
			<path fill="#3E4347" d="M30.771,31.686l-1.252-1.242l0.878-0.871l0.147,0.146L29.83,30.43l0.382,0.381l0.671-0.666l0.146,0.146
				l-0.67,0.668l0.426,0.42l0.744-0.738l0.146,0.146L30.771,31.686z"/>
			<path fill="#3E4347" d="M31.893,30.573l-1.251-1.244l0.241-0.24l1.174,0.594c0.108,0.057,0.188,0.1,0.243,0.127
				c-0.032-0.059-0.077-0.145-0.137-0.262l-0.579-1.154L31.8,28.18l1.25,1.242l-0.153,0.152l-1.049-1.039l0.695,1.391l-0.146,0.143
				l-1.415-0.709l1.064,1.059L31.893,30.573z"/>
			<path fill="#3E4347" d="M32.653,28.608c-0.208-0.207-0.316-0.422-0.327-0.646c-0.008-0.223,0.072-0.42,0.244-0.59
				c0.111-0.111,0.239-0.184,0.386-0.219c0.146-0.035,0.29-0.025,0.436,0.025c0.146,0.051,0.281,0.139,0.406,0.264
				c0.127,0.125,0.215,0.262,0.266,0.412c0.05,0.146,0.057,0.293,0.017,0.434c-0.04,0.143-0.112,0.266-0.217,0.369
				c-0.114,0.115-0.246,0.189-0.392,0.219c-0.148,0.035-0.294,0.025-0.438-0.025C32.89,28.797,32.763,28.715,32.653,28.608z
				 M32.821,28.446c0.15,0.15,0.307,0.23,0.473,0.236c0.164,0.008,0.307-0.047,0.427-0.164c0.119-0.119,0.177-0.262,0.167-0.426
				c-0.01-0.166-0.096-0.326-0.258-0.488c-0.1-0.1-0.205-0.174-0.314-0.215c-0.111-0.043-0.218-0.053-0.324-0.029
				c-0.105,0.023-0.198,0.072-0.279,0.152c-0.113,0.113-0.171,0.25-0.172,0.412C32.538,28.084,32.632,28.26,32.821,28.446z"/>
			<path fill="#3E4347" d="M34.19,27.584l0.125-0.164c0.1,0.09,0.182,0.139,0.25,0.143c0.063,0.004,0.125-0.02,0.18-0.074
				c0.041-0.041,0.066-0.086,0.076-0.133c0.009-0.047,0.004-0.094-0.018-0.137c-0.021-0.045-0.068-0.102-0.141-0.172l-0.861-0.855
				l0.16-0.16l0.854,0.846c0.104,0.104,0.174,0.197,0.205,0.279c0.033,0.08,0.039,0.162,0.016,0.246
				c-0.024,0.082-0.072,0.16-0.143,0.23c-0.105,0.105-0.221,0.156-0.338,0.15C34.435,27.776,34.313,27.709,34.19,27.584z"/>
			<path fill="#3E4347" d="M35.505,26.987l-1.252-1.244l0.16-0.16l1.251,1.244L35.505,26.987z"/>
			<path fill="#3E4347" d="M35.29,25.989c-0.208-0.207-0.318-0.422-0.326-0.645c-0.01-0.225,0.072-0.422,0.242-0.592
				c0.112-0.109,0.24-0.186,0.387-0.219c0.146-0.035,0.29-0.025,0.436,0.025c0.146,0.051,0.281,0.139,0.407,0.264
				s0.215,0.264,0.266,0.412c0.05,0.148,0.056,0.293,0.017,0.434c-0.041,0.143-0.113,0.266-0.217,0.371
				c-0.115,0.111-0.246,0.186-0.394,0.219c-0.146,0.031-0.292,0.023-0.436-0.029C35.526,26.178,35.399,26.096,35.29,25.989z
				 M35.456,25.829c0.152,0.148,0.311,0.227,0.477,0.234c0.164,0.01,0.307-0.045,0.426-0.164s0.177-0.264,0.166-0.428
				c-0.01-0.164-0.096-0.326-0.257-0.486c-0.101-0.1-0.206-0.172-0.316-0.215c-0.109-0.043-0.217-0.053-0.323-0.029
				c-0.104,0.021-0.199,0.072-0.277,0.152c-0.115,0.113-0.172,0.25-0.174,0.41C35.175,25.467,35.269,25.639,35.456,25.829z"/>
			<path fill="#3E4347" d="M37.265,25.239l-1.252-1.244l0.165-0.164l1.618,0.344l-0.98-0.977l0.154-0.152l1.251,1.242l-0.165,0.166
				l-1.619-0.346l0.981,0.977L37.265,25.239z"/>
			<path fill="#3E4347" d="M38.493,24.016l-1.251-1.242l0.878-0.871l0.147,0.148l-0.716,0.709l0.383,0.381l0.67-0.666l0.146,0.146
				l-0.67,0.666l0.426,0.422l0.744-0.74l0.147,0.146L38.493,24.016z"/>
		</g>
		<g>
			<path fill-rule="evenodd" clip-rule="evenodd" fill="#3E4347" d="M13.725,48.396l-0.434-0.117c0.034-0.09,0.017-0.189-0.05-0.258
				l-0.174-0.172c-0.066-0.068-0.167-0.084-0.256-0.051l-0.117-0.432l-0.282-1.039l-0.756,0.756l-0.756,0.756l1.037,0.281
				l0.434,0.117c-0.033,0.09-0.018,0.189,0.051,0.258l0.172,0.171c0.067,0.068,0.169,0.084,0.257,0.051l0.119,0.434l0.279,1.037
				l0.757-0.756l0.755-0.756L13.725,48.396z"/>
			<path fill="#3E4347" d="M14.322,44.717c-0.063,0.283-0.035,0.564,0.058,0.828c0.091,0.266,0.251,0.51,0.454,0.713
				s0.447,0.361,0.713,0.453c0.264,0.094,0.544,0.121,0.828,0.059c-0.18,0.227-0.504,0.342-0.854,0.305
				c-0.352-0.035-0.724-0.221-1.002-0.502c-0.281-0.279-0.467-0.65-0.501-1.002C13.98,45.221,14.096,44.896,14.322,44.717z"/>
			<path fill-rule="evenodd" clip-rule="evenodd" fill="#3E4347" d="M20.288,46.645l0.056-0.055
				c0.042-0.043,0.046-0.057,0.035-0.092c-0.02-0.061-0.043-0.121-0.07-0.18c-0.021-0.043-0.045-0.088-0.073-0.135
				c0.589-1.475,0.287-3.225-0.907-4.42c-1.195-1.195-2.945-1.498-4.422-0.908c-0.046-0.027-0.091-0.053-0.134-0.072
				c-0.058-0.029-0.119-0.051-0.181-0.07c-0.033-0.012-0.047-0.008-0.09,0.035l-0.055,0.055c-0.104,0.104-0.076,0.051-0.046,0.168
				c0.011,0.039,0.015,0.078,0.013,0.121c-0.316,0.18-0.614,0.402-0.885,0.672c-1.603,1.602-1.603,4.197,0,5.799
				c1.602,1.599,4.196,1.599,5.798,0c0.271-0.271,0.494-0.568,0.673-0.887c0.042,0,0.082,0.004,0.121,0.014
				C20.238,46.721,20.184,46.748,20.288,46.645z M18.984,42.107c0.976,0.975,1.277,2.367,0.906,3.602
				c-0.313-0.377-0.702-0.752-0.943-0.955c-0.391-0.326-0.771-0.545-1.142-0.664c-0.345-0.115-0.688-0.459-0.804-0.805
				c-0.119-0.371-0.338-0.75-0.665-1.141c-0.204-0.242-0.579-0.631-0.954-0.943C16.617,40.83,18.009,41.131,18.984,42.107z
				 M13.872,47.221c-1.414-1.412-1.412-3.701,0-5.113c0.019-0.02,0.038-0.039,0.058-0.057c-0.251,0.43-0.271,0.854-0.082,1.27
				c0.203,0.447,0.571,0.807,1.021,1c0.248,0.107,0.514,0.15,0.817,0.092c0.533-0.102,0.667-0.363,1.05-0.525
				c0.336-0.139,0.607,0.133,0.467,0.467c-0.16,0.385-0.424,0.518-0.525,1.051c-0.057,0.305-0.014,0.57,0.093,0.816
				c0.193,0.451,0.554,0.82,1,1.023c0.417,0.188,0.84,0.17,1.271-0.084c-0.019,0.02-0.038,0.041-0.058,0.059
				C17.572,48.631,15.283,48.631,13.872,47.221z"/>
		</g>
		<g>
			<path fill="#E8E8E8" d="M49.795,25.122c-1.039,0.438-2.134-0.396-2.448-1.859c-0.314-1.465,0.276-3.004,1.313-3.439
				c1.04-0.438,2.136,0.398,2.448,1.861S50.832,24.688,49.795,25.122z"/>
			<path opacity="0.33" fill="#3E4347" d="M51.107,21.686c-0.166-0.781-0.561-1.375-1.047-1.701c0.24,0.322,0.432,0.725,0.533,1.201
				c0.313,1.463-0.275,3.004-1.313,3.438c-0.483,0.203-0.977,0.123-1.4-0.16c0.495,0.662,1.215,0.955,1.915,0.66
				C50.832,24.69,51.42,23.149,51.107,21.686z"/>
		</g>
		<g>
			<path fill="#E8E8E8" d="M47.627,28.68c-1.038,0.436-2.133-0.396-2.447-1.859c-0.314-1.467,0.276-3.004,1.313-3.439
				c1.039-0.438,2.135,0.396,2.448,1.861C49.253,26.706,48.664,28.247,47.627,28.68z"/>
			<path opacity="0.33" fill="#3E4347" d="M48.94,25.245c-0.167-0.781-0.561-1.375-1.047-1.701c0.239,0.322,0.431,0.723,0.533,1.201
				c0.313,1.463-0.276,3.004-1.313,3.438c-0.483,0.203-0.977,0.121-1.4-0.162c0.495,0.664,1.215,0.957,1.914,0.662
				C48.664,28.249,49.253,26.708,48.94,25.245z"/>
		</g>
		<g>
			<path fill="#E8E8E8" d="M47.087,33.096c-1.038,0.436-2.133-0.396-2.447-1.859c-0.314-1.467,0.276-3.004,1.313-3.439
				c1.039-0.438,2.135,0.396,2.448,1.861C48.713,31.122,48.124,32.663,47.087,33.096z"/>
			<path opacity="0.33" fill="#3E4347" d="M48.4,29.661c-0.167-0.781-0.561-1.375-1.047-1.701c0.239,0.322,0.431,0.723,0.533,1.201
				c0.313,1.463-0.276,3.004-1.313,3.438c-0.483,0.203-0.977,0.121-1.4-0.162c0.495,0.664,1.215,0.957,1.914,0.662
				C48.124,32.665,48.713,31.124,48.4,29.661z"/>
		</g>
		<g>
			<path fill="#E8E8E8" d="M50.752,31.467c-0.744,0.313-1.527-0.283-1.753-1.33c-0.225-1.049,0.198-2.15,0.94-2.461
				c0.744-0.314,1.527,0.283,1.752,1.332C51.915,30.055,51.494,31.157,50.752,31.467z"/>
			<path opacity="0.33" fill="#3E4347" d="M51.691,29.008c-0.119-0.559-0.4-0.984-0.75-1.217c0.172,0.23,0.309,0.518,0.383,0.859
				c0.223,1.047-0.199,2.15-0.941,2.461c-0.346,0.145-0.697,0.086-1.002-0.115c0.355,0.475,0.869,0.684,1.371,0.473
				C51.494,31.159,51.915,30.057,51.691,29.008z"/>
		</g>
		<g>
			<path fill="#E8E8E8" d="M46.869,38.145c-0.638,0.268-1.31-0.244-1.504-1.143c-0.192-0.9,0.171-1.846,0.807-2.111
				c0.639-0.27,1.312,0.242,1.504,1.143C47.867,36.932,47.506,37.877,46.869,38.145z"/>
			<path opacity="0.33" fill="#3E4347" d="M47.676,36.033c-0.103-0.48-0.344-0.844-0.644-1.045c0.147,0.199,0.265,0.445,0.328,0.738
				c0.191,0.898-0.17,1.844-0.808,2.111c-0.296,0.125-0.599,0.074-0.859-0.1c0.305,0.408,0.746,0.588,1.176,0.406
				C47.506,37.879,47.867,36.932,47.676,36.033z"/>
		</g>
		<g>
			<path fill="#E8E8E8" d="M47.396,26.194c-1.038,0.436-2.133-0.396-2.447-1.861s0.276-3.004,1.313-3.438
				c1.039-0.439,2.135,0.396,2.448,1.861C49.021,24.219,48.433,25.758,47.396,26.194z"/>
		</g>
		<g>
			<path fill="#E8E8E8" d="M48.447,21.717c-1.038,0.438-2.133-0.396-2.447-1.859c-0.314-1.465,0.276-3.004,1.313-3.438
				c1.039-0.438,2.135,0.397,2.449,1.86C50.074,19.743,49.484,21.284,48.447,21.717z"/>
		</g>
		<path opacity="0.33" fill="#3E4347" d="M50.072,17.547c-0.467-0.002-0.889-0.197-1.198-0.512c0.145,0.703,0.737,1.23,1.442,1.23
			c0.82,0,1.484-0.705,1.484-1.571c-0.002-0.164-0.029-0.318-0.074-0.467C51.523,16.987,50.861,17.545,50.072,17.547z"/>
	</g>
</g>
</svg>
