<?xml version="1.0" encoding="utf-8"?>
<!-- Generator: Adobe Illustrator 15.0.0, SVG Export Plug-In . SVG Version: 6.00 Build 0)  -->
<!DOCTYPE svg PUBLIC "-//W3C//DTD SVG 1.1//EN" "http://www.w3.org/Graphics/SVG/1.1/DTD/svg11.dtd">
<svg version="1.1" id="Layer_1" xmlns="http://www.w3.org/2000/svg" xmlns:xlink="http://www.w3.org/1999/xlink" x="0px" y="0px"
	 width="64px" height="64px" viewBox="0 0 64 64" enable-background="new 0 0 64 64" xml:space="preserve">
<g>
	<g>
		<path fill="#3E4347" d="M32.498,44.308c-13.195,0-24.203-4.071-26.741-9.481C10.397,48.885,7.628,62,32.498,62
			c24.869,0,22.101-13.115,26.741-27.174C56.702,40.236,45.693,44.308,32.498,44.308z"/>
	</g>
	<path fill="#6F7980" d="M20.154,20.466c14.134-3.891,46.495,1.971,39.439,15.413c3.86,4.379,5.298,9.058-13.333,8.808
		C17.668,51.438-5.922,37.463,4.52,27.02C2,21.896,7.514,19.284,20.154,20.466z"/>
	<g>
		<path fill="#3E4347" d="M32.498,43.672c12.488,0,22.907-3.854,25.309-8.974c0.159-0.483,0.311-0.975,0.457-1.469
			c0.043-0.261,0.065-0.521,0.065-0.79c0-6.199-11.564-11.23-25.831-11.23S6.667,26.24,6.667,32.439c0,0.269,0.021,0.529,0.064,0.79
			c0.146,0.494,0.298,0.985,0.458,1.469C9.591,39.818,20.01,43.672,32.498,43.672z"/>
	</g>
	<g>
		<path fill="#FBBF67" d="M32.498,43.672c12.488,0,22.907-3.854,25.309-8.974c0.05-0.155,0.1-0.31,0.149-0.464
			c-2.086-5.291-12.688-9.321-25.458-9.321c-12.771,0-23.372,4.03-25.458,9.321c0.05,0.154,0.099,0.312,0.149,0.464
			C9.591,39.818,20.01,43.672,32.498,43.672z"/>
	</g>
	<g>
		<path fill="#D33B23" d="M36.155,30.668c-4.958,0-10.237,3.337-14.337,3.337s-3.561,0.921-2.037,1.329
			c1.522,0.408,2.201,1.46,7.058,1.46c3.232,0,6.081-3.493,7.077-4.067C34.912,32.151,46.385,30.668,36.155,30.668z"/>
		<path fill="#FF8736" d="M31.181,28.887c0.302-0.981,1.152-1.786,1.866-1.853c0.713-0.065,1.921-0.528,2.524,0
			c0.604,0.529,1.811,1.918,1.865,2.58c0.055,0.661,0,2.182-1.316,2.844c0,0-0.568,0.553-2.052,0
			C31.236,31.399,30.792,30.157,31.181,28.887z"/>
		<path fill="#FF8736" d="M26.956,37.021c-0.517,0.274-0.714,1.851-0.494,2.247c0.22,0.398,0.823,1.522,1.701,1.654
			c0.878,0.133,2.688,0.264,3.457-0.662s0.713-2.049,0-2.91C30.906,36.492,29.315,35.765,26.956,37.021z"/>
		<path fill="#FF8736" d="M43.967,28.887c-0.619,0.653,0.658,2.446,1.921,2.844c1.262,0.396,2.688,0.595,3.731,0.396
			c1.042-0.198,1.536-1.653,1.481-2.579s-0.549-1.85-2.744-1.85C46.162,27.698,44.845,27.961,43.967,28.887z"/>
		<path fill="#FF8736" d="M38.811,36.275c-0.394,0.337-0.825,1.07-0.96,1.629l-0.163,0.68c-0.134,0.56-0.098,1.389,0.082,1.843
			c0.179,0.454,0.719,0.777,1.198,0.715l5.498-0.702c0.48-0.063,0.993-0.565,1.139-1.12l0.182-0.688
			c0.146-0.555-0.013-1.346-0.354-1.76l-0.13-0.159c-0.341-0.412-1.002-0.865-1.472-1.005l-0.549-0.164
			c-0.469-0.141-1.247-0.256-1.729-0.256h-0.714c-0.482,0-1.199,0.276-1.593,0.614L38.811,36.275z"/>
		<path fill="#FF8736" d="M15.926,28.556c0,0,0.494-1.389,1.207-1.785c0.714-0.397,1.592-0.926,2.415-0.926s1.701,0.065,2.194,0.727
			c0.494,0.662,1.317,1.654,0.934,2.514c-0.385,0.859-1.372,2.447-2.141,2.579C19.768,31.796,17.188,28.556,15.926,28.556z"/>
		<path fill="#D3976E" d="M15.39,34.778c0.6,0.254,0.274-0.727,0.769-2.173c0.139-0.401-1.401-0.515-2.033-0.906
			c-0.633-0.393-1.951-1.178-2.227,0c-0.275,1.176-0.797,2.059-0.192,2.327C12.312,34.296,14.866,34.557,15.39,34.778z"/>
		<path fill="#D3976E" d="M20.198,36.968c-0.226-0.23,0.514-2.288,0.514-2.55s0.439-0.326,1.466,0
			c1.026,0.327,2.346,0.98,2.785,1.014c0.439,0.032,0.66,0.483,0.587,1.144C25.366,38.208,20.73,37.502,20.198,36.968z"/>
		<path fill="#D3976E" d="M26.648,33.274c0.242-0.765,1.686-2.173,2.528-2.197c0.844-0.023,2.675,1.249,3.151,1.87
			s-0.221,1.871-0.221,1.871s-2.345-0.745-4.03-0.621S26.528,33.652,26.648,33.274z"/>
		<path fill="#D3976E" d="M27.968,27.374c-0.508-0.12,1.575-1.829,2.235-1.57c0.659,0.264,2.638,1.21,2.895,1.57
			C33.354,27.733,32.494,28.452,27.968,27.374z"/>
		<path fill="#D3976E" d="M40.328,27.552c-0.426,0.178-1.613,1.668-1.539,2.058c0.072,0.394,0.659,2.811,2.308,3.138
			c1.649,0.326,2.641,0.556,3.078,0c0.904-1.149-1.1-1.635-1.173-2.287C42.93,29.806,41.501,27.062,40.328,27.552z"/>
		<path fill="#D3976E" d="M42.297,38.993c-0.604-0.352-2.086,0.228-2.524-0.23c-0.44-0.456-1.21-0.064-1.649-0.456
			c-0.44-0.393-1.612,0.196-1.43,1.764c0.184,1.569,0.586,2.94,1.686,2.94s1.648-0.556,2.456-0.75
			c0.806-0.198,1.648-0.387,1.868-1.093C42.924,40.463,42.917,39.352,42.297,38.993z"/>
		<path fill="#D3976E" d="M53.622,34.351c-0.232,0.712-0.454,1.209-1.346,1.738c-0.891,0.529-2.495,1.003-2.93,1.593
			s-1.956,0.613-2.517-0.161c-0.561-0.777-0.669-3.309-0.091-3.166c0.579,0.144,1.052,0.068,1.26-0.287
			c0.209-0.356,1.566-1.506,2.951-1.188c1.388,0.316,0.785-0.75,1.936-0.262C54.035,33.103,53.777,33.877,53.622,34.351z"/>
		<g>
			<polygon fill="#83BF4F" points="10.309,36.747 10.976,36.586 10.309,35.791 9.641,36.586 10.309,36.747 			"/>
			<polygon fill="#83BF4F" points="13.289,37.665 12.313,38.842 12.339,38.993 13.313,39.211 14.233,39.019 14.264,38.842 
				13.289,37.665 			"/>
			<polygon fill="#83BF4F" points="12.877,28.985 12.664,29.68 13.267,29.778 13.922,29.661 13.779,29.081 12.877,28.985 			"/>
			<polygon fill="#83BF4F" points="16.746,32.231 16.456,33.249 17.288,33.364 18.188,33.227 18.002,32.364 16.746,32.231 			"/>
			<polygon fill="#83BF4F" points="24.568,25.077 23.871,25.921 23.876,25.952 24.529,26.049 25.267,25.925 25.267,25.921 
				24.568,25.077 			"/>
			<polygon fill="#83BF4F" points="27.05,24.505 26.409,25.276 26.439,25.456 27.05,25.538 27.66,25.456 27.691,25.276 
				27.05,24.505 			"/>
			<polygon fill="#83BF4F" points="27.691,29.946 26.883,30.92 26.922,31.15 27.695,31.323 28.46,31.153 28.499,30.92 
				27.691,29.946 			"/>
			<polygon fill="#83BF4F" points="35.27,24.498 34.462,25.472 34.515,25.788 35.177,25.872 36.033,25.73 36.078,25.472 
				35.27,24.498 			"/>
			<polygon fill="#83BF4F" points="37.525,24.635 36.746,25.574 36.787,25.819 37.554,25.944 38.263,25.838 38.307,25.574 
				37.525,24.635 			"/>
			<polygon fill="#83BF4F" points="35.74,39.211 34.961,40.151 34.99,40.333 35.716,40.416 36.492,40.318 36.521,40.151 
				35.74,39.211 			"/>
			<polygon fill="#83BF4F" points="36.688,35.483 35.854,36.491 35.894,36.732 36.684,36.831 37.484,36.729 37.524,36.491 
				36.688,35.483 			"/>
			<polygon fill="#83BF4F" points="37.385,33.268 36.633,34.175 36.689,34.51 37.363,34.617 38.083,34.493 38.138,34.175 
				37.385,33.268 			"/>
			<polygon fill="#83BF4F" points="44.851,33.973 44.015,34.979 44.063,35.261 44.793,35.337 45.645,35.229 45.688,34.979 
				44.851,33.973 			"/>
			<polygon fill="#83BF4F" points="45.673,25.563 44.81,26.603 44.849,26.839 45.566,26.935 46.509,26.769 46.536,26.603 
				45.673,25.563 			"/>
			<polygon fill="#83BF4F" points="47.826,32.096 46.963,33.138 46.993,33.327 47.782,33.406 48.662,33.303 48.689,33.138 
				47.826,32.096 			"/>
			<polygon fill="#83BF4F" points="47.198,39.605 46.659,40.85 47.369,40.916 48.251,40.811 48.251,40.253 47.198,39.605 			"/>
			<polygon fill="#83BF4F" points="52.735,39.026 52.717,38.513 51.592,37.823 51.008,39.042 51.836,39.124 52.735,39.026 			"/>
			<polygon fill="#83BF4F" points="39.703,25.796 38.868,26.803 38.908,27.045 39.698,27.144 40.498,27.043 40.539,26.803 
				39.703,25.796 			"/>
			<polygon fill="#83BF4F" points="16.541,35.177 15.761,36.12 15.785,36.264 16.477,36.313 17.3,36.247 17.321,36.12 
				16.541,35.177 			"/>
		</g>
		<path fill="#D3976E" d="M32.494,40.723c-0.97-0.808-2.151-1.306-2.954-1.109s-1.866,0.285-2.488-0.036
			c-0.623-0.324-1.649,0.195-1.869,0.57c-0.22,0.381-0.952,1.131-0.55,1.785c0.403,0.653,6.109,1.498,7.861,0.393
			C33.428,41.737,32.822,40.995,32.494,40.723z"/>
		<polygon fill="#699635" points="48.848,35.816 53.084,36.267 52.813,35.498 53.213,35.354 54.313,36.08 54.394,35.657 
			54.252,35.112 55.943,35.295 55.004,34.379 54.799,34.324 55.467,33.329 55.503,32.673 52.563,34.495 52.942,33.093 
			50.917,35.157 48.576,35.642 48.848,35.816 		"/>
		<polygon fill="#699635" points="28.971,28.072 29.284,28.104 28.193,27.519 26.549,27.51 27.044,26.152 27.583,25.81 
			26.865,25.669 26.136,26.24 25.441,28.13 25.378,28.179 25.604,25.786 24.188,29.089 21.957,29.746 23.085,30.404 25.997,30.674 
			25.775,30.096 25.212,29.563 25.812,29.23 28.744,29.697 28.413,29.007 27.354,28.19 28.971,28.072 		"/>
		<polygon fill="#699635" points="21.285,37.648 18.854,36.698 19.996,38.04 19.36,38.158 16.938,36.643 16.166,36.755 
			17.931,38.216 16.185,38.077 17.905,39.087 16.645,40.106 16.605,40.849 16.775,40.975 16.727,40.772 16.939,40.499 
			20.139,39.249 19.834,40.122 20.011,40.841 24.119,36.389 21.285,37.648 		"/>
		<polygon fill="#699635" points="44.877,33.095 45.19,33.124 44.1,32.54 42.454,32.532 42.95,31.175 43.49,30.833 42.771,30.691 
			42.043,31.263 41.348,33.152 41.284,33.2 41.51,30.809 40.095,34.111 37.863,34.767 38.992,35.427 41.903,35.696 41.682,35.118 
			41.117,34.585 41.718,34.253 44.651,34.72 44.318,34.028 43.26,33.213 44.877,33.095 		"/>
	</g>
	<g>
		<g>
			<path fill="#E8E8E8" d="M19.481,2c1.932,1.05,3.6,3.232,4.014,6.029c0.426,2.787-0.487,5.68-2.024,7.743
				c-1.097,1.459-1.645,3.328-1.673,5.443c-0.012,1.047,0.067,2.145,0.312,3.218c0.104,0.546,0.265,1.074,0.455,1.598
				c0.201,0.514,0.431,1.026,0.846,1.423c-0.556-0.052-1.068-0.444-1.491-0.863c-0.432-0.429-0.786-0.941-1.115-1.476
				c-0.615-1.092-1.075-2.319-1.295-3.636c-0.229-1.314-0.231-2.721,0.058-4.096c0.142-0.687,0.358-1.359,0.637-1.998
				c0.151-0.318,0.294-0.619,0.496-0.948c0.221-0.377,0.312-0.491,0.537-0.823c1.131-1.545,1.901-3.391,1.975-5.379
				C21.322,6.235,20.61,4.104,19.481,2z"/>
		</g>
		<g>
			<path fill="#E8E8E8" d="M31.489,2c1.932,1.05,3.6,3.232,4.014,6.026c0.428,2.79-0.488,5.683-2.024,7.745
				c-1.097,1.46-1.646,3.328-1.675,5.442c-0.011,1.046,0.067,2.146,0.313,3.22c0.103,0.545,0.264,1.072,0.455,1.595
				c0.201,0.517,0.43,1.029,0.845,1.426c-0.557-0.052-1.067-0.446-1.491-0.865c-0.432-0.43-0.785-0.941-1.114-1.474
				c-0.615-1.092-1.076-2.321-1.295-3.638c-0.229-1.314-0.231-2.722,0.056-4.094c0.143-0.687,0.361-1.359,0.637-2.001
				c0.152-0.315,0.296-0.616,0.497-0.945c0.221-0.377,0.311-0.491,0.536-0.823c1.132-1.545,1.902-3.393,1.977-5.382
				C33.33,6.235,32.619,4.104,31.489,2z"/>
		</g>
		<g>
			<path fill="#E8E8E8" d="M43.497,2c1.932,1.05,3.6,3.232,4.015,6.029c0.425,2.787-0.489,5.68-2.025,7.743
				c-1.097,1.459-1.646,3.328-1.674,5.443c-0.012,1.047,0.066,2.145,0.312,3.218c0.104,0.546,0.265,1.074,0.455,1.598
				c0.202,0.514,0.432,1.026,0.846,1.423c-0.556-0.052-1.068-0.444-1.491-0.863c-0.431-0.429-0.786-0.941-1.115-1.476
				c-0.615-1.092-1.075-2.319-1.295-3.636c-0.227-1.314-0.23-2.721,0.058-4.096c0.142-0.687,0.359-1.359,0.638-1.998
				c0.15-0.318,0.293-0.619,0.495-0.948c0.221-0.377,0.312-0.491,0.537-0.823c1.131-1.545,1.901-3.391,1.976-5.379
				C45.338,6.235,44.627,4.104,43.497,2z"/>
		</g>
	</g>
</g>
</svg>
