<?xml version="1.0" encoding="utf-8"?>
<!-- Generator: Adobe Illustrator 15.0.0, SVG Export Plug-In . SVG Version: 6.00 Build 0)  -->
<!DOCTYPE svg PUBLIC "-//W3C//DTD SVG 1.1//EN" "http://www.w3.org/Graphics/SVG/1.1/DTD/svg11.dtd">
<svg version="1.1" id="Layer_1" xmlns="http://www.w3.org/2000/svg" xmlns:xlink="http://www.w3.org/1999/xlink" x="0px" y="0px"
	 width="64px" height="64px" viewBox="0 0 64 64" enable-background="new 0 0 64 64" xml:space="preserve">
<g>
	<path fill="#C7D7D7" d="M43.339,61.052c-0.039-0.024-4.152-0.784-5.871-4.951c-1.623-3.935-1.887-8.113,3.08-9.865
		c0.252-0.09-5.443-0.446-5.443-0.446s-5.696,0.356-5.444,0.446c4.968,1.752,4.703,5.931,3.081,9.865
		c-1.719,4.167-5.834,4.927-5.873,4.951c-0.121,0.072-0.193,0.3-0.176,0.537C26.714,61.825,26.819,62,26.946,62h8.158h8.157
		c0.126,0,0.233-0.175,0.253-0.411C43.534,61.352,43.46,61.124,43.339,61.052z"/>
	<path fill="#C7D7D7" d="M47.413,12.35H35.104h-12.31c5.028,11.896-12.182,34.354,12.31,34.354
		C59.595,46.703,42.385,24.245,47.413,12.35z"/>
	<g>
		<circle fill-rule="evenodd" clip-rule="evenodd" fill="#64892F" cx="47.195" cy="12.349" r="10.347"/>
		<g>
			<circle fill-rule="evenodd" clip-rule="evenodd" fill="#FDFFB8" cx="47.195" cy="12.35" r="9.7"/>
			<g>
				<g>
					<path fill-rule="evenodd" clip-rule="evenodd" fill="#CED74D" d="M44.472,3.499c0.268-0.341,5.559-0.352,5.723,0.155
						c0.063,0.188,0.33,0.305,0.295,0.502c-0.131,0.74-2.909,6.966-2.909,6.966c-0.091-0.028-0.393-0.356-0.581-0.078
						c-0.164,0.244-2.881-6.786-2.78-6.897C44.351,4.003,44.308,3.71,44.472,3.499z"/>
					<path fill-rule="evenodd" clip-rule="evenodd" fill="#CED74D" d="M49.973,21.207c-0.266,0.342-5.556,0.353-5.72-0.153
						c-0.063-0.19-0.33-0.306-0.297-0.504c0.131-0.738,2.91-6.966,2.91-6.966c0.09,0.03,0.393,0.359,0.582,0.08
						c0.166-0.244,2.881,6.786,2.78,6.896C50.097,20.705,50.14,20.996,49.973,21.207z"/>
					<path fill-rule="evenodd" clip-rule="evenodd" fill="#CED74D" d="M56.059,9.602c0.345,0.263,0.354,5.491-0.156,5.652
						c-0.191,0.062-0.308,0.327-0.509,0.293c-0.746-0.131-7.051-2.876-7.051-2.876c0.03-0.09,0.363-0.389,0.081-0.575
						c-0.246-0.161,6.868-2.846,6.979-2.746C55.55,9.479,55.845,9.438,56.059,9.602z"/>
					<path fill-rule="evenodd" clip-rule="evenodd" fill="#CED74D" d="M38.356,15.037c-0.346-0.266-0.354-5.491,0.156-5.655
						c0.191-0.06,0.308-0.325,0.507-0.289c0.748,0.128,7.05,2.874,7.05,2.874c-0.027,0.089-0.361,0.386-0.077,0.575
						c0.245,0.161-6.87,2.845-6.981,2.746C38.865,15.158,38.569,15.199,38.356,15.037z"/>
					<path fill-rule="evenodd" clip-rule="evenodd" fill="#CED74D" d="M39.167,8.181c-0.055-0.428,3.68-4.131,4.157-3.887
						c0.178,0.089,0.45-0.017,0.569,0.147c0.435,0.614,2.927,6.96,2.927,6.96c-0.085,0.044-0.534,0.02-0.469,0.349
						c0.058,0.289-6.892-2.784-6.9-2.934C39.438,8.623,39.202,8.445,39.167,8.181z"/>
					<path fill-rule="evenodd" clip-rule="evenodd" fill="#CED74D" d="M55.46,16.628c0.055,0.427-3.68,4.131-4.158,3.888
						c-0.178-0.09-0.449,0.016-0.565-0.146c-0.437-0.616-2.929-6.959-2.929-6.959c0.084-0.044,0.534-0.022,0.468-0.352
						c-0.058-0.286,6.892,2.786,6.901,2.934C55.187,16.188,55.427,16.364,55.46,16.628z"/>
					<path fill-rule="evenodd" clip-rule="evenodd" fill="#CED74D" d="M51.478,4.244c0.432-0.053,4.18,3.636,3.934,4.107
						c-0.092,0.176,0.016,0.447-0.148,0.562c-0.623,0.432-7.043,2.894-7.043,2.894c-0.043-0.084-0.021-0.529-0.355-0.462
						c-0.289,0.057,2.82-6.81,2.97-6.817C51.03,4.515,51.21,4.278,51.478,4.244z"/>
					<path fill-rule="evenodd" clip-rule="evenodd" fill="#CED74D" d="M42.977,20.357c-0.433,0.053-4.181-3.635-3.935-4.107
						c0.092-0.177-0.016-0.445,0.148-0.563c0.623-0.43,7.044-2.891,7.044-2.891c0.044,0.082,0.021,0.527,0.355,0.462
						c0.29-0.059-2.819,6.809-2.97,6.817C43.423,20.086,43.245,20.322,42.977,20.357z"/>
				</g>
			</g>
		</g>
	</g>
	<g>
		<path fill="#C10259" d="M25.278,9.528c-2.621-2.622-6.875-2.624-9.497,0l1.425,1.424c1.835-1.836,4.812-1.835,6.648,0
			L25.278,9.528z"/>
		
			<rect x="33.867" y="5.97" transform="matrix(0.7066 -0.7076 0.7076 0.7066 -4.3079 30.7047)" fill="#C10259" width="2.015" height="29.155"/>
		
			<rect x="5.232" y="13.898" transform="matrix(-0.7071 0.7071 -0.7071 -0.7071 30.7327 17.0806)" fill="#C10259" width="13.194" height="2.014"/>
	</g>
	<path fill="#C7D7D7" d="M47.413,12.35H35.104h-12.31c5.028,11.896-12.182,34.354,12.31,34.354
		C59.595,46.703,42.385,24.245,47.413,12.35z M35.104,44.933c-20.545,0-6.107-20.987-10.326-31.657h10.326H45.43
		C41.212,23.945,55.648,44.933,35.104,44.933z"/>
	<path opacity="0.7" fill="#FFEDC5" d="M45.43,13.275H35.104H24.778c4.219,10.67-10.219,31.657,10.326,31.657
		C55.648,44.933,41.212,23.945,45.43,13.275z"/>
	<g opacity="0.8">
		<path fill="#F65500" d="M23.882,32.4c-0.673,6.906,0.586,12.532,11.223,12.532c8.855,0,11.21-3.9,11.361-9.19
			C39.302,37.021,32.965,30.916,23.882,32.4z"/>
		<path fill="#FCB334" d="M46.466,35.742c0.115-3.974-1.01-8.729-1.563-13.212c-6.093,0.237-11.764-4.207-19.309-3.713
			c-0.082,4.305-1.285,9.201-1.713,13.583C32.965,30.916,39.302,37.021,46.466,35.742z"/>
	</g>
</g>
</svg>
