<?xml version="1.0" encoding="utf-8"?>
<!-- Generator: Adobe Illustrator 15.0.0, SVG Export Plug-In . SVG Version: 6.00 Build 0)  -->
<!DOCTYPE svg PUBLIC "-//W3C//DTD SVG 1.1//EN" "http://www.w3.org/Graphics/SVG/1.1/DTD/svg11.dtd">
<svg version="1.1" id="Layer_1" xmlns="http://www.w3.org/2000/svg" xmlns:xlink="http://www.w3.org/1999/xlink" x="0px" y="0px"
	 width="64px" height="64px" viewBox="0 0 64 64" enable-background="new 0 0 64 64" xml:space="preserve">
<g>
	<path fill="#C7D7D7" d="M45.533,61.146c-0.051-0.022-7.807-2.227-11.451-5.404c-0.77-3.789-0.834-13.473-0.836-13.547
		c-0.003-0.24-0.156-0.434-0.348-0.434h-1.764c-0.191,0-0.347,0.193-0.349,0.434c0,0.074-0.065,9.753-0.856,13.549
		c-3.679,3.239-11.407,5.38-11.461,5.402c-0.162,0.065-0.264,0.271-0.238,0.483c0.025,0.212,0.173,0.37,0.344,0.37h26.852
		c0.171,0,0.318-0.158,0.344-0.368C45.797,61.42,45.698,61.214,45.533,61.146z"/>
	<path fill="#C7D7D7" d="M59,18.579c0,0-21.882,24.495-27,24.495S5,18.579,5,18.579H59z"/>
	<path fill="#F3FFD2" d="M53.861,20.91c0,0-17.717,19.833-21.861,19.833c-4.143,0-21.862-19.833-21.862-19.833H53.861z"/>
	<g>
		<path fill="#F29A2E" d="M46.232,3.439c0.012-0.029,0.023-0.061,0.033-0.091c0.2-0.593-0.018-1.183-0.486-1.318
			c-0.468-0.14-1.008,0.229-1.207,0.821L31.311,39.527l0.818,0.29L46.232,3.439z"/>
		<g>
			<path fill="#8CC63E" d="M46.048,19.038c-0.355,2.523-3.457,4.197-6.929,3.734c-3.471-0.461-5.998-2.881-5.643-5.404
				c0.355-2.525,3.457-4.196,6.93-3.735C43.877,14.094,46.402,16.512,46.048,19.038z"/>
			<path fill="#CE114B" d="M38.398,18.021c-0.223,1.586-1.391,2.738-2.609,2.576c-1.217-0.161-2.023-1.577-1.802-3.162
				c0.224-1.586,1.392-2.738,2.61-2.576C37.814,15.02,38.623,16.436,38.398,18.021z"/>
		</g>
		<g>
			<path fill="#8CC63E" d="M29.854,27.026c-1.387,2.16-0.104,5.373,2.869,7.175c2.972,1.802,6.507,1.511,7.895-0.649
				c1.389-2.161,0.104-5.374-2.869-7.175C34.777,24.574,31.242,24.864,29.854,27.026z"/>
			<path fill="#CE114B" d="M36.402,30.996c-0.871,1.357-0.732,2.97,0.312,3.601c1.042,0.634,2.594,0.048,3.466-1.312
				c0.871-1.356,0.732-2.968-0.311-3.601C38.826,29.053,37.273,29.639,36.402,30.996z"/>
		</g>
	</g>
	<rect x="31.281" y="18.579" fill="#C7D7D7" width="16.865" height="2.331"/>
	<path opacity="0.5" fill="#EEFFD4" d="M53.862,20.91c0,0-17.717,19.833-21.862,19.833c-4.143,0-21.861-19.833-21.861-19.833H53.862
		z"/>
</g>
</svg>
