<?xml version="1.0" encoding="utf-8"?>
<!-- Generator: Adobe Illustrator 15.0.0, SVG Export Plug-In . SVG Version: 6.00 Build 0)  -->
<!DOCTYPE svg PUBLIC "-//W3C//DTD SVG 1.1//EN" "http://www.w3.org/Graphics/SVG/1.1/DTD/svg11.dtd">
<svg version="1.1" id="Layer_1" xmlns="http://www.w3.org/2000/svg" xmlns:xlink="http://www.w3.org/1999/xlink" x="0px" y="0px"
	 width="64px" height="64px" viewBox="0 0 64 64" enable-background="new 0 0 64 64" xml:space="preserve">
<g>
	<g>
		<g>
			<g>
				<path fill="#C7D7D7" d="M53.945,50.522l-0.619-3.513c3.201-0.563,5.264-3.148,5.443-5.73c0.187-2.643,0.08-6.603-0.772-9.082
					c-0.874-2.536-7.204,0.445-7.204,0.445l-0.62-3.514c0,0,8.987-3.755,10.351,0.142c1.011,2.892,1.654,8.537,1.434,11.442
					C61.641,44.862,58.682,49.688,53.945,50.522z"/>
			</g>
			<path fill="#FFFFFF" d="M50.754,32.422c0,0,2.652-1.984,6.883-2.192c-4.321-1.158-7.126,0.814-7.126,0.814L50.754,32.422z"/>
			<path fill="#FFFFFF" d="M53.453,47.731c0,0,2.783-0.39,5.205-2.967c-1.244,3.817-4.958,4.368-4.958,4.368L53.453,47.731z"/>
		</g>
		<g>
			<path fill="#C7D7D7" d="M52.688,20.427l-24.506,4.32l6.292,35.679c0.7,3.97,25.205-0.352,24.506-4.32L52.688,20.427z"/>
			
				<rect x="31.072" y="24.723" transform="matrix(0.9848 -0.1736 0.1736 0.9848 -4.5964 7.7096)" fill="#FFFFFF" width="21.382" height="10.802"/>
			<path fill="#FF9617" d="M53.229,33.585l-21.056,3.714l3.54,20.065c0.567,3.223,21.623-0.491,21.056-3.712L53.229,33.585z"/>
			<path fill="#D8D2B8" d="M50.938,20.588c0.326,1.853-1.666,3.756-4.457,4.247c-2.789,0.493-5.313-0.614-5.639-2.468
				c-0.328-1.859,1.665-3.761,4.454-4.254C48.086,17.622,50.609,18.728,50.938,20.588z"/>
			<path fill="#D8D2B8" d="M54.846,21.406c0.274,1.558-0.985,3.081-2.814,3.405c-1.826,0.322-3.529-0.681-3.805-2.237
				c-0.275-1.563,0.982-3.087,2.81-3.41C52.865,18.842,54.57,19.843,54.846,21.406z"/>
			<path fill="#D8D2B8" d="M32.437,34.833c0.27,1.525-0.889,3.008-2.589,3.307c-1.704,0.3-3.3-0.696-3.569-2.22
				c-0.27-1.532,0.89-3.014,2.594-3.313C30.572,32.303,32.167,33.301,32.437,34.833z"/>
			<path fill="#D8D2B8" d="M34.635,38.29c0.269,1.525-0.89,3.009-2.59,3.309c-1.703,0.3-3.301-0.696-3.569-2.221
				c-0.271-1.532,0.89-3.014,2.593-3.313C32.769,35.763,34.364,36.76,34.635,38.29z"/>
			<path fill="#D8D2B8" d="M38.464,24.558c0.53,3.009-1.757,5.929-5.11,6.521c-3.352,0.59-6.502-1.372-7.034-4.381
				c-0.532-3.017,1.76-5.938,5.11-6.528C34.784,19.578,37.932,21.539,38.464,24.558z"/>
			<path fill="#D8D2B8" d="M33.576,29.588c0.463,2.621-1.435,5.146-4.245,5.642c-2.806,0.495-5.454-1.229-5.917-3.853
				c-0.463-2.627,1.437-5.152,4.242-5.647C30.466,25.233,33.112,26.958,33.576,29.588z"/>
			<path fill="#D8D2B8" d="M44.252,20.83c0.388,2.203-1.357,4.356-3.899,4.805c-2.54,0.448-4.919-0.979-5.307-3.183
				c-0.391-2.214,1.356-4.366,3.897-4.813C41.484,17.188,43.861,18.616,44.252,20.83z"/>
			<path fill="#FFFFFF" d="M50.791,21.146c0.321,1.817-1.541,3.666-4.154,4.127c-2.616,0.462-4.997-0.638-5.318-2.457
				c-0.321-1.822,1.541-3.67,4.157-4.131C48.089,18.225,50.471,19.323,50.791,21.146z"/>
			<path fill="#FFFFFF" d="M54.193,21.644c0.242,1.375-1.006,2.745-2.789,3.06c-1.785,0.315-3.428-0.545-3.67-1.92
				c-0.242-1.379,1.006-2.749,2.791-3.064C52.309,19.403,53.949,20.266,54.193,21.644z"/>
			<path fill="#FFFFFF" d="M33.26,34.54c0.256,1.447-0.885,2.858-2.543,3.151c-1.66,0.292-3.213-0.646-3.467-2.092
				c-0.256-1.453,0.881-2.863,2.541-3.155C31.449,32.15,33.004,33.088,33.26,34.54z"/>
			<path fill="#FFFFFF" d="M46.262,24.26c0.255,1.448-0.884,2.86-2.545,3.152c-1.656,0.294-3.212-0.646-3.467-2.092
				c-0.256-1.452,0.885-2.863,2.541-3.155C44.452,21.87,46.006,22.809,46.262,24.26z"/>
			<path fill="#FFFFFF" d="M39.01,25.016c0.503,2.853-1.739,5.635-5.012,6.212c-3.27,0.576-6.333-1.271-6.835-4.122
				c-0.505-2.864,1.743-5.645,5.012-6.221C35.446,20.306,38.504,22.152,39.01,25.016z"/>
			<path fill="#FFFFFF" d="M34.193,29.635c0.421,2.389-1.459,4.719-4.198,5.2c-2.736,0.483-5.301-1.063-5.721-3.451
				c-0.423-2.396,1.457-4.723,4.194-5.204C31.207,25.695,33.77,27.238,34.193,29.635z"/>
			<path fill="#FFFFFF" d="M44.37,21.502c0.368,2.09-1.274,4.129-3.673,4.553c-2.396,0.422-4.643-0.932-5.01-3.021
				c-0.371-2.098,1.276-4.136,3.673-4.559C41.76,18.051,44,19.403,44.37,21.502z"/>
			<path fill="#FFFFFF" d="M35.225,38.186c0.256,1.449-0.882,2.859-2.543,3.151c-1.658,0.294-3.211-0.644-3.466-2.092
				c-0.256-1.452,0.883-2.862,2.54-3.153C33.418,35.798,34.969,36.733,35.225,38.186z"/>
			<path fill="#FFFFFF" d="M38.557,34.895c0.245,1.395-0.852,2.754-2.448,3.035c-1.599,0.281-3.093-0.622-3.339-2.016
				c-0.246-1.396,0.85-2.756,2.448-3.039S38.31,33.497,38.557,34.895z"/>
			<path fill="#D8D2B8" d="M39.824,32.27c-0.304-0.279-0.662-0.464-1.039-0.556c-0.173-0.036-0.411-0.075-0.574-0.063
				c-0.174,0.003-0.369,0.035-0.55,0.067l-0.26,0.048l-0.153-0.262c-0.191-0.327-0.455-0.604-0.789-0.791
				c-0.16-0.093-0.36-0.165-0.519-0.216c-0.128-0.038-0.233-0.06-0.309-0.068c-0.086-0.012-0.192-0.023-0.288-0.024
				c-0.793-0.033-1.625,0.314-2.13,0.922l-0.287,0.345l-0.313-0.205c-0.071-0.047-0.153-0.095-0.229-0.124
				c-0.135-0.047-0.164-0.059-0.276-0.082c-0.19-0.041-0.4-0.053-0.611-0.016c-0.425,0.06-0.851,0.284-1.165,0.651
				c0.086-0.451,0.486-0.875,1.014-1.099c0.268-0.105,0.564-0.164,0.865-0.166c0.137-0.005,0.346,0.032,0.443,0.052
				c0.156,0.032,0.295,0.085,0.433,0.144l-0.599,0.141c0.535-0.941,1.762-1.561,2.959-1.496c0.148,0.008,0.289,0.025,0.447,0.055
				c0.167,0.031,0.299,0.064,0.402,0.1c0.301,0.098,0.545,0.214,0.771,0.379c0.461,0.315,0.777,0.764,0.922,1.243l-0.414-0.213
				c0.257-0.014,0.503-0.005,0.76,0.05c0.132,0.03,0.259,0.061,0.348,0.1c0.092,0.031,0.233,0.09,0.32,0.145
				C39.405,31.553,39.707,31.894,39.824,32.27z"/>
			<path fill="#D8D2B8" d="M40.39,20.466c-0.453,0.01-0.869,0.113-1.224,0.289c-0.1,0.052-0.15,0.085-0.249,0.147
				c-0.104,0.057-0.167,0.117-0.228,0.17c-0.123,0.11-0.242,0.255-0.346,0.391l-0.15,0.193l-0.324-0.072
				c-0.41-0.088-0.836-0.109-1.234-0.022c-0.191,0.035-0.405,0.116-0.557,0.175c-0.258,0.117-0.346,0.184-0.521,0.312
				c-0.614,0.464-0.932,1.213-0.787,1.928l0.084,0.413l-0.402,0.064c-0.095,0.015-0.191,0.033-0.27,0.06
				c-0.138,0.05-0.172,0.065-0.27,0.119c-0.175,0.088-0.334,0.213-0.458,0.368c-0.261,0.3-0.378,0.716-0.295,1.152
				c-0.315-0.342-0.382-0.874-0.18-1.354c0.111-0.237,0.281-0.462,0.501-0.648c0.096-0.09,0.273-0.192,0.36-0.242
				c0.146-0.077,0.286-0.128,0.431-0.175l-0.317,0.477c-0.413-0.951-0.019-2.157,0.929-2.857c0.211-0.162,0.548-0.344,0.748-0.42
				c0.311-0.122,0.574-0.199,0.879-0.229c0.59-0.075,1.184,0.02,1.684,0.235l-0.475,0.126c0.178-0.175,0.364-0.326,0.604-0.447
				c0.121-0.068,0.235-0.124,0.336-0.153c0.094-0.038,0.246-0.087,0.355-0.105C39.493,20.259,39.992,20.293,40.39,20.466z"/>
			<g>
				<g>
					<g>
						<g>
							
								<ellipse transform="matrix(-0.1736 -0.9848 0.9848 -0.1736 15.3864 93.9758)" fill="#FCB334" cx="47.123" cy="40.532" rx="3.817" ry="3.985"/>
						</g>
						<g>
							
								<ellipse transform="matrix(-0.1736 -0.9848 0.9848 -0.1736 2.9055 97.9439)" fill="#FCB334" cx="42.546" cy="47.753" rx="2.863" ry="2.99"/>
						</g>
						<g>
							
								<ellipse transform="matrix(-0.1735 -0.9848 0.9848 -0.1735 8.7008 105.9456)" fill="#FCB334" cx="48.808" cy="49.322" rx="1.908" ry="1.992"/>
						</g>
						<g>
							
								<ellipse transform="matrix(-0.1735 -0.9848 0.9848 -0.1735 -0.2675 107.9005)" fill="#FCB334" cx="45.142" cy="54.063" rx="1.337" ry="1.397"/>
						</g>
					</g>
				</g>
			</g>
		</g>
	</g>
	<g>
		<g>
			<g>
				<path fill="#C7D7D7" d="M10.78,43.938l0.676-3.83c-3.49-0.614-5.737-3.432-5.935-6.247c-0.203-2.881-0.088-7.198,0.843-9.901
					c0.952-2.765,7.853,0.487,7.853,0.487l0.676-3.832c0,0-9.797-4.091-11.283,0.154c-1.102,3.154-1.803,9.308-1.563,12.474
					C2.391,37.767,5.616,43.026,10.78,43.938z"/>
			</g>
			<path fill="#FFFFFF" d="M14.259,24.204c0,0-2.892-2.163-7.504-2.39c4.711-1.264,7.77,0.889,7.77,0.889L14.259,24.204z"/>
			<path fill="#FFFFFF" d="M11.317,40.893c0,0-3.034-0.425-5.674-3.234c1.355,4.165,5.404,4.764,5.404,4.764L11.317,40.893z"/>
		</g>
		<g>
			<path fill="#C7D7D7" d="M12.152,11.13l26.713,4.71l-6.858,38.894c-0.764,4.325-27.477-0.385-26.713-4.712L12.152,11.13z"/>
			
				<rect x="12.406" y="15.813" transform="matrix(-0.9848 -0.1736 0.1736 -0.9848 43.9866 47.2463)" fill="#FFFFFF" width="23.308" height="11.773"/>
			<path fill="#FF9617" d="M11.561,25.473l22.954,4.047l-3.858,21.877c-0.619,3.51-23.572-0.536-22.953-4.048L11.561,25.473z"/>
			<path fill="#D8D2B8" d="M14.059,11.304c-0.356,2.021,1.816,4.095,4.858,4.631c3.039,0.536,5.791-0.669,6.147-2.69
				c0.357-2.025-1.815-4.1-4.856-4.635C17.167,8.073,14.417,9.277,14.059,11.304z"/>
			<path fill="#D8D2B8" d="M9.798,12.197c-0.299,1.699,1.074,3.359,3.068,3.71c1.99,0.352,3.848-0.74,4.147-2.438
				c0.3-1.703-1.072-3.364-3.063-3.715C11.958,9.401,10.099,10.494,9.798,12.197z"/>
			<path fill="#D8D2B8" d="M34.227,26.835c-0.294,1.66,0.969,3.276,2.822,3.604c1.857,0.327,3.598-0.759,3.891-2.421
				c0.295-1.67-0.97-3.285-2.827-3.612C36.26,24.076,34.52,25.164,34.227,26.835z"/>
			<path fill="#D8D2B8" d="M31.832,30.604c-0.293,1.662,0.969,3.278,2.823,3.605c1.857,0.328,3.598-0.761,3.891-2.421
				c0.295-1.67-0.97-3.286-2.826-3.614C33.865,27.847,32.126,28.933,31.832,30.604z"/>
			<path fill="#D8D2B8" d="M27.657,15.633c-0.579,3.278,1.914,6.463,5.571,7.106c3.653,0.646,7.089-1.494,7.667-4.772
				c0.58-3.292-1.918-6.474-5.57-7.116C31.667,10.203,28.237,12.341,27.657,15.633z"/>
			<path fill="#D8D2B8" d="M32.985,21.114c-0.504,2.859,1.564,5.61,4.626,6.151c3.06,0.54,5.946-1.341,6.45-4.198
				c0.505-2.866-1.565-5.617-4.624-6.156C36.375,16.368,33.49,18.248,32.985,21.114z"/>
			<path fill="#D8D2B8" d="M21.347,11.568c-0.423,2.401,1.479,4.751,4.25,5.239c2.77,0.487,5.361-1.067,5.785-3.47
				c0.426-2.414-1.479-4.76-4.248-5.247C24.364,7.6,21.773,9.154,21.347,11.568z"/>
			<path fill="#FFFFFF" d="M14.218,11.914c-0.35,1.982,1.68,3.995,4.529,4.498c2.852,0.503,5.447-0.695,5.797-2.678
				c0.351-1.988-1.68-3.999-4.531-4.502C17.164,8.729,14.568,9.926,14.218,11.914z"/>
			<path fill="#FFFFFF" d="M10.51,12.456c-0.265,1.5,1.097,2.993,3.04,3.336c1.946,0.344,3.736-0.597,4-2.094
				c0.265-1.502-1.096-2.997-3.042-3.34C12.566,10.015,10.775,10.954,10.51,12.456z"/>
			<path fill="#FFFFFF" d="M33.33,26.514c-0.278,1.576,0.965,3.117,2.771,3.435c1.81,0.319,3.502-0.702,3.779-2.278
				c0.279-1.584-0.961-3.122-2.771-3.441C35.303,23.909,33.609,24.93,33.33,26.514z"/>
			<path fill="#FFFFFF" d="M19.157,15.309c-0.278,1.576,0.963,3.117,2.773,3.437c1.807,0.318,3.501-0.704,3.779-2.281
				c0.279-1.583-0.964-3.121-2.771-3.44C21.128,12.703,19.435,13.726,19.157,15.309z"/>
			<path fill="#FFFFFF" d="M27.062,16.131c-0.549,3.11,1.896,6.143,5.463,6.772c3.564,0.627,6.903-1.386,7.451-4.495
				c0.551-3.12-1.899-6.151-5.463-6.779C30.946,10.995,27.613,13.01,27.062,16.131z"/>
			<path fill="#FFFFFF" d="M32.312,21.166c-0.459,2.604,1.591,5.144,4.577,5.67c2.982,0.527,5.776-1.159,6.235-3.762
				c0.461-2.613-1.589-5.148-4.572-5.675C35.567,16.872,32.773,18.556,32.312,21.166z"/>
			<path fill="#FFFFFF" d="M21.218,12.301c-0.401,2.278,1.389,4.502,4.004,4.963c2.612,0.459,5.061-1.016,5.461-3.294
				c0.404-2.287-1.392-4.509-4.004-4.97C24.064,8.537,21.622,10.015,21.218,12.301z"/>
			<path fill="#FFFFFF" d="M31.187,30.488c-0.278,1.578,0.962,3.117,2.774,3.437c1.807,0.317,3.499-0.702,3.777-2.281
				c0.279-1.583-0.962-3.119-2.77-3.439C33.158,27.885,31.466,28.906,31.187,30.488z"/>
			<path fill="#FFFFFF" d="M27.556,26.899c-0.269,1.52,0.928,3.002,2.668,3.309c1.742,0.308,3.372-0.677,3.639-2.195
				c0.269-1.522-0.925-3.006-2.668-3.313C29.455,24.391,27.824,25.377,27.556,26.899z"/>
			<path fill="#D8D2B8" d="M26.173,24.04c0.331-0.308,0.722-0.506,1.133-0.607c0.189-0.04,0.448-0.081,0.627-0.068
				c0.188,0.002,0.402,0.037,0.598,0.073l0.284,0.053l0.167-0.285c0.208-0.357,0.496-0.661,0.86-0.863
				c0.174-0.102,0.393-0.181,0.565-0.236c0.139-0.041,0.254-0.063,0.336-0.074c0.094-0.011,0.21-0.023,0.313-0.026
				c0.864-0.037,1.771,0.343,2.323,1.007l0.312,0.373l0.342-0.222c0.078-0.05,0.167-0.104,0.25-0.137
				c0.146-0.051,0.18-0.062,0.302-0.089c0.208-0.046,0.437-0.057,0.667-0.017c0.462,0.066,0.927,0.309,1.27,0.711
				c-0.094-0.491-0.529-0.954-1.105-1.198c-0.291-0.116-0.615-0.18-0.943-0.18c-0.148-0.007-0.375,0.033-0.482,0.056
				c-0.171,0.035-0.321,0.092-0.473,0.155l0.654,0.153c-0.583-1.025-1.922-1.701-3.227-1.631c-0.162,0.01-0.314,0.029-0.486,0.059
				c-0.183,0.035-0.327,0.073-0.44,0.11c-0.327,0.106-0.593,0.231-0.84,0.413c-0.503,0.343-0.848,0.832-1.006,1.355l0.452-0.232
				c-0.281-0.015-0.549-0.007-0.828,0.056c-0.144,0.029-0.282,0.063-0.38,0.107c-0.101,0.033-0.255,0.097-0.348,0.156
				C26.63,23.258,26.302,23.629,26.173,24.04z"/>
			<path fill="#D8D2B8" d="M25.557,11.171c0.494,0.011,0.947,0.123,1.334,0.314c0.108,0.059,0.163,0.094,0.271,0.163
				c0.113,0.061,0.184,0.129,0.25,0.185c0.134,0.121,0.263,0.277,0.376,0.424l0.163,0.212l0.355-0.077
				c0.446-0.098,0.909-0.12,1.344-0.024c0.209,0.039,0.442,0.126,0.607,0.19c0.28,0.126,0.377,0.199,0.567,0.339
				c0.671,0.504,1.017,1.322,0.859,2.102l-0.093,0.451l0.439,0.067c0.104,0.018,0.209,0.036,0.293,0.067
				c0.15,0.055,0.189,0.072,0.295,0.128c0.19,0.098,0.363,0.233,0.5,0.401c0.284,0.328,0.412,0.783,0.321,1.257
				c0.343-0.371,0.416-0.953,0.196-1.477c-0.12-0.259-0.306-0.505-0.546-0.705c-0.106-0.1-0.299-0.212-0.393-0.265
				c-0.159-0.083-0.313-0.139-0.471-0.191l0.348,0.521c0.45-1.037,0.02-2.354-1.014-3.116c-0.23-0.175-0.598-0.375-0.815-0.457
				c-0.339-0.134-0.626-0.217-0.958-0.248c-0.644-0.084-1.289,0.02-1.836,0.257l0.518,0.134c-0.194-0.188-0.396-0.354-0.657-0.486
				c-0.132-0.073-0.257-0.135-0.366-0.166c-0.104-0.044-0.27-0.096-0.387-0.115C26.535,10.944,25.99,10.984,25.557,11.171z"/>
			<g>
				<g>
					<g>
						<g>
							<g>
								
									<ellipse transform="matrix(0.1737 -0.9848 0.9848 0.1737 -17.4913 45.2478)" fill="#FCB334" cx="18.217" cy="33.047" rx="4.161" ry="4.344"/>
							</g>
							<g>
								
									<ellipse transform="matrix(0.1737 -0.9848 0.9848 0.1737 -21.1191 56.6661)" fill="#FCB334" cx="23.207" cy="40.917" rx="3.121" ry="3.259"/>
							</g>
							<g>
								
									<ellipse transform="matrix(0.1738 -0.9848 0.9848 0.1738 -28.4453 51.3522)" fill="#FCB334" cx="16.38" cy="42.628" rx="2.079" ry="2.172"/>
							</g>
							<g>
								
									<ellipse transform="matrix(0.1733 -0.9849 0.9849 0.1733 -30.2262 59.5803)" fill="#FCB334" cx="20.377" cy="47.795" rx="1.457" ry="1.521"/>
							</g>
						</g>
					</g>
				</g>
			</g>
		</g>
	</g>
	<g>
		<polygon fill="#42ADE2" points="44.476,14.777 54.073,6.486 49.5,3.237 		"/>
		<polygon fill="#42ADE2" points="48.893,16.485 58,18.517 58,13.688 		"/>
		<polygon fill="#42ADE2" points="41.329,11.723 43.587,2 38.676,2 		"/>
	</g>
</g>
</svg>
