<?xml version="1.0" encoding="utf-8"?>
<!-- Generator: Adobe Illustrator 15.0.0, SVG Export Plug-In . SVG Version: 6.00 Build 0)  -->
<!DOCTYPE svg PUBLIC "-//W3C//DTD SVG 1.1//EN" "http://www.w3.org/Graphics/SVG/1.1/DTD/svg11.dtd">
<svg version="1.1" id="Layer_1" xmlns="http://www.w3.org/2000/svg" xmlns:xlink="http://www.w3.org/1999/xlink" x="0px" y="0px"
	 width="64px" height="64px" viewBox="0 0 64 64" enable-background="new 0 0 64 64" xml:space="preserve">
<g>
	<polygon fill="#D3976E" points="36.447,62 27.553,62 29.47,41.218 34.53,41.218 	"/>
	<g>
		<path fill="#699635" d="M62,48.718c-19.066,0-30-31.754-30-31.754S21.066,48.718,2,48.718c0,0,9.251,6.45,18.738-1.655
			c0,0-2.383,5.625-5.607,12.074c0,0,7.322,0.86,12.318-11.181c0.97,3.458,2.414,7.419,4.551,11.194
			c2.137-3.775,3.581-7.736,4.551-11.194c4.996,12.041,12.318,11.181,12.318,11.181c-3.225-6.449-5.607-12.074-5.607-12.074
			C52.749,55.168,62,48.718,62,48.718z"/>
		<path fill="#75A843" d="M52,33.402c-12.711,0-20-21.169-20-21.169s-7.29,21.169-20,21.169c0,0,6.168,4.301,12.493-1.102
			c0,0-1.59,3.749-3.739,8.047c0,0,4.881,0.574,8.213-7.453c0.645,2.304,1.609,4.945,3.033,7.462
			c1.424-2.518,2.389-5.158,3.033-7.462c3.331,8.027,8.213,7.453,8.213,7.453c-2.149-4.299-3.739-8.047-3.739-8.047
			C45.832,37.703,52,33.402,52,33.402z"/>
		<path fill="#83BF4F" d="M45.334,23.242C36.859,23.242,32,9.128,32,9.128s-4.859,14.114-13.334,14.114c0,0,4.113,2.866,8.329-0.735
			c0,0-1.06,2.5-2.493,5.366c0,0,3.255,0.383,5.475-4.969C30.408,24.44,31.051,26.2,32,27.879c0.949-1.68,1.592-3.439,2.022-4.976
			c2.221,5.352,5.476,4.969,5.476,4.969c-1.434-2.866-2.493-5.366-2.493-5.366C41.221,26.108,45.334,23.242,45.334,23.242z"/>
	</g>
	<polygon fill="#FFCE31" points="32,2 33.965,5.981 38.357,6.62 35.178,9.718 35.929,14.093 32,12.028 28.071,14.093 28.822,9.718 
		25.643,6.62 30.035,5.981 	"/>
	<g>
		<circle fill="#ED4C5C" cx="32" cy="21.358" r="3.283"/>
	</g>
	<g>
		<circle fill="#F2B200" cx="32" cy="40.57" r="3.283"/>
	</g>
	<g>
		<circle fill="#9450E0" cx="38.696" cy="30.881" r="3.283"/>
	</g>
	<g>
		<circle fill="#6ACED8" cx="25.888" cy="30.881" r="3.283"/>
	</g>
	<g>
		<circle fill="#83BF4F" cx="20.201" cy="47.049" r="3.283"/>
	</g>
	<g>
		<circle fill="#FF717F" cx="41.18" cy="47.214" r="3.282"/>
	</g>
</g>
</svg>
