<?xml version="1.0" encoding="utf-8"?>
<!-- Generator: Adobe Illustrator 15.0.0, SVG Export Plug-In . SVG Version: 6.00 Build 0)  -->
<!DOCTYPE svg PUBLIC "-//W3C//DTD SVG 1.1//EN" "http://www.w3.org/Graphics/SVG/1.1/DTD/svg11.dtd">
<svg version="1.1" id="Layer_1" xmlns="http://www.w3.org/2000/svg" xmlns:xlink="http://www.w3.org/1999/xlink" x="0px" y="0px"
	 width="64px" height="64px" viewBox="0 0 64 64" enable-background="new 0 0 64 64" xml:space="preserve">
<g>
	<path fill="#ED4C5C" d="M52,22.547c0,11.347-8.844,24.368-19.753,24.368c-10.91,0-19.752-13.021-19.752-24.368
		C12.495,11.199,21.337,2,32.247,2C43.156,2,52,11.199,52,22.547z"/>
	<g>
		<path fill="#94989B" d="M31.546,49.137c-0.006-0.035-0.015-0.09-0.021-0.133C31.528,49.033,31.536,49.076,31.546,49.137z"/>
		<path fill="#94989B" d="M31.551,49.168c-0.002-0.014-0.003-0.02-0.005-0.031C31.549,49.154,31.551,49.168,31.551,49.168z"/>
		<path fill="#B2C1C0" d="M33.026,49.168h-1.476c0,1.82-0.361,3.934-1.862,5.176c-2.138,1.768-4.89,0.718-7.378,0.643
			c-3.015-0.092-5.559,1.193-7.74,3.192c-0.758,0.693-1.602,1.708-2.291,2.476c-0.785,0.875,0.252,1.924,1.058,0.965
			c1.548-1.844,2.574-3.129,4.635-4.295c2.583-1.461,4.963-0.732,7.763-0.58c3.207,0.172,6.103-1.355,7.016-4.65
			C32.949,51.372,33.026,50.06,33.026,49.168z"/>
		<path fill="#94989B" d="M31.524,49.004C31.511,48.928,31.515,48.951,31.524,49.004L31.524,49.004z"/>
	</g>
	<g>
		<path fill="#B2C1C0" d="M30.801,48.043c0.965,0,1.932,0,2.894,0c0.933,0,0.933-1.273,0-1.273c-0.962,0-1.929,0-2.894,0
			C29.868,46.77,29.868,48.043,30.801,48.043L30.801,48.043z"/>
	</g>
	<g>
		<path fill="#ED4C5C" d="M30.059,49.955c1.448,0,2.896,0,4.34,0c1.4,0,1.4-1.912,0-1.912c-1.444,0-2.892,0-4.34,0
			C28.657,48.043,28.657,49.955,30.059,49.955L30.059,49.955z"/>
	</g>
</g>
</svg>
