<?xml version="1.0" encoding="utf-8"?>
<!-- Generator: Adobe Illustrator 15.0.0, SVG Export Plug-In . SVG Version: 6.00 Build 0)  -->
<!DOCTYPE svg PUBLIC "-//W3C//DTD SVG 1.1//EN" "http://www.w3.org/Graphics/SVG/1.1/DTD/svg11.dtd">
<svg version="1.1" id="Layer_1" xmlns="http://www.w3.org/2000/svg" xmlns:xlink="http://www.w3.org/1999/xlink" x="0px" y="0px"
	 width="64px" height="64px" viewBox="0 0 64 64" enable-background="new 0 0 64 64" xml:space="preserve">
<g>
	<g>
		<path fill="#C94747" d="M15.347,13.096c0,0,0.717,20.206-13.347,32.904h13v16c0,0,13.553-19.215,13.553-48.915L15.347,13.096z"/>
		<path fill="#C94747" d="M48.654,13.096c0,0-0.719,20.206,13.346,32.904H49v16c0,0-13.553-19.215-13.553-48.915L48.654,13.096z"/>
	</g>
	<g>
		<g>
			<path fill="#FF5760" d="M30.662,13.97c0,5.081-5.659,10.023-12.577,10.981l-5.537,0.768c-6.917,0.959-11.576-1.293-10.353-5.003
				c1.224-3.709,1.224-9.782,0-13.492c-1.223-3.71,3.436-5.962,10.353-5.003l5.537,0.768C25.002,3.947,30.662,8.889,30.662,13.97z"
				/>
			<path fill="#C94747" d="M3.887,21.265c-0.543,0.52,0.082,1.072,0.271,1.317c0.568,0.742,2.268,1.536,5.333,1.536
				c0.88,0,1.817-0.068,2.785-0.202l5.537-0.768c3.875-0.538,7.358-2.517,9.306-4.983C27.118,18.165,10.316,15.116,3.887,21.265z"/>
		</g>
		<g>
			<path fill="#FF5760" d="M33.34,13.97c0,5.081,5.658,10.023,12.576,10.981l5.537,0.768c6.916,0.959,11.574-1.293,10.352-5.003
				c-1.223-3.709-1.223-9.782,0-13.492c1.223-3.71-3.436-5.962-10.352-5.003l-5.537,0.768C38.998,3.947,33.34,8.889,33.34,13.97z"/>
			<path fill="#C94747" d="M60.113,21.265c0.545,0.52-0.082,1.072-0.27,1.317c-0.568,0.742-2.268,1.536-5.332,1.536
				c-0.881,0-1.818-0.068-2.785-0.202l-5.537-0.768c-3.875-0.538-7.357-2.517-9.307-4.983
				C36.883,18.165,53.686,15.116,60.113,21.265z"/>
		</g>
	</g>
	<g>
		<g>
			<path fill="#C94747" d="M31.217,12.534c0,0-1.658,1.446-5.754-2.021c-4.662-3.947-11.547,1.292-2.42,3.61
				C27.918,15.36,31.217,12.534,31.217,12.534z"/>
		</g>
		<g>
			<path fill="#C94747" d="M32.784,12.534c0,0,1.658,1.446,5.753-2.021c4.662-3.947,11.547,1.292,2.42,3.61
				C36.082,15.36,32.784,12.534,32.784,12.534z"/>
		</g>
	</g>
	<path fill="#C94747" d="M32,20.915c-3.738,0-4.661,2.764-4.661-6.842c0-9.608,0.923-6.843,4.661-6.843
		c3.738,0,4.662-2.766,4.662,6.843C36.662,23.679,35.738,20.915,32,20.915z"/>
	<path fill="#FF5760" d="M32,21.093c-3.029,0-3.777,2.835-3.777-7.02c0-9.858,0.748-7.021,3.777-7.021
		c3.029,0,3.777-2.837,3.777,7.021C35.777,23.929,35.029,21.093,32,21.093z"/>
</g>
</svg>
