<?xml version="1.0" encoding="utf-8"?>
<!-- Generator: Adobe Illustrator 15.0.0, SVG Export Plug-In . SVG Version: 6.00 Build 0)  -->
<!DOCTYPE svg PUBLIC "-//W3C//DTD SVG 1.1//EN" "http://www.w3.org/Graphics/SVG/1.1/DTD/svg11.dtd">
<svg version="1.1" id="Layer_1" xmlns="http://www.w3.org/2000/svg" xmlns:xlink="http://www.w3.org/1999/xlink" x="0px" y="0px"
	 width="64px" height="64px" viewBox="0 0 64 64" enable-background="new 0 0 64 64" xml:space="preserve">
<g>
	<rect x="0" y="0" fill="#3E4347" width="64" height="64"/>
	<g>
		<rect x="30.914" y="32" fill="#D0D0D0" width="2.174" height="32"/>
		<polygon fill="#FFDD7D" points="32,3.2 34.967,22.869 48.928,8.7 39.768,26.357 59.391,23.1 41.6,32 59.391,40.898 39.768,37.643 
			48.928,55.299 34.967,41.13 32,60.799 29.034,41.13 15.073,55.299 24.234,37.643 4.61,40.898 22.401,32 4.61,23.1 24.234,26.357 
			15.073,8.7 29.034,22.869 		"/>
		<polygon fill="#FFCE31" points="25.326,52.542 27.768,37.824 14.526,44.695 25.153,34.225 10.401,32 25.153,29.774 14.526,19.304 
			27.768,26.174 25.326,11.457 32,24.799 38.676,11.456 36.232,26.174 49.475,19.304 38.848,29.774 53.6,32 38.848,34.225 
			49.475,44.695 36.232,37.824 38.676,52.542 32,39.199 		"/>
		<polygon fill="#FFFFFF" points="41.521,18.893 36.369,28.826 47.408,26.993 37.4,32 47.408,37.006 36.369,35.174 41.521,45.105 
			33.67,37.135 32,48.199 30.332,37.135 22.479,45.105 27.631,35.174 16.593,37.006 26.6,32 16.593,26.993 27.631,28.826 
			22.479,18.893 30.332,26.864 32,15.799 33.67,26.864 		"/>
	</g>
</g>
</svg>
