<?xml version="1.0" encoding="utf-8"?>
<!-- Generator: Adobe Illustrator 15.0.0, SVG Export Plug-In . SVG Version: 6.00 Build 0)  -->
<!DOCTYPE svg PUBLIC "-//W3C//DTD SVG 1.1//EN" "http://www.w3.org/Graphics/SVG/1.1/DTD/svg11.dtd">
<svg version="1.1" id="Layer_1" xmlns="http://www.w3.org/2000/svg" xmlns:xlink="http://www.w3.org/1999/xlink" x="0px" y="0px"
	 width="64px" height="64px" viewBox="0 0 64 64" enable-background="new 0 0 64 64" xml:space="preserve">
<g>
	<g>
		<path fill="#E6EFF4" d="M32.162,23.585c6.012,9.841,17.618,1.514,23.631,11.354c2.043-6.737,4.162-13.453,6.207-20.192
			c-6.012-9.841-17.621-1.512-23.633-11.353C36.322,10.132,34.205,16.848,32.162,23.585z"/>
		<path fill="#FF2449" d="M51.438,21.262c-0.848,2.79-3.486,4.113-5.891,2.956c-2.408-1.155-3.672-4.355-2.824-7.147
			c0.846-2.792,3.484-4.116,5.891-2.956C51.02,15.27,52.283,18.472,51.438,21.262z"/>
	</g>
	<g>
		<path fill="#3E4347" d="M39.385,3.344c0.168-0.548-0.141-1.13-0.689-1.298c-0.547-0.168-1.129,0.139-1.297,0.688L19.251,62h2.173
			L39.385,3.344z"/>
	</g>
	<g>
		<path fill="#E6EFF4" d="M31.838,23.585c-6.012,9.841-17.618,1.514-23.631,11.354C6.164,28.201,4.045,21.486,2,14.747
			c6.013-9.841,17.62-1.512,23.632-11.353C27.677,10.133,29.794,16.848,31.838,23.585z"/>
		<path fill="#FF2449" d="M12.563,21.262c0.848,2.79,3.485,4.113,5.891,2.956c2.406-1.155,3.671-4.355,2.823-7.147
			c-0.847-2.792-3.483-4.116-5.891-2.956C12.98,15.27,11.716,18.472,12.563,21.262z"/>
	</g>
	<g>
		<path fill="#4C5256" d="M26.602,2.733c-0.168-0.549-0.75-0.855-1.299-0.688s-0.855,0.75-0.688,1.298L42.576,62h2.172L26.602,2.733
			z"/>
	</g>
</g>
</svg>
