<?xml version="1.0" encoding="utf-8"?>
<!-- Generator: Adobe Illustrator 15.0.0, SVG Export Plug-In . SVG Version: 6.00 Build 0)  -->
<!DOCTYPE svg PUBLIC "-//W3C//DTD SVG 1.1//EN" "http://www.w3.org/Graphics/SVG/1.1/DTD/svg11.dtd">
<svg version="1.1" id="Layer_1" xmlns="http://www.w3.org/2000/svg" xmlns:xlink="http://www.w3.org/1999/xlink" x="0px" y="0px"
	 width="64px" height="64px" viewBox="0 0 64 64" enable-background="new 0 0 64 64" xml:space="preserve">
<g>
	<path fill="#699635" d="M16.626,18.474c0,0-4.579-2.834-14.626,0c0,0,10.426,1.241,15.73,4.591L16.626,18.474z"/>
	<path fill="#699635" d="M19.678,23.064c0,0-4.578-2.835-14.625,0c0,0,8.647,0.135,14.713,4.589
		C20.684,28.327,19.678,23.064,19.678,23.064z"/>
	<path fill="#699635" d="M23.036,33.999c0,0,3.511-13.499,11.142-19.979c7.631-6.479,9.92-11.474,9.92-11.474
		s-5.01,27.943-20.373,35.232L23.036,33.999z"/>
	<g>
		<path fill="#594640" d="M34.98,33.538c-3.724-1.715-4.812-4.65-4.856-4.775l1.188-0.479l-0.594,0.238l0.594-0.242
			c0.009,0.025,0.967,2.545,4.173,4.02L34.98,33.538z"/>
	</g>
	<g>
		<polygon fill="#75A843" points="24.572,59.151 14.143,9.204 19.11,8.035 29.54,57.981 		"/>
	</g>
	<g>
		<polygon fill="#83BF4F" points="31.67,61.456 22.258,3.68 27.272,2.76 36.684,60.536 		"/>
	</g>
	<g>
		<g>
			<path fill="#699635" d="M15.42,15.101c1.653-0.399,3.307-0.8,4.961-1.199c0.799-0.193,0.459-1.494-0.34-1.302
				c-1.652,0.4-3.307,0.8-4.959,1.199C14.283,13.992,14.622,15.293,15.42,15.101L15.42,15.101z"/>
		</g>
		<g>
			<path fill="#699635" d="M18.245,28.263c1.653-0.4,3.307-0.8,4.961-1.199c0.799-0.193,0.459-1.495-0.338-1.302
				c-1.654,0.399-3.308,0.799-4.961,1.199C17.107,27.153,17.446,28.456,18.245,28.263L18.245,28.263z"/>
		</g>
		<g>
			<path fill="#699635" d="M21.069,41.425c1.653-0.4,3.307-0.799,4.961-1.199c0.799-0.193,0.46-1.494-0.338-1.301
				c-1.653,0.398-3.308,0.799-4.961,1.199C19.932,40.317,20.27,41.618,21.069,41.425L21.069,41.425z"/>
		</g>
		<g>
			<path fill="#699635" d="M23.893,54.587c1.654-0.4,3.307-0.801,4.961-1.199c0.799-0.193,0.46-1.494-0.338-1.301
				c-1.654,0.398-3.308,0.799-4.961,1.197C22.755,53.478,23.094,54.78,23.893,54.587L23.893,54.587z"/>
		</g>
	</g>
	<g>
		<g>
			<path fill="#75A843" d="M23.625,11.826c1.669-0.319,3.337-0.639,5.005-0.958c0.808-0.154,0.465-1.455-0.337-1.302
				c-1.669,0.319-3.338,0.639-5.007,0.958C22.479,10.679,22.823,11.979,23.625,11.826L23.625,11.826z"/>
		</g>
		<g>
			<path fill="#75A843" d="M25.881,25.11c1.669-0.318,3.338-0.639,5.006-0.958c0.807-0.154,0.465-1.455-0.338-1.301
				c-1.668,0.318-3.337,0.639-5.005,0.958C24.737,23.964,25.081,25.264,25.881,25.11L25.881,25.11z"/>
		</g>
		<g>
			<path fill="#75A843" d="M28.139,38.396c1.67-0.318,3.338-0.639,5.005-0.959c0.807-0.154,0.465-1.453-0.337-1.301
				c-1.668,0.32-3.338,0.639-5.006,0.959C26.995,37.249,27.338,38.55,28.139,38.396L28.139,38.396z"/>
		</g>
		<g>
			<path fill="#75A843" d="M30.397,51.681c1.668-0.32,3.337-0.639,5.005-0.959c0.807-0.154,0.465-1.455-0.338-1.301
				c-1.668,0.318-3.337,0.639-5.005,0.957C29.252,50.532,29.596,51.833,30.397,51.681L30.397,51.681z"/>
		</g>
	</g>
	<path fill="#ED4C5C" d="M32.222,39.034c0,0,4.372,8.818,14.165,13.162c9.793,4.346,11.955,8.26,11.955,8.26L62,46.974
		c0,0-2.799-4.471-14.217-9.734c-3.578-1.65-6.643-5.811-9.791-10.768L32.222,39.034z"/>
	<g>
		<polygon fill="#FFCE31" points="32.459,39.872 31.318,39.276 37.422,26.114 38.563,26.711 		"/>
	</g>
</g>
</svg>
