<?xml version="1.0" encoding="utf-8"?>
<!-- Generator: Adobe Illustrator 15.0.0, SVG Export Plug-In . SVG Version: 6.00 Build 0)  -->
<!DOCTYPE svg PUBLIC "-//W3C//DTD SVG 1.1//EN" "http://www.w3.org/Graphics/SVG/1.1/DTD/svg11.dtd">
<svg version="1.1" id="Layer_1" xmlns="http://www.w3.org/2000/svg" xmlns:xlink="http://www.w3.org/1999/xlink" x="0px" y="0px"
	 width="64px" height="64px" viewBox="0 0 64 64" enable-background="new 0 0 64 64" xml:space="preserve">
<g>
	<g>
		<polygon fill="#3E4347" points="16.338,23.185 4.471,20.003 16.336,16.716 16.551,17.718 8.366,19.985 16.548,22.183 		"/>
	</g>
	<g>
		<polygon fill="#3E4347" points="16.338,47.987 4.471,44.797 16.336,41.51 16.551,42.512 8.366,44.779 16.548,46.977 		"/>
	</g>
	<g>
		<path fill="#6ADBC6" d="M58.124,19.783c0,0-9.33,9.923-20.84,9.923s-20.841-4.438-20.841-9.923c0-5.476,9.331-9.914,20.841-9.914
			S58.124,19.783,58.124,19.783z"/>
	</g>
	<g>
		<path fill="#6ADBC6" d="M51.208,19.783c0-5.476,3.912-9.914,8.736-9.914c4.826,0-0.363,9.914-0.363,9.914s5.189,9.923,0.363,9.923
			C55.12,29.706,51.208,25.268,51.208,19.783z"/>
	</g>
	<g>
		<path fill="#428BC1" d="M16.671,16.197c-0.924,0-1.673,0.853-1.673,1.898s0.749,1.898,1.673,1.898
			c-0.924,0-1.673,0.853-1.673,1.898s0.749,1.898,1.673,1.898c0.923,0,3.037-3.797,3.037-3.797S17.594,16.197,16.671,16.197z"/>
	</g>
	<g>
		<path fill="#FFFFFF" d="M27.421,17.217c0,1.846-1.318,3.349-2.946,3.349c-1.627,0-2.946-1.503-2.946-3.349s1.319-3.34,2.946-3.34
			C26.103,13.877,27.421,15.371,27.421,17.217z"/>
	</g>
	<g>
		<ellipse cx="24.475" cy="17.217" rx="1.474" ry="1.67"/>
	</g>
	<g>
		<g>
			<path fill="#428BC1" d="M30.356,14.132c1.537,2.391,2.039,5.396,1.342,8.253c-0.612,2.496-2.183,4.579-4.193,5.774
				c-0.52,0.316-0.06,1.204,0.46,0.896c2.237-1.336,3.898-3.647,4.61-6.398c0.795-3.067,0.222-6.478-1.434-9.044
				C30.8,13.077,30.009,13.596,30.356,14.132L30.356,14.132z"/>
		</g>
	</g>
	<g>
		<g>
			<path fill="#428BC1" d="M35.537,28.238c2.179-0.044,3.91-2.013,3.949-4.482s-1.829-4.438-3.949-4.482c0,0.343,0,0.686,0,1.028
				c2.179-0.044,3.91-2.004,3.949-4.482c0.039-2.47-1.83-4.438-3.949-4.482c-0.587-0.009-0.587,1.02,0,1.037
				c1.68,0.035,3.009,1.538,3.039,3.445s-1.404,3.419-3.039,3.454c-0.587,0.009-0.587,1.02,0,1.028
				c1.68,0.035,3.009,1.547,3.039,3.454s-1.404,3.419-3.039,3.454C34.95,27.219,34.95,28.247,35.537,28.238L35.537,28.238z"/>
		</g>
	</g>
	<g>
		<g>
			<path fill="#428BC1" d="M47.034,25.619c1.551-0.044,2.756-1.415,2.797-3.173c0.039-1.758-1.307-3.129-2.797-3.173
				c0,0.343,0,0.686,0,1.028c1.551-0.044,2.756-1.406,2.797-3.173c0.039-1.758-1.307-3.129-2.797-3.173
				c-0.588-0.018-0.586,1.02,0,1.037c1.049,0.026,1.859,0.949,1.887,2.136c0.027,1.195-0.879,2.109-1.887,2.145
				c-0.588,0.018-0.588,1.011,0,1.028c1.049,0.035,1.859,0.949,1.887,2.145c0.027,1.187-0.879,2.109-1.887,2.145
				C46.448,24.608,46.446,25.637,47.034,25.619L47.034,25.619z"/>
		</g>
	</g>
	<g>
		<g>
			<path fill="#428BC1" d="M41.216,27.245c1.94-0.044,3.473-1.784,3.512-3.981c0.039-2.206-1.63-3.946-3.512-3.99
				c0,0.343,0,0.686,0,1.028c1.94-0.044,3.473-1.784,3.512-3.981c0.039-2.206-1.63-3.946-3.512-3.99
				c-0.588-0.018-0.586,1.02,0,1.028c1.441,0.035,2.573,1.327,2.603,2.962s-1.205,2.918-2.603,2.953
				c-0.587,0.009-0.587,1.02,0,1.028c1.441,0.035,2.573,1.318,2.603,2.962c0.029,1.635-1.205,2.918-2.603,2.953
				C40.63,26.226,40.628,27.263,41.216,27.245L41.216,27.245z"/>
		</g>
	</g>
	<g>
		<path fill="#FF717F" d="M58.124,44.577c0,0-9.33,9.923-20.84,9.923s-20.841-4.438-20.841-9.923c0-5.476,9.331-9.914,20.841-9.914
			S58.124,44.577,58.124,44.577z"/>
	</g>
	<g>
		<path fill="#FF717F" d="M51.208,44.577c0-5.476,3.912-9.914,8.736-9.914c4.826,0-0.363,9.914-0.363,9.914s5.189,9.923,0.363,9.923
			C55.12,54.5,51.208,50.062,51.208,44.577z"/>
	</g>
	<g>
		<path fill="#C94747" d="M16.671,40.991c-0.924,0-1.673,0.853-1.673,1.898s0.749,1.898,1.673,1.898
			c-0.924,0-1.673,0.853-1.673,1.898s0.749,1.898,1.673,1.898c0.923,0,3.037-3.797,3.037-3.797S17.594,40.991,16.671,40.991z"/>
	</g>
	<g>
		<path fill="#FFFFFF" d="M27.421,42.011c0,1.846-1.318,3.349-2.946,3.349c-1.627,0-2.946-1.503-2.946-3.349s1.319-3.34,2.946-3.34
			C26.103,38.671,27.421,40.165,27.421,42.011z"/>
	</g>
	<g>
		<ellipse cx="24.475" cy="42.011" rx="1.474" ry="1.67"/>
	</g>
	<g>
		<g>
			<path fill="#C94747" d="M30.356,38.926c1.537,2.391,2.039,5.396,1.342,8.253c-0.612,2.496-2.183,4.579-4.193,5.774
				c-0.52,0.308-0.06,1.204,0.46,0.888c2.237-1.327,3.898-3.639,4.61-6.39c0.795-3.067,0.222-6.478-1.434-9.044
				C30.8,37.871,30.009,38.39,30.356,38.926L30.356,38.926z"/>
		</g>
	</g>
	<g>
		<g>
			<path fill="#C94747" d="M35.537,53.032c2.179-0.044,3.91-2.013,3.949-4.482c0.039-2.479-1.829-4.438-3.949-4.482
				c0,0.343,0,0.686,0,1.028c2.179-0.044,3.91-2.004,3.949-4.482c0.039-2.47-1.83-4.438-3.949-4.482
				c-0.587-0.009-0.587,1.02,0,1.037c1.68,0.026,3.009,1.538,3.039,3.445s-1.404,3.419-3.039,3.454c-0.587,0.009-0.587,1.02,0,1.028
				c1.68,0.035,3.009,1.547,3.039,3.454s-1.404,3.419-3.039,3.445C34.95,52.013,34.95,53.041,35.537,53.032L35.537,53.032z"/>
		</g>
	</g>
	<g>
		<g>
			<path fill="#C94747" d="M47.034,50.413c1.551-0.044,2.756-1.415,2.797-3.173c0.039-1.758-1.307-3.129-2.797-3.173
				c0,0.343,0,0.686,0,1.028c1.551-0.044,2.756-1.415,2.797-3.173c0.039-1.758-1.307-3.129-2.797-3.173
				c-0.588-0.018-0.586,1.011,0,1.037c1.049,0.026,1.859,0.94,1.887,2.136s-0.879,2.109-1.887,2.145
				c-0.588,0.018-0.588,1.011,0,1.028c1.049,0.035,1.859,0.949,1.887,2.145c0.027,1.187-0.879,2.109-1.887,2.145
				C46.448,49.402,46.446,50.431,47.034,50.413L47.034,50.413z"/>
		</g>
	</g>
	<g>
		<g>
			<path fill="#C94747" d="M41.216,52.039c1.94-0.044,3.473-1.784,3.512-3.99c0.039-2.197-1.63-3.938-3.512-3.981
				c0,0.343,0,0.686,0,1.028c1.94-0.044,3.473-1.784,3.512-3.981c0.039-2.206-1.63-3.946-3.512-3.99
				c-0.588-0.018-0.586,1.02,0,1.028c1.441,0.035,2.573,1.318,2.603,2.962c0.029,1.635-1.205,2.918-2.603,2.953
				c-0.587,0.009-0.587,1.02,0,1.028c1.441,0.035,2.573,1.318,2.603,2.953c0.029,1.644-1.205,2.927-2.603,2.962
				C40.63,51.02,40.628,52.057,41.216,52.039L41.216,52.039z"/>
		</g>
	</g>
	<g>
		<rect x="3.473" y="12.849" fill="#F2B200" width="2.945" height="51.151"/>
	</g>
	<g>
		<rect x="4.856" y="14.123" fill="#FFCE31" width="0.915" height="49.877"/>
	</g>
	<g>
		<path fill="#F2B200" d="M7.892,12.849c0,1.846-1.319,3.34-2.946,3.34s-2.946-1.494-2.946-3.34S3.318,9.5,4.945,9.5
			S7.892,11.003,7.892,12.849z"/>
	</g>
	<g>
		<path fill="#FFCE31" d="M6.418,12.014c0-0.466-0.329-0.835-0.736-0.835c-0.406,0-0.736,0.369-0.736,0.835
			c0,0.457,0.33,0.835,0.736,0.835C6.089,12.849,6.418,12.471,6.418,12.014z"/>
	</g>
</g>
</svg>
