<?xml version="1.0" encoding="utf-8"?>
<!-- Generator: Adobe Illustrator 15.0.0, SVG Export Plug-In . SVG Version: 6.00 Build 0)  -->
<!DOCTYPE svg PUBLIC "-//W3C//DTD SVG 1.1//EN" "http://www.w3.org/Graphics/SVG/1.1/DTD/svg11.dtd">
<svg version="1.1" id="Layer_1" xmlns="http://www.w3.org/2000/svg" xmlns:xlink="http://www.w3.org/1999/xlink" x="0px" y="0px"
	 width="64px" height="64px" viewBox="0 0 64 64" enable-background="new 0 0 64 64" xml:space="preserve">
<rect fill="#FFFFFF" width="64" height="64"/>
<g>
	<rect fill="#3E4347" width="64" height="64"/>
	<g>
		<g>
			<g>
				<path fill="#6ADBC6" d="M32,30.76c0,0-1.731-10.846-1.731-11.602s0.775-1.37,1.731-1.37s1.731,0.613,1.731,1.37
					S32,30.76,32,30.76z"/>
			</g>
			<g>
				<path fill="#6ADBC6" d="M32,33.293c0,0,1.731,10.846,1.731,11.602c0,0.757-0.775,1.37-1.731,1.37s-1.731-0.613-1.731-1.37
					C30.269,44.139,32,33.293,32,33.293z"/>
			</g>
			<g>
				<path fill="#6ADBC6" d="M30.733,32.026c0,0-10.846,1.731-11.602,1.731c-0.757,0-1.37-0.775-1.37-1.731s0.613-1.731,1.37-1.731
					C19.888,30.295,30.733,32.026,30.733,32.026z"/>
			</g>
			<g>
				<path fill="#6ADBC6" d="M33.267,32.026c0,0,10.846-1.731,11.603-1.731c0.756,0,1.369,0.775,1.369,1.731
					s-0.613,1.731-1.369,1.731C44.112,33.758,33.267,32.026,33.267,32.026z"/>
			</g>
			<g>
				<path fill="#6ADBC6" d="M31.104,31.131c0,0-8.894-6.445-9.428-6.98c-0.535-0.535-0.421-1.516,0.256-2.192
					c0.676-0.676,1.657-0.791,2.192-0.256C24.659,22.238,31.104,31.131,31.104,31.131z"/>
			</g>
			<g>
				<path fill="#6ADBC6" d="M32.896,32.922c0,0,8.894,6.445,9.428,6.98c0.535,0.534,0.421,1.516-0.256,2.191
					c-0.676,0.676-1.657,0.791-2.192,0.256C39.341,41.814,32.896,32.922,32.896,32.922z"/>
			</g>
			<g>
				<path fill="#6ADBC6" d="M31.104,32.922c0,0-6.445,8.893-6.979,9.428c-0.535,0.535-1.517,0.42-2.192-0.256
					c-0.677-0.676-0.791-1.657-0.256-2.191C22.211,39.367,31.104,32.922,31.104,32.922z"/>
			</g>
			<g>
				<path fill="#6ADBC6" d="M32.896,31.131c0,0,6.445-8.893,6.979-9.428c0.535-0.535,1.517-0.42,2.192,0.256
					c0.677,0.676,0.791,1.658,0.256,2.192C41.789,24.686,32.896,31.131,32.896,31.131z"/>
			</g>
		</g>
		<g>
			<g>
				<path fill="#FFCE31" d="M31.146,29.913c0,0-8.919-17.453-9.429-18.715c-0.51-1.263-0.205-2.576,0.682-2.934
					c0.887-0.358,2.019,0.375,2.528,1.637S31.146,29.913,31.146,29.913z"/>
			</g>
			<g>
				<path fill="#FFCE31" d="M32.854,34.14c0,0,8.919,17.452,9.429,18.716c0.51,1.262,0.205,2.575-0.682,2.934
					c-0.887,0.357-2.019-0.375-2.528-1.637C38.563,52.89,32.854,34.14,32.854,34.14z"/>
			</g>
			<g>
				<path fill="#FFCE31" d="M29.887,32.881c0,0-17.453,8.918-18.715,9.428c-1.263,0.51-2.576,0.205-2.935-0.682
					c-0.357-0.887,0.375-2.019,1.638-2.528C11.137,38.588,29.887,32.881,29.887,32.881z"/>
			</g>
			<g>
				<path fill="#FFCE31" d="M34.113,31.172c0,0,17.453-8.918,18.715-9.428c1.263-0.51,2.576-0.205,2.935,0.682
					c0.357,0.886-0.375,2.019-1.638,2.528C52.863,25.464,34.113,31.172,34.113,31.172z"/>
			</g>
			<g>
				<path fill="#FFCE31" d="M29.901,31.136c0,0-18.646-6.035-19.9-6.566c-1.253-0.532-1.966-1.677-1.592-2.557
					c0.373-0.88,1.692-1.162,2.945-0.63C12.607,21.914,29.901,31.136,29.901,31.136z"/>
			</g>
			<g>
				<path fill="#FFCE31" d="M34.099,32.917c0,0,18.646,6.034,19.9,6.566c1.253,0.532,1.966,1.677,1.592,2.557
					c-0.373,0.88-1.692,1.163-2.945,0.63C51.393,42.139,34.099,32.917,34.099,32.917z"/>
			</g>
			<g>
				<path fill="#FFCE31" d="M31.109,34.125c0,0-6.034,18.646-6.566,19.9c-0.532,1.252-1.677,1.966-2.557,1.592
					c-0.88-0.373-1.162-1.691-0.631-2.945C21.888,51.419,31.109,34.125,31.109,34.125z"/>
			</g>
			<g>
				<path fill="#FFCE31" d="M32.891,29.928c0,0,6.034-18.647,6.566-19.9c0.532-1.253,1.677-1.966,2.557-1.593
					s1.163,1.692,0.631,2.945C42.112,12.634,32.891,29.928,32.891,29.928z"/>
			</g>
		</g>
		<g>
			<g>
				<path fill="#42ADE2" d="M32.006,47.244c0,0,1.733,12.63,1.733,13.51c0.001,0.881-0.774,1.596-1.73,1.596
					s-1.731-0.713-1.731-1.594S32.006,47.244,32.006,47.244z"/>
			</g>
			<g>
				<path fill="#42ADE2" d="M31.995,15.769c0,0-1.734-11.805-1.734-12.627c-0.001-0.823,0.774-1.491,1.73-1.491
					s1.731,0.667,1.731,1.49S31.995,15.769,31.995,15.769z"/>
			</g>
			<g>
				<path fill="#42ADE2" d="M42.783,42.775c0,0,10.157,7.704,10.779,8.326c0.623,0.623,0.58,1.676-0.096,2.353
					s-1.729,0.72-2.352,0.097S42.783,42.775,42.783,42.775z"/>
			</g>
			<g>
				<path fill="#42ADE2" d="M20.519,20.526c0,0-9.572-7.121-10.155-7.703c-0.582-0.582-0.506-1.602,0.17-2.278
					s1.696-0.752,2.278-0.17C13.394,10.957,20.519,20.526,20.519,20.526z"/>
			</g>
			<g>
				<path fill="#42ADE2" d="M42.783,21.225c0,0,7.709-10.153,8.332-10.776c0.623-0.623,1.676-0.58,2.352,0.097
					s0.719,1.729,0.096,2.352C52.94,13.52,42.783,21.225,42.783,21.225z"/>
			</g>
			<g>
				<path fill="#42ADE2" d="M20.519,43.473c0,0-7.125,9.57-7.707,10.152s-1.603,0.506-2.278-0.171s-0.752-1.696-0.17-2.278
					C10.946,50.594,20.519,43.473,20.519,43.473z"/>
			</g>
			<g>
				<path fill="#42ADE2" d="M47.244,31.994c0,0,12.63-1.734,13.511-1.734s1.595,0.775,1.595,1.73
					c0.001,0.957-0.713,1.732-1.594,1.732S47.244,31.994,47.244,31.994z"/>
			</g>
			<g>
				<path fill="#42ADE2" d="M15.769,32.006c0,0-11.805,1.733-12.627,1.734c-0.824,0-1.491-0.775-1.491-1.731s0.667-1.731,1.49-1.731
					S15.769,32.006,15.769,32.006z"/>
			</g>
		</g>
		<g>
			<circle fill="#42ADE2" cx="20.596" cy="4.782" r="1.862"/>
			<circle fill="#42ADE2" cx="43.679" cy="4.782" r="1.861"/>
			<circle fill="#42ADE2" cx="20.072" cy="59.34" r="1.862"/>
			<circle fill="#42ADE2" cx="43.154" cy="59.34" r="1.862"/>
			<circle fill="#42ADE2" cx="4.597" cy="43.34" r="1.861"/>
			<circle fill="#42ADE2" cx="4.597" cy="20.258" r="1.862"/>
			<circle fill="#42ADE2" cx="59.154" cy="43.864" r="1.862"/>
			<circle fill="#42ADE2" cx="59.154" cy="20.782" r="1.862"/>
		</g>
	</g>
</g>
</svg>
