<?xml version="1.0" encoding="utf-8"?>
<!-- Generator: Adobe Illustrator 15.0.0, SVG Export Plug-In . SVG Version: 6.00 Build 0)  -->
<!DOCTYPE svg PUBLIC "-//W3C//DTD SVG 1.1//EN" "http://www.w3.org/Graphics/SVG/1.1/DTD/svg11.dtd">
<svg version="1.1" id="Layer_1" xmlns="http://www.w3.org/2000/svg" xmlns:xlink="http://www.w3.org/1999/xlink" x="0px" y="0px"
	 width="64px" height="64px" viewBox="0 0 64 64" enable-background="new 0 0 64 64" xml:space="preserve">
<g>
	<ellipse fill="#D0D0D0" cx="32" cy="49.384" rx="30" ry="12.616"/>
	<path fill="#D3976E" d="M7.7,24.841v22.496c0,5.645,10.879,10.221,24.3,10.221c13.419,0,24.298-4.576,24.298-10.221V24.841H7.7z"/>
	<path fill="#CEA9F7" d="M7.703,29.662C7.702,29.67,7.7,29.679,7.7,29.688l0.014-0.026H7.703z"/>
	<g>
		<path fill="#CEA9F7" d="M56.299,29.662L56.299,29.662c0,0.009,0,0.018,0,0.026V29.662z"/>
		<path fill="#FFDD7D" d="M56.299,31.415C56.189,35.424,46.244,39.861,32,39.861c-14.244,0-24.191-4.438-24.3-8.447v6.125
			c1.333,0.955,2.992,1.827,4.956,2.592c5.2,2.024,12.069,3.14,19.344,3.14c7.273,0,14.144-1.115,19.343-3.14
			c1.965-0.765,3.623-1.637,4.955-2.592V31.415z"/>
	</g>
	<path fill="#FFDD7D" d="M56.299,40.962c-0.109,4.01-10.055,8.447-24.298,8.447c-14.244,0-24.191-4.438-24.3-8.447v6.127
		c1.333,0.954,2.992,1.826,4.956,2.592c5.2,2.023,12.069,3.139,19.344,3.139c7.273,0,14.144-1.115,19.343-3.139
		c1.965-0.766,3.623-1.638,4.955-2.592V40.962z"/>
	<ellipse fill="#FF2C68" cx="32" cy="24.841" rx="24.3" ry="10.22"/>
	<path fill="#A80038" d="M32,35.061c-13.421,0-24.3-4.575-24.3-10.22v16.878c0,0.915,0.843,1.655,1.883,1.655
		c1.041,0,1.885-0.74,1.885-1.655v-3.854c0-1.215,1.119-2.199,2.5-2.199c1.382,0,2.502,0.984,2.502,2.199v4.755
		c0,1.413,1.303,2.558,2.909,2.558c1.607,0,2.909-1.145,2.909-2.558v-4.858c0-1.271,1.173-2.301,2.618-2.301
		c1.447,0,2.619,1.029,2.619,2.301v3.098l0,0c0,0.706,0.65,1.279,1.455,1.279c0.803,0,1.453-0.573,1.453-1.279l0,0v-2.459
		c0-0.918,0.848-1.662,1.893-1.662c1.042,0,1.888,0.744,1.888,1.662v4.22c0,1.413,1.305,2.558,2.91,2.558
		c1.607,0,2.91-1.145,2.91-2.558v-4.73c0-1.2,1.107-2.173,2.473-2.173s2.473,0.973,2.473,2.173v3.452
		c0,0.707,0.65,1.278,1.455,1.278c0.803,0,1.455-0.571,1.455-1.278v-2.416c0-0.629,0.578-1.14,1.293-1.14
		c0.717,0,1.297,0.511,1.297,1.14v3.694c0,1.413,1.301,2.558,2.908,2.558s2.91-1.145,2.91-2.558v-17.71
		C56.213,30.521,45.367,35.061,32,35.061z"/>
	<g>
		<path fill="#FFA4A4" d="M52.47,25.216c-1.799,1.964-4.084,3.493-6.544,4.568c-2.469,1.068-5.095,1.769-7.757,2.134
			c-5.331,0.73-10.765,0.363-15.985-0.773c-2.592-0.591-5.229-1.325-7.604-2.671c-1.165-0.685-2.331-1.518-3.032-2.783
			c-0.34-0.626-0.51-1.39-0.361-2.109c0.138-0.722,0.54-1.338,0.999-1.848c0.937-1.022,2.143-1.695,3.349-2.264
			c1.227-0.55,2.509-0.953,3.808-1.261c2.602-0.597,5.256-0.957,7.927-1.046c2.668-0.1,5.359,0.005,8.017,0.463
			c1.319,0.232,2.652,0.521,3.958,1.015c0.649,0.244,1.289,0.548,1.901,0.944c0.602,0.405,1.217,0.897,1.61,1.688
			c0.191,0.391,0.302,0.871,0.249,1.342c-0.05,0.471-0.237,0.897-0.47,1.244c-0.476,0.696-1.094,1.145-1.707,1.522
			c-1.257,0.756-2.609,1.148-3.949,1.443c-2.693,0.562-5.432,0.629-8.146,0.345c-1.368-0.172-2.685-0.399-4.048-0.883
			c-0.669-0.253-1.34-0.551-1.97-1.075c-0.309-0.265-0.624-0.606-0.803-1.105c-0.196-0.495-0.11-1.14,0.145-1.554
			c0.519-0.841,1.212-1.176,1.874-1.496c0.685-0.298,1.365-0.47,2.051-0.6c1.369-0.252,2.74-0.307,4.105-0.229
			c1.372,0.094,2.712,0.286,4.051,0.856c0.33,0.151,0.659,0.333,0.964,0.609c0.289,0.253,0.629,0.744,0.494,1.306
			c-0.145,0.525-0.507,0.791-0.814,0.995c-0.317,0.203-0.648,0.33-1.002,0.44c-1.357,0.393-2.731,0.389-4.073,0.218
			c-0.673-0.107-1.33-0.231-1.969-0.54c-0.297-0.162-0.649-0.359-0.753-0.778c-0.057-0.461,0.339-0.701,0.616-0.847l0.072,0.132
			c-0.264,0.16-0.527,0.421-0.45,0.664c0.076,0.242,0.375,0.41,0.653,0.528c0.574,0.229,1.245,0.311,1.88,0.36
			c1.285,0.069,2.611-0.053,3.784-0.457c0.525-0.168,1.179-0.6,1.205-0.9c0.082-0.214-0.439-0.64-0.991-0.827
			c-1.125-0.414-2.458-0.541-3.718-0.587c-1.277-0.029-2.567,0.07-3.793,0.34c-0.609,0.136-1.213,0.318-1.735,0.568
			c-0.513,0.245-1.029,0.618-1.182,0.938c-0.074,0.159-0.072,0.232-0.023,0.358c0.048,0.126,0.189,0.3,0.383,0.458
			c0.394,0.322,0.948,0.579,1.517,0.779c1.137,0.389,2.449,0.608,3.705,0.741c2.545,0.27,5.159,0.183,7.659-0.286
			c1.241-0.245,2.475-0.593,3.502-1.189c0.516-0.296,0.99-0.659,1.268-1.058c0.278-0.407,0.332-0.761,0.145-1.169
			c-0.185-0.413-0.612-0.818-1.098-1.149c-0.493-0.332-1.049-0.612-1.628-0.855c-1.157-0.485-2.412-0.806-3.689-1.075
			c-2.547-0.506-5.162-0.79-7.784-0.812c-2.618-0.007-5.261,0.158-7.821,0.738c-2.521,0.573-5.154,1.442-6.912,3.334
			c-0.419,0.47-0.732,1.031-0.827,1.62c-0.097,0.588,0.047,1.192,0.363,1.71c0.65,1.043,1.761,1.773,2.893,2.352
			c2.313,1.151,4.876,1.716,7.455,2.182c5.145,0.942,10.404,1.389,15.595,0.843c5.153-0.53,10.352-2.142,14.34-5.657L52.47,25.216z"
			/>
	</g>
	<g>
		<polygon fill="#428BC1" points="14.991,12.645 11.792,14.288 11.792,16.204 14.991,14.559 		"/>
		<polygon fill="#428BC1" points="11.792,19.49 11.792,21.308 14.991,19.664 14.991,17.847 		"/>
		<polygon fill="#42ADE2" points="14.991,14.559 11.792,16.204 11.792,19.49 14.991,17.847 		"/>
		<path fill="#42ADE2" d="M14.991,11.626c0-0.542-0.495-0.981-1.104-0.981h-0.992c-0.609,0-1.104,0.439-1.104,0.981v2.662
			l3.199-1.643V11.626z"/>
		<path fill="#42ADE2" d="M11.792,22.424c0,0.542,0.495,0.982,1.104,0.982h0.992c0.099,0,0.195-0.013,0.286-0.035l0.496-0.255
			c0.199-0.177,0.322-0.422,0.322-0.692v-2.76l-3.199,1.644V22.424z"/>
		<path fill="#FF8B00" d="M15.1,9.172c0,0.813-0.74,1.472-1.654,1.472c-0.913,0-1.655-0.66-1.655-1.472
			c0-0.813,1.655-3.437,1.655-3.437S15.1,8.359,15.1,9.172z"/>
		<path fill="#FFF033" d="M14.274,9.956c0,0.407-0.37,0.737-0.828,0.737s-0.827-0.33-0.827-0.737c0-0.405,0.827-1.717,0.827-1.717
			S14.274,9.551,14.274,9.956z"/>
	</g>
	<g>
		<polygon fill="#428BC1" points="33.352,8.045 30.552,9.484 30.552,11.159 33.352,9.721 		"/>
		<polygon fill="#428BC1" points="30.552,14.036 30.552,15.625 33.352,14.188 33.352,12.598 		"/>
		<polygon fill="#42ADE2" points="33.352,9.721 30.552,11.159 30.552,14.036 33.352,12.598 		"/>
		<path fill="#42ADE2" d="M33.352,7.154c0-0.475-0.433-0.86-0.966-0.86h-0.867c-0.533,0-0.966,0.385-0.966,0.86v2.33l2.799-1.439
			V7.154z"/>
		<path fill="#42ADE2" d="M30.552,16.603c0,0.475,0.433,0.858,0.966,0.858h0.867c0.088,0,0.172-0.011,0.251-0.031l0.434-0.222
			c0.174-0.155,0.281-0.37,0.281-0.605v-2.415l-2.799,1.438V16.603z"/>
		<path fill="#FF8B00" d="M33.447,5.007c0,0.711-0.647,1.288-1.447,1.288s-1.448-0.577-1.448-1.288C30.552,4.295,32,2,32,2
			S33.447,4.295,33.447,5.007z"/>
		<path fill="#FFF033" d="M32.724,5.694c0,0.355-0.323,0.644-0.724,0.644s-0.724-0.289-0.724-0.644C31.277,5.338,32,4.191,32,4.191
			S32.724,5.338,32.724,5.694z"/>
	</g>
	<g>
		<polygon fill="#428BC1" points="52.096,12.63 48.898,14.274 48.898,16.189 52.096,14.545 		"/>
		<polygon fill="#428BC1" points="48.898,19.477 48.898,21.294 52.096,19.651 52.096,17.833 		"/>
		<polygon fill="#42ADE2" points="52.096,14.545 48.898,16.189 48.898,19.477 52.096,17.833 		"/>
		<path fill="#42ADE2" d="M52.096,11.612c0-0.542-0.494-0.982-1.102-0.982h-0.992c-0.609,0-1.104,0.44-1.104,0.982v2.662
			l3.197-1.644V11.612z"/>
		<path fill="#42ADE2" d="M48.898,22.41c0,0.542,0.494,0.983,1.104,0.983h0.992c0.098,0,0.195-0.014,0.285-0.035l0.496-0.254
			c0.197-0.178,0.32-0.423,0.32-0.694v-2.759l-3.197,1.643V22.41z"/>
		<path fill="#FF8B00" d="M52.205,9.159c0,0.812-0.738,1.472-1.652,1.472s-1.654-0.66-1.654-1.472c0-0.814,1.654-3.437,1.654-3.437
			S52.205,8.345,52.205,9.159z"/>
		<path fill="#FFF033" d="M51.381,9.944c0,0.407-0.371,0.735-0.828,0.735s-0.828-0.329-0.828-0.735c0-0.408,0.828-1.719,0.828-1.719
			S51.381,9.536,51.381,9.944z"/>
	</g>
	<g>
		<polygon fill="#42ADE2" points="23.878,19.563 20.011,21.549 20.011,23.866 23.878,21.878 		"/>
		<polygon fill="#42ADE2" points="20.011,27.84 20.011,30.037 23.878,28.051 23.878,25.853 		"/>
		<polygon fill="#9FE4FF" points="23.878,21.878 20.011,23.866 20.011,27.84 23.878,25.853 		"/>
		<path fill="#9FE4FF" d="M23.878,18.331c0-0.655-0.597-1.187-1.333-1.187h-1.2c-0.737,0-1.334,0.532-1.334,1.187v3.218l3.867-1.986
			V18.331z"/>
		<path fill="#9FE4FF" d="M20.011,31.387c0,0.656,0.597,1.188,1.334,1.188h1.2c0.119,0,0.236-0.017,0.346-0.042l0.599-0.308
			c0.24-0.215,0.388-0.51,0.388-0.837v-3.336l-3.867,1.986V31.387z"/>
		<path fill="#FF8B00" d="M24.011,15.365c0,0.982-0.896,1.779-2,1.779s-2-0.797-2-1.779c0-0.984,2-4.154,2-4.154
			S24.011,14.381,24.011,15.365z"/>
		<path fill="#FFF033" d="M23.012,16.314c0,0.491-0.448,0.89-1,0.89c-0.553,0-0.999-0.399-0.999-0.89
			c0-0.492,0.999-2.078,0.999-2.078S23.012,15.822,23.012,16.314z"/>
	</g>
	<g>
		<polygon fill="#42ADE2" points="43.898,19.535 40.031,21.522 40.031,23.838 43.898,21.85 		"/>
		<polygon fill="#42ADE2" points="40.031,27.813 40.031,30.009 43.898,28.022 43.898,25.825 		"/>
		<polygon fill="#9FE4FF" points="43.898,21.85 40.031,23.838 40.031,27.813 43.898,25.825 		"/>
		<path fill="#9FE4FF" d="M43.898,18.303c0-0.655-0.598-1.187-1.334-1.187h-1.199c-0.736,0-1.334,0.532-1.334,1.187v3.219
			l3.867-1.988V18.303z"/>
		<path fill="#9FE4FF" d="M40.031,31.358c0,0.657,0.598,1.188,1.334,1.188h1.199c0.119,0,0.236-0.016,0.346-0.042l0.6-0.309
			c0.24-0.213,0.389-0.51,0.389-0.837v-3.336l-3.867,1.987V31.358z"/>
		<path fill="#FF8B00" d="M44.031,15.337c0,0.983-0.895,1.78-2,1.78c-1.104,0-2-0.797-2-1.78c0-0.983,2-4.154,2-4.154
			S44.031,14.354,44.031,15.337z"/>
		<path fill="#FFF033" d="M43.033,16.286c0,0.492-0.449,0.89-1.002,0.89s-1-0.398-1-0.89s1-2.077,1-2.077
			S43.033,15.794,43.033,16.286z"/>
	</g>
</g>
</svg>
