<?xml version="1.0" encoding="utf-8"?>
<!-- Generator: Adobe Illustrator 15.0.0, SVG Export Plug-In . SVG Version: 6.00 Build 0)  -->
<!DOCTYPE svg PUBLIC "-//W3C//DTD SVG 1.1//EN" "http://www.w3.org/Graphics/SVG/1.1/DTD/svg11.dtd">
<svg version="1.1" id="Layer_1" xmlns="http://www.w3.org/2000/svg" xmlns:xlink="http://www.w3.org/1999/xlink" x="0px" y="0px"
	 width="64px" height="64px" viewBox="0 0 64 64" enable-background="new 0 0 64 64" xml:space="preserve">
<g>
	<g>
		<g>
			<path fill="#CE95A0" d="M52.802,37.11c-1.318-1.308-10.855-1.246-12.111,0c-0.693,0.686-6.059,20.2-1.348,23.967
				c1.594,1.271,13.342,1.17,14.805,0C58.858,57.31,53.495,37.796,52.802,37.11z"/>
			<path fill="#D51C46" d="M47.665,61.992c-2.645-2.081-4.938-4.376-5.334-8.197c0,0-3.033,7.349-1.479,7.797
				C42.581,62.089,47.665,61.992,47.665,61.992z"/>
		</g>
		<rect x="38.669" y="43.267" fill="#D51C46" width="16.152" height="5.328"/>
		<rect x="45.962" y="33.114" fill="#454749" width="1.576" height="3.238"/>
		<g>
			<path fill="#F0C0C6" d="M47.483,33.114c-1.514,13.191,7.232,17.643,7.232,17.643c8.328-6.283,7.236-12.482,7.236-12.482
				C57.03,34.238,47.483,33.114,47.483,33.114z"/>
			<path fill="#F0C0C6" d="M46.007,33.114c1.514,13.191-7.234,17.643-7.234,17.643c-8.326-6.283-7.232-12.482-7.232-12.482
				C36.462,34.238,46.007,33.114,46.007,33.114z"/>
		</g>
	</g>
	<g>
		<g>
			<path fill="#258399" d="M23.308,37.11c-1.318-1.308-10.852-1.246-12.113,0c-0.693,0.686-6.057,20.2-1.346,23.967
				c1.594,1.271,13.34,1.17,14.805,0C29.364,57.31,24.001,37.796,23.308,37.11z"/>
			<path fill="#D7D16F" d="M18.169,61.992c-2.641-2.081-4.936-4.376-5.334-8.197c0,0-3.029,7.349-1.479,7.797
				C13.089,62.089,18.169,61.992,18.169,61.992z"/>
		</g>
		<rect x="9.177" y="43.267" fill="#D7D16F" width="16.15" height="5.328"/>
		<rect x="16.468" y="33.114" fill="#454749" width="1.576" height="3.238"/>
		<g>
			<path fill="#3BAACF" d="M17.989,33.114c-1.514,13.191,7.236,17.643,7.236,17.643c8.328-6.283,7.232-12.482,7.232-12.482
				C27.536,34.238,17.989,33.114,17.989,33.114z"/>
			<path fill="#3BAACF" d="M16.515,33.114c1.512,13.191-7.232,17.643-7.232,17.643c-8.327-6.283-7.236-12.482-7.236-12.482
				C6.966,34.238,16.515,33.114,16.515,33.114z"/>
		</g>
	</g>
	<g>
		<path fill="#454749" d="M17.466,10.158c-7.287,0-12.609,4.363-12.609,8.237L4.81,25.598h24.91l-0.047-7.203
			C29.673,15.454,25.468,10.158,17.466,10.158"/>
		<path fill="#FED0AC" d="M28.491,26.843c0,0,2.371,0.423,2.371-2.084c0-1.982-2.371-1.854-2.371-1.854v-1.838
			c-1.955-0.636-7.727-1.193-11.229-1.193c-3.518,0-9.301,0.561-11.252,1.199v1.832c0,0-2.371-0.227-2.371,1.854
			c0,2.508,2.371,2.084,2.371,2.084c0,3.74,2.791,7.84,11.486,7.84C25.729,34.683,28.491,31.333,28.491,26.843z"/>
		<g>
			<path fill="#454749" d="M25.425,27.101c0,1.333-1.154,0.998-2.582,0.998c-1.426,0-2.582,0.335-2.582-0.998
				c0-1.331,1.156-2.411,2.582-2.411C24.271,24.689,25.425,25.77,25.425,27.101z"/>
		</g>
		<g>
			<path fill="#454749" d="M14.241,27.101c0,1.333-1.156,0.998-2.584,0.998c-1.426,0-2.582,0.335-2.582-0.998
				c0-1.331,1.156-2.411,2.582-2.411C13.085,24.689,14.241,25.77,14.241,27.101z"/>
		</g>
		<path fill="#454749" d="M14.026,30.724c0,1.297,1.443,2.391,3.227,2.391c1.781,0,3.227-1.111,3.227-2.412
			c0,0-1.586,0.568-3.217,0.568C15.556,31.271,14.026,30.724,14.026,30.724z"/>
	</g>
	<g>
		<path fill="#454749" d="M46.946,7.126c-7.285,0-13.629,4.676-13.629,11.247c0,0-1.633,13.201,0.973,16.278h12.656H59.2
			c2.604-3.077,0.975-16.278,0.975-16.278C60.175,12.736,54.946,7.126,46.946,7.126"/>
		<path fill="#FED0AC" d="M58.778,26.843c0,0,1.566,0.423,1.566-2.084c0-1.981-1.572-1.854-1.572-1.854s-3.145,1.803-5.656-4.265
			c0,0-0.053,1.252-1.83,2.917c-3.145,2.946-16.564,1.348-16.564,1.348s-1.602-0.227-1.602,1.854c0,2.508,1.646,2.084,1.646,2.084
			c0,3.74,3.516,7.84,12.207,7.84C55.212,34.683,58.778,31.333,58.778,26.843z"/>
		<g>
			<path fill="#454749" d="M54.907,27.101c0,1.334-1.154,0.999-2.582,0.999s-2.584,0.335-2.584-0.999
				c0-1.331,1.156-2.411,2.584-2.411S54.907,25.77,54.907,27.101z"/>
		</g>
		<g>
			<path fill="#454749" d="M43.722,27.101c0,1.334-1.154,0.999-2.584,0.999c-1.426,0-2.582,0.335-2.582-0.999
				c0-1.331,1.156-2.411,2.582-2.411C42.567,24.689,43.722,25.77,43.722,27.101z"/>
		</g>
		<path fill="#D33B23" d="M46.179,30.136c-0.416-0.215-2.672,0.588-2.672,0.588c0,1.297,1.443,2.391,3.229,2.391
			c1.779,0,3.227-1.111,3.227-2.412c0,0-2.26-0.771-2.66-0.566c-0.17,0.086-0.559,0.56-0.559,0.56S46.343,30.222,46.179,30.136z"/>
	</g>
	<ellipse fill="#454749" cx="17.245" cy="6.477" rx="9.422" ry="4.477"/>
</g>
</svg>
