<?xml version="1.0" encoding="utf-8"?>
<!-- Generator: Adobe Illustrator 15.0.0, SVG Export Plug-In . SVG Version: 6.00 Build 0)  -->
<!DOCTYPE svg PUBLIC "-//W3C//DTD SVG 1.1//EN" "http://www.w3.org/Graphics/SVG/1.1/DTD/svg11.dtd">
<svg version="1.1" id="Layer_1" xmlns="http://www.w3.org/2000/svg" xmlns:xlink="http://www.w3.org/1999/xlink" x="0px" y="0px"
	 width="64px" height="64px" viewBox="0 0 64 64" enable-background="new 0 0 64 64" xml:space="preserve">
<g>
	<path fill="#B47D56" d="M13.111,23.528c2.609,2.695,2.936,6.727,0.73,9.006c-2.205,2.277-6.107,1.941-8.715-0.754
		c-2.609-2.695-2.936-6.729-0.73-9.008C6.602,20.495,10.504,20.833,13.111,23.528z"/>
	<path fill="#FF4848" d="M62.002,62.999h-60c0-34.615,13.432-37.904,30-37.904C48.568,25.095,62.002,28.384,62.002,62.999z"/>
	<path fill="#B47D56" d="M54.232,19.056c0,13.588-2.549,24.605-22.23,24.605S9.771,32.644,9.771,19.056
		C9.771,14.69,54.232,14.69,54.232,19.056z"/>
	<g>
		<path fill="#FFFFFF" d="M26.213,25.183c0,3.424-2.688,6.199-5.998,6.199c-3.316,0-6.002-2.775-6.002-6.199
			c0-3.422,2.686-6.201,6.002-6.201C23.525,18.981,26.213,21.761,26.213,25.183z"/>
		<g>
			<path fill="#0A84A5" d="M24.713,25.183c0,2.566-2.016,4.648-4.502,4.648c-2.484,0-4.5-2.082-4.5-4.648
				c0-2.57,2.016-4.65,4.5-4.65C22.697,20.532,24.713,22.612,24.713,25.183z"/>
			<path fill="#231F20" d="M21.712,25.184c0,0.854-0.673,1.546-1.501,1.546s-1.499-0.692-1.499-1.546
				c0-0.855,0.671-1.554,1.499-1.554S21.712,24.328,21.712,25.184z"/>
		</g>
	</g>
	<g>
		<ellipse fill="#FFFFFF" cx="43.791" cy="25.185" rx="6" ry="6.197"/>
		<g>
			<path fill="#0A84A5" d="M48.291,25.183c0,2.566-2.016,4.648-4.5,4.648s-4.5-2.082-4.5-4.648c0-2.57,2.016-4.65,4.5-4.65
				S48.291,22.612,48.291,25.183z"/>
			<ellipse fill="#231F20" cx="43.791" cy="25.184" rx="1.5" ry="1.548"/>
		</g>
	</g>
	<path fill="#E2E9ED" d="M57.316,40.222c0,18.324-10.984,21.693-24.537,21.693c-13.551,0-24.537-3.369-24.537-21.693
		c0-10.322,10.986-10.691,24.537-10.691S57.316,29.899,57.316,40.222z"/>
	<g>
		<g>
			<ellipse fill="#664E27" cx="31.96" cy="36.794" rx="3.522" ry="3.641"/>
			<g>
				<g>
					<path fill="#FFFFFF" d="M49.314,22.743c-2.959-0.244,6.08,7.404-8.152,6.313c-4.982-0.383-9.203,3.258-9.203,6.518
						c0,3.936,4.053,6.928,10.299,6.928c7.344,0,12.637-4.508,13.684-10.945C56.398,28.755,54.275,23.151,49.314,22.743z"/>
					<path fill="#FFFFFF" d="M22.842,29.056c-14.232,1.092-5.193-6.557-8.152-6.313c-4.959,0.408-7.084,6.012-6.627,8.813
						c1.047,6.438,6.342,10.945,13.684,10.945c6.246,0,10.299-2.992,10.299-6.928C32.045,32.313,27.824,28.673,22.842,29.056z"/>
				</g>
				<g>
					<g>
						<path fill="#734C31" d="M42.836,30.519c0.27,1.084-0.73,2.285-2.23,2.684S37.67,33.044,37.4,31.96s0.73-2.285,2.23-2.684
							C41.133,28.878,42.566,29.433,42.836,30.519z"/>
						<path fill="#734C31" d="M21.252,30.519c-0.27,1.084,0.73,2.285,2.23,2.684c1.502,0.398,2.938-0.158,3.205-1.242
							c0.27-1.084-0.729-2.285-2.23-2.684C22.957,28.878,21.521,29.433,21.252,30.519z"/>
					</g>
					<ellipse fill="#935E3E" cx="32.044" cy="29.71" rx="7.519" ry="5.18"/>
				</g>
			</g>
		</g>
		<g>
			<path fill="#FFFFFF" d="M60.002,17.646c0,2.148-1.236,3.891-3.994,3.891H7.994c-2.756,0-3.992-1.742-3.992-3.891l0,0
				c0-2.148,1.236-3.891,3.992-3.891h48.014C58.766,13.755,60.002,15.497,60.002,17.646L60.002,17.646z"/>
			<path fill="#FF4848" d="M42.791,16.815c-17.523-3.518-33.672-3.061-33.672-3.061c0-7.244,12.721-12.756,26.219-12.756
				c14.24,0,24.455,7.531,26.031,20.521c1.934,15.93-11.818,26.314-10.25,22.764C59.203,25.995,49.506,18.165,42.791,16.815z"/>
			<ellipse fill="#FFFFFF" cx="47.903" cy="48.769" rx="6.651" ry="6.873"/>
		</g>
	</g>
</g>
</svg>
