<?xml version="1.0" encoding="utf-8"?>
<!-- Generator: Adobe Illustrator 15.0.0, SVG Export Plug-In . SVG Version: 6.00 Build 0)  -->
<!DOCTYPE svg PUBLIC "-//W3C//DTD SVG 1.1//EN" "http://www.w3.org/Graphics/SVG/1.1/DTD/svg11.dtd">
<svg version="1.1" id="Layer_1" xmlns="http://www.w3.org/2000/svg" xmlns:xlink="http://www.w3.org/1999/xlink" x="0px" y="0px"
	 width="64px" height="64px" viewBox="0 0 64 64" enable-background="new 0 0 64 64" xml:space="preserve">
<g>
	<g>
		<path fill="#D3976E" d="M44.428,18.011h-2.255c0-1.031-0.154-2.048-0.458-3.022c-1.327-4.262-5.222-7.125-9.69-7.125
			c-4.457,0-8.349,2.854-9.684,7.104c-0.308,0.981-0.464,2.005-0.464,3.044h-2.255c0-1.269,0.191-2.521,0.567-3.72
			c0.786-2.5,2.316-4.654,4.428-6.228c2.152-1.606,4.715-2.455,7.407-2.455c2.698,0,5.264,0.852,7.419,2.463
			c2.084,1.557,3.654,3.775,4.425,6.246C44.239,15.509,44.428,16.752,44.428,18.011z"/>
	</g>
	<g>
		<path fill="#FFDD7D" d="M29.885,12.375C27.403,7.396,22.476,4,16.795,4C8.627,4,1.999,11.029,1.999,19.699
			c0,4.013,1.421,7.673,3.756,10.447C5.755,30.146,11.771,14.421,29.885,12.375z"/>
		<path fill="#594640" d="M29.885,12.375c-18.113,2.046-24.13,17.772-24.13,17.772C16.923,29.074,26.199,21.986,29.885,12.375z"/>
	</g>
	<g>
		<path fill="#FFDD7D" d="M34.116,12.375C36.597,7.396,41.526,4,47.206,4c8.171,0,14.795,7.029,14.795,15.699
			c0,4.013-1.42,7.673-3.755,10.447C58.246,30.146,52.229,14.421,34.116,12.375z"/>
		<path fill="#594640" d="M34.116,12.375c18.112,2.046,24.13,17.772,24.13,17.772C47.079,29.074,37.802,21.986,34.116,12.375z"/>
	</g>
	<g>
		<path fill="#42ADE2" d="M42.392,60l-3.361-1.563c1.297-3.144,0.696-4.15-0.214-5.674c-1.044-1.748-2.473-4.141-0.513-8.85
			c0.563-1.352,0.278-1.824-0.488-3.09c-1.01-1.672-2.393-3.963-1.122-8.282c1.315-4.487-1.691-9.83-1.722-9.884l3.12-2.048
			c0.162,0.276,3.937,6.853,2.104,13.091c-0.759,2.587-0.141,3.607,0.713,5.022c0.893,1.476,2.113,3.499,0.755,6.765
			c-1.169,2.807-0.633,3.703,0.252,5.191C42.996,52.484,44.474,54.959,42.392,60z"/>
	</g>
	<g>
		<path fill="#ED4C5C" d="M24.261,59.924c-2.204-4.982-0.791-7.498,0.243-9.334c0.852-1.51,1.365-2.422,0.126-5.193
			c-1.44-3.228-0.27-5.283,0.587-6.785c0.818-1.437,1.409-2.477,0.586-5.04c-1.988-6.185,1.621-12.865,1.776-13.148l3.172,1.963
			l-1.585-0.98l1.587,0.977c-0.029,0.055-2.918,5.446-1.476,9.933c1.375,4.282,0.048,6.61-0.921,8.31
			c-0.733,1.287-1.005,1.768-0.409,3.104c2.077,4.651,0.707,7.083-0.292,8.859c-0.873,1.549-1.45,2.572-0.071,5.679L24.261,59.924z"
			/>
	</g>
	<g>
		<path fill="#C28FEF" d="M5.752,57.488c-0.839-5.383,1.178-7.446,2.651-8.952c1.213-1.239,1.945-1.986,1.466-4.985
			c-0.557-3.488,1.107-5.172,2.322-6.401c1.162-1.175,2.004-2.026,1.87-4.716c-0.318-6.489,4.896-12.006,5.12-12.238l2.556,2.717
			l-1.278-1.358l1.281,1.354c-0.042,0.045-4.229,4.505-3.997,9.212c0.22,4.492-1.663,6.398-3.04,7.79
			c-1.041,1.052-1.429,1.445-1.198,2.89c0.804,5.031-1.15,7.025-2.574,8.482c-1.244,1.27-2.066,2.109-1.54,5.467L5.752,57.488z"/>
	</g>
	<g>
		<path fill="#83BF4F" d="M59.543,57.488c0.839-5.383-1.178-7.446-2.651-8.952c-1.214-1.239-1.945-1.986-1.467-4.985
			c0.558-3.488-1.107-5.172-2.321-6.401c-1.163-1.175-2.003-2.026-1.871-4.716c0.318-6.489-4.896-12.006-5.12-12.238l-2.555,2.717
			l1.278-1.358l-1.281,1.354c0.042,0.045,4.228,4.505,3.997,9.212c-0.221,4.492,1.663,6.398,3.039,7.79
			c1.042,1.052,1.429,1.445,1.199,2.89c-0.804,5.031,1.15,7.025,2.573,8.482c1.244,1.27,2.066,2.109,1.541,5.467L59.543,57.488z"/>
	</g>
	
		<rect x="19.366" y="33.183" transform="matrix(0.7071 -0.7071 0.7071 0.7071 -18.6198 25.4129)" fill="#42ADE2" width="4" height="4"/>
	
		<rect x="47.466" y="53.968" transform="matrix(0.7071 -0.7071 0.7071 0.7071 -25.087 51.3702)" fill="#42ADE2" width="4" height="4"/>
	
		<rect x="16.771" y="43.028" transform="matrix(0.7071 -0.7071 0.7071 0.7071 -26.3414 26.461)" fill="#83BF4F" width="4" height="4"/>
	
		<rect x="30.648" y="26.778" transform="matrix(0.7071 -0.7071 0.7071 0.7071 -10.7864 31.5139)" fill="#83BF4F" width="4" height="4"/>
	
		<rect x="13.943" y="53.968" transform="matrix(0.7071 -0.7071 0.7071 0.7071 -34.9058 27.6655)" fill="#ED4C5C" width="4" height="4"/>
	
		<rect x="45.061" y="43.541" transform="matrix(0.7071 -0.7071 0.7071 0.7071 -18.4186 46.6155)" fill="#ED4C5C" width="4" height="4"/>
	
		<rect x="30.648" y="53.532" transform="matrix(0.7071 -0.7071 0.7071 0.7071 -29.705 39.3503)" fill="#C28FEF" width="4" height="4"/>
	
		<rect x="42.233" y="33.6" transform="matrix(0.7071 -0.7071 0.7071 0.7071 -12.2173 41.7039)" fill="#C28FEF" width="4" height="4"/>
	
		<rect x="31.356" y="41.08" transform="matrix(0.7071 -0.7071 0.7071 0.7071 -20.6926 36.2037)" fill="#ED4C5C" width="4" height="4"/>
</g>
</svg>
