<?xml version="1.0" encoding="utf-8"?>
<!-- Generator: Adobe Illustrator 15.0.0, SVG Export Plug-In . SVG Version: 6.00 Build 0)  -->
<!DOCTYPE svg PUBLIC "-//W3C//DTD SVG 1.1//EN" "http://www.w3.org/Graphics/SVG/1.1/DTD/svg11.dtd">
<svg version="1.1" id="Layer_1" xmlns="http://www.w3.org/2000/svg" xmlns:xlink="http://www.w3.org/1999/xlink" x="0px" y="0px"
	 width="64px" height="64px" viewBox="0 0 64 64" enable-background="new 0 0 64 64" xml:space="preserve">
<g>
	<path fill="#C94747" d="M32.102,2c-0.004,0-0.016,0-0.016,0S19.449,2,17.375,6.904c-0.817,1.93-0.117,7.615,0.126,9.384
		c1.702-3.2,7.454-5.554,14.29-5.554c7.208,0,13.213,2.619,14.53,6.086h0.271V7.099C46.592,4.723,40.313,2,32.102,2z"/>
	<path fill="#FF5760" d="M34.117,2.055c0,0,17.883-0.923,17.883,16.664c0,17.586-31.225,43.186-31.225,43.186l-4.897-11.139
		C15.878,50.767,70.036,6.354,34.117,2.055z"/>
	<path fill="#FF717F" d="M29.755,2.107c0,0-17.755-0.879-17.755,16.708S43.225,62,43.225,62l4.897-11.139
		C48.122,50.861-6.162,6.406,29.755,2.107z"/>
</g>
</svg>
