<?xml version="1.0" encoding="utf-8"?>
<!-- Generator: Adobe Illustrator 15.0.0, SVG Export Plug-In . SVG Version: 6.00 Build 0)  -->
<!DOCTYPE svg PUBLIC "-//W3C//DTD SVG 1.1//EN" "http://www.w3.org/Graphics/SVG/1.1/DTD/svg11.dtd">
<svg version="1.1" id="Layer_1" xmlns="http://www.w3.org/2000/svg" xmlns:xlink="http://www.w3.org/1999/xlink" x="0px" y="0px"
	 width="64px" height="64px" viewBox="0 0 64 64" enable-background="new 0 0 64 64" xml:space="preserve">
<g>
	<path fill="#3E4347" d="M64,27.661l-6.225-6.225l-6.896,6.896c-0.307,0.306-0.803,0.307-1.109,0L35.666,14.229
		c-0.307-0.307-0.307-0.803,0-1.109l6.896-6.896L36.34,0L-0.001,36.339l6.223,6.224l6.682-6.681c0.307-0.306,0.803-0.306,1.11,0
		l14.104,14.104c0.305,0.308,0.305,0.805,0,1.11l-6.68,6.681L27.66,64L64,27.661z M55.756,27.578c-0.279-0.279-0.279-0.731,0-1.009
		l2.102-2.104c0.279-0.278,0.732-0.278,1.012,0l2.102,2.104c0.277,0.277,0.277,0.729,0,1.009l-2.102,2.103
		c-0.279,0.279-0.732,0.279-1.012,0L55.756,27.578z M34.221,6.044c-0.277-0.278-0.277-0.73,0-1.01l2.104-2.102
		c0.279-0.279,0.729-0.279,1.008,0l2.104,2.102c0.279,0.279,0.279,0.731,0,1.01l-2.104,2.104c-0.279,0.277-0.729,0.277-1.008,0
		L34.221,6.044z M8.146,36.324c0.278,0.279,0.278,0.731,0,1.01l-2.103,2.103c-0.279,0.279-0.731,0.278-1.01,0l-2.103-2.103
		c-0.278-0.278-0.278-0.73,0-1.01l2.103-2.103c0.278-0.279,0.73-0.279,1.01,0L8.146,36.324z M42.191,45.347
		c0.279,0.279,0.279,0.731,0,1.01l-2.102,2.103c-0.279,0.278-0.732,0.278-1.01,0l-2.104-2.103c-0.277-0.278-0.277-0.73,0-1.01
		l2.104-2.102c0.277-0.279,0.73-0.279,1.01,0L42.191,45.347z M48.457,39.08c0.279,0.279,0.279,0.731,0,1.01l-2.102,2.103
		c-0.279,0.278-0.73,0.278-1.01,0l-2.102-2.103c-0.279-0.278-0.279-0.73,0-1.01l2.102-2.102c0.279-0.279,0.73-0.279,1.01,0
		L48.457,39.08z M27.955,12.311c-0.277-0.278-0.277-0.73,0-1.009l2.104-2.104c0.277-0.278,0.73-0.278,1.008,0l2.102,2.104
		c0.279,0.278,0.279,0.73,0,1.009l-2.102,2.103c-0.277,0.279-0.73,0.279-1.008,0L27.955,12.311z M49.488,33.845
		c-0.279-0.279-0.279-0.731,0-1.01l2.104-2.103c0.279-0.278,0.73-0.278,1.01,0l2.102,2.103c0.279,0.278,0.279,0.73,0,1.01
		l-2.102,2.103c-0.279,0.278-0.73,0.278-1.01,0L49.488,33.845z M21.711,18.556c-0.279-0.279-0.279-0.73,0-1.01l2.102-2.102
		c0.279-0.279,0.73-0.279,1.01,0l2.102,2.102c0.279,0.279,0.279,0.73,0,1.01l-2.102,2.102c-0.279,0.279-0.73,0.279-1.01,0
		L21.711,18.556z M15.443,24.821c-0.279-0.279-0.279-0.73,0-1.009l2.102-2.103c0.279-0.279,0.732-0.279,1.012,0l2.102,2.103
		c0.277,0.278,0.277,0.729,0,1.009l-2.102,2.103c-0.279,0.279-0.732,0.279-1.012,0L15.443,24.821z M17.342,32.556
		c-0.307-0.307-0.307-0.805,0-1.111l14.102-14.103c0.307-0.308,0.805-0.308,1.111,0l14.104,14.103c0.307,0.307,0.307,0.805,0,1.111
		L32.555,46.657c-0.307,0.308-0.805,0.308-1.111,0L17.342,32.556z M9.196,31.067c-0.277-0.279-0.277-0.73,0-1.01l2.104-2.103
		c0.278-0.278,0.73-0.278,1.01,0l2.103,2.103c0.279,0.279,0.279,0.73,0,1.01L12.31,33.17c-0.279,0.279-0.731,0.279-1.01,0
		L9.196,31.067z M30.732,52.601c-0.279-0.277-0.279-0.729,0-1.008l2.104-2.104c0.277-0.277,0.73-0.277,1.008,0l2.104,2.104
		c0.277,0.278,0.277,0.73,0,1.008l-2.104,2.103c-0.277,0.279-0.73,0.279-1.008,0L30.732,52.601z M24.467,58.868
		c-0.279-0.279-0.279-0.73,0-1.01l2.102-2.103c0.279-0.278,0.73-0.278,1.01,0l2.104,2.103c0.277,0.279,0.277,0.73,0,1.01
		l-2.104,2.102c-0.279,0.279-0.73,0.279-1.01,0L24.467,58.868z"/>
	<path fill="#FFFFFF" d="M32.555,46.657l14.104-14.102c0.307-0.307,0.307-0.805,0-1.111L32.555,17.342
		c-0.307-0.308-0.805-0.308-1.111,0L17.342,31.444c-0.307,0.307-0.307,0.805,0,1.111l14.102,14.102
		C31.75,46.965,32.248,46.965,32.555,46.657z"/>
	<path fill="#FFFFFF" d="M58.869,29.681l2.102-2.103c0.277-0.279,0.277-0.731,0-1.009l-2.102-2.104
		c-0.279-0.278-0.732-0.278-1.012,0l-2.102,2.104c-0.279,0.277-0.279,0.729,0,1.009l2.102,2.103
		C58.137,29.96,58.59,29.96,58.869,29.681z"/>
	<path fill="#FFFFFF" d="M52.602,35.947l2.102-2.103c0.279-0.279,0.279-0.731,0-1.01l-2.102-2.103c-0.279-0.278-0.73-0.278-1.01,0
		l-2.104,2.103c-0.279,0.278-0.279,0.73,0,1.01l2.104,2.103C51.871,36.226,52.322,36.226,52.602,35.947z"/>
	<path fill="#FFFFFF" d="M45.346,36.979l-2.102,2.102c-0.279,0.279-0.279,0.731,0,1.01l2.102,2.103c0.279,0.278,0.73,0.278,1.01,0
		l2.102-2.103c0.279-0.278,0.279-0.73,0-1.01l-2.102-2.102C46.076,36.699,45.625,36.699,45.346,36.979z"/>
	<path fill="#FFFFFF" d="M39.08,43.245l-2.104,2.102c-0.277,0.279-0.277,0.731,0,1.01l2.104,2.103c0.277,0.278,0.73,0.278,1.01,0
		l2.102-2.103c0.279-0.278,0.279-0.73,0-1.01l-2.102-2.102C39.811,42.966,39.357,42.966,39.08,43.245z"/>
	<path fill="#FFFFFF" d="M33.844,54.703l2.104-2.103c0.277-0.277,0.277-0.729,0-1.008l-2.104-2.104c-0.277-0.277-0.73-0.277-1.008,0
		l-2.104,2.104c-0.279,0.278-0.279,0.73,0,1.008l2.104,2.103C33.113,54.982,33.566,54.982,33.844,54.703z"/>
	<path fill="#FFFFFF" d="M27.578,60.97l2.104-2.102c0.277-0.279,0.277-0.73,0-1.01l-2.104-2.103c-0.279-0.278-0.73-0.278-1.01,0
		l-2.102,2.103c-0.279,0.279-0.279,0.73,0,1.01l2.102,2.102C26.848,61.249,27.299,61.249,27.578,60.97z"/>
	<path fill="#FFFFFF" d="M37.332,8.147l2.104-2.104c0.279-0.278,0.279-0.73,0-1.01l-2.104-2.102c-0.279-0.279-0.729-0.279-1.008,0
		l-2.104,2.102c-0.277,0.279-0.277,0.731,0,1.01l2.104,2.104C36.604,8.425,37.053,8.425,37.332,8.147z"/>
	<path fill="#FFFFFF" d="M31.066,14.413l2.102-2.103c0.279-0.278,0.279-0.73,0-1.009l-2.102-2.104c-0.277-0.278-0.73-0.278-1.008,0
		l-2.104,2.104c-0.277,0.278-0.277,0.73,0,1.009l2.104,2.103C30.336,14.692,30.789,14.692,31.066,14.413z"/>
	<path fill="#FFFFFF" d="M24.822,20.657l2.102-2.102c0.279-0.279,0.279-0.73,0-1.01l-2.102-2.102c-0.279-0.279-0.73-0.279-1.01,0
		l-2.102,2.102c-0.279,0.279-0.279,0.73,0,1.01l2.102,2.102C24.092,20.937,24.543,20.937,24.822,20.657z"/>
	<path fill="#FFFFFF" d="M18.557,26.924l2.102-2.103c0.277-0.279,0.277-0.73,0-1.009l-2.102-2.103c-0.279-0.279-0.732-0.279-1.012,0
		l-2.102,2.103c-0.279,0.278-0.279,0.729,0,1.009l2.102,2.103C17.824,27.203,18.277,27.203,18.557,26.924z"/>
	<path fill="#FFFFFF" d="M12.31,33.17l2.103-2.103c0.279-0.279,0.279-0.73,0-1.01l-2.103-2.103c-0.279-0.278-0.731-0.278-1.01,0
		l-2.104,2.103c-0.277,0.279-0.277,0.73,0,1.01L11.3,33.17C11.578,33.449,12.03,33.449,12.31,33.17z"/>
	<path fill="#FFFFFF" d="M5.033,34.222l-2.103,2.103c-0.278,0.279-0.278,0.731,0,1.01l2.103,2.103c0.278,0.278,0.73,0.279,1.01,0
		l2.103-2.103c0.278-0.278,0.278-0.73,0-1.01l-2.103-2.103C5.764,33.942,5.312,33.942,5.033,34.222z"/>
	<path fill="#FFFFFF" d="M28.117,49.985L14.014,35.882c-0.308-0.306-0.804-0.306-1.11,0l-6.682,6.681l15.216,15.214l6.68-6.681
		C28.422,50.79,28.422,50.293,28.117,49.985z"/>
	<path fill="#FFFFFF" d="M35.666,14.229L49.77,28.333c0.307,0.307,0.803,0.306,1.109,0l6.896-6.896L42.563,6.224l-6.896,6.896
		C35.359,13.427,35.359,13.923,35.666,14.229z"/>
</g>
</svg>
