<?xml version="1.0" encoding="utf-8"?>
<!-- Generator: Adobe Illustrator 15.0.0, SVG Export Plug-In . SVG Version: 6.00 Build 0)  -->
<!DOCTYPE svg PUBLIC "-//W3C//DTD SVG 1.1//EN" "http://www.w3.org/Graphics/SVG/1.1/DTD/svg11.dtd">
<svg version="1.1" id="Layer_1" xmlns="http://www.w3.org/2000/svg" xmlns:xlink="http://www.w3.org/1999/xlink" x="0px" y="0px"
	 width="64px" height="64px" viewBox="0 0 64 64" enable-background="new 0 0 64 64" xml:space="preserve">
<g>
	<path fill="#3E4347" d="M20.997,25.047V40c0,6.223,4.76,11,11.003,11c6.244,0,11.003-4.777,11.003-11V25.047H20.997z"/>
	<path fill="#94989B" d="M45,27v-1.953L43.003,25v7H45v-2h2v10.99c0,8.24-6.731,13.943-15,13.943S17,49.23,17,40.99V30h2v2h1.997
		v-6.953H19V27h-5v13.99C14,53.027,22.625,58,32,58s18-4.973,18-17.01V27H45z"/>
	<rect x="29" y="53" fill="#3E4347" width="6" height="6"/>
	<rect x="30" y="58.002" fill="#3E4347" width="4" height="4"/>
	<g>
		<path fill="#D0D0D0" d="M32,0c-6.19,0-11.003,3.808-11.003,10v14.982l22.006,0.064V10C43.003,3.808,38.191,0,32,0z"/>
		<path fill="#94989B" d="M27.865,15h-6.868v3h6.868c0.762,0,1.378-0.67,1.378-1.5C29.243,15.674,28.627,15,27.865,15z"/>
		<path fill="#94989B" d="M27.865,10h-6.868v3h6.868c0.762,0,1.378-0.672,1.378-1.5S28.627,10,27.865,10z"/>
		<path fill="#94989B" d="M36.134,15h6.869v3h-6.869c-0.763,0-1.378-0.67-1.378-1.5C34.756,15.674,35.371,15,36.134,15z"/>
		<path fill="#94989B" d="M36.134,10h6.869v3h-6.869c-0.763,0-1.378-0.672-1.378-1.5S35.371,10,36.134,10z"/>
		<path fill="#94989B" d="M27.865,20h-6.868v3h6.868c0.762,0,1.378-0.672,1.378-1.498C29.243,20.673,28.627,20,27.865,20z"/>
		<path fill="#94989B" d="M36.134,20h6.869v3h-6.869c-0.763,0-1.378-0.672-1.378-1.498C34.756,20.673,35.371,20,36.134,20z"/>
	</g>
	<path fill="#3E4347" d="M46,64H18c0,0,6.297-3,14-3S46,64,46,64z"/>
</g>
</svg>
