<?xml version="1.0" encoding="utf-8"?>
<!-- Generator: Adobe Illustrator 15.0.0, SVG Export Plug-In . SVG Version: 6.00 Build 0)  -->
<!DOCTYPE svg PUBLIC "-//W3C//DTD SVG 1.1//EN" "http://www.w3.org/Graphics/SVG/1.1/DTD/svg11.dtd">
<svg version="1.1" id="Layer_1" xmlns="http://www.w3.org/2000/svg" xmlns:xlink="http://www.w3.org/1999/xlink" x="0px" y="0px"
	 width="64px" height="64px" viewBox="0 0 64 64" enable-background="new 0 0 64 64" xml:space="preserve">
<g>
	<g>
		<path fill="#333333" d="M12.889,2.692c0,7.5,0,57.336,0,58.616c0,3.59,5.563,3.59,5.563,0c0-7.5,0-57.336,0-58.616
			C18.451-0.897,12.889-0.897,12.889,2.692L12.889,2.692z"/>
		<g>
			<g>
				<path fill="#6D7275" d="M4.79,43.183c2.754,0,19.007,0,21.759,0c2.613,0,4.791-2.473,4.791-5.437s-2.178-5.437-4.791-5.437
					c-2.752,0-19.005,0-21.759,0c-2.61,0-4.79,2.473-4.79,5.437S2.179,43.183,4.79,43.183L4.79,43.183z"/>
			</g>
			<g>
				<path fill="#94989B" d="M5.1,40.607c2.682,0,18.458,0,21.139,0c2.544,0,4.665-1.889,4.665-4.149
					c0-2.262-2.121-4.148-4.665-4.148c-2.681,0-18.458,0-21.139,0c-2.543,0-4.665,1.887-4.665,4.148
					C0.436,38.719,2.557,40.607,5.1,40.607L5.1,40.607z"/>
			</g>
		</g>
	</g>
	<path fill="#C7E755" d="M50.922,64H37.73c-4.104,0-4.104-6.547,0-6.547h13.191C55.025,57.453,55.025,64,50.922,64z"/>
	<path fill="#C7E755" d="M52.922,52.51H37.73c-4.104,0-4.104-6.547,0-6.547h15.191C57.025,45.963,57.025,52.51,52.922,52.51z"/>
	<path fill="#C7E755" d="M54.922,41.02H37.73c-4.104,0-4.104-6.547,0-6.547h17.191C59.025,34.473,59.025,41.02,54.922,41.02z"/>
	<path fill="#5B636B" d="M56.922,29.529H37.73c-4.104,0-4.104-6.548,0-6.548h19.191C61.025,22.981,61.025,29.529,56.922,29.529z"/>
	<path fill="#5B636B" d="M58.922,18.038H37.73c-4.104,0-4.104-6.547,0-6.547h21.191C63.025,11.491,63.025,18.038,58.922,18.038z"/>
	<path fill="#5B636B" d="M60.922,6.548H37.73c-4.104,0-4.104-6.547,0-6.547h23.191C65.025,0.001,65.025,6.548,60.922,6.548z"/>
</g>
</svg>
