<?xml version="1.0" encoding="utf-8"?>
<!-- Generator: Adobe Illustrator 15.0.0, SVG Export Plug-In . SVG Version: 6.00 Build 0)  -->
<!DOCTYPE svg PUBLIC "-//W3C//DTD SVG 1.1//EN" "http://www.w3.org/Graphics/SVG/1.1/DTD/svg11.dtd">
<svg version="1.1" id="Layer_1" xmlns="http://www.w3.org/2000/svg" xmlns:xlink="http://www.w3.org/1999/xlink" x="0px" y="0px"
	 width="64px" height="64px" viewBox="0 0 64 64" enable-background="new 0 0 64 64" xml:space="preserve">
<g>
	<rect x="0" fill="#3E4347" width="64" height="64"/>
	<g>
		<g>
			<circle fill="#D0D0D0" cx="49.359" cy="14.371" r="9.629"/>
			<g>
				<circle fill="#94989B" cx="42.748" cy="13.407" r="0.912"/>
				<circle fill="#94989B" cx="49.271" cy="10.602" r="1.509"/>
				<circle fill="#94989B" cx="46.96" cy="18.062" r="1.588"/>
				<circle fill="#94989B" cx="55.844" cy="12.072" r="0.723"/>
				<circle fill="#94989B" cx="53.799" cy="18.644" r="0.566"/>
			</g>
		</g>
		<g>
			<path fill="#699635" d="M15.209,41.661c0.998,3.364,1.756,6.829,2.271,10.293c0.008,0.137,0.017,0.273,0.026,0.41
				C17.72,55.567,17.965,60.382,18.23,64h1.12c0.101-4.071,0.417-9.378,1.002-12.978c0.672-4.131,1.649-8.254,3.079-12.191
				c1.047-2.884,2.33-5.647,3.64-8.43c0.116-0.246,0.071-0.536-0.179-0.682c-0.219-0.128-0.566-0.067-0.682,0.179
				c-1.761,3.741-3.486,7.514-4.674,11.483c-0.628,2.099-1.158,4.229-1.594,6.376c0.127-1.301,0.272-2.599,0.441-3.895
				c0.682-5.237,1.686-10.47,3.18-15.539c1.028-3.484,2.285-6.895,3.557-10.296c0.096-0.255-0.103-0.546-0.348-0.614
				c-0.28-0.077-0.519,0.094-0.614,0.349c-1.826,4.88-3.597,9.788-4.761,14.875c-1.19,5.203-2.028,10.48-2.52,15.794
				c-0.129,1.4-0.234,2.803-0.316,4.207c-0.027-0.221-0.055-0.439-0.084-0.654c-0.006-0.098-0.013-0.195-0.019-0.289
				c-0.192-2.924-0.357-5.85-0.482-8.777c-0.088-2.066-0.155-4.135-0.187-6.202c-0.02-1.326-0.024-2.652,0.001-3.977
				c0.014-0.7,0.035-1.401,0.077-2.1c0.012-0.191,0.023-0.383,0.045-0.573c0.03-0.271-0.25-0.499-0.499-0.499
				c-0.295,0-0.469,0.229-0.499,0.499c-0.025,0.219-0.037,0.439-0.05,0.659c-0.043,0.736-0.063,1.474-0.075,2.21
				c-0.023,1.37-0.015,2.74,0.008,4.111c0.036,2.12,0.108,4.239,0.202,6.358c0.019,0.429,0.041,0.857,0.061,1.285
				c-0.007-0.031-0.015-0.063-0.023-0.094c-0.504-2.035-1.083-4.051-1.795-6.023c-1.082-3-2.425-5.899-3.782-8.783
				c-0.116-0.246-0.463-0.307-0.682-0.179c-0.25,0.146-0.295,0.437-0.179,0.683C12.347,34.01,14.04,37.714,15.209,41.661z"/>
			<path fill="#FFDD7D" d="M27.649,20.091c0.389-0.612,0.86-1.154,1.502-1.809c0,0-0.511,0.179-1.262,0.617
				c0.406-0.674,0.901-1.25,1.595-1.958c0,0-0.512,0.179-1.263,0.617c0.406-0.675,0.9-1.25,1.595-1.958c0,0-0.539,0.188-1.321,0.651
				c0.422-0.739,0.937-1.346,1.68-2.103c0,0-0.514,0.18-1.269,0.621c0.419-0.727,0.93-1.327,1.665-2.076c0,0-0.475,0.167-1.182,0.57
				c0.373-0.562,0.824-1.074,1.422-1.685c0,0-0.482,0.169-1.198,0.58c0.389-0.612,0.861-1.154,1.502-1.809
				c0,0-0.512,0.179-1.263,0.617c0.406-0.674,0.901-1.25,1.595-1.958c0,0-0.511,0.179-1.262,0.617c0.405-0.674,0.9-1.25,1.594-1.957
				c0,0-0.538,0.188-1.32,0.651c0.422-0.739,0.937-1.345,1.68-2.103c0,0-0.515,0.18-1.269,0.62c0.419-0.726,0.93-1.327,1.665-2.075
				c0,0-4.254,0.557-5.202,4.388c-1.177,4.753-3.07,12.398-4.456,17.995c2.399-4.242,5.97-7.636,5.97-7.636
				S28.365,19.68,27.649,20.091z"/>
			<path fill="#FFDD7D" d="M28.218,32.547c0.479-0.543,1.03-1.005,1.768-1.55c0,0-0.533,0.096-1.344,0.411
				c0.506-0.603,1.084-1.094,1.881-1.683c0,0-0.533,0.096-1.344,0.411c0.506-0.603,1.085-1.093,1.881-1.683
				c0,0-0.561,0.102-1.405,0.436c0.532-0.664,1.135-1.182,1.988-1.813c0,0-0.536,0.097-1.35,0.414
				c0.527-0.652,1.126-1.165,1.969-1.789c0,0-0.496,0.089-1.256,0.378c0.456-0.497,0.981-0.932,1.667-1.44
				c0,0-0.502,0.091-1.274,0.385c0.479-0.544,1.03-1.005,1.768-1.551c0,0-0.533,0.097-1.344,0.412
				c0.506-0.602,1.085-1.093,1.881-1.683c0,0-0.533,0.096-1.343,0.411c0.507-0.603,1.085-1.094,1.882-1.683
				c0,0-0.562,0.102-1.406,0.436c0.532-0.664,1.136-1.182,1.988-1.813c0,0-0.535,0.097-1.35,0.413
				c0.528-0.651,1.126-1.165,1.969-1.788c0,0-4.288-0.117-5.825,3.518c-1.907,4.51-4.976,11.763-7.222,17.074
				c3.035-3.813,7.094-6.605,7.094-6.605S28.989,32.253,28.218,32.547z"/>
			<path fill="#FFDD7D" d="M13.401,29.525c-0.076-0.72-0.043-1.438,0.053-2.351c0,0-0.29,0.458-0.606,1.269
				c-0.101-0.781-0.071-1.539,0.033-2.524c0,0-0.29,0.458-0.606,1.268c-0.101-0.78-0.071-1.539,0.033-2.524
				c0,0-0.304,0.481-0.63,1.33c-0.128-0.841-0.102-1.636,0.009-2.691c0,0-0.291,0.46-0.608,1.274
				c-0.123-0.83-0.096-1.617,0.015-2.66c0,0-0.269,0.425-0.571,1.181c-0.057-0.672-0.023-1.353,0.066-2.203
				c0,0-0.272,0.432-0.578,1.199c-0.076-0.721-0.043-1.438,0.053-2.351c0,0-0.29,0.458-0.606,1.268
				c-0.101-0.78-0.071-1.539,0.033-2.524c0,0-0.29,0.458-0.606,1.268c-0.101-0.781-0.071-1.539,0.034-2.524
				c0,0-0.304,0.482-0.63,1.331c-0.128-0.841-0.102-1.636,0.009-2.692c0,0-0.291,0.46-0.608,1.274
				c-0.123-0.829-0.096-1.618,0.015-2.66c0,0-2.986,3.079-1.349,6.67c2.031,4.456,5.299,11.621,7.691,16.867
				c-0.755-4.813-0.067-9.691-0.067-9.691S13.707,28.759,13.401,29.525z"/>
			<path fill="#FFDD7D" d="M19.438,32.075c0.196-0.698,0.491-1.353,0.917-2.165c0,0-0.438,0.318-1.031,0.955
				c0.194-0.763,0.501-1.457,0.963-2.334c0,0-0.438,0.319-1.031,0.955c0.193-0.762,0.501-1.456,0.962-2.334
				c0,0-0.461,0.335-1.077,1.004c0.192-0.829,0.509-1.558,1.002-2.498c0,0-0.439,0.32-1.035,0.959
				c0.191-0.816,0.508-1.539,0.995-2.467c0,0-0.406,0.296-0.967,0.887c0.195-0.646,0.479-1.266,0.876-2.023
				c0,0-0.413,0.301-0.98,0.901c0.196-0.698,0.491-1.353,0.917-2.165c0,0-0.438,0.319-1.03,0.955
				c0.194-0.763,0.501-1.457,0.962-2.334c0,0-0.438,0.318-1.03,0.955c0.193-0.763,0.501-1.457,0.961-2.334
				c0,0-0.46,0.335-1.076,1.004c0.19-0.83,0.508-1.559,1.002-2.498c0,0-0.44,0.32-1.035,0.959c0.191-0.816,0.507-1.539,0.995-2.467
				c0,0-3.913,1.759-3.716,5.701c0.244,4.891,0.636,12.757,0.922,18.516c1.075-4.754,3.516-9.034,3.516-9.034
				S20.005,31.476,19.438,32.075z"/>
		</g>
		<g>
			<circle fill="#FFFFFF" cx="44.254" cy="43.499" r="3.367"/>
			<circle fill="#FFFFFF" cx="49.454" cy="43.421" r="3.367"/>
			<circle fill="#FFFFFF" cx="54.463" cy="43.421" r="3.367"/>
			<circle fill="#FFFFFF" cx="46.758" cy="39.388" r="3.367"/>
			<circle fill="#FFFFFF" cx="51.959" cy="39.31" r="3.367"/>
			<circle fill="#FFFFFF" cx="49.358" cy="35.941" r="3.367"/>
			<rect x="38.832" y="44.81" fill="#FED0AC" width="21.054" height="4.112"/>
			<rect x="40.887" y="46.866" fill="#FED0AC" width="17.135" height="17.134"/>
			<rect x="38.832" y="44.81" fill="#D3976E" width="2.055" height="4.112"/>
			<rect x="57.83" y="44.81" fill="#D3976E" width="2.056" height="4.112"/>
			<rect x="40.887" y="48.922" fill="#D3976E" width="2.057" height="15.078"/>
			<rect x="55.967" y="48.922" fill="#D3976E" width="2.055" height="15.078"/>
			<rect x="40.887" y="48.922" fill="#89664C" width="2.057" height="2.056"/>
			<rect x="55.967" y="48.922" fill="#89664C" width="2.055" height="2.056"/>
			<rect x="42.943" y="48.922" fill="#D3976E" width="13.023" height="2.056"/>
			<path fill="#3E4347" d="M50.883,54.583c0.008-0.047,0.013-0.096,0.013-0.144c0-0.744,0-1.347-1.536-1.347
				c-1.537,0-1.537,0.603-1.537,1.347c0,0.048,0.004,0.097,0.013,0.144c-1.549,0.361-1.549,1.367-1.549,2.551
				c0,1.489,2.114,2.695,3.073,2.695c1.09,0,3.071-1.206,3.071-2.695C52.431,55.95,52.431,54.944,50.883,54.583z"/>
			<path fill="#D0D0D0" d="M48.396,40.753c-0.096-0.018-0.195-0.026-0.296-0.026c-0.533,0-1.009,0.248-1.317,0.634
				c-0.308-0.363-0.768-0.595-1.283-0.595c-0.131,0-0.258,0.016-0.38,0.044c0.161,0.635,0.684,1.125,1.335,1.24
				c-0.024,0.116-0.039,0.236-0.039,0.361c0,0.414,0.151,0.794,0.4,1.088c0.23-0.288,0.367-0.653,0.367-1.051
				c0-0.143-0.018-0.282-0.052-0.415C47.764,41.888,48.259,41.388,48.396,40.753z"/>
			<path fill="#D0D0D0" d="M53.596,40.675c-0.096-0.017-0.194-0.025-0.295-0.025c-0.533,0-1.009,0.248-1.316,0.633
				c-0.309-0.363-0.77-0.595-1.283-0.595c-0.132,0-0.259,0.016-0.381,0.044c0.162,0.635,0.684,1.125,1.336,1.24
				c-0.025,0.117-0.04,0.237-0.04,0.361c0,0.414,0.151,0.794,0.399,1.088c0.23-0.288,0.368-0.652,0.368-1.049
				c0-0.145-0.019-0.283-0.052-0.417C52.963,41.81,53.459,41.31,53.596,40.675z"/>
			<path fill="#D0D0D0" d="M50.996,36.642c-0.096-0.017-0.194-0.026-0.295-0.026c-0.534,0-1.009,0.247-1.317,0.634
				c-0.308-0.364-0.769-0.595-1.283-0.595c-0.132,0-0.259,0.016-0.38,0.043c0.161,0.636,0.684,1.126,1.335,1.241
				c-0.026,0.116-0.04,0.236-0.04,0.359c0,0.416,0.151,0.795,0.4,1.09c0.23-0.289,0.367-0.653,0.367-1.051
				c0-0.143-0.018-0.282-0.051-0.415C50.363,37.776,50.859,37.275,50.996,36.642z"/>
		</g>
	</g>
</g>
</svg>
