<?xml version="1.0" encoding="utf-8"?>
<!-- Generator: Adobe Illustrator 15.0.0, SVG Export Plug-In . SVG Version: 6.00 Build 0)  -->
<!DOCTYPE svg PUBLIC "-//W3C//DTD SVG 1.1//EN" "http://www.w3.org/Graphics/SVG/1.1/DTD/svg11.dtd">
<svg version="1.1" id="Layer_1" xmlns="http://www.w3.org/2000/svg" xmlns:xlink="http://www.w3.org/1999/xlink" x="0px" y="0px"
	 width="64px" height="64px" viewBox="0 0 64 64" enable-background="new 0 0 64 64" xml:space="preserve">
<g>
	<g>
		<g>
			<g>
				<path fill="#5F6262" d="M40.688,10.891h4.073c-0.324-14.521-20.02-14.521-20.344,0h4.073
					C28.863,1.631,40.316,1.631,40.688,10.891z"/>
			</g>
		</g>
	</g>
	<g>
		<g>
			<g>
				<path fill="#5F6262" d="M45.545,10.846v2.697c7.256,1.264,13.756,7.306,13.756,18.15v14.752c0,5.012-6.471,5.982-13.756,5.982
					v2.443c8.195,0,18.455-1.09,18.455-6.727V31.547C64,17.875,54.818,10.981,45.545,10.846z"/>
			</g>
		</g>
	</g>
	<path fill="#428BC1" d="M34.028,6.319c-3.799,0-15.008,2.178-15.008,2.178S9.588,19.916,9.588,32.632v21.095
		c0,6.063,6.055,7.982,14.224,8.432l0.924,1.831c0,0,32.476,0.724,32.476-10.263V32.632C57.211,15.391,46.051,6.319,34.028,6.319z"
		/>
	<path fill="#42ADE2" d="M47.623,55.438c0,7.165-8.443,8.552-18.86,8.552h-9.901C8.444,63.99,0,62.604,0,55.438V34.344
		c0-35.104,47.623-35.104,47.623,0V55.438z"/>
	<g>
		<path fill="#5F6262" d="M47.623,45.158L9.588,53.728c0,6.063,6.055,7.982,14.224,8.432l0.924,1.831
			c0,0,32.476,0.724,32.476-10.263V43.448L47.623,45.158z"/>
		<path fill="#7E8484" d="M47.623,55.438c0,7.165-8.443,8.552-18.86,8.552h-9.901C8.444,63.99,0,62.604,0,55.438v-10.28h47.623
			V55.438z"/>
	</g>
	<path fill="#428BC1" d="M44.031,52.397c0,2.939-2.363,5.32-5.279,5.32H7.88c-2.916,0-5.278-2.381-5.278-5.32V34.172
		c0-2.939,2.362-5.321,5.278-5.321h30.872c2.916,0,5.279,2.382,5.279,5.321V52.397z"/>
	<path fill="#42ADE2" d="M43.044,51.957c0,2.8-2.249,5.067-5.026,5.067H8.614c-2.776,0-5.026-2.268-5.026-5.067V34.601
		c0-2.799,2.25-5.068,5.026-5.068h29.403c2.777,0,5.026,2.269,5.026,5.068V51.957z"/>
	<g>
		<g>
			<g>
				<g>
					<polyline fill="#428BC1" points="43.044,43.285 3.588,43.285 3.588,38.569 43.044,38.569 					"/>
				</g>
				<g>
					<g>
						<rect x="3.588" y="39.243" fill="#93CED6" width="39.456" height="3.367"/>
					</g>
				</g>
				<g>
					<rect x="3.588" y="39.916" fill="#42ADE2" width="39.456" height="2.021"/>
				</g>
			</g>
			<g>
				<g>
					<g>
						<rect x="4.354" y="37.221" fill="#93CED6" width="2.314" height="0.675"/>
					</g>
					<g>
						<rect x="7.586" y="37.221" fill="#93CED6" width="2.314" height="0.675"/>
					</g>
					<g>
						<rect x="10.816" y="37.221" fill="#93CED6" width="2.315" height="0.675"/>
					</g>
					<g>
						<rect x="14.047" y="37.221" fill="#93CED6" width="2.314" height="0.675"/>
					</g>
					<g>
						<rect x="17.279" y="37.221" fill="#93CED6" width="2.313" height="0.675"/>
					</g>
					<g>
						<rect x="20.509" y="37.221" fill="#93CED6" width="2.314" height="0.675"/>
					</g>
					<g>
						<rect x="23.74" y="37.221" fill="#93CED6" width="2.315" height="0.675"/>
					</g>
					<g>
						<rect x="26.971" y="37.221" fill="#93CED6" width="2.314" height="0.675"/>
					</g>
					<g>
						<rect x="30.202" y="37.221" fill="#93CED6" width="2.315" height="0.675"/>
					</g>
					<g>
						<rect x="33.434" y="37.221" fill="#93CED6" width="2.313" height="0.675"/>
					</g>
					<g>
						<rect x="36.664" y="37.221" fill="#93CED6" width="2.314" height="0.675"/>
					</g>
					<g>
						<rect x="39.895" y="37.221" fill="#93CED6" width="2.314" height="0.675"/>
					</g>
				</g>
			</g>
			<g>
				<g>
					<g>
						<rect x="4.354" y="43.958" fill="#93CED6" width="2.314" height="0.675"/>
					</g>
				</g>
				<g>
					<g>
						<rect x="7.586" y="43.958" fill="#93CED6" width="2.314" height="0.675"/>
					</g>
				</g>
				<g>
					<g>
						<rect x="10.816" y="43.958" fill="#93CED6" width="2.315" height="0.675"/>
					</g>
				</g>
				<g>
					<g>
						<rect x="14.047" y="43.958" fill="#93CED6" width="2.314" height="0.675"/>
					</g>
				</g>
				<g>
					<g>
						<rect x="17.279" y="43.958" fill="#93CED6" width="2.313" height="0.675"/>
					</g>
				</g>
				<g>
					<g>
						<rect x="20.509" y="43.958" fill="#93CED6" width="2.314" height="0.675"/>
					</g>
				</g>
				<g>
					<g>
						<rect x="23.74" y="43.958" fill="#93CED6" width="2.315" height="0.675"/>
					</g>
				</g>
				<g>
					<g>
						<rect x="26.971" y="43.958" fill="#93CED6" width="2.314" height="0.675"/>
					</g>
				</g>
				<g>
					<rect x="30.202" y="43.958" fill="#93CED6" width="2.315" height="0.675"/>
				</g>
				<g>
					<rect x="33.434" y="43.958" fill="#93CED6" width="2.313" height="0.675"/>
				</g>
				<g>
					<rect x="36.664" y="43.958" fill="#93CED6" width="2.314" height="0.675"/>
				</g>
				<g>
					<rect x="39.895" y="43.958" fill="#93CED6" width="2.314" height="0.675"/>
				</g>
			</g>
		</g>
		<g>
			<g>
				<ellipse fill="#FFFFFF" cx="33.099" cy="41.133" rx="2.278" ry="1.875"/>
				<path fill="#C9C9C9" d="M33.1,43.346c-1.438,0-2.605-0.993-2.605-2.213c0-1.221,1.168-2.214,2.605-2.214
					c1.436,0,2.605,0.993,2.605,2.214C35.705,42.353,34.535,43.346,33.1,43.346z M33.1,39.593c-1.076,0-1.951,0.691-1.951,1.54
					c0,0.848,0.875,1.538,1.951,1.538s1.951-0.69,1.951-1.538C35.051,40.284,34.176,39.593,33.1,39.593z"/>
			</g>
			<g>
				<rect x="32.551" y="40.339" fill="#C9C9C9" width="2.803" height="1.588"/>
			</g>
			<g>
				<path fill="#FFFFFF" d="M35.201,47.368c0.146,0.832-0.233,1.631-0.873,1.631h-1.35c-0.639,0-1.018-0.799-0.873-1.631l0.596-3.42
					c0.05-0.273,0.329-0.475,0.632-0.475h0.64c0.303,0,0.584,0.201,0.631,0.475L35.201,47.368z"/>
				<path fill="#C9C9C9" d="M34.328,49.337h-1.35c-0.328,0-0.631-0.152-0.854-0.426c-0.318-0.396-0.447-0.994-0.342-1.602
					l0.597-3.422c0.077-0.428,0.487-0.75,0.953-0.75h0.64c0.469,0,0.879,0.322,0.953,0.751l0.598,3.421
					c0.105,0.607-0.021,1.206-0.342,1.601C34.959,49.185,34.656,49.337,34.328,49.337z M33.333,43.811
					c-0.161,0-0.292,0.104-0.31,0.198l-0.596,3.42c-0.07,0.4,0.008,0.814,0.199,1.05c0.1,0.123,0.217,0.184,0.352,0.184h1.35
					c0.135,0,0.252-0.061,0.352-0.184c0.191-0.237,0.27-0.649,0.2-1.05l-0.599-3.422c-0.016-0.093-0.146-0.196-0.309-0.196H33.333z"
					/>
			</g>
			<g>
				<rect x="33.354" y="40.058" fill="#9B9596" width="0.598" height="4.129"/>
			</g>
		</g>
	</g>
	<g>
		<g>
			
				<rect x="41.047" y="16.654" transform="matrix(0.7072 0.707 -0.707 0.7072 24.7652 -24.9024)" fill="#C9C9C9" width="2.802" height="1.588"/>
		</g>
		<g>
			<path fill="#FFFFFF" d="M43.757,24.486c0.146,0.832-0.233,1.631-0.874,1.631h-1.35c-0.639,0-1.018-0.799-0.872-1.631l0.596-3.42
				c0.05-0.273,0.329-0.475,0.632-0.475h0.639c0.303,0,0.584,0.201,0.632,0.475L43.757,24.486z"/>
			<path fill="#C9C9C9" d="M42.883,26.455h-1.35c-0.327,0-0.63-0.152-0.853-0.426c-0.319-0.396-0.448-0.994-0.342-1.602l0.597-3.422
				c0.076-0.428,0.486-0.75,0.953-0.75h0.639c0.47,0,0.879,0.322,0.953,0.751l0.598,3.421c0.106,0.607-0.021,1.206-0.342,1.601
				C43.514,26.303,43.211,26.455,42.883,26.455z M41.889,20.929c-0.162,0-0.293,0.104-0.31,0.198l-0.597,3.42
				c-0.07,0.4,0.008,0.814,0.2,1.05c0.1,0.123,0.216,0.184,0.351,0.184h1.35c0.135,0,0.253-0.061,0.352-0.184
				c0.191-0.237,0.271-0.649,0.201-1.05l-0.599-3.422c-0.016-0.093-0.146-0.196-0.31-0.196H41.889z"/>
		</g>
		<g>
			<rect x="41.91" y="17.176" fill="#9B9596" width="0.598" height="4.129"/>
		</g>
	</g>
</g>
</svg>
