<?xml version="1.0" encoding="utf-8"?>
<!-- Generator: Adobe Illustrator 15.0.0, SVG Export Plug-In . SVG Version: 6.00 Build 0)  -->
<!DOCTYPE svg PUBLIC "-//W3C//DTD SVG 1.1//EN" "http://www.w3.org/Graphics/SVG/1.1/DTD/svg11.dtd">
<svg version="1.1" id="Layer_1" xmlns="http://www.w3.org/2000/svg" xmlns:xlink="http://www.w3.org/1999/xlink" x="0px" y="0px"
	 width="64px" height="64px" viewBox="0 0 64 64" enable-background="new 0 0 64 64" xml:space="preserve">
<g>
	<path fill="#596066" d="M13.128,30.182v6.812c0,14.035,37.743,14.035,37.743,0v-6.812H13.128z"/>
	<polygon fill="#3E4347" points="62,25.445 32,38.947 2,25.445 32,11.942 	"/>
	<path fill="#FFCE31" d="M31.869,24.828c-4.586,2.065-14.585,6.565-14.999,6.752c-0.209,0.093-0.361,0.317-0.361,0.617
		c0,2.25,0,4.502,0,6.75c0,0.826,0.982,0.826,0.982,0c0-2.098,0-4.197,0-6.295c4.466-2.009,14.226-6.402,14.64-6.589
		C32.725,25.795,32.469,24.559,31.869,24.828z"/>
	<ellipse fill="#FFCE31" cx="17" cy="38.947" rx="1.875" ry="2.445"/>
	<path fill="#FFCE31" d="M17,51.943c1.035,0,1.875-0.547,1.875-1.223V38.947h-3.75v11.773C15.125,51.396,15.965,51.943,17,51.943z"
		/>
	<g>
		<path fill="#594640" d="M18.277,39.154c-0.063,0.049-0.128,0.092-0.197,0.133v12.432c0.069-0.031,0.135-0.066,0.197-0.105V39.154z
			"/>
		<path fill="#594640" d="M17.491,39.512c-0.064,0.016-0.13,0.025-0.196,0.035v12.381c0.066-0.008,0.132-0.018,0.196-0.029V39.512z"
			/>
		<path fill="#594640" d="M16.705,39.547c-0.066-0.01-0.132-0.02-0.196-0.035v12.387c0.064,0.012,0.13,0.021,0.196,0.029V39.547z"/>
		<path fill="#594640" d="M15.92,39.287c-0.069-0.041-0.135-0.084-0.196-0.133v12.459c0.062,0.039,0.127,0.074,0.196,0.105V39.287z"
			/>
	</g>
</g>
</svg>
