<?xml version="1.0" encoding="utf-8"?>
<!-- Generator: Adobe Illustrator 15.0.0, SVG Export Plug-In . SVG Version: 6.00 Build 0)  -->
<!DOCTYPE svg PUBLIC "-//W3C//DTD SVG 1.1//EN" "http://www.w3.org/Graphics/SVG/1.1/DTD/svg11.dtd">
<svg version="1.1" id="Layer_1" xmlns="http://www.w3.org/2000/svg" xmlns:xlink="http://www.w3.org/1999/xlink" x="0px" y="0px"
	 width="64px" height="64px" viewBox="0 0 64 64" enable-background="new 0 0 64 64" xml:space="preserve">
<g>
	<g>
		<g>
			<path fill="#6ADBC6" d="M29.197,19.287C25.813,8.826,16.025,9.499,16.025,9.499S6.24,8.826,2.857,19.287
				c-3.384,10.466,4.347,20.224,4.347,20.224l0,0c0.056,0.632,4.154,1.143,9.201,1.143c5.046,0,9.143-0.511,9.198-1.143h0.016
				C25.618,39.511,32.581,29.753,29.197,19.287z"/>
		</g>
		<g>
			<rect x="15.577" y="2" fill="#ED4C5C" width="0.967" height="7.49"/>
		</g>
		<g>
			<ellipse fill="#ED4C5C" cx="16.061" cy="6.607" rx="1.485" ry="1.457"/>
		</g>
		<g>
			<rect x="14.576" y="8.064" fill="#6ADBC6" width="2.971" height="1.632"/>
		</g>
		<g>
			<rect x="14.653" y="40.599" fill="#6ADBC6" width="2.87" height="3.589"/>
		</g>
		<g>
			<rect x="15.604" y="10.324" fill="#FFC7CE" width="0.967" height="33.863"/>
		</g>
		<g>
			<path fill="#FFFFFF" d="M16.318,39.711c-2.229,0-4.323-0.11-5.903-0.31c-0.783-0.098-1.4-0.215-1.837-0.343
				c-0.278-0.084-0.925-0.276-0.925-0.768c0-0.49,0.647-0.687,0.925-0.765c0.437-0.13,1.054-0.244,1.837-0.347
				c1.58-0.195,3.673-0.306,5.903-0.306c2.227,0,4.324,0.11,5.903,0.306c0.783,0.103,1.4,0.217,1.836,0.347
				c0.278,0.078,0.926,0.274,0.926,0.765c0,0.491-0.647,0.684-0.926,0.768c-0.436,0.128-1.053,0.245-1.836,0.343
				C20.643,39.601,18.545,39.711,16.318,39.711z M8.661,38.291c0.311,0.108,0.946,0.263,2.215,0.407
				c1.502,0.165,3.434,0.256,5.442,0.256s3.94-0.091,5.44-0.256c1.271-0.145,1.906-0.299,2.218-0.407
				c-0.312-0.105-0.946-0.262-2.218-0.406c-1.5-0.164-3.432-0.258-5.44-0.258s-3.94,0.094-5.442,0.258
				C9.606,38.029,8.972,38.186,8.661,38.291z"/>
		</g>
	</g>
	<g>
		<path fill="#ED4C5C" d="M26.634,49.534c-8.804,1.084-11.029-5.347-11.029-5.347h0.967c0,0,2.24,5.654,10.414,4.438L26.634,49.534z
			"/>
	</g>
	<g>
		
			<rect x="26.421" y="42.72" transform="matrix(0.9216 0.3881 -0.3881 0.9216 21.226 -6.5054)" fill="#ED4C5C" width="0.591" height="13.143"/>
	</g>
	<g>
		<path fill="#E6EFF4" d="M24.424,55.454c0,0,7.026,6.027,18.806,3.926C55.008,57.279,59.746,62,59.746,62L62,48.153
			c0,0-4.352-5.035-20.105-1.58c-9.635,2.113-12.337-3.214-12.337-3.214L24.424,55.454z"/>
	</g>
	<g>
		<path fill="#F46767" d="M36.183,53.359c0.451,0.825-0.115,2.009-1.268,2.639c-1.153,0.63-2.453,0.471-2.906-0.357
			c-0.452-0.826,0.115-2.007,1.268-2.639C34.429,52.372,35.729,52.528,36.183,53.359z"/>
	</g>
	<g>
		
			<ellipse transform="matrix(0.8772 -0.4801 0.4801 0.8772 -17.4882 29.9693)" fill="#F46767" cx="49.848" cy="49.175" rx="3.455" ry="2.506"/>
	</g>
	<g>
		
			<ellipse transform="matrix(0.8773 -0.4799 0.4799 0.8773 -19.388 25.1597)" fill="#83BF4F" cx="39.514" cy="50.5" rx="1.816" ry="1.295"/>
	</g>
	<g>
		
			<ellipse transform="matrix(0.8774 -0.4798 0.4798 0.8774 -21.1925 28.1704)" fill="#83BF4F" cx="44.513" cy="55.543" rx="2.48" ry="1.847"/>
	</g>
	<g>
		
			<ellipse transform="matrix(0.8773 -0.4799 0.4799 0.8773 -19.4182 33.0725)" fill="#83BF4F" cx="54.975" cy="54.515" rx="1.905" ry="1.771"/>
	</g>
</g>
</svg>
