<?xml version="1.0" encoding="utf-8"?>
<!-- Generator: Adobe Illustrator 15.0.0, SVG Export Plug-In . SVG Version: 6.00 Build 0)  -->
<!DOCTYPE svg PUBLIC "-//W3C//DTD SVG 1.1//EN" "http://www.w3.org/Graphics/SVG/1.1/DTD/svg11.dtd">
<svg version="1.1" id="Layer_1" xmlns="http://www.w3.org/2000/svg" xmlns:xlink="http://www.w3.org/1999/xlink" x="0px" y="0px"
	 width="64px" height="64px" viewBox="0 0 64 64" enable-background="new 0 0 64 64" xml:space="preserve">
<g>
	<g>
		<path fill="#FBBF67" d="M64,41.676l-0.927-2.548c-0.007,0.002-0.012,0.006-0.02,0.009c-0.701,0.255-1.478-0.107-1.734-0.811
			c-0.255-0.703,0.105-1.479,0.809-1.736c0.007-0.001,0.014-0.004,0.021-0.007l-0.927-2.546c-0.006,0.002-0.013,0.006-0.019,0.008
			c-0.703,0.256-1.479-0.107-1.736-0.811c-0.255-0.703,0.107-1.479,0.81-1.736c0.007-0.001,0.014-0.003,0.02-0.006l-0.926-2.547
			c-0.007,0.002-0.014,0.005-0.02,0.008c-0.703,0.255-1.479-0.107-1.733-0.809c-0.257-0.703,0.105-1.481,0.808-1.737
			c0.006-0.003,0.014-0.004,0.02-0.006l-0.926-2.547c-0.007,0.001-0.015,0.004-0.021,0.006c-0.681,0.248-1.43-0.085-1.708-0.745
			c-2.698,0.321-5.361-1.236-6.331-3.901L12.155,32.802c1.132,3.109-0.472,6.546-3.579,7.68l7.253,19.938
			c3.107-1.131,6.543,0.471,7.673,3.581l37.306-13.588c-0.975-2.677,0.08-5.602,2.381-7.082C62.985,42.655,63.335,41.929,64,41.676z
			"/>
		<g>
			<g>
				<path fill="#FF5555" d="M56.557,46.713l-32.176,11.72c-1.723,0.627-3.636-0.264-4.265-1.989l-5.7-15.675
					c-0.628-1.726,0.265-3.64,1.987-4.268L48.58,24.782c1.725-0.628,3.637,0.265,4.264,1.989l5.701,15.676
					C59.172,44.172,58.28,46.085,56.557,46.713z M16.974,38.065c-0.863,0.315-1.308,1.271-0.995,2.134l5.702,15.676
					c0.313,0.86,1.269,1.307,2.13,0.994L55.987,45.15c0.862-0.315,1.309-1.271,0.996-2.135l-5.701-15.675
					c-0.313-0.861-1.272-1.308-2.133-0.994L16.974,38.065z"/>
			</g>
		</g>
		<g>
			<g>
				<path fill="#89664C" d="M30.883,43.097l-0.896,0.327c-0.079,0.029-0.16-0.01-0.2-0.084l-0.465-1.037l-0.613,0.223l0.31,1.096
					c0.019,0.081-0.02,0.163-0.097,0.192l-0.898,0.326c-0.079,0.029-0.149-0.014-0.169-0.096l-1.672-6.903
					c-0.021-0.081,0.028-0.166,0.105-0.195l1.304-0.475c0.078-0.029,0.17,0.005,0.208,0.08l3.152,6.364
					C30.99,42.99,30.964,43.069,30.883,43.097z M28.84,41.226l-1.161-2.606L27.6,38.646l0.786,2.744L28.84,41.226z"/>
				<path fill="#89664C" d="M32.813,37.096l1.249,3.436c0.248,0.682-0.11,1.448-0.791,1.697l-1.479,0.539
					c-0.078,0.029-0.161-0.011-0.188-0.088l-2.054-5.648c-0.029-0.078,0.009-0.16,0.086-0.188l1.482-0.539
					C31.798,36.056,32.563,36.413,32.813,37.096z M31.675,37.566c-0.047-0.13-0.195-0.198-0.322-0.151l-0.315,0.114l1.387,3.811
					l0.315-0.115c0.126-0.046,0.196-0.193,0.149-0.322L31.675,37.566z"/>
				<path fill="#89664C" d="M37.046,34.301l2.055,5.647c0.029,0.079-0.008,0.16-0.089,0.188l-0.945,0.346
					c-0.079,0.028-0.161-0.011-0.189-0.089l-0.955-2.624l0.205,2.586c0.004,0.076-0.056,0.097-0.101,0.036l-1.506-2.112l0.955,2.625
					c0.029,0.079-0.008,0.16-0.088,0.189l-0.945,0.346c-0.08,0.028-0.161-0.01-0.189-0.089l-2.054-5.647
					c-0.029-0.078,0.009-0.16,0.089-0.189l0.837-0.306c0.078-0.029,0.175,0.016,0.218,0.078l1.886,2.757l-0.326-3.324
					c-0.005-0.077,0.038-0.171,0.117-0.199l0.839-0.306C36.938,34.185,37.018,34.223,37.046,34.301z"/>
				<path fill="#89664C" d="M41.144,39.202c0.027,0.079-0.009,0.161-0.089,0.19l-0.877,0.321c-0.08,0.027-0.161-0.011-0.189-0.089
					l-2.055-5.648c-0.027-0.078,0.009-0.16,0.089-0.189l0.877-0.317c0.081-0.03,0.162,0.008,0.19,0.087L41.144,39.202z"/>
				<path fill="#89664C" d="M42.601,32.277l0.319,0.878c0.029,0.08-0.008,0.16-0.087,0.188L42.132,33.6l1.685,4.631
					c0.028,0.078-0.009,0.159-0.088,0.189l-0.878,0.318c-0.068,0.026-0.161-0.01-0.188-0.088l-1.685-4.631l-0.689,0.253
					c-0.078,0.028-0.161-0.008-0.19-0.089l-0.319-0.878c-0.027-0.078,0.011-0.16,0.09-0.188l2.544-0.928
					C42.491,32.16,42.572,32.199,42.601,32.277z"/>
			</g>
			<g>
				<path fill="#89664C" d="M35.731,50.254l-0.375,0.139c-0.681,0.247-1.446-0.111-1.694-0.793l-1.659-4.561
					c-0.248-0.681,0.108-1.449,0.79-1.698l0.374-0.137c0.682-0.247,1.448,0.11,1.695,0.794l1.659,4.559
					C36.771,49.239,36.412,50.007,35.731,50.254z M33.404,44.315l-0.079,0.028c-0.129,0.048-0.198,0.197-0.151,0.324l1.624,4.465
					c0.046,0.127,0.195,0.194,0.322,0.148l0.078-0.028c0.129-0.047,0.198-0.196,0.153-0.324l-1.624-4.462
					C33.682,44.338,33.532,44.27,33.404,44.315z"/>
				<path fill="#89664C" d="M38.791,42.511l2.055,5.646c0.027,0.078-0.01,0.159-0.088,0.188l-0.633,0.23
					c-0.077,0.028-0.188,0.001-0.233-0.059l-1.982-2.196l0.933,2.566c0.028,0.079-0.008,0.16-0.088,0.188l-0.877,0.32
					c-0.081,0.03-0.16-0.01-0.188-0.086l-2.055-5.647c-0.028-0.081,0.008-0.161,0.087-0.19l0.652-0.236
					c0.078-0.028,0.188-0.003,0.234,0.06l2.07,2.498l-1.042-2.861c-0.027-0.079,0.009-0.16,0.089-0.188l0.878-0.32
					C38.682,42.395,38.764,42.431,38.791,42.511z"/>
				<path fill="#89664C" d="M43.83,46.074l0.319,0.879c0.029,0.079-0.007,0.16-0.087,0.188l-2.141,0.78
					c-0.079,0.027-0.159-0.009-0.188-0.089l-2.053-5.647c-0.029-0.079,0.009-0.16,0.087-0.188l2.141-0.779
					c0.079-0.029,0.16,0.009,0.188,0.089l0.318,0.877c0.03,0.081-0.008,0.161-0.088,0.191l-1.124,0.407l0.41,1.126l0.977-0.355
					c0.078-0.03,0.16,0.008,0.188,0.088l0.319,0.879c0.028,0.078-0.009,0.159-0.087,0.188l-0.977,0.355l0.483,1.332l1.124-0.41
					C43.723,45.957,43.803,45.996,43.83,46.074z"/>
			</g>
		</g>
	</g>
	<g opacity="0.5">
		<path fill="#947151" d="M25.359,54.81l30.41-25.536c-1.48-1.767-1.748-4.131-0.928-6.127c-2.354-0.099-4.527-1.582-5.383-3.933
			L12.155,32.802c1.132,3.109-0.472,6.546-3.579,7.68l2.335,6.419l6.013,7.171C19.459,51.942,23.234,52.273,25.359,54.81z"/>
		<path opacity="0.5" fill="#947151" d="M25.359,54.81l30.41-25.536c-1.48-1.767-1.748-4.131-0.928-6.127
			c-2.354-0.099-4.527-1.582-5.383-3.933L12.155,32.802c1.132,3.109-0.472,6.546-3.579,7.68l2.335,6.419l6.013,7.171
			C19.459,51.942,23.234,52.273,25.359,54.81z"/>
	</g>
	<g>
		<path fill="#FBBF67" d="M52.489,16.131l-1.742-2.076c-0.005,0.004-0.009,0.009-0.015,0.015c-0.572,0.479-1.426,0.405-1.906-0.168
			c-0.48-0.574-0.407-1.426,0.167-1.908c0.005-0.004,0.01-0.009,0.016-0.014l-1.741-2.075c-0.005,0.004-0.01,0.01-0.015,0.013
			c-0.573,0.481-1.427,0.407-1.908-0.166c-0.48-0.574-0.405-1.427,0.167-1.909c0.006-0.004,0.012-0.008,0.017-0.013l-1.741-2.076
			c-0.006,0.004-0.011,0.009-0.016,0.014c-0.573,0.48-1.426,0.406-1.905-0.166c-0.481-0.574-0.407-1.428,0.166-1.909
			c0.005-0.005,0.012-0.008,0.017-0.012l-1.741-2.077c-0.006,0.004-0.012,0.009-0.017,0.013c-0.555,0.467-1.373,0.41-1.86-0.116
			C36.005,2.725,32.971,2.173,31.149,0L0.738,25.536C2.863,28.071,2.533,31.851,0,33.978l13.629,16.254
			c2.534-2.127,6.31-1.797,8.436,0.739l30.411-25.536c-1.831-2.184-1.839-5.293-0.184-7.471
			C51.87,17.398,51.951,16.598,52.489,16.131z"/>
		<g>
			<g>
				<path fill="#FF5555" d="M47.217,23.412L20.987,45.438c-1.405,1.179-3.508,0.996-4.688-0.41L5.586,32.249
					c-1.18-1.405-0.996-3.511,0.409-4.689L32.227,5.534c1.404-1.18,3.507-0.996,4.686,0.41l10.715,12.778
					C48.806,20.129,48.622,22.231,47.217,23.412z M7.064,28.835c-0.702,0.59-0.794,1.642-0.205,2.344l10.716,12.779
					c0.589,0.702,1.639,0.794,2.342,0.205l26.23-22.025c0.702-0.591,0.795-1.642,0.206-2.346L35.639,7.014
					c-0.589-0.702-1.643-0.794-2.344-0.205L7.064,28.835z"/>
			</g>
		</g>
		<g>
			<g>
				<path fill="#89664C" d="M21.855,28.802l-0.73,0.614c-0.065,0.054-0.154,0.045-0.217-0.011l-0.792-0.815l-0.499,0.418
					l0.664,0.924c0.046,0.07,0.038,0.16-0.025,0.215l-0.732,0.613c-0.064,0.055-0.146,0.039-0.191-0.032l-3.931-5.914
					c-0.048-0.069-0.03-0.166,0.033-0.22l1.063-0.892c0.063-0.055,0.161-0.054,0.223,0.004l5.138,4.901
					C21.92,28.665,21.922,28.748,21.855,28.802z M19.296,27.742l-1.982-2.053l-0.064,0.054l1.677,2.31L19.296,27.742z"/>
				<path fill="#89664C" d="M21.617,22.502l2.348,2.8c0.466,0.556,0.393,1.399-0.163,1.865l-1.206,1.014
					c-0.063,0.055-0.154,0.046-0.208-0.019l-3.858-4.604c-0.055-0.064-0.047-0.153,0.016-0.207l1.209-1.013
					C20.309,21.872,21.15,21.946,21.617,22.502z M20.709,23.333c-0.088-0.105-0.251-0.119-0.354-0.032l-0.258,0.216l2.605,3.106
					l0.258-0.217c0.103-0.086,0.118-0.248,0.03-0.354L20.709,23.333z"/>
				<path fill="#89664C" d="M24.641,18.426l3.86,4.604c0.054,0.064,0.047,0.154-0.019,0.208l-0.771,0.648
					c-0.064,0.053-0.154,0.044-0.208-0.02l-1.794-2.14l1.076,2.36c0.03,0.07-0.019,0.11-0.082,0.068l-2.137-1.469l1.795,2.14
					c0.053,0.063,0.047,0.153-0.018,0.207l-0.771,0.648c-0.065,0.054-0.154,0.046-0.208-0.019l-3.86-4.604
					c-0.053-0.063-0.046-0.153,0.019-0.208l0.684-0.574c0.063-0.054,0.169-0.045,0.23-0.001l2.714,1.946l-1.442-3.013
					c-0.031-0.07-0.022-0.175,0.042-0.229l0.684-0.574C24.499,18.354,24.587,18.362,24.641,18.426z"/>
				<path fill="#89664C" d="M30.166,21.63c0.054,0.064,0.047,0.155-0.019,0.21l-0.715,0.601c-0.065,0.054-0.154,0.046-0.208-0.019
					l-3.86-4.604c-0.054-0.063-0.047-0.154,0.019-0.208l0.715-0.601c0.065-0.055,0.155-0.046,0.209,0.018L30.166,21.63z"/>
				<path fill="#89664C" d="M29.168,14.624l0.6,0.716c0.056,0.065,0.048,0.152-0.017,0.207l-0.571,0.479l3.166,3.774
					c0.053,0.064,0.046,0.153-0.019,0.209l-0.715,0.601c-0.057,0.048-0.154,0.046-0.208-0.019l-3.166-3.774l-0.562,0.473
					c-0.063,0.053-0.153,0.047-0.209-0.019l-0.6-0.716c-0.053-0.063-0.045-0.154,0.019-0.208l2.075-1.742
					C29.025,14.551,29.115,14.56,29.168,14.624z"/>
			</g>
			<g>
				<path fill="#89664C" d="M28.857,33.868l-0.306,0.258c-0.555,0.465-1.397,0.392-1.862-0.166l-3.118-3.717
					c-0.466-0.556-0.394-1.399,0.162-1.865l0.306-0.258c0.555-0.465,1.398-0.391,1.864,0.165l3.116,3.718
					C29.486,32.558,29.413,33.402,28.857,33.868z M24.641,29.084l-0.064,0.054c-0.104,0.089-0.119,0.252-0.031,0.355l3.052,3.64
					c0.086,0.104,0.25,0.117,0.354,0.03l0.064-0.054c0.104-0.089,0.119-0.252,0.033-0.356l-3.051-3.638
					C24.909,29.01,24.745,28.996,24.641,29.084z"/>
				<path fill="#89664C" d="M29.086,25.543l3.86,4.604c0.054,0.064,0.046,0.153-0.019,0.207l-0.516,0.433
					c-0.063,0.054-0.177,0.066-0.239,0.024l-2.613-1.385l1.753,2.093c0.055,0.064,0.047,0.152-0.018,0.206l-0.716,0.601
					c-0.064,0.056-0.153,0.046-0.205-0.018l-3.86-4.603c-0.055-0.066-0.048-0.153,0.017-0.208l0.531-0.446
					c0.064-0.053,0.177-0.066,0.241-0.024l2.799,1.641l-1.956-2.333c-0.055-0.065-0.047-0.153,0.019-0.208l0.715-0.602
					C28.942,25.471,29.032,25.478,29.086,25.543z"/>
				<path fill="#89664C" d="M35.039,27.167l0.601,0.718c0.055,0.063,0.048,0.152-0.019,0.206l-1.743,1.466
					c-0.065,0.054-0.153,0.046-0.208-0.019l-3.859-4.604c-0.054-0.064-0.046-0.153,0.018-0.207l1.745-1.465
					c0.064-0.055,0.153-0.047,0.207,0.019l0.601,0.715c0.055,0.065,0.047,0.153-0.019,0.209l-0.916,0.769l0.77,0.917l0.796-0.668
					c0.063-0.055,0.153-0.047,0.207,0.019l0.601,0.717c0.054,0.064,0.046,0.152-0.018,0.206l-0.797,0.669l0.911,1.086l0.916-0.771
					C34.897,27.095,34.987,27.104,35.039,27.167z"/>
			</g>
		</g>
	</g>
</g>
</svg>
