<?xml version="1.0" encoding="utf-8"?>
<!-- Generator: Adobe Illustrator 15.0.0, SVG Export Plug-In . SVG Version: 6.00 Build 0)  -->
<!DOCTYPE svg PUBLIC "-//W3C//DTD SVG 1.1//EN" "http://www.w3.org/Graphics/SVG/1.1/DTD/svg11.dtd">
<svg version="1.1" id="Layer_1" xmlns="http://www.w3.org/2000/svg" xmlns:xlink="http://www.w3.org/1999/xlink" x="0px" y="0px"
	 width="64px" height="64px" viewBox="0 0 64 64" enable-background="new 0 0 64 64" xml:space="preserve">
<g>
	<g>
		<path fill="#FFC200" d="M33.943,31.767c0,1.073-0.869,1.943-1.943,1.943s-1.943-0.87-1.943-1.943h-0.869
			c0,1.554,1.258,2.813,2.813,2.813s2.813-1.259,2.813-2.813H33.943z"/>
		<path fill="#E68A00" d="M33,37.279h-2V33.32c0-1.552,2-1.552,2,0V37.279z"/>
		<g>
			<ellipse fill="#E68A00" cx="32" cy="48.5" rx="13.5" ry="13.5"/>
			<ellipse fill="#FFC200" cx="32" cy="48.5" rx="12.5" ry="12.5"/>
			<g>
				<polygon fill="#E68A00" points="30.26,46.242 28.516,43.849 20.727,44.978 26.369,46.804 				"/>
				<polygon fill="#E68A00" points="33.74,46.242 35.484,43.849 32.002,36.813 32.002,42.727 				"/>
				<polygon fill="#E68A00" points="34.818,49.539 37.639,50.453 43.275,44.978 37.635,46.804 				"/>
				<polygon fill="#E68A00" points="32.002,51.578 32.002,54.537 38.969,58.187 35.482,53.404 				"/>
				<polygon fill="#E68A00" points="29.184,49.539 26.365,50.453 25.033,58.187 28.52,53.404 				"/>
				<polygon fill="#FFE394" points="32.002,42.727 32.002,36.813 28.516,43.849 30.26,46.242 				"/>
				<polygon fill="#FFE394" points="37.635,46.804 43.275,44.978 35.484,43.849 33.74,46.242 				"/>
				<polygon fill="#FFE394" points="34.818,49.539 35.482,53.404 38.969,58.187 37.639,50.453 				"/>
				<polygon fill="#FFE394" points="28.52,53.404 25.033,58.187 32.002,54.537 32.002,51.578 				"/>
				<polygon fill="#FFE394" points="26.369,46.804 20.727,44.978 26.365,50.453 29.184,49.539 				"/>
			</g>
		</g>
	</g>
	<g>
		<g>
			<polygon fill="#F3F7FA" points="22,28.239 24.27,31.984 27,31.984 27,2 22,2 			"/>
			<polygon fill="#F3F7FA" points="37,2 37,31.984 39.732,31.984 42,28.239 42,2 			"/>
		</g>
		<g>
			<polygon fill="#42ADE2" points="17,19.992 17.005,19.992 22,28.239 22,2 17,2 			"/>
			<rect x="27" y="2" fill="#42ADE2" width="10" height="29.984"/>
			<polygon fill="#42ADE2" points="42,2 42,28.239 46.995,19.992 47,19.992 47,2 			"/>
		</g>
	</g>
	<rect x="23" y="30.06" fill="#D3976E" width="18" height="1"/>
	<rect x="23.002" y="31.06" fill="#89664C" width="18" height="1"/>
</g>
</svg>
