<?xml version="1.0" encoding="utf-8"?>
<!-- Generator: Adobe Illustrator 15.0.0, SVG Export Plug-In . SVG Version: 6.00 Build 0)  -->
<!DOCTYPE svg PUBLIC "-//W3C//DTD SVG 1.1//EN" "http://www.w3.org/Graphics/SVG/1.1/DTD/svg11.dtd">
<svg version="1.1" id="Layer_1" xmlns="http://www.w3.org/2000/svg" xmlns:xlink="http://www.w3.org/1999/xlink" x="0px" y="0px"
	 width="64px" height="64px" viewBox="0 0 64 64" enable-background="new 0 0 64 64" xml:space="preserve">
<g>
	<ellipse fill="#FFFFFF" cx="26.649" cy="31.976" rx="21.603" ry="26.412"/>
	<ellipse fill="#ED4C5C" cx="28.994" cy="31.977" rx="2.709" ry="3.912"/>
	<path fill="#428BC1" d="M41.431,36.795c0.12-0.487,0.229-0.981,0.313-1.485c0.036-0.214,0.055-0.435,0.084-0.65
		c0.044-0.326,0.095-0.649,0.123-0.981c0.047-0.56,0.072-1.126,0.072-1.7s-0.025-1.141-0.072-1.7
		c-0.028-0.339-0.081-0.667-0.126-0.999c-0.027-0.211-0.045-0.425-0.08-0.633c-0.087-0.516-0.196-1.021-0.32-1.52
		c-0.003-0.01-0.004-0.021-0.008-0.03c-1.768-7.022-7.238-12.157-13.707-12.157c-7.893,0-14.314,7.643-14.314,17.039
		c0,9.393,6.421,17.035,14.314,17.035c6.467,0,11.938-5.133,13.707-12.152C41.422,36.839,41.424,36.816,41.431,36.795z
		 M28.589,41.778c-4.421,0-8.017-4.397-8.017-9.801c0-5.405,3.596-9.804,8.017-9.804c0.955,0,1.868,0.216,2.719,0.593
		c2.914,1.621,4.942,5.136,4.942,9.211c0,4.08-2.035,7.599-4.958,9.215C30.447,41.564,29.54,41.778,28.589,41.778z"/>
	<path fill="#3E4347" d="M51.623,31.976c0-0.508-0.012-1.014-0.032-1.516c-0.654-15.84-11.52-28.484-24.78-28.484
		C13.129,1.976,2,15.434,2,31.976s11.129,30,24.811,30c13.261,0,24.125-12.645,24.78-28.485
		C51.611,32.989,51.623,32.483,51.623,31.976z M27.62,54.698c-10.249,0-18.587-10.193-18.587-22.723
		c0-12.531,8.338-22.725,18.587-22.725c4.124,0,7.937,1.652,11.023,4.442c4.488,4.256,7.381,10.865,7.381,18.282
		c0,7.415-2.893,14.024-7.381,18.28C35.557,53.046,31.744,54.698,27.62,54.698z"/>
	<rect x="33.102" y="29.288" fill="#FFFFFF" width="18.125" height="5.25"/>
	<g>
		<g>
			<polygon fill="#F2B200" points="45.511,35.976 62,44.583 59.739,32.864 43.125,32.864 			"/>
			<polygon fill="#C94747" points="51.576,39.142 49.467,38.04 46.396,32.479 48.507,32.479 			"/>
			<polygon fill="#C94747" points="57.908,42.446 55.797,41.345 52.728,32.479 54.838,32.479 			"/>
		</g>
		<g>
			<polygon fill="#F2B200" points="45.511,27.851 62,19.243 59.739,30.962 43.125,30.962 			"/>
			<polygon fill="#C94747" points="51.576,24.685 49.467,25.786 46.396,31.347 48.507,31.347 			"/>
			<polygon fill="#C94747" points="57.908,21.38 55.797,22.481 52.728,31.347 54.838,31.347 			"/>
		</g>
		<path fill="#754E27" d="M60.174,30.579c-2.313,0.002-27.1,0-30.338,0.002c-0.187-0.002-0.373,0-0.559-0.002
			c-0.917,0.002-0.918,2.668,0,2.664c2.313,0.004,27.097,0.002,30.338,0.004c0.186-0.004,0.372,0,0.559-0.004
			C61.09,33.247,61.09,30.583,60.174,30.579z"/>
		<path fill="#B28769" d="M59.552,31.194c-2.22,0-26.009,0-29.117,0c-0.179,0-0.357,0-0.537,0c-0.879,0-0.88,1.438,0,1.437
			c2.219,0.001,26.008,0.001,29.118,0.001c0.179-0.001,0.357,0,0.536-0.001C60.432,32.632,60.432,31.196,59.552,31.194z"/>
	</g>
</g>
</svg>
