<?xml version="1.0" encoding="utf-8"?>
<!-- Generator: Adobe Illustrator 15.0.0, SVG Export Plug-In . SVG Version: 6.00 Build 0)  -->
<!DOCTYPE svg PUBLIC "-//W3C//DTD SVG 1.1//EN" "http://www.w3.org/Graphics/SVG/1.1/DTD/svg11.dtd">
<svg version="1.1" id="Layer_1" xmlns="http://www.w3.org/2000/svg" xmlns:xlink="http://www.w3.org/1999/xlink" x="0px" y="0px"
	 width="64px" height="64px" viewBox="0 0 64 64" enable-background="new 0 0 64 64" xml:space="preserve">
<g>
	<g>
		<g>
			<g>
				<rect x="40" y="32.544" fill="#870014" width="4" height="31.456"/>
			</g>
			<g>
				<polygon fill="#870014" points="28,64 24,64 24,42.544 28,41.544 				"/>
			</g>
			<g>
				<rect x="8" y="52.544" fill="#870014" width="4" height="11.456"/>
			</g>
		</g>
		<g>
			<g>
				<rect x="56" y="32.544" fill="#870014" width="4" height="31.456"/>
			</g>
		</g>
	</g>
	<g>
		<path fill="none" d="M33.738,34.136c-5.6,2.156-10.78,4.796-15.622,7.799C23.188,38.817,28.421,36.219,33.738,34.136z"/>
		<path fill="#ED4C5C" d="M38.26,32.515c-0.42,0.139-0.84,0.289-1.26,0.437c-1.103,0.375-2.191,0.769-3.262,1.185
			c-5.317,2.083-10.55,4.682-15.622,7.799c-0.308,0.192-0.606,0.395-0.918,0.59c-1.052,0.661-2.082,1.333-3.098,2.019
			C9.077,47.98,4.416,51.778,0,55.759v8.181c14.377-13.52,34.483-28.675,64-29.772v-6.023C54.493,28.449,45.991,30.013,38.26,32.515
			z"/>
		<path fill="#94989B" d="M37,32.951c-1.09,0.381-2.181,0.758-3.262,1.185C34.809,33.72,35.897,33.326,37,32.951z"/>
		<path fill="#94989B" d="M17.198,42.524c0.312-0.195,0.61-0.397,0.918-0.59c-0.032,0.021-0.07,0.038-0.103,0.061
			C17.733,42.165,17.479,42.351,17.198,42.524z"/>
	</g>
	<g>
		<g>
			<g>
				
					<rect x="15.153" y="26.839" transform="matrix(-0.8908 0.4544 -0.4544 -0.8908 44.8977 45.6479)" fill="#FED0AC" width="3.621" height="2.761"/>
				<path fill="#384044" d="M12.865,30.355l2.504-1.278c0.258,0.507,1.191,0.549,2.082,0.094c0.887-0.454,1.401-1.232,1.144-1.738
					l2.502-1.279l3.737,8.216l-7.506,3.83L12.865,30.355z"/>
			</g>
			<path fill="#594640" d="M6.851,22.099c0.55,1.079,1.811,3.184,1.811,3.184l10.968-5.57c0,0-0.833-2.352-1.383-3.429
				C15.846,11.579,4.45,17.396,6.851,22.099z"/>
			<path fill="#FED0AC" d="M10.245,19.962c4.563-2.328,5.28-4.29,7.214-0.522c0,0,1.105-1.816,2.104,0.143
				c0.383,0.748,0.389,1.519-0.62,2.115c1.146,2.243,0.995,3.441-2.345,5.804c-2.676,1.892-6.042,1.531-7.416-1.159
				C6.495,21.081,7.695,21.265,10.245,19.962z"/>
			<g>
				<path fill="#594640" d="M11.354,26.483c0.449,0.877,1.996,1.016,3.44,0.278c1.443-0.737,2.239-2.07,1.792-2.948
					c0,0-1.351,0.787-2.576,1.412C12.786,25.851,11.354,26.483,11.354,26.483z"/>
			</g>
			<g>
				<path fill="#594640" d="M14.334,21.69c0.244,0.479,0.846,0.662,1.34,0.412c0.497-0.256,0.7-0.85,0.458-1.33
					c-0.245-0.479-0.844-0.659-1.343-0.406C14.297,20.619,14.088,21.211,14.334,21.69z"/>
			</g>
			<g>
				<path fill="#594640" d="M9.148,24.339c0.244,0.478,0.846,0.662,1.342,0.407c0.494-0.251,0.702-0.848,0.458-1.326
					c-0.247-0.48-0.848-0.659-1.343-0.407C9.108,23.268,8.904,23.856,9.148,24.339z"/>
			</g>
			<g>
				<path fill="#384044" d="M6.018,25.804l7.833,4.368c1.231,0.687,0.38,2.328-0.855,1.641l-7.833-4.367L6.018,25.804z"/>
				<path fill="#FED0AC" d="M6.018,25.804c-1.486-0.829-1.762-0.506-1.995-0.052c-0.239,0.452-0.345,0.865,1.14,1.693L6.018,25.804z
					"/>
			</g>
			<g>
				<g>
					<polygon points="31.344,33.5 30.903,32.328 39.496,29.123 39.942,30.298 					"/>
				</g>
				<g>
					<path d="M15.977,44.444c0.536,1.039,0.121,2.318-0.916,2.854c-1.044,0.531-2.321,0.118-2.853-0.924
						c-0.537-1.039-0.121-2.317,0.92-2.848C14.174,42.994,15.448,43.402,15.977,44.444z"/>
				</g>
				<g>
					<path d="M30.798,36.817c0.536,1.04,0.121,2.316-0.919,2.856c-1.043,0.53-2.319,0.115-2.85-0.927
						c-0.537-1.038-0.121-2.316,0.921-2.848C28.992,35.371,30.269,35.777,30.798,36.817z"/>
				</g>
				<g>
					<path d="M24.642,27.895c0,0-1.467,0.749-0.72,3.313c0.748,2.563,0.748,2.563,0.748,2.563l2.355-1.205L24.642,27.895z"/>
				</g>
				<g>
					<path fill="#83BF4F" d="M26.578,25.515l-2.532,1.293l2.183,4.271c0.418,0.822,0.099,1.83-0.729,2.249l-9.356,4.785
						c-0.821,0.42-1.824,0.093-2.245-0.726l-2.186-4.269l-3.696,1.891c-0.655,0.34-0.918,1.141-0.581,1.798L7.88,46.859
						c0.34,0.66,1.144,0.919,1.8,0.583l22.284-11.398c0.659-0.337,0.916-1.146,0.58-1.802l-4.166-8.146
						C28.039,25.44,27.232,25.181,26.578,25.515z"/>
				</g>
				<g>
					<path d="M36.652,30.811c-0.223-0.679-0.957-1.051-1.639-0.825c-0.679,0.224-1.054,0.953-0.829,1.631
						c0.226,0.686,0.958,1.057,1.64,0.833C36.506,32.224,36.875,31.49,36.652,30.811z"/>
				</g>
			</g>
			<g>
				<path fill="#384044" d="M21.429,17.937l-1.059,8.908c-0.169,1.399,1.663,1.672,1.829,0.27l1.057-8.905L21.429,17.937z"/>
				<path fill="#FED0AC" d="M21.429,17.937c0.199-1.689,0.622-1.723,1.126-1.647c0.507,0.072,0.907,0.229,0.701,1.92L21.429,17.937z
					"/>
			</g>
		</g>
		<g>
			<g>
				
					<rect x="48.289" y="16.007" transform="matrix(-0.9867 0.1628 -0.1628 -0.9867 102.3645 26.3909)" fill="#FED0AC" width="3.624" height="2.765"/>
				<path fill="#89664C" d="M45.545,18.18l2.772-0.458c0.093,0.56,0.969,0.885,1.957,0.722c0.984-0.162,1.713-0.75,1.619-1.31
					l2.772-0.455l1.064,8.96l-8.317,1.367L45.545,18.18z"/>
			</g>
			<path fill="#594640" d="M42.324,8.485c0.197,1.195,0.757,3.583,0.757,3.583l12.143-1.975c0,0-0.078-2.491-0.274-3.688
				C54.089,1.197,41.468,3.276,42.324,8.485z"/>
			<path fill="#FED0AC" d="M46.208,7.479c5.056-0.832,6.335-2.48,7.032,1.696c0,0,1.604-1.397,1.961,0.773
				c0.137,0.829-0.092,1.563-1.231,1.829c0.406,2.482-0.104,3.579-4.001,4.814c-3.124,0.989-6.221-0.378-6.711-3.358
				C42.297,7.404,43.383,7.945,46.208,7.479z"/>
			<g>
				<path fill="#594640" d="M45.284,14.032c0.16,0.971,1.592,1.574,3.19,1.311s2.762-1.292,2.603-2.265c0,0-1.526,0.339-2.882,0.562
					C46.84,13.864,45.284,14.032,45.284,14.032z"/>
			</g>
			<g>
				
					<ellipse transform="matrix(-0.9867 0.1625 -0.1625 -0.9867 102.1349 12.0592)" fill="#594640" cx="50.574" cy="10.207" rx="1.01" ry="0.975"/>
			</g>
			<g>
				
					<ellipse transform="matrix(-0.9868 0.162 -0.162 -0.9868 90.8749 14.8938)" fill="#594640" cx="44.83" cy="11.153" rx="1.009" ry="0.975"/>
			</g>
			<g>
				<path fill="#89664C" d="M40.404,11.762l6.137,6.541c0.964,1.028-0.346,2.334-1.313,1.302l-6.135-6.54L40.404,11.762z"/>
				<path fill="#FED0AC" d="M40.404,11.762c-1.162-1.239-1.522-1.018-1.885-0.657c-0.365,0.359-0.591,0.72,0.574,1.96L40.404,11.762
					z"/>
			</g>
			<g>
				<g>
					<path d="M44.228,32.546c0.194,1.153-0.589,2.245-1.741,2.441c-1.154,0.188-2.246-0.595-2.434-1.747
						c-0.197-1.153,0.588-2.247,1.74-2.435C42.952,30.62,44.041,31.394,44.228,32.546z"/>
				</g>
				<g>
					<path d="M60.665,29.786c0.195,1.153-0.59,2.242-1.742,2.439c-1.152,0.188-2.244-0.593-2.434-1.749
						c-0.195-1.151,0.589-2.243,1.742-2.431C59.389,27.858,60.48,28.63,60.665,29.786z"/>
				</g>
				<g>
					<path d="M57.554,19.383c0,0-1.624,0.266-1.691,2.935c-0.068,2.67-0.068,2.67-0.068,2.67l2.609-0.432L57.554,19.383z"/>
				</g>
				<g>
					<path fill="#C28FEF" d="M60.081,17.734l-2.806,0.462l0.783,4.73c0.148,0.914-0.464,1.772-1.379,1.922l-10.368,1.717
						c-0.907,0.151-1.768-0.468-1.919-1.375l-0.783-4.732l-4.097,0.682c-0.729,0.122-1.222,0.807-1.103,1.535l0.444,9.206
						c0.122,0.731,0.812,1.222,1.538,1.103l21.62-3.581c0.731-0.12,1.221-0.814,1.101-1.542l-1.495-9.027
						C61.495,18.106,60.811,17.615,60.081,17.734z"/>
				</g>
			</g>
			<g>
				<path fill="#89664C" d="M57.479,8.951l-3.715,8.163c-0.585,1.282,1.076,2.097,1.662,0.812l3.711-8.16L57.479,8.951z"/>
				<path fill="#FED0AC" d="M57.479,8.951c0.704-1.547,1.117-1.455,1.574-1.229c0.46,0.224,0.791,0.493,0.084,2.043L57.479,8.951z"
					/>
			</g>
		</g>
	</g>
</g>
</svg>
