<?xml version="1.0" encoding="utf-8"?>
<!-- Generator: Adobe Illustrator 15.0.0, SVG Export Plug-In . SVG Version: 6.00 Build 0)  -->
<!DOCTYPE svg PUBLIC "-//W3C//DTD SVG 1.1//EN" "http://www.w3.org/Graphics/SVG/1.1/DTD/svg11.dtd">
<svg version="1.1" id="Layer_1" xmlns="http://www.w3.org/2000/svg" xmlns:xlink="http://www.w3.org/1999/xlink" x="0px" y="0px"
	 width="64px" height="64px" viewBox="0 0 64 64" enable-background="new 0 0 64 64" xml:space="preserve">
<g>
	<polygon fill="#428BC1" points="30.887,49.45 30.889,49.45 30.887,49.449 	"/>
	<g>
		<path fill="#42ADE2" d="M43.638,6.928c-6.836,0-13.012-1.889-17.443-4.928c-0.846,3.646-1.311,7.621-1.312,11.784
			c0,17.607,18.559,31.883,18.559,31.883S62.001,31.391,62,13.784c0-4.076-0.444-7.972-1.255-11.556
			C56.339,5.134,50.302,6.928,43.638,6.928z"/>
		<path fill="#3E4347" d="M51.647,32.584c0-1.754-3.674-7.149-8.205-7.149c-4.533,0-8.205,5.396-8.205,7.149
			c0,1.756,3.674-0.794,8.204-0.794C47.977,31.79,51.647,34.341,51.647,32.584z"/>
		<path fill="#3E4347" d="M41.218,14.917c-1.228-0.544-3.592-1.625-5.169-1.625c-1.388,0-4.024,1.035-5.255,1.605
			c-1.091,0.504-1.253,0.943-1.041,1.63c0.219,0.704,1.047,1.102,1.835,0.924c0,0,3.198-1.512,4.372-1.513
			c1.195-0.003,4.463,1.532,4.463,1.532c0.788,0.182,1.618-0.223,1.838-0.924C42.473,15.859,42.31,15.403,41.218,14.917z"/>
		<path fill="#3E4347" d="M56.734,14.917c-1.226-0.545-3.593-1.625-5.167-1.627c-1.392,0.002-4.022,1.037-5.256,1.607
			c-1.093,0.506-1.256,0.943-1.043,1.628c0.221,0.705,1.048,1.104,1.835,0.926c0,0,3.199-1.511,4.373-1.512
			c1.196-0.001,4.465,1.531,4.465,1.531c0.786,0.182,1.617-0.223,1.834-0.924C57.989,15.859,57.825,15.404,56.734,14.917z"/>
	</g>
	<g>
		<path fill="#FF717F" d="M19.478,26.737C13.266,28.998,7.031,29.327,2,28.031c0.438,3.59,1.331,7.356,2.706,11.137
			C10.528,55.166,32.11,62,32.11,62s12.141-19.106,6.317-35.104c-1.348-3.703-3.041-7.097-4.964-10.085
			C30.423,20.909,25.527,24.534,19.478,26.737z"/>
		<path fill="#3E4347" d="M33.563,42.794c0.58,1.595-0.974,7.711-5.092,9.211c-4.117,1.498-9.24-2.189-9.82-3.783
			c-0.578-1.594,3.601-0.493,7.72-1.991C30.487,44.732,32.981,41.201,33.563,42.794z"/>
		<path fill="#3E4347" d="M19.314,34.96c-1.293-0.091-3.799-0.29-5.231,0.23c-1.261,0.46-3.312,2.271-4.243,3.197
			c-0.823,0.82-0.828,1.271-0.407,1.824c0.43,0.569,1.317,0.655,1.972,0.233c0,0,2.407-2.431,3.473-2.82
			c1.086-0.397,4.561-0.083,4.561-0.083c0.776-0.095,1.399-0.736,1.363-1.447C20.766,35.399,20.468,35.039,19.314,34.96z"/>
		<path fill="#3E4347" d="M33.414,29.83c-1.295-0.092-3.803-0.291-5.233,0.229c-1.264,0.46-3.313,2.271-4.243,3.196
			c-0.825,0.821-0.827,1.273-0.408,1.827c0.431,0.566,1.316,0.654,1.974,0.231c0,0,2.403-2.431,3.471-2.819
			c1.087-0.398,4.563-0.083,4.563-0.083c0.774-0.096,1.395-0.737,1.359-1.448C34.863,30.268,34.566,29.908,33.414,29.83z"/>
	</g>
	<path fill="#DBB046" d="M24.978,13.815c-0.177,1.775-0.624,3.492-1.309,5.16c-0.344,0.835-0.777,1.644-1.324,2.42
		c-0.555,0.762-1.284,1.502-2.284,1.908c-0.998,0.428-2.164,0.314-3.031-0.078c-0.894-0.372-1.612-0.924-2.327-1.452
		c-1.377-1.083-2.765-2.257-3.809-3.807c-0.519-0.774-0.92-1.661-1.13-2.61c-0.192-0.951-0.212-1.948-0.048-2.908
		c0.309-1.935,1.263-3.694,2.533-5.08c1.285-1.377,2.852-2.464,4.59-3.123c1.708-0.654,3.708-0.927,5.408-0.23L22.202,4.21
		c-1.733-0.038-3.292,0.621-4.694,1.438c-1.397,0.841-2.649,1.902-3.672,3.121c-1.02,1.212-1.856,2.572-2.234,4.057
		c-0.367,1.485-0.241,3.059,0.351,4.578c0.597,1.527,1.728,2.877,3.12,3.87c0.681,0.498,1.466,0.871,2.241,1.004
		c0.786,0.135,1.481-0.041,2.04-0.412c1.122-0.76,2.066-2.151,2.905-3.589c0.85-1.453,1.608-3.004,2.529-4.524L24.978,13.815z"/>
	<path fill="#FFCE31" d="M24.814,13.857c-1.781-1.175-3.872-1.702-5.748-1.434c-0.92,0.142-1.745,0.535-2.138,1.144
		c-0.399,0.598-0.457,1.453-0.276,2.384c0.088,0.463,0.218,0.94,0.393,1.415c0.178,0.479,0.39,1.066,0.507,1.626
		c0.239,1.135,0.231,2.312-0.034,3.413c-0.521,2.194-2.109,4.155-4.385,4.916c-1.124,0.371-2.446,0.398-3.618-0.09
		c-1.179-0.471-2.133-1.373-2.796-2.378c-0.666-0.979-1.157-2.121-1.399-3.298c-0.253-1.179-0.231-2.378-0.104-3.516
		c0.3-2.281,1.083-4.347,1.627-6.328c0.253-0.987,0.451-1.975,0.237-2.854C6.893,7.965,6.102,7.245,5.151,6.748l0.064-0.189
		c0.542,0.1,1.088,0.271,1.589,0.586c0.504,0.303,0.962,0.772,1.229,1.345c0.555,1.159,0.475,2.406,0.357,3.51
		c-0.275,2.235-0.894,4.271-1.056,6.276c-0.209,1.985-0.023,3.91,0.975,5.573c0.916,1.621,2.598,2.716,4.561,2.41
		c0.944-0.162,1.901-0.604,2.617-1.325c0.728-0.709,1.221-1.658,1.396-2.659c0.178-1.007-0.007-2.039-0.396-2.956
		c-0.193-0.471-0.43-0.864-0.725-1.35c-0.287-0.495-0.539-1.027-0.723-1.604c-0.17-0.578-0.301-1.206-0.244-1.874
		c0.042-0.661,0.254-1.371,0.686-1.942c0.864-1.188,2.251-1.62,3.44-1.668c2.417-0.07,4.706,1.043,6.029,2.831L24.814,13.857z"/>
	<circle fill="#FFD86C" cx="24.883" cy="13.784" r="2.452"/>
	<g>
		<path fill="#DBB046" d="M42.063,38.567c-1.107,1.489-1.947,3.145-2.556,4.945c-0.305,0.901-0.514,1.854-0.607,2.868
			c-0.076,1.01,0.01,2.138,0.556,3.223c0.53,1.099,1.583,1.914,2.584,2.286c1.008,0.409,1.998,0.545,2.968,0.695
			c1.914,0.24,3.901,0.42,5.869,0.047c0.98-0.189,1.941-0.553,2.788-1.115c0.833-0.574,1.555-1.319,2.097-2.179
			c1.109-1.712,1.559-3.792,1.479-5.83c-0.099-2.045-0.638-4.086-1.62-5.934c-0.487-0.921-1.105-1.825-1.845-2.596l-0.683,0.885
			c0.398,0.73,0.712,1.496,0.977,2.262c0.571,1.723,0.865,3.501,0.856,5.221c-0.007,1.714-0.271,3.398-1.005,4.82
			c-0.745,1.417-1.963,2.519-3.53,3.218c-1.578,0.702-3.476,0.855-5.339,0.534c-0.921-0.147-1.84-0.47-2.58-0.969
			c-0.751-0.507-1.206-1.179-1.41-1.896c-0.398-1.445-0.203-3.238,0.114-4.982c0.319-1.765,0.783-3.534,1.089-5.405L42.063,38.567z"
			/>
		<path fill="#FFCE31" d="M40.891,37.935c2.233,0.78,4.175,2.261,5.324,4.081c0.556,0.9,0.84,1.884,0.639,2.632
			c-0.188,0.746-0.83,1.365-1.706,1.824c-0.434,0.23-0.91,0.435-1.418,0.597c-0.513,0.162-1.136,0.366-1.668,0.636
			c-1.082,0.543-2.018,1.332-2.705,2.296c-1.378,1.912-1.791,4.605-0.746,7.104c0.521,1.229,1.459,2.406,2.701,3.108
			c1.233,0.72,2.649,0.955,3.935,0.869c1.267-0.066,2.537-0.396,3.655-0.964c1.126-0.562,2.07-1.376,2.888-2.243
			c1.607-1.777,2.69-3.834,3.879-5.626c0.606-0.877,1.252-1.706,2.111-2.104c0.851-0.429,2-0.214,3.089,0.288l0.104-0.183
			c-0.472-0.408-1.006-0.772-1.622-1.002c-0.608-0.24-1.317-0.329-1.969-0.183c-1.331,0.283-2.271,1.182-3.067,2.018
			c-1.588,1.725-2.768,3.617-4.254,5.091c-1.436,1.501-3.109,2.617-5.166,2.847c-1.963,0.275-4.061-0.472-5.242-2.393
			c-0.557-0.935-0.899-2.066-0.843-3.172c0.038-1.107,0.44-2.17,1.113-2.988c0.676-0.823,1.636-1.348,2.652-1.615
			c0.517-0.144,1.004-0.198,1.605-0.262c0.605-0.078,1.214-0.21,1.81-0.433c0.586-0.235,1.183-0.538,1.676-1.03
			c0.499-0.477,0.913-1.133,1.057-1.891c0.321-1.545-0.341-3.046-1.167-4.119c-1.701-2.164-4.255-3.428-6.646-3.4L40.891,37.935z"/>
		
			<ellipse transform="matrix(-0.6386 -0.7695 0.7695 -0.6386 37.9091 93.4561)" fill="#FFD86C" cx="40.899" cy="37.827" rx="2.79" ry="2.549"/>
	</g>
</g>
</svg>
