<?xml version="1.0" encoding="utf-8"?>
<!-- Generator: Adobe Illustrator 15.0.0, SVG Export Plug-In . SVG Version: 6.00 Build 0)  -->
<!DOCTYPE svg PUBLIC "-//W3C//DTD SVG 1.1//EN" "http://www.w3.org/Graphics/SVG/1.1/DTD/svg11.dtd">
<svg version="1.1" id="Layer_1" xmlns="http://www.w3.org/2000/svg" xmlns:xlink="http://www.w3.org/1999/xlink" x="0px" y="0px"
	 width="64px" height="64px" viewBox="0 0 64 64" enable-background="new 0 0 64 64" xml:space="preserve">
<g>
	<path fill="#FBBF67" d="M57.999,32c0-3.313,1.791-6,4-6v-9H38.35c0,0.828-0.672,1.5-1.5,1.5s-1.5-0.672-1.5-1.5H1.999v9
		c2.209,0,4,2.687,4,6s-1.791,6-4,6v9H35.35c0-0.828,0.672-1.5,1.5-1.5s1.5,0.672,1.5,1.5h23.649v-9
		C59.79,38,57.999,35.313,57.999,32z"/>
	<rect x="6.999" y="19" fill="#ED4C5C" width="50" height="26"/>
	<rect x="7.999" y="20" fill="#FBBF67" width="48" height="24"/>
	<g>
		<path fill-rule="evenodd" clip-rule="evenodd" fill="#89664C" d="M48.555,38.186l-0.68,0.394
			c-0.067-0.152-0.213-0.258-0.379-0.258H47.07c-0.166,0-0.309,0.106-0.378,0.258l-0.678-0.394l-1.625-0.938v1.876V41l1.625-0.938
			l0.678-0.393c0.069,0.151,0.212,0.257,0.378,0.257h0.426c0.166,0,0.312-0.105,0.379-0.257l0.68,0.393L50.178,41v-1.876v-1.876
			L48.555,38.186z"/>
		<path fill="#89664C" d="M44.756,32.878c0.271,0.431,0.649,0.744,1.092,0.958c0.439,0.213,0.937,0.319,1.437,0.32
			c0.499-0.002,0.998-0.108,1.438-0.322s0.818-0.525,1.09-0.956c0.062,0.504-0.197,1.05-0.676,1.438
			c-0.474,0.394-1.161,0.625-1.853,0.621c-0.688,0.004-1.377-0.229-1.851-0.622C44.955,33.928,44.697,33.381,44.756,32.878z"/>
		<path fill-rule="evenodd" clip-rule="evenodd" fill="#89664C" d="M54.481,27.864v-0.136c0-0.107-0.012-0.128-0.067-0.156
			c-0.1-0.052-0.203-0.1-0.309-0.138c-0.078-0.027-0.163-0.053-0.256-0.075C52.757,24.795,50.229,23,47.283,23
			c-2.944,0-5.473,1.795-6.565,4.358c-0.091,0.023-0.179,0.049-0.257,0.076c-0.105,0.038-0.208,0.086-0.308,0.138
			c-0.056,0.028-0.067,0.049-0.067,0.156v0.136c0,0.257-0.03,0.158,0.15,0.264c0.06,0.037,0.114,0.081,0.165,0.134
			c-0.17,0.616-0.262,1.265-0.262,1.936c0,3.974,3.198,7.196,7.144,7.196c3.946,0,7.145-3.223,7.145-7.196
			c0-0.671-0.09-1.319-0.262-1.936c0.051-0.053,0.105-0.099,0.165-0.134C54.514,28.022,54.481,28.121,54.481,27.864z M47.283,23.849
			c2.403,0,4.491,1.356,5.554,3.348c-0.848-0.077-1.788-0.061-2.338-0.012c-0.884,0.077-1.622,0.277-2.226,0.59
			c-0.565,0.285-1.415,0.285-1.979,0c-0.604-0.313-1.343-0.513-2.227-0.59c-0.549-0.049-1.489-0.065-2.337,0.012
			C42.793,25.205,44.881,23.849,47.283,23.849z M47.283,36.544c-3.479,0-6.3-2.844-6.3-6.347c0-0.049,0.002-0.096,0.004-0.143
			c0.22,0.848,0.717,1.396,1.462,1.68c0.802,0.303,1.698,0.292,2.493-0.027c0.435-0.176,0.817-0.451,1.119-0.9
			c0.533-0.788,0.372-1.279,0.647-1.958c0.238-0.588,0.911-0.588,1.151,0c0.272,0.679,0.114,1.17,0.646,1.958
			c0.304,0.449,0.685,0.725,1.121,0.9c0.792,0.319,1.688,0.33,2.49,0.027c0.746-0.284,1.245-0.833,1.465-1.681
			c0,0.048,0.001,0.095,0.001,0.144C53.583,33.7,50.763,36.544,47.283,36.544z"/>
	</g>
	<circle fill="#FFFFFF" cx="36.85" cy="21.286" r="1.5"/>
	<circle fill="#FFFFFF" cx="36.85" cy="25.571" r="1.5"/>
	<circle fill="#FFFFFF" cx="36.85" cy="29.857" r="1.5"/>
	<circle fill="#FFFFFF" cx="36.85" cy="34.143" r="1.5"/>
	<circle fill="#FFFFFF" cx="36.85" cy="38.429" r="1.5"/>
	<circle fill="#FFFFFF" cx="36.85" cy="42.714" r="1.5"/>
	<g>
		<g>
			<path fill="#89664C" d="M14.432,23.439H11.51v1.173h2.682v0.959H11.51v1.42h3.057v0.992h-4.185v-5.521h4.05V23.439z"/>
			<path fill="#89664C" d="M19.128,22.462h1.66v5.521h-1.075v-3.734c0-0.107,0.001-0.258,0.003-0.451
				c0.003-0.194,0.004-0.344,0.004-0.448l-1.046,4.634h-1.121l-1.039-4.634c0,0.104,0.001,0.254,0.003,0.448
				c0.003,0.193,0.005,0.344,0.005,0.451v3.734h-1.075v-5.521h1.679l1.005,4.342L19.128,22.462z"/>
			<path fill="#89664C" d="M26.106,27.492c-0.416,0.43-1.02,0.645-1.809,0.645s-1.392-0.215-1.809-0.645
				c-0.561-0.526-0.84-1.286-0.84-2.276c0-1.012,0.279-1.771,0.84-2.278c0.417-0.429,1.02-0.644,1.809-0.644
				s1.393,0.215,1.809,0.644c0.558,0.507,0.836,1.267,0.836,2.278C26.942,26.206,26.664,26.966,26.106,27.492z M25.386,26.653
				c0.269-0.337,0.402-0.816,0.402-1.438c0-0.62-0.134-1.099-0.402-1.438c-0.268-0.338-0.631-0.508-1.088-0.508
				s-0.822,0.169-1.094,0.507c-0.272,0.337-0.408,0.816-0.408,1.438c0,0.621,0.136,1.101,0.408,1.438
				c0.271,0.338,0.637,0.506,1.094,0.506S25.118,26.991,25.386,26.653z"/>
			<path fill="#89664C" d="M28.497,25.889v0.128c0.009,0.428,0.053,0.728,0.132,0.901s0.247,0.26,0.505,0.26
				c0.255,0,0.425-0.095,0.507-0.285c0.05-0.112,0.073-0.301,0.073-0.568v-3.862h1.154v3.844c0,0.47-0.079,0.841-0.237,1.116
				c-0.27,0.464-0.754,0.696-1.454,0.696c-0.701,0-1.172-0.188-1.41-0.563c-0.24-0.376-0.359-0.889-0.359-1.538v-0.128H28.497z"/>
			<path fill="#89664C" d="M33.142,27.983h-1.146v-5.521h1.146V27.983z"/>
		</g>
		<g>
			<path fill="#89664C" d="M21.668,33.8c-0.417,0.43-1.021,0.645-1.81,0.645s-1.392-0.215-1.809-0.645
				c-0.561-0.526-0.84-1.285-0.84-2.276c0-1.012,0.279-1.771,0.84-2.278c0.417-0.429,1.02-0.644,1.809-0.644s1.393,0.215,1.81,0.644
				c0.557,0.508,0.835,1.267,0.835,2.278C22.503,32.515,22.225,33.273,21.668,33.8z M20.946,32.961
				c0.27-0.337,0.403-0.815,0.403-1.438c0-0.62-0.134-1.098-0.403-1.437c-0.268-0.339-0.63-0.508-1.088-0.508
				c-0.457,0-0.821,0.168-1.094,0.506c-0.271,0.337-0.408,0.816-0.408,1.438s0.137,1.101,0.408,1.438
				c0.272,0.338,0.637,0.507,1.094,0.507C20.316,33.468,20.679,33.299,20.946,32.961z"/>
			<path fill="#89664C" d="M23.365,28.771h1.209l2.191,3.85v-3.85h1.075v5.521h-1.153l-2.247-3.917v3.917h-1.075V28.771z"/>
			<path fill="#89664C" d="M33.007,29.747h-2.922v1.173h2.682v0.96h-2.682v1.419h3.057v0.992h-4.185v-5.521h4.05V29.747z"/>
		</g>
	</g>
	<g>
		<path fill="#89664C" d="M21.506,39.179c0.198,0.064,0.357,0.186,0.479,0.357c0.099,0.141,0.166,0.292,0.201,0.455
			c0.036,0.163,0.054,0.318,0.054,0.466c0,0.374-0.075,0.691-0.227,0.951c-0.203,0.35-0.519,0.525-0.943,0.525h-1.214v-2.815h1.214
			C21.245,39.121,21.39,39.142,21.506,39.179z M20.427,39.607v1.837h0.544c0.277,0,0.473-0.137,0.581-0.41
			c0.061-0.15,0.091-0.329,0.091-0.537c0-0.286-0.046-0.506-0.136-0.66c-0.09-0.152-0.269-0.229-0.536-0.229H20.427z"/>
		<path fill="#89664C" d="M24.763,39.616h-1.489v0.598h1.367v0.49h-1.367v0.724h1.559v0.506h-2.134v-2.815h2.064V39.616z"/>
		<path fill="#89664C" d="M25.559,39.412c0.227-0.231,0.516-0.348,0.865-0.348c0.47,0,0.812,0.155,1.028,0.467
			c0.119,0.175,0.184,0.349,0.193,0.524h-0.589c-0.038-0.135-0.085-0.236-0.145-0.306c-0.104-0.121-0.259-0.183-0.465-0.183
			c-0.21,0-0.375,0.086-0.496,0.259c-0.122,0.172-0.182,0.417-0.182,0.732c0,0.316,0.063,0.552,0.191,0.709s0.29,0.236,0.486,0.236
			c0.202,0,0.356-0.067,0.462-0.202c0.059-0.072,0.107-0.183,0.146-0.327h0.585c-0.051,0.307-0.18,0.557-0.387,0.748
			c-0.207,0.192-0.473,0.289-0.797,0.289c-0.4,0-0.716-0.13-0.944-0.39c-0.229-0.261-0.344-0.618-0.344-1.073
			C25.168,40.057,25.299,39.679,25.559,39.412z"/>
		<path fill="#89664C" d="M29.175,40.024v-0.372c0.172-0.007,0.291-0.019,0.359-0.034c0.11-0.023,0.199-0.072,0.268-0.145
			c0.047-0.05,0.082-0.115,0.106-0.198c0.014-0.05,0.021-0.087,0.021-0.111h0.454v2.77h-0.558v-1.909H29.175z"/>
		<path fill="#89664C" d="M33.142,39.626c-0.082,0.081-0.195,0.224-0.341,0.429c-0.146,0.206-0.268,0.418-0.364,0.638
			c-0.079,0.171-0.148,0.382-0.211,0.63c-0.063,0.248-0.094,0.452-0.094,0.611h-0.565c0.016-0.497,0.179-1.013,0.489-1.55
			c0.2-0.331,0.367-0.563,0.503-0.693h-1.38l0.007-0.49h1.956V39.626z"/>
	</g>
</g>
</svg>
