<?xml version="1.0" encoding="utf-8"?>
<!-- Generator: Adobe Illustrator 15.0.0, SVG Export Plug-In . SVG Version: 6.00 Build 0)  -->
<!DOCTYPE svg PUBLIC "-//W3C//DTD SVG 1.1//EN" "http://www.w3.org/Graphics/SVG/1.1/DTD/svg11.dtd">
<svg version="1.1" id="Layer_1" xmlns="http://www.w3.org/2000/svg" xmlns:xlink="http://www.w3.org/1999/xlink" x="0px" y="0px"
	 width="64px" height="64px" viewBox="0 0 64 64" enable-background="new 0 0 64 64" xml:space="preserve">
<g>
	<polygon fill="#686B6D" points="16.131,31.192 5.227,30.49 5.227,17.025 	"/>
	<g>
		<g>
			<g>
				<polygon fill="#333333" points="4.897,11.691 10.875,21.464 16.327,20.868 9.89,10.772 				"/>
				<polygon fill="#333333" points="3.203,22.303 5.856,22.013 2.485,16.284 				"/>
				<polygon fill="#333333" points="15.319,9.774 22.277,20.218 28.798,19.505 21.245,8.684 				"/>
				<polygon fill="#333333" points="27.736,7.489 35.97,18.722 43.899,17.854 34.886,6.174 				"/>
				<polygon fill="#333333" points="59.261,16.176 58.735,11.778 51.563,3.104 42.786,4.72 52.714,16.892 				"/>
				<polygon fill="#FFFFFF" points="21.245,8.684 28.798,19.505 35.97,18.722 27.736,7.489 				"/>
				<polygon fill="#FFFFFF" points="9.89,10.772 16.327,20.868 22.277,20.218 15.319,9.774 				"/>
				<polygon fill="#FFFFFF" points="42.786,4.72 34.886,6.174 43.899,17.854 52.714,16.892 				"/>
				<polygon fill="#FFFFFF" points="2,12.225 2.485,16.284 5.856,22.013 10.875,21.464 4.897,11.691 				"/>
				<polygon fill="#FFFFFF" points="58.306,8.189 57.566,2 51.563,3.104 58.735,11.778 				"/>
			</g>
			<polygon fill="#EBF2F2" points="58.735,11.778 61.58,15.922 59.94,2.186 57.566,2 			"/>
		</g>
		<polygon fill="#686B6D" points="59.261,16.176 58.735,11.778 61.58,15.922 		"/>
	</g>
	<g>
		<g>
			<polygon fill="#333333" points="2.958,22.75 2.958,31.729 59.655,35.382 59.655,22.75 			"/>
			<g>
				<g>
					<polygon fill="#FFFFFF" points="22.774,33.006 29.341,33.43 36.442,22.75 29.229,22.75 					"/>
					<polygon fill="#FFFFFF" points="11.288,32.266 16.78,32.621 22.669,22.75 16.685,22.75 					"/>
					<polygon fill="#FFFFFF" points="36.569,33.895 44.56,34.41 53.284,22.75 44.419,22.75 					"/>
				</g>
				<polygon fill="#FFFFFF" points="6.154,22.75 2.958,28.939 2.958,31.729 6.235,31.94 11.2,22.75 				"/>
				<polygon fill="#FFFFFF" points="59.655,26.734 53.441,34.982 59.655,35.382 				"/>
			</g>
		</g>
		<polygon fill="#EBF2F2" points="59.655,26.734 62.001,22.75 62.001,34.99 59.655,35.382 		"/>
	</g>
	<polygon fill="#686B6D" points="59.655,22.75 59.655,26.734 62.001,22.75 	"/>
	<polygon fill="#333333" points="2.958,31.729 2.958,49.689 59.655,62 59.655,35.382 	"/>
	<polygon fill="#FFFFFF" points="59.655,36.86 2.958,32.728 2.961,31.543 59.655,35.199 	"/>
	<g>
		<polygon fill="#FFFFFF" points="59.655,53.128 2.958,43.703 2.958,42.705 59.655,51.648 		"/>
		<polygon fill="#FFFFFF" points="59.655,45.733 2.958,38.714 2.958,37.716 59.655,44.255 		"/>
	</g>
	<polygon fill="#FFFFFF" points="13.778,44.957 12.794,44.798 12.794,39.391 13.778,39.51 	"/>
	<g>
		<polygon fill="#181919" points="13.353,32.432 2.449,31.729 2.449,18.265 		"/>
		<path fill="#FFFFFF" d="M4.582,22.222c0,0.562-0.385,1.018-0.856,1.022c-0.467,0.003-0.843-0.442-0.843-0.995
			c0-0.555,0.375-1.011,0.843-1.022C4.197,21.215,4.582,21.66,4.582,22.222z"/>
		<path fill="#FFFFFF" d="M4.582,29.913c0,0.562-0.385,0.993-0.856,0.966c-0.467-0.025-0.843-0.495-0.843-1.048
			c0-0.554,0.375-0.986,0.843-0.968C4.197,28.882,4.582,29.352,4.582,29.913z"/>
		<path fill="#FFFFFF" d="M10.154,30.18c0,0.588-0.421,1.04-0.937,1.012c-0.512-0.029-0.923-0.521-0.923-1.101
			s0.411-1.031,0.923-1.011C9.733,29.1,10.154,29.593,10.154,30.18z"/>
	</g>
	<polygon fill="#686B6D" points="62.001,60.521 59.655,62 59.655,36.86 62.001,36.47 	"/>
	<polygon fill="#EBF2F2" points="62.001,34.99 59.655,35.382 59.655,36.86 62.001,36.47 	"/>
	<polygon fill="#EBF2F2" points="62.001,43.688 59.655,44.295 59.655,45.733 62.001,45.127 	"/>
	<polygon fill="#EBF2F2" points="62.001,50.667 59.655,51.689 59.655,53.128 62.001,52.105 	"/>
</g>
</svg>
