<?xml version="1.0" encoding="utf-8"?>
<!-- Generator: Adobe Illustrator 15.0.0, SVG Export Plug-In . SVG Version: 6.00 Build 0)  -->
<!DOCTYPE svg PUBLIC "-//W3C//DTD SVG 1.1//EN" "http://www.w3.org/Graphics/SVG/1.1/DTD/svg11.dtd">
<svg version="1.1" id="Layer_1" xmlns="http://www.w3.org/2000/svg" xmlns:xlink="http://www.w3.org/1999/xlink" x="0px" y="0px"
	 width="64px" height="64px" viewBox="0 0 64 64" enable-background="new 0 0 64 64" xml:space="preserve">
<g>
	<g>
		<g>
			<g>
				<path fill="#454749" d="M47.477,45.128c-6.633,12.071-6.518,13.062-9.592,11.301c-3.072-1.759-4.257-3.361,2.375-15.432
					c6.632-12.071,8.59-11.875,11.664-10.115C54.996,32.641,54.108,33.059,47.477,45.128z"/>
				<path fill="#258399" d="M53.715,48.698c-4.221,7.684-9.434,11.392-11.893,9.984c-3.075-1.762-1.496-1.781,5.136-13.851
					c6.634-12.071,5.826-13.457,8.9-11.697C58.317,34.542,57.937,41.017,53.715,48.698z"/>
			</g>
			<g>
				<path fill="#454749" d="M16.522,45.128c6.632,12.071,6.519,13.062,9.591,11.301c3.074-1.759,4.259-3.361-2.373-15.432
					c-6.632-12.071-8.59-11.875-11.665-10.115C9.003,32.641,9.892,33.059,16.522,45.128z"/>
				<path fill="#258399" d="M10.285,48.698c4.22,7.684,9.435,11.392,11.894,9.984c3.074-1.762,1.494-1.781-5.138-13.851
					c-6.632-12.071-5.825-13.457-8.899-11.697C5.681,34.542,6.063,41.017,10.285,48.698z"/>
			</g>
		</g>
		<path fill="#3BAACF" d="M11.267,57.714c0,0,5.409,1.423,5.843,0c2.483-8.149-11.406-12.938-11.406-22.118
			c0-14.823,11.772-26.84,26.296-26.84c14.522,0,26.295,12.017,26.295,26.84c0,9.18-13.889,13.969-11.405,22.118
			c0.434,1.423,5.841,0,5.841,0C58.438,52.14,62,44.294,62,35.596c0-16.912-13.433-30.62-30-30.62c-16.569,0-30,13.708-30,30.62
			C2,44.294,5.561,52.14,11.267,57.714z"/>
		<g>
			<path fill="#454749" d="M14.86,17.644c3.468-0.668,7.996-5.738,17.141-5.738c9.142,0,13.67,5.07,17.14,5.738
				c1.371,0.264,3.79-1.889,3.79-1.889C47.436,9.453,40.915,6.235,32,6.235c-8.916,0-15.436,3.218-20.931,9.52
				C11.069,15.755,13.487,17.908,14.86,17.644z"/>
		</g>
	</g>
</g>
</svg>
