<?xml version="1.0" encoding="utf-8"?>
<!-- Generator: Adobe Illustrator 15.0.0, SVG Export Plug-In . SVG Version: 6.00 Build 0)  -->
<!DOCTYPE svg PUBLIC "-//W3C//DTD SVG 1.1//EN" "http://www.w3.org/Graphics/SVG/1.1/DTD/svg11.dtd">
<svg version="1.1" id="Layer_1" xmlns="http://www.w3.org/2000/svg" xmlns:xlink="http://www.w3.org/1999/xlink" x="0px" y="0px"
	 width="64px" height="64px" viewBox="0 0 64 64" enable-background="new 0 0 64 64" xml:space="preserve">
<g>
	<g>
		<rect x="13.085" y="16.855" fill="#D0D0D0" width="1" height="5.45"/>
	</g>
	<g>
		<path fill="#94989B" d="M52.221,44.315c-0.021-0.081-2.174-8.241-7.83-26.759C41.029,6.553,32.398,2.932,25.33,4.224
			C19.558,5.28,14.001,9.889,14.597,17.805l-1.994,0.146C12.017,10.165,17.1,3.723,24.964,2.284
			c7.945-1.452,17.624,2.53,21.342,14.703c5.67,18.563,7.83,26.753,7.852,26.833L52.221,44.315z"/>
	</g>
	<g>
		<g>
			<path fill="#3E4347" d="M51.173,44.871c-0.247-0.91,0.302-1.85,1.227-2.095l0.536-0.142c0.924-0.243,1.875,0.298,2.123,1.209
				l4.308,15.86c0.248,0.913-0.301,1.851-1.226,2.095l-0.536,0.143c-0.925,0.244-1.876-0.298-2.124-1.211L51.173,44.871z"/>
		</g>
	</g>
	<g>
		<g>
			<g>
				<path fill="#3E4347" d="M51.688,40.73c1.616,3.42,0.116,7.484-3.351,9.081c-3.467,1.594-7.587,0.114-9.204-3.307
					c-1.616-3.42-0.116-7.484,3.351-9.077C45.95,35.832,50.072,37.313,51.688,40.73z"/>
			</g>
		</g>
		<g>
			<g>
				<path fill="#94989B" d="M48.549,42.176c0.81,1.711,0.059,3.741-1.674,4.539c-1.733,0.798-3.794,0.057-4.603-1.651
					c-0.808-1.71-0.058-3.744,1.675-4.54C45.682,39.727,47.741,40.466,48.549,42.176z"/>
			</g>
		</g>
		<g>
			<g>
				<polygon fill="#D0D0D0" points="35.402,55.24 33.695,53.557 45.084,42.322 46.791,44.008 				"/>
			</g>
		</g>
		<g>
			<g>
				<rect x="32.847" y="52.811" fill="#3E4347" width="5.723" height="2.43"/>
			</g>
		</g>
	</g>
	<g>
		<path fill="#C7E755" d="M18.241,53.242c2.28-3.397,4.601-8.15,4.524-13.399c-0.145-10.241-4.333-18.503-9.356-18.451
			c-5.021,0.052-8.978,8.396-8.83,18.639c0.073,5.247,2.527,9.951,4.904,13.3c-2.791,1.352-4.661,3.927-4.618,6.862
			c0.061,4.294,9.088-0.417,9.088-0.417s9.159,4.523,9.098,0.229C23.01,57.07,21.069,54.535,18.241,53.242z"/>
		<g>
			<g>
				<path fill="#428BC1" d="M10.119,21.628c-0.011-0.821,0.76-1.497,1.723-1.505c0.96-0.01,1.749,0.649,1.759,1.47
					c-0.01-0.821,0.762-1.496,1.719-1.506c0.964-0.011,1.754,0.648,1.766,1.472c0.011,0.82-3.444,2.737-3.444,2.737
					S10.13,22.45,10.119,21.628z"/>
			</g>
		</g>
		<g>
			<g>
				<path fill="#FFFFFF" d="M11.189,31.184c1.697-0.018,3.054-1.204,3.029-2.653c-0.018-1.447-1.408-2.606-3.102-2.589
					c-1.694,0.017-3.053,1.205-3.029,2.652C8.105,30.044,9.496,31.202,11.189,31.184z"/>
			</g>
		</g>
		<g>
			<g>
				<path d="M11.171,29.875c0.848-0.009,1.526-0.604,1.516-1.328c-0.012-0.725-0.704-1.305-1.552-1.295
					c-0.849,0.009-1.526,0.603-1.515,1.326C9.63,29.303,10.324,29.882,11.171,29.875z"/>
			</g>
		</g>
		<g>
			<g>
				<g>
					<path fill="#428BC1" d="M8.4,33.826c2.208,1.345,4.973,1.763,7.582,1.114c2.282-0.567,4.17-1.985,5.246-3.785
						c0.277-0.465,1.102-0.065,0.822,0.402c-1.195,2.001-3.296,3.501-5.81,4.161c-2.802,0.738-5.931,0.26-8.31-1.189
						C7.437,34.229,7.903,33.522,8.4,33.826L8.4,33.826z"/>
				</g>
			</g>
		</g>
		<g>
			<g>
				<g>
					<path fill="#428BC1" d="M21.4,38.302c-0.016,1.938-1.793,3.499-4.063,3.556c-2.27,0.058-4.093-1.585-4.159-3.471
						c0.314-0.004,0.631-0.007,0.947-0.01c-0.016,1.939-1.795,3.498-4.063,3.557c-2.27,0.059-4.094-1.586-4.164-3.473
						c-0.015-0.52,0.934-0.53,0.948-0.009c0.058,1.495,1.452,2.662,3.203,2.671c1.749,0.01,3.118-1.281,3.128-2.736
						c0.002-0.521,0.931-0.532,0.947-0.01c0.053,1.495,1.452,2.662,3.199,2.671c1.751,0.009,3.117-1.282,3.131-2.736
						C20.455,37.788,21.403,37.779,21.4,38.302L21.4,38.302z"/>
				</g>
			</g>
		</g>
		<g>
			<g>
				<g>
					<path fill="#428BC1" d="M19.14,48.556c-0.02,1.382-1.256,2.467-2.873,2.52c-1.614,0.053-2.887-1.132-2.947-2.458
						c0.314-0.004,0.631-0.007,0.947-0.012c-0.02,1.381-1.26,2.469-2.875,2.52c-1.613,0.053-2.889-1.133-2.948-2.459
						c-0.021-0.521,0.927-0.531,0.948-0.01c0.042,0.934,0.897,1.648,1.99,1.659c1.09,0.013,1.922-0.801,1.938-1.698
						c0.012-0.522,0.926-0.533,0.947-0.012c0.046,0.936,0.895,1.647,1.99,1.66c1.094,0.014,1.924-0.803,1.936-1.699
						C18.207,48.046,19.153,48.035,19.14,48.556L19.14,48.556z"/>
				</g>
			</g>
		</g>
		<g>
			<g>
				<g>
					<path fill="#428BC1" d="M20.558,43.363c-0.012,1.728-1.59,3.107-3.611,3.163c-2.019,0.058-3.635-1.413-3.699-3.088
						c0.316-0.002,0.633-0.005,0.947-0.008c-0.014,1.727-1.592,3.108-3.615,3.162c-2.02,0.056-3.635-1.413-3.697-3.088
						c-0.02-0.521,0.928-0.529,0.948-0.009c0.044,1.281,1.238,2.276,2.739,2.287c1.502,0.01,2.668-1.102,2.678-2.345
						c0.004-0.522,0.929-0.532,0.947-0.008c0.048,1.28,1.24,2.276,2.742,2.286c1.5,0.01,2.668-1.1,2.675-2.344
						C19.619,42.852,20.567,42.841,20.558,43.363L20.558,43.363z"/>
				</g>
			</g>
		</g>
	</g>
</g>
</svg>
