<?xml version="1.0" encoding="utf-8"?>
<!-- Generator: Adobe Illustrator 15.0.0, SVG Export Plug-In . SVG Version: 6.00 Build 0)  -->
<!DOCTYPE svg PUBLIC "-//W3C//DTD SVG 1.1//EN" "http://www.w3.org/Graphics/SVG/1.1/DTD/svg11.dtd">
<svg version="1.1" id="Layer_1" xmlns="http://www.w3.org/2000/svg" xmlns:xlink="http://www.w3.org/1999/xlink" x="0px" y="0px"
	 width="64px" height="64px" viewBox="0 0 64 64" enable-background="new 0 0 64 64" xml:space="preserve">
<g>
	<g>
		<path fill="#D0D0D0" d="M32,2C18.193,2,7,13.193,7,27s11.193,25,25,25s25-11.193,25-25S45.807,2,32,2z M32,49
			c-12.15,0-22-9.85-22-22S19.85,5,32,5s22,9.85,22,22S44.15,49,32,49z"/>
		<rect x="8" y="26" fill="#D0D0D0" width="48" height="2"/>
		<rect x="31" y="3" fill="#D0D0D0" width="2" height="48"/>
		<rect x="8" y="26" transform="matrix(0.7071 0.7071 -0.7071 0.7071 28.4645 -14.7193)" fill="#D0D0D0" width="48" height="2"/>
		<rect x="8" y="26" transform="matrix(-0.7071 0.7071 -0.7071 -0.7071 73.7193 23.4645)" fill="#D0D0D0" width="48" height="2"/>
	</g>
	<circle fill="#3E4347" cx="31.979" cy="27.017" r="8.218"/>
	<circle fill="#94989B" cx="31.979" cy="27.017" r="5.506"/>
	<g>
		<g>
			<g>
				<path fill="#ED4C5C" d="M34.896,2.779h-2.118C32.778,2.352,32.43,2,32,2s-0.778,0.352-0.778,0.779h-2.118
					c-1.462,0-2.648,1.188-2.648,2.645v5.791c0,1.459,1.187,2.643,2.648,2.643h5.793c1.459,0,2.648-1.184,2.648-2.643V5.424
					C37.545,3.967,36.355,2.779,34.896,2.779z M35.987,8.318h-7.975V5.424c0-0.6,0.489-1.088,1.091-1.088h5.793
					c0.602,0,1.091,0.488,1.091,1.088V8.318z"/>
			</g>
			<rect x="26.455" y="9.875" fill="#3E4347" width="11.09" height="1.557"/>
		</g>
		<g>
			<g>
				<path fill="#ED4C5C" d="M34.896,50.92h-2.118c0-0.43-0.349-0.777-0.778-0.777s-0.778,0.348-0.778,0.777h-2.118
					c-1.462,0-2.648,1.186-2.648,2.645v5.789c0,1.459,1.187,2.646,2.648,2.646h5.793c1.459,0,2.648-1.188,2.648-2.646v-5.789
					C37.545,52.105,36.355,50.92,34.896,50.92z M35.987,56.461h-7.975v-2.896c0-0.6,0.489-1.088,1.091-1.088h5.793
					c0.602,0,1.091,0.488,1.091,1.088V56.461z"/>
			</g>
			<rect x="26.455" y="58.018" fill="#3E4347" width="11.09" height="1.555"/>
		</g>
		<g>
			<g>
				<path fill="#F2B200" d="M10.441,26.85H8.323c0-0.43-0.349-0.779-0.778-0.779s-0.778,0.35-0.778,0.779H4.648
					C3.187,26.85,2,28.037,2,29.496v5.791c0,1.457,1.187,2.643,2.648,2.643h5.793c1.459,0,2.648-1.186,2.648-2.643v-5.791
					C13.09,28.037,11.9,26.85,10.441,26.85z M11.532,32.391H3.558v-2.895c0-0.602,0.489-1.088,1.091-1.088h5.793
					c0.602,0,1.091,0.486,1.091,1.088V32.391z"/>
			</g>
			<rect x="2" y="33.947" fill="#3E4347" width="11.09" height="1.555"/>
		</g>
		<g>
			<g>
				<path fill="#42ADE2" d="M59.352,26.85h-2.118c0-0.43-0.349-0.779-0.778-0.779s-0.778,0.35-0.778,0.779h-2.118
					c-1.462,0-2.648,1.188-2.648,2.646v5.791c0,1.457,1.187,2.643,2.648,2.643h5.793c1.462,0,2.648-1.186,2.648-2.643v-5.791
					C62,28.037,60.813,26.85,59.352,26.85z M60.442,32.391h-7.975v-2.895c0-0.602,0.489-1.088,1.091-1.088h5.793
					c0.602,0,1.091,0.486,1.091,1.088V32.391z"/>
			</g>
			<rect x="50.91" y="33.947" fill="#3E4347" width="11.09" height="1.555"/>
		</g>
		<g>
			<g>
				<path fill="#42ADE2" d="M17.864,9.83h-2.119c0-0.428-0.349-0.779-0.778-0.777c-0.43-0.002-0.778,0.35-0.778,0.777H12.07
					c-1.461,0-2.648,1.186-2.648,2.645v5.791c0,1.459,1.188,2.643,2.649,2.643h5.792c1.46,0,2.648-1.184,2.648-2.643v-5.791
					C20.512,11.016,19.322,9.83,17.864,9.83z M18.954,15.369h-7.975v-2.895c0-0.6,0.49-1.088,1.092-1.088h5.792
					c0.602,0,1.091,0.488,1.091,1.088V15.369z"/>
			</g>
			<rect x="9.422" y="16.926" fill="#3E4347" width="11.09" height="1.557"/>
		</g>
		<g>
			<g>
				<path fill="#F2B200" d="M51.929,43.869l-2.117,0.002c0-0.432-0.349-0.779-0.778-0.777c-0.43-0.002-0.779,0.346-0.779,0.777
					l-2.117-0.002c-1.462,0-2.648,1.186-2.648,2.646v5.789c0,1.457,1.187,2.645,2.648,2.645h5.792
					c1.459,0.002,2.649-1.188,2.649-2.645v-5.789C54.579,45.055,53.389,43.869,51.929,43.869z M53.021,49.41h-7.977v-2.895
					c0-0.602,0.49-1.09,1.092-1.09h5.792c0.603,0,1.092,0.488,1.092,1.09L53.021,49.41z"/>
			</g>
			<rect x="43.488" y="50.967" fill="#3E4347" width="11.091" height="1.555"/>
		</g>
		<g>
			<g>
				<path fill="#83BF4F" d="M17.604,44.131h-2.118c0-0.432-0.349-0.777-0.777-0.779c-0.431,0-0.779,0.348-0.779,0.779h-2.117
					c-1.462,0-2.649,1.186-2.649,2.645v5.791c0,1.459,1.188,2.643,2.649,2.643h5.792c1.459,0,2.648-1.184,2.648-2.643v-5.791
					C20.252,45.316,19.063,44.131,17.604,44.131z M18.694,49.672L10.72,49.67v-2.895c0-0.6,0.49-1.088,1.092-1.088h5.792
					c0.602,0,1.091,0.488,1.091,1.088V49.672z"/>
			</g>
			<rect x="9.163" y="51.227" fill="#3E4347" width="11.089" height="1.557"/>
		</g>
		<g>
			<g>
				<path fill="#83BF4F" d="M52.188,9.57H50.07c0.001-0.43-0.348-0.777-0.778-0.777s-0.778,0.348-0.778,0.777h-2.118
					c-1.461,0-2.649,1.188-2.649,2.646v5.789c0,1.459,1.188,2.645,2.65,2.645h5.792c1.462-0.002,2.649-1.186,2.649-2.645v-5.791
					C54.838,10.758,53.65,9.57,52.188,9.57z M53.28,15.109l-7.976,0.002v-2.895c0-0.602,0.489-1.09,1.091-1.09h5.793
					c0.602,0,1.092,0.488,1.092,1.09V15.109z"/>
			</g>
			<rect x="43.746" y="16.666" fill="#3E4347" width="11.092" height="1.557"/>
		</g>
	</g>
	<g>
		<circle fill="#ED4C5C" cx="31.979" cy="27.017" r="2.753"/>
		<polygon fill="#ED4C5C" points="32.98,26.35 31.893,26.968 30.998,26.459 10.65,64 13.244,64 32.02,29.224 50.797,64 53.391,64 		
			"/>
	</g>
</g>
</svg>
