<?xml version="1.0" encoding="utf-8"?>
<!-- Generator: Adobe Illustrator 15.0.0, SVG Export Plug-In . SVG Version: 6.00 Build 0)  -->
<!DOCTYPE svg PUBLIC "-//W3C//DTD SVG 1.1//EN" "http://www.w3.org/Graphics/SVG/1.1/DTD/svg11.dtd">
<svg version="1.1" id="Layer_1" xmlns="http://www.w3.org/2000/svg" xmlns:xlink="http://www.w3.org/1999/xlink" x="0px" y="0px"
	 width="64px" height="64px" viewBox="0 0 64 64" enable-background="new 0 0 64 64" xml:space="preserve">
<g>
	<path fill="#333333" d="M61.876,44.196L61.876,44.196l-4.392-22.105c-0.965-5.144-5.388-9.037-10.715-9.087V13H17.337
		c-5.376-0.002-9.854,3.914-10.824,9.093l-4.39,22.104l0,0c-0.081,0.39-0.129,0.79-0.123,1.205C1.995,48.493,4.461,51,7.505,51
		c1.959,0,3.681-1.039,4.657-2.607l7.243-9.039c1.157,1.094,2.71,1.763,4.416,1.765c3.577-0.002,6.48-2.949,6.48-6.591l3.5-0.001
		c0,3.639,2.904,6.59,6.482,6.59c1.677,0,3.202-0.647,4.354-1.704l7.197,8.98C52.813,49.957,54.536,51,56.492,51
		c3.043,0,5.512-2.507,5.508-5.601C62.004,44.984,61.957,44.584,61.876,44.196z"/>
	<g>
		<g>
			<path fill="#94989B" d="M20.923,25.244c0.701,0.715,1.503,0.505,1.781-0.468l0.004-3.126c-0.282-0.972-1.084-1.181-1.787-0.465
				l-0.718,0.729c-0.703,0.717-0.703,1.884,0.001,2.6L20.923,25.244z"/>
		</g>
		<g>
			<path fill="#94989B" d="M15.801,17.759c-0.961,0.279-1.166,1.099-0.46,1.813l0.719,0.729c0.703,0.716,1.854,0.716,2.558,0
				l0.714-0.728c0.705-0.716,0.499-1.535-0.455-1.817L15.801,17.759z"/>
		</g>
		<g>
			<path fill="#94989B" d="M13.753,21.186c-0.703-0.716-1.509-0.507-1.784,0.466l-0.004,3.126c0.28,0.973,1.085,1.183,1.789,0.465
				l0.716-0.729c0.704-0.715,0.703-1.883,0-2.6L13.753,21.186z"/>
		</g>
		<g>
			<path fill="#94989B" d="M18.875,28.671c0.954-0.283,1.16-1.098,0.457-1.813l-0.716-0.73c-0.705-0.714-1.854-0.714-2.558,0.001
				l-0.718,0.729c-0.706,0.717-0.501,1.531,0.457,1.817L18.875,28.671z"/>
		</g>
	</g>
	<g>
		<path fill="#F2B200" d="M49.462,23.216c-0.999-0.003-1.809,0.822-1.807,1.839c-0.002,1.016,0.807,1.839,1.805,1.838
			c1,0.001,1.813-0.822,1.813-1.841C51.272,24.036,50.46,23.214,49.462,23.216z"/>
		<path fill="#F2B200" d="M44.247,25.052c-1,0-1.81,0.824-1.808,1.841c0,1.015,0.809,1.841,1.808,1.841
			c0.998,0,1.812-0.825,1.812-1.841C46.056,25.876,45.247,25.052,44.247,25.052z"/>
		<path fill="#F2B200" d="M49.293,21.374c0.999,0,1.808-0.825,1.81-1.839c-0.002-1.017-0.81-1.84-1.81-1.839
			c-1.004-0.004-1.812,0.82-1.81,1.839C47.483,20.549,48.293,21.374,49.293,21.374z"/>
		<path fill="#F2B200" d="M44.078,23.211c1.001,0.005,1.81-0.82,1.808-1.839c0-1.014-0.808-1.837-1.805-1.839
			c-1.004,0.002-1.813,0.825-1.813,1.841C42.27,22.391,43.077,23.214,44.078,23.211z"/>
	</g>
	<g>
		<ellipse fill="#94989B" cx="40.287" cy="34.526" rx="4.343" ry="4.416"/>
		<path fill="#94989B" d="M23.821,30.11c-2.399,0-4.346,1.978-4.345,4.416c0,2.44,1.944,4.415,4.341,4.413
			c2.401,0.004,4.348-1.973,4.344-4.414C28.161,32.088,26.218,30.113,23.821,30.11z"/>
	</g>
</g>
</svg>
