<?xml version="1.0" encoding="utf-8"?>
<!-- Generator: Adobe Illustrator 15.0.0, SVG Export Plug-In . SVG Version: 6.00 Build 0)  -->
<!DOCTYPE svg PUBLIC "-//W3C//DTD SVG 1.1//EN" "http://www.w3.org/Graphics/SVG/1.1/DTD/svg11.dtd">
<svg version="1.1" id="Layer_1" xmlns="http://www.w3.org/2000/svg" xmlns:xlink="http://www.w3.org/1999/xlink" x="0px" y="0px"
	 width="64px" height="64px" viewBox="0 0 64 64" enable-background="new 0 0 64 64" xml:space="preserve">
<g>
	<path fill="#3E4347" d="M61.338,41.824C58.106,34.301,46.076,40.85,32,40.85c-14.075,0-26.105-6.549-29.337,0.975
		C-0.961,49.02,10.487,61.943,32,61.943C53.514,61.943,64.961,49.02,61.338,41.824z"/>
	<g>
		<path fill="#3E4347" d="M32,1.943C17.951,2.01,7.935,8.136,9.28,11.51c3.835,12.499,5.244,23.783,4.001,36.283
			c12.554,3.031,24.867,2.84,37.422-0.191c-1.243-12.5,0.183-23.592,4.018-36.091C56.064,8.136,46.051,2.009,32,1.943z"/>
		<g>
			<path fill="#ED4C5C" d="M13.622,40.531c0.217,2.51-1.14,7.254-1.14,7.254c11.62,11.059,27.417,11.059,39.036,0
				c0,0-1.094-4.693-1.139-7.254C38.576,51.156,25.425,51.156,13.622,40.531z"/>
		</g>
	</g>
	<path fill="#656D72" d="M54.969,10.394c0,4.666-10.283,8.447-22.969,8.447c-12.685,0-22.968-3.781-22.968-8.447
		c0-4.669,10.283-8.451,22.968-8.451C44.686,1.943,54.969,5.725,54.969,10.394z"/>
</g>
</svg>
