<?xml version="1.0" encoding="utf-8"?>
<!-- Generator: Adobe Illustrator 15.0.0, SVG Export Plug-In . SVG Version: 6.00 Build 0)  -->
<!DOCTYPE svg PUBLIC "-//W3C//DTD SVG 1.1//EN" "http://www.w3.org/Graphics/SVG/1.1/DTD/svg11.dtd">
<svg version="1.1" id="Layer_1" xmlns="http://www.w3.org/2000/svg" xmlns:xlink="http://www.w3.org/1999/xlink" x="0px" y="0px"
	 width="64px" height="64px" viewBox="0 0 64 64" enable-background="new 0 0 64 64" xml:space="preserve">
<g>
	<g>
		<path fill="#94989B" d="M3.591,22C2.99,22,2.5,22.494,2.5,23.1v19.8c0,0.607,0.49,1.1,1.091,1.1L6.5,43.254V22.746L3.591,22z"/>
		<polygon fill="#3E4347" points="6.5,22.746 6.5,43.254 46.5,33 		"/>
	</g>
	<polygon fill="#3E4347" points="42.5,41.025 37.5,41.025 28.5,62 24.394,62 24.394,64 31.087,64 38.5,46 38.5,62 35.5,62 35.5,64 
		44.5,64 44.5,62 41.5,62 41.5,46 49.074,64 55.5,64 55.5,62 51.5,62 	"/>
	<g>
		<circle fill="#3E4347" cx="29.5" cy="12" r="12"/>
		<circle fill="#94989B" cx="29.5" cy="11.999" r="4"/>
	</g>
	<g>
		<circle fill="#3E4347" cx="49.5" cy="12" r="12"/>
		<circle fill="#94989B" cx="49.5" cy="11.999" r="4"/>
	</g>
	<path fill="#3E4347" d="M61.5,42.9c0,0.607-0.498,1.1-1.102,1.1H18.6c-0.608,0-1.1-0.492-1.1-1.1V23.1
		c0-0.606,0.492-1.101,1.1-1.101h41.799c0.604,0,1.102,0.494,1.102,1.101V42.9z"/>
	<path fill="#94989B" d="M59.5,41c0,0.553-0.498,1-1.11,1H20.611c-0.613,0-1.111-0.447-1.111-1l0,0c0-0.551,0.498-1,1.111-1H58.39
		C59.002,40,59.5,40.449,59.5,41L59.5,41z"/>
	<rect x="41.5" y="26" fill="#94989B" width="16" height="12"/>
	<rect x="42.5" y="27" fill="#3E4347" width="14" height="10"/>
	<rect x="21.5" y="33" fill="#94989B" width="16" height="4"/>
	<rect x="21.5" y="27" fill="#94989B" width="16" height="4"/>
</g>
</svg>
