<?xml version="1.0" encoding="utf-8"?>
<!-- Generator: Adobe Illustrator 15.0.0, SVG Export Plug-In . SVG Version: 6.00 Build 0)  -->
<!DOCTYPE svg PUBLIC "-//W3C//DTD SVG 1.1//EN" "http://www.w3.org/Graphics/SVG/1.1/DTD/svg11.dtd">
<svg version="1.1" id="Layer_1" xmlns="http://www.w3.org/2000/svg" xmlns:xlink="http://www.w3.org/1999/xlink" x="0px" y="0px"
	 width="64px" height="64px" viewBox="0 0 64 64" enable-background="new 0 0 64 64" xml:space="preserve">
<g>
	<polygon fill="#ED4C5C" points="29.5,4.813 29.188,4.063 29.188,3.125 29.5,2 25.19,2 25.503,2.75 25.503,3.688 25.19,4.813 
		25.503,5.563 25.503,6.5 25.19,7.625 25.503,8.375 25.503,9.313 25.19,10.438 25.503,11.188 25.503,12.125 25.19,13.25 25.503,14 
		25.503,14.938 25.19,16.063 25.503,16.813 25.503,17.75 25.19,18.875 25.503,19.625 25.503,20.563 25.19,21.688 25.503,22.437 
		25.503,23.375 25.19,24.5 25.503,25.25 25.503,26.187 25.19,27.313 25.503,28.062 25.503,29 25.19,30.125 25.503,30.875 
		25.503,31.813 25.19,32.938 25.503,33.688 25.503,34.625 25.19,35.75 25.503,36.5 25.503,37.438 25.19,38.563 25.503,39.313 
		25.503,40.25 25.19,41.375 25.503,42.125 25.503,43.063 25.19,44.188 25.503,44.938 25.503,45.875 25.19,47 25.503,47.75 
		25.503,48.688 25.19,49.813 25.503,50.563 25.503,51.5 25.19,52.624 25.503,53.374 25.503,54.312 25.19,55.437 25.503,56.187 
		25.503,57.124 25.19,58.25 25.503,58.999 25.503,59.937 25.19,61.063 25.503,62 29.188,62 29.5,61.063 29.188,60.313 
		29.188,59.375 29.5,58.25 29.188,57.5 29.188,56.563 29.5,55.437 29.188,54.688 29.188,53.75 29.5,52.624 29.188,51.876 
		29.188,50.938 29.5,49.813 29.188,49.063 29.188,48.125 29.5,47 29.188,46.25 29.188,45.313 29.5,44.188 29.188,43.438 
		29.188,42.5 29.5,41.375 29.188,40.625 29.188,39.688 29.5,38.563 29.188,37.813 29.188,36.875 29.5,35.75 29.188,35 
		29.188,34.063 29.5,32.938 29.188,32.188 29.188,31.25 29.5,30.125 29.188,29.375 29.188,28.438 29.5,27.313 29.188,26.563 
		29.188,25.625 29.5,24.5 29.188,23.75 29.188,22.813 29.5,21.688 29.188,20.938 29.188,20 29.5,18.875 29.188,18.125 
		29.188,17.188 29.5,16.063 29.188,15.313 29.188,14.375 29.5,13.25 29.188,12.5 29.188,11.563 29.5,10.438 29.188,9.688 
		29.188,8.75 29.5,7.625 29.188,6.875 29.188,5.938 	"/>
	<g>
		<g>
			<g>
				<g>
					<g>
						<path fill="#181F27" d="M44.609,28.206c0.303-2.38,1.366-6.452,5.056-9.287c4.651-3.574,9.318-3.237,9.736-7.48
							c0,0,6.427,7.678-0.936,13.335c-5.313,4.082-8.743,1.463-10.776,3.271C46.771,27.909,45.743,27.938,44.609,28.206z"/>
					</g>
				</g>
			</g>
			<path fill="#4E697C" d="M52.366,23.714c-1.348,0.181-3.133,0.613-4.488,1.475c1.099-1.347,2.81-2.423,4.072-3.074
				c2.584-1.453,5.656-2.496,7.125-5.313c-1.591,2.665-4.669,3.715-7.333,4.933c-1.324,0.681-3.011,1.616-4.229,2.854
				c0.875-2.062,2.473-3.824,4.409-4.931c1.655-0.945,3.352-1.847,4.938-2.903c1.28-0.853,2.383-1.873,2.716-3.428
				c-0.403,1.523-1.513,2.479-2.82,3.277c-1.702,1.039-3.53,1.845-5.268,2.819c-2.882,1.543-5.076,4.521-5.482,7.803
				c-0.046,0.224-0.075,0.453-0.08,0.691c0,0.009-0.004,0.019-0.006,0.028c0.002,0,0.002,0,0.004,0c0,0.01-0.004,0.02-0.004,0.029
				c0.002,0,0.002,0,0.002,0c0,0.009-0.002,0.016-0.002,0.025c0.15-0.009,0.3-0.017,0.45-0.025c0.14,0.009,0.28,0.018,0.42,0.027
				c0,0,0,0-0.002-0.002c0.32-2.63,3.911-3.496,6.022-3.922c2.536-0.538,5.021-1.787,6.561-3.94
				C57.679,22.28,55.005,23.361,52.366,23.714z"/>
		</g>
		<g>
			<g>
				<path fill="#D4DAF4" d="M40.321,39.259c0,0,4.07,5.993,9.571,5.993c5.502,0,5.456,0.205,6.405,4.852
					c0.95,4.646,3.579,8.071,3.579,8.071L62,53.693c0,0-2.343-1.204-2.613-6.984c-0.271-5.782-2.325-4.929-4.974-5.993
					c-2.653-1.063-4.74-5.328-4.74-5.328s3.859-10.055-7.041-11.767c-10.901-1.713-11.864,7.626-22.062-1.798
					C10.37,12.4,4.681,16.726,4.681,16.726l1.76,1.278c0,0-1.53,8.498-3.487,9.97c-2.347,1.763,0.146,3.933,2.039,4.01
					c0.161,0.007,1.934-2.611,2.377-2.435c1.187,0.47-0.372,2.461-0.063,2.609c0.837,0.399,1.557-1.013,1.557-2.272
					c0,0,2.817-1.681,3.86-4.93c0,0-1.082,7.788,3.617,11.814c0,0-0.696,2.218-1.798,2.747c-7.782,3.735-7.143,3.813-7.143,9.739
					c0,5.925-1.557,8.151-1.557,8.151s0.841,0.797,4.075,0.797c0,0,1.31-4.254,0.977-9.219c-0.333-4.966,4.437-5.074,6.779-5.074
					c3.751,0,5.716-2.863,5.716-2.863S28.204,45.662,40.321,39.259z"/>
			</g>
		</g>
		<g>
			<g>
				<g>
					<path fill="#7E93A4" d="M40.321,39.259c0,0,4.07,5.993,9.571,5.993c1.894,0,3.129,0.025,3.976,0.245
						c0.069,0.425,0.118,0.917,0.145,1.49c0.214,4.626,2.091,5.588,2.091,5.588l-1.699,3.589c0,0-2.103-2.741-2.86-6.457
						c-0.762-3.718-0.725-3.884-5.127-3.884c-3.729,0-6.638-4.511-7.436-5.888C39.417,39.728,39.863,39.5,40.321,39.259z"/>
				</g>
				<g>
					<path fill="#7E93A4" d="M12.69,44.9c1.52-0.954,3.646-0.989,4.982-0.989c3.751,0,5.716-2.863,5.716-2.863
						s0.469,0.448,1.481,0.871c-0.615,0.998-2.04,2.835-4.228,2.835c-1.875,0-5.691,0.086-5.424,4.056
						c0.265,3.973-0.782,7.374-0.782,7.374c-2.586,0-3.261-0.635-3.261-0.635s1.248-1.78,1.248-6.521
						C12.422,47.004,12.324,45.819,12.69,44.9z"/>
				</g>
			</g>
		</g>
		<g>
			<path fill="#3E4347" d="M8.559,21.952c0-0.414-0.509-0.751-1.131-0.751s-1.124,0.337-1.124,0.751c0,0.413,0.501,0.75,1.124,0.75
				S8.559,22.365,8.559,21.952z"/>
		</g>
		<g>
			<path fill="#3E4347" d="M3.091,30.017c0.22,0.353,0.593,0.531,0.837,0.392c0.242-0.137,0.258-0.535,0.04-0.89
				c-0.218-0.354-0.589-0.531-0.833-0.392C2.891,29.264,2.874,29.664,3.091,30.017z"/>
		</g>
		<g>
			<g>
				<g>
					<g>
						<path fill="#181F27" d="M14.895,54.164c-0.22,1.245-0.459,2.02-0.459,2.02c-2.586,0-3.261-0.635-3.261-0.635
							s0.369-0.523,0.704-1.758C13.26,54.234,14.304,54.229,14.895,54.164z"/>
					</g>
					<g>
						<path fill="#181F27" d="M54.865,51.026c0.581,1.231,1.238,1.574,1.238,1.574l-1.699,3.583c0,0-0.808-1.053-1.605-2.742
							C53.85,52.791,54.516,51.725,54.865,51.026z"/>
					</g>
				</g>
				<g>
					<g>
						<path fill="#181F27" d="M10.491,55.677c-0.276,1.555-0.574,2.527-0.574,2.527c-3.234,0-4.075-0.797-4.075-0.797
							s0.459-0.653,0.875-2.199C8.447,55.765,9.753,55.761,10.491,55.677z"/>
					</g>
					<g>
						<path fill="#181F27" d="M60.452,51.727C61.18,53.271,62,53.693,62,53.693l-2.123,4.481c0,0-1.012-1.318-2.007-3.43
							C59.18,53.934,60.015,52.597,60.452,51.727z"/>
					</g>
				</g>
			</g>
		</g>
		<g>
		</g>
		<g>
			<g>
				<g>
					<polygon fill="#6C3C78" points="12.229,26.21 13.076,25.93 11.13,20.553 10.284,20.834 					"/>
				</g>
				<g>
					<polygon fill="#6C3C78" points="10.694,21.884 11.588,21.952 12.19,14.607 11.294,14.539 					"/>
				</g>
				<g>
					<polygon fill="#6C3C78" points="6.997,29.686 7.827,30.011 11.679,20.964 10.849,20.639 					"/>
				</g>
				<g>
					<polygon fill="#6C3C78" points="11.514,21.358 11.606,20.503 5.794,19.928 5.701,20.783 					"/>
				</g>
			</g>
		</g>
		<ellipse fill="#A35CFF" cx="11.033" cy="21.311" rx="1.381" ry="1.323"/>
		<path fill="#181F27" d="M5.583,17.383c-1.441,0.081-2.307,2.501-0.615,3.342s5.499-1.181,5.826-1.943
			c0.326-0.762-1.958,0.732-4.354-0.778L5.583,17.383z"/>
		<polygon fill="#A35CFF" points="14.627,36.063 50.602,36.063 50.602,33.172 13.649,33.172 		"/>
		<polygon fill="#6C3C78" points="13.878,33.835 25.954,29.511 24.899,26.803 12.822,31.128 		"/>
		<g>
			<path fill="#A35CFF" d="M26.294,48.182c0.15,0.501,0.606,1.199,1.968,1.635c0.791,0.255,1.822,0.394,2.895,0.394
				c2.078,0,4.516-0.509,5.133-1.93c0.257-0.604,0.077-1.282-0.544-2.018c-0.362-0.437-0.9-0.923-1.601-1.45
				c-0.743-0.559-1.502-1.039-1.961-1.317v-3.303h-1.749v3.309c-0.445,0.274-1.175,0.743-1.898,1.293
				c-0.685,0.519-1.22,1.002-1.589,1.439C26.338,46.949,26.124,47.583,26.294,48.182z M27.992,47.766
				c0.035-0.115,0.271-0.659,1.8-1.793c0.571-0.421,1.145-0.791,1.525-1.028c0.374,0.232,0.943,0.591,1.512,1.003
				c1.456,1.053,1.757,1.595,1.818,1.743c-0.103,0.13-0.39,0.343-1.014,0.527c-0.684,0.209-1.563,0.322-2.475,0.322
				c-0.892,0-1.725-0.107-2.346-0.308C28.301,48.067,28.052,47.874,27.992,47.766z"/>
			<g>
				<g>
					<g>
						<path fill="#6C3C78" d="M37.234,22.702v13.069c0,3.133-2.649,5.676-5.921,5.676c-3.278,0-5.929-2.543-5.929-5.676V24.352
							C29.999,26.194,32.99,24.161,37.234,22.702z"/>
					</g>
				</g>
				<g>
					<g>
						<g>
							<path fill="#A35CFF" d="M28.94,35.771V25.084c1.653,0.007,3.162-0.445,4.739-1.038v11.725c0,1.25-1.063,2.269-2.366,2.269
								C30,38.039,28.94,37.021,28.94,35.771z"/>
						</g>
					</g>
				</g>
			</g>
		</g>
		<path fill="#181F27" d="M7.46,15.735c0.063-1.694,1.529-4.038,8.013-4.296c6.298-0.249,0.322,1.996-0.286,3.111
			c0,0,4.12-0.822,8.238,1.639c2.472,1.476-1.85,1.172-1.876,2.736c0,0,3.71,0.765,4.159,3.047c0.198,1.003-1.396-0.363-1.886,0.955
			c0,0,5.835,1.106,2.753,5.277c-2.508,3.395-4.997,2.488-5.567,2.208c-0.57-0.278,0.724-2.84,0.561-3.677
			c-0.163-0.835-0.571-1.114-1.346,0.36c-0.229,0.436-1.611-1.772-0.591-5.203c0,0-1.147,0.887-2.172-1.324
			c0,0-1.958-0.132-2.217-2.432c0,0-1.177-0.015-2.6-1.348C12.644,16.79,7.432,16.502,7.46,15.735z"/>
	</g>
</g>
</svg>
