<?xml version="1.0" encoding="utf-8"?>
<!-- Generator: Adobe Illustrator 15.0.0, SVG Export Plug-In . SVG Version: 6.00 Build 0)  -->
<!DOCTYPE svg PUBLIC "-//W3C//DTD SVG 1.1//EN" "http://www.w3.org/Graphics/SVG/1.1/DTD/svg11.dtd">
<svg version="1.1" id="Layer_1" xmlns="http://www.w3.org/2000/svg" xmlns:xlink="http://www.w3.org/1999/xlink" x="0px" y="0px"
	 width="64px" height="64px" viewBox="0 0 64 64" enable-background="new 0 0 64 64" xml:space="preserve">
<g>
	<g>
		<g>
			<polygon fill="#F2B200" points="14.08,45.563 15.907,43.777 5.799,33.898 3.971,35.682 			"/>
			<polygon fill="#F2B200" points="18.949,40.803 20.776,39.02 10.67,29.139 8.84,30.922 			"/>
			<polygon fill="#F2B200" points="13.707,26.164 23.819,36.045 25.645,34.262 15.536,24.381 			"/>
		</g>
		<g>
			<polygon fill="#F2B200" points="32.728,58.432 18.871,44.889 15.222,48.457 15.222,48.457 29.078,62 			"/>
			<polygon fill="#F2B200" points="37.595,53.672 23.74,40.129 20.089,43.697 33.947,57.242 			"/>
			<polygon fill="#F2B200" points="42.464,48.918 28.608,35.375 24.957,38.939 38.814,52.484 			"/>
		</g>
		<g>
			<polygon fill="#FFCE31" points="18.871,44.889 10.107,36.322 6.452,39.887 15.222,48.457 15.222,48.457 			"/>
			<polygon fill="#FFCE31" points="15.012,31.598 11.357,35.164 20.089,43.697 23.74,40.129 			"/>
			<polygon fill="#FFCE31" points="19.838,26.803 16.19,30.373 24.957,38.939 28.608,35.375 			"/>
		</g>
		<polygon fill="#FFCE31" points="7.771,34.039 4.121,37.607 2,35.533 5.65,31.965 		"/>
		<polygon fill="#FFCE31" points="12.642,29.281 8.988,32.85 6.867,30.775 10.52,27.207 		"/>
		<polygon fill="#FFCE31" points="17.511,24.527 13.857,28.092 11.736,26.018 15.387,22.447 		"/>
	</g>
	<g>
		<path fill="#FFCE31" d="M39.324,47.984L28.125,58.934c-3.786,3.699-9.943,3.699-13.729,0c-3.784-3.699-3.784-9.717,0.001-13.418
			l11.201-10.949c3.784-3.699,9.942-3.699,13.727,0C43.11,38.266,43.11,44.283,39.324,47.984z M17.548,48.594
			c-2.046,2.002-2.047,5.256-0.001,7.26c2.046,2.002,5.38,2.002,7.427-0.002l11.202-10.949c2.045-1.998,2.046-5.256-0.003-7.256
			c-2.047-2.002-5.376-2-7.423,0L17.548,48.594z"/>
	</g>
	<path fill="#FFCE31" d="M26.317,32.664c-7.736,7.561-15.318,14.971-17.916,17.51c-1.744,1.705-1.65,3.176-1.65,3.176l2.663,2.602
		c0,0,1.502,0.09,3.245-1.613c2.599-2.541,10.181-9.951,17.916-17.512c10.182-9.953,30.675-3.439,30.675-3.439L29.807,3.02
		C29.807,3.02,36.5,22.711,26.317,32.664z"/>
	<path fill="#F2B200" d="M9.165,54.057c0,0,1.782,0.309,3.527-1.396c2.601-2.539,10.42-9.746,18.155-17.309
		c10.184-9.953,30.335-3.496,30.335-3.496S44.958,19.072,30.444,33.26C18.457,44.975,9.165,54.057,9.165,54.057z"/>
	<path fill="#F2B200" d="M3.518,54.951l4.257,4.158c1.715-1.691,1.624-3.145,1.624-3.145l-2.66-2.605
		C6.738,53.359,5.248,53.273,3.518,54.951z"/>
	<g>
		<path fill="#F2B200" d="M30.15,2.338c-1.913,1.871,3.589,10.279,12.289,18.781c8.698,8.506,17.302,13.883,19.213,12.016
			c1.915-1.869-4.318-9.566-13.02-18.068C39.934,6.564,32.063,0.471,30.15,2.338z"/>
		<path fill="#333333" d="M43.025,20.549c7.83,7.65,15.464,12.598,17.053,11.045c1.592-1.555-4.197-8.305-12.03-15.957
			C40.222,7.984,33.313,2.326,31.726,3.879C30.133,5.434,35.195,12.895,43.025,20.549z"/>
	</g>
</g>
</svg>
