<?xml version="1.0" encoding="utf-8"?>
<!-- Generator: Adobe Illustrator 15.0.0, SVG Export Plug-In . SVG Version: 6.00 Build 0)  -->
<!DOCTYPE svg PUBLIC "-//W3C//DTD SVG 1.1//EN" "http://www.w3.org/Graphics/SVG/1.1/DTD/svg11.dtd">
<svg version="1.1" id="Layer_1" xmlns="http://www.w3.org/2000/svg" xmlns:xlink="http://www.w3.org/1999/xlink" x="0px" y="0px"
	 width="64px" height="64px" viewBox="0 0 64 64" enable-background="new 0 0 64 64" xml:space="preserve">
<g>
	<circle fill="#333333" cx="32" cy="32" r="30"/>
	
		<ellipse transform="matrix(0.7706 -0.6373 0.6373 0.7706 -7.1471 28.6785)" fill="#F5F5F5" cx="36.265" cy="24.268" rx="13.143" ry="13.866"/>
	<g>
		<path fill="#3E4347" d="M45.258,23.205c1.785,2.871,0.785,6.313-2.895,8.601c-3.68,2.287-7.209,1.663-8.994-1.207
			c-1.131-1.818-1.089-3.803,0.021-5.621c-1.657,0.036-3.104-0.689-4.071-2.244c-1.681-2.703-0.658-5.958,2.483-7.912
			c3.116-1.938,6.49-1.416,8.171,1.286c0.968,1.556,0.979,3.174,0.236,4.63C42.329,20.548,44.127,21.388,45.258,23.205z
			 M42.154,24.77c-0.922-1.483-2.868-1.864-4.641-0.762c-1.771,1.102-2.307,2.993-1.369,4.5c0.967,1.556,2.944,1.983,4.717,0.882
			C42.633,28.287,43.107,26.301,42.154,24.77z M32.047,21.269c0.894,1.436,2.677,1.854,4.292,0.849
			c1.593-0.991,2.014-2.813,1.136-4.225c-0.877-1.41-2.683-1.813-4.275-0.823C31.584,18.074,31.154,19.833,32.047,21.269z"/>
	</g>
</g>
</svg>
