<?xml version="1.0" encoding="utf-8"?>
<!-- Generator: Adobe Illustrator 15.0.0, SVG Export Plug-In . SVG Version: 6.00 Build 0)  -->
<!DOCTYPE svg PUBLIC "-//W3C//DTD SVG 1.1//EN" "http://www.w3.org/Graphics/SVG/1.1/DTD/svg11.dtd">
<svg version="1.1" id="Layer_1" xmlns="http://www.w3.org/2000/svg" xmlns:xlink="http://www.w3.org/1999/xlink" x="0px" y="0px"
	 width="64px" height="64px" viewBox="0 0 64 64" enable-background="new 0 0 64 64" xml:space="preserve">
<g>
	<g>
		<path fill="#C5D4D8" d="M40.682,47.774c-2.204,4.1-4.342,8.404-6.438,12.95C38.644,62.229,43,63.322,47.269,64
			c0.563-3.949,1.371-7.736,2.392-11.357c1.04-3.684,2.298-7.193,3.737-10.529c-1.977-1.749-4.024-3.64-6.133-5.64
			C44.989,40.071,42.804,43.828,40.682,47.774z"/>
		<path fill="#C5D4D8" d="M62.744,15.94c-2.86,3.188-5.569,6.481-8.152,9.913c-2.485,3.302-4.856,6.732-7.136,10.319
			c2.088,1.998,4.117,3.888,6.073,5.641c1.45-3.325,3.083-6.473,4.858-9.444c1.743-2.919,3.627-5.665,5.612-8.234
			C63.588,21.338,63.156,18.586,62.744,15.94z"/>
	</g>
	<g>
		<path fill="#EAE7E4" d="M0,18.24c16.202,33.567,34.244,42.484,34.244,42.484c2.096-4.546,4.233-8.851,6.438-12.95
			c2.122-3.946,4.308-7.703,6.583-11.301C38.831,28.475,29.445,18.718,19.81,9.199c-3.808,1.754-7.616,3.512-11.44,5.258
			C5.59,15.727,2.802,16.99,0,18.24z"/>
		<path fill="#EAE7E4" d="M40.009,0c-2.796,1.242-5.58,2.499-8.355,3.762c-3.818,1.739-7.623,3.489-11.432,5.246
			c9.551,9.474,18.878,19.174,27.234,27.165c2.279-3.589,4.65-7.018,7.136-10.319c2.583-3.432,5.292-6.725,8.152-9.913L40.009,0z"/>
	</g>
	<path fill="#333333" d="M40.594,47.937c0.059-0.107,0.116-0.217,0.175-0.325C29.774,38.159,19.483,25.673,8.572,14.438
		c-0.098,0.045-0.197,0.09-0.296,0.136C19.213,25.857,29.519,38.432,40.594,47.937z"/>
	<path fill="#333333" d="M49.708,52.479c-0.031,0.109-0.064,0.221-0.094,0.331c-2.958-1.368-5.967-3.004-9.021-4.873
		c0.059-0.107,0.116-0.217,0.175-0.325C43.8,49.474,46.781,51.108,49.708,52.479z"/>
	<path fill="#333333" d="M54.693,25.717c-0.068,0.09-0.135,0.182-0.204,0.271c-6.531-7.052-14.691-14.357-22.952-22.121
		c0.099-0.045,0.198-0.092,0.296-0.136C40.068,11.449,48.2,18.687,54.693,25.717z"/>
	<path fill="#333333" d="M58.309,32.503c0.052-0.089,0.106-0.178,0.158-0.267c-1.198-2.152-2.467-4.334-3.773-6.52
		c-0.068,0.09-0.135,0.182-0.204,0.271C55.811,28.176,57.092,30.356,58.309,32.503z"/>
	<path fill="#333333" d="M53.529,41.813c-0.044,0.1-0.088,0.201-0.132,0.3c-10.21-9.031-22.309-21.822-34.773-34.081
		c0.143-0.063,0.283-0.124,0.426-0.186C31.399,20.048,43.429,32.762,53.529,41.813z"/>
	<g>
		<path d="M47.154,22.963c1.342-1.469,2.698-2.922,4.07-4.359C44.136,14.233,35.55,8.501,25.617,2.609l1.224,3.353
			C33.781,12.04,41.225,17.532,47.154,22.963z"/>
		<path d="M38.679,31.807c1.342-1.471-14.133-17.944-24.066-23.836l1.589,2.891C23.144,16.939,32.054,26.791,38.679,31.807z"/>
		<path fill="#55646D" d="M51.814,17.988c-1.575,1.639-3.127,3.295-4.66,4.975c-1.636-1.854-3.307-7.295-3.307-7.295l5.471-4.635
			C49.318,11.033,50.443,16.215,51.814,17.988z"/>
		<path fill="#333333" d="M43.848,15.668l5.471-4.635L31.633,0.158c0,0-4.013,1.631-6.016,2.451
			C31.415,7.428,43.848,15.668,43.848,15.668z"/>
	</g>
	<g>
		<path fill="#55646D" d="M29.341,43.05c1.516-1.91,5.369-5.621,5.369-5.621c-2.452-2.195-6.365-8.065-6.365-8.065l-8.258,7.89
			C20.087,37.253,25.322,42.113,29.341,43.05z"/>
		<path fill="#333333" d="M28.345,29.363l-8.258,7.89c0,0-12.454-14.29-16.656-24.36l6.025-3.289L28.345,29.363z"/>
	</g>
	<g>
		<path fill="#55646D" d="M43.123,27.468c-1.489,1.696-4.444,4.339-4.444,4.339s-4.712-3.621-6.957-5.818
			c1.774-1.592,7.347-6.158,7.347-6.158S41.241,25.521,43.123,27.468z"/>
		<path fill="#333333" d="M31.722,25.988c1.774-1.592,7.347-6.158,7.347-6.158L20.614,4.666l-6.001,3.305
			C14.613,7.971,26.021,20.006,31.722,25.988z"/>
	</g>
</g>
</svg>
