<?xml version="1.0" encoding="utf-8"?>
<!-- Generator: Adobe Illustrator 15.0.0, SVG Export Plug-In . SVG Version: 6.00 Build 0)  -->
<!DOCTYPE svg PUBLIC "-//W3C//DTD SVG 1.1//EN" "http://www.w3.org/Graphics/SVG/1.1/DTD/svg11.dtd">
<svg version="1.1" id="Layer_1" xmlns="http://www.w3.org/2000/svg" xmlns:xlink="http://www.w3.org/1999/xlink" x="0px" y="0px"
	 width="64px" height="64px" viewBox="0 0 64 64" enable-background="new 0 0 64 64" xml:space="preserve">
<g>
	<g>
		<path fill="#287700" d="M50.407,33.36c-0.523-0.546-2.398,0.158-3.015-0.283c-0.961-0.686-0.81-3.953-1.935-4.307
			C37.175,26.16,22.105,42.698,18.4,50.552c-0.468,0.992-0.701,4.182,0.249,4.73l3.176-1.834l-0.538-0.932l9.747-5.627l0.538,0.932
			l7.264-4.194l-1.282-2.223l9.747-5.628l1.283,2.223l1.996-1.152C50.905,36.037,51.009,33.991,50.407,33.36z"/>
		
			<rect x="25.891" y="44.542" transform="matrix(-0.5001 -0.8659 0.8659 -0.5001 -3.7959 98.1467)" fill="#3E4347" width="1.076" height="11.255"/>
		
			<rect x="41.786" y="34.074" transform="matrix(-0.4997 -0.8662 0.8662 -0.4997 30.2009 96.8468)" fill="#3E4347" width="2.566" height="11.256"/>
	</g>
	<path fill="#79C600" d="M44.657,24.471c-2.004-2.608-4.81-5.019-6.878-5.336c-4.107-0.631-13.093,5.339-13.668,9.454
		c-0.581,4.157-4.482,9.878-6.797,14.185l7.778,7.151c3.934-3.244,8.259-8.213,11.001-10.139c1.552-1.091,5.102-2.328,6.825-3.641
		C42.534,32.367,42.673,27.831,44.657,24.471z"/>
	<path fill="#B6EF00" d="M16.497,44.387c-1.387,2.971-1.894,5.251-0.78,6.612c0.85,1.037,3.385,2.129,4.679,1.777
		c1.389-0.379,3.008-1.457,4.697-2.852l-7.778-7.151C17.011,43.337,16.734,43.878,16.497,44.387z"/>
	<path fill="#B6EF00" d="M47.13,29.277c-0.207-1.341-1.173-3.115-2.473-4.806c-1.984,3.36-2.123,7.896-1.738,11.675
		c0.158-0.121,0.303-0.242,0.427-0.363C44.691,34.467,47.415,31.136,47.13,29.277z"/>
	<g>
		<path fill="#B6EF00" d="M26.481,2.389c-2.124,11.247-9.524,10.665-9.524,10.665l0,0c-2.069,1.109-4.856,2.093-4.881,3.706
			c-0.025,1.618,9.091,12.535,11.184,13.699c1.378,0.768,12.101-1.285,13.708-2.856c1.57-1.536,2.654-6.276,2.382-8.456
			C39.138,17.461,28.757,4.604,26.481,2.389z"/>
		<path fill="#3E4347" d="M26.086,2.068c-0.473-0.149-1.142-0.041-1.849,0.216c-1.342,0.487-2.815,1.509-3.316,2.307
			C20.26,5.645,20.083,7.309,19.8,8.848c-0.192,1.047-0.434,2.037-0.908,2.738c-0.368,0.544-1.093,1.017-1.936,1.468l0,0
			c0,0,7.4,0.582,9.524-10.665C26.287,2.201,26.152,2.089,26.086,2.068z"/>
	</g>
	<g>
		<circle fill="#3E4347" cx="34.017" cy="24.616" r="2.602"/>
		<polygon fill="#3E4347" points="16.994,25.617 20.117,29.208 27.557,23.197 24.63,19.614 		"/>
		<polygon fill="#3E4347" points="12.462,20.293 15.584,23.885 23.026,17.874 20.099,14.291 		"/>
	</g>
	<g>
		<path fill="#287700" d="M23.806,13.539l0.849,1.074l-2.477,1.956l-0.848-1.074L23.806,13.539 M23.938,12.42l-3.727,2.943
			l1.835,2.323l3.727-2.942L23.938,12.42L23.938,12.42z"/>
		<path fill="#60AA00" d="M22.37,13.405l2.081,2.636l-3.25,2.566l-2.081-2.636L22.37,13.405 M22.5,12.287l-4.499,3.553l3.068,3.886
			l4.5-3.554L22.5,12.287L22.5,12.287z"/>
	</g>
	<g>
		<path fill="#287700" d="M28.282,18.836l0.848,1.074l-2.476,1.956l-0.849-1.074L28.282,18.836 M28.414,17.718l-3.727,2.942
			l1.835,2.323l3.727-2.942L28.414,17.718L28.414,17.718z"/>
		<path fill="#60AA00" d="M26.845,18.703l2.081,2.636l-3.25,2.566l-2.081-2.636L26.845,18.703 M26.977,17.584l-4.5,3.553
			l3.068,3.886l4.5-3.553L26.977,17.584L26.977,17.584z"/>
	</g>
	<g>
		<polygon fill="#287700" points="19.458,36.454 27.02,41.591 29.152,38.275 21.823,33.065 		"/>
		<g>
			<path fill="#B6EF00" d="M30.015,40.417l-0.798,1.111l-2.562-1.843l0.799-1.11L30.015,40.417 M31.127,40.236l-3.855-2.772
				l-1.729,2.403l3.854,2.772L31.127,40.236L31.127,40.236z"/>
			<path fill="#3E4347" d="M29.749,38.999l-1.961,2.727l-3.362-2.418l1.962-2.727L29.749,38.999 M30.86,38.817l-4.654-3.348
				l-2.892,4.02l4.654,3.349L30.86,38.817L30.86,38.817z"/>
		</g>
	</g>
	<g>
		<polygon fill="#287700" points="16.224,41.517 22.99,46.112 24.899,43.146 18.34,38.485 		"/>
		<g>
			<path fill="#B6EF00" d="M25.671,45.063l-0.715,0.994l-2.292-1.649l0.715-0.993L25.671,45.063 M26.667,44.9l-3.449-2.48
				l-1.547,2.15l3.449,2.48L26.667,44.9L26.667,44.9z"/>
			<path fill="#3E4347" d="M25.432,43.794l-1.755,2.439l-3.008-2.164l1.755-2.439L25.432,43.794 M26.427,43.632l-4.166-2.996
				l-2.586,3.597l4.165,2.995L26.427,43.632L26.427,43.632z"/>
		</g>
	</g>
</g>
<path fill="#42ADE2" d="M13.91,57.52c-4.457,2.574-8.221-0.151-10.347-2.143c0.142,0.935,0.455,1.857,0.957,2.726
	c1.766,3.058,5.831,5.271,10.377,2.646C18.07,58.918,63.94,32.67,63.94,32.67v-3.773L13.91,57.52z"/>
</svg>
