<?xml version="1.0" encoding="utf-8"?>
<!-- Generator: Adobe Illustrator 15.0.0, SVG Export Plug-In . SVG Version: 6.00 Build 0)  -->
<!DOCTYPE svg PUBLIC "-//W3C//DTD SVG 1.1//EN" "http://www.w3.org/Graphics/SVG/1.1/DTD/svg11.dtd">
<svg version="1.1" id="Layer_1" xmlns="http://www.w3.org/2000/svg" xmlns:xlink="http://www.w3.org/1999/xlink" x="0px" y="0px"
	 width="64px" height="64px" viewBox="0 0 64 64" enable-background="new 0 0 64 64" xml:space="preserve">
<g>
	<path fill="#BACAD3" d="M63.959,21.328c0-0.641,0-1.282,0-1.922c-18.477-7.811-36.954,4.707-55.431,3.59c0-2.056,0-5.063,0-7.426
		c18.47-0.878,35.371-16.071,55.431-10.136c-0.146-0.627,0.145-1.255,0-1.881C43.822-3.104,26.88,13.408,8.528,14.409
		C2.427,14.983,2.903,14.922,0,15.251c0,10.991,0,21.982,0,32.973l8.528,0.899c0-0.004,0-0.007,0-0.01
		c17.252,5.931,39.63-2.178,55.431,10.714c0.131-0.63-0.132-1.261,0-1.89C48.242,44.23,25.83,53.991,8.528,47.878
		c0-1.49,0-4.307,0-5.748c18.477,3.289,36.954-7.983,55.431,1.981c0-0.642,0-1.284,0-1.925C45.482,31.44,27.005,44.311,8.528,40.954
		c0-1.957,0-5.046,0-7.333c18.477,3.102,36.954-13.158,55.431-0.901c0-0.643,0-1.283,0-1.926
		c-18.477-12.088-36.954,4.344-55.431,1.412c0-2.355,0-4.874,0-7.556C27.005,26.172,45.482,12.402,63.959,21.328z"/>
	<path fill="#333333" d="M40.654,41.945c5.398-2.433,8.994-8.583,7.01-14.183c-1.381-5.196-8.51-7.435-13.156-4.706
		c-0.331-1.127-0.663-2.254-0.994-3.381c-0.047-0.158-0.092-0.316-0.146-0.471c-0.072-0.207,0.933-1.137,1.083-1.313
		c0.997-1.169,1.963-2.371,2.844-3.621c1.539-2.186,2.97-4.837,2.489-7.54c-0.436-2.454-2.436-4.64-5.199-4.728
		c-2.378-0.076-4.664,1.278-5.883,3.152c-1.418,2.179-1.105,4.513-0.357,6.852c0.463,1.446,0.902,2.895,1.33,4.351
		c0.159,0.54,0.318,1.079,0.477,1.619c0.029,0.1,0.148,0.498,0.172,0.491c-0.289,0.543-0.963,1.055-1.393,1.508
		c-1.658,1.744-3.566,3.374-4.737,5.467c-1.127,2.014-1.64,4.326-1.444,6.596c0.392,4.533,3.631,8.555,8.139,10.174
		c2.104,0.756,4.356,0.945,6.577,0.634c0.78,2.477,1.404,4.994,2.18,7.473c0.667,2.136,2.18,4.723,1.473,6.99
		c-0.636,2.04-2.92,3.279-5.118,3.023c2.554-0.758,3.836-3.611,2.346-5.771c-1.254-1.816-4.09-2.276-5.914-0.967
		c-3.83,2.754-0.23,7.645,3.536,8.285c2.439,0.416,4.927-0.562,6.395-2.425c1.63-2.067,1.441-4.321,0.804-6.687
		c-0.708-2.623-1.458-5.229-2.224-7.837c-0.161-0.551-0.322-1.101-0.484-1.65c-0.088-0.3-0.176-0.6-0.264-0.899
		C40.09,42.037,40.33,42.078,40.654,41.945C42.176,41.26,40.654,41.945,40.654,41.945z M45.047,28.666
		c1.279,4.356-1.252,9.208-5.664,10.97c-1.092-3.711-2.182-7.422-3.273-11.133c-0.264-0.894-0.525-1.786-0.788-2.681
		c-0.21-0.713-0.517-0.912,0.25-1.272C39.377,22.759,43.936,24.881,45.047,28.666C45.047,28.666,44.219,25.85,45.047,28.666z
		 M31.757,5.671c0.932-0.831,2.507-1.432,3.749-0.873c1.229,0.553,1.666,1.991,1.61,3.18c-0.144,3.09-2.675,5.843-4.658,8.111
		c-0.447-1.519-0.893-3.036-1.34-4.553C30.525,9.519,29.937,7.295,31.757,5.671C32.744,4.792,30.434,6.853,31.757,5.671z
		 M32.156,24.752c0.174,0.438-0.593,1.193-0.817,1.63c-0.302,0.59-0.528,1.213-0.666,1.854c-0.286,1.324-0.193,2.708,0.233,3.997
		c0.133,0.394,0.729,0.46,0.955,0.1c0.236-0.38-0.131-1.318-0.137-1.766c-0.017-1.272,0.35-2.541,1.063-3.624
		c1.313,4.461,2.625,8.92,3.936,13.381c-4.283,0.566-8.635-1.783-10.393-5.474c-1.088-2.285-1.165-5.006-0.132-7.324
		c1.062-2.382,3.159-4.178,4.985-6.039C31.5,22.568,31.743,23.7,32.156,24.752C32.179,24.811,32.126,24.676,32.156,24.752z"/>
</g>
</svg>
