<?xml version="1.0" encoding="utf-8"?>
<!-- Generator: Adobe Illustrator 15.0.0, SVG Export Plug-In . SVG Version: 6.00 Build 0)  -->
<!DOCTYPE svg PUBLIC "-//W3C//DTD SVG 1.1//EN" "http://www.w3.org/Graphics/SVG/1.1/DTD/svg11.dtd">
<svg version="1.1" id="Layer_1" xmlns="http://www.w3.org/2000/svg" xmlns:xlink="http://www.w3.org/1999/xlink" x="0px" y="0px"
	 width="64px" height="64px" viewBox="0 0 64 64" enable-background="new 0 0 64 64" xml:space="preserve">
<path fill="#333333" d="M52.61,0h-41.22C8.97,0,7,1.839,7,4.1V59.9c0,2.261,1.97,4.1,4.391,4.1h41.22c2.421,0,4.391-1.839,4.391-4.1
	V4.1C57.001,1.839,55.031,0,52.61,0z"/>
<path fill="#B70000" d="M51.322,2H12.679C10.409,2,9,3.677,9,5.797V34l46,24.313V6C55,3.88,53.592,2,51.322,2z"/>
<g>
	<circle fill="#FFFFFF" cx="24.955" cy="18.956" r="13.044"/>
</g>
<path fill="#333333" d="M55.438,58.156H8.563V34.047C32.639,34.047,55.438,44.189,55.438,58.156z"/>
</svg>
