<?xml version="1.0" encoding="utf-8"?>
<!-- Generator: Adobe Illustrator 15.0.0, SVG Export Plug-In . SVG Version: 6.00 Build 0)  -->
<!DOCTYPE svg PUBLIC "-//W3C//DTD SVG 1.1//EN" "http://www.w3.org/Graphics/SVG/1.1/DTD/svg11.dtd">
<svg version="1.1" id="Layer_1" xmlns="http://www.w3.org/2000/svg" xmlns:xlink="http://www.w3.org/1999/xlink" x="0px" y="0px"
	 width="64px" height="64px" viewBox="0 0 64 64" enable-background="new 0 0 64 64" xml:space="preserve">
<g>
	<path fill="#D0D0D0" d="M60.585,41.896c1.168-2.5,1.695-4.72,1.184-4.959c-0.317-0.146-0.955,0.494-1.671,1.591l-8.093-13.974
		L29.968,5.119L24.84,4.29c1.472-0.865,2.396-1.686,2.224-2.058c-0.24-0.513-2.458,0.017-4.958,1.183
		c-2.5,1.165-4.333,2.525-4.095,3.038c0.116,0.248,0.699,0.248,1.548,0.056c-1.486,2.51-8.91,15.461-8.91,15.461L8.753,47.465
		l1.1,1.135c-0.59-0.345-1.032-0.482-1.199-0.313c-0.4,0.4,0.856,2.305,2.806,4.255c1.951,1.951,3.855,3.207,4.257,2.808
		c0.203-0.205-0.028-0.806-0.561-1.601l15.815,2.603l23.106-8.491l3.604-4.132c-0.368,1.23-0.446,2.116-0.134,2.261
		C58.059,46.229,59.421,44.396,60.585,41.896z"/>
	<path fill="#E8E8E8" d="M44.105,59.789c-1.862,1.861-5.547,2.715-8.226,1.905L16.161,55.74c-2.682-0.809-3.346-2.977-1.482-4.839
		l13.702-13.702c1.862-1.863,5.546-2.717,8.227-1.906l19.719,5.953c2.682,0.81,3.344,2.977,1.481,4.839L44.105,59.789z"/>
	<path fill="#E8E8E8" d="M4.213,19.895c-1.863,1.862-2.717,5.545-1.906,8.226l5.954,19.72c0.81,2.681,2.976,3.343,4.838,1.48
		L26.8,35.62c1.864-1.863,2.718-5.548,1.907-8.228l-5.953-19.72c-0.81-2.681-2.977-3.344-4.839-1.481L4.213,19.895z"/>
	<path fill="#F5F5F5" d="M54.956,15.738c-0.92-2.776-3.919-5.774-6.693-6.694L27.836,2.27c-2.777-0.92-4.282,0.586-3.362,3.362
		l6.773,20.427c0.919,2.776,3.917,5.774,6.693,6.694l20.428,6.773c2.776,0.92,4.282-0.586,3.362-3.362L54.956,15.738z"/>
	<g>
		<g enable-background="new    ">
			<g>
				<path fill="#ED4C5C" d="M41.137,18.121c-0.71,0-1.229,0.273-1.386,0.814c-0.319,1.084,0.926,2.841,2.776,3.925
					c0.925,0.544,1.825,0.814,2.537,0.814c0.709,0,1.228-0.271,1.388-0.814c0.318-1.084-0.926-2.841-2.776-3.925
					C42.751,18.394,41.849,18.121,41.137,18.121z"/>
			</g>
		</g>
	</g>
	<g>
		<g>
			<g enable-background="new    ">
				<g>
					<path fill="#333333" d="M29.033,48.681c0.671,0.237,1.069,0.667,1.036,1.23c-0.063,1.13-1.825,2.369-3.935,2.77
						c-1.053,0.201-1.993,0.155-2.663-0.084c-0.669-0.237-1.067-0.668-1.034-1.231c0.064-1.127,1.826-2.367,3.933-2.771
						C27.427,48.396,28.366,48.442,29.033,48.681z"/>
				</g>
			</g>
		</g>
		<g>
			<g enable-background="new    ">
				<g>
					<path fill="#333333" d="M39.234,46.387c0.669,0.239,1.065,0.667,1.036,1.231c-0.065,1.129-1.822,2.367-3.933,2.77
						c-1.053,0.199-1.994,0.152-2.663-0.085c-0.668-0.238-1.066-0.668-1.035-1.231c0.064-1.13,1.825-2.368,3.932-2.77
						C37.624,46.101,38.565,46.149,39.234,46.387z"/>
				</g>
			</g>
		</g>
		<g>
			<g enable-background="new    ">
				<g>
					<path fill="#333333" d="M49.014,44.39c0.67,0.238,1.067,0.666,1.036,1.232c-0.063,1.128-1.822,2.366-3.932,2.768
						c-1.054,0.201-1.996,0.154-2.664-0.084c-0.67-0.238-1.066-0.667-1.035-1.231c0.063-1.129,1.825-2.367,3.931-2.769
						C47.404,44.104,48.347,44.152,49.014,44.39z"/>
				</g>
			</g>
		</g>
	</g>
	<g>
		<g>
			<path fill="#333333" d="M21.025,26.09c0.559-0.438,1.136-0.543,1.596-0.216c0.917,0.658,1.021,2.809,0.234,4.804
				c-0.396,0.997-0.938,1.768-1.498,2.206c-0.56,0.439-1.135,0.543-1.596,0.214c-0.916-0.659-1.021-2.806-0.234-4.802
				C19.923,27.299,20.466,26.529,21.025,26.09z"/>
		</g>
		<g>
			<g>
				<path fill="#333333" d="M9.657,22.629c0.56-0.439,1.135-0.545,1.594-0.218c0.919,0.659,1.023,2.81,0.234,4.804
					c-0.395,0.998-0.938,1.768-1.496,2.206c-0.561,0.438-1.137,0.545-1.594,0.215c-0.921-0.657-1.024-2.807-0.235-4.802
					C8.554,23.836,9.098,23.068,9.657,22.629z"/>
			</g>
		</g>
	</g>
</g>
</svg>
