<?xml version="1.0" encoding="utf-8"?>
<!-- Generator: Adobe Illustrator 15.0.0, SVG Export Plug-In . SVG Version: 6.00 Build 0)  -->
<!DOCTYPE svg PUBLIC "-//W3C//DTD SVG 1.1//EN" "http://www.w3.org/Graphics/SVG/1.1/DTD/svg11.dtd">
<svg version="1.1" id="Layer_1" xmlns="http://www.w3.org/2000/svg" xmlns:xlink="http://www.w3.org/1999/xlink" x="0px" y="0px"
	 width="64px" height="64px" viewBox="0 0 64 64" enable-background="new 0 0 64 64" xml:space="preserve">
<g>
	<path fill="#428BC1" d="M47.434,13.195C43.496,24.677,19.836-5.506,18.06,3.726c-1.354,7.031,8.884,25.485,15.264,38.76
		c-6.896-5.155-17.087-5.37-21.015,1.069c-3.983,6.529,1.627,14.723,10.1,17.503c6.613,2.172,12.881,0.146,15.576-3.899
		c1.707-2.564,2.225-6.002,1.254-9.268c-2.764-9.299-13.232-27.735-14.119-32.12c0,0,16.486,17.13,26.221,14.053
		C56.678,28.136,47.434,13.195,47.434,13.195z"/>
</g>
</svg>
