<?xml version="1.0" encoding="utf-8"?>
<!-- Generator: Adobe Illustrator 15.0.0, SVG Export Plug-In . SVG Version: 6.00 Build 0)  -->
<!DOCTYPE svg PUBLIC "-//W3C//DTD SVG 1.1//EN" "http://www.w3.org/Graphics/SVG/1.1/DTD/svg11.dtd">
<svg version="1.1" id="Layer_1" xmlns="http://www.w3.org/2000/svg" xmlns:xlink="http://www.w3.org/1999/xlink" x="0px" y="0px"
	 width="64px" height="64px" viewBox="0 0 64 64" enable-background="new 0 0 64 64" xml:space="preserve">
<g>
	<path fill="#333333" d="M52.397,9.994c0,0-0.137-1.896,1.758-2.724C54.155,7.27,54.392,9.396,52.397,9.994z"/>
	<path fill="#FFCE31" d="M53.872,7.432c-1.523-1.016-3.471-2.319-4.369-2.953c-1.635-1.154-6.342-4.692-8.217-0.44
		c-1.018,2.306-2.654,7.055-3.477,9.425c-5.027,14.5-11.932,33.519-14.078,29.054c-3.441-7.155,10.475-15.343,5.002-21.949
		L3.142,29.55c0,0,6.288,2.813,3.486,7.77c-16.333,28.895,24.188,39.295,32.527-7.231c2.654-14.798,4.605-23.942,6.512-23.942
		c1.859,0,5.561,2.66,6.867,3.555C53.817,8.821,53.897,7.818,53.872,7.432z"/>
	<g>
		<path fill="#333333" d="M39.796,8.715c-0.93-0.313-2.037,0.339-2.477,1.457c-0.441,1.118-0.045,2.274,0.881,2.586
			c0.93,0.313,2.037-0.34,2.477-1.457C41.116,10.183,40.722,9.026,39.796,8.715z"/>
		<path fill="#F2B200" d="M38.876,7.834c-0.926-0.312-2.035,0.341-2.475,1.459c-0.439,1.116-0.045,2.275,0.883,2.585
			c0.926,0.313,2.033-0.34,2.475-1.456C40.198,9.304,39.802,8.148,38.876,7.834z"/>
	</g>
	<g>
		<path fill="#333333" d="M38.396,13.794c-0.93-0.313-2.037,0.339-2.477,1.457s-0.045,2.275,0.881,2.586
			c0.93,0.313,2.037-0.34,2.477-1.457C39.716,15.262,39.321,14.105,38.396,13.794z"/>
		<path fill="#F2B200" d="M37.476,12.914c-0.926-0.311-2.035,0.342-2.475,1.459c-0.439,1.116-0.045,2.275,0.883,2.585
			c0.926,0.313,2.033-0.34,2.475-1.455C38.798,14.384,38.401,13.227,37.476,12.914z"/>
	</g>
	<g>
		<path fill="#333333" d="M33.759,27.671c-0.928-0.313-2.035,0.339-2.475,1.457c-0.441,1.118-0.045,2.275,0.881,2.586
			c0.928,0.313,2.037-0.34,2.477-1.457C35.081,29.139,34.685,27.982,33.759,27.671z"/>
		<path fill="#F2B200" d="M32.841,26.791c-0.926-0.311-2.035,0.341-2.475,1.459c-0.439,1.116-0.047,2.275,0.883,2.585
			c0.926,0.313,2.033-0.34,2.473-1.456C34.161,28.261,33.767,27.104,32.841,26.791z"/>
	</g>
	<g>
		<path fill="#333333" d="M31.442,32.958c-0.93-0.313-2.037,0.338-2.477,1.457s-0.045,2.275,0.881,2.586
			c0.93,0.313,2.037-0.34,2.477-1.457C32.765,34.426,32.368,33.269,31.442,32.958z"/>
		<path fill="#F2B200" d="M30.522,32.078c-0.926-0.311-2.035,0.341-2.475,1.458c-0.439,1.116-0.045,2.275,0.883,2.585
			c0.926,0.313,2.033-0.34,2.475-1.456C31.845,33.548,31.448,32.391,30.522,32.078z"/>
	</g>
	<g>
		<path fill="#333333" d="M29.124,38.037c-0.928-0.313-2.035,0.339-2.477,1.457c-0.439,1.118-0.043,2.275,0.883,2.586
			c0.928,0.313,2.035-0.34,2.475-1.457C30.446,39.505,30.05,38.349,29.124,38.037z"/>
		<path fill="#F2B200" d="M28.204,37.156c-0.924-0.311-2.035,0.342-2.475,1.459c-0.438,1.116-0.045,2.275,0.883,2.585
			c0.928,0.313,2.035-0.339,2.475-1.455C29.526,38.627,29.132,37.47,28.204,37.156z"/>
	</g>
	<path fill="#F2B200" d="M54.155,7.27c0,1.243-0.73,2.305-1.758,2.724c0.309,0.528,1.871,3,4.309,3.693c0,0,1.586-1.653,3.895-0.875
		c0.395,0.134,1.848,0.803,1.262,0.121C57.97,8.413,54.155,7.27,54.155,7.27z"/>
	<path fill="#F2B200" d="M28.733,20.569c0.896,2.048-4.342,5.517-11.697,7.747c-7.354,2.23-14.042,2.378-14.937,0.33
		c-0.895-2.049,4.343-5.517,11.697-7.747S27.839,18.521,28.733,20.569z"/>
	<path fill="#333333" d="M27.405,20.812c0.727,1.663-4.121,4.66-10.83,6.695C9.868,29.541,3.84,29.842,3.114,28.178
		c-0.726-1.662,4.122-4.66,10.829-6.694C20.651,19.451,26.679,19.15,27.405,20.812z"/>
	<path fill="none" stroke="#CE9915" stroke-width="2" stroke-linecap="round" stroke-miterlimit="10" d="M43.544,11.338
		c-1.271,6.575-4.203,37.698-16.084,45.173"/>
	<path fill="none" stroke="#E2AF23" stroke-width="2" stroke-linecap="round" stroke-miterlimit="10" d="M42.499,9.414
		c-1.271,6.575-5.189,39.623-17.07,47.098"/>
</g>
</svg>
