<?xml version="1.0" encoding="utf-8"?>
<!-- Generator: Adobe Illustrator 15.0.0, SVG Export Plug-In . SVG Version: 6.00 Build 0)  -->
<!DOCTYPE svg PUBLIC "-//W3C//DTD SVG 1.1//EN" "http://www.w3.org/Graphics/SVG/1.1/DTD/svg11.dtd">
<svg version="1.1" id="Layer_1" xmlns="http://www.w3.org/2000/svg" xmlns:xlink="http://www.w3.org/1999/xlink" x="0px" y="0px"
	 width="64px" height="64px" viewBox="0 0 64 64" enable-background="new 0 0 64 64" xml:space="preserve">
<g>
	<g>
		<path fill="#FF8736" d="M28.429,53.996c0.214-2.683,0.803-2.731,1.666-2.841c3.111-0.394,2.438-1.437,1.771-1.771
			c-3.648-1.833-2.938-3.476-2.33-4.301c2.19-2.962,6.032,0.6,6.032,0.6c-0.39-4.416,3.994-4.835,5.83-5.832
			c8.359-4.538,1.308-12.439-1.556-15.644l0,0c-3.203-2.861-11.106-9.913-15.646-1.556c-0.997,1.836-1.416,6.221-5.831,5.83
			c0,0,3.562,3.842,0.599,6.031c-0.824,0.61-2.468,1.319-4.301-2.329c-0.334-0.667-1.375-1.34-1.771,1.771
			c-0.11,0.863-0.138,1.528-2.841,1.665c-2.888,0.146-15.653,5.752-1.515,19.891C22.677,69.648,28.215,56.679,28.429,53.996z"/>
		<polygon fill="#333333" points="29.884,38.934 25.056,34.105 50.948,10.631 53.361,13.045 		"/>
		<path fill="#333333" d="M9.337,49.897c0,0-4.366,4.864-2.237,6.992c2.128,2.127,6.99-2.238,6.99-2.238L9.337,49.897z"/>
		<g>
			
				<rect x="19.312" y="33.255" transform="matrix(-0.7062 -0.708 0.708 -0.7062 1.9974 89.6218)" fill="#333333" width="0.561" height="22.282"/>
			
				<rect x="17.726" y="31.669" transform="matrix(-0.7071 -0.7071 0.7071 -0.7071 0.468 85.8149)" fill="#333333" width="0.561" height="22.282"/>
			
				<rect x="10.038" y="45.701" transform="matrix(0.7072 -0.7071 0.7071 0.7072 -26.3105 28.4411)" fill="#333333" width="22.282" height="0.563"/>
		</g>
		<g>
			<path fill="#333333" d="M16.556,40.326c-1.8-1.8-4.266,1.209-5.622,2.195c-0.226,0.166-0.899,0.661-1.184,0.378
				c-0.363-0.362-0.172-0.94-0.428-1.328c-0.457-0.689-0.91,0.208-0.967,0.612c-0.085,0.604-0.008,1.271,0.357,1.773
				c1.487,2.054,4.249-0.686,5.464-1.715c0.308-0.262,0.952-0.882,1.417-0.729c0.496,0.162,0.298,1.046,0.528,1.39
				c0.478,0.722,0.922-0.268,0.971-0.668C17.174,41.568,17.048,40.818,16.556,40.326C16.223,39.993,17.185,40.955,16.556,40.326z"/>
			<path fill="#333333" d="M22.63,55.026c-0.083-1.049-2.365-0.071-1.317-1.743c0.531-0.849,1.33-1.519,1.921-2.328
				c0.689-0.944,1.437-2.518,0.432-3.522c-0.452-0.452-1.114-0.594-1.734-0.552c-0.4,0.026-1.375,0.191-0.992,0.833
				c0.466,0.776,2.224,0.004,1.279,1.483c-0.504,0.788-1.223,1.446-1.796,2.184c-0.692,0.892-1.558,2.401-0.8,3.502
				C20.025,55.47,22.74,56.271,22.63,55.026C22.612,54.802,22.65,55.249,22.63,55.026z"/>
		</g>
		<g>
			<polygon fill="#FF8736" points="60.716,6.661 57.333,3.278 53.938,3.29 46.837,10.391 46.823,13.784 50.566,17.528 
				53.602,17.154 60.704,10.054 			"/>
			<g>
				<g>
					<circle fill="#594640" cx="57.153" cy="13.604" r="1.274"/>
				</g>
				<g>
					<circle fill="#594640" cx="60.726" cy="10.032" r="1.274"/>
				</g>
				<g>
					<circle fill="#594640" cx="53.593" cy="17.165" r="1.273"/>
				</g>
			</g>
			<g>
				<g>
					<circle fill="#594640" cx="50.382" cy="6.845" r="1.274"/>
				</g>
				<g>
					<circle fill="#594640" cx="53.953" cy="3.274" r="1.273"/>
				</g>
				<g>
					<circle fill="#594640" cx="46.822" cy="10.406" r="1.273"/>
				</g>
			</g>
		</g>
	</g>
	<g>
		<path fill="#333333" d="M58.364,50.906c-0.127-0.111-12.779-10.938-16.671-14.823c-5.813-5.81-22.43-24.257-22.593-24.444
			l-0.138-0.147l-6.189,2.994l41.34,41.34l4.611-4.611L58.364,50.906z M56.085,52.531l-2.054,2.054l-39.53-39.527l2.793-1.352
			c1.604,1.779,16.934,18.768,22.472,24.305C43.286,41.531,53.954,50.707,56.085,52.531z"/>
	</g>
</g>
</svg>
