<?xml version="1.0" encoding="utf-8"?>
<!-- Generator: Adobe Illustrator 15.0.0, SVG Export Plug-In . SVG Version: 6.00 Build 0)  -->
<!DOCTYPE svg PUBLIC "-//W3C//DTD SVG 1.1//EN" "http://www.w3.org/Graphics/SVG/1.1/DTD/svg11.dtd">
<svg version="1.1" id="Layer_1" xmlns="http://www.w3.org/2000/svg" xmlns:xlink="http://www.w3.org/1999/xlink" x="0px" y="0px"
	 width="64px" height="64px" viewBox="0 0 64 64" enable-background="new 0 0 64 64" xml:space="preserve">
<g>
	<path fill="#6ADBC6" d="M49.438,4.709C49.157,3.098,49.014,1.521,48.99,0h-3.938c0.075,0.513,0.113,1.034,0.113,1.564
		c0,6.544-5.895,11.848-13.169,11.848c-7.269,0-13.165-5.304-13.165-11.848c0-0.53,0.037-1.052,0.112-1.564h-3.938
		c-0.021,1.521-0.171,3.098-0.448,4.709c-1.684,9.699-4.117,17.578-10.661,19.494c0,0,2.823,4.54,2.823,12.324
		C6.722,49.965,3.899,64,3.899,64h56.202c0,0-3.531-14.035-3.531-27.884c0-7.374,3.531-11.913,3.531-11.913
		C53.558,22.288,51.12,14.408,49.438,4.709z"/>
	<g>
		<path fill="#428BC1" d="M31.997,13.413c7.274,0,13.169-5.304,13.169-11.848c0-0.53-0.038-1.052-0.113-1.564
			c-3.627,1.646-6.973,3.704-13.056,3.704c-6.161,0-9.425-2.021-13.052-3.704c-0.075,0.513-0.112,1.034-0.112,1.564
			C18.833,8.108,24.728,13.413,31.997,13.413z"/>
	</g>
	<path fill="#FFCE31" d="M5.378,54.788C4.542,60.779,3.899,64,3.899,64h8.314l42.944-43.104c-2.152-2.561-3.55-6.275-4.596-10.637
		L5.378,54.788z"/>
</g>
</svg>
