<?xml version="1.0" encoding="utf-8"?>
<!-- Generator: Adobe Illustrator 15.0.0, SVG Export Plug-In . SVG Version: 6.00 Build 0)  -->
<!DOCTYPE svg PUBLIC "-//W3C//DTD SVG 1.1//EN" "http://www.w3.org/Graphics/SVG/1.1/DTD/svg11.dtd">
<svg version="1.1" id="Layer_1" xmlns="http://www.w3.org/2000/svg" xmlns:xlink="http://www.w3.org/1999/xlink" x="0px" y="0px"
	 width="64px" height="64px" viewBox="0 0 64 64" enable-background="new 0 0 64 64" xml:space="preserve">
<g>
	<g>
		<circle fill="#C7E755" cx="13" cy="13" r="11"/>
		<g>
			<path fill="#FFFFFF" d="M10.615,15.385c-2.353-2.353-5.485-3.46-8.574-3.32c-0.035,0.41-0.049,0.822-0.036,1.232
				c2.784-0.151,5.619,0.834,7.741,2.957c2.123,2.123,3.108,4.958,2.957,7.742c0.411,0.011,0.822-0.001,1.232-0.036
				C14.075,20.873,12.967,17.738,10.615,15.385z"/>
			<path fill="#FFFFFF" d="M23.996,12.704c-2.784,0.15-5.619-0.835-7.74-2.958c-2.125-2.122-3.109-4.957-2.958-7.742
				c-0.41-0.011-0.822,0.001-1.232,0.036c-0.139,3.088,0.967,6.223,3.319,8.576c2.354,2.353,5.488,3.459,8.576,3.319
				C23.995,13.525,24.008,13.113,23.996,12.704z"/>
		</g>
	</g>
	<g>
		<g>
			<path fill="#D0D0D0" d="M52.797,34.842l1.045-1.043l-2.276-2.274l3.988-3.99l1.538,1.537l1.041-1.044l-1.535-1.535l3.754-3.753
				l-1.044-1.044l-3.754,3.754l-3.167-3.169l3.982-3.981l3.122,3.125l1.046-1.045l-3.126-3.125l2.489-2.487l-1.046-1.043
				l-2.485,2.489l-3.173-3.174l3.519-3.521l-1.042-1.043l-3.521,3.521l-3.177-3.176l2.487-2.487l-1.044-1.044l-2.485,2.487
				l-3.125-3.125l-1.044,1.043l3.123,3.125l-3.979,3.982l-3.168-3.167l3.753-3.754l-1.046-1.043l-3.751,3.753L37.16,7.053
				l-1.042,1.043l1.533,1.535l-3.99,3.99l-2.273-2.274l0,0l-1.046,1.043l2.276,2.276l-3.99,3.988l-1.535-1.536l-1.042,1.044
				l1.533,1.536l-3.752,3.754l1.04,1.043l3.756-3.754l3.169,3.168l-3.982,3.98l-3.125-3.125l-1.043,1.045l3.122,3.125l-2.488,2.486
				l1.045,1.046l2.489-2.488l3.178,3.176l-3.524,3.518v0.002l1.045,1.045l3.52-3.521l3.175,3.174l-2.491,2.486l1.046,1.045
				l2.486-2.486l3.125,3.125l1.045-1.043l-3.126-3.127l3.981-3.982l3.169,3.168l-3.752,3.752l1.046,1.043l3.747-3.75l1.537,1.535
				l1.048-1.043l-1.537-1.537l3.988-3.989L52.797,34.842z M54.51,26.49l-3.988,3.99l-3.168-3.168l3.988-3.988L54.51,26.49z
				 M41.275,31.302l-3.17-3.175l3.986-3.988l3.174,3.173L41.275,31.302z M37.873,19.92l3.176,3.176l-3.989,3.988l-3.177-3.175
				L37.873,19.92z M42.907,14.888l3.174,3.175l-3.989,3.988l-3.174-3.175L42.907,14.888z M43.135,23.096l3.989-3.99l3.173,3.172
				l-3.984,3.991L43.135,23.096z M55.325,17.252l-3.979,3.984l-3.178-3.172l3.983-3.983L55.325,17.252z M47.933,9.861l3.174,3.176
				l-3.982,3.982l-3.173-3.176L47.933,9.861z M38.695,10.676l3.164,3.167l-3.986,3.989l-3.166-3.167L38.695,10.676z M29.673,19.698
				l3.988-3.99l3.17,3.169l-3.992,3.988L29.673,19.698z M28.857,28.935l3.982-3.983l3.176,3.175l-3.983,3.982L28.857,28.935z
				 M36.25,36.328l-3.171-3.174l3.98-3.982l3.174,3.173L36.25,36.328z M45.485,35.512l-3.168-3.167l3.995-3.989l3.163,3.169
				L45.485,35.512z"/>
			<path fill="#FF717F" d="M57.667,7.519c-6.849-6.847-19.374-5.426-27.973,3.176c-8.603,8.602-10.026,21.125-3.181,27.973
				c6.851,6.85,19.377,5.428,27.977-3.174C63.094,26.892,64.514,14.368,57.667,7.519z M28.958,36.227
				c-5.774-5.773-4.575-16.334,2.677-23.587c7.255-7.252,17.813-8.451,23.588-2.678c5.775,5.775,4.576,16.335-2.676,23.589
				C45.292,40.805,34.733,42.002,28.958,36.227z"/>
		</g>
		<path fill="#FF717F" d="M38.09,42.926c0.668-0.037-5.826-2.348-5.826-2.348s-8.188,3.695-9.769,2.113
			c-1.582-1.582,2.112-9.769,2.112-9.769s-2.312-6.494-2.35-5.825c-0.361,6.502-1.442,12.879-4.513,16.508
			c-0.397,0.471-1.043,0.99-1.043,0.99l1.942,1.943l1.945,1.945c0,0,0.521-0.645,0.989-1.045
			C25.21,44.369,31.586,43.289,38.09,42.926z"/>
		<g>
			
				<rect x="3.082" y="48.856" transform="matrix(0.7071 -0.7071 0.7071 0.7071 -33.2404 24.3343)" fill="#4D4F59" width="19.347" height="6.876"/>
			<g>
				<polygon fill="#4D4F59" points="9.989,50.197 13.365,56.545 15.522,54.391 12.147,48.043 				"/>
				<polygon fill="#4D4F59" points="5.679,54.51 9.053,60.857 11.208,58.701 7.831,52.354 				"/>
				<polygon fill="#5F606C" points="3.484,56.703 8.346,61.564 9.053,60.857 5.679,54.51 				"/>
				<polygon fill="#5F606C" points="7.831,52.354 11.208,58.701 13.365,56.545 9.989,50.197 				"/>
				<polygon fill="#5F606C" points="17.166,43.023 16.457,43.73 19.832,50.078 22.027,47.885 				"/>
				<polygon fill="#4D4F59" points="14.3,45.887 17.675,52.232 19.832,50.078 16.457,43.73 				"/>
				<polygon fill="#5F606C" points="12.147,48.043 15.522,54.391 17.675,52.232 14.3,45.887 				"/>
			</g>
		</g>
		
			<rect x="2.645" y="57.244" transform="matrix(0.707 0.7072 -0.7072 0.707 43.2302 12.3613)" fill="#4D4F59" width="8.105" height="2.216"/>
		
			<rect x="14.758" y="45.129" transform="matrix(0.7069 0.7073 -0.7073 0.7069 38.2206 0.2484)" fill="#4D4F59" width="8.104" height="2.219"/>
	</g>
</g>
</svg>
