<?xml version="1.0" encoding="utf-8"?>
<!-- Generator: Adobe Illustrator 15.0.0, SVG Export Plug-In . SVG Version: 6.00 Build 0)  -->
<!DOCTYPE svg PUBLIC "-//W3C//DTD SVG 1.1//EN" "http://www.w3.org/Graphics/SVG/1.1/DTD/svg11.dtd">
<svg version="1.1" id="Layer_1" xmlns="http://www.w3.org/2000/svg" xmlns:xlink="http://www.w3.org/1999/xlink" x="0px" y="0px"
	 width="64px" height="64px" viewBox="0 0 64 64" enable-background="new 0 0 64 64" xml:space="preserve">
<g>
	<path fill="#333333" d="M64,53.839c0,2.564-1.727,4.642-3.856,4.642H3.856C1.727,58.48,0,56.403,0,53.839V13.548
		c0-2.564,1.727-4.642,3.856-4.642h56.287c2.13,0,3.856,2.077,3.856,4.642V53.839z"/>
	<g>
		<g>
			<g>
				<path fill="#B2B2B2" d="M3.938,54.953c5.672,0,11.345,0,17.018,0c-1.767-13.817-1.767-28.702,0-42.52
					c-5.672,0-11.345,0-17.018,0C-0.552,26.251-0.552,41.136,3.938,54.953z"/>
				<path fill="#D0D0D0" d="M2.862,51.303c5.89,0,11.78,0,17.67,0c-1.203-11.54-1.203-23.679,0-35.219c-5.89,0-11.78,0-17.67,0
					C-0.194,27.624-0.194,39.763,2.862,51.303z"/>
				<path fill="#FFFFFF" d="M1.983,47.566c6.067,0,12.135,0,18.203,0c-0.742-9.152-0.742-18.594,0-27.745
					c-6.068,0-12.135,0-18.203,0C0.099,28.973,0.099,38.414,1.983,47.566z"/>
				<path fill="#4187B7" d="M19.556,17.048c-5.354,0-10.708,0-16.063,0c0.375-1.549,0.803-3.088,1.284-4.615
					c5.113,0,10.227,0,15.34,0C19.906,13.959,19.719,15.499,19.556,17.048z"/>
				<path fill="#FBBF67" d="M19.746,54.953c-0.367-2.846-4.043-5.199-8.321-5.198c-4.272-0.001-7.205,2.353-6.278,5.198
					C10.013,54.953,14.879,54.953,19.746,54.953z"/>
			</g>
			<g>
				<path fill="#B2B2B2" d="M23.491,54.953c5.672,0,11.345,0,17.018,0c1.361-13.817,1.361-28.702,0-42.52
					c-5.673,0-11.345,0-17.018,0C22.13,26.251,22.13,41.136,23.491,54.953z"/>
				<path fill="#D0D0D0" d="M23.165,51.303c5.89,0,11.78,0,17.67,0c0.927-11.54,0.927-23.679,0-35.219c-5.89,0-11.78,0-17.67,0
					C22.239,27.624,22.239,39.763,23.165,51.303z"/>
				<path fill="#FFFFFF" d="M22.898,47.563c6.068,0,12.136,0,18.203,0c0.571-9.15,0.571-18.591,0-27.741c-6.067,0-12.135,0-18.203,0
					C22.328,28.973,22.328,38.413,22.898,47.563z"/>
				<path fill="#4187B7" d="M40.031,17.048c-5.354,0-10.708,0-16.063,0c0.106-1.549,0.226-3.088,0.362-4.615
					c5.113,0,10.227,0,15.34,0C39.806,13.959,39.926,15.499,40.031,17.048z"/>
				<path fill="#FBBF67" d="M39.301,54.953c0.279-2.846-3.025-5.199-7.301-5.198c-4.274-0.001-7.579,2.353-7.3,5.198
					C29.567,54.953,34.434,54.953,39.301,54.953z"/>
			</g>
			<g>
				<path fill="#B2B2B2" d="M43.045,54.953c5.673,0,11.345,0,17.018,0c4.489-13.817,4.489-28.702,0-42.52
					c-5.673,0-11.345,0-17.018,0C44.812,26.251,44.812,41.136,43.045,54.953z"/>
				<path fill="#D0D0D0" d="M43.468,51.303c5.891,0,11.78,0,17.67,0c3.056-11.54,3.056-23.679,0-35.219c-5.89,0-11.779,0-17.67,0
					C44.671,27.624,44.671,39.763,43.468,51.303z"/>
				<path fill="#FFFFFF" d="M43.814,47.563c6.067,0,12.135,0,18.203,0c1.883-9.15,1.883-18.591-0.001-27.741
					c-6.067,0-12.135,0-18.202,0C44.556,28.973,44.556,38.413,43.814,47.563z"/>
				<path fill="#4187B7" d="M60.508,17.048c-5.354,0-10.709,0-16.063,0c-0.164-1.549-0.351-3.088-0.561-4.615
					c5.113,0,10.227,0,15.34,0C59.705,13.959,60.133,15.499,60.508,17.048z"/>
				<path fill="#FBBF67" d="M58.854,54.953c0.926-2.846-2.007-5.199-6.279-5.198c-4.276-0.001-7.953,2.353-8.32,5.198
					C49.12,54.953,53.987,54.953,58.854,54.953z"/>
			</g>
		</g>
	</g>
	<g>
		<path fill="#3390FF" d="M49.512,40.752c-0.146,0-0.284-0.063-0.379-0.174s-0.138-0.257-0.115-0.4
			c0.027-0.186,0.681-4.257,4.24-7.256c-0.373-0.056-0.818-0.102-1.282-0.102c-1.737,0-2.797,0.604-3.148,1.794
			c-0.063,0.213-0.258,0.358-0.479,0.358h-1.443c-0.276,0-0.5-0.224-0.5-0.5v-5.726c0-0.276,0.224-0.5,0.5-0.5h1.443
			c0.26,0,0.473,0.198,0.498,0.451c0.888-0.407,2.463-0.988,4.211-0.988c0.767,0,1.497,0.114,2.171,0.339
			c1.269,0.423,1.834,0.82,2.173,1.058c0.075,0.053,0.169,0.119,0.2,0.131c0.039-0.025,0.381-0.251,0.526-0.348
			c0.082-0.054,0.178-0.083,0.276-0.083h2.501c0.206,0,0.391,0.126,0.466,0.318c0.074,0.192,0.024,0.41-0.127,0.55
			c-0.042,0.039-4.155,3.916-4.155,10.579c0,0.276-0.224,0.5-0.5,0.5H49.512z"/>
		<g>
			<path fill="#161616" d="M53.057,28.209c0.658,0,1.341,0.089,2.013,0.313c1.927,0.643,2.119,1.208,2.491,1.208
				c0.175,0,0.39-0.125,0.843-0.425h2.501c0,0-4.316,3.965-4.316,10.947h-7.076c0,0,0.704-4.666,4.917-7.598
				c0,0-1.145-0.333-2.453-0.333c-1.455,0-3.113,0.413-3.628,2.152h-1.443v-5.726h1.443v0.766
				C48.348,29.512,50.532,28.209,53.057,28.209 M60.904,29.305h0.005 M53.057,27.209L53.057,27.209
				c-1.576,0-3.018,0.449-3.986,0.847c-0.182-0.19-0.438-0.309-0.723-0.309h-1.443c-0.553,0-1,0.448-1,1v5.726c0,0.553,0.447,1,1,1
				h1.443c0.443,0,0.833-0.292,0.959-0.717c0.104-0.354,0.425-1.436,2.669-1.436c0.038,0,0.077,0.001,0.115,0.001
				c-2.965,3.005-3.541,6.604-3.568,6.781c-0.043,0.288,0.041,0.581,0.231,0.802c0.189,0.221,0.467,0.348,0.758,0.348h7.076
				c0.553,0,1-0.447,1-1c0-6.24,3.68-9.91,3.975-10.193c0.211-0.184,0.345-0.453,0.345-0.754c0-0.552-0.445-1-0.998-1h-0.005h-2.501
				c-0.196,0-0.389,0.058-0.553,0.167c-0.049,0.033-0.152,0.101-0.251,0.163c-0.355-0.247-0.984-0.651-2.214-1.062
				C54.66,27.332,53.877,27.209,53.057,27.209L53.057,27.209z"/>
		</g>
	</g>
	<g>
		<path fill="#FFFFFF" d="M27.605,40.752c-0.146,0-0.284-0.063-0.379-0.174c-0.095-0.11-0.137-0.257-0.116-0.4
			c0.028-0.186,0.681-4.257,4.241-7.256c-0.374-0.056-0.819-0.102-1.283-0.102c-1.737,0-2.796,0.604-3.148,1.794
			c-0.063,0.213-0.258,0.358-0.479,0.358h-1.443c-0.276,0-0.5-0.224-0.5-0.5v-5.726c0-0.276,0.224-0.5,0.5-0.5h1.443
			c0.26,0,0.473,0.198,0.498,0.451c0.888-0.407,2.463-0.988,4.211-0.988c0.767,0,1.497,0.114,2.171,0.339
			c1.269,0.423,1.834,0.82,2.173,1.058c0.075,0.053,0.169,0.119,0.2,0.131c0.039-0.025,0.381-0.251,0.526-0.348
			c0.082-0.054,0.178-0.083,0.276-0.083h2.501c0.206,0,0.391,0.126,0.466,0.318c0.074,0.192,0.024,0.41-0.127,0.55
			c-0.042,0.039-4.155,3.916-4.155,10.579c0,0.276-0.224,0.5-0.5,0.5H27.605z"/>
		<g>
			<path fill="#161616" d="M31.15,28.209c0.659,0,1.341,0.089,2.013,0.313c1.927,0.643,2.119,1.208,2.491,1.208
				c0.175,0,0.39-0.125,0.843-0.425h2.501c0,0-4.316,3.965-4.316,10.947h-7.076c0,0,0.704-4.666,4.917-7.598
				c0,0-1.144-0.333-2.453-0.333c-1.455,0-3.113,0.413-3.628,2.152h-1.443v-5.726h1.443v0.766
				C26.441,29.512,28.626,28.209,31.15,28.209 M38.998,29.305h0.005 M31.15,27.209L31.15,27.209c-1.576,0-3.018,0.449-3.985,0.847
				c-0.182-0.19-0.439-0.309-0.723-0.309h-1.443c-0.552,0-1,0.448-1,1v5.726c0,0.553,0.448,1,1,1h1.443
				c0.443,0,0.833-0.292,0.959-0.717c0.105-0.354,0.425-1.436,2.669-1.436c0.039,0,0.077,0.001,0.115,0.001
				c-2.964,3.005-3.541,6.604-3.567,6.781c-0.043,0.288,0.041,0.581,0.231,0.802c0.19,0.221,0.466,0.348,0.758,0.348h7.076
				c0.553,0,1-0.447,1-1c0-6.24,3.68-9.91,3.975-10.193c0.211-0.184,0.345-0.453,0.345-0.754c0-0.552-0.445-1-0.998-1h-0.005h-2.501
				c-0.196,0-0.389,0.058-0.553,0.167c-0.049,0.033-0.152,0.101-0.251,0.163c-0.355-0.247-0.984-0.651-2.214-1.062
				C32.754,27.332,31.971,27.209,31.15,27.209L31.15,27.209z"/>
		</g>
	</g>
	<g>
		<path fill="#ED4C5C" d="M5.699,40.752c-0.146,0-0.284-0.063-0.379-0.174c-0.095-0.11-0.137-0.257-0.116-0.4
			c0.028-0.186,0.681-4.257,4.241-7.256c-0.374-0.056-0.819-0.102-1.283-0.102c-1.737,0-2.796,0.604-3.148,1.794
			c-0.063,0.213-0.258,0.358-0.479,0.358H3.092c-0.276,0-0.5-0.224-0.5-0.5v-5.726c0-0.276,0.224-0.5,0.5-0.5h1.443
			c0.26,0,0.473,0.198,0.498,0.451c0.888-0.407,2.463-0.988,4.211-0.988c0.767,0,1.497,0.114,2.171,0.339
			c1.269,0.423,1.834,0.82,2.172,1.058c0.075,0.053,0.169,0.119,0.201,0.131c0.038-0.025,0.38-0.251,0.526-0.348
			c0.082-0.054,0.178-0.083,0.276-0.083h2.501c0.206,0,0.391,0.126,0.465,0.318c0.075,0.192,0.024,0.41-0.126,0.55
			c-0.042,0.039-4.155,3.916-4.155,10.579c0,0.276-0.224,0.5-0.5,0.5H5.699z"/>
		<g>
			<path fill="#161616" d="M9.244,28.209c0.659,0,1.341,0.089,2.013,0.313c1.927,0.643,2.119,1.208,2.491,1.208
				c0.175,0,0.39-0.125,0.843-0.425h2.501c0,0-4.316,3.965-4.316,10.947H5.699c0,0,0.704-4.666,4.917-7.598
				c0,0-1.144-0.333-2.453-0.333c-1.455,0-3.113,0.413-3.628,2.152H3.092v-5.726h1.443v0.766C4.535,29.512,6.72,28.209,9.244,28.209
				 M17.092,29.305h0.005 M9.244,27.209L9.244,27.209c-1.576,0-3.018,0.449-3.985,0.847c-0.182-0.19-0.439-0.309-0.723-0.309H3.092
				c-0.552,0-1,0.448-1,1v5.726c0,0.553,0.448,1,1,1h1.443c0.443,0,0.833-0.292,0.959-0.717c0.105-0.354,0.425-1.436,2.669-1.436
				c0.039,0,0.077,0.001,0.115,0.001c-2.964,3.005-3.541,6.604-3.567,6.781c-0.043,0.288,0.041,0.581,0.231,0.802
				c0.19,0.221,0.466,0.348,0.758,0.348h7.076c0.552,0,1-0.447,1-1c0-6.24,3.68-9.91,3.975-10.193
				c0.211-0.184,0.344-0.453,0.344-0.754c0-0.552-0.445-1-0.998-1h-0.005h-2.501c-0.196,0-0.389,0.058-0.552,0.167
				c-0.049,0.033-0.152,0.101-0.251,0.163c-0.355-0.247-0.984-0.651-2.214-1.062C10.848,27.332,10.064,27.209,9.244,27.209
				L9.244,27.209z"/>
		</g>
	</g>
</g>
</svg>
