<?xml version="1.0" encoding="utf-8"?>
<!-- Generator: Adobe Illustrator 15.0.0, SVG Export Plug-In . SVG Version: 6.00 Build 0)  -->
<!DOCTYPE svg PUBLIC "-//W3C//DTD SVG 1.1//EN" "http://www.w3.org/Graphics/SVG/1.1/DTD/svg11.dtd">
<svg version="1.1" id="Layer_1" xmlns="http://www.w3.org/2000/svg" xmlns:xlink="http://www.w3.org/1999/xlink" x="0px" y="0px"
	 width="64px" height="64px" viewBox="0 0 64 64" enable-background="new 0 0 64 64" xml:space="preserve">
<g>
	<g>
		<g>
			<path fill="#BEC0C6" d="M2.846,28.913C4.191,21.94,7.124,18.067,6.92,14.259c-0.094-1.736-2.007-3.654-2.007-6.705
				c0-7.404,8.771-7.125,8.745-0.029c-0.012,3.049-1.675,5.029-1.769,6.766c-0.208,3.811,2.56,7.691,3.833,14.68
				c1.985,10.943,0.479,14.188-0.141,14.85c-2.131,2.287-8.266,2.957-10.758,1.131C1.168,42.271,1.719,34.757,2.846,28.913z"/>
			<path fill="#E8ECEF" d="M16.248,28.913c-1.271-6.986-4.287-10.846-4.079-14.654c0.094-1.736,2.006-3.654,2.006-6.705
				c0-4.627-3.617-6.363-6.33-5.207c0,0-0.938,2.434-0.938,5.209c0,4.307,2.188,6.928,2.188,6.928
				C2.4,30.985,3.673,41.47,6.521,43.718c1.952,1.541,7.349,1.939,9.062,0.102C16.795,42.522,18.234,39.856,16.248,28.913z"/>
			<g>
				<path fill="#C9150D" d="M6.497,12.741h6.095c-0.236,0.531-0.44,2.139-0.411,2.451H6.909C6.938,14.88,6.733,13.272,6.497,12.741z
					"/>
				<path fill="#C9150D" d="M6.39,17.769h6.324c0.287,0.777,0.486,1.588,0.873,2.453H5.531C5.918,19.356,6.104,18.546,6.39,17.769z"
					/>
			</g>
		</g>
		<g>
			<path fill="#BEC0C6" d="M24.369,28.913c1.346-6.973,4.278-10.846,4.074-14.654c-0.094-1.736-2.007-3.654-2.007-6.705
				c0-7.404,8.771-7.125,8.745-0.029c-0.012,3.049-1.675,5.029-1.769,6.766c-0.208,3.811,2.56,7.691,3.833,14.68
				c1.985,10.943,0.479,14.188-0.141,14.85c-2.131,2.287-8.266,2.957-10.758,1.131C22.691,42.271,23.242,34.757,24.369,28.913z"/>
			<path fill="#E8ECEF" d="M37.771,28.913c-1.271-6.986-4.287-10.846-4.079-14.654c0.094-1.736,2.006-3.654,2.006-6.705
				c0-4.627-3.617-6.363-6.33-5.207c0,0-0.938,2.434-0.938,5.209c0,4.307,2.188,6.928,2.188,6.928
				c-6.693,16.502-5.421,26.986-2.573,29.234c1.952,1.541,7.349,1.939,9.062,0.102C38.318,42.522,39.758,39.856,37.771,28.913z"/>
			<g>
				<path fill="#C9150D" d="M28.021,12.741h6.095c-0.236,0.531-0.44,2.139-0.411,2.451h-5.271
					C28.462,14.88,28.257,13.272,28.021,12.741z"/>
				<path fill="#C9150D" d="M27.913,17.769h6.324c0.287,0.777,0.486,1.588,0.873,2.453h-8.056
					C27.441,19.356,27.627,18.546,27.913,17.769z"/>
			</g>
		</g>
		<g>
			<path fill="#BEC0C6" d="M12.685,32.583c1.529-7.924,4.861-12.325,4.629-16.652c-0.106-1.973-2.28-4.153-2.28-7.62
				c0-8.413,9.968-8.096,9.938-0.033c-0.013,3.466-1.902,5.716-2.01,7.689c-0.235,4.329,2.909,8.74,4.356,16.682
				c2.256,12.435,0.543,16.121-0.16,16.874c-2.421,2.6-9.393,3.36-12.225,1.285C10.777,47.763,11.403,39.224,12.685,32.583z"/>
			<path fill="#E8ECEF" d="M27.914,32.583c-1.444-7.938-4.871-12.325-4.635-16.652c0.106-1.973,2.279-4.153,2.279-7.62
				c0-5.258-4.111-7.229-7.193-5.916c0,0-1.066,2.766-1.066,5.92c0,4.893,2.485,7.872,2.485,7.872
				c-7.605,18.752-6.16,30.665-2.924,33.221c2.218,1.751,8.351,2.203,10.297,0.115C28.535,48.048,30.172,45.02,27.914,32.583z"/>
			<g>
				<path fill="#C9150D" d="M16.833,14.206h6.927c-0.27,0.604-0.501,2.432-0.468,2.786h-5.99
					C17.335,16.638,17.103,14.811,16.833,14.206z"/>
				<path fill="#C9150D" d="M16.711,19.919h7.188c0.326,0.884,0.553,1.806,0.992,2.787h-9.154
					C16.176,21.725,16.387,20.803,16.711,19.919z"/>
			</g>
		</g>
	</g>
	<g>
		<g>
			<circle fill="#4D4D4D" cx="42.21" cy="42.209" r="19.79"/>
			<circle cx="41.71" cy="44.489" r="3.5"/>
			<circle cx="32.313" cy="34.865" r="3"/>
			<circle cx="44.71" cy="30.285" r="3"/>
		</g>
	</g>
</g>
</svg>
