<?xml version="1.0" encoding="utf-8"?>
<!-- Generator: Adobe Illustrator 15.0.0, SVG Export Plug-In . SVG Version: 6.00 Build 0)  -->
<!DOCTYPE svg PUBLIC "-//W3C//DTD SVG 1.1//EN" "http://www.w3.org/Graphics/SVG/1.1/DTD/svg11.dtd">
<svg version="1.1" id="Layer_1" xmlns="http://www.w3.org/2000/svg" xmlns:xlink="http://www.w3.org/1999/xlink" x="0px" y="0px"
	 width="64px" height="64px" viewBox="0 0 64 64" enable-background="new 0 0 64 64" xml:space="preserve">
<g>
	<path fill="#428BC1" d="M46.374,14.805c-2.777-0.847-5.689-1.67-7.546-2.346c-1.148-0.419-2.363-1.145-3.007-3.857l-4.695-1.369
		v29.74c-1.425-0.729-3.087-1.146-4.862-1.146c-5.276,0-9.554,3.691-9.554,8.246s4.277,8.246,9.554,8.246
		c5.275,0,9.556-3.691,9.556-8.246l0.002-25.695c1.297,0.398,3.488,1.064,7.134,2.158c6.453,1.936,3.19,7.257,2.304,9.901
		c0,0,3.73-4.369,4.468-7.722C50.651,18.512,50.116,15.943,46.374,14.805z"/>
	<path fill="#428BC1" d="M21.93,16.769c-1.866-0.568-3.822-1.122-5.07-1.575c-0.771-0.281-1.587-0.77-2.02-2.592l-3.154-0.92v19.98
		c-0.957-0.49-2.074-0.771-3.268-0.771C4.874,30.891,2,33.371,2,36.432c0,3.059,2.874,5.539,6.418,5.539
		c3.545,0,6.42-2.48,6.42-5.539l0.002-17.263c0.871,0.268,2.344,0.716,4.793,1.45c4.335,1.299,2.143,4.875,1.547,6.651
		c0,0,2.506-2.936,3.002-5.188C24.803,19.26,24.443,17.534,21.93,16.769z"/>
	<path fill="#428BC1" d="M59.757,34.309c-1.663-0.507-3.406-1-4.518-1.404c-0.688-0.25-1.415-0.686-1.8-2.31l-2.812-0.819V47.58
		c-0.853-0.436-1.848-0.686-2.911-0.686c-3.158,0-5.719,2.209-5.719,4.936s2.561,4.938,5.719,4.938c3.159,0,5.721-2.211,5.721-4.938
		l0.001-15.383c0.777,0.238,2.089,0.638,4.271,1.292c3.863,1.159,1.91,4.345,1.379,5.928c0,0,2.233-2.616,2.675-4.622
		C62.317,36.527,61.997,34.99,59.757,34.309z"/>
</g>
</svg>
