<?xml version="1.0" encoding="utf-8"?>
<!-- Generator: Adobe Illustrator 15.0.0, SVG Export Plug-In . SVG Version: 6.00 Build 0)  -->
<!DOCTYPE svg PUBLIC "-//W3C//DTD SVG 1.1//EN" "http://www.w3.org/Graphics/SVG/1.1/DTD/svg11.dtd">
<svg version="1.1" id="Layer_1" xmlns="http://www.w3.org/2000/svg" xmlns:xlink="http://www.w3.org/1999/xlink" x="0px" y="0px"
	 width="64px" height="64px" viewBox="0 0 64 64" enable-background="new 0 0 64 64" xml:space="preserve">
<g>
	<g>
		<polygon fill="#428BC1" points="47.821,2 35.164,20.986 41.493,20.986 54.149,2 		"/>
		<g>
			<polygon fill="#E8E8E8" points="41.493,2 28.836,20.986 35.164,20.986 47.821,2 			"/>
			<polygon fill="#ED4C5C" points="35.164,2 22.507,20.986 28.836,20.986 41.493,2 			"/>
			<path fill="#FFC200" d="M20.397,16.767c-0.58,0-1.055,0.474-1.055,1.055v9.493c0,0.581,0.475,1.055,1.055,1.055h23.205
				c0.578,0,1.055-0.474,1.055-1.055v-9.493c0-0.581-0.477-1.055-1.055-1.055H20.397z M42.548,24.15c0,0.58-0.477,1.055-1.055,1.055
				H22.507c-0.58,0-1.055-0.475-1.055-1.055v-4.219c0-0.581,0.475-1.055,1.055-1.055h18.986c0.578,0,1.055,0.474,1.055,1.055V24.15z
				"/>
			<polygon fill="#ED4C5C" points="22.507,20.986 28.836,20.986 16.179,2 9.851,2 			"/>
			<polygon fill="#E8E8E8" points="28.836,20.986 35.164,20.986 22.507,2 16.179,2 			"/>
			<polygon opacity="0.5" fill="#3E4347" points="33.055,5.165 29.891,9.911 37.273,20.986 41.493,20.986 42.548,19.404 			"/>
			<polygon fill="#428BC1" points="35.164,20.986 41.493,20.986 28.836,2 22.507,2 			"/>
		</g>
	</g>
	<circle fill="#FFC200" cx="32" cy="42.284" r="19.716"/>
	<g>
		<path fill="#E68A00" d="M32.274,24.36c-10.052,0-18.197,8.16-18.197,18.229c0,3.004,0.738,5.829,2.021,8.326
			c-0.649-1.985-1.012-4.1-1.012-6.298c0-10.677,8.249-19.403,18.705-20.18C33.289,24.396,32.787,24.36,32.274,24.36"/>
	</g>
	<g>
		<path fill="#FFE394" d="M45.98,31c5.135,8.968,2.451,20.569-6.404,26.521c-1.827,1.225-3.78,2.108-5.784,2.687
			c2.781-0.345,5.533-1.317,8.024-2.99c8.354-5.613,10.62-16.816,5.063-25.025C46.597,31.776,46.292,31.385,45.98,31"/>
	</g>
	<g>
		<polygon fill="#F2B200" points="32,34.314 32,27.928 28.755,37.917 30.246,39.711 		"/>
		<polygon fill="#E68A00" points="33.754,39.711 35.244,37.917 32,27.928 32,34.314 		"/>
		<polygon fill="#C47500" points="34.838,43.047 37.25,44.09 45.749,37.917 39.428,39.711 		"/>
		<polygon fill="#FFE394" points="39.428,39.711 45.749,37.917 35.244,37.917 33.754,39.711 		"/>
		<polygon fill="#FFD252" points="30.246,39.711 28.755,37.917 18.251,37.917 24.571,39.711 		"/>
		<polygon fill="#FFDB75" points="24.571,39.711 18.251,37.917 26.749,44.09 29.162,43.047 		"/>
		<polygon fill="#E68A00" points="34.838,43.047 36.591,48.443 40.498,54.079 37.25,44.09 		"/>
		<polygon fill="#F2B200" points="32,45.108 32,47.906 40.498,54.079 36.591,48.443 		"/>
		<polygon fill="#F2B200" points="29.162,43.047 26.749,44.09 23.501,54.079 27.407,48.443 		"/>
		<polygon fill="#E68A00" points="27.407,48.443 23.501,54.079 32,47.906 32,45.108 		"/>
		<polygon fill="#FFCE31" points="33.754,39.711 32,34.314 30.246,39.711 24.571,39.711 29.162,43.047 27.407,48.443 32,45.108 
			36.591,48.443 34.838,43.047 39.428,39.711 		"/>
	</g>
</g>
</svg>
