<?xml version="1.0" encoding="utf-8"?>
<!-- Generator: Adobe Illustrator 15.0.0, SVG Export Plug-In . SVG Version: 6.00 Build 0)  -->
<!DOCTYPE svg PUBLIC "-//W3C//DTD SVG 1.1//EN" "http://www.w3.org/Graphics/SVG/1.1/DTD/svg11.dtd">
<svg version="1.1" id="Layer_1" xmlns="http://www.w3.org/2000/svg" xmlns:xlink="http://www.w3.org/1999/xlink" x="0px" y="0px"
	 width="64px" height="64px" viewBox="0 0 64 64" enable-background="new 0 0 64 64" xml:space="preserve">
<g>
	<g>
		<g>
			<g>
				<path fill="#F7931E" d="M35.554,31.866c-0.184-1.119,0.598-2.164,1.746-2.334l10.068-3.265l0.661,4.053L37.96,33.582
					C36.813,33.755,35.735,32.985,35.554,31.866z"/>
				<path fill="#F7931E" d="M47.462,30.246c-1.12-0.294-1.761-1.407-1.463-2.499l3.151-9.824l4.067,1.057l-3.149,9.823
					C49.772,29.897,48.589,30.541,47.462,30.246z"/>
			</g>
			<g>
				<path fill="#CEA284" d="M51.146,18.986l-2.031-0.336c-0.724-0.12-1.217-0.788-1.099-1.491l0.157-0.954
					c0.086-0.506,0.461-0.894,0.935-1.029c0.305-1.257,1.055-2.843,3.484-2.441c0.398,0.066,2.619,0.431,2.193,2.984
					C54.159,19.483,54.159,19.483,51.146,18.986z"/>
			</g>
		</g>
		<g>
			<polygon fill="#999999" points="11.113,0.101 10.512,1.801 44.583,13.241 45.183,11.54 			"/>
			<path fill="#3E4347" d="M58.148,15.24c0.66,0.219,1.011,0.923,0.781,1.565l-0.188,0.536c-0.228,0.643-0.946,0.986-1.607,0.764
				l-15.006-5.037c-0.657-0.219-1.012-0.922-0.783-1.566l0.19-0.535c0.227-0.643,0.947-0.986,1.607-0.764L58.148,15.24z"/>
			<path fill="#D0D0D0" d="M8.917,0.669c-1.359,1.302-4.4,5.309-3.851,6.414c0.554,1.106,8.778,3.295,8.37-3.046
				c-0.144-2.253-1.082-3.519-2.074-3.851C10.877,0.024,9.936-0.303,8.917,0.669z"/>
			<g>
				<path fill="#D0D0D0" d="M8.917,0.669c-1.359,1.302-4.4,5.309-3.851,6.414c0.554,1.106,8.778,3.295,8.37-3.046
					c-0.144-2.253-1.082-3.519-2.074-3.851C10.877,0.024,9.936-0.303,8.917,0.669z"/>
			</g>
		</g>
	</g>
	<g>
		<polygon fill="#FED0AC" points="34.839,24.58 32.679,25.596 36.447,33.597 42.006,30.979 		"/>
		<g>
			<path fill="#F9C19B" d="M34.777,24.398c1.691,3.592,3.315,5.051,5.898,3.834l1.33,2.748c-3.054,1.438-6.097-1.781-8.071-5.974
				L34.777,24.398z"/>
		</g>
		<g>
			<path fill="#FED0AC" d="M27.098,12.968l13.949-1.896c2.608,1.899,2.291,3.704,2.86,4.786c0.253,0.48,1.674,0.909,2.425,1.129
				c1.673,0.493,0.096,2.269-0.716,2.462c0.051,1.321,0.951,1.265-0.936,1.958c-1.04,0.38-2.819,0.094-2.819,0.094
				c5.694,0.694,5.093,2.366,3.057,2.742c1.098,2.33-0.348,3.01-3.519,4.503c-2.584,1.217-5.773-0.149-7.465-3.741l-3.749,1.027
				L27.098,12.968z"/>
			<path fill="#594640" d="M30.155,7.514c-8.964,4.221-6.551,12.385-2.821,17.076c1.985,2.499,4.314,3.587,6.413,3.537l0.61-0.978
				l-0.422-2.144c0,0-1.947,0.417-3.406-1.34c-0.669-0.804-0.573-2.981,0.739-3.691c0.916-0.495,2.6-0.434,2.988-0.355
				c-1.095-2.325-2.7-4.509-1.443-5.946c1.037-1.182,7.824-1.287,8.234-2.6C42.158,7.555,35.554,4.972,30.155,7.514z"/>
			<path fill="#594640" d="M32.817,22.017c0.156-0.101,0.333-0.155,0.508-0.162c-0.153-0.128-0.321-0.243-0.504-0.354
				c-0.224-0.136-0.468-0.246-0.723-0.394c0.569-0.103,1.194,0.052,1.662,0.46c0.47,0.417,0.662,1.057,0.59,1.623
				c-0.168-0.244-0.287-0.488-0.435-0.698c-0.097-0.132-0.196-0.253-0.301-0.368c-0.065,0.035-0.13,0.066-0.188,0.102
				c-0.122,0.076-0.234,0.131-0.337,0.204c-0.109,0.065-0.206,0.149-0.326,0.229c-0.116,0.083-0.226,0.186-0.387,0.288
				C32.323,22.593,32.509,22.226,32.817,22.017z"/>
			
				<ellipse transform="matrix(-0.9047 0.426 -0.426 -0.9047 86.4869 13.4372)" fill="#594640" cx="41.741" cy="16.391" rx="1.066" ry="1.489"/>
			<path fill="#594640" d="M41.861,21.501c0,0,2.406,1.392,2.906,1.51c1.065,0.254,1.139-0.278,0.514-0.619
				C44.639,22.042,41.861,21.501,41.861,21.501z"/>
		</g>
	</g>
	<path fill="#FBB03B" d="M43.829,30.572h-8.994c-1.265,0-1.441,1.809-1.305,3.525l0,0l0.608,10.6l12.119-0.006L43.829,30.572z"/>
	<path fill="#D3976E" d="M45.027,64h7.691c0-1.514-1.224-2.749-2.76-2.819v-0.005h-5.953c-0.1,1.027-0.158,1.658-0.158,1.675
		C43.848,63.486,44.376,64,45.027,64z"/>
	<path fill="#D3976E" d="M34.085,61.174l-5.933-0.029c-0.287,1.033-0.461,1.658-0.461,1.675c0,0.636,0.527,1.149,1.18,1.149h7.692
		C36.563,62.548,35.484,61.374,34.085,61.174z"/>
	<path fill="#3E4347" d="M34.128,44.5l-5.976,16.676h5.941c0,0,2.893-6.673,4.963-10.802c0.2-0.399,0.549-0.728,1.028-0.728
		c0.59,0,0.902,0.488,1.082,1.029c2.077,6.228,2.84,10.5,2.84,10.5h5.953L46.226,44.5H34.128z"/>
	<g>
		<g>
			<path fill="#FBB03B" d="M38.995,32.846c-0.183-1.119,0.599-2.164,1.748-2.334l10.068-3.264l1.426,3.906l-10.835,3.41
				C40.254,34.736,39.179,33.966,38.995,32.846z"/>
			<path fill="#FBB03B" d="M50.905,31.226c-1.121-0.294-1.761-1.407-1.465-2.499l3.152-9.823l4.067,1.057l-3.148,9.823
				C53.215,30.878,52.03,31.521,50.905,31.226z"/>
		</g>
		<g>
			<path fill="#FED0AC" d="M54.588,19.967l-2.032-0.336c-0.723-0.121-1.217-0.788-1.098-1.491l0.158-0.954
				c0.085-0.507,0.461-0.895,0.934-1.029c0.305-1.257,1.055-2.843,3.483-2.44c0.399,0.066,2.621,0.431,2.193,2.984
				C57.602,20.463,57.602,20.463,54.588,19.967z"/>
		</g>
	</g>
</g>
</svg>
