<?xml version="1.0" encoding="utf-8"?>
<!-- Generator: Adobe Illustrator 15.0.0, SVG Export Plug-In . SVG Version: 6.00 Build 0)  -->
<!DOCTYPE svg PUBLIC "-//W3C//DTD SVG 1.1//EN" "http://www.w3.org/Graphics/SVG/1.1/DTD/svg11.dtd">
<svg version="1.1" id="Layer_1" xmlns="http://www.w3.org/2000/svg" xmlns:xlink="http://www.w3.org/1999/xlink" x="0px" y="0px"
	 width="64px" height="64px" viewBox="0 0 64 64" enable-background="new 0 0 64 64" xml:space="preserve">
<g>
	<path fill="#231F20" d="M22.522,16.163c0,1.705,0,6.91,0,6.91h18.946c0,0,0-5.205,0-6.91C41.469,7.228,22.522,7.228,22.522,16.163z
		"/>
	<path fill="#B47D56" d="M39.841,20.365c-0.418-8.132-2.604-3.739-7.846-3.739c-5.237,0-7.426-4.393-7.84,3.739
		c0,0-2.277-1.571-2.277,1.525c0,1.183,0.436,2.152,1.904,2.254c0.546,4.192,2.974,5.472,6.598,5.726v0.856
		c0,0.519-0.35,0.938-0.818,1.074h-4.846L24.712,42.85c0,0,2.515,1.408,7.288,1.408c4.767,0,7.284-1.408,7.284-1.408l0.002-11.049
		h-4.854c-0.469-0.137-0.82-0.556-0.82-1.074V29.87c3.626-0.254,6.058-1.533,6.599-5.726c1.471-0.102,1.904-1.071,1.904-2.254
		C42.114,18.794,39.841,20.365,39.841,20.365z"/>
	<g>
		<path fill="#B47D56" d="M49.233,9.403c-1.656-0.486-2.326,0.599-2.652,1.482c-0.343,0.057-0.641,0.307-0.744,0.666l-0.197,0.677
			c-0.146,0.5,0.136,1.023,0.63,1.167l0.081,0.023l-2.694,10.928l2.892,0.65l2.674-10.879c0.598-0.068,0.779-0.683,1.275-2.381
			C51.024,9.927,49.509,9.483,49.233,9.403z"/>
		<path fill="#B47D56" d="M17.729,13.396c0.495-0.144,0.776-0.667,0.63-1.167l-0.197-0.677c-0.103-0.359-0.401-0.609-0.744-0.666
			c-0.325-0.884-0.994-1.969-2.65-1.482c-0.275,0.08-1.791,0.523-1.264,2.334c0.494,1.698,0.678,2.313,1.274,2.381l2.673,10.879
			l2.892-0.65l-2.693-10.928L17.729,13.396z"/>
	</g>
	<g>
		<path fill="#47352D" d="M28.202,25.072c0,1.391,1.697,2.557,3.794,2.557c2.095,0,3.794-1.166,3.794-2.557
			c0,0-2.018,0.124-3.794,0.124S28.202,25.072,28.202,25.072z"/>
	</g>
	<g>
		<g>
			<ellipse fill="#47352D" cx="35.654" cy="20.729" rx="1.264" ry="1.28"/>
		</g>
		<g>
			<ellipse fill="#47352D" cx="28.338" cy="20.729" rx="1.265" ry="1.28"/>
		</g>
	</g>
	<path fill="#935E3E" d="M31.154,23.146c0,0.471,0.375,0.851,0.842,0.851c0.468,0,0.843-0.38,0.843-0.851H31.154z"/>
	<path fill="#94989B" d="M5.484,15.376v-1.789c0,0,8.771-4.491,26.507-4.491c17.739,0,26.516,4.491,26.516,4.491v1.789
		c0,0-8.776-4.492-26.516-4.492C14.255,10.884,5.484,15.376,5.484,15.376z"/>
	<g>
		<path fill="#B47D56" d="M46.868,11.4c0.071-0.271-0.084-0.547-0.344-0.615c-0.262-0.069-0.533,0.096-0.604,0.367l0,0l-0.304,1.16
			l0.948,0.247L46.868,11.4L46.868,11.4z"/>
		<g>
			<g>
				<path fill="#935E3E" d="M46.583,11.149c0.076,0.14,0.13,0.242,0.133,0.395c0.008,0.144-0.031,0.281-0.067,0.421
					c-0.063,0.229-0.122,0.456-0.183,0.686c-0.048,0.175,0.223,0.246,0.269,0.07c0.063-0.234,0.126-0.469,0.188-0.703
					c0.044-0.163,0.081-0.327,0.072-0.496c-0.008-0.188-0.083-0.352-0.171-0.514C46.74,10.85,46.498,10.992,46.583,11.149
					L46.583,11.149z"/>
			</g>
		</g>
	</g>
	<g>
		<path fill="#B47D56" d="M17.13,11.4c-0.071-0.271,0.084-0.547,0.345-0.615c0.262-0.069,0.532,0.096,0.604,0.367l0,0l0.304,1.16
			l-0.948,0.247L17.13,11.4L17.13,11.4z"/>
		<g>
			<g>
				<path fill="#935E3E" d="M17.416,11.149c-0.077,0.14-0.13,0.242-0.134,0.395c-0.008,0.144,0.031,0.281,0.067,0.421
					c0.063,0.229,0.123,0.456,0.184,0.686c0.048,0.175-0.224,0.246-0.27,0.07c-0.063-0.234-0.126-0.469-0.188-0.703
					c-0.044-0.163-0.08-0.327-0.071-0.496c0.007-0.188,0.082-0.352,0.17-0.514C17.259,10.85,17.5,10.992,17.416,11.149
					L17.416,11.149z"/>
			</g>
		</g>
	</g>
	<g>
		<polygon fill="#428BC1" points="24.712,42.421 24.712,43.977 24.712,42.421 		"/>
	</g>
	<g>
		<g>
			<g>
				<polygon fill="#3E4347" points="56.888,21.975 53.169,20.606 58.283,6.4 62,7.768 				"/>
			</g>
			<g>
				<polygon fill="#3E4347" points="52.794,23.561 47.648,21.665 54.728,2 59.874,3.894 				"/>
			</g>
		</g>
		<g>
			<g>
				<polygon fill="#3E4347" points="7.114,21.975 10.833,20.606 5.719,6.4 2,7.768 				"/>
			</g>
			<g>
				<polygon fill="#3E4347" points="11.206,23.561 16.354,21.665 9.274,2 4.128,3.894 				"/>
			</g>
		</g>
	</g>
	<path fill="#47B892" d="M46.548,24.997l-2.756-1.24l-5.627,8.044h-2.932c-0.362,1.465-1.672,2.553-3.233,2.553
		s-2.875-1.088-3.235-2.553h-2.932l-5.627-8.044l-2.756,1.24l7.266,10.348l-0.004,8.632c0,0,2.515,1.408,7.288,1.408
		c4.767,0,7.284-1.408,7.284-1.408l0.002-8.635L46.548,24.997z"/>
	<g>
		<path fill="#D3976E" d="M20.197,59.287c-1.375,0-2.49,1.209-2.49,2.701V62h7.005v-2.713H20.197z"/>
		<path fill="#D3976E" d="M43.802,59.287c1.377,0,2.49,1.209,2.49,2.701V62h-7.006v-2.713H43.802z"/>
		<g>
			<polygon fill="#F2B200" points="24.712,41.898 24.712,43.568 24.712,41.898 			"/>
			<path fill="#3E4347" d="M41.651,48.285l-2.391-1.796h0.025l-0.002-2.921c0,0-2.518,1.51-7.284,1.51
				c-4.773,0-7.288-1.51-7.288-1.51v2.921h0.026l-2.39,1.796c-1.531,1.161-2.143,2.248-2.143,3.532c0,1.648,0,7.47,0,7.47h4.506
				v-5.918l3.818-3.009h0.025c0.479-0.417,1.088-0.668,1.751-0.668c0,0,2.539,0,3.386,0c0.865,0,1.891,0.78,1.891,0.78l3.703,2.896
				v5.918h4.506c0,0,0-5.821,0-7.47C43.792,50.533,43.181,49.446,41.651,48.285z"/>
		</g>
	</g>
</g>
</svg>
