<?xml version="1.0" encoding="utf-8"?>
<!-- Generator: Adobe Illustrator 15.0.0, SVG Export Plug-In . SVG Version: 6.00 Build 0)  -->
<!DOCTYPE svg PUBLIC "-//W3C//DTD SVG 1.1//EN" "http://www.w3.org/Graphics/SVG/1.1/DTD/svg11.dtd">
<svg version="1.1" id="Layer_1" xmlns="http://www.w3.org/2000/svg" xmlns:xlink="http://www.w3.org/1999/xlink" x="0px" y="0px"
	 width="64px" height="64px" viewBox="0 0 64 64" enable-background="new 0 0 64 64" xml:space="preserve">
<g>
	<g>
		<path fill="#333333" d="M18.686,13.015c-3.7,0.543-7.12,1.836-9.987,4.628c-1.003-2.709-2.006-5.419-3.009-8.128
			c2.867-2.792,6.289-4.084,9.987-4.628C16.68,7.596,17.683,10.306,18.686,13.015z"/>
		<path fill="#FFFFFF" d="M30.337,12.886c-3.977-0.207-7.953-0.413-11.651,0.129c-1.003-2.709-2.006-5.419-3.009-8.128
			c3.7-0.542,7.676-0.336,11.652-0.129C28.331,7.467,29.334,10.176,30.337,12.886z"/>
		<path fill="#333333" d="M41.989,12.756c-3.699,0.543-7.676,0.337-11.652,0.13c-1.003-2.709-2.006-5.418-3.008-8.128
			c3.977,0.207,7.951,0.414,11.651-0.13C39.983,7.337,40.986,10.047,41.989,12.756z"/>
		<path fill="#FFFFFF" d="M51.976,8.128c-2.867,2.792-6.288,4.085-9.986,4.627c-1.003-2.709-2.006-5.418-3.009-8.128
			C42.68,4.085,46.101,2.792,48.968,0C49.971,2.709,50.974,5.419,51.976,8.128z"/>
		<path fill="#FFFFFF" d="M21.694,21.144c-3.7,0.543-7.12,1.836-9.988,4.627c-1.002-2.709-2.005-5.419-3.008-8.128
			c2.867-2.792,6.287-4.084,9.987-4.628C19.688,15.725,20.69,18.435,21.694,21.144z"/>
		<path fill="#333333" d="M33.346,21.014c-3.978-0.207-7.954-0.414-11.651,0.13c-1.004-2.709-2.006-5.419-3.009-8.129
			c3.698-0.542,7.675-0.336,11.651-0.129C31.34,15.595,32.343,18.305,33.346,21.014z"/>
		<path fill="#FFFFFF" d="M44.997,20.884c-3.699,0.543-7.675,0.337-11.651,0.13c-1.003-2.709-2.006-5.419-3.009-8.128
			c3.977,0.207,7.953,0.414,11.652-0.13C42.992,15.466,43.995,18.175,44.997,20.884z"/>
		<path fill="#333333" d="M54.983,16.257c-2.866,2.792-6.287,4.085-9.986,4.627c-1.002-2.709-2.005-5.418-3.008-8.128
			c3.698-0.542,7.119-1.835,9.986-4.627C52.978,10.837,53.98,13.547,54.983,16.257z"/>
		<path fill="#333333" d="M24.702,29.272c-3.7,0.543-7.121,1.836-9.987,4.627c-1.003-2.709-2.005-5.418-3.009-8.128
			c2.868-2.792,6.288-4.084,9.988-4.627C22.696,23.853,23.699,26.563,24.702,29.272z"/>
		<path fill="#FFFFFF" d="M36.354,29.143c-3.978-0.206-7.953-0.413-11.652,0.13c-1.003-2.709-2.006-5.419-3.008-8.128
			c3.697-0.543,7.674-0.336,11.651-0.13C34.349,23.724,35.351,26.433,36.354,29.143z"/>
		<path fill="#333333" d="M48.005,29.013c-3.699,0.543-7.675,0.336-11.65,0.13c-1.004-2.709-2.006-5.419-3.009-8.128
			c3.977,0.207,7.952,0.414,11.651-0.13C45.999,23.594,47.002,26.304,48.005,29.013z"/>
		<path fill="#FFFFFF" d="M57.992,24.386c-2.866,2.792-6.288,4.084-9.987,4.627c-1.003-2.709-2.006-5.419-3.008-8.128
			c3.699-0.542,7.12-1.835,9.986-4.627C55.986,18.966,56.989,21.676,57.992,24.386z"/>
		<path fill="#FFFFFF" d="M27.71,37.401c-3.699,0.542-7.12,1.835-9.986,4.627c-1.004-2.709-2.006-5.418-3.009-8.129
			c2.866-2.791,6.287-4.084,9.987-4.627C25.704,31.981,26.708,34.691,27.71,37.401z"/>
		<path fill="#333333" d="M39.361,37.271c-3.977-0.206-7.952-0.413-11.651,0.131c-1.002-2.71-2.006-5.42-3.008-8.129
			c3.699-0.543,7.675-0.336,11.652-0.13C37.356,31.853,38.358,34.562,39.361,37.271z"/>
		<path fill="#FFFFFF" d="M51.013,37.142c-3.698,0.543-7.674,0.336-11.651,0.129c-1.003-2.709-2.005-5.418-3.007-8.128
			c3.976,0.206,7.951,0.413,11.65-0.13C49.008,31.723,50.01,34.433,51.013,37.142z"/>
		<path fill="#333333" d="M61,32.514c-2.866,2.792-6.288,4.085-9.987,4.628c-1.003-2.709-2.005-5.419-3.008-8.129
			c3.699-0.543,7.121-1.835,9.987-4.627C58.995,27.095,59.997,29.804,61,32.514z"/>
	</g>
	<polygon fill="#333333" points="25.875,64 23.981,64 3,7.304 4.653,6.712 	"/>
</g>
</svg>
