<?xml version="1.0" encoding="utf-8"?>
<!-- Generator: Adobe Illustrator 15.0.0, SVG Export Plug-In . SVG Version: 6.00 Build 0)  -->
<!DOCTYPE svg PUBLIC "-//W3C//DTD SVG 1.1//EN" "http://www.w3.org/Graphics/SVG/1.1/DTD/svg11.dtd">
<svg version="1.1" id="Layer_1" xmlns="http://www.w3.org/2000/svg" xmlns:xlink="http://www.w3.org/1999/xlink" x="0px" y="0px"
	 width="64px" height="64px" viewBox="0 0 64 64" enable-background="new 0 0 64 64" xml:space="preserve">
<g>
	<g>
		<g>
			<polygon fill="#FFE1BD" points="30.716,12.342 32.131,11.802 34.147,17 30.502,18.391 			"/>
			<g>
				<path fill="#E6B796" d="M30.659,12.234c0.905,2.335,0.86,3.709-0.834,4.354l0.677,1.802c2.003-0.764,1.862-3.55,0.806-6.274
					L30.659,12.234z"/>
			</g>
			<g>
				<path fill="#FFE1BD" d="M28.788,3.763l-7.001,5.522c-0.275,2.014,0.694,2.654,0.94,3.386c0.108,0.324-0.32,1.157-0.549,1.595
					c-0.51,0.977,1,1.033,1.444,0.748c0.585,0.598,0.163,0.983,1.312,0.426c0.629-0.307,1.281-1.242,1.281-1.242
					c-2.184,2.895-1.152,3.348-0.085,2.584c0.585,1.516,1.535,1.154,3.613,0.361c1.693-0.646,2.47-2.691,1.563-5.026l2.119-1.259
					L28.788,3.763z"/>
				<path fill="#594640" d="M24.94,2.779c5.879-2.241,8.565,2.412,9.08,6.152c0.272,1.99-0.252,3.525-1.197,4.459l-0.716-0.148
					l-0.8-1.126c0,0,1.047-0.704,0.882-2.134c-0.074-0.654-1.115-1.56-2.019-1.271c-0.631,0.203-1.342,0.994-1.477,1.205
					C28.108,8.405,27.811,6.725,26.6,6.67c-0.998-0.043-4.03,3-4.813,2.615C19.685,8.259,21.401,4.129,24.94,2.779z"/>
				<path fill="#574137" d="M30.427,10.307c-0.115,0.027-0.216,0.084-0.298,0.16c0.011-0.125,0.032-0.252,0.06-0.383
					c0.037-0.162,0.092-0.32,0.138-0.501c-0.297,0.214-0.501,0.565-0.52,0.956c-0.015,0.396,0.194,0.762,0.487,0.975
					c-0.039-0.182-0.098-0.342-0.13-0.5c-0.019-0.102-0.03-0.2-0.037-0.298c0.046-0.015,0.087-0.03,0.128-0.042
					c0.089-0.021,0.164-0.049,0.243-0.064c0.077-0.021,0.156-0.027,0.248-0.047c0.089-0.018,0.184-0.023,0.302-0.052
					C30.909,10.332,30.659,10.257,30.427,10.307z"/>
				<path fill="#574137" d="M24.556,11.676c0.188,0.483,0.057,0.983-0.293,1.116c-0.35,0.134-0.783-0.151-0.972-0.634
					c-0.188-0.483-0.056-0.984,0.292-1.117C23.932,10.909,24.367,11.192,24.556,11.676z"/>
				<path fill="#574137" d="M26.216,14.197c0,0-0.419,1.701-0.584,1.98c-0.352,0.596-0.628,0.396-0.51-0.036
					C25.241,15.697,26.216,14.197,26.216,14.197z"/>
			</g>
		</g>
		<g>
			<polygon fill="#3E4347" points="31.787,13.721 30.884,14.182 27.02,8.561 27.922,8.1 			"/>
			<polygon fill="#3E4347" points="31.634,13.981 30.645,13.846 32.317,9.25 33.308,9.385 			"/>
			
				<rect x="30.755" y="12.958" transform="matrix(0.9794 -0.2018 0.2018 0.9794 -2.3444 6.648)" fill="#3E4347" width="1.35" height="3.725"/>
		</g>
		<path fill="#F15744" d="M35.16,9.553c-0.056,1.357-4.714-0.502-7.418-0.611c-2.969-0.121-7.454,1.109-7.409,0.008
			c0.164-4.001,3.614-7.109,7.708-6.942C32.136,2.174,35.323,5.552,35.16,9.553z"/>
	</g>
	<polygon fill="#3B946F" points="30.339,18.841 27.438,23.816 26.309,24.201 26.878,25.241 29.551,25.004 32.348,19.415 	"/>
	<path fill="#94989B" d="M40.225,23.18c0,0-7.291,5.6-7.791,6.18c-0.502,0.584-0.828,1.098-1.174,2.47l2.891,1.296
		C34.15,33.125,40.432,24.739,40.225,23.18z"/>
	<g>
		<path fill="#89664C" d="M60.828,32.329c2.611-4.038-7.907-6.089-12.07-0.438v1.325c0,0,8.585-2.481,6.623,2.407
			c-2.184,5.441,6.623,9.994,6.623,9.994S57.16,37.996,60.828,32.329z"/>
		<path fill="#89664C" d="M9.236,12.307c0,0-0.725-1.496-0.343-4.157c0,0,2.003,1.364,3.381,4.496L9.236,12.307z"/>
		<path fill="#574137" d="M12.691,59.104l0.563-4.379c0,0-0.852,0.02-1.788-0.23c-0.257,0.811-0.647,2.225-0.898,3.901
			C11.742,59.023,12.691,59.104,12.691,59.104z"/>
		<g>
			<path fill="#89664C" d="M27.195,48.057c-0.696,0.523-1.52,1.184-2.109,1.771l-3.463-1.015c0,0,3.154-4.841,10.71-8.032
				c0,0-8.498-3.136-11.351,0.981c0,0-3.808,5.668-5.094,7.019c-1.29,1.351,0.062,2.559,0.71,2.759
				c0.649,0.198,9.672,0.958,9.672,0.958s1.234-1.045,2.782-1.646C28.394,49.428,27.679,48.543,27.195,48.057z"/>
			<path fill="#574137" d="M28.55,47.082c0,0-0.604,0.408-1.354,0.975c0.483,0.486,1.198,1.371,1.857,2.795
				c0.741-0.289,1.551-0.477,2.331-0.4C31.384,50.451,30.22,47.918,28.55,47.082z"/>
		</g>
		<g>
			<path fill="#89664C" d="M38.291,36.434l-0.783,5.815c0,0,7.891,1.333,11.201,0.093c0,0,2.936,7.171,8.359,11.7
				c0.406-0.731,0.898-1.896,1.24-3.623c-2.124-1.346-5.414-4.39-6.939-10.812C51.369,39.607,44.955,40.381,38.291,36.434z"/>
			<path fill="#574137" d="M57.068,54.042c0.727,0.612,1.502,1.173,2.32,1.661c0,0,0.813-2.018,0.87-4.324
				c0,0-0.805-0.231-1.95-0.96C57.967,52.146,57.475,53.311,57.068,54.042z"/>
		</g>
		<path fill="#B7805C" d="M44.829,28.054c-8.035,0.958-15.725,2.966-17.146-1.396C21.873,8.846,11.024,11.66,11.024,11.66
			C9.131,9.383,7.162,8.998,7.162,8.998c-0.158,2.259,0.716,4.166,0.716,4.166c-0.563,2.871-5.352,12.033-5.827,13.281
			c-0.479,1.248,2.883,3.422,2.883,3.422c0.698-0.133,0.865-1.255,2.438-1.219c0.397,0.009-0.713,1.408-0.29,1.551
			c0.783,0.264,1.744-2.028,3.363-2.912c6.088-3.326,4.064-5.513,4.064-5.513c2.496,1.738,1.077,5.515-0.002,7.489
			c-2.544,4.65,0.118,11.49,0.118,11.49c-2.46,1.905-7.911,2.979-7.911,2.979c-1.861,9.82,1.466,13.383,3.853,14.663
			c0.251-1.677,0.642-3.091,0.898-3.901c-0.925-0.247-1.93-0.752-2.291-1.785c-0.731-2.088,0.667-6.786,0.667-6.786
			c6.472,0.776,10.546-1.237,15.188-2.383c4.646-1.146,9.14-0.345,13.577,0.435C55.703,46.979,53.476,27.023,44.829,28.054z"/>
		<g>
			<path fill="#B7805C" d="M37.671,43.262c4.439,10.01,14.011,4.531,14.011,4.531c-2.188,6.121-0.58,10.313,0.795,12.48
				c1.19-0.605,1.934-1.965,2.287-2.778c-3.071-3.462-0.879-8.068-0.285-9.877c0.653-1.988-0.298-3.269-0.298-3.269
				c-2.676-0.615-4.249,1.221-7.423-2.867C43.588,37.396,37.671,43.262,37.671,43.262z"/>
			<path fill="#574137" d="M53.868,62c1.53-0.068,1.975-3.508,1.975-3.508c-0.417-0.318-0.774-0.65-1.079-0.997
				c-0.354,0.813-1.097,2.173-2.287,2.778C53.207,61.42,53.868,62,53.868,62z"/>
		</g>
		<path fill="#574137" d="M34.138,38.156c0,0,0.315,2.238-1.202,5.185c0,0,1.167-0.048,2.221,0.108c0,0,0.855-0.974,1.225-5.069
			L34.138,38.156z"/>
		<path fill="#89664C" d="M28.164,27.617c0,0,2.354,2.556,0.926,4.762c-1.96,3.029,4.086,8.526,10.984,5.445
			c4.939-2.203,0.176-7.631,2.371-9.653C42.445,28.171,34.168,30.008,28.164,27.617z"/>
		<g>
			<g>
				<path fill="#333333" d="M5.425,25.449l-0.498-0.547c5.685-5.254,6.959-7.486,6.975-7.51l0.642,0.365
					C12.492,17.851,11.198,20.116,5.425,25.449z"/>
			</g>
			<path fill="#333333" d="M13.195,18.445c-0.839-1.207-1.768-2.303-2.751-3.264c-1.01-0.984-2.1-1.585-2.566-2.018
				c0.005,0.004-0.109,0.486-0.21,0.797c0.446,0.422,1.424,0.938,2.266,1.755c1.407,1.37,3.214,3.93,4.841,7.511
				c0.166-0.113,0.5-0.58,0.562-0.623C14.652,21.115,14.081,19.715,13.195,18.445z"/>
			<path fill="#333333" d="M6.769,28.7c0.19-0.095,0.683,0,0.683,0c-1.156-3.159-3.056-5.264-3.774-5.675l-0.315,0.65
				c0.235,0.141,0.466,0.303,0.912,0.748C4.911,25.062,6.087,26.809,6.769,28.7z"/>
		</g>
		<path fill="#89664C" d="M7.264,18.994c0,0,0.982,0.42,1.658-0.407c0.678-0.829,0.274-2.87,0.274-2.87S7.865,16.773,7.264,18.994z"
			/>
		<path fill="#89664C" d="M2.901,26.07c0,0,1.346-0.176,0.866,1.392C3.285,29.026,2.831,26.614,2.901,26.07z"/>
	</g>
	<path fill="#333333" d="M21.475,26.199c-3.137-0.051-6.58-1.091-8.914-1.955c-2.542-0.941-4.356-1.883-4.376-1.891l-0.275,0.533
		c0.019,0.01,1.861,0.967,4.436,1.919c1.513,0.562,2.979,1.011,4.361,1.339c1.591,0.379,3.068,0.596,4.406,0.646
		C21.321,26.586,21.475,26.199,21.475,26.199z"/>
	<g>
		<path fill="#47B892" d="M28.746,24.369c0,0-5.97,0.869-6.674,1.085c0,0,0.07,0.401-0.351,1.239l8.505,0.668l3.686-5.582l6.313,1.4
			c0,0,2.989,0.15,5.953-2.688c0,0-5.801-6.227-12.75-5.759c0,0-1.143,2.313-3.363,3.409L28.746,24.369z"/>
		<path fill="#D0D0D0" d="M40.225,23.18c0,0-5.842,4.909-7.036,7.828c-0.808,1.979,1.317,4.92,1.704,5.871
			c0,0,2.242,0.23,3.52-1.096c0,0,0.084-1.063-1.504-3.713c0,0,5.789-2.078,8.079-4.117c2.29-2.037,2.886-4.036,1.19-7.461
			L40.225,23.18z"/>
		<path fill="#333333" d="M35.852,42.927c0,0-3.695,1.96-3.875,2.573c-0.182,0.613,0.619,0.885,0.619,0.885s3.25,0.385,6.826-0.516
			L38.54,35.472c0,0-0.866,1.214-3.8,1.421L35.852,42.927z"/>
		<g>
			<g>
				<path fill="#FFE1BD" d="M22.173,26.028l0.006-1.065c0.001-0.381-0.31-0.689-0.694-0.689l-0.521-0.002
					c-0.277-0.001-0.517,0.156-0.631,0.387c-0.695,0.047-1.607,0.293-1.612,1.566c-0.001,0.209-0.007,1.375,1.389,1.379
					C22.164,27.609,22.164,27.609,22.173,26.028z"/>
			</g>
		</g>
	</g>
	<path fill="#C9150D" d="M29.428,9.154c0,0-9.101,2.672-10.507,2.461c-1.406-0.209,0.758-2.135,1.418-2.617
		S28.806,8.451,29.428,9.154z"/>
</g>
</svg>
