<?xml version="1.0" encoding="utf-8"?>
<!-- Generator: Adobe Illustrator 15.0.0, SVG Export Plug-In . SVG Version: 6.00 Build 0)  -->
<!DOCTYPE svg PUBLIC "-//W3C//DTD SVG 1.1//EN" "http://www.w3.org/Graphics/SVG/1.1/DTD/svg11.dtd">
<svg version="1.1" id="Layer_1" xmlns="http://www.w3.org/2000/svg" xmlns:xlink="http://www.w3.org/1999/xlink" x="0px" y="0px"
	 width="64px" height="64px" viewBox="0 0 64 64" enable-background="new 0 0 64 64" xml:space="preserve">
<g>
	<g>
		<circle fill="#ED4C5C" cx="52.274" cy="52.437" r="9.564"/>
		
			<rect x="42.711" y="51.754" transform="matrix(0.7071 0.7071 -0.7071 0.7071 52.389 -21.6053)" fill="#E8E8E8" width="19.128" height="1.366"/>
		
			<rect x="52.84" y="49.822" transform="matrix(0.7073 0.7069 -0.7069 0.7073 51.5704 -23.5366)" fill="#E8E8E8" width="2.732" height="1.366"/>
		
			<rect x="55.739" y="52.719" transform="matrix(0.7073 0.7069 -0.7069 0.7073 54.4671 -24.7375)" fill="#E8E8E8" width="2.732" height="1.367"/>
		
			<rect x="49.941" y="46.923" transform="matrix(0.7071 0.7071 -0.7071 0.7071 48.6908 -22.3371)" fill="#E8E8E8" width="2.735" height="1.367"/>
		
			<rect x="48.975" y="53.687" transform="matrix(0.7069 0.7073 -0.7073 0.7069 53.2083 -19.672)" fill="#E8E8E8" width="2.734" height="1.365"/>
		
			<rect x="51.874" y="56.584" transform="matrix(0.7071 0.7071 -0.7071 0.7071 56.0873 -20.8735)" fill="#E8E8E8" width="2.732" height="1.364"/>
		<path fill="#E8E8E8" d="M55.655,58.715l-0.966,0.967l1.48,1.48c0.431-0.193,0.854-0.412,1.259-0.674L55.655,58.715z"/>
		<path fill="#E8E8E8" d="M43.548,48.541l1.48,1.48l0.967-0.965l-1.773-1.773C43.962,47.686,43.741,48.109,43.548,48.541z"/>
		
			<rect x="46.077" y="50.788" transform="matrix(0.7071 0.7071 -0.7071 0.7071 50.2911 -18.4721)" fill="#E8E8E8" width="2.732" height="1.366"/>
		<path fill="#E8E8E8" d="M48.893,46.156l0.966-0.965l-1.479-1.48c-0.433,0.191-0.854,0.412-1.259,0.674L48.893,46.156z"/>
		<path fill="#E8E8E8" d="M61,56.332l-1.479-1.48l-0.967,0.967l1.772,1.771C60.586,57.186,60.808,56.764,61,56.332z"/>
	</g>
	<g>
		<path fill="#DBB471" d="M38.397,15.283L2.281,51.4c-0.95,0.949,0.59,4.031,3.439,6.881c2.85,2.85,5.93,4.389,6.88,3.438
			l36.117-36.115L38.397,15.283z"/>
		<path fill="#E8E8E8" d="M47.858,19.582L61.999,5.441c-0.211-0.805-0.612-1.568-1.242-2.197C60.128,2.613,59.362,2.213,58.561,2
			L44.418,16.143c-1.426,1.426-3.735,1.424-5.16,0l8.601,8.6C46.433,23.318,46.433,21.008,47.858,19.582z"/>
		<path opacity="0.5" fill="#FFFFFF" d="M12.978,51.779c-0.714,0.713-1.438,2.285-1.364,3.291c0.108,1.465,1.342,6.295,1.342,6.295
			l35.762-35.762l-4.781-4.783C43.937,20.82,20.716,44.037,12.978,51.779z"/>
		<path opacity="0.15" fill="#3E4347" d="M12.222,51.023c-0.713,0.713-2.286,1.438-3.292,1.363
			c-1.464-0.107-6.293-1.342-6.293-1.342l35.761-35.762l4.783,4.781C43.181,20.064,19.962,43.283,12.222,51.023z"/>
		<path fill="#3E4347" d="M47.858,24.742c-0.814-0.814-1.147-1.916-1.031-2.977c-0.83-0.441-1.796-0.996-2.875-1.717
			c-0.721-1.078-1.277-2.045-1.717-2.875c-1.062,0.115-2.164-0.217-2.978-1.031c0,0,0.796,2.365,2.976,5.625
			C45.493,23.947,47.858,24.742,47.858,24.742z"/>
		<g>
			<path fill="#3E4347" d="M60.28,7.16l1.719-1.719c-0.211-0.805-0.612-1.568-1.242-2.197C60.128,2.613,59.362,2.213,58.561,2
				L56.84,3.721c0.804,0.211,1.567,0.613,2.197,1.244C59.667,5.594,60.067,6.357,60.28,7.16z"/>
		</g>
		<path fill="#B2C1C0" d="M49.419,18.021l-4.172-2.709l-0.829,0.83c-0.344,0.344-0.74,0.602-1.163,0.779l4.428,2.875
			c0.061-0.07,0.108-0.148,0.176-0.215L49.419,18.021z"/>
		<polygon fill="#B2C1C0" points="59.966,7.475 55.796,4.766 54.037,6.523 58.208,9.232 		"/>
		<polygon fill="#B2C1C0" points="56.45,10.99 52.279,8.281 50.521,10.039 54.692,12.746 		"/>
		<polygon fill="#B2C1C0" points="52.933,14.506 48.762,11.799 47.005,13.555 51.175,16.264 		"/>
	</g>
</g>
</svg>
