<?xml version="1.0" encoding="utf-8"?>
<!-- Generator: Adobe Illustrator 15.0.0, SVG Export Plug-In . SVG Version: 6.00 Build 0)  -->
<!DOCTYPE svg PUBLIC "-//W3C//DTD SVG 1.1//EN" "http://www.w3.org/Graphics/SVG/1.1/DTD/svg11.dtd">
<svg version="1.1" id="Layer_1" xmlns="http://www.w3.org/2000/svg" xmlns:xlink="http://www.w3.org/1999/xlink" x="0px" y="0px"
	 width="64px" height="64px" viewBox="0 0 64 64" enable-background="new 0 0 64 64" xml:space="preserve">
<g>
	<g>
		<polygon fill="#FED0AC" points="29.93,18.528 32.263,17.893 34.651,26.416 28.647,28.054 		"/>
		<g>
			<path fill="#E0A372" d="M29.857,18.35c1.073,3.828,0.788,5.993-2.004,6.754l0.794,2.95c3.298-0.899,3.512-5.323,2.26-9.792
				L29.857,18.35z"/>
		</g>
		<g>
			<path fill="#FED0AC" d="M28.21,4.676l-11.979,7.652c-0.751,3.141,0.687,4.303,0.962,5.494c0.123,0.529-0.687,1.781-1.118,2.438
				c-0.961,1.463,1.426,1.783,2.178,1.401c0.834,1.035,0.104,1.579,2.014,0.875c1.049-0.389,2.229-1.767,2.229-1.767
				c-3.921,4.238-2.353,5.115-0.54,4.072c0.695,2.482,2.258,2.057,5.682,1.123c2.791-0.76,4.342-3.875,3.27-7.703l3.561-1.663
				L28.21,4.676z"/>
			<path fill="#DBB471" d="M22.257,2.531c9.682-2.641,13.221,5.124,13.453,11.114c0.123,3.188-0.947,5.532-2.596,6.862l-1.115-0.344
				l-1.092-1.902c0,0,1.771-0.952,1.734-3.236c-0.018-1.045-1.529-2.635-3.008-2.318c-1.033,0.223-2.287,1.365-2.533,1.678
				c-0.694-2.477-0.902-5.18-2.82-5.45c-1.576-0.222-6.865,4.122-8.049,3.394C13.054,10.384,16.426,4.12,22.257,2.531z"/>
			<path fill="#664E27" d="M29.792,15.268c-0.188,0.025-0.359,0.1-0.498,0.208c0.033-0.198,0.088-0.394,0.153-0.597
				c0.083-0.25,0.196-0.492,0.296-0.77c-0.505,0.292-0.884,0.816-0.974,1.432c-0.085,0.622,0.19,1.232,0.62,1.615
				c-0.032-0.295-0.103-0.558-0.127-0.813c-0.014-0.164-0.018-0.32-0.012-0.476c0.073-0.017,0.143-0.034,0.211-0.046
				c0.144-0.021,0.266-0.053,0.394-0.064c0.128-0.021,0.255-0.021,0.401-0.038c0.145-0.013,0.296-0.006,0.487-0.034
				C30.552,15.382,30.167,15.225,29.792,15.268z"/>
			<path fill="#664E27" d="M20.254,16.531c0.222,0.792-0.064,1.563-0.64,1.719c-0.574,0.156-1.221-0.359-1.443-1.151
				s0.063-1.563,0.639-1.72S20.031,15.738,20.254,16.531z"/>
			<path fill="#664E27" d="M22.496,20.77c0,0-0.931,2.624-1.237,3.039c-0.652,0.889-1.059,0.532-0.805-0.134
				C20.717,22.99,22.496,20.77,22.496,20.77z"/>
		</g>
	</g>
	<g>
		<path fill="#D3976E" d="M49.767,54.248c-0.357,1.784,0.84,3.512,2.67,3.859l1.533-7.674c0.18-0.891-0.42-1.756-1.336-1.93
			l-1.657-0.313L49.767,54.248z"/>
		<path fill="#D3976E" d="M17.454,57.875c-1.831-0.35-3.607,0.816-3.963,2.6l7.879,1.495c0.914,0.173,1.803-0.409,1.98-1.304
			l0.323-1.612L17.454,57.875z"/>
		<g>
			<path fill="#3B946F" d="M47.604,31.895l-3.048-6.213c-0.364-0.736-1.199-1.103-1.99-0.964l-0.001-0.009l-6.894,0.245
				c-1.006,0.03-1.791,0.848-1.758,1.825c0.033,0.977,0.878,1.745,1.881,1.713l6.009-0.215l2.521,5.136L47.604,31.895z"/>
			<g>
				<path fill="#FED0AC" d="M45.842,32.207l-1.673,0.594c-0.595,0.212-0.9,0.854-0.68,1.434l0.295,0.785
					c0.158,0.417,0.541,0.688,0.967,0.73c0.471,1.018,1.377,2.249,3.373,1.537c0.33-0.118,2.157-0.768,1.363-2.869
					C48.317,31.324,48.317,31.324,45.842,32.207z"/>
				<g>
					<path fill="#E0A372" d="M45.22,35.755c1.411-0.566,0.662-1.977,0.305-2.995c-0.054-0.151-0.295-0.086-0.242,0.066
						c0.295,0.84,1.072,2.206-0.129,2.688C45.006,35.573,45.069,35.815,45.22,35.755L45.22,35.755z"/>
				</g>
			</g>
		</g>
		<polygon fill="#3E4347" points="42.311,46.547 39.013,41.585 39.013,41.579 27.397,41.579 19.62,46.842 17.418,57.867 
			23.674,59.054 25.374,50.549 32.145,46.104 34.26,46.104 38.439,52.141 49.757,54.285 50.977,48.191 		"/>
		<g>
			<path fill="#47B892" d="M39.009,41.579l-3.601-16.601l-8.986,1.648c-0.389,0.057-0.764,0.23-1.054,0.532l-4.084,4.287
				l-5.508-1.903l-1.209,3.335l6.662,2.304c0.79,0.27,1.646-0.044,2.104-0.687l0.008,0.007l3.271-3.435l0.786,10.512H39.009z"/>
			<g>
				<path fill="#FED0AC" d="M15.584,31.442l0.747-1.571c0.265-0.561,0.014-1.228-0.561-1.484l-0.779-0.354
					c-0.413-0.188-0.883-0.113-1.213,0.147c-1.072-0.398-2.606-0.646-3.496,1.234c-0.147,0.31-0.964,2.027,1.122,2.97
					C14.477,33.774,14.477,33.774,15.584,31.442z"/>
			</g>
		</g>
	</g>
</g>
</svg>
