<?xml version="1.0" encoding="utf-8"?>
<!-- Generator: Adobe Illustrator 15.0.0, SVG Export Plug-In . SVG Version: 6.00 Build 0)  -->
<!DOCTYPE svg PUBLIC "-//W3C//DTD SVG 1.1//EN" "http://www.w3.org/Graphics/SVG/1.1/DTD/svg11.dtd">
<svg version="1.1" id="Layer_1" xmlns="http://www.w3.org/2000/svg" xmlns:xlink="http://www.w3.org/1999/xlink" x="0px" y="0px"
	 width="64px" height="64px" viewBox="0 0 64 64" enable-background="new 0 0 64 64" xml:space="preserve">
<g>
	<g>
		<g>
			<path fill="#B47D56" d="M14.393,7.459v3.824c0,1.363-1.102,2.477-2.457,2.482l-1.84,0.015c-0.977,0.007-1.822-0.558-2.221-1.38
				c-2.455-0.156-5.666-1.026-5.662-5.599c0-0.753-0.004-4.935,4.92-4.965C14.389,1.787,14.389,1.787,14.393,7.459z"/>
			<g>
				<g>
					<path fill="#935E3E" d="M7.91,11.438c0.113-2.94,3.527-2.456,5.588-2.518c0.16-0.005,0.16-0.255,0-0.25
						c-2.236,0.066-5.715-0.4-5.838,2.768C7.654,11.599,7.904,11.599,7.91,11.438L7.91,11.438z"/>
				</g>
			</g>
		</g>
		<path fill="#B47D56" d="M36.287,10.263c-0.395-1.7,0.668-3.38,2.373-3.755l0,0c1.709-0.373,3.408,0.703,3.803,2.404l6.42,27.719
			c0.393,1.7-0.67,3.379-2.375,3.756l0,0c-1.711,0.373-3.408-0.705-3.803-2.405L36.287,10.263z"/>
		<g>
			<path fill="#B47D56" d="M13.08,10.607c-1.74-0.143-3.02-1.664-2.855-3.404l0,0c0.162-1.74,1.705-3.032,3.447-2.891L39.6,6.413
				c1.738,0.144,3.016,1.665,2.854,3.405l0,0c-0.164,1.74-1.707,3.031-3.447,2.89L13.08,10.607z"/>
		</g>
		<path fill="#B47D56" d="M63.004,45.045L46.105,60.504C39.295,44.746,35.361,43.17,35.361,43.17l5.676-14.067
			C41.037,29.103,45.379,27.016,63.004,45.045z"/>
		<path fill="#935E3E" d="M26.572,46.621c9.291,8.486,21.842-10.388,12.625-23.786L26.572,46.621z"/>
		<g>
			<circle fill="#B47D56" cx="26.114" cy="30.09" r="14.956"/>
			<path fill="#F15744" d="M25.17,29.146c4.072-4.072,8.629-6.889,12.762-8.205c-0.383-0.492-0.789-0.975-1.242-1.428
				c-5.84-5.841-15.309-5.841-21.15,0c-5.842,5.84-5.842,15.311,0,21.152c0.453,0.453,0.934,0.857,1.428,1.24
				C18.283,37.773,21.102,33.217,25.17,29.146z"/>
			<g>
				<path fill="#413735" d="M27.971,33.981c-0.664-1.485-3.014-1.874-5.246-0.872c-2.227,1-3.494,3.018-2.832,4.502
					c0.664,1.486,3.012,1.879,5.238,0.877C27.363,37.486,28.639,35.467,27.971,33.981z"/>
				<g>
					<path fill="#413735" d="M30.008,31.945c-1.486-0.664-1.875-3.014-0.873-5.248c1-2.224,3.018-3.494,4.502-2.83
						c1.486,0.664,1.879,3.012,0.877,5.237C33.512,31.338,31.49,32.613,30.008,31.945z"/>
					<polygon fill="#413735" points="27.227,34.435 30.461,31.202 29.656,30.545 26.572,33.63 					"/>
				</g>
			</g>
			<path fill="#935E3E" d="M29.508,35.244c0.488,0.488,1.273,0.488,1.762-0.001c0.488-0.487,0.488-1.272,0-1.763L29.508,35.244z"/>
			<path fill="#47352D" d="M36.227,36.07c0.789,0.789-0.375,1.475-1.516,2.615s-1.824,2.307-2.617,1.516
				c-0.789-0.793-0.506-2.357,0.635-3.498C33.869,35.562,35.434,35.278,36.227,36.07z"/>
		</g>
		<path fill="#935E3E" d="M47.182,35.151c0-0.589,0.094-1.151,0.26-1.671c-1.055,0.512-1.801,1.756-1.801,3.211
			c0,1.912,1.285,3.463,2.869,3.463c0.547,0,1.059-0.189,1.494-0.51C48.375,39.092,47.182,37.293,47.182,35.151z"/>
	</g>
	<g>
		<path fill="#42ADE2" d="M59.432,43.57c-1.152,0-2.193-0.439-2.996-1.145c-0.957-0.838-1.574-2.053-1.574-3.426
			c0,2.525-2.047,4.57-4.572,4.57s-4.57-2.045-4.57-4.57c0,2.525-2.047,4.57-4.572,4.57s-4.572-2.045-4.572-4.57
			c0,2.525-2.045,4.57-4.57,4.57s-4.572-2.045-4.572-4.57c0,2.525-2.045,4.57-4.57,4.57s-4.572-2.045-4.572-4.57
			c0,2.525-2.047,4.57-4.57,4.57c-2.525,0-4.572-2.045-4.572-4.57c0,1.373-0.615,2.588-1.572,3.426
			c-0.805,0.703-1.846,1.145-3,1.145c-2.523,0-4.57-2.045-4.57-4.57v25h64V39C64.004,41.525,61.957,43.57,59.432,43.57z"/>
		<path fill="#428BC1" d="M23.221,57.504c-1.646,0.199-3.469,0.096-5.035-0.426c-2.041-0.623-3.855-1.736-5.984-2.123
			c-2.863-0.5-5.994-0.053-8.672,1.055c3.496-0.199,6.844-0.539,10.199,0.697C16.713,57.805,20.104,58.965,23.221,57.504
			L23.221,57.504z"/>
		<path fill="#428BC1" d="M35.639,49.563c-1.496,0.178-3.67,0.254-5.033-0.428c-2.045-0.613-3.857-1.744-5.988-2.123
			c-2.838-0.49-6.02-0.076-8.668,1.057c3.484-0.227,6.855-0.537,10.197,0.697C29.117,49.861,32.535,51.029,35.639,49.563
			L35.639,49.563z"/>
		<path fill="#428BC1" d="M48.057,57.504c-1.492,0.184-3.672,0.254-5.031-0.426c-2.045-0.615-3.857-1.744-5.988-2.123
			c-2.859-0.502-5.996-0.053-8.67,1.055c3.494-0.201,6.846-0.541,10.199,0.697C41.543,57.805,44.947,58.969,48.057,57.504
			L48.057,57.504z"/>
		<path fill="#428BC1" d="M60.477,49.563c-1.496,0.178-3.67,0.254-5.033-0.428c-2.045-0.611-3.855-1.74-5.986-2.123
			c-2.844-0.49-6.018-0.074-8.672,1.057c3.484-0.227,6.857-0.535,10.199,0.697C53.965,49.861,57.361,51.023,60.477,49.563
			L60.477,49.563z"/>
	</g>
</g>
</svg>
