<?xml version="1.0" encoding="utf-8"?>
<!-- Generator: Adobe Illustrator 15.0.0, SVG Export Plug-In . SVG Version: 6.00 Build 0)  -->
<!DOCTYPE svg PUBLIC "-//W3C//DTD SVG 1.1//EN" "http://www.w3.org/Graphics/SVG/1.1/DTD/svg11.dtd">
<svg version="1.1" id="Layer_1" xmlns="http://www.w3.org/2000/svg" xmlns:xlink="http://www.w3.org/1999/xlink" x="0px" y="0px"
	 width="64px" height="64px" viewBox="0 0 64 64" enable-background="new 0 0 64 64" xml:space="preserve">
<g>
	<path fill="#594640" d="M22.522,16.163c0,1.705,0,6.91,0,6.91h18.946c0,0,0-5.205,0-6.91C41.469,7.228,22.522,7.228,22.522,16.163z
		"/>
	<path fill="#D6A57C" d="M39.841,20.365c-0.418-8.132-2.604-3.739-7.847-3.739c-5.236,0-7.425-4.393-7.838,3.739
		c0,0-2.278-1.571-2.278,1.525c0,1.183,0.436,2.152,1.904,2.254c0.546,4.192,2.974,5.472,6.598,5.726v0.856
		c0,0.519-0.351,0.938-0.819,1.074h-4.845L24.713,42.85c0,0,2.514,1.408,7.287,1.408c4.767,0,7.284-1.408,7.284-1.408l0.002-11.049
		h-4.854c-0.469-0.137-0.82-0.556-0.82-1.074V29.87c3.625-0.254,6.057-1.533,6.6-5.726c1.47-0.102,1.904-1.071,1.904-2.254
		C42.115,18.794,39.841,20.365,39.841,20.365z"/>
	<g>
		<path fill="#D6A57C" d="M49.234,9.403c-1.657-0.486-2.328,0.599-2.653,1.482c-0.343,0.057-0.642,0.307-0.744,0.666l-0.197,0.677
			c-0.146,0.5,0.136,1.023,0.63,1.167l0.08,0.023l-2.693,10.928l2.892,0.65l2.673-10.879c0.6-0.068,0.78-0.683,1.276-2.381
			C51.024,9.927,49.509,9.483,49.234,9.403z"/>
		<path fill="#D6A57C" d="M17.729,13.396c0.494-0.144,0.776-0.667,0.63-1.167l-0.197-0.677c-0.103-0.359-0.401-0.609-0.743-0.666
			c-0.326-0.884-0.995-1.969-2.652-1.482c-0.274,0.08-1.79,0.523-1.263,2.334c0.494,1.698,0.677,2.313,1.274,2.381l2.673,10.879
			l2.892-0.65l-2.693-10.928L17.729,13.396z"/>
	</g>
	<g>
		<path fill="#594640" d="M28.202,25.072c0,1.391,1.697,2.557,3.794,2.557c2.095,0,3.794-1.166,3.794-2.557
			c0,0-2.018,0.124-3.794,0.124C30.221,25.196,28.202,25.072,28.202,25.072z"/>
	</g>
	<g>
		<g>
			<ellipse fill="#594640" cx="35.654" cy="20.729" rx="1.264" ry="1.28"/>
		</g>
		<g>
			<path fill="#594640" d="M27.072,20.729c0,0.706,0.566,1.28,1.266,1.28c0.695,0,1.266-0.574,1.266-1.28
				c0-0.707-0.57-1.277-1.266-1.277C27.639,19.452,27.072,20.022,27.072,20.729z"/>
		</g>
	</g>
	<path fill="#B58360" d="M31.154,23.146c0,0.471,0.375,0.851,0.842,0.851s0.843-0.38,0.843-0.851H31.154z"/>
	<path fill="#94989B" d="M5.484,15.376v-1.789c0,0,8.771-4.491,26.507-4.491c17.739,0,26.515,4.491,26.515,4.491v1.789
		c0,0-8.775-4.492-26.515-4.492C14.255,10.884,5.484,15.376,5.484,15.376z"/>
	<g>
		<path fill="#D6A57C" d="M46.868,11.4c0.071-0.271-0.084-0.547-0.345-0.615c-0.262-0.069-0.532,0.096-0.604,0.367l0,0l-0.305,1.16
			l0.949,0.247L46.868,11.4L46.868,11.4z"/>
		<g>
			<path fill="#B58360" d="M46.582,11.149c0.077,0.14,0.131,0.242,0.134,0.395c0.008,0.144-0.03,0.281-0.067,0.421
				c-0.063,0.229-0.123,0.456-0.184,0.686c-0.047,0.175,0.224,0.246,0.27,0.07c0.063-0.234,0.127-0.469,0.188-0.703
				c0.044-0.163,0.081-0.327,0.071-0.496c-0.007-0.188-0.082-0.352-0.17-0.514C46.74,10.85,46.498,10.992,46.582,11.149
				L46.582,11.149z"/>
		</g>
	</g>
	<g>
		<path fill="#D6A57C" d="M17.13,11.4c-0.071-0.271,0.084-0.547,0.345-0.615c0.262-0.069,0.532,0.096,0.604,0.367l0,0l0.305,1.16
			l-0.949,0.247L17.13,11.4L17.13,11.4z"/>
		<g>
			<path fill="#B58360" d="M17.416,11.149c-0.077,0.14-0.131,0.242-0.134,0.395c-0.008,0.144,0.031,0.281,0.067,0.421
				c0.063,0.229,0.123,0.456,0.184,0.686c0.047,0.175-0.224,0.246-0.27,0.07c-0.063-0.234-0.126-0.469-0.188-0.703
				c-0.044-0.163-0.081-0.327-0.071-0.496c0.007-0.188,0.082-0.352,0.17-0.514C17.258,10.85,17.5,10.992,17.416,11.149
				L17.416,11.149z"/>
		</g>
	</g>
	<g>
		<polygon fill="#428BC1" points="24.713,42.421 24.713,43.977 24.713,42.421 		"/>
	</g>
	<g>
		<g>
			<g>
				<polygon fill="#3E4347" points="56.888,21.975 53.169,20.606 58.283,6.4 62,7.768 				"/>
			</g>
			<g>
				<polygon fill="#3E4347" points="52.793,23.561 47.648,21.665 54.727,2 59.874,3.894 				"/>
			</g>
		</g>
		<g>
			<g>
				<polygon fill="#3E4347" points="7.114,21.975 10.833,20.606 5.719,6.4 2,7.768 				"/>
			</g>
			<g>
				<polygon fill="#3E4347" points="11.207,23.561 16.354,21.665 9.274,2 4.128,3.894 				"/>
			</g>
		</g>
	</g>
	<path fill="#47B892" d="M46.548,24.997l-2.756-1.24l-5.627,8.044h-2.932c-0.362,1.465-1.672,2.553-3.233,2.553
		s-2.875-1.088-3.235-2.553h-2.932l-5.627-8.044l-2.756,1.24l7.266,10.348l-0.003,8.632c0,0,2.514,1.408,7.287,1.408
		c4.767,0,7.284-1.408,7.284-1.408l0.002-8.635L46.548,24.997z"/>
	<g>
		<path fill="#D3976E" d="M20.197,59.287c-1.375,0-2.49,1.209-2.49,2.701V62h7.006v-2.713H20.197z"/>
		<path fill="#D3976E" d="M43.801,59.287c1.377,0,2.49,1.209,2.49,2.701V62h-7.005v-2.713H43.801z"/>
		<g>
			<polygon fill="#F2B200" points="24.713,41.898 24.713,43.568 24.713,41.898 			"/>
			<path fill="#3E4347" d="M41.651,48.285l-2.392-1.796h0.026l-0.002-2.921c0,0-2.518,1.51-7.284,1.51
				c-4.773,0-7.287-1.51-7.287-1.51v2.921h0.025l-2.39,1.796c-1.531,1.161-2.143,2.248-2.143,3.532c0,1.648,0,7.47,0,7.47h4.507
				v-5.918l3.817-3.009h0.025c0.478-0.417,1.088-0.668,1.751-0.668c0,0,2.539,0,3.385,0c0.866,0,1.892,0.78,1.892,0.78l3.703,2.896
				v5.918h4.506c0,0,0-5.821,0-7.47C43.792,50.533,43.181,49.446,41.651,48.285z"/>
		</g>
	</g>
</g>
</svg>
