<?xml version="1.0" encoding="utf-8"?>
<!-- Generator: Adobe Illustrator 15.0.0, SVG Export Plug-In . SVG Version: 6.00 Build 0)  -->
<!DOCTYPE svg PUBLIC "-//W3C//DTD SVG 1.1//EN" "http://www.w3.org/Graphics/SVG/1.1/DTD/svg11.dtd">
<svg version="1.1" id="Layer_1" xmlns="http://www.w3.org/2000/svg" xmlns:xlink="http://www.w3.org/1999/xlink" x="0px" y="0px"
	 width="64px" height="64px" viewBox="0 0 64 64" enable-background="new 0 0 64 64" xml:space="preserve">
<g>
	<g>
		<g>
			<path fill="#F7931E" d="M29.094,23.596c-0.937,0.085-1.64,0.901-1.566,1.818l0.523,6.301l3.398-0.316l-0.525-6.3
				C30.854,24.18,30.034,23.508,29.094,23.596z"/>
			<path fill="#F7931E" d="M31.286,30.979c-0.443-0.804-1.46-1.07-2.289-0.619l-5.844,3.151l1.599,2.915l5.845-3.148
				C31.425,32.827,31.73,31.783,31.286,30.979z"/>
		</g>
		<g>
			<path fill="#CEA284" d="M24.377,34.829l-0.642-1.496c-0.229-0.533-0.86-0.776-1.406-0.542l-0.743,0.316
				c-0.394,0.168-0.638,0.535-0.661,0.927c-0.96,0.489-2.105,1.392-1.335,3.18c0.125,0.294,0.827,1.93,2.813,1.082
				C25.33,37.048,25.33,37.048,24.377,34.829z"/>
		</g>
	</g>
	<g>
		<path fill="#E6E6E6" d="M56.97,35.201L40.816,45.447l0.877,1.23l16.9-8.132C58.649,37.255,58.068,35.992,56.97,35.201z"/>
		<path fill="#3E4347" d="M40.059,44.656l4.811-2.344c0,0,2.354,1.978,0.725,3.281c-2.344,1.875-2.344,3.173-2.344,3.173h-3.191
			V44.656z"/>
		<circle fill="#FFFFFF" cx="11.375" cy="52.625" r="7.5"/>
		<polygon fill="#3E4347" points="10.906,45.594 10.438,52.625 10.979,59.656 11.844,59.656 12.313,52.625 11.844,45.594 		"/>
		<path fill="#3E4347" d="M11.375,43.25C6.197,43.25,2,47.447,2,52.625C2,57.805,6.197,62,11.375,62
			c5.177,0,9.375-4.195,9.375-9.375C20.75,47.447,16.552,43.25,11.375,43.25z M11.375,59.188c-3.625,0-6.563-2.937-6.563-6.563
			c0-3.625,2.938-6.563,6.563-6.563c3.624,0,6.563,2.938,6.563,6.563C17.938,56.251,14.999,59.188,11.375,59.188z"/>
		<polygon fill="#3E4347" points="18.407,52.156 11.375,51.688 4.344,52.229 4.344,53.094 11.375,53.563 18.407,53.094 		"/>
		<polygon fill="#3E4347" points="17.698,55.734 11.843,51.813 5.482,48.767 5.051,49.516 10.905,53.438 17.229,56.547 		"/>
		<polygon fill="#3E4347" points="8.265,58.949 12.186,53.094 15.231,46.734 14.484,46.303 10.562,52.156 7.453,58.48 		"/>
		<polygon fill="#3E4347" points="5.52,56.547 11.844,53.438 17.662,49.452 17.229,48.705 10.905,51.813 5.051,55.736 		"/>
		<polygon fill="#3E4347" points="7.453,46.771 10.563,53.094 14.547,58.913 15.296,58.48 12.186,52.156 8.265,46.303 		"/>
		<path fill="#E6E6E6" d="M11.375,47.938c-2.589,0-4.688,2.097-4.688,4.688s2.099,4.688,4.688,4.688
			c2.588,0,4.688-2.097,4.688-4.688S13.963,47.938,11.375,47.938z M11.375,55.438c-1.554,0-2.813-1.258-2.813-2.813
			s1.259-2.813,2.813-2.813c1.553,0,2.813,1.258,2.813,2.813S12.928,55.438,11.375,55.438z"/>
		<circle fill="#FFFFFF" cx="52.625" cy="52.625" r="6.563"/>
		<polygon fill="#94989B" points="35.75,42.082 35.75,48.4 52.188,55.32 53.985,50.274 		"/>
		<path fill="#3E4347" d="M52.625,43.25c-5.178,0-9.375,4.197-9.375,9.375c0,5.18,4.197,9.375,9.375,9.375S62,57.805,62,52.625
			C62,47.447,57.803,43.25,52.625,43.25z M52.625,59.188c-3.625,0-6.563-2.937-6.563-6.563c0-3.625,2.938-6.563,6.563-6.563
			c3.624,0,6.563,2.938,6.563,6.563C59.188,56.251,56.249,59.188,52.625,59.188z"/>
		<path fill="#94989B" d="M13.895,35.691v6.563H28.43c0,0,0.429-1.752,0-2.02C21.163,35.691,13.895,35.691,13.895,35.691z"/>
		<polygon fill="#3E4347" points="28.43,40.314 51.688,34.754 51.688,38.326 32.15,47.938 		"/>
		<path fill="#94989B" d="M48.662,34.695c0,0-0.98-0.621-3.068-0.094s-9.375,1.91-9.375,1.91l1.348,1.862l10.371-2.448
			L48.662,34.695z"/>
		<path fill="#ED4C5C" d="M28.89,40.438c-0.553,0.069-1.011-0.368-1.011-0.842V38.1c0-0.473,0.461-0.885,0.981-1.069
			c1.532-0.546,4.374-1.751,5.881-2.188c0.529-0.154,1.208,0.127,1.486,0.536l1.845,2.23c0.277,0.41,0.118,0.564-0.506,0.766
			C37.566,38.374,31.102,40.157,28.89,40.438z"/>
		<polygon fill="#94989B" points="11.375,52.625 11.375,53.31 19.681,41.43 19.667,39.5 17.158,39.5 10.751,52.625 		"/>
		<path fill="#94989B" d="M13.25,52.625c0,1.036-0.84,1.875-1.875,1.875c-1.036,0-1.875-0.839-1.875-1.875
			c0-1.032,0.839-1.875,1.875-1.875C12.41,50.75,13.25,51.593,13.25,52.625z"/>
		<path fill="#C94747" d="M19.414,46.174c-1.89-2.353-4.786-3.861-8.039-3.861c-2.486,0-4.766,0.881-6.547,2.346L19.414,46.174z"/>
		<polygon fill="#3E4347" points="52.156,45.594 51.688,52.625 52.229,59.656 53.094,59.656 53.563,52.625 53.094,45.594 		"/>
		<polygon fill="#3E4347" points="59.656,52.156 52.625,51.688 45.594,52.229 45.594,53.094 52.625,53.563 59.656,53.094 		"/>
		<polygon fill="#3E4347" points="58.947,55.734 53.094,51.813 46.732,48.767 46.301,49.516 52.156,53.438 58.479,56.547 		"/>
		<polygon fill="#3E4347" points="49.514,58.949 53.437,53.094 56.483,46.734 55.734,46.303 51.813,52.156 48.703,58.48 		"/>
		<polygon fill="#3E4347" points="46.77,56.547 53.094,53.438 58.911,49.452 58.479,48.705 52.156,51.813 46.301,55.736 		"/>
		<polygon fill="#3E4347" points="48.703,46.771 51.813,53.094 55.798,58.913 56.545,58.48 53.437,52.156 49.516,46.303 		"/>
		<path fill="#E6E6E6" d="M52.625,47.938c-2.589,0-4.688,2.097-4.688,4.688s2.099,4.688,4.688,4.688s4.688-2.097,4.688-4.688
			S55.214,47.938,52.625,47.938z M52.625,55.438c-1.553,0-2.813-1.258-2.813-2.813s1.26-2.813,2.813-2.813s2.813,1.258,2.813,2.813
			S54.178,55.438,52.625,55.438z"/>
		<path fill="#ED4C5C" d="M52.528,31.936c-6.466,1.896-3.067,4.122-7.659,6.447c-1.678,0.85-1.619,2.392-1.619,2.392
			s5.248-0.322,11.785-3.896c3.215-1.758,3.215-5.566,3.215-5.566C56.107,31.312,54.513,31.354,52.528,31.936z"/>
		<path fill="#CCCCCC" d="M39.5,46.885c0,2.071-1.679,3.748-3.75,3.748S32,48.956,32,46.885c0-2.073,1.678-3.752,3.75-3.752
			S39.5,44.812,39.5,46.885z"/>
		<circle fill="#94989B" cx="35.75" cy="46.883" r="1.875"/>
		<path fill="#ED4C5C" d="M41.798,47.718c-0.531-0.145-1.137-0.249-1.829-0.249c-1.915,0-1.316,2.344-4.043,2.344
			c-1.45,0-3.618-1.806-3.154-3.17c0.853-2.512,3.526-3.449-1.24-5.268c-5.949-2.267-14.822-3.281-16.406-3.281
			c-1.7,0-0.392-1.946,0-2.402c3.393-3.956,7.811-3.339,7.811-3.339l-1.412-1.289c-4.211,0-7.924,2.1-10.151,5.304
			c-0.874,1.256-2.289,3.141-1.543,3.649c2.015,1.373,8.111,5.42,8.111,5.42c0.035,0.023,2.368,1.574,2.809,2.384
			c0.857,1.578,0.956,8.002,0.956,8.002c0,0.71,0.491,1.388,1.375,1.311l18.367-2.547c-0.035-0.355-0.017-0.718-0.055-1.082
			C41.201,51.667,41.373,49.159,41.798,47.718z"/>
		<path fill="#C94747" d="M21.964,42.392c-0.441-0.332-0.802-0.232-0.802,0.222c0,0.452,0.359,1.095,0.796,1.432l4.144,3.166
			c0.439,0.337,1.249,0.609,1.8,0.609h0.278c0.551,0,0.643-0.271,0.202-0.603L21.964,42.392z"/>
		<path fill="#94989B" d="M54.5,52.625c0,1.036-0.841,1.875-1.875,1.875s-1.875-0.839-1.875-1.875c0-1.032,0.841-1.875,1.875-1.875
			S54.5,51.593,54.5,52.625z"/>
		<circle fill="#3E4347" cx="18.875" cy="36.382" r="1.875"/>
		<circle fill="#94989B" cx="18.875" cy="36.382" r="0.938"/>
		<path fill="#C94747" d="M11.375,38.973h2.52c0,0,0.85-0.029,0.85,0.352s-1.685,1.641-1.685,1.641S9.621,39.207,11.375,38.973z"/>
		<path fill="#E6E6E6" d="M14.745,39.324c0-0.381-0.85-0.352-0.85-0.352h-1.084c0,0-0.908,0.996,0.249,1.992
			C13.06,40.965,14.745,39.705,14.745,39.324z"/>
		<path fill="#3E4347" d="M26.766,50.979c-0.465,0.273-0.929,0.891-1.029,1.368l-0.19,0.908c-0.101,0.479,0.007,1.046,0.24,1.258
			c0.233,0.213,0.546,0,0.696-0.471l0.859-2.704C27.491,50.867,27.232,50.704,26.766,50.979z"/>
		<path fill="#3E4347" d="M38.883,49.946c-0.465,0.272-0.93,0.89-1.029,1.368l-0.191,0.908c-0.1,0.479,0.009,1.045,0.241,1.258
			c0.232,0.212,0.546,0.002,0.696-0.471l0.858-2.705C39.608,49.835,39.348,49.672,38.883,49.946z"/>
	</g>
	<g>
		<path fill="#D3976E" d="M30.076,47.992c-1.897-0.478-3.801,0.636-4.25,2.482l8.16,2.052c0.949,0.236,1.901-0.318,2.124-1.245
			l0.409-1.67L30.076,47.992z"/>
		<path fill="#FBB03B" d="M48.002,28.405l-12.131,5.321l-10.193-9.058c0,0,4.631-4.708,6.081-4.749
			C39.802,19.689,48.002,28.405,48.002,28.405z"/>
		<path fill="#3E4347" d="M48.002,28.405l-12.406,5.034l-1.386,0.779l-3.488,13.936l5.797,1.457l3.403-11.217
			c0,0,5.55-2.354,7.075-3.628C48.266,33.709,49.936,31.242,48.002,28.405z"/>
		<g>
			<g>
				<path fill="#FBB03B" d="M27.185,22.923c-0.936,0.085-1.639,0.9-1.565,1.818l0.524,6.301l3.398-0.316l-0.526-6.3
					C28.945,23.507,28.125,22.835,27.185,22.923z"/>
				<path fill="#FBB03B" d="M29.376,30.306c-0.443-0.804-1.459-1.07-2.289-0.619l-5.844,3.151l1.598,2.916l5.846-3.149
					C29.518,32.154,29.821,31.11,29.376,30.306z"/>
			</g>
			<g>
				<path fill="#FED0AC" d="M22.468,34.156l-0.641-1.496c-0.231-0.533-0.861-0.776-1.406-0.542l-0.744,0.315
					c-0.394,0.168-0.639,0.536-0.662,0.928c-0.96,0.489-2.106,1.391-1.336,3.179c0.126,0.295,0.828,1.93,2.814,1.082
					C23.421,36.376,23.421,36.376,22.468,34.156z"/>
			</g>
		</g>
	</g>
	<path fill="#ED4C5C" d="M37.341,13.477c0,6.338-1.769,6.121-11.476,11.477c-3.238,1.786-7.67,1.761-9.832-5.629
		c-0.688-2.352-1.644-3.208-1.644-5.848C14.389,7.138,19.526,2,25.865,2C32.204,2,37.341,7.138,37.341,13.477z"/>
	<path fill="#3E4347" d="M28.461,13.185c0.678,1.862-7.539,6.563-12.548,8.386c-1.243,0.453-3.699-6.292-2.454-6.745
		C18.467,13.003,27.784,11.322,28.461,13.185z"/>
	<circle fill="#94989B" cx="28.25" cy="12.892" r="1.994"/>
</g>
</svg>
