<?xml version="1.0" encoding="utf-8"?>
<!-- Generator: Adobe Illustrator 15.0.0, SVG Export Plug-In . SVG Version: 6.00 Build 0)  -->
<!DOCTYPE svg PUBLIC "-//W3C//DTD SVG 1.1//EN" "http://www.w3.org/Graphics/SVG/1.1/DTD/svg11.dtd">
<svg version="1.1" id="Layer_1" xmlns="http://www.w3.org/2000/svg" xmlns:xlink="http://www.w3.org/1999/xlink" x="0px" y="0px"
	 width="64px" height="64px" viewBox="0 0 64 64" enable-background="new 0 0 64 64" xml:space="preserve">
<g>
	<g>
		<g>
			<path fill="#ED4C5C" d="M52.417,2.281c-2.742-0.378-6.753-0.435-11.336,0.211L2.491,41.082c-0.646,4.581-0.589,8.592-0.21,11.334
				l9.301,9.303c2.743,0.379,6.753,0.436,11.336-0.211l38.59-38.589c0.646-4.582,0.589-8.592,0.211-11.334L52.417,2.281z"/>
			<path fill="#E8E8E8" d="M22.917,61.506c8.215-1.157,18.266-4.576,26.143-12.449c7.873-7.875,11.292-17.926,12.449-26.14
				c0.244-1.733-3,1.871-3.587,3.515c-2.263,6.33-6.058,13.307-12.12,19.369c-6.063,6.061-13.041,9.857-19.371,12.118
				C24.787,58.506,21.182,61.75,22.917,61.506z"/>
		</g>
		<path fill="#E8E8E8" d="M41.083,2.493C32.869,3.652,22.817,7.067,14.94,14.941C7.065,22.817,3.648,32.869,2.491,41.082
			c-0.245,1.734,3-1.869,3.587-3.514c2.262-6.329,6.057-13.306,12.119-19.369c6.063-6.063,13.04-9.855,19.371-12.118
			C39.213,5.494,42.816,2.249,41.083,2.493z"/>
		<path fill="#3E4347" d="M59.093,4.908c-1.648-1.646-3.973-2.622-6.676-2.627c-1.48-0.204-8.51,1.662-10.068,2.333
			c-7.42,1.909-16.511,5.947-24.151,13.585C10.562,25.837,6.522,34.925,4.614,42.343c-0.667,1.542-2.539,8.589-2.333,10.073
			c0.002,2.703,0.976,5.025,2.626,6.675c0,0,0,0,0.001,0.001c1.649,1.648,3.973,2.621,6.674,2.625
			c1.483,0.203,8.522-1.662,10.071-2.332c7.421-1.908,16.512-5.947,24.149-13.584c7.641-7.64,11.679-16.73,13.586-24.15
			c0.67-1.558,2.536-8.588,2.332-10.068c-0.004-2.704-0.977-5.025-2.625-6.673C59.093,4.909,59.093,4.909,59.093,4.908z"/>
		<path fill="#ED4C5C" d="M54.833,15.725c0.198-4.015-2.545-6.75-6.559-6.557c-5.646-0.497-18.733,1.236-28.303,10.805
			c-9.568,9.569-11.303,22.655-10.805,28.3c-0.199,4.014,2.545,6.755,6.559,6.558c5.646,0.498,18.735-1.236,28.303-10.804
			C53.598,34.457,55.333,21.371,54.833,15.725z"/>
		<path fill="#E8E8E8" d="M53.092,17.643c-0.052-3.871-2.866-6.679-6.735-6.735c-5.488-0.82-18.035,0.069-26.708,8.741
			c-8.675,8.673-9.562,21.218-8.741,26.707c0.049,3.869,2.867,6.685,6.735,6.735c5.49,0.821,18.036-0.067,26.709-8.741
			S53.913,23.13,53.092,17.643z"/>
	</g>
	<g>
		<path fill="#3E4347" d="M21.805,50.523c0.012-0.012,0.006-0.04-0.012-0.058l-4.152-4.153l-0.351,0.316
			c-0.248-0.248-0.521-0.521-0.754-0.767c0.217-0.216,0.52-0.52,0.771-0.77c0.182-0.182,1.227-1.228,1.361-1.361
			c0.239-0.239,0.444-0.443,0.578-0.578c0.536,0.489,1.084,1.001,1.616,1.511c-0.143,0.195-0.312,0.436-0.477,0.656l-0.766-0.58
			c-0.092-0.067-0.168-0.097-0.268-0.033c-0.099,0.064-0.304,0.198-0.666,0.561c-0.012,0.012-0.042,0.041-0.059,0.059l1.67,1.67
			c0.172-0.19,0.336-0.354,0.491-0.526c0.034-0.034,0.008-0.131-0.093-0.243l-0.291-0.361c0.178-0.196,0.379-0.38,0.558-0.54
			c0.276,0.288,0.594,0.605,0.912,0.924c0.313,0.324,0.631,0.643,0.86,0.872c-0.16,0.178-0.335,0.389-0.522,0.576l-0.376-0.331
			c-0.145-0.12-0.227-0.145-0.279-0.093c-0.173,0.154-0.345,0.311-0.514,0.48l1.563,1.563c0.168,0.168,0.234,0.153,0.497-0.109
			c0.234-0.234,0.354-0.406,0.409-0.514c0.03-0.086,0.017-0.158-0.058-0.279l-0.537-0.877c0.243-0.154,0.503-0.291,0.731-0.412
			c0.442,0.582,0.893,1.174,1.339,1.771c-0.298,0.297-1.113,1.094-1.924,1.906c-0.27,0.268-0.552,0.568-0.791,0.809
			c-0.248-0.248-0.508-0.519-0.745-0.758L21.805,50.523z"/>
		<path fill="#3E4347" d="M20.734,43.255c-0.247-0.247-0.541-0.554-0.782-0.806c0.408-0.41,1.016-1.018,1.459-1.461
			c0.883,0.531,2.987,1.854,4.434,2.775l0.047-0.047c-0.904-1.465-1.99-3.204-2.758-4.451c0.408-0.408,0.964-0.963,1.355-1.354
			c0.247,0.248,0.533,0.545,0.783,0.808l-0.26,0.313c-0.012,0.012,0,0.035,0.027,0.062c1.254,1.254,2.779,2.768,4.11,4.087
			l0.347-0.295c0.23,0.23,0.505,0.504,0.737,0.748c-0.193,0.193-0.479,0.479-0.701,0.701c-0.28,0.28-0.606,0.606-0.853,0.852
			c-0.238-0.238-0.513-0.512-0.736-0.748l0.307-0.358c0.012-0.012,0-0.036-0.018-0.052c-0.934-0.924-1.92-1.898-2.992-2.946
			l-0.047,0.048c1.182,1.893,1.946,3.264,2.537,4.334c-0.072,0.091-0.309,0.346-0.49,0.526c-1.231-0.694-2.528-1.466-4.444-2.694
			l-0.053,0.055c1.075,1.098,2.069,2.116,3.075,3.143l0.438-0.367c0.229,0.23,0.504,0.504,0.736,0.748
			c-0.204,0.205-0.508,0.509-0.752,0.754c-0.211,0.21-0.404,0.402-0.597,0.596c-0.238-0.238-0.513-0.513-0.736-0.748l0.271-0.324
			c0.009-0.026,0.006-0.041-0.013-0.059c-1.258-1.269-2.844-2.881-4.084-4.131L20.734,43.255z"/>
		<path fill="#3E4347" d="M30.612,41.982c-0.897-0.197-1.771-0.72-2.707-1.656c-1.167-1.166-1.709-2.479-1.672-3.4
			c0.018-0.705,0.248-1.201,0.697-1.65c0.373-0.373,0.854-0.57,1.442-0.578c0.874-0.024,2.094,0.611,3.127,1.645
			c0.857,0.857,1.578,1.975,1.742,2.943c0.149,0.874-0.064,1.582-0.637,2.154C32.09,41.953,31.332,42.129,30.612,41.982z
			 M32.129,39.705c-0.207-0.605-0.776-1.326-1.519-2.067c-0.716-0.716-1.45-1.253-1.997-1.52c-0.455-0.233-0.816-0.208-1.032,0.008
			c-0.239,0.239-0.271,0.535-0.166,0.907c0.157,0.497,0.657,1.253,1.495,2.092c0.901,0.901,1.557,1.394,2.147,1.563
			c0.449,0.135,0.742,0.054,0.929-0.133C32.168,40.374,32.272,40.163,32.129,39.705z"/>
		<path fill="#3E4347" d="M32.404,31.516c-0.017,0.018,0,0.035,0.019,0.053c0.911,0.91,1.879,1.867,2.78,2.803
			c0.652,0.675,1.135,1.287,1.289,2.015c0.164,0.702,0.036,1.378-0.564,1.979c-0.328,0.328-0.572,0.502-0.859,0.647
			c-0.625-0.507-1.257-1.022-1.866-1.526c0.104-0.246,0.238-0.521,0.384-0.772l1.105,0.731c0.051,0.038,0.1,0.041,0.15,0.045
			c0.155,0.004,0.327-0.081,0.415-0.169c0.094-0.093,0.228-0.298,0.118-0.595c-0.137-0.358-0.525-0.747-0.923-1.145
			c-0.963-0.963-2.039-2.025-3.069-3.045l-0.646,0.592c-0.238-0.238-0.504-0.504-0.728-0.738c0.321-0.321,0.794-0.794,1.145-1.145
			c0.274-0.275,0.59-0.59,0.806-0.807c0.23,0.23,0.504,0.504,0.728,0.74L32.404,31.516z"/>
		<path fill="#3E4347" d="M33.122,30.764c-0.24-0.238-0.514-0.514-0.752-0.751c0.245-0.245,0.622-0.604,0.891-0.874
			c0.292-0.291,0.616-0.633,0.855-0.872c0.238,0.238,0.513,0.513,0.745,0.757l-0.335,0.389c-0.013,0.012,0.005,0.029,0.031,0.056
			l4.117,4.151l0.418-0.364c0.248,0.247,0.512,0.513,0.754,0.766c-0.238,0.239-0.593,0.575-0.891,0.872
			c-0.263,0.264-0.586,0.605-0.85,0.868c-0.247-0.248-0.512-0.513-0.754-0.766l0.313-0.365c0.012-0.012,0-0.035-0.018-0.054
			l-4.144-4.143L33.122,30.764z"/>
		<path fill="#3E4347" d="M40.191,32.404c-0.897-0.197-1.771-0.721-2.707-1.656c-1.167-1.167-1.708-2.479-1.673-3.398
			c0.019-0.708,0.248-1.203,0.697-1.652c0.374-0.373,0.854-0.571,1.443-0.577c0.874-0.025,2.094,0.61,3.127,1.643
			c0.857,0.857,1.576,1.975,1.74,2.942c0.15,0.875-0.064,1.584-0.637,2.156C41.669,32.375,40.911,32.551,40.191,32.404z
			 M41.709,30.126c-0.208-0.604-0.776-1.325-1.52-2.067c-0.715-0.715-1.45-1.252-1.997-1.518c-0.455-0.233-0.815-0.208-1.031,0.007
			c-0.24,0.239-0.271,0.535-0.166,0.907c0.157,0.496,0.656,1.252,1.494,2.092c0.902,0.901,1.558,1.393,2.148,1.563
			c0.449,0.135,0.741,0.053,0.929-0.133C41.747,30.795,41.852,30.584,41.709,30.126z"/>
		<path fill="#3E4347" d="M44.065,28.248c0.009-0.027,0.006-0.043-0.012-0.061l-4.158-4.145l-0.356,0.321
			c-0.247-0.248-0.512-0.512-0.745-0.757c0.328-0.328,0.783-0.783,1.121-1.121c1.407,0.519,3.834,1.485,5.511,2.158l0.029-0.029
			c-1.021-1.01-2.056-2.044-3.083-3.048l-0.439,0.402c-0.237-0.238-0.521-0.521-0.744-0.757c0.229-0.228,0.502-0.501,0.759-0.759
			c0.204-0.204,0.441-0.458,0.616-0.634c0.238,0.238,0.504,0.503,0.74,0.763l-0.23,0.284c-0.012,0.012-0.01,0.026,0.025,0.061
			l4.804,4.862c-0.028,0.206-0.246,0.583-0.538,0.875c-1.084-0.312-3.025-0.934-5.207-1.773l-0.041,0.042
			c0.896,0.906,1.744,1.754,2.611,2.635l0.459-0.404c0.24,0.238,0.507,0.518,0.749,0.771c-0.245,0.245-0.563,0.545-0.845,0.826
			c-0.187,0.187-0.375,0.394-0.539,0.558c-0.248-0.248-0.513-0.513-0.754-0.766L44.065,28.248z"/>
		<path fill="#3E4347" d="M48.325,24.007c0.01-0.012,0.005-0.042-0.013-0.06l-4.152-4.152l-0.351,0.316
			c-0.248-0.248-0.521-0.521-0.754-0.766c0.217-0.216,0.52-0.52,0.771-0.771c0.181-0.181,1.226-1.227,1.36-1.36
			c0.239-0.24,0.443-0.444,0.578-0.578c0.536,0.489,1.084,1.001,1.616,1.511c-0.144,0.195-0.312,0.435-0.478,0.655l-0.766-0.579
			c-0.09-0.068-0.167-0.098-0.267-0.033s-0.304,0.198-0.667,0.56c-0.011,0.012-0.04,0.041-0.058,0.059l1.669,1.67
			c0.174-0.19,0.336-0.354,0.492-0.526c0.034-0.036,0.008-0.131-0.094-0.244l-0.291-0.362c0.178-0.196,0.38-0.379,0.559-0.54
			c0.276,0.288,0.594,0.605,0.912,0.924c0.313,0.324,0.63,0.643,0.859,0.872c-0.16,0.179-0.334,0.389-0.521,0.576l-0.377-0.33
			c-0.145-0.121-0.227-0.146-0.278-0.093c-0.173,0.155-0.345,0.31-0.515,0.479l1.563,1.564c0.168,0.168,0.235,0.153,0.499-0.11
			c0.232-0.233,0.353-0.406,0.408-0.513c0.031-0.086,0.017-0.159-0.058-0.279l-0.538-0.876c0.244-0.154,0.504-0.291,0.732-0.414
			c0.442,0.583,0.893,1.174,1.338,1.771c-0.297,0.298-1.111,1.095-1.923,1.907c-0.27,0.268-0.552,0.569-0.792,0.809
			c-0.247-0.247-0.506-0.518-0.745-0.757L48.325,24.007z"/>
	</g>
	<g>
		<path fill-rule="evenodd" clip-rule="evenodd" fill="#3E4347" d="M29.12,27.789l-0.152,0.559
			c-0.115-0.043-0.244-0.021-0.332,0.066l-0.223,0.223c-0.088,0.087-0.108,0.217-0.064,0.332l-0.561,0.152l-1.341,0.363l0.977,0.977
			l0.978,0.977l0.363-1.34l0.152-0.561c0.114,0.043,0.244,0.022,0.332-0.064l0.223-0.223c0.088-0.088,0.108-0.219,0.065-0.333
			l0.56-0.152l1.341-0.363l-0.978-0.978l-0.977-0.976L29.12,27.789z"/>
		<path fill="#3E4347" d="M24.363,27.017c0.366,0.081,0.728,0.046,1.069-0.074c0.343-0.119,0.66-0.325,0.924-0.588
			c0.261-0.263,0.466-0.579,0.585-0.92c0.119-0.342,0.156-0.705,0.075-1.071c0.293,0.231,0.443,0.651,0.394,1.104
			c-0.044,0.452-0.285,0.935-0.647,1.293c-0.361,0.363-0.844,0.604-1.295,0.648C25.014,27.458,24.593,27.309,24.363,27.017z"/>
		<path fill-rule="evenodd" clip-rule="evenodd" fill="#3E4347" d="M26.854,19.303l-0.07-0.071
			c-0.056-0.055-0.072-0.061-0.117-0.046c-0.078,0.025-0.158,0.055-0.232,0.091c-0.057,0.027-0.114,0.058-0.174,0.095
			c-1.91-0.763-4.17-0.371-5.715,1.174C19,22.091,18.608,24.351,19.37,26.26c-0.036,0.06-0.068,0.119-0.094,0.175
			c-0.037,0.074-0.066,0.153-0.091,0.232c-0.015,0.045-0.009,0.061,0.046,0.116l0.071,0.072c0.134,0.134,0.063,0.099,0.216,0.06
			c0.05-0.014,0.102-0.019,0.156-0.018c0.23,0.409,0.521,0.795,0.871,1.145c2.068,2.069,5.425,2.069,7.496-0.001
			c2.068-2.07,2.068-5.425-0.001-7.495c-0.349-0.349-0.734-0.64-1.144-0.871c-0.001-0.054,0.004-0.107,0.017-0.156
			C26.954,19.367,26.989,19.437,26.854,19.303z M20.989,20.987c1.259-1.259,3.061-1.649,4.656-1.169
			c-0.486,0.404-0.971,0.906-1.234,1.22c-0.422,0.504-0.706,0.995-0.86,1.475c-0.148,0.445-0.593,0.89-1.038,1.039
			c-0.479,0.153-0.971,0.438-1.475,0.86c-0.314,0.263-0.816,0.748-1.22,1.233C19.337,24.05,19.727,22.249,20.989,20.987z
			 M27.599,27.598c-1.826,1.826-4.786,1.827-6.611,0.002c-0.024-0.025-0.049-0.051-0.073-0.076c0.558,0.326,1.104,0.352,1.643,0.107
			c0.577-0.263,1.044-0.739,1.293-1.322c0.137-0.318,0.193-0.663,0.119-1.057c-0.131-0.689-0.471-0.861-0.679-1.357
			c-0.182-0.433,0.171-0.785,0.603-0.603c0.498,0.208,0.669,0.547,1.358,0.678c0.393,0.075,0.737,0.019,1.057-0.119
			c0.583-0.25,1.059-0.715,1.321-1.293c0.244-0.538,0.219-1.085-0.107-1.643c0.025,0.024,0.053,0.048,0.077,0.073
			C29.424,22.813,29.424,25.773,27.599,27.598z"/>
	</g>
</g>
</svg>
