<?xml version="1.0" encoding="utf-8"?>
<!-- Generator: Adobe Illustrator 15.0.0, SVG Export Plug-In . SVG Version: 6.00 Build 0)  -->
<!DOCTYPE svg PUBLIC "-//W3C//DTD SVG 1.1//EN" "http://www.w3.org/Graphics/SVG/1.1/DTD/svg11.dtd">
<svg version="1.1" id="Layer_1" xmlns="http://www.w3.org/2000/svg" xmlns:xlink="http://www.w3.org/1999/xlink" x="0px" y="0px"
	 width="64px" height="64px" viewBox="0 0 64 64" enable-background="new 0 0 64 64" xml:space="preserve">
<g>
	<g>
		<g>
			<g>
				<path fill="#D0D0D0" d="M42.217,62c-0.236,0-0.474-0.066-0.676-0.2c-0.391-0.259-0.572-0.712-0.457-1.146
					c0.025-0.103,2.545-10.779-12.281-22.541c-0.49-0.39-0.549-1.075-0.131-1.531c0.42-0.456,1.156-0.511,1.648-0.122
					c11.837,9.391,13.361,18.148,13.303,22.267c9.509-6.139,14.843-12.444,15.866-18.762c0.948-5.859-2.259-9.521-2.396-9.675
					c-0.412-0.46-0.348-1.145,0.146-1.528c0.493-0.385,1.228-0.326,1.642,0.129c0.164,0.182,4.008,4.502,2.929,11.334
					c-1.171,7.418-7.548,14.686-18.954,21.6C42.662,61.941,42.439,62,42.217,62z"/>
			</g>
			<g>
				<path fill="#D0D0D0" d="M31.773,62c-0.268,0-0.535-0.086-0.751-0.254c-0.406-0.316-0.532-0.848-0.307-1.294
					c0.181-0.368,4.368-9.253-6.937-21.179c-0.427-0.451-0.381-1.138,0.104-1.535c0.485-0.396,1.223-0.352,1.648,0.098
					c8.409,8.872,8.859,16.359,8.218,20.382c19.089-13.587,17.27-24.97,17.248-25.088c-0.087-0.475,0.172-0.948,0.636-1.161
					c0.463-0.212,1.023-0.117,1.375,0.237c12.822,12.953,4.041,20.901,3.95,20.981c-0.472,0.409-1.209,0.388-1.651-0.049
					c-0.441-0.437-0.419-1.121,0.047-1.532c0.283-0.253,6.24-5.802-2.051-15.724c-0.578,4.885-4.024,14.877-20.857,25.919
					C32.244,61.934,32.009,62,31.773,62z"/>
			</g>
			<g>
				<path fill="#D0D0D0" d="M51.316,62c-0.108,0-0.219-0.014-0.328-0.043c-0.618-0.169-0.974-0.77-0.794-1.345
					c0.136-0.447,2.905-10.241-10.218-21.474c-1.028,3.455-4.225,11.105-13.549,18.527c-0.491,0.393-1.229,0.338-1.647-0.119
					c-0.421-0.455-0.362-1.141,0.128-1.531C36.496,46.793,38.1,37.053,38.114,36.955c0.06-0.393,0.345-0.725,0.743-0.864
					c0.398-0.141,0.848-0.069,1.172,0.188c16.025,12.712,12.563,24.447,12.408,24.939C52.288,61.693,51.822,62,51.316,62z"/>
			</g>
		</g>
		<g>
			<path fill="#ED4C5C" d="M30.545,41.184c-12.659,0-11.127-6.159-9.403-8.475C25.836,26.404,43.623,20,52.981,20
				c10.804,0,9.062,5.958,6.786,9.015C54.664,35.868,39.867,41.184,30.545,41.184z M52.981,23.069
				c-7.729,0-21.908,5.169-26.618,9.705c-0.943,0.908-2.563,3.342,4.182,3.342c8.41,0,21.17-5.229,25.092-9.839
				C57.035,24.633,57.749,23.069,52.981,23.069z"/>
		</g>
	</g>
	<g>
		<circle fill="#FF8736" cx="22" cy="22" r="20"/>
		<path fill="#231F20" d="M7.764,7.953c0.423,1.673,1.132,3.23,1.947,4.728c0.794,1.507,1.687,2.96,2.612,4.39
			c1.872,2.846,3.897,5.593,6.081,8.204c2.167,2.624,4.488,5.121,7.004,7.398c1.266,1.128,2.579,2.207,3.992,3.142
			c1.398,0.962,2.918,1.747,4.586,2.198c-1.737-0.115-3.398-0.792-4.958-1.564c-1.551-0.813-3.004-1.798-4.372-2.879
			c-2.746-2.159-5.173-4.676-7.404-7.337c-2.206-2.684-4.221-5.526-5.925-8.557c-0.856-1.511-1.628-3.074-2.279-4.688
			C8.443,11.363,7.853,9.69,7.764,7.953z"/>
		<path fill="#231F20" d="M2.007,21.461c1.201,2.5,2.656,4.829,4.537,6.733c1.876,1.906,4.135,3.364,6.586,4.466
			c2.437,1.147,5.066,1.932,7.648,3.036c1.286,0.554,2.573,1.211,3.676,2.15c1.098,0.939,1.898,2.252,2.087,3.635
			c-0.52-1.296-1.416-2.342-2.533-3.049c-1.107-0.727-2.371-1.2-3.651-1.645c-2.577-0.851-5.276-1.586-7.853-2.766
			c-2.563-1.181-5.001-2.836-6.824-5.045C3.839,26.791,2.621,24.164,2.007,21.461z"/>
		<path fill="#231F20" d="M38.086,33.888c-1.595,0.671-3.527,1.016-5.293,0.21c-1.752-0.849-2.778-2.588-3.47-4.227
			c-1.373-3.368-1.884-6.878-2.647-10.277c-0.715-3.403-1.525-6.787-3.038-9.844c-1.489-3.044-3.954-5.658-7.269-6.946
			c1.728,0.358,3.373,1.162,4.808,2.261c1.419,1.125,2.583,2.563,3.489,4.126c1.827,3.142,2.726,6.657,3.476,10.093l1.014,5.162
			c0.329,1.708,0.712,3.397,1.253,5.005c0.563,1.577,1.332,3.149,2.729,4.004C34.528,34.356,36.39,34.251,38.086,33.888z"/>
		<path fill="#231F20" d="M33.586,5.695c0.919,0.612,1.591,1.544,2.133,2.503c0.546,0.967,0.974,1.997,1.326,3.05
			c0.676,2.117,1.037,4.333,1.109,6.563c0.153,4.443-0.866,9.051-3.402,12.857c-1.273,1.884-2.91,3.53-4.792,4.799
			c-1.892,1.255-3.987,2.172-6.155,2.721c-4.344,1.137-8.851,1.002-13.152,0.283c4.362,0.142,8.751-0.14,12.828-1.408
			c4.062-1.253,7.725-3.714,10.027-7.229c2.353-3.478,3.393-7.76,3.48-12.013c0.029-2.133-0.161-4.285-0.647-6.377
			C35.85,9.377,35.158,7.233,33.586,5.695z"/>
	</g>
</g>
</svg>
