<?xml version="1.0" encoding="utf-8"?>
<!-- Generator: Adobe Illustrator 15.0.0, SVG Export Plug-In . SVG Version: 6.00 Build 0)  -->
<!DOCTYPE svg PUBLIC "-//W3C//DTD SVG 1.1//EN" "http://www.w3.org/Graphics/SVG/1.1/DTD/svg11.dtd">
<svg version="1.1" id="Layer_1" xmlns="http://www.w3.org/2000/svg" xmlns:xlink="http://www.w3.org/1999/xlink" x="0px" y="0px"
	 width="64px" height="64px" viewBox="0 0 64 64" enable-background="new 0 0 64 64" xml:space="preserve">
<g>
	<g>
		<g>
			<g>
				<path fill="#F2B200" d="M12.687,31.713c-0.54,0-1.062-0.12-1.548-0.365c-1.309-0.66-2.868-2.458-2.868-7.284
					c0-10.092-5.324-15.849-5.379-15.906L2,7.213L6.736,2l0.81,1.222c0.102,0.148,2.578,3.738,6.533,2.683l0.549,2.579
					c-3.896,1.041-6.711-1.139-8.07-2.57L5.351,7.243c1.679,2.223,5.286,8.023,5.286,16.821c0,2.62,0.537,4.394,1.473,4.866
					c0.71,0.357,1.765-0.031,2.754-1.013c2.59-2.573,4.493-8.986,4.512-9.05l2.248,0.827c-0.084,0.291-2.119,7.158-5.19,10.207
					C15.237,31.089,13.916,31.713,12.687,31.713z"/>
			</g>
			<g>
				<path fill="#F2B200" d="M51.313,31.712c0.541,0,1.063-0.12,1.549-0.365c1.309-0.659,2.867-2.458,2.867-7.284
					c0-10.091,5.324-15.849,5.379-15.905L62,7.211L57.264,2l-0.811,1.221c-0.102,0.148-2.578,3.739-6.533,2.682l-0.549,2.579
					c3.896,1.041,6.711-1.138,8.07-2.57l1.207,1.328c-1.678,2.223-5.285,8.024-5.285,16.821c0,2.621-0.537,4.395-1.473,4.866
					c-0.711,0.359-1.766-0.03-2.754-1.012c-2.59-2.572-4.494-8.985-4.514-9.049l-2.248,0.826c0.086,0.291,2.121,7.158,5.191,10.207
					C48.762,31.088,50.084,31.712,51.313,31.712z"/>
			</g>
		</g>
		<rect x="28.95" y="24.931" fill="#F2B200" width="6.099" height="24.478"/>
		<rect x="30.2" y="24.931" fill="#FFCE31" width="3.599" height="24.478"/>
		<path fill="#F2B200" d="M11.825,2C13.545,17.382,21.924,29.718,32,29.718c10.076,0,18.455-12.336,20.175-27.718H11.825z"/>
		<path fill="#FFCE31" d="M15.716,2C17.105,17.561,23.868,30.042,32,30.042c8.132,0,14.894-12.481,16.283-28.042H15.716z"/>
		<path fill="#F2B200" d="M47.648,54H16.351c0,0,7.006-9.033,15.65-9.033C40.643,44.967,47.648,54,47.648,54z"/>
		<path fill="#FFCE31" d="M43.873,54H20.125c0,0,5.316-9.183,11.875-9.183C38.559,44.817,43.873,54,43.873,54z"/>
	</g>
	<g>
		<rect x="11.816" y="56" fill="#BC845E" width="40.368" height="6"/>
		<rect x="16.351" y="54" fill="#916140" width="31.298" height="2"/>
		<rect x="22" y="57.5" fill="#F2B200" width="20" height="3"/>
		<rect x="11.816" y="56" fill="#CE9C7A" width="2" height="6"/>
		<rect x="50.184" y="56" fill="#916140" width="2" height="6"/>
		<rect x="23" y="57.5" fill="#FFCE31" width="18" height="3"/>
	</g>
</g>
</svg>
