<?xml version="1.0" encoding="utf-8"?>
<!-- Generator: Adobe Illustrator 15.0.0, SVG Export Plug-In . SVG Version: 6.00 Build 0)  -->
<!DOCTYPE svg PUBLIC "-//W3C//DTD SVG 1.1//EN" "http://www.w3.org/Graphics/SVG/1.1/DTD/svg11.dtd">
<svg version="1.1" id="Layer_1" xmlns="http://www.w3.org/2000/svg" xmlns:xlink="http://www.w3.org/1999/xlink" x="0px" y="0px"
	 width="64px" height="64px" viewBox="0 0 64 64" enable-background="new 0 0 64 64" xml:space="preserve">
<g>
	<g>
		<path fill="#42ADE2" d="M43.617,2.945c-3.625,0.818-14.012,2.424-10.469,6.551c4.781,5.564,7.672,12.811,7.672,20.74
			c0,13.807-8.77,25.551-21.01,29.93C23.119,61.35,26.686,62,30.4,62c17.455,0,31.604-14.221,31.604-31.764
			S47.033,2.174,43.617,2.945z"/>
		<g>
			<path fill="#428BC1" d="M47.027,3.563c4.037,5.334,5.982,11.371,5.982,18.592c0,13.734-8.674,25.432-20.816,29.863
				c-3.398,3.619-7.623,6.447-12.383,8.148C23.119,61.35,26.686,62,30.4,62c17.455,0,31.604-14.221,31.604-31.764
				C62.004,18.635,55.855,8.377,47.027,3.563z"/>
		</g>
		<path fill="#428BC1" d="M53.533,8.857c0,0-7.078-8.451-16.605-2.471c-7.297,4.578-1.537,11.57,2.018,8.752
			c1.318-1.045-2.717-1.186-2.803-1.898c-0.168-1.424,2.197-0.082,2.693-0.688c0.584-0.713-1.705-1.225-1.115-1.896
			c0.615-0.701,1.977,0.529,2.416-0.121c0.49-0.723-0.609-1.588,0.148-2.156c0.57-0.43,1.547,0.545,2.732,0.08
			c1.514-0.59-0.076-2.746,2.461-2.57C50.082,6.209,53.533,8.857,53.533,8.857z"/>
		<path fill="#42ADE2" d="M51.168,6.355c0,0-7.992-7.178-16.199-0.645c-7.607,6.059-1.719,13.375,2.256,10.117
			c1.473-1.207-3.039-1.369-3.133-2.195c-0.189-1.645,2.455-0.094,3.01-0.793c0.652-0.824-1.906-1.416-1.248-2.191
			c0.689-0.813,2.209,0.609,2.703-0.141c0.547-0.834-0.682-1.834,0.164-2.492c0.639-0.496,1.729,0.627,3.055,0.094
			c1.693-0.682,0.105-1.93,2.752-2.973C47.643,3.91,51.168,6.355,51.168,6.355z"/>
		<path fill="#BBECFF" d="M52.291,7.33c0,0-7.91-9.768-18.563-2.857c-8.16,5.293-1.721,13.375,2.254,10.117
			c1.475-1.209-3.037-1.371-3.133-2.195c-0.188-1.646,2.457-0.094,3.01-0.793c0.652-0.824-1.904-1.418-1.246-2.193
			c0.688-0.811,2.209,0.611,2.701-0.141c0.549-0.832-0.682-1.832,0.166-2.49c0.637-0.498,1.729,0.627,3.055,0.094
			c1.691-0.682-0.086-3.176,2.75-2.973C48.432,4.268,52.291,7.33,52.291,7.33z"/>
	</g>
	<g>
		<path fill="#F15744" d="M45.473,55.682c-14.725,10.893-28.135,4.789-29.621,2.953c-2.68-3.311,13.145-2.137,20.436-9.623
			c9.58-9.832,10.262-12.873,15.146-13.357C55.711,35.229,56.5,47.523,45.473,55.682z"/>
		<g>
			<path fill="#FED0AC" d="M35.988,22.039l0.506-0.551c0.266-0.293,0.666-0.391,1.018-0.283c0.727-0.688,1.871-1.404,3.215-0.158
				c0.221,0.207,1.449,1.348,0.098,2.824c-1.994,2.172-1.994,2.172-3.664,0.623l-1.125-1.043
				C35.635,23.08,35.613,22.447,35.988,22.039z"/>
			<polygon fill="#FED0AC" points="31.496,30.086 36.316,23.256 38.74,25.244 33.932,32.074 			"/>
			<polygon fill="#FED0AC" points="23.73,31.826 31.902,29.588 33.932,32.074 25.344,34.473 			"/>
			<g>
				<path fill="#FED0AC" d="M37.543,21.832c0.195-0.225,0.178-0.563-0.037-0.75c-0.217-0.189-0.551-0.16-0.746,0.064l0,0
					l-0.834,0.963l0.781,0.686L37.543,21.832L37.543,21.832z"/>
				<g>
					<path fill="#E0A372" d="M37.391,21.459c0.008,0.168,0.01,0.291-0.059,0.438c-0.061,0.141-0.164,0.254-0.264,0.369
						c-0.166,0.189-0.332,0.379-0.496,0.568c-0.129,0.145,0.096,0.34,0.223,0.195c0.17-0.195,0.34-0.389,0.51-0.582
						c0.117-0.135,0.229-0.275,0.299-0.439c0.084-0.184,0.09-0.375,0.082-0.57C37.68,21.246,37.385,21.268,37.391,21.459
						L37.391,21.459z"/>
				</g>
			</g>
		</g>
		<g>
			<path fill="#FED0AC" d="M7.469,28.223l-0.373-0.648c-0.197-0.346-0.566-0.525-0.934-0.498c-0.559-0.83-1.523-1.779-3.104-0.855
				c-0.262,0.152-1.707,0.998-0.705,2.736c1.479,2.555,1.479,2.555,3.441,1.406l1.324-0.773C7.59,29.314,7.748,28.703,7.469,28.223z
				"/>
			<polygon fill="#FED0AC" points="11.32,37.686 6.887,29.338 4.092,30.752 8.516,39.096 			"/>
			<polygon fill="#FED0AC" points="17.256,32.469 9.883,35.426 8.516,39.096 18.807,35.189 			"/>
			<g>
				<path fill="#FED0AC" d="M5.996,27.682c-0.141-0.262-0.053-0.586,0.197-0.725c0.254-0.137,0.574-0.037,0.717,0.227l0,0
					l0.605,1.121l-0.912,0.496L5.996,27.682L5.996,27.682z"/>
				<g>
					<path fill="#E0A372" d="M6.227,27.35c-0.043,0.164-0.072,0.281-0.037,0.439c0.029,0.15,0.104,0.285,0.178,0.418
						c0.121,0.221,0.242,0.441,0.361,0.662c0.094,0.17-0.166,0.313-0.26,0.143c-0.123-0.227-0.248-0.453-0.371-0.678
						c-0.086-0.158-0.166-0.318-0.199-0.494c-0.041-0.199-0.006-0.385,0.045-0.576C5.988,27.08,6.273,27.164,6.227,27.35
						L6.227,27.35z"/>
				</g>
			</g>
		</g>
		<path fill="#FED0AC" d="M27.514,38.299c0,0-0.045,2.898-2.541,5.406c-2.5,2.516-6.066,2.248-6.066,2.248
			s-4.135-12.258-1.65-13.484c1.953-0.965,10.016-0.738,9.641,0C25.406,35.398,27.514,38.299,27.514,38.299z"/>
		<g>
			<path fill="#FED0AC" d="M41.967,46.027c1.031-1.037,2.771-0.965,3.887,0.158l0.01,0.01l-5.246,5.27l-2.031-2.041L41.967,46.027z"
				/>
			<path fill="#FED0AC" d="M37.178,51.758c1.031-1.037,2.771-0.965,3.889,0.158l0.008,0.008l-5.246,5.271l-2.031-2.041
				L37.178,51.758z"/>
			<g>
				<g>
					<path fill="#FED0AC" d="M32.121,39.363l-3.137,0.447l0.02-0.02l-1.484-1.49c0,0-1.459,2.324-5.027,5.91l3.455,3.473
						c0.648-0.652,3.268-2.109,3.268-2.109l2.287-0.281l2.654-0.324l4.432,4.453l3.375-3.389c0,0-4.359-4.381-5.594-5.621
						C35.408,39.445,34.135,39.086,32.121,39.363z"/>
				</g>
				<g>
					<path fill="#3E4347" d="M32.121,39.363l-3.137,0.447l0.02-0.02l-1.484-1.49c0,0-1.459,2.324-5.027,5.91l3.455,3.473
						c0.648-0.652,3.268-2.109,3.268-2.109l2.287-0.281C31.502,45.293,30.154,41.855,32.121,39.363z"/>
				</g>
				<g>
					<path fill="#FED0AC" d="M27.361,45.064l-3.135,0.447l2.514,5.482l2.656-0.324l4.432,4.453l3.375-3.391
						c0,0-4.359-4.379-5.594-5.619C30.648,45.145,29.375,44.787,27.361,45.064z"/>
				</g>
				<g>
					<path fill="#3E4347" d="M27.361,45.064l0.158-6.764c0,0-1.621,2.453-8.611,7.654c0,0,0.656,5.305,5.547,5.32
						c0.576,0.002,2.285-0.281,2.285-0.281S25.395,47.557,27.361,45.064z"/>
				</g>
			</g>
		</g>
		<g>
			<path fill="#FED0AC" d="M23.822,31.26v-1.211H20.4v1.211c0,0.67-0.533,1.209-1.191,1.209l0,0h5.805l0,0
				C24.357,32.469,23.822,31.93,23.822,31.26z"/>
			<path fill="#DBB471" d="M12.082,15.764c0,1.813,0,7.354,0,7.354h20.059c0,0,0-5.541,0-7.354
				C32.141,6.254,12.082,6.254,12.082,15.764z"/>
			<path fill="#FED0AC" d="M11.398,21.855c0-3.293,2.412-1.621,2.412-1.621c0.439-8.654,2.754-3.979,8.299-3.979
				c5.551,0,7.865-4.676,8.309,3.979c0,0,2.406-1.672,2.406,1.621c0,1.262-0.459,2.293-2.016,2.4
				c-0.656,5.096-3.922,6.146-8.699,6.146c-4.773,0-8.035-1.051-8.693-6.146C11.861,24.148,11.398,23.117,11.398,21.855"/>
			<g>
				<path fill="#574137" d="M18.096,25.242c0,1.48,1.797,2.723,4.016,2.723s4.018-1.242,4.018-2.723c0,0-2.137,0.131-4.018,0.131
					C20.232,25.373,18.096,25.242,18.096,25.242z"/>
			</g>
			<g>
				<g>
					<path fill="#574137" d="M26.041,21.166c0,0.75,0.602,1.363,1.338,1.363c0.738,0,1.34-0.613,1.34-1.363
						c0-0.754-0.602-1.359-1.34-1.359C26.643,19.807,26.041,20.412,26.041,21.166z"/>
				</g>
				<g>
					<path fill="#574137" d="M18.295,21.166c0,0.75,0.598,1.363,1.338,1.363c0.738,0,1.34-0.613,1.34-1.363
						c0-0.754-0.602-1.359-1.34-1.359C18.893,19.807,18.295,20.412,18.295,21.166z"/>
				</g>
			</g>
			<path fill="#E0A372" d="M22.615,22.738c0,0.502,0.398,0.906,0.893,0.906S24.4,23.24,24.4,22.738H22.615z"/>
		</g>
	</g>
</g>
</svg>
