<?xml version="1.0" encoding="utf-8"?>
<!-- Generator: Adobe Illustrator 15.0.0, SVG Export Plug-In . SVG Version: 6.00 Build 0)  -->
<!DOCTYPE svg PUBLIC "-//W3C//DTD SVG 1.1//EN" "http://www.w3.org/Graphics/SVG/1.1/DTD/svg11.dtd">
<svg version="1.1" id="Layer_1" xmlns="http://www.w3.org/2000/svg" xmlns:xlink="http://www.w3.org/1999/xlink" x="0px" y="0px"
	 width="64px" height="64px" viewBox="0 0 64 64" enable-background="new 0 0 64 64" xml:space="preserve">
<g>
	<g>
		<path fill="#89664C" d="M2.779,40.341C0.719,51.96,3.185,57.036,5.074,58.925c1.889,1.889,6.967,4.356,18.587,2.296
			c-4.264-2.274-8.321-5.283-11.96-8.923C8.063,48.66,5.054,44.601,2.779,40.341z"/>
		<path fill="#89664C" d="M61.073,23.807C63.133,12.187,61.381,6.4,59.49,4.51c-1.89-1.89-7.682-3.643-19.299-1.583
			c4.263,2.276,8.321,5.283,11.961,8.921C55.789,15.489,58.797,19.546,61.073,23.807z"/>
		<path fill="#89664C" d="M30.831,5.378c-5.623,2.004-11.183,5.072-15.855,9.747c-4.673,4.673-7.742,10.231-9.745,15.855
			C7.121,37.072,10.8,43.03,15.885,48.116c5.083,5.085,11.043,8.764,17.136,10.654c5.623-2.004,11.183-5.072,15.856-9.746
			c4.673-4.675,7.742-10.234,9.746-15.857c-1.891-6.091-5.569-12.048-10.655-17.134C42.883,10.948,36.925,7.269,30.831,5.378z"/>
		<path fill="#FFFFFF" d="M5.23,30.981c-1.123,3.149-1.911,6.313-2.451,9.36c2.274,4.26,5.283,8.319,8.922,11.957
			c3.639,3.64,7.696,6.648,11.96,8.923c3.045-0.54,6.21-1.327,9.359-2.45c-6.093-1.891-12.053-5.569-17.136-10.654
			C10.8,43.03,7.121,37.072,5.23,30.981z"/>
		<path fill="#FFFFFF" d="M52.152,11.848c-3.64-3.638-7.698-6.645-11.961-8.921c-3.046,0.541-6.211,1.329-9.36,2.451
			c6.094,1.891,12.052,5.569,17.137,10.655c5.086,5.085,8.765,11.042,10.655,17.134c1.122-3.149,1.909-6.315,2.45-9.36
			C58.797,19.546,55.789,15.489,52.152,11.848z"/>
	</g>
	<g>
		<g>
			<g>
				<path fill="#FFFFFF" d="M37.827,19.837c2.111,2.112,4.225,4.223,6.337,6.336c1.021,1.021,2.605-0.563,1.583-1.584
					c-2.111-2.111-4.224-4.225-6.335-6.337C38.39,17.232,36.806,18.816,37.827,19.837L37.827,19.837z"/>
			</g>
			<g>
				<path fill="#FFFFFF" d="M33.075,24.589c2.112,2.113,4.225,4.225,6.337,6.338c1.021,1.02,2.605-0.563,1.584-1.586
					c-2.113-2.113-4.225-4.225-6.337-6.336C33.638,21.984,32.053,23.568,33.075,24.589L33.075,24.589z"/>
			</g>
			<g>
				<path fill="#FFFFFF" d="M28.322,29.342c2.111,2.112,4.225,4.223,6.337,6.336c1.021,1.02,2.604-0.563,1.583-1.584
					c-2.112-2.113-4.225-4.224-6.337-6.337C28.886,26.738,27.301,28.321,28.322,29.342L28.322,29.342z"/>
			</g>
			<g>
				<path fill="#FFFFFF" d="M23.569,34.095c2.113,2.112,4.225,4.225,6.337,6.336c1.021,1.021,2.605-0.563,1.584-1.584
					c-2.112-2.114-4.225-4.225-6.337-6.337C24.134,31.488,22.549,33.072,23.569,34.095L23.569,34.095z"/>
			</g>
			<g>
				<path fill="#FFFFFF" d="M18.818,38.847c2.111,2.111,4.223,4.223,6.336,6.336c1.021,1.021,2.605-0.562,1.584-1.583
					c-2.112-2.114-4.224-4.226-6.337-6.339C19.382,36.24,17.797,37.825,18.818,38.847L18.818,38.847z"/>
			</g>
		</g>
		<g>
			<path fill="#FFFFFF" d="M21.354,44.231c2.113-2.112,21.329-21.33,23.442-23.443c1.021-1.02-0.563-2.604-1.584-1.582
				c-2.112,2.111-21.329,21.328-23.442,23.439C18.75,43.669,20.333,45.253,21.354,44.231L21.354,44.231z"/>
		</g>
	</g>
</g>
</svg>
