<?xml version="1.0" encoding="utf-8"?>
<!-- Generator: Adobe Illustrator 15.0.0, SVG Export Plug-In . SVG Version: 6.00 Build 0)  -->
<!DOCTYPE svg PUBLIC "-//W3C//DTD SVG 1.1//EN" "http://www.w3.org/Graphics/SVG/1.1/DTD/svg11.dtd">
<svg version="1.1" id="Layer_1" xmlns="http://www.w3.org/2000/svg" xmlns:xlink="http://www.w3.org/1999/xlink" x="0px" y="0px"
	 width="64px" height="64px" viewBox="0 0 64 64" enable-background="new 0 0 64 64" xml:space="preserve">
<g>
	<rect fill="#D6EEF0" width="64" height="64"/>
	<path fill="#D0D0D0" d="M28,38c-0.533-1.272-1.293-2.48-2.143-3.273L7.014,17.12c-1.598-1.493-4.213-1.493-5.811,0L0,18.244V38H28z
		"/>
	<g>
		<path fill="#83BF4F" d="M0.019,32C0.083,32-0.046,32,0.019,32L0.019,32z"/>
		<path fill="#83BF4F" d="M50.193,34.498l0.006,0.029c-3.237-1.41-6.801-2.242-10.414-2.266c-3.61-0.025-6.801,0.76-9.393,2.129
			l-0.012-0.029c-5.623,2.498-12.98,2.449-19.789-0.129l0.008,0.03C7.363,32.852,3.608,32.023,0,32v32h64V36.254
			C59.612,36.817,54.778,36.234,50.193,34.498z"/>
	</g>
	<rect y="52" fill="#F9F3D9" width="16" height="12"/>
	<rect x="48" y="52" fill="#F9F3D9" width="16" height="12"/>
	<rect y="48" fill="#D0D0D0" width="18" height="4"/>
	<rect x="46" y="48" fill="#D0D0D0" width="18" height="4"/>
	<rect x="2" y="55" fill="#D0D0D0" width="4" height="2"/>
	<rect x="10" y="57" fill="#D0D0D0" width="4" height="2"/>
	<rect x="54" y="60" fill="#D0D0D0" width="4" height="2"/>
	<rect x="58" y="54" fill="#D0D0D0" width="4" height="2"/>
	<path fill="#F9F3D9" d="M29.688,45.77c-9.999-3.465-8.414-8.271-7.746-9.592h-2.176c-1.825,1.504-5.958,5.294,4.544,11.617
		C36.085,54.885,24.686,64,24.686,64h17.006C41.691,64,46.488,51.592,29.688,45.77z"/>
	<rect x="14" y="28" fill="#3E4347" width="2" height="20"/>
	<rect x="48" y="28" fill="#3E4347" width="2" height="20"/>
	<circle fill="#699635" cx="4" cy="41" r="2"/>
	<circle fill="#699635" cx="4" cy="39" r="1"/>
	<circle fill="#699635" cx="10" cy="41" r="2"/>
	<circle fill="#699635" cx="7" cy="40" r="3"/>
	<rect x="56" y="38" fill="#89664C" width="2" height="6"/>
	<path fill="#699635" d="M58.6,29.24c-0.88-1.654-2.318-1.654-3.199,0l-3.061,5.753C51.459,36.646,52.35,38,54.317,38h5.365
		c1.968,0,2.858-1.354,1.978-3.007L58.6,29.24z"/>
	<path fill="#75A843" d="M58.279,25.992c-0.703-1.322-1.853-1.322-2.559,0l-2.449,4.604C52.568,31.918,53.279,33,54.854,33h4.291
		c1.576,0,2.288-1.082,1.584-2.404L58.279,25.992z"/>
	<path fill="#83BF4F" d="M57.958,22.744c-0.526-0.992-1.389-0.992-1.916,0l-1.838,3.452C53.676,27.188,54.21,28,55.392,28h3.216
		c1.183,0,1.717-0.813,1.188-1.804L57.958,22.744z"/>
	<circle fill="#FFE62E" cx="52" cy="12" r="7"/>
	<path fill="#FFFFFF" d="M22,7c0,1.104-0.896,2-2,2H10C8.896,9,8,8.104,8,7l0,0c0-1.104,0.896-2,2-2h10C21.104,5,22,5.896,22,7L22,7
		z"/>
	<path fill="#FFFFFF" d="M26,9c0,1.104-0.896,2-2,2h-4c-1.104,0-2-0.896-2-2l0,0c0-1.104,0.896-2,2-2h4C25.104,7,26,7.896,26,9L26,9
		z"/>
	<path fill="#FFFFFF" d="M40,12c0,1.104-0.896,2-2,2h-4c-1.104,0-2-0.896-2-2l0,0c0-1.104,0.896-2,2-2h4C39.104,10,40,10.896,40,12
		L40,12z"/>
	<path fill="#89664C" d="M49,22H15c-2.209,0-4,1.791-4,4s1.791,4,4,4h34c2.209,0,4-1.791,4-4S51.209,22,49,22z"/>
	<circle fill="#F9F3D9" cx="15" cy="26" r="1"/>
	<circle fill="#F9F3D9" cx="49" cy="26" r="1"/>
</g>
</svg>
