<?xml version="1.0" encoding="utf-8"?>
<!-- Generator: Adobe Illustrator 15.0.0, SVG Export Plug-In . SVG Version: 6.00 Build 0)  -->
<!DOCTYPE svg PUBLIC "-//W3C//DTD SVG 1.1//EN" "http://www.w3.org/Graphics/SVG/1.1/DTD/svg11.dtd">
<svg version="1.1" id="Layer_1" xmlns="http://www.w3.org/2000/svg" xmlns:xlink="http://www.w3.org/1999/xlink" x="0px" y="0px"
	 width="64px" height="64px" viewBox="0 0 64 64" enable-background="new 0 0 64 64" xml:space="preserve">
<g>
	<path fill="#FBBF67" d="M49,30c-3.25,0-9.776,0-13,0c-1.775,0-3,0.885-3,2.738V64h20V34C53,31.799,51.2,30,49,30z"/>
	<path fill="#D3976E" d="M36.2,35h-0.4c-0.439,0-0.8,0.436-0.8,0.967V64h2V35.967C37,35.436,36.64,35,36.2,35z"/>
	<path fill="#D3976E" d="M41.2,35h-0.4c-0.439,0-0.8,0.436-0.8,0.967V64h2V35.967C42,35.436,41.64,35,41.2,35z"/>
	<g>
		<path fill="#6ADBC6" d="M13,34H4c-2.2,0-4,1.799-4,4v26h13V34z"/>
		<path fill="#FFFFFF" d="M9.5,42c0,0.549-0.45,1-1,1h-3c-0.55,0-1-0.451-1-1v-2c0-0.551,0.45-1,1-1h3c0.55,0,1,0.449,1,1V42z"/>
		<path fill="#FFFFFF" d="M9.5,50c0,0.549-0.45,1-1,1h-3c-0.55,0-1-0.451-1-1v-2c0-0.551,0.45-1,1-1h3c0.55,0,1,0.449,1,1V50z"/>
		<path fill="#FFFFFF" d="M9.5,58c0,0.549-0.45,1-1,1h-3c-0.55,0-1-0.451-1-1v-2c0-0.551,0.45-1,1-1h3c0.55,0,1,0.449,1,1V58z"/>
	</g>
	<path fill="#D6EEF0" d="M15,11c-2.004,0-3.773,0.986-4.863,2.496C9.486,13.188,8.768,13,8,13c-2.419,0-4.436,1.717-4.899,4H3
		c-1.657,0-3,1.344-3,3s1.343,3,3,3h12c3.313,0,6-2.688,6-6C21,13.686,18.313,11,15,11z"/>
	<path fill="#D6EEF0" d="M36,10c0.382,0,0.744,0.078,1.08,0.209C37.461,7.826,39.511,6,42,6c2.003,0,3.719,1.186,4.517,2.887
		C47.2,8.34,48.057,8,49,8c2.209,0,4,1.791,4,4s-1.791,4-4,4H36c-1.657,0-3-1.344-3-3S34.343,10,36,10z"/>
	<g>
		<path fill="#D3976E" d="M31.586,17.857l-7.172-7.266c-0.777-0.789-2.051-0.789-2.828,0l-7.172,7.266
			C13.637,18.645,13,20.201,13,21.316V64h20V21.316C33,20.201,32.363,18.645,31.586,17.857z"/>
		<path fill="#FFDD7D" d="M30,34c0,0.549-0.45,1-1,1H17c-0.55,0-1-0.451-1-1v-2c0-0.551,0.45-1,1-1h12c0.55,0,1,0.449,1,1V34z"/>
		<path fill="#FFDD7D" d="M30,42c0,0.549-0.45,1-1,1H17c-0.55,0-1-0.451-1-1v-2c0-0.551,0.45-1,1-1h12c0.55,0,1,0.449,1,1V42z"/>
		<path fill="#FFDD7D" d="M30,50c0,0.549-0.45,1-1,1H17c-0.55,0-1-0.451-1-1v-2c0-0.551,0.45-1,1-1h12c0.55,0,1,0.449,1,1V50z"/>
		<path fill="#FFDD7D" d="M30,58c0,0.549-0.45,1-1,1H17c-0.55,0-1-0.451-1-1v-2c0-0.551,0.45-1,1-1h12c0.55,0,1,0.449,1,1V58z"/>
		<path fill="#FFDD7D" d="M30,26c0,0.549-0.45,1-1,1H17c-0.55,0-1-0.451-1-1v-2c0-0.551,0.45-1,1-1h12c0.55,0,1,0.449,1,1V26z"/>
	</g>
	<g>
		<path fill="#6ADBC6" d="M60,19v-5c0-1.105-0.896-2-2-2h-3V1c0-0.553-0.447-1-1-1s-1,0.447-1,1v11h-3c-1.104,0-2,0.895-2,2v5
			c-2.2,0-4,1.799-4,4v41h20V23C64,20.799,62.2,19,60,19z"/>
		<path fill="#FFFFFF" d="M52.5,25c0,0.549-0.45,1-1,1h-3c-0.55,0-1-0.451-1-1v-2c0-0.551,0.45-1,1-1h3c0.55,0,1,0.449,1,1V25z"/>
		<path fill="#FFFFFF" d="M60.5,25c0,0.549-0.45,1-1,1h-3c-0.55,0-1-0.451-1-1v-2c0-0.551,0.45-1,1-1h3c0.55,0,1,0.449,1,1V25z"/>
		<path fill="#FFFFFF" d="M52.5,32c0,0.549-0.45,1-1,1h-3c-0.55,0-1-0.451-1-1v-2c0-0.551,0.45-1,1-1h3c0.55,0,1,0.449,1,1V32z"/>
		<path fill="#FFFFFF" d="M60.5,32c0,0.549-0.45,1-1,1h-3c-0.55,0-1-0.451-1-1v-2c0-0.551,0.45-1,1-1h3c0.55,0,1,0.449,1,1V32z"/>
		<path fill="#FFFFFF" d="M52.5,39c0,0.549-0.45,1-1,1h-3c-0.55,0-1-0.451-1-1v-2c0-0.551,0.45-1,1-1h3c0.55,0,1,0.449,1,1V39z"/>
		<path fill="#FFFFFF" d="M60.5,39c0,0.549-0.45,1-1,1h-3c-0.55,0-1-0.451-1-1v-2c0-0.551,0.45-1,1-1h3c0.55,0,1,0.449,1,1V39z"/>
		<path fill="#FFFFFF" d="M52.5,46c0,0.549-0.45,1-1,1h-3c-0.55,0-1-0.451-1-1v-2c0-0.551,0.45-1,1-1h3c0.55,0,1,0.449,1,1V46z"/>
		<path fill="#FFFFFF" d="M60.5,46c0,0.549-0.45,1-1,1h-3c-0.55,0-1-0.451-1-1v-2c0-0.551,0.45-1,1-1h3c0.55,0,1,0.449,1,1V46z"/>
		<path fill="#FFFFFF" d="M52.5,53c0,0.549-0.45,1-1,1h-3c-0.55,0-1-0.451-1-1v-2c0-0.551,0.45-1,1-1h3c0.55,0,1,0.449,1,1V53z"/>
		<path fill="#FFFFFF" d="M60.5,53c0,0.549-0.45,1-1,1h-3c-0.55,0-1-0.451-1-1v-2c0-0.551,0.45-1,1-1h3c0.55,0,1,0.449,1,1V53z"/>
		<path fill="#FFFFFF" d="M52.5,60c0,0.549-0.45,1-1,1h-3c-0.55,0-1-0.451-1-1v-2c0-0.551,0.45-1,1-1h3c0.55,0,1,0.449,1,1V60z"/>
		<path fill="#FFFFFF" d="M60.5,60c0,0.549-0.45,1-1,1h-3c-0.55,0-1-0.451-1-1v-2c0-0.551,0.45-1,1-1h3c0.55,0,1,0.449,1,1V60z"/>
	</g>
</g>
</svg>
