<?xml version="1.0" encoding="utf-8"?>
<!-- Generator: Adobe Illustrator 15.0.0, SVG Export Plug-In . SVG Version: 6.00 Build 0)  -->
<!DOCTYPE svg PUBLIC "-//W3C//DTD SVG 1.1//EN" "http://www.w3.org/Graphics/SVG/1.1/DTD/svg11.dtd">
<svg version="1.1" id="Layer_1" xmlns="http://www.w3.org/2000/svg" xmlns:xlink="http://www.w3.org/1999/xlink" x="0px" y="0px"
	 width="64px" height="64px" viewBox="0 0 64 64" enable-background="new 0 0 64 64" xml:space="preserve">
<g>
	<rect fill="#D6EEF0" width="64" height="64"/>
	<circle fill="#FFE62E" cx="52" cy="12" r="7"/>
	<path fill="#FFFFFF" d="M22,7c0,1.104-0.896,2-2,2H10C8.896,9,8,8.104,8,7l0,0c0-1.104,0.896-2,2-2h10C21.104,5,22,5.896,22,7L22,7
		z"/>
	<path fill="#FFFFFF" d="M26,9c0,1.104-0.896,2-2,2h-4c-1.104,0-2-0.896-2-2l0,0c0-1.104,0.896-2,2-2h4C25.104,7,26,7.896,26,9L26,9
		z"/>
	<path fill="#FFFFFF" d="M40,12c0,1.104-0.896,2-2,2h-4c-1.104,0-2-0.896-2-2l0,0c0-1.104,0.896-2,2-2h4C39.104,10,40,10.896,40,12
		L40,12z"/>
	<path fill="#FFFFFF" d="M19,19c0,1.104-0.896,2-2,2h-4c-1.104,0-2-0.896-2-2l0,0c0-1.104,0.896-2,2-2h4C18.104,17,19,17.896,19,19
		L19,19z"/>
	<rect y="32" fill="#6ADBC6" width="64" height="32"/>
	<path fill="#FFDD7D" d="M64,40.004c0,0-78.426-0.867-46.251,23.996H64V40.004z"/>
	<g>
		<path fill="#94989B" d="M39.117,53.18c-0.107,0.548-0.639,0.906-1.184,0.803l0,0c-0.548-0.104-0.901-0.633-0.792-1.181
			l4.698-23.795c0.108-0.548,0.639-0.907,1.186-0.802l0,0c0.546,0.104,0.897,0.632,0.791,1.18L39.117,53.18z"/>
		<path fill="#F27A52" d="M41.644,35.201c3.717,0.711,3.248,3.649,6.158,4.205c2.912,0.558,3.588-2.342,7.313-1.628
			c0.753,0.144,0.753,0.144,0.753,0.144c0.522,1.385,1.341,0.996,1.817-0.866c0,0,0,0,0.151-0.776
			c1.699-8.593-10.345-12.935-10.345-12.935c-1.74-0.945-4.783-1.528-6.758-1.292c0,0-12.819-0.411-14.519,8.181
			c-0.152,0.778-0.152,0.778-0.152,0.778c-0.266,1.902,0.344,2.564,1.357,1.472c0,0,0,0,0.759,0.144
			c3.715,0.711,3.246,3.648,6.157,4.206C37.247,37.389,37.927,34.492,41.644,35.201z"/>
		<g>
			<path fill="#F9F3D9" d="M46.386,25.081l-0.262-0.122c-0.351-0.198-0.818-0.377-1.328-0.531c0.509,2.882,1.287,7.607,1.801,12.236
				c0.322,0.389,0.559,0.563,0.98,0.643c0.572,0.107,0.885-0.059,1.704-0.56c1.136-0.696,2.694-1.649,5.261-1.157l0.342,0.064
				C56.198,28.812,46.481,25.117,46.386,25.081z"/>
			<path fill="#C94747" d="M40.965,24.018l-0.275,0.018c-0.098-0.001-10.126-0.054-11.5,6.717l0.336,0.064
				c2.46,0.47,3.491,1.912,4.245,2.966c0.541,0.76,0.757,1.028,1.311,1.134c0.549,0.105,0.852-0.064,1.644-0.568
				c0.063-0.04,0.133-0.082,0.196-0.125c2.118-3.936,4.438-7.801,5.898-10.173C42.126,23.962,41.467,23.942,40.965,24.018z"/>
		</g>
	</g>
</g>
</svg>
