<?xml version="1.0" encoding="utf-8"?>
<!-- Generator: Adobe Illustrator 15.0.0, SVG Export Plug-In . SVG Version: 6.00 Build 0)  -->
<!DOCTYPE svg PUBLIC "-//W3C//DTD SVG 1.1//EN" "http://www.w3.org/Graphics/SVG/1.1/DTD/svg11.dtd">
<svg version="1.1" id="Layer_1" xmlns="http://www.w3.org/2000/svg" xmlns:xlink="http://www.w3.org/1999/xlink" x="0px" y="0px"
	 width="64px" height="64px" viewBox="0 0 64 64" enable-background="new 0 0 64 64" xml:space="preserve">
<g>
	<g>
		<path fill="#62727A" d="M32.503,11.5c0,0.275-0.225,0.5-0.5,0.5l0,0c-0.273,0-0.5-0.225-0.5-0.5v-11c0-0.275,0.227-0.5,0.5-0.5
			l0,0c0.275,0,0.5,0.225,0.5,0.5V11.5z"/>
		<path fill="#62727A" d="M23.504,11.5c0,0.275-0.226,0.5-0.5,0.5l0,0c-0.274,0-0.5-0.225-0.5-0.5v-11c0-0.275,0.226-0.5,0.5-0.5
			l0,0c0.274,0,0.5,0.225,0.5,0.5V11.5z"/>
		<path fill="#62727A" d="M41.503,11.5c0,0.275-0.227,0.5-0.5,0.5l0,0c-0.275,0-0.5-0.225-0.5-0.5v-11c0-0.275,0.225-0.5,0.5-0.5
			l0,0c0.273,0,0.5,0.225,0.5,0.5V11.5z"/>
		<polygon fill="#42ADE2" points="23.504,1 23.504,5 27.504,3 		"/>
		<polygon fill="#F15744" points="32.503,1 32.503,5 36.503,3 		"/>
		<polygon fill="#FFE62E" points="41.503,1 41.503,5 45.502,3 		"/>
	</g>
	<ellipse fill="#E8E8E8" cx="32.003" cy="18.74" rx="31.997" ry="8"/>
	<ellipse fill="#B2C1C0" cx="31.975" cy="21.241" rx="29.761" ry="8"/>
	<ellipse fill="#E8E8E8" cx="31.975" cy="22.278" rx="29.064" ry="8"/>
	<ellipse fill="#62727A" cx="31.931" cy="25.521" rx="29.064" ry="8"/>
	<path fill="#83BF4F" d="M54.192,22.846c-8.471-3.652-35.667-3.935-43.832,0c-0.285,0.138-0.568,0.324-0.844,0.544
		c12.137,2.335,32.607,2.072,44.915-0.419C54.353,22.928,54.273,22.881,54.192,22.846z"/>
	<rect x="0.007" y="39.295" fill="#62727A" width="63.993" height="24.705"/>
	<g>
		<path fill="#B2C1C0" d="M11.173,12.668c-0.287,0.049-0.543,0.129-0.818,0.182l5.929,5.93c0.287-0.044,0.56-0.104,0.855-0.146
			L11.173,12.668z"/>
	</g>
	<g>
		<path fill="#B2C1C0" d="M53.651,12.85c-0.282-0.047-0.525-0.137-0.817-0.182l-5.987,5.986c0.296,0.04,0.566,0.105,0.854,0.146
			L53.651,12.85z"/>
	</g>
	<g>
		<path fill="#B2C1C0" d="M32.503,17.521V10.74c-0.332-0.002-0.666,0-1,0v6.782C31.837,17.521,32.171,17.52,32.503,17.521z"/>
	</g>
	<path fill="#83BF4F" d="M54.192,22.846c-8.471-3.652-35.667-3.935-43.832,0c-0.285,0.138-0.568,0.324-0.844,0.544
		c12.137,2.335,32.607,2.072,44.915-0.419C54.353,22.928,54.273,22.881,54.192,22.846z"/>
	<path fill="#F9F3D9" d="M18.458,24.55l1.04-2.05h12.005v2.494c0.334-0.004,0.668-0.006,1-0.011V22.5h12.006l0.9,1.777
		c0.319-0.032,0.637-0.064,0.951-0.099L45.002,21.5H19.005L17.5,24.467C17.818,24.496,18.137,24.523,18.458,24.55z"/>
	<path fill="#B2C1C0" d="M63.987,18.18c0,0.591-0.189,1.115-0.652,1.471c-8.729,6.704-56.314,7.307-62.947,0
		c-0.26-0.287-0.363-0.647-0.365-1.043H0.007v20.779C0.007,47.604,64,49.613,64,38.359V18.18H63.987z"/>
	<path fill="#E8E8E8" d="M37.553,32.923C37.25,31.865,36.104,31,35.003,31h-5.999c-1.101,0-2.247,0.865-2.55,1.923l-0.9,3.154
		C25.251,37.135,25.903,38,27.004,38h9.999c1.101,0,1.753-0.865,1.45-1.923L37.553,32.923z"/>
	<path fill="#B2C1C0" d="M37.003,36h-9.999c-1.101,0-2,0.9-2,2v10h13.999V38C39.003,36.9,38.104,36,37.003,36z"/>
	<rect x="28.004" y="40" fill="#62727A" width="7.999" height="9.269"/>
	<path fill="#FFFFFF" d="M0.007,34.719v1.502c5.036,4.26,21.251,5.443,24.973,5.66l0.049-1.184
		C12.106,39.941,2.28,37.529,0.007,34.719z"/>
	<path fill="#FFFFFF" d="M64,34c-2.171,3.676-11.343,6.227-25.02,6.816L39.017,42c6.596-0.283,20.426-1.459,24.983-6.262V34z"/>
	<path fill="#FFFFFF" d="M0.007,29.719v1.502c5.036,4.26,21.251,5.443,24.973,5.66l0.049-1.184
		C12.106,34.941,2.28,32.529,0.007,29.719z"/>
	<path fill="#FFFFFF" d="M64,29c-2.171,3.676-11.343,6.227-25.02,6.816L39.017,37c6.596-0.283,20.426-1.459,24.983-6.262V29z"/>
	<path fill="#FFFFFF" d="M0.007,24.719v1.502c5.036,4.26,21.251,5.443,24.973,5.66l0.049-1.184
		C12.106,29.941,2.28,27.529,0.007,24.719z"/>
	<path fill="#FFFFFF" d="M64,24c-2.171,3.676-11.343,6.227-25.02,6.816L39.017,32c6.596-0.283,20.426-1.459,24.983-6.262V24z"/>
	<path fill="#62727A" d="M3.5,30.622c0.003,0.31-0.221,0.459-0.491,0.333l-0.998-0.459c-0.271-0.125-0.496-0.479-0.499-0.788
		L1.5,28.378c-0.003-0.31,0.221-0.459,0.491-0.334l0.998,0.458c0.271,0.125,0.499,0.48,0.499,0.789L3.5,30.622z"/>
	<path fill="#62727A" d="M19.969,32.177l-1.052-0.055c-0.289-0.015-0.517,0.146-0.508,0.356l0.075,1.533
		c0.009,0.211,0.254,0.396,0.544,0.41l1.051,0.056c0.289,0.015,0.517-0.146,0.508-0.356l-0.075-1.533
		C20.503,32.377,20.258,32.191,19.969,32.177z"/>
	<path fill="#62727A" d="M10.977,30.916l-1.034-0.182c-0.284-0.051-0.511,0.085-0.504,0.301l0.053,1.565
		c0.007,0.216,0.245,0.433,0.529,0.483l1.034,0.182c0.284,0.051,0.511-0.085,0.504-0.301l-0.053-1.565
		C11.499,31.184,11.261,30.967,10.977,30.916z"/>
	<g>
		<path fill="#62727A" d="M60.038,30.783c-0.002,0.309,0.221,0.459,0.492,0.332l0.998-0.458c0.271-0.125,0.496-0.479,0.498-0.788
			l0.012-1.33c0.004-0.31-0.221-0.459-0.49-0.334l-0.998,0.457c-0.271,0.125-0.498,0.48-0.498,0.789L60.038,30.783z"/>
		<path fill="#62727A" d="M43.569,32.338l1.053-0.055c0.289-0.016,0.518,0.145,0.508,0.355l-0.075,1.533
			c-0.009,0.211-0.254,0.396-0.544,0.411l-1.051,0.056c-0.289,0.015-0.518-0.146-0.508-0.356l0.074-1.534
			C43.036,32.537,43.28,32.353,43.569,32.338z"/>
		<path fill="#62727A" d="M52.563,31.077l1.033-0.183c0.283-0.05,0.511,0.086,0.503,0.301l-0.053,1.566
			c-0.008,0.215-0.245,0.432-0.528,0.482l-1.035,0.182c-0.283,0.051-0.51-0.084-0.504-0.3l0.053-1.565
			C52.04,31.344,52.278,31.127,52.563,31.077z"/>
	</g>
	<polygon fill="#B2C1C0" points="0,51.5 0,52.5 7,52.5 4,59.5 5,59.5 8,52.5 14.999,52.5 11.999,59.5 12.999,59.5 15.999,52.5 
		22.498,52.5 19.998,59.5 20.998,59.5 23.998,51.5 	"/>
	<polygon fill="#B2C1C0" points="63.993,51.5 63.993,52.5 56.994,52.5 59.993,59.5 58.994,59.5 55.994,52.5 48.995,52.5 
		51.995,59.5 50.995,59.5 47.995,52.5 41.495,52.5 43.995,59.5 42.995,59.5 39.995,51.5 	"/>
</g>
</svg>
