<?xml version="1.0" encoding="utf-8"?>
<!-- Generator: Adobe Illustrator 15.0.0, SVG Export Plug-In . SVG Version: 6.00 Build 0)  -->
<!DOCTYPE svg PUBLIC "-//W3C//DTD SVG 1.1//EN" "http://www.w3.org/Graphics/SVG/1.1/DTD/svg11.dtd">
<svg version="1.1" id="Layer_1" xmlns="http://www.w3.org/2000/svg" xmlns:xlink="http://www.w3.org/1999/xlink" x="0px" y="0px"
	 width="64px" height="64px" viewBox="0 0 64 64" enable-background="new 0 0 64 64" xml:space="preserve">
<g>
	<rect fill="#B4D7EE" width="64" height="64"/>
	<path fill="#F9F3D9" d="M64,27.003c0,0-11.877-2.999-16-2.999s-10.833,2.999-16,2.999c-4.271,0-11.727-3.999-15.999-3.999
		C11.25,23.004,0,24.003,0,24.003V49h64V27.003z"/>
	<path fill="#FFDD7D" d="M0,34.657C0,34.657,16.001,29,32,29c8.016,0,32,7.543,32,7.543V64H0V34.657z"/>
	<path fill="#DBB471" d="M0,47.822C0,47.822,6.877,45,11,45s16.888,6.859,21,6.588c4.261-0.279,19.729-3.65,23.999-3.764
		C60.188,47.715,64,48.767,64,48.767V64H0V47.822z"/>
	<path fill="#699635" d="M21.225,35.518c0,1.061,0.858,1.923,1.914,1.923l0,0c1.065,0,1.923-0.862,1.923-1.923v-7.676
		c0-1.06-0.857-1.918-1.923-1.918l0,0c-1.056,0-1.914,0.858-1.914,1.918V35.518z"/>
	<path fill="#699635" d="M15.466,33.6c-1.063,0-1.922,0.857-1.922,1.918l0,0c0,1.061,0.858,1.923,1.922,1.923h7.673
		c1.063,0,1.923-0.862,1.923-1.923l0,0c0-1.061-0.86-1.918-1.923-1.918H15.466z"/>
	<path fill="#83BF4F" d="M15.848,17c-1.589,0-2.877,1.287-2.877,2.88v32.24c0,2.88,1.288,2.88,2.877,2.88s2.876,0,2.876-2.88V19.88
		C18.724,18.287,17.437,17,15.848,17z"/>
	<path fill="#699635" d="M10.088,42.045c0,0.795-0.644,1.439-1.436,1.439l0,0c-0.798,0-1.441-0.645-1.441-1.439v-5.756
		c0-0.795,0.644-1.441,1.441-1.441l0,0c0.792,0,1.436,0.646,1.436,1.441V42.045z"/>
	<path fill="#699635" d="M14.405,40.607c0.799,0,1.442,0.643,1.442,1.438l0,0c0,0.795-0.644,1.439-1.442,1.439H8.652
		c-0.797,0-1.441-0.645-1.441-1.439l0,0c0-0.795,0.645-1.438,1.441-1.438H14.405z"/>
	<path fill="#F9F3D9" d="M3,52.498c0,1.104,1.343,1,3,1s3,0.104,3-1S7.657,50.5,6,50.5S3,51.395,3,52.498z"/>
	<path fill="#FFDD7D" d="M16.303,60.084c0,1.104,1.343,1,3,1s3,0.104,3-1s-1.343-1.998-3-1.998S16.303,58.98,16.303,60.084z"/>
	<path fill="#89664C" d="M26,56.497c0,1.104,1.343,1,3,1s3,0.104,3-1s-1.343-1.998-3-1.998S26,55.394,26,56.497z"/>
	<path fill="#89664C" d="M57.272,52.284c-2.708,0.754-5.443,0.303-8.153,0.455c-0.22-0.601-0.438-1.199-0.656-1.801
		c-0.268-0.733-1.401-0.415-1.131,0.33c0.192,0.527,0.385,1.055,0.576,1.582c-0.431,0.058-0.86,0.139-1.289,0.251
		c-1.434,0.374-2.854,0.813-4.268,1.277c1.341-1.294,2.744-2.529,4.287-3.494c0.867-0.545,1.988-0.808,3.189-0.926
		c0.047,0,0.091-0.007,0.137-0.018c0.617-0.055,1.253-0.065,1.889-0.061c0.484,0.692,0.969,1.383,1.451,2.073
		c0.443,0.635,1.463,0.02,1.014-0.622c-0.328-0.47-0.659-0.941-0.988-1.412c0.986,0.045,1.93,0.108,2.729,0.13
		c0.758,0.02,0.755-1.213,0-1.232c-1.49-0.04-3.284-0.192-5.043-0.144c0.33-0.48,0.66-0.959,0.989-1.438
		c0.444-0.646-0.573-1.261-1.013-0.623c-0.496,0.725-0.995,1.446-1.492,2.171c-1.113,0.126-2.172,0.368-3.07,0.835
		c-1.769,0.922-3.363,2.333-4.852,3.797c1.013-1.975,2.217-3.929,3.933-4.982c3.281-2.014,6.658-3.106,10.394-2.416
		c0.738,0.136,1.055-1.052,0.311-1.189c-3.738-0.69-6.508,0.259-9.835,1.812c0.235-0.438,0.47-0.878,0.704-1.317
		c0.371-0.695-0.641-1.317-1.012-0.622c-0.536,1.001-1.07,2-1.605,3.001c-1.663,1.223-2.827,3.07-3.832,4.99
		c0.256-2.066,0.71-4.185,1.879-5.627c1.58-1.95,3.395-3.188,5.414-3.93c0.74,0.495,1.477,0.988,2.217,1.483
		c0.639,0.429,1.227-0.639,0.59-1.066c-0.434-0.289-0.867-0.579-1.301-0.87c1.141-0.27,2.336-0.422,3.596-0.448
		c0.756-0.015,0.757-1.248,0-1.233c-1.641,0.033-3.36,0-4.938,0.521c-2.256,0.745-4.236,2.495-5.936,4.16
		c-2.432,2.385-2.65,6.436-2.973,9.769c-0.258,0.088-0.518,0.176-0.776,0.266c-0.715,0.244-0.41,1.436,0.312,1.188
		c0.412-0.14,0.824-0.273,1.237-0.413c2.735,2.15,4.601,2.71,8.095,2.449c3.613-0.27,5.736-0.855,8.423-3.417
		c0.562-0.533-0.27-1.404-0.829-0.871c-1.048,0.998-2.008,1.642-3.02,2.087c-0.381-0.62-0.761-1.239-1.141-1.858
		c-0.409-0.666-1.424-0.049-1.013,0.622c0.337,0.55,0.675,1.102,1.014,1.651c-1.011,0.29-2.113,0.444-3.435,0.553
		c-0.612,0.05-1.249,0.117-1.885,0.138c0.355-0.661,0.71-1.32,1.064-1.982c0.375-0.693-0.64-1.314-1.012-0.623
		c-0.457,0.852-0.916,1.703-1.373,2.555c-0.572-0.07-1.128-0.213-1.646-0.491c-0.657-0.351-1.281-0.798-1.886-1.265
		c1.863-0.621,3.729-1.224,5.616-1.747c3.487-0.966,7.108,0.17,10.654-0.819C58.314,53.269,58.004,52.078,57.272,52.284z"/>
	<g>
		<path fill="#FFCE31" d="M46,10.998C46,14.313,48.688,17,52.002,17S58,14.313,58,10.998C58,7.686,55.316,5,52.002,5
			S46,7.686,46,10.998z"/>
		<g>
			<path fill="#FFFFFF" d="M47.814,2.904c-2.531,1.357-4.165,3.581-4.549,6.619c-0.055,0.432,0.566,0.621,0.622,0.182
				c0.36-2.875,1.854-4.918,4.249-6.205C48.511,3.303,48.182,2.708,47.814,2.904L47.814,2.904z"/>
		</g>
		<g>
			<path fill="#FFFFFF" d="M59.89,13.246c-0.864,3.183-2.621,5.546-5.643,6.518c-0.397,0.127-0.226,0.793,0.169,0.664
				c3.239-1.039,5.166-3.582,6.094-6.996C60.625,13.002,60.005,12.821,59.89,13.246L59.89,13.246z"/>
		</g>
		<g>
			<path fill="#FFFFFF" d="M44.162,12.998c0.504,2.893,1.727,4.882,4.059,6.442c0.355,0.237,0.674-0.36,0.326-0.596
				c-2.197-1.468-3.291-3.318-3.764-6.029C44.705,12.377,44.086,12.562,44.162,12.998L44.162,12.998z"/>
		</g>
		<g>
			<path fill="#FFFFFF" d="M58.602,6.146c-1.038-1.693-3.023-3.822-5.084-3.635c-0.411,0.038-0.412,0.727,0,0.689
				c1.818-0.165,3.608,1.793,4.531,3.296C58.273,6.867,58.83,6.52,58.602,6.146L58.602,6.146z"/>
		</g>
		<g>
			<path fill="#D6EEF0" d="M50.827,21.312c-2.427-0.037-4.457-0.771-6.289-2.5c-0.312-0.292-0.769,0.195-0.458,0.488
				c1.963,1.847,4.149,2.663,6.747,2.7C51.243,22.006,51.242,21.316,50.827,21.312L50.827,21.312z"/>
		</g>
		<g>
			<path fill="#D6EEF0" d="M60.412,16.717c-0.646,1.52-1.712,3.523-3.232,4.174c-0.38,0.16-0.213,0.83,0.174,0.665
				c1.697-0.726,2.885-2.781,3.613-4.491C61.135,16.663,60.582,16.312,60.412,16.717L60.412,16.717z"/>
		</g>
		<g>
			<path fill="#D6EEF0" d="M43.185,3.998c-2.339,2.255-1.914,7.001-0.7,9.774c0.176,0.401,0.729,0.052,0.553-0.349
				c-1.09-2.495-1.5-6.912,0.604-8.938C43.949,4.189,43.494,3.703,43.185,3.998L43.185,3.998z"/>
		</g>
		<g>
			<path fill="#D6EEF0" d="M58.179,2.58c1.849,1.789,2.644,3.858,2.677,6.515c0.006,0.444,0.648,0.444,0.645,0
				c-0.037-2.83-0.896-5.097-2.865-7.002C58.326,1.796,57.871,2.281,58.179,2.58L58.179,2.58z"/>
		</g>
	</g>
</g>
</svg>
