<?xml version="1.0" encoding="utf-8"?>
<!-- Generator: Adobe Illustrator 15.0.0, SVG Export Plug-In . SVG Version: 6.00 Build 0)  -->
<!DOCTYPE svg PUBLIC "-//W3C//DTD SVG 1.1//EN" "http://www.w3.org/Graphics/SVG/1.1/DTD/svg11.dtd">
<svg version="1.1" id="Layer_1" xmlns="http://www.w3.org/2000/svg" xmlns:xlink="http://www.w3.org/1999/xlink" x="0px" y="0px"
	 width="64px" height="64px" viewBox="0 0 64 64" enable-background="new 0 0 64 64" xml:space="preserve">
<g>
	<g>
		<path fill="#FF8736" d="M49.542,37.086c-6.881,0-12.458,5.574-12.458,12.459C37.084,56.422,42.661,62,49.542,62
			S62,56.422,62,49.545C62,42.66,56.423,37.086,49.542,37.086z"/>
	</g>
	<g>
		<g>
			<path fill="#3E4347" d="M55.286,5.252l-5.002,11.26l3.342-12.5L55.804,2h-2.755L18.551,41.766
				c-1.525,1.824-4.29,2.02-6.168,0.439s-2.164-4.34-0.638-6.166c1.522-1.816,1.236-4.578-0.645-6.156
				c-1.88-1.58-4.642-1.383-6.165,0.434c-4.571,5.457-3.709,13.75,1.921,18.486c5.536,4.66,13.642,4.156,18.255-1.049L59.322,5.322
				l-1.505-2.15L55.286,5.252z"/>
			<polygon fill="#3E4347" points="59.322,2 60.564,3.779 59.832,4.688 62,2 			"/>
			<polygon opacity="0.5" fill="#C7E755" points="59.322,5.322 59.832,4.688 59.322,5.322 			"/>
			<polygon fill="#3E4347" points="59.322,2 59.242,2 57.817,3.172 59.322,5.322 59.832,4.688 60.564,3.779 			"/>
			<polygon opacity="0.5" fill="#C7E755" points="59.322,2 59.242,2 57.817,3.172 59.322,5.322 59.832,4.688 60.564,3.779 			"/>
			<polygon fill="#C7E755" points="57.768,2 55.804,2 53.626,4.012 50.284,16.512 55.286,5.252 57.817,3.172 57.296,2.426 			"/>
			<polygon fill="#C7E755" points="57.296,2.426 57.817,3.172 59.242,2 57.768,2 			"/>
		</g>
		<g>
			<polygon fill="#C7E755" points="46.022,12.1 20.964,42.027 21.49,42.885 46.547,12.955 			"/>
			<polygon fill="#C7E755" points="47.072,13.811 22.015,43.74 22.539,44.598 47.599,14.666 			"/>
			<polygon fill="#C7E755" points="23.065,45.453 23.59,46.311 48.647,16.381 48.125,15.523 			"/>
			<polygon opacity="0.5" fill="#C7E755" points="54.45,5 56.834,8.406 58.077,6.867 55.874,3.713 			"/>
			<polygon opacity="0.5" fill="#C7E755" points="52.865,9.381 54.346,11.494 55.588,9.951 53.657,7.188 			"/>
			<polygon opacity="0.5" fill="#C7E755" points="51.281,13.756 51.857,14.58 53.102,13.035 52.073,11.566 			"/>
			<polygon fill="#C7E755" points="11.128,43.688 5.769,44.156 11.599,49.061 			"/>
		</g>
	</g>
</g>
</svg>
