<?xml version="1.0" encoding="utf-8"?>
<!-- Generator: Adobe Illustrator 15.0.0, SVG Export Plug-In . SVG Version: 6.00 Build 0)  -->
<!DOCTYPE svg PUBLIC "-//W3C//DTD SVG 1.1//EN" "http://www.w3.org/Graphics/SVG/1.1/DTD/svg11.dtd">
<svg version="1.1" id="Layer_1" xmlns="http://www.w3.org/2000/svg" xmlns:xlink="http://www.w3.org/1999/xlink" x="0px" y="0px"
	 width="64px" height="64px" viewBox="0 0 64 64" enable-background="new 0 0 64 64" xml:space="preserve">
<g>
	<g>
		<rect fill="#D6EEF0" width="64" height="64"/>
		<polygon fill="#B2C1C0" points="0,15 4,11 10.5,7 22,16 38,37 0,37 		"/>
		<polygon opacity="0.5" fill="#B2C1C0" points="38,37 22,16 10.5,7 9,14 13,18 12,24 16,28 14,37 		"/>
		<polygon fill="#FFFFFF" points="10.5,7 4,11 2,13 5,13 3.5,17.091 8,15.046 9,20 13,18 16.875,20 16.875,16.5 22,16 		"/>
		<polygon opacity="0.5" fill="#B2C1C0" points="38,37 22,16 10.5,7 10,12 13,18 12,24 16,28 14,37 		"/>
		<g>
			<path fill="#83BF4F" d="M0.019,32C0.083,32-0.046,32,0.019,32L0.019,32z"/>
			<path fill="#83BF4F" d="M50.193,34.498l0.006,0.029C46.962,33.117,43.613,32.023,40,32c-3.61-0.025-6.771,1.65-9.607,2.391
				C14,38.667,0,32,0,32v32h64V36.254C59.612,36.817,54.778,36.234,50.193,34.498z"/>
		</g>
		<circle fill="#699635" cx="5" cy="45.001" r="4"/>
		<circle fill="#699635" cx="6" cy="40" r="3"/>
		<circle fill="#699635" cx="12.167" cy="43" r="6"/>
		<rect x="55.818" y="33.818" fill="#89664C" width="2.727" height="8.182"/>
		<path fill="#699635" d="M59.363,22.874c-1.2-2.256-3.162-2.256-4.363,0l-4.173,7.844c-1.201,2.255,0.013,4.101,2.696,4.101
			c0,0,2.711-1,3.658-1s3.658,1,3.658,1c2.684,0,3.897-1.846,2.696-4.101L59.363,22.874z"/>
		<path fill="#75A843" d="M58.926,18.444c-0.958-1.804-2.525-1.804-3.488,0l-3.34,6.276C51.139,26.524,52.108,28,54.255,28
			c0,0,2.195-1,2.927-1s2.925,1,2.925,1c2.149,0,3.12-1.476,2.159-3.279L58.926,18.444z"/>
		<path fill="#83BF4F" d="M58.488,14.015c-0.718-1.354-1.894-1.354-2.613,0l-2.506,4.707c-0.721,1.353,0.008,2.459,1.619,2.459
			c0,0,1.645-1,2.193-1c0.548,0,2.192,1,2.192,1c1.612,0,2.341-1.107,1.62-2.459L58.488,14.015z"/>
		<path fill="#FFFFFF" d="M34,7c0,1.104-0.896,2-2,2H22c-1.104,0-2-0.896-2-2l0,0c0-1.104,0.896-2,2-2h10C33.104,5,34,5.896,34,7
			L34,7z"/>
		<path fill="#FFFFFF" d="M38,9c0,1.104-0.896,2-2,2h-4c-1.104,0-2-0.896-2-2l0,0c0-1.104,0.896-2,2-2h4C37.104,7,38,7.896,38,9
			L38,9z"/>
		<path fill="#FFFFFF" d="M42,17c0,1.104-0.896,2-2,2h-4c-1.104,0-2-0.896-2-2l0,0c0-1.104,0.896-2,2-2h4C41.104,15,42,15.896,42,17
			L42,17z"/>
		<path fill="#FFFFFF" d="M52,12c0,1.104-0.896,2-2,2h-4c-1.104,0-2-0.896-2-2l0,0c0-1.104,0.896-2,2-2h4C51.104,10,52,10.896,52,12
			L52,12z"/>
		<polygon fill="#FFDD7D" points="30.834,36.009 48.838,36.009 56.182,49.389 53.69,55.639 38.282,58.164 		"/>
		<polygon fill="#DBB471" points="24.398,55.03 23.136,49.322 30.834,36.009 39.544,52.646 38.282,59.164 		"/>
		<polygon fill="#89664C" points="30.834,36.009 26.972,55.816 33.056,57.607 		"/>
		<path fill="#FFDD7D" d="M30.834,36.009c0,0,1.374,12.142,3.661,16.638l-1.439,4.961L30.834,36.009z"/>
		<path fill="#FFDD7D" d="M26.972,55.816l-1.363-3.903c0,0,4.455-11.611,5.226-15.904L26.972,55.816z"/>
		<circle fill="#699635" cx="19" cy="45" r="4"/>
	</g>
</g>
<polygon fill="#DBB471" points="38.544,51.646 56.182,49.389 54.69,56.639 38.282,59.164 "/>
</svg>
