<?xml version="1.0" encoding="utf-8"?>
<!-- Generator: Adobe Illustrator 15.0.0, SVG Export Plug-In . SVG Version: 6.00 Build 0)  -->
<!DOCTYPE svg PUBLIC "-//W3C//DTD SVG 1.1//EN" "http://www.w3.org/Graphics/SVG/1.1/DTD/svg11.dtd">
<svg version="1.1" id="Layer_1" xmlns="http://www.w3.org/2000/svg" xmlns:xlink="http://www.w3.org/1999/xlink" x="0px" y="0px"
	 width="64px" height="64px" viewBox="0 0 64 64" enable-background="new 0 0 64 64" xml:space="preserve">
<g>
	<path fill="#3E4347" d="M12.063,37.264v-2.067h-1.875v2.951c0,0.544,0.419,0.983,0.938,0.983c1.551,0,2.813,1.324,2.813,2.951
		s-1.262,2.951-2.813,2.951s-2.813-1.324-2.813-2.951c0-0.544-0.419-0.983-0.938-0.983s-0.938,0.439-0.938,0.983
		C6.438,44.794,8.54,47,11.125,47s4.688-2.206,4.688-4.918C15.813,39.707,14.199,37.719,12.063,37.264z"/>
	<path fill="#3E4347" d="M58,8H11.941L6,20h52v-3h-2.077L58,13.055V8z M10.644,17l2.336-4.799L15.505,17H10.644z M15.065,11h4.154
		l-2.076,3.945L15.065,11z M18.78,17l2.076-3.945L22.935,17H18.78z M22.495,11h4.152l-2.076,3.945L22.495,11z M26.209,17
		l2.077-3.945L30.362,17H26.209z M29.923,11h4.154L32,14.945L29.923,11z M33.638,17l2.076-3.945L37.791,17H33.638z M54.286,14.945
		L52.209,11h4.153L54.286,14.945z"/>
	<rect x="10.125" y="19" fill="#3E4347" width="2" height="10"/>
	<polygon fill="#FFE62E" points="12.792,28 9.458,28 6.125,32 16.125,32 	"/>
	<polygon fill="#FFCE31" points="6.125,32 9.458,36 12.792,36 16.125,32 	"/>
	<g>
		<path fill="#FFCE31" d="M49.375,29v3.001L40.625,29H38v33h2.625v-6l8.75,3l-8.75,3H52V29H49.375z M49.375,56l-8.75-3l8.75-3V56z
			 M40.625,50v-6.001l8.75,3.002L40.625,50z M49.375,43.999l-8.75-3L49.375,38V43.999z M40.625,38v-5.999L49.375,35L40.625,38z"/>
	</g>
	<g>
		<path fill="#FFE62E" d="M54,27.199C54,28.74,52.842,30,51.433,30H38.567C37.158,30,36,28.74,36,27.199V4.801
			C36,3.26,37.158,2,38.567,2h12.863C52.842,2,54,3.26,54,4.801V27.199z"/>
		<g>
			<path fill="#FFCE31" d="M38.875,15.247c0,0.964,0.674,1.753,1.498,1.753h9.003c0.823,0,1.499-0.789,1.499-1.753V6.758
				C50.875,5.789,50.199,5,49.376,5h-9.003c-0.824,0-1.498,0.789-1.498,1.758V15.247z"/>
		</g>
	</g>
	<path fill="#FFCE31" d="M50.875,25c0,1.1-0.772,2-1.714,2h-8.572c-0.941,0-1.714-0.9-1.714-2v-4c0-1.1,0.772-2,1.714-2h8.572
		c0.941,0,1.714,0.9,1.714,2V25z"/>
</g>
</svg>
