<?xml version="1.0" encoding="utf-8"?>
<!-- Generator: Adobe Illustrator 15.0.0, SVG Export Plug-In . SVG Version: 6.00 Build 0)  -->
<!DOCTYPE svg PUBLIC "-//W3C//DTD SVG 1.1//EN" "http://www.w3.org/Graphics/SVG/1.1/DTD/svg11.dtd">
<svg version="1.1" id="Layer_1" xmlns="http://www.w3.org/2000/svg" xmlns:xlink="http://www.w3.org/1999/xlink" x="0px" y="0px"
	 width="64px" height="64px" viewBox="0 0 64 64" enable-background="new 0 0 64 64" xml:space="preserve">
<g>
	<g>
		<path fill="#3E4347" d="M23.345,36.924c-5.492-0.373-12.108-1.699-18.502-3.168c-1.888-0.404-4.066,9.428-2.014,10.076
			c12.804,4.045,26.298,2.992,31.294,2.201c1.752-0.273,3.145-2.41,3.157-2.434l7.971-13.412l-4.638-2.85
			C33.489,35.775,26.864,37.168,23.345,36.924z"/>
		<path fill="#ED4C5C" d="M56.473,2c0,0-14.149,23.311-15.86,25.338l4.638,2.85L62,2H56.473z"/>
	</g>
	<g>
		<g>
			<ellipse fill="#3E4347" cx="48.743" cy="57.02" rx="13.257" ry="4.98"/>
			<ellipse fill="#3E4347" cx="48.743" cy="51.076" rx="13.257" ry="4.979"/>
			<rect x="35.485" y="51.076" fill="#3E4347" width="26.515" height="5.943"/>
			<ellipse opacity="0.5" fill="#B2C1C0" cx="48.743" cy="51.076" rx="13.257" ry="4.979"/>
		</g>
		<g>
			<line fill="#3E4347" x1="56.473" y1="2" x2="62" y2="2"/>
			<g>
				<path fill="#E8E8E8" d="M9.131,34.609L7.534,45.469c8.458,1.854,16.721,1.711,22.173,1.195l1.767-12.002
					c-3.344,1.799-6.178,2.199-8.088,2.086C19.103,36.5,14.137,35.652,9.131,34.609z"/>
				<path fill="#B2C1C0" d="M9.239,45.807c0.496,0.094,0.992,0.184,1.486,0.264l2.782-10.604c-0.493-0.094-0.985-0.182-1.483-0.277
					L9.239,45.807z"/>
				<path fill="#B2C1C0" d="M24.153,46.98c0.537-0.014,1.068-0.023,1.58-0.049l3.618-11.293c-0.608,0.242-1.198,0.449-1.757,0.602
					L24.153,46.98z"/>
				<path fill="#B2C1C0" d="M16.118,46.732c0.51,0.045,1.015,0.084,1.516,0.111l0.77-10.6c-0.501-0.068-1-0.135-1.509-0.209
					L16.118,46.732z"/>
				<path fill="#B2C1C0" d="M22.142,36.65l-2.27,10.301c0.518,0.02,1.035,0.039,1.539,0.045l2.256-10.242
					c-0.092-0.004-0.193,0-0.281-0.006C22.981,36.725,22.558,36.688,22.142,36.65z"/>
			</g>
		</g>
	</g>
</g>
</svg>
