<?xml version="1.0" encoding="utf-8"?>
<!-- Generator: Adobe Illustrator 15.0.0, SVG Export Plug-In . SVG Version: 6.00 Build 0)  -->
<!DOCTYPE svg PUBLIC "-//W3C//DTD SVG 1.1//EN" "http://www.w3.org/Graphics/SVG/1.1/DTD/svg11.dtd">
<svg version="1.1" id="Layer_1" xmlns="http://www.w3.org/2000/svg" xmlns:xlink="http://www.w3.org/1999/xlink" x="0px" y="0px"
	 width="64px" height="64px" viewBox="0 0 64 64" enable-background="new 0 0 64 64" xml:space="preserve">
<g>
	<rect fill="#B4D7EE" width="64" height="64"/>
	<g>
		<polygon opacity="0.33" fill="#62727A" points="64,33.648 51,36.215 41.999,31.5 12.25,36.391 0,33.437 0,63.5 64,63.5 		"/>
		<polygon opacity="0.33" fill="#62727A" points="0,43.648 10,47.215 22.001,41.5 58.75,47.391 64,43.437 64,63.5 0,63.5 		"/>
		<polygon fill="#62727A" points="55.75,49.705 45,41.214 34,23 27.75,32.101 19,38.121 14.5,47.47 10,49.705 0,64 64,64 		"/>
		<polygon fill="#FFFFFF" points="34,23 32.334,30.537 36.834,36.557 31.334,36.306 39.334,42 33.334,45.841 27.667,58.383 
			29.167,49.351 18.001,47.094 30.501,43.078 27.75,32.101 		"/>
		<polygon fill="#FFFFFF" points="51.037,45.983 45.5,52.11 37.5,58.383 49,53.688 55.75,49.705 		"/>
		<polygon fill="#FFFFFF" points="14.5,47.47 10,49.705 18.001,56.125 		"/>
	</g>
	<path fill="#FFFFFF" d="M43.9,19.558c-0.201-0.267-0.324-0.594-0.324-0.951c0-0.888,0.732-1.606,1.636-1.606
		c0.817,0,1.49,0.591,1.612,1.361c0.455-0.186,0.954-0.291,1.479-0.291c1.519,0,2.821,0.867,3.457,2.115
		c0.345-0.416,0.863-0.687,1.452-0.687c0.331,0,0.636,0.091,0.906,0.238c0.558-0.989,1.619-1.667,2.852-1.667
		c1.343,0,2.493,0.796,2.998,1.932c0.09-0.015,0.182-0.027,0.275-0.027c0.97,0,1.757,0.772,1.757,1.726s-0.787,1.725-1.757,1.725
		c-0.258,0-0.5-0.057-0.72-0.154c-0.6,0.742-1.514,1.227-2.554,1.227c-0.02,0-0.039-0.006-0.061-0.006
		c-0.186,0.687-0.817,1.195-1.575,1.195c-0.223,0-0.437-0.045-0.63-0.124C54.208,26.417,53.283,27,52.21,27
		c-1.124,0-2.088-0.639-2.563-1.562c-0.42,0.153-0.87,0.249-1.345,0.249c-1.282,0-2.41-0.618-3.115-1.56
		c-0.242,0.078-0.495,0.132-0.763,0.132c-1.34,0-2.425-1.066-2.425-2.381C42,20.741,42.814,19.794,43.9,19.558z"/>
	<path fill="#B4D7EE" d="M59.779,22.147c-0.245,0-0.475-0.048-0.684-0.13c-0.571,0.625-1.439,1.032-2.428,1.032
		c-0.02,0-0.038-0.005-0.06-0.005c-0.175,0.578-0.774,1.007-1.495,1.007c-0.214,0-0.416-0.038-0.599-0.104
		c-0.473,0.72-1.352,1.211-2.373,1.211c-1.068,0-1.984-0.538-2.436-1.315c-0.399,0.129-0.827,0.21-1.278,0.21
		c-1.219,0-2.293-0.521-2.962-1.313c-0.23,0.065-0.471,0.111-0.726,0.111c-0.457,0-0.883-0.119-1.24-0.32
		c0.333,0.685,1.055,1.162,1.896,1.162c0.231,0,0.45-0.045,0.659-0.111c0.608,0.793,1.585,1.313,2.692,1.313
		c0.409,0,0.8-0.08,1.162-0.209C50.319,25.462,51.152,26,52.125,26c0.928,0,1.727-0.491,2.155-1.211
		c0.167,0.067,0.352,0.104,0.544,0.104c0.654,0,1.201-0.428,1.361-1.006c0.02,0,0.036,0.005,0.053,0.005
		c0.899,0,1.688-0.408,2.207-1.033c0.189,0.082,0.399,0.13,0.621,0.13c0.668,0,1.229-0.415,1.434-0.989
		C60.28,22.092,60.039,22.147,59.779,22.147z"/>
	<path fill="#FFFFFF" d="M28.339,8.581c0.282-0.374,0.455-0.831,0.455-1.332C28.794,6.007,27.768,5,26.503,5
		c-1.145,0-2.086,0.827-2.257,1.905c-0.638-0.26-1.336-0.406-2.069-0.406c-2.127,0-3.95,1.213-4.841,2.961
		c-0.482-0.582-1.208-0.962-2.032-0.962c-0.464,0-0.891,0.128-1.27,0.334c-0.78-1.385-2.267-2.333-3.992-2.333
		c-1.88,0-3.49,1.114-4.197,2.703C5.719,9.183,5.591,9.164,5.46,9.164C4.102,9.164,3,10.246,3,11.58s1.102,2.415,2.46,2.415
		c0.36,0,0.699-0.08,1.007-0.216c0.84,1.038,2.12,1.717,3.575,1.717c0.028,0,0.056-0.008,0.085-0.009
		c0.26,0.961,1.145,1.674,2.206,1.674c0.312,0,0.61-0.063,0.882-0.174C13.908,18.184,15.203,19,16.706,19
		c1.573,0,2.923-0.895,3.587-2.187c0.589,0.215,1.219,0.349,1.884,0.349c1.794,0,3.373-0.865,4.361-2.184
		c0.339,0.11,0.692,0.185,1.067,0.185c1.875,0,3.395-1.492,3.395-3.333C31,10.238,29.86,8.911,28.339,8.581z"/>
	<path fill="#B4D7EE" d="M27.127,12.181c-0.358,0-0.696-0.063-1.018-0.152c-0.94,1.088-2.443,1.803-4.153,1.803
		c-0.633,0-1.231-0.11-1.793-0.288c-0.634,1.066-1.916,1.806-3.416,1.806c-1.432,0-2.663-0.675-3.322-1.662
		c-0.259,0.092-0.544,0.144-0.842,0.144c-1.011,0-1.853-0.589-2.099-1.383c-0.029,0.002-0.054,0.008-0.082,0.008
		c-1.387,0-2.603-0.562-3.404-1.417c-0.293,0.111-0.616,0.177-0.959,0.177C5.665,11.215,5.315,11.133,5,11
		c0.073,1.04,0.981,1.866,2.104,1.866c0.309,0,0.6-0.064,0.865-0.177c0.723,0.856,1.823,1.417,3.074,1.417
		c0.024,0,0.048-0.007,0.073-0.008c0.224,0.795,0.984,1.383,1.897,1.383c0.267,0,0.524-0.052,0.76-0.143
		C14.368,16.326,15.482,17,16.775,17c1.353,0,2.513-0.739,3.084-1.806c0.506,0.178,1.049,0.288,1.621,0.288
		c1.542,0,2.9-0.715,3.75-1.803c0.291,0.09,0.597,0.152,0.919,0.152c1.398,0,2.564-0.931,2.851-2.169
		C28.469,11.986,27.826,12.181,27.127,12.181z"/>
</g>
</svg>
