<?xml version="1.0" encoding="utf-8"?>
<!-- Generator: Adobe Illustrator 15.0.0, SVG Export Plug-In . SVG Version: 6.00 Build 0)  -->
<!DOCTYPE svg PUBLIC "-//W3C//DTD SVG 1.1//EN" "http://www.w3.org/Graphics/SVG/1.1/DTD/svg11.dtd">
<svg version="1.1" id="Layer_1" xmlns="http://www.w3.org/2000/svg" xmlns:xlink="http://www.w3.org/1999/xlink" x="0px" y="0px"
	 width="64px" height="64px" viewBox="0 0 64 64" enable-background="new 0 0 64 64" xml:space="preserve">
<g>
	<g>
		<path fill="#ED4C5C" d="M55.324,8.659c-6.211-6.193-20.527-11.897-34.079,1.616c-8.963,8.939-12.169,20.233,0,32.372
			c12.172,12.138,23.496,8.937,32.454,0C67.252,29.133,61.533,14.85,55.324,8.659z"/>
		<path fill="#FED0AC" d="M30.811,49.293L14.579,33.107c0,0,3.413,7.929-2.432,13.76c0,0-4.938,4.924-10.147,9.433
			c0.586,1.167,0.362,1.336,2.545,3.511C6.319,61.581,6.449,61.445,7.421,62c4.555-5.254,9.596-10.277,9.596-10.277
			C22.857,45.893,30.811,49.293,30.811,49.293z"/>
		<path opacity="0.5" fill="#D3976E" d="M7.588,61.807c3.322-3.814,6.856-7.475,8.493-9.141l8.708-9.374l-4.19-4.183l-9.398,8.689
			C9.523,49.436,5.842,52.977,2,56.3c0.586,1.167,0.362,1.336,2.545,3.511c1.762,1.758,1.904,1.639,2.852,2.18
			c0.054-0.054,0.106-0.097,0.161-0.149L7.588,61.807z"/>
		<path fill="#D3976E" d="M5.899,61.066c0.6,0.49,0.883,0.572,1.498,0.924c0.054-0.054,0.106-0.097,0.161-0.149l0.03-0.034
			c3.322-3.814,6.856-7.475,8.493-9.141l8.708-9.374l-2.397,1.444L5.899,61.066z"/>
		<g>
			<path fill="#3E4347" d="M30.811,49.293l-6.021-6.001l-8.081,8.698C18.337,50.395,23.156,46.684,30.811,49.293z"/>
			<path fill="#3E4347" d="M14.579,33.107l6.021,6.002l-8.726,8.063C13.479,45.545,17.2,40.738,14.579,33.107z"/>
		</g>
	</g>
	<g>
		<circle fill="#FF8736" cx="54.138" cy="54.138" r="7.862"/>
		<path fill="#FF8736" d="M59.594,51.102c-0.395,0.776-1.969,0.763-3.516-0.023c-1.549-0.791-2.484-2.058-2.088-2.829
			c0.393-0.776,1.967-0.763,3.514,0.024C59.053,49.063,59.99,50.33,59.594,51.102z"/>
	</g>
</g>
</svg>
