<?xml version="1.0" encoding="utf-8"?>
<!-- Generator: Adobe Illustrator 15.0.0, SVG Export Plug-In . SVG Version: 6.00 Build 0)  -->
<!DOCTYPE svg PUBLIC "-//W3C//DTD SVG 1.1//EN" "http://www.w3.org/Graphics/SVG/1.1/DTD/svg11.dtd">
<svg version="1.1" id="Layer_1" xmlns="http://www.w3.org/2000/svg" xmlns:xlink="http://www.w3.org/1999/xlink" x="0px" y="0px"
	 width="64px" height="64px" viewBox="0 0 64 64" enable-background="new 0 0 64 64" xml:space="preserve">
<g>
	<g>
		<path fill="#83BF4F" d="M36.392,54.661c0-1.161-0.942-2.104-2.103-2.104c-0.239,0-0.465,0.047-0.679,0.122
			c-0.252-0.536-0.792-0.91-1.425-0.91c-0.37,0-0.706,0.132-0.976,0.347c0.025-0.112,0.041-0.228,0.041-0.347
			c0-0.871-0.706-1.578-1.576-1.578c-0.776,0-1.418,0.563-1.55,1.3c-0.183-0.151-0.414-0.249-0.672-0.249
			c-0.58,0-1.051,0.471-1.051,1.053v6.309h8.413c0.87,0,1.576-0.707,1.576-1.576c0-0.426-0.169-0.808-0.441-1.092
			C36.224,55.582,36.392,55.143,36.392,54.661z"/>
		<path fill="#699635" d="M36.392,57.027c0-0.426-0.169-0.808-0.441-1.092c0.273-0.354,0.441-0.793,0.441-1.274
			c0-1.161-0.942-2.104-2.103-2.104c-0.239,0-0.465,0.047-0.679,0.122c-0.16-0.342-0.439-0.617-0.783-0.772
			c-0.552,0.245-0.937,0.797-0.937,1.439c0,0.153,0.029,0.3,0.069,0.441c-0.141-0.07-0.297-0.114-0.465-0.114
			c-0.58,0-1.051,0.473-1.051,1.053c0,0.397,0.226,0.742,0.552,0.92c-0.239,0.31-0.388,0.693-0.388,1.117
			c0,1.005,0.808,1.819,1.809,1.838l-0.001,0.002h2.399C35.686,58.604,36.392,57.896,36.392,57.027z"/>
		<path fill="#699635" d="M30.2,57.256c0,0.582-0.471-0.229-1.052-0.229s-1.052,0.811-1.052,0.229c0-0.58,0.471-1.051,1.052-1.051
			S30.2,56.676,30.2,57.256z"/>
		<path fill="#699635" d="M27.87,55.452c0,0.291-0.235,0-0.526,0c-0.29,0-0.525,0.291-0.525,0c0-0.289,0.235-0.525,0.525-0.525
			C27.635,54.927,27.87,55.163,27.87,55.452z"/>
		<path fill="#83BF4F" d="M28.769,53.872c0,0.291-0.234-0.088-0.526-0.088c-0.291,0-0.525,0.379-0.525,0.088
			s0.234-0.525,0.525-0.525C28.534,53.347,28.769,53.581,28.769,53.872z"/>
		<path fill="#83BF4F" d="M33.157,56.501c0,0.394-0.318-0.192-0.712-0.192s-0.712,0.586-0.712,0.192s0.318-0.712,0.712-0.712
			S33.157,56.107,33.157,56.501z"/>
		<path fill="#83BF4F" d="M35.196,54.535c0,0.584-0.474-0.336-1.058-0.336c-0.583,0-1.057,0.92-1.057,0.336s0.474-1.057,1.057-1.057
			C34.723,53.479,35.196,53.951,35.196,54.535z"/>
		<path fill="#83BF4F" d="M35.23,57.03c0,0.29-0.234,0-0.526,0c-0.291,0-0.525,0.29-0.525,0c0-0.291,0.234-0.525,0.525-0.525
			C34.996,56.505,35.23,56.739,35.23,57.03z"/>
		<path fill="#83BF4F" d="M30.529,52.821c0,0.394-0.319-0.192-0.713-0.192c-0.393,0-0.712,0.586-0.712,0.192
			s0.319-0.713,0.712-0.713C30.21,52.108,30.529,52.428,30.529,52.821z"/>
	</g>
	<rect x="2" y="58.295" fill="#83BF4F" width="60" height="3.705"/>
	<g>
		<g>
			<rect x="53.35" y="12.032" fill="#D0D0D0" width="2.436" height="4.581"/>
			<rect x="55.785" y="12.032" fill="#94989B" width="1.624" height="4.581"/>
			<rect x="52.537" y="10.427" fill="#D0D0D0" width="4.061" height="1.605"/>
			<rect x="56.598" y="10.427" fill="#94989B" width="1.625" height="1.605"/>
		</g>
		<rect x="34.785" y="39.771" fill="#F9F3D9" width="26.25" height="18.524"/>
		<rect x="37.598" y="18.89" fill="#F9F3D9" width="20.625" height="17.175"/>
		<polygon fill="#ED4C5C" points="61.973,39.771 33.848,39.771 37.598,36.064 58.223,36.064 		"/>
		<g>
			<rect x="39.473" y="46.254" fill="#89664C" width="6.563" height="12.041"/>
			<rect x="38.535" y="44.4" fill="#DBB471" width="8.438" height="1.854"/>
			<ellipse fill="#F9F3D9" cx="44.629" cy="52.273" rx="0.632" ry="0.626"/>
		</g>
		<polygon fill="#ED4C5C" points="47.91,9.5 33.82,18.89 62,18.89 		"/>
		<g>
			<rect x="50.497" y="45.339" fill="#D6EEF0" width="7.699" height="7.709"/>
			<path fill="#89664C" d="M49.536,44.378v9.632h9.624v-9.632H49.536z M58.196,45.339v3.371h-3.368v-3.371H58.196z M53.864,45.339
				v3.371h-3.367v-3.371H53.864z M50.497,53.048v-3.373h3.367v3.373H50.497z M54.828,53.048v-3.373h3.368v3.373H54.828z"/>
		</g>
		<g>
			<rect x="44.06" y="23.522" fill="#D6EEF0" width="7.698" height="7.708"/>
			<path fill="#89664C" d="M43.098,22.561v9.632h9.624v-9.632H43.098z M51.758,23.522v3.371H48.39v-3.371H51.758z M47.427,23.522
				v3.371H44.06v-3.371H47.427z M44.06,31.23v-3.372h3.367v3.372H44.06z M48.39,31.23v-3.372h3.368v3.372H48.39z"/>
		</g>
	</g>
	<g>
		<g>
			<rect x="21.53" y="12.032" fill="#D0D0D0" width="2.435" height="4.581"/>
			<rect x="23.965" y="12.032" fill="#94989B" width="1.625" height="4.581"/>
			<rect x="20.717" y="10.427" fill="#D0D0D0" width="4.061" height="1.605"/>
			<rect x="24.777" y="10.427" fill="#94989B" width="1.625" height="1.605"/>
		</g>
		<rect x="2.965" y="39.771" fill="#F9F3D9" width="26.25" height="18.524"/>
		<rect x="5.777" y="18.89" fill="#F9F3D9" width="20.625" height="17.175"/>
		<g>
			<rect x="7.652" y="46.254" fill="#89664C" width="6.563" height="12.041"/>
			<rect x="6.715" y="44.4" fill="#DBB471" width="8.438" height="1.854"/>
			<ellipse fill="#F9F3D9" cx="12.809" cy="52.273" rx="0.632" ry="0.626"/>
		</g>
		<polygon fill="#ED4C5C" points="16.09,9.5 2,18.89 30.18,18.89 		"/>
		<g>
			<rect x="12.239" y="23.522" fill="#D6EEF0" width="7.698" height="7.708"/>
			<path fill="#89664C" d="M11.278,22.561v9.632h9.624v-9.632H11.278z M19.938,23.522v3.371h-3.368v-3.371H19.938z M15.606,23.522
				v3.371h-3.367v-3.371H15.606z M12.239,31.23v-3.372h3.367v3.372H12.239z M16.569,31.23v-3.372h3.368v3.372H16.569z"/>
		</g>
		<g>
			<rect x="18.678" y="45.339" fill="#D6EEF0" width="7.698" height="7.709"/>
			<path fill="#89664C" d="M17.716,44.378v9.632h9.624v-9.632H17.716z M26.376,45.339v3.371h-3.368v-3.371H26.376z M22.045,45.339
				v3.371h-3.367v-3.371H22.045z M18.678,53.048v-3.373h3.367v3.373H18.678z M23.008,53.048v-3.373h3.368v3.373H23.008z"/>
		</g>
		<polygon fill="#ED4C5C" points="30.152,39.771 2.027,39.771 5.777,36.064 26.402,36.064 		"/>
	</g>
</g>
</svg>
