<?xml version="1.0" encoding="utf-8"?>
<!-- Generator: Adobe Illustrator 15.0.0, SVG Export Plug-In . SVG Version: 6.00 Build 0)  -->
<!DOCTYPE svg PUBLIC "-//W3C//DTD SVG 1.1//EN" "http://www.w3.org/Graphics/SVG/1.1/DTD/svg11.dtd">
<svg version="1.1" id="Layer_1" xmlns="http://www.w3.org/2000/svg" xmlns:xlink="http://www.w3.org/1999/xlink" x="0px" y="0px"
	 width="64px" height="64px" viewBox="0 0 64 64" enable-background="new 0 0 64 64" xml:space="preserve">
<g>
	<rect fill="#D6EEF0" width="64" height="64"/>
	<circle fill="#FFE62E" cx="52" cy="12" r="7"/>
	<path fill="#FFFFFF" d="M22,7c0,1.104-0.896,2-2,2H10C8.896,9,8,8.104,8,7l0,0c0-1.104,0.896-2,2-2h10C21.104,5,22,5.896,22,7L22,7
		z"/>
	<path fill="#FFFFFF" d="M26,9c0,1.104-0.896,2-2,2h-4c-1.104,0-2-0.896-2-2l0,0c0-1.104,0.896-2,2-2h4C25.104,7,26,7.896,26,9L26,9
		z"/>
	<path fill="#FFFFFF" d="M40,12c0,1.104-0.896,2-2,2h-4c-1.104,0-2-0.896-2-2l0,0c0-1.104,0.896-2,2-2h4C39.104,10,40,10.896,40,12
		L40,12z"/>
	<path fill="#FFFFFF" d="M19,19c0,1.104-0.896,2-2,2h-4c-1.104,0-2-0.896-2-2l0,0c0-1.104,0.896-2,2-2h4C18.104,17,19,17.896,19,19
		L19,19z"/>
	<rect y="32" fill="#42ADE2" width="64" height="32"/>
	<path fill="#428BC1" d="M55,51.238C53.782,57.482,45.809,58,32,58c-13.808,0-21.782-0.518-23-6.762C7.688,44.512,18.192,40,32,40
		C45.809,40,56.312,44.513,55,51.238z"/>
	<path fill="#FFDD7D" d="M53,50.307C51.567,55.441,43.597,55,32,55c-11.598,0-19.567,0.441-21-4.693C9.364,44.445,20.402,38,32,38
		C43.597,38,54.636,44.445,53,50.307z"/>
	<path fill="#83BF4F" d="M42,47.058c0,2.009-3.19,0.285-5,1.031c-1.81,0.747-2.237,2.063-5,2.063c-2.729,0-3.195-1.331-5-2.063
		c-1.847-0.749-5,0.902-5-1.031c0-2.278,4.479-6.906,10-6.906C37.525,40.151,42,44.779,42,47.058z"/>
	<path fill="#75A843" d="M38,45c0,1.104-2.133,1-6,1c-3.866,0-6,0.104-6-1s2.134-3,6-3C35.867,42,38,43.896,38,45z"/>
	<path fill="#DBB471" d="M30.5,44.211c0,0-2-10.277,6.248-19.408l1.752,0.893c0,0-5,3.191-5,18.516C33.5,44.211,32,45.5,30.5,44.211
		z"/>
	<path fill="#699635" d="M41.134,23.505c-0.979-0.005-1.894,0.247-2.674,0.688c0.3-0.844,0.39-1.789,0.214-2.754
		c-0.502-2.769-2.99-4.637-5.559-4.17c-0.318,0.057-0.621,0.146-0.908,0.266c2.118,0.131,4.072,2.161,4.573,4.934
		c0.302,1.65,0.103,3.299-0.576,4.492c1.057-0.877,2.568-1.422,4.245-1.414c2.819,0.014,5.156,1.585,5.653,3.65
		c0.065-0.303,0.103-0.617,0.104-0.94C46.219,25.646,43.95,23.518,41.134,23.505z"/>
	<path fill="#83BF4F" d="M33.346,22.211c0.247,0.088,0.485,0.193,0.709,0.313c-0.061-0.054-0.122-0.106-0.187-0.159
		c-2.611-2.197-6.002-2.576-8.075-1.054c0.175-0.334,0.386-0.653,0.639-0.953c2.031-2.427,5.794-2.614,8.401-0.421
		c1.947,1.636,2.7,4.133,2.119,6.304c2.024-0.935,4.597-0.619,6.531,1.009c2.611,2.192,3.076,5.938,1.047,8.363
		c-0.252,0.299-0.529,0.564-0.828,0.795c1.136-2.311,0.176-5.589-2.438-7.785c-0.063-0.053-0.125-0.104-0.189-0.155
		c0.156,0.201,0.302,0.416,0.434,0.646c1.35,2.37,0.667,5.311-1.531,6.566c-0.27,0.155-0.551,0.277-0.84,0.368
		c1.495-1.419,1.831-4.239,0.324-6.52c-1.396-2.12-3.669-1.642-3.669-1.642s-0.001-2.619-2.501-3.704
		c-2.74-1.189-5.216-0.149-6.353,1.568c0.039-0.3,0.112-0.598,0.217-0.892C28.009,22.475,30.78,21.289,33.346,22.211z"/>
	<path fill="#89664C" d="M29.979,40c0,0-0.215,2,2.021,2c1.575,0,1.974-2,1.974-2H29.979z"/>
	<path fill="#89664C" d="M30.554,36c0,0-0.524,1.678,1.683,1.98c1.558,0.214,2.264-1.439,2.264-1.439L30.554,36z"/>
	<path fill="#89664C" d="M31.555,32c0,0-0.525,1.678,1.683,1.98c1.558,0.214,2.263-1.439,2.263-1.439L31.555,32z"/>
	<path fill="#89664C" d="M33.205,28c0,0-0.935,1.323,1.188,1.916c1.5,0.418,2.606-0.857,2.606-0.857L33.205,28z"/>
</g>
</svg>
