<?xml version="1.0" encoding="utf-8"?>
<!-- Generator: Adobe Illustrator 15.0.0, SVG Export Plug-In . SVG Version: 6.00 Build 0)  -->
<!DOCTYPE svg PUBLIC "-//W3C//DTD SVG 1.1//EN" "http://www.w3.org/Graphics/SVG/1.1/DTD/svg11.dtd">
<svg version="1.1" id="Layer_1" xmlns="http://www.w3.org/2000/svg" xmlns:xlink="http://www.w3.org/1999/xlink" x="0px" y="0px"
	 width="64px" height="64px" viewBox="0 0 64 64" enable-background="new 0 0 64 64" xml:space="preserve">
<g>
	<rect x="0" y="60" fill="#94989B" width="64" height="4"/>
	<polygon fill="#94989B" points="44,15 44,60 61,60 57,37 61,15 	"/>
	<polygon fill="#D0D0D0" points="50,16 26,4 6,24 9,32 5,60 49,60 45,47 	"/>
	<path fill="#C94747" d="M63.045,14.434L38,0H26l24,17.998L62,18c0.695,0,1.375-0.315,1.746-0.956
		C64.271,16.133,63.957,14.958,63.045,14.434z"/>
	<path fill="#ED4C5C" d="M51.045,14.435L26,0L0.956,26.435c-0.912,0.525-1.227,1.7-0.7,2.611c0.526,0.91,1.703,1.225,2.614,0.699
		L26,4l23.13,13.745c0.912,0.526,2.088,0.211,2.615-0.699C52.271,16.135,51.957,14.96,51.045,14.435z"/>
	<polygon fill="#3E4347" points="49,44 52.43,60 57,60 	"/>
	<polygon fill="#3E4347" points="55,39 51,52.081 53.082,55 	"/>
	<polygon fill="#3E4347" points="13.715,40 24,40 22,51 24,60 13.715,60 12,47 	"/>
	<polygon fill="#3E4347" points="55.664,32 51,32 52.336,24 57,24 	"/>
	<polygon fill="#3E4347" points="24,32 16,32 14,24 22,24 	"/>
	<polygon fill="#3E4347" points="30,32 38,32 40,24 32,24 	"/>
	<polygon fill="#DBB471" points="42,36 38,32 40,24 44,28 	"/>
	<polygon fill="#3E4347" points="40.154,3 40.154,5.099 38,5.099 44.461,9.036 47.693,9.036 52,11 48.77,7 45,7 	"/>
	<polygon fill="#3E4347" points="41,54 31.182,54 29,47 31.182,40 41,40 39.818,45.833 	"/>
	<polygon fill="#DBB471" points="11.175,56 10,53.343 24.826,50 26,52.656 	"/>
	<polygon fill="#DBB471" points="25.489,49 10,46.092 10.512,43 26,45.908 	"/>
</g>
</svg>
