<?xml version="1.0" encoding="utf-8"?>
<!-- Generator: Adobe Illustrator 15.0.0, SVG Export Plug-In . SVG Version: 6.00 Build 0)  -->
<!DOCTYPE svg PUBLIC "-//W3C//DTD SVG 1.1//EN" "http://www.w3.org/Graphics/SVG/1.1/DTD/svg11.dtd">
<svg version="1.1" id="Layer_1" xmlns="http://www.w3.org/2000/svg" xmlns:xlink="http://www.w3.org/1999/xlink" x="0px" y="0px"
	 width="64px" height="64px" viewBox="0 0 64 64" enable-background="new 0 0 64 64" xml:space="preserve">
<g>
	<path fill="#BA0028" d="M31.999,6.12C20.954,6.12,12,10.755,12,16.473v31.056c0,5.717,8.954,10.352,19.999,10.352
		C43.046,57.88,52,53.245,52,47.528V16.473C52,10.755,43.046,6.12,31.999,6.12z"/>
	<path fill="#FF2449" d="M31.999,6.12c-7.611,0-13.78,4.635-13.78,10.353v31.056c0,5.717,6.169,10.352,13.78,10.352
		s13.782-4.635,13.782-10.352V16.473C45.781,10.755,39.61,6.12,31.999,6.12z"/>
	<path fill="#FF503E" d="M32,9.004c-2.92,0-5.287,4.118-5.287,9.2v27.594c0,5.08,2.367,9.198,5.287,9.198s5.287-4.118,5.287-9.198
		V18.204C37.287,13.122,34.92,9.004,32,9.004z"/>
	<g>
		<path fill="#3E4347" d="M42,7.506v-4.12C39.059,2.505,35.642,2,31.999,2S24.941,2.505,22,3.386v4.12
			c2.941-0.881,6.356-1.386,9.999-1.386S39.059,6.625,42,7.506z"/>
		<path fill="#3E4347" d="M22,56.495v4.12C24.941,61.496,28.356,62,31.999,62s7.06-0.504,10.001-1.385v-4.12
			c-2.941,0.881-6.358,1.385-10.001,1.385S24.941,57.376,22,56.495z"/>
	</g>
	<g>
		<g>
			<path fill="#FF7E27" d="M12,32c6.667-0.59,13.333-0.725,20-0.75c6.667,0.021,13.333,0.156,20,0.75
				c-6.667,0.593-13.333,0.729-20,0.75C25.333,32.725,18.667,32.59,12,32z"/>
		</g>
		<g>
			<path fill="#FF7E27" d="M15.13,52.996c2.819,0.432,5.627,0.725,8.437,0.943c2.81,0.2,5.622,0.325,8.429,0.307
				c2.814,0.009,5.623-0.117,8.434-0.317c2.811-0.218,5.619-0.504,8.438-0.933c-2.668,1.035-5.48,1.656-8.307,2.096
				c-2.829,0.442-5.697,0.636-8.561,0.653c-2.87-0.011-5.736-0.204-8.566-0.647C20.609,54.655,17.798,54.03,15.13,52.996z"/>
		</g>
		<g>
			<path fill="#FF7E27" d="M12.085,48.597c3.321,0.454,6.644,0.714,9.959,0.944c3.318,0.2,6.637,0.324,9.953,0.306
				c3.321,0.009,6.638-0.117,9.957-0.316c3.315-0.229,6.639-0.482,9.96-0.934c-3.2,1.021-6.515,1.672-9.848,2.099
				c-3.335,0.44-6.702,0.633-10.065,0.65c-3.368-0.011-6.733-0.202-10.069-0.645C18.599,50.271,15.285,49.618,12.085,48.597z"/>
		</g>
		<g>
			<path fill="#FF7E27" d="M12.085,44.329c3.328,0.352,6.65,0.552,9.966,0.738c3.317,0.159,6.635,0.265,9.947,0.25
				c3.32,0.009,6.633-0.091,9.952-0.247c3.314-0.187,6.637-0.379,9.964-0.741c-3.219,0.939-6.536,1.53-9.867,1.912
				c-3.332,0.396-6.691,0.563-10.045,0.574c-3.36-0.017-6.715-0.19-10.048-0.591C18.624,45.838,15.31,45.247,12.085,44.329z"/>
		</g>
		<g>
			<path fill="#FF7E27" d="M12.171,40.08c3.333,0.245,6.654,0.376,9.97,0.514c3.316,0.109,6.631,0.189,9.943,0.174
				c3.316,0.009,6.628-0.07,9.946-0.179c3.315-0.137,6.638-0.263,9.97-0.509c-3.244,0.824-6.561,1.345-9.889,1.678
				c-3.329,0.349-6.679,0.494-10.024,0.508c-3.35-0.014-6.697-0.16-10.026-0.511C18.732,41.419,15.417,40.897,12.171,40.08z"/>
		</g>
		<g>
			<path fill="#FF7E27" d="M12.085,35.946l9.972,0.107c3.317,0.025,6.63,0.063,9.943,0.049c3.313,0.009,6.626-0.026,9.943-0.051
				l9.971-0.105c-3.278,0.634-6.596,1.034-9.921,1.279c-3.324,0.262-6.659,0.365-9.993,0.375c-3.334-0.016-6.669-0.121-9.994-0.387
				C18.683,36.965,15.365,36.566,12.085,35.946z"/>
		</g>
	</g>
	<g>
		<g>
			<path fill="#FF7E27" d="M48.912,11.004c-2.818-0.432-5.627-0.724-8.438-0.943c-2.81-0.2-5.621-0.325-8.429-0.307
				c-2.814-0.009-5.623,0.118-8.434,0.317c-2.81,0.218-5.619,0.505-8.438,0.933c2.668-1.035,5.48-1.656,8.306-2.096
				c2.83-0.442,5.698-0.636,8.562-0.653c2.87,0.011,5.735,0.204,8.566,0.647C43.434,9.344,46.244,9.97,48.912,11.004z"/>
		</g>
		<g>
			<path fill="#FF7E27" d="M51.957,15.403c-3.321-0.454-6.644-0.714-9.959-0.944c-3.317-0.2-6.637-0.324-9.953-0.306
				c-3.321-0.009-6.638,0.117-9.957,0.316c-3.316,0.229-6.638,0.483-9.96,0.934c3.2-1.021,6.515-1.672,9.848-2.099
				c3.334-0.44,6.702-0.632,10.065-0.65c3.368,0.011,6.733,0.202,10.069,0.644C45.443,13.729,48.758,14.382,51.957,15.403z"/>
		</g>
		<g>
			<path fill="#FF7E27" d="M51.957,19.671c-3.328-0.351-6.65-0.552-9.966-0.738c-3.317-0.159-6.636-0.264-9.947-0.25
				c-3.32-0.008-6.633,0.091-9.951,0.248c-3.315,0.187-6.637,0.379-9.964,0.741c3.219-0.939,6.536-1.53,9.867-1.912
				c3.332-0.396,6.691-0.563,10.045-0.574c3.361,0.016,6.715,0.19,10.047,0.59C45.419,18.162,48.733,18.753,51.957,19.671z"/>
		</g>
		<g>
			<path fill="#FF7E27" d="M51.871,23.92c-3.332-0.246-6.654-0.376-9.97-0.514c-3.316-0.109-6.631-0.19-9.943-0.173
				c-3.316-0.01-6.629,0.07-9.946,0.178c-3.315,0.137-6.637,0.262-9.969,0.509c3.244-0.824,6.561-1.345,9.889-1.678
				c3.329-0.348,6.678-0.493,10.023-0.507c3.35,0.013,6.697,0.16,10.027,0.51C45.311,22.581,48.626,23.103,51.871,23.92z"/>
		</g>
		<g>
			<path fill="#FF7E27" d="M51.957,28.054l-9.972-0.107c-3.316-0.025-6.631-0.063-9.942-0.049c-3.315-0.009-6.627,0.027-9.944,0.051
				l-9.971,0.105c3.278-0.634,6.596-1.034,9.92-1.28c3.324-0.262,6.66-0.364,9.993-0.374c3.336,0.016,6.669,0.121,9.995,0.386
				C45.36,27.035,48.678,27.433,51.957,28.054z"/>
		</g>
	</g>
</g>
</svg>
