<?xml version="1.0" encoding="utf-8"?>
<!-- Generator: Adobe Illustrator 15.0.0, SVG Export Plug-In . SVG Version: 6.00 Build 0)  -->
<!DOCTYPE svg PUBLIC "-//W3C//DTD SVG 1.1//EN" "http://www.w3.org/Graphics/SVG/1.1/DTD/svg11.dtd">
<svg version="1.1" id="Layer_1" xmlns="http://www.w3.org/2000/svg" xmlns:xlink="http://www.w3.org/1999/xlink" x="0px" y="0px"
	 width="64px" height="64px" viewBox="0 0 64 64" enable-background="new 0 0 64 64" xml:space="preserve">
<g>
	<path fill="#B2C1C0" d="M63,60H1c-0.55,0-1,0.45-1,1v2c0,0.55,0.45,1,1,1h62c0.55,0,1-0.45,1-1v-2C64,60.45,63.55,60,63,60z"/>
	<path fill="#E8E8E8" d="M51,28H13c-3.3,0-6,2.7-6,6v26h50V34C57,30.7,54.3,28,51,28z"/>
	<g>
		<path fill="#FFE62E" d="M33,0H13C9.7,0,7,2.7,7,6v18h32V6C39,2.7,36.3,0,33,0z"/>
	</g>
	<rect x="29" y="24" fill="#B2C1C0" width="4" height="4"/>
	<rect x="13" y="24" fill="#B2C1C0" width="4" height="4"/>
	<path fill="#FF717F" d="M51,30H13c-2.2,0-4,1.8-4,4v8h46v-8C55,31.8,53.2,30,51,30z"/>
	<rect x="9" y="34" fill="#FFE62E" width="46" height="4"/>
	<path fill="#FF717F" d="M33,0H13C9.7,0,7,2.7,7,6v18h32V6C39,2.7,36.3,0,33,0z M37,22H9V6c0-2.205,1.794-4,4-4h20
		c2.205,0,4,1.795,4,4V22z"/>
	<rect x="24" y="42" fill="#62727A" width="16" height="18"/>
	<rect x="26" y="44" fill="#D6EEF0" width="12" height="16"/>
	<rect x="31" y="44" fill="#62727A" width="2" height="16"/>
	<rect x="9" y="45" fill="#62727A" width="15" height="2"/>
	<rect x="40" y="45" fill="#62727A" width="15" height="2"/>
	<rect x="9" y="47" fill="#D6EEF0" width="15" height="10"/>
	<rect x="40" y="47" fill="#D6EEF0" width="15" height="10"/>
	<rect x="9" y="55" fill="#62727A" width="15" height="2"/>
	<rect x="40" y="55" fill="#62727A" width="15" height="2"/>
	<rect x="9" y="45" fill="#62727A" width="2" height="12"/>
	<rect x="53" y="45" fill="#62727A" width="2" height="12"/>
	<g>
		<polygon fill="#FF717F" points="30.666,4 30.666,10.4 27.334,10.4 27.334,4 24,4 24,13.6 30.666,13.6 30.666,20 34,20 34,4 		"/>
		<path fill="#FF717F" d="M18.666,13.601L18.666,13.601c0.852,0,1.706-0.313,2.357-0.938C21.674,12.038,22,11.219,22,10.399V7.201
			c0-0.819-0.326-1.639-0.977-2.264C20.372,4.313,19.521,4,18.668,4l0,0H12v3.201h6.668v3.198h-3.336
			c-0.853,0-1.708,0.313-2.359,0.938c-0.651,0.625-0.977,1.445-0.973,2.265V20h10v-3.201h-6.668v-3.198H18.666z"/>
	</g>
	<polygon fill="#E8E8E8" points="40,64 24,64 26,60 38,60 	"/>
</g>
</svg>
