<?xml version="1.0" encoding="utf-8"?>
<!-- Generator: Adobe Illustrator 15.0.0, SVG Export Plug-In . SVG Version: 6.00 Build 0)  -->
<!DOCTYPE svg PUBLIC "-//W3C//DTD SVG 1.1//EN" "http://www.w3.org/Graphics/SVG/1.1/DTD/svg11.dtd">
<svg version="1.1" id="Layer_1" xmlns="http://www.w3.org/2000/svg" xmlns:xlink="http://www.w3.org/1999/xlink" x="0px" y="0px"
	 width="64px" height="64px" viewBox="0 0 64 64" enable-background="new 0 0 64 64" xml:space="preserve">
<g>
	<polygon fill="#B2C1C0" points="56,48 8,48 0,64 64,64 	"/>
	<rect x="8" y="40" fill="#F9F3D9" width="48" height="8"/>
	<rect x="13" y="24" fill="#F9F3D9" width="38" height="8"/>
	<rect x="18" y="8" fill="#F9F3D9" width="28" height="8"/>
	<path fill="#D33B23" d="M18,16c0,2.209-4.698,4-8,4c-3,0-5-1-5-1c0,2.209,2.91,5,6.5,5H32v-8H18z"/>
	<path fill="#D33B23" d="M13,32c0,2.209-4.698,4-8,4c-3,0-5-1-5-1c0,2.209,2.91,5,6.5,5H32v-8H13z"/>
	<path fill="#D33B23" d="M51,32c0,2.209,4.697,4,8,4c3,0,5-1,5-1c0,2.209-2.91,5-6.5,5H32v-8H51z"/>
	<path fill="#D33B23" d="M46,16c0,2.209,4.697,4,8,4c3,0,5-1,5-1c0,2.209-2.91,5-6.5,5H32v-8H46z"/>
	<path fill="#D33B23" d="M41,0c0,2.209,4.697,4,8,4c3,0,5-1,5-1c0,2.209-2.91,5-6.5,5H32V0H41z"/>
	<path fill="#D33B23" d="M23,0c0,2.209-4.698,4-8,4c-3,0-5-1-5-1c0,2.209,2.91,5,6.5,5H32V0H23z"/>
	<rect x="24" y="26" fill="#3E4347" width="1" height="4"/>
	<rect x="27" y="26" fill="#3E4347" width="1" height="4"/>
	<rect x="36" y="26" fill="#3E4347" width="1" height="4"/>
	<rect x="30" y="26" fill="#3E4347" width="1" height="4"/>
	<rect x="33" y="26" fill="#3E4347" width="1" height="4"/>
	<rect x="25.5" y="42" fill="#3E4347" width="1" height="4"/>
	<rect x="19.5" y="42" fill="#3E4347" width="1" height="4"/>
	<rect x="22.5" y="42" fill="#3E4347" width="1" height="4"/>
	<rect x="28.5" y="42" fill="#3E4347" width="1" height="4"/>
	<rect x="26" y="10" fill="#3E4347" width="2" height="4"/>
	<rect x="36" y="10" fill="#3E4347" width="2" height="4"/>
	<rect x="31" y="10" fill="#3E4347" width="2" height="4"/>
	<rect x="8" y="40" fill="#FED0AC" width="8" height="8"/>
	<rect x="48" y="40" fill="#FED0AC" width="8" height="8"/>
	<rect x="13" y="24" fill="#FED0AC" width="8" height="8"/>
	<rect x="43" y="24" fill="#FED0AC" width="8" height="8"/>
	<rect x="51" y="42" fill="#3E4347" width="2" height="4"/>
	<rect x="11" y="42" fill="#3E4347" width="2" height="4"/>
	<polygon fill="#F15744" points="32,16 21,24 43,24 	"/>
	<rect x="18" y="8" fill="#D3976E" width="28" height="2"/>
	<rect x="20.975" y="24" fill="#D3976E" width="22.05" height="2"/>
	<rect x="46" y="26" fill="#3E4347" width="2" height="4"/>
	<rect x="16" y="26" fill="#3E4347" width="2" height="4"/>
	<rect x="16" y="40" fill="#D3976E" width="32" height="2"/>
	<rect x="8" y="40" fill="#89664C" width="8" height="2"/>
	<rect x="48" y="40" fill="#89664C" width="8" height="2"/>
	<rect x="13" y="24" fill="#89664C" width="8" height="2"/>
	<rect x="43" y="24" fill="#89664C" width="8" height="2"/>
	<polygon fill="#FED0AC" points="40.111,24 32,18.1 23.887,24 	"/>
	<polygon fill="#3E4347" points="26.5,24 37.5,24 32,20 	"/>
	<rect x="37.5" y="42" fill="#3E4347" width="1" height="4"/>
	<rect x="31.5" y="42" fill="#3E4347" width="1" height="4"/>
	<rect x="34.5" y="42" fill="#3E4347" width="1" height="4"/>
	<rect x="40.5" y="42" fill="#3E4347" width="1" height="4"/>
	<rect x="43.5" y="42" fill="#3E4347" width="1" height="4"/>
	<path fill="#3E4347" d="M32.043,36.002"/>
	<g>
		<path fill="#F15744" d="M41,36c-2.656-1.68-3.184-4-9-4c-5.809,0-6.561,2.406-9,4c-6.119,4-12.183,3.984-13,4h44
			C53.182,39.984,47.316,40,41,36z"/>
	</g>
	<g>
		<path fill="#FED0AC" d="M39.111,37c-1.934-1.26-2.879-3-7.111-3c-4.225,0-5.336,1.805-7.111,3c-4.449,3-8.295,2.988-8.889,3h32
			C47.406,39.988,43.703,40,39.111,37z"/>
	</g>
	<g>
		<path fill="#3E4347" d="M37.256,38c-1.209-0.84-2.65-2-5.302-2c-2.65,0-4.189,1.203-5.301,2c-2.787,2-4.309,1.992-4.68,2h20.054
			C41.654,39.992,40.135,40,37.256,38z"/>
	</g>
	<rect x="39" y="26" fill="#3E4347" width="1" height="4"/>
	<g>
		<path fill="#F15744" d="M37.729,5C36.037,3.74,35.701,2,32,2c-3.697,0-4.176,1.805-5.729,3C22.379,8,18.521,7.988,18,8h28
			C45.479,7.988,41.746,8,37.729,5z"/>
	</g>
	<g>
		<path fill="#FED0AC" d="M36.523,5.75C35.295,4.805,34.693,3.5,32,3.5c-2.689,0-3.396,1.354-4.525,2.25
			C24.643,8,22.196,7.991,21.817,8h20.365C41.803,7.991,39.447,8,36.523,5.75z"/>
	</g>
	<path fill="#3E4347" d="M35.344,6.5c-0.525-0.43-1.086-1.113-1.984-1.266C32.913,5.158,32.002,5.375,32,6.496l0,0
		c-0.004-1.181-1.004-1.336-1.418-1.26c-0.918,0.17-1.5,0.854-1.984,1.264C26.823,8,25.856,7.994,25.62,8h12.761
		C38.145,7.994,37.176,8,35.344,6.5z"/>
	<polygon opacity="0.5" fill="#62727A" points="28.5,51.5 21.5,51.5 19.5,48 26.5,48 	"/>
	<polygon opacity="0.5" fill="#62727A" points="17.5,55.5 10.786,55.5 9.786,52.5 16.5,52.5 	"/>
	<polygon opacity="0.5" fill="#62727A" points="27.5,60.084 23.5,60.084 20.5,56 30.5,56 	"/>
	<polygon opacity="0.5" fill="#62727A" points="46.959,56 41.041,56 39.041,51.916 48.959,51.916 	"/>
	<polygon opacity="0.5" fill="#62727A" points="8.118,64 17.015,64 19.118,60.084 10.222,60.084 	"/>
	<polygon opacity="0.5" fill="#62727A" points="43,64 34.912,64 33,60.084 41.088,60.084 	"/>
	<polygon opacity="0.5" fill="#62727A" points="54,60.084 62.041,60.084 60,56 52,56 	"/>
	<polygon opacity="0.5" fill="#E8E8E8" points="57.137,64 49.262,64 50.838,60 59.262,60 	"/>
	<polygon opacity="0.5" fill="#E8E8E8" points="16,60 5.5,60 8,56 14.025,56 	"/>
	<polygon opacity="0.5" fill="#E8E8E8" points="36,60 27.5,60 30,56 38.025,56 	"/>
	<polygon opacity="0.5" fill="#E8E8E8" points="43,52 34.5,52 37,48 45.025,48 	"/>
	<path fill="#E8E8E8" d="M53.232,59.5h-6.857l-1.607-3h6.857L53.232,59.5z M20.768,56.5l1.607,3h-6l-1.607-3H20.768z M21.768,56.5
		h7.465l-1.607,3h-4.25L21.768,56.5z M30.233,56.5h7l-1.607,3h-7L30.233,56.5z M38.232,56.5h5.535l1.607,3h-8.75L38.232,56.5z
		 M54.785,52.5l1.715,3h-9l1.715-3H54.785z M48.215,52.5l-1.715,3h-5l-1.715-3H48.215z M38.785,52.5l1.715,3h-6l-1.714-3H38.785z
		 M31.786,52.5l1.714,3h-10l1.715-3H31.786z M24.215,52.5l-1.715,3h-4l-1.715-3H24.215z M9.786,52.5h6l1.715,3h-6L9.786,52.5z
		 M8.232,56.5h5.535l1.607,3h-8.75L8.232,56.5z M62.25,60.5l-0.5-1h-7.518l-1.607-3h7.625l-0.5-1H57.5l-1.715-3h2.465l-0.5-1H53.5
		l-2-3.5h-1l2,3.5h-9l2-3.5h-1l-2,3.5h-7l2-3.5h-1l-2,3.5h-5l-2-3.5h-1l2,3.5h-7l-2-3.5h-1l2,3.5h-9l2-3.5h-1l-2,3.5H6.25l-0.5,1
		h3.036l1.714,3H4.25l-0.5,1h3.482l-1.607,3H2.25l-0.5,1h7.625L7.5,64h1l1.875-3.5h8L16.5,64h1l1.875-3.5h5.25L26.5,64h1l-1.875-3.5
		h7L34.5,64h1l-1.875-3.5h7L42.5,64h1l-1.875-3.5h8.75L48.5,64h1l1.875-3.5h7L56.5,64h1l1.875-3.5H62.25z"/>
</g>
</svg>
