<?xml version="1.0" encoding="utf-8"?>
<!-- Generator: Adobe Illustrator 15.0.0, SVG Export Plug-In . SVG Version: 6.00 Build 0)  -->
<!DOCTYPE svg PUBLIC "-//W3C//DTD SVG 1.1//EN" "http://www.w3.org/Graphics/SVG/1.1/DTD/svg11.dtd">
<svg version="1.1" id="Layer_1" xmlns="http://www.w3.org/2000/svg" xmlns:xlink="http://www.w3.org/1999/xlink" x="0px" y="0px"
	 width="64px" height="64px" viewBox="0 0 64 64" enable-background="new 0 0 64 64" xml:space="preserve">
<g>
	<rect x="9.5" y="31.499" fill="#4D4D4D" width="45" height="24.876"/>
	<rect x="2" y="60.125" fill="#ACB8BF" width="60" height="1.875"/>
	<rect x="9.5" y="56.375" fill="#ACB8BF" width="45" height="1.875"/>
	<rect x="17" y="52.625" fill="#ACB8BF" width="30" height="1.875"/>
	<rect x="41" y="36.9" fill="#89664C" width="7" height="12"/>
	<rect x="42" y="37.9" fill="#B4D7EE" width="5" height="10"/>
	<rect x="44" y="37.4" fill="#89664C" width="1" height="11"/>
	<rect x="16" y="36.9" fill="#89664C" width="7" height="12"/>
	<rect x="17" y="37.9" fill="#B4D7EE" width="5" height="10"/>
	<rect x="19" y="37.4" fill="#89664C" width="1" height="11"/>
	<rect x="5.75" y="58.25" fill="#DAE3EA" width="52.5" height="1.875"/>
	<rect x="13.25" y="54.5" fill="#DAE3EA" width="37.5" height="1.875"/>
	<g>
		<rect x="4.813" y="27.769" fill="#94989B" width="54.375" height="1.877"/>
		<rect x="2" y="29.646" fill="#DAE3EA" width="60" height="1.877"/>
		<polygon fill="#94989B" points="31.989,4.84 2,21.235 4.512,24.989 31.989,6.691 59.488,24.989 62,21.235 		"/>
		<polygon fill="#DAE3EA" points="31.989,2 2,21.235 2,24.051 31.989,4.814 62,24.051 62,21.235 		"/>
		<polygon fill="#DAE3EA" points="31.989,6.691 2,25.928 2,27.804 62,27.804 62,25.928 		"/>
		<polygon fill="#ACB8BF" points="31.989,9.482 7.082,25.928 56.918,25.928 		"/>
		<path fill="#FFFFFF" d="M32,17.401c-0.985,0-1.787-0.704-1.787-1.571s0.802-1.572,1.787-1.572s1.787,0.705,1.787,1.572h1.787
			c0-1.461-1.144-2.679-2.681-3.031v-0.897h-1.787v0.897c-1.537,0.353-2.681,1.57-2.681,3.031c0,1.732,1.604,3.142,3.574,3.142
			c0.985,0,1.787,0.705,1.787,1.571c0,0.867-0.802,1.572-1.787,1.572s-1.787-0.705-1.787-1.572h-1.787
			c0,1.461,1.144,2.679,2.681,3.031v0.897h1.787v-0.897c1.537-0.353,2.681-1.57,2.681-3.031C35.574,18.811,33.971,17.401,32,17.401z
			"/>
	</g>
	<g>
		<g>
			<rect x="6.5" y="33.473" fill="#DAE3EA" width="6" height="22.742"/>
			<rect x="5.75" y="56.215" fill="#94989B" width="7.5" height="2.035"/>
			<rect x="5.75" y="31.499" fill="#94989B" width="7.5" height="1.974"/>
		</g>
		<g>
			<rect x="7.099" y="34.384" fill="#C8D0D6" width="0.708" height="20.98"/>
			<rect x="11.192" y="34.384" fill="#C8D0D6" width="0.708" height="20.98"/>
			<rect x="9.828" y="34.384" fill="#C8D0D6" width="0.707" height="20.98"/>
			<rect x="8.464" y="34.384" fill="#C8D0D6" width="0.707" height="20.98"/>
		</g>
	</g>
	<g>
		<g>
			<rect x="51.5" y="33.473" fill="#DAE3EA" width="6" height="22.742"/>
			<rect x="50.75" y="56.215" fill="#94989B" width="7.5" height="2.035"/>
			<rect x="50.75" y="31.499" fill="#94989B" width="7.5" height="1.974"/>
		</g>
		<g>
			<rect x="52.099" y="34.384" fill="#C8D0D6" width="0.708" height="20.98"/>
			<rect x="56.192" y="34.384" fill="#C8D0D6" width="0.708" height="20.98"/>
			<rect x="54.828" y="34.384" fill="#C8D0D6" width="0.707" height="20.98"/>
			<rect x="53.464" y="34.384" fill="#C8D0D6" width="0.707" height="20.98"/>
		</g>
	</g>
	<g>
		<path fill="#89664C" d="M26.63,42.263v9.808h10.74v-9.808C37.37,35.049,26.63,35.16,26.63,42.263z"/>
		<path fill="#594640" d="M27.416,42.678v9.393h9.168v-9.393C36.584,35.967,27.416,36.069,27.416,42.678z"/>
		<path fill="#A37D64" d="M27.563,42.754v9.316h8.873v-9.316C36.437,36.137,27.563,36.238,27.563,42.754z"/>
		<g>
			<rect x="26.074" y="52.07" fill="#94989B" width="11.852" height="0.555"/>
			<g>
				<path fill="#594640" d="M32.586,42.537h3.082c-0.12-2.233-1.535-3.447-3.082-3.659V42.537z"/>
				<path fill="#594640" d="M31.555,42.537v-3.652c-1.545,0.229-2.96,1.453-3.082,3.652H31.555z"/>
				<path fill="#89664C" d="M32.502,42.476h3.081c-0.12-2.233-1.536-3.447-3.081-3.659V42.476z"/>
				<path fill="#89664C" d="M31.469,42.476v-3.654c-1.544,0.229-2.959,1.454-3.08,3.654H31.469z"/>
			</g>
			<g>
				<rect x="32.586" y="43.543" fill="#594640" width="3.092" height="3.047"/>
				<rect x="28.465" y="43.543" fill="#594640" width="3.091" height="3.047"/>
				<rect x="32.502" y="43.481" fill="#89664C" width="3.091" height="3.047"/>
				<rect x="28.38" y="43.481" fill="#89664C" width="3.09" height="3.047"/>
			</g>
			<g>
				<rect x="32.586" y="47.902" fill="#594640" width="3.092" height="3.047"/>
				<rect x="28.465" y="47.902" fill="#594640" width="3.091" height="3.047"/>
				<rect x="32.502" y="47.841" fill="#89664C" width="3.091" height="3.048"/>
				<rect x="28.38" y="47.841" fill="#89664C" width="3.09" height="3.048"/>
			</g>
			<g>
				<rect x="34.862" y="44.825" fill="#DAE3EA" width="1.296" height="2.591"/>
				<rect x="34.955" y="44.917" fill="#ACB8BF" width="1.111" height="2.407"/>
				<path fill="#3E4347" d="M35.697,47.11l-0.077-0.494c0.046-0.034,0.075-0.089,0.075-0.149c0-0.103-0.083-0.186-0.185-0.186
					s-0.185,0.083-0.185,0.186c0,0.061,0.029,0.115,0.074,0.149l-0.077,0.494H35.697z"/>
				<circle fill="#94989B" cx="35.51" cy="45.595" r="0.532"/>
				<circle fill="#DAE3EA" cx="35.51" cy="45.501" r="0.532"/>
			</g>
		</g>
	</g>
</g>
</svg>
