<?xml version="1.0" encoding="utf-8"?>
<!-- Generator: Adobe Illustrator 15.0.0, SVG Export Plug-In . SVG Version: 6.00 Build 0)  -->
<!DOCTYPE svg PUBLIC "-//W3C//DTD SVG 1.1//EN" "http://www.w3.org/Graphics/SVG/1.1/DTD/svg11.dtd">
<svg version="1.1" id="Layer_1" xmlns="http://www.w3.org/2000/svg" xmlns:xlink="http://www.w3.org/1999/xlink" x="0px" y="0px"
	 width="64px" height="64px" viewBox="0 0 64 64" enable-background="new 0 0 64 64" xml:space="preserve">
<g>
	<circle fill="#D0D0D0" cx="54.5" cy="13.166" r="3"/>
	<circle fill="#D0D0D0" cx="49.5" cy="11.242" r="4.242"/>
	<circle fill="#D0D0D0" cx="48" cy="7.799" r="4.799"/>
	<path fill="#E8E8E8" d="M47.093,5.02c2.276,0,4.212,1.436,4.967,3.446c0.016-0.142,0.024-0.286,0.024-0.433
		c0-2.177-1.766-3.942-3.943-3.942c-1.14,0-2.164,0.487-2.883,1.261C45.83,5.141,46.447,5.02,47.093,5.02z"/>
	<path fill="#E8E8E8" d="M48.232,8.276c2.275,0,4.211,1.436,4.967,3.446c0.016-0.142,0.023-0.286,0.023-0.433
		c0-2.177-1.766-3.942-3.942-3.942c-1.14,0-2.165,0.487-2.884,1.261C46.969,8.397,47.586,8.276,48.232,8.276z"/>
	<path fill="#E8E8E8" d="M53.36,11.689c1.643,0,3.04,1.036,3.585,2.486c0.012-0.102,0.018-0.205,0.018-0.312
		c0-1.57-1.274-2.845-2.846-2.845c-0.822,0-1.563,0.352-2.082,0.909C52.449,11.776,52.895,11.689,53.36,11.689z"/>
	<path fill="#62727A" d="M63,60H1c-0.55,0-1,0.45-1,1v2c0,0.55,0.45,1,1,1h62c0.549,0,1-0.45,1-1v-2C64,60.45,63.549,60,63,60z"/>
	<polygon fill="#F15744" points="39,40 27,30 27,40 15,30 15,40 3,30 3,60 51,60 51,40 	"/>
	<g>
		<polygon fill="#D33B23" points="51.799,43.2 60.199,43.2 59.799,34.8 52.199,34.8 		"/>
		<g>
			<polygon fill="#D33B23" points="59.4,26.4 59,18 53,18 52.6,26.4 			"/>
			<polygon fill="#D33B23" points="51.4,51.6 51,60 61,60 60.6,51.6 			"/>
			<g>
				<polygon fill="#D0D0D0" points="59.4,26.4 52.6,26.4 52.199,34.8 59.799,34.8 				"/>
				<polygon fill="#D0D0D0" points="51.4,51.6 60.6,51.6 60.199,43.2 51.799,43.2 				"/>
			</g>
		</g>
	</g>
	<rect x="3" y="45" fill="#F9F3D9" width="36" height="10"/>
	<rect x="3" y="46" fill="#B4D7EE" width="35" height="8"/>
	<rect x="42" y="50" fill="#89664C" width="6" height="10"/>
	<rect x="41" y="48" fill="#D33B23" width="8" height="2"/>
	<rect x="3" y="49.5" fill="#F9F3D9" width="35" height="1"/>
	<rect x="14.5" y="45" fill="#F9F3D9" width="1" height="10"/>
	<rect x="26.5" y="45" fill="#F9F3D9" width="1" height="10"/>
	<circle fill="#DBB471" cx="46.5" cy="54.5" r="0.5"/>
	<rect x="42" y="60" fill="#D0D0D0" width="6" height="2"/>
	<rect x="41" y="62" fill="#E8E8E8" width="8" height="2"/>
	<circle fill="#D0D0D0" cx="56.5" cy="16" r="2"/>
	<circle fill="#D0D0D0" cx="41.999" cy="5.083" r="5.083"/>
	<circle fill="#D0D0D0" cx="33.916" cy="5.861" r="5.861"/>
	<circle fill="#D0D0D0" cx="26.541" cy="4.955" r="4.955"/>
	<circle fill="#D0D0D0" cx="18.354" cy="7" r="7"/>
	<circle fill="#D0D0D0" cx="10.586" cy="9.174" r="9.174"/>
	<path fill="#E8E8E8" d="M8.116,3.276c4.67,0,8.642,2.945,10.191,7.073c0.032-0.291,0.051-0.586,0.051-0.886
		c0-4.467-3.623-8.091-8.091-8.091c-2.339,0-4.44,0.999-5.917,2.587C5.525,3.525,6.79,3.276,8.116,3.276z"/>
	<path fill="#E8E8E8" d="M16.522,2.872c3.679,0,6.808,2.32,8.026,5.571c0.025-0.229,0.041-0.462,0.041-0.698
		c0-3.518-2.854-6.372-6.373-6.372c-1.843,0-3.498,0.787-4.661,2.038C14.481,3.068,15.478,2.872,16.522,2.872z"/>
	<path fill="#E8E8E8" d="M25.182,2.073c2.637,0,4.88,1.663,5.754,3.993c0.018-0.164,0.029-0.331,0.029-0.501
		c0-2.521-2.046-4.567-4.568-4.567c-1.32,0-2.507,0.564-3.341,1.461C23.719,2.214,24.434,2.073,25.182,2.073z"/>
	<path fill="#E8E8E8" d="M32.225,2.416c3.026,0,5.602,1.909,6.604,4.584c0.021-0.188,0.032-0.38,0.032-0.575
		c0-2.895-2.348-5.243-5.243-5.243c-1.517,0-2.878,0.648-3.835,1.677C30.545,2.577,31.365,2.416,32.225,2.416z"/>
	<path fill="#E8E8E8" d="M40.764,2.111c2.568,0,4.754,1.62,5.605,3.89c0.018-0.16,0.027-0.322,0.027-0.488
		c0-2.456-1.992-4.449-4.45-4.449c-1.286,0-2.442,0.55-3.255,1.423C39.338,2.248,40.034,2.111,40.764,2.111z"/>
	<path fill="#E8E8E8" d="M55.744,14.882c1.09,0,2.017,0.688,2.379,1.649c0.007-0.067,0.011-0.136,0.011-0.207
		c0-1.041-0.845-1.887-1.888-1.887c-0.545,0-1.036,0.233-1.381,0.604C55.14,14.939,55.436,14.882,55.744,14.882z"/>
</g>
</svg>
