<?xml version="1.0" encoding="utf-8"?>
<!-- Generator: Adobe Illustrator 15.0.0, SVG Export Plug-In . SVG Version: 6.00 Build 0)  -->
<!DOCTYPE svg PUBLIC "-//W3C//DTD SVG 1.1//EN" "http://www.w3.org/Graphics/SVG/1.1/DTD/svg11.dtd">
<svg version="1.1" id="Layer_1" xmlns="http://www.w3.org/2000/svg" xmlns:xlink="http://www.w3.org/1999/xlink" x="0px" y="0px"
	 width="64px" height="64px" viewBox="0 0 64 64" enable-background="new 0 0 64 64" xml:space="preserve">
<g>
	<g>
		<g>
			<path fill="#B2C1C0" d="M33,11.834c0,0.549-0.45,1-1,1l0,0c-0.55,0-1-0.451-1-1V1c0-0.55,0.45-1,1-1l0,0c0.55,0,1,0.45,1,1
				V11.834z"/>
			<rect x="4" y="28" fill="#E5DEC1" width="56" height="32"/>
			<path fill="#D33B23" d="M60.522,19.789C60.02,18.805,58.688,18,57.563,18H6.438c-1.125,0-2.457,0.805-2.96,1.789l-3.283,6.422
				C-0.309,27.195,0.199,28,1.324,28h61.352c1.125,0,1.633-0.805,1.13-1.789L60.522,19.789z"/>
			<path fill="#D6EEF0" d="M15,45c0,0.55-0.45,1-1,1H8c-0.55,0-1-0.45-1-1v-4c0-0.55,0.45-1,1-1h6c0.55,0,1,0.45,1,1V45z"/>
			<path fill="#D6EEF0" d="M15,35c0,0.55-0.45,1-1,1H8c-0.55,0-1-0.45-1-1v-4c0-0.55,0.45-1,1-1h6c0.55,0,1,0.45,1,1V35z"/>
			<g>
				<path fill="#DBB471" d="M14,36.5H8c-0.827,0-1.5-0.673-1.5-1.5v-4c0-0.827,0.673-1.5,1.5-1.5h6c0.827,0,1.5,0.673,1.5,1.5v4
					C15.5,35.827,14.827,36.5,14,36.5z M8,30.5c-0.275,0-0.5,0.225-0.5,0.5v4c0,0.275,0.225,0.5,0.5,0.5h6
					c0.275,0,0.5-0.225,0.5-0.5v-4c0-0.275-0.225-0.5-0.5-0.5H8z"/>
			</g>
			<rect x="10.5" y="30" fill="#DBB471" width="1" height="6"/>
			<g>
				<path fill="#DBB471" d="M14,47H8c-0.827,0-1.5-0.673-1.5-1.5v-4C6.5,40.673,7.173,40,8,40h6c0.827,0,1.5,0.673,1.5,1.5v4
					C15.5,46.327,14.827,47,14,47z M8,41c-0.275,0-0.5,0.225-0.5,0.5v4C7.5,45.775,7.725,46,8,46h6c0.275,0,0.5-0.225,0.5-0.5v-4
					c0-0.275-0.225-0.5-0.5-0.5H8z"/>
			</g>
			<rect x="10.5" y="40.5" fill="#DBB471" width="1" height="6"/>
			<path fill="#D6EEF0" d="M15,55c0,0.55-0.45,1-1,1H8c-0.55,0-1-0.45-1-1v-4c0-0.55,0.45-1,1-1h6c0.55,0,1,0.45,1,1V55z"/>
			<g>
				<path fill="#DBB471" d="M14,57H8c-0.827,0-1.5-0.673-1.5-1.5v-4C6.5,50.673,7.173,50,8,50h6c0.827,0,1.5,0.673,1.5,1.5v4
					C15.5,56.327,14.827,57,14,57z M8,51c-0.275,0-0.5,0.225-0.5,0.5v4C7.5,55.775,7.725,56,8,56h6c0.275,0,0.5-0.225,0.5-0.5v-4
					c0-0.275-0.225-0.5-0.5-0.5H8z"/>
			</g>
			<rect x="10.5" y="50.5" fill="#DBB471" width="1" height="6"/>
			<path fill="#D6EEF0" d="M57,45c0,0.55-0.45,1-1,1h-6c-0.55,0-1-0.45-1-1v-4c0-0.55,0.45-1,1-1h6c0.55,0,1,0.45,1,1V45z"/>
			<path fill="#D6EEF0" d="M57,35c0,0.55-0.45,1-1,1h-6c-0.55,0-1-0.45-1-1v-4c0-0.55,0.45-1,1-1h6c0.55,0,1,0.45,1,1V35z"/>
			<g>
				<path fill="#DBB471" d="M56,36.5h-6c-0.827,0-1.5-0.673-1.5-1.5v-4c0-0.827,0.673-1.5,1.5-1.5h6c0.827,0,1.5,0.673,1.5,1.5v4
					C57.5,35.827,56.827,36.5,56,36.5z M50,30.5c-0.275,0-0.5,0.225-0.5,0.5v4c0,0.275,0.225,0.5,0.5,0.5h6
					c0.275,0,0.5-0.225,0.5-0.5v-4c0-0.275-0.225-0.5-0.5-0.5H50z"/>
			</g>
			<rect x="52.5" y="30" fill="#DBB471" width="1" height="6"/>
			<g>
				<path fill="#DBB471" d="M56,47h-6c-0.827,0-1.5-0.673-1.5-1.5v-4c0-0.827,0.673-1.5,1.5-1.5h6c0.827,0,1.5,0.673,1.5,1.5v4
					C57.5,46.327,56.827,47,56,47z M50,41c-0.275,0-0.5,0.225-0.5,0.5v4c0,0.275,0.225,0.5,0.5,0.5h6c0.275,0,0.5-0.225,0.5-0.5v-4
					c0-0.275-0.225-0.5-0.5-0.5H50z"/>
			</g>
			<rect x="52.5" y="40.5" fill="#DBB471" width="1" height="6"/>
			<path fill="#D6EEF0" d="M57,55c0,0.55-0.45,1-1,1h-6c-0.55,0-1-0.45-1-1v-4c0-0.55,0.45-1,1-1h6c0.55,0,1,0.45,1,1V55z"/>
			<g>
				<path fill="#DBB471" d="M56,57h-6c-0.827,0-1.5-0.673-1.5-1.5v-4c0-0.827,0.673-1.5,1.5-1.5h6c0.827,0,1.5,0.673,1.5,1.5v4
					C57.5,56.327,56.827,57,56,57z M50,51c-0.275,0-0.5,0.225-0.5,0.5v4c0,0.275,0.225,0.5,0.5,0.5h6c0.275,0,0.5-0.225,0.5-0.5v-4
					c0-0.275-0.225-0.5-0.5-0.5H50z"/>
			</g>
			<rect x="52.5" y="50.5" fill="#DBB471" width="1" height="6"/>
			<path fill="#F15744" d="M32.777,11.629c-0.428-0.346-1.127-0.346-1.555,0L11.777,27.371C11.35,27.717,11.45,28,12,28h40
				c0.55,0,0.65-0.283,0.223-0.629L32.777,11.629z"/>
			<path fill="#F9F3D9" d="M48.229,27.364L32.771,14.636c-0.424-0.35-1.119-0.35-1.543,0L15.771,27.364
				C15.348,27.714,15.45,28,16,28h2v32h28V28h2C48.55,28,48.652,27.714,48.229,27.364z"/>
			<rect x="24" y="45" fill="#E5DEC1" width="16" height="15"/>
			<rect x="26" y="45" fill="#42ADE2" width="12" height="15"/>
			<g>
				<path fill="#89664C" d="M20.201,38.034c0.266,0.121,0.674,0.241,1.094,0.241c0.454,0,0.693-0.166,0.693-0.419
					c0-0.241-0.207-0.38-0.731-0.546c-0.726-0.225-1.198-0.581-1.198-1.144c0-0.661,0.621-1.167,1.651-1.167
					c0.493,0,0.854,0.092,1.114,0.195l-0.221,0.707c-0.174-0.075-0.485-0.184-0.912-0.184c-0.429,0-0.636,0.172-0.636,0.373
					c0,0.247,0.247,0.356,0.81,0.546c0.771,0.253,1.134,0.609,1.134,1.155c0,0.649-0.563,1.201-1.762,1.201
					c-0.499,0-0.991-0.115-1.237-0.235L20.201,38.034z"/>
				<path fill="#89664C" d="M26.873,38.827c-0.182,0.081-0.59,0.167-1.121,0.167c-1.51,0-2.287-0.833-2.287-1.937
					c0-1.322,1.063-2.058,2.385-2.058c0.512,0,0.9,0.092,1.074,0.173l-0.201,0.695c-0.2-0.075-0.479-0.144-0.828-0.144
					c-0.783,0-1.393,0.419-1.393,1.281c0,0.775,0.518,1.265,1.398,1.265c0.299,0,0.629-0.058,0.822-0.127L26.873,38.827z"/>
				<path fill="#89664C" d="M28.512,35.063v1.488h1.626v-1.488h0.984v3.873h-0.984v-1.621h-1.626v1.621h-0.991v-3.873H28.512z"/>
				<path fill="#89664C" d="M35.979,36.96c0,1.27-0.867,2.04-2.144,2.04c-1.295,0-2.053-0.868-2.053-1.972
					c0-1.16,0.836-2.028,2.124-2.028C35.248,35,35.979,35.891,35.979,36.96z M32.826,37.012c0,0.758,0.401,1.293,1.063,1.293
					c0.666,0,1.049-0.563,1.049-1.316c0-0.695-0.376-1.293-1.057-1.293C33.215,35.695,32.826,36.259,32.826,37.012z"/>
				<path fill="#89664C" d="M40.625,36.96c0,1.27-0.867,2.04-2.145,2.04c-1.295,0-2.053-0.868-2.053-1.972
					c0-1.16,0.836-2.028,2.125-2.028C39.893,35,40.625,35.891,40.625,36.96z M37.471,37.012c0,0.758,0.401,1.293,1.063,1.293
					c0.667,0,1.049-0.563,1.049-1.316c0-0.695-0.375-1.293-1.056-1.293C37.859,35.695,37.471,36.259,37.471,37.012z"/>
				<path fill="#89664C" d="M41.273,35.063h0.99v3.138H44v0.735h-2.727V35.063z"/>
			</g>
			<circle fill="#DBB471" cx="32" cy="26" r="7"/>
			<circle fill="#FFFFFF" cx="32" cy="26" r="5"/>
			<rect x="31.5" y="45" fill="#E5DEC1" width="1" height="15"/>
			<path fill="#B2C1C0" d="M32,22c-0.55,0-1,0.45-1,1v4c0,0.55,0.45,1,1,1s1-0.45,1-1v-4C33,22.45,32.55,22,32,22z"/>
			<path fill="#F15744" d="M32,26h-2c-0.55,0-1,0.45-1,1s0.45,1,1,1h2c0.55,0,1-0.45,1-1S32.55,26,32,26z"/>
			<path fill="#B4D7EE" d="M33,2c0,2.455,0,4.91,0,7.366c4,3.192,8-6.876,12-3.683C41,0.036,37,7.646,33,2z"/>
			<path fill="#F15744" d="M32.947,40.29c-0.543-0.387-1.352-0.387-1.895,0C28.873,41.842,22,45.994,22,45.994V48h20v-2.006
				C42,45.994,35.127,41.842,32.947,40.29z"/>
		</g>
		<path fill="#666666" d="M63,60H1c-0.55,0-1,0.45-1,1v2c0,0.55,0.45,1,1,1h62c0.55,0,1-0.45,1-1v-2C64,60.45,63.55,60,63,60z"/>
		<rect x="20" y="62" fill="#E8E8E8" width="24" height="2"/>
		<rect x="22" y="60" fill="#D0D0D0" width="20" height="2"/>
	</g>
	<rect x="29.063" y="53.5" fill="#666666" width="1.438" height="0.726"/>
	<rect x="33.5" y="53.5" fill="#666666" width="1.438" height="0.726"/>
</g>
</svg>
