<?xml version="1.0" encoding="utf-8"?>
<!-- Generator: Adobe Illustrator 15.0.0, SVG Export Plug-In . SVG Version: 6.00 Build 0)  -->
<!DOCTYPE svg PUBLIC "-//W3C//DTD SVG 1.1//EN" "http://www.w3.org/Graphics/SVG/1.1/DTD/svg11.dtd">
<svg version="1.1" id="Layer_1" xmlns="http://www.w3.org/2000/svg" xmlns:xlink="http://www.w3.org/1999/xlink" x="0px" y="0px"
	 width="64px" height="64px" viewBox="0 0 64 64" enable-background="new 0 0 64 64" xml:space="preserve">
<g>
	<path fill="#E8E8E8" d="M40,18H14c-2.2,0-4,1.8-4,4v38h34V22C44,19.8,42.2,18,40,18z"/>
	<path fill="#62727A" d="M60,36H26c-1.1,0-2,0.899-2,2v22h38V38C62,36.899,61.1,36,60,36z"/>
	<path fill="#62727A" d="M7,36c-0.55,0-1.25,0.374-1.555,0.832l-2.891,4.336C2.25,41.626,2,42.45,2,43v17h8V36H7z"/>
	<rect x="12" y="53" fill="#B4D7EE" width="10" height="7"/>
	<path fill="#62727A" d="M63,60H1c-0.55,0-1,0.451-1,1v2c0,0.551,0.45,1,1,1h62c0.55,0,1-0.449,1-1v-2C64,60.451,63.55,60,63,60z"/>
	<path fill="#B4D7EE" d="M14,34.5c0,0.274-0.225,0.5-0.5,0.5h-1c-0.275,0-0.5-0.226-0.5-0.5v-5c0-0.274,0.225-0.5,0.5-0.5h1
		c0.275,0,0.5,0.226,0.5,0.5V34.5z"/>
	<path fill="#B4D7EE" d="M18,34.5c0,0.274-0.225,0.5-0.5,0.5h-1c-0.275,0-0.5-0.226-0.5-0.5v-5c0-0.274,0.225-0.5,0.5-0.5h1
		c0.275,0,0.5,0.226,0.5,0.5V34.5z"/>
	<path fill="#B4D7EE" d="M22,34.5c0,0.274-0.225,0.5-0.5,0.5h-1c-0.275,0-0.5-0.226-0.5-0.5v-5c0-0.274,0.225-0.5,0.5-0.5h1
		c0.275,0,0.5,0.226,0.5,0.5V34.5z"/>
	<path fill="#B4D7EE" d="M26,34.5c0,0.274-0.225,0.5-0.5,0.5h-1c-0.275,0-0.5-0.226-0.5-0.5v-5c0-0.274,0.225-0.5,0.5-0.5h1
		c0.275,0,0.5,0.226,0.5,0.5V34.5z"/>
	<path fill="#B4D7EE" d="M30,34.5c0,0.274-0.225,0.5-0.5,0.5h-1c-0.275,0-0.5-0.226-0.5-0.5v-5c0-0.274,0.225-0.5,0.5-0.5h1
		c0.275,0,0.5,0.226,0.5,0.5V34.5z"/>
	<path fill="#B4D7EE" d="M14,42.5c0,0.274-0.225,0.5-0.5,0.5h-1c-0.275,0-0.5-0.226-0.5-0.5v-5c0-0.274,0.225-0.5,0.5-0.5h1
		c0.275,0,0.5,0.226,0.5,0.5V42.5z"/>
	<path fill="#B4D7EE" d="M18,42.5c0,0.274-0.225,0.5-0.5,0.5h-1c-0.275,0-0.5-0.226-0.5-0.5v-5c0-0.274,0.225-0.5,0.5-0.5h1
		c0.275,0,0.5,0.226,0.5,0.5V42.5z"/>
	<path fill="#B4D7EE" d="M22,42.5c0,0.274-0.225,0.5-0.5,0.5h-1c-0.275,0-0.5-0.226-0.5-0.5v-5c0-0.274,0.225-0.5,0.5-0.5h1
		c0.275,0,0.5,0.226,0.5,0.5V42.5z"/>
	<path fill="#B4D7EE" d="M14,50.5c0,0.274-0.225,0.5-0.5,0.5h-1c-0.275,0-0.5-0.226-0.5-0.5v-5c0-0.274,0.225-0.5,0.5-0.5h1
		c0.275,0,0.5,0.226,0.5,0.5V50.5z"/>
	<path fill="#B4D7EE" d="M18,50.5c0,0.274-0.225,0.5-0.5,0.5h-1c-0.275,0-0.5-0.226-0.5-0.5v-5c0-0.274,0.225-0.5,0.5-0.5h1
		c0.275,0,0.5,0.226,0.5,0.5V50.5z"/>
	<path fill="#B4D7EE" d="M22,50.5c0,0.274-0.225,0.5-0.5,0.5h-1c-0.275,0-0.5-0.226-0.5-0.5v-5c0-0.274,0.225-0.5,0.5-0.5h1
		c0.275,0,0.5,0.226,0.5,0.5V50.5z"/>
	<rect x="32" y="44" fill="#B4D7EE" width="30" height="16"/>
	<path fill="#B4D7EE" d="M7,46.5C7,46.774,6.775,47,6.5,47h-1C5.225,47,5,46.774,5,46.5v-5C5,41.226,5.225,41,5.5,41h1
		C6.775,41,7,41.226,7,41.5V46.5z"/>
	<path fill="#B4D7EE" d="M7,55.5C7,55.775,6.775,56,6.5,56h-1C5.225,56,5,55.775,5,55.5v-5C5,50.226,5.225,50,5.5,50h1
		C6.775,50,7,50.226,7,50.5V55.5z"/>
	<polygon fill="#FFFFFF" points="21,53 13,53 12,53 12,54 12,60 13,60 13,54 16.5,54 16.5,60 17.5,60 17.5,54 21,54 21,60 22,60 
		22,54 22,53 	"/>
	<path fill="#FFFFFF" d="M17.5,56h-1c-0.275,0-0.5,0.227-0.5,0.5v1c0,0.275,0.225,0.5,0.5,0.5h1c0.275,0,0.5-0.225,0.5-0.5v-1
		C18,56.227,17.775,56,17.5,56z"/>
	<rect x="13" y="60" fill="#B2C1C0" width="8" height="2"/>
	<rect x="13" y="62" fill="#E8E8E8" width="8" height="2"/>
	<path fill="#FFFFFF" d="M33,44h29v-2H31c-0.55,0-1,0.45-1,1v17h2v-3c0-0.549,0.45-1,1-1h29v-2H33c-0.55,0-1-0.449-1-1v-2
		c0-0.55,0.45-1,1-1h29v-2H33c-0.55,0-1-0.45-1-1v-2C32,44.45,32.45,44,33,44z"/>
	<path fill="#B4D7EE" d="M14,26.5c0,0.274-0.225,0.5-0.5,0.5h-1c-0.275,0-0.5-0.226-0.5-0.5v-5c0-0.274,0.225-0.5,0.5-0.5h1
		c0.275,0,0.5,0.226,0.5,0.5V26.5z"/>
	<path fill="#B4D7EE" d="M18,26.5c0,0.274-0.225,0.5-0.5,0.5h-1c-0.275,0-0.5-0.226-0.5-0.5v-5c0-0.274,0.225-0.5,0.5-0.5h1
		c0.275,0,0.5,0.226,0.5,0.5V26.5z"/>
	<path fill="#B4D7EE" d="M22,26.5c0,0.274-0.225,0.5-0.5,0.5h-1c-0.275,0-0.5-0.226-0.5-0.5v-5c0-0.274,0.225-0.5,0.5-0.5h1
		c0.275,0,0.5,0.226,0.5,0.5V26.5z"/>
	<path fill="#B4D7EE" d="M26,26.5c0,0.274-0.225,0.5-0.5,0.5h-1c-0.275,0-0.5-0.226-0.5-0.5v-5c0-0.274,0.225-0.5,0.5-0.5h1
		c0.275,0,0.5,0.226,0.5,0.5V26.5z"/>
	<path fill="#B4D7EE" d="M30,26.5c0,0.274-0.225,0.5-0.5,0.5h-1c-0.275,0-0.5-0.226-0.5-0.5v-5c0-0.274,0.225-0.5,0.5-0.5h1
		c0.275,0,0.5,0.226,0.5,0.5V26.5z"/>
	<path fill="#B4D7EE" d="M34,34.5c0,0.274-0.225,0.5-0.5,0.5h-1c-0.275,0-0.5-0.226-0.5-0.5v-5c0-0.274,0.225-0.5,0.5-0.5h1
		c0.275,0,0.5,0.226,0.5,0.5V34.5z"/>
	<path fill="#B4D7EE" d="M34,26.5c0,0.274-0.225,0.5-0.5,0.5h-1c-0.275,0-0.5-0.226-0.5-0.5v-5c0-0.274,0.225-0.5,0.5-0.5h1
		c0.275,0,0.5,0.226,0.5,0.5V26.5z"/>
	<path fill="#B4D7EE" d="M38,34.5c0,0.274-0.225,0.5-0.5,0.5h-1c-0.275,0-0.5-0.226-0.5-0.5v-5c0-0.274,0.225-0.5,0.5-0.5h1
		c0.275,0,0.5,0.226,0.5,0.5V34.5z"/>
	<path fill="#B4D7EE" d="M38,26.5c0,0.274-0.225,0.5-0.5,0.5h-1c-0.275,0-0.5-0.226-0.5-0.5v-5c0-0.274,0.225-0.5,0.5-0.5h1
		c0.275,0,0.5,0.226,0.5,0.5V26.5z"/>
	<path fill="#B4D7EE" d="M42,34.5c0,0.274-0.225,0.5-0.5,0.5h-1c-0.275,0-0.5-0.226-0.5-0.5v-5c0-0.274,0.225-0.5,0.5-0.5h1
		c0.275,0,0.5,0.226,0.5,0.5V34.5z"/>
	<path fill="#B4D7EE" d="M42,26.5c0,0.274-0.225,0.5-0.5,0.5h-1c-0.275,0-0.5-0.226-0.5-0.5v-5c0-0.274,0.225-0.5,0.5-0.5h1
		c0.275,0,0.5,0.226,0.5,0.5V26.5z"/>
	<rect x="19" y="8" fill="#B2C1C0" width="16" height="10"/>
	<circle fill="#E8E8E8" cx="27" cy="8" r="8"/>
	<path fill="#F15744" d="M32,6h-3V3c0-0.55-0.45-1-1-1h-2c-0.55,0-1,0.45-1,1v3h-3c-0.55,0-1,0.45-1,1v2c0,0.55,0.45,1,1,1h3v3
		c0,0.55,0.45,1,1,1h2c0.55,0,1-0.45,1-1v-3h3c0.55,0,1-0.45,1-1V7C33,6.45,32.55,6,32,6z"/>
</g>
</svg>
