<?xml version="1.0" encoding="utf-8"?>
<!-- Generator: Adobe Illustrator 15.0.0, SVG Export Plug-In . SVG Version: 6.00 Build 0)  -->
<!DOCTYPE svg PUBLIC "-//W3C//DTD SVG 1.1//EN" "http://www.w3.org/Graphics/SVG/1.1/DTD/svg11.dtd">
<svg version="1.1" id="Layer_1" xmlns="http://www.w3.org/2000/svg" xmlns:xlink="http://www.w3.org/1999/xlink" x="0px" y="0px"
	 width="64px" height="64px" viewBox="0 0 64 64" enable-background="new 0 0 64 64" xml:space="preserve">
<g>
	<g>
		<rect x="32.382" y="4.276" fill="#D0D0D0" width="3.41" height="6.491"/>
		<rect x="35.792" y="4.276" fill="#94989B" width="2.273" height="6.491"/>
		<rect x="31.244" y="2" fill="#D0D0D0" width="5.685" height="2.276"/>
		<rect x="36.929" y="2" fill="#94989B" width="2.274" height="2.276"/>
	</g>
	<polygon fill="#ED4C5C" points="24.236,2 2.707,14.315 45.766,14.315 	"/>
	<rect x="8.809" y="14.315" fill="#F9F3D9" width="30.855" height="19.045"/>
	<g>
		<rect x="20.386" y="19.983" fill="#D6EEF0" width="7.699" height="7.708"/>
		<path fill="#89664C" d="M19.424,19.021v9.631h9.624v-9.631H19.424z M28.084,19.983v3.371h-3.369v-3.371H28.084z M23.753,19.983
			v3.371h-3.367v-3.371H23.753z M20.386,27.691v-3.373h3.367v3.373H20.386z M24.716,27.691v-3.373h3.369v3.373H24.716z"/>
	</g>
	<rect x="6.364" y="40.86" fill="#F9F3D9" width="45.646" height="19.265"/>
	<g>
		<rect x="36.875" y="46.64" fill="#D6EEF0" width="7.699" height="7.706"/>
		<path fill="#89664C" d="M35.914,45.676v9.634h9.624v-9.634H35.914z M44.574,46.64v3.37h-3.368v-3.37H44.574z M40.242,46.64v3.37
			h-3.367v-3.37H40.242z M36.875,54.346v-3.37h3.367v3.37H36.875z M41.206,54.346v-3.37h3.368v3.37H41.206z"/>
	</g>
	<g>
		<rect x="18.421" y="48.324" fill="#89664C" width="8.422" height="11.801"/>
		<rect x="17.58" y="46.64" fill="#DBB471" width="10.107" height="1.685"/>
		<circle fill="#F9F3D9" cx="25.369" cy="53.381" r="0.632"/>
	</g>
	<rect x="2" y="60.125" fill="#83BF4F" width="60" height="1.875"/>
	<polygon fill="#ED4C5C" points="49.64,33.36 8.734,33.36 2,40.86 56.375,40.86 	"/>
	<g>
		<path fill="#83BF4F" d="M62,56.183c0-1.161-0.942-2.104-2.103-2.104c-0.239,0-0.466,0.048-0.679,0.122
			c-0.252-0.536-0.792-0.91-1.425-0.91c-0.371,0-0.707,0.133-0.976,0.347c0.025-0.112,0.041-0.228,0.041-0.347
			c0-0.871-0.706-1.578-1.576-1.578c-0.776,0-1.419,0.563-1.551,1.301c-0.182-0.152-0.413-0.25-0.671-0.25
			c-0.58,0-1.051,0.471-1.051,1.054v6.308h8.413c0.87,0,1.576-0.707,1.576-1.576c0-0.425-0.169-0.808-0.441-1.092
			C61.832,57.104,62,56.664,62,56.183z"/>
		<path fill="#699635" d="M62,58.549c0-0.425-0.169-0.808-0.441-1.092C61.832,57.104,62,56.664,62,56.183
			c0-1.161-0.942-2.104-2.103-2.104c-0.239,0-0.466,0.048-0.679,0.122c-0.16-0.342-0.439-0.617-0.784-0.772
			c-0.551,0.245-0.937,0.797-0.937,1.439c0,0.153,0.029,0.3,0.07,0.441c-0.141-0.069-0.297-0.114-0.465-0.114
			c-0.58,0-1.051,0.473-1.051,1.054c0,0.397,0.226,0.741,0.551,0.919c-0.238,0.31-0.387,0.693-0.387,1.117
			c0,1.005,0.808,1.819,1.808,1.838l-0.001,0.002h2.4C61.294,60.125,62,59.418,62,58.549z"/>
		<path fill="#699635" d="M55.809,58.777c0,0.582-0.471-0.229-1.053-0.229c-0.58,0-1.051,0.811-1.051,0.229
			c0-0.58,0.471-1.051,1.051-1.051C55.338,57.727,55.809,58.197,55.809,58.777z"/>
		<path fill="#699635" d="M53.479,56.974c0,0.291-0.235,0-0.526,0c-0.29,0-0.525,0.291-0.525,0c0-0.289,0.235-0.525,0.525-0.525
			C53.243,56.448,53.479,56.685,53.479,56.974z"/>
		<path fill="#83BF4F" d="M54.376,55.394c0,0.291-0.234-0.088-0.525-0.088s-0.525,0.379-0.525,0.088s0.234-0.525,0.525-0.525
			S54.376,55.103,54.376,55.394z"/>
		<path fill="#83BF4F" d="M58.766,58.023c0,0.394-0.318-0.192-0.713-0.192c-0.393,0-0.711,0.586-0.711,0.192
			c0-0.395,0.318-0.713,0.711-0.713C58.447,57.311,58.766,57.629,58.766,58.023z"/>
		<path fill="#83BF4F" d="M60.805,56.057c0,0.584-0.474-0.335-1.058-0.335c-0.583,0-1.057,0.919-1.057,0.335S59.164,55,59.747,55
			C60.331,55,60.805,55.473,60.805,56.057z"/>
		<path fill="#83BF4F" d="M60.838,58.552c0,0.29-0.234,0-0.525,0s-0.525,0.29-0.525,0c0-0.291,0.234-0.525,0.525-0.525
			S60.838,58.261,60.838,58.552z"/>
		<path fill="#83BF4F" d="M56.138,54.343c0,0.394-0.319-0.192-0.713-0.192c-0.393,0-0.712,0.586-0.712,0.192
			s0.319-0.713,0.712-0.713C55.818,53.63,56.138,53.949,56.138,54.343z"/>
	</g>
	<g>
		<path fill="#83BF4F" d="M11.989,56.183c0-1.161-0.942-2.104-2.103-2.104c-0.239,0-0.465,0.048-0.678,0.122
			c-0.252-0.536-0.792-0.91-1.425-0.91c-0.371,0-0.707,0.133-0.976,0.347c0.025-0.112,0.041-0.228,0.041-0.347
			c0-0.871-0.706-1.578-1.577-1.578c-0.776,0-1.418,0.563-1.55,1.301c-0.182-0.152-0.414-0.25-0.671-0.25
			C2.471,52.764,2,53.234,2,53.817v6.308h8.413c0.871,0,1.577-0.707,1.577-1.576c0-0.425-0.169-0.808-0.441-1.092
			C11.821,57.104,11.989,56.664,11.989,56.183z"/>
		<path fill="#699635" d="M11.989,58.549c0-0.425-0.169-0.808-0.441-1.092c0.273-0.354,0.441-0.793,0.441-1.274
			c0-1.161-0.942-2.104-2.103-2.104c-0.239,0-0.465,0.048-0.678,0.122c-0.16-0.342-0.439-0.617-0.784-0.772
			c-0.551,0.245-0.937,0.797-0.937,1.439c0,0.153,0.029,0.3,0.069,0.441c-0.14-0.069-0.296-0.114-0.464-0.114
			c-0.581,0-1.051,0.473-1.051,1.054c0,0.397,0.225,0.741,0.551,0.919c-0.239,0.31-0.387,0.693-0.387,1.117
			c0,1.005,0.808,1.819,1.808,1.838l-0.001,0.002h2.399C11.283,60.125,11.989,59.418,11.989,58.549z"/>
		<path fill="#699635" d="M5.798,58.777c0,0.582-0.471-0.229-1.052-0.229c-0.581,0-1.051,0.811-1.051,0.229
			c0-0.58,0.47-1.051,1.051-1.051C5.327,57.727,5.798,58.197,5.798,58.777z"/>
		<path fill="#699635" d="M3.468,56.974c0,0.291-0.235,0-0.526,0c-0.291,0-0.526,0.291-0.526,0c0-0.289,0.235-0.525,0.526-0.525
			C3.232,56.448,3.468,56.685,3.468,56.974z"/>
		<path fill="#83BF4F" d="M4.366,55.394c0,0.291-0.234-0.088-0.525-0.088c-0.292,0-0.526,0.379-0.526,0.088s0.234-0.525,0.526-0.525
			C4.131,54.868,4.366,55.103,4.366,55.394z"/>
		<path fill="#83BF4F" d="M8.755,58.023c0,0.394-0.319-0.192-0.712-0.192c-0.393,0-0.711,0.586-0.711,0.192
			c0-0.395,0.319-0.713,0.711-0.713C8.436,57.311,8.755,57.629,8.755,58.023z"/>
		<path fill="#83BF4F" d="M10.793,56.057c0,0.584-0.473-0.335-1.057-0.335c-0.583,0-1.057,0.919-1.057,0.335S9.153,55,9.736,55
			C10.32,55,10.793,55.473,10.793,56.057z"/>
		<path fill="#83BF4F" d="M10.828,58.552c0,0.29-0.234,0-0.526,0c-0.291,0-0.525,0.29-0.525,0c0-0.291,0.234-0.525,0.525-0.525
			C10.593,58.026,10.828,58.261,10.828,58.552z"/>
		<path fill="#83BF4F" d="M6.127,54.343c0,0.394-0.319-0.192-0.713-0.192c-0.393,0-0.712,0.586-0.712,0.192s0.32-0.713,0.712-0.713
			C5.808,53.63,6.127,53.949,6.127,54.343z"/>
	</g>
</g>
</svg>
