<?xml version="1.0" encoding="utf-8"?>
<!-- Generator: Adobe Illustrator 15.0.0, SVG Export Plug-In . SVG Version: 6.00 Build 0)  -->
<!DOCTYPE svg PUBLIC "-//W3C//DTD SVG 1.1//EN" "http://www.w3.org/Graphics/SVG/1.1/DTD/svg11.dtd">
<svg version="1.1" id="Layer_1" xmlns="http://www.w3.org/2000/svg" xmlns:xlink="http://www.w3.org/1999/xlink" x="0px" y="0px"
	 width="64px" height="64px" viewBox="0 0 64 64" enable-background="new 0 0 64 64" xml:space="preserve">
<g>
	<path fill="#B2C1C0" d="M63,60H1c-0.55,0-1,0.45-1,1v2c0,0.55,0.45,1,1,1h62c0.55,0,1-0.45,1-1v-2C64,60.45,63.55,60,63,60z"/>
	<path fill="#428BC1" d="M64,17c0,0.55-0.45,1-1,1H1c-0.55,0-1-0.45-1-1V3c0-0.55,0.45-1,1-1h62c0.55,0,1,0.45,1,1V17z"/>
	<rect x="2" y="18" fill="#62727A" width="60" height="42"/>
	<rect x="2" y="20" fill="#FFFFFF" width="60" height="10"/>
	<rect x="2" y="32" fill="#FFFFFF" width="60" height="10"/>
	<rect x="2" fill="#D0D0D0" width="60" height="2"/>
	<path fill="#FFE62E" d="M22.824,6.048c0,2.765-1.609,5.15-3.944,6.297c0.629-0.867,1.003-1.927,1.003-3.077
		C19.883,6.358,17.514,4,14.588,4c-2.796,0-5.08,2.158-5.275,4.892c-0.387-0.87-0.605-1.83-0.605-2.844H4C4,11.544,8.478,16,14,16
		s10-4.456,10-9.952H22.824z M14.588,5.755c1.948,0,3.53,1.574,3.53,3.513c0,1.94-1.582,3.513-3.53,3.513
		c-1.945,0-3.529-1.572-3.529-3.513C11.059,7.329,12.643,5.755,14.588,5.755z"/>
	<g>
		<rect x="4.5" y="22" fill="#B4D7EE" width="4" height="6"/>
		<rect x="10.5" y="22" fill="#B4D7EE" width="4" height="6"/>
		<rect x="19.5" y="22" fill="#B4D7EE" width="4" height="6"/>
		<rect x="25.5" y="22" fill="#B4D7EE" width="4" height="6"/>
		<rect x="34.5" y="22" fill="#B4D7EE" width="4" height="6"/>
		<rect x="40.5" y="22" fill="#B4D7EE" width="4" height="6"/>
		<rect x="49.5" y="22" fill="#B4D7EE" width="4" height="6"/>
		<rect x="55.5" y="22" fill="#B4D7EE" width="4" height="6"/>
	</g>
	<g>
		<rect x="4.5" y="34" fill="#B4D7EE" width="4" height="6"/>
		<rect x="10.5" y="34" fill="#B4D7EE" width="4" height="6"/>
		<rect x="19.5" y="34" fill="#B4D7EE" width="4" height="6"/>
		<rect x="25.5" y="34" fill="#B4D7EE" width="4" height="6"/>
		<rect x="34.5" y="34" fill="#B4D7EE" width="4" height="6"/>
		<rect x="40.5" y="34" fill="#B4D7EE" width="4" height="6"/>
		<rect x="49.5" y="34" fill="#B4D7EE" width="4" height="6"/>
		<rect x="55.5" y="34" fill="#B4D7EE" width="4" height="6"/>
	</g>
	<polygon fill="#FFE62E" points="21,44 21,60 23,60 23,48 41,48 41,60 43,60 43,44 	"/>
	<rect x="27" y="48" fill="#B4D7EE" width="4" height="12"/>
	<rect x="33" y="48" fill="#B4D7EE" width="4" height="12"/>
	<rect x="31" y="48" fill="#FFFFFF" width="2" height="12"/>
	<rect x="37" y="48" fill="#FFFFFF" width="2" height="12"/>
	<rect x="25" y="48" fill="#FFFFFF" width="2" height="12"/>
	<rect x="26" y="53" fill="#FFFFFF" width="12" height="2"/>
	<rect x="43" y="48" fill="#FFFFFF" width="16" height="10"/>
	<rect x="5" y="48" fill="#FFFFFF" width="16" height="10"/>
	<rect x="43" y="50" fill="#B4D7EE" width="14" height="6"/>
	<rect x="7" y="50" fill="#B4D7EE" width="14" height="6"/>
	<rect x="13" y="49" fill="#FFFFFF" width="2" height="8"/>
	<rect x="49" y="49" fill="#FFFFFF" width="2" height="8"/>
	<g>
		<path fill="#FFE62E" d="M28,5.287c0.63-0.114,1.514-0.201,2.76-0.201c1.261,0,2.158,0.259,2.762,0.776
			c0.576,0.488,0.965,1.293,0.965,2.241s-0.295,1.753-0.831,2.299c-0.696,0.704-1.729,1.021-2.935,1.021
			c-0.269,0-0.51-0.016-0.697-0.044v3.463H28V5.287z M30.023,9.684c0.174,0.043,0.389,0.058,0.684,0.058
			c1.086,0,1.756-0.59,1.756-1.58c0-0.891-0.576-1.423-1.596-1.423c-0.415,0-0.695,0.043-0.844,0.087V9.684z"/>
		<path fill="#FFE62E" d="M44.424,9.899c0,3.175-1.795,5.101-4.436,5.101c-2.68,0-4.248-2.17-4.248-4.929
			C35.74,7.169,37.47,5,40.136,5C42.91,5,44.424,7.227,44.424,9.899z M37.898,10.028c0,1.896,0.83,3.232,2.197,3.232
			c1.381,0,2.171-1.407,2.171-3.29c0-1.738-0.776-3.232-2.185-3.232C38.701,6.738,37.898,8.146,37.898,10.028z"/>
		<path fill="#FFE62E" d="M46.201,12.585c0.551,0.303,1.395,0.604,2.266,0.604c0.938,0,1.434-0.417,1.434-1.049
			c0-0.604-0.429-0.948-1.515-1.365c-1.501-0.56-2.479-1.451-2.479-2.858C45.907,6.265,47.193,5,49.324,5
			c1.018,0,1.769,0.229,2.305,0.488l-0.455,1.768c-0.361-0.188-1.006-0.46-1.89-0.46c-0.886,0-1.313,0.431-1.313,0.934
			c0,0.617,0.51,0.891,1.675,1.365c1.596,0.632,2.346,1.523,2.346,2.888c0,1.624-1.167,3.003-3.646,3.003
			c-1.031,0-2.051-0.287-2.56-0.59L46.201,12.585z"/>
		<path fill="#FFE62E" d="M55.484,6.997h-2.427v-1.84H60v1.84h-2.466v7.845h-2.05V6.997z"/>
	</g>
</g>
</svg>
