<?xml version="1.0" encoding="utf-8"?>
<!-- Generator: Adobe Illustrator 15.0.0, SVG Export Plug-In . SVG Version: 6.00 Build 0)  -->
<!DOCTYPE svg PUBLIC "-//W3C//DTD SVG 1.1//EN" "http://www.w3.org/Graphics/SVG/1.1/DTD/svg11.dtd">
<svg version="1.1" id="Layer_1" xmlns="http://www.w3.org/2000/svg" xmlns:xlink="http://www.w3.org/1999/xlink" x="0px" y="0px"
	 width="64px" height="64px" viewBox="0 0 64 64" enable-background="new 0 0 64 64" xml:space="preserve">
<g>
	<polygon fill="#C94747" points="39.02,38 53.789,42.083 42.54,42.083 27.03,38 	"/>
	<rect x="5.048" y="22" fill="#F9F3D9" width="21.982" height="38"/>
	<rect x="27.03" y="22" fill="#DBB471" width="11.989" height="16"/>
	<polygon fill="#ED4C5C" points="21.035,8 1.052,22 27.03,22 	"/>
	<rect x="29.028" y="10" fill="#D0D0D0" width="2.997" height="8"/>
	<rect x="32.025" y="10" fill="#94989B" width="1.998" height="9"/>
	<polygon fill="#C94747" points="21.035,8 43.016,22 27.03,22 	"/>
	<rect x="28.028" y="8" fill="#D0D0D0" width="4.996" height="2"/>
	<rect x="33.024" y="8" fill="#94989B" width="1.999" height="2"/>
	<g>
		<rect x="12.841" y="27.8" fill="#D6EEF0" width="6.395" height="6.4"/>
		<path fill="#89664C" d="M12.043,27v8h7.992v-8H12.043z M19.235,27.8v2.8h-2.798v-2.8H19.235z M15.638,27.8v2.8h-2.797v-2.8H15.638
			z M12.841,34.2v-2.8h2.797v2.8H12.841z M16.438,34.2v-2.8h2.798v2.8H16.438z"/>
	</g>
	<g>
		<rect x="30.625" y="27.4" fill="#D6EEF0" width="4.797" height="7.199"/>
		<path fill="#89664C" d="M30.226,27v8h5.596v-8H30.226z M31.026,27.8h1.597v2.8h-1.597V27.8z M31.026,34.2v-2.8h1.597v2.8H31.026z
			 M35.023,34.2h-1.6v-2.8h1.6V34.2z M35.023,30.6h-1.6v-2.8h1.6V30.6z"/>
	</g>
	<g>
		<rect x="13.695" y="49.063" fill="#89664C" width="6.245" height="10.938"/>
		<rect x="19.161" y="47.5" fill="#89664C" width="1.562" height="1.563"/>
		<rect x="12.135" y="49.063" fill="#594640" width="1.561" height="10.938"/>
		<rect x="11.355" y="47.5" fill="#DBB471" width="7.806" height="1.563"/>
		<circle fill="#F9F3D9" cx="18.575" cy="53.75" r="0.586"/>
	</g>
	<rect x="0.052" y="60" fill="#83BF4F" width="51.957" height="4"/>
	<rect x="39.881" y="42.083" fill="#DBB471" width="9.319" height="17.917"/>
	<rect x="27.03" y="42.083" fill="#F9F3D9" width="12.851" height="17.917"/>
	<polygon fill="#ED4C5C" points="27.03,38 5.048,38 0,42.083 42.54,42.083 	"/>
	<g>
		<rect x="28.258" y="47.841" fill="#D6EEF0" width="6.395" height="6.4"/>
		<path fill="#89664C" d="M27.459,47.042v8h7.992v-8H27.459z M34.652,47.841v2.801h-2.799v-2.801H34.652z M31.055,47.841v2.801
			h-2.797v-2.801H31.055z M28.258,54.241v-2.799h2.797v2.799H28.258z M31.854,54.241v-2.799h2.799v2.799H31.854z"/>
	</g>
	<g>
		<rect x="42.143" y="47.442" fill="#D6EEF0" width="4.797" height="7.199"/>
		<path fill="#89664C" d="M41.742,47.042v8h5.596v-8H41.742z M42.543,47.841h1.598v2.801h-1.598V47.841z M42.543,54.241v-2.799
			h1.598v2.799H42.543z M46.541,54.241h-1.6v-2.799h1.6V54.241z M46.541,50.642h-1.6v-2.801h1.6V50.642z"/>
	</g>
	<g>
		<rect x="51.9" y="60" fill="#699635" width="11.99" height="4"/>
		<g>
			<rect x="52.24" y="34" fill="#D3976E" width="3.997" height="26"/>
			<path fill="#89664C" d="M56.237,34H54.75c0.014,0.172,0.029,0.339,0.029,0.543c0,2.28-0.76,2.28-0.76,4.561
				c0,2.275,0.76,2.275,0.76,4.55c0,2.276-0.76,2.276-0.76,4.551c0,2.273,0.76,2.273,0.76,4.55c0,2.271-0.76,2.271-0.76,4.544
				c0,1.427,0.207,1.952,0.421,2.702h1.797V34z"/>
			<path fill="#83BF4F" d="M53.171,2.89c-1.903,2.728-4.237-2.17-7.247,2.043s-1.449,7.853-0.522,10.603
				c1.844,5.465-1.851,7.235,0.572,11.812c2.423,4.575-1.058,6.78,3.505,9.33s2.311-2.933,6.99,0.317
				c4.681,3.25,5.336-2.247,4.825-4.186c-0.976-3.707,1.716-4.611,2.456-7.697c1.315-5.488-3.06-8.482-1.707-13.721
				C63.397,6.152,58.932-5.361,53.171,2.89z"/>
			<path fill="#699635" d="M62.043,11.391C63.061,7.462,60.8,0.002,57.178,0c0.002,0.002,2.438,3.16-0.999,7.15
				c-3.439,3.99,2.938,5.986,0,9.729c-2.939,3.742,2.71,7.348,0.527,10.228c-2.74,3.616-7.004,3.083-4.466,9.978
				c0.012,0.029,0.024,0.052,0.034,0.08c1.032-0.629,1.075-2.336,4.194-0.17c4.681,3.25,5.336-2.248,4.825-4.186
				c-0.976-3.707,1.716-4.611,2.456-7.697C65.065,19.623,60.69,16.629,62.043,11.391z"/>
			<path fill="#83BF4F" d="M57.827,11.161c-0.747,0,0.365-0.606,0.365-1.354s-1.112-1.354-0.365-1.354
				c0.748,0,1.354,0.606,1.354,1.354S58.575,11.161,57.827,11.161z"/>
			<path fill="#83BF4F" d="M59.565,23.26c-1.111,0,0.633-0.9,0.633-2.01s-1.744-2.01-0.633-2.01c1.107,0,2.008,0.9,2.008,2.01
				S60.673,23.26,59.565,23.26z"/>
			<path fill="#83BF4F" d="M57.811,33.5c-0.83,0,0-0.671,0-1.5s-0.83-1.5,0-1.5c0.828,0,1.499,0.671,1.499,1.5
				S58.639,33.5,57.811,33.5z"/>
			<path fill="#83BF4F" d="M49.336,12.104c0.826,0-0.25,0.671-0.25,1.5s1.076,1.5,0.25,1.5s-1.499-0.671-1.499-1.5
				S48.51,12.104,49.336,12.104z"/>
			<path fill="#83BF4F" d="M52.558,6.421c1.119,0-0.546,0.909-0.546,2.031s1.665,2.031,0.546,2.031
				c-1.122,0-2.032-0.909-2.032-2.031S51.436,6.421,52.558,6.421z"/>
			<path fill="#699635" d="M51.663,21.637c1.657,0-0.653,1.344-0.653,3s2.311,3,0.653,3c-1.652,0-2.996-1.344-2.996-3
				S50.011,21.637,51.663,21.637z"/>
			<path fill="#699635" d="M52.598,16.129c0.827,0,0,0.671,0,1.5s0.827,1.5,0,1.5c-0.828,0-1.5-0.671-1.5-1.5
				S51.77,16.129,52.598,16.129z"/>
		</g>
		<g>
			<g>
				<rect x="58.141" y="57.011" fill="#83BF4F" width="0.39" height="2.989"/>
				<path fill="#C94747" d="M57.166,53.891v2.34c0,0.431,0.35,0.78,0.781,0.78h0.778V55.45
					C58.726,54.313,57.166,53.891,57.166,53.891z"/>
				<path fill="#ED4C5C" d="M59.506,53.891v2.34c0,0.431-0.35,0.78-0.78,0.78h-0.778V55.45
					C57.947,54.313,59.506,53.891,59.506,53.891z"/>
			</g>
			<g>
				<rect x="62.527" y="54.67" fill="#83BF4F" width="0.389" height="5.33"/>
				<path fill="#C94747" d="M61.552,51.55v2.341c0,0.431,0.35,0.779,0.78,0.779h0.779v-1.56
					C63.111,51.973,61.552,51.55,61.552,51.55z"/>
				<path fill="#ED4C5C" d="M63.891,51.55v2.341c0,0.431-0.349,0.779-0.779,0.779h-0.779v-1.56
					C62.332,51.973,63.891,51.55,63.891,51.55z"/>
			</g>
			<g>
				<path fill="#F2B200" d="M58.74,50.25v2.34c0,0.432,0.347,0.78,0.777,0.78h0.779V51.81C60.297,50.673,58.74,50.25,58.74,50.25z"
					/>
				<path fill="#FFCE31" d="M61.077,50.25v2.34c0,0.432-0.349,0.78-0.78,0.78h-0.779V51.81C59.518,50.673,61.077,50.25,61.077,50.25
					z"/>
				<rect x="59.714" y="53.37" fill="#83BF4F" width="0.389" height="6.63"/>
			</g>
			<g>
				<path fill="#F2B200" d="M55.459,51.42v2.34c0,0.432,0.351,0.78,0.78,0.78h0.778v-1.56C57.018,51.843,55.459,51.42,55.459,51.42z
					"/>
				<path fill="#FFCE31" d="M57.798,51.42v2.34c0,0.432-0.348,0.78-0.78,0.78h-0.778v-1.56C56.239,51.843,57.798,51.42,57.798,51.42
					z"/>
				<rect x="56.436" y="54.54" fill="#83BF4F" width="0.389" height="5.46"/>
			</g>
		</g>
		<g>
			<g>
				<rect x="49.006" y="57.011" fill="#83BF4F" width="0.389" height="2.989"/>
				<path fill="#C94747" d="M48.03,53.891v2.34c0,0.431,0.35,0.78,0.781,0.78h0.778V55.45C49.59,54.313,48.03,53.891,48.03,53.891z"
					/>
				<path fill="#ED4C5C" d="M50.369,53.891v2.34c0,0.431-0.35,0.78-0.779,0.78h-0.778V55.45
					C48.812,54.313,50.369,53.891,50.369,53.891z"/>
			</g>
			<g>
				<rect x="53.393" y="54.67" fill="#83BF4F" width="0.389" height="5.33"/>
				<path fill="#C94747" d="M52.416,51.55v2.341c0,0.431,0.35,0.779,0.781,0.779h0.777v-1.56
					C53.975,51.973,52.416,51.55,52.416,51.55z"/>
				<path fill="#ED4C5C" d="M54.756,51.55v2.341c0,0.431-0.35,0.779-0.781,0.779h-0.777v-1.56
					C53.197,51.973,54.756,51.55,54.756,51.55z"/>
			</g>
			<g>
				<path fill="#F2B200" d="M49.604,50.25v2.34c0,0.432,0.35,0.78,0.779,0.78h0.779V51.81C51.162,50.673,49.604,50.25,49.604,50.25z
					"/>
				<path fill="#FFCE31" d="M51.942,50.25v2.34c0,0.432-0.35,0.78-0.78,0.78h-0.779V51.81C50.383,50.673,51.942,50.25,51.942,50.25z
					"/>
				<rect x="50.578" y="53.37" fill="#83BF4F" width="0.389" height="6.63"/>
			</g>
			<g>
				<path fill="#C94747" d="M46.325,51.42v2.34c0,0.432,0.347,0.78,0.778,0.78h0.779v-1.56C47.883,51.843,46.325,51.42,46.325,51.42
					z"/>
				<path fill="#ED4C5C" d="M48.662,51.42v2.34c0,0.432-0.349,0.78-0.779,0.78h-0.779v-1.56
					C47.104,51.843,48.662,51.42,48.662,51.42z"/>
				<rect x="47.298" y="54.54" fill="#83BF4F" width="0.39" height="5.46"/>
			</g>
		</g>
	</g>
</g>
</svg>
