<?xml version="1.0" encoding="utf-8"?>
<!-- Generator: Adobe Illustrator 15.0.0, SVG Export Plug-In . SVG Version: 6.00 Build 0)  -->
<!DOCTYPE svg PUBLIC "-//W3C//DTD SVG 1.1//EN" "http://www.w3.org/Graphics/SVG/1.1/DTD/svg11.dtd">
<svg version="1.1" id="Layer_1" xmlns="http://www.w3.org/2000/svg" xmlns:xlink="http://www.w3.org/1999/xlink" x="0px" y="0px"
	 width="64px" height="64px" viewBox="0 0 64 64" enable-background="new 0 0 64 64" xml:space="preserve">
<g>
	<g>
		<path fill="#B2C1C0" d="M63,60H1c-0.55,0-1,0.45-1,1v2c0,0.55,0.45,1,1,1h62c0.55,0,1-0.45,1-1v-2C64,60.45,63.55,60,63,60z"/>
		<rect x="6" y="14" fill="#E8E8E8" width="52" height="46"/>
		<polygon fill="#3E4347" points="64,16 0,16 5,0 59,0 		"/>
		<rect x="11" y="24" fill="#62727A" width="8" height="14"/>
		<rect x="45" y="24" fill="#62727A" width="8" height="14"/>
		<rect x="13" y="26" fill="#B4D7EE" width="4" height="10"/>
		<rect x="47" y="26" fill="#B4D7EE" width="4" height="10"/>
		<rect x="11.75" y="30" fill="#62727A" width="6.5" height="2"/>
		<rect x="45.75" y="30" fill="#62727A" width="6.5" height="2"/>
		<rect x="11" y="44" fill="#FFFFFF" width="42" height="16"/>
		<polygon fill="#FFFFFF" points="32,41 45.5,47 50,47 32,39 14,47 18.5,47 		"/>
		<rect x="24" y="22" fill="#F15744" width="16" height="4"/>
		<rect x="24" y="28" fill="#F15744" width="16" height="4"/>
		<rect x="30" y="30" fill="#F15744" width="4" height="6"/>
		<g>
			<path fill="#62727A" d="M64,16L59.477,1.523L57,4l-3-3l1-1h-3l1,1l-3,3l-3-3l1-1h-3l1,1l-3,3l-3-3l1-1h-3l1,1l-3,3l-3-3l1-1h-4
				l1,1l-3,3l-3-3l1-1h-3l1,1l-3,3l-3-3l1-1h-3l1,1l-3,3l-3-3l1-1H9l1,1L7,4L4.523,1.523L0,16h5l-1-1l3-3l3,3l-1,1h3l-1-1l3-3l3,3
				l-1,1h3l-1-1l3-3l3,3l-1,1h18l-1-1l3-3l3,3l-1,1h3l-1-1l3-3l3,3l-1,1h3l-1-1l3-3l3,3l-1,1H64z M7,11L4,8l3-3l3,3L7,11z M14,11
				l-3-3l3-3l3,3L14,11z M21,11l-3-3l3-3l3,3L21,11z M43,11l-3-3l3-3l3,3L43,11z M50,11l-3-3l3-3l3,3L50,11z M57,11l-3-3l3-3l3,3
				L57,11z"/>
		</g>
		<circle fill="#E8E8E8" cx="32.001" cy="12" r="8"/>
		<circle fill="#3E4347" cx="32.001" cy="12" r="6"/>
		<rect x="13" y="46" fill="#B4D7EE" width="6" height="14"/>
		<rect x="21" y="46" fill="#B4D7EE" width="6" height="14"/>
		<rect x="29" y="46" fill="#B4D7EE" width="6" height="14"/>
		<rect x="37" y="46" fill="#B4D7EE" width="6" height="14"/>
		<rect x="45" y="46" fill="#B4D7EE" width="6" height="14"/>
		<rect x="13" y="46" fill="#62727A" width="6" height="4"/>
		<rect x="21" y="46" fill="#62727A" width="6" height="4"/>
		<rect x="37" y="46" fill="#62727A" width="6" height="4"/>
		<rect x="45" y="46" fill="#62727A" width="6" height="4"/>
		<rect x="29" y="46" fill="#62727A" width="6" height="4"/>
	</g>
	<path fill="#B2C1C0" d="M9,21.5C9,21.775,8.775,22,8.5,22h-3C5.225,22,5,21.775,5,21.5v-3C5,18.225,5.225,18,5.5,18h3
		C8.775,18,9,18.225,9,18.5V21.5z"/>
	<path fill="#B2C1C0" d="M7,27.5C7,27.775,6.775,28,6.5,28h-1C5.225,28,5,27.775,5,27.5v-3C5,24.225,5.225,24,5.5,24h1
		C6.775,24,7,24.225,7,24.5V27.5z"/>
	<path fill="#B2C1C0" d="M9,21.5C9,21.775,8.775,22,8.5,22h-3C5.225,22,5,21.775,5,21.5v-3C5,18.225,5.225,18,5.5,18h3
		C8.775,18,9,18.225,9,18.5V21.5z"/>
	<path fill="#B2C1C0" d="M7,39.5C7,39.775,6.775,40,6.5,40h-1C5.225,40,5,39.775,5,39.5v-3C5,36.225,5.225,36,5.5,36h1
		C6.775,36,7,36.225,7,36.5V39.5z"/>
	<path fill="#B2C1C0" d="M9,33.5C9,33.775,8.775,34,8.5,34h-3C5.225,34,5,33.775,5,33.5v-3C5,30.225,5.225,30,5.5,30h3
		C8.775,30,9,30.225,9,30.5V33.5z"/>
	<path fill="#B2C1C0" d="M7,51.5C7,51.775,6.775,52,6.5,52h-1C5.225,52,5,51.775,5,51.5v-3C5,48.225,5.225,48,5.5,48h1
		C6.775,48,7,48.225,7,48.5V51.5z"/>
	<path fill="#B2C1C0" d="M9,45.5C9,45.775,8.775,46,8.5,46h-3C5.225,46,5,45.775,5,45.5v-3C5,42.225,5.225,42,5.5,42h3
		C8.775,42,9,42.225,9,42.5V45.5z"/>
	<path fill="#B2C1C0" d="M9,57.5C9,57.775,8.775,58,8.5,58h-3C5.225,58,5,57.775,5,57.5v-3C5,54.225,5.225,54,5.5,54h3
		C8.775,54,9,54.225,9,54.5V57.5z"/>
	<path fill="#B2C1C0" d="M55,21.5c0,0.275,0.225,0.5,0.5,0.5h3c0.275,0,0.5-0.225,0.5-0.5v-3c0-0.275-0.225-0.5-0.5-0.5h-3
		c-0.275,0-0.5,0.225-0.5,0.5V21.5z"/>
	<path fill="#B2C1C0" d="M57,27.5c0,0.275,0.225,0.5,0.5,0.5h1c0.275,0,0.5-0.225,0.5-0.5v-3c0-0.275-0.225-0.5-0.5-0.5h-1
		c-0.275,0-0.5,0.225-0.5,0.5V27.5z"/>
	<path fill="#B2C1C0" d="M55,21.5c0,0.275,0.225,0.5,0.5,0.5h3c0.275,0,0.5-0.225,0.5-0.5v-3c0-0.275-0.225-0.5-0.5-0.5h-3
		c-0.275,0-0.5,0.225-0.5,0.5V21.5z"/>
	<path fill="#B2C1C0" d="M57,39.5c0,0.275,0.225,0.5,0.5,0.5h1c0.275,0,0.5-0.225,0.5-0.5v-3c0-0.275-0.225-0.5-0.5-0.5h-1
		c-0.275,0-0.5,0.225-0.5,0.5V39.5z"/>
	<path fill="#B2C1C0" d="M55,33.5c0,0.275,0.225,0.5,0.5,0.5h3c0.275,0,0.5-0.225,0.5-0.5v-3c0-0.275-0.225-0.5-0.5-0.5h-3
		c-0.275,0-0.5,0.225-0.5,0.5V33.5z"/>
	<path fill="#B2C1C0" d="M57,51.5c0,0.275,0.225,0.5,0.5,0.5h1c0.275,0,0.5-0.225,0.5-0.5v-3c0-0.275-0.225-0.5-0.5-0.5h-1
		c-0.275,0-0.5,0.225-0.5,0.5V51.5z"/>
	<path fill="#B2C1C0" d="M55,45.5c0,0.275,0.225,0.5,0.5,0.5h3c0.275,0,0.5-0.225,0.5-0.5v-3c0-0.275-0.225-0.5-0.5-0.5h-3
		c-0.275,0-0.5,0.225-0.5,0.5V45.5z"/>
	<path fill="#B2C1C0" d="M55,57.5c0,0.275,0.225,0.5,0.5,0.5h3c0.275,0,0.5-0.225,0.5-0.5v-3c0-0.275-0.225-0.5-0.5-0.5h-3
		c-0.275,0-0.5,0.225-0.5,0.5V57.5z"/>
</g>
</svg>
