<?xml version="1.0" encoding="utf-8"?>
<!-- Generator: Adobe Illustrator 15.0.0, SVG Export Plug-In . SVG Version: 6.00 Build 0)  -->
<!DOCTYPE svg PUBLIC "-//W3C//DTD SVG 1.1//EN" "http://www.w3.org/Graphics/SVG/1.1/DTD/svg11.dtd">
<svg version="1.1" id="Layer_1" xmlns="http://www.w3.org/2000/svg" xmlns:xlink="http://www.w3.org/1999/xlink" x="0px" y="0px"
	 width="64px" height="64px" viewBox="0 0 64 64" enable-background="new 0 0 64 64" xml:space="preserve">
<g>
	<rect y="60" fill="#D0D0D0" width="64" height="4"/>
	<rect x="2" y="32" fill="#62727A" width="60" height="28"/>
	<rect x="6" y="42" fill="#D6EEF0" width="14" height="18"/>
	<rect x="2" y="27" fill="#3E4347" width="60" height="6"/>
	<g>
		<path fill="#83BF4F" d="M0,27c0,2.209,1.791,4,4,4s4-1.791,4-4H0z"/>
		<path fill="#D33B23" d="M8,27c0,2.209,1.791,4,4,4s4-1.791,4-4H8z"/>
		<path fill="#83BF4F" d="M16,27c0,2.209,1.791,4,4,4s4-1.791,4-4H16z"/>
		<rect x="16" y="18" fill="#C7E755" width="8" height="9"/>
		<path fill="#D33B23" d="M24,27c0,2.209,1.791,4,4,4s4-1.791,4-4H24z"/>
		<rect x="24" y="18" fill="#F15744" width="8" height="9"/>
		<rect y="18" fill="#C7E755" width="8" height="9"/>
		<rect x="8" y="18" fill="#F15744" width="8" height="9"/>
		<rect x="48" y="18" fill="#C7E755" width="8" height="9"/>
		<rect x="56" y="18" fill="#F15744" width="8" height="9"/>
		<path fill="#83BF4F" d="M32,27c0,2.209,1.791,4,4,4s4-1.791,4-4H32z"/>
		<rect x="32" y="18" fill="#C7E755" width="8" height="9"/>
		<path fill="#D33B23" d="M40,27c0,2.209,1.791,4,4,4s4-1.791,4-4H40z"/>
		<rect x="40" y="18" fill="#F15744" width="8" height="9"/>
		<path fill="#83BF4F" d="M48,27c0,2.209,1.791,4,4,4s4-1.791,4-4H48z"/>
		<path fill="#D33B23" d="M56,27c0,2.209,1.791,4,4,4s4-1.791,4-4H56z"/>
	</g>
	<g>
		<path fill="#FFFFFF" d="M13,33c-4.971,0-9,4.029-9,9h18C22,37.029,17.971,33,13,33z"/>
		<path fill="#62727A" d="M6.291,40h13.418c-0.863-2.889-3.544-5-6.709-5S7.154,37.111,6.291,40z"/>
	</g>
	<rect x="6" y="42" fill="#FFFFFF" width="2" height="18"/>
	<rect x="18" y="42" fill="#FFFFFF" width="2" height="18"/>
	<rect x="8" y="42" fill="#B4D7EE" width="10" height="2"/>
	<rect x="27" y="33" fill="#FFFFFF" width="30" height="20"/>
	<path fill="#3E4347" d="M59,56c0,0.55-0.451,1-1,1H26c-0.55,0-1-0.45-1-1v-2c0-0.55,0.45-1,1-1h32c0.549,0,1,0.45,1,1V56z"/>
	<rect x="29" y="35" fill="#D6EEF0" width="26" height="16"/>
	<rect x="29" y="35" fill="#B4D7EE" width="26" height="2"/>
	<path fill="#62727A" d="M16,47c-0.55,0-1,0.591-1,1.313v1.973c0,0.723,0.359,1.669,0.801,2.103l0.398,0.394
		C16.641,53.217,17,52.98,17,52.256v-3.942C17,47.591,16.55,47,16,47z"/>
	<path fill="#3E4347" d="M64,18H0V2c0-1.1,0.9-2,2-2h60c1.1,0,2,0.9,2,2V18z"/>
	<path fill="#E8E8E8" d="M3,2C2.45,2,2,2.45,2,3v12c0,0.55,0.45,1,1,1h58c0.549,0,1-0.45,1-1V3c0-0.55-0.451-1-1-1H3z"/>
	<g>
		<g>
			<path fill="#3E4347" d="M17.505,5.135c-2.333-1.012-4.932-1.521-7.427-0.803c-2.387,0.687-2.71,3.61-0.71,4.921
				c1.874,1.228,4.329,0.218,6.254,1.178c0.762,0.38,0.228,1.102-0.319,1.317c-0.58,0.228-1.229,0.248-1.843,0.252
				c-1.271,0.009-2.865-0.194-3.955-0.877c-1.097-0.687-2.1,1.044-1.01,1.727c1.919,1.202,4.855,1.413,7.036,0.918
				c2.185-0.496,3.396-3.109,1.546-4.748C15.459,7.586,12.936,8.227,11,7.766c-0.56-0.133-1.411-0.577-0.806-1.276
				c0.483-0.558,1.777-0.47,2.424-0.487C13.9,5.97,15.546,6.45,16.495,6.861C17.666,7.369,18.685,5.646,17.505,5.135L17.505,5.135z"
				/>
		</g>
	</g>
	<g>
		<g>
			<path fill="#3E4347" d="M50,13c0-2.667,0-5.333,0-8c-0.332,0.333-0.666,0.667-1,1c0.781,0,6.133-0.201,4.875,1.395
				C53.066,8.421,50.172,8,49,8c-1.289,0-1.289,2,0,2c2.188,0,6.699,0.448,6.971-2.667C56.305,3.516,51.523,4,49,4
				c-0.545,0-1,0.455-1,1c0,2.667,0,5.333,0,8C48,14.29,50,14.29,50,13L50,13z"/>
		</g>
	</g>
	<g>
		<g>
			<g>
				<path fill="#3E4347" d="M22,5c0,2.667,0,5.333,0,8c0,1.29,2,1.29,2,0c0-2.667,0-5.333,0-8C24,3.71,22,3.71,22,5L22,5z"/>
			</g>
		</g>
		<g>
			<g>
				<path fill="#3E4347" d="M30,5c0,2.667,0,5.333,0,8c0,1.29,2,1.29,2,0c0-2.667,0-5.333,0-8C32,3.71,30,3.71,30,5L30,5z"/>
			</g>
		</g>
		<g>
			<g>
				<path fill="#3E4347" d="M23,10c2.667,0,5.333,0,8,0c1.29,0,1.29-2,0-2c-2.667,0-5.333,0-8,0C21.71,8,21.71,10,23,10L23,10z"/>
			</g>
		</g>
	</g>
	<circle fill="none" stroke="#3E4347" stroke-width="2" stroke-miterlimit="10" cx="40" cy="9" r="4"/>
	<circle fill="#3E4347" cx="5" cy="9" r="1"/>
	<circle fill="#3E4347" cx="59" cy="9" r="1"/>
</g>
</svg>
