<?xml version="1.0" encoding="utf-8"?>
<!-- Generator: Adobe Illustrator 15.0.0, SVG Export Plug-In . SVG Version: 6.00 Build 0)  -->
<!DOCTYPE svg PUBLIC "-//W3C//DTD SVG 1.1//EN" "http://www.w3.org/Graphics/SVG/1.1/DTD/svg11.dtd">
<svg version="1.1" id="Layer_1" xmlns="http://www.w3.org/2000/svg" xmlns:xlink="http://www.w3.org/1999/xlink" x="0px" y="0px"
	 width="64px" height="64px" viewBox="0 0 64 64" enable-background="new 0 0 64 64" xml:space="preserve">
<g>
	<g>
		<path fill="#E8E8E8" d="M39.584,25.312l1.79,1.789l-1.809,1.81c0.423,0.188,0.856,0.354,1.309,0.479l1.395-1.393l1.776,1.772
			c0.655-0.007,1.32-0.064,1.997-0.176l1.598-1.598l0.947,0.947c0.429-0.15,0.855-0.317,1.282-0.505l-1.335-1.338l1.789-1.789
			l1.889,1.886c0.359-0.225,0.716-0.467,1.066-0.723l-2.059-2.059l1.789-1.792l2.221,2.224c0.154-0.145,0.313-0.28,0.465-0.432
			c0.151-0.152,0.285-0.311,0.431-0.465l-2.22-2.221l1.789-1.789L57.754,22c0.255-0.351,0.498-0.709,0.723-1.068l-1.889-1.886
			l1.792-1.791l1.335,1.336c0.189-0.426,0.357-0.853,0.507-1.284l-0.948-0.946l1.599-1.598c0.111-0.675,0.169-1.341,0.178-1.996
			l-1.776-1.777l1.396-1.395c-0.126-0.451-0.293-0.887-0.48-1.31l-1.809,1.811l-1.791-1.791l2.208-2.209
			c-0.139-0.157-0.267-0.324-0.417-0.477c-0.152-0.15-0.317-0.279-0.478-0.417l-2.208,2.207l-1.789-1.79l1.808-1.809
			c-0.423-0.188-0.856-0.354-1.309-0.481l-1.396,1.396l-1.775-1.776c-0.655,0.008-1.322,0.066-1.996,0.179l-1.599,1.599
			l-0.946-0.948c-0.43,0.149-0.857,0.317-1.285,0.507l1.338,1.335l-1.791,1.79l-1.889-1.886C42.707,5.748,42.351,5.989,42,6.245
			l2.06,2.06l-1.79,1.79l-2.221-2.221c-0.155,0.144-0.314,0.28-0.465,0.431c-0.151,0.151-0.287,0.31-0.432,0.466l2.222,2.219
			l-1.79,1.792l-2.061-2.062c-0.254,0.354-0.497,0.708-0.721,1.067l1.886,1.888l-1.789,1.792l-1.337-1.337
			c-0.188,0.427-0.355,0.853-0.506,1.283l0.947,0.947l-1.598,1.598c-0.112,0.677-0.17,1.342-0.179,1.998l1.776,1.774l-1.395,1.396
			c0.126,0.45,0.292,0.886,0.48,1.309l1.81-1.81l1.789,1.791l-2.207,2.208c0.138,0.16,0.266,0.325,0.418,0.477
			c0.151,0.15,0.316,0.28,0.477,0.419L39.584,25.312z M58.38,11.884l1.79,1.791l-1.79,1.792l-1.791-1.792L58.38,11.884z
			 M55.694,14.57l1.79,1.79l-1.79,1.79l-1.789-1.791L55.694,14.57z M53.009,17.256l1.791,1.789l-1.791,1.791l-1.789-1.791
			L53.009,17.256z M50.323,19.941l1.79,1.789l-1.79,1.79l-1.789-1.79L50.323,19.941z M47.64,22.625l1.788,1.792l-1.789,1.789
			l-1.791-1.789L47.64,22.625z M44.954,25.311l1.791,1.79l-1.791,1.791l-1.791-1.79L44.954,25.311z M55.694,9.199l1.79,1.789
			l-1.79,1.793l-1.789-1.793L55.694,9.199z M53.009,11.885l1.79,1.79l-1.79,1.792l-1.79-1.792L53.009,11.885z M50.323,14.571
			l1.79,1.789l-1.79,1.789l-1.79-1.789L50.323,14.571z M47.64,17.255l1.788,1.791l-1.789,1.79l-1.79-1.791L47.64,17.255z
			 M44.954,19.941l1.791,1.789l-1.791,1.789l-1.791-1.789L44.954,19.941z M42.269,22.624l1.791,1.792l-1.791,1.789l-1.79-1.788
			L42.269,22.624z M36.899,20.834l-1.791-1.788l1.791-1.791l1.789,1.79L36.899,20.834z M39.583,18.15l-1.79-1.79l1.791-1.789
			l1.79,1.789L39.583,18.15z M42.27,15.465l-1.79-1.79l1.789-1.79l1.791,1.79L42.27,15.465z M44.954,12.781l-1.79-1.793l1.79-1.789
			l1.791,1.79L44.954,12.781z M47.64,10.096l-1.791-1.791l1.791-1.79l1.788,1.79L47.64,10.096z M50.323,7.409l-1.79-1.79l1.79-1.789
			l1.79,1.789L50.323,7.409z M39.584,23.521l-1.791-1.79l1.791-1.79l1.79,1.79L39.584,23.521z M42.269,20.836l-1.79-1.79l1.79-1.79
			l1.791,1.789L42.269,20.836z M44.954,18.15l-1.79-1.791l1.789-1.788l1.792,1.789L44.954,18.15z M47.64,15.467l-1.791-1.792
			l1.791-1.791l1.788,1.791L47.64,15.467z M50.323,12.781l-1.79-1.792l1.79-1.789l1.79,1.789L50.323,12.781z M53.009,10.096
			l-1.79-1.791l1.79-1.791l1.79,1.791L53.009,10.096z"/>
		<g>
			<path fill="#B2C1C0" d="M36.004,27.997c-5.186-5.187-4.433-13.469,1.789-19.692c6.677-6.676,16.713-8.348,21.48-3.579
				c4.77,4.767,3.097,14.805-3.58,21.48C49.472,32.429,41.19,33.183,36.004,27.997z M57.484,6.514
				c-3.747-3.747-12.28-2.041-17.9,3.582c-5.186,5.186-5.938,11.961-1.791,16.11c4.15,4.149,10.925,3.396,16.112-1.79
				C59.525,18.795,61.231,10.264,57.484,6.514z"/>
		</g>
		<g>
			
				<rect x="27.622" y="23.784" transform="matrix(0.7067 0.7075 -0.7075 0.7067 33.3138 -10.141)" fill="#B2C1C0" width="2.534" height="22.656"/>
		</g>
		<path fill="#3E4347" d="M7.316,61.442c0,0,0.77-1.949,1.254-2.434c5.371-5.371,9.847-9.846,9.847-9.846l3.356-5.146l-1.791-1.793
			l-5.146,3.358c0,0-4.476,4.476-9.846,9.847c-0.485,0.484-2.434,1.254-2.434,1.254c-0.631,0.294-0.744,0.939-0.252,1.43l3.581,3.58
			C6.379,62.186,7.021,62.073,7.316,61.442z"/>
		<path fill="#B2C1C0" d="M35.331,25.088l-2.687,2.688c-0.989,0.989-0.989,2.592,0.001,3.58c0.987,0.988,2.591,0.987,3.579,0
			l2.686-2.687L35.331,25.088z"/>
		<polygon opacity="0.5" fill="#B2C1C0" points="13.047,47.373 12.152,48.268 17.522,50.059 		"/>
		<polygon opacity="0.5" fill="#B2C1C0" points="11.256,49.163 10.361,50.059 15.731,51.848 		"/>
		<polygon opacity="0.5" fill="#B2C1C0" points="9.466,50.954 8.572,51.848 13.941,53.638 		"/>
		<polygon opacity="0.5" fill="#B2C1C0" points="7.677,52.742 6.781,53.638 12.151,55.43 		"/>
		<polygon opacity="0.5" fill="#B2C1C0" points="5.887,54.533 4.991,55.43 10.361,57.219 		"/>
		<polygon opacity="0.5" fill="#B2C1C0" points="16.627,47.373 15.284,46.03 20.431,42.675 21.325,43.569 		"/>
	</g>
	<g>
		<path fill="#E8E8E8" d="M39.344,39.344c-1.925,1.926-1.925,5.048,0,6.972l6.971-6.972C44.391,37.419,41.27,37.419,39.344,39.344z"
			/>
		
			<rect x="42.469" y="38.772" transform="matrix(-0.7071 -0.7071 0.7071 -0.7071 43.7003 105.5036)" fill="#ED4C5C" width="2.464" height="9.859"/>
		<path fill="#E8E8E8" d="M49.8,42.828l-1.742-1.741l-6.972,6.971l1.742,1.743L48.057,62l1.743-1.742l-1.044-2.438l1.744-1.744
			l1.479,2.004l1.743-1.743l-1.479-2.003l1.744-1.743l1.914,1.567l1.742-1.742l-1.914-1.568l2.092-2.091l2.437,1.045L62,48.058
			L49.8,42.828z M48.232,47.886l-0.436,0.437l-1.482-2.008L48.232,47.886z M49.016,54.071l-1.307,1.308l-1.043-2.437l0.871-0.871
			L49.016,54.071z M46.055,50.064l-0.437,0.437l-1.047-2.443L46.055,50.064z M50.76,52.327l-1.479-2l0.874-0.873l1.911,1.566
			L50.76,52.327z M48.057,44.572l2.443,1.046l-0.525,0.525L48.057,44.572z M53.809,49.278l-1.912-1.566l1.047-1.046l2.434,1.043
			L53.809,49.278z"/>
	</g>
</g>
</svg>
