<?xml version="1.0" encoding="utf-8"?>
<!-- Generator: Adobe Illustrator 15.0.0, SVG Export Plug-In . SVG Version: 6.00 Build 0)  -->
<!DOCTYPE svg PUBLIC "-//W3C//DTD SVG 1.1//EN" "http://www.w3.org/Graphics/SVG/1.1/DTD/svg11.dtd">
<svg version="1.1" id="Layer_1" xmlns="http://www.w3.org/2000/svg" xmlns:xlink="http://www.w3.org/1999/xlink" x="0px" y="0px"
	 width="64px" height="64px" viewBox="0 0 64 64" enable-background="new 0 0 64 64" xml:space="preserve">
<g>
	<g>
		<polygon fill="#B95A1E" points="25,53 38.999,53 41.998,50 22,50 		"/>
	</g>
	<g>
		<g>
			<path fill="#3E4347" d="M22.569,24.938l-5.104,4.768v-8.64c0,0,2.112-1.134,2.112,0.773C19.578,24,22.569,24.938,22.569,24.938z"
				/>
			<g>
				<path fill="#3E4347" d="M19.889,11.075c2.287,0,3.688-2.202,3.688-4.13c0-3.138-2.313-4.945-5.27-4.945
					c-2.283,0-5.621,2.284-4.628,6.873c1.133,5.235,2.243,14.83,2.243,14.83l1.906-0.269c-0.238-8.642-0.754-12.973-0.754-12.973
					S18.211,11.075,19.889,11.075z"/>
				<path fill="#DBB471" d="M19.079,7.373c-0.058-0.192-0.148-0.393-0.29-0.501C18.652,6.761,18.5,6.847,18.37,6.979
					c-0.285,0.274-0.373,0.623-0.244,0.921c0.263,0.625,1.097,0.748,1.689,0.429c0.582-0.241,0.714-0.964,0.635-1.689
					c-0.058-0.755-0.385-1.287-0.998-1.642c-0.576-0.361-1.336-0.456-1.894-0.19c-0.661,0.305-1.184,0.832-1.485,1.49
					c-0.291,0.663-0.359,1.452-0.201,2.208c0.143,0.752,0.497,1.525,1.203,1.957c-0.82-0.24-1.348-1.046-1.654-1.83
					c-0.288-0.812-0.339-1.74-0.041-2.605c0.285-0.872,0.971-1.599,1.769-2.024c0.927-0.466,1.982-0.299,2.792,0.177
					c0.406,0.251,0.77,0.58,1.025,1.019c0.262,0.461,0.351,0.908,0.381,1.365c0.023,0.454-0.005,0.922-0.184,1.389
					c-0.09,0.229-0.214,0.464-0.408,0.654c-0.221,0.216-0.432,0.322-0.652,0.406c-0.439,0.166-0.957,0.223-1.428,0.056
					c-0.467-0.16-0.874-0.54-0.992-1.036c-0.136-0.503,0.17-1.029,0.528-1.248c0.093-0.063,0.198-0.122,0.326-0.144
					c0.13-0.022,0.276,0.035,0.351,0.128C19.034,6.956,19.063,7.169,19.079,7.373z"/>
			</g>
		</g>
		<g>
			<path fill="#3E4347" d="M41.43,24.938l5.103,4.768v-8.64c0,0-2.112-1.134-2.112,0.773C44.42,24,41.43,24.938,41.43,24.938z"/>
			<g>
				<path fill="#3E4347" d="M44.107,11.075c-2.287,0-3.686-2.202-3.686-4.13c0-3.138,2.313-4.945,5.27-4.945
					c2.282,0,5.621,2.284,4.628,6.873c-1.133,5.235-2.244,14.83-2.244,14.83l-1.906-0.269c0.238-8.642,0.755-12.973,0.755-12.973
					S45.785,11.075,44.107,11.075z"/>
				<path fill="#DBB471" d="M44.918,7.373c0.017-0.204,0.045-0.417,0.192-0.605c0.074-0.093,0.221-0.15,0.351-0.128
					c0.128,0.021,0.233,0.08,0.326,0.144c0.359,0.219,0.664,0.744,0.529,1.247c-0.119,0.497-0.525,0.876-0.992,1.037
					c-0.471,0.167-0.989,0.111-1.428-0.055c-0.221-0.085-0.432-0.19-0.652-0.407c-0.195-0.189-0.318-0.424-0.408-0.654
					c-0.179-0.466-0.208-0.934-0.185-1.388c0.03-0.456,0.118-0.905,0.382-1.365c0.254-0.439,0.618-0.768,1.024-1.02
					c0.81-0.476,1.864-0.643,2.792-0.177c0.798,0.425,1.484,1.152,1.769,2.024c0.298,0.865,0.247,1.793-0.041,2.604
					c-0.306,0.785-0.833,1.591-1.653,1.831c0.705-0.432,1.061-1.205,1.203-1.957c0.158-0.757,0.089-1.545-0.202-2.209
					c-0.302-0.657-0.824-1.185-1.485-1.489c-0.558-0.266-1.318-0.171-1.893,0.191c-0.613,0.354-0.941,0.886-0.999,1.642
					c-0.079,0.725,0.053,1.447,0.636,1.689c0.593,0.318,1.427,0.194,1.688-0.431c0.129-0.297,0.042-0.646-0.244-0.921
					c-0.131-0.131-0.282-0.216-0.419-0.105C45.068,6.98,44.977,7.181,44.918,7.373z"/>
			</g>
		</g>
	</g>
	<rect x="18.657" y="11" fill="#3E4347" width="26.685" height="2"/>
	<polygon fill="#DBB471" points="43.098,16 20.901,16 19.948,13 44.051,13 	"/>
	<polygon fill="#3E4347" points="41.744,18 22.254,18 21.417,16 42.582,16 	"/>
	<rect x="22.291" y="60" fill="#3E4347" width="19.417" height="2"/>
	<polygon fill="#DBB471" points="23.922,57 40.075,57 40.77,60 23.229,60 	"/>
	<path fill="#B95A1E" d="M41.311,18H22.688c0,0,0.736,2.448,0.736,3.235s-0.736,3.059-0.736,3.059h18.623
		c0,0-0.736-2.271-0.736-3.059S41.311,18,41.311,18z"/>
	<path fill="#B95A1E" d="M47.105,33.211c0,4.386-1.697,10.416-4.105,14.789l-21.99,0.023c-2.415-4.377-4.117-10.418-4.117-14.813
		c0-9.42,6.764-11.229,15.106-11.229C40.342,21.981,47.105,23.791,47.105,33.211z"/>
	<g>
		<rect x="22.043" y="12.315" fill="#3E4347" width="1.17" height="3.735"/>
		<rect x="24.385" y="12.315" fill="#3E4347" width="1.172" height="3.735"/>
		<rect x="26.728" y="12.315" fill="#3E4347" width="1.172" height="3.735"/>
		<rect x="29.071" y="12.315" fill="#3E4347" width="1.172" height="3.735"/>
		<rect x="31.415" y="12.315" fill="#3E4347" width="1.17" height="3.735"/>
		<rect x="33.756" y="12.315" fill="#3E4347" width="1.172" height="3.735"/>
		<rect x="36.099" y="12.315" fill="#3E4347" width="1.172" height="3.735"/>
		<rect x="38.441" y="12.315" fill="#3E4347" width="1.172" height="3.735"/>
		<rect x="40.785" y="12.315" fill="#3E4347" width="1.17" height="3.735"/>
	</g>
	<g>
		<rect x="24.885" y="57" fill="#3E4347" width="1.095" height="3.689"/>
		<rect x="27.075" y="57" fill="#3E4347" width="1.094" height="3.689"/>
		<rect x="29.262" y="57" fill="#3E4347" width="1.096" height="3.689"/>
		<rect x="31.454" y="57" fill="#3E4347" width="1.092" height="3.689"/>
		<rect x="33.641" y="57" fill="#3E4347" width="1.096" height="3.689"/>
		<rect x="35.83" y="57" fill="#3E4347" width="1.095" height="3.689"/>
		<rect x="38.02" y="57" fill="#3E4347" width="1.094" height="3.689"/>
	</g>
	<polygon fill="#3E4347" points="18.548,26 17.449,29.033 46.549,29.033 45.452,26 	"/>
	<polygon fill="#3E4347" points="22,50 41.999,50 42.999,48 21,48 	"/>
	<g>
		
			<rect x="28.647" y="20.024" transform="matrix(-0.7069 -0.7073 0.7073 -0.7069 35.9438 57.3651)" fill="#3E4347" width="2.422" height="2.422"/>
		
			<rect x="32.931" y="20.024" transform="matrix(-0.7068 -0.7074 0.7074 -0.7068 43.2505 60.3965)" fill="#3E4347" width="2.421" height="2.422"/>
		
			<rect x="24.361" y="20.024" transform="matrix(-0.7071 -0.7071 0.7071 -0.7071 28.6381 54.333)" fill="#3E4347" width="2.422" height="2.422"/>
		
			<rect x="37.215" y="20.024" transform="matrix(0.7069 -0.7073 0.7073 0.7069 -3.7569 33.4034)" fill="#3E4347" width="2.423" height="2.422"/>
	</g>
	<g>
		<g>
			
				<rect x="18.946" y="34.25" transform="matrix(-0.7078 -0.7064 0.7064 -0.7078 8.902 73.6629)" fill="#3E4347" width="1.482" height="1.481"/>
			
				<rect x="18.946" y="40.863" transform="matrix(-0.7074 -0.7068 0.7068 -0.7074 4.2099 84.9497)" fill="#3E4347" width="1.483" height="1.481"/>
			
				<rect x="25.102" y="40.863" transform="matrix(-0.7071 -0.7071 0.7071 -0.7071 14.6991 89.2956)" fill="#3E4347" width="1.482" height="1.482"/>
			
				<rect x="25.103" y="34.25" transform="matrix(-0.7074 -0.7068 0.7068 -0.7074 19.3954 78.009)" fill="#3E4347" width="1.481" height="1.481"/>
			
				<rect x="21.284" y="36.815" transform="matrix(0.7069 -0.7073 0.7073 0.7069 -20.4146 27.3247)" fill="#3E4347" width="2.963" height="2.964"/>
		</g>
		<g>
			
				<rect x="31.259" y="40.862" transform="matrix(-0.7068 -0.7074 0.7074 -0.7068 25.1838 93.6454)" fill="#3E4347" width="1.481" height="1.482"/>
			
				<rect x="31.259" y="34.249" transform="matrix(-0.7071 -0.7071 0.7071 -0.7071 29.8843 82.359)" fill="#3E4347" width="1.481" height="1.482"/>
			
				<rect x="27.44" y="36.815" transform="matrix(0.7071 -0.7071 0.7071 0.7071 -18.609 31.6677)" fill="#3E4347" width="2.964" height="2.964"/>
		</g>
		<g>
			
				<rect x="37.413" y="40.863" transform="matrix(-0.7071 -0.7071 0.7071 -0.7071 35.7153 98.0008)" fill="#3E4347" width="1.482" height="1.482"/>
			
				<rect x="37.414" y="34.25" transform="matrix(-0.7074 -0.7068 0.7068 -0.7074 40.4157 86.7102)" fill="#3E4347" width="1.481" height="1.481"/>
			
				<rect x="33.595" y="36.814" transform="matrix(0.707 -0.7072 0.7072 0.707 -16.8064 36.0262)" fill="#3E4347" width="2.963" height="2.965"/>
		</g>
		<g>
			
				<rect x="43.568" y="40.863" transform="matrix(-0.7074 -0.7068 0.7068 -0.7074 46.2513 102.3523)" fill="#3E4347" width="1.483" height="1.481"/>
			
				<rect x="43.569" y="34.25" transform="matrix(-0.7078 -0.7064 0.7064 -0.7078 50.9516 91.0575)" fill="#3E4347" width="1.482" height="1.481"/>
			
				<rect x="39.751" y="36.815" transform="matrix(0.7071 -0.7071 0.7071 0.7071 -15.0031 40.373)" fill="#3E4347" width="2.964" height="2.964"/>
		</g>
	</g>
	<path fill="#3E4347" d="M38.999,53H25c0,0,0.442,1.333,0.448,1.846C25.456,55.521,24.885,57,24.885,57h14.228
		c0,0-0.571-1.479-0.563-2.154C38.558,54.333,38.999,53,38.999,53z"/>
	<g>
		<path fill="#DBB471" d="M16.949,32.019c-0.022,0.326-0.043,0.654-0.047,1h30.193c-0.004-0.346-0.024-0.674-0.047-1H16.949z"/>
		<path fill="#DBB471" d="M19.573,45.019h24.852c0.138-0.331,0.272-0.661,0.402-1H19.171C19.301,44.356,19.435,44.688,19.573,45.019
			z"/>
	</g>
</g>
</svg>
