<?xml version="1.0" encoding="utf-8"?>
<!-- Generator: Adobe Illustrator 15.0.0, SVG Export Plug-In . SVG Version: 6.00 Build 0)  -->
<!DOCTYPE svg PUBLIC "-//W3C//DTD SVG 1.1//EN" "http://www.w3.org/Graphics/SVG/1.1/DTD/svg11.dtd">
<svg version="1.1" id="Layer_1" xmlns="http://www.w3.org/2000/svg" xmlns:xlink="http://www.w3.org/1999/xlink" x="0px" y="0px"
	 width="64px" height="64px" viewBox="0 0 64 64" enable-background="new 0 0 64 64" xml:space="preserve">
<path fill="#E84D88" d="M60.821,32.884c-0.719-3.363-2.972-5.299-5.086-5.7c0.453-0.406,0.884-1.01,1.28-1.852
	c1.016-2.156,1.646-5.427,0.887-7.507c-1.274-3.489-4.08-5.571-7.507-5.571c-1.612,0-3.211,0.461-4.612,1.284
	c0.229-0.657,0.374-1.371,0.372-2.139c-0.004-2.003-0.976-3.976-2.889-5.864C41.586,3.876,39.544,3,37.361,3
	c-2.557,0-5.002,1.165-7.005,2.877c-0.034-0.043-0.064-0.089-0.104-0.132c-1.414-1.537-3.303-2.349-5.459-2.349
	c-3.891,0-8.229,2.754-8.351,4.694c-0.022,0.351,0.091,0.749,0.394,1.055c-2.791,0.817-4.828,2.473-5.806,4.775
	c-0.104,0.246-0.18,0.504-0.259,0.761c-0.259-0.219-0.58-0.332-0.926-0.308c-2.246,0.155-4.054,1.739-5.084,4.461
	c-0.85,2.245-1.127,5.291-0.184,6.251c0.2,0.202,0.457,0.31,0.728,0.34c-0.236,0.336-0.437,0.686-0.58,1.046
	c-1.023,2.576-0.955,5.294,0.132,7.848c-0.249,0.067-0.474,0.203-0.649,0.407c-1.465,1.708-1.603,4.108-0.389,6.752
	c1.003,2.182,2.979,4.518,4.323,4.519c0.046,0,0.085-0.021,0.129-0.025c0.202,1.449,0.692,2.955,1.482,4.482
	c1.446,2.798,4.149,5.914,5.721,5.915c0.375,0,0.708-0.153,0.933-0.433c0.063-0.081,0.118-0.169,0.16-0.263
	c0.823,1.65,1.954,2.871,3.385,3.629C22.079,60.429,24.186,61,26.219,61c4.917,0,8.551-3.293,10.726-6.426
	c0.225,0.8,0.68,1.507,1.367,2.039c1.097,0.853,2.719,1.285,4.82,1.285c0.774,0,1.625-0.06,2.53-0.176
	c4.704-0.606,6.838-8.008,6.687-10.35c-0.065-1.044-0.625-1.32-0.961-1.395c0.186-0.365,0.344-0.762,0.487-1.176
	c0.166,0.072,0.36,0.131,0.615,0.131c0.002,0,0.002,0,0.002,0c1.503,0,4.213-1.837,6.04-4.094
	C59.972,39.061,61.537,36.235,60.821,32.884z"/>
<g>
	<path fill="#A01A5D" d="M61.814,32.914c-0.744-3.479-3.074-5.481-5.262-5.896c0.469-0.42,0.914-1.045,1.324-1.916
		c1.051-2.23,1.703-5.614,0.918-7.766c-1.318-3.609-4.221-5.764-7.766-5.764c-1.668,0-3.322,0.478-4.771,1.328
		c0.236-0.68,0.387-1.418,0.385-2.213c-0.004-2.072-1.01-4.113-2.988-6.066C41.916,2.906,39.803,2,37.545,2
		c-2.645,0-5.173,1.205-7.246,2.977c-0.035-0.045-0.066-0.092-0.107-0.137c-1.463-1.59-3.416-2.43-5.646-2.43
		c-4.025,0-8.514,2.85-8.639,4.855C15.883,7.629,16,8.04,16.313,8.357c-2.887,0.846-4.994,2.559-6.006,4.939
		c-0.107,0.255-0.186,0.521-0.268,0.787c-0.268-0.227-0.6-0.344-0.957-0.318c-2.324,0.16-4.193,1.799-5.26,4.615
		c-0.879,2.322-1.166,5.474-0.189,6.467c0.207,0.209,0.473,0.32,0.752,0.352c-0.244,0.348-0.451,0.709-0.6,1.082
		c-1.059,2.664-0.988,5.477,0.137,8.118c-0.258,0.069-0.49,0.21-0.672,0.421c-1.516,1.768-1.658,4.25-0.402,6.985
		c1.037,2.257,3.082,4.673,4.473,4.674c0.047,0,0.088-0.021,0.133-0.026c0.209,1.5,0.717,3.058,1.533,4.638
		c1.496,2.894,4.293,6.117,5.918,6.118l0,0c0.389,0,0.732-0.158,0.965-0.447c0.066-0.084,0.123-0.175,0.166-0.271
		c0.852,1.707,2.021,2.97,3.502,3.754C21.737,61.409,23.917,62,26.02,62l0,0c5.086,0,8.845-3.406,11.095-6.647
		c0.232,0.827,0.703,1.559,1.414,2.109c1.135,0.882,2.813,1.329,4.986,1.329c0.801,0,1.682-0.062,2.617-0.182
		c4.867-0.627,7.074-8.283,6.918-10.706c-0.068-1.08-0.646-1.366-0.994-1.442c0.191-0.378,0.355-0.788,0.504-1.217
		c0.172,0.075,0.373,0.136,0.637,0.136c0.002,0,0.002,0,0.002,0c1.555,0,4.357-1.9,6.248-4.235
		C60.936,39.304,62.555,36.382,61.814,32.914z M52.299,24.527c0.904,2.283-0.73,6.637-1.648,7.527
		c-1.088-0.951-3.879-5.879-4.158-9.192c-0.193-2.29-1.188-3.718-1.811-4.538C47.26,18.02,51.172,21.674,52.299,24.527z
		 M15.749,41.547c-1.006,0-2.088-0.588-3.045-1.655c-1.676-1.868-2.584-4.684-2.314-7.173c0.83-7.633,5.07-9.871,7.609-10.526
		c-1.395,2.071-3.143,5.925-0.338,11.514c0.172,1.172-1.07,6.757-1.859,7.841C15.784,41.547,15.766,41.547,15.749,41.547z
		 M38.957,40.739c1.402-1.486,3.322-3.519,4.354-5.849c1.063-2.396,0.209-5.566-0.475-8.113c-0.191-0.709-0.434-1.607-0.518-2.178
		c1.371,0.645,2.971,2.806,3.906,5.326c1.031,2.777,1.08,5.356,0.129,6.899c-1.826,2.969-5.977,4.559-8.182,4.758
		C38.418,41.311,38.701,41.01,38.957,40.739z M40.174,27.311c2.02,3.863,0.855,8.573-2.596,10.502
		c-0.314,0.176-0.67,0.313-0.998,0.416c0.973-1.963,2.703-6.271,1.051-9.436c-1.455-2.784-5.775-3.368-9.142-3.368
		c-0.477,0-0.91,0.012-1.281,0.028c0.766-0.667,1.875-1.445,2.607-1.735c1.02-0.403,2.098-0.607,3.205-0.607
		C36.127,23.11,38.801,24.681,40.174,27.311z M29.905,36.37c-0.609-0.747-0.941-1.782-1.107-2.65
		c0.793,0.505,1.717,0.958,2.475,0.958c0.002,0,0.002,0,0.002,0c0.785,0,1.701-0.501,1.701-1.912c0-1.74-1.146-2.834-3.098-2.99
		c0.453-0.717,1.191-1.541,1.9-1.541c2.423,0,3.509,2.276,3.509,4.531c0,3.261-0.984,4.532-3.509,4.532
		C31.026,37.298,30.413,36.994,29.905,36.37z M26.071,28.975c0.246-0.149,0.518-0.277,0.781-0.383
		c-0.957,1.991-2.449,5.938-0.881,8.706c1.561,2.76,5.484,3.38,7.822,3.495c-0.24,0.207-0.506,0.411-0.77,0.571
		c-1.08,0.652-2.304,0.997-3.542,0.997c-2.447,0-4.73-1.347-5.959-3.516C21.584,35.426,22.729,30.996,26.071,28.975z M43.047,20.463
		c0.344,0.756,0.467,1.363,0.492,1.749c-0.602-0.161-1.129-0.24-1.604-0.24c-1.436,0-2.076,0.745-2.422,1.145
		c-0.004,0.005-0.008,0.01-0.012,0.015c-0.348-0.207-1.15-0.869-3.008-2.839c-2.162-2.296-4.914-3.46-8.177-3.46
		c-1.615,0-3.023,0.275-4.049,0.476c-0.061,0.013-0.121,0.024-0.18,0.035c1.092-2.001,4.752-3.784,8.18-3.784
		c0.884,0,1.689,0.119,2.392,0.354C40.418,15.843,42.443,19.137,43.047,20.463z M27.989,19.883c1.371,0,2.531,0.204,3.324,0.44
		c-0.143,0.056-0.285,0.11-0.422,0.163c-1.967,0.752-4.938,1.889-6.717,4.13c-1.207,1.519-2.232,3.463-3.059,5.024
		c-0.4,0.76-0.873,1.653-1.217,2.176c-0.645-0.912-0.967-2.319-0.875-3.912c0.15-2.631,1.387-5.148,3.15-6.412
		C23.618,20.455,25.682,19.883,27.989,19.883z M27.061,52.25c-1.215,0-2.33-0.295-3.314-0.876
		c-5.709-3.368-4.908-10.406-4.004-14.108c0.891,2.551,2.566,6.248,6.133,7.582c0.852,0.319,1.846,0.475,3.035,0.475
		c0,0,0,0,0.002,0c1.732,0,3.582-0.334,5.212-0.628c1.229-0.221,2.391-0.43,3.176-0.43c0.328,0,0.502,0.037,0.582,0.063
		c-0.002,0.054-0.014,0.145-0.049,0.28C37.021,47.615,32.032,52.25,27.061,52.25z M49.066,47.198
		c-2.043,1.568-4.764,1.803-6.203,1.803c-2.035-0.001-3.449-0.441-3.889-0.725c-0.02-0.938,1.553-3.956,2.234-4.495
		c7.58-1.928,8.363-6.781,8.613-9.119c0.926,1.299,1.533,3.744,1.5,6.263C51.287,43.799,50.443,46.144,49.066,47.198z M5.584,26.995
		c0.76-1.912,3.82-3.525,5.34-3.525c0.188,0,0.299,0.024,0.359,0.045c-0.1,0.24-0.418,0.709-0.68,1.095
		C9.198,26.686,6.7,30.371,7.901,36.964c-0.723-0.754-1.535-1.816-2.125-3.114C4.745,31.578,4.68,29.271,5.584,26.995z
		 M17.198,42.878c0,0,0,0.002,0,0.003C17.198,42.88,17.198,42.879,17.198,42.878C17.198,42.878,17.198,42.878,17.198,42.878z
		 M56.977,18c0.813,2.225-0.531,6.098-1.447,7.328c-0.055-0.179-0.109-0.376-0.16-0.555c-0.354-1.269-0.887-3.188-2.324-4.967
		c-1.918-2.375-4.854-3.418-6.607-4.04c-0.176-0.063-0.369-0.132-0.551-0.199c1.398-1.287,3.295-2.06,5.143-2.06
		C53.768,13.508,55.934,15.145,56.977,18z M37.545,3.936c1.764,0,3.361,0.693,4.75,2.063c1.598,1.578,2.41,3.157,2.412,4.693
		c0.004,2.091-1.48,3.777-2.428,4.741c-0.096-0.118-0.201-0.258-0.297-0.382c-0.775-1.016-2.074-2.714-4.664-3.773
		c-1.26-0.516-2.676-0.776-4.213-0.776c-1.859,0-3.533,0.37-4.755,0.64c-0.131,0.028-0.264,0.057-0.391,0.085
		C29.579,7.535,33.529,3.936,37.545,3.936z M24.545,4.346c1.637,0,3.014,0.563,4.098,1.673c-0.17,0.28-0.645,0.767-0.975,1.104
		c-0.693,0.71-1.514,1.55-1.928,2.529c-1.213-0.754-3.504-2.059-7.617-2.664C19,6.023,21.661,4.346,24.545,4.346z M12.088,14.053
		c0.934-2.197,3.047-3.635,6.115-4.156c0.342-0.058,0.701-0.088,1.068-0.088c2.713,0,5.342,1.628,5.588,2.939
		c-0.02,0.423-1.24,1.571-1.896,2.188c-1.129,1.064-2.197,2.07-2.48,3.139c-0.662,0.861-5.58,3.354-7.365,3.354
		c-0.016,0-0.029,0-0.043-0.001C11.532,19.068,11.153,16.26,12.088,14.053z M6.178,17.896c0.688-1.2,1.553-1.918,2.578-2.137
		c0.064,0.672-0.059,2.006-0.135,2.863c-0.063,0.672-0.121,1.313-0.143,1.881c-0.645,0.186-1.783,0.592-3.52,2.134
		C4.961,21.469,5.262,19.503,6.178,17.896z M6.678,43.983c-0.83-0.82-2.021-2.415-2.521-4.195c-0.373-1.332-0.277-2.451,0.287-3.336
		c0.523,0.426,1.389,1.448,1.943,2.105c0.436,0.515,0.852,1.007,1.24,1.421C7.309,40.568,6.799,41.664,6.678,43.983z M14.167,45.361
		c-0.338,1.914-0.883,4.995-0.207,9.189c-1.199-1.098-3.023-3.329-4.023-6.104c-1.008-2.794-0.883-5.272,0.367-7.376
		c0.117,0.131,0.24,0.275,0.348,0.399c0.807,0.938,1.988,2.315,3.689,2.811C14.307,44.569,14.235,44.982,14.167,45.361z
		 M26.02,60.064c-1.785,0-3.66-0.516-5.576-1.53c-1.557-0.825-2.693-2.403-3.375-4.689c-0.771-2.592-0.787-5.507-0.592-7.543
		c1.111,3.042,2.912,7.333,6.256,8.327c0.98,0.291,2.047,0.438,3.172,0.438l0,0c3.684,0,7.363-1.563,9.798-2.597
		c0.375-0.16,0.789-0.336,1.166-0.486C35.414,54.887,31.655,60.064,26.02,60.064z M48.988,54.373
		c-0.941,1.393-1.984,2.173-3.104,2.316c-2.887,0.374-5.064,0.101-6.17-0.755c-0.553-0.432-0.834-1.008-0.834-1.717
		c0-1.415,1.09-2.687,1.621-2.687c1.32,0.133,2.451,0.197,3.457,0.197c4.145,0,5.492-1.167,6.924-2.403
		c0.043-0.038,0.088-0.077,0.135-0.116C50.771,50.576,50.125,52.688,48.988,54.373z M53.199,44.412l-0.002-0.968h0.002V44.412z
		 M57.941,39.926c-1.396,1.726-3.023,2.831-4,3.283c0.836-3.435,0.219-5.241-0.287-6.714c-0.6-1.751-1.072-3.134,1.445-7.478
		c0.021-0.03,0.199-0.152,0.615-0.152c1.309,0,3.508,1.186,4.207,4.453C60.504,36.04,59.166,38.414,57.941,39.926z"/>
</g>
</svg>
