<?xml version="1.0" encoding="utf-8"?>
<!-- Generator: Adobe Illustrator 15.0.0, SVG Export Plug-In . SVG Version: 6.00 Build 0)  -->
<!DOCTYPE svg PUBLIC "-//W3C//DTD SVG 1.1//EN" "http://www.w3.org/Graphics/SVG/1.1/DTD/svg11.dtd">
<svg version="1.1" id="Layer_1" xmlns="http://www.w3.org/2000/svg" xmlns:xlink="http://www.w3.org/1999/xlink" x="0px" y="0px"
	 width="64px" height="64px" viewBox="0 0 64 64" enable-background="new 0 0 64 64" xml:space="preserve">
<g>
	<g>
		<path fill="#3E4347" d="M26.5,43v20c0,0,0.646,1,1,1s1-1,1-1V43H26.5z"/>
		<path fill="#3E4347" d="M31.5,43h-1v20c0,0,0.646,1,1,1s1-1,1-1V43H31.5z"/>
		<path fill="#3E4347" d="M34.5,43v20c0,0,0.646,1,1,1s1-1,1-1V43H34.5z"/>
		<rect x="23" y="51" fill="#3E4347" width="17" height="2"/>
		<rect x="23" y="47" fill="#3E4347" width="17" height="2"/>
		<rect x="23" y="55" fill="#3E4347" width="17" height="2"/>
		<rect x="23" y="59" fill="#3E4347" width="17" height="2"/>
	</g>
	<path fill="#3E4347" d="M12.5,11c0,0.55-0.45,1-1,1l0,0c-0.55,0-1-0.45-1-1V1c0-0.55,0.45-1,1-1l0,0c0.55,0,1,0.45,1,1V11z"/>
	<path fill="#3E4347" d="M32.5,11c0,0.55-0.45,1-1,1l0,0c-0.55,0-1-0.45-1-1V1c0-0.55,0.45-1,1-1l0,0c0.55,0,1,0.45,1,1V11z"/>
	<path fill="#3E4347" d="M52.5,11c0,0.55-0.45,1-1,1l0,0c-0.55,0-1-0.45-1-1V1c0-0.55,0.45-1,1-1l0,0c0.55,0,1,0.45,1,1V11z"/>
	<rect x="22" y="22" fill="#B2C1C0" width="18" height="16"/>
	<rect x="6" y="18" fill="#B2C1C0" width="10" height="20"/>
	<rect x="46" y="18" fill="#B2C1C0" width="10" height="20"/>
	<polygon fill="#42ADE2" points="31.5,10 19.5,22 43.5,22 	"/>
	<polygon fill="#42ADE2" points="11.5,10 3.5,18 19.5,18 	"/>
	<polygon fill="#42ADE2" points="51.5,10 43.5,18 59.5,18 	"/>
	<circle fill="#3E4347" cx="31.5" cy="29" r="3"/>
	<rect x="28.5" y="29" fill="#3E4347" width="6" height="9"/>
	<path fill="#DAE3EA" d="M57.5,32h-4c-0.55,0-1,0.45-1,1v4c0,0.55-0.45,1-1,1h-4c-0.55,0-1-0.45-1-1v-4c0-0.55-0.45-1-1-1h-4
		c-0.55,0-1,0.45-1,1v4c0,0.55-0.45,1-1,1h-4c-0.55,0-1-0.45-1-1v-4c0-0.55-0.45-1-1-1h-4c-0.55,0-1,0.45-1,1v4c0,0.55-0.45,1-1,1
		h-4c-0.55,0-1-0.45-1-1v-4c0-0.55-0.45-1-1-1h-4c-0.55,0-1,0.45-1,1v4c0,0.55-0.45,1-1,1h-4c-0.55,0-1-0.45-1-1v-4
		c0-0.55-0.45-1-1-1h-4c-0.55,0-1,0.45-1,1v4c0,0.55,0.318,1.318,0.707,1.707l0.586,0.586C6.182,39.682,6.5,40.45,6.5,41v22
		c0,0.55,0.45,1,1,1h16V52c0-4.418,3.582-8,8-8c4.418,0,8,3.582,8,8v12h16c0.55,0,1-0.45,1-1V41c0-0.55,0.318-1.318,0.707-1.707
		l0.586-0.586C58.182,38.318,58.5,37.55,58.5,37v-4C58.5,32.45,58.05,32,57.5,32z"/>
	<rect x="9.5" y="22" fill="#3E4347" width="4" height="6"/>
	<circle fill="#3E4347" cx="11.5" cy="22" r="2"/>
	<rect x="49.5" y="22" fill="#3E4347" width="4" height="6"/>
	<circle fill="#3E4347" cx="51.5" cy="22" r="2"/>
	<path fill="#B2C1C0" d="M10,44H6c-0.55,0-1,0.45-1,1v2c0,0.55,0.45,1,1,1h4c0.55,0,1-0.45,1-1v-2C11,44.45,10.55,44,10,44z"/>
	<path fill="#42ADE2" d="M20.5,6.557c-2.667-1.533-5.333,1.535-8,0c0-1.704,0-3.409,0-5.113c2.667,1.533,5.333-1.535,8,0
		c-0.667,0.469-1.333,1.225-2,2.125C19.167,4.373,19.833,5.32,20.5,6.557z"/>
	<path fill="#42ADE2" d="M40.5,6.557c-2.666-1.533-5.334,1.535-8,0c0-1.704,0-3.409,0-5.113c2.666,1.533,5.334-1.535,8,0
		c-0.666,0.469-1.334,1.225-2,2.125C39.166,4.373,39.834,5.32,40.5,6.557z"/>
	<path fill="#42ADE2" d="M60.5,6.557c-2.666-1.533-5.334,1.535-8,0c0-1.704,0-3.409,0-5.113c2.666,1.533,5.334-1.535,8,0
		c-0.666,0.469-1.334,1.225-2,2.125C59.166,4.373,59.834,5.32,60.5,6.557z"/>
	<path fill="#B2C1C0" d="M13,50H9c-0.55,0-1,0.45-1,1v2c0,0.55,0.45,1,1,1h4c0.55,0,1-0.45,1-1v-2C14,50.45,13.55,50,13,50z"/>
	<path fill="#B2C1C0" d="M21.792,60h-4c-0.55,0-1,0.45-1,1v2c0,0.55,0.45,1,1,1h4c0.55,0,1-0.45,1-1v-2
		C22.792,60.45,22.342,60,21.792,60z"/>
	<path fill="#B2C1C0" d="M19.688,55h-4c-0.55,0-1,0.45-1,1v2c0,0.55,0.45,1,1,1h4c0.55,0,1-0.45,1-1v-2
		C20.688,55.45,20.237,55,19.688,55z"/>
	<path fill="#B2C1C0" d="M21.792,47h-4c-0.55,0-1,0.45-1,1v2c0,0.55,0.45,1,1,1h4c0.55,0,1-0.45,1-1v-2
		C22.792,47.45,22.342,47,21.792,47z"/>
	<path fill="#B2C1C0" d="M19,39.93h-4c-0.55,0-1,0.45-1,1v2c0,0.55,0.45,1,1,1h4c0.55,0,1-0.45,1-1v-2
		C20,40.38,19.55,39.93,19,39.93z"/>
	<path fill="#B2C1C0" d="M10,56H6c-0.55,0-1,0.45-1,1v2c0,0.55,0.45,1,1,1h4c0.55,0,1-0.45,1-1v-2C11,56.45,10.55,56,10,56z"/>
	<path fill="#B2C1C0" d="M57,50h-4c-0.55,0-1,0.45-1,1v2c0,0.55,0.45,1,1,1h4c0.55,0,1-0.45,1-1v-2C58,50.45,57.55,50,57,50z"/>
	<path fill="#B2C1C0" d="M54,56h-4c-0.55,0-1,0.45-1,1v2c0,0.55,0.45,1,1,1h4c0.55,0,1-0.45,1-1v-2C55,56.45,54.55,56,54,56z"/>
	<path fill="#B2C1C0" d="M49.5,44.695h-4c-0.55,0-1,0.45-1,1v2c0,0.55,0.45,1,1,1h4c0.55,0,1-0.45,1-1v-2
		C50.5,45.146,50.05,44.695,49.5,44.695z"/>
	<path fill="#B2C1C0" d="M45.5,51.5h-4c-0.55,0-1,0.45-1,1v2c0,0.55,0.45,1,1,1h4c0.55,0,1-0.45,1-1v-2
		C46.5,51.95,46.05,51.5,45.5,51.5z"/>
	<path fill="#B2C1C0" d="M47.375,60h-4c-0.55,0-1,0.45-1,1v2c0,0.55,0.45,1,1,1h4c0.55,0,1-0.45,1-1v-2
		C48.375,60.45,47.925,60,47.375,60z"/>
	<path fill="#B2C1C0" d="M56.5,39.18h-4c-0.55,0-1,0.45-1,1v2c0,0.55,0.45,1,1,1h4c0.55,0,1-0.45,1-1v-2
		C57.5,39.63,57.05,39.18,56.5,39.18z"/>
	<path fill="#B2C1C0" d="M41,40.18h-4c-0.55,0-1,0.45-1,1v2c0,0.55,0.45,1,1,1h4c0.55,0,1-0.45,1-1v-2
		C42,40.63,41.55,40.18,41,40.18z"/>
	<path fill="#E8E8E8" d="M13.5,27.875h-4c-0.55,0-1,0.45-1,1v0.25c0,0.55,0.45,1,1,1h4c0.55,0,1-0.45,1-1v-0.25
		C14.5,28.325,14.05,27.875,13.5,27.875z"/>
	<path fill="#E8E8E8" d="M53.5,27.875h-4c-0.55,0-1,0.45-1,1v0.25c0,0.55,0.45,1,1,1h4c0.55,0,1-0.45,1-1v-0.25
		C54.5,28.325,54.05,27.875,53.5,27.875z"/>
</g>
</svg>
