<?xml version="1.0" encoding="utf-8"?>
<!-- Generator: Adobe Illustrator 15.0.0, SVG Export Plug-In . SVG Version: 6.00 Build 0)  -->
<!DOCTYPE svg PUBLIC "-//W3C//DTD SVG 1.1//EN" "http://www.w3.org/Graphics/SVG/1.1/DTD/svg11.dtd">
<svg version="1.1" id="Layer_1" xmlns="http://www.w3.org/2000/svg" xmlns:xlink="http://www.w3.org/1999/xlink" x="0px" y="0px"
	 width="64px" height="64px" viewBox="0 0 64 64" enable-background="new 0 0 64 64" xml:space="preserve">
<g>
	<g>
		<path fill="#D3976E" d="M14.279,20.447c-12.532,12.531-5.161,27.973-2.9,33.049c0.391,0.873,0.613,1.67,0.729,2.4
			c-0.929-0.076-2.142,0.348-3.225,1.23c-1.645,1.336-0.879,3.367-0.026,4.219c0.638,0.639,1.154,0.945,2.742,0.285
			c2.252-0.939,7.541-4.32,4.943-10.051c-7.512-16.561,2.973-26.82,2.973-26.82l-4.771-4.771L14.279,20.447z"/>
		<path fill="#D3976E" d="M57.126,8.879c-0.882,1.088-1.308,2.303-1.229,3.227c-0.73-0.117-1.529-0.336-2.402-0.727
			c-5.074-2.264-20.517-9.631-33.046,2.898l-0.459,0.465l4.771,4.773c0,0,10.26-10.486,26.821-2.973
			c5.729,2.596,9.109-2.693,10.049-4.943c0.66-1.588,0.354-2.105-0.283-2.744C60.495,8.002,58.463,7.234,57.126,8.879z"/>
	</g>
	
		<rect x="16.378" y="16.041" transform="matrix(0.7071 0.7071 -0.7071 0.7071 19.7514 -8.1822)" fill="#FED0AC" width="6.748" height="7.419"/>
	<polygon fill="#89664C" points="22.878,21.398 18.112,16.611 18.906,15.82 23.682,20.594 	"/>
	<polygon fill="#89664C" points="16.602,18.121 21.39,22.885 20.597,23.68 15.823,18.902 	"/>
	<path fill="#89664C" d="M11.683,59.291c0.82-0.82,0.787-2.631,0.425-3.395c-0.351-0.031-0.753,0.037-1.163,0.148
		c1.307-0.188,0.231,3.574-0.308,2.807c-0.558-0.789-0.607-0.229-0.595-0.078C10.087,59.201,10.49,60.484,11.683,59.291z"/>
	<path fill="#89664C" d="M59.292,11.682c-0.82,0.82-2.631,0.789-3.395,0.424c-0.029-0.352,0.035-0.748,0.148-1.162
		c-0.188,1.307,3.573,0.232,2.808-0.309c-0.791-0.555-0.229-0.607-0.08-0.592C59.205,10.086,60.484,10.488,59.292,11.682z"/>
	<polygon fill="#B2C1C0" points="10.248,8.748 9.968,5.467 2,2 5.467,9.967 8.748,10.248 	"/>
	<path fill="#D3976E" d="M49.573,48.094L10.238,8.756l-1.5,1.502l39.335,39.334c0.207,0.209,0.711,0.039,1.125-0.373
		C49.611,48.805,49.779,48.299,49.573,48.094z"/>
	<path fill="#ED4C5C" d="M51.472,42.494c-0.253-0.252-2.242,0.361-2.242,0.361s1.558-0.766,1.49-1.115
		c-0.061-0.307-0.574-0.852-0.884-0.885c-0.674-0.064-3.001,0.75-3.001,0.75s2.313-0.828,2.246-1.502
		c-0.029-0.291-0.824-0.826-0.824-0.826c-2.517,1.232-5.998,1.504-5.998,1.504l6.428,6.426c0,0,5.949-1.551,5.011-2.488
		C52.944,43.965,52.428,43.451,51.472,42.494z"/>
	<path fill="#FFCE31" d="M48.011,46.531c2.107-0.633,4.244-1.379,5.399-2.1c-0.212-0.211-0.471-0.473-0.755-0.756
		c-1.063,0.561-3.311,1.352-5.5,1.998L48.011,46.531z"/>
	<path opacity="0.5" fill="#3E4347" d="M45.472,40.244H45.47c-1.729,0.42-3.211,0.537-3.211,0.537l6.428,6.426
		c0,0,1.538-0.402,2.929-0.92C44.086,44.35,45.472,40.244,45.472,40.244z"/>
	<path fill="#ED4C5C" d="M42.476,51.494c-0.254-0.254,0.361-2.242,0.361-2.242s-0.766,1.555-1.115,1.488
		c-0.309-0.059-0.854-0.574-0.885-0.885c-0.067-0.674,0.747-3,0.747-3s-0.827,2.313-1.501,2.248
		c-0.289-0.029-0.823-0.826-0.823-0.826c1.231-2.516,1.499-5.998,1.499-5.998l6.426,6.426c0,0-1.549,5.951-2.486,5.014
		C43.946,52.965,43.431,52.449,42.476,51.494z"/>
	<path fill="#FFCE31" d="M46.509,48.033c-0.629,2.107-1.38,4.242-2.098,5.398c-0.213-0.215-0.471-0.473-0.755-0.756
		c0.559-1.064,1.353-3.311,1.999-5.5L46.509,48.033z"/>
	<path opacity="0.5" fill="#3E4347" d="M40.224,45.49v-0.002c0.42-1.727,0.535-3.209,0.535-3.209l6.426,6.426
		c0,0-0.4,1.539-0.92,2.93C44.329,44.107,40.224,45.49,40.224,45.49z"/>
	<polygon fill="#B2C1C0" points="12.226,61.297 47.885,49.404 47.047,48.568 15.214,59.186 	"/>
	<polygon opacity="0.5" fill="#3E4347" points="46.882,49.74 47.885,49.404 47.047,48.568 46.044,48.902 	"/>
	<polygon fill="#B2C1C0" points="61.301,12.221 59.187,15.209 48.556,47.076 49.396,47.918 	"/>
	<polygon opacity="0.5" fill="#3E4347" points="48.894,46.074 48.556,47.076 49.396,47.918 49.729,46.914 	"/>
	<polygon opacity="0.5" fill="#3E4347" points="8.748,10.248 10.248,8.748 10.161,7.73 10.161,7.73 6.114,8.301 2,2 5.467,9.967 	
		"/>
	<polygon fill="#E8E8E8" points="7.335,8.076 8.947,8.943 8.077,7.334 9.455,6.453 7.416,6.582 3.696,3.697 6.585,7.416 
		6.456,9.453 	"/>
</g>
</svg>
