<?xml version="1.0" encoding="utf-8"?>
<!-- Generator: Adobe Illustrator 15.0.0, SVG Export Plug-In . SVG Version: 6.00 Build 0)  -->
<!DOCTYPE svg PUBLIC "-//W3C//DTD SVG 1.1//EN" "http://www.w3.org/Graphics/SVG/1.1/DTD/svg11.dtd">
<svg version="1.1" id="Layer_1" xmlns="http://www.w3.org/2000/svg" xmlns:xlink="http://www.w3.org/1999/xlink" x="0px" y="0px"
	 width="64px" height="64px" viewBox="0 0 64 64" enable-background="new 0 0 64 64" xml:space="preserve">
<g>
	<path fill="#3E4347" d="M48.151,0.722C31.54-4.455,25.749,20.098,9.138,14.921c3.006,8.258,6.012,16.516,9.018,24.776
		c16.611,5.176,22.402-19.377,39.013-14.201C54.163,17.238,51.157,8.979,48.151,0.722z"/>
	<polygon fill="#94989B" points="7.696,15.446 6.834,15.761 24.393,64 25.37,64 	"/>
	<polygon fill="#94989B" points="27.001,64 9.138,14.921 8.273,15.236 26.022,64 	"/>
	
		<rect x="7.678" y="15.341" transform="matrix(0.9395 -0.3426 0.3426 0.9395 -4.7722 3.6636)" fill="#D0D0D0" width="0.614" height="0"/>
	<polygon fill="#D0D0D0" points="26.022,64 8.273,15.236 7.696,15.446 25.37,64 	"/>
</g>
</svg>
