<?xml version="1.0" encoding="utf-8"?>
<!-- Generator: Adobe Illustrator 15.0.0, SVG Export Plug-In . SVG Version: 6.00 Build 0)  -->
<!DOCTYPE svg PUBLIC "-//W3C//DTD SVG 1.1//EN" "http://www.w3.org/Graphics/SVG/1.1/DTD/svg11.dtd">
<svg version="1.1" id="Layer_1" xmlns="http://www.w3.org/2000/svg" xmlns:xlink="http://www.w3.org/1999/xlink" x="0px" y="0px"
	 width="64px" height="64px" viewBox="0 0 64 64" enable-background="new 0 0 64 64" xml:space="preserve">
<g>
	<g>
		<path fill="#896349" d="M41.138,38.847c-0.607-0.896-1.621-1.482-2.77-1.482c-1.861,0-3.367,1.538-3.367,3.44v12.337
			c0,1.898,1.506,3.437,3.367,3.437s3.367-1.538,3.367-3.437v-4.476v-7.861C41.735,40.077,41.515,39.402,41.138,38.847z"/>
		<g>
			<path fill="#3E4347" d="M38.368,56.578c1.861,0,3.367-1.538,3.367-3.437h-6.734C35.001,55.04,36.507,56.578,38.368,56.578z"/>
		</g>
	</g>
	<g>
		<path fill="none" stroke="#A87654" stroke-width="1.5" stroke-miterlimit="10" d="M42.593,30.483c0,0,10.293-2.592,15.592-9.632"
			/>
		<g>
			<path fill="#A87654" d="M54.88,24.18c-0.076-2.67,0.299-4.863,1.117-6.175c1.234-0.828,3.359-1.247,5.992-1.187
				c0.08,2.672-0.297,4.864-1.115,6.177C59.638,23.822,57.515,24.244,54.88,24.18z"/>
		</g>
	</g>
	<g>
		<path fill="#A87654" d="M55.298,36.514c0,6.795-6.029,12.304-13.469,12.304H17.89v-24.63h23.939
			C49.269,24.187,55.298,29.697,55.298,36.514z"/>
	</g>
	<g>
		<g>
			<path fill="#A87654" d="M36.571,38.447c-0.883-1.302-2.352-2.153-4.021-2.153c-2.701,0-4.889,2.233-4.889,4.995v15.719
				c0,2.758,2.188,4.991,4.889,4.991c2.703,0,4.89-2.233,4.89-4.991V50.51v-9.221C37.44,40.233,37.118,39.254,36.571,38.447z"/>
			<g>
				<path fill="#3E4347" d="M32.55,61.999c2.703,0,4.89-2.233,4.89-4.991h-9.779C27.662,59.766,29.849,61.999,32.55,61.999z"/>
			</g>
		</g>
		<g>
			<path fill="#A87654" d="M16.498,36.345c-2.701,0-4.885,2.229-4.885,4.985v5.641v8.49v1.557c0,2.752,2.184,4.981,4.885,4.981
				c2.693,0,4.875-2.229,4.875-4.981V41.33C21.373,38.574,19.191,36.345,16.498,36.345z"/>
			<g>
				<path fill="#3E4347" d="M16.498,61.999c-2.701,0-4.885-2.229-4.885-4.981h9.76C21.373,59.77,19.191,61.999,16.498,61.999z"/>
			</g>
		</g>
	</g>
	<g>
		<path fill="#A87654" d="M54.507,34.621c-0.805-1.186-2.143-1.96-3.662-1.96c-2.459,0-4.449,2.034-4.449,4.547v16.308
			c0,2.509,1.99,4.544,4.449,4.544c2.461,0,4.453-2.035,4.453-4.544V47.6V37.208C55.298,36.247,55.003,35.355,54.507,34.621z"/>
		<g>
			<path fill="#3E4347" d="M50.845,58.06c2.461,0,4.453-2.035,4.453-4.544h-8.902C46.396,56.024,48.386,58.06,50.845,58.06z"/>
		</g>
	</g>
	<g>
		<g>
			<path fill="#C1875D" d="M46.854,13.435c0.125,4.042-0.482,7.361-1.799,9.349c-1.992,1.248-5.42,1.888-9.668,1.793
				c-0.125-4.043,0.48-7.364,1.801-9.351C39.181,13.979,42.606,13.339,46.854,13.435z"/>
		</g>
		<g>
			<path fill="#3E4347" d="M44.327,15.893c0.07,2.258-0.27,4.112-1.006,5.224c-1.113,0.699-3.031,1.056-5.404,1.003
				c-0.07-2.261,0.268-4.115,1.006-5.227C40.038,16.194,41.952,15.838,44.327,15.893z"/>
		</g>
	</g>
	<g>
		<g>
			<path fill="#C1875D" d="M13.671,24.523c-4.201,0.119-7.65-0.464-9.713-1.733c-1.299-1.917-1.961-5.215-1.861-9.304
				c4.197-0.119,7.646,0.461,9.709,1.731C13.107,17.137,13.767,20.433,13.671,24.523z"/>
		</g>
		<g>
			<path fill="#3E4347" d="M11.142,22.114c-2.365,0.066-4.307-0.261-5.471-0.977c-0.732-1.08-1.105-2.938-1.051-5.243
				c2.367-0.069,4.311,0.26,5.473,0.976C10.826,17.952,11.201,19.81,11.142,22.114z"/>
		</g>
	</g>
	<g>
		<path fill="#C1875D" d="M41.522,24.654c0,2.892-4.574,6.922-4.574,11.128c0,0-5.8,6.404-12.425,6.404
			c-6.492,0-12.266-6.193-12.266-6.193c0-4.312-4.732-8.439-4.732-11.339c0-3.848,1.521-7.94,6.145-13.257
			c1.086-1.248,1.391-2.869,10.854-2.869c9.386,0,10.07,1.311,11.052,2.373C40.103,15.795,41.522,19.564,41.522,24.654z"/>
	</g>
	<g>
		<path fill="#DB9E75" d="M37.731,40.067c0,3.847-3.096,5.605-13.205,5.605c-10.109,0-13.203-1.759-13.203-5.605
			c0-3.848,0.277-8.324,13.203-8.324C37.452,31.744,37.731,36.22,37.731,40.067z"/>
	</g>
	<g>
		<g>
			<ellipse fill="#3E4347" cx="33.275" cy="22.912" rx="3.726" ry="3.975"/>
		</g>
	</g>
	<g>
		<g>
			<ellipse fill="#3E4347" cx="15.773" cy="22.912" rx="3.727" ry="3.975"/>
		</g>
	</g>
	<path fill="#DB9E75" d="M33.37,30.98c-2.214-1.091-5.343,0.881-6.994,4.403c-1.652,3.528-1.191,7.272,1.027,8.363
		c2.213,1.095,5.346-0.876,6.992-4.401C36.044,35.819,35.585,32.074,33.37,30.98z"/>
	<path fill="#DB9E75" d="M15.685,30.98c-2.217,1.096-2.676,4.839-1.025,8.366c1.648,3.524,4.779,5.496,6.994,4.401
		c2.215-1.092,2.676-4.836,1.021-8.361C21.033,31.861,17.898,29.888,15.685,30.98z"/>
	<g>
		<path fill="#F6C799" d="M15.599,10.73C6.013,13.038,2.013,2,2.013,2C1.486,17.974,16.83,16.571,17.546,15.373
			C18.505,13.769,17.822,10.194,15.599,10.73z"/>
		<path fill="#F6C799" d="M33.448,10.73C43.034,13.038,47.032,2,47.032,2c0.527,15.975-14.814,14.571-15.531,13.373
			C30.542,13.769,31.226,10.194,33.448,10.73z"/>
	</g>
	<path fill="#3E4347" d="M32.574,33.054c-1.623-0.799-3.916,0.646-5.125,3.227c-1.211,2.585-0.873,5.328,0.752,6.128
		c1.623,0.802,3.918-0.643,5.123-3.226C34.532,36.6,34.196,33.855,32.574,33.054z"/>
	<path fill="#3E4347" d="M16.484,33.054c-1.625,0.803-1.961,3.546-0.752,6.129c1.207,2.583,3.502,4.027,5.125,3.226
		c1.621-0.8,1.959-3.543,0.75-6.126C20.402,33.699,18.105,32.254,16.484,33.054z"/>
</g>
</svg>
