<?xml version="1.0" encoding="utf-8"?>
<!-- Generator: Adobe Illustrator 15.0.0, SVG Export Plug-In . SVG Version: 6.00 Build 0)  -->
<!DOCTYPE svg PUBLIC "-//W3C//DTD SVG 1.1//EN" "http://www.w3.org/Graphics/SVG/1.1/DTD/svg11.dtd">
<svg version="1.1" id="Layer_1" xmlns="http://www.w3.org/2000/svg" xmlns:xlink="http://www.w3.org/1999/xlink" x="0px" y="0px"
	 width="64px" height="64px" viewBox="0 0 64 64" enable-background="new 0 0 64 64" xml:space="preserve">
<g>
	<path fill="#0DCCD1" d="M35.33,45.732c0.56,3.739-0.474,8.726-2.604,9.195c-2.129,0.467-4.549-3.767-5.11-7.504
		c-0.562-3.737,0.946-5.566,3.075-6.036C32.821,40.921,34.766,41.995,35.33,45.732z"/>
	<path fill="#0DCCD1" d="M54.055,11.327c-3.759,0-6.81-4.319-7.271-2.252c-0.514,2.307,3.52,6.746,6.045,6.746
		c0,0-8.615,6.19-46.699,6.19c-3.503,0-3.938,4.361-3.938,4.361c11.001,10.457,27.713,30.736,44.454,18.066
		c7.926-5.997,9.698-24.865,9.8-27.706C61.075,15.091,62,12.482,62,9.104C62,5.674,59.701,11.327,54.055,11.327z"/>
	<path fill="#DAE5EF" d="M2.19,26.372c0,0-0.429,3.326,0,5.984c1.264,7.873,7.487,18.427,24.88,18.427
		c10.796,0,12.992-1.449,17.797-4.872c0.679-0.484,1.264-0.977,1.776-1.473c-15.155,4.036-26.608-7.421-26.608-16.577
		C20.036,26.291,8.163,25.766,2.19,26.372z"/>
	<path fill="#FFFFFF" d="M45.13,45.495c-3.209,1.443-6.794,2.134-10.358,1.919c-3.563-0.205-7.083-1.289-10.174-3.113
		c-3.09-1.82-5.766-4.385-7.626-7.485c-1.868-3.091-2.866-6.739-2.736-10.393l1.873,0.097c-0.266,3.293,0.48,6.663,2.089,9.618
		c1.6,2.962,4.017,5.511,6.899,7.383c2.882,1.876,6.239,3.083,9.712,3.435C38.283,47.316,41.857,46.798,45.13,45.495z"/>
	<path fill="#FFFFFF" d="M39.031,49.346c-3.557,0.32-7.179,0.235-10.712-0.478c-3.527-0.699-6.963-2.049-9.952-4.114
		c-2.99-2.055-5.499-4.837-7.181-8.075c-1.683-3.233-2.555-6.913-2.377-10.604l1.872,0.127c-0.313,3.337,0.33,6.778,1.77,9.872
		c1.44,3.098,3.689,5.842,6.472,7.937c2.778,2.105,6.06,3.571,9.5,4.41C31.867,49.271,35.464,49.514,39.031,49.346z"/>
	<path fill="#FFFFFF" d="M28.7,50.77c-3.183-0.358-6.354-1.013-9.379-2.136c-3.021-1.114-5.897-2.733-8.304-4.93
		c-2.415-2.182-4.313-4.941-5.52-7.972c-1.223-3.018-1.779-6.318-1.792-9.535H5.58c-0.139,3.091,0.229,6.147,1.237,9.056
		c0.994,2.899,2.647,5.588,4.854,7.787c2.196,2.211,4.908,3.926,7.828,5.165C22.419,49.455,25.538,50.259,28.7,50.77z"/>
	<g>
		<g>
			<g>
				<g>
					<g>
						<g>
							<ellipse fill="#FFFFFF" cx="29.28" cy="26.955" rx="2.209" ry="2.348"/>
						</g>
						<g>
							<path fill="#3E4347" d="M30.825,26.955c0,0.905-0.692,1.645-1.546,1.645c-0.854,0-1.546-0.739-1.546-1.645
								c0-0.91,0.691-1.644,1.546-1.644C30.133,25.312,30.825,26.045,30.825,26.955z"/>
						</g>
					</g>
				</g>
			</g>
		</g>
		<path fill="#0DCCD1" d="M26.611,28.6c0.145-0.011,4.105,2.773,5.403-0.554C32.722,26.236,26.611,28.6,26.611,28.6z"/>
	</g>
	<g>
		<path fill="#3E4347" d="M29.341,28.547c0.272,0.057,0.541,0.079,0.814,0.115c0.271,0.035,0.562,0.093,0.821,0.253
			c0.506,0.368,0.642,0.971,0.67,1.501c-0.101-0.254-0.2-0.506-0.321-0.738c-0.122-0.23-0.268-0.445-0.479-0.573
			c-0.2-0.146-0.461-0.2-0.725-0.27C29.855,28.769,29.583,28.684,29.341,28.547z"/>
		<path fill="#3E4347" d="M2.19,26.372c2.405-0.434,4.849-0.669,7.304-0.719c2.456-0.059,4.929,0.127,7.358,0.606
			c2.426,0.484,4.79,1.358,6.94,2.52c1.081,0.549,2.126,1.189,3.267,1.37c1.149,0.223,2.324-0.281,3.367-0.884
			c-0.918,0.765-2.092,1.414-3.416,1.333c-1.305-0.115-2.423-0.718-3.534-1.182c-2.204-0.998-4.452-1.801-6.813-2.253
			c-2.349-0.488-4.759-0.695-7.176-0.804C7.066,26.262,4.635,26.316,2.19,26.372z"/>
	</g>
	<g>
		<path fill="#0DCCD1" d="M46.998,44.195c0.718,4.782-0.604,11.16-3.327,11.759c-2.726,0.599-5.819-4.813-6.536-9.596
			c-0.719-4.778,1.21-7.118,3.933-7.717C43.792,38.045,46.279,39.418,46.998,44.195z"/>
	</g>
</g>
</svg>
