<?xml version="1.0" encoding="utf-8"?>
<!-- Generator: Adobe Illustrator 15.0.0, SVG Export Plug-In . SVG Version: 6.00 Build 0)  -->
<!DOCTYPE svg PUBLIC "-//W3C//DTD SVG 1.1//EN" "http://www.w3.org/Graphics/SVG/1.1/DTD/svg11.dtd">
<svg version="1.1" id="Layer_1" xmlns="http://www.w3.org/2000/svg" xmlns:xlink="http://www.w3.org/1999/xlink" x="0px" y="0px"
	 width="64px" height="64px" viewBox="0 0 64 64" enable-background="new 0 0 64 64" xml:space="preserve">
<path fill="#94D82A" d="M29.574,42.778c0,0-4.74-20.839-13.056-20.839c-15.111,0-15.535,27.785-5.342,36.959
	c3.145,2.83,16.128,2.773,43.523,0c2.878-0.292,1.788-3.117-2.324-4.988C49.745,52.715,36.638,50.35,29.574,42.778z"/>
<g>
	<ellipse fill="#769E2A" cx="27.789" cy="39.834" rx="3.935" ry="6.68"/>
	<ellipse fill="#769E2A" cx="31.452" cy="53.376" rx="2.415" ry="2.672"/>
	<ellipse fill="#769E2A" cx="22.492" cy="48.49" rx="1.788" ry="3.072"/>
	<ellipse fill="#769E2A" cx="20.186" cy="36.366" rx="1.432" ry="2.058"/>
</g>
<path fill="#3E4347" d="M9.627,26.125c-0.016,1.248,0.388,2.252,1.063,2.866c0.33,0.313,0.715,0.534,1.12,0.67
	c0.204,0.064,0.41,0.114,0.622,0.134c0.032,0.003,0.294,0.03,0.357,0.027c0.099,0.004,0.232,0.005,0.345-0.001
	c0.946-0.03,1.826-0.299,2.531-0.913c0.729-0.605,1.218-1.615,1.635-2.783c0.415,1.154,0.377,2.585-0.429,3.793
	c-0.798,1.215-2.296,1.888-3.683,1.901c-0.18,0.004-0.34,0-0.534-0.015c-0.229-0.019-0.26-0.019-0.518-0.061
	c-0.367-0.069-0.73-0.176-1.066-0.342c-0.673-0.325-1.251-0.837-1.627-1.463C8.657,28.687,8.808,27.064,9.627,26.125z"/>
<path fill="#E08828" d="M58.931,42.254c3.355-4.316,3.871-11.234,1.979-15.412c-2.8-6.181-8.259-7.114-8.259-7.114
	C45.252,7.825,24.805,7.87,18.648,22.406c5.283,3.103,8.257,11.835,10.045,16.528c1.595,6.294,4.701,12.037,9.819,13.489
	c2.179,0.618,2.631-1.72,2.631-1.72c1.42,1.95,4.255,3.42,6.932,2.672C57.641,50.704,58.931,42.254,58.931,42.254z"/>
<polygon fill="#94D82A" points="14.494,24.171 11.911,25.106 9.388,18.204 11.972,17.268 "/>
<polygon fill="#94D82A" points="20.314,26.842 17.823,25.686 20.94,19.026 23.433,20.185 "/>
<g>
	<path fill="#94D82A" d="M19,12.742c0,4.674-3.803,8.467-8.501,8.467C5.803,21.209,2,17.416,2,12.742
		c0-4.675,3.803-8.465,8.499-8.465C15.197,4.277,19,8.067,19,12.742z"/>
	<g>
		<path fill="#FCFCFA" d="M15.395,13.032c0,3.669-2.887,6.639-6.443,6.639c-3.555,0-6.437-2.97-6.437-6.639
			c0-3.667,2.882-6.638,6.437-6.638C12.507,6.394,15.395,9.365,15.395,13.032z"/>
		<path fill="#3E4347" d="M14.635,13.032c0,2.523-1.982,4.566-4.429,4.566c-2.439,0-4.427-2.042-4.427-4.566
			c0-2.52,1.988-4.562,4.427-4.562C12.653,8.47,14.635,10.512,14.635,13.032z"/>
	</g>
</g>
<path fill="#93603B" d="M41.144,50.704c-1.938-2.869-3.303-6.165-3.993-9.626c-0.702-3.46-0.7-7.095,0.104-10.592
	c0.841-3.46,2.493-6.883,5.315-9.264c1.388-1.187,3.099-2.039,4.899-2.327c1.803-0.278,3.641,0.039,5.181,0.832
	c-1.69-0.374-3.409-0.375-4.964,0.125c-1.558,0.475-2.93,1.39-4.066,2.524c-1.127,1.148-2.067,2.49-2.778,3.956
	c-0.731,1.453-1.28,3.01-1.642,4.613c-0.774,3.2-0.871,6.565-0.514,9.891C39.062,44.17,39.946,47.46,41.144,50.704z"/>
<path fill="#93603B" d="M58.931,42.254c-0.735,0.871-1.617,1.631-2.617,2.237c-0.996,0.602-2.144,1.039-3.383,1.116
	c-1.236,0.072-2.519-0.295-3.569-0.974c-1.062-0.692-1.882-1.579-2.583-2.609c-1.4-2.05-1.877-4.652-1.578-7.083
	c0.328-2.437,1.361-4.776,3.078-6.612c0.87-0.899,1.929-1.671,3.165-2.125c1.228-0.455,2.638-0.561,3.92-0.188
	c1.354,0.367,2.502,1.35,3.126,2.528c0.637,1.177,0.862,2.489,0.754,3.758c-0.115,1.261-0.527,2.551-1.473,3.547
	c-0.939,0.989-2.506,1.479-3.844,0.839c-1.256-0.668-1.916-2.085-1.597-3.415c0.179-0.663,0.626-1.225,1.239-1.471
	c0.302-0.13,0.672-0.174,0.978-0.05c0.304,0.122,0.522,0.348,0.663,0.598c-0.987-0.9-1.998,0.274-2.109,1.088
	c-0.131,0.913,0.516,1.913,1.304,2.221c0.382,0.157,0.824,0.12,1.256-0.018c0.42-0.139,0.781-0.398,1.075-0.743
	c0.594-0.694,0.879-1.704,0.902-2.688c0.018-0.989-0.204-1.993-0.682-2.796c-0.472-0.807-1.218-1.371-2.068-1.574
	c-1.837-0.475-3.801,0.373-5.165,1.869c-2.794,2.947-3.716,7.882-1.603,11.479c1.041,1.787,2.705,3.343,4.808,3.418
	C55.027,44.722,57.163,43.633,58.931,42.254z"/>
<g>
	<path fill="#94D82A" d="M34.28,12.742c0,5.38-4.377,9.743-9.783,9.743c-5.404,0-9.781-4.363-9.781-9.743
		C14.716,7.361,19.093,3,24.497,3C29.903,3,34.28,7.361,34.28,12.742z"/>
	<g>
		<ellipse fill="#FCFCFA" cx="22.719" cy="13.076" rx="7.412" ry="7.641"/>
		<path fill="#3E4347" d="M29.257,13.076c0,2.902-2.281,5.254-5.097,5.254c-2.808,0-5.095-2.352-5.095-5.254
			c0-2.901,2.287-5.251,5.095-5.251C26.976,7.825,29.257,10.175,29.257,13.076z"/>
	</g>
</g>
</svg>
