<?xml version="1.0" encoding="utf-8"?>
<!-- Generator: Adobe Illustrator 15.0.0, SVG Export Plug-In . SVG Version: 6.00 Build 0)  -->
<!DOCTYPE svg PUBLIC "-//W3C//DTD SVG 1.1//EN" "http://www.w3.org/Graphics/SVG/1.1/DTD/svg11.dtd">
<svg version="1.1" id="Layer_1" xmlns="http://www.w3.org/2000/svg" xmlns:xlink="http://www.w3.org/1999/xlink" x="0px" y="0px"
	 width="64px" height="64px" viewBox="0 0 64 64" enable-background="new 0 0 64 64" xml:space="preserve">
<g>
	<path fill="#F29A2E" d="M18.932,46.044c-0.73,0.238-1.46,0.574-2.161,0.975s-1.369,0.867-1.968,1.387
		c-0.597,0.518-1.127,1.092-1.53,1.693c-0.404,0.605-0.67,1.232-0.754,1.846c-0.084,0.612,0.011,1.224,0.305,1.843
		c0.292,0.618,0.781,1.225,1.378,1.772c0.299,0.275,0.618,0.534,0.967,0.787c0.341,0.25,0.703,0.488,1.067,0.708
		c0.735,0.439,1.512,0.811,2.329,1.112c1.633,0.61,3.422,0.948,5.243,1.211c1.825,0.261,3.687,0.454,5.544,0.688
		c1.857,0.232,3.716,0.494,5.559,0.814c1.845,0.318,3.677,0.693,5.495,1.118c-1.851-0.249-3.704-0.443-5.563-0.583
		c-1.857-0.141-3.713-0.223-5.576-0.273c-1.861-0.054-3.725-0.068-5.613-0.153c-1.886-0.089-3.819-0.253-5.747-0.764
		c-0.962-0.253-1.912-0.597-2.823-1.03c-0.456-0.217-0.899-0.449-1.338-0.709c-0.431-0.251-0.866-0.537-1.284-0.852
		c-0.834-0.633-1.64-1.404-2.254-2.406c-0.307-0.5-0.559-1.058-0.723-1.65c-0.166-0.594-0.241-1.22-0.225-1.837
		c0.017-0.615,0.122-1.22,0.288-1.786c0.168-0.568,0.396-1.102,0.659-1.604c0.531-0.998,1.198-1.865,1.931-2.641
		c0.733-0.775,1.537-1.461,2.395-2.074c0.859-0.611,1.783-1.154,2.786-1.6L18.932,46.044z"/>
	<g>
		<ellipse fill="#999A9C" cx="44.563" cy="12.37" rx="10.437" ry="10.371"/>
		<ellipse fill="#FFC5D3" cx="44.488" cy="13.607" rx="7.733" ry="7.687"/>
		<ellipse fill="#999A9C" cx="19.436" cy="12.37" rx="10.436" ry="10.371"/>
		<ellipse fill="#FFC5D3" cx="19.51" cy="13.607" rx="7.733" ry="7.687"/>
		<path fill="#999A9C" d="M50.291,45.933c0-10.155-3.98-19.497-5.304-22.32c-0.112-0.265-0.228-0.527-0.345-0.791
			C42.938,19.003,38.898,10.624,32,10.624c-6.897,0-10.94,8.379-12.644,12.197c-0.117,0.263-0.231,0.524-0.344,0.788
			c-1.321,2.819-5.305,12.165-5.305,22.323c0,8.441,2.697,10.639,6.902,10.98c0.237,0.924,1.107,1.612,2.15,1.612h1.537
			c1.121,0,2.041-0.796,2.189-1.825c1.74-0.147,3.591-0.301,5.512-0.301c1.849,0,3.632,0.143,5.315,0.285
			c0.141,1.037,1.063,1.841,2.191,1.841h1.537c1.037,0,1.902-0.681,2.146-1.597C47.508,56.639,50.291,54.507,50.291,45.933z"/>
		<g>
			<ellipse fill="#FFC5D3" cx="41.707" cy="33.771" rx="3.218" ry="2.228"/>
			<ellipse fill="#FFC5D3" cx="22.292" cy="33.771" rx="3.216" ry="2.228"/>
		</g>
		<g>
			<path fill="#3E4347" d="M34.886,33.765c-0.579-0.609-2.355-0.656-2.885-0.656c-0.531,0-2.307,0.047-2.885,0.656
				c-0.411,0.434-0.093,1.512,1.002,2.441c0.692,0.586,1.353,0.771,1.883,0.771s1.191-0.186,1.882-0.771
				C34.979,35.276,35.297,34.198,34.886,33.765z"/>
			<g>
				<ellipse fill="#FFFFFF" cx="25.155" cy="26.72" rx="4.61" ry="4.496"/>
				<ellipse fill="#3E4347" cx="25.155" cy="26.72" rx="3.191" ry="3.113"/>
			</g>
			<g>
				<ellipse fill="#FFFFFF" cx="38.845" cy="26.72" rx="4.612" ry="4.496"/>
				<ellipse fill="#3E4347" cx="38.845" cy="26.72" rx="3.192" ry="3.113"/>
			</g>
			<path fill="#3E4347" d="M31.002,39.288c0.059-0.312,0.274-0.549,0.48-0.731c0.211-0.19,0.454-0.329,0.708-0.446
				c0.259-0.104,0.531-0.187,0.825-0.2c0.275-0.017,0.644,0.015,0.85,0.271c-0.288,0.034-0.478,0.201-0.707,0.297
				c-0.218,0.117-0.445,0.218-0.672,0.321c-0.232,0.093-0.465,0.189-0.711,0.263C31.534,39.152,31.271,39.18,31.002,39.288z"/>
		</g>
	</g>
</g>
</svg>
