<?xml version="1.0" encoding="utf-8"?>
<!-- Generator: Adobe Illustrator 15.0.0, SVG Export Plug-In . SVG Version: 6.00 Build 0)  -->
<!DOCTYPE svg PUBLIC "-//W3C//DTD SVG 1.1//EN" "http://www.w3.org/Graphics/SVG/1.1/DTD/svg11.dtd">
<svg version="1.1" id="Layer_1" xmlns="http://www.w3.org/2000/svg" xmlns:xlink="http://www.w3.org/1999/xlink" x="0px" y="0px"
	 width="64px" height="64px" viewBox="0 0 64 64" enable-background="new 0 0 64 64" xml:space="preserve">
<g>
	<g>
		<g>
			<path fill="#8D9BA3" d="M49.881,36.847c-0.563-0.896-1.5-1.482-2.564-1.482c-1.723,0-3.117,1.537-3.117,3.439v12.338
				c0,1.898,1.395,3.436,3.117,3.436c1.725,0,3.119-1.537,3.119-3.436v-4.477v-7.861C50.436,38.077,50.23,37.401,49.881,36.847z"/>
			<g>
				<path fill="#3E4347" d="M47.316,54.577c1.725,0,3.119-1.537,3.119-3.436h-6.236C44.199,53.04,45.594,54.577,47.316,54.577z"/>
			</g>
		</g>
		<g>
			<g>
				<path fill="#8D9BA3" d="M41.68,38.446c-0.752-1.301-2-2.152-3.42-2.152c-2.297,0-4.156,2.232-4.156,4.994v15.719
					c0,2.758,1.859,4.992,4.156,4.992c2.299,0,4.158-2.234,4.158-4.992v-6.498v-9.221C42.418,40.233,42.145,39.253,41.68,38.446z"/>
				<g>
					<path fill="#3E4347" d="M38.26,61.999c2.299,0,4.158-2.234,4.158-4.992h-8.314C34.104,59.765,35.963,61.999,38.26,61.999z"/>
				</g>
			</g>
			<g>
				<path fill="#8D9BA3" d="M28.896,38.446c-0.75-1.301-2-2.152-3.42-2.152c-2.295,0-4.156,2.232-4.156,4.994v15.719
					c0,2.758,1.861,4.992,4.156,4.992c2.299,0,4.158-2.234,4.158-4.992v-6.498v-9.221C29.635,40.233,29.363,39.253,28.896,38.446z"
					/>
				<g>
					<path fill="#3E4347" d="M25.477,61.999c2.299,0,4.158-2.234,4.158-4.992H21.32C21.32,59.765,23.182,61.999,25.477,61.999z"/>
				</g>
			</g>
		</g>
		<g>
			<path fill="#8D9BA3" d="M58.111,33.62c-0.658-1.186-1.752-1.961-2.994-1.961c-2.008,0-3.635,2.036-3.635,4.549v16.307
				c0,2.51,1.627,4.545,3.635,4.545c2.012,0,3.641-2.035,3.641-4.545v-5.916V36.208C58.758,35.247,58.518,34.354,58.111,33.62z"/>
			<g>
				<path fill="#3E4347" d="M55.117,57.06c2.012,0,3.641-2.035,3.641-4.545h-7.275C51.482,55.024,53.109,57.06,55.117,57.06z"/>
			</g>
		</g>
		<ellipse fill="#DAE5EF" cx="38.263" cy="34.636" rx="14.257" ry="13.92"/>
		<ellipse fill="#DAE5EF" cx="22.15" cy="33.487" rx="14.256" ry="13.92"/>
		<ellipse fill="#DAE5EF" cx="25.479" cy="21.444" rx="14.256" ry="13.92"/>
		<ellipse fill="#DAE5EF" cx="37.871" cy="21.444" rx="14.256" ry="13.92"/>
		<ellipse fill="#DAE5EF" cx="52.583" cy="29.233" rx="9.091" ry="8.875"/>
		<ellipse fill="#DAE5EF" cx="52.83" cy="39.304" rx="9.09" ry="8.875"/>
		<ellipse fill="#DAE5EF" cx="49.408" cy="40.681" rx="9.09" ry="8.875"/>
		<g>
			<ellipse fill="#DAE5EF" cx="22.629" cy="43.415" rx="9.09" ry="8.875"/>
			<ellipse fill="#DAE5EF" cx="41.108" cy="43.415" rx="9.09" ry="8.875"/>
		</g>
		<ellipse fill="#DAE5EF" cx="31.87" cy="47.179" rx="9.091" ry="8.875"/>
		<g>
			<g>
				<g>
					<path fill="#8D9BA3" d="M51.383,33.755c0.119-3.709-0.463-6.756-1.729-8.58c-1.912-1.145-5.207-1.732-9.287-1.645
						c-0.119,3.71,0.463,6.757,1.73,8.582C44.01,33.257,47.303,33.843,51.383,33.755z"/>
				</g>
				<g>
					<path fill="#3E4347" d="M48.953,31.499c0.068-2.072-0.258-3.773-0.965-4.795c-1.068-0.64-2.912-0.967-5.191-0.919
						c-0.066,2.076,0.258,3.777,0.967,4.796C44.834,31.223,46.672,31.549,48.953,31.499z"/>
				</g>
			</g>
			<g>
				<g>
					<path fill="#8D9BA3" d="M23.467,23.535c-4.033-0.109-7.348,0.426-9.33,1.591c-1.248,1.759-1.883,4.787-1.787,8.539
						c4.033,0.109,7.344-0.424,9.326-1.59C22.924,30.313,23.561,27.288,23.467,23.535z"/>
				</g>
				<g>
					<path fill="#3E4347" d="M21.037,25.746c-2.271-0.061-4.137,0.239-5.256,0.895c-0.703,0.992-1.059,2.697-1.008,4.813
						c2.275,0.064,4.139-0.238,5.256-0.895C20.732,29.565,21.096,27.86,21.037,25.746z"/>
				</g>
			</g>
		</g>
		<g>
			<path fill="#8D9BA3" d="M46.373,26c0,10.692-6.494,19.358-14.504,19.358S17.367,36.692,17.367,26
				c0-6.195,1.16-14.432,14.502-14.432C45.213,11.568,46.373,19.805,46.373,26z"/>
			<g>
				<g>
					<ellipse fill="#FFFFFF" cx="24.008" cy="28.233" rx="4.908" ry="4.713"/>
					<ellipse fill="#3E4347" cx="24.008" cy="28.233" rx="3.396" ry="3.263"/>
				</g>
				<g>
					<ellipse fill="#FFFFFF" cx="39.73" cy="28.233" rx="4.91" ry="4.713"/>
					<ellipse fill="#3E4347" cx="39.73" cy="28.233" rx="3.398" ry="3.263"/>
				</g>
			</g>
			<g>
				<path fill="#3E4347" d="M24.563,37.304c3.512,0.605,3.719,0.605,5.371,4.035"/>
				<path fill="#3E4347" d="M39.176,37.304c-3.514,0.605-3.719,0.605-5.373,4.035"/>
			</g>
		</g>
	</g>
	<g>
		<path fill="#89664C" d="M58.113,4.992c-1.24-1.278-2.674-2.173-4.234-2.643c-1.549-0.465-3.174-0.443-4.662-0.086
			c-3.055,0.703-5.865,2.885-7.789,5.993c-0.984,1.569-1.725,3.358-2.205,5.256c-0.242,0.948-0.445,1.923-0.525,2.92
			c-0.16,2.016,3.809,2.578,4.434-1.378c0.213-1.345,0.779-2.595,1.42-3.69c1.285-2.255,3.24-3.884,5.373-4.478
			c1.098-0.311,2.17-0.361,3.205-0.103C54.146,7.04,55.164,7.613,56,8.423c1.725,1.611,2.82,4.322,2.857,7.064
			c0.064,2.614-1.189,5.258-3.088,6.42c-0.941,0.585-2.045,0.854-3.018,0.652c-0.973-0.189-1.918-0.87-2.563-1.852
			c-0.658-0.988-1.031-2.3-1.002-3.579c0.012-1.194,0.521-2.421,1.293-3.147c0.777-0.744,1.875-1.029,2.689-0.63
			c0.85,0.365,1.506,1.473,1.576,2.608c0,0.019,0.004,0.038,0.004,0.057v0.008c0.021,0.727,0.496,1.294,1.064,1.268
			c0.568-0.025,1.012-0.635,0.992-1.361l-0.002-0.062c0-0.01-0.002-0.018-0.002-0.026h0.002c-0.002-0.012-0.004-0.021-0.004-0.033
			c-0.082-2.219-1.213-4.236-2.82-5.063c-0.82-0.434-1.711-0.523-2.537-0.362c-0.414,0.081-0.816,0.223-1.203,0.417
			c-0.191,0.098-0.375,0.205-0.586,0.35l-0.232,0.167c-0.119,0.091-0.186,0.151-0.281,0.23c-1.387,1.216-2.307,3.229-2.414,5.419
			c-0.107,2.1,0.434,4.192,1.438,5.826c1.012,1.648,2.477,2.804,4.105,3.209c1.637,0.396,3.254,0.049,4.707-0.765
			c1.459-0.833,2.719-2.204,3.604-3.913c0.887-1.709,1.395-3.744,1.418-5.824C62.057,11.475,60.58,7.508,58.113,4.992z"/>
		<path fill="#89664C" d="M5.889,4.992c1.238-1.278,2.672-2.173,4.232-2.643c1.549-0.465,3.174-0.443,4.662-0.086
			c3.055,0.703,5.865,2.885,7.789,5.993c0.984,1.569,1.725,3.358,2.205,5.256c0.242,0.948,0.445,1.923,0.525,2.92
			c0.16,2.016-3.809,2.578-4.434-1.378c-0.213-1.345-0.779-2.595-1.42-3.69c-1.285-2.255-3.24-3.884-5.373-4.478
			c-1.098-0.311-2.17-0.361-3.205-0.103C9.854,7.04,8.836,7.613,8,8.423c-1.725,1.611-2.82,4.322-2.857,7.064
			c-0.064,2.614,1.189,5.258,3.088,6.42c0.941,0.585,2.045,0.854,3.018,0.652c0.973-0.189,1.918-0.87,2.563-1.852
			c0.658-0.988,1.031-2.3,1.002-3.579c-0.012-1.194-0.52-2.421-1.293-3.147c-0.777-0.744-1.875-1.029-2.689-0.63
			c-0.85,0.365-1.506,1.473-1.576,2.608c0,0.019-0.004,0.038-0.004,0.057v0.008c-0.021,0.727-0.496,1.294-1.064,1.268
			c-0.568-0.025-1.012-0.635-0.992-1.361l0.002-0.062c0-0.01,0.002-0.018,0.002-0.026H7.195c0.002-0.012,0.004-0.021,0.004-0.033
			c0.082-2.219,1.213-4.236,2.82-5.063c0.82-0.434,1.711-0.523,2.537-0.362c0.414,0.081,0.816,0.223,1.203,0.417
			c0.191,0.098,0.375,0.205,0.586,0.35l0.232,0.167c0.119,0.091,0.186,0.151,0.281,0.23c1.389,1.216,2.309,3.229,2.414,5.419
			c0.107,2.1-0.432,4.192-1.438,5.826c-1.012,1.648-2.477,2.804-4.105,3.209c-1.637,0.396-3.254,0.049-4.707-0.765
			c-1.459-0.833-2.719-2.204-3.604-3.913C2.533,19.615,2.025,17.58,2.002,15.5C1.943,11.475,3.42,7.508,5.889,4.992z"/>
	</g>
</g>
</svg>
