<?xml version="1.0" encoding="utf-8"?>
<!-- Generator: Adobe Illustrator 15.0.0, SVG Export Plug-In . SVG Version: 6.00 Build 0)  -->
<!DOCTYPE svg PUBLIC "-//W3C//DTD SVG 1.1//EN" "http://www.w3.org/Graphics/SVG/1.1/DTD/svg11.dtd">
<svg version="1.1" id="Layer_1" xmlns="http://www.w3.org/2000/svg" xmlns:xlink="http://www.w3.org/1999/xlink" x="0px" y="0px"
	 width="64px" height="64px" viewBox="0 0 64 64" enable-background="new 0 0 64 64" xml:space="preserve">
<g>
	<path fill="#B5AADA" d="M19.359,37.449l-5.282-3.896c0,0-2.855,2.319-1.848,4.404c1.007,2.084,1.745-1.133,1.745-1.133
		c-0.074,0.828,1.027,2.842,1.691,0.154c0,0,0.341,2.072,1.104,0.727c0.882-1.552,2.505,0.152,2.505,0.152L19.359,37.449z"/>
	<path fill="#FF8E66" d="M36.888,43l-3.113,3.473c0,0,1.679,0.838,2.611,0.951c0.934,0.111,2.664-0.324,2.664-0.324L36.888,43z"/>
	<path fill="#FF8E66" d="M34.89,41.211l-4.708-0.285c0,0,0.353,1.816,0.833,2.607s1.892,1.865,1.892,1.865L34.89,41.211z"/>
	<path fill="#FF8E66" d="M31.704,37.104l-3.705,0.215c0,0,0.451,1.385,0.903,1.959s1.658,1.281,1.658,1.281L31.704,37.104z"/>
	<path fill="#FF8E66" d="M28.504,34.354l-2.63,0.559c0,0,0.479,0.943,0.869,1.305c0.389,0.362,1.333,0.737,1.333,0.737
		L28.504,34.354z"/>
	<path fill="#8A83B2" d="M26.573,51.057c2.007,10.412,16.771,4.818,23.394,0.494c6.793-4.43,9.902-11.855,5.155-19.553
		C51.024,25.355,60,21.995,60,21.995s-11.817,2.057-10.135,10.212c1.438,6.961,0.121,11.245-7.558,14.178
		C33.613,49.705,23.867,37.008,26.573,51.057z"/>
	<path fill="#FF8E66" d="M41.656,42.539l-1.154,4.428c0,0,1.91-0.012,2.784-0.328c0.877-0.318,2.169-1.467,2.169-1.467
		L41.656,42.539z"/>
	<path fill="#FF8E66" d="M45.018,40.393l1.121,4.357c0,0,1.71-0.787,2.347-1.426c0.636-0.643,1.254-2.203,1.254-2.203L45.018,40.393
		z"/>
	<path fill="#FF8E66" d="M47.123,38.098l2.903,2.395c0,0,0.709-1.27,0.792-1.969c0.088-0.699-0.314-1.986-0.314-1.986L47.123,38.098
		z"/>
	<path fill="#FF8E66" d="M47.69,34.178l3.041,1.579c0,0,0.403-1.187,0.363-1.797c-0.04-0.612-0.593-1.661-0.593-1.661L47.69,34.178z
		"/>
	<path fill="#FF8E66" d="M48.153,30.133l2.158,1.604c0,0,0.449-0.905,0.486-1.396c0.033-0.491-0.291-1.378-0.291-1.378
		L48.153,30.133z"/>
	<path fill="#FF8E66" d="M49.74,26.575l1.003,1.732c0,0,0.627-0.48,0.823-0.802c0.198-0.323,0.295-1.021,0.295-1.021L49.74,26.575z"
		/>
	<path fill="#FF8E66" d="M52.111,24.324l0.292,1.588c0,0,0.601-0.238,0.832-0.443c0.232-0.209,0.477-0.729,0.477-0.729
		L52.111,24.324z"/>
	<path fill="#FF8E66" d="M54.319,23.032l0.074,1.163c0,0,0.503-0.099,0.715-0.225c0.212-0.129,0.487-0.494,0.487-0.494
		L54.319,23.032z"/>
	<path fill="#FF8E66" d="M56.366,22.375l-0.117,0.83c0,0,0.37-0.003,0.54-0.065c0.167-0.065,0.415-0.289,0.415-0.289L56.366,22.375z
		"/>
	<g>
		<path fill="#FED0AC" d="M48.598,49.326c-5.685,3.457-17.71,5.514-21.626,2.697c2.573,9.365,16.756,3.955,23.211-0.26
			c6.529-4.26,9.554-11.289,5.564-18.667C57.839,39.709,54.6,45.678,48.598,49.326z"/>
	</g>
	<g>
		<path fill="#E5B28F" d="M40.412,52.412c0.17,0.877,0.015,1.812-0.376,2.631c-0.212,0.401-0.481,0.777-0.818,1.081
			c-0.336,0.306-0.729,0.537-1.145,0.696c0.74-0.487,1.371-1.107,1.74-1.89c0.201-0.38,0.333-0.794,0.433-1.216
			C40.339,53.291,40.404,52.855,40.412,52.412z"/>
		<path fill="#E5B28F" d="M46.555,50.393c0.251,0.713,0.242,1.508,0.047,2.248c-0.115,0.365-0.275,0.722-0.505,1.03
			c-0.225,0.312-0.516,0.567-0.835,0.765c0.518-0.542,0.915-1.162,1.1-1.864c0.111-0.345,0.16-0.707,0.192-1.07
			C46.58,51.137,46.589,50.766,46.555,50.393z"/>
		<path fill="#E5B28F" d="M51.426,47.256c0.454,0.643,0.509,1.509,0.33,2.271c-0.204,0.765-0.626,1.458-1.193,1.983
			c0.404-0.654,0.784-1.315,0.95-2.044c0.1-0.358,0.135-0.73,0.125-1.103C51.622,47.993,51.567,47.614,51.426,47.256z"/>
		<path fill="#E5B28F" d="M54.554,43.549c0.917,0.819,1.23,2.313,0.662,3.418c0.083-0.605,0.113-1.194-0.018-1.769
			c-0.048-0.288-0.142-0.567-0.249-0.843C54.838,44.082,54.713,43.809,54.554,43.549z"/>
		<path fill="#E5B28F" d="M56.288,38.602c0.424,0.388,0.706,0.902,0.913,1.437c0.09,0.272,0.165,0.551,0.195,0.837
			c0.04,0.285,0.02,0.575-0.022,0.855c-0.102-0.56-0.205-1.095-0.408-1.608C56.792,39.6,56.544,39.108,56.288,38.602z"/>
	</g>
	<g>
		<path fill="#8A83B2" d="M12.358,53.9c-2.305,0.664-2.645,3.01-1.063,2.322c2.756-1.197-1.443,0.293,0.401,1.875
			c0.407,0.35,8.211-0.258,8.448-1c1.996-6.254-2.633-13.66-4.206-12.955C10.188,46.715,12.358,53.9,12.358,53.9z"/>
		<path fill="#FF8E66" d="M10.372,54.789c-0.826,0.736-0.233,1.883-0.233,1.883s0.271-0.58,0.839-0.664
			c0.615-0.094,0.864-0.695,0.674-1.193C11.458,54.316,10.887,54.328,10.372,54.789z"/>
		<path fill="#FF8E66" d="M11.379,56.08c-0.953,0.85-0.266,2.168-0.266,2.168s0.307-0.666,0.961-0.764
			c0.713-0.107,0.999-0.801,0.775-1.375C12.631,55.537,11.975,55.551,11.379,56.08z"/>
	</g>
	<path fill="#FED0AC" d="M19.042,36.403C7.96,54.551,18.57,56.818,23.946,56.318c9.277-0.861,15.891-9.504,0.965-20.156
		c-6.166-4.399,12.326-8.422-3.648-6.939C8.534,30.407,22.559,30.64,19.042,36.403z"/>
	<path fill="#E5B28F" d="M28.861,47.555c-2.417,0.41-4.901,0.405-7.341,0.084c-1.218-0.178-2.434-0.428-3.595-0.867
		c-0.577-0.224-1.148-0.48-1.666-0.833c-0.498-0.355-1.001-0.819-1.138-1.433c0.246,0.568,0.746,0.946,1.268,1.225
		c0.519,0.295,1.086,0.503,1.661,0.677c1.153,0.342,2.342,0.573,3.54,0.736C23.987,47.479,26.415,47.576,28.861,47.555z"/>
	<path fill="#E5B28F" d="M14.254,49.6c0.463,0.737,1.135,1.303,1.889,1.699c0.746,0.413,1.559,0.696,2.387,0.906
		c1.661,0.41,3.372,0.647,5.088,0.721c1.705,0.091,3.428-0.06,5.09-0.461c1.661-0.398,3.272-1.069,4.677-2.092
		c-1.276,1.188-2.896,1.979-4.578,2.464c-1.689,0.489-3.458,0.645-5.213,0.587c-1.74-0.117-3.486-0.349-5.168-0.852
		c-0.837-0.261-1.661-0.592-2.407-1.065C15.284,51.029,14.619,50.395,14.254,49.6z"/>
	<path fill="#E5B28F" d="M27.926,41.469c-0.89,0.353-1.858,0.451-2.806,0.511c-0.953,0.058-1.908,0.018-2.858-0.074
		c-0.948-0.105-1.895-0.26-2.813-0.546c-0.457-0.146-0.911-0.313-1.339-0.541c-0.399-0.241-0.873-0.541-0.97-1.033
		c0.202,0.438,0.654,0.646,1.075,0.812c0.427,0.174,0.878,0.294,1.333,0.392c0.911,0.19,1.836,0.328,2.767,0.42
		c0.93,0.103,1.865,0.155,2.801,0.188C26.051,41.617,26.991,41.619,27.926,41.469z"/>
	<path fill="#E5B28F" d="M19.501,35.54c0.287,0.487,0.851,0.656,1.362,0.78c0.527,0.116,1.069,0.173,1.614,0.193
		c1.089,0.069,2.185,0.016,3.289,0.018c-1.086,0.204-2.193,0.273-3.302,0.232c-0.553-0.042-1.11-0.097-1.649-0.258
		C20.294,36.351,19.707,36.081,19.501,35.54z"/>
	<path fill="#8A83B2" d="M24.106,35.438c-2.396-2.881-0.994-1.907,0.636-3.474c4.559-0.928-1.306-0.046,0.817,1.98
		c11.739,11.201,9.448,18.445,2.956,21.223C30.187,50.67,30.504,43.135,24.106,35.438z"/>
	<g>
		<g>
			<path fill="#8A83B2" d="M5.313,12.982c2.25,2.607-3.954,3.418,0.527,4.639c4.163,1.136,10.771,1.896,10.771-1.44
				c0-2.287-3.222-8.337-6.307-10.768C8.884,4.292,8.963,8.23,7.619,8.464C3.403,9.198,3.206,10.54,5.313,12.982z"/>
			<path fill="#8A83B2" d="M39.412,12.982c-2.251,2.607,3.954,3.418-0.527,4.639c-4.163,1.136-10.77,1.896-10.77-1.44
				c0-2.287,3.221-8.337,6.306-10.768c1.42-1.121,1.34,2.817,2.686,3.052C41.322,9.198,41.52,10.54,39.412,12.982z"/>
		</g>
		<path fill="#8A83B2" d="M9.308,25.744c0,2.017,0.664,3.038,3.957,4.585c2.051,0.964,2.052,4.358,8.721,4.358
			c6.662,0,6.672-3.396,8.723-4.359c3.29-1.549,3.954-2.568,3.954-4.584c0-3.856-5.676-3.491-12.676-3.491
			C14.984,22.252,9.308,21.887,9.308,25.744z"/>
		<path fill="#FF8E66" d="M19.824,2.058c0.513,0.291-1.272,4.114,1.224,8.439c0.875,1.516-0.669,1.816-2.311,1.816
			c-1.983,0-3.476-0.892-3.494-2.13C15.186,6.47,18.639,1.389,19.824,2.058z"/>
		<path fill="#FF8E66" d="M24.901,2.058c1.186-0.669,4.637,4.412,4.581,8.126c-0.019,1.238-1.514,2.13-3.493,2.13
			c-1.641,0-3.188-0.301-2.312-1.816C26.174,6.172,24.387,2.349,24.901,2.058z"/>
		<path fill="#B5AADA" d="M5.748,21.55c0-5.442,10.74-13.415,16.614-13.415s16.615,7.973,16.615,13.415
			c0,4.193-6.087,3.437-10.565,7.177c-1.961,1.639-2.63,3.459-6.05,3.459c-3.418,0-4.088-1.82-6.049-3.459
			C11.834,24.99,5.748,25.744,5.748,21.55z"/>
	</g>
	<g>
		<path fill="#400A22" d="M24.22,26.688c-0.445,0.81-0.377,1.668,0.153,1.918c0.528,0.25,1.317-0.202,1.764-1.012
			c0.445-0.809,0.378-1.668-0.152-1.919C25.457,25.426,24.666,25.88,24.22,26.688z"/>
		<path fill="#400A22" d="M18.741,25.675c0.528-0.249,1.319,0.205,1.765,1.013c0.445,0.81,0.378,1.668-0.153,1.918
			c-0.527,0.25-1.317-0.202-1.765-1.012C18.143,26.786,18.211,25.926,18.741,25.675z"/>
	</g>
	<g>
		<path fill="#8A83B2" d="M13.831,18.838c0.587,0.532,1.121,1.929-1.191,2.583c-1.858,0.527-3.787,2.646-3.787,2.646
			s0.079-2.757,1.364-4.211C11.436,18.478,13.126,18.197,13.831,18.838z"/>
		<path fill="#8A83B2" d="M30.892,18.838c-0.586,0.532-1.12,1.929,1.193,2.583c1.859,0.527,3.788,2.646,3.788,2.646
			s-0.079-2.757-1.366-4.211C33.289,18.478,31.599,18.197,30.892,18.838z"/>
	</g>
	<g>
		<g>
			<ellipse fill="#FFFFFF" cx="14.812" cy="19.316" rx="5.126" ry="4.751"/>
			<ellipse fill="#42ADE2" cx="14.811" cy="19.316" rx="3.818" ry="3.539"/>
			<ellipse fill="#5E51A7" cx="14.811" cy="19.316" rx="0.474" ry="3.203"/>
		</g>
		<g>
			<ellipse fill="#FFFFFF" cx="29.914" cy="19.316" rx="5.126" ry="4.751"/>
			<ellipse fill="#42ADE2" cx="29.914" cy="19.316" rx="3.818" ry="3.539"/>
			<ellipse fill="#5E51A7" cx="29.914" cy="19.316" rx="0.473" ry="3.203"/>
		</g>
	</g>
	<g>
		<path fill="#8A83B2" d="M24.121,56.34c-2.999,0.863-3.443,3.916-1.385,3.021c3.587-1.559-1.879,0.381,0.523,2.439
			c0.53,0.453,10.683-0.334,10.992-1.301c2.597-8.139-3.425-17.775-5.472-16.857C21.293,46.99,24.121,56.34,24.121,56.34z"/>
		<path fill="#FF8E66" d="M21.535,57.496c-1.075,0.957-0.303,2.449-0.303,2.449s0.351-0.752,1.09-0.863
			c0.802-0.123,1.124-0.904,0.876-1.553C22.946,56.883,22.205,56.896,21.535,57.496z"/>
		<path fill="#FF8E66" d="M22.845,59.174c-1.24,1.107-0.346,2.824-0.346,2.824s0.399-0.867,1.253-0.996
			c0.926-0.139,1.297-1.041,1.007-1.789C24.474,58.471,23.62,58.488,22.845,59.174z"/>
	</g>
	<path fill="#B5AADA" d="M27.429,36.955l8.964-5.999c0,0,4.66,2.814,2.986,5.761c-1.673,2.946-2.851-1.332-2.851-1.332
		c0.113,1.113-1.713,3.976-2.776,0.404c0,0-0.58,2.854-1.817,1.12c-1.43-2.006-4.111,0.5-4.111,0.5L27.429,36.955z"/>
</g>
</svg>
