<?xml version="1.0" encoding="utf-8"?>
<!-- Generator: Adobe Illustrator 15.0.0, SVG Export Plug-In . SVG Version: 6.00 Build 0)  -->
<!DOCTYPE svg PUBLIC "-//W3C//DTD SVG 1.1//EN" "http://www.w3.org/Graphics/SVG/1.1/DTD/svg11.dtd">
<svg version="1.1" id="Layer_1" xmlns="http://www.w3.org/2000/svg" xmlns:xlink="http://www.w3.org/1999/xlink" x="0px" y="0px"
	 width="64px" height="64px" viewBox="0 0 64 64" enable-background="new 0 0 64 64" xml:space="preserve">
<g>
	<g>
		<path fill="#D87512" d="M17.786,44.631c-0.606,0.114-1.229,0.172-1.854,0.172c-2.444,0-4.644-0.864-6.04-2.375
			c-0.855-0.92-1.394-2.147-1.517-3.469c-0.126-1.244,0.067-2.639,0.581-4.164c0.324-1.016,0.83-2.011,1.364-3.064
			c0.216-0.427,0.437-0.859,0.649-1.303c0.703-1.454,1.505-3.164,2.111-5.053c0.715-2.188,0.943-4.287,0.682-6.229
			c-0.267-2.103-0.994-3.973-1.741-5.686c-0.031-0.07-0.067-0.146-0.097-0.197c-0.521-0.986-1.537-1.598-2.652-1.598
			c-0.486,0-0.972,0.121-1.402,0.349c-0.709,0.375-1.229,1.003-1.465,1.77c-0.236,0.766-0.16,1.578,0.218,2.292
			c0.632,1.192,1.314,2.597,1.592,3.978c0.238,1.137,0.179,2.411-0.184,3.897c-0.371,1.538-0.977,3.143-1.523,4.518
			c-0.159,0.406-0.331,0.816-0.507,1.234c-0.508,1.215-1.033,2.469-1.365,3.838c-0.55,2.139-0.666,4.152-0.348,5.971
			c0.361,2.162,1.41,4.14,2.955,5.566c2.027,1.879,4.808,2.913,7.826,2.913c1.141,0,2.275-0.146,3.376-0.437L17.786,44.631z"/>
		<path fill="#BC600D" d="M11.585,43.742c0,0,0.387,1.248,0.104,3.049c0,0,2.046-0.465,1.899-2.268
			C13.589,44.523,12.773,44.232,11.585,43.742z"/>
		<path fill="#BC600D" d="M9.189,41.484c0,0-0.207,1.457-1.26,2.945c0,0,2.104,0.42,2.775-1.264
			C10.705,43.166,10.008,42.506,9.189,41.484z"/>
		<path fill="#BC600D" d="M8.398,37.209c0,0-0.926,1.432-3.229,2.322c0,0,1.513,2.303,3.53,0.904
			C8.699,40.436,8.461,39.047,8.398,37.209z"/>
		<path fill="#BC600D" d="M12.964,15.833c0,0-1.685,0.798-3.783,3.449c0,0,2.099,1.552,4.662,2.229
			C13.843,21.511,14.128,18.417,12.964,15.833z"/>
		<path fill="#BC600D" d="M13.5,23.873c0,0-2.988,0.544-5.57,2.794c0,0,1.615,1.708,3.583,2.62
			C11.512,29.287,13.191,25.896,13.5,23.873z"/>
		<path fill="#BC600D" d="M10.321,31.73c0,0-1.484,0-4.484,0.812c0,0-0.011,2.873,2.941,2.823
			C8.778,35.365,9.524,33.615,10.321,31.73z"/>
	</g>
	<g>
		<path fill="#D87512" d="M53.326,39.37c0-4.484-35.622-4.484-35.622,0c0,10.159,0.05,10.251,17.811,10.251
			C53.276,49.621,53.326,49.529,53.326,39.37z"/>
		<g>
			<g>
				<g>
					<path fill="#D87512" d="M42.645,56.043c1.688,2.016,9.275,0.043,10.504-2.28c5.01-9.482-0.005-13.581-0.005-13.581
						l-10.499,1.314C42.645,41.496,40.49,53.473,42.645,56.043z"/>
					<path fill="#BC600D" d="M54.199,41.496c0,0-0.336,4.246-4.657,9.573c0,0,4.38-1.698,5.808-4.3
						C55.35,46.77,55.797,43.75,54.199,41.496z"/>
					<path fill="#BC600D" d="M55.075,48.691c0,0-1.065,1.88-3.563,3.871c0,0,1.781-0.029,2.576-0.785
						C54.088,51.777,54.859,50.366,55.075,48.691z"/>
				</g>
				<g>
					<g>
						<path fill="#F29A2E" d="M35.484,60.379c1.869,2.231,8.547,2.09,10.574,0c2.904-2.995,2.779-16.656,2.904-23.314l-12.418-1.053
							C36.545,36.012,33.1,57.531,35.484,60.379z"/>
						<path fill="#BC600D" d="M48.209,53.53c0,0-3.578-3.443-8.738-0.013c0,0,5.754,2.455,7.365,5.672
							C46.836,59.189,47.962,56.945,48.209,53.53z"/>
						<path fill="#BC600D" d="M48.775,46.063c0,0-3.852-3.09-7.938,1.43c0,0,4.452-0.469,7.632,3.635
							C48.469,51.127,48.963,48.079,48.775,46.063z"/>
					</g>
					<g>
						<g>
							<polygon fill="#3E4347" points="43.847,61.569 43.446,58.805 44.794,61.251 							"/>
						</g>
						<g>
							<polygon fill="#3E4347" points="40.412,61.996 40.912,58.702 41.412,61.996 							"/>
						</g>
						<g>
							<polygon fill="#3E4347" points="36.713,61.301 38.028,59.039 37.658,61.629 							"/>
						</g>
					</g>
				</g>
			</g>
			<g>
				<g>
					<path fill="#D87512" d="M28.388,56.043c-1.688,2.016-9.277,0.043-10.504-2.28c-5.012-9.482,0.004-13.581,0.004-13.581
						l10.5,1.314C28.388,41.496,30.542,53.473,28.388,56.043z"/>
					<path fill="#BC600D" d="M16.833,41.496c0,0,0.336,4.246,4.657,9.573c0,0-4.38-1.698-5.807-4.3
						C15.683,46.77,15.235,43.75,16.833,41.496z"/>
					<path fill="#BC600D" d="M15.957,48.691c0,0,1.066,1.88,3.563,3.871c0,0-1.782-0.029-2.576-0.785
						C16.944,51.777,16.172,50.366,15.957,48.691z"/>
				</g>
				<g>
					<g>
						<path fill="#F29A2E" d="M35.548,60.379c-1.869,2.231-8.548,2.09-10.575,0c-2.904-2.995-2.779-16.656-2.904-23.314
							l12.418-1.053C34.487,36.012,37.933,57.531,35.548,60.379z"/>
						<path fill="#BC600D" d="M22.822,53.53c0,0,3.58-3.443,8.739-0.013c0,0-5.753,2.455-7.366,5.672
							C24.195,59.189,23.07,56.945,22.822,53.53z"/>
						<path fill="#BC600D" d="M22.255,46.063c0,0,3.852-3.09,7.939,1.43c0,0-4.452-0.469-7.632,3.635
							C22.563,51.127,22.069,48.079,22.255,46.063z"/>
					</g>
					<g>
						<g>
							<polygon fill="#3E4347" points="26.238,61.251 27.585,58.805 27.187,61.569 							"/>
						</g>
						<g>
							<polygon fill="#3E4347" points="29.619,61.996 30.119,58.702 30.619,61.996 							"/>
						</g>
						<g>
							<polygon fill="#3E4347" points="33.375,61.629 33.004,59.039 34.32,61.301 							"/>
						</g>
					</g>
				</g>
			</g>
		</g>
		<g>
			<path fill="#3E4347" d="M35.516,60.458c-0.395-2.479-0.482-4.959-0.5-7.438c0.015-2.48,0.104-4.96,0.5-7.439
				c0.396,2.479,0.485,4.959,0.5,7.439C35.998,55.499,35.91,57.979,35.516,60.458z"/>
		</g>
	</g>
	<g>
		<g>
			<g>
				<path fill="#F29A2E" d="M27.777,6.994c0,3.82-2.727,6.987-6.086,6.915C11.829,13.699,15.892,2,15.892,2
					C19.253,2,27.777,3.176,27.777,6.994z"/>
			</g>
		</g>
		<g>
			<path fill="#AF5A31" d="M24.049,7.752c0,2.037-1.454,3.727-3.248,3.688c-5.261-0.111-3.093-6.353-3.093-6.353
				C19.501,5.087,24.049,5.715,24.049,7.752z"/>
		</g>
		<g>
			<g>
				<path fill="#F29A2E" d="M43.257,6.994c0,3.82,2.726,6.987,6.086,6.915C59.203,13.699,55.143,2,55.143,2
					C51.779,2,43.257,3.176,43.257,6.994z"/>
			</g>
		</g>
		<g>
			<g>
				<path fill="#AF5A31" d="M46.983,7.752c0,2.037,1.455,3.727,3.247,3.688c5.26-0.111,3.094-6.353,3.094-6.353
					C51.53,5.087,46.983,5.715,46.983,7.752z"/>
			</g>
		</g>
		<g>
			<path fill="#F29A2E" d="M55.806,33.378c0,7.155-9.517,8.13-20.288,8.13c-10.776,0-20.289-0.975-20.289-8.13
				c0-29.961,11.595-29.142,20.289-29.142C44.209,4.236,55.806,3.417,55.806,33.378z"/>
		</g>
		<g>
			<path fill="#3E4347" d="M35.541,7.589c3.238,0,6.149,1.085,8.155,2.81c-0.769-2.944-4.135-5.16-8.173-5.16
				c-4.061,0-7.442,2.239-8.186,5.205C29.345,8.691,32.275,7.589,35.541,7.589z"/>
		</g>
		<g>
			<path fill="#3E4347" d="M35.535,11.193c2.217,0,4.209,0.744,5.584,1.925c-0.527-2.016-2.834-3.534-5.598-3.534
				c-2.782,0-5.096,1.533-5.606,3.564C31.291,11.95,33.298,11.193,35.535,11.193z"/>
		</g>
		<g>
			<g>
				<g>
					<path fill="#FFE8BB" d="M29.553,43.727L11.145,36.72l4.241-9.056c0,0,2.703,3.85,13.289,6.821L29.553,43.727z"/>
				</g>
				<g>
					<path fill="#3E4347" d="M29.369,39.77c-7.461-1.271-16.324-6.673-16.479-6.75l0.992-2.168
						c0.184,0.092,8.806,5.342,15.853,6.544L29.369,39.77z"/>
				</g>
			</g>
			<g>
				<g>
					<path fill="#FFE8BB" d="M41.48,43.727l18.406-7.007l-4.24-9.056c0,0-2.704,3.85-13.289,6.821L41.48,43.727z"/>
				</g>
				<g>
					<path fill="#3E4347" d="M41.663,39.77c7.461-1.271,16.325-6.673,16.479-6.75l-0.992-2.168
						c-0.184,0.092-8.808,5.342-15.852,6.544L41.663,39.77z"/>
				</g>
			</g>
		</g>
		<g>
			<path fill="#FFE8BB" d="M43.524,45.57C38.752,42.023,41.4,33.861,41.4,33.861c-5.657,5.905-12.662,8.74-12.662,8.74
				c1.608,5.445,5.771,6.411,5.771,6.411c-0.342-1.835,0.662-3.302,0.662-3.302c1.68,2.221,5.031,2.986,5.031,2.986
				c-1.288-1.508-0.949-3.835-0.949-3.835C41.579,45.735,43.524,45.57,43.524,45.57z"/>
		</g>
		<g>
			<path fill="#FFE8BB" d="M42.292,42.969c-2.634,2.248-10.917,2.248-13.553,0c-2.856-2.434-2.495-7.143,0.1-9.883
				c2.397-2.527,10.958-2.527,13.355,0C44.789,35.826,45.15,40.535,42.292,42.969z"/>
		</g>
		<g>
			<path fill="#3E4347" d="M36.181,40.481c-0.28,0-0.543-0.184-0.644-0.478c-0.227-0.671-0.771-3.293-0.71-5.498
				c0.01-0.398,0.325-0.709,0.7-0.698c0.379,0.011,0.674,0.343,0.663,0.739c-0.056,2.008,0.461,4.467,0.634,4.975
				c0.127,0.374-0.06,0.785-0.414,0.918C36.336,40.469,36.258,40.481,36.181,40.481z"/>
		</g>
		<g>
			<path fill="#3E4347" d="M30.504,43.252c0.21-0.202,0.394-0.408,0.582-0.609c0.188-0.205,0.378-0.406,0.569-0.605
				c0.386-0.396,0.783-0.781,1.2-1.145c0.833-0.726,1.742-1.379,2.746-1.902c0.503-0.262,1.031-0.488,1.59-0.653
				s1.152-0.273,1.771-0.253c0.309,0.01,0.623,0.055,0.928,0.146c0.307,0.089,0.602,0.231,0.861,0.417
				c0.262,0.189,0.484,0.422,0.651,0.684c0.169,0.257,0.287,0.539,0.349,0.83c-0.227-0.178-0.449-0.332-0.676-0.448
				c-0.229-0.116-0.455-0.194-0.68-0.237c-0.447-0.088-0.887-0.039-1.331,0.061c-0.89,0.215-1.785,0.648-2.69,1.113
				c-0.904,0.467-1.817,0.984-2.775,1.467c-0.479,0.24-0.969,0.473-1.479,0.682c-0.256,0.103-0.517,0.202-0.783,0.285
				C31.068,43.163,30.791,43.24,30.504,43.252z"/>
		</g>
		<g>
			<g>
				<path fill="#F15A61" d="M41.337,31.743c-1.169-0.528-4.757-0.569-5.829-0.569c-1.07,0-4.661,0.041-5.83,0.569
					c-0.833,0.376-0.188,1.309,2.026,2.116c1.397,0.507,2.733,0.667,3.803,0.667c1.071,0,2.405-0.16,3.805-0.667
					C41.525,33.052,42.168,32.119,41.337,31.743z"/>
			</g>
		</g>
		<g>
			<polygon fill="#3E4347" points="29.917,23.479 31.528,28.772 26.953,25.999 			"/>
			<path fill="#3E4347" d="M22.645,31.828c-0.522,0-0.932-0.056-1.169-0.098c-2.987-0.52-4.633-1.996-6.09-4.067l0.184-2.472
				c1.519,1.445,3.953,3.76,6.279,4.166c1.157,0.201,2.854-0.016,4.152-1.234c1.536-1.439,2.262-4.049,2.098-7.547l1.636,0.132
				c0.2,4.312-0.116,7.244-2.212,9.212C25.831,31.509,23.91,31.828,22.645,31.828z"/>
		</g>
		<g>
			<polygon fill="#3E4347" points="41.117,23.479 39.507,28.772 44.08,25.999 			"/>
			<path fill="#3E4347" d="M48.388,31.828c0.521,0,0.931-0.056,1.167-0.098c2.989-0.52,4.637-1.996,6.09-4.067l-0.182-2.472
				c-1.52,1.445-3.955,3.76-6.28,4.166c-1.156,0.201-2.855-0.016-4.154-1.234c-1.533-1.439-2.259-4.049-2.096-7.547l-1.636,0.132
				c-0.201,4.312,0.115,7.244,2.214,9.212C45.201,31.509,47.122,31.828,48.388,31.828z"/>
		</g>
		<g>
			<g>
				<g>
					<path fill="#FFE8BB" d="M30.25,22.087c-0.852,5.282-3.728,5.87-6.696,5.577c-2.986-0.294-5.396-2.667-5.396-6.743
						c0-4.281,0-4.281,6.647-5.752C31.533,13.68,30.81,18.606,30.25,22.087z"/>
				</g>
				<g>
					<path fill="#3E4347" d="M29.16,22.547c-0.244,2.534-2.609,4.357-5.287,4.072c-2.674-0.285-4.645-2.568-4.402-5.101
						s0.279-2.75,5.107-2.237C29.408,19.794,29.402,20.017,29.16,22.547z"/>
				</g>
				<g>
					<path fill="#FFFFFF" d="M27.591,21.884c-0.16,1.688-1.74,2.903-3.523,2.714c-1.785-0.19-3.096-1.712-2.936-3.401
						c0.163-1.688,0.186-1.834,3.406-1.492C27.757,20.049,27.753,20.196,27.591,21.884z"/>
				</g>
				<g>
					<ellipse fill="#3E4347" cx="25.5" cy="21.083" rx="1.45" ry="1.647"/>
				</g>
			</g>
			<g>
				<path fill="#3E4347" d="M31.273,17.896c0.42,0,0.807-0.284,0.936-0.728c0.159-0.546-0.133-1.122-0.65-1.289l-5.98-1.925
					c-0.516-0.166-1.065,0.14-1.225,0.685c-0.156,0.544,0.135,1.12,0.651,1.288l5.981,1.924
					C31.081,17.881,31.177,17.896,31.273,17.896z"/>
			</g>
		</g>
		<g>
			<g>
				<g>
					<path fill="#FFE8BB" d="M40.781,22.087c0.854,5.282,3.729,5.87,6.699,5.577c2.984-0.294,5.395-2.667,5.395-6.743
						c0-4.281-0.002-4.281-6.646-5.752C39.501,13.68,40.219,18.606,40.781,22.087z"/>
				</g>
				<g>
					<path fill="#3E4347" d="M41.873,22.547c0.243,2.534,2.609,4.357,5.287,4.072c2.674-0.285,4.646-2.568,4.402-5.101
						c-0.242-2.533-0.279-2.75-5.107-2.237C41.625,19.794,41.631,20.017,41.873,22.547z"/>
				</g>
				<g>
					<path fill="#FFFFFF" d="M43.442,21.884c0.161,1.688,1.737,2.903,3.522,2.714c1.783-0.19,3.098-1.712,2.936-3.401
						c-0.161-1.688-0.188-1.834-3.404-1.492C43.275,20.049,43.279,20.196,43.442,21.884z"/>
				</g>
				<g>
					<ellipse fill="#3E4347" cx="47.722" cy="20.932" rx="1.45" ry="1.647"/>
				</g>
			</g>
			<g>
				<path fill="#3E4347" d="M39.76,17.896c-0.42,0-0.807-0.284-0.935-0.728c-0.16-0.546,0.132-1.122,0.65-1.289l5.979-1.925
					c0.518-0.166,1.064,0.14,1.225,0.685c0.156,0.544-0.135,1.12-0.652,1.288l-5.98,1.924C39.951,17.881,39.855,17.896,39.76,17.896
					z"/>
			</g>
		</g>
	</g>
</g>
</svg>
