<?xml version="1.0" encoding="utf-8"?>
<!-- Generator: Adobe Illustrator 15.0.0, SVG Export Plug-In . SVG Version: 6.00 Build 0)  -->
<!DOCTYPE svg PUBLIC "-//W3C//DTD SVG 1.1//EN" "http://www.w3.org/Graphics/SVG/1.1/DTD/svg11.dtd">
<svg version="1.1" id="Layer_1" xmlns="http://www.w3.org/2000/svg" xmlns:xlink="http://www.w3.org/1999/xlink" x="0px" y="0px"
	 width="64px" height="64px" viewBox="0 0 64 64" enable-background="new 0 0 64 64" xml:space="preserve">
<g>
	<ellipse fill="#DEDFE0" cx="50.888" cy="47.489" rx="4" ry="4.391"/>
	<g>
		<path fill="#AAACAD" d="M38.972,58.751c1.59,1.811,11.6,0.334,12.227-2.01c3.021-11.305-5.02-14.74-5.02-14.74l-7.098,3.533
			C39.081,45.534,36.944,56.442,38.972,58.751z"/>
	</g>
	<g>
		<path fill="#919191" d="M39.136,56.104c0.106-0.831,0.54-1.609,1.099-2.249c0.563-0.646,1.285-1.154,2.073-1.501
			c1.595-0.682,3.41-0.652,4.955-0.072c-1.652,0.009-3.238,0.139-4.658,0.761c-0.71,0.298-1.365,0.718-1.957,1.225
			C40.072,54.789,39.518,55.372,39.136,56.104z"/>
	</g>
	<g>
		<g>
			<path fill="#C4C5C6" d="M29.659,60.675c1.529,1.826,6.994,1.709,8.652,0c2.377-2.451,2.275-13.631,2.377-19.08l-10.162-0.861
				C30.526,40.733,27.708,58.343,29.659,60.675z"/>
		</g>
	</g>
	<g>
		<g>
			<g>
				<path fill="#C4C5C6" d="M29.71,60.675c-1.529,1.826-6.994,1.709-8.652,0c-2.377-2.451-2.273-13.631-2.377-19.08l10.162-0.861
					C28.843,40.733,31.663,58.343,29.71,60.675z"/>
			</g>
		</g>
	</g>
	<g>
		<path fill="#AAACAD" d="M29.685,60.739c-0.295-1.433-0.363-2.865-0.375-4.298c0.011-1.433,0.078-2.865,0.375-4.298
			c0.297,1.433,0.364,2.865,0.375,4.298C30.047,57.874,29.979,59.307,29.685,60.739z"/>
	</g>
	<path fill="#FFFFFF" d="M38.687,48.083c0,4.512-9.002,9.176-9.002,9.176s-9.002-4.664-9.002-9.176s4.031-8.168,9.002-8.168
		S38.687,43.571,38.687,48.083z"/>
	<g>
		<g>
			<g>
				<path fill="#B5B5B5" d="M47.382,2.013c-0.98-0.346-9.262,6.095-9.514,11.459c-0.488,10.485-1.201,13.431-1.201,13.431
					l5.611,1.449c0,0-0.277-0.951,6.859-11.971C51.849,12.195,48.976,2.572,47.382,2.013z"/>
				<path fill="#FFC5D3" d="M45.964,7.258c-0.971-0.343-4.926,2.57-5.713,6.83c-1.877,10.179-2.525,13.12-2.525,13.12l3.654,0.943
					c0,0-0.021-0.715,5.449-12.366C48.269,12.723,47.542,7.812,45.964,7.258z"/>
			</g>
			<g>
				<path fill="#B5B5B5" d="M11.987,2.013c0.981-0.346,9.262,6.095,9.514,11.459c0.49,10.485,1.203,13.431,1.203,13.431
					l-5.612,1.449c0,0,0.278-0.951-6.861-11.971C7.519,12.195,10.392,2.572,11.987,2.013z"/>
				<path fill="#FFC5D3" d="M13.404,7.258c0.972-0.343,4.927,2.57,5.712,6.83c1.879,10.179,2.525,13.12,2.525,13.12l-3.65,0.943
					c0,0,0.02-0.715-5.451-12.366C11.103,12.723,11.828,7.812,13.404,7.258z"/>
			</g>
		</g>
		<g>
			<g>
				<path fill="#C4C5C6" d="M15.025,28.278C15.025,22.3,19.563,18,29.685,18c10.123,0,14.658,4.301,14.658,10.279
					c0,5.004,7.619,12.352,0.83,17.252c-3.279,2.364-8.938,4.469-15.488,4.469s-12.21-2.104-15.488-4.469
					C7.406,40.63,15.025,33.281,15.025,28.278z"/>
				<path fill="#FFFFFF" d="M36.571,36.583c-0.195-4.799-3.512-10.58-5.563-13.28c-0.924-1.22-1.724-1.22-2.648,0
					c-2.051,2.7-5.369,8.481-5.563,13.28c-3.769-0.486-8.097-0.295-8.955,1.725c-1.694,3.99,6.268,10.725,15.842,10.725
					c9.573,0,17.534-6.734,15.841-10.725C44.668,36.29,40.339,36.097,36.571,36.583z"/>
			</g>
			<g>
				<g>
					<path fill="#4C5359" d="M37.188,42.321c-0.834,0.645-1.917,1.021-3.024,1.066c-1.1,0.057-2.254-0.238-3.203-0.832
						c-0.5-0.314-0.934-0.731-1.275-1.212c-0.343,0.48-0.777,0.897-1.275,1.214c-0.965,0.594-2.076,0.889-3.227,0.83
						c-1.059-0.041-2.182-0.42-3.004-1.066c-0.508-0.395,2.133,4.611,7.505,4.611C35.059,46.933,37.696,41.925,37.188,42.321z"/>
				</g>
			</g>
			<g>
				<g>
					<g>
						<path fill="#FFFFFF" d="M33.917,30.851c0,0,0.316-3.256,2.946-4.299c2.967-1.178,4.99,1.699,5.54,3.344
							c0.811,2.428-0.207,5.082-0.509,5.695c-0.199,0.403-2.392,2.309-7.333,0.505C34.562,36.096,33.331,33.396,33.917,30.851z"/>
						<path fill="#B2B6B8" d="M33.917,30.851c0.049-1.156,0.436-2.311,1.12-3.268c0.352-0.472,0.797-0.871,1.298-1.165
							c0.247-0.151,0.519-0.265,0.778-0.354c0.286-0.102,0.562-0.155,0.854-0.191c1.177-0.152,2.363,0.398,3.216,1.219
							c0.85,0.836,1.504,1.882,1.825,3.121c0.286,1.231,0.212,2.498-0.059,3.67c-0.144,0.588-0.327,1.154-0.575,1.711l-0.103,0.213
							l-0.041,0.072l-0.063,0.088c-0.039,0.049-0.066,0.079-0.099,0.113c-0.125,0.128-0.249,0.227-0.376,0.314
							c-0.257,0.172-0.521,0.305-0.789,0.409c-1.078,0.423-2.207,0.438-3.275,0.282c-1.068-0.186-2.1-0.514-3.066-0.989
							c1.035,0.247,2.069,0.463,3.105,0.467c1.025,0.029,2.061-0.11,2.953-0.534c0.222-0.106,0.431-0.235,0.615-0.38
							c0.09-0.073,0.178-0.149,0.241-0.222l0.036-0.045c-0.002,0-0.002,0.004-0.002,0.005c0.002-0.003,0.032-0.058,0.012-0.02
							l0.073-0.173c0.194-0.488,0.346-1.02,0.45-1.549c0.219-1.057,0.264-2.156,0.014-3.16c-0.229-0.985-0.804-1.927-1.496-2.645
							c-0.696-0.729-1.599-1.17-2.547-1.141c-0.232,0.01-0.482,0.04-0.703,0.1c-0.246,0.064-0.477,0.143-0.701,0.246
							c-0.451,0.203-0.865,0.506-1.222,0.888C34.657,28.687,34.181,29.739,33.917,30.851z"/>
					</g>
				</g>
				<ellipse fill="#4C5359" cx="37.729" cy="32.034" rx="2.614" ry="3.205"/>
			</g>
			<g>
				<g>
					<g>
						<path fill="#FFFFFF" d="M25.452,30.851c0,0-0.316-3.256-2.947-4.299c-2.966-1.178-4.99,1.699-5.539,3.344
							c-0.811,2.428,0.207,5.082,0.508,5.695c0.2,0.403,2.392,2.309,7.333,0.505C24.807,36.096,26.037,33.396,25.452,30.851z"/>
						<path fill="#B2B6B8" d="M25.452,30.851c-0.264-1.111-0.74-2.166-1.474-2.917c-0.356-0.382-0.771-0.685-1.222-0.888
							c-0.225-0.104-0.455-0.182-0.701-0.246c-0.221-0.06-0.471-0.09-0.703-0.1c-0.949-0.029-1.852,0.412-2.547,1.141
							c-0.693,0.718-1.267,1.659-1.497,2.645c-0.25,1.002-0.205,2.104,0.014,3.16c0.104,0.529,0.256,1.061,0.45,1.549l0.074,0.173
							c-0.021-0.038,0.01,0.017,0.011,0.019c0.001,0,0-0.004-0.001-0.004l0.035,0.045c0.064,0.072,0.152,0.148,0.242,0.222
							c0.185,0.145,0.394,0.273,0.615,0.38c0.893,0.424,1.928,0.563,2.953,0.534c1.035-0.004,2.07-0.22,3.104-0.467
							c-0.966,0.476-1.997,0.804-3.065,0.989c-1.068,0.156-2.197,0.141-3.275-0.282c-0.27-0.104-0.533-0.237-0.79-0.409
							c-0.127-0.088-0.251-0.187-0.375-0.314c-0.033-0.034-0.061-0.064-0.099-0.113l-0.063-0.088l-0.041-0.072l-0.103-0.213
							c-0.248-0.557-0.432-1.123-0.574-1.711c-0.271-1.172-0.346-2.439-0.059-3.67c0.321-1.239,0.976-2.285,1.825-3.121
							c0.852-0.82,2.039-1.371,3.216-1.219c0.292,0.036,0.567,0.09,0.854,0.191c0.259,0.09,0.529,0.203,0.777,0.354
							c0.502,0.294,0.946,0.693,1.297,1.165C25.017,28.54,25.402,29.694,25.452,30.851z"/>
					</g>
				</g>
				<ellipse fill="#4C5359" cx="21.643" cy="32.034" rx="2.614" ry="3.205"/>
			</g>
			<rect x="27.022" y="40.061" fill="#FFFFFF" width="5.324" height="4.423"/>
			<path fill="#B2B6B8" d="M37.704,41.876c-0.909,0.447-1.962,0.629-2.979,0.59c-1.027-0.061-2-0.322-2.779-0.822
				c-0.779-0.481-1.355-1.17-1.521-1.93l-0.736-3.364l-0.746,3.364c-0.168,0.758-0.74,1.449-1.521,1.929
				c-0.764,0.5-1.786,0.761-2.756,0.821c-1.07,0.037-2.076-0.142-3.001-0.59c-0.916-0.433-1.677-1.139-2.065-2.037
				c0.053,0.961,0.705,1.896,1.637,2.543c0.926,0.645,2.19,1.023,3.383,1.066c1.295,0.058,2.545-0.237,3.631-0.832
				c0.561-0.314,1.05-0.732,1.436-1.213c0.385,0.48,0.874,0.897,1.436,1.212c1.068,0.594,2.369,0.89,3.605,0.831
				c1.246-0.043,2.466-0.422,3.406-1.066c0.932-0.646,1.583-1.58,1.638-2.541C39.384,40.736,38.621,41.442,37.704,41.876z"/>
			<g>
				<path fill="#FF94A4" d="M33.239,35.702c-0.713-0.574-2.901-0.619-3.555-0.619c-0.654,0-2.842,0.045-3.555,0.619
					c-0.508,0.41-0.115,1.428,1.235,2.305c0.852,0.555,1.665,0.729,2.319,0.729c0.653,0,1.467-0.174,2.319-0.729
					C33.354,37.13,33.747,36.112,33.239,35.702z"/>
			</g>
		</g>
	</g>
</g>
</svg>
