<?xml version="1.0" encoding="utf-8"?>
<!-- Generator: Adobe Illustrator 15.0.0, SVG Export Plug-In . SVG Version: 6.00 Build 0)  -->
<!DOCTYPE svg PUBLIC "-//W3C//DTD SVG 1.1//EN" "http://www.w3.org/Graphics/SVG/1.1/DTD/svg11.dtd">
<svg version="1.1" id="Layer_1" xmlns="http://www.w3.org/2000/svg" xmlns:xlink="http://www.w3.org/1999/xlink" x="0px" y="0px"
	 width="64px" height="64px" viewBox="0 0 64 64" enable-background="new 0 0 64 64" xml:space="preserve">
<g>
	<g>
		<g>
			<path fill="#AF7751" d="M45.754,31.66v20.787c0,2.521,1.354,2.736,3.021,2.736c1.673,0,3.026-0.213,3.026-2.736V31.66H45.754z"/>
		</g>
		<path fill="#3E4347" d="M52.527,57.061h-7.5l0.727-4.566c0,0,0.791-0.916,3.022-0.916s3.024,0.916,3.024,0.916L52.527,57.061z"/>
	</g>
	<g>
		<g>
			<path fill="#89664C" d="M36.136,36.743v16.626c0,2.02,1.354,2.189,3.021,2.189c1.673,0,3.026-0.17,3.026-2.189V36.743H36.136z"/>
		</g>
		<path fill="#3E4347" d="M42.909,57.061h-7.5l0.727-3.652c0,0,0.792-0.732,3.023-0.732c2.232,0,3.024,0.732,3.024,0.732
			L42.909,57.061z"/>
	</g>
	<g>
		<path fill="#E5BE7A" d="M52.625,25.745c-4.74-2.187-7.551,0.146-8.28,1.755c-0.729,1.607,1.91,5.259,6.982,6.543
			c6.977,1.765,10.675,4.028,10.675,4.028S60.182,29.233,52.625,25.745z"/>
	</g>
	<g>
		<path fill="#AF7751" d="M52.294,36.514c0,16.346-16.294,3.54-20.167,7.356c-8.399,8.276-17.792-0.053-17.792-0.053V24.187h24.291
			C46.176,24.187,52.294,29.696,52.294,36.514z"/>
	</g>
	<g>
		<path fill="#AF7751" d="M17.583,36.874c-1.277-1.255-3.908-0.69-5.883,1.26l-5.358,5.319c-1.972,1.95-2.142,4.195-0.864,5.449
			c1.273,1.252,3.51,1.035,5.481-0.914l5.359-5.319C18.292,40.716,18.857,38.123,17.583,36.874z"/>
	</g>
	<g>
		<g>
			<path fill="#AF7751" d="M5.478,48.902l5.975,6.137c1.948,1.949,3.134,1.094,4.393-0.166c1.261-1.262,2.117-2.445,0.168-4.395
				l-8.301-8.301L5.478,48.902z"/>
		</g>
		<path fill="#3E4347" d="M20.123,53.492l-5.656,5.658l-2.978-4.074c0,0-0.109-1.305,1.573-2.986
			c1.684-1.684,2.987-1.574,2.987-1.574L20.123,53.492z"/>
	</g>
	<g>
		<g>
			<path fill="#AF7751" d="M22.38,34.262v22.699c0,2.756,1.443,2.988,3.223,2.988c1.783,0,3.227-0.232,3.227-2.988V34.262H22.38z"/>
		</g>
		<path fill="#3E4347" d="M29.604,62h-8l0.775-4.986c0,0,0.844-1,3.225-1c2.379,0,3.225,1,3.225,1L29.604,62z"/>
	</g>
	<g>
		<g>
			<path fill="#E5BE7A" d="M6.873,14.767C6.4,9.631,9.613,9.003,11.362,9.369c1.749,0.365,3.188,4.617,1.255,9.414
				c-2.662,6.597-7.73,7.696-7.73,7.696S7.492,21.501,6.873,14.767z"/>
			<path fill="#E5BE7A" d="M8.521,20.414c-0.473-5.135,2.74-5.764,4.489-5.397s3.189,4.618,1.255,9.415
				c-2.662,6.597-9.66,8.438-9.66,8.438S9.141,27.148,8.521,20.414z"/>
			<path fill="#E5BE7A" d="M9.687,27.609c-0.473-5.135,2.74-5.764,4.49-5.397c1.749,0.366,3.188,4.618,1.253,9.415
				c-2.66,6.597-11.48,9.174-11.48,9.174S10.305,34.344,9.687,27.609z"/>
		</g>
		<g>
			<path fill="#E5BE7A" d="M37.064,14.931c-0.998-5.063-4.566-5.928-6.315-5.562c-1.748,0.365-3.188,4.617-1.254,9.414
				c2.661,6.597,2.981,10.875,2.981,10.875S38.653,23.004,37.064,14.931z"/>
		</g>
	</g>
	<g>
		<g>
			<path fill="#C1875D" d="M40.121,2.007c0.117,3.71-0.452,6.756-1.688,8.58c-1.866,1.145-5.082,1.732-9.066,1.645
				c-0.116-3.71,0.451-6.758,1.688-8.581C32.922,2.506,36.137,1.919,40.121,2.007z"/>
		</g>
		<g>
			<path fill="#3E4347" d="M37.749,4.263c0.066,2.072-0.252,3.774-0.942,4.795c-1.044,0.641-2.843,0.968-5.069,0.92
				C31.673,7.902,31.99,6.2,32.682,5.181C33.728,4.539,35.522,4.213,37.749,4.263z"/>
		</g>
	</g>
	<g>
		<g>
			<path fill="#C1875D" d="M12.866,12.227c-3.939,0.109-7.175-0.426-9.11-1.591C2.538,8.877,1.917,5.85,2.011,2.098
				c3.938-0.109,7.171,0.423,9.106,1.589C12.336,5.449,12.956,8.474,12.866,12.227z"/>
		</g>
		<g>
			<path fill="#3E4347" d="M10.494,10.016c-2.218,0.061-4.04-0.239-5.132-0.896C4.676,8.128,4.327,6.423,4.378,4.308
				C6.599,4.244,8.419,4.546,9.51,5.203C10.196,6.196,10.55,7.901,10.494,10.016z"/>
		</g>
	</g>
	<g>
		<path fill="#C1875D" d="M33.23,21.48c0,2.653-3.027,11.858-3.027,15.72c0,0-3.773,0.371-9.15,0.371
			c-5.271,0-9.02-0.177-9.02-0.177c0-3.958-3.156-13.252-3.156-15.914c0-3.531-0.389-7.287,3.365-12.166
			c0.881-1.146,1.128-2.634,8.811-2.634c7.62,0,8.175,1.203,8.972,2.179C33.7,13.351,33.23,16.809,33.23,21.48z"/>
	</g>
	<g>
		<path fill="#FFE2B3" d="M30.434,40.215c0,3.531-2.198,5.145-9.378,5.145c-7.181,0-9.378-1.613-9.378-5.145
			c0-3.53,0.198-7.639,9.378-7.639C30.236,32.576,30.434,36.685,30.434,40.215z"/>
	</g>
	<g>
		<g>
			<ellipse fill="#3E4347" cx="31.137" cy="19.882" rx="2.5" ry="3"/>
		</g>
	</g>
	<g>
		<g>
			<ellipse fill="#3E4347" cx="10.97" cy="19.882" rx="2.5" ry="3"/>
		</g>
	</g>
	<path fill="#FFE2B3" d="M27.337,31.875c-1.571-1.002-3.795,0.809-4.968,4.041c-1.174,3.238-0.847,6.675,0.729,7.676
		c1.573,1.004,3.799-0.805,4.968-4.04C29.235,36.317,28.91,32.879,27.337,31.875z"/>
	<path fill="#FFE2B3" d="M14.775,31.875c-1.573,1.006-1.9,4.442-0.728,7.678c1.171,3.234,3.395,5.044,4.968,4.04
		c1.572-1.002,1.899-4.438,0.726-7.674C18.574,32.684,16.349,30.873,14.775,31.875z"/>
	<path fill="#FFFFFF" d="M17.818,14.444c0-6.089,1.449-7.318,3.238-7.318s3.237,1.229,3.237,7.318
		c0,6.091-3.237,14.736-3.237,14.736S17.818,20.535,17.818,14.444z"/>
	<g>
		<path fill="#3E4347" d="M26.771,33.778c-1.151-0.733-2.779,0.593-3.64,2.961c-0.86,2.373-0.619,4.891,0.534,5.624
			c1.153,0.736,2.783-0.589,3.641-2.96C28.162,37.032,27.924,34.515,26.771,33.778z"/>
		<path fill="#3E4347" d="M15.344,33.778c-1.153,0.737-1.394,3.254-0.534,5.625c0.857,2.371,2.486,3.696,3.64,2.96
			c1.151-0.733,1.391-3.251,0.532-5.622C18.124,34.371,16.495,33.045,15.344,33.778z"/>
	</g>
	<path fill="#E5BE7A" d="M31.137,7.46C25.79-0.016,4.656,2.412,4.656,19.715c0,0,5.048-6.386,13.538-8.244
		c0,0-3.378,3.81-7.363,6.83c0,0,8.284-2.067,13.402-6.763c0,0,0.598,3.376-6.252,5.613C17.981,17.151,37.705,16.647,31.137,7.46z"
		/>
</g>
</svg>
