<?xml version="1.0" encoding="utf-8"?>
<!-- Generator: Adobe Illustrator 15.0.0, SVG Export Plug-In . SVG Version: 6.00 Build 0)  -->
<!DOCTYPE svg PUBLIC "-//W3C//DTD SVG 1.1//EN" "http://www.w3.org/Graphics/SVG/1.1/DTD/svg11.dtd">
<svg version="1.1" id="Layer_1" xmlns="http://www.w3.org/2000/svg" xmlns:xlink="http://www.w3.org/1999/xlink" x="0px" y="0px"
	 width="64px" height="64px" viewBox="0 0 64 64" enable-background="new 0 0 64 64" xml:space="preserve">
<g>
	<path fill="#FC97B2" d="M24.912,46.044c-0.729,0.239-1.46,0.573-2.161,0.975s-1.369,0.869-1.967,1.388
		c-0.598,0.518-1.128,1.091-1.531,1.692c-0.404,0.604-0.67,1.234-0.754,1.846s0.012,1.224,0.305,1.844
		c0.292,0.617,0.781,1.223,1.378,1.771c0.3,0.275,0.618,0.535,0.968,0.787c0.34,0.251,0.702,0.488,1.066,0.709
		c0.736,0.439,1.512,0.811,2.329,1.111c1.634,0.609,3.422,0.949,5.243,1.212c1.825,0.261,3.687,0.454,5.544,0.688
		c1.858,0.231,3.716,0.494,5.559,0.814c1.845,0.318,3.677,0.692,5.495,1.117c-1.85-0.249-3.704-0.444-5.563-0.583
		c-1.855-0.141-3.713-0.222-5.574-0.271c-1.862-0.055-3.726-0.07-5.614-0.154c-1.886-0.09-3.819-0.254-5.747-0.765
		c-0.961-0.253-1.912-0.597-2.822-1.028c-0.457-0.219-0.9-0.452-1.338-0.711c-0.432-0.251-0.867-0.537-1.285-0.852
		c-0.834-0.633-1.639-1.404-2.253-2.406c-0.307-0.5-0.56-1.058-0.723-1.65c-0.167-0.594-0.241-1.22-0.226-1.838
		c0.017-0.613,0.123-1.217,0.289-1.785c0.168-0.567,0.396-1.102,0.659-1.604c0.53-0.998,1.198-1.865,1.93-2.641
		c0.733-0.775,1.537-1.461,2.395-2.074c0.859-0.612,1.783-1.154,2.786-1.599L24.912,46.044z"/>
	<path fill="#C4C5C6" d="M42.963,51.863c0,4.171-5.458,5.524-10.964,5.524c-5.504,0-10.963-1.354-10.963-5.524
		c0-13.839,8.116-18.065,10.963-18.065C34.847,33.798,42.963,38.024,42.963,51.863z"/>
	<g>
		<path fill="#C4C5C6" d="M29.606,56.413c0,1.167-0.994,2.113-2.221,2.113h-1.537c-1.226,0-2.221-0.946-2.221-2.113v-0.045
			c0-1.164,0.995-2.111,2.221-2.111h1.537c1.227,0,2.221,0.947,2.221,2.111V56.413z"/>
		<path fill="#C4C5C6" d="M40.37,56.413c0,1.167-0.994,2.113-2.221,2.113h-1.537c-1.226,0-2.221-0.946-2.221-2.113v-0.045
			c0-1.164,0.995-2.111,2.221-2.111h1.537c1.227,0,2.221,0.947,2.221,2.111V56.413z"/>
	</g>
	<g>
		<ellipse fill="#B5B5B5" cx="44.563" cy="12.37" rx="10.436" ry="10.372"/>
		<ellipse fill="#FFC5D3" cx="44.488" cy="13.607" rx="7.733" ry="7.686"/>
		<ellipse fill="#B5B5B5" cx="19.436" cy="12.37" rx="10.436" ry="10.372"/>
		<ellipse fill="#FFC5D3" cx="19.511" cy="13.607" rx="7.733" ry="7.686"/>
		<path fill="#C4C5C6" d="M44.643,22.822c-1.704-3.819-5.745-12.197-12.642-12.197c-6.898,0-10.941,8.378-12.644,12.197
			c-0.866,1.941-1.621,3.836-1.896,6.648c-0.48,4.907,5.349,9.13,8.508,9.13c1.511,0,3.112,2.927,6.032,2.927
			c2.916,0,4.519-2.927,6.029-2.927c3.158,0,8.986-4.223,8.508-9.13C46.263,26.658,45.507,24.764,44.643,22.822z"/>
		<g>
			<ellipse fill="#FFC5D3" cx="41.707" cy="33.772" rx="3.217" ry="2.227"/>
			<ellipse fill="#FFC5D3" cx="22.292" cy="33.772" rx="3.217" ry="2.227"/>
		</g>
		<g>
			<path fill="#3E4347" d="M34.886,33.766c-0.58-0.61-2.355-0.657-2.885-0.657c-0.531,0-2.307,0.047-2.885,0.657
				c-0.412,0.434-0.094,1.512,1.002,2.44c0.691,0.587,1.352,0.771,1.883,0.771c0.529,0,1.189-0.185,1.882-0.771
				C34.978,35.277,35.296,34.199,34.886,33.766z"/>
			<g>
				<ellipse fill="#FFFFFF" cx="25.154" cy="26.721" rx="4.61" ry="4.496"/>
				<ellipse fill="#3E4347" cx="25.154" cy="26.721" rx="3.192" ry="3.113"/>
			</g>
			<g>
				<ellipse fill="#FFFFFF" cx="38.844" cy="26.721" rx="4.612" ry="4.496"/>
				<ellipse fill="#3E4347" cx="38.844" cy="26.721" rx="3.192" ry="3.113"/>
			</g>
			<path fill="#3E4347" d="M31.003,39.289c0.058-0.312,0.273-0.55,0.48-0.731c0.211-0.191,0.454-0.329,0.707-0.446
				c0.259-0.104,0.531-0.188,0.825-0.2c0.275-0.017,0.645,0.014,0.85,0.271c-0.288,0.034-0.478,0.201-0.706,0.297
				c-0.219,0.117-0.445,0.218-0.672,0.321c-0.232,0.092-0.464,0.189-0.711,0.263C31.534,39.153,31.271,39.181,31.003,39.289z"/>
		</g>
	</g>
</g>
</svg>
