<?xml version="1.0" encoding="utf-8"?>
<!-- Generator: Adobe Illustrator 15.0.0, SVG Export Plug-In . SVG Version: 6.00 Build 0)  -->
<!DOCTYPE svg PUBLIC "-//W3C//DTD SVG 1.1//EN" "http://www.w3.org/Graphics/SVG/1.1/DTD/svg11.dtd">
<svg version="1.1" id="Layer_1" xmlns="http://www.w3.org/2000/svg" xmlns:xlink="http://www.w3.org/1999/xlink" x="0px" y="0px"
	 width="64px" height="64px" viewBox="0 0 64 64" enable-background="new 0 0 64 64" xml:space="preserve">
<g>
	<g>
		<path fill="#64892F" d="M28.685,60.581l3.004-4.208c0,0-1.508-1.005-2.378-1.134c-0.873-0.129-2.558,0.405-2.558,0.405
			L28.685,60.581z"/>
		<path fill="#64892F" d="M34.345,60.067l1.761-5.016c0,0-1.705-0.46-2.571-0.296c-0.867,0.167-2.336,1.236-2.336,1.236
			L34.345,60.067z"/>
		<path fill="#64892F" d="M39.505,58.948l1.268-5.2c0,0-1.738-0.25-2.584,0.018c-0.847,0.271-2.203,1.512-2.203,1.512L39.505,58.948
			z"/>
		<path fill="#64892F" d="M57.771,45.853l-2.046-4.879c0,0-1.468,1.075-1.956,1.894c-0.487,0.822-0.802,2.754-0.802,2.754
			L57.771,45.853z"/>
		<path fill="#64892F" d="M60.87,38.021l-3.341-3.877c0,0-1.08,1.549-1.306,2.501C56,37.6,56.258,39.541,56.258,39.541L60.87,38.021
			z"/>
		<path fill="#64892F" d="M62,28.622l-4.171-2.682c0,0-0.653,1.825-0.635,2.809c0.023,0.985,0.752,2.771,0.752,2.771L62,28.622z"/>
		<path fill="#64892F" d="M60.702,19.759l-4.704-1.112c0,0-0.12,1.962,0.168,2.892c0.293,0.93,1.477,2.377,1.477,2.377
			L60.702,19.759z"/>
		<path fill="#64892F" d="M57.827,12.391l-4.784-0.534c0,0,0.069,1.965,0.446,2.854c0.381,0.889,1.697,2.184,1.697,2.184
			L57.827,12.391z"/>
		<path fill="#64892F" d="M53.376,6.056l-4.521,1.833c0,0,0.818,1.738,1.501,2.359c0.686,0.619,2.372,1.149,2.372,1.149
			L53.376,6.056z"/>
		<path fill="#769E2A" d="M26.418,44.724c-2.045-9.278-13.203-2.711-12.991,4.719c0.127,4.438-13.541,7.059-0.201,7.059
			c3.078,0,5.375,0.629,5.962-5.626C19.392,48.698,28.602,54.64,26.418,44.724z"/>
		<path fill="#83B533" d="M51.032,8.659c2.142,0.577,12.41,19.841,4.576,34.582C43.032,66.903,7.384,63.482,4.789,38.463
			c-1.364-13.162,5.337-12.677,5.337-9.047c-3.102-1.052-2.459,9.841,2.318,12.738c10.881,6.601,19.918-1.953,23.042-7.641
			c3.124-5.689,0.453-12.73,0.453-15.47C35.939,16.303,51.032,8.659,51.032,8.659z"/>
		<g>
			<path fill="#FFD93B" d="M14.149,45.157c15.058,10.757,27.563-3.185,31.887-12.455c3.574-7.667,1.667-16.84,0.898-22.313
				c-4.472,2.467-11.197,6.48-11.197,8.311c0,2.74,2.671,9.782-0.453,15.47c-3.124,5.688-16.365,14.528-25.311,5.274
				C10.898,41.543,12.612,44.058,14.149,45.157z"/>
		</g>
		<g>
			<path fill="#8CC63E" d="M53.503,48.224c-1.589-7.079-3.752-12.05-6.297-10.631s0.598,10.085-2.916,15.768
				c-5.694,9.207,1.853,2.547,5.352,4.482C62.875,65.165,55.582,57.493,53.503,48.224z"/>
			<path fill="#8CC63E" d="M54.039,49.317c-2.159-4.789-4.419-7.884-6.016-6.19c-1.597,1.692,1.92,13.714,4.683,14.237
				C63.156,59.352,56.866,55.587,54.039,49.317z"/>
		</g>
		<path fill="#D3B226" d="M36.792,27.07c1.783-0.783,7.364-1.718,11.048-0.65"/>
		<path fill="#D3B226" d="M36.021,32.531c1.892-0.339,5.642,0.166,9.038,2.087"/>
		<path fill="#D3B226" d="M31.559,38.454c1.912,0.125,4.935,1.041,7.883,3.737"/>
		<path fill="#D3B226" d="M25.871,41.98c1.777,0.802,3.339,2.272,5.367,5.882"/>
		<path fill="#D3B226" d="M18.007,43.413c0,0,1.026,0.371,1.466,4.607"/>
		<path fill="#769E2A" d="M34.695,37.559c0,1.353-0.474,2.686-2.033,2.686s-2.823-1.098-2.823-2.452s2.756-3.845,4.315-3.845
			S34.695,36.205,34.695,37.559z"/>
		<path fill="#8CC63E" d="M33.88,49.057c-2.168-10.184-13.998-2.977-13.773,5.177c0.134,4.87-14.355,7.747-0.213,7.747
			c3.264,0,5.698,0.69,6.321-6.175C26.431,53.418,36.195,59.938,33.88,49.057z"/>
		<path fill="#64892F" d="M2,34.618l3.638,2.468c0,0,0.612-1.596,0.612-2.468s-0.612-2.466-0.612-2.466L2,34.618z"/>
		<path fill="#64892F" d="M2.824,41.057l4.031,1.512c0,0,0.285-1.707,0.114-2.557c-0.17-0.852-1.079-2.256-1.079-2.256L2.824,41.057
			z"/>
		<path fill="#64892F" d="M4.947,47.296l4.229,0.481c0,0-0.058-1.735-0.391-2.522c-0.333-0.789-1.495-1.936-1.495-1.936
			L4.947,47.296z"/>
		<path fill="#64892F" d="M8.117,53.642l4.773-0.654c0,0-0.451-1.898-0.993-2.674c-0.543-0.775-2.081-1.715-2.081-1.715
			L8.117,53.642z"/>
		<path fill="#64892F" d="M13.904,58.789l4.323-2.361c0,0-0.979-1.632-1.716-2.165c-0.739-0.535-2.467-0.862-2.467-0.862
			L13.904,58.789z"/>
	</g>
	<path fill="#83B533" d="M50.584,11.037c1.937,1.755,6.124,6.298,3.687,10.245s-12.813,7.135-23.438,4.26S6.025,16.831,5.458,14.375
		s1.105-2.396,2.209-1.583S50.584,11.037,50.584,11.037z"/>
	<g>
		<g>
			<g>
				<g>
					<ellipse fill="#8CC63E" cx="38.596" cy="7.641" rx="5.393" ry="5.643"/>
				</g>
			</g>
			<g>
				<g>
					<ellipse fill="#FFFFFF" cx="38.596" cy="7.641" rx="4.441" ry="4.646"/>
				</g>
				<g>
					<ellipse fill="#3E4347" cx="38.595" cy="7.641" rx="3.109" ry="3.253"/>
				</g>
			</g>
		</g>
		<polygon fill="#E8F94B" points="7.024,12.084 7.024,15.446 9.208,14.167 9.396,16.729 11.373,15.048 12.333,18.415 14.896,16.261 
			16.177,19.948 19.239,17.386 20.927,21.729 26.225,18.007 26.646,23.261 30.399,19.928 32.302,24.745 35.698,20.168 
			38.333,25.448 41.479,20.249 44.271,25.292 46.136,20.008 50.021,23.417 49.552,18.647 54.021,19.761 50.631,15.048 
			53.239,14.761 50.489,12.084 33.29,16.566 15.949,14.246 		"/>
		<g>
			<path fill="#8CC63E" d="M9.785,8.59c0,2.508-0.703,2.447-1.569,2.447c-0.867,0-1.569,0.061-1.569-2.447
				c0-1.352,0.702-2.447,1.569-2.447C9.082,6.143,9.785,7.238,9.785,8.59z"/>
			<ellipse fill="#4B662B" cx="7.667" cy="8.59" rx="0.642" ry="1.734"/>
		</g>
		<path fill="#8CC63E" d="M4.469,10.724C4.181,4.434,20.632,16.7,41.396,8.415c5.042-2.012,9.838-0.145,10.125,6.145
			c0.289,6.29-4.1,7.133-9.484,7.833C36.354,23.131,4.757,17.013,4.469,10.724z"/>
		<g>
			<path fill="#8CC63E" d="M14.762,9.871c0,3.704-1.037,3.615-2.317,3.615c-1.281,0-2.318,0.089-2.318-3.615
				c0-1.997,1.037-3.616,2.318-3.616C13.725,6.255,14.762,7.874,14.762,9.871z"/>
			<ellipse fill="#4B662B" cx="12.029" cy="9.871" rx="1.284" ry="2.561"/>
		</g>
		<g>
			<g>
				<g>
					<ellipse fill="#8CC63E" cx="46.142" cy="7.641" rx="5.392" ry="5.643"/>
				</g>
			</g>
			<g>
				<g>
					<ellipse fill="#FFFFFF" cx="46.143" cy="7.641" rx="4.441" ry="4.646"/>
				</g>
				<g>
					<ellipse fill="#3E4347" cx="46.142" cy="7.641" rx="3.109" ry="3.253"/>
				</g>
			</g>
		</g>
	</g>
</g>
</svg>
