<?xml version="1.0" encoding="utf-8"?>
<!-- Generator: Adobe Illustrator 15.0.0, SVG Export Plug-In . SVG Version: 6.00 Build 0)  -->
<!DOCTYPE svg PUBLIC "-//W3C//DTD SVG 1.1//EN" "http://www.w3.org/Graphics/SVG/1.1/DTD/svg11.dtd">
<svg version="1.1" id="Layer_1" xmlns="http://www.w3.org/2000/svg" xmlns:xlink="http://www.w3.org/1999/xlink" x="0px" y="0px"
	 width="64px" height="64px" viewBox="0 0 64 64" enable-background="new 0 0 64 64" xml:space="preserve">
<g>
	<g>
		<g>
			<path fill="#896349" d="M43.658,36.182v16.752c0,2.033,1.173,2.205,2.618,2.205c1.45,0,2.622-0.171,2.622-2.205V36.182H43.658z"
				/>
		</g>
		<path fill="#3E4347" d="M49.529,56.651h-6.5l0.629-3.68c0,0,0.686-0.738,2.62-0.738c1.934,0,2.62,0.738,2.62,0.738L49.529,56.651z
			"/>
	</g>
	<g>
		<path fill="#FFD092" d="M58.427,30.447c-2.932,3.021-6.591,2.266-8.071,1.366c-1.481-0.899-1.138-4.289,2.558-6.781
			c5.083-3.427,7.075-6.176,7.075-6.176S63.098,25.628,58.427,30.447z"/>
	</g>
	<g>
		<path fill="#A87654" d="M60.247,36.483c0,16.332-16.692,3.537-20.659,7.35C30.982,52.104,21.36,43.78,21.36,43.78V24.167h24.885
			C53.979,24.167,60.247,29.672,60.247,36.483z"/>
	</g>
	<path fill="#FFD092" d="M41.338,40.654c-8.605,8.27-18.228-0.053-18.228-0.053V24.167h-1.75V43.78c0,0,9.534,8.71,18.14,0.439
		c3.588-3.449,18.25,6.982,20.316-3.822C55.16,44.733,44.417,37.694,41.338,40.654z"/>
	<g>
		<g>
			<g>
				<path fill="#A87654" d="M17.109,34.261V56.96c0,2.756,1.443,2.988,3.223,2.988c1.783,0,3.227-0.232,3.227-2.988V34.261H17.109z"
					/>
			</g>
			<path fill="#3E4347" d="M24.334,61.998h-8l0.775-4.986c0,0,0.844-0.999,3.225-0.999c2.379,0,3.225,0.999,3.225,0.999
				L24.334,61.998z"/>
		</g>
		<g>
			<g>
				<path fill="#A87654" d="M32.961,34.261V56.96c0,2.756,1.443,2.988,3.223,2.988c1.785,0,3.227-0.232,3.227-2.988V34.261H32.961z"
					/>
			</g>
			<path fill="#3E4347" d="M40.186,61.998h-8l0.775-4.986c0,0,0.846-0.999,3.225-0.999c2.381,0,3.225,0.999,3.225,0.999
				L40.186,61.998z"/>
		</g>
	</g>
	<g>
		<path fill="#656F72" d="M30.137,12.849c0.871,2.458,6.891,4.356,8.178,1.596C42.992,4.41,53.516,9.386,53.516,9.386
			C41.737-6.446,28.153,7.249,30.137,12.849z"/>
		<path fill="#656F72" d="M3.002,9.386c0,0,10.524-4.977,15.2,5.059c1.286,2.76,7.31,0.861,8.18-1.596
			C28.364,7.249,14.779-6.446,3.002,9.386z"/>
	</g>
	<path fill="#FFD092" d="M31.455,50.415c1.949,2.491,5.783,1.713,5.783,1.713c-2.017-2.52-2.017-6.047-2.017-6.047v-9.629H21.396
		v11.031c0,3.568-2.118,4.711-2.118,4.711c4.01-0.068,6.146-2.463,6.146-2.463c-0.474,3.277,5.033,4.868,5.033,4.868
		C30.031,52.649,31.455,50.415,31.455,50.415z"/>
	<g>
		<g>
			<g>
				<path fill="#A87654" d="M52.408,23.672c0.135-4.062-0.52-7.396-1.941-9.393c-2.144-1.254-5.842-1.896-10.422-1.801
					c-0.135,4.062,0.518,7.398,1.939,9.395C44.133,23.125,47.827,23.768,52.408,23.672z"/>
			</g>
		</g>
		<g>
			<g>
				<path fill="#A87654" d="M16.585,12.483c-4.53-0.119-8.252,0.467-10.476,1.742c-1.398,1.926-2.114,5.24-2.007,9.348
					c4.527,0.12,8.246-0.463,10.471-1.739C15.975,19.904,16.686,16.593,16.585,12.483z"/>
			</g>
		</g>
	</g>
	<path fill="#C1875D" d="M44.539,23.94c0,11.705-7.29,21.193-16.28,21.193c-8.992,0-16.278-9.488-16.278-21.193
		c0-12.621,1.303-13.609,16.278-13.609C43.237,10.331,44.539,11.319,44.539,23.94z"/>
	<path fill="#FFD092" d="M28.259,28.148c-2.198,0,0.259-3.457-3.642-10.802c-2.874-5.408-7.643-6.396-9.198-5.556
		c2.354-1.27,6.288-2.458,12.84-2.458c6.363,0,10.258,1.178,12.633,2.351c-1.412-0.697-6.379,0.184-8.994,5.663
		C28.419,24.64,30.321,28.148,28.259,28.148z"/>
	<g>
		<g>
			<ellipse fill="#FFFFFF" cx="19.435" cy="22.006" rx="5.51" ry="5.159"/>
			<ellipse fill="#3E4347" cx="19.435" cy="22.006" rx="3.812" ry="3.572"/>
		</g>
		<g>
			<ellipse fill="#FFFFFF" cx="37.082" cy="22.006" rx="5.513" ry="5.159"/>
			<ellipse fill="#3E4347" cx="37.082" cy="22.006" rx="3.814" ry="3.572"/>
		</g>
	</g>
	<g>
		<path fill="#3E4347" d="M20.057,33.03c3.941,0.662,4.174,0.663,6.028,4.418"/>
		<path fill="#3E4347" d="M36.46,33.03c-3.944,0.662-4.174,0.663-6.032,4.418"/>
	</g>
	<g>
		<path fill="#3E4347" d="M28.261,44.944c-2.351,0-4.492-0.85-4.492-1.783c0-0.104,0.032-0.191,0.099-0.264
			c0.084-0.09,0.21-0.143,0.353-0.143c0.165,0,0.325,0.068,0.59,0.18c0.586,0.246,1.677,0.707,3.451,0.707
			c1.771,0,2.861-0.461,3.446-0.707c0.265-0.111,0.428-0.18,0.592-0.18c0.223,0,0.449,0.141,0.449,0.406
			C32.748,44.095,30.608,44.944,28.261,44.944z"/>
	</g>
	<g>
		<g>
			<path fill="#A87654" d="M54.252,36.615v15.853c0,2.287,1.263,2.481,2.819,2.481c1.561,0,2.824-0.193,2.824-2.481V36.615H54.252z"
				/>
		</g>
		<path fill="#3E4347" d="M60.573,56.651h-7l0.679-4.141c0,0,0.739-0.83,2.821-0.83s2.822,0.83,2.822,0.83L60.573,56.651z"/>
	</g>
</g>
</svg>
