<?xml version="1.0" encoding="utf-8"?>
<!-- Generator: Adobe Illustrator 15.0.0, SVG Export Plug-In . SVG Version: 6.00 Build 0)  -->
<!DOCTYPE svg PUBLIC "-//W3C//DTD SVG 1.1//EN" "http://www.w3.org/Graphics/SVG/1.1/DTD/svg11.dtd">
<svg version="1.1" id="Layer_1" xmlns="http://www.w3.org/2000/svg" xmlns:xlink="http://www.w3.org/1999/xlink" x="0px" y="0px"
	 width="64px" height="64px" viewBox="0 0 64 64" enable-background="new 0 0 64 64" xml:space="preserve">
<g>
	<path fill="#947151" d="M14.582,46.171c-5.855-0.438-10.75-8.17-10.75-8.17c0,9.545,8.118,13.045,11.84,11.732
		C18.941,48.579,14.582,46.171,14.582,46.171z"/>
	<g>
		<g>
			<g>
				<g>
					<path fill="#EABC92" d="M41.08,56.044c1.678,2.016,9.227,0.041,10.449-2.281c4.983-9.482-0.006-15.582-0.006-15.582
						L41.08,41.495C41.08,41.495,38.937,53.472,41.08,56.044z"/>
				</g>
				<g>
					<g>
						<path fill="#FFE3C7" d="M33.957,60.378c1.859,2.232,8.502,2.092,10.519,0c2.89-2.994,2.765-16.654,2.89-23.314l-12.354-1.053
							C35.012,36.011,31.583,57.532,33.957,60.378z"/>
					</g>
				</g>
			</g>
			<g>
				<g>
					<path fill="#EABC92" d="M26.897,56.044c-1.68,2.016-9.229,0.041-10.45-2.281c-4.984-9.482,0.004-15.582,0.004-15.582
						l10.446,3.314C26.897,41.495,29.039,53.472,26.897,56.044z"/>
				</g>
				<g>
					<g>
						<path fill="#FFE3C7" d="M34.02,60.378c-1.86,2.232-8.504,2.092-10.52,0c-2.889-2.994-2.765-16.654-2.889-23.314l12.354-1.053
							C32.964,36.011,36.393,57.532,34.02,60.378z"/>
					</g>
				</g>
			</g>
		</g>
		<path fill="#423223" d="M33.987,60.458c-0.296-2.098-0.365-4.195-0.379-6.294c0.009-2.099,0.075-4.196,0.37-6.296
			c0.298,2.099,0.367,4.197,0.379,6.295C34.347,56.262,34.281,58.36,33.987,60.458z"/>
	</g>
	<path fill="#3E4347" d="M33.988,46.481c-9.875,0-14.998-4.037-14.998-4.037s3.263,9.123,14.998,9.123
		c11.734,0,15.003-9.123,15.003-9.123S43.862,46.481,33.988,46.481z"/>
	<g>
		<path fill="#42ADE2" d="M4.671,47.868c0.684,0.501,1.38,0.9,2.085,1.291c0.71,0.378,1.424,0.739,2.158,1.052
			c1.466,0.65,2.954,1.145,4.603,1.517c-1.665,0.429-3.451,0.069-5.005-0.602c-0.778-0.353-1.523-0.781-2.188-1.32
			C5.666,49.271,5.043,48.644,4.671,47.868z"/>
	</g>
	<g>
		<path fill="#42ADE2" d="M4.607,53.019c0.826,0.187,1.624,0.274,2.426,0.352c0.801,0.063,1.599,0.109,2.396,0.102
			c1.603,0.011,3.163-0.131,4.822-0.447c-1.354,1.058-3.134,1.441-4.825,1.447c-0.854-0.013-1.708-0.107-2.532-0.337
			C6.078,53.909,5.256,53.582,4.607,53.019z"/>
	</g>
	<path fill="#FFFFFF" d="M31.09,49.005c0-1.387,0.58-2.525,1.302-2.559c-0.213-0.219-0.455-0.332-0.715-0.332
		c-0.836,0-1.514,1.295-1.514,2.891c0,1.598,0.678,2.891,1.514,2.891c0.26,0,0.502-0.168,0.715-0.387
		C31.67,51.476,31.09,50.394,31.09,49.005z"/>
	<g>
		<path fill="#FFE3C7" d="M19.829,42.985c-5.89-3.82-8.236-18.649-6.317-25.402c1.43-5.026,6.834-12.432,11.688-14.364
			c4.082-1.626,13.494-1.626,17.576,0c4.855,1.932,10.259,9.338,11.688,14.364c1.922,6.753,0.447,21.582-5.445,25.402
			C36.599,51.039,32.248,51.04,19.829,42.985z"/>
		<g>
			<g>
				<g>
					<path fill="#423223" d="M10.488,19.113c3.154,6.885,3.927,7.155,6.904-1.03c1.588-4.367,0.476-6.975,2.322-9.797
						c1.026-1.572,3.409-4.144,3.409-4.144S4.536,6.109,10.488,19.113z"/>
				</g>
			</g>
			<g>
				<g>
					<path fill="#947151" d="M18.435,3.886C13.743,6.903,3.687,5.707,9.638,18.71c3.154,6.885,3.928,7.155,6.904-1.03
						c1.589-4.367,0.477-6.975,2.322-9.797c1.028-1.572,4.259-3.741,4.259-3.741S21.656,1.814,18.435,3.886z"/>
				</g>
			</g>
		</g>
		<g>
			<g>
				<g>
					<path fill="#423223" d="M57.488,19.109c-3.154,6.885-3.928,7.154-6.905-1.03c-1.588-4.367-0.476-6.975-2.321-9.797
						c-1.027-1.573-3.408-4.144-3.408-4.144S63.439,6.105,57.488,19.109z"/>
				</g>
			</g>
			<g>
				<g>
					<path fill="#947151" d="M49.54,3.881c4.692,3.017,14.749,1.821,8.796,14.825c-3.153,6.885-3.927,7.155-6.904-1.03
						c-1.588-4.367-0.475-6.975-2.321-9.797c-1.028-1.572-4.257-3.741-4.257-3.741S46.319,1.81,49.54,3.881z"/>
				</g>
			</g>
		</g>
		<g>
			<g>
				<g>
					<path fill="#FFFFFF" d="M21.549,19.173c2.894,0,5.237,2.344,5.237,5.236s-2.344,5.236-5.237,5.236
						c-2.89,0-5.235-2.344-5.235-5.236S18.66,19.173,21.549,19.173z"/>
				</g>
			</g>
		</g>
		<g>
			<g>
				<g>
					<ellipse fill="#3E4347" cx="20.242" cy="24.409" rx="3.927" ry="3.927"/>
				</g>
			</g>
		</g>
		<g>
			<g>
				<g>
					<ellipse fill="#FFFFFF" cx="46.424" cy="24.409" rx="5.236" ry="5.236"/>
				</g>
			</g>
		</g>
		<g>
			<g>
				<g>
					<ellipse fill="#3E4347" cx="47.733" cy="24.409" rx="3.927" ry="3.927"/>
				</g>
			</g>
		</g>
		<g>
			<path fill="#7D644B" d="M24.989,40.146l4.059,4.24c2.439,2.537,7.441,2.54,9.876,0l4.061-4.24l-4.172-4.356h-9.651L24.989,40.146
				z"/>
			<g>
				<path fill="#F15A61" d="M33.987,32.134c0,0-4.244,6.057-3.737,8.994c0.714,4.158,6.759,4.158,7.473,0
					C38.23,38.19,33.987,32.134,33.987,32.134z"/>
			</g>
			<g>
				<path fill="#BA454B" d="M33.987,42.688l0.945-5.859h-1.891L33.987,42.688L33.987,42.688z"/>
			</g>
			<g>
				<rect x="29.612" y="33.798" fill="#423223" width="8.75" height="3.977"/>
			</g>
			<path fill="#947151" d="M47.807,34.746l-6.232-6.513c-3.748-3.896-11.427-3.9-15.169,0l-6.236,6.513
				c-1.769,1.847-1.769,4.842,0,6.69c1.768,1.844,4.639,1.844,6.407,0l6.238-6.51c0.602-0.629,1.747-0.629,2.348,0l6.237,6.51
				c1.77,1.844,4.64,1.844,6.407,0C49.574,39.588,49.574,36.593,47.807,34.746z"/>
			<g>
				<path fill="#3E4347" d="M28.839,28.694c0-2.294,2.306-2.736,5.148-2.736c2.844,0,5.147,0.442,5.147,2.736
					c0,1.822-4.098,3.439-5.147,3.439C32.935,32.134,28.839,30.517,28.839,28.694z"/>
			</g>
			<g>
				<g>
					
						<rect x="26.662" y="30.993" transform="matrix(0.7067 -0.7075 0.7075 0.7067 -14.3638 28.5708)" fill="#3E4347" width="1.234" height="1.234"/>
					
						<rect x="24.584" y="33.393" transform="matrix(0.7071 -0.7071 0.7071 0.7071 -16.6675 27.7816)" fill="#3E4347" width="1.235" height="1.234"/>
					
						<rect x="27.316" y="34.267" transform="matrix(0.7067 -0.7075 0.7075 0.7067 -16.4872 29.9935)" fill="#3E4347" width="1.234" height="1.233"/>
				</g>
				<g>
					
						<rect x="40.078" y="30.993" transform="matrix(-0.7067 -0.7075 0.7075 -0.7067 47.0907 82.7418)" fill="#3E4347" width="1.234" height="1.234"/>
					
						<rect x="42.155" y="33.393" transform="matrix(-0.7071 -0.7071 0.7071 -0.7071 48.9683 88.3038)" fill="#3E4347" width="1.235" height="1.234"/>
					
						<rect x="39.424" y="34.267" transform="matrix(-0.7067 -0.7075 0.7075 -0.7067 43.6588 87.864)" fill="#3E4347" width="1.234" height="1.233"/>
				</g>
			</g>
		</g>
	</g>
</g>
</svg>
