<?xml version="1.0" encoding="utf-8"?>
<!-- Generator: Adobe Illustrator 15.0.0, SVG Export Plug-In . SVG Version: 6.00 Build 0)  -->
<!DOCTYPE svg PUBLIC "-//W3C//DTD SVG 1.1//EN" "http://www.w3.org/Graphics/SVG/1.1/DTD/svg11.dtd">
<svg version="1.1" id="Layer_1" xmlns="http://www.w3.org/2000/svg" xmlns:xlink="http://www.w3.org/1999/xlink" x="0px" y="0px"
	 width="64px" height="64px" viewBox="0 0 64 64" enable-background="new 0 0 64 64" xml:space="preserve">
<g>
	<path fill="#A5627A" d="M53.941,31.774c-0.663-0.245-1.271-0.708-1.699-1.32c-0.427-0.612-0.685-1.357-0.735-2.118
		c-0.029-0.381-0.015-0.766,0.042-1.146c0.062-0.38,0.167-0.752,0.309-1.111c0.284-0.72,0.724-1.386,1.289-1.926
		c0.07-0.068,0.144-0.134,0.216-0.199l0.115-0.099l0.105-0.085c0.158-0.123,0.309-0.233,0.472-0.341
		c0.323-0.211,0.665-0.401,1.028-0.551c0.722-0.303,1.514-0.47,2.314-0.452c0.799,0.014,1.609,0.208,2.338,0.639
		c0.359,0.22,0.698,0.504,0.968,0.87c0.271,0.363,0.46,0.829,0.482,1.314c0.026,0.485-0.11,0.959-0.331,1.338
		c-0.217,0.383-0.504,0.69-0.799,0.951c-0.606,0.534-1.354,0.901-2.162,1.017c-0.403,0.058-0.822,0.051-1.236-0.05
		c-0.411-0.1-0.83-0.303-1.146-0.65c-0.321-0.345-0.478-0.831-0.469-1.266c0.004-0.438,0.132-0.833,0.296-1.186
		c0.339-0.702,0.82-1.268,1.337-1.775c0.521-0.504,1.081-0.95,1.659-1.363c1.162-0.82,2.396-1.511,3.664-2.122
		c-1.174,0.774-2.324,1.583-3.379,2.487c-0.528,0.449-1.031,0.927-1.477,1.439c-0.442,0.514-0.849,1.063-1.079,1.649
		c-0.114,0.289-0.179,0.588-0.16,0.853c0.017,0.266,0.116,0.483,0.284,0.647c0.337,0.34,0.967,0.436,1.539,0.32
		c0.581-0.11,1.133-0.415,1.559-0.83c0.443-0.426,0.697-0.942,0.643-1.372c-0.043-0.43-0.384-0.853-0.875-1.127
		c-0.485-0.286-1.086-0.423-1.688-0.443c-1.211-0.033-2.449,0.455-3.415,1.266c-0.473,0.404-0.876,0.897-1.165,1.46
		c-0.144,0.281-0.258,0.578-0.341,0.886c-0.088,0.307-0.143,0.623-0.161,0.944c-0.03,0.64,0.069,1.302,0.352,1.901
		C52.91,30.828,53.364,31.364,53.941,31.774z"/>
	<g>
		<g>
			<path fill="#EA83A3" d="M35.411,50.442V35.527c0-3.6,2.047-5.422,4.571-5.422c2.521,0,4.562,1.822,4.562,5.422v14.915
				C44.544,54.033,35.411,54.033,35.411,50.442z"/>
		</g>
		<g>
			<path fill="#A5627A" d="M39.983,55.858c0-2.979,0.865,0,4.556,0c0,0,0-4.202,0-5.416h-9.128
				C35.411,54.033,37.452,55.858,39.983,55.858z"/>
		</g>
	</g>
	<g>
		<g>
			<path fill="#EA83A3" d="M48.983,52.805V37.889c0-3.601,2.047-5.422,4.572-5.422c2.521,0,4.562,1.822,4.562,5.422v14.916
				C58.117,56.396,48.983,56.396,48.983,52.805z"/>
		</g>
		<g>
			<path fill="#A5627A" d="M53.557,58.22c0-2.979,0.865,0,4.556,0c0,0,0-4.202,0-5.415h-9.129
				C48.983,56.396,51.026,58.22,53.557,58.22z"/>
		</g>
	</g>
	<g>
		<path fill="#EA83A3" d="M58.95,38.26c0,9.477-2.703,15.328-23.486,15.328h-18.97V23.91h26.97
			C50.913,23.91,58.95,26.095,58.95,38.26z"/>
	</g>
	<g>
		<path fill="#EA83A3" d="M7.911,38.706c0-9.476,1.321-15.328,11.476-15.328h9.268v29.679l-13.177-0.001
			C11.837,53.057,7.911,50.871,7.911,38.706z"/>
	</g>
	<g>
		<g>
			<path fill="#EA83A3" d="M29.389,55.317V36.351c0-4.578,2.604-6.895,5.813-6.895c3.205,0,5.8,2.317,5.8,6.895v18.967
				C41.002,59.884,29.389,59.884,29.389,55.317z"/>
		</g>
		<g>
			<path fill="#A5627A" d="M35.202,62.203c0-3.789,1.101,0,5.793,0c0,0,0-5.344,0-6.886H29.389
				C29.389,59.884,31.984,62.203,35.202,62.203z"/>
		</g>
	</g>
	<g>
		<g>
			<path fill="#EA83A3" d="M21.654,55.317V36.351c0-4.578-2.602-6.895-5.812-6.895c-3.205,0-5.8,2.317-5.8,6.895v18.967
				C10.042,59.884,21.654,59.884,21.654,55.317z"/>
		</g>
		<g>
			<path fill="#A5627A" d="M15.841,62.203c0-3.789-1.101,0-5.793,0c0,0,0-5.344,0-6.886h11.606
				C21.654,59.884,19.059,62.203,15.841,62.203z"/>
		</g>
	</g>
	<g>
		<g>
			<g>
				<path fill="#FC97B2" d="M16.961,10.466C15.045,6.878,2.302,7.951,2.302,7.951S0.8,20.862,4.494,22.864
					C7.336,24.402,18.514,13.375,16.961,10.466z"/>
				<path fill="#FFD7E4" d="M14.567,12.437c-1.188-2.226-9.086-1.56-9.086-1.56s-0.931,8.005,1.357,9.243
					C8.601,21.076,15.53,14.24,14.567,12.437z"/>
			</g>
			<g>
				<path fill="#FC97B2" d="M47.597,22.771c3.607-1.904,2.529-14.576,2.529-14.576S37.143,6.7,35.13,10.374
					C33.583,13.2,44.672,24.316,47.597,22.771z"/>
				<path fill="#FFD7E4" d="M45.616,20.391c2.236-1.182,1.567-9.038,1.567-9.038s-8.048-0.925-9.296,1.353
					C36.93,14.457,43.802,21.349,45.616,20.391z"/>
			</g>
		</g>
		<path fill="#FC97B2" d="M47.702,30.219c0,13.981-9.654,16.584-21.563,16.584c-11.908,0-21.563-2.604-21.563-16.584
			c0-13.984,13.25-24.017,21.563-24.017C34.453,6.203,47.702,16.235,47.702,30.219z"/>
		<path fill="#FFD7E4" d="M37.438,38.57c0,6.495-5.059,5.746-11.3,5.746c-6.24,0-11.299,0.749-11.299-5.746
			c0-6.497,5.059-9.755,11.299-9.755C32.38,28.815,37.438,32.074,37.438,38.57z"/>
		<g>
			<ellipse fill="#BF7B90" cx="21.098" cy="37.188" rx="2.768" ry="5.031"/>
			<ellipse fill="#BF7B90" cx="31.18" cy="37.188" rx="2.766" ry="5.031"/>
		</g>
		<g id="Hair_3_">
			<path fill="#BF7B90" d="M26.139,16.757c0,0-2.393-8.071-7.779-9.582c0,0,2.418-1.402,4.191-0.723c0,0,0.111-1.472-1.484-2.529
				c0,0,3.473-0.745,5.195,1.724c0,0,0.238-2.564-0.383-3.854c0,0,5.752,1.356,7.237,6.243C33.116,8.037,27.27,9.784,26.139,16.757z
				"/>
		</g>
		<g>
			<g>
				<g>
					<ellipse fill="#493B30" cx="12.965" cy="26.35" rx="2.485" ry="4.501"/>
				</g>
			</g>
		</g>
		<g>
			<g>
				<g>
					<ellipse fill="#493B30" cx="39.312" cy="26.233" rx="2.486" ry="4.501"/>
				</g>
			</g>
		</g>
	</g>
</g>
</svg>
