<?xml version="1.0" encoding="utf-8"?>
<!-- Generator: Adobe Illustrator 15.0.0, SVG Export Plug-In . SVG Version: 6.00 Build 0)  -->
<!DOCTYPE svg PUBLIC "-//W3C//DTD SVG 1.1//EN" "http://www.w3.org/Graphics/SVG/1.1/DTD/svg11.dtd">
<svg version="1.1" id="Layer_1" xmlns="http://www.w3.org/2000/svg" xmlns:xlink="http://www.w3.org/1999/xlink" x="0px" y="0px"
	 width="64px" height="64px" viewBox="0 0 64 64" enable-background="new 0 0 64 64" xml:space="preserve">
<g>
	<g>
		<g>
			<path fill="#6B7B7F" d="M59.789,44.194c1.387-7.124-2.371-14.907-2.406-14.985l1.064-0.627c0.164,0.334,3.994,8.27,2.52,15.845
				L59.789,44.194z"/>
		</g>
		<g>
			<path fill="#6B7B7F" d="M60.93,40.371c-1.154,1.642-1.988,3.229-2.33,4.514c-0.028,1.21,0.352,2.662,1.068,4.092
				c1.154-1.64,1.988-3.233,2.331-4.518C62.025,43.251,61.648,41.799,60.93,40.371z"/>
		</g>
	</g>
	<g>
		<rect x="23.937" y="33.117" fill="#6B7B7F" width="11.872" height="24.881"/>
		<g>
			<g>
				<path fill="#808F96" d="M25.546,55.566c0.892,0,1.613,1.086,1.613,2.432h-3.223C23.937,56.652,24.656,55.566,25.546,55.566z"/>
			</g>
			<g>
				<path fill="#808F96" d="M28.771,55.566c0.891,0,1.613,1.086,1.613,2.432H27.16C27.16,56.652,27.88,55.566,28.771,55.566z"/>
			</g>
			<g>
				<path fill="#808F96" d="M31.994,55.566c0.893,0,1.616,1.086,1.616,2.432h-3.225C30.384,56.652,31.105,55.566,31.994,55.566z"/>
			</g>
		</g>
	</g>
	<g>
		<rect x="25.724" y="33.002" fill="#9CAAAF" width="11.872" height="24.996"/>
		<g>
			<g>
				<path fill="#FFC5D3" d="M27.333,55.568c0.893,0,1.614,1.088,1.614,2.43h-3.224C25.724,56.656,26.444,55.568,27.333,55.568z"/>
			</g>
			<g>
				<path fill="#FFC5D3" d="M30.558,55.568c0.892,0,1.613,1.088,1.613,2.43h-3.224C28.948,56.656,29.667,55.568,30.558,55.568z"/>
			</g>
			<g>
				<path fill="#FFC5D3" d="M33.782,55.568c0.892,0,1.614,1.088,1.614,2.43h-3.225C32.171,56.656,32.892,55.568,33.782,55.568z"/>
			</g>
		</g>
	</g>
	<g>
		<g>
			<rect x="41.548" y="33.117" fill="#6B7B7F" width="11.872" height="24.881"/>
			<g>
				<g>
					<path fill="#808F96" d="M43.158,55.566c0.891,0,1.613,1.086,1.613,2.432h-3.224C41.548,56.652,42.268,55.566,43.158,55.566z"/>
				</g>
				<g>
					<path fill="#808F96" d="M46.383,55.566c0.891,0,1.612,1.086,1.612,2.432h-3.224C44.771,56.652,45.492,55.566,46.383,55.566z"/>
				</g>
				<g>
					<path fill="#808F96" d="M49.605,55.566c0.893,0,1.614,1.086,1.614,2.432h-3.225C47.995,56.652,48.716,55.566,49.605,55.566z"/>
				</g>
			</g>
		</g>
		<g>
			<rect x="46.304" y="33.002" fill="#9CAAAF" width="11.871" height="24.996"/>
			<g>
				<g>
					<path fill="#FFC5D3" d="M47.912,55.568c0.893,0,1.615,1.088,1.615,2.43h-3.224C46.304,56.656,47.023,55.568,47.912,55.568z"/>
				</g>
				<g>
					<path fill="#FFC5D3" d="M51.138,55.568c0.892,0,1.613,1.088,1.613,2.43h-3.224C49.527,56.656,50.247,55.568,51.138,55.568z"/>
				</g>
				<g>
					<path fill="#FFC5D3" d="M54.361,55.568c0.891,0,1.613,1.088,1.613,2.43h-3.224C52.751,56.656,53.471,55.568,54.361,55.568z"/>
				</g>
			</g>
		</g>
	</g>
	<g>
		<path fill="#9CAAAF" d="M59.559,31.95c0,8.963-5.28,16.655-11.775,16.232c-4.35-0.283-12.973-2.115-17.327-2.258v-30.24h17.327
			C54.287,15.684,59.559,22.953,59.559,31.95z"/>
	</g>
	<g>
		<g>
			<path fill="#9CAAAF" d="M26,32.835c-7.705,4.203-11.474-1.462-12.139-1.173c-1.051,0.459-1.978-0.711-1.291-1.457
				c3.136-3.41-8.104-4.25-8.104-4.25C6.162,22.2,11.314,8.948,17.511,7.258c6.246-1.704,8.563-1.792,11.875,0.44
				C33.744,10.632,33.089,28.969,26,32.835z"/>
		</g>
		<g>
			<path fill="#9CAAAF" d="M9.266,48.123c4.328,2.209,10.693,1.402,13.29-3.176c0.993-1.75-1.056-1.223-2.677-2.172
				c-1.621-0.952-2.199-3.018-3.192-1.269c-0.702,1.239-2.526,0.769-3.582,0.151c-1.428-0.839-2.459-2.326-2.829-4.085
				c-0.497-2.366,0.158-5.233,1.893-8.293c0.995-1.751,0.486-3.94-1.135-4.891s-5.098-1.088-6.092,0.665
				C-1.896,37.105,4.722,45.805,9.266,48.123z"/>
		</g>
		<path fill="#808F96" d="M48.196,22.789c0,10.784-6.632,15.002-14.811,15.002c-8.179,0-9.189-6.802-9.189-15.088
			s1.01-14.917,9.189-14.917C41.564,7.785,48.196,12.004,48.196,22.789z"/>
		<path fill="#9CAAAF" d="M47.291,21.827c0,10.525-6.471,14.642-14.454,14.642c-7.981,0-9.506-6.554-9.506-14.642
			c0-4.001-1.344-9.83,0-12.473c0,0,5.474-2.168,9.506-2.168C40.82,7.186,47.291,11.303,47.291,21.827z"/>
		<path fill="#FFC5D3" d="M44.107,22.373c0,7.952-4.557,11.062-10.177,11.062c-8.705,0-3.771-5.243-3.771-11.352
			s-1.202-10.771,3.771-10.771C39.551,11.311,44.107,14.421,44.107,22.373z"/>
		<g>
			<path fill="#42ADE2" d="M16.258,18.521c1.95-0.488,3.982,0.681,4.54,2.608c0.555,1.929-0.576,3.886-2.525,4.372
				c-1.95,0.488-3.981-0.677-4.538-2.607C13.18,20.967,14.307,19.007,16.258,18.521z"/>
			<path fill="#3E4347" d="M16.619,19.768c1.255-0.313,2.56,0.437,2.916,1.677c0.359,1.24-0.367,2.496-1.621,2.81
				c-1.253,0.313-2.56-0.436-2.918-1.676C14.638,21.339,15.364,20.08,16.619,19.768z"/>
		</g>
		<path fill="#9CAAAF" d="M14.85,30.034c-1.071-2.24,0.587-5.291,3.704-6.813c3.116-1.521,6.511-0.94,7.581,1.3
			c1.07,2.242-0.588,5.292-3.703,6.813C19.314,32.857,15.92,32.275,14.85,30.034z"/>
	</g>
</g>
</svg>
