<?xml version="1.0" encoding="utf-8"?>
<!-- Generator: Adobe Illustrator 15.0.0, SVG Export Plug-In . SVG Version: 6.00 Build 0)  -->
<!DOCTYPE svg PUBLIC "-//W3C//DTD SVG 1.1//EN" "http://www.w3.org/Graphics/SVG/1.1/DTD/svg11.dtd">
<svg version="1.1" id="Layer_1" xmlns="http://www.w3.org/2000/svg" xmlns:xlink="http://www.w3.org/1999/xlink" x="0px" y="0px"
	 width="64px" height="64px" viewBox="0 0 64 64" enable-background="new 0 0 64 64" xml:space="preserve">
<g>
	<path fill="#555C60" d="M38.494,32.826c9.406-3.346,21.662,2.668,21.662,2.668s-5.436,12.307-14.838,15.65
		c-9.406,3.346-17.336,1.523-19.221-3.535C24.215,42.551,29.092,36.172,38.494,32.826z"/>
	<g>
		<g>
			<g>
				<path fill="#555C60" d="M40.436,39.979c-1.086,0.441-7.582,3.145-9.318,4.49c-5.213,4.045,0.494,14.037,1,16.08
					c-0.131-2.105-1.463-11.4-0.127-12.789c1.922-2.004,10.465-4.1,10.465-4.1L40.436,39.979z"/>
			</g>
		</g>
	</g>
	<g>
		<g>
			<g>
				<path fill="#555C60" d="M21.252,40.408c-0.67,0.398-4.65,2.814-5.486,3.766c-2.504,2.857,5.541,6.787,6.68,7.701
					c-0.875-1.008-5.311-5.332-4.799-6.236c0.734-1.305,6.506-3.768,6.506-3.768L21.252,40.408z"/>
			</g>
		</g>
	</g>
	<g>
		<g>
			<g>
				<path fill="#555C60" d="M47.193,38.141c-1.084,0.443-7.582,3.145-9.318,4.492c-5.213,4.045,0.496,14.037,1,16.078
					c-0.131-2.105-1.461-11.398-0.127-12.787c1.924-2.004,10.465-4.1,10.465-4.1L47.193,38.141z"/>
			</g>
		</g>
	</g>
	<ellipse fill="#555C60" cx="22.618" cy="37.174" rx="8.47" ry="8.277"/>
	<g>
		<g>
			<g>
				<path fill="#6C767A" d="M43.631,43.295c0,0,3.967,4.523,14.623,1.154c2.477-0.783-7.633,13.125-9.201,15.576
					c1.975-2.137,16.846-15.158,11.973-18.719c-3.072-2.238-11.488,0.076-12.5-1.152L43.631,43.295z"/>
			</g>
		</g>
		<g>
			<path fill="#555C60" d="M43.182,43.041c0,0,5.439,3.141,14.08,1.023c2.521-0.619-6.641,13.51-8.209,15.961
				c1.975-2.137,15.564-14.742,10.691-18.301c-3.07-2.24-10.623-0.92-11.635-2.148L43.182,43.041z"/>
		</g>
	</g>
	<g>
		<g>
			<g>
				<path fill="#6C767A" d="M36.863,45.27c0,0,3.969,4.521,14.623,1.154c2.477-0.785-7.631,13.125-9.199,15.576
					c1.975-2.137,16.848-15.158,11.971-18.721c-3.07-2.236-11.486,0.076-12.498-1.152L36.863,45.27z"/>
			</g>
		</g>
		<g>
			<path fill="#555C60" d="M36.416,45.014c0,0,5.439,3.143,14.08,1.025c2.521-0.619-6.641,13.51-8.209,15.961
				c1.975-2.137,15.566-14.742,10.691-18.303c-3.07-2.24-10.623-0.92-11.635-2.148L36.416,45.014z"/>
		</g>
	</g>
	<g>
		<g>
			<path fill="#555C60" d="M15.566,13.893c-1.652-1.971-2.955-4.227-4.584-6.119C10.18,6.828,9.301,5.955,8.34,5.359
				C7.375,4.756,6.369,4.506,5.43,4.654c-0.746,0.119-1.447-0.375-1.57-1.104S4.244,2.135,4.99,2.018C5.072,2.004,5.152,2,5.232,2
				l0.104,0.004C7.004,2.041,8.539,2.82,9.59,3.789c1.082,0.973,1.846,2.1,2.514,3.229C13.438,9.287,14.291,11.676,15.566,13.893z"
				/>
			<path fill="#555C60" d="M17.369,13.893c1.275-2.217,2.127-4.605,3.463-6.875c0.668-1.129,1.43-2.256,2.508-3.229
				c1.053-0.969,2.592-1.748,4.26-1.785L27.695,2c0.754-0.018,1.379,0.568,1.395,1.307c0.021,0.736-0.578,1.348-1.332,1.365
				c-0.084,0.002-0.172-0.004-0.252-0.018c-0.941-0.148-1.949,0.102-2.91,0.705c-0.963,0.596-1.842,1.469-2.646,2.414
				C20.322,9.666,19.021,11.922,17.369,13.893z"/>
		</g>
		<g>
			<g>
				<path fill="#6C767A" d="M16.467,8.607c-7.072,0-12.805,5.604-12.805,12.514c0,8.184,12.852,16.689,12.848,16.688
					c0,0.002,12.762-8.494,12.762-16.688C29.271,14.211,23.537,8.607,16.467,8.607z"/>
			</g>
		</g>
		<g>
			<g>
				<ellipse fill="#6C767A" cx="24.404" cy="20.93" rx="6.527" ry="6.379"/>
				<g>
					<ellipse fill="#FCFCFA" cx="24.404" cy="20.93" rx="5.658" ry="5.725"/>
					<ellipse fill="#3E4347" cx="24.404" cy="20.93" rx="3.889" ry="3.938"/>
				</g>
			</g>
			<g>
				<ellipse fill="#6C767A" cx="8.528" cy="20.93" rx="6.528" ry="6.379"/>
				<g>
					<ellipse fill="#FCFCFA" cx="8.526" cy="20.93" rx="5.657" ry="5.725"/>
					<path fill="#3E4347" d="M12.416,20.93c0,2.174-1.742,3.938-3.891,3.938c-2.145,0-3.889-1.764-3.889-3.938
						c0-2.172,1.744-3.934,3.889-3.934C10.674,16.996,12.416,18.758,12.416,20.93z"/>
				</g>
			</g>
		</g>
	</g>
	<g>
		<g>
			<g>
				<g>
					<path fill="#6C767A" d="M29.844,35.721c1.016-0.746,7.082-5.262,8.535-7.123c4.357-5.59-4.85-14.404-5.934-16.412
						c0.711,2.17,4.229,10.684,2.971,12.457c-4.082,5.752-9.254,8.082-9.254,8.082L29.844,35.721z"/>
				</g>
			</g>
		</g>
		<g>
			<g>
				<g>
					<path fill="#555C60" d="M29.699,36.086c1.016-0.744,6.199-5.299,7.65-7.16c4.359-5.588-3.82-14.732-4.904-16.74
						c0.711,2.17,4.115,11.719,3.096,13.521c-1.471,2.6-9.842,7.012-9.842,7.012L29.699,36.086z"/>
				</g>
			</g>
		</g>
	</g>
</g>
</svg>
