<?xml version="1.0" encoding="utf-8"?>
<!-- Generator: Adobe Illustrator 15.0.0, SVG Export Plug-In . SVG Version: 6.00 Build 0)  -->
<!DOCTYPE svg PUBLIC "-//W3C//DTD SVG 1.1//EN" "http://www.w3.org/Graphics/SVG/1.1/DTD/svg11.dtd">
<svg version="1.1" id="Layer_1" xmlns="http://www.w3.org/2000/svg" xmlns:xlink="http://www.w3.org/1999/xlink" x="0px" y="0px"
	 width="64px" height="64px" viewBox="0 0 64 64" enable-background="new 0 0 64 64" xml:space="preserve">
<g>
	<g>
		<polygon fill="#3F3438" points="53.242,49.886 62,60.795 48.703,56.525 		"/>
		<polygon fill="#FFCE31" points="51.033,30.786 50.788,33.354 52.658,31.552 52.167,34.085 54.216,32.481 53.442,34.945 
			55.671,33.594 54.584,35.939 56.977,34.898 55.563,37.067 58.085,36.388 56.353,38.318 58.95,38.029 56.938,39.675 59.55,39.772 
			57.318,41.116 59.891,41.568 57.499,42.614 59.997,43.377 57.495,44.204 59.88,45.318 57.296,45.846 59.528,47.233 56.899,47.454 
			58.95,49.092 56.314,49.008 58.16,50.867 55.55,50.493 57.178,52.54 54.623,51.89 56.024,54.094 53.551,53.189 54.721,55.521 
			52.35,54.381 53.287,56.813 51.033,55.459 51.743,57.966 49.621,56.418 50.104,58.977 48.127,57.253 48.386,59.844 46.562,57.963 
			46.604,60.565 44.94,58.543 44.772,61.141 43.275,58.996 42.896,61.572 41.579,59.317 40.998,61.857 39.858,59.51 39.084,62 
			38.124,59.573 37.165,62 36.391,59.51 35.249,61.858 34.672,59.318 33.351,61.572 32.973,58.996 31.48,61.143 31.308,58.544 
			29.645,60.566 29.686,57.962 27.862,59.844 28.121,57.253 26.143,58.977 26.623,56.416 24.501,57.964 25.211,55.457 
			22.957,56.811 23.896,54.378 21.523,55.518 22.694,53.187 20.221,54.092 21.621,51.886 19.066,52.536 		"/>
		<polygon fill="#3F3438" points="10.896,39.65 47.304,27.826 46.813,30.359 48.861,28.754 48.088,31.219 50.315,29.867 
			49.23,32.213 51.622,31.172 50.208,33.341 52.729,32.659 50.997,34.593 53.595,34.303 51.583,35.948 54.194,36.046 51.963,37.39 
			54.535,37.842 52.144,38.888 54.642,39.65 52.14,40.478 54.524,41.592 51.941,42.12 54.172,43.509 51.543,43.73 53.595,45.365 
			50.958,45.283 52.806,47.139 50.194,46.767 51.823,48.813 49.27,48.162 50.668,50.368 48.195,49.463 49.365,51.794 46.994,50.654 
			47.933,53.087 45.68,51.731 46.388,54.239 44.267,52.691 44.749,55.25 42.772,53.526 43.031,56.117 41.207,54.236 41.251,56.838 
			39.586,54.816 39.418,57.414 37.921,55.27 37.543,57.846 36.225,55.591 35.645,58.131 34.505,55.783 33.729,58.273 32.77,55.848 
			31.811,58.273 31.036,55.783 29.895,58.132 29.317,55.592 27.997,57.846 27.619,55.27 26.126,57.416 25.953,54.817 24.291,56.84 
			24.33,54.236 22.506,56.116 22.768,53.526 20.787,55.248 21.271,52.691 19.148,54.238 19.855,51.73 17.602,53.083 18.541,50.651 
			16.169,51.791 17.34,49.46 14.865,50.365 16.268,48.159 13.712,48.81 15.342,46.763 12.73,47.137 14.578,45.279 11.941,45.362 
			13.992,43.726 11.364,43.505 13.596,42.119 11.013,41.593 13.396,40.478 		"/>
		<path fill="#C9E4F2" d="M60.049,4.332c-3.603-4.513-10.246-2.28-14.839,4.994c-4.595,7.272-7.952,19.966-7.952,19.966
			s15.536,2.551,20.127-4.715C61.979,17.309,63.65,8.846,60.049,4.332z"/>
		<g>
			<path fill="#C9E4F2" d="M3.917,8.889C0.376,13.228,2.025,21.284,6.537,28.18c4.518,6.894,19.788,4.308,19.788,4.308
				s-3.305-12.079-7.818-18.973C13.99,6.617,7.458,4.548,3.917,8.889z"/>
		</g>
		<polygon fill="#FFCE31" points="33.61,25.232 34.585,23.425 34.924,25.446 36.006,23.698 36.218,25.735 37.413,24.061 
			37.477,26.107 38.795,24.525 38.694,26.569 40.143,25.103 39.853,27.13 41.438,25.81 40.932,27.795 42.657,26.658 41.916,28.569 
			43.772,27.656 42.782,29.454 44.748,28.799 43.514,30.443 45.553,30.068 44.093,31.521 46.165,31.435 44.518,32.676 
			46.583,32.858 44.79,33.889 46.819,34.315 44.92,35.139 46.893,35.773 44.917,36.467 46.81,37.355 44.772,37.842 46.56,38.922 
			44.483,39.195 46.146,40.453 44.052,40.512 45.574,41.934 43.484,41.781 44.854,43.346 42.789,42.984 43.992,44.679 
			41.976,44.119 43.004,45.92 41.052,45.17 41.902,47.06 40.03,46.13 40.697,48.091 38.919,46.994 39.398,49.007 37.733,47.753 
			38.026,49.801 36.48,48.402 36.584,50.469 35.173,48.939 35.088,51.005 33.82,49.358 33.552,51.41 32.436,49.659 31.984,51.68 
			31.027,49.84 30.398,51.813 29.605,49.899 28.813,51.813 28.186,49.84 27.229,51.68 26.777,49.659 25.662,51.41 25.393,49.358 
			24.125,51.005 24.039,48.938 22.629,50.468 22.73,48.402 21.187,49.8 21.479,47.752 19.811,49.005 20.291,46.991 18.514,48.089 
			19.182,46.129 17.309,47.057 18.159,45.168 16.205,45.916 17.236,44.116 15.218,44.676 		"/>
		<polygon fill="#3F3438" points="9.237,33.14 11.008,32.542 9.296,31.795 11.117,31.363 9.487,30.455 11.341,30.213 9.826,29.13 
			11.697,29.107 10.33,27.847 12.187,28.06 11,26.634 12.812,27.091 11.83,25.519 13.564,26.212 12.798,24.529 14.429,25.435 
			13.88,23.669 15.391,24.76 15.047,22.946 16.432,24.188 16.273,22.349 17.531,23.716 17.535,21.87 18.678,23.332 18.829,21.492 
			19.858,23.035 20.139,21.209 21.064,22.814 21.456,21.008 22.287,22.662 22.781,20.88 23.525,22.575 24.104,20.82 24.771,22.547 
			25.434,20.82 26.016,22.575 26.759,20.88 27.251,22.662 28.084,21.006 28.476,22.813 29.402,21.209 29.688,23.035 30.72,21.494 
			30.874,23.334 32.018,21.872 32.025,23.72 33.288,22.355 33.128,24.195 34.515,22.955 34.167,24.768 35.68,23.681 35.128,25.444 
			36.759,24.541 35.991,26.223 37.726,25.532 36.739,27.101 38.553,26.645 37.362,28.068 39.221,27.856 37.851,29.113 
			39.721,29.138 38.204,30.217 40.059,30.456 38.429,31.364 40.249,31.797 38.536,32.543 40.308,33.14 38.534,33.797 40.24,34.607 
			38.412,35.098 40.035,36.063 38.17,36.381 39.693,37.491 37.805,37.64 39.217,38.883 37.323,38.855 38.609,40.227 36.727,40.023 
			37.877,41.508 36.021,41.131 37.027,42.714 35.217,42.166 36.065,43.837 34.315,43.122 34.999,44.864 33.325,43.99 33.841,45.789 
			32.26,44.761 32.596,46.6 31.123,45.426 31.278,47.288 29.928,45.98 29.898,47.848 28.683,46.416 28.467,48.272 27.4,46.73 
			27.003,48.558 26.092,46.919 25.518,48.699 24.771,46.982 24.026,48.699 23.452,46.919 22.541,48.558 22.145,46.73 21.074,48.271 
			20.863,46.416 19.646,47.848 19.617,45.979 18.265,47.287 18.42,45.425 16.946,46.598 17.283,44.76 15.701,45.786 16.217,43.988 
			14.542,44.862 15.229,43.121 13.478,43.834 14.327,42.164 12.515,42.711 13.521,41.127 11.666,41.504 12.816,40.021 
			10.934,40.225 12.221,38.854 10.328,38.883 11.74,37.638 9.851,37.49 11.375,36.383 9.509,36.062 11.132,35.097 9.305,34.606 
			11.011,33.795 		"/>
		<g>
			<g>
				<path fill="#FCFCFA" d="M34.633,32.504c0,3.602-2.906,6.517-6.492,6.517c-3.584,0-6.49-2.915-6.49-6.517
					c0-3.596,2.906-6.513,6.49-6.513C31.727,25.991,34.633,28.908,34.633,32.504z"/>
				<path fill="#3F3438" d="M33.619,32.504c0,2.476-1.998,4.481-4.465,4.481c-2.461,0-4.461-2.006-4.461-4.481
					c0-2.474,2-4.48,4.461-4.48C31.621,28.024,33.619,30.03,33.619,32.504z"/>
			</g>
		</g>
		<g>
			<g>
				<ellipse fill="#FCFCFA" cx="14.845" cy="32.504" rx="5.41" ry="5.43"/>
				<ellipse fill="#3F3438" cx="15.858" cy="32.504" rx="3.72" ry="3.734"/>
			</g>
		</g>
	</g>
	<g>
		<path fill="#3F3438" d="M36.324,16.912c-5.478-0.146-8.747,1.894-10.291,6.006c-0.221,0.588,0.706,0.833,0.982,0.271
			c1.275-2.588,3.475-5.567,9.307-5.252c0,0,0.001,0,0.002,0C36.959,17.937,36.959,16.912,36.324,16.912L36.324,16.912z"/>
	</g>
	<g>
		<path fill="#3F3438" d="M17.842,24.615c-3.768-3.925-7.543-4.761-11.582-2.933c-0.578,0.262-0.097,1.082,0.499,0.879
			c2.758-0.941,6.448-1.514,10.346,2.778c0,0,0.001,0,0.002,0C17.557,25.783,18.291,25.059,17.842,24.615L17.842,24.615z"/>
	</g>
</g>
</svg>
