<?xml version="1.0" encoding="utf-8"?>
<!-- Generator: Adobe Illustrator 15.0.0, SVG Export Plug-In . SVG Version: 6.00 Build 0)  -->
<!DOCTYPE svg PUBLIC "-//W3C//DTD SVG 1.1//EN" "http://www.w3.org/Graphics/SVG/1.1/DTD/svg11.dtd">
<svg version="1.1" id="Layer_1" xmlns="http://www.w3.org/2000/svg" xmlns:xlink="http://www.w3.org/1999/xlink" x="0px" y="0px"
	 width="64px" height="64px" viewBox="0 0 64 64" enable-background="new 0 0 64 64" xml:space="preserve">
<g>
	<path fill="#FFECD6" d="M11.382,4.317C1.747-2.422-0.272,6.997,4.43,14.01C8.985,11.657,10.239,6.793,11.382,4.317z"/>
	<path fill="#FFECD6" d="M11.325,22.257c3.069-4.055,6.179-9.331,7.921-14.685c-1.871-2.133-4.701-3.313-6.674-2.694
		c-0.743,2.771-2.452,4.754-4.324,6.871c-1.127,1.275-2.026,2.732-3.172,3.881c-1.783,3.462-0.453,9.635,1.641,11.439
		C8.346,25.699,9.893,24.151,11.325,22.257z"/>
	<path fill="#FFECD6" d="M38.61,54.411c3.616,0,23.04,2.535,23.04-5.59c0-18.718-2.379-34.36-25.562-34.36
		c-2.653,7.177-4.327,6.559-1.583-0.047c-1.576-5.021-8.814-8.62-14.463-6.45c-1.502,5.135-4.225,10.36-7.143,14.216
		c-1.819,2.405-3.732,4.602-5.867,6.61C7.033,45,24.652,54.411,38.61,54.411z"/>
	<path fill="#DDB199" d="M12.976,4.779c0,0-1.051,0.083-1.953-0.708c-2.602,6.333-6.96,9.365-6.96,9.365
		c1.124,1.59,0.568,3.309,0.568,3.309C5.974,15.319,10.773,11.279,12.976,4.779z"/>
	<path fill="#29251C" d="M24.719,29.862C22.9,31.852,58.523,62.177,58.523,59.158c0-3.436-0.537-3.491-0.621-5.279
		c-0.082-1.786,2.646-8.806-0.371-13.041c-1.281-1.798-6.282-8.642-7.521-10.544c-1.241-1.902-10.334-4.754-12.4-5.013
		c-2.066-0.26-11.076,2.594-12.895,4.581"/>
	<path fill="#C1875D" d="M58.752,48.711c-1.018-0.751-8.906-0.854-12.854-2.766c-5.732-2.778-10.472-4.675-12.021-8.944
		c-1.428-3.911-2.422-8.349-2.59-10.342c-0.096-1.135-6.332,2.947-6.563,3.203c-1.817,1.989-1.607,5.969,0.376,10.724
		c1.984,4.753,8.536,10.702,9.586,10.816c1.049,0.111,8.352,6.121,11.243,6.555c2.896,0.431,3.557,0.235,4.3,0.84
		c0.745,0.604,2.15,1.84,2.977,1.84c0.521,0,2.578,1.439,3.939,0.726c1.596-0.244,1.604-3.038,1.406-6.021
		c-0.18-2.736,1.547-5.642,0.207-6.63"/>
	<path fill="#FFD6BB" d="M52.16,58.223c-5.512-0.467-22.598-8.767-26.043-17.736c-1.492-3.886,0.462-9.461,0.295-11.46
		c-0.096-1.135-1.463,0.574-1.695,0.83c-1.818,1.988-3.955,7.737-2.066,12.526C27.543,54.785,49.131,62,53.314,62
		c2.723,0,4.208-0.758,4.208-0.758S55.775,58.528,52.16,58.223z"/>
	<path fill="#DDB199" d="M20.753,7.725c-1.507,0.25-2.267-0.889-2.267-0.889c-2.222,7.015-9.691,17.36-12.451,19.457
		c0.903,1.343,1.034,3.737,1.034,3.758C10.552,26.683,18.506,17.218,20.753,7.725z"/>
	<path fill="#DDB199" d="M31.004,27.069c0,0,3.689-5.416,6.344-12.592c0,0-1.957,0.104-3.104-0.764
		c-2.743,6.605-7.943,14.239-7.943,14.239L31.004,27.069z"/>
	<path fill="#DDB199" d="M23.819,31.688c0.514-0.69,5.911-3.233,9.812-3.497c13.076-0.887,24.044,13.583,24.732,20.46
		c0.156,1.569-1.381,3.664-1.389,4.95c-0.021,3.339,1.615,5.203,1.615,5.203s0.072-2.996,1.162-5.082
		c0.214-0.411,2.271-3.601,2.248-5.105c-0.209-13.516-16.723-25.344-26.551-24.654c-6.119,0.43-10.22,4.613-10.726,5.057
		c-1.735,1.526-1.659,3.688-0.899,2.669"/>
</g>
</svg>
