<?xml version="1.0" encoding="utf-8"?>
<!-- Generator: Adobe Illustrator 15.0.0, SVG Export Plug-In . SVG Version: 6.00 Build 0)  -->
<!DOCTYPE svg PUBLIC "-//W3C//DTD SVG 1.1//EN" "http://www.w3.org/Graphics/SVG/1.1/DTD/svg11.dtd">
<svg version="1.1" id="Layer_1" xmlns="http://www.w3.org/2000/svg" xmlns:xlink="http://www.w3.org/1999/xlink" x="0px" y="0px"
	 width="64px" height="64px" viewBox="0 0 64 64" enable-background="new 0 0 64 64" xml:space="preserve">
<g>
	<g>
		<g>
			<path fill="#89664C" d="M20.593,14.791c-2.38-4.463-18.217-3.129-18.217-3.129S0.509,27.725,5.099,30.215
				C8.633,32.129,22.523,18.41,20.593,14.791z"/>
			<path fill="#2B2118" d="M17.618,17.242c-1.476-2.768-11.292-1.939-11.292-1.939s-1.157,9.959,1.688,11.5
				C10.204,27.99,18.815,19.486,17.618,17.242z"/>
		</g>
		<g>
			<path fill="#89664C" d="M58.669,30.1c4.482-2.369,3.143-18.135,3.143-18.135s-16.135-1.859-18.637,2.711
				C41.253,18.191,55.034,32.021,58.669,30.1z"/>
			<path fill="#2B2118" d="M56.208,27.139c2.779-1.469,1.947-11.244,1.947-11.244s-10.002-1.15-11.553,1.682
				C45.411,19.756,53.952,28.33,56.208,27.139z"/>
		</g>
	</g>
	<path fill="#89664C" d="M58.8,39.365C58.8,56.762,46.8,60,32,60S5.2,56.762,5.2,39.365S21.667,9.486,32,9.486
		C42.333,9.486,58.8,21.969,58.8,39.365z"/>
	<g>
		<g>
			<path fill="#FFFFFF" d="M19.661,47.279c-11.875,5.78-8.708-18.958-8.708-18.958c-9.209,23.75,1.811,27.566,9.625,26.417
				L19.661,47.279z"/>
		</g>
		<g>
			<path fill="#FFFFFF" d="M44.339,47.279c11.875,5.78,8.708-18.958,8.708-18.958c9.209,23.75-1.811,27.566-9.625,26.417
				L44.339,47.279z"/>
		</g>
	</g>
	<g>
		<g id="Hair_2_">
			<path fill="#5C4533" d="M32,22.617c0,0-2.975-10.041-9.67-11.92c0,0,3.006-1.746,5.211-0.9c0,0,0.139-1.832-1.846-3.146
				c0,0,4.316-0.926,6.457,2.145c0,0,0.297-3.189-0.477-4.795c0,0,7.148,1.689,8.996,7.77C40.671,11.77,33.403,13.941,32,22.617z"/>
		</g>
		<g>
			<g>
				<g>
					<g>
						<ellipse fill="#2B2118" cx="18.627" cy="34.553" rx="3.089" ry="5.6"/>
					</g>
				</g>
			</g>
			<g>
				<g>
					<g>
						<path fill="#2B2118" d="M45.37,28.807c1.707,0,3.09,2.506,3.09,5.6s-1.383,5.6-3.09,5.6c-1.703,0-3.086-2.506-3.086-5.6
							S43.667,28.807,45.37,28.807z"/>
					</g>
				</g>
			</g>
		</g>
		<g>
			<path fill="#FC97B2" d="M46.044,49.756c0,8.082-6.287,7.15-14.044,7.15c-7.756,0-14.043,0.932-14.043-7.15
				S24.244,37.619,32,37.619C39.757,37.619,46.044,41.674,46.044,49.756z"/>
			<g>
				<ellipse fill="#7A495A" cx="25.734" cy="48.037" rx="3.439" ry="6.26"/>
				<ellipse fill="#7A495A" cx="38.265" cy="48.037" rx="3.438" ry="6.26"/>
			</g>
		</g>
	</g>
</g>
</svg>
