<?xml version="1.0" encoding="utf-8"?>
<!-- Generator: Adobe Illustrator 15.0.0, SVG Export Plug-In . SVG Version: 6.00 Build 0)  -->
<!DOCTYPE svg PUBLIC "-//W3C//DTD SVG 1.1//EN" "http://www.w3.org/Graphics/SVG/1.1/DTD/svg11.dtd">
<svg version="1.1" id="Layer_1" xmlns="http://www.w3.org/2000/svg" xmlns:xlink="http://www.w3.org/1999/xlink" x="0px" y="0px"
	 width="64px" height="64px" viewBox="0 0 64 64" enable-background="new 0 0 64 64" xml:space="preserve">
<g>
	<path fill="#728389" d="M58.704,41.463c0-3.535,4.941-11.413,2.605-13.831c-2.539-2.629-8.291,8.54-11.213,8.54
		c-3.484,0-5.6-4.323-7.338-6.124c-1.385-1.436,2.559-6.965,0.816-7.377c-7.52-1.773-8.541,2.553-12.592,1.477
		c-3.186-0.846-6.51-1.336-9.748-1.336c-11.975,0-14.322,8.619-16.368,16.581C4.529,40.709,16.58,51.006,16.58,51.006
		s-9.228-5.201-8.961-4.018c1.475,6.561,7.733,10.816,14.687,12.408c2.023,0.465,4.107,0.715,6.15,0.715
		c12.816,0,14.799-9.865,21.707-11.078c4.162-0.73,8.748,7.377,11.146,4.893C63.813,51.334,58.704,45.551,58.704,41.463z"/>
	<path fill="#8D9BA3" d="M48.099,60.51c-1.158,1.197-3.611,2.666-6.219-0.035c-2.609-2.699-5.383-7.514-4.225-8.711
		c1.156-1.197,5.807,1.674,8.414,4.373C48.679,58.836,49.257,59.311,48.099,60.51z"/>
	<g>
		<ellipse fill="#8D9BA3" cx="33.417" cy="35.262" rx="2.225" ry="3.25"/>
		<path fill="#8D9BA3" d="M38.843,39.18c0,1.398-0.559,2.533-1.244,2.533c-0.688,0-1.246-1.135-1.246-2.533
			c0-1.402,0.559-2.537,1.246-2.537C38.284,36.643,38.843,37.777,38.843,39.18z"/>
		<ellipse fill="#8D9BA3" cx="39.881" cy="35.973" rx="0.622" ry="1.688"/>
	</g>
	<path fill="#8D9BA3" d="M21.235,22.8C9.26,22.8,6.914,31.419,4.868,39.381C4.529,40.697,16.58,50.994,16.58,50.994
		s-9.228-5.201-8.961-4.018c1.475,6.561,7.733,10.816,14.687,12.41C30.388,43.445,27.37,29.275,21.235,22.8z"/>
	<ellipse fill="#1DA2D6" cx="5.273" cy="43.998" rx="1.711" ry="1.771"/>
	<ellipse fill="#1DA2D6" cx="6.314" cy="23.408" rx="4.314" ry="4.467"/>
	<ellipse fill="#1DA2D6" cx="12.848" cy="10.267" rx="7.989" ry="8.271"/>
	<ellipse fill="#1DA2D6" cx="18" cy="16.462" rx="3.647" ry="3.777"/>
	<g>
		<ellipse fill="#FCFCFA" cx="18.737" cy="38.512" rx="7.125" ry="7.375"/>
		<ellipse fill="#29251C" cx="18.737" cy="38.512" rx="4.899" ry="5.07"/>
	</g>
</g>
</svg>
