<?xml version="1.0" encoding="utf-8"?>
<!-- Generator: Adobe Illustrator 15.0.0, SVG Export Plug-In . SVG Version: 6.00 Build 0)  -->
<!DOCTYPE svg PUBLIC "-//W3C//DTD SVG 1.1//EN" "http://www.w3.org/Graphics/SVG/1.1/DTD/svg11.dtd">
<svg version="1.1" id="Layer_1" xmlns="http://www.w3.org/2000/svg" xmlns:xlink="http://www.w3.org/1999/xlink" x="0px" y="0px"
	 width="64px" height="64px" viewBox="0 0 64 64" enable-background="new 0 0 64 64" xml:space="preserve">
<g>
	<g>
		<g>
			<g>
				<g>
					<g>
						<path fill="#AB7DCC" d="M22.376,39.988C19.011,39.293,1.442,29.697,2.389,20.525C3.32,11.508,10,9.143,10.648,20.082
							C11.112,27.916,25.741,40.684,22.376,39.988z"/>
					</g>
					<g>
						<g>
							<path fill="#FF94A4" d="M22.124,39.922c-3.166-3.25-12.562-10.674-13.683-16.451c-1.111-5.73-3.422-7.475-5.297-6.482
								c-0.351,1.02-0.617,2.203-0.755,3.535C1.463,29.492,18.233,38.861,22.124,39.922z"/>
							<path fill="#CC4A5D" d="M6.964,22.213c0.143,0.828-0.662,1.668-1.797,1.873c-1.135,0.207-2.172-0.295-2.315-1.125
								c-0.144-0.826,0.661-1.666,1.797-1.873C5.784,20.881,6.82,21.385,6.964,22.213z"/>
							<path fill="#CC4A5D" d="M9.049,27.004c0.152,0.639-0.51,1.354-1.48,1.598c-0.97,0.244-1.88-0.076-2.033-0.715
								c-0.153-0.639,0.51-1.352,1.48-1.598C7.986,26.047,8.896,26.365,9.049,27.004z"/>
							<path fill="#CC4A5D" d="M11.417,30.455c0.228,0.398-0.096,1.025-0.724,1.406c-0.628,0.377-1.321,0.363-1.549-0.035
								s0.096-1.025,0.724-1.404S11.189,30.057,11.417,30.455z"/>
							<path fill="#CC4A5D" d="M14.696,33.584c0.182,0.318-0.077,0.816-0.577,1.119c-0.5,0.303-1.054,0.291-1.235-0.027
								c-0.182-0.316,0.076-0.816,0.577-1.119C13.961,33.256,14.514,33.266,14.696,33.584z"/>
						</g>
					</g>
				</g>
				<g>
					<g>
						<path fill="#AB7DCC" d="M27.376,41.367c-2.343,2.572-15.161,8.035-22.278,2.396c-6.997-5.545-1.226-11.857,8.196-6.684
							C20.04,40.783,29.717,38.793,27.376,41.367z"/>
					</g>
					<g>
						<path fill="#FF94A4" d="M5.097,43.764c7.118,5.639,19.937,0.176,22.278-2.396c0.091-0.102,0.157-0.191,0.213-0.277
							c-0.875-1.135-8.546,1.105-14.728-1.113c-5.063-1.816-8.78-0.92-10.249,0.977C3.108,41.873,3.917,42.828,5.097,43.764z"/>
						<g>
							<path fill="#CC4A5D" d="M7.496,40.287c-0.731-0.322-1.853,0.674-2.505,2.223c-0.13,0.309-0.223,0.611-0.296,0.908
								c0.134,0.115,0.257,0.232,0.402,0.348c0.576,0.457,1.193,0.832,1.835,1.152c0.262-0.35,0.507-0.762,0.706-1.236
								C8.291,42.133,8.228,40.611,7.496,40.287z"/>
							<path fill="#CC4A5D" d="M11.981,41.469c-0.83-0.129-1.706,1.176-1.957,2.908c-0.081,0.559-0.08,1.088-0.024,1.563
								c0.867,0.168,1.757,0.256,2.656,0.279c0.165-0.41,0.297-0.877,0.371-1.383C13.279,43.1,12.811,41.594,11.981,41.469z"/>
							<path fill="#CC4A5D" d="M18.355,45.029c-0.087-1.396-0.754-2.49-1.49-2.443c-0.735,0.047-1.261,1.221-1.174,2.617
								c0.019,0.295,0.067,0.572,0.133,0.834c0.858-0.115,1.707-0.273,2.533-0.469C18.367,45.393,18.367,45.213,18.355,45.029z"/>
							<path fill="#CC4A5D" d="M21.049,42.379c-0.572,0.164-0.803,1.156-0.516,2.215c0.031,0.113,0.07,0.223,0.11,0.33
								c0.7-0.23,1.373-0.48,2.003-0.742c-0.014-0.061-0.021-0.121-0.039-0.182C22.32,42.941,21.623,42.215,21.049,42.379z"/>
						</g>
					</g>
				</g>
				<g>
					<g>
						<path fill="#AB7DCC" d="M30.137,41.596c0.971,3.764-5.998,15.641-14.954,16.5c-8.803,0.842-9.458-8.307,0.873-11.119
							C23.452,44.965,29.258,38.193,30.137,41.596z"/>
					</g>
					<g>
						<path fill="#FF94A4" d="M15.185,58.096c8.453-0.811,15.132-11.434,15.04-15.789c-1.866-1.205-5.902,5.689-12.091,9.02
							c-3.638,1.959-5.485,4.459-5.91,6.637C13.074,58.146,14.063,58.203,15.185,58.096z"/>
						<g>
							<path fill="#CC4A5D" d="M17.349,54.383c-1.111,0.273-1.741,1.656-1.406,3.086c0.041,0.174,0.094,0.338,0.157,0.496
								c1.353-0.246,2.653-0.734,3.881-1.398c-0.006-0.029-0.007-0.057-0.014-0.086C19.633,55.049,18.461,54.109,17.349,54.383z"/>
							<path fill="#CC4A5D" d="M22.588,50.795c-0.925,0.473-1.155,1.924-0.516,3.242c0.145,0.299,0.324,0.559,0.521,0.785
								c0.994-0.795,1.916-1.689,2.75-2.633C24.684,50.965,23.48,50.34,22.588,50.795z"/>
							<path fill="#CC4A5D" d="M26.645,46.98c-0.585,0.451-0.603,1.439-0.041,2.209c0.18,0.248,0.399,0.436,0.631,0.57
								c0.528-0.773,0.994-1.547,1.393-2.307C28.059,46.775,27.199,46.555,26.645,46.98z"/>
						</g>
					</g>
				</g>
			</g>
			<g>
				<g>
					<g>
						<path fill="#AB7DCC" d="M53.353,20.082c0.648-10.939,7.328-8.574,8.26,0.443c0.947,9.172-16.622,18.768-19.987,19.463
							C38.261,40.684,52.89,27.916,53.353,20.082z"/>
					</g>
					<g>
						<g>
							<path fill="#FF94A4" d="M41.878,39.922c3.166-3.25,12.563-10.674,13.683-16.451c1.111-5.73,3.422-7.475,5.298-6.482
								c0.351,1.02,0.616,2.203,0.754,3.535C62.538,29.492,45.769,38.861,41.878,39.922z"/>
							<path fill="#CC4A5D" d="M57.038,22.213c-0.144,0.828,0.661,1.668,1.797,1.873c1.135,0.207,2.172-0.295,2.314-1.125
								c0.145-0.826-0.66-1.666-1.797-1.873C58.218,20.881,57.181,21.385,57.038,22.213z"/>
							<path fill="#CC4A5D" d="M54.952,27.004c-0.152,0.639,0.51,1.354,1.48,1.598c0.97,0.244,1.881-0.076,2.033-0.715
								s-0.511-1.352-1.48-1.598C56.016,26.047,55.104,26.365,54.952,27.004z"/>
							<path fill="#CC4A5D" d="M52.584,30.455c-0.228,0.398,0.096,1.025,0.724,1.406c0.629,0.377,1.322,0.363,1.55-0.035
								s-0.096-1.025-0.724-1.404S52.813,30.057,52.584,30.455z"/>
							<path fill="#CC4A5D" d="M49.306,33.584c-0.182,0.318,0.076,0.816,0.576,1.119c0.501,0.303,1.055,0.291,1.236-0.027
								c0.182-0.316-0.076-0.816-0.578-1.119C50.04,33.256,49.487,33.266,49.306,33.584z"/>
						</g>
					</g>
				</g>
				<g>
					<g>
						<path fill="#AB7DCC" d="M50.708,37.08c9.422-5.174,15.191,1.139,8.195,6.684c-7.117,5.639-19.936,0.176-22.278-2.396
							C34.284,38.793,43.962,40.783,50.708,37.08z"/>
					</g>
					<g>
						<path fill="#FF94A4" d="M58.904,43.764c-7.118,5.639-19.937,0.176-22.278-2.396c-0.091-0.102-0.157-0.191-0.213-0.277
							c0.875-1.135,8.545,1.105,14.729-1.113c5.063-1.816,8.779-0.92,10.248,0.977C60.894,41.873,60.084,42.828,58.904,43.764z"/>
						<g>
							<path fill="#CC4A5D" d="M56.505,40.287c0.731-0.322,1.854,0.674,2.506,2.223c0.129,0.309,0.223,0.611,0.296,0.908
								c-0.134,0.115-0.257,0.232-0.402,0.348c-0.576,0.457-1.192,0.832-1.835,1.152c-0.262-0.35-0.508-0.762-0.707-1.236
								C55.71,42.133,55.774,40.611,56.505,40.287z"/>
							<path fill="#CC4A5D" d="M52.021,41.469c0.829-0.129,1.705,1.176,1.957,2.908c0.08,0.559,0.08,1.088,0.023,1.563
								c-0.867,0.168-1.758,0.256-2.656,0.279c-0.164-0.41-0.297-0.877-0.371-1.383C50.722,43.1,51.19,41.594,52.021,41.469z"/>
							<path fill="#CC4A5D" d="M45.646,45.029c0.088-1.396,0.754-2.49,1.49-2.443c0.735,0.047,1.261,1.221,1.174,2.617
								c-0.019,0.295-0.067,0.572-0.133,0.834c-0.859-0.115-1.707-0.273-2.533-0.469C45.635,45.393,45.634,45.213,45.646,45.029z"/>
							<path fill="#CC4A5D" d="M42.952,42.379c0.572,0.164,0.803,1.156,0.516,2.215c-0.031,0.113-0.07,0.223-0.11,0.33
								c-0.7-0.23-1.373-0.48-2.003-0.742c0.014-0.061,0.021-0.121,0.039-0.182C41.682,42.941,42.379,42.215,42.952,42.379z"/>
						</g>
					</g>
				</g>
				<g>
					<g>
						<path fill="#AB7DCC" d="M47.946,46.977c10.33,2.813,9.676,11.961,0.872,11.119c-8.956-0.859-15.925-12.736-14.954-16.5
							C34.743,38.193,40.55,44.965,47.946,46.977z"/>
					</g>
					<g>
						<path fill="#FF94A4" d="M48.817,58.096c-8.453-0.811-15.133-11.434-15.04-15.789c1.866-1.205,5.902,5.689,12.091,9.02
							c3.639,1.959,5.486,4.459,5.91,6.637C50.927,58.146,49.938,58.203,48.817,58.096z"/>
						<g>
							<path fill="#CC4A5D" d="M46.652,54.383c1.111,0.273,1.741,1.656,1.406,3.086c-0.04,0.174-0.094,0.338-0.157,0.496
								c-1.354-0.246-2.652-0.734-3.881-1.398c0.006-0.029,0.007-0.057,0.014-0.086C44.368,55.049,45.54,54.109,46.652,54.383z"/>
							<path fill="#CC4A5D" d="M41.413,50.795c0.925,0.473,1.155,1.924,0.516,3.242c-0.145,0.299-0.324,0.559-0.521,0.785
								c-0.994-0.795-1.916-1.689-2.75-2.633C39.317,50.965,40.521,50.34,41.413,50.795z"/>
							<path fill="#CC4A5D" d="M37.356,46.98c0.585,0.451,0.603,1.439,0.041,2.209c-0.18,0.248-0.399,0.436-0.631,0.57
								c-0.528-0.773-0.994-1.547-1.393-2.307C35.942,46.775,36.803,46.555,37.356,46.98z"/>
						</g>
					</g>
				</g>
			</g>
		</g>
		<g>
			<g>
				<path fill="#FF94A4" d="M32,39.328c3.006,0,5.444,10.131,5.444,14.592c0,4.463-2.438,8.08-5.444,8.08
					c-3.008,0-5.443-3.617-5.443-8.08C26.557,49.459,28.993,39.328,32,39.328z"/>
			</g>
			<g>
				<path fill="#AB7DCC" d="M32,38.102c2.862,0,5.183,9.645,5.183,13.891c0,4.248-2.321,7.691-5.183,7.691
					c-2.862,0-5.183-3.443-5.183-7.691C26.818,47.746,29.138,38.102,32,38.102z"/>
			</g>
		</g>
	</g>
	<path fill="#AB7DCC" d="M15.636,20.695C15.636,12.152,20.182,2,32,2c11.819,0,16.366,10.152,16.366,18.695
		c0,15.992-6.851,22.691-16.366,22.691C22.486,43.387,15.636,36.688,15.636,20.695z"/>
	<g>
		<g>
			<circle fill="#FFFFFF" cx="24.915" cy="21.439" r="6.228"/>
			<circle fill="#3E4347" cx="24.915" cy="21.439" r="4.004"/>
		</g>
		<g>
			<circle fill="#FFFFFF" cx="40.297" cy="21.439" r="6.228"/>
			<circle fill="#3E4347" cx="40.298" cy="21.439" r="4.004"/>
		</g>
	</g>
	<g>
		<g>
			<path fill="#79569E" d="M39.087,31.213c-0.594-0.248-1.26-0.518-1.871-0.91c-0.617-0.385-1.154-0.889-1.575-1.438
				c-0.843-1.107-1.301-2.346-1.663-3.576c0.66,1.096,1.429,2.148,2.375,2.875c0.473,0.361,0.979,0.625,1.516,0.789
				c0.536,0.168,1.107,0.244,1.744,0.33L39.087,31.213z"/>
			<path fill="#79569E" d="M32.281,36.611c-0.085-0.635-0.16-1.207-0.329-1.742c-0.163-0.537-0.428-1.043-0.789-1.516
				c-0.726-0.945-1.779-1.715-2.876-2.373c1.231,0.361,2.47,0.818,3.578,1.66c0.549,0.422,1.053,0.959,1.438,1.576
				c0.392,0.611,0.661,1.277,0.908,1.871L32.281,36.611z"/>
		</g>
		<g>
			<path fill="#79569E" d="M34.13,31.047c3.729-3.654,9.237-4.098,11.561-1.727c2.324,2.369,1.184,7.254-2.544,10.908
				c-3.729,3.656-8.638,4.699-10.962,2.328C29.86,40.188,30.399,34.703,34.13,31.047z"/>
			
				<ellipse transform="matrix(-0.7002 -0.7139 0.7139 -0.7002 40.9696 89.9419)" fill="#FF94A4" cx="39.369" cy="36.369" rx="6.01" ry="9.456"/>
			
				<ellipse transform="matrix(-0.7001 -0.7141 0.7141 -0.7001 41.7272 91.8212)" fill="#CC4A5D" cx="40.147" cy="37.147" rx="3.874" ry="6.674"/>
			<path fill="#3E4347" d="M37.42,34.391c1.782-1.746,3.913-2.463,4.759-1.602s0.086,2.977-1.697,4.723
				c-1.782,1.75-3.914,2.467-4.758,1.605C34.878,38.254,35.638,36.139,37.42,34.391z"/>
		</g>
	</g>
</g>
</svg>
