<?xml version="1.0" encoding="utf-8"?>
<!-- Generator: Adobe Illustrator 15.0.0, SVG Export Plug-In . SVG Version: 6.00 Build 0)  -->
<!DOCTYPE svg PUBLIC "-//W3C//DTD SVG 1.1//EN" "http://www.w3.org/Graphics/SVG/1.1/DTD/svg11.dtd">
<svg version="1.1" id="Layer_1" xmlns="http://www.w3.org/2000/svg" xmlns:xlink="http://www.w3.org/1999/xlink" x="0px" y="0px"
	 width="64px" height="64px" viewBox="0 0 64 64" enable-background="new 0 0 64 64" xml:space="preserve">
<g>
	<g>
		<g>
			<path fill="#89664C" d="M34.951,45.664c-0.605-0.198-1.03-0.775-1.002-1.438c0.035-0.801,0.714-1.422,1.521-1.389
				c4.571,0.191,5.111,0.355,7.614,1.311c0.975,0.372,2.311,0.883,4.463,1.587c4.651,1.52,8.988,0.23,10.709-1.755
				c0.924-1.068,1.072-2.24,0.441-3.485c-0.498-0.979-1.174-1.596-1.965-1.814c-0.652-0.182-1.395-0.1-2.039,0.225
				c-0.612,0.306-1.145,0.876-0.963,1.235c0.365,0.716,0.076,1.586-0.645,1.948c-0.719,0.36-1.597,0.073-1.96-0.642
				c-0.926-1.818,0.044-4.023,2.251-5.129c1.289-0.648,2.8-0.803,4.144-0.429c1.104,0.304,2.684,1.138,3.782,3.299
				c1.164,2.291,0.86,4.727-0.834,6.683c-2.793,3.225-8.611,4.325-13.834,2.618c-2.222-0.725-3.596-1.252-4.599-1.635
				c-2.181-0.832-2.464-0.939-6.688-1.117C35.209,45.73,35.077,45.704,34.951,45.664z"/>
		</g>
	</g>
	<g>
		<g>
			<g>
				<path fill="#89664C" d="M26.352,45.668c-2.715,0-15.818-4.204-21.559-13.558c-2.612-4.255-4.72-11.305,0.067-20.725
					c0.726-1.427,2.471-1.998,3.9-1.272c1.428,0.726,1.998,2.472,1.272,3.899c-2.793,5.496-2.992,10.25-0.605,14.534
					c4.204,7.548,15.098,11.162,17.001,11.322c1.604,0,2.863,1.299,2.863,2.899C29.292,44.371,27.955,45.668,26.352,45.668z"/>
			</g>
			<g>
				<path fill="#E0AC7E" d="M11.837,8.34c0,0-0.144-3.39-2.022-4.862C8.887,2.751,6.404,2.764,5.24,4.143
					c-1.284,1.52-1.815,7.501-0.472,9.499c1.938,2.881,5.354,3.214,9.403-3.325C16.202,7.042,12.576,9.35,11.837,8.34z"/>
			</g>
		</g>
		<g>
			<g>
				<path fill="#89664C" d="M31.098,45.668c-1.602,0-2.9-1.298-2.9-2.9c0-1.583,1.268-2.869,2.844-2.899
					C33,39.684,43.835,36.067,48.025,28.545c2.385-4.284,2.187-9.037-0.606-14.532c-0.726-1.428-0.156-3.173,1.272-3.899
					c1.43-0.728,3.174-0.157,3.899,1.271c4.788,9.419,2.68,16.468,0.068,20.723C46.918,41.464,33.813,45.668,31.098,45.668z"/>
			</g>
			<g>
				<path fill="#E0AC7E" d="M45.615,8.34c0,0,0.142-3.39,2.022-4.862c0.925-0.727,3.409-0.713,4.573,0.665
					c1.285,1.52,1.814,7.501,0.472,9.499c-1.937,2.881-5.354,3.214-9.403-3.325C41.248,7.042,44.877,9.35,45.615,8.34z"/>
			</g>
		</g>
	</g>
	<g>
		<g>
			<path fill="#89664C" d="M22.458,57.489c-0.609,0-1.223-0.19-1.746-0.586c-7.664-5.792-11.376-9.578-9.046-12.991
				c3.328-4.878,17.485,1.893,17.619,1.975c1.365,0.837,1.793,2.623,0.955,3.988c-0.832,1.357-2.605,1.787-3.969,0.968
				c-0.918-0.506-3.983-1.58-6.667-2.283c1.081,0.955,2.566,2.174,4.606,3.716c1.277,0.966,1.53,2.784,0.564,4.063
				C24.204,57.092,23.336,57.489,22.458,57.489z"/>
		</g>
		<g>
			<path fill="#89664C" d="M34.993,57.489c-0.878,0-1.745-0.396-2.315-1.151c-0.967-1.278-0.714-3.097,0.564-4.063
				c2.039-1.541,3.525-2.761,4.605-3.717c-2.691,0.706-5.767,1.784-6.675,2.288c-1.366,0.838-3.139,0.401-3.976-0.963
				c-0.837-1.366-0.396-3.16,0.97-3.997c0.134-0.082,14.292-6.851,17.619-1.975c2.33,3.413-1.381,7.199-9.045,12.991
				C36.217,57.299,35.603,57.489,34.993,57.489z"/>
		</g>
	</g>
	<g>
		<ellipse fill="#89664C" cx="28.726" cy="44.403" rx="7.454" ry="7.402"/>
	</g>
	<g>
		<ellipse fill="#E0AC7E" cx="28.726" cy="43.919" rx="6.811" ry="6.767"/>
	</g>
	<g>
		<g>
			<ellipse fill="#89664C" cx="42.208" cy="23.244" rx="5.115" ry="7.115"/>
		</g>
		<g>
			<ellipse fill="#E0AC7E" cx="42.208" cy="23.85" rx="3.331" ry="4.633"/>
		</g>
		<g>
			<ellipse fill="#89664C" cx="15.244" cy="23.244" rx="5.114" ry="7.115"/>
		</g>
		<g>
			<ellipse fill="#E0AC7E" cx="15.243" cy="23.85" rx="3.33" ry="4.633"/>
		</g>
		<g>
			<path fill="#89664C" d="M37.158,12.035c0.814-0.414,1.342-0.622,1.342-0.622c-2.303-0.781-4.299-1.236-6.027-1.444
				c0.91-0.661,1.517-0.914,1.517-0.914c-4.498-0.252-7.995,0.457-10.676,1.54c-2.937,1.021-5.436,2.881-7.16,5.409
				c-0.361,0.508-0.525,0.829-0.525,0.829l0.003,0.003c-1.286,2.199-2.022,4.835-2.022,7.815c0,9.041,6.767,16.371,15.116,16.371
				c8.346,0,15.115-7.33,15.115-16.371C43.841,18.992,41.189,14.559,37.158,12.035z"/>
		</g>
		<g>
			<path fill="#E0AC7E" d="M42.764,26.512c0-3.802-3.342-6.886-7.466-6.886c-2.842,0-5.312,1.465-6.572,3.617
				c-1.263-2.152-3.733-3.617-6.573-3.617c-4.123,0-7.466,3.083-7.466,6.886c0,3.462,2.774,6.322,6.384,6.805
				c-0.059,0.843,0.039,1.9,0.472,3.196c0,0,0.089-0.391,0.296-0.89c1.124,2.485,3.781,4.24,6.888,4.24
				c3.104,0,5.762-1.755,6.886-4.24c0.207,0.499,0.294,0.89,0.294,0.89c0.434-1.296,0.531-2.354,0.472-3.196
				C39.989,32.834,42.764,29.975,42.764,26.512z"/>
		</g>
		<g>
			<g>
				<ellipse fill="#89664C" cx="30.055" cy="30.273" rx="0.447" ry="0.85"/>
			</g>
			<g>
				<ellipse fill="#89664C" cx="27.395" cy="30.273" rx="0.445" ry="0.85"/>
			</g>
		</g>
		<g>
			<g>
				<ellipse fill="#3E4347" cx="20.759" cy="26.535" rx="2.614" ry="2.239"/>
			</g>
		</g>
		<g>
			<g>
				<ellipse fill="#3E4347" cx="36.689" cy="26.535" rx="2.615" ry="2.239"/>
			</g>
		</g>
		<g>
			<path fill="#89664C" d="M25.644,29.875c0.216-0.606,0.748-1.029,1.269-1.354c0.537-0.325,1.142-0.542,1.771-0.617
				c0.629-0.068,1.298,0.02,1.867,0.332c0.575,0.304,1.008,0.821,1.256,1.389c-0.416-0.455-0.897-0.809-1.421-1.012
				c-0.522-0.199-1.088-0.252-1.646-0.185c-0.56,0.059-1.114,0.229-1.646,0.459c-0.268,0.119-0.526,0.251-0.775,0.409
				C26.065,29.45,25.827,29.625,25.644,29.875z"/>
		</g>
		<g>
			<g>
				<path fill="#3E4347" d="M35.316,31.811c0,2.661-2.949,4.935-6.59,4.935s-6.593-2.273-6.593-4.935c0,0,3.139,0.781,6.593,0.781
					C32.178,32.592,35.316,31.811,35.316,31.811z"/>
			</g>
			<g>
				<path fill="#FFFFFF" d="M34.265,32.62c0,1.09-2.303,1.744-5.539,1.744c-3.237,0-5.539-0.654-5.539-1.744
					c0,0,2.47,0.523,5.539,0.523S34.265,32.62,34.265,32.62z"/>
			</g>
			<g>
				<path fill="#FF717F" d="M31.068,35.556c0,0.568-1.046,0.503-2.342,0.503s-2.344,0.065-2.344-0.503
					c0-0.566,1.048-0.852,2.344-0.852S31.068,34.989,31.068,35.556z"/>
			</g>
		</g>
	</g>
	<g>
		<g>
			<g>
				<path fill="#E0AC7E" d="M25.608,54.064c-0.882-1.424-3.782-1.238-6.478,0.413c-2.695,1.65-4.162,4.143-3.278,5.566
					c0.884,1.422,3.785,1.236,6.478-0.414C25.027,57.979,26.495,55.485,25.608,54.064z"/>
			</g>
			<g>
				<path fill="#E0AC7E" d="M25.743,54.061c-0.658-1.539-3.745-1.711-6.896-0.383c-3.152,1.326-5.174,3.653-4.517,5.191
					c0.657,1.539,3.745,1.711,6.897,0.381C24.377,57.924,26.399,55.599,25.743,54.061z"/>
			</g>
		</g>
		<g>
			<g>
				<path fill="#E0AC7E" d="M31.842,54.064c0.882-1.424,3.785-1.238,6.477,0.413c2.696,1.65,4.163,4.143,3.28,5.566
					c-0.885,1.422-3.785,1.236-6.48-0.414C32.424,57.979,30.957,55.485,31.842,54.064z"/>
			</g>
			<g>
				<path fill="#E0AC7E" d="M31.708,54.061c0.657-1.539,3.745-1.711,6.895-0.383c3.152,1.326,5.175,3.653,4.517,5.191
					c-0.658,1.539-3.744,1.711-6.896,0.381C33.073,57.924,31.051,55.599,31.708,54.061z"/>
			</g>
		</g>
	</g>
</g>
</svg>
