<?xml version="1.0" encoding="utf-8"?>
<!-- Generator: Adobe Illustrator 15.0.0, SVG Export Plug-In . SVG Version: 6.00 Build 0)  -->
<!DOCTYPE svg PUBLIC "-//W3C//DTD SVG 1.1//EN" "http://www.w3.org/Graphics/SVG/1.1/DTD/svg11.dtd">
<svg version="1.1" id="Layer_1" xmlns="http://www.w3.org/2000/svg" xmlns:xlink="http://www.w3.org/1999/xlink" x="0px" y="0px"
	 width="64px" height="64px" viewBox="0 0 64 64" enable-background="new 0 0 64 64" xml:space="preserve">
<g>
	<path fill="#EBF4FC" d="M59.985,40.794c0,14.912-12.536,22-28,22c-15.465,0-28-7.088-28-22s12.535-32,28-32
		C47.449,8.794,59.985,25.882,59.985,40.794z"/>
	<path fill="#C94343" d="M37.24,3.544c-3.784-1.306-4.865,3.018-5.59,8.971c-0.448,3.697-2.503,7.469-2.503,7.469
		s5.42-1.18,8.961-4.603C41.536,12.065,43.156,5.589,37.24,3.544z"/>
	<g>
		<g>
			<path fill="#E24B4B" d="M34.315,55.498c0.462,4.911-2.458,6.493-5.489,6.493c-3.032,0-6.644-3.646-4.763-8.255
				c2.398-5.882,6.943-9.6,6.943-9.6S33.806,50.089,34.315,55.498z"/>
			<path fill="#E24B4B" d="M29.655,53.548c-0.461,4.911,2.458,6.491,5.491,6.491c3.032,0,6.642-3.644,4.761-8.254
				c-2.398-5.881-6.942-9.599-6.942-9.599S30.164,48.138,29.655,53.548z"/>
		</g>
		<g>
			<path fill="#E08828" d="M23.497,43.642h16.976c0,4.36-3.798,7.895-8.487,7.895C27.297,51.536,23.497,48.002,23.497,43.642z"/>
			<path fill="#F29A2E" d="M42.546,44.193l-10.56,2.091l-10.563-2.091c0-5.425,4.729-9.823,10.563-9.823
				C37.817,34.37,42.546,38.769,42.546,44.193z"/>
			<g>
				<path fill="#3E4347" d="M35.68,36.472c0.6,0.559,0.839,1.24,0.534,1.523c-0.305,0.284-1.038,0.061-1.638-0.497
					s-0.84-1.24-0.535-1.523C34.345,35.69,35.079,35.913,35.68,36.472z"/>
				<path fill="#3E4347" d="M28.292,36.472c-0.6,0.559-0.84,1.24-0.534,1.523c0.305,0.284,1.039,0.061,1.638-0.497
					c0.6-0.558,0.84-1.24,0.535-1.523C29.626,35.69,28.891,35.913,28.292,36.472z"/>
			</g>
		</g>
	</g>
	<g>
		<g>
			<ellipse fill="#3E4347" cx="17.853" cy="32.949" rx="3.6" ry="6"/>
		</g>
	</g>
	<g>
		<g>
			<ellipse fill="#3E4347" cx="46.119" cy="32.724" rx="3.6" ry="6"/>
		</g>
	</g>
	<path fill="#E24B4B" d="M30.554,1.078c-4.434,0.33-4.043,5.355-2.703,11.931c0.834,4.083,0.008,8.966,0.008,8.966
		s5.274-3.672,7.784-8.859C38.072,8.095,37.488,0.567,30.554,1.078z"/>
</g>
</svg>
