<?xml version="1.0" encoding="utf-8"?>
<!-- Generator: Adobe Illustrator 15.0.0, SVG Export Plug-In . SVG Version: 6.00 Build 0)  -->
<!DOCTYPE svg PUBLIC "-//W3C//DTD SVG 1.1//EN" "http://www.w3.org/Graphics/SVG/1.1/DTD/svg11.dtd">
<svg version="1.1" id="Layer_1" xmlns="http://www.w3.org/2000/svg" xmlns:xlink="http://www.w3.org/1999/xlink" x="0px" y="0px"
	 width="64px" height="64px" viewBox="0 0 64 64" enable-background="new 0 0 64 64" xml:space="preserve">
<g>
	<path fill="#6B3838" d="M6.598,50.385C11.908,53.584,21.3,55.709,32,55.709s20.092-2.125,25.402-5.324H6.598z"/>
	<g>
		<g>
			<g>
				<path fill="#3E4347" d="M8.112,48.484c-0.321,0.266-0.621,0.572-0.902,0.889c-0.654,0.742-1.229,1.586-1.728,2.473
					c-0.714,1.271-1.257,2.68-1.628,4.127c-0.421,1.648-0.612,3.379-0.613,5.094c-0.002,0.508,0.37,0.932,0.813,0.932
					c0.444,0,0.814-0.424,0.814-0.932c0-0.809,0.044-1.613,0.137-2.412c-0.009,0.084-0.019,0.166-0.028,0.252
					c0.164-1.41,0.483-2.797,0.965-4.105c-0.027,0.074-0.055,0.148-0.083,0.223c0.426-1.15,0.976-2.242,1.642-3.234
					c-0.042,0.063-0.086,0.127-0.129,0.189c0.422-0.621,0.885-1.211,1.404-1.727c0.084-0.084,0.171-0.168,0.261-0.246
					c-0.056,0.047-0.11,0.096-0.165,0.146c0.021-0.02,0.041-0.037,0.063-0.055c0.179-0.146,0.313-0.309,0.374-0.557
					c0.058-0.24,0.027-0.504-0.083-0.719c-0.105-0.211-0.282-0.367-0.485-0.43C8.546,48.332,8.283,48.348,8.112,48.484L8.112,48.484
					z"/>
			</g>
			<g>
				<path fill="#3E4347" d="M11.437,49.42c-0.337,0.285-0.644,0.613-0.931,0.969c-0.668,0.82-1.246,1.75-1.715,2.734
					c-0.683,1.43-1.16,2.99-1.419,4.59c-0.18,1.104-0.271,2.23-0.271,3.352c0,0.512,0.37,0.936,0.814,0.936
					c0.443,0,0.813-0.424,0.813-0.936c0.002-0.781,0.044-1.563,0.134-2.338c-0.009,0.084-0.018,0.166-0.027,0.248
					c0.157-1.328,0.457-2.635,0.912-3.873c-0.027,0.074-0.055,0.15-0.082,0.225c0.393-1.063,0.896-2.07,1.511-2.984
					c-0.042,0.064-0.084,0.125-0.126,0.191c0.367-0.549,0.774-1.068,1.232-1.518c0.043-0.041,0.085-0.084,0.129-0.121
					c-0.054,0.047-0.109,0.096-0.164,0.145c0.004-0.004,0.008-0.006,0.012-0.012c0.055-0.047,0.109-0.096,0.165-0.145
					c0.101-0.115,0.17-0.252,0.208-0.41c0.059-0.242,0.028-0.504-0.082-0.721c-0.106-0.207-0.282-0.361-0.485-0.428
					C11.874,49.266,11.604,49.275,11.437,49.42L11.437,49.42z"/>
			</g>
			<g>
				<path fill="#3E4347" d="M14.382,50.307c-0.289,0.27-0.54,0.607-0.774,0.938c-0.666,0.939-1.214,1.963-1.631,3.072
					c-0.295,0.789-0.544,1.59-0.727,2.422c-0.213,0.975-0.341,1.975-0.406,2.975c-0.029,0.451-0.043,0.902-0.043,1.352
					c0,0.512,0.371,0.936,0.814,0.936s0.813-0.424,0.813-0.936c0.001-0.783,0.043-1.568,0.134-2.35
					c-0.011,0.084-0.021,0.166-0.029,0.25c0.154-1.314,0.446-2.605,0.896-3.828c-0.028,0.072-0.057,0.148-0.082,0.223
					c0.363-0.99,0.827-1.934,1.4-2.785c-0.043,0.063-0.085,0.129-0.127,0.191c0.271-0.4,0.563-0.801,0.903-1.129
					c0.004-0.006,0.006-0.01,0.01-0.012c0.158-0.148,0.238-0.434,0.238-0.658c0-0.246-0.086-0.486-0.238-0.66
					s-0.361-0.275-0.576-0.275C14.725,50.031,14.556,50.143,14.382,50.307L14.382,50.307z"/>
			</g>
		</g>
		<g>
			<g>
				<path fill="#3E4347" d="M55.065,50.1c0.021,0.016,0.042,0.033,0.063,0.055c-0.055-0.049-0.109-0.1-0.165-0.146
					c0.389,0.342,0.742,0.744,1.071,1.158c0.206,0.264,0.405,0.535,0.594,0.816c-0.043-0.066-0.087-0.129-0.129-0.191
					c0.667,0.992,1.216,2.082,1.642,3.234c-0.028-0.074-0.055-0.15-0.083-0.223c0.481,1.309,0.801,2.695,0.965,4.104
					c-0.01-0.086-0.019-0.168-0.027-0.252c0.092,0.803,0.136,1.605,0.136,2.412c0,0.51,0.37,0.932,0.815,0.932
					c0.442,0,0.814-0.422,0.813-0.932c-0.001-1.908-0.239-3.84-0.767-5.652c-0.402-1.387-0.961-2.723-1.684-3.926
					c-0.488-0.82-1.043-1.6-1.672-2.281c-0.235-0.258-0.484-0.504-0.749-0.721c-0.171-0.139-0.434-0.154-0.628-0.092
					c-0.203,0.063-0.379,0.219-0.485,0.43c-0.11,0.213-0.141,0.477-0.083,0.717C54.752,49.791,54.887,49.953,55.065,50.1
					L55.065,50.1z"/>
			</g>
			<g>
				<path fill="#3E4347" d="M51.709,51.031c0.004,0.002,0.008,0.004,0.012,0.01c-0.056-0.051-0.11-0.098-0.165-0.146
					c0.336,0.297,0.637,0.656,0.917,1.02c0.155,0.201,0.304,0.406,0.446,0.619c-0.043-0.064-0.085-0.125-0.127-0.188
					c0.614,0.912,1.117,1.92,1.511,2.98c-0.028-0.074-0.055-0.146-0.082-0.223c0.455,1.238,0.754,2.543,0.912,3.873
					c-0.01-0.084-0.02-0.166-0.029-0.248c0.092,0.777,0.134,1.555,0.135,2.34c0.001,0.51,0.37,0.932,0.813,0.932
					s0.814-0.422,0.814-0.932c-0.002-1.902-0.246-3.828-0.796-5.627c-0.403-1.322-0.953-2.592-1.669-3.727
					c-0.434-0.688-0.911-1.35-1.465-1.918c-0.131-0.133-0.267-0.258-0.405-0.377c-0.166-0.143-0.438-0.154-0.628-0.094
					c-0.203,0.064-0.379,0.219-0.486,0.426c-0.109,0.217-0.14,0.479-0.082,0.721c0.026,0.074,0.055,0.15,0.082,0.223
					C51.489,50.836,51.587,50.945,51.709,51.031L51.709,51.031z"/>
			</g>
			<g>
				<path fill="#3E4347" d="M48.467,51.576c0.289,0.271,0.541,0.607,0.775,0.939c0.047,0.064,0.094,0.133,0.139,0.199
					c-0.043-0.063-0.085-0.127-0.128-0.189c0.573,0.852,1.037,1.795,1.4,2.781c-0.025-0.072-0.054-0.148-0.081-0.223
					c0.448,1.225,0.74,2.516,0.895,3.83c-0.009-0.08-0.019-0.164-0.028-0.248c0.09,0.777,0.132,1.564,0.133,2.352
					c0.001,0.51,0.37,0.932,0.813,0.932s0.814-0.422,0.814-0.932c-0.002-1.914-0.243-3.85-0.797-5.658
					c-0.385-1.252-0.902-2.459-1.584-3.531c-0.346-0.541-0.717-1.084-1.157-1.527c-0.015-0.018-0.028-0.031-0.043-0.045
					c-0.174-0.162-0.343-0.273-0.575-0.273c-0.215,0-0.424,0.1-0.576,0.273c-0.152,0.176-0.238,0.414-0.238,0.66
					C48.229,51.141,48.309,51.428,48.467,51.576L48.467,51.576z"/>
			</g>
		</g>
	</g>
	<g>
		<g>
			<path fill="#ED4C5C" d="M52.438,34.846c0-2.631,0.906-5.023,2.381-6.781c-1.42-1.904-3.017-3.631-4.762-5.141
				c-1.123,1.059-2.562,1.695-4.131,1.695c-3.595,0-6.51-3.34-6.51-7.463c0-0.033,0-0.066,0-0.098C37.046,16.367,34.561,16,32,16
				c-2.693,0-5.303,0.406-7.786,1.168c0.313,1.215,0.48,2.5,0.48,3.826c0,7.465-5.279,13.516-11.789,13.516
				c-2.375,0-4.586-0.805-6.436-2.189c-0.867,1.605-1.621,3.297-2.25,5.061c1.213,1.07,1.995,2.75,1.995,4.639
				c0,2.848-1.775,5.221-4.129,5.742C2.03,48.627,2,49.5,2,50.385h60c0-1.967-0.145-3.895-0.421-5.77
				c-0.197,0.016-0.396,0.025-0.596,0.025C56.264,44.641,52.438,40.258,52.438,34.846z"/>
			<path fill="#3E4347" d="M24.694,20.994c0-1.326-0.168-2.611-0.48-3.826C16.751,19.461,10.436,24.971,6.47,32.32
				c1.85,1.385,4.061,2.189,6.436,2.189C19.415,34.51,24.694,28.459,24.694,20.994z"/>
			<path fill="#3E4347" d="M45.927,24.619c1.569,0,3.008-0.637,4.131-1.695c-3.126-2.705-6.73-4.725-10.641-5.865
				c0,0.031,0,0.064,0,0.098C39.417,21.279,42.332,24.619,45.927,24.619z"/>
			<path fill="#3E4347" d="M52.438,34.846c0,5.412,3.825,9.795,8.545,9.795c0.2,0,0.398-0.01,0.596-0.025
				c-0.922-6.254-3.316-11.932-6.76-16.551C53.345,29.822,52.438,32.215,52.438,34.846z"/>
			<path fill="#3E4347" d="M6.215,42.02c0-1.889-0.782-3.568-1.995-4.639c-1.156,3.242-1.893,6.734-2.134,10.381
				C4.439,47.24,6.215,44.867,6.215,42.02z"/>
		</g>
		<polygon fill="#3E4347" points="32.813,16 32,34.885 31.187,16 		"/>
	</g>
	<g>
		<g>
			<path fill="#3E4347" d="M32,35.186c-9.643,0-17.46,6.971-17.46,15.833c0,7.558,4.937,9.758,17.521,9.758
				c12.533,0,17.398-2.188,17.398-9.758C49.46,42.156,41.643,35.186,32,35.186z"/>
		</g>
		<g>
			<path fill="#FFFFFF" d="M28.31,54.089c0.181,0.843,0.691,1.49,1.377,1.863c0.685,0.373,1.499,0.532,2.313,0.524
				c0.813,0.006,1.627-0.152,2.312-0.525c0.684-0.372,1.195-1.02,1.377-1.862c0.219,0.832-0.175,1.831-0.962,2.405
				c-0.771,0.599-1.774,0.829-2.727,0.837c-0.953-0.009-1.955-0.24-2.727-0.839C28.486,55.918,28.093,54.921,28.31,54.089z"/>
		</g>
		<g>
			<path fill="#FCFCFA" d="M16.215,50.717c-0.943,0.741-0.426,2.766,1.15,4.521c1.578,1.758,3.618,2.586,4.558,1.848
				c0.941-0.735,0.425-2.763-1.153-4.521C19.195,50.807,17.154,49.979,16.215,50.717z"/>
			<path fill="#FCFCFA" d="M47.789,50.719c-0.94-0.739-2.982,0.09-4.559,1.845c-1.578,1.759-2.095,3.786-1.154,4.521
				c0.943,0.738,2.983-0.088,4.559-1.848C48.211,53.482,48.729,51.458,47.789,50.719z"/>
		</g>
		<g>
			<g>
				<path fill="#FCFCFA" d="M30.186,47.347c0,2.735-2.294,4.957-5.124,4.957c-2.829,0-5.122-2.222-5.122-4.957
					c0-2.742,2.293-4.962,5.122-4.962C27.892,42.385,30.186,44.604,30.186,47.347z"/>
				<path fill="#3E4347" d="M28.583,47.347c0,1.881-1.577,3.405-3.521,3.405c-1.943,0-3.521-1.524-3.521-3.405
					c0-1.885,1.578-3.411,3.521-3.411C27.006,43.936,28.583,45.462,28.583,47.347z"/>
			</g>
			<g>
				<path fill="#FCFCFA" d="M44.061,47.347c0,2.735-2.294,4.957-5.124,4.957s-5.122-2.222-5.122-4.957
					c0-2.742,2.292-4.962,5.122-4.962S44.061,44.604,44.061,47.347z"/>
				<path fill="#3E4347" d="M42.46,47.347c0,1.881-1.577,3.405-3.523,3.405c-1.944,0-3.521-1.524-3.521-3.405
					c0-1.885,1.577-3.411,3.521-3.411C40.883,43.936,42.46,45.462,42.46,47.347z"/>
			</g>
		</g>
	</g>
</g>
</svg>
