<?xml version="1.0" encoding="utf-8"?>
<!-- Generator: Adobe Illustrator 15.0.0, SVG Export Plug-In . SVG Version: 6.00 Build 0)  -->
<!DOCTYPE svg PUBLIC "-//W3C//DTD SVG 1.1//EN" "http://www.w3.org/Graphics/SVG/1.1/DTD/svg11.dtd">
<svg version="1.1" id="Layer_1" xmlns="http://www.w3.org/2000/svg" xmlns:xlink="http://www.w3.org/1999/xlink" x="0px" y="0px"
	 width="64px" height="64px" viewBox="0 0 64 64" enable-background="new 0 0 64 64" xml:space="preserve">
<g>
	<g>
		<path fill="#F29A2E" d="M9.704,23.391c1.602,2.673,3.418,3.041,4.706,1.493c2.01-2.417-0.224-5.47-2.511-6.349
			c-3.925-1.505-7.31,2.955-7.31,2.955S8.306,21.058,9.704,23.391z"/>
		<path fill="#E24B4B" d="M55.59,15.034c-9.147-5.504-19.768-1.202-21.923,9.3c-0.528,2.576-1.301,12.363,5.826,9.14
			c0.337,0.761,0.95,1.524,1.879,2.251c2.402,1.879,1.139,6.959,1.139,6.959s7.22-3.419,4.397-11.627
			c4.141,0,6.952,7.304,6.952,7.304s2.83-7.039,0.78-13.296c3.731-0.377,7.162,4.99,7.162,4.99S63.721,19.926,55.59,15.034z"/>
		<path fill="#F4BC58" d="M32.134,62H19.167c0-1.104,7.584-1.274,7.944-8.752C28.275,61.57,32.134,60.896,32.134,62z"/>
		<path fill="#F4BC58" d="M19.263,58.07l-8.035-9.586c0.575-0.684,5.361,4.816,9.469,0.449C17.093,54.95,19.837,57.387,19.263,58.07
			z"/>
		<path fill="#947151" d="M41.398,33.393c0,10.39-7.142,18.812-15.95,18.812c-8.81,0-15.951-8.422-15.951-18.812
			c0-6.93,1.274-21.959,6.21-21.959c15.342,0-3.896,19.852,9.741,19.852C34.257,31.285,41.398,23.002,41.398,33.393z"/>
		<path fill="#947151" d="M32.716,50.142c0,2.167-2.954,6.784-5.594,6.784s-5.631-3.14-5.631-5.307
			C21.492,49.453,32.716,49.079,32.716,50.142z"/>
		<path fill="#3E4347" d="M38.841,31.441c-0.265,4.543-8.147,11.598-12.566,11.598c-4.418,0-8.001-3.691-8.001-8.244
			c0-7.558,3.825-3.927,8.243-3.927C30.936,30.868,39.268,24.148,38.841,31.441z"/>
		<path fill="#F4BC58" d="M8.657,28.927l0.589,10.851l2.455-3.123l2.883,3.555l0.608-4.96l4.464,3.292l-0.811-4.828l5.356,0.57
			l-2.456-2.959l3.703-2.527c0,0-4.494,1.002-4.434-1.831c0.062-2.833,2.983-10.968,1.097-13.364c-1.888-2.397-10.126,0-10.126,0
			L8.657,28.927z"/>
		<ellipse fill="#3E4347" cx="8.657" cy="19.469" rx="0.589" ry="0.302"/>
		<ellipse fill="#E24B4B" cx="14.583" cy="19.945" rx="4.262" ry="4.164"/>
		<ellipse fill="#3E4347" cx="14.321" cy="19.468" rx="2.052" ry="1.58"/>
		<path fill="#E24B4B" d="M9.498,34.264c0.304,3.923-2.456,5.695-4.64,5.498c-3.412-0.312-3.393-5.17-1.896-8.105
			c2.57-5.039,9.024-15.344,9.024-15.344S9.233,30.841,9.498,34.264z"/>
	</g>
	<path fill="#E24B4B" d="M23.249,13.102c0.032-0.52,0.04-1.069-0.007-1.683c-0.266-3.424,3.388-6.51,3.388-6.51s-6-0.877-8.57,4.161
		c-0.306,0.6-0.545,1.28-0.711,1.985c-0.112-0.5-0.258-1.02-0.471-1.577C15.68,6.353,18.274,2,18.274,2s-5.906,1.536-6.938,7.304
		c-0.207,1.167-0.179,2.479,0.08,3.654c-0.103-0.104-0.188-0.211-0.301-0.315c-1.897-1.758-1.391-6.172-1.391-6.172
		s-3.867,3.861-2.761,8.6c0.646,2.76,3.116,5.543,5.219,3.241c0.636-0.696,2.221-1.796,3.188-2.104
		c0.717-0.229,2.521-0.138,3.65,0.796c1.042,0.861,1.805,2.373,3.323,2.448c6.429,0.318,7.596-8.869,7.596-8.869
		S26.646,12.235,23.249,13.102z"/>
</g>
</svg>
