<?xml version="1.0" encoding="utf-8"?>
<!-- Generator: Adobe Illustrator 15.0.0, SVG Export Plug-In . SVG Version: 6.00 Build 0)  -->
<!DOCTYPE svg PUBLIC "-//W3C//DTD SVG 1.1//EN" "http://www.w3.org/Graphics/SVG/1.1/DTD/svg11.dtd">
<svg version="1.1" id="Layer_1" xmlns="http://www.w3.org/2000/svg" xmlns:xlink="http://www.w3.org/1999/xlink" x="0px" y="0px"
	 width="64px" height="64px" viewBox="0 0 64 64" enable-background="new 0 0 64 64" xml:space="preserve">
<g>
	<g>
		<g>
			<g>
				<path fill="#3E4347" d="M35.907,52.986c0,0,1.867,2.178,6.881,0.555c1.165-0.377-3.591,6.32-4.329,7.5
					c0.929-1.029,7.927-7.299,5.633-9.012c-1.444-1.08-5.405,0.035-5.881-0.557L35.907,52.986z"/>
			</g>
		</g>
	</g>
	<g>
		<g>
			<g>
				<path fill="#3E4347" d="M41.867,47.867c0,0,3.054,3.561,11.254,0.908c1.906-0.615-5.873,10.336-7.079,12.266
					c1.519-1.684,12.964-11.936,9.212-14.74c-2.362-1.764-8.84,0.059-9.619-0.908L41.867,47.867z"/>
			</g>
		</g>
	</g>
	<g>
		<g>
			<path fill="#3E4347" d="M35.352,11.113l-0.962-0.07c0.146-2.053-1.479-4.738-4.132-5.463l0.248-0.957
				C33.377,5.41,35.55,8.322,35.352,11.113z"/>
		</g>
	</g>
	<g>
		<g>
			<path fill="#3E4347" d="M44.979,10.564l-0.118-0.98c2.009-0.256,4.284-2.4,4.468-5.184l0.962,0.068
				C50.091,7.48,47.709,10.215,44.979,10.564z"/>
		</g>
	</g>
	<g>
		<path fill="#3E4347" d="M32.195,3.508c0.866,1.018,0.756,2.555-0.247,3.436c-1,0.879-2.514,0.77-3.379-0.248
			c-0.866-1.018-0.756-2.555,0.246-3.434C29.816,2.381,31.327,2.49,32.195,3.508z"/>
	</g>
	<g>
		<g>
			<path fill="#3E4347" d="M51.701,5.93c-0.813,1.061-2.315,1.252-3.362,0.428C47.295,5.529,47.109,4,47.92,2.939
				c0.814-1.061,2.318-1.254,3.362-0.426C52.327,3.34,52.516,4.869,51.701,5.93z"/>
		</g>
	</g>
	<g>
		<path fill="#5E51A7" d="M19.097,54.121c0.518,3.113-13.402,5.033-16.647-0.883c-1.385-2.523,0.241-4.68,7.598-4.217
			C19.634,49.621,18.391,49.873,19.097,54.121z"/>
	</g>
	<g>
		<g>
			<path fill="#B5AADA" d="M23.535,54.008c0.641,3.686-16.529,5.961-20.531-1.049c-1.706-2.988,0.298-5.545,9.371-4.996
				C24.199,48.676,22.664,48.975,23.535,54.008z"/>
		</g>
	</g>
	<g>
		<g>
			<path fill="#5E51A7" d="M29.411,53.545c0.785,4.406-20.278,7.125-25.189-1.25c-2.095-3.574,0.365-6.627,11.496-5.973
				C30.226,47.172,28.343,47.529,29.411,53.545z"/>
		</g>
	</g>
	<g>
		<g>
			<path fill="#B5AADA" d="M35.329,52.9c0.898,5.344-23.214,8.637-28.838-1.516c-2.396-4.334,0.418-8.035,13.162-7.244
				C36.261,45.174,34.107,45.607,35.329,52.9z"/>
		</g>
	</g>
	<g>
		<g>
			<path fill="#5E51A7" d="M39.023,52.102c0.911,6.416-23.53,10.367-29.228-1.82c-2.43-5.201,0.422-9.643,13.338-8.693
				C39.969,42.828,37.783,43.348,39.023,52.102z"/>
		</g>
	</g>
	<g>
		<g>
			<g>
				<path fill="#B5AADA" d="M45.59,49.186c0.915,7.969-25.681,14.813-31.403-0.33c-2.439-6.461,2.501-12.102,15.473-10.922
					C46.563,39.471,44.344,38.309,45.59,49.186z"/>
			</g>
		</g>
	</g>
	<g>
		<g>
			<path fill="#5E51A7" d="M50.527,47.613c0.896,7.967-25.232,14.813-30.853-0.33c-2.398-6.461,2.455-12.102,15.199-10.922
				C51.483,37.898,49.302,36.738,50.527,47.613z"/>
		</g>
	</g>
	<g>
		<g>
			<path fill="#B5AADA" d="M52.796,43.887c0.781,7.967-21.951,14.813-26.843-0.33c-2.084-6.461,2.138-12.102,13.226-10.924
				C53.628,34.172,51.73,33.01,52.796,43.887z"/>
		</g>
	</g>
	<g>
		<g>
			<path fill="#5E51A7" d="M55.26,37.238c0.462,10.549-23.073,14.869-29.188-0.381C23.186,29.66,40.046,25.35,46.599,25.35
				C60.076,25.35,55.02,31.795,55.26,37.238z"/>
		</g>
	</g>
	<g>
		<g>
			<path fill="#B5AADA" d="M56.176,24.799c0.512,11.404-22.705,19.313-29.488,5.742C21.5,20.162,29.599,9.324,38.184,8.332
				C52.182,6.717,55.927,19.25,56.176,24.799z"/>
		</g>
	</g>
	<g>
		<g>
			<g>
				<ellipse fill="#5E51A7" cx="45.82" cy="21.621" rx="4.5" ry="4.658"/>
			</g>
			<g>
				<g>
					<ellipse fill="#FCFCFA" cx="45.821" cy="21.621" rx="3.467" ry="3.682"/>
				</g>
				<g>
					<ellipse fill="#3E4347" cx="45.821" cy="21.621" rx="2.384" ry="2.531"/>
				</g>
			</g>
		</g>
		<g>
			<g>
				<ellipse fill="#5E51A7" cx="32.829" cy="21.621" rx="4.5" ry="4.658"/>
			</g>
			<g>
				<g>
					<ellipse fill="#FCFCFA" cx="32.83" cy="21.621" rx="3.467" ry="3.682"/>
				</g>
				<g>
					<ellipse fill="#3E4347" cx="32.83" cy="21.621" rx="2.384" ry="2.531"/>
				</g>
			</g>
		</g>
	</g>
	<g>
		<path fill="#3E4347" d="M59.597,45.539c-0.512,0-0.948-0.391-0.995-0.91c-0.496-5.49-3.991-7.018-6.544-8.131
			c-0.252-0.109-0.489-0.213-0.708-0.314c-0.501-0.23-0.721-0.824-0.489-1.326s0.823-0.721,1.327-0.49
			c0.207,0.096,0.432,0.193,0.67,0.299c2.668,1.164,7.134,3.111,7.736,9.783c0.05,0.551-0.356,1.037-0.906,1.086
			C59.657,45.539,59.627,45.539,59.597,45.539z"/>
	</g>
	<g>
		<path fill="#3E4347" d="M27.864,39.262c-0.332,0-0.656-0.166-0.847-0.467c-2.75-4.359-4.959-6.947-6.734-9.025
			c-2.623-3.072-4.206-4.926-4.206-9.086c0-0.553,0.447-1,1-1s1,0.447,1,1c0,3.422,1.168,4.789,3.727,7.787
			c1.722,2.016,4.079,4.777,6.905,9.258c0.295,0.467,0.155,1.084-0.313,1.379C28.231,39.211,28.047,39.262,27.864,39.262z"/>
	</g>
	<g>
		<ellipse fill="#3E4347" cx="14.97" cy="21.021" rx="1.766" ry="1.813"/>
	</g>
	<g>
		<ellipse fill="#3E4347" cx="15.652" cy="23.885" rx="1.767" ry="1.811"/>
	</g>
	<g>
		<g>
			<ellipse fill="#3E4347" cx="16.737" cy="19.387" rx="2.101" ry="2.156"/>
		</g>
	</g>
	<g>
		<path fill="#3E4347" d="M61.521,44.523c0.795,1.854,0.58,3.746-0.483,4.225c-1.061,0.479-2.566-0.635-3.363-2.486
			c-0.795-1.854-0.579-3.746,0.482-4.225C59.219,41.557,60.725,42.67,61.521,44.523z"/>
	</g>
	<g>
		<g>
			<g>
				<path fill="#3E4347" d="M18.597,52.154c-0.477,0.59-4.03-0.047-5.476,1.033c-2.294,1.715,4.103,7.783,5.031,8.813
					c-0.738-1.18-5.05-7.982-3.862-7.686c4.065,1.02,6.625-0.494,6.625-0.494L18.597,52.154z"/>
			</g>
		</g>
		<g>
			<g>
				<path fill="#3E4347" d="M30.567,45.896c-0.778,0.967-6.591-0.072-8.953,1.691C17.862,50.391,28.322,60.316,29.842,62
					c-1.207-1.93-8.259-13.057-6.316-12.568c6.648,1.666,10.835-0.807,10.835-0.807L30.567,45.896z"/>
			</g>
		</g>
		<g>
			<g>
				<path fill="#3E4347" d="M9.437,53.59c-0.358,0.447-3.037-0.031-4.126,0.781c-1.729,1.291,3.091,5.865,3.791,6.641
					c-0.556-0.889-3.806-6.018-2.91-5.791c3.063,0.768,4.992-0.373,4.992-0.373L9.437,53.59z"/>
			</g>
		</g>
	</g>
	<g>
		<g>
			<g>
				<g>
					<path fill="#5E51A7" d="M39.321,35.059c-2.55,0-4.966-0.711-6.805-2c-1.893-1.33-2.937-3.094-2.937-4.971v-0.736l0.698,0.16
						c0.042,0.01,4.356,0.992,9.036,0.992c4.691-0.002,9.013-0.988,9.058-0.998l0.696-0.16v0.736c0,3.846-4.371,6.975-9.742,6.977
						H39.321z"/>
				</g>
			</g>
			<g>
				<path fill="#FFFFFF" d="M47.994,28.521c0,2.1-3.604,5.357-8.668,5.361c-5.066,0-8.67-3.256-8.673-5.355
					c0,0,3.865,1.008,8.673,1.006C44.129,29.533,47.994,28.521,47.994,28.521z"/>
			</g>
		</g>
	</g>
</g>
</svg>
