<?xml version="1.0" encoding="utf-8"?>
<!-- Generator: Adobe Illustrator 15.0.0, SVG Export Plug-In . SVG Version: 6.00 Build 0)  -->
<!DOCTYPE svg PUBLIC "-//W3C//DTD SVG 1.1//EN" "http://www.w3.org/Graphics/SVG/1.1/DTD/svg11.dtd">
<svg version="1.1" id="Layer_1" xmlns="http://www.w3.org/2000/svg" xmlns:xlink="http://www.w3.org/1999/xlink" x="0px" y="0px"
	 width="64px" height="64px" viewBox="0 0 64 64" enable-background="new 0 0 64 64" xml:space="preserve">
<g>
	<polygon fill="#DAE5EF" points="48.122,39.392 15.878,39.392 7.603,35.059 7.729,47.303 56.271,47.303 56.397,35.059 	"/>
	<g>
		<g>
			<g>
				<path fill="#FFBF3E" d="M15.478,35.122c0,0-16.004-5.958-12.784-7.387C11.555,23.799,15.478,35.122,15.478,35.122z"/>
				<path fill="#FFBF3E" d="M15.478,35.122c0,0-13.596-10.5-10.368-11.934C13.293,19.553,15.478,35.122,15.478,35.122z"/>
				<path fill="#FFBF3E" d="M15.478,35.122c0,0-17.634-0.542-12.561-2.796C14.311,27.265,15.478,35.122,15.478,35.122z"/>
			</g>
			<g>
				<path fill="#FFBF3E" d="M48.524,35.122c0,0,16.002-5.958,12.783-7.387C52.445,23.799,48.524,35.122,48.524,35.122z"/>
				<path fill="#FFBF3E" d="M48.524,35.122c0,0,13.596-10.5,10.367-11.934C50.708,19.553,48.524,35.122,48.524,35.122z"/>
				<path fill="#FFBF3E" d="M48.524,35.122c0,0,17.633-0.542,12.559-2.796C49.691,27.265,48.524,35.122,48.524,35.122z"/>
			</g>
		</g>
		<g>
			<g>
				<path fill="#FFD93B" d="M33.983,21.809c2.409,3.853-10.899,4.037-11.738-5.395C21.408,6.981,27.956,2,27.956,2
					S27.534,11.501,33.983,21.809z"/>
				<path fill="#FFD93B" d="M32.691,19.002c-1.782,4.149-9.987-5.781-2.565-12.118c7.42-6.338,15.567-4.409,15.567-4.409
					S37.453,7.902,32.691,19.002z"/>
				<path fill="#FFD93B" d="M26.244,27.896c1.781,4.149,9.986-5.781,2.565-12.119c-7.422-6.337-15.568-4.408-15.568-4.408
					S21.481,16.796,26.244,27.896z"/>
			</g>
			<path fill="#FFD93B" d="M50.759,35.604c0,10.25-8.399,11.836-18.76,11.836c-10.362,0-18.758-1.586-18.758-11.836
				c0-20.994,9.175-25.283,18.758-25.283C41.579,10.32,50.759,14.609,50.759,35.604z"/>
		</g>
		<g>
			<path fill="#E08828" d="M28.219,34.839h7.563c0,2.437-1.891,4.078-3.782,4.078S28.219,37.275,28.219,34.839z"/>
			<path fill="#F29A2E" d="M35.781,34.839c0,0-2.431,1.143-3.782,1.142c-1.352,0-3.78-1.142-3.78-1.142
				c0-3.032,1.694-5.487,3.78-5.487C34.087,29.352,35.781,31.807,35.781,34.839z"/>
		</g>
		<path fill="#BC9342" d="M44.74,25.065c-0.361-0.676-0.794-1.33-1.38-1.88c-0.572-0.556-1.298-1.021-2.149-1.229
			c-0.85-0.203-1.79-0.071-2.524,0.329c-0.748,0.382-1.318,0.967-1.751,1.602c0.652-0.443,1.313-0.838,2.002-1.086
			c0.689-0.246,1.408-0.308,2.09-0.138c0.688,0.153,1.332,0.518,1.939,0.946C43.571,24.046,44.141,24.558,44.74,25.065z"/>
		<path fill="#BC9342" d="M19.261,25.065c0.361-0.676,0.794-1.33,1.379-1.88c0.573-0.556,1.299-1.021,2.15-1.229
			c0.852-0.203,1.79-0.071,2.524,0.329c0.748,0.382,1.317,0.967,1.751,1.602c-0.652-0.443-1.313-0.838-2.002-1.086
			c-0.689-0.246-1.408-0.308-2.089-0.138c-0.688,0.153-1.333,0.518-1.94,0.946C20.431,24.046,19.86,24.558,19.261,25.065z"/>
		<g>
			<g>
				<path fill="#3E4347" d="M20.865,30.37c0-1.238,1.028-2.562,2.298-2.562c1.267,0,2.296,1.323,2.296,2.562s-1.029,1.78-2.296,1.78
					C21.894,32.15,20.865,31.608,20.865,30.37z"/>
			</g>
		</g>
		<g>
			<g>
				<path fill="#3E4347" d="M38.54,30.37c0-1.238,1.028-2.562,2.299-2.562c1.267,0,2.296,1.323,2.296,2.562s-1.029,1.78-2.296,1.78
					C39.568,32.15,38.54,31.608,38.54,30.37z"/>
			</g>
		</g>
		<path fill="#FFEA92" d="M44.067,47.671c0.048-0.269,0.075-0.542,0.075-0.818c0-4.161-5.437-7.534-12.144-7.534
			c-6.705,0-12.142,3.373-12.142,7.534c0,0.276,0.027,0.55,0.075,0.819c3.261,1.311,7.469,1.643,12.066,1.643
			S40.805,48.982,44.067,47.671z"/>
		<path fill="#3E4347" d="M35.781,34.749c0,0-1.692,2.38-3.781,2.38c-2.088,0-3.781-2.38-3.781-2.38s1.693-2.384,3.781-2.384
			C34.089,32.365,35.781,34.749,35.781,34.749z"/>
	</g>
	<g>
		<path fill="#DAE5EF" d="M56.397,35.059l-3.764,6.684l-5.415-4.131L31.146,50.578L16.781,37.611l-5.415,4.131l-3.764-6.684
			c0,0-2.507,1.753-2.507,5.141C5.096,52.271,16.537,62,32,62c15.464,0,26.904-9.729,26.904-21.801
			C58.904,36.812,56.397,35.059,56.397,35.059z"/>
		<path fill="#FFFFFF" d="M56.001,36.812l-0.76,3.843l-8.022-3.043l-5.114,10.262L32,40.578l-15.44,6.76l0.222-9.727l-8.022,3.043
			l-0.76-3.843c0,0-1.403,1.468-1.403,3.979C6.596,51.013,17.167,59.66,32,59.66c14.832,0,25.404-8.647,25.404-18.869
			C57.404,38.279,56.001,36.812,56.001,36.812z"/>
	</g>
</g>
</svg>
