<?xml version="1.0" encoding="utf-8"?>
<!-- Generator: Adobe Illustrator 15.0.0, SVG Export Plug-In . SVG Version: 6.00 Build 0)  -->
<!DOCTYPE svg PUBLIC "-//W3C//DTD SVG 1.1//EN" "http://www.w3.org/Graphics/SVG/1.1/DTD/svg11.dtd">
<svg version="1.1" id="Layer_1" xmlns="http://www.w3.org/2000/svg" xmlns:xlink="http://www.w3.org/1999/xlink" x="0px" y="0px"
	 width="64px" height="64px" viewBox="0 0 64 64" enable-background="new 0 0 64 64" xml:space="preserve">
<g>
	<ellipse fill="#C1875D" cx="51.14" cy="40.062" rx="4.773" ry="6.171"/>
	<ellipse fill="#C1875D" cx="27.844" cy="43.804" rx="4.773" ry="6.17"/>
	<g>
		<g>
			<path fill="#C1875D" d="M49.318,33.676v23.179c0,2.813,1.318,3.051,2.941,3.051c1.629,0,2.945-0.237,2.945-3.051V33.676H49.318z"
				/>
		</g>
		<path fill="#89664C" d="M55.912,61.999h-7.301l0.707-5.092c0,0,0.771-1.021,2.943-1.021c2.172,0,2.943,1.021,2.943,1.021
			L55.912,61.999z"/>
	</g>
	<g>
		<g>
			<path fill="#C1875D" d="M24.9,33.676v23.179c0,2.813,1.318,3.051,2.941,3.051c1.629,0,2.945-0.237,2.945-3.051V33.676H24.9z"/>
		</g>
		<path fill="#89664C" d="M31.495,61.999h-7.302l0.707-5.092c0,0,0.771-1.021,2.943-1.021s2.943,1.021,2.943,1.021L31.495,61.999z"
			/>
	</g>
	<g>
		<g>
			<path fill="#E0AC7E" d="M52.97,33.676v23.179c0,2.813,1.317,3.051,2.941,3.051c1.628,0,2.944-0.237,2.944-3.051V33.676H52.97z"/>
		</g>
		<path fill="#C1875D" d="M59.563,61.999h-7.302l0.708-5.092c0,0,0.771-1.021,2.943-1.021c2.171,0,2.942,1.021,2.942,1.021
			L59.563,61.999z"/>
	</g>
	<g>
		<g>
			<g>
				<path fill="#E0AC7E" d="M60.354,41.551c0.226-4.802-3.386-9.535-3.421-9.583l0.71-0.516c0.156,0.204,3.837,5.031,3.598,10.136
					L60.354,41.551z"/>
			</g>
			<g>
				<path fill="#E0AC7E" d="M60.765,38.935c-0.662,1.188-1.097,2.31-1.204,3.185c0.113,0.795,0.551,1.709,1.234,2.576
					c0.662-1.187,1.096-2.311,1.205-3.185C61.885,40.716,61.449,39.801,60.765,38.935z"/>
			</g>
		</g>
		<g>
			<path fill="#E0AC7E" d="M58.871,35.891c0.498,5.826-12.02,7.913-21.484,7.913c-12.266,0-20.811-20.487-18.277-17.02
				c3.414,4.669,5.791-2.283,8.549-3.235c5.859-2.022,10.863,0.14,17.1,0.739C52.51,25.032,58.871,29.473,58.871,35.891z"/>
		</g>
		<path fill="#E0AC7E" d="M55.006,28.137c0,5.331-3.197,7.682-7.143,7.682s-7.143-4.323-7.143-9.654
			c0-0.296,3.196-9.653,7.143-9.653C51.809,16.512,55.006,26.818,55.006,28.137z"/>
		<path fill="#E0AC7E" d="M41.943,24.5c0,5.331-3.197,9.653-7.142,9.653c-3.946,0-7.144-4.322-7.144-9.653
			c0-0.298,3.199-9.654,7.144-9.654S41.943,24.203,41.943,24.5z"/>
	</g>
	<g>
		<g>
			<path fill="#E0AC7E" d="M28.553,33.676v23.179c0,2.813,1.316,3.051,2.941,3.051c1.627,0,2.944-0.237,2.944-3.051V33.676H28.553z"
				/>
		</g>
		<path fill="#C1875D" d="M35.146,61.999h-7.303l0.709-5.092c0,0,0.77-1.021,2.943-1.021c2.171,0,2.942,1.021,2.942,1.021
			L35.146,61.999z"/>
	</g>
	<path fill="#E0AC7E" d="M7.545,13.916c4.873,2.139,6.796,0.074,6.796,0.074c-9.388,10.783-4.27,42.423,13.902,26.072
		c21.576-19.415,2.463-8.134-0.586-8.134s-11.433-0.738-5.695-15.415C27.699,1.834,13.942,6.338,7.529,6.633
		c-3.412,0.157-3.4,2.284-4.987,3.226c-0.945,0.561-0.489,1.21,0.124,1.348l0.049,0.408c-1.132,0.576-0.39,2.443,0.805,2.064
		C5.586,13.026,6.725,13.555,7.545,13.916z"/>
	<g>
		<path fill="#FFE2B3" d="M14.342,13.99c-9.64,9.972-4.76,40.95,12.262,27.447C13.06,47.212,11.173,18.072,14.342,13.99z"/>
	</g>
	<ellipse fill="#E0AC7E" cx="31.495" cy="44.696" rx="4.773" ry="6.171"/>
	<ellipse fill="#E0AC7E" cx="54.092" cy="39.271" rx="4.773" ry="6.171"/>
	<path fill="#E0AC7E" d="M22.922,8.463c-1.42-2.892-6.57-6.707-10.438-6.452c0,0,1.385,0.635,1.418,1.652
		c0,0-1.76-0.029-2.266,0.531c1.385,0.383,1.565,1.036,1.565,1.036s-1.06-0.299-1.997,0.524c1.41,0.018,1.41,0.327,3.17,1.39
		C16.135,8.207,22.922,8.463,22.922,8.463z"/>
	<path fill="#89664C" d="M4.725,8.685c0.102,0.122,0.51-0.002,0.913-0.277C6.041,8.133,6.284,7.812,6.183,7.69
		C6.081,7.569,5.673,7.693,5.271,7.967C4.868,8.243,4.624,8.564,4.725,8.685z"/>
	<ellipse fill="#C1875D" cx="14.813" cy="9.177" rx="2.086" ry="1.534"/>
	<ellipse fill="#3E4347" cx="14.755" cy="8.922" rx="0.946" ry="0.723"/>
	<path fill="#C1875D" d="M18.627,7.834c0.304-0.431,2.766-1.032,4.133-1.062c1.368-0.029,0.177,2.979-2.066,3.422
		C18.451,10.637,18.275,8.336,18.627,7.834z"/>
	<path fill="#E0AC7E" d="M19,8.472c0.238-0.36,2.172-0.864,3.246-0.889s0.139,2.494-1.623,2.865
		C18.861,10.819,18.724,8.893,19,8.472z"/>
	<path fill="#89664C" d="M2.672,11.208c2.624,0,6.47,1.306,8.532,0.656c-2.501,0.988-5.859-0.25-8.49-0.25L2.672,11.208z"/>
</g>
</svg>
