<?xml version="1.0" encoding="utf-8"?>
<!-- Generator: Adobe Illustrator 15.0.0, SVG Export Plug-In . SVG Version: 6.00 Build 0)  -->
<!DOCTYPE svg PUBLIC "-//W3C//DTD SVG 1.1//EN" "http://www.w3.org/Graphics/SVG/1.1/DTD/svg11.dtd">
<svg version="1.1" id="Layer_1" xmlns="http://www.w3.org/2000/svg" xmlns:xlink="http://www.w3.org/1999/xlink" x="0px" y="0px"
	 width="64px" height="64px" viewBox="0 0 64 64" enable-background="new 0 0 64 64" xml:space="preserve">
<g>
	<g>
		<g>
			<path fill="#F29A2E" d="M21.838,8.518c0,4.874-3.58,8.916-7.992,8.825C0.896,17.074,6.232,2.145,6.232,2.145
				C10.646,2.145,21.838,3.645,21.838,8.518z"/>
		</g>
	</g>
	<g>
		<path fill="#AF5A31" d="M16.943,9.484c0,2.6-1.91,4.757-4.264,4.708C5.771,14.05,8.617,6.084,8.617,6.084
			C10.973,6.084,16.943,6.885,16.943,9.484z"/>
	</g>
	<g>
		<g>
			<path fill="#F29A2E" d="M42.164,8.518c0,4.874,3.578,8.916,7.99,8.825c12.947-0.269,7.613-15.198,7.613-15.198
				C53.354,2.145,42.164,3.645,42.164,8.518z"/>
		</g>
	</g>
	<g>
		<g>
			<path fill="#AF5A31" d="M47.057,9.484c0,2.6,1.91,4.757,4.264,4.708c6.906-0.143,4.063-8.108,4.063-8.108
				C53.027,6.084,47.057,6.885,47.057,9.484z"/>
		</g>
	</g>
	<g>
		<path fill="#F29A2E" d="M58.639,42.189c0,9.131-12.492,10.377-26.639,10.377S5.361,51.32,5.361,42.189
			C5.361,3.952,20.586,4.998,32,4.998S58.639,3.952,58.639,42.189z"/>
	</g>
	<g>
		<path fill="#3E4347" d="M32.033,9.276c4.252,0,8.072,1.386,10.707,3.587c-1.01-3.758-5.43-6.586-10.732-6.586
			c-5.33,0-9.77,2.857-10.748,6.643C23.896,10.686,27.744,9.276,32.033,9.276z"/>
	</g>
	<g>
		<path fill="#3E4347" d="M32.023,13.877c2.912,0,5.527,0.948,7.332,2.456c-0.691-2.573-3.721-4.511-7.35-4.511
			c-3.65,0-6.691,1.957-7.361,4.549C26.451,14.842,29.086,13.877,32.023,13.877z"/>
	</g>
	<g>
		<g>
			<g>
				<path fill="#FFE8BB" d="M24.17,55.398L0,46.455l5.568-11.557c0,0,3.549,4.912,17.449,8.705L24.17,55.398z"/>
			</g>
			<g>
				<path fill="#3E4347" d="M23.928,50.35c-9.797-1.625-21.436-8.518-21.637-8.617l1.303-2.766
					c0.24,0.117,11.563,6.816,20.814,8.352L23.928,50.35z"/>
			</g>
		</g>
		<g>
			<g>
				<path fill="#FFE8BB" d="M39.83,55.398L64,46.455l-5.568-11.557c0,0-3.551,4.912-17.449,8.705L39.83,55.398z"/>
			</g>
			<g>
				<path fill="#3E4347" d="M40.07,50.35c9.797-1.625,21.438-8.518,21.639-8.617l-1.303-2.766
					c-0.24,0.117-11.564,6.816-20.814,8.352L40.07,50.35z"/>
			</g>
		</g>
	</g>
	<g>
		<path fill="#FFE8BB" d="M42.514,57.75c-6.266-4.525-2.789-14.941-2.789-14.941c-7.428,7.535-16.623,11.154-16.623,11.154
			c2.111,6.949,7.576,8.182,7.576,8.182c-0.449-2.342,0.869-4.213,0.869-4.213c2.205,2.832,6.607,3.811,6.607,3.811
			c-1.691-1.926-1.246-4.895-1.246-4.895C39.959,57.963,42.514,57.75,42.514,57.75z"/>
	</g>
	<g>
		<path fill="#FFE8BB" d="M40.896,54.432c-3.459,2.867-14.334,2.867-17.795,0c-3.75-3.107-3.277-9.117,0.131-12.613
			c3.146-3.227,14.389-3.227,17.535,0C44.176,45.314,44.648,51.324,40.896,54.432z"/>
	</g>
	<g>
		<path fill="#3E4347" d="M32.871,51.256c-0.367,0-0.713-0.234-0.844-0.609c-0.297-0.855-1.014-4.201-0.934-7.018
			c0.014-0.506,0.428-0.904,0.92-0.891c0.496,0.014,0.885,0.438,0.871,0.943c-0.072,2.563,0.605,5.703,0.832,6.35
			c0.166,0.477-0.078,1.002-0.545,1.172C33.074,51.238,32.973,51.256,32.871,51.256z"/>
	</g>
	<g>
		<path fill="#3E4347" d="M25.42,54.791c0.273-0.258,0.516-0.52,0.764-0.777c0.248-0.262,0.496-0.518,0.748-0.771
			c0.506-0.506,1.027-0.998,1.576-1.461c1.094-0.926,2.285-1.76,3.604-2.43c0.66-0.332,1.354-0.621,2.088-0.832
			s1.514-0.35,2.326-0.322c0.404,0.012,0.816,0.068,1.217,0.186c0.402,0.113,0.789,0.295,1.133,0.533
			c0.342,0.24,0.635,0.537,0.854,0.869c0.223,0.33,0.377,0.689,0.459,1.061c-0.297-0.227-0.59-0.424-0.889-0.572
			s-0.596-0.248-0.891-0.303c-0.588-0.111-1.166-0.051-1.748,0.078c-1.17,0.273-2.346,0.828-3.533,1.42
			c-1.188,0.598-2.387,1.256-3.645,1.871c-0.627,0.309-1.271,0.604-1.941,0.873c-0.336,0.131-0.678,0.258-1.029,0.361
			C26.16,54.68,25.795,54.775,25.42,54.791z"/>
	</g>
	<g>
		<g>
			<path fill="#F15A61" d="M39.643,40.104c-1.535-0.674-6.246-0.727-7.654-0.727c-1.406,0-6.119,0.053-7.654,0.727
				c-1.094,0.48-0.248,1.672,2.66,2.699c1.834,0.648,3.588,0.854,4.994,0.854s3.158-0.205,4.996-0.854
				C39.891,41.775,40.734,40.584,39.643,40.104z"/>
		</g>
	</g>
	<g>
		<polygon fill="#3E4347" points="24.648,29.558 26.762,36.313 20.756,32.773 		"/>
		<path fill="#3E4347" d="M15.1,40.211c-0.686,0-1.223-0.068-1.535-0.121c-3.922-0.666-6.084-2.551-7.996-5.191l0.24-3.157
			c1.994,1.844,5.191,4.799,8.246,5.317c1.52,0.258,3.748-0.02,5.453-1.574c2.016-1.838,2.967-5.168,2.752-9.632l2.148,0.169
			c0.264,5.501-0.15,9.244-2.904,11.756C19.281,39.805,16.76,40.211,15.1,40.211z"/>
	</g>
	<g>
		<polygon fill="#3E4347" points="39.352,29.558 37.238,36.313 43.244,32.773 		"/>
		<path fill="#3E4347" d="M48.9,40.211c0.684,0,1.223-0.068,1.533-0.121c3.924-0.666,6.086-2.551,7.996-5.191l-0.24-3.157
			c-1.994,1.844-5.191,4.799-8.246,5.317c-1.518,0.258-3.748-0.02-5.453-1.574c-2.014-1.838-2.967-5.168-2.752-9.632l-2.148,0.169
			c-0.264,5.501,0.15,9.244,2.906,11.756C44.717,39.805,47.238,40.211,48.9,40.211z"/>
	</g>
	<g>
		<g>
			<g>
				<path fill="#FFE8BB" d="M25.086,27.779c-1.119,6.741-4.895,7.493-8.795,7.12c-3.92-0.377-7.082-3.407-7.082-8.606
					c0-5.464,0-5.464,8.727-7.341C26.77,17.051,25.822,23.338,25.086,27.779z"/>
			</g>
			<g>
				<path fill="#3E4347" d="M23.652,28.369c-0.32,3.232-3.426,5.559-6.939,5.196c-3.512-0.363-6.102-3.278-5.783-6.51
					c0.318-3.233,0.369-3.509,6.707-2.855C23.979,24.854,23.971,25.137,23.652,28.369z"/>
			</g>
			<g>
				<path fill="#FFFFFF" d="M21.594,27.521c-0.211,2.154-2.283,3.705-4.627,3.465c-2.342-0.242-4.066-2.186-3.854-4.341
					c0.213-2.154,0.244-2.34,4.471-1.903C21.813,25.178,21.807,25.366,21.594,27.521z"/>
			</g>
			<g>
				<ellipse fill="#3E4347" cx="18.848" cy="26.498" rx="1.904" ry="2.103"/>
			</g>
		</g>
		<g>
			<path fill="#3E4347" d="M26.428,22.433c0.551,0,1.061-0.364,1.229-0.931c0.209-0.695-0.174-1.432-0.854-1.645l-7.854-2.456
				c-0.678-0.212-1.398,0.179-1.605,0.874s0.176,1.431,0.854,1.644l7.854,2.456C26.176,22.414,26.303,22.433,26.428,22.433z"/>
		</g>
	</g>
	<g>
		<g>
			<g>
				<path fill="#FFE8BB" d="M38.914,27.779c1.119,6.741,4.895,7.493,8.795,7.12c3.918-0.377,7.082-3.407,7.082-8.606
					c0-5.464-0.002-5.464-8.727-7.341C37.23,17.051,38.176,23.338,38.914,27.779z"/>
			</g>
			<g>
				<path fill="#3E4347" d="M40.348,28.369c0.318,3.232,3.424,5.559,6.939,5.196c3.512-0.363,6.102-3.278,5.781-6.51
					c-0.318-3.233-0.367-3.509-6.705-2.855C40.021,24.854,40.029,25.137,40.348,28.369z"/>
			</g>
			<g>
				<path fill="#FFFFFF" d="M42.406,27.521c0.211,2.154,2.283,3.705,4.625,3.465c2.342-0.242,4.068-2.186,3.855-4.341
					c-0.213-2.154-0.246-2.34-4.471-1.903C42.188,25.178,42.193,25.366,42.406,27.521z"/>
			</g>
			<g>
				<ellipse fill="#3E4347" cx="48.025" cy="26.307" rx="1.904" ry="2.101"/>
			</g>
		</g>
		<g>
			<path fill="#3E4347" d="M37.57,22.433c-0.549,0-1.059-0.364-1.227-0.931c-0.209-0.695,0.174-1.432,0.854-1.645l7.854-2.456
				c0.678-0.212,1.396,0.179,1.605,0.874c0.207,0.695-0.176,1.431-0.855,1.644l-7.854,2.456
				C37.822,22.414,37.697,22.433,37.57,22.433z"/>
		</g>
	</g>
</g>
</svg>
