<?xml version="1.0" encoding="utf-8"?>
<!-- Generator: Adobe Illustrator 15.0.0, SVG Export Plug-In . SVG Version: 6.00 Build 0)  -->
<!DOCTYPE svg PUBLIC "-//W3C//DTD SVG 1.1//EN" "http://www.w3.org/Graphics/SVG/1.1/DTD/svg11.dtd">
<svg version="1.1" id="Layer_1" xmlns="http://www.w3.org/2000/svg" xmlns:xlink="http://www.w3.org/1999/xlink" x="0px" y="0px"
	 width="64px" height="64px" viewBox="0 0 64 64" enable-background="new 0 0 64 64" xml:space="preserve">
<g>
	<path fill="#42ADE2" d="M33.652,45.512c-0.367-0.809-0.876-1.52-1.416-2.182c-0.546-0.66-1.146-1.254-1.787-1.758
		c-0.641-0.504-1.328-0.91-2.02-1.158c-0.694-0.25-1.386-0.328-2.02-0.234c-0.709,0.107-1.368-0.414-1.468-1.166
		s0.393-1.447,1.104-1.553c0.115-0.018,0.23-0.018,0.34-0.004l0.096,0.012c1.055,0.145,2.021,0.57,2.824,1.137
		c0.807,0.564,1.471,1.258,2.038,1.996c0.564,0.74,1.033,1.531,1.425,2.352C33.153,43.775,33.488,44.627,33.652,45.512z"/>
	<path fill="#42ADE2" d="M54.998,38.313c-0.115-0.824,0.04-1.672,0.205-2.484c0.18-0.822,0.421-1.627,0.717-2.42
		c0.3-0.791,0.647-1.57,1.09-2.328c0.455-0.754,0.969-1.51,1.822-2.154l0.086-0.066c0.563-0.426,1.347-0.285,1.752,0.313
		c0.403,0.598,0.275,1.424-0.289,1.852c-0.107,0.082-0.229,0.145-0.352,0.186c-0.488,0.162-1.065,0.598-1.578,1.1
		c-0.52,0.512-1.003,1.105-1.453,1.734c-0.447,0.635-0.857,1.307-1.218,2.012C55.436,36.766,55.09,37.498,54.998,38.313z"/>
	<path fill="#42ADE2" d="M52.671,45.129c-0.362-0.824-0.188-1.838,0.13-2.699c0.331-0.877,0.841-1.674,1.443-2.387
		c1.214-1.422,2.826-2.516,4.639-3.145l0.063-0.021c0.782-0.273,1.627,0.18,1.885,1.006c0.258,0.828-0.169,1.719-0.952,1.992
		c-0.143,0.051-0.297,0.076-0.441,0.078c-1.436,0.025-2.923,0.439-4.239,1.273c-0.654,0.42-1.269,0.943-1.756,1.586
		C52.971,43.453,52.559,44.24,52.671,45.129z"/>
	<g>
		<g>
			<path fill="#36A7C1" d="M54.803,21.52c-0.808,4.461-5.734,1.061-8.635-1.924c-2.9-2.982-4.991-5.67-1.871-8.879
				c3.121-3.209,12.182-3.762,15.082-0.777C62.279,12.922,55.857,15.688,54.803,21.52z"/>
			<path fill="#38BFD6" d="M54.133,21.412C52.781,12.781,42.387,2,29.135,2S2.331,14.945,12.119,24.9c0,0-11.865,0.615-7.127,3.096
				c11.364,5.951,17.512-1.846,17.621-1.855l0,0c4.013-6.814,11.993-7.021,17.415,0.463c5.421,7.482,5.671,18.117-2.962,22.453
				c-4.659,2.34-5.424,0.889-4.938-1.047c-1.421,1.105-2.895,2.078-4.068,2.895c-1.934-2.701-5.753-7.486-8.559-7.486
				c-3.908,0,1.506,9.291,1.506,9.291S15.594,62,19.502,62c2.921,0,6.942-5.188,8.788-7.811
				C37.232,55.775,58.452,49.01,54.133,21.412z"/>
			<path fill="#C5CCD6" d="M37.066,49.057c8.633-4.336,8.383-14.971,2.962-22.453c-5.422-7.484-13.402-7.277-17.415-0.463l0,0
				c0.009-0.002-0.026,0.055-0.103,0.178c-1.366,2.174-3.358,2.465-5.244,3.264c0,0-0.028,0.953-1.306,1.658
				c-1.917,1.061-3.164,1.865-1.959,3.518c4.446,6.096,12.926-6.039,20.354,0.568c5.66,5.033,1.944,9.436-2.227,12.684
				C31.642,49.945,32.407,51.396,37.066,49.057z"/>
			<path fill="#36A7C1" d="M37.876,25.186c1.866-4.201-2.485-5.521-5.553-5.521c-3.067,0-5.552,0.426-5.552,5.521
				c0,5.094,4.504,12.928,7.571,12.928C37.409,38.113,35.436,30.676,37.876,25.186z"/>
			<path fill="#18637A" d="M22.613,26.141c0.146,4.334-4.137,9.021-6.92,8.305c-0.838-0.215-1.056-0.787-0.97-1.324
				c0.132-0.818,1.291-1.342,2.056-1.973c0.708-0.584,0.969-1.76,0.969-1.76C19.403,28.748,22.613,26.141,22.613,26.141z"/>
			<path fill="#FF717F" d="M22.066,29.346c-1.221,2.555-1.923,3.322-2.973,2.879c-1.043-0.441-0.683-3.051,0.379-3.785
				c0,0,0.855-0.605,3.141-2.299C22.613,26.141,22.734,27.949,22.066,29.346z"/>
		</g>
		<g>
			<circle fill="#FFFFFF" cx="20.392" cy="19.664" r="4.5"/>
			<circle fill="#3E4347" cx="20.393" cy="19.664" r="3"/>
		</g>
		<path fill="#38BFD6" d="M20.546,26.141c0,0-0.154-10.77,8.151-8.436L20.546,26.141z"/>
	</g>
	<g>
		<path fill="#42ADE2" d="M62,44c0,2.525-1.919,4.57-4.286,4.57c-2.368,0-4.285-2.045-4.285-4.57c0,2.525-1.919,4.57-4.286,4.57
			c-2.368,0-4.285-2.045-4.285-4.57c0,2.525-1.919,4.57-4.286,4.57c-2.368,0-4.286-2.045-4.286-4.57c0,2.525-1.918,4.57-4.285,4.57
			c-2.368,0-4.287-2.045-4.287-4.57c0,2.525-1.917,4.57-4.285,4.57c-2.367,0-4.286-2.045-4.286-4.57c0,2.525-1.918,4.57-4.285,4.57
			c-2.367,0-4.285-2.045-4.285-4.57c0,2.525-1.919,4.57-4.287,4.57C3.919,48.57,2,46.525,2,44l0,0v18h60V44L62,44z"/>
		<g>
			<path fill="#428BC1" d="M23.766,59.365c-6.819,0.886-11.443-4.585-18.459-1.494C10.711,57.541,18.9,61.79,23.766,59.365
				C22.278,59.559,23.766,59.365,23.766,59.365z"/>
			<path fill="#428BC1" d="M35.407,53.424c-6.801,0.871-11.482-4.683-18.458-1.494C22.372,51.555,30.533,55.879,35.407,53.424
				C34.005,53.604,35.407,53.424,35.407,53.424z"/>
			<path fill="#428BC1" d="M47.05,59.365c-6.815,0.891-11.446-4.597-18.459-1.494C33.975,57.544,42.214,61.802,47.05,59.365
				C45.563,59.56,47.05,59.365,47.05,59.365z"/>
			<path fill="#428BC1" d="M58.693,53.424c-6.806,0.867-11.477-4.665-18.461-1.494C45.672,51.553,53.801,55.872,58.693,53.424
				C57.291,53.603,58.693,53.424,58.693,53.424z"/>
		</g>
	</g>
</g>
</svg>
