<?xml version="1.0" encoding="utf-8"?>
<!-- Generator: Adobe Illustrator 15.0.0, SVG Export Plug-In . SVG Version: 6.00 Build 0)  -->
<!DOCTYPE svg PUBLIC "-//W3C//DTD SVG 1.1//EN" "http://www.w3.org/Graphics/SVG/1.1/DTD/svg11.dtd">
<svg version="1.1" id="Layer_1" xmlns="http://www.w3.org/2000/svg" xmlns:xlink="http://www.w3.org/1999/xlink" x="0px" y="0px"
	 width="64px" height="64px" viewBox="0 0 64 64" enable-background="new 0 0 64 64" xml:space="preserve">
<g>
	<g>
		<g>
			<path fill="#297B9D" d="M15.56,41.335C11.216,28.614,3.888,54.804,3.888,54.804S18.619,50.294,15.56,41.335z"/>
			<path fill="#297B9D" d="M16.828,39.452C16.015,26.034,2,49.341,2,49.341S17.4,48.901,16.828,39.452z"/>
		</g>
		<g>
			<path fill="#297B9D" d="M48.441,41.335c4.344-12.721,11.672,13.469,11.672,13.469S45.383,50.294,48.441,41.335z"/>
			<path fill="#297B9D" d="M47.174,39.452c0.813-13.418,14.827,9.889,14.827,9.889S46.602,48.901,47.174,39.452z"/>
		</g>
	</g>
	<path fill="#42ADE2" d="M37.721,5.106c-3.162-5.554-4.194,7.361-4.194,7.361S39.946,9.017,37.721,5.106z"/>
	<path fill="#42ADE2" d="M23.65,6.896c-5.504,3.189,7.295,4.231,7.295,4.231S27.525,4.649,23.65,6.896z"/>
	<path fill="#42ADE2" d="M29.445,2.12c-8.129-1.426,3.807,10.348,3.807,10.348S35.169,3.125,29.445,2.12z"/>
	<g>
		<g>
			<rect x="20.203" y="55.507" fill="#E08828" width="2.316" height="6.002"/>
			<g>
				<path fill="#E08828" d="M22.027,61.587c0-0.496,1.643-1.49,3.666-1.49c2.025,0,3.668,0.994,3.668,1.49
					c0,0.498-1.643,0.406-3.668,0.406C23.67,61.993,22.027,62.085,22.027,61.587z"/>
				<path fill="#E08828" d="M17.695,61.587c0-0.496,1.641-1.49,3.667-1.49s3.668,0.994,3.668,1.49c0,0.498-1.643,0.406-3.668,0.406
					S17.695,62.085,17.695,61.587z"/>
				<path fill="#E08828" d="M13.361,61.587c0-0.496,1.643-1.49,3.668-1.49c2.026,0,3.668,0.994,3.668,1.49
					c0,0.498-1.643,0.406-3.668,0.406C15.003,61.993,13.361,62.085,13.361,61.587z"/>
			</g>
		</g>
		<g>
			<rect x="41.482" y="55.507" fill="#E08828" width="2.314" height="6.002"/>
			<g>
				<path fill="#E08828" d="M43.305,61.587c0-0.496,1.641-1.49,3.666-1.49s3.668,0.994,3.668,1.49s-1.643,0.406-3.668,0.406
					S43.305,62.083,43.305,61.587z"/>
				<path fill="#E08828" d="M38.971,61.587c0-0.496,1.643-1.49,3.668-1.49s3.668,0.994,3.668,1.49s-1.643,0.406-3.668,0.406
					S38.971,62.083,38.971,61.587z"/>
				<path fill="#E08828" d="M34.639,61.587c0-0.496,1.643-1.49,3.668-1.49s3.668,0.994,3.668,1.49s-1.643,0.406-3.668,0.406
					S34.639,62.083,34.639,61.587z"/>
			</g>
		</g>
	</g>
	<path fill="#42ADE2" d="M54.15,45.427c0,10.25-9.917,11.838-22.15,11.838c-12.232,0-22.149-1.588-22.149-11.838
		C9.851,22.134,15.546,9.798,32,9.798C48.455,9.798,54.15,22.134,54.15,45.427z"/>
	<g>
		<path fill="#FFFFFF" d="M50.795,26.878l-1.113-0.443l1.047-0.583l-1.162-0.293l0.961-0.715l-1.188-0.14l0.858-0.834l-1.196,0.017
			l0.741-0.939l-1.186,0.175l0.615-1.03l-1.15,0.325l0.471-1.099l-1.1,0.476l0.326-1.152l-1.027,0.612l0.174-1.185l-0.939,0.74
			l0.016-1.195l-0.834,0.858l-0.142-1.188l-0.714,0.959l-0.292-1.16l-0.583,1.045l-0.443-1.111l-0.443,1.112l-0.584-1.046
			l-0.293,1.161l-0.717-0.96l-0.137,1.188l-0.836-0.857l0.019,1.197l-0.94-0.742l0.172,1.184l-1.026-0.612l0.327,1.152l-1.102-0.473
			l0.475,1.098l-1.152-0.326l0.613,1.027l-1.184-0.173l0.741,0.939l-1.195-0.017l0.857,0.835l-1.19,0.139l0.959,0.715l-1.159,0.293
			l1.048,0.583l-1.113,0.443l1.11,0.443l-1.044,0.582l1.16,0.295l-0.961,0.715l1.189,0.139l-0.859,0.834l1.198-0.016l-0.741,0.938
			l1.184-0.172l-0.613,1.027l1.152-0.324l-0.475,1.1l1.1-0.473l-0.325,1.15l1.028-0.615l-0.174,1.186l0.94-0.742l-0.019,1.197
			l0.836-0.857l0.137,1.188l0.717-0.959l0.293,1.16l0.584-1.045l0.443,1.111l0.443-1.111l0.583,1.045l0.292-1.16l0.717,0.959
			l0.139-1.188l0.834,0.857l-0.017-1.197l0.938,0.744l-0.171-1.188l1.028,0.615l-0.327-1.152l1.1,0.475l-0.473-1.1l1.152,0.324
			l-0.615-1.027l1.186,0.174l-0.741-0.939l1.196,0.016l-0.857-0.834l1.188-0.139l-0.962-0.717l1.163-0.291l-1.047-0.584
			L50.795,26.878L50.795,26.878z"/>
		<circle fill="#297B9D" cx="42.146" cy="27.663" r="6.289"/>
		<g>
			<path fill="#183144" d="M46.078,27.663c0,2.605-2.111,4.719-4.717,4.719c-2.604,0-4.717-2.113-4.717-4.719
				c0-2.603,2.112-4.716,4.717-4.716C43.967,22.947,46.078,25.06,46.078,27.663z"/>
			<g>
				<circle fill="#FFD93B" cx="41.362" cy="27.663" r="4.062"/>
				<circle fill="#183144" cx="41.362" cy="27.663" r="2.817"/>
			</g>
		</g>
	</g>
	<g>
		<path fill="#FFFFFF" d="M14.318,27.321l-1.046,0.584l1.164,0.291l-0.962,0.717l1.188,0.139l-0.857,0.834l1.197-0.016l-0.742,0.939
			l1.186-0.174l-0.615,1.027l1.152-0.324l-0.474,1.1l1.099-0.475l-0.325,1.152l1.028-0.615l-0.172,1.188l0.938-0.744l-0.017,1.197
			l0.835-0.857l0.139,1.188l0.715-0.959l0.295,1.16l0.584-1.045l0.443,1.111l0.441-1.111l0.582,1.045l0.295-1.16l0.715,0.959
			l0.139-1.188l0.834,0.857l-0.018-1.197L25,33.687l-0.174-1.186l1.029,0.615l-0.328-1.15l1.1,0.473l-0.473-1.1l1.15,0.324
			l-0.611-1.027l1.184,0.172l-0.742-0.938l1.197,0.016l-0.859-0.834l1.189-0.139l-0.959-0.715l1.16-0.295l-1.045-0.582l1.111-0.443
			l-1.111-0.443l1.045-0.583l-1.16-0.293l0.959-0.715l-1.189-0.139l0.859-0.835l-1.197,0.017l0.742-0.939l-1.184,0.173l0.613-1.027
			l-1.152,0.326l0.473-1.098l-1.102,0.473l0.33-1.152l-1.029,0.612L25,20.07l-0.941,0.742l0.018-1.197l-0.834,0.857l-0.139-1.188
			l-0.715,0.96l-0.295-1.161l-0.582,1.046l-0.441-1.112l-0.443,1.111l-0.584-1.045l-0.295,1.16l-0.715-0.959l-0.139,1.188
			l-0.835-0.858l0.017,1.195l-0.938-0.74l0.172,1.185l-1.028-0.612l0.325,1.152l-1.099-0.476l0.473,1.099l-1.151-0.325l0.615,1.03
			l-1.186-0.175l0.742,0.939l-1.197-0.017l0.857,0.834l-1.188,0.14l0.959,0.715l-1.161,0.293l1.046,0.583l-1.113,0.443
			L14.318,27.321L14.318,27.321z"/>
		<circle fill="#297B9D" cx="21.853" cy="27.663" r="6.289"/>
		<g>
			<path fill="#183144" d="M27.357,27.663c0,2.605-2.111,4.719-4.719,4.719c-2.604,0-4.717-2.113-4.717-4.719
				c0-2.603,2.114-4.716,4.717-4.716C25.246,22.947,27.357,25.06,27.357,27.663z"/>
			<g>
				<circle fill="#FFD93B" cx="22.64" cy="27.663" r="4.063"/>
				<path fill="#183144" d="M25.457,27.663c0,1.557-1.26,2.818-2.818,2.818c-1.555,0-2.814-1.262-2.814-2.818
					c0-1.555,1.26-2.816,2.814-2.816C24.197,24.847,25.457,26.108,25.457,27.663z"/>
			</g>
		</g>
	</g>
	<g>
		<path fill="#E5C22E" d="M25.197,37.837h13.604c0,4.301-3.043,7.785-6.801,7.785C28.24,45.622,25.197,42.138,25.197,37.837z"/>
		<path fill="#FFD93B" d="M40.465,38.38L32,40.444l-8.467-2.064c0-5.35,3.791-9.688,8.467-9.688
			C36.675,28.692,40.465,33.03,40.465,38.38z"/>
		<g>
			<path fill="#3E4347" d="M34.961,30.765c0.479,0.551,0.672,1.225,0.428,1.504s-0.834,0.061-1.313-0.49
				c-0.482-0.549-0.673-1.223-0.429-1.504C33.891,29.995,34.479,30.214,34.961,30.765z"/>
			<path fill="#3E4347" d="M29.039,30.765c-0.482,0.551-0.674,1.225-0.43,1.504c0.246,0.279,0.834,0.061,1.314-0.49
				c0.48-0.549,0.672-1.223,0.428-1.504C30.107,29.995,29.518,30.214,29.039,30.765z"/>
		</g>
	</g>
</g>
</svg>
