<?xml version="1.0" encoding="utf-8"?>
<!-- Generator: Adobe Illustrator 15.0.0, SVG Export Plug-In . SVG Version: 6.00 Build 0)  -->
<!DOCTYPE svg PUBLIC "-//W3C//DTD SVG 1.1//EN" "http://www.w3.org/Graphics/SVG/1.1/DTD/svg11.dtd">
<svg version="1.1" id="Layer_1" xmlns="http://www.w3.org/2000/svg" xmlns:xlink="http://www.w3.org/1999/xlink" x="0px" y="0px"
	 width="64px" height="64px" viewBox="0 0 64 64" enable-background="new 0 0 64 64" xml:space="preserve">
<g>
	<g>
		<g>
			<g>
				<g>
					<path fill="#FFC5D3" d="M55.287,31.16c-0.166,0-0.332-0.053-0.473-0.161c-0.33-0.257-0.387-0.729-0.125-1.054
						c1.137-1.419,3.5-4.371,1.039-10.377c-0.158-0.385,0.031-0.821,0.422-0.977c0.389-0.153,0.832,0.031,0.99,0.415
						c2.793,6.813-0.043,10.355-1.256,11.867C55.734,31.062,55.512,31.16,55.287,31.16z"/>
				</g>
				<g>
					<g>
						<path fill="#FFC5D3" d="M41.754,36.027v17.331c0,2.104,1.039,3.045,2.322,3.045c1.285,0,2.324-0.941,2.324-3.045V36.027
							H41.754z"/>
					</g>
				</g>
				<ellipse fill="#FF78B5" cx="44.077" cy="50.654" rx="4.647" ry="2.25"/>
				<ellipse fill="#E86097" cx="46.736" cy="35.357" rx="13.193" ry="11.412"/>
				<ellipse fill="#FF78B5" cx="56.435" cy="19.287" rx="3.618" ry="2.964"/>
				<g>
					<g>
						<g>
							<path fill="#FFC5D3" d="M52.963,43.027v10.331c0,2.104,1.041,3.045,2.324,3.045c1.285,0,2.324-0.941,2.324-3.045V41.027
								C55.605,42.848,52.963,43.027,52.963,43.027z"/>
						</g>
					</g>
					<ellipse fill="#FF78B5" cx="55.287" cy="50.654" rx="4.648" ry="2.25"/>
				</g>
			</g>
			<g>
				<g>
					<g>
						<g>
							<path fill="#FFC5D3" d="M15.045,35.288v22.719c0,2.758,1.363,3.991,3.044,3.991c1.687,0,3.049-1.233,3.049-3.991V35.288
								H15.045z"/>
						</g>
					</g>
					<g>
						<g>
							<path fill="#FFC5D3" d="M29.74,35.288v22.719c0,2.758,1.363,3.991,3.045,3.991c1.686,0,3.047-1.233,3.047-3.991V35.288H29.74
								z"/>
						</g>
					</g>
				</g>
				<ellipse fill="#FF78B5" cx="18.092" cy="54.462" rx="6.093" ry="3"/>
				<ellipse fill="#FF78B5" cx="32.786" cy="54.462" rx="6.093" ry="3"/>
			</g>
		</g>
		<ellipse fill="#E86097" cx="25.439" cy="29.363" rx="20" ry="19.64"/>
	</g>
	<g>
		<g>
			<path fill="#FF78B5" d="M14.418,33.391c0,7.688-2.344,8.919-5.236,8.919c-2.892,0-5.235-6.231-5.235-13.919
				c0-7.687,5.391-13.919,8.282-13.919S14.418,25.704,14.418,33.391z"/>
			<path fill="#FF78B5" d="M36.461,33.391c0,7.688,2.346,8.919,5.234,8.919c2.893,0,5.236-6.231,5.236-13.919
				c0-7.687-5.391-13.919-8.283-13.919C35.76,14.472,36.461,25.704,36.461,33.391z"/>
		</g>
		<g>
			<g>
				<path fill="#FFC5D3" d="M40.432,22.238c0,6.979-2.506,6.509-6.35,11.603c-2.444,3.238-2.717,7.756-8.642,7.756
					c-5.928,0-6.202-4.519-8.644-7.755c-3.846-5.094-6.351-4.622-6.351-11.604c0-6.195,6.712-6.432,14.994-6.432
					C33.719,15.807,40.432,16.043,40.432,22.238z"/>
				<g>
					<g>
						<path fill="#FFFFFF" d="M17.312,19.759c2.801,0,5.073,2.109,5.073,4.713c0,2.602-2.272,4.712-5.073,4.712
							c-2.805,0-5.075-2.11-5.075-4.712C12.237,21.868,14.507,19.759,17.312,19.759z"/>
						<ellipse fill="#3E4347" cx="17.312" cy="24.471" rx="3.511" ry="3.263"/>
					</g>
					<g>
						<ellipse fill="#FFFFFF" cx="33.566" cy="24.471" rx="5.074" ry="4.712"/>
						<ellipse fill="#3E4347" cx="33.566" cy="24.471" rx="3.512" ry="3.263"/>
					</g>
				</g>
				<g>
					<g>
						<path fill="#3E4347" d="M20.103,36.634c0-2.34,2.39-2.793,5.337-2.793s5.335,0.453,5.335,2.793
							c0,1.861-4.248,3.514-5.335,3.514C24.349,40.147,20.103,38.495,20.103,36.634z"/>
					</g>
				</g>
				<line fill="none" stroke="#3E4347" stroke-miterlimit="10" x1="25.44" y1="41.597" x2="25.44" y2="39.468"/>
			</g>
			<g>
				<g>
					<ellipse fill="#FF78B5" cx="13.266" cy="13.604" rx="6.993" ry="6.604"/>
					<ellipse fill="#FF78B5" cx="37.612" cy="13.604" rx="6.993" ry="6.604"/>
				</g>
				<ellipse fill="#FF78B5" cx="25.44" cy="10.998" rx="9.531" ry="9"/>
			</g>
		</g>
	</g>
</g>
</svg>
