<?xml version="1.0" encoding="utf-8"?>
<!-- Generator: Adobe Illustrator 15.0.0, SVG Export Plug-In . SVG Version: 6.00 Build 0)  -->
<!DOCTYPE svg PUBLIC "-//W3C//DTD SVG 1.1//EN" "http://www.w3.org/Graphics/SVG/1.1/DTD/svg11.dtd">
<svg version="1.1" id="Layer_1" xmlns="http://www.w3.org/2000/svg" xmlns:xlink="http://www.w3.org/1999/xlink" x="0px" y="0px"
	 width="64px" height="64px" viewBox="0 0 64 64" enable-background="new 0 0 64 64" xml:space="preserve">
<g>
	<g>
		<g>
			<rect x="20.204" y="55.564" fill="#E08828" width="2.314" height="5.948"/>
			<g>
				<path fill="#E08828" d="M22.026,61.591c0-0.492,1.643-1.478,3.668-1.478s3.668,0.985,3.668,1.478
					c0,0.493-1.643,0.402-3.668,0.402S22.026,62.084,22.026,61.591z"/>
				<path fill="#E08828" d="M17.695,61.591c0-0.492,1.642-1.478,3.667-1.478s3.668,0.985,3.668,1.478
					c0,0.493-1.643,0.402-3.668,0.402S17.695,62.084,17.695,61.591z"/>
				<path fill="#E08828" d="M13.362,61.591c0-0.492,1.643-1.478,3.668-1.478c2.026,0,3.667,0.985,3.667,1.478
					c0,0.493-1.641,0.402-3.667,0.402C15.004,61.993,13.362,62.084,13.362,61.591z"/>
			</g>
		</g>
		<g>
			<rect x="41.481" y="55.564" fill="#E08828" width="2.314" height="5.948"/>
			<g>
				<path fill="#E08828" d="M43.304,61.59c0-0.491,1.643-1.477,3.668-1.477s3.668,0.985,3.668,1.477
					c0,0.493-1.643,0.402-3.668,0.402S43.304,62.083,43.304,61.59z"/>
				<path fill="#E08828" d="M38.972,61.59c0-0.491,1.643-1.477,3.668-1.477s3.666,0.985,3.666,1.477
					c0,0.493-1.641,0.402-3.666,0.402S38.972,62.083,38.972,61.59z"/>
				<path fill="#E08828" d="M34.64,61.59c0-0.491,1.643-1.477,3.666-1.477c2.025,0,3.668,0.985,3.668,1.477
					c0,0.493-1.643,0.402-3.668,0.402C36.282,61.992,34.64,62.083,34.64,61.59z"/>
			</g>
		</g>
	</g>
	<path fill="#3E4347" d="M52.062,43.713c0,12.001-8.982,13.858-20.061,13.858c-11.08,0-20.061-1.857-20.061-13.858
		C11.94,16.444,17.099,2,32.001,2C46.902,2,52.062,16.444,52.062,43.713z"/>
	<path fill="#3E4347" d="M5.157,38.037C1.059,49.299,1.724,52.573,2.884,52.995c1.162,0.423,2.378-2.166,6.477-13.429
		c4.099-11.261,4.832-14.027,3.67-14.449C11.871,24.695,9.257,26.776,5.157,38.037z"/>
	<path fill="#3E4347" d="M58.844,38.037c4.099,11.262,3.434,14.536,2.272,14.958c-1.162,0.423-2.377-2.167-6.477-13.429
		c-4.099-11.261-4.832-14.027-3.67-14.449C52.13,24.695,54.744,26.776,58.844,38.037z"/>
	<path fill="#FFFFFF" d="M32.001,24.083c-22.457,0-17.035,25.698-17.035,25.698c1.965,5.531,8.845,6.492,17.035,6.492
		c8.188,0,15.068-0.961,17.033-6.492C49.034,49.781,54.456,24.083,32.001,24.083z"/>
	<g>
		<g>
			<g>
				<circle fill="#FFFFFF" cx="42.06" cy="15.871" r="3"/>
				<circle fill="#3E4347" cx="42.059" cy="15.871" r="2.081"/>
			</g>
		</g>
	</g>
	<g>
		<g>
			<g>
				<circle fill="#FFFFFF" cx="21.943" cy="15.871" r="3"/>
				<circle fill="#3E4347" cx="21.943" cy="15.871" r="2.08"/>
			</g>
		</g>
	</g>
	<g>
		<path fill="#E08828" d="M27.757,18.989h8.486c0,2.206-1.898,3.992-4.242,3.992C29.655,22.981,27.757,21.195,27.757,18.989z"/>
		<path fill="#F29A2E" d="M37.282,19.267l-5.281,1.059l-5.281-1.059c0-2.742,2.363-4.966,5.281-4.966
			C34.917,14.301,37.282,16.525,37.282,19.267z"/>
		<g>
			<path fill="#3E4347" d="M33.849,15.364c0.299,0.282,0.418,0.628,0.266,0.771c-0.152,0.144-0.52,0.031-0.818-0.251
				c-0.301-0.282-0.42-0.627-0.268-0.771C33.181,14.968,33.548,15.082,33.849,15.364z"/>
			<path fill="#3E4347" d="M30.153,15.364c-0.301,0.282-0.42,0.628-0.268,0.771c0.154,0.144,0.52,0.031,0.82-0.251
				c0.299-0.282,0.418-0.627,0.268-0.771C30.821,14.968,30.452,15.082,30.153,15.364z"/>
		</g>
	</g>
</g>
</svg>
