<?xml version="1.0" encoding="utf-8"?>
<!-- Generator: Adobe Illustrator 15.0.0, SVG Export Plug-In . SVG Version: 6.00 Build 0)  -->
<!DOCTYPE svg PUBLIC "-//W3C//DTD SVG 1.1//EN" "http://www.w3.org/Graphics/SVG/1.1/DTD/svg11.dtd">
<svg version="1.1" id="Layer_1" xmlns="http://www.w3.org/2000/svg" xmlns:xlink="http://www.w3.org/1999/xlink" x="0px" y="0px"
	 width="64px" height="64px" viewBox="0 0 64 64" enable-background="new 0 0 64 64" xml:space="preserve">
<g>
	<g>
		<g>
			<rect x="34.276" y="50.716" fill="#E08828" width="2.513" height="10.786"/>
		</g>
		<g>
			<g>
				<path fill="#E08828" d="M36.255,61.582c0-0.502,1.779-1.508,3.978-1.508s3.981,1.006,3.981,1.508
					c0,0.504-1.783,0.411-3.981,0.411S36.255,62.086,36.255,61.582z"/>
				<path fill="#E08828" d="M31.55,61.582c0-0.502,1.784-1.508,3.982-1.508s3.98,1.006,3.98,1.508c0,0.504-1.782,0.411-3.98,0.411
					S31.55,62.086,31.55,61.582z"/>
				<path fill="#E08828" d="M26.849,61.582c0-0.502,1.783-1.508,3.981-1.508s3.98,1.006,3.98,1.508c0,0.504-1.782,0.411-3.98,0.411
					S26.849,62.086,26.849,61.582z"/>
			</g>
		</g>
	</g>
	<g>
		<g>
			<polygon fill="#E08828" points="14.012,55.674 11.989,54.259 18.303,46.125 20.323,47.54 			"/>
		</g>
		<g>
			<g>
				<path fill="#E08828" d="M13.531,55.436c0.314-0.402,2.377-0.21,4.145,1.03c1.77,1.239,2.574,3.056,2.262,3.459
					c-0.314,0.404-1.692-0.675-3.461-1.913C14.708,56.771,13.218,55.843,13.531,55.436z"/>
				<path fill="#E08828" d="M9.746,52.784c0.314-0.403,2.377-0.208,4.146,1.031c1.768,1.238,2.575,3.055,2.263,3.459
					c-0.317,0.404-1.694-0.676-3.461-1.914C10.924,54.121,9.43,53.189,9.746,52.784z"/>
				<path fill="#E08828" d="M5.962,50.134c0.314-0.403,2.375-0.209,4.146,1.03c1.77,1.239,2.574,3.054,2.261,3.459
					c-0.315,0.404-1.693-0.674-3.461-1.914C7.141,51.47,5.648,50.539,5.962,50.134z"/>
			</g>
		</g>
	</g>
	<g>
		<path fill="#FFD93B" d="M60.871,30.534c4.599,0-4.882,21.091-27.795,21.091c-15.557,0-26.446-6.675-26.446-18.837
			c0-12.162,8.62-24.029,24.2-20.021C46.704,16.849,35.532,30.534,60.871,30.534z"/>
		<path fill="#FFD93B" d="M20.013,21.837c-1.061,4.252,12.396,0.182,9.899-8.617C27.416,4.421,19.063,2,19.063,2
			S22.852,10.459,20.013,21.837z"/>
		<path fill="#FFD93B" d="M20.328,22.29c3.262,3.187,8.001-8.41-1.71-11.78C8.908,7.14,4.234,9.604,4.234,9.604
			S11.606,13.764,20.328,22.29z"/>
		<path fill="#FFD93B" d="M31.342,25.695c-0.324,4.321-12.096-2.05-6.872-10.146c5.223-8.096,14.102-8.945,14.102-8.945
			S32.202,14.137,31.342,25.695z"/>
		<path fill="#FFEA92" d="M57.204,41.198c-5.006,0.887-13.456,4.259-23.041,4.259c-11.388,0-21.17-4.754-25.48-4.451
			c3.838,6.915,12.831,10.619,24.417,10.619C44.469,51.625,52.528,46.432,57.204,41.198z"/>
	</g>
	<g>
		<path fill="#E08828" d="M3.422,31.25l5.607-0.959c0,2.574-0.215,4.336-2.092,4.336C5.062,34.626,3.422,33.824,3.422,31.25z"/>
		<path fill="#F29A2E" d="M9.029,30.29L2,32.211c0-3.203,2.603-6.76,4.937-6.76C9.271,25.451,9.029,27.086,9.029,30.29z"/>
		<path fill="#3E4347" d="M5.459,26.692c-0.24,0.33-0.337,0.731-0.214,0.899c0.125,0.167,0.416,0.037,0.657-0.293
			c0.239-0.33,0.334-0.733,0.212-0.9C5.994,26.231,5.7,26.363,5.459,26.692z"/>
	</g>
	<g>
		<g>
			<path fill="#3E4347" d="M10.969,25.055c0-1.577,1.304-3.261,2.913-3.261c1.607,0,2.916,1.684,2.916,3.261
				c0,1.576-1.309,2.265-2.916,2.265C12.273,27.32,10.969,26.631,10.969,25.055z"/>
		</g>
	</g>
	<path fill="#FFBF3E" d="M48.531,37.279c0,5.311-6.718,9.616-15.004,9.616c-8.287,0-9.757-4.306-9.757-9.616
		c0-5.31,1.47-9.615,9.757-9.615C41.813,27.665,48.531,31.969,48.531,37.279z"/>
	<path fill="#FFBF3E" d="M51.198,36.861c-1.358,0.361-2.534-0.172-2.534-0.172c1.548-1.26,1.885-3.485,1.885-3.485
		c-1.045,0.949-2.821,0.911-2.821,0.911c0.492-1.571,0.226-2.813,0.226-2.813c-2.326,3.357-10.443,3.503-10.443,3.503
		c4.856,3.199,7.499,7.507,7.499,7.507C48.992,40.852,51.198,36.861,51.198,36.861z"/>
</g>
</svg>
