<?xml version="1.0" encoding="utf-8"?>
<!-- Generator: Adobe Illustrator 15.0.0, SVG Export Plug-In . SVG Version: 6.00 Build 0)  -->
<!DOCTYPE svg PUBLIC "-//W3C//DTD SVG 1.1//EN" "http://www.w3.org/Graphics/SVG/1.1/DTD/svg11.dtd">
<svg version="1.1" id="Layer_1" xmlns="http://www.w3.org/2000/svg" xmlns:xlink="http://www.w3.org/1999/xlink" x="0px" y="0px"
	 width="64px" height="64px" viewBox="0 0 64 64" enable-background="new 0 0 64 64" xml:space="preserve">
<g>
	<g>
		<path fill="#A8B2BA" d="M17.912,51.656c-3.41,5.816-6.195,5.973-8.686,4.557s-3.746-3.869-0.336-9.686
			c3.412-5.816,10.195-12.795,12.688-11.379C24.068,36.564,21.322,45.838,17.912,51.656z"/>
		<path fill="#A8B2BA" d="M55.107,46.527c3.41,5.816,2.156,8.27-0.334,9.686c-2.492,1.416-5.275,1.26-8.688-4.557
			c-3.41-5.818-6.154-15.092-3.664-16.509C44.912,33.732,51.697,40.711,55.107,46.527z"/>
	</g>
	<ellipse fill="#A8B2BA" cx="32" cy="52.082" rx="13.875" ry="8.41"/>
	<ellipse fill="#CFDAE8" cx="32" cy="46.559" rx="13" ry="9.283"/>
	<g>
		<g>
			<path fill="#A8B2BA" d="M62,13.81c0,6.52-4.986,11.807-11.129,11.807c-6.148,0-11.133-5.287-11.133-11.807
				C39.738,7.287,44.723,2,50.871,2C57.014,2,62,7.287,62,13.81z"/>
			<path fill="#CFDAE8" d="M57.563,13.81c0,3.937-2.998,7.127-6.691,7.127c-3.699,0-6.693-3.19-6.693-7.127
				c0-3.939,2.994-7.132,6.693-7.132C54.564,6.678,57.563,9.87,57.563,13.81z"/>
		</g>
		<g>
			<ellipse fill="#A8B2BA" cx="13.13" cy="13.81" rx="11.13" ry="11.807"/>
			<path fill="#CFDAE8" d="M19.824,13.81c0,3.937-2.998,7.127-6.693,7.127c-3.699,0-6.693-3.19-6.693-7.127
				c0-3.939,2.994-7.132,6.693-7.132C16.826,6.678,19.824,9.87,19.824,13.81z"/>
		</g>
	</g>
	<g>
		<path fill="#A8B2BA" d="M11.994,35.745C9.656,33.607,9,30.439,9,30.439l1.535,0.296c0,0-1.775-1.717-1.297-5.431l1.49,1.463
			c0,0-1.49-3.771-0.193-7.246l1.652,1.107c0,0-0.502-1.417-0.041-2.387l0.713,0.508c0,0-1.295-3.25-0.117-4.616
			c0.656,1.97,1.434,1.941,1.434,1.941s-0.951-1.476-0.209-2.093c0.756,1.109,1.383,0.387,1.354,0.054
			c-0.041-0.442,0.15-1.069-2.072-1.363c1.775-0.985,3.877-0.301,3.877-0.301s-0.076-1.036-1.629-0.996
			c1.434-1.111,3.436-0.45,3.436-0.45l-2.598,6.305l-3.16,9.397L11.994,35.745z"/>
		<path fill="#A8B2BA" d="M32,7.521c-17.578,0-21.465,11.904-21.465,26.296c0,1.475,9.611,9.689,21.465,9.689
			s21.465-8.215,21.465-9.689C53.465,19.425,49.578,7.521,32,7.521z"/>
		<path fill="#A8B2BA" d="M52.006,35.745C54.344,33.607,55,30.439,55,30.439l-1.535,0.296c0,0,1.777-1.717,1.295-5.431l-1.49,1.463
			c0,0,1.49-3.771,0.195-7.246l-1.65,1.107c0,0,0.502-1.417,0.041-2.387l-0.713,0.508c0,0,1.293-3.25,0.115-4.616
			c-0.654,1.97-1.434,1.941-1.434,1.941s0.953-1.476,0.209-2.093c-0.756,1.109-1.385,0.387-1.355,0.054
			c0.043-0.442-0.146-1.069,2.074-1.363c-1.775-0.985-3.877-0.301-3.877-0.301s0.076-1.036,1.629-0.996
			c-1.434-1.111-3.434-0.45-3.434-0.45l2.598,6.305l3.158,9.397L52.006,35.745z"/>
	</g>
	<g>
		<g>
			<ellipse fill="#D5FF83" cx="19.848" cy="28.003" rx="4" ry="3.931"/>
			<ellipse fill="#3E4347" cx="19.849" cy="28.003" rx="2.571" ry="2.527"/>
		</g>
		<g>
			<ellipse fill="#D5FF83" cx="44.152" cy="28.003" rx="4" ry="3.931"/>
			<ellipse fill="#3E4347" cx="44.151" cy="28.003" rx="2.571" ry="2.527"/>
		</g>
	</g>
	<g>
		<path fill="#555E63" d="M24.84,34.22c0-5.931,4.826-8.183,7.16-8.183s7.16,2.252,7.16,8.183c0,7.548-2.623,9.286-7.16,9.286
			S24.84,41.768,24.84,34.22z"/>
	</g>
	<g>
		<path fill="#96A2AA" d="M27.717,55.762c0,5.076-3.195,6.238-7.135,6.238c-3.941,0-7.137-1.162-7.135-6.238
			c-0.002-5.074,3.193-9.189,7.135-9.189S27.717,50.688,27.717,55.762z"/>
		<path fill="#CFDAE8" d="M25.625,57.137c0,3.588-2.258,4.408-5.043,4.408s-5.045-0.82-5.043-4.408
			c-0.002-3.588,2.258-6.494,5.043-6.494S25.625,53.551,25.625,57.137z"/>
	</g>
	<g>
		<path fill="#96A2AA" d="M50.555,55.764c0,5.074-3.195,6.236-7.135,6.236c-3.941,0-7.137-1.16-7.135-6.236
			c-0.002-5.076,3.193-9.191,7.135-9.191C47.359,46.572,50.555,50.688,50.555,55.764z"/>
		<path fill="#CFDAE8" d="M48.463,57.137c0,3.59-2.258,4.41-5.043,4.41s-5.045-0.82-5.043-4.408
			c-0.002-3.588,2.256-6.496,5.043-6.496C46.205,50.643,48.463,53.551,48.463,57.137z"/>
	</g>
</g>
</svg>
