<?xml version="1.0" encoding="utf-8"?>
<!-- Generator: Adobe Illustrator 15.0.0, SVG Export Plug-In . SVG Version: 6.00 Build 0)  -->
<!DOCTYPE svg PUBLIC "-//W3C//DTD SVG 1.1//EN" "http://www.w3.org/Graphics/SVG/1.1/DTD/svg11.dtd">
<svg version="1.1" id="Layer_1" xmlns="http://www.w3.org/2000/svg" xmlns:xlink="http://www.w3.org/1999/xlink" x="0px" y="0px"
	 width="64px" height="64px" viewBox="0 0 64 64" enable-background="new 0 0 64 64" xml:space="preserve">
<g>
	<path fill="#89664C" d="M9.108,47.658c-1.781,1.779-2.72,0.979-3.793-0.096c-1.074-1.074-1.877-2.014-0.096-3.793
		c1.78-1.779,5.01-4.186,6.084-3.111C12.376,41.732,10.888,45.879,9.108,47.658z"/>
	<path fill="#C1875D" d="M50.056,41.182c0.143-0.328,0.305-0.645,0.433-0.98l9.707,2.219l-8.919-4.676
		c0.367-1.426,0.598-2.906,0.684-4.426L62,32l-10.04-1.32c-0.086-1.518-0.316-2.998-0.683-4.424l8.92-4.675l-9.708,2.218
		c-0.556-1.453-1.255-2.837-2.08-4.133l6.569-7.247l-8.02,5.219c-1.028-1.283-2.188-2.455-3.464-3.491l3.513-8.523l-5.382,7.154
		c-1.49-0.98-3.1-1.795-4.805-2.412L37.199,2l-2.376,7.745C32.963,9.26,31.012,9,29,9c-0.018,0-0.035,0.001-0.053,0.001L26.799,2
		l0.32,7.082c-2.248,0.183-4.403,0.687-6.422,1.469l-3.707-4.927l2.281,5.533c-2.205,1.03-4.218,2.401-5.975,4.044l-4.275-2.783
		l3.352,3.699c-1.787,1.869-3.261,4.04-4.34,6.43l-4.23-0.969l3.799,1.992c-0.969,2.455-1.525,5.117-1.588,7.902L2,32l4.014,0.527
		c0.046,2.035,0.361,4,0.902,5.871c4.245-0.975,9.172-1.516,14.783-1.516C31.39,36.883,41.551,38.492,50.056,41.182z"/>
	<path fill="#FFE2B3" d="M3.803,42.422l4.231-0.969c1.078,2.389,2.552,4.559,4.338,6.428L9.02,51.58l4.276-2.783
		c1.757,1.643,3.77,3.014,5.976,4.045l-2.281,5.533l3.707-4.926c2.019,0.781,4.174,1.285,6.422,1.467L26.799,62l2.148-7.002
		C28.965,54.998,28.983,55,29,55c2.012,0,3.963-0.26,5.823-0.746L37.199,62l-0.378-8.367c1.705-0.615,3.314-1.43,4.805-2.412
		l5.382,7.154l-3.513-8.521c1.275-1.037,2.436-2.209,3.463-3.492l8.021,5.219l-6.569-7.246c0.634-0.998,1.169-2.059,1.646-3.152
		c-8.505-2.689-18.666-4.299-28.356-4.299c-5.611,0-10.538,0.541-14.783,1.516c0.199,0.691,0.425,1.369,0.686,2.031L3.803,42.422z"
		/>
	<g>
		<ellipse fill="#FCFCFA" cx="14.191" cy="26.701" rx="5.958" ry="6.168"/>
		<ellipse fill="#29251C" cx="14.19" cy="26.701" rx="4.096" ry="4.24"/>
	</g>
	<g>
		<ellipse fill="#FCFCFA" cx="32" cy="26.701" rx="7.833" ry="8.109"/>
		<ellipse fill="#29251C" cx="32" cy="26.701" rx="5.385" ry="5.574"/>
	</g>
	<path fill="#C1875D" d="M51.291,45.117c2.746,2.746,1.509,4.195-0.148,5.852s-3.105,2.895-5.852,0.148
		c-2.747-2.748-6.459-7.73-4.802-9.389C42.146,40.072,48.544,42.369,51.291,45.117z"/>
	<path fill="#FFE2B3" d="M12.63,37.408c5.179-0.043,5.053-2.598,8.295-3.262c2.551-0.521,4.618,2.289,8.629,3.072"/>
	<path fill="#29251C" d="M17.487,38.682c0.353-0.696,0.775-1.37,1.347-1.938c0.559-0.571,1.268-1.051,2.099-1.265
		c0.832-0.209,1.748-0.073,2.465,0.338c0.73,0.394,1.286,0.995,1.709,1.651c-0.635-0.457-1.282-0.864-1.954-1.12
		c-0.673-0.252-1.374-0.316-2.04-0.142c-0.672,0.158-1.301,0.533-1.893,0.976C18.629,37.632,18.072,38.158,17.487,38.682z"/>
	<path fill="#E0BB86" d="M18.297,39.508c-0.227,0.134-0.474,0.208-0.74,0.23c-0.265,0.029-0.553-0.023-0.813-0.173
		c-0.255-0.155-0.453-0.425-0.5-0.704c-0.059-0.276-0.028-0.544,0.08-0.785c0.099,0.244,0.17,0.471,0.281,0.652
		c0.112,0.181,0.234,0.315,0.398,0.409C17.326,39.346,17.791,39.383,18.297,39.508z"/>
	<path fill="#E0BB86" d="M26.192,36.68c0.129,0.196,0.201,0.412,0.226,0.647c0.031,0.234-0.015,0.491-0.148,0.725
		c-0.14,0.229-0.383,0.407-0.633,0.444c-0.248,0.047-0.484,0.014-0.694-0.094c0.213-0.099,0.408-0.168,0.561-0.268
		c0.151-0.102,0.261-0.204,0.339-0.341C26.017,37.524,26.058,37.126,26.192,36.68z"/>
	<path fill="#E0BB86" d="M19.117,39.299c0.254-0.337,0.517-0.667,0.852-0.945c0.327-0.284,0.73-0.503,1.179-0.606
		c0.448-0.095,0.938-0.051,1.342,0.149c0.41,0.188,0.742,0.483,0.986,0.832c-0.38-0.192-0.741-0.381-1.117-0.47
		c-0.373-0.091-0.745-0.107-1.106-0.022c-0.365,0.072-0.714,0.241-1.065,0.431C19.837,38.857,19.508,39.115,19.117,39.299z"/>
	
		<ellipse transform="matrix(0.3025 0.9532 -0.9532 0.3025 61.068 -23.447)" fill="#89664C" cx="46.554" cy="30" rx="2.709" ry="1.916"/>
	
		<ellipse transform="matrix(0.3024 0.9532 -0.9532 0.3024 54.8604 -27.9931)" fill="#89664C" cx="46.554" cy="23.481" rx="1.948" ry="1.378"/>
	
		<ellipse transform="matrix(0.3022 0.9532 -0.9532 0.3022 54.6377 -24.4719)" fill="#89664C" cx="44.035" cy="25.085" rx="1.249" ry="0.884"/>
	
		<ellipse transform="matrix(-0.5125 0.8587 -0.8587 -0.5125 37.6001 12.737)" fill="#89664C" cx="15.185" cy="17.042" rx="1.6" ry="1.131"/>
	<path fill="#89664C" d="M18.296,18.338c-0.778-0.464-0.876-1.731-0.222-2.833c0.658-1.1,1.822-1.615,2.601-1.151
		c0.779,0.465,0.88,1.734,0.22,2.834C20.242,18.287,19.077,18.805,18.296,18.338z"/>
	
		<ellipse transform="matrix(-0.5126 0.8586 -0.8586 -0.5126 38.736 5.658)" fill="#89664C" cx="17.762" cy="13.823" rx="0.964" ry="0.682"/>
</g>
</svg>
