<?xml version="1.0" encoding="utf-8"?>
<!-- Generator: Adobe Illustrator 15.0.0, SVG Export Plug-In . SVG Version: 6.00 Build 0)  -->
<!DOCTYPE svg PUBLIC "-//W3C//DTD SVG 1.1//EN" "http://www.w3.org/Graphics/SVG/1.1/DTD/svg11.dtd">
<svg version="1.1" id="Layer_1" xmlns="http://www.w3.org/2000/svg" xmlns:xlink="http://www.w3.org/1999/xlink" x="0px" y="0px"
	 width="64px" height="64px" viewBox="0 0 64 64" enable-background="new 0 0 64 64" xml:space="preserve">
<g>
	<g>
		<g>
			<g>
				<rect x="39.606" y="51.334" fill="#E08828" width="2.355" height="9.155"/>
			</g>
			<g>
				<g>
					<path fill="#E08828" d="M41.46,60.571c0-0.515,1.669-1.548,3.729-1.548c2.062,0,3.733,1.033,3.733,1.548
						c0,0.517-1.672,0.422-3.733,0.422C43.129,60.993,41.46,61.088,41.46,60.571z"/>
					<path fill="#E08828" d="M37.051,60.571c0-0.515,1.671-1.548,3.732-1.548c2.061,0,3.732,1.033,3.732,1.548
						c0,0.517-1.672,0.422-3.732,0.422C38.722,60.993,37.051,61.088,37.051,60.571z"/>
					<path fill="#E08828" d="M32.643,60.571c0-0.515,1.672-1.548,3.732-1.548s3.732,1.033,3.732,1.548
						c0,0.517-1.672,0.422-3.732,0.422S32.643,61.088,32.643,60.571z"/>
				</g>
			</g>
		</g>
	</g>
	<g>
		<g>
			<g>
				<rect x="22.039" y="51.334" fill="#E08828" width="2.355" height="9.155"/>
			</g>
			<g>
				<g>
					<path fill="#E08828" d="M22.541,60.571c0-0.515-1.67-1.548-3.73-1.548c-2.061,0-3.733,1.033-3.733,1.548
						c0,0.517,1.672,0.422,3.733,0.422C20.871,60.993,22.541,61.088,22.541,60.571z"/>
					<path fill="#E08828" d="M26.951,60.571c0-0.515-1.672-1.548-3.732-1.548c-2.062,0-3.732,1.033-3.732,1.548
						c0,0.517,1.671,0.422,3.732,0.422C25.279,60.993,26.951,61.088,26.951,60.571z"/>
					<path fill="#E08828" d="M31.358,60.571c0-0.515-1.672-1.548-3.733-1.548c-2.061,0-3.73,1.033-3.73,1.548
						c0,0.517,1.67,0.422,3.73,0.422C29.687,60.993,31.358,61.088,31.358,60.571z"/>
				</g>
			</g>
		</g>
	</g>
	<g>
		<g>
			<path fill="#FFBF3E" d="M15.478,39.338c0,0-16.002-6.537-12.785-8.104C11.554,26.915,15.478,39.338,15.478,39.338z"/>
			<path fill="#FFBF3E" d="M15.478,39.338c0,0-13.596-11.52-10.369-13.093C13.293,22.257,15.478,39.338,15.478,39.338z"/>
			<path fill="#FFBF3E" d="M15.478,39.338c0,0-17.634-0.595-12.56-3.068C14.31,30.717,15.478,39.338,15.478,39.338z"/>
		</g>
		<g>
			<path fill="#FFBF3E" d="M48.523,39.338c0,0,16.002-6.537,12.785-8.104C52.445,26.915,48.523,39.338,48.523,39.338z"/>
			<path fill="#FFBF3E" d="M48.523,39.338c0,0,13.596-11.52,10.369-13.093C50.708,22.257,48.523,39.338,48.523,39.338z"/>
			<path fill="#FFBF3E" d="M48.523,39.338c0,0,17.635-0.595,12.56-3.068C49.691,30.717,48.523,39.338,48.523,39.338z"/>
		</g>
	</g>
	<g>
		<path fill="#FFD93B" d="M33.982,24.731c2.41,4.229-10.898,4.431-11.736-5.918C21.409,8.465,27.956,3,27.956,3
			S27.534,13.423,33.982,24.731z"/>
		<path fill="#FFD93B" d="M32.69,21.653c-1.782,4.552-9.987-6.343-2.565-13.295s15.568-4.837,15.568-4.837
			S37.453,9.475,32.69,21.653z"/>
		<path fill="#FFD93B" d="M26.244,31.41c1.781,4.552,9.986-6.343,2.565-13.295s-15.568-4.837-15.568-4.837
			S21.481,19.232,26.244,31.41z"/>
	</g>
	<path fill="#FFD93B" d="M50.76,39.866c0,11.245-8.4,12.985-18.761,12.985c-10.362,0-18.757-1.74-18.757-12.985
		c0-23.033,9.174-27.738,18.757-27.738C41.579,12.128,50.76,16.833,50.76,39.866z"/>
	<g>
		<g>
			<path fill="#E08828" d="M28.219,36.977h7.563c0,2.321-1.891,3.887-3.782,3.887S28.219,39.298,28.219,36.977z"/>
			<path fill="#F29A2E" d="M35.781,36.977c0,0-2.431,1.089-3.782,1.089c-1.351,0-3.78-1.089-3.78-1.089
				c0-2.89,1.693-5.229,3.78-5.229C34.088,31.747,35.781,34.087,35.781,36.977z"/>
		</g>
		<path fill="#BC9342" d="M44.74,26.356c-0.361-0.742-0.795-1.459-1.379-2.063c-0.574-0.609-1.299-1.119-2.15-1.347
			c-0.85-0.223-1.791-0.078-2.525,0.36c-0.748,0.419-1.316,1.061-1.75,1.757c0.652-0.486,1.313-0.919,2.002-1.192
			c0.689-0.27,1.408-0.337,2.09-0.151c0.688,0.168,1.332,0.568,1.939,1.039C43.57,25.237,44.141,25.799,44.74,26.356z"/>
		<path fill="#BC9342" d="M19.26,26.356c0.362-0.742,0.795-1.459,1.381-2.063c0.572-0.609,1.298-1.119,2.148-1.347
			c0.852-0.223,1.791-0.078,2.525,0.36c0.748,0.419,1.316,1.061,1.751,1.757c-0.651-0.486-1.313-0.919-2.003-1.192
			c-0.689-0.27-1.408-0.337-2.088-0.151c-0.688,0.168-1.333,0.568-1.941,1.039C20.431,25.237,19.859,25.799,19.26,26.356z"/>
		<g>
			<g>
				<path fill="#3E4347" d="M20.865,32.176c0-1.358,1.028-2.811,2.298-2.811c1.267,0,2.296,1.452,2.296,2.811
					s-1.029,1.953-2.296,1.953C21.894,34.129,20.865,33.534,20.865,32.176z"/>
			</g>
		</g>
		<g>
			<g>
				<path fill="#3E4347" d="M38.541,32.176c0-1.358,1.027-2.811,2.297-2.811c1.267,0,2.297,1.452,2.297,2.811
					s-1.03,1.953-2.297,1.953C39.568,34.129,38.541,33.534,38.541,32.176z"/>
			</g>
		</g>
	</g>
	<path fill="#FFEA92" d="M44.068,51.144c0.048-0.28,0.075-0.564,0.075-0.852c0-4.325-5.437-7.831-12.144-7.831
		c-6.705,0-12.142,3.506-12.142,7.831c0,0.288,0.027,0.572,0.075,0.852c3.261,1.363,7.469,1.708,12.066,1.708
		S40.806,52.507,44.068,51.144z"/>
</g>
</svg>
