<?xml version="1.0" encoding="utf-8"?>
<!-- Generator: Adobe Illustrator 15.0.0, SVG Export Plug-In . SVG Version: 6.00 Build 0)  -->
<!DOCTYPE svg PUBLIC "-//W3C//DTD SVG 1.1//EN" "http://www.w3.org/Graphics/SVG/1.1/DTD/svg11.dtd">
<svg version="1.1" id="Layer_1" xmlns="http://www.w3.org/2000/svg" xmlns:xlink="http://www.w3.org/1999/xlink" x="0px" y="0px"
	 width="64px" height="64px" viewBox="0 0 64 64" enable-background="new 0 0 64 64" xml:space="preserve">
<g>
	<ellipse fill="#B5B5B5" cx="48.388" cy="19.644" rx="13.612" ry="13.644"/>
	<ellipse fill="#FFC5D3" cx="48.29" cy="21.272" rx="10.087" ry="10.111"/>
	<ellipse fill="#B5B5B5" cx="15.612" cy="19.644" rx="13.612" ry="13.644"/>
	<ellipse fill="#FFC5D3" cx="15.709" cy="21.272" rx="10.087" ry="10.111"/>
	<path fill="#C4C5C6" d="M48.49,33.394C46.268,28.37,40.998,17.348,32,17.348c-8.996,0-14.27,11.022-16.49,16.046
		c-1.131,2.553-2.115,5.047-2.474,8.745c-0.627,6.456,6.977,12.011,11.097,12.011C26.104,54.149,28.193,58,32,58
		c3.804,0,5.894-3.851,7.865-3.851c4.121,0,11.723-5.555,11.098-12.011C50.604,38.44,49.619,35.948,48.49,33.394z"/>
	<g>
		<ellipse fill="#FFC5D3" cx="44.662" cy="47.798" rx="4.197" ry="2.93"/>
		<ellipse fill="#FFC5D3" cx="19.338" cy="47.798" rx="4.194" ry="2.93"/>
	</g>
	<g>
		<path fill="#3E4347" d="M35.764,47.79c-0.754-0.803-3.07-0.865-3.763-0.865c-0.692,0-3.008,0.063-3.763,0.865
			c-0.536,0.57-0.12,1.988,1.308,3.211c0.903,0.771,1.763,1.014,2.455,1.014c0.693,0,1.554-0.242,2.457-1.014
			C35.885,49.778,36.301,48.36,35.764,47.79z"/>
		<g>
			<ellipse fill="#FFFFFF" cx="23.072" cy="38.522" rx="6.014" ry="5.914"/>
			<ellipse fill="#3E4347" cx="23.072" cy="38.522" rx="4.163" ry="4.096"/>
		</g>
		<g>
			<ellipse fill="#FFFFFF" cx="40.928" cy="38.522" rx="6.016" ry="5.914"/>
			<ellipse fill="#3E4347" cx="40.928" cy="38.522" rx="4.164" ry="4.096"/>
		</g>
		<g>
			<path fill="#3E4347" d="M30.7,55.056c0.107-0.376,0.394-0.656,0.668-0.881c0.281-0.233,0.596-0.408,0.923-0.559
				c0.333-0.137,0.681-0.249,1.053-0.284c0.353-0.034,0.808-0.024,1.089,0.267c-0.364-0.001-0.639,0.188-0.944,0.301l-0.9,0.404
				c-0.307,0.125-0.611,0.26-0.927,0.374C31.353,54.813,31.018,54.882,30.7,55.056z"/>
		</g>
	</g>
</g>
</svg>
