<?xml version="1.0" encoding="utf-8"?>
<!-- Generator: Adobe Illustrator 15.0.0, SVG Export Plug-In . SVG Version: 6.00 Build 0)  -->
<!DOCTYPE svg PUBLIC "-//W3C//DTD SVG 1.1//EN" "http://www.w3.org/Graphics/SVG/1.1/DTD/svg11.dtd">
<svg version="1.1" id="Layer_1" xmlns="http://www.w3.org/2000/svg" xmlns:xlink="http://www.w3.org/1999/xlink" x="0px" y="0px"
	 width="64px" height="64px" viewBox="0 0 64 64" enable-background="new 0 0 64 64" xml:space="preserve">
<g>
	<g>
		<path fill="#E07E1E" d="M43.094,50.557c-5.179,0-9.553-2.978-9.553-6.503c0-3.522,4.374-6.5,9.553-6.5
			c5.178,0,9.552,2.978,9.552,6.5C52.646,47.579,48.271,50.557,43.094,50.557z"/>
		<path fill="#3E4347" d="M43.094,38.546c5.133,0,8.71,2.903,8.71,5.508c0,2.607-3.577,5.509-8.71,5.509
			c-5.134,0-8.711-2.901-8.711-5.509C34.383,41.449,37.96,38.546,43.094,38.546 M43.094,36.56c-5.74,0-10.395,3.355-10.395,7.494
			c0,4.14,4.654,7.497,10.395,7.497c5.739,0,10.393-3.357,10.393-7.497C53.486,39.915,48.833,36.56,43.094,36.56L43.094,36.56z"/>
	</g>
	<g>
		<path fill="#E07E1E" d="M28.053,25.368c-4.689,0-8.503-3.202-8.503-7.139c0-3.938,3.814-7.14,8.503-7.14
			c4.688,0,8.502,3.202,8.502,7.14C36.555,22.166,32.74,25.368,28.053,25.368z"/>
		<path fill="#3E4347" d="M28.053,12.182c4.108,0,7.579,2.771,7.579,6.048c0,3.278-3.471,6.047-7.579,6.047s-7.58-2.769-7.58-6.047
			C20.473,14.952,23.944,12.182,28.053,12.182 M28.053,10c-5.207,0-9.427,3.684-9.427,8.229s4.22,8.229,9.427,8.229
			c5.205,0,9.426-3.683,9.426-8.229S33.258,10,28.053,10L28.053,10z"/>
	</g>
	<g>
		<path fill="#E07E1E" d="M45.539,31.866c-1.959,0-3.957-1.034-5.483-2.838c-1.388-1.64-2.233-3.714-2.38-5.843
			c-0.142-2.061,0.396-3.923,1.513-5.244c0.989-1.169,2.375-1.813,3.898-1.813c1.958,0,3.958,1.035,5.483,2.839
			c1.389,1.641,2.234,3.717,2.38,5.844c0.142,2.061-0.396,3.923-1.512,5.242C48.448,31.223,47.063,31.866,45.539,31.866
			L45.539,31.866z"/>
		<path fill="#3E4347" d="M43.087,17.217c1.717,0,3.478,0.918,4.833,2.518c1.234,1.459,1.984,3.292,2.113,5.163
			c0.119,1.738-0.323,3.296-1.246,4.387c-1.046,1.237-2.344,1.494-3.248,1.494c-1.717,0-3.477-0.917-4.833-2.519
			c-1.233-1.459-1.983-3.292-2.113-5.161c-0.12-1.739,0.323-3.296,1.246-4.389C40.885,17.476,42.183,17.217,43.087,17.217
			 M43.087,15.041c-1.712,0-3.337,0.7-4.548,2.132c-2.712,3.203-2.324,8.856,0.865,12.625c1.765,2.085,4.016,3.156,6.135,3.156
			c1.713,0,3.338-0.699,4.55-2.132c2.71-3.202,2.322-8.855-0.868-12.625C47.459,16.112,45.206,15.041,43.087,15.041L43.087,15.041z"
			/>
	</g>
	<g>
		<path fill="#E07E1E" d="M28.941,52.868c-1.27,0-2.641-0.303-3.964-0.871c-3.796-1.632-6.35-5.137-5.577-7.65
			c0.475-1.538,2.188-2.492,4.471-2.492c1.27,0,2.641,0.301,3.963,0.87c1.949,0.837,3.602,2.156,4.654,3.715
			c0.945,1.398,1.272,2.796,0.922,3.934C32.936,51.911,31.225,52.868,28.941,52.868L28.941,52.868z"/>
		<path fill="#3E4347" d="M23.871,42.986c1.159,0,2.416,0.276,3.636,0.803c1.759,0.755,3.302,1.979,4.232,3.357
			c0.719,1.063,0.999,2.097,0.771,2.84c-0.322,1.047-1.757,1.748-3.568,1.748c-1.16,0-2.417-0.277-3.637-0.801
			c-3.493-1.503-5.521-4.512-5.003-6.198C20.623,43.689,22.059,42.986,23.871,42.986 M23.871,40.723
			c-2.619,0-4.729,1.155-5.371,3.238c-0.969,3.148,1.784,7.224,6.15,9.101C26.127,53.697,27.602,54,28.941,54
			c2.618,0,4.728-1.156,5.369-3.24c0.971-3.148-1.783-7.222-6.148-9.101C26.685,41.023,25.211,40.723,23.871,40.723L23.871,40.723z"
			/>
	</g>
	<g>
		<path fill="#F29A2E" d="M34.981,18.39c-3.12-1.122-6.489-1.786-10.219-1.786c-1.09,0-2.129,0.064-3.122,0.182
			c1.803,4.575,2.748,9.585,2.748,14.665c0,5.717-1.18,11.28-3.427,16.278c1.197,0.153,2.458,0.243,3.801,0.243
			c1.69,0,3.286-0.029,4.835-0.121c-0.473-2.547-0.719-5.147-0.719-7.768C28.879,32.165,31.025,24.625,34.981,18.39z"/>
		<path fill="#F29A2E" d="M14.808,18.673C5.061,23.156,2.274,33.377,2.274,33.377s0.762,0.651,1.053,1.317
			c0.275,0.632-1.821,0.864-1.216,1.865c1.688,2.784,6.671,6.944,11.914,9.276c2.282-4.309,3.481-9.234,3.481-14.386
			C17.506,26.964,16.576,22.594,14.808,18.673z"/>
		<path fill="#F29A2E" d="M60.257,33.522c0-3.28,3.899-5.849,0-10.456c0,0-2.214,2.577-4.319,4.301
			c-0.141,1.339-0.213,2.674-0.213,3.987c0,3.625,0.506,7.18,1.502,10.585c1.885,0.995,3.03,2.039,3.03,2.039
			C64.18,39.344,60.257,37.031,60.257,33.522z"/>
		<path fill="#F29A2E" d="M49.274,27.09c-2.786-2.254-5.646-4.376-8.715-6.115c-1.618,3.884-2.462,8.149-2.462,12.542
			c0,4.265,0.807,8.434,2.344,12.241c2.895-1.004,6.019-2.455,9.657-4.529c-0.679-3.236-1.021-6.55-1.021-9.874
			C49.077,29.972,49.145,28.541,49.274,27.09z"/>
		<path fill="#FFFFFF" d="M18.428,31.45c0,5.41-1.29,10.464-3.519,14.762c1.517,0.601,3.201,1.076,5.068,1.384
			c2.222-4.795,3.49-10.293,3.49-16.146c0-5.203-1.005-10.125-2.789-14.523c-1.827,0.289-3.49,0.762-4.994,1.373
			C17.433,22.229,18.428,26.701,18.428,31.45z"/>
		<path fill="#3E4347" d="M21.641,16.785c-0.328,0.038-0.645,0.092-0.963,0.142c1.784,4.398,2.789,9.32,2.789,14.523
			c0,5.853-1.269,11.351-3.49,16.146c0.32,0.052,0.654,0.093,0.985,0.133c2.247-4.998,3.427-10.562,3.427-16.278
			C24.389,26.37,23.443,21.36,21.641,16.785z"/>
		<path fill="#3E4347" d="M18.428,31.45c0-4.749-0.995-9.221-2.744-13.15c-0.296,0.121-0.593,0.241-0.876,0.373
			c1.768,3.921,2.698,8.291,2.698,12.777c0,5.151-1.199,10.077-3.481,14.386c0.29,0.129,0.581,0.257,0.884,0.376
			C17.138,41.914,18.428,36.86,18.428,31.45z"/>
		<path fill="#FFFFFF" d="M29.801,40.083c0,2.647,0.257,5.225,0.729,7.703c3.017-0.23,5.896-0.727,9.012-1.728
			c-1.516-3.808-2.365-8.055-2.365-12.542c0-4.667,0.918-9.079,2.549-13.003c-1.232-0.659-2.498-1.254-3.809-1.771
			C32.086,24.663,29.801,32.054,29.801,40.083z"/>
		<path fill="#3E4347" d="M29.801,40.083c0-8.029,2.285-15.42,6.115-21.34c-0.309-0.122-0.621-0.24-0.935-0.354
			c-3.956,6.235-6.103,13.775-6.103,21.693c0,2.62,0.246,5.221,0.719,7.768c0.313-0.019,0.623-0.038,0.932-0.064
			C30.058,45.308,29.801,42.73,29.801,40.083z"/>
		<path fill="#3E4347" d="M40.56,20.975c-0.277-0.156-0.556-0.31-0.835-0.461c-1.631,3.924-2.549,8.336-2.549,13.003
			c0,4.487,0.85,8.734,2.365,12.542c0.298-0.096,0.599-0.195,0.9-0.301c-1.537-3.808-2.344-7.977-2.344-12.241
			C38.098,29.124,38.941,24.858,40.56,20.975z"/>
		<path fill="#FFFFFF" d="M50.569,28.15c-0.142-0.118-0.285-0.235-0.427-0.354c-0.092,1.172-0.145,2.357-0.145,3.558
			c0,3.234,0.336,6.373,0.951,9.384c0.221-0.13,0.44-0.257,0.665-0.391c0.817-0.484,2.671,0.157,4.492,1.028
			c-0.841-3.167-1.303-6.528-1.303-10.021c0-1.106,0.052-2.196,0.143-3.272C53.518,28.971,51.958,29.298,50.569,28.15z"/>
		<path fill="#3E4347" d="M49.998,31.354c0-1.2,0.053-2.386,0.145-3.558c-0.29-0.236-0.578-0.472-0.868-0.707
			c-0.13,1.451-0.197,2.882-0.197,4.265c0,3.324,0.343,6.638,1.021,9.874c0.28-0.159,0.563-0.323,0.851-0.49
			C50.334,37.728,49.998,34.589,49.998,31.354z"/>
		<path fill="#3E4347" d="M55.938,27.367c-0.319,0.263-0.652,0.504-0.991,0.715c-0.091,1.076-0.143,2.166-0.143,3.272
			c0,3.493,0.462,6.854,1.303,10.021c0.378,0.182,0.754,0.372,1.12,0.563c-0.996-3.405-1.502-6.96-1.502-10.585
			C55.725,30.041,55.797,28.706,55.938,27.367z"/>
	</g>
	<g>
		<path fill="#E07E1E" d="M25.725,27.953c-2.938,3.003-3.46,9.679,1.416,10.101c5.904,0.509,8.781,4.975,11.722,1.969
			c2.939-3.001,1.909-7.576-1.549-11.109C33.854,25.382,28.666,24.951,25.725,27.953z"/>
		<path fill="#3E4347" d="M25.797,28.026c-1.472,1.477-2.227,3.669-2.094,5.733c0.076,1.028,0.408,2.04,1.053,2.738
			c0.645,0.703,1.545,1.025,2.521,1.056c2.174,0.132,4.271,0.917,6.18,1.775c0.954,0.411,1.907,0.847,2.773,0.955
			c0.861,0.115,1.52-0.212,2.135-0.907c0.618-0.691,1.039-1.519,1.206-2.401c0.168-0.885,0.085-1.817-0.178-2.714
			c-0.529-1.8-1.656-3.453-3.027-4.864c-1.32-1.339-3.014-2.429-4.941-2.855c-0.962-0.209-1.982-0.229-2.969,0.01
			C27.475,26.793,26.535,27.291,25.797,28.026z M25.654,27.883c1.465-1.578,3.645-2.439,5.875-2.427
			c2.242-0.004,4.492,0.895,6.216,2.469c1.642,1.515,3.019,3.485,3.562,5.833c0.262,1.166,0.295,2.425-0.01,3.623
			C41,38.582,40.353,39.68,39.51,40.513c-0.416,0.425-0.937,0.835-1.565,1.07c-0.627,0.245-1.321,0.271-1.922,0.163
			c-1.21-0.227-2.158-0.757-3.103-1.211c-1.863-0.944-3.725-1.742-5.738-1.965c-0.538-0.064-1.128-0.199-1.65-0.461
			c-0.527-0.259-0.996-0.653-1.349-1.119c-0.71-0.953-0.927-2.129-0.898-3.221c0.029-1.102,0.286-2.17,0.684-3.168
			C24.369,29.606,24.916,28.66,25.654,27.883z"/>
	</g>
	<g>
		<ellipse fill="#FCFCFA" cx="10.791" cy="32.618" rx="5.931" ry="6.293"/>
		<ellipse fill="#29251C" cx="10.79" cy="32.618" rx="4.077" ry="4.326"/>
	</g>
</g>
</svg>
