<?xml version="1.0" encoding="utf-8"?>
<!-- Generator: Adobe Illustrator 15.0.0, SVG Export Plug-In . SVG Version: 6.00 Build 0)  -->
<!DOCTYPE svg PUBLIC "-//W3C//DTD SVG 1.1//EN" "http://www.w3.org/Graphics/SVG/1.1/DTD/svg11.dtd">
<svg version="1.1" id="Layer_1" xmlns="http://www.w3.org/2000/svg" xmlns:xlink="http://www.w3.org/1999/xlink" x="0px" y="0px"
	 width="64px" height="64px" viewBox="0 0 64 64" enable-background="new 0 0 64 64" xml:space="preserve">
<g>
	<g>
		<g>
			<path fill="#E0AC7E" d="M56.339,26.137c4.181-2.971,6.474-16.405,5.396-17.593c-1.081-1.193-13.489,0.914-16.308,5.63
				C43.261,17.802,52.95,28.548,56.339,26.137z"/>
			<path fill="#C1875D" d="M54.682,23.757c2.592-1.842,3.347-10.91,3.347-10.91s-8.363,0.57-10.11,3.492
				C46.576,18.589,52.581,25.251,54.682,23.757z"/>
		</g>
		<g>
			<path fill="#E0AC7E" d="M7.661,26.137C3.48,23.166,1.188,9.731,2.265,8.544c1.081-1.193,13.49,0.914,16.307,5.63
				C20.74,17.802,11.051,28.548,7.661,26.137z"/>
			<path fill="#C1875D" d="M9.317,23.757c-2.59-1.842-3.345-10.91-3.345-10.91s8.362,0.57,10.109,3.492
				C17.425,18.589,11.42,25.251,9.317,23.757z"/>
		</g>
	</g>
	<path fill="#E0AC7E" d="M50.567,35.34C45.201,41.261,47.725,57.828,32,57.828c-22.519,0-13.2-16.567-18.567-22.488
		C1.284,21.933,21.795,12.584,32,12.584S62.717,21.933,50.567,35.34z"/>
	<path id="Hair_6_" fill="#E0AC7E" d="M32.736,29.558c0,0-4.229-15.225-11.319-18.865c0,0,2.881-2.193,5.244-0.658
		c0,0-0.073-2.691-2.263-4.891c0,0,4.322-0.811,6.879,4.004c0,0-0.069-4.678-1.05-7.148c0,0,7.535,3.418,10.143,12.644
		C40.37,14.643,33.164,16.916,32.736,29.558z"/>
	<g>
		<g>
			<g>
				<g>
					<ellipse fill="#3E4347" cx="12.866" cy="29.004" rx="3.951" ry="4.36"/>
				</g>
			</g>
		</g>
		<g>
			<g>
				<g>
					<ellipse fill="#3E4347" cx="51.132" cy="28.845" rx="3.952" ry="4.359"/>
				</g>
			</g>
		</g>
	</g>
	<path fill="#89664C" d="M33.001,53.64c0,2.161-3.135,3.909-7.001,3.909c-3.865,0-6.999-1.75-6.999-3.909
		c0-2.162,3.134-3.911,6.999-3.911C29.867,49.729,33.001,51.478,33.001,53.64z"/>
	<path fill="#FFE2B3" d="M39.435,52.741c0,3.217-5.231,7.837-11.435,9.095c-6.583,1.335-11.436-5.878-11.436-9.095
		s0.246,0.421,6.562,0.421S39.435,49.524,39.435,52.741z"/>
	<g>
		<path fill="#FF717F" d="M29.378,46.996c0,0-5.582,2.719-6.123,9.788c-0.519,6.794-9.823,7.082-9.31,0.081
			c0.515-6.999,6.528-9.876,8.035-9.833C23.488,47.08,29.039,47.018,29.378,46.996z"/>
		<path fill="#E2596C" d="M24.627,47.913c-0.804,0.657-1.641,1.22-2.421,1.834c-0.783,0.611-1.524,1.269-2.16,2.022
			c-0.637,0.753-1.161,1.604-1.526,2.53c-0.372,0.924-0.575,1.918-0.653,2.924c-0.005-1.008,0.115-2.027,0.417-3.007
			c0.295-0.979,0.767-1.912,1.367-2.753c1.188-1.702,2.894-2.959,4.316-4.301L24.627,47.913z"/>
	</g>
	<g>
		<path fill="#89664C" d="M42.959,47.119c0,8.809-7.083,13.571-12.375,9.109c-2.067-1.741-4.315-2.735-6.332-3.733
			c-3.468-1.717-6.939-2.151-6.939-7.72L42.959,47.119z"/>
		<path fill="#FFE2B3" d="M44.584,48.8c0,8.808-7.667,11.454-14.333,5.971c-6.055-4.981-13.121-2.09-13.121-10.897
			c0-2.748,4.668-10.108,4.668-10.108c0-9.12,2.855-15.164,10.202-15.164s10.197,6.044,10.197,15.164
			C42.197,33.765,44.584,46.046,44.584,48.8z"/>
		<g>
			<path fill="#89664C" d="M24.653,34.901c3.532,0.66,5.685,1.006,7.347,4.742"/>
			<path fill="#89664C" d="M39.347,34.901c-3.534,0.66-5.682,1.006-7.347,4.742"/>
		</g>
		<path fill="#89664C" d="M28.439,54.105c1.424-1.989,2.285-4.392,2.831-6.859c0.534-2.476,0.781-5.039,0.73-7.603
			c0.301,2.55,0.307,5.145,0.01,7.728c-0.154,1.29-0.396,2.579-0.762,3.848c-0.365,1.264-0.866,2.523-1.538,3.684L28.439,54.105z"/>
	</g>
</g>
</svg>
