<?xml version="1.0" encoding="utf-8"?>
<!-- Generator: Adobe Illustrator 15.0.0, SVG Export Plug-In . SVG Version: 6.00 Build 0)  -->
<!DOCTYPE svg PUBLIC "-//W3C//DTD SVG 1.1//EN" "http://www.w3.org/Graphics/SVG/1.1/DTD/svg11.dtd">
<svg version="1.1" id="Layer_1" xmlns="http://www.w3.org/2000/svg" xmlns:xlink="http://www.w3.org/1999/xlink" x="0px" y="0px"
	 width="64px" height="64px" viewBox="0 0 64 64" enable-background="new 0 0 64 64" xml:space="preserve">
<g>
	<g>
		<g>
			<path fill="#F6C799" d="M24.405,7.537C20.79,5.725,18.446,2,18.446,2c-0.999,9.813,2.811,12.197,4.964,12.241
				C26.299,14.302,28.578,9.632,24.405,7.537z"/>
		</g>
		<g>
			<path fill="#F6C799" d="M39.485,7.537C43.1,5.725,45.443,2,45.443,2c1,9.813-2.811,12.197-4.964,12.241
				C37.59,14.302,35.313,9.632,39.485,7.537z"/>
		</g>
	</g>
	<g>
		<g>
			<g>
				<path fill="#6F6F6D" d="M61.987,8.581c-5.723-0.182-10.421,0.692-13.233,2.589c-1.769,2.869-2.671,7.803-2.536,13.92
					c5.721,0.18,10.421-0.692,13.231-2.591C61.218,19.63,62.121,14.697,61.987,8.581z"/>
			</g>
			<g>
				<path fill="#3E4347" d="M58.508,12.222c-3.196-0.102-5.822,0.386-7.394,1.446c-0.99,1.604-1.494,4.363-1.419,7.78
					c3.197,0.101,5.824-0.387,7.396-1.447C58.08,18.397,58.585,15.64,58.508,12.222z"/>
			</g>
		</g>
		<g>
			<path fill="#DAE5EF" d="M17.644,25.167c0.169-6.046-0.655-11.012-2.452-13.982c-2.715-1.869-7.383-2.823-13.17-2.681
				c-0.171,6.045,0.653,11.011,2.449,13.98C7.187,24.355,11.856,25.308,17.644,25.167z"/>
		</g>
		<g>
			<path fill="#3E4347" d="M14.235,21.53c0.095-3.407-0.37-6.205-1.383-7.879c-1.528-1.055-4.16-1.591-7.421-1.513
				c-0.098,3.408,0.368,6.206,1.381,7.879C8.342,21.072,10.972,21.611,14.235,21.53z"/>
		</g>
	</g>
	<g>
		<path fill="#DAE5EF" d="M56.518,36.725c0,16.54-10.98,19.755-24.524,19.755c-13.544,0-24.522-3.215-24.522-19.755
			c0-9.075,13.919-31.412,24.522-31.412C42.597,5.313,56.518,24.542,56.518,36.725z"/>
	</g>
	<g>
		<path fill="#6F6F6D" d="M44.261,11.888c-7.18,3.243-14.469,8.716-10.574,15.979c4.158,7.755,9.396,2.743,13.517,5.215
			c3.461,2.075,6.473,1.573,8.894-0.3C54.688,25.743,50.259,17.41,44.261,11.888z"/>
	</g>
	<g>
		<path fill="#F4A19A" d="M51.3,52.098C51.3,58.893,46.774,62,31.998,62c-14.774,0-19.299-3.107-19.299-9.902
			c0-6.797,0.406-14.705,19.299-14.705C50.893,37.393,51.3,45.301,51.3,52.098z"/>
	</g>
	<g>
		<g>
			<ellipse fill="#3E4347" cx="40.721" cy="24.859" rx="4.963" ry="5.401"/>
		</g>
	</g>
	<path fill="#3E4347" d="M30.353,27.027l-0.03-0.117c-0.002-0.01-0.006-0.019-0.008-0.027l-0.111-0.35
		c-0.002-0.006-0.004-0.012-0.006-0.019c-0.064-0.18-0.126-0.337-0.185-0.473c-0.117-0.284-0.261-0.58-0.441-0.91
		c-0.31-0.561-0.685-1.107-1.121-1.628c-0.842-0.999-1.88-1.846-3.003-2.444c-1.13-0.605-2.384-0.981-3.629-1.086
		c-0.643-0.049-1.274-0.031-1.881,0.057c-0.342,0.052-0.646,0.116-0.921,0.192c-0.139,0.039-0.285,0.085-0.459,0.146
		c-0.008,0.002-0.013,0.004-0.019,0.006l-0.318,0.126c-0.01,0.004-0.019,0.008-0.026,0.012l-0.104,0.049
		c-0.202,0.094-0.334,0.313-0.334,0.557v0.138c0,0.329,0.242,0.597,0.54,0.603c0.539,0.007,1.073,0.046,1.592,0.111
		c0.534,0.064,1.06,0.157,1.56,0.28c1.017,0.245,2.015,0.626,2.967,1.13c0.934,0.492,1.737,1.13,2.342,1.681
		c-0.224-0.013-0.463-0.021-0.72-0.021c-0.814,0-1.639,0.081-2.446,0.244c-1.134,0.225-2.166,0.635-3.074,1.216
		c-0.477,0.31-0.908,0.653-1.291,1.032c-0.218,0.218-0.401,0.422-0.553,0.613c-0.081,0.102-0.163,0.209-0.257,0.343
		c-0.003,0.006-0.007,0.011-0.011,0.019l-0.163,0.251c-0.005,0.007-0.009,0.015-0.015,0.023l-0.049,0.086
		c-0.127,0.22-0.11,0.506,0.042,0.707l0.069,0.092c0.108,0.145,0.264,0.22,0.421,0.22c0.103,0,0.207-0.031,0.297-0.098
		c0.387-0.272,0.778-0.525,1.17-0.749c0.408-0.237,0.82-0.448,1.229-0.63c0.872-0.392,1.754-0.67,2.63-0.827
		c0.875-0.169,1.811-0.23,2.771-0.178c0.456,0.023,0.929,0.077,1.406,0.155c0.445,0.07,0.905,0.189,1.362,0.308
		c0.044,0.014,0.09,0.043,0.136,0.043h0.002c0.152,0,0.264-0.088,0.394-0.173C30.323,27.597,30.423,27.291,30.353,27.027z"/>
	<g>
		<g>
			<g>
				<path fill="#3E4347" d="M27.411,48.709c-1.413,3.083-4.1,4.808-6,3.853c-1.898-0.956-2.293-4.233-0.879-7.317
					c1.413-3.085,4.1-4.81,6-3.853C28.431,42.348,28.827,45.623,27.411,48.709z"/>
			</g>
			<g>
				<path fill="#3E4347" d="M36.587,48.707c1.413,3.085,4.1,4.81,6,3.854c1.899-0.958,2.293-4.233,0.879-7.317
					c-1.413-3.085-4.1-4.81-6-3.853C35.567,42.348,35.173,45.623,36.587,48.707z"/>
			</g>
		</g>
		<g>
			<path fill="#FFD092" d="M39.247,52.045c-0.04-1.929-1.277-3.624-3.149-4.642c0.129,0.434,0.29,0.871,0.489,1.304
				c0.002,0.005,0.004,0.009,0.006,0.013c0.279,0.356,0.498,0.749,0.637,1.166c0.117,0.35,0.18,0.718,0.18,1.097
				c0,2.366-2.423,4.285-5.412,4.285c-2.986,0-5.409-1.919-5.409-4.285c0-0.379,0.064-0.747,0.18-1.097
				c0.14-0.417,0.357-0.81,0.638-1.166c0.002-0.004,0.003-0.008,0.005-0.011c0.2-0.435,0.361-0.872,0.489-1.306
				c-1.871,1.018-3.109,2.713-3.149,4.642c0,0.031-0.002,0.063-0.002,0.095c0,3.172,3.246,5.742,7.249,5.742
				c4.005,0,7.251-2.57,7.251-5.742C39.249,52.107,39.249,52.076,39.247,52.045z"/>
		</g>
	</g>
</g>
</svg>
