<?xml version="1.0" encoding="utf-8"?>
<!-- Generator: Adobe Illustrator 15.0.0, SVG Export Plug-In . SVG Version: 6.00 Build 0)  -->
<!DOCTYPE svg PUBLIC "-//W3C//DTD SVG 1.1//EN" "http://www.w3.org/Graphics/SVG/1.1/DTD/svg11.dtd">
<svg version="1.1" id="Layer_1" xmlns="http://www.w3.org/2000/svg" xmlns:xlink="http://www.w3.org/1999/xlink" x="0px" y="0px"
	 width="64px" height="64px" viewBox="0 0 64 64" enable-background="new 0 0 64 64" xml:space="preserve">
<g>
	<path fill="#FC97B2" d="M62,37.293c0,17.264-13.431,15.271-30,15.271c-16.57,0-30,1.992-30-15.271c0-17.264,13.43-25.928,30-25.928
		C48.569,11.365,62,20.029,62,37.293z"/>
	<g>
		<g>
			<path fill="#A5627A" d="M25.945,33.62c0,7.386-3.285,13.37-7.342,13.37c-4.061,0-7.346-5.984-7.346-13.37
				c0-7.384,3.285-13.367,7.346-13.367C22.66,20.253,25.945,26.236,25.945,33.62z"/>
			<ellipse fill="#BF7B90" cx="19.878" cy="33.62" rx="6.087" ry="12.79"/>
		</g>
		<g>
			<path fill="#A5627A" d="M52.723,33.62c0,7.386-3.285,13.37-7.342,13.37c-4.061,0-7.346-5.984-7.346-13.37
				c0-7.384,3.285-13.367,7.346-13.367C49.438,20.253,52.723,26.236,52.723,33.62z"/>
			<ellipse fill="#BF7B90" cx="46.655" cy="33.62" rx="6.087" ry="12.79"/>
		</g>
	</g>
</g>
</svg>
