<?xml version="1.0" encoding="utf-8"?>
<!-- Generator: Adobe Illustrator 15.0.0, SVG Export Plug-In . SVG Version: 6.00 Build 0)  -->
<!DOCTYPE svg PUBLIC "-//W3C//DTD SVG 1.1//EN" "http://www.w3.org/Graphics/SVG/1.1/DTD/svg11.dtd">
<svg version="1.1" id="Layer_1" xmlns="http://www.w3.org/2000/svg" xmlns:xlink="http://www.w3.org/1999/xlink" x="0px" y="0px"
	 width="64px" height="64px" viewBox="0 0 64 64" enable-background="new 0 0 64 64" xml:space="preserve">
<g>
	<path fill="#42ADE2" d="M18.136,22.069c-5.644,1.513-9.088,6.96-8.091,10.681s4.765-0.518,10.409-2.03
		c5.644-1.513,11.026,0.274,10.029-3.446S23.78,20.557,18.136,22.069z"/>
	<path fill="#42ADE2" d="M13.767,20.336c1.701-0.618,1.918-4.311,1.012-6.801c-0.906-2.488-3.02-4.005-4.72-3.386
		s-2.345,3.139-1.438,5.628S12.065,20.955,13.767,20.336z"/>
	<path fill="#42ADE2" d="M20.706,18.414c1.803-0.158,2.968-3.669,2.737-6.309c-0.231-2.639-1.88-4.649-3.683-4.492
		c-1.803,0.158-3.077,2.426-2.847,5.064C17.146,15.316,18.902,18.571,20.706,18.414z"/>
	<path fill="#42ADE2" d="M28.678,10.69c-1.81,0-3.276,2.147-3.276,4.796c0,2.649,1.467,6.045,3.276,6.045s3.277-3.396,3.277-6.045
		C31.955,12.838,30.488,10.69,28.678,10.69z"/>
	<path fill="#42ADE2" d="M3.317,17.486c-1.567,0.904-1.765,3.498-0.439,5.792c1.324,2.294,4.293,4.501,5.859,3.597
		c1.568-0.905,1.141-4.58-0.184-6.874S4.885,16.581,3.317,17.486z"/>
	<path fill="#42ADE2" d="M45.864,44.226c-5.645-1.513-11.351,1.483-12.348,5.204s4.386,1.934,10.029,3.446
		c5.645,1.513,9.412,5.751,10.409,2.03S51.508,45.738,45.864,44.226z"/>
	<path fill="#42ADE2" d="M50.233,42.493c1.7,0.618,4.24-2.07,5.146-4.56s0.262-5.009-1.438-5.628
		c-1.701-0.618-3.813,0.897-4.72,3.387S48.532,41.874,50.233,42.493z"/>
	<path fill="#42ADE2" d="M43.294,40.57c1.804,0.157,3.561-3.098,3.792-5.736c0.23-2.639-1.044-4.906-2.847-5.064
		c-1.803-0.157-3.451,1.854-3.683,4.493C40.326,36.901,41.491,40.412,43.294,40.57z"/>
	<path fill="#42ADE2" d="M35.322,43.688c1.81,0,3.276-3.395,3.276-6.045c0-2.648-1.467-4.795-3.276-4.795
		c-1.811,0-3.277,2.146-3.277,4.796C32.045,40.292,33.513,43.688,35.322,43.688z"/>
	<path fill="#42ADE2" d="M60.683,39.643c-1.567-0.905-3.912,0.221-5.236,2.516c-1.324,2.293-1.752,5.968-0.185,6.873
		c1.567,0.904,4.536-1.303,5.86-3.597S62.25,40.547,60.683,39.643z"/>
</g>
</svg>
