<?xml version="1.0" encoding="utf-8"?>
<!-- Generator: Adobe Illustrator 15.0.0, SVG Export Plug-In . SVG Version: 6.00 Build 0)  -->
<!DOCTYPE svg PUBLIC "-//W3C//DTD SVG 1.1//EN" "http://www.w3.org/Graphics/SVG/1.1/DTD/svg11.dtd">
<svg version="1.1" id="Layer_1" xmlns="http://www.w3.org/2000/svg" xmlns:xlink="http://www.w3.org/1999/xlink" x="0px" y="0px"
	 width="64px" height="64px" viewBox="0 0 64 64" enable-background="new 0 0 64 64" xml:space="preserve">
<g>
	<g>
		<g>
			<g>
				<g>
					<path fill="#F29A2E" d="M12.591,7.343C7.562,6.521,2.794,9.57,2.151,14.186c-1.883,13.545,14.412,10.5,14.412,10.5
						C17.3,20.083,17.618,8.164,12.591,7.343z"/>
				</g>
			</g>
			<g>
				<g>
					<path fill="#AF5A31" d="M10.776,12.281c-2.682-0.439-5.227,1.188-5.568,3.65c-1.006,7.226,7.688,5.604,7.688,5.604
						C13.29,19.079,13.46,12.719,10.776,12.281z"/>
				</g>
			</g>
		</g>
		<g>
			<g>
				<g>
					<path fill="#F29A2E" d="M51.411,7.343c5.029-0.822,9.795,2.228,10.438,6.843c1.883,13.545-14.41,10.5-14.41,10.5
						C46.702,20.083,46.384,8.164,51.411,7.343z"/>
				</g>
			</g>
			<g>
				<g>
					<path fill="#AF5A31" d="M53.226,12.281c2.682-0.439,5.225,1.188,5.568,3.65c1.004,7.226-7.689,5.604-7.689,5.604
						C50.712,19.079,50.542,12.719,53.226,12.281z"/>
				</g>
			</g>
		</g>
	</g>
	<path fill="#F29A2E" d="M5.584,42.238C5.584,50.824,17.412,57,32.002,57c14.588,0,26.414-6.176,26.414-14.762
		c0-11.284,0.758-19.767-6.209-24.777c-4.723-3.396-16.916-6.42-20.205-6.42c-3.293,0-15.486,3.024-20.211,6.42
		C4.824,22.472,5.584,30.954,5.584,42.238z"/>
	<path fill="#FFFFFF" d="M41.927,39.018c-5.212-4.453-5.061-16.482-8.018-20.359c-1.332-1.751-2.484-1.751-3.816,0
		c-2.957,3.877-2.807,15.906-8.02,20.359c-4.181,3.57-11.672-1.74-12.906,1.189c-1.123,2.67,1.362,15.404,22.836,15.404
		c21.47,0,23.954-12.736,22.83-15.404C53.598,37.277,46.106,42.588,41.927,39.018z"/>
	<path fill="#F29A2E" d="M30.824,7c0.338,1.206-0.654,2.17-0.654,2.17c-1.66-1.458-4.969-1.964-4.969-1.964
		c1.273,0.992,0.936,2.521,0.936,2.521c-2.293-0.575-4.211-0.466-4.211-0.466c4.709,2.331,3.668,9.349,3.668,9.349
		c5.586-3.881,12.5-5.744,12.5-5.744C36.506,9.289,30.824,7,30.824,7z"/>
	<path fill="#4C5359" d="M38.455,47.99c-0.732,0.449-1.58,0.629-2.398,0.592c-0.826-0.061-1.607-0.324-2.236-0.822
		c-0.627-0.482-1.09-1.174-1.225-1.934l-0.592-3.367l-0.6,3.367c-0.137,0.76-0.596,1.451-1.227,1.932
		c-0.613,0.5-1.436,0.762-2.215,0.822c-0.863,0.037-1.672-0.143-2.416-0.59c-0.738-0.434-1.35-1.139-1.664-2.039
		c0.045,0.961,0.568,1.896,1.318,2.545c0.744,0.645,1.764,1.023,2.723,1.066c1.041,0.059,2.047-0.236,2.922-0.832
		c0.451-0.316,0.846-0.734,1.154-1.217c0.311,0.482,0.703,0.9,1.156,1.215c0.861,0.596,1.906,0.891,2.9,0.832
		c1.006-0.043,1.986-0.422,2.742-1.066c0.75-0.646,1.273-1.582,1.318-2.543C39.805,46.852,39.191,47.557,38.455,47.99z"/>
	<path fill="#3E4347" d="M47.238,30.227c2.205,0,3.991,1.987,3.991,1.987s0.374,5.085-3.991,5.085c-2.207,0-3.993-1.986-3.993-1.986
		S42.871,30.227,47.238,30.227z"/>
	<path fill="#3E4347" d="M16.762,30.227c-2.204,0-3.991,1.987-3.991,1.987s-0.374,5.085,3.991,5.085
		c2.207,0,3.992-1.986,3.992-1.986S21.129,30.227,16.762,30.227z"/>
	<path fill="#F15A61" d="M37.609,40.514c-1.125-0.848-4.58-0.912-5.607-0.912c-1.032,0-4.484,0.064-5.612,0.912
		c-0.799,0.6-0.18,2.094,1.95,3.387c1.346,0.813,2.63,1.068,3.662,1.068c1.027,0,2.313-0.256,3.656-1.068
		C37.79,42.607,38.409,41.113,37.609,40.514z"/>
</g>
</svg>
