<?xml version="1.0" encoding="utf-8"?>
<!-- Generator: Adobe Illustrator 15.0.0, SVG Export Plug-In . SVG Version: 6.00 Build 0)  -->
<!DOCTYPE svg PUBLIC "-//W3C//DTD SVG 1.1//EN" "http://www.w3.org/Graphics/SVG/1.1/DTD/svg11.dtd">
<svg version="1.1" id="Layer_1" xmlns="http://www.w3.org/2000/svg" xmlns:xlink="http://www.w3.org/1999/xlink" x="0px" y="0px"
	 width="64px" height="64px" viewBox="0 0 64 64" enable-background="new 0 0 64 64" xml:space="preserve">
<g>
	<g>
		<path fill="#4C5359" d="M4.508,2.23c-3.524,2.152-3.386,25.49,0.744,32.955L31.393,19.22C27.438,12.071,7.832,0.199,4.508,2.23z"
			/>
		<path fill="#F7A4A4" d="M9.535,11.319c-1.494,0.91-2.211,16.218,0.412,20.959l16.717-10.211
			C24.151,17.529,10.901,10.483,9.535,11.319z"/>
	</g>
	<g>
		<path fill="#4C5359" d="M59.492,2.23c3.524,2.152,3.386,25.49-0.744,32.955L32.606,19.22C36.562,12.071,56.168,0.199,59.492,2.23z
			"/>
		<path fill="#F7A4A4" d="M54.465,11.319c1.494,0.91,2.212,16.218-0.412,20.959L37.336,22.067
			C39.849,17.529,53.099,10.483,54.465,11.319z"/>
	</g>
	<path fill="#4C5359" d="M31.778,13.105c-27.08,0-29.624,19.422-29.624,30.379C2.154,47.979,15.419,62,31.778,62
		c16.36,0,29.625-14.021,29.625-18.516C61.403,32.527,58.858,13.105,31.778,13.105z"/>
	<g>
		<path fill="#BFFFAB" d="M24.207,38.672c0,0-3.078,4.812-8.824,3.284c-5.745-1.529-5.988-7.226-5.988-7.226
			s3.079-4.811,8.823-3.283C23.963,32.977,24.207,38.672,24.207,38.672z"/>
		<path fill="#93E67F" d="M23.618,36.208c0,0-2.734,3.026-6.487,3.026c-4.074,0-6.491-5.915-6.491-5.915s2.679-3.144,7.58-1.875
			C22.71,32.604,23.618,36.208,23.618,36.208z"/>
		<path fill="#4C5359" d="M19.446,36.136c0,6.584-3.174,6.584-3.174,0C16.271,29.55,19.446,29.55,19.446,36.136z"/>
	</g>
	<g>
		<path fill="#BFFFAB" d="M39.351,38.672c0,0,3.078,4.812,8.822,3.284c5.746-1.529,5.988-7.226,5.988-7.226
			s-3.077-4.811-8.822-3.283C39.594,32.977,39.351,38.672,39.351,38.672z"/>
		<path fill="#93E67F" d="M39.938,36.208c0,0,2.734,3.026,6.487,3.026c4.073,0,6.492-5.915,6.492-5.915s-2.68-3.144-7.581-1.875
			C40.847,32.604,39.938,36.208,39.938,36.208z"/>
		<path fill="#4C5359" d="M44.111,36.136c0,6.584,3.175,6.584,3.175,0C47.286,29.55,44.111,29.55,44.111,36.136z"/>
	</g>
	<path fill="#FFFFFF" d="M40.427,43.97c-2.581-2.01-5.436-8.67-8.649-8.67c-3.213,0-6.066,6.66-8.647,8.67
		c-4.091,3.185-14.989,6.796-14.989,6.796c0.001,0.001,11.631,10.186,23.637,10.186c12.006,0,23.636-10.185,23.637-10.186
		C55.415,50.766,44.517,47.154,40.427,43.97z"/>
	<ellipse fill="#FF94A4" cx="31.778" cy="54.475" rx="1.735" ry="2.546"/>
	<path fill="#4C5359" d="M40.192,53.054c-0.955,0.592-2.059,0.833-3.125,0.781c-1.078-0.081-2.098-0.427-2.916-1.089
		c-0.818-0.638-1.422-1.55-1.596-2.554l-0.772-4.455L31,50.192c-0.178,1.004-0.777,1.917-1.598,2.553
		c-0.801,0.662-1.873,1.006-2.889,1.088c-1.123,0.049-2.18-0.188-3.149-0.781c-0.96-0.573-1.76-1.507-2.167-2.696
		c0.056,1.272,0.738,2.51,1.718,3.364c0.97,0.854,2.297,1.356,3.548,1.412c1.358,0.076,2.67-0.313,3.809-1.101
		c0.589-0.417,1.102-0.97,1.506-1.606c0.404,0.637,0.917,1.188,1.506,1.605c1.122,0.785,2.486,1.176,3.783,1.1
		c1.308-0.058,2.586-0.558,3.572-1.412c0.978-0.854,1.661-2.092,1.719-3.362C41.953,51.545,41.153,52.479,40.192,53.054z"/>
	<g>
		<path fill="#4C5359" d="M35.802,44.751c-0.807-0.988-3.284-1.064-4.024-1.064c-0.739,0-3.217,0.076-4.023,1.064
			c-0.574,0.705-0.131,2.453,1.398,3.962c0.965,0.952,1.886,1.253,2.625,1.253c0.74,0,1.663-0.301,2.627-1.253
			C35.933,47.204,36.378,45.456,35.802,44.751z"/>
	</g>
</g>
</svg>
