<?xml version="1.0" encoding="utf-8"?>
<!-- Generator: Adobe Illustrator 15.0.0, SVG Export Plug-In . SVG Version: 6.00 Build 0)  -->
<!DOCTYPE svg PUBLIC "-//W3C//DTD SVG 1.1//EN" "http://www.w3.org/Graphics/SVG/1.1/DTD/svg11.dtd">
<svg version="1.1" id="Layer_1" xmlns="http://www.w3.org/2000/svg" xmlns:xlink="http://www.w3.org/1999/xlink" x="0px" y="0px"
	 width="64px" height="64px" viewBox="0 0 64 64" enable-background="new 0 0 64 64" xml:space="preserve">
<g>
	<path fill="#45CBEA" d="M62,27.227c-4.504-1.281-7.471,1.556-7.471,1.556s-4.424-3.352-8.884-1.556
		c0.439,3.976,6.713,6.879,9.368,6.879c0,0,3.023,9.906-4.16,9.906c-8.672,0-6.356-8.25-14.787-16.701
		c-7.052-7.068-19.732-8.387-26.667-2.488c-7.307,6.213-9.229,16.772-5.647,25.715c0,0,15.596,1.672,17.246,3.285
		c0,0,32.58,2.563,35.928-4.297c3.633-7.44,0.506-15.421,0.506-15.421C59.896,34.106,62,31,62,27.227z"/>
	<path fill="#DAE5EF" d="M3.752,50.539c4.215,12.66,41.12,18.088,53.174-1.012C32,59.295,8.852,46.566,3.752,50.539z"/>
	<path fill="#FFFFFF" d="M15.706,49.973c1.098,1.385,2.587,2.426,4.188,3.285c1.611,0.848,3.342,1.501,5.12,1.994
		c3.561,0.985,7.296,1.395,11.017,1.311c3.722-0.085,7.444-0.674,11.003-1.821c3.555-1.148,6.942-2.879,9.892-5.214
		c-2.869,2.432-6.218,4.289-9.771,5.568c-3.556,1.279-7.311,2.003-11.095,2.217c-3.784,0.21-7.612-0.076-11.33-0.972
		c-1.857-0.45-3.686-1.067-5.431-1.913c-1.727-0.852-3.429-1.95-4.73-3.477L15.706,49.973z"/>
	<path fill="#FFFFFF" d="M9.192,49.18c0.854,1.757,2.464,3.158,4.157,4.347c1.715,1.188,3.601,2.154,5.55,2.96
		c3.91,1.596,8.105,2.537,12.345,2.8c4.237,0.263,8.539-0.173,12.625-1.406c4.087-1.223,7.942-3.248,11.291-5.931
		c-3.269,2.778-7.083,4.932-11.178,6.288c-4.094,1.367-8.448,1.939-12.773,1.798c-4.328-0.143-8.642-0.975-12.722-2.502
		c-2.035-0.772-4.02-1.715-5.869-2.917c-1.819-1.208-3.639-2.648-4.756-4.741L9.192,49.18z"/>
	<path fill="#FFFFFF" d="M5.305,49.661c1.661,2.789,4.323,4.935,7.185,6.628c2.884,1.69,6.043,2.936,9.298,3.803
		c6.511,1.708,13.506,1.95,20.093,0.193c-6.52,1.998-13.587,2.029-20.271,0.535c-3.345-0.762-6.619-1.91-9.672-3.551
		c-3.021-1.646-5.936-3.787-7.897-6.804L5.305,49.661z"/>
	<path fill="#45CBEA" d="M29.74,55.386c2.873,5.132,9.436,7.063,14.013,4.679c2.459-1.281-4.643,0.195-4.264-5.493
		c0.174-2.601-4.88-2.907-7.659-2.907S28.464,53.106,29.74,55.386z"/>
	<path fill="#3E4347" d="M22.79,48.736c0.3,0.063,0.596,0.087,0.896,0.128c0.298,0.037,0.616,0.101,0.903,0.273
		c0.563,0.4,0.722,1.075,0.757,1.668c-0.11-0.284-0.221-0.566-0.355-0.824c-0.136-0.258-0.302-0.494-0.537-0.634
		c-0.225-0.159-0.514-0.219-0.805-0.296C23.356,48.979,23.058,48.885,22.79,48.736z"/>
	<path fill="#3E4347" d="M3.752,50.539c1.373-1.176,3.318-1.505,5.091-1.503c1.806-0.006,3.567,0.301,5.292,0.62
		c1.723,0.339,3.418,0.729,5.108,0.958c1.658,0.19,3.469,0.299,4.825-0.914c-0.453,0.772-1.3,1.302-2.182,1.558
		c-0.89,0.256-1.813,0.316-2.714,0.291c-1.807-0.048-3.548-0.399-5.266-0.716c-1.714-0.342-3.409-0.685-5.108-0.865
		C7.107,49.811,5.377,49.812,3.752,50.539z"/>
	
		<ellipse transform="matrix(0.9984 0.0571 -0.0571 0.9984 1.435 -1.2566)" fill="#3E4347" cx="22.711" cy="24.487" rx="3.622" ry="1.158"/>
	<g>
		<path fill="#42ADE2" d="M30.703,7.12c0,0,7.269-6.583-4.304-2.001c0,0,0.011-6.648-3.677-0.532c0,0-5.831-5.459-3.291-0.309
			c0,0-11.138-2.756-2.81,1.823c0,0-11.908,2.23,0.862,3.481c5.682,0.558,3.182,15.07,5.346,15.331
			c1.751,0.211,3.512-13.594,8.384-14.052C37.957,10.224,39.186,8.488,30.703,7.12z"/>
		<path fill="#FFFFFF" d="M27.012,7.911c0,0,4.021-4.132-2.791-1.221c0,0-7.061-3.132-3.427,0.338c0,0-8.796,0.39-0.75,1.523
			c1.687,0.237,1.657,1.989,3.674,2.233c1.857,0.224,2.306-1.344,4.037-1.522C34.242,8.59,29.473,7.807,27.012,7.911z"/>
		<g>
			<path fill="#FFFFFF" d="M23.354,23.324c0.358-2.019,0.731-4.037,1.217-6.037c0.246-1,0.519-1.996,0.88-2.975
				c0.381-0.963,0.776-1.976,1.684-2.75c0.157-0.134,0.395-0.116,0.529,0.042c0.135,0.158,0.115,0.395-0.042,0.529
				c-0.008,0.006-0.015,0.012-0.022,0.017l-0.016,0.012c-0.715,0.521-1.204,1.458-1.611,2.361c-0.407,0.922-0.736,1.889-1.04,2.863
				C24.33,19.339,23.835,21.331,23.354,23.324z"/>
			<path fill="#FFFFFF" d="M22.713,21.303c-0.006-1.716-0.123-3.429-0.379-5.115c-0.128-0.843-0.289-1.68-0.492-2.504
				c-0.203-0.817-0.444-1.65-0.751-2.398l-0.007-0.017c-0.079-0.192,0.013-0.412,0.205-0.49c0.191-0.079,0.411,0.013,0.489,0.205
				c0.004,0.008,0.007,0.018,0.01,0.026c0.282,0.864,0.454,1.701,0.604,2.561c0.146,0.855,0.247,1.715,0.314,2.575
				C22.84,17.867,22.832,19.591,22.713,21.303z"/>
			<path fill="#FFFFFF" d="M22.944,22.798c0.217-1.77,0.354-3.546,0.403-5.323c0.043-1.771,0.017-3.563-0.17-5.295l-0.002-0.016
				c-0.022-0.206,0.127-0.392,0.333-0.414c0.206-0.022,0.391,0.126,0.413,0.333c0.001,0.009,0.002,0.018,0.002,0.026
				c0.068,1.824-0.034,3.604-0.202,5.389C23.548,19.28,23.285,21.048,22.944,22.798z"/>
		</g>
	</g>
	<path fill="#3E4347" d="M21.011,44.126l0.017-0.066c0.002-0.006,0.004-0.011,0.005-0.016l0.063-0.196
		c0.002-0.003,0.002-0.006,0.003-0.01c0.037-0.102,0.072-0.189,0.105-0.267c0.066-0.159,0.148-0.326,0.251-0.511
		c0.176-0.315,0.388-0.622,0.636-0.915c0.479-0.563,1.068-1.038,1.704-1.375c0.642-0.34,1.354-0.552,2.06-0.61
		c0.366-0.027,0.725-0.018,1.068,0.032c0.194,0.028,0.366,0.065,0.521,0.107c0.08,0.022,0.163,0.049,0.262,0.083
		c0.005,0.001,0.008,0.002,0.011,0.004l0.181,0.069c0.006,0.003,0.012,0.005,0.016,0.007l0.058,0.028
		c0.114,0.053,0.189,0.176,0.189,0.313v0.078c0,0.185-0.137,0.335-0.307,0.339c-0.306,0.003-0.607,0.025-0.903,0.062
		c-0.304,0.036-0.601,0.088-0.885,0.157c-0.577,0.138-1.145,0.353-1.684,0.636c-0.529,0.277-0.986,0.636-1.33,0.945
		c0.127-0.007,0.264-0.012,0.408-0.012c0.463,0,0.932,0.046,1.389,0.137c0.644,0.127,1.229,0.357,1.745,0.684
		c0.271,0.175,0.516,0.368,0.733,0.581c0.123,0.121,0.229,0.236,0.313,0.345c0.046,0.058,0.093,0.116,0.146,0.192
		c0.001,0.003,0.003,0.007,0.006,0.011l0.093,0.141c0.003,0.004,0.004,0.008,0.008,0.014l0.028,0.049
		c0.071,0.123,0.062,0.283-0.024,0.396l-0.039,0.052c-0.062,0.081-0.149,0.124-0.239,0.124c-0.059,0-0.117-0.019-0.169-0.056
		c-0.219-0.152-0.441-0.295-0.663-0.42c-0.232-0.134-0.466-0.253-0.697-0.354c-0.496-0.22-0.996-0.377-1.493-0.465
		c-0.496-0.095-1.027-0.13-1.573-0.1c-0.26,0.013-0.527,0.042-0.798,0.087c-0.253,0.038-0.515,0.105-0.773,0.172
		c-0.024,0.009-0.052,0.025-0.077,0.025h-0.001c-0.086,0-0.15-0.05-0.224-0.098C21.027,44.446,20.971,44.274,21.011,44.126z"/>
</g>
</svg>
