<?xml version="1.0" encoding="utf-8"?>
<!-- Generator: Adobe Illustrator 15.0.0, SVG Export Plug-In . SVG Version: 6.00 Build 0)  -->
<!DOCTYPE svg PUBLIC "-//W3C//DTD SVG 1.1//EN" "http://www.w3.org/Graphics/SVG/1.1/DTD/svg11.dtd">
<svg version="1.1" id="Layer_1" xmlns="http://www.w3.org/2000/svg" xmlns:xlink="http://www.w3.org/1999/xlink" x="0px" y="0px"
	 width="64px" height="64px" viewBox="0 0 64 64" enable-background="new 0 0 64 64" xml:space="preserve">
<g>
	<g>
		<path fill="#947151" d="M38.838,48.479c3.955,3.389,9.188,3.791,15.283-1.481c5.188-4.486,8.346-9.959,7.822-17.384
			c-0.766-10.876-13.277-9.011-12.83,0.518C49.705,42.748,37.689,47.494,38.838,48.479z"/>
		<path d="M52.807,32.594c-0.249-5.307,3.012-8.531,6.528-9.02c-3.86-3.317-10.551-0.464-10.222,6.551
			c0.592,12.617-11.424,17.363-10.275,18.347c1.447,1.241,3.068,2.075,4.838,2.384C47.316,47.836,53.258,42.213,52.807,32.594z"/>
		<path fill="#FFE8BB" d="M51.215,31.514c-0.256-5.458,3.363-8.616,7.001-8.696c-3.85-2.338-9.565,0.97-9.267,7.345
			c0.591,12.617-11.26,17.326-10.111,18.309c0.741,0.635,1.527,1.166,2.355,1.573C44.293,47.504,51.705,41.978,51.215,31.514z"/>
	</g>
	<path fill="#5E4433" d="M23.883,34.451c0.065,2.299-5.401,9.021-13.276-1.329c0,0-7.418,0.54-8.445-1.626
		c-1.432-3.022,7.076-4.776,9.283-3.404C16.67,31.34,23.617,25.099,23.883,34.451z"/>
	<path fill="#5E4433" d="M40.541,49.741c0,1.518-4.854,2.743-10.842,2.743c0,0-10.84,0.519-10.84-0.997
		c0-1.513,4.854-4.489,10.84-4.489C35.688,46.998,40.541,48.229,40.541,49.741z"/>
	<path fill="#947151" d="M47.504,35.095c0,9.929-7.365,17.978-16.453,17.978c-9.086,0-4.316-14.86-15.732-23.253
		c-7.54-5.542-2.134-17.563,15.732-12.703C39.869,19.515,47.504,25.165,47.504,35.095z"/>
	<g>
		<path fill="#947151" d="M42.196,53.17c0,1.518-4.854,2.744-10.843,2.744c0,0-10.84,0.52-10.84-0.998
			c0-1.513,4.855-4.488,10.84-4.488C37.343,50.428,42.196,47.74,42.196,53.17z"/>
		<g>
			<path fill="#947151" d="M41.66,50.826c0,0,0.148,2.281-5.396,2.281c-5.548,0-10.043-4.966-10.043-11.096s4.495-11.1,10.043-11.1
				C50.621,30.912,45.397,45.306,41.66,50.826z"/>
			<path fill="#FFE8BB" d="M31.47,39.855c0-3.674,1.621-6.922,4.11-8.943c-5.227,0.391-9.932,5.223-9.869,11.096
				c0.056,5.346,3.441,8.029,2.343,8.42c-8.787,3.138,1.209,0.756,8.21,2.645C38.421,53.654,31.47,45.982,31.47,39.855z"/>
		</g>
	</g>
	<path d="M31.051,17.117c-7.83-2.13-13.266-1.017-16.268,1.371c1.862,0.217,4.12-0.032,6.342,0.173
		c13.341,1.228,28.613,14.573,20.535,32.165c3.929-3.967,5.844-9.271,5.844-15.731C47.504,25.165,39.869,19.515,31.051,17.117z"/>
	<path fill="#FFE8BB" d="M24.67,18.046c10.57,2.875,20.6,9.626,20.6,21.53c0,2.744-1.564,8.74-3.609,11.25
		c3.865-2.77,6.109-9.438,6.109-15.66c0-9.929-7.523-15.871-16.341-18.27c-5.612-1.526-10.37-1.167-13.508-0.086
		C19.978,16.989,22.221,17.38,24.67,18.046z"/>
	<g>
		<g>
			<g>
				<g>
					<path fill="#5E4433" d="M19.895,13.671c0.488,5.752-0.783,5.747-2.336,5.904c-1.551,0.156-2.802,0.417-3.289-5.334
						c-0.261-3.104,2.336-5.904,2.336-5.904S19.631,10.568,19.895,13.671z"/>
				</g>
			</g>
		</g>
		<path fill="#947151" d="M25.371,20.377c0,5.923-4.393,10.724-9.814,10.724c-5.421,0-9.67-2.923-9.814-4.551
			c-0.519-5.896,5.629-13.3,11.05-13.3S25.371,14.455,25.371,20.377z"/>
		<g>
			<path fill="#947151" d="M22.379,13.979c-0.65,5.733-1.892,5.429-3.438,5.221c-1.547-0.209-2.819-0.249-2.168-5.98
				C17.125,10.128,20.211,8,20.211,8S22.729,10.885,22.379,13.979z"/>
			<path fill="#F4A19A" d="M21.439,15.279c-0.484,4.279-1.412,4.053-2.566,3.897c-1.155-0.156-2.103-0.184-1.616-4.463
				c0.26-2.308,2.563-3.895,2.563-3.895S21.702,12.972,21.439,15.279z"/>
		</g>
		<g>
			<path fill="#FFE8BB" d="M15.975,21.385c0,0-1.488,1.903-3.325,1.903c-1.836,0-2.601-1.903-2.601-1.903s0.765-3.484,2.601-3.484
				C14.487,17.901,15.975,21.385,15.975,21.385z"/>
			<path d="M14.616,21.243c0,0-0.911,1.165-2.038,1.165c-1.125,0-1.595-1.165-1.595-1.165s0.47-2.136,1.595-2.136
				C13.705,19.106,14.616,21.243,14.616,21.243z"/>
		</g>
		<ellipse fill="#FFE8BB" cx="14.16" cy="29.315" rx="4.79" ry="5.235"/>
		<path fill="#FFE8BB" d="M15.975,24.951l0.8-0.623l-0.607-0.542h0.958l-0.528-0.498l1.965-0.881l-1.066-0.409
			c0,0,1.294-3.99,3.691-0.997c0,0,2.702,1.081,4.527,0.457c1.826-0.623-1.295,1.83-2.436,1.83c-1.142-0.001,2.091,0,2.091,0
			l-2.775,1.662h1.84l-2.971,2.286l0.946,0.814h-2.136l0.422,1.463l-2.211-0.572L15.975,24.951z"/>
	</g>
	<path fill="#947151" d="M25.71,36.446c0.064,2.298-5.402,9.021-13.277-1.329c0,0-7.417,0.539-8.445-1.627
		c-1.433-3.021,7.075-4.775,9.282-3.403C18.496,33.334,25.443,27.094,25.71,36.446z"/>
</g>
</svg>
