<?xml version="1.0" encoding="utf-8"?>
<!-- Generator: Adobe Illustrator 15.0.0, SVG Export Plug-In . SVG Version: 6.00 Build 0)  -->
<!DOCTYPE svg PUBLIC "-//W3C//DTD SVG 1.1//EN" "http://www.w3.org/Graphics/SVG/1.1/DTD/svg11.dtd">
<svg version="1.1" id="Layer_1" xmlns="http://www.w3.org/2000/svg" xmlns:xlink="http://www.w3.org/1999/xlink" x="0px" y="0px"
	 width="64px" height="64px" viewBox="0 0 64 64" enable-background="new 0 0 64 64" xml:space="preserve">
<g>
	<path fill="#FFE3C7" d="M15.775,52.021c-6.748-4.377-9.438-21.369-7.238-29.107c1.638-5.759,7.832-14.246,13.393-16.459
		c4.678-1.863,15.461-1.863,20.139,0c5.563,2.213,11.755,10.701,13.393,16.459c2.203,7.738,0.513,24.73-6.238,29.107
		C34.991,61.25,30.007,61.251,15.775,52.021z"/>
	<g>
		<g>
			<g>
				<path fill="#423223" d="M5.072,24.667c3.614,7.89,4.5,8.198,7.912-1.18c1.819-5.004,0.545-7.993,2.66-11.226
					c1.178-1.802,3.906-4.748,3.906-4.748S-1.749,9.766,5.072,24.667z"/>
			</g>
		</g>
		<g>
			<g>
				<path fill="#947151" d="M14.179,7.218c-5.378,3.458-16.9,2.086-10.08,16.988c3.614,7.89,4.5,8.199,7.912-1.18
					c1.819-5.004,0.545-7.993,2.66-11.226c1.178-1.802,4.879-4.287,4.879-4.287S17.87,4.844,14.179,7.218z"/>
			</g>
		</g>
	</g>
	<g>
		<g>
			<g>
				<path fill="#423223" d="M58.928,24.662c-3.614,7.89-4.5,8.199-7.912-1.18c-1.819-5.004-0.545-7.993-2.66-11.226
					c-1.178-1.802-3.906-4.748-3.906-4.748S65.748,9.761,58.928,24.662z"/>
			</g>
		</g>
		<g>
			<g>
				<path fill="#947151" d="M49.82,7.213c5.378,3.458,16.9,2.086,10.08,16.988c-3.614,7.889-4.5,8.199-7.912-1.18
					c-1.819-5.004-0.545-7.993-2.66-11.226c-1.178-1.802-4.879-4.287-4.879-4.287S46.13,4.839,49.82,7.213z"/>
			</g>
		</g>
	</g>
	<g>
		<g>
			<g>
				<ellipse fill="#FFFFFF" cx="17.749" cy="30.735" rx="6" ry="6"/>
			</g>
		</g>
	</g>
	<g>
		<g>
			<g>
				<ellipse fill="#3E4347" cx="16.249" cy="30.735" rx="4.5" ry="4.5"/>
			</g>
		</g>
	</g>
	<g>
		<g>
			<g>
				<ellipse fill="#FFFFFF" cx="46.25" cy="30.734" rx="6" ry="6"/>
			</g>
		</g>
	</g>
	<g>
		<g>
			<g>
				<ellipse fill="#3E4347" cx="47.75" cy="30.734" rx="4.5" ry="4.5"/>
			</g>
		</g>
	</g>
	<g>
		<path fill="#7D644B" d="M21.689,48.769l4.65,4.858c2.796,2.908,8.525,2.91,11.317,0l4.652-4.858l-4.78-4.992H26.469L21.689,48.769
			z"/>
		<g>
			<path fill="#F15A61" d="M32,39.588c0,0-4.861,6.939-4.281,10.306c0.818,4.765,7.744,4.765,8.562,0
				C36.86,46.527,32,39.588,32,39.588z"/>
		</g>
		<g>
			<path fill="#BA454B" d="M32,51.68l1.083-6.713h-2.166L32,51.68L32,51.68z"/>
		</g>
		<g>
			<rect x="26.986" y="41.494" fill="#423223" width="10.027" height="4.556"/>
		</g>
		<path fill="#947151" d="M47.834,42.58l-7.142-7.463c-4.295-4.465-13.093-4.469-17.381,0l-7.146,7.463
			c-2.027,2.117-2.027,5.549,0,7.668c2.024,2.111,5.314,2.111,7.342,0l7.148-7.461c0.688-0.721,2.001-0.721,2.69,0l7.146,7.461
			c2.028,2.111,5.316,2.111,7.342,0C49.86,48.129,49.86,44.697,47.834,42.58z"/>
		<g>
			<path fill="#3E4347" d="M26.101,35.646c0-2.629,2.642-3.136,5.898-3.136c3.258,0,5.898,0.507,5.898,3.136
				c0,2.088-4.695,3.941-5.898,3.941C30.793,39.588,26.101,37.734,26.101,35.646z"/>
		</g>
		<g>
			<g>
				
					<rect x="23.606" y="38.281" transform="matrix(0.7068 -0.7075 0.7075 0.7068 -20.4521 28.6328)" fill="#3E4347" width="1.415" height="1.414"/>
				
					<rect x="21.225" y="41.031" transform="matrix(0.7068 -0.7075 0.7075 0.7068 -23.0958 27.7549)" fill="#3E4347" width="1.415" height="1.414"/>
				
					<rect x="24.356" y="42.031" transform="matrix(0.7068 -0.7075 0.7075 0.7068 -22.8852 30.2631)" fill="#3E4347" width="1.415" height="1.414"/>
			</g>
			<g>
				
					<rect x="38.978" y="38.281" transform="matrix(-0.7068 -0.7075 0.7075 -0.7068 40.1521 94.6176)" fill="#3E4347" width="1.415" height="1.414"/>
				
					<rect x="41.359" y="41.031" transform="matrix(-0.7068 -0.7075 0.7075 -0.7068 42.2702 100.9956)" fill="#3E4347" width="1.415" height="1.414"/>
				
					<rect x="38.228" y="42.031" transform="matrix(-0.7068 -0.7075 0.7075 -0.7068 36.2191 100.4874)" fill="#3E4347" width="1.415" height="1.414"/>
			</g>
		</g>
	</g>
</g>
</svg>
