<?xml version="1.0" encoding="utf-8"?>
<!-- Generator: Adobe Illustrator 15.0.0, SVG Export Plug-In . SVG Version: 6.00 Build 0)  -->
<!DOCTYPE svg PUBLIC "-//W3C//DTD SVG 1.1//EN" "http://www.w3.org/Graphics/SVG/1.1/DTD/svg11.dtd">
<svg version="1.1" id="Layer_1" xmlns="http://www.w3.org/2000/svg" xmlns:xlink="http://www.w3.org/1999/xlink" x="0px" y="0px"
	 width="64px" height="64px" viewBox="0 0 64 64" enable-background="new 0 0 64 64" xml:space="preserve">
<g>
	<g>
		<g>
			<path fill="#947151" d="M60.561,10.42c0,4.65-3.877,8.42-8.654,8.42c-4.781,0-8.658-3.77-8.658-8.42S47.125,2,51.906,2
				C56.684,2,60.561,5.77,60.561,10.42z"/>
			<path fill="#E0AC7E" d="M57.109,10.42c0,2.809-2.33,5.084-5.203,5.084c-2.877,0-5.205-2.275-5.205-5.084s2.328-5.084,5.205-5.084
				C54.779,5.336,57.109,7.611,57.109,10.42z"/>
		</g>
		<g>
			<ellipse fill="#947151" cx="12.096" cy="10.42" rx="8.654" ry="8.42"/>
			<ellipse fill="#E0AC7E" cx="12.095" cy="10.42" rx="5.204" ry="5.084"/>
		</g>
	</g>
	<path fill="#947151" d="M62,37.107C62,55.15,41.779,62,32,62S2,55.15,2,37.107c0-22.973,10.99-28.26,30-28.26S62,14.135,62,37.107z
		"/>
	<path fill="#E0AC7E" d="M18.873,45.576c0-9.293,8.881-12.822,13.178-12.822c4.295,0,13.176,3.529,13.176,12.822
		c0,11.834-4.826,14.559-13.176,14.559S18.873,57.41,18.873,45.576z"/>
	<path fill="#947151" d="M32.693,2.012c0.287,1.564-0.555,2.814-0.555,2.814c-1.412-1.891-4.225-2.547-4.225-2.547
		c1.082,1.287,0.795,3.271,0.795,3.271c-1.949-0.746-3.58-0.605-3.58-0.605c4.002,3.023,3.117,12.125,3.117,12.125
		c4.748-5.033,10.627-7.449,10.627-7.449C37.523,4.98,32.693,2.012,32.693,2.012z"/>
	<path fill="#3E4347" d="M36.367,57.039c0.082,0,0.127-0.186,0.127-0.293c0-0.744-1.992-1.352-4.453-1.352
		c-2.459,0-4.453,0.605-4.453,1.352c0,0.102,0.035,0.293,0.105,0.293H36.367z"/>
	<g>
		<path fill="#3E4347" d="M22.758,45.852c0-3.834,4.141-4.574,9.242-4.574c5.105,0,9.242,0.74,9.242,4.574
			c0,3.053-7.355,5.76-9.242,5.76S22.758,48.904,22.758,45.852z"/>
	</g>
	<path fill="#3E4347" d="M59.135,30.674l-1.686,0.297l-1.686,0.275c-1.123,0.184-2.252,0.338-3.377,0.49
		c-2.256,0.293-4.516,0.525-6.779,0.713c-4.529,0.367-9.07,0.549-13.613,0.545s-9.088-0.186-13.619-0.58
		c-4.533-0.408-9.053-1-13.516-2.029l-0.016-0.004c-0.055-0.012-0.09-0.066-0.074-0.121c0.01-0.047,0.059-0.08,0.105-0.076
		c2.256,0.145,4.516,0.262,6.773,0.359c2.26,0.104,4.52,0.191,6.779,0.256c4.521,0.131,9.043,0.186,13.566,0.176
		c4.521,0.01,9.047-0.041,13.568-0.145c4.523-0.096,9.037-0.289,13.57-0.359c0.057,0,0.104,0.045,0.105,0.1
		c0,0.049-0.037,0.092-0.084,0.1L59.135,30.674z"/>
	<g>
		<path fill="#3E4347" d="M19.566,32.473c0,1.621-1.629,2.938-3.639,2.938s-3.641-1.316-3.641-2.938s1.631-1.168,3.641-1.168
			S19.566,30.852,19.566,32.473z"/>
		<path fill="#3E4347" d="M51.713,32.473c0,1.621-1.631,2.938-3.639,2.938c-2.012,0-3.641-1.316-3.641-2.938
			s1.629-1.168,3.641-1.168C50.082,31.305,51.713,30.852,51.713,32.473z"/>
	</g>
</g>
</svg>
