<?xml version="1.0" encoding="utf-8"?>
<!-- Generator: Adobe Illustrator 15.0.0, SVG Export Plug-In . SVG Version: 6.00 Build 0)  -->
<!DOCTYPE svg PUBLIC "-//W3C//DTD SVG 1.1//EN" "http://www.w3.org/Graphics/SVG/1.1/DTD/svg11.dtd">
<svg version="1.1" id="Layer_1" xmlns="http://www.w3.org/2000/svg" xmlns:xlink="http://www.w3.org/1999/xlink" x="0px" y="0px"
	 width="64px" height="64px" viewBox="0 0 64 64" enable-background="new 0 0 64 64" xml:space="preserve">
<g>
	<g>
		<path fill="#B2B6B8" d="M15.162,9.095c4.161-2.548,9.978-5.985,10.299,1.211C26.09,24.373,28,28.324,28,28.324L12.24,17.798
			c0,0-5.932,5.121-8.967,5.999c-3.775,1.093,1.648-9.559,5.848-12.596C10.432,10.253,13.762,9.953,15.162,9.095z"/>
		<path fill="#FFC5D3" d="M19.11,12.281c2.528,3.376,5.531,16.453,5.531,16.453L19.973,30c0,0-1.38-4.631-7.732-12.202L19.11,12.281
			z"/>
	</g>
	<g>
		<path fill="#B2B6B8" d="M48.84,5.095c-4.161-2.548-9.979-5.985-10.3,1.211C37.912,20.373,35,27.324,35,27.324l16.761-13.526
			c0,0,5.932,5.121,8.967,5.999c3.775,1.093-1.648-9.559-5.849-12.596C53.569,6.253,50.238,5.953,48.84,5.095z"/>
		<path fill="#FFC5D3" d="M44.891,8.281c-2.529,3.376-5.531,16.452-5.531,16.452L44.029,26c0,0,1.379-4.631,7.731-12.202
			L44.891,8.281z"/>
	</g>
	<g>
		<path fill="#C4C5C6" d="M13.677,34.848C13.677,27.376,19.351,22,32.002,22c12.652,0,18.322,5.376,18.322,12.848
			c0,6.256,9.523,15.441,1.037,21.566C47.263,59.369,40.189,62,32.002,62c-8.188,0-15.264-2.631-19.361-5.586
			C4.153,50.289,13.677,41.103,13.677,34.848z"/>
		<path fill="#FFFFFF" d="M40.609,45.23c-0.244-5.998-4.39-13.227-6.953-16.6c-1.154-1.525-2.154-1.525-3.31,0
			c-2.564,3.373-6.712,10.602-6.954,16.6c-4.711-0.607-10.121-0.369-11.193,2.156c-2.118,4.986,7.834,13.404,19.803,13.404
			c11.965,0,21.916-8.418,19.8-13.404C50.73,44.863,45.318,44.623,40.609,45.23z"/>
	</g>
	<g>
		<g>
			<path fill="#4C5359" d="M41.38,52.402c-1.043,0.806-2.397,1.277-3.78,1.332c-1.375,0.072-2.817-0.297-4.005-1.039
				c-0.624-0.393-1.167-0.914-1.594-1.515c-0.429,0.601-0.972,1.122-1.595,1.517c-1.206,0.743-2.594,1.111-4.031,1.039
				c-1.324-0.053-2.729-0.526-3.756-1.333c-0.635-0.494,2.665,5.765,9.381,5.765C38.719,58.168,42.016,51.906,41.38,52.402z"/>
		</g>
	</g>
	<g>
		<g>
			<g>
				<path fill="#FFFFFF" d="M37.291,38.064c0,0,0.396-4.069,3.684-5.375c3.708-1.471,6.238,2.126,6.925,4.182
					c1.014,3.035-0.259,6.353-0.636,7.118c-0.25,0.505-2.989,2.887-9.166,0.632C38.098,44.621,36.561,41.246,37.291,38.064z"/>
				<path fill="#B2B6B8" d="M37.291,38.064c0.063-1.445,0.545-2.889,1.4-4.086c0.439-0.588,0.996-1.088,1.622-1.456
					c0.31-0.189,0.648-0.331,0.974-0.443c0.357-0.127,0.702-0.193,1.066-0.239c1.471-0.19,2.955,0.499,4.02,1.523
					c1.063,1.047,1.881,2.354,2.281,3.903c0.357,1.538,0.266,3.122-0.072,4.587c-0.18,0.735-0.41,1.442-0.72,2.138l-0.128,0.267
					l-0.051,0.09l-0.08,0.11c-0.048,0.062-0.082,0.099-0.123,0.142c-0.156,0.16-0.311,0.283-0.471,0.394
					c-0.32,0.214-0.649,0.38-0.985,0.511c-1.349,0.528-2.759,0.548-4.095,0.353c-1.336-0.231-2.624-0.641-3.832-1.235
					c1.293,0.308,2.586,0.578,3.881,0.583c1.283,0.036,2.576-0.139,3.691-0.669c0.277-0.132,0.539-0.293,0.77-0.474
					c0.112-0.091,0.223-0.187,0.302-0.277l0.045-0.056c-0.002,0-0.003,0.005-0.002,0.006c0.003-0.004,0.04-0.072,0.014-0.024
					l0.093-0.216c0.242-0.611,0.432-1.273,0.563-1.936c0.272-1.322,0.33-2.697,0.018-3.95c-0.288-1.232-1.006-2.409-1.871-3.307
					c-0.87-0.91-1.998-1.462-3.184-1.425c-0.291,0.012-0.603,0.049-0.879,0.123c-0.309,0.083-0.596,0.179-0.876,0.309
					c-0.565,0.253-1.082,0.633-1.528,1.109C38.217,35.358,37.621,36.676,37.291,38.064z"/>
			</g>
		</g>
		<ellipse fill="#4C5359" cx="41.805" cy="39.543" rx="3.268" ry="4.008"/>
	</g>
	<g>
		<g>
			<g>
				<path fill="#FFFFFF" d="M26.711,38.064c0,0-0.396-4.07-3.684-5.375c-3.708-1.471-6.238,2.125-6.925,4.182
					c-1.014,3.035,0.258,6.353,0.636,7.118c0.25,0.505,2.989,2.887,9.166,0.632C25.904,44.621,27.441,41.246,26.711,38.064z"/>
				<path fill="#B2B6B8" d="M26.711,38.064c-0.33-1.389-0.926-2.707-1.842-3.646c-0.446-0.477-0.963-0.856-1.527-1.109
					c-0.281-0.13-0.568-0.227-0.877-0.309c-0.276-0.074-0.588-0.111-0.879-0.123c-1.186-0.037-2.314,0.515-3.184,1.425
					c-0.866,0.897-1.583,2.074-1.871,3.307c-0.313,1.253-0.255,2.628,0.017,3.95c0.131,0.662,0.32,1.324,0.563,1.936l0.093,0.216
					c-0.026-0.048,0.011,0.021,0.013,0.023c0.001,0,0-0.005-0.001-0.005l0.044,0.056c0.08,0.091,0.189,0.187,0.303,0.277
					c0.23,0.181,0.492,0.342,0.769,0.474c1.115,0.53,2.408,0.705,3.691,0.669c1.295-0.005,2.588-0.275,3.881-0.583
					c-1.208,0.595-2.496,1.004-3.832,1.235c-1.336,0.195-2.747,0.176-4.095-0.353c-0.336-0.131-0.666-0.297-0.987-0.511
					c-0.159-0.11-0.313-0.233-0.469-0.394c-0.041-0.043-0.076-0.08-0.124-0.142l-0.079-0.11l-0.051-0.09l-0.128-0.267
					c-0.31-0.695-0.54-1.402-0.718-2.138c-0.339-1.465-0.432-3.049-0.074-4.588c0.401-1.549,1.219-2.855,2.281-3.902
					c1.065-1.024,2.549-1.713,4.02-1.523c0.364,0.046,0.709,0.112,1.067,0.239c0.324,0.112,0.663,0.254,0.973,0.443
					c0.626,0.367,1.183,0.868,1.622,1.456C26.166,35.176,26.648,36.619,26.711,38.064z"/>
			</g>
		</g>
		<ellipse fill="#4C5359" cx="22.199" cy="39.543" rx="3.268" ry="4.008"/>
	</g>
	<rect x="28.674" y="49.576" fill="#FFFFFF" width="6.654" height="5.528"/>
	<path fill="#B2B6B8" d="M42.025,51.846c-1.137,0.56-2.452,0.787-3.724,0.738c-1.282-0.076-2.499-0.403-3.474-1.028
		c-0.975-0.603-1.693-1.464-1.901-2.411l-0.921-4.207l-0.932,4.207c-0.211,0.947-0.926,1.81-1.903,2.41
		c-0.954,0.625-2.231,0.95-3.443,1.026c-1.338,0.047-2.595-0.177-3.752-0.737c-1.146-0.541-2.097-1.423-2.581-2.546
		c0.066,1.201,0.88,2.37,2.046,3.177c1.156,0.807,2.737,1.281,4.228,1.334c1.619,0.072,3.181-0.297,4.539-1.039
		c0.701-0.395,1.313-0.916,1.794-1.518c0.481,0.602,1.093,1.123,1.794,1.516c1.337,0.742,2.961,1.111,4.508,1.039
		c1.558-0.055,3.082-0.527,4.257-1.333c1.165-0.808,1.979-1.976,2.048-3.176C44.125,50.422,43.172,51.303,42.025,51.846z"/>
	<g>
		<path fill="#FF94A4" d="M36.443,44.129c-0.891-0.719-3.625-0.773-4.443-0.773c-0.816,0-3.552,0.055-4.443,0.773
			c-0.633,0.514-0.143,1.783,1.545,2.881c1.064,0.692,2.082,0.911,2.898,0.911c0.818,0,1.836-0.219,2.9-0.911
			C36.588,45.912,37.079,44.643,36.443,44.129z"/>
	</g>
</g>
</svg>
