<?xml version="1.0" encoding="utf-8"?>
<!-- Generator: Adobe Illustrator 15.0.0, SVG Export Plug-In . SVG Version: 6.00 Build 0)  -->
<!DOCTYPE svg PUBLIC "-//W3C//DTD SVG 1.1//EN" "http://www.w3.org/Graphics/SVG/1.1/DTD/svg11.dtd">
<svg version="1.1" id="Layer_1" xmlns="http://www.w3.org/2000/svg" xmlns:xlink="http://www.w3.org/1999/xlink" x="0px" y="0px"
	 width="64px" height="64px" viewBox="0 0 64 64" enable-background="new 0 0 64 64" xml:space="preserve">
<g>
	<path fill="#89664C" d="M62.001,29.126c0,6.383-3.695,11.554-8.252,11.554s-8.25-5.171-8.25-11.554
		c0-6.384,3.693-11.556,8.25-11.556S62.001,22.742,62.001,29.126z"/>
	<ellipse fill="#E0AC7E" cx="53.75" cy="30.11" rx="5.372" ry="7.524"/>
	<path fill="#89664C" d="M18.5,29.126c0,6.383-3.693,11.554-8.251,11.554C5.693,40.68,2,35.509,2,29.126
		c0-6.384,3.693-11.556,8.249-11.556C14.807,17.57,18.5,22.742,18.5,29.126z"/>
	<ellipse fill="#E0AC7E" cx="10.249" cy="30.11" rx="5.372" ry="7.524"/>
	<path fill="#89664C" d="M45.604,10.923c1.314-0.673,2.164-1.011,2.164-1.011c-3.715-1.269-6.936-2.009-9.723-2.347
		c1.467-1.072,2.447-1.481,2.447-1.481C33.239,5.671,27.596,6.826,23.27,8.582c-4.739,1.659-8.768,4.68-11.549,8.784
		c-0.584,0.826-0.85,1.347-0.85,1.347l0.006,0.006c-2.071,3.573-3.261,7.854-3.261,12.692C7.616,46.094,18.532,58,32,58
		c13.465,0,24.383-11.906,24.383-26.589C56.384,22.22,52.106,15.022,45.604,10.923z"/>
	<path fill="#E0AC7E" d="M54.647,34.434c0-6.175-5.393-11.182-12.045-11.182c-4.582,0-8.568,2.377-10.602,5.872
		c-2.037-3.495-6.021-5.872-10.604-5.872c-6.653,0-12.045,5.007-12.045,11.182c0,5.623,4.477,10.264,10.299,11.051
		c-0.094,1.371,0.063,3.09,0.762,5.193c0,0,0.141-0.637,0.477-1.445c1.813,4.039,6.1,6.887,11.111,6.887
		c5.01,0,9.295-2.848,11.11-6.887c0.334,0.809,0.475,1.445,0.475,1.445c0.699-2.104,0.857-3.822,0.762-5.193
		C50.171,44.697,54.647,40.057,54.647,34.434z"/>
	<g>
		<ellipse fill="#89664C" cx="34.146" cy="40.541" rx="0.721" ry="1.381"/>
		<ellipse fill="#89664C" cx="29.853" cy="40.541" rx="0.72" ry="1.381"/>
	</g>
	<g>
		<ellipse fill="#3E4347" cx="19.149" cy="34.471" rx="4.219" ry="3.635"/>
	</g>
	<g>
		<ellipse fill="#3E4347" cx="44.849" cy="34.471" rx="4.219" ry="3.635"/>
	</g>
	<path fill="#89664C" d="M27.028,39.893c0.35-0.982,1.207-1.668,2.049-2.197c0.865-0.527,1.84-0.879,2.857-1.001
		c1.014-0.111,2.094,0.031,3.012,0.54c0.928,0.49,1.625,1.332,2.025,2.256c-0.672-0.74-1.447-1.316-2.291-1.646
		c-0.846-0.324-1.756-0.408-2.657-0.299c-0.904,0.094-1.799,0.373-2.656,0.746c-0.43,0.193-0.85,0.408-1.25,0.664
		C27.709,39.203,27.325,39.49,27.028,39.893z"/>
	<g>
		<g>
			<path fill="#3E4347" d="M42.634,43.039c0,4.324-4.76,8.016-10.633,8.016c-5.873,0-10.635-3.691-10.635-8.016
				c0,0,5.063,1.266,10.635,1.266C37.571,44.305,42.634,43.039,42.634,43.039z"/>
		</g>
		<g>
			<path fill="#FFFFFF" d="M40.937,44.352c0,1.773-3.717,2.834-8.936,2.834c-5.221,0-8.936-1.061-8.936-2.834
				c0,0,3.984,0.852,8.936,0.852C36.952,45.203,40.937,44.352,40.937,44.352z"/>
		</g>
		<path fill="#FF717F" d="M35.78,49.123c0,0.922-1.689,0.816-3.78,0.816c-2.09,0-3.781,0.105-3.781-0.816s1.691-1.385,3.781-1.385
			C34.091,47.738,35.78,48.201,35.78,49.123z"/>
	</g>
</g>
</svg>
