<?xml version="1.0" encoding="utf-8"?>
<!-- Generator: Adobe Illustrator 15.0.0, SVG Export Plug-In . SVG Version: 6.00 Build 0)  -->
<!DOCTYPE svg PUBLIC "-//W3C//DTD SVG 1.1//EN" "http://www.w3.org/Graphics/SVG/1.1/DTD/svg11.dtd">
<svg version="1.1" id="Layer_1" xmlns="http://www.w3.org/2000/svg" xmlns:xlink="http://www.w3.org/1999/xlink" x="0px" y="0px"
	 width="64px" height="64px" viewBox="0 0 64 64" enable-background="new 0 0 64 64" xml:space="preserve">
<g>
	<g>
		<g>
			<path fill="#E5BE7A" d="M12.645,19.666C12,12.56,16.381,11.69,18.766,12.197c2.385,0.506,4.349,6.39,1.712,13.026
				c-3.631,9.127-10.542,10.65-10.542,10.65S13.489,28.984,12.645,19.666z"/>
			<path fill="#E5BE7A" d="M14.893,27.481c-0.645-7.105,3.736-7.976,6.121-7.469c2.385,0.506,4.35,6.391,1.712,13.027
				C19.095,42.167,9.553,44.716,9.553,44.716S15.737,36.799,14.893,27.481z"/>
			<path fill="#E5BE7A" d="M16.481,37.437c-0.644-7.105,3.736-7.975,6.123-7.468c2.385,0.507,4.347,6.39,1.709,13.027
				C20.685,52.124,8.658,55.69,8.658,55.69S17.325,46.755,16.481,37.437z"/>
		</g>
		<g>
			<path fill="#E5BE7A" d="M53.813,19.893c-1.36-7.006-6.227-8.203-8.611-7.696c-2.383,0.506-4.347,6.39-1.71,13.026
				c3.629,9.127,4.065,15.049,4.065,15.049S55.979,31.065,53.813,19.893z"/>
		</g>
	</g>
	<g>
		<g>
			<path fill="#C1875D" d="M57.98,2.01c0.16,5.134-0.616,9.349-2.302,11.872c-2.545,1.584-6.93,2.396-12.362,2.276
				c-0.159-5.134,0.614-9.352,2.302-11.874C48.164,2.701,52.548,1.888,57.98,2.01z"/>
		</g>
		<g>
			<path fill="#3E4347" d="M54.746,5.131c0.091,2.867-0.344,5.224-1.285,6.635c-1.423,0.887-3.876,1.339-6.912,1.272
				c-0.088-2.87,0.346-5.226,1.287-6.637C49.263,5.514,51.711,5.062,54.746,5.131z"/>
		</g>
	</g>
	<g>
		<g>
			<path fill="#C1875D" d="M20.817,16.152c-5.371,0.151-9.783-0.59-12.423-2.201c-1.66-2.435-2.507-6.623-2.379-11.815
				c5.369-0.151,9.777,0.586,12.417,2.198C20.094,6.773,20.94,10.958,20.817,16.152z"/>
		</g>
		<g>
			<path fill="#3E4347" d="M17.583,13.092c-3.023,0.084-5.509-0.331-6.997-1.24C9.649,10.48,9.173,8.121,9.243,5.193
				c3.028-0.087,5.511,0.33,6.998,1.239C17.176,7.807,17.659,10.167,17.583,13.092z"/>
		</g>
	</g>
	<g>
		<path fill="#C1875D" d="M48.585,28.956c0,3.673-4.128,16.411-4.128,21.752c0,0-5.146,0.514-12.477,0.514
			c-7.188,0-12.299-0.246-12.299-0.246c0-5.477-4.304-18.336-4.304-22.02c0-4.886-0.53-10.083,4.589-16.834
			c1.201-1.585,1.538-3.644,12.014-3.644c10.39,0,11.147,1.664,12.233,3.014C49.226,17.707,48.585,22.492,48.585,28.956z"/>
	</g>
	<g>
		<path fill="#FFE2B3" d="M44.771,54.88c0,4.885-2.998,7.119-12.787,7.119c-9.792,0-12.788-2.234-12.788-7.119
			c0-4.887,0.271-10.57,12.788-10.57C44.502,44.31,44.771,49.993,44.771,54.88z"/>
	</g>
	<g>
		<g>
			<path fill="#3E4347" d="M48.98,26.744c0,2.209-1.458,4-3.25,4c-1.797,0-3.25-1.791-3.25-4s1.453-4,3.25-4
				C47.522,22.744,48.98,24.534,48.98,26.744z"/>
		</g>
	</g>
	<g>
		<g>
			<ellipse fill="#3E4347" cx="18.231" cy="26.744" rx="3.25" ry="4"/>
		</g>
	</g>
	<path fill="#FFE2B3" d="M40.549,43.339c-2.143-1.385-5.175,1.119-6.774,5.592c-1.6,4.482-1.155,9.236,0.993,10.621
		c2.146,1.391,5.181-1.113,6.774-5.59C43.137,49.485,42.693,44.728,40.549,43.339z"/>
	<path fill="#FFE2B3" d="M23.42,43.339c-2.146,1.393-2.591,6.146-0.992,10.625c1.597,4.475,4.629,6.979,6.774,5.59
		c2.144-1.387,2.589-6.141,0.989-10.619C28.601,44.458,25.566,41.952,23.42,43.339z"/>
	<path fill="#FFFFFF" d="M27.57,19.22c0-8.426,1.976-10.126,4.415-10.126c2.439,0,4.414,1.7,4.414,10.126
		c0,8.428-4.414,20.39-4.414,20.39S27.57,27.648,27.57,19.22z"/>
	<g>
		<path fill="#3E4347" d="M39.776,45.974c-1.57-1.016-3.79,0.82-4.964,4.098c-1.173,3.281-0.844,6.766,0.729,7.781
			c1.573,1.02,3.796-0.816,4.965-4.096C41.674,50.476,41.349,46.991,39.776,45.974z"/>
		<path fill="#3E4347" d="M24.196,45.974c-1.573,1.02-1.9,4.502-0.729,7.783c1.169,3.279,3.391,5.115,4.963,4.096
			c1.57-1.016,1.896-4.5,0.726-7.779C27.987,46.794,25.766,44.958,24.196,45.974z"/>
	</g>
	<path fill="#E5BE7A" d="M45.73,9.555C38.439-0.789,9.623,2.571,9.623,26.513c0,0,6.883-8.836,18.46-11.407
		c0,0-4.606,5.271-10.041,9.45c0,0,11.297-2.86,18.275-9.357c0,0,0.815,4.672-8.524,7.768C27.792,22.966,54.687,22.269,45.73,9.555z
		"/>
</g>
</svg>
