<?xml version="1.0" encoding="utf-8"?>
<!-- Generator: Adobe Illustrator 15.0.0, SVG Export Plug-In . SVG Version: 6.00 Build 0)  -->
<!DOCTYPE svg PUBLIC "-//W3C//DTD SVG 1.1//EN" "http://www.w3.org/Graphics/SVG/1.1/DTD/svg11.dtd">
<svg version="1.1" id="Layer_1" xmlns="http://www.w3.org/2000/svg" xmlns:xlink="http://www.w3.org/1999/xlink" x="0px" y="0px"
	 width="64px" height="64px" viewBox="0 0 64 64" enable-background="new 0 0 64 64" xml:space="preserve">
<g>
	<g>
		<g>
			<g>
				<g>
					<g>
						<path fill="#5E51A7" d="M22.046,42.897c0.158-1.778-3.672-6.183-8.588-4.17C9.513,40.339,3.523,45.572,2.23,47.81
							c-1.307,2.271,3.135-0.321,8.764-2.765C14.906,43.351,21.853,45.045,22.046,42.897z"/>
					</g>
					<g>
						<path fill="#5E51A7" d="M26.037,39.298c0.752-1.627-1.373-7.025-6.689-6.724c-4.27,0.239-11.689,3.229-13.666,4.921
							c-2,1.715,3.068,0.714,9.203,0.239C19.148,37.405,25.13,41.263,26.037,39.298z"/>
					</g>
				</g>
				<g>
					<g>
						<path fill="#5E51A7" d="M41.954,42.897c-0.16-1.778,3.67-6.183,8.586-4.17c3.945,1.611,9.936,6.845,11.23,9.082
							c1.305,2.271-3.137-0.321-8.766-2.765C49.095,43.351,42.147,45.045,41.954,42.897z"/>
						<path fill="#5E51A7" d="M37.962,39.298c-0.752-1.627,1.373-7.025,6.691-6.724c4.268,0.239,11.688,3.229,13.666,4.921
							c1.998,1.715-3.068,0.714-9.205,0.239C44.853,37.405,38.87,41.263,37.962,39.298z"/>
					</g>
				</g>
			</g>
		</g>
		<g>
			<path fill="#784C9A" d="M48.032,43.987c0,2.699-0.84,4.065-5.004,6.137c-2.594,1.29-2.596,5.834-11.029,5.834
				c-8.426,0-8.439-4.548-11.031-5.836c-4.162-2.072-5-3.436-5-6.135c0-5.162,7.178-4.674,16.031-4.674
				C40.854,39.313,48.032,38.825,48.032,43.987z"/>
			<g>
				<g>
					<path fill="#FFFFFF" d="M22.441,43.101c0.486,0.478,0.93,1.73-0.994,2.319c-1.545,0.472-3.148,2.376-3.148,2.376
						s0.064-2.477,1.135-3.781C20.447,42.778,21.849,42.522,22.441,43.101z"/>
					<path fill="#FFFFFF" d="M27,46.031c0.49,0.477,0.932,1.729-0.992,2.316c-1.543,0.476-3.15,2.376-3.15,2.376
						s0.068-2.476,1.135-3.781C25.007,45.705,26.412,45.449,27,46.031z"/>
				</g>
				<g>
					<path fill="#FFFFFF" d="M41.56,43.101c-0.488,0.478-0.932,1.73,0.994,2.319c1.545,0.472,3.148,2.376,3.148,2.376
						s-0.064-2.477-1.135-3.781C43.554,42.778,42.149,42.522,41.56,43.101z"/>
					<path fill="#FFFFFF" d="M36.999,46.031c-0.49,0.477-0.932,1.729,0.992,2.316c1.545,0.476,3.15,2.376,3.15,2.376
						s-0.066-2.476-1.135-3.781C38.991,45.705,37.587,45.449,36.999,46.031z"/>
				</g>
			</g>
			<g>
				<g>
					<path fill="#FF8E66" d="M35.212,1.219c-0.65,0.817,1.607,7.596-1.551,19.71c-1.105,4.243,0.848,5.083,2.924,5.083
						c2.506,0,4.395-2.499,4.42-5.966C41.075,9.65,36.708-0.65,35.212,1.219z"/>
					<path fill="#FF8E66" d="M28.789,1.219c-1.498-1.869-5.863,8.431-5.793,18.827c0.023,3.467,1.914,5.966,4.418,5.966
						c2.076,0,4.031-0.84,2.924-5.083C27.179,8.815,29.439,2.037,28.789,1.219z"/>
				</g>
				<g>
					<g>
						<path fill="#5E51A7" d="M21.757,13.383c2.764,7.445,4.895,11.287,1.09,15.31c-2.24,2.365-10.842-0.502-13.607-7.946
							C6.476,13.301,9.453,2.938,9.453,2.938S18.996,5.937,21.757,13.383z"/>
						<path fill="#B5AADA" d="M21.761,13.389C18.998,5.943,9.455,2.945,9.455,2.945s-0.17,0.594-0.391,1.593
							c2.936,1.3,8.389,4.345,10.371,9.685c2.754,7.421,4.877,11.264,1.119,15.271c0.984-0.018,1.801-0.271,2.295-0.792
							C26.652,24.68,24.525,20.835,21.761,13.389z"/>
					</g>
					<g>
						<path fill="#5E51A7" d="M42.243,13.383c-2.764,7.445-4.895,11.287-1.09,15.31c2.242,2.365,10.844-0.502,13.605-7.946
							c2.766-7.445-0.211-17.809-0.211-17.809S45.007,5.937,42.243,13.383z"/>
						<path fill="#B5AADA" d="M42.237,13.389C45.003,5.943,54.546,2.945,54.546,2.945s0.17,0.594,0.389,1.593
							c-2.934,1.3-8.387,4.345-10.367,9.685c-2.758,7.421-4.879,11.264-1.119,15.271c-0.986-0.018-1.803-0.271-2.297-0.792
							C37.347,24.68,39.476,20.835,42.237,13.389z"/>
					</g>
				</g>
				<g>
					<g>
						<g>
							<path fill="#B5AADA" d="M22.925,38.625c-1.361,1.334-4.93,2.552-6.605-2.717c-1.348-4.229-7.738-6.079-6.766-8.627
								c0.986-2.575,7.051,0.182,10.77,3.113C23.845,33.167,24.566,37.016,22.925,38.625z"/>
							<path fill="#B5AADA" d="M23.425,30.692c-1.359,1.334-4.928,2.548-6.605-2.719c-1.346-4.23-7.736-6.078-6.766-8.626
								c0.986-2.575,7.053,0.18,10.771,3.11C24.347,25.234,25.07,29.081,23.425,30.692z"/>
						</g>
						<g>
							<path fill="#B5AADA" d="M41.075,38.625c1.361,1.334,4.93,2.552,6.605-2.717c1.346-4.229,7.738-6.079,6.766-8.627
								c-0.986-2.575-7.053,0.182-10.771,3.113C40.151,33.167,39.431,37.016,41.075,38.625z"/>
							<path fill="#B5AADA" d="M40.573,30.692c1.361,1.334,4.928,2.548,6.607-2.719c1.344-4.23,7.736-6.078,6.764-8.626
								c-0.984-2.575-7.051,0.18-10.77,3.11C39.651,25.234,38.931,29.081,40.573,30.692z"/>
						</g>
					</g>
				</g>
				<g>
					<path fill="#B5AADA" d="M53.011,38.373c0-7.284-13.582-17.954-21.011-17.954c-7.428,0-21.012,10.67-21.012,17.954
						c0,5.612,7.699,4.601,13.361,9.605c2.479,2.192,3.326,4.631,7.65,4.631c4.322,0,5.169-2.438,7.65-4.631
						C45.313,42.978,53.011,43.985,53.011,38.373z"/>
					<g>
						<g>
							<path fill="#784C9A" d="M19.75,37.198c-1.361,1.335-2.602,4.834,2.773,6.476c4.311,1.322,8.793,6.634,8.793,6.634
								s-0.182-6.912-3.17-10.559C25.316,36.294,21.392,35.588,19.75,37.198z"/>
							<path fill="#784C9A" d="M44.251,37.198c-1.645-1.61-5.566-0.904-8.398,2.551c-2.986,3.646-3.169,10.559-3.169,10.559
								s4.482-5.312,8.794-6.634C46.853,42.032,45.612,38.533,44.251,37.198z"/>
						</g>
					</g>
					<g>
						<g>
							<path fill="#5E51A7" d="M36.858,25.905c-1.363,1.334-2.602,4.833,2.771,6.478c4.313,1.319,8.797,6.632,8.797,6.632
								s-0.184-6.914-3.172-10.558C42.425,25,38.499,24.294,36.858,25.905z"/>
							<path fill="#5E51A7" d="M27.142,25.905c1.361,1.334,2.602,4.833-2.771,6.478c-4.314,1.319-8.797,6.632-8.797,6.632
								s0.184-6.914,3.17-10.558C21.576,25,25.5,24.294,27.142,25.905z"/>
						</g>
					</g>
					<ellipse fill="#FFFFFF" cx="24.946" cy="28.33" rx="2.675" ry="2.623"/>
					<ellipse fill="#400A22" cx="24.946" cy="28.33" rx="0.472" ry="1.767"/>
					<ellipse fill="#FFFFFF" cx="39.053" cy="28.33" rx="2.675" ry="2.623"/>
					<path fill="#400A22" d="M31.316,28.605c0,1.119-3.141-1.509-7.012-1.509c-3.873,0-7.014,2.628-7.014,1.509
						c0-1.117,3.141-5.556,7.014-5.556C28.175,23.049,31.316,27.488,31.316,28.605z"/>
					<path fill="#400A22" d="M32.041,25.688c0,1.119,3.14-1.509,7.013-1.509s7.014,2.628,7.014,1.509
						c0-1.117-3.141-5.554-7.014-5.554S32.041,24.571,32.041,25.688z"/>
					<g>
						<path fill="#400A22" d="M26.71,39.331c1.848,1.809,2.857,3.752,2.256,4.341c-0.6,0.592-2.584-0.397-4.43-2.208
							s-2.855-3.758-2.254-4.347C22.882,36.529,24.865,37.519,26.71,39.331z"/>
						<path fill="#400A22" d="M39.462,41.464c-1.846,1.811-3.83,2.8-4.432,2.208c-0.6-0.589,0.41-2.532,2.256-4.343
							s3.832-2.8,4.43-2.212C42.317,37.706,41.308,39.653,39.462,41.464z"/>
					</g>
					<ellipse fill="#400A22" cx="39.053" cy="28.33" rx="0.472" ry="1.767"/>
				</g>
			</g>
		</g>
	</g>
	<g>
		<g>
			<path fill="#FF9D33" d="M49.831,62.998c0,0,0.059-1.236,0.434-3.018c2.006,1.423,4.672,2.789,9.381,2.317
				c0,0-3.199-1.887-4.063-6.275c1.949,0.42,3.912,0.988,3.912,0.988c0-11.027-21.203-16.892-21.203-16.892
				S42.929,58.194,49.831,62.998z"/>
			<path fill="#FFCE31" d="M47.12,56.468c0.383,1.027,1.016,1.563,2.113,2.766c0,0,0.059-0.846,0.346-2.067
				c1.348,0.938,3.326,1.78,6.176,2.375c0,0-1.479-2.223-1.996-5.206c1.328,0.254,2.178,0.646,2.178,0.646
				c-0.529-2.37-1.314-3.879-2.189-4.798c0.693-0.321,1.164-0.476,1.164-0.476c-4.367-4.1-14.783-7.746-14.783-7.746
				s2.123,9.07,6.686,15.926C46.813,57.887,46.698,57.057,47.12,56.468z"/>
			<path fill="#FFDF85" d="M54.077,52.632c-1.859-0.908-3.596,0.863-1.418,3.487c0,0-2.807,0.165-3.529-1.996
				c0,0-0.859,0.021-0.666,1.983c-3.371-2.226-6.498-12.304-6.498-12.304S52.72,48.636,54.077,52.632z"/>
		</g>
		<g>
			<path fill="#FF9D33" d="M14.166,62.998c0,0-0.059-1.236-0.432-3.018c-2.006,1.423-4.674,2.789-9.383,2.317
				c0,0,3.199-1.887,4.064-6.275c-1.951,0.42-3.914,0.988-3.914,0.988c0-11.027,21.203-16.892,21.203-16.892
				S21.068,58.194,14.166,62.998z"/>
			<path fill="#FFCE31" d="M16.878,56.468c-0.385,1.027-1.018,1.563-2.113,2.766c0,0-0.061-0.846-0.348-2.067
				c-1.346,0.938-3.324,1.78-6.174,2.375c0,0,1.477-2.223,1.994-5.206C8.912,54.589,8.06,54.98,8.06,54.98
				c0.529-2.37,1.314-3.879,2.189-4.798c-0.691-0.321-1.164-0.476-1.164-0.476c4.367-4.1,14.783-7.746,14.783-7.746
				s-2.121,9.07-6.684,15.926C17.185,57.887,17.298,57.057,16.878,56.468z"/>
			<path fill="#FFDF85" d="M9.921,52.632c1.857-0.908,3.594,0.863,1.416,3.487c0,0,2.807,0.165,3.531-1.996
				c0,0,0.857,0.021,0.666,1.983c3.371-2.226,6.498-12.304,6.498-12.304S11.279,48.636,9.921,52.632z"/>
		</g>
	</g>
</g>
</svg>
