<?xml version="1.0" encoding="utf-8"?>
<!-- Generator: Adobe Illustrator 15.0.0, SVG Export Plug-In . SVG Version: 6.00 Build 0)  -->
<!DOCTYPE svg PUBLIC "-//W3C//DTD SVG 1.1//EN" "http://www.w3.org/Graphics/SVG/1.1/DTD/svg11.dtd">
<svg version="1.1" id="Layer_1" xmlns="http://www.w3.org/2000/svg" xmlns:xlink="http://www.w3.org/1999/xlink" x="0px" y="0px"
	 width="64px" height="64px" viewBox="0 0 64 64" enable-background="new 0 0 64 64" xml:space="preserve">
<g>
	<g>
		<g>
			<g>
				<g>
					<path fill="#728389" d="M7.906,28.193L26.8,15.198c0,0-10.798-15.111-16.171-12.995C8.011,3.234,6.125,24.099,7.906,28.193z"/>
				</g>
				<path fill="#3E4347" d="M8.729,29.75l7.483-3.609c0,0,4.408-12.207-5.118-20.93C9.156,6.939,6.878,26.944,8.729,29.75z"/>
			</g>
		</g>
		<g>
			<g>
				<g>
					<path fill="#728389" d="M56.094,28.193L37.2,15.198c0,0,10.798-15.111,16.171-12.995C55.989,3.234,57.875,24.099,56.094,28.193
						z"/>
				</g>
				<path fill="#3E4347" d="M55.271,29.75l-7.483-3.609c0,0-4.409-12.207,5.118-20.93C54.844,6.939,57.122,26.944,55.271,29.75z"/>
			</g>
		</g>
	</g>
	<path fill="#728389" d="M32.001,9.725C18.131,9.725,2,25.525,2,36.943C2,46.142,27.897,62,32.001,62C36.101,62,62,46.142,62,36.943
		C62,25.525,45.873,9.725,32.001,9.725z"/>
	<path fill="#DAE5EF" d="M4.01,36.619c0.418,9.17,24.011,21.708,27.991,21.708c3.979,0,27.566-12.536,27.989-21.706
		C32.453,9.059,52.893,54.468,32.001,54.467C11.109,54.467,31.539,9.06,4.01,36.619z"/>
	<path fill="#3E4347" d="M40.454,48.896c-1.697-1.093-6.898-1.177-8.455-1.177c-1.551,0-6.76,0.084-8.453,1.177
		c-1.205,0.777-0.273,2.707,2.941,4.373c2.023,1.05,3.961,1.381,5.512,1.381c1.557,0,3.49-0.331,5.518-1.381
		C40.726,51.603,41.661,49.673,40.454,48.896z"/>
	<g>
		<g>
			<path fill="#728389" d="M11.942,13.946c2.189,1.327,8.246,7.574,3.479,11.227c-4.767,3.653-7.437,0.037-6.763-0.611
				C12.499,20.868,11.942,13.946,11.942,13.946z"/>
			<path fill="#728389" d="M10.03,16.362c2.276,0.964,8.771,5.983,4.313,9.875c-4.457,3.893-7.385,0.889-6.766,0.218
				C11.111,22.633,10.03,16.362,10.03,16.362z"/>
		</g>
		<g>
			<path fill="#728389" d="M52.058,13.946c-2.189,1.327-8.246,7.574-3.479,11.227c4.767,3.653,7.438,0.037,6.764-0.611
				C51.501,20.868,52.058,13.946,52.058,13.946z"/>
			<path fill="#728389" d="M53.97,16.362c-2.276,0.964-8.771,5.983-4.313,9.875c4.457,3.893,7.385,0.889,6.766,0.218
				C52.889,22.633,53.97,16.362,53.97,16.362z"/>
		</g>
	</g>
	<g>
		<g>
			<path fill="#DAE5EF" d="M22.189,19.378c2.073,3.571,6.389,17.495-1.742,20c-8.132,2.506-9.557-4.988-8.335-5.549
				C19.078,30.631,22.189,19.378,22.189,19.378z"/>
			<path fill="#DAE5EF" d="M18.402,21.878c2.387,3.058,7.938,15.351,0.074,18.441c-7.866,3.091-9.962-3.615-8.797-4.247
				C16.323,32.463,18.402,21.878,18.402,21.878z"/>
			<g>
				<path fill="#42ADE2" d="M23.165,33.068c0,3.303-2.676,5.98-5.975,5.98c-3.301,0-5.974-2.678-5.974-5.98
					c0-3.302,2.673-3.979,5.974-3.979L23.165,33.068z"/>
				<path fill="#3E4347" d="M21.03,33.068c0,2.124-1.721,3.845-3.84,3.845c-2.12,0-3.84-1.721-3.84-3.845
					c0-2.121,1.72-2.844,3.84-2.844C19.31,30.225,21.03,30.947,21.03,33.068z"/>
			</g>
			<path fill="#DAE5EF" d="M24.141,32.657c-0.238-0.472-0.571-0.856-0.904-1.229c-0.688-0.717-1.46-1.276-2.228-1.786
				c-1.55-1.002-3.123-1.793-4.632-2.604c-1.506-0.812-2.959-1.618-4.267-2.623c-1.315-1-2.461-2.217-3.436-3.907
				c-0.075,0.89,0.052,1.788,0.315,2.647c-1.328-1.189-2.456-2.635-3.381-4.485c-0.094,1.298,0.155,2.609,0.632,3.833
				c-1.141-1.188-2.121-2.591-2.921-4.284c-0.119,2.506,0.879,5.04,2.41,6.979c1.538,1.956,3.509,3.393,5.524,4.515
				c2.025,1.128,4.129,1.952,6.173,2.745c1.018,0.404,2.037,0.773,2.979,1.266c0.939,0.483,1.844,1.041,2.375,2.14L24.141,32.657z"
				/>
		</g>
		<g>
			<path fill="#DAE5EF" d="M41.811,19.378c-2.073,3.571-6.389,17.495,1.742,20c8.132,2.506,9.557-4.988,8.335-5.549
				C44.922,30.631,41.811,19.378,41.811,19.378z"/>
			<path fill="#DAE5EF" d="M45.598,21.878c-2.387,3.058-7.938,15.351-0.074,18.441c7.866,3.091,9.962-3.615,8.797-4.247
				C47.677,32.463,45.598,21.878,45.598,21.878z"/>
			<g>
				<path fill="#42ADE2" d="M40.835,33.068c0,3.303,2.676,5.98,5.975,5.98c3.301,0,5.974-2.678,5.974-5.98
					c0-3.302-2.673-3.979-5.974-3.979L40.835,33.068z"/>
				<path fill="#3E4347" d="M42.97,33.068c0,2.124,1.721,3.845,3.84,3.845c2.12,0,3.84-1.721,3.84-3.845
					c0-2.121-1.72-2.844-3.84-2.844C44.69,30.225,42.97,30.947,42.97,33.068z"/>
			</g>
			<path fill="#DAE5EF" d="M39.859,32.657c0.238-0.472,0.571-0.856,0.904-1.229c0.688-0.717,1.46-1.276,2.228-1.786
				c1.55-1.002,3.123-1.793,4.632-2.604c1.506-0.812,2.959-1.618,4.267-2.623c1.315-1,2.461-2.217,3.436-3.907
				c0.075,0.89-0.052,1.788-0.315,2.647c1.328-1.189,2.456-2.635,3.381-4.485c0.094,1.298-0.155,2.609-0.632,3.833
				c1.141-1.188,2.121-2.591,2.921-4.284c0.119,2.506-0.879,5.04-2.41,6.979c-1.538,1.956-3.509,3.393-5.524,4.515
				c-2.025,1.128-4.129,1.952-6.173,2.745c-1.018,0.404-2.037,0.773-2.979,1.266c-0.939,0.483-1.844,1.041-2.375,2.14L39.859,32.657
				z"/>
		</g>
	</g>
	<path fill="#728389" d="M38.591,56.924c0,1.174-4.057,2.301-6.591,2.301s-6.589-1.127-6.589-2.301s6.59-0.671,6.59-0.671
		S38.591,55.75,38.591,56.924z"/>
	<g>
		<g>
			<path fill="#3E4347" d="M32.999,53.479l-0.032,0.438c-0.021,0.177-0.038,0.36-0.074,0.524c-0.056,0.333-0.161,0.676-0.298,1.009
				c-0.278,0.667-0.789,1.313-1.441,1.689c-1.329,0.762-2.699,0.631-3.874,0.42c-2.379-0.508-4.436-1.613-6.365-2.849
				c-1.921-1.255-3.692-2.706-5.299-4.314c-1.603-1.61-3.049-3.381-4.192-5.327c1.284,1.855,2.842,3.496,4.533,4.961
				c1.693,1.463,3.531,2.752,5.473,3.823c1.935,1.055,4.014,1.948,6.091,2.226c1.017,0.127,2.071,0.045,2.689-0.413
				c0.614-0.435,0.829-1.218,0.79-2.245L32.999,53.479z"/>
		</g>
		<g>
			<path fill="#3E4347" d="M33.001,53.42c-0.039,1.027,0.176,1.811,0.79,2.244c0.618,0.459,1.673,0.541,2.689,0.414
				c2.077-0.277,4.156-1.172,6.091-2.227c1.94-1.071,3.779-2.36,5.473-3.822c1.69-1.465,3.249-3.105,4.533-4.961
				c-1.145,1.946-2.59,3.717-4.192,5.326c-1.606,1.609-3.378,3.061-5.3,4.314c-1.929,1.236-3.985,2.342-6.364,2.85
				c-1.175,0.211-2.545,0.342-3.874-0.42c-0.652-0.377-1.163-1.022-1.441-1.689c-0.137-0.333-0.242-0.676-0.298-1.009
				c-0.036-0.164-0.053-0.348-0.074-0.524l-0.032-0.438L33.001,53.42z"/>
		</g>
	</g>
</g>
</svg>
