<?xml version="1.0" encoding="utf-8"?>
<!-- Generator: Adobe Illustrator 15.0.0, SVG Export Plug-In . SVG Version: 6.00 Build 0)  -->
<!DOCTYPE svg PUBLIC "-//W3C//DTD SVG 1.1//EN" "http://www.w3.org/Graphics/SVG/1.1/DTD/svg11.dtd">
<svg version="1.1" id="Layer_1" xmlns="http://www.w3.org/2000/svg" xmlns:xlink="http://www.w3.org/1999/xlink" x="0px" y="0px"
	 width="64px" height="64px" viewBox="0 0 64 64" enable-background="new 0 0 64 64" xml:space="preserve">
<g>
	<path fill="#FFE1BD" d="M28.698,12.646c0.418,4.445,3.979,5.929,5.738,6.448l0.83,0.239c0,0,0.574,0.499,1.475,1.131
		c0.014,0.075,0.031,0.148,0.047,0.224c0,0-7.752,0.465-10.305,0.112c-2.822-0.39-15.24-0.387-18.287-0.548
		c-3.582-0.19-6.193,0.458-6.193,4.503c0,4.093,3.172,5.343,6.193,5.093c4.166-0.345,18.26-0.563,18.26-0.563
		c-1.818,0.437-3.488,1.224-3.178,4.217c0.357,3.428,1.686,4.076,3.816,4.232c-2.883,1.682-2.67,3.961-2.313,5.377
		c0.605,2.394,4.916,3.058,4.916,3.083c-3.201,0.939-2.646,2.422-2.336,4.496c0.188,1.27,1.484,2.75,3.686,3.281
		c2.209,0.531,3.838,2.172,21.051-0.289c4.52-0.646,6.745-4.592,7.774-10.546c0.693-4.023,1.797-9.512,2.107-13.603
		c0.029-0.369,0.027-0.733,0.01-1.092c0.119-2.269-0.848-4.55-2.766-5.959l-12.192-8.949c-0.014-0.011-0.029-0.019-0.045-0.03
		c-0.582-0.638-1.406-1.045-2.428-1.152c-3.051-0.322-6.881-1.052-11.369-3.117C31.53,8.469,28.407,9.569,28.698,12.646z"/>
	<g>
		<path fill="#E6B796" d="M27.153,49.308c-0.57-3.814,5.293-3.521,2.828-2.734C27.394,47.397,27.153,49.308,27.153,49.308z"/>
	</g>
	<g>
		<path fill="#E6B796" d="M24.593,41.988c-0.533-5.209,5.273-4.67,2.885-3.67C25.056,39.332,24.593,41.988,24.593,41.988z"/>
	</g>
	<g>
		<path fill="#E6B796" d="M23.269,33.395c-0.533-5.21,5.654-4.671,3.266-3.671C24.112,30.738,23.269,33.395,23.269,33.395z"/>
	</g>
	<g>
		<path fill="#E6B796" d="M36.788,20.688c0,0-12.596-1.458-28.639-0.749c-2.334,0.104-5.938,0.114-6.129,4.267
			C3.493,19.542,19.405,21.709,36.788,20.688z"/>
		<path fill="#E6B796" d="M29.575,9.994c0.721-0.185,1.469-0.148,2.041,0.115c4.488,2.065,8.318,2.795,11.369,3.117
			c1.021,0.107,1.846,0.515,2.428,1.152c0.016,0.012,0.031,0.02,0.045,0.03l12.192,8.949c1.918,1.409,2.885,3.69,2.766,5.959
			c0.018,0.358,0.02,0.723-0.01,1.092c-0.311,4.091-1.414,9.58-2.107,13.604c-0.736,4.25-2.085,7.467-4.437,9.201
			c3.351-1.328,5.124-4.957,6.011-10.077c0.693-4.023,1.797-9.512,2.107-13.603c0.029-0.369,0.027-0.733,0.01-1.092
			c0.119-2.269-0.848-4.55-2.766-5.959l-12.192-8.949c-0.014-0.011-0.029-0.019-0.045-0.03c-0.582-0.638-1.406-1.045-2.428-1.152
			c-3.051-0.322-6.881-1.052-11.369-3.117C32.159,8.759,30.565,9.004,29.575,9.994z"/>
	</g>
	<path fill="#E6B796" d="M41.032,19.458c0,0-4.309-1.313-6.338-1.839c-1.691-0.438-4.76-2.015-5.955-4.633
		c0.563,4.181,3.982,5.601,5.697,6.107l0.83,0.239c0,0,0.48,0.702,1.521,1.354C36.788,20.688,38.747,19.304,41.032,19.458z"/>
	<path fill="#E6B796" d="M27.587,29.803c0.585-0.214,1.261-0.109,1.831,0.097c0.582,0.199,1.086,0.496,1.576,0.734
		c0.484,0.257,0.956,0.461,1.459,0.607c0.507,0.146,1.052,0.201,1.665,0.25c-0.5,0.353-1.126,0.541-1.768,0.523
		c-0.646-0.004-1.269-0.221-1.811-0.491c-0.539-0.286-1.012-0.614-1.466-0.927C28.613,30.291,28.165,30.012,27.587,29.803z"/>
	<path fill="#E6B796" d="M29.226,37.664c0.585-0.214,1.261-0.11,1.831,0.096c0.582,0.199,1.085,0.496,1.576,0.734
		c0.484,0.258,0.956,0.461,1.459,0.607c0.507,0.146,1.052,0.201,1.665,0.25c-0.5,0.353-1.126,0.541-1.768,0.523
		c-0.646-0.003-1.269-0.221-1.811-0.491c-0.539-0.286-1.012-0.614-1.466-0.927C30.252,38.15,29.804,37.873,29.226,37.664z"/>
	<path fill="#E6B796" d="M31.62,46.243c0.585-0.214,1.261-0.11,1.831,0.097c0.582,0.199,1.086,0.496,1.576,0.734
		c0.484,0.257,0.956,0.461,1.46,0.607c0.506,0.146,1.051,0.201,1.664,0.251c-0.5,0.353-1.126,0.54-1.768,0.522
		c-0.646-0.004-1.269-0.221-1.811-0.491c-0.539-0.286-1.012-0.614-1.466-0.927C32.646,46.73,32.198,46.452,31.62,46.243z"/>
</g>
</svg>
