<?xml version="1.0" encoding="utf-8"?>
<!-- Generator: Adobe Illustrator 15.0.0, SVG Export Plug-In . SVG Version: 6.00 Build 0)  -->
<!DOCTYPE svg PUBLIC "-//W3C//DTD SVG 1.1//EN" "http://www.w3.org/Graphics/SVG/1.1/DTD/svg11.dtd">
<svg version="1.1" id="Layer_1" xmlns="http://www.w3.org/2000/svg" xmlns:xlink="http://www.w3.org/1999/xlink" x="0px" y="0px"
	 width="64px" height="64px" viewBox="0 0 64 64" enable-background="new 0 0 64 64" xml:space="preserve">
<g>
	<path fill="#FFE1BD" d="M51.358,35.305c-4.445-0.418-5.93-3.977-6.449-5.736l-0.238-0.832c0,0-0.5-0.572-1.131-1.473
		c-0.076-0.014-0.148-0.033-0.225-0.049c0,0-0.465,7.752-0.111,10.305c0.389,2.822,0.387,15.242,0.547,18.287
		C43.942,59.391,43.294,62,39.249,62c-4.094,0-5.344-3.172-5.094-6.193c0.346-4.166,0.564-18.258,0.564-18.258
		c-0.438,1.818-1.225,3.486-4.217,3.176c-3.428-0.355-4.076-1.684-4.232-3.814c-1.682,2.883-3.961,2.668-5.377,2.311
		c-2.393-0.604-3.059-4.914-3.082-4.914c-0.939,3.201-2.422,2.645-4.498,2.336c-1.268-0.189-2.748-1.484-3.279-3.688
		C9.5,30.748,7.86,29.119,10.321,11.906c0.646-4.52,4.592-6.745,10.547-7.774c4.023-0.694,9.512-1.798,13.602-2.108
		c0.369-0.029,0.734-0.027,1.092-0.009c2.27-0.119,4.551,0.847,5.959,2.765l8.949,12.192c0.012,0.015,0.02,0.03,0.031,0.045
		c0.637,0.583,1.045,1.406,1.152,2.429c0.322,3.051,1.051,6.881,3.117,11.37C55.534,32.475,54.435,35.598,51.358,35.305z"/>
	<g>
		<path fill="#E6B796" d="M14.696,36.852c3.816,0.57,3.523-5.295,2.736-2.828C16.606,36.609,14.696,36.852,14.696,36.852z"/>
	</g>
	<g>
		<path fill="#E6B796" d="M22.016,39.41c5.209,0.535,4.67-5.271,3.67-2.885C24.672,38.947,22.016,39.41,22.016,39.41z"/>
	</g>
	<g>
		<path fill="#E6B796" d="M30.61,40.736c5.209,0.533,4.67-5.654,3.67-3.268C33.267,39.891,30.61,40.736,30.61,40.736z"/>
	</g>
	<g>
		<path fill="#E6B796" d="M43.315,27.215c0,0,1.459,12.598,0.75,28.639c-0.104,2.336-0.115,5.938-4.268,6.129
			C44.462,60.51,42.294,44.6,43.315,27.215z"/>
		<path fill="#E6B796" d="M54.011,34.43c0.184-0.721,0.148-1.469-0.115-2.041c-2.066-4.488-2.795-8.319-3.117-11.37
			c-0.107-1.022-0.516-1.846-1.152-2.429c-0.012-0.015-0.02-0.03-0.031-0.045L40.646,6.353c-1.408-1.918-3.689-2.884-5.959-2.765
			c-0.357-0.019-0.723-0.021-1.092,0.009c-4.09,0.311-9.579,1.414-13.602,2.108c-4.25,0.735-7.469,2.085-9.201,4.437
			c1.328-3.352,4.957-5.125,10.076-6.011c4.023-0.694,9.512-1.798,13.602-2.108c0.369-0.029,0.734-0.027,1.092-0.009
			c2.27-0.119,4.551,0.847,5.959,2.765l8.949,12.192c0.012,0.015,0.02,0.03,0.031,0.045c0.637,0.583,1.045,1.406,1.152,2.429
			c0.322,3.051,1.051,6.881,3.117,11.37C55.245,31.846,54.999,33.438,54.011,34.43z"/>
	</g>
	<path fill="#E6B796" d="M44.546,22.972c0,0,1.313,4.309,1.838,6.338c0.439,1.691,2.016,4.76,4.633,5.955
		c-4.18-0.563-5.6-3.984-6.107-5.697l-0.238-0.832c0,0-0.703-0.479-1.355-1.521C43.315,27.215,44.7,25.256,44.546,22.972z"/>
	<path fill="#E6B796" d="M34.2,36.416c-0.209-0.578-0.487-1.026-0.794-1.486c-0.312-0.455-0.64-0.928-0.927-1.467
		c-0.27-0.541-0.487-1.165-0.49-1.811c-0.018-0.641,0.171-1.268,0.523-1.768c0.05,0.613,0.104,1.158,0.25,1.665
		c0.146,0.504,0.35,0.976,0.608,1.459c0.237,0.491,0.535,0.994,0.734,1.577C34.31,35.155,34.413,35.832,34.2,36.416z"/>
	<path fill="#E6B796" d="M26.34,34.777c-0.209-0.578-0.486-1.025-0.793-1.486c-0.313-0.455-0.641-0.927-0.927-1.466
		c-0.271-0.542-0.488-1.165-0.491-1.811c-0.018-0.642,0.171-1.268,0.523-1.767c0.05,0.613,0.104,1.158,0.25,1.664
		c0.146,0.504,0.351,0.975,0.607,1.459c0.238,0.49,0.535,0.994,0.734,1.576C26.45,33.518,26.553,34.193,26.34,34.777z"/>
	<path fill="#E6B796" d="M17.76,32.385c-0.209-0.578-0.487-1.027-0.794-1.488c-0.312-0.453-0.64-0.926-0.927-1.465
		c-0.27-0.543-0.487-1.166-0.49-1.811c-0.018-0.642,0.171-1.269,0.523-1.768c0.05,0.613,0.104,1.158,0.25,1.665
		c0.146,0.504,0.35,0.976,0.607,1.459c0.237,0.491,0.535,0.994,0.734,1.577C17.87,31.123,17.973,31.8,17.76,32.385z"/>
</g>
</svg>
