<?xml version="1.0" encoding="utf-8"?>
<!-- Generator: Adobe Illustrator 15.0.0, SVG Export Plug-In . SVG Version: 6.00 Build 0)  -->
<!DOCTYPE svg PUBLIC "-//W3C//DTD SVG 1.1//EN" "http://www.w3.org/Graphics/SVG/1.1/DTD/svg11.dtd">
<svg version="1.1" id="Layer_1" xmlns="http://www.w3.org/2000/svg" xmlns:xlink="http://www.w3.org/1999/xlink" x="0px" y="0px"
	 width="64px" height="64px" viewBox="0 0 64 64" enable-background="new 0 0 64 64" xml:space="preserve">
<g>
	<path fill="#FED0AC" d="M12.65,28.696c4.445,0.418,5.928,3.978,6.447,5.737l0.24,0.831c0,0,0.498,0.573,1.131,1.474
		c0.074,0.014,0.148,0.032,0.223,0.048c0,0,0.465-7.751,0.113-10.304c-0.391-2.822-0.387-15.241-0.549-18.287
		C20.066,4.611,20.715,2,24.76,2c4.092,0,5.342,3.172,5.092,6.193c-0.344,4.166-0.563,18.259-0.563,18.259
		c0.436-1.818,1.223-3.487,4.215-3.177c3.43,0.356,4.076,1.685,4.232,3.815c1.682-2.883,3.963-2.669,5.377-2.312
		c2.395,0.604,3.059,4.915,3.084,4.915c0.939-3.201,2.422-2.646,4.496-2.336c1.27,0.188,2.75,1.484,3.281,3.687
		c0.531,2.208,2.172,3.836-0.289,21.049c-0.646,4.52-4.592,6.745-10.545,7.774c-4.025,0.694-9.514,1.798-13.604,2.108
		c-0.369,0.029-0.732,0.027-1.092,0.009c-2.268,0.119-4.549-0.847-5.959-2.765l-8.949-12.192c-0.01-0.015-0.018-0.03-0.029-0.045
		c-0.639-0.583-1.045-1.406-1.152-2.429c-0.322-3.051-1.053-6.881-3.117-11.369C8.473,31.527,9.572,28.404,12.65,28.696z"/>
	<g>
		<path fill="#E0A372" d="M49.311,27.15c-3.814-0.57-3.521,5.294-2.734,2.828C47.4,27.391,49.311,27.15,49.311,27.15z"/>
	</g>
	<g>
		<path fill="#E0A372" d="M41.992,24.59c-5.211-0.534-4.672,5.272-3.672,2.885C39.336,25.053,41.992,24.59,41.992,24.59z"/>
	</g>
	<g>
		<path fill="#E0A372" d="M33.398,23.265c-5.211-0.533-4.672,5.654-3.672,3.267C30.742,24.11,33.398,23.265,33.398,23.265z"/>
	</g>
	<g>
		<path fill="#E0A372" d="M20.691,36.785c0,0-1.457-12.595-0.748-28.637c0.104-2.335,0.113-5.938,4.266-6.129
			C19.547,3.492,21.713,19.403,20.691,36.785z"/>
		<path fill="#E0A372" d="M9.998,29.572c-0.186,0.721-0.148,1.469,0.115,2.041c2.064,4.488,2.795,8.318,3.117,11.369
			c0.107,1.022,0.514,1.846,1.152,2.429c0.012,0.015,0.02,0.03,0.029,0.045l8.949,12.192c1.41,1.918,3.691,2.884,5.959,2.765
			c0.359,0.019,0.723,0.021,1.092-0.009c4.09-0.311,9.578-1.414,13.604-2.108c4.25-0.735,7.467-2.085,9.201-4.437
			c-1.328,3.352-4.957,5.125-10.076,6.011c-4.025,0.694-9.514,1.798-13.604,2.108c-0.369,0.029-0.732,0.027-1.092,0.009
			c-2.268,0.119-4.549-0.847-5.959-2.765l-8.949-12.192c-0.01-0.015-0.018-0.03-0.029-0.045c-0.639-0.583-1.045-1.406-1.152-2.429
			c-0.322-3.051-1.053-6.881-3.117-11.369C8.764,32.156,9.008,30.563,9.998,29.572z"/>
	</g>
	<path fill="#E0A372" d="M19.463,41.028c0,0-1.313-4.309-1.84-6.338c-0.438-1.691-2.014-4.759-4.633-5.955
		c4.182,0.563,5.602,3.983,6.107,5.697l0.24,0.831c0,0,0.701,0.479,1.354,1.521C20.691,36.785,19.309,38.744,19.463,41.028z"/>
	<path fill="#E0A372" d="M29.807,27.585c0.209,0.578,0.486,1.026,0.793,1.487c0.313,0.454,0.641,0.926,0.928,1.465
		c0.27,0.543,0.488,1.166,0.491,1.811c0.018,0.641-0.171,1.267-0.522,1.767c-0.05-0.613-0.105-1.158-0.251-1.664
		c-0.146-0.504-0.351-0.976-0.608-1.459c-0.237-0.491-0.535-0.994-0.734-1.576C29.697,28.846,29.594,28.17,29.807,27.585z"/>
	<path fill="#E0A372" d="M37.666,29.223c0.209,0.578,0.487,1.027,0.794,1.487c0.312,0.454,0.64,0.927,0.927,1.466
		c0.27,0.542,0.488,1.165,0.491,1.81c0.018,0.641-0.171,1.268-0.522,1.768c-0.05-0.613-0.105-1.158-0.251-1.664
		c-0.146-0.504-0.351-0.977-0.608-1.458c-0.237-0.492-0.534-0.994-0.734-1.577C37.557,30.485,37.453,29.807,37.666,29.223z"/>
	<path fill="#E0A372" d="M46.246,31.618c0.209,0.578,0.486,1.026,0.793,1.487c0.313,0.454,0.641,0.927,0.928,1.466
		c0.27,0.541,0.488,1.164,0.491,1.81c0.018,0.642-0.171,1.268-0.522,1.768c-0.05-0.613-0.105-1.158-0.251-1.664
		c-0.146-0.504-0.351-0.976-0.608-1.459c-0.237-0.491-0.535-0.994-0.734-1.577C46.137,32.878,46.033,32.202,46.246,31.618z"/>
</g>
</svg>
