<?xml version="1.0" encoding="utf-8"?>
<!-- Generator: Adobe Illustrator 15.0.0, SVG Export Plug-In . SVG Version: 6.00 Build 0)  -->
<!DOCTYPE svg PUBLIC "-//W3C//DTD SVG 1.1//EN" "http://www.w3.org/Graphics/SVG/1.1/DTD/svg11.dtd">
<svg version="1.1" id="Layer_1" xmlns="http://www.w3.org/2000/svg" xmlns:xlink="http://www.w3.org/1999/xlink" x="0px" y="0px"
	 width="64px" height="64px" viewBox="0 0 64 64" enable-background="new 0 0 64 64" xml:space="preserve">
<g>
	<ellipse fill="#FFDD67" cx="16.852" cy="48.648" rx="9.852" ry="9.537"/>
	<ellipse fill="#FFDD67" cx="47.148" cy="48.648" rx="9.852" ry="9.537"/>
	<g>
		<g>
			<path fill="#FFC95C" d="M47.148,49.402c-3.81,0-6.896,2.096-6.896,4.689c0,0.629,0.189,1.227,0.518,1.77
				c1.722,1.431,3.933,2.324,6.379,2.324c2.447,0,4.657-0.894,6.38-2.324c0.328-0.543,0.517-1.141,0.517-1.77
				C54.045,51.498,50.956,49.402,47.148,49.402z"/>
		</g>
		<g>
			<path fill="#FFC95C" d="M16.851,49.402c3.81,0,6.898,2.096,6.898,4.689c0,0.629-0.189,1.227-0.518,1.77
				c-1.722,1.431-3.933,2.324-6.381,2.324c-2.447,0-4.655-0.894-6.379-2.324c-0.328-0.543-0.516-1.141-0.516-1.77
				C9.956,51.498,13.043,49.402,16.851,49.402z"/>
		</g>
		<g>
			<path fill="#FFC95C" d="M31.998,53.324c-3.056,0-6.973-0.909-12.354-1.972l1.092,6.059C23.597,60.242,27.583,62,31.998,62
				c4.416,0,8.401-1.758,11.263-4.589l1.094-6.059C38.973,52.415,35.054,53.324,31.998,53.324z"/>
		</g>
	</g>
	<g>
		<path fill="#AD6C3F" d="M17.583,53.164c3.651,1.146,4.743,5.617,4.743,5.617s-2.535-1.903-5.436-2.51
			C10.151,54.855,13.076,51.748,17.583,53.164z"/>
		<path fill="#AD6C3F" d="M46.416,53.164c-3.651,1.146-4.742,5.617-4.742,5.617s2.534-1.903,5.436-2.51
			C53.851,54.855,50.923,51.748,46.416,53.164z"/>
	</g>
	<path fill="#FFDD67" d="M43.05,21.186C43.05,5.021,38.107,2,31.998,2c-6.104,0-11.05,3.021-11.05,19.186
		c0,4.725-3.728,18.381-3.728,23.99c0,8.308,6.614,8.617,14.778,8.617c8.167,0,14.78-0.31,14.78-8.617
		C46.777,39.563,43.05,25.91,43.05,21.186z"/>
</g>
</svg>
