<?xml version="1.0" encoding="utf-8"?>
<!-- Generator: Adobe Illustrator 15.0.0, SVG Export Plug-In . SVG Version: 6.00 Build 0)  -->
<!DOCTYPE svg PUBLIC "-//W3C//DTD SVG 1.1//EN" "http://www.w3.org/Graphics/SVG/1.1/DTD/svg11.dtd">
<svg version="1.1" id="Layer_1" xmlns="http://www.w3.org/2000/svg" xmlns:xlink="http://www.w3.org/1999/xlink" x="0px" y="0px"
	 width="64px" height="64px" viewBox="0 0 64 64" enable-background="new 0 0 64 64" xml:space="preserve">
<g>
	<path fill="#FFDD67" d="M51.354,35.304c-4.445-0.418-5.928-3.978-6.447-5.737l-0.24-0.831c0,0-0.498-0.573-1.131-1.474
		c-0.074-0.014-0.148-0.032-0.223-0.048c0,0-0.465,7.751-0.113,10.304c0.391,2.822,0.387,15.241,0.549,18.287
		c0.189,3.583-0.459,6.193-4.504,6.193c-4.092,0-5.342-3.172-5.092-6.193c0.344-4.166,0.563-18.259,0.563-18.259
		c-0.436,1.818-1.223,3.487-4.215,3.177c-3.43-0.356-4.076-1.685-4.232-3.815c-1.682,2.883-3.963,2.669-5.377,2.312
		c-2.395-0.604-3.059-4.915-3.084-4.915c-0.939,3.201-2.422,2.646-4.496,2.336c-1.27-0.188-2.75-1.484-3.281-3.687
		c-0.531-2.208-2.172-3.836,0.289-21.049c0.646-4.52,4.592-6.745,10.545-7.774c4.025-0.694,9.514-1.798,13.604-2.108
		c0.369-0.029,0.732-0.027,1.092-0.009c2.268-0.119,4.549,0.847,5.959,2.765l8.949,12.192c0.01,0.015,0.018,0.03,0.029,0.045
		c0.639,0.583,1.045,1.406,1.152,2.429c0.322,3.051,1.053,6.881,3.117,11.369C55.531,32.473,54.432,35.596,51.354,35.304z"/>
	<g>
		<path fill="#EBA352" d="M14.693,36.85c3.814,0.57,3.521-5.294,2.734-2.828C16.603,36.608,14.693,36.85,14.693,36.85z"/>
	</g>
	<g>
		<path fill="#EBA352" d="M22.011,39.409c5.211,0.534,4.672-5.272,3.672-2.885C24.667,38.946,22.011,39.409,22.011,39.409z"/>
	</g>
	<g>
		<path fill="#EBA352" d="M30.605,40.734c5.211,0.533,4.672-5.654,3.672-3.267C33.262,39.89,30.605,40.734,30.605,40.734z"/>
	</g>
	<g>
		<path fill="#EBA352" d="M43.313,27.214c0,0,1.457,12.595,0.748,28.637c-0.104,2.335-0.113,5.938-4.266,6.129
			C44.457,60.508,42.291,44.597,43.313,27.214z"/>
		<path fill="#EBA352" d="M54.006,34.428c0.186-0.721,0.148-1.469-0.115-2.041c-2.064-4.488-2.795-8.318-3.117-11.369
			c-0.107-1.022-0.514-1.846-1.152-2.429c-0.012-0.015-0.02-0.03-0.029-0.045L40.643,6.352c-1.41-1.918-3.691-2.884-5.959-2.765
			c-0.359-0.019-0.723-0.021-1.092,0.009c-4.09,0.311-9.579,1.414-13.604,2.108c-4.25,0.735-7.467,2.085-9.201,4.437
			c1.328-3.352,4.957-5.125,10.076-6.011c4.025-0.694,9.514-1.798,13.604-2.108c0.369-0.029,0.732-0.027,1.092-0.009
			c2.268-0.119,4.549,0.847,5.959,2.765l8.949,12.192c0.01,0.015,0.018,0.03,0.029,0.045c0.639,0.583,1.045,1.406,1.152,2.429
			c0.322,3.051,1.053,6.881,3.117,11.369C55.24,31.844,54.996,33.437,54.006,34.428z"/>
	</g>
	<path fill="#EBA352" d="M44.541,22.971c0,0,1.313,4.309,1.84,6.338c0.438,1.691,2.014,4.759,4.633,5.955
		c-4.182-0.563-5.602-3.983-6.107-5.697l-0.24-0.831c0,0-0.701-0.479-1.354-1.521C43.313,27.214,44.695,25.255,44.541,22.971z"/>
	<path fill="#EBA352" d="M34.197,36.414c-0.209-0.578-0.486-1.026-0.793-1.487c-0.313-0.454-0.641-0.927-0.928-1.466
		c-0.27-0.542-0.488-1.165-0.491-1.81c-0.018-0.641,0.171-1.267,0.522-1.767c0.05,0.613,0.105,1.158,0.251,1.664
		c0.146,0.504,0.351,0.976,0.608,1.459c0.237,0.491,0.535,0.994,0.734,1.576C34.307,35.153,34.41,35.829,34.197,36.414z"/>
	<path fill="#EBA352" d="M26.337,34.776c-0.209-0.578-0.487-1.027-0.794-1.487c-0.312-0.454-0.64-0.927-0.927-1.466
		c-0.27-0.542-0.488-1.165-0.491-1.81c-0.018-0.642,0.171-1.268,0.522-1.768c0.05,0.613,0.105,1.158,0.251,1.665
		c0.146,0.503,0.351,0.975,0.608,1.458c0.237,0.491,0.534,0.994,0.734,1.577C26.447,33.515,26.55,34.191,26.337,34.776z"/>
	<path fill="#EBA352" d="M17.757,32.382c-0.209-0.578-0.486-1.026-0.793-1.487c-0.313-0.454-0.641-0.926-0.928-1.465
		c-0.27-0.543-0.488-1.166-0.491-1.811c-0.018-0.641,0.171-1.268,0.522-1.768c0.05,0.613,0.105,1.158,0.251,1.664
		c0.146,0.504,0.351,0.976,0.608,1.459c0.237,0.491,0.535,0.994,0.734,1.576C17.867,31.121,17.97,31.797,17.757,32.382z"/>
</g>
</svg>
