<?xml version="1.0" encoding="utf-8"?>
<!-- Generator: Adobe Illustrator 15.0.0, SVG Export Plug-In . SVG Version: 6.00 Build 0)  -->
<!DOCTYPE svg PUBLIC "-//W3C//DTD SVG 1.1//EN" "http://www.w3.org/Graphics/SVG/1.1/DTD/svg11.dtd">
<svg version="1.1" id="Layer_1" xmlns="http://www.w3.org/2000/svg" xmlns:xlink="http://www.w3.org/1999/xlink" x="0px" y="0px"
	 width="64px" height="64px" viewBox="0 0 64 64" enable-background="new 0 0 64 64" xml:space="preserve">
<g>
	<path fill="#FFDD67" d="M12.647,28.695c4.445,0.418,5.928,3.978,6.447,5.737l0.24,0.831c0,0,0.498,0.573,1.131,1.474
		c0.074,0.014,0.148,0.032,0.223,0.048c0,0,0.465-7.751,0.113-10.304c-0.391-2.822-0.387-15.241-0.549-18.287
		C20.063,4.61,20.711,2,24.756,2c4.092,0,5.342,3.172,5.092,6.193c-0.344,4.166-0.563,18.259-0.563,18.259
		c0.436-1.818,1.223-3.487,4.215-3.177c3.43,0.356,4.076,1.685,4.232,3.815c1.682-2.883,3.963-2.669,5.377-2.312
		c2.395,0.604,3.059,4.915,3.084,4.915c0.939-3.201,2.422-2.646,4.496-2.336c1.27,0.188,2.75,1.484,3.281,3.687
		c0.531,2.208,2.172,3.836-0.289,21.049c-0.646,4.52-4.592,6.745-10.545,7.774c-4.025,0.694-9.514,1.798-13.604,2.108
		c-0.369,0.029-0.732,0.027-1.092,0.009c-2.268,0.119-4.549-0.847-5.959-2.765l-8.949-12.192c-0.01-0.015-0.018-0.03-0.029-0.045
		c-0.639-0.583-1.045-1.406-1.152-2.429c-0.322-3.051-1.053-6.881-3.117-11.369C8.469,31.526,9.569,28.403,12.647,28.695z"/>
	<g>
		<path fill="#EBA352" d="M49.308,27.149c-3.814-0.57-3.521,5.294-2.734,2.828C47.397,27.39,49.308,27.149,49.308,27.149z"/>
	</g>
	<g>
		<path fill="#EBA352" d="M41.989,24.589c-5.211-0.534-4.672,5.272-3.672,2.885C39.333,25.052,41.989,24.589,41.989,24.589z"/>
	</g>
	<g>
		<path fill="#EBA352" d="M33.396,23.264c-5.211-0.533-4.672,5.654-3.672,3.267C30.739,24.109,33.396,23.264,33.396,23.264z"/>
	</g>
	<g>
		<path fill="#EBA352" d="M20.688,36.784c0,0-1.457-12.595-0.748-28.637c0.104-2.335,0.113-5.938,4.266-6.129
			C19.543,3.491,21.709,19.402,20.688,36.784z"/>
		<path fill="#EBA352" d="M9.995,29.571c-0.186,0.721-0.148,1.469,0.115,2.041c2.064,4.488,2.795,8.318,3.117,11.369
			c0.107,1.022,0.514,1.846,1.152,2.429c0.012,0.015,0.02,0.03,0.029,0.045l8.949,12.192c1.41,1.918,3.691,2.884,5.959,2.765
			c0.359,0.019,0.723,0.021,1.092-0.009c4.09-0.311,9.579-1.414,13.604-2.108c4.25-0.735,7.467-2.085,9.201-4.437
			c-1.328,3.352-4.957,5.125-10.076,6.011c-4.025,0.694-9.514,1.798-13.604,2.108c-0.369,0.029-0.732,0.027-1.092,0.009
			c-2.268,0.119-4.549-0.847-5.959-2.765l-8.949-12.192c-0.01-0.015-0.018-0.03-0.029-0.045c-0.639-0.583-1.045-1.406-1.152-2.429
			c-0.322-3.051-1.053-6.881-3.117-11.369C8.76,32.155,9.004,30.562,9.995,29.571z"/>
	</g>
	<path fill="#EBA352" d="M19.459,41.027c0,0-1.313-4.309-1.84-6.338c-0.438-1.691-2.014-4.759-4.633-5.955
		c4.182,0.563,5.602,3.983,6.107,5.697l0.24,0.831c0,0,0.701,0.479,1.354,1.521C20.688,36.784,19.305,38.743,19.459,41.027z"/>
	<path fill="#EBA352" d="M29.803,27.584c0.209,0.578,0.486,1.026,0.793,1.487c0.313,0.454,0.641,0.926,0.928,1.465
		c0.27,0.542,0.488,1.165,0.491,1.81c0.018,0.641-0.171,1.267-0.522,1.767c-0.05-0.613-0.105-1.158-0.251-1.664
		c-0.146-0.504-0.351-0.976-0.608-1.459c-0.237-0.491-0.535-0.994-0.734-1.577C29.694,28.845,29.59,28.169,29.803,27.584z"/>
	<path fill="#EBA352" d="M37.663,29.222c0.209,0.578,0.487,1.027,0.794,1.487c0.312,0.454,0.64,0.927,0.927,1.466
		c0.27,0.542,0.488,1.165,0.491,1.81c0.018,0.642-0.171,1.268-0.522,1.768c-0.05-0.613-0.105-1.158-0.251-1.665
		c-0.146-0.503-0.351-0.975-0.608-1.458c-0.237-0.491-0.534-0.994-0.734-1.577C37.554,30.483,37.45,29.807,37.663,29.222z"/>
	<path fill="#EBA352" d="M46.243,31.617c0.209,0.578,0.486,1.026,0.793,1.487c0.313,0.454,0.641,0.926,0.928,1.465
		c0.27,0.543,0.488,1.166,0.491,1.811c0.018,0.641-0.171,1.268-0.522,1.768c-0.05-0.613-0.105-1.158-0.251-1.664
		c-0.146-0.504-0.351-0.976-0.608-1.459c-0.237-0.491-0.535-0.994-0.734-1.576C46.134,32.877,46.03,32.201,46.243,31.617z"/>
</g>
</svg>
