<?xml version="1.0" encoding="utf-8"?>
<!-- Generator: Adobe Illustrator 15.0.0, SVG Export Plug-In . SVG Version: 6.00 Build 0)  -->
<!DOCTYPE svg PUBLIC "-//W3C//DTD SVG 1.1//EN" "http://www.w3.org/Graphics/SVG/1.1/DTD/svg11.dtd">
<svg version="1.1" id="Layer_1" xmlns="http://www.w3.org/2000/svg" xmlns:xlink="http://www.w3.org/1999/xlink" x="0px" y="0px"
	 width="64px" height="64px" viewBox="0 0 64 64" enable-background="new 0 0 64 64" xml:space="preserve">
<g>
	<path fill="#42ADE2" d="M16.169,48.544c-0.473-0.098-0.938-0.234-1.396-0.395c-0.455-0.156-0.902-0.34-1.346-0.545
		c-0.881-0.41-1.729-0.91-2.521-1.49c-1.59-1.156-2.963-2.66-3.955-4.395c-0.994-1.734-1.586-3.691-1.721-5.648
		c-0.068-0.98-0.031-1.957,0.105-2.912c0.074-0.476,0.166-0.949,0.291-1.414c0.121-0.463,0.266-0.92,0.449-1.365l0.127,1.412
		c0.045,0.467,0.096,0.924,0.156,1.378c0.121,0.906,0.277,1.795,0.488,2.66c0.422,1.729,1.047,3.365,1.914,4.877
		c0.861,1.516,1.959,2.904,3.215,4.191c0.629,0.643,1.301,1.258,2.004,1.861c0.35,0.299,0.711,0.596,1.076,0.891L16.169,48.544z"/>
	<path fill="#42ADE2" d="M15.888,52.204c-0.346,0.158-0.699,0.277-1.061,0.379c-0.357,0.102-0.729,0.18-1.1,0.24
		c-0.742,0.121-1.504,0.158-2.266,0.121C9.933,52.868,8.39,52.45,7.017,51.7c-1.375-0.746-2.57-1.816-3.434-3.08
		c-0.436-0.629-0.787-1.301-1.061-1.998c-0.129-0.352-0.244-0.707-0.334-1.068c-0.088-0.359-0.156-0.725-0.186-1.098
		c0.252,0.277,0.49,0.555,0.727,0.826c0.234,0.27,0.469,0.537,0.709,0.793c0.473,0.516,0.951,1.002,1.445,1.455
		c0.988,0.904,2.037,1.67,3.178,2.291c1.141,0.619,2.365,1.092,3.672,1.465c0.652,0.186,1.324,0.344,2.016,0.49
		c0.346,0.074,0.695,0.141,1.055,0.211C15.158,52.056,15.519,52.122,15.888,52.204z"/>
	<path fill="#42ADE2" d="M38.578,3.267c0.484,0.125,0.955,0.287,1.416,0.473c0.461,0.182,0.91,0.395,1.35,0.621
		c0.887,0.461,1.727,1.008,2.51,1.633c1.568,1.248,2.9,2.828,3.82,4.625c0.92,1.791,1.416,3.787,1.441,5.756
		c0.012,0.984-0.082,1.963-0.279,2.912c-0.102,0.477-0.223,0.945-0.377,1.402c-0.152,0.459-0.328,0.908-0.539,1.344l-0.053-1.422
		c-0.021-0.469-0.047-0.934-0.084-1.393c-0.068-0.916-0.18-1.814-0.346-2.691c-0.334-1.758-0.885-3.432-1.689-4.996
		c-0.799-1.566-1.842-3.018-3.061-4.377c-0.613-0.68-1.268-1.334-1.957-1.977c-0.342-0.322-0.697-0.637-1.059-0.955L38.578,3.267z"
		/>
	<path fill="#42ADE2" d="M47.398,2.802c0.357,0.1,0.701,0.23,1.041,0.381c0.336,0.145,0.662,0.316,0.984,0.502
		c0.639,0.373,1.232,0.814,1.783,1.316c1.098,1.004,1.986,2.266,2.533,3.664c0.557,1.398,0.76,2.924,0.59,4.385
		c-0.084,0.73-0.254,1.441-0.504,2.119c-0.127,0.338-0.27,0.67-0.439,0.988c-0.164,0.318-0.352,0.629-0.57,0.922
		c-0.012-0.361-0.008-0.711-0.01-1.055c-0.006-0.346-0.006-0.686-0.021-1.021c-0.021-0.67-0.064-1.322-0.145-1.961
		c-0.156-1.275-0.447-2.486-0.904-3.646c-0.453-1.162-1.072-2.266-1.811-3.348c-0.371-0.541-0.771-1.074-1.197-1.611
		c-0.213-0.266-0.43-0.533-0.654-0.803C47.85,3.363,47.623,3.089,47.398,2.802z"/>
	<g>
		<g>
			<path fill="#FFE1BD" d="M44.275,38.62l7.307-3.867L35.134,4.275c-1.103-2.041-3.656-2.877-5.666-1.813l-0.021,0.01
				c-2.012,1.066-2.725,3.629-1.588,5.732L44.275,38.62z"/>
			<path fill="#FFE1BD" d="M35.644,43.188l8.632-4.568L26.443,5.582c-1.346-2.492-4.367-3.496-6.75-2.234l0,0
				c-2.385,1.262-3.227,4.311-1.881,6.805L35.644,43.188z"/>
			<path fill="#FFE1BD" d="M28.119,47.173l7.525-3.984L18.859,12.091c-1.174-2.172-3.807-3.043-5.877-1.945l-0.014,0.006
				c-2.078,1.1-2.805,3.75-1.635,5.922L28.119,47.173z"/>
			<path fill="#FFE1BD" d="M8.294,18.617c-1.932,1.023-2.547,3.451-1.459,5.469l14.424,26.718l6.859-3.631l-14.422-26.72
				C12.609,18.437,10.228,17.593,8.294,18.617L8.294,18.617z"/>
		</g>
		<path fill="#E6B796" d="M29.468,2.462l-0.021,0.01c-0.217,0.115-0.416,0.258-0.602,0.404c1.875-0.584,4.006,0.27,4.989,2.088
			l16.447,30.478l1.301-0.689L35.134,4.275C34.031,2.234,31.478,1.398,29.468,2.462z"/>
		<path fill="#E6B796" d="M19.693,3.347c-0.223,0.117-0.422,0.266-0.615,0.414c2.248-0.768,4.848,0.248,6.066,2.51l17.831,33.037
			l1.301-0.688L26.443,5.582C25.097,3.089,22.076,2.085,19.693,3.347z"/>
		<path fill="#E6B796" d="M12.982,10.146l-0.014,0.006c-0.221,0.117-0.42,0.26-0.607,0.408c1.939-0.611,4.15,0.277,5.199,2.219
			l16.784,31.099l1.3-0.689L18.859,12.091C17.685,9.919,15.052,9.048,12.982,10.146z"/>
		<path fill="#E6B796" d="M8.294,18.617c-0.223,0.119-0.424,0.26-0.609,0.412c1.777-0.529,3.75,0.328,4.711,2.113l14.422,26.72
			l1.301-0.689l-14.422-26.72C12.609,18.437,10.228,17.593,8.294,18.617z"/>
	</g>
	<path fill="#FFE1BD" d="M60.758,15.669c-2.797-1.893-7.182,0.594-9.125,7.814c-1.357,5.043-1.105,4.582-4.395,6.32l-2.021-3.742
		c0,0-9.866-1.477-22.625,8.335c0,0-7.396,5.346-5.174,9.459c0,0,4.086,10.809,10.334,15.656c9.3,7.223,32.235-1.715,30.368-21.4
		c-0.369-3.912,0.373-6.087,1.232-10.166C60.383,23.033,63.826,17.75,60.758,15.669z"/>
	<g>
		<path fill="#E6B796" d="M60.758,15.669c-0.529-0.359-1.117-0.559-1.736-0.6c0.133,0.066,0.266,0.133,0.391,0.219
			c3.068,2.078-0.377,7.361-1.41,12.275c-0.855,4.08-1.66,6.218-1.287,10.13c1.615,17.064-15.4,26.045-26.02,23.43
			c10.44,3.842,29.114-5.172,27.424-23.012c-0.369-3.912,0.373-6.087,1.232-10.166C60.383,23.033,63.826,17.75,60.758,15.669z"/>
	</g>
	<g>
		<path fill="#E6B796" d="M37.632,50.101c-2.985-5.535-1.182-12.266,4.005-15.182c-1.143,0.09-2.281,0.389-3.346,0.953
			c-4.373,2.314-5.918,7.904-3.448,12.48c1.08,2.002,2.75,3.467,4.649,4.303C38.783,51.903,38.149,51.058,37.632,50.101z"/>
		<path fill="#E6B796" d="M35.8,47.237c-1.081-2.807-4.031-4.527-6.933-3.904c-0.463,0.098-0.895,0.252-1.295,0.449
			c0.502-1.262,1.574-2.242,2.984-2.545c2.348-0.504,4.734,1.055,5.337,3.477C36.112,45.589,36.063,46.46,35.8,47.237z"/>
	</g>
	<path fill="#E6B796" d="M45.568,26.097c-8.071-0.656-23.788,7.468-28.239,14.949C19.5,31.074,38.764,22.873,45.568,26.097z"/>
</g>
</svg>
