<?xml version="1.0" encoding="utf-8"?>
<!-- Generator: Adobe Illustrator 15.0.0, SVG Export Plug-In . SVG Version: 6.00 Build 0)  -->
<!DOCTYPE svg PUBLIC "-//W3C//DTD SVG 1.1//EN" "http://www.w3.org/Graphics/SVG/1.1/DTD/svg11.dtd">
<svg version="1.1" id="Layer_1" xmlns="http://www.w3.org/2000/svg" xmlns:xlink="http://www.w3.org/1999/xlink" x="0px" y="0px"
	 width="64px" height="64px" viewBox="0 0 64 64" enable-background="new 0 0 64 64" xml:space="preserve">
<g>
	<g>
		<path fill="#B47D56" d="M44.332,52.418c-0.344-4.35-2.389-12.809-2.73-17.158c-0.416-5.25-3.669-9.523-8.191-9.523h-7.357
			c0,0,0.314-5.32,2.902-9.785c2.549-4.4,0.891-11.332-1.805-13.102c-3.223-2.121-6.477-0.154-7.105,4.598
			c-1.379,10.422-8.623,20.238-9.016,27.754c-0.227,4.357,0.893,12.939,1.631,17.219c1.098,6.33,3.668,9.58,8.191,9.58H36.14
			C40.66,62,44.742,57.666,44.332,52.418z"/>
		<g>
			<path fill="#935E3E" d="M38.77,60.223H23.482c-4.523,0-7.094-3.252-8.191-9.582c-0.742-4.279-1.855-12.848-1.629-17.205
				c0.391-7.52,7.635-17.346,9.014-27.766c0.199-1.498,0.656-2.721,1.293-3.625c-1.945,0.33-3.508,2.254-3.924,5.398
				c-1.379,10.42-8.623,20.24-9.016,27.756c-0.227,4.357,0.893,12.939,1.631,17.219C13.758,58.75,16.328,62,20.852,62H36.14
				c2.067,0,4.046-0.9,5.542-2.381C40.762,60.008,39.777,60.223,38.77,60.223z"/>
		</g>
		<g>
			<path fill="#B47D56" d="M52.086,29.943c0,2.387-1.867,4.324-4.174,4.324H32.701c-2.307,0-4.178-1.938-4.178-4.324l0,0
				c0-2.391,1.871-4.328,4.178-4.328h15.211C50.219,25.615,52.086,27.553,52.086,29.943L52.086,29.943z"/>
			<path fill="#B47D56" d="M53,39.51c0,2.867-2.24,5.188-5.004,5.188H29.867c-2.764,0-5.004-2.32-5.004-5.188v-0.055
				c0-2.865,2.24-5.188,5.004-5.188h18.129c2.764,0,5.004,2.322,5.004,5.188V39.51z"/>
			<path fill="#B47D56" d="M50.828,49.201c0,2.486-1.947,4.504-4.346,4.504H30.695c-2.4,0-4.344-2.018-4.344-4.504v-0.002
				c0-2.486,1.943-4.502,4.344-4.502h15.787c2.398,0,4.346,2.016,4.346,4.502V49.201z"/>
			<path fill="#B47D56" d="M47.889,57.852c0,2.299-1.797,4.148-4.016,4.148H32.541c-2.217,0-4.014-1.813-4.014-4.09l0,0
				c0-2.395,1.797-4.205,4.014-4.205h11.332C46.092,53.705,47.889,55.553,47.889,57.852L47.889,57.852z"/>
		</g>
		<g>
			<g>
				<path fill="#935E3E" d="M34.576,33.557c-2.307,0-4.178-2.014-4.178-4.406c0-1.43,0.668-2.734,1.699-3.523
					c-2.02,0.305-3.57,2.119-3.57,4.297c0,2.393,1.871,4.344,4.182,4.344h15.18c0.93,0,1.785-0.271,2.48-0.799
					c-0.199,0.027-0.402,0.088-0.609,0.088H34.576z"/>
				<path fill="#935E3E" d="M31.773,43.867c-2.768,0-5.006-2.365-5.006-5.229c0-1.787,0.871-3.385,2.201-4.318
					c-2.318,0.453-4.07,2.609-4.07,5.143c0,2.865,2.24,5.234,5.004,5.234h18.152c1.039,0,2.004-0.344,2.801-0.904
					c-0.301,0.059-0.611,0.074-0.934,0.074H31.773z"/>
				<path fill="#935E3E" d="M32.541,52.875c-2.398,0-4.344-2.061-4.344-4.547c0-1.502,0.713-2.855,1.805-3.674
					c-2.084,0.336-3.674,2.25-3.674,4.498c0,2.488,1.945,4.553,4.344,4.553h15.842c0.949,0,1.826-0.332,2.541-0.869
					c-0.219,0.035-0.441,0.039-0.67,0.039H32.541z"/>
				<path fill="#935E3E" d="M34.412,61.172c-2.217,0-4.014-1.855-4.014-4.135c0-1.412,0.623-2.639,1.59-3.396
					c-1.957,0.275-3.461,2.027-3.461,4.217c0,2.279,1.797,4.143,4.014,4.143h11.332c0.906,0,1.744-0.326,2.416-0.852
					c-0.178,0.023-0.361,0.023-0.545,0.023H34.412z"/>
			</g>
		</g>
	</g>
</g>
</svg>
