<?xml version="1.0" encoding="utf-8"?>
<!-- Generator: Adobe Illustrator 15.0.0, SVG Export Plug-In . SVG Version: 6.00 Build 0)  -->
<!DOCTYPE svg PUBLIC "-//W3C//DTD SVG 1.1//EN" "http://www.w3.org/Graphics/SVG/1.1/DTD/svg11.dtd">
<svg version="1.1" id="Layer_1" xmlns="http://www.w3.org/2000/svg" xmlns:xlink="http://www.w3.org/1999/xlink" x="0px" y="0px"
	 width="64px" height="64px" viewBox="0 0 64 64" enable-background="new 0 0 64 64" xml:space="preserve">
<g>
	<path fill="#FFDD67" d="M44.332,11.582c-0.344,4.35-2.389,12.809-2.73,17.158c-0.416,5.25-3.67,9.523-8.191,9.523h-7.357
		c0,0,0.314,5.32,2.902,9.785c2.549,4.4,0.891,11.332-1.805,13.102c-3.223,2.121-6.477,0.154-7.105-4.598
		c-1.379-10.422-8.623-20.238-9.016-27.754c-0.227-4.357,0.893-12.939,1.631-17.219C13.758,5.25,16.328,2,20.852,2h15.287
		C40.66,2,44.742,6.334,44.332,11.582z"/>
	<path fill="#EBA352" d="M38.77,3.777H23.482c-4.523,0-7.094,3.252-8.191,9.582c-0.742,4.279-1.855,12.848-1.629,17.205
		c0.391,7.52,7.635,17.346,9.014,27.766c0.199,1.498,0.656,2.721,1.293,3.625c-1.945-0.33-3.508-2.254-3.924-5.398
		c-1.379-10.42-8.623-20.24-9.016-27.756c-0.227-4.357,0.893-12.939,1.631-17.219C13.758,5.25,16.328,2,20.852,2h15.287
		c2.068,0,4.047,0.9,5.543,2.381C40.762,3.992,39.777,3.777,38.77,3.777z"/>
	<g>
		<path fill="#FFDD67" d="M52.086,34.057c0-2.387-1.867-4.324-4.174-4.324H32.701c-2.307,0-4.178,1.938-4.178,4.324l0,0
			c0,2.391,1.871,4.328,4.178,4.328h15.211C50.219,38.385,52.086,36.447,52.086,34.057L52.086,34.057z"/>
		<path fill="#FFDD67" d="M53,24.49c0-2.867-2.24-5.188-5.004-5.188H29.867c-2.764,0-5.004,2.32-5.004,5.188v0.055
			c0,2.865,2.24,5.188,5.004,5.188h18.129c2.764,0,5.004-2.322,5.004-5.188V24.49z"/>
		<path fill="#FFDD67" d="M50.828,14.799c0-2.486-1.947-4.504-4.346-4.504H30.695c-2.4,0-4.344,2.018-4.344,4.504v0.002
			c0,2.486,1.943,4.502,4.344,4.502h15.787c2.398,0,4.346-2.016,4.346-4.502V14.799z"/>
		<path fill="#FFDD67" d="M47.889,6.148C47.889,3.85,46.092,2,43.873,2H32.541c-2.217,0-4.014,1.813-4.014,4.09l0,0
			c0,2.395,1.797,4.205,4.014,4.205h11.332C46.092,10.295,47.889,8.447,47.889,6.148L47.889,6.148z"/>
	</g>
	<g>
		<path fill="#EBA352" d="M34.576,30.443c-2.307,0-4.178,2.014-4.178,4.406c0,1.43,0.668,2.734,1.699,3.523
			c-2.02-0.305-3.57-2.119-3.57-4.297c0-2.393,1.871-4.344,4.182-4.344h15.18c0.93,0,1.785,0.271,2.48,0.799
			c-0.199-0.027-0.402-0.088-0.609-0.088H34.576z"/>
		<path fill="#EBA352" d="M31.773,20.133c-2.768,0-5.006,2.365-5.006,5.229c0,1.787,0.871,3.385,2.201,4.318
			c-2.318-0.453-4.07-2.609-4.07-5.143c0-2.865,2.24-5.234,5.004-5.234h18.152c1.039,0,2.004,0.344,2.801,0.904
			c-0.301-0.059-0.611-0.074-0.934-0.074H31.773z"/>
		<path fill="#EBA352" d="M32.541,11.125c-2.398,0-4.344,2.061-4.344,4.547c0,1.502,0.713,2.855,1.805,3.674
			c-2.084-0.336-3.674-2.25-3.674-4.498c0-2.488,1.945-4.553,4.344-4.553h15.842c0.949,0,1.826,0.332,2.541,0.869
			c-0.219-0.035-0.441-0.039-0.67-0.039H32.541z"/>
		<path fill="#EBA352" d="M34.412,2.828c-2.217,0-4.014,1.855-4.014,4.135c0,1.412,0.623,2.639,1.59,3.396
			c-1.957-0.275-3.461-2.027-3.461-4.217C28.527,3.863,30.324,2,32.541,2h11.332c0.906,0,1.744,0.326,2.416,0.852
			c-0.178-0.023-0.361-0.023-0.545-0.023H34.412z"/>
	</g>
</g>
</svg>
