<?xml version="1.0" encoding="utf-8"?>
<!-- Generator: Adobe Illustrator 15.0.0, SVG Export Plug-In . SVG Version: 6.00 Build 0)  -->
<!DOCTYPE svg PUBLIC "-//W3C//DTD SVG 1.1//EN" "http://www.w3.org/Graphics/SVG/1.1/DTD/svg11.dtd">
<svg version="1.1" id="Layer_1" xmlns="http://www.w3.org/2000/svg" xmlns:xlink="http://www.w3.org/1999/xlink" x="0px" y="0px"
	 width="64px" height="64px" viewBox="0 0 64 64" enable-background="new 0 0 64 64" xml:space="preserve">
<g>
	<path fill="#B47D56" d="M35.307,12.646c-0.418,4.445-3.977,5.928-5.736,6.447l-0.832,0.24c0,0-0.572,0.498-1.473,1.131
		c-0.014,0.074-0.033,0.148-0.049,0.223c0,0,7.752,0.465,10.305,0.113c2.822-0.391,15.242-0.387,18.287-0.549
		c3.583-0.189,6.194,0.459,6.194,4.504c0,4.092-3.172,5.342-6.194,5.092c-4.166-0.344-18.258-0.563-18.258-0.563
		c1.818,0.436,3.486,1.223,3.176,4.217c-0.355,3.428-1.684,4.076-3.814,4.232c2.883,1.682,2.668,3.961,2.311,5.377
		c-0.604,2.393-4.914,3.059-4.914,3.082c3.201,0.939,2.645,2.422,2.336,4.498c-0.189,1.268-1.484,2.748-3.688,3.279
		c-2.207,0.533-3.836,2.174-21.049-0.287c-4.52-0.646-6.746-4.592-7.775-10.547c-0.693-4.023-1.797-9.512-2.107-13.604
		c-0.029-0.369-0.027-0.732-0.01-1.092c-0.119-2.268,0.848-4.549,2.766-5.959l12.191-8.949c0.016-0.01,0.031-0.018,0.045-0.029
		c0.584-0.639,1.406-1.045,2.43-1.152c3.051-0.322,6.881-1.053,11.369-3.117C32.477,8.469,35.6,9.568,35.307,12.646z"/>
	<g>
		<g>
			<path fill="#935E3E" d="M36.854,49.309c0.57-3.816-5.295-3.523-2.828-2.736C36.611,47.398,36.854,49.309,36.854,49.309z"/>
		</g>
	</g>
	<g>
		<g>
			<path fill="#935E3E" d="M39.412,41.988c0.535-5.209-5.271-4.67-2.885-3.67C38.949,39.332,39.412,41.988,39.412,41.988z"/>
		</g>
	</g>
	<g>
		<g>
			<path fill="#935E3E" d="M40.738,33.395c0.533-5.211-5.654-4.672-3.268-3.672C39.893,30.738,40.738,33.395,40.738,33.395z"/>
		</g>
	</g>
	<g>
		<g>
			<path fill="#935E3E" d="M27.217,20.688c0,0,12.596-1.457,28.639-0.748c2.335,0.104,5.938,0.113,6.13,4.266
				C60.513,19.543,44.6,21.709,27.217,20.688z"/>
			<path fill="#935E3E" d="M34.432,9.994c-0.721-0.186-1.469-0.148-2.041,0.115c-4.488,2.064-8.318,2.795-11.369,3.117
				c-1.023,0.107-1.846,0.514-2.43,1.152c-0.014,0.012-0.029,0.02-0.045,0.029L6.355,23.357c-1.918,1.41-2.885,3.691-2.766,5.959
				c-0.018,0.359-0.02,0.723,0.01,1.092c0.311,4.092,1.414,9.58,2.107,13.604c0.736,4.25,2.086,7.469,4.438,9.201
				c-3.352-1.328-5.125-4.957-6.012-10.076c-0.693-4.023-1.797-9.512-2.107-13.604c-0.029-0.369-0.027-0.732-0.01-1.092
				c-0.119-2.268,0.848-4.549,2.766-5.959l12.191-8.949c0.016-0.01,0.031-0.018,0.045-0.029c0.584-0.639,1.406-1.045,2.43-1.152
				c3.051-0.322,6.881-1.053,11.369-3.117C31.848,8.76,33.439,9.004,34.432,9.994z"/>
		</g>
	</g>
	<path fill="#935E3E" d="M22.975,19.459c0,0,4.309-1.313,6.338-1.84c1.691-0.438,4.76-2.014,5.955-4.633
		c-0.563,4.182-3.984,5.602-5.697,6.107l-0.832,0.24c0,0-0.479,0.701-1.521,1.354C27.217,20.688,25.258,19.305,22.975,19.459z"/>
	<path fill="#935E3E" d="M36.418,29.803c-0.578,0.209-1.026,0.487-1.487,0.794c-0.454,0.313-0.927,0.641-1.466,0.927
		c-0.542,0.271-1.165,0.488-1.811,0.492c-0.642,0.018-1.268-0.172-1.768-0.523c0.613-0.05,1.158-0.104,1.664-0.25
		c0.504-0.146,0.976-0.351,1.46-0.608c0.491-0.237,0.993-0.535,1.576-0.734C35.156,29.693,35.834,29.59,36.418,29.803z"/>
	<path fill="#935E3E" d="M34.779,37.664c-0.578,0.209-1.026,0.486-1.487,0.793c-0.454,0.313-0.927,0.641-1.466,0.928
		c-0.542,0.27-1.165,0.487-1.811,0.49c-0.642,0.018-1.268-0.172-1.768-0.523c0.613-0.05,1.158-0.104,1.664-0.25
		c0.504-0.146,0.977-0.35,1.46-0.607c0.491-0.238,0.993-0.535,1.576-0.734C33.519,37.555,34.195,37.451,34.779,37.664z"/>
	<path fill="#935E3E" d="M32.385,46.244c-0.578,0.209-1.026,0.486-1.487,0.793c-0.454,0.313-0.926,0.641-1.465,0.927
		c-0.542,0.271-1.165,0.488-1.81,0.491c-0.642,0.018-1.268-0.172-1.768-0.523c0.613-0.05,1.158-0.104,1.664-0.25
		c0.504-0.146,0.975-0.351,1.459-0.607c0.49-0.238,0.993-0.535,1.576-0.734C31.124,46.135,31.801,46.031,32.385,46.244z"/>
</g>
</svg>
