<?xml version="1.0" encoding="utf-8"?>
<!-- Generator: Adobe Illustrator 15.0.0, SVG Export Plug-In . SVG Version: 6.00 Build 0)  -->
<!DOCTYPE svg PUBLIC "-//W3C//DTD SVG 1.1//EN" "http://www.w3.org/Graphics/SVG/1.1/DTD/svg11.dtd">
<svg version="1.1" id="Layer_1" xmlns="http://www.w3.org/2000/svg" xmlns:xlink="http://www.w3.org/1999/xlink" x="0px" y="0px"
	 width="64px" height="64px" viewBox="0 0 64 64" enable-background="new 0 0 64 64" xml:space="preserve">
<g>
	<path fill="#D6A57C" d="M41.305,46.947C26.073,53.119,29.792,60.816,21.152,61.84c-17.713,2.096-8.929-17.051-9.259-27.481
		C11.162,11.335,16.882,2.79,33.43,2.021C55.848,0.978,62.108,38.517,41.305,46.947z"/>
	<path fill="#B58360" d="M22.72,32.939c-2.386-2.217-4.133-5.12-5.082-8.41c-0.485-1.648-0.675-3.431-0.532-5.261
		c0.161-1.825,0.769-3.674,1.742-5.304c1.003-1.614,2.354-2.965,3.842-3.99c1.49-1.029,3.1-1.755,4.716-2.308
		c1.766-0.594,3.729-0.821,5.614-0.542c1.89,0.262,3.652,1.011,5.136,2.019c2.996,2.017,5.019,4.876,6.473,7.852
		c1.421,3.01,2.269,6.225,2.57,9.48c0.272,3.252-0.008,6.578-1.104,9.66c-0.548,1.535-1.308,3-2.297,4.289
		c-0.994,1.285-2.211,2.384-3.572,3.218l-0.256-0.37c2.459-1.89,4.063-4.635,4.8-7.547c0.747-2.925,0.722-6.008,0.198-8.961
		c-0.512-2.959-1.527-5.831-2.994-8.386c-1.442-2.55-3.386-4.838-5.723-6.18c-1.17-0.657-2.416-1.042-3.648-1.105
		c-1.236-0.059-2.455,0.216-3.615,0.738c-2.613,1.148-4.916,2.617-6.385,4.613c-1.514,1.962-2.063,4.646-1.853,7.513
		c0.23,2.865,1.06,5.848,2.331,8.714L22.72,32.939z"/>
	<path fill="#B58360" d="M18.904,20.885c2.909-1.274,6.584-1.125,9.658,0.479c3.069,1.563,5.593,4.633,6.167,8.122
		c0.298,1.717,0.162,3.489-0.225,5.088c-0.39,1.621-1.009,3.108-1.665,4.539c-0.669,1.426-1.417,2.799-2.282,4.115
		c-0.866,1.314-1.813,2.607-2.961,3.781c-1.149,1.161-2.481,2.256-4.105,2.969c-1.605,0.727-3.509,1.064-5.423,0.813
		c-0.477-0.064-0.951-0.162-1.418-0.291c-0.225-0.069-0.457-0.131-0.756-0.256c-0.363-0.163-0.691-0.318-1.119-0.709
		c-0.407-0.356-0.867-1.059-0.959-1.809c-0.103-0.746,0.062-1.319,0.212-1.721c0.326-0.799,0.67-1.211,0.98-1.613
		c1.238-1.482,2.413-2.355,3.548-3.335c1.134-0.932,2.221-1.835,3.095-2.729c0.432-0.444,0.79-0.899,1.003-1.292
		c0.226-0.398,0.327-0.662,0.319-0.979c-0.017-0.311-0.189-0.777-0.569-1.238c-0.372-0.457-0.875-0.92-1.429-1.354
		c-1.119-0.867-2.425-1.639-3.745-2.449l0.129-0.43c1.568,0.067,3.129,0.305,4.689,0.842c0.781,0.271,1.57,0.614,2.332,1.159
		c0.751,0.529,1.554,1.296,1.983,2.438c0.444,1.139,0.365,2.461,0.032,3.461c-0.338,1.018-0.833,1.833-1.342,2.567
		c-1.028,1.46-2.207,2.582-3.35,3.634c-1.13,1.017-2.355,2.008-3.139,2.777c-0.179,0.17-0.305,0.365-0.271,0.266
		c0.01-0.053,0.085-0.244,0.034-0.613c-0.049-0.373-0.3-0.732-0.435-0.832c-0.156-0.125-0.15-0.092-0.173-0.094
		c0.043,0.035,0.172,0.088,0.303,0.146c0.252,0.104,0.512,0.191,0.779,0.262c2.126,0.524,4.812-0.104,7.252-1.514
		c2.443-1.413,4.493-3.774,5.44-6.522c0.481-1.368,0.638-2.835,0.536-4.225c-0.029-0.374-0.068-0.631-0.125-1.038
		c-0.065-0.316-0.118-0.667-0.211-0.987c-0.153-0.655-0.355-1.282-0.599-1.88c-0.913-2.38-2.268-4.514-4.372-6.086
		c-1.034-0.791-2.216-1.438-3.514-1.948c-1.313-0.501-2.7-0.827-4.257-1.068L18.904,20.885z"/>
</g>
</svg>
