<?xml version="1.0" encoding="utf-8"?>
<!-- Generator: Adobe Illustrator 15.0.0, SVG Export Plug-In . SVG Version: 6.00 Build 0)  -->
<!DOCTYPE svg PUBLIC "-//W3C//DTD SVG 1.1//EN" "http://www.w3.org/Graphics/SVG/1.1/DTD/svg11.dtd">
<svg version="1.1" id="Layer_1" xmlns="http://www.w3.org/2000/svg" xmlns:xlink="http://www.w3.org/1999/xlink" x="0px" y="0px"
	 width="64px" height="64px" viewBox="0 0 64 64" enable-background="new 0 0 64 64" xml:space="preserve">
<g>
	<path fill="#FFBE73" d="M48.126,32.832c0.871,2.445,1.359,6.482,0.15,11.58c0,0-5.545-4.523-6.564-6.908
		c0,0-3.189-9.25-5.674-15.051c-1.021-2.383-4.121-3.23-5.556-6.559c-2.504-5.803,0.439-10.82,3.433-7.199
		c3.449,4.174,8.479,7.27,9.496,9.654C45.112,22.328,46.854,29.244,48.126,32.832z"/>
	<path fill="#FFDD67" d="M53.265,36.625c0.449,3.16,0.061,8.135-2.629,13.949c0,0-5.563-6.84-6.209-9.963
		c0,0-1.59-11.922-3.166-19.52c-0.648-3.123-4.168-4.928-5.084-9.289c-1.6-7.605,3.15-12.887,5.867-7.777
		c3.133,5.891,8.42,10.885,9.066,14.008C52.188,23.244,52.603,31.994,53.265,36.625z"/>
	<path fill="#EBA352" d="M46.085,38.055c0,0-1.588-11.922-3.168-19.518c-0.646-3.125-4.164-4.93-5.082-9.291
		c-0.549-2.619-0.35-4.963,0.262-6.701c-1.67,1.318-3.023,4.906-2.107,9.26c0.918,4.361,4.455,6.186,5.104,9.311
		c1.578,7.598,3.334,19.496,3.334,19.496c0.645,3.123,6.209,9.963,6.209,9.963c0.494-1.064,0.885-2.09,1.232-3.092
		C50.563,45.824,46.624,40.656,46.085,38.055z"/>
	<path fill="#FFDD67" d="M50.915,35.441c-6.467-6.041-13.645-9.697-18.302-12.047c-6.912-3.488-5.094,1.313-16.883,4.484
		c-1.557,0.418-3.41,1.584-1.994,4.619c1.365,2.922,12.496,0.705,14.225-1.045c0,0,4.658,5.85,9.312,5.713
		c0,0-0.805,3.883,0.328,5.76c0,0-6.595,3.523-9.419,6.615l-7.84-5.389c-0.574-8.336-2.051-10.803-6.043-10.408
		c-3.723,0.367-3.303,3.953-3.221,6.906c0.146,5.314-1.227,6.176,0.039,8.285C15.955,57,22.027,62,33.327,62
		c4.23,0,6.918-0.115,9.518-1.438C47.202,58.348,58.03,42.088,50.915,35.441z"/>
	<g>
		<path fill="#EBA352" d="M52.179,37.021c2.418,7.617-6.221,20.102-10.002,22.023c-2.6,1.32-5.287,1.436-9.517,1.436
			c-11.176,0-17.283-4.92-22.053-12.807c0.115,0.439,0.273,0.855,0.518,1.262C15.962,57,22.037,62,33.335,62
			c4.232,0,6.92-0.115,9.52-1.438C46.897,58.508,56.505,44.361,52.179,37.021z"/>
	</g>
	<g>
		<path fill="#EBA352" d="M18.97,44.412c0,0,7.289,4.803,9.061,5.068l-7.688-5.328c0.313-8.416-2.092-11.096-6.045-10.408
			c-0.322,0.057-0.609,0.123-0.869,0.199C17.388,33.531,19.291,36.201,18.97,44.412z"/>
	</g>
	<g>
		<path fill="#EBA352" d="M27.98,31.453c0,0,4.66,5.85,9.312,5.713V36.08c-4.652,0.137-9.312-5.715-9.312-5.715
			c-1.727,1.75-12.857,3.967-14.223,1.045c-0.24-0.512-0.379-0.969-0.449-1.381c-0.129,0.641-0.027,1.445,0.449,2.469
			C15.123,35.42,26.253,33.203,27.98,31.453z"/>
	</g>
</g>
</svg>
