<?xml version="1.0" encoding="utf-8"?>
<!-- Generator: Adobe Illustrator 15.0.0, SVG Export Plug-In . SVG Version: 6.00 Build 0)  -->
<!DOCTYPE svg PUBLIC "-//W3C//DTD SVG 1.1//EN" "http://www.w3.org/Graphics/SVG/1.1/DTD/svg11.dtd">
<svg version="1.1" id="Layer_1" xmlns="http://www.w3.org/2000/svg" xmlns:xlink="http://www.w3.org/1999/xlink" x="0px" y="0px"
	 width="64px" height="64px" viewBox="0 0 64 64" enable-background="new 0 0 64 64" xml:space="preserve">
<g>
	<path fill="#FED0AC" d="M59.482,15.495c-0.045-2.631-2.209-6.205-6.538-6.938c-3.52-0.596-7.072,0.6-7.93,3.59
		c-0.445-3.902-3.869-5.244-8.076-5.143c-4.1,0.102-7.475,1.969-7.891,5.738c-1.031-2.242-3.676-2.943-6.818-2.867L22.103,9.88
		c-3.068,0.074-5.688,1.162-6.697,3.463c-0.908-0.5-2.238-0.561-4.186,0.115c-2.402,0.836-6.646,4.418-8.414,11.854
		c-1.365,5.736,0.5,13.73,0.5,13.73c-0.189,3.555,2.564,6.59,6.1,6.779c2.734,0.145,5.111-1.301,6.252-3.49l0.031,1.154
		c0.098,3.982,3.414,7.131,7.406,7.035l0.127-0.002c3.162-0.08,5.795-2.172,6.707-5.018c0.664,3.863,4.072,6.762,8.119,6.662
		c4.42-0.109,7.916-3.752,7.85-8.154c0.596,3.598,3.754,6.314,7.516,6.244l0.125-0.002c4.134-0.076,8.54-4.119,8.464-8.24
		C62.002,42.011,59.732,30.198,59.482,15.495z"/>
	<path fill="#E0A372" d="M61.836,43.517c-1.342,1.623-3.34,2.768-5.608,2.809l-0.125,0.002c-0.389,0.008-0.799-0.02-1.217-0.064
		c-0.199-0.025-0.402-0.051-0.607-0.076c-2.605-0.412-5.484-1.723-7.135-3.605c0.352-2.299,0.402-4.596,0.371-6.854
		c-0.039-2.459-0.193-4.883-0.303-7.301c-0.113-2.422-0.18-4.818-0.082-7.303c-0.521,1.135-0.867,2.346-1.133,3.564
		c-0.264,1.225-0.43,2.463-0.543,3.699c-0.221,2.477-0.221,4.943-0.178,7.377c0.041,2.436,0.141,4.844,0.041,7.213
		c-0.053,1.184-0.088,2.965-0.48,3.793c-0.805,1.693-3.203,2.055-5.221,2.104c-3.494,0.086-7.225-2.027-8.717-5.088
		c0.004-0.033,0.008-0.064,0.012-0.098c0.139-1.064,0.279-2.131,0.396-3.205c0.225-2.143,0.365-4.313,0.365-6.48
		c0-2.174-0.131-4.352-0.436-6.512c-0.15-1.08-0.346-2.158-0.598-3.221c-0.256-1.064-0.553-2.119-0.953-3.146
		c-0.082,1.1-0.109,2.184-0.141,3.26c-0.029,1.078-0.045,2.148-0.063,3.217c-0.029,2.137-0.051,4.266-0.051,6.4
		c0.002,2.135,0.02,4.273,0.117,6.432c0.045,0.902,0.102,3.506,0.195,4.66c-1.27,1.275-3.01,2.088-4.955,2.137l-0.125,0.002
		c-3.324,0.082-6.717-2.561-7.82-5.744c0.006-0.098,0.01-0.195,0.018-0.293c0.129-1.852,0.268-3.715,0.354-5.594
		c0.08-1.879,0.117-3.775-0.012-5.695c-0.068-0.955-0.172-1.918-0.367-2.879c-0.105-0.48-0.225-0.961-0.396-1.428
		c-0.086-0.234-0.188-0.465-0.305-0.686c-0.123-0.221-0.264-0.432-0.447-0.598c0.07,0.232,0.102,0.463,0.121,0.697
		c0.018,0.229,0.018,0.463,0.012,0.693c-0.01,0.461-0.043,0.924-0.084,1.387c-0.086,0.924-0.191,1.85-0.297,2.779
		c-0.205,1.861-0.381,3.736-0.463,5.633c-0.076,1.893-0.082,3.805,0.133,5.732c0.006,0.051,0.016,0.1,0.021,0.15
		c-1.162,0.791-2.598,1.146-4.154,1.146c-10.117,0-7.969-14.775-6.605-20.51c0.227-0.949,0.482-1.809,0.764-2.59
		c-0.912,1.438-1.729,3.342-2.33,5.877c-1.365,5.736-1.977,20.51,6.6,20.51c2.518,0,4.723-1.078,5.951-2.975
		c0.08,0.424,0.295,7.674,7.738,7.674l0.127-0.002c2.314-0.059,4.328-1.205,5.611-2.926c-0.125,0.549-0.234,1.217-0.311,2.055
		c-0.502,5.434,3.799,8.111,6.455,7.164c7.18-2.563,13.172-2.91,17.908-2.727c3.203,0.123,5.317-2.127,5.745-5.797
		C60.254,47.046,61.49,45.257,61.836,43.517z"/>
</g>
</svg>
