<?xml version="1.0" encoding="utf-8"?>
<!-- Generator: Adobe Illustrator 15.0.0, SVG Export Plug-In . SVG Version: 6.00 Build 0)  -->
<!DOCTYPE svg PUBLIC "-//W3C//DTD SVG 1.1//EN" "http://www.w3.org/Graphics/SVG/1.1/DTD/svg11.dtd">
<svg version="1.1" id="Layer_1" xmlns="http://www.w3.org/2000/svg" xmlns:xlink="http://www.w3.org/1999/xlink" x="0px" y="0px"
	 width="64px" height="64px" viewBox="0 0 64 64" enable-background="new 0 0 64 64" xml:space="preserve">
<g>
	<path fill="#231F20" d="M62,32c0,0-10.121,20-30,20C12.123,52,2,32,2,32s10.123-20,30-20C51.879,12,62,32,62,32z"/>
	<path fill="#FFFFFF" d="M57,32c0,0-8.434,16.665-25,16.665C15.436,48.665,7,32,7,32s8.436-16.668,25-16.668
		C48.566,15.332,57,32,57,32z"/>
	<path fill="#42ADE2" d="M45.4,32c0,7.463-6.047,13.501-13.5,13.501c-7.457,0-13.5-6.038-13.5-13.501c0-7.454,6.043-13.5,13.5-13.5
		C39.354,18.5,45.4,24.546,45.4,32z"/>
	<path fill="#231F20" d="M39.398,31.995c0,4.148-3.359,7.509-7.496,7.509c-4.145,0-7.504-3.36-7.504-7.509
		c0-4.142,3.359-7.491,7.504-7.491C36.039,24.504,39.398,27.854,39.398,31.995z"/>
</g>
</svg>
