<?xml version="1.0" encoding="utf-8"?>
<!-- Generator: Adobe Illustrator 15.0.0, SVG Export Plug-In . SVG Version: 6.00 Build 0)  -->
<!DOCTYPE svg PUBLIC "-//W3C//DTD SVG 1.1//EN" "http://www.w3.org/Graphics/SVG/1.1/DTD/svg11.dtd">
<svg version="1.1" id="Layer_1" xmlns="http://www.w3.org/2000/svg" xmlns:xlink="http://www.w3.org/1999/xlink" x="0px" y="0px"
	 width="64px" height="64px" viewBox="0 0 64 64" enable-background="new 0 0 64 64" xml:space="preserve">
<g>
	<path fill="#ED4C5C" d="M32,22.519c-6.312,0-30,10.183-30,10.183C7.631,39.587,5.646,49.5,32,49.5c23.688,0,23.178-8.456,30-16.799
		C62,32.701,38.312,22.519,32,22.519z"/>
	<path fill="#60452B" d="M32,20.627L5.857,31.174C12.654,39.485,20.352,36.29,32,36.29c11.609,0,19.213,3.148,26.143-5.116
		L32,20.627z"/>
	<path fill="#FFFFFF" d="M58.466,30.959c0-1.719-11.191-9.924-26.466-9.924S5.534,29.24,5.534,30.959H58.466z"/>
	<path fill="#ED4C5C" d="M44.381,14.871c-2.529-0.767-6.226-0.398-11.109,1.602c-0.418,0.154-0.845,0.319-1.271,0.5
		c-0.427-0.181-0.854-0.346-1.271-0.5c-4.884-2-8.58-2.368-11.109-1.602C12.2,17.075,2,32.701,2,32.701
		c6.272,0.751,14.51-8.531,30-8.531s23.728,9.282,30,8.531C62,32.701,51.8,17.075,44.381,14.871z"/>
</g>
</svg>
