<?xml version="1.0" encoding="utf-8"?>
<!-- Generator: Adobe Illustrator 15.0.0, SVG Export Plug-In . SVG Version: 6.00 Build 0)  -->
<!DOCTYPE svg PUBLIC "-//W3C//DTD SVG 1.1//EN" "http://www.w3.org/Graphics/SVG/1.1/DTD/svg11.dtd">
<svg version="1.1" id="Layer_1" xmlns="http://www.w3.org/2000/svg" xmlns:xlink="http://www.w3.org/1999/xlink" x="0px" y="0px"
	 width="64px" height="64px" viewBox="0 0 64 64" enable-background="new 0 0 64 64" xml:space="preserve">
<g>
	<path fill="#DDE8E3" d="M2,31.428C2,40.23,5.738,53,17.001,53C28.262,53,32,40.23,32,31.428C32,4.191,2,4.191,2,31.428z"/>
	<path fill="#DDE8E3" d="M32,31.428C32,40.23,35.738,53,47.002,53C58.264,53,62,40.23,62,31.428C62,4.191,32,4.191,32,31.428z"/>
	<path fill="#FFFFFF" d="M2.798,32.088c0,7.561,2.381,19.346,11.968,19.346c9.586,0,11.966-11.785,11.966-19.346
		C26.733,6.058,2.798,6.058,2.798,32.088z"/>
	<path fill="#FFFFFF" d="M32.799,32.088c0,7.561,2.38,19.346,11.968,19.346c9.586,0,11.967-11.785,11.967-19.346
		C56.734,6.058,32.799,6.058,32.799,32.088z"/>
	<path fill="#493B30" d="M2.798,32.246c0,6.211,4.352,10.965,9.726,10.965c5.372,0,9.724-4.754,9.724-10.965
		C22.248,16.97,2.798,16.97,2.798,32.246z"/>
	<path fill="#493B30" d="M32.799,32.246c0,6.211,4.353,10.965,9.726,10.965c5.371,0,9.723-4.754,9.723-10.965
		C52.248,16.97,32.799,16.97,32.799,32.246z"/>
</g>
</svg>
