<?xml version="1.0" encoding="utf-8"?>
<!-- Generator: Adobe Illustrator 15.0.0, SVG Export Plug-In . SVG Version: 6.00 Build 0)  -->
<!DOCTYPE svg PUBLIC "-//W3C//DTD SVG 1.1//EN" "http://www.w3.org/Graphics/SVG/1.1/DTD/svg11.dtd">
<svg version="1.1" id="Layer_1" xmlns="http://www.w3.org/2000/svg" xmlns:xlink="http://www.w3.org/1999/xlink" x="0px" y="0px"
	 width="64px" height="64px" viewBox="0 0 64 64" enable-background="new 0 0 64 64" xml:space="preserve">
<g>
	<path fill="#D6A57C" d="M12.65,28.695c4.445,0.418,5.928,3.979,6.447,5.739l0.24,0.83c0,0,0.498,0.574,1.131,1.475
		c0.074,0.014,0.148,0.031,0.223,0.047c0,0,0.465-7.752,0.113-10.305c-0.391-2.822-0.387-15.241-0.549-18.287
		C20.066,4.61,20.715,2,24.76,2c4.092,0,5.342,3.172,5.092,6.193c-0.344,4.166-0.563,18.259-0.563,18.259
		c0.436-1.818,1.223-3.487,4.215-3.177c3.43,0.356,4.076,1.685,4.232,3.816c1.682-2.883,3.963-2.669,5.377-2.312
		c2.395,0.604,3.059,4.916,3.084,4.916c0.939-3.202,2.422-2.646,4.496-2.336c1.27,0.188,2.75,1.484,3.281,3.686
		c0.531,2.209,2.172,3.838-0.289,21.051c-0.646,4.52-4.592,6.744-10.545,7.773c-4.025,0.695-9.514,1.799-13.604,2.109
		c-0.369,0.029-0.732,0.027-1.092,0.008c-2.268,0.119-4.549-0.846-5.959-2.764l-8.949-12.193c-0.01-0.014-0.018-0.029-0.029-0.045
		c-0.639-0.582-1.045-1.406-1.152-2.428c-0.322-3.051-1.053-6.881-3.117-11.369C8.473,31.527,9.572,28.404,12.65,28.695z"/>
	<g>
		<g>
			<path fill="#B58360" d="M49.311,27.15c-3.814-0.571-3.521,5.293-2.734,2.828C47.4,27.39,49.311,27.15,49.311,27.15z"/>
		</g>
	</g>
	<g>
		<g>
			<path fill="#B58360" d="M41.992,24.59c-5.211-0.534-4.672,5.273-3.672,2.884C39.336,25.053,41.992,24.59,41.992,24.59z"/>
		</g>
	</g>
	<g>
		<g>
			<path fill="#B58360" d="M33.398,23.265c-5.211-0.533-4.672,5.655-3.672,3.267C30.742,24.109,33.398,23.265,33.398,23.265z"/>
		</g>
	</g>
	<g>
		<g>
			<path fill="#B58360" d="M20.691,36.785c0,0-1.457-12.596-0.748-28.638c0.104-2.335,0.113-5.938,4.266-6.129
				C19.547,3.491,21.713,19.402,20.691,36.785z"/>
			<path fill="#B58360" d="M9.998,29.572c-0.186,0.721-0.148,1.469,0.115,2.041c2.064,4.489,2.795,8.319,3.117,11.37
				c0.107,1.021,0.514,1.846,1.152,2.428c0.012,0.016,0.02,0.031,0.029,0.045l8.949,12.193c1.41,1.918,3.691,2.883,5.959,2.764
				c0.359,0.02,0.723,0.021,1.092-0.008c4.09-0.311,9.578-1.414,13.604-2.109c4.25-0.734,7.467-2.084,9.201-4.436
				c-1.328,3.352-4.957,5.125-10.076,6.01c-4.025,0.695-9.514,1.799-13.604,2.109c-0.369,0.029-0.732,0.027-1.092,0.008
				c-2.268,0.119-4.549-0.846-5.959-2.764l-8.949-12.193c-0.01-0.014-0.018-0.029-0.029-0.045c-0.639-0.582-1.045-1.406-1.152-2.428
				c-0.322-3.051-1.053-6.881-3.117-11.369C8.764,32.156,9.008,30.562,9.998,29.572z"/>
		</g>
	</g>
	<path fill="#B58360" d="M19.463,41.029c0,0-1.313-4.309-1.84-6.338c-0.438-1.692-2.014-4.76-4.633-5.956
		c4.182,0.563,5.602,3.982,6.107,5.698l0.24,0.83c0,0,0.701,0.48,1.354,1.521C20.691,36.785,19.309,38.744,19.463,41.029z"/>
	<path fill="#B58360" d="M29.807,27.585c0.209,0.578,0.486,1.025,0.793,1.486c0.313,0.455,0.641,0.927,0.928,1.466
		c0.27,0.542,0.488,1.165,0.491,1.81c0.018,0.642-0.171,1.268-0.522,1.768c-0.05-0.613-0.105-1.159-0.251-1.665
		c-0.146-0.504-0.351-0.975-0.608-1.459c-0.237-0.49-0.535-0.994-0.734-1.576C29.697,28.845,29.594,28.169,29.807,27.585z"/>
	<path fill="#B58360" d="M37.666,29.222c0.209,0.578,0.487,1.027,0.794,1.488c0.312,0.453,0.64,0.926,0.927,1.465
		c0.27,0.543,0.488,1.167,0.491,1.811c0.018,0.642-0.171,1.268-0.522,1.768c-0.05-0.613-0.105-1.158-0.251-1.664
		c-0.146-0.504-0.351-0.976-0.608-1.459c-0.237-0.491-0.534-0.994-0.734-1.576C37.557,30.484,37.453,29.807,37.666,29.222z"/>
	<path fill="#B58360" d="M46.246,31.617c0.209,0.578,0.486,1.027,0.793,1.489c0.313,0.453,0.641,0.926,0.928,1.465
		c0.27,0.542,0.488,1.165,0.491,1.811c0.018,0.641-0.171,1.268-0.522,1.768c-0.05-0.613-0.105-1.158-0.251-1.664
		c-0.146-0.504-0.351-0.977-0.608-1.459c-0.237-0.492-0.535-0.994-0.734-1.577C46.137,32.878,46.033,32.202,46.246,31.617z"/>
</g>
</svg>
