<?xml version="1.0" encoding="utf-8"?>
<!-- Generator: Adobe Illustrator 15.0.0, SVG Export Plug-In . SVG Version: 6.00 Build 0)  -->
<!DOCTYPE svg PUBLIC "-//W3C//DTD SVG 1.1//EN" "http://www.w3.org/Graphics/SVG/1.1/DTD/svg11.dtd">
<svg version="1.1" id="Layer_1" xmlns="http://www.w3.org/2000/svg" xmlns:xlink="http://www.w3.org/1999/xlink" x="0px" y="0px"
	 width="64px" height="64px" viewBox="0 0 64 64" enable-background="new 0 0 64 64" xml:space="preserve">
<g>
	<path fill="#8A6859" d="M12.65,28.696c4.445,0.418,5.928,3.977,6.447,5.736l0.24,0.832c0,0,0.498,0.572,1.131,1.473
		c0.074,0.014,0.148,0.033,0.223,0.049c0,0,0.465-7.752,0.113-10.305c-0.391-2.822-0.387-15.241-0.549-18.287
		C20.066,4.611,20.715,2,24.76,2c4.092,0,5.342,3.172,5.092,6.193c-0.344,4.166-0.563,18.259-0.563,18.259
		c0.436-1.818,1.223-3.487,4.215-3.177c3.43,0.356,4.076,1.685,4.232,3.815c1.682-2.882,3.963-2.668,5.377-2.311
		c2.395,0.604,3.059,4.915,3.084,4.915c0.939-3.201,2.422-2.645,4.496-2.336c1.27,0.189,2.75,1.484,3.281,3.688
		c0.531,2.207,2.172,3.836-0.289,21.049c-0.646,4.52-4.592,6.746-10.545,7.775c-4.025,0.693-9.514,1.797-13.604,2.107
		c-0.369,0.029-0.732,0.027-1.092,0.01c-2.268,0.119-4.549-0.848-5.959-2.766L13.537,47.03c-0.01-0.016-0.018-0.031-0.029-0.045
		c-0.639-0.584-1.045-1.406-1.152-2.43c-0.322-3.051-1.053-6.881-3.117-11.369C8.473,31.526,9.572,28.403,12.65,28.696z"/>
	<g>
		<path fill="#705041" d="M49.311,27.149c-3.814-0.57-3.521,5.295-2.734,2.828C47.4,27.392,49.311,27.149,49.311,27.149z"/>
	</g>
	<g>
		<path fill="#705041" d="M41.992,24.59c-5.211-0.534-4.672,5.272-3.672,2.885C39.336,25.053,41.992,24.59,41.992,24.59z"/>
	</g>
	<g>
		<path fill="#705041" d="M33.398,23.265c-5.211-0.533-4.672,5.654-3.672,3.267C30.742,24.11,33.398,23.265,33.398,23.265z"/>
	</g>
	<g>
		<path fill="#705041" d="M20.691,36.786c0,0-1.457-12.596-0.748-28.638c0.104-2.335,0.113-5.938,4.266-6.129
			C19.547,3.492,21.713,19.403,20.691,36.786z"/>
		<path fill="#705041" d="M9.998,29.571c-0.186,0.721-0.148,1.469,0.115,2.041c2.064,4.488,2.795,8.318,3.117,11.369
			c0.107,1.023,0.514,1.846,1.152,2.43c0.012,0.014,0.02,0.029,0.029,0.045l8.949,12.191c1.41,1.918,3.691,2.885,5.959,2.766
			c0.359,0.018,0.723,0.02,1.092-0.01c4.09-0.311,9.578-1.414,13.604-2.107c4.25-0.736,7.467-2.086,9.201-4.438
			c-1.328,3.352-4.957,5.125-10.076,6.012c-4.025,0.693-9.514,1.797-13.604,2.107c-0.369,0.029-0.732,0.027-1.092,0.01
			c-2.268,0.119-4.549-0.848-5.959-2.766L13.537,47.03c-0.01-0.016-0.018-0.031-0.029-0.045c-0.639-0.584-1.045-1.406-1.152-2.43
			c-0.322-3.051-1.053-6.881-3.117-11.369C8.764,32.155,9.008,30.563,9.998,29.571z"/>
	</g>
	<path fill="#705041" d="M19.463,41.028c0,0-1.313-4.309-1.84-6.338c-0.438-1.691-2.014-4.76-4.633-5.955
		c4.182,0.563,5.602,3.984,6.107,5.697l0.24,0.832c0,0,0.701,0.479,1.354,1.521C20.691,36.786,19.309,38.745,19.463,41.028z"/>
	<path fill="#705041" d="M29.807,27.585c0.209,0.578,0.486,1.027,0.793,1.488c0.313,0.453,0.641,0.926,0.928,1.465
		c0.27,0.542,0.488,1.165,0.491,1.811c0.018,0.641-0.171,1.268-0.522,1.768c-0.05-0.613-0.105-1.158-0.251-1.664
		c-0.146-0.504-0.351-0.977-0.608-1.459c-0.237-0.492-0.535-0.994-0.734-1.577C29.697,28.847,29.594,28.17,29.807,27.585z"/>
	<path fill="#705041" d="M37.666,29.224c0.209,0.578,0.487,1.026,0.794,1.486c0.312,0.455,0.64,0.928,0.927,1.467
		c0.27,0.541,0.488,1.164,0.491,1.811c0.018,0.641-0.171,1.268-0.522,1.768c-0.05-0.613-0.105-1.158-0.251-1.665
		c-0.146-0.504-0.351-0.976-0.608-1.459c-0.237-0.491-0.534-0.994-0.734-1.577C37.557,30.484,37.453,29.808,37.666,29.224z"/>
	<path fill="#705041" d="M46.246,31.618c0.209,0.578,0.486,1.025,0.793,1.486c0.313,0.455,0.641,0.927,0.928,1.466
		c0.27,0.542,0.488,1.165,0.491,1.81c0.018,0.642-0.171,1.268-0.522,1.768c-0.05-0.613-0.105-1.158-0.251-1.664
		c-0.146-0.504-0.351-0.975-0.608-1.459c-0.237-0.49-0.535-0.994-0.734-1.576C46.137,32.878,46.033,32.202,46.246,31.618z"/>
</g>
</svg>
