<?xml version="1.0" encoding="utf-8"?>
<!-- Generator: Adobe Illustrator 15.0.0, SVG Export Plug-In . SVG Version: 6.00 Build 0)  -->
<!DOCTYPE svg PUBLIC "-//W3C//DTD SVG 1.1//EN" "http://www.w3.org/Graphics/SVG/1.1/DTD/svg11.dtd">
<svg version="1.1" id="Layer_1" xmlns="http://www.w3.org/2000/svg" xmlns:xlink="http://www.w3.org/1999/xlink" x="0px" y="0px"
	 width="64px" height="64px" viewBox="0 0 64 64" enable-background="new 0 0 64 64" xml:space="preserve">
<g>
	<g>
		<g>
			<g>
				<path fill="#8A6859" d="M25.224,34.951l3.769-2.82L16.656,16.028c-0.825-1.078-2.358-1.346-3.394-0.571l-0.011,0.009
					c-1.037,0.777-1.191,2.304-0.338,3.415L25.224,34.951z"/>
				<path fill="#8A6859" d="M20.773,38.283l4.45-3.332L11.852,17.496c-1.008-1.316-2.821-1.642-4.05-0.722l0,0
					c-1.229,0.919-1.409,2.737-0.397,4.054L20.773,38.283z"/>
				<path fill="#8A6859" d="M16.894,41.19l3.88-2.907L8.188,21.853c-0.88-1.147-2.459-1.428-3.527-0.629l-0.007,0.005
					c-1.07,0.801-1.225,2.379-0.346,3.528L16.894,41.19z"/>
				<path fill="#8A6859" d="M2.832,26.467c-0.995,0.744-1.105,2.187-0.29,3.252l10.814,14.118l3.537-2.646L6.079,27.07
					C5.262,26.006,3.83,25.719,2.832,26.467L2.832,26.467z"/>
			</g>
			<path fill="#705041" d="M13.263,15.457l-0.011,0.009c-0.112,0.084-0.21,0.181-0.302,0.28c1.006-0.489,2.299-0.177,3.037,0.783
				L28.32,32.634l0.672-0.502L16.656,16.028C15.831,14.95,14.298,14.682,13.263,15.457z"/>
			<path fill="#705041" d="M7.802,16.773c-0.114,0.086-0.214,0.188-0.309,0.289c1.2-0.626,2.775-0.257,3.689,0.936l13.369,17.455
				l0.672-0.502L11.852,17.496C10.844,16.179,9.03,15.854,7.802,16.773z"/>
			<path fill="#705041" d="M4.66,21.224l-0.007,0.005c-0.114,0.086-0.214,0.184-0.306,0.284c1.041-0.512,2.385-0.185,3.17,0.841
				l12.585,16.432l0.671-0.503L8.188,21.853C7.308,20.705,5.729,20.425,4.66,21.224z"/>
			<path fill="#705041" d="M2.832,26.467c-0.115,0.086-0.215,0.183-0.305,0.286c0.957-0.452,2.16-0.123,2.882,0.819L16.222,41.69
				l0.672-0.5L6.079,27.07C5.262,26.006,3.83,25.719,2.832,26.467z"/>
		</g>
		<path fill="#8A6859" d="M32.322,20.437c-1.772-0.854-4.019,0.935-4.41,5.234c-0.277,3-0.178,2.715-1.874,3.985l-1.515-1.978
			c0,0-5.745-0.031-12.025,6.647c0,0-3.671,3.675-2.006,5.848c0,0,3.383,5.855,7.405,8.117c5.988,3.368,18.128-3.65,15.134-14.773
			c-0.595-2.213-0.387-3.52-0.3-5.928C32.833,24.688,34.268,21.375,32.322,20.437z"/>
		<g>
			<path fill="#705041" d="M32.322,20.437c-0.335-0.161-0.69-0.227-1.044-0.2c0.081,0.028,0.163,0.055,0.243,0.094
				c1.945,0.935,0.51,4.249,0.406,7.151c-0.084,2.406-0.331,3.698,0.265,5.91c2.595,9.646-6.181,16.197-12.465,15.577
				c6.302,1.337,16.016-5.372,13.304-15.452c-0.595-2.213-0.387-3.52-0.3-5.928C32.833,24.688,34.268,21.375,32.322,20.437z"/>
		</g>
		<g>
			<path fill="#705041" d="M22.58,42.078c-2.238-2.923-1.877-6.927,0.782-9.029c-0.642,0.146-1.258,0.413-1.808,0.824
				c-2.254,1.687-2.581,5.017-0.728,7.436c0.809,1.056,1.899,1.759,3.061,2.081C23.412,43.017,22.968,42.584,22.58,42.078z"/>
		</g>
		<path fill="#705041" d="M24.726,27.668C20.08,27.96,11.958,33.916,10.167,38.57C10.418,32.677,20.548,26.383,24.726,27.668z"/>
	</g>
	<g>
		<g>
			<g>
				<path fill="#8A6859" d="M39.476,35.173l-4.033-2.656l10.733-16.59c0.718-1.11,2.22-1.444,3.33-0.713l0.012,0.007
					c1.111,0.73,1.412,2.249,0.672,3.393L39.476,35.173z"/>
				<path fill="#8A6859" d="M44.244,38.31l-4.769-3.137l11.638-17.987c0.877-1.357,2.656-1.759,3.974-0.892l0,0
					c1.316,0.866,1.671,2.671,0.792,4.03L44.244,38.31z"/>
				<path fill="#8A6859" d="M48.398,41.045l-4.154-2.735L55.195,21.38c0.767-1.183,2.317-1.532,3.46-0.78l0.009,0.006
					c1.146,0.754,1.452,2.323,0.688,3.508L48.398,41.045z"/>
				<path fill="#8A6859" d="M60.991,25.757c1.067,0.702,1.317,2.135,0.608,3.234l-9.412,14.545l-3.789-2.491l9.412-14.549
					C58.521,25.4,59.923,25.055,60.991,25.757L60.991,25.757z"/>
			</g>
			<path fill="#705041" d="M49.506,15.213l0.012,0.007c0.12,0.078,0.229,0.172,0.329,0.268c-1.052-0.448-2.312-0.082-2.954,0.909
				L36.159,32.989l-0.717-0.472l10.733-16.59C46.894,14.816,48.396,14.482,49.506,15.213z"/>
			<path fill="#705041" d="M55.087,16.294c0.122,0.08,0.232,0.177,0.334,0.274c-1.258-0.575-2.796-0.142-3.592,1.09L40.195,35.645
				l-0.72-0.472l11.638-17.987C51.99,15.829,53.77,15.427,55.087,16.294z"/>
			<path fill="#705041" d="M58.655,20.601l0.009,0.006c0.122,0.081,0.23,0.174,0.33,0.271c-1.088-0.466-2.396-0.083-3.081,0.974
				l-10.951,16.93l-0.718-0.473L55.195,21.38C55.962,20.197,57.513,19.849,58.655,20.601z"/>
			<path fill="#705041" d="M60.991,25.757c0.123,0.082,0.232,0.173,0.332,0.272c-0.998-0.409-2.168-0.029-2.796,0.941l-9.41,14.546
				l-0.719-0.472l9.412-14.549C58.521,25.4,59.923,25.055,60.991,25.757z"/>
		</g>
		<path fill="#8A6859" d="M30.973,20.988c1.688-0.926,4.104,0.761,4.914,5.034c0.567,2.983,0.443,2.703,2.259,3.898l1.318-2.038
			c0,0,5.731-0.274,12.648,6.124c0,0,4.023,3.515,2.576,5.752c0,0-2.805,5.987-6.598,8.416c-5.646,3.613-18.447-2.879-16.548-14.106
			c0.378-2.233,0.042-3.528-0.278-5.928C30.879,25.251,29.122,22.005,30.973,20.988z"/>
		<g>
			<path fill="#705041" d="M30.973,20.988c0.32-0.177,0.666-0.256,1.021-0.245c-0.077,0.031-0.156,0.062-0.232,0.104
				c-1.85,1.017-0.093,4.262,0.295,7.153c0.318,2.398,0.691,3.678,0.313,5.909c-1.646,9.734,7.751,15.904,13.962,15.018
				c-6.16,1.602-16.508-4.683-14.788-14.858c0.378-2.233,0.042-3.528-0.278-5.928C30.879,25.251,29.122,22.005,30.973,20.988z"/>
		</g>
		<g>
			<path fill="#705041" d="M42.81,42.172c1.948-3.013,1.196-6.995-1.661-8.977c0.654,0.118,1.294,0.357,1.883,0.743
				c2.413,1.59,3.068,4.899,1.455,7.391c-0.703,1.09-1.727,1.835-2.852,2.206C42.072,43.144,42.472,42.694,42.81,42.172z"/>
		</g>
		<path fill="#705041" d="M39.26,27.882c4.665,0.096,13.354,5.695,15.596,10.263C54.03,32.275,43.305,26.423,39.26,27.882z"/>
	</g>
</g>
</svg>
