<?xml version="1.0" encoding="utf-8"?>
<!-- Generator: Adobe Illustrator 15.0.0, SVG Export Plug-In . SVG Version: 6.00 Build 0)  -->
<!DOCTYPE svg PUBLIC "-//W3C//DTD SVG 1.1//EN" "http://www.w3.org/Graphics/SVG/1.1/DTD/svg11.dtd">
<svg version="1.1" id="Layer_1" xmlns="http://www.w3.org/2000/svg" xmlns:xlink="http://www.w3.org/1999/xlink" x="0px" y="0px"
	 width="64px" height="64px" viewBox="0 0 64 64" enable-background="new 0 0 64 64" xml:space="preserve">
<g>
	<g>
		<path fill="#A59872" d="M55.407,22.865c0,3.338-2.733,6.044-6.106,6.044H14.698c-3.372,0-6.106-2.706-6.106-6.044v-0.881
			c0-3.338,2.735-6.045,6.106-6.045h34.603c3.373,0,6.106,2.707,6.106,6.045V22.865z"/>
		<path fill="#DBCDAA" d="M53.196,22.846c0,3.191-2.476,5.78-5.529,5.78H16.333c-3.053,0-5.529-2.588-5.529-5.78v-0.843
			c0-3.192,2.476-5.78,5.529-5.78h31.334c3.054,0,5.529,2.588,5.529,5.78V22.846z"/>
		<g>
			<path fill="#1A86B1" d="M12.735,20.062C6.89,25-0.029,41.609,2.559,48.772c1.002,2.775,7.348,5.208,10.177,6.129
				c9.145,2.976,29.235,2.571,38.505,0c2.867-0.796,9.174-3.354,10.177-6.129c2.587-7.163-3.907-24.312-10.177-28.711
				C48.597,18.207,14.848,18.279,12.735,20.062z"/>
			<path fill="#144E73" d="M13.011,19.905c-0.683,1.492-1.106,3.084-1.527,4.664c-0.428,1.579-0.798,3.173-1.104,4.777
				c-0.606,3.207-1.062,6.445-1.134,9.689c-0.088,3.234,0.186,6.507,1.237,9.546c1.02,3.039,3.163,5.713,6.125,7.192
				c-1.551-0.556-2.976-1.491-4.156-2.685c-1.166-1.211-2.048-2.681-2.687-4.233c-1.278-3.128-1.585-6.534-1.518-9.846
				c0.1-3.325,0.592-6.619,1.385-9.828C10.463,25.995,11.365,22.774,13.011,19.905z"/>
			<path fill="#2BA5D6" d="M50.992,19.905c-0.907-0.966-10.27-1.384-18.99-1.269c-8.721-0.115-18.083,0.303-18.991,1.269
				c0,0-11.553,29.341,3.596,35.868c6.714,2.892,24.074,2.892,30.789,0C62.546,49.246,50.992,19.905,50.992,19.905z"/>
			<path fill="#144E73" d="M50.992,19.905c1.646,2.869,2.549,6.089,3.38,9.276c0.793,3.209,1.285,6.503,1.386,9.828
				c0.067,3.312-0.24,6.718-1.519,9.846c-0.639,1.552-1.521,3.022-2.687,4.233c-1.181,1.193-2.605,2.129-4.156,2.685
				c2.962-1.479,5.105-4.153,6.125-7.192c1.051-3.039,1.324-6.312,1.237-9.546c-0.073-3.245-0.529-6.482-1.135-9.689
				c-0.306-1.604-0.677-3.198-1.104-4.777C52.099,22.99,51.675,21.397,50.992,19.905z"/>
		</g>
		<ellipse fill="#1A86B1" cx="32.003" cy="31.51" rx="7.238" ry="7.411"/>
		<g>
			<ellipse fill="#A59872" cx="32.001" cy="30.807" rx="6.774" ry="6.706"/>
			<ellipse fill="#DBCDAA" cx="32.002" cy="30.807" rx="5.807" ry="5.748"/>
			<ellipse fill="#4C3F2E" cx="32.002" cy="30.807" rx="3.871" ry="3.831"/>
			<g>
				<ellipse fill="#A59872" cx="32.001" cy="30.806" rx="3.87" ry="0.666"/>
				<ellipse fill="#DBCDAA" cx="32.003" cy="30.807" rx="0.672" ry="3.831"/>
			</g>
		</g>
	</g>
	<g>
		<g>
			<path fill="#A59872" d="M29.709,8.887c-0.648-0.642-1.699-0.642-2.347,0l-3.986,3.936H18.17c-0.913,0-2.141,0.267-2.141,1.668
				c0,0.907,0.744,1.643,1.659,1.643h6.348c0.002,0,0.005-0.001,0.005-0.001c0.427,0.001,0.853-0.159,1.179-0.48l4.489-4.444
				C30.356,10.568,30.356,9.528,29.709,8.887z"/>
			<path fill="#DBCDAA" d="M28.627,9.61c-0.542-0.537-1.416-0.645-1.959-0.108l-3.292,3.321H18.17c-0.765,0-1.267,0.686-1.267,1.445
				c0,1.071,0.909,1.399,1.675,1.399h5.307c0.003,0,0.004-0.001,0.006-0.001c0.354,0.001,0.71-0.132,0.983-0.4l3.752-3.715
				C29.168,11.016,29.168,10.147,28.627,9.61z"/>
			<ellipse fill="#A59872" cx="28.651" cy="9.369" rx="3.463" ry="3.428"/>
			<ellipse fill="#DBCDAA" cx="28.434" cy="9.082" rx="2.919" ry="2.89"/>
		</g>
		<g>
			<path fill="#A59872" d="M34.291,8.887c0.647-0.642,1.698-0.642,2.346,0l3.985,3.936h5.207c0.914,0,2.142,0.267,2.142,1.668
				c0,0.907-0.743,1.643-1.659,1.643h-6.349c-0.002,0-0.003-0.001-0.005-0.001c-0.427,0.001-0.853-0.159-1.179-0.48l-4.488-4.444
				C33.644,10.568,33.644,9.528,34.291,8.887z"/>
			<path fill="#DBCDAA" d="M35.373,9.61c0.542-0.537,1.416-0.645,1.959-0.108l3.29,3.321h5.207c0.766,0,1.268,0.686,1.268,1.445
				c0,1.071-0.909,1.399-1.675,1.399h-5.308c-0.002,0-0.003-0.001-0.006-0.001c-0.354,0.001-0.711-0.132-0.983-0.4l-3.752-3.715
				C34.832,11.016,34.832,10.147,35.373,9.61z"/>
			<ellipse fill="#A59872" cx="35.349" cy="9.369" rx="3.463" ry="3.428"/>
			<ellipse fill="#DBCDAA" cx="35.565" cy="9.082" rx="2.919" ry="2.89"/>
		</g>
	</g>
</g>
</svg>
