<?xml version="1.0" encoding="utf-8"?>
<!-- Generator: Adobe Illustrator 15.0.0, SVG Export Plug-In . SVG Version: 6.00 Build 0)  -->
<!DOCTYPE svg PUBLIC "-//W3C//DTD SVG 1.1//EN" "http://www.w3.org/Graphics/SVG/1.1/DTD/svg11.dtd">
<svg version="1.1" id="Layer_1" xmlns="http://www.w3.org/2000/svg" xmlns:xlink="http://www.w3.org/1999/xlink" x="0px" y="0px"
	 width="64px" height="64px" viewBox="0 0 64 64" enable-background="new 0 0 64 64" xml:space="preserve">
<g>
	<g>
		<g>
			<path fill="#9F7DCC" d="M45.297,23.449c-0.686-7.916-3.036-12.299-12.973-12.299c-9.939,0-12.288,4.383-12.974,12.299
				c0,0,4.9-1.472,12.974-1.472C40.399,21.978,45.297,23.449,45.297,23.449z"/>
			<path fill="#856DAA" d="M32.324,11.15c-9.939,0-12.288,4.383-12.974,12.299c0,0,4.9-1.472,12.974-1.472
				C40.399,21.978,29.054,16.375,32.324,11.15z"/>
			<path fill="#FFF652" d="M46.264,23.198c0,0-5.264-1.581-13.939-1.581c-8.677,0-13.94,1.581-13.94,1.581
				c-0.153,1.774-0.233,3.601-0.233,5.469c0,1.123,0.03,2.231,0.086,3.325c0,0,5.912-1.49,14.088-1.49
				c8.177,0,14.087,1.49,14.087,1.49c0.057-1.093,0.087-2.202,0.087-3.325C46.498,26.799,46.417,24.972,46.264,23.198z"/>
			<path fill="#DDD243" d="M35.892,21.708c0,0-1.867-0.161-3.567-0.161c-8.677,0-13.941,1.651-13.941,1.651
				c-0.153,1.774-0.233,3.601-0.233,5.469c0,1.123,0.03,2.231,0.086,3.325c0,0,5.912-1.49,14.088-1.49
				c8.176,0,6.421-4.341,5.35-4.518C35.498,25.626,36.045,23.482,35.892,21.708z"/>
		</g>
		<g>
			<path fill="#9F7DCC" d="M32.526,26.504c13.151-1.818,23.787,2.63,30.874,8.005c4.674,3.543-19.039-7.096-35.198,8.059
				C12.735,57.075-2.904,55.234,1.602,44.503C5.581,35.025,15.981,28.792,32.526,26.504z"/>
		</g>
		<g>
			<path fill="#856DAA" d="M46.473,26.874c0,0-11.364-0.875-23.721,11.385C7.683,53.208-2.433,50.63,3.687,40.791
				C9.809,30.947,28.81,23.041,46.473,26.874z"/>
		</g>
	</g>
	<g>
		<path fill="#99CFF6" d="M19.655,27.389c3.488-2.03,5.617-4.37,5.231-6.128c-0.387-1.761-3.188-2.493-7.041-2.127
			c0.316-4.424-0.32-7.642-1.852-8.082c-1.534-0.444-3.572,1.999-5.339,6.003c-3.169-2.393-5.935-3.271-7.082-1.954
			c-1.147,1.316-0.383,4.494,1.701,8.133c-3.487,2.028-5.617,4.369-5.229,6.128c0.384,1.76,3.187,2.489,7.04,2.126
			c-0.317,4.423,0.318,7.641,1.851,8.084c1.532,0.44,3.573-2.002,5.337-6.008c3.172,2.396,5.938,3.271,7.085,1.955
			C22.505,34.205,21.741,31.029,19.655,27.389z"/>
		<path fill="#75B7EA" d="M32.693,22.51c-0.117-1.65-2.682-2.856-6.404-3.291c0.931-3.892,0.784-6.894-0.612-7.59
			c-1.398-0.699-3.686,1.082-5.94,4.314c-2.676-2.766-5.185-4.095-6.464-3.146c-1.28,0.95-1.006,3.94,0.461,7.605
			c-3.611,1.125-5.971,2.796-5.854,4.446c0.116,1.649,2.681,2.854,6.403,3.29c-0.932,3.892-0.784,6.892,0.611,7.59
			c1.397,0.698,3.687-1.082,5.938-4.315c2.679,2.767,5.191,4.097,6.469,3.146c1.281-0.95,1.005-3.94-0.464-7.603
			C30.449,25.83,32.809,24.158,32.693,22.51z"/>
		<path opacity="0.3" fill="#CDECFC" d="M32.343,17.83c-0.547-1.229-2.853-1.228-5.839-0.209c-0.357-3.337-1.296-5.596-2.564-5.625
			c-1.271-0.033-2.542,2.171-3.389,5.479c-2.824-1.159-5.123-1.271-5.847-0.075c-0.724,1.197,0.312,3.401,2.451,5.691
			c-2.471,2.177-3.83,4.322-3.286,5.552c0.543,1.227,2.852,1.224,5.839,0.209c0.354,3.335,1.293,5.595,2.562,5.626
			c1.269,0.028,2.543-2.175,3.387-5.483c2.826,1.16,5.127,1.273,5.85,0.074c0.726-1.196-0.311-3.398-2.452-5.688
			C31.527,21.201,32.887,19.057,32.343,17.83z"/>
		<path opacity="0.3" fill="#CDECFC" d="M20.425,20.652c-0.469-1.058-2.459-1.057-5.032-0.18c-0.307-2.876-1.115-4.823-2.209-4.85
			c-1.096-0.027-2.191,1.872-2.921,4.723c-2.432-0.999-4.414-1.096-5.04-0.064c-0.624,1.033,0.269,2.932,2.113,4.904
			c-2.13,1.877-3.301,3.725-2.832,4.787c0.469,1.057,2.458,1.055,5.033,0.179c0.306,2.877,1.115,4.821,2.209,4.849
			c1.092,0.025,2.19-1.87,2.917-4.724c2.435,1,4.418,1.096,5.042,0.063c0.624-1.029-0.27-2.929-2.115-4.902
			C19.724,23.558,20.894,21.71,20.425,20.652z"/>
	</g>
</g>
</svg>
