<?xml version="1.0" encoding="utf-8"?>
<!-- Generator: Adobe Illustrator 15.0.0, SVG Export Plug-In . SVG Version: 6.00 Build 0)  -->
<!DOCTYPE svg PUBLIC "-//W3C//DTD SVG 1.1//EN" "http://www.w3.org/Graphics/SVG/1.1/DTD/svg11.dtd">
<svg version="1.1" id="Layer_1" xmlns="http://www.w3.org/2000/svg" xmlns:xlink="http://www.w3.org/1999/xlink" x="0px" y="0px"
	 width="64px" height="64px" viewBox="0 0 64 64" enable-background="new 0 0 64 64" xml:space="preserve">
<g>
	<g>
		<g>
			<g>
				<path fill="#FFE1BD" d="M25.224,34.951l3.768-2.82L16.656,16.028c-0.825-1.078-2.357-1.346-3.394-0.571l-0.011,0.009
					c-1.036,0.776-1.19,2.304-0.337,3.415L25.224,34.951z"/>
				<path fill="#FFE1BD" d="M20.773,38.283l4.45-3.332L11.852,17.495c-1.008-1.316-2.821-1.642-4.05-0.722l0,0
					c-1.229,0.919-1.409,2.736-0.397,4.054L20.773,38.283z"/>
				<path fill="#FFE1BD" d="M16.894,41.189l3.88-2.906L8.188,21.853c-0.881-1.148-2.46-1.428-3.528-0.629l-0.007,0.006
					c-1.07,0.801-1.224,2.379-0.345,3.528L16.894,41.189z"/>
				<path fill="#FFE1BD" d="M2.833,26.467c-0.996,0.745-1.105,2.187-0.291,3.252l10.815,14.118l3.536-2.647L6.079,27.07
					C5.262,26.005,3.831,25.719,2.833,26.467L2.833,26.467z"/>
			</g>
			<path fill="#E6B796" d="M13.263,15.457l-0.011,0.009c-0.112,0.084-0.211,0.181-0.301,0.28c1.005-0.489,2.299-0.177,3.036,0.783
				l12.332,16.104l0.672-0.502L16.656,16.028C15.831,14.95,14.299,14.682,13.263,15.457z"/>
			<path fill="#E6B796" d="M7.802,16.773c-0.114,0.086-0.214,0.188-0.309,0.289c1.2-0.627,2.776-0.258,3.689,0.935l13.37,17.456
				l0.671-0.502L11.852,17.495C10.844,16.179,9.03,15.854,7.802,16.773z"/>
			<path fill="#E6B796" d="M4.66,21.223l-0.007,0.006c-0.114,0.085-0.213,0.183-0.305,0.284C5.39,21,6.731,21.328,7.519,22.354
				l12.584,16.432l0.671-0.503L8.188,21.853C7.308,20.705,5.729,20.424,4.66,21.223z"/>
			<path fill="#E6B796" d="M2.833,26.467c-0.116,0.086-0.215,0.183-0.306,0.286c0.957-0.451,2.16-0.122,2.882,0.82L16.223,41.69
				l0.671-0.501L6.079,27.07C5.262,26.005,3.831,25.719,2.833,26.467z"/>
		</g>
		<path fill="#FFE1BD" d="M32.322,20.437c-1.772-0.854-4.02,0.935-4.41,5.234c-0.277,3-0.178,2.715-1.874,3.985l-1.515-1.978
			c0,0-5.745-0.031-12.025,6.647c0,0-3.671,3.675-2.006,5.847c0,0,3.382,5.855,7.405,8.118c5.988,3.368,18.128-3.65,15.134-14.773
			c-0.595-2.213-0.387-3.52-0.3-5.929C32.834,24.687,34.268,21.375,32.322,20.437z"/>
		<g>
			<path fill="#E6B796" d="M32.322,20.437c-0.335-0.161-0.69-0.227-1.044-0.2c0.081,0.028,0.163,0.055,0.243,0.094
				c1.945,0.936,0.51,4.25,0.406,7.151c-0.084,2.405-0.33,3.698,0.265,5.91c2.596,9.646-6.18,16.197-12.465,15.576
				c6.304,1.338,16.016-5.371,13.304-15.451c-0.595-2.213-0.387-3.52-0.3-5.929C32.834,24.687,34.268,21.375,32.322,20.437z"/>
		</g>
		<g>
			<path fill="#E6B796" d="M22.58,42.078c-2.237-2.923-1.877-6.928,0.782-9.029c-0.642,0.146-1.257,0.412-1.808,0.824
				c-2.254,1.688-2.581,5.017-0.728,7.436c0.809,1.056,1.899,1.759,3.062,2.081C23.411,43.016,22.968,42.584,22.58,42.078z"/>
		</g>
		<path fill="#E6B796" d="M24.726,27.668c-4.646,0.292-12.769,6.248-14.56,10.902C10.417,32.676,20.548,26.383,24.726,27.668z"/>
	</g>
	<g>
		<g>
			<g>
				<path fill="#FFE1BD" d="M39.477,35.172l-4.034-2.655l10.733-16.59c0.718-1.111,2.22-1.444,3.331-0.713l0.011,0.008
					c1.111,0.729,1.412,2.248,0.672,3.393L39.477,35.172z"/>
				<path fill="#FFE1BD" d="M44.244,38.31l-4.768-3.138l11.637-17.986c0.877-1.357,2.657-1.759,3.974-0.892l0,0
					c1.316,0.867,1.673,2.671,0.792,4.03L44.244,38.31z"/>
				<path fill="#FFE1BD" d="M48.398,41.044l-4.154-2.734l10.952-16.93c0.766-1.183,2.315-1.531,3.459-0.779l0.009,0.007
					c1.146,0.753,1.453,2.322,0.688,3.507L48.398,41.044z"/>
				<path fill="#FFE1BD" d="M60.991,25.757c1.067,0.702,1.317,2.135,0.608,3.234l-9.411,14.545l-3.79-2.492l9.413-14.548
					C58.521,25.4,59.923,25.055,60.991,25.757L60.991,25.757z"/>
			</g>
			<path fill="#E6B796" d="M49.507,15.213l0.011,0.008c0.12,0.077,0.229,0.172,0.329,0.268c-1.052-0.448-2.312-0.082-2.954,0.909
				L36.159,32.989l-0.717-0.472l10.733-16.59C46.894,14.815,48.396,14.482,49.507,15.213z"/>
			<path fill="#E6B796" d="M55.087,16.294c0.122,0.08,0.232,0.178,0.335,0.274c-1.259-0.575-2.796-0.142-3.594,1.09L40.195,35.645
				l-0.719-0.473l11.637-17.986C51.99,15.829,53.771,15.426,55.087,16.294z"/>
			<path fill="#E6B796" d="M58.655,20.601l0.009,0.007c0.122,0.08,0.23,0.174,0.33,0.27c-1.088-0.466-2.396-0.083-3.082,0.975
				l-10.95,16.93l-0.718-0.473l10.952-16.93C55.962,20.197,57.512,19.849,58.655,20.601z"/>
			<path fill="#E6B796" d="M60.991,25.757c0.123,0.082,0.232,0.173,0.332,0.272c-0.998-0.409-2.168-0.029-2.795,0.94l-9.411,14.547
				l-0.719-0.473l9.413-14.548C58.521,25.4,59.923,25.055,60.991,25.757z"/>
		</g>
		<path fill="#FFE1BD" d="M30.973,20.988c1.688-0.926,4.104,0.762,4.915,5.035c0.567,2.983,0.442,2.703,2.258,3.898l1.317-2.037
			c0,0,5.732-0.274,12.649,6.125c0,0,4.023,3.514,2.576,5.751c0,0-2.805,5.987-6.597,8.415c-5.647,3.613-18.448-2.878-16.549-14.105
			c0.379-2.233,0.041-3.529-0.278-5.928C30.879,25.251,29.122,22.005,30.973,20.988z"/>
		<g>
			<path fill="#E6B796" d="M30.973,20.988c0.32-0.177,0.666-0.256,1.022-0.245c-0.078,0.031-0.157,0.062-0.233,0.104
				c-1.85,1.018-0.092,4.262,0.294,7.153c0.318,2.399,0.691,3.678,0.313,5.909c-1.646,9.735,7.751,15.904,13.963,15.019
				c-6.161,1.602-16.509-4.684-14.789-14.858c0.379-2.233,0.041-3.529-0.278-5.928C30.879,25.251,29.122,22.005,30.973,20.988z"/>
		</g>
		<g>
			<path fill="#E6B796" d="M42.811,42.172c1.948-3.013,1.195-6.995-1.662-8.977c0.654,0.119,1.295,0.357,1.883,0.744
				c2.414,1.589,3.068,4.897,1.455,7.39c-0.703,1.09-1.727,1.835-2.852,2.205C42.073,43.144,42.472,42.693,42.811,42.172z"/>
		</g>
		<path fill="#E6B796" d="M39.261,27.882c4.664,0.096,13.354,5.696,15.595,10.264C54.03,32.274,43.305,26.423,39.261,27.882z"/>
	</g>
</g>
</svg>
