<?xml version="1.0" encoding="utf-8"?>
<!-- Generator: Adobe Illustrator 15.0.0, SVG Export Plug-In . SVG Version: 6.00 Build 0)  -->
<!DOCTYPE svg PUBLIC "-//W3C//DTD SVG 1.1//EN" "http://www.w3.org/Graphics/SVG/1.1/DTD/svg11.dtd">
<svg version="1.1" id="Layer_1" xmlns="http://www.w3.org/2000/svg" xmlns:xlink="http://www.w3.org/1999/xlink" x="0px" y="0px"
	 width="64px" height="64px" viewBox="0 0 64 64" enable-background="new 0 0 64 64" xml:space="preserve">
<g>
	<path fill="#FF99B6" d="M1.699,24.093L0.604,11.314c0,0,8.652-3.563,11.733-4.082C17.176,6.418,26.357,5.191,32,5.191
		s14.824,1.227,19.663,2.041c3.081,0.519,11.733,4.082,11.733,4.082l-1.096,12.779l-12.062,0.933
		c-0.205,13.653,1.875,30.522,2.577,36.1c0,0-8.912,0.358-20.807,0.47c-0.002,0-0.007,0-0.009,0c-0.004,0-0.009,0.002-0.011,0
		c-11.893-0.111-20.807-0.47-20.807-0.47c0.702-5.572,2.782-22.444,2.577-36.1L1.699,24.093z"/>
	<rect x="31.99" y="12.357" fill="#FF78A5" width="1.17" height="49.238"/>
	<rect x="26.252" y="5.597" fill="#FF78A5" width="11.496" height="6.958"/>
	<g>
		<rect x="21.799" fill="#FF99B6" width="20.402" height="6.552"/>
		<polygon fill="#FFD2DF" points="42.201,0 46.07,6.171 38.708,17.724 32,12.579 		"/>
		<polygon fill="#FFD2DF" points="21.799,0 17.93,6.171 25.292,17.724 32,12.579 		"/>
	</g>
	<g>
		<ellipse fill="#FF78A5" cx="28.934" cy="20.398" rx="2.606" ry="2.64"/>
		<ellipse fill="#FFF3F7" cx="28.934" cy="20.09" rx="2.502" ry="2.331"/>
	</g>
	<g>
		<ellipse fill="#FF78A5" cx="28.934" cy="28.902" rx="2.606" ry="2.64"/>
		<ellipse fill="#FFF3F7" cx="28.934" cy="28.594" rx="2.502" ry="2.331"/>
	</g>
	<g>
		<ellipse fill="#FF78A5" cx="28.934" cy="37.407" rx="2.606" ry="2.64"/>
		<ellipse fill="#FFF3F7" cx="28.934" cy="37.099" rx="2.502" ry="2.331"/>
	</g>
	<g>
		<ellipse fill="#FF78A5" cx="28.934" cy="45.912" rx="2.606" ry="2.64"/>
		<ellipse fill="#FFF3F7" cx="28.934" cy="45.604" rx="2.502" ry="2.33"/>
	</g>
	<g>
		<ellipse fill="#FF78A5" cx="28.934" cy="54.416" rx="2.606" ry="2.641"/>
		<ellipse fill="#FFF3F7" cx="28.934" cy="54.107" rx="2.502" ry="2.331"/>
	</g>
	<g>
		<g>
			<polygon fill="#FFD2DF" points="63.999,11.103 60.67,10.019 59.482,24.561 63.041,24.258 			"/>
			<polygon fill="#FFD2DF" points="-0.001,11.103 3.33,10.019 4.515,24.561 0.957,24.258 			"/>
		</g>
	</g>
	<g>
		<g>
			<path fill="#FFD2DF" d="M31.99,59.051c0.002,0.004,0.007,0,0.011,0c0.002,0,0.007,0,0.009,0
				c10.729-0.163,19.213-1.649,20.564-2.543c0.066,1.918,0.147,3.543,0.242,4.783c0,0-8.912,2.526-20.807,2.708
				c-0.002,0-0.007,0-0.009,0c-0.004,0-0.009,0.003-0.011,0c-11.893-0.182-20.807-2.708-20.807-2.708
				c0.095-1.238,0.176-2.865,0.242-4.783C12.775,57.4,21.262,58.888,31.99,59.051z"/>
		</g>
	</g>
	<rect x="31.99" y="59.071" fill="#FF99B6" width="1.17" height="4.929"/>
</g>
</svg>
