<?xml version="1.0" encoding="utf-8"?>
<!-- Generator: Adobe Illustrator 15.0.0, SVG Export Plug-In . SVG Version: 6.00 Build 0)  -->
<!DOCTYPE svg PUBLIC "-//W3C//DTD SVG 1.1//EN" "http://www.w3.org/Graphics/SVG/1.1/DTD/svg11.dtd">
<svg version="1.1" id="Layer_1" xmlns="http://www.w3.org/2000/svg" xmlns:xlink="http://www.w3.org/1999/xlink" x="0px" y="0px"
	 width="64px" height="64px" viewBox="0 0 64 64" enable-background="new 0 0 64 64" xml:space="preserve">
<g>
	<g>
		<g>
			<g>
				<path fill="#FED0AC" d="M25.224,34.951l3.769-2.82L16.656,16.027c-0.825-1.078-2.358-1.346-3.394-0.571l-0.011,0.009
					c-1.037,0.777-1.19,2.304-0.338,3.415L25.224,34.951z"/>
				<path fill="#FED0AC" d="M20.773,38.283l4.45-3.332L11.852,17.495c-1.008-1.316-2.82-1.643-4.05-0.722l0,0
					c-1.229,0.919-1.409,2.737-0.397,4.054L20.773,38.283z"/>
				<path fill="#FED0AC" d="M16.894,41.19l3.88-2.907L8.188,21.852c-0.88-1.148-2.459-1.428-3.527-0.629l-0.007,0.005
					c-1.07,0.801-1.224,2.379-0.345,3.528L16.894,41.19z"/>
				<path fill="#FED0AC" d="M2.833,26.467c-0.996,0.744-1.106,2.187-0.291,3.252l10.814,14.118l3.537-2.646L6.079,27.07
					C5.263,26.005,3.831,25.718,2.833,26.467L2.833,26.467z"/>
			</g>
			<path fill="#E0A372" d="M13.263,15.457l-0.011,0.009c-0.112,0.084-0.21,0.181-0.301,0.28c1.006-0.489,2.298-0.177,3.036,0.784
				L28.32,32.633l0.672-0.502L16.656,16.027C15.831,14.95,14.298,14.681,13.263,15.457z"/>
			<path fill="#E0A372" d="M7.802,16.773c-0.114,0.086-0.214,0.188-0.309,0.289c1.2-0.626,2.775-0.258,3.689,0.936l13.369,17.456
				l0.672-0.502L11.852,17.495C10.844,16.179,9.031,15.853,7.802,16.773z"/>
			<path fill="#E0A372" d="M4.66,21.223l-0.007,0.005c-0.114,0.086-0.213,0.184-0.305,0.284c1.04-0.512,2.384-0.185,3.17,0.841
				l12.584,16.432l0.671-0.503L8.188,21.852C7.308,20.704,5.729,20.424,4.66,21.223z"/>
			<path fill="#E0A372" d="M2.833,26.467c-0.116,0.086-0.215,0.183-0.306,0.286c0.957-0.452,2.16-0.123,2.882,0.819L16.223,41.69
				l0.671-0.5L6.079,27.07C5.263,26.005,3.831,25.718,2.833,26.467z"/>
		</g>
		<path fill="#FED0AC" d="M32.322,20.437c-1.772-0.854-4.019,0.935-4.41,5.234c-0.277,3-0.178,2.715-1.874,3.985l-1.515-1.978
			c0,0-5.745-0.031-12.025,6.647c0,0-3.671,3.675-2.006,5.848c0,0,3.383,5.855,7.405,8.118c5.988,3.368,18.128-3.651,15.135-14.774
			c-0.596-2.214-0.387-3.52-0.301-5.929C32.834,24.687,34.268,21.374,32.322,20.437z"/>
		<g>
			<path fill="#E0A372" d="M32.322,20.437c-0.335-0.161-0.69-0.227-1.044-0.2c0.081,0.028,0.163,0.055,0.243,0.094
				c1.945,0.935,0.51,4.25,0.406,7.151c-0.084,2.406-0.33,3.698,0.265,5.91c2.595,9.646-6.181,16.197-12.465,15.577
				c6.304,1.337,16.017-5.372,13.305-15.452c-0.596-2.214-0.387-3.52-0.301-5.929C32.834,24.687,34.268,21.374,32.322,20.437z"/>
		</g>
		<g>
			<path fill="#E0A372" d="M22.58,42.078c-2.237-2.923-1.877-6.927,0.782-9.028c-0.642,0.146-1.257,0.412-1.808,0.823
				c-2.254,1.687-2.581,5.017-0.728,7.436c0.81,1.056,1.899,1.759,3.062,2.081C23.412,43.017,22.969,42.584,22.58,42.078z"/>
		</g>
		<path fill="#E0A372" d="M24.726,27.667c-4.646,0.292-12.768,6.25-14.559,10.903C10.418,32.676,20.548,26.383,24.726,27.667z"/>
	</g>
	<g>
		<g>
			<g>
				<path fill="#FED0AC" d="M39.476,35.173l-4.033-2.657l10.733-16.59c0.718-1.11,2.22-1.444,3.33-0.713l0.012,0.007
					c1.111,0.73,1.412,2.249,0.672,3.393L39.476,35.173z"/>
				<path fill="#FED0AC" d="M44.244,38.31l-4.769-3.137l11.638-17.987c0.877-1.357,2.657-1.759,3.974-0.892l0,0
					c1.316,0.866,1.672,2.671,0.793,4.03L44.244,38.31z"/>
				<path fill="#FED0AC" d="M48.398,41.045l-4.154-2.735l10.952-16.93c0.766-1.183,2.316-1.531,3.46-0.779l0.008,0.006
					c1.146,0.754,1.453,2.323,0.688,3.508L48.398,41.045z"/>
				<path fill="#FED0AC" d="M60.991,25.757c1.067,0.701,1.317,2.135,0.608,3.233l-9.411,14.546l-3.79-2.492l9.413-14.55
					C58.521,25.4,59.923,25.055,60.991,25.757L60.991,25.757z"/>
			</g>
			<path fill="#E0A372" d="M49.506,15.213l0.012,0.007c0.12,0.078,0.229,0.171,0.329,0.268c-1.052-0.448-2.312-0.082-2.954,0.909
				L36.16,32.988l-0.718-0.472l10.733-16.59C46.894,14.815,48.396,14.482,49.506,15.213z"/>
			<path fill="#E0A372" d="M55.087,16.294c0.122,0.08,0.232,0.177,0.335,0.274c-1.259-0.575-2.796-0.142-3.593,1.09L40.195,35.645
				l-0.72-0.472l11.638-17.987C51.99,15.829,53.771,15.426,55.087,16.294z"/>
			<path fill="#E0A372" d="M58.656,20.601l0.008,0.006c0.122,0.081,0.23,0.174,0.331,0.271c-1.089-0.466-2.396-0.083-3.082,0.974
				L44.962,38.782l-0.718-0.473l10.952-16.93C55.962,20.197,57.513,19.849,58.656,20.601z"/>
			<path fill="#E0A372" d="M60.991,25.757c0.123,0.081,0.232,0.173,0.332,0.271C60.326,25.62,59.156,26,58.527,26.97l-9.41,14.547
				l-0.719-0.472l9.413-14.55C58.521,25.4,59.923,25.055,60.991,25.757z"/>
		</g>
		<path fill="#FED0AC" d="M30.973,20.988c1.688-0.926,4.104,0.761,4.914,5.034c0.568,2.983,0.443,2.703,2.26,3.898l1.317-2.037
			c0,0,5.731-0.274,12.648,6.124c0,0,4.023,3.515,2.577,5.752c0,0-2.805,5.987-6.599,8.416c-5.646,3.613-18.447-2.879-16.548-14.106
			c0.379-2.233,0.043-3.529-0.278-5.928C30.879,25.251,29.123,22.005,30.973,20.988z"/>
		<g>
			<path fill="#E0A372" d="M30.973,20.988c0.32-0.177,0.666-0.256,1.022-0.245c-0.078,0.031-0.157,0.062-0.232,0.103
				c-1.851,1.018-0.094,4.263,0.294,7.153c0.318,2.398,0.691,3.678,0.313,5.91c-1.646,9.734,7.751,15.904,13.962,15.018
				c-6.159,1.602-16.508-4.683-14.788-14.858c0.379-2.233,0.043-3.529-0.278-5.928C30.879,25.251,29.123,22.005,30.973,20.988z"/>
		</g>
		<g>
			<path fill="#E0A372" d="M42.811,42.172c1.948-3.013,1.195-6.995-1.662-8.977c0.654,0.118,1.295,0.357,1.883,0.743
				c2.414,1.59,3.068,4.899,1.455,7.391c-0.703,1.09-1.726,1.835-2.852,2.206C42.073,43.144,42.472,42.694,42.811,42.172z"/>
		</g>
		<path fill="#E0A372" d="M39.261,27.882c4.664,0.096,13.354,5.695,15.595,10.264C54.03,32.274,43.305,26.423,39.261,27.882z"/>
	</g>
</g>
</svg>
