<?xml version="1.0" encoding="utf-8"?>
<!-- Generator: Adobe Illustrator 15.0.0, SVG Export Plug-In . SVG Version: 6.00 Build 0)  -->
<!DOCTYPE svg PUBLIC "-//W3C//DTD SVG 1.1//EN" "http://www.w3.org/Graphics/SVG/1.1/DTD/svg11.dtd">
<svg version="1.1" id="Layer_1" xmlns="http://www.w3.org/2000/svg" xmlns:xlink="http://www.w3.org/1999/xlink" x="0px" y="0px"
	 width="64px" height="64px" viewBox="0 0 64 64" enable-background="new 0 0 64 64" xml:space="preserve">
<g>
	<g>
		<g>
			<g>
				<path fill="#B47D56" d="M25.224,34.951l3.768-2.819L16.656,16.028c-0.825-1.078-2.358-1.346-3.394-0.571l-0.011,0.009
					c-1.037,0.776-1.19,2.304-0.337,3.415L25.224,34.951z"/>
				<path fill="#B47D56" d="M20.773,38.283l4.45-3.332L11.852,17.496c-1.008-1.316-2.821-1.643-4.05-0.722l0,0
					c-1.229,0.919-1.409,2.737-0.397,4.054L20.773,38.283z"/>
				<path fill="#B47D56" d="M16.894,41.19l3.88-2.907L8.188,21.853c-0.881-1.147-2.46-1.427-3.528-0.628l-0.007,0.005
					c-1.07,0.801-1.224,2.379-0.345,3.528L16.894,41.19z"/>
				<path fill="#B47D56" d="M2.833,26.468c-0.996,0.744-1.106,2.187-0.291,3.252l10.814,14.117l3.537-2.646L6.079,27.071
					C5.263,26.006,3.831,25.719,2.833,26.468L2.833,26.468z"/>
			</g>
			<path fill="#935E3E" d="M13.263,15.458l-0.011,0.009c-0.112,0.084-0.21,0.181-0.302,0.28c1.007-0.489,2.299-0.177,3.037,0.783
				L28.32,32.634l0.671-0.502L16.656,16.028C15.831,14.95,14.298,14.682,13.263,15.458z"/>
			<path fill="#935E3E" d="M7.802,16.774c-0.114,0.086-0.214,0.188-0.309,0.289c1.2-0.626,2.775-0.258,3.689,0.936l13.369,17.455
				l0.672-0.502L11.852,17.496C10.844,16.18,9.03,15.854,7.802,16.774z"/>
			<path fill="#935E3E" d="M4.66,21.224l-0.007,0.005c-0.114,0.086-0.213,0.184-0.305,0.284c1.04-0.513,2.383-0.185,3.17,0.841
				l12.584,16.431l0.671-0.503L8.188,21.853C7.308,20.705,5.729,20.425,4.66,21.224z"/>
			<path fill="#935E3E" d="M2.833,26.468c-0.116,0.086-0.215,0.182-0.306,0.285c0.957-0.451,2.16-0.122,2.882,0.82l10.813,14.117
				l0.671-0.499L6.079,27.071C5.263,26.006,3.831,25.719,2.833,26.468z"/>
		</g>
		<path fill="#B47D56" d="M32.322,20.437c-1.772-0.853-4.019,0.935-4.41,5.234c-0.277,3-0.178,2.715-1.874,3.985l-1.515-1.978
			c0,0-5.745-0.031-12.025,6.647c0,0-3.671,3.674-2.005,5.847c0,0,3.382,5.855,7.404,8.117c5.988,3.368,18.128-3.65,15.135-14.773
			c-0.596-2.213-0.387-3.52-0.301-5.928C32.834,24.688,34.268,21.375,32.322,20.437z"/>
		<g>
			<g>
				<path fill="#935E3E" d="M32.322,20.437c-0.335-0.161-0.69-0.227-1.044-0.2c0.081,0.028,0.163,0.055,0.243,0.094
					c1.945,0.936,0.511,4.25,0.406,7.151c-0.084,2.406-0.33,3.698,0.265,5.909c2.596,9.646-6.181,16.197-12.465,15.576
					c6.303,1.337,16.016-5.371,13.305-15.451c-0.596-2.213-0.387-3.52-0.301-5.928C32.834,24.688,34.268,21.375,32.322,20.437z"/>
			</g>
		</g>
		<g>
			<g>
				<path fill="#935E3E" d="M22.58,42.078c-2.237-2.923-1.877-6.927,0.782-9.028c-0.641,0.146-1.257,0.413-1.808,0.823
					c-2.254,1.688-2.581,5.017-0.728,7.436c0.81,1.056,1.899,1.759,3.062,2.081C23.412,43.017,22.969,42.584,22.58,42.078z"/>
			</g>
		</g>
		<path fill="#935E3E" d="M24.726,27.668C20.08,27.96,11.958,33.917,10.167,38.57C10.418,32.677,20.548,26.384,24.726,27.668z"/>
	</g>
	<g>
		<g>
			<g>
				<path fill="#B47D56" d="M39.476,35.173l-4.033-2.656l10.733-16.59c0.718-1.111,2.22-1.444,3.331-0.713l0.011,0.008
					c1.112,0.73,1.412,2.249,0.672,3.393L39.476,35.173z"/>
				<path fill="#B47D56" d="M44.244,38.31l-4.769-3.137l11.638-17.986c0.877-1.357,2.657-1.76,3.974-0.892l0,0
					c1.316,0.867,1.672,2.671,0.792,4.03L44.244,38.31z"/>
				<path fill="#B47D56" d="M48.398,41.044l-4.154-2.734L55.196,21.38c0.766-1.183,2.316-1.531,3.46-0.779l0.008,0.006
					c1.146,0.754,1.453,2.323,0.688,3.508L48.398,41.044z"/>
				<path fill="#B47D56" d="M60.991,25.758c1.066,0.702,1.317,2.135,0.608,3.234l-9.411,14.544l-3.79-2.492l9.413-14.548
					C58.521,25.401,59.923,25.055,60.991,25.758L60.991,25.758z"/>
			</g>
			<path fill="#935E3E" d="M49.507,15.213l0.011,0.008c0.12,0.078,0.229,0.171,0.329,0.268c-1.052-0.448-2.312-0.082-2.953,0.909
				L36.16,32.989l-0.718-0.472l10.733-16.59C46.894,14.816,48.396,14.483,49.507,15.213z"/>
			<path fill="#935E3E" d="M55.087,16.294c0.122,0.081,0.232,0.178,0.335,0.275c-1.259-0.575-2.796-0.142-3.593,1.09L40.195,35.645
				l-0.72-0.472l11.638-17.986C51.99,15.829,53.771,15.427,55.087,16.294z"/>
			<path fill="#935E3E" d="M58.656,20.601l0.008,0.006c0.122,0.081,0.23,0.174,0.331,0.271c-1.089-0.467-2.396-0.084-3.082,0.974
				l-10.951,16.93l-0.718-0.473L55.196,21.38C55.962,20.198,57.513,19.849,58.656,20.601z"/>
			<path fill="#935E3E" d="M60.991,25.758c0.123,0.082,0.232,0.173,0.332,0.272c-0.997-0.409-2.168-0.029-2.795,0.94l-9.411,14.546
				l-0.719-0.473l9.413-14.548C58.521,25.401,59.923,25.055,60.991,25.758z"/>
		</g>
		<path fill="#B47D56" d="M30.974,20.989c1.687-0.927,4.103,0.761,4.913,5.034c0.567,2.983,0.443,2.703,2.259,3.898l1.318-2.038
			c0,0,5.731-0.274,12.648,6.124c0,0,4.023,3.514,2.576,5.751c0,0-2.805,5.987-6.598,8.415c-5.646,3.614-18.447-2.878-16.548-14.105
			c0.379-2.233,0.042-3.528-0.278-5.927C30.879,25.252,29.123,22.006,30.974,20.989z"/>
		<g>
			<g>
				<path fill="#935E3E" d="M30.974,20.989c0.319-0.177,0.665-0.257,1.021-0.245c-0.078,0.031-0.157,0.061-0.232,0.103
					c-1.851,1.018-0.094,4.263,0.293,7.153c0.319,2.399,0.692,3.678,0.313,5.909c-1.646,9.734,7.751,15.904,13.962,15.018
					c-6.159,1.602-16.508-4.684-14.788-14.858c0.379-2.233,0.042-3.528-0.278-5.927C30.879,25.252,29.123,22.006,30.974,20.989z"/>
			</g>
		</g>
		<g>
			<g>
				<path fill="#935E3E" d="M42.811,42.172c1.948-3.013,1.195-6.995-1.662-8.977c0.654,0.118,1.295,0.357,1.883,0.744
					c2.414,1.589,3.068,4.898,1.455,7.39c-0.703,1.09-1.727,1.835-2.852,2.206C42.073,43.144,42.472,42.694,42.811,42.172z"/>
			</g>
		</g>
		<path fill="#935E3E" d="M39.261,27.882c4.664,0.096,13.354,5.696,15.595,10.263C54.03,32.275,43.305,26.423,39.261,27.882z"/>
	</g>
</g>
</svg>
