<?xml version="1.0" encoding="utf-8"?>
<!-- Generator: Adobe Illustrator 15.0.0, SVG Export Plug-In . SVG Version: 6.00 Build 0)  -->
<!DOCTYPE svg PUBLIC "-//W3C//DTD SVG 1.1//EN" "http://www.w3.org/Graphics/SVG/1.1/DTD/svg11.dtd">
<svg version="1.1" id="Layer_1" xmlns="http://www.w3.org/2000/svg" xmlns:xlink="http://www.w3.org/1999/xlink" x="0px" y="0px"
	 width="64px" height="64px" viewBox="0 0 64 64" enable-background="new 0 0 64 64" xml:space="preserve">
<g>
	<path fill="#3E4347" d="M13.019,15.62c1.497-1.497,5.822,1.886,7.828,3.911c2.007,2.024,1.029,5.448-0.182,4.073
		c-1.498-1.7-5.267-7.032-6.665-6.357s-5.069,5.956-9.143,14.001l-2.857,1C2,32.249,6.508,22.132,13.019,15.62z"/>
	<path fill="#3E4347" d="M50.982,15.62c-1.497-1.497-5.822,1.886-7.828,3.911c-2.007,2.024-1.029,5.448,0.182,4.073
		c1.498-1.7,5.267-7.032,6.665-6.357s5.069,5.956,9.143,14.001l2.857,1C62.001,32.249,57.493,22.132,50.982,15.62z"/>
	<path fill="#3E4347" d="M59.93,31.028c-1.03-0.123-4.263-0.277-8.183-0.277c-4.498,0-8.085,0.635-11.621,1.246
		c-3.506,0.605-5.841,1.032-8.125,1.032c-2.284,0-4.619-0.426-8.125-1.032c-3.536-0.611-7.123-1.246-11.621-1.246
		c-3.92,0-7.152,0.154-8.183,0.277C2,31.278,2,31.278,2,33.528c0,3.289,0.383,3.861,0.545,4.057c0.22,0.266,0.834,0.633,1.033,0.914
		c0.293,0.412,0.399,1.684,0.54,2.418c1.116,5.818,2.657,7.834,11.448,7.834c8.184,0,12.217-2.395,13.756-8.309
		c0.115-0.441,0.319-2.332,0.443-2.771c0.049-0.174,0.212-0.434,0.637-0.498c0.569-0.053,1.086-0.078,1.598-0.078
		s1.029,0.025,1.598,0.078c0.425,0.064,0.588,0.324,0.637,0.498c0.124,0.439,0.328,2.33,0.443,2.771
		c1.539,5.914,5.572,8.309,13.756,8.309c8.791,0,10.332-2.016,11.448-7.834c0.141-0.734,0.247-2.006,0.54-2.418
		c0.199-0.281,0.813-0.648,1.033-0.914c0.162-0.195,0.545-0.768,0.545-4.057C62.001,31.278,62.001,31.278,59.93,31.028z
		 M27.824,38.187c-0.106,0.477-0.243,1.033-0.433,1.736c-1.102,4.098-3.534,6.828-11.824,6.828c-8.033,0-8.745-1.65-9.501-6.289
		c-0.282-1.73-0.888-3.646-0.195-5.256c0.384-0.895,1.047-2.15,3.37-2.15c1.697,0,10.094,0.109,15.256,1.205
		C26.002,34.583,28.454,35.14,27.824,38.187z M57.936,40.462c-0.756,4.639-1.468,6.289-9.501,6.289
		c-8.29,0-10.723-2.73-11.824-6.828c-0.189-0.703-0.326-1.26-0.433-1.736c-0.63-3.047,1.821-3.604,3.327-3.926
		c5.162-1.096,13.559-1.205,15.256-1.205c2.323,0,2.986,1.256,3.37,2.15C58.823,36.815,58.218,38.731,57.936,40.462z"/>
</g>
</svg>
