<?xml version="1.0" encoding="utf-8"?>
<!-- Generator: Adobe Illustrator 15.0.0, SVG Export Plug-In . SVG Version: 6.00 Build 0)  -->
<!DOCTYPE svg PUBLIC "-//W3C//DTD SVG 1.1//EN" "http://www.w3.org/Graphics/SVG/1.1/DTD/svg11.dtd">
<svg version="1.1" id="Layer_1" xmlns="http://www.w3.org/2000/svg" xmlns:xlink="http://www.w3.org/1999/xlink" x="0px" y="0px"
	 width="64px" height="64px" viewBox="0 0 64 64" enable-background="new 0 0 64 64" xml:space="preserve">
<g>
	<g>
		<g>
			<rect x="22.291" fill="#AA3369" width="1.277" height="10.224"/>
			<rect x="40.432" fill="#AA3369" width="1.276" height="10.224"/>
		</g>
		<path fill="#E84D88" d="M39.006,25.771c0-3.668,5-10.117,3.405-16.825c0,0-6.597,0-10.411,3.301
			c-3.814-3.301-10.41-3.301-10.41-3.301c-1.597,6.708,3.403,13.157,3.403,16.825c0,7.161-17.198,17.94-12.022,38.056
			c0,0,4.17-2.556,6.344-2.556c1.869,0,4.466,2.729,6.342,2.729c2.273,0,4.392-2.729,6.344-2.729c1.951,0,4.07,2.729,6.343,2.729
			c1.876,0,4.474-2.729,6.343-2.729c2.172,0,6.344,2.556,6.344,2.556C56.203,43.712,39.006,32.933,39.006,25.771z"/>
		<rect x="24.339" y="23.718" fill="#EAB2BB" width="15.321" height="4"/>
		<path fill="#FFC7CE" d="M41.699,41.891l-5.152,1.875c0,0,0.086-14.062-3.447-18.864c-0.221-0.302,1.872-0.887,2.184-0.638
			C40.444,28.395,41.699,41.891,41.699,41.891z"/>
		<path fill="#FFC7CE" d="M23.547,36.314l3.986,0.934c0,0,0.746-9.233,3.832-12.594c0.193-0.211-1.437-0.475-1.697-0.292
			C25.324,27.375,23.547,36.314,23.547,36.314z"/>
		<path fill="#EAB2BB" d="M34.785,25.49c0.594,0.906,2.563,3.813,2.813,6.281"/>
		<path fill="#EAB2BB" d="M26.946,29.955c0.469-0.977,1.938-4.164,3.923-5.654"/>
		<g>
			<path fill="#EAB2BB" d="M34.651,28.771c-0.944,0.697-3.913,0.697-4.857,0c-1.237-0.914-1.124-4.785,0-5.813
				c0.858-0.785,3.999-0.785,4.857,0C35.775,23.986,35.889,27.857,34.651,28.771z"/>
			<path fill="#FFC7CE" d="M34.24,28.687c-0.785,0.677-3.25,0.677-4.035,0c-1.027-0.888-0.934-4.646,0-5.645
				c0.714-0.762,3.321-0.762,4.035,0C35.174,24.04,35.268,27.799,34.24,28.687z"/>
		</g>
	</g>
	<g>
		<path fill="#FFC7CE" d="M46.405,55.988c-2.123,0-5.072,2.96-7.203,2.96c-2.581,0-4.986-2.96-7.202-2.96
			c-2.217,0-4.622,2.96-7.203,2.96c-2.131,0-5.079-2.96-7.202-2.96c-1.536,0-3.942,1.07-5.545,1.881
			c0.059,1.125,0.19,2.283,0.397,3.477c1.093-0.606,4.393-2.348,6.272-2.348c1.958,0,4.676,2.729,6.64,2.729
			c2.38,0,4.597-2.729,6.641-2.729c2.042,0,4.26,2.729,6.64,2.729c1.964,0,4.683-2.729,6.641-2.729c1.879,0,5.181,1.742,6.272,2.348
			c0.207-1.193,0.338-2.352,0.396-3.477C50.347,57.059,47.94,55.988,46.405,55.988z"/>
		<path fill="#FFC7CE" d="M25.22,57.082c2.429,0,4.693-2.729,6.78-2.729c2.085,0,4.35,2.729,6.779,2.729
			c2.006,0,4.782-2.729,6.781-2.729c1.937,0,5.352,1.609,6.434,2.144c0.002-0.521-0.009-1.037-0.035-1.544
			c-1.461-0.685-4.316-1.85-6.035-1.85c-2.053,0-4.903,2.729-6.963,2.729c-2.494,0-4.819-2.729-6.961-2.729
			c-2.143,0-4.468,2.729-6.962,2.729c-2.06,0-4.909-2.729-6.961-2.729c-1.721,0-4.575,1.165-6.036,1.85
			c-0.027,0.507-0.037,1.022-0.036,1.545c1.082-0.535,4.496-2.145,6.434-2.145C20.438,54.353,23.214,57.082,25.22,57.082z"/>
	</g>
</g>
</svg>
