<?xml version="1.0" encoding="utf-8"?>
<!-- Generator: Adobe Illustrator 15.0.0, SVG Export Plug-In . SVG Version: 6.00 Build 0)  -->
<!DOCTYPE svg PUBLIC "-//W3C//DTD SVG 1.1//EN" "http://www.w3.org/Graphics/SVG/1.1/DTD/svg11.dtd">
<svg version="1.1" id="Layer_1" xmlns="http://www.w3.org/2000/svg" xmlns:xlink="http://www.w3.org/1999/xlink" x="0px" y="0px"
	 width="64px" height="64px" viewBox="0 0 64 64" enable-background="new 0 0 64 64" xml:space="preserve">
<g>
	<g>
		<g>
			<path fill="#6F2833" d="M50.049,19.81c0,0,11.647-4.371,9.855-15.81l3.404,2.479c0,0,0,10.061-10.285,16.637L50.049,19.81z"/>
		</g>
		<g>
			<path fill="#DB3557" d="M50.049,19.656c0,0,2.865-12.9,9.855-15.656l3.404,2.479c0,0-7.22,4.055-10.285,16.637L50.049,19.656z"/>
		</g>
	</g>
	<g>
		<path fill="#DB3557" d="M63.28,55.864c0,5.515-62.561,5.515-62.561,0C0.719,23.28-1.439,13.31,32,13.31
			C65.438,13.31,63.28,23.28,63.28,55.864z"/>
	</g>
	<g>
		<rect x="1.885" y="31" fill="#6F2833" width="60.229" height="7"/>
	</g>
	<g>
		<rect x="1.885" y="32" fill="#F26B8C" width="60.229" height="5"/>
	</g>
	<g>
		<polygon fill="#DB3557" points="60.927,35.791 3.098,35.791 3.073,33.208 60.901,33.208 		"/>
	</g>
	<g>
		<g>
			<rect x="3.626" y="29" fill="#F26B8C" width="3.463" height="1"/>
		</g>
		<g>
			<rect x="8.46" y="29" fill="#F26B8C" width="3.464" height="1"/>
		</g>
		<g>
			<rect x="13.295" y="29" fill="#F26B8C" width="3.464" height="1"/>
		</g>
		<g>
			<rect x="18.129" y="29" fill="#F26B8C" width="3.464" height="1"/>
		</g>
		<g>
			<rect x="22.965" y="29" fill="#F26B8C" width="3.463" height="1"/>
		</g>
		<g>
			<rect x="27.799" y="29" fill="#F26B8C" width="3.463" height="1"/>
		</g>
		<g>
			<rect x="32.634" y="29" fill="#F26B8C" width="3.464" height="1"/>
		</g>
		<g>
			<rect x="37.469" y="29" fill="#F26B8C" width="3.463" height="1"/>
		</g>
		<g>
			<rect x="42.304" y="29" fill="#F26B8C" width="3.465" height="1"/>
		</g>
		<g>
			<rect x="47.139" y="29" fill="#F26B8C" width="3.462" height="1"/>
		</g>
		<g>
			<rect x="51.973" y="29" fill="#F26B8C" width="3.465" height="1"/>
		</g>
		<g>
			<rect x="56.808" y="29" fill="#F26B8C" width="3.463" height="1"/>
		</g>
	</g>
	<g>
		<g>
			<rect x="3.626" y="39" fill="#F26B8C" width="3.463" height="1"/>
		</g>
		<g>
			<rect x="8.46" y="39" fill="#F26B8C" width="3.464" height="1"/>
		</g>
		<g>
			<rect x="13.295" y="39" fill="#F26B8C" width="3.464" height="1"/>
		</g>
		<g>
			<rect x="18.129" y="39" fill="#F26B8C" width="3.464" height="1"/>
		</g>
		<g>
			<rect x="22.965" y="39" fill="#F26B8C" width="3.463" height="1"/>
		</g>
		<g>
			<rect x="27.799" y="39" fill="#F26B8C" width="3.463" height="1"/>
		</g>
		<g>
			<rect x="32.634" y="39" fill="#F26B8C" width="3.464" height="1"/>
		</g>
		<g>
			<rect x="37.469" y="39" fill="#F26B8C" width="3.463" height="1"/>
		</g>
		<g>
			<rect x="42.304" y="39" fill="#F26B8C" width="3.465" height="1"/>
		</g>
		<g>
			<rect x="47.139" y="39" fill="#F26B8C" width="3.462" height="1"/>
		</g>
		<g>
			<rect x="51.973" y="39" fill="#F26B8C" width="3.465" height="1"/>
		</g>
		<g>
			<rect x="56.808" y="39" fill="#F26B8C" width="3.463" height="1"/>
		</g>
	</g>
	<g>
		<g>
			<g>
				<path fill="#FFFFFF" d="M62.596,57.267c-0.49,0-0.889-0.438-0.889-0.978c0-1.482,0.005-2.913,0.011-4.295l0.003-0.86
					c0.056-13.351,0.092-22.166-3.989-27.071c-3.44-4.137-11.616-6.064-25.732-6.064c-14.114,0-22.291,1.927-25.731,6.064
					c-4.081,4.906-4.044,13.723-3.989,27.069l0.002,0.636c0.006,1.452,0.012,2.958,0.012,4.521c0,0.539-0.399,0.978-0.889,0.978
					c-0.49,0-0.889-0.438-0.889-0.978c0-1.789-0.007-3.503-0.015-5.147c-0.057-13.809-0.094-22.93,4.456-28.4
					C8.757,18.171,17.35,16.043,32,16.043c14.65,0,23.243,2.128,27.044,6.699c4.55,5.47,4.511,14.592,4.455,28.4l-0.002,0.38
					c-0.006,1.527-0.013,3.115-0.013,4.768C63.484,56.828,63.086,57.267,62.596,57.267z"/>
			</g>
			<g>
				<path fill="#C9C9C9" d="M32,16.543c13.862,0,22.818,1.89,26.671,6.522c4.432,5.328,4.396,14.378,4.339,28.074
					c-0.007,1.645-0.015,3.359-0.015,5.149c0,0.265-0.178,0.478-0.399,0.478c-0.221,0-0.399-0.213-0.399-0.478
					c0-1.791,0.008-3.507,0.014-5.153c0.056-13.459,0.093-22.35-4.105-27.396c-3.687-4.433-12.479-6.24-26.105-6.24
					c-13.625,0-22.418,1.808-26.104,6.24C1.697,28.786,1.734,37.677,1.79,51.136c0.006,1.646,0.014,3.362,0.014,5.153
					c0,0.265-0.179,0.478-0.399,0.478s-0.399-0.213-0.399-0.478c0-1.79-0.007-3.505-0.015-5.149
					C0.934,37.443,0.897,28.394,5.329,23.065C9.182,18.433,18.139,16.543,32,16.543 M32,15.543c-14.804,0-23.515,2.185-27.416,6.875
					c-4.667,5.61-4.629,14.807-4.571,28.726c0.007,1.644,0.014,3.357,0.014,5.146c0,0.814,0.618,1.478,1.378,1.478
					s1.378-0.663,1.378-1.478c0-1.564-0.006-3.072-0.012-4.525l-0.002-0.632c-0.055-13.236-0.091-21.98,3.873-26.745
					c3.295-3.962,11.59-5.888,25.358-5.888c13.77,0,22.064,1.926,25.36,5.888c3.963,4.765,3.927,13.506,3.872,26.738l-0.003,0.864
					c-0.006,1.384-0.011,2.816-0.011,4.3c0,0.814,0.618,1.478,1.378,1.478s1.378-0.663,1.378-1.478c0-1.649,0.007-3.235,0.013-4.761
					l0.002-0.385c0.057-13.919,0.096-23.115-4.572-28.726C55.515,17.728,46.803,15.543,32,15.543L32,15.543z"/>
			</g>
		</g>
	</g>
	<g>
		<ellipse fill="#FFFFFF" cx="46.64" cy="34.806" rx="3.409" ry="2.783"/>
		<path fill="#C9C9C9" d="M46.64,38.089c-2.149,0-3.898-1.473-3.898-3.283c0-1.812,1.749-3.285,3.898-3.285s3.898,1.474,3.898,3.285
			C50.538,36.616,48.789,38.089,46.64,38.089z M46.64,32.521c-1.61,0-2.92,1.025-2.92,2.285c0,1.259,1.31,2.283,2.92,2.283
			s2.92-1.024,2.92-2.283C49.56,33.546,48.25,32.521,46.64,32.521z"/>
	</g>
	<g>
		<rect x="45.819" y="33.627" fill="#C9C9C9" width="4.193" height="2.356"/>
	</g>
	<g>
		<path fill="#FFFFFF" d="M49.785,44.062c0.218,1.234-0.35,2.42-1.307,2.42h-2.021c-0.955,0-1.522-1.186-1.305-2.42l0.892-5.077
			c0.073-0.405,0.491-0.704,0.944-0.704h0.957c0.453,0,0.874,0.299,0.944,0.704L49.785,44.062z"/>
		<path fill="#C9C9C9" d="M48.479,46.981h-2.021c-0.489,0-0.942-0.225-1.275-0.631c-0.479-0.587-0.671-1.476-0.512-2.378
			l0.893-5.077c0.114-0.637,0.728-1.115,1.426-1.115h0.957c0.702,0,1.315,0.479,1.426,1.116l0.895,5.076
			c0.159,0.902-0.032,1.791-0.511,2.377C49.422,46.757,48.969,46.981,48.479,46.981z M46.989,38.78
			c-0.241,0-0.438,0.155-0.462,0.294l-0.893,5.076c-0.105,0.596,0.012,1.208,0.299,1.559c0.148,0.181,0.324,0.272,0.524,0.272h2.021
			c0.201,0,0.378-0.092,0.526-0.272c0.286-0.352,0.403-0.963,0.299-1.559l-0.895-5.077c-0.023-0.139-0.22-0.293-0.463-0.293H46.989z
			"/>
	</g>
	<g>
		<rect x="47.021" y="33.208" fill="#9B9596" width="0.895" height="6.13"/>
	</g>
</g>
</svg>
