<?xml version="1.0" encoding="utf-8"?>
<!-- Generator: Adobe Illustrator 15.0.0, SVG Export Plug-In . SVG Version: 6.00 Build 0)  -->
<!DOCTYPE svg PUBLIC "-//W3C//DTD SVG 1.1//EN" "http://www.w3.org/Graphics/SVG/1.1/DTD/svg11.dtd">
<svg version="1.1" id="Layer_1" xmlns="http://www.w3.org/2000/svg" xmlns:xlink="http://www.w3.org/1999/xlink" x="0px" y="0px"
	 width="64px" height="64px" viewBox="0 0 64 64" enable-background="new 0 0 64 64" xml:space="preserve">
<g>
	<g>
		<path fill="#428BC1" d="M52.877,42.881c-1.49-10.432-10.27-18.441-20.876-18.441c-10.608,0-19.389,8.01-20.879,18.441H52.877z"/>
	</g>
	<path fill="#F2B200" d="M61.8,22.935c-0.418-1.782-1.494-3.213-3.115-4.137l-0.002-0.002c-0.716-0.405-1.489-0.643-2.304-0.706
		c-0.684-0.054-1.385,0.014-2.143,0.204c-1.209,0.305-2.367,0.883-3.486,1.439c-1.49,0.741-2.896,1.443-4.195,1.443v4.602
		c2.336,0,4.369-1.013,6.164-1.906c1.865-0.93,3.051-1.465,3.775-1.055c0.527,0.302,0.805,0.657,0.93,1.19
		c0.139,0.584,0.088,1.396-0.145,2.346c-0.236,0.979-0.668,2.12-1.277,3.391c-1.18,2.454-2.783,4.897-3.953,6.683
		c-0.445,0.676-0.828,1.261-1.117,1.736v0.003c-0.117,0.193-0.23,0.378-0.342,0.558c-0.039,0.063-0.074,0.122-0.111,0.185H13.521
		c-0.038-0.063-0.073-0.121-0.112-0.185c-0.111-0.18-0.225-0.364-0.34-0.558l-0.002-0.003c-0.289-0.476-0.672-1.061-1.117-1.736
		c-1.17-1.785-2.773-4.229-3.951-6.683c-0.611-1.271-1.041-2.411-1.279-3.391c-0.232-0.95-0.281-1.762-0.145-2.346
		c0.125-0.533,0.402-0.889,0.93-1.19c0.725-0.41,1.91,0.125,3.775,1.055c1.795,0.894,3.828,1.906,6.164,1.906v-4.602
		c-1.299,0-2.705-0.702-4.195-1.443c-1.119-0.557-2.277-1.135-3.486-1.439c-0.758-0.19-1.459-0.258-2.143-0.204
		c-0.814,0.063-1.588,0.301-2.301,0.706l-0.004,0.002c-1.619,0.924-2.697,2.354-3.115,4.137c-0.549,2.34,0.027,5.231,1.76,8.84
		c1.313,2.731,3.014,5.323,4.256,7.217c0.42,0.639,0.781,1.19,1.027,1.598c0.123,0.203,0.24,0.395,0.354,0.579
		c0.576,0.939,0.981,1.604,1.25,2.41v11.261c-0.299,0-0.539,0.247-0.539,0.553c0,0.305,0.24,0.551,0.539,0.551h42.306
		c0.299,0,0.541-0.246,0.541-0.551c0-0.306-0.242-0.553-0.541-0.553V43.581c0.269-0.808,0.674-1.473,1.25-2.413
		c0.113-0.185,0.23-0.376,0.354-0.579c0.246-0.407,0.607-0.959,1.027-1.598c1.242-1.894,2.944-4.485,4.257-7.217
		C61.772,28.166,62.349,25.274,61.8,22.935z"/>
	<g>
		<path fill="#42ADE2" d="M32.855,27.209c0.537,1.62-1.978,3.96-5.619,5.226c-3.643,1.264-7.031,0.975-7.568-0.646
			c-0.54-1.621,1.979-3.96,5.621-5.225S32.319,25.589,32.855,27.209z"/>
	</g>
	<g>
		<rect x="29.577" y="44.619" fill="#FFDD7D" width="4.845" height="10.766"/>
	</g>
	<g>
		<rect x="37.818" y="44.619" fill="#FFCE31" width="4.846" height="10.766"/>
	</g>
	<g>
		<rect x="34.422" y="44.619" fill="#FFFFFF" width="3.396" height="10.766"/>
	</g>
	<g>
		<rect x="46.006" y="44.619" fill="#FFCE31" width="3.396" height="10.766"/>
	</g>
	<g>
		<rect x="10.847" y="44.625" fill="#F2B200" width="3.396" height="10.767"/>
	</g>
	<g>
		<rect x="14.558" y="44.619" fill="#FFCE31" width="6.599" height="10.766"/>
	</g>
	<g>
		<path fill="#F2B200" d="M28.438,34.928c0,1.507-2.666,5.319-2.666,5.319s-2.666-3.813-2.666-5.319
			c0-1.506,1.193-2.728,2.666-2.728S28.438,33.422,28.438,34.928z"/>
	</g>
	<g>
		<path fill="#F2B200" d="M40.895,34.928c0,1.507-2.666,5.319-2.666,5.319s-2.666-3.813-2.666-5.319
			c0-1.506,1.195-2.728,2.666-2.728C39.701,32.2,40.895,33.422,40.895,34.928z"/>
	</g>
	<g>
		<polygon fill="#66CAF2" points="38.271,12.593 25.729,12.593 28.652,7.942 35.123,7.942 		"/>
	</g>
	<g>
		<path fill="#FFCE31" d="M12.054,32.778c2.443-2.292,7.196-3.522,10.431-2.574C20.037,32.523,15.299,33.691,12.054,32.778
			L12.054,32.778z"/>
	</g>
	<g>
		<path fill="#FFCE31" d="M52.105,32.778c-3.245,0.913-7.982-0.255-10.43-2.574C44.912,29.256,49.659,30.487,52.105,32.778
			L52.105,32.778z"/>
	</g>
	<g>
		<path fill="#FFCE31" d="M26.637,30.11c2.922-1.661,7.807-1.673,10.727,0C34.433,31.795,29.573,31.754,26.637,30.11L26.637,30.11z"
			/>
	</g>
	<g>
		<polygon fill="#428BC1" points="32.965,7.942 34.09,12.593 38.271,12.593 35.123,7.942 		"/>
	</g>
	<g>
		<polygon fill="#42ADE2" points="32.965,7.942 30.81,7.942 29.901,12.593 34.082,12.593 		"/>
	</g>
	<g>
		<polygon fill="#66CAF2" points="30.81,7.942 29.901,12.593 25.729,12.593 28.652,7.942 		"/>
	</g>
	<g>
		<path fill="#FFDD7D" d="M11.493,41.67c6.815-0.518,13.685-0.575,20.516-0.575c6.833,0,13.697,0.066,20.515,0.575
			c-6.813,0.525-13.684,0.575-20.515,0.575C25.18,42.245,18.306,42.201,11.493,41.67L11.493,41.67z"/>
	</g>
	<g>
		<rect x="10.847" y="44.56" fill="#428BC1" width="42.306" height="1.104"/>
	</g>
	<g>
		<ellipse fill="#428BC1" cx="10.846" cy="45.112" rx="0.54" ry="0.552"/>
	</g>
	<g>
		<ellipse fill="#428BC1" cx="53.153" cy="45.112" rx="0.54" ry="0.552"/>
	</g>
	<path fill="#FFCE31" d="M50.711,20.419c-0.281-1.112-0.74-2.116-1.363-2.977c-0.674-0.936-1.541-1.711-2.58-2.304l-0.004-0.001
		c-0.771-0.439-1.609-0.697-2.49-0.765c-0.744-0.059-1.512,0.016-2.342,0.225c-1.34,0.339-2.643,0.987-3.902,1.614
		c-0.35,0.174-0.703,0.349-1.056,0.518c0.757-1.602,1.298-3.102,1.298-4.137H25.729c0,1.035,0.541,2.535,1.299,4.137
		c-0.354-0.169-0.707-0.343-1.057-0.518c-1.26-0.627-2.561-1.275-3.902-1.614c-0.83-0.209-1.596-0.283-2.342-0.225
		c-0.882,0.067-1.72,0.325-2.491,0.765l-0.004,0.001c-1.037,0.593-1.906,1.368-2.58,2.304c-0.623,0.86-1.08,1.864-1.363,2.977
		c-0.727,2.874-0.299,6.551,1.273,10.928c1.212,3.373,2.763,6.224,3.539,7.562h5.274c-0.229-0.398-0.468-0.799-0.723-1.215
		c-0.125-0.205-0.256-0.416-0.389-0.635v-0.004c-2.084-3.434-5.731-11.089-4.62-15.481c0.281-1.115,0.848-1.881,1.777-2.414
		c0.296-0.167,0.714-0.309,1.571-0.093c0.877,0.221,1.914,0.737,3.01,1.283c1.712,0.854,3.623,1.798,5.749,2.061l0.009,16.498h4.497
		l-0.009-16.498c2.127-0.263,4.037-1.208,5.75-2.061c1.098-0.546,2.133-1.063,3.01-1.283c0.857-0.216,1.275-0.074,1.57,0.093
		c0.93,0.533,1.496,1.299,1.777,2.414c1.111,4.393-2.535,12.048-4.617,15.481l-0.002,0.004c-0.133,0.219-0.264,0.43-0.389,0.635
		c-0.255,0.416-0.494,0.816-0.724,1.215h5.274c0.777-1.338,2.327-4.188,3.539-7.562C51.01,26.97,51.438,23.293,50.711,20.419z"/>
	<g>
		<path fill="#F2B200" d="M32.001,17.15c-1.689,0-3.222-0.66-4.351-1.73c0.271,2.216,2.118,3.93,4.356,3.93
			c2.245,0,4.095-1.722,4.358-3.945C35.236,16.484,33.697,17.15,32.001,17.15z"/>
	</g>
</g>
</svg>
