<?xml version="1.0" encoding="utf-8"?>
<!-- Generator: Adobe Illustrator 15.0.0, SVG Export Plug-In . SVG Version: 6.00 Build 0)  -->
<!DOCTYPE svg PUBLIC "-//W3C//DTD SVG 1.1//EN" "http://www.w3.org/Graphics/SVG/1.1/DTD/svg11.dtd">
<svg version="1.1" id="Layer_1" xmlns="http://www.w3.org/2000/svg" xmlns:xlink="http://www.w3.org/1999/xlink" x="0px" y="0px"
	 width="64px" height="64px" viewBox="0 0 64 64" enable-background="new 0 0 64 64" xml:space="preserve">
<g>
	<g>
		<g>
			<path fill="#5B636B" d="M52.369,42.476l-0.895-1.651c0,0-8.805,2.414-18.502,2.414c-9.698,0-18.501-2.414-18.501-2.414
				l-0.894,1.651c7.925,0,14.646,10.638,17.014,21.419C31.376,63.964,32.17,64,32.972,64c0.803,0,1.597-0.036,2.383-0.105
				C37.722,53.113,44.443,42.476,52.369,42.476z"/>
		</g>
		<g>
			<g>
				<path fill="#5B636B" d="M14.044,41.087c-0.89,1.212-1.856,2.303-2.788,3.387c-0.259,0.275-0.511,0.557-0.724,0.857
					c-0.216,0.304-0.388,0.615-0.365,0.979c0.034,0.733,0.353,1.524,0.83,2.02c0.098,0.113,0.304,0.19,0.263,0.154
					c0.167-0.017,0.006-0.021,0.091-0.056c0.038-0.031,0.088-0.082,0.135-0.141c0.195-0.241,0.383-0.565,0.551-0.892
					c0.161-0.324,0.339-0.692,0.422-0.999c0.104-0.345,0.21-0.71,0.304-1.078C13.15,43.925,13.538,42.498,14.044,41.087z
					 M14.217,40.858c0.069,1.594-0.077,3.163-0.418,4.722c-0.1,0.388-0.199,0.777-0.357,1.168c-0.17,0.435-0.371,0.754-0.586,1.112
					c-0.222,0.349-0.452,0.694-0.812,1.005c-0.093,0.076-0.194,0.152-0.326,0.217c-0.083,0.064-0.439,0.118-0.466,0.084
					c-0.437-0.089-0.533-0.313-0.68-0.492c-0.446-0.768-0.595-1.532-0.728-2.341c-0.093-0.893,0.354-1.674,0.75-2.361
					c0.929-1.326,2.147-2.371,3.542-3.159l0.078-0.044L14.217,40.858z"/>
			</g>
			<g>
				<path fill="#5B636B" d="M14.245,41.333c0.112,1.328,0.112,2.619,0.098,3.891c-0.018,0.7-0.128,1.454,0.262,2.027
					c0.378,0.574,1,1.122,1.586,1.288c0.062,0.012,0.126,0.008,0.113-0.009c-0.023,0.008,0.04-0.022-0.053,0.024l0.05-0.047
					c-0.046,0-0.071,0.062-0.061,0.019c0.007-0.08,0.002-0.253-0.018-0.41c-0.04-0.326-0.106-0.675-0.18-1.021
					c-0.077-0.364-0.163-0.663-0.288-0.992l-0.368-1.007C14.959,43.875,14.556,42.629,14.245,41.333z M14.213,40.83
					c0.894,1.209,1.599,2.512,2.17,3.889c0.131,0.35,0.265,0.7,0.364,1.07c0.104,0.369,0.183,0.788,0.222,1.148
					c0.046,0.379,0.083,0.76,0.056,1.169c-0.02,0.208-0.031,0.41-0.152,0.676c-0.204,0.473-0.691,0.37-0.867,0.272
					c-0.41-0.204-0.647-0.496-0.92-0.762c-0.26-0.275-0.511-0.552-0.745-0.854c-0.518-0.622-0.701-1.436-0.829-2.173
					c-0.143-1.515,0.085-3.005,0.607-4.423l0.035-0.095L14.213,40.83z"/>
			</g>
			<g>
				<path fill="#5B636B" d="M14.217,40.859c-0.227,2.147-0.417,4.298-0.546,6.44c-0.063,1.072-0.016,2.146-0.115,3.2
					c-0.076,1.063-0.208,2.101-0.179,3.185l-0.095,0.031c-0.579-0.996-0.672-2.154-0.726-3.239
					c-0.046-1.103,0.168-2.182,0.319-3.257c0.308-2.15,0.731-4.274,1.243-6.378L14.217,40.859z"/>
			</g>
			<g>
				<path fill="#5B636B" d="M14.217,40.854c0.021,2.841,0.101,5.682,0.27,8.506c0.098,1.412,0.283,2.813,0.365,4.211
					c0.101,1.4,0.146,2.792,0.458,4.177l-0.09,0.043c-0.436-0.597-0.691-1.299-0.903-1.992c-0.215-0.697-0.347-1.41-0.46-2.122
					c-0.217-1.427-0.181-2.865-0.17-4.293c0.008-2.855,0.163-5.7,0.431-8.535L14.217,40.854z"/>
			</g>
		</g>
		<g>
			<g>
				<path fill="#5B636B" d="M51.418,41.087c-0.89,1.212-1.855,2.303-2.787,3.388c-0.259,0.275-0.511,0.556-0.724,0.857
					c-0.216,0.303-0.387,0.616-0.364,0.979c0.033,0.732,0.353,1.524,0.83,2.019c0.098,0.112,0.303,0.189,0.263,0.153
					c0.168-0.017,0.006-0.021,0.092-0.056c0.038-0.031,0.088-0.083,0.136-0.141c0.195-0.242,0.383-0.566,0.551-0.892
					c0.161-0.324,0.34-0.692,0.422-0.998c0.104-0.346,0.211-0.71,0.305-1.078C50.525,43.926,50.912,42.498,51.418,41.087z
					 M51.591,40.858c0.07,1.594-0.076,3.163-0.416,4.722c-0.101,0.388-0.199,0.777-0.357,1.168c-0.17,0.435-0.37,0.755-0.586,1.112
					c-0.222,0.349-0.453,0.694-0.812,1.005c-0.094,0.076-0.194,0.151-0.326,0.216c-0.082,0.064-0.438,0.119-0.467,0.085
					c-0.436-0.088-0.533-0.312-0.68-0.491c-0.446-0.768-0.596-1.531-0.728-2.341c-0.093-0.892,0.353-1.674,0.748-2.362
					c0.929-1.326,2.146-2.371,3.54-3.159l0.079-0.044L51.591,40.858z"/>
			</g>
			<g>
				<path fill="#5B636B" d="M51.618,41.333c0.112,1.328,0.112,2.619,0.099,3.891c-0.018,0.7-0.127,1.453,0.263,2.028
					c0.377,0.574,0.999,1.122,1.585,1.288c0.063,0.011,0.127,0.007,0.114-0.01c-0.023,0.008,0.039-0.022-0.053,0.023l0.05-0.046
					c-0.046,0-0.07,0.061-0.061,0.018c0.007-0.08,0.002-0.253-0.018-0.41c-0.04-0.326-0.106-0.675-0.181-1.02
					c-0.077-0.366-0.162-0.662-0.288-0.992l-0.369-1.007C52.334,43.875,51.93,42.629,51.618,41.333z M51.587,40.83
					c0.894,1.209,1.599,2.512,2.171,3.889c0.132,0.35,0.266,0.7,0.364,1.069c0.104,0.369,0.184,0.79,0.223,1.149
					c0.046,0.379,0.083,0.76,0.055,1.168c-0.019,0.208-0.03,0.411-0.152,0.677c-0.203,0.472-0.689,0.371-0.866,0.273
					c-0.41-0.204-0.648-0.497-0.921-0.763c-0.26-0.274-0.511-0.551-0.744-0.854c-0.517-0.622-0.702-1.435-0.83-2.173
					c-0.144-1.515,0.084-3.005,0.605-4.423l0.035-0.095L51.587,40.83z"/>
			</g>
			<g>
				<path fill="#5B636B" d="M51.59,40.859c-0.227,2.147-0.417,4.298-0.546,6.44c-0.063,1.072-0.015,2.146-0.114,3.2
					c-0.077,1.063-0.208,2.101-0.179,3.185l-0.096,0.031c-0.578-0.996-0.672-2.154-0.726-3.239
					c-0.046-1.103,0.169-2.182,0.318-3.257c0.309-2.15,0.731-4.274,1.244-6.378L51.59,40.859z"/>
			</g>
			<g>
				<path fill="#5B636B" d="M51.591,40.854c0.021,2.842,0.101,5.682,0.27,8.506c0.098,1.412,0.283,2.813,0.366,4.211
					c0.102,1.4,0.147,2.792,0.46,4.177l-0.09,0.043c-0.437-0.596-0.692-1.299-0.903-1.992c-0.216-0.697-0.348-1.409-0.461-2.121
					c-0.218-1.427-0.182-2.866-0.171-4.293c0.007-2.856,0.162-5.701,0.43-8.536L51.591,40.854z"/>
			</g>
		</g>
	</g>
	<g>
		<g>
			<g>
				<path fill="#5B636B" d="M12.331,14.44c-1.571,1.249-1.259,6.373-0.819,8.439c0.396,1.857,2.133,5.666,3.722,6.453
					c3.704,1.836,13.426,0.602,16.066-2.78c0.31-0.396,0.244-1.635,0-2.084c-1.556-2.89-7.093-6.574-9.893-7.942
					C19.289,15.491,14.205,12.949,12.331,14.44z"/>
				<g>
					<path fill="#5B636B" d="M13.759,15.443l-1.457-0.419c0.012-0.047,1.143-1.567,1.143-7.463c0-4.205-1.135-7.116-1.146-7.166
						L13.763,0c0.047,0.216,1.188,3.159,1.188,7.561C14.951,13.681,13.808,15.241,13.759,15.443z"/>
				</g>
			</g>
			<g>
				<path fill="#5B636B" d="M51.67,14.44c1.57,1.249,1.256,6.373,0.818,8.439c-0.396,1.857-2.133,5.666-3.722,6.453
					c-3.704,1.836-13.426,0.602-16.067-2.78c-0.31-0.396-0.242-1.635,0-2.084c1.558-2.89,7.095-6.574,9.893-7.942
					C44.711,15.491,49.795,12.949,51.67,14.44z"/>
				<g>
					<path fill="#5B636B" d="M50.243,15.443l1.458-0.419c-0.014-0.047-1.143-1.567-1.143-7.463c0-4.205,1.131-7.116,1.145-7.166
						L50.241,0c-0.052,0.216-1.19,3.159-1.19,7.561C49.051,13.681,50.195,15.241,50.243,15.443z"/>
				</g>
			</g>
		</g>
		<rect x="31.202" y="24.988" fill="#5B636B" width="1.596" height="1.119"/>
	</g>
</g>
</svg>
