<?xml version="1.0" encoding="utf-8"?>
<!-- Generator: Adobe Illustrator 15.0.0, SVG Export Plug-In . SVG Version: 6.00 Build 0)  -->
<!DOCTYPE svg PUBLIC "-//W3C//DTD SVG 1.1//EN" "http://www.w3.org/Graphics/SVG/1.1/DTD/svg11.dtd">
<svg version="1.1" id="Layer_1" xmlns="http://www.w3.org/2000/svg" xmlns:xlink="http://www.w3.org/1999/xlink" x="0px" y="0px"
	 width="64px" height="64px" viewBox="0 0 64 64" enable-background="new 0 0 64 64" xml:space="preserve">
<g>
	<path fill="#42ADE2" d="M63.71,16.14c0,0-6.118-11.988-7.696-12.911c-1.578-0.922-10.458-0.737-13.813-2.028
		c0,0-4.094,4.795-10.234,4.795c-6.143,0-10.237-4.795-10.237-4.795C18.375,2.492,9.495,2.307,7.917,3.229
		C6.339,4.151,0.221,16.14,0.221,16.14c3.354,7.746,11.445,9.406,11.445,9.406l3.158-4.98l-1.48,38.731
		C21.038,63.725,26.572,64,31.967,64c5.392,0,10.926-0.275,18.62-4.703l-1.48-38.731l3.158,4.98
		C52.265,25.546,60.355,23.886,63.71,16.14z"/>
	<g>
		<path fill="#22648C" d="M32.243,7.164c-1.554,0-3.136-0.291-4.71-0.864c-1.248-0.455-2.492-1.088-3.695-1.882
			c-2.037-1.344-3.27-2.691-3.321-2.748l1.882-1.491l-0.941,0.746l0.941-0.747c0.011,0.012,1.118,1.217,2.92,2.395
			c1.598,1.045,4.094,2.287,6.927,2.287c0.016,0,0.033,0,0.049,0c3.245-0.017,6.344-1.651,9.208-4.857l1.893,1.477
			c-1.759,1.971-3.646,3.45-5.613,4.396c-1.763,0.849-3.61,1.283-5.491,1.29C32.274,7.164,32.259,7.164,32.243,7.164z"/>
	</g>
	<path fill="#22648C" d="M13.017,23.424c-3.483-0.295-6.478-1.992-8.906-5.055c-1.413-1.781-2.265-3.588-2.668-4.571l0,0L0,16.465
		c0.51,0.965,1.194,2.089,2.082,3.216c1.377,1.752,2.964,3.154,4.714,4.165c1.516,0.876,3.149,1.457,4.881,1.736L13.017,23.424z"/>
	<path fill="#22648C" d="M50.983,23.494c3.483-0.295,6.475-1.992,8.906-5.055c1.411-1.781,2.265-3.588,2.668-4.571l0,0L64,16.534
		c-0.511,0.965-1.195,2.089-2.082,3.216c-1.379,1.752-2.964,3.154-4.714,4.165c-1.516,0.876-3.151,1.457-4.882,1.736L50.983,23.494z
		"/>
</g>
</svg>
