<?xml version="1.0" encoding="utf-8"?>
<!-- Generator: Adobe Illustrator 15.0.0, SVG Export Plug-In . SVG Version: 6.00 Build 0)  -->
<!DOCTYPE svg PUBLIC "-//W3C//DTD SVG 1.1//EN" "http://www.w3.org/Graphics/SVG/1.1/DTD/svg11.dtd">
<svg version="1.1" id="Layer_1" xmlns="http://www.w3.org/2000/svg" xmlns:xlink="http://www.w3.org/1999/xlink" x="0px" y="0px"
	 width="64px" height="64px" viewBox="0 0 64 64" enable-background="new 0 0 64 64" xml:space="preserve">
<g>
	<path fill="#428BC1" d="M48.109,14.021V0H15.89v14.021c-6.483,32.472-2.904,49.343-2.904,49.343l16.109-5.207
		C24.509,36.808,32,22.494,32,22.494h1.683c0,0,5.809,14.313,1.222,35.662l16.109,5.207C51.014,63.363,54.594,46.492,48.109,14.021z
		"/>
	<g>
		<path fill="#347AA5" d="M41.271,25.958c-0.205,0.356-2.065-0.31-4.155-1.488c-2.091-1.179-3.619-2.424-3.414-2.78
			c0.205-0.355,2.065,0.311,4.156,1.49C39.947,24.357,41.476,25.603,41.271,25.958z"/>
		<path fill="#347AA5" d="M44.472,44.042c-0.205,0.356-2.065-0.31-4.155-1.488c-2.091-1.179-3.619-2.424-3.414-2.78
			c0.205-0.355,2.065,0.311,4.156,1.489C43.148,42.441,44.677,43.687,44.472,44.042z"/>
		<path fill="#347AA5" d="M51.264,59.141c-0.205,0.355-2.066-0.311-4.156-1.489c-2.091-1.179-3.619-2.423-3.414-2.779
			c0.205-0.355,2.066,0.311,4.156,1.489C49.94,57.539,51.469,58.784,51.264,59.141z"/>
		<path fill="#347AA5" d="M51.045,59.225c-0.378,0.167-1.479-1.461-2.459-3.635c-0.98-2.176-1.468-4.075-1.09-4.242
			c0.378-0.166,1.479,1.461,2.459,3.637C50.936,57.159,51.423,59.058,51.045,59.225z"/>
		<ellipse transform="matrix(1 -0.0036 0.0036 1 -0.1448 0.1494)" fill="#347AA5" cx="40.979" cy="39.862" rx="3.756" ry="0.547"/>
		<path fill="#347AA5" d="M44,37.181c0.105,0.283-1.385,1.091-3.33,1.805s-3.608,1.062-3.715,0.778
			c-0.105-0.282,1.386-1.091,3.331-1.805C42.23,37.245,43.894,36.897,44,37.181z"/>
		<path fill="#347AA5" d="M43.778,17.873c-0.161-0.159,0.613-1.189,1.73-2.3s2.155-1.882,2.316-1.722
			c0.162,0.159-0.612,1.189-1.73,2.3C44.978,17.263,43.94,18.033,43.778,17.873z"/>
		<path fill="#347AA5" d="M44.585,19.784c-0.194-0.119,0.433-1.47,1.399-3.018c0.968-1.548,1.909-2.705,2.104-2.586
			c0.193,0.119-0.433,1.471-1.4,3.018C45.721,18.746,44.779,19.903,44.585,19.784z"/>
		<path fill="#347AA5" d="M36.544,27.33c-0.203,0.104-0.955-0.942-1.68-2.335c-0.725-1.395-1.147-2.608-0.945-2.712
			c0.204-0.104,0.957,0.942,1.681,2.336C36.325,26.013,36.748,27.227,36.544,27.33z"/>
		
			<ellipse transform="matrix(0.9947 0.1027 -0.1027 0.9947 2.4813 -4.0035)" fill="#347AA5" cx="40.13" cy="22.101" rx="6.482" ry="0.743"/>
		<polygon fill="#347AA5" points="35.172,53.887 52,60.04 51.337,64 34.295,58.761 		"/>
	</g>
	<path fill="#347AA5" d="M24.166,26.33c0.205,0.355,2.066-0.311,4.156-1.489c2.091-1.179,3.619-2.424,3.414-2.779
		c-0.205-0.356-2.066,0.31-4.156,1.489C25.489,24.729,23.961,25.974,24.166,26.33z"/>
	<path fill="#347AA5" d="M19.589,43.558c0.157,0.379,2.089-0.046,4.314-0.948c2.227-0.903,3.903-1.943,3.747-2.323
		c-0.157-0.379-2.09,0.046-4.315,0.949C21.109,42.138,19.432,43.178,19.589,43.558z"/>
	<path fill="#347AA5" d="M12.736,59.141c0.205,0.355,2.065-0.311,4.155-1.489c2.091-1.179,3.619-2.423,3.414-2.779
		c-0.205-0.355-2.065,0.311-4.156,1.489C14.06,57.539,12.531,58.784,12.736,59.141z"/>
	<path fill="#347AA5" d="M12.955,59.225c0.378,0.167,1.479-1.461,2.459-3.635c0.98-2.176,1.468-4.075,1.089-4.242
		c-0.378-0.166-1.479,1.461-2.459,3.637C13.063,57.159,12.576,59.058,12.955,59.225z"/>
	
		<ellipse transform="matrix(-0.9914 -0.1308 0.1308 -0.9914 41.7748 82.4552)" fill="#347AA5" cx="23.596" cy="39.855" rx="3.755" ry="0.548"/>
	<path fill="#347AA5" d="M20.221,17.873c0.162-0.159-0.612-1.189-1.729-2.3c-1.118-1.11-2.155-1.882-2.317-1.722
		c-0.161,0.159,0.613,1.189,1.73,2.3C19.021,17.263,20.06,18.033,20.221,17.873z"/>
	<path fill="#347AA5" d="M19.52,19.442c0.193-0.119-0.433-1.47-1.399-3.017c-0.968-1.549-1.91-2.706-2.104-2.587
		c-0.194,0.119,0.433,1.471,1.399,3.018C18.383,18.404,19.325,19.562,19.52,19.442z"/>
	<path fill="#347AA5" d="M28.893,27.33c0.203,0.104,0.955-0.942,1.681-2.335c0.725-1.395,1.147-2.608,0.944-2.712
		s-0.956,0.942-1.681,2.336S28.689,27.227,28.893,27.33z"/>
	<polygon fill="#347AA5" points="28.827,53.887 12,60.04 12.663,64 29.705,58.761 	"/>
	<g>
		<ellipse fill="#FFCE31" cx="33.683" cy="2.619" rx="1.343" ry="1.25"/>
		<g>
			<path fill="#3E4347" d="M43.163,11.703c-1.825-1.878-2.035-4.656-2.032-5.857h6.979V5.25h-6.534V0h-1.551v5.25h-8.245V0h-0.423
				v5.25h-7.329V0h-1.549v5.25H15.89v0.596h7.104c0.002,1.201-0.207,3.979-2.032,5.857c-1.242,1.274-2.808,1.922-5.071,1.922v0.396
				c2.389,0,4.06-0.69,5.385-2.053c1.943-1.999,2.156-4.866,2.146-6.122h6.95v14.93l0,0c0,0.947,0.821,1.719,1.832,1.719h1.832
				V5.846h6.668c-0.01,1.256,0.202,4.123,2.146,6.122c1.325,1.362,2.873,2.053,5.26,2.053v-0.396
				C45.848,13.625,44.404,12.978,43.163,11.703z M40.446,0.396h0.705v4.844h-0.209L40.73,5.22c0,0.004-0.001,0.012-0.002,0.02
				h-0.282V0.396z M22.9,0.396h0.705v4.844h-0.211c-0.001-0.008-0.001-0.016-0.001-0.02l-0.212,0.02H22.9V0.396z M33.611,22.099
				h-1.408c-0.776,0-1.41-0.595-1.41-1.323V5.846h2.818V22.099z"/>
		</g>
	</g>
</g>
</svg>
