<?xml version="1.0" encoding="utf-8"?>
<!-- Generator: Adobe Illustrator 15.0.0, SVG Export Plug-In . SVG Version: 6.00 Build 0)  -->
<!DOCTYPE svg PUBLIC "-//W3C//DTD SVG 1.1//EN" "http://www.w3.org/Graphics/SVG/1.1/DTD/svg11.dtd">
<svg version="1.1" id="Layer_1" xmlns="http://www.w3.org/2000/svg" xmlns:xlink="http://www.w3.org/1999/xlink" x="0px" y="0px"
	 width="64px" height="64px" viewBox="0 0 64 64" enable-background="new 0 0 64 64" xml:space="preserve">
<g>
	<g>
		<g>
			<g>
				<path fill="#212326" d="M4.714,13.506c-2.628-0.173-2.743,5.052-2.71,7.679C2.066,26.04,14.118,35.68,15.917,35.468
					c1.262-0.149,2.791-1.84,4.718-1.461C20.635,34.007,9.591,13.829,4.714,13.506z"/>
			</g>
			<g>
				<path fill="#212326" d="M22.666,32.955c-2.698,2.792-0.675,13.351,1.755,16.378C29.963,56.243,46.021,62,54.14,62
					c3.87,0,7.413-1.899,7.806-5.167c0.557-4.623-3.24-12.781-8.236-15.578C46.343,37.132,28.528,26.891,22.666,32.955z"/>
			</g>
		</g>
		<g>
			<path fill="#3D4347" d="M7.385,2.638C4.207,5.381,2.751,14.757,3.918,18.784c1.236,4.271,10.656,8.978,13.221,12.615
				c2.665,3.781,4.711,13.572,8.255,16.55c6.509,5.47,24.632,12.7,32.616,9.753c11.295-4.168-16.207-35.778-26.767-42.666
				C25.026,10.982,11.439-0.861,7.385,2.638z"/>
		</g>
		<g>
			<path fill="#FFFFFF" d="M25.915,45.79c2.809,1.926,5.84,3.492,8.929,4.894c3.096,1.388,6.276,2.592,9.524,3.519
				c1.623,0.461,3.266,0.851,4.918,1.111c1.646,0.252,3.323,0.398,4.911,0.207c1.579-0.172,3.07-0.837,3.442-2.114
				c0.414-1.282-0.029-2.915-0.628-4.382c-0.189-0.46,0.029-0.986,0.488-1.176c0.46-0.189,0.986,0.029,1.176,0.488
				c0.005,0.012,0.012,0.029,0.016,0.04c0.302,0.843,0.555,1.72,0.681,2.649c0.119,0.925,0.121,1.936-0.252,2.918
				c-0.358,0.989-1.178,1.806-2.065,2.231c-0.892,0.442-1.821,0.612-2.722,0.688c-1.808,0.133-3.548-0.109-5.246-0.444
				c-1.698-0.345-3.355-0.817-4.984-1.356c-3.255-1.088-6.402-2.441-9.453-3.974C31.608,49.545,28.637,47.839,25.915,45.79z"/>
		</g>
		<g>
			<path fill="#FFFFFF" d="M15.036,29.219c7.665,11.494,11.87,12.759,17.54,14.775c1.686,0.601,5.743,1.13,7.164,0.042
				c1.551-1.188,1.767-7.816,1.767-7.816s7.832,4.374,9.823,2.881c2.104-1.578-9.023-14.208-9.023-14.208s2.966,4.304,1.753,4.73
				c-6.067,2.121-10.735-11.783-13.014-14.718c-0.688-0.887-2.023-2.173-3.147-2.227c-1.593-0.077-6.999,0.906-6.863,2.493
				c0.114,1.331,3.14-0.618,4.198,0.199c2.886,2.221,7.658,10.303,7.354,13.923c-0.203,2.427-4.773,8.984-7.17,9.45
				C24.032,39.014,15.036,29.219,15.036,29.219z"/>
		</g>
		<g>
			<path fill="#A6876C" d="M8.243,2.763c-2.074,1.302-1.169,7.538-0.174,9.77c0.767,1.722,3.863,4.491,5.693,4.953
				c2.618,0.662,10.53-3.638,10.53-3.638s5.165,1.393,4.241,0.545C25.301,11.43,10.951,1.063,8.243,2.763z"/>
		</g>
		<g>
			<g>
				<path fill="#212326" d="M58.649,39.4c-0.061,0-0.121-0.005-0.183-0.017c-0.215-0.039-5.295-1.012-8.306-4.58
					c-2.129-2.525-3.307-5.402-4.445-8.184c-1.614-3.942-3.139-7.665-7.232-9.923c-1.921-1.059-4.114-0.36-4.136-0.353
					c-0.522,0.178-1.091-0.102-1.269-0.625c-0.178-0.523,0.102-1.091,0.624-1.269c0.123-0.041,3.028-1.002,5.745,0.495
					c4.713,2.599,6.444,6.827,8.118,10.917c1.08,2.639,2.197,5.367,4.124,7.65c2.541,3.014,7.095,3.896,7.141,3.904
					c0.543,0.102,0.9,0.623,0.8,1.166C59.541,39.064,59.122,39.4,58.649,39.4z"/>
			</g>
			<g>
				<g>
					<path fill="#212326" d="M29.537,30.151c-0.214,0-0.43-0.068-0.612-0.21c-0.437-0.339-0.516-0.967-0.177-1.403
						c2.093-2.693,7.586-5.9,13.414-3.047c0.496,0.243,0.701,0.842,0.459,1.338c-0.243,0.496-0.84,0.702-1.338,0.458
						c-5.34-2.614-9.81,1.004-10.955,2.478C30.13,30.018,29.835,30.151,29.537,30.151z"/>
				</g>
				<g>
					<path fill="#212326" d="M27.348,26.85c-0.214,0-0.43-0.068-0.612-0.21c-0.437-0.339-0.516-0.967-0.177-1.403
						c2.092-2.693,7.585-5.902,13.413-3.047c0.496,0.243,0.701,0.842,0.459,1.338c-0.243,0.496-0.841,0.702-1.338,0.458
						c-5.341-2.613-9.808,1.004-10.954,2.478C27.942,26.717,27.647,26.85,27.348,26.85z"/>
				</g>
				<g>
					<path fill="#212326" d="M25.017,23.508c-0.214,0-0.43-0.068-0.612-0.21c-0.437-0.339-0.516-0.967-0.177-1.403
						c2.094-2.693,7.585-5.901,13.414-3.046c0.495,0.243,0.7,0.842,0.458,1.338c-0.243,0.496-0.843,0.702-1.339,0.458
						c-5.337-2.613-9.808,1.003-10.953,2.477C25.611,23.375,25.316,23.508,25.017,23.508z"/>
				</g>
				<g>
					<path fill="#212326" d="M22.922,20.886c-0.214,0-0.43-0.068-0.612-0.21c-0.437-0.339-0.516-0.967-0.177-1.403
						c2.094-2.693,7.588-5.9,13.414-3.046c0.496,0.243,0.701,0.842,0.459,1.338c-0.243,0.496-0.845,0.702-1.338,0.458
						c-5.343-2.617-9.81,1.003-10.955,2.477C23.516,20.753,23.221,20.886,22.922,20.886z"/>
				</g>
				<g>
					<path fill="#212326" d="M20.684,18.036c-0.214,0-0.43-0.068-0.612-0.21c-0.437-0.339-0.516-0.967-0.177-1.403
						c2.091-2.693,7.58-5.902,13.413-3.046c0.496,0.243,0.701,0.842,0.459,1.338c-0.243,0.496-0.839,0.702-1.337,0.458
						c-5.346-2.616-9.811,1.003-10.954,2.477C21.278,17.903,20.983,18.036,20.684,18.036z"/>
				</g>
			</g>
			<g>
				<path fill="#212326" d="M15.829,56.25c-3.674,0-7.406-1.196-7.646-1.274c-0.525-0.17-0.813-0.734-0.642-1.26
					s0.737-0.813,1.261-0.641c2.25,0.73,8.652,2.181,11.208,0.133c2.943-2.355,1.967-6.113,0.128-12.05
					c-1.756-5.671-3.747-12.097-1.249-18.7c0.582-1.537,2.288-7.096,2.306-7.152c0.162-0.528,0.719-0.826,1.249-0.663
					c0.528,0.162,0.825,0.721,0.663,1.25c-0.071,0.231-1.743,5.676-2.347,7.273c-2.255,5.959-0.372,12.038,1.288,17.4
					c1.732,5.593,3.369,10.876-0.788,14.203C19.866,55.886,17.856,56.25,15.829,56.25z"/>
			</g>
		</g>
	</g>
</g>
</svg>
