<?xml version="1.0" encoding="utf-8"?>
<!-- Generator: Adobe Illustrator 15.0.0, SVG Export Plug-In . SVG Version: 6.00 Build 0)  -->
<!DOCTYPE svg PUBLIC "-//W3C//DTD SVG 1.1//EN" "http://www.w3.org/Graphics/SVG/1.1/DTD/svg11.dtd">
<svg version="1.1" id="Layer_1" xmlns="http://www.w3.org/2000/svg" xmlns:xlink="http://www.w3.org/1999/xlink" x="0px" y="0px"
	 width="64px" height="64px" viewBox="0 0 64 64" enable-background="new 0 0 64 64" xml:space="preserve">
<g>
	<g>
		<rect x="0" y="46" fill="#E5E5E5" width="64" height="8"/>
		<rect x="0" y="49.5" fill="#3E4347" width="64" height="1"/>
		<rect x="0" y="53" fill="#9F9E9C" width="64" height="1"/>
		<path fill="#E5E5E5" d="M64,46H52v-6C58.627,40,64,42.686,64,46z"/>
		<rect x="1" y="47" fill="#E5E5E5" width="5" height="6"/>
		<rect x="5" y="46" fill="#9F9E9C" width="1" height="8"/>
		<rect x="0" y="46" fill="#3E4347" width="64" height="1"/>
		<path fill="#3E4347" d="M52,46v-6c0,0-15.159-6.334-19.209-9.912c-6.791-6-8.459-17.333-8.375-19c0.063-1.258-4.02-0.18-5,0.609
			c-0.441,0.355-0.729,1.574-0.75,2.141c-0.156,4.204,4.375,16.25,4.375,16.25L52,46z"/>
		<path fill="#4F5559" d="M46.979,39.275c-5.188-2.336-9.281-2.855-13.563-5.188c-9.334-5.082-13.102-16.755-13.875-17.125
			c-2.736-1.307-7.709,2.292-11.957,2.042C3.503,18.765,0,15.755,0,15.755s1.874,6.176,2.422,10.543
			C2.656,28.166,2.75,32.172,1,36.006C-0.042,38.287,0,46,0,46h52C52,46,51.479,41.303,46.979,39.275z"/>
	</g>
	<circle fill="none" stroke="#F5F5F5" stroke-miterlimit="10" cx="17.926" cy="20.923" r="1.602"/>
	<circle fill="none" stroke="#F5F5F5" stroke-miterlimit="10" cx="20.669" cy="26.047" r="1.602"/>
	<circle fill="none" stroke="#F5F5F5" stroke-miterlimit="10" cx="24.398" cy="30.877" r="1.602"/>
	<circle fill="none" stroke="#F5F5F5" stroke-miterlimit="10" cx="28.793" cy="34.727" r="1.602"/>
	<circle fill="none" stroke="#F5F5F5" stroke-miterlimit="10" cx="33.601" cy="37.93" r="1.602"/>
	<circle fill="none" stroke="#F5F5F5" stroke-miterlimit="10" cx="38.99" cy="40" r="1.602"/>
	<circle fill="none" stroke="#F5F5F5" stroke-miterlimit="10" cx="44.409" cy="41.133" r="1.602"/>
	<path fill="none" stroke="#CCCCCC" stroke-width="2" stroke-miterlimit="10" d="M17.926,20.923c0,0,8.132-2.334,8.364-5.168"/>
	<path fill="none" stroke="#CCCCCC" stroke-width="2" stroke-miterlimit="10" d="M20.669,25.959c0,0,7.249-3.87,6.9-6.691"/>
	<path fill="none" stroke="#CCCCCC" stroke-width="2" stroke-miterlimit="10" d="M24.398,30.877c0,0,5.579-4.459,4.813-7.193"/>
	<path fill="none" stroke="#CCCCCC" stroke-width="2" stroke-miterlimit="10" d="M28.793,34.836c0,0,4.113-4.947,2.891-7.51"/>
	<path fill="none" stroke="#CCCCCC" stroke-width="2" stroke-miterlimit="10" d="M33.602,38.155c0,0,3.194-4.991,1.731-7.424"/>
	<path fill="none" stroke="#CCCCCC" stroke-width="2" stroke-miterlimit="10" d="M38.99,40.064c0,0,2.229-4.798,0.557-7.09"/>
	<path fill="none" stroke="#CCCCCC" stroke-width="2" stroke-miterlimit="10" d="M44.409,41.162c0,0,0.95-3.766-0.759-6.028"/>
	<g>
		<g>
			<path fill="none" stroke="#CCCCCC" stroke-width="0.5" stroke-miterlimit="10" d="M1,17.651c0,0,0.167,0.078,0.451,0.206"/>
			<path fill="none" stroke="#CCCCCC" stroke-width="0.5" stroke-miterlimit="10" stroke-dasharray="0.9946,0.9946" d="
				M2.358,18.258c1.562,0.676,4.077,1.692,5.37,1.831c2.836,0.304,7.743-2.615,10.563-2.188c1.237,0.188,8.338,14.266,13.375,16.542
				c5.438,2.457,13.465,4.336,16.813,6.689c1.097,0.771,2.364,2.811,3.04,3.99"/>
			<path fill="none" stroke="#CCCCCC" stroke-width="0.5" stroke-miterlimit="10" d="M51.765,45.562C51.914,45.834,52,46,52,46
				s-0.175-0.027-0.49-0.079"/>
			<path fill="none" stroke="#CCCCCC" stroke-width="0.5" stroke-miterlimit="10" stroke-dasharray="0.9927,0.9927" d="
				M50.533,45.761c-3.719-0.618-13.466-2.315-16.932-3.673c-3.688-1.442-9.482-5.433-12.061-8.438
				c-2.482-2.892-7.12-11.79-8.579-14.639"/>
			<path fill="none" stroke="#CCCCCC" stroke-width="0.5" stroke-miterlimit="10" d="M12.735,18.567
				c-0.145-0.285-0.225-0.443-0.225-0.443"/>
		</g>
	</g>
</g>
</svg>
