<?xml version="1.0" encoding="utf-8"?>
<!-- Generator: Adobe Illustrator 15.0.0, SVG Export Plug-In . SVG Version: 6.00 Build 0)  -->
<!DOCTYPE svg PUBLIC "-//W3C//DTD SVG 1.1//EN" "http://www.w3.org/Graphics/SVG/1.1/DTD/svg11.dtd">
<svg version="1.1" id="Layer_1" xmlns="http://www.w3.org/2000/svg" xmlns:xlink="http://www.w3.org/1999/xlink" x="0px" y="0px"
	 width="64px" height="64px" viewBox="0 0 64 64" enable-background="new 0 0 64 64" xml:space="preserve">
<g>
	<path fill="#D0D0D0" d="M64,59.675C64,62.063,61.795,64,59.076,64H4.924C2.205,64,0,62.063,0,59.675V9.081
		c0-2.389,2.205-4.324,4.924-4.324h54.152C61.795,4.757,64,6.692,64,9.081V59.675z"/>
	<polygon fill="#94989B" points="48.902,9.514 15.098,9.514 18.378,0 45.62,0 	"/>
	<polygon fill="#94989B" points="18.376,2.883 15.098,9.514 27.074,27.243 27.074,15.063 	"/>
	<polygon fill="#94989B" points="45.616,2.883 48.902,9.514 36.92,27.243 36.92,15.063 	"/>
	<polygon fill="#FFFFFF" points="18.378,0 15.098,9.514 27.076,24.36 27.076,12.18 	"/>
	<polygon fill="#FFFFFF" points="45.62,0 48.902,9.514 36.923,24.36 36.923,12.18 	"/>
	<polygon fill="#42ADE2" points="37.744,24.36 26.257,24.36 22.976,56.792 32.062,64 41.026,56.792 	"/>
	<path fill="#428BC1" d="M38.074,27.626l-0.33-3.266H26.257l-0.338,3.327C28.357,29.433,35.476,29.283,38.074,27.626z"/>
	<path fill="#42ADE2" d="M38.563,24.36c-2.179,2.154-11.231,2.353-13.127,0c-2.017-2.502,1.64-12.181,1.64-12.181
		S30.77,13.622,32,13.622s4.923-1.442,4.923-1.442S40.882,22.068,38.563,24.36z"/>
</g>
</svg>
