<?xml version="1.0" encoding="utf-8"?>
<!-- Generator: Adobe Illustrator 15.0.0, SVG Export Plug-In . SVG Version: 6.00 Build 0)  -->
<!DOCTYPE svg PUBLIC "-//W3C//DTD SVG 1.1//EN" "http://www.w3.org/Graphics/SVG/1.1/DTD/svg11.dtd">
<svg version="1.1" id="Layer_1" xmlns="http://www.w3.org/2000/svg" xmlns:xlink="http://www.w3.org/1999/xlink" x="0px" y="0px"
	 width="64px" height="64px" viewBox="0 0 64 64" enable-background="new 0 0 64 64" xml:space="preserve">
<g>
	<g>
		<path fill="#467591" d="M57.004,48.002c-2.135-1.569-2.396-3.097-0.672-3.974c2.816-1.434,4.893-8.916,5.447-12.109
			c4.146-23.873-29.068-23.886-24.924,0c0.555,3.193,2.627,10.676,5.445,12.109c1.736,0.883,1.395,2.335-0.715,4.007
			c-0.703,0.558-10.502,6.019-13.268,7.867c-0.004,0.002-0.014,0.007-0.014,0.007l0.002,0.002c-1.143,0.764-1.955,1.4-2.104,1.743
			C25.414,59.472,25.127,64,25.127,64H64V52.216C60.4,50.024,57.012,48.007,57.004,48.002z"/>
	</g>
	<path fill="#428BC1" d="M30.029,44.159c-2.648-1.947-2.973-3.841-0.836-4.928c3.496-1.779,6.068-11.059,6.758-15.02
		c5.143-29.607-36.051-29.623-30.912,0c0.688,3.961,3.26,13.241,6.754,15.02c2.154,1.094,1.729,2.895-0.887,4.969
		C10.323,44.662,4.691,47.846,0,50.59V64h50.494c0,0-0.352-5.616-1.33-7.87C48.818,55.338,30.049,44.173,30.029,44.159z"/>
</g>
</svg>
