<?xml version="1.0" encoding="utf-8"?>
<!-- Generator: Adobe Illustrator 15.0.0, SVG Export Plug-In . SVG Version: 6.00 Build 0)  -->
<!DOCTYPE svg PUBLIC "-//W3C//DTD SVG 1.1//EN" "http://www.w3.org/Graphics/SVG/1.1/DTD/svg11.dtd">
<svg version="1.1" id="Layer_1" xmlns="http://www.w3.org/2000/svg" xmlns:xlink="http://www.w3.org/1999/xlink" x="0px" y="0px"
	 width="64px" height="64px" viewBox="0 0 64 64" enable-background="new 0 0 64 64" xml:space="preserve">
<g>
	<g>
		<path fill="#231F20" d="M17.488,2C7.47,2,2.001,8.33,2.001,16.67v18.508H32.97V16.67c0-12.396-8.383-12.164-8.383-12.164
			S23.957,2,17.488,2z"/>
		<path fill="#FFDD67" d="M6.444,23.643c0,0-2.23-0.57-2.23-3.869c0-2.613,1.683-3.063,1.683-3.063c6.023,0,15.838-7.83,15.838-7.83
			s3.71,6.912,7.289,7.83c0,0,1.736,0.318,1.736,3.063c0,3.299-2.314,3.869-2.314,3.869c-0.029,4.979-6.83,10.984-10.957,10.984
			C13.357,34.627,6.444,28.621,6.444,23.643z"/>
		<path fill="#EBA352" d="M20.251,25.916c0,1.086-2.249,1.398-2.764,1.398c-0.518,0-2.766-0.385-2.766-1.469
			C14.722,25.846,20.251,25.373,20.251,25.916z"/>
		<g>
			<path fill="#F5F5F5" d="M13.72,21.58c0.65,0,0.564-1.68,0.564-1.68c-1.995-4.459-6.44-1.637-6.44-1.637
				c-1.727,0.771,0.774,3.209,1.176,3.316C10.902,22.09,13.72,21.58,13.72,21.58z"/>
			<g>
				<path fill="#664E27" d="M13.242,19.539c0,1.174-0.95,2.127-2.124,2.127c-1.175,0-2.126-0.953-2.126-2.127
					c0-1.172,0.951-2.125,2.126-2.125C12.292,17.414,13.242,18.367,13.242,19.539z"/>
				<circle fill="#231F20" cx="11.117" cy="19.539" r="0.75"/>
			</g>
			<path fill="#231F20" d="M14.843,20.543c-0.545-0.662-1.083-1.301-1.707-1.787c-0.623-0.48-1.324-0.789-2.082-0.836
				c-0.757-0.074-1.549,0.088-2.371,0.244c-0.412,0.08-0.837,0.158-1.279,0.184c-0.431,0.02-0.947-0.033-1.254-0.361
				c0.405,0.158,0.803,0.074,1.188-0.041c0.389-0.111,0.774-0.271,1.177-0.406c0.796-0.283,1.675-0.516,2.608-0.445
				c0.461,0.045,0.925,0.162,1.345,0.369c0.416,0.211,0.793,0.486,1.102,0.814C14.193,18.932,14.601,19.721,14.843,20.543z"/>
		</g>
		<g>
			<path fill="#F5F5F5" d="M21.252,21.58c-0.651,0-0.565-1.68-0.565-1.68c1.996-4.459,6.441-1.637,6.441-1.637
				c1.727,0.771-0.775,3.209-1.176,3.316C24.071,22.09,21.252,21.58,21.252,21.58z"/>
			<g>
				<path fill="#664E27" d="M25.98,19.539c0,1.174-0.95,2.127-2.126,2.127c-1.173,0-2.124-0.953-2.124-2.127
					c0-1.172,0.951-2.125,2.124-2.125C25.03,17.414,25.98,18.367,25.98,19.539z"/>
				<circle fill="#231F20" cx="23.855" cy="19.539" r="0.75"/>
			</g>
			<path fill="#231F20" d="M20.13,20.543c0.241-0.822,0.649-1.611,1.273-2.266c0.307-0.328,0.686-0.604,1.102-0.814
				c0.419-0.207,0.883-0.324,1.344-0.369c0.934-0.07,1.813,0.162,2.607,0.445c0.402,0.135,0.789,0.295,1.176,0.406
				c0.388,0.115,0.785,0.199,1.189,0.041c-0.307,0.328-0.822,0.381-1.254,0.361c-0.441-0.025-0.867-0.104-1.278-0.184
				c-0.823-0.156-1.615-0.318-2.371-0.244c-0.757,0.047-1.458,0.355-2.082,0.836C21.21,19.242,20.674,19.881,20.13,20.543z"/>
		</g>
		<g>
			<g>
				<path fill="#F09985" d="M19.449,28.576c-0.4-0.1-0.986-0.053-1.76,0.207c-0.069,0.02-0.135,0.043-0.201,0.064
					c-0.069-0.021-0.137-0.045-0.205-0.064c-0.772-0.26-1.359-0.307-1.759-0.207c-1.198,0.291-3.015,0.148-3.015,0.148
					c1.32,1.32,1.948,3.121,4.979,3.121c3.027,0,3.655-1.801,4.976-3.121C22.463,28.725,20.648,28.867,19.449,28.576z"/>
				<path fill="#D47F6C" d="M19.449,28.576c-0.4-0.1-0.986-0.053-1.76,0.207c-0.069,0.02-0.135,0.043-0.201,0.064
					c-0.069-0.021-0.137-0.045-0.205-0.064c-0.772-0.26-1.359-0.307-1.759-0.207c-1.178,0.285-3.021,0.148-3.015,0.148
					c1.992,0.359,2.24,1.377,4.979,1.377c2.734,0,2.982-1.018,4.976-1.377C22.47,28.725,20.625,28.861,19.449,28.576z"/>
			</g>
		</g>
	</g>
	<g>
		<g>
			<g>
				<path fill="#231F20" d="M31.896,17.32l1.508,2.756h26.225l1.143-2.943c0-10.553-2.453-15.023-14.131-15.131
					C34.846,1.893,31.896,6.576,31.896,17.32z"/>
				<path fill="#FFDD67" d="M59.684,17.141c-0.094,0.609-0.219,1.182-0.391,1.506c-0.309,0.58-0.939,0.91-0.939,0.91
					s0.17-1.178,0.109-2.826c-0.656-9.727-1.227-7.055-11.945-7.055c-10.715,0-11.285-2.668-11.945,7.041
					c-0.061,1.656,0.109,2.84,0.109,2.84s-0.633-0.33-0.939-0.91c-0.172-0.324-0.297-0.896-0.389-1.506
					c-1.012-0.266-2.319-0.043-2.319,2.877c0,1.816,0.666,3.307,2.911,3.469c0.955,7.365,3.803,8.563,9.527,11.178
					c1.506,0.688,4.586,0.688,6.092,0c5.725-2.615,8.57-3.813,9.527-11.178c2.244-0.162,2.91-1.652,2.91-3.469
					C62.002,17.098,60.695,16.875,59.684,17.141z"/>
			</g>
			<g>
				<g>
					<path fill="#574137" d="M52.289,27.734c0,1.887-2.527,3.473-5.648,3.473c-3.117,0-5.645-1.586-5.645-3.473
						c0,0,3.004,0.168,5.646,0.168S52.289,27.734,52.289,27.734z"/>
				</g>
				<path fill="#FFFFFF" d="M51.813,28c0,0.953-2.314,1.707-5.17,1.707S41.475,28.953,41.475,28c0,0,2.441,0.189,5.168,0.189
					C49.371,28.189,51.813,28,51.813,28z"/>
			</g>
			<path fill="#EBA352" d="M49.467,25.168c0,1.1-2.297,1.416-2.826,1.416c-0.527,0-2.82-0.389-2.82-1.486
				C43.82,25.098,49.467,24.623,49.467,25.168z"/>
		</g>
		<g>
			<g>
				<path fill="#F5F5F5" d="M36.086,17.52c-0.18,0.838-0.395,2.943,3.58,2.869c4.113-0.078,3.951,0.277,4.152-1.113
					c0.174-1.217-1.27-2.568-3.404-3.053C38.279,15.736,36.338,16.318,36.086,17.52z"/>
				<g>
					<ellipse fill="#664E27" cx="40.319" cy="18.139" rx="2.171" ry="2.15"/>
					<path fill="#231F20" d="M41.07,18.139c0,0.412-0.336,0.742-0.748,0.742c-0.418,0-0.752-0.33-0.752-0.742
						s0.334-0.744,0.752-0.744C40.734,17.395,41.07,17.727,41.07,18.139z"/>
				</g>
				<path fill="#664E27" d="M36.006,18.336c-0.578-3.734,7.795-3.535,7.795,0.441C42.592,15.613,36.818,15.504,36.006,18.336z"/>
			</g>
			<g>
				<path fill="#F5F5F5" d="M56.951,17.52c0.178,0.838,0.393,2.943-3.582,2.869c-4.113-0.078-3.951,0.277-4.152-1.113
					c-0.174-1.217,1.27-2.568,3.404-3.053C54.758,15.736,56.697,16.318,56.951,17.52z"/>
				<g>
					<ellipse fill="#664E27" cx="52.715" cy="18.139" rx="2.17" ry="2.15"/>
					<ellipse fill="#231F20" cx="52.715" cy="18.139" rx="0.75" ry="0.744"/>
				</g>
				<path fill="#664E27" d="M57.029,18.336c0.578-3.734-7.795-3.535-7.795,0.441C50.443,15.613,56.217,15.504,57.029,18.336z"/>
			</g>
		</g>
	</g>
	<g>
		<g>
			<g>
				<path fill="#231F20" d="M40.096,58.113c-0.613,6.691-6.852,2.939-7.459,1.867c-2.016-3.543,1.237-10.018,3.454-10.018
					C38.301,49.963,40.506,53.65,40.096,58.113z"/>
				<path fill="#231F20" d="M52.941,58.113c0.613,6.691,6.852,2.939,7.459,1.867c2.016-3.543-1.238-10.018-3.451-10.018
					C54.734,49.963,52.529,53.65,52.941,58.113z"/>
			</g>
		</g>
		<path fill="#231F20" d="M46.367,32.967c8.33,0,13.463,5.098,13.463,11.432v4.252c0,5.002-3.627,5.002-3.625,5.002H36.012
			c0.002,0-3.108,0-3.108-5.002c0-2.355,0-4.252,0-4.252C32.904,38.064,38.311,32.967,46.367,32.967z"/>
		<path fill="#C28FEF" d="M46.367,35.096c-7.238,0-12.096,3.703-12.096,8.303c0,0,0,0.545,0,1.375c0-4.602,4.857-8.305,12.096-8.305
			c7.484,0,12.096,3.703,12.096,8.305v-1.375C58.463,38.799,53.852,35.096,46.367,35.096z"/>
		<path fill="#FFDD67" d="M58.783,52.439c0,0,1.615,0.393,1.615-1.924c0-1.836-2.107-1.715-2.107-1.715v-2.516H39.053
			c-0.918-1.977,0.113-4.016,0.113-4.016c-1.855,1.707-1.563,4.016-1.563,4.016h-3.135v2.516c0,0-2.133-0.211-2.133,1.715
			c0,2.316,1.696,1.924,1.696,1.924c0,3.459,3.625,7.248,12.586,7.248C55.107,59.688,58.783,56.59,58.783,52.439z"/>
		<g>
			<path opacity="0.5" fill="#FF717F" d="M58.254,53.971c-0.172-1.242-1.588-1.99-3.162-1.67c-1.576,0.318-2.717,1.584-2.545,2.824
				c0.172,1.242,1.586,1.99,3.162,1.67C57.285,56.477,58.424,55.211,58.254,53.971z"/>
			<path opacity="0.5" fill="#FF717F" d="M37.945,52.301c-1.574-0.32-2.99,0.428-3.16,1.67c-0.172,1.24,0.967,2.506,2.541,2.824
				c1.576,0.32,2.99-0.428,3.16-1.67C40.66,53.885,39.52,52.619,37.945,52.301z"/>
			<path fill="#574137" d="M42.979,54.941c-0.066,0.076-0.102,0.176-0.102,0.295c-0.002,0.818,1.623,1.822,3.629,1.822
				c2.002,0,3.629-0.998,3.629-1.816c0-0.109-0.033-0.225-0.088-0.301c0,0-1.568,0.705-3.541,0.705S42.979,54.941,42.979,54.941z"/>
			<g>
				<ellipse fill="#FFFFFF" cx="52.398" cy="49.852" rx="3.301" ry="3.336"/>
				<ellipse fill="#FFFFFF" cx="40.609" cy="49.852" rx="3.299" ry="3.336"/>
				<g>
					<circle fill="#664E27" cx="52.398" cy="49.852" r="2.299"/>
					<path fill="#231F20" d="M53.148,49.85c0,0.416-0.338,0.752-0.75,0.752c-0.414,0-0.75-0.336-0.75-0.752
						c0-0.412,0.336-0.746,0.75-0.746C52.811,49.104,53.148,49.438,53.148,49.85z"/>
				</g>
				<g>
					<circle fill="#664E27" cx="40.608" cy="49.852" r="2.298"/>
					<path fill="#231F20" d="M41.357,49.85c0,0.416-0.334,0.752-0.75,0.752c-0.414,0-0.75-0.336-0.75-0.752
						c0-0.412,0.336-0.748,0.75-0.748C41.023,49.102,41.357,49.438,41.357,49.85z"/>
				</g>
			</g>
		</g>
	</g>
	<g>
		<path fill="#231F20" d="M17.486,32.967c8.517,0,13.763,4.775,13.763,10.707v3.982c0,4.684-3.706,4.686-3.705,4.684H6.899
			c0.001,0.002-3.177,0-3.177-4.684c0-2.205,0-3.982,0-3.982C3.722,37.742,9.25,32.967,17.486,32.967z"/>
		<path fill="#FFDD67" d="M29.95,48.701l-0.515-5.65c0-3.611-5.666-0.729-11.949-0.729s-11.95-2.883-11.95,0.729l-0.513,5.65
			c-2.737,0-2.737,4.445,0,4.445c0,5.514,7.417,8.852,12.463,8.852c5.045,0,12.464-3.338,12.464-8.852
			C32.685,53.146,32.685,48.701,29.95,48.701z"/>
		<g opacity="0.5">
			<path fill="#FF717F" d="M29.221,54.295c-0.171-1.242-1.587-1.99-3.162-1.67c-1.576,0.318-2.716,1.584-2.544,2.824
				c0.171,1.242,1.586,1.99,3.162,1.67C28.252,56.801,29.391,55.535,29.221,54.295z"/>
			<path fill="#FF717F" d="M8.912,52.625c-1.576-0.32-2.992,0.428-3.162,1.67c-0.17,1.24,0.969,2.506,2.543,2.824
				c1.576,0.32,2.99-0.428,3.162-1.67C11.625,54.209,10.487,52.943,8.912,52.625z"/>
		</g>
		<path fill="#574137" d="M13.958,55.264c-0.066,0.078-0.102,0.176-0.102,0.297c-0.002,0.818,1.624,1.822,3.629,1.822
			c2.004,0,3.629-0.998,3.629-1.816c0-0.109-0.031-0.225-0.086-0.303c0,0-1.568,0.707-3.543,0.707
			C15.515,55.971,13.958,55.264,13.958,55.264z"/>
		<g>
			<g>
				<circle fill="#FFFFFF" cx="23.623" cy="49.207" r="3.629"/>
				<g>
					<ellipse fill="#664E27" cx="23.623" cy="49.207" rx="2.528" ry="2.5"/>
					<ellipse fill="#231F20" cx="23.622" cy="49.207" rx="0.85" ry="0.842"/>
				</g>
			</g>
			<g>
				<circle fill="#FFFFFF" cx="11.349" cy="49.207" r="3.629"/>
				<g>
					<ellipse fill="#664E27" cx="11.349" cy="49.207" rx="2.527" ry="2.5"/>
					<ellipse fill="#231F20" cx="11.348" cy="49.207" rx="0.851" ry="0.842"/>
				</g>
			</g>
		</g>
	</g>
</g>
</svg>
