<?xml version="1.0" encoding="utf-8"?>
<!-- Generator: Adobe Illustrator 15.0.0, SVG Export Plug-In . SVG Version: 6.00 Build 0)  -->
<!DOCTYPE svg PUBLIC "-//W3C//DTD SVG 1.1//EN" "http://www.w3.org/Graphics/SVG/1.1/DTD/svg11.dtd">
<svg version="1.1" id="Layer_1" xmlns="http://www.w3.org/2000/svg" xmlns:xlink="http://www.w3.org/1999/xlink" x="0px" y="0px"
	 width="64px" height="64px" viewBox="0 0 64 64" enable-background="new 0 0 64 64" xml:space="preserve">
<g>
	<g>
		<g>
			<g>
				<path fill="#231F20" d="M39.685,30.931c0.155,1.049,0.366,2.035,0.658,2.594c0.523,1,1.593,1.568,1.593,1.568
					s-0.288-2.039-0.184-4.891c1.118-16.723,2.085-12.125,20.25-12.125V4.858c-19.821-0.127-24.786,7.945-24.786,26.383l0.003,0.004
					C37.964,30.694,38.878,30.716,39.685,30.931z"/>
				<path fill="#FFDD67" d="M52.641,49.175c0,0,4.931,0.281,9.361,0.289v-2.279c-1.173-0.084-4.574-0.783-4.574-2.551
					c0,0,2.254-0.191,4.574-0.283v-8.363H39.772l-2.554-4.742c-0.842,0.621-1.467,1.973-1.467,4.639
					c0,3.131,1.129,5.699,4.935,5.975c1.62,12.688,6.45,14.748,16.152,19.252c1.276,0.592,3.22,0.887,5.163,0.889v-6.848
					C56.814,55.077,52.641,52.382,52.641,49.175z"/>
				<path fill="#FFDD67" d="M62.002,35.987v-17.91c-18.165,0-19.132-4.598-20.25,12.125c-0.104,2.852,0.184,4.891,0.184,4.891
					s-1.069-0.568-1.593-1.568c-0.292-0.559-0.503-1.545-0.658-2.594c-0.807-0.215-1.721-0.236-2.466,0.314l2.554,4.742H62.002z"/>
				<path fill="#574137" d="M62.002,55.151v-2.582c-4.741-0.037-8.553-1.32-8.553-2.938c0,0,4.016,0.318,8.553,0.328v-0.496
					c-4.431-0.008-9.361-0.289-9.361-0.289C52.641,52.382,56.814,55.077,62.002,55.151z"/>
				<path fill="#FFFFFF" d="M53.449,49.632c0,1.617,3.812,2.9,8.553,2.938V49.96C57.465,49.95,53.449,49.632,53.449,49.632z"/>
				<path fill="#EBA352" d="M62.002,47.185v-2.834c-2.32,0.092-4.574,0.283-4.574,0.283C57.428,46.401,60.829,47.101,62.002,47.185z
					"/>
			</g>
			<g>
				<g>
					<path fill="#F5F5F5" d="M44.314,31.583c-0.304,1.445-0.664,5.068,6.07,4.941c6.979-0.135,6.701,0.477,7.04-1.918
						c0.295-2.094-2.151-4.422-5.771-5.258C48.034,28.513,44.747,29.517,44.314,31.583z"/>
					<g>
						<ellipse fill="#664E27" cx="51.495" cy="32.649" rx="3.68" ry="3.703"/>
						<ellipse fill="#231F20" cx="51.494" cy="32.649" rx="1.25" ry="1.258"/>
					</g>
					<path fill="#664E27" d="M44.183,32.987c-0.981-6.428,13.214-6.086,13.214,0.76C55.345,28.3,45.56,28.112,44.183,32.987z"/>
				</g>
			</g>
		</g>
		<g>
			<g>
				<path fill="#231F20" d="M24.319,30.931c-0.155,1.049-0.366,2.035-0.658,2.594c-0.523,1-1.593,1.568-1.593,1.568
					s0.288-2.039,0.184-4.891c-1.118-16.723-2.085-12.125-20.25-12.125V4.858c19.821-0.127,24.786,7.945,24.786,26.383l-0.003,0.004
					C26.04,30.694,25.126,30.716,24.319,30.931z"/>
				<path fill="#FFDD67" d="M11.363,49.175c0,0-4.931,0.281-9.361,0.289v-2.279c1.173-0.084,4.574-0.783,4.574-2.551
					c0,0-2.254-0.191-4.574-0.283v-8.363h22.229l2.554-4.742c0.842,0.621,1.467,1.973,1.467,4.639c0,3.131-1.129,5.699-4.935,5.975
					c-1.62,12.688-6.45,14.748-16.152,19.252c-1.276,0.592-3.22,0.887-5.163,0.889v-6.848C7.189,55.077,11.363,52.382,11.363,49.175
					z"/>
				<path fill="#FFDD67" d="M2.002,35.987v-17.91c18.165,0,19.132-4.598,20.25,12.125c0.104,2.852-0.184,4.891-0.184,4.891
					s1.069-0.568,1.593-1.568c0.292-0.559,0.503-1.545,0.658-2.594c0.807-0.215,1.721-0.236,2.466,0.314l-2.554,4.742H2.002z"/>
				<path fill="#574137" d="M2.002,55.151v-2.582c4.741-0.037,8.553-1.32,8.553-2.938c0,0-4.016,0.318-8.553,0.328v-0.496
					c4.431-0.008,9.361-0.289,9.361-0.289C11.363,52.382,7.189,55.077,2.002,55.151z"/>
				<path fill="#FFFFFF" d="M10.555,49.632c0,1.617-3.812,2.9-8.553,2.938V49.96C6.539,49.95,10.555,49.632,10.555,49.632z"/>
				<path fill="#EBA352" d="M2.002,47.185v-2.834c2.32,0.092,4.574,0.283,4.574,0.283C6.576,46.401,3.175,47.101,2.002,47.185z"/>
			</g>
			<g>
				<g>
					<path fill="#F5F5F5" d="M19.689,31.583c0.304,1.445,0.664,5.068-6.07,4.941c-6.979-0.135-6.701,0.477-7.04-1.918
						c-0.295-2.094,2.151-4.422,5.771-5.258C15.97,28.513,19.257,29.517,19.689,31.583z"/>
					<g>
						<ellipse fill="#664E27" cx="12.51" cy="32.649" rx="3.68" ry="3.703"/>
						<ellipse fill="#231F20" cx="12.509" cy="32.649" rx="1.25" ry="1.258"/>
					</g>
					<path fill="#664E27" d="M19.821,32.987c0.981-6.428-13.214-6.086-13.214,0.76C8.659,28.3,18.444,28.112,19.821,32.987z"/>
				</g>
			</g>
		</g>
	</g>
	<path fill="#E84D88" d="M49.542,8.317C45.564-2.204,32.65,2.517,31.456,7.771c-1.643-5.6-14.236-9.775-18.08,0.553
		c-4.28,11.508,16.588,21.838,18.08,23.529C32.95,30.507,53.817,19.64,49.542,8.317z"/>
</g>
</svg>
