<?xml version="1.0" encoding="utf-8"?>
<!-- Generator: Adobe Illustrator 15.0.0, SVG Export Plug-In . SVG Version: 6.00 Build 0)  -->
<!DOCTYPE svg PUBLIC "-//W3C//DTD SVG 1.1//EN" "http://www.w3.org/Graphics/SVG/1.1/DTD/svg11.dtd">
<svg version="1.1" id="Layer_1" xmlns="http://www.w3.org/2000/svg" xmlns:xlink="http://www.w3.org/1999/xlink" x="0px" y="0px"
	 width="64px" height="64px" viewBox="0 0 64 64" enable-background="new 0 0 64 64" xml:space="preserve">
<g>
	<g>
		<g>
			<g>
				<g>
					<path fill="#231F20" d="M2.864,17.319l1.508,2.756h26.226l1.142-2.943C31.739,6.579,29.286,2.108,17.608,2
						C5.813,1.891,2.864,6.575,2.864,17.319z"/>
					<path fill="#FFDD67" d="M30.65,17.139c-0.093,0.609-0.218,1.182-0.39,1.506c-0.31,0.582-0.939,0.912-0.939,0.912
						s0.17-1.178,0.11-2.826c-0.658-9.729-1.228-7.055-11.946-7.055C6.771,9.676,6.2,7.006,5.54,16.717
						c-0.061,1.654,0.107,2.84,0.107,2.84s-0.631-0.33-0.939-0.912c-0.172-0.324-0.296-0.896-0.387-1.506
						c-1.014-0.266-2.319-0.043-2.319,2.877c0,1.818,0.665,3.309,2.911,3.469c0.954,7.365,3.803,8.564,9.525,11.177
						c1.507,0.689,4.588,0.689,6.094,0c5.724-2.613,8.57-3.812,9.527-11.177c2.244-0.16,2.91-1.65,2.91-3.469
						C32.97,17.096,31.663,16.874,30.65,17.139z"/>
				</g>
				<g>
					<g>
						<path fill="#574137" d="M23.257,27.733c0,1.889-2.527,3.475-5.648,3.475c-3.118,0-5.646-1.586-5.646-3.475
							c0,0,3.003,0.168,5.647,0.168C20.253,27.901,23.257,27.733,23.257,27.733z"/>
					</g>
					<path fill="#FFFFFF" d="M22.78,27.999c0,0.953-2.313,1.707-5.17,1.707c-2.855,0-5.17-0.754-5.17-1.707
						c0,0,2.443,0.191,5.17,0.191C20.338,28.19,22.78,27.999,22.78,27.999z"/>
				</g>
				<path fill="#EBA352" d="M20.435,25.167c0,1.1-2.297,1.416-2.826,1.416c-0.527,0-2.822-0.389-2.822-1.484
					C14.786,25.098,20.435,24.622,20.435,25.167z"/>
			</g>
			<g>
				<g>
					<path fill="#F5F5F5" d="M7.052,17.52c-0.179,0.838-0.393,2.941,3.58,2.867c4.115-0.078,3.953,0.277,4.152-1.113
						c0.175-1.215-1.268-2.566-3.403-3.053C9.247,15.735,7.306,16.319,7.052,17.52z"/>
					<g>
						<ellipse fill="#664E27" cx="11.287" cy="18.137" rx="2.171" ry="2.15"/>
						<ellipse fill="#231F20" cx="11.287" cy="18.137" rx="0.75" ry="0.744"/>
					</g>
					<path fill="#664E27" d="M6.974,18.334c-0.579-3.732,7.794-3.535,7.794,0.441C13.558,15.612,7.786,15.502,6.974,18.334z"/>
				</g>
				<g>
					<path fill="#F5F5F5" d="M27.919,17.52c0.178,0.838,0.392,2.941-3.582,2.867c-4.114-0.078-3.951,0.277-4.152-1.113
						c-0.174-1.215,1.269-2.566,3.404-3.053S27.664,16.319,27.919,17.52z"/>
					<g>
						<ellipse fill="#664E27" cx="23.683" cy="18.137" rx="2.171" ry="2.15"/>
						<ellipse fill="#231F20" cx="23.683" cy="18.137" rx="0.75" ry="0.744"/>
					</g>
					<path fill="#664E27" d="M27.997,18.334c0.578-3.732-7.795-3.535-7.795,0.441C21.411,15.612,27.185,15.502,27.997,18.334z"/>
				</g>
			</g>
		</g>
		<g>
			<g>
				<g>
					<path fill="#231F20" d="M31.896,17.319l1.509,2.756H59.63l1.142-2.943c0-10.553-2.453-15.023-14.13-15.131
						C34.845,1.891,31.896,6.575,31.896,17.319z"/>
					<path fill="#FFDD67" d="M59.683,17.139c-0.092,0.609-0.217,1.182-0.389,1.506c-0.311,0.582-0.939,0.912-0.939,0.912
						s0.17-1.178,0.109-2.826c-0.658-9.729-1.227-7.055-11.945-7.055c-10.716,0-11.286-2.67-11.946,7.041
						c-0.06,1.654,0.108,2.84,0.108,2.84s-0.632-0.33-0.939-0.912c-0.172-0.324-0.297-0.896-0.388-1.506
						c-1.013-0.266-2.319-0.043-2.319,2.877c0,1.818,0.666,3.309,2.91,3.469c0.955,7.365,3.804,8.564,9.527,11.177
						c1.506,0.689,4.587,0.689,6.094,0c5.723-2.613,8.569-3.812,9.525-11.177c2.246-0.16,2.911-1.65,2.911-3.469
						C62.002,17.096,60.696,16.874,59.683,17.139z"/>
				</g>
				<g>
					<g>
						<path fill="#574137" d="M52.288,27.733c0,1.889-2.526,3.475-5.646,3.475c-3.119,0-5.646-1.586-5.646-3.475
							c0,0,3.004,0.168,5.647,0.168C49.285,27.901,52.288,27.733,52.288,27.733z"/>
					</g>
					<path fill="#FFFFFF" d="M51.813,27.999c0,0.953-2.313,1.707-5.17,1.707c-2.855,0-5.169-0.754-5.169-1.707
						c0,0,2.441,0.191,5.169,0.191S51.813,27.999,51.813,27.999z"/>
				</g>
				<path fill="#EBA352" d="M49.467,25.167c0,1.1-2.297,1.416-2.825,1.416c-0.527,0-2.822-0.389-2.822-1.484
					C43.819,25.098,49.467,24.622,49.467,25.167z"/>
			</g>
			<g>
				<g>
					<path fill="#F5F5F5" d="M36.085,17.52c-0.18,0.838-0.394,2.941,3.58,2.867c4.114-0.078,3.951,0.277,4.152-1.113
						c0.174-1.215-1.269-2.566-3.404-3.053C38.279,15.735,36.338,16.319,36.085,17.52z"/>
					<g>
						<ellipse fill="#664E27" cx="40.319" cy="18.137" rx="2.171" ry="2.15"/>
						<path fill="#231F20" d="M41.069,18.137c0,0.412-0.336,0.744-0.749,0.744c-0.417,0-0.751-0.332-0.751-0.744
							s0.334-0.744,0.751-0.744C40.733,17.393,41.069,17.725,41.069,18.137z"/>
					</g>
					<path fill="#664E27" d="M36.005,18.334c-0.578-3.732,7.795-3.535,7.795,0.441C42.591,15.612,36.817,15.502,36.005,18.334z"/>
				</g>
				<g>
					<path fill="#F5F5F5" d="M56.952,17.52c0.178,0.838,0.391,2.941-3.582,2.867c-4.115-0.078-3.953,0.277-4.152-1.113
						c-0.174-1.215,1.268-2.566,3.403-3.053S56.696,16.319,56.952,17.52z"/>
					<g>
						<ellipse fill="#664E27" cx="52.715" cy="18.137" rx="2.171" ry="2.15"/>
						<ellipse fill="#231F20" cx="52.715" cy="18.137" rx="0.75" ry="0.744"/>
					</g>
					<path fill="#664E27" d="M57.029,18.334c0.578-3.732-7.795-3.535-7.795,0.441C50.444,15.612,56.216,15.502,57.029,18.334z"/>
				</g>
			</g>
		</g>
	</g>
	<g>
		<g>
			<g>
				<path fill="#231F20" d="M25.58,58.113c-0.614,6.691-6.854,2.939-7.462,1.867c-2.016-3.543,1.238-10.018,3.453-10.018
					C23.784,49.963,25.99,53.648,25.58,58.113z"/>
				<path fill="#231F20" d="M38.426,58.113c0.614,6.691,6.852,2.939,7.46,1.867c2.016-3.543-1.238-10.018-3.451-10.018
					C40.22,49.963,38.014,53.648,38.426,58.113z"/>
			</g>
		</g>
		<path fill="#231F20" d="M31.852,32.967c8.33,0,13.464,5.097,13.464,11.431v4.252c0,5-3.627,5.002-3.625,5H21.493
			c0.002,0.002-3.106,0-3.106-5c0-2.357,0-4.252,0-4.252C18.387,38.064,23.794,32.967,31.852,32.967z"/>
		<path fill="#C28FEF" d="M31.852,35.094c-7.239,0-12.099,3.705-12.099,8.305c0,0,0,0.543,0,1.373c0-4.6,4.859-8.303,12.099-8.303
			c7.485,0,12.097,3.703,12.097,8.303v-1.373C43.948,38.799,39.337,35.094,31.852,35.094z"/>
		<path fill="#FFDD67" d="M44.269,52.439c0,0,1.615,0.391,1.615-1.926c0-1.834-2.107-1.713-2.107-1.713v-2.518H24.537
			c-0.921-1.977,0.113-4.014,0.113-4.014c-1.858,1.705-1.565,4.014-1.565,4.014h-3.133v2.518c0,0-2.135-0.211-2.135,1.713
			c0,2.316,1.695,1.926,1.695,1.926c0,3.459,3.625,7.248,12.588,7.248C40.592,59.688,44.269,56.59,44.269,52.439z"/>
		<g>
			<path opacity="0.5" fill="#FF717F" d="M43.739,53.971c-0.173-1.242-1.588-1.99-3.162-1.672c-1.577,0.318-2.717,1.584-2.545,2.826
				c0.17,1.24,1.586,1.99,3.162,1.67C42.769,56.477,43.909,55.211,43.739,53.971z"/>
			<path opacity="0.5" fill="#FF717F" d="M23.427,52.299c-1.574-0.318-2.989,0.43-3.16,1.672c-0.172,1.24,0.969,2.506,2.543,2.824
				c1.576,0.32,2.992-0.43,3.162-1.67C26.144,53.883,25.004,52.617,23.427,52.299z"/>
			<path fill="#574137" d="M28.463,54.939c-0.066,0.076-0.103,0.176-0.103,0.297c-0.002,0.818,1.624,1.822,3.629,1.822
				c2.004,0,3.629-0.998,3.629-1.816c0-0.111-0.031-0.227-0.086-0.303c0,0-1.569,0.707-3.543,0.707
				C30.019,55.646,28.463,54.939,28.463,54.939z"/>
			<g>
				<ellipse fill="#FFFFFF" cx="37.883" cy="49.852" rx="3.3" ry="3.336"/>
				<ellipse fill="#FFFFFF" cx="26.092" cy="49.852" rx="3.3" ry="3.336"/>
				<g>
					<circle fill="#664E27" cx="37.883" cy="49.852" r="2.298"/>
					<circle fill="#231F20" cx="37.882" cy="49.852" r="0.75"/>
				</g>
				<g>
					<circle fill="#664E27" cx="26.092" cy="49.852" r="2.298"/>
					<circle fill="#231F20" cx="26.093" cy="49.852" r="0.75"/>
				</g>
			</g>
		</g>
	</g>
</g>
</svg>
