<?xml version="1.0" encoding="utf-8"?>
<!-- Generator: Adobe Illustrator 15.0.0, SVG Export Plug-In . SVG Version: 6.00 Build 0)  -->
<!DOCTYPE svg PUBLIC "-//W3C//DTD SVG 1.1//EN" "http://www.w3.org/Graphics/SVG/1.1/DTD/svg11.dtd">
<svg version="1.1" id="Layer_1" xmlns="http://www.w3.org/2000/svg" xmlns:xlink="http://www.w3.org/1999/xlink" x="0px" y="0px"
	 width="64px" height="64px" viewBox="0 0 64 64" enable-background="new 0 0 64 64" xml:space="preserve">
<g>
	<path fill="#231F20" d="M32.003,1.998c-18.111,0-28.001,11.449-28.001,26.527v33.473h56V28.525
		c0-22.413-15.159-21.996-15.159-21.996S43.702,1.998,32.003,1.998z"/>
	<path fill="#8A6859" d="M12.034,41.137c0,0-4.032-1.031-4.032-6.998c0-4.727,3.039-5.538,3.039-5.538
		c10.896,0,28.642-14.157,28.642-14.157s6.709,12.5,13.185,14.157c0,0,3.135,0.578,3.135,5.538c0,5.967-4.183,6.998-4.183,6.998
		c-0.057,9.002-12.351,19.861-19.816,19.861C24.536,60.998,12.034,50.139,12.034,41.137z"/>
	<path fill="#705041" d="M37.003,45.246c0,1.963-4.066,2.529-5,2.529s-5-0.695-5-2.656C27.003,45.119,37.003,44.268,37.003,45.246z"
		/>
	<g>
		<path fill="#F5F5F5" d="M25.192,37.406c1.176,0,1.02-3.037,1.02-3.037c-3.607-8.062-11.645-2.96-11.645-2.96
			c-3.124,1.396,1.4,5.804,2.125,5.998C20.097,38.328,25.192,37.406,25.192,37.406z"/>
		<g>
			<circle fill="#664E27" cx="20.485" cy="33.717" r="3.844"/>
			<circle fill="#231F20" cx="20.485" cy="33.717" r="1.25"/>
		</g>
		<path fill="#231F20" d="M27.222,35.531c-0.983-1.199-1.955-2.353-3.086-3.231c-1.129-0.873-2.396-1.426-3.766-1.513
			c-1.367-0.132-2.801,0.16-4.287,0.441c-0.744,0.145-1.512,0.288-2.313,0.333c-0.777,0.032-1.713-0.06-2.269-0.655
			c0.733,0.291,1.452,0.137,2.149-0.072c0.703-0.204,1.4-0.491,2.129-0.736c1.439-0.511,3.029-0.932,4.715-0.804
			c0.834,0.083,1.674,0.294,2.434,0.667c0.752,0.384,1.434,0.88,1.991,1.476C26.048,32.616,26.785,34.044,27.222,35.531z"/>
	</g>
	<g>
		<path fill="#F5F5F5" d="M38.812,37.406c-1.176,0-1.02-3.037-1.02-3.037c3.607-8.062,11.645-2.96,11.645-2.96
			c3.125,1.396-1.4,5.804-2.125,5.998C43.909,38.328,38.812,37.406,38.812,37.406z"/>
		<g>
			<circle fill="#664E27" cx="43.519" cy="33.717" r="3.844"/>
			<circle fill="#231F20" cx="43.519" cy="33.717" r="1.25"/>
		</g>
		<path fill="#231F20" d="M36.784,35.531c0.437-1.487,1.173-2.915,2.302-4.095c0.558-0.596,1.239-1.092,1.991-1.476
			c0.76-0.372,1.598-0.584,2.432-0.667c1.688-0.127,3.277,0.293,4.717,0.804c0.727,0.245,1.424,0.533,2.127,0.736
			c0.697,0.208,1.416,0.362,2.148,0.072c-0.555,0.596-1.49,0.688-2.266,0.655c-0.803-0.045-1.57-0.188-2.314-0.333
			c-1.486-0.281-2.92-0.573-4.287-0.441c-1.367,0.087-2.637,0.64-3.766,1.513C38.739,33.179,37.768,34.332,36.784,35.531z"/>
	</g>
	<g>
		<g>
			<path fill="#7D5442" d="M35.554,50.057c-0.727-0.178-1.787-0.094-3.186,0.375c-0.123,0.037-0.244,0.078-0.365,0.117
				c-0.123-0.039-0.244-0.08-0.367-0.117c-1.398-0.469-2.459-0.553-3.184-0.375c-2.166,0.527-5.449,0.27-5.449,0.27
				c2.387,2.387,3.521,5.645,9,5.645c5.477,0,6.611-3.258,8.998-5.645C41.001,50.326,37.718,50.584,35.554,50.057z"/>
			<path fill="#5C3F34" d="M35.554,50.057c-0.727-0.178-1.787-0.094-3.186,0.375c-0.123,0.037-0.244,0.078-0.365,0.117
				c-0.123-0.039-0.244-0.08-0.367-0.117c-1.398-0.469-2.459-0.553-3.184-0.375c-2.127,0.518-5.461,0.268-5.449,0.27
				c3.602,0.648,4.051,2.488,9,2.488c4.947,0,5.396-1.84,8.998-2.488C41.013,50.324,37.679,50.574,35.554,50.057z"/>
		</g>
	</g>
</g>
</svg>
