<?xml version="1.0" encoding="utf-8"?>
<!-- Generator: Adobe Illustrator 15.0.0, SVG Export Plug-In . SVG Version: 6.00 Build 0)  -->
<!DOCTYPE svg PUBLIC "-//W3C//DTD SVG 1.1//EN" "http://www.w3.org/Graphics/SVG/1.1/DTD/svg11.dtd">
<svg version="1.1" id="Layer_1" xmlns="http://www.w3.org/2000/svg" xmlns:xlink="http://www.w3.org/1999/xlink" x="0px" y="0px"
	 width="64px" height="64px" viewBox="0 0 64 64" enable-background="new 0 0 64 64" xml:space="preserve">
<g>
	<g>
		<g>
			<path fill="#231F20" d="M17.487,2C7.47,2,2.002,8.33,2.002,16.667v18.511h30.967V16.667c0-12.395-8.381-12.162-8.381-12.162
				S23.957,2,17.487,2z"/>
			<path fill="#FFDD67" d="M6.444,23.642c0,0-2.23-0.57-2.23-3.871c0-2.611,1.682-3.061,1.682-3.061c6.024,0,15.84-7.83,15.84-7.83
				s3.709,6.912,7.29,7.83c0,0,1.733,0.318,1.733,3.061c0,3.301-2.313,3.871-2.313,3.871c-0.031,4.979-6.83,10.984-10.959,10.984
				C13.357,34.626,6.444,28.621,6.444,23.642z"/>
			<path fill="#EBA352" d="M20.252,25.916c0,1.086-2.25,1.398-2.766,1.398s-2.764-0.385-2.764-1.469
				C14.723,25.845,20.252,25.373,20.252,25.916z"/>
			<g>
				<path fill="#F5F5F5" d="M13.719,21.58c0.652,0,0.565-1.68,0.565-1.68c-1.995-4.459-6.44-1.637-6.44-1.637
					c-1.727,0.771,0.773,3.209,1.175,3.316C10.903,22.089,13.719,21.58,13.719,21.58z"/>
				<g>
					<circle fill="#664E27" cx="11.117" cy="19.539" r="2.125"/>
					<path fill="#231F20" d="M11.867,19.539c0,0.416-0.335,0.748-0.749,0.748c-0.416,0-0.751-0.332-0.751-0.748
						c0-0.414,0.335-0.748,0.751-0.748C11.532,18.791,11.867,19.125,11.867,19.539z"/>
				</g>
				<path fill="#231F20" d="M14.842,20.542c-0.543-0.662-1.082-1.301-1.705-1.787c-0.625-0.48-1.326-0.789-2.082-0.836
					c-0.758-0.074-1.551,0.088-2.373,0.244c-0.41,0.08-0.836,0.158-1.278,0.184c-0.431,0.018-0.946-0.033-1.254-0.363
					c0.404,0.16,0.802,0.076,1.188-0.039c0.389-0.111,0.774-0.271,1.177-0.406c0.796-0.283,1.675-0.516,2.608-0.445
					c0.461,0.045,0.924,0.162,1.345,0.369c0.416,0.211,0.793,0.486,1.101,0.814C14.194,18.931,14.602,19.72,14.842,20.542z"/>
			</g>
			<g>
				<path fill="#F5F5F5" d="M21.252,21.58c-0.65,0-0.564-1.68-0.564-1.68c1.994-4.459,6.439-1.637,6.439-1.637
					c1.729,0.771-0.773,3.209-1.175,3.316C24.071,22.089,21.252,21.58,21.252,21.58z"/>
				<g>
					<circle fill="#664E27" cx="23.855" cy="19.539" r="2.125"/>
					<circle fill="#231F20" cx="23.856" cy="19.539" r="0.75"/>
				</g>
				<path fill="#231F20" d="M20.129,20.542c0.242-0.822,0.65-1.611,1.273-2.266c0.309-0.328,0.687-0.604,1.102-0.814
					c0.42-0.207,0.885-0.324,1.346-0.369c0.932-0.07,1.812,0.162,2.607,0.445c0.402,0.135,0.788,0.295,1.176,0.406
					c0.387,0.115,0.784,0.199,1.189,0.039c-0.307,0.33-0.824,0.381-1.254,0.363c-0.443-0.025-0.867-0.104-1.279-0.184
					c-0.822-0.156-1.615-0.318-2.371-0.244c-0.757,0.047-1.458,0.355-2.082,0.836C21.211,19.242,20.674,19.88,20.129,20.542z"/>
			</g>
			<g>
				<g>
					<path fill="#F09985" d="M19.45,28.576c-0.4-0.1-0.988-0.053-1.761,0.207c-0.069,0.02-0.136,0.043-0.202,0.064
						c-0.068-0.021-0.135-0.045-0.203-0.064c-0.773-0.26-1.359-0.307-1.761-0.207c-1.198,0.291-3.014,0.148-3.014,0.148
						c1.32,1.32,1.948,3.121,4.978,3.121c3.027,0,3.656-1.801,4.977-3.121C22.463,28.724,20.647,28.867,19.45,28.576z"/>
					<path fill="#D47F6C" d="M19.45,28.576c-0.4-0.1-0.988-0.053-1.761,0.207c-0.069,0.02-0.136,0.043-0.202,0.064
						c-0.068-0.021-0.135-0.045-0.203-0.064c-0.773-0.26-1.359-0.307-1.761-0.207c-1.177,0.285-3.021,0.148-3.014,0.148
						c1.992,0.359,2.241,1.377,4.978,1.377s2.983-1.018,4.977-1.377C22.47,28.724,20.625,28.861,19.45,28.576z"/>
				</g>
			</g>
		</g>
		<g>
			<path fill="#231F20" d="M46.52,2C36.502,2,31.034,8.33,31.034,16.667v18.511h30.968V16.667c0-12.395-8.383-12.162-8.383-12.162
				S52.988,2,46.52,2z"/>
			<path fill="#FFDD67" d="M35.477,23.642c0,0-2.23-0.57-2.23-3.871c0-2.611,1.68-3.061,1.68-3.061c6.025,0,15.842-7.83,15.842-7.83
				s3.709,6.912,7.289,7.83c0,0,1.734,0.318,1.734,3.061c0,3.301-2.313,3.871-2.313,3.871c-0.031,4.979-6.83,10.984-10.959,10.984
				C42.389,34.626,35.477,28.621,35.477,23.642z"/>
			<path fill="#EBA352" d="M49.283,25.916c0,1.086-2.248,1.398-2.764,1.398c-0.518,0-2.766-0.385-2.766-1.469
				C43.754,25.845,49.283,25.373,49.283,25.916z"/>
			<g>
				<path fill="#F5F5F5" d="M42.752,21.58c0.65,0,0.564-1.68,0.564-1.68c-1.996-4.459-6.439-1.637-6.439-1.637
					c-1.727,0.771,0.773,3.209,1.174,3.316C39.934,22.089,42.752,21.58,42.752,21.58z"/>
				<g>
					<circle fill="#664E27" cx="40.149" cy="19.539" r="2.126"/>
					<path fill="#231F20" d="M40.898,19.539c0,0.416-0.336,0.748-0.75,0.748s-0.75-0.332-0.75-0.748c0-0.414,0.336-0.748,0.75-0.748
						S40.898,19.125,40.898,19.539z"/>
				</g>
				<path fill="#231F20" d="M43.875,20.542c-0.543-0.662-1.082-1.301-1.707-1.787c-0.623-0.48-1.326-0.789-2.082-0.836
					c-0.756-0.074-1.549,0.088-2.371,0.244c-0.412,0.08-0.836,0.158-1.279,0.184c-0.43,0.018-0.947-0.033-1.254-0.363
					c0.404,0.16,0.803,0.076,1.189-0.039c0.389-0.111,0.773-0.271,1.176-0.406c0.797-0.283,1.676-0.516,2.609-0.445
					c0.459,0.045,0.924,0.162,1.344,0.369c0.416,0.211,0.793,0.486,1.102,0.814C43.225,18.931,43.633,19.72,43.875,20.542z"/>
			</g>
			<g>
				<path fill="#F5F5F5" d="M50.283,21.58c-0.65,0-0.564-1.68-0.564-1.68c1.996-4.459,6.441-1.637,6.441-1.637
					c1.729,0.771-0.775,3.209-1.176,3.316C53.102,22.089,50.283,21.58,50.283,21.58z"/>
				<g>
					<circle fill="#664E27" cx="52.888" cy="19.539" r="2.126"/>
					<circle fill="#231F20" cx="52.887" cy="19.539" r="0.75"/>
				</g>
				<path fill="#231F20" d="M49.162,20.542c0.242-0.822,0.648-1.611,1.273-2.266c0.309-0.328,0.686-0.604,1.102-0.814
					c0.42-0.207,0.883-0.324,1.344-0.369c0.934-0.07,1.813,0.162,2.609,0.445c0.402,0.135,0.787,0.295,1.174,0.406
					c0.387,0.115,0.785,0.199,1.189,0.039c-0.307,0.33-0.822,0.381-1.252,0.363c-0.443-0.025-0.869-0.104-1.281-0.184
					c-0.822-0.156-1.613-0.318-2.369-0.244c-0.758,0.047-1.459,0.355-2.082,0.836C50.244,19.242,49.707,19.88,49.162,20.542z"/>
			</g>
			<g>
				<g>
					<path fill="#F09985" d="M48.482,28.576c-0.402-0.1-0.988-0.053-1.762,0.207c-0.068,0.02-0.135,0.043-0.201,0.064
						c-0.068-0.021-0.137-0.045-0.203-0.064c-0.773-0.26-1.361-0.307-1.762-0.207c-1.197,0.291-3.014,0.148-3.014,0.148
						c1.32,1.32,1.947,3.121,4.979,3.121c3.027,0,3.656-1.801,4.977-3.121C51.496,28.724,49.68,28.867,48.482,28.576z"/>
					<path fill="#D47F6C" d="M48.482,28.576c-0.402-0.1-0.988-0.053-1.762,0.207c-0.068,0.02-0.135,0.043-0.201,0.064
						c-0.068-0.021-0.137-0.045-0.203-0.064c-0.773-0.26-1.361-0.307-1.762-0.207c-1.176,0.285-3.02,0.148-3.014,0.148
						c1.992,0.359,2.24,1.377,4.979,1.377c2.734,0,2.982-1.018,4.977-1.377C51.502,28.724,49.658,28.861,48.482,28.576z"/>
				</g>
			</g>
		</g>
	</g>
	<g>
		<path fill="#231F20" d="M32.002,32.966c8.517,0,13.761,4.775,13.761,10.708v3.982c0,4.684-3.705,4.684-3.703,4.684H21.416
			c0.001,0-3.177,0-3.177-4.684c0-2.207,0-3.982,0-3.982C18.239,37.741,23.766,32.966,32.002,32.966z"/>
		<path fill="#FFDD67" d="M44.467,48.7l-0.516-5.65c0-3.611-5.666-0.727-11.949-0.727c-6.284,0-11.951-2.885-11.951,0.727
			l-0.513,5.65c-2.737,0-2.737,4.445,0,4.445c0,5.516,7.417,8.854,12.464,8.854c5.044,0,12.464-3.338,12.464-8.854
			C47.201,53.146,47.201,48.7,44.467,48.7z"/>
		<g opacity="0.5">
			<path fill="#FF717F" d="M43.738,54.294c-0.172-1.242-1.588-1.99-3.162-1.67c-1.578,0.318-2.717,1.584-2.545,2.824
				c0.172,1.242,1.586,1.99,3.162,1.672C42.77,56.8,43.908,55.536,43.738,54.294z"/>
			<path fill="#FF717F" d="M23.427,52.624c-1.575-0.32-2.991,0.428-3.161,1.67c-0.171,1.242,0.968,2.506,2.543,2.826
				c1.576,0.318,2.99-0.43,3.162-1.672C26.141,54.208,25.002,52.942,23.427,52.624z"/>
		</g>
		<path fill="#574137" d="M28.475,55.265c-0.066,0.076-0.102,0.176-0.102,0.295c-0.002,0.818,1.624,1.822,3.629,1.822
			c2.003,0,3.628-0.996,3.628-1.814c0-0.111-0.031-0.227-0.086-0.303c0,0-1.568,0.705-3.542,0.705
			C30.032,55.97,28.475,55.265,28.475,55.265z"/>
		<g>
			<g>
				<circle fill="#FFFFFF" cx="38.139" cy="49.208" r="3.629"/>
				<g>
					<ellipse fill="#664E27" cx="38.139" cy="49.208" rx="2.527" ry="2.498"/>
					<ellipse fill="#231F20" cx="38.138" cy="49.208" rx="0.851" ry="0.84"/>
				</g>
			</g>
			<g>
				<circle fill="#FFFFFF" cx="25.865" cy="49.208" r="3.629"/>
				<g>
					<ellipse fill="#664E27" cx="25.864" cy="49.208" rx="2.527" ry="2.498"/>
					<ellipse fill="#231F20" cx="25.864" cy="49.208" rx="0.85" ry="0.84"/>
				</g>
			</g>
		</g>
	</g>
</g>
</svg>
