<?xml version="1.0" encoding="utf-8"?>
<!-- Generator: Adobe Illustrator 15.0.0, SVG Export Plug-In . SVG Version: 6.00 Build 0)  -->
<!DOCTYPE svg PUBLIC "-//W3C//DTD SVG 1.1//EN" "http://www.w3.org/Graphics/SVG/1.1/DTD/svg11.dtd">
<svg version="1.1" id="Layer_1" xmlns="http://www.w3.org/2000/svg" xmlns:xlink="http://www.w3.org/1999/xlink" x="0px" y="0px"
	 width="64px" height="64px" viewBox="0 0 64 64" enable-background="new 0 0 64 64" xml:space="preserve">
<g>
	<path fill="#ED4C5C" d="M6.078,28.102l2,30.665l2.163-0.788c0,0-1.417-20.463,3.791-22.271L6.078,28.102z"/>
	<path fill="#3E4347" d="M49.396,47.66c0,0-4.324-1.386-14.061,1.385c-9.737,2.77-13.522-4.431-24.338-29.913
		C5.949,7.241,3.457,0.8,8.835,0.022c0,0-0.119-0.014-0.328-0.021C5.994,0.204,4.5,2.523,4.142,3.164
		c-2.521,4.531-6.459,9.667-2.377,18.343l0,0c0,0,3.726,14.283,3.726,36.683l2.587,0.577c0,0-1.066-24.74,1.858-25.636
		c0,0,2.575,2.716,9.716,16.745c6.453,12.678,12.709,14.125,18.928,14.125h22.986C62.781,63.737,64,62.893,64,59.57
		C64,56.245,56.428,50.43,49.396,47.66z"/>
	<g>
		<path fill="#94989B" d="M10.998,19.132c10.816,25.482,14.602,32.682,24.338,29.913c6.074-1.729,10.043-1.839,12.17-1.679
			C34.24,40.1,32.66,36.472,24.789,19.687C16.541,2.099,13.439,0.022,8.835,0.022C3.457,0.8,5.949,7.241,10.998,19.132z"/>
	</g>
	<path fill="#D0D0D0" d="M10.998,19.132c10.816,25.482,14.602,32.682,24.338,29.913c0.279-0.08,0.553-0.154,0.822-0.228
		c-12.167-8.419-18.18-27.361-21.756-33.467c-2.002-3.418-4.605-4.448-6.803-4.581C8.482,13.165,9.648,15.954,10.998,19.132z"/>
</g>
</svg>
