<?xml version="1.0" encoding="utf-8"?>
<!-- Generator: Adobe Illustrator 15.0.0, SVG Export Plug-In . SVG Version: 6.00 Build 0)  -->
<!DOCTYPE svg PUBLIC "-//W3C//DTD SVG 1.1//EN" "http://www.w3.org/Graphics/SVG/1.1/DTD/svg11.dtd">
<svg version="1.1" id="Layer_1" xmlns="http://www.w3.org/2000/svg" xmlns:xlink="http://www.w3.org/1999/xlink" x="0px" y="0px"
	 width="64px" height="64px" viewBox="0 0 64 64" enable-background="new 0 0 64 64" xml:space="preserve">
<path fill="#428BC1" d="M60.669,56.139c-0.346-0.791-19.115-11.957-19.135-11.973c-2.648-1.947-2.972-3.84-0.835-4.928
	c3.495-1.779,6.068-11.061,6.757-15.023c5.144-29.613-36.051-29.628-30.911,0c0.688,3.962,3.259,13.244,6.754,15.023
	c2.153,1.094,1.729,2.895-0.888,4.969c-0.871,0.691-13.024,7.465-16.453,9.76c-0.006,0.002-0.018,0.01-0.018,0.01h0.002
	c-1.416,0.947-2.424,1.736-2.609,2.162C2.354,58.395,2,64.012,2,64.012h60C62,64.012,61.647,58.395,60.669,56.139z"/>
</svg>
