<?xml version="1.0" encoding="utf-8"?>
<!-- Generator: Adobe Illustrator 15.0.0, SVG Export Plug-In . SVG Version: 6.00 Build 0)  -->
<!DOCTYPE svg PUBLIC "-//W3C//DTD SVG 1.1//EN" "http://www.w3.org/Graphics/SVG/1.1/DTD/svg11.dtd">
<svg version="1.1" id="Layer_1" xmlns="http://www.w3.org/2000/svg" xmlns:xlink="http://www.w3.org/1999/xlink" x="0px" y="0px"
	 width="64px" height="64px" viewBox="0 0 64 64" enable-background="new 0 0 64 64" xml:space="preserve">
<g>
	<g>
		<g>
			<path fill="#231F20" d="M17.487,2C7.47,2,2.002,8.332,2.002,16.669v18.508h30.969V16.669c0-12.396-8.382-12.164-8.382-12.164
				S23.957,2,17.487,2z"/>
			<path fill="#FFDD67" d="M6.443,23.642c0,0-2.229-0.57-2.229-3.869c0-2.613,1.682-3.063,1.682-3.063
				c6.023,0,15.839-7.828,15.839-7.828s3.71,6.912,7.29,7.828c0,0,1.734,0.318,1.734,3.063c0,3.299-2.313,3.869-2.313,3.869
				c-0.031,4.979-6.831,10.985-10.959,10.985C13.357,34.627,6.443,28.621,6.443,23.642z"/>
			<path fill="#EBA352" d="M20.253,25.916c0,1.086-2.25,1.398-2.766,1.398s-2.766-0.385-2.766-1.469
				C14.722,25.845,20.253,25.373,20.253,25.916z"/>
			<g>
				<path fill="#F5F5F5" d="M13.72,21.58c0.65,0,0.566-1.68,0.566-1.68c-1.996-4.457-6.441-1.637-6.441-1.637
					c-1.727,0.771,0.774,3.209,1.175,3.316C10.902,22.089,13.72,21.58,13.72,21.58z"/>
				<g>
					<circle fill="#664E27" cx="11.117" cy="19.541" r="2.125"/>
					<path fill="#231F20" d="M11.866,19.541c0,0.414-0.336,0.748-0.748,0.748c-0.416,0-0.752-0.334-0.752-0.748
						c0-0.416,0.336-0.75,0.752-0.75C11.53,18.791,11.866,19.125,11.866,19.541z"/>
				</g>
				<path fill="#231F20" d="M14.843,20.542c-0.544-0.662-1.082-1.301-1.707-1.787c-0.623-0.48-1.324-0.789-2.08-0.836
					c-0.758-0.072-1.551,0.088-2.373,0.244c-0.411,0.08-0.836,0.158-1.279,0.184c-0.431,0.02-0.946-0.033-1.253-0.361
					c0.405,0.158,0.802,0.074,1.188-0.041c0.389-0.111,0.773-0.271,1.176-0.406c0.797-0.281,1.675-0.516,2.609-0.445
					c0.461,0.047,0.924,0.164,1.346,0.369c0.415,0.211,0.791,0.486,1.1,0.814C14.192,18.931,14.601,19.72,14.843,20.542z"/>
			</g>
			<g>
				<path fill="#F5F5F5" d="M21.253,21.58c-0.65,0-0.566-1.68-0.566-1.68c1.996-4.457,6.441-1.637,6.441-1.637
					c1.729,0.771-0.774,3.209-1.176,3.316C24.07,22.089,21.253,21.58,21.253,21.58z"/>
				<g>
					<circle fill="#664E27" cx="23.856" cy="19.541" r="2.125"/>
					<path fill="#231F20" d="M24.605,19.541c0,0.414-0.335,0.748-0.751,0.748c-0.412,0-0.749-0.334-0.749-0.748
						c0-0.416,0.337-0.75,0.749-0.75C24.271,18.791,24.605,19.125,24.605,19.541z"/>
				</g>
				<path fill="#231F20" d="M20.13,20.542c0.242-0.822,0.65-1.611,1.273-2.266c0.309-0.328,0.686-0.604,1.102-0.814
					c0.42-0.205,0.883-0.324,1.344-0.369c0.934-0.07,1.813,0.164,2.609,0.445c0.402,0.135,0.787,0.295,1.176,0.406
					c0.387,0.115,0.783,0.199,1.188,0.041c-0.306,0.328-0.821,0.381-1.252,0.361c-0.443-0.025-0.868-0.104-1.28-0.184
					c-0.821-0.156-1.614-0.316-2.37-0.244c-0.758,0.047-1.459,0.355-2.082,0.836C21.21,19.242,20.674,19.88,20.13,20.542z"/>
			</g>
			<g>
				<g>
					<path fill="#F09985" d="M19.449,28.576c-0.401-0.1-0.987-0.053-1.76,0.207c-0.069,0.02-0.136,0.043-0.202,0.064
						c-0.068-0.021-0.137-0.045-0.204-0.064c-0.772-0.26-1.358-0.307-1.76-0.207c-1.198,0.291-3.015,0.148-3.015,0.148
						c1.321,1.32,1.949,3.121,4.979,3.121c3.027,0,3.655-1.801,4.977-3.121C22.464,28.724,20.647,28.867,19.449,28.576z"/>
					<path fill="#D47F6C" d="M19.449,28.576c-0.401-0.1-0.987-0.053-1.76,0.207c-0.069,0.02-0.136,0.043-0.202,0.064
						c-0.068-0.021-0.137-0.045-0.204-0.064c-0.772-0.26-1.358-0.307-1.76-0.207c-1.178,0.285-3.021,0.148-3.015,0.148
						c1.992,0.359,2.242,1.377,4.979,1.377c2.734,0,2.982-1.018,4.977-1.377C22.47,28.724,20.624,28.861,19.449,28.576z"/>
				</g>
			</g>
		</g>
		<g>
			<g>
				<g>
					<path fill="#231F20" d="M31.897,17.32l1.508,2.756H59.63l1.142-2.943c0-10.553-2.453-15.023-14.13-15.131
						C34.846,1.892,31.897,6.576,31.897,17.32z"/>
					<path fill="#FFDD67" d="M59.683,17.14c-0.092,0.609-0.217,1.182-0.389,1.506c-0.311,0.58-0.939,0.91-0.939,0.91
						s0.17-1.178,0.109-2.824c-0.658-9.729-1.227-7.055-11.945-7.055c-10.715,0-11.285-2.67-11.945,7.039
						c-0.061,1.656,0.107,2.84,0.107,2.84s-0.631-0.33-0.939-0.91c-0.172-0.324-0.297-0.896-0.387-1.506
						c-1.014-0.266-2.319-0.043-2.319,2.877c0,1.816,0.665,3.307,2.911,3.469c0.954,7.365,3.803,8.563,9.525,11.178
						c1.506,0.688,4.588,0.688,6.094,0c5.723-2.616,8.569-3.813,9.525-11.178c2.246-0.162,2.911-1.652,2.911-3.469
						C62.002,17.097,60.696,16.875,59.683,17.14z"/>
				</g>
				<g>
					<g>
						<path fill="#574137" d="M52.289,27.734c0,1.887-2.527,3.473-5.647,3.473c-3.119,0-5.646-1.586-5.646-3.473
							c0,0,3.004,0.168,5.648,0.168C49.286,27.902,52.289,27.734,52.289,27.734z"/>
					</g>
					<path fill="#FFFFFF" d="M51.813,28c0,0.953-2.313,1.707-5.169,1.707s-5.17-0.754-5.17-1.707c0,0,2.442,0.189,5.17,0.189
						C49.37,28.189,51.813,28,51.813,28z"/>
				</g>
				<path fill="#EBA352" d="M49.467,25.167c0,1.1-2.296,1.416-2.825,1.416c-0.527,0-2.822-0.389-2.822-1.486
					C43.819,25.097,49.467,24.623,49.467,25.167z"/>
			</g>
			<g>
				<g>
					<path fill="#F5F5F5" d="M36.085,17.521c-0.18,0.836-0.393,2.941,3.58,2.867c4.115-0.078,3.952,0.277,4.152-1.113
						c0.174-1.217-1.268-2.568-3.404-3.053C38.28,15.736,36.339,16.32,36.085,17.521z"/>
					<g>
						<ellipse fill="#664E27" cx="40.32" cy="18.138" rx="2.171" ry="2.15"/>
						<path fill="#231F20" d="M41.07,18.138c0,0.412-0.337,0.742-0.749,0.742c-0.417,0-0.751-0.33-0.751-0.742
							s0.334-0.744,0.751-0.744C40.733,17.394,41.07,17.726,41.07,18.138z"/>
					</g>
					<path fill="#664E27" d="M36.006,18.335c-0.578-3.734,7.795-3.535,7.795,0.441C42.591,15.613,36.819,15.503,36.006,18.335z"/>
				</g>
				<g>
					<path fill="#F5F5F5" d="M56.952,17.521c0.178,0.836,0.391,2.941-3.582,2.867c-4.115-0.078-3.952,0.277-4.152-1.113
						c-0.174-1.217,1.268-2.568,3.404-3.053C54.757,15.736,56.696,16.32,56.952,17.521z"/>
					<g>
						<ellipse fill="#664E27" cx="52.715" cy="18.138" rx="2.171" ry="2.15"/>
						<ellipse fill="#231F20" cx="52.715" cy="18.138" rx="0.75" ry="0.742"/>
					</g>
					<path fill="#664E27" d="M57.029,18.335c0.578-3.734-7.795-3.535-7.795,0.441C50.444,15.613,56.216,15.503,57.029,18.335z"/>
				</g>
			</g>
		</g>
	</g>
	<g>
		<g>
			<g>
				<path fill="#231F20" d="M25.581,58.113c-0.615,6.691-6.854,2.939-7.463,1.867c-2.015-3.543,1.238-10.018,3.453-10.018
					C23.785,49.963,25.991,53.648,25.581,58.113z"/>
				<path fill="#231F20" d="M38.425,58.113c0.615,6.691,6.852,2.939,7.461,1.867c2.015-3.543-1.238-10.018-3.451-10.018
					C40.219,49.963,38.013,53.648,38.425,58.113z"/>
			</g>
		</g>
		<path fill="#231F20" d="M31.852,32.966c8.329,0,13.463,5.098,13.463,11.432v4.252c0,5-3.627,5.002-3.625,5H21.494
			c0.002,0.002-3.107,0-3.107-5c0-2.355,0-4.252,0-4.252C18.387,38.064,23.794,32.966,31.852,32.966z"/>
		<path fill="#C28FEF" d="M31.852,35.096c-7.239,0-12.099,3.703-12.099,8.303c0,0,0,0.545,0,1.375c0-4.602,4.859-8.305,12.099-8.305
			c7.485,0,12.097,3.703,12.097,8.305v-1.375C43.948,38.799,39.337,35.096,31.852,35.096z"/>
		<path fill="#FFDD67" d="M44.268,52.439c0,0,1.616,0.391,1.616-1.926c0-1.834-2.107-1.713-2.107-1.713v-2.516H24.537
			c-0.921-1.979,0.113-4.016,0.113-4.016c-1.858,1.707-1.565,4.016-1.565,4.016h-3.133v2.516c0,0-2.135-0.211-2.135,1.713
			c0,2.316,1.695,1.926,1.695,1.926c0,3.459,3.626,7.248,12.588,7.248C40.591,59.688,44.268,56.59,44.268,52.439z"/>
		<g>
			<path opacity="0.5" fill="#FF717F" d="M43.738,53.971c-0.172-1.242-1.588-1.99-3.162-1.672c-1.576,0.318-2.716,1.584-2.544,2.826
				c0.17,1.24,1.586,1.99,3.162,1.67C42.769,56.477,43.908,55.211,43.738,53.971z"/>
			<path opacity="0.5" fill="#FF717F" d="M23.428,52.299c-1.574-0.318-2.99,0.43-3.16,1.672c-0.172,1.24,0.968,2.506,2.542,2.824
				c1.576,0.32,2.992-0.43,3.162-1.67C26.144,53.883,25.004,52.617,23.428,52.299z"/>
			<path fill="#574137" d="M28.463,54.939c-0.066,0.078-0.103,0.176-0.103,0.297c-0.002,0.818,1.624,1.822,3.629,1.822
				c2.004,0,3.629-0.998,3.629-1.816c0-0.109-0.031-0.225-0.086-0.303c0,0-1.569,0.707-3.543,0.707
				C30.019,55.646,28.463,54.939,28.463,54.939z"/>
			<g>
				<ellipse fill="#FFFFFF" cx="37.883" cy="49.852" rx="3.3" ry="3.336"/>
				<ellipse fill="#FFFFFF" cx="26.092" cy="49.852" rx="3.3" ry="3.336"/>
				<g>
					<circle fill="#664E27" cx="37.883" cy="49.852" r="2.298"/>
					<circle fill="#231F20" cx="37.882" cy="49.852" r="0.75"/>
				</g>
				<g>
					<circle fill="#664E27" cx="26.093" cy="49.852" r="2.299"/>
					<circle fill="#231F20" cx="26.093" cy="49.85" r="0.75"/>
				</g>
			</g>
		</g>
	</g>
</g>
</svg>
