<?xml version="1.0" encoding="utf-8"?>
<!-- Generator: Adobe Illustrator 15.0.0, SVG Export Plug-In . SVG Version: 6.00 Build 0)  -->
<!DOCTYPE svg PUBLIC "-//W3C//DTD SVG 1.1//EN" "http://www.w3.org/Graphics/SVG/1.1/DTD/svg11.dtd">
<svg version="1.1" id="Layer_1" xmlns="http://www.w3.org/2000/svg" xmlns:xlink="http://www.w3.org/1999/xlink" x="0px" y="0px"
	 width="64px" height="64px" viewBox="0 0 64 64" enable-background="new 0 0 64 64" xml:space="preserve">
<g>
	<path fill="#594640" d="M32.001,1.998c17.602,0,28.444,9.868,28.444,22.13v8.229c0,9.681-7.66,9.683-7.656,9.681H10.123
		c0.002,0.002-6.564,0-6.564-9.681c0-4.561,0-8.229,0-8.229C3.559,11.866,14.98,1.998,32.001,1.998z"/>
	<path fill="#FFE1BD" d="M57.761,34.517l-1.062-11.679c0-7.465-11.711-1.504-24.697-1.504S7.305,15.373,7.305,22.838L6.243,34.517
		c-5.655,0-5.655,9.186,0,9.186c0,11.398,15.331,18.296,25.759,18.296s25.759-6.897,25.759-18.296
		C63.416,43.702,63.416,34.517,57.761,34.517z"/>
	<g opacity="0.5">
		<path fill="#FF717F" d="M56.256,46.076c-0.354-2.566-3.279-4.113-6.535-3.453c-3.258,0.658-5.611,3.273-5.258,5.838
			c0.354,2.566,3.279,4.113,6.535,3.453S56.607,48.641,56.256,46.076z"/>
		<path fill="#FF717F" d="M14.281,42.623c-3.256-0.66-6.182,0.887-6.533,3.453c-0.354,2.564,2,5.18,5.256,5.838
			c3.256,0.66,6.18-0.887,6.533-3.453C19.891,45.896,17.537,43.281,14.281,42.623z"/>
	</g>
	<path fill="#574137" d="M24.713,48.08c-0.137,0.158-0.211,0.363-0.211,0.611c-0.002,1.691,3.357,3.766,7.5,3.766
		s7.5-2.061,7.5-3.752c0-0.229-0.064-0.467-0.178-0.625c0,0-3.242,1.459-7.322,1.459C27.93,49.539,24.713,48.08,24.713,48.08z"/>
	<g>
		<g>
			<circle fill="#FFFFFF" cx="44.686" cy="35.563" r="7.5"/>
			<g>
				<ellipse fill="#664E27" cx="44.687" cy="35.563" rx="5.224" ry="5.165"/>
				<ellipse fill="#231F20" cx="44.684" cy="35.563" rx="1.75" ry="1.731"/>
			</g>
		</g>
		<g>
			<circle fill="#FFFFFF" cx="19.318" cy="35.563" r="7.5"/>
			<g>
				<ellipse fill="#664E27" cx="19.318" cy="35.563" rx="5.223" ry="5.165"/>
				<ellipse fill="#231F20" cx="19.317" cy="35.563" rx="1.75" ry="1.73"/>
			</g>
		</g>
	</g>
</g>
</svg>
