<?xml version="1.0" encoding="utf-8"?>
<!-- Generator: Adobe Illustrator 15.0.0, SVG Export Plug-In . SVG Version: 6.00 Build 0)  -->
<!DOCTYPE svg PUBLIC "-//W3C//DTD SVG 1.1//EN" "http://www.w3.org/Graphics/SVG/1.1/DTD/svg11.dtd">
<svg version="1.1" id="Layer_1" xmlns="http://www.w3.org/2000/svg" xmlns:xlink="http://www.w3.org/1999/xlink" x="0px" y="0px"
	 width="64px" height="64px" viewBox="0 0 64 64" enable-background="new 0 0 64 64" xml:space="preserve">
<g>
	<g>
		<g>
			<g>
				<g>
					<path fill="#231F20" d="M2.864,17.318l1.508,2.756h26.226l1.142-2.943C31.739,6.578,29.286,2.107,17.608,2
						C5.813,1.891,2.864,6.574,2.864,17.318z"/>
					<path fill="#FFDD67" d="M30.65,17.139c-0.093,0.609-0.217,1.182-0.389,1.506c-0.311,0.582-0.939,0.912-0.939,0.912
						s0.17-1.178,0.109-2.826c-0.658-9.729-1.227-7.055-11.945-7.055C6.771,9.676,6.2,7.006,5.54,16.717
						c-0.061,1.654,0.108,2.84,0.108,2.84s-0.632-0.33-0.939-0.912c-0.172-0.324-0.297-0.896-0.388-1.506
						c-1.013-0.266-2.319-0.043-2.319,2.877c0,1.818,0.665,3.309,2.911,3.469c0.954,7.365,3.803,8.564,9.526,11.178
						c1.506,0.689,4.587,0.689,6.094,0c5.723-2.613,8.569-3.813,9.526-11.178c2.245-0.16,2.91-1.65,2.91-3.469
						C32.97,17.096,31.664,16.873,30.65,17.139z"/>
				</g>
				<g>
					<g>
						<path fill="#574137" d="M23.257,27.732c0,1.889-2.527,3.475-5.648,3.475c-3.118,0-5.646-1.586-5.646-3.475
							c0,0,3.004,0.168,5.647,0.168C20.253,27.9,23.257,27.732,23.257,27.732z"/>
					</g>
					<path fill="#FFFFFF" d="M22.78,27.998c0,0.953-2.313,1.707-5.17,1.707c-2.855,0-5.169-0.754-5.169-1.707
						c0,0,2.442,0.191,5.169,0.191C20.338,28.189,22.78,27.998,22.78,27.998z"/>
				</g>
				<path fill="#EBA352" d="M20.435,25.166c0,1.1-2.297,1.416-2.826,1.416c-0.527,0-2.821-0.389-2.821-1.484
					C14.787,25.098,20.435,24.621,20.435,25.166z"/>
			</g>
			<g>
				<g>
					<path fill="#F5F5F5" d="M7.053,17.52c-0.18,0.838-0.394,2.941,3.58,2.867c4.114-0.078,3.952,0.277,4.152-1.113
						c0.174-1.215-1.269-2.566-3.404-3.053C9.247,15.734,7.306,16.318,7.053,17.52z"/>
					<g>
						<ellipse fill="#664E27" cx="11.287" cy="18.137" rx="2.171" ry="2.15"/>
						<ellipse fill="#231F20" cx="11.287" cy="18.137" rx="0.75" ry="0.744"/>
					</g>
					<path fill="#664E27" d="M6.974,18.334c-0.579-3.732,7.794-3.535,7.794,0.441C13.559,15.611,7.786,15.502,6.974,18.334z"/>
				</g>
				<g>
					<path fill="#F5F5F5" d="M27.92,17.52c0.177,0.838,0.391,2.941-3.582,2.867c-4.115-0.078-3.952,0.277-4.152-1.113
						c-0.175-1.215,1.268-2.566,3.403-3.053S27.664,16.318,27.92,17.52z"/>
					<g>
						<ellipse fill="#664E27" cx="23.683" cy="18.137" rx="2.171" ry="2.15"/>
						<ellipse fill="#231F20" cx="23.683" cy="18.137" rx="0.75" ry="0.744"/>
					</g>
					<path fill="#664E27" d="M27.997,18.334c0.578-3.732-7.795-3.535-7.795,0.441C21.412,15.611,27.185,15.502,27.997,18.334z"/>
				</g>
			</g>
		</g>
		<g>
			<g>
				<g>
					<path fill="#231F20" d="M31.896,17.318l1.508,2.756H59.63l1.142-2.943c0-10.553-2.453-15.023-14.13-15.131
						C34.845,1.891,31.896,6.574,31.896,17.318z"/>
					<path fill="#FFDD67" d="M59.683,17.139c-0.093,0.609-0.217,1.182-0.39,1.506c-0.31,0.582-0.938,0.912-0.938,0.912
						s0.17-1.178,0.109-2.826c-0.658-9.729-1.227-7.055-11.945-7.055c-10.716,0-11.286-2.67-11.946,7.041
						c-0.06,1.654,0.108,2.84,0.108,2.84s-0.632-0.33-0.939-0.912c-0.172-0.324-0.297-0.896-0.388-1.506
						c-1.013-0.266-2.319-0.043-2.319,2.877c0,1.818,0.666,3.309,2.911,3.469c0.954,7.365,3.803,8.564,9.526,11.178
						c1.506,0.689,4.587,0.689,6.094,0c5.723-2.613,8.569-3.813,9.525-11.178c2.246-0.16,2.911-1.65,2.911-3.469
						C62.002,17.096,60.696,16.873,59.683,17.139z"/>
				</g>
				<g>
					<g>
						<path fill="#574137" d="M52.289,27.732c0,1.889-2.527,3.475-5.647,3.475c-3.119,0-5.646-1.586-5.646-3.475
							c0,0,3.004,0.168,5.647,0.168C49.285,27.9,52.289,27.732,52.289,27.732z"/>
					</g>
					<path fill="#FFFFFF" d="M51.813,27.998c0,0.953-2.313,1.707-5.17,1.707c-2.855,0-5.169-0.754-5.169-1.707
						c0,0,2.442,0.191,5.169,0.191C49.37,28.189,51.813,27.998,51.813,27.998z"/>
				</g>
				<path fill="#EBA352" d="M49.467,25.166c0,1.1-2.297,1.416-2.825,1.416c-0.527,0-2.822-0.389-2.822-1.484
					C43.819,25.098,49.467,24.621,49.467,25.166z"/>
			</g>
			<g>
				<g>
					<path fill="#F5F5F5" d="M36.085,17.52c-0.18,0.838-0.394,2.941,3.58,2.867c4.114-0.078,3.952,0.277,4.152-1.113
						c0.174-1.215-1.269-2.566-3.404-3.053C38.279,15.734,36.338,16.318,36.085,17.52z"/>
					<g>
						<ellipse fill="#664E27" cx="40.319" cy="18.137" rx="2.171" ry="2.15"/>
						<ellipse fill="#231F20" cx="40.319" cy="18.137" rx="0.75" ry="0.744"/>
					</g>
					<path fill="#664E27" d="M36.006,18.334c-0.579-3.732,7.794-3.535,7.794,0.441C42.591,15.611,36.818,15.502,36.006,18.334z"/>
				</g>
				<g>
					<path fill="#F5F5F5" d="M56.951,17.52c0.178,0.838,0.392,2.941-3.581,2.867c-4.115-0.078-3.952,0.277-4.153-1.113
						c-0.174-1.215,1.269-2.566,3.404-3.053S56.696,16.318,56.951,17.52z"/>
					<g>
						<ellipse fill="#664E27" cx="52.715" cy="18.137" rx="2.171" ry="2.15"/>
						<ellipse fill="#231F20" cx="52.715" cy="18.137" rx="0.75" ry="0.744"/>
					</g>
					<path fill="#664E27" d="M57.029,18.334c0.578-3.732-7.795-3.535-7.795,0.441C50.444,15.611,56.216,15.502,57.029,18.334z"/>
				</g>
			</g>
		</g>
	</g>
	<g>
		<g>
			<g>
				<g>
					<path fill="#231F20" d="M40.096,58.113c-0.614,6.691-6.852,2.939-7.46,1.867c-2.016-3.543,1.237-10.018,3.453-10.018
						C38.3,49.963,40.506,53.648,40.096,58.113z"/>
					<path fill="#231F20" d="M52.94,58.113c0.614,6.691,6.852,2.939,7.461,1.867c2.015-3.543-1.238-10.018-3.452-10.018
						C54.734,49.963,52.528,53.648,52.94,58.113z"/>
				</g>
			</g>
			<path fill="#231F20" d="M46.367,32.967c8.329,0,13.463,5.098,13.463,11.432v4.252c0,5-3.627,5.002-3.625,5H36.011
				c0.002,0.002-3.107,0-3.107-5c0-2.357,0-4.252,0-4.252C32.903,38.064,38.31,32.967,46.367,32.967z"/>
			<path fill="#C28FEF" d="M46.367,35.094c-7.239,0-12.097,3.705-12.097,8.305c0,0,0,0.543,0,1.373c0-4.6,4.857-8.303,12.097-8.303
				c7.484,0,12.097,3.703,12.097,8.303v-1.373C58.464,38.799,53.852,35.094,46.367,35.094z"/>
			<path fill="#FFDD67" d="M58.783,52.439c0,0,1.616,0.391,1.616-1.926c0-1.834-2.107-1.713-2.107-1.713v-2.518H39.053
				c-0.919-1.977,0.113-4.014,0.113-4.014c-1.856,1.705-1.563,4.014-1.563,4.014h-3.134v2.518c0,0-2.134-0.211-2.134,1.713
				c0,2.316,1.695,1.926,1.695,1.926c0,3.459,3.625,7.248,12.586,7.248C55.106,59.688,58.783,56.59,58.783,52.439z"/>
			<g>
				<path opacity="0.5" fill="#FF717F" d="M58.254,53.971c-0.172-1.242-1.588-1.99-3.162-1.672
					c-1.576,0.318-2.716,1.584-2.544,2.826c0.17,1.24,1.586,1.99,3.162,1.67C57.284,56.477,58.424,55.211,58.254,53.971z"/>
				<path opacity="0.5" fill="#FF717F" d="M37.944,52.299c-1.574-0.318-2.99,0.43-3.16,1.672c-0.172,1.24,0.968,2.506,2.542,2.824
					c1.575,0.32,2.99-0.43,3.161-1.67C40.659,53.883,39.52,52.617,37.944,52.299z"/>
				<path fill="#574137" d="M42.979,54.939c-0.066,0.076-0.103,0.176-0.103,0.297c-0.002,0.818,1.624,1.822,3.629,1.822
					c2.004,0,3.629-0.998,3.629-1.816c0-0.111-0.032-0.227-0.087-0.303c0,0-1.568,0.707-3.542,0.707
					C44.533,55.646,42.979,54.939,42.979,54.939z"/>
				<g>
					<ellipse fill="#FFFFFF" cx="52.398" cy="49.852" rx="3.3" ry="3.336"/>
					<ellipse fill="#FFFFFF" cx="40.609" cy="49.852" rx="3.299" ry="3.336"/>
					<g>
						<circle fill="#664E27" cx="52.398" cy="49.852" r="2.298"/>
						<circle fill="#231F20" cx="52.397" cy="49.852" r="0.75"/>
					</g>
					<g>
						<circle fill="#664E27" cx="40.608" cy="49.852" r="2.298"/>
						<circle fill="#231F20" cx="40.607" cy="49.852" r="0.75"/>
					</g>
				</g>
			</g>
		</g>
		<g>
			<path fill="#231F20" d="M17.486,32.967c8.517,0,13.762,4.773,13.762,10.707v3.982c0,4.684-3.707,4.686-3.705,4.684H6.899
				c0,0.002-3.178,0-3.178-4.684c0-2.207,0-3.982,0-3.982C3.722,37.74,9.249,32.967,17.486,32.967z"/>
			<path fill="#FFDD67" d="M29.949,48.701l-0.514-5.65c0-3.613-5.667-0.729-11.949-0.729c-6.285,0-11.951-2.885-11.951,0.729
				l-0.513,5.65c-2.736,0-2.736,4.443,0,4.443c0,5.516,7.417,8.854,12.464,8.854c5.044,0,12.463-3.338,12.463-8.854
				C32.687,53.145,32.687,48.701,29.949,48.701z"/>
			<g opacity="0.5">
				<path fill="#FF717F" d="M29.222,54.295c-0.172-1.242-1.588-1.99-3.162-1.672c-1.576,0.318-2.716,1.584-2.544,2.826
					c0.17,1.24,1.586,1.99,3.162,1.67C28.252,56.801,29.392,55.535,29.222,54.295z"/>
				<path fill="#FF717F" d="M8.91,52.623c-1.574-0.318-2.99,0.43-3.16,1.672c-0.172,1.24,0.968,2.506,2.542,2.824
					c1.577,0.32,2.99-0.43,3.163-1.67C11.625,54.207,10.487,52.941,8.91,52.623z"/>
			</g>
			<path fill="#574137" d="M13.959,55.264c-0.066,0.076-0.102,0.176-0.102,0.297c-0.002,0.818,1.623,1.822,3.629,1.822
				c2.003,0,3.629-0.998,3.629-1.816c0-0.111-0.032-0.227-0.087-0.303c0,0-1.569,0.707-3.542,0.707
				C15.515,55.971,13.959,55.264,13.959,55.264z"/>
			<g>
				<g>
					<circle fill="#FFFFFF" cx="23.623" cy="49.207" r="3.629"/>
					<g>
						<ellipse fill="#664E27" cx="23.623" cy="49.207" rx="2.527" ry="2.498"/>
						<path fill="#231F20" d="M24.473,49.207c0,0.465-0.382,0.842-0.849,0.842c-0.473,0-0.852-0.377-0.852-0.842
							s0.379-0.842,0.852-0.842C24.091,48.365,24.473,48.742,24.473,49.207z"/>
					</g>
				</g>
				<g>
					<circle fill="#FFFFFF" cx="11.349" cy="49.207" r="3.629"/>
					<g>
						<ellipse fill="#664E27" cx="11.349" cy="49.207" rx="2.527" ry="2.498"/>
						<path fill="#231F20" d="M12.198,49.207c0,0.465-0.38,0.842-0.849,0.842c-0.473,0-0.852-0.377-0.852-0.842
							s0.379-0.842,0.852-0.842C11.818,48.365,12.198,48.742,12.198,49.207z"/>
					</g>
				</g>
			</g>
		</g>
	</g>
</g>
</svg>
