<?xml version="1.0" encoding="utf-8"?>
<!-- Generator: Adobe Illustrator 15.0.0, SVG Export Plug-In . SVG Version: 6.00 Build 0)  -->
<!DOCTYPE svg PUBLIC "-//W3C//DTD SVG 1.1//EN" "http://www.w3.org/Graphics/SVG/1.1/DTD/svg11.dtd">
<svg version="1.1" id="Layer_1" xmlns="http://www.w3.org/2000/svg" xmlns:xlink="http://www.w3.org/1999/xlink" x="0px" y="0px"
	 width="64px" height="64px" viewBox="0 0 64 64" enable-background="new 0 0 64 64" xml:space="preserve">
<g>
	<g>
		<path fill="#F0CD4F" d="M22.795,59.125L7.123,49.477c0,0,2.116,7.262,0,14.523h12.525C19.648,61.014,22.795,59.125,22.795,59.125z
			"/>
		<path fill="#231F20" d="M0,43.473C0,32.75,4.899,31.54,4.899,31.54c4.225-5.444,18.565-3.215,22.584,0.44
			c8.229,7.48,2.353,15.24,0.853,14.945l-17.245,3.025c0,0-1.768,10.939,4.363,14.049H0V43.473z"/>
		<path fill="#FFDD67" d="M19.368,60.441c-4.931-1.057-6.892,0.35-8.277-11.605h3.739c0,0,2.633,0.662,5.265-8.563
			c1.193-4.178,6-7.306,7.064-4.694c2.215,5.434-0.243,7.07,0.347,8.574c1.072,2.736,3.359,1.988,3.267,3.799
			c-0.052,0.973-1.885,1.128-1.943,1.408c-0.145,0.701,0.427,1.022,1.295,1.586c0.869,0.563-0.714,1.129-0.408,2.924
			c0.309,1.795,0.472,2.475,0.472,2.475c-0.716,0.514-1.667,0.487-1.494,1.58C29.097,60.48,28.847,62.475,19.368,60.441z"/>
		<path fill="#EBA352" d="M26.131,44.338c-0.158-0.481-0.095-0.861-0.021-1.285c0.084-0.422,0.182-0.875,0.207-1.393
			c0.016-0.504-0.087-1.123-0.437-1.552c-0.336-0.43-0.794-0.624-1.238-0.647c0.304,0.373,0.567,0.707,0.702,1.055
			c0.131,0.346,0.161,0.695,0.142,1.114c-0.002,0.415-0.065,0.88-0.021,1.391C25.487,43.514,25.697,44.134,26.131,44.338z"/>
		<g>
			<path fill="#FFDD67" d="M7.533,48.714c0.636,2.774,2.743,4.573,4.708,4.021c1.964-0.552,3.042-3.248,2.407-6.022
				c-0.637-2.771-2.742-4.573-4.708-4.019C7.976,43.245,6.897,45.939,7.533,48.714z"/>
			<path fill="#594640" d="M10.54,44.328c0.536,0.013,1.095,0.205,1.564,0.578c0.461,0.385,0.804,0.936,0.958,1.519
				c0.135,0.476,0.167,0.965,0.112,1.439c0.208-0.073,0.434-0.079,0.609,0.054c-0.262,0.197-0.36,0.413-0.465,0.623
				c-0.091,0.215-0.171,0.426-0.217,0.642c-0.056,0.212-0.078,0.419-0.081,0.643c0.003,0.225,0.052,0.477,0.17,0.808
				c-0.314-0.006-0.622-0.234-0.785-0.578c-0.173-0.34-0.186-0.754-0.105-1.114c0.097-0.358,0.277-0.685,0.552-0.899
				c0.051-0.045,0.112-0.08,0.172-0.113c-0.396-0.949-0.777-1.777-1.408-2.27c-0.33-0.281-0.732-0.467-1.172-0.615
				c-0.442-0.143-0.923-0.229-1.433-0.371C9.487,44.433,10.002,44.308,10.54,44.328z"/>
		</g>
		<path fill="#C94747" d="M28.535,52.945c0.412-0.258,0.806-0.528,1.106-0.832c0.281-0.301,0.501-0.658,0.263-1.318
			c0.277,0.074,0.554,0.358,0.664,0.744c0.1,0.393,0.026,0.825-0.122,1.16c-0.141,0.326-0.328,0.592-0.537,0.821
			c0.224,0.233,0.429,0.546,0.518,0.892c0.11,0.363,0.104,0.721,0.059,1.037c-0.062,0.32-0.147,0.615-0.298,0.895
			c-0.241-0.581-0.399-1.144-0.644-1.451c-0.129-0.149-0.241-0.262-0.41-0.371c-0.162-0.113-0.359-0.224-0.567-0.34l-1.061-0.59
			L28.535,52.945z"/>
		<path fill="#594640" d="M21.167,42.666c0.554,0.205,0.88,0.584,1.309,0.92c0.408,0.353,0.854,0.695,1.372,0.971
			c0.511,0.27,1.117,0.479,1.755,0.418c0.637-0.041,1.252-0.41,1.557-0.979c-1.184,0.166-1.862-0.226-2.781-0.702
			c-0.451-0.232-0.926-0.496-1.47-0.68C22.395,42.436,21.691,42.271,21.167,42.666z"/>
	</g>
	<path fill="#E84D88" d="M12.09,8.596c4.379-10.982,18.599-6.055,19.911-0.57C33.81,2.18,47.679-2.178,51.91,8.602
		c4.712,12.009-18.266,22.789-19.909,24.555C30.357,31.752,7.38,20.41,12.09,8.596z"/>
	<g>
		<g>
			<path fill="#F0CD4F" d="M41.205,59.125l15.672-9.648c0,0-2.116,7.262,0,14.523H44.352C44.352,61.014,41.205,59.125,41.205,59.125
				z"/>
			<path fill="#231F20" d="M64,43.473c0-10.723-4.899-11.933-4.899-11.933c-4.225-5.444-18.565-3.215-22.584,0.44
				c-8.229,7.48-2.353,15.24-0.853,14.945l17.245,3.025c0,0,1.768,10.939-4.363,14.049H64V43.473z"/>
			<path fill="#FFDD67" d="M44.632,60.441c4.931-1.057,6.892,0.35,8.277-11.605H49.17c0,0-2.633,0.662-5.265-8.563
				c-1.193-4.178-6-7.306-7.064-4.694c-2.215,5.434,0.243,7.07-0.347,8.574c-1.072,2.736-3.359,1.988-3.267,3.799
				c0.052,0.973,1.885,1.128,1.943,1.408c0.145,0.701-0.427,1.022-1.295,1.586c-0.869,0.563,0.714,1.129,0.408,2.924
				c-0.309,1.795-0.472,2.475-0.472,2.475c0.716,0.514,1.667,0.487,1.494,1.58C34.903,60.48,35.153,62.475,44.632,60.441z"/>
			<path fill="#EBA352" d="M37.869,44.338c0.158-0.481,0.095-0.861,0.021-1.285c-0.084-0.422-0.182-0.875-0.207-1.393
				c-0.016-0.504,0.087-1.123,0.437-1.552c0.336-0.43,0.794-0.624,1.238-0.647c-0.304,0.373-0.567,0.707-0.702,1.055
				c-0.131,0.346-0.161,0.695-0.142,1.114c0.002,0.415,0.065,0.88,0.021,1.391C38.513,43.514,38.303,44.134,37.869,44.338z"/>
			<g>
				<path fill="#FFDD67" d="M56.467,48.714c-0.636,2.774-2.743,4.573-4.708,4.021c-1.964-0.552-3.042-3.248-2.407-6.022
					c0.637-2.771,2.742-4.573,4.708-4.019C56.024,43.245,57.103,45.939,56.467,48.714z"/>
				<path fill="#594640" d="M53.46,44.328c-0.536,0.013-1.095,0.205-1.564,0.578c-0.461,0.385-0.804,0.936-0.958,1.519
					c-0.135,0.476-0.167,0.965-0.112,1.439c-0.208-0.073-0.434-0.079-0.609,0.054c0.262,0.197,0.36,0.413,0.465,0.623
					c0.091,0.215,0.171,0.426,0.217,0.642c0.056,0.212,0.078,0.419,0.081,0.643c-0.003,0.225-0.052,0.477-0.17,0.808
					c0.314-0.006,0.622-0.234,0.785-0.578c0.173-0.34,0.186-0.754,0.105-1.114c-0.097-0.358-0.277-0.685-0.552-0.899
					c-0.051-0.045-0.112-0.08-0.172-0.113c0.396-0.949,0.777-1.777,1.408-2.27c0.33-0.281,0.732-0.467,1.172-0.615
					c0.442-0.143,0.923-0.229,1.433-0.371C54.513,44.433,53.998,44.308,53.46,44.328z"/>
			</g>
			<path fill="#C94747" d="M35.465,52.945c-0.412-0.258-0.806-0.528-1.106-0.832c-0.281-0.301-0.501-0.658-0.263-1.318
				c-0.277,0.074-0.554,0.358-0.664,0.744c-0.1,0.393-0.026,0.825,0.122,1.16c0.141,0.326,0.328,0.592,0.537,0.821
				c-0.224,0.233-0.429,0.546-0.518,0.892c-0.11,0.363-0.104,0.721-0.059,1.037c0.062,0.32,0.147,0.615,0.298,0.895
				c0.241-0.581,0.399-1.144,0.644-1.451c0.129-0.149,0.241-0.262,0.41-0.371c0.162-0.113,0.359-0.224,0.567-0.34l1.061-0.59
				L35.465,52.945z"/>
			<path fill="#594640" d="M42.833,42.666c-0.554,0.205-0.88,0.584-1.309,0.92c-0.408,0.353-0.854,0.695-1.372,0.971
				c-0.511,0.27-1.117,0.479-1.755,0.418c-0.637-0.041-1.252-0.41-1.557-0.979c1.184,0.166,1.862-0.226,2.781-0.702
				c0.451-0.232,0.926-0.496,1.47-0.68C41.605,42.436,42.309,42.271,42.833,42.666z"/>
		</g>
	</g>
</g>
</svg>
