<?xml version="1.0" encoding="utf-8"?>
<!-- Generator: Adobe Illustrator 15.0.0, SVG Export Plug-In . SVG Version: 6.00 Build 0)  -->
<!DOCTYPE svg PUBLIC "-//W3C//DTD SVG 1.1//EN" "http://www.w3.org/Graphics/SVG/1.1/DTD/svg11.dtd">
<svg version="1.1" id="Layer_1" xmlns="http://www.w3.org/2000/svg" xmlns:xlink="http://www.w3.org/1999/xlink" x="0px" y="0px"
	 width="64px" height="64px" viewBox="0 0 64 64" enable-background="new 0 0 64 64" xml:space="preserve">
<g>
	<g>
		<g>
			<path fill="#231F20" d="M18.728,53.97c-1.27,13.827-14.16,6.073-15.42,3.858c-4.164-7.322,2.559-20.705,7.137-20.705
				C15.021,37.123,19.577,44.742,18.728,53.97z"/>
			<path fill="#231F20" d="M45.276,53.97c1.27,13.827,14.16,6.073,15.42,3.858c4.164-7.322-2.559-20.705-7.135-20.705
				S44.427,44.742,45.276,53.97z"/>
		</g>
	</g>
	<path fill="#231F20" d="M31.688,1.998c17.219,0,27.826,10.536,27.826,23.626v8.786c0,10.336-7.494,10.338-7.49,10.336H10.286
		c0.002,0.002-6.422,0-6.422-10.336c0-4.868,0-8.786,0-8.786C3.864,12.534,15.038,1.998,31.688,1.998z"/>
	<path fill="#C28FEF" d="M31.688,6.397c-14.961,0-25,7.653-25,17.16c0,0,0,1.125,0,2.84c0-9.508,10.039-17.161,25-17.161
		c15.471,0,25.002,7.653,25.002,17.161v-2.84C56.69,14.051,47.159,6.397,31.688,6.397z"/>
	<path fill="#FFDD67" d="M57.353,42.243c0,0,3.338,0.809,3.338-3.979c0-3.79-4.355-3.541-4.355-3.541v-5.201H16.573
		c-1.9-4.086,0.234-8.299,0.234-8.299c-3.84,3.527-3.234,8.299-3.234,8.299H7.097v5.201c0,0-4.408-0.436-4.408,3.541
		c0,4.788,3.504,3.979,3.504,3.979c0,7.147,7.492,14.979,26.014,14.979C49.753,57.223,57.353,50.82,57.353,42.243z"/>
	<g>
		<path opacity="0.5" fill="#FF717F" d="M56.257,45.407c-0.354-2.566-3.279-4.113-6.535-3.453c-3.258,0.658-5.611,3.273-5.258,5.838
			c0.354,2.566,3.279,4.113,6.535,3.453S56.608,47.972,56.257,45.407z"/>
		<path opacity="0.5" fill="#FF717F" d="M14.282,41.954c-3.256-0.66-6.182,0.887-6.533,3.453c-0.354,2.564,2,5.18,5.256,5.838
			c3.256,0.66,6.18-0.887,6.533-3.453C19.892,45.228,17.538,42.612,14.282,41.954z"/>
		<path fill="#574137" d="M24.685,47.411c-0.137,0.158-0.211,0.363-0.211,0.611c-0.002,1.691,3.357,3.766,7.5,3.766
			s7.5-2.061,7.5-3.752c0-0.229-0.064-0.467-0.178-0.625c0,0-3.242,1.459-7.322,1.459C27.901,48.87,24.685,47.411,24.685,47.411z"/>
		<g>
			<ellipse fill="#FFFFFF" cx="44.156" cy="36.894" rx="6.821" ry="6.896"/>
			<ellipse fill="#FFFFFF" cx="19.788" cy="36.894" rx="6.82" ry="6.896"/>
			<g>
				<circle fill="#664E27" cx="44.156" cy="36.894" r="4.751"/>
				<circle fill="#231F20" cx="44.154" cy="36.894" r="1.75"/>
			</g>
			<g>
				<circle fill="#664E27" cx="19.788" cy="36.894" r="4.75"/>
				<circle fill="#231F20" cx="19.788" cy="36.894" r="1.75"/>
			</g>
		</g>
	</g>
</g>
</svg>
