<?xml version="1.0" encoding="utf-8"?>
<!-- Generator: Adobe Illustrator 15.0.0, SVG Export Plug-In . SVG Version: 6.00 Build 0)  -->
<!DOCTYPE svg PUBLIC "-//W3C//DTD SVG 1.1//EN" "http://www.w3.org/Graphics/SVG/1.1/DTD/svg11.dtd">
<svg version="1.1" id="Layer_1" xmlns="http://www.w3.org/2000/svg" xmlns:xlink="http://www.w3.org/1999/xlink" x="0px" y="0px"
	 width="64px" height="64px" viewBox="0 0 64 64" enable-background="new 0 0 64 64" xml:space="preserve">
<g>
	<g>
		<path fill="#231F20" d="M17.488,2C7.471,2,2.002,8.33,2.002,16.668v18.51h30.969v-18.51c0-12.395-8.383-12.162-8.383-12.162
			S23.957,2,17.488,2z"/>
		<path fill="#FFDD67" d="M6.444,23.643c0,0-2.23-0.57-2.23-3.871c0-2.611,1.683-3.061,1.683-3.061c6.023,0,15.839-7.83,15.839-7.83
			s3.709,6.912,7.289,7.83c0,0,1.735,0.318,1.735,3.061c0,3.301-2.314,3.871-2.314,3.871c-0.029,4.979-6.829,10.984-10.957,10.984
			C13.357,34.627,6.444,28.621,6.444,23.643z"/>
		<path fill="#EBA352" d="M20.252,25.916c0,1.086-2.249,1.398-2.764,1.398c-0.518,0-2.766-0.385-2.766-1.469
			C14.723,25.846,20.252,25.373,20.252,25.916z"/>
		<g>
			<path fill="#F5F5F5" d="M13.721,21.58c0.65,0,0.564-1.68,0.564-1.68c-1.995-4.459-6.44-1.637-6.44-1.637
				c-1.727,0.771,0.775,3.209,1.176,3.316C10.903,22.09,13.721,21.58,13.721,21.58z"/>
			<g>
				<path fill="#664E27" d="M13.243,19.539c0,1.174-0.951,2.127-2.125,2.127c-1.176,0-2.126-0.953-2.126-2.127
					c0-1.172,0.95-2.125,2.126-2.125C12.292,17.414,13.243,18.367,13.243,19.539z"/>
				<circle fill="#231F20" cx="11.117" cy="19.539" r="0.75"/>
			</g>
			<path fill="#231F20" d="M14.844,20.543c-0.544-0.662-1.083-1.301-1.707-1.787c-0.623-0.48-1.324-0.789-2.082-0.836
				c-0.757-0.074-1.549,0.088-2.372,0.244c-0.411,0.08-0.836,0.158-1.278,0.184c-0.431,0.02-0.947-0.033-1.254-0.361
				c0.405,0.158,0.803,0.074,1.188-0.041c0.389-0.111,0.774-0.271,1.177-0.406c0.796-0.283,1.675-0.516,2.608-0.445
				c0.461,0.045,0.924,0.162,1.345,0.369c0.416,0.211,0.793,0.486,1.102,0.814C14.193,18.932,14.602,19.721,14.844,20.543z"/>
		</g>
		<g>
			<path fill="#F5F5F5" d="M21.253,21.58c-0.651,0-0.565-1.68-0.565-1.68c1.996-4.459,6.441-1.637,6.441-1.637
				c1.727,0.771-0.775,3.209-1.176,3.316C24.071,22.09,21.253,21.58,21.253,21.58z"/>
			<g>
				<path fill="#664E27" d="M25.981,19.539c0,1.174-0.951,2.127-2.127,2.127c-1.173,0-2.124-0.953-2.124-2.127
					c0-1.172,0.951-2.125,2.124-2.125C25.03,17.414,25.981,18.367,25.981,19.539z"/>
				<circle fill="#231F20" cx="23.855" cy="19.539" r="0.75"/>
			</g>
			<path fill="#231F20" d="M20.13,20.543c0.242-0.822,0.65-1.611,1.274-2.266c0.307-0.328,0.686-0.604,1.101-0.814
				c0.42-0.207,0.884-0.324,1.345-0.369c0.934-0.07,1.813,0.162,2.607,0.445c0.403,0.135,0.789,0.295,1.176,0.406
				c0.388,0.115,0.784,0.199,1.189,0.041c-0.307,0.328-0.822,0.381-1.254,0.361c-0.441-0.025-0.867-0.104-1.278-0.184
				c-0.823-0.156-1.615-0.318-2.371-0.244c-0.757,0.047-1.458,0.355-2.082,0.836C21.212,19.242,20.675,19.881,20.13,20.543z"/>
		</g>
		<g>
			<g>
				<path fill="#F09985" d="M19.45,28.576c-0.401-0.1-0.988-0.053-1.761,0.207c-0.069,0.02-0.136,0.043-0.201,0.064
					c-0.069-0.021-0.137-0.045-0.204-0.064c-0.773-0.26-1.36-0.307-1.76-0.207c-1.198,0.291-3.015,0.148-3.015,0.148
					c1.32,1.32,1.948,3.121,4.979,3.121c3.027,0,3.655-1.801,4.976-3.121C22.464,28.725,20.648,28.867,19.45,28.576z"/>
				<path fill="#D47F6C" d="M19.45,28.576c-0.401-0.1-0.988-0.053-1.761,0.207c-0.069,0.02-0.136,0.043-0.201,0.064
					c-0.069-0.021-0.137-0.045-0.204-0.064c-0.773-0.26-1.36-0.307-1.76-0.207c-1.178,0.285-3.021,0.148-3.015,0.148
					c1.992,0.359,2.24,1.377,4.979,1.377c2.734,0,2.982-1.018,4.976-1.377C22.471,28.725,20.626,28.861,19.45,28.576z"/>
			</g>
		</g>
	</g>
	<g>
		<g>
			<g>
				<path fill="#231F20" d="M31.897,17.32l1.508,2.756h26.226l1.142-2.943c0-10.553-2.454-15.023-14.131-15.131
					C34.846,1.893,31.897,6.576,31.897,17.32z"/>
				<path fill="#FFDD67" d="M59.684,17.141c-0.093,0.609-0.218,1.182-0.39,1.506c-0.31,0.58-0.939,0.91-0.939,0.91
					s0.17-1.178,0.109-2.826c-0.657-9.727-1.227-7.055-11.945-7.055c-10.715,0-11.285-2.668-11.945,7.041
					c-0.061,1.656,0.108,2.84,0.108,2.84s-0.632-0.33-0.939-0.91c-0.172-0.324-0.297-0.896-0.388-1.506
					c-1.014-0.266-2.319-0.043-2.319,2.877c0,1.816,0.665,3.307,2.911,3.469c0.954,7.365,3.803,8.563,9.525,11.178
					c1.507,0.688,4.588,0.688,6.094,0c5.724-2.615,8.57-3.813,9.526-11.178c2.245-0.162,2.91-1.652,2.91-3.469
					C62.002,17.098,60.696,16.875,59.684,17.141z"/>
			</g>
			<g>
				<g>
					<path fill="#574137" d="M52.289,27.734c0,1.887-2.527,3.473-5.647,3.473c-3.118,0-5.646-1.586-5.646-3.473
						c0,0,3.003,0.168,5.647,0.168C49.286,27.902,52.289,27.734,52.289,27.734z"/>
				</g>
				<path fill="#FFFFFF" d="M51.813,28c0,0.953-2.313,1.707-5.169,1.707c-2.855,0-5.169-0.754-5.169-1.707
					c0,0,2.441,0.189,5.169,0.189S51.813,28,51.813,28z"/>
			</g>
			<path fill="#EBA352" d="M49.468,25.168c0,1.1-2.297,1.416-2.826,1.416c-0.527,0-2.822-0.389-2.822-1.486
				C43.819,25.098,49.468,24.623,49.468,25.168z"/>
		</g>
		<g>
			<g>
				<path fill="#F5F5F5" d="M36.086,17.52c-0.18,0.838-0.394,2.943,3.579,2.869c4.115-0.078,3.952,0.277,4.153-1.113
					c0.174-1.217-1.269-2.568-3.404-3.053C38.28,15.736,36.339,16.318,36.086,17.52z"/>
				<g>
					<ellipse fill="#664E27" cx="40.32" cy="18.139" rx="2.171" ry="2.15"/>
					<ellipse fill="#231F20" cx="40.32" cy="18.139" rx="0.75" ry="0.742"/>
				</g>
				<path fill="#664E27" d="M36.006,18.336c-0.578-3.734,7.795-3.535,7.795,0.441C42.591,15.613,36.819,15.504,36.006,18.336z"/>
			</g>
			<g>
				<path fill="#F5F5F5" d="M56.952,17.52c0.178,0.838,0.392,2.943-3.582,2.869c-4.114-0.078-3.952,0.277-4.152-1.113
					c-0.174-1.217,1.269-2.568,3.404-3.053C54.758,15.736,56.697,16.318,56.952,17.52z"/>
				<g>
					<ellipse fill="#664E27" cx="52.716" cy="18.139" rx="2.171" ry="2.15"/>
					<ellipse fill="#231F20" cx="52.716" cy="18.139" rx="0.75" ry="0.744"/>
				</g>
				<path fill="#664E27" d="M57.029,18.336c0.579-3.734-7.794-3.535-7.794,0.441C50.444,15.613,56.217,15.504,57.029,18.336z"/>
			</g>
		</g>
	</g>
	<g>
		<g>
			<g>
				<path fill="#231F20" d="M40.097,58.113c-0.614,6.691-6.852,2.939-7.461,1.867c-2.015-3.543,1.238-10.018,3.453-10.018
					C38.301,49.963,40.507,53.65,40.097,58.113z"/>
				<path fill="#231F20" d="M52.941,58.113c0.614,6.691,6.852,2.939,7.46,1.867c2.015-3.543-1.237-10.018-3.451-10.018
					C54.735,49.963,52.529,53.65,52.941,58.113z"/>
			</g>
		</g>
		<path fill="#231F20" d="M46.367,32.967c8.33,0,13.464,5.098,13.464,11.432v4.252c0,5.002-3.627,5.002-3.626,5.002H36.012
			c0.002,0-3.107,0-3.107-5.002c0-2.355,0-4.252,0-4.252C32.904,38.064,38.311,32.967,46.367,32.967z"/>
		<path fill="#C28FEF" d="M46.367,35.096c-7.238,0-12.096,3.703-12.096,8.303c0,0,0,0.545,0,1.375c0-4.602,4.857-8.305,12.096-8.305
			c7.485,0,12.097,3.703,12.097,8.305v-1.375C58.464,38.799,53.853,35.096,46.367,35.096z"/>
		<path fill="#FFDD67" d="M58.783,52.439c0,0,1.616,0.393,1.616-1.924c0-1.836-2.107-1.715-2.107-1.715v-2.516H39.053
			c-0.918-1.977,0.113-4.016,0.113-4.016c-1.855,1.707-1.563,4.016-1.563,4.016H34.47v2.516c0,0-2.134-0.211-2.134,1.715
			c0,2.316,1.695,1.924,1.695,1.924c0,3.459,3.625,7.248,12.586,7.248C55.107,59.688,58.783,56.59,58.783,52.439z"/>
		<g>
			<path opacity="0.5" fill="#FF717F" d="M58.254,53.971c-0.172-1.242-1.587-1.99-3.162-1.67c-1.576,0.318-2.716,1.584-2.544,2.824
				c0.171,1.242,1.586,1.99,3.162,1.67C57.285,56.477,58.425,55.211,58.254,53.971z"/>
			<path opacity="0.5" fill="#FF717F" d="M37.945,52.301c-1.574-0.32-2.99,0.428-3.16,1.67c-0.172,1.24,0.968,2.506,2.542,2.824
				c1.574,0.32,2.99-0.428,3.16-1.67C40.659,53.885,39.52,52.619,37.945,52.301z"/>
			<path fill="#574137" d="M42.979,54.941c-0.066,0.076-0.102,0.174-0.102,0.295c-0.002,0.818,1.623,1.822,3.629,1.822
				c2.003,0,3.629-0.998,3.629-1.816c0-0.109-0.032-0.225-0.087-0.301c0,0-1.569,0.705-3.542,0.705
				C44.534,55.646,42.979,54.941,42.979,54.941z"/>
			<g>
				<ellipse fill="#FFFFFF" cx="52.399" cy="49.852" rx="3.3" ry="3.336"/>
				<ellipse fill="#FFFFFF" cx="40.609" cy="49.852" rx="3.299" ry="3.336"/>
				<g>
					<circle fill="#664E27" cx="52.399" cy="49.852" r="2.298"/>
					<circle fill="#231F20" cx="52.397" cy="49.852" r="0.75"/>
				</g>
				<g>
					<circle fill="#664E27" cx="40.609" cy="49.852" r="2.298"/>
					<circle fill="#231F20" cx="40.608" cy="49.852" r="0.75"/>
				</g>
			</g>
		</g>
	</g>
	<g>
		<g>
			<g>
				<path fill="#231F20" d="M11.063,58.113c-0.614,6.691-6.852,2.939-7.46,1.867c-2.015-3.543,1.238-10.018,3.453-10.018
					C9.268,49.963,11.474,53.65,11.063,58.113z"/>
				<path fill="#231F20" d="M23.908,58.113c0.614,6.691,6.852,2.939,7.461,1.867c2.015-3.543-1.238-10.018-3.451-10.018
					C25.702,49.963,23.496,53.65,23.908,58.113z"/>
			</g>
		</g>
		<path fill="#231F20" d="M17.335,32.967c8.329,0,13.463,5.098,13.463,11.432v4.252c0,5.002-3.627,5.002-3.625,5.002H6.979
			c0.001,0-3.107,0-3.107-5.002c0-2.355,0-4.252,0-4.252C3.872,38.064,9.277,32.967,17.335,32.967z"/>
		<path fill="#C28FEF" d="M17.335,35.096c-7.239,0-12.097,3.703-12.097,8.303c0,0,0,0.545,0,1.375c0-4.602,4.857-8.305,12.097-8.305
			c7.484,0,12.097,3.703,12.097,8.305v-1.375C29.432,38.799,24.819,35.096,17.335,35.096z"/>
		<path fill="#FFDD67" d="M29.751,52.439c0,0,1.616,0.393,1.616-1.924c0-1.836-2.107-1.715-2.107-1.715v-2.516H10.021
			c-0.919-1.977,0.113-4.016,0.113-4.016c-1.856,1.707-1.563,4.016-1.563,4.016H5.437v2.516c0,0-2.134-0.211-2.134,1.715
			c0,2.316,1.695,1.924,1.695,1.924c0,3.459,3.625,7.248,12.586,7.248C26.074,59.688,29.751,56.59,29.751,52.439z"/>
		<g>
			<path opacity="0.5" fill="#FF717F" d="M29.222,53.971c-0.172-1.242-1.588-1.99-3.162-1.67c-1.576,0.318-2.716,1.584-2.544,2.824
				c0.17,1.242,1.586,1.99,3.162,1.67C28.252,56.477,29.392,55.211,29.222,53.971z"/>
			<path opacity="0.5" fill="#FF717F" d="M8.913,52.301c-1.575-0.32-2.99,0.428-3.161,1.67c-0.172,1.24,0.968,2.506,2.543,2.824
				c1.574,0.32,2.99-0.428,3.16-1.67C11.627,53.885,10.487,52.619,8.913,52.301z"/>
			<path fill="#574137" d="M13.946,54.941c-0.066,0.076-0.103,0.174-0.103,0.295c-0.002,0.818,1.624,1.822,3.629,1.822
				c2.004,0,3.629-0.998,3.629-1.816c0-0.109-0.032-0.225-0.087-0.301c0,0-1.568,0.705-3.542,0.705
				C15.502,55.646,13.946,54.941,13.946,54.941z"/>
			<g>
				<ellipse fill="#FFFFFF" cx="23.366" cy="49.852" rx="3.3" ry="3.336"/>
				<ellipse fill="#FFFFFF" cx="11.577" cy="49.852" rx="3.299" ry="3.336"/>
				<g>
					<circle fill="#664E27" cx="23.366" cy="49.852" r="2.298"/>
					<circle fill="#231F20" cx="23.365" cy="49.85" r="0.75"/>
				</g>
				<g>
					<circle fill="#664E27" cx="11.576" cy="49.852" r="2.298"/>
					<circle fill="#231F20" cx="11.575" cy="49.852" r="0.75"/>
				</g>
			</g>
		</g>
	</g>
</g>
</svg>
