<?xml version="1.0" encoding="utf-8"?>
<!-- Generator: Adobe Illustrator 15.0.0, SVG Export Plug-In . SVG Version: 6.00 Build 0)  -->
<!DOCTYPE svg PUBLIC "-//W3C//DTD SVG 1.1//EN" "http://www.w3.org/Graphics/SVG/1.1/DTD/svg11.dtd">
<svg version="1.1" id="Layer_1" xmlns="http://www.w3.org/2000/svg" xmlns:xlink="http://www.w3.org/1999/xlink" x="0px" y="0px"
	 width="64px" height="64px" viewBox="0 0 64 64" enable-background="new 0 0 64 64" xml:space="preserve">
<g>
	<g>
		<g>
			<g>
				<g>
					<path fill="#231F20" d="M2.864,17.319l1.508,2.756h26.227l1.141-2.943C31.739,6.579,29.286,2.108,17.608,2
						C5.813,1.891,2.864,6.575,2.864,17.319z"/>
					<path fill="#FFDD67" d="M30.651,17.139c-0.094,0.609-0.219,1.182-0.391,1.506c-0.309,0.582-0.939,0.912-0.939,0.912
						s0.172-1.178,0.111-2.826c-0.658-9.729-1.227-7.055-11.947-7.055C6.77,9.676,6.2,7.006,5.54,16.717
						c-0.061,1.654,0.107,2.84,0.107,2.84s-0.631-0.33-0.938-0.912c-0.174-0.324-0.297-0.896-0.389-1.506
						c-1.014-0.266-2.318-0.043-2.318,2.877c0,1.818,0.664,3.309,2.91,3.469c0.955,7.365,3.803,8.564,9.525,11.177
						c1.508,0.689,4.588,0.689,6.094,0c5.725-2.613,8.57-3.812,9.527-11.177c2.246-0.16,2.91-1.65,2.91-3.469
						C32.969,17.096,31.663,16.874,30.651,17.139z"/>
				</g>
				<g>
					<g>
						<path fill="#574137" d="M23.256,27.733c0,1.889-2.527,3.475-5.648,3.475c-3.117,0-5.645-1.586-5.645-3.475
							c0,0,3.002,0.168,5.646,0.168C20.252,27.901,23.256,27.733,23.256,27.733z"/>
					</g>
					<path fill="#FFFFFF" d="M22.78,27.999c0,0.953-2.313,1.707-5.17,1.707c-2.855,0-5.168-0.754-5.168-1.707
						c0,0,2.441,0.191,5.168,0.191C20.338,28.19,22.78,27.999,22.78,27.999z"/>
				</g>
				<path fill="#EBA352" d="M20.434,25.167c0,1.1-2.297,1.416-2.826,1.416c-0.527,0-2.82-0.389-2.82-1.484
					C14.788,25.098,20.434,24.622,20.434,25.167z"/>
			</g>
			<g>
				<g>
					<path fill="#F5F5F5" d="M7.053,17.52c-0.18,0.838-0.395,2.941,3.578,2.867c4.115-0.078,3.953,0.277,4.154-1.113
						c0.174-1.215-1.27-2.566-3.404-3.053S7.305,16.319,7.053,17.52z"/>
					<g>
						<ellipse fill="#664E27" cx="11.287" cy="18.137" rx="2.171" ry="2.15"/>
						<path fill="#231F20" d="M12.038,18.137c0,0.412-0.338,0.744-0.749,0.744c-0.417,0-0.751-0.332-0.751-0.744
							c0-0.41,0.334-0.744,0.751-0.744C11.7,17.393,12.038,17.727,12.038,18.137z"/>
					</g>
					<path fill="#664E27" d="M6.973,18.334c-0.578-3.732,7.795-3.535,7.795,0.441C13.557,15.612,7.786,15.502,6.973,18.334z"/>
				</g>
				<g>
					<path fill="#F5F5F5" d="M27.918,17.52c0.178,0.838,0.393,2.941-3.58,2.867c-4.115-0.078-3.953,0.277-4.154-1.113
						c-0.174-1.215,1.27-2.566,3.404-3.053C25.725,15.735,27.665,16.319,27.918,17.52z"/>
					<g>
						<ellipse fill="#664E27" cx="23.683" cy="18.137" rx="2.171" ry="2.15"/>
						<ellipse fill="#231F20" cx="23.682" cy="18.137" rx="0.75" ry="0.744"/>
					</g>
					<path fill="#664E27" d="M27.997,18.334c0.578-3.732-7.795-3.535-7.795,0.441C21.411,15.612,27.184,15.502,27.997,18.334z"/>
				</g>
			</g>
		</g>
		<g>
			<g>
				<g>
					<path fill="#231F20" d="M31.897,17.319l1.507,2.756h26.225l1.143-2.943C60.771,6.579,58.318,2.108,46.641,2
						C34.844,1.891,31.897,6.575,31.897,17.319z"/>
					<path fill="#FFDD67" d="M59.682,17.139c-0.092,0.609-0.217,1.182-0.389,1.506c-0.311,0.582-0.939,0.912-0.939,0.912
						s0.17-1.178,0.109-2.826c-0.658-9.729-1.227-7.055-11.945-7.055c-10.715,0-11.285-2.67-11.945,7.041
						c-0.061,1.654,0.107,2.84,0.107,2.84s-0.631-0.33-0.939-0.912c-0.172-0.324-0.297-0.896-0.387-1.506
						c-1.013-0.266-2.32-0.043-2.32,2.877c0,1.818,0.666,3.309,2.912,3.469c0.953,7.365,3.803,8.564,9.525,11.177
						c1.506,0.689,4.588,0.689,6.094,0c5.723-2.613,8.57-3.812,9.525-11.177c2.246-0.16,2.912-1.65,2.912-3.469
						C62.002,17.096,60.695,16.874,59.682,17.139z"/>
				</g>
				<g>
					<g>
						<path fill="#574137" d="M52.287,27.733c0,1.889-2.525,3.475-5.646,3.475c-3.119,0-5.646-1.586-5.646-3.475
							c0,0,3.004,0.168,5.648,0.168C49.285,27.901,52.287,27.733,52.287,27.733z"/>
					</g>
					<path fill="#FFFFFF" d="M51.813,27.999c0,0.953-2.314,1.707-5.17,1.707s-5.17-0.754-5.17-1.707c0,0,2.441,0.191,5.17,0.191
						C49.369,28.19,51.813,27.999,51.813,27.999z"/>
				</g>
				<path fill="#EBA352" d="M49.467,25.167c0,1.1-2.297,1.416-2.826,1.416c-0.527,0-2.822-0.389-2.822-1.484
					C43.818,25.098,49.467,24.622,49.467,25.167z"/>
			</g>
			<g>
				<g>
					<path fill="#F5F5F5" d="M36.084,17.52c-0.18,0.838-0.393,2.941,3.58,2.867c4.115-0.078,3.951,0.277,4.152-1.113
						c0.174-1.215-1.268-2.566-3.404-3.053C38.279,15.735,36.338,16.319,36.084,17.52z"/>
					<g>
						<ellipse fill="#664E27" cx="40.319" cy="18.137" rx="2.171" ry="2.15"/>
						<ellipse fill="#231F20" cx="40.318" cy="18.137" rx="0.75" ry="0.744"/>
					</g>
					<path fill="#664E27" d="M36.004,18.334c-0.578-3.732,7.795-3.535,7.795,0.441C42.59,15.612,36.818,15.502,36.004,18.334z"/>
				</g>
				<g>
					<path fill="#F5F5F5" d="M56.951,17.52c0.178,0.838,0.391,2.941-3.582,2.867c-4.115-0.078-3.953,0.277-4.152-1.113
						c-0.174-1.215,1.268-2.566,3.404-3.053C54.756,15.735,56.695,16.319,56.951,17.52z"/>
					<g>
						<ellipse fill="#664E27" cx="52.714" cy="18.137" rx="2.171" ry="2.15"/>
						<ellipse fill="#231F20" cx="52.715" cy="18.137" rx="0.75" ry="0.744"/>
					</g>
					<path fill="#664E27" d="M57.029,18.334c0.578-3.732-7.795-3.535-7.795,0.441C50.443,15.612,56.215,15.502,57.029,18.334z"/>
				</g>
			</g>
		</g>
	</g>
	<g>
		<g>
			<path fill="#231F20" d="M17.485,32.967c8.518,0,13.764,4.773,13.764,10.707v3.982c0,4.684-3.707,4.686-3.705,4.684H6.899
				c0.002,0.002-3.176,0-3.176-4.684c0-2.207,0-3.982,0-3.982C3.723,37.74,9.25,32.967,17.485,32.967z"/>
			<path fill="#FFDD67" d="M29.95,48.701l-0.514-5.65c0-3.613-5.666-0.729-11.951-0.729c-6.283,0-11.949-2.885-11.949,0.729
				l-0.514,5.65c-2.736,0-2.736,4.443,0,4.443c0,5.516,7.418,8.854,12.463,8.854c5.047,0,12.465-3.338,12.465-8.854
				C32.686,53.145,32.686,48.701,29.95,48.701z"/>
			<g opacity="0.5">
				<path fill="#FF717F" d="M29.221,54.295c-0.17-1.242-1.586-1.99-3.162-1.672s-2.715,1.584-2.543,2.826
					c0.17,1.24,1.586,1.99,3.162,1.67C28.252,56.801,29.391,55.535,29.221,54.295z"/>
				<path fill="#FF717F" d="M8.911,52.623c-1.574-0.318-2.99,0.43-3.16,1.672c-0.172,1.24,0.967,2.506,2.543,2.824
					c1.574,0.32,2.99-0.43,3.16-1.67C11.625,54.207,10.487,52.941,8.911,52.623z"/>
			</g>
			<path fill="#574137" d="M13.959,55.264c-0.066,0.076-0.104,0.176-0.104,0.297c0,0.818,1.625,1.822,3.629,1.822
				c2.006,0,3.631-0.998,3.631-1.816c0-0.111-0.031-0.227-0.088-0.303c0,0-1.568,0.707-3.543,0.707
				C15.516,55.971,13.959,55.264,13.959,55.264z"/>
			<g>
				<g>
					<circle fill="#FFFFFF" cx="23.624" cy="49.207" r="3.629"/>
					<g>
						<ellipse fill="#664E27" cx="23.624" cy="49.207" rx="2.527" ry="2.498"/>
						<ellipse fill="#231F20" cx="23.622" cy="49.207" rx="0.85" ry="0.84"/>
					</g>
				</g>
				<g>
					<circle fill="#FFFFFF" cx="11.348" cy="49.207" r="3.629"/>
					<g>
						<ellipse fill="#664E27" cx="11.348" cy="49.207" rx="2.527" ry="2.498"/>
						<ellipse fill="#231F20" cx="11.348" cy="49.207" rx="0.85" ry="0.84"/>
					</g>
				</g>
			</g>
		</g>
		<g>
			<path fill="#231F20" d="M46.518,32.967c8.518,0,13.764,4.773,13.764,10.707v3.982c0,4.684-3.707,4.686-3.705,4.684H35.932
				c0,0.002-3.177,0-3.177-4.684c0-2.207,0-3.982,0-3.982C32.754,37.74,38.281,32.967,46.518,32.967z"/>
			<path fill="#FFDD67" d="M58.982,48.701l-0.514-5.65c0-3.613-5.668-0.729-11.951-0.729s-11.951-2.885-11.951,0.729l-0.512,5.65
				c-2.738,0-2.738,4.443,0,4.443c0,5.516,7.418,8.854,12.463,8.854s12.465-3.338,12.465-8.854
				C61.719,53.145,61.719,48.701,58.982,48.701z"/>
			<g opacity="0.5">
				<path fill="#FF717F" d="M58.254,54.295c-0.172-1.242-1.588-1.99-3.162-1.672c-1.576,0.318-2.717,1.584-2.545,2.826
					c0.172,1.24,1.586,1.99,3.162,1.67C57.285,56.801,58.424,55.535,58.254,54.295z"/>
				<path fill="#FF717F" d="M37.943,52.623c-1.576-0.318-2.992,0.43-3.162,1.672c-0.17,1.24,0.969,2.506,2.543,2.824
					c1.576,0.32,2.99-0.43,3.162-1.67C40.656,54.207,39.518,52.941,37.943,52.623z"/>
			</g>
			<path fill="#574137" d="M42.99,55.264c-0.066,0.076-0.102,0.176-0.102,0.297c-0.002,0.818,1.625,1.822,3.629,1.822
				s3.629-0.998,3.629-1.816c0-0.111-0.031-0.227-0.086-0.303c0,0-1.568,0.707-3.543,0.707C44.547,55.971,42.99,55.264,42.99,55.264
				z"/>
			<g>
				<g>
					<circle fill="#FFFFFF" cx="52.654" cy="49.207" r="3.629"/>
					<g>
						<ellipse fill="#664E27" cx="52.655" cy="49.207" rx="2.528" ry="2.498"/>
						<ellipse fill="#231F20" cx="52.654" cy="49.207" rx="0.85" ry="0.84"/>
					</g>
				</g>
				<g>
					<circle fill="#FFFFFF" cx="40.381" cy="49.207" r="3.629"/>
					<g>
						<ellipse fill="#664E27" cx="40.381" cy="49.207" rx="2.527" ry="2.498"/>
						<ellipse fill="#231F20" cx="40.38" cy="49.207" rx="0.851" ry="0.84"/>
					</g>
				</g>
			</g>
		</g>
	</g>
</g>
</svg>
