<?xml version="1.0" encoding="utf-8"?>
<!-- Generator: Adobe Illustrator 15.0.0, SVG Export Plug-In . SVG Version: 6.00 Build 0)  -->
<!DOCTYPE svg PUBLIC "-//W3C//DTD SVG 1.1//EN" "http://www.w3.org/Graphics/SVG/1.1/DTD/svg11.dtd">
<svg version="1.1" id="Layer_1" xmlns="http://www.w3.org/2000/svg" xmlns:xlink="http://www.w3.org/1999/xlink" x="0px" y="0px"
	 width="64px" height="64px" viewBox="0 0 64 64" enable-background="new 0 0 64 64" xml:space="preserve">
<g>
	<g>
		<g>
			<g>
				<path fill="#231F20" d="M43.281,42.13c0,0-3.779-0.982-3.779-6.664c0-4.502,2.85-5.273,2.85-5.273
					c5.889,0,13.91-4.482,19.65-8.277V4.856c-16.98,0-26.25,10.902-26.25,25.264v31.879h26.25v-0.953
					C55.002,61.046,43.281,50.704,43.281,42.13z"/>
				<path fill="#FFDD67" d="M39.502,35.466c0,5.682,3.779,6.664,3.779,6.664c0,8.574,11.721,18.916,18.721,18.916v-4.787
					c-5.135,0-6.199-3.104-8.438-5.377c-0.01-0.002,3.115,0.236,5.109-0.256c0.68-0.17,1.674-0.09,2.984,0.357
					c0.115,0.035,0.229,0.074,0.344,0.111v-2.643c-0.877,0-4.688-0.66-4.688-2.529c0,0,2.344-0.201,4.688-0.289V21.915
					c-5.74,3.795-13.762,8.277-19.65,8.277C42.352,30.192,39.502,30.964,39.502,35.466z"/>
				<path fill="#EBA352" d="M57.314,45.923c0,1.869,3.811,2.529,4.688,2.529v-2.818C59.658,45.722,57.314,45.923,57.314,45.923z"/>
				<path fill="#F09985" d="M53.564,50.882c2.238,2.273,3.303,5.377,8.438,5.377v-3.006C57.363,53.253,56.941,51.499,53.564,50.882z
					"/>
				<path fill="#D47F6C" d="M58.674,50.626c-1.994,0.492-5.119,0.254-5.109,0.256C53.564,50.882,56.643,51.128,58.674,50.626z"/>
				<path fill="#D47F6C" d="M62.002,51.095c-0.115-0.037-0.229-0.076-0.344-0.111c-1.311-0.447-2.305-0.527-2.984-0.357
					c-2.031,0.502-5.109,0.256-5.109,0.256c3.377,0.617,3.799,2.371,8.438,2.371V51.095z"/>
			</g>
			<g>
				<g>
					<path fill="#F5F5F5" d="M55.617,38.577c1.104,0,0.957-2.893,0.957-2.893c-3.383-7.678-10.918-2.818-10.918-2.818
						c-2.928,1.33,1.313,5.527,1.992,5.711C50.84,39.456,55.617,38.577,55.617,38.577z"/>
					<g>
						<ellipse fill="#664E27" cx="51.205" cy="35.063" rx="3.604" ry="3.662"/>
						<ellipse fill="#231F20" cx="51.205" cy="35.063" rx="1.25" ry="1.27"/>
					</g>
					<path fill="#3B3226" d="M57.52,36.792c-0.922-1.143-1.832-2.24-2.893-3.076c-1.059-0.832-2.246-1.359-3.529-1.443
						c-1.283-0.125-2.627,0.154-4.02,0.422c-0.699,0.137-1.418,0.273-2.17,0.316c-0.727,0.031-1.605-0.057-2.125-0.623
						c0.688,0.275,1.361,0.129,2.014-0.068c0.66-0.195,1.314-0.469,1.996-0.701c1.35-0.488,2.84-0.889,4.42-0.768
						c0.783,0.08,1.57,0.281,2.281,0.635c0.705,0.367,1.346,0.838,1.867,1.406C56.42,34.015,57.109,35.376,57.52,36.792z"/>
				</g>
			</g>
		</g>
		<g>
			<g>
				<path fill="#231F20" d="M20.721,42.13c0,0,3.781-0.982,3.781-6.664c0-4.502-2.85-5.273-2.85-5.273
					c-5.891,0-13.912-4.482-19.65-8.277V4.856c16.979,0,26.25,10.902,26.25,25.264v31.879H2.002v-0.953
					C9.002,61.046,20.721,50.704,20.721,42.13z"/>
				<path fill="#FFDD67" d="M24.502,35.466c0,5.682-3.781,6.664-3.781,6.664c0,8.574-11.719,18.916-18.719,18.916v-4.787
					c5.135,0,6.199-3.104,8.436-5.377c0.012-0.002-3.113,0.236-5.107-0.256c-0.68-0.17-1.674-0.09-2.984,0.357
					c-0.117,0.035-0.229,0.074-0.344,0.111v-2.643c0.877,0,4.686-0.66,4.686-2.529c0,0-2.342-0.201-4.686-0.289V21.915
					c5.738,3.795,13.76,8.277,19.65,8.277C21.653,30.192,24.502,30.964,24.502,35.466z"/>
				<path fill="#EBA352" d="M6.688,45.923c0,1.869-3.809,2.529-4.686,2.529v-2.818C4.346,45.722,6.688,45.923,6.688,45.923z"/>
				<path fill="#F09985" d="M10.438,50.882c-2.236,2.273-3.301,5.377-8.436,5.377v-3.006C6.641,53.253,7.063,51.499,10.438,50.882z"
					/>
				<path fill="#D47F6C" d="M5.331,50.626c1.994,0.492,5.119,0.254,5.107,0.256C10.438,50.882,7.36,51.128,5.331,50.626z"/>
				<path fill="#D47F6C" d="M2.002,51.095c0.115-0.037,0.227-0.076,0.344-0.111c1.311-0.447,2.305-0.527,2.984-0.357
					c2.029,0.502,5.107,0.256,5.107,0.256c-3.375,0.617-3.797,2.371-8.436,2.371V51.095z"/>
			</g>
			<g>
				<g>
					<path fill="#F5F5F5" d="M8.385,38.577c-1.102,0-0.955-2.893-0.955-2.893c3.383-7.678,10.916-2.818,10.916-2.818
						c2.928,1.33-1.313,5.527-1.992,5.711C13.163,39.456,8.385,38.577,8.385,38.577z"/>
					<g>
						<ellipse fill="#664E27" cx="12.799" cy="35.063" rx="3.604" ry="3.662"/>
						<ellipse fill="#231F20" cx="12.799" cy="35.063" rx="1.25" ry="1.27"/>
					</g>
					<path fill="#3B3226" d="M6.483,36.792c0.922-1.143,1.834-2.24,2.893-3.076c1.059-0.832,2.248-1.359,3.531-1.443
						c1.281-0.125,2.625,0.154,4.02,0.422c0.697,0.137,1.416,0.273,2.168,0.316c0.729,0.031,1.605-0.057,2.125-0.623
						c-0.686,0.275-1.359,0.129-2.014-0.068c-0.658-0.195-1.313-0.469-1.994-0.701c-1.352-0.488-2.842-0.889-4.422-0.768
						c-0.781,0.08-1.568,0.281-2.281,0.635c-0.705,0.367-1.344,0.838-1.867,1.406C7.584,34.015,6.893,35.376,6.483,36.792z"/>
				</g>
			</g>
		</g>
	</g>
	<path fill="#E84D88" d="M49.541,8.317c-3.977-10.521-16.89-5.801-18.085-0.547c-1.643-5.6-14.236-9.775-18.08,0.553
		c-4.279,11.508,16.588,21.84,18.08,23.531C32.95,30.507,53.816,19.64,49.541,8.317z"/>
</g>
</svg>
