<?xml version="1.0" encoding="utf-8"?>
<!-- Generator: Adobe Illustrator 15.0.0, SVG Export Plug-In . SVG Version: 6.00 Build 0)  -->
<!DOCTYPE svg PUBLIC "-//W3C//DTD SVG 1.1//EN" "http://www.w3.org/Graphics/SVG/1.1/DTD/svg11.dtd">
<svg version="1.1" id="Layer_1" xmlns="http://www.w3.org/2000/svg" xmlns:xlink="http://www.w3.org/1999/xlink" x="0px" y="0px"
	 width="64px" height="64px" viewBox="0 0 64 64" enable-background="new 0 0 64 64" xml:space="preserve">
<g>
	<g>
		<path fill="#231F20" d="M32.002,32.967c8.517,0,13.761,4.774,13.761,10.708v3.982c0,4.684-3.705,4.686-3.703,4.684H21.416
			c0.001,0.002-3.177,0-3.177-4.684c0-2.207,0-3.982,0-3.982C18.239,37.741,23.766,32.967,32.002,32.967z"/>
		<path fill="#FFDD67" d="M44.467,48.702l-0.516-5.65c0-3.613-5.666-0.729-11.949-0.729c-6.284,0-11.951-2.885-11.951,0.729
			l-0.513,5.65c-2.737,0-2.737,4.443,0,4.443c0,5.516,7.417,8.854,12.464,8.854c5.044,0,12.464-3.338,12.464-8.854
			C47.201,53.146,47.201,48.702,44.467,48.702z"/>
		<g opacity="0.5">
			<path fill="#FF717F" d="M43.738,54.296c-0.172-1.242-1.588-1.99-3.162-1.672c-1.578,0.318-2.717,1.584-2.545,2.826
				c0.172,1.24,1.586,1.99,3.162,1.67C42.77,56.802,43.908,55.536,43.738,54.296z"/>
			<path fill="#FF717F" d="M23.427,52.624c-1.575-0.318-2.991,0.43-3.161,1.672c-0.171,1.24,0.968,2.506,2.543,2.824
				c1.576,0.32,2.99-0.43,3.162-1.67C26.141,54.208,25.002,52.942,23.427,52.624z"/>
		</g>
		<path fill="#574137" d="M28.475,55.265c-0.066,0.076-0.102,0.176-0.102,0.297c-0.002,0.818,1.624,1.822,3.629,1.822
			c2.003,0,3.628-0.998,3.628-1.816c0-0.111-0.031-0.227-0.086-0.303c0,0-1.568,0.707-3.542,0.707
			C30.032,55.972,28.475,55.265,28.475,55.265z"/>
		<g>
			<g>
				<circle fill="#FFFFFF" cx="38.139" cy="49.208" r="3.629"/>
				<g>
					<ellipse fill="#664E27" cx="38.139" cy="49.208" rx="2.527" ry="2.498"/>
					<ellipse fill="#231F20" cx="38.138" cy="49.208" rx="0.851" ry="0.842"/>
				</g>
			</g>
			<g>
				<circle fill="#FFFFFF" cx="25.865" cy="49.208" r="3.629"/>
				<g>
					<ellipse fill="#664E27" cx="25.864" cy="49.208" rx="2.527" ry="2.498"/>
					<ellipse fill="#231F20" cx="25.864" cy="49.208" rx="0.85" ry="0.84"/>
				</g>
			</g>
		</g>
	</g>
	<g>
		<g>
			<g>
				<g>
					<path fill="#231F20" d="M2.864,17.319l1.508,2.756h26.227l1.141-2.943c0-10.553-2.453-15.023-14.13-15.131
						C5.813,1.891,2.864,6.575,2.864,17.319z"/>
					<path fill="#FFDD67" d="M30.651,17.139c-0.093,0.609-0.218,1.182-0.39,1.506c-0.31,0.582-0.939,0.912-0.939,0.912
						s0.17-1.178,0.109-2.826c-0.657-9.729-1.227-7.055-11.945-7.055C6.77,9.676,6.2,7.006,5.54,16.717
						c-0.06,1.654,0.108,2.84,0.108,2.84s-0.632-0.33-0.939-0.912c-0.172-0.324-0.297-0.896-0.388-1.506
						c-1.013-0.266-2.318-0.043-2.318,2.877c0,1.818,0.665,3.309,2.91,3.469c0.955,7.365,3.803,8.564,9.526,11.178
						c1.507,0.689,4.587,0.689,6.094,0c5.724-2.614,8.569-3.813,9.526-11.178c2.245-0.16,2.91-1.65,2.91-3.469
						C32.969,17.096,31.664,16.874,30.651,17.139z"/>
				</g>
				<g>
					<g>
						<path fill="#574137" d="M23.256,27.733c0,1.889-2.527,3.475-5.647,3.475c-3.119,0-5.646-1.586-5.646-3.475
							c0,0,3.003,0.168,5.646,0.168C20.252,27.901,23.256,27.733,23.256,27.733z"/>
					</g>
					<path fill="#FFFFFF" d="M22.78,27.999c0,0.953-2.313,1.707-5.17,1.707c-2.855,0-5.169-0.754-5.169-1.707
						c0,0,2.442,0.191,5.169,0.191C20.338,28.19,22.78,27.999,22.78,27.999z"/>
				</g>
				<path fill="#EBA352" d="M20.434,25.167c0,1.1-2.297,1.416-2.825,1.416c-0.527,0-2.822-0.389-2.822-1.484
					C14.787,25.098,20.434,24.622,20.434,25.167z"/>
			</g>
			<g>
				<g>
					<path fill="#F5F5F5" d="M7.052,17.52c-0.18,0.838-0.394,2.941,3.58,2.867c4.114-0.078,3.952,0.277,4.152-1.113
						c0.174-1.215-1.269-2.566-3.403-3.053S7.305,16.319,7.052,17.52z"/>
					<g>
						<ellipse fill="#664E27" cx="11.287" cy="18.137" rx="2.171" ry="2.15"/>
						<ellipse fill="#231F20" cx="11.288" cy="18.137" rx="0.75" ry="0.744"/>
					</g>
					<path fill="#664E27" d="M6.973,18.334c-0.578-3.732,7.795-3.535,7.795,0.441C13.558,15.612,7.786,15.502,6.973,18.334z"/>
				</g>
				<g>
					<path fill="#F5F5F5" d="M27.919,17.52c0.178,0.838,0.392,2.941-3.582,2.867c-4.114-0.078-3.952,0.277-4.152-1.113
						c-0.174-1.215,1.269-2.566,3.403-3.053C25.725,15.735,27.665,16.319,27.919,17.52z"/>
					<g>
						<ellipse fill="#664E27" cx="23.683" cy="18.137" rx="2.171" ry="2.15"/>
						<ellipse fill="#231F20" cx="23.682" cy="18.137" rx="0.75" ry="0.744"/>
					</g>
					<path fill="#664E27" d="M27.997,18.334c0.578-3.732-7.795-3.535-7.795,0.441C21.412,15.612,27.184,15.502,27.997,18.334z"/>
				</g>
			</g>
		</g>
		<g>
			<g>
				<g>
					<path fill="#231F20" d="M31.896,17.319l1.508,2.756h26.225l1.143-2.943C60.771,6.579,58.318,2.108,46.641,2
						C34.844,1.891,31.896,6.575,31.896,17.319z"/>
					<path fill="#FFDD67" d="M59.682,17.139c-0.092,0.609-0.217,1.182-0.389,1.506c-0.311,0.582-0.939,0.912-0.939,0.912
						s0.17-1.178,0.109-2.826c-0.658-9.729-1.227-7.055-11.945-7.055c-10.715,0-11.285-2.67-11.945,7.041
						c-0.061,1.654,0.107,2.84,0.107,2.84s-0.631-0.33-0.939-0.912c-0.172-0.324-0.297-0.896-0.387-1.506
						c-1.013-0.266-2.32-0.043-2.32,2.877c0,1.818,0.666,3.309,2.912,3.469c0.953,7.365,3.803,8.564,9.525,11.178
						c1.506,0.689,4.588,0.689,6.094,0c5.723-2.614,8.57-3.813,9.527-11.178c2.244-0.16,2.91-1.65,2.91-3.469
						C62.002,17.096,60.695,16.874,59.682,17.139z"/>
				</g>
				<g>
					<g>
						<path fill="#574137" d="M52.289,27.733c0,1.889-2.527,3.475-5.648,3.475c-3.119,0-5.646-1.586-5.646-3.475
							c0,0,3.004,0.168,5.648,0.168C49.285,27.901,52.289,27.733,52.289,27.733z"/>
					</g>
					<path fill="#FFFFFF" d="M51.813,27.999c0,0.953-2.314,1.707-5.17,1.707s-5.17-0.754-5.17-1.707c0,0,2.443,0.191,5.17,0.191
						S51.813,27.999,51.813,27.999z"/>
				</g>
				<path fill="#EBA352" d="M49.467,25.167c0,1.1-2.297,1.416-2.826,1.416c-0.527,0-2.822-0.389-2.822-1.484
					C43.818,25.098,49.467,24.622,49.467,25.167z"/>
			</g>
			<g>
				<g>
					<path fill="#F5F5F5" d="M36.084,17.52c-0.18,0.838-0.393,2.941,3.58,2.867c4.115-0.078,3.953,0.277,4.152-1.113
						c0.174-1.215-1.268-2.566-3.404-3.053C38.279,15.735,36.338,16.319,36.084,17.52z"/>
					<g>
						<ellipse fill="#664E27" cx="40.319" cy="18.137" rx="2.171" ry="2.15"/>
						<ellipse fill="#231F20" cx="40.32" cy="18.137" rx="0.75" ry="0.744"/>
					</g>
					<path fill="#664E27" d="M36.006,18.334c-0.58-3.732,7.795-3.535,7.795,0.441C42.59,15.612,36.818,15.502,36.006,18.334z"/>
				</g>
				<g>
					<path fill="#F5F5F5" d="M56.951,17.52c0.178,0.838,0.391,2.941-3.582,2.867c-4.115-0.078-3.951,0.277-4.152-1.113
						c-0.174-1.215,1.268-2.566,3.404-3.053S56.695,16.319,56.951,17.52z"/>
					<g>
						<ellipse fill="#664E27" cx="52.714" cy="18.137" rx="2.171" ry="2.15"/>
						<path fill="#231F20" d="M53.465,18.137c0,0.414-0.336,0.744-0.752,0.744c-0.414,0-0.748-0.33-0.748-0.744
							c0-0.412,0.334-0.744,0.748-0.744C53.129,17.393,53.465,17.725,53.465,18.137z"/>
					</g>
					<path fill="#664E27" d="M57.029,18.334c0.578-3.732-7.795-3.535-7.795,0.441C50.443,15.612,56.217,15.502,57.029,18.334z"/>
				</g>
			</g>
		</g>
	</g>
</g>
</svg>
