<?xml version="1.0" encoding="utf-8"?>
<!-- Generator: Adobe Illustrator 15.0.0, SVG Export Plug-In . SVG Version: 6.00 Build 0)  -->
<!DOCTYPE svg PUBLIC "-//W3C//DTD SVG 1.1//EN" "http://www.w3.org/Graphics/SVG/1.1/DTD/svg11.dtd">
<svg version="1.1" id="Layer_1" xmlns="http://www.w3.org/2000/svg" xmlns:xlink="http://www.w3.org/1999/xlink" x="0px" y="0px"
	 width="64px" height="64px" viewBox="0 0 64 64" enable-background="new 0 0 64 64" xml:space="preserve">
<g>
	<g>
		<g>
			<path fill="#231F20" d="M5.563,29.703l2.727,4.983h47.426l2.064-5.323c0-19.083-4.439-27.167-25.553-27.361
				C10.894,1.804,5.563,10.273,5.563,29.703z"/>
			<path fill="#FFDD67" d="M55.81,29.377c-0.166,1.102-0.393,2.138-0.704,2.723c-0.559,1.051-1.699,1.647-1.699,1.647
				s0.307-2.129,0.197-5.11c-1.188-17.592-2.218-12.756-21.6-12.756c-19.378,0-20.409-4.827-21.602,12.731
				c-0.111,2.995,0.195,5.135,0.195,5.135S9.457,33.15,8.898,32.1c-0.312-0.585-0.536-1.621-0.702-2.723
				c-1.83-0.48-4.194-0.079-4.194,5.201c0,3.288,1.204,5.983,5.264,6.274c1.728,13.319,6.88,15.484,17.229,20.212
				c2.723,1.244,8.295,1.244,11.016,0c10.35-4.728,15.5-6.893,17.229-20.212c4.06-0.291,5.262-2.986,5.262-6.274
				C60.002,29.298,57.64,28.896,55.81,29.377z"/>
		</g>
		<g>
			<g>
				<path fill="#574137" d="M42.439,48.533c0,3.415-4.571,6.281-10.212,6.281c-5.639,0-10.211-2.866-10.211-6.281
					c0,0,5.43,0.305,10.213,0.305C37.009,48.838,42.439,48.533,42.439,48.533z"/>
			</g>
			<path fill="#FFFFFF" d="M41.575,49.014c0,1.724-4.182,3.088-9.346,3.088s-9.351-1.364-9.351-3.088c0,0,4.418,0.345,9.351,0.345
				C37.161,49.358,41.575,49.014,41.575,49.014z"/>
		</g>
		<path fill="#EBA352" d="M37.335,43.894c0,1.987-4.152,2.56-5.107,2.56c-0.953,0-5.104-0.702-5.104-2.687
			C27.123,43.767,37.335,42.906,37.335,43.894z"/>
	</g>
	<g>
		<g>
			<path fill="#F5F5F5" d="M13.136,30.063c-0.324,1.517-0.709,5.321,6.475,5.188c7.443-0.142,7.147,0.5,7.509-2.014
				c0.315-2.199-2.294-4.643-6.155-5.521S13.597,27.892,13.136,30.063z"/>
			<g>
				<ellipse fill="#664E27" cx="20.794" cy="31.182" rx="3.925" ry="3.888"/>
				<ellipse fill="#231F20" cx="20.794" cy="31.182" rx="1.3" ry="1.288"/>
			</g>
			<path fill="#664E27" d="M12.994,31.538c-1.046-6.75,14.096-6.391,14.096,0.798C24.901,26.616,14.464,26.418,12.994,31.538z"/>
		</g>
		<g>
			<path fill="#F5F5F5" d="M50.868,30.063c0.324,1.517,0.709,5.321-6.475,5.188c-7.443-0.142-7.147,0.5-7.509-2.014
				c-0.315-2.199,2.294-4.643,6.155-5.521S50.407,27.892,50.868,30.063z"/>
			<g>
				<ellipse fill="#664E27" cx="43.209" cy="31.182" rx="3.925" ry="3.888"/>
				<path fill="#231F20" d="M44.509,31.182c0,0.712-0.584,1.288-1.299,1.288c-0.719,0-1.301-0.575-1.301-1.288
					s0.582-1.287,1.301-1.287C43.925,29.896,44.509,30.47,44.509,31.182z"/>
			</g>
			<path fill="#664E27" d="M51.01,31.538c1.046-6.75-14.096-6.391-14.096,0.798C39.103,26.616,49.54,26.418,51.01,31.538z"/>
		</g>
	</g>
</g>
</svg>
