<?xml version="1.0" encoding="utf-8"?>
<!-- Generator: Adobe Illustrator 15.0.0, SVG Export Plug-In . SVG Version: 6.00 Build 0)  -->
<!DOCTYPE svg PUBLIC "-//W3C//DTD SVG 1.1//EN" "http://www.w3.org/Graphics/SVG/1.1/DTD/svg11.dtd">
<svg version="1.1" id="Layer_1" xmlns="http://www.w3.org/2000/svg" xmlns:xlink="http://www.w3.org/1999/xlink" x="0px" y="0px"
	 width="64px" height="64px" viewBox="0 0 64 64" enable-background="new 0 0 64 64" xml:space="preserve">
<g>
	<g>
		<g>
			<rect x="12.348" y="26.33" fill="#FFDD67" width="6.012" height="4.582"/>
			<g>
				<path fill="#231F20" d="M8.361,43.645v17.711h5.52c0-11.885,0.891-13.439,0.891-13.439h1.166c0,0,0.891,1.555,0.891,13.439
					h5.518V43.645H8.361z"/>
				<path fill="#428BC1" d="M16.813,60.861c0.977-1.148,4.555-1.148,5.533,0V63h-5.533V60.861z"/>
				<path fill="#428BC1" d="M13.896,60.861c-0.979-1.148-4.557-1.148-5.535,0V63h5.535V60.861z"/>
			</g>
			<path fill="#428BC1" d="M23.021,28.687h-4.662c0,0.941-1.344,1.711-3.004,1.711s-3.008-0.77-3.008-1.711H7.686l0.676,14.958
				h13.984L23.021,28.687z"/>
		</g>
		<g>
			<path fill="#231F20" d="M27.857,9.931c0,2.271,0,9.211,0,9.211H2.848c0,0,0-6.939,0-9.211C2.848-1.977,27.857-1.977,27.857,9.931
				z"/>
			<path fill="#FFDD67" d="M28.711,17.564c0-4.125-3.006-2.031-3.006-2.031c-0.547-10.838-3.436-4.984-10.35-4.984
				c-6.922,0-9.805-5.854-10.357,4.984c0,0-3-2.094-3,2.031c0,1.578,0.572,2.869,2.51,3.006c0.818,6.381,4.893,7.697,10.848,7.697
				s10.02-1.316,10.842-7.697C28.137,20.433,28.711,19.142,28.711,17.564z"/>
			<g>
				<path fill="#664E27" d="M20.332,21.826c0,1.635-2.182,3.006-4.871,3.006s-4.873-1.371-4.873-3.006c0,0,2.592,0.145,4.873,0.145
					S20.332,21.826,20.332,21.826z"/>
			</g>
			<g>
				<path fill="#664E27" d="M12.314,15.99c0,0.891-0.75,1.617-1.672,1.617c-0.928,0-1.678-0.727-1.678-1.617
					c0-0.895,0.75-1.613,1.678-1.613C11.564,14.376,12.314,15.095,12.314,15.99z"/>
			</g>
			<g>
				<ellipse fill="#664E27" cx="20.299" cy="15.99" rx="1.674" ry="1.617"/>
			</g>
		</g>
		<g>
			<path fill="#428BC1" d="M29.611,44.043L21.65,31.041c-1.252-2.047,1.465-3.342,2.721-1.297l7.955,13.004L29.611,44.043z"/>
			<path fill="#FFDD67" d="M29.611,44.043c1.508,2.467,2.203,2.318,2.953,1.961c0.752-0.357,1.273-0.787-0.238-3.256L29.611,44.043z
				"/>
		</g>
		<g>
			<path fill="#428BC1" d="M3.217,44.775l2.883-14.6c0.453-2.295,3.482-1.787,3.027,0.51L6.24,45.283L3.217,44.775z"/>
			<path fill="#FFDD67" d="M3.217,44.775c-0.549,2.768,0.098,3.039,0.934,3.178c0.838,0.143,1.545,0.102,2.09-2.67L3.217,44.775z"/>
		</g>
	</g>
	<g>
		<g>
			<rect x="45.637" y="26.33" fill="#FFDD67" width="6.012" height="4.582"/>
			<g>
				<path fill="#231F20" d="M55.635,43.645v17.711h-5.521c0-11.885-0.889-13.439-0.889-13.439h-1.166c0,0-0.891,1.555-0.891,13.439
					H41.65V43.645H55.635z"/>
				<path fill="#428BC1" d="M47.184,60.861c-0.977-1.148-4.557-1.148-5.533,0V63h5.533V60.861z"/>
				<path fill="#428BC1" d="M50.1,60.861c0.977-1.148,4.557-1.148,5.535,0V63H50.1V60.861z"/>
			</g>
			<path fill="#6ADBC6" d="M40.975,28.687h4.662c0,0.941,1.344,1.711,3.004,1.711s3.008-0.77,3.008-1.711h4.66l-0.674,14.958H41.65
				L40.975,28.687z"/>
		</g>
		<g>
			<path fill="#231F20" d="M36.139,9.931c0,2.271,0,9.211,0,9.211h25.01c0,0,0-6.939,0-9.211
				C61.148-1.977,36.139-1.977,36.139,9.931z"/>
			<path fill="#FFDD67" d="M35.285,17.564c0-4.125,3.006-2.031,3.006-2.031c0.547-10.838,3.434-4.984,10.35-4.984
				c6.92,0,9.805-5.854,10.357,4.984c0,0,3-2.094,3,2.031c0,1.578-0.572,2.869-2.512,3.006c-0.818,6.381-4.891,7.697-10.846,7.697
				s-10.02-1.316-10.842-7.697C35.859,20.433,35.285,19.142,35.285,17.564z"/>
			<g>
				<path fill="#664E27" d="M43.664,21.826c0,1.635,2.18,3.006,4.871,3.006c2.689,0,4.871-1.371,4.871-3.006
					c0,0-2.59,0.145-4.871,0.145S43.664,21.826,43.664,21.826z"/>
			</g>
			<g>
				<path fill="#664E27" d="M51.68,15.99c0,0.891,0.752,1.617,1.674,1.617c0.926,0,1.678-0.727,1.678-1.617
					c0-0.895-0.752-1.613-1.678-1.613C52.432,14.376,51.68,15.095,51.68,15.99z"/>
			</g>
			<g>
				<path fill="#664E27" d="M42.021,15.99c0,0.891,0.748,1.617,1.674,1.617c0.922,0,1.676-0.727,1.676-1.617
					c0-0.895-0.754-1.613-1.676-1.613C42.77,14.376,42.021,15.095,42.021,15.99z"/>
			</g>
		</g>
		<g>
			<path fill="#6ADBC6" d="M34.385,44.043l7.961-13.002c1.25-2.047-1.465-3.342-2.721-1.297L31.67,42.748L34.385,44.043z"/>
			<path fill="#FFDD67" d="M34.385,44.043c-1.508,2.467-2.203,2.318-2.955,1.961s-1.271-0.787,0.24-3.256L34.385,44.043z"/>
		</g>
		<g>
			<path fill="#6ADBC6" d="M60.779,44.775l-2.885-14.6c-0.451-2.295-3.48-1.787-3.027,0.51l2.889,14.598L60.779,44.775z"/>
			<path fill="#FFDD67" d="M60.779,44.775c0.549,2.768-0.1,3.039-0.934,3.178c-0.838,0.143-1.545,0.102-2.09-2.67L60.779,44.775z"/>
		</g>
	</g>
</g>
</svg>
