<?xml version="1.0" encoding="utf-8"?>
<!-- Generator: Adobe Illustrator 15.0.0, SVG Export Plug-In . SVG Version: 6.00 Build 0)  -->
<!DOCTYPE svg PUBLIC "-//W3C//DTD SVG 1.1//EN" "http://www.w3.org/Graphics/SVG/1.1/DTD/svg11.dtd">
<svg version="1.1" id="Layer_1" xmlns="http://www.w3.org/2000/svg" xmlns:xlink="http://www.w3.org/1999/xlink" x="0px" y="0px"
	 width="64px" height="64px" viewBox="0 0 64 64" enable-background="new 0 0 64 64" xml:space="preserve">
<g>
	<g>
		<g>
			<path fill="#231F20" d="M17.485,2C7.47,2,2.002,8.332,2.002,16.667V35.18H32.97V16.667c0-12.395-8.383-12.162-8.383-12.162
				S23.956,2,17.485,2z"/>
			<path fill="#FFDD67" d="M6.444,23.642c0,0-2.23-0.57-2.23-3.871c0-2.611,1.68-3.061,1.68-3.061c6.025,0,15.84-7.83,15.84-7.83
				s3.71,6.912,7.291,7.83c0,0,1.734,0.318,1.734,3.061c0,3.301-2.314,3.871-2.314,3.871c-0.029,4.979-6.83,10.985-10.959,10.985
				S6.444,28.621,6.444,23.642z"/>
			<path fill="#EBA352" d="M20.251,25.916c0,1.086-2.249,1.398-2.766,1.398c-0.516,0-2.764-0.385-2.764-1.469
				C14.722,25.845,20.251,25.375,20.251,25.916z"/>
			<g>
				<path fill="#F5F5F5" d="M13.719,21.582c0.652,0,0.565-1.682,0.565-1.682c-1.996-4.459-6.439-1.637-6.439-1.637
					c-1.729,0.771,0.772,3.209,1.174,3.318C10.901,22.089,13.719,21.582,13.719,21.582z"/>
				<g>
					<circle fill="#664E27" cx="11.116" cy="19.539" r="2.125"/>
					<path fill="#231F20" d="M11.866,19.539c0,0.416-0.336,0.748-0.75,0.748c-0.415,0-0.75-0.332-0.75-0.748
						c0-0.414,0.335-0.748,0.75-0.748C11.53,18.791,11.866,19.125,11.866,19.539z"/>
				</g>
				<path fill="#231F20" d="M14.842,20.542c-0.544-0.662-1.081-1.301-1.705-1.785c-0.626-0.482-1.327-0.791-2.083-0.838
					c-0.757-0.074-1.55,0.09-2.372,0.244c-0.411,0.08-0.835,0.158-1.278,0.184c-0.43,0.018-0.947-0.033-1.254-0.361
					c0.404,0.158,0.803,0.076,1.188-0.039c0.388-0.113,0.774-0.273,1.177-0.408c0.795-0.283,1.676-0.516,2.607-0.445
					c0.461,0.045,0.925,0.162,1.346,0.369c0.416,0.211,0.793,0.486,1.102,0.814C14.193,18.931,14.601,19.72,14.842,20.542z"/>
			</g>
			<g>
				<path fill="#F5F5F5" d="M21.251,21.582c-0.65,0-0.564-1.682-0.564-1.682c1.995-4.459,6.441-1.637,6.441-1.637
					c1.727,0.771-0.775,3.209-1.176,3.318C24.07,22.089,21.251,21.582,21.251,21.582z"/>
				<g>
					<circle fill="#664E27" cx="23.854" cy="19.539" r="2.125"/>
					<circle fill="#231F20" cx="23.854" cy="19.539" r="0.75"/>
				</g>
				<path fill="#231F20" d="M20.13,20.542c0.241-0.822,0.648-1.611,1.272-2.266c0.308-0.328,0.687-0.604,1.102-0.814
					c0.42-0.207,0.885-0.324,1.345-0.369c0.934-0.07,1.813,0.162,2.607,0.445c0.402,0.135,0.789,0.295,1.177,0.408
					c0.387,0.115,0.784,0.197,1.188,0.039c-0.307,0.328-0.822,0.379-1.254,0.361c-0.441-0.025-0.867-0.104-1.278-0.184
					c-0.823-0.154-1.615-0.318-2.371-0.244c-0.756,0.047-1.458,0.355-2.081,0.838C21.212,19.242,20.673,19.88,20.13,20.542z"/>
			</g>
			<g>
				<g>
					<path fill="#F09985" d="M19.45,28.576c-0.402-0.098-0.989-0.053-1.762,0.209c-0.068,0.018-0.136,0.041-0.203,0.064
						c-0.067-0.023-0.134-0.047-0.203-0.064c-0.772-0.262-1.359-0.307-1.76-0.209c-1.199,0.291-3.014,0.15-3.014,0.15
						c1.32,1.318,1.947,3.119,4.977,3.119c3.028,0,3.656-1.801,4.977-3.119C22.462,28.726,20.646,28.867,19.45,28.576z"/>
					<path fill="#D47F6C" d="M19.45,28.576c-0.402-0.098-0.989-0.053-1.762,0.209c-0.068,0.018-0.136,0.041-0.203,0.064
						c-0.067-0.023-0.134-0.047-0.203-0.064c-0.772-0.262-1.359-0.307-1.76-0.209c-1.176,0.285-3.021,0.148-3.014,0.15
						c1.992,0.357,2.24,1.375,4.977,1.375s2.984-1.018,4.977-1.375C22.47,28.724,20.626,28.861,19.45,28.576z"/>
				</g>
			</g>
		</g>
		<g>
			<path fill="#231F20" d="M46.519,2C36.503,2,31.034,8.332,31.034,16.667V35.18h30.968V16.667c0-12.395-8.383-12.162-8.383-12.162
				S52.987,2,46.519,2z"/>
			<path fill="#FFDD67" d="M35.476,23.642c0,0-2.23-0.57-2.23-3.871c0-2.611,1.681-3.061,1.681-3.061
				c6.024,0,15.841-7.83,15.841-7.83s3.709,6.912,7.289,7.83c0,0,1.734,0.318,1.734,3.061c0,3.301-2.313,3.871-2.313,3.871
				c-0.031,4.979-6.83,10.985-10.959,10.985C42.388,34.627,35.476,28.621,35.476,23.642z"/>
			<path fill="#EBA352" d="M49.283,25.916c0,1.086-2.249,1.398-2.765,1.398c-0.517,0-2.765-0.385-2.765-1.469
				C43.754,25.845,49.283,25.375,49.283,25.916z"/>
			<g>
				<path fill="#F5F5F5" d="M42.751,21.582c0.652,0,0.565-1.682,0.565-1.682c-1.996-4.459-6.44-1.637-6.44-1.637
					c-1.727,0.771,0.773,3.209,1.174,3.318C39.934,22.089,42.751,21.582,42.751,21.582z"/>
				<g>
					<circle fill="#664E27" cx="40.148" cy="19.539" r="2.126"/>
					<path fill="#231F20" d="M40.897,19.539c0,0.416-0.335,0.748-0.749,0.748c-0.415,0-0.751-0.332-0.751-0.748
						c0-0.414,0.336-0.748,0.751-0.748C40.563,18.791,40.897,19.125,40.897,19.539z"/>
				</g>
				<path fill="#231F20" d="M43.874,20.542c-0.543-0.662-1.082-1.301-1.705-1.785c-0.625-0.482-1.327-0.791-2.083-0.838
					c-0.757-0.074-1.55,0.09-2.372,0.244c-0.411,0.08-0.836,0.158-1.279,0.184c-0.43,0.018-0.946-0.033-1.254-0.361
					c0.404,0.158,0.804,0.076,1.189-0.039c0.389-0.113,0.775-0.273,1.177-0.408c0.796-0.283,1.675-0.516,2.608-0.445
					c0.46,0.045,0.924,0.162,1.345,0.369c0.415,0.211,0.793,0.486,1.102,0.814C43.226,18.931,43.633,19.72,43.874,20.542z"/>
			</g>
			<g>
				<path fill="#F5F5F5" d="M50.283,21.582c-0.65,0-0.564-1.682-0.564-1.682c1.995-4.459,6.44-1.637,6.44-1.637
					c1.729,0.771-0.774,3.209-1.176,3.318C53.102,22.089,50.283,21.582,50.283,21.582z"/>
				<g>
					<circle fill="#664E27" cx="52.887" cy="19.539" r="2.126"/>
					<circle fill="#231F20" cx="52.887" cy="19.539" r="0.75"/>
				</g>
				<path fill="#231F20" d="M49.162,20.542c0.241-0.822,0.648-1.611,1.272-2.266c0.309-0.328,0.686-0.604,1.102-0.814
					c0.42-0.207,0.885-0.324,1.344-0.369c0.934-0.07,1.813,0.162,2.609,0.445c0.402,0.135,0.787,0.295,1.175,0.408
					c0.388,0.115,0.784,0.197,1.188,0.039c-0.306,0.328-0.822,0.379-1.252,0.361c-0.443-0.025-0.868-0.104-1.28-0.184
					c-0.822-0.154-1.614-0.318-2.37-0.244c-0.756,0.047-1.457,0.355-2.081,0.838C50.243,19.242,49.706,19.88,49.162,20.542z"/>
			</g>
			<g>
				<g>
					<path fill="#F09985" d="M48.481,28.576c-0.401-0.098-0.988-0.053-1.762,0.209c-0.067,0.018-0.135,0.041-0.201,0.064
						c-0.068-0.023-0.135-0.047-0.203-0.064c-0.773-0.262-1.36-0.307-1.762-0.209c-1.197,0.291-3.014,0.15-3.014,0.15
						c1.32,1.318,1.948,3.119,4.979,3.119c3.027,0,3.656-1.801,4.977-3.119C51.495,28.726,49.679,28.867,48.481,28.576z"/>
					<path fill="#D47F6C" d="M48.481,28.576c-0.401-0.098-0.988-0.053-1.762,0.209c-0.067,0.018-0.135,0.041-0.201,0.064
						c-0.068-0.023-0.135-0.047-0.203-0.064c-0.773-0.262-1.36-0.307-1.762-0.209c-1.176,0.285-3.02,0.148-3.014,0.15
						c1.994,0.357,2.241,1.375,4.979,1.375c2.735,0,2.984-1.018,4.977-1.375C51.501,28.724,49.657,28.861,48.481,28.576z"/>
				</g>
			</g>
		</g>
	</g>
	<g>
		<g>
			<g>
				<path fill="#231F20" d="M25.579,58.115c-0.614,6.689-6.854,2.938-7.462,1.867c-2.015-3.543,1.237-10.018,3.453-10.018
					C23.784,49.965,25.989,53.65,25.579,58.115z"/>
				<path fill="#231F20" d="M38.425,58.115c0.614,6.689,6.852,2.938,7.46,1.867c2.015-3.543-1.237-10.018-3.451-10.018
					C40.218,49.965,38.013,53.65,38.425,58.115z"/>
			</g>
		</g>
		<path fill="#231F20" d="M31.851,32.968c8.33,0,13.463,5.098,13.463,11.432v4.25c0,5.002-3.627,5.004-3.625,5.002H21.493
			c0.002,0.002-3.107,0-3.107-5.002c0-2.355,0-4.25,0-4.25C18.386,38.066,23.793,32.968,31.851,32.968z"/>
		<path fill="#C28FEF" d="M31.851,35.096c-7.239,0-12.099,3.703-12.099,8.305c0,0,0,0.543,0,1.373c0-4.6,4.859-8.303,12.099-8.303
			c7.484,0,12.097,3.703,12.097,8.303V43.4C43.947,38.799,39.335,35.096,31.851,35.096z"/>
		<path fill="#FFDD67" d="M44.267,52.439c0,0,1.616,0.393,1.616-1.924c0-1.834-2.107-1.713-2.107-1.713v-2.518H24.536
			c-0.921-1.977,0.113-4.016,0.113-4.016c-1.857,1.707-1.564,4.016-1.564,4.016H19.95v2.518c0,0-2.134-0.211-2.134,1.713
			c0,2.316,1.696,1.924,1.696,1.924c0,3.459,3.625,7.25,12.588,7.25C40.591,59.689,44.267,56.592,44.267,52.439z"/>
		<g>
			<path opacity="0.5" fill="#FF717F" d="M43.737,53.971c-0.172-1.242-1.588-1.99-3.162-1.67c-1.576,0.318-2.716,1.584-2.544,2.826
				c0.171,1.24,1.586,1.99,3.162,1.67C42.769,56.479,43.907,55.213,43.737,53.971z"/>
			<path opacity="0.5" fill="#FF717F" d="M23.427,52.301c-1.574-0.32-2.99,0.428-3.16,1.67c-0.172,1.242,0.967,2.508,2.542,2.826
				c1.576,0.32,2.991-0.43,3.162-1.67C26.143,53.885,25.003,52.619,23.427,52.301z"/>
			<path fill="#574137" d="M28.462,54.941c-0.066,0.076-0.102,0.176-0.102,0.297c-0.002,0.818,1.623,1.822,3.629,1.822
				c2.003,0,3.629-0.998,3.629-1.816c0-0.111-0.033-0.227-0.088-0.303c0,0-1.568,0.707-3.541,0.707
				C30.018,55.648,28.462,54.941,28.462,54.941z"/>
			<g>
				<path fill="#FFFFFF" d="M41.183,49.854c0,1.842-1.479,3.336-3.301,3.336s-3.3-1.494-3.3-3.336c0-1.846,1.478-3.338,3.3-3.338
					S41.183,48.008,41.183,49.854z"/>
				<path fill="#FFFFFF" d="M29.392,49.854c0,1.842-1.477,3.336-3.3,3.336c-1.822,0-3.3-1.494-3.3-3.336
					c0-1.846,1.478-3.338,3.3-3.338C27.915,46.516,29.392,48.008,29.392,49.854z"/>
				<g>
					<path fill="#664E27" d="M40.181,49.854c0,1.27-1.028,2.297-2.299,2.297c-1.27,0-2.298-1.027-2.298-2.297
						c0-1.271,1.028-2.299,2.298-2.299C39.152,47.555,40.181,48.582,40.181,49.854z"/>
					<path fill="#231F20" d="M38.632,49.854c0,0.414-0.338,0.748-0.749,0.748c-0.415,0-0.751-0.334-0.751-0.748
						c0-0.416,0.336-0.75,0.751-0.75C38.294,49.104,38.632,49.438,38.632,49.854z"/>
				</g>
				<g>
					<path fill="#664E27" d="M28.39,49.854c0,1.27-1.027,2.297-2.298,2.297s-2.299-1.027-2.299-2.297
						c0-1.271,1.028-2.299,2.299-2.299S28.39,48.582,28.39,49.854z"/>
					<path fill="#231F20" d="M26.842,49.854c0,0.414-0.335,0.748-0.75,0.748s-0.75-0.334-0.75-0.748c0-0.416,0.335-0.75,0.75-0.75
						S26.842,49.438,26.842,49.854z"/>
				</g>
			</g>
		</g>
	</g>
</g>
</svg>
