<?xml version="1.0" encoding="utf-8"?>
<!-- Generator: Adobe Illustrator 15.0.0, SVG Export Plug-In . SVG Version: 6.00 Build 0)  -->
<!DOCTYPE svg PUBLIC "-//W3C//DTD SVG 1.1//EN" "http://www.w3.org/Graphics/SVG/1.1/DTD/svg11.dtd">
<svg version="1.1" id="Layer_1" xmlns="http://www.w3.org/2000/svg" xmlns:xlink="http://www.w3.org/1999/xlink" x="0px" y="0px"
	 width="64px" height="64px" viewBox="0 0 64 64" enable-background="new 0 0 64 64" xml:space="preserve">
<g>
	<g>
		<path fill="#231F20" d="M17.486,2C7.47,2,2.002,8.33,2.002,16.667v18.509H32.97V16.667c0-12.395-8.382-12.164-8.382-12.164
			S23.957,2,17.486,2z"/>
		<path fill="#FFDD67" d="M6.443,23.642c0,0-2.229-0.57-2.229-3.871c0-2.611,1.681-3.061,1.681-3.061
			c6.024,0,15.839-7.83,15.839-7.83s3.711,6.912,7.291,7.83c0,0,1.733,0.318,1.733,3.061c0,3.301-2.313,3.871-2.313,3.871
			c-0.031,4.979-6.831,10.984-10.959,10.984C13.356,34.626,6.443,28.621,6.443,23.642z"/>
		<path fill="#EBA352" d="M20.252,25.916c0,1.086-2.249,1.398-2.766,1.398c-0.516,0-2.765-0.385-2.765-1.469
			C14.722,25.845,20.252,25.373,20.252,25.916z"/>
		<g>
			<path fill="#F5F5F5" d="M13.72,21.58c0.651,0,0.565-1.68,0.565-1.68c-1.996-4.459-6.44-1.637-6.44-1.637
				c-1.727,0.771,0.773,3.209,1.174,3.316C10.901,22.089,13.72,21.58,13.72,21.58z"/>
			<g>
				<circle fill="#664E27" cx="11.116" cy="19.539" r="2.125"/>
				<circle fill="#231F20" cx="11.116" cy="19.539" r="0.75"/>
			</g>
			<path fill="#231F20" d="M14.843,20.542c-0.545-0.662-1.082-1.303-1.706-1.787c-0.625-0.482-1.326-0.789-2.082-0.836
				c-0.758-0.074-1.55,0.088-2.372,0.244c-0.412,0.08-0.836,0.158-1.279,0.184c-0.431,0.018-0.947-0.033-1.254-0.363
				c0.405,0.16,0.803,0.076,1.189-0.039c0.388-0.111,0.773-0.271,1.176-0.406c0.795-0.283,1.676-0.516,2.608-0.445
				c0.461,0.045,0.924,0.162,1.346,0.369c0.415,0.211,0.792,0.486,1.101,0.814C14.193,18.931,14.601,19.72,14.843,20.542z"/>
		</g>
		<g>
			<path fill="#F5F5F5" d="M21.252,21.58c-0.65,0-0.565-1.68-0.565-1.68c1.996-4.459,6.44-1.637,6.44-1.637
				c1.729,0.771-0.773,3.209-1.175,3.316C24.07,22.089,21.252,21.58,21.252,21.58z"/>
			<g>
				<circle fill="#664E27" cx="23.856" cy="19.539" r="2.125"/>
				<circle fill="#231F20" cx="23.855" cy="19.539" r="0.75"/>
			</g>
			<path fill="#231F20" d="M20.13,20.542c0.241-0.822,0.649-1.611,1.273-2.266c0.308-0.328,0.686-0.604,1.102-0.814
				c0.42-0.207,0.884-0.324,1.344-0.369c0.933-0.07,1.813,0.162,2.608,0.445c0.403,0.135,0.788,0.295,1.176,0.406
				c0.387,0.115,0.784,0.199,1.188,0.039c-0.306,0.33-0.822,0.381-1.253,0.363c-0.443-0.025-0.867-0.104-1.279-0.184
				c-0.822-0.156-1.614-0.318-2.37-0.244c-0.757,0.047-1.458,0.354-2.082,0.836C21.211,19.24,20.674,19.88,20.13,20.542z"/>
		</g>
		<g>
			<g>
				<path fill="#F09985" d="M19.449,28.576c-0.401-0.1-0.987-0.053-1.761,0.207c-0.068,0.02-0.136,0.043-0.202,0.064
					c-0.067-0.021-0.135-0.045-0.204-0.064c-0.772-0.26-1.358-0.307-1.76-0.207c-1.198,0.291-3.015,0.148-3.015,0.148
					c1.321,1.32,1.949,3.121,4.979,3.121c3.028,0,3.656-1.801,4.978-3.121C22.464,28.724,20.647,28.867,19.449,28.576z"/>
				<path fill="#D47F6C" d="M19.449,28.576c-0.401-0.1-0.987-0.053-1.761,0.207c-0.068,0.02-0.136,0.043-0.202,0.064
					c-0.067-0.021-0.135-0.045-0.204-0.064c-0.772-0.26-1.358-0.307-1.76-0.207c-1.176,0.285-3.02,0.148-3.015,0.148
					c1.993,0.359,2.242,1.377,4.979,1.377c2.735,0,2.984-1.018,4.978-1.377C22.469,28.724,20.625,28.861,19.449,28.576z"/>
			</g>
		</g>
	</g>
	<g>
		<g>
			<g>
				<path fill="#231F20" d="M31.897,17.32l1.508,2.756h26.226l1.142-2.945c0-10.551-2.454-15.021-14.131-15.129
					C34.846,1.892,31.897,6.576,31.897,17.32z"/>
				<path fill="#FFDD67" d="M59.684,17.14c-0.093,0.607-0.218,1.182-0.39,1.506c-0.31,0.58-0.939,0.91-0.939,0.91
					s0.17-1.178,0.109-2.826c-0.658-9.729-1.226-7.055-11.945-7.055c-10.715,0-11.285-2.668-11.945,7.041
					c-0.062,1.656,0.107,2.84,0.107,2.84s-0.631-0.33-0.938-0.91c-0.173-0.324-0.297-0.898-0.388-1.506
					c-1.014-0.266-2.32-0.043-2.32,2.877c0,1.816,0.666,3.307,2.911,3.469c0.955,7.365,3.804,8.563,9.526,11.177
					c1.507,0.688,4.588,0.688,6.094,0c5.723-2.615,8.57-3.812,9.526-11.177c2.245-0.162,2.91-1.652,2.91-3.469
					C62.002,17.097,60.696,16.875,59.684,17.14z"/>
			</g>
			<g>
				<g>
					<path fill="#574137" d="M52.29,27.734c0,1.887-2.527,3.473-5.648,3.473c-3.118,0-5.646-1.586-5.646-3.473
						c0,0,3.003,0.168,5.647,0.168C49.286,27.902,52.29,27.734,52.29,27.734z"/>
				</g>
				<path fill="#FFFFFF" d="M51.813,28c0,0.953-2.313,1.707-5.169,1.707c-2.855,0-5.17-0.754-5.17-1.707c0,0,2.442,0.189,5.17,0.189
					S51.813,28,51.813,28z"/>
			</g>
			<path fill="#EBA352" d="M49.468,25.167c0,1.1-2.297,1.416-2.826,1.416c-0.527,0-2.821-0.389-2.821-1.486
				C43.82,25.097,49.468,24.623,49.468,25.167z"/>
		</g>
		<g>
			<g>
				<path fill="#F5F5F5" d="M36.085,17.519c-0.179,0.838-0.393,2.943,3.58,2.869c4.115-0.078,3.953,0.277,4.153-1.113
					c0.174-1.217-1.27-2.568-3.404-3.053C38.279,15.736,36.339,16.318,36.085,17.519z"/>
				<g>
					<ellipse fill="#664E27" cx="40.32" cy="18.138" rx="2.171" ry="2.15"/>
					<ellipse fill="#231F20" cx="40.32" cy="18.138" rx="0.75" ry="0.742"/>
				</g>
				<path fill="#664E27" d="M36.006,18.333c-0.578-3.732,7.795-3.533,7.795,0.441C42.591,15.613,36.819,15.503,36.006,18.333z"/>
			</g>
			<g>
				<path fill="#F5F5F5" d="M56.951,17.519c0.179,0.838,0.393,2.943-3.58,2.869c-4.116-0.078-3.952,0.277-4.153-1.113
					c-0.174-1.217,1.269-2.568,3.404-3.053C54.757,15.736,56.697,16.318,56.951,17.519z"/>
				<g>
					<ellipse fill="#664E27" cx="52.716" cy="18.138" rx="2.171" ry="2.15"/>
					<ellipse fill="#231F20" cx="52.715" cy="18.138" rx="0.75" ry="0.742"/>
				</g>
				<path fill="#664E27" d="M57.029,18.333c0.579-3.732-7.794-3.533-7.794,0.441C50.444,15.613,56.216,15.503,57.029,18.333z"/>
			</g>
		</g>
	</g>
	<g>
		<path fill="#231F20" d="M17.485,32.966c8.518,0,13.764,4.775,13.764,10.707v3.984c0,4.684-3.707,4.684-3.705,4.684H6.899
			c0.001,0-3.177,0-3.177-4.684c0-2.207,0-3.984,0-3.984C3.723,37.741,9.25,32.966,17.485,32.966z"/>
		<path fill="#FFDD67" d="M29.95,48.7l-0.514-5.65c0-3.611-5.667-0.727-11.951-0.727c-6.283,0-11.95-2.885-11.95,0.727L5.022,48.7
			c-2.737,0-2.737,4.445,0,4.445c0,5.516,7.418,8.854,12.463,8.854c5.046,0,12.465-3.338,12.465-8.854
			C32.687,53.146,32.687,48.7,29.95,48.7z"/>
		<g opacity="0.5">
			<path fill="#FF717F" d="M29.222,54.294c-0.171-1.242-1.587-1.99-3.162-1.67c-1.576,0.318-2.715,1.584-2.544,2.824
				c0.171,1.242,1.587,1.99,3.162,1.672C28.253,56.8,29.392,55.536,29.222,54.294z"/>
			<path fill="#FF717F" d="M8.911,52.624c-1.575-0.32-2.991,0.428-3.161,1.67C5.579,55.536,6.718,56.8,8.293,57.12
				c1.575,0.318,2.99-0.43,3.161-1.672C11.626,54.208,10.486,52.942,8.911,52.624z"/>
		</g>
		<path fill="#574137" d="M13.959,55.265c-0.066,0.076-0.103,0.176-0.103,0.295c-0.001,0.818,1.625,1.822,3.629,1.822
			c2.005,0,3.63-0.996,3.63-1.814c0-0.111-0.031-0.227-0.087-0.303c0,0-1.568,0.705-3.543,0.705
			C15.516,55.97,13.959,55.265,13.959,55.265z"/>
		<g>
			<g>
				<circle fill="#FFFFFF" cx="23.623" cy="49.208" r="3.629"/>
				<g>
					<ellipse fill="#664E27" cx="23.624" cy="49.208" rx="2.528" ry="2.498"/>
					<ellipse fill="#231F20" cx="23.622" cy="49.208" rx="0.851" ry="0.84"/>
				</g>
			</g>
			<g>
				<circle fill="#FFFFFF" cx="11.349" cy="49.208" r="3.629"/>
				<g>
					<ellipse fill="#664E27" cx="11.349" cy="49.208" rx="2.527" ry="2.498"/>
					<ellipse fill="#231F20" cx="11.348" cy="49.208" rx="0.85" ry="0.84"/>
				</g>
			</g>
		</g>
	</g>
	<g>
		<path fill="#231F20" d="M46.519,32.966c8.517,0,13.763,4.775,13.763,10.707v3.984c0,4.684-3.707,4.684-3.705,4.684H35.932
			c0.001,0-3.177,0-3.177-4.684c0-2.207,0-3.984,0-3.984C32.755,37.741,38.282,32.966,46.519,32.966z"/>
		<path fill="#FFDD67" d="M58.982,48.7l-0.514-5.65c0-3.611-5.667-0.727-11.95-0.727c-6.284,0-11.951-2.885-11.951,0.727
			l-0.513,5.65c-2.737,0-2.737,4.445,0,4.445c0,5.516,7.418,8.854,12.464,8.854c5.045,0,12.464-3.338,12.464-8.854
			C61.719,53.146,61.719,48.7,58.982,48.7z"/>
		<g opacity="0.5">
			<path fill="#FF717F" d="M58.254,54.294c-0.171-1.242-1.587-1.99-3.162-1.67c-1.576,0.318-2.716,1.584-2.544,2.824
				c0.171,1.242,1.586,1.99,3.162,1.672C57.285,56.8,58.424,55.536,58.254,54.294z"/>
			<path fill="#FF717F" d="M37.943,52.624c-1.575-0.32-2.991,0.428-3.161,1.67c-0.171,1.242,0.968,2.506,2.543,2.826
				c1.576,0.318,2.99-0.43,3.161-1.672C40.657,54.208,39.519,52.942,37.943,52.624z"/>
		</g>
		<path fill="#574137" d="M42.991,55.265c-0.066,0.076-0.103,0.176-0.103,0.295c-0.001,0.818,1.625,1.822,3.63,1.822
			c2.004,0,3.629-0.996,3.629-1.814c0-0.111-0.031-0.227-0.086-0.303c0,0-1.569,0.705-3.543,0.705
			C44.548,55.97,42.991,55.265,42.991,55.265z"/>
		<g>
			<g>
				<circle fill="#FFFFFF" cx="52.655" cy="49.208" r="3.629"/>
				<g>
					<ellipse fill="#664E27" cx="52.656" cy="49.208" rx="2.528" ry="2.498"/>
					<ellipse fill="#231F20" cx="52.654" cy="49.208" rx="0.85" ry="0.84"/>
				</g>
			</g>
			<g>
				<circle fill="#FFFFFF" cx="40.381" cy="49.208" r="3.629"/>
				<g>
					<ellipse fill="#664E27" cx="40.381" cy="49.208" rx="2.527" ry="2.498"/>
					<ellipse fill="#231F20" cx="40.38" cy="49.208" rx="0.85" ry="0.838"/>
				</g>
			</g>
		</g>
	</g>
</g>
</svg>
