<?xml version="1.0" encoding="utf-8"?>
<!-- Generator: Adobe Illustrator 15.0.0, SVG Export Plug-In . SVG Version: 6.00 Build 0)  -->
<!DOCTYPE svg PUBLIC "-//W3C//DTD SVG 1.1//EN" "http://www.w3.org/Graphics/SVG/1.1/DTD/svg11.dtd">
<svg version="1.1" id="Layer_1" xmlns="http://www.w3.org/2000/svg" xmlns:xlink="http://www.w3.org/1999/xlink" x="0px" y="0px"
	 width="64px" height="64px" viewBox="0 0 64 64" enable-background="new 0 0 64 64" xml:space="preserve">
<g>
	<g>
		<path fill="#231F20" d="M62.151,14.982c0,2.111,0,20.191,0,20.191h-27.32c0,0,0-18.08,0-20.191
			C34.831-3.893,62.151-3.893,62.151,14.982z"/>
		<path fill="#FFDD67" d="M61.36,18.912c0-3.842-2.889-1.893-2.889-1.893c0.211-5.432-2.301-5.879-2.301-5.879
			c-11.717,0-17.66,5.879-17.66,5.879s-2.895-1.949-2.895,1.893c0,1.468,0.553,2.668,2.424,2.797
			c0.791,5.938,4.713,7.164,10.451,7.164c5.742,0,9.66-1.227,10.453-7.164C60.808,21.58,61.36,20.38,61.36,18.912z"/>
		<g>
			<path fill="#664E27" d="M53.286,22.875c0,1.522-2.1,2.799-4.689,2.799c-2.596,0-4.697-1.276-4.697-2.799
				c0,0,2.498,0.136,4.697,0.136C50.794,23.011,53.286,22.875,53.286,22.875z"/>
		</g>
		<g>
			<path fill="#664E27" d="M45.565,17.447c0,0.828-0.729,1.502-1.615,1.502c-0.893,0-1.615-0.674-1.615-1.502
				c0-0.835,0.723-1.504,1.615-1.504C44.837,15.943,45.565,16.612,45.565,17.447z"/>
		</g>
		<g>
			<path fill="#664E27" d="M54.87,17.447c0,0.828-0.717,1.502-1.609,1.502c-0.891,0-1.615-0.674-1.615-1.502
				c0-0.835,0.725-1.504,1.615-1.504C54.153,15.943,54.87,16.612,54.87,17.447z"/>
		</g>
	</g>
	<g>
		<path fill="#FF4848" d="M59.271,44.918L51.642,31.84c-1.201-2.057,1.633-3.254,2.832-1.196l7.623,13.078L59.271,44.918z"/>
		<path fill="#FFDD67" d="M59.271,44.918c1.443,2.479,2.16,2.352,2.941,2.022c0.781-0.331,1.332-0.738-0.115-3.219L59.271,44.918z"
			/>
	</g>
	<g>
		<rect x="45.417" y="27.246" fill="#FFDD67" width="6.146" height="4.527"/>
		<g>
			<g>
				<path fill="#FFDD67" d="M50.612,63.174l-0.012-15.652c0-2.504,3.166-2.504,3.168,0.002l0.006,15.65H50.612z"/>
				<path fill="#FF4848" d="M49.358,61.06c0.998-1.133,4.66-1.133,5.66,0v2.114h-5.66V61.06z"/>
			</g>
			<g>
				<path fill="#FFDD67" d="M43.214,63.174l-0.008-15.652c-0.004-2.504,3.164-2.504,3.168,0.002l0.008,15.65H43.214z"/>
				<path fill="#FF4848" d="M47.624,61.06c-0.998-1.133-4.66-1.133-5.66,0v2.114h5.66V61.06z"/>
			</g>
		</g>
		<path fill="#FF4848" d="M52.606,29.575h-1.039c0,0.929-1.379,1.687-3.078,1.687c-1.697,0-3.072-0.758-3.072-1.687h-1.043
			c-1.402,1.097-1.27,6.501-2.344,11.963c-1.309,6.671-3.688,10.779-3.688,10.779h20.299c0,0-2.379-4.116-3.691-10.783
			C53.876,36.072,54.013,30.672,52.606,29.575z"/>
	</g>
	<g>
		<path fill="#231F20" d="M1.845,14.982c0,2.111,0,20.191,0,20.191h27.318c0,0,0-18.08,0-20.191
			C29.164-3.893,1.845-3.893,1.845,14.982z"/>
		<path fill="#FFDD67" d="M2.634,18.912c0-3.842,2.889-1.893,2.889-1.893c4.697-2.955,4.697-8.139,4.697-8.139
			c0.488,4.628,15.266,8.139,15.266,8.139s2.893-1.949,2.893,1.893c0,1.468-0.553,2.668-2.424,2.797
			c-0.789,5.938-4.713,7.164-10.449,7.164c-5.744,0-9.662-1.227-10.455-7.164C3.187,21.58,2.634,20.38,2.634,18.912z"/>
		<g>
			<path fill="#664E27" d="M10.708,22.875c0,1.522,2.102,2.799,4.691,2.799c2.594,0,4.695-1.276,4.695-2.799
				c0,0-2.496,0.136-4.695,0.136C13.203,23.011,10.708,22.875,10.708,22.875z"/>
		</g>
		<g>
			<path fill="#664E27" d="M18.431,17.447c0,0.828,0.727,1.502,1.613,1.502c0.895,0,1.615-0.674,1.615-1.502
				c0-0.835-0.721-1.504-1.615-1.504C19.158,15.943,18.431,16.612,18.431,17.447z"/>
		</g>
		<g>
			<path fill="#664E27" d="M9.126,17.447c0,0.828,0.717,1.502,1.607,1.502s1.615-0.674,1.615-1.502c0-0.835-0.725-1.504-1.615-1.504
				S9.126,16.612,9.126,17.447z"/>
		</g>
	</g>
	<g>
		<path fill="#FFDD67" d="M4.724,44.918l7.629-13.078c1.201-2.057-1.631-3.254-2.83-1.196L1.9,43.722L4.724,44.918z"/>
		<path fill="#FFDD67" d="M4.724,44.918c-1.441,2.479-2.158,2.352-2.939,2.022c-0.783-0.331-1.332-0.738,0.115-3.219L4.724,44.918z"
			/>
	</g>
	<g>
		<path fill="#FFDD67" d="M29.521,42.35L18.246,32.146c-1.771-1.604,0.564-3.58,2.342-1.975l11.268,10.206L29.521,42.35z"/>
		<path fill="#FFDD67" d="M29.521,42.35c2.139,1.935,2.783,1.602,3.428,1.059c0.648-0.546,1.046-1.097-1.094-3.031L29.521,42.35z"/>
	</g>
	<g>
		<path fill="#FF4848" d="M33.915,42.35L45.19,32.146c1.773-1.604-0.563-3.58-2.34-1.975L31.582,40.377L33.915,42.35z"/>
		<path fill="#FFDD67" d="M33.915,42.35c-2.136,1.935-2.781,1.602-3.425,1.059c-0.648-0.546-1.049-1.097,1.092-3.031L33.915,42.35z"
			/>
	</g>
	<g>
		<rect x="12.431" y="27.246" fill="#FFDD67" width="6.148" height="4.527"/>
		<g>
			<g>
				<path fill="#FFDD67" d="M13.384,63.174l0.01-15.652c0-2.504-3.166-2.504-3.168,0.002l-0.006,15.65H13.384z"/>
				<path fill="#C28FEF" d="M14.636,61.06c-0.996-1.133-4.66-1.133-5.658,0v2.114h5.658V61.06z"/>
			</g>
			<g>
				<path fill="#FFDD67" d="M20.783,63.174l0.008-15.652c0.004-2.504-3.166-2.504-3.17,0.002l-0.006,15.65H20.783z"/>
				<path fill="#C28FEF" d="M16.373,61.06c0.998-1.133,4.658-1.133,5.658,0v2.114h-5.658V61.06z"/>
			</g>
		</g>
		<path fill="#C28FEF" d="M11.388,29.575h1.041c0,0.929,1.377,1.687,3.076,1.687c1.697,0,3.072-0.758,3.072-1.687h1.045
			c1.402,1.097,2.963,19.778,2.963,19.778H8.423C8.423,49.354,9.982,30.672,11.388,29.575z"/>
	</g>
</g>
</svg>
