<?xml version="1.0" encoding="utf-8"?>
<!-- Generator: Adobe Illustrator 15.0.0, SVG Export Plug-In . SVG Version: 6.00 Build 0)  -->
<!DOCTYPE svg PUBLIC "-//W3C//DTD SVG 1.1//EN" "http://www.w3.org/Graphics/SVG/1.1/DTD/svg11.dtd">
<svg version="1.1" id="Layer_1" xmlns="http://www.w3.org/2000/svg" xmlns:xlink="http://www.w3.org/1999/xlink" x="0px" y="0px"
	 width="64px" height="64px" viewBox="0 0 64 64" enable-background="new 0 0 64 64" xml:space="preserve">
<g>
	<g>
		<g>
			<path fill="#231F20" d="M17.486,2C7.471,2,2.002,8.33,2.002,16.667v18.511H32.97V16.667c0-12.395-8.383-12.162-8.383-12.162
				S23.955,2,17.486,2z"/>
			<path fill="#FFDD67" d="M6.443,23.642c0,0-2.23-0.57-2.23-3.871c0-2.611,1.681-3.061,1.681-3.061
				c6.024,0,15.841-7.83,15.841-7.83s3.709,6.912,7.289,7.83c0,0,1.734,0.318,1.734,3.061c0,3.301-2.313,3.871-2.313,3.871
				c-0.031,4.979-6.83,10.984-10.959,10.984C13.355,34.626,6.443,28.621,6.443,23.642z"/>
			<path fill="#EBA352" d="M20.251,25.916c0,1.086-2.249,1.398-2.765,1.398c-0.517,0-2.765-0.385-2.765-1.469
				C14.722,25.845,20.251,25.373,20.251,25.916z"/>
			<g>
				<path fill="#F5F5F5" d="M13.719,21.58c0.652,0,0.565-1.68,0.565-1.68c-1.996-4.459-6.44-1.637-6.44-1.637
					c-1.727,0.771,0.773,3.209,1.174,3.316C10.901,22.089,13.719,21.58,13.719,21.58z"/>
				<g>
					<circle fill="#664E27" cx="11.116" cy="19.539" r="2.126"/>
					<path fill="#231F20" d="M11.865,19.539c0,0.416-0.335,0.748-0.749,0.748c-0.415,0-0.751-0.332-0.751-0.748
						c0-0.414,0.336-0.748,0.751-0.748C11.53,18.791,11.865,19.125,11.865,19.539z"/>
				</g>
				<path fill="#231F20" d="M14.842,20.542c-0.544-0.662-1.082-1.301-1.705-1.787c-0.626-0.48-1.327-0.789-2.083-0.836
					c-0.757-0.074-1.55,0.088-2.372,0.244c-0.411,0.08-0.836,0.158-1.279,0.184c-0.43,0.018-0.946-0.033-1.254-0.363
					c0.404,0.16,0.804,0.076,1.189-0.039c0.389-0.111,0.775-0.271,1.176-0.406c0.797-0.283,1.676-0.516,2.609-0.445
					c0.46,0.045,0.924,0.162,1.345,0.369c0.415,0.211,0.792,0.486,1.102,0.814C14.193,18.931,14.601,19.72,14.842,20.542z"/>
			</g>
			<g>
				<path fill="#F5F5F5" d="M21.251,21.58c-0.65,0-0.564-1.68-0.564-1.68c1.995-4.459,6.44-1.637,6.44-1.637
					c1.729,0.771-0.774,3.209-1.176,3.316C24.07,22.089,21.251,21.58,21.251,21.58z"/>
				<g>
					<circle fill="#664E27" cx="23.854" cy="19.539" r="2.126"/>
					<circle fill="#231F20" cx="23.854" cy="19.539" r="0.75"/>
				</g>
				<path fill="#231F20" d="M20.13,20.542c0.241-0.822,0.648-1.611,1.272-2.266c0.308-0.328,0.686-0.604,1.102-0.814
					c0.42-0.207,0.885-0.324,1.345-0.369c0.933-0.07,1.812,0.162,2.607,0.445c0.403,0.135,0.788,0.295,1.177,0.406
					c0.387,0.115,0.783,0.199,1.189,0.039c-0.308,0.33-0.824,0.381-1.254,0.363c-0.443-0.025-0.868-0.104-1.279-0.184
					c-0.823-0.156-1.615-0.318-2.371-0.244c-0.756,0.047-1.457,0.355-2.081,0.836C21.211,19.242,20.674,19.88,20.13,20.542z"/>
			</g>
			<g>
				<g>
					<path fill="#F09985" d="M19.449,28.576c-0.401-0.1-0.988-0.053-1.762,0.207c-0.067,0.02-0.135,0.043-0.201,0.064
						c-0.068-0.021-0.135-0.045-0.203-0.064c-0.773-0.26-1.36-0.307-1.762-0.207c-1.197,0.291-3.014,0.148-3.014,0.148
						c1.32,1.32,1.948,3.121,4.979,3.121c3.027,0,3.656-1.801,4.977-3.121C22.463,28.724,20.646,28.867,19.449,28.576z"/>
					<path fill="#D47F6C" d="M19.449,28.576c-0.401-0.1-0.988-0.053-1.762,0.207c-0.067,0.02-0.135,0.043-0.201,0.064
						c-0.068-0.021-0.135-0.045-0.203-0.064c-0.773-0.26-1.36-0.307-1.762-0.207c-1.176,0.285-3.02,0.148-3.014,0.148
						c1.994,0.359,2.241,1.377,4.979,1.377c2.735,0,2.984-1.018,4.977-1.377C22.469,28.724,20.625,28.861,19.449,28.576z"/>
				</g>
			</g>
		</g>
		<g>
			<path fill="#231F20" d="M46.518,2C36.502,2,31.034,8.33,31.034,16.667v18.511h30.968V16.667c0-12.395-8.383-12.162-8.383-12.162
				S52.988,2,46.518,2z"/>
			<path fill="#FFDD67" d="M35.477,23.642c0,0-2.23-0.57-2.23-3.871c0-2.611,1.68-3.061,1.68-3.061c6.025,0,15.841-7.83,15.841-7.83
				s3.709,6.912,7.289,7.83c0,0,1.734,0.318,1.734,3.061c0,3.301-2.313,3.871-2.313,3.871c-0.03,4.979-6.829,10.984-10.959,10.984
				C42.389,34.626,35.477,28.621,35.477,23.642z"/>
			<path fill="#EBA352" d="M49.283,25.916c0,1.086-2.249,1.398-2.766,1.398c-0.516,0-2.764-0.385-2.764-1.469
				C43.754,25.845,49.283,25.373,49.283,25.916z"/>
			<g>
				<path fill="#F5F5F5" d="M42.751,21.58c0.652,0,0.565-1.68,0.565-1.68c-1.996-4.459-6.439-1.637-6.439-1.637
					c-1.729,0.771,0.772,3.209,1.174,3.316C39.934,22.089,42.751,21.58,42.751,21.58z"/>
				<g>
					<circle fill="#664E27" cx="40.148" cy="19.539" r="2.125"/>
					<path fill="#231F20" d="M40.898,19.539c0,0.416-0.336,0.748-0.75,0.748c-0.415,0-0.75-0.332-0.75-0.748
						c0-0.414,0.335-0.748,0.75-0.748C40.563,18.791,40.898,19.125,40.898,19.539z"/>
				</g>
				<path fill="#231F20" d="M43.874,20.542c-0.544-0.662-1.081-1.301-1.705-1.787c-0.626-0.48-1.327-0.789-2.083-0.836
					c-0.757-0.074-1.55,0.088-2.372,0.244c-0.411,0.08-0.835,0.158-1.278,0.184c-0.43,0.018-0.947-0.033-1.254-0.363
					c0.404,0.16,0.803,0.076,1.188-0.039c0.388-0.111,0.774-0.271,1.177-0.406c0.795-0.283,1.676-0.516,2.607-0.445
					c0.461,0.045,0.925,0.162,1.346,0.369c0.416,0.211,0.793,0.486,1.102,0.814C43.226,18.931,43.633,19.72,43.874,20.542z"/>
			</g>
			<g>
				<path fill="#F5F5F5" d="M50.283,21.58c-0.65,0-0.564-1.68-0.564-1.68c1.995-4.459,6.44-1.637,6.44-1.637
					c1.728,0.771-0.774,3.209-1.175,3.316C53.102,22.089,50.283,21.58,50.283,21.58z"/>
				<g>
					<circle fill="#664E27" cx="52.887" cy="19.539" r="2.125"/>
					<circle fill="#231F20" cx="52.887" cy="19.539" r="0.75"/>
				</g>
				<path fill="#231F20" d="M49.162,20.542c0.241-0.822,0.648-1.611,1.272-2.266c0.308-0.328,0.686-0.604,1.102-0.814
					c0.42-0.207,0.885-0.324,1.344-0.369c0.934-0.07,1.813,0.162,2.608,0.445c0.403,0.135,0.788,0.295,1.176,0.406
					c0.388,0.115,0.784,0.199,1.189,0.039c-0.307,0.33-0.822,0.381-1.254,0.363c-0.442-0.025-0.867-0.104-1.279-0.184
					c-0.822-0.156-1.614-0.318-2.37-0.244c-0.756,0.047-1.457,0.355-2.081,0.836C50.243,19.242,49.706,19.88,49.162,20.542z"/>
			</g>
			<g>
				<g>
					<path fill="#F09985" d="M48.481,28.576c-0.401-0.1-0.988-0.053-1.761,0.207c-0.068,0.02-0.136,0.043-0.203,0.064
						c-0.067-0.021-0.134-0.045-0.203-0.064c-0.772-0.26-1.359-0.307-1.76-0.207c-1.199,0.291-3.014,0.148-3.014,0.148
						c1.32,1.32,1.947,3.121,4.977,3.121c3.028,0,3.657-1.801,4.978-3.121C51.495,28.724,49.679,28.867,48.481,28.576z"/>
					<path fill="#D47F6C" d="M48.481,28.576c-0.401-0.1-0.988-0.053-1.761,0.207c-0.068,0.02-0.136,0.043-0.203,0.064
						c-0.067-0.021-0.134-0.045-0.203-0.064c-0.772-0.26-1.359-0.307-1.76-0.207c-1.176,0.285-3.021,0.148-3.014,0.148
						c1.992,0.359,2.24,1.377,4.977,1.377s2.985-1.018,4.978-1.377C51.5,28.724,49.657,28.861,48.481,28.576z"/>
				</g>
			</g>
		</g>
	</g>
	<g>
		<g>
			<g>
				<g>
					<path fill="#231F20" d="M40.096,58.114c-0.615,6.689-6.852,2.938-7.461,1.867c-2.015-3.543,1.238-10.02,3.453-10.02
						C38.3,49.962,40.506,53.649,40.096,58.114z"/>
					<path fill="#231F20" d="M52.94,58.114c0.614,6.689,6.852,2.938,7.461,1.867c2.015-3.543-1.238-10.02-3.452-10.02
						C54.734,49.962,52.528,53.649,52.94,58.114z"/>
				</g>
			</g>
			<path fill="#231F20" d="M46.367,32.966c8.329,0,13.463,5.097,13.463,11.431v4.252c0,5.002-3.627,5.002-3.625,5.002H36.011
				c0.002,0-3.107,0-3.107-5.002c0-2.355,0-4.252,0-4.252C32.903,38.063,38.309,32.966,46.367,32.966z"/>
			<path fill="#C28FEF" d="M46.367,35.095c-7.239,0-12.098,3.703-12.098,8.303c0,0,0,0.545,0,1.375
				c0-4.602,4.858-8.305,12.098-8.305c7.484,0,12.097,3.703,12.097,8.305v-1.375C58.464,38.798,53.852,35.095,46.367,35.095z"/>
			<path fill="#FFDD67" d="M58.783,52.438c0,0,1.616,0.393,1.616-1.924c0-1.834-2.107-1.713-2.107-1.713v-2.518H39.053
				c-0.92-1.977,0.113-4.016,0.113-4.016c-1.856,1.707-1.563,4.016-1.563,4.016h-3.134v2.518c0,0-2.135-0.211-2.135,1.713
				c0,2.316,1.696,1.924,1.696,1.924c0,3.459,3.625,7.25,12.586,7.25C55.106,59.688,58.783,56.591,58.783,52.438z"/>
			<g>
				<path opacity="0.5" fill="#FF717F" d="M58.254,53.97c-0.172-1.242-1.588-1.99-3.162-1.67c-1.576,0.318-2.716,1.584-2.544,2.824
					c0.17,1.242,1.586,1.99,3.162,1.672C57.284,56.476,58.424,55.212,58.254,53.97z"/>
				<path opacity="0.5" fill="#FF717F" d="M37.944,52.3c-1.574-0.32-2.99,0.428-3.16,1.67c-0.172,1.242,0.968,2.508,2.542,2.826
					s2.99-0.43,3.16-1.672C40.658,53.884,39.52,52.618,37.944,52.3z"/>
				<path fill="#574137" d="M42.979,54.94c-0.066,0.076-0.103,0.176-0.103,0.295c-0.002,0.818,1.624,1.822,3.629,1.822
					c2.004,0,3.629-0.996,3.629-1.814c0-0.111-0.032-0.227-0.087-0.303c0,0-1.568,0.705-3.542,0.705
					C44.533,55.646,42.979,54.94,42.979,54.94z"/>
				<g>
					<ellipse fill="#FFFFFF" cx="52.398" cy="49.851" rx="3.3" ry="3.338"/>
					<ellipse fill="#FFFFFF" cx="40.609" cy="49.851" rx="3.299" ry="3.338"/>
					<g>
						<circle fill="#664E27" cx="52.398" cy="49.851" r="2.298"/>
						<circle fill="#231F20" cx="52.396" cy="49.851" r="0.75"/>
					</g>
					<g>
						<circle fill="#664E27" cx="40.607" cy="49.851" r="2.299"/>
						<circle fill="#231F20" cx="40.607" cy="49.851" r="0.75"/>
					</g>
				</g>
			</g>
		</g>
		<g>
			<path fill="#231F20" d="M17.484,32.966c8.518,0,13.764,4.775,13.764,10.708v3.982c0,4.684-3.707,4.684-3.705,4.684H6.898
				c0.001,0-3.177,0-3.177-4.684c0-2.207,0-3.982,0-3.982C3.722,37.741,9.248,32.966,17.484,32.966z"/>
			<path fill="#FFDD67" d="M29.949,48.7l-0.514-5.65c0-3.611-5.667-0.727-11.951-0.727c-6.283,0-11.949-2.885-11.949,0.727
				L5.021,48.7c-2.736,0-2.736,4.445,0,4.445c0,5.516,7.418,8.854,12.463,8.854c5.046,0,12.465-3.338,12.465-8.854
				C32.686,53.146,32.686,48.7,29.949,48.7z"/>
			<g opacity="0.5">
				<path fill="#FF717F" d="M29.221,54.294c-0.171-1.242-1.587-1.99-3.162-1.67c-1.576,0.318-2.715,1.584-2.545,2.824
					c0.172,1.242,1.588,1.99,3.163,1.672C28.252,56.8,29.391,55.536,29.221,54.294z"/>
				<path fill="#FF717F" d="M8.91,52.624c-1.575-0.32-2.991,0.428-3.161,1.67C5.578,55.536,6.717,56.8,8.292,57.12
					c1.575,0.318,2.99-0.43,3.161-1.672C11.625,54.208,10.486,52.942,8.91,52.624z"/>
			</g>
			<path fill="#574137" d="M13.958,55.265c-0.066,0.076-0.103,0.176-0.103,0.295c0,0.818,1.625,1.822,3.629,1.822
				c2.005,0,3.629-0.996,3.629-1.814c0-0.111-0.031-0.227-0.086-0.303c0,0-1.568,0.705-3.543,0.705
				C15.515,55.97,13.958,55.265,13.958,55.265z"/>
			<g>
				<g>
					<circle fill="#FFFFFF" cx="23.622" cy="49.208" r="3.629"/>
					<g>
						<ellipse fill="#664E27" cx="23.623" cy="49.208" rx="2.528" ry="2.498"/>
						<ellipse fill="#231F20" cx="23.621" cy="49.208" rx="0.85" ry="0.84"/>
					</g>
				</g>
				<g>
					<circle fill="#FFFFFF" cx="11.348" cy="49.208" r="3.629"/>
					<g>
						<ellipse fill="#664E27" cx="11.348" cy="49.208" rx="2.527" ry="2.498"/>
						<ellipse fill="#231F20" cx="11.347" cy="49.208" rx="0.85" ry="0.84"/>
					</g>
				</g>
			</g>
		</g>
	</g>
</g>
</svg>
