<?xml version="1.0" encoding="utf-8"?>
<!-- Generator: Adobe Illustrator 15.0.0, SVG Export Plug-In . SVG Version: 6.00 Build 0)  -->
<!DOCTYPE svg PUBLIC "-//W3C//DTD SVG 1.1//EN" "http://www.w3.org/Graphics/SVG/1.1/DTD/svg11.dtd">
<svg version="1.1" id="Layer_1" xmlns="http://www.w3.org/2000/svg" xmlns:xlink="http://www.w3.org/1999/xlink" x="0px" y="0px"
	 width="64px" height="64px" viewBox="0 0 64 64" enable-background="new 0 0 64 64" xml:space="preserve">
<g>
	<path fill="#594640" d="M32.002,1.998c-18.111,0-28,11.449-28,26.527v33.473h56V28.525c0-22.413-15.159-21.996-15.159-21.996
		S43.702,1.998,32.002,1.998z"/>
	<path fill="#D6A57C" d="M12.033,41.137c0,0-4.031-1.031-4.031-6.998c0-4.727,3.039-5.538,3.039-5.538
		c10.895,0,28.642-14.157,28.642-14.157s6.709,12.5,13.185,14.157c0,0,3.135,0.578,3.135,5.538c0,5.967-4.183,6.998-4.183,6.998
		c-0.057,9.002-12.351,19.861-19.817,19.861S12.033,50.139,12.033,41.137z"/>
	<path fill="#B58360" d="M37.002,45.246c0,1.963-4.066,2.529-5,2.529s-5-0.695-5-2.656C27.002,45.119,37.002,44.268,37.002,45.246z"
		/>
	<g>
		<path fill="#F5F5F5" d="M25.191,37.406c1.176,0,1.02-3.037,1.02-3.037c-3.607-8.062-11.645-2.96-11.645-2.96
			c-3.123,1.396,1.4,5.804,2.125,5.998C20.096,38.328,25.191,37.406,25.191,37.406z"/>
		<g>
			<circle fill="#664E27" cx="20.484" cy="33.717" r="3.844"/>
			<circle fill="#231F20" cx="20.484" cy="33.717" r="1.25"/>
		</g>
		<path fill="#231F20" d="M27.221,35.531c-0.982-1.199-1.955-2.353-3.085-3.231c-1.129-0.873-2.397-1.426-3.766-1.513
			c-1.367-0.132-2.801,0.16-4.288,0.441c-0.744,0.145-1.512,0.288-2.313,0.333c-0.777,0.032-1.713-0.06-2.268-0.655
			c0.732,0.291,1.451,0.137,2.149-0.072c0.703-0.204,1.4-0.491,2.128-0.736c1.439-0.511,3.029-0.932,4.716-0.804
			c0.834,0.083,1.673,0.294,2.433,0.667c0.752,0.384,1.434,0.88,1.992,1.476C26.047,32.616,26.784,34.044,27.221,35.531z"/>
	</g>
	<g>
		<path fill="#F5F5F5" d="M38.811,37.406c-1.176,0-1.02-3.037-1.02-3.037c3.608-8.062,11.646-2.96,11.646-2.96
			c3.125,1.396-1.4,5.804-2.125,5.998C43.909,38.328,38.811,37.406,38.811,37.406z"/>
		<g>
			<circle fill="#664E27" cx="43.519" cy="33.717" r="3.844"/>
			<circle fill="#231F20" cx="43.519" cy="33.717" r="1.25"/>
		</g>
		<path fill="#231F20" d="M36.783,35.531c0.438-1.487,1.174-2.915,2.303-4.095c0.557-0.596,1.238-1.092,1.99-1.476
			c0.76-0.372,1.599-0.584,2.432-0.667c1.688-0.127,3.277,0.293,4.717,0.804c0.727,0.245,1.424,0.533,2.127,0.736
			c0.697,0.208,1.417,0.362,2.149,0.072c-0.555,0.596-1.49,0.688-2.267,0.655c-0.802-0.045-1.569-0.188-2.313-0.333
			c-1.487-0.281-2.92-0.573-4.288-0.441c-1.367,0.087-2.636,0.64-3.765,1.513C38.738,33.179,37.768,34.332,36.783,35.531z"/>
	</g>
	<g>
		<g>
			<g>
				<g>
					<path fill="#B58360" d="M35.553,50.057c-0.727-0.178-1.787-0.094-3.186,0.375c-0.123,0.037-0.244,0.078-0.365,0.117
						c-0.123-0.039-0.244-0.08-0.367-0.117c-1.398-0.469-2.459-0.553-3.184-0.375c-2.166,0.527-5.449,0.27-5.449,0.27
						c2.387,2.387,3.521,5.645,9,5.645c5.477,0,6.611-3.258,8.999-5.645C41.001,50.326,37.717,50.584,35.553,50.057z"/>
				</g>
				<path fill="#805C44" d="M35.553,50.057c-0.727-0.178-1.787-0.094-3.186,0.375c-0.123,0.037-0.244,0.078-0.365,0.117
					c-0.123-0.039-0.244-0.08-0.367-0.117c-1.398-0.469-2.459-0.553-3.184-0.375c-2.127,0.518-5.461,0.268-5.449,0.27
					c3.602,0.648,4.051,2.488,9,2.488c4.947,0,5.396-1.84,8.999-2.488C41.013,50.324,37.678,50.574,35.553,50.057z"/>
			</g>
		</g>
	</g>
</g>
</svg>
