<?xml version="1.0" encoding="utf-8"?>
<!-- Generator: Adobe Illustrator 15.0.0, SVG Export Plug-In . SVG Version: 6.00 Build 0)  -->
<!DOCTYPE svg PUBLIC "-//W3C//DTD SVG 1.1//EN" "http://www.w3.org/Graphics/SVG/1.1/DTD/svg11.dtd">
<svg version="1.1" id="Layer_1" xmlns="http://www.w3.org/2000/svg" xmlns:xlink="http://www.w3.org/1999/xlink" x="0px" y="0px"
	 width="64px" height="64px" viewBox="0 0 64 64" enable-background="new 0 0 64 64" xml:space="preserve">
<g>
	<g>
		<path fill="#F0CD4F" d="M36.427,60.133l20.45-10.656c0,0,0.8,7.262,2.914,14.523H44.353
			C44.353,61.014,36.427,60.133,36.427,60.133z"/>
		<path fill="#231F20" d="M64,43.473c0-10.723-4.898-11.933-4.898-11.933c-4.225-5.444-18.754-3.461-22.584,0.44
			c-1.062,1.08-0.524,3.532,0.976,3.237l7.563,13.753l7.377,2.152c0,0,3.465-1.442,5.532,5.221C57.965,56.344,64,54.965,64,43.473z"
			/>
		<g>
			<path fill="#FFDD67" d="M44.634,60.441c4.93-1.057,6.892,0.35,8.276-11.605h-6.645c0,0,1.555-4.768,0.936-7.096
				c3.667-2.887,1.12-6.232-1.035-7.512c-3.458-2.055-8.311-0.986-9.012,1.773c-1.297,5.106-1.35,4.08-0.52,5.432
				c0.863,1.404-3.115,4.471-3.021,6.279c0.051,0.975,1.501,1.366,1.558,1.646c0.146,0.701-0.426,1.022-1.295,1.586
				c-0.867,0.563,0.715,1.129,0.409,2.924c-0.308,1.795-0.472,2.475-0.472,2.475c0.716,0.514,1.667,0.487,1.495,1.58
				C34.904,60.48,35.154,62.475,44.634,60.441z"/>
			<path fill="#FFDD67" d="M37.87,44.338c0.158-0.481,0.095-0.861,0.021-1.285c-0.083-0.422-0.182-0.875-0.207-1.393
				c-0.015-0.504,0.087-1.123,0.437-1.552c0.335-0.43,0.794-0.624,1.237-0.647c-0.303,0.373-0.566,0.707-0.701,1.055
				c-0.131,0.346-0.161,0.695-0.143,1.114c0.003,0.415,0.066,0.88,0.021,1.391C38.515,43.514,38.304,44.134,37.87,44.338z"/>
			<g>
				<path fill="#FFDD67" d="M56.468,48.714c-0.636,2.774-2.743,4.573-4.709,4.021c-1.963-0.552-3.041-3.248-2.406-6.022
					c0.637-2.771,2.742-4.573,4.708-4.019C56.024,43.245,57.103,45.939,56.468,48.714z"/>
				<path fill="#594640" d="M53.462,44.328c-0.537,0.013-1.096,0.205-1.564,0.578c-0.462,0.385-0.805,0.936-0.959,1.519
					c-0.135,0.476-0.167,0.965-0.112,1.439c-0.208-0.073-0.434-0.079-0.609,0.054c0.262,0.197,0.36,0.413,0.464,0.623
					c0.092,0.215,0.172,0.426,0.217,0.642c0.057,0.212,0.079,0.419,0.081,0.643c-0.003,0.225-0.05,0.477-0.17,0.808
					c0.315-0.006,0.623-0.234,0.785-0.578c0.175-0.34,0.186-0.754,0.106-1.114c-0.098-0.358-0.277-0.685-0.551-0.899
					c-0.053-0.045-0.113-0.08-0.174-0.113c0.396-0.949,0.779-1.777,1.409-2.27c0.33-0.281,0.733-0.467,1.172-0.615
					c0.441-0.143,0.923-0.229,1.433-0.371C54.515,44.433,54,44.308,53.462,44.328z"/>
			</g>
			<path fill="#FFDD67" d="M35.467,52.945c-0.413-0.258-0.807-0.528-1.107-0.832c-0.281-0.301-0.502-0.658-0.263-1.318
				c-0.276,0.074-0.553,0.358-0.664,0.744c-0.1,0.393-0.026,0.825,0.123,1.16c0.14,0.326,0.327,0.592,0.536,0.821
				c-0.223,0.233-0.43,0.546-0.519,0.892c-0.109,0.363-0.103,0.721-0.057,1.037c0.061,0.32,0.147,0.615,0.297,0.895
				c0.24-0.581,0.399-1.144,0.643-1.451c0.129-0.149,0.242-0.262,0.412-0.371c0.161-0.113,0.358-0.224,0.566-0.34l1.061-0.59
				L35.467,52.945z"/>
			<path fill="#594640" d="M42.834,42.666c-0.553,0.205-0.88,0.584-1.309,0.92c-0.408,0.353-0.854,0.695-1.372,0.971
				c-0.51,0.27-1.117,0.479-1.756,0.418c-0.637-0.041-1.251-0.41-1.556-0.979c1.184,0.166,1.862-0.226,2.782-0.702
				c0.449-0.232,0.925-0.496,1.469-0.68C41.606,42.436,42.309,42.271,42.834,42.666z"/>
		</g>
	</g>
	<g>
		<path fill="#F0CD4F" d="M27.573,60.133L7.123,49.477c0,0-0.8,7.262-2.914,14.523h15.438
			C19.647,61.014,27.573,60.133,27.573,60.133z"/>
		<path fill="#231F20" d="M0,43.473C0,32.75,4.898,31.54,4.898,31.54c4.225-5.444,18.754-3.461,22.584,0.44
			c1.062,1.08,0.524,3.532-0.976,3.237l-7.563,13.753l-7.377,2.152c0,0-3.465-1.442-5.532,5.221C6.035,56.344,0,54.965,0,43.473z"/>
		<g>
			<path fill="#FFDD67" d="M19.366,60.441c-4.93-1.057-6.892,0.35-8.276-11.605h6.645c0,0-1.555-4.768-0.936-7.096
				c-3.667-2.887-1.12-6.232,1.035-7.512c3.458-2.055,8.311-0.986,9.012,1.773c1.297,5.106,1.35,4.08,0.52,5.432
				c-0.863,1.404,3.115,4.471,3.021,6.279c-0.051,0.975-1.501,1.366-1.558,1.646c-0.146,0.701,0.426,1.022,1.295,1.586
				c0.867,0.563-0.715,1.129-0.409,2.924c0.308,1.795,0.472,2.475,0.472,2.475c-0.716,0.514-1.667,0.487-1.495,1.58
				C29.096,60.48,28.846,62.475,19.366,60.441z"/>
			<path fill="#FFDD67" d="M26.13,44.338c-0.158-0.481-0.095-0.861-0.021-1.285c0.083-0.422,0.182-0.875,0.207-1.393
				c0.015-0.504-0.087-1.123-0.437-1.552c-0.335-0.43-0.794-0.624-1.237-0.647c0.303,0.373,0.566,0.707,0.701,1.055
				c0.131,0.346,0.161,0.695,0.143,1.114c-0.003,0.415-0.066,0.88-0.021,1.391C25.485,43.514,25.696,44.134,26.13,44.338z"/>
			<g>
				<path fill="#FFDD67" d="M7.532,48.714c0.636,2.774,2.743,4.573,4.709,4.021c1.963-0.552,3.041-3.248,2.406-6.022
					c-0.637-2.771-2.742-4.573-4.708-4.019C7.976,43.245,6.897,45.939,7.532,48.714z"/>
				<path fill="#594640" d="M10.538,44.328c0.537,0.013,1.096,0.205,1.564,0.578c0.462,0.385,0.805,0.936,0.959,1.519
					c0.135,0.476,0.167,0.965,0.112,1.439c0.208-0.073,0.434-0.079,0.609,0.054c-0.262,0.197-0.36,0.413-0.464,0.623
					c-0.092,0.215-0.172,0.426-0.217,0.642c-0.057,0.212-0.079,0.419-0.081,0.643c0.003,0.225,0.05,0.477,0.17,0.808
					c-0.315-0.006-0.623-0.234-0.785-0.578c-0.175-0.34-0.186-0.754-0.106-1.114c0.098-0.358,0.277-0.685,0.551-0.899
					c0.053-0.045,0.113-0.08,0.174-0.113c-0.396-0.949-0.779-1.777-1.409-2.27c-0.33-0.281-0.733-0.467-1.172-0.615
					c-0.441-0.143-0.923-0.229-1.433-0.371C9.485,44.433,10,44.308,10.538,44.328z"/>
			</g>
			<path fill="#FFDD67" d="M28.533,52.945c0.413-0.258,0.807-0.528,1.107-0.832c0.281-0.301,0.502-0.658,0.263-1.318
				c0.276,0.074,0.553,0.358,0.664,0.744c0.1,0.393,0.026,0.825-0.123,1.16c-0.14,0.326-0.327,0.592-0.536,0.821
				c0.223,0.233,0.43,0.546,0.519,0.892c0.109,0.363,0.103,0.721,0.057,1.037c-0.061,0.32-0.147,0.615-0.297,0.895
				c-0.24-0.581-0.399-1.144-0.643-1.451c-0.129-0.149-0.242-0.262-0.412-0.371c-0.161-0.113-0.358-0.224-0.566-0.34l-1.061-0.59
				L28.533,52.945z"/>
			<path fill="#594640" d="M21.166,42.666c0.553,0.205,0.88,0.584,1.309,0.92c0.408,0.353,0.854,0.695,1.372,0.971
				c0.51,0.27,1.117,0.479,1.756,0.418c0.637-0.041,1.251-0.41,1.556-0.979c-1.184,0.166-1.862-0.226-2.782-0.702
				c-0.449-0.232-0.925-0.496-1.469-0.68C22.394,42.436,21.691,42.271,21.166,42.666z"/>
		</g>
	</g>
	<path fill="#E84D88" d="M51.91,8.596C47.531-2.386,33.312,2.54,31.999,8.025C30.19,2.18,16.321-2.179,12.09,8.602
		C7.378,20.61,30.355,31.391,31.999,33.156C33.643,31.752,56.62,20.41,51.91,8.596z"/>
</g>
</svg>
