<?xml version="1.0" encoding="utf-8"?>
<!-- Generator: Adobe Illustrator 15.0.0, SVG Export Plug-In . SVG Version: 6.00 Build 0)  -->
<!DOCTYPE svg PUBLIC "-//W3C//DTD SVG 1.1//EN" "http://www.w3.org/Graphics/SVG/1.1/DTD/svg11.dtd">
<svg version="1.1" id="Layer_1" xmlns="http://www.w3.org/2000/svg" xmlns:xlink="http://www.w3.org/1999/xlink" x="0px" y="0px"
	 width="64px" height="64px" viewBox="0 0 64 64" enable-background="new 0 0 64 64" xml:space="preserve">
<g>
	<path fill="#725944" d="M-0.015,17.315c0,0,4.421,4.175,8.02,22.119c0,0,0.742,3.122,6.338,2.268
		c4.465-0.682,10.146-0.35,21.488,4.854c0,0-7.96-10.77-17.345-18.662C11.018,21.61,2.014,17.931-0.015,17.315z"/>
	<g>
		<path fill="#298959" d="M31.897,37.103c-10.368-4.568-15.762-5.902-20.029-5.251c-3.568,0.544-5.324-0.526-6.012-1.375
			l0.432,1.555c0,0,0.746,2.87,6.342,2.016c4.465-0.682,10.147,0.699,21.488,5.902C34.117,39.949,33.305,38.851,31.897,37.103z"/>
	</g>
	<path fill="#298959" d="M45.756,32.859c0,0,3.256,1.588,3.215,4.559c1.033,0.129,9.941,2.212,10.617,2.374
		C57.561,35.473,52.109,31.064,45.756,32.859z"/>
	<path fill="#E2C69E" d="M7.095,15c6.126,0,13.595,1.319,20.394,7.628c8.05,7.467,15.999,13.278,24.531,14.857
		c9.066,1.679,13.984,1.859,11.233,6.233c-2.751,4.375-28.019,6.011-34.071-4.248C16.063,17.226-13.562,15,7.095,15z"/>
	<path fill="#B39066" d="M63.982,41.565L63.982,41.565c-0.006,0.654-0.238,1.373-0.729,2.153
		c-2.751,4.375-28.019,6.011-34.071-4.248C19.264,22.656-0.083,17.28-0.013,15.657h-0.002v1.58h0.002
		c-0.149,1.61,18.455,6.808,28.393,23.656c6.052,10.259,32.123,9.389,34.874,5.014c0.481-0.767,0.716-1.473,0.729-2.115l0,0V41.565z
		"/>
	<path fill="#52C18E" d="M58.357,35.566c-5.893-7.419-20.079-9.454-30.818,1.34c4.73,8.99,9.961,8.464,9.961,8.464
		c1.222-15.551,12.81-12.442,16.513-10.804c3.131,1.385,3.634,3.923,3.634,3.923s1.288,0.28,2.345,0.482
		C59.992,38.066,58.891,36.237,58.357,35.566z"/>
	<g>
		<g>
			<path fill="#298959" d="M49.48,30.037c-7.635-2.107-14.691,2.551-20.568,9.208c0.53,0.878,1.789,2.353,1.789,2.353
				C35.834,35.058,42.416,28.214,49.48,30.037z"/>
		</g>
	</g>
</g>
</svg>
