<?xml version="1.0" encoding="utf-8"?>
<!-- Generator: Adobe Illustrator 15.0.0, SVG Export Plug-In . SVG Version: 6.00 Build 0)  -->
<!DOCTYPE svg PUBLIC "-//W3C//DTD SVG 1.1//EN" "http://www.w3.org/Graphics/SVG/1.1/DTD/svg11.dtd">
<svg version="1.1" id="Layer_1" xmlns="http://www.w3.org/2000/svg" xmlns:xlink="http://www.w3.org/1999/xlink" x="0px" y="0px"
	 width="64px" height="64px" viewBox="0 0 64 64" enable-background="new 0 0 64 64" xml:space="preserve">
<g>
	<g>
		<g>
			<path fill="#231F20" d="M5.563,29.702l2.728,4.983h47.425l2.063-5.324c0-19.083-4.439-27.167-25.552-27.361
				C10.895,1.804,5.563,10.273,5.563,29.702z"/>
			<path fill="#B47D56" d="M55.81,29.376c-0.166,1.102-0.394,2.138-0.704,2.723c-0.559,1.051-1.699,1.648-1.699,1.648
				s0.307-2.129,0.197-5.11c-1.189-17.592-2.217-12.756-21.6-12.756c-19.377,0-20.408-4.827-21.602,12.731
				c-0.111,2.995,0.195,5.136,0.195,5.136s-1.141-0.597-1.699-1.648c-0.311-0.585-0.536-1.621-0.701-2.723
				c-1.832-0.48-4.195-0.079-4.195,5.202c0,3.287,1.205,5.983,5.264,6.273c1.728,13.32,6.879,15.485,17.229,20.213
				c2.722,1.244,8.296,1.244,11.016,0c10.351-4.728,15.5-6.893,17.229-20.213c4.059-0.29,5.262-2.986,5.262-6.273
				C60.002,29.298,57.641,28.896,55.81,29.376z"/>
		</g>
		<g>
			<g>
				<path fill="#574137" d="M42.439,48.533c0,3.414-4.571,6.281-10.212,6.281c-5.639,0-10.21-2.867-10.21-6.281
					c0,0,5.429,0.305,10.212,0.305C37.008,48.838,42.439,48.533,42.439,48.533z"/>
			</g>
			<path fill="#FFFFFF" d="M41.576,49.014c0,1.724-4.183,3.088-9.347,3.088s-9.351-1.364-9.351-3.088c0,0,4.418,0.345,9.351,0.345
				S41.576,49.014,41.576,49.014z"/>
		</g>
		<path fill="#935E3E" d="M37.336,43.894c0,1.987-4.153,2.56-5.108,2.56c-0.954,0-5.104-0.703-5.104-2.688
			C27.123,43.766,37.336,42.906,37.336,43.894z"/>
	</g>
	<g>
		<g>
			<path fill="#F5F5F5" d="M13.135,30.063c-0.322,1.517-0.708,5.321,6.475,5.188c7.443-0.142,7.148,0.5,7.51-2.014
				c0.315-2.199-2.294-4.644-6.155-5.521S13.596,27.892,13.135,30.063z"/>
			<g>
				<ellipse fill="#664E27" cx="20.794" cy="31.182" rx="3.925" ry="3.889"/>
				<path fill="#231F20" d="M22.094,31.182c0,0.712-0.584,1.288-1.299,1.288c-0.719,0-1.301-0.575-1.301-1.288
					s0.582-1.287,1.301-1.287C21.51,29.895,22.094,30.469,22.094,31.182z"/>
			</g>
			<path fill="#574137" d="M12.994,31.537c-1.046-6.75,14.096-6.391,14.096,0.798C24.901,26.615,14.464,26.418,12.994,31.537z"/>
		</g>
		<g>
			<path fill="#F5F5F5" d="M50.869,30.063c0.322,1.517,0.708,5.321-6.475,5.188c-7.443-0.142-7.148,0.5-7.51-2.014
				c-0.315-2.199,2.294-4.644,6.155-5.521S50.408,27.892,50.869,30.063z"/>
			<g>
				<ellipse fill="#664E27" cx="43.209" cy="31.182" rx="3.925" ry="3.889"/>
				<ellipse fill="#231F20" cx="43.209" cy="31.182" rx="1.3" ry="1.288"/>
			</g>
			<path fill="#574137" d="M51.01,31.537c1.046-6.75-14.096-6.391-14.096,0.798C39.103,26.615,49.54,26.418,51.01,31.537z"/>
		</g>
	</g>
</g>
</svg>
