<?xml version="1.0" encoding="utf-8"?>
<!-- Generator: Adobe Illustrator 15.0.0, SVG Export Plug-In . SVG Version: 6.00 Build 0)  -->
<!DOCTYPE svg PUBLIC "-//W3C//DTD SVG 1.1//EN" "http://www.w3.org/Graphics/SVG/1.1/DTD/svg11.dtd">
<svg version="1.1" id="Layer_1" xmlns="http://www.w3.org/2000/svg" xmlns:xlink="http://www.w3.org/1999/xlink" x="0px" y="0px"
	 width="64px" height="64px" viewBox="0 0 64 64" enable-background="new 0 0 64 64" xml:space="preserve">
<g>
	<path fill="#594640" d="M32.003,1.998c-18.112,0-28.001,11.449-28.001,26.527v33.473h56V28.525
		c0-22.413-15.158-21.996-15.158-21.996S43.703,1.998,32.003,1.998z"/>
	<path fill="#FFE1BD" d="M12.033,41.136c0,0-4.031-1.031-4.031-6.998c0-4.726,3.039-5.537,3.039-5.537
		c10.895,0,28.643-14.157,28.643-14.157s6.709,12.5,13.184,14.157c0,0,3.135,0.578,3.135,5.537c0,5.967-4.182,6.998-4.182,6.998
		c-0.057,9.002-12.352,19.862-19.817,19.862C24.535,60.998,12.033,50.138,12.033,41.136z"/>
	<path fill="#E6B796" d="M37.003,45.246c0,1.962-4.066,2.529-5,2.529s-5-0.695-5-2.657C27.003,45.118,37.003,44.267,37.003,45.246z"
		/>
	<g>
		<path fill="#F5F5F5" d="M25.192,37.406c1.176,0,1.02-3.038,1.02-3.038c-3.608-8.061-11.646-2.959-11.646-2.959
			c-3.123,1.396,1.4,5.803,2.125,5.998C20.096,38.328,25.192,37.406,25.192,37.406z"/>
		<g>
			<circle fill="#664E27" cx="20.484" cy="33.716" r="3.844"/>
			<circle fill="#231F20" cx="20.484" cy="33.716" r="1.25"/>
		</g>
		<path fill="#231F20" d="M27.222,35.53c-0.983-1.198-1.956-2.352-3.085-3.23c-1.129-0.873-2.397-1.426-3.766-1.513
			c-1.368-0.132-2.801,0.16-4.288,0.441c-0.744,0.145-1.513,0.288-2.313,0.333c-0.777,0.032-1.713-0.06-2.268-0.655
			c0.732,0.291,1.452,0.137,2.15-0.072c0.702-0.204,1.399-0.491,2.127-0.736c1.439-0.511,3.029-0.932,4.717-0.804
			c0.834,0.083,1.672,0.294,2.432,0.667c0.752,0.384,1.435,0.88,1.992,1.476C26.049,32.616,26.785,34.044,27.222,35.53z"/>
	</g>
	<g>
		<path fill="#F5F5F5" d="M38.812,37.406c-1.176,0-1.02-3.038-1.02-3.038c3.608-8.061,11.646-2.959,11.646-2.959
			c3.125,1.396-1.4,5.803-2.125,5.998C43.91,38.328,38.812,37.406,38.812,37.406z"/>
		<g>
			<circle fill="#664E27" cx="43.52" cy="33.716" r="3.844"/>
			<circle fill="#231F20" cx="43.52" cy="33.716" r="1.25"/>
		</g>
		<path fill="#231F20" d="M36.784,35.53c0.437-1.486,1.173-2.914,2.302-4.094c0.557-0.596,1.239-1.092,1.991-1.476
			c0.759-0.372,1.599-0.584,2.432-0.667c1.687-0.127,3.276,0.293,4.716,0.804c0.728,0.245,1.425,0.533,2.127,0.736
			c0.698,0.208,1.418,0.362,2.15,0.072c-0.555,0.596-1.49,0.688-2.268,0.655c-0.801-0.045-1.568-0.188-2.313-0.333
			c-1.487-0.281-2.92-0.573-4.288-0.441c-1.368,0.087-2.636,0.64-3.765,1.513C38.739,33.179,37.768,34.332,36.784,35.53z"/>
	</g>
	<g>
		<g>
			<path fill="#F09985" d="M35.554,50.057c-0.727-0.179-1.787-0.094-3.186,0.374c-0.123,0.038-0.244,0.078-0.365,0.117
				c-0.123-0.039-0.244-0.079-0.367-0.117c-1.398-0.468-2.459-0.553-3.184-0.374c-2.166,0.527-5.45,0.27-5.45,0.27
				c2.388,2.387,3.522,5.645,9.001,5.645c5.477,0,6.611-3.258,8.999-5.645C41.002,50.326,37.718,50.584,35.554,50.057z"/>
			<path fill="#D47F6C" d="M35.554,50.057c-0.727-0.179-1.787-0.094-3.186,0.374c-0.123,0.038-0.244,0.078-0.365,0.117
				c-0.123-0.039-0.244-0.079-0.367-0.117c-1.398-0.468-2.459-0.553-3.184-0.374c-2.127,0.518-5.462,0.268-5.45,0.27
				c3.603,0.647,4.052,2.488,9.001,2.488c4.947,0,5.396-1.841,8.999-2.488C41.014,50.324,37.679,50.574,35.554,50.057z"/>
		</g>
	</g>
</g>
</svg>
