<?xml version="1.0" encoding="utf-8"?>
<!-- Generator: Adobe Illustrator 15.0.0, SVG Export Plug-In . SVG Version: 6.00 Build 0)  -->
<!DOCTYPE svg PUBLIC "-//W3C//DTD SVG 1.1//EN" "http://www.w3.org/Graphics/SVG/1.1/DTD/svg11.dtd">
<svg version="1.1" id="Layer_1" xmlns="http://www.w3.org/2000/svg" xmlns:xlink="http://www.w3.org/1999/xlink" x="0px" y="0px"
	 width="64px" height="64px" viewBox="0 0 64 64" enable-background="new 0 0 64 64" xml:space="preserve">
<g>
	<g>
		<path fill="#231F20" d="M32.044,17.225c-16.846,0-28.843,0.49-28.843,10.027c0,0.844,0.822,14.158,0.822,14.158h55.955
			l0.822-14.158C60.801,19.795,50.545,17.225,32.044,17.225z"/>
		<path fill="#8A6859" d="M5.467,37.619c2.902-2.492-0.098-7.441,3.758-14.525c4.562,4.385,13.745,10.309,29.787,9.777
			c0,0-1.115-0.68-2.785-1.848c0,0,5.846,0.895,10.803-0.846c0,0-0.84-0.455-2.172-1.287c4.912,0.303,8.881,0.084,10.844-0.91
			c0,0-1.492,7.939,2.773,9.639c0,0,3.523-0.471,3.523,3.838c0,5.186-3.623,4.311-3.623,4.311c0,7.744-7.752,16.23-26.911,16.23
			c-18.148,0-26.013-6.938-26.013-16.23c0,0-3.451,0.875-3.451-4.311C2,37.35,5.467,37.619,5.467,37.619z"/>
		<path fill="#231F20" d="M40.748,52.691c0.164,0,0.254-0.9,0.254-1.277c0-2.57-4.029-4.789-9-4.789c-4.971,0-9,2.283-9,4.855
			c0,0.346,0.076,1.211,0.215,1.211h3.037l0.6-1.439l0.539,1.439H40.748z"/>
		<g>
			<path fill="#454749" d="M60.938,22.74c0,3.074-12.795,5.693-28.936,5.693c-16.141,0-28.935-2.619-28.935-5.693
				c0,0-0.291,2.277,28.935,2.277C61.229,25.018,60.938,22.74,60.938,22.74z"/>
			<path fill="#428BC1" d="M47.723,10.504c-4.379-1.766-11.008-8.506-15.75-8.506c-4.742,0-11.371,6.74-15.75,8.506
				c-3.512,1.416-10.177,1.91-12.864,4.527c-2.871,2.797-0.291,7.824-0.291,7.824s0.291,2.275,28.935,2.275
				c28.643,0,28.936-2.275,28.936-2.275s2.578-5.027-0.293-7.824C57.947,12.404,51.248,11.926,47.723,10.504z"/>
			<path fill="#FBBF67" d="M29.132,10.299c1.701-0.688,2.869-3.438,2.869-3.438s1.167,2.75,2.87,3.438
				c1.441,0.582,4.73-2.07,4.73-2.07s-0.285,6.711-0.877,8.104c-1.545,3.629-6.723,5.758-6.723,5.758s-5.184-2.133-6.721-5.758
				c-0.594-1.395-0.877-8.104-0.877-8.104S27.716,10.871,29.132,10.299z"/>
		</g>
	</g>
	<g>
		<g>
			<path fill="#F5F5F5" d="M12.634,36.902c-0.323,1.517-0.708,5.321,6.475,5.188c7.443-0.142,7.147,0.5,7.509-2.014
				c0.316-2.199-2.293-4.644-6.154-5.521S13.095,34.731,12.634,36.902z"/>
			<g>
				<ellipse fill="#664E27" cx="20.293" cy="38.021" rx="3.926" ry="3.889"/>
				<path fill="#231F20" d="M21.543,38.021c0,0.685-0.563,1.238-1.25,1.238c-0.691,0-1.25-0.554-1.25-1.238
					c0-0.686,0.559-1.237,1.25-1.237C20.981,36.784,21.543,37.336,21.543,38.021z"/>
			</g>
			<path fill="#574137" d="M12.493,38.377c-1.045-6.75,14.096-6.391,14.096,0.798C24.401,33.455,13.963,33.258,12.493,38.377z"/>
		</g>
		<g>
			<path fill="#F5F5F5" d="M51.367,36.902c0.324,1.517,0.709,5.321-6.475,5.188c-7.443-0.142-7.148,0.5-7.51-2.014
				c-0.314-2.199,2.295-4.644,6.156-5.521S50.906,34.731,51.367,36.902z"/>
			<g>
				<ellipse fill="#664E27" cx="43.708" cy="38.021" rx="3.925" ry="3.889"/>
				<path fill="#231F20" d="M44.957,38.021c0,0.685-0.561,1.238-1.248,1.238c-0.691,0-1.252-0.554-1.252-1.238
					c0-0.686,0.561-1.237,1.252-1.237C44.396,36.784,44.957,37.336,44.957,38.021z"/>
			</g>
			<path fill="#574137" d="M51.508,38.377c1.047-6.75-14.096-6.391-14.096,0.798C39.602,33.455,50.039,33.258,51.508,38.377z"/>
		</g>
	</g>
</g>
</svg>
