<?xml version="1.0" encoding="utf-8"?>
<!-- Generator: Adobe Illustrator 15.0.0, SVG Export Plug-In . SVG Version: 6.00 Build 0)  -->
<!DOCTYPE svg PUBLIC "-//W3C//DTD SVG 1.1//EN" "http://www.w3.org/Graphics/SVG/1.1/DTD/svg11.dtd">
<svg version="1.1" id="Layer_1" xmlns="http://www.w3.org/2000/svg" xmlns:xlink="http://www.w3.org/1999/xlink" x="0px" y="0px"
	 width="64px" height="64px" viewBox="0 0 64 64" enable-background="new 0 0 64 64" xml:space="preserve">
<g>
	<g>
		<path fill="#231F20" d="M32.002,17.973c-13.584,0-21,8.465-21,19.616v24.41h42v-24.41c0-16.575-11.369-16.264-11.369-16.264
			S40.777,17.973,32.002,17.973z"/>
		<rect x="25.319" y="58.938" fill="#EBA352" width="13.363" height="3.061"/>
		<g>
			<path fill="#FFDD67" d="M16.549,46.935c0,0-3.113-0.781-3.113-5.307c0-3.584,2.348-4.199,2.348-4.199
				c8.41,0,27.785-5.924,27.785-5.924s3.502,1.797,4.51,5.924c0,0,2.422,0.439,2.422,4.199c0,4.525-3.232,5.307-3.232,5.307
				c-0.043,6.828-9.537,15.064-15.298,15.064C26.204,61.999,16.549,53.763,16.549,46.935z"/>
			<path fill="#EBA352" d="M35.828,50.052c0,1.488-3.14,1.92-3.859,1.92c-0.723,0-3.863-0.527-3.863-2.016
				C28.106,49.956,35.828,49.31,35.828,50.052z"/>
			<g>
				<path fill="#F5F5F5" d="M26.709,44.106c0.908,0,0.787-2.303,0.787-2.303c-2.787-6.117-8.992-2.246-8.992-2.246
					c-2.412,1.059,1.082,4.402,1.641,4.549C22.774,44.806,26.709,44.106,26.709,44.106z"/>
				<g>
					<ellipse fill="#0A84A5" cx="23.076" cy="41.308" rx="2.968" ry="2.916"/>
					<ellipse fill="#231F20" cx="23.075" cy="41.308" rx="1" ry="0.984"/>
				</g>
				<path fill="#231F20" d="M28.276,42.685c-0.758-0.908-1.51-1.785-2.383-2.451c-0.871-0.662-1.85-1.082-2.906-1.146
					c-1.057-0.1-2.164,0.121-3.313,0.334c-0.574,0.109-1.168,0.217-1.785,0.252c-0.6,0.023-1.322-0.043-1.75-0.496
					c0.564,0.221,1.121,0.104,1.66-0.057c0.541-0.152,1.078-0.371,1.643-0.557c1.111-0.389,2.338-0.707,3.641-0.609
					c0.645,0.063,1.291,0.221,1.879,0.504c0.58,0.295,1.107,0.67,1.537,1.121C27.37,40.472,27.938,41.556,28.276,42.685z"/>
			</g>
			<g>
				<path fill="#F5F5F5" d="M37.227,44.106c-0.91,0-0.789-2.303-0.789-2.303c2.787-6.117,8.992-2.246,8.992-2.246
					c2.412,1.059-1.08,4.402-1.641,4.549C41.164,44.806,37.227,44.106,37.227,44.106z"/>
				<g>
					<path fill="#0A84A5" d="M43.828,41.308c0,1.611-1.328,2.916-2.969,2.916c-1.637,0-2.969-1.305-2.969-2.916
						s1.332-2.916,2.969-2.916C42.5,38.392,43.828,39.696,43.828,41.308z"/>
					<ellipse fill="#231F20" cx="40.859" cy="41.308" rx="1" ry="0.982"/>
				</g>
				<path fill="#231F20" d="M35.66,42.685c0.338-1.129,0.902-2.213,1.775-3.105c0.432-0.451,0.957-0.826,1.537-1.121
					c0.588-0.283,1.236-0.441,1.879-0.504c1.301-0.098,2.529,0.221,3.639,0.609c0.566,0.186,1.104,0.404,1.645,0.557
					c0.537,0.16,1.098,0.277,1.662,0.057c-0.43,0.453-1.15,0.52-1.752,0.496c-0.617-0.035-1.211-0.143-1.787-0.252
					c-1.145-0.213-2.254-0.434-3.311-0.334c-1.055,0.066-2.035,0.484-2.904,1.146C37.168,40.899,36.418,41.776,35.66,42.685z"/>
			</g>
			<g>
				<g>
					<path fill="#FF7381" d="M34.707,53.7c-0.559-0.135-1.377-0.07-2.457,0.285c-0.094,0.029-0.189,0.059-0.281,0.09
						c-0.096-0.031-0.188-0.061-0.285-0.09c-1.08-0.355-1.896-0.42-2.457-0.285c-1.674,0.402-4.207,0.205-4.207,0.205
						c1.844,1.809,2.719,4.279,6.949,4.279c4.228,0,5.103-2.471,6.943-4.279C38.912,53.905,36.377,54.103,34.707,53.7z"/>
					<path fill="#FF5760" d="M34.707,53.7c-0.559-0.135-1.377-0.07-2.457,0.285c-0.094,0.029-0.189,0.059-0.281,0.09
						c-0.096-0.031-0.188-0.061-0.285-0.09c-1.08-0.355-1.896-0.42-2.457-0.285c-1.643,0.393-4.215,0.205-4.207,0.205
						c2.779,0.492,3.127,1.887,6.949,1.887c3.818,0,4.166-1.395,6.943-1.887C38.926,53.905,36.348,54.093,34.707,53.7z"/>
				</g>
			</g>
		</g>
	</g>
	<g>
		<g>
			<path fill="#752744" d="M40.85,28.063c0.441-1.791,1.842-5.574,6.291-12.439c2.57-3.965-0.146-13.09-1.664-13.611
				c-0.928-0.334-8.766,5.77-9.006,10.848c-0.316,6.82-0.736,11.416-0.967,13.637C35.256,28.442,40.262,29.25,40.85,28.063z"/>
		</g>
		<g>
			<path fill="#752744" d="M23.155,28.063c-0.445-1.791-1.848-5.574-6.293-12.439c-2.568-3.965,0.148-13.09,1.66-13.611
				c0.932-0.334,8.771,5.77,9.01,10.848c0.32,6.82,0.736,11.416,0.967,13.637C28.747,28.442,23.743,29.25,23.155,28.063z"/>
		</g>
		<path fill="#E84D88" d="M44.539,6.622c-0.867-0.297-4.385,2.25-5.088,5.969c-1.666,8.869-2.246,13.678-2.246,13.678l3.254,0.82
			c0,0-0.021-2.863,4.852-13.023C46.59,11.393,45.943,7.108,44.539,6.622z"/>
		<path fill="#E84D88" d="M19.825,6.622c0.871-0.297,4.389,2.25,5.092,5.969c1.67,8.869,2.246,13.678,2.246,13.678l-3.25,0.82
			c0,0,0.014-2.863-4.855-13.023C17.78,11.393,18.424,7.108,19.825,6.622z"/>
		<path fill="#752744" d="M32.184,28.706c5.318,0,10.259,1.018,14.433,2.746c-2.18-3.816-7.809-6.543-14.433-6.543
			c-6.623,0-12.256,2.727-14.434,6.543C21.922,29.723,26.868,28.706,32.184,28.706z"/>
	</g>
</g>
</svg>
