<?xml version="1.0" encoding="utf-8"?>
<!-- Generator: Adobe Illustrator 15.0.0, SVG Export Plug-In . SVG Version: 6.00 Build 0)  -->
<!DOCTYPE svg PUBLIC "-//W3C//DTD SVG 1.1//EN" "http://www.w3.org/Graphics/SVG/1.1/DTD/svg11.dtd">
<svg version="1.1" id="Layer_1" xmlns="http://www.w3.org/2000/svg" xmlns:xlink="http://www.w3.org/1999/xlink" x="0px" y="0px"
	 width="64px" height="64px" viewBox="0 0 64 64" enable-background="new 0 0 64 64" xml:space="preserve">
<g>
	<g>
		<g>
			<path fill="#231F20" d="M17.487,1.999c-10.017,0-15.484,6.33-15.484,14.668v18.51h30.967v-18.51
				c0-12.395-8.381-12.164-8.381-12.164S23.957,1.999,17.487,1.999z"/>
			<path fill="#FFDD67" d="M6.444,23.642c0,0-2.23-0.57-2.23-3.871c0-2.611,1.682-3.061,1.682-3.061c6.024,0,15.84-7.83,15.84-7.83
				s3.709,6.912,7.29,7.83c0,0,1.733,0.318,1.733,3.061c0,3.301-2.313,3.871-2.313,3.871c-0.031,4.979-6.83,10.984-10.959,10.984
				C13.357,34.626,6.444,28.62,6.444,23.642z"/>
			<path fill="#EBA352" d="M20.252,25.915c0,1.086-2.25,1.398-2.766,1.398s-2.764-0.385-2.764-1.469
				C14.723,25.845,20.252,25.372,20.252,25.915z"/>
			<g>
				<path fill="#F5F5F5" d="M13.719,21.579c0.652,0,0.565-1.68,0.565-1.68c-1.995-4.459-6.44-1.637-6.44-1.637
					c-1.727,0.771,0.773,3.209,1.175,3.316C10.903,22.089,13.719,21.579,13.719,21.579z"/>
				<g>
					<circle fill="#664E27" cx="11.117" cy="19.538" r="2.125"/>
					<circle fill="#231F20" cx="11.117" cy="19.538" r="0.75"/>
				</g>
				<path fill="#231F20" d="M14.842,20.542c-0.543-0.662-1.082-1.303-1.705-1.787c-0.625-0.482-1.326-0.789-2.082-0.836
					c-0.758-0.074-1.551,0.088-2.373,0.244c-0.41,0.08-0.836,0.158-1.278,0.184c-0.431,0.018-0.946-0.033-1.254-0.363
					c0.404,0.16,0.802,0.076,1.188-0.039c0.389-0.111,0.774-0.271,1.177-0.406c0.796-0.283,1.675-0.516,2.608-0.445
					c0.461,0.045,0.924,0.162,1.345,0.369c0.416,0.211,0.793,0.486,1.101,0.814C14.194,18.931,14.602,19.72,14.842,20.542z"/>
			</g>
			<g>
				<path fill="#F5F5F5" d="M21.252,21.579c-0.65,0-0.564-1.68-0.564-1.68c1.994-4.459,6.439-1.637,6.439-1.637
					c1.729,0.771-0.773,3.209-1.175,3.316C24.071,22.089,21.252,21.579,21.252,21.579z"/>
				<g>
					<circle fill="#664E27" cx="23.855" cy="19.538" r="2.125"/>
					<circle fill="#231F20" cx="23.856" cy="19.538" r="0.75"/>
				</g>
				<path fill="#231F20" d="M20.129,20.542c0.242-0.822,0.65-1.611,1.273-2.266c0.309-0.328,0.687-0.604,1.102-0.814
					c0.42-0.207,0.885-0.324,1.346-0.369c0.932-0.07,1.812,0.162,2.607,0.445c0.402,0.135,0.788,0.295,1.176,0.406
					c0.387,0.115,0.784,0.199,1.189,0.039c-0.307,0.33-0.824,0.381-1.254,0.363c-0.443-0.025-0.867-0.104-1.279-0.184
					c-0.822-0.156-1.615-0.318-2.371-0.244c-0.757,0.047-1.458,0.354-2.082,0.836C21.211,19.239,20.674,19.88,20.129,20.542z"/>
			</g>
			<g>
				<g>
					<path fill="#F09985" d="M19.45,28.575c-0.4-0.1-0.988-0.053-1.761,0.207c-0.069,0.02-0.136,0.043-0.202,0.064
						c-0.068-0.021-0.135-0.045-0.203-0.064c-0.773-0.26-1.359-0.307-1.761-0.207c-1.198,0.291-3.014,0.148-3.014,0.148
						c1.32,1.32,1.948,3.121,4.978,3.121c3.027,0,3.656-1.801,4.977-3.121C22.463,28.724,20.647,28.866,19.45,28.575z"/>
					<path fill="#D47F6C" d="M19.45,28.575c-0.4-0.1-0.988-0.053-1.761,0.207c-0.069,0.02-0.136,0.043-0.202,0.064
						c-0.068-0.021-0.135-0.045-0.203-0.064c-0.773-0.26-1.359-0.307-1.761-0.207c-1.177,0.285-3.021,0.148-3.014,0.148
						c1.992,0.359,2.241,1.377,4.978,1.377s2.983-1.018,4.977-1.377C22.47,28.724,20.625,28.86,19.45,28.575z"/>
				</g>
			</g>
		</g>
		<g>
			<g>
				<g>
					<path fill="#231F20" d="M31.898,17.319l1.506,2.756h26.227l1.141-2.945c0-10.551-2.453-15.021-14.129-15.129
						C34.846,1.892,31.898,6.575,31.898,17.319z"/>
					<path fill="#FFDD67" d="M59.684,17.14c-0.092,0.607-0.219,1.182-0.389,1.506c-0.311,0.58-0.939,0.91-0.939,0.91
						s0.168-1.178,0.107-2.826c-0.658-9.729-1.225-7.055-11.943-7.055c-10.717,0-11.287-2.668-11.947,7.041
						c-0.061,1.656,0.109,2.84,0.109,2.84s-0.631-0.33-0.939-0.91c-0.172-0.324-0.297-0.898-0.389-1.506
						c-1.012-0.266-2.32-0.043-2.32,2.877c0,1.816,0.667,3.307,2.912,3.469c0.955,7.365,3.803,8.563,9.527,11.178
						c1.506,0.688,4.588,0.688,6.092,0c5.723-2.615,8.572-3.813,9.527-11.178c2.244-0.162,2.91-1.652,2.91-3.469
						C62.002,17.097,60.695,16.874,59.684,17.14z"/>
				</g>
				<g>
					<g>
						<path fill="#574137" d="M52.291,27.733c0,1.887-2.529,3.473-5.648,3.473s-5.646-1.586-5.646-3.473
							c0,0,3.004,0.168,5.648,0.168C49.285,27.901,52.291,27.733,52.291,27.733z"/>
					</g>
					<path fill="#FFFFFF" d="M51.813,27.999c0,0.953-2.313,1.707-5.168,1.707s-5.172-0.754-5.172-1.707c0,0,2.443,0.189,5.172,0.189
						C49.371,28.188,51.813,27.999,51.813,27.999z"/>
				</g>
				<path fill="#EBA352" d="M49.467,25.167c0,1.1-2.297,1.416-2.824,1.416s-2.822-0.389-2.822-1.486
					C43.82,25.097,49.467,24.622,49.467,25.167z"/>
			</g>
			<g>
				<g>
					<path fill="#F5F5F5" d="M36.084,17.519c-0.178,0.838-0.391,2.943,3.582,2.869c4.115-0.078,3.953,0.277,4.152-1.113
						c0.174-1.217-1.27-2.568-3.404-3.053C38.279,15.735,36.34,16.317,36.084,17.519z"/>
					<g>
						<ellipse fill="#664E27" cx="40.319" cy="18.138" rx="2.171" ry="2.15"/>
						<ellipse fill="#231F20" cx="40.32" cy="18.138" rx="0.75" ry="0.742"/>
					</g>
					<path fill="#664E27" d="M36.006,18.333c-0.578-3.732,7.795-3.533,7.795,0.441C42.592,15.612,36.818,15.503,36.006,18.333z"/>
				</g>
				<g>
					<path fill="#F5F5F5" d="M56.951,17.519c0.18,0.838,0.393,2.943-3.58,2.869c-4.117-0.078-3.953,0.277-4.152-1.113
						c-0.174-1.217,1.268-2.568,3.402-3.053C54.758,15.735,56.697,16.317,56.951,17.519z"/>
					<g>
						<ellipse fill="#664E27" cx="52.716" cy="18.138" rx="2.171" ry="2.15"/>
						<ellipse fill="#231F20" cx="52.715" cy="18.138" rx="0.75" ry="0.742"/>
					</g>
					<path fill="#664E27" d="M57.029,18.333c0.578-3.732-7.795-3.533-7.795,0.441C50.445,15.612,56.217,15.503,57.029,18.333z"/>
				</g>
			</g>
		</g>
	</g>
	<g>
		<path fill="#231F20" d="M32.002,32.966c8.517,0,13.761,4.775,13.761,10.707v3.984c0,4.684-3.705,4.684-3.703,4.684H21.416
			c0.001,0-3.177,0-3.177-4.684c0-2.207,0-3.984,0-3.984C18.239,37.741,23.766,32.966,32.002,32.966z"/>
		<path fill="#FFDD67" d="M44.467,48.7l-0.516-5.65c0-3.611-5.666-0.727-11.949-0.727c-6.284,0-11.951-2.885-11.951,0.727
			l-0.513,5.65c-2.737,0-2.737,4.445,0,4.445c0,5.516,7.417,8.854,12.464,8.854c5.044,0,12.464-3.338,12.464-8.854
			C47.201,53.146,47.201,48.7,44.467,48.7z"/>
		<g opacity="0.5">
			<path fill="#FF717F" d="M43.738,54.294c-0.172-1.242-1.588-1.99-3.162-1.67c-1.578,0.318-2.717,1.584-2.545,2.824
				c0.172,1.242,1.586,1.99,3.162,1.672C42.77,56.8,43.908,55.536,43.738,54.294z"/>
			<path fill="#FF717F" d="M23.427,52.624c-1.575-0.32-2.991,0.428-3.161,1.67c-0.171,1.242,0.968,2.506,2.543,2.826
				c1.576,0.318,2.99-0.43,3.162-1.672C26.141,54.208,25.002,52.942,23.427,52.624z"/>
		</g>
		<path fill="#574137" d="M28.475,55.265c-0.066,0.076-0.102,0.176-0.102,0.295c-0.002,0.818,1.624,1.822,3.629,1.822
			c2.003,0,3.628-0.996,3.628-1.814c0-0.111-0.031-0.227-0.086-0.303c0,0-1.568,0.705-3.542,0.705
			C30.032,55.97,28.475,55.265,28.475,55.265z"/>
		<g>
			<g>
				<circle fill="#FFFFFF" cx="38.139" cy="49.208" r="3.629"/>
				<g>
					<ellipse fill="#664E27" cx="38.139" cy="49.208" rx="2.527" ry="2.498"/>
					<ellipse fill="#231F20" cx="38.138" cy="49.208" rx="0.851" ry="0.84"/>
				</g>
			</g>
			<g>
				<circle fill="#FFFFFF" cx="25.865" cy="49.208" r="3.629"/>
				<g>
					<ellipse fill="#664E27" cx="25.864" cy="49.208" rx="2.527" ry="2.498"/>
					<ellipse fill="#231F20" cx="25.864" cy="49.208" rx="0.85" ry="0.84"/>
				</g>
			</g>
		</g>
	</g>
</g>
</svg>
