<?xml version="1.0" encoding="utf-8"?>
<!-- Generator: Adobe Illustrator 15.0.0, SVG Export Plug-In . SVG Version: 6.00 Build 0)  -->
<!DOCTYPE svg PUBLIC "-//W3C//DTD SVG 1.1//EN" "http://www.w3.org/Graphics/SVG/1.1/DTD/svg11.dtd">
<svg version="1.1" id="Layer_1" xmlns="http://www.w3.org/2000/svg" xmlns:xlink="http://www.w3.org/1999/xlink" x="0px" y="0px"
	 width="64px" height="64px" viewBox="0 0 64 64" enable-background="new 0 0 64 64" xml:space="preserve">
<g>
	<g>
		<g>
			<g>
				<g>
					<path fill="#231F20" d="M2.864,17.318l1.508,2.756h26.226l1.142-2.943C31.739,6.578,29.286,2.107,17.608,2
						C5.813,1.891,2.864,6.574,2.864,17.318z"/>
					<path fill="#FFDD67" d="M30.65,17.139c-0.093,0.609-0.217,1.182-0.39,1.506c-0.31,0.582-0.938,0.912-0.938,0.912
						s0.17-1.178,0.109-2.826c-0.658-9.729-1.227-7.055-11.945-7.055C6.771,9.676,6.2,7.006,5.54,16.717
						c-0.061,1.654,0.108,2.84,0.108,2.84s-0.632-0.33-0.939-0.912c-0.172-0.324-0.297-0.896-0.388-1.506
						c-1.014-0.266-2.319-0.043-2.319,2.877c0,1.818,0.665,3.309,2.911,3.469c0.954,7.365,3.803,8.564,9.526,11.178
						c1.506,0.689,4.587,0.689,6.094,0c5.723-2.613,8.569-3.813,9.525-11.178c2.246-0.16,2.911-1.65,2.911-3.469
						C32.97,17.096,31.664,16.873,30.65,17.139z"/>
				</g>
				<g>
					<g>
						<path fill="#574137" d="M23.256,27.732c0,1.889-2.526,3.475-5.647,3.475c-3.118,0-5.646-1.586-5.646-3.475
							c0,0,3.004,0.168,5.647,0.168C20.253,27.9,23.256,27.732,23.256,27.732z"/>
					</g>
					<path fill="#FFFFFF" d="M22.78,27.998c0,0.953-2.313,1.707-5.17,1.707c-2.855,0-5.169-0.754-5.169-1.707
						c0,0,2.441,0.191,5.169,0.191S22.78,27.998,22.78,27.998z"/>
				</g>
				<path fill="#EBA352" d="M20.435,25.166c0,1.1-2.297,1.416-2.826,1.416c-0.527,0-2.821-0.389-2.821-1.484
					C14.787,25.098,20.435,24.621,20.435,25.166z"/>
			</g>
			<g>
				<g>
					<path fill="#F5F5F5" d="M7.053,17.52c-0.18,0.838-0.394,2.941,3.579,2.867c4.115-0.078,3.952,0.277,4.153-1.113
						c0.174-1.215-1.269-2.566-3.404-3.053C9.247,15.734,7.306,16.318,7.053,17.52z"/>
					<g>
						<ellipse fill="#664E27" cx="11.287" cy="18.137" rx="2.171" ry="2.15"/>
						<ellipse fill="#231F20" cx="11.287" cy="18.137" rx="0.75" ry="0.744"/>
					</g>
					<path fill="#664E27" d="M6.973,18.334c-0.578-3.732,7.795-3.535,7.795,0.441C13.559,15.611,7.786,15.502,6.973,18.334z"/>
				</g>
				<g>
					<path fill="#F5F5F5" d="M27.919,17.52c0.178,0.838,0.392,2.941-3.581,2.867c-4.115-0.078-3.953,0.277-4.153-1.113
						c-0.174-1.215,1.269-2.566,3.404-3.053S27.664,16.318,27.919,17.52z"/>
					<g>
						<ellipse fill="#664E27" cx="23.683" cy="18.137" rx="2.171" ry="2.15"/>
						<ellipse fill="#231F20" cx="23.683" cy="18.137" rx="0.75" ry="0.744"/>
					</g>
					<path fill="#664E27" d="M27.997,18.334c0.578-3.732-7.795-3.535-7.795,0.441C21.412,15.611,27.184,15.502,27.997,18.334z"/>
				</g>
			</g>
		</g>
		<g>
			<g>
				<g>
					<path fill="#231F20" d="M31.896,17.318l1.508,2.756H59.63l1.142-2.943C60.771,6.578,58.318,2.107,46.641,2
						C34.845,1.891,31.896,6.574,31.896,17.318z"/>
					<path fill="#FFDD67" d="M59.683,17.139c-0.093,0.609-0.217,1.182-0.39,1.506c-0.31,0.582-0.939,0.912-0.939,0.912
						s0.171-1.178,0.11-2.826c-0.658-9.729-1.227-7.055-11.946-7.055c-10.715,0-11.285-2.67-11.945,7.041
						c-0.061,1.654,0.108,2.84,0.108,2.84s-0.632-0.33-0.939-0.912c-0.173-0.324-0.297-0.896-0.388-1.506
						c-1.014-0.266-2.319-0.043-2.319,2.877c0,1.818,0.665,3.309,2.911,3.469c0.954,7.365,3.803,8.564,9.525,11.178
						c1.507,0.689,4.588,0.689,6.094,0c5.724-2.613,8.57-3.813,9.526-11.178c2.246-0.16,2.911-1.65,2.911-3.469
						C62.002,17.096,60.696,16.873,59.683,17.139z"/>
				</g>
				<g>
					<g>
						<path fill="#574137" d="M52.289,27.732c0,1.889-2.527,3.475-5.648,3.475c-3.118,0-5.646-1.586-5.646-3.475
							c0,0,3.003,0.168,5.647,0.168C49.285,27.9,52.289,27.732,52.289,27.732z"/>
					</g>
					<path fill="#FFFFFF" d="M51.813,27.998c0,0.953-2.313,1.707-5.17,1.707c-2.855,0-5.169-0.754-5.169-1.707
						c0,0,2.441,0.191,5.169,0.191S51.813,27.998,51.813,27.998z"/>
				</g>
				<path fill="#EBA352" d="M49.467,25.166c0,1.1-2.297,1.416-2.826,1.416c-0.527,0-2.821-0.389-2.821-1.484
					C43.819,25.098,49.467,24.621,49.467,25.166z"/>
			</g>
			<g>
				<g>
					<path fill="#F5F5F5" d="M36.085,17.52c-0.18,0.838-0.394,2.941,3.579,2.867c4.115-0.078,3.953,0.277,4.153-1.113
						c0.174-1.215-1.269-2.566-3.404-3.053C38.279,15.734,36.338,16.318,36.085,17.52z"/>
					<g>
						<ellipse fill="#664E27" cx="40.319" cy="18.137" rx="2.171" ry="2.15"/>
						<ellipse fill="#231F20" cx="40.319" cy="18.137" rx="0.75" ry="0.744"/>
					</g>
					<path fill="#664E27" d="M36.005,18.334c-0.578-3.732,7.795-3.535,7.795,0.441C42.591,15.611,36.818,15.502,36.005,18.334z"/>
				</g>
				<g>
					<path fill="#F5F5F5" d="M56.951,17.52c0.178,0.838,0.392,2.941-3.581,2.867c-4.115-0.078-3.952,0.277-4.153-1.113
						c-0.174-1.215,1.269-2.566,3.404-3.053S56.696,16.318,56.951,17.52z"/>
					<g>
						<ellipse fill="#664E27" cx="52.715" cy="18.137" rx="2.171" ry="2.15"/>
						<ellipse fill="#231F20" cx="52.715" cy="18.137" rx="0.75" ry="0.744"/>
					</g>
					<path fill="#664E27" d="M57.029,18.334c0.578-3.732-7.795-3.535-7.795,0.441C50.443,15.611,56.217,15.502,57.029,18.334z"/>
				</g>
			</g>
		</g>
	</g>
	<g>
		<g>
			<g>
				<g>
					<path fill="#231F20" d="M40.097,58.113c-0.614,6.691-6.852,2.939-7.461,1.867c-2.015-3.543,1.238-10.018,3.454-10.018
						C38.301,49.963,40.507,53.648,40.097,58.113z"/>
					<path fill="#231F20" d="M52.941,58.113c0.614,6.691,6.852,2.939,7.461,1.867c2.015-3.543-1.238-10.018-3.452-10.018
						C54.735,49.963,52.529,53.648,52.941,58.113z"/>
				</g>
			</g>
			<path fill="#231F20" d="M46.368,32.967c8.329,0,13.463,5.098,13.463,11.432v4.252c0,5-3.627,5.002-3.625,5H36.012
				c0.002,0.002-3.107,0-3.107-5c0-2.357,0-4.252,0-4.252C32.904,38.064,38.311,32.967,46.368,32.967z"/>
			<path fill="#C28FEF" d="M46.368,35.094c-7.239,0-12.097,3.705-12.097,8.305c0,0,0,0.543,0,1.373c0-4.6,4.857-8.303,12.097-8.303
				c7.484,0,12.097,3.703,12.097,8.303v-1.373C58.465,38.799,53.853,35.094,46.368,35.094z"/>
			<path fill="#FFDD67" d="M58.784,52.439c0,0,1.616,0.391,1.616-1.926c0-1.834-2.107-1.713-2.107-1.713v-2.518h-19.24
				c-0.918-1.977,0.113-4.014,0.113-4.014c-1.855,1.705-1.563,4.014-1.563,4.014H34.47v2.518c0,0-2.134-0.211-2.134,1.713
				c0,2.316,1.695,1.926,1.695,1.926c0,3.459,3.625,7.248,12.586,7.248C55.107,59.688,58.784,56.59,58.784,52.439z"/>
			<g>
				<path opacity="0.5" fill="#FF717F" d="M58.255,53.971c-0.172-1.242-1.588-1.99-3.162-1.672
					c-1.576,0.318-2.716,1.584-2.544,2.826c0.17,1.24,1.586,1.99,3.162,1.67C57.285,56.477,58.425,55.211,58.255,53.971z"/>
				<path opacity="0.5" fill="#FF717F" d="M37.945,52.299c-1.574-0.318-2.99,0.43-3.16,1.672c-0.172,1.24,0.968,2.506,2.542,2.824
					c1.575,0.32,2.99-0.43,3.16-1.67C40.66,53.883,39.52,52.617,37.945,52.299z"/>
				<path fill="#574137" d="M42.979,54.939c-0.065,0.076-0.102,0.176-0.102,0.297c-0.002,0.818,1.623,1.822,3.629,1.822
					c2.004,0,3.629-0.998,3.629-1.816c0-0.111-0.032-0.227-0.087-0.303c0,0-1.568,0.707-3.542,0.707
					C44.534,55.646,42.979,54.939,42.979,54.939z"/>
				<g>
					<ellipse fill="#FFFFFF" cx="52.399" cy="49.852" rx="3.3" ry="3.336"/>
					<ellipse fill="#FFFFFF" cx="40.61" cy="49.852" rx="3.299" ry="3.336"/>
					<g>
						<circle fill="#664E27" cx="52.399" cy="49.852" r="2.298"/>
						<circle fill="#231F20" cx="52.397" cy="49.852" r="0.75"/>
					</g>
					<g>
						<circle fill="#664E27" cx="40.609" cy="49.852" r="2.298"/>
						<circle fill="#231F20" cx="40.608" cy="49.852" r="0.75"/>
					</g>
				</g>
			</g>
		</g>
		<g>
			<g>
				<g>
					<path fill="#231F20" d="M11.063,58.113c-0.614,6.691-6.852,2.939-7.461,1.867C1.587,56.438,4.84,49.963,7.055,49.963
						C9.267,49.963,11.473,53.648,11.063,58.113z"/>
					<path fill="#231F20" d="M23.907,58.113c0.614,6.691,6.852,2.939,7.461,1.867c2.015-3.543-1.238-10.018-3.452-10.018
						C25.701,49.963,23.495,53.648,23.907,58.113z"/>
				</g>
			</g>
			<path fill="#231F20" d="M17.334,32.967c8.329,0,13.463,5.098,13.463,11.432v4.252c0,5-3.627,5.002-3.625,5H6.978
				c0.002,0.002-3.107,0-3.107-5c0-2.357,0-4.252,0-4.252C3.87,38.064,9.276,32.967,17.334,32.967z"/>
			<path fill="#C28FEF" d="M17.334,35.094c-7.239,0-12.097,3.705-12.097,8.305c0,0,0,0.543,0,1.373c0-4.6,4.857-8.303,12.097-8.303
				c7.484,0,12.097,3.703,12.097,8.303v-1.373C29.431,38.799,24.818,35.094,17.334,35.094z"/>
			<path fill="#FFDD67" d="M29.75,52.439c0,0,1.616,0.391,1.616-1.926c0-1.834-2.107-1.713-2.107-1.713v-2.518h-19.24
				c-0.918-1.977,0.114-4.014,0.114-4.014c-1.856,1.705-1.563,4.014-1.563,4.014H5.436v2.518c0,0-2.134-0.211-2.134,1.713
				c0,2.316,1.695,1.926,1.695,1.926c0,3.459,3.625,7.248,12.586,7.248C26.073,59.688,29.75,56.59,29.75,52.439z"/>
			<g>
				<path opacity="0.5" fill="#FF717F" d="M29.221,53.971c-0.172-1.242-1.588-1.99-3.162-1.672
					c-1.576,0.318-2.716,1.584-2.544,2.826c0.17,1.24,1.586,1.99,3.162,1.67C28.251,56.477,29.391,55.211,29.221,53.971z"/>
				<path opacity="0.5" fill="#FF717F" d="M8.911,52.299c-1.574-0.318-2.99,0.43-3.16,1.672c-0.172,1.24,0.968,2.506,2.542,2.824
					c1.574,0.32,2.99-0.43,3.16-1.67C11.625,53.883,10.485,52.617,8.911,52.299z"/>
				<path fill="#574137" d="M13.944,54.939c-0.065,0.076-0.102,0.176-0.102,0.297c-0.002,0.818,1.623,1.822,3.629,1.822
					c2.004,0,3.629-0.998,3.629-1.816c0-0.111-0.032-0.227-0.087-0.303c0,0-1.568,0.707-3.542,0.707
					C15.5,55.646,13.944,54.939,13.944,54.939z"/>
				<g>
					<ellipse fill="#FFFFFF" cx="23.365" cy="49.852" rx="3.3" ry="3.336"/>
					<ellipse fill="#FFFFFF" cx="11.576" cy="49.852" rx="3.299" ry="3.336"/>
					<g>
						<circle fill="#664E27" cx="23.365" cy="49.852" r="2.298"/>
						<circle fill="#231F20" cx="23.364" cy="49.852" r="0.75"/>
					</g>
					<g>
						<circle fill="#664E27" cx="11.575" cy="49.852" r="2.298"/>
						<circle fill="#231F20" cx="11.575" cy="49.852" r="0.75"/>
					</g>
				</g>
			</g>
		</g>
	</g>
</g>
</svg>
