<?xml version="1.0" encoding="utf-8"?>
<!-- Generator: Adobe Illustrator 15.0.0, SVG Export Plug-In . SVG Version: 6.00 Build 0)  -->
<!DOCTYPE svg PUBLIC "-//W3C//DTD SVG 1.1//EN" "http://www.w3.org/Graphics/SVG/1.1/DTD/svg11.dtd">
<svg version="1.1" id="Layer_1" xmlns="http://www.w3.org/2000/svg" xmlns:xlink="http://www.w3.org/1999/xlink" x="0px" y="0px"
	 width="64px" height="64px" viewBox="0 0 64 64" enable-background="new 0 0 64 64" xml:space="preserve">
<g>
	<g>
		<g>
			<path fill="#BEC6C9" d="M4.482,10.104c1.479-1.117,6.441,3.463,11.086,10.23c4.646,6.767,7.213,13.158,5.734,14.274
				c-1.479,1.121-6.441-3.465-11.088-10.232C5.572,17.612,3.001,11.222,4.482,10.104z"/>
			<path fill="#BEC6C9" d="M1.173,18.399c1.078-1.543,6.957,1.059,13.129,5.812c6.176,4.751,10.307,9.854,9.23,11.393
				c-1.074,1.544-6.957-1.063-13.133-5.813C4.23,25.041,0.095,19.938,1.173,18.399z"/>
			<path fill="#BEC6C9" d="M3.009,28.401c0.428-1.86,5.463-2.188,11.248-0.736c5.793,1.452,10.141,4.139,9.717,5.997
				c-0.424,1.864-5.461,2.188-11.25,0.736C6.937,32.943,2.587,30.261,3.009,28.401z"/>
			<path fill="#BEC6C9" d="M3.097,38.095c-0.721-1.755,2.742-5.011,7.732-7.268c4.996-2.263,9.627-2.67,10.348-0.915
				c0.725,1.756-2.738,5.008-7.734,7.27C8.453,39.439,3.818,39.851,3.097,38.095z"/>
			<path fill="#BEC6C9" d="M5.574,44.765c-0.955-1.466,1.906-5.269,6.391-8.489c4.488-3.228,8.898-4.655,9.854-3.191
				c0.957,1.465-1.904,5.26-6.391,8.49C10.941,44.795,6.529,46.228,5.574,44.765z"/>
			<path fill="#BEC6C9" d="M10.05,50.718c-1.25-1.247,0.779-5.612,4.531-9.735c3.752-4.132,7.807-6.471,9.051-5.223
				c1.252,1.245-0.781,5.605-4.533,9.741C15.349,49.626,11.296,51.968,10.05,50.718z"/>
			<path fill="#BEC6C9" d="M9.484,5.062c1.162-0.6,4.055,3.064,6.451,8.178c2.404,5.124,3.408,9.758,2.246,10.357
				c-1.16,0.604-4.051-3.065-6.451-8.183C9.332,10.296,8.324,5.66,9.484,5.062z"/>
			<path fill="#BEC6C9" d="M14.302,55.81c-1.121-0.721,0.275-5.254,3.123-10.11c2.85-4.861,6.068-8.214,7.189-7.487
				c1.123,0.72-0.279,5.249-3.127,10.11C18.64,53.182,15.423,56.534,14.302,55.81z"/>
			<path fill="#BEC6C9" d="M19.8,57.565c-0.924-0.175-0.883-4.874,0.096-10.48c0.979-5.612,2.52-10.02,3.439-9.841
				c0.926,0.172,0.879,4.871-0.098,10.481C22.261,53.338,20.724,57.74,19.8,57.565z"/>
			<path fill="#BEC6C9" d="M24.666,58.993c-0.932-0.141-1.168-4.006-0.525-8.624c0.637-4.629,1.91-8.266,2.838-8.121
				c0.932,0.138,1.164,4.008,0.525,8.63C26.861,55.504,25.591,59.138,24.666,58.993z"/>
		</g>
		<g>
			<path fill="#E1EDF5" d="M12.392,6.568c1.48-1.118,6.445,3.463,11.088,10.229c4.646,6.769,7.215,13.159,5.734,14.277
				c-1.479,1.117-6.441-3.467-11.086-10.232C13.484,14.077,10.916,7.687,12.392,6.568z"/>
			<path fill="#E1EDF5" d="M5.171,14.816c1.08-1.544,6.957,1.061,13.131,5.811c6.176,4.752,10.307,9.854,9.229,11.396
				c-1.076,1.542-6.957-1.063-13.133-5.816C8.228,21.458,4.095,16.355,5.171,14.816z"/>
			<path fill="#E1EDF5" d="M4.011,26.336c0.424-1.859,5.461-2.188,11.246-0.736c5.793,1.451,10.141,4.14,9.717,5.998
				c-0.424,1.861-5.461,2.188-11.252,0.736C7.937,30.879,3.587,28.196,4.011,26.336z"/>
			<path fill="#E1EDF5" d="M6.15,38.604c-0.879-1.678,2.271-5.263,7.035-8.013c4.768-2.753,9.34-3.625,10.217-1.951
				c0.881,1.677-2.271,5.262-7.037,8.016C11.603,39.404,7.029,40.277,6.15,38.604z"/>
			<path fill="#E1EDF5" d="M9.06,45.006c-1.059-1.247,1.375-5.335,5.432-9.131c4.059-3.802,8.207-5.871,9.264-4.624
				c1.061,1.242-1.375,5.329-5.434,9.129C14.267,44.174,10.119,46.248,9.06,45.006z"/>
			<path fill="#E1EDF5" d="M11.626,53.512c-1.156-0.615-0.098-5.242,2.363-10.323c2.459-5.094,5.393-8.717,6.545-8.104
				c1.156,0.614,0.096,5.235-2.363,10.327C15.71,50.496,12.779,54.125,11.626,53.512z"/>
			<path fill="#E1EDF5" d="M17.849,55.375c-1.25-0.36-1.1-5.115,0.338-10.612c1.439-5.505,3.615-9.673,4.863-9.312
				c1.25,0.355,1.094,5.109-0.342,10.612C21.271,51.56,19.097,55.732,17.849,55.375z"/>
			<path fill="#E1EDF5" d="M22.478,56.863c-0.906-0.26-0.479-4.933,0.959-10.431c1.439-5.505,3.338-9.754,4.24-9.491
				c0.908,0.256,0.475,4.932-0.961,10.436C25.277,52.874,23.378,57.125,22.478,56.863z"/>
		</g>
		<g>
			<path fill="#BEC6C9" d="M59.242,10.344c-1.48-1.118-6.445,3.462-11.088,10.229c-4.646,6.765-7.213,13.158-5.734,14.275
				c1.48,1.119,6.441-3.465,11.088-10.233C58.15,17.853,60.721,11.46,59.242,10.344z"/>
			<path fill="#BEC6C9" d="M62.832,18.399c-1.08-1.543-6.957,1.059-13.131,5.812c-6.174,4.751-10.307,9.854-9.229,11.393
				c1.076,1.544,6.957-1.063,13.131-5.813C59.775,25.041,63.908,19.938,62.832,18.399z"/>
			<path fill="#BEC6C9" d="M61.596,28.401c-0.428-1.86-5.463-2.188-11.25-0.736c-5.791,1.452-10.139,4.139-9.715,5.997
				c0.422,1.864,5.461,2.188,11.25,0.736C57.668,32.943,62.02,30.261,61.596,28.401z"/>
			<path fill="#BEC6C9" d="M60.906,38.095c0.723-1.755-2.742-5.011-7.732-7.268c-4.994-2.263-9.627-2.67-10.348-0.915
				c-0.725,1.756,2.74,5.008,7.736,7.27C55.553,39.439,60.188,39.851,60.906,38.095z"/>
			<path fill="#BEC6C9" d="M58.434,44.765c0.953-1.466-1.906-5.269-6.393-8.489c-4.488-3.228-8.898-4.655-9.854-3.191
				c-0.957,1.465,1.906,5.26,6.393,8.49C53.064,44.795,57.477,46.228,58.434,44.765z"/>
			<path fill="#BEC6C9" d="M53.953,50.718c1.25-1.247-0.779-5.612-4.529-9.735c-3.752-4.132-7.807-6.471-9.053-5.223
				c-1.25,1.245,0.783,5.605,4.533,9.741C48.656,49.626,52.709,51.968,53.953,50.718z"/>
			<path fill="#BEC6C9" d="M54.523,5.062c-1.162-0.6-4.057,3.064-6.451,8.178c-2.402,5.124-3.408,9.758-2.248,10.357
				c1.162,0.604,4.051-3.065,6.453-8.183C54.674,10.296,55.684,5.66,54.523,5.062z"/>
			<path fill="#BEC6C9" d="M49.701,55.81c1.121-0.721-0.277-5.254-3.121-10.11c-2.852-4.861-6.068-8.214-7.188-7.487
				c-1.125,0.72,0.277,5.249,3.125,10.11C45.363,53.182,48.58,56.534,49.701,55.81z"/>
			<path fill="#BEC6C9" d="M44.203,57.565c0.926-0.175,0.883-4.874-0.096-10.48c-0.977-5.612-2.518-10.02-3.439-9.841
				c-0.926,0.172-0.879,4.871,0.098,10.481C41.742,53.338,43.279,57.74,44.203,57.565z"/>
			<path fill="#BEC6C9" d="M39.342,58.993c0.93-0.141,1.168-4.006,0.525-8.624c-0.639-4.629-1.91-8.266-2.84-8.121
				c-0.932,0.138-1.164,4.008-0.523,8.63C37.145,55.504,38.414,59.138,39.342,58.993z"/>
		</g>
		<g>
			<path fill="#E1EDF5" d="M52.244,6.568c-1.479-1.118-6.445,3.463-11.09,10.229c-4.645,6.769-7.213,13.159-5.734,14.277
				c1.48,1.117,6.443-3.467,11.088-10.232C51.15,14.077,53.721,7.687,52.244,6.568z"/>
			<path fill="#E1EDF5" d="M58.832,14.816c-1.08-1.544-6.957,1.061-13.131,5.811c-6.176,4.752-10.307,9.854-9.229,11.396
				s6.957-1.063,13.133-5.816C55.775,21.458,59.906,16.355,58.832,14.816z"/>
			<path fill="#E1EDF5" d="M59.992,26.336c-0.424-1.859-5.461-2.188-11.246-0.736c-5.791,1.451-10.141,4.14-9.717,5.998
				c0.424,1.861,5.461,2.188,11.252,0.736C56.066,30.879,60.416,28.196,59.992,26.336z"/>
			<path fill="#E1EDF5" d="M57.857,38.604c0.879-1.678-2.271-5.263-7.035-8.013c-4.768-2.753-9.34-3.625-10.217-1.951
				c-0.881,1.677,2.27,5.262,7.037,8.016C52.402,39.404,56.979,40.277,57.857,38.604z"/>
			<path fill="#E1EDF5" d="M54.943,45.006c1.061-1.247-1.375-5.335-5.43-9.131c-4.059-3.802-8.207-5.871-9.264-4.624
				c-1.063,1.242,1.375,5.329,5.432,9.129C49.736,44.174,53.887,46.248,54.943,45.006z"/>
			<path fill="#E1EDF5" d="M52.379,53.512c1.152-0.615,0.1-5.242-2.361-10.323c-2.463-5.094-5.395-8.717-6.547-8.104
				c-1.156,0.614-0.096,5.235,2.363,10.327C48.295,50.496,51.227,54.125,52.379,53.512z"/>
			<path fill="#E1EDF5" d="M46.154,55.375c1.25-0.36,1.1-5.115-0.338-10.612c-1.438-5.505-3.615-9.673-4.863-9.312
				c-1.25,0.355-1.094,5.109,0.342,10.612C42.732,51.56,44.908,55.732,46.154,55.375z"/>
			<path fill="#E1EDF5" d="M41.527,56.863c0.906-0.26,0.477-4.933-0.961-10.431c-1.438-5.505-3.338-9.754-4.238-9.491
				c-0.91,0.256-0.475,4.932,0.959,10.436C38.729,52.874,40.625,57.125,41.527,56.863z"/>
		</g>
	</g>
	<path fill="#231F20" d="M52.428,30.629c0,16.783-2.824,18.328-20.426,18.328c-17.602,0-20.426-1.545-20.426-18.328
		c0-10.12,5.986-18.326,20.426-18.326C46.443,12.303,52.428,20.509,52.428,30.629z"/>
	<g>
		<path fill="#8A6859" d="M49.832,35.415c-1.951-1.767,0.064-5.278-2.525-10.302c-3.066,3.11-9.238,7.312-20.018,6.933
			c0,0,0.75-0.479,1.873-1.309c0,0-3.928,0.634-7.26-0.601c0,0,0.564-0.322,1.461-0.912c-3.301,0.214-5.969,0.06-7.287-0.646
			c0,0,1.002,5.631-1.863,6.836c0,0-2.369-0.333-2.369,2.724c0,3.676,2.436,3.056,2.436,3.056c0,5.494,5.207,11.512,18.082,11.512
			c12.198,0,17.483-4.92,17.483-11.512c0,0,2.32,0.62,2.32-3.056C52.162,35.227,49.832,35.415,49.832,35.415z"/>
		<path opacity="0.5" fill="#FF717F" d="M48.512,43.067c-0.238-1.817-2.229-2.913-4.443-2.444c-2.213,0.467-3.813,2.318-3.574,4.14
			c0.24,1.818,2.23,2.915,4.445,2.447C47.152,46.74,48.75,44.887,48.512,43.067z"/>
		<path opacity="0.5" fill="#FF717F" d="M19.974,40.623c-2.213-0.469-4.201,0.627-4.441,2.444s1.359,3.673,3.574,4.141
			c2.213,0.468,4.201-0.63,4.441-2.447C23.789,42.941,22.189,41.088,19.974,40.623z"/>
	</g>
	<g>
		<g>
			<g>
				<circle fill="#FFFFFF" cx="40.563" cy="37.293" r="4.5"/>
				<g>
					<ellipse fill="#664E27" cx="40.563" cy="37.293" rx="3.135" ry="3.098"/>
					<ellipse fill="#231F20" cx="40.563" cy="37.293" rx="1" ry="0.987"/>
				</g>
			</g>
		</g>
		<g>
			<g>
				<circle fill="#FFFFFF" cx="23.444" cy="37.293" r="4.5"/>
				<g>
					<ellipse fill="#664E27" cx="23.444" cy="37.293" rx="3.134" ry="3.098"/>
					<ellipse fill="#231F20" cx="23.443" cy="37.293" rx="1" ry="0.987"/>
				</g>
			</g>
		</g>
	</g>
	<path fill="#574137" d="M26.166,44.704c0.984,0.712,1.934,1.144,2.908,1.43c0.969,0.286,1.947,0.409,2.928,0.411
		c0.98-0.005,1.959-0.127,2.928-0.413c0.975-0.288,1.924-0.719,2.908-1.428c-0.422,1.329-1.357,2.374-2.4,3.042
		c-1.055,0.674-2.25,0.998-3.436,0.998c-1.184-0.003-2.377-0.326-3.432-1.001C27.523,47.075,26.587,46.03,26.166,44.704z"/>
	<path fill="#4AA9FF" d="M32.001,7.135c-8.252,0-14.938,1.418-14.938,4.362c0,2.945,6.688,5.333,14.938,5.333
		c8.252,0,14.94-2.388,14.94-5.333C46.941,8.553,40.252,7.135,32.001,7.135z M32.001,12.303c-5.523,0-10-0.784-10-1.75
		s4.477-1.664,10-1.664c5.524,0,10.002,0.698,10.002,1.664S37.525,12.303,32.001,12.303z"/>
</g>
</svg>
