<?xml version="1.0" encoding="utf-8"?>
<!-- Generator: Adobe Illustrator 15.0.0, SVG Export Plug-In . SVG Version: 6.00 Build 0)  -->
<!DOCTYPE svg PUBLIC "-//W3C//DTD SVG 1.1//EN" "http://www.w3.org/Graphics/SVG/1.1/DTD/svg11.dtd">
<svg version="1.1" id="Layer_1" xmlns="http://www.w3.org/2000/svg" xmlns:xlink="http://www.w3.org/1999/xlink" x="0px" y="0px"
	 width="64px" height="64px" viewBox="0 0 64 64" enable-background="new 0 0 64 64" xml:space="preserve">
<g>
	<g>
		<g>
			<path fill="#748A93" d="M2.224,21.057c0,0,1.697-0.648,3.252,0.113c-5.949,6.176-2.457,19.654-2.457,19.654h58.126L62,31.406
				c0-13.803-4.859-22.525-29.917-22.525C6.257,8.881,5.386,14.346,2.224,21.057z"/>
		</g>
		<g>
			<path fill="#FFDD67" d="M58.518,36.748c-9.147-3.598-1.969-13.516-1.68-15.494c0,0.002-2.143-19.309-24.837-19.311
				C9.308,1.939,7.163,21.256,7.163,21.254c0.287,1.977,7.466,11.896-1.68,15.494c0,0-3.4-0.449-3.4,3.65
				c0,4.936,3.498,4.102,3.498,4.102c0,7.518,7.406,17.443,26.42,17.443c19.011,0,26.421-9.926,26.421-17.443
				c0,0,3.496,0.834,3.496-4.102C61.918,36.299,58.518,36.748,58.518,36.748z"/>
		</g>
		<g>
			<path fill="#748A93" d="M40.724,52.799c0.162,0,0.252-0.9,0.252-1.275c0-2.572-4.018-4.791-8.975-4.791s-8.977,2.283-8.977,4.857
				c0,0.346,0.076,1.209,0.215,1.209h3.029l0.598-1.438l0.537,1.438H40.724z"/>
		</g>
		<g>
			<path fill="#748A93" d="M17.584,9.711c2.34-0.738,4.652-1.525,7.066-2.042c2.401-0.55,4.867-0.867,7.349-0.971
				c2.482-0.069,4.984,0.08,7.426,0.57c2.438,0.476,4.822,1.257,6.992,2.442c-2.437-0.396-4.816-0.722-7.202-0.896
				c-2.384-0.162-4.765-0.219-7.146-0.119c-2.384,0.061-4.768,0.281-7.171,0.508C22.497,9.419,20.068,9.788,17.584,9.711z"/>
		</g>
		<g>
			<path fill="#748A93" d="M14.473,13.924c2.87-0.739,5.715-1.531,8.646-2.045c2.921-0.549,5.894-0.863,8.88-0.967
				c2.986-0.068,5.988,0.076,8.941,0.563c2.951,0.472,5.86,1.247,8.586,2.449c-2.948-0.399-5.85-0.724-8.758-0.898
				c-2.905-0.162-5.809-0.217-8.713-0.116c-2.906,0.062-5.811,0.283-8.732,0.51C20.404,13.635,17.462,14.003,14.473,13.924z"/>
		</g>
	</g>
	<g>
		<g>
			<path fill="#454749" d="M17.751,39.224l-0.334-2.982c0.778-0.086,1.863-0.297,3.12-0.539c5.881-1.138,15.727-3.039,26.366,0.611
				l-0.974,2.838c-9.881-3.391-19.235-1.584-24.823-0.504C19.787,38.902,18.647,39.122,17.751,39.224z"/>
		</g>
		<g>
			<g>
				<ellipse fill="#454749" cx="19.709" cy="37.822" rx="8.976" ry="9"/>
			</g>
		</g>
		<g>
			<g>
				<ellipse fill="#B4D7EE" cx="19.709" cy="37.822" rx="5.984" ry="6"/>
			</g>
		</g>
		<g>
			<g>
				<ellipse fill="#454749" cx="44.292" cy="37.822" rx="8.975" ry="9"/>
			</g>
		</g>
		<g>
			<g>
				<ellipse fill="#B4D7EE" cx="44.292" cy="37.822" rx="5.984" ry="6"/>
			</g>
		</g>
	</g>
</g>
</svg>
