<?xml version="1.0" encoding="utf-8"?>
<!-- Generator: Adobe Illustrator 15.0.0, SVG Export Plug-In . SVG Version: 6.00 Build 0)  -->
<!DOCTYPE svg PUBLIC "-//W3C//DTD SVG 1.1//EN" "http://www.w3.org/Graphics/SVG/1.1/DTD/svg11.dtd">
<svg version="1.1" id="Layer_1" xmlns="http://www.w3.org/2000/svg" xmlns:xlink="http://www.w3.org/1999/xlink" x="0px" y="0px"
	 width="64px" height="64px" viewBox="0 0 64 64" enable-background="new 0 0 64 64" xml:space="preserve">
<g>
	<g>
		<g>
			<ellipse fill="#627A82" cx="31.993" cy="11.561" rx="15" ry="9.561"/>
		</g>
		<g>
			<ellipse fill="#C28FEF" cx="31.993" cy="15.57" rx="15" ry="9.561"/>
		</g>
		<g>
			<path fill="#D6A57C" d="M57.255,28.893c-15.611-15.596-35.072-15.666-50.655,0l0.096,17.311C6.696,53.74,14.104,62,32.413,62
				c17.342,0,24.857-6.752,24.857-15.797L57.255,28.893z"/>
		</g>
		<g>
			<path fill="#454749" d="M39.224,51.744c0.137,0.158,0.211,0.363,0.211,0.611c0.002,1.691-3.357,3.766-7.5,3.766
				s-7.5-2.061-7.5-3.752c0-0.229,0.064-0.467,0.178-0.625c0,0,3.242,1.459,7.322,1.459C36.007,53.203,39.224,51.744,39.224,51.744z
				"/>
		</g>
		<g>
			<g>
				<path fill="#748A93" d="M31.993,9.111c-29.452,0-35.76,23.74-25.235,32.037c0,0,5.205-8.783,16.129-12.998
					C51.317,17.176,43.411,9.111,31.993,9.111z"/>
			</g>
			<g>
				<path fill="#8B9FA5" d="M31.993,9.111c-11.418,0-19.327,8.064,9.105,19.039c10.924,4.215,16.146,12.998,16.146,12.998
					C67.772,32.852,61.446,9.111,31.993,9.111z"/>
			</g>
		</g>
		<g>
			<g>
				<g>
					<path fill="#454749" d="M42.825,54.381c-0.577,0.003-1.125-0.151-1.64-0.368c-0.519-0.216-0.995-0.521-1.434-0.881
						c-0.849-0.727-1.552-1.762-1.593-2.919c0.775,0.828,1.457,1.505,2.239,2.157C41.165,53.032,41.979,53.628,42.825,54.381z"/>
				</g>
			</g>
			<g>
				<g>
					<path fill="#454749" d="M21.044,54.381c0.845-0.753,1.659-1.349,2.426-2.011c0.781-0.652,1.464-1.329,2.24-2.157
						c-0.043,1.157-0.744,2.192-1.594,2.919c-0.438,0.359-0.915,0.665-1.434,0.881C22.169,54.229,21.62,54.384,21.044,54.381z"/>
				</g>
			</g>
		</g>
	</g>
	<g>
		<g>
			<path fill="#454749" d="M17.712,40.985l-0.334-2.982c0.778-0.086,1.863-0.297,3.12-0.539c5.881-1.138,15.727-3.039,26.366,0.611
				l-0.974,2.838c-9.881-3.391-19.235-1.584-24.823-0.504C19.748,40.664,18.608,40.884,17.712,40.985z"/>
		</g>
		<g>
			<g>
				<ellipse fill="#454749" cx="19.669" cy="39.584" rx="8.975" ry="9"/>
			</g>
			<g>
				<ellipse fill="#B4D7EE" cx="19.669" cy="39.584" rx="5.984" ry="6"/>
			</g>
		</g>
		<g>
			<g>
				<ellipse fill="#454749" cx="44.253" cy="39.584" rx="8.976" ry="9"/>
			</g>
		</g>
		<g>
			<g>
				<ellipse fill="#B4D7EE" cx="44.253" cy="39.584" rx="5.984" ry="6"/>
			</g>
		</g>
	</g>
</g>
</svg>
