<?xml version="1.0" encoding="utf-8"?>
<!-- Generator: Adobe Illustrator 15.0.0, SVG Export Plug-In . SVG Version: 6.00 Build 0)  -->
<!DOCTYPE svg PUBLIC "-//W3C//DTD SVG 1.1//EN" "http://www.w3.org/Graphics/SVG/1.1/DTD/svg11.dtd">
<svg version="1.1" id="Layer_1" xmlns="http://www.w3.org/2000/svg" xmlns:xlink="http://www.w3.org/1999/xlink" x="0px" y="0px"
	 width="64px" height="64px" viewBox="0 0 64 64" enable-background="new 0 0 64 64" xml:space="preserve">
<g>
	<path fill="#CEDBD5" d="M50.002,10.777c-7.045-5.533-28.955-5.533-36,0c-10.412,8.18-12,51.221-12,51.221H62
		C62,61.998,60.41,18.957,50.002,10.777z"/>
	<path fill="#594640" d="M54.309,38.982c0.297-0.686,0.465-1.445,0.465-2.248c0-1.488-0.566-2.834-1.482-3.818
		c1.393-0.977,2.311-2.645,2.311-4.539c0-1.988-1.016-3.723-2.529-4.676c0.57-0.875,0.904-1.934,0.904-3.074
		c0-0.176-0.002-0.352-0.006-0.527l-1.381-3.67l0.285-2.688c-2.3-6.58-8.459-11.744-20.873-11.744
		c-12.402,0-18.563,5.154-20.868,11.725l0.275,2.708l-1.379,3.703c-0.003,0.165-0.005,0.329-0.005,0.494
		c0,1.141,0.336,2.199,0.904,3.074C9.416,24.654,8.4,26.389,8.4,28.377c0,1.895,0.92,3.563,2.313,4.539
		c-0.916,0.984-1.484,2.33-1.484,3.818c0,0.803,0.168,1.563,0.464,2.248c-2.048,0.729-2.69,2.764-2.69,5.164
		c0,10.123,10.959,5.67,10.959,5.67h28.082c0,0,10.959,4.453,10.959-5.67C57.002,41.746,56.357,39.711,54.309,38.982z"/>
	<path fill="#F2F1F0" d="M54.26,61.998c0-14.73-1.438-15.533-22.259-15.533c-20.815,0-22.257,0.803-22.257,15.533H54.26z"/>
	<path fill="#F2F1F0" d="M32.003,6.629c-7.84,0-15.072,2.652-20.871,7.105c-0.709,2.023-1.049,4.182-1.096,6.365
		c5.551-5.814,13.344-9.443,21.967-9.443s16.413,3.629,21.964,9.443c-0.047-2.184-0.387-4.342-1.094-6.365
		C47.074,9.281,39.841,6.629,32.003,6.629z"/>
	<g>
		<path fill="#D6A57C" d="M15.898,35.17c0,0-3.251-0.832-3.251-5.645c0-3.811,2.45-4.465,2.45-4.465
			c8.786,0,23.099-9.482,23.099-9.482s5.411,8.146,10.634,9.482c0,0,2.525,0.467,2.525,4.465c0,4.813-3.373,5.645-3.373,5.645
			c-0.045,7.26-9.96,16.018-15.98,16.018C25.98,51.188,15.898,42.43,15.898,35.17z"/>
		<path fill="#B58360" d="M36.035,38.484c0,1.582-3.28,2.041-4.033,2.041s-4.033-0.561-4.033-2.145
			C27.969,38.381,36.035,37.695,36.035,38.484z"/>
		<g>
			<path fill="#F5F5F5" d="M26.51,32.162c0.947,0,0.821-2.449,0.821-2.449c-2.908-6.502-9.389-2.389-9.389-2.389
				c-2.52,1.127,1.129,4.684,1.714,4.838C22.4,32.906,26.51,32.162,26.51,32.162z"/>
			<g>
				<circle fill="#664E27" cx="22.713" cy="29.186" r="3.1"/>
				<circle fill="#231F20" cx="22.715" cy="29.186" r="1"/>
			</g>
			<path fill="#231F20" d="M28.146,30.648c-0.846-0.938-1.652-1.842-2.563-2.521c-0.915-0.674-1.901-1.08-2.974-1.159
				c-1.071-0.094-2.211,0.116-3.416,0.32c-0.602,0.107-1.228,0.208-1.883,0.229c-0.635,0.009-1.41-0.089-1.84-0.599
				c0.607,0.205,1.167,0.057,1.723-0.128c0.557-0.179,1.111-0.425,1.697-0.633c1.154-0.433,2.453-0.798,3.844-0.684
				c1.391,0.095,2.744,0.796,3.631,1.789C27.275,28.244,27.848,29.422,28.146,30.648z"/>
		</g>
		<g>
			<path fill="#F5F5F5" d="M37.493,32.162c-0.946,0-0.821-2.449-0.821-2.449c2.909-6.502,9.391-2.389,9.391-2.389
				c2.518,1.127-1.131,4.684-1.715,4.838C41.604,32.906,37.493,32.162,37.493,32.162z"/>
			<g>
				<circle fill="#664E27" cx="41.291" cy="29.186" r="3.1"/>
				<circle fill="#231F20" cx="41.289" cy="29.186" r="1"/>
			</g>
			<path fill="#231F20" d="M35.857,30.648c0.299-1.227,0.871-2.405,1.781-3.385c0.887-0.992,2.24-1.694,3.631-1.789
				c1.391-0.114,2.689,0.251,3.844,0.684c0.586,0.208,1.141,0.454,1.697,0.633c0.556,0.185,1.115,0.333,1.723,0.128
				c-0.43,0.51-1.205,0.607-1.84,0.599c-0.655-0.021-1.281-0.122-1.883-0.229c-1.205-0.205-2.345-0.414-3.416-0.32
				c-1.072,0.079-2.059,0.484-2.974,1.159C37.51,28.807,36.703,29.71,35.857,30.648z"/>
		</g>
		<g>
			<g>
				<path fill="#B5607C" d="M34.864,42.365c-0.585-0.145-1.439-0.076-2.568,0.303c-0.097,0.029-0.195,0.061-0.294,0.094
					c-0.099-0.033-0.197-0.064-0.294-0.094c-1.129-0.379-1.984-0.447-2.569-0.303c-1.746,0.424-4.393,0.217-4.393,0.217
					c1.924,1.922,2.839,4.549,7.256,4.549s5.332-2.627,7.256-4.549C39.258,42.582,36.611,42.789,34.864,42.365z"/>
				<path fill="#804458" d="M34.864,42.365c-0.585-0.145-1.439-0.076-2.568,0.303c-0.097,0.029-0.195,0.061-0.294,0.094
					c-0.099-0.033-0.197-0.064-0.294-0.094c-1.129-0.379-1.984-0.447-2.569-0.303c-1.714,0.416-4.404,0.215-4.393,0.217
					c2.903,0.521,3.266,2.006,7.256,2.006s4.353-1.484,7.256-2.006C39.269,42.58,36.579,42.781,34.864,42.365z"/>
			</g>
		</g>
	</g>
	<g>
		<polygon fill="#428BC1" points="39.854,61.998 23.252,61.998 21.072,59.021 41.166,59.021 		"/>
		<path fill="#224863" d="M41.166,59.021c0,0.44-4.498,0.796-10.049,0.796c-5.546,0-10.045-0.355-10.045-0.796
			c0-0.439,4.499-0.796,10.045-0.796C36.668,58.226,41.166,58.582,41.166,59.021z"/>
	</g>
	<g>
		<g>
			<g>
				<polygon fill="#871212" points="25.631,54.284 23.645,52.076 22.063,54.53 				"/>
				<polygon fill="#991D1D" points="22.954,54.894 25.027,51.972 27.358,53.42 				"/>
				<polygon fill="#AD2727" points="22.106,53 21.809,54.729 26.412,54.979 				"/>
				<path fill="#CC3636" d="M25.398,54.968c2.901,1.362,2.597,3.185,1.123,3.907c-1.473,0.722-3.78,0.091-4.176-1.771
					c-0.397-1.873-1.685-2.993-1.685-2.993S23.182,53.927,25.398,54.968z"/>
				<path fill="#E24B4B" d="M23.665,55.604c-1.04,3.066,1.489,3.939,2.962,3.219c1.473-0.723,1.992-2.686,1.158-4.385
					c-0.834-1.701-1.553-2.544-1.553-2.544S24.406,53.421,23.665,55.604z"/>
				<path fill="#75A843" d="M26.32,58.083c2.262-1.146,1.701,0.231,0.229,0.953c-3.623,1.776-5.014-1.465-5.014-1.465
					S24.313,59.101,26.32,58.083z"/>
				<path fill="#83BF4F" d="M26.32,58.083c-0.489,0.549-1.907,1.682-0.328,1.262c3.121-0.828,2.523-5.057,2.523-5.057
					S27.773,56.452,26.32,58.083z"/>
			</g>
		</g>
		<g>
			<g>
				<polygon fill="#871212" points="35.893,52.82 40.113,55.349 40.021,51.938 				"/>
				<polygon fill="#991D1D" points="39.77,57.274 36.986,53.248 41.695,53.248 				"/>
				<polygon fill="#AD2727" points="40.739,55.755 38.124,51.176 35.946,53.022 				"/>
				<polygon fill="#CC3636" points="38.602,55.521 34.127,55.261 36.118,50.629 				"/>
				<path fill="#E24B4B" d="M36.83,54.385c-3.499,1.165-2.553,4.064-0.883,4.905c1.669,0.84,3.809-0.041,4.779-1.969
					c0.971-1.926,2.082-2.847,2.082-2.847S39.323,53.554,36.83,54.385z"/>
				<path fill="#83BF4F" d="M36.408,58.502c-0.836-0.066-2.84-0.575-1.373,0.57c2.902,2.263,6.33-1.188,6.33-1.188
					S38.89,58.698,36.408,58.502z"/>
			</g>
		</g>
		<g>
			<g>
				<polygon fill="#871212" points="27.615,52.819 33.799,52.542 30.805,49.823 				"/>
				<polygon fill="#991D1D" points="34.982,51.764 28.998,53.433 32.658,50.125 				"/>
				<polygon fill="#AD2727" points="33.018,53.12 28.487,50.547 27.871,53.882 				"/>
				<path fill="#CC3636" d="M32.191,54.186v5.497c-2.168,0.48-4.771-1.085-4.697-3.66c0.074-2.59-1.262-4.474-1.262-4.474
					S29.605,52.108,32.191,54.186z"/>
				<path fill="#E24B4B" d="M29.708,54.471c-2.346,3.7,0.703,5.658,2.871,5.178s3.476-2.897,2.921-5.399
					c-0.555-2.503-0.223-4.185-0.223-4.185S31.379,51.834,29.708,54.471z"/>
				<path fill="#75A843" d="M32.41,58.577c3.342-0.788,2.164,0.848-0.003,1.327c-5.333,1.183-6.128-3.524-6.128-3.524
					S29.445,59.276,32.41,58.577z"/>
				<path fill="#83BF4F" d="M32.41,58.577c-0.818,0.566-3.045,1.604-0.833,1.556c4.37-0.097,4.933-5.849,4.933-5.849
					S34.843,56.895,32.41,58.577z"/>
			</g>
		</g>
	</g>
</g>
</svg>
