<?xml version="1.0" encoding="utf-8"?>
<!-- Generator: Adobe Illustrator 15.0.0, SVG Export Plug-In . SVG Version: 6.00 Build 0)  -->
<!DOCTYPE svg PUBLIC "-//W3C//DTD SVG 1.1//EN" "http://www.w3.org/Graphics/SVG/1.1/DTD/svg11.dtd">
<svg version="1.1" id="Layer_1" xmlns="http://www.w3.org/2000/svg" xmlns:xlink="http://www.w3.org/1999/xlink" x="0px" y="0px"
	 width="64px" height="64px" viewBox="0 0 64 64" enable-background="new 0 0 64 64" xml:space="preserve">
<g>
	<path fill="#FED0AC" d="M62.002,31.76c0-2.537-1.861-4.615-4.277-4.972c-1.191-16.24-12.25-24.79-25.723-24.79
		c-13.472,0-24.529,8.55-25.722,24.79c-2.417,0.356-4.278,2.435-4.278,4.972c0,2.64,2.016,4.778,4.574,5
		c1.652,12.444,8.627,15.68,25.426,15.68c16.799,0,23.774-3.235,25.426-15.68C59.986,36.538,62.002,34.399,62.002,31.76z"/>
	<path fill="#DBB471" d="M35.469,13.178c1.066,0,2.104-0.066,3.119-0.168c-2.402-1.762-4.27-4.063-5.365-6.691
		c2.75,1.012,5.998,1.6,9.484,1.6c1.066,0,2.105-0.064,3.121-0.17c-1.484-1.086-2.752-2.385-3.771-3.834
		c-3.178-1.268-6.688-1.916-10.381-1.916c-4.949,0-9.57,1.156-13.498,3.42C20.259,9.887,27.197,13.178,35.469,13.178z"/>
	<path opacity="0.5" fill="#FF717F" d="M55.219,37.049c-0.338-2.473-3.137-3.963-6.254-3.328c-3.117,0.633-5.369,3.156-5.033,5.633
		c0.34,2.473,3.139,3.967,6.258,3.33C53.307,42.047,55.557,39.525,55.219,37.049z"/>
	<path opacity="0.5" fill="#FF717F" d="M15.039,33.721c-3.113-0.635-5.916,0.855-6.254,3.328c-0.336,2.477,1.916,4.998,5.033,5.635
		s5.916-0.857,6.254-3.33C20.412,36.877,18.156,34.357,15.039,33.721z"/>
	<g>
		<path fill="#FFFFFF" d="M26.339,27.754c0,3.865-3.135,6.998-6.998,6.998c-3.869,0-7.002-3.133-7.002-6.998
			c0-3.867,3.133-7.002,7.002-7.002C23.205,20.752,26.339,23.887,26.339,27.754z"/>
		<path fill="#664E27" d="M24.589,27.752c0,2.898-2.352,5.25-5.25,5.25c-2.9,0-5.25-2.352-5.25-5.25c0-2.902,2.35-5.25,5.25-5.25
			C22.238,22.502,24.589,24.85,24.589,27.752z"/>
		<path fill="#231F20" d="M21.088,27.753c0,0.966-0.786,1.746-1.749,1.746c-0.968,0-1.751-0.78-1.751-1.746
			c0-0.969,0.783-1.751,1.751-1.751C20.302,26.002,21.088,26.784,21.088,27.753z"/>
	</g>
	<g>
		<path fill="#FFFFFF" d="M51.666,27.756c0,3.865-3.135,6.996-7,6.996s-7-3.131-7-6.996c0-3.867,3.135-7.004,7-7.004
			S51.666,23.889,51.666,27.756z"/>
		<path fill="#664E27" d="M49.916,27.752c0,2.898-2.35,5.25-5.25,5.25s-5.25-2.352-5.25-5.25c0-2.902,2.35-5.25,5.25-5.25
			S49.916,24.85,49.916,27.752z"/>
		<path fill="#231F20" d="M46.416,27.753c0,0.966-0.783,1.747-1.75,1.747s-1.75-0.781-1.75-1.747c0-0.969,0.783-1.753,1.75-1.753
			S46.416,26.784,46.416,27.753z"/>
	</g>
	<path fill="#E0A372" d="M35.504,34.184c0,1.322-2.848,1.701-3.5,1.701c-0.654,0-3.5-0.467-3.5-1.787
		C28.503,34.098,35.504,33.527,35.504,34.184z"/>
	<path fill="#61C2FF" d="M47.002,42.502c0,9.379-6.715,13.721-15,13.721c-8.283,0-15-4.342-15-13.721
		c0-9.375,6.756-5.793,15.039-5.793C40.326,36.709,47.002,33.127,47.002,42.502z"/>
	<ellipse fill="#6235A8" cx="32.002" cy="46.129" rx="6" ry="5.66"/>
	<path fill="#FBBF67" d="M32.001,45.561c-5.965,0-10.799-0.713-10.799,5.389c0,6.104,4.834,11.049,10.799,11.049
		c5.965,0,10.801-4.945,10.801-11.049C42.803,44.848,37.967,45.561,32.001,45.561z M32.001,58.264c-4.24,0-8.158-2.975-8.158-7.314
		s3.918-3.283,8.158-3.283c4.243,0,8.161-1.057,8.161,3.283S36.244,58.264,32.001,58.264z"/>
	<path fill="#42ADE2" d="M35.67,47.451c0,0.625-0.447,1.131-1,1.131h-5.334c-0.553,0-1-0.506-1-1.131v-2.643
		c0-0.627,0.447-1.133,1-1.133h5.334c0.553,0,1,0.506,1,1.133V47.451z"/>
</g>
</svg>
