<?xml version="1.0" encoding="utf-8"?>
<!-- Generator: Adobe Illustrator 15.0.0, SVG Export Plug-In . SVG Version: 6.00 Build 0)  -->
<!DOCTYPE svg PUBLIC "-//W3C//DTD SVG 1.1//EN" "http://www.w3.org/Graphics/SVG/1.1/DTD/svg11.dtd">
<svg version="1.1" id="Layer_1" xmlns="http://www.w3.org/2000/svg" xmlns:xlink="http://www.w3.org/1999/xlink" x="0px" y="0px"
	 width="64px" height="64px" viewBox="0 0 64 64" enable-background="new 0 0 64 64" xml:space="preserve">
<g>
	<g>
		<g>
			<path fill="#FED0AC" d="M58.59,37.701c-4.127-1.551-2.684-6.717-2.684-6.717H8.096c0,0,1.445,5.166-2.684,6.717
				c0,0-3.41,0.605-3.41,4.533c0,4.73,3.508,4.965,3.508,4.965c0,7.203,7.428,14.799,26.492,14.799
				c19.062,0,26.492-7.596,26.492-14.799c0,0,3.506-0.234,3.506-4.965C62,38.307,58.59,37.701,58.59,37.701z"/>
		</g>
		<g>
			<g>
				<path fill="#664E27" d="M24.795,51.691c-0.137,0.158-0.211,0.361-0.211,0.609c-0.002,1.686,3.357,3.754,7.5,3.754
					c4.142,0,7.5-2.053,7.5-3.74c0-0.227-0.064-0.465-0.178-0.623c0,0-3.242,1.453-7.322,1.453
					C28.012,53.145,24.795,51.691,24.795,51.691z"/>
			</g>
		</g>
	</g>
	<g>
		<path fill="#FF9430" d="M59,30.984H5C5,16.646,11.756,5.501,32,5.501C52.246,5.501,59,16.646,59,30.984z"/>
	</g>
	<g>
		<polygon fill="#DB802B" points="24.459,30.984 20.459,30.984 20.459,7.056 24.461,5.89 		"/>
	</g>
	<g>
		<polygon fill="#DB802B" points="43.541,30.984 39.541,30.984 39.543,5.89 43.541,7.056 		"/>
	</g>
	<g>
		<path fill="#DB802B" d="M62,33.188H2c0-5.115,13.432-9.264,30-9.264C48.568,23.924,62,28.072,62,33.188z"/>
	</g>
	<g>
		<path fill="#FF9430" d="M41.541,27.668H22.459V6.55c0-6.068,19.082-6.068,19.082,0V27.668z"/>
	</g>
	<g>
		<rect x="5" y="33.188" fill="#DBB471" width="3.445" height="8.217"/>
	</g>
	<g>
		<rect x="55.557" y="33.188" fill="#DBB471" width="3.443" height="8.217"/>
	</g>
	<g>
		<g>
			<path fill="#F5F5F5" d="M12.634,38.683c-0.323,1.517-0.708,5.321,6.475,5.188c7.443-0.142,7.147,0.5,7.509-2.014
				c0.316-2.199-2.293-4.644-6.154-5.521S13.095,36.512,12.634,38.683z"/>
			<g>
				<ellipse fill="#664E27" cx="20.293" cy="39.802" rx="3.926" ry="3.889"/>
				<path fill="#231F20" d="M21.543,39.802c0,0.685-0.563,1.238-1.25,1.238c-0.691,0-1.25-0.554-1.25-1.238
					c0-0.686,0.559-1.237,1.25-1.237C20.981,38.564,21.543,39.116,21.543,39.802z"/>
			</g>
			<path fill="#664E27" d="M12.493,40.157c-1.045-6.75,14.096-6.391,14.096,0.798C24.401,35.235,13.963,35.038,12.493,40.157z"/>
		</g>
		<g>
			<path fill="#F5F5F5" d="M51.367,38.683c0.324,1.517,0.709,5.321-6.475,5.188c-7.443-0.142-7.148,0.5-7.51-2.014
				c-0.314-2.199,2.295-4.644,6.156-5.521S50.906,36.512,51.367,38.683z"/>
			<g>
				<ellipse fill="#664E27" cx="43.708" cy="39.802" rx="3.925" ry="3.889"/>
				<path fill="#231F20" d="M44.957,39.802c0,0.685-0.561,1.238-1.248,1.238c-0.691,0-1.252-0.554-1.252-1.238
					c0-0.686,0.561-1.237,1.252-1.237C44.396,38.564,44.957,39.116,44.957,39.802z"/>
			</g>
			<path fill="#664E27" d="M51.508,40.157c1.047-6.75-14.096-6.391-14.096,0.798C39.602,35.235,50.039,35.038,51.508,40.157z"/>
		</g>
	</g>
</g>
</svg>
