<?xml version="1.0" encoding="utf-8"?>
<!-- Generator: Adobe Illustrator 15.0.0, SVG Export Plug-In . SVG Version: 6.00 Build 0)  -->
<!DOCTYPE svg PUBLIC "-//W3C//DTD SVG 1.1//EN" "http://www.w3.org/Graphics/SVG/1.1/DTD/svg11.dtd">
<svg version="1.1" id="Layer_1" xmlns="http://www.w3.org/2000/svg" xmlns:xlink="http://www.w3.org/1999/xlink" x="0px" y="0px"
	 width="64px" height="64px" viewBox="0 0 64 64" enable-background="new 0 0 64 64" xml:space="preserve">
<g>
	<g>
		<g>
			<path fill="#8A6859" d="M58.591,37.701c-4.127-1.551-2.684-6.717-2.684-6.717H8.097c0,0,1.445,5.166-2.684,6.717
				c0,0-3.41,0.605-3.41,4.533c0,4.73,3.508,4.965,3.508,4.965c0,7.203,7.428,14.799,26.492,14.799
				c19.063,0,26.492-7.596,26.492-14.799c0,0,3.506-0.234,3.506-4.965C62.001,38.307,58.591,37.701,58.591,37.701z"/>
		</g>
		<g>
			<g>
				<path fill="#574137" d="M24.796,51.691c-0.137,0.158-0.211,0.361-0.211,0.609c-0.002,1.686,3.357,3.754,7.5,3.754
					s7.5-2.053,7.5-3.74c0-0.227-0.064-0.465-0.178-0.623c0,0-3.242,1.453-7.322,1.453C28.013,53.145,24.796,51.691,24.796,51.691z"
					/>
			</g>
		</g>
	</g>
	<g>
		<path fill="#FF9430" d="M59.001,30.984h-54c0-14.339,6.755-25.483,27-25.483C52.247,5.501,59.001,16.646,59.001,30.984z"/>
	</g>
	<g>
		<polygon fill="#DB802B" points="24.46,30.984 20.46,30.984 20.46,7.056 24.461,5.89 		"/>
	</g>
	<g>
		<polygon fill="#DB802B" points="43.542,30.984 39.542,30.984 39.543,5.89 43.542,7.056 		"/>
	</g>
	<g>
		<path fill="#DB802B" d="M62.001,33.188h-60c0-5.115,13.432-9.264,30-9.264S62.001,28.072,62.001,33.188z"/>
	</g>
	<g>
		<path fill="#FF9430" d="M41.542,27.668H22.46V6.55c0-6.068,19.082-6.068,19.082,0V27.668z"/>
	</g>
	<g>
		<rect x="5.001" y="33.188" fill="#231F20" width="3.445" height="8.217"/>
	</g>
	<g>
		<rect x="55.558" y="33.188" fill="#231F20" width="3.443" height="8.217"/>
	</g>
	<g>
		<g>
			<path fill="#F5F5F5" d="M12.634,38.683c-0.323,1.517-0.708,5.321,6.475,5.188c7.443-0.142,7.147,0.5,7.509-2.014
				c0.316-2.199-2.293-4.644-6.154-5.521S13.095,36.512,12.634,38.683z"/>
			<g>
				<ellipse fill="#664E27" cx="20.293" cy="39.802" rx="3.926" ry="3.889"/>
				<path fill="#231F20" d="M21.543,39.802c0,0.685-0.563,1.238-1.25,1.238c-0.691,0-1.25-0.554-1.25-1.238
					c0-0.686,0.559-1.237,1.25-1.237C20.98,38.564,21.543,39.116,21.543,39.802z"/>
			</g>
			<path fill="#574137" d="M12.492,40.157c-1.045-6.75,14.096-6.391,14.096,0.798C24.4,35.235,13.963,35.038,12.492,40.157z"/>
		</g>
		<g>
			<path fill="#F5F5F5" d="M51.367,38.683c0.323,1.517,0.709,5.321-6.475,5.188c-7.443-0.142-7.148,0.5-7.51-2.014
				c-0.314-2.199,2.295-4.644,6.156-5.521S50.906,36.512,51.367,38.683z"/>
			<g>
				<ellipse fill="#664E27" cx="43.708" cy="39.802" rx="3.925" ry="3.889"/>
				<ellipse fill="#231F20" cx="43.707" cy="39.802" rx="1.25" ry="1.238"/>
			</g>
			<path fill="#574137" d="M51.508,40.157c1.047-6.75-14.096-6.391-14.096,0.798C39.602,35.235,50.039,35.038,51.508,40.157z"/>
		</g>
	</g>
</g>
</svg>
