<?xml version="1.0" encoding="utf-8"?>
<!-- Generator: Adobe Illustrator 15.0.0, SVG Export Plug-In . SVG Version: 6.00 Build 0)  -->
<!DOCTYPE svg PUBLIC "-//W3C//DTD SVG 1.1//EN" "http://www.w3.org/Graphics/SVG/1.1/DTD/svg11.dtd">
<svg version="1.1" id="Layer_1" xmlns="http://www.w3.org/2000/svg" xmlns:xlink="http://www.w3.org/1999/xlink" x="0px" y="0px"
	 width="64px" height="64px" viewBox="0 0 64 64" enable-background="new 0 0 64 64" xml:space="preserve">
<g>
	<g>
		<g>
			<g>
				<path fill="#BEC6C9" d="M4.481,10.104c1.479-1.117,6.443,3.463,11.088,10.23c4.646,6.767,7.211,13.158,5.734,14.274
					c-1.48,1.121-6.441-3.464-11.09-10.232C5.571,17.613,3.002,11.222,4.481,10.104z"/>
				<path fill="#BEC6C9" d="M1.172,18.4c1.08-1.543,6.957,1.059,13.131,5.812c6.176,4.751,10.307,9.853,9.229,11.392
					c-1.074,1.544-6.955-1.063-13.131-5.813C4.229,25.042,0.096,19.938,1.172,18.4z"/>
				<path fill="#BEC6C9" d="M3.01,28.402c0.428-1.86,5.463-2.188,11.248-0.736c5.791,1.452,10.139,4.139,9.717,5.997
					c-0.424,1.864-5.461,2.188-11.252,0.736C6.938,32.944,2.588,30.261,3.01,28.402z"/>
				<path fill="#BEC6C9" d="M3.098,38.095c-0.723-1.755,2.742-5.011,7.732-7.267c4.996-2.263,9.627-2.67,10.348-0.915
					c0.725,1.756-2.74,5.007-7.734,7.269C8.452,39.439,3.819,39.851,3.098,38.095z"/>
				<path fill="#BEC6C9" d="M5.573,44.765c-0.955-1.466,1.906-5.269,6.391-8.489c4.49-3.228,8.9-4.655,9.855-3.191
					c0.957,1.465-1.906,5.26-6.393,8.49C10.942,44.795,6.53,46.228,5.573,44.765z"/>
				<path fill="#BEC6C9" d="M10.049,50.718c-1.248-1.247,0.781-5.612,4.531-9.735c3.754-4.132,7.809-6.471,9.053-5.223
					c1.252,1.245-0.783,5.605-4.533,9.741C15.348,49.626,11.295,51.968,10.049,50.718z"/>
				<path fill="#BEC6C9" d="M9.485,5.062c1.16-0.6,4.055,3.064,6.451,8.178c2.402,5.124,3.408,9.758,2.246,10.357
					c-1.162,0.604-4.051-3.065-6.453-8.183C9.331,10.296,8.323,5.661,9.485,5.062z"/>
				<path fill="#BEC6C9" d="M14.301,55.81c-1.119-0.721,0.277-5.254,3.125-10.11c2.848-4.861,6.066-8.214,7.188-7.487
					c1.125,0.72-0.279,5.249-3.127,10.11C18.641,53.182,15.424,56.534,14.301,55.81z"/>
				<path fill="#BEC6C9" d="M19.801,57.565c-0.926-0.175-0.885-4.874,0.094-10.48c0.979-5.612,2.52-10.02,3.441-9.841
					c0.926,0.172,0.879,4.871-0.098,10.481C22.262,53.338,20.723,57.74,19.801,57.565z"/>
				<path fill="#BEC6C9" d="M24.665,58.993c-0.932-0.141-1.168-4.006-0.525-8.624c0.639-4.629,1.91-8.266,2.838-8.121
					c0.934,0.138,1.164,4.008,0.525,8.63C26.862,55.504,25.592,59.138,24.665,58.993z"/>
			</g>
			<g>
				<path fill="#E1EDF5" d="M12.393,6.569c1.479-1.118,6.445,3.463,11.088,10.229c4.646,6.769,7.213,13.159,5.734,14.277
					c-1.48,1.117-6.443-3.467-11.088-10.232C13.483,14.078,10.915,7.687,12.393,6.569z"/>
				<path fill="#E1EDF5" d="M5.172,14.817c1.08-1.544,6.957,1.061,13.131,5.811c6.174,4.752,10.305,9.854,9.229,11.396
					c-1.078,1.542-6.957-1.063-13.133-5.816C8.229,21.458,4.096,16.356,5.172,14.817z"/>
				<path fill="#E1EDF5" d="M4.01,26.336c0.426-1.859,5.463-2.188,11.248-0.736c5.791,1.451,10.141,4.14,9.715,5.998
					c-0.422,1.861-5.459,2.188-11.25,0.736C7.938,30.879,3.586,28.197,4.01,26.336z"/>
				<path fill="#E1EDF5" d="M6.149,38.604c-0.879-1.678,2.271-5.263,7.035-8.012c4.768-2.753,9.34-3.625,10.217-1.951
					c0.881,1.677-2.27,5.261-7.035,8.015C11.602,39.404,7.028,40.277,6.149,38.604z"/>
				<path fill="#E1EDF5" d="M9.061,45.006c-1.059-1.247,1.375-5.335,5.43-9.131c4.061-3.801,8.207-5.871,9.266-4.624
					c1.061,1.242-1.375,5.329-5.434,9.128C14.266,44.174,10.118,46.248,9.061,45.006z"/>
				<path fill="#E1EDF5" d="M11.625,53.512c-1.154-0.615-0.098-5.242,2.363-10.323c2.461-5.094,5.393-8.717,6.545-8.104
					c1.158,0.614,0.096,5.235-2.361,10.327C15.709,50.496,12.78,54.125,11.625,53.512z"/>
				<path fill="#E1EDF5" d="M17.848,55.375c-1.248-0.36-1.098-5.115,0.34-10.612c1.438-5.505,3.615-9.673,4.863-9.312
					c1.25,0.355,1.094,5.109-0.342,10.612C21.272,51.56,19.096,55.732,17.848,55.375z"/>
				<path fill="#E1EDF5" d="M22.477,56.863c-0.906-0.26-0.477-4.933,0.961-10.431c1.438-5.505,3.338-9.754,4.24-9.491
					c0.908,0.256,0.473,4.932-0.961,10.436C25.278,52.874,23.379,57.125,22.477,56.863z"/>
			</g>
			<g>
				<path fill="#BEC6C9" d="M59.24,10.344c-1.479-1.118-6.443,3.462-11.088,10.229c-4.645,6.765-7.213,13.158-5.732,14.275
					c1.479,1.119,6.439-3.464,11.088-10.233C58.148,17.853,60.721,11.46,59.24,10.344z"/>
				<path fill="#BEC6C9" d="M62.832,18.4c-1.08-1.543-6.957,1.059-13.131,5.812c-6.176,4.751-10.309,9.853-9.23,11.392
					c1.076,1.544,6.957-1.063,13.131-5.813C59.773,25.042,63.906,19.938,62.832,18.4z"/>
				<path fill="#BEC6C9" d="M61.596,28.402c-0.428-1.86-5.463-2.188-11.25-0.736c-5.791,1.452-10.139,4.139-9.715,5.997
					c0.422,1.864,5.461,2.188,11.25,0.736C57.668,32.944,62.018,30.261,61.596,28.402z"/>
				<path fill="#BEC6C9" d="M60.904,38.095c0.725-1.755-2.74-5.011-7.73-7.267c-4.994-2.263-9.627-2.67-10.348-0.915
					c-0.727,1.756,2.738,5.007,7.734,7.269C55.553,39.439,60.186,39.851,60.904,38.095z"/>
				<path fill="#BEC6C9" d="M58.432,44.765c0.955-1.466-1.906-5.269-6.391-8.489c-4.488-3.228-8.9-4.655-9.855-3.191
					c-0.957,1.465,1.908,5.26,6.393,8.49C53.063,44.795,57.475,46.228,58.432,44.765z"/>
				<path fill="#BEC6C9" d="M53.953,50.718c1.25-1.247-0.779-5.612-4.529-9.735c-3.752-4.132-7.809-6.471-9.053-5.223
					c-1.25,1.245,0.781,5.605,4.531,9.741C48.654,49.626,52.709,51.968,53.953,50.718z"/>
				<path fill="#BEC6C9" d="M54.521,5.062c-1.162-0.6-4.055,3.064-6.451,8.178c-2.402,5.124-3.408,9.758-2.248,10.357
					c1.162,0.604,4.051-3.065,6.453-8.183C54.674,10.296,55.682,5.661,54.521,5.062z"/>
				<path fill="#BEC6C9" d="M49.701,55.81c1.119-0.721-0.277-5.254-3.121-10.11c-2.854-4.861-6.068-8.214-7.189-7.487
					c-1.125,0.72,0.279,5.249,3.125,10.11C45.361,53.182,48.58,56.534,49.701,55.81z"/>
				<path fill="#BEC6C9" d="M44.203,57.565c0.926-0.175,0.883-4.874-0.098-10.48c-0.977-5.612-2.518-10.02-3.438-9.841
					c-0.928,0.172-0.879,4.871,0.096,10.481C41.74,53.338,43.277,57.74,44.203,57.565z"/>
				<path fill="#BEC6C9" d="M39.342,58.993c0.928-0.141,1.168-4.006,0.523-8.624c-0.639-4.629-1.908-8.266-2.84-8.121
					c-0.932,0.138-1.164,4.008-0.521,8.63C37.143,55.504,38.414,59.138,39.342,58.993z"/>
			</g>
			<g>
				<path fill="#E1EDF5" d="M52.244,6.569c-1.48-1.118-6.445,3.463-11.092,10.229c-4.645,6.769-7.213,13.159-5.732,14.277
					c1.479,1.117,6.441-3.467,11.088-10.232C51.148,14.078,53.721,7.687,52.244,6.569z"/>
				<path fill="#E1EDF5" d="M58.832,14.817c-1.08-1.544-6.957,1.061-13.131,5.811c-6.178,4.752-10.309,9.854-9.23,11.396
					c1.078,1.542,6.957-1.063,13.133-5.816C55.773,21.458,59.904,16.356,58.832,14.817z"/>
				<path fill="#E1EDF5" d="M59.99,26.336c-0.424-1.859-5.461-2.188-11.244-0.736c-5.791,1.451-10.143,4.14-9.719,5.998
					c0.426,1.861,5.461,2.188,11.252,0.736C56.064,30.879,60.416,28.197,59.99,26.336z"/>
				<path fill="#E1EDF5" d="M57.855,38.604c0.879-1.678-2.271-5.263-7.035-8.012c-4.766-2.753-9.34-3.625-10.217-1.951
					c-0.881,1.677,2.271,5.261,7.037,8.015C52.4,39.404,56.977,40.277,57.855,38.604z"/>
				<path fill="#E1EDF5" d="M54.941,45.006c1.063-1.247-1.375-5.335-5.43-9.131c-4.059-3.801-8.207-5.871-9.264-4.624
					c-1.063,1.242,1.375,5.329,5.432,9.128C49.734,44.174,53.887,46.248,54.941,45.006z"/>
				<path fill="#E1EDF5" d="M52.379,53.512c1.15-0.615,0.098-5.242-2.363-10.323c-2.461-5.094-5.393-8.717-6.545-8.104
					c-1.158,0.614-0.096,5.235,2.363,10.327C48.295,50.496,51.225,54.125,52.379,53.512z"/>
				<path fill="#E1EDF5" d="M46.152,55.375c1.25-0.36,1.102-5.115-0.338-10.612c-1.438-5.505-3.613-9.673-4.861-9.312
					c-1.25,0.355-1.096,5.109,0.342,10.612C42.73,51.56,44.906,55.732,46.152,55.375z"/>
				<path fill="#E1EDF5" d="M41.525,56.863c0.906-0.26,0.479-4.933-0.961-10.431c-1.438-5.505-3.338-9.754-4.236-9.491
					c-0.91,0.256-0.477,4.932,0.959,10.436C38.727,52.874,40.625,57.125,41.525,56.863z"/>
			</g>
		</g>
		<path fill="#594640" d="M52.428,30.629c0,16.783-2.824,18.328-20.425,18.328c-17.602,0-20.426-1.545-20.426-18.328
			c0-10.12,5.984-18.326,20.426-18.326C46.441,12.303,52.428,20.509,52.428,30.629z"/>
		<g>
			<path fill="#FFE1BD" d="M49.832,35.415c-1.951-1.767,0.064-5.278-2.527-10.301c-3.064,3.11-9.236,7.312-20.015,6.933
				c0,0,0.748-0.479,1.873-1.309c0,0-3.93,0.634-7.26-0.601c0,0,0.564-0.322,1.461-0.912c-3.303,0.214-5.969,0.06-7.287-0.646
				c0,0,1.002,5.63-1.863,6.835c0,0-2.371-0.333-2.371,2.724c0,3.676,2.436,3.056,2.436,3.056c0,5.494,5.209,11.512,18.084,11.512
				c12.197,0,17.482-4.92,17.482-11.512c0,0,2.318,0.62,2.318-3.056C52.16,35.227,49.832,35.415,49.832,35.415z"/>
			<path opacity="0.5" fill="#FF717F" d="M48.512,43.067c-0.238-1.817-2.229-2.913-4.443-2.444c-2.215,0.467-3.813,2.318-3.574,4.14
				c0.24,1.818,2.23,2.915,4.445,2.447C47.152,46.74,48.75,44.887,48.512,43.067z"/>
			<path opacity="0.5" fill="#FF717F" d="M19.975,40.623c-2.213-0.469-4.203,0.627-4.443,2.444
				c-0.238,1.817,1.361,3.673,3.576,4.141c2.213,0.468,4.199-0.63,4.441-2.447C23.79,42.941,22.188,41.088,19.975,40.623z"/>
		</g>
		<path fill="#664E27" d="M26.167,44.704c0.984,0.712,1.934,1.144,2.908,1.43c0.969,0.286,1.947,0.409,2.928,0.411
			c0.98-0.005,1.958-0.127,2.927-0.413c0.975-0.288,1.924-0.719,2.908-1.428c-0.422,1.329-1.357,2.374-2.402,3.042
			c-1.053,0.674-2.25,0.998-3.433,0.998c-1.186-0.003-2.379-0.326-3.432-1.001C27.524,47.075,26.588,46.03,26.167,44.704z"/>
		<path fill="#4AA9FF" d="M32.002,7.135c-8.252,0-14.939,1.418-14.939,4.362c0,2.945,6.689,5.333,14.939,5.333
			c8.25,0,14.939-2.388,14.939-5.333C46.941,8.553,40.252,7.135,32.002,7.135z M32.002,12.303c-5.523,0-10-0.784-10-1.75
			s4.477-1.664,10-1.664c5.523,0,10,0.698,10,1.664S37.525,12.303,32.002,12.303z"/>
	</g>
	<g>
		<g>
			<g>
				<circle fill="#FFFFFF" cx="40.561" cy="37.293" r="4.5"/>
				<g>
					<ellipse fill="#664E27" cx="40.561" cy="37.293" rx="3.134" ry="3.098"/>
					<ellipse fill="#231F20" cx="40.561" cy="37.293" rx="1" ry="0.987"/>
				</g>
			</g>
		</g>
		<g>
			<g>
				<circle fill="#FFFFFF" cx="23.443" cy="37.293" r="4.5"/>
				<g>
					<ellipse fill="#664E27" cx="23.443" cy="37.293" rx="3.134" ry="3.098"/>
					<ellipse fill="#231F20" cx="23.442" cy="37.293" rx="1" ry="0.987"/>
				</g>
			</g>
		</g>
	</g>
</g>
</svg>
