<?xml version="1.0" encoding="utf-8"?>
<!-- Generator: Adobe Illustrator 15.0.0, SVG Export Plug-In . SVG Version: 6.00 Build 0)  -->
<!DOCTYPE svg PUBLIC "-//W3C//DTD SVG 1.1//EN" "http://www.w3.org/Graphics/SVG/1.1/DTD/svg11.dtd">
<svg version="1.1" id="Layer_1" xmlns="http://www.w3.org/2000/svg" xmlns:xlink="http://www.w3.org/1999/xlink" x="0px" y="0px"
	 width="64px" height="64px" viewBox="0 0 64 64" enable-background="new 0 0 64 64" xml:space="preserve">
<g>
	<g>
		<g>
			<g>
				<path fill="#DBB471" d="M12.126,45.677c0,0-0.518-3.815,0.092-8.364c0.088-0.652-2.699-0.319-2.699-0.319
					s0.193,5.388,1.029,7.061C11.068,45.089,12.126,45.677,12.126,45.677z"/>
			</g>
			<g>
				<path fill="#DBB471" d="M51.877,45.677c0,0,0.52-3.815-0.09-8.364c-0.088-0.652,2.699-0.319,2.699-0.319
					s-0.193,5.388-1.031,7.061C52.938,45.089,51.877,45.677,51.877,45.677z"/>
			</g>
		</g>
		<path fill="#DBB471" d="M49.766,8.868C40.064-4.179,12.472,5.535,10.458,4.622c0,0-0.326,1.904,0.836,3.143
			C9.783,8.78,8.097,7.05,8.097,7.05s-1.75,4.203,0.059,6.878c-2.902,3.87,0.693,24.284,0.693,24.284h45.489
			c0,0,5.496-15.944-0.758-26.9C52.186,8.866,50.865,10.347,49.766,8.868z"/>
		<path fill="#FED0AC" d="M58.002,34.964c0-8.488-5.846-4.18-5.846-4.18c-1.068-22.292-6.689-12.243-20.155-12.243
			c-13.465,0-19.084-10.049-20.152,12.243c0,0-5.848-4.309-5.848,4.18c0,3.238,1.119,5.893,4.887,6.179
			c1.605,13.119,4.492,15.252,14.104,19.908c2.527,1.225,4.105,0.911,7.01,0.911c2.907,0,4.485,0.313,7.012-0.911
			c9.611-4.656,12.498-6.788,14.104-19.908C56.885,40.856,58.002,38.202,58.002,34.964z"/>
		<g>
			<path fill="#DBB471" d="M12.126,34.146c0,0-0.518-3.816,0.092-8.365c0.088-0.651-2.699-0.318-2.699-0.318
				s0.193,5.387,1.029,7.061C11.068,33.558,12.126,34.146,12.126,34.146z"/>
			<path fill="#DBB471" d="M51.877,34.146c0,0,0.52-3.816-0.09-8.365c-0.088-0.651,2.699-0.318,2.699-0.318
				s-0.193,5.387-1.031,7.061C52.938,33.558,51.877,34.146,51.877,34.146z"/>
		</g>
		<path fill="#E0A372" d="M36.953,44.139c0,1.958-3.855,2.521-4.743,2.521c-0.885,0-4.74-0.691-4.74-2.646
			C27.47,44.013,36.953,43.166,36.953,44.139z"/>
		<g>
			<g>
				<path fill="#574137" d="M41.693,48.708c0,3.363-4.244,6.187-9.483,6.187c-5.236,0-9.482-2.823-9.482-6.187
					c0,0,5.043,0.301,9.484,0.301C36.65,49.009,41.693,48.708,41.693,48.708z"/>
			</g>
			<path fill="#FFFFFF" d="M40.893,49.182c0,1.698-3.885,3.042-8.68,3.042c-4.795,0-8.682-1.344-8.682-3.042
				c0,0,4.102,0.34,8.682,0.34C36.791,49.521,40.893,49.182,40.893,49.182z"/>
		</g>
	</g>
	<g>
		<g>
			<path fill="#F5F5F5" d="M13.635,30.494c-0.323,1.517-0.708,5.321,6.475,5.188c7.443-0.142,7.147,0.5,7.509-2.014
				c0.316-2.199-2.293-4.644-6.154-5.521S14.096,28.323,13.635,30.494z"/>
			<g>
				<ellipse fill="#0A84A5" cx="21.294" cy="31.613" rx="3.926" ry="3.889"/>
				<path fill="#231F20" d="M22.544,31.613c0,0.685-0.563,1.238-1.25,1.238c-0.691,0-1.25-0.554-1.25-1.238
					c0-0.685,0.559-1.237,1.25-1.237C21.982,30.376,22.544,30.928,22.544,31.613z"/>
			</g>
			<path fill="#664E27" d="M13.494,31.969c-1.045-6.75,14.096-6.391,14.096,0.798C25.402,27.047,14.964,26.85,13.494,31.969z"/>
		</g>
		<g>
			<path fill="#F5F5F5" d="M50.369,30.494c0.322,1.517,0.709,5.321-6.475,5.188c-7.443-0.142-7.148,0.5-7.51-2.014
				c-0.314-2.199,2.295-4.644,6.156-5.521S49.908,28.323,50.369,30.494z"/>
			<g>
				<ellipse fill="#0A84A5" cx="42.71" cy="31.613" rx="3.925" ry="3.889"/>
				<ellipse fill="#231F20" cx="42.709" cy="31.613" rx="1.25" ry="1.238"/>
			</g>
			<path fill="#664E27" d="M50.51,31.969c1.047-6.75-14.096-6.391-14.096,0.798C38.604,27.047,49.041,26.85,50.51,31.969z"/>
		</g>
	</g>
</g>
</svg>
