<?xml version="1.0" encoding="utf-8"?>
<!-- Generator: Adobe Illustrator 15.0.0, SVG Export Plug-In . SVG Version: 6.00 Build 0)  -->
<!DOCTYPE svg PUBLIC "-//W3C//DTD SVG 1.1//EN" "http://www.w3.org/Graphics/SVG/1.1/DTD/svg11.dtd">
<svg version="1.1" id="Layer_1" xmlns="http://www.w3.org/2000/svg" xmlns:xlink="http://www.w3.org/1999/xlink" x="0px" y="0px"
	 width="64px" height="64px" viewBox="0 0 64 64" enable-background="new 0 0 64 64" xml:space="preserve">
<g>
	<path fill="#231F20" d="M32.046,18.443c-16.848,0-28.843,0.475-28.843,9.752c0,0.822,0.822,13.775,0.822,13.775h55.957
		l0.822-13.775C60.805,20.943,50.547,18.443,32.046,18.443z"/>
	<path fill="#B47D56" d="M5.469,38.283c0,0,4.564-9.377,0-9.377h53.009c-5.371,0,0,9.377,0,9.377s3.523-0.459,3.523,3.733
		c0,5.044-3.623,4.192-3.623,4.192c0,7.533-7.754,15.789-26.913,15.789c-18.15,0-26.013-6.748-26.013-15.789
		c0,0-3.451,0.852-3.451-4.192C2.002,38.021,5.469,38.283,5.469,38.283z"/>
	<path fill="#574137" d="M24.712,50.756c-0.139,0.158-0.211,0.363-0.211,0.611c-0.002,1.691,3.357,3.766,7.5,3.766
		c4.143,0,7.5-2.061,7.5-3.752c0-0.229-0.064-0.467-0.18-0.625c0,0-3.24,1.459-7.321,1.459
		C27.929,52.215,24.712,50.756,24.712,50.756z"/>
	<g>
		<path fill="#F16A65" d="M31.97,4.883c-18.074,0-25.925,13.156-28.612,16.461c-2.871,3.533-0.291,9.881-0.291,9.881
			S3.358,34.1,32,34.1c28.643,0,28.936-2.875,28.936-2.875s2.578-6.348-0.293-9.881C57.945,18.025,50.047,4.883,31.97,4.883z"/>
		<path fill="#468BC4" d="M17.255,23.859c1.477-3.271,5.061-13.775,12.279-18.977C13.187,5.997,5.922,18.101,3.358,21.252
			c-2.871,3.533-0.291,9.881-0.291,9.881s0.188,1.711,13.425,2.492C16.154,30.74,15.998,26.648,17.255,23.859z"/>
		<path fill="#468BC4" d="M46.746,23.859c-1.475-3.271-5.061-13.775-12.279-18.977C50.814,5.997,58.08,18.101,60.645,21.252
			c2.871,3.533,0.291,9.881,0.291,9.881s-0.188,1.711-13.426,2.492C47.848,30.74,48.004,26.648,46.746,23.859z"/>
		<ellipse fill="#C94747" cx="31.971" cy="4.522" rx="4.001" ry="2.526"/>
		<path fill="#454749" d="M32,24.752c-17.32,0-25.587-0.918-29.538-1.785c-1.295,3.563,0.605,8.258,0.605,8.258S3.358,34.1,32,34.1
			c28.643,0,28.936-2.875,28.936-2.875s1.9-4.695,0.605-8.257C57.59,23.834,49.32,24.752,32,24.752z"/>
		<ellipse fill="#FBBF67" cx="32.001" cy="29.492" rx="4.001" ry="3.644"/>
	</g>
	<g>
		<g>
			<path fill="#F5F5F5" d="M12.634,38.496c-0.322,1.517-0.708,5.321,6.475,5.188c7.443-0.142,7.148,0.5,7.51-2.014
				c0.315-2.199-2.294-4.644-6.155-5.521S13.095,36.325,12.634,38.496z"/>
			<g>
				<ellipse fill="#664E27" cx="20.294" cy="39.615" rx="3.925" ry="3.889"/>
				<path fill="#231F20" d="M21.543,39.615c0,0.685-0.562,1.238-1.249,1.238c-0.691,0-1.251-0.554-1.251-1.238
					c0-0.686,0.56-1.237,1.251-1.237C20.982,38.378,21.543,38.93,21.543,39.615z"/>
			</g>
			<path fill="#574137" d="M12.494,39.971c-1.046-6.75,14.096-6.391,14.096,0.798C24.401,35.049,13.963,34.852,12.494,39.971z"/>
		</g>
		<g>
			<path fill="#F5F5F5" d="M51.369,38.496c0.322,1.517,0.708,5.321-6.475,5.188c-7.443-0.142-7.148,0.5-7.51-2.014
				c-0.315-2.199,2.294-4.644,6.155-5.521S50.908,36.325,51.369,38.496z"/>
			<g>
				<ellipse fill="#664E27" cx="43.709" cy="39.615" rx="3.925" ry="3.889"/>
				<ellipse fill="#231F20" cx="43.709" cy="39.615" rx="1.25" ry="1.238"/>
			</g>
			<path fill="#574137" d="M51.51,39.971c1.046-6.75-14.096-6.391-14.096,0.798C39.603,35.049,50.04,34.852,51.51,39.971z"/>
		</g>
	</g>
</g>
</svg>
