<?xml version="1.0" encoding="utf-8"?>
<!-- Generator: Adobe Illustrator 15.0.0, SVG Export Plug-In . SVG Version: 6.00 Build 0)  -->
<!DOCTYPE svg PUBLIC "-//W3C//DTD SVG 1.1//EN" "http://www.w3.org/Graphics/SVG/1.1/DTD/svg11.dtd">
<svg version="1.1" id="Layer_1" xmlns="http://www.w3.org/2000/svg" xmlns:xlink="http://www.w3.org/1999/xlink" x="0px" y="0px"
	 width="64px" height="64px" viewBox="0 0 64 64" enable-background="new 0 0 64 64" xml:space="preserve">
<g>
	<g>
		<path fill="#D6A57C" d="M6.704,28.893h50.945l-0.096,17.311c0,7.537-7.45,15.795-25.866,15.795
			c-17.441,0-24.999-6.75-24.999-15.795L6.704,28.893z"/>
		<path fill="#FFFFFF" d="M59.307,29.553H5.09c0-11.199,12.136-20.279,27.108-20.279C47.169,9.273,59.307,18.354,59.307,29.553z"/>
		<g>
			<path fill="#467591" d="M57.504,47.258c3.311-16.375,0.984-37.188-25.395-45.26c0,0-19.439,11.393,9.158,26.895
				C52.253,34.848,57.504,47.258,57.504,47.258z"/>
			<path fill="#3A81AD" d="M21.675,9.357c0.045-4.617,4.813-7.359,10.443-7.359c28.143,0,35.27,32.49,26.129,40.623
				C56.373,25.832,45.325,10.666,21.675,9.357z"/>
		</g>
		<g>
			<path fill="#428BC1" d="M6.725,47.258C0.008,25.029,23.091,2.604,51.942,9.273c9.04,2.09-1.102,10.141-28.978,19.619
				C11.123,32.92,6.725,47.258,6.725,47.258z"/>
			<path fill="#57A1CE" d="M51.942,9.273c0.277-5.244-14.201-7.275-19.83-7.275c-28.144,0-35.794,31.51-26.134,41.324
				C9.814,15.195,28.292,10.582,51.942,9.273z"/>
		</g>
	</g>
	<path fill="#664E27" d="M24.916,51.744c-0.137,0.156-0.211,0.361-0.211,0.609c-0.002,1.693,3.357,3.768,7.5,3.768
		c4.142,0,7.5-2.061,7.5-3.752c0-0.229-0.064-0.469-0.178-0.625c0,0-3.242,1.459-7.322,1.459
		C28.132,53.203,24.916,51.744,24.916,51.744z"/>
	<g>
		<g>
			<path fill="#F5F5F5" d="M12.635,39.09c-0.324,1.517-0.709,5.321,6.475,5.188c7.443-0.142,7.147,0.5,7.509-2.014
				c0.315-2.199-2.294-4.644-6.155-5.521S13.096,36.919,12.635,39.09z"/>
			<g>
				<ellipse fill="#664E27" cx="20.294" cy="40.209" rx="3.925" ry="3.889"/>
				<ellipse fill="#231F20" cx="20.293" cy="40.209" rx="1.25" ry="1.238"/>
			</g>
			<path fill="#664E27" d="M12.494,40.564c-1.046-6.75,14.096-6.391,14.096,0.798C24.401,35.643,13.963,35.445,12.494,40.564z"/>
		</g>
		<g>
			<path fill="#F5F5F5" d="M51.367,39.09c0.324,1.517,0.709,5.321-6.475,5.188c-7.443-0.142-7.147,0.5-7.509-2.014
				c-0.315-2.199,2.294-4.644,6.155-5.521S50.906,36.919,51.367,39.09z"/>
			<g>
				<ellipse fill="#664E27" cx="43.708" cy="40.209" rx="3.925" ry="3.889"/>
				<path fill="#231F20" d="M44.958,40.209c0,0.685-0.562,1.238-1.249,1.238c-0.691,0-1.251-0.554-1.251-1.238
					c0-0.686,0.56-1.237,1.251-1.237C44.396,38.972,44.958,39.523,44.958,40.209z"/>
			</g>
			<path fill="#664E27" d="M51.509,40.564c1.046-6.75-14.096-6.391-14.096,0.798C39.602,35.643,50.039,35.445,51.509,40.564z"/>
		</g>
	</g>
</g>
</svg>
