<?xml version="1.0" encoding="utf-8"?>
<!-- Generator: Adobe Illustrator 15.0.0, SVG Export Plug-In . SVG Version: 6.00 Build 0)  -->
<!DOCTYPE svg PUBLIC "-//W3C//DTD SVG 1.1//EN" "http://www.w3.org/Graphics/SVG/1.1/DTD/svg11.dtd">
<svg version="1.1" id="Layer_1" xmlns="http://www.w3.org/2000/svg" xmlns:xlink="http://www.w3.org/1999/xlink" x="0px" y="0px"
	 width="64px" height="64px" viewBox="0 0 64 64" enable-background="new 0 0 64 64" xml:space="preserve">
<g>
	<g>
		<g>
			<path fill="#748A93" d="M2.224,21.113c0,0,1.697-0.648,3.252,0.113c-5.949,6.176-2.457,19.654-2.457,19.654h58.126L62,31.463
				C62,17.66,57.141,8.938,32.083,8.938C6.257,8.938,5.386,14.402,2.224,21.113z"/>
		</g>
		<g>
			<path fill="#FED0AC" d="M58.518,36.805c-9.148-3.598-1.969-13.516-1.68-15.494C56.838,21.313,54.695,2.002,32,2
				C9.308,1.996,7.163,21.313,7.163,21.311c0.287,1.977,7.466,11.896-1.68,15.494c0,0-3.4-0.449-3.4,3.65
				c0,4.936,3.498,4.102,3.498,4.102C5.581,52.074,12.987,62,32,62c19.011,0,26.421-9.926,26.421-17.443
				c0,0,3.496,0.834,3.496-4.102C61.918,36.355,58.518,36.805,58.518,36.805z"/>
		</g>
		<g>
			<path fill="#748A93" d="M40.723,52.855c0.162,0,0.252-0.9,0.252-1.275c0-2.572-4.018-4.791-8.974-4.791
				c-4.957,0-8.977,2.283-8.977,4.857c0,0.346,0.076,1.209,0.215,1.209h3.029l0.598-1.438l0.537,1.438H40.723z"/>
		</g>
		<g>
			<path fill="#748A93" d="M17.584,9.768c2.341-0.738,4.651-1.525,7.065-2.042c2.402-0.55,4.867-0.867,7.35-0.971
				c2.483-0.069,4.985,0.08,7.424,0.57c2.439,0.476,4.824,1.257,6.992,2.442c-2.436-0.396-4.814-0.722-7.201-0.896
				c-2.385-0.162-4.764-0.219-7.147-0.119c-2.384,0.061-4.768,0.281-7.17,0.508C22.498,9.476,20.069,9.844,17.584,9.768z"/>
		</g>
		<g>
			<path fill="#748A93" d="M14.473,13.98c2.87-0.739,5.715-1.531,8.646-2.045c2.921-0.549,5.895-0.863,8.881-0.967
				c2.987-0.068,5.989,0.076,8.942,0.563c2.951,0.472,5.859,1.247,8.584,2.449c-2.947-0.399-5.85-0.724-8.756-0.898
				c-2.906-0.162-5.809-0.217-8.713-0.116c-2.906,0.062-5.812,0.283-8.732,0.51C20.404,13.692,17.461,14.06,14.473,13.98z"/>
		</g>
	</g>
	<g>
		<g>
			<path fill="#454749" d="M17.751,39.28l-0.334-2.982c0.777-0.086,1.863-0.297,3.119-0.539c5.881-1.138,15.727-3.039,26.366,0.611
				l-0.973,2.838c-9.881-3.391-19.236-1.584-24.823-0.504C19.787,38.959,18.647,39.179,17.751,39.28z"/>
		</g>
		<g>
			<g>
				<ellipse fill="#454749" cx="19.708" cy="37.879" rx="8.975" ry="9"/>
			</g>
		</g>
		<g>
			<g>
				<ellipse fill="#B4D7EE" cx="19.708" cy="37.879" rx="5.984" ry="6"/>
			</g>
		</g>
		<g>
			<g>
				<ellipse fill="#454749" cx="44.292" cy="37.879" rx="8.976" ry="9"/>
			</g>
		</g>
		<g>
			<g>
				<ellipse fill="#B4D7EE" cx="44.292" cy="37.879" rx="5.983" ry="6"/>
			</g>
		</g>
	</g>
</g>
</svg>
