<?xml version="1.0" encoding="utf-8"?>
<!-- Generator: Adobe Illustrator 15.0.0, SVG Export Plug-In . SVG Version: 6.00 Build 0)  -->
<!DOCTYPE svg PUBLIC "-//W3C//DTD SVG 1.1//EN" "http://www.w3.org/Graphics/SVG/1.1/DTD/svg11.dtd">
<svg version="1.1" id="Layer_1" xmlns="http://www.w3.org/2000/svg" xmlns:xlink="http://www.w3.org/1999/xlink" x="0px" y="0px"
	 width="64px" height="64px" viewBox="0 0 64 64" enable-background="new 0 0 64 64" xml:space="preserve">
<g>
	<g>
		<path fill="#D35454" d="M0,38.771l11.577,5.29c0,0,2.26,4.597,6.309,7.711c4.425,3.403,9.874,4.49,9.874,4.49l-1.066,5.625
			c0,0-1.376-2.887-5.313-2.887C17.717,59,15,64,15,64s-1.433-7.345-4.018-9.527C8.348,52.249,0,53.525,0,53.525
			c-0.002,0.002,2.725-5.477,2.725-9.428C2.725,40.642,0,38.771,0,38.771z"/>
		<g>
			<path fill="#AD4040" d="M0,38.771c2.094,0.521,4.13,1.171,6.144,1.867c1.008,0.346,2.014,0.697,3.004,1.082
				c0.994,0.378,1.994,0.741,2.976,1.144l0.349,0.144l0.285,0.473c0.812,1.349,1.815,2.751,2.866,3.994
				c1.063,1.265,2.203,2.397,3.491,3.399c1.259,0.974,2.689,1.851,4.164,2.633c0.738,0.397,1.503,0.753,2.279,1.092
				c0.765,0.354,1.575,0.679,2.345,0.948l0.752,0.264l-0.178,0.588c-0.556,1.837-1.104,3.676-1.784,5.489
				c0.032-1.937,0.194-3.848,0.349-5.761l0.574,0.852c-1.843-0.201-3.583-0.63-5.31-1.25c-1.726-0.615-3.375-1.434-4.936-2.524
				c-1.535-1.061-2.892-2.412-4.045-3.845c-1.157-1.463-2.125-2.967-2.93-4.717l0.634,0.615c-0.947-0.479-1.877-0.996-2.813-1.501
				c-0.939-0.497-1.863-1.026-2.785-1.563C3.588,41.126,1.765,40.013,0,38.771z"/>
			<polygon fill="#AD4040" points="0,53.525 10.628,42.899 12.526,45.222 			"/>
			<polygon fill="#AD4040" points="15,64 17.906,52.231 20.707,53.306 			"/>
		</g>
		<path fill="#D35454" d="M64,38.771l-11.577,5.29c0,0-2.261,4.597-6.31,7.711c-4.425,3.403-9.874,4.49-9.874,4.49l1.067,5.625
			c0,0,1.376-2.887,5.313-2.887c3.663,0,6.38,5,6.38,5s1.434-7.345,4.018-9.527C55.652,52.249,64,53.525,64,53.525
			c-0.001-0.002-2.725-5.477-2.725-9.428C61.275,40.642,64,38.771,64,38.771z"/>
		<g>
			<path fill="#AD4040" d="M64,38.771c-1.765,1.242-3.588,2.355-5.434,3.422c-0.921,0.537-1.845,1.066-2.784,1.563
				c-0.936,0.505-1.865,1.022-2.813,1.501l0.634-0.615c-0.805,1.75-1.773,3.254-2.93,4.717c-1.153,1.433-2.511,2.784-4.046,3.845
				c-1.562,1.091-3.21,1.909-4.936,2.524c-1.727,0.62-3.467,1.049-5.311,1.25l0.574-0.852c0.155,1.913,0.318,3.824,0.351,5.761
				c-0.68-1.813-1.229-3.652-1.784-5.489l-0.179-0.588l0.753-0.264c0.771-0.27,1.58-0.595,2.346-0.947
				c0.775-0.34,1.541-0.695,2.279-1.093c1.475-0.782,2.904-1.659,4.164-2.633c1.288-1.002,2.427-2.135,3.49-3.399
				c1.051-1.243,2.055-2.646,2.866-3.994l0.285-0.473l0.349-0.144c0.982-0.402,1.982-0.766,2.976-1.144
				c0.991-0.385,1.996-0.736,3.005-1.082C59.87,39.941,61.906,39.292,64,38.771z"/>
			<polygon fill="#AD4040" points="64,53.525 51.474,45.222 53.372,42.899 			"/>
			<polygon fill="#AD4040" points="49,64 43.293,53.306 46.094,52.231 			"/>
		</g>
	</g>
	<circle fill="#F46767" cx="32" cy="29" r="27"/>
	<g>
		<g>
			<g>
				<path fill="#493B30" d="M46.182,37.406c0,6.012-4.709,13.021-14.182,13.021c-9.477,0-14.184-7.01-14.184-13.021
					c0,0,4.707,0,14.184,0C41.473,37.406,46.182,37.406,46.182,37.406z"/>
			</g>
			<g>
				<path fill="#302822" d="M34.015,39.879c-0.632-0.018-1.608,0.553-1.248,2.055c0.176,0.758,1.299,1.678,1.299,2.904
					c0,2.486-4.129,2.486-4.129,0c0-1.227,1.123-2.146,1.301-2.904c0.357-1.502-0.618-2.072-1.25-2.055
					c-1.719,0.045-4.537,1.822-4.537,4.836c0,3.385,2.934,6.129,6.551,6.129s6.551-2.744,6.551-6.129
					C38.551,41.701,35.732,39.924,34.015,39.879z"/>
			</g>
			<g>
				<path fill="#FF717F" d="M38.796,49.127C37,48.074,34.742,47.414,32,47.414s-5,0.66-6.796,1.713
					C27,50.18,29.258,50.844,32,50.844S37,50.18,38.796,49.127z"/>
			</g>
			<g>
				<polygon fill="#FFFFFF" points="32,37.822 34.259,41.955 36.521,37.822 				"/>
				<polygon fill="#FFFFFF" points="36.521,37.822 38.782,41.955 41.04,37.822 				"/>
				<polygon fill="#FFFFFF" points="41.04,37.822 43.302,41.955 45.563,37.822 				"/>
				<polygon fill="#FFFFFF" points="22.959,37.822 25.219,41.955 27.48,37.822 				"/>
				<polygon fill="#FFFFFF" points="18.439,37.822 20.699,41.955 22.959,37.822 				"/>
				<polygon fill="#FFFFFF" points="27.48,37.822 29.74,41.955 32,37.822 				"/>
			</g>
			<g>
				<path fill="#493B30" d="M32,51.176c-9.698,0-14.931-7.094-14.931-13.77v-0.748h29.86v0.748
					C46.93,44.082,41.696,51.176,32,51.176z M18.586,38.152c0.376,5.725,5.05,11.533,13.414,11.533
					c8.363,0,13.036-5.809,13.412-11.533H18.586z"/>
			</g>
		</g>
		<g>
			<g>
				<g>
					<path fill="#FFFFFF" d="M50.992,22.043c1.883,4.036,0.137,8.835-3.901,10.718c-4.037,1.881-8.836,0.135-10.715-3.9
						C34.958,25.82,49.575,19.003,50.992,22.043z"/>
					<path fill="#493B30" d="M48.623,23.147c1.272,2.729,0.094,5.973-2.634,7.248c-2.729,1.271-5.973,0.089-7.249-2.639
						C37.933,26.022,47.815,21.415,48.623,23.147z"/>
					<g>
						<path fill="#493B30" d="M52.492,22.351c-1.748,0.17-3.312,0.43-4.822,0.834c-1.506,0.394-2.943,0.919-4.328,1.561
							c-1.389,0.644-2.701,1.394-3.977,2.29c-1.276,0.896-2.476,1.925-3.722,3.171c0.19-1.766,1.059-3.423,2.221-4.79
							c1.167-1.366,2.667-2.471,4.3-3.22c1.636-0.758,3.435-1.181,5.233-1.197C49.187,20.993,51.009,21.381,52.492,22.351z"/>
					</g>
				</g>
				<g>
					<path fill="#FFFFFF" d="M13.008,22.043c-1.882,4.036-0.137,8.835,3.902,10.718c4.034,1.881,8.833,0.135,10.714-3.9
						C29.042,25.82,14.423,19.003,13.008,22.043z"/>
					<path fill="#493B30" d="M15.376,23.147c-1.274,2.729-0.094,5.973,2.634,7.248c2.731,1.271,5.974,0.089,7.249-2.639
						C26.064,26.022,16.184,21.415,15.376,23.147z"/>
					<g>
						<path fill="#493B30" d="M11.508,22.351c1.483-0.969,3.306-1.358,5.096-1.351c1.797,0.016,3.594,0.439,5.232,1.197
							c1.632,0.749,3.131,1.854,4.302,3.22c1.16,1.368,2.027,3.024,2.217,4.79c-1.245-1.246-2.442-2.275-3.72-3.171
							c-1.272-0.896-2.589-1.646-3.979-2.292c-1.381-0.64-2.818-1.165-4.324-1.559C14.819,22.781,13.259,22.521,11.508,22.351z"/>
					</g>
				</g>
			</g>
		</g>
	</g>
	<path fill="#FFDD67" d="M55.734,0c0,0-1.943,5.979-6.391,9.82c-5.132,4.433-0.183,9.968,3.887,8.798
		C56.261,17.746,60.775,13.051,55.734,0z"/>
	<path fill="#FFDD67" d="M14.654,9.819C10.207,5.979,8.268,0,8.268,0c-5.043,13.051-0.529,17.745,2.504,18.618
		C14.837,19.787,19.791,14.253,14.654,9.819z"/>
</g>
</svg>
