<?xml version="1.0" encoding="utf-8"?>
<!-- Generator: Adobe Illustrator 15.0.0, SVG Export Plug-In . SVG Version: 6.00 Build 0)  -->
<!DOCTYPE svg PUBLIC "-//W3C//DTD SVG 1.1//EN" "http://www.w3.org/Graphics/SVG/1.1/DTD/svg11.dtd">
<svg version="1.1" id="Layer_1" xmlns="http://www.w3.org/2000/svg" xmlns:xlink="http://www.w3.org/1999/xlink" x="0px" y="0px"
	 width="64px" height="64px" viewBox="0 0 64 64" enable-background="new 0 0 64 64" xml:space="preserve">
<g>
	<path fill="#594640" d="M31.946,18.443c-16.791,0-28.746,0.475-28.746,9.752c0,0.822,0.82,13.775,0.82,13.775h55.767l0.818-13.775
		C60.605,20.943,50.383,18.443,31.946,18.443z"/>
	<path fill="#FFE1BD" d="M5.661,38.283c0,0,4.549-9.377,0-9.377h52.83c-5.354,0,0,9.377,0,9.377s3.512-0.459,3.512,3.733
		c0,5.044-3.611,4.192-3.611,4.192c0,7.533-7.728,15.789-26.82,15.789c-18.09,0-25.926-6.748-25.926-15.789
		c0,0-3.439,0.852-3.439-4.192C2.206,38.021,5.661,38.283,5.661,38.283z"/>
	<path fill="#664E27" d="M24.637,50.756c-0.139,0.158-0.211,0.363-0.211,0.611c-0.002,1.691,3.346,3.766,7.475,3.766
		c4.128,0,7.474-2.061,7.474-3.752c0-0.229-0.064-0.467-0.179-0.625c0,0-3.229,1.459-7.295,1.459
		C27.842,52.215,24.637,50.756,24.637,50.756z"/>
	<g>
		<path fill="#F16A65" d="M31.87,4.883c-18.013,0-25.838,13.156-28.516,16.461c-2.861,3.533-0.291,9.881-0.291,9.881
			S3.354,34.1,31.899,34.1c28.545,0,28.837-2.875,28.837-2.875s2.569-6.348-0.292-9.881C57.756,18.025,49.885,4.883,31.87,4.883z"/>
		<path fill="#468BC4" d="M17.206,23.859c1.471-3.271,5.043-13.775,12.237-18.977C13.151,5.997,5.91,18.101,3.354,21.252
			c-2.861,3.533-0.291,9.881-0.291,9.881s0.188,1.711,13.381,2.492C16.108,30.74,15.952,26.648,17.206,23.859z"/>
		<path fill="#468BC4" d="M46.595,23.859c-1.47-3.271-5.043-13.775-12.237-18.977c16.292,1.114,23.533,13.218,26.089,16.369
			c2.861,3.533,0.29,9.881,0.29,9.881s-0.188,1.711-13.381,2.492C47.693,30.74,47.849,26.648,46.595,23.859z"/>
		<ellipse fill="#C94747" cx="31.87" cy="4.522" rx="3.987" ry="2.526"/>
		<path fill="#454749" d="M31.899,24.752c-17.262,0-25.501-0.918-29.439-1.785c-1.29,3.563,0.604,8.258,0.604,8.258
			S3.354,34.1,31.899,34.1c28.545,0,28.837-2.875,28.837-2.875s1.895-4.695,0.604-8.257C57.402,23.834,49.16,24.752,31.899,24.752z"
			/>
		<ellipse fill="#FBBF67" cx="31.9" cy="29.492" rx="3.987" ry="3.644"/>
	</g>
	<g>
		<g>
			<path fill="#F5F5F5" d="M12.534,38.496c-0.323,1.517-0.709,5.321,6.475,5.188c7.443-0.142,7.148,0.5,7.51-2.014
				c0.314-2.199-2.295-4.644-6.156-5.521S12.995,36.325,12.534,38.496z"/>
			<g>
				<ellipse fill="#664E27" cx="20.193" cy="39.615" rx="3.925" ry="3.889"/>
				<ellipse fill="#231F20" cx="20.192" cy="39.615" rx="1.25" ry="1.238"/>
			</g>
			<path fill="#664E27" d="M12.393,39.971c-1.047-6.75,14.096-6.391,14.096,0.798C24.299,35.049,13.862,34.852,12.393,39.971z"/>
		</g>
		<g>
			<path fill="#F5F5F5" d="M51.267,38.496c0.323,1.517,0.708,5.321-6.475,5.188c-7.443-0.142-7.147,0.5-7.509-2.014
				c-0.316-2.199,2.293-4.644,6.154-5.521S50.806,36.325,51.267,38.496z"/>
			<g>
				<ellipse fill="#664E27" cx="43.607" cy="39.615" rx="3.926" ry="3.889"/>
				<path fill="#231F20" d="M44.857,39.615c0,0.685-0.563,1.238-1.25,1.238c-0.691,0-1.25-0.554-1.25-1.238
					c0-0.686,0.559-1.237,1.25-1.237C44.295,38.378,44.857,38.93,44.857,39.615z"/>
			</g>
			<path fill="#664E27" d="M51.408,39.971c1.045-6.75-14.096-6.391-14.096,0.798C39.5,35.049,49.938,34.852,51.408,39.971z"/>
		</g>
	</g>
</g>
</svg>
