<?xml version="1.0" encoding="utf-8"?>
<!-- Generator: Adobe Illustrator 15.0.0, SVG Export Plug-In . SVG Version: 6.00 Build 0)  -->
<!DOCTYPE svg PUBLIC "-//W3C//DTD SVG 1.1//EN" "http://www.w3.org/Graphics/SVG/1.1/DTD/svg11.dtd">
<svg version="1.1" id="Layer_1" xmlns="http://www.w3.org/2000/svg" xmlns:xlink="http://www.w3.org/1999/xlink" x="0px" y="0px"
	 width="64px" height="64px" viewBox="0 0 64 64" enable-background="new 0 0 64 64" xml:space="preserve">
<g>
	<g>
		<g>
			<g>
				<path fill="#DBB471" d="M12.127,45.677c0,0-0.518-3.815,0.092-8.364c0.088-0.652-2.699-0.319-2.699-0.319
					s0.193,5.388,1.029,7.061C11.068,45.089,12.127,45.677,12.127,45.677z"/>
			</g>
			<g>
				<path fill="#DBB471" d="M51.876,45.677c0,0,0.52-3.815-0.09-8.364c-0.088-0.652,2.699-0.319,2.699-0.319
					s-0.193,5.388-1.031,7.061C52.937,45.089,51.876,45.677,51.876,45.677z"/>
			</g>
		</g>
		<path fill="#DBB471" d="M49.765,8.868C40.063-4.179,12.473,5.535,10.459,4.622c0,0-0.326,1.904,0.836,3.143
			C9.783,8.78,8.098,7.05,8.098,7.05s-1.75,4.203,0.059,6.878C5.254,17.798,8.85,38.212,8.85,38.212h45.487
			c0,0,5.497-15.944-0.758-26.9C52.185,8.866,50.864,10.347,49.765,8.868z"/>
		<path fill="#8A6859" d="M58.002,34.964c0-8.488-5.847-4.18-5.847-4.18c-1.068-22.292-6.689-12.243-20.154-12.243
			c-13.464,0-19.083-10.049-20.151,12.243c0,0-5.848-4.309-5.848,4.18c0,3.238,1.119,5.893,4.887,6.179
			c1.605,13.119,4.492,15.252,14.103,19.908c2.527,1.225,4.105,0.911,7.01,0.911c2.906,0,4.484,0.313,7.012-0.911
			c9.611-4.656,12.498-6.788,14.104-19.908C56.884,40.856,58.002,38.202,58.002,34.964z"/>
		<g>
			<path fill="#DBB471" d="M12.127,34.146c0,0-0.518-3.816,0.092-8.365c0.088-0.651-2.699-0.318-2.699-0.318
				s0.193,5.387,1.029,7.061C11.068,33.558,12.127,34.146,12.127,34.146z"/>
			<path fill="#DBB471" d="M51.876,34.146c0,0,0.52-3.816-0.09-8.365c-0.088-0.651,2.699-0.318,2.699-0.318
				s-0.193,5.387-1.031,7.061C52.937,33.558,51.876,34.146,51.876,34.146z"/>
		</g>
		<path fill="#705041" d="M36.952,44.139c0,1.958-3.855,2.521-4.742,2.521c-0.885,0-4.74-0.691-4.74-2.646
			C27.47,44.013,36.952,43.166,36.952,44.139z"/>
		<g>
			<g>
				<path fill="#574137" d="M41.692,48.708c0,3.363-4.244,6.187-9.482,6.187c-5.236,0-9.482-2.823-9.482-6.187
					c0,0,5.043,0.301,9.484,0.301C36.649,49.009,41.692,48.708,41.692,48.708z"/>
			</g>
			<path fill="#FFFFFF" d="M40.892,49.182c0,1.698-3.885,3.042-8.68,3.042s-8.682-1.344-8.682-3.042c0,0,4.102,0.34,8.682,0.34
				C36.79,49.521,40.892,49.182,40.892,49.182z"/>
		</g>
	</g>
	<g>
		<g>
			<path fill="#F5F5F5" d="M13.636,30.494c-0.324,1.517-0.709,5.321,6.475,5.188c7.443-0.142,7.147,0.5,7.509-2.014
				c0.315-2.199-2.294-4.644-6.155-5.521S14.097,28.323,13.636,30.494z"/>
			<g>
				<ellipse fill="#0A84A5" cx="21.294" cy="31.613" rx="3.925" ry="3.889"/>
				<ellipse fill="#231F20" cx="21.294" cy="31.613" rx="1.25" ry="1.238"/>
			</g>
			<path fill="#574137" d="M13.494,31.969c-1.046-6.75,14.096-6.391,14.096,0.798C25.401,27.047,14.964,26.85,13.494,31.969z"/>
		</g>
		<g>
			<path fill="#F5F5F5" d="M50.368,30.494c0.324,1.517,0.709,5.321-6.475,5.188c-7.443-0.142-7.147,0.5-7.509-2.014
				c-0.315-2.199,2.294-4.644,6.155-5.521S49.907,28.323,50.368,30.494z"/>
			<g>
				<ellipse fill="#0A84A5" cx="42.709" cy="31.613" rx="3.925" ry="3.889"/>
				<path fill="#231F20" d="M43.959,31.613c0,0.685-0.562,1.238-1.249,1.238c-0.691,0-1.251-0.554-1.251-1.238
					c0-0.685,0.56-1.237,1.251-1.237C43.397,30.376,43.959,30.928,43.959,31.613z"/>
			</g>
			<path fill="#574137" d="M50.51,31.969c1.046-6.75-14.096-6.391-14.096,0.798C38.603,27.047,49.04,26.85,50.51,31.969z"/>
		</g>
	</g>
</g>
</svg>
