<?xml version="1.0" encoding="utf-8"?>
<!-- Generator: Adobe Illustrator 15.0.0, SVG Export Plug-In . SVG Version: 6.00 Build 0)  -->
<!DOCTYPE svg PUBLIC "-//W3C//DTD SVG 1.1//EN" "http://www.w3.org/Graphics/SVG/1.1/DTD/svg11.dtd">
<svg version="1.1" id="Layer_1" xmlns="http://www.w3.org/2000/svg" xmlns:xlink="http://www.w3.org/1999/xlink" x="0px" y="0px"
	 width="64px" height="64px" viewBox="0 0 64 64" enable-background="new 0 0 64 64" xml:space="preserve">
<g>
	<g>
		<path fill="#594640" d="M32.001,1.998c-18.109,0-28,11.449-28,26.527v33.473h56V28.525c0-22.414-15.16-21.996-15.16-21.996
			S43.701,1.998,32.001,1.998z"/>
	</g>
	<g>
		<path fill="#FFE1BD" d="M12.033,41.137c0,0-4.031-1.031-4.031-6.998c0-4.727,3.039-5.537,3.039-5.537
			c10.895,0,35.26-4.705,35.26-4.705s0.092,3.047,6.566,4.705c0,0,3.135,0.578,3.135,5.537c0,5.967-4.182,6.998-4.182,6.998
			c-0.059,9.002-12.352,19.861-19.819,19.861C24.535,60.998,12.033,50.139,12.033,41.137z"/>
	</g>
	<g>
		<path fill="#E6B796" d="M37.002,45.246c0,1.963-4.067,2.529-5,2.529s-5-0.695-5-2.656C27.001,45.119,37.002,44.268,37.002,45.246z
			"/>
	</g>
	<g>
		<g>
			<g>
				<path fill="#F085A9" d="M35.553,50.057c-0.727-0.178-1.787-0.094-3.186,0.375c-0.121,0.037-0.244,0.078-0.365,0.117
					c-0.123-0.039-0.244-0.08-0.365-0.117c-1.398-0.469-2.461-0.553-3.186-0.375c-2.164,0.527-5.447,0.27-5.447,0.27
					c2.385,2.387,3.52,5.645,8.998,5.645c5.479,0,6.612-3.258,8.999-5.645C41,50.326,37.717,50.584,35.553,50.057z"/>
			</g>
			<g>
				<path fill="#D46C8F" d="M35.553,50.057c-0.727-0.178-1.787-0.094-3.186,0.375c-0.121,0.037-0.244,0.078-0.365,0.117
					c-0.123-0.039-0.244-0.08-0.365-0.117c-1.398-0.469-2.461-0.553-3.186-0.375c-2.125,0.518-5.461,0.268-5.447,0.27
					c3.602,0.648,4.051,2.488,8.998,2.488c4.948,0,5.397-1.84,8.999-2.488C41.012,50.324,37.678,50.574,35.553,50.057z"/>
			</g>
		</g>
	</g>
	<g>
		<path fill="#FFCE31" d="M57.949,16.337c-0.836-0.445-1.918-0.115-2.5,0.69c-0.244-0.875-0.695-1.607-1.264-2.117
			c0.566,0.018,0.766-0.344,0.648-0.741c-0.221-0.745-0.51-1.536-1.916-2.47c-0.01-1.614-1.184-3.072-1.227-3.117
			c-0.195-0.206-0.615-0.189-0.785,0.088c-0.031,0.053-0.939,1.551-0.535,3.289c-1.459,1.299-1.381,2.735-1.291,2.969
			c-0.236,0.004-1.678,1.027-2.068,2.887c-0.777,0.023-1.27,0.553-1.27,0.553c0.275-2.236-1.357-4.395-3.982-4.282
			c-0.676-3.891-5.146-5.185-5.949-1.356c-0.598-0.93-1.73-1.697-1.73-1.697c0.352-1.926-1.237-5.033-2.079-5.033
			s-2.432,3.107-2.078,5.033c0,0-1.133,0.768-1.732,1.697c-0.803-3.828-5.271-2.534-5.947,1.356
			c-2.626-0.112-4.259,2.046-3.982,4.282c0,0-0.494-0.529-1.27-0.553c-0.393-1.859-1.833-2.883-2.07-2.887
			c0.091-0.233,0.17-1.67-1.291-2.969c0.405-1.738-0.503-3.236-0.535-3.289c-0.17-0.277-0.59-0.294-0.785-0.088
			c-0.042,0.045-1.215,1.503-1.225,3.117c-1.406,0.934-1.695,1.725-1.917,2.47c-0.118,0.397,0.083,0.759,0.647,0.741
			c-0.566,0.51-1.018,1.242-1.262,2.117c-0.584-0.806-1.665-1.136-2.501-0.69c-0.972,0.515-1.324,1.798-0.828,2.884
			c0.633,1.383,2.426,1.498,3.302,0.519c0.406,2.228,2.727,3.097,4.524,1.595c-0.28,0.967,1.353,1.028,3.232-0.551
			c0.584,0.359,1.662,0.342,2.104,0.129c-0.072,1.174,0.515,3.086,2.562,3.086c1.402,0,1.955-1.01,1.857-1.813
			c0.828,0.335,2.285,0.568,3.361-0.139c2.098,1.82,3.623,2.076,3.684,1.035c0.612,0.52,1.353,0.828,2.15,0.828
			s1.538-0.309,2.149-0.828c0.063,1.041,1.586,0.785,3.686-1.035c1.076,0.707,2.533,0.474,3.359,0.139
			c-0.098,0.803,0.457,1.813,1.859,1.813c2.047,0,2.633-1.912,2.561-3.086c0.441,0.213,1.52,0.23,2.104-0.129
			c1.879,1.579,3.514,1.518,3.232,0.551c1.797,1.502,4.119,0.633,4.525-1.595c0.875,0.979,2.668,0.864,3.301-0.519
			C59.273,18.135,58.922,16.852,57.949,16.337z M10.369,13.908c0.244-0.729,0.855-1.105,0.855-1.105l0.22,0.827
			C11.444,13.63,10.911,14.021,10.369,13.908z M12.719,11.327l-0.611-0.043c0,0,0.097-0.87,0.454-1.299
			C12.841,10.551,12.719,11.327,12.719,11.327z M12.824,13.771l0.411-0.775c0,0,0.482,0.477,0.597,1.258
			C13.287,14.255,12.824,13.771,12.824,13.771z M13.622,15.283c0.222,0.037,0.718,0.054,0.718,0.054s-0.152,0.312-0.266,0.794
			C14.023,15.998,13.725,15.426,13.622,15.283z M14.089,21.109c0.17-0.856,0.661-1.545,0.661-1.545l0.659,0.682
			C15.41,20.246,14.762,20.92,14.089,21.109z M15.064,17.99c0,0-0.207-0.949,0.015-1.695c0.646,0.486,0.868,1.433,0.868,1.433
			L15.064,17.99z M16.755,19.843l0.217-0.946c0,0,0.773,0.19,1.343,0.944C17.701,20.112,16.755,19.843,16.755,19.843z
			 M39.039,17.313c-0.486-1.057,0.09-1.975,1.965-2.055C41.803,18.514,39.418,18.139,39.039,17.313z M32.001,7.402
			c0.49,0,1.127,2.499,0.962,3.367H31.04C30.875,9.901,31.511,7.402,32.001,7.402z M23,15.258c1.875,0.08,2.45,0.998,1.965,2.055
			C24.584,18.139,22.199,18.514,23,15.258z M20.207,18.92c-0.327,0.262-0.979,0.004-0.953-1.396
			C20.541,17.928,20.545,18.648,20.207,18.92z M22.646,20.976c-0.33-0.985-1.033-1.411-1.42-1.595
			c0.688-1.055,0.118-2.278-1.759-2.754c0.859-1.129,1.53-1.504,2.528-1.498c-0.719,3.057,1.02,4.591,3.243,3.298
			c-0.023,0.154-0.046,0.311-0.049,0.463C24.082,19.175,23.265,20.025,22.646,20.976z M23.634,21.322
			c0.322-0.725,1.617-1.352,1.617-1.352l0.371,1.179C25.623,21.149,24.626,21.611,23.634,21.322z M26,16.611
			c-0.109-1.093-0.31-1.94-2.739-2.383c0.765-3.49,3.575-3.266,3.924-1.612c0.249,1.176-1.438,1.585-1.003-0.062
			c0.162-0.611-0.746-0.85-0.975-0.272c-0.332,0.829-0.383,3.124,2.091,2.051c-0.226,0.56-0.529,0.923-0.335,1.244
			C26.783,15.725,26.379,16.084,26,16.611z M27.188,16.785c0.378,1.014,0.192,2.156,0.192,2.156l-1.154-0.24
			C26.226,18.701,26.484,17.6,27.188,16.785z M27,21.437l0.773-0.94c0,0,0.765,0.793,1,1.898C27.917,22.309,27,21.437,27,21.437z
			 M28.449,17.617c-0.016-0.773-0.463-1.553-0.463-1.553l1.261-0.041C29.247,16.023,28.583,16.697,28.449,17.617z M28.126,15.01
			c0.256-1.452,2.207-2.733,2.207-2.733l0.953,1.785C31.287,14.062,30.014,15.074,28.126,15.01z M32.001,13.131
			c-0.205-0.303-0.453-0.72-0.651-1.211c0.229-0.043,1.073-0.043,1.303,0C32.455,12.411,32.207,12.828,32.001,13.131z
			 M32.716,14.062l0.954-1.785c0,0,1.951,1.281,2.207,2.733C33.988,15.074,32.716,14.062,32.716,14.062z M34.756,16.023l1.262,0.041
			c0,0-0.447,0.779-0.463,1.553C35.418,16.697,34.756,16.023,34.756,16.023z M35.23,22.395c0.234-1.105,1-1.898,1-1.898l0.771,0.94
			C37.002,21.437,36.086,22.309,35.23,22.395z M36.623,18.941c0,0-0.188-1.143,0.191-2.156c0.705,0.814,0.961,1.916,0.961,1.916
			L36.623,18.941z M37.041,15.577c0.193-0.321-0.109-0.685-0.336-1.244c2.473,1.073,2.424-1.222,2.092-2.051
			c-0.23-0.577-1.139-0.339-0.977,0.272c0.436,1.646-1.25,1.237-1.002,0.062c0.35-1.653,3.158-1.878,3.924,1.612
			c-2.43,0.442-2.629,1.29-2.74,2.383C37.623,16.084,37.221,15.725,37.041,15.577z M38.381,21.149l0.369-1.179
			c0,0,1.297,0.627,1.619,1.352C39.375,21.611,38.381,21.149,38.381,21.149z M42.775,19.381c-0.385,0.184-1.088,0.609-1.42,1.595
			c-0.619-0.95-1.434-1.801-2.543-2.086c-0.004-0.152-0.025-0.309-0.049-0.463c2.225,1.293,3.961-0.241,3.242-3.298
			c1-0.006,1.67,0.369,2.529,1.498C42.658,17.103,42.088,18.326,42.775,19.381z M43.797,18.92c-0.34-0.271-0.334-0.992,0.951-1.396
			C44.775,18.924,44.123,19.182,43.797,18.92z M45.688,19.841c0.57-0.754,1.342-0.944,1.342-0.944l0.219,0.946
			C47.248,19.843,46.303,20.112,45.688,19.841z M48.924,16.295c0.223,0.746,0.014,1.695,0.014,1.695l-0.883-0.263
			C48.055,17.728,48.279,16.781,48.924,16.295z M48.592,20.246l0.66-0.682c0,0,0.492,0.688,0.662,1.545
			C49.24,20.92,48.592,20.246,48.592,20.246z M49.928,16.131c-0.111-0.482-0.264-0.794-0.264-0.794s0.496-0.017,0.717-0.054
			C50.277,15.426,49.98,15.998,49.928,16.131z M50.17,14.254c0.115-0.781,0.598-1.258,0.598-1.258l0.412,0.775
			C51.18,13.771,50.717,14.255,50.17,14.254z M51.283,11.327c0,0-0.123-0.776,0.158-1.342c0.355,0.429,0.453,1.299,0.453,1.299
			L51.283,11.327z M52.559,13.63l0.219-0.827c0,0,0.613,0.376,0.857,1.105C53.092,14.021,52.559,13.63,52.559,13.63z"/>
		<g>
			<g>
				<path fill="#FF5760" d="M56.531,19.29c-0.492-0.261-0.676-0.921-0.408-1.474c0.266-0.551,0.879-0.791,1.371-0.529
					c0.488,0.259,0.672,0.92,0.408,1.473C57.637,19.311,57.021,19.549,56.531,19.29z"/>
				<path fill="#FF5760" d="M44.504,22.442c-0.574,0.788-1.537,1.031-2.146,0.54c-0.605-0.488-0.631-1.525-0.055-2.313
					c0.576-0.786,1.537-1.029,2.145-0.539C45.055,20.619,45.08,21.656,44.504,22.442z"/>
				<path fill="#FF5760" d="M54.609,17.863c0.219,1.538-0.492,2.925-1.586,3.096c-1.096,0.17-2.16-0.938-2.379-2.477
					c-0.217-1.541,0.494-2.927,1.59-3.096C53.328,15.215,54.393,16.324,54.609,17.863z"/>
			</g>
			<g>
				<path fill="#FF5760" d="M7.471,19.29c0.491-0.261,0.675-0.921,0.409-1.474C7.613,17.266,7,17.025,6.509,17.287
					c-0.49,0.259-0.674,0.92-0.408,1.473C6.367,19.311,6.98,19.549,7.471,19.29z"/>
				<ellipse fill="#FF5760" cx="32.001" cy="19.229" rx="3.033" ry="3.822"/>
				<path fill="#FF5760" d="M19.5,22.442c0.574,0.788,1.536,1.031,2.145,0.54c0.606-0.488,0.632-1.525,0.056-2.313
					c-0.577-0.786-1.537-1.029-2.146-0.539C18.947,20.619,18.922,21.656,19.5,22.442z"/>
				<path fill="#FF5760" d="M9.392,17.863c-0.219,1.538,0.493,2.925,1.588,3.096c1.095,0.17,2.16-0.938,2.378-2.477
					c0.218-1.541-0.494-2.927-1.589-3.096C10.674,15.215,9.61,16.324,9.392,17.863z"/>
			</g>
		</g>
	</g>
	<g>
		<g>
			<g>
				<path fill="#F5F5F5" d="M38.561,37.406c-1.174,0-1.02-3.037-1.02-3.037c3.609-8.063,11.645-2.961,11.645-2.961
					c3.125,1.396-1.4,5.805-2.125,5.998C43.658,38.328,38.561,37.406,38.561,37.406z"/>
			</g>
			<g>
				<g>
					<circle fill="#6235A8" cx="43.268" cy="33.717" r="3.844"/>
				</g>
				<g>
					<path fill="#231F20" d="M44.518,33.717c0,0.69-0.559,1.25-1.25,1.25c-0.688,0-1.25-0.56-1.25-1.25s0.563-1.25,1.25-1.25
						C43.959,32.467,44.518,33.026,44.518,33.717z"/>
				</g>
			</g>
			<path fill="#231F20" d="M51.055,32.304c-0.502-0.214-1-0.473-1.502-0.73c0.623-0.031,1.27-0.196,1.676-0.653
				c-0.697,0.274-1.373,0.143-2.023-0.069c-0.656-0.203-1.307-0.497-1.988-0.749c-1.348-0.525-2.883-0.962-4.512-0.781
				c-0.803,0.108-1.598,0.362-2.295,0.765c-0.689,0.414-1.309,0.916-1.803,1.508c-1.008,1.163-1.674,2.521-2.074,3.938
				c0.947-1.129,1.857-2.232,2.896-3.11c0.246-0.207,0.5-0.396,0.76-0.572c1.201-0.701,2.547-0.941,3.928-0.734
				c1.441,0.174,2.885,0.729,4.387,1.233c0.752,0.258,1.523,0.509,2.344,0.663c0.41,0.064,0.836,0.114,1.264,0.067
				c0.426-0.041,0.855-0.207,1.137-0.502C52.482,32.878,51.748,32.601,51.055,32.304z"/>
		</g>
		<g>
			<g>
				<path fill="#F5F5F5" d="M25.442,37.406c1.174,0,1.02-3.037,1.02-3.037c-3.609-8.063-11.645-2.961-11.645-2.961
					c-3.125,1.396,1.4,5.805,2.125,5.998C20.344,38.328,25.442,37.406,25.442,37.406z"/>
			</g>
			<g>
				<g>
					<circle fill="#6235A8" cx="20.735" cy="33.717" r="3.844"/>
				</g>
				<g>
					<circle fill="#231F20" cx="20.735" cy="33.717" r="1.25"/>
				</g>
			</g>
			<path fill="#231F20" d="M12.949,32.304c0.502-0.214,0.999-0.473,1.501-0.73c-0.623-0.031-1.269-0.196-1.676-0.653
				c0.698,0.274,1.374,0.143,2.024-0.069c0.656-0.203,1.306-0.497,1.988-0.749c1.348-0.525,2.882-0.962,4.512-0.781
				c0.802,0.108,1.598,0.362,2.295,0.765c0.688,0.414,1.309,0.916,1.802,1.508c1.009,1.163,1.675,2.521,2.074,3.938
				c-0.946-1.129-1.856-2.232-2.896-3.11c-0.246-0.207-0.5-0.396-0.76-0.572c-1.202-0.701-2.547-0.941-3.928-0.734
				c-1.441,0.174-2.885,0.729-4.387,1.233c-0.752,0.258-1.523,0.509-2.344,0.663c-0.41,0.064-0.836,0.114-1.264,0.067
				c-0.426-0.041-0.855-0.207-1.138-0.502C11.521,32.878,12.255,32.601,12.949,32.304z"/>
		</g>
	</g>
</g>
</svg>
