<?xml version="1.0" encoding="utf-8"?>
<!-- Generator: Adobe Illustrator 15.0.0, SVG Export Plug-In . SVG Version: 6.00 Build 0)  -->
<!DOCTYPE svg PUBLIC "-//W3C//DTD SVG 1.1//EN" "http://www.w3.org/Graphics/SVG/1.1/DTD/svg11.dtd">
<svg version="1.1" id="Layer_1" xmlns="http://www.w3.org/2000/svg" xmlns:xlink="http://www.w3.org/1999/xlink" x="0px" y="0px"
	 width="64px" height="64px" viewBox="0 0 64 64" enable-background="new 0 0 64 64" xml:space="preserve">
<g>
	<path fill="#C7E755" d="M59.5,30.607C59.5,54.065,32.001,62,32.001,62S4.5,54.065,4.5,30.607C4.5,13.124,15.491,2,32.001,2
		C48.508,2,59.5,13.124,59.5,30.607z"/>
	<g>
		<path fill="#454749" d="M23.378,26.359c3.961,3.828,5.124,8.911,2.597,11.351c-2.525,2.441-7.785,1.316-11.749-2.511
			c-3.963-3.829-5.128-8.91-2.599-11.353C14.152,21.404,19.415,22.53,23.378,26.359z"/>
		<g>
			<path fill="#454749" d="M26.429,30.578c-2.584-2.256-5.191-4.149-8.028-5.711c-1.414-0.777-2.869-1.482-4.383-2.105
				c-1.515-0.625-3.079-1.165-4.705-1.761c1.719-0.231,3.47-0.105,5.168,0.271c1.7,0.376,3.359,0.993,4.888,1.847
				c1.533,0.848,2.939,1.921,4.159,3.167C24.737,27.53,25.804,28.949,26.429,30.578z"/>
		</g>
		<path fill="#FFFFFF" d="M20.378,25.048c2.032,1.247,3.134,3.086,2.463,4.106c-0.669,1.022-2.861,0.838-4.894-0.409
			c-2.028-1.247-3.134-3.086-2.464-4.106C16.156,23.617,18.347,23.802,20.378,25.048z"/>
	</g>
	<g>
		<path fill="#454749" d="M40.622,26.358c-3.962,3.828-5.126,8.912-2.6,11.352c2.527,2.442,7.788,1.317,11.749-2.512
			c3.964-3.828,5.128-8.91,2.602-11.353C49.846,21.405,44.585,22.53,40.622,26.358z"/>
		<g>
			<path fill="#454749" d="M37.571,30.577c0.624-1.628,1.691-3.047,2.901-4.293c1.219-1.245,2.625-2.319,4.158-3.166
				c1.529-0.854,3.188-1.47,4.888-1.847c1.699-0.376,3.449-0.502,5.168-0.271c-1.627,0.597-3.19,1.137-4.705,1.761
				c-1.514,0.623-2.968,1.328-4.383,2.105C42.763,26.428,40.155,28.321,37.571,30.577z"/>
		</g>
		<path fill="#FFFFFF" d="M43.619,25.049c-2.031,1.245-3.134,3.084-2.464,4.104c0.671,1.022,2.863,0.838,4.895-0.408
			c2.03-1.248,3.134-3.085,2.465-4.105C47.842,23.618,45.651,23.802,43.619,25.049z"/>
	</g>
	<path fill="#454749" stroke="#454749" stroke-miterlimit="10" d="M31.999,48.617c-7.621,0-10.692-3.673-10.692-2.422
		c0,1.941,4.78,4.429,10.692,4.429s10.694-2.487,10.694-4.429C42.693,44.944,39.62,48.617,31.999,48.617z"/>
</g>
</svg>
