<?xml version="1.0" encoding="utf-8"?>
<!-- Generator: Adobe Illustrator 15.0.0, SVG Export Plug-In . SVG Version: 6.00 Build 0)  -->
<!DOCTYPE svg PUBLIC "-//W3C//DTD SVG 1.1//EN" "http://www.w3.org/Graphics/SVG/1.1/DTD/svg11.dtd">
<svg version="1.1" id="Layer_1" xmlns="http://www.w3.org/2000/svg" xmlns:xlink="http://www.w3.org/1999/xlink" x="0px" y="0px"
	 width="64px" height="64px" viewBox="0 0 64 64" enable-background="new 0 0 64 64" xml:space="preserve">
<g>
	<g>
		<path fill="#F46767" d="M46.114,11.389c8.32,0,9.373,3.347,1.334,11.555c-2.777,2.836-1.111,6.744,0.451,9.087
			c1.563,2.343,4.486,4.746-0.451,8.816c-2.877,2.371-3.314,5.313,0,11.826c3.293,6.474-8.295,3.571-17.979,6.361
			c-12.85,3.702-16.055,7.375-17.51-11.835c-0.871-11.491-2.635-7.077-6.014-16.73c-1.785-5.098,0.334-8.223,5.131-10.077
			c4.045-1.563-8.367-9.115-0.891-15.81C19.713-3.949,33.196,11.389,46.114,11.389z"/>
		<g>
			<ellipse fill="#FFFFFF" cx="41.58" cy="25.594" rx="4.011" ry="3.927"/>
			<ellipse fill="#454749" cx="40.254" cy="25.594" rx="1.671" ry="1.637"/>
		</g>
		<g>
			<ellipse fill="#FFFFFF" cx="23.13" cy="22.979" rx="6.339" ry="6.207"/>
			<ellipse fill="#454749" cx="21.03" cy="22.979" rx="2.641" ry="2.586"/>
		</g>
		<g>
			
				<path fill="#454749" stroke="#454749" stroke-width="3" stroke-linecap="round" stroke-linejoin="round" stroke-miterlimit="10" d="
				M15.745,14.651l0.135-0.058l0.137-0.05l0.273-0.096c0.182-0.059,0.363-0.111,0.551-0.156c0.371-0.094,0.748-0.161,1.125-0.213
				c0.76-0.099,1.525-0.115,2.295-0.059c1.533,0.113,3.061,0.523,4.455,1.197c1.398,0.67,2.658,1.598,3.695,2.702
				c0.518,0.555,0.979,1.151,1.371,1.79c0.195,0.32,0.377,0.648,0.535,0.989c0.08,0.169,0.152,0.343,0.223,0.517l0.096,0.268
				l0.047,0.133l0.041,0.139l-0.129,0.102c-0.459-0.536-0.939-1.051-1.447-1.542c-0.502-0.493-1.027-0.964-1.58-1.403
				c-1.1-0.879-2.293-1.648-3.572-2.253c-1.273-0.618-2.625-1.071-4.012-1.372c-0.693-0.153-1.398-0.266-2.105-0.342
				c-0.705-0.08-1.42-0.123-2.133-0.133V14.651z"/>
		</g>
		<g>
			
				<path fill="#454749" stroke="#454749" stroke-width="3" stroke-linecap="round" stroke-linejoin="round" stroke-miterlimit="10" d="
				M47.448,19.647l-0.088-0.045l-0.09-0.039l-0.182-0.077c-0.119-0.046-0.242-0.089-0.363-0.124
				c-0.246-0.074-0.492-0.128-0.742-0.168c-0.502-0.079-1.008-0.092-1.516-0.048c-1.014,0.091-2.021,0.417-2.943,0.951
				c-0.922,0.533-1.754,1.269-2.439,2.147c-0.34,0.439-0.646,0.914-0.906,1.422c-0.129,0.254-0.248,0.514-0.352,0.785
				c-0.053,0.135-0.102,0.273-0.148,0.411l-0.063,0.212l-0.029,0.106l-0.027,0.11l0.084,0.08c0.303-0.426,0.621-0.835,0.955-1.225
				c0.332-0.393,0.68-0.767,1.045-1.115c0.727-0.699,1.514-1.309,2.357-1.789c0.84-0.492,1.732-0.852,2.648-1.091
				c0.459-0.122,0.922-0.21,1.391-0.271c0.467-0.064,0.938-0.1,1.408-0.107V19.647z"/>
		</g>
		<g>
			
				<path fill="#454749" stroke="#454749" stroke-width="3" stroke-linecap="round" stroke-linejoin="round" stroke-miterlimit="10" d="
				M46.284,34.365l-0.027,0.079l-0.035,0.076l-0.068,0.152c-0.049,0.099-0.1,0.196-0.156,0.291
				c-0.111,0.189-0.234,0.371-0.367,0.545c-0.268,0.349-0.576,0.664-0.918,0.947c-0.682,0.566-1.492,1-2.369,1.264
				c-0.873,0.266-1.809,0.365-2.73,0.295c-0.461-0.037-0.92-0.114-1.367-0.238c-0.225-0.063-0.445-0.134-0.664-0.221
				c-0.109-0.041-0.219-0.09-0.324-0.139l-0.16-0.079l-0.08-0.04l-0.078-0.045l0.008-0.096c0.43,0.053,0.857,0.086,1.287,0.098
				c0.43,0.016,0.855,0.012,1.279-0.017c0.848-0.056,1.684-0.196,2.48-0.443c0.801-0.239,1.561-0.583,2.266-1.007
				c0.354-0.211,0.693-0.445,1.018-0.695c0.326-0.248,0.639-0.516,0.938-0.799L46.284,34.365z"/>
		</g>
		<g>
			
				<path fill="#454749" stroke="#454749" stroke-width="3" stroke-linecap="round" stroke-linejoin="round" stroke-miterlimit="10" d="
				M10.959,28.375l0.086,0.182l0.098,0.178l0.191,0.354c0.135,0.23,0.275,0.459,0.424,0.682c0.295,0.447,0.617,0.879,0.955,1.3
				c0.686,0.839,1.451,1.616,2.277,2.336c1.652,1.431,3.557,2.606,5.555,3.427c1.996,0.825,4.076,1.299,6.084,1.398
				c1.006,0.045,1.988,0.002,2.941-0.146c0.477-0.077,0.943-0.173,1.398-0.304c0.229-0.063,0.453-0.137,0.674-0.215l0.33-0.131
				l0.16-0.066l0.162-0.076l-0.041-0.212c-0.93-0.005-1.863-0.049-2.805-0.14c-0.936-0.084-1.875-0.211-2.816-0.389
				c-1.877-0.354-3.754-0.895-5.574-1.656c-1.824-0.745-3.586-1.71-5.254-2.836c-0.834-0.561-1.645-1.17-2.43-1.81
				c-0.787-0.635-1.545-1.308-2.277-2.011L10.959,28.375z"/>
		</g>
		<path fill="#C94747" d="M32.667,23.54c0.152-2.686,2.081,4.502,5.415,5.981c5.92,2.628,10.152-2.663,14.951-4.149
			s8.104,7.51,3.307,9.407c-4.799,1.897-19.967,2.488-23.023-2.043c-2.168-3.214-5.891-0.3-2.125,1.082
			c1.58,0.579-6.471,0.815-4.268-3.683C28.374,27.17,32.424,27.791,32.667,23.54z"/>
		<g>
			
				<path fill="#454749" stroke="#454749" stroke-width="3" stroke-linecap="round" stroke-linejoin="round" stroke-miterlimit="10" d="
				M43.481,45.864c-0.016-2.078-2.131-3.625-9.506-4.336c-7.352-0.707-13.594,2.705-13.557,7.705
				c0.055,7.893,7.121,0.127,13.129-0.744C40.202,47.525,43.495,47.94,43.481,45.864z"/>
			<g>
				<path fill="#FFCE31" d="M20.418,49.233c0.025,3.592,1.502,3.94,3.672,3.171l-1.178-8.124
					C21.338,45.594,20.405,47.294,20.418,49.233z"/>
				<path fill="#FFCE31" d="M23.6,43.757l1.211,8.364c0.947-0.403,1.994-0.955,3.094-1.511l-1.211-8.354
					C25.534,42.638,24.487,43.145,23.6,43.757z"/>
				<path fill="#FFCE31" d="M27.422,42.035l1.191,8.22c1.02-0.502,2.074-0.98,3.119-1.324l-1.078-7.443
					C29.518,41.571,28.434,41.759,27.422,42.035z"/>
				<path fill="#FFCE31" d="M33.976,41.528c-0.873-0.084-1.731-0.107-2.565-0.08l1.053,7.266c0.365-0.096,0.727-0.173,1.084-0.225
					c0.764-0.111,1.479-0.202,2.154-0.282l-0.957-6.599C34.495,41.581,34.239,41.554,33.976,41.528z"/>
				<path fill="#FFCE31" d="M35.521,41.7l0.932,6.42c1.256-0.141,2.342-0.242,3.26-0.349l-0.793-5.476
					C37.972,42.065,36.847,41.867,35.521,41.7z"/>
				<path fill="#FFCE31" d="M43.481,45.864c-0.01-1.387-0.957-2.535-3.77-3.357l0.748,5.17
					C42.483,47.397,43.489,47.013,43.481,45.864z"/>
			</g>
		</g>
	</g>
	<path fill="#454749" d="M38.825,58.336C43.72,58.834,47.94,62,47.94,62c-2.885-11.376-8.236-12.427-10.73-11.565
		C33.87,51.587,33.175,57.763,38.825,58.336z"/>
</g>
</svg>
