<?xml version="1.0" encoding="utf-8"?>
<!-- Generator: Adobe Illustrator 15.0.0, SVG Export Plug-In . SVG Version: 6.00 Build 0)  -->
<!DOCTYPE svg PUBLIC "-//W3C//DTD SVG 1.1//EN" "http://www.w3.org/Graphics/SVG/1.1/DTD/svg11.dtd">
<svg version="1.1" id="Layer_1" xmlns="http://www.w3.org/2000/svg" xmlns:xlink="http://www.w3.org/1999/xlink" x="0px" y="0px"
	 width="64px" height="64px" viewBox="0 0 64 64" enable-background="new 0 0 64 64" xml:space="preserve">
<g>
	<g>
		<path fill="#6ADBC6" d="M31.999,2.998c-11.51,0-21.248,11.454-20.594,24.053c0.178,3.421,0.928,28.946,3.902,33.048
			c2.363,3.262,5.297-3.398,9.098-3.398c3.799,0,3.799,4.191,7.598,4.191c3.795,0,3.795-4.191,7.596-4.191
			c3.797,0,6.732,6.66,9.092,3.398c2.975-4.112,3.727-29.627,3.902-33.048C53.247,14.452,43.509,2.998,31.999,2.998z"/>
		<path fill="#50FFDD" d="M47.229,61.998L47.229,61.998c-1.314,0-2.497-1.013-3.748-2.085c-1.271-1.088-2.583-2.213-3.883-2.213
			c-1.458,0-2.165,0.78-3.061,1.769c-0.979,1.079-2.195,2.423-4.535,2.423c-2.343,0-3.561-1.344-4.54-2.424
			c-0.896-0.987-1.602-1.768-3.058-1.768c-1.302,0-2.615,1.125-3.886,2.213c-1.252,1.072-2.435,2.085-3.749,2.085
			c-0.877,0-1.642-0.441-2.272-1.313c-1.946-2.683-3.223-12.829-4.02-31.932c-0.03-0.744-0.054-1.309-0.072-1.651
			c-0.351-6.754,2.138-13.46,6.826-18.398c4.105-4.324,9.35-6.706,14.767-6.706S42.66,4.38,46.766,8.704
			c4.688,4.938,7.177,11.645,6.826,18.398c-0.017,0.336-0.04,0.886-0.07,1.609C52.728,47.83,51.45,57.99,49.501,60.685
			C48.87,61.556,48.106,61.998,47.229,61.998z M39.599,55.7c2.039,0,3.71,1.431,5.184,2.693c0.878,0.752,1.872,1.604,2.447,1.604
			l0,0c0.074,0,0.3,0,0.65-0.485c1.143-1.579,2.702-8.22,3.645-30.884c0.029-0.732,0.052-1.289,0.069-1.63
			c0.323-6.209-1.966-12.375-6.278-16.918c-3.725-3.923-8.454-6.083-13.316-6.083s-9.592,2.16-13.316,6.083
			c-4.313,4.543-6.602,10.709-6.278,16.918c0.017,0.347,0.042,0.919,0.073,1.671c0.943,22.645,2.5,29.271,3.64,30.842
			c0.353,0.486,0.579,0.486,0.653,0.486c0.575,0,1.57-0.853,2.447-1.604c1.476-1.263,3.146-2.693,5.188-2.693
			c2.343,0,3.561,1.344,4.54,2.424c0.895,0.987,1.602,1.768,3.058,1.768c1.453,0,2.159-0.779,3.054-1.766
			C36.035,57.045,37.254,55.7,39.599,55.7z"/>
	</g>
	<g>
		<path fill="#6ADBC6" d="M48.78,34.208c10.826,2.559,8.715-3.09,11.447,0.094c2.496,2.905-0.953,9.09-12.063,11.489"/>
		<path fill="#50FFDD" d="M48.164,46.791c-0.461,0-0.875-0.32-0.977-0.789c-0.116-0.54,0.227-1.072,0.767-1.188
			c7.479-1.615,11.062-4.949,11.855-7.313c0.237-0.705,0.37-1.72-0.341-2.547c-0.313-0.364-0.497-0.532-0.597-0.61
			c-0.077,0.048-0.176,0.115-0.256,0.17c-1.158,0.792-3.313,2.262-10.066,0.669c-0.537-0.128-0.87-0.666-0.743-1.204
			c0.128-0.537,0.662-0.868,1.204-0.743c5.891,1.395,7.573,0.245,8.478-0.373c1.348-0.92,2.196-0.727,3.499,0.789
			c1.031,1.201,1.287,2.795,0.719,4.486c-1.008,2.999-5.039,6.841-13.33,8.632C48.305,46.784,48.234,46.791,48.164,46.791z"/>
	</g>
	<g>
		<path fill="#6ADBC6" d="M15.253,34.17c-10.854,2.598-8.727-3.061-11.475,0.14c-2.512,2.922,0.928,9.11,12.053,11.481"/>
		<path fill="#50FFDD" d="M15.832,46.791c-0.069,0-0.139-0.007-0.209-0.021c-7.038-1.5-12.021-4.713-13.328-8.594
			c-0.567-1.677-0.302-3.323,0.724-4.519c1.309-1.522,2.16-1.714,3.507-0.802c0.904,0.614,2.587,1.755,8.495,0.342
			c0.539-0.127,1.076,0.203,1.205,0.74s-0.203,1.076-0.74,1.205c-6.765,1.619-8.924,0.154-10.083-0.631
			c-0.08-0.055-0.181-0.123-0.258-0.17c-0.1,0.076-0.288,0.247-0.607,0.619c-0.724,0.84-0.588,1.864-0.349,2.576
			c0.798,2.361,4.379,5.684,11.851,7.275c0.54,0.115,0.885,0.646,0.771,1.187C16.709,46.47,16.294,46.791,15.832,46.791z"/>
	</g>
	<g>
		<g>
			<ellipse fill="#FFFFFF" cx="41.406" cy="24.311" rx="6.067" ry="6.851"/>
		</g>
		<g>
			<g>
				<ellipse fill="#308776" cx="41.404" cy="24.307" rx="3.983" ry="4.501"/>
			</g>
		</g>
	</g>
	<g>
		<g>
			<path fill="#FFFFFF" d="M33.513,22.283c0,5.045-3.805,9.132-8.494,9.132c-4.691,0-8.49-4.087-8.49-9.132
				c0-5.049,3.799-9.143,8.49-9.143C29.708,13.141,33.513,17.234,33.513,22.283z"/>
		</g>
		<g>
			<g>
				<path fill="#308776" d="M30.597,22.277c0,3.314-2.498,6-5.578,6s-5.576-2.686-5.576-6c0-3.317,2.496-6,5.576-6
					S30.597,18.96,30.597,22.277z"/>
			</g>
		</g>
	</g>
	<g>
		<path fill="#308776" d="M44.792,35.364c0,4.386-5.41,8.126-12.084,8.126c-6.672,0-12.082-3.74-12.082-8.126
			c0,0,5.752,1.284,12.082,1.284S44.792,35.364,44.792,35.364z"/>
	</g>
	<g>
		<g>
			<path fill="#FF717F" d="M24.976,43.836c0-5.496,0.002-3.81,7.732-3.81c7.736,0,7.734-1.687,7.734,3.81
				c0,5.497-3.463,8.256-7.734,8.256C28.438,52.092,24.976,49.333,24.976,43.836z"/>
		</g>
		<g>
			<polygon fill="#E2596C" points="33.958,40.026 32.708,49.451 31.458,40.026 			"/>
		</g>
	</g>
</g>
</svg>
