<?xml version="1.0" encoding="utf-8"?>
<!-- Generator: Adobe Illustrator 15.0.0, SVG Export Plug-In . SVG Version: 6.00 Build 0)  -->
<!DOCTYPE svg PUBLIC "-//W3C//DTD SVG 1.1//EN" "http://www.w3.org/Graphics/SVG/1.1/DTD/svg11.dtd">
<svg version="1.1" id="Layer_1" xmlns="http://www.w3.org/2000/svg" xmlns:xlink="http://www.w3.org/1999/xlink" x="0px" y="0px"
	 width="64px" height="64px" viewBox="0 0 64 64" enable-background="new 0 0 64 64" xml:space="preserve">
<g>
	<path fill="#B70B0B" d="M56.563,33.76c-1.51,12.309-26.186,10.92-27.428,4.697c-9.231,4.658-6.688,12.018-6.688,12.018
		C30.929,69.479,68.886,50.328,56.563,33.76z"/>
	<g>
		<path fill="#FF4848" d="M44.315,52.52c3.125,1.924,1.35,4.326-3.264,2.307c-3.885-1.705-0.582-5.132,0.787-3.951
			C43.007,51.884,43.681,52.131,44.315,52.52z"/>
		<path fill="#FFE1BD" d="M41.581,52.253c-3.5-2.942-2.998-4.477-6.461-5.408c-3.225-5.079-5.895-6.851-5.895-6.851
			c-1.711,2.375-1.029,4.602-1.029,4.602s3.375,4.421,5.877,5.658c3.078,1.519,6.27,3.664,6.27,3.664
			C41.782,55.146,43.157,53.578,41.581,52.253z"/>
	</g>
	<g>
		<path fill="#FF4848" d="M28.231,59.572c0.131,3.944-5.819,2.273-3.662,0.628c0.342-0.263,0.318-0.882,0.146-1.37
			c-1.315-3.734,3.217-4.008,3.271-2.283C28.034,58.018,28.21,58.871,28.231,59.572z"/>
		<path fill="#FFE1BD" d="M26.944,57.338c-0.238-4.355,1.246-5.125-0.461-8.023c0.531-2.574-0.703-6.688-0.703-6.688
			c-2.53,0.295-3.959,0.721-3.959,0.721s0.59,5.227,1.408,7.721c1.004,3.068,1.62,6.654,1.62,6.654
			C24.937,59.529,27.054,59.297,26.944,57.338z"/>
	</g>
	<path fill="#594640" d="M37.114,10.597c2.738,7.591,11.938,10.048,16.961,3.073c2.611,9.951-11.139,14.548-18.965,14.76
		c-24.385,0.656-21.749-13.019-21.749-14.726C13.362-1.56,32.882-1.139,37.114,10.597z"/>
	<path fill="#FFE1BD" d="M41.099,32.715c-1.613-0.921-2.152-1.211-2.656-0.763l-7.195-4.573c-1.65-1.068-3.709-1.465-3.709-1.465
		c-1.387,1.367,0.461,2.605,0.461,2.605l9.184,5.357l-0.338,0.578c-0.264,0.447-0.107,1.021,0.346,1.281l0.615,0.35
		c0.324,0.186,0.717,0.161,1.008-0.035c0.854,0.41,2.098,0.729,2.979-0.773C41.937,35.027,42.743,33.654,41.099,32.715z"/>
	<path fill="#FFE1BD" d="M14.657,26.762l-4.439-4.379l0.015-0.016c0.359-0.377,0.344-0.97-0.039-1.325l-0.516-0.481
		c-0.273-0.255-0.662-0.318-0.99-0.195c-0.734-0.592-1.871-1.185-3.076,0.077c-0.203,0.21-1.307,1.364,0.074,2.651
		c1.334,1.244,1.796,1.657,2.378,1.362l5.679,5.593l6.43-0.62l1.549-3.515L14.657,26.762z"/>
	<g>
		<path fill="#FF4848" d="M24.909,47.689c10.021-3.332,11.607,0.306,23.988-0.706c12.379-1.011,7.666-13.224,7.666-13.224
			c-2.027,10.528-25.988,6.697-27.23,0.475c2.158-2.173,2.002-4.185-1.795-8.32c0,0-1.301,1.195-2.908,1.195
			c-1.608,0-2.909-1.195-2.909-1.195c-6.486,6.829-1.523,8.951-1.523,8.951c1.688,3.25-0.813,6.977,2.25,15.609
			C22.448,50.475,23.487,48.163,24.909,47.689z"/>
	</g>
	<path fill="#FFE1BD" d="M32.741,15.352c0.174-4.393-1.885-4.755-1.885-4.755c-9.606,0-14.479,4.755-14.479,4.755
		s-2.373-1.576-2.373,1.53c0,1.187,0.453,2.157,1.988,2.262c0.523,3.887,2.731,5.276,6.047,5.665v1.105h-0.318l-2.107,3.284
		c0,0.678,2.119-2.03,5.028,1.563c2.896-3.578,5.004-0.885,5.004-1.563l-2.107-3.284h-0.461V24.81
		c3.318-0.389,5.525-1.778,6.053-5.666c1.527-0.104,1.98-1.075,1.98-2.262C35.11,13.776,32.741,15.352,32.741,15.352z"/>
	<g>
		<path fill="#664E27" d="M28.491,20.086c0,1.231-1.721,2.264-3.846,2.264c-2.127,0-3.85-1.032-3.85-2.264c0,0,2.049,0.11,3.85,0.11
			C26.448,20.197,28.491,20.086,28.491,20.086z"/>
	</g>
	<g>
		<path fill="#664E27" d="M22.163,15.698c0,0.67-0.598,1.215-1.324,1.215c-0.734,0-1.326-0.545-1.326-1.215
			c0-0.676,0.592-1.217,1.326-1.217C21.565,14.481,22.163,15.022,22.163,15.698z"/>
	</g>
	<g>
		<path fill="#664E27" d="M29.79,15.698c0,0.67-0.588,1.215-1.32,1.215c-0.73,0-1.324-0.545-1.324-1.215
			c0-0.676,0.594-1.217,1.324-1.217C29.202,14.481,29.79,15.022,29.79,15.698z"/>
	</g>
	<path fill="#E6B796" d="M9.401,22.691c-0.256-0.237-1.01-0.929-1.088-1.072c-0.15-0.265-0.117-0.593,0.053-0.841
		c0.021-0.027,0.045-0.055,0.068-0.08c0.125-0.133-0.076-0.33-0.199-0.199c-0.246,0.264-0.344,0.609-0.279,0.96
		c0.043,0.24,0.184,0.442,0.359,0.606c0.283,0.261,0.871,0.81,0.885,0.824C9.334,23.013,9.536,22.815,9.401,22.691z"/>
</g>
</svg>
