<?xml version="1.0" encoding="utf-8"?>
<!-- Generator: Adobe Illustrator 15.0.0, SVG Export Plug-In . SVG Version: 6.00 Build 0)  -->
<!DOCTYPE svg PUBLIC "-//W3C//DTD SVG 1.1//EN" "http://www.w3.org/Graphics/SVG/1.1/DTD/svg11.dtd">
<svg version="1.1" id="Layer_1" xmlns="http://www.w3.org/2000/svg" xmlns:xlink="http://www.w3.org/1999/xlink" x="0px" y="0px"
	 width="64px" height="64px" viewBox="0 0 64 64" enable-background="new 0 0 64 64" xml:space="preserve">
<g>
	<path fill="#231F20" d="M32,4c-14.178,0-21.92,9.039-21.92,20.945v30.43h43.84v-30.43c0-17.697-11.867-17.367-11.867-17.367
		S41.16,4,32,4z"/>
	<path fill="#B386E2" d="M41.953,51.053v-7.141h-19.91v7.141C9.525,51.439,7,53.461,7,64h50C57,53.461,54.467,51.441,41.953,51.053z
		"/>
	<path fill="#FFDD67" d="M16.367,34.904c0,0-3.154-0.814-3.154-5.527c0-3.732,2.379-4.371,2.379-4.371
		c8.528,0,22.422-11.18,22.422-11.18s5.252,9.87,10.318,11.18c0,0,2.455,0.457,2.455,4.371c0,4.712-3.275,5.527-3.275,5.527
		C47.471,42.012,37.844,50.586,32,50.586C26.155,50.586,16.367,42.012,16.367,34.904z"/>
	<path fill="#EBA352" d="M35.914,38.148c0,1.549-3.183,1.998-3.914,1.998s-3.914-0.549-3.914-2.098
		C28.086,38.049,35.914,37.375,35.914,38.148z"/>
	<g>
		<g>
			<path fill="#F09985" d="M34.781,41.947c-0.57-0.143-1.4-0.074-2.494,0.295c-0.098,0.029-0.193,0.061-0.287,0.094
				c-0.096-0.033-0.189-0.064-0.285-0.094c-1.098-0.369-1.926-0.438-2.494-0.295c-1.697,0.416-4.268,0.213-4.268,0.213
				c1.871,1.883,2.76,4.455,7.047,4.455c4.287,0,5.175-2.572,7.044-4.455C39.045,42.16,36.475,42.363,34.781,41.947z"/>
			<path fill="#D47F6C" d="M34.781,41.947c-0.57-0.143-1.4-0.074-2.494,0.295c-0.098,0.029-0.193,0.061-0.287,0.094
				c-0.096-0.033-0.189-0.064-0.285-0.094c-1.098-0.369-1.926-0.438-2.494-0.295c-1.666,0.408-4.273,0.211-4.268,0.213
				c2.82,0.51,3.172,1.963,7.047,1.963c3.873,0,4.226-1.453,7.044-1.963C39.055,42.158,36.443,42.355,34.781,41.947z"/>
		</g>
	</g>
	<g>
		<path fill="#664E27" d="M28.112,29.772c-0.035,2.123-1.814,3.791-4.008,3.791c-2.195,0-3.975-1.667-4.01-3.791
			c1.078,0.885,2.477,1.422,4.01,1.422C25.635,31.194,27.034,30.657,28.112,29.772z"/>
		<path fill="#664E27" d="M43.906,29.772c-0.037,2.123-1.818,3.791-4.01,3.791c-2.195,0-3.975-1.667-4.01-3.791
			c1.078,0.885,2.479,1.422,4.01,1.422C41.426,31.194,42.824,30.657,43.906,29.772z"/>
	</g>
	<g>
		<g>
			<path fill="#FFDD67" d="M18.027,18.197c-0.951-2.311-1.211-4.256-1.279-5.797c-0.023-0.52-0.216-0.945-0.541-1.256
				c-0.004-0.006-0.006-0.013-0.01-0.019l-4.363-6.371C10.613,2.65,3.797,2.52,3.514,6.772L3.14,18.123
				c-0.239,3.629,3.642,6.979,4.21,6.531l-0.491,6.094c-0.076,1.143,0.468,2.166,1.729,2.232h0.021
				c1.262,0.068,2.348-0.805,2.424-1.949l1.013-15.1l0.891,0.816c0,0,0.759,3.274,3.118,3.609
				C17.688,20.59,18.381,19.053,18.027,18.197z"/>
			<path fill="#EBA352" d="M8.207,19.952c0.078-1.143-0.922-1.665-1-0.522L6.941,23.38c-1.285-1.22-3.081-3.705-2.914-6.152
				L4.785,5.891C4.844,5.029,5.17,4.352,5.662,3.828C4.498,4.351,3.613,5.297,3.514,6.772L2.752,18.109
				c-0.308,3.97,3.333,6.843,4.048,7.368l-0.359,5.332c-0.063,0.994,0.658,1.867,1.68,2.119c-0.449-0.406-0.719-0.979-0.676-1.598
				L8.207,19.952z"/>
		</g>
		<path fill="#428BC1" d="M2.725,6.889c0,0,8.08,0.35,9.975-2.203L12.117,0H2L2.725,6.889z"/>
		<path fill="#EBA352" d="M13.883,17.646l-0.096-0.424c0,0-1.271-1.563-1.618-3.119l-0.123,1.828
			c0.355,0.563,0.663,0.939,0.663,0.939l0.098,0.426c0.213,0.875,0.855,2.633,3.066,3.031
			C14.518,19.654,14.059,18.359,13.883,17.646z"/>
	</g>
	<g>
		<g>
			<path fill="#FFDD67" d="M45.973,18.197c0.951-2.311,1.211-4.256,1.279-5.797c0.023-0.52,0.217-0.945,0.541-1.256
				c0.004-0.006,0.006-0.013,0.01-0.019l4.363-6.371c1.221-2.104,8.037-2.235,8.32,2.018l0.373,11.351
				c0.24,3.629-3.641,6.979-4.209,6.531l0.49,6.094c0.076,1.143-0.467,2.166-1.729,2.232h-0.021
				c-1.262,0.068-2.348-0.805-2.424-1.949l-1.014-15.1l-0.891,0.816c0,0-0.758,3.274-3.117,3.609
				C46.313,20.59,45.619,19.053,45.973,18.197z"/>
			<path fill="#EBA352" d="M55.793,19.952c-0.078-1.143,0.922-1.665,1-0.522l0.266,3.951c1.285-1.22,3.08-3.705,2.914-6.152
				L59.215,5.891c-0.059-0.861-0.385-1.539-0.877-2.063c1.164,0.522,2.049,1.469,2.148,2.944l0.762,11.337
				c0.309,3.97-3.332,6.843-4.049,7.368l0.359,5.332c0.063,0.994-0.658,1.867-1.68,2.119c0.449-0.406,0.719-0.979,0.676-1.598
				L55.793,19.952z"/>
		</g>
		<path fill="#428BC1" d="M61.275,6.889c0,0-8.08,0.35-9.975-2.203L51.883,0H62L61.275,6.889z"/>
		<path fill="#EBA352" d="M50.117,17.646l0.096-0.424c0,0,1.27-1.563,1.617-3.119l0.123,1.828c-0.355,0.563-0.662,0.939-0.662,0.939
			l-0.098,0.426c-0.213,0.875-0.855,2.633-3.066,3.031C49.482,19.654,49.941,18.359,50.117,17.646z"/>
	</g>
</g>
</svg>
