<?xml version="1.0" encoding="utf-8"?>
<!-- Generator: Adobe Illustrator 15.0.0, SVG Export Plug-In . SVG Version: 6.00 Build 0)  -->
<!DOCTYPE svg PUBLIC "-//W3C//DTD SVG 1.1//EN" "http://www.w3.org/Graphics/SVG/1.1/DTD/svg11.dtd">
<svg version="1.1" id="Layer_1" xmlns="http://www.w3.org/2000/svg" xmlns:xlink="http://www.w3.org/1999/xlink" x="0px" y="0px"
	 width="64px" height="64px" viewBox="0 0 64 64" enable-background="new 0 0 64 64" xml:space="preserve">
<g>
	<path fill-rule="evenodd" clip-rule="evenodd" fill="#C94747" d="M11.185,40.711c3.651-1.926,5.347-2.544-0.681-4.256
		c1.14-0.122,7.519,2.098,9.541-0.323c1.659-1.167-6.548-2.711-6.97-3.879c1.551,0.961,8.552,4.079,9.887,1.291
		c-0.243-1.028-1.232-2.92-4.669-3.903c0.979,0.437,3.091,0.218,3.879-0.597c-0.251-0.926-4.191-3.298-4.563-6.385
		c1.263,1.842,2.925,4.882,4.913,5.454c0,0,0.628-1.495,2.782-2.093c-1.985-0.001-4.037-1.158-4.302-2.172
		c1.431,2.301,6.396,1.121,8.462,3.045c0,0-0.377-1.307,1.014-3.05c0.148-0.412-0.762-1.137-0.333-1.282
		c0.195,0.242,0.246,0.861,0.831,0.755c1.337-0.53,2.526-2.248,1.651-3.756c0.607,0.344,0.657,1.72,0.768,2.506
		c0.807,0.026,2.24-0.144,3.699,1.311c0.288-0.222,0.19-0.697,0.473-0.928c0.284,0.953,0.283,3.071,1.667,3.048
		c1.101-0.018,2.504-2.422,2.739-3.358c-0.052,2.297,1.234,2.03,1.626,2.092c1.037-0.103,2.128-3.388,2.627-3.394
		c-0.169,0.414-0.222,1.692-0.121,2.387c1.104,0.237,3.945-1.094,4.487-1.708c-0.07,0.453-0.316,0.719-0.217,1.347
		c0.958,0.215,6.671-2.497,8.048-5.259c-1.536-0.731-2.732-1.516-3.903-1.869c-0.68,0.604-0.732,3.147-1.573,2.928
		c0.445-0.563,1.434-2.713,0.554-3.416c-3.79-2.602-1.886,1.956-2.256,2.421c0.021-0.839-1.711-5.47-3.314-5.051
		c-0.316,0.39-0.949-2.343-2.016,3.607c0.091-0.97,1.342-4.889-4.508-6.51c-0.294,1.485,1.728,5.993,1.246,7.033
		c-0.212-1.939-1.692-6.527-2.742-7.652c-2.236-0.864-6.101-2.502-7.838-1.852c-1.964,0.546,3.031,4.955,1.641,6.841
		c0.313-2.636-2.803-5.37-4.904-5.423c-4.341,2.233-0.838,6.341-1.472,8.273c-0.377-2.371-1.633-2.947-1.388-5.695
		c-1.129,0.75-1.23,2.159-2.372,3.26c-0.579,0.154-0.909-0.14-1.492,0.016c-1.044,1.069,0.871,3.404,0.472,4.346
		c-0.672-1.52-0.695-3.687-2.405-3.95c-1.378-0.934-4.345-0.154-6.521,1.286c-2.504,0.685-4.941,7.453-4.817,8.436
		c0.16,1.248,2.303,1.383,2.447,2.572c-0.886-0.462-1.17-1.508-2.649-1.396c-0.549,1.069-0.831,1.937-0.949,3.454
		c1.535,1.032,3.387,1.934,3.875,3.353c-1.353-0.519-2.154-2.57-3.979-2c-2.313,6.531,0.467,5.285,0.835,6.19
		c-0.792,0.251-1.556-0.492-1.912-0.034c-1.779,3.348,0.254,3.283,0.495,3.869c-0.445-0.007-0.892-0.016-1.338-0.023
		c-0.7,0.618-0.847,2.734-0.646,3.656c1.458-0.693,4.722-1.421,3.891-3.215C9.812,41.111,10.71,41.134,11.185,40.711z"/>
	<path fill-rule="evenodd" clip-rule="evenodd" fill="#ED4C5C" d="M50.654,23.731c-1.708,0.393-6.906,0.803-8.236,2.288
		c1.496,2.393,7.425,2.784,8.939,5.157c-2.254-1.38-6.96-3.436-10.02-4.159c-3.589-0.848-2.549,1.204-3.713,4.086
		c0.54,1.119,2.197,4.11,2.337,5.079c-0.91-0.989-1.676-5.593-3.174-3.11c-2.354,3.9,1.306,4.693,2.89,8.326
		c-1.029-1.358-2.997-4.056-4.273-5.718l-0.863,1.508c-1.523-0.388-2.15-0.266-2.15-0.266c0.891,2.158,3.723,6.729,4.537,8.094
		c-2.739-2.699-3.852-5.286-5.333-8.207c-1.191,0.048-2.312-0.541-3.464-0.682c-0.117,2.509,0.999,4.105,1.013,5.859
		c-0.923-2.668-1.468-8.5-6.823-6.619c-1.504,3.055,0.746,9.076,0.791,11.725c-0.957-2.854-0.889-6.99-2.192-9.508
		c-1.727-0.102-4.43-0.216-3.903,0.908c-3.413,0.884-12.289,6.171-10.778,7.629c2.72,2.629,8.648,5.957,12.372,6.721
		c0.171-0.992,0.625-2.728,1.01-3.301c0.398,1.567,0.931,3.575,2.543,3.963c0.438-0.521-0.169-1.808-0.083-2.569
		c1.415,1.695,5.201,3.655,7.86,2.423c0.275-0.971-0.782-2.42-0.194-3.062c0.351,2.685,6.562,2.947,7.068,0.506
		c0.219-1.053-0.931-1.753-0.908-2.523c0.867,0.957,1.274,2.271,2.826,2.173c3.321-0.212,1.062-4.764,0.513-6.555
		c0.824,1.597,1.769,3.966,2.959,5.206c0.874-0.22,1.343-1.542,0.817-2.633c2.908,2.023,3.21,0.448,2.081-3.556
		c-0.03-0.091-0.062-0.18-0.093-0.267c0.034,0.073,0.063,0.165,0.093,0.267c0.258,0.766,1.382,2.654,2.097,2.977
		c2.623-1.133-1.084-5.473-1.554-6.322c1.121,0.866,2.446,3.829,4.066,4.209c0.289-0.223,0.314-1.781,0.542-2.064
		c-0.611-3.945-4.548-6.427-6.007-8.922c2.404,2.206,4.844,6.815,7.912,8.372c1.01-1.252-0.888-4.834-1.459-5.752
		c0.871,0.351,2.356,2.73,3.542,2.775c1.126-0.559-0.471-3.458-1.213-4.471c0.458,0.188,1.893,1.653,2.729,1.472
		c0.296-1.355-1.506-3.051-1.909-4.16c0.516,0.13,2.137,1.714,2.808,1.691c0.748-2.944,1.873-6.338,1.696-13.148
		C57.073,19.59,51.951,23.434,50.654,23.731z"/>
</g>
</svg>
