<?xml version="1.0" encoding="utf-8"?>
<!-- Generator: Adobe Illustrator 15.0.0, SVG Export Plug-In . SVG Version: 6.00 Build 0)  -->
<!DOCTYPE svg PUBLIC "-//W3C//DTD SVG 1.1//EN" "http://www.w3.org/Graphics/SVG/1.1/DTD/svg11.dtd">
<svg version="1.1" id="Layer_1" xmlns="http://www.w3.org/2000/svg" xmlns:xlink="http://www.w3.org/1999/xlink" x="0px" y="0px"
	 width="64px" height="64px" viewBox="0 0 64 64" enable-background="new 0 0 64 64" xml:space="preserve">
<g>
	<g>
		<path fill="#C4CED6" d="M2.561,46.971l17.188-17.117L6.516,11.693c-0.634,0.793-1.101,1.887-1.234,3.09L2.039,43.805
			C1.906,44.998,2.118,46.121,2.561,46.971z"/>
		<path fill="#C4CED6" d="M60.193,8.605L35.341,30.697L54.926,56c1.072-0.861,1.847-2.211,2.028-3.838l4.414-39.518
			C61.551,11.006,61.075,9.574,60.193,8.605z"/>
		<polygon fill="#DAE4EA" points="62,7 61.999,7 61.999,7 		"/>
		<path fill="#DAE4EA" d="M35.341,30.697L60.193,8.605c-0.79-0.867-1.897-1.365-3.181-1.285L8.548,10.453
			c-0.744,0.049-1.457,0.523-2.032,1.24l13.232,18.16L2.561,46.971c0.409,0.783,1.014,1.34,1.744,1.473l47.166,8.49
			c1.261,0.229,2.478-0.148,3.455-0.934L35.341,30.697z"/>
	</g>
	<path fill="#F46767" d="M39.333,22.84c-1.694-8.926-10.39-4.813-11.589-0.574c-0.486-4.49-7.366-7.576-10.337,0.332
		c-3.225,8.578,7.438,17.588,8.172,19.051C26.596,40.668,41.213,32.734,39.333,22.84z"/>
</g>
</svg>
