<?xml version="1.0" encoding="utf-8"?>
<!-- Generator: Adobe Illustrator 15.0.0, SVG Export Plug-In . SVG Version: 6.00 Build 0)  -->
<!DOCTYPE svg PUBLIC "-//W3C//DTD SVG 1.1//EN" "http://www.w3.org/Graphics/SVG/1.1/DTD/svg11.dtd">
<svg version="1.1" id="Layer_1" xmlns="http://www.w3.org/2000/svg" xmlns:xlink="http://www.w3.org/1999/xlink" x="0px" y="0px"
	 width="64px" height="64px" viewBox="0 0 64 64" enable-background="new 0 0 64 64" xml:space="preserve">
<g>
	<rect x="19.281" y="18.943" fill="#D8E0E0" width="25.438" height="38.05"/>
	<g>
		<g>
			<path fill="#428BC1" d="M20.914,23.906c0-1.966,0-3.932,0-5.898c7.391-1.809,22.172-4.738,22.172-4.738
				C35.695,15.079,28.305,22.097,20.914,23.906z"/>
			<path fill="#FFFFFF" d="M20.914,29.531c0-1.966,0-3.932,0-5.898c7.391-1.809,14.781-8.827,22.172-10.635c0,1.966,0,3.932,0,5.897
				C35.695,20.704,28.305,27.722,20.914,29.531z"/>
			<path fill="#ED4C5C" d="M20.914,35.156c0-1.967,0-3.933,0-5.898c7.391-1.809,14.781-8.827,22.172-10.635c0,1.966,0,3.932,0,5.897
				C35.695,26.329,28.305,33.347,20.914,35.156z"/>
			<path fill="#FFFFFF" d="M20.914,40.781c0-1.967,0-3.933,0-5.898c7.391-1.809,14.781-8.827,22.172-10.635c0,1.966,0,3.932,0,5.897
				C35.695,31.953,28.305,38.972,20.914,40.781z"/>
		</g>
		<g>
			<path fill="#428BC1" d="M20.914,46.327c0-1.966,0-3.932,0-5.897c7.391-1.81,14.781-8.827,22.172-10.636c0,1.966,0,3.932,0,5.898
				C35.695,37.5,28.305,44.518,20.914,46.327z"/>
			<path fill="#FFFFFF" d="M20.914,51.952c0-1.966,0-3.932,0-5.897c7.391-1.81,14.781-8.827,22.172-10.635c0,1.965,0,3.931,0,5.897
				C35.695,43.125,28.305,50.143,20.914,51.952z"/>
			<path fill="#ED4C5C" d="M20.914,57.577c0-1.966,0-3.932,0-5.897c7.391-1.81,14.781-8.827,22.172-10.635c0,1.965,0,3.931,0,5.897
				C35.695,48.75,28.305,55.768,20.914,57.577z"/>
			<path fill="#FFFFFF" d="M24.084,61.297c0-1.966-3.17-2.026-3.17-3.992c7.391-1.81,14.781-8.827,22.172-10.635
				c0,1.965,0,3.931,0,5.897C35.695,54.375,31.475,59.487,24.084,61.297z"/>
		</g>
		<g>
			<path fill="#428BC1" d="M29.76,58.859c4.442-2.588,8.884-5.557,13.326-6.644c0,1.967,0,3.932,0,5.897
				C35.695,59.923,26.812,60.578,29.76,58.859z"/>
		</g>
	</g>
	<g>
		<g>
			<g>
				<path fill="#B0B8B8" d="M45,13.825H19C19-1.942,45-1.942,45,13.825z"/>
			</g>
		</g>
		<g>
			<path fill="#C1C9C9" d="M47,17.609c0,1.017-0.896,1.841-2,1.841H19c-1.104,0-2-0.825-2-1.841v-1.943c0-1.017,0.896-1.841,2-1.841
				h26c1.104,0,2,0.824,2,1.841V17.609z"/>
		</g>
	</g>
	<g>
		<path fill="#C1C9C9" d="M47,60.159C47,61.175,46.104,62,45,62H19c-1.104,0-2-0.825-2-1.841v-1.943c0-1.016,0.896-1.841,2-1.841h26
			c1.104,0,2,0.825,2,1.841V60.159z"/>
	</g>
</g>
</svg>
