<?xml version="1.0" encoding="utf-8"?>
<!-- Generator: Adobe Illustrator 15.0.0, SVG Export Plug-In . SVG Version: 6.00 Build 0)  -->
<!DOCTYPE svg PUBLIC "-//W3C//DTD SVG 1.1//EN" "http://www.w3.org/Graphics/SVG/1.1/DTD/svg11.dtd">
<svg version="1.1" id="Layer_1" xmlns="http://www.w3.org/2000/svg" xmlns:xlink="http://www.w3.org/1999/xlink" x="0px" y="0px"
	 width="64px" height="64px" viewBox="0 0 64 64" enable-background="new 0 0 64 64" xml:space="preserve">
<g>
	<g>
		<path fill="#FFE1BD" d="M20.615,35.117c-1.672-2.309-4.178-9.721-1.867-11.393l0.672-0.484c0.363,2.736,1.68,6.016,2.695,7.418
			L44.777,62h13.619v-4.27L34.68,24.932c-1.674-2.311-7.926-7.014-10.236-5.342l-5.717,4.135c-2.311,1.672,0.195,9.084,1.867,11.393
			L40.031,62h0.021L20.615,35.117z"/>
		<path fill="#E6B796" d="M19.42,23.24l-0.672,0.484c-2.311,1.672,0.195,9.084,1.867,11.393L40.053,62h4.725L22.115,30.658
			C21.1,29.256,19.783,25.977,19.42,23.24z"/>
		<path fill="#FFE1BD" d="M48.168,16.693l-5.77,3.471c-2.332,1.404-0.543,8.652,0.859,10.982l15.139,25.16v-0.02L43.27,31.146
			c-1.402-2.33-3.189-9.578-0.857-10.982l0.422-0.252c0.215,2.527,1.137,5.447,1.936,6.775l13.627,22.646V24.139l-0.928-1.543
			C56.064,20.266,50.498,15.291,48.168,16.693z"/>
		<path fill="#E6B796" d="M42.834,19.912l-0.422,0.252c-2.332,1.404-0.545,8.652,0.857,10.982l15.127,25.141v-6.953L44.77,26.688
			C43.971,25.359,43.049,22.439,42.834,19.912z"/>
		<path fill="#FFE1BD" d="M14.252,43.119l-5.129,4.363c-2.07,1.764,0.871,8.623,2.635,10.695L15.012,62h0.018l-3.254-3.822
			c-1.764-2.072-4.705-8.932-2.635-10.695l0.965-0.82c0.516,2.617,2.07,5.766,3.17,7.057L20.324,62h16.467L24.389,47.428
			C22.623,45.357,16.32,41.355,14.252,43.119z"/>
		<path fill="#E6B796" d="M13.275,53.719c-1.1-1.291-2.654-4.439-3.17-7.057l-0.965,0.82c-2.07,1.764,0.871,8.623,2.635,10.695
			L15.029,62h5.295L13.275,53.719z"/>
	</g>
	<g>
		<path fill="#FF8736" d="M21.072,32.4c3.434,4.748,7.006,4.559,10.008,2.387c3.004-2.172,4.303-5.506,0.871-10.252
			c-3.436-4.748-9.971-8.656-12.975-6.484C15.975,20.223,17.639,27.654,21.072,32.4z"/>
		<path fill="#FFB77B" d="M27.613,27.346c3.074,4.252,2.992,5.762,3.992,5.037c1.002-0.725,2.311-3.121-0.764-7.373
			s-8.813-7.143-9.813-6.42C20.027,19.314,24.537,23.094,27.613,27.346z"/>
	</g>
	<g>
		<path fill="#FF8736" d="M43.932,28.602c2.881,4.791,6.293,4.896,9.322,3.074c3.031-1.824,4.535-4.887,1.652-9.676
			c-2.883-4.791-8.783-9.031-11.813-7.209C40.063,16.615,41.049,23.813,43.932,28.602z"/>
		<path fill="#FFB77B" d="M50.557,24.322c2.582,4.289,2.381,5.717,3.391,5.111c1.012-0.609,2.447-2.783-0.135-7.072
			c-2.58-4.289-7.801-7.5-8.813-6.893C43.992,16.076,47.975,20.033,50.557,24.322z"/>
	</g>
	<g>
		<path fill="#FF8736" d="M12.008,55.557c3.623,4.256,7.008,3.807,9.699,1.516c2.693-2.293,3.678-5.561,0.057-9.816
			c-3.623-4.258-10.135-7.48-12.83-5.189C6.24,44.359,8.383,51.301,12.008,55.557z"/>
		<path fill="#FFB77B" d="M17.848,50.256c3.246,3.813,3.281,5.254,4.18,4.492c0.896-0.768,1.961-3.145-1.283-6.957
			c-3.246-3.811-8.92-6.131-9.818-5.367C10.031,43.189,14.604,46.443,17.848,50.256z"/>
	</g>
	<path fill="#FF8736" d="M21.33,27.516c0,0-1.258-0.756-2.963-2.309c0.35-0.189,0.668-0.416,0.941-0.688
		c0,0-7.871-5.629-9.813-17.791c0,0-3.904,8.453-3.893,15.732c0.012,8.379,8.912,11.008,12.133,7.787c0,0-0.66-0.473-1.641-1.434
		C18.168,28.967,20.113,28.537,21.33,27.516z"/>
	<path fill="#D8681D" d="M22.131,26.846c0,0-2.031-0.082-3.736-1.633c0,0,1.504,0.131,2.066-0.713c0,0-8.996-5.605-10.938-17.766
		c0,0-0.582,1.264-1.293,3.225c1.729,11.541,8.744,14.496,8.744,14.496c-0.273,0.273-5.035-0.893-5.035-0.893
		c1.527,2.309,7.328,3.619,7.328,3.619c-4.854,1.107-9.037-0.6-9.037-0.6c0.979,2.512,5.006,3.705,5.006,3.705
		s-1.246,1.051-3.396,0.939c2.258,0.68,4.582,0.367,5.924-0.973c0,0-0.66-0.473-1.641-1.434
		C18.195,28.973,20.912,28.547,22.131,26.846z"/>
	<rect x="7.02" y="2" fill="#454749" width="4.523" height="11.527"/>
</g>
</svg>
