<?xml version="1.0" encoding="utf-8"?>
<!-- Generator: Adobe Illustrator 15.0.0, SVG Export Plug-In . SVG Version: 6.00 Build 0)  -->
<!DOCTYPE svg PUBLIC "-//W3C//DTD SVG 1.1//EN" "http://www.w3.org/Graphics/SVG/1.1/DTD/svg11.dtd">
<svg version="1.1" id="Layer_1" xmlns="http://www.w3.org/2000/svg" xmlns:xlink="http://www.w3.org/1999/xlink" x="0px" y="0px"
	 width="64px" height="64px" viewBox="0 0 64 64" enable-background="new 0 0 64 64" xml:space="preserve">
<g>
	<g>
		<path fill="#ED4C5C" d="M59.705,25.491c0,9.793-7.069,9.793-7.07,0c0-5.814,3.535-10.529,3.535-10.529
			S59.705,19.676,59.705,25.491z"/>
	</g>
	<g>
		<path fill="#ED4C5C" d="M54.478,43.197c0,7.458-7.07,7.457-7.07,0c0-4.427,3.535-8.017,3.535-8.017S54.478,38.771,54.478,43.197z"
			/>
	</g>
	<g>
		<polygon fill="#D0D0D0" points="21.131,55.45 9.475,43.663 35.375,17.468 47.03,29.256 		"/>
		<polygon fill="#ED4C5C" points="30.195,43.663 44.439,29.256 35.375,20.087 21.131,34.495 		"/>
		<polygon fill="#333333" points="27.605,46.282 30.195,43.663 21.131,34.495 18.54,37.114 		"/>
		<polygon fill="#BCC0C1" points="43.793,25.982 46.383,23.363 41.203,18.124 38.613,20.743 		"/>
		<polygon fill="#42ADE2" points="14.654,62 15.95,60.69 4.295,48.902 3,50.212 		"/>
		<polygon fill="#42ADE2" points="12.714,57.415 17.892,52.177 12.714,46.937 7.531,52.177 		"/>
	</g>
	
		<rect x="44.686" y="19.266" transform="matrix(-0.7029 -0.7112 0.7112 -0.7029 62.7962 64.7583)" fill="#FFFFFF" width="0.471" height="0"/>
	<polygon fill="#BCC0C1" points="43.118,20.084 43.451,20.419 43.781,20.754 44.445,21.424 59.736,5.959 60.367,3.979 60.685,2.989 
		61,2 	"/>
</g>
</svg>
