<?xml version="1.0" encoding="utf-8"?>
<!-- Generator: Adobe Illustrator 15.0.0, SVG Export Plug-In . SVG Version: 6.00 Build 0)  -->
<!DOCTYPE svg PUBLIC "-//W3C//DTD SVG 1.1//EN" "http://www.w3.org/Graphics/SVG/1.1/DTD/svg11.dtd">
<svg version="1.1" id="Layer_1" xmlns="http://www.w3.org/2000/svg" xmlns:xlink="http://www.w3.org/1999/xlink" x="0px" y="0px"
	 width="64px" height="64px" viewBox="0 0 64 64" enable-background="new 0 0 64 64" xml:space="preserve">
<g>
	<g>
		<path fill="#D0D0D0" d="M32,61.942c-11.58,0-20.999-9.536-20.999-21.259S20.42,19.424,32,19.424s20.999,9.537,20.999,21.26
			S43.58,61.942,32,61.942z M32,23.754c-9.221,0-16.724,7.594-16.724,16.93c0,9.334,7.503,16.93,16.724,16.93
			s16.724-7.596,16.724-16.93C48.724,31.348,41.221,23.754,32,23.754z"/>
	</g>
	<g>
		<g>
			<path fill="#FFFFFF" d="M25.531,58.962c-1.85-0.622-3.596-1.56-5.203-2.695c-1.59-1.163-3.019-2.558-4.226-4.132
				c-2.418-3.151-3.801-7.093-3.95-11.081c-0.1-3.99,1.041-8.012,3.27-11.301c1.113-1.644,2.46-3.118,3.981-4.369
				c1.542-1.225,3.233-2.257,5.047-2.979c-3.436,1.83-6.382,4.506-8.382,7.764c-2.008,3.244-3.085,7.055-2.918,10.854
				c0.065,3.802,1.378,7.536,3.57,10.659C18.909,54.818,22,57.323,25.531,58.962z"/>
		</g>
	</g>
	<g>
		<g>
			<path fill="#A5A5A5" d="M39.572,22.405c1.813,0.723,3.505,1.755,5.046,2.98c1.521,1.25,2.868,2.725,3.981,4.367
				c2.23,3.287,3.367,7.316,3.271,11.295c-0.147,4-1.532,7.933-3.949,11.088c-1.207,1.574-2.636,2.969-4.226,4.132
				c-1.608,1.136-3.354,2.072-5.204,2.694c3.53-1.641,6.621-4.145,8.809-7.28c2.195-3.119,3.504-6.862,3.572-10.653
				c0.17-3.811-0.911-7.612-2.916-10.86C45.955,26.91,43.009,24.234,39.572,22.405z"/>
		</g>
	</g>
	<g>
		<polygon fill="#D0D0D0" points="25.531,15.04 32,21.589 38.469,15.04 		"/>
	</g>
	<g>
		<polygon fill="#A5A5A5" points="34.15,15.04 32.705,19.424 34.032,19.522 38.46,15.04 		"/>
	</g>
	<g>
		<polygon fill="#B6FFF1" points="28.757,1.942 27.673,8.491 19.063,8.491 22.297,1.942 		"/>
		<polygon fill="#6ADBC6" points="27.673,8.491 29.832,15.04 25.513,15.04 19.063,8.491 		"/>
		<polygon fill="#6ADBC6" points="28.757,1.942 27.673,8.491 36.31,8.491 35.243,1.942 		"/>
		<polygon fill="#42ADE2" points="35.243,1.942 36.31,8.491 44.938,8.491 41.703,1.942 		"/>
		<polygon fill="#42ADE2" points="27.673,8.491 29.832,15.04 34.15,15.04 36.31,8.491 		"/>
		<polygon fill="#428BC1" points="36.31,8.491 34.15,15.04 38.469,15.04 44.938,8.491 		"/>
	</g>
</g>
</svg>
