<?xml version="1.0" encoding="utf-8"?>
<!-- Generator: Adobe Illustrator 15.0.0, SVG Export Plug-In . SVG Version: 6.00 Build 0)  -->
<!DOCTYPE svg PUBLIC "-//W3C//DTD SVG 1.1//EN" "http://www.w3.org/Graphics/SVG/1.1/DTD/svg11.dtd">
<svg version="1.1" id="Layer_1" xmlns="http://www.w3.org/2000/svg" xmlns:xlink="http://www.w3.org/1999/xlink" x="0px" y="0px"
	 width="64px" height="64px" viewBox="0 0 64 64" enable-background="new 0 0 64 64" xml:space="preserve">
<g>
	<path fill="#231F20" d="M26.871,1.998c-14.488,0-22.398,9.03-22.398,20.924v37.076h44.795V22.922
		c0-17.679-12.125-17.35-12.125-17.35S36.23,1.998,26.871,1.998z"/>
	<path fill="#B386E2" d="M36.824,49.051v-7.14h-19.91v7.14C4.396,49.438,1.871,51.459,1.871,61.998h50
		C51.871,51.461,49.338,49.438,36.824,49.051z"/>
	<g>
		<path fill="#B47D56" d="M10.682,32.892c0,0-3.262-0.834-3.262-5.662c0-3.823,2.459-4.479,2.459-4.479
			c8.811,0,23.17-11.454,23.17-11.454s5.428,10.112,10.664,11.454c0,0,2.537,0.468,2.537,4.479c0,4.828-3.385,5.662-3.385,5.662
			c-0.045,7.282-9.992,16.067-16.029,16.067C20.795,48.959,10.682,40.174,10.682,32.892z"/>
		<path fill="#935E3E" d="M30.879,36.216c0,1.587-3.289,2.047-4.043,2.047c-0.756,0-4.047-0.563-4.047-2.149
			C22.789,36.113,30.879,35.424,30.879,36.216z"/>
		<g>
			<path fill="#F5F5F5" d="M21.326,29.874c0.951,0,0.824-2.458,0.824-2.458c-2.92-6.522-9.42-2.394-9.42-2.394
				c-2.527,1.128,1.133,4.694,1.719,4.852C17.203,30.62,21.326,29.874,21.326,29.874z"/>
			<g>
				<circle fill="#664E27" cx="17.519" cy="26.889" r="3.108"/>
				<circle fill="#231F20" cx="17.518" cy="26.889" r="1"/>
			</g>
			<path fill="#231F20" d="M22.967,28.357c-0.795-0.971-1.582-1.904-2.496-2.614c-0.912-0.707-1.938-1.154-3.045-1.223
				c-1.107-0.107-2.268,0.128-3.471,0.355c-0.602,0.117-1.223,0.232-1.871,0.269c-0.627,0.026-1.385-0.047-1.832-0.529
				c0.592,0.234,1.174,0.11,1.738-0.06c0.568-0.163,1.131-0.396,1.721-0.594c1.164-0.414,2.451-0.754,3.814-0.651
				c0.676,0.066,1.354,0.237,1.969,0.538c0.607,0.313,1.16,0.714,1.611,1.195C22.018,25.997,22.613,27.152,22.967,28.357z"/>
		</g>
		<g>
			<path fill="#F5F5F5" d="M32.344,29.874c-0.953,0-0.826-2.458-0.826-2.458c2.92-6.522,9.422-2.394,9.422-2.394
				c2.527,1.128-1.133,4.694-1.721,4.852C36.469,30.62,32.344,29.874,32.344,29.874z"/>
			<g>
				<circle fill="#664E27" cx="36.15" cy="26.889" r="3.109"/>
				<circle fill="#231F20" cx="36.151" cy="26.889" r="1"/>
			</g>
			<path fill="#231F20" d="M30.703,28.357c0.354-1.205,0.947-2.36,1.861-3.313c0.451-0.481,1.002-0.882,1.609-1.195
				c0.615-0.301,1.295-0.472,1.969-0.538c1.363-0.103,2.65,0.237,3.814,0.65c0.59,0.198,1.154,0.432,1.723,0.595
				c0.563,0.17,1.146,0.294,1.738,0.06c-0.449,0.482-1.205,0.556-1.834,0.529c-0.648-0.036-1.27-0.151-1.873-0.269
				c-1.199-0.228-2.361-0.463-3.467-0.355c-1.105,0.069-2.133,0.516-3.045,1.223C32.285,26.454,31.498,27.388,30.703,28.357z"/>
		</g>
		<g>
			<g>
				<path fill="#935E3E" d="M29.707,40.108c-0.588-0.146-1.445-0.076-2.576,0.302c-0.1,0.031-0.199,0.063-0.295,0.096
					c-0.1-0.033-0.197-0.064-0.297-0.096c-1.133-0.378-1.988-0.447-2.576-0.302c-1.752,0.427-4.408,0.218-4.408,0.218
					c1.932,1.929,2.85,4.564,7.281,4.564c4.43,0,5.348-2.636,7.277-4.564C34.113,40.326,31.457,40.535,29.707,40.108z"/>
				<path fill="#734C31" d="M29.707,40.108c-0.588-0.146-1.445-0.076-2.576,0.302c-0.1,0.031-0.199,0.063-0.295,0.096
					c-0.1-0.033-0.197-0.064-0.297-0.096c-1.133-0.378-1.988-0.447-2.576-0.302c-1.721,0.418-4.416,0.217-4.408,0.218
					c2.914,0.523,3.277,2.012,7.281,2.012c4,0,4.365-1.488,7.277-2.012C34.125,40.325,31.426,40.526,29.707,40.108z"/>
			</g>
		</g>
	</g>
	<g>
		<path fill="#B47D56" d="M46.887,61.998L45.99,42.737c0,0,10.379,1.896,15.105-3.261c4.291-4.679-5.709-0.313-11.172-1.916
			c-1.986-0.583-7.234-1.826-8.596,1.609c-1.469,3.71-2.521,22.828-2.521,22.828H46.887z"/>
		<path fill="#CBA7F9" d="M47.408,61.998L46.35,42.992l-6.846-0.132c-0.066,6.52-1.615,19.138-1.615,19.138H47.408z"/>
	</g>
</g>
</svg>
