<?xml version="1.0" encoding="utf-8"?>
<!-- Generator: Adobe Illustrator 15.0.0, SVG Export Plug-In . SVG Version: 6.00 Build 0)  -->
<!DOCTYPE svg PUBLIC "-//W3C//DTD SVG 1.1//EN" "http://www.w3.org/Graphics/SVG/1.1/DTD/svg11.dtd">
<svg version="1.1" id="Layer_1" xmlns="http://www.w3.org/2000/svg" xmlns:xlink="http://www.w3.org/1999/xlink" x="0px" y="0px"
	 width="64px" height="64px" viewBox="0 0 64 64" enable-background="new 0 0 64 64" xml:space="preserve">
<g>
	<g>
		<g>
			<path fill="#F0CD4F" d="M36.427,60.131l20.45-10.654c0,0,0.8,7.261,2.914,14.523H44.353
				C44.353,61.012,36.427,60.131,36.427,60.131z"/>
			<path fill="#231F20" d="M64,43.473c0-10.725-4.898-11.934-4.898-11.934c-4.225-5.443-18.754-3.461-22.584,0.439
				c-1.062,1.082-0.524,3.533,0.976,3.238l7.563,13.752l7.377,2.154c0,0,3.465-1.443,5.532,5.221C57.965,56.344,64,54.965,64,43.473
				z"/>
			<g>
				<path fill="#FFDD67" d="M44.634,60.44c4.93-1.057,6.892,0.35,8.276-11.605h-6.645c0,0,1.555-4.769,0.936-7.096
					c3.667-2.887,1.12-6.233-1.035-7.512c-3.458-2.056-8.311-0.987-9.012,1.774c-1.297,5.105-1.35,4.078-0.52,5.431
					c0.863,1.404-3.115,4.47-3.021,6.28c0.051,0.974,1.501,1.365,1.558,1.646c0.146,0.7-0.426,1.022-1.295,1.587
					c-0.867,0.562,0.715,1.128,0.409,2.923c-0.308,1.796-0.472,2.476-0.472,2.476c0.716,0.512,1.667,0.486,1.495,1.579
					C34.904,60.479,35.154,62.475,44.634,60.44z"/>
				<path fill="#FFDD67" d="M37.87,44.337c0.158-0.481,0.095-0.862,0.021-1.286c-0.083-0.42-0.182-0.875-0.207-1.391
					c-0.015-0.505,0.087-1.124,0.437-1.553c0.335-0.43,0.794-0.625,1.237-0.646c-0.303,0.373-0.566,0.706-0.701,1.055
					c-0.131,0.345-0.161,0.695-0.143,1.113c0.003,0.416,0.066,0.881,0.021,1.391C38.515,43.513,38.304,44.133,37.87,44.337z"/>
				<g>
					<path fill="#FFDD67" d="M56.468,48.713c-0.636,2.775-2.743,4.572-4.709,4.021c-1.963-0.552-3.041-3.247-2.406-6.022
						c0.637-2.771,2.742-4.572,4.708-4.019C56.024,43.244,57.103,45.939,56.468,48.713z"/>
					<path fill="#594640" d="M53.462,44.327c-0.537,0.013-1.096,0.204-1.564,0.579c-0.462,0.384-0.805,0.934-0.959,1.518
						c-0.135,0.476-0.167,0.965-0.112,1.439c-0.208-0.072-0.434-0.078-0.609,0.053c0.262,0.198,0.36,0.414,0.464,0.623
						c0.092,0.215,0.172,0.427,0.217,0.643c0.057,0.212,0.079,0.418,0.081,0.643c-0.003,0.225-0.05,0.477-0.17,0.807
						c0.315-0.004,0.623-0.234,0.785-0.576c0.175-0.342,0.186-0.755,0.106-1.115c-0.098-0.357-0.277-0.685-0.551-0.9
						c-0.053-0.043-0.113-0.078-0.174-0.113c0.396-0.949,0.779-1.775,1.409-2.268c0.33-0.283,0.733-0.467,1.172-0.615
						c0.441-0.145,0.923-0.229,1.433-0.371C54.515,44.432,54,44.307,53.462,44.327z"/>
				</g>
				<path fill="#FFDD67" d="M35.467,52.945c-0.413-0.26-0.807-0.529-1.107-0.834c-0.281-0.3-0.502-0.658-0.263-1.318
					c-0.276,0.075-0.553,0.359-0.664,0.745c-0.1,0.393-0.026,0.825,0.123,1.161c0.14,0.325,0.327,0.592,0.536,0.82
					c-0.223,0.232-0.43,0.547-0.519,0.893c-0.109,0.362-0.103,0.719-0.057,1.036c0.061,0.319,0.147,0.614,0.297,0.896
					c0.24-0.582,0.399-1.145,0.643-1.453c0.129-0.148,0.242-0.261,0.412-0.37c0.161-0.113,0.358-0.224,0.566-0.341l1.061-0.59
					L35.467,52.945z"/>
				<path fill="#594640" d="M42.834,42.665c-0.553,0.206-0.88,0.583-1.309,0.919c-0.408,0.354-0.854,0.696-1.372,0.973
					c-0.51,0.269-1.117,0.478-1.756,0.417c-0.637-0.04-1.251-0.411-1.556-0.979c1.184,0.166,1.862-0.225,2.782-0.701
					c0.449-0.234,0.925-0.498,1.469-0.68C41.606,42.436,42.309,42.271,42.834,42.665z"/>
			</g>
		</g>
		<g>
			<path fill="#F0CD4F" d="M22.795,59.125L7.123,49.477c0,0,2.116,7.261,0,14.523h12.525C19.648,61.012,22.795,59.125,22.795,59.125
				z"/>
			<path fill="#231F20" d="M0,43.473c0-10.725,4.899-11.934,4.899-11.934c4.225-5.443,18.565-3.215,22.584,0.439
				c8.229,7.482,2.353,15.24,0.853,14.945L11.091,49.95c0,0-1.768,10.938,4.363,14.05H0V43.473z"/>
			<path fill="#FFDD67" d="M19.368,60.44c-4.931-1.057-6.892,0.35-8.277-11.605h3.739c0,0,2.633,0.662,5.265-8.563
				c1.193-4.178,6-7.305,7.064-4.693c2.215,5.433-0.243,7.07,0.347,8.573c1.072,2.735,3.359,1.989,3.267,3.798
				c-0.052,0.975-1.885,1.129-1.943,1.409c-0.145,0.7,0.427,1.022,1.295,1.587c0.869,0.562-0.714,1.128-0.408,2.923
				c0.309,1.796,0.472,2.476,0.472,2.476c-0.716,0.512-1.667,0.486-1.494,1.579C29.097,60.479,28.847,62.475,19.368,60.44z"/>
			<path fill="#EBA352" d="M26.131,44.337c-0.158-0.481-0.095-0.862-0.021-1.286c0.084-0.42,0.182-0.875,0.207-1.391
				c0.016-0.505-0.087-1.124-0.437-1.553c-0.336-0.43-0.794-0.625-1.238-0.646c0.304,0.373,0.567,0.706,0.702,1.055
				c0.131,0.345,0.161,0.695,0.142,1.113c-0.002,0.416-0.065,0.881-0.021,1.391C25.487,43.513,25.697,44.133,26.131,44.337z"/>
			<g>
				<path fill="#FFDD67" d="M7.533,48.713c0.636,2.775,2.743,4.572,4.708,4.021c1.964-0.552,3.042-3.247,2.407-6.022
					c-0.637-2.771-2.742-4.572-4.708-4.019C7.976,43.244,6.897,45.939,7.533,48.713z"/>
				<path fill="#594640" d="M10.54,44.327c0.536,0.013,1.095,0.204,1.564,0.579c0.461,0.384,0.804,0.934,0.958,1.518
					c0.135,0.476,0.167,0.965,0.112,1.439c0.208-0.072,0.434-0.078,0.609,0.053c-0.262,0.198-0.36,0.414-0.465,0.623
					c-0.091,0.215-0.171,0.427-0.217,0.643c-0.056,0.212-0.078,0.418-0.081,0.643c0.003,0.225,0.052,0.477,0.17,0.807
					c-0.314-0.004-0.622-0.234-0.785-0.576c-0.173-0.342-0.186-0.755-0.105-1.115c0.097-0.357,0.277-0.685,0.552-0.9
					c0.051-0.043,0.112-0.078,0.172-0.113c-0.396-0.949-0.777-1.775-1.408-2.268c-0.33-0.283-0.732-0.467-1.172-0.615
					c-0.442-0.145-0.923-0.229-1.433-0.371C9.487,44.432,10.002,44.307,10.54,44.327z"/>
			</g>
			<path fill="#C94747" d="M28.535,52.945c0.412-0.26,0.806-0.529,1.106-0.834c0.281-0.3,0.501-0.658,0.263-1.318
				c0.277,0.075,0.554,0.359,0.664,0.745c0.1,0.393,0.026,0.825-0.122,1.161c-0.141,0.325-0.328,0.592-0.537,0.82
				c0.224,0.232,0.429,0.547,0.518,0.893c0.11,0.362,0.104,0.719,0.059,1.036c-0.062,0.319-0.147,0.614-0.298,0.896
				c-0.241-0.582-0.399-1.145-0.644-1.453c-0.129-0.148-0.241-0.261-0.41-0.37c-0.162-0.113-0.359-0.224-0.567-0.341l-1.061-0.59
				L28.535,52.945z"/>
			<path fill="#594640" d="M21.167,42.665c0.554,0.206,0.88,0.583,1.309,0.919c0.408,0.354,0.854,0.696,1.372,0.973
				c0.511,0.269,1.117,0.478,1.755,0.417c0.637-0.04,1.252-0.411,1.557-0.979c-1.184,0.166-1.862-0.225-2.781-0.701
				c-0.451-0.234-0.926-0.498-1.47-0.68C22.395,42.436,21.691,42.271,21.167,42.665z"/>
		</g>
	</g>
	<path fill="#E84D88" d="M12.09,8.594c4.379-10.98,18.599-6.055,19.911-0.57C33.81,2.179,47.679-2.18,51.91,8.601
		c4.712,12.009-18.266,22.79-19.909,24.556C30.357,31.752,7.38,20.408,12.09,8.594z"/>
</g>
</svg>
