<?xml version="1.0" encoding="utf-8"?>
<!-- Generator: Adobe Illustrator 15.0.0, SVG Export Plug-In . SVG Version: 6.00 Build 0)  -->
<!DOCTYPE svg PUBLIC "-//W3C//DTD SVG 1.1//EN" "http://www.w3.org/Graphics/SVG/1.1/DTD/svg11.dtd">
<svg version="1.1" id="Layer_1" xmlns="http://www.w3.org/2000/svg" xmlns:xlink="http://www.w3.org/1999/xlink" x="0px" y="0px"
	 width="64px" height="64px" viewBox="0 0 64 64" enable-background="new 0 0 64 64" xml:space="preserve">
<g>
	<path fill="#594640" d="M60.314,24.744c-0.934,0.333-3.563,1.234-5.89,1.457c-0.851,0.057-1.694,0.022-2.484-0.142
		c-0.73-0.212-1.284-0.614-1.5-1.315l-0.188,0.69c-1.446-0.83-2.486-2.403-2.654-5.148C46.316-0.699,36.057,5.576,36.057,5.576
		s-0.889-3.578-9.997-3.578c-14.098,0-21.796,9.04-21.796,20.946v30.333c0,0,51.055,8.721,57.738-29.271
		C62.002,24.007,61.347,24.338,60.314,24.744z"/>
	<path fill="#A9B5AE" d="M50.44,24.744c0.497,1.615,2.733,1.694,4.988,1.323c-1.048-2.622-2.76-5.846-4.239-9.424
		c-0.617-1.484-1.828-2.227-3.43-1.115c0,0-1.451-0.743-3.421-6.738c-0.017-0.047-0.304-0.757-0.461-1.017
		c-1.442-2.385-4.644-3.087-7.148-1.567c-2.503,1.518-3.366,4.683-1.925,7.069c1.439,2.385,4.641,3.086,7.145,1.568
		c0.703-0.429,1.274-0.989,1.703-1.62c0.571,0.385,1.386,3.588,1.386,3.588l5.214,8.626L50.44,24.744z M40.691,12.757
		c-1.297,0.785-2.953,0.423-3.697-0.81c-0.747-1.235-0.301-2.872,0.996-3.657s2.954-0.422,3.697,0.812
		C42.434,10.334,41.986,11.974,40.691,12.757z"/>
	<g>
		<path fill="#B386E2" d="M35.639,49.361v-6.969h-19.16v6.969C4.432,49.739,2.002,51.712,2.002,61.998h48.115
			C50.117,51.713,47.681,49.739,35.639,49.361z"/>
		<g>
			<path fill="#D6A57C" d="M10.48,33.589c0,0-3.139-0.814-3.139-5.526c0-3.732,2.367-4.372,2.367-4.372
				c8.479,0,22.295-11.18,22.295-11.18s5.225,9.87,10.264,11.18c0,0,2.439,0.457,2.439,4.372c0,4.712-3.256,5.526-3.256,5.526
				c-0.042,7.107-9.615,15.683-15.426,15.683C20.212,49.271,10.48,40.696,10.48,33.589z"/>
			<path fill="#B58360" d="M29.915,36.833c0,1.549-3.164,1.998-3.89,1.998c-0.728,0-3.894-0.549-3.894-2.098
				C22.132,36.733,29.915,36.061,29.915,36.833z"/>
			<g>
				<path fill="#F5F5F5" d="M20.724,30.644c0.917,0,0.794-2.399,0.794-2.399c-2.811-6.366-9.064-2.336-9.064-2.336
					c-2.433,1.101,1.091,4.582,1.654,4.735C16.757,31.371,20.724,30.644,20.724,30.644z"/>
				<g>
					<ellipse fill="#664E27" cx="17.061" cy="27.729" rx="2.991" ry="3.035"/>
					<ellipse fill="#231F20" cx="17.061" cy="27.729" rx="1" ry="1.015"/>
				</g>
				<path fill="#231F20" d="M22.302,29.163c-0.766-0.947-1.521-1.858-2.399-2.552c-0.879-0.69-1.865-1.127-2.932-1.193
					c-1.064-0.104-2.182,0.125-3.34,0.347c-0.578,0.114-1.176,0.228-1.8,0.263c-0.603,0.025-1.333-0.046-1.763-0.517
					c0.568,0.229,1.13,0.107,1.672-0.059c0.549-0.159,1.089-0.387,1.656-0.579c1.121-0.404,2.359-0.736,3.67-0.636
					c0.65,0.064,1.303,0.231,1.895,0.525c0.586,0.306,1.117,0.696,1.551,1.166C21.389,26.859,21.963,27.987,22.302,29.163z"/>
			</g>
			<g>
				<path fill="#F5F5F5" d="M31.325,30.644c-0.917,0-0.794-2.399-0.794-2.399c2.809-6.366,9.067-2.336,9.067-2.336
					c2.433,1.101-1.091,4.582-1.655,4.735C35.295,31.371,31.325,30.644,31.325,30.644z"/>
				<g>
					<ellipse fill="#664E27" cx="34.99" cy="27.729" rx="2.992" ry="3.035"/>
					<ellipse fill="#231F20" cx="34.99" cy="27.729" rx="1" ry="1.014"/>
				</g>
				<path fill="#231F20" d="M29.747,29.163c0.341-1.176,0.911-2.304,1.792-3.234c0.435-0.47,0.964-0.86,1.55-1.166
					c0.592-0.294,1.245-0.461,1.892-0.525c1.314-0.101,2.553,0.231,3.671,0.635c0.569,0.193,1.111,0.421,1.657,0.58
					c0.543,0.166,1.104,0.287,1.676,0.059c-0.434,0.471-1.161,0.542-1.766,0.517c-0.624-0.035-1.223-0.148-1.802-0.263
					c-1.155-0.222-2.273-0.451-3.338-0.347c-1.063,0.067-2.051,0.503-2.93,1.193C31.269,27.306,30.513,28.217,29.747,29.163z"/>
			</g>
			<g>
				<g>
					<path fill="#B58360" d="M28.789,40.633c-0.565-0.143-1.392-0.074-2.48,0.294c-0.094,0.031-0.19,0.062-0.283,0.094
						c-0.095-0.032-0.189-0.063-0.285-0.094c-1.091-0.368-1.913-0.437-2.48-0.294c-1.686,0.416-4.24,0.213-4.24,0.213
						c1.859,1.882,2.742,4.455,7.006,4.455s5.146-2.573,7.005-4.455C33.03,40.846,30.473,41.049,28.789,40.633z"/>
					<path fill="#805C44" d="M28.789,40.633c-0.565-0.143-1.392-0.074-2.48,0.294c-0.094,0.031-0.19,0.062-0.283,0.094
						c-0.095-0.032-0.189-0.063-0.285-0.094c-1.091-0.368-1.913-0.437-2.48-0.294c-1.655,0.408-4.248,0.212-4.24,0.213
						c2.805,0.511,3.154,1.963,7.006,1.963c3.85,0,4.201-1.452,7.005-1.963C33.039,40.845,30.442,41.041,28.789,40.633z"/>
				</g>
			</g>
		</g>
	</g>
	<path fill="#CEDBD5" d="M61.819,8.669c0.754-2.763-0.897-5.497-3.69-6.109c-2.791-0.612-5.664,1.129-6.416,3.889
		c-0.082,0.302-0.172,1.077-0.174,1.126c-0.318,6.387-1.509,7.583-1.509,7.583c-1.818-0.524-2.784,0.589-2.979,2.213
		c-1.067,8.743-3.729,16.216,0.959,16.286l4.959-18.185c0,0-0.059-3.331,0.383-3.891c0.576,0.46,1.268,0.804,2.051,0.977
		C58.195,13.169,61.066,11.428,61.819,8.669z M59.381,8.133c-0.39,1.427-1.877,2.328-3.319,2.011
		c-1.444-0.315-2.298-1.731-1.909-3.159c0.39-1.428,1.875-2.328,3.321-2.013C58.916,5.29,59.77,6.704,59.381,8.133z"/>
	<path fill="#231F20" d="M50.635,18.58c0.199-0.731-0.24-1.457-0.979-1.618c-0.741-0.162-1.501,0.3-1.703,1.031
		c-0.199,0.731,0.236,1.456,0.979,1.619C49.671,19.776,50.433,19.313,50.635,18.58z"/>
</g>
</svg>
