<?xml version="1.0" encoding="utf-8"?>
<!-- Generator: Adobe Illustrator 15.0.0, SVG Export Plug-In . SVG Version: 6.00 Build 0)  -->
<!DOCTYPE svg PUBLIC "-//W3C//DTD SVG 1.1//EN" "http://www.w3.org/Graphics/SVG/1.1/DTD/svg11.dtd">
<svg version="1.1" id="Layer_1" xmlns="http://www.w3.org/2000/svg" xmlns:xlink="http://www.w3.org/1999/xlink" x="0px" y="0px"
	 width="64px" height="64px" viewBox="0 0 64 64" enable-background="new 0 0 64 64" xml:space="preserve">
<g>
	<g>
		<polygon fill="#ED4C5C" points="20.217,4.776 20.317,4.876 20.383,4.811 40.555,25.079 40.489,25.144 36.79,28.862 27.8,37.895 
			2.181,12.152 		"/>
		<path fill="#C94747" d="M2.007,11.846c0.201,1.208,4.511,0.673,9.626-1.192c5.115-1.866,9.098-4.356,8.897-5.564
			c-0.202-1.208-4.511-0.674-9.627,1.191C5.79,8.147,1.806,10.639,2.007,11.846z"/>
	</g>
	<polygon fill="#3E4347" points="33.178,15.651 58.561,41.155 43.8,55.986 18.417,30.481 	"/>
	<polygon fill="#555B61" points="57.841,41.878 62,46.059 48.68,59.443 44.52,55.264 	"/>
</g>
</svg>
