<?xml version="1.0" encoding="utf-8"?>
<!-- Generator: Adobe Illustrator 15.0.0, SVG Export Plug-In . SVG Version: 6.00 Build 0)  -->
<!DOCTYPE svg PUBLIC "-//W3C//DTD SVG 1.1//EN" "http://www.w3.org/Graphics/SVG/1.1/DTD/svg11.dtd">
<svg version="1.1" id="Layer_1" xmlns="http://www.w3.org/2000/svg" xmlns:xlink="http://www.w3.org/1999/xlink" x="0px" y="0px"
	 width="64px" height="64px" viewBox="0 0 64 64" enable-background="new 0 0 64 64" xml:space="preserve">
<g>
	<path fill="#231F20" d="M60.314,24.744c-0.934,0.333-3.564,1.234-5.891,1.457c-0.85,0.057-1.693,0.022-2.484-0.142
		c-0.73-0.212-1.285-0.614-1.5-1.315l-0.188,0.69c-1.447-0.83-2.486-2.403-2.654-5.148C46.314-0.699,36.055,5.576,36.055,5.576
		s-0.887-3.578-9.996-3.578c-14.098,0-21.797,9.04-21.797,20.946v30.333c0,0,51.056,8.721,57.74-29.271
		C62.002,24.007,61.346,24.338,60.314,24.744z"/>
	<path fill="#A9B5AE" d="M50.439,24.744c0.498,1.615,2.734,1.694,4.988,1.323c-1.047-2.622-2.76-5.846-4.24-9.424
		c-0.615-1.484-1.826-2.227-3.428-1.115c0,0-1.451-0.743-3.422-6.738c-0.016-0.047-0.305-0.757-0.461-1.017
		c-1.441-2.385-4.645-3.087-7.148-1.567c-2.502,1.518-3.367,4.683-1.924,7.069c1.438,2.385,4.641,3.086,7.145,1.568
		c0.703-0.429,1.273-0.989,1.703-1.62c0.57,0.385,1.385,3.588,1.385,3.588l5.213,8.626L50.439,24.744z M40.689,12.757
		c-1.295,0.785-2.951,0.423-3.695-0.81c-0.748-1.235-0.301-2.872,0.996-3.657c1.295-0.785,2.953-0.422,3.695,0.812
		C42.434,10.334,41.984,11.974,40.689,12.757z"/>
	<g>
		<path fill="#B386E2" d="M35.639,49.361v-6.969h-19.16v6.969C4.432,49.739,2.002,51.712,2.002,61.998h48.115
			C50.117,51.713,47.68,49.739,35.639,49.361z"/>
		<g>
			<path fill="#B47D56" d="M10.479,33.589c0,0-3.137-0.814-3.137-5.526c0-3.732,2.365-4.372,2.365-4.372
				c8.48,0,22.296-11.18,22.296-11.18s5.225,9.87,10.264,11.18c0,0,2.439,0.457,2.439,4.372c0,4.712-3.258,5.526-3.258,5.526
				c-0.041,7.107-9.615,15.683-15.424,15.683C20.211,49.271,10.479,40.696,10.479,33.589z"/>
			<path fill="#935E3E" d="M29.915,36.833c0,1.549-3.164,1.998-3.89,1.998c-0.728,0-3.894-0.549-3.894-2.098
				C22.131,36.733,29.915,36.061,29.915,36.833z"/>
			<g>
				<path fill="#F5F5F5" d="M20.723,30.644c0.916,0,0.794-2.399,0.794-2.399c-2.81-6.366-9.064-2.336-9.064-2.336
					c-2.433,1.101,1.091,4.582,1.653,4.735C16.756,31.371,20.723,30.644,20.723,30.644z"/>
				<g>
					<ellipse fill="#664E27" cx="17.06" cy="27.729" rx="2.991" ry="3.035"/>
					<ellipse fill="#231F20" cx="17.06" cy="27.729" rx="1" ry="1.015"/>
				</g>
				<path fill="#231F20" d="M22.301,29.163c-0.766-0.947-1.521-1.858-2.399-2.552c-0.879-0.69-1.866-1.127-2.932-1.193
					c-1.064-0.104-2.182,0.125-3.34,0.347c-0.579,0.114-1.176,0.228-1.8,0.263c-0.603,0.025-1.332-0.046-1.764-0.517
					c0.569,0.229,1.131,0.107,1.674-0.059c0.547-0.159,1.088-0.387,1.655-0.579c1.12-0.404,2.358-0.736,3.671-0.636
					c0.65,0.064,1.302,0.231,1.894,0.525c0.586,0.306,1.117,0.696,1.551,1.166C21.388,26.859,21.963,27.987,22.301,29.163z"/>
			</g>
			<g>
				<path fill="#F5F5F5" d="M31.325,30.644c-0.916,0-0.794-2.399-0.794-2.399c2.809-6.366,9.067-2.336,9.067-2.336
					c2.434,1.101-1.09,4.582-1.656,4.735C35.293,31.371,31.325,30.644,31.325,30.644z"/>
				<g>
					<ellipse fill="#664E27" cx="34.99" cy="27.729" rx="2.992" ry="3.035"/>
					<ellipse fill="#231F20" cx="34.99" cy="27.729" rx="1" ry="1.014"/>
				</g>
				<path fill="#231F20" d="M29.747,29.163c0.34-1.176,0.911-2.304,1.792-3.234c0.435-0.47,0.964-0.86,1.549-1.166
					c0.592-0.294,1.246-0.461,1.893-0.525c1.313-0.101,2.551,0.231,3.67,0.635c0.57,0.193,1.111,0.421,1.658,0.58
					c0.543,0.166,1.104,0.287,1.674,0.059c-0.432,0.471-1.16,0.542-1.766,0.517c-0.623-0.035-1.223-0.148-1.801-0.263
					c-1.154-0.222-2.273-0.451-3.338-0.347c-1.064,0.067-2.051,0.503-2.929,1.193C31.268,27.306,30.512,28.217,29.747,29.163z"/>
			</g>
			<g>
				<g>
					<path fill="#935E3E" d="M28.788,40.633c-0.564-0.143-1.391-0.074-2.479,0.294c-0.095,0.031-0.19,0.062-0.283,0.094
						c-0.095-0.032-0.188-0.063-0.286-0.094c-1.09-0.368-1.912-0.437-2.479-0.294c-1.687,0.416-4.241,0.213-4.241,0.213
						c1.858,1.882,2.741,4.455,7.006,4.455s5.147-2.573,7.004-4.455C33.029,40.846,30.472,41.049,28.788,40.633z"/>
					<path fill="#734C31" d="M28.788,40.633c-0.564-0.143-1.391-0.074-2.479,0.294c-0.095,0.031-0.19,0.062-0.283,0.094
						c-0.095-0.032-0.188-0.063-0.286-0.094c-1.09-0.368-1.912-0.437-2.479-0.294c-1.656,0.408-4.249,0.212-4.241,0.213
						c2.804,0.511,3.153,1.963,7.006,1.963c3.851,0,4.202-1.452,7.004-1.963C33.039,40.845,30.442,41.041,28.788,40.633z"/>
				</g>
			</g>
		</g>
	</g>
	<path fill="#CEDBD5" d="M61.818,8.669c0.754-2.763-0.898-5.497-3.689-6.109s-5.664,1.129-6.418,3.889
		c-0.08,0.302-0.172,1.077-0.174,1.126c-0.316,6.387-1.508,7.583-1.508,7.583c-1.818-0.524-2.783,0.589-2.979,2.213
		c-1.068,8.743-3.729,16.216,0.959,16.286l4.959-18.185c0,0-0.059-3.331,0.381-3.891c0.578,0.46,1.27,0.804,2.051,0.977
		C58.195,13.169,61.066,11.428,61.818,8.669z M59.381,8.133c-0.391,1.427-1.877,2.328-3.32,2.011
		c-1.443-0.315-2.299-1.731-1.908-3.159c0.389-1.428,1.875-2.328,3.32-2.013C58.916,5.29,59.77,6.704,59.381,8.133z"/>
	<path fill="#231F20" d="M50.635,18.58c0.197-0.731-0.24-1.457-0.979-1.618c-0.742-0.162-1.502,0.3-1.703,1.031
		c-0.199,0.731,0.236,1.456,0.979,1.619C49.67,19.776,50.432,19.313,50.635,18.58z"/>
</g>
</svg>
