<?xml version="1.0" encoding="utf-8"?>
<!-- Generator: Adobe Illustrator 15.0.0, SVG Export Plug-In . SVG Version: 6.00 Build 0)  -->
<!DOCTYPE svg PUBLIC "-//W3C//DTD SVG 1.1//EN" "http://www.w3.org/Graphics/SVG/1.1/DTD/svg11.dtd">
<svg version="1.1" id="Layer_1" xmlns="http://www.w3.org/2000/svg" xmlns:xlink="http://www.w3.org/1999/xlink" x="0px" y="0px"
	 width="64px" height="64px" viewBox="0 0 64 64" enable-background="new 0 0 64 64" xml:space="preserve">
<g>
	<path fill="#F46767" d="M56.715,22.444c-5.437-14.383-23.084-7.93-24.716-0.748c-2.245-7.654-19.46-13.363-24.713,0.758
		C1.436,38.183,29.958,52.3,31.999,54.612C34.037,52.774,62.563,37.917,56.715,22.444z"/>
	<g>
		<path fill="#FF8A8A" d="M47.413,9.083c0.471-0.027,0.943-0.018,1.415,0.02c0.471,0.031,0.939,0.094,1.407,0.174
			c0.937,0.17,1.86,0.432,2.757,0.787c1.795,0.707,3.478,1.807,4.862,3.238c1.381,1.424,2.446,3.172,3.08,5.041
			c0.317,0.934,0.536,1.895,0.651,2.861c0.058,0.484,0.094,0.967,0.097,1.451c0.005,0.482-0.013,0.967-0.068,1.445l-0.488-1.338
			c-0.162-0.441-0.329-0.877-0.504-1.301c-0.349-0.852-0.725-1.676-1.147-2.459c-0.844-1.572-1.858-2.998-3.064-4.244
			c-1.203-1.248-2.59-2.311-4.106-3.23c-0.76-0.461-1.551-0.885-2.367-1.283c-0.408-0.205-0.824-0.393-1.244-0.584L47.413,9.083z"/>
		<path fill="#FF8A8A" d="M52.491,6.797c0.35-0.051,0.7-0.066,1.053-0.063c0.35,0.002,0.7,0.031,1.052,0.076
			c0.698,0.09,1.391,0.262,2.066,0.504c1.347,0.49,2.617,1.299,3.649,2.365c1.036,1.064,1.818,2.387,2.254,3.795
			c0.218,0.699,0.355,1.42,0.411,2.143c0.022,0.359,0.032,0.719,0.012,1.08c-0.014,0.357-0.051,0.713-0.124,1.07
			c-0.154-0.328-0.291-0.65-0.431-0.963c-0.141-0.318-0.278-0.627-0.423-0.932c-0.286-0.607-0.584-1.188-0.907-1.742
			c-0.644-1.109-1.377-2.105-2.233-2.992c-0.855-0.887-1.83-1.656-2.898-2.359c-0.536-0.352-1.096-0.682-1.678-1.002
			c-0.29-0.164-0.584-0.324-0.886-0.484C53.107,7.133,52.802,6.973,52.491,6.797z"/>
	</g>
	<g>
		<path fill="#FF8A8A" d="M16.586,9.083c-0.471-0.027-0.943-0.018-1.415,0.018c-0.471,0.031-0.939,0.096-1.407,0.176
			c-0.937,0.168-1.86,0.432-2.757,0.787C9.212,10.77,7.53,11.87,6.145,13.301c-1.381,1.424-2.446,3.172-3.08,5.041
			c-0.317,0.934-0.536,1.895-0.651,2.861c-0.058,0.482-0.094,0.967-0.097,1.451C2.312,23.137,2.33,23.622,2.386,24.1l0.487-1.34
			c0.162-0.439,0.329-0.877,0.504-1.299c0.349-0.854,0.726-1.676,1.147-2.459c0.844-1.574,1.858-3,3.064-4.244
			c1.203-1.248,2.59-2.311,4.106-3.232c0.76-0.459,1.551-0.883,2.367-1.281c0.408-0.205,0.824-0.393,1.244-0.584L16.586,9.083z"/>
		<path fill="#FF8A8A" d="M11.508,6.795c-0.35-0.049-0.7-0.066-1.053-0.061c-0.35,0.002-0.7,0.029-1.052,0.076
			c-0.698,0.09-1.391,0.262-2.066,0.504C5.991,7.805,4.72,8.612,3.688,9.68c-1.036,1.064-1.818,2.387-2.254,3.795
			c-0.218,0.699-0.355,1.418-0.411,2.141C1,15.977,0.991,16.336,1.011,16.698c0.014,0.355,0.051,0.713,0.124,1.07
			c0.154-0.328,0.291-0.65,0.431-0.963c0.141-0.318,0.278-0.627,0.423-0.932c0.286-0.607,0.584-1.188,0.907-1.744
			c0.644-1.109,1.377-2.105,2.233-2.99c0.855-0.887,1.83-1.656,2.898-2.359c0.536-0.352,1.096-0.682,1.678-1.002
			c0.29-0.164,0.585-0.324,0.886-0.484S11.198,6.971,11.508,6.795z"/>
	</g>
	<g>
		<g>
			<path fill="#FF8A8A" d="M6.961,40.583c2.159,1.861,4.24,3.805,6.363,5.705c2.07,1.957,4.183,3.867,6.219,5.863l-0.145,0.156
				c-1.554-0.414-2.867-1.09-4.096-1.859c-1.243-0.752-2.364-1.637-3.417-2.596c-1.048-0.965-2.022-2.008-2.877-3.184
				c-0.869-1.158-1.652-2.412-2.192-3.93L6.961,40.583z"/>
			<path fill="#FF8A8A" d="M2.663,43.583c2.514,2.188,4.95,4.459,7.428,6.686c2.427,2.281,4.894,4.52,7.284,6.842l-0.145,0.156
				c-1.731-0.578-3.222-1.418-4.628-2.35c-1.42-0.914-2.719-1.963-3.95-3.084c-1.225-1.129-2.377-2.336-3.409-3.674
				c-1.047-1.322-2.008-2.738-2.725-4.42L2.663,43.583z"/>
		</g>
		<g>
			<path fill="#FF8A8A" d="M57.038,40.583c-2.158,1.861-4.239,3.805-6.362,5.705c-2.07,1.957-4.184,3.867-6.219,5.863l0.145,0.156
				c1.554-0.414,2.867-1.09,4.095-1.859c1.244-0.752,2.365-1.637,3.418-2.596c1.047-0.965,2.021-2.008,2.877-3.184
				c0.869-1.158,1.652-2.412,2.191-3.93L57.038,40.583z"/>
			<path fill="#FF8A8A" d="M61.338,43.583c-2.514,2.188-4.95,4.459-7.428,6.686c-2.427,2.281-4.894,4.52-7.284,6.842l0.144,0.156
				c1.732-0.578,3.223-1.418,4.629-2.35c1.42-0.914,2.719-1.963,3.95-3.084c1.225-1.129,2.377-2.336,3.409-3.674
				c1.047-1.322,2.008-2.738,2.725-4.42L61.338,43.583z"/>
		</g>
	</g>
</g>
</svg>
