<?xml version="1.0" encoding="utf-8"?>
<!-- Generator: Adobe Illustrator 15.0.0, SVG Export Plug-In . SVG Version: 6.00 Build 0)  -->
<!DOCTYPE svg PUBLIC "-//W3C//DTD SVG 1.1//EN" "http://www.w3.org/Graphics/SVG/1.1/DTD/svg11.dtd">
<svg version="1.1" id="Layer_1" xmlns="http://www.w3.org/2000/svg" xmlns:xlink="http://www.w3.org/1999/xlink" x="0px" y="0px"
	 width="64px" height="64px" viewBox="0 0 64 64" enable-background="new 0 0 64 64" xml:space="preserve">
<g>
	<path fill="#F46767" d="M61.072,18.16c-6.395-16.918-27.154-9.328-29.074-0.879C29.357,8.277,9.107,1.561,2.928,18.172
		C-3.953,36.674,29.598,53.279,31.998,56C34.396,53.838,67.951,36.361,61.072,18.16z"/>
	<path fill="#FFFFFF" d="M56.227,20.998c-5.33-13.316-22.629-7.344-24.229-0.693c-2.201-7.086-19.076-12.373-24.225,0.701
		C2.039,35.57,29.998,48.641,31.998,50.783C33.996,49.082,61.959,35.324,56.227,20.998z"/>
	<path fill="#F46767" d="M49.227,24.799c-3.79-10.025-16.09-5.527-17.229-0.521c-1.563-5.334-13.563-9.314-17.225,0.527
		c-4.078,10.967,15.803,20.805,17.225,22.416C33.421,45.939,53.304,35.584,49.227,24.799z"/>
</g>
</svg>
