<?xml version="1.0" encoding="utf-8"?>
<!-- Generator: Adobe Illustrator 15.0.0, SVG Export Plug-In . SVG Version: 6.00 Build 0)  -->
<!DOCTYPE svg PUBLIC "-//W3C//DTD SVG 1.1//EN" "http://www.w3.org/Graphics/SVG/1.1/DTD/svg11.dtd">
<svg version="1.1" id="Layer_1" xmlns="http://www.w3.org/2000/svg" xmlns:xlink="http://www.w3.org/1999/xlink" x="0px" y="0px"
	 width="64px" height="64px" viewBox="0 0 64 64" enable-background="new 0 0 64 64" xml:space="preserve">
<g>
	<g>
		<g>
			<g>
				<path fill="#231F20" d="M20.722,42.13c0,0,3.78-0.982,3.78-6.664c0-4.502-2.85-5.273-2.85-5.273
					c-5.89,0-13.911-4.482-19.65-8.277V4.856c16.979,0,26.25,10.902,26.25,25.264v31.879H2.002v-0.953
					C9.002,61.046,20.722,50.704,20.722,42.13z"/>
				<path fill="#FFDD67" d="M24.502,35.466c0,5.682-3.78,6.664-3.78,6.664c0,8.574-11.72,18.916-18.72,18.916v-4.787
					c5.135,0,6.199-3.104,8.437-5.377c0.011-0.002-3.114,0.236-5.108-0.256c-0.68-0.17-1.674-0.09-2.984,0.357
					c-0.116,0.035-0.229,0.074-0.344,0.111v-2.643c0.877,0,4.687-0.66,4.687-2.529c0,0-2.343-0.201-4.687-0.289V21.915
					c5.739,3.795,13.761,8.277,19.65,8.277C21.652,30.192,24.502,30.964,24.502,35.466z"/>
				<path fill="#EBA352" d="M6.688,45.923c0,1.869-3.81,2.529-4.687,2.529v-2.818C4.346,45.722,6.688,45.923,6.688,45.923z"/>
				<path fill="#F09985" d="M10.438,50.882c-2.237,2.273-3.302,5.377-8.437,5.377v-3.006C6.641,53.253,7.063,51.499,10.438,50.882z"
					/>
				<path fill="#D47F6C" d="M5.33,50.626c1.994,0.492,5.119,0.254,5.108,0.256C10.438,50.882,7.36,51.128,5.33,50.626z"/>
				<path fill="#D47F6C" d="M2.002,51.095c0.115-0.037,0.228-0.076,0.344-0.111c1.311-0.447,2.305-0.527,2.984-0.357
					c2.03,0.502,5.108,0.256,5.108,0.256c-3.376,0.617-3.798,2.371-8.437,2.371V51.095z"/>
			</g>
			<g>
				<g>
					<path fill="#F5F5F5" d="M8.386,38.577c-1.103,0-0.956-2.893-0.956-2.893c3.383-7.678,10.917-2.818,10.917-2.818
						c2.928,1.33-1.313,5.527-1.992,5.711C13.163,39.456,8.386,38.577,8.386,38.577z"/>
					<g>
						<ellipse fill="#664E27" cx="12.799" cy="35.063" rx="3.604" ry="3.662"/>
						<ellipse fill="#231F20" cx="12.799" cy="35.063" rx="1.25" ry="1.27"/>
					</g>
					<path fill="#3B3226" d="M6.483,36.792c0.922-1.143,1.833-2.24,2.893-3.076c1.059-0.832,2.247-1.359,3.53-1.443
						c1.282-0.125,2.626,0.154,4.02,0.422c0.698,0.137,1.417,0.273,2.169,0.316c0.728,0.031,1.605-0.057,2.125-0.623
						c-0.687,0.275-1.36,0.129-2.014-0.068c-0.659-0.195-1.313-0.469-1.995-0.701c-1.351-0.488-2.841-0.889-4.421-0.768
						c-0.782,0.08-1.569,0.281-2.281,0.635c-0.705,0.367-1.345,0.838-1.867,1.406C7.584,34.015,6.894,35.376,6.483,36.792z"/>
				</g>
			</g>
		</g>
		<g>
			<g>
				<path fill="#231F20" d="M39.685,30.931c0.155,1.049,0.366,2.033,0.658,2.592c0.523,1,1.593,1.568,1.593,1.568
					s-0.288-2.039-0.184-4.891c1.118-16.721,2.085-12.123,20.25-12.123V4.858c-19.821-0.129-24.786,7.945-24.786,26.381l0.003,0.006
					C37.964,30.692,38.878,30.714,39.685,30.931z"/>
				<path fill="#FFDD67" d="M52.641,49.175c0,0,4.931,0.279,9.361,0.289v-2.279c-1.173-0.084-4.574-0.785-4.574-2.551
					c0,0,2.254-0.193,4.574-0.283v-8.365H39.772l-2.554-4.74c-0.842,0.621-1.467,1.973-1.467,4.639c0,3.131,1.129,5.697,4.935,5.975
					c1.62,12.686,6.45,14.748,16.152,19.25c1.276,0.592,3.22,0.889,5.163,0.889v-6.848C56.814,55.077,52.641,52.382,52.641,49.175z"
					/>
				<path fill="#FFDD67" d="M62.002,35.985V18.077c-18.165,0-19.132-4.598-20.25,12.123c-0.104,2.852,0.184,4.891,0.184,4.891
					s-1.069-0.568-1.593-1.568c-0.292-0.559-0.503-1.543-0.658-2.592c-0.807-0.217-1.721-0.238-2.466,0.314l2.554,4.74H62.002z"/>
				<path fill="#574137" d="M62.002,55.149v-2.58c-4.741-0.037-8.553-1.32-8.553-2.938c0,0,4.016,0.316,8.553,0.326v-0.494
					c-4.431-0.01-9.361-0.289-9.361-0.289C52.641,52.382,56.814,55.077,62.002,55.149z"/>
				<path fill="#FFFFFF" d="M53.449,49.632c0,1.617,3.812,2.9,8.553,2.938v-2.611C57.465,49.948,53.449,49.632,53.449,49.632z"/>
				<path fill="#EBA352" d="M62.002,47.185v-2.834c-2.32,0.09-4.574,0.283-4.574,0.283C57.428,46.399,60.829,47.101,62.002,47.185z"
					/>
			</g>
			<g>
				<g>
					<path fill="#F5F5F5" d="M44.314,31.583c-0.304,1.443-0.664,5.066,6.07,4.941c6.979-0.135,6.701,0.477,7.04-1.918
						c0.295-2.096-2.151-4.422-5.771-5.258C48.034,28.511,44.747,29.515,44.314,31.583z"/>
					<g>
						<path fill="#664E27" d="M55.175,32.647c0,2.047-1.647,3.705-3.681,3.705c-2.032,0-3.679-1.658-3.679-3.705
							c0-2.043,1.646-3.701,3.679-3.701C53.527,28.946,55.175,30.604,55.175,32.647z"/>
						<ellipse fill="#231F20" cx="51.495" cy="32.647" rx="1.25" ry="1.26"/>
					</g>
					<path fill="#664E27" d="M44.183,32.987c-0.981-6.428,13.214-6.086,13.214,0.76C55.345,28.3,45.56,28.112,44.183,32.987z"/>
				</g>
			</g>
		</g>
	</g>
	<path fill="#E84D88" d="M50.595,8.317C46.617-2.204,33.703,2.517,32.509,7.771c-1.643-5.6-14.236-9.775-18.079,0.553
		c-4.281,11.508,16.587,21.84,18.079,23.531C34.003,30.507,54.87,19.64,50.595,8.317z"/>
</g>
</svg>
