<?xml version="1.0" encoding="utf-8"?>
<!-- Generator: Adobe Illustrator 15.0.0, SVG Export Plug-In . SVG Version: 6.00 Build 0)  -->
<!DOCTYPE svg PUBLIC "-//W3C//DTD SVG 1.1//EN" "http://www.w3.org/Graphics/SVG/1.1/DTD/svg11.dtd">
<svg version="1.1" id="Layer_1" xmlns="http://www.w3.org/2000/svg" xmlns:xlink="http://www.w3.org/1999/xlink" x="0px" y="0px"
	 width="64px" height="64px" viewBox="0 0 64 64" enable-background="new 0 0 64 64" xml:space="preserve">
<g>
	<g>
		<path fill="#F46767" d="M61.07,18.172c0.809,2.172,1.053,4.316,0.862,6.416L45.445,8.101C51.542,7.463,58.021,9.972,61.07,18.172z
			"/>
		<path fill="#F46767" d="M2.927,18.16c6.395-16.918,27.154-9.328,29.074-0.879c0.94-3.206,4.117-6.115,8.093-7.791l20.435,20.434
			C54.756,43.278,33.876,53.875,32.001,56C29.603,53.838-3.952,36.361,2.927,18.16z"/>
		<path fill="#DAE4EA" d="M45.445,8.101l16.487,16.487c-0.165,1.816-0.654,3.6-1.404,5.336L40.094,9.49
			C41.771,8.782,43.588,8.295,45.445,8.101z"/>
	</g>
	<g>
		<path fill="#DAE4EA" d="M55.921,21.525c0,0-4.983,4.52-3.994,11.506l-3.752-3.752l-3.805,3.789c0,0,0.796-8.279,7.809-15.291
			L55.921,21.525z"/>
		<path fill="#FFFFFF" d="M51.967,17.985c-1.394,1.394-1.264,4.232,0.288,6.312l1.242,1.664c1.552,2.076,3.392,2.682,4.088,1.344
			c0.698-1.34,2.363-3.005,3.702-3.702c1.339-0.696,0.733-2.537-1.344-4.089l-1.664-1.242C56.201,16.721,53.36,16.592,51.967,17.985
			z"/>
		<path fill="#DAE4EA" d="M52.252,17.686c-0.415,0.498,0.355,1.225,1.508,1.819l0.659,0.339c1.152,0.596,1.445,0.241,0.65-0.782
			l-0.453-0.587C53.821,17.45,52.667,17.187,52.252,17.686z"/>
		<path fill="#C4CED6" d="M56.991,27.011c0,0.284-0.314,0.271-0.432,0.291c-0.354,0.054-1.017-0.174-1.82-0.979
			c-0.232-0.231-0.458-0.495-0.676-0.787l-1.241-1.663c-0.87-1.164-1.24-2.621-1.076-3.808
			C51.746,20.065,56.991,23.638,56.991,27.011z"/>
		<path fill="#DAE4EA" d="M48.475,14.078c0,0-4.52,4.983-11.507,3.994l3.752,3.753l-3.794,3.798c0,0,8.283-0.79,15.296-7.803
			L48.475,14.078z"/>
		<path fill="#FFFFFF" d="M52.014,18.032c-1.394,1.394-4.232,1.264-6.312-0.288l-1.663-1.242c-2.078-1.552-2.682-3.392-1.345-4.088
			c1.341-0.697,3.006-2.363,3.702-3.702c0.698-1.338,2.536-0.733,4.089,1.344l1.241,1.664
			C53.278,13.798,53.407,16.639,52.014,18.032z"/>
		<path fill="#DAE4EA" d="M52.313,17.747c-0.498,0.415-1.225-0.355-1.819-1.508l-0.339-0.659c-0.595-1.151-0.241-1.445,0.783-0.65
			l0.586,0.453C52.548,16.178,52.813,17.333,52.313,17.747z"/>
		<path fill="#C4CED6" d="M42.988,13.008c-0.284,0-0.271,0.314-0.29,0.433c-0.055,0.353,0.174,1.017,0.978,1.82
			c0.231,0.23,0.496,0.458,0.787,0.675l1.663,1.242c1.164,0.869,2.621,1.239,3.809,1.075C49.935,18.253,46.361,13.008,42.988,13.008
			z"/>
		<path fill="#FFFFFF" d="M50.557,16.572c-0.782,1.033-0.88,2.424-0.215,3.088c0.665,0.665,2.055,0.568,3.089-0.214l0.35-0.265
			c1.035-0.782,1.122-2.165,0.205-3.082l-0.083-0.083c-0.917-0.917-2.299-0.829-3.082,0.205L50.557,16.572z"/>
		<g>
			<path fill="#DAE4EA" d="M51.676,18.326c0.604,0.604,1.809,0.58,2.801-0.02c-0.139,0.326-0.369,0.627-0.688,0.868l-0.357,0.271
				c-1.034,0.782-2.424,0.879-3.089,0.214c-0.665-0.664-0.567-2.055,0.215-3.088l0.271-0.358c0.241-0.319,0.542-0.549,0.867-0.688
				C51.096,16.519,51.071,17.721,51.676,18.326z"/>
		</g>
	</g>
</g>
</svg>
