<?xml version="1.0" encoding="utf-8"?>
<!-- Generator: Adobe Illustrator 15.0.0, SVG Export Plug-In . SVG Version: 6.00 Build 0)  -->
<!DOCTYPE svg PUBLIC "-//W3C//DTD SVG 1.1//EN" "http://www.w3.org/Graphics/SVG/1.1/DTD/svg11.dtd">
<svg version="1.1" id="Layer_1" xmlns="http://www.w3.org/2000/svg" xmlns:xlink="http://www.w3.org/1999/xlink" x="0px" y="0px"
	 width="64px" height="64px" viewBox="0 0 64 64" enable-background="new 0 0 64 64" xml:space="preserve">
<path fill="#E84D88" d="M63,62H1c-0.551,0-1,0.45-1,1l0,0c0,0.55,0.449,1,1,1h62c0.549,0,1-0.45,1-1l0,0C64,62.45,63.549,62,63,62z"
	/>
<polygon fill="#FC97B2" points="60,62 4,62 4,44 32,32 60,44 "/>
<path fill="#ED4C5C" d="M21.371,34.143L1.172,42.394c-0.965,0.395-1.428,1.497-1.027,2.45c0.398,0.952,1.518,1.408,2.482,1.014
	l20.199-8.251c0.967-0.395,1.43-1.497,1.029-2.45C23.455,34.204,22.338,33.747,21.371,34.143z"/>
<path fill="#ED4C5C" d="M42.627,34.143l20.199,8.251c0.967,0.395,1.43,1.497,1.029,2.45c-0.4,0.952-1.518,1.408-2.484,1.014
	l-20.199-8.251c-0.965-0.395-1.428-1.497-1.027-2.45C40.543,34.204,41.662,33.747,42.627,34.143z"/>
<polygon fill="#FFC7CE" points="44,62 20,62 20,26 32,21 44,26 "/>
<polygon fill="#FFCE31" points="38.667,5 33.667,5 33.667,0 30.333,0 30.333,5 25.333,5 25.333,8.333 30.333,8.333 30.333,20 
	33.667,20 33.667,8.333 38.667,8.333 "/>
<rect x="20" y="63" fill="#FFC7CE" width="24" height="1"/>
<rect x="20" y="62" fill="#FC97B2" width="24" height="1"/>
<path fill="#ED4C5C" d="M47.828,25.42L32,19l-15.828,6.42c-0.965,0.391-1.428,1.486-1.027,2.432
	c0.398,0.946,1.518,1.399,2.482,1.008L32,23.029l14.371,5.83c0.967,0.392,2.086-0.062,2.484-1.008
	C49.256,26.906,48.793,25.811,47.828,25.42z"/>
<g>
	<g>
		<path fill="#FFFFFF" d="M30.676,29.822c-0.084-0.567-0.609-0.926-1.168-0.796c0,0-0.137,0.032-0.701,0.265
			c-0.564,0.234-0.682,0.309-0.682,0.309c-0.486,0.303-0.605,0.928-0.264,1.389l3.119,4.21c0.34,0.461,0.551,0.374,0.467-0.193
			L30.676,29.822z"/>
	</g>
	<g>
		<path fill="#FFFFFF" d="M25.992,32.862c-0.463-0.341-1.063-0.208-1.338,0.296l-0.564,1.365c-0.162,0.55,0.168,1.068,0.736,1.153
			l5.18,0.771c0.566,0.085,0.654-0.125,0.191-0.467L25.992,32.862z"/>
	</g>
	<g>
		<path fill="#FFFFFF" d="M24.822,38.324c-0.566,0.084-0.926,0.609-0.795,1.168c0,0,0.031,0.137,0.264,0.701
			c0.234,0.563,0.309,0.682,0.309,0.682c0.303,0.486,0.928,0.605,1.389,0.264l4.209-3.119c0.463-0.341,0.375-0.552-0.193-0.467
			L24.822,38.324z"/>
	</g>
	<g>
		<path fill="#FFFFFF" d="M27.863,43.008c-0.342,0.462-0.209,1.063,0.295,1.337l1.365,0.565c0.551,0.162,1.068-0.168,1.152-0.736
			l0.771-5.18c0.084-0.566-0.125-0.654-0.467-0.193L27.863,43.008z"/>
	</g>
	<g>
		<path fill="#FFFFFF" d="M33.324,44.178c0.084,0.566,0.609,0.925,1.168,0.795c0,0,0.137-0.031,0.701-0.264
			c0.563-0.234,0.682-0.309,0.682-0.309c0.486-0.303,0.605-0.928,0.264-1.389l-3.119-4.211c-0.342-0.461-0.553-0.373-0.467,0.194
			L33.324,44.178z"/>
	</g>
	<g>
		<path fill="#FFFFFF" d="M38.008,41.137c0.461,0.342,1.063,0.209,1.336-0.295l0.566-1.365c0.162-0.551-0.168-1.068-0.736-1.153
			l-5.18-0.771c-0.566-0.085-0.654,0.125-0.193,0.467L38.008,41.137z"/>
	</g>
	<g>
		<path fill="#FFFFFF" d="M39.178,35.676c0.566-0.084,0.926-0.609,0.795-1.169c0,0-0.031-0.136-0.264-0.7
			c-0.234-0.563-0.309-0.682-0.309-0.682c-0.303-0.487-0.928-0.605-1.389-0.264l-4.211,3.119c-0.461,0.341-0.373,0.552,0.193,0.467
			L39.178,35.676z"/>
	</g>
	<g>
		<path fill="#FFFFFF" d="M36.137,30.992c0.342-0.462,0.209-1.063-0.295-1.337l-1.365-0.565c-0.551-0.163-1.068,0.168-1.154,0.736
			l-0.77,5.179c-0.086,0.567,0.125,0.655,0.467,0.193L36.137,30.992z"/>
	</g>
</g>
<path fill="#FC97B2" d="M32,47c-3.314,0-6,2.687-6,6v9h12v-9C38,49.687,35.313,47,32,47z"/>
<path fill="#D6EEF0" d="M28,56h8v-3c0-2.205-1.795-4-4-4c-2.207,0-4,1.795-4,4V56z"/>
<g>
	<g>
		<g>
			<path fill="#E84D88" d="M11.172,49.514c-0.053-0.354-0.381-0.578-0.73-0.497c0,0-0.084,0.02-0.438,0.165
				c-0.352,0.146-0.426,0.192-0.426,0.192c-0.305,0.19-0.379,0.58-0.164,0.868l1.949,2.632c0.213,0.288,0.344,0.234,0.291-0.122
				L11.172,49.514z"/>
		</g>
		<g>
			<path fill="#E84D88" d="M8.244,51.414C7.955,51.199,7.58,51.283,7.408,51.6l-0.354,0.852c-0.1,0.345,0.107,0.668,0.461,0.721
				l3.236,0.482c0.357,0.054,0.41-0.078,0.123-0.292L8.244,51.414z"/>
		</g>
		<g>
			<path fill="#E84D88" d="M7.514,54.827c-0.354,0.054-0.578,0.381-0.498,0.731c0,0,0.02,0.084,0.166,0.436
				c0.146,0.354,0.193,0.428,0.193,0.428c0.189,0.305,0.58,0.379,0.867,0.164l2.633-1.949c0.287-0.213,0.232-0.345-0.123-0.292
				L7.514,54.827z"/>
		</g>
		<g>
			<path fill="#E84D88" d="M9.414,57.756C9.199,58.044,9.283,58.42,9.6,58.591l0.852,0.353c0.346,0.102,0.668-0.105,0.721-0.459
				l0.482-3.237c0.053-0.356-0.078-0.41-0.291-0.122L9.414,57.756z"/>
		</g>
		<g>
			<path fill="#E84D88" d="M12.828,58.485c0.053,0.354,0.381,0.579,0.73,0.497c0,0,0.084-0.02,0.436-0.165
				c0.354-0.146,0.428-0.192,0.428-0.192c0.305-0.189,0.379-0.58,0.164-0.868l-1.949-2.632c-0.213-0.288-0.346-0.233-0.293,0.122
				L12.828,58.485z"/>
		</g>
		<g>
			<path fill="#E84D88" d="M15.756,56.586c0.287,0.214,0.664,0.131,0.834-0.186l0.354-0.852c0.104-0.346-0.105-0.668-0.459-0.722
				l-3.236-0.482c-0.357-0.053-0.41,0.079-0.123,0.292L15.756,56.586z"/>
		</g>
		<g>
			<path fill="#E84D88" d="M16.484,53.172c0.355-0.053,0.58-0.381,0.498-0.73c0,0-0.02-0.085-0.166-0.437
				c-0.145-0.353-0.191-0.427-0.191-0.427c-0.189-0.305-0.58-0.379-0.867-0.164l-2.633,1.948c-0.287,0.214-0.234,0.346,0.123,0.293
				L16.484,53.172z"/>
		</g>
		<g>
			<path fill="#E84D88" d="M14.586,50.244c0.215-0.288,0.131-0.664-0.186-0.835l-0.852-0.354c-0.346-0.102-0.668,0.106-0.721,0.46
				l-0.482,3.236c-0.055,0.356,0.078,0.41,0.291,0.122L14.586,50.244z"/>
		</g>
	</g>
	<g>
		<g>
			<path fill="#E84D88" d="M51.172,49.514c-0.053-0.354-0.381-0.578-0.73-0.497c0,0-0.084,0.02-0.438,0.165
				c-0.352,0.146-0.426,0.192-0.426,0.192c-0.305,0.19-0.379,0.58-0.164,0.868l1.949,2.632c0.213,0.288,0.344,0.234,0.291-0.122
				L51.172,49.514z"/>
		</g>
		<g>
			<path fill="#E84D88" d="M48.244,51.414c-0.289-0.215-0.664-0.131-0.836,0.186l-0.354,0.852c-0.1,0.345,0.107,0.668,0.461,0.721
				l3.236,0.482c0.357,0.054,0.41-0.078,0.123-0.292L48.244,51.414z"/>
		</g>
		<g>
			<path fill="#E84D88" d="M47.514,54.827c-0.354,0.054-0.578,0.381-0.498,0.731c0,0,0.02,0.084,0.166,0.436
				c0.146,0.354,0.193,0.428,0.193,0.428c0.189,0.305,0.58,0.379,0.867,0.164l2.633-1.949c0.287-0.213,0.232-0.345-0.123-0.292
				L47.514,54.827z"/>
		</g>
		<g>
			<path fill="#E84D88" d="M49.414,57.756c-0.215,0.288-0.131,0.664,0.186,0.835l0.852,0.353c0.346,0.102,0.668-0.105,0.721-0.459
				l0.482-3.237c0.053-0.356-0.078-0.41-0.291-0.122L49.414,57.756z"/>
		</g>
		<g>
			<path fill="#E84D88" d="M52.828,58.485c0.053,0.354,0.381,0.579,0.73,0.497c0,0,0.084-0.02,0.436-0.165
				c0.354-0.146,0.428-0.192,0.428-0.192c0.305-0.189,0.379-0.58,0.164-0.868l-1.949-2.632c-0.213-0.288-0.346-0.233-0.293,0.122
				L52.828,58.485z"/>
		</g>
		<g>
			<path fill="#E84D88" d="M55.756,56.586c0.287,0.214,0.664,0.131,0.834-0.186l0.354-0.852c0.104-0.346-0.105-0.668-0.459-0.722
				l-3.236-0.482c-0.357-0.053-0.41,0.079-0.123,0.292L55.756,56.586z"/>
		</g>
		<g>
			<path fill="#E84D88" d="M56.484,53.172c0.355-0.053,0.58-0.381,0.498-0.73c0,0-0.02-0.085-0.166-0.437
				c-0.145-0.353-0.191-0.427-0.191-0.427c-0.189-0.305-0.58-0.379-0.867-0.164l-2.633,1.948c-0.287,0.214-0.234,0.346,0.123,0.293
				L56.484,53.172z"/>
		</g>
		<g>
			<path fill="#E84D88" d="M54.586,50.244c0.215-0.288,0.131-0.664-0.186-0.835l-0.852-0.354c-0.346-0.102-0.668,0.106-0.721,0.46
				l-0.482,3.236c-0.055,0.356,0.078,0.41,0.291,0.122L54.586,50.244z"/>
		</g>
	</g>
</g>
<rect x="31" y="48" fill="#FC97B2" width="2" height="14"/>
<rect x="26" y="55" fill="#FC97B2" width="12" height="7"/>
<rect x="28" y="57.334" fill="#E84D88" width="3" height="3"/>
<rect x="33" y="57.334" fill="#E84D88" width="3" height="3"/>
<path fill="#FC97B2" d="M59.262,11c-1.885,0-3.5,1.055-4.262,2.57C54.238,12.055,52.623,11,50.736,11C48.121,11,46,13.016,46,15.5
	C46,20,55.449,29,55.449,29S64,20,64,15.5C64,13.016,61.879,11,59.262,11z"/>
<path fill="#FC97B2" d="M13.262,11c-1.885,0-3.5,1.055-4.262,2.57C8.238,12.055,6.623,11,4.736,11C2.121,11,0,13.016,0,15.5
	C0,20,9.449,29,9.449,29S18,20,18,15.5C18,13.016,15.879,11,13.262,11z"/>
</svg>
