<?xml version="1.0" encoding="utf-8"?>
<!-- Generator: Adobe Illustrator 15.0.0, SVG Export Plug-In . SVG Version: 6.00 Build 0)  -->
<!DOCTYPE svg PUBLIC "-//W3C//DTD SVG 1.1//EN" "http://www.w3.org/Graphics/SVG/1.1/DTD/svg11.dtd">
<svg version="1.1" id="Layer_1" xmlns="http://www.w3.org/2000/svg" xmlns:xlink="http://www.w3.org/1999/xlink" x="0px" y="0px"
	 width="64px" height="64px" viewBox="0 0 64 64" enable-background="new 0 0 64 64" xml:space="preserve">
<g>
	<path fill="#FF8A8A" d="M27.859,53.791c-2.481,0.271-5.093,0.084-7.482-0.575c-2.404-0.654-4.644-1.763-6.563-3.23
		c-1.921-1.467-3.521-3.292-4.674-5.329c-1.156-2.035-1.857-4.276-2.079-6.52c0.631,2.165,1.706,4.152,3.106,5.809
		c1.4,1.659,3.118,2.99,4.987,3.93c1.87,0.942,3.891,1.495,5.902,1.652c2.026,0.157,3.983-0.07,5.909-0.655
		c1.329-0.404,2.734,0.346,3.139,1.675c0.403,1.329-0.347,2.734-1.676,3.138c-0.147,0.046-0.297,0.077-0.445,0.094L27.859,53.791z"
		/>
	<path fill="#FF8A8A" d="M56.355,31.636c0.828,2.389,1.176,5.029,0.965,7.517c-0.201,2.503-0.922,4.907-2.045,7.046
		c-2.24,4.298-6.117,7.458-10.396,8.869c3.955-2.182,6.879-5.823,8.09-9.836c0.615-2.001,0.816-4.082,0.602-6.07
		c-0.219-2.003-0.828-3.848-1.816-5.566c-0.691-1.206-0.275-2.743,0.93-3.435s2.742-0.276,3.434,0.929
		c0.078,0.135,0.141,0.272,0.191,0.414L56.355,31.636z"/>
	<path fill="#FF8A8A" d="M33.301,8.239c2.414-0.636,5.023-0.838,7.484-0.54c2.475,0.289,4.854,1.054,6.969,2.22
		c2.119,1.165,3.973,2.732,5.416,4.575c1.445,1.841,2.471,3.953,3.021,6.139c-0.945-2.048-2.303-3.854-3.934-5.282
		c-1.631-1.434-3.527-2.494-5.516-3.146c-1.988-0.653-4.068-0.9-6.08-0.757c-2.029,0.146-3.93,0.66-5.748,1.524
		c-1.254,0.597-2.755,0.063-3.353-1.19c-0.597-1.254-0.063-2.756,1.191-3.352c0.14-0.067,0.282-0.119,0.427-0.159L33.301,8.239z"/>
	<path fill="#FF8A8A" d="M15.007,30.549c-1.07-2.289-1.685-4.88-1.729-7.376c-0.057-2.512,0.415-4.978,1.313-7.219
		c1.787-4.505,5.321-8.046,9.434-9.888c-3.711,2.575-6.247,6.496-7.041,10.612c-0.407,2.054-0.395,4.145,0.022,6.1
		c0.423,1.971,1.218,3.743,2.376,5.353c0.812,1.128,0.556,2.699-0.572,3.511s-2.7,0.556-3.512-0.571
		c-0.091-0.126-0.168-0.258-0.232-0.394L15.007,30.549z"/>
	<path fill="#F46767" d="M31.427,41.889c-1.812-4.565-13.015-7.209-15.624,1.678C12.899,53.467,31.696,60.688,33.109,62
		c1.197-1.223,18.52-11.705,14.023-20.87C42.955,32.608,32.096,37.418,31.427,41.889z"/>
	<path fill="#F46767" d="M61.17,24.857c-3.344-4.656-9.287-0.783-9.229,1.932c-1.541-2.538-8.447-3.045-9.092,2.466
		c-0.717,6.144,11.158,8.649,12.129,9.292C55.563,37.709,64.764,29.863,61.17,24.857z"/>
	<path fill="#F46767" d="M36.844,6.41c0.359-2.563-4.151-6.527-7.699-3.036c-3.952,3.886,2.88,11.834,3.191,12.789
		c0.879-0.274,11.682-0.912,12.002-6.27C44.637,4.915,38.328,4.498,36.844,6.41z"/>
	<path fill="#F46767" d="M25.471,25.853c-0.41-6.973-9.257-6.58-11.005-3.689c0.071-3.624-6.861-8.443-11.219-3.04
		c-4.853,6.021,5.975,16.026,6.566,17.307C10.989,35.911,25.912,33.357,25.471,25.853z"/>
</g>
</svg>
