<?xml version="1.0" encoding="utf-8"?>
<!-- Generator: Adobe Illustrator 15.0.0, SVG Export Plug-In . SVG Version: 6.00 Build 0)  -->
<!DOCTYPE svg PUBLIC "-//W3C//DTD SVG 1.1//EN" "http://www.w3.org/Graphics/SVG/1.1/DTD/svg11.dtd">
<svg version="1.1" id="Layer_1" xmlns="http://www.w3.org/2000/svg" xmlns:xlink="http://www.w3.org/1999/xlink" x="0px" y="0px"
	 width="64px" height="64px" viewBox="0 0 64 64" enable-background="new 0 0 64 64" xml:space="preserve">
<g>
	<path fill="#83BF4F" d="M43.174,26.821c-0.869,5.985,5.93,16.535,5.93,16.535l1.533-0.767c-4.34-13.555-2.076-28.95-2.076-28.95
		S44.143,20.128,43.174,26.821z"/>
	<g>
		<polygon fill="#75A843" points="28.961,3.33 50.731,42.752 46.226,44.918 		"/>
	</g>
	<g>
		<path fill="#CC9132" d="M39.77,11.782c2.51,5.065,1.205,8.423-1.725,9.891c-2.93,1.467-6.381,0.488-8.891-4.577
			C26.646,12.032,28.961,3.33,28.961,3.33S37.26,6.717,39.77,11.782z"/>
		<path fill="#F4BC58" d="M34.82,11.3c8.881,0.881,7.324,9.291,3.471,11.22c-3.854,1.93-8.949-0.487-11.383-5.398
			c-2.432-4.912-0.609-10.794-0.609-10.794S28.281,10.652,34.82,11.3z"/>
		<path fill="#FFD93B" d="M31.756,12.835c-4.652,7.657,2.959,11.476,6.813,9.547s5.006-7.476,2.572-12.388
			C38.709,5.083,32.943,3,32.943,3S35.182,7.197,31.756,12.835z"/>
	</g>
	<g>
		<path fill="#83BF4F" d="M29.721,38.875c4.588,3.912,17.088,3.705,17.088,3.705l0.164-1.713c-13.73-3.48-25.514-13.57-25.514-13.57
			S24.59,34.502,29.721,38.875z"/>
		<g>
			<polygon fill="#75A843" points="2,35.368 46.646,37.201 46.162,42.178 			"/>
		</g>
		<g>
			<path fill="#871212" d="M14.855,30.631c5.602,0.545,7.744,3.434,7.43,6.711c-0.316,3.277-2.969,5.7-8.57,5.156
				C8.113,41.951,2,35.368,2,35.368S9.256,30.085,14.855,30.631z"/>
			<path fill="#CC3636" d="M11.828,34.594c5.447-7.104,11.717-1.322,11.303,2.986c-0.416,4.309-5.154,7.374-10.586,6.846
				s-9.426-5.199-9.426-5.199S7.816,39.828,11.828,34.594z"/>
			<path fill="#E24B4B" d="M11.498,38.021c3.992,8.024,11.246,3.559,11.662-0.751c0.416-4.308-3.652-8.229-9.084-8.758
				S3.832,31.797,3.832,31.797S8.559,32.113,11.498,38.021z"/>
		</g>
		<path fill="#83BF4F" d="M28.928,40.03c5.248-2.954,17.477-0.341,17.477-0.341l-0.164,1.713
			c-14.141,0.77-27.629,8.398-27.629,8.398S23.057,43.334,28.928,40.03z"/>
	</g>
	<g>
		<path fill="#83BF4F" d="M33.813,28.899c1.813,5.769,12.502,12.284,12.502,12.284l1.047-1.361
			c-9.775-10.299-14.41-25.147-14.41-25.147S31.787,22.449,33.813,28.899z"/>
		<g>
			<polygon fill="#75A843" points="12.287,16.403 49.118,41.861 46.05,45.809 			"/>
		</g>
		<g>
			<path fill="#AA1F65" d="M25.678,19.276c4.453,3.46,4.736,7.053,2.734,9.658c-2.002,2.604-5.531,3.235-9.984-0.226
				c-4.453-3.46-6.141-12.306-6.141-12.306S21.227,15.815,25.678,19.276z"/>
			<path fill="#D33777" d="M21.016,21.01c8.375-3.097,10.619,5.154,7.986,8.579c-2.633,3.425-8.268,3.481-12.586,0.126
				c-4.316-3.354-5.227-9.448-5.227-9.448S14.848,23.292,21.016,21.01z"/>
			<path fill="#E84D88" d="M18.922,23.734c-0.871,8.931,7.637,9.033,10.268,5.607c2.635-3.424,1.268-8.922-3.051-12.276
				c-4.316-3.355-10.408-2.704-10.408-2.704S19.561,17.159,18.922,23.734z"/>
		</g>
	</g>
	<g>
		<g>
			<polygon fill="#83BF4F" points="58.428,58.164 56.49,60.114 54.018,57.629 55.957,55.679 			"/>
			<polygon fill="#75A843" points="59.775,56.811 57.834,58.762 55.363,56.276 57.303,54.326 			"/>
			<polygon fill="#83BF4F" points="61.119,55.458 59.18,57.408 56.709,54.924 58.648,52.973 			"/>
		</g>
		<path fill="#42ADE2" d="M22.826,47.791c0,0,17.137-2.908,25.307,5.307C49.885,54.859,50.984,61,50.984,61L62,49.923
			c0,0-6.105-1.104-7.859-2.867c-8.17-8.215-5.277-25.446-5.277-25.446L22.826,47.791z"/>
		<polygon fill="#FF506E" points="58.01,46.918 47.996,56.986 44.266,53.234 54.279,43.166 		"/>
	</g>
</g>
</svg>
