<?xml version="1.0" encoding="utf-8"?>
<!-- Generator: Adobe Illustrator 15.0.0, SVG Export Plug-In . SVG Version: 6.00 Build 0)  -->
<!DOCTYPE svg PUBLIC "-//W3C//DTD SVG 1.1//EN" "http://www.w3.org/Graphics/SVG/1.1/DTD/svg11.dtd">
<svg version="1.1" id="Layer_1" xmlns="http://www.w3.org/2000/svg" xmlns:xlink="http://www.w3.org/1999/xlink" x="0px" y="0px"
	 width="64px" height="64px" viewBox="0 0 64 64" enable-background="new 0 0 64 64" xml:space="preserve">
<g>
	<g>
		<g>
			<g>
				<path fill="#FF4085" d="M61.072,18.16c-6.396-16.918-27.154-9.328-29.074-0.879C29.356,8.277,9.108,1.561,2.928,18.172
					C-3.953,36.674,29.598,53.279,31.999,56C34.396,53.838,67.951,36.361,61.072,18.16z"/>
			</g>
		</g>
	</g>
	<g>
		<polygon fill="#FFFFFF" points="53.831,13.275 51.193,8 48.555,13.275 43.282,15.912 48.555,18.548 51.193,23.824 53.831,18.548 
			59.105,15.912 		"/>
	</g>
	<g>
		<polygon fill="#FFFFFF" points="16.252,26.753 12.69,19.625 9.124,26.753 2,30.314 9.124,33.877 12.69,41.006 16.252,33.877 
			23.379,30.314 		"/>
	</g>
	<g>
		<polygon fill="#FFFFFF" points="48.725,42.438 45.852,36.688 42.975,42.438 37.229,45.311 42.975,48.182 45.852,53.932 
			48.725,48.182 54.473,45.311 		"/>
	</g>
	<g>
		
			<rect x="19.758" y="18.532" transform="matrix(0.7071 -0.7071 0.7071 0.7071 -8.1958 21.5203)" fill="#FFFFFF" width="4.243" height="4.243"/>
		
			<rect x="24.112" y="39.792" transform="matrix(0.7071 -0.7071 0.7071 0.7071 -21.8072 30.472)" fill="#FFFFFF" width="3.536" height="3.536"/>
		
			<rect x="40.161" y="25.194" transform="matrix(0.7071 -0.7071 0.7071 0.7071 -6.9307 37.8986)" fill="#FFFFFF" width="4.243" height="4.243"/>
	</g>
</g>
</svg>
