<?xml version="1.0" encoding="utf-8"?>
<!-- Generator: Adobe Illustrator 15.0.0, SVG Export Plug-In . SVG Version: 6.00 Build 0)  -->
<!DOCTYPE svg PUBLIC "-//W3C//DTD SVG 1.1//EN" "http://www.w3.org/Graphics/SVG/1.1/DTD/svg11.dtd">
<svg version="1.1" id="Layer_1" xmlns="http://www.w3.org/2000/svg" xmlns:xlink="http://www.w3.org/1999/xlink" x="0px" y="0px"
	 width="64px" height="64px" viewBox="0 0 64 64" enable-background="new 0 0 64 64" xml:space="preserve">
<g>
	<g>
		<polygon fill="#FFCE31" points="11.159,54.795 9.482,53.145 25.181,37.703 26.858,39.354 		"/>
		<g>
			<path fill="#42ADE2" d="M4.205,59.984c0,0-0.576-6.697,5.253-12.428l1.714,5.574L4.205,59.984z"/>
			<path fill="#467591" d="M4.205,59.984c0,0,6.808,0.566,12.637-5.166l-5.669-1.688L4.205,59.984z"/>
		</g>
	</g>
	<path fill="#F46767" d="M53.741,24.385c-5.601-14.576-23.784-8.035-25.467-0.756c-2.313-7.758-20.049-13.547-25.462,0.766
		c-6.027,15.939,23.359,30.246,25.462,32.59C30.376,55.121,59.767,40.066,53.741,24.385z"/>
	<g>
		<polygon fill="#FFCE31" points="39.997,27.293 38.319,25.641 54.483,9.742 56.163,11.393 		"/>
		<path fill="#467591" d="M46.923,17.182c0,0-0.309-6.959,6.015-13.182l1.546,5.742L46.923,17.182z"/>
		<path fill="#467591" d="M48.601,18.83c0,0,7.074,0.305,13.398-5.916l-5.836-1.521L48.601,18.83z"/>
	</g>
</g>
</svg>
