<?xml version="1.0" encoding="utf-8"?>
<!-- Generator: Adobe Illustrator 15.0.0, SVG Export Plug-In . SVG Version: 6.00 Build 0)  -->
<!DOCTYPE svg PUBLIC "-//W3C//DTD SVG 1.1//EN" "http://www.w3.org/Graphics/SVG/1.1/DTD/svg11.dtd">
<svg version="1.1" id="Layer_1" xmlns="http://www.w3.org/2000/svg" xmlns:xlink="http://www.w3.org/1999/xlink" x="0px" y="0px"
	 width="64px" height="64px" viewBox="0 0 64 64" enable-background="new 0 0 64 64" xml:space="preserve">
<g>
	<g>
		<path fill="#F46767" d="M61.088,19.088c-4.482-12.049-16.15-11.637-23.148-7.349L32.56,23.027l9.954-0.927L32.265,35.259
			l8.43-2.15l-5.285,20.89l-1.643-14.132l-11.862,2.543l9.074-14.445l-7.824-1.139l5.381-12.364
			c-6.404-6.39-22.972-7.569-26.208,7.755c-3.853,18.253,27.347,29.586,32.928,32.712L35.244,55
			c0.021-0.014,0.045-0.029,0.066-0.043c0.023,0.014,0.057,0.03,0.078,0.043l0.002-0.095C43.824,49.473,66.842,34.546,61.088,19.088
			z"/>
	</g>
</g>
</svg>
