<?xml version="1.0" encoding="utf-8"?>
<!-- Generator: Adobe Illustrator 15.0.0, SVG Export Plug-In . SVG Version: 6.00 Build 0)  -->
<!DOCTYPE svg PUBLIC "-//W3C//DTD SVG 1.1//EN" "http://www.w3.org/Graphics/SVG/1.1/DTD/svg11.dtd">
<svg version="1.1" id="Layer_1" xmlns="http://www.w3.org/2000/svg" xmlns:xlink="http://www.w3.org/1999/xlink" x="0px" y="0px"
	 width="64px" height="64px" viewBox="0 0 64 64" enable-background="new 0 0 64 64" xml:space="preserve">
<g>
	<g>
		<path fill="#ED4C5C" d="M9.516,1.366c0,0-6.541,16.243-9.506,40.628c-0.265,2.18,4.756,0.229,6.487-0.432
			C10.413,17.547,16.002,1.09,16.002,1.09C14.37,0.811,9.516,1.366,9.516,1.366z"/>
		<path fill="#ED4C5C" d="M37.633,3.146c2.306,3.736,1.298,9.661-0.098,15.537C35.23,28.182,29.798,38,21.009,38
			c-8.312,0-9.176-9.019-6.965-18.256c1.343-5.598,3.554-11.307,6.917-15.098C23.555,1.759,27.11,0,30.664,0
			C34.123,0,36.479,0.691,37.633,3.146z M20.72,19.799c-1.873,7.745-1.007,11.638,2.069,11.638c3.214,0,6.242-4.91,8.215-12.97
			c1.824-7.686,0.959-11.213-2.117-11.213C25.956,7.254,22.74,11.526,20.72,19.799z"/>
		<path fill="#ED4C5C" d="M62.631,3.15c2.307,3.732,1.297,9.657-0.096,15.531C60.229,28.18,54.801,38,46.009,38
			c-8.312,0-9.177-9.021-6.967-18.256c1.348-5.6,3.555-11.308,6.92-15.099C48.556,1.764,52.11,0,55.666,0
			C59.125,0,61.479,0.691,62.631,3.15z M45.722,19.801c-1.873,7.742-1.01,11.637,2.064,11.637c3.221,0,6.247-4.913,8.214-12.967
			c1.826-7.69,0.963-11.217-2.113-11.217C50.958,7.254,47.737,11.526,45.722,19.801z"/>
		<path fill="#ED4C5C" d="M48.6,49.686c-5.724,0-35.563,2.348-47.318,3.314c-0.802-3.045,0.245-5.75,1.601-7.064
			c5.904-1.111,45.164-4.144,48.119-2.413C50.509,45.666,49.647,48.373,48.6,49.686z"/>
	</g>
	<path fill="#ED4C5C" d="M43.585,61.632c-5.845,0-24.456,1.296-36.459,2.368c-0.817-3.391,0.252-6.386,1.634-7.844
		c6.032-1.234,34.259-3.293,37.277-1.372C45.534,57.167,44.653,60.171,43.585,61.632z"/>
</g>
</svg>
