<?xml version="1.0" encoding="utf-8"?>
<!-- Generator: Adobe Illustrator 15.0.0, SVG Export Plug-In . SVG Version: 6.00 Build 0)  -->
<!DOCTYPE svg PUBLIC "-//W3C//DTD SVG 1.1//EN" "http://www.w3.org/Graphics/SVG/1.1/DTD/svg11.dtd">
<svg version="1.1" id="Layer_1" xmlns="http://www.w3.org/2000/svg" xmlns:xlink="http://www.w3.org/1999/xlink" x="0px" y="0px"
	 width="64px" height="64px" viewBox="0 0 64 64" enable-background="new 0 0 64 64" xml:space="preserve">
<g>
	<g>
		<g>
			<path fill="#FFDD67" d="M2.13,42.28C1.205,35.445,5.417,24.426,7.381,9.614c0.352-2.652,14.029-5.439,20.39-5.439
				c1.65,0,3.023,7.516,2.609,10.132c-0.299,1.899-2.961,1.398-2.961,1.398c-0.9,2.524-3.561,1.544-3.561,1.544
				c-0.779,2.15-3.201,1.148-3.201,1.148c-1,2.003-3.221,1.022-3.221,1.022c-2.002,8.722,1.711,7.944,4.42,21.167
				c0,0,0.76-0.136,2.885-4.448c8.602-17.454,38.805-11.872,37.012,6.799c-0.4,4.173,3.953,10.966-12.285,16.068
				c-12.885,4.049-28.73-3.715-28.73-3.715c-5.402,1.67-15.88,1.56-16.19-2.459C4.189,48.167,2.606,45.793,2.13,42.28z"/>
		</g>
		<g>
			<path fill="#EBA352" d="M61.754,42.937c0.426-4.427-0.906-8.009-3.26-10.714c1.426,2.4,2.146,5.318,1.818,8.739
				c-0.4,4.173,3.953,10.965-12.285,16.068c-12.885,4.048-28.732-3.715-28.732-3.715c-4.219,1.304-11.606,1.526-14.729-0.357
				c0.411,3.9,10.827,3.984,16.172,2.333c0,0,15.846,7.764,28.73,3.715C65.707,53.902,61.354,47.109,61.754,42.937z"/>
		</g>
		<g>
			<path fill="#EBA352" d="M16.262,19.301c-2.527,10.281,1.555,9.837,4.281,22.87l1.439-1.502
				c-1.998-13.034-5.445-11.462-4.602-21.133C16.756,19.516,16.262,19.301,16.262,19.301z"/>
		</g>
		<path fill="#EBA352" d="M56.256,47.797c-13.235,17.098-23.269-1.294-36.082-3.958C33.418,41.128,40.057,56.92,56.256,47.797
			C55.74,48.463,55.514,48.215,56.256,47.797z"/>
		<path fill="#EBA352" d="M25.094,7.014C24.504,5.89,23.301,6,22.496,6.342C22.598,5.168,25.549,4.263,25.094,7.014z"/>
		<path fill="#EBA352" d="M31.171,11.365c-0.251-2.213-1.01-4.403-2.349-6.196c0.714,1.878,1.072,3.882,1.078,5.89
			c0.002,0.902,0.211,4.116-1.377,3.697c-0.979-0.258-1.005-1.101-1.282-1.969c-0.433-1.358-1.191-2.923-1.099-4.364
			c-0.373,1.414,0.072,3.112,0.236,4.546c0.095,0.833,0.71,3.084-0.384,3.392c-0.603,0.173-1.302-0.224-1.803-0.516
			c-0.19-0.112-0.332-0.932-0.402-1.161c-0.43-1.408-1.202-3.025-1.103-4.503c-0.377,1.333-0.011,2.938,0.108,4.304
			c0.074,0.845,0.53,2.682-0.489,3.108c-1.158,0.564-1.335-0.807-1.549-1.524c-0.398-1.334-1.044-2.792-1.027-4.191
			c-0.403,1.703,0.07,3.698,0.149,5.443c0.04,0.868-1.903,1.649-2.628,1.105c-1.137-0.853-1.328-2.852-1.457-4.143
			c0.342,0.434,0.831,0.993,1.447,0.938c-0.527-0.561-0.75-1.524-1.102-2.205c-0.324-0.561-0.98-1.895-1.752-1.917
			c0.119,0.24,0.768,1.888,0.668,2.061c-0.313,0.546-0.617,1.099-0.968,1.621c-0.296,0.44-1.157,1.839-1.853,1.417
			c-0.753-0.457-0.996-1.719-1.223-2.491c0.058,0.979,0.029,2.538,0.998,3.126c0.919,0.558,1.965-0.323,2.574-0.951
			c0.208,2.053,1.065,4.729,3.617,4.557c0.539-0.036,1.067-0.207,1.555-0.435c0.402-0.188,0.856-0.662,1.278-0.534
			c1.068,0.323,2.218,0.115,2.983-0.732c0.357-0.396,0.261-0.641,0.795-0.508c0.568,0.128,1.156,0.154,1.721-0.01
			c0.461-0.123,0.876-0.41,1.188-0.768c0.18-0.204,0.316-0.436,0.424-0.685c0.172-0.396,0.368-0.187,0.768-0.202
			C31.504,16.465,31.416,13.229,31.171,11.365C30.916,9.121,31.245,11.929,31.171,11.365z"/>
	</g>
	<path fill="#EBA352" d="M28.746,5.635c-0.59-1.124-1.793-1.015-2.599-0.672C26.25,3.79,29.2,2.884,28.746,5.635z"/>
	<path fill="#EBA352" d="M22.178,8.535c-0.59-1.124-1.793-1.015-2.599-0.672C19.682,6.689,22.632,5.784,22.178,8.535z"/>
	<path fill="#EBA352" d="M18.807,10.123c-0.59-1.124-1.793-1.015-2.599-0.672C16.311,8.277,19.261,7.372,18.807,10.123z"/>
</g>
</svg>
