<?xml version="1.0" encoding="utf-8"?>
<!-- Generator: Adobe Illustrator 15.0.0, SVG Export Plug-In . SVG Version: 6.00 Build 0)  -->
<!DOCTYPE svg PUBLIC "-//W3C//DTD SVG 1.1//EN" "http://www.w3.org/Graphics/SVG/1.1/DTD/svg11.dtd">
<svg version="1.1" id="Layer_1" xmlns="http://www.w3.org/2000/svg" xmlns:xlink="http://www.w3.org/1999/xlink" x="0px" y="0px"
	 width="64px" height="64px" viewBox="0 0 64 64" enable-background="new 0 0 64 64" xml:space="preserve">
<g>
	<path fill="#FFFFFF" d="M57.653,32.182c3.629-2.596,5.227-5.607,5.311-8.577c-1.928,0.43-3.964-0.516-4.87-2.418
		c-0.901-1.907-0.37-4.134,1.158-5.424c-1.245-0.946-2.769-1.546-4.563-1.701c0.433-2.363,0.114-4.424-0.776-6.14
		c-1.474,1.333-3.702,1.536-5.398,0.343c-1.695-1.192-2.294-3.375-1.587-5.244c-2.188-0.275-4.532,0.329-6.873,2.063
		c-0.954-1.906-2.266-3.247-3.805-4.073c-0.471,1.97-2.188,3.436-4.25,3.436c-2.064,0-3.781-1.468-4.25-3.438
		c-1.541,0.827-2.854,2.167-3.808,4.072c-2.341-1.731-4.684-2.334-6.868-2.059c0.71,1.869,0.106,4.052-1.589,5.244
		c-1.697,1.193-3.925,0.991-5.398-0.343c-0.891,1.716-1.21,3.777-0.778,6.14c-1.792,0.155-3.315,0.755-4.561,1.701
		c1.524,1.291,2.058,3.518,1.158,5.424c-0.908,1.902-2.942,2.848-4.87,2.418c0.085,2.97,1.682,5.981,5.311,8.577
		c-3.629,2.565-5.227,5.542-5.311,8.476C2.964,40.234,5,41.17,5.906,43.049c0.901,1.885,0.37,4.086-1.158,5.361
		c1.264,0.949,2.813,1.547,4.641,1.689c-0.552,2.568-0.244,4.795,0.698,6.633c1.474-1.35,3.702-1.555,5.398-0.348
		c1.695,1.205,2.294,3.414,1.587,5.307c2.263,0.287,4.692-0.367,7.113-2.264c0.929,1.643,2.152,2.813,3.564,3.563
		c0.471-1.947,2.188-3.396,4.25-3.396c2.064,0,3.781,1.451,4.25,3.4c1.414-0.75,2.638-1.922,3.567-3.563
		c2.42,1.893,4.849,2.547,7.108,2.26c-0.71-1.893-0.106-4.102,1.589-5.307c1.697-1.207,3.925-1.002,5.398,0.348
		c0.942-1.838,1.251-4.064,0.699-6.633c1.827-0.143,3.376-0.74,4.64-1.689c-1.524-1.275-2.058-3.477-1.158-5.361
		c0.908-1.879,2.942-2.814,4.87-2.391C62.879,37.725,61.282,34.748,57.653,32.182z"/>
	<path fill="#ED4C5C" d="M59.34,32.189c3.627-2.988,4.59-6.161,4.66-8.549c0.007-0.313-0.13-0.611-0.378-0.811
		c-0.245-0.198-0.572-0.273-0.885-0.205c-1.492,0.33-3.035-0.448-3.706-1.857c-0.692-1.46-0.324-3.2,0.895-4.231
		c0.232-0.198,0.365-0.489,0.357-0.793c-0.007-0.304-0.153-0.587-0.398-0.774c-1.179-0.894-2.533-1.474-4.024-1.752
		c0.242-2.424-0.298-4.335-1.024-5.737c-0.144-0.282-0.421-0.48-0.74-0.536c-0.319-0.054-0.646,0.038-0.885,0.253
		c-1.117,1.009-2.853,1.131-4.089,0.265c-1.291-0.905-1.795-2.588-1.229-4.091c0.108-0.285,0.075-0.603-0.086-0.862
		c-0.164-0.26-0.438-0.434-0.748-0.473c-0.382-0.047-0.773-0.073-1.158-0.073c-1.493,0-3.394,0.378-5.48,1.664
		c-1.101-1.751-2.44-2.835-3.676-3.498c-0.283-0.151-0.622-0.166-0.916-0.036c-0.293,0.129-0.512,0.386-0.584,0.694
		C34.873,2.348,33.541,3.439,32,3.439s-2.875-1.092-3.245-2.655c-0.072-0.309-0.288-0.566-0.584-0.694
		c-0.296-0.131-0.633-0.117-0.918,0.036c-1.235,0.663-2.575,1.747-3.677,3.498c-2.086-1.283-3.985-1.662-5.478-1.662
		c-0.385,0-0.776,0.025-1.156,0.073c-0.313,0.039-0.587,0.213-0.75,0.474c-0.161,0.259-0.194,0.577-0.087,0.862
		c0.567,1.502,0.063,3.185-1.228,4.09c-1.236,0.869-2.972,0.743-4.09-0.265c-0.237-0.215-0.564-0.307-0.884-0.253
		c-0.32,0.056-0.599,0.254-0.741,0.536c-0.728,1.402-1.267,3.313-1.024,5.737c-1.492,0.278-2.845,0.858-4.022,1.752
		c-0.246,0.187-0.39,0.47-0.399,0.773c-0.007,0.304,0.122,0.595,0.355,0.794c1.222,1.032,1.589,2.772,0.896,4.229
		c-0.67,1.412-2.228,2.189-3.706,1.859c-0.308-0.069-0.638,0.007-0.885,0.205C0.13,23.028-0.007,23.328,0,23.64
		c0.07,2.388,1.033,5.561,4.66,8.549c-3.627,2.954-4.589,6.088-4.66,8.45c-0.007,0.307,0.13,0.604,0.378,0.799
		c0.245,0.197,0.572,0.271,0.885,0.203c1.492-0.326,3.035,0.443,3.706,1.836c0.692,1.443,0.324,3.162-0.895,4.182
		c-0.232,0.195-0.365,0.484-0.357,0.783c0.007,0.301,0.153,0.582,0.398,0.766c1.191,0.893,2.567,1.455,4.078,1.723
		c-0.36,2.672,0.2,4.756,0.971,6.262c0.144,0.285,0.421,0.486,0.74,0.543c0.319,0.055,0.646-0.039,0.885-0.256
		c1.117-1.021,2.853-1.145,4.089-0.268c1.291,0.916,1.795,2.617,1.229,4.139c-0.108,0.289-0.075,0.609,0.086,0.873
		c0.164,0.264,0.438,0.439,0.748,0.479c0.382,0.049,0.773,0.072,1.158,0.072c1.571,0,3.591-0.414,5.806-1.883
		c1.034,1.453,2.234,2.391,3.351,2.984c0.283,0.148,0.622,0.164,0.916,0.035c0.293-0.129,0.512-0.381,0.584-0.686
		c0.372-1.545,1.704-2.623,3.245-2.623s2.875,1.08,3.245,2.625c0.072,0.305,0.288,0.559,0.584,0.686
		c0.296,0.129,0.633,0.115,0.918-0.035c1.116-0.594,2.316-1.531,3.351-2.984c2.215,1.467,4.233,1.881,5.804,1.881
		c0.385,0,0.776-0.023,1.156-0.072c0.313-0.039,0.587-0.217,0.75-0.479c0.161-0.264,0.194-0.584,0.087-0.873
		c-0.567-1.52-0.063-3.223,1.228-4.139c1.236-0.879,2.972-0.752,4.09,0.268c0.237,0.217,0.564,0.311,0.884,0.256
		c0.32-0.057,0.599-0.258,0.741-0.543c0.771-1.506,1.332-3.59,0.971-6.26c1.512-0.27,2.887-0.832,4.076-1.725
		c0.246-0.184,0.39-0.465,0.399-0.764c0.007-0.301-0.122-0.588-0.355-0.785c-1.222-1.02-1.589-2.738-0.896-4.18
		c0.67-1.395,2.228-2.164,3.706-1.838c0.308,0.068,0.638-0.006,0.885-0.203c0.248-0.195,0.385-0.492,0.378-0.799
		C63.929,38.277,62.967,35.143,59.34,32.189z M45.642,3.967c-0.24,1.964,0.604,3.943,2.267,5.114
		c0.911,0.639,1.977,0.977,3.084,0.977c0.866,0,1.704-0.206,2.46-0.593c0.368,1.099,0.462,2.296,0.329,3.563
		c-2.497-0.001-5.3,0.735-8.303,2.235c-1.067,0.531-2.132,1.234-3.19,2.104c0.306-1.373,0.459-2.675,0.459-3.899
		c0-3.434-0.555-6.038-1.393-8.03C42.762,4.53,44.2,4.021,45.642,3.967z M10.546,9.465c1.726,0.883,3.926,0.755,5.545-0.384
		c1.664-1.171,2.508-3.15,2.27-5.114c1.44,0.053,2.876,0.562,4.282,1.468c-0.839,1.993-1.395,4.598-1.395,8.033
		c0,1.223,0.156,2.526,0.461,3.898c-1.06-0.87-2.125-1.573-3.189-2.104c-3.001-1.499-5.804-2.236-8.301-2.235
		C10.085,11.761,10.179,10.564,10.546,9.465z M8.604,48.979c-0.822-0.141-1.591-0.385-2.289-0.756
		c1.175-1.594,1.413-3.74,0.526-5.59c-0.878-1.826-2.651-2.986-4.661-3.064c0.403-2.248,1.835-4.314,4.189-6.127
		c0.808,0.533,1.704,1.059,2.719,1.564c2.322,1.16,5.26,1.813,8.74,1.949c-2.728,1.785-4.81,3.725-6.199,5.787
		C10.067,45.059,9.125,47.133,8.604,48.979z M36.767,61.475C35.841,59.732,34.033,58.6,32,58.6c-2.036,0-3.842,1.133-4.765,2.873
		c-0.651-0.496-1.217-1.115-1.708-1.834c1.243-1.09,2.524-2.529,3.807-4.43c1.123-1.666,2.015-3.732,2.666-6.182
		c0.651,2.447,1.541,4.516,2.663,6.184c1.283,1.902,2.565,3.342,3.81,4.432C37.982,60.359,37.418,60.977,36.767,61.475z
		 M53.454,55.182c-1.726-0.893-3.926-0.764-5.545,0.389c-1.664,1.186-2.508,3.188-2.27,5.174c-3.202-0.119-6.395-2.412-9.255-6.65
		c-1.74-2.584-2.87-6.316-3.358-11.096c-0.053-0.518-0.497-0.912-1.026-0.912c-0.528,0-0.974,0.395-1.026,0.91
		c-0.49,4.781-1.62,8.516-3.36,11.096c-2.858,4.24-6.053,6.533-9.255,6.652c0.24-1.986-0.604-3.988-2.267-5.174
		c-0.911-0.646-1.977-0.988-3.084-0.988c-0.866,0-1.704,0.207-2.46,0.6c-1.043-3.15-0.084-7.035,2.806-11.322
		c1.719-2.557,4.688-4.934,8.815-7.07c0.433-0.223,0.642-0.709,0.512-1.168c-0.133-0.461-0.597-0.768-1.058-0.738
		c-4.837,0.291-8.789-0.279-11.601-1.682c-4.575-2.283-7.263-5.196-7.842-8.479c2.007-0.08,3.781-1.253,4.661-3.103
		c0.887-1.87,0.649-4.041-0.526-5.654c2.839-1.532,6.745-1.154,11.273,1.103c1.815,0.907,3.669,2.419,5.51,4.493
		c0.327,0.372,0.883,0.456,1.308,0.204c0.428-0.253,0.61-0.771,0.436-1.229c-1.015-2.608-1.529-4.987-1.529-7.068
		c0-5.192,1.354-8.931,3.921-10.913C28.159,4.318,29.967,5.464,32,5.464c2.036,0,3.842-1.145,4.765-2.906
		c2.569,1.979,3.921,5.718,3.921,10.91c0,2.083-0.515,4.462-1.529,7.069c-0.178,0.458,0.005,0.977,0.433,1.229
		c0.428,0.251,0.98,0.167,1.313-0.204c1.839-2.075,3.692-3.587,5.51-4.495c4.523-2.257,8.433-2.635,11.273-1.103
		c-1.175,1.613-1.413,3.784-0.526,5.656c0.878,1.849,2.651,3.021,4.661,3.101c-0.582,3.283-3.267,6.196-7.844,8.479
		c-2.814,1.402-6.767,1.973-11.598,1.682c-0.462-0.029-0.929,0.277-1.059,0.738c-0.132,0.459,0.082,0.945,0.51,1.168
		c4.13,2.135,7.099,4.514,8.82,7.07C53.536,48.146,54.495,52.031,53.454,55.182z M57.158,42.635
		c-0.887,1.848-0.649,3.992,0.526,5.588c-0.697,0.371-1.467,0.615-2.289,0.756c-0.521-1.846-1.463-3.92-3.025-6.236
		c-1.392-2.063-3.469-4.002-6.199-5.787c3.48-0.137,6.416-0.789,8.74-1.949c1.016-0.506,1.912-1.029,2.721-1.564
		c2.354,1.811,3.786,3.879,4.188,6.127C59.813,39.646,58.038,40.807,57.158,42.635z"/>
</g>
</svg>
