<?xml version="1.0" encoding="utf-8"?>
<!-- Generator: Adobe Illustrator 15.0.0, SVG Export Plug-In . SVG Version: 6.00 Build 0)  -->
<!DOCTYPE svg PUBLIC "-//W3C//DTD SVG 1.1//EN" "http://www.w3.org/Graphics/SVG/1.1/DTD/svg11.dtd">
<svg version="1.1" id="Layer_1" xmlns="http://www.w3.org/2000/svg" xmlns:xlink="http://www.w3.org/1999/xlink" x="0px" y="0px"
	 width="64px" height="64px" viewBox="0 0 64 64" enable-background="new 0 0 64 64" xml:space="preserve">
<g>
	<g>
		<path fill="#89664C" d="M32.206,36.887C15.146,36.887,2,29.789,2,45.728C2,58.456,18.892,62,31.789,62
			C46.773,62,62,58.456,62,45.728C62,29.789,49.839,36.887,32.206,36.887z"/>
		<path fill="#9B7861" d="M31.729,20.879c-9.553,0-24.502,1.116-24.502,12.621c0,16.826,49.545,16.826,49.545,0
			C56.772,21.995,41.884,20.879,31.729,20.879z"/>
		<path fill="#A88673" d="M49.011,16.7C44.353,6.36,22.644,17.006,26.373,4.474c0.562-1.888,0.539-2.713-0.896-2.414
			C17.665,3.681,12.04,11.726,14.02,18.379C20.396,39.812,55.297,30.652,49.011,16.7z"/>
	</g>
	<g>
		<path fill="#FFFFFF" d="M28.847,34.318c0,3.98-3.226,7.205-7.202,7.205c-3.979,0-7.205-3.225-7.205-7.205
			c0-3.974,3.226-7.202,7.205-7.202C25.621,27.116,28.847,30.345,28.847,34.318z"/>
		<circle cx="23.633" cy="34.322" r="3.604"/>
	</g>
	<g>
		<path fill="#FFFFFF" d="M49.562,34.318c0,3.98-3.229,7.205-7.204,7.205c-3.98,0-7.203-3.225-7.203-7.205
			c0-3.974,3.223-7.202,7.203-7.202C46.333,27.116,49.562,30.345,49.562,34.318z"/>
		<circle cx="40.368" cy="34.322" r="3.603"/>
	</g>
	<path d="M38,50.632c0,3.316-2.688,6-5.999,6c-3.316,0-6.001-2.684-6.001-6c0-3.311,2.685-6,6.001-6
		C35.313,44.632,38,47.321,38,50.632z"/>
</g>
</svg>
