<?xml version="1.0" encoding="utf-8"?>
<!-- Generator: Adobe Illustrator 15.0.0, SVG Export Plug-In . SVG Version: 6.00 Build 0)  -->
<!DOCTYPE svg PUBLIC "-//W3C//DTD SVG 1.1//EN" "http://www.w3.org/Graphics/SVG/1.1/DTD/svg11.dtd">
<svg version="1.1" id="Layer_1" xmlns="http://www.w3.org/2000/svg" xmlns:xlink="http://www.w3.org/1999/xlink" x="0px" y="0px"
	 width="64px" height="64px" viewBox="0 0 64 64" enable-background="new 0 0 64 64" xml:space="preserve">
<g>
	<g>
		<path fill="#D3976E" d="M13.805,22.549c-4.364-4.432-5.766-8.101-4.163-10.905c3.149-5.517,18.019-5.485,30.411-2.653
			l-0.429,1.826c-11.626-2.655-25.763-2.743-28.328,1.748c-1.418,2.483,1.321,6.088,3.869,8.676L13.805,22.549z"/>
	</g>
	<g>
		<g>
			<g>
				<g>
					<path fill="#FFCE31" d="M41.246,11.293c-0.981,0.966-1.961,1.935-2.94,2.901c-0.862,0.852,0.475,2.172,1.336,1.32
						c0.981-0.968,1.961-1.935,2.939-2.902C43.446,11.76,42.106,10.441,41.246,11.293L41.246,11.293z"/>
				</g>
			</g>
		</g>
		<g>
			<g>
				<g>
					<path fill="#FFCE31" d="M46.762,8.487c0.97-0.957,1.94-1.916,2.91-2.874c0.862-0.852-0.475-2.171-1.337-1.319
						c-0.971,0.958-1.941,1.916-2.911,2.873C44.56,8.02,45.897,9.339,46.762,8.487L46.762,8.487z"/>
				</g>
			</g>
		</g>
		<g>
			<g>
				<g>
					<path fill="#FFCE31" d="M45.395,12.612c0.981,0.968,1.961,1.935,2.94,2.901c0.862,0.853,2.199-0.468,1.337-1.319
						c-0.981-0.967-1.958-1.935-2.94-2.901C45.872,10.441,44.532,11.76,45.395,12.612L45.395,12.612z"/>
				</g>
			</g>
		</g>
		<g>
			<g>
				<g>
					<path fill="#FFCE31" d="M38.306,5.613c0.971,0.958,1.941,1.917,2.91,2.874c0.865,0.852,2.203-0.467,1.34-1.319
						c-0.971-0.958-1.941-1.917-2.914-2.874C38.78,3.441,37.443,4.762,38.306,5.613L38.306,5.613z"/>
				</g>
			</g>
		</g>
		<g>
			<g>
				<g>
					<path fill="#ED4C5C" d="M43.042,14.016c0,0.962,0,1.926,0,2.889c0,1.203,1.893,1.203,1.893,0c0-0.963,0-1.927,0-2.889
						C44.935,12.812,43.042,12.812,43.042,14.016L43.042,14.016z"/>
				</g>
			</g>
		</g>
		<g>
			<g>
				<g>
					<path fill="#ED4C5C" d="M43.042,2.903c0,0.949,0,1.899,0,2.848c0,1.204,1.893,1.204,1.893,0c0-0.949,0-1.899,0-2.848
						C44.935,1.699,43.042,1.699,43.042,2.903L43.042,2.903z"/>
				</g>
			</g>
		</g>
		<g>
			<g>
				<g>
					<path fill="#ED4C5C" d="M48.175,10.837c0.969,0,1.936,0,2.905,0c1.22,0,1.22-1.867,0-1.867c-0.97,0-1.937,0-2.905,0
						C46.956,8.971,46.956,10.837,48.175,10.837L48.175,10.837z"/>
				</g>
			</g>
		</g>
	</g>
	<g>
		<g>
			<path fill="#3E4347" d="M10.663,24.159l6.009-5.929l3.777,3.731c3.535-2.356,7.796-3.731,12.383-3.731
				c12.247,0,22.169,9.797,22.169,21.884C55.001,52.2,45.079,62,32.832,62c-12.243,0-22.169-9.8-22.169-21.886
				c0-4.528,1.396-8.733,3.779-12.225L10.663,24.159z"/>
		</g>
	</g>
</g>
</svg>
