<?xml version="1.0" encoding="utf-8"?>
<!-- Generator: Adobe Illustrator 15.0.0, SVG Export Plug-In . SVG Version: 6.00 Build 0)  -->
<!DOCTYPE svg PUBLIC "-//W3C//DTD SVG 1.1//EN" "http://www.w3.org/Graphics/SVG/1.1/DTD/svg11.dtd">
<svg version="1.1" id="Layer_1" xmlns="http://www.w3.org/2000/svg" xmlns:xlink="http://www.w3.org/1999/xlink" x="0px" y="0px"
	 width="64px" height="64px" viewBox="0 0 64 64" enable-background="new 0 0 64 64" xml:space="preserve">
<g>
	<g>
		<path fill="#FFDD7D" d="M59.682,13.796c1.718-5.236,1.227-14.88-16.584-3.181C24.952,22.534,6.238,50.334,7.613,55.358
			c1.09,3.98,17.274-5.045,26.008-17.191c0.745-1.035,8.662,8.766,7.578,9.842C33.364,55.795,8.256,65.698,3.004,60.602
			C-3.102,54.675,19.68,20.809,43.062,7.335C49.547,3.598,68.556-5.247,59.682,13.796L59.682,13.796z"/>
	</g>
	<g>
		<path fill="#FFD05A" d="M60.613,49.489l-13.892-1.535l-9.118,10.584l-2.854-13.705l-12.874-5.428l12.113-6.925l1.171-13.943
			l10.345,9.41l13.599-3.18l-5.733,12.746L60.613,49.489z"/>
	</g>
</g>
</svg>
