<?xml version="1.0" encoding="utf-8"?>
<!-- Generator: Adobe Illustrator 15.0.0, SVG Export Plug-In . SVG Version: 6.00 Build 0)  -->
<!DOCTYPE svg PUBLIC "-//W3C//DTD SVG 1.1//EN" "http://www.w3.org/Graphics/SVG/1.1/DTD/svg11.dtd">
<svg version="1.1" id="Layer_1" xmlns="http://www.w3.org/2000/svg" xmlns:xlink="http://www.w3.org/1999/xlink" x="0px" y="0px"
	 width="64px" height="64px" viewBox="0 0 64 64" enable-background="new 0 0 64 64" xml:space="preserve">
<g>
	<g>
		<g>
			<path fill="#FFE1BD" d="M2.13,42.28C1.205,35.445,5.417,24.426,7.381,9.613c0.352-2.652,14.028-5.439,20.391-5.439
				c1.648,0,3.023,7.516,2.609,10.132c-0.301,1.899-2.961,1.398-2.961,1.398c-0.9,2.524-3.561,1.544-3.561,1.544
				c-0.781,2.15-3.203,1.148-3.203,1.148c-1,2.003-3.221,1.022-3.221,1.022c-2.002,8.722,1.713,7.944,4.42,21.167
				c0,0,0.76-0.136,2.885-4.448c8.602-17.454,38.807-11.872,37.014,6.799c-0.4,4.173,3.953,10.966-12.285,16.068
				c-12.887,4.049-28.732-3.715-28.732-3.715c-5.402,1.67-15.879,1.56-16.189-2.459C4.189,48.167,2.606,45.793,2.13,42.28z"/>
		</g>
		<g>
			<path fill="#E6B796" d="M61.755,42.937c0.426-4.427-0.906-8.009-3.26-10.715c1.426,2.4,2.146,5.318,1.818,8.739
				c-0.4,4.173,3.953,10.965-12.285,16.068c-12.887,4.048-28.732-3.715-28.732-3.715c-4.219,1.304-11.607,1.526-14.73-0.357
				c0.411,3.9,10.828,3.984,16.171,2.333c0,0,15.846,7.764,28.732,3.715C65.708,53.902,61.354,47.109,61.755,42.937z"/>
		</g>
		<g>
			<path fill="#E6B796" d="M16.263,19.301c-2.527,10.281,1.553,9.837,4.279,22.87l1.439-1.502
				c-1.998-13.034-5.445-11.463-4.602-21.134C16.757,19.516,16.263,19.301,16.263,19.301z"/>
		</g>
		<path fill="#E6B796" d="M56.257,47.797c-13.236,17.097-23.27-1.294-36.084-3.958C33.418,41.128,40.058,56.92,56.257,47.797
			C55.741,48.463,55.515,48.215,56.257,47.797z"/>
		<path fill="#E6B796" d="M25.095,7.014c-0.591-1.124-1.794-1.015-2.6-0.672C22.598,5.168,25.548,4.263,25.095,7.014z"/>
		<path fill="#E6B796" d="M31.171,11.364c-0.252-2.213-1.01-4.403-2.35-6.196c0.715,1.878,1.073,3.882,1.079,5.89
			c0.003,0.902,0.211,4.116-1.378,3.697c-0.979-0.258-1.004-1.101-1.281-1.969c-0.434-1.358-1.191-2.923-1.1-4.364
			c-0.373,1.414,0.072,3.112,0.236,4.546c0.096,0.833,0.711,3.084-0.383,3.392c-0.604,0.173-1.302-0.224-1.803-0.516
			c-0.191-0.112-0.332-0.932-0.402-1.161c-0.43-1.408-1.201-3.025-1.102-4.503c-0.379,1.333-0.012,2.938,0.107,4.304
			c0.074,0.845,0.53,2.682-0.488,3.108c-1.159,0.564-1.336-0.807-1.551-1.524c-0.397-1.334-1.043-2.792-1.025-4.191
			c-0.404,1.703,0.068,3.698,0.148,5.443c0.04,0.868-1.904,1.649-2.628,1.105c-1.136-0.853-1.327-2.852-1.457-4.143
			c0.342,0.434,0.831,0.993,1.448,0.938c-0.527-0.561-0.751-1.524-1.104-2.205c-0.323-0.561-0.979-1.895-1.752-1.917
			c0.12,0.24,0.77,1.888,0.67,2.061c-0.314,0.546-0.618,1.099-0.969,1.621c-0.296,0.44-1.156,1.839-1.853,1.417
			c-0.753-0.457-0.996-1.719-1.224-2.491c0.059,0.979,0.03,2.538,1,3.126c0.918,0.558,1.965-0.323,2.572-0.951
			c0.209,2.053,1.066,4.729,3.619,4.557c0.539-0.036,1.066-0.207,1.554-0.435c0.402-0.188,0.856-0.662,1.278-0.534
			c1.068,0.323,2.218,0.115,2.984-0.732c0.357-0.396,0.26-0.641,0.795-0.508c0.568,0.128,1.155,0.154,1.721-0.01
			c0.46-0.123,0.875-0.41,1.188-0.768c0.178-0.204,0.314-0.436,0.422-0.685c0.172-0.396,0.369-0.187,0.77-0.202
			C31.504,16.465,31.416,13.229,31.171,11.364C30.916,9.12,31.245,11.929,31.171,11.364z"/>
	</g>
	<path fill="#E6B796" d="M28.746,5.635c-0.591-1.124-1.794-1.015-2.599-0.672C26.249,3.789,29.2,2.884,28.746,5.635z"/>
	<path fill="#E6B796" d="M22.178,8.534c-0.591-1.124-1.794-1.015-2.599-0.672C19.681,6.688,22.632,5.783,22.178,8.534z"/>
	<path fill="#E6B796" d="M18.807,10.122c-0.591-1.124-1.794-1.015-2.599-0.672C16.31,8.276,19.261,7.371,18.807,10.122z"/>
</g>
</svg>
