<?xml version="1.0" encoding="utf-8"?>
<!-- Generator: Adobe Illustrator 15.0.0, SVG Export Plug-In . SVG Version: 6.00 Build 0)  -->
<!DOCTYPE svg PUBLIC "-//W3C//DTD SVG 1.1//EN" "http://www.w3.org/Graphics/SVG/1.1/DTD/svg11.dtd">
<svg version="1.1" id="Layer_1" xmlns="http://www.w3.org/2000/svg" xmlns:xlink="http://www.w3.org/1999/xlink" x="0px" y="0px"
	 width="64px" height="64px" viewBox="0 0 64 64" enable-background="new 0 0 64 64" xml:space="preserve">
<g>
	<g>
		<g>
			<path fill="#8A6859" d="M2.13,42.28C1.205,35.445,5.417,24.426,7.38,9.613c0.352-2.652,14.029-5.439,20.39-5.439
				c1.65,0,3.023,7.516,2.609,10.132c-0.299,1.899-2.961,1.398-2.961,1.398c-0.9,2.524-3.561,1.544-3.561,1.544
				c-0.779,2.15-3.201,1.148-3.201,1.148c-1,2.003-3.221,1.022-3.221,1.022c-2.002,8.722,1.711,7.944,4.42,21.167
				c0,0,0.76-0.136,2.885-4.448c8.602-17.454,38.807-11.872,37.014,6.799c-0.4,4.173,3.953,10.966-12.285,16.068
				c-12.887,4.049-28.732-3.715-28.732-3.715c-5.402,1.67-15.88,1.56-16.189-2.459C4.189,48.167,2.605,45.793,2.13,42.28z"/>
		</g>
		<g>
			<path fill="#705041" d="M61.755,42.937c0.426-4.427-0.906-8.009-3.26-10.715c1.426,2.4,2.146,5.318,1.818,8.739
				c-0.4,4.173,3.953,10.965-12.285,16.068c-12.887,4.048-28.734-3.715-28.734-3.715c-4.219,1.304-11.605,1.526-14.728-0.357
				c0.41,3.9,10.826,3.984,16.171,2.333c0,0,15.846,7.764,28.732,3.715C65.708,53.902,61.354,47.109,61.755,42.937z"/>
		</g>
		<g>
			<path fill="#705041" d="M16.261,19.301c-2.527,10.281,1.555,9.837,4.281,22.87l1.439-1.502
				c-1.998-13.034-5.445-11.463-4.602-21.134C16.755,19.516,16.261,19.301,16.261,19.301z"/>
		</g>
		<path fill="#705041" d="M56.257,47.797c-13.236,17.097-23.27-1.294-36.084-3.958C33.417,41.128,40.058,56.92,56.257,47.797
			C55.741,48.463,55.515,48.215,56.257,47.797z"/>
		<path fill="#705041" d="M25.093,7.014c-0.59-1.124-1.793-1.015-2.598-0.672C22.597,5.168,25.548,4.263,25.093,7.014z"/>
		<path fill="#705041" d="M31.171,11.364c-0.252-2.213-1.01-4.403-2.35-6.196c0.715,1.878,1.072,3.882,1.078,5.89
			c0.002,0.902,0.211,4.116-1.377,3.697c-0.979-0.258-1.004-1.101-1.281-1.969c-0.434-1.358-1.191-2.923-1.1-4.364
			c-0.373,1.414,0.072,3.112,0.236,4.546c0.096,0.833,0.711,3.084-0.383,3.392c-0.604,0.173-1.303-0.224-1.803-0.516
			c-0.191-0.112-0.332-0.932-0.402-1.161c-0.43-1.408-1.203-3.025-1.104-4.503c-0.377,1.333-0.01,2.938,0.109,4.304
			c0.074,0.845,0.529,2.682-0.49,3.108c-1.158,0.564-1.334-0.807-1.549-1.524c-0.398-1.334-1.043-2.792-1.027-4.191
			c-0.402,1.703,0.07,3.698,0.15,5.443c0.039,0.868-1.904,1.649-2.629,1.105c-1.137-0.853-1.328-2.852-1.457-4.143
			c0.342,0.434,0.832,0.993,1.447,0.938c-0.527-0.561-0.75-1.524-1.102-2.205c-0.324-0.561-0.98-1.895-1.752-1.917
			c0.119,0.24,0.768,1.888,0.668,2.061c-0.313,0.546-0.617,1.099-0.967,1.621c-0.297,0.44-1.158,1.839-1.854,1.417
			c-0.752-0.457-0.996-1.719-1.223-2.491c0.059,0.979,0.029,2.538,0.998,3.126c0.92,0.558,1.965-0.323,2.574-0.951
			c0.209,2.053,1.066,4.729,3.617,4.557c0.539-0.036,1.068-0.207,1.555-0.435c0.402-0.188,0.857-0.662,1.279-0.534
			c1.068,0.323,2.217,0.115,2.982-0.732c0.357-0.396,0.262-0.641,0.795-0.508c0.568,0.128,1.156,0.154,1.721-0.01
			c0.461-0.123,0.877-0.41,1.188-0.768c0.18-0.204,0.316-0.436,0.424-0.685c0.172-0.396,0.369-0.187,0.768-0.202
			C31.503,16.465,31.415,13.229,31.171,11.364C30.915,9.12,31.245,11.929,31.171,11.364z"/>
	</g>
	<path fill="#705041" d="M28.745,5.635c-0.59-1.124-1.793-1.015-2.598-0.672C26.249,3.789,29.2,2.884,28.745,5.635z"/>
	<path fill="#705041" d="M22.177,8.534c-0.59-1.124-1.793-1.015-2.598-0.672C19.681,6.688,22.632,5.783,22.177,8.534z"/>
	<path fill="#705041" d="M18.806,10.122c-0.59-1.124-1.793-1.015-2.598-0.672C16.31,8.276,19.261,7.371,18.806,10.122z"/>
</g>
</svg>
