<?xml version="1.0" encoding="utf-8"?>
<!-- Generator: Adobe Illustrator 15.0.0, SVG Export Plug-In . SVG Version: 6.00 Build 0)  -->
<!DOCTYPE svg PUBLIC "-//W3C//DTD SVG 1.1//EN" "http://www.w3.org/Graphics/SVG/1.1/DTD/svg11.dtd">
<svg version="1.1" id="Layer_1" xmlns="http://www.w3.org/2000/svg" xmlns:xlink="http://www.w3.org/1999/xlink" x="0px" y="0px"
	 width="64px" height="64px" viewBox="0 0 64 64" enable-background="new 0 0 64 64" xml:space="preserve">
<g>
	<path fill="#42ADE2" d="M17.135,52.21l-4.745,3.982l0.144-9.838c0.002-0.158-0.054-0.313-0.156-0.434l-2.101-2.504
		c-0.235-0.281-0.652-0.318-0.932-0.082l-9.108,7.643c-0.28,0.234-0.316,0.652-0.082,0.932l2.058,2.451
		c0.234,0.281,0.651,0.316,0.933,0.082l4.212-3.535l-0.062,10.08c-0.002,0.158,0.053,0.311,0.153,0.43l1.969,2.346
		c0.235,0.281,0.652,0.316,0.933,0.082l9.71-8.148c0.28-0.234,0.317-0.652,0.082-0.932l-2.075-2.473
		C17.832,52.013,17.415,51.976,17.135,52.21z"/>
	<path fill="#42ADE2" d="M36.295,33.632l-6.896,3.98l2.377-12.423c0.036-0.2,0.003-0.407-0.1-0.585l-2.102-3.639
		c-0.234-0.407-0.756-0.547-1.162-0.313l-13.238,7.643c-0.408,0.236-0.547,0.756-0.312,1.164l2.057,3.563
		c0.235,0.406,0.755,0.547,1.163,0.311l6.122-3.533l-2.329,12.748c-0.037,0.199-0.002,0.404,0.099,0.578l1.969,3.41
		c0.235,0.408,0.756,0.547,1.163,0.311l14.114-8.148c0.408-0.234,0.547-0.754,0.312-1.162l-2.075-3.594
		C37.223,33.536,36.703,33.396,36.295,33.632z"/>
	<path fill="#42ADE2" d="M61.153,15.779l-8.314,3.026l4.999-13.136c0.079-0.212,0.081-0.445,0.003-0.659l-1.597-4.388
		c-0.179-0.491-0.721-0.744-1.211-0.565L39.072,5.866c-0.492,0.18-0.745,0.722-0.566,1.213l1.564,4.296
		c0.178,0.49,0.72,0.744,1.212,0.564l7.381-2.687l-5.008,13.502c-0.078,0.209-0.08,0.441-0.003,0.652l1.496,4.11
		c0.179,0.492,0.722,0.744,1.212,0.566l17.017-6.194c0.491-0.179,0.744-0.722,0.565-1.213l-1.577-4.332
		C62.187,15.853,61.645,15.6,61.153,15.779z"/>
	<g>
		<polygon fill="#6ADBC6" points="54.719,44.029 51.887,38.363 49.052,44.029 43.389,46.861 49.052,49.692 51.887,55.359 
			54.719,49.692 60.385,46.861 		"/>
		
			<rect x="48.882" y="43.857" transform="matrix(-0.7071 0.7071 -0.7071 -0.7071 121.7121 43.3078)" fill="#FFFFFF" width="6.009" height="6.009"/>
	</g>
	<g>
		<polygon fill="#6ADBC6" points="6.542,32.384 4.906,29.111 3.27,32.384 0,34.019 3.27,35.653 4.906,38.925 6.542,35.653 
			9.813,34.019 		"/>
		
			<rect x="3.171" y="32.284" transform="matrix(-0.707 0.7072 -0.7072 -0.707 32.4343 54.5986)" fill="#FFFFFF" width="3.47" height="3.47"/>
	</g>
	<g>
		<polygon fill="#6ADBC6" points="19.973,4.428 17.91,0.3 15.845,4.428 11.72,6.49 15.845,8.553 17.91,12.68 19.973,8.553 
			24.1,6.49 		"/>
		
			<rect x="15.721" y="4.302" transform="matrix(-0.7071 0.7072 -0.7072 -0.7071 35.1619 -1.5857)" fill="#FFFFFF" width="4.377" height="4.377"/>
	</g>
</g>
</svg>
