<?xml version="1.0" encoding="utf-8"?>
<!-- Generator: Adobe Illustrator 15.0.0, SVG Export Plug-In . SVG Version: 6.00 Build 0)  -->
<!DOCTYPE svg PUBLIC "-//W3C//DTD SVG 1.1//EN" "http://www.w3.org/Graphics/SVG/1.1/DTD/svg11.dtd">
<svg version="1.1" id="Layer_1" xmlns="http://www.w3.org/2000/svg" xmlns:xlink="http://www.w3.org/1999/xlink" x="0px" y="0px"
	 width="64px" height="64px" viewBox="0 0 64 64" enable-background="new 0 0 64 64" xml:space="preserve">
<g>
	<g>
		<path fill="#D0D0D0" d="M17.838,48.926c-3.481-1.129-7.033,0.33-7.934,3.26c-0.901,2.932,1.191,6.225,4.674,7.355
			s7.033-0.33,7.936-3.262C23.413,53.35,21.32,50.057,17.838,48.926z"/>
		<path fill="#D0D0D0" d="M4.992,58.477c-1.185,0.932-1.313,2.807-0.283,4.189c1.027,1.383,2.821,1.75,4.006,0.818
			c1.185-0.93,1.313-2.807,0.285-4.189S6.178,57.547,4.992,58.477z"/>
	</g>
	<path fill="#D0D0D0" d="M64,22.032c0-2.863-1.344-5.404-3.418-6.994c0.016-0.204,0.025-0.409,0.025-0.617
		c0-4.509-3.555-8.163-7.939-8.163c-0.277,0-0.55,0.015-0.818,0.043c-1.666-2.909-4.743-4.862-8.266-4.862
		c-2.08,0-4.004,0.681-5.574,1.837C36.025,1.251,33.293,0,30.275,0c-4.914,0-9.074,3.318-10.477,7.896
		c-1.648-1.172-3.647-1.859-5.803-1.859c-5.638,0-10.207,4.698-10.207,10.494c0,1.711,0.398,3.325,1.104,4.751
		C1.933,23.439,0,26.991,0,31.006c0,6.578,5.186,11.91,11.584,11.91c2.354,0,4.542-0.721,6.37-1.961
		c0.987,5.041,5.317,8.838,10.513,8.838c3.865,0,7.252-2.102,9.14-5.254c1.301,1.33,3.094,2.152,5.073,2.152
		c3.762,0,6.848-2.969,7.166-6.752c0.881,0.328,1.831,0.506,2.822,0.506c4.592,0,8.314-3.826,8.314-8.546
		c0-0.99-0.166-1.941-0.467-2.824C62.627,27.489,64,24.926,64,22.032z"/>
</g>
</svg>
