<?xml version="1.0" encoding="utf-8"?>
<!-- Generator: Adobe Illustrator 15.0.0, SVG Export Plug-In . SVG Version: 6.00 Build 0)  -->
<!DOCTYPE svg PUBLIC "-//W3C//DTD SVG 1.1//EN" "http://www.w3.org/Graphics/SVG/1.1/DTD/svg11.dtd">
<svg version="1.1" id="Layer_1" xmlns="http://www.w3.org/2000/svg" xmlns:xlink="http://www.w3.org/1999/xlink" x="0px" y="0px"
	 width="64px" height="64px" viewBox="0 0 64 64" enable-background="new 0 0 64 64" xml:space="preserve">
<g>
	<path fill="#FFCE31" d="M24.938,48h14.125c0.838-4.313,3.513-8.505,6.315-12.898C48.632,29.999,52,24.716,52,19.586
		C52,9.889,43.027,2,32,2S12,9.889,12,19.586c0,5.13,3.368,10.413,6.621,15.516C21.425,39.495,24.103,43.688,24.938,48z"/>
	<path fill="#94989B" d="M26.449,33.595c0.144,0.596,0.273,1.193,0.425,1.772c0.265,1.091,0.522,2.147,0.771,3.169
		c0.92,3.758,1.73,6.987,2.371,9.464h0.594c-0.526-2.513-1.244-5.799-2.105-9.628c-0.232-1.021-0.473-2.086-0.72-3.178
		c-0.131-0.534-0.244-1.076-0.368-1.632c0.832-0.183,2.653-0.803,4.584-2.889c1.932,2.085,3.752,2.706,4.584,2.889
		c-0.124,0.556-0.237,1.098-0.368,1.632c-0.247,1.092-0.487,2.156-0.719,3.178c-0.862,3.829-1.58,7.115-2.106,9.628h0.594
		c0.642-2.477,1.451-5.706,2.372-9.464c0.246-1.021,0.505-2.078,0.771-3.169c0.149-0.579,0.28-1.177,0.424-1.772
		c0.756-0.051,1.479-0.287,2.043-0.804c0.578-0.569,0.88-1.314,0.744-2.107c-0.061-0.38-0.345-0.872-0.896-1.041
		c-0.254-0.083-0.508-0.101-0.832-0.018c-0.268,0.102-0.464,0.251-0.598,0.396c-0.533,0.592-0.726,1.183-0.945,1.769
		c-0.101,0.295-0.186,0.589-0.265,0.88c0,0-0.85,0.066-2.668-1.157c-1.01-0.679-1.302-1.171-1.595-1.496
		c0.316-0.351,0.619-0.736,0.854-1.203c0.124-0.26,0.23-0.543,0.266-0.862c0.034-0.318-0.023-0.679-0.205-0.989
		c-0.183-0.305-0.444-0.587-0.866-0.759c-0.182-0.066-0.385-0.096-0.588-0.096s-0.407,0.03-0.588,0.096
		c-0.422,0.171-0.684,0.454-0.866,0.759c-0.182,0.311-0.24,0.671-0.205,0.989c0.037,0.318,0.142,0.602,0.267,0.862
		c0.234,0.467,0.538,0.852,0.854,1.203c-0.293,0.325-0.586,0.816-1.595,1.496c-1.818,1.223-2.669,1.157-2.669,1.157
		c-0.078-0.291-0.163-0.585-0.264-0.88c-0.22-0.586-0.411-1.177-0.945-1.769c-0.134-0.145-0.33-0.294-0.598-0.396
		c-0.324-0.083-0.578-0.065-0.832,0.018c-0.552,0.168-0.836,0.66-0.896,1.041c-0.136,0.793,0.166,1.538,0.744,2.107
		C24.973,33.308,25.694,33.544,26.449,33.595z M37.989,32.051c0.189-0.527,0.43-1.099,0.758-1.443
		c0.077-0.087,0.158-0.123,0.198-0.146c0,0.003,0.098-0.012,0.16,0.018c0.112,0.028,0.217,0.143,0.258,0.364
		c0.08,0.428-0.122,0.98-0.49,1.325c-0.258,0.246-0.655,0.417-1.074,0.496C37.858,32.459,37.919,32.251,37.989,32.051z
		 M31.397,27.347c0.164-0.248,0.38-0.388,0.603-0.388s0.438,0.141,0.604,0.388c0.195,0.31,0.127,0.732-0.064,1.145
		C32.4,28.784,32.207,29.062,32,29.33c-0.208-0.269-0.4-0.546-0.539-0.838C31.27,28.079,31.201,27.657,31.397,27.347z
		 M24.637,30.844c0.041-0.221,0.146-0.336,0.259-0.364c0.062-0.03,0.16-0.015,0.16-0.018c0.039,0.023,0.12,0.059,0.195,0.146
		c0.33,0.344,0.57,0.917,0.76,1.443c0.07,0.2,0.13,0.408,0.189,0.613c-0.418-0.078-0.816-0.25-1.073-0.496
		C24.759,31.824,24.557,31.271,24.637,30.844z"/>
	<rect x="24.852" y="49.958" fill="#94989B" width="14.338" height="1.84"/>
	<rect x="25.852" y="53.638" fill="#94989B" width="12.338" height="1.84"/>
	<polygon fill="#94989B" points="39.189,49.958 25.852,53.638 25.852,55.478 39.189,51.798 	"/>
	<rect x="26.852" y="57.317" fill="#94989B" width="10.338" height="1.84"/>
	<polygon fill="#94989B" points="38.189,53.638 26.852,57.317 26.852,59.157 38.189,55.478 	"/>
	<path fill="#94989B" d="M28,58c0,2.209,1.791,4,4,4s4-1.791,4-4H28z"/>
</g>
</svg>
