<?xml version="1.0" encoding="utf-8"?>
<!-- Generator: Adobe Illustrator 15.0.0, SVG Export Plug-In . SVG Version: 6.00 Build 0)  -->
<!DOCTYPE svg PUBLIC "-//W3C//DTD SVG 1.1//EN" "http://www.w3.org/Graphics/SVG/1.1/DTD/svg11.dtd">
<svg version="1.1" id="Layer_1" xmlns="http://www.w3.org/2000/svg" xmlns:xlink="http://www.w3.org/1999/xlink" x="0px" y="0px"
	 width="64px" height="64px" viewBox="0 0 64 64" enable-background="new 0 0 64 64" xml:space="preserve">
<g>
	<path fill="#C94747" d="M25.084,1.676c0.627,6.313,5.464,12.434,12.518,14.954c7.078,2.622,14.774,0.993,19.303-3.515
		c0.487-0.472,0.552-1.186,0.196-1.737c-0.356-0.552-1.034-0.819-1.682-0.661c-4.724,1.176-10.386,1.855-15.644-0.063
		c-5.262-1.909-9.162-6.069-12.027-10.006c-0.081-0.112-0.177-0.209-0.28-0.293c-0.006-0.005-0.013-0.011-0.019-0.016
		c-0.634-0.5-1.551-0.446-2.069,0.15C25.093,0.822,24.997,1.257,25.084,1.676z"/>
	<path fill="#C94747" d="M38.916,62.324c-0.627-6.313-5.464-12.434-12.518-14.954c-7.078-2.622-14.774-0.993-19.304,3.515
		c-0.486,0.472-0.551,1.186-0.195,1.737c0.356,0.552,1.033,0.819,1.682,0.661c4.724-1.176,10.386-1.855,15.644,0.063
		c5.262,1.909,9.162,6.069,12.027,10.006c0.081,0.112,0.177,0.209,0.28,0.293c0.006,0.005,0.013,0.011,0.019,0.016
		c0.634,0.5,1.551,0.446,2.069-0.15C38.906,63.178,39.003,62.743,38.916,62.324z"/>
	<path fill="#C94747" d="M62.324,25.084c-6.313,0.627-12.434,5.464-14.955,12.518c-2.621,7.078-0.992,14.774,3.516,19.304
		c0.472,0.486,1.186,0.551,1.737,0.195c0.552-0.356,0.819-1.033,0.661-1.682c-1.176-4.724-1.855-10.386,0.063-15.644
		c1.909-5.262,6.068-9.162,10.006-12.027c0.112-0.081,0.209-0.177,0.293-0.28c0.005-0.006,0.011-0.013,0.016-0.019
		c0.5-0.634,0.446-1.551-0.15-2.069C63.178,25.093,62.742,24.997,62.324,25.084z"/>
	<path fill="#C94747" d="M1.676,38.915c6.313-0.627,12.434-5.463,14.954-12.517c2.622-7.078,0.993-14.774-3.515-19.304
		c-0.472-0.486-1.186-0.551-1.737-0.195c-0.552,0.356-0.819,1.034-0.661,1.682c1.176,4.724,1.855,10.386-0.063,15.644
		c-1.909,5.262-6.069,9.162-10.006,12.027c-0.112,0.081-0.209,0.177-0.293,0.28c-0.005,0.006-0.011,0.013-0.016,0.019
		c-0.5,0.634-0.446,1.551,0.15,2.069C0.822,38.907,1.257,39.003,1.676,38.915z"/>
</g>
</svg>
