<?xml version="1.0" encoding="utf-8"?>
<!-- Generator: Adobe Illustrator 15.0.0, SVG Export Plug-In . SVG Version: 6.00 Build 0)  -->
<!DOCTYPE svg PUBLIC "-//W3C//DTD SVG 1.1//EN" "http://www.w3.org/Graphics/SVG/1.1/DTD/svg11.dtd">
<svg version="1.1" id="Layer_1" xmlns="http://www.w3.org/2000/svg" xmlns:xlink="http://www.w3.org/1999/xlink" x="0px" y="0px"
	 width="64px" height="64px" viewBox="0 0 64 64" enable-background="new 0 0 64 64" xml:space="preserve">
<g>
	<g>
		<ellipse fill="#7CA7BF" cx="51.49" cy="34.629" rx="10.51" ry="11.769"/>
		<ellipse fill="#7CA7BF" cx="30.669" cy="42.426" rx="9.816" ry="10.993"/>
		<ellipse fill="#7CA7BF" cx="43.802" cy="47.13" rx="11.493" ry="12.87"/>
		<ellipse fill="#7CA7BF" cx="39.56" cy="29.761" rx="9.873" ry="11.056"/>
		<ellipse fill="#7CA7BF" cx="41.617" cy="15.056" rx="9.872" ry="11.056"/>
		<ellipse fill="#7CA7BF" cx="50.416" cy="20.784" rx="8.015" ry="8.975"/>
		<ellipse fill="#7CA7BF" cx="30.669" cy="20.785" rx="10.272" ry="11.503"/>
		<g>
			<path fill="#7CA7BF" d="M7.191,27.428c2.887-0.573,5.675-1.563,8.412-2.726c1.368-0.584,2.721-1.217,4.059-1.891
				c1.323-0.673,2.693-1.398,3.908-2.145c1.687-1.036,3.653,0.042,4.391,2.408c0.739,2.365-0.029,5.126-1.715,6.162
				c-0.396,0.244-0.806,0.37-1.213,0.392h-0.076c-1.589,0.078-3.043,0.038-4.552-0.018c-1.495-0.067-2.982-0.178-4.465-0.348
				C12.981,28.922,10.031,28.382,7.191,27.428z"/>
			<path fill="#7CA7BF" d="M2.01,32.224c3.75-0.327,7.439-1.051,11.085-1.994c1.823-0.47,3.634-1.003,5.43-1.585
				c1.781-0.583,3.611-1.22,5.287-1.914c1.75-0.727,3.589,0.673,4.106,3.13c0.517,2.458-0.481,5.037-2.232,5.764
				c-0.312,0.129-0.627,0.191-0.938,0.191l-0.033-0.002c-2.01-0.013-3.88-0.146-5.805-0.313c-1.908-0.172-3.81-0.398-5.701-0.688
				C9.428,34.232,5.67,33.419,2.01,32.224z"/>
			<path fill="#7CA7BF" d="M7.181,42.521c2.824-0.959,5.719-1.663,8.626-2.25c1.454-0.291,2.915-0.547,4.381-0.774
				c1.475-0.226,2.917-0.433,4.45-0.581l0.041-0.006c1.835-0.176,3.425,1.77,3.551,4.347c0.126,2.573-1.26,4.806-3.095,4.982
				c-0.43,0.044-0.858-0.038-1.246-0.209c-1.303-0.588-2.703-1.145-4.071-1.675c-1.377-0.529-2.764-1.03-4.159-1.502
				C12.871,43.916,10.055,43.09,7.181,42.521z"/>
			<path fill="#7CA7BF" d="M2,37.727c3.656-1.198,7.373-2.155,11.112-2.973c1.87-0.405,3.748-0.774,5.63-1.106
				c1.893-0.331,3.753-0.638,5.707-0.879h0.01c1.818-0.226,3.421,1.661,3.581,4.213c0.161,2.55-1.184,4.799-3.002,5.023
				c-0.324,0.042-0.655,0.008-0.959-0.079c-1.755-0.509-3.607-0.971-5.427-1.4c-1.829-0.429-3.667-0.826-5.51-1.184
				C9.456,38.627,5.745,38.054,2,37.727z"/>
		</g>
	</g>
	<g>
		<path fill="#FFFFFF" d="M42.915,29.128c3.567,3.738,5.621,8.571,6.244,13.864c3.015-6.568,2.608-13.783-1.63-18.224
			c-4.104-4.301-10.668-4.837-16.759-2.014C35.391,23.567,39.604,25.654,42.915,29.128z"/>
		<path fill="#FFFFFF" d="M34.463,15.999c2.218,2.323,3.492,5.328,3.881,8.616c1.873-4.081,1.621-8.565-1.015-11.326
			c-2.549-2.672-6.628-3.006-10.413-1.25C29.787,12.544,32.406,13.842,34.463,15.999z"/>
		<path fill="#FFFFFF" d="M52.743,17.542c1.442,1.512,2.271,3.468,2.525,5.61c1.22-2.657,1.054-5.576-0.66-7.374
			c-1.659-1.738-4.314-1.955-6.778-0.814C49.699,15.294,51.402,16.139,52.743,17.542z"/>
		<path fill="#FFFFFF" d="M35.289,37.641c2.069,2.17,3.259,4.971,3.621,8.045c1.749-3.812,1.513-7.998-0.946-10.576
			c-2.38-2.495-6.188-2.804-9.722-1.165C30.923,34.416,33.367,35.626,35.289,37.641z"/>
		<path fill="#FFFFFF" d="M54.676,30.689c2.218,2.323,3.492,5.327,3.881,8.616c1.873-4.081,1.621-8.563-1.014-11.326
			c-2.55-2.672-6.629-3.006-10.413-1.25C50,27.235,52.619,28.532,54.676,30.689z"/>
		<path fill="#FFFFFF" d="M44.336,11.615c2.218,2.323,3.492,5.327,3.881,8.616c1.873-4.081,1.621-8.565-1.015-11.326
			c-2.549-2.672-6.628-3.006-10.412-1.25C39.66,8.16,42.279,9.458,44.336,11.615z"/>
	</g>
</g>
</svg>
