<?xml version="1.0" encoding="utf-8"?>
<!-- Generator: Adobe Illustrator 15.0.0, SVG Export Plug-In . SVG Version: 6.00 Build 0)  -->
<!DOCTYPE svg PUBLIC "-//W3C//DTD SVG 1.1//EN" "http://www.w3.org/Graphics/SVG/1.1/DTD/svg11.dtd">
<svg version="1.1" id="Layer_1" xmlns="http://www.w3.org/2000/svg" xmlns:xlink="http://www.w3.org/1999/xlink" x="0px" y="0px"
	 width="64px" height="64px" viewBox="0 0 64 64" enable-background="new 0 0 64 64" xml:space="preserve">
<g>
	<path fill="#83BF4F" d="M50,28H14c-3.314,0-6-2.687-6-6s2.686-6,6-6h36c3.314,0,6,2.687,6,6h8c0-7.732-6.268-14-14-14H36V0h-8v8H14
		C6.268,8,0,14.268,0,22s6.268,14,14,14h36c3.314,0,6,2.687,6,6c0,3.314-2.686,6.002-6,6.002V48H14v0.002c-3.314,0-6-2.688-6-6.002
		H0c0,7.732,6.268,14,14,14h14v8h8v-8h14c7.732,0,14-6.268,14-14S57.732,28,50,28z"/>
</g>
</svg>
