<?xml version="1.0" encoding="utf-8"?>
<!-- Generator: Adobe Illustrator 15.0.0, SVG Export Plug-In . SVG Version: 6.00 Build 0)  -->
<!DOCTYPE svg PUBLIC "-//W3C//DTD SVG 1.1//EN" "http://www.w3.org/Graphics/SVG/1.1/DTD/svg11.dtd">
<svg version="1.1" id="Layer_1" xmlns="http://www.w3.org/2000/svg" xmlns:xlink="http://www.w3.org/1999/xlink" x="0px" y="0px"
	 width="64px" height="64px" viewBox="0 0 64 64" enable-background="new 0 0 64 64" xml:space="preserve">
<g>
	<rect y="46.5" fill="#89664C" width="64" height="9"/>
	<rect y="8.5" fill="#D3976E" width="64" height="38"/>
	<rect x="24" y="46.5" fill="#94989B" width="16" height="9"/>
	<rect x="4" y="12.5" fill="#89664C" width="56" height="30"/>
	<rect x="7" y="15.5" fill="#D3976E" width="50" height="24"/>
	<circle fill="#89664C" cx="45" cy="27.499" r="8"/>
	<rect x="24" y="8.5" fill="#D0D0D0" width="16" height="38"/>
	<polygon fill="#FFFFFF" points="22,21.212 20.787,19.5 16,24.079 11.213,19.5 10,21.212 14.498,25.516 12.185,25.516 
		12.185,27.735 15.047,27.735 15.047,29.954 12.185,29.954 12.185,32.17 15.047,32.17 15.047,35.498 16.954,35.498 16.954,32.17 
		19.814,32.17 19.814,29.954 16.954,29.954 16.954,27.735 19.814,27.735 19.814,25.516 17.502,25.516 	"/>
</g>
</svg>
