<?xml version="1.0" encoding="utf-8"?>
<!-- Generator: Adobe Illustrator 15.0.0, SVG Export Plug-In . SVG Version: 6.00 Build 0)  -->
<!DOCTYPE svg PUBLIC "-//W3C//DTD SVG 1.1//EN" "http://www.w3.org/Graphics/SVG/1.1/DTD/svg11.dtd">
<svg version="1.1" id="Layer_1" xmlns="http://www.w3.org/2000/svg" xmlns:xlink="http://www.w3.org/1999/xlink" x="0px" y="0px"
	 width="64px" height="64px" viewBox="0 0 64 64" enable-background="new 0 0 64 64" xml:space="preserve">
<g>
	<path fill="#3E4347" d="M63.999,57.599c0,3.534-2.864,6.399-6.4,6.399H6.399c-3.533,0-6.4-2.865-6.4-6.399v-51.2
		c0-3.534,2.867-6.4,6.4-6.4h51.199c3.536,0,6.4,2.866,6.4,6.4V57.599z"/>
	<g>
		<circle fill="#42ADE2" cx="31.999" cy="31.998" r="32"/>
		<g>
			<path fill="#FFFFFF" d="M31.999,40.372c-4.616,0-8.373-3.757-8.373-8.374s3.757-8.373,8.373-8.373
				c4.619,0,8.375,3.756,8.375,8.373S36.618,40.372,31.999,40.372z"/>
		</g>
	</g>
	<path fill="#3E4347" d="M38.399,23.998c-3.533,0-6.4,2.866-6.4,6.4v3.2c0,3.534,2.867,6.399,6.4,6.399h25.6v-16H38.399z"/>
</g>
</svg>
