<?xml version="1.0" encoding="utf-8"?>
<!-- Generator: Adobe Illustrator 15.0.0, SVG Export Plug-In . SVG Version: 6.00 Build 0)  -->
<!DOCTYPE svg PUBLIC "-//W3C//DTD SVG 1.1//EN" "http://www.w3.org/Graphics/SVG/1.1/DTD/svg11.dtd">
<svg version="1.1" id="Layer_1" xmlns="http://www.w3.org/2000/svg" xmlns:xlink="http://www.w3.org/1999/xlink" x="0px" y="0px"
	 width="64px" height="64px" viewBox="0 0 64 64" enable-background="new 0 0 64 64" xml:space="preserve">
<g>
	<rect y="46.5" fill="#428BC1" width="64" height="9"/>
	<rect y="8.5" fill="#42ADE2" width="64" height="38"/>
	<rect x="24" y="46.5" fill="#94989B" width="16" height="9"/>
	<rect x="4" y="12.5" fill="#428BC1" width="56" height="30"/>
	<rect x="7" y="15.5" fill="#42ADE2" width="50" height="24"/>
	<circle fill="#428BC1" cx="45" cy="27.5" r="8"/>
	<rect x="24" y="8.5" fill="#D0D0D0" width="16" height="38"/>
	<path fill="#FFFFFF" d="M19.338,33.5c-2.236,0-4.188-1.208-5.238-3h6.674V28.5h-7.402c-0.055-0.326-0.09-0.658-0.09-1
		s0.035-0.674,0.09-1h7.402v-2H14.1c1.051-1.791,3.002-3,5.238-3c0.408,0,0.814,0.04,1.211,0.119L21,19.664
		c-0.543-0.109-1.104-0.164-1.662-0.164c-3.434,0-6.375,2.072-7.594,5H9v2h2.211c-0.041,0.328-0.07,0.66-0.07,1s0.029,0.672,0.07,1
		H9V30.5h2.744c1.219,2.927,4.16,5,7.594,5c0.559,0,1.119-0.055,1.662-0.164l-0.451-1.955C20.152,33.459,19.746,33.5,19.338,33.5z"
		/>
</g>
</svg>
