<?xml version="1.0" encoding="utf-8"?>
<!-- Generator: Adobe Illustrator 15.0.0, SVG Export Plug-In . SVG Version: 6.00 Build 0)  -->
<!DOCTYPE svg PUBLIC "-//W3C//DTD SVG 1.1//EN" "http://www.w3.org/Graphics/SVG/1.1/DTD/svg11.dtd">
<svg version="1.1" id="Layer_1" xmlns="http://www.w3.org/2000/svg" xmlns:xlink="http://www.w3.org/1999/xlink" x="0px" y="0px"
	 width="64px" height="64px" viewBox="0 0 64 64" enable-background="new 0 0 64 64" xml:space="preserve">
<g>
	<path fill="#3E4347" d="M61.293,9.292l-6.586-6.586C54.318,2.318,53.55,2,53,2H9v4H5V2H3C2.45,2,2,2.45,2,3v58c0,0.549,0.45,1,1,1
		h58c0.55,0,1-0.451,1-1V11C62,10.45,61.682,9.681,61.293,9.292z"/>
	<g>
		<path fill="#FFFFFF" d="M12,62V33.999c0-1.099,0.9-2,2-2h36c1.1,0,2,0.9,2,2V62H12z"/>
		<path fill="#E8E8E8" d="M18,2v20c0,1.1,0.9,2,2,2h30c1.1,0,2-0.9,2-2V2H18z"/>
		<rect x="36" y="6" fill="#3E4347" width="10" height="16"/>
		<path fill="#FFFFFF" d="M59,56c0-0.551-0.45-1-1-1h-2c-0.55,0-1,0.449-1,1v2c0,0.549,0.45,1,1,1h2c0.55,0,1-0.451,1-1V56z"/>
		<rect x="12" y="54" fill="#F15744" width="40" height="8"/>
		<rect x="17" y="35.999" fill="#F15744" width="30" height="2.001"/>
		<rect x="17" y="42" fill="#F15744" width="30" height="2"/>
		<rect x="17" y="48" fill="#F15744" width="30" height="2"/>
	</g>
</g>
</svg>
