<?xml version="1.0" encoding="utf-8"?>
<!-- Generator: Adobe Illustrator 15.0.0, SVG Export Plug-In . SVG Version: 6.00 Build 0)  -->
<!DOCTYPE svg PUBLIC "-//W3C//DTD SVG 1.1//EN" "http://www.w3.org/Graphics/SVG/1.1/DTD/svg11.dtd">
<svg version="1.1" id="Layer_1" xmlns="http://www.w3.org/2000/svg" xmlns:xlink="http://www.w3.org/1999/xlink" x="0px" y="0px"
	 width="64px" height="64px" viewBox="0 0 64 64" enable-background="new 0 0 64 64" xml:space="preserve">
<g>
	<g>
		<path fill="#699635" d="M60.974,20.949C54.783,15.297,48.592,9.645,42.4,3.99c-9.064,13.814-24.47,26.111-39.133,34.969
			C2.868,40.819,2.445,42.653,2,44.454C8.404,50.305,14.809,56.151,21.213,62C36.343,53.721,52.299,41.931,62,28.539
			C61.689,26.031,61.348,23.501,60.974,20.949z"/>
		<g>
			<path fill="#83BF4F" d="M22.407,54.558C16.095,48.792,9.783,43.031,3.47,37.265C19.152,28.404,32.385,16.319,42.09,2
				c6.313,5.764,12.625,11.527,18.938,17.293C51.323,33.61,38.089,45.696,22.407,54.558z"/>
			<g>
				<path fill="#699635" d="M20.811,50.779c-4.208-3.843-8.417-7.685-12.624-11.529c0.259-0.15,0.516-0.304,0.775-0.456
					c0.849-0.504,0.965-1.444,0.27-2.079c-0.209-0.193-0.421-0.387-0.631-0.58C21.322,28.31,32.282,18.303,40.852,6.686
					c0.211,0.191,0.422,0.385,0.633,0.575c0.695,0.637,1.727,0.528,2.28-0.247c0.166-0.234,0.333-0.471,0.501-0.707
					c4.206,3.843,8.415,7.686,12.624,11.527c-0.167,0.236-0.334,0.472-0.501,0.707c-0.554,0.777-0.452,1.918,0.245,2.555
					c0.211,0.193,0.422,0.385,0.632,0.576c-8.57,11.617-19.53,21.625-32.253,29.453c-0.212-0.193-0.421-0.386-0.631-0.58
					c-0.695-0.634-1.946-0.729-2.796-0.224C21.327,50.478,21.07,50.628,20.811,50.779z M10.913,39.412
					c3.419,3.121,6.84,6.246,10.259,9.368c1.306-0.441,2.842-0.336,4.002,0.299c11.646-7.388,21.762-16.626,29.855-27.261
					c-0.696-1.059-0.813-2.461-0.33-3.655c-3.42-3.122-6.84-6.245-10.259-9.368c-0.943,0.776-2.222,0.9-3.297,0.341
					C33.048,19.77,22.931,29.01,11.285,36.4C11.897,37.382,11.76,38.551,10.913,39.412z"/>
			</g>
			<g>
				<path fill="#699635" d="M20.048,37.277c1.088-0.41,2.332-0.286,3.103,0.42c-0.546,0.394-1.095,0.782-1.646,1.17
					c-0.234-0.215-0.652-0.215-0.948-0.01c-0.294,0.202-0.36,0.539-0.136,0.742c0.227,0.208,0.664,0.211,0.958,0.008
					c1.221-0.841,2.912-0.854,3.845-0.005c0.742,0.681,0.77,1.699,0.119,2.508c0.183,0.171,0.367,0.339,0.553,0.506
					c-0.492,0.346-0.987,0.686-1.485,1.023c-0.194-0.175-0.384-0.352-0.576-0.527c-1.063,0.342-2.277,0.176-2.992-0.476
					c0.563-0.368,1.121-0.744,1.676-1.119c0.227,0.204,0.665,0.207,0.959,0.004c0.295-0.202,0.343-0.54,0.116-0.748
					c-0.226-0.204-0.645-0.204-0.939-0.003c-0.693,0.479-1.582,0.672-2.382,0.583c-0.601-0.063-1.14-0.278-1.541-0.646
					c-0.72-0.655-0.723-1.603-0.138-2.381c-0.166-0.148-0.331-0.301-0.495-0.45c0.497-0.34,0.993-0.681,1.486-1.026
					C19.738,36.995,19.894,37.135,20.048,37.277z"/>
			</g>
			<g>
				<path fill="#699635" d="M43.154,15.869c0.872-0.605,1.956-0.619,2.729,0.086c-0.406,0.516-0.818,1.029-1.234,1.538
					c-0.233-0.214-0.592-0.159-0.817,0.108c-0.221,0.27-0.229,0.661-0.003,0.867s0.604,0.154,0.826-0.115
					c0.921-1.111,2.371-1.34,3.305-0.489c0.74,0.677,0.922,1.835,0.487,2.839c0.184,0.168,0.368,0.336,0.553,0.504
					c-0.369,0.456-0.744,0.906-1.122,1.355c-0.192-0.174-0.385-0.35-0.577-0.525c-0.863,0.524-1.936,0.492-2.649-0.159
					c0.428-0.495,0.854-0.993,1.275-1.495c0.225,0.206,0.604,0.154,0.826-0.115c0.222-0.269,0.212-0.659-0.016-0.866
					c-0.225-0.206-0.586-0.154-0.809,0.115c-0.523,0.634-1.261,0.97-1.965,0.971c-0.527,0.009-1.022-0.171-1.423-0.537
					c-0.722-0.657-0.866-1.736-0.48-2.7c-0.166-0.148-0.33-0.3-0.496-0.451c0.378-0.449,0.754-0.899,1.122-1.355
					C42.842,15.584,42.997,15.727,43.154,15.869z"/>
			</g>
			<path fill="#699635" d="M40.172,35.514c-3.219,2.947-8.579,2.813-11.714-0.049c-3.142-2.868-2.87-7.381,0.349-10.328
				c3.228-2.938,8.17-3.189,11.312-0.318C43.252,27.679,43.398,32.572,40.172,35.514z"/>
		</g>
		<path fill="#FFDD7D" d="M21.842,24.465L40.78,41.756c2.151-1.823,4.229-3.722,6.228-5.686L28.073,18.776
			C26.072,20.742,23.995,22.64,21.842,24.465z"/>
		<path fill="#DBB471" d="M40.844,49.358c2.135-1.617,4.214-3.294,6.23-5.021v-8.332c-2,1.968-4.078,3.87-6.23,5.695V49.358z"/>
	</g>
	<path fill="#8D9998" d="M12.07,24.746c1.086-0.41,2.016-1.014,2.898-1.692c0.877-0.686,1.719-1.431,2.588-2.174
		c0.881-0.727,1.789-1.466,2.84-2.023c1.029-0.561,2.262-0.932,3.419-0.717c-1.146,0.212-2.111,0.744-3.009,1.381
		c-0.895,0.647-1.738,1.385-2.607,2.125c-0.879,0.724-1.778,1.465-2.798,2.055C14.395,24.291,13.241,24.747,12.07,24.746z"/>
	<g>
		<g>
			<path fill="none" stroke="#B2C1C0" stroke-miterlimit="10" d="M55.168,47.459"/>
		</g>
		<g>
			<path fill="#E8E8E8" d="M39.809,33.099c0,0,4.922,1.371,16.33-1.614c11.404-2.988,6.01,29.808-14.807,29.808
				c-2.256,0-2.361-2.909,3.986-8.105c0,0-8.998,2.122-5.094-4.553c0,0-6.375,1.127-3.463-3.996c0,0,1.332-3.776,0.141-8.117
				C36.902,36.521,37.615,34.267,39.809,33.099z"/>
		</g>
		<g>
			<path fill="#D1D1D1" d="M61.492,34.66c0.234,8.832-6.778,23.393-20.652,23.393c-0.057,0-0.107-0.011-0.162-0.014
				c-1.316,2.117-0.747,3.253,0.662,3.253C57.105,61.292,64.017,42.49,61.492,34.66z"/>
		</g>
		<g>
			<path fill="#D1D1D1" d="M54.299,39.477c-2.999,10.77-14.99,11.748-15.045,11.745c-0.544,2.253,0.496,3.336,1.754,3.336
				C45.508,54.558,53.654,47.287,54.299,39.477z"/>
		</g>
		<g>
			<path fill="#D1D1D1" d="M45.861,39.477c-7.104,10.04-9.595,6.341-9.649,6.338c-1.825,3.952,2.866,4.047,3.724,3.129
				C42.32,46.392,46.029,41.204,45.861,39.477z"/>
		</g>
		<path fill="#8D9998" d="M40.453,58.409c1.232-1.596,2.732-2.902,4.225-4.224c1.508-1.307,3.041-2.605,4.492-4.02
			c1.435-1.424,2.809-2.973,3.801-4.787c1.01-1.791,1.538-3.892,1.328-5.902c-0.188,2.013-0.939,3.869-2,5.504
			c-1.068,1.636-2.41,3.089-3.828,4.473c-1.408,1.398-2.909,2.728-4.325,4.165C42.73,55.045,41.36,56.599,40.453,58.409z"/>
		<path fill="#8D9998" d="M39.254,51.222c0.41-1.087,1.014-2.016,1.692-2.898c0.686-0.877,1.431-1.719,2.174-2.588
			c0.727-0.881,1.466-1.79,2.023-2.84c0.561-1.03,0.933-2.262,0.718-3.419c-0.213,1.146-0.744,2.111-1.382,3.009
			c-0.647,0.894-1.386,1.738-2.124,2.606c-0.725,0.879-1.465,1.779-2.055,2.799C39.709,48.896,39.254,50.051,39.254,51.222z"/>
	</g>
	<g>
		<g>
			<path fill="none" stroke="#B2C1C0" stroke-miterlimit="10" d="M15.833,8.833"/>
		</g>
		<g>
			<path fill="#E8E8E8" d="M30.193,24.192c0,0-1.371-4.923,1.614-16.33C34.796-3.543,2,1.853,2,22.669
				c0,2.256,2.909,2.361,8.105-3.986c0,0-2.122,8.998,4.553,5.094c0,0-1.127,6.374,3.996,3.462c0,0,3.776-1.332,8.117-0.141
				C26.771,27.098,29.025,26.385,30.193,24.192z"/>
		</g>
		<g>
			<path fill="#D1D1D1" d="M28.632,2.508C19.799,2.273,5.24,9.287,5.24,23.161c0,0.057,0.01,0.107,0.014,0.162
				C3.135,24.64,2,24.07,2,22.661C2,6.895,20.801-0.016,28.632,2.508z"/>
		</g>
		<g>
			<path fill="#D1D1D1" d="M23.815,9.702C13.047,12.701,12.066,24.691,12.07,24.746c-2.253,0.544-3.336-0.496-3.336-1.753
				C8.734,18.493,16.005,10.347,23.815,9.702z"/>
		</g>
		<g>
			<path fill="#D1D1D1" d="M23.815,18.14c-10.04,7.103-6.341,9.594-6.337,9.649c-3.953,1.826-4.048-2.866-3.129-3.724
				C16.9,21.68,22.088,17.972,23.815,18.14z"/>
		</g>
		<path fill="#8D9998" d="M4.883,23.547c1.596-1.232,2.902-2.732,4.224-4.225c1.307-1.508,2.605-3.041,4.02-4.493
			c1.424-1.434,2.973-2.809,4.787-3.8c1.791-1.01,3.892-1.539,5.902-1.328c-2.013,0.187-3.869,0.938-5.504,1.999
			c-1.636,1.069-3.089,2.411-4.473,3.829c-1.398,1.408-2.728,2.909-4.165,4.325C8.247,21.27,6.693,22.64,4.883,23.547z"/>
		<path fill="#8D9998" d="M12.07,24.746c1.087-0.41,2.016-1.014,2.898-1.692c0.877-0.686,1.719-1.431,2.588-2.174
			c0.881-0.727,1.79-1.466,2.84-2.023c1.03-0.561,2.262-0.932,3.419-0.717c-1.146,0.212-2.111,0.744-3.009,1.381
			c-0.894,0.647-1.738,1.385-2.606,2.125c-0.879,0.724-1.779,1.465-2.799,2.055C14.396,24.291,13.241,24.747,12.07,24.746z"/>
	</g>
</g>
</svg>
