<?xml version="1.0" encoding="utf-8"?>
<!-- Generator: Adobe Illustrator 15.0.0, SVG Export Plug-In . SVG Version: 6.00 Build 0)  -->
<!DOCTYPE svg PUBLIC "-//W3C//DTD SVG 1.1//EN" "http://www.w3.org/Graphics/SVG/1.1/DTD/svg11.dtd">
<svg version="1.1" id="Layer_1" xmlns="http://www.w3.org/2000/svg" xmlns:xlink="http://www.w3.org/1999/xlink" x="0px" y="0px"
	 width="64px" height="64px" viewBox="0 0 64 64" enable-background="new 0 0 64 64" xml:space="preserve">
<g>
	<g>
		<path fill="#5F6262" d="M62,55.593c0,3.627-8.991,3.432-8.991,3.432l-25.129-6.31c-1.755-0.371-3.156-2.304-3.156-4.322V27.008
			L62,29.111V55.593z"/>
		<path fill="#343434" d="M60.191,13.397c-0.012-0.009-1.423-0.223-1.435-0.232L51.8,16.596l-1.033,44.123
			C56.518,55.772,62,55.683,62,55.683V17.296C62,15.732,61.297,14.335,60.191,13.397z"/>
		<path fill="#5F6262" d="M52.244,56.673c0,3.624-2.564,5.938-5.67,5.186L7.302,52.319c-2.313-0.562-4.158-3.482-4.158-6.532V13.456
			l49.142,3.19L52.244,56.673z"/>
		<path fill="#343434" d="M52.887,32.582c0,3.625-3.038,6.258-6.144,5.745L7.47,31.823c-2.313-0.383-4.157-3.162-4.157-6.213
			l1.284-13.233l48.505,3.915L52.887,32.582z"/>
		<path fill="#5F6262" d="M4.597,11.48c-3.73,2.534-3.689,17.884,1.746,17.884l39.273,6.138c3.104,0.485,5.67-2.052,5.67-5.675
			c0,0-1.158-11.704,1-13.18l1.844-0.801L4.597,11.48z"/>
		<g>
			<polygon fill="#65562D" points="30.973,26.587 20.392,25.171 18.475,32.582 20.392,38.075 30.973,39.983 			"/>
			<g>
				<polygon fill="#F8ECC5" points="20.392,25.171 18.475,32.582 29.055,34.244 30.973,26.587 				"/>
				<polygon fill="#BFAE6E" points="20.392,38.075 30.973,39.983 29.055,34.244 18.475,32.582 				"/>
			</g>
		</g>
		<path fill="#919193" d="M56.708,12.193L20.764,9.046L7.172,10.635L6.528,10.71c-0.701,0.129-1.355,0.394-1.931,0.77l47.689,5.166
			l4.966-2.157c4.142-2.028,4.608,1.617,4.608,1.617C61.359,12.907,58.458,12.356,56.708,12.193z"/>
	</g>
	<g>
		<g>
			<g>
				<path fill="#BFAE6E" d="M18.729,10.202c0-4.294,3.435-4.534,4.22-4.751c0.74-0.206,1.203-0.867,1.033-1.477
					c-0.169-0.613-0.88-0.732-1.648-0.732c-2.269,0-6.251,0.999-6.251,6.96C16.083,10.864,18.729,10.864,18.729,10.202z"/>
			</g>
		</g>
		<g>
			<path fill="#65562D" d="M18.239,9.908C18.144,9.321,18.165,8.707,18.3,8.11c0.137-0.597,0.424-1.174,0.846-1.64
				c0.424-0.462,0.966-0.809,1.545-1.006c0.577-0.208,1.177-0.277,1.769-0.309c-0.557,0.223-1.122,0.379-1.628,0.641
				c-0.505,0.26-0.972,0.576-1.338,0.989C18.729,7.601,18.421,8.737,18.239,9.908z"/>
		</g>
		<path fill="#5F6262" d="M43.726,6.877c-0.143,1.696-1.634,2.958-3.331,2.817L21.946,8.158C20.251,8.02,18.987,6.526,19.13,4.83
			l0,0c0.141-1.699,1.632-2.962,3.33-2.819l18.446,1.536C42.604,3.688,43.867,5.181,43.726,6.877L43.726,6.877z"/>
		<path fill="#343434" d="M43.726,6.877c-0.088,1.053-1.536,1.794-3.234,1.65L22.043,6.991c-1.694-0.138-3.003-1.109-2.913-2.161
			l0,0c0.087-1.054,1.534-1.794,3.233-1.651L40.81,4.716C42.507,4.855,43.814,5.824,43.726,6.877L43.726,6.877z"/>
		<g>
			<path fill="#BFAE6E" d="M43.986,13.071c0-2.612-1.855-4.204-2.979-4.664c-1.674-0.687-0.324-3.722,1.35-2.941
				c1.993,0.93,4.696,3.723,4.696,7.604C47.054,13.951,43.986,13.951,43.986,13.071z"/>
		</g>
		<g>
			<path fill="#65562D" d="M44.39,13.107c-0.181-1.17-0.545-2.255-1.168-3.203c-0.613-0.948-1.42-1.771-2.414-2.407
				c0.581,0.138,1.115,0.446,1.59,0.815c0.479,0.369,0.886,0.83,1.218,1.338C44.272,10.671,44.579,11.933,44.39,13.107z"/>
		</g>
	</g>
</g>
</svg>
