<?xml version="1.0" encoding="utf-8"?>
<!-- Generator: Adobe Illustrator 15.0.0, SVG Export Plug-In . SVG Version: 6.00 Build 0)  -->
<!DOCTYPE svg PUBLIC "-//W3C//DTD SVG 1.1//EN" "http://www.w3.org/Graphics/SVG/1.1/DTD/svg11.dtd">
<svg version="1.1" id="Layer_1" xmlns="http://www.w3.org/2000/svg" xmlns:xlink="http://www.w3.org/1999/xlink" x="0px" y="0px"
	 width="64px" height="64px" viewBox="0 0 64 64" enable-background="new 0 0 64 64" xml:space="preserve">
<g>
	<circle fill="#75A843" cx="32" cy="32" r="30"/>
	<polygon fill="#FFFFFF" points="34.119,18.813 43,10 36.896,10 31.972,14.887 27.078,10 21,10 21,10.004 29.817,18.809 
		29.817,18.819 25.301,18.819 25.301,23.115 29.817,23.115 29.817,27.41 25.301,27.41 25.301,31.705 29.817,31.705 29.817,36 
		34.119,36 34.119,31.705 38.72,31.705 38.72,27.41 34.119,27.41 34.119,23.115 38.72,23.115 38.72,18.819 34.119,18.819 	"/>
	<g>
		<path fill="#FFFFFF" d="M50.051,32.793l-4.256-2.895l-6.777,11.863l-4.976-2.756l-4.082,7.673l-4.478-3.21L19,52.23
			c1.354,0.707,2.781,1.3,4.271,1.77l3.236-4.373l5.07,3.637l4.358-8.198l4.855,2.689l6.556-11.475l3.976,2.706L57,30.48
			c-0.048-2.249-0.423-4.422-1.08-6.48L50.051,32.793z"/>
	</g>
</g>
</svg>
