<?xml version="1.0" encoding="utf-8"?>
<!-- Generator: Adobe Illustrator 15.0.0, SVG Export Plug-In . SVG Version: 6.00 Build 0)  -->
<!DOCTYPE svg PUBLIC "-//W3C//DTD SVG 1.1//EN" "http://www.w3.org/Graphics/SVG/1.1/DTD/svg11.dtd">
<svg version="1.1" id="Layer_1" xmlns="http://www.w3.org/2000/svg" xmlns:xlink="http://www.w3.org/1999/xlink" x="0px" y="0px"
	 width="64px" height="64px" viewBox="0 0 64 64" enable-background="new 0 0 64 64" xml:space="preserve">
<g>
	<rect y="46.5" fill="#699635" width="64" height="9"/>
	<rect y="8.499" fill="#83BF4F" width="64" height="38.001"/>
	<rect x="24" y="46.5" fill="#94989B" width="16" height="9"/>
	<rect x="4" y="12.499" fill="#699635" width="56" height="30.001"/>
	<rect x="7" y="15.499" fill="#83BF4F" width="50" height="24.001"/>
	<circle fill="#699635" cx="45" cy="27.5" r="8"/>
	<rect x="24" y="8.499" fill="#D0D0D0" width="16" height="38.001"/>
	<path fill="#FFFFFF" d="M16,26.5c-1.103,0-2-0.897-2-2.001s0.897-2,2-2s2,0.896,2,2h2c0-1.858-1.279-3.41-3-3.857v-1.143h-2v1.143
		c-1.721,0.447-3,1.999-3,3.857c0,2.206,1.794,4.001,4,4.001c1.103,0,2,0.896,2,2s-0.897,2-2,2s-2-0.896-2-2h-2
		c0,1.858,1.279,3.41,3,3.857V35.5h2v-1.143c1.721-0.447,3-1.999,3-3.857C20,28.295,18.206,26.5,16,26.5z"/>
</g>
</svg>
