<?xml version="1.0" encoding="utf-8"?>
<!-- Generator: Adobe Illustrator 15.0.0, SVG Export Plug-In . SVG Version: 6.00 Build 0)  -->
<!DOCTYPE svg PUBLIC "-//W3C//DTD SVG 1.1//EN" "http://www.w3.org/Graphics/SVG/1.1/DTD/svg11.dtd">
<svg version="1.1" id="Layer_1" xmlns="http://www.w3.org/2000/svg" xmlns:xlink="http://www.w3.org/1999/xlink" x="0px" y="0px"
	 width="64px" height="64px" viewBox="0 0 64 64" enable-background="new 0 0 64 64" xml:space="preserve">
<g>
	<path fill="#AFCDDB" d="M62.467,22.338c1.689,1.69,2.04,4.245,0.766,5.727L33.696,62.404c-1.793,2.084-4.93,2.141-6.978,0.093
		L1.503,37.281c-2.048-2.047-1.991-5.186,0.093-6.978L35.935,0.767c1.481-1.274,4.037-0.924,5.727,0.766L62.467,22.338z"/>
	<polygon fill="#333333" points="50.841,10.712 12.627,48.406 3.728,39.506 43.497,3.369 	"/>
	<g>
		<polygon fill="#FFFFFF" points="49.432,18.333 22.552,45.768 29.754,52.971 55.705,24.606 		"/>
		<g>
			<g>
				<path fill="#4F5B60" d="M34.087,43.318c-1.513-1.396-0.613-4.012-0.063-5.439c0.854-2.208,1.753,2.032,1.799,2.688
					c0.152,2.146-0.057,4.349-0.564,6.416c-0.288,1.179-0.719,2.307-1.263,3.383c-0.341,0.674-0.804,1.252-1.388,1.713
					c-1.451,0.876-2.373,0.023-2.748-2.547c0.167-0.82,0.53-1.517,1.087-2.088c1.894-2.352,4.89-3.541,7.083-5.369
					c0.217-0.18-0.13-0.521-0.343-0.344c-2.623,2.18-8.011,3.98-8.345,8.289c-0.221,2.849,2.668,3.459,4.218,1.875
					c2.015-2.062,2.53-5.817,2.704-8.63c0.101-1.638,0.517-6.171-1.89-6.721c-0.106-0.024-0.198,0.007-0.25,0.097
					c-0.953,1.675-2.315,5.186-0.344,7.006C34.013,43.861,34.32,43.533,34.087,43.318L34.087,43.318z"/>
			</g>
			<g>
				<path fill="#4F5B60" d="M37.353,41.695c2.147,1.192,2.693-3.549,2.411-4.844c-0.042-0.193-0.271-0.207-0.379-0.121
					c-1.132,0.904-1.332,3.286-0.37,4.671c0.104,0.152,0.312,0.171,0.392,0.015c0.651-1.281,1.117-2.62,1.571-3.975
					c0.192-0.574,0.687-0.441,1.078-0.838c0.799-0.808,1.572-1.63,2.352-2.432c0.985-1.016,1.324-2.36,2.233-3.38
					c1.161-1.304,2.277-1.933,2.857-3.725c0.133-0.41,0.143-1.36-0.562-1.414c-1.36-0.105-2.552,2.77-0.739,2.494
					c2.219-0.338,4.207-2.919,5.647-4.293c0.171-0.164-0.145-0.478-0.314-0.315c-0.718,0.683-1.452,1.36-2.215,2.017
					c-0.604,0.521-1.235,1.015-1.9,1.474c-0.335,0.231-2.872,1.351-1.261-0.532c0.285,0.222,0.571,0.444,0.857,0.667
					c-0.094,0.24-0.199,0.471-0.32,0.696c-0.21,0.422-0.482,0.812-0.759,1.185c-0.531,0.722-1.373,1.145-1.975,1.819
					c-0.765,0.856-1.064,2.083-1.883,2.977c-0.361,0.395-2.335,2.918-3.037,2.621c-0.088-0.036-0.21,0.012-0.24,0.096
					c-0.227,0.652-0.448,1.31-0.673,1.969c-0.082,0.241-1.02,2.119-0.992,2.183c-0.411-0.981-0.27-2.231,0.073-3.091
					c0.27,0.547,0.312,1.076,0.122,1.592c-0.158,1.169-0.752,1.867-1.78,2.086C37.279,41.146,37.082,41.546,37.353,41.695
					L37.353,41.695z"/>
			</g>
		</g>
	</g>
</g>
</svg>
