<?xml version="1.0" encoding="utf-8"?>
<!-- Generator: Adobe Illustrator 15.0.0, SVG Export Plug-In . SVG Version: 6.00 Build 0)  -->
<!DOCTYPE svg PUBLIC "-//W3C//DTD SVG 1.1//EN" "http://www.w3.org/Graphics/SVG/1.1/DTD/svg11.dtd">
<svg version="1.1" id="Layer_1" xmlns="http://www.w3.org/2000/svg" xmlns:xlink="http://www.w3.org/1999/xlink" x="0px" y="0px"
	 width="64px" height="64px" viewBox="0 0 64 64" enable-background="new 0 0 64 64" xml:space="preserve">
<g>
	<rect y="46.5" fill="#9450E0" width="64" height="9"/>
	<rect y="8.499" fill="#C28FEF" width="64" height="38.001"/>
	<rect x="24" y="46.5" fill="#94989B" width="16" height="9"/>
	<rect x="4" y="12.499" fill="#9450E0" width="56" height="30.001"/>
	<rect x="7" y="15.499" fill="#C28FEF" width="50" height="24.001"/>
	<circle fill="#9450E0" cx="45" cy="27.499" r="8"/>
	<rect x="24" y="8.499" fill="#D0D0D0" width="16" height="38.001"/>
	<path fill="#FFFFFF" d="M16,30.354c0-0.321-0.032-0.645-0.12-0.998h2.898v-2.347h-4.066c-0.054-0.074-0.094-0.143-0.149-0.221
		c-0.133-0.184-0.271-0.365-0.41-0.547c-0.578-0.752-0.933-1.244-0.933-1.858c0-1.495,1.246-2.713,2.78-2.713
		c1.532,0,2.778,1.218,2.778,2.713H21c0-2.693-2.244-4.884-5-4.884c-2.758,0-5,2.19-5,4.884c0,1.079,0.473,1.923,0.976,2.626H11
		v2.347h2.538c0.235,0.518,0.239,0.8,0.239,0.998c0,1.793-1.785,2.945-2.777,2.977v2.17h10v-2.172h-6.028
		C15.592,32.521,16,31.516,16,30.354z"/>
</g>
</svg>
