<?xml version="1.0" encoding="utf-8"?>
<!-- Generator: Adobe Illustrator 15.0.0, SVG Export Plug-In . SVG Version: 6.00 Build 0)  -->
<!DOCTYPE svg PUBLIC "-//W3C//DTD SVG 1.1//EN" "http://www.w3.org/Graphics/SVG/1.1/DTD/svg11.dtd">
<svg version="1.1" id="Layer_1" xmlns="http://www.w3.org/2000/svg" xmlns:xlink="http://www.w3.org/1999/xlink" x="0px" y="0px"
	 width="64px" height="64px" viewBox="0 0 64 64" enable-background="new 0 0 64 64" xml:space="preserve">
<g>
	<path fill="#DBB471" d="M54,46.888C54,59.038,44.15,59,32,59s-22,0.038-22-12.112S19.85,15,32,15S54,34.737,54,46.888z"/>
	<path opacity="0.5" fill="#89664C" d="M54,46.888c0-4.12-1.136-9.112-3.106-13.912c0.369,3.123-0.425,8.648-9.893,10.658
		C27.5,46.5,34.473,50.383,29.236,50.816c-4.518,0.374-16.48-1.44-18.879-8.206C10.127,44.104,10,45.544,10,46.888
		C10,59.038,19.85,59,32,59S54,59.038,54,46.888z"/>
	<path fill="#89664C" d="M37.915,41.115c-0.433-2.004-2.135-2.567-3.895-2.66c-0.005-0.94-0.005-1.881,0.002-2.821
		c0.54,0.234,1.058,0.505,1.528,0.794c0.831,0.515,1.585-0.817,0.759-1.334c-0.72-0.445-1.487-0.808-2.28-1.081
		c0.011-1.09,0.017-2.178,0.017-3.266c0.001-0.996-1.503-0.996-1.503,0c0,0.956-0.006,1.911-0.015,2.866
		c-0.802-0.137-1.612-0.149-2.423-0.038c-0.131-0.716-0.286-1.425-0.475-2.135c-0.249-0.96-1.701-0.553-1.449,0.409
		c0.185,0.692,0.335,1.382,0.459,2.081c-0.063,0.022-0.133,0.035-0.195,0.062c-2.037,0.796-3.28,2.818-1.789,4.708
		c0.694,0.879,1.602,1.233,2.595,1.354c0.055,1.303,0.089,2.607,0.128,3.91c-0.666-0.426-1.272-0.974-1.821-1.549
		c-0.68-0.707-1.741,0.384-1.063,1.09c0.923,0.966,1.892,1.699,2.942,2.166c0.047,1.113,0.114,2.228,0.224,3.336
		c0.098,0.981,1.603,0.988,1.505,0c-0.096-0.958-0.158-1.919-0.205-2.88c0.571,0.099,1.173,0.124,1.81,0.063
		c0.072,1.025,0.155,2.049,0.274,3.074c0.112,0.976,1.618,0.984,1.504,0c-0.126-1.116-0.217-2.235-0.292-3.354
		C36.384,45.264,38.446,43.563,37.915,41.115z M32.521,35.144c-0.008,1.107-0.01,2.214-0.005,3.322
		c-0.483,0.027-0.942,0.071-1.345,0.107c-0.172,0.014-0.335,0.02-0.496,0.021c-0.074-1.189-0.178-2.375-0.341-3.56
		C31.054,34.931,31.792,34.977,32.521,35.144z M28.885,38.329c-0.442-0.149-0.833-0.391-1.163-0.723
		c-0.938-0.863,0.351-1.712,1.163-2.114c0.126,0.965,0.215,1.938,0.281,2.912C29.072,38.379,28.979,38.359,28.885,38.329z
		 M32.246,44.738c-0.472,0.053-0.922,0.015-1.348-0.091c-0.054-1.518-0.089-3.037-0.147-4.556c0.591-0.024,1.19-0.083,1.771-0.128
		c0.021,1.569,0.061,3.144,0.146,4.713C32.525,44.698,32.386,44.726,32.246,44.738z M35.49,43.591
		c-0.396,0.309-0.853,0.535-1.332,0.712c-0.074-1.462-0.112-2.918-0.13-4.377c0.18,0.007,0.358,0.024,0.527,0.047
		C36.501,40.263,37.01,42.394,35.49,43.591z"/>
	<g>
		<path fill="none" stroke="#DBB471" stroke-width="0" stroke-linecap="round" stroke-linejoin="round" d="M25.772,18.847"/>
	</g>
	<polygon fill="#699635" points="33.979,55.024 31.708,55.024 31.708,58.998 41.001,64 62,57.501 62,54.024 54.333,49.501 	"/>
	<path fill="#83BF4F" d="M32,52.747c0,0,2.438,3.88,9.204,7.253c0,0,10.563-0.506,20.796-7.253c0,0-5.942-2.868-7.593-6.747
		C54.407,46,50.363,51.566,32,52.747z"/>
	<g>
		<polygon fill="#699635" points="27.483,54.948 29.696,54.771 30,58.535 21.326,64 0.366,59.488 0.099,56.195 7.223,51.311 		"/>
		<path fill="#83BF4F" d="M29.236,52.636c0,0-2.079,3.866-8.415,7.591c0,0-10.333,0.349-20.821-5.24c0,0,5.571-3.183,6.884-6.986
			C6.884,48,11.251,52.956,29.236,52.636z"/>
		<g>
			<path fill="none" stroke="#699635" stroke-miterlimit="10" d="M24.245,53.687c0,0-0.313,0.811,1.114,0.857l-3.715,3.126
				c0,0-2.151-0.248-2.652,1.283c0,0-8.992-0.953-14.788-3.585c0,0,1.176-0.934-0.262-1.514c0,0,1.697-1.224,2.108-2.288
				c0,0,1.552,0.217,2.125-1.04C8.176,50.526,14.25,54.115,24.245,53.687z"/>
			<ellipse fill="#699635" cx="8.833" cy="53.793" rx="1.917" ry="1.287"/>
		</g>
		<path fill="#F9F3D9" d="M18.992,52.157c0,0-2.33,3.015-7.262,7.059l0.225,2.768l-3.529-0.76L8.19,58.317
			c0,0,5.063-4.713,6.229-6.971C14.419,51.347,16.169,51.873,18.992,52.157z"/>
	</g>
	<path fill="#F9F3D9" d="M42.089,51.521c0,0,0.929,2.373,7.67,6.843v2.926l3.88-1.2v-3.045c0,0-4.702-3.283-7.504-6.622
		L42.089,51.521z"/>
	<g>
		<polygon fill="#699635" points="36.408,48.307 34.181,48.188 34,52.316 42.892,58 63.784,52.348 63.942,48.735 56.629,43.634 		
			"/>
		<path fill="#83BF4F" d="M34.571,45.838c0,0,2.216,4.157,8.7,8.017c0,0,10.386,0.028,20.729-6.446c0,0-5.697-3.291-7.141-7.408
			C56.859,40,52.64,45.572,34.571,45.838z"/>
		<g>
			<path fill="none" stroke="#699635" stroke-miterlimit="10" d="M39.083,46.928c0,0,0.509,0.766-1.083,1.072l4.194,3.347
				c0,0,2.364-0.643,3.223,0.82c0,0,10-1.75,14.583-4.167c0,0-1.5-0.733,0-1.583c0,0-1.833-1.494-2.5-2.497
				c0,0-1.697,0.501-2.583-0.67C54.917,43.25,51.332,46.355,39.083,46.928z"/>
			<path fill="#699635" d="M46.795,49.388c-0.434,0.537-1.67,0.738-2.768,0.444c-1.097-0.294-1.639-0.972-1.209-1.511
				c0.434-0.538,1.671-0.737,2.768-0.444C46.684,48.172,47.226,48.848,46.795,49.388z"/>
		</g>
		<path fill="#F9F3D9" d="M44.84,44.963c0,0,2.44,3.219,7.525,7.475l-0.134,3.037l3.52-0.953l0.14-3.188
			c0,0-5.241-4.982-6.485-7.413C49.405,43.92,47.666,44.555,44.84,44.963z"/>
	</g>
	<path fill="#DBB471" d="M46,2c0,6.063-7.856,16-14,16S18,9.063,18,3c0-6.065,0.856,0,7,0c0.882,0,5.139-3,7-3c1.33,0,4.969,3,7,3
		C44.333,3,46-2.573,46,2z"/>
	<path fill="#89664C" d="M30.173,13.254c-0.604,0.362-3.453,0.06-4.4,0.829c-1.161,0.944,0.528,3.039-0.67,4.274
		c-2.371,2.445-4.296,5.115-3.728,6.643c0.959,2.577,2.875-4.77,4.625-2.01s1.375-1.857,4,0.514s0.369-4.254,2.935-1.379
		s2.642,6.245,4.44,6.25c2.126,0.006-2.25-7.854,0.625-5.989s5.867,1.23,3.089-1.698c-0.863-0.909-2.135-2.486-3.516-3.917
		c-0.52-0.539-0.056-3.057-0.591-3.511c-0.557-0.472-2.113,1.126-2.651,0.842c-1.157-0.61-0.775,0.511-2.602,0.837
		C30.41,15.174,31.427,12.502,30.173,13.254z"/>
	<g>
		<path fill="#E8E8E8" d="M18.707,19.207c3.868-3.69,11.025-1.633,15.156,0.156c4.058,1.758,6.558-3.945,4.013-6.785
			c-1.487-1.66-3.853,0.332-4.846,1.479c-1.017,1.175-1.811,2.519-2.857,3.672c-1.613,1.776-5.544,0.31-4.282-2.245
			c1.272-2.579,6.79,0.396,8.633,0.924c3.521,1.008,7.24,1.394,10.743,0.139c1.205-0.432,0.686-2.364-0.531-1.928
			c-3.867,1.385-7.757,0.488-11.548-0.7c-1.875-0.588-4.949-2.241-6.948-1.302c-5.712,2.684-0.361,10.415,4.369,7.373
			c1.07-0.688,1.841-1.839,2.584-2.845c0.458-0.619,2.997-4.431,3.576-2.531c0.295,0.968,0.02,2.753-1.058,3.137
			c-0.723,0.258-2.139-0.669-2.843-0.949c-1.279-0.509-2.612-0.862-3.956-1.153c-3.668-0.794-8.707-0.634-11.619,2.145
			C16.358,18.685,17.774,20.097,18.707,19.207L18.707,19.207z"/>
	</g>
	<path fill="#89664C" d="M44.84,0.533C43.798,1.276,41.967,3,39,3c-2.031,0-5.67-3-7-3c-1.861,0-6.118,3-7,3
		c-3.299,0-5.071-1.747-6.008-2.428c0.001,0.004,1.106,4.491,4.509,6.761c2.499,1.667,2.167-0.25,3.5-2s2.235-2.666,4.468,1.834
		c1.22,2.459,3.462-6.787,5.282-3.834C40.089,8.75,41.263,5.816,44.84,0.533z"/>
	<path fill="#DBB471" d="M52.365,52.438l-0.134,3.037l3.52-0.953l0.14-3.188C55.891,51.333,53.818,52.07,52.365,52.438z"/>
	<path fill="#DBB471" d="M49.759,58.363v2.926l3.88-1.2v-3.045C53.639,57.044,52.555,57.632,49.759,58.363z"/>
	<path fill="#DBB471" d="M11.73,59.216l0.225,2.768l-3.529-0.76L8.19,58.317C8.19,58.317,9.569,58.803,11.73,59.216z"/>
</g>
</svg>
