<?xml version="1.0" encoding="utf-8"?>
<!-- Generator: Adobe Illustrator 15.0.0, SVG Export Plug-In . SVG Version: 6.00 Build 0)  -->
<!DOCTYPE svg PUBLIC "-//W3C//DTD SVG 1.1//EN" "http://www.w3.org/Graphics/SVG/1.1/DTD/svg11.dtd">
<svg version="1.1" id="Layer_1" xmlns="http://www.w3.org/2000/svg" xmlns:xlink="http://www.w3.org/1999/xlink" x="0px" y="0px"
	 width="64px" height="64px" viewBox="0 0 64 64" enable-background="new 0 0 64 64" xml:space="preserve">
<g>
	<path fill="#B4D7EE" d="M54.48,31.956c0.208,2.201-1.335,4.003-3.433,4.003h-38.1c-2.095,0-3.639-1.803-3.431-4.003l2.099-22.177
		c0.209-2.204,2.094-4.007,4.189-4.007h32.386c2.095,0,3.98,1.803,4.19,4.007L54.48,31.956z"/>
	<rect x="8.873" y="30.501" fill="#3E4347" width="6" height="8.049"/>
	<rect x="49.125" y="30.501" fill="#3E4347" width="6" height="8.049"/>
	<rect x="14.624" y="50.92" fill="#3E4347" width="6" height="10.063"/>
	<rect x="43.374" y="50.879" fill="#3E4347" width="6" height="10.145"/>
	<path fill="#428BC1" d="M41.425,24.998c-0.322,2.627-2.352,4.777-4.514,4.777h-9.822c-2.164,0-4.194-2.15-4.514-4.777
		l-1.784-14.597c-0.319-2.624,1.187-4.776,3.349-4.776h15.717c2.164,0,3.67,2.152,3.35,4.776L41.425,24.998z"/>
	<g>
		<path fill="#94989B" d="M22.953,58.916c-0.175-0.523-0.768-0.953-1.318-0.953h-8.021c-0.552,0-1.147,0.43-1.319,0.953
			l-1.371,4.129C10.75,63.572,11.056,64,11.606,64H23.64c0.551,0,0.86-0.428,0.686-0.955L22.953,58.916z"/>
		<path fill="#94989B" d="M53.075,63.045l-1.371-4.129c-0.174-0.523-0.771-0.953-1.32-0.953h-8.021c-0.551,0-1.145,0.43-1.32,0.953
			l-1.371,4.129C39.497,63.572,39.808,64,40.359,64h12.03C52.938,64,53.25,63.572,53.075,63.045z"/>
	</g>
	<path fill="#29ABE2" d="M46.247,6.036c0,2.215-1.709,4.026-3.798,4.026H21.55c-2.09,0-3.801-1.812-3.801-4.026V4.024
		C17.749,1.81,19.46,0,21.55,0h20.899c2.089,0,3.798,1.81,3.798,4.023V6.036z"/>
	<path fill="#29ABE2" d="M15.519,29.175l-0.305-2.067c-0.164-1.091-1.098-1.985-2.081-1.985h-2.679c-0.983,0-1.917,0.895-2.08,1.985
		l-0.308,2.067C7.906,30.268,8.579,31.16,9.56,31.16h4.466C15.008,31.16,15.681,30.268,15.519,29.175z"/>
	<path fill="#29ABE2" d="M55.77,29.175l-0.305-2.067c-0.161-1.091-1.099-1.985-2.081-1.985h-2.68c-0.98,0-1.916,0.895-2.079,1.985
		l-0.308,2.067c-0.161,1.093,0.512,1.984,1.494,1.984h4.467C55.261,31.16,55.933,30.268,55.77,29.175z"/>
	<path fill="#29ABE2" d="M51.479,36.041H12.519c-3.058,0-5.042,3.037-4.397,6.746l0.448,2.607c0.642,3.709,3.671,6.746,6.732,6.746
		h33.395c3.061,0,6.09-3.037,6.732-6.746l0.45-2.607C56.521,39.078,54.54,36.041,51.479,36.041z"/>
</g>
</svg>
