<?xml version="1.0" encoding="utf-8"?>
<!-- Generator: Adobe Illustrator 15.0.0, SVG Export Plug-In . SVG Version: 6.00 Build 0)  -->
<!DOCTYPE svg PUBLIC "-//W3C//DTD SVG 1.1//EN" "http://www.w3.org/Graphics/SVG/1.1/DTD/svg11.dtd">
<svg version="1.1" id="Layer_1" xmlns="http://www.w3.org/2000/svg" xmlns:xlink="http://www.w3.org/1999/xlink" x="0px" y="0px"
	 width="64px" height="64px" viewBox="0 0 64 64" enable-background="new 0 0 64 64" xml:space="preserve">
<g>
	<circle fill="#D0D0D0" cx="32.001" cy="32" r="30"/>
	<g>
		<circle fill="#FFFFFF" cx="32" cy="32" r="6.637"/>
		<g>
			<g>
				<path fill="#FFFFFF" d="M32.241,42.613l9.19,13.635c6.772-2.643,12.174-8.045,14.817-14.816L42.614,32.24
					C42.487,37.905,37.905,42.486,32.241,42.613z"/>
				<path fill="#FFFFFF" d="M31.761,21.387L22.569,7.752c-6.771,2.644-12.174,8.045-14.816,14.818l13.635,9.189
					C21.514,26.096,26.096,21.514,31.761,21.387z"/>
			</g>
		</g>
	</g>
	<g>
		<path fill="#94989B" d="M32.001,44.96c-7.146,0-12.96-5.813-12.96-12.96c0-7.145,5.813-12.959,12.96-12.959
			c7.146,0,12.959,5.814,12.959,12.959C44.96,39.146,39.146,44.96,32.001,44.96z M32.001,21.695
			c-5.683,0-10.305,4.623-10.305,10.305s4.622,10.305,10.305,10.305c5.682,0,10.305-4.623,10.305-10.305
			S37.683,21.695,32.001,21.695z"/>
	</g>
</g>
</svg>
