<?xml version="1.0" encoding="utf-8"?>
<!-- Generator: Adobe Illustrator 15.0.0, SVG Export Plug-In . SVG Version: 6.00 Build 0)  -->
<!DOCTYPE svg PUBLIC "-//W3C//DTD SVG 1.1//EN" "http://www.w3.org/Graphics/SVG/1.1/DTD/svg11.dtd">
<svg version="1.1" id="Layer_1" xmlns="http://www.w3.org/2000/svg" xmlns:xlink="http://www.w3.org/1999/xlink" x="0px" y="0px"
	 width="64px" height="64px" viewBox="0 0 64 64" enable-background="new 0 0 64 64" xml:space="preserve">
<g>
	<g>
		<rect y="34.358" fill="#819096" width="3.794" height="6.307"/>
		<rect x="60.017" y="17.479" fill="#819096" width="3.795" height="6.306"/>
		<path fill="#819096" d="M61.494,21.017L26.973,8.806c-1.515-0.536-3.411-0.09-4.249,1.013l-9.489,12.446L0.723,38.673
			c-1.255,1.648-0.837,3.652,0.97,4.451l41.879,18.501c2.146,0.948,4.602,0.032,5.455-2.01L57.407,39.5l6.25-14.999
			C64.207,23.184,63.231,21.632,61.494,21.017z"/>
	</g>
	<path fill="#ED4C5C" d="M63.657,18.181c0.55-1.316-0.426-2.868-2.163-3.483L26.973,2.486c-1.515-0.537-3.411-0.09-4.249,1.013
		l-9.489,12.446l44.173,17.235L63.657,18.181z"/>
	<path fill="#CAD5DD" d="M13.234,15.945L0.723,32.353c-1.255,1.649-0.837,3.653,0.97,4.451l41.879,18.502
		c2.146,0.947,4.602,0.031,5.455-2.01l8.381-20.115L13.234,15.945z"/>
	<path opacity="0.5" fill="#333333" d="M2.353,30.216c-1.255,1.65,0.355,4.112,1.582,5.243c5.008,4.614,24.527,13.172,24.527,13.172
		L2.353,30.216z"/>
	<g>
		<path fill="#FFFFFF" d="M28.362,16.963c-0.139,0.308-0.181,0.565-0.122,0.767c0.104,0.371,0.496,0.687,1.173,0.946
			c0.407,0.156,0.762,0.248,1.063,0.274c0.567,0.051,0.967-0.108,1.197-0.474c0.133-0.212,0.118-0.421-0.045-0.627
			c-0.164-0.201-0.474-0.442-0.928-0.722L29.93,16.65c-0.751-0.47-1.227-0.849-1.427-1.139c-0.345-0.487-0.311-1.03,0.087-1.629
			c0.365-0.543,0.919-0.895,1.67-1.059c0.748-0.164,1.617-0.062,2.616,0.309c0.839,0.31,1.446,0.744,1.831,1.305
			c0.384,0.564,0.392,1.183,0.013,1.855l-1.608-0.603c0.207-0.383,0.159-0.727-0.141-1.029c-0.197-0.202-0.493-0.375-0.883-0.521
			c-0.436-0.162-0.824-0.224-1.169-0.189c-0.343,0.035-0.594,0.171-0.75,0.408c-0.142,0.219-0.121,0.431,0.063,0.636
			c0.118,0.135,0.414,0.353,0.889,0.651l1.234,0.785c0.542,0.346,0.912,0.675,1.1,0.982c0.296,0.481,0.271,1.01-0.083,1.586
			c-0.367,0.594-0.96,0.981-1.786,1.156c-0.825,0.175-1.765,0.061-2.815-0.345c-1.068-0.412-1.777-0.929-2.13-1.547
			c-0.352-0.614-0.305-1.25,0.136-1.907L28.362,16.963z"/>
		<path fill="#FFFFFF" d="M42.613,18.314l-4.308-1.609l-0.796,1.346l3.982,1.5l-0.635,1.137l-4.01-1.519l-0.995,1.688l4.616,1.767
			l-0.678,1.227l-6.34-2.444l3.868-6.408l5.919,2.193L42.613,18.314z"/>
		<path fill="#FFFFFF" d="M48.454,23.598c-0.668,0.145-1.47,0.039-2.395-0.313l-1.767-0.671l-1.308,2.468l-1.772-0.685l3.597-6.625
			l3.55,1.314c0.827,0.306,1.4,0.718,1.727,1.236c0.326,0.523,0.314,1.145-0.043,1.865C49.651,22.982,49.12,23.455,48.454,23.598z
			 M48.321,20.676c-0.149-0.229-0.422-0.417-0.82-0.566l-1.573-0.586l-1.022,1.936l1.586,0.599c0.403,0.152,0.76,0.19,1.065,0.115
			c0.305-0.078,0.547-0.29,0.723-0.637C48.454,21.191,48.469,20.905,48.321,20.676z"/>
	</g>
	<g>
		<path fill="#D9E3E8" d="M13.234,15.945c0,0-4.02,5.699-7.444,7.262c-2.515,1.147-4.093-0.018-4.643,1.875
			c-3.297,11.396,42.175,30.535,42.175,30.535c2.147,0.947,4.603,0.031,5.456-2.011l8.629-20.426L13.234,15.945z"/>
	</g>
	<g>
		<path fill="#333333" d="M18.822,26.442l1.322-1.954c1.151,0.411,1.979,0.667,2.481,0.768c0.805,0.162,1.558,0.143,2.256-0.058
			c0.479-0.136,0.935-0.39,1.367-0.756c0.258-0.221,0.425-0.395,0.507-0.518l3.006,1.188l-9.775,15.936l-3.976-1.727l7.145-11.119
			L18.822,26.442z"/>
		<path fill="#333333" d="M32.099,31.839l1.188-2.072c1.206,0.432,2.073,0.702,2.593,0.807c0.833,0.169,1.602,0.147,2.297-0.066
			c0.476-0.146,0.918-0.414,1.331-0.804c0.243-0.234,0.4-0.418,0.471-0.55l3.162,1.25l-8.661,16.938l-4.205-1.825l6.388-11.821
			L32.099,31.839z"/>
	</g>
	<g>
		<path fill="#C7D3D8" d="M63.799,17.207c0.321-1.046,0.576-1.965-1.885-2.636L26.973,2.486c-2.188-0.846-3.021-0.638-4.249,1.013
			L19.83,6.934l42.208,15.135L63.799,17.207z"/>
	</g>
	<polygon fill="#93A2AA" points="62.038,22.068 62.038,28.387 63.812,24.112 64,16.287 	"/>
	<ellipse fill="#69787C" cx="33.588" cy="8.189" rx="1.683" ry="1.443"/>
	<ellipse fill="#69787C" cx="49.336" cy="13.901" rx="1.683" ry="1.443"/>
	<path fill="#E8EDEF" d="M35.22,7.844l13.256,4.818c0,0,0.491,0.313,0.237,2.58c-0.54-0.106-0.97-0.884-0.97-0.884L34.43,9.438
		C34.43,9.438,34.256,9.115,35.22,7.844z"/>
	<path fill="#93A2AA" d="M34.83,8.361l13.256,4.819c0,0,0.343,0.424,0.31,1.921c-0.434-0.271-0.652-0.743-0.652-0.743L34.43,9.438
		C34.43,9.438,34.266,9.193,34.83,8.361z"/>
	<polygon fill="#69787C" points="19.83,7.295 19.83,6.934 62.038,22.068 62.038,28.7 61.914,28.685 61.926,22.337 	"/>
</g>
</svg>
