<?xml version="1.0" encoding="utf-8"?>
<!-- Generator: Adobe Illustrator 15.0.0, SVG Export Plug-In . SVG Version: 6.00 Build 0)  -->
<!DOCTYPE svg PUBLIC "-//W3C//DTD SVG 1.1//EN" "http://www.w3.org/Graphics/SVG/1.1/DTD/svg11.dtd">
<svg version="1.1" id="Layer_1" xmlns="http://www.w3.org/2000/svg" xmlns:xlink="http://www.w3.org/1999/xlink" x="0px" y="0px"
	 width="64px" height="64px" viewBox="0 0 64 64" enable-background="new 0 0 64 64" xml:space="preserve">
<g>
	<path fill="#D0D0D0" d="M24.502,35.532C17.828,42.875,2.865,60.858,0.629,63.097c-0.025,0.023-0.051,0.049-0.076,0.072
		c-0.9,0.9-0.625,1.18,0.275,0.279c1.975-1.969,20.25-17.188,27.648-23.941L24.502,35.532z"/>
	
		<rect x="33.307" y="6.883" transform="matrix(0.7071 0.7071 -0.7071 0.7071 28.2147 -22.6055)" fill="#C94747" width="16.175" height="31.745"/>
	<path fill="#ED4C5C" d="M43.551,54.587c0.875-7.83-2.549-17.085-9.799-24.335S17.24,19.57,9.416,20.441L43.551,54.587z"/>
	<path fill="#ED4C5C" d="M64,22.878c-5.25,0.583-11.449-1.716-16.311-6.573C42.838,11.447,40.539,5.246,41.113,0L64,22.878z"/>
</g>
</svg>
