<?xml version="1.0" encoding="utf-8"?>
<!-- Generator: Adobe Illustrator 15.0.0, SVG Export Plug-In . SVG Version: 6.00 Build 0)  -->
<!DOCTYPE svg PUBLIC "-//W3C//DTD SVG 1.1//EN" "http://www.w3.org/Graphics/SVG/1.1/DTD/svg11.dtd">
<svg version="1.1" id="Layer_1" xmlns="http://www.w3.org/2000/svg" xmlns:xlink="http://www.w3.org/1999/xlink" x="0px" y="0px"
	 width="64px" height="64px" viewBox="0 0 64 64" enable-background="new 0 0 64 64" xml:space="preserve">
<g>
	<path fill="#962C2C" d="M49.252,0.172L26.961,8.724c0,0-0.801-1.97-1.543-3.149c-1.731-2.75-4.691-1.905-4.691-1.905L3.726,9.773
		c0,0-2.348,1.086-3.306,3.965c-0.945,2.838,0,6.298,0,6.298L10.242,64l39.01-37.551c0,0,1.305-16.757,2.086-24.524
		C51.613-0.81,49.252,0.172,49.252,0.172z"/>
	<path fill="#FF8736" d="M10.242,64l42.693-33.353c0,0,10.635-21.438,10.997-22.971c0.435-1.833-1.386-1.222-1.386-1.222
		L39.753,17.106c0,0-1.354,6.026-4.094,7.606c-2.989,1.725-17.001,9.342-17.001,9.342s-1.997,1.311-3.148,3.421
		C14.408,39.496,10.242,64,10.242,64z"/>
</g>
</svg>
