<?xml version="1.0" encoding="utf-8"?>
<!-- Generator: Adobe Illustrator 15.0.0, SVG Export Plug-In . SVG Version: 6.00 Build 0)  -->
<!DOCTYPE svg PUBLIC "-//W3C//DTD SVG 1.1//EN" "http://www.w3.org/Graphics/SVG/1.1/DTD/svg11.dtd">
<svg version="1.1" id="Layer_1" xmlns="http://www.w3.org/2000/svg" xmlns:xlink="http://www.w3.org/1999/xlink" x="0px" y="0px"
	 width="64px" height="64px" viewBox="0 0 64 64" enable-background="new 0 0 64 64" xml:space="preserve">
<g>
	<path fill="#D9E3E8" d="M0,0c17.302,17.046,6.697,46.953,24,64c12.729-8.352,27.271-16.648,40-25c-7.652-7.539-8.296-18.363-10-28
		C46.061,7.975,37.4,4.049,25,0H0z"/>
	<g>
		<path fill="#7D8B91" d="M13.042,9.016c0.418,0.813,0.8,1.641,1.146,2.48c5.411-0.988,10.819-1.975,16.229-2.962
			c-0.3-0.73-0.632-1.448-0.995-2.157C23.961,7.257,18.5,8.136,13.042,9.016z"/>
		<path fill="#7D8B91" d="M16.39,18.801c5.313-1.305,10.627-2.611,15.941-3.916c-0.166-0.779-0.349-1.55-0.556-2.313
			c-5.342,1.189-10.682,2.379-16.025,3.568C15.987,17.02,16.199,17.906,16.39,18.801z"/>
		<path fill="#7D8B91" d="M17.587,26.46c10.524-3.278,21.05-6.557,31.571-9.834c-0.077-0.682-0.164-1.362-0.259-2.04
			c-10.556,3.038-21.109,6.076-31.663,9.113C17.365,24.616,17.479,25.536,17.587,26.46z"/>
	</g>
	<path opacity="0.5" fill="#333333" d="M25,0c4.854,4.784,2.92,17.885,4,24c7.046-1.857,17.954-11.144,25-13
		C46.061,7.975,37.4,4.049,25,0z"/>
	<path fill="#7D8B91" d="M22.112,51.324c0.354,0.838,0.743,1.664,1.17,2.475c5.015-2.83,10.028-5.66,15.041-8.49
		c-0.371-0.705-0.709-1.422-1.017-2.15C32.242,45.881,27.178,48.602,22.112,51.324z"/>
	<path fill="#D9E3E8" d="M25,0c4.854,4.784,6.6,10.571,7.68,16.686C39.726,14.829,46.954,12.856,54,11C46.061,7.975,37.4,4.049,25,0
		z"/>
</g>
</svg>
