<?xml version="1.0" encoding="utf-8"?>
<!-- Generator: Adobe Illustrator 15.0.0, SVG Export Plug-In . SVG Version: 6.00 Build 0)  -->
<!DOCTYPE svg PUBLIC "-//W3C//DTD SVG 1.1//EN" "http://www.w3.org/Graphics/SVG/1.1/DTD/svg11.dtd">
<svg version="1.1" id="Layer_1" xmlns="http://www.w3.org/2000/svg" xmlns:xlink="http://www.w3.org/1999/xlink" x="0px" y="0px"
	 width="64px" height="64px" viewBox="0 0 64 64" enable-background="new 0 0 64 64" xml:space="preserve">
<g>
	<path fill="#D9E3E8" d="M43.869,3.526c0,0-3.908-4.59-10.169-3.296C27.163,1.582,9.703,5.677,9.703,5.677l9.926,3.896L43.869,3.526
		z"/>
	<g>
		<path fill="#699635" d="M48.544,8.948c2.163-0.723,5.219,1.705,6.789,6.021c1.433,3.941,0.741,8.806-1.584,9.667l-3.062,0.584
			l-4.94-15.764L48.544,8.948z"/>
		<path fill="#83BF4F" d="M45.747,9.457c2.163-0.723,5.219,1.705,6.79,6.022c1.432,3.941,0.74,8.806-1.585,9.667
			c-2.131,0.789-5.508-1.636-6.74-6.098C43.023,14.746,43.316,10.271,45.747,9.457z"/>
		<path fill="#699635" d="M44.43,11.881c1.723-0.575,4.157,1.358,5.406,4.797c1.143,3.139,0.59,7.012-1.261,7.698l-2.438,0.465
			l-3.936-12.554L44.43,11.881z"/>
	</g>
	<g>
		<path fill="#83BF4F" d="M52.56,51.929c-1.054,0-2.139-0.159-3.167-0.526c-4.53-1.606-12.756-10.098-13.68-11.061l2.631-2.451
			c2.346,2.445,9.12,9.035,12.273,10.154c1.928,0.684,4.337,0.122,5.146-0.564c1.766-1.499,2.738-4.157,2.604-7.111
			c-0.128-2.825-1.275-5.332-2.993-6.543c-5.911-4.17-8.37-10.439-8.37-10.439c0.313-2.219,2.188-1.702,2.188-1.702
			c0.021,0.059,1.722,5.015,8.291,9.239c2.718,1.748,4.322,5.332,4.502,9.285c0.185,4.039-1.258,7.768-3.858,9.975
			C56.927,51.203,54.808,51.929,52.56,51.929z"/>
	</g>
	<path fill="#C7D3D8" d="M51.613,34.16c0,0-0.299,4.028-6.94,6.211c-4.277,1.406-23.366,7.504-23.366,7.504l6.684-6.082
		L51.613,34.16z"/>
	<path fill="#93A2AA" d="M21.138,24.841L19.629,9.573c0,0-10.16-11.302-16.195,3.271c-1.481,3.58-0.473,11.695,0.404,15.466
		c0.899,3.871,3.837,11.621,6.638,14.475c12.07,12.293,17.515-0.992,17.515-0.992l-6.149-14.474l23.336-6.643l-0.504-2.875
		L21.138,24.841z"/>
	<polygon fill="#C7D3D8" points="43.869,3.526 44.673,17.802 21.138,24.841 19.629,9.573 	"/>
	<polygon fill="#D9E3E8" points="51.613,34.16 27.99,41.793 21.841,27.319 45.177,20.677 	"/>
	<g>
		<g>
			<path fill="#3E4347" d="M31.513,29.6c-0.122,0-0.246-0.019-0.368-0.058c-0.636-0.2-0.985-0.869-0.781-1.495
				c0.007-0.024,0.848-2.71,0.014-4.983c-0.787-2.147-2.521-3.252-2.539-3.262c-0.561-0.352-0.73-1.084-0.379-1.639
				c0.354-0.554,1.091-0.728,1.656-0.382c0.099,0.061,2.451,1.521,3.532,4.474c1.117,3.048,0.061,6.377,0.014,6.517
				C32.497,29.277,32.023,29.6,31.513,29.6z"/>
		</g>
		<g>
			<path fill="#3E4347" d="M38.325,27.865c-0.121,0-0.246-0.02-0.368-0.059c-0.636-0.199-0.985-0.869-0.781-1.494
				c0.007-0.025,0.848-2.711,0.014-4.984c-0.787-2.147-2.521-3.251-2.538-3.262c-0.562-0.351-0.731-1.084-0.379-1.639
				c0.352-0.554,1.089-0.727,1.655-0.381c0.099,0.06,2.451,1.521,3.532,4.473c1.117,3.049,0.061,6.377,0.015,6.518
				C39.31,27.542,38.836,27.865,38.325,27.865z"/>
		</g>
	</g>
	<g>
		<path fill="#699635" d="M12.658,20.651c1.724-0.575,4.156,1.358,5.405,4.796c1.143,3.139,0.591,7.013-1.261,7.699l-3.32,0.654
			L9.379,21.294L12.658,20.651z"/>
		<path fill="#83BF4F" d="M7.011,20.167c2.163-0.723,5.22,1.705,6.788,6.022c1.435,3.941,0.741,8.805-1.583,9.666l-3.062,0.584
			l-4.94-15.763L7.011,20.167z"/>
		<path fill="#699635" d="M4.214,20.677c2.162-0.723,5.219,1.705,6.788,6.022c1.434,3.941,0.741,8.805-1.584,9.666
			c-2.131,0.789-5.506-1.636-6.738-6.097C1.489,25.966,1.781,21.489,4.214,20.677z"/>
	</g>
	<g>
		<path fill="#83BF4F" d="M21.339,64c-5.96,0-13.705-7.564-16.186-11.619c-1.429-2.333-1.087-4.186-0.551-5.328
			c1.071-2.275,3.677-3.542,5.873-4.268l3.209,2.807c-1.733,0.279-5.014,1.294-5.797,2.963c-0.1,0.215-0.368,0.785,0.365,1.982
			c2.382,3.893,9.074,9.895,13.086,9.895c2.042,0,3.476-1.036,4.263-3.079c1.589-4.124,0.018-11.202-5.365-15.909
			c-2.965-2.596-4.765-6.722-4.889-9.119c0,0,0.418-1.766,1.938-1.543c0,0,3.129,6.043,5.355,7.992
			c6.796,5.946,8.342,14.663,6.345,19.847C27.67,62.039,24.883,64,21.339,64z"/>
	</g>
</g>
</svg>
