<?xml version="1.0" encoding="utf-8"?>
<!-- Generator: Adobe Illustrator 15.0.0, SVG Export Plug-In . SVG Version: 6.00 Build 0)  -->
<!DOCTYPE svg PUBLIC "-//W3C//DTD SVG 1.1//EN" "http://www.w3.org/Graphics/SVG/1.1/DTD/svg11.dtd">
<svg version="1.1" id="Layer_1" xmlns="http://www.w3.org/2000/svg" xmlns:xlink="http://www.w3.org/1999/xlink" x="0px" y="0px"
	 width="64px" height="64px" viewBox="0 0 64 64" enable-background="new 0 0 64 64" xml:space="preserve">
<g>
	<path fill="#962C2C" d="M54.362,0.171L29.759,8.723c0,0-0.884-1.97-1.702-3.149c-1.912-2.75-5.179-1.905-5.179-1.905L4.112,9.772
		c0,0-2.592,1.086-3.649,3.965c-1.042,2.838,0,6.298,0,6.298L11.306,64l43.057-37.551c0,0,1.44-16.757,2.303-24.524
		C56.969-0.811,54.362,0.171,54.362,0.171z"/>
	<polygon fill="#9AABAF" points="53.619,24.855 57.525,0.171 3.369,20.501 11.25,63.482 	"/>
	<polygon fill="#B3C0C4" points="54.939,27.81 58.846,0.911 4.689,22.057 11.25,63.482 	"/>
	<polygon fill="#C5CFD3" points="55.913,28.587 60.305,1.415 5.787,23.598 11.25,63.482 	"/>
	<polygon fill="#D9E3E8" points="57.108,29.714 61.278,2.426 6.857,25.36 11.25,63.482 	"/>
	<path fill="#FF8736" d="M11.306,64l47.122-33.353l5.526-24.839c0,0,0.274-0.804-0.521-1.75c-0.556-0.661-1.528-0.389-1.528-0.389
		l-25.16,10.652c0,0-1.494,6.026-4.519,7.606c-3.3,1.725-18.766,9.343-18.766,9.343s-2.204,1.31-3.475,3.419
		c-1.216,2.021-1.39,4.51-1.39,4.51L11.306,64z"/>
</g>
</svg>
