<?xml version="1.0" encoding="utf-8"?>
<!-- Generator: Adobe Illustrator 15.0.0, SVG Export Plug-In . SVG Version: 6.00 Build 0)  -->
<!DOCTYPE svg PUBLIC "-//W3C//DTD SVG 1.1//EN" "http://www.w3.org/Graphics/SVG/1.1/DTD/svg11.dtd">
<svg version="1.1" id="Layer_1" xmlns="http://www.w3.org/2000/svg" xmlns:xlink="http://www.w3.org/1999/xlink" x="0px" y="0px"
	 width="64px" height="64px" viewBox="0 0 64 64" enable-background="new 0 0 64 64" xml:space="preserve">
<g>
	<path fill="none" stroke="#BA9372" stroke-miterlimit="10" d="M2.909,19.158c0,0,24.822-14.91,28.003-14.91
		s29.176,14.91,29.176,14.91"/>
	<path fill="#93A2AA" d="M64,56.793c0,1.634-1.301,2.959-2.907,2.959H5.087c-1.606,0-2.909-1.325-2.909-2.959V21.117
		c0-1.634,1.303-2.959,2.909-2.959h56.006c1.606,0,2.907,1.325,2.907,2.959V56.793z"/>
	<g>
		<path fill="#ED4C5C" d="M61.824,21.117c0-1.634-1.304-2.959-2.91-2.959H2.909C1.303,18.158,0,19.483,0,21.117v9.457h61.824V21.117
			z"/>
		<path fill="#D9E3E8" d="M0,30.574v26.219c0,1.634,1.303,2.959,2.909,2.959h56.005c1.606,0,2.91-1.325,2.91-2.959V30.574H0z"/>
	</g>
	<g>
		<path fill="#FFFFFF" d="M3.104,26.051c0.045,0.319,0.132,0.557,0.261,0.715c0.239,0.287,0.646,0.43,1.221,0.43
			c0.346,0,0.626-0.038,0.841-0.114c0.409-0.145,0.613-0.415,0.613-0.809c0-0.23-0.102-0.408-0.301-0.534
			c-0.2-0.123-0.518-0.231-0.952-0.327l-0.742-0.165c-0.729-0.164-1.23-0.342-1.503-0.535c-0.462-0.322-0.693-0.824-0.693-1.509
			c0-0.624,0.227-1.143,0.678-1.556c0.453-0.413,1.117-0.62,1.992-0.62c0.731,0,1.354,0.195,1.872,0.584
			c0.516,0.39,0.786,0.955,0.813,1.696H5.824c-0.025-0.419-0.21-0.717-0.552-0.895c-0.229-0.116-0.515-0.175-0.854-0.175
			c-0.378,0-0.68,0.076-0.906,0.228c-0.225,0.151-0.338,0.362-0.338,0.634c0,0.249,0.111,0.435,0.334,0.558
			c0.143,0.082,0.447,0.178,0.91,0.289l1.204,0.289c0.525,0.126,0.922,0.294,1.185,0.506c0.408,0.328,0.614,0.803,0.614,1.424
			c0,0.637-0.243,1.167-0.728,1.587c-0.484,0.422-1.168,0.631-2.052,0.631c-0.903,0-1.612-0.207-2.13-0.621
			c-0.517-0.415-0.775-0.985-0.775-1.711H3.104z"/>
		<path fill="#FFFFFF" d="M13.494,22.466H9.866v1.48h3.33v1.211h-3.33v1.792h3.795v1.254H8.467V21.23h5.027V22.466z"/>
		<path fill="#FFFFFF" d="M19.38,25.186c-0.4,0.34-0.975,0.51-1.72,0.51h-1.427v2.508H14.81V21.23h2.943
			c0.68,0,1.22,0.18,1.624,0.54c0.402,0.359,0.605,0.916,0.605,1.67C19.982,24.263,19.781,24.845,19.38,25.186z M18.286,22.674
			c-0.182-0.155-0.436-0.232-0.763-0.232h-1.29v2.053h1.29c0.327,0,0.581-0.084,0.763-0.251s0.272-0.432,0.272-0.794
			C18.559,23.087,18.468,22.828,18.286,22.674z"/>
		<path fill="#FFFFFF" d="M26.112,21.23v1.235h-2.051v5.738h-1.442v-5.738h-2.061V21.23H26.112z"/>
		<path fill="#FFFFFF" d="M32.02,22.466h-3.629v1.48h3.33v1.211h-3.33v1.792h3.796v1.254h-5.195V21.23h5.028V22.466z"/>
		<path fill="#FFFFFF" d="M37.851,21.23h2.06v6.974h-1.333v-4.717c0-0.135,0.001-0.325,0.005-0.57
			c0.003-0.244,0.004-0.433,0.004-0.565l-1.299,5.852h-1.393l-1.29-5.852c0,0.132,0.001,0.321,0.004,0.565
			c0.004,0.245,0.005,0.435,0.005,0.57v4.717H33.28V21.23h2.083l1.248,5.483L37.851,21.23z"/>
		<path fill="#FFFFFF" d="M46.35,21.973c0.21,0.297,0.316,0.651,0.316,1.064c0,0.426-0.106,0.769-0.318,1.027
			c-0.119,0.146-0.294,0.278-0.523,0.397c0.35,0.129,0.615,0.334,0.792,0.615c0.179,0.28,0.267,0.621,0.267,1.022
			c0,0.413-0.102,0.784-0.304,1.111c-0.13,0.218-0.292,0.401-0.486,0.549c-0.219,0.171-0.477,0.287-0.774,0.351
			c-0.299,0.063-0.62,0.095-0.969,0.095h-3.089V21.23h3.313C45.409,21.244,46.002,21.491,46.35,21.973z M42.627,22.442v1.538h1.668
			c0.296,0,0.539-0.058,0.724-0.173c0.187-0.115,0.279-0.32,0.279-0.613c0-0.325-0.122-0.539-0.369-0.643
			c-0.211-0.073-0.48-0.109-0.81-0.109H42.627z M42.627,25.133v1.859h1.664c0.299,0,0.529-0.041,0.695-0.123
			c0.301-0.151,0.451-0.441,0.451-0.87c0-0.363-0.146-0.612-0.437-0.748c-0.164-0.076-0.393-0.115-0.686-0.119H42.627z"/>
		<path fill="#FFFFFF" d="M53.187,22.466h-3.629v1.48h3.33v1.211h-3.33v1.792h3.796v1.254h-5.195V21.23h5.028V22.466z"/>
		<path fill="#FFFFFF" d="M58.861,21.411c0.254,0.11,0.467,0.273,0.643,0.487c0.146,0.177,0.261,0.372,0.344,0.586
			c0.086,0.214,0.129,0.459,0.129,0.734c0,0.331-0.082,0.656-0.248,0.976c-0.163,0.32-0.435,0.546-0.813,0.679
			c0.315,0.129,0.54,0.313,0.672,0.551c0.133,0.238,0.197,0.602,0.197,1.09v0.468c0,0.32,0.013,0.535,0.038,0.648
			c0.037,0.18,0.126,0.313,0.265,0.398v0.175h-1.582c-0.043-0.155-0.074-0.28-0.093-0.374c-0.037-0.195-0.058-0.396-0.061-0.601
			l-0.01-0.648c-0.005-0.445-0.08-0.741-0.227-0.89c-0.144-0.148-0.417-0.223-0.816-0.223h-1.397v2.735h-1.4V21.23h3.279
			C58.249,21.241,58.61,21.3,58.861,21.411z M55.902,22.442v1.873h1.541c0.307,0,0.536-0.038,0.689-0.113
			c0.27-0.133,0.405-0.395,0.405-0.786c0-0.422-0.131-0.707-0.394-0.852c-0.146-0.082-0.367-0.123-0.661-0.123H55.902z"/>
	</g>
	<g>
		<rect x="2.685" y="32.957" fill="#93A2AA" width="6.361" height="2.219"/>
		<rect x="11.033" y="32.957" fill="#93A2AA" width="6.361" height="2.219"/>
		<rect x="19.382" y="32.957" fill="#93A2AA" width="6.362" height="2.219"/>
		<rect x="27.731" y="32.957" fill="#93A2AA" width="6.361" height="2.219"/>
		<rect x="36.08" y="32.957" fill="#93A2AA" width="6.361" height="2.219"/>
		<rect x="44.429" y="32.957" fill="#93A2AA" width="6.362" height="2.219"/>
		<rect x="52.778" y="32.957" fill="#93A2AA" width="6.361" height="2.219"/>
		<rect x="27.731" y="37.396" fill="#93A2AA" width="6.361" height="2.22"/>
		<rect x="36.08" y="37.396" fill="#93A2AA" width="6.361" height="2.22"/>
		<rect x="44.429" y="37.396" fill="#93A2AA" width="6.362" height="2.22"/>
		<rect x="52.778" y="37.396" fill="#93A2AA" width="6.361" height="2.22"/>
		<rect x="2.685" y="41.834" fill="#93A2AA" width="6.361" height="2.219"/>
		<rect x="11.033" y="41.834" fill="#93A2AA" width="6.361" height="2.219"/>
		<rect x="19.382" y="41.834" fill="#93A2AA" width="6.362" height="2.219"/>
		<rect x="27.731" y="41.834" fill="#93A2AA" width="6.361" height="2.219"/>
		<rect x="36.08" y="41.834" fill="#93A2AA" width="6.361" height="2.219"/>
		<rect x="44.429" y="41.834" fill="#93A2AA" width="6.362" height="2.219"/>
		<rect x="52.778" y="41.834" fill="#93A2AA" width="6.361" height="2.219"/>
		<rect x="2.685" y="46.271" fill="#93A2AA" width="6.361" height="2.22"/>
		<rect x="11.033" y="46.271" fill="#93A2AA" width="6.361" height="2.22"/>
		<rect x="19.382" y="46.271" fill="#93A2AA" width="6.362" height="2.22"/>
		<rect x="27.731" y="46.271" fill="#93A2AA" width="6.361" height="2.22"/>
		<rect x="36.08" y="46.271" fill="#93A2AA" width="6.361" height="2.22"/>
		<rect x="44.429" y="46.271" fill="#93A2AA" width="6.362" height="2.22"/>
		<rect x="52.778" y="46.271" fill="#93A2AA" width="6.361" height="2.22"/>
		<rect x="2.685" y="50.711" fill="#93A2AA" width="6.361" height="2.219"/>
		<rect x="11.033" y="50.711" fill="#93A2AA" width="6.361" height="2.219"/>
		<rect x="19.382" y="50.711" fill="#93A2AA" width="6.362" height="2.219"/>
		<rect x="27.731" y="50.711" fill="#93A2AA" width="6.361" height="2.219"/>
		<rect x="36.08" y="50.711" fill="#93A2AA" width="6.361" height="2.219"/>
		<rect x="44.429" y="50.711" fill="#93A2AA" width="6.362" height="2.219"/>
		<rect x="52.778" y="50.711" fill="#93A2AA" width="6.361" height="2.219"/>
		<rect x="2.685" y="55.148" fill="#93A2AA" width="6.361" height="2.22"/>
		<rect x="11.033" y="55.148" fill="#93A2AA" width="6.361" height="2.22"/>
		<rect x="19.382" y="55.148" fill="#93A2AA" width="6.362" height="2.22"/>
		<rect x="27.731" y="55.148" fill="#93A2AA" width="6.361" height="2.22"/>
		<rect x="36.08" y="55.148" fill="#93A2AA" width="6.361" height="2.22"/>
		<rect x="44.429" y="55.148" fill="#93A2AA" width="6.362" height="2.22"/>
	</g>
	<circle fill="#333333" cx="31.144" cy="6.248" r="1.945"/>
	<circle fill="#93A2AA" cx="30.912" cy="6.248" r="1.945"/>
</g>
</svg>
