<?xml version="1.0" encoding="utf-8"?>
<!-- Generator: Adobe Illustrator 15.0.0, SVG Export Plug-In . SVG Version: 6.00 Build 0)  -->
<!DOCTYPE svg PUBLIC "-//W3C//DTD SVG 1.1//EN" "http://www.w3.org/Graphics/SVG/1.1/DTD/svg11.dtd">
<svg version="1.1" id="Layer_1" xmlns="http://www.w3.org/2000/svg" xmlns:xlink="http://www.w3.org/1999/xlink" x="0px" y="0px"
	 width="64px" height="64px" viewBox="0 0 64 64" enable-background="new 0 0 64 64" xml:space="preserve">
<g>
	<path fill="#94989B" d="M59.624,23.813c-0.76-0.76-2.029-0.76-2.789,0c-0.539,0.54-31.919,31.921-32.938,32.938
		c-0.145,0.145-0.287,0.289-0.434,0.433c-3.829,3.831-10.061,3.831-13.892,0c-3.829-3.83-3.829-10.063,0-13.892L47.19,5.675
		c2.309-2.31,6.067-2.31,8.375,0c2.24,2.24,2.307,5.843,0.201,8.165l-0.027-0.027L22.862,46.708v-0.002
		c-0.777,0.779-2.037,0.779-2.814,0c-0.759-0.756-0.777-1.971-0.059-2.752c0,0,27.996-28.076,28.451-28.535
		c0.762-0.761,0.764-2.027,0-2.79c-0.758-0.758-1.975-0.705-2.732,0.057c-0.633,0.635-28.057,28.027-28.388,28.358
		c-0.726,0.725-1.228,1.563-1.552,2.533c-0.369,1.107-0.348,2.446,0.037,3.545c0.475,1.359,1.346,2.455,2.564,3.229
		c2.265,1.434,5.371,1.027,7.261-0.832l0,0l32.693-32.71l0.031,0.031c3.849-3.847,3.849-10.107,0-13.956
		c-3.848-3.847-10.108-3.847-13.954,0.001L6.782,40.503c-5.366,5.368-5.366,14.102,0,19.471c5.369,5.369,14.105,5.369,19.471,0
		c0.543-0.54,33.228-33.227,33.371-33.372C60.385,25.842,60.385,24.573,59.624,23.813z"/>
</g>
</svg>
