<?xml version="1.0" encoding="utf-8"?>
<!-- Generator: Adobe Illustrator 15.0.0, SVG Export Plug-In . SVG Version: 6.00 Build 0)  -->
<!DOCTYPE svg PUBLIC "-//W3C//DTD SVG 1.1//EN" "http://www.w3.org/Graphics/SVG/1.1/DTD/svg11.dtd">
<svg version="1.1" id="Layer_1" xmlns="http://www.w3.org/2000/svg" xmlns:xlink="http://www.w3.org/1999/xlink" x="0px" y="0px"
	 width="64px" height="64px" viewBox="0 0 64 64" enable-background="new 0 0 64 64" xml:space="preserve">
<g>
	<path fill="#D3976E" d="M35.695,62.214c-1.364,2.084-4.447,2.382-6.84,0.696L1.827,43.879c-1.849-1.302-2.376-3.79-1.206-5.577
		L24.398,1.98c1.171-1.788,3.792-2.499,5.889-1.576l30.648,13.5c2.715,1.195,3.85,3.872,2.485,5.956L35.695,62.214z"/>
	<polygon fill="#FFFFFF" points="31.394,59.752 3.535,40.705 28.039,3.274 59.087,17.451 	"/>
	<path fill="#94989B" d="M49.032,14.791c-0.391,0.597-1.312,0.797-2.055,0.449l-11.72-5.503c-0.674-0.316-0.917-1.027-0.547-1.592
		l1.838-2.809c0.37-0.564,1.219-0.777,1.9-0.475l11.873,5.271c0.751,0.333,1.047,1.089,0.656,1.687L49.032,14.791z"/>
	<path fill="#333333" d="M46.788,11.143l-7.55-3.427l1.864-2.847c0.374-0.571,1.243-0.789,1.946-0.483l5.024,2.179
		c0.734,0.319,1.02,1.057,0.636,1.646L46.788,11.143z"/>
	<g>
		<polygon fill="#83BF4F" points="47.342,26.576 31.665,18.536 32.488,17.279 48.218,25.238 		"/>
		<g>
			<path fill="#83BF4F" d="M26.723,17.713c-0.173,0.097-0.363,0.03-0.424-0.147l-0.964-2.84c-0.06-0.173,0.057-0.351,0.256-0.392
				l0.366-0.077c0.202-0.042,0.415,0.067,0.476,0.241l0.509,1.486c0.062,0.177,0.252,0.242,0.424,0.144l2.905-1.636
				c0.175-0.098,0.422-0.053,0.55,0.1l0.233,0.279c0.129,0.154,0.089,0.361-0.085,0.459L26.723,17.713z"/>
		</g>
	</g>
	<g>
		<polygon fill="#B0BDC6" points="42.215,34.407 26.849,25.892 27.672,24.635 43.092,33.069 		"/>
		<polygon fill="#B0BDC6" points="23.906,26.19 19.37,23.64 21.987,19.64 26.575,22.111 		"/>
	</g>
	<g>
		<polygon fill="#B0BDC6" points="37.088,42.239 22.034,33.247 22.857,31.99 37.964,40.9 		"/>
		<polygon fill="#B0BDC6" points="19.131,33.483 14.688,30.791 17.306,26.792 21.802,29.405 		"/>
	</g>
	<g>
		<polygon fill="#B0BDC6" points="31.962,50.069 17.219,40.603 18.042,39.346 32.838,48.731 		"/>
		<polygon fill="#B0BDC6" points="14.357,40.776 10.006,37.942 12.625,33.944 17.027,36.698 		"/>
	</g>
</g>
</svg>
