<?xml version="1.0" encoding="utf-8"?>
<!-- Generator: Adobe Illustrator 15.0.0, SVG Export Plug-In . SVG Version: 6.00 Build 0)  -->
<!DOCTYPE svg PUBLIC "-//W3C//DTD SVG 1.1//EN" "http://www.w3.org/Graphics/SVG/1.1/DTD/svg11.dtd">
<svg version="1.1" id="Layer_1" xmlns="http://www.w3.org/2000/svg" xmlns:xlink="http://www.w3.org/1999/xlink" x="0px" y="0px"
	 width="64px" height="64px" viewBox="0 0 64 64" enable-background="new 0 0 64 64" xml:space="preserve">
<g>
	<g>
		<g>
			<g>
				<path fill="#FFCE31" d="M0.687,61.83C-0.507,63.024-0.102,64,1.586,64h59.345c1.688,0,3.07-1.381,3.07-3.069V1.585
					c0-1.688-0.979-2.093-2.171-0.899L0.687,61.83z M49.832,46.761c0,1.688-1.381,3.069-3.069,3.069h-10.96
					c-1.688,0-2.092-0.977-0.899-2.17L47.66,34.904c1.194-1.192,2.172-0.789,2.172,0.899V46.761z"/>
			</g>
		</g>
	</g>
	<g>
		<rect x="2.373" y="61.334" fill="#89664C" width="1.006" height="2.666"/>
		<rect x="5.347" y="61.334" fill="#89664C" width="1.005" height="2.666"/>
		<rect x="8.323" y="61.334" fill="#89664C" width="1.005" height="2.666"/>
		<rect x="11.296" y="58.988" fill="#89664C" width="1.006" height="5.012"/>
		<rect x="14.438" y="61.334" fill="#89664C" width="1.006" height="2.666"/>
		<rect x="17.413" y="61.334" fill="#89664C" width="1.006" height="2.666"/>
		<rect x="20.388" y="61.334" fill="#89664C" width="1.006" height="2.666"/>
		<rect x="23.363" y="58.988" fill="#89664C" width="1.005" height="5.012"/>
		<rect x="26.504" y="61.334" fill="#89664C" width="1.005" height="2.666"/>
		<rect x="29.479" y="61.334" fill="#89664C" width="1.006" height="2.666"/>
		<rect x="32.453" y="61.334" fill="#89664C" width="1.007" height="2.666"/>
		<rect x="35.43" y="58.988" fill="#89664C" width="1.005" height="5.012"/>
		<rect x="38.57" y="61.334" fill="#89664C" width="1.006" height="2.666"/>
		<rect x="41.545" y="61.334" fill="#89664C" width="1.007" height="2.666"/>
		<rect x="44.521" y="61.334" fill="#89664C" width="1.005" height="2.666"/>
		<rect x="47.496" y="58.988" fill="#89664C" width="1.005" height="5.012"/>
		<rect x="50.637" y="61.334" fill="#89664C" width="1.006" height="2.666"/>
		<rect x="53.611" y="61.334" fill="#89664C" width="1.006" height="2.666"/>
		<rect x="56.586" y="61.334" fill="#89664C" width="1.005" height="2.666"/>
		<rect x="59.562" y="58.988" fill="#89664C" width="1.006" height="5.012"/>
	</g>
</g>
</svg>
