<?xml version="1.0" encoding="utf-8"?>
<!-- Generator: Adobe Illustrator 15.0.0, SVG Export Plug-In . SVG Version: 6.00 Build 0)  -->
<!DOCTYPE svg PUBLIC "-//W3C//DTD SVG 1.1//EN" "http://www.w3.org/Graphics/SVG/1.1/DTD/svg11.dtd">
<svg version="1.1" id="Layer_1" xmlns="http://www.w3.org/2000/svg" xmlns:xlink="http://www.w3.org/1999/xlink" x="0px" y="0px"
	 width="64px" height="64px" viewBox="0 0 64 64" enable-background="new 0 0 64 64" xml:space="preserve">
<g>
	<path fill="#962C2C" d="M54.976,35.149l7.528,7.439L29.213,58.378c0,0-4.407,2.015-6.483-1.204
		C14.516,44.444,54.976,35.149,54.976,35.149z"/>
	<path fill="#D9E3E8" d="M28.371,49.128c0,0-6.374,2.238-5.205,6.467c1.214,4.393,6.28,1.722,6.28,1.722L61.07,42.589
		c0,0-1.776-4.664,1.434-7.838L28.371,49.128z"/>
	<polygon fill="#FFCE31" points="33.733,5 64,34.524 28.212,48.53 5.234,12.655 	"/>
	<polygon fill="#FFFFFF" points="34.617,11.742 40.444,17.917 18.693,25.672 13.558,17.805 	"/>
	<g>
		<polygon fill="#94989B" points="61.049,38.022 39.874,46.626 60.652,37.104 		"/>
	</g>
	<g>
		<polygon fill="#94989B" points="60.725,40.559 38.222,49.856 60.324,39.643 		"/>
	</g>
	<g>
		<polygon fill="#94989B" points="60.933,42.045 32.206,54.45 60.522,41.133 		"/>
	</g>
	<path fill="#FF8736" d="M22.729,57.174c-3.491-7.317,5.482-8.644,5.482-8.644L5.234,12.655c0,0-5.234-0.143-5.234,5.27
		c0,2.233,1.019,3.897,1.019,3.897L22.729,57.174z"/>
</g>
</svg>
