<?xml version="1.0" encoding="utf-8"?>
<!-- Generator: Adobe Illustrator 15.0.0, SVG Export Plug-In . SVG Version: 6.00 Build 0)  -->
<!DOCTYPE svg PUBLIC "-//W3C//DTD SVG 1.1//EN" "http://www.w3.org/Graphics/SVG/1.1/DTD/svg11.dtd">
<svg version="1.1" id="Layer_1" xmlns="http://www.w3.org/2000/svg" xmlns:xlink="http://www.w3.org/1999/xlink" x="0px" y="0px"
	 width="64px" height="64px" viewBox="0 0 64 64" enable-background="new 0 0 64 64" xml:space="preserve">
<g>
	<path fill="#3E4347" d="M44.209,1.537l-14.63,60.638l29.396-8.012c3.295-0.924,5.229-4.3,4.32-7.539L51.82,5.728
		C50.912,2.489,47.504,0.612,44.209,1.537z"/>
	<path fill="#E9F3FA" d="M41.837,0.901L29.579,62.175l29.158-9.293c3.254-1.059,5.049-4.51,4.009-7.709L49.613,4.778
		C48.573,1.579,45.091-0.157,41.837,0.901z"/>
	<path fill="#D3976E" d="M39.791,0.381l-27.66,10.066l-4.366,1.59c-3.216,1.17-3.296,3.022-2.146,6.183l15.569,42.776
		c1.15,3.162,2.056,3.574,5.271,2.404l4.367-1.59l27.659-10.066c3.216-1.172,4.89-4.684,3.739-7.846L47.698,3.986
		C46.547,0.825,43.007-0.789,39.791,0.381z"/>
	<g>
		<g>
			<circle fill="#3E4347" cx="8.621" cy="14.936" r="1.609"/>
			<circle fill="#3E4347" cx="10.843" cy="21.044" r="1.609"/>
			<circle fill="#3E4347" cx="13.041" cy="27.079" r="1.609"/>
			<circle fill="#3E4347" cx="15.237" cy="33.115" r="1.609"/>
		</g>
		<g>
			<path fill="#3E4347" d="M10.362,31.228c-0.26-0.713-0.227-1.59-1.031-1.349c-1.125,0.339-2.412,0.58-3.236-0.28
				c-0.301-0.314-0.859-0.283-1.026,0.156c-0.239,0.626,0.434,1.341,0.928,1.614C7.304,32.09,9.045,31.698,10.362,31.228
				C10.362,31.228,9.366,31.583,10.362,31.228z M6.286,29.893C6.323,29.966,6.286,29.891,6.286,29.893
				C6.29,29.901,6.286,29.894,6.286,29.893z"/>
			<path fill="#3E4347" d="M8.166,25.193c-0.107-0.293-0.214-0.586-0.32-0.88c-0.212-0.581-0.054-0.669-0.711-0.47
				c-1.125,0.34-2.412,0.58-3.235-0.279c-0.301-0.314-0.859-0.284-1.026,0.156c-0.239,0.626,0.434,1.342,0.928,1.615
				C5.106,26.055,6.85,25.662,8.166,25.193C8.166,25.193,7.17,25.548,8.166,25.193z M4.089,23.858
				C4.122,23.905,4.099,23.874,4.089,23.858C4.094,23.865,4.089,23.858,4.089,23.858z"/>
			<path fill="#3E4347" d="M5.969,19.158c-0.106-0.293-0.213-0.586-0.32-0.88c-0.211-0.581-0.054-0.669-0.71-0.47
				c-1.126,0.341-2.411,0.578-3.235-0.28c-0.301-0.313-0.859-0.283-1.027,0.156c-0.24,0.626,0.435,1.342,0.928,1.615
				C2.909,20.021,4.652,19.626,5.969,19.158C5.969,19.158,4.973,19.513,5.969,19.158z M1.893,17.822
				C1.931,17.894,1.893,17.819,1.893,17.822C1.896,17.83,1.893,17.823,1.893,17.822z"/>
			<path fill="#3E4347" d="M12.56,37.265c-0.107-0.293-0.214-0.587-0.32-0.88c-0.212-0.581-0.054-0.67-0.711-0.471
				c-1.125,0.341-2.412,0.579-3.235-0.278c-0.301-0.314-0.859-0.283-1.026,0.156c-0.239,0.626,0.434,1.342,0.928,1.614
				C9.5,38.127,11.244,37.734,12.56,37.265C12.56,37.265,11.563,37.62,12.56,37.265z M8.482,35.929
				C8.521,36.006,8.482,35.922,8.482,35.929C8.486,35.937,8.482,35.93,8.482,35.929z"/>
		</g>
		<g>
			<g>
				<path fill="#94989B" d="M12.511,27.272c-0.538-1.36-5.941,0.84-6.341,2.363c0.028-0.091,0.031-0.079,0.009,0.037
					c0.009-0.032,0.007-0.063-0.006-0.094c0.399,1.21-1.369,1.263-1.298-0.283c0.081-1.749,2.168-2.812,3.571-3.333
					c1.306-0.484,3.066-0.858,4.365-0.141C14.666,26.846,13.042,28.595,12.511,27.272C12.442,27.099,12.511,27.272,12.511,27.272z"
					/>
			</g>
			<g>
				<path fill="#94989B" d="M10.314,21.237c-0.543-1.358-5.949,0.836-6.341,2.363c0.027-0.091,0.03-0.079,0.009,0.038
					c0.009-0.032,0.007-0.063-0.006-0.094c0.398,1.211-1.369,1.263-1.298-0.283c0.08-1.749,2.169-2.811,3.572-3.331
					c1.305-0.485,3.066-0.858,4.365-0.142C12.471,20.811,10.844,22.559,10.314,21.237C10.245,21.063,10.314,21.237,10.314,21.237z"
					/>
			</g>
			<g>
				<path fill="#94989B" d="M8.118,15.201c-0.544-1.361-5.942,0.84-6.342,2.363c0.028-0.091,0.031-0.079,0.009,0.037
					c0.011-0.032,0.009-0.063-0.005-0.094c0.398,1.212-1.369,1.263-1.299-0.283c0.08-1.749,2.169-2.811,3.571-3.332
					c1.306-0.485,3.067-0.858,4.366-0.142C10.273,14.775,8.648,16.524,8.118,15.201C8.049,15.028,8.118,15.201,8.118,15.201z"/>
			</g>
			<g>
				<path fill="#94989B" d="M14.708,33.308c-0.548-1.358-5.945,0.837-6.341,2.363c0.027-0.092,0.03-0.079,0.009,0.037
					c0.009-0.031,0.007-0.063-0.006-0.094c0.398,1.211-1.369,1.264-1.298-0.282c0.08-1.749,2.17-2.812,3.572-3.333
					c1.304-0.485,3.067-0.857,4.365-0.142C16.863,32.88,15.237,34.631,14.708,33.308C14.639,33.136,14.708,33.308,14.708,33.308z"/>
			</g>
		</g>
		<g>
			<g>
				<path fill="#D0D0D0" d="M8.804,26.944c-0.831,0.311-1.627,0.721-2.311,1.326c-0.306,0.271-0.936,0.861-0.738,1.461
					c0.097,0.294-0.262,0.426-0.358,0.13c-0.242-0.736,0.221-1.343,0.599-1.755c0.72-0.783,1.696-1.263,2.644-1.613
					C8.869,26.407,9.034,26.86,8.804,26.944L8.804,26.944z"/>
			</g>
			<g>
				<path fill="#D0D0D0" d="M6.606,20.909c-0.83,0.309-1.627,0.72-2.31,1.326c-0.306,0.271-0.936,0.86-0.738,1.461
					c0.097,0.294-0.262,0.426-0.359,0.13c-0.241-0.737,0.222-1.343,0.599-1.756c0.72-0.782,1.697-1.262,2.644-1.614
					C6.673,20.372,6.838,20.824,6.606,20.909L6.606,20.909z"/>
			</g>
			<g>
				<path fill="#D0D0D0" d="M4.41,14.875c-0.831,0.308-1.627,0.719-2.311,1.324C1.794,16.47,1.164,17.06,1.361,17.66
					c0.097,0.294-0.262,0.426-0.358,0.131c-0.242-0.738,0.221-1.343,0.599-1.755c0.72-0.783,1.697-1.262,2.644-1.614
					C4.476,14.336,4.641,14.789,4.41,14.875L4.41,14.875z"/>
			</g>
			<g>
				<path fill="#D0D0D0" d="M11,32.98c-0.831,0.309-1.627,0.72-2.31,1.326c-0.307,0.271-0.936,0.86-0.739,1.461
					c0.097,0.294-0.261,0.426-0.358,0.131c-0.241-0.736,0.221-1.344,0.599-1.755c0.72-0.784,1.697-1.263,2.644-1.615
					C11.065,32.442,11.23,32.895,11,32.98L11,32.98z"/>
			</g>
		</g>
	</g>
	<g>
		<g>
			<circle fill="#3E4347" cx="17.464" cy="39.235" r="1.609"/>
			<circle fill="#3E4347" cx="19.688" cy="45.343" r="1.609"/>
			<circle fill="#3E4347" cx="21.884" cy="51.378" r="1.609"/>
			<circle fill="#3E4347" cx="24.081" cy="57.413" r="1.609"/>
		</g>
		<g>
			<path fill="#3E4347" d="M19.206,55.527c-0.26-0.713-0.227-1.592-1.03-1.349c-1.125,0.339-2.413,0.578-3.235-0.28
				c-0.301-0.313-0.859-0.284-1.027,0.155c-0.24,0.627,0.434,1.342,0.928,1.614C16.147,56.39,17.889,55.996,19.206,55.527
				C19.206,55.527,18.21,55.882,19.206,55.527z M15.13,54.192C15.158,54.241,15.141,54.21,15.13,54.192
				C15.134,54.199,15.13,54.192,15.13,54.192z"/>
			<path fill="#3E4347" d="M17.01,49.492c-0.106-0.293-0.213-0.586-0.32-0.88c-0.211-0.581-0.054-0.668-0.711-0.47
				c-1.123,0.34-2.413,0.58-3.236-0.279c-0.301-0.314-0.859-0.283-1.026,0.156c-0.239,0.626,0.434,1.342,0.928,1.614
				C13.95,50.354,15.694,49.962,17.01,49.492C17.01,49.492,16.014,49.848,17.01,49.492z M12.934,48.157
				C12.966,48.205,12.942,48.171,12.934,48.157C12.938,48.163,12.934,48.157,12.934,48.157z"/>
			<path fill="#3E4347" d="M14.813,43.457c-0.26-0.713-0.228-1.593-1.031-1.35c-1.127,0.341-2.41,0.578-3.235-0.28
				c-0.301-0.313-0.859-0.282-1.027,0.156c-0.24,0.626,0.435,1.343,0.928,1.615C11.753,44.32,13.498,43.925,14.813,43.457
				C14.813,43.457,13.816,43.812,14.813,43.457z M10.736,42.122C10.763,42.169,10.748,42.14,10.736,42.122
				C10.74,42.129,10.736,42.122,10.736,42.122z"/>
			<path fill="#3E4347" d="M21.403,61.563c-0.107-0.293-0.214-0.587-0.32-0.88c-0.212-0.581-0.054-0.669-0.711-0.471
				c-1.124,0.34-2.412,0.58-3.235-0.279c-0.301-0.313-0.859-0.282-1.026,0.156c-0.239,0.627,0.435,1.343,0.928,1.615
				C18.344,62.426,20.087,62.033,21.403,61.563C21.403,61.563,20.407,61.919,21.403,61.563z M17.326,60.228
				C17.368,60.295,17.329,60.228,17.326,60.228C17.331,60.235,17.327,60.228,17.326,60.228z"/>
		</g>
		<g>
			<g>
				<path fill="#94989B" d="M21.355,51.57c-0.547-1.363-5.942,0.844-6.342,2.364c0.028-0.092,0.031-0.079,0.01,0.037
					c0.008-0.032,0.006-0.063-0.006-0.095c0.398,1.213-1.369,1.263-1.299-0.283c0.08-1.747,2.169-2.812,3.571-3.331
					c1.306-0.484,3.066-0.858,4.366-0.142C23.51,51.146,21.885,52.893,21.355,51.57C21.286,51.397,21.355,51.57,21.355,51.57z"/>
			</g>
			<g>
				<path fill="#94989B" d="M19.158,45.536c-0.533-1.355-5.949,0.835-6.341,2.363c0.027-0.092,0.03-0.08,0.009,0.037
					c0.009-0.031,0.008-0.063-0.005-0.094c0.397,1.212-1.369,1.261-1.299-0.283c0.079-1.75,2.169-2.81,3.571-3.332
					c1.305-0.484,3.066-0.858,4.365-0.142C21.314,45.109,19.688,46.857,19.158,45.536C19.09,45.362,19.158,45.536,19.158,45.536z"/>
			</g>
			<g>
				<path fill="#94989B" d="M16.962,39.5c-0.543-1.354-5.948,0.832-6.341,2.363c0.027-0.091,0.03-0.078,0.009,0.037
					c0.009-0.031,0.007-0.063-0.006-0.093c0.398,1.212-1.369,1.262-1.299-0.283c0.08-1.749,2.169-2.812,3.571-3.332
					c1.305-0.485,3.067-0.858,4.366-0.142C19.117,39.074,17.492,40.823,16.962,39.5C16.893,39.327,16.962,39.5,16.962,39.5z"/>
			</g>
			<g>
				<path fill="#94989B" d="M23.552,57.606c-0.543-1.365-5.94,0.846-6.341,2.363c0.027-0.092,0.03-0.079,0.009,0.037
					c0.009-0.031,0.007-0.063-0.006-0.094c0.398,1.211-1.369,1.263-1.298-0.283c0.08-1.749,2.17-2.81,3.572-3.332
					c1.305-0.484,3.067-0.857,4.365-0.141C25.708,57.181,24.081,58.928,23.552,57.606C23.483,57.435,23.552,57.606,23.552,57.606z"
					/>
			</g>
		</g>
		<g>
			<g>
				<path fill="#D0D0D0" d="M17.647,51.243c-0.831,0.311-1.627,0.72-2.311,1.326c-0.306,0.271-0.936,0.86-0.738,1.46
					c0.097,0.295-0.262,0.427-0.358,0.131c-0.242-0.737,0.221-1.343,0.599-1.755c0.72-0.783,1.697-1.263,2.644-1.613
					C17.713,50.706,17.878,51.158,17.647,51.243L17.647,51.243z"/>
			</g>
			<g>
				<path fill="#D0D0D0" d="M15.45,45.208c-0.83,0.309-1.627,0.72-2.31,1.326c-0.306,0.27-0.936,0.859-0.738,1.461
					c0.097,0.294-0.262,0.426-0.358,0.131c-0.242-0.738,0.221-1.344,0.599-1.756c0.719-0.783,1.696-1.264,2.644-1.615
					C15.517,44.671,15.682,45.123,15.45,45.208L15.45,45.208z"/>
			</g>
			<g>
				<path fill="#D0D0D0" d="M13.254,39.174c-0.831,0.308-1.627,0.72-2.311,1.323c-0.305,0.272-0.935,0.861-0.737,1.463
					c0.097,0.293-0.262,0.426-0.359,0.13c-0.242-0.737,0.221-1.343,0.599-1.755c0.72-0.783,1.697-1.263,2.645-1.613
					C13.32,38.636,13.484,39.087,13.254,39.174L13.254,39.174z"/>
			</g>
			<g>
				<path fill="#D0D0D0" d="M19.844,57.278c-0.831,0.31-1.627,0.721-2.31,1.326c-0.306,0.271-0.936,0.86-0.738,1.461
					c0.097,0.293-0.262,0.426-0.359,0.13c-0.241-0.736,0.222-1.343,0.6-1.755c0.719-0.783,1.696-1.263,2.644-1.613
					C19.91,56.74,20.074,57.193,19.844,57.278L19.844,57.278z"/>
			</g>
		</g>
	</g>
	<g>
		
			<rect x="21.514" y="18.463" transform="matrix(0.9397 -0.3421 0.3421 0.9397 -5.6844 11.8064)" fill="#FFFFFF" width="18.234" height="7.113"/>
		<path fill="#3E4347" d="M38.029,19.265c-1.573,1.128-3.673,1.339-5.174,2.595c-1.129,0.944-0.994,3.656-2.199,0.925
			c-0.172,0.222-0.368,0.421-0.589,0.597c-0.181-0.767,0.023-1.569-0.124-2.35c-1.901,0.848-2.726,3.104-3.443,4.893
			c0.048-1.677,0.858-3.604-0.012-5.192c-1.78,1.013-2.885,3.166-3.203,5.133c0.491-1.771,1.426-3.811,3.107-4.812
			c0.759,1.653-0.078,3.687,0.007,5.42c0.607-1.809,1.539-4.258,3.398-5.146c0.112,0.835-0.127,1.596,0.124,2.43
			c0.262-0.141,0.491-0.327,0.688-0.561c1.232,2.669,1.38-0.247,2.401-1.157C34.452,20.753,36.594,20.479,38.029,19.265
			C37.334,19.763,38.029,19.265,38.029,19.265z"/>
	</g>
</g>
</svg>
