<?xml version="1.0" encoding="utf-8"?>
<!-- Generator: Adobe Illustrator 15.0.0, SVG Export Plug-In . SVG Version: 6.00 Build 0)  -->
<!DOCTYPE svg PUBLIC "-//W3C//DTD SVG 1.1//EN" "http://www.w3.org/Graphics/SVG/1.1/DTD/svg11.dtd">
<svg version="1.1" id="Layer_1" xmlns="http://www.w3.org/2000/svg" xmlns:xlink="http://www.w3.org/1999/xlink" x="0px" y="0px"
	 width="64px" height="64px" viewBox="0 0 64 64" enable-background="new 0 0 64 64" xml:space="preserve">
<g>
	<g>
		<path fill="#89664C" d="M8.829,3.135c0,0.684-0.551,1.239-1.23,1.239l0,0c-0.679,0-1.23-0.555-1.23-1.239V1.239
			C6.369,0.555,6.919,0,7.599,0l0,0c0.679,0,1.23,0.555,1.23,1.239V3.135z"/>
		<path fill="#89664C" d="M6.369,60.858c0-0.685,0.551-1.239,1.23-1.239l0,0c0.679,0,1.23,0.555,1.23,1.239v1.896
			c0,0.684-0.551,1.238-1.23,1.238l0,0c-0.679,0-1.23-0.555-1.23-1.238V60.858z"/>
		<path fill="#A57B5E" d="M13.099,5.758c0,1.731-1.394,3.134-3.112,3.134H5.211c-1.719,0-3.112-1.403-3.112-3.134l0,0
			c0-1.731,1.394-3.134,3.112-3.134h4.776C11.706,2.625,13.099,4.027,13.099,5.758L13.099,5.758z"/>
		<path fill="#A57B5E" d="M2.098,58.234c0-1.73,1.394-3.134,3.112-3.134h4.776c1.719,0,3.112,1.403,3.112,3.134l0,0
			c0,1.731-1.394,3.135-3.112,3.135H5.21C3.492,61.369,2.098,59.966,2.098,58.234L2.098,58.234z"/>
		<rect x="2.388" y="9.913" fill="#DFCEA3" width="10.422" height="44.167"/>
		<path fill="#89664C" d="M15.198,8.528c0,0.765-0.616,1.385-1.375,1.385H1.375C0.615,9.913,0,9.293,0,8.528l0,0
			c0-0.765,0.616-1.385,1.375-1.385h12.449C14.582,7.144,15.198,7.764,15.198,8.528L15.198,8.528z"/>
		<path fill="#89664C" d="M0,55.465c0-0.764,0.616-1.385,1.375-1.385h12.449c0.759,0,1.375,0.621,1.375,1.385l0,0
			c0,0.766-0.616,1.385-1.375,1.385H1.375C0.615,56.85,0,56.23,0,55.465L0,55.465z"/>
		<path fill="#A57B5E" d="M8.551,3.135c0,0.684-0.427,1.239-0.952,1.239l0,0c-0.525,0-0.952-0.555-0.952-1.239V1.239
			C6.647,0.555,7.073,0,7.599,0l0,0c0.525,0,0.952,0.555,0.952,1.239V3.135z"/>
		<path fill="#A57B5E" d="M6.647,60.858c0-0.685,0.426-1.239,0.952-1.239l0,0c0.525,0,0.952,0.555,0.952,1.239v1.896
			c0,0.684-0.427,1.238-0.952,1.238l0,0c-0.525,0-0.952-0.555-0.952-1.238V60.858z"/>
		<path fill="#BF9173" d="M11.854,5.758c0,1.731-1.078,3.134-2.408,3.134H5.751c-1.33,0-2.408-1.403-2.408-3.134l0,0
			c0-1.731,1.078-3.134,2.408-3.134h3.695C10.776,2.625,11.854,4.027,11.854,5.758L11.854,5.758z"/>
		<path fill="#BF9173" d="M3.343,58.234c0-1.73,1.078-3.134,2.408-3.134h3.695c1.33,0,2.408,1.403,2.408,3.134l0,0
			c0,1.731-1.078,3.135-2.408,3.135H5.751C4.421,61.369,3.343,59.966,3.343,58.234L3.343,58.234z"/>
		<rect x="3.567" y="9.913" fill="#EFD8B1" width="8.063" height="44.167"/>
		<path fill="#A57B5E" d="M13.478,8.528c0,0.765-0.477,1.385-1.063,1.385h-9.63c-0.587,0-1.064-0.62-1.064-1.385l0,0
			c0-0.765,0.477-1.385,1.064-1.385h9.63C13.001,7.144,13.478,7.764,13.478,8.528L13.478,8.528z"/>
		<path fill="#A57B5E" d="M1.72,55.465c0-0.764,0.477-1.385,1.064-1.385h9.63c0.587,0,1.063,0.621,1.063,1.385l0,0
			c0,0.766-0.477,1.385-1.063,1.385h-9.63C2.196,56.85,1.72,56.23,1.72,55.465L1.72,55.465z"/>
	</g>
	<g>
		<path fill="#89664C" d="M57.631,3.142c0,0.685-0.551,1.239-1.23,1.239l0,0c-0.68,0-1.23-0.555-1.23-1.239V1.247
			c0-0.684,0.551-1.238,1.23-1.238l0,0c0.68,0,1.23,0.555,1.23,1.238V3.142z"/>
		<path fill="#89664C" d="M55.17,60.865c0-0.684,0.551-1.238,1.23-1.238l0,0c0.68,0,1.23,0.555,1.23,1.238v1.896
			c0,0.684-0.551,1.238-1.23,1.238l0,0c-0.68,0-1.23-0.555-1.23-1.238V60.865z"/>
		<path fill="#A57B5E" d="M61.9,5.766c0,1.73-1.393,3.134-3.111,3.134h-4.776c-1.719,0-3.112-1.403-3.112-3.134l0,0
			c0-1.731,1.394-3.134,3.112-3.134h4.776C60.508,2.632,61.9,4.035,61.9,5.766L61.9,5.766z"/>
		<path fill="#A57B5E" d="M50.9,58.242c0-1.73,1.393-3.135,3.111-3.135h4.776c1.719,0,3.112,1.404,3.112,3.135l0,0
			c0,1.73-1.394,3.135-3.112,3.135h-4.776C52.293,61.377,50.9,59.973,50.9,58.242L50.9,58.242z"/>
		<rect x="51.189" y="9.92" fill="#DFCEA3" width="10.422" height="44.167"/>
		<path fill="#89664C" d="M64,8.536C64,9.3,63.384,9.92,62.625,9.92H50.176c-0.759,0-1.375-0.62-1.375-1.385l0,0
			c0-0.765,0.616-1.385,1.375-1.385h12.449C63.384,7.151,64,7.771,64,8.536L64,8.536z"/>
		<path fill="#89664C" d="M48.801,55.473c0-0.764,0.616-1.385,1.375-1.385h12.449c0.759,0,1.375,0.621,1.375,1.385l0,0
			c0,0.766-0.616,1.385-1.375,1.385H50.176C49.417,56.857,48.801,56.238,48.801,55.473L48.801,55.473z"/>
		<path fill="#A57B5E" d="M57.353,3.142c0,0.685-0.427,1.239-0.952,1.239l0,0c-0.525,0-0.951-0.555-0.951-1.239V1.247
			c0-0.684,0.426-1.238,0.951-1.238l0,0c0.525,0,0.952,0.555,0.952,1.238V3.142z"/>
		<path fill="#A57B5E" d="M55.449,60.865c0-0.684,0.426-1.238,0.951-1.238l0,0c0.525,0,0.952,0.555,0.952,1.238v1.896
			c0,0.684-0.427,1.238-0.952,1.238l0,0c-0.525,0-0.951-0.555-0.951-1.238V60.865z"/>
		<path fill="#BF9173" d="M60.656,5.766c0,1.73-1.078,3.134-2.408,3.134h-3.695c-1.329,0-2.407-1.403-2.407-3.134l0,0
			c0-1.731,1.078-3.134,2.407-3.134h3.695C59.578,2.632,60.656,4.035,60.656,5.766L60.656,5.766z"/>
		<path fill="#BF9173" d="M52.145,58.242c0-1.73,1.078-3.135,2.408-3.135h3.695c1.329,0,2.407,1.404,2.407,3.135l0,0
			c0,1.73-1.078,3.135-2.407,3.135h-3.695C53.223,61.377,52.145,59.973,52.145,58.242L52.145,58.242z"/>
		<rect x="52.369" y="9.92" fill="#EFD8B1" width="8.063" height="44.167"/>
		<path fill="#A57B5E" d="M62.279,8.536c0,0.765-0.477,1.385-1.063,1.385h-9.63c-0.588,0-1.064-0.62-1.064-1.385l0,0
			c0-0.765,0.477-1.385,1.064-1.385h9.63C61.803,7.151,62.279,7.771,62.279,8.536L62.279,8.536z"/>
		<path fill="#A57B5E" d="M50.521,55.473c0-0.764,0.477-1.385,1.064-1.385h9.63c0.587,0,1.063,0.621,1.063,1.385l0,0
			c0,0.766-0.477,1.385-1.063,1.385h-9.63C50.998,56.857,50.521,56.238,50.521,55.473L50.521,55.473z"/>
	</g>
	<path fill="#FFF6D7" d="M51.186,54.08c-19.188,4.154-38.376,0-38.376,0V9.913c19.188,4.082,38.376,0,38.376,0V54.08z"/>
	<path fill="none" stroke="#7D8B91" stroke-miterlimit="10" d="M17.841,15.871c0,0,4.938,1.5,14.156,1.5
		c9.844,0,14.594-1.5,14.594-1.5"/>
	<path fill="none" stroke="#7D8B91" stroke-miterlimit="10" d="M17.841,20.438c0,0,4.938,1.5,14.156,1.5
		c9.844,0,14.594-1.5,14.594-1.5"/>
	<path fill="none" stroke="#7D8B91" stroke-miterlimit="10" d="M17.841,25.005c0,0,4.938,1.5,14.156,1.5"/>
	<path fill="none" stroke="#7D8B91" stroke-miterlimit="10" d="M24.919,35.318c1.968,0.188,4.333,0.32,7.078,0.32
		c9.844,0,14.594-1.5,14.594-1.5"/>
	<path fill="none" stroke="#7D8B91" stroke-miterlimit="10" d="M17.841,38.705c0,0,4.938,1.5,14.156,1.5
		c9.844,0,14.594-1.5,14.594-1.5"/>
	<path fill="none" stroke="#7D8B91" stroke-miterlimit="10" d="M17.841,43.272c0,0,4.938,1.5,14.156,1.5
		c9.844,0,14.594-1.5,14.594-1.5"/>
	<path fill="none" stroke="#7D8B91" stroke-miterlimit="10" d="M17.841,47.84c0,0,4.938,1.5,14.156,1.5"/>
</g>
</svg>
