<?xml version="1.0" encoding="utf-8"?>
<!-- Generator: Adobe Illustrator 15.0.0, SVG Export Plug-In . SVG Version: 6.00 Build 0)  -->
<!DOCTYPE svg PUBLIC "-//W3C//DTD SVG 1.1//EN" "http://www.w3.org/Graphics/SVG/1.1/DTD/svg11.dtd">
<svg version="1.1" id="Layer_1" xmlns="http://www.w3.org/2000/svg" xmlns:xlink="http://www.w3.org/1999/xlink" x="0px" y="0px"
	 width="64px" height="64px" viewBox="0 0 64 64" enable-background="new 0 0 64 64" xml:space="preserve">
<g>
	<g>
		<path fill="#EFD8B1" d="M0,20.3c0,0,28.186,29.946,31.164,43.7c0,0,8.06-17.928,32.836-25.368c0,0-8.782-20.643-32.189-37
			C31.811,1.632,7.894,8.761,0,20.3z"/>
		<path fill="#FFF6D7" d="M3.171,7.876c0,0,21.98,38.161,22.399,52.469c0,0,11.044-14.801,36.427-14.029
			c0,0-4.814-22.868-24.598-46.296C37.4,0.02,12.906-0.776,3.171,7.876z"/>
		<g>
			<path fill="#7D8B91" d="M19.885,9.392C19.63,9.796,20.14,8.99,19.885,9.392L19.885,9.392z"/>
			<path fill="#7D8B91" d="M19.885,9.392c0.193-0.304,0.254-0.83,0.555-1.058c0.384-0.288,0.842-0.125,1.21-0.391
				c0.764-0.552,1.183-1.639,1.895-2.289c0.822-0.75,1.823-1.255,2.865-1.626c1.054-0.416,2.156-1.223,3.338-1.157
				c-0.452,1.545-1.521,2.832-1.745,4.456c-0.121,0.876,0.016,1.804,0.067,2.682c0.204-0.662,0.351-1.384,0.647-2.013
				c0.412-0.875,1.268-0.778,2.07-1.075c0.836-0.396,1.495-1.061,2.174-1.671c0.274,0.476,1.378-0.342,1.574,0.39
				c0.085,0.315,2.838-0.064,3.043-0.163c-0.566-0.032-2.71,0.11-2.802-0.418c-0.308-0.141-0.851-0.207-1.346-0.244
				c0.022-0.207-0.019-0.473,0.048-0.665c-0.617,0.44-1.185,0.938-1.785,1.401c-0.889,0.687-2.028,0.539-2.867,1.155
				c0.336-1.013,0.949-1.901,1.336-2.893c0.169-0.433,0.283-0.877,0.355-1.336c0.067-0.426,0.028-0.212-0.259-0.4
				c-1.35-0.362-2.841,0.683-4.017,1.237c-1.081,0.455-2.108,1.058-2.94,1.893c-0.51,0.512-1.3,2.336-1.982,2.5
				c-1.363,0.037-0.947,1.262-1.819,1.696c-0.453,0.225-0.836,0.195-1.27,0.531c-0.547,0.426-1.221,1.061-1.97,1.023
				c0.02-0.632,0.031-1.243-0.234-1.833c-0.755,0.376-1.144,1.098-1.758,1.631c0.218-1.566,0.88-2.949,0.901-4.564
				c-0.859,0.575-1.438,1.302-1.913,2.218c-0.575,1.109-1.088,2.892-2.286,3.49c-0.023-1.538,0.654-3.012,0.469-4.558
				c-0.19,0.671-0.234,1.63-0.443,2.403c-0.248,0.919-0.431,1.821-0.375,2.778c2.154-0.314,2.621-3.547,3.886-4.929
				c-0.254,1.442-0.837,2.711-0.72,4.208c0.896-0.541,1.284-1.485,2.096-2.093c0.283,0.902-0.354,2.087,1.071,1.429
				c0.628-0.291,1.087-0.823,1.66-1.194C19.021,9.683,19.596,9.85,19.885,9.392z"/>
			<path fill="#7D8B91" d="M41.443,13.837c-0.399-0.35-1.126-0.467-1.587-0.899c-0.556-0.522-1.553-0.274-2.204-0.122
				c-1.632,0.381-2.694,0.836-4.231-0.029c0.006,0.489,0.087,2.534-0.697,2.406c-0.735-0.012-0.523-2.098-0.587-2.753
				c-0.356,0.57-0.745,1.08-0.745,1.787c0,0.523,0.223,0.836-0.224,1.259c-0.555,0.526-1.506,0.401-2.188,0.303
				c-0.163-1.134,0.121-2.434,0.196-3.575c-0.235,1.019-0.471,2.038-0.707,3.058c-0.175,0.756-0.851,0.909-1.534,0.706
				c-0.134-0.177,0.066-1.024,0.08-1.234c-0.616,1.14-1.008,2.485-1.788,3.517c-0.363,0.479-1.292,0.982-1.682,0.211
				c-0.273-0.541-0.116-1.248-0.039-1.823c-0.456,0.586-0.95,2.315-1.826,2.279c0.105-0.425,0.444-0.773-0.061-1.03
				c-0.233,0.446-0.431,0.93-0.654,1.386c0.242-0.638,0.383-1.289,0.516-1.955c-1.322,0.787-2.125,1.895-2.836,3.242
				c0.039-0.242,0.091-0.722,0.061-0.891c-0.107,0.436-0.899,1.922-0.417,2.186c0.707-1.125,1.306-2.331,2.337-3.205
				c-0.549,1.468-1.132,2.779-1.423,4.327c0.636-0.741,1.238-1.466,1.684-2.346c0.145-0.287,0.28-0.578,0.405-0.873
				c0.324-0.753,0.312-0.19,0.864-0.589c0.531-0.379,0.767-1.113,1.063-1.665c-0.07,1.754,1.435,2.072,2.399,0.71
				c0.395-0.557,0.667-1.187,0.971-1.794c0.019-0.009,0.78,0.235,0.848,0.242c0.361,0.035,0.684-0.027,0.972-0.25
				c1.127,0.394,2.842,0.458,3.521-0.768c1.233,1.3,2.001-0.721,2.072-1.713c1.214,0.452,2.337-0.088,3.477-0.497
				c0.654-0.235,1.98-0.777,2.461,0.035C40.433,13.659,40.942,13.696,41.443,13.837z"/>
			<path fill="#7D8B91" d="M30.812,24.093c0.024,0.009,0.051,0.01,0.076,0.018C30.884,24.101,30.811,24.068,30.812,24.093z"/>
			<path fill="#7D8B91" d="M30.812,24.093c-0.005-0.359-0.336-0.601-0.69-0.32c-0.456,0.36-0.207-0.309-0.175-0.682
				c0.039-0.453,0.078-0.906,0.117-1.358c-0.227,0.406-0.487,0.806-0.686,1.226c-0.385,0.684-0.266,1.966-1.329,2.092
				c0.155-0.502,0.296-1.002,0.43-1.511c-0.547,0.463-1.104,0.796-1.128,1.585c-0.031,0.975-1.018,3.364-2.313,3.114
				c0.113-1.97,1.214-3.788,1.652-5.701c-2.02,1.212-3.72,4.154-3.949,6.432c1.026-1.652,1.701-3.584,3.095-4.983
				c-0.357,1.479-0.902,2.897-1.027,4.425c-0.021,0.262,0.777,0.115,0.892,0.078c0.693-0.226,1.189-0.901,1.538-1.504
				c0.136-0.237,0.26-0.481,0.371-0.731c0.279-0.625,0.385-0.221,0.948-0.473c0.679-0.303,0.72-1.179,1.38-1.098
				c0.727,0.09,2.235-0.079,2.722-0.408c-0.58-0.065-1.206,0.006-1.771-0.167C30.889,24.115,30.877,24.116,30.812,24.093z
				 M30.288,23.74c0.053,0.058,0.129,0.081,0.156,0.167C30.392,23.851,30.339,23.796,30.288,23.74z"/>
			<path fill="#7D8B91" d="M44.092,42.4C44.593,41.697,43.86,42.306,44.092,42.4L44.092,42.4z"/>
			<path fill="#7D8B91" d="M42.206,44.584c0.012-0.01,0.021-0.022,0.033-0.033c-0.045,0.038-0.09,0.077-0.126,0.109
				C42.143,44.635,42.177,44.609,42.206,44.584z"/>
			<path fill="#7D8B91" d="M58.439,39.652c-1.814-1.329-3.897-2.099-5.856-3.188c0.44,0.622,1.02,1.253,1.286,1.976
				c-1.048,0.097-0.896,1.859-1.027,1.871c-0.478-0.341-1.857,0.007-2.502,0.086c0.02-0.111,0.04-0.223,0.06-0.334
				c-1.85,1.225-3.256,2.968-5.688,2.517c1.097-1.689,2.04-3.597,1.897-5.659c-1.756,0.627-2.79,2.343-3.572,3.934
				c-0.168-0.621-0.974-1.128-1.534-0.634c-0.633,0.53-0.881,1.479-1.102,2.236c-0.271,0.927-0.434,1.883-0.487,2.847
				c-0.037,0.659-0.138,0.809,0.595,0.791c1.691-0.039,3.168-1.957,4.018-3.223c2.171,0.589,3.497-0.449,5.202-1.607
				c0.036,0.786,0.595,1.298,1.381,1.138c0.794-0.184,1.151-1.192,1.776-1.232c0.459-0.029,0.751,0.202,1.264,0.189
				c0.543-0.018,1.084-0.097,1.623-0.158c-0.558-0.733-0.786-1.162-1.021-2.125C56.033,39.42,57.113,39.688,58.439,39.652z
				 M42.239,44.551c0.144-0.123,0.266-0.228-0.033,0.033c-0.219,0.187-0.187,0.157-0.093,0.076
				c-0.506,0.423-1.122,0.882-1.806,0.864c-0.001-1.491,0.17-3.294,0.943-4.607c0.379-0.644,0.921-0.836,1.473-0.255
				c0.394,0.436-0.079,0.828-0.095,1.215c0.098-0.18,0.199-0.356,0.305-0.532c0.118,0.628,0.408,1.012,0.987,1.299
				C43.422,43.329,42.876,43.989,42.239,44.551z M44.092,42.4c-2.405-0.984,0.735-4.079,2.067-4.678
				C46.011,39.42,45.061,41.041,44.092,42.4z M51.01,41.644c-0.821,0.222-0.813-0.562-0.691-1.126
				c0.521,0.175,1.04,0.357,1.564,0.522C51.666,41.319,51.356,41.556,51.01,41.644z M53.678,40.949l0.045-0.145
				C53.704,40.955,53.688,40.915,53.678,40.949z M53.863,40.345c0.06-0.114,0.08-0.26,0.118-0.384
				c-0.255,0.111-0.519,0.216-0.787,0.289c-0.021-0.334-0.095-1.054,0.294-1.244c0.796-0.421,0.751,0.866,0.926,1.368
				C54.23,40.364,54.047,40.354,53.863,40.345z M54.776,38.509c-0.063-0.007-0.126-0.018-0.189-0.027
				C54.533,38.363,54.596,38.372,54.776,38.509z"/>
		</g>
	</g>
	<g>
		<g>
			
				<rect x="36.05" y="11.179" transform="matrix(0.7072 -0.707 0.707 0.7072 2.2117 38.4042)" fill="#FFCE31" width="22.842" height="10.705"/>
			<path fill="#ED4C5C" d="M62.632,2.332L61.67,1.369c-1.826-1.824-4.781-1.823-6.607,0l-3.3,3.303l7.568,7.568l3.301-3.302
				C64.457,7.114,64.456,4.157,62.632,2.332z"/>
			
				<rect x="53.054" y="4.137" transform="matrix(0.7072 -0.707 0.707 0.7072 9.2535 41.3212)" fill="#93A2AA" width="2.921" height="10.704"/>
			
				<rect x="53.054" y="5.282" transform="matrix(0.7071 -0.7071 0.7071 0.7071 9.2573 41.3265)" fill="#C7D3D8" width="2.921" height="8.413"/>
			<polygon fill="#FED0AC" points="35.609,20.822 32.331,29.405 34.587,31.674 43.179,28.392 			"/>
			<path fill="#333333" d="M31.753,30.903c-0.453,1.193,0.151,1.796,1.342,1.341l4.166-1.591l-3.912-3.914L31.753,30.903z"/>
		</g>
		
			<rect x="42.131" y="5.081" transform="matrix(0.7071 0.7071 -0.7071 0.7071 23.4984 -26.6471)" fill="#FFDF85" width="3.567" height="19.922"/>
		
			<rect x="47.176" y="10.126" transform="matrix(0.7072 0.707 -0.707 0.7072 28.5392 -28.7349)" fill="#FF8736" width="3.568" height="19.922"/>
	</g>
</g>
</svg>
