<?xml version="1.0" encoding="utf-8"?>
<!-- Generator: Adobe Illustrator 15.0.0, SVG Export Plug-In . SVG Version: 6.00 Build 0)  -->
<!DOCTYPE svg PUBLIC "-//W3C//DTD SVG 1.1//EN" "http://www.w3.org/Graphics/SVG/1.1/DTD/svg11.dtd">
<svg version="1.1" id="Layer_1" xmlns="http://www.w3.org/2000/svg" xmlns:xlink="http://www.w3.org/1999/xlink" x="0px" y="0px"
	 width="64px" height="64px" viewBox="0 0 64 64" enable-background="new 0 0 64 64" xml:space="preserve">
<g>
	<g>
		<path fill="#256382" d="M54.875,39.67l7.253,7.589L30.056,63.365c0,0-4.246,2.056-6.247-1.229
			C15.896,49.151,54.875,39.67,54.875,39.67z"/>
		<path fill="#D9E3E8" d="M29.244,53.93c0,0-6.142,2.282-5.015,6.597c1.169,4.48,6.051,1.756,6.051,1.756l30.467-15.023
			c0,0-1.713-4.759,1.381-7.997L29.244,53.93z"/>
		<polygon fill="#42ADE2" points="34.409,8.914 63.569,39.031 29.091,53.319 6.954,16.722 		"/>
		<g>
			<polygon fill="#94989B" points="60.742,42.587 40.325,51.376 60.326,41.677 			"/>
		</g>
		<g>
			<polygon fill="#94989B" points="60.43,45.174 38.733,54.673 60.01,44.266 			"/>
		</g>
		<g>
			<polygon fill="#94989B" points="60.631,46.689 32.938,59.358 60.199,45.787 			"/>
		</g>
		<path fill="#428BC1" d="M23.809,62.137c-3.362-7.464,5.282-8.817,5.282-8.817L6.954,16.722c0,0-5.042-0.146-5.042,5.375
			c0,2.278,0.979,3.976,0.979,3.976L23.809,62.137z"/>
	</g>
	<g>
		<path fill="#547725" d="M8.694,32.179l-7.253,7.589l32.072,16.107c0,0,4.246,2.055,6.247-1.228
			C47.673,41.661,8.694,32.179,8.694,32.179z"/>
		<path fill="#D9E3E8" d="M34.325,46.439c0,0,6.142,2.283,5.014,6.598c-1.168,4.481-6.05,1.756-6.05,1.756L2.822,39.769
			c0,0,1.712-4.758-1.381-7.997L34.325,46.439z"/>
		<polygon fill="#83BF4F" points="29.159,1.424 0,31.542 34.479,45.829 56.614,9.232 		"/>
		<g>
			<polygon fill="#94989B" points="3.243,34.188 23.244,43.888 2.827,35.098 			"/>
		</g>
		<g>
			<polygon fill="#94989B" points="3.56,36.776 24.836,47.182 3.14,37.685 			"/>
		</g>
		<g>
			<polygon fill="#94989B" points="3.369,38.297 30.631,51.868 2.938,39.199 			"/>
		</g>
		<path fill="#699635" d="M39.761,54.648c3.362-7.467-5.282-8.819-5.282-8.819L56.614,9.232c0,0,5.043-0.145,5.043,5.375
			c0,2.279-0.98,3.976-0.98,3.976L39.761,54.648z"/>
	</g>
	<g>
		<path fill="#962C2C" d="M56.664,25.951l6.119,6.403l-27.061,13.59c0,0-3.583,1.734-5.271-1.036
			C23.776,33.951,56.664,25.951,56.664,25.951z"/>
		<path fill="#D9E3E8" d="M35.039,37.983c0,0-5.183,1.925-4.231,5.566c0.985,3.78,5.105,1.481,5.105,1.481l25.706-12.677
			c0,0-1.445-4.015,1.164-6.747L35.039,37.983z"/>
		<polygon fill="#ED4C5C" points="39.396,0 64,25.413 34.909,37.468 16.231,6.589 		"/>
		<polygon fill="#FFFFFF" points="40.115,5.804 44.852,11.119 27.172,17.794 22.996,11.022 		"/>
		<g>
			<polygon fill="#94989B" points="61.647,28.483 44.388,35.829 61.231,27.574 			"/>
		</g>
		<g>
			<polygon fill="#94989B" points="61.384,30.666 43.045,38.609 60.964,29.759 			"/>
		</g>
		<g>
			<polygon fill="#94989B" points="61.555,31.944 38.155,42.563 61.123,31.042 			"/>
		</g>
		<path fill="#C94747" d="M30.452,44.908c-2.837-6.299,4.457-7.44,4.457-7.44L16.231,6.589c0,0-4.255-0.123-4.255,4.536
			c0,1.922,0.827,3.354,0.827,3.354L30.452,44.908z"/>
	</g>
</g>
</svg>
