<?xml version="1.0" encoding="utf-8"?>
<!-- Generator: Adobe Illustrator 15.0.0, SVG Export Plug-In . SVG Version: 6.00 Build 0)  -->
<!DOCTYPE svg PUBLIC "-//W3C//DTD SVG 1.1//EN" "http://www.w3.org/Graphics/SVG/1.1/DTD/svg11.dtd">
<svg version="1.1" id="Layer_1" xmlns="http://www.w3.org/2000/svg" xmlns:xlink="http://www.w3.org/1999/xlink" x="0px" y="0px"
	 width="64px" height="64px" viewBox="0 0 64 64" enable-background="new 0 0 64 64" xml:space="preserve">
<g>
	<path fill="#962C2C" d="M54.976,35.149l7.527,7.438L29.212,58.377c0,0-4.406,2.016-6.482-1.203
		C14.516,44.443,54.976,35.149,54.976,35.149z"/>
	<path fill="#D9E3E8" d="M28.371,49.127c0,0-6.373,2.238-5.205,6.468c1.215,4.393,6.281,1.722,6.281,1.722l31.623-14.729
		c0,0-1.776-4.664,1.434-7.838L28.371,49.127z"/>
	<polygon fill="#ED4C5C" points="33.732,5 63.999,34.523 28.212,48.529 5.234,12.655 	"/>
	<polygon fill="#FFFFFF" points="34.616,11.742 40.443,17.917 18.693,25.672 13.557,17.805 	"/>
	<g>
		<polygon fill="#94989B" points="61.049,38.021 39.873,46.625 60.652,37.104 		"/>
	</g>
	<g>
		<polygon fill="#94989B" points="60.724,40.558 38.222,49.855 60.323,39.642 		"/>
	</g>
	<g>
		<polygon fill="#94989B" points="60.932,42.044 32.206,54.449 60.521,41.132 		"/>
	</g>
	<path fill="#C94747" d="M22.73,57.174c-3.492-7.318,5.482-8.645,5.482-8.645L5.234,12.655c0,0-5.234-0.143-5.234,5.27
		c0,2.233,1.019,3.897,1.019,3.897L22.73,57.174z"/>
</g>
</svg>
