<?xml version="1.0" encoding="utf-8"?>
<!-- Generator: Adobe Illustrator 15.0.0, SVG Export Plug-In . SVG Version: 6.00 Build 0)  -->
<!DOCTYPE svg PUBLIC "-//W3C//DTD SVG 1.1//EN" "http://www.w3.org/Graphics/SVG/1.1/DTD/svg11.dtd">
<svg version="1.1" id="Layer_1" xmlns="http://www.w3.org/2000/svg" xmlns:xlink="http://www.w3.org/1999/xlink" x="0px" y="0px"
	 width="64px" height="64px" viewBox="0 0 64 64" enable-background="new 0 0 64 64" xml:space="preserve">
<g>
	<path fill="#3E4347" d="M62,47.001c0,3.3-2.7,6-6,6H8c-3.3,0-6-2.7-6-6v-30c0-3.3,2.7-6,6-6h48c3.3,0,6,2.7,6,6V47.001z"/>
	<path fill="#62727A" d="M15,48.001c0,0.55-0.45,1-1,1h-4c-0.55,0-1-0.45-1-1v-4c0-0.55,0.45-1,1-1h4c0.55,0,1,0.45,1,1V48.001z"/>
	<path fill="#62727A" d="M23,48.001c0,0.55-0.45,1-1,1h-4c-0.55,0-1-0.45-1-1v-4c0-0.55,0.45-1,1-1h4c0.55,0,1,0.45,1,1V48.001z"/>
	<path fill="#62727A" d="M31,48.001c0,0.55-0.45,1-1,1h-4c-0.55,0-1-0.45-1-1v-4c0-0.55,0.45-1,1-1h4c0.55,0,1,0.45,1,1V48.001z"/>
	<path fill="#62727A" d="M9,15.001c-1.1,0-2,0.899-2,2v22c0,1.101,0.9,2,2,2h21c1.1,0,2.703,0.562,3.562,1.249l6.877,5.502
		c0.858,0.688,2.462,1.249,3.562,1.249h11c1.1,0,2-0.899,2-2v-30c0-1.101-0.9-2-2-2H9z"/>
	<path fill="#3E4347" d="M55,45.001c0,1.101-0.9,2-2,2h-8c-1.1,0-2.721-0.54-3.6-1.2l-4.801-3.6c-0.879-0.66-0.699-1.2,0.4-1.2h16
		c1.1,0,2,0.899,2,2V45.001z"/>
	<path fill="#83BF4F" d="M46.414,45.76c-0.322,0.322-0.851,0.322-1.173,0l0,0c-0.321-0.322-0.321-0.851,0-1.173l2.345-2.345
		c0.322-0.322,0.85-0.322,1.172,0l0,0c0.322,0.322,0.322,0.851,0,1.173L46.414,45.76z"/>
	<polygon fill="#B2C1C0" points="19,46.001 21,47.001 21,45.001 	"/>
	<polygon fill="#B2C1C0" points="29,46.001 27,47.001 27,45.001 	"/>
	<circle fill="#F15744" cx="12" cy="46.001" r="1"/>
	<path fill="#C7E755" d="M51,35.001c0,1.101-0.9,2-2,2H15c-1.1,0-2-0.899-2-2v-12c0-1.101,0.9-2,2-2h34c1.1,0,2,0.899,2,2V35.001z"
		/>
	<path fill="#F15744" d="M55,18.001c0-0.55-0.45-1-1-1h-6c-0.55,0-1,0.45-1,1l0,0c0,0.55,0.45,1,1,1h6
		C54.55,19.001,55,18.551,55,18.001L55,18.001z"/>
	<g opacity="0.7">
		<path fill="#3E4347" d="M17.928,28.564l0.436,0.437l-0.436,0.437h-2.836l-0.437-0.437l0.437-0.437H17.928L17.928,28.564z"/>
		<path fill="#3E4347" d="M19.673,28.893l-0.218-0.219v-2.51L20,25.619l0.327,0.327v2.291L19.673,28.893L19.673,28.893z
			 M20.327,29.765v2.291L20,32.383l-0.545-0.545v-2.51l0.218-0.219L20.327,29.765L20.327,29.765z M22.945,25.946h-2.4l-0.436-0.437
			l0.436-0.437h2.4l0.437,0.437L22.945,25.946L22.945,25.946z M23.382,32.492l-0.437,0.436h-2.4l-0.436-0.436l0.436-0.437h2.4
			L23.382,32.492L23.382,32.492z M23.164,28.237v-2.291l0.327-0.327l0.546,0.545v2.51l-0.219,0.219L23.164,28.237L23.164,28.237z
			 M23.818,29.109l0.219,0.219v2.51l-0.546,0.545l-0.327-0.327v-2.291L23.818,29.109L23.818,29.109z"/>
		<path fill="#3E4347" d="M28.4,28.564l0.436,0.437L28.4,29.438h-2.836l-0.438-0.437l0.438-0.437H28.4L28.4,28.564z"/>
		<path fill="#3E4347" d="M30.146,29.001l-0.218-0.218v-3.056l0.545-0.545l0.327,0.873v2.29L30.146,29.001L30.146,29.001z
			 M30.8,29.765v2.291l-0.327,0.872l-0.545-0.545v-3.055l0.218-0.219L30.8,29.765L30.8,29.765z M33.418,28.346h-0.764l-1.637-1.636
			v-0.654h0.655l1.745,1.745V28.346L33.418,28.346z M33.637,28.346v-2.29l0.327-0.873l0.546,0.545v3.056l-0.219,0.218L33.637,28.346
			L33.637,28.346z M34.291,29.109l0.219,0.219v3.055l-0.546,0.545l-0.327-0.872v-2.291L34.291,29.109L34.291,29.109z"/>
		<path fill="#3E4347" d="M38.873,28.564l0.436,0.437l-0.436,0.437h-2.836L35.6,29.001l0.438-0.437H38.873L38.873,28.564z"/>
		<path fill="#3E4347" d="M41.272,26.164v2.073l-0.654,0.655L40.4,28.674v-2.837L41.272,26.164L41.272,26.164z M40.4,32.164v-2.836
			l0.218-0.219l0.654,0.655v2.073L40.4,32.164L40.4,32.164z M44.545,32.928h-3.6L40.4,32.383l0.872-0.327h2.946L44.545,32.928
			L44.545,32.928z M44.219,25.946h-2.936l-0.873-0.327l0.547-0.546h3.588L44.219,25.946L44.219,25.946z M44.109,28.564l0.436,0.437
			l-0.436,0.437h-2.837l-0.437-0.437l0.437-0.437H44.109L44.109,28.564z"/>
		<path fill="#3E4347" d="M48.909,28.564l0.437,0.437l-0.437,0.437h-2.837l-0.436-0.437l0.436-0.437H48.909L48.909,28.564z"/>
	</g>
</g>
</svg>
