<?xml version="1.0" encoding="utf-8"?>
<!-- Generator: Adobe Illustrator 15.0.0, SVG Export Plug-In . SVG Version: 6.00 Build 0)  -->
<!DOCTYPE svg PUBLIC "-//W3C//DTD SVG 1.1//EN" "http://www.w3.org/Graphics/SVG/1.1/DTD/svg11.dtd">
<svg version="1.1" id="Layer_1" xmlns="http://www.w3.org/2000/svg" xmlns:xlink="http://www.w3.org/1999/xlink" x="0px" y="0px"
	 width="64px" height="64px" viewBox="0 0 64 64" enable-background="new 0 0 64 64" xml:space="preserve">
<g>
	<g>
		<path fill="#676E72" d="M58.42,2.51c-2.561-3.465-22.757,11.782-20.197,15.247c1.965,2.659,4.457,4.61,7.098,5.773
			c-2.673,2.693-5.765,5.404-9.197,7.998c-3.451,2.604-6.916,4.838-10.242,6.67c-0.356-2.887-1.499-5.854-3.462-8.51
			c-2.56-3.465-22.755,11.783-20.195,15.247c3.583,4.852,8.919,7.361,13.712,6.974c6.416-0.392,16.37-4.872,26.176-12.276
			c11.277-8.513,18.941-18.313,19.72-24.468C62.457,11.12,61.345,6.469,58.42,2.51z"/>
		<g>
			<path fill="#373E42" d="M8.032,47.161c0.023,0.017,0.048,0.03,0.072,0.046C7.849,47.025,7.506,46.783,8.032,47.161z"/>
			<path fill="#373E42" d="M8.032,47.161c-1.784-1.284-4.402-2.653-3.81-5.117c-4.263,4.251,7.072,9.158,10.25,8.319
				c-2.284-0.734-4.399-1.775-6.368-3.156C8.314,47.357,8.465,47.467,8.032,47.161z"/>
			<path fill="#373E42" d="M47.055,21.818c-2.322-1.153-7.608-3.729-6.834-6.953c-4.264,4.252,7.07,9.159,10.25,8.319
				C49.303,22.809,48.155,22.366,47.055,21.818z"/>
		</g>
	</g>
	<path fill="#373E42" d="M51.779,42.515c0.608-0.819,1.473-1.614,2.547-2.323c0.424-0.28,0.539-0.855,0.258-1.283
		c-0.281-0.43-0.854-0.55-1.275-0.27c-1.404,0.929-2.506,1.984-3.255,3.102c-0.542-0.172-1.112-0.284-1.692-0.305
		c-1.483-0.055-2.832,0.503-3.896,1.612c-0.621,0.643-1.091,1.577-1.377,2.626c-1.336,0.04-2.584,0.535-3.555,1.436
		c-0.854,0.789-1.398,1.823-1.723,2.89c-1.838-0.054-3.361,0.843-4.127,1.397c-0.406-0.336-0.852-0.64-1.338-0.867
		c-1.344-0.633-2.803-0.648-4.219-0.047c-0.822,0.348-1.621,1.023-2.295,1.876c-1.244-0.487-2.588-0.522-3.834-0.073
		c-1.094,0.391-2.002,1.128-2.718,1.982c-2.398-1.107-5.628-1.373-8.746-0.648c-2.848,0.662-6-0.904-6.584-2.653
		c-0.484-1.449,1.214-2.476,2.269-2.96c0.462-0.211,0.667-0.76,0.458-1.228s-0.755-0.675-1.215-0.462
		c-3.917,1.793-3.578,4.265-3.251,5.244c0.94,2.814,5.186,4.694,8.737,3.869c2.571-0.6,5.276-0.427,7.276,0.398
		c-0.621,1.145-0.935,2.26-0.936,2.89c0,1.793,0.921,2.591,1.47,2.905c0.31,0.18,0.651,0.295,1.006,0.346
		c0.687,0.101,1.417-0.037,2.034-0.406c0.809-0.486,1.282-1.309,1.267-2.2c-0.029-1.599-0.774-3.02-2.155-4.11
		c-0.008-0.005-0.016-0.013-0.024-0.019c0.479-0.518,1.055-0.958,1.728-1.198c0.834-0.3,1.592-0.246,2.206-0.066
		c-0.781,1.589-1.099,3.408-0.54,4.875c0.495,1.299,1.816,2.005,3.213,1.711c1.404-0.293,2.348-1.473,2.292-2.871
		c-0.063-1.631-0.948-3.271-2.337-4.385c0.436-0.506,0.918-0.902,1.393-1.104c0.953-0.404,1.848-0.397,2.732,0.018
		c0.277,0.131,0.537,0.293,0.781,0.477c-0.267,0.298-0.496,0.615-0.689,0.948c-0.701,1.218-0.844,2.595-0.402,3.88
		c0.604,1.746,2.068,2.147,3.169,1.776c1.396-0.466,2.462-2.169,1.829-4.208c-0.18-0.582-0.587-1.41-1.192-2.225l-0.128-0.139
		c0.602-0.433,1.455-0.86,2.514-0.873c-0.123,1.296,0.025,2.445,0.271,3.025c0.703,1.649,1.863,2.021,2.492,2.097
		c0.355,0.043,0.715,0.015,1.061-0.077c0.671-0.178,1.289-0.59,1.713-1.172c0.553-0.765,0.666-1.706,0.301-2.521
		c-0.654-1.458-1.896-2.474-3.594-2.935c-0.01-0.002-0.02-0.006-0.031-0.008c0.238-0.664,0.596-1.296,1.119-1.781
		c0.65-0.602,1.368-0.85,2.004-0.926c-0.096,1.768,0.326,3.566,1.415,4.695c0.966,1.002,2.458,1.133,3.628,0.314
		c1.176-0.82,1.58-2.275,0.98-3.539c-0.698-1.477-2.154-2.638-3.869-3.117c0.201-0.637,0.49-1.19,0.848-1.563
		c0.719-0.744,1.544-1.09,2.521-1.055c0.305,0.012,0.609,0.059,0.904,0.131c-0.128,0.379-0.215,0.762-0.262,1.143
		c-0.168,1.396,0.242,2.719,1.152,3.728c1.24,1.37,2.744,1.165,3.611,0.392c1.102-0.977,1.414-2.961,0.031-4.59
		C53.355,43.627,52.656,43.026,51.779,42.515z M21.226,59.396c0.007,0.285-0.196,0.466-0.366,0.568
		c-0.367,0.22-0.857,0.236-1.193,0.045c-0.447-0.257-0.542-0.844-0.541-1.292c-0.001-0.292,0.232-1.095,0.698-1.966
		C20.736,57.489,21.208,58.379,21.226,59.396z M27.946,57.758c0.03,0.762-0.684,0.948-0.826,0.979
		c-0.142,0.031-0.861,0.143-1.128-0.561c-0.352-0.921-0.105-2.178,0.441-3.314C27.326,55.635,27.906,56.726,27.946,57.758z
		 M33.853,57.531c-0.476,0.157-0.728-0.254-0.857-0.627c-0.268-0.773-0.179-1.58,0.254-2.332c0.109-0.188,0.238-0.369,0.386-0.545
		c0.46,0.635,0.76,1.256,0.869,1.612C34.846,56.744,34.286,57.386,33.853,57.531z M41.612,53.954
		c0.118,0.261,0.003,0.506-0.114,0.667c-0.251,0.346-0.696,0.555-1.08,0.51c-0.512-0.062-0.83-0.564-1.005-0.977
		c-0.114-0.269-0.216-1.098-0.128-2.082C40.414,52.393,41.197,53.025,41.612,53.954z M47.151,49.811
		c0.326,0.688-0.257,1.141-0.376,1.225s-0.736,0.469-1.258-0.072c-0.685-0.71-0.951-1.964-0.895-3.223
		C45.748,48.101,46.711,48.877,47.151,49.811z M52.496,47.285c-0.377,0.332-0.77,0.053-1.035-0.24
		c-0.55-0.607-0.785-1.383-0.682-2.244c0.027-0.216,0.074-0.434,0.141-0.652c0.673,0.403,1.191,0.856,1.434,1.142
		C53.101,46.172,52.838,46.981,52.496,47.285z"/>
</g>
</svg>
