<?xml version="1.0" encoding="utf-8"?>
<!-- Generator: Adobe Illustrator 15.0.0, SVG Export Plug-In . SVG Version: 6.00 Build 0)  -->
<!DOCTYPE svg PUBLIC "-//W3C//DTD SVG 1.1//EN" "http://www.w3.org/Graphics/SVG/1.1/DTD/svg11.dtd">
<svg version="1.1" id="Layer_1" xmlns="http://www.w3.org/2000/svg" xmlns:xlink="http://www.w3.org/1999/xlink" x="0px" y="0px"
	 width="64px" height="64px" viewBox="0 0 64 64" enable-background="new 0 0 64 64" xml:space="preserve">
<g>
	<path fill="#3E4347" d="M41.977,1.537l-28.34,7.951l-4.474,1.256c-3.295,0.925-3.516,2.766-2.606,6.004l12.298,43.828
		c0.91,3.24,1.781,3.719,5.076,2.794l4.475-1.255l28.339-7.952c3.296-0.925,5.229-4.301,4.321-7.54L49.589,5.728
		C48.68,2.489,45.271,0.612,41.977,1.537z"/>
	<path fill="#D0D0D0" d="M39.604,0.9l-27.991,9.103l-4.419,1.437c-3.255,1.059-3.4,2.906-2.36,6.105l14.075,43.29
		c1.04,3.199,1.931,3.643,5.185,2.584l4.42-1.436l27.992-9.102c3.254-1.059,5.049-4.51,4.009-7.71L47.382,4.778
		C46.341,1.579,42.859-0.157,39.604,0.9z"/>
	<g>
		<path fill="#42ADE2" d="M37.559,0.381L9.899,10.447l18.694,51.364l27.659-10.068c3.216-1.17,4.89-4.682,3.739-7.844L45.466,3.986
			C44.314,0.825,40.774-0.789,37.559,0.381z"/>
		<path fill="#3E4347" d="M5.532,12.038c-3.216,1.17-3.296,3.021-2.146,6.183l15.569,42.776c1.151,3.162,2.056,3.574,5.271,2.403
			l4.367-1.589L9.899,10.447L5.532,12.038z"/>
		
			<rect x="23.406" y="16.961" transform="matrix(0.9397 -0.3421 0.3421 0.9397 -5.0571 12.3651)" fill="#FFFFFF" width="18.234" height="7.113"/>
		<g>
			<g>
				<path fill="#3E4347" d="M25.31,24.398c0.211-0.897,0.487-1.632,0.905-2.477c0.129-0.262,1.921-2.721,2.226-1.927
					c0.526,1.375-0.208,3.26-0.233,4.71c-0.002,0.15,0.197,0.159,0.246,0.033c0.458-1.192,0.962-2.318,1.647-3.396
					c0.293-0.864,0.824-1.155,1.591-0.873c0.129,2.195-0.22-0.45,0.068,1.647c0.01,0.075,0.124,0.12,0.184,0.075
					c1.037-0.787,0.597,0.906,1.45,0.702c0.768-0.184,1.319-1.246,1.058-1.96c0.029,0.08,0.106,0.111,0.184,0.075
					c1.844-0.881,3.762-1.888,5.385-3.146c0.127-0.099-0.052-0.274-0.178-0.177c-0.267,0.207-5.204,3.034-5.2,3.046
					c-0.039-0.106-0.214-0.131-0.24,0c-0.184,0.892-1.223,1.923-1.759,0.694c-0.032-0.073-0.146-0.08-0.196-0.025
					c-0.443-0.503-0.626-1.08-0.551-1.731c-0.005-0.095-0.102-0.155-0.188-0.108c-1.569,0.86-2.351,2.399-3.05,3.99
					c-0.438,0.995-0.217,0.637-0.021-0.855c0.157-1.197,0.261-2.209-0.174-3.348c-0.027-0.071-0.111-0.123-0.184-0.075
					c-1.762,1.175-2.73,3.031-3.207,5.058C25.032,24.489,25.273,24.555,25.31,24.398L25.31,24.398z"/>
			</g>
		</g>
	</g>
</g>
</svg>
