<?xml version="1.0" encoding="utf-8"?>
<!-- Generator: Adobe Illustrator 15.0.0, SVG Export Plug-In . SVG Version: 6.00 Build 0)  -->
<!DOCTYPE svg PUBLIC "-//W3C//DTD SVG 1.1//EN" "http://www.w3.org/Graphics/SVG/1.1/DTD/svg11.dtd">
<svg version="1.1" id="Layer_1" xmlns="http://www.w3.org/2000/svg" xmlns:xlink="http://www.w3.org/1999/xlink" x="0px" y="0px"
	 width="64px" height="64px" viewBox="0 0 64 64" enable-background="new 0 0 64 64" xml:space="preserve">
<g>
	<path fill="#D9E3E8" d="M64,62c0,1.104-0.895,2-2,2H2c-1.104,0-2-0.896-2-2V16c0-1.104,0.896-2,2-2h60c1.105,0,2,0.896,2,2V62z"/>
	<path fill="#ED4C5C" d="M61,59c0,1.104-0.895,2-2,2H5c-1.104,0-2-0.896-2-2V19c0-1.104,0.896-2,2-2h54c1.105,0,2,0.896,2,2V59z"/>
	<g>
		<path fill="#FFFFFF" d="M7.157,29.941V18.925h2.288v4.2h4.282v-4.2h2.286v11.017h-2.286v-4.918H9.444v4.918H7.157z"/>
		<path fill="#FFFFFF" d="M26.371,20.875h-5.829v2.34h5.351v1.913h-5.351v2.832h6.099v1.981h-8.347V18.925h8.078V20.875z"/>
		<path fill="#FFFFFF" d="M28.435,18.925h2.302v9.035h5.502v1.981h-7.804V18.925z"/>
		<path fill="#FFFFFF" d="M37.785,18.925h2.301v9.035h5.5v1.981h-7.801V18.925z"/>
		<path fill="#FFFFFF" d="M55.615,28.962c-0.83,0.856-2.035,1.285-3.609,1.285c-1.573,0-2.777-0.429-3.608-1.285
			c-1.116-1.052-1.676-2.566-1.676-4.544c0-2.018,0.56-3.533,1.676-4.544c0.831-0.857,2.035-1.286,3.608-1.286
			c1.574,0,2.779,0.428,3.609,1.286c1.112,1.011,1.668,2.526,1.668,4.544C57.283,26.396,56.728,27.91,55.615,28.962z M54.178,27.287
			c0.535-0.672,0.804-1.629,0.804-2.869c0-1.236-0.269-2.191-0.804-2.867s-1.26-1.013-2.172-1.013c-0.91,0-1.639,0.336-2.182,1.009
			s-0.814,1.629-0.814,2.87c0,1.24,0.271,2.197,0.814,2.869c0.543,0.673,1.271,1.01,2.182,1.01
			C52.918,28.297,53.643,27.96,54.178,27.287z"/>
	</g>
	<g>
		<path fill="#8B979E" d="M37.001,14.033c0,1.086-0.848,1.967-1.893,1.967h-6.216c-1.045,0-1.892-0.88-1.892-1.967V2.888
			c0-1.086,0.847-1.967,1.892-1.967h6.216c1.045,0,1.893,0.88,1.893,1.967V14.033z"/>
		<path fill="#B0BDC6" d="M37.001,13.111c0,1.086-0.848,1.967-1.893,1.967h-6.216c-1.045,0-1.892-0.881-1.892-1.967V1.966
			C27.001,0.88,27.848,0,28.893,0h6.216c1.045,0,1.893,0.88,1.893,1.967V13.111z"/>
	</g>
	<path fill="#FFFFFF" d="M58,56c0,1.104-0.895,2-2,2H8c-1.104,0-2-0.896-2-2V34c0-1.105,0.896-2,2-2h48c1.105,0,2,0.895,2,2V56z"/>
	<g>
		<path fill="#ED4C5C" d="M15.106,33.971h1.428v4.746h-0.925v-3.21c0-0.092,0.001-0.222,0.003-0.388
			c0.002-0.166,0.003-0.295,0.003-0.385l-0.899,3.982h-0.964l-0.893-3.982c0,0.09,0.001,0.219,0.003,0.385s0.003,0.296,0.003,0.388
			v3.21h-0.924v-4.746h1.443l0.864,3.732L15.106,33.971z"/>
		<path fill="#ED4C5C" d="M17.516,39.391l0.116,0.006c0.09,0.004,0.176,0.001,0.258-0.01c0.081-0.01,0.15-0.035,0.206-0.074
			c0.054-0.036,0.104-0.112,0.149-0.229c0.046-0.115,0.066-0.186,0.06-0.212l-1.29-3.665h1.021l0.767,2.59l0.723-2.59h0.977
			l-1.203,3.453c-0.232,0.664-0.416,1.077-0.552,1.237c-0.135,0.159-0.407,0.239-0.813,0.239c-0.081,0-0.147,0-0.197,0
			c-0.049-0.002-0.123-0.006-0.222-0.012V39.391z"/>
		<path fill="#ED4C5C" d="M25.707,35.408c0.229,0.19,0.345,0.506,0.345,0.945v2.363h-0.94v-2.135c0-0.184-0.025-0.326-0.074-0.425
			c-0.089-0.181-0.26-0.271-0.511-0.271c-0.31,0-0.521,0.133-0.636,0.396c-0.061,0.139-0.09,0.318-0.09,0.534v1.899h-0.918v-3.503
			h0.889v0.513c0.117-0.182,0.229-0.311,0.334-0.391c0.188-0.141,0.426-0.213,0.715-0.213
			C25.182,35.123,25.477,35.219,25.707,35.408z"/>
		<path fill="#ED4C5C" d="M28.295,36.582c0.17-0.021,0.293-0.047,0.367-0.08c0.131-0.056,0.197-0.143,0.197-0.261
			c0-0.144-0.051-0.243-0.152-0.298c-0.1-0.055-0.249-0.082-0.445-0.082c-0.219,0-0.375,0.054-0.467,0.161
			c-0.064,0.079-0.109,0.187-0.13,0.321h-0.886c0.02-0.307,0.105-0.559,0.259-0.756c0.243-0.31,0.661-0.465,1.255-0.465
			c0.385,0,0.729,0.076,1.028,0.229c0.3,0.152,0.45,0.44,0.45,0.862v1.611c0,0.111,0.001,0.246,0.006,0.404
			c0.006,0.121,0.024,0.203,0.055,0.246c0.029,0.042,0.074,0.078,0.135,0.105v0.135h-0.998c-0.027-0.07-0.047-0.137-0.059-0.199
			c-0.01-0.063-0.02-0.133-0.024-0.212c-0.128,0.138-0.274,0.254-0.441,0.351c-0.198,0.113-0.423,0.17-0.673,0.17
			c-0.32,0-0.584-0.09-0.792-0.271c-0.209-0.182-0.313-0.438-0.313-0.771c0-0.432,0.168-0.744,0.504-0.938
			c0.184-0.104,0.453-0.18,0.811-0.225L28.295,36.582z M28.855,37.011c-0.059,0.036-0.117,0.066-0.178,0.089
			c-0.06,0.022-0.142,0.043-0.246,0.063l-0.209,0.039c-0.195,0.033-0.336,0.076-0.422,0.125c-0.145,0.084-0.217,0.214-0.217,0.39
			c0,0.157,0.045,0.271,0.133,0.34s0.195,0.104,0.322,0.104c0.201,0,0.385-0.059,0.555-0.174c0.168-0.115,0.256-0.328,0.262-0.635
			V37.011z"/>
		<path fill="#ED4C5C" d="M34.951,35.221c0.15,0.061,0.287,0.164,0.409,0.314c0.099,0.123,0.165,0.273,0.2,0.451
			c0.021,0.119,0.032,0.291,0.032,0.52l-0.007,2.211h-0.94v-2.234c0-0.133-0.021-0.242-0.064-0.328
			c-0.081-0.162-0.231-0.244-0.45-0.244c-0.254,0-0.429,0.104-0.525,0.314c-0.049,0.112-0.074,0.246-0.074,0.403v2.089h-0.924
			v-2.089c0-0.208-0.021-0.36-0.064-0.454c-0.076-0.17-0.229-0.255-0.453-0.255c-0.263,0-0.438,0.085-0.529,0.255
			c-0.049,0.096-0.074,0.24-0.074,0.432v2.111h-0.93v-3.503h0.892v0.513c0.114-0.184,0.221-0.313,0.321-0.391
			c0.18-0.137,0.41-0.205,0.693-0.205c0.268,0,0.484,0.059,0.65,0.176c0.133,0.11,0.233,0.251,0.303,0.422
			c0.119-0.205,0.27-0.356,0.447-0.453c0.189-0.097,0.398-0.145,0.631-0.145C34.648,35.131,34.801,35.16,34.951,35.221z"/>
		<path fill="#ED4C5C" d="M38.723,35.279c0.244,0.109,0.447,0.282,0.607,0.52c0.144,0.208,0.236,0.449,0.279,0.725
			c0.025,0.162,0.035,0.393,0.029,0.697h-2.556c0.015,0.352,0.137,0.598,0.367,0.74c0.14,0.088,0.309,0.132,0.507,0.132
			c0.209,0,0.378-0.054,0.51-0.161c0.07-0.059,0.133-0.139,0.188-0.241h0.938c-0.025,0.208-0.139,0.419-0.341,0.634
			c-0.313,0.342-0.755,0.512-1.319,0.512c-0.468,0-0.88-0.144-1.237-0.432c-0.356-0.287-0.535-0.756-0.535-1.404
			c0-0.608,0.161-1.074,0.483-1.398s0.74-0.488,1.256-0.488C38.203,35.113,38.479,35.169,38.723,35.279z M37.35,36.071
			c-0.129,0.134-0.21,0.315-0.244,0.544h1.582c-0.018-0.244-0.1-0.43-0.246-0.555c-0.146-0.127-0.327-0.189-0.543-0.189
			C37.662,35.871,37.48,35.938,37.35,36.071z"/>
		<path fill="#ED4C5C" d="M42.879,34.789h-0.93v-0.847h0.93V34.789z M41.949,35.207h0.93v3.51h-0.93V35.207z"/>
		<path fill="#ED4C5C" d="M44.479,37.598c0.021,0.162,0.063,0.278,0.127,0.348c0.115,0.121,0.326,0.183,0.635,0.183
			c0.182,0,0.324-0.026,0.432-0.081c0.106-0.053,0.16-0.133,0.16-0.24c0-0.104-0.043-0.182-0.129-0.235s-0.406-0.146-0.96-0.276
			c-0.399-0.1-0.681-0.223-0.844-0.371c-0.163-0.146-0.244-0.356-0.244-0.631c0-0.324,0.128-0.604,0.382-0.836
			c0.256-0.232,0.613-0.35,1.076-0.35c0.439,0,0.797,0.088,1.073,0.263s0.436,0.478,0.477,0.907h-0.918
			c-0.014-0.119-0.046-0.212-0.101-0.281c-0.102-0.124-0.273-0.186-0.516-0.186c-0.201,0-0.344,0.031-0.43,0.092
			c-0.084,0.063-0.127,0.136-0.127,0.22c0,0.105,0.045,0.182,0.137,0.229c0.09,0.05,0.408,0.134,0.957,0.255
			c0.366,0.086,0.641,0.215,0.822,0.39s0.271,0.396,0.271,0.659c0,0.348-0.13,0.633-0.389,0.852c-0.26,0.221-0.66,0.33-1.203,0.33
			c-0.553,0-0.961-0.116-1.225-0.349c-0.264-0.233-0.395-0.53-0.395-0.89H44.479z"/>
		<path fill="#ED4C5C" d="M47.419,37.755h0.977v0.962h-0.977V37.755z"/>
		<path fill="#ED4C5C" d="M49.252,37.755h0.976v0.962h-0.976V37.755z"/>
		<path fill="#ED4C5C" d="M51.084,37.755h0.976v0.962h-0.976V37.755z"/>
	</g>
</g>
</svg>
