<?xml version="1.0" encoding="utf-8"?>
<!-- Generator: Adobe Illustrator 15.0.0, SVG Export Plug-In . SVG Version: 6.00 Build 0)  -->
<!DOCTYPE svg PUBLIC "-//W3C//DTD SVG 1.1//EN" "http://www.w3.org/Graphics/SVG/1.1/DTD/svg11.dtd">
<svg version="1.1" id="Layer_1" xmlns="http://www.w3.org/2000/svg" xmlns:xlink="http://www.w3.org/1999/xlink" x="0px" y="0px"
	 width="64px" height="64px" viewBox="0 0 64 64" enable-background="new 0 0 64 64" xml:space="preserve">
<g>
	<g>
		<g>
			<polygon fill="#B0BDC6" points="37.984,64 29.177,62.783 29.177,13.848 37.984,13.848 			"/>
			<polygon fill="#7D8B91" points="44.333,13.848 37.984,13.848 37.984,64 44.333,57.918 			"/>
		</g>
		<path fill="#333333" d="M46.77,0C38.6,0,11.136,9.471,11.136,9.471l24.557,40.4L64,32.842V17.03C64,6.282,57.589,0,46.77,0z"/>
		<path fill="#697277" d="M17.232,8.517C6.356,8.517,0,16.013,0,26.761v17.028l35.693,6.082V29.194
			C35.693,18.446,28.107,8.517,17.232,8.517z"/>
		<polygon fill="#ED4C5C" points="37.235,6.418 37.235,35.607 39.965,34.264 39.956,15.582 51.227,11.311 51.235,1.608 		"/>
		<g>
			<path fill="#333333" d="M9.728,22.753l2.563,0.347l-0.094,10.668l-1.66-0.223l0.063-7.218c0.002-0.207,0.007-0.497,0.014-0.871
				c0.008-0.373,0.012-0.661,0.014-0.863l-1.694,8.735l-1.731-0.234l-1.524-9.169c-0.002,0.203-0.003,0.491-0.002,0.865
				c0,0.375,0,0.666-0.002,0.873L5.61,32.881l-1.66-0.225l0.094-10.669l2.592,0.349l1.479,8.6L9.728,22.753z"/>
			<path fill="#333333" d="M16.376,23.649l2.016,0.272l2.922,11.076l-1.932-0.262l-0.543-2.269l-3.14-0.422l-0.597,2.115
				l-1.863-0.252L16.376,23.649z M16.201,30.272l2.183,0.295l-1.039-4.344L16.201,30.272z"/>
			<path fill="#333333" d="M24.023,35.363l-1.77-0.24l0.094-10.668l1.77,0.238L24.023,35.363z"/>
			<path fill="#333333" d="M25.783,24.918l1.781,0.24l-0.076,8.75l4.256,0.574L31.727,36.4l-6.037-0.813L25.783,24.918z"/>
		</g>
	</g>
	<g>
		<path fill="#52595E" d="M19.572,16.435l-4.509,2.08l0.306-2.979l3.215-1.483C19.791,13.496,20.779,15.878,19.572,16.435z"/>
		<path fill="#333333" d="M18.448,16.106c0.267,2.55-1.493,3.872-3.016,4.031c-0.898,0.095-1.634-6.592-1.634-6.592
			s0.85-0.457,1.574-0.533C16.896,12.853,18.249,14.203,18.448,16.106z"/>
		
			<ellipse transform="matrix(0.9946 -0.1039 0.1039 0.9946 -1.6528 1.6565)" fill="#52595E" cx="15.072" cy="16.691" rx="2.772" ry="3.465"/>
		
			<ellipse transform="matrix(0.9946 -0.104 0.104 0.9946 -1.6549 1.6587)" fill="#697277" cx="15.071" cy="16.691" rx="2.107" ry="2.634"/>
	</g>
</g>
</svg>
