<?xml version="1.0" encoding="utf-8"?>
<!-- Generator: Adobe Illustrator 15.0.0, SVG Export Plug-In . SVG Version: 6.00 Build 0)  -->
<!DOCTYPE svg PUBLIC "-//W3C//DTD SVG 1.1//EN" "http://www.w3.org/Graphics/SVG/1.1/DTD/svg11.dtd">
<svg version="1.1" id="Layer_1" xmlns="http://www.w3.org/2000/svg" xmlns:xlink="http://www.w3.org/1999/xlink" x="0px" y="0px"
	 width="64px" height="64px" viewBox="0 0 64 64" enable-background="new 0 0 64 64" xml:space="preserve">
<g>
	<g>
		<g>
			<g>
				<path fill="#B0BDC6" d="M0.603,52.558l18.517-19.528L4.863,12.311c-0.683,0.905-1.186,2.152-1.329,3.525l-3.493,33.11
					C-0.102,50.308,0.126,51.589,0.603,52.558z"/>
				<path fill="#B0BDC6" d="M62.692,8.787L35.918,33.992l21.099,28.867c1.155-0.983,1.989-2.522,2.186-4.378l4.755-45.085
					C64.154,11.526,63.642,9.893,62.692,8.787z"/>
			</g>
		</g>
		<g>
			<path fill="#CAD5DD" d="M25.732,43.128l-6.613-10.099L0.603,52.558c0.44,0.895,1.093,1.529,1.88,1.68l50.813,9.688
				c1.357,0.26,2.669-0.17,3.722-1.065L35.918,33.992L25.732,43.128z"/>
			<path fill="#DFE9EF" d="M59.266,7.322L7.053,10.896c-0.802,0.056-1.57,0.598-2.189,1.416l14.256,20.718l6.613,10.099
				l10.186-9.136L62.692,8.787C61.841,7.798,60.647,7.23,59.266,7.322z"/>
		</g>
	</g>
	<polygon fill="#ED4C5C" points="27.12,32.573 15.391,15.071 20.279,15.012 20.638,0.704 35.732,0 35.347,15.312 43.704,15.478 	"/>
</g>
</svg>
