<?xml version="1.0" encoding="utf-8"?>
<!-- Generator: Adobe Illustrator 15.0.0, SVG Export Plug-In . SVG Version: 6.00 Build 0)  -->
<!DOCTYPE svg PUBLIC "-//W3C//DTD SVG 1.1//EN" "http://www.w3.org/Graphics/SVG/1.1/DTD/svg11.dtd">
<svg version="1.1" id="Layer_1" xmlns="http://www.w3.org/2000/svg" xmlns:xlink="http://www.w3.org/1999/xlink" x="0px" y="0px"
	 width="64px" height="64px" viewBox="0 0 64 64" enable-background="new 0 0 64 64" xml:space="preserve">
<g>
	<rect x="6.444" y="30.89" fill="#3E4347" width="13.333" height="31.111"/>
	<path fill="#62727A" d="M61.165,41.978c-0.233-1.214-1.47-2.199-2.677-2.199c-16.918,0-24.947,0-41.865,0
		c-1.207,0-2.443,0.985-2.677,2.199c-1.113,5.889-1.113,11.936,0,17.822c0.233,1.215,1.47,2.201,2.677,2.201
		c16.918,0,24.947,0,41.865,0c1.207,0,2.443-0.986,2.677-2.201C62.278,53.913,62.278,47.866,61.165,41.978z"/>
	<path fill="#62727A" d="M56.666,21.949c-0.121-1.194-1.222-2.17-2.443-2.17H18.667c-1.223,0-2.322,0.977-2.444,2.17l-1.363,13.385
		h43.142L56.666,21.949z"/>
	<polygon fill="#3E4347" points="58.001,35.334 13.777,35.334 13.332,39.778 58.445,39.778 	"/>
	<g>
		<path fill="#3E4347" d="M33.569,53.112H17.098c-0.973,0-1.765-0.832-1.765-1.853v-7.407c0-1.021,0.792-1.852,1.765-1.852h16.472
			c0.972,0,1.764,0.83,1.764,1.852v7.407C35.333,52.28,34.541,53.112,33.569,53.112z M17.098,43.235
			c-0.324,0-0.588,0.277-0.588,0.617v7.407c0,0.341,0.264,0.617,0.588,0.617h16.472c0.324,0,0.588-0.276,0.588-0.617v-7.407
			c0-0.34-0.264-0.617-0.588-0.617H17.098z"/>
	</g>
	<path fill="#C7E755" d="M27.556,46.444c0,0.611-0.5,1.111-1.111,1.111h-7.777c-0.611,0-1.111-0.5-1.111-1.111v-1.11
		c0-0.61,0.5-1.111,1.111-1.111h7.777c0.611,0,1.111,0.501,1.111,1.111V46.444z"/>
	<path fill="#3E4347" d="M33.111,47.001c0,0.305-0.25,0.555-0.556,0.555h-3.333c-0.307,0-0.556-0.25-0.556-0.555V45.89
		c0-0.306,0.249-0.556,0.556-0.556h3.333c0.306,0,0.556,0.25,0.556,0.556V47.001z"/>
	<path fill="#3E4347" d="M55.223,43.667c0,0.306-0.25,0.556-0.556,0.556h-3.333c-0.307,0-0.556-0.25-0.556-0.556v-1.111
		c0-0.305,0.249-0.555,0.556-0.555h3.333c0.306,0,0.556,0.25,0.556,0.555V43.667z"/>
	<path fill="#3E4347" d="M22,50.334c0,0.306-0.25,0.556-0.556,0.556h-3.333c-0.307,0-0.556-0.25-0.556-0.556v-1.111
		c0-0.306,0.249-0.556,0.556-0.556h3.333c0.306,0,0.556,0.25,0.556,0.556V50.334z"/>
	<path fill="#3E4347" d="M33.111,50.334c0,0.306-0.25,0.556-0.556,0.556h-3.333c-0.307,0-0.556-0.25-0.556-0.556v-1.111
		c0-0.306,0.249-0.556,0.556-0.556h3.333c0.306,0,0.556,0.25,0.556,0.556V50.334z"/>
	<path fill="#3E4347" d="M27.556,50.334c0,0.306-0.25,0.556-0.556,0.556h-3.333c-0.307,0-0.556-0.25-0.556-0.556v-1.111
		c0-0.306,0.249-0.556,0.556-0.556H27c0.306,0,0.556,0.25,0.556,0.556V50.334z"/>
	<circle fill="#B2C1C0" cx="32" cy="57.556" r="2.223"/>
	<path fill="#B2C1C0" d="M59.667,53.112c0-1.228-0.996-2.223-2.223-2.223c-0.909,0-1.688,0.548-2.032,1.33
		c-0.001-0.001-0.001-0.001-0.001-0.001c-0.001,0.002-0.002,0.005-0.002,0.007c-0.056,0.127-0.098,0.259-0.128,0.396
		c-0.22,0.48-0.586,0.49-1.17,0.49c-1.842,0-3.333,1.491-3.333,3.332c0,1.842,1.491,3.334,3.333,3.334s3.333-1.492,3.333-3.334
		c0-0.58,0.009-0.939,0.48-1.166c0.149-0.032,0.293-0.082,0.431-0.145c0.004,0,0.007-0.002,0.012-0.003l-0.002-0.001
		C59.131,54.778,59.667,54.009,59.667,53.112z"/>
	<circle fill="#258399" cx="54.111" cy="56.444" r="2.223"/>
	<circle fill="#3E4347" cx="57.445" cy="53.112" r="1.111"/>
	<circle fill="#3E4347" cx="53" cy="47.556" r="1.111"/>
	<path fill="#3E4347" d="M56,39.778l-1.556-15.566C54.322,22.996,53.222,22,52,22H20.889c-1.222,0-2.322,0.995-2.443,2.211
		l-1.557,15.566H56z"/>
	<rect x="19.777" y="2" fill="#F5F5F5" width="33.334" height="33.333"/>
	<path fill="#A4B3B2" d="M27.516,39.778l0.628-6.193c0.091-0.886,0.933-1.635,1.838-1.635h12.926c0.905,0,1.747,0.749,1.838,1.635
		l0.629,6.193h1.07l-0.64-6.301c-0.146-1.427-1.445-2.588-2.897-2.588H29.981c-1.451,0-2.751,1.161-2.896,2.588l-0.641,6.301H27.516
		z"/>
	<path fill="#62727A" d="M8.712,28.968c-1.513-0.4-3.023-0.4-4.535,0c-1.254,0.341-2.227,1.998-2.175,3.282
		c0.3,8.326,0.325,16.651,0.078,24.979c-0.097,2.528,1.838,4.745,4.364,4.772c2.526-0.027,4.461-2.244,4.364-4.772
		c-0.249-8.327-0.222-16.652,0.078-24.979C10.938,30.966,9.965,29.309,8.712,28.968z"/>
	<rect x="22" y="6.445" fill="#A4B3B2" width="28.889" height="2.222"/>
	<rect x="22" y="10.889" fill="#A4B3B2" width="28.889" height="2.223"/>
	<rect x="22" y="15.334" fill="#A4B3B2" width="28.889" height="2.222"/>
	<rect x="22" y="22" fill="#A4B3B2" width="28.889" height="2.222"/>
	<rect x="22" y="26.445" fill="#A4B3B2" width="14.444" height="2.222"/>
	<g>
		<circle fill="#3E4347" cx="17.556" cy="57.556" r="1.111"/>
		<circle fill="#3E4347" cx="22" cy="57.556" r="1.111"/>
		<circle fill="#3E4347" cx="26.444" cy="57.556" r="1.111"/>
	</g>
	<g>
		<g>
			<circle fill="#3E4347" cx="38.524" cy="56.618" r="1.111"/>
			<circle fill="#3E4347" cx="42.969" cy="56.618" r="1.111"/>
			<circle fill="#3E4347" cx="47.413" cy="56.618" r="1.111"/>
		</g>
		<g>
			<circle fill="#3E4347" cx="38.524" cy="52.524" r="1.111"/>
			<circle fill="#3E4347" cx="42.969" cy="52.524" r="1.111"/>
			<circle fill="#3E4347" cx="47.413" cy="52.524" r="1.111"/>
		</g>
		<g>
			<circle fill="#3E4347" cx="38.524" cy="48.431" r="1.111"/>
			<circle fill="#3E4347" cx="42.969" cy="48.431" r="1.111"/>
			<circle fill="#3E4347" cx="47.413" cy="48.431" r="1.111"/>
		</g>
		<g>
			<circle fill="#3E4347" cx="38.524" cy="44.337" r="1.111"/>
			<circle fill="#3E4347" cx="42.969" cy="44.337" r="1.111"/>
			<circle fill="#3E4347" cx="47.413" cy="44.337" r="1.111"/>
		</g>
	</g>
</g>
</svg>
