<?xml version="1.0" encoding="utf-8"?>
<!-- Generator: Adobe Illustrator 15.0.0, SVG Export Plug-In . SVG Version: 6.00 Build 0)  -->
<!DOCTYPE svg PUBLIC "-//W3C//DTD SVG 1.1//EN" "http://www.w3.org/Graphics/SVG/1.1/DTD/svg11.dtd">
<svg version="1.1" id="Layer_1" xmlns="http://www.w3.org/2000/svg" xmlns:xlink="http://www.w3.org/1999/xlink" x="0px" y="0px"
	 width="64px" height="64px" viewBox="0 0 64 64" enable-background="new 0 0 64 64" xml:space="preserve">
<g>
	<path fill="none" d="M26.374,40.564c7.82,0,14.183-6.361,14.183-14.183c0-7.82-6.362-14.183-14.183-14.183
		c-7.821,0-14.183,6.363-14.183,14.183C12.191,34.203,18.553,40.564,26.374,40.564z"/>
	<g>
		<path fill="none" d="M26.374,12.199c-7.821,0-14.183,6.363-14.183,14.183c0,7.822,6.362,14.183,14.183,14.183
			c7.82,0,14.183-6.361,14.183-14.183C40.557,18.562,34.194,12.199,26.374,12.199z"/>
		<path fill="#F2B200" d="M54.44,30.232c-2.685-2.574-4.216-5.555-4.025-7.491c-0.011-0.003-0.017-0.005-0.017-0.005
			s-0.109,4.242-1.537,5.947c-0.768,0.874-1.652,1.822-2.66,2.802c-0.208,0.201-0.422,0.404-0.641,0.609
			c0.543-1.83,0.824-3.75,0.824-5.712c0-5.345-2.082-10.37-5.861-14.149c-3.779-3.78-8.805-5.862-14.149-5.862
			s-10.371,2.082-14.15,5.862c-3.779,3.779-5.861,8.804-5.861,14.149c0,4.69,1.604,9.134,4.55,12.707
			c-0.478-0.252-0.946-0.512-1.404-0.779c-1.609-0.947-3.084-1.973-4.414-2.971c-0.789-0.594-1.525-1.176-2.211-1.738
			c-0.366-0.305-0.615-0.678-0.62-0.942c-0.006-0.311,0.046-0.586-0.132-0.779c-0.338-0.367-1.05-0.261-1.59,0.237
			c-0.54,0.498-0.704,1.199-0.366,1.564c0.188,0.205,0.42,0.168,0.754,0.186c0.465,0.027,0.471,0.168,0.875,0.592
			c0,0,4.51,4.652,6.104,6.109c1.478,1.35,3.279,2.553,5.29,3.625c1.004,0.535,2.075,1.02,3.199,1.422
			c1.123,0.406,2.298,0.73,3.486,0.971c1.188,0.244,2.385,0.408,3.555,0.535c0.585,0.063,1.163,0.117,1.732,0.168
			c0.283,0.025,0.566,0.051,0.849,0.076c0.134,0.014,0.296,0.021,0.448,0.031l0.465,0.029c2.478,0.133,4.984-0.029,7.407-0.443
			c2.425-0.412,4.761-1.074,6.946-1.887c2.188-0.813,4.225-1.775,6.088-2.795c1.863-1.021,3.555-2.098,5.067-3.158
			c1.085-0.762,2.077-1.514,2.977-2.232l0.001-0.002c2.755-2.076,6.452-2.938,6.452-2.938s-0.001-0.002-0.005-0.01
			C59.932,34.098,57.021,32.705,54.44,30.232z M26.374,40.564c-7.821,0-14.183-6.361-14.183-14.183
			c0-7.82,6.362-14.183,14.183-14.183c7.82,0,14.183,6.363,14.183,14.183C40.557,34.203,34.194,40.564,26.374,40.564z"/>
		<path fill="#333333" d="M59.959,24.474c-3.433-3.289-7.449-4.666-8.974-3.076c-0.331,0.346-0.517,0.804-0.57,1.343
			c-0.19,1.937,1.341,4.917,4.025,7.491c2.581,2.473,5.491,3.866,7.425,3.727c0.639-0.045,1.17-0.256,1.549-0.65
			C64.938,31.718,63.391,27.763,59.959,24.474z"/>
	</g>
	<g>
		<path fill="#ED4C5C" d="M24.82,39.701c0,1.484,0,2.967,0,4.449c0,1.215,0,2.43,0,3.643c0,0.424,0.354,0.777,0.776,0.777
			c0.424,0,0.777-0.354,0.777-0.777c0-1.482,0-2.967,0-4.449c0-1.215,0-2.428,0-3.643c0-0.422-0.354-0.777-0.777-0.777
			C25.174,38.924,24.82,39.279,24.82,39.701L24.82,39.701z"/>
	</g>
	<g>
		<path fill="#ED4C5C" d="M27.928,39.701c0,1.484,0,2.967,0,4.449c0,1.215,0,2.43,0,3.643c0,0.424,0.354,0.777,0.777,0.777
			s0.777-0.354,0.777-0.777c0-1.482,0-2.967,0-4.449c0-1.215,0-2.428,0-3.643c0-0.422-0.354-0.777-0.777-0.777
			S27.928,39.279,27.928,39.701L27.928,39.701z"/>
	</g>
	<path fill="#C94747" d="M27.928,53.164c0-0.91,0-1.818,0-2.729c0-2.078,0-4.156,0-6.234c0-1.436,0-2.871,0-4.307
		c0-0.064,0-0.129,0-0.193c0-0.422-0.354-0.777-0.777-0.777s-0.776,0.355-0.776,0.777c0,1.063,0,2.125,0,3.186
		c0,2.078,0,4.156,0,6.236c0,1.354,0,2.707,0,4.063c-0.546,0.438-0.721,1.326-0.776,2.063c-0.056-0.748-0.23-1.654-0.777-2.084
		c0-0.91,0-1.818,0-2.729c0-2.078,0-4.156,0-6.234c0-1.436,0-2.871,0-4.307c0-0.064,0-0.129,0-0.193
		c0-0.422-0.354-0.777-0.777-0.777s-0.777,0.355-0.777,0.777c0,1.063,0,2.125,0,3.186c0,2.078,0,4.156,0,6.236
		c0,1.354,0,2.707,0,4.063c-0.786,0.629-0.803,2.199-0.803,2.891h0.025c0,0.857,0.696,1.553,1.555,1.553
		c0.857,0,1.554-0.695,1.554-1.553c0,0.857,0.696,1.553,1.554,1.553c0.859,0,1.555-0.695,1.555-1.553h0.025
		C28.73,55.379,28.713,53.779,27.928,53.164z"/>
</g>
</svg>
