<?xml version="1.0" encoding="utf-8"?>
<!-- Generator: Adobe Illustrator 15.0.0, SVG Export Plug-In . SVG Version: 6.00 Build 0)  -->
<!DOCTYPE svg PUBLIC "-//W3C//DTD SVG 1.1//EN" "http://www.w3.org/Graphics/SVG/1.1/DTD/svg11.dtd">
<svg version="1.1" id="Layer_1" xmlns="http://www.w3.org/2000/svg" xmlns:xlink="http://www.w3.org/1999/xlink" x="0px" y="0px"
	 width="64px" height="64px" viewBox="0 0 64 64" enable-background="new 0 0 64 64" xml:space="preserve">
<g>
	<path fill="#C94747" d="M56.66,0.016V0H9.727v0.015C9.683,0.014,9.643,0,9.599,0c-4.712,0-9.6,6.954-9.6,26.001v32.002V64h4.267
		v-5.996h38.399V64h4.268l3.072-1.449v-5.988l6.655-3.119v3.947h4.267l3.072-1.449v-5.938V49.94V20.001
		C63.999,9.058,61.292,0.18,56.66,0.016z"/>
	<g>
		<rect x="9.727" fill="#ED4C5C" width="46.934" height="32.002"/>
		<rect x="56.66" y="50.753" fill="#881A0E" width="4.267" height="6.638"/>
		<path fill="#ED4C5C" d="M17.065,20.001l-17.066,6C-0.001,6.954,4.887,0,9.599,0S17.065,8.955,17.065,20.001z"/>
		<polygon fill="#ED4C5C" points="17.065,50.003 -0.001,58.004 -0.001,26.001 17.065,20.001 		"/>
		<polygon fill="#C94747" points="63.999,50.003 46.933,58.004 46.933,26.001 63.999,20.001 		"/>
		<polygon fill="#C94747" points="50.005,62.551 46.933,64 46.933,58 50.005,56.551 		"/>
		<polygon fill="#C94747" points="63.999,55.941 60.927,57.391 60.927,51.391 63.999,49.94 		"/>
		<polygon fill="#ED4C5C" points="-0.001,26.001 -0.001,58.004 -0.001,64 4.266,64 4.266,58.004 42.665,58.004 42.665,64 46.933,64 
			46.933,58.004 46.933,26.001 		"/>
		<path fill="#C94747" d="M42.665,32.911c0-2.2-1.919-4-4.266-4H8.532c-2.347,0-4.267,1.8-4.267,4v18.183c0,2.2,1.92,4,4.267,4
			h29.867c2.347,0,4.266-1.8,4.266-4V32.911z"/>
		<path fill="#ED4C5C" d="M41.449,34.195c0-2.2-1.92-4-4.267-4H9.749c-2.347,0-4.267,1.8-4.267,4V49.81c0,2.2,1.92,4,4.267,4h27.434
			c2.347,0,4.267-1.8,4.267-4V34.195z"/>
		<g>
			<path fill="#FFFFFF" d="M14.599,37.684h2.77v8.638h-1.793v-5.843c0-0.168,0.002-0.402,0.006-0.705
				c0.004-0.303,0.006-0.537,0.006-0.701l-1.746,7.249h-1.871l-1.733-7.249c0,0.164,0.002,0.398,0.006,0.701
				c0.004,0.303,0.006,0.537,0.006,0.705v5.843H8.456v-8.638h2.801l1.677,6.791L14.599,37.684z"/>
			<path fill="#FFFFFF" d="M21.784,37.684h2.178l3.26,8.638h-2.088l-0.607-1.776h-3.393l-0.625,1.776h-2.013L21.784,37.684z
				 M21.657,43.057h2.359l-1.164-3.398L21.657,43.057z"/>
			<path fill="#FFFFFF" d="M30.149,46.321h-1.912v-8.638h1.912V46.321z"/>
			<path fill="#FFFFFF" d="M31.95,37.684h1.925v7.085h4.601v1.553H31.95V37.684z"/>
		</g>
		<polygon fill="#881A0E" points="43.665,19.111 18.361,19.111 5.903,22.491 43.665,22.491 		"/>
		<rect x="12.911" y="3.511" fill="#AF2B2B" width="39.538" height="15.6"/>
		<path fill="#ED4C5C" d="M59.732,20.001l-17.067,6C42.665,6.954,47.554,0,52.266,0S59.732,8.955,59.732,20.001z"/>
		<path fill="#C94747" d="M18.361,19.111l-12.458,3.38c0-13.904,3.567-18.98,7.008-18.98C16.351,3.511,18.361,11.047,18.361,19.111z
			"/>
		<path fill="#C94747" d="M63.999,20.001l-17.066,6C46.933,6.954,51.819,0,56.532,0S63.999,8.955,63.999,20.001z"/>
	</g>
</g>
</svg>
