<?xml version="1.0" encoding="utf-8"?>
<!-- Generator: Adobe Illustrator 15.0.0, SVG Export Plug-In . SVG Version: 6.00 Build 0)  -->
<!DOCTYPE svg PUBLIC "-//W3C//DTD SVG 1.1//EN" "http://www.w3.org/Graphics/SVG/1.1/DTD/svg11.dtd">
<svg version="1.1" id="Layer_1" xmlns="http://www.w3.org/2000/svg" xmlns:xlink="http://www.w3.org/1999/xlink" x="0px" y="0px"
	 width="64px" height="64px" viewBox="0 0 64 64" enable-background="new 0 0 64 64" xml:space="preserve">
<g>
	<g>
		<g>
			<path fill="#B0BDC6" d="M38.092,57.559c-0.528,0.528-1.143,0.959-1.824,1.276l-7.895,3.681c-1.552,0.725-3.294,0.802-4.903,0.216
				c-1.61-0.586-2.896-1.766-3.621-3.318l-3.681-7.894c-1.136-2.437-0.622-5.349,1.277-7.248c0.529-0.529,1.143-0.959,1.826-1.277
				l7.895-3.681c3.203-1.495,7.027-0.104,8.524,3.102l3.681,7.895C40.506,52.746,39.992,55.659,38.092,57.559z M20.358,47.185
				c-0.679,0.68-0.862,1.722-0.456,2.593l3.681,7.895c0.259,0.556,0.719,0.978,1.296,1.187c0.574,0.209,1.197,0.182,1.754-0.076
				l7.894-3.682c1.129-0.526,1.628-1.937,1.109-3.05l-3.681-7.894c-0.534-1.146-1.904-1.645-3.05-1.111l-7.894,3.684
				C20.767,46.843,20.547,46.997,20.358,47.185z"/>
		</g>
		<g>
			<path fill="#898A90" d="M36.18,56.327c-0.432,0.431-0.932,0.78-1.486,1.041l-6.432,2.998c-1.266,0.59-2.686,0.652-3.996,0.175
				c-1.313-0.478-2.359-1.438-2.949-2.702l-2.999-6.432c-0.925-1.984-0.507-4.357,1.041-5.905c0.431-0.431,0.931-0.78,1.489-1.04
				l6.43-2.999c2.61-1.218,5.727-0.084,6.945,2.527l2.999,6.433C38.146,52.407,37.727,54.78,36.18,56.327z M21.732,47.875
				c-0.555,0.556-0.703,1.403-0.373,2.113l3,6.431c0.21,0.453,0.585,0.797,1.055,0.967c0.469,0.172,0.977,0.149,1.43-0.063
				l6.43-2.999c0.92-0.429,1.327-1.577,0.904-2.483l-2.998-6.432c-0.436-0.934-1.55-1.34-2.484-0.904l-6.432,2.998
				C22.064,47.598,21.885,47.722,21.732,47.875z"/>
		</g>
	</g>
	<path fill="#898A90" d="M1.465,53.802c0,0-3.95,2.535,1.125,7.609c5.073,5.076,7.609,1.123,7.609,1.123L1.465,53.802z"/>
	<path fill="#B0BDC6" d="M2.893,55.231c0,0-4.203,2.281-0.306,6.177c3.895,3.898,6.178-0.308,6.178-0.307L2.893,55.231z"/>
	<path fill="#ED4C5C" d="M26.794,3.348L1.473,53.626h0.001c-1.796,2.768,6.133,10.707,8.9,8.901l50.237-25.296L26.794,3.348z"/>
	<path fill="#898A90" d="M62.869,35.219l-1.363,1.364c-3.479,3.479-13.928-1.336-23.341-10.748
		C28.75,16.421,23.938,5.973,27.416,2.495l1.363-1.363L62.869,35.219z"/>
	<path fill="#DFE9EF" d="M61.625,33.976l-3.729,3.729c0,0-7.801,0.063-19.731-11.869C26.219,13.889,26.297,6.102,26.297,6.102
		l3.727-3.728L61.625,33.976z"/>
	<path fill="#B0BDC6" d="M52.121,11.879c9.412,9.412,14.225,19.862,10.748,23.34c-3.479,3.479-13.928-1.335-23.34-10.747
		c-9.416-9.414-14.228-19.862-10.75-23.34C32.258-2.347,42.707,2.465,52.121,11.879z"/>
	<path fill="#898A90" d="M39.512,24.455c6.672,6.671,13.861,11.029,18.723,11.764c-0.76-4.861-5.107-12.021-11.754-18.667
		C39.809,10.88,32.619,6.524,27.756,5.789C28.517,10.649,32.865,17.808,39.512,24.455z"/>
	<g>
		<path fill="#FFFFFF" d="M5.549,55.675c-0.508-0.493-0.905-0.779-1.208-0.838c-0.166-0.031-0.29,0.006-0.371,0.113
			c-0.154,0.201-0.091,0.604,0.204,1.188c0.293,0.578,0.838,1.312,1.691,2.161c0.859,0.854,1.57,1.364,2.085,1.588
			c0.521,0.224,0.879,0.262,1.058,0.124c0.177-0.137,0.163-0.381-0.042-0.74c-0.206-0.363-0.554-0.783-1.031-1.271
			c-0.183,0.165-0.366,0.331-0.549,0.497c-0.415-0.387-0.822-0.784-1.219-1.19c0.313-0.322,0.627-0.646,0.941-0.969
			c1.34,1.373,2.789,2.639,4.333,3.785c-0.131,0.09-0.262,0.181-0.393,0.271c-0.373-0.25-0.74-0.504-1.101-0.766
			c0.281,0.392,0.461,0.675,0.533,0.856c0.131,0.318,0.084,0.546-0.133,0.692c-0.35,0.238-1.004,0.164-1.913-0.248
			c-0.909-0.405-1.936-1.111-3.027-2.2c-1.104-1.102-1.834-2.153-2.271-3.104c-0.44-0.966-0.511-1.668-0.249-2.058
			c0.237-0.347,0.623-0.356,1.188-0.03c0.575,0.329,1.208,0.882,1.918,1.624C5.848,55.332,5.699,55.503,5.549,55.675z"/>
		<path fill="#FFFFFF" d="M13.645,57.391c0.497,0.75,0.506,1.261,0.028,1.578c-0.463,0.308-1.172,0.287-2.087-0.085
			c-1.129-0.434-2.431-1.279-3.819-2.668c-1.412-1.421-2.25-2.73-2.657-3.83c-0.37-0.916-0.389-1.628-0.082-2.092
			c0.317-0.479,0.827-0.469,1.574,0.029c0.929,0.553,2.12,1.727,3.719,3.336C11.892,55.231,13.06,56.433,13.645,57.391z
			 M11.803,56.563c-0.407-0.595-1.121-1.349-2.078-2.308c-0.952-0.957-1.703-1.672-2.297-2.082
			c-0.588-0.408-0.966-0.489-1.161-0.232c-0.189,0.252-0.126,0.727,0.208,1.398c0.333,0.664,0.917,1.464,1.808,2.36
			c0.893,0.894,1.69,1.481,2.353,1.815c0.67,0.335,1.144,0.399,1.395,0.209C12.288,57.529,12.208,57.151,11.803,56.563z"/>
		<path fill="#FFFFFF" d="M9.798,43.724c0.496,0.73,1.016,1.442,1.559,2.137c-0.318,0.42-0.635,0.84-0.953,1.258
			c2.418,3.068,5.283,5.764,8.501,7.993c-0.302,0.198-0.603,0.396-0.905,0.595c-3.11-2.171-5.883-4.783-8.233-7.75
			c-0.287,0.377-0.577,0.754-0.865,1.131c-0.486-0.608-0.954-1.234-1.403-1.873C8.268,46.058,9.034,44.895,9.798,43.724z"/>
		<path fill="#FFFFFF" d="M14.466,41.706c-0.658,0.887-1.317,1.77-1.978,2.65c0.682,0.881,1.399,1.732,2.151,2.552
			c0.659-0.729,1.319-1.458,1.978-2.188c0.666,0.73,1.356,1.437,2.072,2.117c-0.714,0.673-1.428,1.346-2.142,2.02
			c0.974,0.931,1.995,1.812,3.058,2.641c0.923-0.693,1.849-1.386,2.777-2.076c0.822,0.631,1.669,1.232,2.538,1.802
			c-1.355,0.861-2.702,1.728-4.039,2.597c-4.208-2.859-7.833-6.494-10.684-10.709c0.839-1.291,1.675-2.59,2.508-3.898
			C13.262,40.065,13.85,40.897,14.466,41.706z"/>
		<path fill="#FFFFFF" d="M14.557,36.278c0.336-0.535,0.671-1.072,1.006-1.611c4.197,4.972,9.761,9.184,16.384,12.17
			c-0.572,0.35-1.144,0.701-1.713,1.053c-1.325-0.628-2.607-1.309-3.842-2.037c-0.755,0.566-1.509,1.133-2.26,1.7
			c0.865,0.869,1.758,1.694,2.682,2.472c-0.451,0.283-0.9,0.568-1.35,0.853C21.063,47.05,17.309,42.104,14.557,36.278z
			 M21.994,45.235c0.479-0.427,0.959-0.852,1.439-1.278c-2.125-1.479-4.085-3.108-5.861-4.863
			C18.899,41.302,20.381,43.354,21.994,45.235z"/>
		<path fill="#FFFFFF" d="M21.404,25.038c0.625-1.055,1.248-2.116,1.87-3.181c4.402,7.932,10.935,14.476,18.856,18.894
			c-0.701,0.408-1.4,0.818-2.097,1.229c-5.083-2.892-9.571-6.677-13.263-11.152c-0.318-0.386-0.757-0.933-1.298-1.658
			c-0.541-0.727-0.939-1.298-1.218-1.703c3.571,6.364,8.338,11.68,13.88,15.635c-0.642,0.381-1.281,0.763-1.919,1.145
			c-6.104-2.935-11.348-6.971-15.463-11.758c0.248,0.35,0.607,0.843,1.093,1.465c0.486,0.623,0.877,1.096,1.159,1.432
			c3.264,3.896,7.166,7.233,11.555,9.861c-0.544,0.328-1.087,0.657-1.627,0.986c-6.196-3.766-11.393-8.973-15.146-15.178
			c0.523-0.858,1.045-1.721,1.567-2.586c3.516,4.833,8.101,9.049,13.53,12.353C28.195,36.57,24.257,31.224,21.404,25.038z"/>
		<path fill="#FFFFFF" d="M24.942,19.146c0.516-0.89,1.029-1.784,1.542-2.682c1.213,2.29,2.594,4.474,4.126,6.535
			c2.64,3.96,5.775,7.491,9.302,10.504c-0.358,0.276-0.717,0.552-1.076,0.828c-3.748-2.589-7.092-5.635-9.947-9.042
			C27.43,23.349,26.11,21.297,24.942,19.146z M40.172,36.119c0.756-0.533,1.514-1.063,2.273-1.595
			c1.635,1.129,3.34,2.166,5.109,3.103c-0.86,0.489-1.716,0.979-2.569,1.471C43.32,38.194,41.713,37.198,40.172,36.119z"/>
	</g>
</g>
</svg>
