<?xml version="1.0" encoding="utf-8"?>
<!-- Generator: Adobe Illustrator 15.0.0, SVG Export Plug-In . SVG Version: 6.00 Build 0)  -->
<!DOCTYPE svg PUBLIC "-//W3C//DTD SVG 1.1//EN" "http://www.w3.org/Graphics/SVG/1.1/DTD/svg11.dtd">
<svg version="1.1" id="Layer_1" xmlns="http://www.w3.org/2000/svg" xmlns:xlink="http://www.w3.org/1999/xlink" x="0px" y="0px"
	 width="64px" height="64px" viewBox="0 0 64 64" enable-background="new 0 0 64 64" xml:space="preserve">
<g>
	<g>
		<g>
			<g>
				<g>
					<g>
						<path fill="#B0BDC6" d="M12.286,53.604L27.69,32.826L17.201,13.834c-0.576,0.946-1.023,2.213-1.19,3.569l-4.028,32.715
							C11.816,51.465,11.946,52.697,12.286,53.604z"/>
						<path fill="#B0BDC6" d="M63.105,5.177L40.95,32.254l15.594,26.35c0.953-1.067,1.672-2.648,1.898-4.482L63.93,9.573
							C64.158,7.727,63.814,6.174,63.105,5.177z"/>
					</g>
				</g>
				<g>
					<path fill="#CAD5DD" d="M32.537,42.111l-4.847-9.286L12.286,53.604c0.315,0.832,0.807,1.396,1.425,1.473L53.56,59.98
						c1.064,0.133,2.117-0.404,2.984-1.376L40.95,32.254L32.537,42.111z"/>
					<path fill="#DFE9EF" d="M60.45,4.052l-41.465,8.199c-0.636,0.128-1.265,0.727-1.785,1.583l10.49,18.991l4.847,9.286
						l8.413-9.857L63.105,5.177C62.469,4.287,61.546,3.838,60.45,4.052z"/>
				</g>
			</g>
		</g>
	</g>
	<g>
		<path fill="#79D3F7" d="M9.187,44.951c0.825,0.019,1.421,0.704,1.326,1.523l-0.711,6.098c-0.095,0.819-0.842,1.398-1.659,1.285
			L1.776,52.98c-0.817-0.113-1.392-0.873-1.277-1.69l0.708-5.024c0.115-0.817,0.884-1.471,1.708-1.452L9.187,44.951z"/>
	</g>
	<g>
		<path fill="#79D3F7" d="M11.258,29.699c0.822-0.07,1.412,0.543,1.312,1.362l-0.836,6.794c-0.101,0.819-0.858,1.489-1.683,1.489
			H1.5c-0.825,0-1.396-0.667-1.27-1.482l0.906-5.845c0.126-0.815,0.902-1.539,1.725-1.609L11.258,29.699z"/>
	</g>
	<g>
		<path fill="#79D3F7" d="M13.426,13.436c0.812-0.148,1.393,0.401,1.292,1.22l-0.844,6.857c-0.101,0.819-0.854,1.562-1.674,1.651
			L1.607,24.321c-0.82,0.089-1.38-0.503-1.245-1.317l0.986-5.938c0.135-0.813,0.91-1.6,1.722-1.748L13.426,13.436z"/>
	</g>
</g>
</svg>
