<?xml version="1.0" encoding="utf-8"?>
<!-- Generator: Adobe Illustrator 15.0.0, SVG Export Plug-In . SVG Version: 6.00 Build 0)  -->
<!DOCTYPE svg PUBLIC "-//W3C//DTD SVG 1.1//EN" "http://www.w3.org/Graphics/SVG/1.1/DTD/svg11.dtd">
<svg version="1.1" id="Layer_1" xmlns="http://www.w3.org/2000/svg" xmlns:xlink="http://www.w3.org/1999/xlink" x="0px" y="0px"
	 width="64px" height="64px" viewBox="0 0 64 64" enable-background="new 0 0 64 64" xml:space="preserve">
<g>
	<polygon fill="#94989B" points="28.412,51.568 19.559,51.568 17.521,64 30.447,64 	"/>
	<polygon fill="#D0D0D0" points="22.4,51.568 14.862,42.818 11.509,64 24.438,64 	"/>
	<g>
		<path fill="#42ADE2" d="M38.744,8.695c2.786,2.312,5.704,4.968,8.627,7.89s5.578,5.841,7.89,8.627
			c-0.31-3.132-2.417-7.125-5.905-10.612C45.868,11.113,41.876,9.005,38.744,8.695z"/>
		<path fill="#42ADE2" d="M63.955,26.602c-0.5-5.045-3.895-11.474-9.511-17.09C48.829,3.896,42.399,0.5,37.354,0
			c4.487,3.724,9.187,8,13.895,12.706C55.957,17.415,60.232,22.115,63.955,26.602z"/>
	</g>
	<g>
		<path fill="#D0D0D0" d="M63.232,59.184c-9.537,9.539-30.357,4.184-46.501-11.959C0.588,31.081-4.767,10.26,4.771,0.723
			L63.232,59.184z"/>
		
			<ellipse transform="matrix(0.7071 0.7071 -0.7071 0.7071 31.2038 -15.1149)" fill="#94989B" cx="33.847" cy="30.109" rx="41.339" ry="9.224"/>
	</g>
	<path fill="#D0D0D0" d="M32.938,33.467c-0.644,0.688-1.75,0.699-2.448,0l0,0c-0.701-0.7-0.69-1.806-0.001-2.449l13.264-11.952
		l1.137,1.137L32.938,33.467z"/>
	<circle fill="#333333" cx="43.085" cy="20.871" r="3.861"/>
</g>
</svg>
