<?xml version="1.0" encoding="utf-8"?>
<!-- Generator: Adobe Illustrator 15.0.0, SVG Export Plug-In . SVG Version: 6.00 Build 0)  -->
<!DOCTYPE svg PUBLIC "-//W3C//DTD SVG 1.1//EN" "http://www.w3.org/Graphics/SVG/1.1/DTD/svg11.dtd">
<svg version="1.1" id="Layer_1" xmlns="http://www.w3.org/2000/svg" xmlns:xlink="http://www.w3.org/1999/xlink" x="0px" y="0px"
	 width="64px" height="64px" viewBox="0 0 64 64" enable-background="new 0 0 64 64" xml:space="preserve">
<g>
	<g>
		<g>
			<g>
				<path fill="#B0BDC6" d="M0.603,48.697l18.517-19.292L4.863,8.938c-0.683,0.894-1.186,2.126-1.329,3.482L0.041,45.129
					C-0.102,46.474,0.126,47.739,0.603,48.697z"/>
				<path fill="#B0BDC6" d="M62.692,5.457L35.918,30.356l21.099,28.517c1.155-0.971,1.989-2.492,2.186-4.325l4.755-44.538
					C64.154,8.163,63.642,6.549,62.692,5.457z"/>
			</g>
		</g>
		<g>
			<path fill="#CAD5DD" d="M25.732,39.381l-6.613-9.976L0.603,48.697c0.44,0.883,1.093,1.51,1.88,1.659l50.813,9.569
				c1.357,0.257,2.669-0.168,3.722-1.053L35.918,30.356L25.732,39.381z"/>
			<path fill="#DFE9EF" d="M59.266,4.009L7.053,7.54c-0.802,0.056-1.57,0.59-2.189,1.398l14.256,20.467l6.613,9.976l10.186-9.025
				L62.692,5.457C61.841,4.48,60.647,3.918,59.266,4.009z"/>
		</g>
	</g>
	<polygon fill="#428BC1" points="35.178,23.613 35.794,18.488 18.251,18.396 15.379,42.267 32.442,46.34 33.06,41.215 
		20.286,38.727 20.957,33.153 33.811,34.977 34.427,29.851 21.509,28.572 22.179,23 	"/>
</g>
</svg>
