<?xml version="1.0" encoding="utf-8"?>
<!-- Generator: Adobe Illustrator 15.0.0, SVG Export Plug-In . SVG Version: 6.00 Build 0)  -->
<!DOCTYPE svg PUBLIC "-//W3C//DTD SVG 1.1//EN" "http://www.w3.org/Graphics/SVG/1.1/DTD/svg11.dtd">
<svg version="1.1" id="Layer_1" xmlns="http://www.w3.org/2000/svg" xmlns:xlink="http://www.w3.org/1999/xlink" x="0px" y="0px"
	 width="64px" height="64px" viewBox="0 0 64 64" enable-background="new 0 0 64 64" xml:space="preserve">
<g>
	<g>
		<g>
			<polygon fill="#B0BDC6" points="37.983,64 29.176,62.783 29.176,13.848 37.983,13.848 			"/>
			<polygon fill="#7D8B91" points="44.332,13.848 37.983,13.848 37.983,64 44.332,57.918 			"/>
		</g>
		<path fill="#333333" d="M46.769,0c-8.17,0-35.633,9.471-35.633,9.471l24.556,40.4L64,32.842V17.03C64,6.281,57.588,0,46.769,0z"/>
		<path fill="#697277" d="M17.231,8.516C6.355,8.516,0,16.013,0,26.76v17.029l35.692,6.082V29.193
			C35.691,18.445,28.106,8.516,17.231,8.516z"/>
		<polygon fill="#94989B" points="35.691,49.871 0,43.789 35.691,27.449 		"/>
	</g>
	<polygon fill="#ED4C5C" points="62.683,14.172 36.683,26.607 36.684,29.914 55.947,20.266 55.947,30.172 62.683,26.377 	"/>
</g>
</svg>
