<?xml version="1.0" encoding="utf-8"?>
<!-- Generator: Adobe Illustrator 15.0.0, SVG Export Plug-In . SVG Version: 6.00 Build 0)  -->
<!DOCTYPE svg PUBLIC "-//W3C//DTD SVG 1.1//EN" "http://www.w3.org/Graphics/SVG/1.1/DTD/svg11.dtd">
<svg version="1.1" id="Layer_1" xmlns="http://www.w3.org/2000/svg" xmlns:xlink="http://www.w3.org/1999/xlink" x="0px" y="0px"
	 width="64px" height="64px" viewBox="0 0 64 64" enable-background="new 0 0 64 64" xml:space="preserve">
<g>
	<g>
		<path fill="#42ADE2" d="M54.178,15.156c2.234,5.43,2.794,11.156,2.896,16.794c-0.07,5.627-0.661,11.363-2.896,16.777
			c-0.438-5.574-0.198-11.213-0.164-16.793C53.979,26.356,53.778,20.729,54.178,15.156L54.178,15.156z"/>
		<path fill="#42ADE2" d="M58.422,6.765C61.131,15.005,61.87,23.506,62,31.95c-0.131,8.439-0.861,16.936-3.578,25.168
			c0.021-8.236,0.479-16.473,0.515-24.711C58.975,23.857,58.468,15.314,58.422,6.765L58.422,6.765z"/>
	</g>
	<g>
		<polygon fill="#333333" points="18.193,52.372 10.11,52.372 24.624,38.815 32.707,38.815 		"/>
		<g>
			<g>
				<path fill="#B0BDC6" d="M8.316,25.102c-1.577,0.132-3.013,0.206-4.251,0.206c0,0-2.065,3.212-2.065,6.646
					c0,3.438,2.068,6.646,2.068,6.646c1.24,0,2.677,0.074,4.254,0.205c-0.582-1.197-1.744-3.953-1.744-6.853
					C6.579,29.057,7.735,26.304,8.316,25.102z"/>
				<path fill="#ED4C5C" d="M42.248,4.918c0,0-15.983,18.044-29.584,19.725c-0.718,1.647-1.694,4.418-1.694,7.309
					c0,2.896,0.98,5.667,1.699,7.312c13.594,1.68,29.549,19.682,29.549,19.682L42.248,4.918z"/>
				<path fill="#333333" d="M12.664,24.643c-1.53,0.189-2.99,0.346-4.347,0.459c-0.581,1.202-1.738,3.955-1.738,6.85
					c0,2.899,1.162,5.655,1.744,6.853c1.356,0.113,2.815,0.27,4.346,0.459c-0.719-1.645-1.699-4.416-1.699-7.312
					C10.97,29.061,11.946,26.29,12.664,24.643z"/>
			</g>
			<ellipse fill="#AA1D39" cx="43.883" cy="31.931" rx="6.285" ry="27.988"/>
			<path fill="#5B0617" d="M43.883,59.942c-3.471,0-6.284-12.531-6.284-27.989c5.316-3.968,12.355,4.87,12.355,4.87
				C38.961,42.837,43.883,59.942,43.883,59.942z"/>
			<g>
				<path fill="#333333" d="M37.849,24.442c0,0-0.25,2.635-0.25,7.488c0,4.941,0.25,7.488,0.25,7.488l12.319-2.635v-9.707
					L37.849,24.442z"/>
				<path fill="#4B4D4F" d="M37.703,26.813c0,0-0.104,1.805-0.104,5.128c0,3.382,0.104,5.126,0.104,5.126l12.466-1.803v-6.646
					L37.703,26.813z"/>
				<ellipse fill="#ED4C5C" cx="50.167" cy="31.932" rx="1.571" ry="4.853"/>
			</g>
		</g>
		<rect x="10.11" y="28.174" fill="#898A90" width="8.083" height="24.198"/>
		<ellipse fill="#FFFFFF" cx="14.151" cy="32.528" rx="1.654" ry="1.969"/>
	</g>
</g>
</svg>
