<?xml version="1.0" encoding="utf-8"?>
<!-- Generator: Adobe Illustrator 15.0.0, SVG Export Plug-In . SVG Version: 6.00 Build 0)  -->
<!DOCTYPE svg PUBLIC "-//W3C//DTD SVG 1.1//EN" "http://www.w3.org/Graphics/SVG/1.1/DTD/svg11.dtd">
<svg version="1.1" id="Layer_1" xmlns="http://www.w3.org/2000/svg" xmlns:xlink="http://www.w3.org/1999/xlink" x="0px" y="0px"
	 width="64px" height="64px" viewBox="0 0 64 64" enable-background="new 0 0 64 64" xml:space="preserve">
<g>
	<g>
		<g>
			<polygon fill="#89664C" points="24.894,39.026 24.894,51.357 0,64 0,47.473 			"/>
			<rect x="24.894" y="39.026" fill="#B77E58" width="39.106" height="12.331"/>
			<polygon fill="#F2BC97" points="24.894,51.357 0,64 53.465,64 64,51.357 			"/>
			<path fill="#D3976E" d="M35.412,47.473c0,0-0.333,6.953-1.735,8.263c-2.738,2.555-11.149,2.555-13.887,0
				c-1.403-1.31-1.736-8.263-1.736-8.263H0V64h53.465V47.473H35.412z"/>
		</g>
		<polygon fill="#89664C" points="64,51.357 53.465,64 53.465,47.473 64,39.026 		"/>
	</g>
	<g>
		<path fill="#881A0E" d="M37.934,0l2.413,5.528c0,0-9.118,5.268-10.958,17.512c-1.693,11.27,2.55,19.048,2.55,19.048l1.25,0.779
			c0,0-1.429-8.896,3.534-16.833c2.993-4.786,7.063-7.856,8.529-8.795l2.05,4.739l1.503,1.503L60,4.035l-1.503-1.503L37.934,0z"/>
		<path fill="#ED4C5C" d="M33.188,42.867c0,0-0.124-6.981,4.02-15.374c3.401-6.89,9.061-9.679,9.061-9.679l2.536,5.667L60,4.035
			L39.437,1.502l2.412,5.529c0,0-9.117,5.267-10.957,17.512C29.198,35.813,33.188,42.867,33.188,42.867z"/>
	</g>
</g>
</svg>
