<?xml version="1.0" encoding="utf-8"?>
<!-- Generator: Adobe Illustrator 15.0.0, SVG Export Plug-In . SVG Version: 6.00 Build 0)  -->
<!DOCTYPE svg PUBLIC "-//W3C//DTD SVG 1.1//EN" "http://www.w3.org/Graphics/SVG/1.1/DTD/svg11.dtd">
<svg version="1.1" id="Layer_1" xmlns="http://www.w3.org/2000/svg" xmlns:xlink="http://www.w3.org/1999/xlink" x="0px" y="0px"
	 width="64px" height="64px" viewBox="0 0 64 64" enable-background="new 0 0 64 64" xml:space="preserve">
<g>
	<g>
		<polygon fill="#B0BDC6" points="37.984,64 29.176,62.783 29.176,13.848 37.984,13.848 		"/>
		<polygon fill="#7D8B91" points="44.332,13.848 37.984,13.848 37.984,64 44.332,57.918 		"/>
	</g>
	<path fill="#697277" d="M17.232,8.517c-1.918,0-3.688,0.245-5.315,0.688C4.32,11.274,0,17.909,0,26.761v17.028l35.692,6.082V29.194
		C35.692,18.446,28.107,8.517,17.232,8.517z"/>
	<polygon fill="#94989B" points="35.692,49.871 0,43.789 35.692,27.45 	"/>
	<g>
		<g>
			<g>
				<path fill="#B0BDC6" d="M43.963,34.609l-11.324-8.396l5.607-11.893c0.434,0.404,0.803,1,0.998,1.693l4.695,16.692
					C44.133,33.391,44.126,34.068,43.963,34.609z"/>
				<path fill="#B0BDC6" d="M7.883,17.605l16.109,10.582l-8.454,16.68c-0.686-0.402-1.253-1.121-1.517-2.057L7.627,20.083
					C7.362,19.14,7.486,18.256,7.883,17.605z"/>
			</g>
		</g>
		<g>
			<path fill="#CAD5DD" d="M30.081,31.981l2.558-5.768l11.324,8.396c-0.152,0.496-0.436,0.881-0.831,1.027l-25.566,9.449
				c-0.683,0.254-1.402,0.148-2.027-0.219l8.454-16.68L30.081,31.981z"/>
			<path fill="#DFE9EF" d="M9.537,16.55l27.45-2.764c0.421-0.042,0.867,0.168,1.26,0.534l-5.607,11.893l-2.558,5.768l-6.089-3.794
				L7.883,17.605C8.24,17.022,8.811,16.625,9.537,16.55z"/>
		</g>
	</g>
	<path fill="#333333" d="M46.77,0c-7.357,0-30.345,7.675-34.853,9.205c1.627-0.443,3.397-0.688,5.315-0.688
		c10.875,0,18.46,9.929,18.46,20.677v20.677L64,32.842V17.03C64,6.282,57.588,0,46.77,0z"/>
	<polygon fill="#ED4C5C" points="37.234,6.418 37.234,35.607 39.964,34.264 39.955,15.582 51.227,11.311 51.234,1.608 	"/>
</g>
</svg>
