<?xml version="1.0" encoding="utf-8"?>
<!-- Generator: Adobe Illustrator 15.0.0, SVG Export Plug-In . SVG Version: 6.00 Build 0)  -->
<!DOCTYPE svg PUBLIC "-//W3C//DTD SVG 1.1//EN" "http://www.w3.org/Graphics/SVG/1.1/DTD/svg11.dtd">
<svg version="1.1" id="Layer_1" xmlns="http://www.w3.org/2000/svg" xmlns:xlink="http://www.w3.org/1999/xlink" x="0px" y="0px"
	 width="64px" height="64px" viewBox="0 0 64 64" enable-background="new 0 0 64 64" xml:space="preserve">
<g>
	<g>
		<g>
			<polygon fill="#89664C" points="24.894,39.026 24.894,51.357 0,64 0,47.473 			"/>
			<rect x="24.894" y="39.026" fill="#B77E58" width="39.106" height="12.331"/>
			<polygon fill="#F2BC97" points="24.894,51.357 0,64 53.465,64 64,51.357 			"/>
			<path fill="#D3976E" d="M35.412,47.473c0,0-0.333,6.953-1.735,8.263c-2.738,2.555-11.149,2.555-13.887,0
				c-1.403-1.31-1.736-8.263-1.736-8.263H0V64h53.465V47.473H35.412z"/>
		</g>
		<polygon fill="#89664C" points="64,51.357 53.465,64 53.465,47.473 64,39.026 		"/>
	</g>
	<g>
		<path fill="#5B7F38" d="M48.479,34l-5.615-2.203c0,0,2.723-10.172-4.635-20.131C31.457,2.5,22.957,0,22.957,0l-1.436,0.333
			c0,0,7.301,5.28,9.404,14.401c1.268,5.501,0.561,10.551,0.188,12.25l-4.801-1.901h-2.125l5.834,21.667h2.125L48.479,34z"/>
		<path fill="#83BF4F" d="M21.521,0.333c0,0,5.024,4.849,8.029,13.714c2.467,7.276,0.438,13.25,0.438,13.25l-5.801-2.214
			l5.834,21.667L46.354,34l-5.615-2.203c0,0,2.723-10.172-4.635-20.131C29.332,2.5,21.521,0.333,21.521,0.333z"/>
	</g>
</g>
</svg>
