<?xml version="1.0" encoding="utf-8"?>
<!-- Generator: Adobe Illustrator 15.0.0, SVG Export Plug-In . SVG Version: 6.00 Build 0)  -->
<!DOCTYPE svg PUBLIC "-//W3C//DTD SVG 1.1//EN" "http://www.w3.org/Graphics/SVG/1.1/DTD/svg11.dtd">
<svg version="1.1" id="Layer_1" xmlns="http://www.w3.org/2000/svg" xmlns:xlink="http://www.w3.org/1999/xlink" x="0px" y="0px"
	 width="64px" height="64px" viewBox="0 0 64 64" enable-background="new 0 0 64 64" xml:space="preserve">
<g>
	<g>
		<g>
			<polygon fill="#B0BDC6" points="37.983,64 29.176,62.783 29.176,13.848 37.983,13.848 			"/>
			<polygon fill="#7D8B91" points="44.332,13.848 37.983,13.848 37.983,64 44.332,57.918 			"/>
		</g>
		<path fill="#333333" d="M46.769,0c-8.17,0-35.633,9.471-35.633,9.471l24.557,40.4L64,32.842V17.03C64,6.281,57.588,0,46.769,0z"/>
		<path fill="#697277" d="M17.231,8.516C6.355,8.516,0,16.013,0,26.76v17.029l35.692,6.082V29.193
			C35.692,18.445,28.106,8.516,17.231,8.516z"/>
		<polygon fill="#ED4C5C" points="62.684,14.172 36.684,26.607 36.684,29.915 55.948,20.266 55.948,30.172 62.684,26.377 		"/>
		<g>
			<path fill="#333333" d="M9.727,22.752l2.563,0.346l-0.094,10.669l-1.659-0.224l0.063-7.217c0.002-0.207,0.006-0.497,0.014-0.871
				c0.007-0.374,0.012-0.661,0.013-0.864l-1.693,8.736l-1.731-0.234l-1.525-9.169c-0.002,0.203-0.003,0.491-0.002,0.865
				c0.001,0.375,0,0.666-0.002,0.873L5.609,32.88l-1.66-0.224l0.095-10.67l2.592,0.349l1.478,8.599L9.727,22.752z"/>
			<path fill="#333333" d="M16.376,23.649l2.015,0.272l2.923,11.076l-1.934-0.261l-0.543-2.27l-3.139-0.422l-0.597,2.114
				l-1.862-0.251L16.376,23.649z M16.2,30.271l2.184,0.294l-1.04-4.344L16.2,30.271z"/>
			<path fill="#333333" d="M24.023,35.362l-1.77-0.239l0.094-10.669l1.77,0.239L24.023,35.362z"/>
			<path fill="#333333" d="M25.783,24.917l1.781,0.24l-0.078,8.75l4.258,0.574L31.727,36.4l-6.037-0.813L25.783,24.917z"/>
		</g>
	</g>
	<g>
		<path fill="#52595E" d="M19.572,16.435l-4.51,2.08l0.306-2.979l3.215-1.483C19.789,13.495,20.778,15.878,19.572,16.435z"/>
		<path fill="#333333" d="M18.447,16.105c0.267,2.55-1.493,3.872-3.016,4.031c-0.898,0.095-1.634-6.592-1.634-6.592
			s0.85-0.457,1.574-0.533C16.895,12.853,18.248,14.202,18.447,16.105z"/>
		
			<ellipse transform="matrix(0.9946 -0.1039 0.1039 0.9946 -1.6528 1.6564)" fill="#52595E" cx="15.071" cy="16.69" rx="2.772" ry="3.465"/>
		
			<ellipse transform="matrix(0.9946 -0.104 0.104 0.9946 -1.6548 1.6586)" fill="#697277" cx="15.07" cy="16.691" rx="2.107" ry="2.634"/>
	</g>
</g>
</svg>
