<?xml version="1.0" encoding="utf-8"?>
<!-- Generator: Adobe Illustrator 15.0.0, SVG Export Plug-In . SVG Version: 6.00 Build 0)  -->
<!DOCTYPE svg PUBLIC "-//W3C//DTD SVG 1.1//EN" "http://www.w3.org/Graphics/SVG/1.1/DTD/svg11.dtd">
<svg version="1.1" id="Layer_1" xmlns="http://www.w3.org/2000/svg" xmlns:xlink="http://www.w3.org/1999/xlink" x="0px" y="0px"
	 width="64px" height="64px" viewBox="0 0 64 64" enable-background="new 0 0 64 64" xml:space="preserve">
<g>
	<path fill="#94989B" d="M30.025,63.054c0,0,19.724-25.311,33.974-33.143C57.586,17.378,25.781,4.942,25.781,4.942L5.675,31.161
		l19.625,31.658C26.384,64.289,28.512,64.409,30.025,63.054z"/>
	<path fill="#D0D0D0" d="M26.025,57.911c0,0,38.283-26.684,33.495-42.083C48.837,16.804,28.271,2.211,26.762,0
		C20.74,8.772,8.118,15.515,2.414,23.077c-2.309,3.061-3.462,5.338-1.167,8.838l24.053,30.904
		C24.244,61.388,24.58,59.204,26.025,57.911z"/>
	<polygon fill="#94989B" points="47.274,32.383 18.944,10.186 19.683,9.525 48.284,31.479 	"/>
	<path fill="#94989B" d="M17.946,31.161L7.66,20.526c4.886-5.649,8.922-8.226,8.922-8.226l11.596,9.702L17.946,31.161z"/>
	<path fill="#94989B" d="M24.656,52.63L2.774,25.811c0.56-2.369,2.592-3.47,2.592-3.47l23.33,26.673L24.656,52.63z"/>
	<polygon fill="#94989B" points="30.809,24.203 27.293,27.349 40.004,38.892 44.043,35.276 	"/>
	<polygon fill="#94989B" points="23.778,30.496 20.264,33.642 31.928,46.122 35.965,42.507 	"/>
	<g>
		<path fill="#94989B" d="M28.321,4.37l1.116,0.705l-1.664,4.69l3.762-3.366l1.066,0.673l-5.458,4.886l-1.074-0.784l1.715-4.811
			l-3.732,3.341l-0.931-0.679L28.321,4.37z"/>
		<path fill="#94989B" d="M37.075,11.458L33.92,9.416l-1.189,1.064l2.852,1.904l-1.002,0.897l-2.821-1.931l-1.438,1.289l3.176,2.257
			l-1.042,0.933l-4.245-3.094l5.527-4.948l4.364,2.754L37.075,11.458z"/>
		<path fill="#94989B" d="M40.159,11.84l-2.55,3.604l-0.77,0.979l1.119-0.708l4.209-2.608l1.516,0.957l-2.7,3.694l-0.778,1.026
			l1.162-0.704l4.553-2.605l1.574,0.994l-8.303,4.271l-1.34-0.977l2.774-3.767l0.938-1.211l-1.412,0.895l-4.316,2.614l-1.212-0.883
			l4.113-6.467L40.159,11.84z"/>
		<path fill="#94989B" d="M45.133,21.819c-0.248,0.299-0.375,0.564-0.38,0.796c-0.008,0.424,0.304,0.863,0.944,1.319
			c0.387,0.276,0.738,0.47,1.055,0.579c0.605,0.208,1.1,0.144,1.479-0.195c0.221-0.198,0.274-0.432,0.163-0.701
			c-0.114-0.266-0.376-0.611-0.783-1.034l-0.684-0.717c-0.66-0.695-1.047-1.22-1.168-1.583c-0.206-0.605,0.005-1.187,0.633-1.75
			c0.573-0.513,1.299-0.779,2.184-0.798c0.894-0.018,1.847,0.289,2.869,0.93c0.868,0.545,1.433,1.185,1.686,1.917
			c0.257,0.741,0.042,1.446-0.648,2.111l-1.66-1.094c0.372-0.379,0.438-0.777,0.198-1.191c-0.159-0.274-0.438-0.539-0.834-0.795
			c-0.438-0.282-0.856-0.442-1.256-0.482c-0.397-0.04-0.721,0.053-0.974,0.279c-0.231,0.208-0.28,0.445-0.146,0.713
			c0.086,0.175,0.339,0.485,0.765,0.931l1.12,1.179c0.5,0.526,0.808,0.988,0.918,1.385c0.174,0.619-0.043,1.202-0.648,1.744
			c-0.62,0.556-1.422,0.812-2.397,0.77c-0.965-0.042-1.944-0.43-2.931-1.152c-0.988-0.722-1.56-1.454-1.727-2.198
			c-0.166-0.736,0.085-1.399,0.75-1.994L45.133,21.819z"/>
	</g>
</g>
</svg>
