<?xml version="1.0" encoding="utf-8"?>
<!-- Generator: Adobe Illustrator 15.0.0, SVG Export Plug-In . SVG Version: 6.00 Build 0)  -->
<!DOCTYPE svg PUBLIC "-//W3C//DTD SVG 1.1//EN" "http://www.w3.org/Graphics/SVG/1.1/DTD/svg11.dtd">
<svg version="1.1" id="Layer_1" xmlns="http://www.w3.org/2000/svg" xmlns:xlink="http://www.w3.org/1999/xlink" x="0px" y="0px"
	 width="64px" height="64px" viewBox="0 0 64 64" enable-background="new 0 0 64 64" xml:space="preserve">
<g>
	<path fill="#D0D0D0" d="M12.521,17.4c2.029-0.404,4.059-0.808,6.088-1.212c3.947-0.786,7.894-1.571,11.839-2.356
		c4.115-0.819,8.227-1.637,12.342-2.456c3.464-0.691,6.931-1.381,10.397-2.071c2.002-0.399,4.006-0.798,6.011-1.197
		c0.21-0.042,0.421-0.084,0.631-0.126c0.342-0.067,0.533-0.469,0.446-0.787C60.178,6.84,59.83,6.68,59.488,6.749
		c-1.171,0.232-2.339,0.464-3.508,0.698c-2.967,0.591-5.932,1.181-8.896,1.771c-3.945,0.785-7.894,1.571-11.838,2.357
		c-4.113,0.819-8.229,1.638-12.34,2.458c-3.467,0.689-6.934,1.379-10.398,2.069c-2.004,0.399-4.008,0.797-6.013,1.197
		c-0.173,0.033-0.344,0.068-0.517,0.102H12.521z"/>
	<path fill="#D3976E" d="M63.999,53.268c0,2.121-1.879,4-4,4H4c-2.121,0-4-1.879-4-4v-32c0-2.121,1.879-4,4-4h55.999
		c2.121,0,4,1.879,4,4V53.268z"/>
	<g>
		<circle fill="#594640" cx="16.896" cy="36.602" r="1.599"/>
		<circle fill="#594640" cx="20.516" cy="32.981" r="1.601"/>
		<circle fill="#594640" cx="24.137" cy="29.36" r="1.6"/>
		<circle fill="#594640" cx="13.276" cy="40.223" r="1.6"/>
		<circle fill="#594640" cx="13.276" cy="32.981" r="1.601"/>
		<circle fill="#594640" cx="13.276" cy="25.74" r="1.6"/>
		<circle fill="#594640" cx="16.896" cy="29.36" r="1.6"/>
		<circle fill="#594640" cx="9.656" cy="36.602" r="1.6"/>
		<circle fill="#594640" cx="20.516" cy="40.223" r="1.6"/>
		<circle fill="#594640" cx="24.137" cy="43.843" r="1.6"/>
		<circle fill="#594640" cx="24.137" cy="36.602" r="1.6"/>
		<circle fill="#594640" cx="20.516" cy="25.74" r="1.6"/>
		<circle fill="#594640" cx="27.758" cy="40.223" r="1.599"/>
		<circle fill="#594640" cx="16.896" cy="43.843" r="1.6"/>
		<circle fill="#594640" cx="9.656" cy="43.843" r="1.6"/>
		<circle fill="#594640" cx="6.035" cy="40.223" r="1.599"/>
		<circle fill="#594640" cx="13.276" cy="47.463" r="1.6"/>
		<circle fill="#594640" cx="9.656" cy="29.36" r="1.6"/>
		<circle fill="#594640" cx="27.758" cy="32.981" r="1.6"/>
		<circle fill="#594640" cx="6.035" cy="32.981" r="1.6"/>
		<circle fill="#594640" cx="20.516" cy="47.463" r="1.6"/>
	</g>
	<path fill="#FFFFFF" d="M59.657,25.74c0,1.768-1.431,3.2-3.2,3.2H37.258c-1.768,0-3.199-1.433-3.199-3.2l0,0
		c0-1.768,1.432-3.199,3.199-3.199h19.199C58.227,22.541,59.657,23.973,59.657,25.74L59.657,25.74z"/>
	<circle fill="#594640" cx="39.849" cy="39.043" r="4.8"/>
	<polygon fill="#ED4C5C" points="41.876,28.94 41.438,24.561 41.001,28.94 	"/>
	<circle fill="#594640" cx="53.866" cy="38.902" r="4.8"/>
	<path fill="#594640" d="M59.657,50.791c0,0.91-0.737,1.65-1.649,1.65h-4.807c-0.91,0-1.65-0.74-1.65-1.65l0,0
		c0-0.912,0.74-1.65,1.65-1.65h4.807C58.92,49.141,59.657,49.879,59.657,50.791L59.657,50.791z"/>
	<polygon fill="#D3976E" points="35.049,42.574 35.049,43.844 36.722,43.844 40.709,39.855 39.238,38.385 	"/>
	<polygon fill="#D3976E" points="49.065,42.574 49.065,43.844 50.738,43.844 54.724,39.855 53.255,38.385 	"/>
</g>
</svg>
