<?xml version="1.0" encoding="utf-8"?>
<!-- Generator: Adobe Illustrator 15.0.0, SVG Export Plug-In . SVG Version: 6.00 Build 0)  -->
<!DOCTYPE svg PUBLIC "-//W3C//DTD SVG 1.1//EN" "http://www.w3.org/Graphics/SVG/1.1/DTD/svg11.dtd">
<svg version="1.1" id="Layer_1" xmlns="http://www.w3.org/2000/svg" xmlns:xlink="http://www.w3.org/1999/xlink" x="0px" y="0px"
	 width="64px" height="64px" viewBox="0 0 64 64" enable-background="new 0 0 64 64" xml:space="preserve">
<g>
	<g>
		<g>
			<path fill="#5C6D6D" d="M50,4.129C50,2.064,47.867,0,45.732,0H18.267C16.134,0,14,2.064,14.001,4.129L14,59.871
				C14,61.936,16.134,64,18.267,64h27.466C47.867,64,50,61.936,50,59.871V4.129z"/>
		</g>
		<path id="Body_2_" fill="#212528" d="M49,59c0,2-2,4-4,4H19c-2,0-4-2-4-4l0.001-54C15,3,17,1,19,1h26c2,0,4,2,4,4V59z"/>
		<circle id="Cam_2_" fill="#94989B" cx="43.5" cy="4.499" r="1"/>
		<path id="Speaker" fill="#94989B" d="M35,4.533c0,0.277-0.133,0.501-0.299,0.501h-5.402C29.135,5.034,29,4.811,29,4.533l0,0
			c0-0.275,0.135-0.499,0.299-0.499h5.402C34.867,4.034,35,4.258,35,4.533L35,4.533z"/>
		<rect id="Screen_4_" x="17" y="8" fill="#3E4347" width="30" height="48"/>
	</g>
	<path fill="#94989B" d="M35.75,60.25c0,0.414-0.336,0.75-0.75,0.75h-6c-0.414,0-0.75-0.336-0.75-0.75v-1.5
		c0-0.414,0.336-0.75,0.75-0.75h6c0.414,0,0.75,0.336,0.75,0.75V60.25z"/>
	<g>
		<path fill="#42ADE2" d="M24,14.667c0,0.46-0.373,0.833-0.834,0.833h-3.333c-0.46,0-0.833-0.373-0.833-0.833v-3.333
			c0-0.461,0.373-0.834,0.833-0.834h3.333c0.461,0,0.834,0.373,0.834,0.834V14.667z"/>
		<path fill="#C7E755" d="M31,14.667c0,0.46-0.373,0.833-0.834,0.833h-3.333c-0.46,0-0.833-0.373-0.833-0.833v-3.333
			c0-0.461,0.373-0.834,0.833-0.834h3.333c0.461,0,0.834,0.373,0.834,0.834V14.667z"/>
		<path fill="#F2B200" d="M38,14.667c0,0.46-0.373,0.833-0.834,0.833h-3.333c-0.46,0-0.833-0.373-0.833-0.833v-3.333
			c0-0.461,0.373-0.834,0.833-0.834h3.333c0.461,0,0.834,0.373,0.834,0.834V14.667z"/>
		<path fill="#42ADE2" d="M45,14.667c0,0.46-0.373,0.833-0.834,0.833h-3.333c-0.46,0-0.833-0.373-0.833-0.833v-3.333
			c0-0.461,0.373-0.834,0.833-0.834h3.333c0.461,0,0.834,0.373,0.834,0.834V14.667z"/>
	</g>
	<g>
		<path fill="#C7E755" d="M24,53.167C24,53.627,23.627,54,23.166,54h-3.333C19.373,54,19,53.627,19,53.167v-3.333
			C19,49.373,19.373,49,19.833,49h3.333C23.627,49,24,49.373,24,49.834V53.167z"/>
		<path fill="#FF435E" d="M31,53.167C31,53.627,30.627,54,30.166,54h-3.333C26.373,54,26,53.627,26,53.167v-3.333
			C26,49.373,26.373,49,26.833,49h3.333C30.627,49,31,49.373,31,49.834V53.167z"/>
		<path fill="#42ADE2" d="M38,53.167C38,53.627,37.627,54,37.166,54h-3.333C33.373,54,33,53.627,33,53.167v-3.333
			C33,49.373,33.373,49,33.833,49h3.333C37.627,49,38,49.373,38,49.834V53.167z"/>
		<path fill="#C28FEF" d="M45,53.167C45,53.627,44.627,54,44.166,54h-3.333C40.373,54,40,53.627,40,53.167v-3.333
			C40,49.373,40.373,49,40.833,49h3.333C44.627,49,45,49.373,45,49.834V53.167z"/>
	</g>
	<g>
		<path fill="#C7E755" d="M24,33.917c0,0.46-0.373,0.833-0.834,0.833h-3.333c-0.46,0-0.833-0.373-0.833-0.833v-3.333
			c0-0.461,0.373-0.834,0.833-0.834h3.333c0.461,0,0.834,0.373,0.834,0.834V33.917z"/>
		<path fill="#C28FEF" d="M31,33.917c0,0.46-0.373,0.833-0.834,0.833h-3.333c-0.46,0-0.833-0.373-0.833-0.833v-3.333
			c0-0.461,0.373-0.834,0.833-0.834h3.333c0.461,0,0.834,0.373,0.834,0.834V33.917z"/>
		<path fill="#42ADE2" d="M38,33.917c0,0.46-0.373,0.833-0.834,0.833h-3.333c-0.46,0-0.833-0.373-0.833-0.833v-3.333
			c0-0.461,0.373-0.834,0.833-0.834h3.333c0.461,0,0.834,0.373,0.834,0.834V33.917z"/>
	</g>
	<g>
		<path fill="#FF435E" d="M24,27.5c0,0.461-0.373,0.834-0.834,0.834h-3.333c-0.46,0-0.833-0.373-0.833-0.834v-3.333
			c0-0.46,0.373-0.833,0.833-0.833h3.333c0.461,0,0.834,0.373,0.834,0.833V27.5z"/>
		<path fill="#F2B200" d="M31,27.5c0,0.461-0.373,0.834-0.834,0.834h-3.333c-0.46,0-0.833-0.373-0.833-0.834v-3.333
			c0-0.46,0.373-0.833,0.833-0.833h3.333c0.461,0,0.834,0.373,0.834,0.833V27.5z"/>
		<path fill="#C7E755" d="M38,27.5c0,0.461-0.373,0.834-0.834,0.834h-3.333c-0.46,0-0.833-0.373-0.833-0.834v-3.333
			c0-0.46,0.373-0.833,0.833-0.833h3.333c0.461,0,0.834,0.373,0.834,0.833V27.5z"/>
		<path fill="#F2B200" d="M45,27.5c0,0.461-0.373,0.834-0.834,0.834h-3.333c-0.46,0-0.833-0.373-0.833-0.834v-3.333
			c0-0.46,0.373-0.833,0.833-0.833h3.333c0.461,0,0.834,0.373,0.834,0.833V27.5z"/>
	</g>
	<g>
		<path fill="#C28FEF" d="M24,21.083c0,0.461-0.373,0.834-0.834,0.834h-3.333c-0.46,0-0.833-0.373-0.833-0.834V17.75
			c0-0.46,0.373-0.833,0.833-0.833h3.333c0.461,0,0.834,0.373,0.834,0.833V21.083z"/>
		<path fill="#42ADE2" d="M31,21.083c0,0.461-0.373,0.834-0.834,0.834h-3.333c-0.46,0-0.833-0.373-0.833-0.834V17.75
			c0-0.46,0.373-0.833,0.833-0.833h3.333c0.461,0,0.834,0.373,0.834,0.833V21.083z"/>
		<path fill="#FF435E" d="M38,21.083c0,0.461-0.373,0.834-0.834,0.834h-3.333c-0.46,0-0.833-0.373-0.833-0.834V17.75
			c0-0.46,0.373-0.833,0.833-0.833h3.333c0.461,0,0.834,0.373,0.834,0.833V21.083z"/>
		<path fill="#C28FEF" d="M45,21.083c0,0.461-0.373,0.834-0.834,0.834h-3.333c-0.46,0-0.833-0.373-0.833-0.834V17.75
			c0-0.46,0.373-0.833,0.833-0.833h3.333c0.461,0,0.834,0.373,0.834,0.833V21.083z"/>
	</g>
</g>
</svg>
