<?xml version="1.0" encoding="utf-8"?>
<!-- Generator: Adobe Illustrator 15.0.0, SVG Export Plug-In . SVG Version: 6.00 Build 0)  -->
<!DOCTYPE svg PUBLIC "-//W3C//DTD SVG 1.1//EN" "http://www.w3.org/Graphics/SVG/1.1/DTD/svg11.dtd">
<svg version="1.1" id="Layer_1" xmlns="http://www.w3.org/2000/svg" xmlns:xlink="http://www.w3.org/1999/xlink" x="0px" y="0px"
	 width="64px" height="64px" viewBox="0 0 64 64" enable-background="new 0 0 64 64" xml:space="preserve">
<g>
	<path fill="#3E4347" d="M2,13.999v9c0,0.55,0.45,1,1,1h58c0.55,0,1-0.45,1-1v-9H2z"/>
	<path fill="#62727A" d="M60,23.999v-6H4v6H2v24.01c0,1.094,0.9,1.99,2,1.99h56c1.1,0,2-0.896,2-1.99v-24.01H60z"/>
	<g>
		<path fill="#B2C1C0" d="M53,23.999H11c-2.21,0-4,4.029-4,9c0,4.971,1.79,9,4,9h42c2.21,0,4-4.029,4-9
			C57,28.028,55.21,23.999,53,23.999z"/>
		<path fill="#E8E8E8" d="M52.959,25.999H11c-0.521,0.177-2,2.605-2,7c0,4.395,1.479,6.819,2.041,7h41.932
			c0.572-0.217,2.027-2.643,2.027-7C55,28.604,53.521,26.18,52.959,25.999z"/>
	</g>
	<circle fill="#3E4347" cx="42" cy="32.999" r="7"/>
	<path fill="#3E4347" d="M30.485,39.999c1.571-1.902,2.515-4.341,2.515-7c0-2.659-0.943-5.098-2.515-7H13.514
		c-1.571,1.902-2.515,4.341-2.515,7c0,2.66,0.943,5.098,2.515,7H30.485z"/>
	<g>
		<circle fill="#FFFFFF" cx="42" cy="32.999" r="5"/>
		<path fill="#B2C1C0" d="M44.656,36.601l-0.499-0.865c0.682-0.544,1.161-1.331,1.292-2.236h1
			C46.307,34.772,45.629,35.873,44.656,36.601z"/>
		<path fill="#B2C1C0" d="M44.656,29.397c0.973,0.728,1.65,1.828,1.793,3.102h-1c-0.131-0.906-0.61-1.692-1.292-2.236L44.656,29.397
			z"/>
	</g>
	<circle fill="#FFFFFF" cx="22" cy="32.999" r="5"/>
	<path fill="#B2C1C0" d="M19.343,36.601l0.499-0.865c-0.682-0.544-1.161-1.331-1.292-2.236h-1
		C17.693,34.772,18.371,35.873,19.343,36.601z"/>
	<path fill="#B2C1C0" d="M19.343,29.397c-0.973,0.728-1.65,1.828-1.793,3.102h1c0.131-0.906,0.61-1.692,1.292-2.236L19.343,29.397z"
		/>
	<rect x="22" y="23.999" fill="#B2C1C0" width="20" height="18"/>
	<path fill="#42ADE2" d="M38,25.999H26c-1.1,0-2,0.9-2,2v2h16v-2C40,26.899,39.1,25.999,38,25.999z"/>
	<path fill="#FFFFFF" d="M24,29.999v8c0,1.1,0.9,2,2,2h12c1.1,0,2-0.9,2-2v-8H24z"/>
	<rect x="26" y="31.999" fill="#B2C1C0" width="12" height="2"/>
	<rect x="26" y="35.999" fill="#B2C1C0" width="12" height="2"/>
	<path fill="#62727A" d="M22,30.999c-1.104,0-2,0.896-2,2c0,1.105,0.896,2,2,2V30.999z"/>
	<path fill="#62727A" d="M42,30.999c1.104,0,2,0.896,2,2c0,1.105-0.896,2-2,2V30.999z"/>
	<path fill="#B2C1C0" d="M22,28.499c-0.643,0-1.245,0.146-1.796,0.39l0.499,0.864c0.401-0.161,0.837-0.254,1.297-0.254V28.499z"/>
	<path fill="#B2C1C0" d="M22,36.499c-0.46,0-0.896-0.093-1.297-0.254l-0.499,0.863c0.551,0.244,1.153,0.391,1.796,0.391V36.499z"/>
	<path fill="#B2C1C0" d="M42,28.499v1c0.46,0,0.896,0.093,1.297,0.254l0.499-0.864C43.245,28.645,42.643,28.499,42,28.499z"/>
	<path fill="#B2C1C0" d="M43.297,36.245c-0.401,0.161-0.837,0.254-1.297,0.254v1c0.643,0,1.245-0.146,1.796-0.391L43.297,36.245z"/>
	<polygon fill="#3E4347" points="49.984,25.999 48.016,33.878 48.71,34.999 51.016,25.999 	"/>
</g>
</svg>
