<?xml version="1.0" encoding="utf-8"?>
<!-- Generator: Adobe Illustrator 15.0.0, SVG Export Plug-In . SVG Version: 6.00 Build 0)  -->
<!DOCTYPE svg PUBLIC "-//W3C//DTD SVG 1.1//EN" "http://www.w3.org/Graphics/SVG/1.1/DTD/svg11.dtd">
<svg version="1.1" id="Layer_1" xmlns="http://www.w3.org/2000/svg" xmlns:xlink="http://www.w3.org/1999/xlink" x="0px" y="0px"
	 width="64px" height="64px" viewBox="0 0 64 64" enable-background="new 0 0 64 64" xml:space="preserve">
<g>
	<g>
		<g>
			<path fill="#B2C1C0" d="M23.821,41.555c-0.471-0.945-0.069-2.09,0.897-2.549c0.964-0.463,2.128-0.068,2.599,0.879
				c0.469,0.947,0.067,2.09-0.896,2.549C25.454,42.896,24.29,42.504,23.821,41.555z"/>
			<path fill="#C94747" d="M22.073,42.391c-0.234-0.473-0.035-1.045,0.448-1.275c0.482-0.23,1.063-0.033,1.3,0.439
				c0.234,0.475,0.034,1.045-0.448,1.275C22.889,43.063,22.308,42.865,22.073,42.391z"/>
			<path opacity="0.5" fill="#3E4347" d="M24.521,41.879c0.507,0.172,0.214-0.607,0.475-1.354c0.264-0.748,0.984-1.18,0.477-1.354
				c-0.506-0.17-1.132,0.293-1.394,1.043C23.814,40.963,24.013,41.707,24.521,41.879z"/>
		</g>
		<g>
			<path fill="#B2C1C0" d="M29.065,39.051c-0.471-0.949-0.068-2.092,0.896-2.553c0.966-0.461,2.13-0.068,2.603,0.881
				c0.469,0.947,0.065,2.09-0.9,2.551C30.699,40.391,29.534,39.996,29.065,39.051z"/>
			<path fill="#C94747" d="M27.317,39.885c-0.235-0.475-0.035-1.043,0.449-1.275c0.481-0.23,1.063-0.037,1.299,0.441
				c0.234,0.473,0.034,1.045-0.449,1.275S27.552,40.357,27.317,39.885z"/>
			<path opacity="0.5" fill="#3E4347" d="M29.765,39.373c0.509,0.172,0.212-0.605,0.476-1.354c0.263-0.746,0.983-1.18,0.476-1.354
				c-0.508-0.172-1.13,0.293-1.396,1.041C29.059,38.457,29.255,39.201,29.765,39.373z"/>
		</g>
		<g>
			<path fill="#B2C1C0" d="M34.31,36.543c-0.471-0.945-0.069-2.09,0.897-2.549c0.964-0.463,2.128-0.07,2.599,0.879
				c0.469,0.947,0.067,2.09-0.896,2.549C35.942,37.885,34.778,37.49,34.31,36.543z"/>
			<path fill="#C94747" d="M32.563,37.379c-0.236-0.475-0.038-1.045,0.446-1.277c0.481-0.229,1.063-0.033,1.3,0.441
				c0.234,0.475,0.033,1.045-0.447,1.275C33.377,38.051,32.798,37.854,32.563,37.379z"/>
			<path opacity="0.5" fill="#3E4347" d="M35.009,36.867c0.508,0.172,0.214-0.607,0.475-1.354c0.265-0.748,0.983-1.178,0.479-1.354
				c-0.51-0.17-1.134,0.293-1.396,1.043C34.302,35.951,34.501,36.695,35.009,36.867z"/>
		</g>
		<g>
			<path fill="#B2C1C0" d="M39.604,34.158c-0.336-1.002,0.22-2.08,1.24-2.408c1.018-0.33,2.118,0.213,2.454,1.215
				c0.335,1-0.221,2.08-1.24,2.41C41.035,35.703,39.938,35.158,39.604,34.158z"/>
			<path fill="#C94747" d="M37.755,34.752c-0.168-0.5,0.111-1.037,0.621-1.205c0.511-0.164,1.061,0.109,1.228,0.611
				c0.167,0.5-0.11,1.039-0.62,1.203C38.473,35.525,37.923,35.256,37.755,34.752z"/>
			<path opacity="0.5" fill="#3E4347" d="M40.253,34.57c0.478,0.236,0.293-0.57,0.656-1.279c0.364-0.705,1.135-1.039,0.657-1.275
				c-0.479-0.238-1.161,0.141-1.524,0.846C39.678,33.568,39.772,34.334,40.253,34.57z"/>
		</g>
		<g>
			<path fill="#B2C1C0" d="M50.564,30.258c-0.399-0.979,0.088-2.09,1.084-2.479c0.998-0.391,2.13,0.086,2.526,1.064
				c0.397,0.98-0.087,2.09-1.085,2.48C52.092,31.713,50.963,31.236,50.564,30.258z"/>
			<path fill="#C94747" d="M48.759,30.965c-0.199-0.49,0.044-1.045,0.542-1.242c0.501-0.193,1.063,0.043,1.264,0.535
				c0.197,0.49-0.045,1.047-0.544,1.24C49.521,31.695,48.956,31.455,48.759,30.965z"/>
			<path opacity="0.5" fill="#3E4347" d="M51.236,30.631c0.495,0.209,0.261-0.588,0.576-1.316c0.318-0.725,1.07-1.105,0.576-1.314
				c-0.492-0.205-1.152,0.213-1.469,0.939C50.601,29.666,50.742,30.424,51.236,30.631z"/>
		</g>
		<g>
			<path fill="#B2C1C0" d="M55.594,27.469c-0.655-0.834-0.497-2.033,0.353-2.676s2.071-0.49,2.726,0.346
				c0.658,0.834,0.499,2.035-0.353,2.678C57.471,28.457,56.25,28.303,55.594,27.469z"/>
			<path fill="#C94747" d="M54.053,28.633c-0.327-0.416-0.248-1.016,0.178-1.338c0.426-0.32,1.035-0.244,1.363,0.174
				c0.327,0.418,0.248,1.018-0.176,1.338C54.99,29.129,54.381,29.053,54.053,28.633z"/>
			<path opacity="0.5" fill="#3E4347" d="M56.346,27.646c0.533,0.066,0.084-0.635,0.187-1.418c0.103-0.785,0.721-1.352,0.188-1.42
				c-0.533-0.068-1.049,0.512-1.152,1.295C55.464,26.891,55.813,27.578,56.346,27.646z"/>
		</g>
		<g>
			<path fill="#B2C1C0" d="M59.646,23.652c-1.066-0.143-1.811-1.102-1.666-2.146c0.143-1.045,1.121-1.775,2.187-1.635
				c1.062,0.141,1.81,1.1,1.665,2.146C61.688,23.061,60.708,23.793,59.646,23.652z"/>
			<path fill="#C94747" d="M59.385,25.543c-0.532-0.07-0.904-0.551-0.834-1.072c0.072-0.523,0.562-0.887,1.096-0.818
				c0.531,0.07,0.903,0.549,0.832,1.072C60.406,25.25,59.917,25.613,59.385,25.543z"/>
			<path opacity="0.5" fill="#3E4347" d="M60.307,23.26c0.428-0.32-0.396-0.51-0.884-1.141c-0.486-0.627-0.456-1.455-0.883-1.139
				c-0.429,0.322-0.379,1.09,0.108,1.719C59.14,23.328,59.879,23.582,60.307,23.26z"/>
		</g>
		<g>
			<path fill="#B2C1C0" d="M60.535,17.959c-0.926,0.531-2.115,0.225-2.658-0.684c-0.543-0.912-0.231-2.078,0.694-2.611
				s2.118-0.227,2.661,0.684C61.773,16.256,61.465,17.424,60.535,17.959z"/>
			<path fill="#C94747" d="M61.519,19.605c-0.462,0.266-1.058,0.111-1.329-0.342c-0.272-0.455-0.117-1.039,0.346-1.305
				c0.465-0.268,1.059-0.115,1.331,0.34S61.981,19.338,61.519,19.605z"/>
			<path opacity="0.5" fill="#3E4347" d="M60.81,17.248c0.137-0.51-0.629-0.162-1.409-0.361c-0.781-0.199-1.273-0.873-1.412-0.361
				c-0.134,0.508,0.387,1.084,1.166,1.283C59.936,18.01,60.676,17.758,60.81,17.248z"/>
		</g>
		<g>
			<path fill="#B2C1C0" d="M53.938,8.791c-0.511,0.926-1.692,1.27-2.635,0.768c-0.945-0.504-1.294-1.662-0.783-2.588
				c0.514-0.926,1.693-1.27,2.637-0.768C54.101,6.707,54.449,7.865,53.938,8.791z"/>
			<path fill="#C94747" d="M55.646,9.701c-0.257,0.463-0.846,0.635-1.318,0.383c-0.472-0.25-0.646-0.828-0.391-1.293
				c0.257-0.461,0.846-0.635,1.318-0.381C55.729,8.658,55.902,9.238,55.646,9.701z"/>
			<path opacity="0.5" fill="#3E4347" d="M53.799,8.043c-0.152-0.504-0.625,0.184-1.397,0.408c-0.772,0.223-1.55-0.1-1.399,0.406
				c0.154,0.506,0.903,0.734,1.676,0.51C53.451,9.141,53.953,8.551,53.799,8.043z"/>
		</g>
		<g>
			<path fill="#B2C1C0" d="M48.936,5.701c0.046,1.053-0.786,1.943-1.859,1.988c-1.072,0.045-1.979-0.773-2.026-1.824
				c-0.046-1.055,0.787-1.945,1.858-1.988C47.982,3.83,48.888,4.648,48.936,5.701z"/>
			<path fill="#C94747" d="M50.877,5.619c0.021,0.527-0.393,0.971-0.931,0.994c-0.535,0.021-0.988-0.385-1.011-0.912
				c-0.022-0.529,0.392-0.971,0.931-0.994C50.401,4.686,50.854,5.092,50.877,5.619z"/>
			<path opacity="0.5" fill="#3E4347" d="M48.424,5.131c-0.396-0.357-0.44,0.473-0.985,1.055s-1.381,0.697-0.984,1.055
				c0.395,0.357,1.154,0.174,1.701-0.408C48.701,6.246,48.821,5.488,48.424,5.131z"/>
		</g>
		<g>
			<path fill="#B2C1C0" d="M43.907,8.367c0.591,0.881,0.344,2.064-0.553,2.645c-0.896,0.578-2.102,0.338-2.693-0.539
				c-0.591-0.883-0.344-2.064,0.552-2.646C42.11,7.246,43.315,7.49,43.907,8.367z"/>
			<path fill="#C94747" d="M45.53,7.316c0.295,0.441,0.17,1.033-0.277,1.324c-0.448,0.289-1.051,0.168-1.346-0.273
				c-0.297-0.438-0.173-1.031,0.275-1.32C44.63,6.756,45.233,6.879,45.53,7.316z"/>
			<path opacity="0.5" fill="#3E4347" d="M43.171,8.137c-0.525-0.105-0.133,0.627-0.293,1.402c-0.162,0.773-0.82,1.297-0.293,1.402
				s1.084-0.438,1.246-1.211C43.993,8.955,43.698,8.242,43.171,8.137z"/>
		</g>
		<g>
			<path fill="#B2C1C0" d="M39.104,11.586c0.893,0.588,1.13,1.775,0.53,2.65c-0.601,0.873-1.808,1.105-2.699,0.518
				c-0.89-0.588-1.127-1.773-0.528-2.648C37.007,11.232,38.214,11,39.104,11.586z"/>
			<path fill="#C94747" d="M40.192,10.004c0.443,0.295,0.563,0.887,0.263,1.324s-0.903,0.555-1.351,0.258
				c-0.443-0.293-0.563-0.885-0.263-1.322C39.144,9.824,39.745,9.709,40.192,10.004z"/>
			<path opacity="0.5" fill="#3E4347" d="M38.335,11.652c-0.527,0.1,0.126,0.629,0.281,1.406c0.156,0.773-0.246,1.502,0.279,1.402
				c0.528-0.102,0.828-0.813,0.675-1.588C39.415,12.098,38.864,11.551,38.335,11.652z"/>
		</g>
		<g>
			<path fill="#B2C1C0" d="M32.626,21.109c0.913,0.549,1.201,1.727,0.639,2.621c-0.563,0.898-1.76,1.18-2.676,0.627
				c-0.915-0.553-1.199-1.729-0.637-2.625C30.515,20.834,31.712,20.555,32.626,21.109z"/>
			<path fill="#C94747" d="M33.644,19.482c0.459,0.275,0.601,0.863,0.319,1.311c-0.28,0.449-0.881,0.588-1.337,0.316
				c-0.457-0.279-0.602-0.865-0.319-1.314C32.589,19.344,33.187,19.205,33.644,19.482z"/>
			<path opacity="0.5" fill="#3E4347" d="M31.858,21.201c-0.521,0.123,0.15,0.625,0.338,1.395c0.189,0.77-0.185,1.514,0.34,1.393
				c0.521-0.125,0.794-0.846,0.604-1.613C32.956,21.604,32.384,21.08,31.858,21.201z"/>
		</g>
		<g>
			<path fill="#B2C1C0" d="M29.571,25.982c0.914,0.553,1.199,1.729,0.637,2.627c-0.563,0.896-1.76,1.176-2.673,0.625
				c-0.915-0.553-1.202-1.727-0.64-2.625C27.459,25.711,28.657,25.432,29.571,25.982z"/>
			<path fill="#C94747" d="M30.589,24.357c0.459,0.275,0.6,0.863,0.318,1.313c-0.281,0.451-0.879,0.59-1.336,0.313
				c-0.459-0.273-0.602-0.863-0.32-1.311C29.534,24.223,30.13,24.082,30.589,24.357z"/>
			<path opacity="0.5" fill="#3E4347" d="M28.804,26.08c-0.521,0.121,0.151,0.623,0.339,1.391c0.185,0.771-0.187,1.516,0.337,1.393
				s0.797-0.846,0.607-1.615C29.899,26.48,29.325,25.957,28.804,26.08z"/>
		</g>
		<g>
			<path fill="#B2C1C0" d="M26.515,30.859c0.916,0.553,1.201,1.729,0.638,2.625c-0.562,0.896-1.759,1.178-2.671,0.627
				c-0.919-0.553-1.203-1.727-0.64-2.625C24.401,30.586,25.603,30.309,26.515,30.859z"/>
			<path fill="#C94747" d="M27.535,29.234c0.456,0.277,0.6,0.863,0.317,1.311c-0.283,0.451-0.881,0.592-1.338,0.314
				s-0.6-0.865-0.318-1.313C26.479,29.1,27.076,28.957,27.535,29.234z"/>
			<path opacity="0.5" fill="#3E4347" d="M25.749,30.955c-0.523,0.123,0.15,0.623,0.337,1.395c0.188,0.768-0.185,1.512,0.339,1.389
				c0.522-0.121,0.793-0.842,0.607-1.611C26.845,31.357,26.271,30.834,25.749,30.955z"/>
		</g>
		<g>
			<path fill="#B2C1C0" d="M23.461,35.736c0.915,0.553,1.199,1.729,0.638,2.625c-0.563,0.896-1.762,1.178-2.676,0.625
				c-0.914-0.551-1.199-1.729-0.637-2.623C21.348,35.463,22.546,35.184,23.461,35.736z"/>
			<path fill="#C94747" d="M24.481,34.111c0.453,0.275,0.598,0.863,0.315,1.313c-0.281,0.449-0.879,0.59-1.336,0.313
				c-0.458-0.275-0.601-0.863-0.319-1.313C23.425,33.973,24.021,33.836,24.481,34.111z"/>
			<path opacity="0.5" fill="#3E4347" d="M22.692,35.832c-0.523,0.123,0.151,0.621,0.34,1.393c0.188,0.77-0.185,1.512,0.338,1.391
				c0.523-0.121,0.793-0.844,0.606-1.613S23.216,35.709,22.692,35.832z"/>
		</g>
		<g>
			<path fill="#C94747" d="M21.423,38.986c0.457,0.277,0.601,0.863,0.32,1.313c-0.283,0.449-0.879,0.59-1.34,0.314
				c-0.456-0.277-0.598-0.863-0.316-1.313C20.367,38.85,20.967,38.711,21.423,38.986z"/>
		</g>
		<g>
			<path fill="#C94747" d="M16.99,45.1c0.458,0.275,0.6,0.863,0.319,1.311c-0.281,0.451-0.881,0.592-1.336,0.314
				c-0.458-0.277-0.601-0.863-0.32-1.314C15.934,44.963,16.531,44.824,16.99,45.1z"/>
		</g>
		<path fill="#ED4C5C" d="M37.226,18.963c-1.141,1.119-2.985,1.119-4.124,0c-1.14-1.119-1.142-2.93,0-4.049
			c1.138-1.117,2.984-1.117,4.124,0C38.364,16.031,38.364,17.844,37.226,18.963z"/>
		<path opacity="0.5" fill="#3E4347" d="M37.351,17.83c0-0.793-0.979,0-2.188,0s-2.186-0.793-2.186,0.002
			c0,0.787,0.977,1.428,2.186,1.428C36.374,19.262,37.35,18.621,37.351,17.83z"/>
		<path fill="#ED4C5C" d="M47.909,33.496c-1.141,1.119-2.984,1.117-4.125,0c-1.138-1.117-1.139-2.93,0-4.047
			c1.139-1.119,2.984-1.119,4.125,0C49.048,30.566,49.047,32.381,47.909,33.496z"/>
		<path opacity="0.5" fill="#3E4347" d="M48.036,32.363c0-0.789-0.98,0-2.189,0c-1.208,0-2.185-0.789-2.187,0
			c0,0.793,0.979,1.432,2.187,1.432C47.057,33.795,48.034,33.156,48.036,32.363z"/>
		<path fill="#ED4C5C" d="M59.371,14.289c-1.14,1.121-2.985,1.119-4.124,0c-1.14-1.117-1.141-2.928,0-4.047
			c1.138-1.117,2.985-1.119,4.124,0C60.51,11.359,60.51,13.174,59.371,14.289z"/>
		<path opacity="0.5" fill="#3E4347" d="M59.497,13.156c0-0.789-0.979,0-2.188,0s-2.184-0.789-2.186,0.004
			c0,0.789,0.977,1.428,2.186,1.428C58.52,14.59,59.496,13.949,59.497,13.156z"/>
		<g>
			<path fill="#ED4C5C" d="M21.354,45.297c-1.14,1.119-2.986,1.119-4.124,0c-1.14-1.119-1.141-2.93,0-4.047
				c1.137-1.119,2.986-1.119,4.124,0C22.492,42.365,22.492,44.18,21.354,45.297z"/>
			<path opacity="0.5" fill="#3E4347" d="M21.479,44.164c0-0.791-0.979,0-2.189,0c-1.208,0-2.184-0.791-2.185,0
				c0,0.791,0.978,1.43,2.185,1.43C20.501,45.596,21.479,44.955,21.479,44.164z"/>
		</g>
		<path fill="#C94747" d="M17.318,47.221c-0.541-0.531-1.616-0.236-1.772-0.391c-0.169-0.166,0.223-1.131-0.404-1.744
			c-0.614-0.605-1.687-0.455-2.284,0.373c-0.211,0.293-0.507,0.947-0.618,1.277c-0.285,0.867-0.555,3.051-0.131,3.467
			c0.423,0.416,2.649,0.152,3.532-0.129c0.336-0.107,1.003-0.4,1.301-0.605C17.785,48.881,17.932,47.824,17.318,47.221z"/>
		<path opacity="0.5" fill="#3E4347" d="M17.205,47.973c-0.118-0.379-0.545-0.32-1.666,0.436c-1.121,0.754-2.521,1.24-2.93,0.414
			c-0.407-0.83-0.674,0.961,0.304,1.227C13.789,50.285,17.625,49.316,17.205,47.973z"/>
		<g>
			<path fill="#C94747" d="M11.931,50.064c0.457,0.277,0.6,0.865,0.319,1.313c-0.281,0.449-0.879,0.59-1.338,0.313
				c-0.457-0.275-0.6-0.863-0.317-1.313C10.876,49.93,11.474,49.787,11.931,50.064z"/>
		</g>
	</g>
	<g>
		<path fill="#B2C1C0" d="M11.078,55.938l-1.719-1.686l1.719-1.688c0.189-0.186,0.189-0.488,0-0.676l-0.688-0.674
			c-0.188-0.186-0.496-0.186-0.687,0l-1.719,1.688l-1.717-1.688c-0.19-0.186-0.499-0.186-0.688,0l-0.687,0.674
			c-0.19,0.188-0.19,0.49,0,0.676l1.719,1.688l-4.469,4.385c-0.189,0.186-0.189,0.488,0,0.674l0.687,0.674
			c0.19,0.188,0.499,0.188,0.688,0L7.984,55.6l1.719,1.688c0.19,0.186,0.499,0.186,0.687,0l0.688-0.674
			C11.267,56.426,11.267,56.123,11.078,55.938z"/>
		<g opacity="0.5">
			<path fill="#3E4347" d="M10.389,56.613c0.19-0.188,0.19-0.49,0-0.676L9.016,54.59c-0.189-0.188-0.189-0.49,0-0.676l1.374-1.35
				c0.19-0.186,0.19-0.488,0-0.676l0,0c-0.188-0.186-0.496-0.186-0.687,0l-1.375,1.35c-0.188,0.186-0.499,0.186-0.688,0l-1.373-1.35
				c-0.19-0.186-0.499-0.186-0.688,0l0,0c-0.19,0.188-0.19,0.49,0,0.676l1.374,1.35c0.189,0.186,0.189,0.488,0,0.676l-4.125,4.047
				c-0.188,0.186-0.188,0.488,0,0.674l0,0c0.19,0.188,0.499,0.188,0.688,0l4.123-4.047c0.189-0.188,0.5-0.188,0.688,0l1.375,1.35
				C9.893,56.797,10.201,56.797,10.389,56.613L10.389,56.613z"/>
		</g>
	</g>
</g>
</svg>
