<?xml version="1.0" encoding="utf-8"?>
<!-- Generator: Adobe Illustrator 15.0.0, SVG Export Plug-In . SVG Version: 6.00 Build 0)  -->
<!DOCTYPE svg PUBLIC "-//W3C//DTD SVG 1.1//EN" "http://www.w3.org/Graphics/SVG/1.1/DTD/svg11.dtd">
<svg version="1.1" id="Layer_1" xmlns="http://www.w3.org/2000/svg" xmlns:xlink="http://www.w3.org/1999/xlink" x="0px" y="0px"
	 width="64px" height="64px" viewBox="0 0 64 64" enable-background="new 0 0 64 64" xml:space="preserve">
<g>
	<path fill="#3E4347" d="M17,61.999H5.75c0-2.589,2.519-4.688,5.625-4.688S17,59.41,17,61.999z"/>
	<path fill="#3E4347" d="M58.25,61.999H47c0-2.589,2.519-4.688,5.625-4.688S58.25,59.41,58.25,61.999z"/>
	<g>
		<g>
			
				<rect x="26.444" y="0.111" transform="matrix(0.7074 -0.7068 0.7068 0.7074 -0.1552 22.3478)" fill="#3E4347" width="0.937" height="22.5"/>
			<circle fill="#3E4347" cx="18.957" cy="3.406" r="1.406"/>
		</g>
		<g>
			
				<rect x="36.619" y="0.111" transform="matrix(-0.7071 -0.7071 0.7071 -0.7071 55.2789 45.6199)" fill="#3E4347" width="0.937" height="22.5"/>
			<circle fill="#3E4347" cx="45.043" cy="3.406" r="1.406"/>
		</g>
	</g>
	<ellipse fill="#3E4347" cx="32" cy="15.125" rx="7.969" ry="4.688"/>
	<path fill="#C28FEF" d="M59.104,57.144c-5.166,6.564-47.451,6.387-53.674,0c-4.573-4.693-4.572-32.47,0-37.162
		c6.221-6.386,48.508-6.564,53.674,0C62.964,24.886,62.967,52.236,59.104,57.144z"/>
	<path fill="#3E4347" d="M49.516,52.683c-3.876,4.99-35.589,4.856-40.255,0c-3.431-3.566-3.43-24.675,0-28.242
		c4.666-4.853,36.379-4.989,40.255,0C52.411,28.168,52.413,48.955,49.516,52.683z"/>
	<circle fill="#3E4347" cx="56.375" cy="29.188" r="2.813"/>
	<circle fill="#3E4347" cx="56.375" cy="37.624" r="2.813"/>
</g>
</svg>
