<?xml version="1.0" encoding="utf-8"?>
<!-- Generator: Adobe Illustrator 15.0.0, SVG Export Plug-In . SVG Version: 6.00 Build 0)  -->
<!DOCTYPE svg PUBLIC "-//W3C//DTD SVG 1.1//EN" "http://www.w3.org/Graphics/SVG/1.1/DTD/svg11.dtd">
<svg version="1.1" id="Layer_1" xmlns="http://www.w3.org/2000/svg" xmlns:xlink="http://www.w3.org/1999/xlink" x="0px" y="0px"
	 width="64px" height="64px" viewBox="0 0 64 64" enable-background="new 0 0 64 64" xml:space="preserve">
<g>
	<g>
		<path fill="#212528" d="M22.922,26.037c0,1.047-0.849,1.896-1.896,1.896h-8.412c-1.046,0-1.896-0.849-1.896-1.896v-2.364
			c0-1.046,0.85-1.895,1.896-1.895h8.412c1.047,0,1.896,0.849,1.896,1.895V26.037z"/>
		<path fill="#212528" d="M56.975,25.881c0,0.559-0.453,1.012-1.012,1.012h-4.494c-0.559,0-1.012-0.453-1.012-1.012v-1.263
			c0-0.559,0.453-1.012,1.012-1.012h4.494c0.559,0,1.012,0.453,1.012,1.012V25.881z"/>
		<path fill="#212528" d="M59.873,55.887c0,2.617-2.121,4.738-4.738,4.738H8.865c-2.616,0-4.738-2.121-4.738-4.738v-1.421h55.747
			V55.887z"/>
		<path fill="#51575B" d="M4.126,29.591c0-2.617,2.122-4.738,4.738-4.738h46.27c2.617,0,4.738,2.122,4.738,4.738v1.421H4.126V29.591
			z"/>
		<rect x="4.126" y="30.775" fill="#3E4347" width="55.747" height="24.636"/>
		<path fill="#51575B" d="M51.736,28.796H23.793l2.803-15.286c0.236-0.854,1.398-2.237,2.094-2.548c4.26-1.905,13.89-1.905,18.15,0
			c0.695,0.311,1.857,1.694,2.094,2.548L51.736,28.796z"/>
		<path fill="#3E4347" d="M50.379,37.838H25.151l2.53-12.745c0.214-0.711,1.263-1.864,1.892-2.124
			c3.845-1.588,12.541-1.588,16.384,0c0.629,0.26,1.678,1.413,1.893,2.124L50.379,37.838z"/>
		<path fill="#788287" d="M56.928,44.838C56.928,55.426,48.346,64,37.768,64c-10.584,0-19.166-8.574-19.166-19.162
			c0-10.582,8.581-19.164,19.166-19.164C48.346,25.674,56.928,34.256,56.928,44.838z"/>
		<path fill="#212528" d="M54.799,44.835c0,9.411-7.629,17.034-17.031,17.034c-9.408,0-17.037-7.623-17.037-17.034
			c0-9.406,7.629-17.034,17.037-17.034C47.17,27.801,54.799,35.429,54.799,44.835z"/>
		<circle fill="#3E4347" cx="37.767" cy="44.835" r="13.84"/>
		<circle fill="#212528" cx="37.767" cy="44.836" r="7.452"/>
		<path opacity="0.5" fill="#F5F5F5" d="M47.947,38.93c0,2.366-1.92,4.287-4.287,4.287c-2.369,0-4.287-1.921-4.287-4.287
			c0-2.364,1.918-4.287,4.287-4.287C46.027,34.643,47.947,36.565,47.947,38.93z"/>
		<circle opacity="0.5" fill="#F5F5F5" cx="35.104" cy="47.498" r="2.662"/>
		<circle opacity="0.5" fill="#F5F5F5" cx="30.315" cy="52.289" r="1.648"/>
		<path fill="#636C72" d="M17.192,51.543c0,1.047-0.848,1.895-1.895,1.895H7.243c-1.046,0-1.895-0.848-1.895-1.895V34.645
			c0-1.047,0.849-1.896,1.895-1.896h8.055c1.047,0,1.895,0.849,1.895,1.896V51.543z"/>
		<circle fill="#212528" cx="12.931" cy="28.248" r="2.764"/>
		<path fill="#FFFFFF" d="M46.039,17.423c0,0.962-0.779,1.742-1.742,1.742H31.233c-0.963,0-1.742-0.78-1.742-1.742v-1.792
			c0-0.962,0.779-1.742,1.742-1.742h13.064c0.963,0,1.742,0.78,1.742,1.742V17.423z"/>
	</g>
	<g>
		<polygon fill="#FFCE31" points="42.523,15.156 54.521,7.266 52.316,4.435 		"/>
		<polygon fill="#FFCE31" points="56.531,18.869 56.531,15.455 44.195,17.827 		"/>
		<polygon fill="#FFCE31" points="45.133,0 40.998,0 38.799,14.453 		"/>
		<polygon fill="#FFCE31" points="33.631,15.156 23.37,4.435 21.069,7.266 		"/>
		<polygon fill="#FFCE31" points="33.883,0 29.697,0 36.566,14.453 		"/>
		<polygon fill="#FFCE31" points="18.71,15.455 18.71,18.869 31.565,17.827 		"/>
	</g>
</g>
</svg>
