<?xml version="1.0" encoding="utf-8"?>
<!-- Generator: Adobe Illustrator 15.0.0, SVG Export Plug-In . SVG Version: 6.00 Build 0)  -->
<!DOCTYPE svg PUBLIC "-//W3C//DTD SVG 1.1//EN" "http://www.w3.org/Graphics/SVG/1.1/DTD/svg11.dtd">
<svg version="1.1" id="Layer_1" xmlns="http://www.w3.org/2000/svg" xmlns:xlink="http://www.w3.org/1999/xlink" x="0px" y="0px"
	 width="64px" height="64px" viewBox="0 0 64 64" enable-background="new 0 0 64 64" xml:space="preserve">
<g>
	<circle fill="#F2B200" cx="32" cy="32" r="30"/>
	<g>
		<path fill="#FFFFFF" d="M38.442,13H25.558c-2.373,0-4.297,1.89-4.297,4.222v29.555c0,2.332,1.924,4.223,4.297,4.223h12.885
			c2.374,0,4.297-1.891,4.297-4.223V17.222C42.739,14.89,40.816,13,38.442,13z M29.898,14.541h4.203
			c0.296,0,0.537,0.237,0.537,0.528c0,0.292-0.241,0.528-0.537,0.528h-4.203c-0.297,0-0.537-0.237-0.537-0.528
			C29.361,14.778,29.602,14.541,29.898,14.541z M32,48.874c-0.712,0-1.289-0.567-1.289-1.267c0-0.698,0.577-1.266,1.289-1.266
			c0.713,0,1.29,0.567,1.29,1.266C33.29,48.307,32.713,48.874,32,48.874z M40.591,44.244H23.409V17.222h17.182V44.244z"/>
	</g>
	<g>
		<g>
			<g>
				<path fill="#FFFFFF" d="M10.838,21.312c1.518,3.457,1.897,7.104,1.967,10.694c-0.047,3.582-0.449,7.234-1.967,10.682
					c-0.298-3.549-0.135-7.139-0.111-10.691C10.703,28.443,10.566,24.861,10.838,21.312L10.838,21.312z"/>
				<path fill="#FFFFFF" d="M14.647,15.969c1.84,5.246,2.343,10.659,2.431,16.037c-0.089,5.373-0.585,10.783-2.431,16.025
					c0.014-5.244,0.326-10.488,0.351-15.734C15.023,26.854,14.679,21.414,14.647,15.969L14.647,15.969z"/>
			</g>
		</g>
		<g>
			<g>
				<path fill="#FFFFFF" d="M53.163,42.688c-1.518-3.457-1.897-7.104-1.967-10.691c0.047-3.584,0.449-7.236,1.967-10.683
					c0.298,3.548,0.135,7.138,0.111,10.693C53.298,35.557,53.435,39.139,53.163,42.688L53.163,42.688z"/>
				<path fill="#FFFFFF" d="M49.354,48.031c-1.84-5.246-2.343-10.66-2.431-16.035c0.089-5.375,0.585-10.785,2.431-16.027
					c-0.014,5.245-0.326,10.489-0.351,15.734C48.978,37.148,49.322,42.588,49.354,48.031L49.354,48.031z"/>
			</g>
		</g>
	</g>
</g>
</svg>
