<?xml version="1.0" encoding="utf-8"?>
<!-- Generator: Adobe Illustrator 15.0.0, SVG Export Plug-In . SVG Version: 6.00 Build 0)  -->
<!DOCTYPE svg PUBLIC "-//W3C//DTD SVG 1.1//EN" "http://www.w3.org/Graphics/SVG/1.1/DTD/svg11.dtd">
<svg version="1.1" id="Layer_1" xmlns="http://www.w3.org/2000/svg" xmlns:xlink="http://www.w3.org/1999/xlink" x="0px" y="0px"
	 width="64px" height="64px" viewBox="0 0 64 64" enable-background="new 0 0 64 64" xml:space="preserve">
<g>
	<path fill="#7A8084" d="M31.079,54.018L15.711,10.25c0,0,36.69-8.865,36.69,9.988v28.128c0,0.803-1,1.814-1.814,1.814
		L31.079,54.018z"/>
	<path fill="#94989B" d="M6.579,54.018c-0.814,0-1.814-1.012-1.814-1.814V24.075c0-18.854,28.128-18.854,28.128,0v28.128
		c0,0.803-1.001,1.814-1.814,1.814H6.579z"/>
	<path fill="#ED4C5C" d="M26.154,44.371c-1.004,0-1.814,0.81-1.814,1.813c0,1,0.811,1.816,1.814,1.816
		c0.999,0,1.814-0.816,1.814-1.816C27.968,45.181,27.153,44.371,26.154,44.371z"/>
	<path fill="#7A8084" d="M11.09,55.833c-0.486,0-0.882-0.396-0.882-0.885v-1.859c0-0.488,0.396-0.886,0.882-0.886h15.476
		c0.486,0,0.883,0.397,0.883,0.886v1.859c0,0.488-0.396,0.885-0.883,0.885H11.09z"/>
	<g>
		<path fill="#3E4347" d="M31.421,24.871c0,7.808-5.934,15.327-16.616,15.327c-7.805,0-8.958-17.771-8.958-25.579
			c0,0,4.359-3.88,11.444-3.88C25.093,10.739,31.421,17.067,31.421,24.871z"/>
		<g>
			<circle fill="#788287" cx="14.132" cy="26.066" r="14.132"/>
			<path fill="#212528" d="M26.693,26.064c0,6.941-5.625,12.562-12.56,12.562c-6.938,0-12.563-5.621-12.563-12.562
				c0-6.936,5.625-12.561,12.563-12.561C21.068,13.503,26.693,19.128,26.693,26.064z"/>
			<circle fill="#3E4347" cx="14.133" cy="26.064" r="10.206"/>
			<circle fill="#212528" cx="14.133" cy="26.066" r="5.496"/>
			<path opacity="0.5" fill="#F5F5F5" d="M21.64,21.709c0,1.745-1.415,3.162-3.161,3.162c-1.747,0-3.162-1.417-3.162-3.162
				c0-1.743,1.415-3.161,3.162-3.161C20.225,18.548,21.64,19.966,21.64,21.709z"/>
			<circle opacity="0.5" fill="#F5F5F5" cx="12.169" cy="28.028" r="1.963"/>
			<circle opacity="0.5" fill="#F5F5F5" cx="8.637" cy="31.562" r="1.215"/>
		</g>
	</g>
	<g>
		<path fill="#3E4347" d="M51.235,20.351c0,1.458-0.803,2.861-1.921,3.171c-1.29,0.358-2.493-0.842-2.493-2.734
			c0-1.892,1.203-3.33,2.493-3.228C50.433,17.649,51.235,18.894,51.235,20.351z"/>
		<g>
			<path fill="#3E4347" d="M45.299,23.058c0,0.613-0.729,1.281-1.701,1.508c-1.063,0.248-1.999-0.117-1.999-0.837
				c0-0.72,0.937-1.425,1.999-1.562C44.569,22.042,45.299,22.445,45.299,23.058z"/>
		</g>
		<g>
			<path fill="#3E4347" d="M45.167,19.919c0,0.613-0.729,1.281-1.701,1.508c-1.063,0.249-2-0.116-2-0.836s0.937-1.425,2-1.562
				C44.438,18.904,45.167,19.307,45.167,19.919z"/>
		</g>
	</g>
	<polygon fill="#3E4347" points="36.763,28.039 51.495,23.916 51.495,33.685 	"/>
	<g>
		<path fill="#94989B" d="M37.671,52.538c-0.492,0-0.893-0.383-0.893-0.855V27.988c0-0.473,0.4-0.856,0.893-0.856H58.84
			c6.88,0,6.88,25.407,0,25.407H37.671z"/>
		<path fill="#94989B" d="M34.056,31.667c0-0.454,0.365-0.822,0.814-0.822h1.092c0.451,0,0.816,0.368,0.816,0.822v16.417
			c0,0.455-0.365,0.823-0.816,0.823H34.87c-0.449,0-0.814-0.368-0.814-0.823V31.667z"/>
		<rect x="38.593" y="28.946" fill="#42ADE2" width="20.87" height="21.777"/>
	</g>
</g>
</svg>
