<?xml version="1.0" encoding="utf-8"?>
<!-- Generator: Adobe Illustrator 15.0.0, SVG Export Plug-In . SVG Version: 6.00 Build 0)  -->
<!DOCTYPE svg PUBLIC "-//W3C//DTD SVG 1.1//EN" "http://www.w3.org/Graphics/SVG/1.1/DTD/svg11.dtd">
<svg version="1.1" id="Layer_1" xmlns="http://www.w3.org/2000/svg" xmlns:xlink="http://www.w3.org/1999/xlink" x="0px" y="0px"
	 width="64px" height="64px" viewBox="0 0 64 64" enable-background="new 0 0 64 64" xml:space="preserve">
<g>
	<g>
		<path fill="#42ADE2" d="M44.648,32.001c0,5.04-3.207,9.346-7.688,10.982l2.916,2.915c5.1-2.548,8.611-7.818,8.611-13.897
			c0-6.099-3.533-11.383-8.66-13.922l-2.922,2.92C41.416,22.622,44.648,26.939,44.648,32.001z"/>
	</g>
	<g>
		<g>
			<path fill="#8B979E" d="M11.128,44.999H3.783C1.694,44.999,0,43.416,0,41.462V22.537C0,20.583,1.694,19,3.783,19h7.346V44.999z"
				/>
			<path fill="#8B979E" d="M11.128,44.999H3.783C1.694,44.999,0,43.416,0,41.462V22.537C0,20.583,1.694,19,3.783,19h7.346V44.999z"
				/>
			<path fill="#B0BDC6" d="M29.836,2.247C31.143,0.941,11.128,19,11.128,19v26c0,0,10.272,7.855,18.708,16.753V2.247z"/>
			<path fill="#333333" d="M33.004,25.454v13.092c3.863,0,6.996-2.932,6.996-6.545C40,28.384,36.867,25.454,33.004,25.454z"/>
			<path fill="#333333" d="M33.004,62.519c0,0.817-0.709,1.481-1.584,1.481l0,0c-0.874,0-1.583-0.664-1.583-1.481V1.481
				C29.836,0.663,30.545,0,31.419,0l0,0c0.875,0,1.584,0.663,1.584,1.481V62.519z"/>
			<path fill="#8B979E" d="M11.128,40.184H3.783C1.694,40.184,0,39.187,0,37.957V26.043c0-1.23,1.693-2.227,3.782-2.227h7.346
				V40.184z"/>
			<path fill="#B0BDC6" d="M11.128,40.184H3.783C1.694,40.184,0,39.187,0,37.957V26.043c0-1.23,1.693-2.227,3.782-2.227h7.346
				V40.184z"/>
			<polygon fill="#DFE9EF" points="29.836,13.269 11.128,23.816 11.128,40.185 29.836,50.73 			"/>
			<rect x="29.836" y="13.269" fill="#8B979E" width="3.167" height="37.461"/>
		</g>
		<rect x="3.783" y="19" fill="#333333" width="7.346" height="25.999"/>
	</g>
</g>
</svg>
