<?xml version="1.0" encoding="utf-8"?>
<!-- Generator: Adobe Illustrator 15.0.0, SVG Export Plug-In . SVG Version: 6.00 Build 0)  -->
<!DOCTYPE svg PUBLIC "-//W3C//DTD SVG 1.1//EN" "http://www.w3.org/Graphics/SVG/1.1/DTD/svg11.dtd">
<svg version="1.1" id="Layer_1" xmlns="http://www.w3.org/2000/svg" xmlns:xlink="http://www.w3.org/1999/xlink" x="0px" y="0px"
	 width="64px" height="64px" viewBox="0 0 64 64" enable-background="new 0 0 64 64" xml:space="preserve">
<g>
	<g>
		<path fill="#42ADE2" d="M51.428,7.386l-2.643,2.642c6.961,4.831,11.529,12.878,11.529,21.972c0,9.078-4.551,17.111-11.488,21.943
			l2.643,2.642C59.059,51.05,64,42.091,64,31.999C64,21.891,59.041,12.919,51.428,7.386z"/>
		<path fill="#42ADE2" d="M52.48,31.999c0,6.926-3.748,12.989-9.318,16.277l2.678,2.68c6.209-4.027,10.326-11.02,10.326-18.957
			c0-7.954-4.135-14.96-10.367-18.982l-2.682,2.681C48.713,18.98,52.48,25.058,52.48,31.999z"/>
		<path fill="#42ADE2" d="M44.807,31.999c0,4.84-3.078,8.973-7.381,10.545l2.799,2.798c4.896-2.447,8.27-7.507,8.27-13.343
			c0-5.853-3.393-10.928-8.314-13.365l-2.805,2.806C41.703,22.997,44.807,27.142,44.807,31.999z"/>
	</g>
	<g>
		<g>
			<path fill="#8B979E" d="M11.128,44.999H3.783C1.694,44.999,0,43.416,0,41.462V22.537C0,20.583,1.694,19,3.783,19h7.346V44.999z"
				/>
			<path fill="#8B979E" d="M11.128,44.999H3.783C1.694,44.999,0,43.416,0,41.462V22.537C0,20.583,1.694,19,3.783,19h7.346V44.999z"
				/>
			<path fill="#B0BDC6" d="M29.836,2.247C31.142,0.941,11.128,19,11.128,19v26c0,0,10.271,7.855,18.708,16.753V2.247z"/>
			<path fill="#333333" d="M33.004,25.454v13.092c3.863,0,6.996-2.932,6.996-6.545C40,28.384,36.867,25.454,33.004,25.454z"/>
			<path fill="#333333" d="M33.004,62.519c0,0.817-0.709,1.481-1.584,1.481l0,0c-0.874,0-1.583-0.664-1.583-1.481V1.481
				C29.836,0.663,30.545,0,31.419,0l0,0c0.875,0,1.584,0.663,1.584,1.481V62.519z"/>
			<path fill="#8B979E" d="M11.128,40.184H3.783C1.694,40.184,0,39.187,0,37.957V26.043c0-1.23,1.693-2.227,3.782-2.227h7.346
				V40.184z"/>
			<path fill="#B0BDC6" d="M11.128,40.184H3.783C1.694,40.184,0,39.187,0,37.957V26.043c0-1.23,1.693-2.227,3.782-2.227h7.346
				V40.184z"/>
			<polygon fill="#DFE9EF" points="29.836,13.269 11.128,23.816 11.128,40.185 29.836,50.73 			"/>
			<rect x="29.836" y="13.269" fill="#8B979E" width="3.167" height="37.461"/>
		</g>
		<rect x="3.783" y="19" fill="#333333" width="7.346" height="25.999"/>
	</g>
</g>
</svg>
