<?xml version="1.0" encoding="utf-8"?>
<!-- Generator: Adobe Illustrator 15.0.0, SVG Export Plug-In . SVG Version: 6.00 Build 0)  -->
<!DOCTYPE svg PUBLIC "-//W3C//DTD SVG 1.1//EN" "http://www.w3.org/Graphics/SVG/1.1/DTD/svg11.dtd">
<svg version="1.1" id="Layer_1" xmlns="http://www.w3.org/2000/svg" xmlns:xlink="http://www.w3.org/1999/xlink" x="0px" y="0px"
	 width="64px" height="64px" viewBox="0 0 64 64" enable-background="new 0 0 64 64" xml:space="preserve">
<g>
	<g>
		<path fill="#FFCE31" d="M32,47.415c-2.079,0-4.098-0.408-6-1.212c-1.837-0.777-3.485-1.889-4.899-3.304
			c-1.415-1.415-2.527-3.063-3.303-4.899c-0.805-1.901-1.213-3.92-1.213-6s0.408-4.1,1.213-6.001c0.775-1.835,1.888-3.484,3.303-4.9
			c1.414-1.415,3.063-2.525,4.899-3.302c1.902-0.804,3.921-1.212,6-1.212c2.081,0,4.101,0.408,6.002,1.212
			c1.835,0.777,3.483,1.887,4.897,3.302c1.415,1.416,2.527,3.064,3.305,4.9C47.009,27.9,47.415,29.92,47.415,32
			s-0.406,4.099-1.211,6c-0.777,1.836-1.89,3.484-3.305,4.899c-1.414,1.415-3.063,2.526-4.897,3.304
			C36.101,47.007,34.081,47.415,32,47.415z M32,20.988c-6.071,0-11.011,4.939-11.011,11.012c0,6.071,4.939,11.011,11.011,11.011
			S43.011,38.071,43.011,32C43.011,25.928,38.071,20.988,32,20.988z"/>
	</g>
	<g>
		<rect x="29.798" y="51.775" fill="#FFCE31" width="4.404" height="12.225"/>
	</g>
	<g>
		<rect x="29.798" y="0" fill="#FFCE31" width="4.404" height="12.224"/>
	</g>
	<g>
		
			<rect x="44.179" y="48.124" transform="matrix(0.7053 0.7089 -0.7089 0.7053 50.5011 -20.8312)" fill="#FFCE31" width="12.255" height="4.405"/>
	</g>
	<g>
		
			<rect x="7.583" y="11.493" transform="matrix(0.7071 0.7071 -0.7071 0.7071 13.6953 -5.6725)" fill="#FFCE31" width="12.223" height="4.403"/>
	</g>
	<g>
		
			<rect x="11.493" y="44.193" transform="matrix(0.7068 0.7074 -0.7074 0.7068 39.6031 5.0627)" fill="#FFCE31" width="4.402" height="12.223"/>
	</g>
	<g>
		
			<rect x="48.104" y="7.506" transform="matrix(0.7106 0.7035 -0.7035 0.7106 24.1593 -31.4425)" fill="#FFCE31" width="4.403" height="12.287"/>
	</g>
	<g>
		<rect x="51.774" y="29.797" fill="#FFCE31" width="12.226" height="4.404"/>
	</g>
	<g>
		<rect y="29.797" fill="#FFCE31" width="12.226" height="4.404"/>
	</g>
</g>
</svg>
