<?xml version="1.0" encoding="utf-8"?>
<!-- Generator: Adobe Illustrator 15.0.0, SVG Export Plug-In . SVG Version: 6.00 Build 0)  -->
<!DOCTYPE svg PUBLIC "-//W3C//DTD SVG 1.1//EN" "http://www.w3.org/Graphics/SVG/1.1/DTD/svg11.dtd">
<svg version="1.1" id="Layer_1" xmlns="http://www.w3.org/2000/svg" xmlns:xlink="http://www.w3.org/1999/xlink" x="0px" y="0px"
	 width="64px" height="64px" viewBox="0 0 64 64" enable-background="new 0 0 64 64" xml:space="preserve">
<g>
	<circle fill="#42ADE2" cx="32" cy="32" r="30"/>
	<g>
		<path fill="#FFFFFF" d="M47.33,23.735L35.961,17v3.818H24.422c-2.784,0-5.401,1.113-7.369,3.132
			C15.084,25.971,14,28.656,14,31.512c0,1.176,0.185,2.321,0.538,3.405c0.245-0.345,0.517-0.671,0.814-0.976
			c0.738-0.759,1.599-1.353,2.556-1.768c0.574-0.25,1.169-0.429,1.779-0.533c-0.002-0.042-0.002-0.086-0.002-0.129
			c0-2.682,2.124-4.861,4.736-4.861h11.539v3.82L47.33,23.735z"/>
		<g>
			<path fill="#FFFFFF" d="M49.456,28.087l-5.153,3.054c0.008,0.121,0.014,0.246,0.014,0.371c0,2.682-2.125,4.861-4.738,4.861H27.25
				c-1.186-2.273-3.522-3.818-6.211-3.818c-3.887,0-7.039,3.233-7.039,7.223C14,43.766,17.152,47,21.039,47
				c3.058,0,5.658-1.999,6.631-4.795h11.908c2.785,0,5.401-1.112,7.371-3.131C48.916,37.054,50,34.367,50,31.512
				C50,30.329,49.814,29.176,49.456,28.087z M21.039,44.616c-2.604,0-4.717-2.167-4.717-4.839c0-2.674,2.112-4.84,4.717-4.84
				c2.605,0,4.715,2.166,4.715,4.84C25.754,42.449,23.645,44.616,21.039,44.616z"/>
			<g>
				<path fill="#FFFFFF" d="M21.785,42.742h-1.1v-4.271c-0.403,0.388-0.876,0.675-1.422,0.86v-1.029
					c0.288-0.098,0.6-0.279,0.936-0.549c0.337-0.27,0.568-0.584,0.693-0.942h0.893V42.742z"/>
			</g>
		</g>
	</g>
</g>
</svg>
