<?xml version="1.0" encoding="utf-8"?>
<!-- Generator: Adobe Illustrator 15.0.0, SVG Export Plug-In . SVG Version: 6.00 Build 0)  -->
<!DOCTYPE svg PUBLIC "-//W3C//DTD SVG 1.1//EN" "http://www.w3.org/Graphics/SVG/1.1/DTD/svg11.dtd">
<svg version="1.1" id="Layer_1" xmlns="http://www.w3.org/2000/svg" xmlns:xlink="http://www.w3.org/1999/xlink" x="0px" y="0px"
	 width="64px" height="64px" viewBox="0 0 64 64" enable-background="new 0 0 64 64" xml:space="preserve">
<g>
	<path fill="#D0D0D0" d="M11.727,13.142c0,0.633-0.529,1.146-1.181,1.146H8.972c-0.651,0-1.18-0.513-1.18-1.146V1.145
		C7.792,0.513,8.32,0,8.972,0h1.574c0.651,0,1.181,0.513,1.181,1.145V13.142z"/>
	<path fill="#D0D0D0" d="M21.84,13.142c0,0.633-0.528,1.146-1.182,1.146h-1.572c-0.653,0-1.182-0.513-1.182-1.146V1.145
		C17.904,0.513,18.433,0,19.086,0h1.572c0.653,0,1.182,0.513,1.182,1.145V13.142z"/>
	<g>
		<path fill="#3E4347" d="M0.001,13.563v4.464c0,0.633,0.528,1.145,1.179,1.145h1.713v4.808c0,4.16,2.265,7.806,5.666,9.843v4.236
			c0,0.632,0.528,1.145,1.18,1.145h10.153c0.653,0,1.182-0.513,1.182-1.145v-4.236c3.399-2.037,5.666-5.684,5.666-9.843v-4.808
			h1.713c0.65,0,1.18-0.512,1.18-1.145v-4.464c0-0.529-0.37-0.975-0.872-1.105H0.873C0.37,12.589,0.001,13.034,0.001,13.563z"/>
	</g>
	<path fill="#3E4347" d="M60.066,25.811v38.188h3.935V25.811c0-1.801-0.365-3.551-1.083-5.197c-0.694-1.59-1.688-3.019-2.95-4.244
		c-1.266-1.226-2.737-2.188-4.378-2.86c-1.698-0.697-3.504-1.051-5.36-1.051c-1.859,0-3.664,0.354-5.361,1.051
		c-1.642,0.672-3.113,1.635-4.377,2.86c-1.266,1.226-2.259,2.654-2.952,4.244c-0.718,1.646-1.083,3.396-1.083,5.197v24.838
		c0,5.258-4.411,9.537-9.837,9.537c-5.424,0-9.837-4.279-9.837-9.537V39.203h-3.935v11.445c0,1.802,0.365,3.55,1.083,5.197
		c0.694,1.591,1.687,3.019,2.95,4.244c1.266,1.226,2.737,2.188,4.377,2.861c1.7,0.696,3.505,1.049,5.361,1.049
		c1.858,0,3.664-0.353,5.361-1.049c1.642-0.674,3.113-1.636,4.377-2.861c1.266-1.226,2.258-2.653,2.952-4.244
		c0.718-1.647,1.083-3.396,1.083-5.197V25.811c0-5.258,4.411-9.537,9.837-9.537C55.652,16.273,60.066,20.553,60.066,25.811z"/>
</g>
</svg>
