<?xml version="1.0" encoding="utf-8"?>
<!-- Generator: Adobe Illustrator 15.0.0, SVG Export Plug-In . SVG Version: 6.00 Build 0)  -->
<!DOCTYPE svg PUBLIC "-//W3C//DTD SVG 1.1//EN" "http://www.w3.org/Graphics/SVG/1.1/DTD/svg11.dtd">
<svg version="1.1" id="Layer_1" xmlns="http://www.w3.org/2000/svg" xmlns:xlink="http://www.w3.org/1999/xlink" x="0px" y="0px"
	 width="64px" height="64px" viewBox="0 0 64 64" enable-background="new 0 0 64 64" xml:space="preserve">
<g>
	<circle fill="#42ADE2" cx="32.001" cy="32" r="30"/>
	<g>
		<path fill="#FFFFFF" d="M49.446,29l-5.265,3.065c0.009,0.122,0.015,0.246,0.015,0.372c0,2.688-2.17,4.878-4.838,4.878H27.61
			v-3.832l-11.609,6.758L27.61,47v-3.832h11.748c2.843,0,5.515-1.117,7.526-3.143c2.009-2.027,3.116-4.722,3.116-7.588
			C50.001,31.249,49.812,30.093,49.446,29z"/>
		<path fill="#FFFFFF" d="M19.802,31.548c0-2.687,2.166-4.873,4.831-4.873h11.771v3.828l11.598-6.751L36.403,17v3.828H24.633
			c-2.841,0-5.511,1.115-7.518,3.14c-2.009,2.025-3.114,4.716-3.114,7.58c0,1.192,0.191,2.354,0.563,3.452l5.252-3.059
			C19.806,31.811,19.802,31.68,19.802,31.548z"/>
	</g>
</g>
</svg>
