<?xml version="1.0" encoding="utf-8"?>
<!-- Generator: Adobe Illustrator 15.0.0, SVG Export Plug-In . SVG Version: 6.00 Build 0)  -->
<!DOCTYPE svg PUBLIC "-//W3C//DTD SVG 1.1//EN" "http://www.w3.org/Graphics/SVG/1.1/DTD/svg11.dtd">
<svg version="1.1" id="Layer_1" xmlns="http://www.w3.org/2000/svg" xmlns:xlink="http://www.w3.org/1999/xlink" x="0px" y="0px"
	 width="64px" height="64px" viewBox="0 0 64 64" enable-background="new 0 0 64 64" xml:space="preserve">
<g>
	<path fill="#3E4347" d="M52,58c0,2.199-1.8,4-4,4H16c-2.2,0-4-1.801-4-4V10c0-2.2,1.8-4,4-4h32c2.2,0,4,1.8,4,4V58z"/>
	<path fill="#3E4347" d="M42,7c0,1.1-0.9,2-2,2H24c-1.1,0-2-0.9-2-2V4c0-1.1,0.9-2,2-2h16c1.1,0,2,0.9,2,2V7z"/>
	<path fill="#FFFFFF" d="M16,13c-0.542,0-1,0.458-1,1v40c0,0.541,0.458,1,1,1h32c0.542,0,1-0.459,1-1V14c0-0.542-0.458-1-1-1H16z"/>
	<path fill="#A8D600" d="M46,23c0,1.1-0.9,2-2,2H20c-1.1,0-2-0.9-2-2v-4c0-1.1,0.9-2,2-2h24c1.1,0,2,0.9,2,2V23z"/>
	<path fill="#A8D600" d="M46,36c0,1.1-0.9,2-2,2H20c-1.1,0-2-0.9-2-2v-4c0-1.1,0.9-2,2-2h24c1.1,0,2,0.9,2,2V36z"/>
	<path fill="#A8D600" d="M46,49c0,1.1-0.9,2-2,2H20c-1.1,0-2-0.9-2-2v-4c0-1.1,0.9-2,2-2h24c1.1,0,2,0.9,2,2V49z"/>
</g>
</svg>
