<?xml version="1.0" encoding="utf-8"?>
<!-- Generator: Adobe Illustrator 15.0.0, SVG Export Plug-In . SVG Version: 6.00 Build 0)  -->
<!DOCTYPE svg PUBLIC "-//W3C//DTD SVG 1.1//EN" "http://www.w3.org/Graphics/SVG/1.1/DTD/svg11.dtd">
<svg version="1.1" id="Layer_1" xmlns="http://www.w3.org/2000/svg" xmlns:xlink="http://www.w3.org/1999/xlink" x="0px" y="0px"
	 width="64px" height="64px" viewBox="0 0 64 64" enable-background="new 0 0 64 64" xml:space="preserve">
<g>
	<path fill="#94989B" d="M40,63.016l-6.809-9.283c-0.273,0.014-0.549,0.021-0.828,0.021c-5.978,0-10.841-3.828-10.841-8.535v-20.73
		h8.517L15.02,4L0,24.488h8.514v20.73c0,5.018,2.482,9.73,6.986,13.279C20.006,62.047,25.993,64,32.363,64
		C35,64,37.571,63.666,40,63.016z"/>
	<path fill="#94989B" d="M31.671,10.235c5.97,0,10.829,3.823,10.829,8.524v20.775h-8.506L48.997,60L64,39.535h-8.506V18.76
		c0-5.012-2.479-9.721-6.978-13.264C44.015,1.952,38.033,0,31.671,0C29.021,0,26.439,0.341,24,0.993l6.796,9.266
		C31.086,10.243,31.377,10.235,31.671,10.235z"/>
</g>
</svg>
