<?xml version="1.0" encoding="utf-8"?>
<!-- Generator: Adobe Illustrator 15.0.0, SVG Export Plug-In . SVG Version: 6.00 Build 0)  -->
<!DOCTYPE svg PUBLIC "-//W3C//DTD SVG 1.1//EN" "http://www.w3.org/Graphics/SVG/1.1/DTD/svg11.dtd">
<svg version="1.1" id="Layer_1" xmlns="http://www.w3.org/2000/svg" xmlns:xlink="http://www.w3.org/1999/xlink" x="0px" y="0px"
	 width="64px" height="64px" viewBox="0 0 64 64" enable-background="new 0 0 64 64" xml:space="preserve">
<g>
	<g>
		<path fill="#8B979E" d="M11.128,45H3.783C1.694,45,0,43.416,0,41.463V22.537c0-1.954,1.693-3.536,3.782-3.536h7.346V45z"/>
		<path fill="#8B979E" d="M11.128,45H3.783C1.694,45,0,43.416,0,41.463V22.537c0-1.954,1.693-3.536,3.782-3.536h7.346V45z"/>
		<path fill="#B0BDC6" d="M29.836,2.247c1.306-1.306-18.708,16.754-18.708,16.754V45c0,0,10.271,7.855,18.708,16.754V2.247z"/>
		<path fill="#333333" d="M33.004,25.454v13.093c3.863,0,6.996-2.932,6.996-6.545C40,28.385,36.867,25.454,33.004,25.454z"/>
		<path fill="#333333" d="M33.004,62.52c0,0.816-0.709,1.48-1.584,1.48l0,0c-0.874,0-1.583-0.664-1.583-1.48V1.481
			C29.836,0.663,30.545,0,31.419,0l0,0c0.875,0,1.584,0.663,1.584,1.481V62.52z"/>
		<path fill="#8B979E" d="M11.128,40.184H3.783C1.694,40.184,0,39.188,0,37.957V26.043c0-1.23,1.693-2.227,3.782-2.227h7.346V40.184
			z"/>
		<path fill="#B0BDC6" d="M11.128,40.184H3.783C1.694,40.184,0,39.188,0,37.957V26.043c0-1.23,1.693-2.227,3.782-2.227h7.346V40.184
			z"/>
		<polygon fill="#DFE9EF" points="29.836,13.27 11.128,23.816 11.128,40.186 29.836,50.73 		"/>
		<rect x="29.836" y="13.27" fill="#8B979E" width="3.167" height="37.461"/>
	</g>
	<rect x="3.783" y="19.001" fill="#333333" width="7.346" height="25.999"/>
</g>
</svg>
