<?xml version="1.0" encoding="utf-8"?>
<!-- Generator: Adobe Illustrator 15.0.0, SVG Export Plug-In . SVG Version: 6.00 Build 0)  -->
<!DOCTYPE svg PUBLIC "-//W3C//DTD SVG 1.1//EN" "http://www.w3.org/Graphics/SVG/1.1/DTD/svg11.dtd">
<svg version="1.1" id="Layer_1" xmlns="http://www.w3.org/2000/svg" xmlns:xlink="http://www.w3.org/1999/xlink" x="0px" y="0px"
	 width="64px" height="64px" viewBox="0 0 64 64" enable-background="new 0 0 64 64" xml:space="preserve">
<g>
	<circle fill="#42ADE2" cx="31.999" cy="32" r="30"/>
	<g>
		<path fill="#FFFFFF" d="M48.999,39.569L42.62,46v-3.929h-5.592c-0.004,0-0.01,0-0.016,0c-1.563,0-4.49-0.997-5.697-4.739
			l-1.572-4.449l0,0l-1.611-4.564c-0.336-1.055-0.848-1.24-1.035-1.273H14.999V22h12.174c0.004,0,0.01,0,0.014,0
			c1.564,0,4.49,0.997,5.699,4.74l1.572,4.448l1.611,4.564c0.334,1.053,0.846,1.24,1.035,1.273h5.516v-3.888L48.999,39.569z"/>
		<g>
			<path fill="#FFFFFF" d="M28.372,35.002l-0.24,0.68c-0.336,1.055-0.848,1.24-1.035,1.273H14.999V42h12.174c0.004,0,0.01,0,0.014,0
				c0.92,0,2.309-0.351,3.545-1.396c-0.535-0.756-0.99-1.636-1.32-2.658L28.372,35.002z"/>
			<path fill="#FFFFFF" d="M35.804,28.999l0.266-0.752c0.334-1.053,0.846-1.24,1.035-1.273h5.516v3.888l6.379-6.431L42.62,18v3.929
				h-5.592c-0.004,0-0.01,0-0.016,0c-0.934,0-2.352,0.361-3.602,1.446c0.561,0.774,1.035,1.688,1.377,2.751L35.804,28.999z"/>
		</g>
	</g>
</g>
</svg>
