<?xml version="1.0" encoding="utf-8"?>
<!-- Generator: Adobe Illustrator 15.0.0, SVG Export Plug-In . SVG Version: 6.00 Build 0)  -->
<!DOCTYPE svg PUBLIC "-//W3C//DTD SVG 1.1//EN" "http://www.w3.org/Graphics/SVG/1.1/DTD/svg11.dtd">
<svg version="1.1" id="Layer_1" xmlns="http://www.w3.org/2000/svg" xmlns:xlink="http://www.w3.org/1999/xlink" x="0px" y="0px"
	 width="64px" height="64px" viewBox="0 0 64 64" enable-background="new 0 0 64 64" xml:space="preserve">
<g>
	
		<rect x="40.182" y="40.847" transform="matrix(0.7072 -0.707 0.707 0.7072 -17.829 43.0376)" fill="#B0BDC6" width="5.727" height="4.393"/>
	
		<rect x="41.554" y="40.847" transform="matrix(0.7069 -0.7073 0.7073 0.7069 -17.8286 43.0589)" fill="#DFE9EF" width="2.982" height="4.392"/>
	
		<rect x="39.272" y="41.224" transform="matrix(0.7072 -0.707 0.707 0.7072 -17.452 42.1276)" fill="#B0BDC6" width="5.727" height="1.819"/>
	<g>
		<circle fill="#DFE9EF" cx="24.703" cy="24.703" r="24.703"/>
		<circle fill="#B0BDC6" cx="24.703" cy="24.703" r="22.233"/>
		<circle fill="#FFFFFF" cx="24.703" cy="24.703" r="20.586"/>
		<path fill="#DFE9EF" d="M36.336,29.631c-6.952,6.951-18.219,6.951-25.167,0.002c-1.84-1.84-3.177-3.986-4.042-6.271
			c-0.473,5.09,1.235,10.343,5.132,14.239c6.949,6.947,18.217,6.947,25.166,0c5.11-5.111,6.449-12.553,4.043-18.897
			C41.098,22.691,39.388,26.578,36.336,29.631z"/>
	</g>
	
		<rect x="46.166" y="41.023" transform="matrix(0.7071 -0.7071 0.7071 0.7071 -21.2903 51.4014)" fill="#333333" width="10.471" height="20.755"/>
	
		<rect x="48.538" y="41.022" transform="matrix(0.7069 -0.7073 0.7073 0.7069 -21.2901 51.4185)" fill="#575B5E" width="5.727" height="20.757"/>
	<path fill="#B0BDC6" d="M63.894,54.334c1.219,1.219-8.339,10.777-9.559,9.559l-0.749-0.75c-1.218-1.219,8.341-10.777,9.558-9.558
		L63.894,54.334z"/>
	<path fill="#DFE9EF" d="M62.304,55.923c1.22,1.22-5.158,7.599-6.378,6.378l-0.749-0.748c-1.22-1.219,5.159-7.597,6.378-6.379
		L62.304,55.923z"/>
</g>
</svg>
