<?xml version="1.0" encoding="utf-8"?>
<!-- Generator: Adobe Illustrator 15.0.0, SVG Export Plug-In . SVG Version: 6.00 Build 0)  -->
<!DOCTYPE svg PUBLIC "-//W3C//DTD SVG 1.1//EN" "http://www.w3.org/Graphics/SVG/1.1/DTD/svg11.dtd">
<svg version="1.1" id="Layer_1" xmlns="http://www.w3.org/2000/svg" xmlns:xlink="http://www.w3.org/1999/xlink" x="0px" y="0px"
	 width="64px" height="64px" viewBox="0 0 64 64" enable-background="new 0 0 64 64" xml:space="preserve">
<g>
	
		<rect x="18.091" y="40.847" transform="matrix(-0.7072 -0.707 0.707 -0.7072 5.3405 88.2996)" fill="#B0BDC6" width="5.727" height="4.393"/>
	
		<rect x="19.463" y="40.847" transform="matrix(-0.7069 -0.7073 0.7073 -0.7069 5.3249 88.2933)" fill="#DFE9EF" width="2.982" height="4.392"/>
	
		<rect x="19.001" y="41.224" transform="matrix(-0.7072 -0.707 0.707 -0.7072 7.5378 87.3893)" fill="#B0BDC6" width="5.727" height="1.819"/>
	<g>
		<circle fill="#DFE9EF" cx="39.297" cy="24.703" r="24.703"/>
		<circle fill="#B0BDC6" cx="39.297" cy="24.703" r="22.233"/>
		<circle fill="#FFFFFF" cx="39.297" cy="24.703" r="20.586"/>
		<path fill="#DFE9EF" d="M27.664,29.631c6.951,6.951,18.219,6.951,25.166,0.002c1.84-1.84,3.177-3.986,4.042-6.271
			c0.473,5.09-1.235,10.343-5.132,14.239c-6.949,6.947-18.217,6.947-25.165,0c-5.11-5.111-6.449-12.553-4.043-18.897
			C22.902,22.691,24.612,26.578,27.664,29.631z"/>
	</g>
	
		<rect x="7.363" y="41.023" transform="matrix(-0.7071 -0.7071 0.7071 -0.7071 -14.8392 96.6542)" fill="#333333" width="10.471" height="20.755"/>
	
		<rect x="9.735" y="41.022" transform="matrix(-0.7069 -0.7073 0.7073 -0.7069 -14.8489 96.6471)" fill="#575B5E" width="5.727" height="20.757"/>
	<path fill="#B0BDC6" d="M0.106,54.334c-1.219,1.219,8.339,10.777,9.559,9.559l0.749-0.75c1.218-1.219-8.341-10.777-9.558-9.558
		L0.106,54.334z"/>
	<path fill="#DFE9EF" d="M1.696,55.923c-1.22,1.22,5.158,7.599,6.378,6.378l0.749-0.748c1.22-1.219-5.159-7.597-6.378-6.379
		L1.696,55.923z"/>
</g>
</svg>
