<?xml version="1.0" encoding="utf-8"?>
<!-- Generator: Adobe Illustrator 15.0.0, SVG Export Plug-In . SVG Version: 6.00 Build 0)  -->
<!DOCTYPE svg PUBLIC "-//W3C//DTD SVG 1.1//EN" "http://www.w3.org/Graphics/SVG/1.1/DTD/svg11.dtd">
<svg version="1.1" id="Layer_1" xmlns="http://www.w3.org/2000/svg" xmlns:xlink="http://www.w3.org/1999/xlink" x="0px" y="0px"
	 width="64px" height="64px" viewBox="0 0 64 64" enable-background="new 0 0 64 64" xml:space="preserve">
<g>
	<g>
		<path fill="#B0BDC6" d="M43.711,23.66c-5.455-3.433-7.474-8.132-9.329-11.515C30.53,5.121,24.252,3.027,17.777,4.611
			c-1.282-2.337-3.559-3.418-6.016-1.924c-2.458,1.494-2.707,4.11-1.425,6.446c-4.542,5.111-5.957,11.881-2.104,18.907
			c1.855,3.381,4.711,7.572,4.808,14.261c0.069,4.754-3.66,7.966,2.025,18.33l42.714-25.959
			C52.094,24.306,47.588,26.098,43.711,23.66z"/>
		<path fill="#D9E3E8" d="M40.664,25.512c-4.923-3.756-7.025-8.405-8.88-11.787C27.932,6.7,22.419,4.14,17.037,5.06
			c-1.281-2.336-3.307-3.57-5.275-2.374c-1.969,1.196-1.967,3.66-0.686,5.997c-3.446,4.446-4.098,10.751-0.245,17.776
			c1.854,3.382,4.629,7.623,5.257,13.989c0.447,4.522-2.463,7.238,3.222,17.604L53.534,37.25
			C47.85,26.885,44.162,28.18,40.664,25.512z"/>
	</g>
	<path fill="#7D888E" d="M57.739,34.693c1.835,3.345-6.241,11.864-18.037,19.033c-11.795,7.17-22.841,10.271-24.676,6.927
		c-1.833-3.342,6.241-11.863,18.037-19.031C44.859,34.452,55.908,31.353,57.739,34.693z"/>
	<path fill="#5A666B" d="M56.632,35.667c1.657,3.021-5.993,10.934-17.088,17.676c-11.094,6.744-21.428,9.762-23.085,6.74
		c-1.655-3.018,5.995-10.932,17.089-17.674C44.641,35.666,54.977,32.65,56.632,35.667z"/>
	<path fill="#383F42" d="M17.654,55.714c4.37-0.478,11.458-3.32,18.892-7.838c7.434-4.518,13.315-9.56,15.894-13.304
		c-4.369,0.478-11.459,3.318-18.892,7.837C26.113,46.927,20.231,51.969,17.654,55.714z"/>
	<g>
		<path fill="#B0BDC6" d="M23.823,49.316c-0.679,0.57-1.319,1.136-1.919,1.69c1.582,3.499,5.23,5.603,9.023,4.885
			C27.933,56.455,24.895,53.569,23.823,49.316z"/>
		<path fill="#B0BDC6" d="M35.569,41.221c-0.512,0.292-1.024,0.593-1.539,0.901c0.021,0.033,0.043,0.066,0.063,0.1
			c0.746,1.264,1.247,2.671,1.515,4.122c0.269,1.45,0.267,2.965-0.071,4.402c-0.321,1.438-1.073,2.769-2.115,3.705
			c0.009-0.012,0.016-0.025,0.025-0.036c-0.695,0.766-1.541,1.289-2.503,1.475c4.547-0.868,7.567-5.445,6.749-10.233
			C37.396,43.927,36.63,42.416,35.569,41.221z"/>
		<polygon fill="#D9E3E8" points="30.927,55.892 30.932,55.892 30.943,55.89 30.932,55.892 		"/>
		<path fill="#D9E3E8" d="M35.607,46.344c-0.268-1.451-0.769-2.858-1.515-4.122c-0.02-0.033-0.042-0.066-0.063-0.1
			c-0.039,0.023-0.078,0.047-0.117,0.07c-0.122,0.072-0.244,0.143-0.365,0.217c-0.043,0.026-0.085,0.053-0.127,0.079
			c-3.647,2.224-6.916,4.571-9.598,6.828c1.072,4.253,4.11,7.139,7.104,6.575c0.002,0,0.004,0,0.005,0
			c0.003,0,0.008-0.002,0.011-0.002c0.962-0.186,1.808-0.709,2.503-1.475c-0.01,0.011-0.017,0.024-0.025,0.036
			c1.042-0.937,1.794-2.267,2.115-3.705C35.874,49.309,35.876,47.794,35.607,46.344z"/>
	</g>
</g>
</svg>
