<?xml version="1.0" encoding="utf-8"?>
<!-- Generator: Adobe Illustrator 15.0.0, SVG Export Plug-In . SVG Version: 6.00 Build 0)  -->
<!DOCTYPE svg PUBLIC "-//W3C//DTD SVG 1.1//EN" "http://www.w3.org/Graphics/SVG/1.1/DTD/svg11.dtd">
<svg version="1.1" id="Layer_1" xmlns="http://www.w3.org/2000/svg" xmlns:xlink="http://www.w3.org/1999/xlink" x="0px" y="0px"
	 width="64px" height="64px" viewBox="0 0 64 64" enable-background="new 0 0 64 64" xml:space="preserve">
<g>
	<circle fill="#ED4C5C" cx="32" cy="32" r="30"/>
	<circle fill="#333333" cx="32" cy="32" r="24"/>
	<g>
		<g>
			<g>
				<path fill="#FFFFFF" d="M42.01,31.968c-1.75-3.138-1.477-5.893-1.477-7.99c0-4.354-2.51-7.103-6.105-8.196
					c0-1.449-0.824-2.595-2.427-2.595c-1.604,0-2.429,1.146-2.429,2.595c-3.596,1.093-6.104,3.841-6.104,8.196
					c0,2.098,0.272,4.853-1.476,7.99c-1.242,2.229-3.93,2.669-3.93,9.095h27.875C45.938,34.637,43.251,34.197,42.01,31.968z"/>
			</g>
		</g>
		<path fill="#FFFFFF" d="M32.774,42.938c0,2.42-1.962,4.383-4.383,4.383s-4.383-1.963-4.383-4.383H32.774z"/>
	</g>
	
		<rect x="2.815" y="29" transform="matrix(-0.7071 -0.7071 0.7071 -0.7071 32 77.2548)" fill="#ED4C5C" width="58.369" height="5.999"/>
</g>
</svg>
