<?xml version="1.0" encoding="utf-8"?>
<!-- Generator: Adobe Illustrator 15.0.0, SVG Export Plug-In . SVG Version: 6.00 Build 0)  -->
<!DOCTYPE svg PUBLIC "-//W3C//DTD SVG 1.1//EN" "http://www.w3.org/Graphics/SVG/1.1/DTD/svg11.dtd">
<svg version="1.1" id="Layer_1" xmlns="http://www.w3.org/2000/svg" xmlns:xlink="http://www.w3.org/1999/xlink" x="0px" y="0px"
	 width="64px" height="64px" viewBox="0 0 64 64" enable-background="new 0 0 64 64" xml:space="preserve">
<g>
	<path fill="#DAE1E5" d="M61.187,18.709L45.416,2.819c-1.085-1.093-2.859-1.093-3.943,0l-15.771,15.89
		c-1.084,1.092-1.084,2.88,0,3.972l3.963,3.992l-2.484-2.502c1.635,1.646,1.635,4.31,0.001,5.958L5.494,51.979L2,60.376l1.613,1.625
		l6.317-0.588l24.15-24.331c1.635-1.646,4.278-1.646,5.913,0.001l-0.772-0.779l2.251,2.268c1.084,1.094,2.859,1.094,3.943,0
		l15.771-15.89C62.271,21.588,62.271,19.802,61.187,18.709z M53.301,20.695l-1.971,1.986c-0.543,0.546-1.43,0.546-1.972,0
		l-7.886-7.945c-0.542-0.546-0.542-1.44,0-1.986l1.971-1.986c0.543-0.546,1.43-0.546,1.973,0l7.885,7.945
		C53.844,19.255,53.844,20.149,53.301,20.695z"/>
	<polygon fill="#C2C8CC" points="15.829,57.456 17.317,55.958 17.322,53.966 9.931,61.413 14.365,60.917 15.823,59.448 	"/>
	<polygon fill="#C2C8CC" points="26.18,47.028 27.667,45.53 27.673,43.538 18.801,52.476 20.773,52.476 22.252,50.985 
		24.223,50.985 26.194,48.999 	"/>
	<path fill="#C2C8CC" d="M30.666,31.583c0.521-0.523,0.232-0.68-0.039-0.953s-0.426-0.564-0.945-0.041L7.922,52.513
		c-0.52,0.523-0.231,0.68,0.04,0.953c0.271,0.273,0.427,0.563,0.946,0.039L30.666,31.583z"/>
	<path fill="#C2C8CC" d="M33.624,34.562c0.521-0.523,0.231-0.68-0.04-0.951c-0.271-0.273-0.426-0.566-0.945-0.041l-21.76,21.922
		c-0.52,0.523-0.23,0.68,0.039,0.953c0.271,0.273,0.428,0.564,0.947,0.041L33.624,34.562z"/>
</g>
</svg>
