<?xml version="1.0" encoding="utf-8"?>
<!-- Generator: Adobe Illustrator 15.0.0, SVG Export Plug-In . SVG Version: 6.00 Build 0)  -->
<!DOCTYPE svg PUBLIC "-//W3C//DTD SVG 1.1//EN" "http://www.w3.org/Graphics/SVG/1.1/DTD/svg11.dtd">
<svg version="1.1" id="Layer_1" xmlns="http://www.w3.org/2000/svg" xmlns:xlink="http://www.w3.org/1999/xlink" x="0px" y="0px"
	 width="64px" height="64px" viewBox="0 0 64 64" enable-background="new 0 0 64 64" xml:space="preserve">
<g>
	<g>
		<path fill="#94989B" d="M36.148,41.525c1.19,1.191,1.305,3.03,0.247,4.087L18.733,63.276c-1.055,1.055-2.896,0.943-4.087-0.248
			L0.972,49.354c-1.192-1.192-1.303-3.031-0.248-4.087l17.664-17.663c1.057-1.057,2.896-0.945,4.087,0.247l0,0
			c1.19,1.19,1.305,3.03,0.248,4.087L8.899,45.763c-1.055,1.055-0.945,2.895,0.247,4.087l5.004,5.004
			c1.192,1.192,3.032,1.302,4.087,0.247l13.824-13.823C33.117,40.22,34.956,40.333,36.148,41.525L36.148,41.525z"/>
	</g>
	<g>
		<path fill="#94989B" d="M63.028,14.646c1.19,1.19,1.303,3.032,0.247,4.087L45.612,36.396c-1.056,1.056-2.896,0.943-4.087-0.247
			l0,0c-1.192-1.192-1.305-3.033-0.248-4.088L55.1,18.236c1.057-1.057,0.945-2.895-0.247-4.087L49.85,9.146
			c-1.192-1.191-3.03-1.304-4.088-0.247L31.939,22.723c-1.055,1.055-2.896,0.942-4.087-0.248l0,0
			c-1.192-1.191-1.303-3.031-0.247-4.087L45.268,0.725c1.056-1.056,2.895-0.945,4.087,0.247L63.028,14.646z"/>
	</g>
	<g>
		<path fill="#94989B" d="M44.48,19.521c1.192,1.192,1.303,3.028,0.246,4.085L23.606,44.727c-1.055,1.055-2.893,0.946-4.085-0.246
			l0,0c-1.193-1.192-1.303-3.032-0.247-4.087l21.119-21.12C41.45,18.216,43.288,18.328,44.48,19.521L44.48,19.521z"/>
	</g>
</g>
</svg>
