<?xml version="1.0" encoding="utf-8"?>
<!-- Generator: Adobe Illustrator 15.0.0, SVG Export Plug-In . SVG Version: 6.00 Build 0)  -->
<!DOCTYPE svg PUBLIC "-//W3C//DTD SVG 1.1//EN" "http://www.w3.org/Graphics/SVG/1.1/DTD/svg11.dtd">
<svg version="1.1" id="Layer_1" xmlns="http://www.w3.org/2000/svg" xmlns:xlink="http://www.w3.org/1999/xlink" x="0px" y="0px"
	 width="64px" height="64px" viewBox="0 0 64 64" enable-background="new 0 0 64 64" xml:space="preserve">
<g>
	<circle fill="#ED4C5C" cx="32" cy="32" r="30"/>
	<circle fill="#333333" cx="32" cy="32" r="24"/>
	<g>
		<path fill="#FFFFFF" d="M16.127,27.056v-3.487c1.613-0.072,2.743-0.18,3.389-0.324c1.027-0.228,1.865-0.683,2.51-1.366
			c0.442-0.468,0.777-1.091,1.004-1.87c0.132-0.467,0.197-0.814,0.197-1.042h4.279v26.065h-5.249V27.056H16.127z"/>
		<path fill="#FFFFFF" d="M30.745,33.555c0.66-1.187,1.629-2.079,2.904-2.679c-1.265-0.839-2.085-1.747-2.464-2.724
			s-0.568-1.89-0.568-2.741c0-1.894,0.715-3.508,2.145-4.845c1.427-1.336,3.447-2.004,6.052-2.004c2.607,0,4.625,0.668,6.053,2.004
			c1.43,1.336,2.145,2.951,2.145,4.845c0,0.851-0.189,1.764-0.566,2.741s-1.195,1.824-2.453,2.544
			c1.287,0.72,2.258,1.672,2.908,2.858c0.648,1.187,0.975,2.511,0.975,3.973c0,2.193-0.814,4.06-2.439,5.6s-3.895,2.31-6.809,2.31
			c-2.916,0-5.125-0.77-6.623-2.31c-1.5-1.54-2.25-3.406-2.25-5.6C29.752,36.065,30.083,34.741,30.745,33.555z M36.072,40.17
			c0.664,0.707,1.584,1.061,2.758,1.061s2.094-0.354,2.76-1.061s0.998-1.701,0.998-2.984c0-1.33-0.338-2.34-1.016-3.029
			c-0.678-0.688-1.592-1.033-2.742-1.033s-2.064,0.345-2.74,1.033c-0.678,0.689-1.016,1.699-1.016,3.029
			C35.074,38.469,35.406,39.463,36.072,40.17z M36.398,28.305c0.582,0.6,1.389,0.9,2.424,0.9c1.045,0,1.852-0.301,2.424-0.9
			c0.57-0.599,0.855-1.371,0.855-2.318c0-1.031-0.285-1.836-0.855-2.418c-0.572-0.581-1.379-0.872-2.424-0.872
			c-1.035,0-1.842,0.291-2.424,0.872c-0.584,0.582-0.875,1.387-0.875,2.418C35.523,26.934,35.814,27.706,36.398,28.305z"/>
	</g>
	
		<rect x="2.815" y="29" transform="matrix(-0.7071 -0.7071 0.7071 -0.7071 31.9999 77.2544)" fill="#ED4C5C" width="58.37" height="5.999"/>
</g>
</svg>
