<?xml version="1.0" encoding="utf-8"?>
<!-- Generator: Adobe Illustrator 15.0.0, SVG Export Plug-In . SVG Version: 6.00 Build 0)  -->
<!DOCTYPE svg PUBLIC "-//W3C//DTD SVG 1.1//EN" "http://www.w3.org/Graphics/SVG/1.1/DTD/svg11.dtd">
<svg version="1.1" id="Layer_1" xmlns="http://www.w3.org/2000/svg" xmlns:xlink="http://www.w3.org/1999/xlink" x="0px" y="0px"
	 width="64px" height="64px" viewBox="0 0 64 64" enable-background="new 0 0 64 64" xml:space="preserve">
<g>
	<g>
		<path fill="#D0D0D0" d="M62,52c0,5.523-4.478,10-10,10H12C6.478,62,2,57.523,2,52V12C2,6.477,6.478,2,12,2h40
			c5.522,0,10,4.477,10,10V52z"/>
		<path fill="#FFFFFF" d="M57,45.666C57,50.27,53.269,54,48.667,54H15.333C10.731,54,7,50.27,7,45.666V12.334
			C7,7.73,10.731,4,15.333,4h33.334C53.269,4,57,7.73,57,12.334V45.666z"/>
	</g>
	<g>
		<path fill="#9AA0A5" d="M26,45h-6.107V21.977c-2.232,2.088-4.863,3.631-7.893,4.631v-5.543c1.594-0.521,3.326-1.512,5.195-2.967
			c1.871-1.457,3.152-3.156,3.85-5.098H26V45z"/>
		<path fill="#9AA0A5" d="M41,13c3.281,0,5.848,1.084,7.695,3.25C50.898,18.814,52,23.066,52,29.012
			c0,5.928-1.109,10.188-3.328,12.779C46.84,43.93,44.281,45,41,45c-3.297,0-5.955-1.174-7.973-3.516
			C31.01,39.139,30,34.959,30,28.947c0-5.9,1.109-10.148,3.328-12.74C35.162,14.068,37.719,13,41,13z M41,17.979
			c-0.785,0-1.486,0.232-2.104,0.695c-0.615,0.465-1.094,1.295-1.432,2.492c-0.447,1.551-0.67,4.168-0.67,7.846
			c0,3.676,0.199,6.201,0.6,7.576s0.906,2.291,1.514,2.746c0.609,0.455,1.307,0.684,2.092,0.684s1.486-0.23,2.104-0.691
			c0.615-0.465,1.094-1.295,1.432-2.494c0.447-1.539,0.672-4.145,0.672-7.82c0-3.678-0.201-6.203-0.602-7.58
			c-0.4-1.375-0.904-2.293-1.514-2.758C42.482,18.211,41.785,17.979,41,17.979z"/>
	</g>
</g>
</svg>
