<?xml version="1.0" encoding="utf-8"?>
<!-- Generator: Adobe Illustrator 15.0.0, SVG Export Plug-In . SVG Version: 6.00 Build 0)  -->
<!DOCTYPE svg PUBLIC "-//W3C//DTD SVG 1.1//EN" "http://www.w3.org/Graphics/SVG/1.1/DTD/svg11.dtd">
<svg version="1.1" id="Layer_1" xmlns="http://www.w3.org/2000/svg" xmlns:xlink="http://www.w3.org/1999/xlink" x="0px" y="0px"
	 width="64px" height="64px" viewBox="0 0 64 64" enable-background="new 0 0 64 64" xml:space="preserve">
<g>
	<path fill="#94989B" d="M64,16L48,0v10H6c-3.313,0-6,2.687-6,6s2.687,6,6,6h42v10L64,16z"/>
	<g>
		<path fill="#94989B" d="M8,64c-3.308,0-6-2.848-6-6.347h3c0,1.633,1.346,2.964,3,2.964s3-1.331,3-2.964s-1.346-2.962-3-2.962
			c-3.308,0-6-2.845-6-6.346C2,44.848,4.692,42,8,42s6,2.848,6,6.346h-3c0-1.633-1.346-2.963-3-2.963s-3,1.33-3,2.963
			s1.346,2.963,3,2.963c3.308,0,6,2.846,6,6.345S11.308,64,8,64z"/>
	</g>
	<g>
		<path fill="#94989B" d="M24,64c-3.308,0-6-2.848-6-6.347v-9.308C18,44.848,20.692,42,24,42s6,2.848,6,6.346v9.308
			C30,61.152,27.308,64,24,64z M24,45.383c-1.654,0-3,1.33-3,2.963v9.308c0,1.633,1.346,2.964,3,2.964s3-1.331,3-2.964v-9.308
			C27,46.713,25.654,45.383,24,45.383z"/>
	</g>
	<g>
		<path fill="#94989B" d="M40,64c-3.308,0-6-2.848-6-6.347v-9.308C34,44.848,36.692,42,40,42s6,2.848,6,6.346v9.308
			C46,61.152,43.308,64,40,64z M40,45.383c-1.654,0-3,1.33-3,2.963v9.308c0,1.633,1.346,2.964,3,2.964s3-1.331,3-2.964v-9.308
			C43,46.713,41.654,45.383,40,45.383z"/>
	</g>
	<polygon fill="#94989B" points="53,49.704 58.848,64 62,64 62,42 59,42 59,56.295 53.152,42 50,42 50,64 53,64 	"/>
</g>
</svg>
