<?xml version="1.0" encoding="utf-8"?>
<!-- Generator: Adobe Illustrator 15.0.0, SVG Export Plug-In . SVG Version: 6.00 Build 0)  -->
<!DOCTYPE svg PUBLIC "-//W3C//DTD SVG 1.1//EN" "http://www.w3.org/Graphics/SVG/1.1/DTD/svg11.dtd">
<svg version="1.1" id="Layer_1" xmlns="http://www.w3.org/2000/svg" xmlns:xlink="http://www.w3.org/1999/xlink" x="0px" y="0px"
	 width="64px" height="64px" viewBox="0 0 64 64" enable-background="new 0 0 64 64" xml:space="preserve">
<g>
	<g>
		<path fill="#D19500" d="M44.452,21.507c-0.081-0.082-0.153-0.174-0.215-0.278c-0.378-0.65-0.157-1.483,0.492-1.861
			c6.759-3.934,8.242-7.219,9.551-10.117c1.127-2.495,2.191-4.85,6.166-6.485c0.695-0.286,1.491,0.044,1.776,0.74
			c0.286,0.695-0.046,1.491-0.74,1.776c-2.975,1.225-3.669,2.762-4.722,5.089c-1.403,3.109-3.15,6.977-10.662,11.349
			C45.554,22.038,44.878,21.934,44.452,21.507z"/>
	</g>
	<g>
		<path fill="#FFBF1F" d="M43.726,20.515c-0.043-0.043-0.084-0.089-0.122-0.138c-0.455-0.598-0.339-1.453,0.257-1.908
			c6.293-4.792,7.306-8.158,8.2-11.127c0.772-2.569,1.503-4.996,5.301-7.162c0.653-0.372,1.483-0.149,1.856,0.508
			c0.372,0.652,0.146,1.484-0.508,1.856c-2.854,1.627-3.326,3.201-4.043,5.582c-0.964,3.199-2.161,7.18-9.155,12.508
			C44.963,21.052,44.199,20.989,43.726,20.515z"/>
	</g>
	<g>
		<path fill="#ED4C5C" d="M21.416,64l-0.013-19.729l-19.73-0.013l34.245-34.245c1.814-1.815,4.758-1.814,6.573,0l13.168,13.168
			c1.815,1.815,1.815,4.758,0,6.573L21.416,64z"/>
		<circle fill="#FFFFFF" cx="42.699" cy="22.973" r="4.934"/>
	</g>
	<g>
		<path fill="#F2B200" d="M49.5,12.94c-1.353-0.604-2.344-1.004-3.583-0.588c-1.893,0.634-3.452,2.43-4.635,5.336
			c-0.213,0.522-0.076,1.101,0.299,1.476c0.124,0.125,0.275,0.228,0.449,0.298c0.696,0.282,1.49-0.052,1.773-0.749
			c1.083-2.664,2.217-3.526,2.979-3.782c0.355-0.119,0.447,0.152,0.855,0.228C48.754,14.044,49.5,12.94,49.5,12.94z"/>
		<path fill="#F2B200" d="M53.319,19.755c0.379-1.127,0.127-2.11-0.336-3.332c0,0-0.777,0.803-2.144,1.937
			c-0.013,0.182-0.043,0.359-0.101,0.53c-0.254,0.761-1.117,1.895-3.781,2.978c-0.697,0.283-1.031,1.077-0.748,1.773
			c0.07,0.174,0.173,0.325,0.297,0.449c0.375,0.376,0.953,0.511,1.477,0.299C50.89,23.207,52.687,21.648,53.319,19.755z"/>
	</g>
</g>
</svg>
