<?xml version="1.0" encoding="utf-8"?>
<!-- Generator: Adobe Illustrator 15.0.0, SVG Export Plug-In . SVG Version: 6.00 Build 0)  -->
<!DOCTYPE svg PUBLIC "-//W3C//DTD SVG 1.1//EN" "http://www.w3.org/Graphics/SVG/1.1/DTD/svg11.dtd">
<svg version="1.1" id="Layer_1" xmlns="http://www.w3.org/2000/svg" xmlns:xlink="http://www.w3.org/1999/xlink" x="0px" y="0px"
	 width="64px" height="64px" viewBox="0 0 64 64" enable-background="new 0 0 64 64" xml:space="preserve">
<g>
	<path fill="#94989B" d="M0,16L16,0v10h42c3.314,0,6,2.687,6,6s-2.686,6-6,6H16v10L0,16z"/>
	<path fill="#94989B" d="M14,48.346C14,44.848,11.308,42,8,42H2v22h6c3.308,0,6-2.848,6-6.347c0-1.84-0.748-3.493-1.936-4.653
		C13.252,51.84,14,50.187,14,48.346z M8,60.617H5.125v-5.926H8c1.654,0,3,1.329,3,2.962S9.654,60.617,8,60.617z M8,51.309H5.125
		v-5.926H8c1.654,0,3,1.33,3,2.963S9.654,51.309,8,51.309z"/>
	<path fill="#94989B" d="M40,60.617c-1.654,0-3-1.331-3-2.964v-9.308c0-1.633,1.346-2.963,3-2.963s3,1.33,3,2.963h3
		C46,44.848,43.309,42,40,42c-3.307,0-6,2.848-6,6.346v9.308C34,61.152,36.693,64,40,64c3.309,0,6-2.848,6-6.347h-3
		C43,59.286,41.654,60.617,40,60.617z"/>
	<polygon fill="#94989B" points="62,42 58.848,42 54.963,51.5 53,51.5 53,42 50,42 50,64 53,64 53,54.5 54.963,54.5 58.848,64 
		62,64 57.576,53 	"/>
	<path fill="#94989B" d="M27,64h3l-4-22h-5l-3,22h3l0.826-6.059h4.072L27,64z M22.287,54.559l1.285-9.416l1.711,9.416H22.287z"/>
</g>
</svg>
