<?xml version="1.0" encoding="utf-8"?>
<!-- Generator: Adobe Illustrator 15.0.0, SVG Export Plug-In . SVG Version: 6.00 Build 0)  -->
<!DOCTYPE svg PUBLIC "-//W3C//DTD SVG 1.1//EN" "http://www.w3.org/Graphics/SVG/1.1/DTD/svg11.dtd">
<svg version="1.1" id="Layer_1" xmlns="http://www.w3.org/2000/svg" xmlns:xlink="http://www.w3.org/1999/xlink" x="0px" y="0px"
	 width="64px" height="64px" viewBox="0 0 64 64" enable-background="new 0 0 64 64" xml:space="preserve">
<g>
	<path fill="#94989B" d="M0,16L16,0v10h42c3.313,0,6,2.687,6,6s-2.687,6-6,6H16v10L0,16z"/>
	<g>
		<polygon fill="#94989B" points="22,45.383 22,42 10,42 10,64 22,64 22,60.617 13,60.617 13,54.691 22,54.691 22,51.309 13,51.309 
			13,45.383 		"/>
		<path fill="#94989B" d="M48,42h-6v22h6c3.308,0,6-2.848,6-6.347v-9.308C54,44.848,51.308,42,48,42z M51,57.653
			c0,1.633-1.346,2.964-3,2.964h-3V45.383h3c1.654,0,3,1.33,3,2.963V57.653z"/>
		<polygon fill="#94989B" points="29,49.704 34.848,64 38,64 38,42 35,42 35,56.295 29.152,42 26,42 26,64 29,64 		"/>
	</g>
</g>
</svg>
