<?xml version="1.0" encoding="utf-8"?>
<!-- Generator: Adobe Illustrator 15.0.0, SVG Export Plug-In . SVG Version: 6.00 Build 0)  -->
<!DOCTYPE svg PUBLIC "-//W3C//DTD SVG 1.1//EN" "http://www.w3.org/Graphics/SVG/1.1/DTD/svg11.dtd">
<svg version="1.1" id="Layer_1" xmlns="http://www.w3.org/2000/svg" xmlns:xlink="http://www.w3.org/1999/xlink" x="0px" y="0px"
	 width="64px" height="64px" viewBox="0 0 64 64" enable-background="new 0 0 64 64" xml:space="preserve">
<g>
	<g>
		<path fill="#FFCE31" d="M2,28.262v31.433C2,62.072,3.919,64,6.285,64h51.43C60.081,64,62,62.072,62,59.694V28.262H2z"/>
		<path fill="#FF8736" d="M62,23.956c0-2.378-1.919-4.306-4.285-4.306H6.285C3.919,19.65,2,21.578,2,23.956v4.306h60V23.956z"/>
		<g>
			<ellipse fill="#3E4347" cx="12.367" cy="23.528" rx="5.92" ry="2.503"/>
			<ellipse fill="#3E4347" cx="51.633" cy="23.528" rx="5.92" ry="2.503"/>
		</g>
		<path fill="#3E4347" d="M36.609,56.4l-1.913-12.262c1.13-0.834,1.866-2.176,1.866-3.693c0-2.531-2.044-4.584-4.563-4.584
			s-4.562,2.053-4.562,4.584c0,1.518,0.736,2.859,1.866,3.693L27.391,56.4H36.609z"/>
	</g>
	<g>
		<path fill="#DFE9EF" d="M32,0c-5.588,0-10.725,1.98-14.755,5.275l2.902,2.902c3.3-2.694,7.403-4.303,11.853-4.303
			c10.365,0,18.88,8.682,19.634,19.653h0.001v1.419c2.204,0,3.784-0.636,3.784-1.419C55.419,10.555,44.912,0,32,0z"/>
		<path fill="#B0BDC6" d="M51.634,23.528C50.88,12.557,42.365,3.875,32,3.875c-4.449,0-8.553,1.608-11.853,4.303l2.825,2.825
			c2.428-1.831,5.475-3,9.027-3c9.547,0,15.455,8.423,15.455,15.525c0,0.783,1.973,1.419,4.18,1.419L51.634,23.528L51.634,23.528z"
			/>
	</g>
</g>
</svg>
