<?xml version="1.0" encoding="utf-8"?>
<!-- Generator: Adobe Illustrator 15.0.0, SVG Export Plug-In . SVG Version: 6.00 Build 0)  -->
<!DOCTYPE svg PUBLIC "-//W3C//DTD SVG 1.1//EN" "http://www.w3.org/Graphics/SVG/1.1/DTD/svg11.dtd">
<svg version="1.1" id="Layer_1" xmlns="http://www.w3.org/2000/svg" xmlns:xlink="http://www.w3.org/1999/xlink" x="0px" y="0px"
	 width="64px" height="64px" viewBox="0 0 64 64" enable-background="new 0 0 64 64" xml:space="preserve">
<g>
	<path fill="#94989B" d="M32,0L16,16h10v10c0,3.313,2.687,6,6,6s6-2.687,6-6V16h10L32,0z"/>
	<g>
		<path fill="#94989B" d="M32,64c-3.308,0-6-2.848-6-6.347v-9.308C26,44.848,28.692,42,32,42s6,2.848,6,6.346v9.308
			C38,61.152,35.308,64,32,64z M32,45.383c-1.654,0-3,1.33-3,2.963v9.308c0,1.633,1.346,2.964,3,2.964s3-1.331,3-2.964v-9.308
			C35,46.713,33.654,45.383,32,45.383z"/>
	</g>
	<polygon fill="#94989B" points="22,42 10,42 10,45 14.5,45 14.5,64 17.5,64 17.5,45 22,45 	"/>
	<path fill="#94989B" d="M48,42h-6v22h3v-9.309h3c3.308,0,6-2.848,6-6.347S51.308,42,48,42z M48,51.309h-3v-5.926h3
		c1.654,0,3,1.329,3,2.962S49.654,51.309,48,51.309z"/>
</g>
</svg>
