<?xml version="1.0" encoding="utf-8"?>
<!-- Generator: Adobe Illustrator 15.0.0, SVG Export Plug-In . SVG Version: 6.00 Build 0)  -->
<!DOCTYPE svg PUBLIC "-//W3C//DTD SVG 1.1//EN" "http://www.w3.org/Graphics/SVG/1.1/DTD/svg11.dtd">
<svg version="1.1" id="Layer_1" xmlns="http://www.w3.org/2000/svg" xmlns:xlink="http://www.w3.org/1999/xlink" x="0px" y="0px"
	 width="64px" height="64px" viewBox="0 0 64 64" enable-background="new 0 0 64 64" xml:space="preserve">
<g>
	<polygon fill="#94989B" points="64,16 48,0 48,10 16,10 16,0 0,16 16,32 16,22 48,22 48,32 	"/>
	<g>
		<path fill="#94989B" d="M20.001,64c-3.308,0-6-2.848-6-6.347v-9.308c0-3.498,2.692-6.346,6-6.346c3.307,0,6,2.848,6,6.346v9.308
			C26.001,61.152,23.308,64,20.001,64z M20.001,45.383c-1.655,0-3,1.33-3,2.963v9.308c0,1.633,1.346,2.964,3,2.964
			c1.654,0,3-1.331,3-2.964v-9.308C23.001,46.713,21.655,45.383,20.001,45.383z"/>
	</g>
	<polygon fill="#94989B" points="33.001,49.704 38.848,64 42,64 42,42 39,42 39,56.295 33.153,42 30.001,42 30.001,64 33.001,64 	
		"/>
	<rect x="46" y="60" fill="#94989B" width="4" height="4"/>
	<g>
		<polygon fill="#94989B" points="50,42 46,42 46.736,56 49.264,56 		"/>
	</g>
</g>
</svg>
