<?xml version="1.0" encoding="utf-8"?>
<!-- Generator: Adobe Illustrator 15.0.0, SVG Export Plug-In . SVG Version: 6.00 Build 0)  -->
<!DOCTYPE svg PUBLIC "-//W3C//DTD SVG 1.1//EN" "http://www.w3.org/Graphics/SVG/1.1/DTD/svg11.dtd">
<svg version="1.1" id="Layer_1" xmlns="http://www.w3.org/2000/svg" xmlns:xlink="http://www.w3.org/1999/xlink" x="0px" y="0px"
	 width="64px" height="64px" viewBox="0 0 64 64" enable-background="new 0 0 64 64" xml:space="preserve">
<g>
	<polygon fill="#3E4347" points="28.792,21.93 23.21,27.685 17.662,21.962 23.242,16.207 	"/>
	<g>
		<path fill="#94989B" d="M16.716,5.068L6.863,15.231c-0.361,0.372-0.361,0.975,0,1.347l3.664,3.78l0.043,0.046l3.666,3.78
			c0.359,0.372,0.945,0.372,1.305,0l9.855-10.165c0.359-0.371,0.359-0.974,0-1.346l-7.375-7.605
			C17.66,4.696,17.078,4.696,16.716,5.068z"/>
		<path fill="#94989B" d="M0.271,22.03c-0.361,0.372-0.361,0.975,0,1.347l7.375,7.606c0.357,0.372,0.943,0.372,1.305,0
			c0,0,2.033-2.122,2.076-2.177L2.38,19.887C2.328,19.933,0.271,22.03,0.271,22.03z"/>
		<path fill="#3E4347" d="M10.527,20.358l-3.664-3.78c0,0,1.205,2.11-1.959,2.49c-1.273,0.153-2.07,0.441-2.523,0.819l8.646,8.919
			c0.367-0.468,0.646-1.289,0.793-2.604c0.371-3.265,2.416-2.019,2.416-2.019l-3.666-3.78L10.527,20.358z"/>
	</g>
	<path fill="#3E4347" d="M39.573,4.288C29.513-6.007,18.412,5.471,18.412,5.471l6.543,6.746c0,0,6.289-8.465,14.242-6.124
		c0.924,0.272,1.746,0.74,1.98,0.501C41.493,6.268,40.282,5.015,39.573,4.288z"/>
	<path fill="#F2B200" d="M26,24.807l-3.607,3.724c0,0,1.863,3,5.063,6.297c3.529,3.642,8.193,5.684,12.851,10.488
		c7.006,7.227,12.836,14.985,14.949,17.898c0.797,1.099,0.924,0.996,1.898-0.01l3.039-3.133L26,24.807z"/>
	<path fill="#FFCE31" d="M26,24.807l3.611-3.723c0,0,2.908,1.923,6.105,5.222c3.531,3.64,5.512,8.452,10.17,13.256
		c7.006,7.227,14.529,13.238,17.354,15.417c1.064,0.823,0.965,0.953-0.01,1.96l-3.037,3.133L26,24.807z"/>
</g>
</svg>
