<?xml version="1.0" encoding="utf-8"?>
<!-- Generator: Adobe Illustrator 15.0.0, SVG Export Plug-In . SVG Version: 6.00 Build 0)  -->
<!DOCTYPE svg PUBLIC "-//W3C//DTD SVG 1.1//EN" "http://www.w3.org/Graphics/SVG/1.1/DTD/svg11.dtd">
<svg version="1.1" id="Layer_1" xmlns="http://www.w3.org/2000/svg" xmlns:xlink="http://www.w3.org/1999/xlink" x="0px" y="0px"
	 width="64px" height="64px" viewBox="0 0 64 64" enable-background="new 0 0 64 64" xml:space="preserve">
<g>
	<rect x="6.334" y="37.583" fill="#333333" width="17.352" height="1.716"/>
	<rect x="6.334" y="35.867" fill="#29ABE2" width="17.352" height="1.716"/>
	<path fill="#94989B" d="M34.783,45.474c-1.577,0-3.875,0-7.224,0c-9.182,0-9.442-6.179-9.442-6.179h-6.905
		c0,0,0.895,12.354,13.961,12.354h9.61V45.474z"/>
	<path fill="#94989B" d="M34.937,44.783h7.668c5.144-11.645-1.692-26.23-1.841-26.524l-6.144,3.11
		C34.65,21.428,39.65,35.946,34.937,44.783z"/>
	<path fill="#333333" d="M46.569,47.972l-0.008-0.023l0,0c-1.573-4.991-6.249-8.613-11.778-8.653
		c-5.527,0.04-10.205,3.662-11.78,8.653l0,0l-0.008,0.023L17.426,64h34.711L46.569,47.972z"/>
	<polygon fill="#333333" points="19.501,26.727 45.685,4.455 52.43,12.299 26.25,34.567 	"/>
	<polygon fill="#94989B" points="25.011,33.131 20.741,28.163 18.703,30.804 22.079,34.725 	"/>
	<polygon fill="#94989B" points="53.811,8.632 49.54,3.666 46.921,5.894 51.195,10.859 	"/>
	<polygon fill="#333333" points="55.05,10.07 48.302,2.227 50.921,0 57.666,7.842 	"/>
	
		<ellipse transform="matrix(0.9429 0.3331 -0.3331 0.9429 9.9022 -11.5817)" fill="#D0D0D0" cx="38.732" cy="23.092" rx="6.908" ry="6.865"/>
	<ellipse fill="#D0D0D0" cx="34.784" cy="51.648" rx="6.908" ry="6.863"/>
	<g>
		
			<ellipse transform="matrix(-0.333 0.9429 -0.9429 -0.333 73.4061 -5.7353)" fill="#333333" cx="38.731" cy="23.094" rx="3.434" ry="3.455"/>
		<ellipse fill="#333333" cx="34.783" cy="51.648" rx="3.455" ry="3.432"/>
	</g>
</g>
</svg>
