<?xml version="1.0" encoding="utf-8"?>
<!-- Generator: Adobe Illustrator 15.0.0, SVG Export Plug-In . SVG Version: 6.00 Build 0)  -->
<!DOCTYPE svg PUBLIC "-//W3C//DTD SVG 1.1//EN" "http://www.w3.org/Graphics/SVG/1.1/DTD/svg11.dtd">
<svg version="1.1" id="Layer_1" xmlns="http://www.w3.org/2000/svg" xmlns:xlink="http://www.w3.org/1999/xlink" x="0px" y="0px"
	 width="64px" height="64px" viewBox="0 0 64 64" enable-background="new 0 0 64 64" xml:space="preserve">
<g>
	<circle fill="#42ADE2" cx="32" cy="32" r="30"/>
	<g>
		<path fill="#FFFFFF" d="M19.357,25.377L18.109,30H14l5.357-18h5.205L30,30h-4.266l-1.352-4.623H19.357z M23.809,22.336
			l-1.094-3.818c-0.313-1.07-0.623-2.402-0.885-3.472h-0.051c-0.26,1.069-0.521,2.431-0.809,3.472l-1.041,3.818H23.809z"/>
	</g>
	<g>
		<path fill="#FFFFFF" d="M36,12.367C36.963,12.156,38.904,12,40.729,12c2.232,0,3.6,0.235,4.773,0.998
			c1.131,0.654,1.943,1.859,1.943,3.462c0,1.576-0.84,3.042-2.662,3.776v0.056c1.85,0.55,3.217,2.073,3.217,4.355
			c0,1.601-0.674,2.86-1.682,3.751C45.146,29.422,43.178,30,39.961,30c-1.801,0-3.143-0.131-3.961-0.262V12.367z M39.627,19.137
			h1.195c1.922,0,2.953-0.866,2.953-2.176c0-1.34-0.934-2.048-2.59-2.048c-0.793,0-1.25,0.053-1.559,0.105V19.137z M39.627,26.984
			c0.359,0.052,0.787,0.052,1.412,0.052c1.658,0,3.123-0.685,3.123-2.546c0-1.785-1.465-2.492-3.289-2.492h-1.246V26.984z"/>
	</g>
	<g>
		<path fill="#FFFFFF" d="M27.307,51.25C26.623,51.61,25.092,52,23.094,52c-5.672,0-8.594-3.756-8.594-8.729
			c0-5.955,3.994-9.271,8.959-9.271c1.926,0,3.383,0.416,4.041,0.777l-0.754,3.135c-0.754-0.338-1.803-0.647-3.115-0.647
			c-2.947,0-5.236,1.89-5.236,5.774c0,3.495,1.949,5.699,5.26,5.699c1.121,0,2.361-0.26,3.092-0.571L27.307,51.25z"/>
	</g>
	<g>
		<path fill="#FFFFFF" d="M36,34.367C37.318,34.133,39.031,34,40.838,34c3.008,0,4.957,0.604,6.484,1.891
			C48.965,37.254,50,39.432,50,42.552c0,3.384-1.104,5.722-2.633,7.165C45.701,51.264,43.166,52,40.064,52
			c-1.855,0-3.17-0.131-4.064-0.265V34.367z M39.596,48.795c0.307,0.082,0.799,0.082,1.242,0.082
			c3.242,0.025,5.357-1.969,5.357-6.191c0.023-3.673-1.904-5.615-4.98-5.615c-0.797,0-1.313,0.078-1.619,0.158V48.795z"/>
	</g>
</g>
</svg>
