<?xml version="1.0" encoding="utf-8"?>
<!-- Generator: Adobe Illustrator 15.0.0, SVG Export Plug-In . SVG Version: 6.00 Build 0)  -->
<!DOCTYPE svg PUBLIC "-//W3C//DTD SVG 1.1//EN" "http://www.w3.org/Graphics/SVG/1.1/DTD/svg11.dtd">
<svg version="1.1" id="Layer_1" xmlns="http://www.w3.org/2000/svg" xmlns:xlink="http://www.w3.org/1999/xlink" x="0px" y="0px"
	 width="64px" height="64px" viewBox="0 0 64 64" enable-background="new 0 0 64 64" xml:space="preserve">
<g>
	<path fill="#3E4347" d="M24.373,39.627C16.817,32.07,7.651,28.964,3.76,32.6c5.217-5.042,12.546-6.609,19.076-4.705L48.732,2
		c3.048,0.891,5.923,2.536,8.327,4.94c2.402,2.404,4.05,5.278,4.94,8.327L36.104,41.16c1.906,6.532,0.339,13.86-4.704,19.079
		C35.034,56.348,31.929,47.183,24.373,39.627z"/>
	<path fill="#676E72" d="M24.373,39.626c-5.658-5.66-13.284-7.226-17.142-3.559c5.196-5.064,11.801-7.354,17.272-6.509L50.398,3.664
		c2.554,0.396,4.861,1.475,6.661,3.275s2.878,4.107,3.273,6.661L34.438,39.494c0.846,5.473-1.443,12.078-6.507,17.274
		C31.596,52.908,30.032,45.284,24.373,39.626z"/>
	<path fill="#FEF500" d="M10.548,53.453C2.938,45.845-0.162,36.6,3.596,32.756c0.053-0.054,0.11-0.104,0.165-0.156
		c3.891-3.635,13.057-0.53,20.612,7.027c7.557,7.556,10.662,16.721,7.027,20.612c-0.053,0.054-0.103,0.109-0.156,0.164
		C27.401,64.16,18.156,61.063,10.548,53.453z"/>
	<path fill="#FFF7AB" d="M17.125,46.875c-3.662-3.662-5.154-8.111-3.345-9.962c0.026-0.024,0.051-0.049,0.079-0.075
		c1.872-1.749,6.282-0.254,9.921,3.384c3.634,3.636,5.13,8.046,3.382,9.918c-0.027,0.027-0.051,0.054-0.077,0.079
		C25.235,52.027,20.785,50.536,17.125,46.875z"/>
	<path fill="#FFFFFF" d="M17.909,46.091c-1.714-1.715-2.413-3.799-1.567-4.665c0.013-0.013,0.024-0.023,0.037-0.035
		c0.877-0.819,2.942-0.12,4.647,1.584c1.703,1.702,2.402,3.767,1.583,4.646c-0.013,0.012-0.023,0.024-0.035,0.037
		C21.707,48.503,19.625,47.806,17.909,46.091z"/>
	
		<rect x="28.539" y="14.864" transform="matrix(-0.7072 0.707 -0.707 -0.7072 67.4022 4.3549)" fill="#3E4347" width="8.52" height="2.541"/>
	
		<rect x="30.847" y="14.43" transform="matrix(-0.7071 0.7072 -0.7072 -0.7071 67.8356 3.2996)" fill="#676E72" width="4.775" height="2.542"/>
</g>
</svg>
