<?xml version="1.0" encoding="utf-8"?>
<!-- Generator: Adobe Illustrator 15.0.0, SVG Export Plug-In . SVG Version: 6.00 Build 0)  -->
<!DOCTYPE svg PUBLIC "-//W3C//DTD SVG 1.1//EN" "http://www.w3.org/Graphics/SVG/1.1/DTD/svg11.dtd">
<svg version="1.1" id="Layer_1" xmlns="http://www.w3.org/2000/svg" xmlns:xlink="http://www.w3.org/1999/xlink" x="0px" y="0px"
	 width="64px" height="64px" viewBox="0 0 64 64" enable-background="new 0 0 64 64" xml:space="preserve">
<g>
	<circle fill="#42ADE2" cx="32" cy="32" r="30"/>
	<path fill="#FFFFFF" d="M23.934,27.742l-0.2-1.151h-0.067C22.949,27.508,21.831,28,20.534,28C18.32,28,17,26.31,17,24.479
		c0-2.982,2.551-4.416,6.42-4.392v-0.164c0-0.61-0.313-1.481-1.99-1.481c-1.119,0-2.306,0.4-3.021,0.871l-0.626-2.305
		c0.76-0.442,2.258-1.008,4.25-1.008c3.646,0,4.809,2.255,4.809,4.955v3.993c0,1.104,0.046,2.16,0.158,2.794H23.934z M23.531,22.316
		c-1.788-0.025-3.177,0.425-3.177,1.808c0,0.918,0.583,1.364,1.343,1.364c0.851,0,1.544-0.587,1.768-1.316
		c0.044-0.188,0.066-0.398,0.066-0.611V22.316z"/>
	<path fill="#FFFFFF" d="M37,28.785c0.039-0.621,0.08-1.767,0.08-2.834V15h2.991v5.417h0.039c0.57-0.817,1.574-1.341,2.913-1.341
		c2.303,0,3.995,1.885,3.977,4.797C47,27.291,44.795,29,42.591,29c-1.122,0-2.204-0.408-2.894-1.534h-0.04l-0.118,1.319H37z
		 M40.071,24.747c0,0.194,0.02,0.369,0.058,0.523c0.196,0.798,0.887,1.399,1.752,1.399c1.281,0,2.068-0.973,2.068-2.68
		c0-1.477-0.67-2.643-2.068-2.643c-0.808,0-1.556,0.604-1.752,1.458c-0.038,0.175-0.058,0.349-0.058,0.543V24.747z"/>
	<path fill="#FFFFFF" d="M46.919,35v10.953c0,1.066,0.039,2.194,0.081,2.834h-2.669l-0.14-1.396h-0.04
		C43.54,48.457,42.373,49,41.13,49C38.838,49,37,47.077,37,44.125c-0.019-3.203,2.016-5.047,4.328-5.047
		c1.185,0,2.112,0.406,2.549,1.065h0.039V35H46.919z M43.916,43.311c0-0.154-0.02-0.37-0.039-0.525
		c-0.179-0.793-0.829-1.457-1.759-1.457c-1.361,0-2.075,1.205-2.075,2.699c0,1.615,0.812,2.625,2.057,2.625
		c0.867,0,1.561-0.584,1.736-1.417c0.061-0.217,0.08-0.429,0.08-0.683V43.311z"/>
	<path fill="#FFFFFF" d="M25.976,47.481C25.432,47.765,24.402,48,23.23,48C20.041,48,18,45.74,18,42.117
		C18,38.753,19.979,36,23.657,36c0.808,0,1.693,0.164,2.343,0.447l-0.488,2.659c-0.363-0.189-0.907-0.354-1.714-0.354
		c-1.615,0-2.666,1.343-2.645,3.224c0,2.117,1.21,3.222,2.705,3.222c0.726,0,1.29-0.141,1.755-0.351L25.976,47.481z"/>
</g>
</svg>
