<?xml version="1.0" encoding="utf-8"?>
<!-- Generator: Adobe Illustrator 15.0.0, SVG Export Plug-In . SVG Version: 6.00 Build 0)  -->
<!DOCTYPE svg PUBLIC "-//W3C//DTD SVG 1.1//EN" "http://www.w3.org/Graphics/SVG/1.1/DTD/svg11.dtd">
<svg version="1.1" id="Layer_1" xmlns="http://www.w3.org/2000/svg" xmlns:xlink="http://www.w3.org/1999/xlink" x="0px" y="0px"
	 width="64px" height="64px" viewBox="0 0 64 64" enable-background="new 0 0 64 64" xml:space="preserve">
<g>
	<g>
		<g>
			<ellipse fill="#AB8165" cx="32" cy="53.809" rx="26" ry="8.191"/>
			<g>
				<g>
					<g>
						<path fill="#725944" d="M57.818,52.853c-0.002,3.488-11.56,6.314-25.818,6.314c-14.258,0-25.816-2.826-25.818-6.314
							C6.066,53.168,6,53.485,6,53.809C6,58.333,17.641,62,32,62c14.36,0,26-3.667,26-8.191C58,53.485,57.935,53.168,57.818,52.853z
							"/>
					</g>
				</g>
			</g>
		</g>
		<g>
			<ellipse fill="#AB8165" cx="32" cy="49.337" rx="21.937" ry="6.913"/>
			<g>
				<g>
					<g>
						<path fill="#725944" d="M53.785,48.531C53.783,51.475,44.03,53.858,32,53.858c-12.031,0-21.783-2.384-21.785-5.327
							c-0.098,0.264-0.152,0.533-0.152,0.806c0,3.818,9.822,6.913,21.937,6.913s21.936-3.095,21.936-6.913
							C53.937,49.064,53.883,48.795,53.785,48.531z"/>
					</g>
				</g>
			</g>
		</g>
		<g>
			<ellipse fill="#AB8165" cx="32" cy="44.866" rx="17.875" ry="5.632"/>
			<g>
				<g>
					<g>
						<path fill="#725944" d="M49.75,44.209c0,2.398-7.947,4.341-17.75,4.341c-9.803,0-17.75-1.942-17.75-4.341
							c-0.08,0.216-0.125,0.436-0.125,0.657c0,3.11,8.003,5.632,17.875,5.632c9.872,0,17.875-2.521,17.875-5.632
							C49.875,44.645,49.83,44.425,49.75,44.209z"/>
					</g>
				</g>
			</g>
		</g>
	</g>
	<g>
		<ellipse fill="#9D6BD1" cx="32" cy="24.235" rx="22.958" ry="22.236"/>
		<g>
			<g>
				<path fill="#FFFFFF" d="M22.829,2.12c0,6.375-3.417,12.078-8.236,12.078c4.819,0,8.236,5.705,8.236,12.079
					c0-6.375,3.418-12.079,8.237-12.079C26.248,14.198,22.829,8.494,22.829,2.12z"/>
			</g>
		</g>
		<g>
			<g>
				<path fill="#FFFFFF" d="M18.024,24.028c0,3.455-1.853,6.545-4.462,6.545c2.609,0,4.462,3.089,4.462,6.543
					c0-3.454,1.852-6.543,4.462-6.543C19.875,30.573,18.024,27.482,18.024,24.028z"/>
			</g>
		</g>
		<g>
			<g>
				<path fill="#FFFFFF" d="M29.776,19.223c0,2.996-1.605,5.675-3.87,5.675c2.265,0,3.87,2.68,3.87,5.675
					c0-2.995,1.605-5.675,3.87-5.675C31.382,24.898,29.776,22.218,29.776,19.223z"/>
			</g>
		</g>
	</g>
</g>
</svg>
