<?xml version="1.0" encoding="utf-8"?>
<!-- Generator: Adobe Illustrator 15.0.0, SVG Export Plug-In . SVG Version: 6.00 Build 0)  -->
<!DOCTYPE svg PUBLIC "-//W3C//DTD SVG 1.1//EN" "http://www.w3.org/Graphics/SVG/1.1/DTD/svg11.dtd">
<svg version="1.1" id="Layer_1" xmlns="http://www.w3.org/2000/svg" xmlns:xlink="http://www.w3.org/1999/xlink" x="0px" y="0px"
	 width="64px" height="64px" viewBox="0 0 64 64" enable-background="new 0 0 64 64" xml:space="preserve">
<g>
	<circle fill="#42ADE2" cx="32" cy="32" r="30"/>
	<g>
		<path fill="#FFFFFF" d="M18.052,40.704l-0.205-1.325h-0.067C17.051,40.431,15.913,41,14.595,41C12.343,41,11,39.055,11,36.945
			c0-3.428,2.593-5.077,6.529-5.051v-0.189c0-0.705-0.318-1.703-2.023-1.703c-1.14,0-2.345,0.459-3.072,0.998l-0.638-2.645
			c0.774-0.515,2.298-1.164,4.322-1.164c3.709,0,4.893,2.594,4.893,5.701v4.593c0,1.271,0.045,2.487,0.157,3.219H18.052z
			 M17.643,34.459c-1.818-0.025-3.229,0.489-3.229,2.082c0,1.053,0.591,1.564,1.364,1.564c0.865,0,1.571-0.671,1.797-1.512
			c0.044-0.215,0.068-0.457,0.068-0.701V34.459z"/>
		<path fill="#FFFFFF" d="M28.519,40.481c0.038-0.786,0.08-2.24,0.08-3.595V23h3.042v6.869h0.039
			c0.582-1.034,1.603-1.699,2.961-1.699c2.346,0,4.066,2.389,4.046,6.083c0,4.333-2.243,6.501-4.484,6.501
			c-1.14,0-2.242-0.519-2.942-1.945h-0.038l-0.121,1.673H28.519z M31.641,35.36c0,0.246,0.02,0.468,0.06,0.665
			c0.2,1.01,0.901,1.773,1.781,1.773c1.301,0,2.103-1.233,2.103-3.398c0-1.871-0.681-3.348-2.103-3.348
			c-0.818,0-1.581,0.762-1.781,1.846c-0.04,0.223-0.06,0.442-0.06,0.689V35.36z"/>
		<path fill="#FFFFFF" d="M52.978,40.404C52.424,40.73,51.375,41,50.186,41c-3.244,0-5.319-2.597-5.319-6.769
			c0-3.873,2.014-7.04,5.751-7.04c0.82,0,1.724,0.19,2.383,0.514l-0.494,3.063c-0.37-0.219-0.922-0.409-1.746-0.409
			c-1.643,0-2.713,1.545-2.69,3.712c0,2.435,1.233,3.709,2.752,3.709c0.741,0,1.314-0.164,1.783-0.406L52.978,40.404z"/>
	</g>
</g>
</svg>
