<?xml version="1.0" encoding="utf-8"?>
<!-- Generator: Adobe Illustrator 15.0.0, SVG Export Plug-In . SVG Version: 6.00 Build 0)  -->
<!DOCTYPE svg PUBLIC "-//W3C//DTD SVG 1.1//EN" "http://www.w3.org/Graphics/SVG/1.1/DTD/svg11.dtd">
<svg version="1.1" id="Layer_1" xmlns="http://www.w3.org/2000/svg" xmlns:xlink="http://www.w3.org/1999/xlink" x="0px" y="0px"
	 width="64px" height="64px" viewBox="0 0 64 64" enable-background="new 0 0 64 64" xml:space="preserve">
<g>
	<g>
		<polygon fill="#333333" points="16.764,62.001 18.582,62.001 19.52,59.781 17.603,59.781 		"/>
		<polygon fill="#333333" points="44.488,59.781 45.42,62.001 47.234,62.001 46.4,59.781 		"/>
		<path fill="#CAD5DD" d="M35.602,30.178l-7.156,0.062L17.603,59.781h1.917l11.426-27.878c0.338,0.086,0.691,0.13,1.055,0.13
			c0.386,0,0.758-0.051,1.115-0.145l11.373,27.893H46.4L35.602,30.178z"/>
	</g>
	<g>
		<polygon fill="#CAD5DD" points="33.553,24.287 30.527,24.287 31.217,59.781 32.866,59.781 		"/>
		<polygon fill="#333333" points="31.217,59.781 31.258,62.001 32.825,62.001 32.866,59.781 		"/>
	</g>
	<ellipse fill="#333333" cx="31.999" cy="27.625" rx="5.143" ry="5.137"/>
	<circle fill="#FFFFFF" cx="31.999" cy="27.625" r="3.789"/>
	<path fill="#333333" d="M26.147,5.47c-0.351-0.128-0.71,0.062-0.801,0.424l-1.278,5.148c-0.09,0.362,0.136,0.722,0.5,0.799
		l10.085,2.15c0.364,0.078,0.737-0.155,0.827-0.516l0.877-3.533c0.09-0.361-0.123-0.763-0.473-0.892L26.147,5.47z"/>
	<path fill="#333333" d="M26,18.71c-0.45-0.165-0.912,0.08-1.029,0.546l-1.644,6.621c-0.115,0.466,0.174,0.928,0.643,1.028
		l12.97,2.766c0.469,0.1,0.947-0.199,1.063-0.664l1.128-4.544c0.116-0.465-0.158-0.98-0.607-1.146L26,18.71z"/>
	<polygon fill="#DFE9EF" points="43.09,16.335 40.309,27.536 58.934,32.014 61.295,22.503 	"/>
	<path fill="#333333" d="M57.504,16.942c-0.504-0.114-1.016,0.202-1.137,0.702l-1.098,4.475c-0.121,0.5-0.636,0.827-1.141,0.726
		l-3.166-0.632c-0.506-0.101-1.053,0.216-1.215,0.706l-0.48,1.444c-0.163,0.489,0.116,0.98,0.62,1.092l6.571,1.458
		c0.504,0.112,1.01-0.208,1.125-0.71l1.803-7.874c0.114-0.502-0.203-1.006-0.706-1.12L57.504,16.942z"/>
	<polygon fill="#DFE9EF" points="11.07,2.887 6.346,21.91 39.928,29.069 43.471,14.802 	"/>
	<path fill="#333333" d="M43.471,14.802l-2.164-0.795c1.218,0.352,1.371,3.99,0.393,7.929c-0.979,3.94-2.799,7.007-4.016,6.655
		l2.244,0.479c1.218,0.351,2.996-2.557,3.975-6.497C44.881,18.632,44.688,15.154,43.471,14.802z"/>
	<path fill="#333333" d="M11.07,2.887L8.133,2.039c-1.623-0.469-3.996,3.408-5.301,8.66c-1.305,5.254-1.047,9.892,0.576,10.361
		l2.938,0.85c1.623,0.468,3.996-3.409,5.301-8.662C12.95,7.996,12.693,3.357,11.07,2.887z"/>
	<path fill="#29ABE2" d="M8.711,12.384c1.093-4.401,1.085-8.361,0.101-9.808c-1.551,0.558-3.479,4.069-4.609,8.616
		c-1.094,4.402-1.086,8.361-0.103,9.809C5.652,20.442,7.581,16.931,8.711,12.384z"/>
	<path fill="#333333" d="M61.295,22.503l-1.703-0.577c0.811,0.234,1.057,2.672,0.404,5.298c-0.652,2.627-1.996,4.605-2.807,4.37
		l1.744,0.42c0.811,0.234,1.998-1.705,2.65-4.33C62.236,25.057,62.107,22.737,61.295,22.503z"/>
	<circle fill="#333333" cx="46.791" cy="20.483" r="0.86"/>
</g>
</svg>
