<?xml version="1.0" encoding="utf-8"?>
<!-- Generator: Adobe Illustrator 15.0.0, SVG Export Plug-In . SVG Version: 6.00 Build 0)  -->
<!DOCTYPE svg PUBLIC "-//W3C//DTD SVG 1.1//EN" "http://www.w3.org/Graphics/SVG/1.1/DTD/svg11.dtd">
<svg version="1.1" id="Layer_1" xmlns="http://www.w3.org/2000/svg" xmlns:xlink="http://www.w3.org/1999/xlink" x="0px" y="0px"
	 width="64px" height="64px" viewBox="0 0 64 64" enable-background="new 0 0 64 64" xml:space="preserve">
<g>
	<g>
		<g>
			<polygon fill="#B6C0C6" points="58.737,63.999 64,64 64,60.64 			"/>
			<polygon fill="#B6C0C6" points="63.54,54.192 18.41,9.092 9.07,18.429 53.511,62.841 52.14,61.469 			"/>
			<polygon fill="#7A8891" points="64,54.638 63.549,54.187 63.54,54.192 64,54.653 			"/>
			<polygon fill="#7A8891" points="53.511,62.841 54.671,64 54.671,64 			"/>
			<polygon fill="#7A8891" points="58.737,63.999 64,60.64 64,54.653 63.54,54.192 52.14,61.469 53.511,62.841 54.671,64 			"/>
		</g>
		<polygon fill="#7A8891" points="55.304,45.968 43.901,53.251 48.013,57.36 59.421,50.081 		"/>
		<polygon fill="#7A8891" points="47.066,37.746 35.658,45.026 39.776,49.144 51.182,41.858 		"/>
		<polygon fill="#7A8891" points="30.614,21.278 19.204,28.558 23.322,32.672 34.728,25.39 		"/>
		<polygon fill="#7A8891" points="38.836,29.51 27.431,36.795 31.546,40.909 42.955,33.627 		"/>
		<polygon fill="#7A8891" points="22.384,13.039 10.978,20.324 15.092,24.438 26.505,17.157 		"/>
	</g>
	<g>
		<polygon fill="#4F585B" points="7.053,17.863 0,24.91 10.974,35.875 18.023,28.831 		"/>
		<polygon fill="#8B979E" points="17.88,7.04 7.053,17.863 18.023,28.831 28.851,18.007 		"/>
		<polygon fill="#CEDAE0" points="24.925,0 17.88,7.04 28.851,18.007 35.897,10.964 		"/>
	</g>
	<g>
		<polygon fill="#4F585B" points="28.329,39.135 21.281,46.179 32.256,57.145 39.301,50.104 		"/>
		<polygon fill="#8B979E" points="39.157,28.313 28.329,39.135 39.301,50.104 50.129,39.281 		"/>
		<polygon fill="#CEDAE0" points="46.207,21.269 39.157,28.313 50.129,39.281 57.179,32.236 		"/>
	</g>
</g>
</svg>
