<?xml version="1.0" encoding="utf-8"?>
<!-- Generator: Adobe Illustrator 15.0.0, SVG Export Plug-In . SVG Version: 6.00 Build 0)  -->
<!DOCTYPE svg PUBLIC "-//W3C//DTD SVG 1.1//EN" "http://www.w3.org/Graphics/SVG/1.1/DTD/svg11.dtd">
<svg version="1.1" id="Layer_1" xmlns="http://www.w3.org/2000/svg" xmlns:xlink="http://www.w3.org/1999/xlink" x="0px" y="0px"
	 width="64px" height="64px" viewBox="0 0 64 64" enable-background="new 0 0 64 64" xml:space="preserve">
<g>
	<g>
		<circle fill="#42ADE2" cx="32" cy="32" r="30"/>
	</g>
	<g>
		<rect x="14" y="14" fill="#FFFFFF" width="16" height="4"/>
	</g>
	<polygon fill="#FFFFFF" points="14,22 14,26 20,26 20,30 24,30 24,26 30,26 30,22 	"/>
	<g>
		<g>
			<path fill="#FFFFFF" d="M49.521,18.986c-0.322-0.488-0.736-0.882-1.195-1.231c-0.131-0.1-0.197-0.146-0.33-0.239l-0.267-0.213
				c-0.172-0.145-0.332-0.291-0.482-0.438c-0.597-0.595-0.972-1.214-1.146-1.746c-0.154-0.458-0.172-0.841-0.15-1.118h-3.234
				L40.65,24.809c-0.607-0.172-1.284-0.27-2.002-0.27c-2.568,0-4.648,1.223-4.648,2.731C34,28.777,36.08,30,38.648,30
				c2.425,0,4.414-1.091,4.627-2.484l1.916-10.022c0.262,0.213,0.541,0.415,0.838,0.6c0.23,0.142,0.469,0.275,0.713,0.401
				c0.123,0.061,0.247,0.12,0.371,0.181c0.08,0.041,0.235,0.118,0.311,0.163c0.38,0.209,0.754,0.475,1.025,0.773
				c0.274,0.3,0.453,0.644,0.502,1.02c0.053,0.376-0.023,0.779-0.179,1.159c-0.315,0.767-0.885,1.426-1.4,1.948
				c-0.524,0.523-1.021,0.92-1.375,1.188c-0.356,0.268-0.573,0.406-0.573,0.406s0.238-0.109,0.639-0.328
				c0.398-0.22,0.964-0.55,1.591-1.013c0.62-0.468,1.331-1.06,1.86-1.905c0.259-0.423,0.46-0.925,0.483-1.48
				C50.026,20.052,49.843,19.47,49.521,18.986z"/>
		</g>
	</g>
	<g>
		<g>
			<path fill="#FFFFFF" d="M27.659,46.529l1.321-1.123l-1.955-2.212l-1.401,1.255l-2.704-2.762c1.654-0.606,2.82-2.031,2.82-3.688
				c0-2.205-2.066-4-4.604-4s-4.604,1.795-4.604,4c0,0.902,0.35,1.732,0.934,2.404C15.972,41.377,15,42.923,15,44.668
				C15,47.607,17.752,50,21.137,50c1.623,0,3.17-0.566,4.306-1.535L26.928,50h0.012L29,47.902L27.659,46.529z M19.602,38
				c0-0.735,0.688-1.333,1.535-1.333s1.536,0.598,1.536,1.333c0,0.736-0.689,1.334-1.536,1.334S19.602,38.736,19.602,38z
				 M21.137,47.334c-1.692,0-3.068-1.195-3.068-2.666c0-0.971,0.602-1.819,1.494-2.285l3.891,4.025
				C22.875,46.986,22.031,47.334,21.137,47.334z"/>
		</g>
	</g>
	<g>
		<polygon fill="#FFFFFF" points="50,34 46,34 34,50 38,50 		"/>
	</g>
	<g>
		<path fill="#FFFFFF" d="M38,42c-2.206,0-4-1.794-4-4s1.794-4,4-4s4,1.794,4,4S40.206,42,38,42z M38,36c-1.103,0-2,0.897-2,2
			s0.897,2,2,2s2-0.897,2-2S39.103,36,38,36z"/>
	</g>
	<g>
		<path fill="#FFFFFF" d="M46,50c-2.206,0-4-1.793-4-4c0-2.206,1.794-4,4-4s4,1.794,4,4C50,48.207,48.206,50,46,50z M46,44
			c-1.103,0-2,0.898-2,2c0,1.104,0.897,2,2,2s2-0.896,2-2C48,44.898,47.103,44,46,44z"/>
	</g>
</g>
</svg>
