<?xml version="1.0" encoding="utf-8"?>
<!-- Generator: Adobe Illustrator 15.0.0, SVG Export Plug-In . SVG Version: 6.00 Build 0)  -->
<!DOCTYPE svg PUBLIC "-//W3C//DTD SVG 1.1//EN" "http://www.w3.org/Graphics/SVG/1.1/DTD/svg11.dtd">
<svg version="1.1" id="Layer_1" xmlns="http://www.w3.org/2000/svg" xmlns:xlink="http://www.w3.org/1999/xlink" x="0px" y="0px"
	 width="64px" height="64px" viewBox="0 0 64 64" enable-background="new 0 0 64 64" xml:space="preserve">
<path fill="#94989B" d="M47.352,47.351l7.478-2.004l8.807,8.811c1.027-4.229-0.109-8.875-3.413-12.176
	c-3.301-3.301-7.946-4.438-12.174-3.413L25.431,15.955c1.026-4.231-0.112-8.877-3.413-12.178c-3.302-3.303-7.948-4.436-12.174-3.413
	l8.81,8.812l-2.004,7.475l-7.477,2.004L0.364,9.843c-1.026,4.229,0.11,8.875,3.414,12.175c3.301,3.301,7.946,4.439,12.174,3.413
	L38.57,48.045c-1.026,4.231,0.112,8.877,3.413,12.179c3.302,3.303,7.948,4.436,12.174,3.412l-8.81-8.811L47.352,47.351z"/>
</svg>
