<?xml version="1.0" encoding="utf-8"?>
<!-- Generator: Adobe Illustrator 15.0.0, SVG Export Plug-In . SVG Version: 6.00 Build 0)  -->
<!DOCTYPE svg PUBLIC "-//W3C//DTD SVG 1.1//EN" "http://www.w3.org/Graphics/SVG/1.1/DTD/svg11.dtd">
<svg version="1.1" id="Layer_1" xmlns="http://www.w3.org/2000/svg" xmlns:xlink="http://www.w3.org/1999/xlink" x="0px" y="0px"
	 width="64px" height="64px" viewBox="0 0 64 64" enable-background="new 0 0 64 64" xml:space="preserve">
<g>
	<circle fill="#42ADE2" cx="32" cy="32" r="30"/>
	<path fill="#FFFFFF" d="M22.054,17.909H22l-3.33,1.271L18,16.723L22.619,15H26v14h-3.946V17.909z"/>
	<path fill="#FFFFFF" d="M35.5,29v-1.947l1.824-1.61c3.08-2.69,4.578-4.237,4.619-5.847c0-1.123-0.693-2.013-2.32-2.013
		c-1.215,0-2.277,0.593-3.018,1.146l-0.93-2.31c1.063-0.785,2.711-1.42,4.619-1.42c3.189,0,4.947,1.82,4.947,4.32
		c0,2.31-1.715,4.152-3.754,5.932l-1.301,1.057v0.043H45.5V29H35.5z"/>
	<path fill="#FFFFFF" d="M19.675,45.667c0.587,0.29,1.941,0.832,3.291,0.832c1.72,0,2.593-0.79,2.593-1.812
		c0-1.334-1.396-1.938-2.856-1.938h-1.35v-2.271h1.287c1.109-0.02,2.524-0.415,2.524-1.562c0-0.813-0.696-1.415-2.09-1.415
		c-1.155,0-2.375,0.478-2.963,0.812l-0.675-2.293C20.287,35.5,21.985,35,23.814,35c3.027,0,4.707,1.521,4.707,3.373
		c0,1.439-0.851,2.564-2.595,3.148v0.04C27.629,41.854,29,43.083,29,44.854C29,47.249,26.8,49,23.206,49
		c-1.832,0-3.377-0.459-4.206-0.959L19.675,45.667z"/>
	<path fill="#FFFFFF" d="M40.775,49v-3.338H34V43.53L39.788,35h4.38v8.205H46v2.457h-1.832V49H40.775z M40.775,43.205v-3.098
		c0-0.843,0.047-1.703,0.117-2.608H40.8c-0.493,0.905-0.895,1.724-1.411,2.608l-2.048,3.057v0.041H40.775z"/>
</g>
</svg>
