<?xml version="1.0" encoding="utf-8"?>
<!-- Generator: Adobe Illustrator 15.0.0, SVG Export Plug-In . SVG Version: 6.00 Build 0)  -->
<!DOCTYPE svg PUBLIC "-//W3C//DTD SVG 1.1//EN" "http://www.w3.org/Graphics/SVG/1.1/DTD/svg11.dtd">
<svg version="1.1" id="Layer_1" xmlns="http://www.w3.org/2000/svg" xmlns:xlink="http://www.w3.org/1999/xlink" x="0px" y="0px"
	 width="64px" height="64px" viewBox="0 0 64 64" enable-background="new 0 0 64 64" xml:space="preserve">
<g>
	<path fill="#D6DFE3" d="M30.556,24.272c0,0,24.003,21.852,31.444,37.726c0,0-20.091,0.633-43.281-22.467
		c0,0,7.645-8.097,6.145-9.59L30.556,24.272z"/>
	<g>
		<path fill="#AEBABF" d="M20.927,37.044c-1.205,1.423-2.208,2.487-2.208,2.487C41.909,62.631,62,61.998,62,61.998
			c-0.469-1.001-1.005-2.026-1.596-3.067C53.727,58.04,38.213,54.116,20.927,37.044z"/>
	</g>
	<path fill="#333333" d="M30.81,23.514L9.211,2L2.249,8.934c0,0-0.493,0.47-0.092,0.87c0.896,0.894,1.546,0.545,2.354,0.724
		c1.107,0.246,2.362,1.494,2.362,1.494l17.989,17.92l5.945-5.922C30.951,23.88,30.951,23.652,30.81,23.514z"/>
	<path fill="#D0D0D0" d="M9.104,8.068c-0.345,0.341-0.9,0.34-1.241-0.001c-0.341-0.34-0.344-0.894,0-1.235
		C8.205,6.49,8.76,6.49,9.104,6.831C9.447,7.173,9.446,7.726,9.104,8.068z"/>
</g>
</svg>
