<?xml version="1.0" encoding="utf-8"?>
<!-- Generator: Adobe Illustrator 15.0.0, SVG Export Plug-In . SVG Version: 6.00 Build 0)  -->
<!DOCTYPE svg PUBLIC "-//W3C//DTD SVG 1.1//EN" "http://www.w3.org/Graphics/SVG/1.1/DTD/svg11.dtd">
<svg version="1.1" id="Layer_1" xmlns="http://www.w3.org/2000/svg" xmlns:xlink="http://www.w3.org/1999/xlink" x="0px" y="0px"
	 width="64px" height="64px" viewBox="0 0 64 64" enable-background="new 0 0 64 64" xml:space="preserve">
<g>
	<path fill="#FFB031" d="M57.043,24.593C54.028,17.379,44.759,8.687,44.759,8.687s2.994,7.435,0.826,17.266l3.51-3.038
		c0,0,3.342,1.434,3.717,4.958c0.466,4.355-2.03,10.567-2.03,10.567s-5.506-1.737-13.92-1.616l-3.01-19.584l7.155,4.69L32,2
		l-9.009,19.93l7.157-4.69l-3.01,19.584c-8.416-0.121-13.922,1.616-13.922,1.616s-2.494-6.212-2.028-10.567
		c0.375-3.524,3.715-4.958,3.715-4.958l3.511,3.038C16.246,16.121,19.24,8.687,19.24,8.687s-9.27,8.692-12.285,15.906
		C3.858,32,2,40.818,2,40.818l6.399,5.914c0,0,5.649-1.664,9.963-1.997c4.129-0.319,8.93-0.399,8.93-0.399l-0.618,8.712L32,62
		l5.326-8.952l-0.62-8.712c0,0,4.801,0.08,8.93,0.399c4.314,0.333,9.963,1.997,9.963,1.997L62,40.818
		C62,40.818,60.142,32,57.043,24.593z"/>
</g>
</svg>
