<?xml version="1.0" encoding="utf-8"?>
<!-- Generator: Adobe Illustrator 15.0.0, SVG Export Plug-In . SVG Version: 6.00 Build 0)  -->
<!DOCTYPE svg PUBLIC "-//W3C//DTD SVG 1.1//EN" "http://www.w3.org/Graphics/SVG/1.1/DTD/svg11.dtd">
<svg version="1.1" id="Layer_1" xmlns="http://www.w3.org/2000/svg" xmlns:xlink="http://www.w3.org/1999/xlink" x="0px" y="0px"
	 width="64px" height="64px" viewBox="0 0 64 64" enable-background="new 0 0 64 64" xml:space="preserve">
<g>
	<circle fill="#ED4C5C" cx="32" cy="32" r="32"/>
	<circle fill="#FFFFFF" cx="32" cy="32" r="27.5"/>
	<g>
		<g>
			<path fill="#ED4C5C" d="M53.552,26.299c-0.711-0.75-1.577-1.338-2.575-1.747c-0.991-0.405-2.117-0.636-3.351-0.686
				c-1.213-0.049-2.561,0.077-4.005,0.375c-1.383,0.285-2.895,0.736-4.493,1.34c-0.207-0.2-0.427-0.381-0.657-0.537
				c-0.695-0.481-1.476-0.761-2.322-0.835c-1.867-0.161-3.951,0.713-6.195,2.599c-0.154,0.129-0.304,0.26-0.447,0.389
				c0.063-0.449,0.091-0.898,0.077-1.346c-0.037-1.466-0.488-2.83-1.306-3.944c-0.853-1.166-2.061-2-3.49-2.412
				c-1.774-0.508-3.511-0.441-5.16,0.201c-1.26,0.489-2.441,1.308-3.512,2.434c-1.684,1.771-2.537,3.712-2.63,3.928l3.91,1.666
				l-0.003,0.007c0.007-0.016,0.659-1.502,1.869-2.744c2.021-2.076,3.777-1.572,4.354-1.407c1.063,0.305,1.69,1.174,1.721,2.383
				c0.03,1.114-0.464,2.336-1.387,3.439c-1.204,1.44-3.096,2.635-5.468,3.451l1.381,4.016c1.596-0.549,3.039-1.243,4.291-2.064
				c1.183-0.773,2.2-1.664,3.027-2.645c0.143,0.027,0.297,0.059,0.457,0.101c1.027,0.265,1.822,0.736,2.362,1.4
				c1.021,1.253,1.213,3.29,0.57,6.058c-0.985,4.242-4.121,7.236-7.626,7.282c-1.953,0.026-3.883-0.872-5.579-2.598
				c-2.135-2.172-3.865-5.636-5.005-10.013l-4.111,1.07c0.683,2.619,1.559,4.973,2.604,6.992c1.004,1.939,2.175,3.598,3.484,4.928
				c1.272,1.295,2.673,2.283,4.167,2.939c1.406,0.617,2.872,0.93,4.356,0.93c0.047,0,0.094,0,0.142-0.002
				c1.36-0.018,2.701-0.298,3.986-0.834c1.242-0.518,2.4-1.26,3.44-2.209c1.029-0.938,1.919-2.055,2.644-3.318
				c0.735-1.287,1.286-2.703,1.636-4.207c0.492-2.115,0.603-4.027,0.333-5.686c-0.254-1.555-0.842-2.906-1.747-4.016
				c-0.229-0.283-0.48-0.549-0.751-0.797c0.063-0.053,0.126-0.107,0.189-0.16c1.478-1.23,2.545-1.623,3.052-1.578
				c0.113,0.01,0.38,0.033,0.748,0.68c0.594,1.043,0.524,2.148,0.341,4.175c-0.109,1.212-0.235,2.585-0.147,4.161
				c0.104,1.846,0.481,3.611,1.155,5.398c0.585,1.549,1.401,2.768,2.428,3.621c1.045,0.871,2.307,1.354,3.651,1.395
				c0.066,0.002,0.132,0.004,0.196,0.004c0.961,0,1.952-0.219,2.943-0.65c0.941-0.409,1.87-1.006,2.759-1.77
				c0.848-0.73,1.64-1.597,2.355-2.577c0.723-0.988,1.35-2.071,1.864-3.215c1.057-2.353,1.636-4.755,1.669-6.948
				C55.788,30.078,55.029,27.859,53.552,26.299z M51.5,32.652c-0.024,1.594-0.484,3.467-1.296,5.271
				c-1.635,3.638-4.392,5.758-6.11,5.704c-0.404-0.012-0.742-0.143-1.066-0.41c-0.446-0.375-0.854-1.018-1.17-1.86
				c-1.17-3.093-0.958-5.423-0.753-7.675c0.128-1.408,0.258-2.846-0.015-4.295c2.523-0.914,4.664-1.344,6.366-1.275
				c1.352,0.055,2.366,0.428,3.013,1.109C51.352,30.153,51.516,31.601,51.5,32.652z"/>
			<path fill="#ED4C5C" d="M28.92,19.679c1.172,1.535,2.689,2.572,4.387,3.001c0.604,0.151,1.223,0.227,1.859,0.227
				c0.986,0,2.011-0.182,3.063-0.546c1.835-0.637,3.789-1.85,5.81-3.606l-2.789-3.206c-1.597,1.39-3.072,2.329-4.388,2.788
				c-0.932,0.328-1.77,0.405-2.489,0.229c-1.877-0.455-2.743-2.584-2.753-2.605c0.005,0.01,0.008,0.016,0.008,0.016l-3.976,1.501
				C27.694,17.588,28.083,18.585,28.92,19.679z"/>
			
				<rect x="33.914" y="10.844" transform="matrix(0.6892 0.7245 -0.7245 0.6892 20.6274 -22.1555)" fill="#ED4C5C" width="4.456" height="4.249"/>
		</g>
	</g>
</g>
</svg>
