<?xml version="1.0" encoding="utf-8"?>
<!-- Generator: Adobe Illustrator 15.0.0, SVG Export Plug-In . SVG Version: 6.00 Build 0)  -->
<!DOCTYPE svg PUBLIC "-//W3C//DTD SVG 1.1//EN" "http://www.w3.org/Graphics/SVG/1.1/DTD/svg11.dtd">
<svg version="1.1" id="Layer_1" xmlns="http://www.w3.org/2000/svg" xmlns:xlink="http://www.w3.org/1999/xlink" x="0px" y="0px"
	 width="64px" height="64px" viewBox="0 0 64 64" enable-background="new 0 0 64 64" xml:space="preserve">
<g>
	<path fill="#FFB700" d="M7.143,21c0,0.55-0.449,1-1,1H3c-0.55,0-1-0.45-1-1l0,0c0-0.55,0.45-1,1-1h3.143
		C6.693,20,7.143,20.45,7.143,21L7.143,21z"/>
	<path fill="#FFB700" d="M6.143,25c0,0.55-0.449,1-1,1H4c-0.55,0-1-0.45-1-1l0,0c0-0.55,0.45-1,1-1h1.143
		C5.693,24,6.143,24.45,6.143,25L6.143,25z"/>
	<path fill="#FFB700" d="M13,25c0,0.55-0.45,1-1,1h-1.143c-0.551,0-1-0.45-1-1l0,0c0-0.55,0.449-1,1-1H12C12.55,24,13,24.45,13,25
		L13,25z"/>
	<path fill="#FFB700" d="M19.857,25c0,0.55-0.45,1-1,1h-1.143c-0.551,0-1-0.45-1-1l0,0c0-0.55,0.449-1,1-1h1.143
		C19.407,24,19.857,24.45,19.857,25L19.857,25z"/>
	<path fill="#FFB700" d="M14,21c0,0.55-0.45,1-1,1H9.857c-0.551,0-1-0.45-1-1l0,0c0-0.55,0.449-1,1-1H13C13.55,20,14,20.45,14,21
		L14,21z"/>
	<path fill="#FFB700" d="M20.857,21c0,0.55-0.451,1-1,1h-3.143c-0.551,0-1-0.45-1-1l0,0c0-0.55,0.449-1,1-1h3.143
		C20.406,20,20.857,20.45,20.857,21L20.857,21z"/>
	<path fill="#FFB700" d="M27.715,21c0,0.55-0.451,1-1,1h-3.144c-0.55,0-1-0.45-1-1l0,0c0-0.55,0.45-1,1-1h3.144
		C27.264,20,27.715,20.45,27.715,21L27.715,21z"/>
	<path fill="#FFB700" d="M34.571,19c0,0.55-0.45,1-1,1h-3.143c-0.55,0-1-0.45-1-1l0,0c0-0.55,0.45-1,1-1h3.143
		C34.121,18,34.571,18.45,34.571,19L34.571,19z"/>
	<path fill="#FFB700" d="M41.429,21c0,0.55-0.45,1-1,1h-3.144c-0.549,0-1-0.45-1-1l0,0c0-0.55,0.451-1,1-1h3.144
		C40.979,20,41.429,20.45,41.429,21L41.429,21z"/>
	<path fill="#FFB700" d="M48.285,21c0,0.55-0.449,1-1,1h-3.143c-0.549,0-1-0.45-1-1l0,0c0-0.55,0.451-1,1-1h3.143
		C47.836,20,48.285,20.45,48.285,21L48.285,21z"/>
	<path fill="#FFB700" d="M55.143,21c0,0.55-0.449,1-1,1H51c-0.55,0-1-0.45-1-1l0,0c0-0.55,0.45-1,1-1h3.143
		C54.693,20,55.143,20.45,55.143,21L55.143,21z"/>
	<path fill="#FFB700" d="M62,21c0,0.55-0.45,1-1,1h-3.143c-0.551,0-1-0.45-1-1l0,0c0-0.55,0.449-1,1-1H61C61.55,20,62,20.45,62,21
		L62,21z"/>
	<path fill="#FFB700" d="M2.6,21c-0.014,0.164-0.028,0.328-0.028,0.5c0,1.934,0.896,3.5,2,3.5s2-1.566,2-3.5
		c0-0.172-0.015-0.336-0.028-0.5H2.6z"/>
	<path fill="#FFB700" d="M9.457,21c-0.014,0.164-0.029,0.328-0.029,0.5c0,1.934,0.896,3.5,2,3.5c1.105,0,2-1.566,2-3.5
		c0-0.172-0.015-0.336-0.028-0.5H9.457z"/>
	<path fill="#FFB700" d="M16.314,21c-0.014,0.164-0.029,0.328-0.029,0.5c0,1.934,0.896,3.5,2,3.5c1.105,0,2-1.566,2-3.5
		c0-0.172-0.015-0.336-0.028-0.5H16.314z"/>
	<path fill="#FFB700" d="M23.172,21c-0.014,0.164-0.029,0.328-0.029,0.5c0,1.934,0.896,3.5,2,3.5s2-1.566,2-3.5
		c0-0.172-0.016-0.336-0.029-0.5H23.172z"/>
	<path fill="#FFB700" d="M36.887,21c-0.014,0.164-0.029,0.328-0.029,0.5c0,1.934,0.896,3.5,2,3.5s2-1.566,2-3.5
		c0-0.172-0.016-0.336-0.029-0.5H36.887z"/>
	<path fill="#FFB700" d="M43.743,21c-0.014,0.164-0.028,0.328-0.028,0.5c0,1.934,0.895,3.5,2,3.5c1.104,0,2-1.566,2-3.5
		c0-0.172-0.016-0.336-0.029-0.5H43.743z"/>
	<path fill="#FFB700" d="M50.6,21c-0.014,0.164-0.028,0.328-0.028,0.5c0,1.934,0.896,3.5,2,3.5s2-1.566,2-3.5
		c0-0.172-0.015-0.336-0.028-0.5H50.6z"/>
	<path fill="#FFB700" d="M57.457,21c-0.014,0.164-0.029,0.328-0.029,0.5c0,1.934,0.896,3.5,2,3.5c1.105,0,2-1.566,2-3.5
		c0-0.172-0.015-0.336-0.028-0.5H57.457z"/>
	<path fill="#FFB700" d="M30.029,19C30.016,19.164,30,19.328,30,19.5c0,1.934,0.896,3.5,2,3.5s2-1.566,2-3.5
		c0-0.172-0.016-0.336-0.029-0.5H30.029z"/>
	<path fill="#FFB700" d="M26.715,25c0,0.55-0.451,1-1,1h-1.144c-0.55,0-1-0.45-1-1l0,0c0-0.55,0.45-1,1-1h1.144
		C26.264,24,26.715,24.45,26.715,25L26.715,25z"/>
	<path fill="#FFB700" d="M40.43,25c0,0.55-0.451,1-1,1h-1.144c-0.55,0-1-0.45-1-1l0,0c0-0.55,0.45-1,1-1h1.144
		C39.979,24,40.43,24.45,40.43,25L40.43,25z"/>
	<path fill="#FFB700" d="M47.286,25c0,0.55-0.45,1-1,1h-1.144c-0.549,0-1-0.45-1-1l0,0c0-0.55,0.451-1,1-1h1.144
		C46.836,24,47.286,24.45,47.286,25L47.286,25z"/>
	<path fill="#FFB700" d="M54.143,25c0,0.55-0.449,1-1,1H52c-0.55,0-1-0.45-1-1l0,0c0-0.55,0.45-1,1-1h1.143
		C53.693,24,54.143,24.45,54.143,25L54.143,25z"/>
	<path fill="#FFB700" d="M61,25c0,0.55-0.45,1-1,1h-1.143c-0.551,0-1-0.45-1-1l0,0c0-0.55,0.449-1,1-1H60C60.55,24,61,24.45,61,25
		L61,25z"/>
	<g>
		<path fill="#FFB700" d="M32,51.982c-15.676,0-28.429-12.754-28.429-28.429h2c0,14.573,11.856,26.429,26.429,26.429
			s26.428-11.855,26.428-26.429h2C60.428,39.229,47.676,51.982,32,51.982z"/>
	</g>
	<g>
		<path fill="#FFB700" d="M32,45.054c-11.855,0-21.5-9.646-21.5-21.5h2c0,10.753,8.748,19.5,19.5,19.5s19.5-8.747,19.5-19.5h2
			C53.5,35.408,43.855,45.054,32,45.054z"/>
	</g>
	<g>
		<path fill="#FFB700" d="M32,38.554c-8.271,0-15-6.729-15-15h2c0,7.169,5.832,13,13,13s13-5.831,13-13h2
			C47,31.824,40.271,38.554,32,38.554z"/>
	</g>
	<g>
		<path fill="#FFB700" d="M32,31.554c-4.411,0-8-3.589-8-8h2c0,3.309,2.691,6,6,6s6-2.691,6-6h2C40,27.965,36.411,31.554,32,31.554z
			"/>
	</g>
	<g>
		<rect x="31" y="21" fill="#FFB700" width="2" height="35"/>
	</g>
	<path fill="#FFB700" d="M36,56.465C36,57.313,34.209,58,32,58s-4-0.687-4-1.535C28,55.617,29.791,54,32,54S36,55.617,36,56.465z"/>
	<path fill="#FFB700" d="M40,59.451C40,61.356,36.418,62,32,62s-8-0.644-8-2.549C24,57.545,27.582,56,32,56S40,57.545,40,59.451z"/>
	<g>
		<path fill="#E8E8E8" d="M5.143,12H4c-0.551,0-1,0.45-1,1v7h3.143v-7C6.143,12.45,5.692,12,5.143,12z"/>
		<polygon fill="#B2C1C0" points="4.554,9 4.071,12 5.071,12 		"/>
		<path fill="#FF8736" d="M4.93,4c0,0-1.688,1.82-1.324,4.74c0.18,1.455,1.948,1.888,1.948,0.008C5.554,6.726,4.238,6.702,4.93,4z"
			/>
	</g>
	<g>
		<path fill="#E8E8E8" d="M12,12h-1.143c-0.551,0-1,0.45-1,1v7H13v-7C13,12.45,12.55,12,12,12z"/>
		<polygon fill="#B2C1C0" points="11.411,9 10.929,12 11.929,12 		"/>
		<path fill="#FF8736" d="M11.787,4c0,0-1.688,1.82-1.324,4.74c0.18,1.455,1.948,1.888,1.948,0.008
			C12.411,6.726,11.096,6.702,11.787,4z"/>
	</g>
	<g>
		<path fill="#E8E8E8" d="M18.857,12h-1.144c-0.55,0-1,0.45-1,1v7h3.144v-7C19.857,12.45,19.406,12,18.857,12z"/>
		<polygon fill="#B2C1C0" points="18.268,9 17.785,12 18.785,12 		"/>
		<path fill="#FF8736" d="M18.644,4c0,0-1.688,1.82-1.324,4.74c0.181,1.455,1.948,1.888,1.948,0.008
			C19.268,6.726,17.952,6.702,18.644,4z"/>
	</g>
	<g>
		<path fill="#E8E8E8" d="M25.714,12H24.57c-0.549,0-1,0.45-1,1v7h3.144v-7C26.714,12.45,26.264,12,25.714,12z"/>
		<polygon fill="#B2C1C0" points="25.125,9 24.643,12 25.643,12 		"/>
		<path fill="#FF8736" d="M25.5,4c0,0-1.688,1.82-1.324,4.74c0.182,1.455,1.949,1.888,1.949,0.008C26.125,6.726,24.809,6.702,25.5,4
			z"/>
	</g>
	<g>
		<path fill="#E8E8E8" d="M32.571,10h-1.144c-0.549,0-1,0.45-1,1v7h3.144v-7C33.571,10.45,33.121,10,32.571,10z"/>
		<polygon fill="#B2C1C0" points="31.982,7 31.5,10 32.5,10 		"/>
		<path fill="#FF8736" d="M32.357,2c0,0-1.688,1.82-1.324,4.74c0.182,1.455,1.949,1.888,1.949,0.008
			C32.982,4.726,31.666,4.702,32.357,2z"/>
	</g>
	<g>
		<path fill="#E8E8E8" d="M39.43,12h-1.144c-0.55,0-1,0.45-1,1v7h3.144v-7C40.43,12.45,39.979,12,39.43,12z"/>
		<polygon fill="#B2C1C0" points="38.84,9 38.357,12 39.357,12 		"/>
		<path fill="#FF8736" d="M39.216,4c0,0-1.688,1.82-1.324,4.74c0.181,1.455,1.948,1.888,1.948,0.008
			C39.84,6.726,38.524,6.702,39.216,4z"/>
	</g>
	<g>
		<path fill="#E8E8E8" d="M46.285,12h-1.143c-0.55,0-1,0.45-1,1v7h3.143v-7C47.285,12.45,46.836,12,46.285,12z"/>
		<polygon fill="#B2C1C0" points="45.697,9 45.215,12 46.215,12 		"/>
		<path fill="#FF8736" d="M46.072,4c0,0-1.688,1.82-1.324,4.74c0.181,1.455,1.949,1.888,1.949,0.008
			C46.697,6.726,45.381,6.702,46.072,4z"/>
	</g>
	<g>
		<path fill="#E8E8E8" d="M60,12h-1.144c-0.55,0-1,0.45-1,1v7H61v-7C61,12.45,60.549,12,60,12z"/>
		<polygon fill="#B2C1C0" points="59.41,9 58.928,12 59.928,12 		"/>
		<path fill="#FF8736" d="M59.786,4c0,0-1.688,1.82-1.324,4.74c0.181,1.455,1.948,1.888,1.948,0.008
			C60.41,6.726,59.095,6.702,59.786,4z"/>
	</g>
	<g>
		<path fill="#E8E8E8" d="M53.143,12H52c-0.55,0-1,0.45-1,1v7h3.143v-7C54.143,12.45,53.693,12,53.143,12z"/>
		<polygon fill="#B2C1C0" points="52.555,9 52.072,12 53.072,12 		"/>
		<path fill="#FF8736" d="M52.93,4c0,0-1.688,1.82-1.324,4.74c0.181,1.455,1.949,1.888,1.949,0.008
			C53.555,6.726,52.238,6.702,52.93,4z"/>
	</g>
	<path fill="#C28200" d="M36.175,57.725c0.197,0.188-1.49,1.651-4.175,1.651s-4.372-1.464-4.175-1.651
		c0.144-0.247,1.866,0.67,4.175,0.651C34.309,58.395,36.029,57.478,36.175,57.725z"/>
	<ellipse fill="#C28200" cx="4.571" cy="22.25" rx="1.5" ry="0.25"/>
	<ellipse fill="#C28200" cx="11.429" cy="22.25" rx="1.5" ry="0.25"/>
	<ellipse fill="#C28200" cx="18.286" cy="22.25" rx="1.5" ry="0.25"/>
	<ellipse fill="#C28200" cx="25.143" cy="22.25" rx="1.5" ry="0.25"/>
	<ellipse fill="#C28200" cx="38.857" cy="22.125" rx="1.5" ry="0.25"/>
	<ellipse fill="#C28200" cx="32" cy="20" rx="1.5" ry="0.25"/>
	<ellipse fill="#C28200" cx="45.76" cy="22.125" rx="1.5" ry="0.25"/>
	<ellipse fill="#C28200" cx="52.571" cy="22.125" rx="1.5" ry="0.25"/>
	<ellipse fill="#C28200" cx="59.429" cy="22.125" rx="1.5" ry="0.25"/>
</g>
</svg>
