<?xml version="1.0" encoding="utf-8"?>
<!-- Generator: Adobe Illustrator 15.0.0, SVG Export Plug-In . SVG Version: 6.00 Build 0)  -->
<!DOCTYPE svg PUBLIC "-//W3C//DTD SVG 1.1//EN" "http://www.w3.org/Graphics/SVG/1.1/DTD/svg11.dtd">
<svg version="1.1" id="Layer_1" xmlns="http://www.w3.org/2000/svg" xmlns:xlink="http://www.w3.org/1999/xlink" x="0px" y="0px"
	 width="64px" height="64px" viewBox="0 0 64 64" enable-background="new 0 0 64 64" xml:space="preserve">
<g>
	<g>
		<rect y="33" fill="#E8E8E8" width="12" height="31"/>
	</g>
	<rect x="2" y="39" fill="#C94747" width="8" height="17"/>
	<path fill="#3E4347" d="M4.5,47c-0.553,0-1,0.447-1,1v8h2v-8C5.5,47.447,5.053,47,4.5,47z"/>
	<path fill="#3E4347" d="M7.5,47c-0.553,0-1,0.447-1,1v8h2v-8C8.5,47.447,8.053,47,7.5,47z"/>
	<path fill="#E8E8E8" d="M6,44c-2.209,0-4,1.791-4,4h1.5c0-1.38,1.119-2.5,2.5-2.5s2.5,1.12,2.5,2.5H10C10,45.791,8.209,44,6,44z"/>
	<rect x="5" y="58" fill="#3E4347" width="2" height="4"/>
	<path fill="#E8E8E8" d="M2,38v3c0-0.553,0.447-1,1-1s1,0.447,1,1c0-0.553,0.447-1,1-1s1,0.447,1,1c0-0.553,0.447-1,1-1s1,0.447,1,1
		c0-0.553,0.447-1,1-1s1,0.447,1,1v-3H2z"/>
	<g>
		<path fill="#C94747" d="M3,35c-0.553,0-1,0.447-1,1v2h2v-2C4,35.447,3.553,35,3,35z"/>
		<path fill="#C94747" d="M6,35c-0.553,0-1,0.447-1,1v2h2v-2C7,35.447,6.553,35,6,35z"/>
		<path fill="#C94747" d="M9,35c-0.553,0-1,0.447-1,1v2h2v-2C10,35.447,9.553,35,9,35z"/>
	</g>
	<rect y="22" fill="#C94747" width="12" height="11"/>
	<rect y="22" fill="#ED4C5C" width="4" height="11"/>
	<path fill="#FFFFFF" d="M2,23.188c-1.104,0-2,0.896-2,2h4C4,24.083,3.104,23.188,2,23.188z"/>
	<path fill="#E8E8E8" d="M6,23.188c-1.104,0-2,0.896-2,2h4C8,24.083,7.104,23.188,6,23.188z"/>
	<path fill="#3E4347" d="M2,24c-0.553,0-1,0.447-1,1v5h2v-5C3,24.447,2.553,24,2,24z"/>
	<path fill="#3E4347" d="M6,24c-0.553,0-1,0.447-1,1v5h2v-5C7,24.447,6.553,24,6,24z"/>
	<rect x="8" y="22" opacity="0.5" fill="#3E4347" width="4" height="11"/>
	<path fill="#B2C1C0" d="M10,23.188c-1.104,0-2,0.896-2,2h4C12,24.083,11.104,23.188,10,23.188z"/>
	<path fill="#3E4347" d="M10,24c-0.553,0-1,0.447-1,1v5h2v-5C11,24.447,10.553,24,10,24z"/>
	<rect y="24.188" fill="#FFFFFF" width="1" height="1"/>
	<rect x="3" y="24.188" fill="#FFFFFF" width="1" height="1"/>
	<rect x="4" y="24.188" fill="#E8E8E8" width="1" height="1"/>
	<rect x="7" y="24.188" fill="#E8E8E8" width="1" height="1"/>
	<rect x="8" y="24.188" fill="#B2C1C0" width="1" height="1"/>
	<rect x="11" y="24.188" fill="#B2C1C0" width="1" height="1"/>
	<rect y="27" fill="#FFFFFF" width="1" height="1"/>
	<rect x="3" y="27" fill="#FFFFFF" width="1" height="1"/>
	<rect x="4" y="27" fill="#E8E8E8" width="1" height="1"/>
	<rect x="7" y="27" fill="#E8E8E8" width="1" height="1"/>
	<rect x="8" y="27" fill="#B2C1C0" width="1" height="1"/>
	<rect x="11" y="27" fill="#B2C1C0" width="1" height="1"/>
	<rect y="30" fill="#FFFFFF" width="4" height="1"/>
	<rect x="4" y="30" fill="#E8E8E8" width="4" height="1"/>
	<rect x="8" y="30" fill="#B2C1C0" width="4" height="1"/>
	<rect y="21" fill="#FFFFFF" width="4" height="1"/>
	<rect x="4" y="21" fill="#E8E8E8" width="4" height="1"/>
	<rect x="8" y="21" fill="#B2C1C0" width="4" height="1"/>
	<polygon fill="#C94747" points="11,19 1,19 0,21 12,21 	"/>
	<polygon fill="#C94747" points="11,19 1,19 0.133,16 11.867,16 	"/>
	<polygon opacity="0.5" fill="#3E4347" points="1,19 0.133,16 11.867,16 11,19 	"/>
	<path fill="#C94747" d="M9,10C6.666,7.666,6,6,6,6s-0.666,1.666-3,4c-1.231,1.231-3,2.761-3,5c0,2.762,2.687,4,6,4s6-1.238,6-4
		C12,12.761,10.231,11.231,9,10z"/>
	<path opacity="0.5" fill="#3E4347" d="M6,16c-2.665,0-4.922-0.803-5.704-2.554C0.111,13.924,0,14.439,0,15c0,2.762,2.687,4,6,4
		s6-1.238,6-4c0-0.561-0.111-1.076-0.296-1.554C10.922,15.197,8.665,16,6,16z"/>
	<path fill="#E8E8E8" d="M3.884,12.361C4.271,10.855,4.844,9.592,5.5,8.5c-1.148,1.086-2.258,2.45-2.766,4.426
		C2.1,15.393,2.801,17.262,4.24,18.5C3.435,17.018,3.213,14.973,3.884,12.361z"/>
	<path fill="#E8E8E8" d="M8.116,12.361C7.729,10.855,7.156,9.592,6.5,8.5c1.148,1.086,2.258,2.45,2.766,4.426
		C9.9,15.393,9.199,17.262,7.76,18.5C8.565,17.018,8.787,14.973,8.116,12.361z"/>
	<polygon fill="#B2C1C0" points="6.666,1 7,0.5 6.334,0.5 6,0 5.666,0.5 5,0.5 5.334,1 5,1.5 5.666,1.5 6,2 6.334,1.5 7,1.5 	"/>
	<g>
		<path fill="#B2C1C0" d="M5.963,1.5C5.77,5.564,4.858,7.861,4.858,7.861C5.5,8,5.713,8,6,8s0.5,0,1.142-0.139
			c0,0-0.911-2.297-1.104-6.361H5.963z"/>
	</g>
	<circle fill="#B2C1C0" cx="6" cy="6" r="1"/>
	<circle fill="#B2C1C0" cx="6" cy="4" r="0.5"/>
	<ellipse fill="#E8E8E8" cx="6" cy="5.75" rx="0.75" ry="0.5"/>
	<ellipse fill="#E8E8E8" cx="6" cy="3.75" rx="0.25" ry="0.125"/>
	<g>
		<rect x="52" y="33" fill="#E8E8E8" width="12" height="31"/>
	</g>
	<rect x="54" y="39" fill="#C94747" width="8" height="17"/>
	<path fill="#3E4347" d="M56.5,47c-0.553,0-1,0.447-1,1v8h2v-8C57.5,47.447,57.053,47,56.5,47z"/>
	<path fill="#3E4347" d="M59.5,47c-0.553,0-1,0.447-1,1v8h2v-8C60.5,47.447,60.053,47,59.5,47z"/>
	<path fill="#E8E8E8" d="M58,44c-2.209,0-4,1.791-4,4h1.5c0-1.38,1.119-2.5,2.5-2.5s2.5,1.12,2.5,2.5H62C62,45.791,60.209,44,58,44z
		"/>
	<rect x="57" y="58" fill="#3E4347" width="2" height="4"/>
	<path fill="#E8E8E8" d="M54,38v3c0-0.553,0.447-1,1-1s1,0.447,1,1c0-0.553,0.447-1,1-1s1,0.447,1,1c0-0.553,0.447-1,1-1
		s1,0.447,1,1c0-0.553,0.447-1,1-1s1,0.447,1,1v-3H54z"/>
	<g>
		<path fill="#C94747" d="M55,35c-0.553,0-1,0.447-1,1v2h2v-2C56,35.447,55.553,35,55,35z"/>
		<path fill="#C94747" d="M58,35c-0.553,0-1,0.447-1,1v2h2v-2C59,35.447,58.553,35,58,35z"/>
		<path fill="#C94747" d="M61,35c-0.553,0-1,0.447-1,1v2h2v-2C62,35.447,61.553,35,61,35z"/>
	</g>
	<rect x="52" y="22" fill="#C94747" width="12" height="11"/>
	<rect x="52" y="22" fill="#ED4C5C" width="4" height="11"/>
	<path fill="#FFFFFF" d="M54,23.188c-1.104,0-2,0.896-2,2h4C56,24.083,55.104,23.188,54,23.188z"/>
	<path fill="#E8E8E8" d="M58,23.188c-1.104,0-2,0.896-2,2h4C60,24.083,59.104,23.188,58,23.188z"/>
	<path fill="#3E4347" d="M54,24c-0.553,0-1,0.447-1,1v5h2v-5C55,24.447,54.553,24,54,24z"/>
	<path fill="#3E4347" d="M58,24c-0.553,0-1,0.447-1,1v5h2v-5C59,24.447,58.553,24,58,24z"/>
	<rect x="60" y="22" opacity="0.5" fill="#3E4347" width="4" height="11"/>
	<path fill="#B2C1C0" d="M62,23.188c-1.104,0-2,0.896-2,2h4C64,24.083,63.104,23.188,62,23.188z"/>
	<path fill="#3E4347" d="M62,24c-0.553,0-1,0.447-1,1v5h2v-5C63,24.447,62.553,24,62,24z"/>
	<rect x="52" y="24.188" fill="#FFFFFF" width="1" height="1"/>
	<rect x="55" y="24.188" fill="#FFFFFF" width="1" height="1"/>
	<rect x="56" y="24.188" fill="#E8E8E8" width="1" height="1"/>
	<rect x="59" y="24.188" fill="#E8E8E8" width="1" height="1"/>
	<rect x="60" y="24.188" fill="#B2C1C0" width="1" height="1"/>
	<rect x="63" y="24.188" fill="#B2C1C0" width="1" height="1"/>
	<rect x="52" y="27" fill="#FFFFFF" width="1" height="1"/>
	<rect x="55" y="27" fill="#FFFFFF" width="1" height="1"/>
	<rect x="56" y="27" fill="#E8E8E8" width="1" height="1"/>
	<rect x="59" y="27" fill="#E8E8E8" width="1" height="1"/>
	<rect x="60" y="27" fill="#B2C1C0" width="1" height="1"/>
	<rect x="63" y="27" fill="#B2C1C0" width="1" height="1"/>
	<rect x="52" y="30" fill="#FFFFFF" width="4" height="1"/>
	<rect x="56" y="30" fill="#E8E8E8" width="4" height="1"/>
	<rect x="60" y="30" fill="#B2C1C0" width="4" height="1"/>
	<rect x="52" y="21" fill="#FFFFFF" width="4" height="1"/>
	<rect x="56" y="21" fill="#E8E8E8" width="4" height="1"/>
	<rect x="60" y="21" fill="#B2C1C0" width="4" height="1"/>
	<polygon fill="#C94747" points="63,19 53,19 52,21 64,21 	"/>
	<polygon fill="#C94747" points="63,19 53,19 52.133,16 63.867,16 	"/>
	<polygon opacity="0.5" fill="#3E4347" points="53,19 52.133,16 63.867,16 63,19 	"/>
	<path fill="#C94747" d="M61,10c-2.334-2.334-3-4-3-4s-0.666,1.666-3,4c-1.231,1.231-3,2.761-3,5c0,2.762,2.687,4,6,4s6-1.238,6-4
		C64,12.761,62.231,11.231,61,10z"/>
	<path opacity="0.5" fill="#3E4347" d="M58,16c-2.665,0-4.922-0.803-5.704-2.554C52.111,13.924,52,14.439,52,15c0,2.762,2.687,4,6,4
		s6-1.238,6-4c0-0.561-0.111-1.076-0.296-1.554C62.922,15.197,60.665,16,58,16z"/>
	<path fill="#E8E8E8" d="M55.884,12.361c0.388-1.506,0.96-2.77,1.616-3.861c-1.148,1.086-2.258,2.45-2.766,4.426
		c-0.635,2.467,0.066,4.336,1.506,5.574C55.435,17.018,55.213,14.973,55.884,12.361z"/>
	<path fill="#E8E8E8" d="M60.116,12.361c-0.388-1.506-0.96-2.77-1.616-3.861c1.148,1.086,2.258,2.45,2.766,4.426
		c0.635,2.467-0.066,4.336-1.506,5.574C60.565,17.018,60.787,14.973,60.116,12.361z"/>
	<polygon fill="#B2C1C0" points="58.666,1 59,0.5 58.334,0.5 58,0 57.666,0.5 57,0.5 57.334,1 57,1.5 57.666,1.5 58,2 58.334,1.5 
		59,1.5 	"/>
	<g>
		<path fill="#B2C1C0" d="M57.963,1.5c-0.193,4.064-1.104,6.361-1.104,6.361C57.5,8,57.713,8,58,8s0.5,0,1.142-0.139
			c0,0-0.911-2.297-1.104-6.361H57.963z"/>
	</g>
	<circle fill="#B2C1C0" cx="58" cy="6" r="1"/>
	<circle fill="#B2C1C0" cx="58" cy="4" r="0.5"/>
	<ellipse fill="#E8E8E8" cx="58" cy="5.75" rx="0.75" ry="0.5"/>
	<ellipse fill="#E8E8E8" cx="58" cy="3.75" rx="0.25" ry="0.125"/>
	<g>
		<path fill="#B2C1C0" d="M32,10c-2.209,0-4,1.791-4,4v6h8v-6C36,11.791,34.209,10,32,10z"/>
		<path fill="#E8E8E8" d="M30,19h4v-5c0-1.103-0.897-2-2-2c-1.104,0-2,0.897-2,2V19z"/>
	</g>
	<g>
		<polygon fill="#B2C1C0" points="32,15 12,25 12,64 52,64 52,25 		"/>
		<path fill="#C94747" d="M14,64h36V26.236l-18-9l-18,9V64z"/>
	</g>
	<path fill="#89664C" d="M22,43.5c-2.762,0-5,2.238-5,5V64h10V48.5C27,45.738,24.762,43.5,22,43.5z"/>
	<path fill="#89664C" d="M32,43.5c-2.762,0-5,2.238-5,5V64h10V48.5C37,45.738,34.762,43.5,32,43.5z"/>
	<path fill="#89664C" d="M42,43.5c-2.762,0-5,2.238-5,5V64h10V48.5C47,45.738,44.762,43.5,42,43.5z"/>
	<path fill="#E8E8E8" d="M42,42c-2.088,0-3.926,1.068-5,2.687C35.926,43.068,34.088,42,32,42s-3.926,1.068-5,2.687
		C25.926,43.068,24.088,42,22,42c-3.313,0-6,2.687-6,6v16h2V48c0-2.208,1.791-4,4-4s4,1.792,4,4v16h2V48c0-2.208,1.791-4,4-4
		s4,1.792,4,4v16h2V48c0-2.208,1.791-4,4-4s4,1.792,4,4v16h2V48C48,44.687,45.313,42,42,42z"/>
	<rect x="18" y="48" fill="#594640" width="8" height="2"/>
	<rect x="28" y="48" fill="#594640" width="8" height="2"/>
	<rect x="38" y="48" fill="#594640" width="8" height="2"/>
	<rect x="21" y="48" fill="#594640" width="2" height="16"/>
	<rect x="31" y="48" fill="#594640" width="2" height="16"/>
	<rect x="41" y="48" fill="#594640" width="2" height="16"/>
	<rect x="28" y="26.063" fill="#3E4347" width="8" height="7.342"/>
	<g>
		<path fill="#E8E8E8" d="M41,34.841H23L32,20L41,34.841z M26.26,33.011h11.482L32,23.548L26.26,33.011z"/>
	</g>
	<g>
		<path fill="#E8E8E8" d="M32,40l-9-14.84h18L32,40z M26.26,26.989L32,36.452l5.742-9.463H26.26z"/>
	</g>
</g>
</svg>
