<?xml version="1.0" encoding="utf-8"?>
<!-- Generator: Adobe Illustrator 15.0.0, SVG Export Plug-In . SVG Version: 6.00 Build 0)  -->
<!DOCTYPE svg PUBLIC "-//W3C//DTD SVG 1.1//EN" "http://www.w3.org/Graphics/SVG/1.1/DTD/svg11.dtd">
<svg version="1.1" id="Layer_1" xmlns="http://www.w3.org/2000/svg" xmlns:xlink="http://www.w3.org/1999/xlink" x="0px" y="0px"
	 width="64px" height="64px" viewBox="0 0 64 64" enable-background="new 0 0 64 64" xml:space="preserve">
<g>
	<polygon fill="#3E4347" points="14.499,62 2,49.5 2,2 14.499,14.5 	"/>
	<rect x="14.499" y="14.5" fill="#3E4347" width="47.501" height="47.5"/>
	<g>
		<polygon fill="#3E4347" points="62,14.5 14.499,14.5 2,2 49.5,2 		"/>
		<path fill="#E8E8E8" d="M15.536,12h40.429l-7.5-7.5H8.036L15.536,12z"/>
		<polygon fill="#B2C1C0" points="10.535,7 15.536,12 52.215,12 47.215,7 		"/>
	</g>
	<rect x="14.499" y="29.5" fill="#DBB471" width="47.501" height="5"/>
	<polygon opacity="0.33" fill="#B2C1C0" points="14.499,62 2,49.5 2,2 14.499,14.5 	"/>
	<polygon fill="#FBBF67" points="14.499,34.5 2,22 2,17 14.499,29.5 	"/>
	<rect x="39.5" y="37" fill="#DBB471" width="13.75" height="5"/>
	<rect x="59.499" y="37" fill="#DBB471" width="2.501" height="5"/>
	<rect x="14.499" y="37" fill="#DBB471" width="2.501" height="5"/>
	<path fill="#DBB471" d="M37.729,38.589c-0.603-0.603-0.28-1.081-0.28-1.081L36.374,37L35.3,37.508c0,0,0.322,0.479-0.28,1.081
		c-0.287,0.288-0.521,0.633-0.521,1.067c0,0.42,0.307,0.701,0.48,1.05C35.304,41.354,35.637,42,36.374,42
		c0.738,0,1.071-0.646,1.396-1.294c0.174-0.349,0.479-0.63,0.479-1.05C38.249,39.222,38.017,38.877,37.729,38.589z"/>
	<path fill="#DBB471" d="M21.479,38.589c-0.602-0.603-0.28-1.081-0.28-1.081L20.124,37l-1.073,0.508c0,0,0.322,0.479-0.282,1.081
		c-0.286,0.288-0.52,0.633-0.52,1.067c0,0.42,0.306,0.701,0.48,1.05C19.053,41.354,19.388,42,20.124,42
		c0.738,0,1.073-0.646,1.396-1.294c0.176-0.349,0.479-0.63,0.479-1.05C21.999,39.222,21.767,38.877,21.479,38.589z"/>
	<path fill="#DBB471" d="M57.73,38.589c-0.604-0.603-0.282-1.081-0.282-1.081L56.375,37l-1.074,0.508c0,0,0.322,0.479-0.28,1.081
		c-0.288,0.288-0.521,0.633-0.521,1.067c0,0.42,0.304,0.701,0.479,1.05C55.302,41.354,55.638,42,56.375,42
		c0.736,0,1.071-0.646,1.396-1.294c0.174-0.349,0.479-0.63,0.479-1.05C58.25,39.222,58.016,38.877,57.73,38.589z"/>
	<polygon fill="#FBBF67" points="13.25,35.75 13.25,40.75 14.499,42 14.499,37 	"/>
	<rect x="33.249" y="44.5" fill="#E8E8E8" width="28.751" height="10.001"/>
	<rect x="14.499" y="44.5" fill="#E8E8E8" width="8.751" height="10.001"/>
	<path fill="#FBBF67" d="M12.452,36.517c-0.202-0.793-0.094-1.161-0.094-1.161L12,34.5l-0.359,0.147c0,0,0.108,0.579-0.093,0.978
		c-0.095,0.188-0.172,0.452-0.172,0.882c0,0.415,0.103,0.793,0.159,1.195c0.108,0.747,0.218,1.494,0.465,1.736
		c0.248,0.245,0.357-0.286,0.465-0.817c0.057-0.289,0.159-0.465,0.159-0.88C12.624,37.313,12.547,36.896,12.452,36.517z"/>
	<path fill="#FBBF67" d="M7.451,31.517c-0.199-0.794-0.093-1.161-0.093-1.161L6.999,29.5L6.64,29.648c0,0,0.108,0.579-0.091,0.976
		c-0.095,0.189-0.174,0.453-0.174,0.882c0,0.416,0.103,0.794,0.16,1.196c0.11,0.747,0.22,1.494,0.465,1.737
		c0.247,0.244,0.357-0.287,0.465-0.818c0.059-0.289,0.161-0.465,0.161-0.88C7.625,32.312,7.546,31.895,7.451,31.517z"/>
	<g>
		<polygon fill="#FBBF67" points="8.25,30.75 8.25,35.75 10.749,38.25 10.749,33.25 		"/>
	</g>
	<polygon fill="#FBBF67" points="3.249,25.75 3.249,30.75 5.75,33.25 5.75,28.25 	"/>
	<polygon fill="#E8E8E8" points="2,42 14.499,54.5 14.499,44.5 2,32 	"/>
	<rect x="33.249" y="44.5" opacity="0.2" fill="#3E4347" width="28.751" height="10.001"/>
	<rect x="14.499" y="44.5" opacity="0.2" fill="#3E4347" width="8.751" height="10.001"/>
	<rect x="14.499" y="54.501" fill="#DBB471" width="47.501" height="7.499"/>
	<rect x="14.499" y="54.501" opacity="0.5" fill="#3E4347" width="47.501" height="7.499"/>
	<polygon fill="#DBB471" points="14.499,62 2,49.5 2,42 14.499,54.5 	"/>
	<polygon opacity="0.25" fill="#3E4347" points="14.499,62 2,49.5 2,42 14.499,54.5 	"/>
	<rect x="23.25" y="42" fill="#FFCE31" width="9.999" height="17.5"/>
	<rect x="23.25" y="58.25" fill="#F2B200" width="9.999" height="1.25"/>
	<rect x="32" y="37" fill="#F2B200" width="1.249" height="22.5"/>
	<polygon fill="#DBB471" points="23.25,37 23.25,54.5 27.536,54.5 28.25,49.5 28.964,54.5 33.249,54.5 33.249,37 	"/>
	<polygon opacity="0.33" fill="#FFFFFF" points="30.75,47 25.749,47 24.5,45.75 25.749,44.5 30.75,44.5 32,45.75 	"/>
	<circle opacity="0.33" fill="#FFFFFF" cx="30.75" cy="50.75" r="1.251"/>
	<circle opacity="0.33" fill="#FFFFFF" cx="25.75" cy="50.75" r="1.25"/>
	<path opacity="0.33" fill="#FFFFFF" d="M25.792,41.012c-0.24-0.242-0.112-0.434-0.112-0.434l-0.43-0.203l-0.431,0.203
		c0,0,0.13,0.191-0.111,0.434c-0.114,0.113-0.207,0.253-0.207,0.426c0,0.168,0.121,0.281,0.19,0.42
		c0.13,0.26,0.264,0.518,0.559,0.518c0.294,0,0.43-0.258,0.558-0.518c0.07-0.139,0.192-0.252,0.192-0.42
		C26,41.265,25.907,41.125,25.792,41.012z"/>
	<path opacity="0.33" fill="#FFFFFF" d="M27.792,41.012c-0.242-0.242-0.113-0.434-0.113-0.434l-0.429-0.203l-0.43,0.203
		c0,0,0.128,0.191-0.112,0.434c-0.115,0.113-0.208,0.253-0.208,0.426c0,0.168,0.121,0.281,0.19,0.42
		c0.132,0.26,0.264,0.518,0.56,0.518c0.293,0,0.429-0.258,0.557-0.518c0.07-0.139,0.192-0.252,0.192-0.42
		C28,41.265,27.906,41.125,27.792,41.012z"/>
	<path opacity="0.33" fill="#FFFFFF" d="M29.792,41.012c-0.242-0.242-0.113-0.434-0.113-0.434l-0.429-0.203l-0.43,0.203
		c0,0,0.13,0.191-0.112,0.434c-0.113,0.113-0.208,0.253-0.208,0.426c0,0.168,0.123,0.281,0.192,0.42
		c0.13,0.26,0.264,0.518,0.558,0.518c0.295,0,0.429-0.258,0.559-0.518c0.07-0.139,0.192-0.252,0.192-0.42
		C30.001,41.265,29.906,41.125,29.792,41.012z"/>
	<path opacity="0.33" fill="#FFFFFF" d="M31.792,41.012c-0.242-0.242-0.111-0.434-0.111-0.434l-0.431-0.203l-0.428,0.203
		c0,0,0.128,0.191-0.114,0.434c-0.113,0.113-0.208,0.253-0.208,0.426c0,0.168,0.123,0.281,0.192,0.42
		c0.13,0.26,0.264,0.518,0.558,0.518c0.295,0,0.429-0.258,0.559-0.518c0.07-0.139,0.192-0.252,0.192-0.42
		C32,41.265,31.905,41.125,31.792,41.012z"/>
	<path fill="#DBB471" d="M14.499,59.278l-1.717-1.72v-2.055l1.717,1.718v-0.443l-3.592-3.594v-2.278l-0.313-0.313v2.277
		l-2.188-2.187v-2.278l-0.311-0.313v2.278l-3.439-3.438v-2.278l-0.311-0.313v2.278L2,44.278v0.444l0.78,0.78v2.057L2,46.777v0.445
		l2.344,2.344v2.277l0.311,0.313v-2.277l2.188,2.187v2.278l0.313,0.313v-2.277l4.061,4.063v2.277l0.313,0.313v-2.278l2.968,2.97
		V59.278z M5.593,50.372l-2.5-2.5v-2.056l2.5,2.499V50.372z M9.343,54.122l-3.437-3.438v-2.056l3.437,3.437V54.122z M12.468,57.247
		l-2.813-2.813v-2.056l2.813,2.813V57.247z"/>
	<path fill="#DBB471" d="M62,57.156v-0.313h-5.469v-2.343h-0.313v2.343h-4.765v-2.343h-0.313v2.343h-4.609v-2.343h-0.313v2.343
		h-4.063v-2.343h-0.312v2.343H36.53v-2.343h-0.312v2.343h-2.97v0.313h4.845v2.188H20.282v-2.188h2.968v-0.313h-4.843v-2.343h-0.313
		v2.343h-3.595v0.313h5.47v2.188h-5.47v0.312h1.095V62h0.311v-2.344h5.938V62h0.313v-2.344h4.937V62h0.311v-2.344h3.69V62h0.313
		v-2.344h2.937V62h0.312v-2.344h5.469V62h0.313v-2.344h4.999V62h0.313v-2.344h5.392V62h0.313v-2.344h4.765V62h0.313v-2.344H62
		v-0.312h-3.594v-2.188H62z M43.719,59.345h-5.313v-2.188h5.313V59.345z M47.469,59.345H44.03v-2.188h3.438V59.345z M53.094,59.345
		H47.78v-2.188h5.313V59.345z M58.093,59.345h-4.688v-2.188h4.688V59.345z"/>
</g>
</svg>
