<?xml version="1.0" encoding="utf-8"?>
<!-- Generator: Adobe Illustrator 15.0.0, SVG Export Plug-In . SVG Version: 6.00 Build 0)  -->
<!DOCTYPE svg PUBLIC "-//W3C//DTD SVG 1.1//EN" "http://www.w3.org/Graphics/SVG/1.1/DTD/svg11.dtd">
<svg version="1.1" id="Layer_1" xmlns="http://www.w3.org/2000/svg" xmlns:xlink="http://www.w3.org/1999/xlink" x="0px" y="0px"
	 width="64px" height="64px" viewBox="0 0 64 64" enable-background="new 0 0 64 64" xml:space="preserve">
<g>
	<path fill="#699635" d="M48.594,3.533c0,0,3.635,0.369,3.682,3.661c0.049,3.29,1.582,4.366,1.582,4.366s-4.662-1.452-4.783-3.983
		C48.955,5.048,48.949,4.793,48.594,3.533z"/>
	<path fill="#699635" d="M62.541,12.045c0,0-2.225,2.898-5.049,1.207c-2.824-1.688-4.545-0.948-4.545-0.948s3.686-3.203,5.9-1.977
		C61.063,11.555,61.281,11.686,62.541,12.045z"/>
	<path fill="#699635" d="M45.316,9.248c0,0,3.57-0.762,4.623,2.356c1.055,3.118,2.846,3.671,2.846,3.671s-4.883,0.046-5.775-2.324
		C46.121,10.58,46.039,10.34,45.316,9.248z"/>
	<path fill="#699635" d="M61.326,18.205c0,0-3.021,2.05-5.17-0.443c-2.148-2.49-4.016-2.33-4.016-2.33s4.506-1.881,6.223-0.019
		C60.08,17.274,60.246,17.468,61.326,18.205z"/>
	<path fill="#83BF4F" d="M56.227,4.33c-2.224,3.933-3.47,8.607-3.834,13.098c-0.422,4.645,0.32,9.337,2.939,13.274
		c0.03-0.017,0.06-0.032,0.09-0.048c-1.369-4.306-2.399-8.683-2.202-13.241c0.087-2.018,0.368-4.022,0.802-5.994
		c0.275-1.387,0.683-2.764,1.14-4.1C55.328,6.832,56.452,4.645,56.227,4.33L56.227,4.33z"/>
	<path fill="#699635" d="M59.391,0c0,0,1.373,3.386-1.514,4.965c-2.885,1.581-3.117,3.438-3.117,3.438s-0.896-4.8,1.283-6.09
		C58.221,1.024,58.443,0.902,59.391,0z"/>
	<path fill="#D0D0D0" d="M27.859,52.102c-4.059-14.824-26.4-2.173-26.4-2.173c19.982-19.99,28.869-18.342,32.797-13.658
		c2.721-14.315,6.039-18.869,19.326-17.391c0,0-8.928,4.244-6.143,21.963c2.783,17.717-11.174,29.584-35.672,19.398
		C11.768,60.241,21.307,59.1,27.859,52.102z"/>
	<g>
		<path fill="#94989B" d="M20.539,35.122C15.344,34.81,8.906,39.48,8.906,39.48S16.92,27.517,23.77,24.612
			c6.762-2.868,10.633-0.873,12.848,2.533c-0.932,2.445-1.666,5.467-2.361,9.125C31.904,33.465,27.77,31.749,20.539,35.122z"/>
	</g>
	<circle fill="#3E4347" cx="43.791" cy="22.018" r="0.931"/>
</g>
</svg>
