<?xml version="1.0" encoding="utf-8"?>
<!-- Generator: Adobe Illustrator 15.0.0, SVG Export Plug-In . SVG Version: 6.00 Build 0)  -->
<!DOCTYPE svg PUBLIC "-//W3C//DTD SVG 1.1//EN" "http://www.w3.org/Graphics/SVG/1.1/DTD/svg11.dtd">
<svg version="1.1" id="Layer_1" xmlns="http://www.w3.org/2000/svg" xmlns:xlink="http://www.w3.org/1999/xlink" x="0px" y="0px"
	 width="64px" height="64px" viewBox="0 0 64 64" enable-background="new 0 0 64 64" xml:space="preserve">
<g>
	<g>
		<g>
			<path fill="#222526" d="M3.587,32.594c3.984-13.409,8.265-19.593,10.104-19.593c0.975,0,1.306,0.675,1.662,2.225
				c0.854,3.716,0.053,4.892-0.455,5.409c-0.699,0.714-1.838,0.128-1.838-3.838c-0.937,2.294-5.33,10.44-7.646,19.026L3.587,32.594z
				"/>
		</g>
		<g>
			<path fill="#222526" d="M60.408,32.594c-3.984-13.409-8.266-19.593-10.105-19.593c-0.974,0-1.305,0.675-1.66,2.225
				c-0.854,3.716-0.054,4.892,0.453,5.409c0.7,0.714,1.838,0.128,1.838-3.838c0.938,2.294,5.332,10.44,7.646,19.026L60.408,32.594z"
				/>
		</g>
	</g>
	<g>
		<g>
			<path fill="#363B3D" d="M36.122,33.292c-2.356,1.206-5.891,1.206-8.247,0c-2.518-1.323-5.593-2.171-9.275-2.502
				c-3.595-0.323-11.215-0.313-15.027,1.063c-0.438,0.157-0.868,0.361-1.283,0.58c-0.234,0.121-0.281,0.211-0.281,0.66v0.579
				c0,1.09-0.133,0.666,0.627,1.12c1.479,0.889,2.32,3.193,2.771,6.367c0.641,4.625,2.855,7.523,6.453,8.908
				c3.338,1.283,7.072,1.238,10.384-0.115c1.812-0.741,3.401-1.914,4.665-3.816c2.216-3.336,1.552-5.418,2.695-8.283
				c0.996-2.502,3.794-2.502,4.792,0c1.144,2.865,0.479,4.947,2.694,8.283c1.263,1.902,2.854,3.075,4.666,3.816
				c3.312,1.354,7.046,1.398,10.384,0.115c3.596-1.385,5.813-4.283,6.453-8.908c0.449-3.174,1.291-5.479,2.771-6.367
				c0.76-0.454,0.627-0.03,0.627-1.12v-0.579c0-0.449-0.048-0.539-0.281-0.66c-0.415-0.219-0.847-0.423-1.282-0.58
				c-3.813-1.375-11.435-1.387-15.027-1.063C41.715,31.121,38.639,31.969,36.122,33.292"/>
		</g>
		<g>
			<path fill="#5F6566" d="M26.184,35.053c-0.832-0.629-2.358-1.104-4.18-1.428c-1.047-0.188-2.189-0.324-3.354-0.413
				c-2.737-0.208-5.58-0.15-7.547,0.157C9.885,33.56,9,33.846,8.697,34.224c-1.416,1.773-1.128,6.314,0.315,9.473
				c0.387,0.847,0.852,1.598,1.393,2.164c0.923,0.967,2.127,1.617,3.455,2.021c0.885,0.269,1.822,0.418,2.779,0.472
				c1.6,0.09,3.237-0.086,4.723-0.492c0.259-0.07,0.5-0.168,0.738-0.272c4.309-1.894,5.416-9.101,4.729-11.69
				C26.747,35.59,26.52,35.31,26.184,35.053z"/>
			<path fill="#5F6566" d="M55.658,34.479c-0.055-0.086-0.104-0.179-0.165-0.254c-0.599-0.75-3.457-1.14-6.733-1.138
				c-1.188,0.002-2.43,0.054-3.642,0.158c-1.325,0.114-2.608,0.294-3.741,0.537c-2.156,0.465-3.763,1.163-4.016,2.112
				c-0.418,1.566-0.174,4.824,1.035,7.576c0.492,1.119,1.144,2.154,1.979,2.956c0.689,0.663,1.501,1.173,2.452,1.431
				c0.155,0.043,0.321,0.068,0.479,0.106c3,0.712,6.508,0.546,9.027-0.983c0.525-0.319,1.025-0.678,1.45-1.121
				C56.266,43.267,57.215,36.933,55.658,34.479z"/>
		</g>
	</g>
</g>
</svg>
