<?xml version="1.0" encoding="utf-8"?>
<!-- Generator: Adobe Illustrator 15.0.0, SVG Export Plug-In . SVG Version: 6.00 Build 0)  -->
<!DOCTYPE svg PUBLIC "-//W3C//DTD SVG 1.1//EN" "http://www.w3.org/Graphics/SVG/1.1/DTD/svg11.dtd">
<svg version="1.1" id="Layer_1" xmlns="http://www.w3.org/2000/svg" xmlns:xlink="http://www.w3.org/1999/xlink" x="0px" y="0px"
	 width="64px" height="64px" viewBox="0 0 64 64" enable-background="new 0 0 64 64" xml:space="preserve">
<g>
	<g>
		<path fill="#242A33" d="M56.933,48.136c-0.711-3.015-3.235-9.021-4.797-11.799c-2.293-4.083-37.983-4.081-40.276,0
			c-1.561,2.779-4.087,8.784-4.797,11.799c-0.381,1.617,1.109,9.305,1.109,9.305c0.418,2.508,2.845,4.561,5.393,4.561h36.84
			c2.548,0,4.975-2.053,5.394-4.561C55.798,57.44,57.336,49.851,56.933,48.136z"/>
		<path fill="#A1ACB3" d="M56.128,46.415c-0.475,0.82-1.234,1.548-2.231,1.98c-0.495,0.219-1.052,0.342-1.616,0.374l-1.563,0.085
			c-2.081,0.094-4.163,0.182-6.244,0.235c-4.163,0.131-8.327,0.165-12.489,0.183c-4.163-0.016-8.326-0.05-12.488-0.18
			c-2.082-0.055-4.164-0.143-6.245-0.236l-1.571-0.086c-0.543-0.031-1.119-0.155-1.608-0.373c-0.997-0.434-1.756-1.162-2.23-1.982
			c0.636,0.727,1.493,1.293,2.424,1.562c0.475,0.13,0.937,0.187,1.436,0.161l1.551-0.084c2.081-0.095,4.163-0.183,6.245-0.237
			c4.163-0.13,8.326-0.165,12.488-0.179c4.162,0.017,8.326,0.051,12.489,0.182c2.081,0.055,4.163,0.143,6.244,0.236l1.559,0.083
			c0.477,0.026,0.959-0.031,1.428-0.161C54.635,47.708,55.493,47.143,56.128,46.415z"/>
		<path fill="#6B7278" d="M7.841,53.427c0.476-0.82,1.235-1.547,2.231-1.979c0.496-0.219,1.051-0.343,1.616-0.374l1.563-0.084
			c2.082-0.094,4.163-0.182,6.245-0.236c4.162-0.131,8.326-0.166,12.488-0.182c4.164,0.014,8.326,0.049,12.489,0.18
			c2.081,0.055,4.163,0.142,6.245,0.235l1.571,0.085c0.542,0.031,1.119,0.156,1.607,0.375c0.996,0.433,1.756,1.16,2.23,1.98
			c-0.636-0.727-1.494-1.291-2.424-1.561c-0.475-0.129-0.938-0.188-1.435-0.16l-1.551,0.084c-2.082,0.094-4.164,0.182-6.245,0.236
			c-4.163,0.13-8.325,0.164-12.489,0.179c-4.163-0.017-8.326-0.051-12.488-0.181c-2.082-0.055-4.163-0.144-6.245-0.237l-1.559-0.083
			c-0.477-0.027-0.958,0.031-1.427,0.16C9.334,52.134,8.477,52.7,7.841,53.427z"/>
	</g>
	<g>
		<g>
			<ellipse fill="#53585B" cx="36.019" cy="40.896" rx="11.888" ry="4.484"/>
			<ellipse fill="#676E72" cx="36.02" cy="37.907" rx="10.637" ry="3.539"/>
			<ellipse fill="#53585B" cx="36.018" cy="35.47" rx="9.386" ry="3.067"/>
		</g>
		<path fill="#D2CFCF" d="M39.764,17.131h-7.608v16.946c0,1.855,7.608,1.855,7.608,0V17.131z"/>
		<ellipse fill="#ED4C5C" cx="35.959" cy="12.394" rx="10.486" ry="10.393"/>
	</g>
	<g>
		<path fill="#A5000C" d="M24.13,35.067H13.96v2.246c1.798,2.184,8.373,2.184,10.17,0V35.067z"/>
		<ellipse fill="#ED4C5C" cx="19.045" cy="35.067" rx="5.085" ry="2.246"/>
	</g>
</g>
</svg>
