<?xml version="1.0" encoding="utf-8"?>
<!-- Generator: Adobe Illustrator 15.0.0, SVG Export Plug-In . SVG Version: 6.00 Build 0)  -->
<!DOCTYPE svg PUBLIC "-//W3C//DTD SVG 1.1//EN" "http://www.w3.org/Graphics/SVG/1.1/DTD/svg11.dtd">
<svg version="1.1" id="Layer_1" xmlns="http://www.w3.org/2000/svg" xmlns:xlink="http://www.w3.org/1999/xlink" x="0px" y="0px"
	 width="64px" height="64px" viewBox="0 0 64 64" enable-background="new 0 0 64 64" xml:space="preserve">
<g>
	<path fill="#594640" d="M39.367,42.566c0,0,8.043-3.297,8.963-1.23c4.34,9.761-10.846,12.67-16.112,12.563
		c-5.306-0.108-21.891-4.002-16.112-12.801c1.475-2.247,8.961,1.469,8.961,1.469H39.367z"/>
	<g>
		<path fill="#594640" d="M24.587,53.078c-0.919,2.001,1.06,3.978,3.059,3.058l2.715-2.717l-3.057-3.058L24.587,53.078z"/>
		<path fill="#594640" d="M39.413,53.078l-2.718-2.717l-3.056,3.058l2.715,2.717C38.354,57.056,40.332,55.079,39.413,53.078z"/>
	</g>
	<rect x="28.926" y="26.904" fill="#FED0AC" width="6.148" height="4.687"/>
	<path fill="#594640" d="M24.17,29.575l4.758-0.26c0,0.963,1.373,1.75,3.07,1.75c1.697,0,3.076-0.787,3.076-1.75l4.766,0.26
		L39.15,44.611h-14.3L24.17,29.575z"/>
	<g>
		<path fill="#594640" d="M19.213,10.134c0,2.323,0,9.42,0,9.42H44.79c0,0,0-7.097,0-9.42C44.79-2.044,19.213-2.044,19.213,10.134z"
			/>
		<path fill="#FED0AC" d="M18.34,17.94c0-4.218,3.076-2.077,3.076-2.077C21.974,4.779,24.927,10.766,32,10.766
			c7.077,0,10.027-5.987,10.591,5.097c0,0,3.068-2.141,3.068,2.077c0,1.614-0.585,2.935-2.568,3.074
			C42.254,27.54,38.089,28.886,32,28.886c-6.09,0-10.247-1.346-11.087-7.872C18.928,20.875,18.34,19.554,18.34,17.94z"/>
		<g>
			<path fill="#594640" d="M35.107,22.466c0,0.911,0.77,1.654,1.711,1.654c0.947,0,1.717-0.743,1.717-1.654
				c0-0.915-0.77-1.65-1.717-1.65C35.877,20.816,35.107,21.552,35.107,22.466z"/>
		</g>
		<g>
			<path fill="#594640" d="M25.23,22.466c0,0.911,0.766,1.654,1.712,1.654c0.942,0,1.714-0.743,1.714-1.654
				c0-0.915-0.771-1.65-1.714-1.65C25.996,20.816,25.23,21.552,25.23,22.466z"/>
		</g>
	</g>
	<g>
		<g>
			<path fill="#594640" d="M46.137,29.55l-1.119,5.903l-3.359-4.927c-1.469-2.164-4.363-0.313-2.891,1.853l5.346,7.84
				c0,0,0.793,0.867,1.98,0.621c1.186-0.248,1.654-1.377,1.654-1.377l1.738-9.179L46.137,29.55z"/>
			<path fill="#FED0AC" d="M48.43,26.642c-0.924-0.203-1.707-0.193-2.293,2.908l3.35,0.734
				C50.076,27.183,49.361,26.844,48.43,26.642z"/>
		</g>
		<g>
			<path fill="#594640" d="M17.864,29.55l1.119,5.903l3.357-4.927c1.471-2.164,4.365-0.313,2.891,1.853l-5.344,7.84
				c0,0-0.793,0.867-1.98,0.621c-1.188-0.248-1.656-1.377-1.656-1.377l-1.736-9.179L17.864,29.55z"/>
			<path fill="#FED0AC" d="M15.569,26.642c0.924-0.203,1.709-0.193,2.295,2.908l-3.35,0.734
				C13.922,27.183,14.639,26.844,15.569,26.642z"/>
		</g>
	</g>
	<path fill="#FFFFFF" d="M32,40.884c0,0,4.791-6.81,4.31-9.143c-0.102-0.482-0.861-1.308-1.418-1.86
		c-0.416,0.687-1.549,1.185-2.896,1.185c-1.344,0-2.477-0.498-2.891-1.182c-0.557,0.553-1.316,1.377-1.416,1.857
		C27.208,34.074,32,40.884,32,40.884z"/>
	<g>
		<path fill="#594640" d="M33.281,39.156l-0.429-6.196h-1.707l-0.43,6.187C31.434,40.29,32,41.098,32,41.098
			S32.563,40.294,33.281,39.156z"/>
		<path fill="#594640" d="M32.852,32.513l0.695-1.694c-0.451,0.153-0.98,0.247-1.548,0.247s-1.094-0.093-1.547-0.246l0.693,1.693
			H32.852z"/>
	</g>
	<ellipse fill="#594640" cx="32" cy="61.401" rx="14.464" ry="1.599"/>
</g>
</svg>
