<?xml version="1.0" encoding="utf-8"?>
<!-- Generator: Adobe Illustrator 15.0.0, SVG Export Plug-In . SVG Version: 6.00 Build 0)  -->
<!DOCTYPE svg PUBLIC "-//W3C//DTD SVG 1.1//EN" "http://www.w3.org/Graphics/SVG/1.1/DTD/svg11.dtd">
<svg version="1.1" id="Layer_1" xmlns="http://www.w3.org/2000/svg" xmlns:xlink="http://www.w3.org/1999/xlink" x="0px" y="0px"
	 width="64px" height="64px" viewBox="0 0 64 64" enable-background="new 0 0 64 64" xml:space="preserve">
<g>
	<path fill="#2C3033" d="M57.368,37.326c0,0-7.03-4.256-26.441-4.256v29.411l17.21-4.375L57.368,37.326z"/>
	<path fill="#2C3033" d="M7.285,37.326c0,0,7.03-4.256,26.441-4.256v29.411l-17.21-4.375L7.285,37.326z"/>
	<path fill="#62727A" d="M64,64c0-20.615-14.325-16.811-32-16.811S0,43.385,0,64H64z"/>
	<polygon fill="#2C3033" points="21.791,49.019 32.407,64 41.475,49.678 	"/>
	<path fill="#D6A57C" d="M42.586,48.635c-5.068,5.516-16.104,5.516-21.172,0c-3.845-4.186-3.75-23.67-3.75-23.67h28.672
		C46.336,24.965,46.431,44.449,42.586,48.635z"/>
	<path fill="#B58360" d="M34.885,40.051c0,0.832-1.292,1.506-2.885,1.506s-2.885-0.674-2.885-1.506
		C29.115,39.217,34.885,39.217,34.885,40.051z"/>
	<g>
		<g>
			<path fill="#62727A" d="M32.246,64H11.405c2.762-11.957-4.12-26.674-4.12-26.674s8.965,7.466,17.166,7.466L32.246,64z"/>
		</g>
	</g>
	<g>
		<g>
			<path fill="#62727A" d="M32.407,64h20.841c-2.762-11.957,4.12-26.674,4.12-26.674s-8.965,7.466-17.166,7.466L32.407,64z"/>
		</g>
	</g>
	<g>
		<path fill="#2C3033" d="M18.841,31.915c0,0-0.875-0.163-1.563,0.131c-0.441,0.19-0.292-1.931,0-2.346
			c0.397-0.563,1.563-0.536,1.563-0.536V31.915z"/>
		<g>
			<path fill="#2C3033" d="M45.16,31.915c0,0,0.874-0.163,1.562,0.131c0.442,0.19,0.293-1.931,0-2.346
				c-0.396-0.563-1.562-0.536-1.562-0.536V31.915z"/>
			<path fill="#2C3033" d="M45.001,28.983c-0.827-0.525-4.03-0.566-5.945-0.566c-1.092,0-4.719,0.032-5.522,0.454
				C33.419,28.932,32,28.961,32,28.961s-1.418-0.029-1.533-0.09c-0.804-0.422-4.431-0.454-5.522-0.454
				c-1.914,0-5.117,0.041-5.945,0.566c-1.313,0.833-1.273,2.208-0.541,6.138c0.383,2.051,1.36,3.133,7.364,3.294
				c5.313,0.142,4.688-6.342,6.178-6.342s0.865,6.483,6.179,6.342c6.002-0.161,6.981-1.243,7.363-3.294
				C46.274,31.191,46.314,29.816,45.001,28.983z"/>
		</g>
		<g>
			<g>
				<path fill="#383B3D" d="M29.896,29.84c-0.436-0.279-2.468-0.468-5.057-0.468c-2.649,0-4.891,0.198-5.332,0.473
					c-0.726,0.448-0.945,1.305-0.228,4.968c0.262,1.337,0.938,1.605,1.59,1.867l0.191,0.078c1.035,0.432,2.787,0.653,4.698,0.594
					c1.87-0.059,2.209-0.37,2.799-1.064c0.569-0.672,2.107-3.85,1.846-5.549C30.339,30.316,30.168,30.015,29.896,29.84z"/>
			</g>
			<g>
				<path fill="#383B3D" d="M34.104,29.84c0.436-0.279,2.468-0.468,5.057-0.468c2.648,0,4.891,0.198,5.333,0.473
					c0.725,0.448,0.944,1.305,0.228,4.968c-0.263,1.337-0.938,1.605-1.591,1.867l-0.191,0.078c-1.034,0.432-2.787,0.653-4.697,0.594
					c-1.871-0.059-2.21-0.37-2.799-1.064c-0.569-0.672-2.108-3.85-1.847-5.549C33.661,30.316,33.832,30.015,34.104,29.84z"/>
			</g>
		</g>
	</g>
	<g>
		<path fill="#62727A" d="M48.5,21.762c-7.188-7.276,0.063-20.404-5.529-17.294c-4.085,2.271-8.104,3.654-10.972,3.654
			s-6.885-1.383-10.972-3.654c-5.592-3.11,1.659,10.018-5.528,17.294c-6.875,3.673-9.858,3.203-9.858,4.11
			c0,0.493,2.921,4.912,26.358,4.912s26.36-4.419,26.36-4.912C58.359,24.965,55.375,25.435,48.5,21.762z"/>
		<g>
			<path fill="#2C3033" d="M31.999,23.055c7.59,0,13.018-0.438,16.902-1.081c0,0-0.263-0.159-0.401-0.233
				c-0.755-0.765-1.342-1.596-1.811-2.463c-3.665,0.471-8.443,0.785-14.69,0.785s-11.024-0.314-14.69-0.785
				c-0.467,0.867-1.055,1.698-1.81,2.463c-0.139,0.074-0.401,0.233-0.401,0.233C18.981,22.617,24.409,23.055,31.999,23.055z"/>
		</g>
	</g>
</g>
</svg>
