<?xml version="1.0" encoding="utf-8"?>
<!-- Generator: Adobe Illustrator 15.0.0, SVG Export Plug-In . SVG Version: 6.00 Build 0)  -->
<!DOCTYPE svg PUBLIC "-//W3C//DTD SVG 1.1//EN" "http://www.w3.org/Graphics/SVG/1.1/DTD/svg11.dtd">
<svg version="1.1" id="Layer_1" xmlns="http://www.w3.org/2000/svg" xmlns:xlink="http://www.w3.org/1999/xlink" x="0px" y="0px"
	 width="64px" height="64px" viewBox="0 0 64 64" enable-background="new 0 0 64 64" xml:space="preserve">
<g>
	<path fill="#979797" d="M64,31.658h-5.61C51.121,26.741,46.5,18.501,45.997,9.561l2.804-4.998L47.198,3.61l-2.806,5.001
		c-7.773,4.02-17.013,4.02-24.786-0.001l-2.806-5l-1.603,0.952l2.805,5C17.5,18.502,12.878,26.741,5.609,31.658H0v1.905h5.61
		c7.269,4.916,11.89,13.155,12.393,22.095l-2.805,5l1.603,0.952l2.807-5.002c7.771-4.019,17.011-4.02,24.784,0l2.807,5.002
		l1.603-0.952l-2.804-4.998c0.503-8.94,5.124-17.181,12.393-22.097H64V31.658z M55.251,31.658h-5.503
		c-4.744-3.198-7.757-8.566-8.073-14.392l2.751-4.906C45.527,19.955,49.41,26.882,55.251,31.658z M32,30.706l-2.293-4.087
		c0.742,0.167,1.498,0.261,2.256,0.261c0.784,0,1.567-0.097,2.336-0.275L32,30.706z M35.895,27.571
		c0.47,1.519,1.257,2.916,2.31,4.087h-4.603L35.895,27.571z M30.397,31.658h-4.584c1.044-1.178,1.826-2.578,2.283-4.101
		L30.397,31.658z M30.397,33.563l-2.291,4.084c-0.47-1.518-1.257-2.914-2.308-4.084H30.397z M32,34.515l2.292,4.087
		c-1.512-0.34-3.083-0.339-4.592,0.015L32,34.515z M33.602,33.563h4.585c-1.043,1.177-1.826,2.577-2.284,4.101L33.602,33.563z
		 M41.026,31.658c-2.136-1.501-3.509-3.923-3.738-6.573l2.855-5.089c0.832,4.529,3.147,8.653,6.541,11.662H41.026z M35.711,24.088
		c-2.33,1.153-5.053,1.167-7.397,0.046l-2.855-5.09c2.114,0.761,4.327,1.149,6.542,1.149c2.213,0,4.426-0.389,6.541-1.149
		L35.711,24.088z M26.686,25.042c-0.196,2.655-1.548,5.088-3.663,6.616h-5.707c3.393-3.007,5.707-7.132,6.541-11.66L26.686,25.042z
		 M22.975,33.563c2.136,1.5,3.508,3.922,3.736,6.57l-2.854,5.089c-0.834-4.527-3.147-8.652-6.54-11.659H22.975z M28.288,41.132
		c2.33-1.152,5.053-1.165,7.398-0.046l2.854,5.089c-4.226-1.522-8.853-1.522-13.08,0.001L28.288,41.132z M37.314,40.181
		c0.195-2.653,1.546-5.088,3.66-6.617h5.709c-3.393,3.007-5.708,7.132-6.54,11.661L37.314,40.181z M32,13.533
		c3.677,0,7.353-0.717,10.823-2.127l-2.753,4.909c-5.06,2.626-11.083,2.626-16.143-0.001l-2.752-4.908
		C24.646,12.816,28.321,13.533,32,13.533z M19.574,12.361l2.752,4.906c-0.319,5.826-3.331,11.197-8.073,14.391H8.749
		C14.589,26.882,18.473,19.957,19.574,12.361z M8.75,33.563h5.503c4.742,3.196,7.754,8.565,8.072,14.39l-2.752,4.906
		C18.473,45.265,14.59,38.339,8.75,33.563z M21.175,53.813l2.753-4.908c5.06-2.626,11.083-2.626,16.142-0.001l2.753,4.908
		C35.883,50.993,28.116,50.993,21.175,53.813z M44.426,52.859l-2.751-4.905c0.317-5.825,3.329-11.196,8.072-14.391h5.504
		C49.41,38.339,45.526,45.265,44.426,52.859z"/>
</g>
</svg>
