<?xml version="1.0" encoding="utf-8"?>
<!-- Generator: Adobe Illustrator 15.0.0, SVG Export Plug-In . SVG Version: 6.00 Build 0)  -->
<!DOCTYPE svg PUBLIC "-//W3C//DTD SVG 1.1//EN" "http://www.w3.org/Graphics/SVG/1.1/DTD/svg11.dtd">
<svg version="1.1" id="Layer_1" xmlns="http://www.w3.org/2000/svg" xmlns:xlink="http://www.w3.org/1999/xlink" x="0px" y="0px"
	 width="64px" height="64px" viewBox="0 0 64 64" enable-background="new 0 0 64 64" xml:space="preserve">
<g>
	<path fill="#594640" d="M60,40c-4.988,0-9-8-9-12.999c0-9.996-9.022-18-19-18s-19,8.004-19,18C13,32,8.988,40,4,40H0v13h64V40H60z"
		/>
	<circle fill="#FED0AC" cx="32" cy="28" r="15"/>
	<g>
		<circle fill="#333333" cx="32" cy="28" r="2"/>
		<path fill="#333333" d="M40.107,30C40.842,30,43,28,43,28s-2.158-1.999-2.893-1.999c-0.599,0-1.103,0.595-1.271,1.413H31v1.176
			h7.836C39.005,29.406,39.509,30,40.107,30z"/>
		<polygon fill="#333333" points="32,13.695 31,27.695 33,27.695 		"/>
	</g>
	<rect x="3" y="53" fill="#D3976E" width="8" height="2"/>
	<rect x="53" y="53" fill="#D3976E" width="8" height="2"/>
</g>
</svg>
