<?xml version="1.0" encoding="utf-8"?>
<!-- Generator: Adobe Illustrator 15.0.0, SVG Export Plug-In . SVG Version: 6.00 Build 0)  -->
<!DOCTYPE svg PUBLIC "-//W3C//DTD SVG 1.1//EN" "http://www.w3.org/Graphics/SVG/1.1/DTD/svg11.dtd">
<svg version="1.1" id="Layer_1" xmlns="http://www.w3.org/2000/svg" xmlns:xlink="http://www.w3.org/1999/xlink" x="0px" y="0px"
	 width="64px" height="64px" viewBox="0 0 64 64" enable-background="new 0 0 64 64" xml:space="preserve">
<g>
	<g>
		<polygon fill="#44363C" points="51.905,26 49.632,26.705 51.809,27.667 49.467,28.089 51.498,29.329 49.12,29.42 50.948,30.943 
			48.584,30.675 50.156,32.461 47.862,31.831 49.146,33.834 46.97,32.871 47.953,35.037 45.928,33.787 46.629,36.061 44.767,34.577 
			45.211,36.916 43.51,35.251 43.731,37.62 42.185,35.811 42.214,38.19 40.81,36.269 40.673,38.645 39.394,36.637 39.109,39.001 
			37.945,36.924 37.532,39.269 36.479,37.135 35.959,39.458 34.996,37.28 34.381,39.579 33.506,37.364 32.799,39.638 32,37.391 
			31.208,39.638 30.501,37.364 29.63,39.58 29.011,37.281 28.049,39.459 27.527,37.136 26.471,39.27 26.061,36.925 24.895,39.001 
			24.606,36.637 23.322,38.643 23.181,36.266 21.77,38.184 21.8,35.805 20.247,37.61 20.47,35.241 18.767,36.903 19.216,34.567 
			17.354,36.048 18.056,33.773 16.029,35.021 17.018,32.857 14.841,33.817 16.129,31.818 13.834,32.445 15.41,30.664 13.047,30.931 
			14.878,29.412 12.501,29.322 14.534,28.085 12.192,27.667 14.369,26.704 12.096,26 14.371,25.236 12.202,24.208 14.553,23.722 
			12.522,22.441 14.914,22.239 13.048,20.728 15.448,20.805 13.767,19.091 16.143,19.437 14.661,17.548 16.986,18.148 15.71,16.114 
			17.961,16.95 16.896,14.799 19.055,15.85 18.201,13.607 20.252,14.855 19.607,12.543 21.537,13.972 21.099,11.611 22.897,13.201 
			22.661,10.812 24.32,12.547 24.281,10.147 25.794,12.011 25.951,9.615 27.311,11.594 27.655,9.218 28.855,11.297 29.383,8.954 
			30.422,11.119 31.126,8.823 32,11.06 32.872,8.823 33.575,11.119 34.614,8.954 35.142,11.296 36.343,9.217 36.687,11.593 
			38.046,9.614 38.202,12.01 39.716,10.146 39.678,12.546 41.338,10.812 41.102,13.201 42.902,11.611 42.465,13.972 44.396,12.545 
			43.751,14.857 45.802,13.608 44.948,15.853 47.106,14.8 46.042,16.953 48.293,16.118 47.017,18.15 49.343,17.552 47.86,19.44 
			50.235,19.093 48.555,20.808 50.953,20.731 49.087,22.24 51.479,22.444 49.448,23.723 51.799,24.21 49.629,25.237 		"/>
	</g>
	<g>
		<g>
			<g>
				<g>
					<path fill="#75676D" d="M39.34,36.568c0,0,10.423-2.26,17.328-8.688c1.604-1.494-4.156-6.438-4.156-6.438
						s3.104,4.135,0.938,6.303c-2.072,2.072-10.294,5.236-11.392,5.133L39.34,36.568z"/>
				</g>
			</g>
			<g>
				<g>
					<path fill="#5B4C52" d="M38.937,36.654c0,0,11.582-4.188,17.356-9.117c1.685-1.438-3.781-6.094-3.781-6.094
						s3.251,3.781,1.625,5.406c-2.072,2.072-11.453,6.059-12.552,5.953L38.937,36.654z"/>
				</g>
			</g>
		</g>
		<g>
			<g>
				<g>
					<path fill="#75676D" d="M21.943,32.879c-1.098,0.104-9.319-3.061-11.392-5.133c-2.167-2.168,0.938-6.303,0.938-6.303
						s-5.76,4.943-4.156,6.438c6.905,6.428,17.328,8.688,17.328,8.688L21.943,32.879z"/>
				</g>
			</g>
			<g>
				<g>
					<path fill="#5B4C52" d="M22.416,32.803c-1.099,0.105-10.479-3.881-12.552-5.953c-1.626-1.625,1.625-5.406,1.625-5.406
						S6.023,26.1,7.708,27.537c5.774,4.93,17.356,9.117,17.356,9.117L22.416,32.803z"/>
				</g>
			</g>
		</g>
	</g>
	<g>
		<g>
			<g>
				<g>
					<path fill="#75676D" d="M40.353,38.488c0,0,5.396,1.756,16.514-4.297c2.584-1.406-5.632,11.771-6.843,14.02
						c1.732-2.172,15.438-16.395,9.241-17.166c-3.903-0.482-12.758,4.055-14.15,3.555L40.353,38.488z"/>
				</g>
			</g>
			<g>
				<g>
					<path fill="#5B4C52" d="M39.799,38.467c0,0,6.733,0.285,15.882-4.197c2.67-1.309-4.446,11.693-5.657,13.941
						c1.732-2.172,14.104-15.66,7.907-16.432c-3.899-0.484-12.013,3.064-13.405,2.564L39.799,38.467z"/>
				</g>
			</g>
		</g>
		<g>
			<g>
				<g>
					<path fill="#75676D" d="M18.886,34.6c-1.393,0.5-10.247-4.037-14.15-3.555c-6.197,0.771,7.509,14.994,9.241,17.166
						c-1.211-2.248-9.426-15.426-6.843-14.02c11.117,6.053,16.514,4.297,16.514,4.297L18.886,34.6z"/>
				</g>
			</g>
			<g>
				<g>
					<path fill="#5B4C52" d="M19.475,34.344c-1.393,0.5-9.506-3.049-13.405-2.564c-6.197,0.771,6.175,14.26,7.907,16.432
						C12.766,45.963,5.65,32.961,8.32,34.27c9.148,4.482,15.882,4.197,15.882,4.197L19.475,34.344z"/>
				</g>
			</g>
		</g>
	</g>
	<g>
		<polygon fill="#5B4C52" points="47.911,36.232 46.094,36.796 47.834,37.566 45.962,37.902 47.585,38.895 45.685,38.967 
			47.147,40.184 45.257,39.97 46.515,41.396 44.68,40.893 45.705,42.494 43.967,41.724 44.754,43.455 43.135,42.456 43.695,44.273 
			42.206,43.089 42.56,44.959 41.201,43.625 41.378,45.52 40.145,44.073 40.168,45.975 39.043,44.44 38.937,46.339 37.912,44.734 
			37.684,46.624 36.752,44.964 36.43,46.838 35.583,45.134 35.169,46.99 34.398,45.249 33.906,47.087 33.204,45.315 32.637,47.133 
			32,45.338 31.369,47.133 30.802,45.315 30.106,47.088 29.61,45.249 28.837,46.991 28.417,45.133 27.567,46.838 27.238,44.962 
			26.304,46.622 26.077,44.731 25.05,46.335 24.94,44.436 23.811,45.968 23.834,44.064 22.594,45.509 22.775,43.615 21.413,44.943 
			21.772,43.075 20.284,44.258 20.849,42.443 19.228,43.438 20.019,41.708 18.279,42.476 19.31,40.878 17.476,41.381 18.738,39.958 
			16.848,40.17 18.313,38.959 16.414,38.888 18.038,37.897 16.166,37.563 17.906,36.794 16.089,36.232 17.908,35.621 16.175,34.8 
			18.054,34.412 16.43,33.389 18.342,33.226 16.851,32.018 18.769,32.079 17.425,30.709 19.324,30.986 18.139,29.477 19.998,29.956 
			18.978,28.331 20.777,28.998 19.927,27.278 21.651,28.12 20.969,26.325 22.608,27.324 22.093,25.475 23.636,26.617 23.285,24.73 
			24.723,26.001 24.533,24.091 25.859,25.479 25.829,23.56 27.039,25.049 27.164,23.134 28.251,24.716 28.525,22.817 29.485,24.479 
			29.907,22.606 30.736,24.336 31.301,22.501 32,24.289 32.698,22.501 33.26,24.336 34.09,22.605 34.512,24.479 35.471,22.816 
			35.747,24.716 36.833,23.133 36.958,25.049 38.167,23.558 38.138,25.478 39.466,24.091 39.279,26.002 40.718,24.731 
			40.367,26.618 41.909,25.477 41.395,27.326 43.034,26.328 42.353,28.122 44.075,27.28 43.226,29 45.024,28.333 44.005,29.959 
			45.863,29.479 44.68,30.991 46.577,30.713 45.232,32.081 47.151,32.023 45.659,33.229 47.57,33.391 45.947,34.413 47.826,34.801 
			46.092,35.623 		"/>
	</g>
	<g>
		<g>
			<g>
				<ellipse fill="#FFE62E" cx="37.425" cy="33.926" rx="4.722" ry="4.805"/>
				<path fill="#3F3438" d="M40.683,33.926c0,1.824-1.453,3.305-3.248,3.305c-1.79,0-3.245-1.48-3.245-3.305
					s1.455-3.305,3.245-3.305C39.229,30.621,40.683,32.102,40.683,33.926z"/>
			</g>
		</g>
		<g>
			<g>
				<ellipse fill="#FFE62E" cx="26.575" cy="33.926" rx="4.723" ry="4.805"/>
				<path fill="#3F3438" d="M29.833,33.926c0,1.824-1.453,3.305-3.248,3.305c-1.79,0-3.246-1.48-3.246-3.305
					s1.456-3.305,3.246-3.305C28.379,30.621,29.833,32.102,29.833,33.926z"/>
			</g>
		</g>
	</g>
	<g>
		<g>
			<g>
				<g>
					<path fill="#75676D" d="M40.59,41.896c0,0,4.624,3.289,17.043,0.84c2.886-0.572-8.895,9.547-10.723,11.33
						c2.303-1.555,19.636-11.027,13.952-13.617c-3.579-1.627-13.387,0.055-14.565-0.84L40.59,41.896z"/>
				</g>
			</g>
			<g>
				<g>
					<path fill="#5B4C52" d="M40.067,41.711c0,0,6.341,2.285,16.41,0.744c2.939-0.449-7.739,9.828-9.567,11.611
						c2.303-1.555,18.143-10.725,12.46-13.314c-3.576-1.629-12.379-0.668-13.559-1.563L40.067,41.711z"/>
				</g>
			</g>
		</g>
		<g>
			<g>
				<g>
					<path fill="#75676D" d="M17.704,39.609c-1.179,0.895-10.986-0.787-14.565,0.84c-5.683,2.59,11.649,12.063,13.952,13.617
						c-1.828-1.783-13.608-11.902-10.723-11.33c12.419,2.449,17.043-0.84,17.043-0.84L17.704,39.609z"/>
				</g>
			</g>
			<g>
				<g>
					<path fill="#5B4C52" d="M18.189,39.189c-1.18,0.895-9.982-0.066-13.559,1.563c-5.683,2.59,10.157,11.76,12.46,13.314
						c-1.828-1.783-12.507-12.061-9.567-11.611c10.069,1.541,16.41-0.744,16.41-0.744L18.189,39.189z"/>
				</g>
			</g>
		</g>
	</g>
	<path fill="#FFFFFF" d="M35.063,40.973c0-1.049-1.371-0.211-3.063-0.211c-1.691,0-3.063-0.838-3.063,0.211
		c0,1.051,1.371,1.902,3.063,1.902C33.691,42.875,35.063,42.023,35.063,40.973z"/>
	<path fill="#E24B4B" d="M40.001,15.875c0,0-3.582-0.939-8-0.939c-4.42,0-8,0.939-8,0.939s3.58-3.045,8-3.045
		C36.419,12.83,40.001,15.875,40.001,15.875z"/>
	<path fill="#E24B4B" d="M40,18.316c0,0-3.582-1.217-8-1.217C27.582,17.1,24,18.316,24,18.316s3.582-3.498,8.001-3.498
		C36.418,14.818,40,18.316,40,18.316z"/>
	<g>
		<g>
			<g>
				<g>
					<path fill="#75676D" d="M36.836,44.18c0,0,2.33,2.645,10.186,2.928c1.826,0.064-6.732,4.508-8.092,5.328
						c1.613-0.613,13.438-3.879,10.371-6.252c-1.934-1.492-8.104-1.867-8.689-2.576L36.836,44.18z"/>
				</g>
			</g>
			<g>
				<g>
					<path fill="#5B4C52" d="M36.549,43.994c0,0,3.508,2.281,9.816,2.779c1.838,0.145-6.076,4.842-7.436,5.662
						c1.613-0.613,12.492-3.908,9.426-6.281c-1.934-1.492-7.391-2.16-7.977-2.871L36.549,43.994z"/>
				</g>
			</g>
		</g>
		<g>
			<g>
				<g>
					<path fill="#75676D" d="M23.388,43.371c-0.586,0.709-6.756,1.082-8.688,2.574c-3.068,2.375,8.758,5.641,10.369,6.254
						c-1.357-0.82-9.918-5.264-8.092-5.328c7.855-0.283,10.186-2.928,10.186-2.928L23.388,43.371z"/>
				</g>
			</g>
			<g>
				<g>
					<path fill="#5B4C52" d="M23.623,43.047c-0.586,0.709-6.045,1.379-7.977,2.871c-3.068,2.373,7.813,5.668,9.424,6.281
						c-1.357-0.82-9.273-5.518-7.434-5.664c6.309-0.496,9.816-2.779,9.816-2.779L23.623,43.047z"/>
				</g>
			</g>
		</g>
	</g>
</g>
</svg>
