<?xml version="1.0" encoding="utf-8"?>
<!-- Generator: Adobe Illustrator 15.0.0, SVG Export Plug-In . SVG Version: 6.00 Build 0)  -->
<!DOCTYPE svg PUBLIC "-//W3C//DTD SVG 1.1//EN" "http://www.w3.org/Graphics/SVG/1.1/DTD/svg11.dtd">
<svg version="1.1" id="Layer_1" xmlns="http://www.w3.org/2000/svg" xmlns:xlink="http://www.w3.org/1999/xlink" x="0px" y="0px"
	 width="64px" height="64px" viewBox="0 0 64 64" enable-background="new 0 0 64 64" xml:space="preserve">
<g>
	<path fill="#63A1BA" d="M62,40.295c0,5.91-13.432,10.703-30.001,10.703c-0.334,0-0.668-0.002-1-0.006l-2.714-2.708l-2.968,2.448
		c-4.027-0.327-7.746-0.943-10.977-1.784l-3.243-3.325l-2.233,1.486C4.577,45.258,2,42.883,2,40.295
		C2,34.382,15.431,29.59,31.999,29.59C48.568,29.59,62,34.382,62,40.295z"/>
	<g>
		<path fill="#538AA5" d="M31.999,43.457c9.153,0,17.344,1.465,22.846,3.771c2.414-1.012,4.307-2.184,5.537-3.468
			c-4.039-4.21-15.216-7.237-28.382-7.237S7.656,39.551,3.618,43.761c1.181,1.231,2.973,2.361,5.25,3.345l1.586-3.303l3.299,1.865
			C18.808,44.281,25.133,43.457,31.999,43.457z"/>
		<path fill="#467591" d="M14.387,48.958c3.214,0.833,6.909,1.446,10.909,1.771l2.599-1.972l3.126,2.234
			c0.324,0.004,0.65,0.006,0.979,0.006c9.153,0,17.344-1.465,22.846-3.77c-5.502-2.307-13.692-3.771-22.846-3.771
			c-6.906,0-13.264,0.834-18.333,2.234C12.017,46.146,14.387,48.958,14.387,48.958z"/>
	</g>
	<g>
		<path fill="#DFE9EF" d="M26.38,16.146l-2.926,0.443l5.016,34.332c0.833,0.035,1.677,0.057,2.529,0.067L26.38,16.146z"/>
		<path fill="#B0BDC6" d="M24.313,16.562h-2.889l3.87,34.165c1.039,0.084,2.098,0.15,3.175,0.195L24.313,16.562z"/>
		<g>
			<g>
				<g>
					<path fill="#DFE9EF" d="M12.047,32.61l11.616-3.312c0,0,1.047-0.147,1.285,0.588c0.347,1.066-0.635,1.693-0.635,1.693
						l-12.112,2.253L12.047,32.61z"/>
					<path fill="#8B979E" d="M12.202,33.833l12.819-3.567c0.045,0.834-0.707,1.314-0.707,1.314l-11.946,3.564L12.202,33.833z"/>
				</g>
				<g>
					<path fill="#DFE9EF" d="M13.667,45.754l11.616-3.313c0,0,1.047-0.146,1.286,0.588c0.346,1.066-0.635,1.694-0.635,1.694
						l-12.112,2.252L13.667,45.754z"/>
					<path fill="#8B979E" d="M13.821,46.976l12.818-3.567c0.045,0.834-0.706,1.315-0.706,1.315l-11.947,3.563L13.821,46.976z"/>
				</g>
			</g>
			<path fill="#DFE9EF" d="M10.362,19.295l-2.564,0.451l4.247,28.538c0.734,0.233,1.5,0.454,2.296,0.661L10.362,19.295z"/>
			<path fill="#B0BDC6" d="M8.296,19.71H5.407l3.449,27.396c0.976,0.422,2.045,0.814,3.189,1.179L8.296,19.71z"/>
			<polygon fill="#333333" points="8.109,16.146 4.505,16.396 4.945,20.084 8.55,20.465 9.098,18.049 			"/>
			<polygon fill="#484A4C" points="10.458,16.146 8.109,16.146 8.55,20.465 10.73,19.71 			"/>
		</g>
		<polygon fill="#333333" points="20.522,13.248 20.883,17.003 24.516,17.162 25.129,14.834 24.105,12.998 		"/>
		<polyline fill="#484A4C" points="24.105,12.998 26.476,12.998 26.749,16.562 24.516,17.162 		"/>
	</g>
</g>
</svg>
