<?xml version="1.0" encoding="utf-8"?>
<!-- Generator: Adobe Illustrator 15.0.0, SVG Export Plug-In . SVG Version: 6.00 Build 0)  -->
<!DOCTYPE svg PUBLIC "-//W3C//DTD SVG 1.1//EN" "http://www.w3.org/Graphics/SVG/1.1/DTD/svg11.dtd">
<svg version="1.1" id="Layer_1" xmlns="http://www.w3.org/2000/svg" xmlns:xlink="http://www.w3.org/1999/xlink" x="0px" y="0px"
	 width="64px" height="64px" viewBox="0 0 64 64" enable-background="new 0 0 64 64" xml:space="preserve">
<g>
	<g>
		<path fill="#3E4347" d="M20.542,54.614c0.885-9.919,5.367-9.703,3.03-12.041c-2.338-2.336,0.295-0.322-12.322,3.262
			c-4.473,1.27-6.41,5.271-6.725,8.814C4.416,55.643,3.704,60.271,0,61.603c0,0,7.809,0.848,11.698,0.01l0,0
			C15.667,61.366,20.121,59.386,20.542,54.614z"/>
		<path fill="#94989B" d="M11.569,45.741c0,0,2.784,0.314,2.413,2.411c-0.371,2.102,2.205,0.054,2.269,1.724
			c0.06,1.666,2.887,0.568,2.794,2.246c-0.081,1.684,1.806,0.953,1.502,2.493c-0.302,1.546-0.733,3.208-1.871,4.173
			c-1.14,0.961,0.356-4.786-0.931-3.629c-1.289,1.156-0.967-2.89-2.846-2.072c-1.882,0.816-0.32-3.272-2.394-2.395
			c-2.076,0.883-1.424-2.961-2.659-2.656c-1.235,0.307-1.076-1.078-1.076-1.078S9.928,46.245,11.569,45.741z"/>
		<path fill="#ED4C5C" d="M4.641,53.761c0,0-0.652,6.35-4.642,7.842c0,0,8.365,1.125,12.433-0.053c0,0,2.005-0.694-0.203-1.808
			c-2.209-1.115-0.354-1.97-1.565-1.827c-1.211,0.146,1.205-1.748-0.713-1.547c-1.922,0.201-0.402-2.521-1.663-1.854
			c-1.265,0.663-0.948-1.979-1.586-1.138c-0.642,0.84-0.359-0.934-0.969-0.708S4.753,52.866,4.641,53.761z"/>
		<path fill="#FFC7CE" d="M10.795,59.89c0,0-0.381,0.33-1.06,0.58c-0.337,0.109-0.729,0.296-1.17,0.379
			c-0.439,0.085-0.914,0.126-1.388,0.167c-0.476,0.015-0.95,0.046-1.402-0.056c-0.448-0.064-0.862-0.205-1.215-0.285
			c-0.705-0.203-1.147-0.447-1.147-0.447s0.486-0.191,1.176-0.32c0.692-0.148,1.583-0.168,2.481-0.26
			c0.9-0.047,1.812,0.03,2.508,0.066C10.284,59.794,10.795,59.89,10.795,59.89z"/>
	</g>
	<path fill="#89664C" d="M21.224,51.06l-6.373-6.373c0,0,27.834-30.758,37.4-40.741c2.625-2.739,7.032-2.683,9.715,0l0,0
		c2.684,2.682,2.739,7.09,0,9.715C51.983,23.226,21.224,51.06,21.224,51.06z"/>
	<path fill="#D3976E" d="M20.177,50.03l-4.294-4.295c0,0,27.462-29.434,36.813-39.066c2.564-2.643,6.182-3.252,7.989-1.444l0,0
		c1.81,1.808,1.199,5.425-1.443,7.99C49.61,22.566,20.177,50.03,20.177,50.03z"/>
	
		<rect x="14.148" y="44.34" transform="matrix(0.7071 0.7071 -0.7071 0.7071 38.681 0.1704)" fill="#C7D3D8" width="9.973" height="4.874"/>
	
		<rect x="15.952" y="44.339" transform="matrix(0.707 0.7072 -0.7072 0.707 38.6854 0.1723)" fill="#FFFFFF" width="6.366" height="4.875"/>
</g>
</svg>
