<?xml version="1.0" encoding="utf-8"?>
<!-- Generator: Adobe Illustrator 15.0.0, SVG Export Plug-In . SVG Version: 6.00 Build 0)  -->
<!DOCTYPE svg PUBLIC "-//W3C//DTD SVG 1.1//EN" "http://www.w3.org/Graphics/SVG/1.1/DTD/svg11.dtd">
<svg version="1.1" id="Layer_1" xmlns="http://www.w3.org/2000/svg" xmlns:xlink="http://www.w3.org/1999/xlink" x="0px" y="0px"
	 width="64px" height="64px" viewBox="0 0 64 64" enable-background="new 0 0 64 64" xml:space="preserve">
<g>
	<g>
		<path fill="none" d="M44.569,5.311C44.541,5.323,44.547,5.32,44.569,5.311L44.569,5.311z"/>
		<path fill="none" d="M45.928,5.104C45.946,5.107,45.951,5.107,45.928,5.104L45.928,5.104z"/>
		<g>
			<path fill="none" d="M45.928,5.104C45.946,5.107,45.951,5.107,45.928,5.104L45.928,5.104z"/>
			<path fill="none" d="M44.569,5.311C44.541,5.323,44.547,5.32,44.569,5.311L44.569,5.311z"/>
			<g>
				<path fill="none" d="M45.928,5.104C45.946,5.107,45.951,5.107,45.928,5.104L45.928,5.104z"/>
				<path fill="none" d="M44.569,5.311C44.541,5.323,44.547,5.32,44.569,5.311L44.569,5.311z"/>
				<g>
					<path fill="none" d="M45.928,5.104C45.946,5.107,45.951,5.107,45.928,5.104L45.928,5.104z"/>
					<path fill="none" d="M44.569,5.311C44.541,5.323,44.547,5.32,44.569,5.311L44.569,5.311z"/>
					<path fill="#93A2AA" d="M36.595,15.104c-1.741,2.571-6.112,5.292-10.017,7.343c0.194,0.193,0.58,0.772,0.835,0.835
						c1.086-0.478,2.191-0.907,3.267-1.407c2.244-1.042,4.428-2.257,6.356-3.817c3.95-3.197,5.541-12.781,8.36-12.969
						c1.755-0.127,3.453,2.362,4.59,3.501c0.579-0.581,1.161-1.162,1.742-1.743c0.09-0.088-1.287-1.371-1.432-1.515
						c-1.729-1.73-3.722-3.524-6.373-2.453C40.313,4.342,38.592,12.151,36.595,15.104z M45.928,5.104
						C45.946,5.107,45.951,5.107,45.928,5.104L45.928,5.104z M44.569,5.311C44.541,5.323,44.547,5.32,44.569,5.311L44.569,5.311z"/>
				</g>
			</g>
		</g>
	</g>
	<g>
		<path fill="#93A2AA" d="M2.278,60.854c-0.297,0.352-0.369,0.813-0.156,1.027c0.21,0.207,0.672,0.137,1.021-0.163l2.335-1.752
			l-1.443-1.445L2.278,60.854z"/>
		<polygon fill="#42ADE2" points="28.289,26.257 37.743,35.714 61.113,10.685 53.301,2.871 		"/>
		
			<rect x="17.64" y="26.904" transform="matrix(-0.7071 -0.7071 0.7071 -0.7071 10.6643 86.0941)" fill="#42ADE2" width="11.046" height="27.868"/>
		<polygon fill="#C7D3D8" points="3.219,57.703 6.296,60.781 17.215,54.597 9.405,46.786 		"/>
		<polygon fill="#C7D3D8" points="31.208,23.37 40.646,32.808 37.743,35.714 28.289,26.257 		"/>
		<path fill="#42ADE2" d="M53.831,3.401l6.767,6.767c1.869-1.868,1.869-4.898,0-6.767S55.7,1.534,53.831,3.401z"/>
		
			<rect x="50.925" y="6.168" transform="matrix(-0.7071 -0.7071 0.7071 -0.7071 91.9526 52.4212)" fill="#C7D3D8" width="11.818" height="1.994"/>
	</g>
</g>
</svg>
