<?xml version="1.0" encoding="utf-8"?>
<!-- Generator: Adobe Illustrator 15.0.0, SVG Export Plug-In . SVG Version: 6.00 Build 0)  -->
<!DOCTYPE svg PUBLIC "-//W3C//DTD SVG 1.1//EN" "http://www.w3.org/Graphics/SVG/1.1/DTD/svg11.dtd">
<svg version="1.1" id="Layer_1" xmlns="http://www.w3.org/2000/svg" xmlns:xlink="http://www.w3.org/1999/xlink" x="0px" y="0px"
	 width="64px" height="64px" viewBox="0 0 64 64" enable-background="new 0 0 64 64" xml:space="preserve">
<g>
	<path fill="#71AD3E" d="M18.314,51.746l-6.059-6.059c-0.938-0.939-2.246-0.805-2.904,0.301L2.402,57.632
		c-0.66,1.106-0.49,2.72,0.38,3.587c0.868,0.868,2.483,1.04,3.586,0.379l11.646-6.945C19.117,53.992,19.252,52.686,18.314,51.746z"
		/>
	<path fill="#83BF4F" d="M21.595,55.215c-1.174,1.173-3.106,1.141-4.319-0.072l-8.417-8.416c-1.213-1.214-1.245-3.147-0.073-4.32
		L48.333,2.859c1.173-1.173,3.106-1.141,4.319,0.072l8.416,8.417c1.213,1.212,1.245,3.146,0.073,4.319L21.595,55.215z"/>
	
		<rect x="25.907" y="5.59" transform="matrix(0.7071 0.7071 -0.7071 0.7071 30.7731 -16.2186)" fill="#3E4347" width="18.114" height="46.895"/>
	<g>
		
			<rect x="37.629" y="14.999" transform="matrix(0.7071 0.7071 -0.7071 0.7071 25.9158 -27.9398)" fill="#52C18E" width="18.115" height="4.631"/>
		
			<rect x="14.186" y="38.444" transform="matrix(0.7071 0.7071 -0.7071 0.7071 35.6296 -4.4967)" fill="#52C18E" width="18.114" height="4.63"/>
	</g>
	<path fill="#52C18E" d="M34.964,29.037c-4.304,4.304-10.662,4.928-14.198,1.391l15.589-15.589
		C39.891,18.375,39.27,24.732,34.964,29.037z"/>
</g>
</svg>
