<?xml version="1.0" encoding="utf-8"?>
<!-- Generator: Adobe Illustrator 15.0.0, SVG Export Plug-In . SVG Version: 6.00 Build 0)  -->
<!DOCTYPE svg PUBLIC "-//W3C//DTD SVG 1.1//EN" "http://www.w3.org/Graphics/SVG/1.1/DTD/svg11.dtd">
<svg version="1.1" id="Layer_1" xmlns="http://www.w3.org/2000/svg" xmlns:xlink="http://www.w3.org/1999/xlink" x="0px" y="0px"
	 width="64px" height="64px" viewBox="0 0 64 64" enable-background="new 0 0 64 64" xml:space="preserve">
<g>
	<path fill="none" d="M51.799,51.802c-0.707-2.001-2.295-3.588-4.295-4.295C48.211,49.507,49.799,51.094,51.799,51.802z"/>
	<path fill="#42ADE2" d="M51.799,51.802c-2-0.708-3.588-2.295-4.295-4.295c-0.258-0.733-0.402-1.52-0.4-2.34v-0.695l0.002-37.404
		c-0.002-2.338,1.902-4.242,4.238-4.24c2.271-0.002,4.129,1.79,4.238,4.032L55.555,6.86l0.008,33.307v-0.001
		c0,0.789-0.639,1.427-1.426,1.425c-0.768,0.002-1.391-0.604-1.424-1.363c0,0-0.039-28.395-0.041-28.858
		c0-0.771-0.641-1.411-1.412-1.413c-0.77,0-1.359,0.645-1.357,1.413c0.002,0.642-0.016,28.401-0.016,28.736
		c0,0.735,0.17,1.413,0.5,2.069c0.373,0.747,1.061,1.414,1.813,1.775c0.93,0.447,1.924,0.562,2.934,0.338
		c1.875-0.423,3.242-2.202,3.256-4.1l-0.01-33.12l0.033-0.001c0-3.896-3.17-7.067-7.066-7.067s-7.068,3.172-7.068,7.068V44.28v0.888
		c0.002,0.662,0.068,1.311,0.191,1.938c0.777,3.875,3.83,6.935,7.697,7.725c0.023-0.228,0.035-0.457,0.037-0.69
		C52.199,53.321,52.059,52.533,51.799,51.802z"/>
	<path fill="#42ADE2" d="M61.174,11.369c0,0.546,0,32.328-0.002,33.359c0.002,0.146,0.002,0.292,0.002,0.438
		c0,3.646-2.789,6.652-6.346,7c0.131,0.638,0.197,1.298,0.197,1.974c0.002,0.286-0.014,0.57-0.037,0.851
		C60.031,54.557,64,50.316,64,45.167c0-0.547-0.002-33.651,0-33.799c0-0.769-0.645-1.412-1.414-1.413
		C61.816,9.957,61.174,10.6,61.174,11.369z"/>
	<path fill="#ED4C5C" d="M44.277,44.28c-5.338-0.001-32.775,0-32.91,0c-0.77,0-1.412,0.642-1.412,1.412
		c0,0.771,0.643,1.414,1.414,1.412c0.525,0.001,29.895,0,33.1,0.001c-0.123-0.627-0.189-1.275-0.191-1.938V44.28z"/>
	<path fill="#ED4C5C" d="M54.828,52.167c-0.789-3.868-3.852-6.921-7.725-7.695v0.695c-0.002,0.82,0.143,1.606,0.4,2.34
		c2,0.707,3.588,2.294,4.295,4.295c0.26,0.731,0.4,1.52,0.404,2.338c-0.002,0.233-0.014,0.463-0.037,0.69
		c-0.346,3.556-3.354,6.345-7,6.346l-38.1-0.002c-2.34,0.001-4.242-1.902-4.24-4.241c-0.002-2.267,1.791-4.126,4.033-4.236
		l-0.002,0.029l33.311-0.01l-0.002,0.001c0.787,0,1.424,0.639,1.424,1.425c0.002,0.768-0.604,1.392-1.361,1.423
		c0,0-28.396,0.042-28.859,0.043c-0.771,0-1.414,0.64-1.412,1.411c-0.002,0.77,0.641,1.359,1.412,1.356
		c0.641,0,28.398,0.016,28.734,0.016c0.734,0,1.412-0.17,2.07-0.497c0.746-0.374,1.414-1.063,1.777-1.814
		c0.445-0.928,0.561-1.924,0.336-2.934c-0.422-1.873-2.199-3.24-4.1-3.256l-33.121,0.01l0.002-0.033C3.172,49.865,0,53.037,0,56.934
		S3.172,64,7.066,64h38.1c5.15,0.001,9.391-3.97,9.822-9.009c0.023-0.28,0.039-0.564,0.037-0.851
		C55.025,53.465,54.959,52.805,54.828,52.167z"/>
</g>
</svg>
