<?xml version="1.0" encoding="utf-8"?>
<!-- Generator: Adobe Illustrator 15.0.0, SVG Export Plug-In . SVG Version: 6.00 Build 0)  -->
<!DOCTYPE svg PUBLIC "-//W3C//DTD SVG 1.1//EN" "http://www.w3.org/Graphics/SVG/1.1/DTD/svg11.dtd">
<svg version="1.1" id="Layer_1" xmlns="http://www.w3.org/2000/svg" xmlns:xlink="http://www.w3.org/1999/xlink" x="0px" y="0px"
	 width="64px" height="64px" viewBox="0 0 64 64" enable-background="new 0 0 64 64" xml:space="preserve">
<g>
	<path fill="#94989B" d="M12.299,43.786l7.912,7.912l-6.1,10.057c0,0-6.359-0.695-12.531,2.244l9.977-9.976
		c0.461,0.022,0.93-0.139,1.28-0.486c0.655-0.658,0.655-1.719,0-2.377c-0.655-0.653-1.718-0.653-2.375,0.002
		c-0.351,0.351-0.511,0.819-0.485,1.28L0,62.42c2.939-6.174,2.245-12.532,2.245-12.532L12.299,43.786z"/>
	<path fill="#3E4347" d="M61.543,2.458c3.276,3.278,3.275,8.592,0,11.867L56.868,19c0,0-1.827,4.996-10.926,14.091
		c-9.101,9.101-14.094,10.927-14.094,10.927l-9.659,9.663L10.319,41.81l9.661-9.659c0,0,1.828-4.992,10.928-14.092
		c9.1-9.1,14.093-10.93,14.093-10.93l4.672-4.672C52.952-0.818,58.265-0.818,61.543,2.458z"/>
	
		<rect x="50.607" y="3.884" transform="matrix(-0.7071 0.7071 -0.7071 -0.7071 96.9808 -15.6209)" fill="#94989B" width="2.237" height="16.783"/>
	
		<rect x="24.003" y="30.485" transform="matrix(-0.7065 0.7078 -0.7078 -0.7065 70.3867 48.5602)" fill="#94989B" width="2.239" height="16.783"/>
</g>
</svg>
