<?xml version="1.0" encoding="utf-8"?>
<!-- Generator: Adobe Illustrator 15.0.0, SVG Export Plug-In . SVG Version: 6.00 Build 0)  -->
<!DOCTYPE svg PUBLIC "-//W3C//DTD SVG 1.1//EN" "http://www.w3.org/Graphics/SVG/1.1/DTD/svg11.dtd">
<svg version="1.1" id="Layer_1" xmlns="http://www.w3.org/2000/svg" xmlns:xlink="http://www.w3.org/1999/xlink" x="0px" y="0px"
	 width="64px" height="64px" viewBox="0 0 64 64" enable-background="new 0 0 64 64" xml:space="preserve">
<g>
	<g>
		<path fill="#FFDD67" d="M34.01,42.253l7.832,1.524l6.436-32.922c0.432-2.207-0.959-4.387-3.115-4.806l-0.021-0.004
			c-2.156-0.42-4.264,1.078-4.707,3.35L34.01,42.253z"/>
		<path fill="#EBA352" d="M45.162,6.049l-0.021-0.004C44.906,6,44.672,5.986,44.441,5.984c1.76,0.697,2.824,2.635,2.441,4.599
			l-6.436,32.923l1.395,0.271l6.436-32.922C48.709,8.648,47.318,6.468,45.162,6.049z"/>
	</g>
	<g>
		<path fill="#FFDD67" d="M26.041,43.336h9.428V6.972C35.469,4.228,33.361,2,30.758,2l0,0c-2.604,0-4.717,2.229-4.717,4.973V43.336z
			"/>
		<path fill="#EBA352" d="M30.758,2c-0.242,0-0.479,0.037-0.711,0.076c2.264,0.363,4.002,2.408,4.002,4.896v36.364h1.42V6.972
			C35.469,4.228,33.361,2,30.758,2z"/>
	</g>
	<g>
		<path fill="#FFDD67" d="M21.01,43.173l7.951-2.069L20.307,7.981c-0.605-2.313-2.873-3.726-5.064-3.155L15.229,4.83
			c-2.193,0.57-3.479,2.908-2.875,5.222L21.01,43.173z"/>
		<path fill="#EBA352" d="M15.242,4.826L15.229,4.83c-0.232,0.061-0.449,0.149-0.66,0.248c1.955-0.143,3.824,1.193,4.365,3.261
			l8.654,33.122l1.373-0.356L20.307,7.981C19.701,5.667,17.434,4.255,15.242,4.826z"/>
	</g>
	<g>
		<path fill="#FFDD67" d="M4.004,13.403c-1.885,0.946-2.537,3.288-1.537,5.271l13.246,26.27l6.695-3.362L9.162,15.313
			C8.162,13.33,5.889,12.456,4.004,13.403L4.004,13.403z"/>
		<path fill="#EBA352" d="M4.004,13.403c-0.221,0.11-0.416,0.242-0.602,0.385c1.729-0.472,3.605,0.408,4.49,2.162l13.246,26.271
			l1.27-0.639L9.162,15.313C8.162,13.33,5.889,12.456,4.004,13.403z"/>
	</g>
	<path fill="#FFDD67" d="M61.68,29.269c-1.561-3.066-6.59-2.914-11.717,2.711c-3.582,3.93-4.344,5.155-7.936,5.151v-4.117
		c0,0-7.703-5.739-23.041-3.12c0,0-8.732,1.225-8.732,5.754c0,0-1.484,11.104,1.598,18.084c4.592,10.398,28.174,13.139,35.609-4.559
		c1.48-3.518,4.479-6.135,7.164-9.428C57.859,35.777,63.389,32.632,61.68,29.269z"/>
	<g>
		<path fill="#EBA352" d="M61.68,29.269c-0.295-0.582-0.719-1.045-1.24-1.381c0.084,0.125,0.168,0.248,0.238,0.387
			c1.709,3.363-3.82,6.508-7.055,10.475c-2.686,3.295-5.684,5.912-7.164,9.43c-6.447,15.342-25.021,15.318-32.844,8.266
			c7.109,8.02,27.105,8.766,33.846-7.271c1.48-3.518,4.479-6.135,7.164-9.428C57.859,35.777,63.389,32.632,61.68,29.269z"/>
	</g>
	<g>
		<path fill="#EBA352" d="M24.564,50.152c0-6.092,4.617-11.035,10.361-11.18c-1.014-0.441-2.115-0.701-3.279-0.701
			c-4.777,0-8.652,4.084-8.652,9.121c0,2.203,0.748,4.213,1.979,5.789C24.715,52.217,24.564,51.205,24.564,50.152z"/>
		<path fill="#EBA352" d="M24.318,46.871c0.369-2.893-1.348-5.703-4.1-6.484c-0.436-0.125-0.875-0.188-1.305-0.201
			c1.004-0.854,2.365-1.207,3.703-0.826c2.223,0.633,3.537,3.047,2.938,5.393C25.338,45.602,24.898,46.324,24.318,46.871z"/>
	</g>
	<path fill="#EBA352" d="M42.309,33.201c-6.555-4.219-23.633-4.387-30.84,0C17.885,25.648,38.008,27.357,42.309,33.201z"/>
</g>
</svg>
