<?xml version="1.0" encoding="utf-8"?>
<!-- Generator: Adobe Illustrator 15.0.0, SVG Export Plug-In . SVG Version: 6.00 Build 0)  -->
<!DOCTYPE svg PUBLIC "-//W3C//DTD SVG 1.1//EN" "http://www.w3.org/Graphics/SVG/1.1/DTD/svg11.dtd">
<svg version="1.1" id="Layer_1" xmlns="http://www.w3.org/2000/svg" xmlns:xlink="http://www.w3.org/1999/xlink" x="0px" y="0px"
	 width="64px" height="64px" viewBox="0 0 64 64" enable-background="new 0 0 64 64" xml:space="preserve">
<g>
	<path fill="#B47D56" d="M31.147,43.48l7.657,1.828l7.604-32.686c0.51-2.189-0.777-4.424-2.883-4.928l-0.023-0.006
		c-2.107-0.502-4.24,0.914-4.766,3.17L31.147,43.48z"/>
	<path fill="#B47D56" d="M22.103,41.318l9.045,2.162l8.243-35.434c0.623-2.674-0.896-5.33-3.394-5.926l0,0
		c-2.496-0.598-5.029,1.09-5.651,3.764L22.103,41.318z"/>
	<path fill="#B47D56" d="M20.307,42.781l8.446-2.201L18.94,7.568c-0.685-2.309-3.128-3.684-5.456-3.076l-0.014,0.004
		c-2.329,0.605-3.661,2.967-2.976,5.273L20.307,42.781z"/>
	<path fill="#B47D56" d="M6.873,11.544c-2.167,0.564-3.333,2.738-2.696,4.881l8.43,28.362l7.7-2.006l-8.43-28.364
		C11.241,12.277,9.043,10.978,6.873,11.544L6.873,11.544z"/>
	<path fill="#935E3E" d="M43.525,7.695l-0.023-0.006c-0.227-0.053-0.459-0.076-0.686-0.088c1.707,0.768,2.686,2.746,2.23,4.697
		L37.443,44.98l1.361,0.328l7.604-32.686C46.918,10.433,45.631,8.199,43.525,7.695z"/>
	<path fill="#935E3E" d="M35.997,2.121c-0.232-0.057-0.466-0.074-0.698-0.09c2.09,0.873,3.293,3.266,2.73,5.689l-8.243,35.434
		l1.361,0.326l8.243-35.434C40.014,5.373,38.494,2.716,35.997,2.121z"/>
	<path fill="#935E3E" d="M13.484,4.492l-0.014,0.004c-0.247,0.064-0.478,0.156-0.701,0.258c2.085-0.174,4.1,1.133,4.712,3.193
		l9.811,33.014l1.461-0.381L18.94,7.568C18.256,5.259,15.813,3.884,13.484,4.492z"/>
	<path fill="#935E3E" d="M6.873,11.544c-0.251,0.064-0.483,0.156-0.706,0.262c1.904-0.129,3.689,1.098,4.251,2.99l8.43,28.366
		l1.459-0.381l-8.43-28.364C11.241,12.277,9.043,10.978,6.873,11.544z"/>
	<path fill="#B47D56" d="M59.688,29.232c-1.537-3.07-6.496-2.918-11.553,2.713c-3.529,3.936-4.279,5.161-7.822,5.157V32.98
		c0,0-7.597-5.744-22.718-3.123c0,0-8.609,1.227-8.609,5.76c0,0-1.462,11.115,1.576,18.104c4.527,10.41,27.774,13.154,35.108-4.563
		c1.459-3.523,4.414-6.141,7.063-9.438C55.922,35.746,61.371,32.599,59.688,29.232z"/>
	<g>
		<g>
			<path fill="#935E3E" d="M59.688,29.232c-0.291-0.582-0.709-1.047-1.223-1.383c0.082,0.125,0.164,0.248,0.234,0.387
				c1.684,3.367-3.766,6.516-6.955,10.487c-2.648,3.299-5.604,5.918-7.061,9.439c-6.359,15.359-24.671,15.336-32.382,8.275
				c7.008,8.027,26.722,8.775,33.368-7.279c1.459-3.523,4.414-6.141,7.063-9.438C55.922,35.746,61.371,32.599,59.688,29.232z"/>
		</g>
	</g>
	<g>
		<g>
			<path fill="#935E3E" d="M23.094,50.137c0-6.098,4.554-11.047,10.218-11.191c-1.001-0.439-2.088-0.701-3.234-0.701
				c-4.711,0-8.531,4.088-8.531,9.131c0,2.205,0.738,4.217,1.951,5.795C23.242,52.203,23.094,51.191,23.094,50.137z"/>
			<path fill="#935E3E" d="M22.853,46.852c0.362-2.895-1.328-5.707-4.041-6.49c-0.432-0.125-0.862-0.188-1.287-0.201
				c0.99-0.854,2.332-1.207,3.65-0.826c2.191,0.633,3.486,3.049,2.896,5.396C23.858,45.58,23.425,46.305,22.853,46.852z"/>
		</g>
	</g>
	<path fill="#935E3E" d="M40.59,33.168c-6.464-4.225-23.299-4.391-30.406,0C16.509,25.605,36.349,27.316,40.59,33.168z"/>
</g>
</svg>
