<?xml version="1.0" encoding="utf-8"?>
<!-- Generator: Adobe Illustrator 15.0.0, SVG Export Plug-In . SVG Version: 6.00 Build 0)  -->
<!DOCTYPE svg PUBLIC "-//W3C//DTD SVG 1.1//EN" "http://www.w3.org/Graphics/SVG/1.1/DTD/svg11.dtd">
<svg version="1.1" id="Layer_1" xmlns="http://www.w3.org/2000/svg" xmlns:xlink="http://www.w3.org/1999/xlink" x="0px" y="0px"
	 width="64px" height="64px" viewBox="0 0 64 64" enable-background="new 0 0 64 64" xml:space="preserve">
<g>
	<path fill="#FED0AC" d="M13.458,31.51c0-2.605,2.381-4.717,5.313-4.717h0.098c2.936,0,6.281,2.112,6.281,4.717L22.562,6.429
		C22.562,3.984,25.649,2,29.456,2h0.064c3.807,0,6.891,1.983,6.891,4.429l-1.072,24.559c0-2.604,2.376-4.716,5.31-4.716h0.1
		c2.934,0,5.311,2.113,5.311,4.716v2.738c0.516-1.859,2.424-3.244,4.588-2.666c4.457,1.195,3.635,4.801,4.064,8.703
		c0.525,4.759,1.721,7.931,1.273,9.608c-0.98,3.666-3.691,3.227-5.123,4.23c-1.424,0.998-1.795,2.59-2.861,3.551
		c-2.229,2.01-6.242,1.625-9.798,2.488c-3.133,0.762-5.898,2.594-8.275,2.334c-2.688-0.297-3.449-2.646-6.418-4.047
		c-3.016-1.422-7.111-0.682-8.277-3.111C12.911,49.974,13.458,31.51,13.458,31.51z"/>
	<g>
		<path fill="#E0A372" d="M13.458,31.51c0-1.408,0.709-2.66,1.813-3.523c-1.869,2.393-0.646,19.362,1.674,24.206
			c1.164,2.43,5.258,1.688,8.275,3.111c2.971,1.4,3.73,3.752,6.418,4.047c2.377,0.26,5.165-1.355,8.298-2.117
			c3.555-0.863,6.068-0.6,8.299-2.609c1.066-0.961,1.641-2.469,3.844-3.154c1.621-0.506,2.719-0.955,3.93-2.232
			c-0.01,0.045-0.01,0.088-0.023,0.135c-0.98,3.666-3.691,3.227-5.123,4.23c-1.424,0.998-1.795,2.59-2.861,3.551
			c-2.229,2.01-6.242,1.625-9.798,2.488c-3.133,0.762-5.898,2.594-8.275,2.334c-2.688-0.297-3.449-2.646-6.418-4.047
			c-3.016-1.422-7.111-0.682-8.277-3.111C12.911,49.974,13.458,31.51,13.458,31.51z"/>
	</g>
	<path fill="#E0A372" d="M22.64,5.287c-0.941,3.824,2.51,38.425,2.51,38.425c0,2.486,1.33,1.469,1.33-1.021
		c0,0-3.613-32.473-2.596-37.344c0.424-2.025,1.844-2.628,4.154-3.252C28.038,2.095,23.37,2.324,22.64,5.287z"/>
	<g>
		<path fill="#E0A372" d="M37,42.27V29.281c0-0.701,0.141-1.369,0.455-1.968c-1.269,0.861-2.116,2.22-2.116,3.748V44.05
			C35.339,46.655,37,44.874,37,42.27z"/>
	</g>
	<g>
		<path fill="#E0A372" d="M47.41,43.577V33.199c0-0.635,0.129-1.236,0.41-1.779c-1.146,0.779-1.914,2.006-1.914,3.387v10.378
			C45.906,47.54,47.41,45.931,47.41,43.577z"/>
	</g>
	<path fill="#E0A372" d="M36.31,53.771c-0.184-0.862-0.144-1.591-0.204-2.296c-0.036-0.713-0.128-1.344-0.306-2.202
		c0.408,0.175,0.729,0.505,0.941,0.889c0.224,0.384,0.329,0.822,0.362,1.253C37.141,52.281,36.887,53.117,36.31,53.771z"/>
	<path fill="#E0A372" d="M25.979,47.382c0.046,1.071-0.121,2.005-0.181,2.938c-0.086,0.938-0.096,1.816-0.063,2.88
		c-0.779-0.761-1.015-1.923-0.933-2.962C24.905,49.185,25.283,48.187,25.979,47.382z"/>
	<path fill="#E0A372" d="M47.744,51.47c-0.229-0.853-0.227-1.583-0.324-2.284c-0.074-0.711-0.201-1.338-0.422-2.187
		c0.417,0.155,0.754,0.467,0.986,0.84c0.243,0.371,0.372,0.804,0.428,1.233C48.495,49.938,48.285,50.786,47.744,51.47z"/>
	<path fill="#E0A372" d="M34.407,10.762c0.756-5.315-1.715-5.532-4.799-5.532c-3.086,0-5.557,0.217-4.801,5.532
		c0.285,1.984,2.359,2.664,4.801,2.664S34.126,12.748,34.407,10.762z"/>
	<path fill="#FFE8DC" d="M34.526,9.852c0.797-5.603-1.744-5.833-4.92-5.833c-3.174,0-5.713,0.23-4.916,5.833
		c0.297,2.082,2.42,2.792,4.916,2.792C32.106,12.644,34.229,11.934,34.526,9.852z"/>
	<path fill="#E0A372" d="M15.255,53.612c-3.59-4.227-8.326-6.395-7.146-9.506c1.016-2.997,3.109-2.935,5.836-6.319L15.255,53.612z"
		/>
</g>
</svg>
