<?xml version="1.0" encoding="utf-8"?>
<!-- Generator: Adobe Illustrator 15.0.0, SVG Export Plug-In . SVG Version: 6.00 Build 0)  -->
<!DOCTYPE svg PUBLIC "-//W3C//DTD SVG 1.1//EN" "http://www.w3.org/Graphics/SVG/1.1/DTD/svg11.dtd">
<svg version="1.1" id="Layer_1" xmlns="http://www.w3.org/2000/svg" xmlns:xlink="http://www.w3.org/1999/xlink" x="0px" y="0px"
	 width="64px" height="64px" viewBox="0 0 64 64" enable-background="new 0 0 64 64" xml:space="preserve">
<g>
	<g>
		<path fill="#8A6859" d="M34.013,42.253l7.832,1.523l6.436-32.922c0.432-2.207-0.959-4.387-3.115-4.805l-0.021-0.004
			c-2.156-0.42-4.264,1.078-4.707,3.35L34.013,42.253z"/>
		<path fill="#705041" d="M45.165,6.05l-0.021-0.004c-0.234-0.047-0.469-0.061-0.699-0.063c1.76,0.697,2.824,2.635,2.441,4.6
			L40.45,43.505l1.395,0.271l6.436-32.922C48.712,8.647,47.321,6.468,45.165,6.05z"/>
	</g>
	<g>
		<path fill="#8A6859" d="M26.044,43.335h9.428V6.972c0-2.744-2.107-4.973-4.711-4.973l0,0c-2.604,0-4.717,2.229-4.717,4.973V43.335
			z"/>
		<path fill="#705041" d="M30.761,1.999c-0.242,0-0.479,0.037-0.711,0.076c2.264,0.363,4.002,2.408,4.002,4.896v36.363h1.42V6.972
			C35.472,4.228,33.364,1.999,30.761,1.999z"/>
	</g>
	<g>
		<path fill="#8A6859" d="M21.013,43.173l7.951-2.07L20.31,7.981c-0.605-2.314-2.873-3.727-5.064-3.156l-0.014,0.004
			c-2.193,0.57-3.479,2.908-2.875,5.223L21.013,43.173z"/>
		<path fill="#705041" d="M15.245,4.825l-0.014,0.004c-0.232,0.061-0.449,0.15-0.66,0.248c1.955-0.143,3.824,1.193,4.365,3.262
			l8.654,33.121l1.373-0.357L20.31,7.981C19.704,5.667,17.437,4.255,15.245,4.825z"/>
	</g>
	<g>
		<path fill="#8A6859" d="M4.007,13.403C2.122,14.349,1.47,16.69,2.47,18.675l13.246,26.27l6.695-3.363L9.165,15.313
			C8.165,13.329,5.892,12.456,4.007,13.403L4.007,13.403z"/>
		<path fill="#705041" d="M4.007,13.403c-0.221,0.109-0.416,0.242-0.602,0.385c1.729-0.473,3.605,0.408,4.49,2.162l13.246,26.27
			l1.27-0.639L9.165,15.313C8.165,13.329,5.892,12.456,4.007,13.403z"/>
	</g>
	<path fill="#8A6859" d="M61.683,29.269c-1.561-3.066-6.59-2.914-11.717,2.711c-3.582,3.93-4.344,5.154-7.936,5.15v-4.117
		c0,0-7.703-5.738-23.041-3.119c0,0-8.732,1.225-8.732,5.754c0,0-1.484,11.104,1.598,18.084
		c4.592,10.398,28.174,13.139,35.609-4.559c1.48-3.518,4.479-6.135,7.164-9.428C57.862,35.776,63.392,32.632,61.683,29.269z"/>
	<g>
		<path fill="#705041" d="M61.683,29.269c-0.295-0.582-0.719-1.045-1.24-1.381c0.084,0.125,0.168,0.248,0.238,0.387
			c1.709,3.363-3.82,6.508-7.055,10.475c-2.686,3.295-5.684,5.912-7.164,9.43c-6.447,15.342-25.021,15.318-32.844,8.266
			c7.109,8.02,27.105,8.766,33.846-7.271c1.48-3.518,4.479-6.135,7.164-9.428C57.862,35.776,63.392,32.632,61.683,29.269z"/>
	</g>
	<g>
		<path fill="#705041" d="M24.567,50.151c0-6.092,4.617-11.035,10.361-11.18c-1.014-0.441-2.115-0.701-3.279-0.701
			c-4.777,0-8.652,4.084-8.652,9.121c0,2.203,0.748,4.213,1.979,5.789C24.718,52.216,24.567,51.204,24.567,50.151z"/>
		<path fill="#705041" d="M24.321,46.87c0.369-2.893-1.348-5.703-4.1-6.484c-0.436-0.125-0.875-0.188-1.305-0.201
			c1.004-0.854,2.365-1.207,3.703-0.826c2.223,0.633,3.537,3.047,2.938,5.393C25.341,45.601,24.901,46.323,24.321,46.87z"/>
	</g>
	<path fill="#705041" d="M42.312,33.2c-6.555-4.219-23.633-4.387-30.84,0C17.888,25.647,38.011,27.356,42.312,33.2z"/>
</g>
</svg>
