<?xml version="1.0" encoding="utf-8"?>
<!-- Generator: Adobe Illustrator 15.0.0, SVG Export Plug-In . SVG Version: 6.00 Build 0)  -->
<!DOCTYPE svg PUBLIC "-//W3C//DTD SVG 1.1//EN" "http://www.w3.org/Graphics/SVG/1.1/DTD/svg11.dtd">
<svg version="1.1" id="Layer_1" xmlns="http://www.w3.org/2000/svg" xmlns:xlink="http://www.w3.org/1999/xlink" x="0px" y="0px"
	 width="64px" height="64px" viewBox="0 0 64 64" enable-background="new 0 0 64 64" xml:space="preserve">
<g>
	<path fill="#8A6859" d="M13.458,31.509c0-2.604,2.381-4.717,5.313-4.717h0.098c2.936,0,6.281,2.112,6.281,4.717l-2.588-25.08
		C22.562,3.984,25.649,2,29.456,2h0.064c3.807,0,6.891,1.983,6.891,4.429l-1.072,24.56c0-2.604,2.376-4.717,5.31-4.717h0.1
		c2.934,0,5.311,2.112,5.311,4.717v2.738c0.516-1.86,2.424-3.245,4.588-2.666c4.457,1.194,3.635,4.8,4.064,8.703
		c0.525,4.758,1.721,7.93,1.273,9.607c-0.98,3.666-3.691,3.227-5.123,4.23c-1.424,0.998-1.795,2.59-2.861,3.551
		c-2.229,2.01-6.242,1.625-9.798,2.488c-3.133,0.762-5.898,2.594-8.275,2.334c-2.688-0.297-3.449-2.646-6.418-4.047
		c-3.016-1.422-7.111-0.682-8.277-3.111C12.911,49.973,13.458,31.509,13.458,31.509z"/>
	<g>
		<path fill="#705041" d="M13.458,31.509c0-1.408,0.709-2.659,1.813-3.523c-1.869,2.394-0.646,19.362,1.674,24.206
			c1.164,2.43,5.258,1.688,8.275,3.111c2.971,1.4,3.73,3.752,6.418,4.047c2.377,0.26,5.165-1.355,8.298-2.117
			c3.555-0.863,6.068-0.6,8.299-2.609c1.066-0.961,1.641-2.469,3.844-3.154c1.621-0.506,2.719-0.955,3.93-2.232
			c-0.01,0.045-0.01,0.088-0.023,0.135c-0.98,3.666-3.691,3.227-5.123,4.23c-1.424,0.998-1.795,2.59-2.861,3.551
			c-2.229,2.01-6.242,1.625-9.798,2.488c-3.133,0.762-5.898,2.594-8.275,2.334c-2.688-0.297-3.449-2.646-6.418-4.047
			c-3.016-1.422-7.111-0.682-8.277-3.111C12.911,49.973,13.458,31.509,13.458,31.509z"/>
	</g>
	<path fill="#705041" d="M22.64,5.287c-0.941,3.824,2.51,38.424,2.51,38.424c0,2.486,1.33,1.469,1.33-1.02
		c0,0-3.613-32.473-2.596-37.344c0.424-2.025,1.844-2.628,4.154-3.252C28.038,2.095,23.37,2.324,22.64,5.287z"/>
	<g>
		<path fill="#705041" d="M37,42.27V29.281c0-0.701,0.141-1.368,0.455-1.968c-1.269,0.861-2.116,2.221-2.116,3.748v12.988
			C35.339,46.654,37,44.873,37,42.27z"/>
	</g>
	<g>
		<path fill="#705041" d="M47.41,43.576V33.199c0-0.634,0.129-1.236,0.41-1.779c-1.146,0.778-1.914,2.005-1.914,3.386v10.377
			C45.906,47.539,47.41,45.93,47.41,43.576z"/>
	</g>
	<path fill="#705041" d="M36.31,53.77c-0.184-0.861-0.144-1.59-0.204-2.295c-0.036-0.713-0.128-1.344-0.306-2.203
		c0.408,0.176,0.729,0.506,0.941,0.889c0.224,0.385,0.329,0.822,0.362,1.254C37.141,52.281,36.887,53.117,36.31,53.77z"/>
	<path fill="#705041" d="M25.979,47.381c0.046,1.072-0.121,2.006-0.181,2.939c-0.086,0.938-0.096,1.816-0.063,2.879
		c-0.779-0.76-1.015-1.922-0.933-2.961C24.905,49.184,25.283,48.186,25.979,47.381z"/>
	<path fill="#705041" d="M47.744,51.469c-0.229-0.852-0.227-1.582-0.324-2.283c-0.074-0.711-0.201-1.338-0.422-2.188
		c0.417,0.156,0.754,0.467,0.986,0.84c0.243,0.371,0.372,0.805,0.428,1.234C48.495,49.938,48.285,50.785,47.744,51.469z"/>
	<path fill="#705041" d="M34.407,10.762c0.756-5.315-1.715-5.532-4.799-5.532c-3.086,0-5.557,0.217-4.801,5.532
		c0.285,1.984,2.359,2.664,4.801,2.664S34.126,12.748,34.407,10.762z"/>
	<path opacity="0.8" fill="#FFE8DC" d="M34.526,9.852c0.797-5.603-1.744-5.833-4.92-5.833c-3.174,0-5.713,0.23-4.916,5.833
		c0.297,2.082,2.42,2.792,4.916,2.792C32.106,12.644,34.229,11.934,34.526,9.852z"/>
	<path fill="#705041" d="M15.255,53.611c-3.59-4.227-8.326-6.395-7.146-9.506c1.016-2.996,3.109-2.934,5.836-6.318L15.255,53.611z"
		/>
</g>
</svg>
