<?xml version="1.0" encoding="utf-8"?>
<!-- Generator: Adobe Illustrator 15.0.0, SVG Export Plug-In . SVG Version: 6.00 Build 0)  -->
<!DOCTYPE svg PUBLIC "-//W3C//DTD SVG 1.1//EN" "http://www.w3.org/Graphics/SVG/1.1/DTD/svg11.dtd">
<svg version="1.1" id="Layer_1" xmlns="http://www.w3.org/2000/svg" xmlns:xlink="http://www.w3.org/1999/xlink" x="0px" y="0px"
	 width="64px" height="64px" viewBox="0 0 64 64" enable-background="new 0 0 64 64" xml:space="preserve">
<g>
	<path fill="#5B636B" d="M46,58.25c0,2.071-1.671,3.75-3.733,3.75H21.733C19.672,62,18,60.321,18,58.25V5.75
		C18,3.679,19.672,2,21.733,2h20.533C44.329,2,46,3.679,46,5.75V58.25z"/>
	<g>
		<g>
			<path fill="#181E2E" d="M20.8,6.489v20.625h22.4V6.489H20.8z M42.267,26.176H21.733v-5.625h20.533V26.176z M42.267,19.614H21.733
				v-5.625h20.533V19.614z M42.267,13.051H21.733V7.426h20.533V13.051z"/>
		</g>
	</g>
	<rect x="38.533" y="10.239" fill="#3E4347" width="2.8" height="1.875"/>
	<circle fill="#FF435E" cx="36.667" cy="11.176" r="0.938"/>
	<rect x="21.733" y="32.271" fill="#181E2E" width="15.866" height="3.75"/>
	<rect x="21.733" y="41.178" fill="#94989B" width="20.533" height="18.75"/>
	<rect x="22.667" y="42.115" fill="#181E2E" width="18.667" height="16.875"/>
	<rect x="18" y="28.99" fill="#94989B" width="28" height="0.938"/>
	<rect x="18" y="38.365" fill="#94989B" width="28" height="0.938"/>
	<g>
		<path fill-rule="evenodd" clip-rule="evenodd" fill="#42ADE2" d="M32.805,54.467l-0.43,0.247
			c-0.044-0.095-0.135-0.163-0.241-0.163h-0.27c-0.106,0-0.197,0.068-0.239,0.163l-0.432-0.247l-1.03-0.595v1.188v1.187l1.03-0.594
			l0.432-0.249c0.042,0.098,0.133,0.163,0.239,0.163h0.27c0.105,0,0.197-0.065,0.241-0.163l0.43,0.249l1.032,0.594v-1.187v-1.188
			L32.805,54.467z"/>
		<path fill="#42ADE2" d="M30.395,51.107c0.173,0.272,0.414,0.471,0.692,0.605c0.279,0.136,0.595,0.203,0.914,0.203
			c0.317-0.002,0.632-0.067,0.912-0.203c0.279-0.135,0.519-0.333,0.693-0.605c0.035,0.318-0.126,0.664-0.431,0.91
			c-0.301,0.248-0.738,0.395-1.174,0.394c-0.438,0-0.875-0.146-1.176-0.394C30.523,51.771,30.358,51.426,30.395,51.107z"/>
		<path fill-rule="evenodd" clip-rule="evenodd" fill="#42ADE2" d="M36.567,47.936V47.85c0-0.067-0.008-0.08-0.042-0.099
			c-0.063-0.033-0.129-0.064-0.197-0.086c-0.049-0.019-0.104-0.035-0.162-0.05c-0.692-1.622-2.297-2.758-4.165-2.758
			c-1.871,0-3.475,1.136-4.167,2.758c-0.058,0.015-0.113,0.031-0.164,0.05c-0.066,0.021-0.131,0.053-0.195,0.086
			c-0.035,0.019-0.042,0.031-0.042,0.099v0.086c0,0.163-0.022,0.099,0.095,0.167c0.039,0.021,0.073,0.051,0.104,0.084
			c-0.107,0.39-0.164,0.8-0.164,1.225c0,2.515,2.029,4.554,4.534,4.554c2.503,0,4.531-2.039,4.531-4.554
			c0-0.425-0.056-0.835-0.165-1.225c0.032-0.033,0.067-0.063,0.105-0.084C36.587,48.034,36.567,48.099,36.567,47.936z
			 M32.001,45.396c1.523,0,2.85,0.856,3.523,2.116c-0.538-0.05-1.136-0.038-1.483-0.007c-0.562,0.049-1.03,0.176-1.413,0.373
			c-0.359,0.18-0.897,0.18-1.256,0c-0.383-0.197-0.851-0.324-1.413-0.373c-0.348-0.031-0.946-0.043-1.484,0.007
			C29.15,46.253,30.475,45.396,32.001,45.396z M32.001,53.427c-2.209,0-4-1.798-4-4.016c0-0.03,0.002-0.06,0.002-0.089
			c0.14,0.536,0.456,0.882,0.93,1.062c0.506,0.192,1.077,0.185,1.581-0.017c0.275-0.111,0.518-0.285,0.71-0.571
			c0.337-0.498,0.237-0.808,0.41-1.235c0.153-0.374,0.578-0.374,0.729,0c0.175,0.428,0.075,0.737,0.412,1.235
			c0.191,0.286,0.433,0.46,0.71,0.571c0.504,0.201,1.072,0.209,1.581,0.017c0.474-0.18,0.789-0.527,0.93-1.063
			c0,0.031,0.002,0.061,0.002,0.091C35.999,51.629,34.209,53.427,32.001,53.427z"/>
	</g>
</g>
</svg>
