<?xml version="1.0" encoding="utf-8"?>
<!-- Generator: Adobe Illustrator 15.0.0, SVG Export Plug-In . SVG Version: 6.00 Build 0)  -->
<!DOCTYPE svg PUBLIC "-//W3C//DTD SVG 1.1//EN" "http://www.w3.org/Graphics/SVG/1.1/DTD/svg11.dtd">
<svg version="1.1" id="Layer_1" xmlns="http://www.w3.org/2000/svg" xmlns:xlink="http://www.w3.org/1999/xlink" x="0px" y="0px"
	 width="64px" height="64px" viewBox="0 0 64 64" enable-background="new 0 0 64 64" xml:space="preserve">
<g>
	<path fill="#E8E8E8" d="M52,16.001c-10,0-30,0-40,0c-3.681,0-10,5.088-10,10.805c0,5.716,2.24,27.195,2.24,27.195h55.52
		c0,0,2.24-21.479,2.24-27.195C62,21.089,55.681,16.001,52,16.001z"/>
	<path fill="#B2C1C0" d="M7,54.001v4c0,1.1,0.9,2,2,2h46c1.1,0,2-0.9,2-2v-4H7z"/>
	<path fill="#B2C1C0" d="M48.666,16.001c-8.332,0-25,0-33.333,0C12.266,16.001,7,21.089,7,26.806c0,5.716,1.867,27.195,1.867,27.195
		h46.266c0,0,1.867-21.479,1.867-27.195C57,21.089,51.734,16.001,48.666,16.001z"/>
	<path fill="#62727A" d="M52,50.001c0,2.199-0.45,4-1,4H13c-0.55,0-1-1.801-1-4l0,0c0-2.199,0.45-3,1-3h38
		C51.55,47.001,52,47.802,52,50.001L52,50.001z"/>
	<path fill="#E8E8E8" d="M51.865,58.048c-3.744-4.842-4.993-8.047-4.993-8.047H17.128c0,0-1.249,3.205-4.993,8.047
		C8.391,62.89,14.756,61.922,19,61.922h26C49.244,61.922,55.609,62.89,51.865,58.048z"/>
	<g>
		<path fill="#B2C1C0" d="M19.898,52.323c-0.951,2.449-2.419,4.771-3.83,7.012c-0.313,0.498,0.525,0.946,0.837,0.449
			c1.454-2.309,2.948-4.699,3.927-7.225C21.043,52.019,20.105,51.787,19.898,52.323L19.898,52.323z"/>
	</g>
	<g>
		<path fill="#B2C1C0" d="M25.715,52.323c-0.389,2.412-1.17,4.793-1.938,7.119c-0.183,0.55,0.754,0.783,0.935,0.236
			c0.769-2.326,1.55-4.707,1.939-7.119C26.741,51.999,25.807,51.757,25.715,52.323L25.715,52.323z"/>
	</g>
	<g>
		<path fill="#B2C1C0" d="M37.35,52.56c0.39,2.412,1.171,4.793,1.939,7.119c0.181,0.547,1.117,0.313,0.935-0.236
			c-0.769-2.326-1.55-4.707-1.938-7.119C38.193,51.757,37.259,51.999,37.35,52.56L37.35,52.56z"/>
	</g>
	<g>
		<path fill="#B2C1C0" d="M43.167,52.56c0.979,2.525,2.474,4.916,3.927,7.225c0.313,0.497,1.15,0.049,0.838-0.449
			c-1.41-2.24-2.879-4.563-3.83-7.012C43.895,51.787,42.957,52.019,43.167,52.56L43.167,52.56z"/>
	</g>
	<g>
		<path fill="#B2C1C0" d="M31.516,52.442c0,2.372,0,4.745,0,7.117c0,0.574,0.969,0.574,0.969,0c0-2.372,0-4.745,0-7.117
			C32.484,51.868,31.516,51.868,31.516,52.442L31.516,52.442z"/>
	</g>
	<path fill="#62727A" d="M16.875,18.001c-2.072,1.14-2.375,3.761-2.375,4.5c0,0.962,0,1.5,5.836,1.5c5.828,0,17.5,0,23.328,0
		c5.836,0,5.836-0.537,5.836-1.5c0-0.74-0.303-3.361-2.375-4.5H16.875z"/>
	<path fill="#B2C1C0" d="M45,2.001H19c-1.1,0-2,0.9-2,2v16h30v-16C47,2.901,46.1,2.001,45,2.001z"/>
	<path fill="#E8E8E8" d="M44,4.001H20c-0.55,0-1,0.45-1,1v15h26v-15C45,4.451,44.55,4.001,44,4.001z"/>
	<path fill="#B2C1C0" d="M32,8.001c-2.654,0-4.999-1.298-6.454-3.287c1.06,2.519,3.55,4.287,6.454,4.287s5.395-1.769,6.454-4.287
		C36.999,6.703,34.654,8.001,32,8.001z"/>
	<rect x="21" y="9.001" fill="#FFFFFF" width="22" height="11"/>
	<path fill="#E8E8E8" d="M53,27.001c0,0.553,0,1-21,1s-21-0.447-21-1s0-1,21-1S53,26.448,53,27.001z"/>
	<circle fill="#F15744" cx="50" cy="34.001" r="1"/>
	<circle fill="#C7E755" cx="50" cy="38.001" r="1"/>
	<path fill="#FFFFFF" d="M41.915,50.001h-19.83c0,0-0.589,4.771-3.085,8h26C42.504,54.772,41.915,50.001,41.915,50.001z"/>
	<path fill="#C7E755" d="M21,38.001c0,0.55-0.45,1-1,1h-7c-0.55,0-1-0.45-1-1v-4c0-0.55,0.45-1,1-1h7c0.55,0,1,0.45,1,1V38.001z"/>
	<path fill="#62727A" d="M13,41.501h2c0.364,0,0.67-0.207,0.846-0.5C15.935,41.15,16,41.315,16,41.501c0,0.55-0.45,1-1,1h-2
		c-0.55,0-1-0.45-1-1c0-0.186,0.065-0.351,0.154-0.5C12.33,41.294,12.636,41.501,13,41.501z"/>
	<path fill="#62727A" d="M18,41.501h2c0.364,0,0.67-0.207,0.846-0.5C20.935,41.15,21,41.315,21,41.501c0,0.55-0.45,1-1,1h-2
		c-0.55,0-1-0.45-1-1c0-0.186,0.065-0.351,0.154-0.5C17.33,41.294,17.636,41.501,18,41.501z"/>
</g>
</svg>
