<?xml version="1.0" encoding="utf-8"?>
<!-- Generator: Adobe Illustrator 15.0.0, SVG Export Plug-In . SVG Version: 6.00 Build 0)  -->
<!DOCTYPE svg PUBLIC "-//W3C//DTD SVG 1.1//EN" "http://www.w3.org/Graphics/SVG/1.1/DTD/svg11.dtd">
<svg version="1.1" id="Layer_1" xmlns="http://www.w3.org/2000/svg" xmlns:xlink="http://www.w3.org/1999/xlink" x="0px" y="0px"
	 width="64px" height="64px" viewBox="0 0 64 64" enable-background="new 0 0 64 64" xml:space="preserve">
<g>
	<g>
		<path fill="#D0D0D0" d="M51.998,61.998V18.873c0-8.438-4.005-15-14.017-15c-7.343,0-12.015,5.625-12.015,13.125h-2.002
			c0-9.375,5.672-15,14.017-15C48.717,1.998,54,8.561,54,18.873v43.121L51.998,61.998z"/>
	</g>
	<path fill="#3E4347" d="M40.037,33.099c0,16.009-6.721,28.899-15.017,28.899C16.726,61.998,10,49.107,10,33.099
		c0-9.772,6.726-22.663,15.02-22.663C33.316,10.436,40.037,23.326,40.037,33.099z"/>
	<g>
		<path fill="#94989B" d="M15.199,25.542c-0.748,2.465-1.193,5.054-1.193,7.521c0,4.853,0.616,9.3,1.623,13.104
			c0.305-0.487,0.625-1.025,0.956-1.626C22.361,34.122,19.066,28.47,15.199,25.542z"/>
		<path fill="#94989B" d="M34.843,25.542c-3.87,2.928-7.163,8.58-1.39,18.999c0.332,0.601,0.651,1.139,0.96,1.626
			c1.005-3.804,1.619-8.251,1.619-13.104C36.032,30.596,35.588,28.007,34.843,25.542z"/>
	</g>
	<ellipse fill="#ED4C5C" cx="24.966" cy="21.686" rx="6.007" ry="5.625"/>
</g>
</svg>
