<?xml version="1.0" encoding="utf-8"?>
<!-- Generator: Adobe Illustrator 15.0.0, SVG Export Plug-In . SVG Version: 6.00 Build 0)  -->
<!DOCTYPE svg PUBLIC "-//W3C//DTD SVG 1.1//EN" "http://www.w3.org/Graphics/SVG/1.1/DTD/svg11.dtd">
<svg version="1.1" id="Layer_1" xmlns="http://www.w3.org/2000/svg" xmlns:xlink="http://www.w3.org/1999/xlink" x="0px" y="0px"
	 width="64px" height="64px" viewBox="0 0 64 64" enable-background="new 0 0 64 64" xml:space="preserve">
<g>
	<g>
		<path fill="#94989B" d="M19.048,58.735h-2.417c0-3.163-2.881-8.185-5.113-11.791c-3.396-5.49-9.533-13.274-9.533-23.9
			c0-6.257,1.96-11.2,6.843-13.224c3.853-1.596,8.092,0.073,10.798,2.779l-1.71,1.708c-2.01-2.01-5.215-3.476-8.164-2.255
			c-3.949,1.636-5.35,5.745-5.35,10.991c0,9.938,5.768,17.127,9.171,22.627C15.999,49.591,19.048,54.886,19.048,58.735z"/>
	</g>
	<path fill="#BCC2CC" d="M13.168,14.458c-0.758-0.759-0.944-1.801-0.417-2.331L15.377,9.5c0.529-0.527,1.572-0.341,2.33,0.417
		L13.168,14.458z"/>
	<g>
		<path fill="#BCC2CC" d="M19.082,42.755C6.009,29.682,8.305,19.925,15.74,12.489c7.435-7.435,17.193-9.729,30.265,3.343
			c16.454,16.454,18.387,30.44,10.951,37.875C49.521,61.142,35.536,59.209,19.082,42.755z"/>
		<g>
			<path fill="#D8DFEB" d="M28.117,24.866c-5.07,5.07-9.106,10.585-11.569,16.571c0.697,0.793,1.454,1.599,2.27,2.415
				c16.524,16.525,30.851,18.188,38.662,10.377c7.811-7.811,6.146-22.136-10.378-38.662c-0.816-0.816-1.622-1.573-2.415-2.27
				C38.701,15.76,33.186,19.796,28.117,24.866z"/>
			<g>
				<path fill="#D8DFEB" d="M43.977,12.562C34.604,4.096,27.001,3.667,20.77,7.2l11.844,11.845
					C36.161,16.215,39.938,13.974,43.977,12.562z"/>
				<path fill="#D8DFEB" d="M11.123,16.846L22.967,28.69c1.297-1.627,2.705-3.209,4.235-4.738c1.529-1.528,3.111-2.938,4.739-4.235
					L20.097,7.872c-1.792,1.017-3.471,2.356-5.044,3.931C13.479,13.375,12.138,15.054,11.123,16.846z"/>
				<path fill="#D8DFEB" d="M15.813,40.728c1.413-4.04,3.654-7.817,6.481-11.364L10.45,17.519
					C6.918,23.75,7.346,31.355,15.813,40.728z"/>
			</g>
		</g>
	</g>
</g>
</svg>
