<?xml version="1.0" encoding="utf-8"?>
<!-- Generator: Adobe Illustrator 15.0.0, SVG Export Plug-In . SVG Version: 6.00 Build 0)  -->
<!DOCTYPE svg PUBLIC "-//W3C//DTD SVG 1.1//EN" "http://www.w3.org/Graphics/SVG/1.1/DTD/svg11.dtd">
<svg version="1.1" id="Layer_1" xmlns="http://www.w3.org/2000/svg" xmlns:xlink="http://www.w3.org/1999/xlink" x="0px" y="0px"
	 width="64px" height="64px" viewBox="0 0 64 64" enable-background="new 0 0 64 64" xml:space="preserve">
<g>
	<polygon fill="#534741" points="64,57.325 27.979,64 6.534,50.649 42.556,44.04 	"/>
	<polygon fill="#3E4347" points="42.556,44.04 6.534,50.716 6.534,37.497 42.556,30.821 	"/>
	<polygon fill="#D0D0D0" points="64,57.391 42.556,44.04 42.556,30.821 64,47.378 	"/>
	<polygon fill="#ED4C5C" points="45.989,43.394 9.969,50.068 9.969,36.849 27.979,33.513 27.979,35.396 45.989,32.163 	"/>
	<polygon fill="#FF8736" points="51.351,46.462 15.33,53.136 15.33,39.917 33.341,36.58 33.341,38.864 51.351,35.415 	"/>
	<polygon fill="#83BF4F" points="56.712,49.87 20.69,56.545 20.69,43.326 38.702,39.989 38.702,42.005 56.712,38.823 	"/>
	<polygon fill="#FFCE31" points="62.073,53.274 26.052,59.95 26.052,46.731 44.063,43.394 44.063,46.029 62.073,42.229 	"/>
	<polygon fill="#D0D0D0" points="27.979,64 6.534,50.649 6.534,37.431 27.979,54.054 	"/>
	<polygon fill="#3E4347" points="64,57.325 27.979,64 27.979,54.054 64,47.378 	"/>
	<polygon fill="#3E4347" points="36.021,26.83 0,33.439 0,6.609 36.021,0 	"/>
	<polygon fill="#94989B" points="36.021,26.83 0,33.439 6.534,37.497 42.556,30.821 	"/>
	<polygon fill="#D0D0D0" points="0,6.609 3.267,8.605 6.534,37.431 0,33.439 	"/>
	<polygon fill="#D0D0D0" points="36.021,0 39.288,1.996 42.556,30.821 36.021,26.83 	"/>
	<polygon fill="#94989B" points="36.021,0 0,6.609 3.267,8.605 39.288,1.996 	"/>
</g>
</svg>
