<?xml version="1.0" encoding="utf-8"?>
<!-- Generator: Adobe Illustrator 15.0.0, SVG Export Plug-In . SVG Version: 6.00 Build 0)  -->
<!DOCTYPE svg PUBLIC "-//W3C//DTD SVG 1.1//EN" "http://www.w3.org/Graphics/SVG/1.1/DTD/svg11.dtd">
<svg version="1.1" id="Layer_1" xmlns="http://www.w3.org/2000/svg" xmlns:xlink="http://www.w3.org/1999/xlink" x="0px" y="0px"
	 width="64px" height="64px" viewBox="0 0 64 64" enable-background="new 0 0 64 64" xml:space="preserve">
<g>
	<g>
		<path fill="#B9B9BF" d="M63.151,5.647L34.521,0L11.634,7.508l7.394,13.409L63.865,6.208C63.717,5.933,63.458,5.708,63.151,5.647z"
			/>
		<path fill="#898A90" d="M63.865,6.208L19.027,20.917l15.345,27.83l6.729,12.204l22.05-7.443c0,0,0.849-0.215,0.849-0.682V6.663
			C64,6.503,63.943,6.351,63.865,6.208z"/>
	</g>
	<path fill="#9FA1A6" d="M41.527,60.304c0,0.467-0.383,0.773-0.85,0.681l-28.629-5.647c-0.467-0.092-0.85-0.549-0.85-1.016V8.158
		c0-0.466,0.383-0.773,0.85-0.681l28.629,5.648c0.467,0.092,0.85,0.549,0.85,1.015V60.304z"/>
	<g>
		<path fill="#3E4347" d="M14.232,34.231c0-0.467,0.381-0.773,0.849-0.681l22.563,4.451c0.469,0.093,0.85,0.548,0.85,1.015v17.448
			c0,0.467-0.381,0.772-0.85,0.681l-22.563-4.451c-0.468-0.092-0.849-0.549-0.849-1.016V34.231z"/>
	</g>
	<g>
		<path fill="#3E4347" d="M38.494,34.929c0,0.445-0.381,0.734-0.85,0.643L15.081,31.12c-0.468-0.093-0.849-0.533-0.849-0.979
			s0.381-0.734,0.849-0.643l22.563,4.451C38.113,34.042,38.494,34.481,38.494,34.929z"/>
		<path fill="#D0D0D0" d="M14.232,11.847c0-0.467,0.381-0.773,0.849-0.681l22.563,4.451c0.469,0.092,0.85,0.549,0.85,1.016v17.448
			c0,0.465-0.381,0.771-0.85,0.68L15.081,30.31c-0.468-0.092-0.849-0.549-0.849-1.016V11.847z"/>
		<path fill="#3E4347" d="M23.331,26.341v0.811c0,0.445,0.382,0.884,0.849,0.977l4.367,0.861c0.466,0.093,0.85-0.196,0.85-0.643l0,0
			v-0.811L23.331,26.341z"/>
		<path fill="#94989B" d="M29.396,27.499c0,0.467-0.384,0.773-0.85,0.682l-4.367-0.862c-0.467-0.092-0.849-0.549-0.849-1.016v-3.09
			c0-0.467,0.382-0.773,0.849-0.681l4.367,0.862c0.466,0.092,0.85,0.548,0.85,1.015V27.499z"/>
		<path fill="#D0D0D0" d="M28.831,25.276c0,0.233-0.19,0.386-0.425,0.34l-0.773-0.152c-0.234-0.046-0.426-0.275-0.426-0.508v-0.772
			c0-0.233,0.191-0.386,0.426-0.34l0.773,0.153c0.234,0.046,0.425,0.275,0.425,0.508V25.276z"/>
	</g>
	<g>
		<g>
			<polygon fill="#42ADE2" points="11.865,33.126 34.807,35.588 34.141,57.161 12.833,52.39 			"/>
		</g>
		<g>
			<polygon fill="#FFCE31" points="16.1,31.339 34.141,45.581 25.387,52.39 7.347,48.37 			"/>
		</g>
		<g>
			<polygon fill="#83BF4F" points="6.961,33.823 28.76,41.145 26.285,52.39 4.486,52.39 			"/>
		</g>
		<g>
			<polygon fill="#ED4C5C" points="2.658,41.32 25.654,40.901 30.421,57.161 7.347,59.193 			"/>
		</g>
	</g>
	<g>
		<polygon fill="#898A90" points="38.494,56.465 23.991,62.99 23.991,56.944 38.494,50.418 		"/>
		<g>
			<path fill="#3E4347" d="M24.262,63.34c0,0.446-0.382,0.735-0.85,0.643l-22.564-4.45C0.382,59.439,0,58.999,0,58.554
				s0.382-0.734,0.849-0.643l22.564,4.451C23.88,62.454,24.262,62.894,24.262,63.34z"/>
			<path fill="#D0D0D0" d="M0,40.258c0-0.467,0.381-0.772,0.849-0.681l22.564,4.451c0.468,0.093,0.85,0.549,0.85,1.016v17.447
				c0,0.467-0.382,0.773-0.85,0.681L0.848,58.721C0.381,58.629,0,58.173,0,57.706V40.258z"/>
			<path fill="#3E4347" d="M15.163,55.948l-6.065-1.195v0.848H9.1c0.021,0.433,0.394,0.85,0.848,0.939l4.367,0.861
				c0.453,0.09,0.826-0.181,0.848-0.604h0.001V55.948z"/>
			<path fill="#94989B" d="M15.163,55.911c0,0.466-0.383,0.773-0.849,0.681l-4.367-0.862c-0.468-0.092-0.85-0.549-0.85-1.015v-3.091
				c0-0.467,0.382-0.771,0.85-0.68l4.367,0.861c0.466,0.092,0.849,0.549,0.849,1.016V55.911z"/>
			<path fill="#D0D0D0" d="M14.598,53.83c0,0.233-0.189,0.387-0.424,0.341L13.4,54.019c-0.234-0.047-0.426-0.275-0.426-0.508v-0.772
				c0-0.233,0.191-0.386,0.426-0.341l0.773,0.153c0.234,0.046,0.424,0.274,0.424,0.508V53.83z"/>
		</g>
	</g>
</g>
</svg>
