<?xml version="1.0" encoding="utf-8"?>
<!-- Generator: Adobe Illustrator 15.0.0, SVG Export Plug-In . SVG Version: 6.00 Build 0)  -->
<!DOCTYPE svg PUBLIC "-//W3C//DTD SVG 1.1//EN" "http://www.w3.org/Graphics/SVG/1.1/DTD/svg11.dtd">
<svg version="1.1" id="Layer_1" xmlns="http://www.w3.org/2000/svg" xmlns:xlink="http://www.w3.org/1999/xlink" x="0px" y="0px"
	 width="64px" height="64px" viewBox="0 0 64 64" enable-background="new 0 0 64 64" xml:space="preserve">
<g>
	<path fill="#89664C" d="M63.443,24.74H47.689v34.261l16.015-32.382C64.186,25.621,64.064,24.806,63.443,24.74z"/>
	<path fill="#AA7D5E" d="M60.818,21.298H45.064l2.625,37.703l13.39-35.824C61.561,22.179,61.439,21.364,60.818,21.298z"/>
	<path fill="#D3976E" d="M56.101,17.856h-8.411v41.145l9.377-38.836C57.371,18.889,56.938,17.856,56.101,17.856z"/>
	<path fill="#F2BC97" d="M52.156,12.959h-8.411l3.944,46.042l5.433-43.733C53.427,13.993,52.993,12.959,52.156,12.959z"/>
	<path fill="#FFCE31" d="M45.805,10.971H23.843V7.596C23.843,6.162,23,5,21.959,5H1.885C0.843,5,0,6.162,0,7.596v51.405h47.689
		V13.567C47.689,12.134,46.846,10.971,45.805,10.971z"/>
	<g>
		<ellipse fill="#FFFFFF" cx="10.792" cy="54.707" rx="2.502" ry="2.511"/>
		<path fill="#FFFFFF" d="M23.92,52.196c-1.386,0-2.498,1.124-2.498,2.51c0,1.389,1.112,2.512,2.498,2.512
			c1.381,0,2.502-1.123,2.502-2.512C26.422,53.32,25.301,52.196,23.92,52.196z"/>
		<ellipse fill="#FFFFFF" cx="36.898" cy="54.707" rx="2.5" ry="2.511"/>
	</g>
</g>
</svg>
