<?xml version="1.0" encoding="utf-8"?>
<!-- Generator: Adobe Illustrator 15.0.0, SVG Export Plug-In . SVG Version: 6.00 Build 0)  -->
<!DOCTYPE svg PUBLIC "-//W3C//DTD SVG 1.1//EN" "http://www.w3.org/Graphics/SVG/1.1/DTD/svg11.dtd">
<svg version="1.1" id="Layer_1" xmlns="http://www.w3.org/2000/svg" xmlns:xlink="http://www.w3.org/1999/xlink" x="0px" y="0px"
	 width="64px" height="64px" viewBox="0 0 64 64" enable-background="new 0 0 64 64" xml:space="preserve">
<g>
	<path fill="#93A2AA" d="M61,60c0,2.209-1.789,4-3.998,4H9.994c-2.209,0-3.999-1.791-3.999-4V12.661c0-2.209,1.79-4,3.999-4h47.008
		c2.209,0,3.998,1.791,3.998,4V60z"/>
	<path fill="#ED4C5C" d="M58.008,12.661c0-2.209-1.792-4-4.001-4H7.001c-2.209,0-4.001,1.791-4.001,4v22.673h55.008V12.661z"/>
	<path fill="#D9E3E8" d="M3,35.334V60c0,2.209,1.792,4,4.001,4h47.006c2.209,0,4.001-1.791,4.001-4V35.334H3z"/>
	<g>
		<circle fill="#3E4347" cx="12.397" cy="15.998" r="3"/>
		<circle fill="#3E4347" cx="24.516" cy="15.998" r="3"/>
		<circle fill="#3E4347" cx="36.49" cy="15.998" r="3"/>
		<circle fill="#3E4347" cx="48.466" cy="15.998" r="3"/>
	</g>
	<g>
		<path fill="#3E4347" d="M40.873,2.778c-0.645-1.308-1.737-2.715-3.704-2.777c-1.898-0.062-1.922,2.231-0.092,2.365
			c0.003,0.002,0.008,0.003,0.014,0.004c-0.054,0.008,0.424,0.33,0.275,0.175c0.438,0.459,0.665,0.925,0.882,1.443
			c0.627,1.501,0.801,3.1,0.813,4.672h2.992C42.04,6.688,41.783,4.629,40.873,2.778z M37.119,2.369
			c0.014,0.004,0.027,0.008,0.048,0.012c-0.021-0.004-0.038-0.009-0.054-0.012C37.115,2.369,37.115,2.369,37.119,2.369z"/>
		<path fill="#3E4347" d="M28.898,2.778c-0.644-1.308-1.736-2.715-3.703-2.777c-1.9-0.062-1.923,2.231-0.093,2.365
			c0.003,0.002,0.009,0.003,0.012,0.004c-0.052,0.008,0.424,0.33,0.276,0.175c0.439,0.459,0.666,0.925,0.883,1.443
			c0.626,1.501,0.8,3.1,0.81,4.672h2.995C30.065,6.688,29.807,4.629,28.898,2.778z M25.144,2.369
			c0.014,0.004,0.027,0.008,0.048,0.012c-0.021-0.004-0.038-0.009-0.052-0.012C25.14,2.369,25.142,2.369,25.144,2.369z"/>
		<path fill="#3E4347" d="M16.925,2.778c-0.643-1.308-1.739-2.715-3.706-2.777c-1.897-0.062-1.921,2.231-0.092,2.365
			c0.005,0.002,0.008,0.003,0.014,0.004c-0.052,0.008,0.425,0.33,0.275,0.175c0.439,0.459,0.665,0.925,0.884,1.443
			c0.625,1.501,0.799,3.1,0.81,4.672h2.994C18.089,6.688,17.833,4.629,16.925,2.778z M13.169,2.369
			c0.014,0.004,0.028,0.008,0.048,0.012c-0.02-0.004-0.037-0.009-0.053-0.012C13.166,2.369,13.167,2.369,13.169,2.369z"/>
		<path fill="#3E4347" d="M52.849,2.778c-0.643-1.308-1.737-2.715-3.704-2.777c-1.898-0.062-1.922,2.231-0.091,2.365
			c0.003,0.002,0.008,0.003,0.01,0.004c-0.051,0.008,0.426,0.33,0.278,0.175c0.438,0.459,0.665,0.925,0.881,1.443
			c0.627,1.501,0.801,3.1,0.811,4.672h2.995C54.016,6.688,53.758,4.629,52.849,2.778z M49.093,2.369
			c0.013,0.004,0.028,0.008,0.05,0.012c-0.021-0.004-0.038-0.009-0.055-0.012C49.09,2.369,49.093,2.369,49.093,2.369z"/>
	</g>
	<g>
		<g>
			<path fill="#94989B" d="M36.49,14.948c-0.347-0.011,0.341,0.068,0.004-0.008c0.348,0.078,0.082,0.023-0.025-0.027
				c0.372,0.18-0.352-0.322-0.176-0.137c-0.438-0.459-0.664-0.924-0.881-1.443c-0.627-1.501-0.801-3.1-0.812-4.672
				c-0.01-1.579,0.215-3.161,0.812-4.672c0.198-0.499,0.423-0.897,0.799-1.35c0.051-0.061,0.13-0.138,0.377-0.308
				c-0.264,0.181-0.002,0.022,0.071-0.008c-0.2,0.063-0.221,0.074-0.069,0.036c-0.234,0.017-0.266,0.021-0.1,0.014
				c1.925-0.062,1.932-2.435,0-2.372c-1.991,0.063-3.024,1.474-3.703,2.777c-0.946,1.823-1.168,3.932-1.18,5.882
				c-0.013,1.964,0.274,4.042,1.18,5.882c0.644,1.308,1.738,2.716,3.703,2.778C38.422,17.382,38.415,15.009,36.49,14.948
				L36.49,14.948z"/>
		</g>
		<g>
			<path fill="#94989B" d="M24.517,14.948c-0.348-0.011,0.34,0.068,0.002-0.008c0.349,0.078,0.083,0.023-0.023-0.027
				c0.369,0.18-0.354-0.322-0.176-0.137c-0.439-0.459-0.666-0.924-0.882-1.443c-0.627-1.501-0.802-3.1-0.811-4.672
				c-0.01-1.579,0.213-3.161,0.811-4.672c0.196-0.499,0.421-0.897,0.798-1.35c0.05-0.061,0.131-0.138,0.378-0.308
				c-0.265,0.181-0.003,0.022,0.071-0.008c-0.198,0.063-0.223,0.074-0.067,0.036c-0.234,0.017-0.269,0.021-0.101,0.014
				c1.924-0.062,1.93-2.435,0-2.372c-1.992,0.063-3.027,1.474-3.703,2.777c-0.948,1.823-1.168,3.932-1.181,5.882
				c-0.013,1.964,0.275,4.042,1.181,5.882c0.643,1.308,1.736,2.716,3.703,2.778C26.446,17.382,26.44,15.009,24.517,14.948
				L24.517,14.948z"/>
		</g>
		<g>
			<path fill="#94989B" d="M12.541,14.948c-0.348-0.011,0.341,0.068,0.003-0.008c0.351,0.078,0.083,0.023-0.023-0.027
				c0.371,0.18-0.354-0.322-0.177-0.137c-0.438-0.459-0.663-0.924-0.882-1.443c-0.628-1.501-0.8-3.1-0.812-4.672
				c-0.011-1.579,0.216-3.161,0.812-4.672c0.197-0.499,0.422-0.897,0.801-1.35c0.05-0.061,0.128-0.138,0.375-0.308
				c-0.264,0.181-0.002,0.022,0.071-0.008c-0.198,0.063-0.22,0.074-0.065,0.036c-0.234,0.017-0.27,0.021-0.103,0.014
				c1.924-0.062,1.932-2.435,0-2.372C10.55,0.064,9.516,1.475,8.838,2.778C7.892,4.602,7.671,6.71,7.658,8.66
				c-0.013,1.964,0.276,4.042,1.18,5.882c0.645,1.308,1.737,2.716,3.703,2.778C14.473,17.382,14.465,15.009,12.541,14.948
				L12.541,14.948z"/>
		</g>
		<g>
			<path fill="#94989B" d="M48.465,14.948c-0.345-0.011,0.342,0.068,0.004-0.008c0.349,0.078,0.083,0.023-0.023-0.027
				c0.369,0.18-0.354-0.322-0.177-0.137c-0.438-0.459-0.665-0.924-0.881-1.443c-0.627-1.501-0.802-3.1-0.812-4.672
				c-0.01-1.579,0.215-3.161,0.812-4.672c0.197-0.499,0.42-0.897,0.798-1.35c0.051-0.061,0.132-0.138,0.377-0.308
				c-0.264,0.181-0.002,0.022,0.072-0.008c-0.199,0.063-0.223,0.074-0.068,0.036c-0.233,0.017-0.268,0.021-0.102,0.014
				c1.925-0.062,1.932-2.435,0-2.372c-1.99,0.063-3.025,1.474-3.701,2.777c-0.947,1.823-1.168,3.932-1.181,5.882
				c-0.014,1.964,0.275,4.042,1.181,5.882c0.643,1.308,1.736,2.716,3.701,2.778C50.396,17.382,50.39,15.009,48.465,14.948
				L48.465,14.948z"/>
		</g>
	</g>
	<g>
		<g>
			<path fill="#D0D0D0" d="M33.553,8.66c0.013-1.652,0.224-3.31,0.849-4.893c0.281-0.708,0.912-2.188,2.089-2.225
				c0.578-0.019,0.58-0.73,0-0.712c-1.445,0.046-2.211,1.243-2.692,2.168c-0.913,1.76-1.131,3.778-1.142,5.661
				C32.652,9.119,33.551,9.119,33.553,8.66L33.553,8.66z"/>
		</g>
		<g>
			<path fill="#D0D0D0" d="M21.578,8.66c0.011-1.652,0.224-3.31,0.85-4.893c0.278-0.708,0.91-2.188,2.089-2.225
				c0.577-0.019,0.579-0.73,0-0.712c-1.445,0.046-2.212,1.243-2.695,2.168c-0.912,1.76-1.129,3.778-1.141,5.661
				C20.679,9.119,21.575,9.119,21.578,8.66L21.578,8.66z"/>
		</g>
		<g>
			<path fill="#D0D0D0" d="M9.604,8.66c0.011-1.652,0.223-3.31,0.847-4.893c0.281-0.708,0.912-2.188,2.09-2.225
				c0.577-0.019,0.58-0.73,0-0.712c-1.446,0.046-2.212,1.243-2.692,2.168c-0.914,1.76-1.13,3.778-1.143,5.661
				C8.703,9.119,9.601,9.119,9.604,8.66L9.604,8.66z"/>
		</g>
		<g>
			<path fill="#D0D0D0" d="M45.528,8.66c0.011-1.652,0.223-3.31,0.85-4.893c0.278-0.708,0.91-2.188,2.087-2.225
				c0.577-0.019,0.58-0.73,0-0.712c-1.443,0.046-2.211,1.243-2.691,2.168c-0.914,1.76-1.131,3.778-1.143,5.661
				C44.626,9.119,45.525,9.119,45.528,8.66L45.528,8.66z"/>
		</g>
	</g>
	<g>
		<path fill="#FFFFFF" d="M19.62,29.043c0.067,0.48,0.202,0.839,0.4,1.076c0.363,0.433,0.987,0.648,1.869,0.648
			c0.529,0,0.959-0.057,1.289-0.171c0.626-0.218,0.938-0.624,0.938-1.219c0-0.347-0.153-0.615-0.46-0.806
			c-0.307-0.185-0.793-0.349-1.458-0.491l-1.137-0.249c-1.119-0.248-1.887-0.516-2.305-0.806c-0.708-0.485-1.062-1.243-1.062-2.273
			c0-0.941,0.346-1.722,1.039-2.345c0.692-0.623,1.709-0.934,3.052-0.934c1.12,0,2.076,0.293,2.867,0.88
			c0.791,0.586,1.206,1.438,1.244,2.555h-2.109c-0.039-0.632-0.321-1.081-0.848-1.347c-0.351-0.176-0.786-0.264-1.308-0.264
			c-0.58,0-1.042,0.114-1.388,0.342s-0.519,0.546-0.519,0.955c0,0.375,0.171,0.656,0.512,0.841c0.219,0.124,0.684,0.269,1.396,0.435
			l1.844,0.435c0.808,0.189,1.413,0.443,1.815,0.762c0.626,0.494,0.939,1.21,0.939,2.146c0,0.959-0.37,1.756-1.112,2.391
			c-0.743,0.635-1.79,0.951-3.145,0.951c-1.384,0-2.471-0.313-3.263-0.938c-0.793-0.625-1.189-1.483-1.189-2.576H19.62z"/>
		<path fill="#FFFFFF" d="M35.541,23.641h-5.559v2.23h5.103v1.825h-5.103v2.7h5.815v1.889h-7.961V21.781h7.704V23.641z"/>
		<path fill="#FFFFFF" d="M44.56,27.738c-0.613,0.514-1.492,0.771-2.634,0.771h-2.187v3.776h-2.182V21.781h4.511
			c1.04,0,1.869,0.271,2.487,0.812c0.618,0.542,0.928,1.38,0.928,2.516C45.483,26.349,45.176,27.227,44.56,27.738z M42.886,23.955
			c-0.278-0.233-0.668-0.349-1.169-0.349h-1.978v3.094h1.978c0.501,0,0.891-0.127,1.169-0.378c0.277-0.252,0.416-0.651,0.416-1.197
			S43.163,24.188,42.886,23.955z"/>
	</g>
	<g>
		<path fill="#333333" d="M16.337,45.391v-2.899c1.426-0.06,2.422-0.149,2.99-0.269c0.907-0.189,1.647-0.568,2.216-1.137
			c0.392-0.389,0.685-0.906,0.886-1.554c0.116-0.388,0.175-0.677,0.175-0.866h3.775v21.668h-4.632V45.391H16.337z"/>
		<path fill="#333333" d="M32.629,45.391v-2.899c1.425-0.06,2.422-0.149,2.99-0.269c0.907-0.189,1.647-0.568,2.216-1.137
			c0.392-0.389,0.685-0.906,0.886-1.554c0.116-0.388,0.175-0.677,0.175-0.866h3.775v21.668h-4.633V45.391H32.629z"/>
	</g>
</g>
</svg>
