<?xml version="1.0" encoding="utf-8"?>
<!-- Generator: Adobe Illustrator 15.0.0, SVG Export Plug-In . SVG Version: 6.00 Build 0)  -->
<!DOCTYPE svg PUBLIC "-//W3C//DTD SVG 1.1//EN" "http://www.w3.org/Graphics/SVG/1.1/DTD/svg11.dtd">
<svg version="1.1" id="Layer_1" xmlns="http://www.w3.org/2000/svg" xmlns:xlink="http://www.w3.org/1999/xlink" x="0px" y="0px"
	 width="64px" height="64px" viewBox="0 0 64 64" enable-background="new 0 0 64 64" xml:space="preserve">
<g>
	<path fill="#B1BCC4" d="M4.928,24.545l3.23,25.675C8.159,57.832,18.273,64,30.749,64c12.475,0,22.589-6.168,22.589-13.779
		l3.23-25.675H4.928z"/>
	<path fill="#CAD5DD" d="M9.104,24.545l2.708,25.675C11.812,57.832,20.29,64,30.749,64c10.458,0,18.936-6.168,18.936-13.779
		l2.707-25.675H9.104z"/>
	<ellipse fill="#CAD5DD" cx="30.748" cy="25.156" rx="25.82" ry="11.73"/>
	<ellipse fill="#333333" cx="30.749" cy="24.545" rx="21.085" ry="9.578"/>
	<g>
		<path fill="#EFD57F" d="M17.289,26.366c0.426,3.295-4.921-3.653-6.531-1.578c-0.813,1.056,3.563,6.469,3.563,6.469l11-4.891
			c0,0,0.963-8.588-0.5-7.015C21.268,23.169,16.57,20.799,17.289,26.366z"/>
		<path fill="#FEE790" d="M22.789,26.366c-3.369-0.534-2.446-6.163-5-5.515c-3.469,0.88-0.938,5.313-7.162,8.123
			c0,0,18.131,12.377,19.622-0.136c0,0.138-3.043-6.761-4.929-6.174C24.25,22.997,25.08,26.727,22.789,26.366z"/>
	</g>
	<g>
		<path fill="#EFD57F" d="M33.319,25.664c-0.33,3.306,8.531,9.532,8.531,9.532l11.844-9.625c0,0-3.809-1.097-4.969-2.625
			c-0.818-1.078-2.031-4.201-4.355-3.789c-2.619,0.464-1.801,4.783-3.11,5.766C39.665,26.119,33.539,23.434,33.319,25.664z"/>
		<path fill="#FEE790" d="M48.882,20.414c-1.143-0.946-14.128,8.329-14.165,8.561c-0.353,2.156,5.082,1.952,5.815,2.022
			c-0.795,4.208,13.458,0.109,13.807-2.158c-1.055-2.457-2.973-3.583-5.754-3.378C48.304,25.415,50.911,22.09,48.882,20.414z"/>
	</g>
	<g>
		<path fill="#428BC1" d="M23.592,35.453c-0.833,1.107,17.164-0.59,17.38-0.854c1.39-1.702-3.419-4.108-4.035-4.522
			c2.864-3.307,0.845-4.371-3.236-3.292c0.399-6.783-1.245-8.54-4.484,0.009c-1.185-0.629-5.394-0.051-6.304,2.088
			C21.875,31.326,27.757,29.92,23.592,35.453z"/>
		<path fill="#42ADE2" d="M27.299,21.784c-1.806,0.502-1.097,12.562,1.257,13.155c-0.163,0.284-2.504,2.789-1.528,3.642
			c1.628,1.418,8.936-4.743,8.56-6.484c6.798,0.796,9.049-0.707,0.287-4.32c0.692-1.038,3.884-4.092,1.796-5.109
			c-2.41-1.174-4.438,3.098-6.082,2.792C30.201,25.201,29.846,21.071,27.299,21.784z"/>
	</g>
	<g>
		<g>
			<path fill="#B1BCC4" d="M51.695,32.01l-2.011,18.211C49.685,57.832,41.206,64,30.749,64c12.475,0,22.589-6.168,22.589-13.779
				l2.983-23.46C55.736,28.702,54.106,30.492,51.695,32.01z"/>
			<path fill="#B1BCC4" d="M11.812,50.221L9.8,32.01c-2.41-1.518-4.042-3.308-4.627-5.25l2.985,23.46
				C8.159,57.832,18.273,64,30.749,64C20.29,64,11.812,57.832,11.812,50.221z"/>
		</g>
		<path fill="#CAD5DD" d="M56.568,24.545h-0.035c-0.7-6.194-11.977-11.119-25.785-11.119c-13.81,0-25.085,4.924-25.786,11.119H4.928
			l0.022,0.204c-0.012,0.136-0.022,0.271-0.022,0.407c0,0.544,0.088,1.08,0.245,1.604c0.585,1.942,2.217,3.732,4.627,5.25
			l2.012,18.211C11.812,57.832,20.29,64,30.749,64c10.458,0,18.936-6.168,18.936-13.779l2.011-18.211
			c2.411-1.518,4.041-3.308,4.626-5.25c0.158-0.525,0.247-1.06,0.247-1.604c0-0.136-0.013-0.271-0.021-0.407L56.568,24.545z
			 M30.749,34.123c-11.645,0-21.085-4.288-21.085-9.578s9.44-9.578,21.085-9.578c11.643,0,21.085,4.289,21.085,9.578
			S42.392,34.123,30.749,34.123z"/>
	</g>
	<g>
		
			<rect x="9.397" y="55.899" transform="matrix(0.9824 -0.1867 0.1867 0.9824 -10.4045 2.9482)" fill="#7D8B91" width="2.102" height="1.61"/>
		
			<rect x="22.685" y="55.917" transform="matrix(0.9825 -0.1863 0.1863 0.9825 -10.1506 5.4143)" fill="#7D8B91" width="2.102" height="1.609"/>
		<path fill="#7D8B91" d="M13.705,52.58c0,0,4.132,3.799,11.214,4.736c0,0-0.755,5.554-2.705,6.398
			c-3.25,1.406-11.998-2.663-12.648-6.023C9.233,55.98,13.705,52.58,13.705,52.58z"/>
		<path fill="#DFE9EF" d="M13.406,51c0,0,4.131,3.799,11.214,4.736c0,0-0.756,5.553-2.706,6.396
			c-3.249,1.408-11.997-2.662-12.648-6.023C8.934,54.4,13.406,51,13.406,51z"/>
	</g>
	<path fill="#FFFFFF" d="M54.365,29.92c-1.276,1.729-3.058,3.04-4.899,4.159c-1.869,1.094-3.877,1.958-5.947,2.602
		c-4.146,1.312-8.494,1.797-12.814,1.815c-4.291-0.025-8.65-0.464-12.807-1.731c-2.078-0.624-4.098-1.47-5.969-2.568
		c-1.839-1.125-3.626-2.468-4.797-4.276c1.504,1.509,3.354,2.555,5.248,3.405c1.9,0.854,3.896,1.462,5.919,1.933
		c4.059,0.91,8.228,1.25,12.419,1.239c4.16,0.02,8.339-0.362,12.384-1.315c2.018-0.491,4.01-1.118,5.914-1.971
		C50.92,32.363,52.774,31.336,54.365,29.92z"/>
	<g>
		<path fill="#B1BCC4" d="M58.424,14.675l0.622-3.603c0.642-2.869-10.79-7.446-22.127-9.583C25.583-0.647,13.114-0.575,12.471,2.293
			l-0.973,3.538L58.424,14.675z"/>
		<path fill="#CAD5DD" d="M55.355,14.096l0.646-3.598c0.64-2.868-9.229-7.15-19.083-9.008C27.066-0.367,16.16,0,15.517,2.868
			l-0.949,3.542L55.355,14.096z"/>
		<path fill="#7D8B91" d="M11.551,5.601C12.096,3.16,23.042,3.161,36,5.603c12.958,2.442,23.02,6.401,22.475,8.842
			c-0.545,2.441-11.492,2.44-24.449-0.002C21.067,12.001,11.004,8.041,11.551,5.601z"/>
		<path fill="#333333" d="M15.803,6.642c0.443-1.993,9.385-1.993,19.965,0.001c10.58,1.994,18.797,5.227,18.353,7.221
			c-0.446,1.993-9.386,1.991-19.968-0.001C23.574,11.868,15.356,8.635,15.803,6.642z"/>
	</g>
</g>
</svg>
