<?xml version="1.0" encoding="utf-8"?>
<!-- Generator: Adobe Illustrator 15.0.0, SVG Export Plug-In . SVG Version: 6.00 Build 0)  -->
<!DOCTYPE svg PUBLIC "-//W3C//DTD SVG 1.1//EN" "http://www.w3.org/Graphics/SVG/1.1/DTD/svg11.dtd">
<svg version="1.1" id="Layer_1" xmlns="http://www.w3.org/2000/svg" xmlns:xlink="http://www.w3.org/1999/xlink" x="0px" y="0px"
	 width="64px" height="64px" viewBox="0 0 64 64" enable-background="new 0 0 64 64" xml:space="preserve">
<g>
	<path fill="#93A2AA" d="M60,58.237c0,2.07-1.728,3.749-3.86,3.749H10.753c-2.133,0-3.86-1.679-3.86-3.749V13.867
		c0-2.071,1.728-3.75,3.86-3.75H56.14c2.133,0,3.86,1.679,3.86,3.75V58.237z"/>
	<path fill="#F0F4F5" d="M57.111,58.237c0,2.07-1.73,3.749-3.863,3.749H7.862C5.729,61.986,4,60.308,4,58.237V13.867
		c0-2.071,1.729-3.75,3.862-3.75h45.386c2.133,0,3.863,1.679,3.863,3.75V58.237z"/>
	<path fill="#93A2AA" d="M52.276,56.367c-6.38,6.191-17.98,5.619-17.98,5.619s8.488-2.453,16.334-11.729
		c5.866-6.936,6.481-15.289,6.481-15.289S60.634,48.254,52.276,56.367z"/>
	<g>
		<ellipse fill="#3E4347" cx="13.074" cy="16.994" rx="2.897" ry="2.812"/>
		<ellipse fill="#3E4347" cx="24.774" cy="16.994" rx="2.897" ry="2.812"/>
		<ellipse fill="#3E4347" cx="36.335" cy="16.994" rx="2.896" ry="2.812"/>
		<ellipse fill="#3E4347" cx="47.899" cy="16.994" rx="2.896" ry="2.812"/>
	</g>
	<g>
		<path fill="#3E4347" d="M40.567,4.604c-0.623-1.226-1.678-2.544-3.576-2.603c-1.834-0.058-1.855,2.091-0.09,2.217
			c0.004,0.002,0.008,0.003,0.015,0.003c-0.052,0.008,0.409,0.31,0.265,0.164c0.424,0.43,0.643,0.867,0.852,1.353
			c0.606,1.407,0.773,2.905,0.785,4.379h2.889C41.694,8.269,41.446,6.338,40.567,4.604z M36.943,4.221
			c0.012,0.003,0.026,0.007,0.046,0.011c-0.02-0.003-0.037-0.008-0.053-0.011C36.938,4.221,36.938,4.221,36.943,4.221z"/>
		<path fill="#3E4347" d="M29.005,4.604c-0.62-1.226-1.676-2.544-3.574-2.603c-1.836-0.058-1.857,2.091-0.09,2.217
			c0.002,0.002,0.009,0.003,0.012,0.003c-0.051,0.008,0.41,0.31,0.266,0.164c0.424,0.43,0.643,0.867,0.853,1.353
			c0.605,1.407,0.772,2.905,0.782,4.379h2.891C30.132,8.269,29.882,6.338,29.005,4.604z M25.381,4.221
			c0.013,0.003,0.026,0.007,0.046,0.011c-0.02-0.003-0.037-0.008-0.05-0.011C25.377,4.221,25.38,4.221,25.381,4.221z"/>
		<path fill="#3E4347" d="M17.444,4.604c-0.62-1.226-1.68-2.544-3.578-2.603c-1.832-0.058-1.854,2.091-0.088,2.217
			c0.005,0.002,0.008,0.003,0.013,0.003c-0.051,0.008,0.41,0.31,0.266,0.164c0.425,0.43,0.642,0.867,0.854,1.353
			c0.603,1.407,0.771,2.905,0.781,4.379h2.891C18.569,8.269,18.322,6.338,17.444,4.604z M13.818,4.221
			c0.014,0.003,0.027,0.007,0.047,0.011c-0.02-0.003-0.036-0.008-0.052-0.011C13.815,4.221,13.817,4.221,13.818,4.221z"/>
		<path fill="#3E4347" d="M52.13,4.604c-0.621-1.226-1.678-2.544-3.576-2.603c-1.833-0.058-1.855,2.091-0.088,2.217
			c0.002,0.002,0.008,0.003,0.01,0.003c-0.049,0.008,0.41,0.31,0.269,0.164c0.423,0.43,0.642,0.867,0.851,1.353
			c0.605,1.407,0.773,2.905,0.782,4.379h2.892C53.257,8.269,53.007,6.338,52.13,4.604z M48.503,4.221
			c0.013,0.003,0.027,0.007,0.049,0.011c-0.021-0.003-0.037-0.008-0.053-0.011C48.501,4.221,48.503,4.221,48.503,4.221z"/>
	</g>
	<g>
		<g>
			<path fill="#94989B" d="M36.335,16.01c-0.334-0.01,0.33,0.064,0.004-0.007c0.336,0.073,0.08,0.022-0.024-0.026
				c0.359,0.169-0.339-0.302-0.169-0.128c-0.424-0.43-0.643-0.866-0.852-1.353c-0.604-1.407-0.773-2.906-0.783-4.379
				c-0.01-1.48,0.207-2.963,0.783-4.379c0.191-0.468,0.408-0.841,0.771-1.265c0.049-0.057,0.125-0.129,0.364-0.288
				c-0.255,0.169-0.002,0.021,0.069-0.008c-0.193,0.059-0.213,0.07-0.067,0.034c-0.227,0.016-0.257,0.019-0.097,0.013
				c1.859-0.058,1.866-2.282,0-2.223c-1.923,0.06-2.919,1.381-3.575,2.603c-0.913,1.709-1.128,3.685-1.14,5.513
				c-0.012,1.84,0.266,3.788,1.14,5.513c0.622,1.226,1.679,2.545,3.575,2.604C38.201,18.292,38.194,16.068,36.335,16.01
				L36.335,16.01z"/>
		</g>
		<g>
			<path fill="#94989B" d="M24.775,16.01c-0.337-0.01,0.328,0.064,0.003-0.007c0.334,0.073,0.079,0.022-0.024-0.026
				c0.356,0.169-0.341-0.302-0.17-0.128c-0.425-0.43-0.644-0.866-0.851-1.353c-0.605-1.407-0.773-2.906-0.783-4.379
				c-0.01-1.48,0.205-2.963,0.783-4.379c0.189-0.468,0.406-0.841,0.77-1.265c0.049-0.057,0.127-0.129,0.365-0.288
				c-0.256,0.169-0.003,0.021,0.068-0.008c-0.191,0.059-0.215,0.07-0.064,0.034c-0.227,0.016-0.26,0.019-0.097,0.013
				c1.856-0.058,1.863-2.282,0-2.223c-1.923,0.06-2.923,1.381-3.576,2.603c-0.915,1.709-1.127,3.685-1.14,5.513
				c-0.012,1.84,0.266,3.788,1.14,5.513c0.62,1.226,1.677,2.545,3.576,2.604C26.639,18.292,26.632,16.068,24.775,16.01L24.775,16.01
				z"/>
		</g>
		<g>
			<path fill="#94989B" d="M13.212,16.01c-0.336-0.01,0.329,0.064,0.004-0.007c0.338,0.073,0.079,0.022-0.023-0.026
				c0.357,0.169-0.34-0.302-0.171-0.128c-0.423-0.43-0.64-0.866-0.852-1.353c-0.606-1.407-0.771-2.906-0.783-4.379
				c-0.01-1.48,0.209-2.963,0.783-4.379c0.191-0.468,0.409-0.841,0.773-1.265c0.048-0.057,0.124-0.129,0.362-0.288
				c-0.254,0.169-0.002,0.021,0.068-0.008c-0.191,0.059-0.212,0.07-0.063,0.034c-0.228,0.016-0.26,0.019-0.1,0.013
				c1.857-0.058,1.865-2.282,0-2.223c-1.922,0.06-2.921,1.381-3.575,2.603C8.725,6.313,8.51,8.289,8.498,10.117
				c-0.013,1.84,0.266,3.788,1.139,5.513c0.622,1.226,1.679,2.545,3.575,2.604C15.077,18.292,15.069,16.068,13.212,16.01
				L13.212,16.01z"/>
		</g>
		<g>
			<path fill="#94989B" d="M47.897,16.01c-0.334-0.01,0.33,0.064,0.004-0.007c0.336,0.073,0.08,0.022-0.023-0.026
				c0.357,0.169-0.342-0.302-0.17-0.128c-0.424-0.43-0.643-0.866-0.851-1.353c-0.606-1.407-0.774-2.906-0.784-4.379
				c-0.009-1.48,0.207-2.963,0.784-4.379c0.19-0.468,0.405-0.841,0.771-1.265c0.049-0.057,0.127-0.129,0.363-0.288
				c-0.254,0.169-0.001,0.021,0.07-0.008c-0.192,0.059-0.215,0.07-0.066,0.034c-0.225,0.016-0.258,0.019-0.098,0.013
				c1.858-0.058,1.865-2.282,0-2.223c-1.922,0.06-2.922,1.381-3.574,2.603c-0.915,1.709-1.127,3.685-1.14,5.513
				c-0.013,1.84,0.267,3.788,1.14,5.513c0.621,1.226,1.677,2.545,3.574,2.604C49.763,18.292,49.756,16.068,47.897,16.01
				L47.897,16.01z"/>
		</g>
	</g>
	<rect x="8.698" y="25.239" fill="#7D8B91" width="42.891" height="2.78"/>
	<rect x="8.698" y="33.579" fill="#7D8B91" width="42.891" height="2.78"/>
	<rect x="8.698" y="41.919" fill="#7D8B91" width="42.891" height="2.78"/>
	<rect x="30.144" y="50.258" fill="#7D8B91" width="16.618" height="2.78"/>
	<path fill="#D7DADB" d="M57.111,34.969c0,12.889-9.579,27.018-22.815,27.018c0,0,5.371-2.98,5.371-13.936
		C54.753,48.051,57.111,34.969,57.111,34.969z"/>
</g>
</svg>
