<?xml version="1.0" encoding="utf-8"?>
<!-- Generator: Adobe Illustrator 15.0.0, SVG Export Plug-In . SVG Version: 6.00 Build 0)  -->
<!DOCTYPE svg PUBLIC "-//W3C//DTD SVG 1.1//EN" "http://www.w3.org/Graphics/SVG/1.1/DTD/svg11.dtd">
<svg version="1.1" id="Layer_1" xmlns="http://www.w3.org/2000/svg" xmlns:xlink="http://www.w3.org/1999/xlink" x="0px" y="0px"
	 width="64px" height="64px" viewBox="0 0 64 64" enable-background="new 0 0 64 64" xml:space="preserve">
<g>
	<g>
		
			<ellipse transform="matrix(-0.7071 -0.7071 0.7071 -0.7071 8.6396 20.8572)" fill="#94989B" cx="8.639" cy="8.639" rx="3.287" ry="11.764"/>
		<path fill="#D0D0D0" d="M38.421,25.579C32.864,20.022,18.546,2.291,17.08,0.473c0.966,1.473-1.687,6.062-6.117,10.491
			c-4.43,4.43-9.018,7.083-10.491,6.117c1.818,1.466,19.55,15.784,25.107,21.342c5.556,5.556,19.875,23.288,21.34,25.106
			c0.036,0.055,0.077,0.105,0.123,0.15l0,0l0,0c1.283,1.283,6.049-1.399,10.643-5.994c4.594-4.594,7.277-9.358,5.994-10.643l0,0l0,0
			c-0.046-0.047-0.096-0.087-0.15-0.122C61.71,45.454,43.978,31.136,38.421,25.579z"/>
		<path fill="#D0D0D0" d="M11.306,3.037c0.757-0.338,1.332-0.404,1.605-0.131c0.723,0.724-0.931,3.55-3.694,6.313
			c-2.763,2.763-5.589,4.417-6.313,3.694c-0.101-0.101-0.154-0.246-0.166-0.424c-0.513,1.089-0.631,1.916-0.248,2.299
			c0.964,0.964,4.732-1.241,8.417-4.925c3.684-3.683,5.889-7.452,4.925-8.416C15.218,0.829,13.458,1.507,11.306,3.037z"/>
		<path fill="#D0D0D0" d="M7.131,9.305C6.736,8.912,7.541,7.467,8.927,6.08c1.266-1.266,2.579-2.045,3.098-1.872
			c-0.001-0.132-0.036-0.237-0.108-0.309c-0.461-0.461-2.262,0.593-4.023,2.353c-1.76,1.762-2.814,3.563-2.354,4.023
			c0.333,0.333,1.369-0.126,2.583-1.073C7.659,9.424,7.299,9.474,7.131,9.305z"/>
		<g>
			<path fill="#94989B" d="M25.149,34.107l1.793-1.996l-17.487-15.7c-0.758,0.579-1.511,1.109-2.25,1.586L25.149,34.107z"/>
			<path fill="#94989B" d="M18.371,7.159c-0.503,0.721-1.053,1.45-1.647,2.183l15.605,17.382l0.024,0.027l3.61,3.609l22.693,22.077
				l1.744-2.049L37.854,28.456l-3.552-3.552L18.371,7.159z"/>
			<path fill="#94989B" d="M12.21,14.108L28.63,30.526l1.896-1.896L14.139,12.242c-0.139,0.143-0.28,0.285-0.422,0.428
				C13.218,13.167,12.715,13.648,12.21,14.108z"/>
		</g>
		<path fill="#3E4347" d="M41.21,27.103c0,0,0.689,1.842-5.789,8.319c-6.478,6.478-8.318,5.788-8.318,5.788l-6.8-6.799
			c0,0,1.702,0.826,8.319-5.789c6.615-6.617,5.789-8.319,5.789-8.319L41.21,27.103z"/>
	</g>
	<path fill="#94989B" d="M48.474,61.181c0.473-0.172,1.243-0.531,2.309-1.229c1.595-1.045,3.326-2.484,5.005-4.163L37.354,37.354
		c-1.612,1.612-3.248,3.148-4.899,4.607C38.384,48.743,46.151,58.308,48.474,61.181z"/>
</g>
</svg>
