<?xml version="1.0" encoding="utf-8"?>
<!-- Generator: Adobe Illustrator 15.0.0, SVG Export Plug-In . SVG Version: 6.00 Build 0)  -->
<!DOCTYPE svg PUBLIC "-//W3C//DTD SVG 1.1//EN" "http://www.w3.org/Graphics/SVG/1.1/DTD/svg11.dtd">
<svg version="1.1" id="Layer_1" xmlns="http://www.w3.org/2000/svg" xmlns:xlink="http://www.w3.org/1999/xlink" x="0px" y="0px"
	 width="64px" height="64px" viewBox="0 0 64 64" enable-background="new 0 0 64 64" xml:space="preserve">
<g>
	<path fill="#467591" d="M38.868,44.826c-3.151-2.16-0.401-3.729,1.195-4.69c2.065-1.242,0.889-2.544,0.95-3.923
		c0.028-0.631,2.619-0.506,2.432-2.941c-0.133-1.716-4.237-5.118-5.313-6.161c-0.62-0.601-0.072-2.308-0.449-3.32
		c-1.399-3.75-1.889-6.391-4.209-8.909C27.948,8.884,9.079,9.651,3.807,18.478c-5.918,9.909-5.74,23.189,6.307,30.985
		c2.085,1.349-1.536,14.9-1.536,14.9h21.7c0-1.985-2.42-9.101,1.814-8.781c3.68,0.277,8.185,0.124,7.787-3.86
		c-0.119-1.201-0.262-2.283,0.613-3.279C41.368,47.447,42.106,47.046,38.868,44.826z"/>
	<polygon fill="#467591" points="43.844,42.665 63.999,45.196 63.999,40.136 	"/>
	<polygon fill="#467591" points="60.217,59.327 62.379,54.945 43.844,45.354 	"/>
	<polygon fill="#467591" points="62.379,30.34 60.217,25.958 43.844,39.933 	"/>
</g>
</svg>
