<?xml version="1.0" encoding="utf-8"?>
<!-- Generator: Adobe Illustrator 15.0.0, SVG Export Plug-In . SVG Version: 6.00 Build 0)  -->
<!DOCTYPE svg PUBLIC "-//W3C//DTD SVG 1.1//EN" "http://www.w3.org/Graphics/SVG/1.1/DTD/svg11.dtd">
<svg version="1.1" id="Layer_1" xmlns="http://www.w3.org/2000/svg" xmlns:xlink="http://www.w3.org/1999/xlink" x="0px" y="0px"
	 width="64px" height="64px" viewBox="0 0 64 64" enable-background="new 0 0 64 64" xml:space="preserve">
<g>
	<g>
		<path fill="#94989B" d="M36.811,30.423c0,0,14.588,8.555,27.189,33.578L33.617,33.618L36.811,30.423z"/>
		<path fill="#D0D0D0" d="M30.422,36.813c0,0,8.555,14.587,33.578,27.188L33.617,33.618L30.422,36.813z"/>
	</g>
	<path fill="#3E4347" d="M3.621,13.703c-1.04-1.04-1.041-2.727,0-3.769l6.314-6.314c1.041-1.042,2.728-1.041,3.768-0.001
		l22.602,25.116c1.041,1.039,1.041,2.727,0.001,3.768l-3.803,3.801c-1.041,1.041-2.728,1.041-3.768,0.001L3.621,13.703z"/>
	<path fill="#D3976E" d="M5.757,13.107l7.35-7.35c1.042-1.042,1.042-2.729,0.003-3.771l-0.195-0.192
		c-0.806-0.807-2.003-0.988-2.984-0.543C7.5-0.586,4.029-0.4,1.814,1.813C-0.399,4.029-0.588,7.501,1.254,9.93
		c-0.446,0.98-0.266,2.178,0.54,2.986l0.195,0.192C3.029,14.148,4.715,14.148,5.757,13.107z"/>
	<path fill="#D3976E" d="M44.244,8.7c-2.842-1.294-5.829-0.421-7.622,2.232c-2.011,2.98-1.278,5.742-0.039,7.202
		c1.319,1.554,3.349,2.073,5.052,1.291c0.88-0.406,1.263-1.441,0.859-2.321c-0.403-0.878-1.441-1.264-2.32-0.86
		c-0.252,0.115-0.64-0.042-0.923-0.375c-0.605-0.714-0.504-1.828,0.272-2.979c1.121-1.66,2.529-1.341,3.271-1.004
		c1.554,0.708,2.801,2.646,2.177,4.98c-1.078,4.035-5.154,9.676-11.789,16.317c-6.642,6.635-12.283,10.71-16.317,11.789
		c-2.334,0.624-4.271-0.624-4.979-2.177c-0.337-0.74-0.656-2.149,1.004-3.27c1.151-0.777,2.265-0.879,2.979-0.273
		c0.333,0.283,0.49,0.672,0.375,0.923c-0.403,0.878-0.019,1.917,0.86,2.321c0.879,0.402,1.915,0.02,2.32-0.86
		c0.782-1.703,0.263-3.733-1.291-5.052c-1.459-1.238-4.221-1.972-7.201,0.039c-2.653,1.793-3.526,4.781-2.232,7.622
		c1.317,2.894,4.855,5.233,9.069,4.108c4.692-1.254,10.711-5.526,17.888-12.695c7.17-7.178,11.441-13.196,12.695-17.889
		C49.478,13.555,47.138,10.017,44.244,8.7z"/>
</g>
</svg>
