<?xml version="1.0" encoding="utf-8"?>
<!-- Generator: Adobe Illustrator 15.0.0, SVG Export Plug-In . SVG Version: 6.00 Build 0)  -->
<!DOCTYPE svg PUBLIC "-//W3C//DTD SVG 1.1//EN" "http://www.w3.org/Graphics/SVG/1.1/DTD/svg11.dtd">
<svg version="1.1" id="Layer_1" xmlns="http://www.w3.org/2000/svg" xmlns:xlink="http://www.w3.org/1999/xlink" x="0px" y="0px"
	 width="64px" height="64px" viewBox="0 0 64 64" enable-background="new 0 0 64 64" xml:space="preserve">
<g>
	<g>
		<path fill="#D6EEF0" d="M63.999,64c0,0-10.328-2.802-13.869-3c-7.432-0.417-22.175,3.025-29.616,3
			C7.541,63.958,0.471,60.64,0.02,49.435c-0.261-6.482,2.023-19.387,2-25.875C1.998,17.648,0.02,0,0.02,0s16.635,2.825,22.244,3
			c10.455,0.326,41.735-3,41.735-3s-2.041,25.905-1.998,34.56C62.038,41.937,63.999,64,63.999,64z"/>
		<path opacity="0.5" fill="#62727A" d="M20.496,64C7.523,63.958,0.453,60.64,0.002,49.435c2.143,4.292,7.223-1.708,7.223-1.708
			S6.561,62.31,20.496,64z"/>
	</g>
	<g>
		<g>
			<path fill="#83BF4F" d="M17.529,36.043c-3.447-1.028-3.447-3.369-3.447-3.369c4.021,0,8.535-4.29,8.535-4.29
				c-2.957-6.774-4.188-1.027-4.188-1.027c-4.348-3.242,1.15-4.862,1.15-4.862c-3.365-0.955-4.924-3.682-4.924-3.682
				c-0.164,1.695-1.15,1.619-1.15,1.619c-7.717-3.018-9.107,1.843-9.107,1.843C5.625,24.85,3,25.145,3,25.145
				c2.543,0.293,3.855-2.063,3.855-2.063c5.256,1.768,2.467,8.102,2.467,8.102c2.051,0.808,2.625,3.46,2.625,3.46
				c2.545,0.513,5.256,1.991,5.256,1.991c-2.629,3.38,1.475,4.562,1.475,4.562c-1.561,5.892,1.723,7.805,1.723,7.805
				c-0.82-4.488,4.02-7.363,4.02-7.363C26.063,36.264,17.529,36.043,17.529,36.043z"/>
			<path fill="#83BF4F" d="M24.631,16.826c0,0-2.361-1.105-6.059,0.604C18.572,17.431,17.58,23.507,24.631,16.826z"/>
			<path fill="#83BF4F" d="M30.27,18.22c-3.018-3.47-7.879,1.256-7.879,1.256c1.725,0.992,1.951,1.87,1.625,2.652
				c-1.191,2.871,0.342,3.752,0.342,3.752c0.93-2.427,4.129-2.813,4.129-2.813C28.303,20.8,30.27,18.22,30.27,18.22z"/>
			<path fill="#83BF4F" d="M47.071,19.958c0,0,0.621-1.509-1.846-1.738c0,0-3.379,2.909-1.84,4.515c0,0-0.619,2.884-1.48-1.32
				c0,0-1.412,2.479-3.322,1.927c0,0-0.525,2.511-1.725,0.829c0,0,0.982,0.276,1.199-0.498c0,0-2.773-1.987-4.433,1.021
				c0,0-1.352,0.36-0.83,1.77c0,0,0.951-1.161,1.446,0.608c0,0,0.525-0.275,0.742-2.542c0,0,1.318-0.441,0.301,1.352
				c0,0,3.018,0.03-1.659,1.822c0,0-0.258-0.031-0.463-0.717c0,0-0.707,1.654-2.156,2.239c0,0,0.34,0.66-0.736,0.964
				c0,0-0.584,1.021,0.803,1.021c0,0,1.201-2.457,3.479-0.524c0,0,0.432-0.11-0.246-1.077c0,0,1.199,0.307,1.66,1.575
				c0,0,0.74-0.085,0.857-1.188c0,0,0.928-1.407,2.438,0.251c0,0-2.002-0.389-2.523,0.964c0,0,0.949-0.277,1.537,0.111
				c0,0,0.09,0.881-0.926,0.967c0,0-7.819-2.982-8.679,2.923c0,0,0.859,3.043,3.631,1.493c0,0,3.081,0.387,1.851,4.362
				c0,0,0.492,3.099,3.197,2.815c0,0,0.738-4.471,4.186-7.896c0,0-1.719,1.163-3.508-3.312c0,0,3.197,4.95,5.172,1.231
				c0,0-1.846,0.701-2.465-1.231c0,0,4.684,0.389,5.973,3.813c0,0,1.355-0.724,1.723-2.928c0,0,1.602,0.055,3.572,2.928
				c0,0,0.859-0.058,0.43-1.935c0,0,3.076-0.828,1.416-4.476c0,0,2.584,2.378,1.725-0.714c0,0,2.83-2.322-0.551-3.867
				c0,0,0.117-1.711,2.148-1.491c0,0,2.031-3.536,1.051,0.662c0,0,0.059,0.829,1.35,1.766c0,0,0.557-1.379-0.43-2.868
				c0,0,2.035-2.545,1.848-4.751C60.987,18.813,54.399,20.447,47.071,19.958z"/>
			<path fill="#83BF4F" d="M32.02,28.145c0.527-0.822-1.131-1.77-1.131-1.77C31.102,28.365,31.498,28.971,32.02,28.145z"/>
			<path fill="#83BF4F" d="M29.959,28.255c0,0,0.865-0.085,0.617-0.816C30.576,27.438,29.959,27.481,29.959,28.255z"/>
			<path fill="#83BF4F" d="M29.623,24.251c0,0-2.188,0-1.416,0.748C28.979,25.744,29.623,24.251,29.623,24.251z"/>
			<path fill="#83BF4F" d="M40.552,42.393c0,0,0.672-0.912,0.648-2.319C41.2,40.073,39.073,41.7,40.552,42.393z"/>
			<path fill="#83BF4F" d="M54.339,36.679c0,0-1.539,0.939-1.262,1.797C53.356,39.333,54.71,38.305,54.339,36.679z"/>
			<path fill="#83BF4F" d="M60.497,39.718c0.678-0.793-3.699-1.772-3.699-1.772C57.661,38.805,59.886,40.425,60.497,39.718z"/>
			<path fill="#83BF4F" d="M55.601,39.887c1.029-1.177-3.107-0.613-3.107-0.613S55.202,40.353,55.601,39.887z"/>
			<path fill="#83BF4F" d="M57.229,40.13c0,0-0.828,1.241-3.906,1.764c0,0,0.648,0.998,0,2.875c0,0,3.107-2.652,4.896,1.185
				c0,0,1.535,0.559,2.613-2.914c0,0-1.293-1.254-1.723-3.032C59.11,40.007,58.685,42.287,57.229,40.13z"/>
			<path fill="#83BF4F" d="M55.763,31.736c0,0,3.484-0.877,2.072-2.916c0.195-0.11,0.35-0.149,0.35-0.149
				c-1.508-1.631-0.955,0.719-0.955,0.719c0.096-0.155,0.211-0.274,0.328-0.372C57.638,29.713,57.388,30.751,55.763,31.736z"/>
			<path fill="#83BF4F" d="M19.496,24.031c0,0,2.563,2.588,2.895-0.305c0.076-0.651-0.301-0.78-0.678-0.764
				c-0.133-1.896-2.027-2.495-2.027-2.495c-1.234,0.5-1.111,1.161-1.111,1.161c1.119,0.112,1.803,1.017,2.205,1.861
				C20.555,23.723,20.166,23.987,19.496,24.031z"/>
			<path fill="#83BF4F" d="M31.24,16.611c0.76-1.19-1.629-2.549-1.629-2.549C29.916,16.929,30.488,17.802,31.24,16.611z"/>
			<path fill="#83BF4F" d="M29.156,15.599c0,0-0.887,0.059-0.887,1.171C28.27,16.77,29.506,16.646,29.156,15.599z"/>
			<path fill="#83BF4F" d="M27.773,11.001c0,0-3.141,0-2.041,1.075C26.85,13.15,27.773,11.001,27.773,11.001z"/>
		</g>
		<g>
			<path fill="#D6EEF0" d="M48.882,29.281c0,6.957-5.645,12.601-12.6,12.601c-6.958,0-12.603-5.644-12.603-12.601
				s5.645-12.601,12.603-12.601C43.237,16.681,48.882,22.324,48.882,29.281z"/>
			<g>
				<path fill="#699635" d="M28.658,40.064c-0.748-0.452-1.447-0.975-2.092-1.56C26.994,39.169,27.672,39.864,28.658,40.064z"/>
				<path fill="#699635" d="M44.241,18.001c-0.871,0.741-2.023,1.315-3.338,0.937c0,0-0.789,3.846-2.594,1.269
					c0,0,1.475,0.417,1.805-0.774c0,0-4.176-3.044-6.683,1.575c0,0-2.053,0.559-1.266,2.723c0,0,1.441-1.794,2.183,0.929
					c0,0,0.805-0.417,1.123-3.896c0,0,1.998-0.679,0.467,2.069c0,0,4.553,0.049-2.507,2.796c0,0-0.393-0.05-0.711-1.094
					c0,0-1.066,2.531-3.252,3.433c0,0,0.508,1.019-1.115,1.48c0,0-0.869,1.578,1.219,1.578c0,0,1.807-3.788,5.255-0.82
					c0,0,0.645-0.168-0.375-1.654c0,0,1.805,0.483,2.508,2.429c0,0,1.121-0.126,1.297-1.825c0,0,1.398-2.162,3.684,0.389
					c0,0-3.023-0.604-3.811,1.482c0,0,1.426-0.436,2.314,0.171c0,0,0.145,1.34-1.398,1.483c0,0-11.812-4.592-13.106,4.476
					c0,0,0.182,0.654,0.627,1.351c0.645,0.585,1.344,1.107,2.092,1.56c0.738,0.151,1.645,1.031,2.766,0.397
					c0,0,2.227-0.715,2.983,1.48c0.375,0.032,0.756,0.059,1.139,0.059c3.428,0,6.547-1.311,8.924-3.448
					c-0.988-0.042-2.67-0.89-4.404-5.289c0,0,3.004,4.71,5.734,3.921c0.486-0.579,0.92-1.204,1.307-1.862
					c-0.898,0.096-2.33-0.093-2.953-2.059c0,0,1.65,0.144,3.572,0.877c0.809-1.752,1.275-3.698,1.275-5.759
					C49.001,24.22,47.149,20.5,44.241,18.001z"/>
				<path fill="#699635" d="M31.01,26.308c0.793-1.259-1.717-2.723-1.717-2.723C29.619,26.648,30.223,27.572,31.01,26.308z"/>
				<path fill="#699635" d="M28.826,25.225c0,0-0.936,0.063-0.936,1.255C27.891,26.479,29.191,26.353,28.826,25.225z"/>
				<path fill="#699635" d="M27.385,20.327c0,0-3.303,0-2.135,1.146C26.418,22.617,27.385,20.327,27.385,20.327z"/>
			</g>
			<path opacity="0.33" fill="#D6EEF0" d="M48.882,29.281c0,6.957-5.645,12.601-12.6,12.601c-6.958,0-12.603-5.644-12.603-12.601
				s5.645-12.601,12.603-12.601C43.237,16.681,48.882,22.324,48.882,29.281z"/>
			<g>
				<path fill="#FFFFFF" d="M45.521,28.994c-0.135-4.971-3.982-8.818-8.951-8.953c-1.504-0.041-1.5,2.294,0,2.335
					c3.684,0.101,6.518,2.935,6.617,6.618C43.226,30.493,45.56,30.498,45.521,28.994L45.521,28.994z"/>
			</g>
			<path fill="#89664C" d="M62.987,51.136c-2.199-2.2-4.4-4.399-6.602-6.601c-1.02-1.02-2.219-1.184-3.271-0.845
				c-1.717-1.72-3.436-3.438-5.154-5.154c1.957-2.476,3.133-5.596,3.133-8.989c0-8.021-6.525-14.546-14.547-14.546
				C28.525,15.001,22,21.526,22,29.547c0,8.021,6.525,14.546,14.546,14.546c3.393,0,6.516-1.178,8.99-3.132
				c1.717,1.718,3.436,3.437,5.154,5.154c-0.34,1.051-0.176,2.25,0.844,3.271c2.201,2.201,4.4,4.4,6.604,6.602
				C61.269,59.12,66.12,54.267,62.987,51.136z M25.361,29.547c0-6.168,5.018-11.187,11.185-11.187
				c6.17,0,11.188,5.019,11.188,11.187s-5.018,11.187-11.188,11.187C30.379,40.733,25.361,35.715,25.361,29.547z"/>
		</g>
	</g>
</g>
</svg>
