<?xml version="1.0" encoding="utf-8"?>
<!-- Generator: Adobe Illustrator 15.0.0, SVG Export Plug-In . SVG Version: 6.00 Build 0)  -->
<!DOCTYPE svg PUBLIC "-//W3C//DTD SVG 1.1//EN" "http://www.w3.org/Graphics/SVG/1.1/DTD/svg11.dtd">
<svg version="1.1" id="Layer_1" xmlns="http://www.w3.org/2000/svg" xmlns:xlink="http://www.w3.org/1999/xlink" x="0px" y="0px"
	 width="64px" height="64px" viewBox="0 0 64 64" enable-background="new 0 0 64 64" xml:space="preserve">
<g>
	<polygon fill="#ED4C5C" points="61.293,54.735 10.339,64 7.877,20.724 64,18.286 	"/>
	<polygon fill="#C94747" points="10.339,64 2.585,49.398 0,15.482 7.877,20.724 	"/>
	<polygon fill="#881A0E" points="64,18.286 7.877,20.724 0,15.482 42.092,14.385 	"/>
	<g>
		<path fill="#FFFFFF" d="M24.045,30.135l2.803-0.146l-4.807,18.207l-2.647,0.321l-4.257-17.916l3.083-0.161l2.643,13.551
			L24.045,30.135z"/>
		<path fill="#FFFFFF" d="M37.498,44.816c-0.917,1.426-2.228,2.247-3.95,2.46c-1.745,0.215-3.08-0.297-3.995-1.544
			c-1.242-1.53-1.835-3.883-1.77-7.043c0.063-3.22,0.752-5.677,2.055-7.357c0.966-1.404,2.322-2.147,4.061-2.234
			c1.715-0.086,2.996,0.507,3.857,1.772c1.148,1.474,1.688,3.74,1.633,6.813C39.332,40.699,38.705,43.073,37.498,44.816z
			 M36.003,42.405c0.595-1.099,0.911-2.601,0.946-4.51c0.037-1.901-0.224-3.349-0.78-4.349c-0.558-1.004-1.332-1.477-2.329-1.414
			c-1.004,0.063-1.821,0.639-2.447,1.736c-0.629,1.102-0.968,2.635-1.005,4.594c-0.038,1.962,0.238,3.444,0.827,4.443
			c0.588,0.995,1.385,1.434,2.394,1.321C34.606,44.117,35.406,43.508,36.003,42.405z"/>
		<path fill="#FFFFFF" d="M49.347,28.813l-0.049,2.846l-3.222,0.207l-0.234,13.44l-2.327,0.282l0.242-13.572l-3.396,0.219
			l0.055-2.955L49.347,28.813z"/>
		<path fill="#FFFFFF" d="M58.106,31.09l-5.33,0.344l-0.053,3.364l4.903-0.388l-0.043,2.694l-4.907,0.448l-0.066,4.082l5.58-0.609
			l-0.044,2.787l-7.715,0.937L50.7,28.742l7.45-0.391L58.106,31.09z"/>
	</g>
	<g>
		<g>
			<path fill="#DFE9EF" d="M44.244,0C32.916,0.206,21.586,0.412,10.252,0.618c2.342,10.041,0.087,18.234,0.087,18.234l33.997-1.567
				C44.336,17.284,46.511,10.083,44.244,0z"/>
		</g>
		<g>
			<g>
				<path fill="#83BF4F" d="M40.807,6.808C35.036,6.924,29.266,7.04,23.494,7.156c0.012-0.474,0.016-0.948,0.011-1.421
					c5.767-0.115,11.533-0.229,17.299-0.344C40.813,5.863,40.813,6.335,40.807,6.808z"/>
				<g>
					<path fill="#83BF4F" d="M18.507,8.731c-0.108,0.163-0.325,0.195-0.48,0.073c-0.837-0.659-1.685-1.318-2.546-1.977
						c-0.159-0.12-0.155-0.328,0.004-0.456c0.1-0.079,0.198-0.157,0.298-0.235c0.162-0.13,0.428-0.135,0.59-0.013
						c0.457,0.346,0.909,0.692,1.358,1.038c0.16,0.123,0.377,0.09,0.479-0.073c0.576-0.904,1.128-1.809,1.646-2.713
						c0.094-0.163,0.34-0.234,0.551-0.162c0.126,0.044,0.253,0.089,0.38,0.133c0.209,0.072,0.305,0.267,0.209,0.428
						C20.225,6.094,19.389,7.413,18.507,8.731z"/>
				</g>
			</g>
			<g>
				<path fill="#93A2AA" d="M40.16,15.106c-5.791,0.126-11.582,0.251-17.373,0.377c0.06-0.475,0.118-0.949,0.174-1.424
					c5.789-0.125,11.578-0.249,17.366-0.373C40.274,14.16,40.218,14.633,40.16,15.106z"/>
				<path fill="#93A2AA" d="M20.125,17.157c-1.906,0.042-3.813,0.085-5.719,0.127c0.201-1.557,0.401-3.113,0.566-4.669
					c1.903-0.041,3.807-0.081,5.711-0.122C20.521,14.048,20.325,15.603,20.125,17.157z"/>
			</g>
		</g>
	</g>
</g>
</svg>
