<?xml version="1.0" encoding="utf-8"?>
<!-- Generator: Adobe Illustrator 15.0.0, SVG Export Plug-In . SVG Version: 6.00 Build 0)  -->
<!DOCTYPE svg PUBLIC "-//W3C//DTD SVG 1.1//EN" "http://www.w3.org/Graphics/SVG/1.1/DTD/svg11.dtd">
<svg version="1.1" id="Layer_1" xmlns="http://www.w3.org/2000/svg" xmlns:xlink="http://www.w3.org/1999/xlink" x="0px" y="0px"
	 width="64px" height="64px" viewBox="0 0 64 64" enable-background="new 0 0 64 64" xml:space="preserve">
<g>
	<path fill="#628441" d="M9.972,51.624c-0.593-0.107-1.582,0.4-2.265-0.402c-0.678-0.802-1.661-0.121-1.886,0.609
		c-0.227,0.729-4.302,0.864-3.774,1.331c0.527,0.469,1.811,2.945,2.34,2.41s1.086-2.075,1.6-1.339s0.666,2.275-1.146,3.748
		c-1.811,1.473,0.906,0.602,0.527,2.342c-0.376,1.74,1.513,1.607,1.813,1.674c0.303,0.066,2.038-0.937,2.341-1.605
		c0.303-0.67,2.112-5.422,1.886-5.823c-0.225-0.401-0.83-1.406-1.583-1.204C9.068,53.564,12.24,52.024,9.972,51.624z"/>
	<path fill="#628441" d="M8.993,48.879c-0.698,0.146-2.038,0.67-1.134,1.406c0.906,0.735,2.755-0.938,3.567,0
		c0.813,0.937,1.492-1.605,1.793-1.004c0.301,0.603,2.415,0.074,3.926-0.431c1.511-0.507,3.094-1.646,4.606-1.243
		c1.51,0.402,2.716,0.795,1.886,1.401c-0.831,0.606-1.435,2.012-0.756,2.213c0.68,0.201,1.662,1.741,2.568,1.405
		c0.906-0.335,2.038-3.279,3.396-3.212c1.358,0.066,0.38-1.405-0.527-1.538c-0.906-0.136,1.132-2.545,1.661-1.407
		c0.527,1.138,3.473,2.007,4.15,1.606c0.681-0.401,1.511-1.947,2.494-1.91c0.979,0.036-1.511,2.779,0,2.044
		c1.508-0.736,1.432-3.346,2.642-2.543c1.208,0.803,1.509-2.409,1.659-1.07c0.152,1.337-0.907,2.409,0,2.073
		c0.907-0.334,3.021-2.542,2.567-3.881c-0.454-1.338-0.754-3.414,0.681-4.15c1.434-0.735-0.455-5.822,0.905-5.822
		c1.358,0,1.358,0.619,1.435-0.829c0.075-1.447,0.604-2.115,1.659-3.253c1.058-1.139-1.811-4.753-2.187-5.354
		c-0.379-0.603,0.828-2.61-0.606-3.278c0,0-1.357-1.005-1.661,0c-0.301,1.002,1.736,1.204,1.512,2.007
		c-0.227,0.804-2.267,0.938-2.343-0.536c-0.073-1.471-0.828-0.134-0.828,0.938s-2.416,0.135-1.661,1.406s-1.282,2.743-0.15,3.012
		c1.133,0.268-0.378,5.353-1.132,5.889c-0.758,0.536-0.228,1.539-1.587,1.941c-1.36,0.401-2.794,3.346-4.604,3.815
		c-1.813,0.469-2.267,1.337-2.491,0.469c-0.229-0.871-1.588-0.737-0.378-1.34c1.207-0.603,2.037-1.804,0.753-1.537
		c-1.283,0.266-2.49,1.47-2.039,2.14c0.456,0.67,0.235,1.941-0.788,2.61c-1.024,0.67-2.606,1.605-1.853,2.275
		c0.755,0.67-0.227,2.142-1.132,1.606c-0.907-0.536-1.811-1.94-2.718-1.271c-0.907,0.668-3.32,1.204-4.605,1.004
		c-1.282-0.2-3.172-0.803-3.396,0.067c-0.227,0.868-1.998,2.877-2.851,3.078C10.576,47.877,9.951,48.68,8.993,48.879z"/>
	<path fill="#628441" d="M20.393,49.265c-0.639,0.117-1.965-0.535-2.492,0.334c-0.53,0.871-1.209,0.352-1.585,0.887
		c-0.379,0.535-1.284-1.004-1.89,0c-0.603,1.004-2.112,2.075-1.282,2.677c0.83,0.603-0.303,1.005,0.377,1.674
		c0.681,0.669,2.038,0.937,2.268,0c0.225-0.937,1.131-3.026,2.188-2.482c1.057,0.542,1.583,0.837,1.962,0.321
		s1.133-1.319,1.661-1.453C22.127,51.088,21.827,48.995,20.393,49.265z"/>
	<path fill="#628441" d="M44.097,17.49c0.66,0.684,0.981,1.272,0.454,1.406c-0.529,0.133-1.435-0.804-1.813,0
		c-0.379,0.802-1.21,2.141-1.964,1.205c-0.757-0.938,1.51-2.411,0.529-2.611c-0.981-0.201-1.813-1.071-1.286-2.075
		c0.532-1.004,1.692-1.473,2.317-1.873c0.628-0.402-0.246-0.804,0-1.407c0.252-0.601,0.327-0.601,1.461,0
		c1.131,0.604,2.338,0.972,2.338-0.45s-1.282-2.093,0-2.494c1.286-0.4,0.604-1.136,1.058-2.141c0.453-1.004,0-2.477-0.527-3.414
		c-0.53-0.936,0.904-2.676,2.265-0.803c1.358,1.875,4.756,5.222,6.114,5.354c1.357,0.134,1.737,0.535,2.642,0.87
		c0.907,0.335,3.473-2.543,2.945-1.674c-0.528,0.871-1.661,2.275-1.059,2.812c0.605,0.535,0.907,1.271,0.53,1.606
		c-0.379,0.333,3.018-0.669,1.51,0.268c-1.51,0.937-2.189,0.803-2.567,1.405c-0.376,0.604-2.34,0.4-3.171-0.067
		c-0.83-0.468-2.265,1.942-2.718,2.678c-0.452,0.736,0.152,2.409-0.452,1.808c0,0-1.661-0.803-2.794-1.339
		c-1.132-0.536-2.489-1.808-3.548-1.339c-1.059,0.468-1.9,1.533-2.113,0.87c-0.084-0.263-0.04-0.686-0.66-0.92
		c-0.625-0.234-1.453,0.301-1.642,0.853c-0.191,0.554,0.242,0.92,0.923,1.021C43.548,17.14,43.899,17.286,44.097,17.49z"/>
</g>
</svg>
