<?xml version="1.0" encoding="utf-8"?>
<!-- Generator: Adobe Illustrator 15.0.0, SVG Export Plug-In . SVG Version: 6.00 Build 0)  -->
<!DOCTYPE svg PUBLIC "-//W3C//DTD SVG 1.1//EN" "http://www.w3.org/Graphics/SVG/1.1/DTD/svg11.dtd">
<svg version="1.1" id="Layer_1" xmlns="http://www.w3.org/2000/svg" xmlns:xlink="http://www.w3.org/1999/xlink" x="0px" y="0px"
	 width="64px" height="64px" viewBox="0 0 64 64" enable-background="new 0 0 64 64" xml:space="preserve">
<g>
	<rect fill="#42ADE2" width="64" height="64"/>
	<g>
		<polygon fill="#464D51" points="58.03,41.515 37.52,32.961 11.889,37.391 0,44 0,64 64,64 64,44 		"/>
		<g>
			<path fill="#FFFFFF" d="M37.156,34.321c0,0-2.842-12.231-3.364-12.323c-0.24-0.042-0.712,0.1-1.177,0.261
				c-1.021,0.354-1.123,0.115-2.063-0.125c-0.769-0.196-1.384,0.284-1.843,0.571c-1.895,1.186-4.698,4.786-6.308,6.337
				c-2.417,2.328-10.514,8.349-10.514,8.349s-1.626,1.469-3.33,4.628c0,0,3.344-2.226,4.673-2.281
				c0.818-0.033,0.156,2.281,0.156,2.281l4.897-3.27l-3.037,3.27c0,0,3.615-1.422,5.957-2.767c1.401-0.805,3.64-3.751,3.942-3.169
				c0.496,0.956-1.947,3.773-1.947,3.773l1.158-0.353L23.2,41.816l3.377-3.118l-1.779,3.32c0,0,2.548-3.066,3.123-3.471
				c4.08-2.867-1.869,4.175-1.869,4.175s6.84-3.574,9.2-3.923c3.066-0.454,6.483,2.664,6.483,2.664L37.156,34.321z"/>
			<g>
				<path fill="#C5CCD6" d="M59.024,43.577c-0.892-1.106-0.994-2.063-0.994-2.063s-10.867-6.894-14.135-9.656
					c-2.333-1.972-6.357-6.6-8.526-8.752c-0.377-0.374-1.299-1.245-1.812-1.106c-1.313,0.355-2.024,3.755-3.114,4.459
					c0,0,0.662,0.806,0.271,2.515c0,0,1.286-1.475,1.286-0.335c0,2.28,1.704,2.143,2.024,3.187c1.285,4.191,3.341,7.076,4.312,7.479
					c1.901,0.793,3.398,2.159,3.398,2.159l-0.789-2.111c2.453-0.101,3.884,1.308,3.884,1.308s0.146-1.962,0.964-1.711
					c2.426,0.747,5.987,3.874,5.987,3.874s-0.108-1.327,0.817-1.408C54.848,41.213,59.024,43.577,59.024,43.577z"/>
				<polygon fill="#C5CCD6" points="18.47,36.485 22.267,30.751 21.117,34.223 				"/>
				<polygon fill="#C5CCD6" points="23.57,33.937 23.57,31.657 27.406,28.236 				"/>
			</g>
		</g>
	</g>
	<path fill="#FFFFFF" d="M60.422,14.362c-0.032,0-0.062,0.006-0.093,0.007c0.056-0.165,0.093-0.333,0.093-0.51
		c0-1.09-1.132-1.98-2.593-2.119c-0.903-1.221-2.686-2.052-4.74-2.052c-2.563,0-4.702,1.294-5.237,3.024
		c-0.157-0.019-0.315-0.035-0.48-0.035c-1.428,0-2.618,0.725-2.911,1.689c-0.024,0-0.047-0.005-0.071-0.005
		c-1.085,0-1.963,0.633-1.963,1.413c0,0.781,0.878,1.414,1.963,1.414c0.415,0,0.799-0.094,1.116-0.252
		c0.36,0.294,0.881,0.484,1.47,0.484c0.208,0,0.404-0.03,0.594-0.073c0.315,0.476,0.985,0.808,1.767,0.808
		c0.316,0,0.61-0.059,0.875-0.154c0.881,0.457,1.959,0.729,3.127,0.729c1.113,0,2.146-0.244,3.005-0.662
		c0.256,0.052,0.521,0.088,0.799,0.088c1.098,0,2.046-0.431,2.563-1.067c0.223,0.063,0.464,0.101,0.718,0.101
		c1.085,0,1.964-0.633,1.964-1.414C62.386,14.995,61.507,14.362,60.422,14.362z"/>
	<path fill="#FFFFFF" d="M6.921,26.021c0.017,0,0.031,0.003,0.047,0.003c-0.028-0.083-0.047-0.169-0.047-0.258
		c0-0.554,0.574-1.005,1.315-1.075c0.458-0.619,1.362-1.041,2.405-1.041c1.3,0,2.385,0.656,2.656,1.534
		c0.08-0.01,0.16-0.018,0.244-0.018c0.725,0,1.328,0.367,1.477,0.856c0.013,0,0.024-0.002,0.036-0.002
		c0.551,0,0.996,0.321,0.996,0.717c0,0.396-0.445,0.717-0.996,0.717c-0.21,0-0.405-0.047-0.566-0.127
		c-0.183,0.148-0.446,0.245-0.745,0.245c-0.105,0-0.205-0.015-0.302-0.037c-0.159,0.241-0.499,0.41-0.896,0.41
		c-0.161,0-0.31-0.03-0.444-0.078c-0.446,0.231-0.994,0.369-1.586,0.369c-0.565,0-1.089-0.124-1.524-0.336
		c-0.13,0.026-0.265,0.045-0.405,0.045c-0.557,0-1.038-0.219-1.301-0.542c-0.113,0.032-0.235,0.051-0.364,0.051
		c-0.55,0-0.996-0.32-0.996-0.717C5.925,26.342,6.371,26.021,6.921,26.021z"/>
	<path fill="#FFFFFF" d="M38.359,9.766c0.017,0,0.031,0.003,0.047,0.003c-0.028-0.083-0.047-0.169-0.047-0.258
		c0-0.554,0.574-1.005,1.315-1.075c0.458-0.619,1.362-1.041,2.405-1.041c1.3,0,2.385,0.656,2.656,1.534
		c0.08-0.01,0.16-0.018,0.244-0.018c0.725,0,1.328,0.367,1.477,0.856c0.013,0,0.024-0.002,0.036-0.002
		c0.551,0,0.996,0.321,0.996,0.717c0,0.396-0.445,0.717-0.996,0.717c-0.21,0-0.405-0.047-0.566-0.127
		c-0.183,0.148-0.446,0.245-0.745,0.245c-0.105,0-0.205-0.015-0.302-0.037c-0.159,0.241-0.499,0.41-0.896,0.41
		c-0.161,0-0.31-0.03-0.444-0.078c-0.446,0.231-0.994,0.369-1.586,0.369c-0.565,0-1.089-0.124-1.524-0.336
		c-0.13,0.026-0.265,0.045-0.405,0.045c-0.557,0-1.038-0.219-1.301-0.542c-0.113,0.032-0.235,0.051-0.364,0.051
		c-0.55,0-0.996-0.32-0.996-0.717C37.363,10.087,37.81,9.766,38.359,9.766z"/>
	<g>
		<path fill="#FFFFFF" d="M10.184,18.837c-0.073,0-0.142,0.011-0.213,0.015c-0.314-0.662-0.977-1.207-1.845-1.536
			c0.094-0.233,0.16-0.475,0.16-0.729c0-1.25-1.217-2.292-2.868-2.614c-1.07-1.385-3.07-2.364-5.418-2.551v11.375
			c1.444-0.046,2.777-0.384,3.87-0.943c0.663,0.355,1.484,0.575,2.387,0.575c0.815,0,1.571-0.173,2.199-0.469
			c0.458,0.289,1.061,0.469,1.728,0.469c1.428,0,2.584-0.804,2.584-1.795C12.768,19.641,11.611,18.837,10.184,18.837z"/>
	</g>
</g>
</svg>
