<?xml version="1.0" encoding="utf-8"?>
<!-- Generator: Adobe Illustrator 15.0.0, SVG Export Plug-In . SVG Version: 6.00 Build 0)  -->
<!DOCTYPE svg PUBLIC "-//W3C//DTD SVG 1.1//EN" "http://www.w3.org/Graphics/SVG/1.1/DTD/svg11.dtd">
<svg version="1.1" id="Layer_1" xmlns="http://www.w3.org/2000/svg" xmlns:xlink="http://www.w3.org/1999/xlink" x="0px" y="0px"
	 width="64px" height="64px" viewBox="0 0 64 64" enable-background="new 0 0 64 64" xml:space="preserve">
<g>
	<rect x="26.048" y="23.529" fill="#428BC1" width="15.962" height="13.868"/>
	<path fill="#428BC1" d="M23.264,27.035c0,0-6.903,0.244-5.456,11.218l4.02,12.915l7.561-16.747L23.264,27.035z"/>
	<path fill="#42ADE2" d="M12.707,18.601l7.137,15.362c0,0,3.063-0.692,3.063-5.171l-6.886-12.081L12.707,18.601z"/>
	<path fill="#42ADE2" d="M40.385,34.645c-2.459-2.229-10.251-2.229-12.711,0C20.361,41.271,20.179,62,20.179,62h27.7
		C47.879,62,47.696,41.271,40.385,34.645z"/>
	<polygon fill="#428BC1" points="42.021,20.193 41.097,19.521 41.59,12.927 38.18,18.281 36.166,17.629 34.029,9.936 31.893,17.629 
		29.88,18.281 26.468,12.927 26.961,19.521 26.038,20.193 19.073,18.972 26.468,24.468 34.029,24.468 41.59,24.468 48.985,18.972 	
		"/>
	<path fill="#42ADE2" d="M41.242,24.041c0,5.686-5.264,8.426-7.213,8.426c-1.95,0-7.214-2.74-7.214-8.426
		C26.815,24.041,41.242,19.657,41.242,24.041z"/>
	<polygon fill="#428BC1" points="44.1,54.939 36.023,46.938 46.924,36.138 55,44.14 	"/>
	<g>
		<path fill="#42ADE2" d="M52.952,49.335c-0.386,0.381-1.008,0.381-1.395,0l-2.047-2.029c-0.386-0.383-0.386-1.001,0-1.382
			l0.034-0.035c0.386-0.381,1.01-0.381,1.394,0l2.049,2.029c0.386,0.382,0.386,1.001,0,1.382L52.952,49.335z"/>
		<path fill="#42ADE2" d="M51.888,50.909c-0.387,0.381-1.058,0.334-1.502-0.105l-2.359-2.337c-0.443-0.439-0.491-1.105-0.105-1.487
			l0.034-0.034c0.386-0.381,1.058-0.334,1.501,0.105l2.36,2.337c0.443,0.439,0.488,1.105,0.104,1.487L51.888,50.909z"/>
		<path fill="#42ADE2" d="M50.559,52.224c-0.385,0.382-1.057,0.335-1.5-0.104l-2.359-2.338c-0.444-0.439-0.491-1.104-0.105-1.486
			l0.034-0.034c0.387-0.382,1.057-0.334,1.5,0.105l2.36,2.337c0.443,0.439,0.49,1.105,0.105,1.486L50.559,52.224z"/>
		<path fill="#42ADE2" d="M48.972,52.803c-0.331,0.329-0.868,0.329-1.199,0l-1.764-1.746c-0.331-0.328-0.331-0.861,0-1.189
			l0.03-0.029c0.331-0.328,0.868-0.328,1.2,0l1.763,1.747c0.332,0.328,0.332,0.86,0,1.188L48.972,52.803z"/>
	</g>
	<g>
		<path fill="#428BC1" d="M38.609,38.253c0,0-7.189,10.674-3.613,23.747h-5.508C29.488,62,27.763,47.142,38.609,38.253z"/>
		<path fill="#428BC1" d="M38.035,50.417c0,0-3.507,5.206-1.763,11.583h-2.686C33.587,62,32.745,54.753,38.035,50.417z"/>
		<path fill="#428BC1" d="M32.092,35.569c0,0-8.003,11.881-4.024,26.431H21.94C21.94,62,20.02,45.463,32.092,35.569z"/>
	</g>
	<path fill="#42ADE2" d="M23.788,27.668l2.929,3.532c0,0,1.579,5.638-2.929,10.162C23.788,41.361,25.874,34.156,23.788,27.668z"/>
	<path fill="#428BC1" d="M35.866,28.576c0,0.24-0.823,0.609-1.837,0.609c-1.016,0-1.837-0.37-1.837-0.609
		C32.192,28.422,35.866,28.422,35.866,28.576z"/>
	<path fill="#428BC1" d="M35.174,30.438c0,0.164-0.526,0.417-1.175,0.417c-0.649,0-1.176-0.253-1.176-0.417
		C32.823,30.332,35.174,30.332,35.174,30.438z"/>
	<g>
		<path fill="#428BC1" d="M39.468,25.134c0,0.555-0.794,1.406-1.771,1.406c-0.979,0-1.771-0.852-1.771-1.406
			C35.925,24.779,39.468,24.779,39.468,25.134z"/>
		<path fill="#428BC1" d="M32.134,25.134c0,0.555-0.794,1.406-1.771,1.406c-0.979,0-1.772-0.852-1.772-1.406
			C28.591,24.779,32.134,24.779,32.134,25.134z"/>
	</g>
	<g>
		<path fill="#FF9D27" d="M11.661,11.754c0,0-2.127-1.373-1.859-3.998c0.309-3.008,2.672-4.051,2.672-4.051s-0.63,2.518,0,2.878
			c0.419,0.241,1.765,0.01,1.93-2.324C14.457,3.521,13.461,2,13.461,2s2.263,0.772,3.122,2.748c0.636,1.465,0.014,4.021,0.014,4.021
			s1.116-0.297,1.614-1.742c0,0,0.58,3.256-1.965,4.727H11.661z"/>
		<path fill="#428BC1" d="M15.952,22.012c0,1.035-0.824,1.875-1.84,1.875h-0.467c-1.016,0-1.84-0.84-1.84-1.875l0.022-8.146h4.147
			L15.952,22.012z"/>
		<g>
			<path fill="#42ADE2" d="M9.742,15.9c0,0.54,0.442,0.977,0.986,0.977h2.897c0.545,0,0.985-0.438,0.985-0.977v-0.049
				c0-0.54-0.44-0.977-0.985-0.977h-2.897c-0.544,0-0.986,0.438-0.986,0.977V15.9z"/>
			<path fill="#42ADE2" d="M9.373,17.76c0,0.54,0.508,0.978,1.136,0.978h3.337c0.627,0,1.136-0.438,1.136-0.978v-0.047
				c0-0.54-0.508-0.978-1.136-0.978h-3.337c-0.627,0-1.136,0.438-1.136,0.978V17.76z"/>
			<path fill="#42ADE2" d="M9.371,19.62c0.001,0.54,0.51,0.978,1.137,0.978h3.337c0.626,0,1.136-0.438,1.136-0.978v-0.047
				c0-0.541-0.508-0.978-1.136-0.978h-3.337c-0.627,0-1.136,0.438-1.136,0.978L9.371,19.62z"/>
			<path fill="#42ADE2" d="M10.081,21.142c0,0.465,0.38,0.841,0.849,0.841h2.493c0.468,0,0.849-0.375,0.849-0.841V21.1
				c0-0.463-0.38-0.84-0.849-0.84H10.93c-0.469,0-0.849,0.377-0.849,0.84V21.142z"/>
		</g>
		<ellipse fill="#42ADE2" cx="15.975" cy="16.042" rx="1.172" ry="1.159"/>
		<polygon fill="#42ADE2" points="18.204,12.005 18.204,12.942 17.284,12.942 17.284,12.005 16.364,12.005 16.364,12.942 
			15.444,12.942 15.444,12.005 14.524,12.005 14.524,12.942 13.604,12.942 13.604,12.005 12.684,12.005 12.684,12.942 
			11.764,12.942 11.764,12.005 10.844,12.005 10.844,12.942 9.924,12.942 9.924,12.005 9.004,12.005 9.004,12.942 9,12.942 
			9,14.408 19.125,14.408 19.125,12.942 19.125,12.005 		"/>
	</g>
</g>
</svg>
