<?xml version="1.0" encoding="utf-8"?>
<!-- Generator: Adobe Illustrator 15.0.0, SVG Export Plug-In . SVG Version: 6.00 Build 0)  -->
<!DOCTYPE svg PUBLIC "-//W3C//DTD SVG 1.1//EN" "http://www.w3.org/Graphics/SVG/1.1/DTD/svg11.dtd">
<svg version="1.1" id="Layer_1" xmlns="http://www.w3.org/2000/svg" xmlns:xlink="http://www.w3.org/1999/xlink" x="0px" y="0px"
	 width="64px" height="64px" viewBox="0 0 64 64" enable-background="new 0 0 64 64" xml:space="preserve">
<g>
	<g>
		<g>
			<polygon fill="#ACB8BF" points="12.338,64 7.721,32.135 14.475,17.401 16.229,7.316 25.281,4.537 31.301,0 38.111,3.039 
				43.064,3.939 47.166,9.792 56.459,17.559 55.221,31.694 56.346,44.122 54.771,64 			"/>
			<path fill="#DAE3EA" d="M19.652,42.321V64c0,0,4.506,0,12.58,0c8.525,0,13.76,0,13.76,0V32.135L19.652,42.321z"/>
			<path fill="#62727A" d="M19.652,44.947l3.996,6.66l9.736-0.338c0,0,6.365-2.202,9.455-7.316
				c4.896-8.104,4.305-20.372,4.305-20.372L19.652,44.947z"/>
			<path fill="#DAE3EA" d="M16.238,21.648c0,0-0.523-7.86,5.992-13.183c4.668-3.815,10.254-4.514,14.104-3.526
				c8.553,2.195,10.521,14.458,10.521,14.458c-3.791,1.253-15.045-6.003-15.045-6.003L29.521,25.25l-6.941,0.132l0.111-2.982"/>
			<path fill="#DAE3EA" d="M16.238,21.648c0,0-1.127,9.169-0.674,12.187c0.438,2.928,4.088,11.112,4.088,11.112
				s7.422-0.952,9.869-0.601c1.066,0.154,2.996,1.678,4.051,1.464c4.18-0.848,9.871-8.614,11.594-12.516
				c3.021-6.845,1.689-13.897,1.689-13.897l-21.461-1.839L16.238,21.648z"/>
			<path fill="#62727A" d="M22.691,22.399l1.314-8.367c0,0-7.166-0.263-7.768,7.616L22.691,22.399z"/>
			<path fill="#ACB8BF" d="M31.811,13.395L29.521,25.25c0,0,1.949,2.467,2.627,5.516l1.828-11.856L31.811,13.395z"/>
			<path fill="#62727A" d="M31.811,13.395c2.025,3.939,1.875,8.254,1.875,8.254c2.627-0.788,11.742,0.563,13.17-2.251
				C40.252,17.784,38.113,11.894,31.811,13.395z"/>
			<path fill="#62727A" d="M29.521,25.25l-6.941,0.132c0,0,0.844,4.107,0.195,5.205c0,0,5.459-0.619,9.457,0.281
				C32.232,30.868,31.811,27.099,29.521,25.25z"/>
			<path fill="#62727A" d="M21.23,35.081c0,0,0.445-3.3,1.35-3.678c0.627-0.263,2.477,1.126,2.477,1.126s2.578-1.581,3.525-1.464
				c1.857,0.23,6.004,4.465,6.004,4.465s-4.416-1.729-5.965-1.695c-0.811,0.018-3.078,1.021-3.078,1.021s-1.932-0.595-2.588-0.525
				C22.486,34.38,21.23,35.081,21.23,35.081z"/>
			<path fill="#62727A" d="M21.455,39.02c0,0-0.248-2.389,0.299-2.851c0.697-0.59,2.732,0.309,3.641,0.225
				c1.252-0.117,3.629-1.408,4.877-1.238c1.273,0.173,4.465,2.551,4.465,2.551s-3.621,0.155-5.797,1.355
				C25.01,41.229,21.455,39.02,21.455,39.02z"/>
		</g>
		<g>
			<rect x="0.209" y="60.493" fill="#83BF4F" width="63.791" height="3.507"/>
			<g>
				<g>
					<path fill="#83BF4F" d="M3.383,59.726c0-2.6-1.314-4.925-3.383-6.506c0.777,1.236,1.223,2.656,1.223,4.168
						c0,1.25-0.471,2.033-1.014,3.105l3.072,0.401C3.342,60.512,3.383,60.123,3.383,59.726z"/>
				</g>
				<g>
					<path fill="#83BF4F" d="M5.791,60.228c0-2.6-1.314-4.926-3.383-6.506c0.777,1.235,1.223,2.654,1.223,4.167
						c0,1.25-0.309,2.435-0.854,3.507h2.914C5.75,61.013,5.791,60.624,5.791,60.228z"/>
				</g>
				<g>
					<path fill="#83BF4F" d="M8.24,60.228c0-2.6-1.313-4.926-3.381-6.506c0.775,1.235,1.223,2.654,1.223,4.167
						c0,1.25-0.311,2.435-0.854,3.507h2.912C8.199,61.013,8.24,60.624,8.24,60.228z"/>
				</g>
				<g>
					<path fill="#83BF4F" d="M10.441,61.396c0-2.6-1.313-4.924-3.381-6.505c0.775,1.235,1.221,2.655,1.221,4.167
						c0,1.25-0.309,2.436-0.854,3.508h2.914C10.402,62.183,10.441,61.794,10.441,61.396z"/>
				</g>
				<g>
					<path fill="#83BF4F" d="M13.191,60.592c0-2.599-1.313-4.925-3.381-6.505c0.775,1.235,1.221,2.654,1.221,4.167
						c0,1.25-0.309,2.435-0.854,3.507h2.914C13.15,61.378,13.191,60.989,13.191,60.592z"/>
				</g>
				<g>
					<path fill="#83BF4F" d="M15.611,61.837c0-2.6-1.314-4.924-3.383-6.505c0.777,1.235,1.223,2.655,1.223,4.167
						c0,1.25-0.309,2.436-0.854,3.508h2.914C15.57,62.623,15.611,62.235,15.611,61.837z"/>
				</g>
				<g>
					<path fill="#83BF4F" d="M17.303,61.396c0-2.6-1.313-4.924-3.381-6.505c0.777,1.235,1.221,2.655,1.221,4.167
						c0,1.25-0.309,2.436-0.854,3.508h2.914C17.264,62.183,17.303,61.794,17.303,61.396z"/>
				</g>
				<g>
					<path fill="#83BF4F" d="M19.654,60.446c0-2.6-1.314-4.925-3.383-6.506c0.777,1.236,1.223,2.655,1.223,4.168
						c0,1.25-0.309,2.435-0.854,3.507h2.912C19.613,61.231,19.654,60.844,19.654,60.446z"/>
				</g>
				<g>
					<path fill="#83BF4F" d="M21.984,61.837c0-2.6-1.314-4.924-3.383-6.505c0.777,1.235,1.223,2.655,1.223,4.167
						c0,1.25-0.311,2.436-0.854,3.508h2.914C21.943,62.623,21.984,62.235,21.984,61.837z"/>
				</g>
				<g>
					<path fill="#83BF4F" d="M24.273,61.545c0-2.599-1.314-4.925-3.383-6.505c0.777,1.235,1.223,2.654,1.223,4.166
						c0,1.25-0.309,2.436-0.854,3.508h2.914C24.232,62.331,24.273,61.942,24.273,61.545z"/>
				</g>
				<g>
					<path fill="#83BF4F" d="M26.549,62.495c0-2.6-1.314-4.925-3.383-6.506c0.775,1.236,1.221,2.655,1.221,4.168
						c0,1.25-0.309,2.435-0.854,3.507h2.914C26.508,63.28,26.549,62.893,26.549,62.495z"/>
				</g>
			</g>
			<g>
				<g>
					<path fill="#83BF4F" d="M28.137,59.325c0-2.6-1.313-4.925-3.381-6.506c0.775,1.236,1.221,2.655,1.221,4.168
						c0,1.25-0.309,2.434-0.854,3.507h2.914C28.096,60.11,28.137,59.723,28.137,59.325z"/>
				</g>
				<g>
					<path fill="#83BF4F" d="M30.338,60.228c0-2.6-1.314-4.924-3.383-6.505c0.777,1.235,1.223,2.655,1.223,4.167
						c0,1.25-0.309,2.436-0.854,3.508h2.914C30.297,61.014,30.338,60.626,30.338,60.228z"/>
				</g>
				<g>
					<path fill="#83BF4F" d="M32.787,60.228c0-2.6-1.313-4.924-3.381-6.505c0.775,1.235,1.223,2.655,1.223,4.167
						c0,1.25-0.311,2.436-0.854,3.508h2.912C32.746,61.014,32.787,60.626,32.787,60.228z"/>
				</g>
				<g>
					<path fill="#83BF4F" d="M34.988,61.397c0-2.6-1.313-4.926-3.383-6.506c0.777,1.235,1.223,2.654,1.223,4.167
						c0,1.25-0.309,2.435-0.854,3.507h2.914C34.949,62.183,34.988,61.794,34.988,61.397z"/>
				</g>
				<g>
					<path fill="#83BF4F" d="M37.738,60.593c0-2.6-1.313-4.924-3.381-6.505c0.775,1.235,1.221,2.655,1.221,4.167
						c0,1.25-0.309,2.435-0.854,3.508h2.914C37.697,61.379,37.738,60.991,37.738,60.593z"/>
				</g>
				<g>
					<path fill="#83BF4F" d="M40.158,61.839c0-2.6-1.314-4.926-3.383-6.506c0.777,1.235,1.223,2.654,1.223,4.167
						c0,1.25-0.311,2.435-0.854,3.507h2.914C40.117,62.624,40.158,62.235,40.158,61.839z"/>
				</g>
				<g>
					<path fill="#83BF4F" d="M41.85,61.397c0-2.6-1.313-4.926-3.381-6.506c0.775,1.235,1.221,2.654,1.221,4.167
						c0,1.25-0.309,2.435-0.854,3.507h2.914C41.809,62.183,41.85,61.794,41.85,61.397z"/>
				</g>
				<g>
					<path fill="#83BF4F" d="M53.035,60.228c0-2.6-1.314-4.926-3.383-6.506c0.777,1.235,1.221,2.654,1.221,4.167
						c0,1.25-0.309,2.435-0.854,3.507h2.914C52.994,61.013,53.035,60.624,53.035,60.228z"/>
				</g>
				<g>
					<path fill="#83BF4F" d="M55.234,61.396c0-2.6-1.313-4.924-3.383-6.505c0.777,1.235,1.225,2.655,1.225,4.167
						c0,1.25-0.311,2.436-0.854,3.508h2.912C55.193,62.183,55.234,61.794,55.234,61.396z"/>
				</g>
				<g>
					<path fill="#83BF4F" d="M57.984,60.592c0-2.599-1.314-4.925-3.383-6.505c0.777,1.235,1.223,2.654,1.223,4.167
						c0,1.25-0.309,2.435-0.852,3.507h2.912C57.943,61.378,57.984,60.989,57.984,60.592z"/>
				</g>
				<g>
					<path fill="#83BF4F" d="M64,61.077c0-2.6-1.314-4.924-3.383-6.505c0.777,1.235,1.223,2.655,1.223,4.167
						c0,1.25-0.311,2.436-0.854,3.508H63.9C63.959,61.863,64,61.476,64,61.077z"/>
				</g>
				<g>
					<path fill="#83BF4F" d="M60.404,61.837c0-2.6-1.313-4.924-3.381-6.505c0.775,1.235,1.221,2.655,1.221,4.167
						c0,1.25-0.309,2.436-0.854,3.508h2.914C60.363,62.623,60.404,62.235,60.404,61.837z"/>
				</g>
				<g>
					<path fill="#83BF4F" d="M62.096,61.396c0-2.6-1.314-4.924-3.383-6.505c0.777,1.235,1.225,2.655,1.225,4.167
						c0,1.25-0.311,2.436-0.854,3.508h2.912C62.055,62.183,62.096,61.794,62.096,61.396z"/>
				</g>
				<g>
					<path fill="#83BF4F" d="M44.201,60.446c0-2.599-1.314-4.924-3.383-6.504c0.777,1.234,1.223,2.654,1.223,4.166
						c0,1.25-0.311,2.436-0.854,3.508H44.1C44.16,61.233,44.201,60.845,44.201,60.446z"/>
				</g>
				<g>
					<path fill="#83BF4F" d="M46.531,61.839c0-2.6-1.314-4.926-3.383-6.506c0.777,1.235,1.223,2.654,1.223,4.167
						c0,1.25-0.311,2.435-0.854,3.507h2.914C46.49,62.624,46.531,62.235,46.531,61.839z"/>
				</g>
				<g>
					<path fill="#83BF4F" d="M48.82,61.546c0-2.6-1.314-4.925-3.383-6.506c0.777,1.236,1.223,2.656,1.223,4.168
						c0,1.25-0.309,2.435-0.854,3.507h2.914C48.779,62.331,48.82,61.943,48.82,61.546z"/>
				</g>
				<g>
					<path fill="#83BF4F" d="M51.096,62.495c0-2.599-1.314-4.924-3.385-6.504c0.777,1.234,1.223,2.654,1.223,4.166
						c0,1.25-0.309,2.436-0.854,3.508h2.914C51.055,63.282,51.096,62.894,51.096,62.495z"/>
				</g>
			</g>
		</g>
	</g>
	<g>
		<rect x="51.578" y="52.165" fill="#83BF4F" width="0.548" height="7.508"/>
		<path fill="#C94747" d="M50.204,47.771v3.297c0,0.607,0.492,1.098,1.099,1.098h1.099v-2.196
			C52.401,48.365,50.204,47.771,50.204,47.771z"/>
		<path fill="#ED4C5C" d="M53.499,47.771v3.297c0,0.607-0.491,1.098-1.098,1.098h-1.099v-2.196
			C51.303,48.365,53.499,47.771,53.499,47.771z"/>
	</g>
	<g>
		<rect x="3.826" y="51.263" fill="#83BF4F" width="0.548" height="7.508"/>
		<path fill="#C94747" d="M2.452,46.868v3.297c0,0.607,0.492,1.098,1.099,1.098h1.099v-2.196
			C4.649,47.463,2.452,46.868,2.452,46.868z"/>
		<path fill="#ED4C5C" d="M5.747,46.868v3.297c0,0.607-0.491,1.098-1.098,1.098H3.551v-2.196
			C3.551,47.463,5.747,46.868,5.747,46.868z"/>
	</g>
	<g>
		<rect x="19.479" y="54.729" fill="#83BF4F" width="0.548" height="7.508"/>
		<path fill="#C94747" d="M18.104,50.335v3.297c0,0.607,0.492,1.098,1.099,1.098h1.099v-2.196
			C20.302,50.93,18.104,50.335,18.104,50.335z"/>
		<path fill="#ED4C5C" d="M21.399,50.335v3.297c0,0.607-0.491,1.098-1.098,1.098h-1.099v-2.196
			C19.203,50.93,21.399,50.335,21.399,50.335z"/>
	</g>
	<g>
		<path fill="#F2B200" d="M41.692,47.221v3.296c0,0.608,0.488,1.101,1.095,1.101h1.098v-2.198
			C43.885,47.817,41.692,47.221,41.692,47.221z"/>
		<path fill="#FFCE31" d="M44.983,47.221v3.296c0,0.608-0.49,1.101-1.099,1.101h-1.098v-2.198
			C42.787,47.817,44.983,47.221,44.983,47.221z"/>
		<rect x="43.063" y="51.617" fill="#83BF4F" width="0.547" height="9.338"/>
	</g>
	<g>
		<path fill="#F2B200" d="M13.812,48.173v3.296c0,0.608,0.488,1.101,1.095,1.101h1.098v-2.198
			C16.004,48.77,13.812,48.173,13.812,48.173z"/>
		<path fill="#FFCE31" d="M17.103,48.173v3.296c0,0.608-0.49,1.101-1.099,1.101h-1.098v-2.198
			C14.906,48.77,17.103,48.173,17.103,48.173z"/>
		<rect x="15.183" y="52.569" fill="#83BF4F" width="0.547" height="9.338"/>
	</g>
</g>
</svg>
