<?xml version="1.0" encoding="utf-8"?>
<!-- Generator: Adobe Illustrator 15.0.0, SVG Export Plug-In . SVG Version: 6.00 Build 0)  -->
<!DOCTYPE svg PUBLIC "-//W3C//DTD SVG 1.1//EN" "http://www.w3.org/Graphics/SVG/1.1/DTD/svg11.dtd">
<svg version="1.1" id="Layer_1" xmlns="http://www.w3.org/2000/svg" xmlns:xlink="http://www.w3.org/1999/xlink" x="0px" y="0px"
	 width="64px" height="64px" viewBox="0 0 64 64" enable-background="new 0 0 64 64" xml:space="preserve">
<g>
	<g>
		<circle fill="#FFDD67" cx="32" cy="32" r="30"/>
	</g>
	<path fill="#664E27" d="M23.326,45.617c2.229,0.678,4.283,0.92,6.328,0.914c2.035-0.002,4.023-0.273,5.975-0.74
		c1.945-0.479,3.838-1.145,5.652-2.07c1.816-0.932,3.535-2.08,5.213-3.697c-0.318,2.346-1.771,4.48-3.584,6.059
		c-1.828,1.594-4.076,2.691-6.426,3.258c-2.352,0.563-4.848,0.613-7.203,0.029C26.947,48.791,24.684,47.557,23.326,45.617z"/>
	<g>
		<path fill="#917524" d="M53.202,20.65c-3.234-2.732-7.523-3.881-11.691-3.133c-0.58,0.113-1.09-2.021-0.387-2.156
			c4.811-0.863,9.758,0.461,13.492,3.615C55.157,19.445,53.647,21.037,53.202,20.65z"/>
		<path fill="#917524" d="M22.487,17.367c-4.168-0.748-8.455,0.4-11.691,3.133c-0.443,0.389-1.955-1.205-1.412-1.674
			c3.732-3.152,8.68-4.479,13.492-3.615C23.579,15.346,23.067,17.48,22.487,17.367z"/>
	</g>
	<g>
		<path fill="#664E27" d="M52.971,27.096c-2.979-3.457-12.451-2.24-15.26,2.482c-0.204,0.352,0.334,0.854,0.99,1.253
			c1.901-1.332,4.127-2.076,6.391-2.235c0.01,2.496,1.981,4.519,4.418,4.519C53.035,33.114,54.717,29.123,52.971,27.096z"/>
		<path fill="#664E27" d="M25.637,27.096c-2.979-3.456-12.45-2.241-15.26,2.483c-0.204,0.351,0.334,0.853,0.991,1.252
			c1.901-1.331,4.126-2.076,6.391-2.235c0.009,2.495,1.981,4.519,4.417,4.519C25.701,33.114,27.384,29.123,25.637,27.096z"/>
	</g>
</g>
</svg>
