<?xml version="1.0" encoding="utf-8"?>
<!-- Generator: Adobe Illustrator 15.0.0, SVG Export Plug-In . SVG Version: 6.00 Build 0)  -->
<!DOCTYPE svg PUBLIC "-//W3C//DTD SVG 1.1//EN" "http://www.w3.org/Graphics/SVG/1.1/DTD/svg11.dtd">
<svg version="1.1" id="Layer_1" xmlns="http://www.w3.org/2000/svg" xmlns:xlink="http://www.w3.org/1999/xlink" x="0px" y="0px"
	 width="64px" height="64px" viewBox="0 0 64 64" enable-background="new 0 0 64 64" xml:space="preserve">
<g>
	<g>
		<circle fill="#FFDD67" cx="32" cy="32" r="30"/>
	</g>
	<g>
		<g>
			<path fill="#664E27" d="M48,37.499c0,6.46-5.314,13.999-16,13.999c-10.689,0-16-7.539-16-13.999c0,0,5.311,0,16,0
				C42.686,37.499,48,37.499,48,37.499z"/>
		</g>
		<g>
			<rect x="16.918" y="37.499" fill="#FFFFFF" width="30.166" height="5.599"/>
		</g>
		<g>
			<path fill="#664E27" d="M32,52.498c-11.041,0-17-7.729-17-14.999v-1h34v1C49,44.77,43.043,52.498,32,52.498z M17.045,38.499
				C17.568,44.488,22.771,50.498,32,50.498s14.434-6.01,14.957-11.999H17.045z"/>
		</g>
	</g>
	<g>
		<path fill="#65B1EF" d="M62,18.534c0.002,9.378-12.744,9.38-12.744,0c0-6.849,6.373-13.533,6.373-13.533S62,11.688,62,18.534z"/>
	</g>
	<g>
		<path fill="#664E27" d="M27.59,25.648c-3.264-6.197-12.653-6.197-15.917,0c-0.195,0.378,0.32,0.921,0.95,1.353
			c4.135-3.271,9.88-3.271,14.015-0.001C27.269,26.569,27.783,26.026,27.59,25.648z"/>
		<path fill="#664E27" d="M52.327,25.648c-3.264-6.197-12.653-6.197-15.917-0.001c-0.195,0.379,0.32,0.922,0.951,1.353
			c4.135-3.271,9.879-3.271,14.014-0.001C52.006,26.568,52.521,26.026,52.327,25.648z"/>
	</g>
</g>
</svg>
