<?xml version="1.0" encoding="utf-8"?>
<!-- Generator: Adobe Illustrator 15.0.0, SVG Export Plug-In . SVG Version: 6.00 Build 0)  -->
<!DOCTYPE svg PUBLIC "-//W3C//DTD SVG 1.1//EN" "http://www.w3.org/Graphics/SVG/1.1/DTD/svg11.dtd">
<svg version="1.1" id="Layer_1" xmlns="http://www.w3.org/2000/svg" xmlns:xlink="http://www.w3.org/1999/xlink" x="0px" y="0px"
	 width="64px" height="64px" viewBox="0 0 64 64" enable-background="new 0 0 64 64" xml:space="preserve">
<circle fill="#FFDD67" cx="32" cy="32" r="30"/>
<g>
	<path fill="#FFFFFF" d="M49.647,36.746c0,6.461-5.862,14-17.647,14c-11.79,0-17.646-7.539-17.646-14c0,0,5.856,0,17.646,0
		C43.785,36.746,49.647,36.746,49.647,36.746z"/>
</g>
<g>
	<rect x="31.5" y="37.111" fill="#664E27" width="1" height="13.209"/>
	<rect x="22.28" y="37.111" fill="#664E27" width="1" height="12.258"/>
	<rect x="40.721" y="37.111" fill="#664E27" width="1" height="12.258"/>
</g>
<g>
	<path fill="#664E27" d="M32,51.746c-12.18,0-18.75-7.729-18.75-15v-1h37.5v1C50.75,44.018,44.178,51.746,32,51.746z M15.504,37.746
		c0.577,5.99,6.317,12,16.496,12s15.917-6.01,16.494-12H15.504z"/>
</g>
<path fill="#664E27" d="M27.7,23.683c-4.757-5.141-13.827-2.711-15.375,4.12c-0.091,0.416,0.546,0.807,1.268,1.061
	c3.147-4.229,8.697-5.717,13.537-3.628C27.628,24.655,27.984,23.998,27.7,23.683z"/>
<path fill="#664E27" d="M51.675,27.802c-1.549-6.831-10.618-9.261-15.374-4.121c-0.287,0.315,0.07,0.974,0.568,1.553
	c4.841-2.089,10.389-0.603,13.536,3.626C51.127,28.608,51.765,28.218,51.675,27.802z"/>
</svg>
