<?xml version="1.0" encoding="utf-8"?>
<!-- Generator: Adobe Illustrator 15.0.0, SVG Export Plug-In . SVG Version: 6.00 Build 0)  -->
<!DOCTYPE svg PUBLIC "-//W3C//DTD SVG 1.1//EN" "http://www.w3.org/Graphics/SVG/1.1/DTD/svg11.dtd">
<svg version="1.1" id="Layer_1" xmlns="http://www.w3.org/2000/svg" xmlns:xlink="http://www.w3.org/1999/xlink" x="0px" y="0px"
	 width="64px" height="64px" viewBox="0 0 64 64" enable-background="new 0 0 64 64" xml:space="preserve">
<g>
	<g>
		<circle fill="#FFDD67" cx="32" cy="32" r="30"/>
	</g>
	<g>
		<g>
			<path fill="#664E27" d="M51,35.316c0,8.053-6.311,17.447-19,17.447c-12.693,0-19-9.395-19-17.447c0,0,6.307,0,19,0
				C44.689,35.316,51,35.316,51,35.316z"/>
		</g>
		<g>
			<path fill="#4C3526" d="M34.102,40.803c-0.662-0.016-1.676,0.576-1.305,2.143c0.188,0.791,1.355,1.748,1.355,3.023
				c0,2.596-4.303,2.596-4.303,0c0-1.275,1.168-2.232,1.355-3.023c0.373-1.566-0.645-2.158-1.303-2.143
				c-1.791,0.045-4.729,1.9-4.729,5.039c0,3.529,3.057,6.389,6.828,6.389c3.77,0,6.826-2.859,6.826-6.389
				C38.828,42.703,35.889,40.848,34.102,40.803z"/>
		</g>
		<g>
			<path fill="#FF717F" d="M41.105,51.018c-2.408-1.408-5.432-2.299-9.105-2.299s-6.697,0.891-9.104,2.299
				c2.406,1.41,5.43,2.299,9.104,2.299S38.697,52.428,41.105,51.018z"/>
		</g>
		<g>
			<rect x="13" y="35" fill="#FFFFFF" width="38" height="5"/>
		</g>
		<g>
			<path fill="#664E27" d="M32,53.764c-12.99,0-20-9.504-20-18.447v-1h40v1C52,44.26,44.992,53.764,32,53.764z M14.033,36.316
				C14.537,43.982,20.797,51.764,32,51.764s17.465-7.781,17.969-15.447H14.033z"/>
		</g>
	</g>
	<g>
		<g>
			<path fill="#FFFFFF" d="M28.5,22c0,4.418-3.584,8-8,8c-4.418,0-8-3.582-8-8c0-4.416,3.582-8,8-8C24.916,14,28.5,17.584,28.5,22z"
				/>
			<circle fill="#664E27" cx="20.5" cy="22" r="4"/>
		</g>
		<g>
			<path fill="#FFFFFF" d="M51.5,22c0,4.418-3.584,8-8,8c-4.418,0-8-3.582-8-8c0-4.416,3.582-8,8-8C47.916,14,51.5,17.584,51.5,22z"
				/>
			<circle fill="#664E27" cx="43.5" cy="22" r="4"/>
		</g>
	</g>
</g>
</svg>
