<?xml version="1.0" encoding="utf-8"?>
<!-- Generator: Adobe Illustrator 15.0.0, SVG Export Plug-In . SVG Version: 6.00 Build 0)  -->
<!DOCTYPE svg PUBLIC "-//W3C//DTD SVG 1.1//EN" "http://www.w3.org/Graphics/SVG/1.1/DTD/svg11.dtd">
<svg version="1.1" id="Layer_1" xmlns="http://www.w3.org/2000/svg" xmlns:xlink="http://www.w3.org/1999/xlink" x="0px" y="0px"
	 width="64px" height="64px" viewBox="0 0 64 64" enable-background="new 0 0 64 64" xml:space="preserve">
<g>
	<g>
		<circle fill="#FFDD67" cx="32" cy="32" r="30"/>
	</g>
	<g>
		<g>
			<path fill="#664E27" d="M48,37.5c0,6.461-5.314,14-16,14c-10.689,0-16-7.539-16-14c0,0,5.311,0,16,0C42.686,37.5,48,37.5,48,37.5
				z"/>
		</g>
		<g>
			<rect x="16.918" y="37.5" fill="#FFFFFF" width="30.166" height="5.6"/>
		</g>
		<g>
			<path fill="#664E27" d="M32,52.5c-11.041,0-17-7.729-17-15v-1h34v1C49,44.771,43.043,52.5,32,52.5z M17.045,38.5
				c0.523,5.99,5.727,12,14.955,12s14.434-6.01,14.957-12H17.045z"/>
		</g>
	</g>
	<path fill="#664E27" d="M27.59,25.647c-3.264-6.197-12.653-6.197-15.917,0c-0.195,0.378,0.32,0.921,0.95,1.353
		c4.135-3.271,9.88-3.271,14.015-0.001C27.27,26.568,27.785,26.025,27.59,25.647z"/>
	<path fill="#664E27" d="M52.328,25.647c-3.264-6.197-12.652-6.197-15.916-0.001c-0.195,0.379,0.319,0.922,0.949,1.353
		c4.136-3.271,9.881-3.271,14.016-0.001C52.008,26.567,52.522,26.025,52.328,25.647z"/>
</g>
</svg>
