<?xml version="1.0" encoding="utf-8"?>
<!-- Generator: Adobe Illustrator 15.0.0, SVG Export Plug-In . SVG Version: 6.00 Build 0)  -->
<!DOCTYPE svg PUBLIC "-//W3C//DTD SVG 1.1//EN" "http://www.w3.org/Graphics/SVG/1.1/DTD/svg11.dtd">
<svg version="1.1" id="Layer_1" xmlns="http://www.w3.org/2000/svg" xmlns:xlink="http://www.w3.org/1999/xlink" x="0px" y="0px"
	 width="64px" height="64px" viewBox="0 0 64 64" enable-background="new 0 0 64 64" xml:space="preserve">
<g>
	<g>
		<circle fill="#FFDD67" cx="32" cy="32" r="30"/>
		<circle opacity="0.8" fill="#FF717F" enable-background="new    " cx="50.811" cy="36" r="8"/>
		<circle opacity="0.8" fill="#FF717F" enable-background="new    " cx="13.189" cy="36" r="8"/>
	</g>
	<path fill="#664E27" d="M17.316,40.949c2.475,1.457,4.865,2.34,7.314,2.926c2.439,0.584,4.9,0.834,7.371,0.84
		c2.469-0.012,4.928-0.26,7.367-0.846c2.447-0.588,4.838-1.467,7.314-2.92c-1.061,2.717-3.416,4.854-6.043,6.221
		c-2.652,1.381-5.662,2.043-8.641,2.043c-2.977-0.006-5.984-0.668-8.637-2.049C20.738,45.797,18.383,43.662,17.316,40.949z"/>
	<g>
		<path fill="#664E27" d="M27.59,26.648c-3.264-6.197-12.653-6.197-15.917,0c-0.195,0.378,0.32,0.921,0.95,1.353
			c4.135-3.271,9.88-3.271,14.015-0.001C27.269,27.569,27.783,27.026,27.59,26.648z"/>
		<path fill="#664E27" d="M52.327,26.648c-3.264-6.197-12.653-6.197-15.917-0.001c-0.195,0.379,0.32,0.922,0.951,1.353
			c4.135-3.271,9.879-3.271,14.014-0.001C52.006,27.568,52.521,27.026,52.327,26.648z"/>
	</g>
</g>
</svg>
