<?xml version="1.0" encoding="utf-8"?>
<!-- Generator: Adobe Illustrator 15.0.0, SVG Export Plug-In . SVG Version: 6.00 Build 0)  -->
<!DOCTYPE svg PUBLIC "-//W3C//DTD SVG 1.1//EN" "http://www.w3.org/Graphics/SVG/1.1/DTD/svg11.dtd">
<svg version="1.1" id="Layer_1" xmlns="http://www.w3.org/2000/svg" xmlns:xlink="http://www.w3.org/1999/xlink" x="0px" y="0px"
	 width="64px" height="64px" viewBox="0 0 64 64" enable-background="new 0 0 64 64" xml:space="preserve">
<g>
	<circle fill="#FFDD67" cx="32" cy="32" r="30"/>
	<path fill="#664E27" d="M22.324,45.618c2.23,0.678,4.285,0.919,6.328,0.914c2.035-0.003,4.025-0.274,5.975-0.741
		c1.945-0.479,3.838-1.144,5.652-2.069c1.818-0.932,3.537-2.08,5.215-3.697c-0.32,2.346-1.771,4.479-3.584,6.059
		c-1.83,1.594-4.076,2.69-6.426,3.257c-2.352,0.563-4.85,0.613-7.205,0.03C25.947,48.791,23.684,47.557,22.324,45.618z"/>
	<g>
		<path fill="#664E27" d="M35,32.8c0,0,7.914,1.603,14,4.2C49,37,44.33,27.811,35,32.8z"/>
		<path fill="#664E27" d="M35,32.8c0,0,7.914-4.328,14-6.925C49,25.875,45.543,34.951,35,32.8z"/>
	</g>
	<g>
		<circle fill="#664E27" cx="22.252" cy="31.592" r="4.5"/>
	</g>
	<path fill="#917524" d="M51.203,24.915c-3.234-2.732-7.523-3.881-11.691-3.133c-0.58,0.113-1.09-2.021-0.387-2.156
		c4.811-0.863,9.758,0.461,13.492,3.615C53.158,23.71,51.648,25.302,51.203,24.915z"/>
	<path fill="#917524" d="M24.488,14.916c-4.168-0.748-8.456,0.4-11.692,3.133c-0.443,0.389-1.955-1.205-1.412-1.674
		c3.732-3.152,8.68-4.479,13.493-3.615C25.58,12.895,25.068,15.029,24.488,14.916z"/>
</g>
</svg>
