<?xml version="1.0" encoding="utf-8"?>
<!-- Generator: Adobe Illustrator 15.0.0, SVG Export Plug-In . SVG Version: 6.00 Build 0)  -->
<!DOCTYPE svg PUBLIC "-//W3C//DTD SVG 1.1//EN" "http://www.w3.org/Graphics/SVG/1.1/DTD/svg11.dtd">
<svg version="1.1" id="Layer_1" xmlns="http://www.w3.org/2000/svg" xmlns:xlink="http://www.w3.org/1999/xlink" x="0px" y="0px"
	 width="64px" height="64px" viewBox="0 0 64 64" enable-background="new 0 0 64 64" xml:space="preserve">
<g>
	<g>
		<circle fill="#FFDD67" cx="32" cy="31.999" r="30"/>
	</g>
	<g>
		<g>
			<path fill="#664E27" d="M48,37.499c0,6.461-5.314,14-15.998,14c-10.689,0-16-7.539-16-14c0,0,5.311,0,16,0
				C42.686,37.499,48,37.499,48,37.499z"/>
		</g>
		<g>
			<rect x="16.92" y="37.499" fill="#FFFFFF" width="30.164" height="5.6"/>
		</g>
		<g>
			<path fill="#664E27" d="M32.002,52.499c-11.041,0-17-7.729-17-15v-1H49v1C49,44.771,43.043,52.499,32.002,52.499z M17.047,38.499
				c0.523,5.99,5.727,12,14.955,12c9.227,0,14.432-6.01,14.955-12H17.047z"/>
		</g>
	</g>
	<path fill="#F46767" d="M61.848,13.22c-0.463-2.655-2.031-4.89-4.463-5.553c-2.654-0.728-5.082,0.315-7.438,2.703
		c-1.32-3.63-3.338-6.326-6.52-7.708C40.168,1.238,37,2.196,35.002,4.723c-2.076,2.628-2.902,6.677-0.68,11.974
		C36.404,21.656,45.734,31.709,46.004,32c0.363-0.226,10.754-6.72,13.299-9.909C61.793,18.971,62.309,15.864,61.848,13.22z"/>
	<path fill="#F46767" d="M29.002,4.723c-1.996-2.526-5.166-3.484-8.426-2.062c-3.184,1.382-5.201,4.078-6.523,7.708
		c-2.355-2.387-4.783-3.43-7.438-2.703c-2.43,0.663-4,2.898-4.463,5.553c-0.459,2.644,0.057,5.751,2.545,8.872
		C7.244,25.28,17.637,31.774,18,32c0.268-0.291,9.6-10.344,11.682-15.303C31.904,11.4,31.078,7.351,29.002,4.723z"/>
</g>
</svg>
