<?xml version="1.0" encoding="utf-8"?>
<!-- Generator: Adobe Illustrator 15.0.0, SVG Export Plug-In . SVG Version: 6.00 Build 0)  -->
<!DOCTYPE svg PUBLIC "-//W3C//DTD SVG 1.1//EN" "http://www.w3.org/Graphics/SVG/1.1/DTD/svg11.dtd">
<svg version="1.1" id="Layer_1" xmlns="http://www.w3.org/2000/svg" xmlns:xlink="http://www.w3.org/1999/xlink" x="0px" y="0px"
	 width="64px" height="64px" viewBox="0 0 64 64" enable-background="new 0 0 64 64" xml:space="preserve">
<g>
	<circle fill="#F46767" cx="32" cy="32.001" r="30"/>
	<g>
		<path fill="#FFDD67" d="M16.654,10.284c-5.59-2.668-9.213-8.144-9.213-8.144c-1.545,14.431,4.344,17.934,7.678,17.999
			C19.584,20.231,23.105,13.363,16.654,10.284z"/>
		<path fill="#FFDD67" d="M47.346,10.284c5.588-2.668,9.213-8.144,9.213-8.144c1.545,14.431-4.346,17.934-7.678,17.999
			C44.416,20.231,40.893,13.363,47.346,10.284z"/>
	</g>
	<path fill="#493B30" d="M17.316,43.326c2.475,1.455,4.865,2.338,7.314,2.924c2.439,0.586,4.9,0.836,7.369,0.84
		c2.471-0.01,4.93-0.26,7.367-0.846c2.449-0.586,4.838-1.467,7.316-2.918c-1.061,2.717-3.416,4.854-6.043,6.221
		c-2.654,1.379-5.662,2.043-8.641,2.041c-2.979-0.004-5.984-0.668-8.637-2.047C20.736,48.174,18.381,46.039,17.316,43.326z"/>
	<g>
		<g>
			<path fill="#FFFFFF" d="M52.291,26.758c2.012,4.313,0.146,9.439-4.168,11.449c-4.313,2.012-9.439,0.145-11.449-4.166
				C35.16,30.793,50.777,23.51,52.291,26.758z"/>
			<path fill="#493B30" d="M49.762,27.938c1.359,2.916,0.098,6.381-2.816,7.742c-2.916,1.359-6.381,0.098-7.742-2.818
				C38.34,31.01,48.898,26.086,49.762,27.938z"/>
			<g>
				<path fill="#493B30" d="M53.895,27.086c-1.87,0.181-3.539,0.459-5.153,0.89c-1.609,0.423-3.145,0.982-4.622,1.668
					c-1.484,0.689-2.891,1.489-4.25,2.448c-1.365,0.957-2.645,2.057-3.975,3.387c0.203-1.885,1.128-3.655,2.369-5.116
					c1.249-1.46,2.852-2.64,4.596-3.44c1.75-0.81,3.67-1.262,5.591-1.279C50.363,25.635,52.309,26.051,53.895,27.086z"/>
			</g>
		</g>
		<g>
			<path fill="#FFFFFF" d="M11.709,26.758c-2.012,4.313-0.146,9.439,4.168,11.449c4.311,2.012,9.438,0.145,11.447-4.166
				C28.84,30.793,13.221,23.51,11.709,26.758z"/>
			<path fill="#493B30" d="M14.238,27.938c-1.361,2.916-0.1,6.381,2.814,7.742c2.918,1.359,6.383,0.098,7.744-2.818
				C25.658,31.01,15.102,26.086,14.238,27.938z"/>
			<g>
				<path fill="#493B30" d="M10.105,27.086c1.586-1.035,3.531-1.451,5.444-1.443c1.921,0.017,3.841,0.469,5.591,1.279
					c1.744,0.802,3.346,1.981,4.595,3.441c1.241,1.46,2.167,3.23,2.37,5.115c-1.33-1.33-2.61-2.43-3.975-3.386
					c-1.36-0.958-2.767-1.759-4.25-2.449c-1.478-0.685-3.013-1.244-4.622-1.667C13.645,27.545,11.976,27.267,10.105,27.086z"/>
			</g>
		</g>
	</g>
</g>
</svg>
