<?xml version="1.0" encoding="utf-8"?>
<!-- Generator: Adobe Illustrator 15.0.0, SVG Export Plug-In . SVG Version: 6.00 Build 0)  -->
<!DOCTYPE svg PUBLIC "-//W3C//DTD SVG 1.1//EN" "http://www.w3.org/Graphics/SVG/1.1/DTD/svg11.dtd">
<svg version="1.1" id="Layer_1" xmlns="http://www.w3.org/2000/svg" xmlns:xlink="http://www.w3.org/1999/xlink" x="0px" y="0px"
	 width="64px" height="64px" viewBox="0 0 64 64" enable-background="new 0 0 64 64" xml:space="preserve">
<g>
	<circle fill="#FFDD67" cx="32.063" cy="32" r="30"/>
	<g>
		<g>
			<path fill="#664E27" d="M51.063,35.318c0,8.052-6.311,17.446-19,17.446c-12.693,0-19-9.395-19-17.446c0,0,6.307,0,19,0
				C44.753,35.318,51.063,35.318,51.063,35.318z"/>
		</g>
		<g>
			<path fill="#4C3526" d="M34.165,40.805c-0.662-0.016-1.676,0.575-1.305,2.143c0.188,0.791,1.355,1.747,1.355,3.023
				c0,2.595-4.303,2.595-4.303,0c0-1.276,1.168-2.232,1.355-3.023c0.373-1.567-0.645-2.158-1.303-2.143
				c-1.791,0.045-4.729,1.9-4.729,5.039c0,3.528,3.057,6.389,6.828,6.389c3.77,0,6.826-2.86,6.826-6.389
				C38.892,42.705,35.952,40.85,34.165,40.805z"/>
		</g>
		<g>
			<path fill="#FF717F" d="M41.169,51.019c-2.408-1.408-5.432-2.298-9.105-2.298s-6.697,0.89-9.104,2.298
				c2.406,1.41,5.43,2.3,9.104,2.3S38.761,52.429,41.169,51.019z"/>
		</g>
		<g>
			<rect x="13.063" y="35.001" fill="#FFFFFF" width="38" height="5"/>
		</g>
		<g>
			<path fill="#664E27" d="M32.063,53.765c-12.99,0-20-9.504-20-18.446v-1h40v1C52.063,44.261,45.054,53.765,32.063,53.765z
				 M14.096,36.318c0.504,7.665,6.764,15.446,17.967,15.446s17.465-7.781,17.967-15.446H14.096z"/>
		</g>
	</g>
	<g>
		<path fill="#65B1EF" d="M59.376,35.874c7.307,7.679-2.621,18.117-9.93,10.437C44.11,40.7,43.868,30.01,43.868,30.01
			S54.042,30.267,59.376,35.874z"/>
		<path fill="#65B1EF" d="M14.422,46.311c-7.305,7.68-17.236-2.757-9.928-10.437c5.336-5.608,15.508-5.864,15.508-5.864
			S19.759,40.703,14.422,46.311z"/>
	</g>
	<g>
		<path fill="#664E27" d="M27.652,27.24c-3.264-6.197-12.653-6.197-15.917,0c-0.195,0.378,0.32,0.921,0.95,1.352
			c4.135-3.27,9.879-3.271,14.014,0C27.331,28.161,27.847,27.618,27.652,27.24z"/>
		<path fill="#664E27" d="M52.39,27.24c-3.264-6.197-12.652-6.197-15.916-0.001c-0.195,0.379,0.32,0.922,0.95,1.353
			c4.136-3.271,9.88-3.271,14.015-0.001C52.069,28.16,52.585,27.618,52.39,27.24z"/>
	</g>
</g>
</svg>
