<?xml version="1.0" encoding="utf-8"?>
<!-- Generator: Adobe Illustrator 15.0.0, SVG Export Plug-In . SVG Version: 6.00 Build 0)  -->
<!DOCTYPE svg PUBLIC "-//W3C//DTD SVG 1.1//EN" "http://www.w3.org/Graphics/SVG/1.1/DTD/svg11.dtd">
<svg version="1.1" id="Layer_1" xmlns="http://www.w3.org/2000/svg" xmlns:xlink="http://www.w3.org/1999/xlink" x="0px" y="0px"
	 width="64px" height="64px" viewBox="0 0 64 64" enable-background="new 0 0 64 64" xml:space="preserve">
<g>
	<path fill="#FFDD67" d="M62,31.996C62,48.566,48.566,62,32,62C15.432,62,2,48.566,2,31.996C2,15.434,15.432,2,32,2
		C48.566,2,62,15.428,62,31.996z"/>
	<g>
		<path fill="#FF717F" d="M44.004,51.914c-5.027-5.027-2.777-2.779,2.525-8.082c5.307-5.301,3.055-7.553,8.082-2.527
			c5.023,5.027,5.174,9.926,2.244,12.855C53.926,57.088,49.029,56.939,44.004,51.914z"/>
		<polygon fill="#E2596C" points="47.59,42.771 54.439,51.744 45.469,44.893 		"/>
	</g>
	<path fill="#664E27" d="M52.891,34.498c-0.686,4.539-3.387,8.826-7.248,11.756c-1.934,1.463-4.166,2.553-6.498,3.242
		c-2.344,0.701-4.73,0.99-7.172,1.002c-4.705,0.029-9.746-1.283-13.621-4.24c-3.863-2.928-6.564-7.221-7.242-11.76
		c2.256,3.938,5.359,7.107,8.975,9.135c3.627,2.051,7.705,2.865,11.941,2.867c4.131,0.004,8.287-0.813,11.891-2.863
		C47.533,41.611,50.637,38.438,52.891,34.498z"/>
	<g>
		<path fill="#664E27" d="M27.59,27.646c-3.264-6.197-12.653-6.197-15.917,0c-0.195,0.378,0.32,0.921,0.95,1.352
			c4.135-3.27,9.88-3.271,14.015,0C27.269,28.566,27.783,28.024,27.59,27.646z"/>
		<path fill="#664E27" d="M52.327,27.646c-3.264-6.197-12.653-6.197-15.917-0.001c-0.195,0.379,0.32,0.922,0.951,1.353
			c4.135-3.271,9.879-3.271,14.014-0.001C52.006,28.566,52.521,28.024,52.327,27.646z"/>
	</g>
</g>
</svg>
