<?xml version="1.0" encoding="utf-8"?>
<!-- Generator: Adobe Illustrator 15.0.0, SVG Export Plug-In . SVG Version: 6.00 Build 0)  -->
<!DOCTYPE svg PUBLIC "-//W3C//DTD SVG 1.1//EN" "http://www.w3.org/Graphics/SVG/1.1/DTD/svg11.dtd">
<svg version="1.1" id="Layer_1" xmlns="http://www.w3.org/2000/svg" xmlns:xlink="http://www.w3.org/1999/xlink" x="0px" y="0px"
	 width="64px" height="64px" viewBox="0 0 64 64" enable-background="new 0 0 64 64" xml:space="preserve">
<g>
	<path fill="#FFDD67" d="M62,32c0,16.57-13.43,30-30,30C15.442,62,2,48.57,2,32S15.442,2,32,2C48.57,2,62,15.43,62,32z"/>
	<path fill="#664E27" d="M17.317,39.949c2.475,1.457,4.865,2.34,7.314,2.926c2.439,0.586,4.9,0.834,7.371,0.84
		c2.468-0.012,4.927-0.26,7.367-0.846c2.447-0.588,4.838-1.467,7.316-2.92c-1.061,2.717-3.418,4.855-6.045,6.223
		c-2.652,1.379-5.66,2.043-8.64,2.041c-2.977-0.006-5.984-0.668-8.637-2.047C20.739,44.797,18.383,42.662,17.317,39.949z"/>
	<g>
		<path fill="#65B1EF" d="M60.418,7.619c-0.33-2.777-5.316-4.684-12.734-5.354c-3.582-0.324-7.732-0.357-12.195-0.063
			c4.943,0.572,9.521,2.346,13.434,5.021c1.799,0.227,3.398,0.541,4.686,0.924c0.15,0.045,0.291,0.088,0.426,0.133
			c-0.564,0.385-1.268,0.82-2.119,1.281c-0.213,0.117-0.436,0.234-0.668,0.352c-0.758,0.334-1.625,0.682-2.613,1.039
			c-4.684,1.68-10.715,3.016-16.986,3.758c-1.563,0.186-3.109,0.332-4.629,0.439c-8.125,0.318-14.27-0.41-17.92-1.055
			c-0.367-0.064-0.709-0.129-1.025-0.191c3.143-4.148,7.338-7.455,12.19-9.52C9.209,6.887,1.588,10.922,2.018,14.547
			c0.16,1.342,1.406,2.48,3.486,3.375c2.229,0.957,5.414,1.633,9.248,1.98c4.958,0.447,11,0.342,17.461-0.424
			c9.695-1.15,18.126-3.527,23.189-6.25C58.76,11.424,60.639,9.469,60.418,7.619z"/>
		<g>
			<g>
				<path fill="#AEFBFF" d="M55.945,6.746c-1.482,1.639-3.41,2.809-5.34,3.875c-1.963,1.027-4.027,1.861-6.139,2.527
					c-4.225,1.354-8.619,2.09-13.015,2.477c-4.398,0.371-8.822,0.418-13.223,0.078c-4.391-0.342-8.789-1.035-12.956-2.449
					c2.156,0.41,4.321,0.697,6.497,0.871c2.171,0.199,4.345,0.316,6.521,0.377c4.35,0.115,8.703-0.012,13.035-0.357
					c4.326-0.352,8.628-0.992,12.822-2.086c2.092-0.559,4.158-1.223,6.154-2.072C52.301,9.146,54.252,8.139,55.945,6.746z"/>
			</g>
		</g>
	</g>
	<g>
		<path fill="#664E27" d="M27.7,26.789c-4.756-5.142-13.826-2.711-15.375,4.119c-0.091,0.416,0.546,0.807,1.268,1.061
			c3.148-4.229,8.697-5.717,13.537-3.628C27.627,27.762,27.985,27.104,27.7,26.789z"/>
		<path fill="#664E27" d="M51.674,30.908c-1.549-6.83-10.617-9.261-15.373-4.121c-0.287,0.316,0.07,0.975,0.568,1.553
			c4.84-2.088,10.389-0.602,13.535,3.627C51.127,31.714,51.764,31.324,51.674,30.908z"/>
	</g>
</g>
</svg>
