<?xml version="1.0" encoding="utf-8"?>
<!-- Generator: Adobe Illustrator 15.0.0, SVG Export Plug-In . SVG Version: 6.00 Build 0)  -->
<!DOCTYPE svg PUBLIC "-//W3C//DTD SVG 1.1//EN" "http://www.w3.org/Graphics/SVG/1.1/DTD/svg11.dtd">
<svg version="1.1" id="Layer_1" xmlns="http://www.w3.org/2000/svg" xmlns:xlink="http://www.w3.org/1999/xlink" x="0px" y="0px"
	 width="64px" height="64px" viewBox="0 0 64 64" enable-background="new 0 0 64 64" xml:space="preserve">
<g>
	<g>
		<path fill="#FFDD67" d="M61.999,32c0,16.572-13.426,30-29.998,30C15.428,62,2,48.572,2,32S15.428,2,32.001,2
			C48.573,2,61.999,15.428,61.999,32z"/>
	</g>
	<path fill="#664E27" d="M42.683,48c-1.801-1.061-3.541-1.701-5.322-2.127c-1.775-0.428-3.566-0.609-5.361-0.613
		c-1.799,0.008-3.588,0.189-5.361,0.615c-1.781,0.428-3.52,1.068-5.322,2.125c0.771-1.979,2.484-3.533,4.396-4.527
		c1.932-1.002,4.119-1.486,6.287-1.484c2.166,0.004,4.353,0.486,6.283,1.488C40.192,44.473,41.907,46.025,42.683,48z"/>
	<g>
		<path fill="#917524" d="M53.202,18.534c-3.234-2.732-7.523-3.881-11.691-3.133c-0.58,0.113-1.09-2.021-0.387-2.156
			c4.811-0.863,9.758,0.461,13.492,3.615C55.157,17.329,53.647,18.921,53.202,18.534z"/>
		<path fill="#917524" d="M22.488,15.251c-4.168-0.748-8.455,0.4-11.691,3.133c-0.443,0.389-1.955-1.205-1.412-1.674
			c3.732-3.152,8.68-4.479,13.492-3.615C23.58,13.229,23.068,15.364,22.488,15.251z"/>
	</g>
	<path fill="#664E27" d="M52.97,27.096c-2.979-3.457-12.451-2.24-15.26,2.482c-0.203,0.352,0.335,0.854,0.991,1.253
		c1.901-1.332,4.126-2.076,6.391-2.235c0.009,2.496,1.981,4.519,4.417,4.519C53.034,33.114,54.717,29.123,52.97,27.096z"/>
	<path fill="#664E27" d="M25.636,27.096c-2.978-3.456-12.45-2.241-15.259,2.483c-0.204,0.351,0.334,0.853,0.991,1.252
		c1.901-1.331,4.126-2.076,6.391-2.235c0.009,2.495,1.981,4.519,4.417,4.519C25.702,33.114,27.384,29.123,25.636,27.096z"/>
</g>
</svg>
