<?xml version="1.0" encoding="utf-8"?>
<!-- Generator: Adobe Illustrator 15.0.0, SVG Export Plug-In . SVG Version: 6.00 Build 0)  -->
<!DOCTYPE svg PUBLIC "-//W3C//DTD SVG 1.1//EN" "http://www.w3.org/Graphics/SVG/1.1/DTD/svg11.dtd">
<svg version="1.1" id="Layer_1" xmlns="http://www.w3.org/2000/svg" xmlns:xlink="http://www.w3.org/1999/xlink" x="0px" y="0px"
	 width="64px" height="64px" viewBox="0 0 64 64" enable-background="new 0 0 64 64" xml:space="preserve">
<g>
	<circle fill="#FFDD67" cx="32.001" cy="32" r="29.999"/>
	<g>
		<path fill="#664E27" d="M37.803,39.399C36.611,38.352,32,41.285,32,44.5s4.611,6.148,5.803,5.101C38.771,48.75,36,47.714,36,44.5
			S38.771,40.25,37.803,39.399z"/>
		<g>
			<path fill="#664E27" d="M37.832,40.25c-0.029-0.247-0.11-0.462-0.23-0.571c-0.123-0.104-0.247-0.139-0.419-0.163
				c-0.325-0.064-0.744-0.056-1.161-0.071c-0.844-0.022-1.75-0.068-2.66-0.249c-0.908-0.177-1.834-0.487-2.67-1.003
				c-0.824-0.517-1.576-1.252-1.895-2.192c0.918,0.343,1.703,0.57,2.512,0.747c0.802,0.182,1.606,0.32,2.441,0.487
				c0.833,0.169,1.693,0.345,2.592,0.676c0.447,0.173,0.912,0.384,1.354,0.774c0.206,0.203,0.419,0.502,0.43,0.826
				C38.146,39.83,37.994,40.077,37.832,40.25z"/>
			<path fill="#664E27" d="M37.832,48.75c0.162,0.173,0.313,0.42,0.294,0.739c-0.011,0.324-0.224,0.623-0.43,0.826
				c-0.442,0.391-0.907,0.602-1.354,0.774c-0.898,0.331-1.759,0.507-2.592,0.676c-0.835,0.167-1.64,0.306-2.441,0.487
				C30.5,52.43,29.715,52.657,28.797,53c0.318-0.94,1.07-1.676,1.895-2.192c0.836-0.516,1.762-0.826,2.67-1.003
				c0.91-0.181,1.816-0.227,2.66-0.249c0.417-0.016,0.836-0.007,1.161-0.071c0.172-0.024,0.296-0.06,0.419-0.163
				C37.722,49.212,37.803,48.997,37.832,48.75z"/>
		</g>
	</g>
	<g>
		<g>
			<path fill="#664E27" d="M35,29.8c0,0,7.914,1.603,14,4.2C49,34,44.33,24.811,35,29.8z"/>
			<path fill="#664E27" d="M35,29.8c0,0,7.914-4.328,14-6.925C49,22.875,45.543,31.951,35,29.8z"/>
		</g>
		<g>
			<circle fill="#664E27" cx="22.252" cy="28.592" r="4.5"/>
		</g>
	</g>
	<g>
		<polygon fill="#F46767" points="50.854,57.998 50.861,57.999 50.855,57.995 50.85,58 		"/>
		<path fill="#F46767" d="M61.367,42.568c-0.908-1.805-2.732-2.988-4.986-2.834c-2.332,0.161-4.117,1.413-5.586,3.47
			c-1.484-2.043-3.281-3.284-5.613-3.423c-2.254-0.138-4.068,1.063-4.963,2.876c-0.902,1.836-0.943,4.239,0.91,6.968
			c1.822,2.685,9.482,8.193,9.727,8.37c0.244-0.18,7.859-5.755,9.66-8.449C62.348,46.805,62.287,44.398,61.367,42.568z"/>
	</g>
	<path fill="#917524" d="M51.203,21.708c-3.234-2.732-7.523-3.881-11.691-3.133c-0.58,0.113-1.09-2.021-0.387-2.156
		c4.811-0.863,9.758,0.461,13.492,3.615C53.158,20.502,51.648,22.094,51.203,21.708z"/>
	<path fill="#917524" d="M24.488,13.708c-4.168-0.748-8.455,0.4-11.691,3.133c-0.443,0.389-1.955-1.205-1.412-1.674
		c3.732-3.152,8.68-4.479,13.492-3.615C25.58,11.687,25.068,13.822,24.488,13.708z"/>
</g>
</svg>
