<?xml version="1.0" encoding="utf-8"?>
<!-- Generator: Adobe Illustrator 15.0.0, SVG Export Plug-In . SVG Version: 6.00 Build 0)  -->
<!DOCTYPE svg PUBLIC "-//W3C//DTD SVG 1.1//EN" "http://www.w3.org/Graphics/SVG/1.1/DTD/svg11.dtd">
<svg version="1.1" id="Layer_1" xmlns="http://www.w3.org/2000/svg" xmlns:xlink="http://www.w3.org/1999/xlink" x="0px" y="0px"
	 width="64px" height="64px" viewBox="0 0 64 64" enable-background="new 0 0 64 64" xml:space="preserve">
<g>
	<circle fill="#FFDD67" cx="32.001" cy="32" r="29.999"/>
	<g>
		<g>
			<g>
				<circle fill="#664E27" cx="20.5" cy="25.592" r="4.5"/>
			</g>
			<g>
				<circle fill="#664E27" cx="43.5" cy="25.592" r="4.5"/>
			</g>
		</g>
		<g>
			<path fill="#917524" d="M50.203,16.661c-3.236-2.732-7.523-3.881-11.693-3.133c-0.578,0.113-1.088-2.021-0.385-2.156
				c4.809-0.863,9.756,0.461,13.492,3.615C52.158,15.456,50.646,17.048,50.203,16.661z"/>
			<path fill="#917524" d="M25.488,13.378c-4.168-0.748-8.452,0.4-11.69,3.133c-0.443,0.389-1.953-1.205-1.412-1.674
				c3.734-3.152,8.679-4.479,13.489-3.615C26.578,11.356,26.066,13.491,25.488,13.378z"/>
		</g>
		<path fill="#664E27" d="M41.803,39.399C40.611,38.352,36,41.285,36,44.5s4.611,6.148,5.803,5.101C42.771,48.75,40,47.714,40,44.5
			S42.771,40.25,41.803,39.399z"/>
		<g>
			<path fill="#664E27" d="M41.832,40.25c-0.029-0.247-0.11-0.462-0.23-0.571c-0.123-0.104-0.247-0.139-0.419-0.163
				c-0.325-0.064-0.744-0.056-1.161-0.071c-0.844-0.022-1.75-0.068-2.66-0.249c-0.908-0.177-1.834-0.487-2.67-1.003
				c-0.824-0.517-1.576-1.252-1.895-2.192c0.918,0.343,1.703,0.57,2.512,0.747c0.802,0.182,1.606,0.32,2.441,0.487
				c0.833,0.169,1.693,0.345,2.592,0.676c0.447,0.173,0.912,0.384,1.354,0.774c0.206,0.203,0.419,0.502,0.43,0.826
				C42.146,39.83,41.994,40.077,41.832,40.25z"/>
			<path fill="#664E27" d="M41.832,48.75c0.162,0.173,0.313,0.42,0.294,0.739c-0.011,0.324-0.224,0.623-0.43,0.826
				c-0.442,0.391-0.907,0.602-1.354,0.774c-0.898,0.331-1.759,0.507-2.592,0.676c-0.835,0.167-1.64,0.306-2.441,0.487
				C34.5,52.43,33.715,52.657,32.797,53c0.318-0.94,1.07-1.676,1.895-2.192c0.836-0.516,1.762-0.826,2.67-1.003
				c0.91-0.181,1.816-0.227,2.66-0.249c0.417-0.016,0.836-0.007,1.161-0.071c0.172-0.024,0.296-0.06,0.419-0.163
				C41.722,49.212,41.803,48.997,41.832,48.75z"/>
		</g>
	</g>
</g>
</svg>
