<?xml version="1.0" encoding="utf-8"?>
<!-- Generator: Adobe Illustrator 15.0.0, SVG Export Plug-In . SVG Version: 6.00 Build 0)  -->
<!DOCTYPE svg PUBLIC "-//W3C//DTD SVG 1.1//EN" "http://www.w3.org/Graphics/SVG/1.1/DTD/svg11.dtd">
<svg version="1.1" id="Layer_1" xmlns="http://www.w3.org/2000/svg" xmlns:xlink="http://www.w3.org/1999/xlink" x="0px" y="0px"
	 width="64px" height="64px" viewBox="0 0 64 64" enable-background="new 0 0 64 64" xml:space="preserve">
<g>
	<circle fill="#FFDD67" cx="32" cy="32" r="30"/>
	<g>
		<path fill="#664E27" d="M48.238,27.139c-1.447-0.465-3.004-0.658-4.561-0.529c-0.324,0.025-0.646,0.076-0.971,0.133
			c0.111-0.061,0.219-0.129,0.33-0.186c1.189-0.611,2.424-1.148,3.738-1.633c1.314-0.5,2.699-0.926,4.201-1.506
			c-1.467-0.668-3.064-0.893-4.664-0.807c-1.6,0.092-3.203,0.527-4.654,1.281c-1.451,0.752-2.742,1.818-3.729,3.104
			c-0.967,1.285-1.701,2.785-1.797,4.412c1.467-0.496,2.74-0.93,4.016-1.219c1.268-0.299,2.51-0.48,3.783-0.592
			c1.271-0.107,2.57-0.141,3.922-0.141c1.355-0.004,2.74,0.025,4.279-0.004C51.053,28.326,49.678,27.617,48.238,27.139z"/>
		<path fill="#664E27" d="M22.34,23.893c-1.449-0.754-3.055-1.189-4.652-1.281c-1.6-0.086-3.199,0.139-4.664,0.807
			c1.5,0.58,2.887,1.006,4.199,1.506c1.316,0.484,2.549,1.021,3.738,1.633c0.111,0.057,0.219,0.125,0.33,0.186
			c-0.322-0.057-0.646-0.107-0.971-0.133c-1.557-0.129-3.113,0.064-4.561,0.529c-1.439,0.479-2.814,1.188-3.893,2.314
			c1.537,0.029,2.922,0,4.279,0.004c1.35,0,2.648,0.033,3.922,0.141c1.271,0.111,2.516,0.293,3.781,0.592
			c1.275,0.289,2.549,0.723,4.018,1.219c-0.096-1.627-0.83-3.127-1.799-4.412C25.082,25.711,23.791,24.645,22.34,23.893z"/>
	</g>
	<g>
		<g>
			<path fill="#664E27" d="M48,37.5c0,6.461-5.314,14-16,14c-10.689,0-16-7.539-16-14c0,0,5.311,0,16,0C42.686,37.5,48,37.5,48,37.5
				z"/>
		</g>
		<g>
			<path fill="#664E27" d="M32,52.5c-11.041,0-17-7.729-17-15v-1h34v1C49,44.771,43.043,52.5,32,52.5z M17.045,38.5
				c0.523,5.99,5.727,12,14.955,12s14.434-6.01,14.957-12H17.045z"/>
		</g>
		<g>
			<g>
				<g>
					<path fill="#FF717F" d="M32,40H22c0,0,0,2.787,0,5.92c0,10.703,4.477,16.076,9.998,16.08c5.523,0,10-5.377,10.002-16.082
						C42,42.787,42,40,42,40H32z"/>
				</g>
				<polygon fill="#E2596C" points="33.5,40 32,56.854 30.5,40 				"/>
			</g>
			<rect x="22" y="40" opacity="0.33" width="20" height="3.385"/>
		</g>
	</g>
</g>
</svg>
