<?xml version="1.0" encoding="utf-8"?>
<!-- Generator: Adobe Illustrator 15.0.0, SVG Export Plug-In . SVG Version: 6.00 Build 0)  -->
<!DOCTYPE svg PUBLIC "-//W3C//DTD SVG 1.1//EN" "http://www.w3.org/Graphics/SVG/1.1/DTD/svg11.dtd">
<svg version="1.1" id="Layer_1" xmlns="http://www.w3.org/2000/svg" xmlns:xlink="http://www.w3.org/1999/xlink" x="0px" y="0px"
	 width="64px" height="64px" viewBox="0 0 64 64" enable-background="new 0 0 64 64" xml:space="preserve">
<g>
	<circle fill="#FFDD67" cx="32" cy="32" r="30"/>
	<g>
		<path fill="#664E27" d="M47.951,27.186c0,2.185-1.85,3.958-4.133,3.958c-2.285,0-4.135-1.772-4.137-3.958
			C39.682,25.798,47.951,25.798,47.951,27.186z"/>
		<path fill="#664E27" d="M49.088,24.84c-1.745-0.601-3.514-0.892-5.273-0.899c-1.75-0.011-3.53,0.271-5.28,0.869
			c-1.735,0.609-3.494,1.529-4.885,2.926c1.938-0.222,3.633-0.416,5.294-0.523c1.66-0.115,3.252-0.159,4.862-0.156
			c1.61,0.003,3.215,0.061,4.873,0.178c1.669,0.107,3.366,0.296,5.305,0.502C52.579,26.358,50.819,25.451,49.088,24.84z"/>
		<path fill="#664E27" d="M24.318,27.186c0,2.185-1.85,3.958-4.133,3.958c-2.285,0-4.135-1.772-4.137-3.958
			C16.049,25.798,24.318,25.798,24.318,27.186z"/>
		<path fill="#664E27" d="M25.455,24.84c-1.747-0.601-3.514-0.892-5.273-0.899c-1.748-0.012-3.529,0.271-5.28,0.869
			c-1.734,0.609-3.494,1.529-4.885,2.926c1.94-0.223,3.633-0.416,5.294-0.523c1.66-0.115,3.251-0.159,4.864-0.156
			c1.607,0.003,3.214,0.06,4.873,0.178c1.667,0.107,3.366,0.296,5.303,0.502C28.949,26.357,27.188,25.451,25.455,24.84z"/>
	</g>
	<path fill="#664E27" d="M40.346,45.464H23.656c-0.873,0-0.873-3,0-3h16.689C41.219,42.464,41.219,45.464,40.346,45.464z"/>
</g>
</svg>
