<?xml version="1.0" encoding="utf-8"?>
<!-- Generator: Adobe Illustrator 15.0.0, SVG Export Plug-In . SVG Version: 6.00 Build 0)  -->
<!DOCTYPE svg PUBLIC "-//W3C//DTD SVG 1.1//EN" "http://www.w3.org/Graphics/SVG/1.1/DTD/svg11.dtd">
<svg version="1.1" id="Layer_1" xmlns="http://www.w3.org/2000/svg" xmlns:xlink="http://www.w3.org/1999/xlink" x="0px" y="0px"
	 width="64px" height="64px" viewBox="0 0 64 64" enable-background="new 0 0 64 64" xml:space="preserve">
<g>
	<g>
		<circle fill="#FFDD67" cx="31.999" cy="32" r="29.999"/>
		<path fill="#664E27" d="M41.801,39.398c-1.191-1.047-5.803,1.887-5.803,5.102s4.611,6.148,5.803,5.1
			c0.969-0.85-1.803-1.887-1.803-5.1C39.998,41.285,42.77,40.25,41.801,39.398z"/>
		<g>
			<path fill="#664E27" d="M41.83,40.25c-0.029-0.248-0.11-0.463-0.23-0.572c-0.123-0.104-0.247-0.139-0.419-0.162
				c-0.325-0.064-0.744-0.057-1.161-0.072c-0.844-0.021-1.75-0.068-2.66-0.248c-0.908-0.178-1.834-0.488-2.67-1.004
				c-0.824-0.516-1.576-1.252-1.895-2.191c0.918,0.342,1.703,0.57,2.512,0.746c0.802,0.182,1.606,0.32,2.441,0.488
				c0.833,0.168,1.693,0.344,2.592,0.676c0.447,0.172,0.912,0.383,1.354,0.773c0.206,0.203,0.419,0.502,0.43,0.826
				C42.144,39.83,41.992,40.076,41.83,40.25z"/>
			<path fill="#664E27" d="M41.83,48.75c0.162,0.172,0.313,0.42,0.294,0.738c-0.011,0.324-0.224,0.623-0.43,0.826
				c-0.442,0.391-0.907,0.602-1.354,0.775c-0.898,0.33-1.759,0.506-2.592,0.676c-0.835,0.166-1.64,0.305-2.441,0.486
				c-0.809,0.178-1.594,0.404-2.512,0.748c0.318-0.941,1.07-1.676,1.895-2.193c0.836-0.516,1.762-0.826,2.67-1.002
				c0.91-0.182,1.816-0.227,2.66-0.25c0.417-0.016,0.836-0.006,1.161-0.07c0.172-0.025,0.296-0.061,0.419-0.164
				C41.72,49.211,41.801,48.996,41.83,48.75z"/>
		</g>
	</g>
	<g>
		<path fill="#664E27" d="M27.699,24.444c-4.757-5.142-13.827-2.711-15.375,4.119c-0.091,0.416,0.546,0.807,1.268,1.061
			c3.147-4.229,8.696-5.717,13.537-3.628C27.627,25.417,27.983,24.759,27.699,24.444z"/>
		<path fill="#664E27" d="M51.674,28.563c-1.549-6.83-10.618-9.261-15.374-4.121c-0.287,0.316,0.07,0.975,0.568,1.553
			c4.841-2.088,10.389-0.602,13.536,3.627C51.126,29.369,51.764,28.979,51.674,28.563z"/>
	</g>
</g>
</svg>
