<?xml version="1.0" encoding="utf-8"?>
<!-- Generator: Adobe Illustrator 15.0.0, SVG Export Plug-In . SVG Version: 6.00 Build 0)  -->
<!DOCTYPE svg PUBLIC "-//W3C//DTD SVG 1.1//EN" "http://www.w3.org/Graphics/SVG/1.1/DTD/svg11.dtd">
<svg version="1.1" id="Layer_1" xmlns="http://www.w3.org/2000/svg" xmlns:xlink="http://www.w3.org/1999/xlink" x="0px" y="0px"
	 width="64px" height="64px" viewBox="0 0 64 64" enable-background="new 0 0 64 64" xml:space="preserve">
<g>
	<g>
		<path fill="#FFDD67" d="M62,32c0,16.572-13.434,30-30,30C15.432,62,2,48.572,2,32C2,15.427,15.432,2,32,2
			C48.566,2,62,15.427,62,32z"/>
	</g>
	<g>
		<g>
			<g>
				<circle fill="#664E27" cx="43.5" cy="35" r="4.5"/>
			</g>
			<g>
				<circle fill="#664E27" cx="20.5" cy="35" r="4.5"/>
			</g>
		</g>
		<g>
			<path fill="#917524" d="M25.578,19.906c-3.236,2.732-7.523,3.881-11.693,3.133c-0.578-0.113-1.088,2.021-0.385,2.156
				c4.809,0.863,9.756-0.461,13.492-3.615C27.533,21.111,26.021,19.52,25.578,19.906z"/>
			<path fill="#917524" d="M50.113,22.887c-4.168,0.748-8.455-0.4-11.691-3.133c-0.443-0.389-1.955,1.205-1.412,1.674
				c3.732,3.152,8.68,4.479,13.492,3.615C51.205,24.908,50.693,22.773,50.113,22.887z"/>
		</g>
	</g>
	<path fill="#664E27" d="M38.345,50H25.655c-0.873,0-0.873-3,0-3h12.689C39.218,47,39.218,50,38.345,50z"/>
	<g>
		<path fill="#65B1EF" d="M62,18.534c0.002,9.378-12.744,9.38-12.744,0c0-6.85,6.373-13.533,6.373-13.533S62,11.687,62,18.534z"/>
	</g>
</g>
</svg>
