<?xml version="1.0" encoding="utf-8"?>
<!-- Generator: Adobe Illustrator 15.0.0, SVG Export Plug-In . SVG Version: 6.00 Build 0)  -->
<!DOCTYPE svg PUBLIC "-//W3C//DTD SVG 1.1//EN" "http://www.w3.org/Graphics/SVG/1.1/DTD/svg11.dtd">
<svg version="1.1" id="Layer_1" xmlns="http://www.w3.org/2000/svg" xmlns:xlink="http://www.w3.org/1999/xlink" x="0px" y="0px"
	 width="64px" height="64px" viewBox="0 0 64 64" enable-background="new 0 0 64 64" xml:space="preserve">
<g>
	<circle fill="#FFDD67" cx="31.999" cy="32" r="30"/>
	<path fill="#664E27" d="M42.683,51.839c-1.801-1.059-3.541-1.701-5.322-2.127c-1.775-0.426-3.566-0.609-5.361-0.611
		c-1.799,0.008-3.588,0.189-5.361,0.615c-1.781,0.428-3.52,1.066-5.322,2.123c0.771-1.977,2.484-3.531,4.396-4.525
		c1.932-1.004,4.119-1.486,6.287-1.486c2.166,0.004,4.354,0.486,6.283,1.49C40.192,48.312,41.907,49.864,42.683,51.839z"/>
	<g>
		<path fill="#664E27" d="M23.934,29.229c1.354,3.189,0.098,6.979-2.806,8.468c-2.904,1.484-6.354,0.105-7.711-3.083
			C12.558,32.588,23.074,27.203,23.934,29.229z"/>
		<g>
			<path fill="#664E27" d="M29.104,28.911c-2.079,0.222-3.933,0.56-5.727,1.087c-1.788,0.515-3.494,1.198-5.135,2.034
				c-1.649,0.842-3.212,1.815-4.723,2.986c-1.517,1.167-2.938,2.508-4.416,4.131c0.226-2.3,1.252-4.46,2.633-6.24
				c1.387-1.782,3.168-3.222,5.106-4.197c1.944-0.989,4.077-1.54,6.211-1.562C25.179,27.142,27.343,27.648,29.104,28.911z"/>
		</g>
	</g>
	<g>
		<path fill="#664E27" d="M40.064,29.228c-1.355,3.191-0.1,6.979,2.803,8.467c2.906,1.486,6.356,0.107,7.713-3.081
			C51.438,32.588,40.924,27.205,40.064,29.228z"/>
		<g>
			<path fill="#664E27" d="M34.894,28.911c1.762-1.263,3.924-1.771,6.048-1.761c2.136,0.021,4.269,0.572,6.213,1.561
				c1.938,0.977,3.718,2.416,5.104,4.198c1.38,1.783,2.409,3.941,2.635,6.24c-1.478-1.623-2.901-2.964-4.416-4.131
				c-1.513-1.17-3.075-2.145-4.723-2.988c-1.643-0.834-3.349-1.518-5.137-2.032C38.826,29.471,36.971,29.133,34.894,28.911z"/>
		</g>
	</g>
</g>
</svg>
