<?xml version="1.0" encoding="utf-8"?>
<!-- Generator: Adobe Illustrator 15.0.0, SVG Export Plug-In . SVG Version: 6.00 Build 0)  -->
<!DOCTYPE svg PUBLIC "-//W3C//DTD SVG 1.1//EN" "http://www.w3.org/Graphics/SVG/1.1/DTD/svg11.dtd">
<svg version="1.1" id="Layer_1" xmlns="http://www.w3.org/2000/svg" xmlns:xlink="http://www.w3.org/1999/xlink" x="0px" y="0px"
	 width="64px" height="64px" viewBox="0 0 64 64" enable-background="new 0 0 64 64" xml:space="preserve">
<g>
	<g>
		<circle fill="#FFDD67" cx="32" cy="32" r="30"/>
	</g>
	<g>
		<g>
			<path fill="#664E27" d="M48,37.5c0,6.461-5.314,14-16,14c-10.689,0-16-7.539-16-14c0,0,5.311,0,16,0C42.686,37.5,48,37.5,48,37.5
				z"/>
		</g>
		<g>
			<path fill="#664E27" d="M32,52.5c-11.041,0-17-7.729-17-15v-1h34v1C49,44.771,43.043,52.5,32,52.5z M17.045,38.5
				c0.523,5.99,5.727,12,14.955,12s14.434-6.01,14.957-12H17.045z"/>
		</g>
		<g>
			<g>
				<g>
					<path fill="#FF717F" d="M32,40H22c0,0,0,2.787,0,5.92c0,10.703,4.477,16.076,9.998,16.08c5.523-0.002,10-5.379,10.002-16.084
						C42,42.785,42,40,42,40H32z"/>
				</g>
				<polygon fill="#E2596C" points="33.5,40 32,56.854 30.5,40 				"/>
			</g>
			<rect x="22" y="40" opacity="0.33" width="20" height="3.385"/>
		</g>
	</g>
	<g>
		<g>
			<circle fill="#664E27" cx="20.502" cy="24" r="4.5"/>
		</g>
		<g>
			<circle fill="#664E27" cx="43.502" cy="24" r="4.5"/>
		</g>
	</g>
</g>
</svg>
