<?xml version="1.0" encoding="utf-8"?>
<!-- Generator: Adobe Illustrator 15.0.0, SVG Export Plug-In . SVG Version: 6.00 Build 0)  -->
<!DOCTYPE svg PUBLIC "-//W3C//DTD SVG 1.1//EN" "http://www.w3.org/Graphics/SVG/1.1/DTD/svg11.dtd">
<svg version="1.1" id="Layer_1" xmlns="http://www.w3.org/2000/svg" xmlns:xlink="http://www.w3.org/1999/xlink" x="0px" y="0px"
	 width="64px" height="64px" viewBox="0 0 64 64" enable-background="new 0 0 64 64" xml:space="preserve">
<g>
	<g>
		<g>
			<path fill="#FFDD67" d="M2.461,37.205C5.339,53.525,20.9,64.416,37.215,61.539c16.316-2.877,27.213-18.432,24.334-34.753
				C58.672,10.466,43.113-0.426,26.796,2.451C10.48,5.328-0.416,20.885,2.461,37.205z"/>
		</g>
	</g>
	<g>
		<g>
			<g>
				<circle fill="#FFFFFF" cx="42.392" cy="24.673" r="7"/>
			</g>
		</g>
		<g>
			<g>
				<circle fill="#664E27" cx="42.392" cy="24.672" r="3.5"/>
			</g>
		</g>
	</g>
	<g>
		<g>
			<g>
				<circle fill="#FFFFFF" cx="19.741" cy="28.666" r="9"/>
			</g>
		</g>
		<g>
			<g>
				<circle fill="#664E27" cx="19.741" cy="28.666" r="4.5"/>
			</g>
		</g>
	</g>
	<g>
		<path fill="#664E27" d="M23.435,50.922c-0.662,0-1.269-0.441-1.448-1.112c-0.214-0.8,0.261-1.622,1.062-1.837
			c0.211-0.057,0.35-0.407,0.601-1.225c0.335-1.095,0.843-2.749,2.692-3.244c1.849-0.494,3.115,0.684,3.952,1.464
			c0.626,0.583,0.917,0.814,1.133,0.761c0.208-0.056,0.353-0.423,0.598-1.225c0.335-1.095,0.841-2.748,2.69-3.244
			c1.85-0.493,3.115,0.685,3.952,1.465c0.611,0.57,0.915,0.82,1.128,0.762c0.208-0.056,0.353-0.422,0.598-1.224
			c0.335-1.095,0.841-2.749,2.691-3.245c1.847-0.497,3.111,0.684,3.949,1.465c0.613,0.571,0.92,0.812,1.129,0.762
			c0.803-0.217,1.623,0.262,1.837,1.063s-0.262,1.622-1.062,1.836c-1.851,0.494-3.113-0.686-3.951-1.467
			c-0.611-0.571-0.925-0.813-1.126-0.76c-0.209,0.056-0.354,0.422-0.599,1.224c-0.335,1.095-0.841,2.749-2.691,3.245
			c-1.842,0.496-3.111-0.686-3.949-1.465c-0.613-0.572-0.924-0.817-1.131-0.762c-0.207,0.055-0.352,0.422-0.598,1.223
			c-0.334,1.095-0.84,2.748-2.689,3.246c-1.847,0.496-3.115-0.684-3.953-1.464c-0.626-0.583-0.922-0.821-1.133-0.761
			c-0.211,0.057-0.35,0.406-0.6,1.225c-0.336,1.094-0.842,2.749-2.693,3.244C23.693,50.906,23.563,50.922,23.435,50.922z"/>
	</g>
</g>
</svg>
