<?xml version="1.0" encoding="utf-8"?>
<!-- Generator: Adobe Illustrator 15.0.0, SVG Export Plug-In . SVG Version: 6.00 Build 0)  -->
<!DOCTYPE svg PUBLIC "-//W3C//DTD SVG 1.1//EN" "http://www.w3.org/Graphics/SVG/1.1/DTD/svg11.dtd">
<svg version="1.1" id="Layer_1" xmlns="http://www.w3.org/2000/svg" xmlns:xlink="http://www.w3.org/1999/xlink" x="0px" y="0px"
	 width="64px" height="64px" viewBox="0 0 64 64" enable-background="new 0 0 64 64" xml:space="preserve">
<g>
	<circle fill="#FFDD67" cx="31.999" cy="32" r="30"/>
	<circle opacity="0.8" fill="#FF717F" enable-background="new    " cx="50.499" cy="29.136" r="8.31"/>
	<circle opacity="0.8" fill="#FF717F" enable-background="new    " cx="13.499" cy="29.136" r="8.31"/>
	<path fill="#664E27" d="M46.329,42c-1.93-2.558-4.182-4.331-6.631-5.538c-2.445-1.208-5.072-1.788-7.699-1.791
		c-2.636,0.008-5.258,0.591-7.701,1.794c-2.447,1.208-4.697,2.981-6.629,5.535c0.227-3.017,2.106-6.196,4.773-8.363
		c2.67-2.197,6.119-3.43,9.557-3.416c3.432-0.005,6.883,1.223,9.55,3.42C44.209,35.807,46.096,38.984,46.329,42z"/>
	<g>
		<path fill="#664E27" d="M48.237,19.139c-1.447-0.465-3.002-0.658-4.559-0.529c-0.326,0.025-0.648,0.076-0.971,0.133
			c0.109-0.061,0.217-0.129,0.33-0.186c1.188-0.611,2.422-1.148,3.736-1.633c1.314-0.5,2.699-0.926,4.201-1.506
			c-1.467-0.668-3.064-0.893-4.664-0.807c-1.6,0.092-3.203,0.527-4.654,1.281c-1.451,0.752-2.742,1.818-3.727,3.104
			c-0.969,1.285-1.703,2.785-1.799,4.412c1.467-0.496,2.74-0.93,4.016-1.219c1.268-0.299,2.51-0.48,3.783-0.592
			c1.271-0.107,2.57-0.141,3.922-0.141c1.355-0.004,2.74,0.025,4.279-0.004C51.052,20.326,49.677,19.617,48.237,19.139z"/>
		<path fill="#664E27" d="M22.339,15.893c-1.449-0.754-3.055-1.189-4.652-1.281c-1.6-0.086-3.197,0.139-4.664,0.807
			c1.502,0.58,2.887,1.006,4.201,1.506c1.314,0.484,2.547,1.021,3.736,1.633c0.111,0.057,0.219,0.125,0.33,0.186
			c-0.322-0.057-0.646-0.107-0.971-0.133c-1.557-0.129-3.111,0.064-4.561,0.529c-1.438,0.479-2.814,1.188-3.893,2.314
			c1.537,0.029,2.922,0,4.279,0.004c1.35,0,2.648,0.033,3.922,0.141c1.271,0.111,2.516,0.293,3.781,0.592
			c1.275,0.289,2.549,0.723,4.018,1.219c-0.096-1.627-0.83-3.127-1.799-4.412C25.081,17.711,23.79,16.645,22.339,15.893z"/>
	</g>
</g>
</svg>
