<?xml version="1.0" encoding="utf-8"?>
<!-- Generator: Adobe Illustrator 15.0.0, SVG Export Plug-In . SVG Version: 6.00 Build 0)  -->
<!DOCTYPE svg PUBLIC "-//W3C//DTD SVG 1.1//EN" "http://www.w3.org/Graphics/SVG/1.1/DTD/svg11.dtd">
<svg version="1.1" id="Layer_1" xmlns="http://www.w3.org/2000/svg" xmlns:xlink="http://www.w3.org/1999/xlink" x="0px" y="0px"
	 width="64px" height="64px" viewBox="0 0 64 64" enable-background="new 0 0 64 64" xml:space="preserve">
<g>
	<circle fill="#F46767" cx="32" cy="32" r="30"/>
	<g>
		<path fill="#493B30" d="M42.684,48.839c-1.8-1.059-3.54-1.701-5.322-2.127c-1.774-0.426-3.565-0.609-5.361-0.611
			c-1.798,0.008-3.587,0.189-5.36,0.615c-1.782,0.428-3.521,1.066-5.323,2.123c0.771-1.977,2.485-3.531,4.396-4.525
			c1.932-1.004,4.119-1.486,6.287-1.486c2.167,0.004,4.354,0.486,6.284,1.49C40.194,45.312,41.909,46.864,42.684,48.839z"/>
		<g>
			<g>
				<path fill="#FFFFFF" d="M52.291,24.597c2.012,4.313,0.146,9.439-4.168,11.449c-4.313,2.012-9.439,0.145-11.449-4.166
					C35.16,28.632,50.777,21.349,52.291,24.597z"/>
				<path fill="#493B30" d="M49.762,25.776c1.359,2.916,0.098,6.381-2.816,7.742c-2.916,1.359-6.381,0.098-7.742-2.818
					C38.34,28.849,48.898,23.925,49.762,25.776z"/>
				<g>
					<path fill="#493B30" d="M53.895,24.925c-1.87,0.182-3.539,0.459-5.153,0.891c-1.609,0.422-3.145,0.982-4.622,1.668
						c-1.484,0.689-2.89,1.488-4.25,2.447c-1.364,0.957-2.645,2.057-3.975,3.387c0.203-1.885,1.128-3.656,2.37-5.115
						c1.248-1.461,2.851-2.641,4.595-3.441c1.75-0.811,3.67-1.262,5.591-1.279C50.362,23.474,52.309,23.89,53.895,24.925z"/>
				</g>
			</g>
			<g>
				<path fill="#FFFFFF" d="M11.709,24.597c-2.012,4.313-0.146,9.439,4.168,11.449c4.311,2.012,9.438,0.145,11.447-4.166
					C28.84,28.632,13.221,21.349,11.709,24.597z"/>
				<path fill="#493B30" d="M14.238,25.776c-1.361,2.916-0.1,6.381,2.814,7.742c2.918,1.359,6.383,0.098,7.744-2.818
					C25.658,28.849,15.102,23.925,14.238,25.776z"/>
				<g>
					<path fill="#493B30" d="M10.105,24.925c1.586-1.035,3.531-1.451,5.444-1.443c1.921,0.018,3.841,0.469,5.591,1.279
						c1.744,0.801,3.346,1.98,4.595,3.441c1.241,1.461,2.167,3.23,2.37,5.115c-1.33-1.33-2.61-2.43-3.975-3.387
						c-1.36-0.959-2.767-1.758-4.25-2.449c-1.478-0.684-3.013-1.244-4.622-1.666C13.645,25.384,11.976,25.106,10.105,24.925z"/>
				</g>
			</g>
		</g>
	</g>
</g>
</svg>
