<?xml version="1.0" encoding="utf-8"?>
<!-- Generator: Adobe Illustrator 15.0.0, SVG Export Plug-In . SVG Version: 6.00 Build 0)  -->
<!DOCTYPE svg PUBLIC "-//W3C//DTD SVG 1.1//EN" "http://www.w3.org/Graphics/SVG/1.1/DTD/svg11.dtd">
<svg version="1.1" id="Layer_1" xmlns="http://www.w3.org/2000/svg" xmlns:xlink="http://www.w3.org/1999/xlink" x="0px" y="0px"
	 width="64px" height="64px" viewBox="0 0 64 64" enable-background="new 0 0 64 64" xml:space="preserve">
<g>
	<circle fill="#FFDD67" cx="32" cy="32" r="30"/>
	<g>
		<path fill="#664E27" d="M42.684,48.84c-1.801-1.059-3.541-1.701-5.322-2.127c-1.775-0.426-3.566-0.609-5.361-0.611
			c-1.799,0.008-3.588,0.189-5.361,0.615c-1.781,0.428-3.52,1.066-5.322,2.123c0.771-1.977,2.484-3.531,4.396-4.525
			c1.932-1.004,4.119-1.486,6.287-1.486c2.166,0.004,4.354,0.486,6.283,1.49C40.193,45.313,41.908,46.865,42.684,48.84z"/>
		<g>
			<g>
				<path fill="#FFFFFF" d="M52.291,24.598c2.012,4.313,0.146,9.439-4.168,11.449c-4.313,2.012-9.439,0.145-11.449-4.166
					C35.16,28.633,50.777,21.35,52.291,24.598z"/>
				<path fill="#664E27" d="M49.762,25.777c1.359,2.916,0.098,6.381-2.816,7.742c-2.916,1.359-6.381,0.098-7.742-2.818
					C38.34,28.85,48.898,23.926,49.762,25.777z"/>
				<g>
					<path fill="#664E27" d="M53.895,24.926c-1.871,0.182-3.539,0.459-5.154,0.891c-1.609,0.422-3.145,0.982-4.621,1.668
						c-1.484,0.689-2.891,1.488-4.25,2.447c-1.365,0.957-2.645,2.057-3.975,3.387c0.203-1.885,1.127-3.656,2.369-5.115
						c1.248-1.461,2.852-2.641,4.596-3.441c1.75-0.811,3.67-1.262,5.59-1.279C50.361,23.475,52.309,23.891,53.895,24.926z"/>
				</g>
			</g>
			<g>
				<path fill="#FFFFFF" d="M11.709,24.598c-2.012,4.313-0.146,9.439,4.168,11.449c4.311,2.012,9.438,0.145,11.447-4.166
					C28.84,28.633,13.221,21.35,11.709,24.598z"/>
				<path fill="#664E27" d="M14.238,25.777c-1.361,2.916-0.1,6.381,2.814,7.742c2.918,1.359,6.383,0.098,7.744-2.818
					C25.658,28.85,15.102,23.926,14.238,25.777z"/>
				<g>
					<path fill="#664E27" d="M10.105,24.926c1.586-1.035,3.531-1.451,5.443-1.443c1.922,0.018,3.842,0.469,5.592,1.279
						c1.744,0.801,3.346,1.98,4.594,3.441c1.242,1.461,2.168,3.23,2.371,5.115c-1.33-1.33-2.611-2.43-3.975-3.387
						c-1.361-0.959-2.768-1.758-4.25-2.449c-1.479-0.684-3.014-1.244-4.623-1.666C13.645,25.385,11.975,25.107,10.105,24.926z"/>
				</g>
			</g>
		</g>
	</g>
</g>
</svg>
