<?xml version="1.0" encoding="utf-8"?>
<!-- Generator: Adobe Illustrator 15.0.0, SVG Export Plug-In . SVG Version: 6.00 Build 0)  -->
<!DOCTYPE svg PUBLIC "-//W3C//DTD SVG 1.1//EN" "http://www.w3.org/Graphics/SVG/1.1/DTD/svg11.dtd">
<svg version="1.1" id="Layer_1" xmlns="http://www.w3.org/2000/svg" xmlns:xlink="http://www.w3.org/1999/xlink" x="0px" y="0px"
	 width="64px" height="64px" viewBox="0 0 64 64" enable-background="new 0 0 64 64" xml:space="preserve">
<g>
	<g>
		<circle fill="#FFDD67" cx="32" cy="32" r="30"/>
	</g>
	<g>
		<path fill="#917524" d="M38.422,10.238c3.236,2.732,7.523,3.881,11.693,3.133c0.578-0.113,1.088,2.021,0.385,2.156
			c-4.809,0.863-9.756-0.461-13.492-3.615C36.467,11.443,37.979,9.852,38.422,10.238z"/>
		<path fill="#917524" d="M13.887,13.221c4.168,0.748,8.455-0.4,11.691-3.133c0.443-0.389,1.955,1.205,1.412,1.674
			c-3.732,3.152-8.68,4.479-13.492,3.615C12.795,15.242,13.307,13.107,13.887,13.221z"/>
	</g>
	<g>
		<g>
			<path fill="#FFFFFF" d="M16,49.498c0-6.461,5.314-14,16-14c10.689,0,16,7.539,16,14c0,0-5.311,0-16,0
				C21.314,49.498,16,49.498,16,49.498z"/>
		</g>
		<g>
			<polygon fill="#664E27" points="15.916,49.699 17.916,41.699 46.084,41.699 48.084,49.699 			"/>
		</g>
		<g>
			<path fill="#664E27" d="M32,34.498c11.041,0,17,7.729,17,15v1H15v-1C15,42.227,20.957,34.498,32,34.498z M46.957,48.498
				c-0.523-5.99-5.729-12-14.957-12s-14.434,6.01-14.957,12H46.957z"/>
		</g>
	</g>
	<g>
		<g>
			<circle fill="#664E27" cx="20.5" cy="26" r="4.5"/>
		</g>
		<g>
			<circle fill="#664E27" cx="43.5" cy="26" r="4.5"/>
		</g>
	</g>
</g>
</svg>
