<?xml version="1.0" encoding="utf-8"?>
<!-- Generator: Adobe Illustrator 15.0.0, SVG Export Plug-In . SVG Version: 6.00 Build 0)  -->
<!DOCTYPE svg PUBLIC "-//W3C//DTD SVG 1.1//EN" "http://www.w3.org/Graphics/SVG/1.1/DTD/svg11.dtd">
<svg version="1.1" id="Layer_1" xmlns="http://www.w3.org/2000/svg" xmlns:xlink="http://www.w3.org/1999/xlink" x="0px" y="0px"
	 width="64px" height="64px" viewBox="0 0 64 64" enable-background="new 0 0 64 64" xml:space="preserve">
<g>
	<g>
		<circle fill="#FFDD67" cx="32" cy="32" r="30"/>
	</g>
	<g>
		<path fill="#FFFFFF" d="M16,49.498c0-6.461,5.314-14,16-14c10.689,0,16,7.539,16,14c0,0-5.311,0-16,0
			C21.314,49.498,16,49.498,16,49.498z"/>
		<g>
			<polygon fill="#664E27" points="15.916,50 18,42 46,42 48.084,50 			"/>
		</g>
		<g>
			<polygon fill="#FFFFFF" points="15.917,48.699 16.917,45.699 47.084,45.699 48.084,48.699 			"/>
		</g>
		<g>
			<path fill="#664E27" d="M32,34.498c11.043,0,17,7.729,17,15v1H15v-1C15,42.227,20.959,34.498,32,34.498z M46.957,48.498
				c-0.523-5.99-5.729-12-14.957-12s-14.432,6.01-14.955,12H46.957z"/>
		</g>
	</g>
	<g>
		<circle fill="#BA9436" cx="46.094" cy="23.786" r="9"/>
		<circle fill="#BA9436" cx="17.906" cy="23.786" r="9"/>
	</g>
	<g>
		<g>
			<circle fill="#FFFFFF" cx="45.5" cy="21.785" r="9"/>
			<circle fill="#664E27" cx="45.5" cy="21.785" r="4.5"/>
		</g>
		<g>
			<circle fill="#FFFFFF" cx="18.5" cy="21.785" r="9"/>
			<circle fill="#664E27" cx="18.5" cy="21.785" r="4.5"/>
		</g>
	</g>
</g>
</svg>
