<?xml version="1.0" encoding="utf-8"?>
<!-- Generator: Adobe Illustrator 15.0.0, SVG Export Plug-In . SVG Version: 6.00 Build 0)  -->
<!DOCTYPE svg PUBLIC "-//W3C//DTD SVG 1.1//EN" "http://www.w3.org/Graphics/SVG/1.1/DTD/svg11.dtd">
<svg version="1.1" id="Layer_1" xmlns="http://www.w3.org/2000/svg" xmlns:xlink="http://www.w3.org/1999/xlink" x="0px" y="0px"
	 width="64px" height="64px" viewBox="0 0 64 64" enable-background="new 0 0 64 64" xml:space="preserve">
<g>
	<circle fill="#FFDD67" cx="32" cy="32" r="30"/>
	<g>
		<path fill="#664E27" d="M43.813,48.289c0,6.314-5.287,8.416-11.811,8.416s-11.814-2.102-11.814-8.416
			c0-8.328,5.289-13.699,11.814-13.699C38.523,34.59,43.813,39.961,43.813,48.289z"/>
		<g>
			<path fill="#4C3526" d="M34.695,38.973c-0.848-0.021-2.148,0.783-1.67,2.908c0.238,1.074,1.738,2.373,1.738,4.107
				c0,3.521-5.523,3.521-5.523,0c0-1.734,1.5-3.033,1.742-4.107c0.477-2.125-0.826-2.93-1.674-2.908
				c-2.295,0.061-6.064,2.58-6.064,6.842c0,4.791,3.922,8.676,8.758,8.676s8.756-3.885,8.756-8.676
				C40.758,41.553,36.988,39.033,34.695,38.973z"/>
		</g>
		<g>
			<path fill="#FF717F" d="M32.002,50.691c-6.434,0-8.268,1.965-8.268,1.965c1.65,2.76,8.268,2.611,8.268,2.611
				s6.617,0.15,8.266-2.611C40.268,52.656,38.434,50.691,32.002,50.691z"/>
		</g>
	</g>
	<g>
		<path fill="#52E8B6" d="M30.135,26.83c-1.268-0.666-4.143,7.912-8.545,8.711c-0.402-0.52-0.867-1-1.387-1.438
			c-4.238-3.551-10.746-2.764-14.533,1.76C1.879,40.385,2.244,46.93,6.48,50.479c4.238,3.551,10.746,2.762,14.533-1.762
			C25.867,42.922,31.799,27.701,30.135,26.83z"/>
	</g>
	<g>
		<path fill="#664E27" d="M36.41,21.35c3.264,6.197,12.653,6.197,15.917,0c0.195-0.378-0.319-0.921-0.95-1.352
			c-4.135,3.27-9.88,3.271-14.015,0C36.731,20.43,36.217,20.972,36.41,21.35z"/>
		<path fill="#664E27" d="M11.673,21.35c3.264,6.197,12.653,6.197,15.917,0.001c0.195-0.379-0.32-0.922-0.951-1.353
			c-4.135,3.271-9.879,3.271-14.014,0.001C11.994,20.43,11.479,20.972,11.673,21.35z"/>
	</g>
</g>
</svg>
