<?xml version="1.0" encoding="utf-8"?>
<!-- Generator: Adobe Illustrator 15.0.0, SVG Export Plug-In . SVG Version: 6.00 Build 0)  -->
<!DOCTYPE svg PUBLIC "-//W3C//DTD SVG 1.1//EN" "http://www.w3.org/Graphics/SVG/1.1/DTD/svg11.dtd">
<svg version="1.1" id="Layer_1" xmlns="http://www.w3.org/2000/svg" xmlns:xlink="http://www.w3.org/1999/xlink" x="0px" y="0px"
	 width="64px" height="64px" viewBox="0 0 64 64" enable-background="new 0 0 64 64" xml:space="preserve">
<g>
	<circle fill="#FFDD67" cx="32" cy="32" r="30"/>
	<g>
		<g>
			<circle fill="#664E27" cx="20.5" cy="25" r="4.5"/>
		</g>
		<g>
			<circle fill="#664E27" cx="43.5" cy="25" r="4.5"/>
		</g>
	</g>
	<g>
		<g>
			<path fill="#FFFFFF" d="M14.352,47.862c0-6.461,5.863-14,17.648-14c11.789,0,17.646,7.539,17.646,14c0,0-5.857,0-17.646,0
				C20.215,47.862,14.352,47.862,14.352,47.862z"/>
		</g>
		<rect x="31.5" y="34.287" fill="#969DA3" width="1" height="13.209"/>
		<rect x="37.719" y="34.62" fill="#969DA3" width="1" height="12.876"/>
		<rect x="25.279" y="34.62" fill="#969DA3" width="1" height="12.876"/>
		<rect x="19.059" y="38.662" fill="#969DA3" width="1" height="8.834"/>
		<rect x="43.939" y="38.662" fill="#969DA3" width="1" height="8.834"/>
		<g>
			<path fill="#664E27" d="M32,32.862c12.18,0,18.75,7.729,18.75,15v1h-37.5v-1C13.25,40.591,19.822,32.862,32,32.862z
				 M48.496,46.862c-0.578-5.99-6.318-12-16.496-12c-10.18,0-15.918,6.01-16.494,12H48.496z"/>
		</g>
	</g>
	<g>
		<path fill="#917524" d="M48.406,15.507c-4.219,0.355-8.064,2.576-10.482,6.053c-0.33,0.488-2.199-0.66-1.797-1.252
			c2.789-4.012,7.225-6.574,12.096-6.984C48.938,13.272,48.994,15.466,48.406,15.507z"/>
		<path fill="#917524" d="M26.074,21.56c-2.418-3.477-6.262-5.697-10.482-6.053c-0.588-0.039-0.529-2.234,0.186-2.184
			c4.869,0.412,9.305,2.973,12.096,6.984C28.275,20.901,26.404,22.048,26.074,21.56z"/>
	</g>
</g>
</svg>
