<?xml version="1.0" encoding="utf-8"?>
<!-- Generator: Adobe Illustrator 15.0.0, SVG Export Plug-In . SVG Version: 6.00 Build 0)  -->
<!DOCTYPE svg PUBLIC "-//W3C//DTD SVG 1.1//EN" "http://www.w3.org/Graphics/SVG/1.1/DTD/svg11.dtd">
<svg version="1.1" id="Layer_1" xmlns="http://www.w3.org/2000/svg" xmlns:xlink="http://www.w3.org/1999/xlink" x="0px" y="0px"
	 width="64px" height="64px" viewBox="0 0 64 64" enable-background="new 0 0 64 64" xml:space="preserve">
<g>
	<g>
		<circle fill="#FFDD67" cx="32" cy="32" r="30"/>
	</g>
	<g>
		<g>
			<circle fill="#664E27" cx="20.502" cy="25" r="4.5"/>
		</g>
		<g>
			<circle fill="#664E27" cx="43.502" cy="25" r="4.5"/>
		</g>
	</g>
	<g>
		<g>
			<path fill="#FFFFFF" d="M19.047,49.73c0-5.23,4.301-11.334,12.953-11.334c8.654,0,12.953,6.104,12.953,11.334
				c0,0-4.299,0-12.953,0C23.348,49.73,19.047,49.73,19.047,49.73z"/>
		</g>
		<g>
			<polygon fill="#664E27" points="18.979,49.895 20.596,43.418 43.402,43.418 45.021,49.895 			"/>
		</g>
		<g>
			<path fill="#664E27" d="M32,37.588c8.939,0,13.763,6.258,13.763,12.143v0.811H18.236V49.73
				C18.236,43.846,23.061,37.588,32,37.588z M44.109,48.92c-0.424-4.85-4.639-9.715-12.109-9.715
				c-7.473,0-11.686,4.865-12.107,9.715H44.109z"/>
		</g>
	</g>
</g>
</svg>
