<?xml version="1.0" encoding="utf-8"?>
<!-- Generator: Adobe Illustrator 15.0.0, SVG Export Plug-In . SVG Version: 6.00 Build 0)  -->
<!DOCTYPE svg PUBLIC "-//W3C//DTD SVG 1.1//EN" "http://www.w3.org/Graphics/SVG/1.1/DTD/svg11.dtd">
<svg version="1.1" id="Layer_1" xmlns="http://www.w3.org/2000/svg" xmlns:xlink="http://www.w3.org/1999/xlink" x="0px" y="0px"
	 width="64px" height="64px" viewBox="0 0 64 64" enable-background="new 0 0 64 64" xml:space="preserve">
<g>
	<g>
		<path fill="#FFDD67" d="M2,32c0,16.572,13.428,30,30,30s30-13.428,30-30S48.572,2,32,2S2,15.428,2,32z"/>
	</g>
	<path fill="#664E27" d="M15.318,52.002c1.801-1.061,3.541-1.701,5.322-2.127c1.775-0.428,3.566-0.609,5.361-0.613
		c1.799,0.008,3.588,0.189,5.361,0.615c1.781,0.428,3.52,1.068,5.322,2.125c-0.771-1.979-2.484-3.533-4.396-4.527
		c-1.932-1.002-4.119-1.486-6.287-1.484c-2.166,0.004-4.354,0.486-6.283,1.488C17.809,48.475,16.094,50.027,15.318,52.002z"/>
	<g>
		<g>
			<circle fill="#664E27" cx="37.498" cy="36" r="4.5"/>
		</g>
		<g>
			<circle fill="#664E27" cx="14.498" cy="36" r="4.5"/>
		</g>
	</g>
	<g>
		<path fill="#917524" d="M19.578,20.906c-3.236,2.732-7.523,3.881-11.693,3.133c-0.578-0.113-1.088,2.021-0.385,2.156
			c4.809,0.863,9.756-0.461,13.492-3.615C21.533,22.111,20.021,20.52,19.578,20.906z"/>
		<path fill="#917524" d="M44.113,23.887c-4.168,0.748-8.455-0.4-11.691-3.133c-0.443-0.389-1.955,1.205-1.412,1.674
			c3.732,3.152,8.68,4.479,13.492,3.615C45.205,25.908,44.693,23.773,44.113,23.887z"/>
	</g>
	<g>
		<path fill="#65B1EF" d="M44.688,38.605c0,8.576,11.656,8.578,11.654,0c0-6.264-5.826-12.375-5.826-12.375
			S44.688,32.344,44.688,38.605z"/>
	</g>
</g>
</svg>
