<?xml version="1.0" encoding="utf-8"?>
<!-- Generator: Adobe Illustrator 15.0.0, SVG Export Plug-In . SVG Version: 6.00 Build 0)  -->
<!DOCTYPE svg PUBLIC "-//W3C//DTD SVG 1.1//EN" "http://www.w3.org/Graphics/SVG/1.1/DTD/svg11.dtd">
<svg version="1.1" id="Layer_1" xmlns="http://www.w3.org/2000/svg" xmlns:xlink="http://www.w3.org/1999/xlink" x="0px" y="0px"
	 width="64px" height="64px" viewBox="0 0 64 64" enable-background="new 0 0 64 64" xml:space="preserve">
<g>
	<g>
		<circle fill="#FFDD67" cx="32" cy="32" r="30"/>
	</g>
	<path fill="#664E27" d="M42.684,49.84c-1.801-1.059-3.541-1.701-5.322-2.127c-1.775-0.426-3.566-0.609-5.361-0.611
		c-1.799,0.008-3.588,0.189-5.361,0.615c-1.781,0.428-3.52,1.066-5.322,2.123c0.771-1.977,2.484-3.531,4.396-4.525
		c1.932-1.004,4.119-1.486,6.287-1.486c2.166,0.004,4.354,0.486,6.283,1.49C40.193,46.313,41.908,47.865,42.684,49.84z"/>
	<g>
		<g>
			<path fill="#FFFFFF" d="M52.75,30c0,4.971-4.031,9-9,9c-4.971,0-9-4.029-9-9c0-4.967,4.029-9,9-9
				C48.719,21,52.75,25.033,52.75,30z"/>
			<circle fill="#664E27" cx="43.75" cy="30" r="6"/>
		</g>
		<ellipse fill="#FFFFFF" cx="45.302" cy="34.469" rx="2.812" ry="3.25"/>
		<ellipse fill="#FFFFFF" cx="41.529" cy="30" rx="1.645" ry="1.902"/>
	</g>
	<g>
		<g>
			<path fill="#FFFFFF" d="M29.25,30c0,4.971-4.031,9-9,9c-4.971,0-9-4.029-9-9c0-4.967,4.029-9,9-9
				C25.219,21,29.25,25.033,29.25,30z"/>
			<circle fill="#664E27" cx="20.25" cy="30" r="6"/>
		</g>
		<ellipse fill="#FFFFFF" cx="21.801" cy="34.469" rx="2.811" ry="3.25"/>
		<ellipse fill="#FFFFFF" cx="18.028" cy="30" rx="1.644" ry="1.902"/>
	</g>
	<g>
		<path fill="#65B1EF" d="M46.35,35c-5.016,6.857-7.895,13.166-7.895,18.352c0,4.406,3.535,7.977,7.898,7.977
			c4.359,0,7.896-3.57,7.896-7.977C54.25,48.166,51.285,41.75,46.35,35z"/>
	</g>
	<g>
		<path fill="#917524" d="M53.201,19.652c-3.234-2.732-7.523-3.881-11.691-3.133c-0.58,0.113-1.09-2.021-0.387-2.156
			c4.811-0.863,9.758,0.461,13.492,3.615C55.156,18.447,53.646,20.039,53.201,19.652z"/>
		<path fill="#917524" d="M22.486,16.369c-4.168-0.748-8.455,0.4-11.691,3.133c-0.443,0.389-1.955-1.205-1.412-1.674
			c3.732-3.152,8.68-4.479,13.492-3.615C23.578,14.348,23.066,16.482,22.486,16.369z"/>
	</g>
</g>
</svg>
