<?xml version="1.0" encoding="utf-8"?>
<!-- Generator: Adobe Illustrator 15.0.0, SVG Export Plug-In . SVG Version: 6.00 Build 0)  -->
<!DOCTYPE svg PUBLIC "-//W3C//DTD SVG 1.1//EN" "http://www.w3.org/Graphics/SVG/1.1/DTD/svg11.dtd">
<svg version="1.1" id="Layer_1" xmlns="http://www.w3.org/2000/svg" xmlns:xlink="http://www.w3.org/1999/xlink" x="0px" y="0px"
	 width="64px" height="64px" viewBox="0 0 64 64" enable-background="new 0 0 64 64" xml:space="preserve">
<g>
	<circle fill="#FFDD67" cx="32" cy="32" r="30"/>
	<g>
		<path fill="#664E27" d="M48.24,24.139c-1.447-0.465-3.004-0.658-4.561-0.529c-0.324,0.025-0.648,0.076-0.971,0.133
			c0.111-0.061,0.219-0.129,0.33-0.186c1.189-0.611,2.422-1.148,3.738-1.633c1.313-0.5,2.699-0.926,4.199-1.506
			c-1.465-0.668-3.064-0.893-4.664-0.807c-1.598,0.092-3.203,0.527-4.652,1.281c-1.451,0.752-2.742,1.818-3.729,3.104
			c-0.969,1.285-1.703,2.785-1.799,4.412c1.469-0.496,2.742-0.93,4.018-1.219c1.266-0.299,2.51-0.48,3.781-0.592
			c1.273-0.107,2.572-0.141,3.922-0.141c1.357-0.004,2.742,0.025,4.279-0.004C51.055,25.326,49.68,24.617,48.24,24.139z"/>
		<path fill="#664E27" d="M22.342,20.893c-1.451-0.754-3.055-1.189-4.654-1.281c-1.6-0.086-3.197,0.139-4.664,0.807
			c1.502,0.58,2.887,1.006,4.201,1.506c1.314,0.484,2.549,1.021,3.738,1.633c0.111,0.057,0.219,0.125,0.33,0.186
			c-0.324-0.057-0.646-0.107-0.971-0.133c-1.557-0.129-3.113,0.064-4.561,0.529c-1.439,0.479-2.814,1.188-3.895,2.314
			c1.539,0.029,2.924,0,4.279,0.004c1.352,0,2.65,0.033,3.922,0.141c1.273,0.111,2.516,0.293,3.783,0.592
			c1.275,0.289,2.549,0.723,4.016,1.219c-0.096-1.627-0.83-3.127-1.797-4.412C25.084,22.711,23.793,21.645,22.342,20.893z"/>
	</g>
	<g>
		<path fill="#917524" d="M38.424,11.24c3.234,2.732,7.523,3.881,11.691,3.133c0.58-0.113,1.09,2.021,0.387,2.156
			c-4.811,0.863-9.758-0.461-13.492-3.615C36.469,12.445,37.979,10.854,38.424,11.24z"/>
		<path fill="#917524" d="M13.887,14.221c4.168,0.748,8.455-0.4,11.693-3.133c0.443-0.389,1.953,1.205,1.412,1.674
			c-3.734,3.152-8.682,4.479-13.492,3.615C12.797,16.242,13.309,14.107,13.887,14.221z"/>
	</g>
	<g>
		<path fill="#664E27" d="M32.104,32.252c-8.906-0.063-16.172,5.252-16.227,11.865c-0.033,3.66,1.34,9.145,5.613,9.176
			c3.1,0.021,6.484-3.523,10.461-3.498c3.93,0.027,7.225,3.689,10.299,3.707c3.779,0.025,5.844-5.461,5.873-9.16
			C48.182,37.732,41.006,32.316,32.104,32.252z"/>
		<g>
			<path fill="#4C3526" d="M34.094,38.387c-0.658-0.016-1.67,0.557-1.299,2.072c0.186,0.766,1.352,1.689,1.352,2.924
				c0,2.508-4.291,2.508-4.291,0c0-1.234,1.166-2.158,1.352-2.924c0.369-1.516-0.643-2.088-1.301-2.072
				c-1.785,0.045-4.717,1.838-4.717,4.873c0,3.41,3.053,6.176,6.811,6.176c3.76,0,6.811-2.766,6.811-6.176
				C38.811,40.225,35.879,38.432,34.094,38.387z"/>
		</g>
		<polygon fill="#FFFFFF" points="44.898,37.766 19.1,37.766 22.785,34.73 32,33.213 41.213,34.73 		"/>
		<g>
			<path fill="#FF717F" d="M23.611,51.506c0,0,5.004-2.711,8.389-2.711s8.387,2.711,8.387,2.711
				c-2.215-3.061-5.002-5.838-8.387-5.838S25.83,48.445,23.611,51.506z"/>
		</g>
		<path fill="#664E27" d="M31.947,34.176l0.143,0.002c4.73,0.033,9.145,1.74,11.807,4.564c1.578,1.674,2.402,3.605,2.385,5.584
			c-0.023,2.887-1.633,7.25-4.021,7.25c-0.998-0.004-2.301-0.715-3.68-1.465c-1.914-1.043-4.088-2.225-6.617-2.242h-0.051h-0.004
			c-2.521,0-4.713,1.119-6.648,2.107c-1.4,0.715-2.723,1.391-3.756,1.391c-0.771-0.006-1.383-0.275-1.928-0.855
			c-1.311-1.389-1.877-4.203-1.857-6.377C17.766,38.645,24.15,34.176,31.947,34.176 M31.947,32.252
			c-8.836,0-16.016,5.289-16.07,11.865c-0.033,3.66,1.34,9.145,5.613,9.176c0.008,0,0.018,0,0.025,0
			c3.082,0,6.445-3.498,10.393-3.498c0.014,0,0.029,0,0.043,0c3.93,0.027,7.225,3.689,10.299,3.707c0.01,0,0.018,0,0.027,0
			c3.764,0,5.816-5.471,5.846-9.16c0.059-6.609-7.117-12.025-16.02-12.09C32.051,32.252,31.998,32.252,31.947,32.252L31.947,32.252z
			"/>
	</g>
</g>
</svg>
