<?xml version="1.0" encoding="utf-8"?>
<!-- Generator: Adobe Illustrator 15.0.0, SVG Export Plug-In . SVG Version: 6.00 Build 0)  -->
<!DOCTYPE svg PUBLIC "-//W3C//DTD SVG 1.1//EN" "http://www.w3.org/Graphics/SVG/1.1/DTD/svg11.dtd">
<svg version="1.1" id="Layer_1" xmlns="http://www.w3.org/2000/svg" xmlns:xlink="http://www.w3.org/1999/xlink" x="0px" y="0px"
	 width="64px" height="64px" viewBox="0 0 64 64" enable-background="new 0 0 64 64" xml:space="preserve">
<g>
	<circle fill="#FFDD67" cx="32" cy="32" r="30"/>
	<g>
		<path fill="#664E27" d="M40.313,48.141c0,4.59-3.719,8.313-8.313,8.313c-4.59,0-8.313-3.723-8.313-8.313
			c0-4.592,3.723-8.313,8.313-8.313C36.594,39.828,40.313,43.549,40.313,48.141z"/>
		<path fill="#FFFFFF" d="M26.184,44.781c1.162-2.008,3.332-3.359,5.816-3.359c2.486,0,4.656,1.35,5.818,3.355L26.184,44.781z"/>
	</g>
	<g>
		<g>
			<g>
				<circle fill="#664E27" cx="43.5" cy="33" r="4.5"/>
			</g>
			<g>
				<circle fill="#664E27" cx="20.5" cy="33" r="4.5"/>
			</g>
		</g>
		<g>
			<path fill="#917524" d="M25.578,17.906c-3.236,2.732-7.524,3.881-11.694,3.133c-0.578-0.113-1.088,2.021-0.385,2.156
				c4.809,0.863,9.756-0.461,13.493-3.615C27.533,19.111,26.021,17.52,25.578,17.906z"/>
			<path fill="#917524" d="M50.113,20.887c-4.168,0.748-8.455-0.4-11.691-3.133c-0.443-0.389-1.955,1.205-1.412,1.674
				c3.732,3.152,8.68,4.479,13.492,3.615C51.205,22.908,50.693,20.773,50.113,20.887z"/>
		</g>
	</g>
	<g>
		<path fill="#65B1EF" d="M62,18.534c0.002,9.377-12.744,9.379-12.744,0c0-6.85,6.373-13.533,6.373-13.533S62,11.687,62,18.534z"/>
	</g>
</g>
</svg>
