<?xml version="1.0" encoding="utf-8"?>
<!-- Generator: Adobe Illustrator 15.0.0, SVG Export Plug-In . SVG Version: 6.00 Build 0)  -->
<!DOCTYPE svg PUBLIC "-//W3C//DTD SVG 1.1//EN" "http://www.w3.org/Graphics/SVG/1.1/DTD/svg11.dtd">
<svg version="1.1" id="Layer_1" xmlns="http://www.w3.org/2000/svg" xmlns:xlink="http://www.w3.org/1999/xlink" x="0px" y="0px"
	 width="64px" height="64px" viewBox="0 0 64 64" enable-background="new 0 0 64 64" xml:space="preserve">
<g>
	<g>
		<path fill="#FFDD67" d="M32,2C15.432,2,2,15.431,2,32c0,4.865,15.729,22.858,23.019,27.551C26.967,60.805,29.683,62,32,62
			s5.033-1.195,6.981-2.449C46.271,54.858,62,36.865,62,32C62,15.431,48.568,2,32,2z"/>
	</g>
	<g>
		<circle fill="#FFFFFF" cx="20.5" cy="24" r="9"/>
		<circle fill="#664E27" cx="20.5" cy="24" r="2.5"/>
	</g>
	<g>
		<circle fill="#FFFFFF" cx="43.5" cy="24" r="9"/>
		<circle fill="#664E27" cx="43.5" cy="24" r="2.5"/>
	</g>
	<g>
		<ellipse fill="#664E27" cx="32" cy="46.062" rx="8.333" ry="12.02"/>
		<g>
			<path fill="#4C3526" d="M33.966,41.359c-0.618-0.018-1.568,0.605-1.221,2.252c0.176,0.83,1.271,1.837,1.271,3.18
				c0,2.727-4.031,2.727-4.031,0c0-1.343,1.094-2.35,1.27-3.18c0.348-1.646-0.604-2.27-1.221-2.252
				c-1.678,0.047-4.429,1.997-4.429,5.297c0,3.71,2.864,6.717,6.395,6.717c3.529,0,6.394-3.007,6.394-6.717
				C38.394,43.356,35.641,41.406,33.966,41.359z"/>
		</g>
		<g>
			<path fill="#FF717F" d="M32,51.857c-3.864,0-4.965,1.133-4.965,1.133c0.991,2.138,2.845,3.579,4.965,3.579
				s3.972-1.44,4.964-3.579C36.964,52.99,35.863,51.857,32,51.857z"/>
		</g>
	</g>
	<path fill="#917524" d="M22.682,7.701c-2.418,3.477-6.262,5.695-10.483,6.052c-0.588,0.041-0.527,2.234,0.187,2.183
		c4.868-0.41,9.305-2.97,12.097-6.984C24.883,8.358,23.01,7.213,22.682,7.701z"/>
	<path fill="#917524" d="M51.8,13.601c-4.22-0.356-8.063-2.575-10.482-6.053c-0.327-0.49-2.2,0.658-1.797,1.252
		c2.789,4.011,7.225,6.572,12.097,6.983C52.331,15.835,52.389,13.641,51.8,13.601z"/>
	<path fill="#D8A941" d="M48.333,45.703c4.044-2.893,4.738-8.977,9.928-10.904c6.475-2.404,2.727,1.191,2.016,6.791
		c-0.982,7.747-6.912,12.19-7.776,18.547C52.437,60.6,52.5,62,52.5,62H38.794c0,0,0.133-2.714,0-3.61
		C38.372,55.554,40.463,51.334,48.333,45.703z"/>
	<path fill="#D8A941" d="M15.667,45.703c-4.044-2.893-4.738-8.977-9.929-10.904c-6.474-2.404-2.726,1.191-2.015,6.791
		c0.981,7.747,6.912,12.19,7.776,18.547c0.063,0.463,0,1.863,0,1.863h13.706c0,0-0.133-2.714,0-3.61
		C25.628,55.554,23.537,51.334,15.667,45.703z"/>
</g>
</svg>
