<?xml version="1.0" encoding="utf-8"?>
<!-- Generator: Adobe Illustrator 15.0.0, SVG Export Plug-In . SVG Version: 6.00 Build 0)  -->
<!DOCTYPE svg PUBLIC "-//W3C//DTD SVG 1.1//EN" "http://www.w3.org/Graphics/SVG/1.1/DTD/svg11.dtd">
<svg version="1.1" id="Layer_1" xmlns="http://www.w3.org/2000/svg" xmlns:xlink="http://www.w3.org/1999/xlink" x="0px" y="0px"
	 width="64px" height="64px" viewBox="0 0 64 64" enable-background="new 0 0 64 64" xml:space="preserve">
<g>
	<g>
		<g>
			<path fill="#DADEE0" d="M60.861,2c1.797,13.431,1.51,24.233-1.166,31.132L34.889,14.677C39.816,9.584,49.818,3.459,60.861,2z"/>
			<path fill="#F7A4A4" d="M57.738,32.177L47.484,18.924c0,0,1.938-7.285,11.615-12.438C62,18.142,57.738,32.177,57.738,32.177z"/>
			<path fill="#F78D8D" d="M53.836,29.161l-6.352-8.209c0,0,2.574-5.024,8.568-8.216C52.555,20.299,53.836,29.161,53.836,29.161z"/>
		</g>
		<g>
			<path fill="#DADEE0" d="M3.139,2c-1.797,13.431-1.51,24.233,1.166,31.132l24.809-18.455C24.186,9.584,14.182,3.459,3.139,2z"/>
			<path fill="#F7A4A4" d="M6.262,32.177l10.256-13.253c0,0-1.939-7.285-11.617-12.438C2,18.142,6.262,32.177,6.262,32.177z"/>
			<path fill="#F78D8D" d="M10.166,29.161l6.352-8.209c0,0-2.574-5.024-8.568-8.216C11.447,20.299,10.166,29.161,10.166,29.161z"/>
		</g>
		<g>
			<path fill="#DADEE0" d="M58.195,50.754c0.846-0.881,1.416-1.633,1.662-2.162C61.486,45.949,62,43.25,62,43.25l-2.002,0.424
				c0,0,2.318-2.463,1.691-7.793l-1.945,2.102c0,0,1.945-5.41,0.254-10.4l-2.152,1.588c0,0,0.654-2.031,0.053-3.422l-0.932,0.729
				c0,0,1.689-4.665,0.154-6.625c-0.855,2.827-1.871,2.784-1.871,2.784s1.242-2.116,0.273-3.003
				c-0.986,1.594-1.807,0.558-1.768,0.079c0.055-0.637-0.193-1.534,2.703-1.957c-2.314-1.414-5.055-0.43-5.055-0.43
				s0.098-1.489,2.123-1.43c-1.871-1.593-4.48-0.648-4.48-0.648l0.006,0.017c-4.111-3.11-9.645-4.902-17.053-4.902
				s-12.941,1.792-17.053,4.902l0.006-0.017c0,0-2.609-0.944-4.48,0.648c2.027-0.06,2.125,1.43,2.125,1.43s-2.742-0.984-5.057,0.43
				c2.898,0.423,2.65,1.32,2.703,1.957c0.039,0.479-0.779,1.515-1.768-0.079c-0.967,0.887,0.275,3.003,0.275,3.003
				s-1.016,0.043-1.871-2.784c-1.537,1.96,0.154,6.625,0.154,6.625l-0.932-0.729c-0.602,1.391,0.053,3.422,0.053,3.422l-2.154-1.588
				c-1.691,4.99,0.254,10.4,0.254,10.4l-1.945-2.102c-0.625,5.33,1.691,7.793,1.691,7.793L2,43.25c0,0,0.514,2.694,2.141,5.339
				c0.25,0.534,0.834,1.304,1.699,2.202c0.023,0.024,0.043,0.049,0.066,0.072v-0.004C9.973,55.042,20.119,62,32,62
				c11.883,0,22.031-6.96,26.096-11.142v0.005C58.131,50.827,58.162,50.791,58.195,50.754z"/>
			<g>
				<path fill="#94989B" d="M37.686,10.763c-1.762-0.258-3.65-0.401-5.686-0.401s-3.926,0.144-5.689,0.401
					c0.736,3.856,2.75,6.583,5.688,11.585C34.979,17.269,36.963,14.592,37.686,10.763z"/>
				<path fill="#94989B" d="M46.813,13.785c-1.908-1.092-4.072-1.944-6.523-2.523c0.59,2.29,1.857,3.921,3.627,6.935
					C45.154,16.086,46.133,15.534,46.813,13.785z"/>
				<path fill="#94989B" d="M23.709,11.263c-2.451,0.579-4.615,1.431-6.521,2.522c0.686,1.765,1.666,2.323,2.891,4.411
					C21.873,15.139,23.127,13.532,23.709,11.263z"/>
			</g>
		</g>
		<g>
			<g>
				<path fill="#4C5359" d="M36.041,38.767c-0.811-0.945-3.299-1.018-4.043-1.018c-0.742,0-3.232,0.072-4.043,1.018
					c-0.576,0.674-0.131,2.344,1.406,3.785c0.969,0.91,1.895,1.197,2.637,1.197c0.744,0,1.67-0.287,2.639-1.197
					C36.172,41.11,36.619,39.44,36.041,38.767z"/>
			</g>
			<g>
				<g>
					<path fill="#4C5359" d="M43.744,45.861c0,4.74-3.9,10.275-11.744,10.275s-11.742-5.535-11.742-10.275c0,0,3.898,0,11.742,0
						S43.744,45.861,43.744,45.861z"/>
				</g>
				<g>
					<path fill="#FF717F" d="M32.002,51.377c-4.539,0-5.834,3.345-5.834,3.345c0.688,1.49,10.98,1.489,11.666,0
						C37.834,54.722,36.539,51.377,32.002,51.377z"/>
				</g>
				<g>
					<path fill="#4C5359" d="M32,56.87c-8.104,0-12.477-5.671-12.477-11.009v-0.733h24.953v0.733
						C44.477,51.199,40.104,56.87,32,56.87z M21.023,46.595c0.385,4.396,4.205,8.808,10.977,8.808
						c6.773,0,10.592-4.412,10.977-8.808H21.023z"/>
				</g>
			</g>
			<g>
				<g>
					<path fill="#FFFFFF" d="M24.299,30.84c0,0-0.484-4.569-4.508-6.034c-4.539-1.651-7.637,2.386-8.477,4.694
						c-1.24,3.407,0.316,7.133,0.777,7.992c0.307,0.566,3.66,3.241,11.221,0.709C23.313,38.201,25.193,34.412,24.299,30.84z"/>
					<path fill="#B2B6B8" d="M24.299,30.84c-0.404-1.559-1.133-3.039-2.254-4.094c-0.547-0.535-1.18-0.962-1.869-1.245
						c-0.346-0.146-0.695-0.255-1.074-0.347c-0.338-0.083-0.719-0.125-1.076-0.139c-1.451-0.041-2.832,0.578-3.896,1.6
						c-1.061,1.008-1.938,2.329-2.289,3.713c-0.383,1.406-0.313,2.951,0.021,4.435c0.16,0.743,0.391,1.487,0.688,2.173l0.113,0.243
						c-0.031-0.054,0.014,0.022,0.018,0.026c0.002,0,0-0.005-0.002-0.006l0.055,0.063c0.098,0.103,0.23,0.209,0.369,0.312
						c0.283,0.203,0.602,0.384,0.941,0.532c1.365,0.595,2.949,0.792,4.518,0.751c1.586-0.006,3.168-0.31,4.752-0.655
						c-1.479,0.668-3.057,1.128-4.691,1.388c-1.635,0.219-3.361,0.197-5.012-0.396c-0.412-0.147-0.814-0.334-1.207-0.574
						c-0.195-0.124-0.385-0.262-0.576-0.441c-0.049-0.048-0.092-0.091-0.15-0.159l-0.098-0.124l-0.063-0.102l-0.156-0.299
						c-0.379-0.78-0.662-1.574-0.879-2.4c-0.416-1.645-0.529-3.423-0.09-5.15c0.49-1.739,1.49-3.206,2.791-4.381
						c1.305-1.15,3.121-1.924,4.922-1.71c0.445,0.051,0.867,0.126,1.307,0.269c0.396,0.126,0.811,0.285,1.189,0.498
						c0.768,0.412,1.447,0.973,1.984,1.634C23.633,27.597,24.223,29.218,24.299,30.84z"/>
				</g>
			</g>
			<g>
				<g>
					<path fill="#FFFFFF" d="M39.699,30.84c0,0,0.484-4.568,4.508-6.034c4.539-1.651,7.637,2.387,8.477,4.694
						c1.24,3.407-0.316,7.133-0.777,7.992c-0.307,0.566-3.66,3.241-11.221,0.709C40.686,38.201,38.805,34.412,39.699,30.84z"/>
					<path fill="#B2B6B8" d="M39.699,30.84c0.076-1.622,0.666-3.243,1.715-4.587c0.537-0.661,1.219-1.222,1.984-1.634
						c0.379-0.213,0.793-0.372,1.191-0.498c0.438-0.143,0.859-0.218,1.307-0.269c1.799-0.214,3.615,0.56,4.92,1.71
						c1.301,1.175,2.301,2.642,2.791,4.382c0.439,1.728,0.326,3.505-0.088,5.15c-0.219,0.825-0.502,1.619-0.881,2.399l-0.156,0.299
						l-0.063,0.102l-0.098,0.124c-0.059,0.068-0.102,0.111-0.15,0.159c-0.191,0.18-0.381,0.317-0.576,0.441
						c-0.393,0.24-0.795,0.427-1.207,0.574c-1.65,0.593-3.377,0.614-5.012,0.396c-1.635-0.26-3.213-0.72-4.691-1.388
						c1.584,0.346,3.166,0.649,4.752,0.655c1.568,0.041,3.152-0.156,4.518-0.751c0.34-0.148,0.658-0.329,0.941-0.532
						c0.139-0.103,0.271-0.209,0.369-0.312l0.055-0.063c-0.002,0.001-0.004,0.006-0.002,0.007c0.004-0.005,0.049-0.081,0.018-0.027
						l0.113-0.243c0.297-0.686,0.527-1.43,0.688-2.173c0.334-1.483,0.404-3.027,0.021-4.435c-0.352-1.384-1.229-2.705-2.289-3.713
						c-1.064-1.021-2.445-1.641-3.896-1.6c-0.357,0.014-0.738,0.056-1.076,0.139c-0.377,0.092-0.729,0.2-1.072,0.347
						c-0.691,0.283-1.324,0.71-1.871,1.245C40.832,27.802,40.104,29.281,39.699,30.84z"/>
				</g>
			</g>
		</g>
	</g>
	<ellipse fill="#4C5359" cx="44" cy="32.5" rx="4" ry="4.5"/>
	<ellipse fill="#4C5359" cx="20" cy="32.5" rx="4" ry="4.5"/>
</g>
</svg>
