<?xml version="1.0" encoding="utf-8"?>
<!-- Generator: Adobe Illustrator 15.0.0, SVG Export Plug-In . SVG Version: 6.00 Build 0)  -->
<!DOCTYPE svg PUBLIC "-//W3C//DTD SVG 1.1//EN" "http://www.w3.org/Graphics/SVG/1.1/DTD/svg11.dtd">
<svg version="1.1" id="Layer_1" xmlns="http://www.w3.org/2000/svg" xmlns:xlink="http://www.w3.org/1999/xlink" x="0px" y="0px"
	 width="64px" height="64px" viewBox="0 0 64 64" enable-background="new 0 0 64 64" xml:space="preserve">
<g>
	<circle fill="#FFB0AE" enable-background="new    " cx="32" cy="32" r="30"/>
	<circle fill="#FF717F" enable-background="new    " cx="52.811" cy="37.137" r="8"/>
	<circle fill="#FF717F" enable-background="new    " cx="11.19" cy="37.137" r="8"/>
	<path fill="#7C4545" d="M54.645,20.627c-2.713-3.253-6.736-5.129-10.973-5.116c-0.588,0.011-0.721-2.18-0.004-2.19
		c4.885-0.015,9.527,2.148,12.66,5.903C56.779,19.779,55.014,21.084,54.645,20.627z"/>
	<path fill="#7C4545" d="M20.326,15.36c-4.234-0.013-8.257,1.863-10.972,5.116c-0.369,0.46-2.133-0.848-1.681-1.403
		c3.13-3.753,7.772-5.918,12.659-5.903C21.049,13.181,20.914,15.372,20.326,15.36z"/>
	<circle fill="#6D3737" enable-background="new    " cx="32" cy="49.47" r="4.5"/>
	<g>
		<g>
			<path fill="#FFFFFF" d="M29.5,29.137c0,4.971-4.031,9-9,9c-4.97,0-9-4.029-9-9c0-4.968,4.029-9,9-9
				C25.469,20.137,29.5,24.169,29.5,29.137z"/>
			<circle fill="#6D3737" enable-background="new    " cx="20.5" cy="29.137" r="4.5"/>
		</g>
		<g>
			<path fill="#FFFFFF" d="M52.5,29.137c0,4.971-4.031,9-9,9c-4.971,0-9-4.029-9-9c0-4.968,4.029-9,9-9
				C48.469,20.137,52.5,24.169,52.5,29.137z"/>
			<circle fill="#6D3737" enable-background="new    " cx="43.5" cy="29.137" r="4.5"/>
		</g>
	</g>
</g>
</svg>
