<?xml version="1.0" encoding="utf-8"?>
<!-- Generator: Adobe Illustrator 15.0.0, SVG Export Plug-In . SVG Version: 6.00 Build 0)  -->
<!DOCTYPE svg PUBLIC "-//W3C//DTD SVG 1.1//EN" "http://www.w3.org/Graphics/SVG/1.1/DTD/svg11.dtd">
<svg version="1.1" id="Layer_1" xmlns="http://www.w3.org/2000/svg" xmlns:xlink="http://www.w3.org/1999/xlink" x="0px" y="0px"
	 width="64px" height="64px" viewBox="0 0 64 64" enable-background="new 0 0 64 64" xml:space="preserve">
<g>
	<circle fill="#FFDD67" cx="32" cy="32" r="30"/>
	<g>
		<ellipse fill="#664E27" cx="32.001" cy="47.166" rx="7.64" ry="9.666"/>
		<path fill="#FFFFFF" d="M26.654,43.26c1.068-2.336,3.063-3.906,5.348-3.906s4.279,1.57,5.346,3.902L26.654,43.26z"/>
	</g>
	<g>
		<g>
			<path fill="#664E27" d="M28.611,19.846L16.459,32c-0.77,0.768-3.555-2.016-2.785-2.785l12.154-12.152
				C26.596,16.293,29.381,19.078,28.611,19.846z"/>
			<path fill="#664E27" d="M25.826,32L13.672,19.846c-0.768-0.768,2.018-3.553,2.785-2.783l12.154,12.152
				C29.379,29.984,26.596,32.768,25.826,32z"/>
		</g>
		<g>
			<path fill="#664E27" d="M50.33,19.846L38.176,32c-0.77,0.768-3.553-2.016-2.783-2.785l12.152-12.152
				C48.314,16.293,51.098,19.078,50.33,19.846z"/>
			<path fill="#664E27" d="M47.545,32L35.393,19.846c-0.77-0.768,2.014-3.553,2.783-2.783l12.152,12.152
				C51.098,29.984,48.313,32.768,47.545,32z"/>
		</g>
	</g>
</g>
</svg>
