<?xml version="1.0" encoding="utf-8"?>
<!-- Generator: Adobe Illustrator 15.0.0, SVG Export Plug-In . SVG Version: 6.00 Build 0)  -->
<!DOCTYPE svg PUBLIC "-//W3C//DTD SVG 1.1//EN" "http://www.w3.org/Graphics/SVG/1.1/DTD/svg11.dtd">
<svg version="1.1" id="Layer_1" xmlns="http://www.w3.org/2000/svg" xmlns:xlink="http://www.w3.org/1999/xlink" x="0px" y="0px"
	 width="64px" height="64px" viewBox="0 0 64 64" enable-background="new 0 0 64 64" xml:space="preserve">
<g>
	<g>
		<path fill="#DADEE0" d="M60.861,2c1.797,13.431,1.51,24.233-1.166,31.132L34.888,14.677C39.815,9.584,49.818,3.459,60.861,2z"/>
		<path fill="#F7A4A4" d="M57.738,32.177L47.483,18.924c0,0,1.938-7.285,11.616-12.438C62,18.142,57.738,32.177,57.738,32.177z"/>
		<path fill="#F78D8D" d="M53.835,29.161l-6.352-8.209c0,0,2.574-5.024,8.568-8.216C52.554,20.299,53.835,29.161,53.835,29.161z"/>
	</g>
	<g>
		<path fill="#DADEE0" d="M3.139,2c-1.797,13.431-1.51,24.233,1.166,31.132l24.808-18.455C24.185,9.584,14.182,3.459,3.139,2z"/>
		<path fill="#F7A4A4" d="M6.262,32.177l10.255-13.253c0,0-1.938-7.285-11.616-12.438C2,18.142,6.262,32.177,6.262,32.177z"/>
		<path fill="#F78D8D" d="M10.165,29.161l6.352-8.209c0,0-2.574-5.024-8.568-8.216C11.446,20.299,10.165,29.161,10.165,29.161z"/>
	</g>
	<path fill="#DADEE0" d="M58.195,50.754c0.845-0.881,1.415-1.633,1.661-2.162C61.486,45.949,62,43.25,62,43.25l-2.002,0.424
		c0,0,2.318-2.463,1.691-7.793l-1.945,2.102c0,0,1.945-5.41,0.254-10.4l-2.152,1.588c0,0,0.654-2.031,0.053-3.422l-0.932,0.729
		c0,0,1.689-4.665,0.154-6.625c-0.855,2.827-1.871,2.784-1.871,2.784s1.242-2.116,0.273-3.003c-0.986,1.594-1.807,0.558-1.768,0.079
		c0.055-0.637-0.193-1.534,2.703-1.957c-2.314-1.414-5.055-0.43-5.055-0.43s0.098-1.489,2.123-1.43
		c-1.871-1.593-4.48-0.648-4.48-0.648l0.006,0.017c-4.111-3.11-9.646-4.902-17.053-4.902c-7.408,0-12.942,1.792-17.053,4.902
		l0.006-0.017c0,0-2.609-0.944-4.48,0.648c2.027-0.06,2.125,1.43,2.125,1.43s-2.742-0.984-5.057,0.43
		c2.898,0.423,2.65,1.32,2.703,1.957c0.039,0.479-0.779,1.515-1.768-0.079c-0.967,0.887,0.275,3.003,0.275,3.003
		s-1.016,0.043-1.871-2.784c-1.537,1.96,0.154,6.625,0.154,6.625l-0.932-0.729c-0.602,1.391,0.053,3.422,0.053,3.422l-2.154-1.588
		c-1.691,4.99,0.254,10.4,0.254,10.4l-1.945-2.102c-0.625,5.33,1.691,7.793,1.691,7.793L2,43.25c0,0,0.513,2.694,2.141,5.339
		c0.249,0.534,0.833,1.304,1.698,2.202c0.023,0.024,0.044,0.049,0.067,0.072v-0.004C9.972,55.042,20.119,62,32,62
		c11.882,0,22.03-6.96,26.095-11.142l0.001,0.005C58.13,50.827,58.161,50.791,58.195,50.754z"/>
	<g>
		<path fill="#4C5359" d="M36.041,38.767c-0.811-0.945-3.299-1.018-4.043-1.018c-0.742,0-3.232,0.072-4.043,1.018
			c-0.576,0.674-0.131,2.344,1.406,3.785c0.969,0.91,1.895,1.197,2.637,1.197c0.744,0,1.67-0.287,2.639-1.197
			C36.172,41.11,36.619,39.44,36.041,38.767z"/>
	</g>
	<g>
		<g>
			<path fill="#4C5359" d="M43.743,45.861c0,4.74-3.9,10.275-11.743,10.275c-7.845,0-11.743-5.535-11.743-10.275
				c0,0,3.898,0,11.743,0C39.843,45.861,43.743,45.861,43.743,45.861z"/>
		</g>
		<g>
			<path fill="#FF717F" d="M32.001,51.377c-4.539,0-5.834,3.345-5.834,3.345c0.688,1.49,10.98,1.489,11.666,0
				C37.833,54.722,36.538,51.377,32.001,51.377z"/>
		</g>
		<g>
			<path fill="#4C5359" d="M32,56.87c-8.104,0-12.477-5.671-12.477-11.009v-0.733h24.953v0.733C44.477,51.199,40.104,56.87,32,56.87
				z M21.022,46.595c0.385,4.396,4.205,8.808,10.978,8.808s10.592-4.412,10.977-8.808H21.022z"/>
		</g>
	</g>
	<g>
		<path fill="#94989B" d="M37.686,10.763c-1.762-0.258-3.65-0.401-5.686-0.401s-3.926,0.144-5.689,0.401
			c0.736,3.856,2.75,6.583,5.688,11.585C34.979,17.269,36.963,14.592,37.686,10.763z"/>
		<path fill="#94989B" d="M46.813,13.785c-1.908-1.092-4.072-1.944-6.523-2.523c0.59,2.29,1.857,3.921,3.627,6.935
			C45.154,16.086,46.133,15.534,46.813,13.785z"/>
		<path fill="#94989B" d="M23.709,11.263c-2.451,0.579-4.615,1.431-6.521,2.522c0.686,1.765,1.666,2.323,2.891,4.411
			C21.873,15.139,23.127,13.532,23.709,11.263z"/>
	</g>
	<g>
		<path fill="#F46767" d="M60.864,25.976c-0.416-2.124-1.821-3.911-4.002-4.443c-2.381-0.581-4.557,0.255-6.668,2.163
			c-1.185-2.904-2.993-5.061-5.846-6.166c-2.923-1.139-5.763-0.371-7.555,1.648c-1.862,2.104-2.603,5.342-0.609,9.58
			C38.051,32.725,46.417,40.768,46.658,41c0.326-0.181,9.643-5.375,11.923-7.928C60.814,30.576,61.277,28.092,60.864,25.976z"/>
		<path fill="#F46767" d="M27.207,19.178c-1.79-2.021-4.632-2.787-7.554-1.648c-2.854,1.105-4.663,3.262-5.849,6.166
			c-2.112-1.91-4.289-2.743-6.668-2.162c-2.179,0.531-3.587,2.318-4.001,4.442c-0.412,2.114,0.051,4.601,2.281,7.098
			C7.7,35.624,17.018,40.819,17.343,41c0.24-0.232,8.606-8.275,10.474-12.242C29.809,24.521,29.067,21.281,27.207,19.178z"/>
	</g>
</g>
</svg>
