<?xml version="1.0" encoding="utf-8"?>
<!-- Generator: Adobe Illustrator 15.0.0, SVG Export Plug-In . SVG Version: 6.00 Build 0)  -->
<!DOCTYPE svg PUBLIC "-//W3C//DTD SVG 1.1//EN" "http://www.w3.org/Graphics/SVG/1.1/DTD/svg11.dtd">
<svg version="1.1" id="Layer_1" xmlns="http://www.w3.org/2000/svg" xmlns:xlink="http://www.w3.org/1999/xlink" x="0px" y="0px"
	 width="64px" height="64px" viewBox="0 0 64 64" enable-background="new 0 0 64 64" xml:space="preserve">
<g>
	<g>
		<path fill="#DADEE0" d="M60.861,2c1.797,13.431,1.51,24.233-1.166,31.132L34.887,14.677C39.814,9.584,49.818,3.459,60.861,2z"/>
		<path fill="#F7A4A4" d="M57.738,32.177L47.482,18.924c0,0,1.939-7.285,11.617-12.438C62,18.142,57.738,32.177,57.738,32.177z"/>
		<path fill="#F78D8D" d="M53.834,29.161l-6.352-8.209c0,0,2.574-5.024,8.568-8.216C52.553,20.299,53.834,29.161,53.834,29.161z"/>
	</g>
	<g>
		<path fill="#DADEE0" d="M3.139,2c-1.797,13.431-1.51,24.233,1.166,31.132l24.807-18.455C24.184,9.584,14.182,3.459,3.139,2z"/>
		<path fill="#F7A4A4" d="M6.262,32.177l10.255-13.253c0,0-1.938-7.285-11.616-12.438C2,18.142,6.262,32.177,6.262,32.177z"/>
		<path fill="#F78D8D" d="M10.165,29.161l6.352-8.209c0,0-2.574-5.024-8.568-8.216C11.446,20.299,10.165,29.161,10.165,29.161z"/>
	</g>
	<g>
		<path fill="#DADEE0" d="M58.195,50.754c0.844-0.881,1.414-1.633,1.66-2.162C61.486,45.949,62,43.25,62,43.25l-2.002,0.424
			c0,0,2.318-2.463,1.691-7.793l-1.945,2.102c0,0,1.945-5.41,0.254-10.4l-2.152,1.588c0,0,0.654-2.031,0.053-3.422l-0.932,0.729
			c0,0,1.689-4.665,0.154-6.625c-0.855,2.827-1.871,2.784-1.871,2.784s1.242-2.116,0.273-3.003
			c-0.986,1.594-1.807,0.558-1.768,0.079c0.055-0.637-0.193-1.534,2.703-1.957c-2.314-1.414-5.055-0.43-5.055-0.43
			s0.098-1.489,2.123-1.43c-1.871-1.593-4.48-0.648-4.48-0.648l0.006,0.017c-4.111-3.11-9.646-4.902-17.053-4.902
			c-7.408,0-12.942,1.792-17.053,4.902l0.006-0.017c0,0-2.609-0.944-4.48,0.648c2.027-0.06,2.125,1.43,2.125,1.43
			s-2.742-0.984-5.057,0.43c2.898,0.423,2.65,1.32,2.703,1.957c0.039,0.479-0.779,1.515-1.768-0.079
			c-0.967,0.887,0.275,3.003,0.275,3.003s-1.016,0.043-1.871-2.784c-1.537,1.96,0.154,6.625,0.154,6.625l-0.932-0.729
			c-0.602,1.391,0.053,3.422,0.053,3.422l-2.154-1.588c-1.691,4.99,0.254,10.4,0.254,10.4l-1.945-2.102
			c-0.625,5.33,1.691,7.793,1.691,7.793L2,43.25c0,0,0.513,2.694,2.141,5.339c0.249,0.534,0.833,1.304,1.698,2.202
			c0.023,0.024,0.044,0.049,0.067,0.072v-0.004C9.972,55.042,20.119,62,32,62s22.029-6.96,26.094-11.142l0.002,0.005
			C58.129,50.827,58.16,50.791,58.195,50.754z"/>
		<g>
			<path fill="#94989B" d="M37.686,10.763c-1.762-0.258-3.65-0.401-5.686-0.401s-3.926,0.144-5.689,0.401
				c0.736,3.856,2.75,6.583,5.688,11.585C34.979,17.269,36.963,14.592,37.686,10.763z"/>
			<path fill="#94989B" d="M46.813,13.785c-1.908-1.092-4.072-1.944-6.523-2.523c0.59,2.29,1.857,3.921,3.627,6.935
				C45.154,16.086,46.133,15.534,46.813,13.785z"/>
			<path fill="#94989B" d="M23.709,11.263c-2.451,0.579-4.615,1.431-6.521,2.522c0.686,1.765,1.666,2.323,2.891,4.411
				C21.873,15.139,23.127,13.532,23.709,11.263z"/>
		</g>
	</g>
	<g>
		<path fill="#4C5359" d="M36.041,38.767c-0.811-0.945-3.299-1.018-4.043-1.018c-0.742,0-3.232,0.072-4.043,1.018
			c-0.576,0.674-0.131,2.344,1.406,3.785c0.969,0.91,1.895,1.197,2.637,1.197c0.744,0,1.67-0.287,2.639-1.197
			C36.172,41.11,36.619,39.44,36.041,38.767z"/>
	</g>
	<g>
		<g>
			<path fill="#FFFFFF" d="M24.299,30.84c0,0-0.484-3.569-4.51-5.034c-4.538-1.651-7.635,1.386-8.476,3.694
				c-1.24,3.407,0.316,7.133,0.778,7.992c0.306,0.566,3.659,3.241,11.219,0.709C23.311,38.201,25.193,34.412,24.299,30.84z"/>
			<path fill="#B2B6B8" d="M24.299,30.84c0,0-5.917-4.811-6.273-4.824c-1.451-0.041-2.832-0.422-3.896,0.6
				c-1.061,1.008-1.938,2.329-2.29,3.713c-0.383,1.406-0.313,2.951,0.021,4.435c0.16,0.743,0.392,1.487,0.688,2.173l0.113,0.243
				c-0.032-0.054,0.014,0.022,0.017,0.026c0.002,0,0-0.005-0.002-0.006l0.055,0.063c0.098,0.103,0.231,0.209,0.37,0.312
				c0.282,0.203,0.602,0.384,0.94,0.532c1.365,0.595,2.949,0.792,4.519,0.751c1.584-0.006,3.168-0.31,4.75-0.655
				c-1.479,0.668-3.055,1.128-4.69,1.388c-1.634,0.219-3.361,0.197-5.012-0.396c-0.411-0.147-0.814-0.334-1.207-0.574
				c-0.195-0.124-0.384-0.262-0.575-0.441c-0.05-0.048-0.092-0.091-0.151-0.159l-0.097-0.124l-0.063-0.102l-0.156-0.299
				c-0.379-0.78-0.661-1.574-0.879-2.4c-0.415-1.645-0.529-3.423-0.09-5.15c0.491-1.739,1.491-3.206,2.792-4.381
				c1.304-1.15,3.121-0.924,4.921-0.71C18.549,24.903,24.299,30.84,24.299,30.84z"/>
		</g>
	</g>
	<g>
		<g>
			<path fill="#FFFFFF" d="M39.697,30.84c0,0,0.484-3.568,4.51-5.034c4.539-1.651,7.635,1.387,8.477,3.694
				c1.24,3.407-0.316,7.133-0.779,7.992c-0.305,0.566-3.658,3.241-11.219,0.709C40.686,38.201,38.803,34.412,39.697,30.84z"/>
			<path fill="#B2B6B8" d="M39.697,30.84c0,0,5.75-5.937,6.197-5.987c1.801-0.214,3.617-0.44,4.92,0.71
				c1.301,1.175,2.301,2.642,2.793,4.382c0.438,1.728,0.324,3.505-0.09,5.15c-0.219,0.825-0.5,1.619-0.881,2.399l-0.154,0.299
				l-0.064,0.102l-0.096,0.124c-0.061,0.068-0.102,0.111-0.152,0.159c-0.191,0.18-0.379,0.317-0.576,0.441
				c-0.391,0.24-0.795,0.427-1.205,0.574c-1.65,0.593-3.379,0.614-5.014,0.396c-1.635-0.26-3.211-0.72-4.689-1.388
				c1.582,0.346,3.166,0.649,4.75,0.655c1.57,0.041,3.152-0.156,4.52-0.751c0.338-0.148,0.658-0.329,0.939-0.532
				c0.139-0.103,0.273-0.209,0.371-0.312l0.055-0.063c-0.002,0.001-0.004,0.006-0.002,0.007c0.002-0.005,0.049-0.081,0.016-0.027
				l0.113-0.243c0.297-0.686,0.529-1.43,0.689-2.173c0.334-1.483,0.404-3.027,0.021-4.435c-0.354-1.384-1.23-2.705-2.291-3.713
				c-1.064-1.021-2.445-0.641-3.896-0.6C45.615,26.029,39.697,30.84,39.697,30.84z"/>
		</g>
	</g>
	<ellipse fill="#4C5359" cx="44" cy="32.5" rx="4" ry="4.5"/>
	<ellipse fill="#4C5359" cx="20" cy="32.5" rx="4" ry="4.5"/>
	<g>
		<g>
			<g>
				<path fill="#4C5359" d="M55.893,24.525c-1.871,0.182-3.539,0.459-5.154,0.891c-1.609,0.422-3.145,0.982-4.621,1.668
					c-1.484,0.689-2.891,1.488-4.25,2.447c-1.365,0.957-2.645,2.057-3.975,3.387c0.203-1.885,1.127-3.656,2.369-5.115
					c1.248-1.461,2.852-2.641,4.596-3.441c1.75-0.811,3.67-1.262,5.59-1.279C52.359,23.074,54.307,23.49,55.893,24.525z"/>
			</g>
		</g>
		<g>
			<g>
				<path fill="#4C5359" d="M8.104,24.525c1.586-1.035,3.531-1.451,5.443-1.443c1.922,0.018,3.842,0.469,5.592,1.279
					c1.744,0.801,3.346,1.98,4.594,3.441c1.242,1.461,2.168,3.23,2.371,5.115c-1.33-1.33-2.611-2.43-3.975-3.387
					c-1.361-0.959-2.768-1.758-4.25-2.449c-1.479-0.684-3.014-1.244-4.623-1.666C11.643,24.984,9.973,24.707,8.104,24.525z"/>
			</g>
		</g>
	</g>
	<path fill="#4C5359" d="M22.18,48.546c2.229,0.678,4.283,0.92,6.328,0.914c2.035-0.002,4.023-0.273,5.975-0.74
		c1.945-0.479,3.838-1.145,5.652-2.07c1.816-0.932,3.535-2.08,5.213-3.697c-0.318,2.346-1.771,4.48-3.584,6.059
		c-1.828,1.594-4.076,2.691-6.426,3.258c-2.352,0.563-4.848,0.613-7.203,0.029C25.801,51.72,23.537,50.485,22.18,48.546z"/>
</g>
</svg>
