<?xml version="1.0" encoding="utf-8"?>
<!-- Generator: Adobe Illustrator 15.0.0, SVG Export Plug-In . SVG Version: 6.00 Build 0)  -->
<!DOCTYPE svg PUBLIC "-//W3C//DTD SVG 1.1//EN" "http://www.w3.org/Graphics/SVG/1.1/DTD/svg11.dtd">
<svg version="1.1" id="Layer_1" xmlns="http://www.w3.org/2000/svg" xmlns:xlink="http://www.w3.org/1999/xlink" x="0px" y="0px"
	 width="64px" height="64px" viewBox="0 0 64 64" enable-background="new 0 0 64 64" xml:space="preserve">
<g>
	<g>
		<path fill="#FFDD67" d="M62,32c0,16.567-10.766,30-30,30C15.431,62,2,48.566,2,32C2,15.431,15.431,2,32,2
			C48.568,2,62,15.431,62,32z"/>
	</g>
	<path fill="#467591" d="M26.824,21.283c-0.213-0.404-0.686-0.557-1.059-0.348l-2.002,1.162l0.668-4.975
		c0.025-0.184-0.012-0.373-0.098-0.539l-0.637-1.207c-0.104-0.193-0.271-0.34-0.471-0.406c-0.199-0.068-0.41-0.045-0.588,0.061
		l-4.941,2.865c-0.176,0.104-0.307,0.275-0.359,0.488c-0.051,0.213-0.021,0.441,0.08,0.637l0.672,1.27
		c0.215,0.406,0.686,0.559,1.057,0.348l1.867-1.082l-0.66,4.881c-0.023,0.184,0.01,0.373,0.098,0.541l0.67,1.268
		c0.182,0.342,0.547,0.508,0.881,0.42c0.061-0.018,0.119-0.039,0.176-0.074l5.035-2.914c0.178-0.107,0.307-0.281,0.359-0.49
		c0.055-0.215,0.025-0.439-0.078-0.635L26.824,21.283z"/>
	<path fill="#467591" d="M40.5,8.066c-0.113-0.188-0.287-0.32-0.488-0.371l-7.87-1.979c-0.416-0.105-0.824,0.168-0.91,0.611
		l-0.379,1.947c-0.043,0.213-0.002,0.436,0.109,0.619c0.113,0.189,0.289,0.32,0.49,0.371l3.614,0.91l-5.471,4.732
		c-0.133,0.115-0.225,0.275-0.26,0.453l-0.379,1.947c-0.041,0.211,0,0.434,0.113,0.623c0.111,0.186,0.287,0.316,0.488,0.367
		l8.016,2.018c0.111,0.027,0.221,0.027,0.328,0.004c0.088-0.018,0.174-0.053,0.252-0.105c0.172-0.115,0.289-0.297,0.33-0.512
		l0.377-1.943c0.086-0.441-0.184-0.887-0.6-0.992l-3.832-0.963l5.563-4.82c0.133-0.111,0.223-0.275,0.258-0.455l0.361-1.842
		C40.652,8.474,40.613,8.251,40.5,8.066z"/>
	<path fill="#467591" d="M54.977,22.416c0.189-0.068,0.342-0.209,0.428-0.389l1.154-2.461c0.178-0.377,0.018-0.83-0.365-1.008
		l-5.834-2.756l10.125-5.033c0.152-0.074,0.275-0.199,0.348-0.354l1.096-2.338c0.178-0.377,0.018-0.828-0.363-1.006l-10.582-5
		c-0.379-0.178-0.83-0.016-1.006,0.361L48.818,4.9c-0.178,0.379-0.018,0.83,0.363,1.008l5.543,2.619l-9.971,4.945
		c-0.152,0.076-0.275,0.201-0.346,0.354l-1.156,2.457c-0.084,0.182-0.094,0.391-0.025,0.58c0.037,0.105,0.1,0.201,0.178,0.279
		c0.061,0.061,0.133,0.111,0.213,0.148l10.781,5.094C54.58,22.472,54.789,22.482,54.977,22.416z"/>
	<path fill="#664E27" d="M49.969,45.17c0.789,1.223,1.057,3.629-0.643,4.725c-1.383,0.889-3.65,0.65-5.416,1.787
		c-1.787,1.154-2.533,3.309-3.928,4.207c-1.918,1.238-3.723-0.162-4.506-1.371c-1.41-2.189,0.689-6.055,4.691-8.637
		C44.17,43.301,48.559,42.982,49.969,45.17z"/>
	<g>
		<path fill="#664E27" d="M38.787,33.986c5.577,4.237,14.086,0.269,14.424-6.727c0.018-0.426-0.678-0.7-1.431-0.824
			c-2.366,4.712-7.573,7.141-12.702,5.924C38.688,33.017,38.451,33.726,38.787,33.986z"/>
		<path fill="#664E27" d="M16.366,44.44c5.577,4.238,14.087,0.27,14.427-6.726c0.016-0.426-0.68-0.701-1.434-0.824
			c-2.365,4.712-7.572,7.14-12.701,5.924C16.268,43.472,16.031,44.18,16.366,44.44z"/>
	</g>
</g>
</svg>
