<?xml version="1.0" encoding="utf-8"?>
<!-- Generator: Adobe Illustrator 15.0.0, SVG Export Plug-In . SVG Version: 6.00 Build 0)  -->
<!DOCTYPE svg PUBLIC "-//W3C//DTD SVG 1.1//EN" "http://www.w3.org/Graphics/SVG/1.1/DTD/svg11.dtd">
<svg version="1.1" id="Layer_1" xmlns="http://www.w3.org/2000/svg" xmlns:xlink="http://www.w3.org/1999/xlink" x="0px" y="0px"
	 width="64px" height="64px" viewBox="0 0 64 64" enable-background="new 0 0 64 64" xml:space="preserve">
<g>
	<circle fill="#FFDD67" cx="32" cy="32" r="30"/>
	<g>
		<path fill="#FFFFFF" d="M18.199,47.434l-8.957,4.102c0.826,0.961,1.707,1.873,2.648,2.725l7.58-3.564L18.199,47.434z"/>
		<path fill="#FFFFFF" d="M17.121,35.121L2.008,31.664C2.008,31.777,2,31.888,2,32.001c0,1.114,0.064,2.211,0.184,3.293
			l14.156,3.238L17.121,35.121z"/>
		<path fill="#FFFFFF" d="M54.758,51.535l-8.957-4.102l-1.271,3.262l7.582,3.564C53.051,53.408,53.932,52.496,54.758,51.535z"/>
		<path fill="#FFFFFF" d="M47.66,38.533l14.156-3.238C61.936,34.213,62,33.115,62,32.001c0-0.113-0.006-0.225-0.008-0.338
			l-15.113,3.458L47.66,38.533z"/>
	</g>
	<path opacity="0.1" d="M49.863,39.873C49.863,50.436,41.865,59,32,59s-17.861-8.564-17.861-19.127
		c0-10.573,10.377-8.54,17.861-8.54C39.486,31.333,49.863,29.3,49.863,39.873z"/>
	<path fill="#FFFFFF" d="M49.502,39.07c0,9.967-7.836,18.047-17.502,18.047s-17.502-8.08-17.502-18.047
		c0-9.975,10.168-8.057,17.502-8.057S49.502,29.095,49.502,39.07z"/>
	<g>
		<path fill="#664E27" d="M27.7,22.912c-4.757-5.142-13.826-2.711-15.375,4.119c-0.091,0.416,0.547,0.807,1.268,1.061
			c3.147-4.229,8.697-5.717,13.537-3.628C27.628,23.884,27.984,23.226,27.7,22.912z"/>
		<path fill="#664E27" d="M51.675,27.031c-1.549-6.83-10.618-9.261-15.374-4.121c-0.287,0.316,0.07,0.975,0.568,1.553
			c4.841-2.088,10.389-0.602,13.536,3.627C51.127,27.836,51.765,27.447,51.675,27.031z"/>
	</g>
</g>
</svg>
