<?xml version="1.0" encoding="utf-8"?>
<!-- Generator: Adobe Illustrator 15.0.0, SVG Export Plug-In . SVG Version: 6.00 Build 0)  -->
<!DOCTYPE svg PUBLIC "-//W3C//DTD SVG 1.1//EN" "http://www.w3.org/Graphics/SVG/1.1/DTD/svg11.dtd">
<svg version="1.1" id="Layer_1" xmlns="http://www.w3.org/2000/svg" xmlns:xlink="http://www.w3.org/1999/xlink" x="0px" y="0px"
	 width="64px" height="64px" viewBox="0 0 64 64" enable-background="new 0 0 64 64" xml:space="preserve">
<g>
	<g>
		<path fill="#FFC95C" d="M21.385,29.007c-3.842,14.679-5.539,27.738,2.79,27.738c8.754,0,7.947-13.042,7.947-27.957
			S32.517,2,27.956,2C23.06,2,25.135,14.686,21.385,29.007z"/>
		<path fill="#EBA352" d="M21.512,47.307c9.607,0,9.855-4.724,9.855-19.64c0-11.631,0.292-21.392-1.92-25.125
			c3.258,2.476,2.85,13.168,2.85,26.214c0,14.915,3.486,27.989-6.122,27.989C24.072,56.745,20,47.307,21.512,47.307z"/>
		<path fill="#FFC95C" d="M36.043,2c-4.561,0-4.166,11.873-4.166,26.788s-0.807,27.957,7.947,27.957
			c8.328,0,6.633-13.06,2.789-27.738C38.863,14.686,40.939,2,36.043,2z"/>
		<path fill="#EBA352" d="M37.824,56.745c-9.607,0-6.121-13.074-6.121-27.989c0-13.046-0.41-23.738,2.849-26.214
			c-2.212,3.733-1.921,13.494-1.921,25.125c0,14.916,0.249,19.64,9.856,19.64C44,47.307,39.927,56.745,37.824,56.745z"/>
	</g>
	<path fill="#FFC95C" d="M13.106,47.73l7.579,13.225l8.609-4.458L18.951,39.989C18.951,39.989,16.387,46.443,13.106,47.73z"/>
	<path fill="#FFDD67" d="M20.92,38.188c-1.002,1.646-1.406,8.865-6.09,10.833l5.471,11.158c0,0,6.063-1.505,8.489-2.994
		c6.694-4.105-0.937-9.038,2.976-18.111c2.187-5.072-1.816-17.111-6.6-17.111c-4.793,0-2.563,6.89-3.027,8.682
		C21.571,32.84,21.797,35.482,20.92,38.188z"/>
	<path fill="#EBA352" d="M28.526,56.374c6.694-4.105-1.603-8.966,2.31-18.04c1.745-4.046-0.453-12.521-3.841-15.786
		c3.897,2.461,6.899,11.933,4.866,16.547c-3.981,9.039,4.5,13.764-2.404,18.021c-0.514,0.316-4.283,1.966-8.732,3.915l-0.663-1.332
		C24.88,58.346,28.131,56.616,28.526,56.374z"/>
	<path fill="#FFC95C" d="M45.047,39.989L34.703,56.497l8.61,4.458l7.579-13.225C47.611,46.443,45.047,39.989,45.047,39.989z"/>
	<path fill="#FFDD67" d="M41.859,30.644c-0.463-1.792,1.767-8.682-3.026-8.682c-4.783,0-8.786,12.039-6.601,17.111
		c3.912,9.073-3.718,14.006,2.977,18.111c2.428,1.489,8.489,2.994,8.489,2.994l5.471-11.158c-4.683-1.968-5.089-9.187-6.089-10.833
		C42.202,35.482,42.428,32.84,41.859,30.644z"/>
	<path fill="#EBA352" d="M43.938,59.698l-0.664,1.332c-4.448-1.949-8.219-3.599-8.73-3.915c-6.905-4.257,1.576-8.981-2.406-18.021
		c-2.032-4.614,0.971-14.086,4.867-16.547c-3.389,3.265-5.586,11.74-3.841,15.786c3.912,9.074-4.385,13.935,2.31,18.04
		C35.867,56.616,39.119,58.346,43.938,59.698z"/>
	<path fill="#47B892" d="M2,55.307V62h22.202c2.475-4.821-11.641-15.607-11.641-15.607L2,55.307z"/>
	<path fill="#47B892" d="M51.438,46.393c0,0-14.114,10.786-11.641,15.607H62v-6.693L51.438,46.393z"/>
</g>
</svg>
