<?xml version="1.0" encoding="utf-8"?>
<!-- Generator: Adobe Illustrator 15.0.0, SVG Export Plug-In . SVG Version: 6.00 Build 0)  -->
<!DOCTYPE svg PUBLIC "-//W3C//DTD SVG 1.1//EN" "http://www.w3.org/Graphics/SVG/1.1/DTD/svg11.dtd">
<svg version="1.1" id="Layer_1" xmlns="http://www.w3.org/2000/svg" xmlns:xlink="http://www.w3.org/1999/xlink" x="0px" y="0px"
	 width="64px" height="64px" viewBox="0 0 64 64" enable-background="new 0 0 64 64" xml:space="preserve">
<g>
	<g>
		<circle fill="#FFDD67" cx="31.999" cy="32" r="30"/>
	</g>
	<path fill="#664E27" d="M38.344,50H25.654c-0.873,0-0.873-3,0-3h12.689C39.217,47,39.217,50,38.344,50z"/>
	<g>
		<path fill="#FFFFFF" d="M51.164,22.301c-0.74,2.452-3.164,4.253-6.047,4.253c-3.471,0-6.283-2.608-6.283-5.825
			c0-0.539,0.084-1.059,0.232-1.554c-2.725,1.547-4.566,4.47-4.566,7.826c0,4.971,4.029,9,9,9s9-4.029,9-9
			C52.5,25.276,52.006,23.67,51.164,22.301z"/>
		<path fill="#664E27" d="M45.117,26.554c2.883,0,5.307-1.801,6.047-4.253c-1.582-2.576-4.418-4.3-7.664-4.3
			c-1.613,0-3.123,0.431-4.434,1.174c-0.148,0.495-0.232,1.015-0.232,1.554C38.834,23.945,41.646,26.554,45.117,26.554z"/>
	</g>
	<g>
		<path fill="#FFFFFF" d="M28.163,22.3c-0.741,2.452-3.165,4.253-6.047,4.253c-3.471,0-6.284-2.608-6.284-5.825
			c0-0.539,0.085-1.059,0.233-1.554c-2.725,1.547-4.566,4.47-4.566,7.826c0,4.971,4.029,9,9,9s9-4.029,9-9
			C29.499,25.275,29.005,23.669,28.163,22.3z"/>
		<path fill="#664E27" d="M22.116,26.553c2.882,0,5.306-1.801,6.047-4.253c-1.583-2.576-4.419-4.3-7.664-4.3
			c-1.613,0-3.124,0.431-4.434,1.174c-0.148,0.495-0.233,1.015-0.233,1.554C15.832,23.944,18.646,26.553,22.116,26.553z"/>
	</g>
</g>
</svg>
