<?xml version="1.0" encoding="utf-8"?>
<!-- Generator: Adobe Illustrator 15.0.0, SVG Export Plug-In . SVG Version: 6.00 Build 0)  -->
<!DOCTYPE svg PUBLIC "-//W3C//DTD SVG 1.1//EN" "http://www.w3.org/Graphics/SVG/1.1/DTD/svg11.dtd">
<svg version="1.1" id="Layer_1" xmlns="http://www.w3.org/2000/svg" xmlns:xlink="http://www.w3.org/1999/xlink" x="0px" y="0px"
	 width="64px" height="64px" viewBox="0 0 64 64" enable-background="new 0 0 64 64" xml:space="preserve">
<g>
	<g>
		<path fill="#231F20" d="M32.004,1.998c-14.488,0-22.398,9.029-22.398,20.924v37.076H54.4V22.922
			c0-17.68-12.125-17.35-12.125-17.35S41.363,1.998,32.004,1.998z"/>
		<path fill="#B386E2" d="M41.959,49.051V41.91h-19.91v7.141C9.529,49.438,7.004,51.458,7.004,61.998h50
			C57.004,51.459,54.471,49.438,41.959,49.051z"/>
		<path fill="#FFDD67" d="M15.814,32.891c0,0-3.26-0.834-3.26-5.662c0-3.822,2.459-4.479,2.459-4.479
			c8.811,0,23.168-11.453,23.168-11.453s5.428,10.111,10.664,11.453c0,0,2.537,0.469,2.537,4.479c0,4.828-3.385,5.662-3.385,5.662
			c-0.043,7.283-9.99,16.068-16.029,16.068C25.928,48.959,15.814,40.174,15.814,32.891z"/>
		<path fill="#664E27" d="M26.006,42.963c-0.111-0.072-0.172-0.166-0.172-0.279c-0.002-0.773,2.746-1.721,6.135-1.721
			s6.133,0.941,6.133,1.713c0,0.105-0.053,0.215-0.145,0.287c0,0-2.65-0.666-5.988-0.666C28.637,42.297,26.006,42.963,26.006,42.963
			z"/>
		<g>
			<path fill="#FFFFFF" d="M45.449,28.4c0,2.766-2.211,4.939-4.938,4.939c-2.729,0-4.939-2.174-4.939-4.939
				C35.572,25.727,45.449,25.727,45.449,28.4z"/>
		</g>
		<g>
			<path fill="#FFFFFF" d="M18.559,28.061c0,2.766,2.213,4.938,4.938,4.938c2.73,0,4.939-2.172,4.939-4.938
				C28.436,25.385,18.559,25.385,18.559,28.061z"/>
		</g>
		<g>
			<circle fill="#664E27" cx="23.497" cy="29.889" r="3.108"/>
			<circle fill="#231F20" cx="23.498" cy="29.889" r="1"/>
		</g>
		<g>
			<circle fill="#664E27" cx="40.512" cy="30.23" r="3.109"/>
			<circle fill="#231F20" cx="40.51" cy="30.23" r="1"/>
		</g>
		<path fill="#231F20" d="M17.186,28.172c-0.117-0.078-0.182-0.176-0.182-0.295c-0.002-0.818,2.906-1.822,6.492-1.822
			c3.588,0,6.494,0.998,6.494,1.814c0,0.111-0.057,0.225-0.154,0.303c0,0-2.805-0.705-6.34-0.705
			C19.971,27.467,17.186,28.172,17.186,28.172z"/>
		<path fill="#231F20" d="M34.199,28.172c-0.117-0.078-0.182-0.176-0.182-0.295c-0.002-0.818,2.906-1.822,6.492-1.822
			c3.588,0,6.494,0.998,6.494,1.814c0,0.111-0.057,0.225-0.154,0.303c0,0-2.805-0.705-6.34-0.705
			C36.984,27.467,34.199,28.172,34.199,28.172z"/>
	</g>
	<path fill="#EBA352" d="M36.047,37.393c0,1.588-3.287,2.047-4.043,2.047s-4.045-0.563-4.045-2.148
		C27.959,37.291,36.047,36.602,36.047,37.393z"/>
</g>
</svg>
