<?xml version="1.0" encoding="utf-8"?>
<!-- Generator: Adobe Illustrator 15.0.0, SVG Export Plug-In . SVG Version: 6.00 Build 0)  -->
<!DOCTYPE svg PUBLIC "-//W3C//DTD SVG 1.1//EN" "http://www.w3.org/Graphics/SVG/1.1/DTD/svg11.dtd">
<svg version="1.1" id="Layer_1" xmlns="http://www.w3.org/2000/svg" xmlns:xlink="http://www.w3.org/1999/xlink" x="0px" y="0px"
	 width="64px" height="64px" viewBox="0 0 64 64" enable-background="new 0 0 64 64" xml:space="preserve">
<g>
	<g>
		<path fill="#231F20" d="M32.003,1.998c-14.488,0-22.398,9.031-22.398,20.924v37.076h44.794V22.922
			c0-17.678-12.125-17.35-12.125-17.35S41.362,1.998,32.003,1.998z"/>
		<path fill="#B386E2" d="M41.956,49.051v-7.139h-19.91v7.139C9.529,49.438,7.003,51.459,7.003,61.998h50
			C57.003,51.461,54.469,49.439,41.956,49.051z"/>
		<g>
			<path fill="#FFDD67" d="M15.814,32.893c0,0-3.262-0.834-3.262-5.662c0-3.824,2.459-4.479,2.459-4.479
				c8.811,0,23.169-11.455,23.169-11.455s5.428,10.113,10.664,11.455c0,0,2.537,0.467,2.537,4.479c0,4.828-3.385,5.662-3.385,5.662
				c-0.045,7.281-9.992,16.066-16.029,16.066C25.927,48.959,15.814,40.174,15.814,32.893z"/>
			<g>
				<path fill="#F5F5F5" d="M26.458,29.875c0.951,0,0.824-2.459,0.824-2.459c-2.92-6.521-9.42-2.393-9.42-2.393
					c-2.527,1.127,1.133,4.693,1.719,4.852C22.335,30.621,26.458,29.875,26.458,29.875z"/>
				<g>
					<circle fill="#664E27" cx="22.651" cy="26.889" r="3.108"/>
					<circle fill="#231F20" cx="22.65" cy="26.889" r="1"/>
				</g>
				<path fill="#231F20" d="M28.099,28.357c-0.795-0.971-1.582-1.904-2.496-2.613c-0.912-0.707-1.938-1.154-3.045-1.223
					c-1.107-0.107-2.268,0.127-3.471,0.355c-0.602,0.117-1.223,0.232-1.871,0.268c-0.627,0.027-1.385-0.047-1.832-0.529
					c0.592,0.234,1.174,0.111,1.738-0.059c0.568-0.164,1.131-0.396,1.721-0.594c1.164-0.414,2.451-0.754,3.814-0.652
					c0.676,0.066,1.354,0.238,1.969,0.539c0.607,0.313,1.16,0.713,1.611,1.195C27.15,25.998,27.746,27.152,28.099,28.357z"/>
			</g>
			<g>
				<path fill="#F5F5F5" d="M37.476,29.875c-0.953,0-0.826-2.459-0.826-2.459c2.92-6.521,9.422-2.393,9.422-2.393
					c2.527,1.127-1.133,4.693-1.721,4.852C41.601,30.621,37.476,29.875,37.476,29.875z"/>
				<g>
					<circle fill="#664E27" cx="41.282" cy="26.889" r="3.109"/>
					<circle fill="#231F20" cx="41.282" cy="26.889" r="1"/>
				</g>
				<path fill="#231F20" d="M35.835,28.357c0.354-1.205,0.947-2.359,1.861-3.313c0.451-0.482,1.002-0.883,1.609-1.195
					c0.615-0.301,1.295-0.473,1.969-0.539c1.363-0.102,2.65,0.238,3.814,0.65c0.59,0.199,1.154,0.432,1.723,0.596
					c0.563,0.17,1.146,0.293,1.738,0.059c-0.449,0.482-1.205,0.557-1.834,0.529c-0.648-0.035-1.27-0.15-1.873-0.268
					c-1.199-0.229-2.361-0.463-3.467-0.355c-1.105,0.068-2.133,0.516-3.045,1.223C37.417,26.455,36.63,27.389,35.835,28.357z"/>
			</g>
		</g>
	</g>
	<circle fill="#89664C" cx="32.003" cy="41.498" r="3.5"/>
</g>
</svg>
