<?xml version="1.0" encoding="utf-8"?>
<!-- Generator: Adobe Illustrator 15.0.0, SVG Export Plug-In . SVG Version: 6.00 Build 0)  -->
<!DOCTYPE svg PUBLIC "-//W3C//DTD SVG 1.1//EN" "http://www.w3.org/Graphics/SVG/1.1/DTD/svg11.dtd">
<svg version="1.1" id="Layer_1" xmlns="http://www.w3.org/2000/svg" xmlns:xlink="http://www.w3.org/1999/xlink" x="0px" y="0px"
	 width="64px" height="64px" viewBox="0 0 64 64" enable-background="new 0 0 64 64" xml:space="preserve">
<g>
	<circle fill="#FFDD67" cx="32" cy="32" r="30"/>
	<path fill="#664E27" d="M42.684,47c-1.801-1.061-3.541-1.701-5.322-2.127c-1.775-0.428-3.566-0.609-5.361-0.613
		c-1.799,0.008-3.588,0.189-5.361,0.615c-1.781,0.428-3.52,1.068-5.322,2.125c0.771-1.979,2.484-3.533,4.396-4.527
		c1.932-1.002,4.119-1.486,6.287-1.484c2.166,0.004,4.354,0.486,6.283,1.488C40.193,43.473,41.908,45.025,42.684,47z"/>
	<g>
		<g>
			<circle fill="#664E27" cx="20.5" cy="26.592" r="4.5"/>
		</g>
		<g>
			<circle fill="#664E27" cx="43.5" cy="26.592" r="4.5"/>
		</g>
	</g>
</g>
</svg>
