<?xml version="1.0" encoding="utf-8"?>
<!-- Generator: Adobe Illustrator 15.0.0, SVG Export Plug-In . SVG Version: 6.00 Build 0)  -->
<!DOCTYPE svg PUBLIC "-//W3C//DTD SVG 1.1//EN" "http://www.w3.org/Graphics/SVG/1.1/DTD/svg11.dtd">
<svg version="1.1" id="Layer_1" xmlns="http://www.w3.org/2000/svg" xmlns:xlink="http://www.w3.org/1999/xlink" x="0px" y="0px"
	 width="64px" height="64px" viewBox="0 0 64 64" enable-background="new 0 0 64 64" xml:space="preserve">
<g>
	<g>
		<ellipse fill="#89664C" cx="54.476" cy="26.406" rx="8.525" ry="12.443"/>
		<ellipse fill="#E0AC7E" cx="54.475" cy="27.467" rx="5.552" ry="8.102"/>
		<ellipse fill="#89664C" cx="9.525" cy="26.406" rx="8.524" ry="12.443"/>
		<ellipse fill="#E0AC7E" cx="9.524" cy="27.467" rx="5.551" ry="8.102"/>
	</g>
	<path fill="#89664C" d="M46.059,6.803c1.357-0.725,2.236-1.09,2.236-1.09c-3.838-1.365-7.166-2.162-10.047-2.527
		c1.516-1.15,2.529-1.596,2.529-1.596C33.281,1.146,27.453,2.391,22.98,4.281c-4.896,1.787-9.059,5.039-11.934,9.461
		c-0.604,0.889-0.877,1.449-0.877,1.449l0.004,0.006c-2.141,3.848-3.369,8.457-3.369,13.666c0,15.814,11.279,28.637,25.197,28.637
		c13.917,0,25.196-12.822,25.196-28.637C57.197,18.969,52.777,11.217,46.059,6.803z"/>
	<path fill="#E0AC7E" d="M55.404,32.121c0-6.65-5.572-12.041-12.447-12.041c-4.734,0-8.854,2.559-10.956,6.322
		c-2.105-3.764-6.221-6.322-10.957-6.322c-6.875,0-12.447,5.391-12.447,12.041c0,6.057,4.627,11.053,10.645,11.9
		c-0.1,1.477,0.064,3.326,0.787,5.594c0,0,0.143-0.688,0.49-1.559c1.875,4.352,6.303,7.42,11.482,7.42
		c5.178,0,9.604-3.068,11.479-7.42c0.348,0.871,0.492,1.559,0.492,1.559c0.723-2.268,0.887-4.117,0.787-5.594
		C50.777,43.174,55.404,38.178,55.404,32.121z"/>
	<g>
		<ellipse fill="#89664C" cx="34.219" cy="38.699" rx="0.744" ry="1.486"/>
		<ellipse fill="#89664C" cx="29.783" cy="38.699" rx="0.744" ry="1.486"/>
	</g>
	<g>
		<ellipse fill="#3E4347" cx="18.722" cy="32.16" rx="4.359" ry="3.914"/>
	</g>
	<g>
		<ellipse fill="#3E4347" cx="45.278" cy="32.16" rx="4.358" ry="3.914"/>
	</g>
	<path fill="#89664C" d="M26.863,38c0.361-1.059,1.248-1.797,2.117-2.365c0.895-0.568,1.9-0.947,2.953-1.082
		c1.049-0.117,2.163,0.035,3.114,0.584c0.957,0.529,1.678,1.436,2.092,2.43c-0.695-0.795-1.496-1.416-2.367-1.773
		c-0.873-0.348-1.815-0.439-2.747-0.322c-0.934,0.104-1.857,0.402-2.744,0.805c-0.441,0.209-0.879,0.438-1.291,0.715
		C27.568,37.258,27.169,37.566,26.863,38z"/>
	<g>
		<g>
			<path fill="#89664C" d="M14.897,48.502L6.572,62.5h12.949c0.827-6.998,4.001-7.594,4.001-7.594L14.897,48.502z"/>
		</g>
		<path fill="#FFD6BB" d="M20.225,39.842c0,0,4.88-4.49,9.493-3.945c2.278,0.27-7.082,7.58-7.082,7.58s9.712-8.23,11.722-5.646
			c1.824,2.346-8.926,9.818-8.926,9.818s9.958-8.055,9.651-4.555c-0.339,3.865-7.878,12.863-12.484,13.779
			c-6.641,1.322-11.79-2.908-8.314-17.506C16.025,32.055,17.814,40.223,20.225,39.842z"/>
	</g>
	<g>
		<path fill="#89664C" d="M48.34,46.703L58.957,62.5H44.985c-0.035-3.65-2.18-6.59-2.18-6.59L48.34,46.703z"/>
	</g>
	<path fill="#DDB199" d="M38.233,40.182c0,0-6.222-2.291-10.28-0.029c-2.004,1.119,9.436,4.309,9.436,4.309
		s-12.116-3.908-12.99-0.754c-0.792,2.865,11.995,5.678,11.995,5.678s-12.276-3.652-10.658-0.533
		c1.785,3.443,12.185,8.891,16.792,7.982C49.173,55.525,40.608,39.617,38.233,40.182z"/>
	<path fill="#FFD6BB" d="M39.558,40.182c0,0-6.222-2.291-10.28-0.029c-2.004,1.119,9.436,4.309,9.436,4.309
		s-12.116-3.908-12.99-0.754c-0.792,2.865,11.995,5.678,11.995,5.678s-12.276-3.652-10.658-0.533
		c1.785,3.443,12.185,8.891,16.792,7.982c6.645-1.309,9.793-7.182,1.018-19.354C40.474,31.383,41.933,39.617,39.558,40.182z"/>
</g>
</svg>
