<?xml version="1.0" encoding="utf-8"?>
<!-- Generator: Adobe Illustrator 15.0.0, SVG Export Plug-In . SVG Version: 6.00 Build 0)  -->
<!DOCTYPE svg PUBLIC "-//W3C//DTD SVG 1.1//EN" "http://www.w3.org/Graphics/SVG/1.1/DTD/svg11.dtd">
<svg version="1.1" id="Layer_1" xmlns="http://www.w3.org/2000/svg" xmlns:xlink="http://www.w3.org/1999/xlink" x="0px" y="0px"
	 width="64px" height="64px" viewBox="0 0 64 64" enable-background="new 0 0 64 64" xml:space="preserve">
<g>
	<circle fill="#FFDD67" cx="32" cy="32" r="30"/>
	<path fill="#664E27" d="M17.316,40.949c2.475,1.455,4.865,2.338,7.314,2.924c2.439,0.586,4.9,0.836,7.369,0.84
		c2.471-0.01,4.93-0.26,7.367-0.846c2.449-0.586,4.838-1.467,7.316-2.918c-1.061,2.717-3.416,4.854-6.043,6.221
		c-2.654,1.379-5.662,2.043-8.641,2.041c-2.979-0.004-5.984-0.668-8.637-2.047C20.736,45.797,18.381,43.662,17.316,40.949z"/>
	<g>
		<g>
			<circle fill="#664E27" cx="20.502" cy="26.592" r="4.5"/>
		</g>
		<g>
			<circle fill="#664E27" cx="43.502" cy="26.592" r="4.5"/>
		</g>
	</g>
</g>
</svg>
