<?xml version="1.0" encoding="utf-8"?>
<!-- Generator: Adobe Illustrator 15.0.0, SVG Export Plug-In . SVG Version: 6.00 Build 0)  -->
<!DOCTYPE svg PUBLIC "-//W3C//DTD SVG 1.1//EN" "http://www.w3.org/Graphics/SVG/1.1/DTD/svg11.dtd">
<svg version="1.1" id="Layer_1" xmlns="http://www.w3.org/2000/svg" xmlns:xlink="http://www.w3.org/1999/xlink" x="0px" y="0px"
	 width="64px" height="64px" viewBox="0 0 64 64" enable-background="new 0 0 64 64" xml:space="preserve">
<g>
	<path fill="#231F20" d="M32.005,1.984c-14.488,0-22.398,9.03-22.398,20.924v35.077h44.795V22.908
		c0-17.679-12.125-17.35-12.125-17.35S41.364,1.984,32.005,1.984z"/>
	<path fill="#B386E2" d="M52.403,61.984c0-15-1.389-15.172-20.4-15.172c-19.018,0-20.395,0.172-20.395,15.172H52.403z"/>
	<g>
		<path fill="#8A6859" d="M60.708,20.204c-0.849,0.649-5.603,4.324-9.333,7.208c0.002-0.067,0.009-0.128,0.009-0.197
			c0-4.011-2.537-4.479-2.537-4.479c-5.236-1.342-10.664-11.454-10.664-11.454S23.825,22.737,15.015,22.737
			c0,0-2.459,0.655-2.459,4.479c0,0.049,0.006,0.092,0.006,0.141c-3.718-2.876-8.415-6.507-9.26-7.152
			c-1.434-1.093-3.084,1.638-1.883,2.961c6.477,7.151,8.455,11.814,12.908,14.384l1.576-3.506
			c0.975,7.021,10.345,14.902,16.066,14.902c5.813,0,15.246-8.143,15.979-15.248l1.733,3.852c4.451-2.57,6.432-7.233,12.908-14.384
			C63.79,21.841,62.14,19.111,60.708,20.204z"/>
		<path fill="#C99FF7" d="M42.812,44.385c4.414-3.541,7.43-6.207,7.43-6.207l-3.484-7.887c-2.978,2.749-8.628,5.665-14.752,8.688
			c-6.125-3.023-11.773-5.939-14.752-8.688l-3.484,7.887c0,0,3.016,2.666,7.43,6.207C10.901,49.813,3.042,55.449,9.112,60.973
			c3.719,3.387,13.696-2.047,22.893-8.455c9.197,6.408,19.175,11.842,22.895,8.455C60.967,55.449,53.107,49.813,42.812,44.385z"/>
	</g>
	<g>
		<path fill="#705041" d="M36.013,36.201c0,1.588-3.287,2.047-4.043,2.047s-4.045-0.563-4.045-2.148
			C27.925,36.1,36.013,35.41,36.013,36.201z"/>
		<g>
			<path fill="#F5F5F5" d="M26.46,29.86c0.953,0,0.824-2.458,0.824-2.458c-2.918-6.522-9.418-2.394-9.418-2.394
				c-2.529,1.128,1.133,4.694,1.719,4.852C22.337,30.606,26.46,29.86,26.46,29.86z"/>
			<g>
				<circle fill="#664E27" cx="22.652" cy="26.875" r="3.108"/>
				<circle fill="#231F20" cx="22.653" cy="26.875" r="1"/>
			</g>
			<path fill="#231F20" d="M28.101,28.343c-0.795-0.971-1.582-1.904-2.494-2.614c-0.914-0.707-1.939-1.154-3.047-1.223
				c-1.105-0.107-2.266,0.128-3.471,0.355c-0.6,0.117-1.221,0.232-1.869,0.269c-0.627,0.026-1.385-0.047-1.834-0.529
				c0.592,0.234,1.176,0.11,1.74-0.06c0.568-0.163,1.131-0.396,1.719-0.594c1.166-0.414,2.451-0.754,3.814-0.651
				c0.676,0.066,1.354,0.237,1.969,0.538c0.609,0.313,1.16,0.714,1.611,1.195C27.151,25.983,27.749,27.138,28.101,28.343z"/>
		</g>
		<g>
			<path fill="#F5F5F5" d="M37.478,29.86c-0.953,0-0.824-2.458-0.824-2.458c2.918-6.522,9.42-2.394,9.42-2.394
				c2.529,1.128-1.133,4.694-1.721,4.852C41.603,30.606,37.478,29.86,37.478,29.86z"/>
			<g>
				<circle fill="#664E27" cx="41.286" cy="26.875" r="3.109"/>
				<circle fill="#231F20" cx="41.285" cy="26.875" r="1"/>
			</g>
			<path fill="#231F20" d="M35.837,28.343c0.354-1.205,0.947-2.36,1.863-3.313c0.451-0.481,1-0.882,1.609-1.195
				c0.615-0.301,1.295-0.472,1.967-0.538c1.365-0.103,2.65,0.237,3.814,0.65c0.59,0.198,1.154,0.432,1.723,0.595
				c0.563,0.17,1.146,0.294,1.738,0.06c-0.449,0.482-1.205,0.556-1.834,0.529c-0.648-0.036-1.27-0.151-1.871-0.269
				c-1.201-0.228-2.363-0.463-3.469-0.355c-1.105,0.069-2.131,0.516-3.045,1.223C37.419,26.44,36.632,27.374,35.837,28.343z"/>
		</g>
	</g>
</g>
</svg>
