<?xml version="1.0" encoding="utf-8"?>
<!-- Generator: Adobe Illustrator 15.0.0, SVG Export Plug-In . SVG Version: 6.00 Build 0)  -->
<!DOCTYPE svg PUBLIC "-//W3C//DTD SVG 1.1//EN" "http://www.w3.org/Graphics/SVG/1.1/DTD/svg11.dtd">
<svg version="1.1" id="Layer_1" xmlns="http://www.w3.org/2000/svg" xmlns:xlink="http://www.w3.org/1999/xlink" x="0px" y="0px"
	 width="64px" height="64px" viewBox="0 0 64 64" enable-background="new 0 0 64 64" xml:space="preserve">
<g>
	<g>
		<path fill="#E6B796" d="M43.636,62h11.761V49.12l-13.823,3.166C44.912,55.756,43.636,62,43.636,62z"/>
		<path fill="#FFE1BD" d="M44.749,62h13.155c0,0-0.189-6.401,2.022-11.86l-16.46,2.367C45.292,57.401,44.749,62,44.749,62z"/>
	</g>
	<g>
		<polygon fill="#4AA9FF" points="27.027,2 32.027,12 37.027,2 		"/>
		<g>
			<polygon fill="#4AA9FF" points="44.854,3 44.184,14.16 53.514,8 			"/>
			<polygon fill="#4AA9FF" points="10.541,8 19.871,14.16 19.201,3 			"/>
		</g>
	</g>
	<g>
		<g>
			<g>
				<g>
					<path fill="#FFE1BD" d="M45.969,44.43h-5.004V22.17c0-1.489,1.119-2.731,2.495-2.731h0.014c1.378,0,2.495,1.242,2.495,2.777
						V44.43z"/>
					<path fill="#FFE1BD" d="M51.878,44.43h-5.909V20.301c0-1.822,1.32-3.301,2.952-3.301l0,0c1.632,0,2.957,1.479,2.957,3.301
						V44.43z"/>
					<path fill="#FFE1BD" d="M57.03,44.43h-5.152V21.716c0-1.586,1.153-2.871,2.571-2.871h0.01c1.42,0,2.571,1.285,2.571,2.871
						V44.43z"/>
					<path fill="#FFE1BD" d="M59.38,22.248c1.323,0,2.349,1.195,2.349,2.667V44.43H57.03V24.915
						C57.03,23.443,58.056,22.248,59.38,22.248L59.38,22.248z"/>
				</g>
				<path fill="#E6B796" d="M43.46,19.438h0.014c0.15,0,0.296,0.02,0.438,0.048c-1.167,0.231-2.057,1.356-2.057,2.684v22.26h-0.891
					V22.17C40.965,20.681,42.084,19.438,43.46,19.438z"/>
				<path fill="#E6B796" d="M48.921,17c0.152,0,0.3,0.025,0.446,0.052c-1.419,0.24-2.51,1.597-2.51,3.249V44.43h-0.889V20.301
					C45.969,18.479,47.289,17,48.921,17z"/>
				<path fill="#E6B796" d="M54.449,18.845h0.01c0.15,0,0.297,0.021,0.44,0.05c-1.21,0.235-2.132,1.404-2.132,2.821V44.43h-0.89
					V21.716C51.878,20.13,53.031,18.845,54.449,18.845z"/>
				<path fill="#E6B796" d="M59.38,22.248c0.153,0,0.301,0.02,0.444,0.051c-1.101,0.233-1.903,1.314-1.903,2.616V44.43H57.03V24.915
					C57.03,23.443,58.056,22.248,59.38,22.248z"/>
			</g>
			<path fill="#FFE1BD" d="M32.581,34.246c1.499-1.739,4.522-0.901,6.62,3.463c1.463,3.049,1.861,2.437,2.654,2.603v-2.732
				c0,0,4.831-3.807,14.445-2.069c0,0,5.476,0.813,5.476,3.818c0,0,0.93,7.367-1.003,11.998c-2.878,6.901-17.661,8.72-22.324-3.024
				c-0.928-2.332-2.154-4.778-3.188-7.288C34.014,37.991,30.938,36.155,32.581,34.246z"/>
			<g>
				<path fill="#E6B796" d="M33.583,33.542c-3.214,2.396,2.698,6.979,5.494,14.102c4.001,10.195,15.687,10.165,20.591,5.484
					c-4.456,5.322-16.997,6.308-21.219-4.826C35.707,41.073,28.945,35.622,33.583,33.542z"/>
			</g>
			<path fill="#E6B796" d="M41.68,37.704c4.109-2.8,14.815-2.911,19.334,0C56.992,32.692,44.376,33.827,41.68,37.704z"/>
		</g>
		<path fill="#E6B796" d="M45.17,41.354c1.039,0.062,2.058,0.363,3.02,0.795c0.965,0.424,1.871,1.014,2.678,1.734
			c0.797,0.729,1.491,1.602,1.965,2.595c0.481,0.987,0.744,2.079,0.732,3.159c-0.375-1.005-0.811-1.935-1.366-2.772
			c-0.56-0.834-1.21-1.591-1.951-2.249C48.775,43.277,47.033,42.263,45.17,41.354z"/>
	</g>
	<g>
		<path fill="#E6B796" d="M20.364,62H8.604V49.12l13.823,3.166C19.088,55.756,20.364,62,20.364,62z"/>
		<path fill="#FFE1BD" d="M19.251,62H6.095c0,0,0.189-6.401-2.022-11.86l16.46,2.367C18.708,57.401,19.251,62,19.251,62z"/>
	</g>
	<g>
		<g>
			<g>
				<g>
					<path fill="#FFE1BD" d="M18.031,44.43h5.004V22.17c0-1.489-1.119-2.731-2.495-2.731h-0.014c-1.378,0-2.495,1.242-2.495,2.777
						V44.43z"/>
					<path fill="#FFE1BD" d="M12.122,44.43h5.909V20.301c0-1.822-1.32-3.301-2.952-3.301l0,0c-1.632,0-2.957,1.479-2.957,3.301
						V44.43z"/>
					<path fill="#FFE1BD" d="M6.97,44.43h5.152V21.716c0-1.586-1.153-2.871-2.572-2.871H9.542c-1.42,0-2.572,1.285-2.572,2.871
						V44.43z"/>
					<path fill="#FFE1BD" d="M4.62,22.248c-1.323,0-2.349,1.195-2.349,2.667V44.43H6.97V24.915
						C6.97,23.443,5.944,22.248,4.62,22.248L4.62,22.248z"/>
				</g>
				<path fill="#E6B796" d="M20.54,19.438h-0.014c-0.15,0-0.296,0.02-0.438,0.048c1.167,0.231,2.057,1.356,2.057,2.684v22.26h0.891
					V22.17C23.035,20.681,21.916,19.438,20.54,19.438z"/>
				<path fill="#E6B796" d="M15.079,17c-0.152,0-0.3,0.025-0.446,0.052c1.418,0.24,2.509,1.597,2.509,3.249V44.43h0.889V20.301
					C18.031,18.479,16.711,17,15.079,17z"/>
				<path fill="#E6B796" d="M9.55,18.845H9.542c-0.151,0-0.297,0.021-0.441,0.05c1.209,0.235,2.132,1.404,2.132,2.821V44.43h0.89
					V21.716C12.122,20.13,10.969,18.845,9.55,18.845z"/>
				<path fill="#E6B796" d="M4.62,22.248c-0.154,0-0.301,0.02-0.444,0.051c1.101,0.233,1.903,1.314,1.903,2.616V44.43H6.97V24.915
					C6.97,23.443,5.944,22.248,4.62,22.248z"/>
			</g>
			<path fill="#FFE1BD" d="M31.419,34.246c-1.499-1.739-4.522-0.901-6.62,3.463c-1.463,3.049-1.861,2.437-2.654,2.603v-2.732
				c0,0-4.831-3.807-14.446-2.069c0,0-5.475,0.813-5.475,3.818c0,0-0.93,7.367,1.002,11.998c2.878,6.901,17.662,8.72,22.325-3.024
				c0.928-2.332,2.154-4.778,3.188-7.288C29.986,37.991,33.063,36.155,31.419,34.246z"/>
			<g>
				<path fill="#E6B796" d="M30.417,33.542c3.214,2.396-2.698,6.979-5.494,14.102C20.922,57.839,9.236,57.809,4.332,53.128
					c4.456,5.322,16.997,6.308,21.219-4.826C28.293,41.073,35.055,35.622,30.417,33.542z"/>
			</g>
			<path fill="#E6B796" d="M22.32,37.704c-4.109-2.8-14.815-2.911-19.334,0C7.008,32.692,19.624,33.827,22.32,37.704z"/>
		</g>
		<path fill="#E6B796" d="M18.83,41.354c-1.039,0.062-2.058,0.363-3.02,0.795c-0.964,0.424-1.871,1.014-2.678,1.734
			c-0.797,0.729-1.491,1.602-1.965,2.595c-0.481,0.987-0.744,2.079-0.731,3.159c0.374-1.005,0.81-1.935,1.366-2.772
			c0.56-0.834,1.209-1.591,1.951-2.249C15.225,43.277,16.967,42.263,18.83,41.354z"/>
	</g>
</g>
</svg>
