<?xml version="1.0" encoding="utf-8"?>
<!-- Generator: Adobe Illustrator 15.0.0, SVG Export Plug-In . SVG Version: 6.00 Build 0)  -->
<!DOCTYPE svg PUBLIC "-//W3C//DTD SVG 1.1//EN" "http://www.w3.org/Graphics/SVG/1.1/DTD/svg11.dtd">
<svg version="1.1" id="Layer_1" xmlns="http://www.w3.org/2000/svg" xmlns:xlink="http://www.w3.org/1999/xlink" x="0px" y="0px"
	 width="64px" height="64px" viewBox="0 0 64 64" enable-background="new 0 0 64 64" xml:space="preserve">
<g>
	<g>
		<path fill="#A37352" d="M21.386,29.007c-3.843,14.679-5.539,27.738,2.79,27.738c8.753,0,7.947-13.042,7.947-27.957
			S32.517,2,27.956,2C23.06,2,25.136,14.686,21.386,29.007z"/>
		<path fill="#935E3E" d="M21.512,47.307c9.608,0,9.856-4.724,9.856-19.64c0-11.631,0.291-21.392-1.92-25.125
			c3.258,2.476,2.849,13.168,2.849,26.214c0,14.915,3.486,27.989-6.122,27.989C24.073,56.745,20,47.307,21.512,47.307z"/>
		<path fill="#A37352" d="M36.044,2c-4.561,0-4.166,11.873-4.166,26.788s-0.807,27.957,7.947,27.957
			c8.328,0,6.632-13.06,2.789-27.738C38.864,14.686,40.94,2,36.044,2z"/>
		<path fill="#935E3E" d="M37.825,56.745c-9.608,0-6.122-13.074-6.122-27.989c0-13.046-0.409-23.738,2.849-26.214
			c-2.211,3.733-1.92,13.494-1.92,25.125c0,14.916,0.248,19.64,9.855,19.64C44,47.307,39.927,56.745,37.825,56.745z"/>
	</g>
	<path fill="#A37352" d="M13.107,47.73l7.579,13.225l8.61-4.458L18.952,39.989C18.952,39.989,16.388,46.443,13.107,47.73z"/>
	<path fill="#B47D56" d="M20.92,38.188c-1.001,1.646-1.406,8.865-6.089,10.833l5.471,11.158c0,0,6.062-1.505,8.489-2.994
		c6.695-4.105-0.936-9.038,2.977-18.111c2.186-5.072-1.816-17.111-6.6-17.111c-4.793,0-2.563,6.89-3.027,8.682
		C21.572,32.84,21.797,35.482,20.92,38.188z"/>
	<path fill="#935E3E" d="M28.526,56.374c6.695-4.105-1.602-8.966,2.311-18.04c1.744-4.046-0.453-12.521-3.841-15.786
		c3.897,2.461,6.9,11.933,4.867,16.547c-3.982,9.039,4.5,13.764-2.405,18.021c-0.513,0.316-4.283,1.966-8.731,3.915l-0.664-1.332
		C24.88,58.346,28.132,56.616,28.526,56.374z"/>
	<path fill="#A37352" d="M45.048,39.989L34.704,56.497l8.609,4.458l7.58-13.225C47.612,46.443,45.048,39.989,45.048,39.989z"/>
	<path fill="#B47D56" d="M41.86,30.644c-0.463-1.792,1.766-8.682-3.027-8.682c-4.783,0-8.785,12.039-6.6,17.111
		c3.912,9.073-3.719,14.006,2.977,18.111c2.427,1.489,8.488,2.994,8.488,2.994l5.471-11.158c-4.683-1.968-5.088-9.187-6.089-10.833
		C42.202,35.482,42.429,32.84,41.86,30.644z"/>
	<path fill="#935E3E" d="M43.938,59.698l-0.664,1.332c-4.449-1.949-8.219-3.599-8.731-3.915c-6.905-4.257,1.577-8.981-2.405-18.021
		c-2.033-4.614,0.97-14.086,4.867-16.547c-3.389,3.265-5.586,11.74-3.842,15.786c3.912,9.074-4.385,13.935,2.311,18.04
		C35.868,56.616,39.12,58.346,43.938,59.698z"/>
	<path fill="#47B892" d="M2,55.307V62h22.202c2.474-4.821-11.641-15.607-11.641-15.607L2,55.307z"/>
	<path fill="#47B892" d="M51.438,46.393c0,0-14.114,10.786-11.641,15.607H62v-6.693L51.438,46.393z"/>
</g>
</svg>
