<?xml version="1.0" encoding="utf-8"?>
<!-- Generator: Adobe Illustrator 15.0.0, SVG Export Plug-In . SVG Version: 6.00 Build 0)  -->
<!DOCTYPE svg PUBLIC "-//W3C//DTD SVG 1.1//EN" "http://www.w3.org/Graphics/SVG/1.1/DTD/svg11.dtd">
<svg version="1.1" id="Layer_1" xmlns="http://www.w3.org/2000/svg" xmlns:xlink="http://www.w3.org/1999/xlink" x="0px" y="0px"
	 width="64px" height="64px" viewBox="0 0 64 64" enable-background="new 0 0 64 64" xml:space="preserve">
<g>
	<g>
		<path fill="#805B4C" d="M21.386,29.007c-3.843,14.679-5.539,27.738,2.79,27.738c8.754,0,7.948-13.042,7.948-27.957
			S32.518,2,27.957,2C23.06,2,25.136,14.686,21.386,29.007z"/>
		<path fill="#705041" d="M21.512,47.307c9.607,0,9.856-4.724,9.856-19.64c0-11.631,0.292-21.392-1.921-25.125
			c3.259,2.476,2.85,13.168,2.85,26.214c0,14.915,3.486,27.989-6.122,27.989C24.073,56.745,20,47.307,21.512,47.307z"/>
		<path fill="#805B4C" d="M36.043,2c-4.561,0-4.166,11.873-4.166,26.788s-0.807,27.957,7.947,27.957
			c8.329,0,6.633-13.06,2.79-27.738C38.864,14.686,40.939,2,36.043,2z"/>
		<path fill="#705041" d="M37.824,56.745c-9.607,0-6.121-13.074-6.121-27.989c0-13.046-0.409-23.738,2.85-26.214
			c-2.213,3.733-1.921,13.494-1.921,25.125c0,14.916,0.249,19.64,9.856,19.64C44,47.307,39.928,56.745,37.824,56.745z"/>
	</g>
	<path fill="#805B4C" d="M13.107,47.73l7.579,13.225l8.61-4.458L18.952,39.989C18.952,39.989,16.388,46.443,13.107,47.73z"/>
	<path fill="#8A6859" d="M20.92,38.188c-1.001,1.646-1.406,8.865-6.089,10.833l5.471,11.158c0,0,6.062-1.505,8.49-2.994
		c6.693-4.105-0.937-9.038,2.976-18.111c2.187-5.072-1.817-17.111-6.6-17.111c-4.793,0-2.563,6.89-3.027,8.682
		C21.572,32.84,21.797,35.482,20.92,38.188z"/>
	<path fill="#705041" d="M28.527,56.374c6.693-4.105-1.603-8.966,2.309-18.04c1.746-4.046-0.452-12.521-3.84-15.786
		c3.897,2.461,6.899,11.933,4.867,16.547c-3.982,9.039,4.499,13.764-2.405,18.021c-0.513,0.316-4.283,1.966-8.731,3.915
		l-0.664-1.332C24.88,58.346,28.132,56.616,28.527,56.374z"/>
	<path fill="#805B4C" d="M45.048,39.989L34.704,56.497l8.61,4.458l7.578-13.225C47.612,46.443,45.048,39.989,45.048,39.989z"/>
	<path fill="#8A6859" d="M41.86,30.644c-0.464-1.792,1.767-8.682-3.026-8.682c-4.783,0-8.787,12.039-6.601,17.111
		c3.912,9.073-3.718,14.006,2.976,18.111c2.428,1.489,8.49,2.994,8.49,2.994l5.471-11.158c-4.684-1.968-5.089-9.187-6.09-10.833
		C42.203,35.482,42.428,32.84,41.86,30.644z"/>
	<path fill="#705041" d="M43.938,59.698l-0.663,1.332c-4.448-1.949-8.219-3.599-8.731-3.915c-6.905-4.257,1.576-8.981-2.405-18.021
		c-2.032-4.614,0.97-14.086,4.866-16.547c-3.388,3.265-5.586,11.74-3.84,15.786c3.912,9.074-4.385,13.935,2.309,18.04
		C35.868,56.616,39.119,58.346,43.938,59.698z"/>
	<path fill="#47B892" d="M2,55.307V62h22.202c2.474-4.821-11.641-15.607-11.641-15.607L2,55.307z"/>
	<path fill="#47B892" d="M51.439,46.393c0,0-14.115,10.786-11.641,15.607H62v-6.693L51.439,46.393z"/>
</g>
</svg>
