<?xml version="1.0" encoding="utf-8"?>
<!-- Generator: Adobe Illustrator 15.0.0, SVG Export Plug-In . SVG Version: 6.00 Build 0)  -->
<!DOCTYPE svg PUBLIC "-//W3C//DTD SVG 1.1//EN" "http://www.w3.org/Graphics/SVG/1.1/DTD/svg11.dtd">
<svg version="1.1" id="Layer_1" xmlns="http://www.w3.org/2000/svg" xmlns:xlink="http://www.w3.org/1999/xlink" x="0px" y="0px"
	 width="64px" height="64px" viewBox="0 0 64 64" enable-background="new 0 0 64 64" xml:space="preserve">
<g>
	<g>
		<circle fill="#DAE3EA" cx="24.359" cy="12.129" r="3.875"/>
		<circle fill="#DAE3EA" cx="28.67" cy="10.25" r="4.844"/>
		<circle fill="#DAE3EA" cx="20.003" cy="14.247" r="1.937"/>
		<circle fill="#DAE3EA" cx="35.557" cy="10.349" r="5.812"/>
		<circle fill="#DAE3EA" cx="42.767" cy="8.783" r="6.781"/>
		<path fill="#B2C1C0" d="M46.482,9.98c-0.18,0.612-0.561,1.139-1.011,1.611c-0.467,0.451-1.032,0.843-1.679,1.08
			c-1.293,0.507-2.795,0.383-4.022-0.118l1.015-0.177c-0.559,0.45-1.064,0.716-1.659,0.947c-0.58,0.225-1.205,0.353-1.833,0.371
			c-1.262,0.033-2.516-0.476-3.249-1.378c1.146,0.19,2.137,0.153,3.031-0.146c0.449-0.133,0.873-0.332,1.284-0.551
			c0.395-0.218,0.834-0.509,1.117-0.746l0.459-0.385l0.558,0.207c0.956,0.356,1.903,0.532,2.896,0.427
			c0.493-0.059,1.013-0.164,1.522-0.369C45.437,10.569,45.943,10.302,46.482,9.98z"/>
		<path fill="#B2C1C0" d="M33.471,10.932c-0.176,1.042-1.115,1.925-2.238,2.231c-1.134,0.312-2.314,0.09-3.283-0.332l1.26-0.41
			c-0.332,0.514-0.656,0.813-1.087,1.112c-0.421,0.279-0.913,0.477-1.419,0.537c-1.025,0.129-1.982-0.291-2.527-0.99
			c0.45-0.046,0.843-0.073,1.197-0.168c0.351-0.072,0.65-0.209,0.906-0.355c0.257-0.152,0.482-0.323,0.688-0.528
			c0.193-0.185,0.425-0.468,0.52-0.621l0.463-0.754l0.797,0.344c0.764,0.329,1.504,0.573,2.262,0.614
			C31.765,11.656,32.598,11.479,33.471,10.932z"/>
	</g>
	<g>
		<rect x="37.625" y="15.125" fill="#83BF4F" width="24.375" height="3.906"/>
		<g>
			<g>
				<polygon fill="#699635" points="58.25,19.031 58.25,31.844 41.375,31.844 41.375,19.031 39.5,19.031 39.5,45.828 60.125,45.828 
					60.125,19.031 				"/>
				<path fill="#3E4347" d="M58.25,31.844V19.031H41.375v12.813H58.25z M50.75,20.594h5.625v9.375H50.75V20.594z M43.25,20.594
					h5.625v9.375H43.25V20.594z"/>
			</g>
			<rect x="13.25" y="53.738" fill="#3E4347" width="10.889" height="4.379"/>
			<rect x="13.25" y="49.813" fill="#3E4347" width="41.666" height="4.557"/>
			<rect x="12.313" y="30.125" fill="#75A843" width="27.188" height="19.687"/>
			<g>
				<path fill="#75A843" d="M14.188,39.5c0,6.731-2.098,10.313-4.688,10.313c-2.589,0-4.688-10.313-4.688-10.313
					s2.099-9.375,4.688-9.375C12.089,30.125,14.188,32.77,14.188,39.5z"/>
				<path fill="#83BF4F" d="M9.755,32.469c-0.909,1.219-2.25,2.695-3.053,7.031h5.625C12.327,33.872,10.675,33.165,9.755,32.469z"/>
			</g>
			<rect x="9.5" y="28.25" fill="#699635" width="6.563" height="22.478"/>
			<g>
				<polygon fill="#ED4C5C" points="6.688,49.813 2,61.063 13.25,61.063 13.25,49.813 				"/>
				<g>
					<path fill="#FFFFFF" d="M9.409,51.688c0.216,0,0.341,0.419,0.28,0.931l-0.68,5.64c-0.061,0.512-0.487,0.93-0.944,0.93
						c-0.458,0-0.736-0.408-0.617-0.91l1.352-5.68C8.921,52.098,9.194,51.688,9.409,51.688z"/>
					<path fill="#FFFFFF" d="M6.887,52.56c0.183-0.479,0.41-0.872,0.505-0.872c0.093,0,0.073,0.41-0.046,0.91l-1.353,5.68
						c-0.12,0.502-0.538,0.91-0.932,0.91c-0.393,0-0.564-0.392-0.381-0.869L6.887,52.56z"/>
					<path fill="#FFFFFF" d="M11.882,58.25c0,0.516-0.348,0.938-0.774,0.938c-0.425,0-0.723-0.418-0.662-0.93l0.679-5.64
						c0.061-0.512,0.258-0.931,0.436-0.931s0.322,0.422,0.322,0.938V58.25z"/>
				</g>
			</g>
			<rect x="11.375" y="30.125" fill="#83BF4F" width="2.813" height="9.375"/>
			<g>
				<polygon fill="#3E4347" points="16.063,15.125 17.938,18.875 17.938,30.125 27.313,30.125 27.313,18.875 29.188,15.125 				"/>
				<polygon fill="#94989B" points="24.5,17 23.563,18.875 23.563,30.125 25.438,30.125 25.438,18.875 26.375,17 				"/>
			</g>
			<g>
				<path fill="#83BF4F" d="M16.063,39.5H39.5V32H16.063V39.5z"/>
			</g>
			<g>
				<path fill="#3E4347" d="M54.223,44.188h-8.818v-0.803c0-0.991-0.61-1.826-1.334-1.826h-0.82v-5.054h0.82
					c0.724,0,1.334-0.835,1.334-1.826v-0.804h8.818v0.804c0,0.991,0.611,1.826,1.332,1.826h0.82v5.054h-0.82
					c-0.721,0-1.332,0.835-1.332,1.826V44.188z M46.962,42.58h5.702c0.25-1.2,1.049-2.156,2.07-2.496v-2.105
					c-1.021-0.338-1.82-1.295-2.07-2.495h-5.702c-0.249,1.2-1.05,2.157-2.071,2.495v2.105C45.912,40.424,46.713,41.38,46.962,42.58z
					"/>
			</g>
			<g>
				<path fill="#3E4347" d="M52.104,46.737c-4.215,0-7.632,3.417-7.632,7.632c0,4.214,3.417,7.631,7.632,7.631
					c4.214,0,7.631-3.417,7.631-7.631C59.734,50.154,56.317,46.737,52.104,46.737z M52.104,60.475c-3.372,0-6.105-2.734-6.105-6.105
					c0-3.373,2.733-6.105,6.105-6.105c3.371,0,6.105,2.732,6.105,6.105C58.209,57.74,55.475,60.475,52.104,60.475z"/>
				<circle fill="#699635" cx="52.103" cy="54.369" r="1.527"/>
				<rect x="51.34" y="49.408" fill="#ED4C5C" width="1.527" height="9.92"/>
				
					<rect x="51.34" y="49.408" transform="matrix(0.4996 0.8662 -0.8662 0.4996 73.1655 -17.9297)" fill="#ED4C5C" width="1.526" height="9.921"/>
				
					<rect x="51.341" y="49.407" transform="matrix(-0.4999 0.8661 -0.8661 -0.4999 125.2379 36.423)" fill="#ED4C5C" width="1.526" height="9.922"/>
				<path fill="#ED4C5C" d="M52.104,48.264c-3.372,0-6.105,2.732-6.105,6.105c0,3.371,2.733,6.105,6.105,6.105
					c3.371,0,6.105-2.734,6.105-6.105C58.209,50.996,55.475,48.264,52.104,48.264z M52.104,58.947c-2.53,0-4.58-2.049-4.58-4.578
					c0-2.53,2.05-4.58,4.58-4.58c2.529,0,4.579,2.05,4.579,4.58C56.683,56.898,54.633,58.947,52.104,58.947z"/>
			</g>
			<g>
				<path fill="#3E4347" d="M36.84,46.737c-4.215,0-7.632,3.417-7.632,7.632c0,4.214,3.417,7.631,7.632,7.631
					s7.632-3.417,7.632-7.631C44.472,50.154,41.055,46.737,36.84,46.737z M36.84,60.475c-3.371,0-6.105-2.734-6.105-6.105
					c0-3.373,2.734-6.105,6.105-6.105c3.372,0,6.105,2.732,6.105,6.105C42.945,57.74,40.212,60.475,36.84,60.475z"/>
				<circle fill="#699635" cx="36.84" cy="54.369" r="1.526"/>
				<rect x="36.076" y="49.408" fill="#ED4C5C" width="1.527" height="9.92"/>
				
					<rect x="36.077" y="49.409" transform="matrix(0.4996 0.8662 -0.8662 0.4996 65.5285 -4.7083)" fill="#ED4C5C" width="1.526" height="9.92"/>
				
					<rect x="36.078" y="49.407" transform="matrix(-0.4999 0.8661 -0.8661 -0.4999 102.345 49.6415)" fill="#ED4C5C" width="1.526" height="9.922"/>
				<path fill="#ED4C5C" d="M36.84,48.264c-3.371,0-6.105,2.732-6.105,6.105c0,3.371,2.734,6.105,6.105,6.105
					c3.372,0,6.105-2.734,6.105-6.105C42.945,50.996,40.212,48.264,36.84,48.264z M36.84,58.947c-2.529,0-4.579-2.049-4.579-4.578
					c0-2.53,2.05-4.58,4.579-4.58s4.58,2.05,4.58,4.58C41.42,56.898,39.369,58.947,36.84,58.947z"/>
			</g>
			<g>
				<path fill="#3E4347" d="M19.629,50.729c-3.113,0-5.636,2.523-5.636,5.635c0,3.113,2.523,5.637,5.636,5.637
					c3.111,0,5.637-2.523,5.637-5.637C25.266,53.252,22.74,50.729,19.629,50.729z M19.629,60.873c-2.49,0-4.509-2.02-4.509-4.51
					c0-2.489,2.019-4.507,4.509-4.507s4.51,2.018,4.51,4.507C24.139,58.854,22.119,60.873,19.629,60.873z"/>
				<circle fill="#699635" cx="19.629" cy="56.363" r="1.127"/>
				<rect x="19.065" y="52.701" fill="#ED4C5C" width="1.128" height="7.326"/>
				
					<rect x="19.066" y="52.701" transform="matrix(0.5001 0.8659 -0.8659 0.5001 58.6198 11.1761)" fill="#ED4C5C" width="1.127" height="7.326"/>
				
					<rect x="19.066" y="52.701" transform="matrix(-0.5001 0.8659 -0.8659 -0.5001 78.2554 67.5566)" fill="#ED4C5C" width="1.127" height="7.327"/>
				<path fill="#ED4C5C" d="M19.629,51.856c-2.49,0-4.509,2.018-4.509,4.507c0,2.49,2.019,4.51,4.509,4.51s4.51-2.02,4.51-4.51
					C24.139,53.874,22.119,51.856,19.629,51.856z M19.629,59.746c-1.868,0-3.382-1.514-3.382-3.383c0-1.867,1.514-3.381,3.382-3.381
					c1.869,0,3.382,1.514,3.382,3.381C23.011,58.232,21.498,59.746,19.629,59.746z"/>
			</g>
			<path fill="#699635" d="M33.875,28.25c-1.036,0-1.875,0.84-1.875,1.875h3.75C35.75,29.09,34.91,28.25,33.875,28.25z"/>
			<path fill="#83BF4F" d="M24.172,50.729H5.887v-2.899h22.035C27.922,47.829,27.922,50.729,24.172,50.729z"/>
			<path fill="#83BF4F" d="M62,49.813H26.902c0,0,0-3.984,6.563-3.984H62V49.813z"/>
			<path fill="#DBB471" d="M31.512,52.801c0,0.518-0.42,0.938-0.938,0.938h-8.887c-0.518,0-0.938-0.42-0.938-0.938V50.75
				c0-0.518,0.42-0.938,0.938-0.938h8.887c0.518,0,0.938,0.42,0.938,0.938V52.801z"/>
			<g>
				<path fill="#FFDD7D" d="M55.672,54.957c0,0.518-0.42,0.938-0.938,0.938H31.063c-0.518,0-0.938-0.42-0.938-0.938v-0.281
					c0-0.518,0.42-0.938,0.938-0.938h23.672c0.518,0,0.938,0.42,0.938,0.938V54.957z"/>
				<path fill="#FFDD7D" d="M31.699,55.426c-0.258,0.449-0.832,0.602-1.279,0.344l-2.639-1.523c-0.448-0.26-0.602-0.832-0.343-1.281
					l0.141-0.243c0.259-0.448,0.832-0.602,1.28-0.343l2.639,1.523c0.447,0.258,0.602,0.832,0.342,1.28L31.699,55.426z"/>
			</g>
		</g>
	</g>
</g>
</svg>
