<?xml version="1.0" encoding="utf-8"?>
<!-- Generator: Adobe Illustrator 15.0.0, SVG Export Plug-In . SVG Version: 6.00 Build 0)  -->
<!DOCTYPE svg PUBLIC "-//W3C//DTD SVG 1.1//EN" "http://www.w3.org/Graphics/SVG/1.1/DTD/svg11.dtd">
<svg version="1.1" id="Layer_1" xmlns="http://www.w3.org/2000/svg" xmlns:xlink="http://www.w3.org/1999/xlink" x="0px" y="0px"
	 width="64px" height="64px" viewBox="0 0 64 64" enable-background="new 0 0 64 64" xml:space="preserve">
<g>
	<rect x="2" y="56.461" fill="#94989B" width="60" height="5.539"/>
	<rect x="2" y="56.461" fill="#62696D" width="60" height="1.848"/>
	<g>
		<path fill="#DFECF4" d="M25.346,14C14.488,14,2,37.428,2,50.605c0,3.188,2.536,5.777,5.693,5.855h0.005H62V14
			C62,14,48.875,14,25.346,14z"/>
		<path fill="#3E4347" d="M15.129,19.856c-6.843,7.397-12.5,20.247-13.072,29.284H12.23c0,0,13.182,0,13.182-7.32
			c0-5.49,0-21.964,0-21.964H15.129z"/>
		<path fill="#3E4347" d="M41.55,19.856c-7.324,0-7.324,1.464-7.324,15.374v13.91H62V19.856C62,19.856,43.381,19.856,41.55,19.856z"
			/>
		<path fill="#3BAACF" d="M2.051,49.141C2.02,49.639,2,50.131,2,50.605c0,3.188,2.536,5.777,5.693,5.855h0.005H62v-7.32H2.051z"/>
		<path fill="#FDF516" d="M11.521,56.461c0,0,7.343-7.32,21.98-7.32H62v7.32H11.521z"/>
		<path fill="#62696D" d="M47.409,34.498c-0.809,0-1.255,0.684-1.465,1.465l-1.281,10.25h-4.666c-1.377,0-1.377,0.873-1.377,1.951
			v0.977h10.255V34.498H47.409z"/>
		<path fill="#62696D" d="M60.534,34.498c-0.809,0-1.255,0.684-1.465,1.465l-1.281,10.25h-4.666c-1.377,0-1.377,0.873-1.377,1.951
			v0.977H62V34.498H60.534z"/>
		<ellipse fill="#FFFFFF" cx="6.395" cy="52.802" rx="0.732" ry="2.196"/>
		<path fill="#3BAACF" d="M25.426,56.461c0,0,11.335-7.32,24.626-7.32c0,0,11.948,0,11.948-11.076v18.396H25.426z"/>
	</g>
</g>
</svg>
