<?xml version="1.0" encoding="utf-8"?>
<!-- Generator: Adobe Illustrator 15.0.0, SVG Export Plug-In . SVG Version: 6.00 Build 0)  -->
<!DOCTYPE svg PUBLIC "-//W3C//DTD SVG 1.1//EN" "http://www.w3.org/Graphics/SVG/1.1/DTD/svg11.dtd">
<svg version="1.1" id="Layer_1" xmlns="http://www.w3.org/2000/svg" xmlns:xlink="http://www.w3.org/1999/xlink" x="0px" y="0px"
	 width="64px" height="64px" viewBox="0 0 64 64" enable-background="new 0 0 64 64" xml:space="preserve">
<g>
	<g>
		<g>
			<rect x="26" y="26" fill="#83BF4F" width="4" height="38"/>
			<rect x="31" y="30.002" fill="#42ADE2" width="19" height="6"/>
			<rect x="31" y="36.002" fill="#FC97B2" width="19" height="6"/>
			<rect x="14" y="30.002" fill="#42ADE2" width="11" height="6"/>
			<rect x="14" y="36.002" fill="#FC97B2" width="11" height="6"/>
			<rect x="31" y="42.002" fill="#42ADE2" width="19" height="6"/>
			<rect x="26" y="48" fill="#699635" width="4" height="2"/>
			<rect x="25" y="35" fill="#699635" width="6" height="2"/>
			<rect x="25" y="41" fill="#699635" width="6" height="2"/>
			<path fill="#42ADE2" d="M28,0c-7.732,0-14,6.268-14,14c0,3.866,1.567,7.366,4.101,9.9V23.9l9.899,1l9.901-1v0.001
				c2.533-2.534,4.1-6.034,4.1-9.9C42,6.268,35.732,0,28,0z"/>
			<path fill="#FF717F" d="M37.9,23.9l-2.828-2.828c-3.901,3.898-10.245,3.898-14.143,0L18.101,23.9
				c2.223,2.224,5.01,3.526,7.899,3.942v2.16h4v-2.16C32.89,27.426,35.676,26.124,37.9,23.9z"/>
			<g>
				<path fill="#FFFFFF" d="M34,15c0,1.1-0.9,2-2,2h-8c-1.1,0-2-0.9-2-2V7c0-1.1,0.9-2,2-2h8c1.1,0,2,0.9,2,2V15z"/>
				<path fill="#42ADE2" d="M32,10c0,0.55-0.449,1-1,1h-6c-0.549,0-1-0.45-1-1V8c0-0.55,0.451-1,1-1h6c0.551,0,1,0.45,1,1V10z"/>
				<circle fill="#42ADE2" cx="25" cy="14" r="1"/>
				<circle fill="#42ADE2" cx="31" cy="14" r="1"/>
				<path fill="#FFFFFF" d="M31,16v3c0,0.55,0.451,1,1,1c0.551,0,1-0.45,1-1v-3H31z"/>
				<path fill="#FFFFFF" d="M23,16v3c0,0.55,0.451,1,1,1c0.551,0,1-0.45,1-1v-3H23z"/>
			</g>
			<rect x="25" y="42.002" fill="#699635" width="6" height="6"/>
			<rect x="25" y="36.002" fill="#699635" width="6" height="6"/>
			<rect x="25" y="30.002" fill="#699635" width="6" height="6"/>
			<rect x="27" y="30" fill="#83BF4F" width="2" height="5"/>
			<rect x="27" y="37" fill="#83BF4F" width="2" height="4"/>
			<rect x="27" y="43" fill="#83BF4F" width="2" height="5"/>
		</g>
	</g>
	<rect x="15.941" y="31.562" fill="#FFFFFF" width="1.625" height="2.964"/>
	<rect x="19.515" y="31.562" fill="#FFFFFF" width="3.313" height="2.964"/>
	<rect x="15.941" y="37.501" fill="#FFFFFF" width="3.313" height="2.999"/>
	<rect x="21.171" y="37.502" fill="#FFFFFF" width="1.656" height="2.998"/>
	<rect x="42.57" y="31.531" fill="#FFFFFF" width="6.158" height="1"/>
	<rect x="35.203" y="31.531" fill="#FFFFFF" width="6.158" height="1"/>
	<rect x="38.633" y="33.525" fill="#FFFFFF" width="10.096" height="1"/>
	<rect x="37.414" y="43.504" fill="#FFFFFF" width="11.314" height="1"/>
	<rect x="45.027" y="45.498" fill="#FFFFFF" width="3.701" height="1"/>
	<rect x="33.254" y="45.498" fill="#FFFFFF" width="10.598" height="1"/>
	<rect x="41.498" y="37.503" fill="#FFFFFF" width="7.23" height="1"/>
	<rect x="32.927" y="37.503" fill="#FFFFFF" width="7.231" height="1"/>
	<rect x="44.961" y="39.498" fill="#FFFFFF" width="3.768" height="1"/>
	<rect x="40.115" y="39.498" fill="#FFFFFF" width="3.77" height="1"/>
	<rect x="35.463" y="39.498" fill="#FFFFFF" width="3.77" height="1"/>
</g>
</svg>
