<?xml version="1.0" encoding="utf-8"?>
<!-- Generator: Adobe Illustrator 15.0.0, SVG Export Plug-In . SVG Version: 6.00 Build 0)  -->
<!DOCTYPE svg PUBLIC "-//W3C//DTD SVG 1.1//EN" "http://www.w3.org/Graphics/SVG/1.1/DTD/svg11.dtd">
<svg version="1.1" id="Layer_1" xmlns="http://www.w3.org/2000/svg" xmlns:xlink="http://www.w3.org/1999/xlink" x="0px" y="0px"
	 width="64px" height="64px" viewBox="0 0 64 64" enable-background="new 0 0 64 64" xml:space="preserve">
<g>
	<polygon fill="#83BF4F" points="62,62 2,62 2,57.197 62,42.531 	"/>
	<polygon fill="#94989B" points="2,44.295 62,40.242 62,41.66 2,52.779 	"/>
	<polygon fill="#3E4347" points="2,41.656 62,37.982 62,39.963 2,44.295 	"/>
	<polygon fill="#3E4347" points="2,49.541 62,41.143 62,42.178 2,55.014 	"/>
	<polygon fill="#C5D0D8" points="2,53.613 62,41.863 62,42.531 2,59.088 	"/>
	<path fill="#DFECF4" d="M47.353,11.934c-0.943-0.556-3.129-0.815-4.168-0.633c-1.358,0.241-5.019,2.674-5.019,2.674
		s-1.99-2.509-3.954-4.093c-0.076,0.054-0.15,0.108-0.213,0.155c-3.006,2.277-8.804,7.908-11.877,10.051
		c-1.12,0.781-3.742,2.588-5.038,2.588c-2.7,0-8.255,0-9.266,0c-0.424,0-0.763-0.625-0.783-1.134
		c-0.084-2.073,3.171-7.852,5.94-12.374c-2.704,2.765-4.751,6.128-6.29,9.542c-1.496,3.319-2.516,6.681-3.205,9.571
		c-0.604,2.529-0.953,4.698-1.148,6.159l-0.141,1.17c-0.057,0.525-0.079,0.826-0.079,0.826l36.094,0.484L62,37.406V21.441
		C59.145,19.562,49.151,12.993,47.353,11.934z"/>
	<path fill="#42ADE2" d="M42.254,6.1c-1.237-0.634-3.85-1.509-5.18-1.75c-0.762-0.138-1.73-0.235-2.834-0.292
		c2.627,1.068,5.06,2.576,5.06,2.576s-3.636,2.203-5.088,3.248c1.964,1.584,3.954,4.093,3.954,4.093s3.66-2.433,5.019-2.674
		c1.039-0.183,3.225,0.077,4.168,0.633c1.799,1.06,11.792,7.628,14.647,9.508V20.1C62,20.1,47.524,8.805,42.254,6.1z"/>
	<path fill="#3E4347" d="M34.24,4.058C33.096,4,31.804,3.985,30.448,4.015c-5.596,0.122-10.892,0.578-14.065,2.357
		c-1.502,0.842-2.491,1.859-3.407,2.795c-2.77,4.522-6.024,10.301-5.94,12.374c0.021,0.509,0.359,1.134,0.783,1.134
		c1.011,0,6.565,0,9.266,0c1.296,0,3.918-1.807,5.038-2.588c3.073-2.144,8.871-7.774,11.877-10.051
		c0.063-0.047,0.137-0.101,0.213-0.155C35.664,8.837,39.3,6.634,39.3,6.634S36.867,5.126,34.24,4.058z"/>
	<path fill="#3E4347" d="M52.652,20.192v7.082c0.712,0.216,1.448,0.445,2.186,0.679v-6.675C54.101,20.9,53.365,20.534,52.652,20.192
		z"/>
	<path fill="#3E4347" d="M55.87,21.812v6.472c0.576,0.186,1.145,0.372,1.699,0.555v-6.123C57.015,22.417,56.446,22.114,55.87,21.812
		z"/>
	<path fill="#42ADE2" d="M30.073,32.01c3.777-1.274,10.932-5.514,14.811-6.222c0.722-0.132,2.192,0.06,2.913,0.194
		c0.94,0.175,2.308,0.539,3.845,0.99V19.72c-1.471-0.671-2.786-1.195-3.724-1.418c-0.654-0.157-2.029-0.227-2.67,0
		c-4.429,1.57-11.671,9.063-15.903,11.279c-3.259,1.706-10.081,4.859-13.637,4.859c-2.831,0-10.107,0-13.376,0
		c-0.062,0.469-0.107,0.857-0.141,1.17c3.254,0,10.93,0,13.922,0C19.683,35.609,26.638,33.17,30.073,32.01z"/>
	<path fill="#3E4347" d="M60.634,24.409v5.459c0.513,0.175,0.973,0.332,1.366,0.469v-5.151
		C61.606,24.96,61.146,24.697,60.634,24.409z"/>
	<path fill="#3E4347" d="M58.358,23.145v5.956c0.554,0.185,1.082,0.363,1.578,0.531v-5.614
		C59.441,23.74,58.912,23.447,58.358,23.145z"/>
	<path fill="#3E4347" d="M2.112,36.436c0,0,1.252,4.414,5.045,4.23L62,38.926v-1.52L2.112,36.436z"/>
	<path fill="#62727A" d="M5.927,40.555c0,0,2.402,1.605,0.542,3.275c-1.009,0.906,0.264,2.631,4.212,2.254
		C23.521,44.857,62,40.906,62,40.906v-1.98L5.927,40.555z"/>
	<path fill="#FFFFFF" d="M24.235,28.698c-1.623,1.636-3.745,2.15-4.742,1.146c-0.995-1.003-0.486-3.142,1.139-4.778
		c1.623-1.636,3.745-2.15,4.742-1.147C26.369,24.922,25.86,27.062,24.235,28.698z"/>
	<g>
		<path fill="#FFFFFF" d="M4.499,29.11c0.69-0.04,1.18-1.25,1.097-2.703c-0.063-1.108-0.441-2.032-0.923-2.393
			c-0.469,1.465-0.86,2.886-1.177,4.206C3.758,28.78,4.116,29.133,4.499,29.11z"/>
	</g>
</g>
</svg>
