<?xml version="1.0" encoding="utf-8"?>
<!-- Generator: Adobe Illustrator 15.0.0, SVG Export Plug-In . SVG Version: 6.00 Build 0)  -->
<!DOCTYPE svg PUBLIC "-//W3C//DTD SVG 1.1//EN" "http://www.w3.org/Graphics/SVG/1.1/DTD/svg11.dtd">
<svg version="1.1" id="Layer_1" xmlns="http://www.w3.org/2000/svg" xmlns:xlink="http://www.w3.org/1999/xlink" x="0px" y="0px"
	 width="64px" height="64px" viewBox="0 0 64 64" enable-background="new 0 0 64 64" xml:space="preserve">
<g>
	<path fill="#FFCE31" d="M45.955,20.395c-2.047,0-3.891-1.012-4.65-1.875c-0.76-0.864-2.604-1.876-4.651-1.876H21.727
		c-10.116,0-17.646,9.889-17.646,26.37c0,2.426,2.576,3.641,4.622,3.641h20.465c2.048,0,4.811-1.283,6.144-2.85
		c0,0,4.684-5.623,6.318-7.432c2.316-2.564,5.378-7.537,9.119-7.537h5.625v-8.441C56.374,20.395,48.561,20.395,45.955,20.395z"/>
	<path fill="#3E4347" d="M31.999,31.18c0,0.516-0.421,0.938-0.938,0.938h-3.75c-0.515,0-0.938-0.422-0.938-0.938V19.457
		c0-0.516,0.423-0.938,0.938-0.938h3.75c0.517,0,0.938,0.422,0.938,0.938V31.18z"/>
	<path fill="#3E4347" d="M22.624,18.508c-13.427,0-14.852,13.609-14.852,13.609h14.852c1.036,0,1.875-0.84,1.875-1.875l0.048-9.859
		C24.547,20.383,24.547,18.508,22.624,18.508z"/>
	<path fill="#FFCE31" d="M60.541,14.769c-1.895,0-7.917,5.626-7.917,5.626v8.367l2.593,1.564c0.816,0.678,1.761,0.436,2.1-0.539
		c0,0,3.442-9.935,4.591-13.245C62.244,15.566,61.631,14.769,60.541,14.769z"/>
	<path fill="#62727A" d="M36.687,54.079h-5.654c-0.138-3.521-0.772-7.732-3.7-10.413c-0.962-0.88-2.557,0.406-1.601,1.281
		c2.32,2.124,2.9,6.067,3.034,9.132H12.734c0.132-3.064,0.715-7.008,3.032-9.132c0.956-0.875-0.639-2.161-1.6-1.281
		c-2.927,2.681-3.563,6.893-3.699,10.413H7.624c0,0-3.749,0.232-4.687-3.917H2c0,0,0,6.326,5.551,6.326
		C7.577,56.49,7.599,56.5,7.624,56.5h29.063c0.517,0,0.938-0.833,0.938-1.268C37.624,54.799,37.203,54.079,36.687,54.079z"/>
	<path fill="#FFFFFF" d="M35.912,40.324c0.961-1.146,2.164-2.571,3.179-3.752H6.544c0,0-0.385,2.098-0.385,3.752H35.912z"/>
	<g>
		<g>
			<path fill="#62727A" d="M58.639,28.237l-4.022-3.222c-0.729-0.586-1.808-1.663-2.394-2.395l-3.219-4.022
				c-0.586-0.731-1.664-0.731-2.394,0c-0.732,0.73-0.732,1.809,0,2.395l4.02,3.221c0.732,0.586,1.809,1.663,2.395,2.395l3.22,4.024
				c0.587,0.73,1.664,0.73,2.395,0C59.369,29.901,59.369,28.824,58.639,28.237z"/>
			<circle fill="#B2C1C0" cx="52.624" cy="24.657" r="1.875"/>
		</g>
	</g>
	<path fill="#B2C1C0" d="M28.661,15.032c-0.136-0.66-0.707-1.202-1.267-1.202h-3.915c-0.561,0-1.132,0.542-1.268,1.202l-0.525,1.611
		h7.5L28.661,15.032z"/>
	<path fill="#62727A" d="M48.874,14.622c0,1.12-0.812,1.786-1.802,1.478c0,0-11.323-3.514-21.636-3.514
		c-11.25,0-21.645,3.476-21.645,3.476C2.807,16.39,2,15.742,2,14.622l0,0c0-1.12,0.834-2.176,1.853-2.346
		c0,0,10.334-1.729,21.584-1.729c10.313,0,21.582,1.749,21.582,1.749C48.039,12.456,48.874,13.502,48.874,14.622L48.874,14.622z"/>
	<rect x="24.499" y="9.142" fill="#B2C1C0" width="1.875" height="5.097"/>
	<path fill="#B2C1C0" d="M27.312,8.438c0,0.515-0.421,0.938-0.938,0.938h-1.875c-0.515,0-0.938-0.423-0.938-0.938l0,0
		c0-0.517,0.423-0.938,0.938-0.938h1.875C26.891,7.5,27.312,7.922,27.312,8.438L27.312,8.438z"/>
	<path fill="#62727A" d="M27.312,11.955c0,0.515-0.421,0.938-0.938,0.938h-1.875c-0.515,0-0.938-0.423-0.938-0.938v-0.938
		c0-0.516,0.423-0.938,0.938-0.938h1.875c0.517,0,0.938,0.422,0.938,0.938V11.955z"/>
</g>
</svg>
