<?xml version="1.0" encoding="utf-8"?>
<!-- Generator: Adobe Illustrator 15.0.0, SVG Export Plug-In . SVG Version: 6.00 Build 0)  -->
<!DOCTYPE svg PUBLIC "-//W3C//DTD SVG 1.1//EN" "http://www.w3.org/Graphics/SVG/1.1/DTD/svg11.dtd">
<svg version="1.1" id="Layer_1" xmlns="http://www.w3.org/2000/svg" xmlns:xlink="http://www.w3.org/1999/xlink" x="0px" y="0px"
	 width="64px" height="64px" viewBox="0 0 64 64" enable-background="new 0 0 64 64" xml:space="preserve">
<g>
	<g>
		<ellipse fill="#94989B" cx="11.025" cy="57.246" rx="4.655" ry="4.754"/>
		<path fill="#3E4347" d="M11.025,60.416c-1.712,0-3.104-1.421-3.104-3.17c0-1.748,1.392-3.168,3.104-3.168
			c1.712,0,3.104,1.42,3.104,3.168C14.129,58.995,12.738,60.416,11.025,60.416z M11.025,55.662c-0.855,0-1.552,0.711-1.552,1.584
			c0,0.874,0.697,1.586,1.552,1.586c0.855,0,1.552-0.712,1.552-1.586C12.577,56.373,11.881,55.662,11.025,55.662z"/>
	</g>
	<g>
		<ellipse fill="#94989B" cx="21.37" cy="57.246" rx="4.655" ry="4.754"/>
		<path fill="#3E4347" d="M21.37,60.416c-1.713,0-3.104-1.421-3.104-3.17c0-1.748,1.391-3.168,3.104-3.168s3.104,1.42,3.104,3.168
			C24.474,58.995,23.083,60.416,21.37,60.416z M21.37,55.662c-0.854,0-1.553,0.711-1.553,1.584c0,0.874,0.698,1.586,1.553,1.586
			c0.855,0,1.552-0.712,1.552-1.586C22.922,56.373,22.226,55.662,21.37,55.662z"/>
	</g>
	<g>
		<ellipse fill="#94989B" cx="42.629" cy="57.246" rx="4.655" ry="4.754"/>
		<path fill="#3E4347" d="M42.63,60.416c-1.713,0-3.104-1.421-3.104-3.17c0-1.748,1.391-3.168,3.104-3.168s3.104,1.42,3.104,3.168
			C45.733,58.995,44.343,60.416,42.63,60.416z M42.63,55.662c-0.855,0-1.553,0.711-1.553,1.584c0,0.874,0.697,1.586,1.553,1.586
			s1.552-0.712,1.552-1.586C44.182,56.373,43.485,55.662,42.63,55.662z"/>
	</g>
	<g>
		<ellipse fill="#94989B" cx="52.975" cy="57.246" rx="4.655" ry="4.754"/>
		<path fill="#3E4347" d="M52.975,60.416c-1.712,0-3.104-1.421-3.104-3.17c0-1.748,1.392-3.168,3.104-3.168s3.104,1.42,3.104,3.168
			C56.078,58.995,54.687,60.416,52.975,60.416z M52.975,55.662c-0.854,0-1.552,0.711-1.552,1.584c0,0.874,0.697,1.586,1.552,1.586
			c0.855,0,1.552-0.712,1.552-1.586C54.526,56.373,53.83,55.662,52.975,55.662z"/>
	</g>
	<path fill="#F2B200" d="M54.294,20H9.706c-2.985,0-5.405,2.471-5.405,5.518v31.729h55.397V25.518
		C59.698,22.471,57.278,20,54.294,20z"/>
	<path fill="#699635" d="M54.294,20H9.706c-2.985,0-5.405,2.471-5.405,5.518v2.759h55.397v-2.759C59.698,22.471,57.278,20,54.294,20
		z"/>
	<rect x="4.301" y="28.277" fill="#FFE62E" width="55.397" height="15.174"/>
	<rect x="3.668" y="54.487" fill="#3E4347" width="0.633" height="2.759"/>
	<rect x="2" y="53.107" fill="#3E4347" width="1.668" height="5.52"/>
	<rect x="59.698" y="54.487" fill="#3E4347" width="0.634" height="2.759"/>
	<rect x="60.332" y="53.107" fill="#3E4347" width="1.668" height="5.52"/>
	<polygon fill="#89664C" points="26.036,52.051 37.964,52.051 40.667,49.293 59.698,49.293 59.698,46.535 39.548,46.535 
		36.845,49.293 27.155,49.293 24.452,46.535 4.301,46.535 4.301,49.293 23.333,49.293 	"/>
	<path fill="#3E4347" d="M56.595,39.637c0,0.582-0.463,1.057-1.034,1.057h-6.037c-0.571,0-1.034-0.475-1.034-1.057v-7.545
		c0-0.582,0.463-1.056,1.034-1.056h6.037c0.571,0,1.034,0.474,1.034,1.056V39.637z"/>
	<path fill="#3E4347" d="M46.324,39.637c0,0.582-0.463,1.057-1.034,1.057h-6.038c-0.571,0-1.034-0.475-1.034-1.057v-7.545
		c0-0.582,0.463-1.056,1.034-1.056h6.038c0.571,0,1.034,0.474,1.034,1.056V39.637z"/>
	<path fill="#3E4347" d="M36.054,39.637c0,0.582-0.463,1.057-1.035,1.057h-6.037c-0.572,0-1.035-0.475-1.035-1.057v-7.545
		c0-0.582,0.463-1.056,1.035-1.056h6.037c0.572,0,1.035,0.474,1.035,1.056V39.637z"/>
	<path fill="#3E4347" d="M25.782,39.637c0,0.582-0.463,1.057-1.034,1.057H18.71c-0.571,0-1.034-0.475-1.034-1.057v-7.545
		c0-0.582,0.463-1.056,1.034-1.056h6.038c0.571,0,1.034,0.474,1.034,1.056V39.637z"/>
	<path fill="#3E4347" d="M15.511,39.637c0,0.582-0.463,1.057-1.035,1.057H8.439c-0.571,0-1.035-0.475-1.035-1.057v-7.545
		c0-0.582,0.463-1.056,1.035-1.056h6.037c0.571,0,1.035,0.474,1.035,1.056V39.637z"/>
	<rect x="4.301" y="53.107" fill="#3E4347" width="55.397" height="4.139"/>
	<path fill="#B4D7EE" d="M14.358,38.487c0,0.511-0.406,0.926-0.907,0.926H9.465c-0.501,0-0.907-0.415-0.907-0.926v-5.246
		c0-0.511,0.406-0.925,0.907-0.925h3.985c0.501,0,0.907,0.415,0.907,0.925V38.487z"/>
	<path fill="#B4D7EE" d="M24.63,38.487c0,0.511-0.406,0.926-0.908,0.926h-3.984c-0.502,0-0.908-0.415-0.908-0.926v-5.246
		c0-0.511,0.406-0.925,0.908-0.925h3.984c0.502,0,0.908,0.415,0.908,0.925V38.487z"/>
	<path fill="#B4D7EE" d="M34.899,38.487c0,0.511-0.405,0.926-0.906,0.926h-3.986c-0.5,0-0.906-0.415-0.906-0.926v-5.246
		c0-0.511,0.406-0.925,0.906-0.925h3.986c0.501,0,0.906,0.415,0.906,0.925V38.487z"/>
	<path fill="#B4D7EE" d="M45.171,38.487c0,0.511-0.406,0.926-0.907,0.926h-3.985c-0.501,0-0.906-0.415-0.906-0.926v-5.246
		c0-0.511,0.405-0.925,0.906-0.925h3.985c0.501,0,0.907,0.415,0.907,0.925V38.487z"/>
	<path fill="#B4D7EE" d="M55.442,38.487c0,0.511-0.406,0.926-0.908,0.926H50.55c-0.501,0-0.907-0.415-0.907-0.926v-5.246
		c0-0.511,0.406-0.925,0.907-0.925h3.984c0.502,0,0.908,0.415,0.908,0.925V38.487z"/>
</g>
</svg>
