<?xml version="1.0" encoding="utf-8"?>
<!-- Generator: Adobe Illustrator 15.0.0, SVG Export Plug-In . SVG Version: 6.00 Build 0)  -->
<!DOCTYPE svg PUBLIC "-//W3C//DTD SVG 1.1//EN" "http://www.w3.org/Graphics/SVG/1.1/DTD/svg11.dtd">
<svg version="1.1" id="Layer_1" xmlns="http://www.w3.org/2000/svg" xmlns:xlink="http://www.w3.org/1999/xlink" x="0px" y="0px"
	 width="64px" height="64px" viewBox="0 0 64 64" enable-background="new 0 0 64 64" xml:space="preserve">
<g>
	<path fill="#FF9D27" d="M10.893,48.732c4.012-4.014,4.395-4.966,6.857-2.505c2.465,2.464,1.51,2.849-2.504,6.86
		c-2.988,2.988-6.777,2.422-6.777,2.422S7.902,51.721,10.893,48.732z"/>
	<g>
		<path fill="#FF9D27" d="M18.516,52.842c1.555-4.189,2.077-4.742-0.196-5.997c-2.27-1.253-2.267-0.409-3.82,3.78
			c-1.157,3.121,0.227,5.912,0.227,5.912S17.359,55.963,18.516,52.842z"/>
		<path fill="#FDF516" d="M16.2,48.943c0.863-2.324,0.861-2.793,2.119-2.099c1.264,0.696,0.974,1.005,0.108,3.327
			c-0.642,1.732-2.101,2.051-2.101,2.051S15.557,50.674,16.2,48.943z"/>
		<path fill="#FF9D27" d="M17.133,45.658c-1.254-2.271-1.808-1.75-5.998-0.194c-3.118,1.157-3.693,3.789-3.693,3.789
			s2.791,1.384,5.912,0.227C17.543,47.925,18.387,47.93,17.133,45.658z"/>
		<path fill="#FDF516" d="M15.036,47.777c2.324-0.861,2.792-0.861,2.097-2.119c-0.697-1.262-1.004-0.971-3.327-0.108
			c-1.731,0.642-2.051,2.102-2.051,2.102S13.304,48.42,15.036,47.777z"/>
	</g>
	<path fill="#FDF516" d="M13.944,47.619c2.227-2.227,2.44-2.756,3.806-1.392c1.367,1.368,0.839,1.582-1.391,3.806
		c-1.655,1.66-3.759,1.346-3.759,1.346S12.287,49.276,13.944,47.619z"/>
	<g>
		<g>
			<g>
				<path fill="#3BAACF" d="M18.52,38.032C12.268,27.622,2,31.917,2,31.917s14.71-14.708,24.588-4.831L18.52,38.032z"/>
			</g>
			<g>
				<path fill="#428BC1" d="M23.347,30.327l3.241-3.24C16.71,17.209,2,31.917,2,31.917S14.905,22.654,23.347,30.327z"/>
			</g>
		</g>
		<g>
			<g>
				<path fill="#3BAACF" d="M25.971,45.482C36.382,51.734,32.084,62,32.084,62s14.711-14.707,4.831-24.586L25.971,45.482z"/>
			</g>
			<g>
				<path fill="#428BC1" d="M33.676,40.654l3.239-3.24C46.795,47.293,32.084,62,32.084,62S41.349,49.097,33.676,40.654z"/>
			</g>
		</g>
	</g>
	<path fill="#C5D0D8" d="M48.769,30.877C37.137,42.506,24.174,48.76,19.696,44.281c-4.479-4.479,1.774-17.442,13.405-29.071
		C46.661,1.651,61.809,2.17,61.809,2.17S62.33,17.317,48.769,30.877z"/>
	<path fill="#DAE3EA" d="M45.831,27.58C34.2,39.208,22.577,46.801,19.889,44.111c-2.69-2.688,4.904-14.312,16.534-25.939
		C49.982,4.611,62,2,62,2S59.391,14.018,45.831,27.58z"/>
	<path fill="#C94747" d="M24.315,47.451c-0.498,0.502-1.269,0.542-1.771,0.042l-5.977-5.978c-0.5-0.5-0.54-1.353-0.04-1.854
		l1.811-1.813l7.788,7.792L24.315,47.451z"/>
	<path fill="#F15744" d="M22.608,45.745c-0.5,0.5-1.107,0.701-1.39,0.419l-3.358-3.357c-0.282-0.281-0.127-0.938,0.374-1.438
		l1.811-1.813l4.375,4.377L22.608,45.745z"/>
	<path fill="#3E4347" d="M20.874,48.178c-0.323,0.322-0.95,0.315-1.275-0.01l-3.886-3.885c-0.325-0.326-0.234-0.854,0.091-1.178
		l1.176-1.178l5.073,5.07L20.874,48.178z"/>
	<path fill="#62727A" d="M20.107,47.409c-0.326,0.324-0.856,0.412-1.08,0.185l-2.71-2.707c-0.229-0.229-0.072-0.688,0.252-1.016
		l1.179-1.177l3.537,3.536L20.107,47.409z"/>
	<g>
		<path fill="#C94747" d="M61.81,2.171c0,0-5.442-0.194-12.724,2.58l10.144,10.144C62.007,7.612,61.81,2.171,61.81,2.171z"/>
	</g>
	<g>
		<path fill="#F15744" d="M61.81,2.171c0,0-4.346,0.9-10.757,4.55l6.207,6.206C60.911,6.517,61.81,2.171,61.81,2.171z"/>
	</g>
	<g>
		<g>
			<g>
				<circle fill="#EDF4F9" cx="43.478" cy="20.504" r="5.001"/>
			</g>
		</g>
	</g>
	<g>
		<circle fill="#3BAACF" cx="43.477" cy="20.504" r="3.333"/>
	</g>
	<g>
		<circle fill="#EDF4F9" cx="33.473" cy="30.507" r="5.001"/>
	</g>
	<g>
		<circle fill="#3BAACF" cx="33.473" cy="30.506" r="3.334"/>
	</g>
	<g>
		<path fill="#FFFFFF" d="M48.852,6.876c-0.322,0.325-0.852,0.326-1.179,0c-0.325-0.326-0.324-0.854-0.001-1.179
			c0.328-0.325,0.855-0.326,1.18,0C49.179,6.023,49.179,6.551,48.852,6.876z"/>
		<circle fill="#FFFFFF" cx="50.621" cy="8.644" r="0.833"/>
		<circle fill="#FFFFFF" cx="52.979" cy="11.002" r="0.834"/>
		<circle fill="#FFFFFF" cx="55.335" cy="13.36" r="0.834"/>
		<circle fill="#FFFFFF" cx="57.694" cy="15.717" r="0.834"/>
	</g>
</g>
</svg>
