<?xml version="1.0" encoding="utf-8"?>
<!-- Generator: Adobe Illustrator 15.0.0, SVG Export Plug-In . SVG Version: 6.00 Build 0)  -->
<!DOCTYPE svg PUBLIC "-//W3C//DTD SVG 1.1//EN" "http://www.w3.org/Graphics/SVG/1.1/DTD/svg11.dtd">
<svg version="1.1" id="Layer_1" xmlns="http://www.w3.org/2000/svg" xmlns:xlink="http://www.w3.org/1999/xlink" x="0px" y="0px"
	 width="64px" height="64px" viewBox="0 0 64 64" enable-background="new 0 0 64 64" xml:space="preserve">
<g>
	<g>
		<g>
			<path fill="#3E4347" d="M43.893,7.372h-2.625c0-1.595-1.373-2.893-3.063-2.893H25.794c-1.688,0-3.063,1.298-3.063,2.893h-2.625
				C20.107,4.41,22.658,2,25.794,2h12.411C41.342,2,43.893,4.41,43.893,7.372z"/>
		</g>
		<g>
			<polygon fill="#3E4347" points="28.523,10.465 27.083,10.96 24.191,3.453 25.63,2.958 			"/>
			<polygon fill="#3E4347" points="35.477,10.465 36.916,10.96 39.809,3.453 38.371,2.958 			"/>
		</g>
	</g>
	<g>
		<g>
			<polygon fill="#94989B" points="17.428,50.212 9.385,62 13.743,62 21.504,50.212 			"/>
			<polygon fill="#E6E6E6" points="17.428,50.212 13.351,50.212 4,62 9.385,62 			"/>
			<polygon fill="#94989B" points="46.572,50.212 42.496,50.212 50.258,62 54.615,62 			"/>
			<polygon fill="#E6E6E6" points="46.572,50.212 54.615,62 60,62 50.648,50.212 			"/>
		</g>
		<polygon fill="#666666" points="43.242,51.344 20.76,51.344 13.743,62 50.258,62 		"/>
		<path fill="#C7E755" d="M53.254,47.977c0,14.558-42.508,14.558-42.508,0V23.058c0-18.599,42.508-18.599,42.508,0V47.977z"/>
		<path fill="#DAE3EA" d="M53.254,39.68H10.747l-0.001-16.622c0-18.599,42.508-18.599,42.508,0V39.68z"/>
		<g>
			<path fill="#83BF4F" d="M50.762,48.294c0,1.14-1.08,2.063-2.412,2.063h-5.803c-1.334,0-2.412-0.924-2.412-2.063l0,0
				c0-1.139,1.078-2.062,2.412-2.062h5.803C49.682,46.232,50.762,47.155,50.762,48.294L50.762,48.294z"/>
		</g>
		<g>
			<path fill="#83BF4F" d="M13.238,48.294c0-1.139,1.081-2.062,2.412-2.062h5.805c1.332,0,2.41,0.923,2.41,2.062l0,0
				c0,1.14-1.078,2.063-2.41,2.063H15.65C14.319,50.357,13.238,49.434,13.238,48.294L13.238,48.294z"/>
		</g>
		<g>
			<path fill="#D6EEF0" d="M16.933,48.294c0-1.139,1.081-2.062,2.411-2.062h2.111c1.332,0,2.41,0.923,2.41,2.062l0,0
				c0,1.14-1.078,2.063-2.41,2.063h-2.111C18.014,50.357,16.933,49.434,16.933,48.294L16.933,48.294z"/>
		</g>
		<g>
			<path fill="#D6EEF0" d="M40.135,48.294c0-1.139,1.082-2.062,2.412-2.062h2.109c1.332,0,2.412,0.923,2.412,2.062l0,0
				c0,1.14-1.08,2.063-2.412,2.063h-2.109C41.217,50.357,40.135,49.434,40.135,48.294L40.135,48.294z"/>
		</g>
		<path fill="#3E4347" d="M50.723,39.713c0,1.559-37.445,1.559-37.445,0V21.076c0-1.559,37.445-1.559,37.445,0V39.713z"/>
	</g>
</g>
</svg>
