<?xml version="1.0" encoding="utf-8"?>
<!-- Generator: Adobe Illustrator 15.0.0, SVG Export Plug-In . SVG Version: 6.00 Build 0)  -->
<!DOCTYPE svg PUBLIC "-//W3C//DTD SVG 1.1//EN" "http://www.w3.org/Graphics/SVG/1.1/DTD/svg11.dtd">
<svg version="1.1" id="Layer_1" xmlns="http://www.w3.org/2000/svg" xmlns:xlink="http://www.w3.org/1999/xlink" x="0px" y="0px"
	 width="64px" height="64px" viewBox="0 0 64 64" enable-background="new 0 0 64 64" xml:space="preserve">
<g>
	<path fill="#C5D0D8" d="M61.998,37.584L2,39.637l0.002-16.074c0-2.589,2.098-4.688,4.688-4.688h50.623
		c2.589,0,4.688,2.099,4.688,4.688L61.998,37.584z"/>
	<path fill="#3E4347" d="M60.123,39.459H3.875l0.002-14.021c0-2.589,2.098-4.688,4.688-4.688h46.873
		c2.589,0,4.688,2.099,4.688,4.688L60.123,39.459z"/>
	<g>
		<polygon fill="#C5D0D8" points="2,38.699 2,50.184 61.998,50.184 61.998,36.646 21.701,36.646 		"/>
		<rect x="2" y="50.184" fill="#428BC1" width="59.998" height="6.299"/>
		<rect x="2" y="46.176" fill="#FFFFFF" width="59.998" height="1.986"/>
		<path fill="#63686B" d="M49.584,46.25c-4.569,0-8.275,3.76-8.275,8.4c0,0.629,0.069,1.244,0.199,1.834l16.154-0.002
			c0.128-0.59,0.198-1.203,0.198-1.832C57.86,50.01,54.154,46.25,49.584,46.25z"/>
		<path fill="#63686B" d="M18.55,46.25c-4.569,0-8.273,3.76-8.273,8.4c0,0.629,0.068,1.244,0.198,1.834l16.154-0.002
			c0.13-0.59,0.198-1.203,0.198-1.832C26.826,50.01,23.12,46.25,18.55,46.25z"/>
		<g>
			<path fill="#3E4347" d="M49.584,47.301c-3.998,0-7.241,3.287-7.241,7.35c0,4.059,3.243,7.35,7.241,7.35
				c3.999,0,7.241-3.291,7.241-7.35C56.825,50.588,53.583,47.301,49.584,47.301z"/>
			<ellipse fill="#94989B" cx="49.584" cy="54.649" rx="3.619" ry="3.675"/>
		</g>
		<g>
			<path fill="#3E4347" d="M18.55,47.301c-3.998,0-7.239,3.287-7.239,7.35c0,4.059,3.241,7.35,7.239,7.35
				c4.001,0,7.242-3.291,7.242-7.35C25.792,50.588,22.551,47.301,18.55,47.301z"/>
			<path fill="#94989B" d="M18.55,50.975c-1.996,0-3.619,1.646-3.619,3.676c0,2.027,1.624,3.674,3.619,3.674
				c1.998,0,3.622-1.646,3.622-3.674C22.172,52.621,20.548,50.975,18.55,50.975z"/>
		</g>
		<g>
			<polygon fill="#3E4347" points="8.383,39.564 2,39.564 2,45.426 8.383,44.18 			"/>
			<g>
				<path fill="#FFFFFF" d="M5.056,42.496c0,1.297-0.85,2.348-1.899,2.348c-0.822,0-0.796,0-0.796-2.348
					c0-2.354-0.028-2.354,0.796-2.354C4.207,40.143,5.056,41.195,5.056,42.496z"/>
				<path fill="#FFFFFF" d="M7.951,42.105c0,1.086-0.712,1.963-1.588,1.963c-0.685,0-0.663,0-0.663-1.963s-0.024-1.963,0.663-1.963
					C7.239,40.143,7.951,41.021,7.951,42.105z"/>
			</g>
		</g>
		<rect x="2" y="52.17" fill="#3E4347" width="4.825" height="1.969"/>
	</g>
	<g>
		<rect x="16.531" y="20.251" fill="#C5D0D8" width="1.877" height="17.792"/>
		<rect x="15.595" y="20.75" fill="#3E4347" width="0.938" height="7.108"/>
		<rect x="18.407" y="20.75" fill="#3E4347" width="0.938" height="7.108"/>
	</g>
	<g>
		<rect x="31.063" y="20.098" fill="#C5D0D8" width="1.875" height="17.792"/>
		<rect x="30.126" y="20.75" fill="#3E4347" width="0.938" height="7.108"/>
		<rect x="32.938" y="20.75" fill="#3E4347" width="0.938" height="7.108"/>
	</g>
	<g>
		<rect x="45.594" y="20.098" fill="#C5D0D8" width="1.875" height="17.792"/>
		<rect x="44.657" y="20.75" fill="#3E4347" width="0.938" height="7.108"/>
		<rect x="47.47" y="20.75" fill="#3E4347" width="0.938" height="7.108"/>
	</g>
	<g>
		<rect x="25.437" y="15.125" fill="#3E4347" width="13.125" height="3.75"/>
		<rect x="2" y="2" fill="#3E4347" width="59.998" height="1.875"/>
		
			<rect x="32.574" y="6.616" transform="matrix(0.8519 0.5237 -0.5237 0.8519 11.0352 -15.5438)" fill="#3E4347" width="0.86" height="10.251"/>
		
			<rect x="37.995" y="8.092" transform="matrix(0.8517 0.524 -0.524 0.8517 12.684 -18.3899)" fill="#3E4347" width="1.682" height="10.251"/>
		
			<rect x="35.282" y="1.954" transform="matrix(0.7881 -0.6155 0.6155 0.7881 2.7444 23.6413)" fill="#3E4347" width="0.86" height="11.76"/>
		
			<rect x="37.874" y="1.827" transform="matrix(0.7879 -0.6158 0.6158 0.7879 4.3402 25.2134)" fill="#3E4347" width="1.796" height="8.958"/>
	</g>
	<g>
		<polygon fill="#F15744" points="62,45.609 59.684,45.613 59.684,42.75 62,42.748 		"/>
		<polygon fill="#FFD45C" points="59.684,39.887 62,38.949 62,42.75 59.684,42.75 		"/>
	</g>
</g>
</svg>
