<?xml version="1.0" encoding="utf-8"?>
<!-- Generator: Adobe Illustrator 15.0.0, SVG Export Plug-In . SVG Version: 6.00 Build 0)  -->
<!DOCTYPE svg PUBLIC "-//W3C//DTD SVG 1.1//EN" "http://www.w3.org/Graphics/SVG/1.1/DTD/svg11.dtd">
<svg version="1.1" id="Layer_1" xmlns="http://www.w3.org/2000/svg" xmlns:xlink="http://www.w3.org/1999/xlink" x="0px" y="0px"
	 width="64px" height="64px" viewBox="0 0 64 64" enable-background="new 0 0 64 64" xml:space="preserve">
<g>
	<g>
		<path fill="#3E4347" d="M11,56.974v3.016c0,1.106,0.901,2.011,2,2.011h4C18.1,62,19,61.096,19,59.989v-3.016H11z"/>
		<path fill="#3E4347" d="M45.001,56.974v3.016c0,1.106,0.9,2.011,1.999,2.011h4.001c1.099,0,2-0.904,2-2.011v-3.016H45.001z"/>
	</g>
	<path fill="#C5D0D8" d="M56,53.958c0,1.665-1.343,3.016-2.999,3.016H11c-1.657,0-3-1.351-3-3.016V7.71c0-1.666,1.343-3.016,3-3.016
		h42C54.657,4.694,56,6.044,56,7.71V53.958z"/>
	<path fill="#428BC1" d="M56,53.958c0,1.665-1.343,3.016-2.999,3.016H11c-1.657,0-3-1.351-3-3.016v-6.033h48V53.958z"/>
	<path fill="#3E4347" d="M54.688,35.497c0,1.666-1.344,3.016-3.001,3.016H12.313c-1.657,0-3-1.35-3-3.016V17.764
		c0-1.665,1.343-3.016,3-3.016h39.374c1.657,0,3.001,1.351,3.001,3.016V35.497z"/>
	<g>
		<rect x="10.553" y="49.469" fill="#3E4347" width="8.896" height="5.962"/>
		<rect x="11.974" y="50.959" fill="#F15744" width="5.931" height="2.981"/>
	</g>
	<g>
		<rect x="44.552" y="49.469" fill="#3E4347" width="8.897" height="5.962"/>
		<rect x="45.973" y="50.959" fill="#F15744" width="5.933" height="2.981"/>
	</g>
	<path fill="#3E4347" d="M47.95,11.502c0,0.985-0.794,1.782-1.772,1.782H17.824c-0.979,0-1.772-0.797-1.772-1.782V7.94
		c0-0.985,0.793-1.782,1.772-1.782h28.354c0.979,0,1.772,0.797,1.772,1.782V11.502z"/>
	<path fill="#B2C1C0" d="M16.051,4.694C16.051,3.205,16.844,2,17.824,2h28.354c0.979,0,1.772,1.205,1.772,2.694H16.051z"/>
	<g>
		<rect x="22" y="43.393" fill="#3E4347" width="19.999" height="11.051"/>
		<rect x="22.909" y="44.398" fill="#62727A" width="18.182" height="1.005"/>
		<rect x="12.538" y="34.268" fill="#62727A" width="18.181" height="1.005"/>
		<polygon fill="#62727A" points="27.717,38.513 20.531,34.769 21.082,34.455 28.654,38.513 		"/>
		<rect x="33.318" y="34.268" fill="#62727A" width="18.183" height="1.005"/>
		<polygon fill="#62727A" points="48.498,38.513 41.313,34.769 41.864,34.455 49.436,38.513 		"/>
		<rect x="22.909" y="46.409" fill="#62727A" width="18.182" height="1.006"/>
		<rect x="22.909" y="48.419" fill="#62727A" width="18.182" height="1.007"/>
		<rect x="22.909" y="50.43" fill="#62727A" width="18.182" height="1.006"/>
		<rect x="22.909" y="52.441" fill="#62727A" width="18.182" height="1.005"/>
	</g>
	<g>
		<g>
			<ellipse fill="#FFFFFF" cx="52.222" cy="43.461" rx="2.899" ry="2.915"/>
			<ellipse fill="#FFFFFF" cx="45.954" cy="43.461" rx="2.9" ry="2.915"/>
		</g>
		<g>
			<ellipse fill="#FFFFFF" cx="18.047" cy="43.461" rx="2.899" ry="2.915"/>
			<ellipse fill="#FFFFFF" cx="11.78" cy="43.461" rx="2.9" ry="2.915"/>
		</g>
	</g>
	<g>
		<path fill="#62727A" d="M8,24.802c0,0.556-0.447,1.005-1,1.005h-2c-0.553,0-1-0.449-1-1.005v-8.043c0-0.556,0.447-1.005,1-1.005h2
			c0.553,0,1,0.45,1,1.005V24.802z"/>
		<polygon fill="#62727A" points="5.839,16.716 5.131,16.006 10.87,10.237 10.87,11.659 		"/>
	</g>
	<g>
		<path fill="#62727A" d="M56,24.802c0,0.556,0.448,1.005,1,1.005h2.001c0.553,0,0.999-0.449,0.999-1.005v-8.043
			c0-0.556-0.446-1.005-0.999-1.005H57c-0.552,0-1,0.45-1,1.005V24.802z"/>
		<polygon fill="#62727A" points="58.162,16.716 58.869,16.006 53.131,10.237 53.131,11.659 		"/>
	</g>
	<g>
		<path fill="#C7E755" d="M20.458,7.986v1.268L20.06,9.655l-0.133-0.133V7.787L20.458,7.986z M19.927,11.655V9.921l0.133-0.133
			l0.397,0.4v1.268L19.927,11.655z M22.448,12.123h-2.19c-0.177-0.045-0.287-0.156-0.331-0.334l0.53-0.2h1.791L22.448,12.123z
			 M22.248,7.854h-1.784l-0.53-0.2c0.044-0.178,0.155-0.289,0.332-0.334h2.183L22.248,7.854z M22.183,9.455l0.265,0.266
			l-0.265,0.268h-1.726l-0.266-0.268l0.266-0.266H22.183z"/>
		<path fill="#C7E755" d="M23.642,7.986v1.268l-0.397,0.401l-0.133-0.133V7.787L23.642,7.986z M23.642,10.188v1.401l-0.199,0.534
			c-0.178-0.045-0.288-0.156-0.332-0.334V9.921l0.133-0.133L23.642,10.188z M25.234,7.854h-1.585l-0.531-0.2
			c0.044-0.178,0.154-0.289,0.331-0.334h1.983L25.234,7.854z M24.77,9.521l-0.266,0.266l-0.265-0.266V7.986h0.53V9.521z
			 M25.367,9.254v-1.4l0.198-0.534c0.178,0.045,0.289,0.156,0.332,0.334v1.868l-0.132,0.133L25.367,9.254z M25.765,9.788
			l0.132,0.133v1.868c-0.043,0.178-0.154,0.289-0.332,0.334l-0.198-0.534v-1.401L25.765,9.788z"/>
		<path fill="#C7E755" d="M26.693,9.655l-0.133-0.133V7.986l0.332-0.333l0.199,0.2v1.4L26.693,9.655z M27.091,10.188v1.401
			l-0.199,0.2l-0.332-0.333V9.921l0.133-0.133L27.091,10.188z M28.684,7.854h-1.458l-0.266-0.266l0.266-0.268h1.458l0.266,0.268
			L28.684,7.854z M28.949,11.855l-0.266,0.267h-1.458l-0.266-0.267l0.266-0.267h1.458L28.949,11.855z M28.816,9.254v-1.4l0.199-0.2
			l0.332,0.333v1.535l-0.133,0.133L28.816,9.254z M29.214,9.788l0.133,0.133v1.535l-0.332,0.333l-0.199-0.2v-1.401L29.214,9.788z"/>
		<path fill="#C7E755" d="M30.01,11.655V9.921l0.133-0.133l0.397,0.4v1.268L30.01,11.655z M32.331,12.123h-1.989
			c-0.178-0.045-0.288-0.156-0.332-0.334l0.53-0.2h1.593L32.331,12.123z M32.266,9.254v-1.4l0.199-0.534
			c0.177,0.045,0.287,0.156,0.331,0.334v1.868l-0.133,0.133L32.266,9.254z M32.663,9.788l0.133,0.133v1.868
			c-0.044,0.178-0.154,0.289-0.331,0.334l-0.199-0.534v-1.401L32.663,9.788z"/>
		<path fill="#C7E755" d="M33.459,9.254v-1.4l0.2-0.534c0.176,0.045,0.287,0.156,0.331,0.334v1.868l-0.132,0.133L33.459,9.254z
			 M33.858,9.721l0.132,0.134v1.867c-0.044,0.179-0.155,0.29-0.331,0.334l-0.2-0.534v-1.4L33.858,9.721z"/>
		<path fill="#C7E755" d="M34.787,9.655l-0.132-0.133V7.986l0.331-0.333l0.198,0.2v1.4L34.787,9.655z M35.185,10.188v1.401
			l-0.198,0.2l-0.331-0.333V9.921l0.132-0.133L35.185,10.188z M36.777,7.854h-1.459l-0.266-0.266l0.266-0.268h1.459l0.266,0.268
			L36.777,7.854z M37.043,11.855l-0.266,0.267h-1.459l-0.266-0.267l0.266-0.267h1.459L37.043,11.855z M36.909,9.254v-1.4l0.199-0.2
			l0.332,0.333v1.535l-0.132,0.133L36.909,9.254z M37.309,9.788l0.132,0.133v1.535l-0.332,0.333l-0.199-0.2v-1.401L37.309,9.788z"/>
		<path fill="#C7E755" d="M38.236,9.721l-0.134-0.133V7.721c0.044-0.178,0.156-0.29,0.334-0.334l0.197,0.534v1.401L38.236,9.721z
			 M38.634,10.188v1.401l-0.197,0.534c-0.178-0.045-0.29-0.156-0.334-0.334V9.921l0.134-0.133L38.634,10.188z M40.227,9.321h-0.465
			l-0.994-1v-0.4h0.397l1.062,1.067V9.321z M40.358,9.321V7.92l0.2-0.534c0.178,0.044,0.287,0.156,0.331,0.334v1.867l-0.132,0.133
			L40.358,9.321z M40.758,9.788l0.132,0.133v1.868c-0.044,0.178-0.153,0.289-0.331,0.334l-0.2-0.534v-1.401L40.758,9.788z"/>
		<path fill="#C7E755" d="M42.084,7.986v1.268l-0.397,0.401l-0.134-0.133V7.787L42.084,7.986z M41.553,11.655V9.921l0.134-0.133
			l0.397,0.4v1.268L41.553,11.655z M44.074,12.123h-2.19c-0.178-0.045-0.287-0.156-0.331-0.334l0.531-0.2h1.79L44.074,12.123z
			 M43.874,7.854h-1.783l-0.531-0.2c0.044-0.178,0.154-0.289,0.332-0.334h2.183L43.874,7.854z M43.809,9.455l0.266,0.266
			l-0.266,0.268h-1.725l-0.266-0.268l0.266-0.266H43.809z"/>
	</g>
</g>
</svg>
