<?xml version="1.0" encoding="utf-8"?>
<!-- Generator: Adobe Illustrator 15.0.0, SVG Export Plug-In . SVG Version: 6.00 Build 0)  -->
<!DOCTYPE svg PUBLIC "-//W3C//DTD SVG 1.1//EN" "http://www.w3.org/Graphics/SVG/1.1/DTD/svg11.dtd">
<svg version="1.1" id="Layer_1" xmlns="http://www.w3.org/2000/svg" xmlns:xlink="http://www.w3.org/1999/xlink" x="0px" y="0px"
	 width="64px" height="64px" viewBox="0 0 64 64" enable-background="new 0 0 64 64" xml:space="preserve">
<g>
	<g>
		<g>
			<g>
				<g>
					<g>
						<polygon fill="#3E4347" points="2.01,62 19.458,62 37.277,50.766 8.124,50.766 2,53.242 						"/>
					</g>
				</g>
			</g>
		</g>
	</g>
	<g>
		<path fill="#E8E8E8" d="M23.378,51.463c0.133-0.071,0.268-0.141,0.4-0.215L23.378,51.463z"/>
		<path fill="#C7E755" d="M3.145,33.944c-2.104,9.747-0.558,19.517,11.487,19.517c2.517,0,5.674-0.395,8.669-1.957
			c4.778-2.582,7.647-7.963,8.705-15.521c0.093-0.658,0.188-1.341,0.29-2.038H3.145z"/>
		<g>
			<path fill="#3E4347" d="M32.296,33.944L32.296,33.944c1.221-8.529,3.049-19.694,6.287-24.82H16.586
				c-2.442,2.503-5.09,5.874-7.813,10.421C6.547,23.262,4.299,28.6,3.145,33.944H32.296z"/>
		</g>
		<path fill="#DAE3EA" d="M31.661,2c-1.32,0-8.725,0.625-15.075,7.124h21.997c1.428-2.262,3.131-3.354,5.178-2.514
			C42.296,5.433,39.764,2,31.661,2z"/>
		<path fill="#C5D0D8" d="M44.604,7.045l0.006,0.004c-7.283-4.685-10.482,14.089-12.314,26.896l0,0l25.539-5.95V16.985
			C57.835,16.985,51.516,12.309,44.604,7.045z"/>
		<path fill="#83BF4F" d="M32.296,33.944c-0.102,0.697-0.197,1.38-0.29,2.038c-1.06,7.564-3.931,12.949-8.718,15.527l34.547-19.539
			v-3.977L32.296,33.944z"/>
		<path fill="#83BF4F" d="M19.448,41.336c0,0.686,0.184,1.32,0.484,1.874h6.012c0.299-0.554,0.483-1.188,0.483-1.874
			c0-0.685-0.185-1.32-0.483-1.871h-6.012C19.632,40.016,19.448,40.651,19.448,41.336z"/>
		<path fill="#83BF4F" d="M3.745,41.336c0,0.686,0.184,1.32,0.485,1.874h6.009c0.301-0.554,0.485-1.188,0.485-1.874
			c0-0.685-0.184-1.32-0.484-1.871H4.229C3.929,40.016,3.745,40.651,3.745,41.336z"/>
		<path fill="#D6EEF0" d="M6.361,41.336c0,0.686,0.185,1.32,0.485,1.874h4.266c0.3-0.554,0.484-1.188,0.484-1.874
			c0-0.685-0.184-1.32-0.482-1.871H6.846C6.546,40.016,6.361,40.651,6.361,41.336z"/>
		<path fill="#D6EEF0" d="M22.065,41.336c0,0.686,0.184,1.32,0.484,1.874h4.266c0.301-0.554,0.484-1.188,0.484-1.874
			c0-0.685-0.184-1.32-0.482-1.871H22.55C22.249,40.016,22.065,40.651,22.065,41.336z"/>
		<g>
			<path fill="#3E4347" d="M54.584,17.513l-5.711-3.586c-0.829-0.521-1.507-0.103-1.507,0.928v15.578l8.723-2.032v-8.068
				C56.089,19.303,55.412,18.033,54.584,17.513z"/>
			<path fill="#3E4347" d="M43.188,10.348c-1.986-1.265-4.445,5.88-5.156,8.241c-1.448,4.813-2.708,12.868-2.708,12.868
				c-0.161,1.016,0.479,1.67,1.416,1.451l7.178-1.672c0.938-0.219,1.704-1.24,1.704-2.271V11.893
				C45.621,11.893,44.068,10.908,43.188,10.348z"/>
		</g>
	</g>
	<polygon fill="#94989B" points="19.458,53.111 62,53.111 62,32 57.835,32 	"/>
	<polygon fill="#FFE62E" points="28.792,53.111 25.681,53.111 58.872,32 59.909,32 	"/>
	<rect x="19.458" y="53.111" fill="#666666" width="42.542" height="8.889"/>
</g>
</svg>
