<?xml version="1.0" encoding="utf-8"?>
<!-- Generator: Adobe Illustrator 15.0.0, SVG Export Plug-In . SVG Version: 6.00 Build 0)  -->
<!DOCTYPE svg PUBLIC "-//W3C//DTD SVG 1.1//EN" "http://www.w3.org/Graphics/SVG/1.1/DTD/svg11.dtd">
<svg version="1.1" id="Layer_1" xmlns="http://www.w3.org/2000/svg" xmlns:xlink="http://www.w3.org/1999/xlink" x="0px" y="0px"
	 width="64px" height="64px" viewBox="0 0 64 64" enable-background="new 0 0 64 64" xml:space="preserve">
<g>
	<rect x="4.813" y="22.625" fill="#83BF4F" width="54.375" height="20.625"/>
	<g>
		<rect x="4.813" y="43.25" fill="#FFCE31" width="54.375" height="3.75"/>
	</g>
	<path fill="#3E4347" d="M55.438,18.875H8.563c-2.063,0-3.75,1.688-3.75,3.75h54.375C59.188,20.563,57.5,18.875,55.438,18.875z"/>
	<rect x="25.438" y="15.125" fill="#3E4347" width="13.125" height="3.75"/>
	<rect x="2" y="2" fill="#3E4347" width="60" height="1.875"/>
	<g>
		<path fill="#3E4347" d="M23.563,39.793h-9.375v-11.25c0-3.28,9.375-3.28,9.375,0V39.793z"/>
		<path fill="#B4D7EE" d="M21.688,30.066c0-2.344-5.625-2.344-5.625,0v7.5h5.625V30.066z"/>
	</g>
	<g>
		<path fill="#3E4347" d="M12.313,41.668h-7.5V25.146c0,0,7.5,0.194,7.5,4.335V41.668z"/>
		<path fill="#B4D7EE" d="M10.438,31.004c0-3.672-5.625-3.633-5.625-3.633v12.07h5.625V31.004z"/>
	</g>
	<g>
		<path fill="#3E4347" d="M34.813,39.793h-9.375v-11.25c0-3.28,9.375-3.28,9.375,0V39.793z"/>
		<path fill="#B4D7EE" d="M32.938,30.066c0-2.344-5.625-2.344-5.625,0v7.5h5.625V30.066z"/>
	</g>
	<g>
		<path fill="#3E4347" d="M46.063,39.793h-9.375v-11.25c0-3.28,9.375-3.28,9.375,0V39.793z"/>
		<path fill="#B4D7EE" d="M44.188,30.066c0-2.344-5.625-2.344-5.625,0v7.5h5.625V30.066z"/>
	</g>
	<g>
		<path fill="#3E4347" d="M57.313,39.793h-9.375v-11.25c0-3.28,9.375-3.28,9.375,0V39.793z"/>
		<path fill="#B4D7EE" d="M55.438,30.066c0-2.344-5.625-2.344-5.625,0v7.5h5.625V30.066z"/>
	</g>
	<rect x="5.81" y="15.516" fill="#3E4347" width="3.203" height="5.625"/>
	<rect x="13.524" y="17.469" fill="#3E4347" width="9.102" height="3.672"/>
	<rect x="43.855" y="17.04" fill="#3E4347" width="9.102" height="3.671"/>
	<rect x="2" y="56.375" fill="#94989B" width="60" height="5.625"/>
	<rect x="2" y="57.313" fill="#E6E6E6" width="60" height="0.938"/>
	
		<rect x="32.573" y="6.616" transform="matrix(0.8519 0.5237 -0.5237 0.8519 11.0355 -15.5436)" fill="#3E4347" width="0.86" height="10.251"/>
	
		<rect x="37.995" y="8.092" transform="matrix(0.8516 0.5242 -0.5242 0.8516 12.6938 -18.3975)" fill="#3E4347" width="1.681" height="10.251"/>
	
		<rect x="35.282" y="1.955" transform="matrix(0.7881 -0.6155 0.6155 0.7881 2.7441 23.6412)" fill="#3E4347" width="0.86" height="11.759"/>
	
		<rect x="37.875" y="1.828" transform="matrix(0.7877 -0.6161 0.6161 0.7877 4.3463 25.2253)" fill="#3E4347" width="1.795" height="8.958"/>
	<path fill="#699635" d="M4.813,47c0,0-1.893,0-1.893,2.813v0.938v2.813h1.893h54.375V47H4.813z"/>
	<rect x="2.919" y="51.961" fill="#3E4347" width="56.268" height="1.602"/>
	<g>
		<g>
			<g>
				<polygon fill="#63686B" points="18.875,49.813 9.5,49.813 6.688,53.563 21.688,53.563 				"/>
				<g>
					<circle fill="#3E4347" cx="10.906" cy="53.563" r="2.813"/>
					<circle fill="#94989B" cx="10.906" cy="53.563" r="0.938"/>
					<circle fill="#3E4347" cx="17.469" cy="53.563" r="2.813"/>
				</g>
			</g>
			<circle fill="#94989B" cx="17.469" cy="53.563" r="0.938"/>
		</g>
		<g>
			<polygon fill="#63686B" points="54.5,49.813 45.125,49.813 42.313,53.563 57.313,53.563 			"/>
			<g>
				<g>
					<g>
						<circle fill="#3E4347" cx="46.531" cy="53.563" r="2.813"/>
						<circle fill="#3E4347" cx="53.094" cy="53.563" r="2.813"/>
					</g>
					<circle fill="#94989B" cx="46.531" cy="53.563" r="0.938"/>
				</g>
				<circle fill="#94989B" cx="53.094" cy="53.563" r="0.938"/>
			</g>
		</g>
	</g>
</g>
</svg>
