<?xml version="1.0" encoding="utf-8"?>
<!-- Generator: Adobe Illustrator 15.0.0, SVG Export Plug-In . SVG Version: 6.00 Build 0)  -->
<!DOCTYPE svg PUBLIC "-//W3C//DTD SVG 1.1//EN" "http://www.w3.org/Graphics/SVG/1.1/DTD/svg11.dtd">
<svg version="1.1" id="Layer_1" xmlns="http://www.w3.org/2000/svg" xmlns:xlink="http://www.w3.org/1999/xlink" x="0px" y="0px"
	 width="64px" height="64px" viewBox="0 0 64 64" enable-background="new 0 0 64 64" xml:space="preserve">
<g>
	<rect x="2" y="38.363" fill="#FFCE31" width="60" height="16.522"/>
	<rect x="2" y="54.885" fill="#3E4347" width="60" height="1.775"/>
	<rect x="13.752" y="44.065" fill="#3E4347" width="48.248" height="1.017"/>
	<rect x="13.752" y="38.844" fill="#3E4347" width="48.248" height="1.015"/>
	<path fill="#63686B" d="M49.586,46.754c-4.57,0-8.277,3.639-8.277,8.132c0,0.608,0.07,1.204,0.2,1.775l16.155-0.001
		c0.128-0.572,0.197-1.166,0.197-1.774C57.861,50.393,54.156,46.754,49.586,46.754z"/>
	<path fill="#63686B" d="M18.551,46.754c-4.57,0-8.275,3.639-8.275,8.132c0,0.608,0.068,1.204,0.198,1.775L26.63,56.66
		c0.13-0.572,0.198-1.166,0.198-1.774C26.828,50.393,23.122,46.754,18.551,46.754z"/>
	<path fill="#FFCE31" d="M59.931,16H4.259C3.111,16,2.291,16.945,2,18.026v20.337h60v-20.33C62,16.916,61.068,16,59.931,16z"/>
	<g>
		<ellipse fill="#3E4347" cx="49.586" cy="54.884" rx="7.242" ry="7.116"/>
		<ellipse fill="#94989B" cx="49.586" cy="54.885" rx="3.62" ry="3.558"/>
	</g>
	<g>
		<ellipse fill="#3E4347" cx="18.551" cy="54.884" rx="7.24" ry="7.116"/>
		<path fill="#94989B" d="M18.551,51.327c-1.996,0-3.62,1.594-3.62,3.559c0,1.964,1.625,3.558,3.62,3.558
			c1.998,0,3.622-1.594,3.622-3.558C22.173,52.921,20.549,51.327,18.551,51.327z"/>
	</g>
	<rect x="2" y="20.941" fill="#3E4347" width="3.125" height="17.422"/>
	<path fill="#F5F5F5" d="M4.659,53.712c-0.267,0.213-1.504,0.75-1.504,0.75v-3.629c0,0,1.238,0.538,1.504,0.751
		C5.46,52.226,5.46,53.069,4.659,53.712z"/>
	<path fill="#ED4C5C" d="M4.105,41.763c-0.168,0.161-0.951,0.563-0.951,0.563v-2.723c0,0,0.782,0.402,0.951,0.564
		C4.611,40.648,4.611,41.282,4.105,41.763z"/>
	<g>
		<rect x="14.898" y="20.941" fill="#63686B" width="7.5" height="4.538"/>
		<rect x="14.898" y="27.295" fill="#3E4347" width="7.5" height="4.538"/>
	</g>
	<g>
		<rect x="24.144" y="20.941" fill="#63686B" width="7.5" height="4.538"/>
		<rect x="24.144" y="27.295" fill="#3E4347" width="7.5" height="4.538"/>
	</g>
	<rect x="33.518" y="20.941" fill="#63686B" width="7.5" height="4.538"/>
	<rect x="33.518" y="27.295" fill="#3E4347" width="7.5" height="4.538"/>
	<g>
		<rect x="42.893" y="20.941" fill="#63686B" width="7.5" height="4.538"/>
		<rect x="42.893" y="27.295" fill="#3E4347" width="7.5" height="4.538"/>
	</g>
	<g>
		<rect x="51.688" y="20.941" fill="#63686B" width="7.5" height="4.538"/>
		<rect x="51.688" y="27.295" fill="#3E4347" width="7.5" height="4.538"/>
	</g>
	<rect x="2" y="33.621" fill="#3E4347" width="60" height="1.017"/>
	<g>
		<g>
			<polygon fill="#F5F5F5" points="18.526,43.81 15.231,40.619 15.231,36.108 18.526,32.918 23.186,32.918 26.481,36.108 
				26.481,40.619 23.186,43.81 			"/>
			<polygon fill="#ED4C5C" points="19.108,42.448 16.638,40.057 16.638,36.672 19.108,34.28 22.604,34.28 25.075,36.672 
				25.075,40.057 22.604,42.448 			"/>
		</g>
		<rect x="13.284" y="36.478" fill="#94989B" width="1.948" height="3.773"/>
	</g>
	<rect x="4.032" y="23.489" fill="#94989B" width="2.657" height="12.328"/>
	<rect x="6.688" y="20.941" fill="#3E4347" width="6.334" height="10.891"/>
	<rect x="2" y="43.618" fill="#3E4347" width="4.688" height="6.352"/>
	<g>
		<rect x="2" y="44.525" fill="#63686B" width="3.75" height="0.908"/>
		<rect x="2" y="46.34" fill="#63686B" width="3.75" height="0.907"/>
		<rect x="2" y="48.155" fill="#63686B" width="3.75" height="0.907"/>
	</g>
</g>
</svg>
