<?xml version="1.0" encoding="utf-8"?>
<!-- Generator: Adobe Illustrator 15.0.0, SVG Export Plug-In . SVG Version: 6.00 Build 0)  -->
<!DOCTYPE svg PUBLIC "-//W3C//DTD SVG 1.1//EN" "http://www.w3.org/Graphics/SVG/1.1/DTD/svg11.dtd">
<svg version="1.1" id="Layer_1" xmlns="http://www.w3.org/2000/svg" xmlns:xlink="http://www.w3.org/1999/xlink" x="0px" y="0px"
	 width="64px" height="64px" viewBox="0 0 64 64" enable-background="new 0 0 64 64" xml:space="preserve">
<g>
	<g>
		<polygon fill="#94989B" points="16.388,48.875 7.771,62 12.44,62 20.755,48.875 		"/>
		<polygon fill="#E6E6E6" points="16.388,48.875 12.02,48.875 2,62 7.771,62 		"/>
		<polygon fill="#94989B" points="47.613,48.875 43.247,48.875 51.562,62 56.23,62 		"/>
		<polygon fill="#E6E6E6" points="47.613,48.875 56.23,62 62,62 51.981,48.875 		"/>
	</g>
	<polygon fill="#3E4347" points="44.044,50.137 19.957,50.137 12.439,62 51.561,62 	"/>
	<g>
		<path fill="#BA573F" d="M52.37,32.245H11.633L11.63,8.423C11.63,7.799,21.814,5,32,5s20.37,2.799,20.37,3.423V32.245z"/>
		<path fill="#C5CDD3" d="M54.772,48.475c0,3.682-45.545,3.682-45.545,0v-6.107h45.545V48.475z"/>
		<path fill="#DAE3EA" d="M47.994,52.668c0,4.533-31.988,4.533-31.988,0V45.15h31.988V52.668z"/>
		<path fill="#F14E3A" d="M54.772,42.367H9.23L9.228,12.376c0-0.785,11.386-4.31,22.772-4.31c11.387-0.001,22.772,3.525,22.772,4.31
			V42.367z"/>
		<g>
			<g>
				<path fill="#3E4347" d="M11.633,13.658v9.476c0.15,0.792,19.391-2.354,19.24-3.147V10.51
					C30.724,9.718,11.481,12.866,11.633,13.658z"/>
			</g>
			<g>
				<path fill="#3E4347" d="M33.126,10.51v9.475c-0.149,0.793,19.091,3.94,19.241,3.148v-9.476
					C52.519,12.866,33.276,9.718,33.126,10.51z"/>
			</g>
		</g>
		<path fill="#FDF516" d="M37.874,42.367H26.126c0,0,0-16.862,0-19.285c0-2.539,11.748-2.539,11.748,0
			C37.874,26.104,37.874,42.367,37.874,42.367z"/>
		<g>
			<ellipse fill="#D5A943" cx="32" cy="27.291" rx="4.898" ry="4.772"/>
			<ellipse fill="#3E4347" cx="31.999" cy="27.291" rx="3.352" ry="3.264"/>
		</g>
		<g>
			<g>
				<ellipse fill="#F14E3A" cx="21.866" cy="5.109" rx="3.191" ry="3.109"/>
				<ellipse fill="#3E4347" cx="21.866" cy="5.109" rx="2.183" ry="2.126"/>
			</g>
			<g>
				<ellipse fill="#F14E3A" cx="42.135" cy="5.109" rx="3.191" ry="3.109"/>
				<ellipse fill="#3E4347" cx="42.134" cy="5.109" rx="2.183" ry="2.126"/>
			</g>
		</g>
		<g>
			<g>
				<ellipse fill="#F5F5F5" cx="12.439" cy="26.401" rx="1.575" ry="1.535"/>
				<ellipse fill="#3E4347" cx="12.439" cy="26.401" rx="0.804" ry="0.783"/>
			</g>
			<g>
				<ellipse fill="#F5F5F5" cx="51.561" cy="26.401" rx="1.575" ry="1.535"/>
				<ellipse fill="#3E4347" cx="51.561" cy="26.401" rx="0.804" ry="0.783"/>
			</g>
		</g>
		<path fill="#FDF516" d="M42.323,33.561c-5.048-1.053-15.599-1.053-20.646,0c-0.666,0.137-1.928,0.84-1.928,1.879v3.756
			c0,1.037,1.262,1.74,1.928,1.877c5.048,1.053,15.599,1.053,20.646,0c0.666-0.137,1.928-0.84,1.928-1.877v-3.756
			C44.251,34.4,42.989,33.697,42.323,33.561z M42.13,38.561c0,0.689-1.044,1.156-1.595,1.248c-4.174,0.695-12.896,0.695-17.07,0
			c-0.551-0.092-1.595-0.559-1.595-1.248v-2.488c0-0.689,1.044-1.156,1.595-1.248c4.174-0.695,12.896-0.695,17.07,0
			c0.551,0.092,1.595,0.559,1.595,1.248V38.561z"/>
		<rect x="9.211" y="36.271" fill="#FDF516" width="45.578" height="2.09"/>
		<g>
			<path fill="#F5F5F5" d="M35.343,36.271c0,1.801-1.497,3.26-3.343,3.26s-3.343-1.459-3.343-3.26c0-1.797,1.497-3.256,3.343-3.256
				S35.343,34.475,35.343,36.271z"/>
			<ellipse fill="#3E4347" cx="31.999" cy="36.271" rx="2.287" ry="2.229"/>
			<path fill="#F5F5F5" d="M33.071,36.271c0,0.576-0.48,1.045-1.071,1.045s-1.071-0.469-1.071-1.045c0-0.574,0.48-1.043,1.071-1.043
				S33.071,35.697,33.071,36.271z"/>
		</g>
		<rect x="24.768" y="42.367" fill="#94989B" width="14.465" height="6.508"/>
		<g>
			<rect x="27.786" y="46.881" fill="#3E4347" width="2.144" height="4.68"/>
			<rect x="34.07" y="46.881" fill="#3E4347" width="2.144" height="4.68"/>
		</g>
		<polygon fill="#94989B" points="24.458,52.967 17.018,51.689 17.387,49.65 24.827,50.928 		"/>
		<polygon fill="#94989B" points="46.982,51.689 39.541,52.967 39.172,50.928 46.613,49.65 		"/>
		<rect x="8.161" y="42.367" fill="#94989B" width="47.678" height="2.783"/>
		<rect x="26.127" y="40.947" fill="#DAE3EA" width="11.746" height="4.203"/>
		<rect x="26.127" y="52.967" fill="#F14E3A" width="11.746" height="4.332"/>
		<g>
			<g>
				<path fill="#BA573F" d="M55.848,33.898c-0.113,0.623-0.724,1.041-1.365,0.932l-9.273-1.594
					c-0.641-0.109-1.069-0.707-0.957-1.331l0.385-2.123c0.112-0.625,0.725-1.042,1.366-0.932l9.273,1.592
					c0.641,0.111,1.068,0.706,0.955,1.331L55.848,33.898z"/>
				<path fill="#3E4347" d="M55.105,33.486c-0.082,0.461-0.6,0.758-1.152,0.664l-8.008-1.376c-0.554-0.095-0.936-0.547-0.852-1.008
					l0.284-1.571c0.083-0.461,0.601-0.76,1.153-0.664l8.008,1.376c0.554,0.095,0.935,0.546,0.852,1.008L55.105,33.486z"/>
			</g>
			<g>
				<path fill="#BA573F" d="M19.748,31.905c0.112,0.625-0.315,1.222-0.957,1.331L9.519,34.83c-0.64,0.109-1.253-0.309-1.366-0.932
					l-0.384-2.125c-0.113-0.625,0.314-1.22,0.956-1.331l9.273-1.592c0.642-0.11,1.253,0.306,1.365,0.932L19.748,31.905z"/>
				<path fill="#3E4347" d="M18.905,31.764c0.085,0.461-0.296,0.914-0.85,1.01l-8.008,1.376c-0.553,0.094-1.071-0.203-1.154-0.664
					l-0.284-1.571c-0.083-0.462,0.299-0.913,0.851-1.008l8.008-1.376c0.555-0.096,1.071,0.203,1.154,0.664L18.905,31.764z"/>
			</g>
		</g>
	</g>
</g>
</svg>
