<?xml version="1.0" encoding="utf-8"?>
<!-- Generator: Adobe Illustrator 15.0.0, SVG Export Plug-In . SVG Version: 6.00 Build 0)  -->
<!DOCTYPE svg PUBLIC "-//W3C//DTD SVG 1.1//EN" "http://www.w3.org/Graphics/SVG/1.1/DTD/svg11.dtd">
<svg version="1.1" id="Layer_1" xmlns="http://www.w3.org/2000/svg" xmlns:xlink="http://www.w3.org/1999/xlink" x="0px" y="0px"
	 width="64px" height="64px" viewBox="0 0 64 64" enable-background="new 0 0 64 64" xml:space="preserve">
<g>
	<rect x="21.424" y="58.51" fill="#62696D" width="20.977" height="1.582"/>
	<g>
		<g>
			<polygon fill="#42ADE2" points="36.568,8.323 39.682,2 38.877,9.026 			"/>
			<polygon fill="#42ADE2" points="45.173,11.32 49.622,7.983 46.992,12.934 			"/>
		</g>
		<g>
			<polygon fill="#42ADE2" points="27.769,8.323 24.656,2 25.459,9.026 			"/>
			<polygon fill="#42ADE2" points="19.164,11.32 14.715,7.983 17.344,12.934 			"/>
		</g>
	</g>
	<g>
		<rect x="16.694" y="19.188" fill="#62696D" width="30.611" height="2.387"/>
		<rect x="13.633" y="16.404" fill="#F15744" width="12.244" height="3.579"/>
		<rect x="25.877" y="16.404" fill="#BADEDE" width="12.244" height="3.579"/>
		<rect x="38.121" y="16.404" fill="#42ADE2" width="12.246" height="3.579"/>
	</g>
	<g>
		<path fill="#62696D" d="M12.161,35.217c0,0-6.216,0.571-7.958-0.895c-1.157-0.975-2.012-3.525-0.93-4.58
			c1.298-1.264,5.656-0.456,6.899,0.629C11.472,31.505,12.161,35.217,12.161,35.217z"/>
		<path fill="#62696D" d="M51.838,35.217c0,0,6.218,0.571,7.959-0.895c1.157-0.975,2.011-3.525,0.929-4.58
			c-1.3-1.264-5.654-0.456-6.897,0.629C52.526,31.505,51.838,35.217,51.838,35.217z"/>
	</g>
	<path fill="#3E4347" d="M60.163,56.69c0,0.657-0.547,1.191-1.225,1.191H5.062c-0.678,0-1.225-0.534-1.225-1.191
		c0,0-1.302-14.614,0-15.51c10.683-7.346,8.877-19.606,11.02-19.606c0,0,6.734-0.597,17.144-0.597
		c10.408,0,17.143,0.597,17.143,0.597c2.448,0,0.063,11.446,11.021,19.606C61.464,42.151,60.163,56.69,60.163,56.69z"/>
	<path fill="#62696D" d="M45.066,46.606c0-0.734-0.509-1.329-1.135-1.329H20.067c-0.628,0-1.135,0.595-1.135,1.329v6.144h26.135
		V46.606z"/>
	<g>
		<path fill="#FFFFFF" d="M16.819,48.722c0,0.659-0.547,1.193-1.225,1.193l-8.76-0.925c-0.678,0-1.225-0.534-1.225-1.191v-3.58
			c0-0.659,0.547-1.192,1.225-1.192l8.76,0.923c0.678,0,1.225,0.535,1.225,1.192V48.722z"/>
		<path fill="#FFCE31" d="M8.652,49.183L6.834,48.99c-0.678,0-1.225-0.534-1.225-1.191v-3.58c0-0.659,0.547-1.192,1.225-1.192
			l1.818,0.19V49.183z"/>
	</g>
	<g>
		<path fill="#FFFFFF" d="M47.18,48.723c0,0.658,0.547,1.192,1.225,1.192l8.76-0.923c0.678,0,1.225-0.534,1.225-1.193v-3.578
			c0-0.659-0.547-1.194-1.225-1.194l-8.76,0.925c-0.678,0-1.225,0.535-1.225,1.192V48.723z"/>
		<path fill="#FFCE31" d="M55.348,49.183l1.816-0.19c0.678,0,1.225-0.534,1.225-1.193v-3.578c0-0.659-0.547-1.194-1.225-1.194
			l-1.816,0.19V49.183z"/>
	</g>
	<g>
		<path fill="#62696D" d="M11.67,34.39c0,0,5.103,2.869,7.458,7.182l-3.465,1.204C15.663,42.775,15.242,39.795,11.67,34.39z"/>
		<path fill="#62696D" d="M52.328,34.39c0,0-5.103,2.869-7.458,7.182l3.465,1.204C48.335,42.775,48.756,39.795,52.328,34.39z"/>
	</g>
	<g>
		<path fill="#3E4347" d="M16.903,60.629c0,0.758-0.547,1.371-1.225,1.371H7.107c-0.678,0-1.225-0.613-1.225-1.371v-2.747h11.021
			V60.629z"/>
		<path fill="#3E4347" d="M58.116,60.629c0,0.758-0.548,1.371-1.225,1.371H48.32c-0.676,0-1.225-0.613-1.225-1.371v-2.747h11.021
			V60.629z"/>
	</g>
	<path fill="#C5D0D8" d="M62,57.34c0,0.452-0.548,0.82-1.225,0.82c0,0-12.206,0.806-28.775,0.806S3.223,58.16,3.223,58.16
		C2.547,58.16,2,57.792,2,57.34v-4.922c0-0.452,0.547-0.82,1.223-0.82c0,0,12.208,0.808,28.777,0.808s28.775-0.808,28.775-0.808
		c0.677,0,1.225,0.368,1.225,0.82V57.34z"/>
	<ellipse fill="#F15744" cx="11.392" cy="55.282" rx="1.875" ry="1.921"/>
	<ellipse fill="#F15744" cx="52.606" cy="55.282" rx="1.875" ry="1.921"/>
	<path fill="#B4D7EE" d="M49.754,33.377c0,0-8.417-0.421-17.754-0.421c-9.336,0-17.756,0.421-17.756,0.421l2.45-9.543
		c0,0,6.581-0.422,15.306-0.422c8.723,0,15.306,0.422,15.306,0.422L49.754,33.377z"/>
	<rect x="24.5" y="53.359" fill="#FFCE31" width="15" height="5.625"/>
	<path fill="#3E4347" d="M22.156,59.221c0,1.036-0.84,1.875-1.875,1.875h-0.234c-1.036,0-1.875-0.839-1.875-1.875v-8.789
		c0-1.035,0.839-1.875,1.875-1.875h0.234c1.035,0,1.875,0.84,1.875,1.875V59.221z"/>
	<path fill="#3E4347" d="M45.828,59.221c0,1.036-0.841,1.875-1.875,1.875h-0.234c-1.036,0-1.875-0.839-1.875-1.875v-8.789
		c0-1.035,0.839-1.875,1.875-1.875h0.234c1.034,0,1.875,0.84,1.875,1.875V59.221z"/>
	<g>
		<circle fill="#62696D" cx="43.836" cy="54.112" r="3.281"/>
	</g>
	<g>
		<circle fill="#FFFFFF" cx="43.836" cy="54.112" r="2.344"/>
	</g>
	<g>
		<circle fill="#62696D" cx="20.164" cy="54.112" r="3.281"/>
	</g>
	<g>
		<circle fill="#FFFFFF" cx="20.164" cy="54.04" r="2.344"/>
	</g>
	<g>
		<rect x="23.211" y="46.65" fill="#3E4347" width="17.578" height="0.732"/>
		<rect x="23.211" y="48.648" fill="#3E4347" width="17.578" height="0.73"/>
		<rect x="23.211" y="50.644" fill="#3E4347" width="17.578" height="0.732"/>
	</g>
	<g>
		<circle fill="#C5D0D8" cx="13.307" cy="46.65" r="2.605"/>
		<circle fill="#C5D0D8" cx="50.691" cy="46.65" r="2.605"/>
	</g>
	<g>
		<path fill="#62696D" d="M17.997,35.327c2.317-0.353,4.651-0.56,6.986-0.713c2.335-0.165,4.677-0.215,7.017-0.227
			c2.341,0.011,4.682,0.061,7.017,0.225l3.5,0.277c1.164,0.14,2.328,0.253,3.486,0.438c-1.173,0.041-2.34,0.025-3.509,0.053
			l-3.501,0.002L32,35.387l-6.993-0.007C22.674,35.373,20.342,35.387,17.997,35.327z"/>
	</g>
	<g>
		<path fill="#62696D" d="M19.969,43.271c1.981-0.436,3.987-0.692,5.994-0.866c2.008-0.183,4.022-0.246,6.037-0.262
			c2.015,0.014,4.029,0.077,6.037,0.26c2.008,0.173,4.011,0.431,5.994,0.868c-2.021,0.186-4.028,0.255-6.031,0.302
			c-2.003,0.057-4.001,0.057-6,0.07c-1.999-0.016-3.997-0.016-6-0.073C23.996,43.522,21.993,43.454,19.969,43.271z"/>
	</g>
</g>
</svg>
