<?xml version="1.0" encoding="utf-8"?>
<!-- Generator: Adobe Illustrator 15.0.0, SVG Export Plug-In . SVG Version: 6.00 Build 0)  -->
<!DOCTYPE svg PUBLIC "-//W3C//DTD SVG 1.1//EN" "http://www.w3.org/Graphics/SVG/1.1/DTD/svg11.dtd">
<svg version="1.1" id="Layer_1" xmlns="http://www.w3.org/2000/svg" xmlns:xlink="http://www.w3.org/1999/xlink" x="0px" y="0px"
	 width="64px" height="64px" viewBox="0 0 64 64" enable-background="new 0 0 64 64" xml:space="preserve">
<g>
	<g>
		<g>
			<path fill="#42ADE2" d="M34.782,20.642h-2.644c-1.944,0-3.521-1.576-3.521-3.521l0,0c0-1.944,1.576-3.521,3.521-3.521h2.644
				V20.642z"/>
			<path fill="#F15744" d="M38.886,13.601h2.644c1.944,0,3.521,1.577,3.521,3.521l0,0c0,1.944-1.576,3.521-3.521,3.521h-2.644
				V13.601z"/>
		</g>
		<path fill="#CBD1D6" d="M39.07,20.642v-7.406c0-1.235-1.001-2.237-2.236-2.237s-2.236,1.001-2.236,2.237v7.406H31.92v2.231h9.828
			v-2.231H39.07z"/>
	</g>
	<path fill="#3E4347" d="M58.181,37.591l-5.268-1.603c-1.055-0.322-2.108-1.396-2.344-2.391l-2.186-9.245
		c-0.236-0.995-1.336-1.883-2.449-1.883H27.727c-1.115,0-2.434,0.974-2.93,1.883l-5.273,9.399c-0.497,0.908-1.767,1.914-2.821,2.236
		l-8.303,2.525c-1.055,0.323-2.23,1.789-2.48,2.779l0.559,1.954l-1.58,1.812l-1.022,9.765h56.25V40.353
		C60.125,39.336,59.235,37.913,58.181,37.591z"/>
	<g>
		<g>
			<path fill="#B4D7EE" d="M35.75,33.659c0,0.575,0.408,1.046,0.908,1.046h7.724c0.498,0,0.826-0.46,0.725-1.023l-1.32-7.362
				c-0.097-0.564-0.586-1.026-1.084-1.026h-6.044c-0.5,0-0.908,0.471-0.908,1.046V33.659z"/>
		</g>
		<g>
			<path fill="#B4D7EE" d="M33.875,26.339c0-0.575-0.419-1.046-0.929-1.046h-5.103c-0.511,0-1.124,0.416-1.364,0.922l-3.753,7.576
				c-0.246,0.502-0.032,0.914,0.478,0.914h9.742c0.51,0,0.929-0.471,0.929-1.046V26.339z"/>
		</g>
	</g>
	<path fill="#FFFFFF" d="M4.897,45.059h2.834c0.451,0,0.955-0.424,1.119-0.941l0.598-1.883c0.164-0.518-0.072-0.941-0.523-0.941
		H5.919L4.897,45.059z"/>
	<path fill="#F15744" d="M60.125,41.293h-2.31c-0.367,0-0.777,0.424-0.911,0.941c0,0-0.366,1.412-0.487,1.883
		c-0.134,0.518,0.059,0.941,0.427,0.941h3.281V41.293z"/>
	<g>
		<path fill="#B2C1C0" d="M55.965,54.218c0,0.663,0.542,1.207,1.207,1.207h3.619c0.663,0,1.209-0.544,1.209-1.207v-2.413
			c0-0.664-0.546-1.207-1.209-1.207h-3.619c-0.665,0-1.207,0.543-1.207,1.207V54.218z"/>
		<path fill="#B2C1C0" d="M2,54.218c0,0.663,0.544,1.207,1.207,1.207h3.621c0.661,0,1.205-0.544,1.205-1.207v-2.413
			c0-0.664-0.544-1.207-1.205-1.207H3.207C2.544,50.598,2,51.141,2,51.805V54.218z"/>
	</g>
	<circle fill="#B2C1C0" cx="52.156" cy="40.629" r="1.208"/>
	<g>
		<path fill="#E8E8E8" d="M44.604,38.163c0,4.729-6.607,7.098-6.607,13.791H26.002c0-6.693-6.607-8.946-6.607-13.791H44.604z"/>
		<polygon fill="#DBB471" points="31.999,40.564 33.115,43.998 36.723,43.998 33.805,46.119 34.921,49.553 31.999,47.431 
			29.078,49.553 30.193,46.119 27.276,43.998 30.883,43.998 		"/>
	</g>
	<g>
		<ellipse fill="#62727A" cx="17.063" cy="53.529" rx="8.438" ry="8.471"/>
		<g>
			<ellipse fill="#E8E8E8" cx="17.063" cy="53.529" rx="4.821" ry="4.84"/>
			<path fill="#3E4347" d="M18.202,51.145c-0.205,0.646-0.719,1.175-1.14,1.175s-0.935-0.528-1.14-1.175l-0.021-0.072
				c-0.205-0.645,0.318-1.174,1.161-1.174l0,0c0.843,0,1.366,0.529,1.161,1.174L18.202,51.145z"/>
			<path fill="#3E4347" d="M15.575,51.348c0.453,0.501,0.654,1.21,0.442,1.576c-0.21,0.367-0.921,0.549-1.58,0.404l-0.075-0.018
				c-0.659-0.146-0.853-0.863-0.431-1.597l0,0c0.421-0.732,1.137-0.923,1.591-0.422L15.575,51.348z"/>
			<path fill="#3E4347" d="M14.438,53.731c0.659-0.145,1.37,0.037,1.58,0.403c0.212,0.367,0.011,1.076-0.44,1.576l-0.055,0.057
				c-0.454,0.502-1.17,0.309-1.591-0.424l0,0c-0.422-0.732-0.229-1.449,0.431-1.596L14.438,53.731z"/>
			<path fill="#3E4347" d="M15.923,55.913c0.207-0.646,0.719-1.173,1.14-1.173s0.935,0.527,1.14,1.173l0.021,0.073
				c0.205,0.646-0.318,1.173-1.161,1.173l0,0c-0.843,0-1.366-0.526-1.161-1.173L15.923,55.913z"/>
			<path fill="#3E4347" d="M18.55,55.711c-0.453-0.501-0.654-1.211-0.442-1.576c0.21-0.367,0.921-0.549,1.58-0.404l0.075,0.018
				c0.659,0.146,0.853,0.863,0.431,1.596l0,0c-0.421,0.732-1.137,0.924-1.591,0.423L18.55,55.711z"/>
			<path fill="#3E4347" d="M19.688,53.326c-0.659,0.145-1.37-0.037-1.58-0.403c-0.212-0.366-0.014-1.075,0.44-1.576l0.055-0.056
				c0.454-0.501,1.17-0.31,1.591,0.423l0,0c0.422,0.733,0.229,1.45-0.431,1.596L19.688,53.326z"/>
			<polygon fill="#E8E8E8" points="19.694,56.895 18.649,57.5 14.431,50.164 15.476,49.559 			"/>
			<rect x="12.844" y="52.924" fill="#E8E8E8" width="8.438" height="1.211"/>
			<polygon fill="#E8E8E8" points="18.649,49.559 19.694,50.164 15.476,57.5 14.431,56.895 			"/>
		</g>
	</g>
	<g>
		<ellipse fill="#62727A" cx="46.938" cy="53.529" rx="8.438" ry="8.471"/>
		<g>
			<ellipse fill="#E8E8E8" cx="46.938" cy="53.529" rx="4.821" ry="4.84"/>
			<path fill="#3E4347" d="M48.077,51.145c-0.205,0.646-0.719,1.175-1.14,1.175s-0.935-0.528-1.14-1.175l-0.021-0.072
				c-0.205-0.645,0.318-1.174,1.161-1.174l0,0c0.843,0,1.366,0.529,1.161,1.174L48.077,51.145z"/>
			<path fill="#3E4347" d="M45.45,51.348c0.453,0.501,0.654,1.21,0.442,1.576c-0.21,0.367-0.921,0.549-1.58,0.404l-0.075-0.018
				c-0.659-0.146-0.853-0.863-0.431-1.597l0,0c0.421-0.732,1.137-0.923,1.591-0.422L45.45,51.348z"/>
			<path fill="#3E4347" d="M44.313,53.731c0.659-0.145,1.37,0.037,1.58,0.403c0.212,0.367,0.011,1.076-0.44,1.576l-0.055,0.057
				c-0.454,0.502-1.17,0.309-1.591-0.424l0,0c-0.422-0.732-0.229-1.449,0.431-1.596L44.313,53.731z"/>
			<path fill="#3E4347" d="M45.798,55.913c0.207-0.646,0.719-1.173,1.14-1.173s0.935,0.527,1.14,1.173l0.021,0.073
				c0.205,0.646-0.318,1.173-1.161,1.173l0,0c-0.843,0-1.366-0.526-1.161-1.173L45.798,55.913z"/>
			<path fill="#3E4347" d="M48.425,55.711c-0.453-0.501-0.654-1.211-0.442-1.576c0.21-0.367,0.921-0.549,1.58-0.404l0.075,0.018
				c0.659,0.146,0.853,0.863,0.431,1.596l0,0c-0.421,0.732-1.137,0.924-1.591,0.423L48.425,55.711z"/>
			<path fill="#3E4347" d="M49.563,53.326c-0.659,0.145-1.37-0.037-1.58-0.403c-0.212-0.366-0.014-1.075,0.44-1.576l0.055-0.056
				c0.454-0.501,1.17-0.31,1.591,0.423l0,0c0.422,0.733,0.229,1.45-0.431,1.596L49.563,53.326z"/>
			<polygon fill="#E8E8E8" points="49.569,56.895 48.524,57.5 44.306,50.164 45.351,49.559 			"/>
			<rect x="42.719" y="52.924" fill="#E8E8E8" width="8.438" height="1.211"/>
			<polygon fill="#E8E8E8" points="48.524,49.559 49.569,50.164 45.351,57.5 44.306,56.895 			"/>
		</g>
	</g>
</g>
</svg>
