<?xml version="1.0" encoding="utf-8"?>
<!-- Generator: Adobe Illustrator 15.0.0, SVG Export Plug-In . SVG Version: 6.00 Build 0)  -->
<!DOCTYPE svg PUBLIC "-//W3C//DTD SVG 1.1//EN" "http://www.w3.org/Graphics/SVG/1.1/DTD/svg11.dtd">
<svg version="1.1" id="Layer_1" xmlns="http://www.w3.org/2000/svg" xmlns:xlink="http://www.w3.org/1999/xlink" x="0px" y="0px"
	 width="64px" height="64px" viewBox="0 0 64 64" enable-background="new 0 0 64 64" xml:space="preserve">
<g>
	<g>
		<rect x="2" y="34.217" fill="#AAB5BC" width="60" height="5.625"/>
		<rect x="2" y="39.842" fill="#C5D0D8" width="60" height="5.625"/>
		<rect x="2" y="43.123" fill="#DFECF4" width="60" height="0.938"/>
		<rect x="2" y="34.217" fill="#3E4347" width="60" height="0.938"/>
		<g>
			<rect x="4.813" y="36.527" fill="#3E4347" width="3.75" height="1.875"/>
			<rect x="12.313" y="36.527" fill="#3E4347" width="3.75" height="1.875"/>
			<rect x="19.813" y="36.527" fill="#3E4347" width="3.75" height="1.875"/>
			<rect x="27.313" y="36.527" fill="#3E4347" width="3.75" height="1.875"/>
		</g>
		<g>
			<rect x="9.5" y="45.467" fill="#C5D0D8" width="7.501" height="16.533"/>
			<rect x="10.848" y="45.467" fill="#DFECF4" width="4.688" height="16.533"/>
		</g>
		<g>
			<rect x="47" y="45.467" fill="#C5D0D8" width="7.5" height="16.533"/>
			<rect x="48.348" y="45.467" fill="#DFECF4" width="4.688" height="16.533"/>
		</g>
		<g>
			<rect x="28.25" y="45.467" fill="#C5D0D8" width="7.501" height="16.533"/>
			<rect x="29.598" y="45.467" fill="#DFECF4" width="4.688" height="16.533"/>
		</g>
	</g>
	<g>
		<path fill="#C5D0D8" d="M7.741,24.092c0,3.793,9.881,13.501,22.864,13.501H62V24.092H7.741"/>
		<path fill="#3E4347" d="M7.741,24.092c0,0.802,0.465,1.875,1.284,3.058H62v-3.058H7.741z"/>
		<path fill="#428BC1" d="M45.534,39.898c-8.639,0-12.67-3.621-16.227-6.816c-2.777-2.496-5.402-4.854-9.524-4.854H9.846
			c0.856,1.021,1.947,2.089,3.253,3.127h6.684c2.925,0,4.915,1.788,7.435,4.053c3.777,3.393,8.479,7.617,18.316,7.617H62v-3.127
			H45.534z"/>
		<path fill="#3E4347" d="M46.369,37.256c-8.638,0-12.67-3.621-16.226-6.816c-2.779-2.496-5.402-4.853-9.524-4.853H8.902v1.39
			c0.372,0.558,0.827,1.14,1.364,1.736h10.353c2.923,0,4.913,1.789,7.435,4.053c3.777,3.395,8.479,7.617,18.315,7.617H62v-3.127
			H46.369z"/>
		<path fill="#DFECF4" d="M37.132,2h-2.424C26.846,2,7.741,16.729,7.741,24.092h35.123H62V2H37.132z"/>
		<path fill="#3E4347" d="M34.325,6.817c0-3-1.326-3-5.914-3c0,0-13.553,5.912-19.862,17.273c0,0,13.734-3.956,21.567-3.956
			C32.389,17.134,34.325,10.135,34.325,6.817z"/>
		<path fill="#3E4347" d="M62,3.817V19.09c0,0-0.329,0-3.105,0c-4.817,0-17.63-15.273-12.062-15.273C50.626,3.817,62,3.817,62,3.817
			z"/>
		<path fill="#3E4347" d="M42.452,15.416c0,1.501-1.217,2.719-2.719,2.719l0,0c-1.502,0-2.719-1.217-2.719-2.719v-8.88
			c0-1.501,1.217-2.719,2.719-2.719l0,0c1.502,0,2.719,1.217,2.719,2.719V15.416z"/>
	</g>
</g>
</svg>
