<?xml version="1.0" encoding="utf-8"?>
<!-- Generator: Adobe Illustrator 15.0.0, SVG Export Plug-In . SVG Version: 6.00 Build 0)  -->
<!DOCTYPE svg PUBLIC "-//W3C//DTD SVG 1.1//EN" "http://www.w3.org/Graphics/SVG/1.1/DTD/svg11.dtd">
<svg version="1.1" id="Layer_1" xmlns="http://www.w3.org/2000/svg" xmlns:xlink="http://www.w3.org/1999/xlink" x="0px" y="0px"
	 width="64px" height="64px" viewBox="0 0 64 64" enable-background="new 0 0 64 64" xml:space="preserve">
<g>
	<path fill="#F15744" d="M58.181,37.875l-3.394-1.584c-1.055-0.318-2.107-1.381-2.344-2.363L50.26,23.86
		C50.023,22.877,48.923,22,47.81,22H25.852c-1.115,0-2.434,0.962-2.93,1.86c0,0-3.274,6.489-4.336,8.359
		c-0.507,0.893-2.722,2.772-3.759,3.142c-2.116,0.754-6.427,3.426-6.427,3.426c-1.055,0.319-2.231,1.769-2.48,2.748l0.558,1.931
		l-1.58,1.79l-1.022,3.721h56.25v-8.372C60.125,39.6,59.235,38.193,58.181,37.875z"/>
	<path fill="#B2C1C0" d="M62,51.165c0-1.403-0.482-2.188-1.526-2.188H3.526C2.482,48.977,2,49.762,2,51.165
		c0,0.306,0.145,2.02,0.204,2.317c0.238,1.194,1.228,1.072,2.271,1.072h55.051c1.043,0,2.032,0.122,2.271-1.072
		C61.855,53.185,62,51.471,62,51.165z"/>
	<g>
		<g>
			<path fill="#3E4347" d="M37.625,33.989c0,0.569,0.408,1.034,0.908,1.034h9.599c0.499,0,0.825-0.455,0.725-1.012l-1.32-8.208
				c-0.097-0.558-0.586-1.014-1.085-1.014h-7.918c-0.5,0-0.908,0.465-0.908,1.034V33.989z"/>
		</g>
		<g>
			<path fill="#3E4347" d="M34.813,25.825c0-0.569-0.418-1.034-0.929-1.034h-6.978c-0.51,0-1.125,0.411-1.364,0.912l-3.753,8.418
				c-0.246,0.496-0.032,0.903,0.478,0.903h11.617c0.511,0,0.929-0.465,0.929-1.034V25.825z"/>
		</g>
	</g>
	<path fill="#FFFFFF" d="M4.897,45.256h2.834c0.451,0,0.955-0.419,1.119-0.931l0.598-1.86c0.164-0.512-0.071-0.93-0.523-0.93H5.919
		L4.897,45.256z"/>
	<path fill="#FFE62E" d="M60.125,41.535h-2.309c-0.368,0-0.778,0.418-0.912,0.93c0,0-0.366,1.396-0.487,1.86
		c-0.134,0.512,0.059,0.931,0.427,0.931h3.281V41.535z"/>
	<g>
		<ellipse fill="#3E4347" cx="16.063" cy="53.628" rx="8.438" ry="8.372"/>
		<g>
			<path fill="#E8E8E8" d="M20.884,53.628c0,2.642-2.159,4.785-4.821,4.785c-2.663,0-4.822-2.144-4.822-4.785
				c0-2.64,2.159-4.784,4.822-4.784C18.725,48.844,20.884,50.988,20.884,53.628z"/>
			<path fill="#3E4347" d="M17.201,51.272c-0.204,0.638-0.717,1.16-1.139,1.16s-0.935-0.522-1.139-1.16L14.902,51.2
				c-0.205-0.638,0.318-1.159,1.161-1.159l0,0c0.843,0,1.366,0.521,1.161,1.159L17.201,51.272z"/>
			<path fill="#3E4347" d="M14.575,51.472c0.454,0.495,0.654,1.197,0.443,1.559c-0.21,0.362-0.921,0.542-1.58,0.4l-0.075-0.019
				c-0.659-0.144-0.853-0.853-0.431-1.578l0,0c0.421-0.725,1.137-0.911,1.591-0.417L14.575,51.472z"/>
			<path fill="#3E4347" d="M13.438,53.827c0.659-0.141,1.37,0.039,1.58,0.4c0.211,0.361,0.011,1.063-0.44,1.559l-0.054,0.055
				c-0.455,0.495-1.17,0.306-1.591-0.418l0,0c-0.422-0.726-0.229-1.434,0.431-1.577L13.438,53.827z"/>
			<path fill="#3E4347" d="M14.923,55.984c0.207-0.638,0.718-1.159,1.139-1.159s0.935,0.521,1.139,1.159l0.022,0.073
				c0.205,0.638-0.318,1.158-1.161,1.158l0,0c-0.843,0-1.366-0.521-1.161-1.158L14.923,55.984z"/>
			<path fill="#3E4347" d="M17.55,55.785c-0.454-0.495-0.654-1.196-0.443-1.559c0.209-0.362,0.921-0.542,1.58-0.4l0.076,0.018
				c0.659,0.144,0.852,0.854,0.43,1.579l0,0c-0.421,0.724-1.137,0.912-1.591,0.416L17.55,55.785z"/>
			<path fill="#3E4347" d="M18.688,53.429c-0.659,0.143-1.371-0.037-1.58-0.399c-0.211-0.362-0.014-1.063,0.44-1.559l0.055-0.054
				c0.454-0.496,1.17-0.308,1.591,0.417l0,0c0.421,0.726,0.229,1.434-0.43,1.578L18.688,53.429z"/>
			<polygon fill="#E8E8E8" points="18.695,56.954 17.649,57.553 13.43,50.303 14.476,49.703 			"/>
			<rect x="11.844" y="53.03" fill="#E8E8E8" width="8.438" height="1.196"/>
			<polygon fill="#E8E8E8" points="17.649,49.703 18.695,50.303 14.476,57.553 13.43,56.954 			"/>
		</g>
	</g>
	<g>
		<ellipse fill="#3E4347" cx="47.938" cy="53.628" rx="8.438" ry="8.372"/>
		<g>
			<path fill="#E8E8E8" d="M52.759,53.628c0,2.642-2.159,4.785-4.821,4.785s-4.821-2.144-4.821-4.785
				c0-2.64,2.159-4.784,4.821-4.784S52.759,50.988,52.759,53.628z"/>
			<path fill="#3E4347" d="M49.076,51.272c-0.204,0.638-0.718,1.16-1.139,1.16s-0.935-0.522-1.139-1.16L46.776,51.2
				c-0.205-0.638,0.319-1.159,1.161-1.159l0,0c0.842,0,1.366,0.521,1.161,1.159L49.076,51.272z"/>
			<path fill="#3E4347" d="M46.45,51.472c0.454,0.495,0.654,1.197,0.441,1.559c-0.208,0.362-0.92,0.542-1.579,0.4l-0.076-0.019
				c-0.659-0.144-0.852-0.853-0.43-1.578l0,0c0.421-0.725,1.137-0.911,1.591-0.417L46.45,51.472z"/>
			<path fill="#3E4347" d="M45.313,53.827c0.659-0.141,1.371,0.039,1.579,0.4c0.213,0.361,0.013,1.063-0.439,1.559l-0.055,0.055
				c-0.454,0.495-1.17,0.306-1.591-0.418l0,0c-0.422-0.726-0.229-1.434,0.43-1.577L45.313,53.827z"/>
			<path fill="#3E4347" d="M46.799,55.984c0.207-0.638,0.718-1.159,1.139-1.159s0.935,0.521,1.139,1.159l0.022,0.073
				c0.205,0.638-0.319,1.158-1.161,1.158l0,0c-0.842,0-1.366-0.521-1.161-1.158L46.799,55.984z"/>
			<path fill="#3E4347" d="M49.425,55.785c-0.454-0.495-0.654-1.196-0.441-1.559c0.208-0.362,0.92-0.542,1.579-0.4l0.076,0.018
				c0.659,0.144,0.852,0.854,0.43,1.579l0,0c-0.421,0.724-1.137,0.912-1.591,0.416L49.425,55.785z"/>
			<path fill="#3E4347" d="M50.563,53.429c-0.659,0.143-1.371-0.037-1.579-0.399c-0.213-0.362-0.015-1.063,0.439-1.559l0.055-0.054
				c0.454-0.496,1.17-0.308,1.591,0.417l0,0c0.422,0.726,0.229,1.434-0.43,1.578L50.563,53.429z"/>
			<polygon fill="#E8E8E8" points="50.569,56.954 49.524,57.553 45.306,50.303 46.351,49.703 			"/>
			<rect x="43.719" y="53.03" fill="#E8E8E8" width="8.438" height="1.196"/>
			<polygon fill="#E8E8E8" points="49.524,49.703 50.569,50.303 46.351,57.553 45.306,56.954 			"/>
		</g>
	</g>
</g>
</svg>
