<?xml version="1.0" encoding="utf-8"?>
<!-- Generator: Adobe Illustrator 15.0.0, SVG Export Plug-In . SVG Version: 6.00 Build 0)  -->
<!DOCTYPE svg PUBLIC "-//W3C//DTD SVG 1.1//EN" "http://www.w3.org/Graphics/SVG/1.1/DTD/svg11.dtd">
<svg version="1.1" id="Layer_1" xmlns="http://www.w3.org/2000/svg" xmlns:xlink="http://www.w3.org/1999/xlink" x="0px" y="0px"
	 width="64px" height="64px" viewBox="0 0 64 64" enable-background="new 0 0 64 64" xml:space="preserve">
<g>
	<g>
		<g>
			<path fill="#FFE62E" d="M58.25,31.063c0,0-1.875,2.056-1.875,3.841l-0.938-4.253L58.25,31.063z"/>
			<path fill="#FFE62E" d="M57.313,27.925c0,0,2.734-0.53,3.75,0.455C61.66,28.958,62,30.651,62,30.651c0,1-0.844,1.818-1.875,1.818
				h-2.813c-1.031,0-1.875-0.818-1.875-1.818v-0.909C55.438,28.743,56.281,27.925,57.313,27.925z"/>
		</g>
		<g>
			<path fill="#FFE62E" d="M5.75,31.063c0,0,1.875,2.056,1.875,3.841l0.938-4.253L5.75,31.063z"/>
			<path fill="#FFE62E" d="M6.688,27.925c0,0-2.735-0.53-3.75,0.455C2.34,28.958,2,30.651,2,30.651c0,1,0.844,1.818,1.875,1.818
				h2.813c1.031,0,1.875-0.818,1.875-1.818v-0.909C8.563,28.743,7.718,27.925,6.688,27.925z"/>
		</g>
		<path fill="#B2C1C0" d="M40.438,9.501H23.563c-0.516,0-0.938,0.422-0.938,0.938v1.875c0,0.516,0.422,0.938,0.938,0.938h16.875
			c0.516,0,0.938-0.422,0.938-0.938v-1.875C41.375,9.923,40.953,9.501,40.438,9.501z"/>
		<path fill="#3E4347" d="M58.25,60.125c0,1.031-0.844,1.875-1.875,1.875h-7.5C47.844,62,47,61.156,47,60.125v-7.5
			c0-1.029,0.844-1.875,1.875-1.875h7.5c1.031,0,1.875,0.846,1.875,1.875V60.125z"/>
		<path fill="#3E4347" d="M17,60.125C17,61.156,16.156,62,15.125,62h-7.5c-1.031,0-1.875-0.844-1.875-1.875v-7.5
			c0-1.029,0.844-1.875,1.875-1.875h7.5c1.03,0,1.875,0.846,1.875,1.875V60.125z"/>
		<path fill="#FFE62E" d="M60.752,42.002c-1.508-4.563-4.125-7.934-4.125-7.934c-5.793,0-7.164-7.692-7.164-7.692H32H14.536
			c0,0-1.369,7.692-7.163,7.692c0,0-2.617,3.371-4.126,7.934c-0.603,1.824-0.169,5.869,0,7.811c0.084,0.961,0.281,3.297,3.513,3.486
			c6.351,0.375,10.155,1.201,25.419,1.201c15.266,0,18.801-0.818,25.061-1.201c3.232-0.195,3.43-2.525,3.512-3.486
			C60.922,47.871,61.355,43.826,60.752,42.002z"/>
		<path fill="#FFE62E" d="M51.992,16.759c-1.602-3.279-3.459-4.003-5.881-4.445c-3.395-0.62-7.055-0.938-14.111-0.938
			c-7.057,0-10.717,0.317-14.112,0.938c-2.422,0.442-4.278,1.166-5.88,4.445c-1.86,3.808-4.383,16.265-4.383,18.146
			c0,2.014,2.129,2.721,4.652,2.721H32h19.722c2.523,0,4.652-0.707,4.652-2.721C56.375,33.023,53.852,20.567,51.992,16.759z"/>
		<path fill="#B2C1C0" d="M16.917,36.688c-0.526,3.107-3.437,5.625-6.495,5.625c-3.063,0-5.118-2.518-4.59-5.625
			c0.526-3.106,3.436-5.624,6.495-5.624C15.389,31.063,17.445,33.581,16.917,36.688z"/>
		<path fill="#FFFFFF" d="M15.07,36.688c-0.35,2.072-2.29,3.75-4.329,3.75c-2.042,0-3.412-1.678-3.061-3.75
			c0.35-2.07,2.291-3.749,4.329-3.749C14.051,32.938,15.42,34.617,15.07,36.688z"/>
		<path fill="#3E4347" d="M47.938,15.496C46.963,14.83,39.604,13.72,32,13.72c-7.604,0-14.964,1.11-15.938,1.776
			c-3.697,2.528-4.688,14.211-4.688,14.211s1.903,0.888,4.688,0.888c2.227,0,2.813-1.432,15.938-1.432
			c13.125,0,13.71,1.432,15.937,1.432c2.783,0,4.688-0.888,4.688-0.888S51.635,18.024,47.938,15.496z"/>
		<path fill="#B2C1C0" d="M47.082,36.688c0.527,3.107,3.436,5.625,6.494,5.625c3.063,0,5.119-2.518,4.592-5.625
			c-0.527-3.106-3.438-5.624-6.496-5.624C48.609,31.063,46.555,33.581,47.082,36.688z"/>
		<path fill="#FFFFFF" d="M48.93,36.688c0.35,2.072,2.291,3.75,4.33,3.75c2.041,0,3.41-1.678,3.061-3.75
			c-0.35-2.07-2.291-3.749-4.33-3.749C49.949,32.938,48.578,34.617,48.93,36.688z"/>
		<path fill="#3E4347" d="M44.652,50.75c-12.658,0-12.582,0-25.314,0c-1.011,0-0.17-1.918,0.643-2.299
			c4.362-2.051,19.414-1.814,24.027,0C44.867,48.789,45.662,50.75,44.652,50.75z"/>
		<circle fill="#FFFFFF" cx="54.5" cy="47.938" r="2.813"/>
		<circle fill="#FFFFFF" cx="9.5" cy="47.938" r="2.813"/>
		<circle fill="#F15744" cx="9.5" cy="47.938" r="1.875"/>
		<circle fill="#F15744" cx="54.5" cy="47.938" r="1.875"/>
		<path fill="#FFE62E" d="M39.5,2.001h-15c-0.516,0-0.938,0.422-0.938,0.938v6.563h16.875V2.938
			C40.438,2.423,40.016,2.001,39.5,2.001z"/>
		<g>
			<path fill="#E8E8E8" d="M41.121,39.711c-0.531-1.596-2.369-3.604-4.025-3.922c-2.51-0.48-7.682-0.48-10.191,0
				c-1.658,0.318-3.494,2.326-4.025,3.922l-0.105,0.314c-0.531,1.596,0.41,2.902,2.09,2.902h14.271c1.682,0,2.623-1.307,2.092-2.902
				L41.121,39.711z"/>
			<path fill="#62727A" d="M32,36.834c-1.93,0-3.734,0.125-4.832,0.336c-1.018,0.195-2.537,1.73-2.955,2.986l-0.107,0.32
				c-0.107,0.32-0.099,0.605,0.024,0.777c0.124,0.17,0.391,0.268,0.733,0.268h14.271c0.344,0,0.611-0.098,0.734-0.268
				c0.123-0.172,0.131-0.457,0.023-0.785l-0.104-0.307c-0.422-1.262-1.939-2.797-2.959-2.992C35.734,36.959,33.93,36.834,32,36.834z
				"/>
		</g>
		<path fill="#E8E8E8" d="M25.697,38.709h12.606c-0.391-0.412-0.818-0.752-1.186-0.938H26.883
			C26.514,37.957,26.087,38.297,25.697,38.709z"/>
		<path fill="#E8E8E8" d="M24.659,40.305l-0.096,0.279h14.873l-0.092-0.271c-0.072-0.219-0.189-0.443-0.324-0.666H24.978
			C24.846,39.867,24.731,40.088,24.659,40.305z"/>
		<g>
			<path fill="#62727A" d="M26.504,5.057c0-0.258-0.211-0.469-0.469-0.469h-0.129c-0.259,0-0.469-0.16-0.469-0.356
				c0-0.196,0.21-0.356,0.469-0.356h2.116c0.259,0,0.469,0.16,0.469,0.356c0,0.196-0.21,0.356-0.469,0.356h-0.147
				c-0.258,0-0.469,0.211-0.469,0.469v2.1c0,0.258-0.203,0.469-0.451,0.469s-0.451-0.211-0.451-0.469V5.057z"/>
			<path fill="#62727A" d="M30.531,6.663c-0.259,0-0.528,0.203-0.602,0.45l-0.019,0.063c-0.073,0.248-0.342,0.45-0.599,0.45
				c-0.255,0-0.399-0.201-0.32-0.446l0.925-2.858c0.08-0.245,0.355-0.446,0.614-0.446h0.241c0.258,0,0.535,0.201,0.615,0.445
				l0.94,2.859c0.081,0.245-0.063,0.445-0.322,0.445h-0.03c-0.258,0-0.533-0.201-0.61-0.447L31.342,7.11
				c-0.078-0.246-0.354-0.447-0.611-0.447H30.531z M30.63,6.029c0.243,0,0.385-0.179,0.317-0.398
				c-0.069-0.219-0.183-0.601-0.254-0.849c0,0-0.014-0.05-0.072-0.272l0,0c-0.006,0-0.059,0.206-0.117,0.457
				c0,0-0.012,0.05-0.076,0.267L30.325,5.58C30.251,5.827,30.389,6.029,30.63,6.029z"/>
			<path fill="#62727A" d="M36.016,7.626c-0.258,0-0.549-0.153-0.648-0.34c-0.1-0.186-0.279-0.525-0.398-0.753
				c0,0-0.023-0.042-0.135-0.258l0,0c-0.006,0-0.094,0.185-0.195,0.411c0,0,0,0-0.123,0.262l-0.125,0.257
				c-0.111,0.231-0.416,0.421-0.674,0.421h-0.09c-0.258,0-0.359-0.18-0.225-0.401l0.664-1.095c0.133-0.221,0.135-0.582,0.002-0.803
				l-0.629-1.048c-0.133-0.222-0.029-0.402,0.229-0.402h0.096c0.258,0,0.547,0.154,0.643,0.342s0.268,0.527,0.381,0.753
				c0,0,0,0,0.094,0.212l0,0c0.006,0,0.09-0.183,0.184-0.406c0,0,0,0,0.1-0.217l0.129-0.264c0.115-0.232,0.418-0.421,0.676-0.421
				h0.09c0.258,0,0.359,0.18,0.225,0.399L35.65,5.307c-0.135,0.22-0.135,0.58,0,0.799l0.689,1.121
				c0.135,0.22,0.035,0.399-0.225,0.399H36.016z"/>
			<path fill="#62727A" d="M38.111,3.876c0.248,0,0.451,0.211,0.451,0.469v2.813c0,0.258-0.203,0.469-0.451,0.469
				S37.66,7.415,37.66,7.157V4.345C37.66,4.087,37.863,3.876,38.111,3.876z"/>
		</g>
	</g>
</g>
</svg>
