<?xml version="1.0" encoding="utf-8"?>
<!-- Generator: Adobe Illustrator 15.0.0, SVG Export Plug-In . SVG Version: 6.00 Build 0)  -->
<!DOCTYPE svg PUBLIC "-//W3C//DTD SVG 1.1//EN" "http://www.w3.org/Graphics/SVG/1.1/DTD/svg11.dtd">
<svg version="1.1" id="Layer_1" xmlns="http://www.w3.org/2000/svg" xmlns:xlink="http://www.w3.org/1999/xlink" x="0px" y="0px"
	 width="64px" height="64px" viewBox="0 0 64 64" enable-background="new 0 0 64 64" xml:space="preserve">
<g>
	<path fill="#DAE3EA" d="M62,51.637c0,0.639,0.082,3.354-3.567,3.354c0,0-40.896,0-52.935,0c-0.643,0-3.378-0.463-3.477-3.176
		c0,0,0-8.596,0-14.686C2.021,28.994,5.605,17,17.121,17c13.328,0,40.108,0,40.108,0C62,17,62,20.218,62,25.435V51.637z"/>
	<path fill="#C5D0D8" d="M62,49.762c0,2.514,0,5.229-3.567,5.229c0,0-40.874,0-52.915,0c-0.641,0-3.376-0.463-3.477-3.176L2,48.674
		h60V49.762z"/>
	<path fill="#3E4347" d="M7.863,35.994h4.541c3.451-3.983,8.157-3.982,8.157-3.982V19.647C13.512,19.647,7.863,23.358,7.863,35.994z
		"/>
	<path fill="#3E4347" d="M2.021,38.453h2.946c0,0-0.337-13.78,5.167-17.749H7.815C7.815,20.704,1.601,25.53,2.021,38.453z"/>
	<rect x="23.413" y="19.646" fill="#3E4347" width="35.112" height="12.366"/>
	<path fill="#3E4347" d="M6.375,51.832c0,1.1-0.732,1.994-1.637,1.994c-0.707,0-0.683,0-0.683-1.994s-0.024-1.994,0.683-1.994
		C5.642,49.838,6.375,50.729,6.375,51.832z"/>
	<path fill="#FFFFFF" d="M5.866,51.832c0,0.742-0.495,1.348-1.106,1.348c-0.478,0-0.461,0-0.461-1.348s-0.017-1.348,0.461-1.348
		C5.371,50.484,5.866,51.088,5.866,51.832z"/>
	<g>
		<polygon fill="#F15744" points="62,45.258 59.684,42.449 59.684,39.588 62,39.584 		"/>
		<polygon fill="#FFD45C" points="59.684,36.725 62,33.91 62,39.586 59.684,39.586 		"/>
	</g>
	<g>
		<polygon fill="#3E4347" points="10.577,45.543 4.827,45.543 4.827,42.525 10.577,41.607 		"/>
		<polygon fill="#FFFFFF" points="9.132,45.092 5.036,45.092 5.036,42.941 9.132,42.289 		"/>
	</g>
	<path fill="#62727A" d="M62,46.555c0,0-20.189,0-26.75,0c-4.307,0-5.625,2.119-5.625,2.119H62V46.555z"/>
	<g>
		<g>
			<path fill="#C5D0D8" d="M60.209,54.719c0-5.176-4.198-9.375-9.375-9.375c-5.176,0-9.375,4.199-9.375,9.375
				C41.459,57.219,60.209,57.219,60.209,54.719z"/>
			<g>
				<g>
					<path fill="#3E4347" d="M57.913,54.92c0-3.908-3.173-7.076-7.079-7.076c-3.907,0-7.077,3.168-7.077,7.076S46.927,62,50.834,62
						C54.74,62,57.913,58.828,57.913,54.92z"/>
					<circle fill="#DAE3EA" cx="50.834" cy="54.92" r="4.045"/>
				</g>
				<circle fill="#3E4347" cx="50.834" cy="50.877" r="1.012"/>
				<circle fill="#3E4347" cx="47.331" cy="52.899" r="1.011"/>
				<circle fill="#3E4347" cx="47.331" cy="56.944" r="1.011"/>
				<circle fill="#3E4347" cx="50.834" cy="58.967" r="1.012"/>
				<circle fill="#3E4347" cx="54.339" cy="56.943" r="1.012"/>
				<path fill="#3E4347" d="M54.844,53.773c-0.484,0.279-1.104,0.113-1.382-0.369s-0.113-1.102,0.371-1.381
					c0.483-0.279,1.103-0.115,1.381,0.371C55.492,52.877,55.324,53.496,54.844,53.773z"/>
				<circle fill="#62727A" cx="50.834" cy="54.92" r="2.021"/>
			</g>
		</g>
		<g>
			<path fill="#C5D0D8" d="M28.274,54.719c0-5.176-4.201-9.375-9.375-9.375c-5.178,0-9.375,4.199-9.375,9.375
				C9.524,57.219,28.274,57.219,28.274,54.719z"/>
			<g>
				<g>
					<path fill="#3E4347" d="M25.976,54.92c0-3.908-3.171-7.076-7.077-7.076c-3.909,0-7.077,3.168-7.077,7.076S14.99,62,18.899,62
						C22.805,62,25.976,58.828,25.976,54.92z"/>
					<path fill="#DAE3EA" d="M22.942,54.92c0-2.23-1.813-4.045-4.043-4.045c-2.234,0-4.045,1.814-4.045,4.045
						c0,2.234,1.813,4.045,4.045,4.045C21.129,58.965,22.942,57.154,22.942,54.92z"/>
				</g>
				<circle fill="#3E4347" cx="18.899" cy="50.877" r="1.012"/>
				<circle fill="#3E4347" cx="15.396" cy="52.899" r="1.011"/>
				<path fill="#3E4347" d="M14.889,56.068c0.487-0.277,1.104-0.113,1.384,0.371c0.278,0.482,0.114,1.102-0.372,1.381
					c-0.483,0.279-1.102,0.113-1.382-0.371C14.244,56.967,14.409,56.348,14.889,56.068z"/>
				<circle fill="#3E4347" cx="18.899" cy="58.967" r="1.012"/>
				<circle fill="#3E4347" cx="22.403" cy="56.943" r="1.012"/>
				<circle fill="#3E4347" cx="22.403" cy="52.899" r="1.011"/>
				<circle fill="#62727A" cx="18.899" cy="54.92" r="2.021"/>
			</g>
		</g>
	</g>
	<rect x="39.229" y="36.271" fill="#62727A" width="15" height="0.938"/>
	<path fill="#62727A" d="M25.23,37.59c0,0.26-0.208,0.469-0.469,0.469l0,0c-0.258,0-0.469-0.209-0.469-0.469v-2.813
		c0-0.258,0.211-0.469,0.469-0.469l0,0c0.26,0,0.469,0.211,0.469,0.469V37.59z"/>
	<path fill="#62727A" d="M17.493,36.463c-0.258,0.002-0.469-0.207-0.469-0.469l0,0c0-0.258,0.21-0.469,0.469-0.469h2.813
		c0.258,0,0.469,0.211,0.469,0.469l0,0c0,0.262-0.21,0.469-0.469,0.469H17.493z"/>
	<rect x="2.021" y="41.625" fill="#62727A" width="1.869" height="5.604"/>
</g>
</svg>
