<?xml version="1.0" encoding="utf-8"?>
<!-- Generator: Adobe Illustrator 15.0.0, SVG Export Plug-In . SVG Version: 6.00 Build 0)  -->
<!DOCTYPE svg PUBLIC "-//W3C//DTD SVG 1.1//EN" "http://www.w3.org/Graphics/SVG/1.1/DTD/svg11.dtd">
<svg version="1.1" id="Layer_1" xmlns="http://www.w3.org/2000/svg" xmlns:xlink="http://www.w3.org/1999/xlink" x="0px" y="0px"
	 width="64px" height="64px" viewBox="0 0 64 64" enable-background="new 0 0 64 64" xml:space="preserve">
<g>
	<g>
		<polygon fill="#63686B" points="2,15.84 13.827,10.544 22.721,2 26.039,8.68 30.99,11.748 33.875,15.84 36.809,12.892 
			39.74,11.447 41.328,15.419 43.635,16.803 47,12.41 48.684,11.989 51.326,7.355 56.424,12.892 58.154,17.404 62,21.556 62,58.25 
			2,58.25 		"/>
		<g>
			<polygon fill="#C5D0D8" points="22.721,2 22.818,5.791 21.039,7.355 20.125,10.485 23.058,8.8 25.125,8.198 26.039,8.68 			"/>
			<polygon fill="#C5D0D8" points="27.107,9.341 26.808,11.628 24.548,14.998 21.039,24.084 23.346,23.843 24.548,26.973 
				26.279,24.265 27.914,25.708 28.827,32.087 31.519,29.62 31.857,25.438 33.395,29.62 34.068,33.893 35.703,25.438 33.875,15.84 
				30.99,11.748 			"/>
			<polygon fill="#C5D0D8" points="39.74,11.447 39.404,16.382 36.76,20.414 36.184,27.273 39.74,21.918 40.895,25.438 
				44.02,31.666 44.02,26.551 43.395,20.414 43.635,16.803 41.328,15.419 			"/>
			<polygon fill="#C5D0D8" points="51.326,7.355 52.721,11.447 51.568,12.41 51.326,18.007 48.203,19.451 48.203,25.438 
				46.76,30.823 49.74,31.666 51.615,34.253 53.635,33.893 57.625,40.572 57.049,36.359 59.404,37.803 59.885,32.989 62,36.963 
				62,21.556 58.154,17.404 56.424,12.892 			"/>
			<polygon fill="#C5D0D8" points="10.365,30.041 11.952,21.918 18.971,16.623 17.289,16.021 18.298,11.086 15.462,16.623 
				12.577,18.126 14.019,14.095 12.625,14.998 12.961,11.447 10.365,16.261 9.356,22.82 6.254,13.936 2,15.84 2,37.803 			"/>
		</g>
	</g>
	<g>
		<g>
			<rect x="2" y="58.25" fill="#3E4347" width="60" height="1.875"/>
			<g>
				<rect x="2" y="60.125" fill="#89664C" width="60" height="1.875"/>
				<g>
					<rect x="39.5" y="60.125" fill="#DBB471" width="3.75" height="1.875"/>
					<rect x="32" y="60.125" fill="#DBB471" width="3.75" height="1.875"/>
					<rect x="54.5" y="60.125" fill="#DBB471" width="3.75" height="1.875"/>
					<rect x="47" y="60.125" fill="#DBB471" width="3.75" height="1.875"/>
					<rect x="9.5" y="60.125" fill="#DBB471" width="3.75" height="1.875"/>
					<rect x="2" y="60.125" fill="#DBB471" width="3.75" height="1.875"/>
					<rect x="24.5" y="60.125" fill="#DBB471" width="3.75" height="1.875"/>
					<rect x="17" y="60.125" fill="#DBB471" width="3.75" height="1.875"/>
				</g>
			</g>
		</g>
	</g>
	<g>
		<g>
			<circle fill="#94989B" cx="27.103" cy="55.121" r="4.399"/>
			<path fill="#3E4347" d="M27.102,58.054c-1.618,0-2.933-1.314-2.933-2.933c0-1.617,1.314-2.933,2.933-2.933
				s2.933,1.315,2.933,2.933C30.035,56.739,28.72,58.054,27.102,58.054z M27.102,53.655c-0.808,0-1.467,0.658-1.467,1.466
				c0,0.809,0.659,1.466,1.467,1.466s1.466-0.657,1.466-1.466C28.568,54.313,27.91,53.655,27.102,53.655z"/>
		</g>
		<g>
			<circle fill="#94989B" cx="36.877" cy="55.121" r="4.399"/>
			<path fill="#3E4347" d="M36.877,58.054c-1.619,0-2.934-1.314-2.934-2.933c0-1.617,1.314-2.933,2.934-2.933
				c1.617,0,2.934,1.315,2.934,2.933C39.811,56.739,38.494,58.054,36.877,58.054z M36.877,53.655c-0.807,0-1.467,0.658-1.467,1.466
				c0,0.809,0.66,1.466,1.467,1.466c0.809,0,1.467-0.657,1.467-1.466C38.344,54.313,37.686,53.655,36.877,53.655z"/>
		</g>
		<g>
			<circle fill="#94989B" cx="56.965" cy="55.121" r="4.398"/>
			<path fill="#3E4347" d="M56.965,58.054c-1.619,0-2.934-1.314-2.934-2.933c0-1.617,1.314-2.933,2.934-2.933
				c1.617,0,2.932,1.315,2.932,2.933C59.896,56.739,58.582,58.054,56.965,58.054z M56.965,53.655c-0.809,0-1.467,0.658-1.467,1.466
				c0,0.809,0.658,1.466,1.467,1.466c0.807,0,1.465-0.657,1.465-1.466C58.43,54.313,57.771,53.655,56.965,53.655z"/>
		</g>
		<path fill="#F2B200" d="M62,20.651H25.855c-2.82,0-5.107,2.286-5.107,5.106v29.364H62V25.757V20.651z"/>
		<path fill="#699635" d="M62,20.651H25.855c-2.82,0-5.107,2.286-5.107,5.106v2.554H62V20.651z"/>
		<rect x="20.748" y="28.312" fill="#FFE62E" width="41.252" height="14.042"/>
		<rect x="20.15" y="52.567" fill="#3E4347" width="0.598" height="2.554"/>
		<rect x="18.574" y="51.291" fill="#3E4347" width="1.576" height="5.105"/>
		<polygon fill="#89664C" points="41.285,50.313 52.555,50.313 55.109,47.76 62,47.76 62,45.207 54.053,45.207 51.498,47.76 
			42.344,47.76 39.789,45.207 20.748,45.207 20.748,47.76 38.732,47.76 		"/>
		<path fill="#3E4347" d="M60.455,38.824c0,0.539-0.438,0.978-0.977,0.978h-5.707c-0.539,0-0.977-0.438-0.977-0.978v-6.982
			c0-0.539,0.438-0.978,0.977-0.978h5.707c0.539,0,0.977,0.438,0.977,0.978V38.824z"/>
		<path fill="#3E4347" d="M50.75,38.824c0,0.539-0.438,0.978-0.979,0.978h-5.703c-0.541,0-0.977-0.438-0.977-0.978v-6.982
			c0-0.539,0.436-0.978,0.977-0.978h5.703c0.541,0,0.979,0.438,0.979,0.978V38.824z"/>
		<path fill="#3E4347" d="M41.045,38.824c0,0.539-0.438,0.978-0.977,0.978h-5.705c-0.539,0-0.979-0.438-0.979-0.978v-6.982
			c0-0.539,0.439-0.978,0.979-0.978h5.705c0.539,0,0.977,0.438,0.977,0.978V38.824z"/>
		<path fill="#3E4347" d="M31.341,38.824c0,0.539-0.439,0.978-0.979,0.978h-5.705c-0.539,0-0.977-0.438-0.977-0.978v-6.982
			c0-0.539,0.438-0.978,0.977-0.978h5.705c0.539,0,0.979,0.438,0.979,0.978V38.824z"/>
		<rect x="20.748" y="51.291" fill="#3E4347" width="41.252" height="3.83"/>
		<path fill="#B4D7EE" d="M30.26,37.769c0,0.476-0.385,0.86-0.859,0.86h-3.78c-0.475,0-0.86-0.385-0.86-0.86v-4.872
			c0-0.475,0.386-0.859,0.86-0.859h3.78c0.475,0,0.859,0.385,0.859,0.859V37.769z"/>
		<path fill="#B4D7EE" d="M39.967,37.769c0,0.476-0.387,0.86-0.861,0.86h-3.779c-0.475,0-0.859-0.385-0.859-0.86v-4.872
			c0-0.475,0.385-0.859,0.859-0.859h3.779c0.475,0,0.861,0.385,0.861,0.859V37.769z"/>
		<path fill="#B4D7EE" d="M49.67,37.769c0,0.476-0.385,0.86-0.859,0.86h-3.779c-0.475,0-0.861-0.385-0.861-0.86v-4.872
			c0-0.475,0.387-0.859,0.861-0.859h3.779c0.475,0,0.859,0.385,0.859,0.859V37.769z"/>
		<path fill="#B4D7EE" d="M59.375,37.769c0,0.476-0.385,0.86-0.859,0.86h-3.779c-0.477,0-0.861-0.385-0.861-0.86v-4.872
			c0-0.475,0.385-0.859,0.861-0.859h3.779c0.475,0,0.859,0.385,0.859,0.859V37.769z"/>
	</g>
</g>
</svg>
