<?xml version="1.0" encoding="utf-8"?>
<!-- Generator: Adobe Illustrator 15.0.0, SVG Export Plug-In . SVG Version: 6.00 Build 0)  -->
<!DOCTYPE svg PUBLIC "-//W3C//DTD SVG 1.1//EN" "http://www.w3.org/Graphics/SVG/1.1/DTD/svg11.dtd">
<svg version="1.1" id="Layer_1" xmlns="http://www.w3.org/2000/svg" xmlns:xlink="http://www.w3.org/1999/xlink" x="0px" y="0px"
	 width="64px" height="64px" viewBox="0 0 64 64" enable-background="new 0 0 64 64" xml:space="preserve">
<g>
	<rect x="13" y="37.999" fill="#699635" width="36" height="15"/>
	<path fill="#258399" d="M36.563,35.999H49V22.828c-5.533,0-2.447,4.826-4.525,7.805C41.73,34.556,36.563,31.059,36.563,35.999z"/>
	<g>
		<path fill="#3E4347" d="M57,37.999H26l3-23h25L57,37.999z M29,35.999h25l-2-19H31L29,35.999z"/>
	</g>
	<path fill="#699635" d="M56,15c0,0.73-0.268,1-1,1H28c-0.731,0-1-0.27-1-1v-2c0-0.73,0.269-1,1-1h27c0.732,0,1,0.27,1,1V15z"/>
	<path fill="#699635" d="M28,31c0-0.689-0.31-1-1-1c0,0-18.547,1.199-20.979,2.483c-3,1.583-4.615,9.911-2.75,12.517
		c0.562,0.785,2.729,1,3.729,1l18-2c1,0,3-2,3-3V31z"/>
	<path fill="#83BF4F" d="M37.675,44.999c2.138-4.611,6.428-7.768,11.384-7.768c4.86,0,9.086,3.035,11.263,7.504L64,42.999
		c-2.683-6.238-8.356-10-14.941-10c-6.681,0-12.425,3.617-15.059,10L37.675,44.999z"/>
	<path fill="#83BF4F" d="M10,45.999c3,0,7,4,7,7h3c0-6-4-10-10-10V45.999z"/>
	<path fill="#3E4347" d="M4.267,34.373L13,33.565l-1.604,6.75c-4.667,0.875-8.513,3.932-8.513,3.932S0.805,41.014,4.267,34.373z"/>
	<path fill="#FFFFFF" d="M4.839,35.05L9,34.665l-5.218,3.098C3.782,37.763,3.927,36.208,4.839,35.05z"/>
	<rect y="44.247" fill="#83BF4F" width="8.479" height="3.131"/>
	<circle fill="#3E4347" cx="9" cy="53.999" r="9"/>
	<path fill="#FFD45C" d="M14,53.999c0,2.762-2.242,5-5,5c-2.761,0-5-2.238-5-5c0-2.764,2.239-5,5-5
		C11.758,48.999,14,51.235,14,53.999z"/>
	<rect y="27.166" fill="#83BF4F" width="2" height="15"/>
	<g>
		<path fill="#83BF4F" d="M2,39.247v2c1.656,0,3,1.343,3,3h2C7,41.485,4.761,39.247,2,39.247z"/>
	</g>
	<path fill="#3E4347" d="M35.104,27.233c0,1.012-0.82,1.833-1.833,1.833l0,0c-1.013,0-1.833-0.821-1.833-1.833v-6.75
		c0-1.012,0.82-1.833,1.833-1.833l0,0c1.013,0,1.833,0.821,1.833,1.833V27.233z"/>
	<rect x="32.271" y="16.399" fill="#3E4347" width="1" height="3.333"/>
	<circle fill="#3E4347" cx="49" cy="49.999" r="13"/>
	<path fill="#FFD45C" d="M56,50.001c0,3.865-3.14,6.998-7,6.998c-3.865,0-7-3.133-7-6.998c0-3.869,3.135-7.002,7-7.002
		C52.86,42.999,56,46.132,56,50.001z"/>
	<path fill="#3E4347" d="M16.931,37.999c0,4.234-1.749,4.234-1.749,4.234v-4.234c0-4.232,1.749-4.232,1.749-4.232V37.999z"/>
	<path fill="#3E4347" d="M20.419,37.999c0,4.234-1.748,4.234-1.748,4.234v-4.234c0-4.232,1.748-4.232,1.748-4.232V37.999z"/>
	<path fill="#3E4347" d="M23.908,37.999c0,4.234-1.749,4.234-1.749,4.234v-4.234c0-4.232,1.749-4.232,1.749-4.232V37.999z"/>
	<g>
		<g>
			<path fill="#D89500" d="M54.317,49.999c0-2.935-2.384-5.316-5.317-5.316s-5.317,2.382-5.317,5.316
				c0,2.936,2.384,5.318,5.317,5.318S54.317,52.935,54.317,49.999z"/>
		</g>
		<circle fill="#FFD45C" cx="49" cy="44.683" r="1.329"/>
		<circle fill="#FFD45C" cx="44.394" cy="47.341" r="1.329"/>
		<path fill="#FFD45C" d="M43.729,51.508c0.636-0.367,1.451-0.149,1.817,0.485c0.366,0.637,0.147,1.449-0.488,1.816
			c-0.634,0.367-1.449,0.149-1.815-0.486C42.877,52.688,43.096,51.874,43.729,51.508z"/>
		<circle fill="#FFD45C" cx="49" cy="55.317" r="1.329"/>
		<circle fill="#FFD45C" cx="53.606" cy="52.658" r="1.329"/>
		<circle fill="#FFD45C" cx="53.606" cy="47.34" r="1.329"/>
		<circle fill="#3E4347" cx="49" cy="49.999" r="2.659"/>
	</g>
	<g>
		<g>
			<circle fill="#D89500" cx="9" cy="53.999" r="3.795"/>
		</g>
		<circle fill="#FFD45C" cx="9" cy="50.204" r="0.948"/>
		<circle fill="#FFD45C" cx="5.713" cy="52.102" r="0.949"/>
		<circle fill="#FFD45C" cx="5.713" cy="55.897" r="0.949"/>
		<circle fill="#FFD45C" cx="9" cy="57.795" r="0.948"/>
		<circle fill="#FFD45C" cx="12.287" cy="55.897" r="0.949"/>
		<circle fill="#FFD45C" cx="12.287" cy="52.102" r="0.949"/>
		<circle fill="#3E4347" cx="9" cy="53.999" r="1.898"/>
	</g>
	<path fill="#FFD45C" d="M28,33.146l-0.021-2.425c0,0-11.22,0.091-20.861,2.027c-1.012,0.203-1.916,1.538-1.916,1.538
		C13.535,33.35,28,33.146,28,33.146z"/>
</g>
</svg>
