<?xml version="1.0" encoding="utf-8"?>
<!-- Generator: Adobe Illustrator 15.0.0, SVG Export Plug-In . SVG Version: 6.00 Build 0)  -->
<!DOCTYPE svg PUBLIC "-//W3C//DTD SVG 1.1//EN" "http://www.w3.org/Graphics/SVG/1.1/DTD/svg11.dtd">
<svg version="1.1" id="Layer_1" xmlns="http://www.w3.org/2000/svg" xmlns:xlink="http://www.w3.org/1999/xlink" x="0px" y="0px"
	 width="64px" height="64px" viewBox="0 0 64 64" enable-background="new 0 0 64 64" xml:space="preserve">
<g>
	<path fill="#FFE62E" d="M58.181,38.1l-5.269-1.568c-1.055-0.316-2.107-1.369-2.344-2.342l-2.184-9.052
		c-0.236-0.974-1.337-1.843-2.45-1.843H27.727c-1.115,0-2.434,0.953-2.93,1.843l-5.273,9.203c-0.497,0.891-1.767,1.875-2.822,2.191
		l-8.302,2.473c-1.055,0.316-2.231,1.75-2.48,2.721l0.558,1.914l-1.58,1.773l-1.022,3.686h56.25v-8.295
		C60.125,39.809,59.235,38.416,58.181,38.1z"/>
	<path fill="#B2C1C0" d="M62,51.266c0-1.391-0.482-2.168-1.526-2.168H3.526C2.482,49.098,2,49.875,2,51.266
		c0,0.303,0.145,2.002,0.204,2.297c0.238,1.182,1.228,1.061,2.271,1.061h55.051c1.043,0,2.032,0.121,2.271-1.061
		C61.855,53.268,62,51.568,62,51.266z"/>
	<g>
		<g>
			<path fill="#3E4347" d="M35.75,34.25c0,0.564,0.408,1.023,0.908,1.023h7.724c0.499,0,0.825-0.449,0.725-1.002l-1.32-7.209
				c-0.097-0.552-0.586-1.004-1.085-1.004h-6.043c-0.5,0-0.908,0.461-0.908,1.024V34.25z"/>
		</g>
		<g>
			<path fill="#3E4347" d="M33.875,27.083c0-0.563-0.418-1.024-0.928-1.024h-5.103c-0.51,0-1.125,0.407-1.364,0.903l-3.753,7.419
				c-0.246,0.49-0.032,0.893,0.478,0.893h9.742c0.51,0,0.928-0.459,0.928-1.023V27.083z"/>
		</g>
	</g>
	<path fill="#FFFFFF" d="M4.897,45.412h2.834c0.451,0,0.955-0.414,1.119-0.922l0.598-1.844c0.164-0.506-0.071-0.922-0.523-0.922
		H5.919L4.897,45.412z"/>
	<path fill="#F15744" d="M60.125,41.725h-2.309c-0.368,0-0.778,0.416-0.912,0.922c0,0-0.366,1.383-0.487,1.844
		c-0.134,0.508,0.059,0.922,0.427,0.922h3.281V41.725z"/>
	<g>
		<path fill="#3E4347" d="M24.969,42.186c0,0.254-0.21,0.461-0.469,0.461h-1.875c-0.258,0-0.469-0.207-0.469-0.461v-1.844
			c0-0.252,0.21-0.459,0.469-0.459H24.5c0.258,0,0.469,0.207,0.469,0.459V42.186z"/>
		<path fill="#3E4347" d="M27.781,44.951c0,0.252-0.21,0.461-0.469,0.461h-1.875c-0.258,0-0.469-0.209-0.469-0.461v-1.844
			c0-0.254,0.21-0.461,0.469-0.461h1.875c0.258,0,0.469,0.207,0.469,0.461V44.951z"/>
		<path fill="#3E4347" d="M30.594,42.186c0,0.254-0.21,0.461-0.469,0.461H28.25c-0.258,0-0.469-0.207-0.469-0.461v-1.844
			c0-0.252,0.21-0.459,0.469-0.459h1.875c0.258,0,0.469,0.207,0.469,0.459V42.186z"/>
		<path fill="#3E4347" d="M33.406,44.951c0,0.252-0.211,0.461-0.469,0.461h-1.875c-0.258,0-0.469-0.209-0.469-0.461v-1.844
			c0-0.254,0.21-0.461,0.469-0.461h1.875c0.258,0,0.469,0.207,0.469,0.461V44.951z"/>
		<path fill="#3E4347" d="M36.219,42.186c0,0.254-0.211,0.461-0.469,0.461h-1.875c-0.258,0-0.469-0.207-0.469-0.461v-1.844
			c0-0.252,0.211-0.459,0.469-0.459h1.875c0.258,0,0.469,0.207,0.469,0.459V42.186z"/>
		<path fill="#3E4347" d="M39.031,44.951c0,0.252-0.211,0.461-0.469,0.461h-1.875c-0.258,0-0.469-0.209-0.469-0.461v-1.844
			c0-0.254,0.211-0.461,0.469-0.461h1.875c0.258,0,0.469,0.207,0.469,0.461V44.951z"/>
		<path fill="#3E4347" d="M41.844,42.186c0,0.254-0.211,0.461-0.469,0.461H39.5c-0.258,0-0.469-0.207-0.469-0.461v-1.844
			c0-0.252,0.211-0.459,0.469-0.459h1.875c0.258,0,0.469,0.207,0.469,0.459V42.186z"/>
	</g>
	<path fill="#F15744" d="M34.178,16.697c-0.213-0.859-1.086-0.773-1.943-0.773c-0.857,0-1.73-0.086-1.944,0.773l-0.785,4.754h5.457
		L34.178,16.697z"/>
	<path fill="#3E4347" d="M35.508,21.451h-2.182l-0.314-5.546c-0.085-1.002-0.435-0.901-0.777-0.901
		c-0.343,0-0.692-0.101-0.777,0.901l-0.314,5.546H28.96c-0.6,0-1.091,0.415-1.091,0.921v0.922h8.73v-0.922
		C36.6,21.865,36.108,21.451,35.508,21.451z"/>
	<g>
		<ellipse fill="#3E4347" cx="16.063" cy="53.705" rx="8.438" ry="8.295"/>
		<g>
			<ellipse fill="#E8E8E8" cx="16.062" cy="53.705" rx="4.822" ry="4.74"/>
			<path fill="#3E4347" d="M17.201,51.371c-0.204,0.633-0.718,1.15-1.139,1.15s-0.935-0.518-1.139-1.15l-0.022-0.07
				c-0.205-0.631,0.319-1.148,1.161-1.148l0,0c0.842,0,1.366,0.518,1.161,1.148L17.201,51.371z"/>
			<path fill="#3E4347" d="M14.575,51.57c0.454,0.49,0.655,1.186,0.442,1.543c-0.209,0.359-0.92,0.537-1.58,0.396l-0.075-0.018
				c-0.659-0.143-0.853-0.846-0.431-1.563l0,0c0.421-0.719,1.137-0.904,1.591-0.414L14.575,51.57z"/>
			<path fill="#3E4347" d="M13.438,53.904c0.659-0.141,1.371,0.037,1.58,0.396c0.212,0.357,0.012,1.053-0.439,1.543l-0.055,0.055
				c-0.454,0.49-1.169,0.303-1.591-0.414l0,0c-0.422-0.719-0.229-1.42,0.431-1.563L13.438,53.904z"/>
			<path fill="#3E4347" d="M14.924,56.041c0.207-0.633,0.718-1.148,1.139-1.148s0.935,0.516,1.139,1.148l0.022,0.072
				c0.205,0.631-0.319,1.146-1.161,1.146l0,0c-0.842,0-1.366-0.516-1.161-1.146L14.924,56.041z"/>
			<path fill="#3E4347" d="M17.55,55.842c-0.454-0.49-0.655-1.184-0.442-1.543c0.209-0.359,0.92-0.537,1.58-0.396l0.076,0.018
				c0.659,0.143,0.852,0.846,0.43,1.564l0,0c-0.421,0.717-1.137,0.904-1.591,0.412L17.55,55.842z"/>
			<path fill="#3E4347" d="M18.688,53.508c-0.659,0.143-1.371-0.037-1.58-0.395c-0.212-0.359-0.015-1.055,0.439-1.545l0.055-0.053
				c0.454-0.492,1.17-0.305,1.591,0.414l0,0c0.421,0.717,0.229,1.418-0.43,1.563L18.688,53.508z"/>
			<polygon fill="#E8E8E8" points="18.695,57.002 17.649,57.594 13.43,50.41 14.476,49.818 			"/>
			<rect x="11.844" y="53.113" fill="#E8E8E8" width="8.438" height="1.186"/>
			<polygon fill="#E8E8E8" points="17.649,49.818 18.695,50.41 14.476,57.594 13.43,57.002 			"/>
		</g>
	</g>
	<g>
		<ellipse fill="#3E4347" cx="47.938" cy="53.705" rx="8.438" ry="8.295"/>
		<g>
			<ellipse fill="#E8E8E8" cx="47.938" cy="53.705" rx="4.821" ry="4.74"/>
			<path fill="#3E4347" d="M49.076,51.371c-0.204,0.633-0.718,1.15-1.139,1.15s-0.935-0.518-1.139-1.15l-0.022-0.07
				c-0.205-0.631,0.319-1.148,1.161-1.148l0,0c0.842,0,1.366,0.518,1.161,1.148L49.076,51.371z"/>
			<path fill="#3E4347" d="M46.45,51.57c0.454,0.49,0.654,1.186,0.441,1.543c-0.208,0.359-0.92,0.537-1.579,0.396l-0.076-0.018
				c-0.659-0.143-0.852-0.846-0.43-1.563l0,0c0.421-0.719,1.137-0.904,1.591-0.414L46.45,51.57z"/>
			<path fill="#3E4347" d="M45.313,53.904c0.659-0.141,1.371,0.037,1.579,0.396c0.213,0.357,0.013,1.053-0.439,1.543l-0.055,0.055
				c-0.454,0.49-1.17,0.303-1.591-0.414l0,0c-0.422-0.719-0.229-1.42,0.43-1.563L45.313,53.904z"/>
			<path fill="#3E4347" d="M46.799,56.041c0.207-0.633,0.718-1.148,1.139-1.148s0.935,0.516,1.139,1.148l0.022,0.072
				c0.205,0.631-0.319,1.146-1.161,1.146l0,0c-0.842,0-1.366-0.516-1.161-1.146L46.799,56.041z"/>
			<path fill="#3E4347" d="M49.425,55.842c-0.454-0.49-0.654-1.184-0.441-1.543c0.208-0.359,0.92-0.537,1.579-0.396l0.076,0.018
				c0.659,0.143,0.852,0.846,0.43,1.564l0,0c-0.421,0.717-1.137,0.904-1.591,0.412L49.425,55.842z"/>
			<path fill="#3E4347" d="M50.563,53.508c-0.659,0.143-1.371-0.037-1.579-0.395c-0.213-0.359-0.015-1.055,0.439-1.545l0.055-0.053
				c0.454-0.492,1.17-0.305,1.591,0.414l0,0c0.422,0.717,0.229,1.418-0.43,1.563L50.563,53.508z"/>
			<polygon fill="#E8E8E8" points="50.569,57.002 49.524,57.594 45.306,50.41 46.351,49.818 			"/>
			<rect x="43.719" y="53.113" fill="#E8E8E8" width="8.438" height="1.186"/>
			<polygon fill="#E8E8E8" points="49.524,49.818 50.569,50.41 46.351,57.594 45.306,57.002 			"/>
		</g>
	</g>
</g>
</svg>
