<?xml version="1.0" encoding="utf-8"?>
<!-- Generator: Adobe Illustrator 15.0.0, SVG Export Plug-In . SVG Version: 6.00 Build 0)  -->
<!DOCTYPE svg PUBLIC "-//W3C//DTD SVG 1.1//EN" "http://www.w3.org/Graphics/SVG/1.1/DTD/svg11.dtd">
<svg version="1.1" id="Layer_1" xmlns="http://www.w3.org/2000/svg" xmlns:xlink="http://www.w3.org/1999/xlink" x="0px" y="0px"
	 width="64px" height="64px" viewBox="0 0 64 64" enable-background="new 0 0 64 64" xml:space="preserve">
<g>
	<path fill="#B2C1C0" d="M62,50.783c0-1.029-0.844-1.871-1.875-1.871H3.875C2.844,48.912,2,49.754,2,50.783v1.869
		c0,1.027,0.844,1.869,1.875,1.869h56.25c1.031,0,1.875-0.842,1.875-1.869V50.783z"/>
	<g>
		<ellipse fill="#3E4347" cx="12.313" cy="55.457" rx="6.563" ry="6.545"/>
		<ellipse fill="#B2C1C0" cx="12.313" cy="55.457" rx="3.75" ry="3.74"/>
		<ellipse fill="#3E4347" cx="50.75" cy="55.457" rx="6.563" ry="6.545"/>
		<ellipse fill="#B2C1C0" cx="50.75" cy="55.457" rx="3.75" ry="3.74"/>
	</g>
	<g>
		<path fill="#62727A" d="M54.5,19H28.25c-3.095,0-5.625,2.524-5.625,5.609v24.303h37.5V24.609C60.125,21.524,57.593,19,54.5,19z"/>
	</g>
	<path fill="#F15744" d="M15.125,26.479c-4.453,0-5.625,0-5.625,7.479c0,5.607-5.625,5.607-5.625,11.217v3.738h18.75V26.479
		C22.625,26.479,17.469,26.479,15.125,26.479z"/>
	<rect x="5.75" y="43.305" fill="#FFCE31" width="1.875" height="3.738"/>
	<path fill="#D33B23" d="M12.785,39.564c-1.095,0-1.676,0.789-1.293,1.752l1.589,3.979c0.384,0.961,1.595,1.748,2.69,1.748h2.986
		c1.095,0,1.992-0.842,1.992-1.869v-3.74c0-1.027-0.897-1.869-1.992-1.869H12.785z"/>
	<path fill="#3E4347" d="M20.75,28.348h-7.5c0,0-1.875,0.208-1.875,2.804v4.465c0,0,0,2.078,1.875,2.078s7.5,0,7.5,0V28.348z"/>
	<path d="M50.75,20.87"/>
	<circle fill="#3E4347" cx="12.313" cy="51.717" r="0.938"/>
	<circle fill="#3E4347" cx="9.064" cy="53.588" r="0.936"/>
	<path fill="#3E4347" d="M8.596,56.518c0.448-0.258,1.023-0.104,1.281,0.342c0.258,0.445,0.104,1.018-0.344,1.277
		c-0.447,0.258-1.022,0.104-1.28-0.344C7.995,57.348,8.148,56.775,8.596,56.518z"/>
	<circle fill="#3E4347" cx="12.313" cy="59.195" r="0.938"/>
	<circle fill="#3E4347" cx="15.561" cy="57.327" r="0.935"/>
	<circle fill="#3E4347" cx="15.561" cy="53.587" r="0.935"/>
	<ellipse fill="#62727A" cx="12.313" cy="55.457" rx="1.875" ry="1.869"/>
	<circle fill="#3E4347" cx="50.75" cy="51.717" r="0.938"/>
	<circle fill="#3E4347" cx="47.502" cy="53.588" r="0.936"/>
	<path fill="#3E4347" d="M47.033,56.518c0.448-0.258,1.023-0.104,1.281,0.342c0.259,0.445,0.104,1.018-0.344,1.277
		c-0.447,0.258-1.021,0.104-1.28-0.344C46.433,57.348,46.586,56.775,47.033,56.518z"/>
	<circle fill="#3E4347" cx="50.75" cy="59.195" r="0.938"/>
	<circle fill="#3E4347" cx="53.998" cy="57.327" r="0.935"/>
	<circle fill="#3E4347" cx="53.998" cy="53.587" r="0.935"/>
	<ellipse fill="#62727A" cx="50.75" cy="55.457" rx="1.875" ry="1.869"/>
	<g>
		<path fill="#FFFFFF" d="M28.354,32.725c-0.507-0.425-1.22-0.637-2.25-0.637c-0.597,0-1.161,0.041-1.604,0.115v5.421
			c0.328,0.039,0.769,0.072,1.358,0.072c1.073,0,1.948-0.254,2.496-0.752c0.523-0.475,0.86-1.211,0.86-2.191
			C29.215,33.813,28.887,33.158,28.354,32.725z M26.063,36.895c-0.205,0-0.417,0-0.557-0.023V32.93
			c0.14-0.033,0.368-0.058,0.687-0.058c1.261,0,1.964,0.696,1.958,1.913C28.151,36.184,27.373,36.902,26.063,36.895z"/>
		<path fill="#FFFFFF" d="M33.174,35.195h-2.078v1.617h2.323v0.826h-3.331v-5.511h3.208v0.827h-2.201v1.422h2.078V35.195z"/>
		<polygon fill="#FFFFFF" points="35.309,36.795 35.309,32.128 34.302,32.128 34.302,37.639 37.575,37.639 37.575,36.795 		"/>
		<rect x="38.334" y="32.128" fill="#FFFFFF" width="1.009" height="5.511"/>
		<path fill="#FFFFFF" d="M43.744,32.128l-0.802,2.519c-0.222,0.67-0.419,1.34-0.565,1.992H42.36
			c-0.146-0.67-0.328-1.314-0.54-2.008l-0.753-2.503h-1.097l1.783,5.511h1.155l1.906-5.511H43.744z"/>
		<polygon fill="#FFFFFF" points="46.418,36.813 46.418,35.195 48.498,35.195 48.498,34.377 46.418,34.377 46.418,32.955 
			48.62,32.955 48.62,32.128 45.41,32.128 45.41,37.639 48.741,37.639 48.741,36.813 		"/>
		<path fill="#FFFFFF" d="M53.096,36.102c-0.14-0.531-0.375-0.916-0.77-1.063v-0.025c0.517-0.188,0.998-0.67,0.998-1.381
			c0-0.467-0.172-0.85-0.474-1.104c-0.368-0.31-0.908-0.441-1.703-0.441c-0.581,0-1.146,0.049-1.523,0.115v5.437h1v-2.266h0.507
			c0.573,0.018,0.835,0.246,0.99,0.965c0.156,0.688,0.288,1.137,0.368,1.301h1.04C53.414,37.426,53.268,36.787,53.096,36.102z
			 M51.221,34.637h-0.597v-1.74c0.099-0.025,0.304-0.048,0.622-0.048c0.655,0,1.08,0.278,1.08,0.882
			C52.326,34.278,51.901,34.637,51.221,34.637z"/>
		<path fill="#FFFFFF" d="M57.111,32.128l-0.663,1.415c-0.188,0.4-0.345,0.744-0.481,1.094H55.95
			c-0.146-0.374-0.287-0.686-0.476-1.094l-0.663-1.415h-1.145l1.743,3.212v2.299h1.005v-2.322l1.835-3.188H57.111z"/>
	</g>
	<g>
		<path fill="#3E4347" d="M27.313,30.218v-5.609c0-0.516,0.421-0.935,0.938-0.935H54.5c0.517,0,0.938,0.419,0.938,0.935v5.609h1.875
			v-5.609c0-1.546-1.262-2.805-2.813-2.805H28.25c-1.551,0-2.813,1.258-2.813,2.805v5.609H27.313z"/>
		<path fill="#3E4347" d="M55.438,39.564v3.74c0,0.514-0.421,0.934-0.938,0.934H28.25c-0.517,0-0.938-0.42-0.938-0.934v-3.74h-1.875
			v3.74c0,1.545,1.262,2.803,2.813,2.803H54.5c1.551,0,2.813-1.258,2.813-2.803v-3.74H55.438z"/>
	</g>
	<circle fill="#B2C1C0" cx="29.188" cy="25.543" r="0.938"/>
	<circle fill="#B2C1C0" cx="53.563" cy="25.543" r="0.938"/>
	<circle fill="#B2C1C0" cx="29.188" cy="42.369" r="0.938"/>
	<circle fill="#B2C1C0" cx="53.563" cy="42.369" r="0.938"/>
	<path fill="#62727A" d="M37.625,55.457c0,1.027-0.844,1.869-1.875,1.869h-7.5c-1.031,0-1.875-0.842-1.875-1.869v-1.871
		c0-1.027,0.844-1.869,1.875-1.869h7.5c1.031,0,1.875,0.842,1.875,1.869V55.457z"/>
	<path fill="#B2C1C0" d="M28.484,52.652c-0.645,0-1.172,0.422-1.172,0.934l0,0c0,0.516,0.527,0.936,1.172,0.936h7.031
		c0.645,0,1.172-0.42,1.172-0.936l0,0c0-0.512-0.527-0.934-1.172-0.934H28.484z"/>
</g>
</svg>
