<?xml version="1.0" encoding="utf-8"?>
<!-- Generator: Adobe Illustrator 15.0.0, SVG Export Plug-In . SVG Version: 6.00 Build 0)  -->
<!DOCTYPE svg PUBLIC "-//W3C//DTD SVG 1.1//EN" "http://www.w3.org/Graphics/SVG/1.1/DTD/svg11.dtd">
<svg version="1.1" id="Layer_1" xmlns="http://www.w3.org/2000/svg" xmlns:xlink="http://www.w3.org/1999/xlink" x="0px" y="0px"
	 width="64px" height="64px" viewBox="0 0 64 64" enable-background="new 0 0 64 64" xml:space="preserve">
<g>
	<g>
		<path fill="#94989B" d="M2,32c0,8.25,6.751,15,15,15h30c8.251,0,15-6.75,15-15s-6.749-15-15-15H17C8.751,17,2,23.75,2,32z"/>
		<path fill="#3E4347" d="M3.875,32c0,7.238,5.889,13.125,13.125,13.125h30c7.238,0,13.125-5.887,13.125-13.125
			S54.238,18.875,47,18.875H17C9.764,18.875,3.875,24.762,3.875,32z"/>
	</g>
	<circle fill="#FFE62E" cx="32" cy="32" r="7.5"/>
	<circle fill="#ED4C5C" cx="13.25" cy="32" r="7.5"/>
	<circle fill="#83BF4F" cx="50.75" cy="32" r="7.5"/>
</g>
</svg>
