<?xml version="1.0" encoding="utf-8"?>
<!-- Generator: Adobe Illustrator 15.0.0, SVG Export Plug-In . SVG Version: 6.00 Build 0)  -->
<!DOCTYPE svg PUBLIC "-//W3C//DTD SVG 1.1//EN" "http://www.w3.org/Graphics/SVG/1.1/DTD/svg11.dtd">
<svg version="1.1" id="Layer_1" xmlns="http://www.w3.org/2000/svg" xmlns:xlink="http://www.w3.org/1999/xlink" x="0px" y="0px"
	 width="64px" height="64px" viewBox="0 0 64 64" enable-background="new 0 0 64 64" xml:space="preserve">
<g>
	<path fill="#E0AC68" d="M48.066,29.577c-0.404,1.378-2.902,1.378-3.098,1.321c-0.197-0.058-2.299-1.406-1.895-2.785
		c0.402-1.38,0.406-1.63,2.967-0.879C48.605,27.985,48.471,28.197,48.066,29.577z"/>
	<g>
		<path fill="#3B946F" d="M23.354,28.858c-0.078-0.012-0.16-0.019-0.242-0.019c-0.891,0-1.613,0.707-1.613,1.578
			c0,0.658,0.412,1.223,0.998,1.459l17.697,5.549l0.91-2.915L23.354,28.858z"/>
		<path fill="#CEA284" d="M42.279,33.861l0.695,0.229c0.369,0.122,0.617,0.438,0.662,0.793c0.906,0.37,2.008,1.101,1.426,2.789
			c-0.098,0.281-0.629,1.826-2.496,1.211c-2.744-0.906-2.744-0.906-2.021-3.005l0.486-1.413
			C41.205,33.962,41.764,33.69,42.279,33.861z"/>
		<polygon fill="#E0AC68" points="42.322,42.261 46.816,28.84 44.326,28.84 39.877,42.081 		"/>
		<polygon fill="#7A5136" points="49.344,44.213 61.012,41.303 2.998,37.426 		"/>
		<g>
			<path fill="#FFDD67" d="M24.34,26.415v-1.306h-3.834v1.306c0,0.721-0.598,1.304-1.334,1.304l0,0h6.502l0,0
				C24.938,27.719,24.34,27.136,24.34,26.415z"/>
			<g>
				<path fill="#231F20" d="M11.188,9.694c0,1.957,0,7.935,0,7.935h22.471c0,0,0-5.978,0-7.935
					C33.658-0.564,11.188-0.564,11.188,9.694z"/>
				<path fill="#FFDD67" d="M10.424,16.27c0-3.554,2.701-1.75,2.701-1.75c0.49-9.336,3.084-4.294,9.297-4.294
					c6.219,0,8.811-5.042,9.307,4.294c0,0,2.695-1.804,2.695,1.75c0,1.359-0.514,2.472-2.258,2.589
					c-0.734,5.497-4.393,6.631-9.744,6.631c-5.35,0-9.002-1.134-9.74-6.631C10.939,18.741,10.424,17.629,10.424,16.27"/>
				<g>
					<path fill="#574137" d="M17.924,19.923c0,1.597,2.014,2.936,4.5,2.936c2.484,0,4.5-1.339,4.5-2.936c0,0-2.393,0.141-4.5,0.141
						S17.924,19.923,17.924,19.923z"/>
				</g>
				<g>
					<g>
						<path fill="#574137" d="M25.264,14.938c0,0.809,0.672,1.47,1.498,1.47c0.828,0,1.502-0.661,1.502-1.47
							c0-0.813-0.674-1.467-1.502-1.467C25.936,13.471,25.264,14.125,25.264,14.938z"/>
					</g>
					<g>
						<ellipse fill="#574137" cx="18.084" cy="14.938" rx="1.5" ry="1.47"/>
					</g>
				</g>
				<path fill="#EBA352" d="M21.424,17.709c0,0.543,0.447,0.979,1,0.979s1-0.436,1-0.979H21.424z"/>
			</g>
		</g>
		<path fill="#47B892" d="M27.168,27.414h-9.387c-1.477,0-2.674,1.172-2.674,2.617c0,0.208,0.025,0.411,0.072,0.605l0,0
			l2.543,13.576H29.74L27.168,27.414z"/>
		<path fill="#D3976E" d="M59.24,55.242L61,43.443l-11.725,1.02L3,37.426C2.637,45.83,14.678,55.242,14.678,55.242H59.24z"/>
		<g>
			<path fill="#AF7146" d="M61,43.443l0.012-2.141l-11.736,1.883l-46.277-5.76c-0.035,0.835,0.047,1.649,0.201,2.444L49.275,45.6
				L61,43.443z"/>
		</g>
		<polygon fill="#D3976E" points="49.275,43.186 49.275,45.6 61,43.443 61.012,41.303 		"/>
		<polygon fill="#FFDD67" points="61,54.264 49.287,54.264 49.275,45.6 61,43.443 		"/>
		<g>
			<path fill="#42ADE2" d="M59.428,50.856c-1.152,0-2.193-0.431-2.996-1.12c-0.957-0.82-1.574-2.01-1.574-3.354
				c0,2.473-2.047,4.474-4.572,4.474s-4.57-2.001-4.57-4.474c0,2.473-2.047,4.474-4.572,4.474s-4.572-2.001-4.572-4.474
				c0,2.473-2.045,4.474-4.57,4.474s-4.572-2.001-4.572-4.474c0,2.473-2.045,4.474-4.57,4.474s-4.572-2.001-4.572-4.474
				c0,2.473-2.047,4.474-4.57,4.474c-2.525,0-4.572-2.001-4.572-4.474c0,1.344-0.615,2.533-1.572,3.354
				c-0.805,0.688-1.846,1.12-3,1.12c-2.523,0-4.57-2.001-4.57-4.474V64h64V46.383C64,48.855,61.953,50.856,59.428,50.856z"/>
			<g>
				<path fill="#428BC1" d="M23.217,61.422c-1.646,0.195-3.469,0.094-5.035-0.417c-2.041-0.608-3.855-1.7-5.984-2.078
					c-2.863-0.489-5.994-0.051-8.672,1.032c3.496-0.194,6.844-0.525,10.199,0.683C16.709,61.717,20.1,62.853,23.217,61.422
					L23.217,61.422z"/>
				<path fill="#428BC1" d="M35.635,55.606c-1.496,0.175-3.67,0.249-5.033-0.419c-2.045-0.6-3.857-1.707-5.988-2.078
					c-2.838-0.479-6.02-0.074-8.668,1.035c3.484-0.221,6.855-0.523,10.197,0.682C29.113,55.899,32.531,57.043,35.635,55.606
					L35.635,55.606z"/>
				<path fill="#428BC1" d="M48.053,61.422c-1.492,0.18-3.672,0.248-5.031-0.417c-2.045-0.602-3.857-1.707-5.988-2.078
					c-2.859-0.491-5.996-0.05-8.67,1.032c3.494-0.195,6.846-0.528,10.199,0.683C41.539,61.717,44.943,62.856,48.053,61.422
					L48.053,61.422z"/>
				<path fill="#428BC1" d="M60.473,55.606c-1.496,0.175-3.67,0.249-5.033-0.419c-2.045-0.597-3.855-1.703-5.986-2.078
					c-2.844-0.479-6.018-0.07-8.672,1.035c3.484-0.223,6.857-0.522,10.199,0.682C53.963,55.9,57.357,57.036,60.473,55.606
					L60.473,55.606z"/>
			</g>
		</g>
		<path fill="#3B946F" d="M18.336,28.858c-0.078-0.012-0.16-0.019-0.242-0.019c-0.891,0-1.613,0.707-1.613,1.578
			c0,0.658,0.412,1.223,0.996,1.459l17.699,5.549l0.91-2.915L18.336,28.858z"/>
		<polygon fill="#FBBF67" points="31.092,60.086 28.6,60.086 39.148,28.84 41.641,28.84 		"/>
		<path fill="#FFDD67" d="M37.26,33.861l0.697,0.229c0.369,0.122,0.617,0.438,0.662,0.793c0.906,0.37,2.006,1.101,1.426,2.789
			c-0.098,0.281-0.629,1.826-2.496,1.211c-2.744-0.906-2.744-0.906-2.021-3.005l0.486-1.413
			C36.188,33.962,36.746,33.69,37.26,33.861z"/>
		<path fill="#FBBF67" d="M30.891,56.736c-2.355-0.969-6.1,1.094-7.1,4.705h9.371C34.137,59.174,32.467,57.386,30.891,56.736z"/>
	</g>
	<path fill="#FBBF67" d="M43.09,29.551c-0.461,1.568-3.301,1.568-3.523,1.503c-0.225-0.065-2.615-1.6-2.156-3.168
		s0.463-1.854,3.377-0.999S43.549,27.981,43.09,29.551z"/>
</g>
</svg>
