<?xml version="1.0" encoding="utf-8"?>
<!-- Generator: Adobe Illustrator 15.0.0, SVG Export Plug-In . SVG Version: 6.00 Build 0)  -->
<!DOCTYPE svg PUBLIC "-//W3C//DTD SVG 1.1//EN" "http://www.w3.org/Graphics/SVG/1.1/DTD/svg11.dtd">
<svg version="1.1" id="Layer_1" xmlns="http://www.w3.org/2000/svg" xmlns:xlink="http://www.w3.org/1999/xlink" x="0px" y="0px"
	 width="64px" height="64px" viewBox="0 0 64 64" enable-background="new 0 0 64 64" xml:space="preserve">
<circle fill="#ED4C5C" cx="32" cy="32" r="30"/>
<circle fill="#333333" cx="32" cy="32" r="24"/>
<g>
	<rect x="12" y="32" fill="#F2B200" width="15.437" height="8"/>
	<rect x="27.438" y="32" fill="#FFFFFF" width="20.188" height="8"/>
	<g>
		<ellipse fill="#FFCE31" cx="13.28" cy="35.999" rx="0.686" ry="0.863"/>
		<ellipse fill="#FFCE31" cx="13.28" cy="33.436" rx="0.686" ry="0.863"/>
		<ellipse fill="#FFCE31" cx="13.28" cy="38.563" rx="0.686" ry="0.865"/>
		<ellipse fill="#FFCE31" cx="15.198" cy="37.107" rx="0.685" ry="0.864"/>
		<ellipse fill="#FFCE31" cx="15.197" cy="34.889" rx="0.686" ry="0.866"/>
		<ellipse fill="#FFCE31" cx="17.115" cy="35.999" rx="0.686" ry="0.863"/>
		<ellipse fill="#FFCE31" cx="17.115" cy="33.436" rx="0.686" ry="0.863"/>
		<ellipse fill="#FFCE31" cx="17.115" cy="38.563" rx="0.686" ry="0.866"/>
		<path fill="#FFCE31" d="M15.198,38.564c-0.378-0.002-0.686,0.385-0.686,0.864l1.37-0.001
			C15.883,38.949,15.575,38.563,15.198,38.564z"/>
		<path fill="#FFCE31" d="M15.198,33.436c0.377,0,0.685-0.388,0.685-0.864h-1.37C14.513,33.048,14.819,33.436,15.198,33.436z"/>
		<ellipse fill="#FFCE31" cx="18.896" cy="37.108" rx="0.684" ry="0.864"/>
		<ellipse fill="#FFCE31" cx="18.896" cy="34.889" rx="0.685" ry="0.864"/>
		<path fill="#FFCE31" d="M18.896,38.563c-0.378,0-0.685,0.387-0.685,0.866h1.369C19.58,38.949,19.273,38.563,18.896,38.563z"/>
		<path fill="#FFCE31" d="M18.896,33.436c0.377,0,0.684-0.388,0.684-0.864h-1.368C18.211,33.048,18.518,33.436,18.896,33.436z"/>
		<ellipse fill="#FFCE31" cx="20.54" cy="35.999" rx="0.685" ry="0.863"/>
		<ellipse fill="#FFCE31" cx="20.541" cy="33.436" rx="0.684" ry="0.864"/>
		<ellipse fill="#FFCE31" cx="20.541" cy="38.563" rx="0.684" ry="0.865"/>
		<ellipse fill="#FFCE31" cx="22.458" cy="37.108" rx="0.685" ry="0.863"/>
		<ellipse fill="#FFCE31" cx="22.458" cy="34.889" rx="0.685" ry="0.864"/>
		<ellipse fill="#FFCE31" cx="24.376" cy="35.999" rx="0.685" ry="0.863"/>
		<ellipse fill="#FFCE31" cx="24.376" cy="33.436" rx="0.685" ry="0.863"/>
		<ellipse fill="#FFCE31" cx="24.376" cy="38.563" rx="0.685" ry="0.865"/>
		<path fill="#FFCE31" d="M22.458,38.563c-0.378,0-0.686,0.387-0.686,0.866h1.37C23.145,38.949,22.837,38.563,22.458,38.563z"/>
		<path fill="#FFCE31" d="M22.457,33.436c0.38,0,0.688-0.388,0.686-0.864h-1.37C21.772,33.048,22.08,33.436,22.457,33.436z"/>
		<path fill="#FFCE31" d="M26.843,37.108c0,0.478-0.307,0.862-0.685,0.863c-0.381,0-0.686-0.386-0.685-0.864
			c0-0.476,0.304-0.864,0.685-0.863C26.536,36.244,26.843,36.632,26.843,37.108z"/>
		<ellipse fill="#FFCE31" cx="26.158" cy="34.889" rx="0.685" ry="0.866"/>
		<path fill="#FFCE31" d="M26.157,38.563c-0.38,0-0.685,0.387-0.685,0.865l1.37,0.001C26.843,38.949,26.537,38.563,26.157,38.563z"
			/>
		<path fill="#FFCE31" d="M26.158,33.436c0.378,0,0.685-0.388,0.686-0.864h-1.371C25.473,33.048,25.777,33.436,26.158,33.436z"/>
	</g>
	<rect x="47.625" y="32" fill="#FF8736" width="2.375" height="8"/>
</g>
<rect x="2.815" y="29" transform="matrix(-0.7071 -0.7071 0.7071 -0.7071 31.9999 77.2544)" fill="#ED4C5C" width="58.37" height="5.999"/>
<path fill="#ABC2C6" d="M30.647,11.865c-3.15,11.8,6.435-4.315,18.846,19.143c-6.58-8.725-27.885-2.366-36.845-12.04
	C0.222,5.55,35.852-7.63,30.647,11.865z"/>
</svg>
