<?xml version="1.0" encoding="utf-8"?>
<!-- Generator: Adobe Illustrator 15.0.0, SVG Export Plug-In . SVG Version: 6.00 Build 0)  -->
<!DOCTYPE svg PUBLIC "-//W3C//DTD SVG 1.1//EN" "http://www.w3.org/Graphics/SVG/1.1/DTD/svg11.dtd">
<svg version="1.1" id="Layer_1" xmlns="http://www.w3.org/2000/svg" xmlns:xlink="http://www.w3.org/1999/xlink" x="0px" y="0px"
	 width="64px" height="64px" viewBox="0 0 64 64" enable-background="new 0 0 64 64" xml:space="preserve">
<g>
	<polygon fill="#C94747" points="20.454,23.249 15.621,24.895 15.621,26.541 20.454,25.187 	"/>
	<polygon fill="#3E4347" points="20.454,25.187 15.621,26.541 15.621,28.478 20.454,27.124 	"/>
	<rect y="53" fill="#42ADE2" width="64" height="11"/>
	<circle fill="#DAE3EA" cx="26.22" cy="13.562" r="3.875"/>
	<circle fill="#DAE3EA" cx="22.345" cy="10.897" r="4.844"/>
	<circle fill="#DAE3EA" cx="30.095" cy="16.468" r="1.938"/>
	<circle fill="#DAE3EA" cx="15.563" cy="9.687" r="5.813"/>
	<circle fill="#DAE3EA" cx="8.783" cy="6.781" r="6.781"/>
	<path fill="#94989B" d="M33.865,17.229c-1.159-0.49-2.433-0.762-3.771-0.762c-1.534,0-3.555,0.366-4.844,1.002l-0.969,7.717h13.563
		L33.865,17.229z"/>
	<polygon fill="#62727A" points="17.501,27.124 12.657,29.332 12.657,34.904 15.563,34.904 15.563,46.498 40.751,46.498 
		40.751,33.904 	"/>
	<polygon fill="#B2C1C0" points="17.501,27.124 17.501,32.937 20.407,32.937 20.407,45.529 45.595,45.529 45.595,32.937 
		48.5,32.937 48.5,27.124 	"/>
	<polygon fill="#62727A" points="20.407,48.539 8.782,50.373 8.782,40.686 20.407,34.873 	"/>
	<g>
		<path fill="#62727A" d="M26.219,35.389c0,0.268-0.218,0.484-0.484,0.484h-2.906c-0.267,0-0.484-0.217-0.484-0.484V34.42
			c0-0.267,0.218-0.484,0.484-0.484h2.906c0.267,0,0.484,0.218,0.484,0.484V35.389z"/>
		<path fill="#62727A" d="M32.031,35.389c0,0.268-0.218,0.484-0.484,0.484h-2.906c-0.267,0-0.484-0.217-0.484-0.484V34.42
			c0-0.267,0.218-0.484,0.484-0.484h2.906c0.267,0,0.484,0.218,0.484,0.484V35.389z"/>
		<path fill="#62727A" d="M37.844,35.389c0,0.268-0.218,0.484-0.484,0.484h-2.906c-0.267,0-0.484-0.217-0.484-0.484V34.42
			c0-0.267,0.218-0.484,0.484-0.484h2.906c0.267,0,0.484,0.218,0.484,0.484V35.389z"/>
		<path fill="#62727A" d="M43.656,35.389c0,0.268-0.218,0.484-0.484,0.484h-2.906c-0.268,0-0.484-0.217-0.484-0.484V34.42
			c0-0.267,0.217-0.484,0.484-0.484h2.906c0.267,0,0.484,0.218,0.484,0.484V35.389z"/>
	</g>
	<path fill="#FFFFFF" d="M12.173,42.663c0-0.267-0.197-0.393-0.438-0.28l-1.544,0.721c-0.241,0.113-0.439,0.422-0.439,0.689v1.293
		c0,0.267,0.205,0.408,0.454,0.314l1.514-0.564c0.25-0.094,0.454-0.387,0.454-0.653V42.663z"/>
	<g>
		<g>
			<path fill="#FFFFFF" d="M15.563,41.082c0-0.268-0.197-0.393-0.438-0.279l-1.544,0.72c-0.241,0.113-0.439,0.423-0.439,0.689v1.608
				c0,0.267,0.205,0.408,0.454,0.314l1.514-0.565c0.25-0.093,0.454-0.387,0.454-0.653V41.082z"/>
		</g>
		<g>
			<path fill="#FFFFFF" d="M16.972,39.94c-0.241,0.114-0.439,0.423-0.439,0.69v1.924c0,0.267,0.204,0.408,0.454,0.314l1.998-0.746
				c0.25-0.093,0.454-0.387,0.454-0.654v-2.195c0-0.267-0.197-0.393-0.438-0.279L16.972,39.94z"/>
		</g>
	</g>
	<g>
		<path fill="#B2C1C0" d="M4.907,7.252C5.375,7.669,5.822,8.029,6.303,8.31c0.461,0.298,0.951,0.499,1.424,0.651
			c0.955,0.291,1.919,0.298,2.925,0.13l0.587-0.098l0.377,0.465c0.233,0.288,0.609,0.657,0.955,0.945
			c0.362,0.293,0.741,0.569,1.157,0.785c0.821,0.464,1.786,0.688,2.948,0.719c-0.892,0.747-2.22,1.008-3.452,0.735
			c-0.613-0.137-1.201-0.381-1.729-0.712c-0.541-0.34-0.986-0.697-1.45-1.245l0.964,0.366c-1.3,0.258-2.799,0.095-3.973-0.648
			c-0.589-0.355-1.07-0.847-1.442-1.379C5.241,8.477,4.968,7.887,4.907,7.252z"/>
	</g>
	<g>
		<path fill="#B2C1C0" d="M17.501,10.655c0.754,0.703,1.538,1.036,2.289,1.135c0.753,0.104,1.525,0.004,2.337-0.173l0.848-0.187
			l0.313,0.828c0.063,0.168,0.237,0.49,0.392,0.708c0.163,0.24,0.352,0.451,0.574,0.649c0.225,0.192,0.493,0.384,0.824,0.521
			c0.329,0.161,0.709,0.262,1.143,0.393c-0.669,0.582-1.687,0.813-2.67,0.492c-0.485-0.156-0.931-0.443-1.291-0.797
			c-0.366-0.376-0.627-0.731-0.856-1.298l1.159,0.642c-1.03,0.23-2.232,0.224-3.286-0.297
			C18.231,12.757,17.476,11.712,17.501,10.655z"/>
	</g>
	<g>
		<path fill="#F15744" d="M57.964,58.512c0,0-32.815,6.945-48.355,1.232c-2.139-0.787-4.591-2.158-7.606-5.239v-4.663
			c0,0,10.956-1.429,24.396-8.629c16.5-8.843,30.992-9.327,35.729-7.265C62.126,33.948,57.964,40.635,57.964,58.512z"/>
		<path fill="#D33B23" d="M58.093,53.219c0.101-4.057,1.361-5.752,3.033-8.449c5.82-9.395,1-10.821,1-10.821
			C58.326,40.225,58.093,53.219,58.093,53.219z"/>
		<path fill="#FFFFFF" d="M61.102,35.988c-6-1.682-19.723-0.449-34.933,7.704c-13.174,7.059-24.06,7.599-24.167,7.603v0.969
			c0.11-0.005,11.242-0.548,24.624-7.718c14.753-7.905,28.369-9.195,34.119-7.65C60.859,36.587,60.978,36.283,61.102,35.988z"/>
		<path fill="#B2C1C0" d="M61.094,36.009c-0.123,0.292-0.24,0.591-0.352,0.896c0.903,0.363,2.382,1.188,2.832,2.792
			c0.172-0.561,0.285-1.067,0.351-1.527C63.14,37.002,61.917,36.342,61.094,36.009z"/>
	</g>
	<rect x="20.454" y="25.187" fill="#62727A" width="25.094" height="1.938"/>
	<rect x="20.454" y="23.249" fill="#FF9D27" width="25.094" height="1.938"/>
	<rect x="17.501" y="27.124" fill="#C5D0D8" width="30.999" height="5.813"/>
	<g>
		<rect x="19.501" y="28.567" fill="#94989B" width="1.438" height="2.927"/>
		<rect x="23.146" y="28.567" fill="#94989B" width="1.438" height="2.927"/>
		<rect x="26.791" y="28.567" fill="#94989B" width="1.438" height="2.927"/>
		<rect x="30.437" y="28.567" fill="#94989B" width="1.438" height="2.927"/>
		<rect x="34.081" y="28.567" fill="#94989B" width="1.438" height="2.927"/>
		<rect x="37.727" y="28.567" fill="#94989B" width="1.438" height="2.927"/>
		<rect x="41.371" y="28.567" fill="#94989B" width="1.438" height="2.927"/>
		<rect x="45.017" y="28.567" fill="#94989B" width="1.438" height="2.927"/>
	</g>
</g>
</svg>
