<?xml version="1.0" encoding="utf-8"?>
<!-- Generator: Adobe Illustrator 15.0.0, SVG Export Plug-In . SVG Version: 6.00 Build 0)  -->
<!DOCTYPE svg PUBLIC "-//W3C//DTD SVG 1.1//EN" "http://www.w3.org/Graphics/SVG/1.1/DTD/svg11.dtd">
<svg version="1.1" id="Layer_1" xmlns="http://www.w3.org/2000/svg" xmlns:xlink="http://www.w3.org/1999/xlink" x="0px" y="0px"
	 width="64px" height="64px" viewBox="0 0 64 64" enable-background="new 0 0 64 64" xml:space="preserve">
<g>
	<g>
		<path fill="#94989B" d="M32,2c-8.25,0-15,6.751-15,15v30c0,8.251,6.75,15,15,15s15-6.749,15-15V17C47,8.751,40.25,2,32,2z"/>
		<path fill="#3E4347" d="M32,3.875c-7.238,0-13.125,5.889-13.125,13.125v30c0,7.238,5.887,13.125,13.125,13.125
			S45.125,54.238,45.125,47V17C45.125,9.764,39.238,3.875,32,3.875z"/>
	</g>
	<circle fill="#FFE62E" cx="32" cy="32" r="7.5"/>
	<circle fill="#ED4C5C" cx="32" cy="13.25" r="7.5"/>
	<circle fill="#83BF4F" cx="32" cy="50.75" r="7.5"/>
</g>
</svg>
