<?xml version="1.0" encoding="utf-8"?>
<!-- Generator: Adobe Illustrator 15.0.0, SVG Export Plug-In . SVG Version: 6.00 Build 0)  -->
<!DOCTYPE svg PUBLIC "-//W3C//DTD SVG 1.1//EN" "http://www.w3.org/Graphics/SVG/1.1/DTD/svg11.dtd">
<svg version="1.1" id="Layer_1" xmlns="http://www.w3.org/2000/svg" xmlns:xlink="http://www.w3.org/1999/xlink" x="0px" y="0px"
	 width="64px" height="64px" viewBox="0 0 64 64" enable-background="new 0 0 64 64" xml:space="preserve">
<g>
	<g>
		<rect x="3.416" y="17.487" fill="#FFCE31" width="57.17" height="19.651"/>
		<polygon fill="#3E4347" points="12.697,37.139 3.416,37.139 11.998,17.487 21.281,17.487 		"/>
		<polyline fill="#3E4347" points="23.067,37.139 31.189,17.487 40.933,17.487 32.813,37.139 		"/>
		<polyline fill="#3E4347" points="42.719,37.139 50.84,17.487 60.586,17.487 52.464,37.139 		"/>
	</g>
	<g>
		<g>
			<rect x="11.375" y="10.925" fill="#94989B" width="3.75" height="6.076"/>
			<rect x="12.313" y="10.925" fill="#D0D0D0" width="1.875" height="6.076"/>
		</g>
		<circle fill="#94989B" cx="13.25" cy="8.564" r="6.563"/>
		<circle fill="#D0D0D0" cx="13.25" cy="8.564" r="5.626"/>
		<circle fill="#ED4C5C" cx="13.25" cy="8.564" r="4.688"/>
	</g>
	<g>
		<g>
			<rect x="48.875" y="10.925" fill="#94989B" width="3.75" height="6.076"/>
			<rect x="49.813" y="10.925" fill="#D0D0D0" width="1.875" height="6.076"/>
		</g>
		<circle fill="#94989B" cx="50.75" cy="8.564" r="6.563"/>
		<circle fill="#D0D0D0" cx="50.75" cy="8.564" r="5.626"/>
		<circle fill="#ED4C5C" cx="50.75" cy="8.564" r="4.688"/>
	</g>
	<g>
		<rect x="11.375" y="37.625" fill="#94989B" width="3.75" height="24.375"/>
		<rect x="12.313" y="37.625" fill="#D0D0D0" width="1.875" height="24.375"/>
		<path fill="#3E4347" d="M17,62H9.5c0,0,1.875-2.47,1.875-3.311h3.75C15.125,59.53,17,62,17,62z"/>
	</g>
	<g>
		<rect x="48.875" y="37.625" fill="#94989B" width="3.75" height="24.375"/>
		<rect x="49.813" y="37.625" fill="#D0D0D0" width="1.875" height="24.375"/>
		<path fill="#3E4347" d="M54.5,62H47c0,0,1.875-2.47,1.875-3.311h3.75C52.625,59.53,54.5,62,54.5,62z"/>
	</g>
	<g>
		<rect x="7.938" y="44.188" fill="#94989B" width="48.124" height="3.75"/>
		<rect x="9.514" y="45.125" fill="#D0D0D0" width="44.97" height="1.875"/>
	</g>
	<circle fill="#3E4347" cx="13.25" cy="46.063" r="0.688"/>
	<circle fill="#3E4347" cx="50.75" cy="46.063" r="0.688"/>
	<path fill="#D0D0D0" d="M61.063,17H2.938C2.419,17,2,17.42,2,17.938v18.75c0,0.519,0.419,0.938,0.938,0.938h58.125
		c0.519,0,0.938-0.419,0.938-0.938v-18.75C62,17.42,61.581,17,61.063,17z M60.125,34.813c0,0.519-0.419,0.938-0.938,0.938H4.813
		c-0.518,0-0.938-0.419-0.938-0.938v-15c0-0.518,0.419-0.938,0.938-0.938h54.375c0.519,0,0.938,0.42,0.938,0.938V34.813z"/>
	<path fill="#94989B" d="M61.063,17.469c0.258,0,0.469,0.21,0.469,0.469v18.75c0,0.259-0.211,0.469-0.469,0.469H2.938
		c-0.258,0-0.469-0.21-0.469-0.469v-18.75c0-0.259,0.21-0.469,0.469-0.469H61.063 M4.813,36.219h54.375
		c0.775,0,1.406-0.63,1.406-1.406v-15c0-0.775-0.631-1.406-1.406-1.406H4.813c-0.775,0-1.406,0.631-1.406,1.406v15
		C3.406,35.589,4.037,36.219,4.813,36.219 M61.063,17H2.938C2.419,17,2,17.42,2,17.938v18.75c0,0.519,0.419,0.938,0.938,0.938
		h58.125c0.519,0,0.938-0.419,0.938-0.938v-18.75C62,17.42,61.581,17,61.063,17L61.063,17z M4.813,35.75
		c-0.518,0-0.938-0.419-0.938-0.938v-15c0-0.518,0.419-0.938,0.938-0.938h54.375c0.519,0,0.938,0.42,0.938,0.938v15
		c0,0.519-0.419,0.938-0.938,0.938H4.813L4.813,35.75z"/>
</g>
</svg>
