<?xml version="1.0" encoding="utf-8"?>
<!-- Generator: Adobe Illustrator 15.0.0, SVG Export Plug-In . SVG Version: 6.00 Build 0)  -->
<!DOCTYPE svg PUBLIC "-//W3C//DTD SVG 1.1//EN" "http://www.w3.org/Graphics/SVG/1.1/DTD/svg11.dtd">
<svg version="1.1" id="Layer_1" xmlns="http://www.w3.org/2000/svg" xmlns:xlink="http://www.w3.org/1999/xlink" x="0px" y="0px"
	 width="64px" height="64px" viewBox="0 0 64 64" enable-background="new 0 0 64 64" xml:space="preserve">
<g>
	<circle fill="#42ADE2" cx="32" cy="32" r="30"/>
	<g>
		<polygon fill="#FFFFFF" points="28,38 27,48 19,48 18,38 16,38 16,51 30,51 30,38 		"/>
		<polygon fill="#FFFFFF" points="20,37 23,34 26,38 22,40 		"/>
		<g>
			<path fill="#FFFFFF" d="M45,23h-6h-6c-1,0-2,1-2,2l-1,4l-5,3l1,2l6-2l2-5l1,24h3l1-13l1,13h3l1-24l1,9h3l-1-11C47,24,46,23,45,23
				z"/>
			<path fill="#FFFFFF" d="M43,19c0,1-1,2-2,1.999h-4C36,21,35,20,35,19v-4c0-1,1-2,2-2h4c1,0,2,1,2,2V19z"/>
		</g>
	</g>
</g>
</svg>
