<?xml version="1.0" encoding="utf-8"?>
<!-- Generator: Adobe Illustrator 15.0.0, SVG Export Plug-In . SVG Version: 6.00 Build 0)  -->
<!DOCTYPE svg PUBLIC "-//W3C//DTD SVG 1.1//EN" "http://www.w3.org/Graphics/SVG/1.1/DTD/svg11.dtd">
<svg version="1.1" id="Layer_1" xmlns="http://www.w3.org/2000/svg" xmlns:xlink="http://www.w3.org/1999/xlink" x="0px" y="0px"
	 width="64px" height="64px" viewBox="0 0 64 64" enable-background="new 0 0 64 64" xml:space="preserve">
<g>
	<rect x="30" y="11.525" fill="#94989B" width="4" height="12.047"/>
	<polygon fill="#94989B" points="39.568,13.001 23.861,9.937 24.433,6.981 27.869,7.652 30.896,5.174 34.822,5.941 36.949,9.423 
		40.141,10.046 	"/>
	<polygon fill="#3E4347" points="62,19.055 2,7.008 2,5 62,17.046 	"/>
	<g>
		<path fill="#ED4C5C" d="M54.959,48.961H9.042c0,0,0-13.097,0-17.462c0-5.544,4.477-10.039,10-10.039h25.917
			c5.523,0,10,4.495,10,10.039V48.961z"/>
		<path fill="#3E4347" d="M50.98,44.854H13.02V33.43c0-4.583,3.701-8.299,8.267-8.299h21.426c4.566,0,8.268,3.715,8.268,8.299
			V44.854z"/>
		<path fill="#DAE3EA" d="M54.959,48.961c0,5.544-4.477,10.039-10,10.039H19.042c-5.523,0-10-4.495-10-10.039H54.959z"/>
		<path fill="#ED4C5C" d="M24.806,46.862h-2.688c0-11.837,4-24.031,4-24.031h2.688C28.806,22.832,24.806,35.057,24.806,46.862z"/>
		<path fill="#ED4C5C" d="M39.195,46.862h2.688c0-11.837-4-24.031-4-24.031h-2.688C35.195,22.832,39.195,35.057,39.195,46.862z"/>
		<path fill="#ED4C5C" d="M54.121,52.977c0.277-0.638,0.496-1.309,0.637-2.008H9.242c0.142,0.699,0.359,1.37,0.637,2.008H54.121z"/>
	</g>
</g>
</svg>
