<?xml version="1.0" encoding="utf-8"?>
<!-- Generator: Adobe Illustrator 15.0.0, SVG Export Plug-In . SVG Version: 6.00 Build 0)  -->
<!DOCTYPE svg PUBLIC "-//W3C//DTD SVG 1.1//EN" "http://www.w3.org/Graphics/SVG/1.1/DTD/svg11.dtd">
<svg version="1.1" id="Layer_1" xmlns="http://www.w3.org/2000/svg" xmlns:xlink="http://www.w3.org/1999/xlink" x="0px" y="0px"
	 width="64px" height="64px" viewBox="0 0 64 64" enable-background="new 0 0 64 64" xml:space="preserve">
<g>
	<g>
		<g>
			<polygon fill="#FED0AC" points="41.94,30.289 43.151,30.289 43.151,34.775 40.034,34.775 			"/>
			<g>
				<path fill="#F9C19B" d="M41.93,30.193c0,2.015-0.43,3.035-1.878,3.035l-0.018,1.548c1.713,0,2.414-2.134,2.414-4.486
					L41.93,30.193z"/>
			</g>
			<g>
				<path fill="#FED0AC" d="M42.983,23.287l-6.813,2.145c-0.786,1.436-0.249,2.195-0.277,2.815
					c-0.013,0.275-0.571,0.779-0.868,1.042c-0.662,0.588,0.446,1.063,0.86,0.976c0.263,0.618-0.163,0.787,0.853,0.696
					c0.56-0.05,1.314-0.566,1.314-0.566c-2.464,1.55-1.826,2.187-0.811,1.919c0,1.306,0.811,1.306,2.588,1.306
					c1.449,0,2.618-1.316,2.618-3.33l1.942-0.338L42.983,23.287z"/>
				<path fill="#594640" d="M40.401,21.444c5.027,0,5.685,4.269,4.987,7.228c-0.372,1.576-1.206,2.579-2.179,3.01l-0.493-0.317
					l-0.269-1.076c0,0,0.982-0.229,1.272-1.351c0.134-0.513-0.381-1.492-1.136-1.534c-0.527-0.029-1.288,0.363-1.449,0.483
					c0-1.304,0.266-2.654-0.623-3.041c-0.729-0.319-3.868,1.1-4.342,0.586C34.902,24.057,37.375,21.444,40.401,21.444z"/>
				<path fill="#594640" d="M42.315,28.676c-0.094-0.012-0.187,0.001-0.269,0.035c0.043-0.092,0.095-0.181,0.155-0.271
					c0.072-0.111,0.16-0.215,0.246-0.337c-0.283,0.076-0.537,0.282-0.662,0.57c-0.126,0.293-0.076,0.628,0.079,0.873
					c0.024-0.148,0.026-0.286,0.049-0.415c0.016-0.082,0.035-0.159,0.059-0.234c0.038,0.002,0.073,0.002,0.107,0.006
					c0.072,0.009,0.136,0.01,0.199,0.021c0.063,0.006,0.126,0.023,0.198,0.034c0.072,0.013,0.145,0.037,0.239,0.049
					C42.667,28.833,42.501,28.706,42.315,28.676z"/>
				<ellipse fill="#594640" cx="37.003" cy="28.023" rx="0.541" ry="0.755"/>
				<path fill="#594640" d="M38.053,30.394c0,0-0.804,1.159-1.008,1.322c-0.434,0.347-0.582,0.118-0.369-0.173
					C36.894,31.243,38.053,30.394,38.053,30.394z"/>
			</g>
		</g>
		<path fill="#F27A52" d="M42.925,41.547l-4.708-0.503c0,0,0.403-4.208,1.048-5.813c0.6-1.494,3.922-0.596,3.922-0.596
			L42.925,41.547z"/>
		<g>
			<path fill="#428BC1" d="M41.695,35.416c-0.328-0.314-0.847-0.311-1.154,0.008l-2.108,2.199l1.191,1.135l2.108-2.198
				C42.041,36.242,42.025,35.729,41.695,35.416z"/>
			<path fill="#428BC1" d="M39.949,38.07c-0.021-0.449-0.398-0.792-0.848-0.78l-3.157,0.062l0.067,1.624l3.157-0.062
				C39.619,38.904,39.969,38.52,39.949,38.07z"/>
			<g>
				<path fill="#F9C19B" d="M36.299,38.339l0.042-0.794c0.014-0.283-0.204-0.529-0.487-0.55l-0.383-0.029
					c-0.203-0.014-0.385,0.091-0.478,0.255c-0.513-0.002-1.191,0.134-1.239,1.083c-0.008,0.156-0.055,1.023,0.973,1.099
					C36.238,39.514,36.238,39.514,36.299,38.339z"/>
			</g>
		</g>
		<path fill="#594640" d="M36.816,25.195c-0.135,0.957-2.292-0.438-1.306-2.394c1.391-2.756,4.828-2.754,4.828-2.754
			S37.188,22.549,36.816,25.195z"/>
		<path fill="#594640" d="M38.636,24.567c-0.322,0.856-2.026-0.88-0.709-2.482c1.857-2.257,5.032-1.542,5.032-1.542
			S39.527,22.199,38.636,24.567z"/>
		<path fill="#594640" d="M40.229,24.349c-0.519,0.696-1.618-1.333,0.002-2.45c2.287-1.573,4.994-0.09,4.994-0.09
			S41.661,22.422,40.229,24.349z"/>
	</g>
	<rect y="44" fill="#42ADE2" width="64" height="20"/>
	<polygon fill="#C94747" points="0,34.852 25.338,34.852 33.186,41.963 	"/>
	<g>
		<path fill="#DAE3EA" d="M0,34.852c0,0,7.211,13.908,27.944,18.963h32.5L64,43.701L0,34.852z"/>
		<path fill="#F15744" d="M28.495,50.852H57.4l-28.986-4.608l30.236,0.574L8.873,39C12.713,43.164,18.981,48.13,28.495,50.852z"/>
	</g>
	<path fill="#6ADBC6" d="M34.819,30.204c0,0-1.634,0-4.74,1.587c-3.19,1.629-4.741,3.061-4.741,3.061l4.563,4.135l4.919,0.699
		V30.204z"/>
	<g>
		<g>
			<path fill="#FFFFFF" d="M32.408,32.347c-1.364,0.415-2.648,1.137-3.795,1.978c-1.028,0.754-0.032,2.491,1.01,1.727
				c1.005-0.737,2.118-1.411,3.316-1.776C34.17,33.902,33.646,31.971,32.408,32.347L32.408,32.347z"/>
		</g>
	</g>
	<path fill="#428BC1" d="M34.819,53.814c0,0,5.817-2.082,7.624-1.604c0.4,0.106,0,0.803,0,0.803s4.595-3.632,7-3.231
		c1.679,0.279,0,3.066,0,3.066s4.254-6.378,8.25-6.01c2.309,0.213,0.957,4,0.957,4L64,40.829v12.985H34.819z"/>
	<path fill="#42ADE2" d="M34.819,53.814c0,0,5.817-1.713,7.624-1.32c0.4,0.088,0,0.66,0,0.66s4.595-2.988,7-2.659
		c1.679,0.229,0,2.524,0,2.524s4.254-5.249,8.25-4.945c2.309,0.175,0.957,3.291,0.957,3.291L64,43.128v10.687H34.819z"/>
	<path fill="#BBECFF" d="M40.673,53.814c0,0,7.231-2.762,8.458-2.648c1.844,0.171,0.809,2.041,0.809,2.041s2.997-2.752,4.566-2.449
		c1.095,0.212,0,2.324,0,2.324s2.774-4.832,5.381-4.553c1.506,0.16,0.624,3.029,0.624,3.029L64,49.423v4.392H40.673z"/>
</g>
</svg>
