<?xml version="1.0" encoding="utf-8"?>
<!-- Generator: Adobe Illustrator 15.0.0, SVG Export Plug-In . SVG Version: 6.00 Build 0)  -->
<!DOCTYPE svg PUBLIC "-//W3C//DTD SVG 1.1//EN" "http://www.w3.org/Graphics/SVG/1.1/DTD/svg11.dtd">
<svg version="1.1" id="Layer_1" xmlns="http://www.w3.org/2000/svg" xmlns:xlink="http://www.w3.org/1999/xlink" x="0px" y="0px"
	 width="64px" height="64px" viewBox="0 0 64 64" enable-background="new 0 0 64 64" xml:space="preserve">
<g>
	<g>
		<path fill="#3E4347" d="M9.339,52.533v4.233C9.339,59.104,19.484,61,32,61c12.516,0,22.661-1.896,22.661-4.233v-4.233H9.339z"/>
		<path fill="#62696D" d="M12.78,52.533v4.233C12.78,59.104,21.384,61,32,61c10.616,0,19.221-1.896,19.221-4.233v-4.233H12.78z"/>
		<polygon fill="#C94747" points="54.66,52.533 9.339,52.533 14.296,27.385 49.703,27.385 		"/>
		<ellipse fill="#B23838" cx="32" cy="52.533" rx="22.66" ry="4.233"/>
		<path opacity="0.3" fill="#FFC7CE" d="M51.174,52.25l-4.158-24.865H16.984L12.828,52.25c-0.029,0.094-0.048,0.188-0.048,0.283
			c0,2.338,8.604,4.233,19.22,4.233c10.616,0,19.221-1.896,19.221-4.233C51.221,52.438,51.201,52.344,51.174,52.25z"/>
		<ellipse fill="#ED4C5C" cx="32" cy="27.385" rx="17.703" ry="4.232"/>
		<g opacity="0.5">
			<path fill="#C94747" d="M17.208,27.847c-0.013-0.707,0.639-1.195,1.18-1.536c0.574-0.353,1.192-0.621,1.818-0.854
				c1.262-0.439,2.562-0.741,3.868-0.984c2.618-0.482,5.272-0.646,7.929-0.664c2.645,0.017,5.307,0.18,7.922,0.662
				c1.307,0.244,2.606,0.546,3.869,0.984c0.626,0.233,1.243,0.502,1.817,0.855c0.541,0.34,1.192,0.829,1.18,1.536
				c-0.103-0.679-0.756-1.022-1.307-1.303c-0.584-0.273-1.206-0.464-1.836-0.62c-1.254-0.332-2.543-0.545-3.838-0.692
				c-2.591-0.294-5.197-0.429-7.814-0.423c-2.604-0.007-5.219,0.128-7.808,0.421c-1.295,0.147-2.583,0.361-3.838,0.693
				c-0.63,0.156-1.252,0.347-1.836,0.62C17.964,26.824,17.311,27.167,17.208,27.847z"/>
		</g>
		<g>
			<ellipse opacity="0.3" fill="#FFC7CE" cx="32" cy="40.205" rx="13.455" ry="13.408"/>
			<polygon fill="#FFE6EA" points="44.746,40.205 36.865,38.241 41.205,31.031 33.971,35.357 32,27.504 30.029,35.359 
				22.794,31.031 27.135,38.242 19.253,40.205 27.135,42.169 22.794,49.379 30.029,45.053 32,52.907 33.971,45.053 41.205,49.379 
				36.865,42.17 			"/>
		</g>
	</g>
	<g>
		<g>
			<polygon fill="#F15744" points="56.875,8.029 48.951,19.86 61.824,12.874 			"/>
			<polygon fill="#F15744" points="7.126,8.029 15.048,19.86 2.175,12.874 			"/>
		</g>
		<g>
			<polygon fill="#F15744" points="0,23.146 11.986,27.148 0,28.814 			"/>
			<polygon fill="#F15744" points="64,23.146 52.014,27.148 64,28.814 			"/>
		</g>
		<g>
			<polygon fill="#F15744" points="17.244,4.009 25.302,18.242 23.695,3 			"/>
			<polygon fill="#F15744" points="46.756,4.009 38.699,18.242 40.305,3 			"/>
		</g>
	</g>
</g>
</svg>
