<?xml version="1.0" encoding="utf-8"?>
<!-- Generator: Adobe Illustrator 15.0.0, SVG Export Plug-In . SVG Version: 6.00 Build 0)  -->
<!DOCTYPE svg PUBLIC "-//W3C//DTD SVG 1.1//EN" "http://www.w3.org/Graphics/SVG/1.1/DTD/svg11.dtd">
<svg version="1.1" id="Layer_1" xmlns="http://www.w3.org/2000/svg" xmlns:xlink="http://www.w3.org/1999/xlink" x="0px" y="0px"
	 width="64px" height="64px" viewBox="0 0 64 64" enable-background="new 0 0 64 64" xml:space="preserve">
<g>
	<circle fill="#428BC1" cx="32" cy="32" r="30"/>
	<g>
		<path fill="#FFFFFF" d="M36.574,24.143V23.1h-7.576v1.043c0,0.575-0.459,1.042-1.023,1.042h-4.945
			c-2.313,0-4.188,1.911-4.188,4.267v5.098h5.686v-1.788c0-0.985,0.783-1.785,1.752-1.785h0.635c0.24,0,0.512,0.239,0.619,0.44l0,0
			c1.033,1.869,2.998,3.133,5.254,3.133c2.264,0,4.236-1.273,5.266-3.156c0.113-0.195,0.375-0.417,0.605-0.417
			c0.002,0,0.002,0,0.002,0h4.813v-5.791H37.6C37.033,25.185,36.574,24.718,36.574,24.143z"/>
		<path fill="#FFFFFF" d="M24.527,16.706c0.166,0,1.463-0.022,1.617-0.063c0.633-0.049,1.311-0.106,4.436-0.124
			c0.135,0.182,0.291,0.345,0.465,0.488v2.29H30.02c-0.564,0-1.021,0.467-1.021,1.042c0,0.576,0.457,1.043,1.021,1.043h1.025h3.484
			h1.023c0.564,0,1.021-0.467,1.021-1.043c0-0.575-0.457-1.042-1.021-1.042h-1.023v-2.29c0.174-0.144,0.328-0.307,0.463-0.488
			c3.125,0.018,3.803,0.075,4.436,0.124c0.154,0.041,1.453,0.063,1.619,0.063c1.023,0,1.854-0.846,1.854-1.888
			c0-1.043-0.83-1.889-1.854-1.889c-0.166,0-1.465,0.021-1.619,0.063c-0.633,0.048-1.311,0.106-4.436,0.124
			C34.486,12.437,33.688,12,32.787,12s-1.701,0.437-2.207,1.117c-3.125-0.018-3.803-0.076-4.436-0.124
			c-0.154-0.042-1.451-0.063-1.617-0.063c-1.025,0-1.855,0.846-1.855,1.889C22.672,15.86,23.502,16.706,24.527,16.706z"/>
		<rect x="45.158" y="23.1" fill="#FFFFFF" width="2.842" height="9.691"/>
		<path fill="#FFFFFF" d="M17.516,52h8.336l1.516-13.996H16L17.516,52z M25.871,43.027h-8.373l-0.439-4.059h9.252L25.871,43.027z"/>
	</g>
</g>
</svg>
