<?xml version="1.0" encoding="utf-8"?>
<!-- Generator: Adobe Illustrator 15.0.0, SVG Export Plug-In . SVG Version: 6.00 Build 0)  -->
<!DOCTYPE svg PUBLIC "-//W3C//DTD SVG 1.1//EN" "http://www.w3.org/Graphics/SVG/1.1/DTD/svg11.dtd">
<svg version="1.1" id="Layer_1" xmlns="http://www.w3.org/2000/svg" xmlns:xlink="http://www.w3.org/1999/xlink" x="0px" y="0px"
	 width="64px" height="64px" viewBox="0 0 64 64" enable-background="new 0 0 64 64" xml:space="preserve">
<g>
	<g>
		<polygon fill="#D6A57C" points="26.883,17.132 28.998,16.378 31.816,24.144 26.371,26.085 		"/>
		<g>
			<path fill="#B58360" d="M26.803,16.97c1.266,3.488,1.156,5.523-1.375,6.424l0.943,2.691c2.992-1.066,2.875-5.197,1.398-9.27
				L26.803,16.97z"/>
		</g>
		<g>
			<path fill="#D6A57C" d="M24.307,4.36l-10.551,7.953c-0.473,2.975,0.941,3.955,1.281,5.047c0.15,0.482-0.51,1.703-0.861,2.344
				c-0.787,1.43,1.447,1.563,2.115,1.154c0.846,0.904,0.209,1.463,1.926,0.674c0.945-0.434,1.939-1.799,1.939-1.799
				c-3.328,4.217-1.814,4.924-0.209,3.828c0.82,2.262,2.236,1.756,5.34,0.65c2.533-0.902,3.746-3.908,2.482-7.396l3.18-1.795
				L24.307,4.36z"/>
			<path fill="#594640" d="M18.639,2.776c8.779-3.129,12.609,3.852,13.25,9.41c0.342,2.959-0.484,5.215-1.916,6.566l-1.057-0.244
				l-1.146-1.693c0,0,1.572-1.01,1.375-3.133c-0.09-0.971-1.604-2.346-2.949-1.947c-0.941,0.279-2.021,1.43-2.229,1.736
				c-0.818-2.256-1.203-4.758-2.998-4.875c-1.477-0.098-6.066,4.313-7.213,3.717C10.674,10.726,13.352,4.661,18.639,2.776z"/>
			<path fill="#574137" d="M26.523,14.106c-0.172,0.037-0.326,0.117-0.447,0.229c0.018-0.188,0.055-0.373,0.1-0.566
				c0.061-0.238,0.148-0.471,0.221-0.736c-0.447,0.307-0.76,0.822-0.801,1.398c-0.033,0.586,0.264,1.135,0.689,1.461
				c-0.051-0.271-0.135-0.512-0.176-0.746c-0.023-0.15-0.039-0.297-0.045-0.443c0.066-0.02,0.131-0.041,0.191-0.057
				c0.133-0.029,0.244-0.068,0.361-0.088c0.115-0.027,0.234-0.037,0.369-0.063c0.133-0.021,0.273-0.025,0.449-0.064
				C27.234,14.161,26.867,14.04,26.523,14.106z"/>
			<path fill="#574137" d="M17.779,15.944c0.262,0.723,0.051,1.459-0.471,1.645s-1.156-0.25-1.418-0.971
				c-0.262-0.723-0.051-1.459,0.469-1.645C16.881,14.788,17.518,15.222,17.779,15.944z"/>
			<path fill="#574137" d="M20.156,19.733c0,0-0.676,2.508-0.928,2.914c-0.543,0.871-0.945,0.568-0.756-0.068
				C18.666,21.925,20.156,19.733,20.156,19.733z"/>
		</g>
	</g>
	<g>
		<g>
			<path fill="#3B946F" d="M26.404,24.753c-0.85-0.154-1.676,0.395-1.842,1.225l-1.117,5.709l3.086,0.555l1.115-5.707
				C27.814,25.702,27.258,24.905,26.404,24.753z"/>
			<path fill="#3B946F" d="M26.492,31.829c-0.191-0.82-1.025-1.307-1.871-1.111l-5.961,1.355l0.684,2.975l5.961-1.352
				C26.152,33.499,26.684,32.649,26.492,31.829z"/>
		</g>
		<g>
			<path fill="#B58360" d="M19.412,33.542l-0.191-1.482c-0.07-0.527-0.568-0.898-1.109-0.824l-0.736,0.098
				c-0.391,0.051-0.699,0.316-0.818,0.658c-0.973,0.197-2.213,0.715-1.979,2.486c0.037,0.291,0.248,1.914,2.217,1.65
				C19.699,35.741,19.699,35.741,19.412,33.542z"/>
		</g>
	</g>
	<g>
		<path fill="#D3976E" d="M29.914,49.364c-1.611,0.125-2.822,1.492-2.703,3.053l6.932-0.537c0.805-0.063,1.41-0.744,1.352-1.527
			l-0.107-1.412L29.914,49.364z"/>
		<polygon fill="#3E4347" points="35.387,48.94 29.881,49.366 29.148,39.72 34.656,39.294 		"/>
		<polygon fill="#3E4347" points="34.822,41.497 29.148,39.72 34.498,32.933 40.953,34.118 		"/>
	</g>
	<g>
		<path fill="#333333" d="M13.775,62.001c-1.59,0-3.131-0.305-4.584-0.906c-1.4-0.582-2.662-1.414-3.742-2.473
			s-1.93-2.293-2.521-3.666C2.313,53.532,2,52.021,2,50.464s0.313-3.066,0.928-4.49c0.592-1.373,1.441-2.607,2.521-3.666
			c1.08-1.061,2.342-1.891,3.742-2.473c1.453-0.602,2.994-0.908,4.584-0.908s3.131,0.307,4.584,0.908
			c1.402,0.582,2.662,1.412,3.742,2.473c1.082,1.059,1.93,2.293,2.523,3.666c0.615,1.424,0.926,2.934,0.926,4.49
			s-0.311,3.068-0.926,4.492c-0.594,1.373-1.441,2.607-2.523,3.666c-1.08,1.059-2.34,1.891-3.742,2.473
			C16.906,61.696,15.365,62.001,13.775,62.001z M13.775,40.925c-5.369,0-9.738,4.279-9.738,9.539c0,5.262,4.369,9.541,9.738,9.541
			s9.738-4.279,9.738-9.541C23.514,45.204,19.145,40.925,13.775,40.925z"/>
	</g>
	<g>
		<path fill="#333333" d="M50.225,62.001c-1.59,0-3.131-0.305-4.584-0.906c-1.4-0.582-2.66-1.414-3.742-2.473
			c-1.08-1.059-1.932-2.293-2.521-3.666c-0.617-1.424-0.928-2.936-0.928-4.492s0.311-3.066,0.928-4.49
			c0.59-1.373,1.441-2.607,2.521-3.666c1.082-1.061,2.342-1.891,3.742-2.473c1.453-0.602,2.994-0.908,4.584-0.908
			s3.131,0.307,4.584,0.908c1.402,0.582,2.662,1.412,3.742,2.473c1.08,1.059,1.93,2.293,2.523,3.666
			C61.689,47.397,62,48.907,62,50.464s-0.311,3.068-0.926,4.492c-0.594,1.373-1.443,2.607-2.523,3.666s-2.34,1.891-3.742,2.473
			C53.355,61.696,51.814,62.001,50.225,62.001z M50.225,40.925c-5.369,0-9.738,4.279-9.738,9.539c0,5.262,4.369,9.541,9.738,9.541
			s9.738-4.279,9.738-9.541C59.963,45.204,55.594,40.925,50.225,40.925z"/>
	</g>
	<g>
		<g>
			<path fill="#ED4C5C" d="M41.666,36.185l2.125-5.221l-1.389-0.543l-2.057,5.055H18.004l-2.17-2.27l-1.09,1l2.611,2.734
				l3.402,0.002l0.047,2.83l13.895,13.533l6.211-15.262l8.639,12.732l1.352-0.623L41.666,36.185z M34.15,50.702L21.535,38.405
				l0.611-1.465H39.75L34.15,50.702z"/>
		</g>
	</g>
	<ellipse fill="#333333" cx="50.225" cy="50.464" rx="2.355" ry="2.307"/>
	<rect x="26.9" y="51.944" fill="#94989B" width="4.037" height="1.258"/>
	<rect x="38.674" y="53.556" fill="#94989B" width="4.035" height="1.258"/>
	<polygon fill="#B3B3B3" points="30.727,52.267 30.727,52.876 34.699,53.413 34.699,52.802 	"/>
	<ellipse fill="#333333" cx="34.699" cy="53.649" rx="3.307" ry="3.24"/>
	<ellipse fill="#B3B3B3" cx="34.699" cy="53.649" rx="0.826" ry="0.809"/>
	<g>
		<polygon fill="#B3B3B3" points="34.699,53.954 38.674,54.489 38.674,53.88 34.699,53.345 		"/>
	</g>
	<g>
		<path fill="#D3976E" d="M38.615,51.851c-1.535,0.49-2.385,2.1-1.896,3.588l6.611-2.117c0.768-0.246,1.191-1.049,0.945-1.795
			l-0.441-1.348L38.615,51.851z"/>
		<polygon fill="#3E4347" points="43.834,50.179 39.139,51.683 35.514,40.403 40.766,38.72 		"/>
		<polygon fill="#3E4347" points="41.334,40.839 35.514,40.403 40.09,31.741 44.98,34.151 		"/>
	</g>
	<path fill="#47B892" d="M46,28.464l-11.502,4.469l-9.117-8.064c0,0,2.615-3.305,3.928-3.549C38.617,19.577,46,28.464,46,28.464z"/>
	<path fill="#3E4347" d="M44.98,34.151L34.77,34.704l-0.271-1.771l11.309-4.791C47.584,30.749,44.98,34.151,44.98,34.151z"/>
	<g>
		<g>
			<path fill="#47B892" d="M26.572,24.399c-0.865-0.035-1.604,0.623-1.646,1.469l-0.283,5.805l3.137,0.121l0.279-5.805
				C28.105,25.144,27.439,24.433,26.572,24.399z"/>
			<path fill="#47B892" d="M27.68,31.392c-0.307-0.785-1.201-1.15-2.012-0.84l-5.705,2.168l1.105,2.85l5.707-2.166
				C27.586,33.093,27.988,32.179,27.68,31.392z"/>
		</g>
		<g>
			<path fill="#D6A57C" d="M20.92,34.069l-0.404-1.441c-0.145-0.512-0.691-0.811-1.217-0.662l-0.715,0.199
				c-0.379,0.105-0.646,0.41-0.715,0.766c-0.934,0.33-2.086,1.014-1.6,2.736c0.078,0.283,0.521,1.857,2.434,1.324
				C21.521,36.208,21.521,36.208,20.92,34.069z"/>
		</g>
	</g>
	<polygon fill="#ED4C5C" points="14.244,51.202 12.867,50.425 21.191,35.921 22.57,36.698 	"/>
	<ellipse fill="#333333" cx="13.775" cy="50.464" rx="1.178" ry="1.154"/>
</g>
</svg>
