<?xml version="1.0" encoding="utf-8"?>
<!-- Generator: Adobe Illustrator 15.0.0, SVG Export Plug-In . SVG Version: 6.00 Build 0)  -->
<!DOCTYPE svg PUBLIC "-//W3C//DTD SVG 1.1//EN" "http://www.w3.org/Graphics/SVG/1.1/DTD/svg11.dtd">
<svg version="1.1" id="Layer_1" xmlns="http://www.w3.org/2000/svg" xmlns:xlink="http://www.w3.org/1999/xlink" x="0px" y="0px"
	 width="64px" height="64px" viewBox="0 0 64 64" enable-background="new 0 0 64 64" xml:space="preserve">
<path fill="#FFCE31" d="M34.121,0.893c-1.166-1.19-3.076-1.19-4.242,0L2.121,29.201C0.955,30.391,0,32.741,0,34.425V60.94
	C0,62.622,1.35,64,3,64h58c1.65,0,3-1.378,3-3.06V34.425c0-1.684-0.955-4.034-2.121-5.224L34.121,0.893z"/>
<path fill="none" stroke="#000000" stroke-width="3" stroke-linecap="round" stroke-linejoin="round" stroke-miterlimit="10" d="
	M33.799,7.162c-0.988-0.998-2.607-0.998-3.596,0L6.684,30.892c-0.988,0.996-1.799,2.967-1.799,4.378v22.227
	c0,1.41,1.145,2.564,2.543,2.564h49.146c1.396,0,2.541-1.154,2.541-2.564V35.27c0-1.411-0.809-3.382-1.797-4.378L33.799,7.162z"/>
<g>
	<g>
		<path fill-rule="evenodd" clip-rule="evenodd" d="M41.519,23.58c0,2.64-2.137,4.779-4.78,4.779c-2.636,0-4.776-2.139-4.776-4.779
			s2.141-4.779,4.776-4.779C39.382,18.801,41.519,20.94,41.519,23.58z"/>
		<path fill-rule="evenodd" clip-rule="evenodd" d="M29.014,27.46c0,2.143-1.736,3.88-3.881,3.88c-2.14,0-3.879-1.737-3.879-3.88
			s1.739-3.88,3.879-3.88C27.277,23.58,29.014,25.317,29.014,27.46z"/>
		<polygon stroke="#000000" stroke-width="2" stroke-linecap="round" stroke-linejoin="round" stroke-miterlimit="10" points="
			23.085,39.233 19.99,45.415 29.553,45.319 27.039,39.233 28.105,32.853 22.156,32.853 		"/>
		<polygon stroke="#000000" stroke-width="2" stroke-linecap="round" stroke-linejoin="round" stroke-miterlimit="10" points="
			34.895,30.727 35.497,41.06 41.013,41.06 41.757,29.114 		"/>
		
			<polyline fill="none" stroke="#000000" stroke-width="2" stroke-linecap="round" stroke-linejoin="round" stroke-miterlimit="10" points="
			21.95,32.853 19.683,36.921 15.656,39.904 		"/>
		
			<polyline fill="none" stroke="#000000" stroke-width="2" stroke-linecap="round" stroke-linejoin="round" stroke-miterlimit="10" points="
			34.795,31.063 32.043,36.749 30.534,37.441 		"/>
		
			<polyline fill="none" stroke="#000000" stroke-width="2" stroke-linecap="round" stroke-linejoin="round" stroke-miterlimit="10" points="
			41.757,29.114 44.818,33.319 42.342,38.216 		"/>
		
			<polyline fill="none" stroke="#000000" stroke-width="2" stroke-linecap="round" stroke-linejoin="round" stroke-miterlimit="10" points="
			28.393,33.263 30.715,36.911 29.402,40.782 		"/>
		
			<polyline fill="none" stroke="#000000" stroke-width="3" stroke-linecap="round" stroke-linejoin="round" stroke-miterlimit="10" points="
			37.416,38.71 33.84,45.827 34.389,54.632 		"/>
		
			<polyline fill="none" stroke="#000000" stroke-width="3" stroke-linecap="round" stroke-linejoin="round" stroke-miterlimit="10" points="
			40.33,38.028 39.883,45.914 44.834,53.894 		"/>
		
			<polyline fill="none" stroke="#000000" stroke-width="2" stroke-linecap="round" stroke-linejoin="round" stroke-miterlimit="10" points="
			22.582,43.829 20.563,48.024 20.262,54.321 		"/>
		
			<polyline fill="none" stroke="#000000" stroke-width="2" stroke-linecap="round" stroke-linejoin="round" stroke-miterlimit="10" points="
			26.158,44.314 26.523,47.341 30.201,53.894 		"/>
		<rect x="26.963" y="40.234" transform="matrix(0.9622 0.2724 -0.2724 0.9622 12.4647 -6.4752)" width="5.18" height="2.842"/>
		<rect x="40.094" y="38.474" transform="matrix(0.9293 0.3693 -0.3693 0.9293 18.0373 -13.1191)" width="6.386" height="4.163"/>
	</g>
</g>
</svg>
