<?xml version="1.0" encoding="utf-8"?>
<!-- Generator: Adobe Illustrator 15.0.0, SVG Export Plug-In . SVG Version: 6.00 Build 0)  -->
<!DOCTYPE svg PUBLIC "-//W3C//DTD SVG 1.1//EN" "http://www.w3.org/Graphics/SVG/1.1/DTD/svg11.dtd">
<svg version="1.1" id="Layer_1" xmlns="http://www.w3.org/2000/svg" xmlns:xlink="http://www.w3.org/1999/xlink" x="0px" y="0px"
	 width="64px" height="64px" viewBox="0 0 64 64" enable-background="new 0 0 64 64" xml:space="preserve">
<g>
	<circle fill="#FF8736" cx="32" cy="32" r="30"/>
	<g>
		<path fill="#FFFFFF" d="M37,19.501c0,1.25-1.25,2.5-2.5,2.499h-5c-1.25,0.001-2.5-1.249-2.5-2.499v-5c0-1.25,1.25-2.5,2.5-2.5h5
			c1.25,0,2.5,1.25,2.5,2.5V19.501z"/>
		<g>
			<polygon fill="#FFFFFF" points="31,41 26,38 23,45 26,52 29,51 27,45 			"/>
			<polygon fill="#FFFFFF" points="33,41 38,38 41,45 38,52 35,51 37,45 			"/>
			<path fill="#FFFFFF" d="M36,24h-8.053L20,21l-1,2l7,5v6c0,2,1,3,3,3h6c2,0,3-1,3-3v-6l7-5l-1-2L36,24z"/>
		</g>
	</g>
</g>
</svg>
