<?xml version="1.0" encoding="utf-8"?>
<!-- Generator: Adobe Illustrator 15.0.0, SVG Export Plug-In . SVG Version: 6.00 Build 0)  -->
<!DOCTYPE svg PUBLIC "-//W3C//DTD SVG 1.1//EN" "http://www.w3.org/Graphics/SVG/1.1/DTD/svg11.dtd">
<svg version="1.1" id="Layer_1" xmlns="http://www.w3.org/2000/svg" xmlns:xlink="http://www.w3.org/1999/xlink" x="0px" y="0px"
	 width="64px" height="64px" viewBox="0 0 64 64" enable-background="new 0 0 64 64" xml:space="preserve">
<g>
	<circle fill="#42ADE2" cx="32" cy="32" r="30"/>
	<g>
		<path fill="#FFFFFF" d="M15.585,45L11,19h3.97l2.895,17.855L21.375,19h4.609l3.365,18.16L32.296,19h3.905l-4.667,26h-4.111
			l-3.822-19.438L19.79,45H15.585z"/>
		<path fill="#FFFFFF" d="M46,41.287c-1.93,0-3.5-1.669-3.5-3.716V26.429c0-2.047,1.57-3.713,3.5-3.713s3.5,1.666,3.5,3.713H53
			C53,22.335,49.861,19,46,19c-3.857,0-7,3.335-7,7.429v11.143C39,41.668,42.143,45,46,45c3.861,0,7-3.332,7-7.429h-3.5
			C49.5,39.618,47.93,41.287,46,41.287z"/>
	</g>
</g>
</svg>
