<?xml version="1.0" encoding="utf-8"?>
<!-- Generator: Adobe Illustrator 15.0.0, SVG Export Plug-In . SVG Version: 6.00 Build 0)  -->
<!DOCTYPE svg PUBLIC "-//W3C//DTD SVG 1.1//EN" "http://www.w3.org/Graphics/SVG/1.1/DTD/svg11.dtd">
<svg version="1.1" id="Layer_1" xmlns="http://www.w3.org/2000/svg" xmlns:xlink="http://www.w3.org/1999/xlink" x="0px" y="0px"
	 width="64px" height="64px" viewBox="0 0 64 64" enable-background="new 0 0 64 64" xml:space="preserve">
<g>
	<path fill="#9E958F" d="M58.247,35.837c0,8.015-6.497,14.513-14.513,14.513V35.837H58.247z"/>
	<path fill="#E2D8C7" d="M59.268,3.328h-9.775c-0.842,0-1.525,0.749-1.525,1.305v29.938c0,0.557,0.684,1.604,1.525,1.604h9.775
		c0.843,0,1.525-1.047,1.525-1.604V4.633C60.793,4.077,60.11,3.328,59.268,3.328z"/>
	<path fill="#C6BBB3" d="M60.31,0.001H48.451c-1.022,0-1.85,0.908-1.85,1.583v1.922c0,0.674,0.827,1.945,1.85,1.945H60.31
		c1.022,0,1.849-1.271,1.849-1.945V1.583C62.158,0.909,61.332,0.001,60.31,0.001z"/>
	<path fill="#C6BBB3" d="M43.957,51.985c0-2.492,0.648-4.836,1.787-6.879H10.479c1.139,2.043,1.787,4.387,1.787,6.879
		c0,4.686-2.29,7.903-5.831,10.523h43.352C46.246,59.889,43.957,56.671,43.957,51.985z"/>
	<path fill="#E2D8C7" d="M50.99,62.507c0,0.826-0.683,1.494-1.525,1.494H6.758c-0.842,0-1.525-0.668-1.525-1.494l0,0
		c0-0.826,0.683-1.495,1.525-1.495h42.707C50.308,61.012,50.99,61.681,50.99,62.507L50.99,62.507z"/>
	<path fill="#E2D8C7" d="M28.112,53.808c12.635,0,22.878-8.045,22.878-17.972H5.233C5.233,45.763,15.476,53.808,28.112,53.808z"/>
	<path fill="#C6BBB3" d="M48.685,35.091c0,1.014-0.683,1.834-1.526,1.834H3.368c-0.842,0-1.525-0.82-1.525-1.834l0,0
		c0-1.014,0.683-1.834,1.525-1.834h43.791C48.002,33.257,48.685,34.077,48.685,35.091L48.685,35.091z"/>
	<path fill="#42ADE2" d="M48.685,31.421c0,1.014-0.683,1.835-1.526,1.835H3.368c-0.842,0-1.525-0.822-1.525-1.835l0,0
		c0-1.014,0.683-1.834,1.525-1.834h43.791C48.002,29.587,48.685,30.408,48.685,31.421L48.685,31.421z"/>
	<circle fill="#636A6B" cx="47.967" cy="33.537" r="2.965"/>
	<path fill="#636A6B" d="M57.951,7.351c0,1.972-1.599,3.571-3.571,3.571c-1.972,0-3.571-1.599-3.571-3.571H57.951z"/>
</g>
</svg>
