<?xml version="1.0" encoding="utf-8"?>
<!-- Generator: Adobe Illustrator 15.0.0, SVG Export Plug-In . SVG Version: 6.00 Build 0)  -->
<!DOCTYPE svg PUBLIC "-//W3C//DTD SVG 1.1//EN" "http://www.w3.org/Graphics/SVG/1.1/DTD/svg11.dtd">
<svg version="1.1" id="Layer_1" xmlns="http://www.w3.org/2000/svg" xmlns:xlink="http://www.w3.org/1999/xlink" x="0px" y="0px"
	 width="64px" height="64px" viewBox="0 0 64 64" enable-background="new 0 0 64 64" xml:space="preserve">
<g>
	<circle fill="#E84D88" cx="32" cy="33" r="30"/>
	<path fill="#FFFFFF" d="M36,24h-4h-4c-1,0-2,1-2,2l-3,11h3l2-9v4l-2,9h2v11h3V41h2v11h3V41h2l-2-9v-4l2,9h3l-3-11
		C38,25,37,24,36,24z"/>
	<path fill="#FFFFFF" d="M36,20c0,1-1,2-2,1.999h-4C29,22,28,21,28,20v-4c0-1,1-2,2-2h4c1,0,2,1,2,2V20z"/>
</g>
</svg>
