<?xml version="1.0" encoding="utf-8"?>
<!-- Generator: Adobe Illustrator 15.0.0, SVG Export Plug-In . SVG Version: 6.00 Build 0)  -->
<!DOCTYPE svg PUBLIC "-//W3C//DTD SVG 1.1//EN" "http://www.w3.org/Graphics/SVG/1.1/DTD/svg11.dtd">
<svg version="1.1" id="Layer_1" xmlns="http://www.w3.org/2000/svg" xmlns:xlink="http://www.w3.org/1999/xlink" x="0px" y="0px"
	 width="64px" height="64px" viewBox="0 0 64 64" enable-background="new 0 0 64 64" xml:space="preserve">
<g>
	<circle fill="#ED4C5C" cx="32" cy="32" r="30"/>
	<circle fill="#333333" cx="32" cy="32" r="24"/>
	<g>
		<path fill="#FFFFFF" d="M51.998,32.823c-0.374-0.886-0.911-1.681-1.595-2.364c-0.682-0.684-1.477-1.221-2.362-1.596
			c-0.917-0.389-1.892-0.584-2.896-0.584c-1.003,0-1.977,0.195-2.895,0.584c-0.27,0.115-0.532,0.245-0.785,0.389l-2.533-3.467
			l0.873-2.21c0.845-0.471,1.906-1.141,2.221-1.699c0.549-0.971-1.363-0.421-5.533-0.421c0,0-2.242-0.222-1.219,0.802
			c0.646,0.646,1.828,1.235,2.611,1.582l-0.426,1.078H26.585c0.01-0.061,0.018-0.123,0.023-0.186
			c0.123-1.176-0.385-2.159-1.143-3.307c-0.063-0.095-0.121-0.179-0.172-0.259c-0.041-0.063-0.061-0.138-0.061-0.219
			c0-0.233,0.188-0.421,0.422-0.421c0.839,0,3.354,0,3.354,0l1.055-1.689h-5.313c0,0-0.028,0.003-0.037,0.004
			c-0.516,0.046-1.217,0.343-1.486,1.021c-0.154,0.389-0.143,0.823,0.036,1.291c0.159,0.417,0.451,0.865,0.894,1.366
			c1.322,1.504,0.708,2.691,0.059,3.948c-0.061,0.116-0.121,0.236-0.182,0.353c-0.186,0.374-0.793,1.286-1.564,2.398
			c-0.231-0.13-0.474-0.249-0.721-0.354c-0.92-0.389-1.893-0.584-2.896-0.584c-1.003,0-1.977,0.195-2.896,0.584
			c-0.885,0.375-1.68,0.912-2.363,1.596s-1.218,1.479-1.593,2.364c-0.389,0.918-0.584,1.894-0.584,2.897s0.195,1.978,0.584,2.896
			c0.375,0.886,0.91,1.682,1.593,2.365s1.478,1.22,2.363,1.594c0.919,0.389,1.892,0.586,2.896,0.586
			c1.004,0,1.977-0.197,2.896-0.586c0.885-0.374,1.68-0.91,2.362-1.594c0.684-0.684,1.219-1.479,1.593-2.365
			c0.389-0.919,0.584-1.893,0.584-2.896s-0.195-1.979-0.584-2.897c-0.374-0.886-0.909-1.681-1.593-2.364
			c-0.087-0.089-0.177-0.174-0.269-0.256c0.264-0.379,0.51-0.742,0.73-1.073l7.035,7.159c-0.098,0.244-0.15,0.51-0.15,0.788
			c0,1.103,0.844,2.007,1.919,2.103l0.37,2.289h-0.666v0.844h2.321v-0.844h-0.802l-0.385-2.383c0.654-0.213,1.17-0.735,1.369-1.395
			l2.32-0.272c0.094,0.409,0.224,0.809,0.389,1.198c0.375,0.886,0.911,1.682,1.595,2.365c0.682,0.684,1.478,1.22,2.362,1.594
			c0.918,0.389,1.892,0.586,2.895,0.586c1.004,0,1.979-0.197,2.896-0.586c0.886-0.374,1.681-0.91,2.362-1.594
			c0.684-0.684,1.221-1.479,1.595-2.365c0.388-0.919,0.585-1.893,0.585-2.896S52.386,33.741,51.998,32.823z M24.603,35.721
			c0,3.172-2.58,5.753-5.75,5.753c-3.169,0-5.749-2.581-5.749-5.753c0-3.174,2.58-5.753,5.749-5.753c0.953,0,1.85,0.233,2.643,0.645
			c-1.229,1.733-2.582,3.599-3.319,4.603l0,0c-0.002,0.003-0.004,0.004-0.004,0.006l0,0c-0.103,0.141-0.163,0.313-0.163,0.5
			c0,0.466,0.377,0.844,0.843,0.844c0.279,0,0.525-0.136,0.681-0.344l0,0c0.297-0.405,1.86-2.541,3.33-4.618
			C23.935,32.648,24.603,34.107,24.603,35.721z M25.545,27.575c0.054-0.106,0.11-0.216,0.169-0.333
			c0.104-0.199,0.213-0.41,0.32-0.636h10.76l-3.259,8.251l-0.485-3.016h0.664v-0.844h-2.32v0.844h0.801l0.508,3.152l-7.203-7.331
			C25.517,27.632,25.531,27.603,25.545,27.575z M35.389,36.014c-0.091-0.156-0.2-0.299-0.327-0.426l3.139-7.944l1.904,2.606
			c-0.073,0.068-0.146,0.137-0.216,0.209c-0.684,0.684-1.22,1.479-1.595,2.364c-0.389,0.918-0.584,1.894-0.584,2.897
			c0,0.007,0,0.014,0,0.021L35.389,36.014z M41.109,31.627l2.501,3.422l-4.209,0.494C39.447,34.014,40.093,32.633,41.109,31.627z
			 M45.146,41.474c-2.651,0-4.889-1.806-5.549-4.254l7.084-0.829l-4.209-5.762c0.799-0.422,1.709-0.661,2.674-0.661
			c3.171,0,5.749,2.579,5.749,5.753C50.895,38.893,48.316,41.474,45.146,41.474z"/>
	</g>
	
		<rect x="2.815" y="29" transform="matrix(-0.7071 -0.7071 0.7071 -0.7071 31.9999 77.2544)" fill="#ED4C5C" width="58.37" height="5.999"/>
</g>
</svg>
