<?xml version="1.0" encoding="utf-8"?>
<!-- Generator: Adobe Illustrator 15.0.0, SVG Export Plug-In . SVG Version: 6.00 Build 0)  -->
<!DOCTYPE svg PUBLIC "-//W3C//DTD SVG 1.1//EN" "http://www.w3.org/Graphics/SVG/1.1/DTD/svg11.dtd">
<svg version="1.1" id="Layer_1" xmlns="http://www.w3.org/2000/svg" xmlns:xlink="http://www.w3.org/1999/xlink" x="0px" y="0px"
	 width="64px" height="64px" viewBox="0 0 64 64" enable-background="new 0 0 64 64" xml:space="preserve">
<g>
	<g>
		<polygon fill="#FFE1BD" points="33.101,19.416 35.487,19.416 35.487,28.259 29.345,28.259 		"/>
		<g>
			<path fill="#E6B796" d="M33.079,19.225c0,3.971-0.848,5.982-3.703,5.982l-0.031,3.052c3.375,0,4.756-4.208,4.756-8.843
				L33.079,19.225z"/>
		</g>
		<g>
			<path fill="#FFE1BD" d="M35.157,5.613L21.729,9.84c-1.551,2.83-0.494,4.328-0.549,5.549c-0.023,0.543-1.127,1.535-1.711,2.055
				c-1.304,1.158,0.879,2.094,1.695,1.924c0.518,1.217-0.32,1.549,1.682,1.371c1.102-0.098,2.59-1.115,2.59-1.115
				c-4.855,3.055-3.6,4.311-1.598,3.783c0,2.574,1.598,2.574,5.102,2.574c2.857,0,5.16-2.594,5.16-6.564l3.828-0.668L35.157,5.613z"
				/>
			<path fill="#594640" d="M30.067,1.98c9.908,0,11.203,8.414,9.828,14.248c-0.732,3.105-2.375,5.083-4.295,5.932l-0.969-0.625
				l-0.531-2.119c0,0,1.938-0.453,2.51-2.664c0.264-1.012-0.752-2.941-2.24-3.023c-1.041-0.059-2.537,0.715-2.855,0.951
				c0-2.57,0.521-5.23-1.229-5.994c-1.439-0.629-7.625,2.168-8.557,1.154C19.226,7.131,24.101,1.98,30.067,1.98z"/>
			<path fill="#664E27" d="M33.839,16.236c-0.186-0.025-0.367,0.002-0.529,0.07c0.084-0.182,0.188-0.357,0.305-0.535
				c0.145-0.219,0.318-0.422,0.486-0.664c-0.559,0.148-1.057,0.555-1.307,1.123c-0.246,0.578-0.148,1.238,0.158,1.721
				c0.049-0.293,0.053-0.564,0.096-0.816c0.031-0.16,0.07-0.313,0.115-0.461c0.074,0.004,0.146,0.004,0.213,0.012
				c0.143,0.016,0.268,0.018,0.393,0.041c0.125,0.012,0.248,0.047,0.391,0.068c0.141,0.025,0.283,0.072,0.473,0.096
				C34.53,16.547,34.206,16.293,33.839,16.236z"/>
			<ellipse fill="#664E27" cx="23.368" cy="14.947" rx="1.066" ry="1.49"/>
			<path fill="#664E27" d="M25.437,19.623c0,0-1.584,2.283-1.986,2.604c-0.855,0.684-1.148,0.234-0.729-0.34
				C23.153,21.295,25.437,19.623,25.437,19.623z"/>
		</g>
	</g>
	<path fill="#D3976E" d="M23.755,59.145c-1.627,0.001-3.1,1.289-3.102,2.875l7.002-0.008c0.811,0,1.654-0.645,1.654-1.439v-1.434
		L23.755,59.145z"/>
	<path fill="#D3976E" d="M39.474,57.271c-1.234,1.039-1.5,2.956-0.449,4.162l5.314-4.471c0.615-0.518,0.828-1.545,0.303-2.148
		l-0.951-1.09L39.474,57.271z"/>
	<g>
		<polygon fill="#3B946F" points="33.173,28.449 36.786,39.473 39.997,39.286 35.823,26.396 		"/>
		<g>
			<path fill="#FFE1BD" d="M38.333,38.643l-1.514,0.304c-0.539,0.108-0.889,0.628-0.779,1.159l0.145,0.717
				c0.078,0.383,0.369,0.668,0.727,0.76c0.264,0.943,0.871,2.128,2.678,1.764c0.301-0.061,1.955-0.391,1.563-2.316
				C40.575,38.193,40.575,38.193,38.333,38.643z"/>
			<g>
				<path fill="#E6B796" d="M37.335,41.658c1.287-0.318,0.829-1.665,0.664-2.594c-0.028-0.158-0.27-0.091-0.241,0.066
					c0.138,0.776,0.604,2.016-0.489,2.287C37.112,41.456,37.179,41.697,37.335,41.658L37.335,41.658z"/>
			</g>
		</g>
	</g>
	<path fill="#47B892" d="M36.827,41.067H26.763c0,0-0.098-8.987,0.902-12.526c0.93-3.296,8.158-2.146,8.158-2.146L36.827,41.067z"/>
	<polygon fill="#3E4347" points="36.788,48.428 36.831,41.067 26.763,41.067 24.296,49.293 23.755,59.246 29.31,59.139 
		30.224,50.465 31.048,48.616 31.329,51.489 39.897,57.25 43.69,53.725 	"/>
	<g>
		<path fill="#3B946F" d="M33.933,29.826c0.17-0.927-0.467-1.813-1.42-1.977c-0.951-0.167-1.861,0.455-2.029,1.381l-0.955,5.435
			l-4.883,3.412l2.043,2.788l5.504-3.846c0.297-0.209,0.504-0.496,0.615-0.814h0.002l0.005-0.024
			c0.052-0.152,0.076-0.312,0.083-0.473L33.933,29.826z"/>
		<g>
			<path fill="#FFE1BD" d="M26.442,39.4l-0.867-1.451c-0.311-0.516-0.986-0.693-1.51-0.395l-0.711,0.402
				c-0.377,0.216-0.574,0.615-0.541,1.016c-0.908,0.604-1.947,1.646-0.91,3.379c0.172,0.287,1.117,1.873,3.02,0.79
				C27.726,41.549,27.726,41.549,26.442,39.4z"/>
		</g>
	</g>
</g>
</svg>
