<?xml version="1.0" encoding="utf-8"?>
<!-- Generator: Adobe Illustrator 15.0.0, SVG Export Plug-In . SVG Version: 6.00 Build 0)  -->
<!DOCTYPE svg PUBLIC "-//W3C//DTD SVG 1.1//EN" "http://www.w3.org/Graphics/SVG/1.1/DTD/svg11.dtd">
<svg version="1.1" id="Layer_1" xmlns="http://www.w3.org/2000/svg" xmlns:xlink="http://www.w3.org/1999/xlink" x="0px" y="0px"
	 width="64px" height="64px" viewBox="0 0 64 64" enable-background="new 0 0 64 64" xml:space="preserve">
<g>
	<circle fill="#ED4C5C" cx="32" cy="32" r="30"/>
	<circle fill="#333333" cx="32" cy="32" r="24"/>
	<g>
		<path fill="#FFFFFF" d="M41.969,47.213l-3.881-9.293c-0.281-0.762-0.543-3.213-0.543-3.213l0,0
			c-0.023-0.262-0.068-0.52-0.137-0.766l-2.289-8.8l2.967,1.515v2.787c0,0.881,0.699,1.592,1.564,1.592
			c0.863,0,1.564-0.711,1.564-1.592v-4.756l-8.361-4.262l-0.008-0.003l0,0c-0.532-0.256-1.126-0.398-1.755-0.398
			c-1.228,0-2.329,0.547-3.083,1.415L28,21.431l-4.023,4.099h-5.021c-0.863,0-1.563,0.712-1.563,1.594
			c0,0.883,0.7,1.594,1.563,1.594h6.318l2.271-2.313l1.45,6.734l-4.148,4.229v10.5c0,0.883,0.701,1.596,1.564,1.596
			c0.865,0,1.564-0.713,1.564-1.596v-9.18l3.311-3.371c0.279-0.281,0.666-0.455,1.092-0.455c0.635,0,1.183,0.387,1.426,0.941
			l5.289,12.658c0.23,0.59,0.793,1.002,1.45,1.002c0.864,0,1.565-0.713,1.565-1.596C42.107,47.635,42.058,47.414,41.969,47.213z"/>
		<circle fill="#FFFFFF" cx="29.749" cy="15.694" r="2.931"/>
	</g>
	
		<rect x="2.815" y="29" transform="matrix(-0.7071 -0.7071 0.7071 -0.7071 31.9999 77.2547)" fill="#ED4C5C" width="58.37" height="5.999"/>
</g>
</svg>
