<?xml version="1.0" encoding="utf-8"?>
<!-- Generator: Adobe Illustrator 15.0.0, SVG Export Plug-In . SVG Version: 6.00 Build 0)  -->
<!DOCTYPE svg PUBLIC "-//W3C//DTD SVG 1.1//EN" "http://www.w3.org/Graphics/SVG/1.1/DTD/svg11.dtd">
<svg version="1.1" id="Layer_1" xmlns="http://www.w3.org/2000/svg" xmlns:xlink="http://www.w3.org/1999/xlink" x="0px" y="0px"
	 width="64px" height="64px" viewBox="0 0 64 64" enable-background="new 0 0 64 64" xml:space="preserve">
<g>
	<circle fill="#ED4C5C" cx="32" cy="32" r="30"/>
	<circle fill="#333333" cx="32" cy="32" r="24"/>
	<g>
		<path fill="#FFFFFF" d="M35.279,26.051v-0.779h-5.782v0.779c0,0.43-0.348,0.777-0.779,0.777h-3.773
			c-1.763,0-3.192,1.425-3.192,3.182v3.802h4.335v-1.332c0-0.735,0.599-1.331,1.337-1.331h0.486c0.181,0,0.389,0.177,0.471,0.326
			c0,0,0.002,0,0.002,0.001c0.786,1.394,2.285,2.336,4.006,2.336c1.727,0,3.23-0.95,4.018-2.354c0.087-0.146,0.285-0.31,0.462-0.31
			h0.002h3.669v-4.32H36.06C35.629,26.828,35.279,26.48,35.279,26.051z"/>
		<path fill="#FFFFFF" d="M26.577,19.304c0.126,0,1.113-0.016,1.229-0.045c0.48-0.034,0.996-0.077,3.372-0.09
			c0.102,0.132,0.221,0.251,0.352,0.355v1.668h-0.777c-0.431,0-0.778,0.34-0.778,0.759c0,0.418,0.348,0.759,0.778,0.759h0.777h2.649
			h0.777c0.429,0,0.777-0.341,0.777-0.759c0-0.419-0.349-0.759-0.777-0.759H34.18v-1.668c0.131-0.104,0.248-0.223,0.351-0.355
			c2.375,0.013,2.89,0.056,3.37,0.09c0.118,0.03,1.104,0.045,1.231,0.045c0.777,0,1.407-0.615,1.407-1.374
			c0-0.76-0.63-1.375-1.407-1.375c-0.127,0-1.113,0.016-1.231,0.047c-0.48,0.034-0.995,0.076-3.37,0.089
			c-0.384-0.494-0.99-0.814-1.675-0.814c-0.686,0-1.292,0.32-1.677,0.814c-2.376-0.013-2.892-0.055-3.372-0.089
			c-0.116-0.031-1.104-0.047-1.229-0.047c-0.777,0-1.409,0.614-1.409,1.375C25.168,18.689,25.8,19.304,26.577,19.304z"/>
		<rect x="42.248" y="25.272" fill="#FFFFFF" width="1.708" height="6.832"/>
		<path fill="#FFFFFF" d="M21.182,46.621h6.263l1.14-10.248h-8.54L21.182,46.621z M27.46,40.051h-6.291l-0.33-2.971h6.951
			L27.46,40.051z"/>
	</g>
	
		<rect x="2.815" y="29" transform="matrix(-0.7071 -0.7071 0.7071 -0.7071 31.9999 77.2544)" fill="#ED4C5C" width="58.37" height="5.999"/>
</g>
</svg>
