<?xml version="1.0" encoding="utf-8"?>
<!-- Generator: Adobe Illustrator 15.0.0, SVG Export Plug-In . SVG Version: 6.00 Build 0)  -->
<!DOCTYPE svg PUBLIC "-//W3C//DTD SVG 1.1//EN" "http://www.w3.org/Graphics/SVG/1.1/DTD/svg11.dtd">
<svg version="1.1" id="Layer_1" xmlns="http://www.w3.org/2000/svg" xmlns:xlink="http://www.w3.org/1999/xlink" x="0px" y="0px"
	 width="64px" height="64px" viewBox="0 0 64 64" enable-background="new 0 0 64 64" xml:space="preserve">
<g>
	<circle fill="#428BC1" cx="32" cy="32" r="30"/>
	<path fill="#FFFFFF" d="M38,23h-6h-6c-1,0-2,1-2,2l-1,11h3l1-9l1,24h3l1-13l1,13h3l1-24l1,9h3l-1-11C40,24,39,23,38,23z"/>
	<path fill="#FFFFFF" d="M36,19c0,1-1,2-2,1.999h-4C29,21,28,20,28,19v-4c0-1,1-2,2-2h4c1,0,2,1,2,2V19z"/>
</g>
</svg>
