<?xml version="1.0" encoding="utf-8"?>
<!-- Generator: Adobe Illustrator 15.0.0, SVG Export Plug-In . SVG Version: 6.00 Build 0)  -->
<!DOCTYPE svg PUBLIC "-//W3C//DTD SVG 1.1//EN" "http://www.w3.org/Graphics/SVG/1.1/DTD/svg11.dtd">
<svg version="1.1" id="Layer_1" xmlns="http://www.w3.org/2000/svg" xmlns:xlink="http://www.w3.org/1999/xlink" x="0px" y="0px"
	 width="64px" height="64px" viewBox="0 0 64 64" enable-background="new 0 0 64 64" xml:space="preserve">
<g>
	<g>
		<g>
			<path fill="#AEC470" d="M64,64v-7.5c0,0-27.5-7.393-64-42.58V64H64z"/>
			<path fill="#95A55B" d="M64,64v-3.5c0,0-27.334,6.75-64-23.58V64H64z"/>
		</g>
	</g>
	<g>
		<g>
			<polygon fill="#FFE1BD" points="38.053,16.287 40.115,16.301 40.107,23.889 34.801,23.854 			"/>
			<g>
				<path fill="#F9C19B" d="M38.035,16.125c-0.004,3.406-0.738,5.127-3.205,5.109l-0.029,2.619c2.914,0.018,4.111-3.584,4.115-7.561
					L38.035,16.125z"/>
			</g>
			<g>
				<path fill="#FFE1BD" d="M39.842,4.459L28.238,8.008c-1.34,2.418-0.43,3.709-0.477,4.758c-0.023,0.465-0.977,1.311-1.48,1.752
					c-1.129,0.986,0.758,1.801,1.463,1.66c0.445,1.045-0.279,1.328,1.451,1.186c0.951-0.078,2.236-0.941,2.236-0.941
					c-4.197,2.592-3.111,3.676-1.383,3.234c-0.002,2.211,1.379,2.219,4.404,2.24c2.469,0.016,4.459-2.197,4.463-5.604l3.309-0.551
					L39.842,4.459z"/>
				<path fill="#594640" d="M35.447,1.314c8.559,0.057,9.672,7.281,8.479,12.279c-0.635,2.66-2.057,4.346-3.717,5.063l-0.834-0.541
					l-0.459-1.822c0,0,1.676-0.377,2.17-2.27c0.229-0.867-0.645-2.527-1.932-2.607c-0.9-0.055-2.191,0.6-2.467,0.799
					c0.002-2.205,0.455-4.482-1.057-5.148c-1.244-0.547-6.588,1.816-7.393,0.941C26.078,5.67,30.295,1.279,35.447,1.314z"/>
				<path fill="#574137" d="M38.693,13.564c-0.16-0.021-0.318,0-0.457,0.057c0.074-0.154,0.162-0.305,0.264-0.457
					c0.125-0.186,0.275-0.359,0.42-0.566c-0.48,0.125-0.914,0.471-1.129,0.957c-0.213,0.494-0.131,1.061,0.135,1.475
					c0.041-0.25,0.047-0.482,0.084-0.697c0.027-0.139,0.061-0.27,0.1-0.396c0.064,0.004,0.125,0.006,0.184,0.012
					c0.123,0.016,0.23,0.018,0.338,0.037c0.109,0.012,0.215,0.041,0.338,0.063s0.246,0.063,0.408,0.084
					C39.289,13.834,39.01,13.615,38.693,13.564z"/>
				<path fill="#574137" d="M30.57,12.404c0,0.705-0.412,1.275-0.922,1.271c-0.508-0.002-0.918-0.578-0.918-1.283
					s0.414-1.275,0.922-1.271S30.572,11.699,30.57,12.404z"/>
				<path fill="#574137" d="M31.432,16.422c0,0-1.369,1.949-1.717,2.223c-0.74,0.58-0.992,0.193-0.629-0.297
					C29.459,17.842,31.432,16.422,31.432,16.422z"/>
			</g>
		</g>
		<g>
			<polygon fill="#3E4347" points="38.732,18.564 37.361,18.703 35.232,9.67 36.605,9.531 			"/>
			<polygon fill="#3E4347" points="38.41,18.82 37.221,18.16 41.609,13.156 42.801,13.816 			"/>
			
				<rect x="36.818" y="17.251" transform="matrix(0.986 0.167 -0.167 0.986 3.8335 -6.0236)" fill="#3E4347" width="1.836" height="5.067"/>
		</g>
		<path fill="#F15744" d="M45.064,14.943c-0.738,1.693-5.729-2.961-9.104-4.436c-3.705-1.615-9.998-2.268-9.398-3.643
			c2.18-4.992,8.09-7.232,13.199-5.002C44.871,4.096,47.246,9.951,45.064,14.943z"/>
		<g>
			<g>
				<path fill="#3B946F" d="M35.248,22.713c-0.688-0.4-1.572-0.186-1.977,0.479l-2.756,4.576l2.488,1.447l2.756-4.574
					C36.166,23.977,35.936,23.113,35.248,22.713z"/>
				<path fill="#3B946F" d="M33.1,28.846c0.094-0.766-0.473-1.447-1.264-1.545l-5.57-0.703l-0.344,2.781l5.566,0.705
					C32.283,30.182,33.008,29.615,33.1,28.846z"/>
			</g>
			<g>
				<path fill="#E6B796" d="M26.455,28.102l0.299-1.338c0.105-0.479-0.207-0.955-0.697-1.061l-0.668-0.148
					c-0.352-0.078-0.703,0.055-0.91,0.313c-0.904-0.137-2.135-0.08-2.49,1.523c-0.059,0.264-0.387,1.729,1.395,2.121
					C26.01,30.09,26.01,30.09,26.455,28.102z"/>
			</g>
		</g>
		<g>
			<path fill="#D3976E" d="M30.547,45.053c-1.43-0.398-2.904,0.4-3.293,1.783l6.15,1.715c0.715,0.197,1.451-0.201,1.646-0.895
				l0.352-1.252L30.547,45.053z"/>
			<polygon fill="#3E4347" points="35.402,46.404 30.518,45.043 32.914,36.488 37.801,37.852 			"/>
			<polygon fill="#3E4347" points="37.252,39.805 32.914,36.488 39.662,32.313 44.859,35.363 			"/>
		</g>
		<g>
			<path fill="#333333" d="M12.652,50.887c-1.371-0.5-2.605-1.246-3.67-2.223c-1.025-0.941-1.852-2.055-2.453-3.309
				c-0.6-1.252-0.945-2.584-1.023-3.955c-0.086-1.42,0.121-2.822,0.609-4.166c0.49-1.344,1.232-2.549,2.211-3.584
				c0.941-1,2.063-1.797,3.326-2.371c1.266-0.574,2.615-0.896,4.006-0.957c1.443-0.064,2.869,0.156,4.24,0.654
				c1.371,0.5,2.605,1.248,3.67,2.225c1.027,0.941,1.854,2.053,2.453,3.309c0.6,1.252,0.945,2.584,1.025,3.955
				c0.084,1.42-0.121,2.822-0.611,4.166c-0.488,1.344-1.232,2.549-2.209,3.584c-0.943,0.998-2.063,1.797-3.328,2.371
				s-2.613,0.896-4.006,0.957C15.449,51.607,14.023,51.385,12.652,50.887z M19.271,32.701c-4.633-1.688-9.746,0.635-11.398,5.172
				c-1.652,4.541,0.773,9.605,5.406,11.291s9.746-0.635,11.398-5.174S23.904,34.387,19.271,32.701z"/>
		</g>
		<g>
			<path fill="#333333" d="M44.102,62.332c-1.371-0.498-2.605-1.246-3.67-2.221c-1.025-0.941-1.852-2.057-2.453-3.309
				c-0.6-1.252-0.945-2.584-1.023-3.955c-0.084-1.422,0.121-2.824,0.609-4.166c0.488-1.344,1.232-2.551,2.211-3.584
				c0.941-1,2.063-1.797,3.328-2.371c1.266-0.576,2.613-0.896,4.004-0.959c1.443-0.063,2.869,0.156,4.24,0.656
				c1.373,0.5,2.607,1.248,3.67,2.223c1.029,0.943,1.854,2.055,2.453,3.309s0.945,2.586,1.025,3.957
				c0.084,1.42-0.121,2.82-0.611,4.164c-0.488,1.344-1.232,2.551-2.209,3.584c-0.943,1-2.063,1.799-3.328,2.373
				s-2.613,0.895-4.006,0.957C46.9,63.053,45.473,62.832,44.102,62.332z M50.721,44.146c-4.633-1.686-9.746,0.635-11.398,5.174
				s0.773,9.604,5.406,11.289c4.633,1.688,9.746-0.633,11.398-5.172S55.354,45.834,50.721,44.146z"/>
		</g>
		<g>
			<g>
				<path fill="#ED4C5C" d="M44.826,37.369l3.471-3.836l-1.027-0.904l-3.361,3.715l-19.277-7.016l-1.158-2.641l-1.256,0.52
					l1.395,3.182l2.936,1.07l-0.848,2.455l7.738,16.041l10.15-11.217l3.457,13.697l1.361-0.113L44.826,37.369z M33.781,47.535
					l-7.023-14.572l0.986-1.07l15.189,5.529L33.781,47.535z"/>
			</g>
		</g>
		
			<ellipse transform="matrix(-0.9398 -0.3419 0.3419 -0.9398 74.6704 117.9154)" fill="#333333" cx="47.726" cy="52.378" rx="2.163" ry="2.119"/>
		
			<rect x="26.828" y="46.931" transform="matrix(0.9396 0.3422 -0.3422 0.9396 17.9892 -6.9461)" fill="#94989B" width="3.704" height="1.154"/>
		
			<rect x="36.478" y="52.017" transform="matrix(0.9397 0.342 -0.342 0.9397 20.3014 -9.9385)" fill="#94989B" width="3.706" height="1.155"/>
		<polygon fill="#B3B3B3" points="30.336,47.811 30.145,48.336 33.404,50.047 33.596,49.52 		"/>
		
			<ellipse transform="matrix(0.9397 0.3419 -0.3419 0.9397 19.1877 -8.3668)" fill="#333333" cx="33.33" cy="50.251" rx="3.036" ry="2.975"/>
		
			<ellipse transform="matrix(0.94 0.3412 -0.3412 0.94 19.1474 -8.3571)" fill="#B3B3B3" cx="33.33" cy="50.251" rx="0.758" ry="0.743"/>
		<g>
			<polygon fill="#B3B3B3" points="33.234,50.516 36.494,52.225 36.686,51.699 33.426,49.988 			"/>
		</g>
		<g>
			<path fill="#D3976E" d="M37.273,49.928c-1.48-0.057-2.719,1.063-2.764,2.502l6.369,0.25c0.738,0.027,1.357-0.531,1.379-1.254
				l0.043-1.301L37.273,49.928z"/>
			<polygon fill="#3E4347" points="42.301,50.125 37.777,49.947 38.191,39.078 43.252,39.275 			"/>
			<polygon fill="#3E4347" points="43.076,41.281 38.191,39.078 44.859,33.041 48.324,36.656 			"/>
		</g>
		<path fill="#47B892" d="M50.988,32.07l-11.326,0.242l-5.334-9.82c0,0,3.293-2.029,4.502-1.83
			C47.41,22.084,50.988,32.07,50.988,32.07z"/>
		<path fill="#3E4347" d="M48.324,36.656l-8.986-2.729l0.324-1.615l11.262-0.582C51.639,34.539,48.324,36.656,48.324,36.656z"/>
		<g>
			<g>
				<path fill="#47B892" d="M35.502,22.461c-0.734-0.301-1.578,0.035-1.881,0.75l-2.066,4.922l2.668,1.088l2.063-4.922
					C36.592,23.584,36.24,22.762,35.502,22.461z"/>
				<path fill="#47B892" d="M34.262,28.842c-0.018-0.773-0.674-1.369-1.471-1.355l-5.604,0.078l0.059,2.807l5.604-0.076
					C33.646,30.281,34.281,29.619,34.262,28.842z"/>
			</g>
			<g>
				<path fill="#FFE1BD" d="M27.59,29.029l0.104-1.369c0.035-0.488-0.344-0.916-0.842-0.953l-0.68-0.055
					c-0.361-0.027-0.688,0.152-0.857,0.436c-0.91-0.008-2.119,0.221-2.24,1.859c-0.021,0.27-0.133,1.768,1.684,1.908
					C27.438,31.063,27.438,31.063,27.59,29.029z"/>
			</g>
		</g>
		<polygon fill="#ED4C5C" points="16.449,41.715 15.506,40.613 27.242,30.711 28.188,31.816 		"/>
		
			<ellipse transform="matrix(-0.94 -0.3413 0.3413 -0.94 17.6051 84.9606)" fill="#333333" cx="16.276" cy="40.932" rx="1.082" ry="1.061"/>
	</g>
</g>
</svg>
