<?xml version="1.0" encoding="utf-8"?>
<!-- Generator: Adobe Illustrator 15.0.0, SVG Export Plug-In . SVG Version: 6.00 Build 0)  -->
<!DOCTYPE svg PUBLIC "-//W3C//DTD SVG 1.1//EN" "http://www.w3.org/Graphics/SVG/1.1/DTD/svg11.dtd">
<svg version="1.1" id="Layer_1" xmlns="http://www.w3.org/2000/svg" xmlns:xlink="http://www.w3.org/1999/xlink" x="0px" y="0px"
	 width="64px" height="64px" viewBox="0 0 64 64" enable-background="new 0 0 64 64" xml:space="preserve">
<g>
	<polygon fill="#ED4C5C" points="1.059,39.118 2.171,0 28.965,2.469 27.184,40.19 	"/>
	<polygon fill="#FCBE10" points="28.527,18.047 28.738,12.99 19.11,12.202 19.641,1.059 13.286,0.473 12.895,8.985 12.816,11.686 
		1.424,10.75 1.279,16.517 12.659,17.156 12.006,40.137 18.198,40.388 18.941,17.512 	"/>
	<g>
		<g>
			<path fill="#FFCE31" d="M10.629,13.347c0,0-0.353,6.348-5.12,9.924L9.58,23.64l-0.457,5.012c0,0,4.794-5.631,5.642-14.931
				L10.629,13.347z"/>
			<path fill="#FFCE31" d="M21.06,14.298c0,0-0.803,6.305,3.238,10.685l-4.071-0.373l-0.457,5.012c0,0-3.694-6.404-2.847-15.704
				L21.06,14.298z"/>
		</g>
		<g>
			<g>
				<path fill="#FFE62E" d="M15.4,14.058c-0.146,1.591-2.059,2.978-4.253,3.08l-1.756,0.083c-2.193,0.102-3.588-0.736-3.099-1.863
					c0.489-1.127,0.663-3.028,0.385-4.225C6.4,9.937,7.924,9.363,10.063,9.861l1.712,0.399C13.914,10.758,15.545,12.467,15.4,14.058
					z"/>
				<path fill="#FFCE31" d="M6.807,15.579c-0.185,0.147-0.005,0.337,0.047,0.42c0.157,0.248,0.667,0.545,1.627,0.633
					c0.275,0.025,0.57,0.031,0.877,0.017l1.756-0.083c1.229-0.057,2.376-0.578,3.057-1.294C14.17,15.271,8.995,13.836,6.807,15.579z
					"/>
			</g>
			<g>
				<path fill="#FFE62E" d="M16.238,14.134c-0.145,1.592,1.485,3.301,3.624,3.798l1.712,0.399c2.139,0.497,3.661-0.075,3.385-1.271
					c-0.276-1.197-0.104-3.098,0.386-4.225c0.488-1.127-0.905-1.966-3.099-1.863l-1.756,0.083
					C18.296,11.157,16.384,12.543,16.238,14.134z"/>
				<path fill="#FFCE31" d="M24.414,17.185c0.155,0.178-0.057,0.333-0.123,0.404c-0.199,0.216-0.753,0.416-1.713,0.328
					c-0.276-0.025-0.567-0.073-0.867-0.143l-1.712-0.399c-1.198-0.278-2.232-0.998-2.771-1.826
					C17.228,15.549,22.576,15.075,24.414,17.185z"/>
			</g>
		</g>
		<g>
			<g>
				<path fill="#FFCE31" d="M15.614,13.625c0,0-0.561,0.405-1.744-0.797c-1.348-1.37-3.653,0.075-0.86,1.061
					C14.501,14.416,15.614,13.625,15.614,13.625z"/>
			</g>
			<g>
				<path fill="#FFCE31" d="M16.105,13.669c0,0,0.478,0.5,1.858-0.468c1.572-1.103,3.58,0.734,0.655,1.199
					C17.057,14.648,16.105,13.669,16.105,13.669z"/>
			</g>
		</g>
		<path fill="#FFCE31" d="M15.62,16.271c-1.17-0.107-1.538,0.732-1.264-2.276c0.274-3.009,0.484-2.116,1.654-2.01
			c1.17,0.107,1.539-0.733,1.265,2.276C17.001,17.27,16.79,16.378,15.62,16.271z"/>
		<path fill="#FFE62E" d="M15.615,16.327c-0.948-0.086-1.263,0.78-0.981-2.307c0.281-3.086,0.434-2.177,1.383-2.09
			c0.948,0.086,1.264-0.78,0.982,2.306C16.717,17.323,16.563,16.414,15.615,16.327z"/>
	</g>
	<polygon fill="#C28FEF" points="38.786,12.323 43.613,0 61.729,5.622 58.889,15.56 	"/>
	<polygon fill="#FFE62E" points="45.496,13.388 51.772,14.413 55.349,3.482 49.344,1.591 	"/>
	<polygon fill="#42ADE2" points="32.438,11.188 32.438,30.665 64,30.381 64,11.188 	"/>
	<polygon fill="#0071BC" points="32.438,11.188 27.145,13.323 27.145,30.665 32.438,30.665 	"/>
	<g>
		<polygon fill="#3E4347" points="16,64 8,60 8,26 16,26 		"/>
		<polygon fill="#62727A" points="8,60 0,64 0,26 8,26 		"/>
		<rect x="16" y="26" fill="#62727A" width="48" height="38"/>
		<circle fill="#3E4347" cx="32" cy="35" r="3"/>
		<circle fill="#3E4347" cx="52" cy="35" r="3"/>
		<g>
			<path fill="#D0D0D0" d="M31,34.969c0,4.846,0,5.691,0,10.537c0,6.664,3.896,12.25,11,12.488c3.709,0.125,7.05-1.994,9.156-4.908
				C52.772,50.848,53,48.16,53,45.506c0-4.846,0-5.691,0-10.537c0-1.291-2-1.291-2,0c0,4.1,0,4.201,0,8.301
				c0,1.467,0.026,2.934-0.022,4.4c-0.16,4.756-4.481,8.172-8.978,8.322c-4.353,0.146-7.864-3.213-8.832-7.256
				C32.762,47.037,33,44.994,33,43.27c0-4.1,0-4.201,0-8.301C33,33.678,31,33.678,31,34.969L31,34.969z"/>
		</g>
	</g>
</g>
</svg>
