<?xml version="1.0" encoding="utf-8"?>
<!-- Generator: Adobe Illustrator 15.0.0, SVG Export Plug-In . SVG Version: 6.00 Build 0)  -->
<!DOCTYPE svg PUBLIC "-//W3C//DTD SVG 1.1//EN" "http://www.w3.org/Graphics/SVG/1.1/DTD/svg11.dtd">
<svg version="1.1" id="Layer_1" xmlns="http://www.w3.org/2000/svg" xmlns:xlink="http://www.w3.org/1999/xlink" x="0px" y="0px"
	 width="64px" height="64px" viewBox="0 0 64 64" enable-background="new 0 0 64 64" xml:space="preserve">
<g>
	<circle fill="#0071BC" cx="32" cy="32" r="30"/>
	<rect x="17.424" y="43.528" fill="#FFFFFF" width="14" height="5.999"/>
	<rect x="11.424" y="29.528" fill="#FFFFFF" width="6" height="14"/>
	<path fill="#FFFFFF" d="M37.154,21.973c0,4.764,9.555,4.764,9.555,0c0-2.586,0-4.751,0-4.751h-9.555l-3.801,2.851h3.801
		C37.154,20.743,37.154,21.422,37.154,21.973z"/>
	<polygon fill="#FFFFFF" points="46.709,16.271 46.709,12.471 36.204,12.471 37.154,16.271 	"/>
	<g>
		<polygon fill="#FFFFFF" points="33.785,42.083 48.177,27.674 39.476,27.674 33.785,27.674 33.774,27.674 20.272,41.777 
			25.974,41.777 33.785,33.617 		"/>
		<rect x="33.785" y="44.484" fill="#FFFFFF" width="16.791" height="5.045"/>
		<polygon fill="#FFFFFF" points="35.463,42.805 50.576,42.805 50.576,27.674 		"/>
	</g>
</g>
</svg>
