<?xml version="1.0" encoding="utf-8"?>
<!-- Generator: Adobe Illustrator 15.0.0, SVG Export Plug-In . SVG Version: 6.00 Build 0)  -->
<!DOCTYPE svg PUBLIC "-//W3C//DTD SVG 1.1//EN" "http://www.w3.org/Graphics/SVG/1.1/DTD/svg11.dtd">
<svg version="1.1" id="Layer_1" xmlns="http://www.w3.org/2000/svg" xmlns:xlink="http://www.w3.org/1999/xlink" x="0px" y="0px"
	 width="64px" height="64px" viewBox="0 0 64 64" enable-background="new 0 0 64 64" xml:space="preserve">
<g>
	<g>
		<path fill="#3E4347" d="M53.645,51.493c-1.444-0.771-3.293-4.747-3.293-4.747H13.647c0,0-1.848,3.977-3.292,4.747
			C8.475,52.497,5,53.5,5,57.199V62h54v-4.801C59,53.502,55.525,52.498,53.645,51.493z"/>
		<path fill="#62696D" d="M55.4,57.933c0,1.123-0.805,2.033-1.8,2.033H10.4c-0.994,0-1.8-0.91-1.8-2.033l0,0
			c0-1.124,0.806-2.034,1.8-2.034h43.2C54.596,55.898,55.4,56.809,55.4,57.933L55.4,57.933z"/>
	</g>
	<path fill="#B2C1C0" d="M57,49.797v-3.051c0-14.041-11.193-22.374-25-22.374S7,32.705,7,46.746v3.051H57z"/>
	<path fill="#DAE3EA" d="M53.207,49.797v-2.882c0-13.575-9.494-21.531-21.207-21.531c-11.711,0-21.206,7.956-21.206,21.531v2.882
		H53.207z"/>
	<rect x="26.768" y="10.136" fill="#94989B" width="10.465" height="4.068"/>
	<rect x="30.143" y="14.204" fill="#94989B" width="3.715" height="6.102"/>
	<rect x="30.143" y="14.204" fill="#3E4347" width="3.715" height="3.051"/>
	<rect x="26" y="19.796" fill="#B2C1C0" width="12" height="6.101"/>
	<rect x="28" y="19.796" fill="#DAE3EA" width="8" height="6.668"/>
	<g>
		<polygon fill="#42ADE2" points="51.131,2 42.182,16.792 56.729,6.437 		"/>
		<polygon fill="#42ADE2" points="12.865,2 21.818,16.792 7.274,6.437 		"/>
		<polygon fill="#42ADE2" points="48,22.848 59.545,16.792 62,22.848 		"/>
		<polygon fill="#42ADE2" points="16,22.848 4.455,16.792 2,22.848 		"/>
	</g>
</g>
</svg>
