<?xml version="1.0" encoding="utf-8"?>
<!-- Generator: Adobe Illustrator 15.0.0, SVG Export Plug-In . SVG Version: 6.00 Build 0)  -->
<!DOCTYPE svg PUBLIC "-//W3C//DTD SVG 1.1//EN" "http://www.w3.org/Graphics/SVG/1.1/DTD/svg11.dtd">
<svg version="1.1" id="Layer_1" xmlns="http://www.w3.org/2000/svg" xmlns:xlink="http://www.w3.org/1999/xlink" x="0px" y="0px"
	 width="64px" height="64px" viewBox="0 0 64 64" enable-background="new 0 0 64 64" xml:space="preserve">
<g>
	<g>
		<path fill="#3E4347" d="M30.495,9.056c0,0-2.576,1.106-5.488-1.669C23.284,5.744,20.442,4.436,19.163,4h-1.1
			c0,0-3.795,0-7.766,3.387C7.932,9.403,5.704,9.552,5.26,9.056h-1.1C2.79,12.177,0,11.806,0,11.806v30.393h34.214L31.594,9.056
			H30.495z"/>
		<path fill="#62696D" d="M31.594,9.056c0,0-2.576,1.106-5.488-1.669C22.555,4,19.163,4,19.163,4s-3.795,0-7.766,3.387
			C8.141,10.162,5.26,9.056,5.26,9.056c-1.371,3.122-4.16,2.75-4.16,2.75v30.393h34.214V11.806
			C35.314,11.806,32.819,12.177,31.594,9.056z"/>
		<polygon fill="#3E4347" points="1.1,35.51 22.491,46.957 22.491,56.025 1.1,42.199 		"/>
		<polygon fill="#62696D" points="22.491,56.025 64,49.037 64,41.012 22.491,46.957 		"/>
		<polygon fill="#62696D" points="21.502,55.389 21.903,59.592 22.491,60 22.491,56.025 		"/>
		<polygon fill="#3E4347" points="22.491,60 23.911,59.592 24.59,55.672 22.491,56.025 		"/>
		<polygon fill="#3E4347" points="63.559,52.977 63.559,49.111 60.871,49.564 61.771,53.273 		"/>
		<polygon fill="#3E4347" points="0.438,42.199 0.438,45.359 1.932,45.359 2.911,42.199 		"/>
	</g>
	<polygon fill="#94989B" points="1.1,35.51 22.491,46.957 64,41.012 35.021,30.976 	"/>
	<polygon fill="#DAE3EA" points="2.262,29.681 23.243,38.021 23.243,45.637 2.262,35.297 	"/>
	<polygon fill="#FFDD7D" points="23.243,45.637 61.895,40.451 61.895,33.713 23.243,38.021 	"/>
	<polygon fill="#FFFFFF" points="2.262,29.681 23.243,38.021 61.895,33.713 35.314,26.962 	"/>
	<path fill="#B2C1C0" d="M4.061,25.623c0,0,1.174,3.197,5.033,4.725c0,0,5.719-1.654,13.311-1.6c0,0-2.982-2.744-3.814-4.959
		C18.59,23.789,11.965,21.404,4.061,25.623z"/>
	<path fill="#B2C1C0" d="M21.446,24.234c0,0,0.797,3.197,3.416,4.725c0,0,3.879-1.654,9.029-1.602c0,0-2.023-2.744-2.587-4.955
		C31.303,22.402,26.809,20.015,21.446,24.234z"/>
	<path fill="#DAE3EA" d="M7.512,23.171c0,0,2.568,3.531,3.77,8.25c0,0,5.717-2.303,13.309-2.23c0,0-2.98-3.828-3.813-6.91
		C20.778,22.281,15.221,21.203,7.512,23.171z"/>
	<path fill="#DAE3EA" d="M22.614,22.185c0,0,2.297,3.158,3.369,7.377c0,0,5.113-2.061,11.898-1.992c0,0-2.664-3.424-3.408-6.18
		C34.473,21.39,29.504,20.425,22.614,22.185z"/>
	<path fill="#A53838" d="M11.795,39.994c0,0-0.576-4.166-0.27-5.449c0.209-0.877,1.162-2.247,1.707-2.676
		c1.408-1.113,6.271-1.521,6.271-1.521s17.71-2.498,23.544-2.27c0.873,0.033,3.332,1.604,3.332,1.604l-27.57,3.461l-2.979,5.34
		l-0.311,3.352L11.795,39.994z"/>
	<g>
		<polygon fill="#A53838" points="17.389,35.693 15.833,38.482 15.522,41.832 23.243,45.637 23.243,38.021 		"/>
		<polygon fill="#ED4C5C" points="23.243,38.021 23.243,45.637 61.895,40.451 61.895,33.713 		"/>
		<polygon fill="#C94747" points="17.389,35.693 23.243,38.021 61.895,33.713 46.137,29.71 18.811,33.143 		"/>
	</g>
	<path fill="#ED4C5C" d="M54.379,31.804c0,0-0.652-1.227-0.953-1.457c-0.354-0.273-1.566-0.365-1.566-0.365
		s-0.414-0.926-0.637-1.023c-0.471-0.211-1.908,0.723-1.908,0.723s-0.793-1.08-1.127-1.084c-7.307-0.037-22.609,1.75-29.71,3.895
		c-0.77,0.232-1.953,2.069-2.426,3.018c-0.984,1.973-2.314,6.637-2.617,9.068c-0.289,2.32,1.113,8.941,1.113,8.941
		s1.156-4.461,2.266-5.82c0.514-0.631,0.984,2.688,0.984,2.688s0.863-4.168,1.217-4.617c0.396-0.506,1.033,2.529,1.033,2.529
		s0.629-6.609,1.072-8.18c0.301-1.068,1.389-3.025,2.123-3.344c7.006-3.063,21.675-5.569,28.929-5.354
		C52.625,31.435,54.379,31.804,54.379,31.804z"/>
</g>
</svg>
