<?xml version="1.0" encoding="utf-8"?>
<!-- Generator: Adobe Illustrator 15.0.0, SVG Export Plug-In . SVG Version: 6.00 Build 0)  -->
<!DOCTYPE svg PUBLIC "-//W3C//DTD SVG 1.1//EN" "http://www.w3.org/Graphics/SVG/1.1/DTD/svg11.dtd">
<svg version="1.1" id="Layer_1" xmlns="http://www.w3.org/2000/svg" xmlns:xlink="http://www.w3.org/1999/xlink" x="0px" y="0px"
	 width="64px" height="64px" viewBox="0 0 64 64" enable-background="new 0 0 64 64" xml:space="preserve">
<g>
	<g>
		<g>
			<path fill="#666666" d="M10.419,34.188H9.218V11.587c0-1.647,0.792-4.763,3.792-4.763v1.291c-2.561,0-2.591,3.33-2.591,3.472
				V34.188z"/>
		</g>
		<path fill="#94989B" d="M21.644,6.988c-0.499-0.474-2.459-1.229-2.459-1.229L17.604,0.61c-0.187-0.717-1.942-0.816-3.922-0.224
			c-1.979,0.595-3.434,1.658-3.248,2.372l1.655,5.305c0,0-1.301,2.272-1.444,3.119c-0.265,1.561,0.615,6.302,0.615,6.302
			l13.958-4.186C25.218,13.299,22.958,8.236,21.644,6.988z"/>
		<g>
			<path fill="#3E4347" d="M12.089,8.063c0.25-0.635,0.747-1.151,1.296-1.555c0.555-0.406,1.188-0.689,1.834-0.911
				c0.65-0.2,1.328-0.351,2.016-0.359c0.679-0.005,1.4,0.109,1.95,0.521c-0.595-0.328-1.288-0.364-1.942-0.328
				c-0.662,0.048-1.314,0.19-1.946,0.404c-0.635,0.197-1.245,0.473-1.803,0.832C12.945,7.03,12.42,7.473,12.089,8.063z"/>
		</g>
		<path fill="#FFE62E" d="M25.218,13.299c0.361,1.397-2.469,3.465-6.323,4.62c-3.855,1.157-7.273,0.961-7.635-0.435
			c-0.361-1.395,2.47-3.464,6.324-4.619C21.438,11.708,24.855,11.904,25.218,13.299z"/>
		<path fill="#FFFFFF" d="M22.938,12.14c-1.405-0.116-3.305,0.113-5.331,0.722c-2.136,0.641-3.956,1.563-5.094,2.493
			c1.404,0.118,3.304-0.113,5.33-0.721C19.98,13.992,21.8,13.072,22.938,12.14z"/>
	</g>
	<g>
		<path fill="#42ADE2" d="M59.33,40.687c0,1.104-0.896,2-2,2H6.67c-1.104,0-2-0.896-2-2V27.65c0-1.104,0.896-2,2-2h50.66
			c1.104,0,2,0.896,2,2V40.687z"/>
		<path opacity="0.5" fill="#428BC1" d="M59.33,40.687c0,1.104-0.896,2-2,2H6.67c-1.104,0-2-0.896-2-2V27.65c0-1.104,0.896-2,2-2
			h50.66c1.104,0,2,0.896,2,2V40.687z"/>
		<path fill="#428BC1" d="M45,42.687H4.67V27.296C4.67,27.296,12.711,36.526,45,42.687z"/>
		<path fill="#42ADE2" d="M62.28,30.466c0-1.751-1.321-3.17-2.95-3.17l0,0c-1.629,0-2.949,1.419-2.949,3.17v12.419
			c0,1.752,1.32,3.171,2.949,3.171l0,0c1.629,0,2.95-1.419,2.95-3.171V30.466z"/>
		<path fill="#428BC1" d="M56.381,30.466v12.419c0,1.752,1.32,3.171,2.949,3.171l0,0c1.629,0,2.95-1.419,2.95-3.171
			C62.28,42.885,57.855,44.206,56.381,30.466z"/>
		<rect x="6.104" y="59.772" fill="#3E4347" width="3.933" height="4.228"/>
		<path fill="#428BC1" d="M45,59.772H3.974C1.779,59.772,0,57.86,0,55.501l0,0c0-2.359,1.779-4.271,3.974-4.271H45V59.772z"/>
		<path fill="#428BC1" d="M45,51.229H3.974C1.779,51.229,0,49.317,0,46.959l0,0c0-2.36,1.779-4.272,3.974-4.272H45V51.229z"/>
		<rect x="53.964" y="59.772" fill="#3E4347" width="3.932" height="4.228"/>
		<path fill="#428BC1" d="M19,51.229h41.026c2.194,0,3.974,1.912,3.974,4.271l0,0c0,2.359-1.779,4.271-3.974,4.271H19V51.229z"/>
		<path fill="#428BC1" d="M19,42.687h41.026c2.194,0,3.974,1.912,3.974,4.271l0,0c0,2.36-1.779,4.272-3.974,4.272H19V42.687z"/>
		<path fill="#42ADE2" d="M7.62,30.466c0-1.751-1.321-3.17-2.95-3.17l0,0c-1.629,0-2.949,1.419-2.949,3.17v12.419
			c0,1.752,1.32,3.171,2.949,3.171l0,0c1.629,0,2.95-1.419,2.95-3.171V30.466z"/>
		<path fill="#428BC1" d="M1.721,30.466v12.419c0,1.752,1.32,3.171,2.949,3.171l0,0c1.629,0,2.95-1.419,2.95-3.171
			C7.62,42.885,3.195,44.206,1.721,30.466z"/>
		<path fill="#42ADE2" d="M0.313,48.623C0.111,48.111,0,47.549,0,46.959l0,0c0-2.36,1.779-4.272,3.974-4.272H45
			C45,42.687,5.839,43.6,0.313,48.623z"/>
		<path fill="#42ADE2" d="M0.313,57.166C0.111,56.654,0,56.092,0,55.501l0,0c0-2.359,1.779-4.271,3.974-4.271H45
			C45,51.229,5.839,52.143,0.313,57.166z"/>
		<path fill="#42ADE2" d="M63.687,45.293C63.889,45.805,64,46.367,64,46.957l0,0c0,2.36-1.779,4.272-3.974,4.272H19
			C19,51.229,58.161,50.316,63.687,45.293z"/>
		<path fill="#42ADE2" d="M63.687,53.836C63.889,54.348,64,54.91,64,55.501l0,0c0,2.359-1.779,4.271-3.974,4.271H19
			C19,59.772,58.161,58.859,63.687,53.836z"/>
	</g>
	<g>
		<path fill="#C7E755" d="M60.369,26.206c0,0-2.941,2.549-3.399,3.765c-1.039,2.755-0.342,8.94,0,11.891
			c0.057,0.49,0.45,1.915,0.45,1.915s-3.405-0.924-4.567-1.057c-2.261-0.259-6.83,0.22-9.094,0c-1.024-0.1-4.046-0.793-4.046-0.793
			s2.601-1.185,3.124-1.981c1.621-2.474,1.862-8.876,2.129-11.89c0.037-0.411,0-1.652,0-1.652s2.209,0.71,2.971,0.793
			c2.248,0.246,6.784-0.151,9.033-0.396C57.826,26.707,60.369,26.206,60.369,26.206z"/>
		<path fill="#9DB730" d="M47.448,36.359c0.402-1.024,0.967-1.969,1.619-2.832c-0.045-0.218-0.093-0.426-0.16-0.639
			c-0.095-0.301-0.219-0.584-0.387-0.845c-0.33-0.523-0.856-0.921-1.444-1.192c0.628,0.102,1.277,0.343,1.806,0.836
			c0.264,0.241,0.492,0.532,0.683,0.842c0.046,0.073,0.087,0.155,0.131,0.233c0.779-0.869,1.649-1.638,2.601-2.263
			c1.043-0.687,2.163-1.246,3.353-1.531c-2.042,1.38-3.907,2.913-5.462,4.762c-0.781,0.917-1.464,1.922-2.053,2.999
			c-0.586,1.079-1.051,2.239-1.457,3.469C46.678,38.893,46.957,37.577,47.448,36.359z"/>
	</g>
</g>
</svg>
