<?xml version="1.0" encoding="utf-8"?>
<!-- Generator: Adobe Illustrator 15.0.0, SVG Export Plug-In . SVG Version: 6.00 Build 0)  -->
<!DOCTYPE svg PUBLIC "-//W3C//DTD SVG 1.1//EN" "http://www.w3.org/Graphics/SVG/1.1/DTD/svg11.dtd">
<svg version="1.1" id="Layer_1" xmlns="http://www.w3.org/2000/svg" xmlns:xlink="http://www.w3.org/1999/xlink" x="0px" y="0px"
	 width="64px" height="64px" viewBox="0 0 64 64" enable-background="new 0 0 64 64" xml:space="preserve">
<g>
	<circle fill="#0071BC" cx="32" cy="32" r="30"/>
	<path fill="#FFFFFF" d="M34.262,22.973c0,4.764,9.555,4.764,9.555,0c0-2.586,0-4.751,0-4.751h-9.555l-3.801,2.851h3.801
		C34.262,21.744,34.262,22.423,34.262,22.973z"/>
	<polygon fill="#FFFFFF" points="43.816,17.272 43.816,13.471 33.311,13.471 34.262,17.272 	"/>
	<polygon fill="#FFFFFF" points="24.639,25.61 14.32,23.424 14.32,33.259 24.639,35.444 	"/>
	<polygon fill="#FFFFFF" points="24.639,19.054 14.32,21.239 24.639,23.424 	"/>
	<g>
		<polygon fill="#FFFFFF" points="30.893,43.084 45.283,28.674 36.582,28.674 30.893,28.674 30.881,28.674 24.23,40.646 
			22.33,37.227 16.628,37.227 21.379,45.777 27.08,45.777 30.893,38.917 		"/>
		<polygon fill="#FFFFFF" points="32.57,43.805 47.684,43.805 47.684,28.674 		"/>
		<rect x="30.893" y="45.485" fill="#FFFFFF" width="16.791" height="5.044"/>
	</g>
</g>
</svg>
