<?xml version="1.0" encoding="utf-8"?>
<!-- Generator: Adobe Illustrator 15.0.0, SVG Export Plug-In . SVG Version: 6.00 Build 0)  -->
<!DOCTYPE svg PUBLIC "-//W3C//DTD SVG 1.1//EN" "http://www.w3.org/Graphics/SVG/1.1/DTD/svg11.dtd">
<svg version="1.1" id="Layer_1" xmlns="http://www.w3.org/2000/svg" xmlns:xlink="http://www.w3.org/1999/xlink" x="0px" y="0px"
	 width="64px" height="64px" viewBox="0 0 64 64" enable-background="new 0 0 64 64" xml:space="preserve">
<g>
	<g>
		<path fill="#94989B" d="M28.113,2c1.63,0.796,3.021,2.424,3.362,4.483c0.354,2.054-0.401,4.188-1.689,5.725
			c-0.924,1.091-1.383,2.487-1.408,4.059c-0.01,0.778,0.056,1.595,0.26,2.39c0.086,0.405,0.221,0.798,0.381,1.186
			c0.168,0.384,0.36,0.764,0.71,1.059c-0.471-0.043-0.901-0.342-1.255-0.654c-0.362-0.32-0.657-0.701-0.933-1.099
			c-0.514-0.81-0.896-1.719-1.08-2.691c-0.189-0.97-0.192-2.006,0.047-3.021c0.118-0.506,0.298-1.003,0.53-1.479
			c0.126-0.234,0.246-0.457,0.415-0.7c0.184-0.28,0.262-0.366,0.449-0.612c0.952-1.152,1.599-2.532,1.66-4.012
			C29.657,5.143,29.063,3.563,28.113,2z"/>
		<path fill="#94989B" d="M38.171,2c1.628,0.796,3.019,2.424,3.362,4.483c0.353,2.056-0.401,4.189-1.691,5.725
			c-0.923,1.091-1.383,2.487-1.408,4.059c-0.01,0.778,0.056,1.595,0.26,2.39c0.087,0.405,0.222,0.798,0.382,1.186
			c0.169,0.384,0.36,0.764,0.711,1.059c-0.472-0.043-0.901-0.342-1.255-0.654c-0.363-0.32-0.658-0.701-0.935-1.097
			c-0.514-0.812-0.896-1.721-1.079-2.693c-0.19-0.97-0.193-2.006,0.046-3.021c0.118-0.506,0.298-1.003,0.531-1.479
			c0.126-0.234,0.245-0.456,0.414-0.7c0.184-0.28,0.262-0.366,0.45-0.612c0.951-1.152,1.598-2.532,1.661-4.012
			C39.713,5.143,39.119,3.563,38.171,2z"/>
		<path fill="#94989B" d="M48.228,2c1.63,0.796,3.021,2.424,3.363,4.483c0.353,2.056-0.402,4.189-1.692,5.725
			c-0.923,1.091-1.382,2.487-1.406,4.059c-0.01,0.778,0.055,1.595,0.26,2.39c0.086,0.405,0.221,0.798,0.382,1.186
			c0.167,0.384,0.36,0.764,0.709,1.059c-0.47-0.043-0.9-0.342-1.255-0.654c-0.361-0.32-0.658-0.701-0.933-1.097
			c-0.514-0.812-0.896-1.721-1.079-2.693c-0.19-0.97-0.193-2.006,0.044-3.02c0.118-0.508,0.3-1.005,0.531-1.48
			c0.126-0.234,0.245-0.456,0.415-0.7c0.183-0.278,0.261-0.366,0.449-0.612c0.952-1.152,1.598-2.532,1.661-4.012
			C49.77,5.143,49.178,3.563,48.228,2z"/>
	</g>
	<g>
		<g>
			<path fill="#FFDD67" d="M50.924,36.383c2.18,3.65-4.203,6.561-7.848,6.561c-3.641,0-12.349-1.303-10.621-5.188
				c1.814-4.076,8.896-11.418,12.539-11.418C48.635,26.338,48.777,32.789,50.924,36.383z"/>
			<path fill="#EBA352" d="M45.352,31.915c-0.387,1.096-1.328,5.667-2.322,5.841"/>
		</g>
		<g>
			<path fill="#EBA352" d="M21.633,32.599L9.84,32.413c0,0,3.543,3.308,4.756,8.001l7.037-3.574
				C20.657,35.193,21.633,32.599,21.633,32.599z"/>
			<path fill="#231F20" d="M3.95,31.438c-3.51-5.908-1.207-8.179-1.207-8.179c0.545-4.383,9.176-7.85,12.588-7.151
				c6.982,1.428,6.285,7.626,5.361,7.955l-8.51,7.313c0,0,2.607,6.604,7.002,6.312l-8.514,5.061L3.95,31.438z"/>
			<path fill="#FFDD67" d="M20.176,34.445c-3.063,1.031-3.684,2.449-8.359-3.684l2.061-1.225c0,0,1.666-0.497,0.096-6.441
				c-0.709-2.693,0.914-5.99,2.357-4.899c2.998,2.269,2.18,3.976,2.996,4.61c1.486,1.156,2.502-0.004,3.043,1.023
				c0.291,0.554-0.668,1.239-0.609,1.412c0.15,0.434,0.57,0.424,1.234,0.45c0.662,0.025-0.025,0.855,0.732,1.744
				s1.07,1.21,1.07,1.21c-0.229,0.517-0.76,0.813-0.307,1.359C25.549,31.282,26.065,32.463,20.176,34.445z"/>
			<path fill="#EBA352" d="M18.631,23.359c-0.246-0.214-0.336-0.444-0.434-0.701c-0.092-0.26-0.186-0.542-0.342-0.835
				c-0.156-0.283-0.416-0.591-0.75-0.712c-0.324-0.127-0.641-0.084-0.893,0.049c0.289,0.106,0.545,0.203,0.73,0.352
				c0.186,0.147,0.318,0.33,0.443,0.567c0.137,0.229,0.252,0.506,0.445,0.772C18.006,23.116,18.325,23.389,18.631,23.359z"/>
			<g>
				<path fill="#FFDD67" d="M9.817,31.858c1.258,1.321,3.008,1.622,3.908,0.675c0.902-0.947,0.615-2.786-0.645-4.106
					c-1.258-1.318-3.008-1.622-3.908-0.674C8.27,28.701,8.559,30.539,9.817,31.858z"/>
				<path fill="#574137" d="M10.038,28.458c0.299-0.169,0.67-0.246,1.051-0.193c0.379,0.062,0.748,0.252,1.025,0.522
					c0.229,0.218,0.408,0.478,0.531,0.757c0.092-0.108,0.215-0.186,0.355-0.171c-0.08,0.195-0.064,0.347-0.053,0.496
					c0.02,0.148,0.045,0.291,0.09,0.425c0.039,0.135,0.094,0.256,0.166,0.38c0.074,0.124,0.186,0.246,0.359,0.39
					c-0.176,0.1-0.42,0.074-0.623-0.062c-0.207-0.131-0.348-0.354-0.422-0.579c-0.064-0.229-0.072-0.468,0.008-0.676
					c0.016-0.042,0.037-0.081,0.059-0.119c-0.529-0.394-1.01-0.725-1.52-0.789c-0.273-0.048-0.555-0.018-0.848,0.045
					c-0.289,0.065-0.582,0.176-0.91,0.265C9.491,28.86,9.735,28.623,10.038,28.458z"/>
			</g>
			<path fill="#C94747" d="M22.774,27.314c0.141-0.277,0.27-0.556,0.336-0.821c0.057-0.257,0.061-0.526-0.287-0.813
				c0.178-0.05,0.424,0.017,0.609,0.193c0.186,0.183,0.285,0.445,0.314,0.68c0.027,0.226,0.012,0.433-0.027,0.627
				c0.199,0.056,0.414,0.162,0.576,0.323c0.18,0.163,0.293,0.362,0.373,0.552c0.068,0.196,0.119,0.387,0.129,0.591
				c-0.324-0.241-0.596-0.5-0.832-0.59c-0.119-0.04-0.217-0.065-0.346-0.07c-0.127-0.009-0.271-0.005-0.424-0.001l-0.779,0.021
				L22.774,27.314z"/>
			<path fill="#574137" d="M15.348,24.063c0.371-0.068,0.676,0.033,1.021,0.077c0.342,0.062,0.699,0.104,1.074,0.087
				c0.371-0.02,0.771-0.103,1.104-0.345c0.338-0.23,0.555-0.636,0.537-1.049c-0.598,0.479-1.1,0.485-1.762,0.523
				c-0.324,0.02-0.674,0.029-1.033,0.106C15.95,23.534,15.508,23.675,15.348,24.063z"/>
		</g>
		<g>
			<g>
				<path fill="#C6BBB3" d="M13.075,57.475c0,2.5-0.893,4.525-2.879,4.525c-1.988,0-3.385-2.182-2.52-4.525
					c1.32-3.572,4.49-5.49,6.479-5.49C16.141,51.984,13.075,54.977,13.075,57.475z"/>
				<path fill="#C6BBB3" d="M50.926,57.475c0,2.5,0.893,4.525,2.879,4.525s3.385-2.182,2.52-4.525
					c-1.318-3.572-4.49-5.49-6.477-5.49C47.859,51.984,50.926,54.977,50.926,57.475z"/>
			</g>
			<path fill="#E2D8C7" d="M59.096,40.098c0,18.416-12.029,18.789-26.865,18.789c-14.836,0-26.865-0.373-26.865-18.789H59.096z"/>
			<rect x="5.366" y="40.961" fill="#C6BBB3" width="53.73" height="1.191"/>
			<path fill="#DDD3CA" d="M59.396,41.395H5.086c-4.115,0-4.115-4.754,0-4.754h54.31C62.867,36.641,62.867,41.395,59.396,41.395z"/>
		</g>
	</g>
</g>
</svg>
