<?xml version="1.0" encoding="utf-8"?>
<!-- Generator: Adobe Illustrator 15.0.0, SVG Export Plug-In . SVG Version: 6.00 Build 0)  -->
<!DOCTYPE svg PUBLIC "-//W3C//DTD SVG 1.1//EN" "http://www.w3.org/Graphics/SVG/1.1/DTD/svg11.dtd">
<svg version="1.1" id="Layer_1" xmlns="http://www.w3.org/2000/svg" xmlns:xlink="http://www.w3.org/1999/xlink" x="0px" y="0px"
	 width="64px" height="64px" viewBox="0 0 64 64" enable-background="new 0 0 64 64" xml:space="preserve">
<g>
	<path fill="#467591" d="M59.529,29.647c-1.229,0-2.234,1.006-2.234,2.234v1.766c0,1.229-1.005,2.234-2.233,2.234H8.939
		c-1.229,0-2.234-1.006-2.234-2.234V11.646c0-1.229-1.006-2.234-2.234-2.234H2.234C1.006,9.411,0,10.417,0,11.646v40.709
		c0,1.229,1.006,2.234,2.234,2.234h2.236c1.229,0,2.234-1.006,2.234-2.234v-1.766c0-1.23,1.005-2.236,2.234-2.236h46.122
		c1.229,0,2.233,1.006,2.233,2.236v1.766c0,1.229,1.006,2.234,2.234,2.234h2.236c1.229,0,2.234-1.006,2.234-2.234V31.882
		c0-1.229-1.006-2.234-2.234-2.234H59.529z"/>
	<circle fill="#467591" cx="13.856" cy="28.507" r="5.096"/>
	<path fill="#467591" d="M54.978,33.603H20.83v-5.096C20.83,28.507,29.628,13.411,54.978,33.603z"/>
</g>
</svg>
