<?xml version="1.0" encoding="utf-8"?>
<!-- Generator: Adobe Illustrator 15.0.0, SVG Export Plug-In . SVG Version: 6.00 Build 0)  -->
<!DOCTYPE svg PUBLIC "-//W3C//DTD SVG 1.1//EN" "http://www.w3.org/Graphics/SVG/1.1/DTD/svg11.dtd">
<svg version="1.1" id="Layer_1" xmlns="http://www.w3.org/2000/svg" xmlns:xlink="http://www.w3.org/1999/xlink" x="0px" y="0px"
	 width="64px" height="64px" viewBox="0 0 64 64" enable-background="new 0 0 64 64" xml:space="preserve">
<g>
	<rect x="2" y="49.565" fill="#42ADE2" width="60" height="12.435"/>
	<g>
		<rect x="50.285" y="42.514" fill="#3E4347" width="1.107" height="4.848"/>
		<rect x="59.198" y="42.514" fill="#3E4347" width="1.108" height="4.848"/>
		<rect x="54.742" y="42.514" fill="#3E4347" width="1.107" height="4.848"/>
		<polygon fill="#DAE3EA" points="44.667,27.693 28.04,27.693 22.497,37.387 50.285,45.866 		"/>
		<rect x="43.915" y="42.298" fill="#3E4347" width="17.043" height="1.211"/>
		<polygon fill="#C5D0D8" points="42.673,27.693 36.022,27.693 38.24,18 40.456,18 		"/>
		<polygon fill="#DAE3EA" points="25.683,32.54 2,32.54 8.259,41.744 10.038,40.298 6.411,34.963 10.798,34.963 10.798,39.81 
			13.016,39.81 13.016,34.963 16.872,34.963 16.872,39.81 19.089,39.81 19.089,34.963 25.683,34.963 		"/>
		<path fill="#3E4347" d="M47.188,45.866c-0.532,0-0.831,0.519-0.661,1.15l0.033,0.125c0.17,0.633,0.745,1.148,1.278,1.148h13.19
			c0.535,0,0.971-0.544,0.971-1.212l0,0c0-0.664-0.436-1.212-0.971-1.212H47.188z"/>
		<path fill="#F15744" d="M58.524,54.348c0,0-14.41,0-31.04,0c-12.541,0-22.17-16.961-22.17-16.961h17.183
			c22.17,0,27.561,10.903,33.673,10.903h4.572L58.524,54.348z"/>
		<path fill="#C94747" d="M14.616,48.695h7.866c11.359,0,18.311,2.861,23.212,5.652c2.961,0,5.546,0,7.603,0
			c-5.33-2.415-12.083-10.196-30.814-10.196H10.155C11.436,45.657,12.937,47.239,14.616,48.695z"/>
		<polygon fill="#3E4347" points="28.825,29.51 24.751,36.779 41.381,36.779 39.163,29.51 		"/>
		<path fill="#3E4347" d="M32.696,41.022c-0.608,0-1.108,0.546-1.108,1.211v2.422c0,0.667,0.5,1.211,1.108,1.211h2.217
			c0.61,0,1.109-0.544,1.109-1.211v-2.422c0-0.665-0.499-1.211-1.109-1.211H32.696z"/>
		<path fill="#3E4347" d="M26.045,41.022c-0.61,0-1.108,0.546-1.108,1.211v2.422c0,0.667,0.498,1.211,1.108,1.211h2.217
			c0.61,0,1.108-0.544,1.108-1.211v-2.422c0-0.665-0.498-1.211-1.108-1.211H26.045z"/>
		<path fill="#DAE3EA" d="M44.891,22.847c0-0.665-0.498-1.212-1.107-1.212h-8.87c-0.609,0-1.107,0.547-1.107,1.212l0,0
			c0,0.667,0.498,1.211,1.107,1.211h8.87C44.393,24.058,44.891,23.514,44.891,22.847L44.891,22.847z"/>
	</g>
</g>
</svg>
