<?xml version="1.0" encoding="utf-8"?>
<!-- Generator: Adobe Illustrator 15.0.0, SVG Export Plug-In . SVG Version: 6.00 Build 0)  -->
<!DOCTYPE svg PUBLIC "-//W3C//DTD SVG 1.1//EN" "http://www.w3.org/Graphics/SVG/1.1/DTD/svg11.dtd">
<svg version="1.1" id="Layer_1" xmlns="http://www.w3.org/2000/svg" xmlns:xlink="http://www.w3.org/1999/xlink" x="0px" y="0px"
	 width="64px" height="64px" viewBox="0 0 64 64" enable-background="new 0 0 64 64" xml:space="preserve">
<g>
	<g>
		<g>
			<g>
				<path fill="#42ADE2" d="M32.861,11.026c0,0-2.542-1.17-4.589-2.112c-2.046-0.942-2.563-2.093-1.146-2.553
					c1.417-0.464,4.684-0.739,7.259-0.611c1.17,0.058,4.68,0.229,4.68,0.229c2.576,0.127,2.751,0.958,0.389,1.845L32.861,11.026z"/>
				<path fill="#DAE3EA" d="M8.328,20.389c0,0-2.561,1.016-2.849,2.151C5.203,23.633,4.34,37.307,62.204,5.022
					c3.436-1.917,1.68-3.982-3.031-4.514C44.96-1.095,48.452-0.006,8.328,20.389z"/>
				<path fill="#42ADE2" d="M21.059,13.818c0,0-12.821-3.814-17.04-5.238C1.36,7.684,0,10.639,0,10.639S4.96,22.807,5.479,22.54
					l15.477-7.848C21.476,14.426,21.522,14.032,21.059,13.818z"/>
				<path fill="#C5D0D8" d="M34.77,25.525c0,0-10.405,0.879-17.545,8.076c-0.409,0.411-1.249,1.497,0.081,2.111
					c2.541,0.712,8.41,1.28,18.369-3.484L34.77,25.525z"/>
				<path fill="#94989B" d="M35.911,32.064c-0.873,0.306-1.931-0.898-2.354-2.675c-0.424-1.778-0.064-3.473,0.81-3.778
					c0.875-0.301,1.929,0.895,2.351,2.674C37.146,30.065,36.787,31.762,35.911,32.064z"/>
				<path fill="#42ADE2" d="M33.259,15.225c-2.529,1.129-3.698,1.722-5.114,4.003L17.762,34.844c-1.416,2.281-0.426,3.445,2.2,2.588
					c2.627-0.858,6.199-3.245,7.941-5.302l16.549-19.566c1.742-2.057,1.098-2.82-1.432-1.691L33.259,15.225z"/>
				<path fill="#3E4347" d="M35.058,29.617c-0.305-1.282-0.938-2.251-1.594-2.585c-0.129,0.671-0.11,1.503,0.094,2.358
					c0.305,1.281,0.939,2.254,1.598,2.588C35.284,31.305,35.265,30.473,35.058,29.617z"/>
				<path fill="#3E4347" d="M54.404,0.733c-0.452,0.754-3.236,3.075-3.236,3.075s0.542,0.857,2.052,0.428
					c1.306-0.369,2.598-1.637,3.334-3.024L54.404,0.733z"/>
			</g>
			<g>
				<circle fill="#3E4347" cx="21.287" cy="17.427" r="0.951"/>
				<circle fill="#3E4347" cx="24.912" cy="15.558" r="0.952"/>
				<circle fill="#3E4347" cx="28.537" cy="13.688" r="0.952"/>
				<circle fill="#3E4347" cx="32.162" cy="11.819" r="0.952"/>
				<circle fill="#3E4347" cx="35.787" cy="9.949" r="0.952"/>
				<circle fill="#3E4347" cx="39.412" cy="8.08" r="0.951"/>
				<circle fill="#3E4347" cx="43.037" cy="6.21" r="0.952"/>
			</g>
		</g>
	</g>
	<ellipse fill="#94989B" cx="32.001" cy="61.5" rx="24.553" ry="2.5"/>
</g>
</svg>
