<?xml version="1.0" encoding="utf-8"?>
<!-- Generator: Adobe Illustrator 15.0.0, SVG Export Plug-In . SVG Version: 6.00 Build 0)  -->
<!DOCTYPE svg PUBLIC "-//W3C//DTD SVG 1.1//EN" "http://www.w3.org/Graphics/SVG/1.1/DTD/svg11.dtd">
<svg version="1.1" id="Layer_1" xmlns="http://www.w3.org/2000/svg" xmlns:xlink="http://www.w3.org/1999/xlink" x="0px" y="0px"
	 width="64px" height="64px" viewBox="0 0 64 64" enable-background="new 0 0 64 64" xml:space="preserve">
<g>
	<path fill="#C7E755" d="M0,22.167c0,0,1.88-5.412,4.645-7.064c6.417-3.834,3.813,10.27,13.479,5.02
		c3.783-2.055,4.708,4.616,6.886,5.123c4.745,1.104,17.321,0.551,17.321,0.551s2.357-3.896,4.67-4.314
		c4.25-0.767,3.498-6.038,6.893-7.572c2.338-1.056,4.25,1.304,7.313,0.077C62.536,13.455,63.999,10,63.999,10v18.384L0,29.876
		V22.167z"/>
	<polygon fill="#666666" points="36.999,24.739 27,24.739 0,54.186 0,64 63.999,64 63.999,54.186 	"/>
	<g>
		<g>
			<g>
				<rect x="26.336" y="27.717" fill="#594640" width="11.327" height="0.317"/>
				<rect x="27.397" y="26.387" fill="#594640" width="9.205" height="0.253"/>
				<rect x="28.309" y="25.246" fill="#594640" width="7.382" height="0.253"/>
				<rect x="23.218" y="31.618" fill="#594640" width="17.564" height="0.498"/>
				<rect x="25.01" y="29.379" fill="#594640" width="13.979" height="0.497"/>
			</g>
			<g>
				<polygon fill="#DBB471" points="36.603,26.387 36.085,25.753 27.915,25.753 27.397,26.387 				"/>
				<polygon fill="#DBB471" points="37.663,27.717 37.005,26.894 26.995,26.894 26.336,27.717 				"/>
				<polygon fill="#DBB471" points="35.69,25.246 35.284,24.739 28.716,24.739 28.309,25.246 				"/>
				<polygon fill="#DBB471" points="40.782,31.618 39.782,30.375 24.217,30.375 23.218,31.618 				"/>
				<polygon fill="#DBB471" points="38.989,29.379 38.192,28.385 25.807,28.385 25.01,29.379 				"/>
			</g>
		</g>
		<g>
			<g>
				<rect x="15.312" y="41.511" fill="#594640" width="33.377" height="0.934"/>
				<rect x="18.437" y="37.592" fill="#594640" width="27.127" height="0.746"/>
				<rect x="21.124" y="34.23" fill="#594640" width="21.752" height="0.748"/>
				<rect y="60.702" fill="#594640" width="63.999" height="1.833"/>
				<rect x="6.124" y="53.006" fill="#594640" width="51.752" height="1.465"/>
				<rect x="11.405" y="46.408" fill="#594640" width="41.189" height="1.467"/>
			</g>
			<g>
				<polygon fill="#DBB471" points="45.563,37.592 44.034,35.725 19.965,35.725 18.437,37.592 				"/>
				<polygon fill="#DBB471" points="48.688,41.511 46.743,39.084 17.257,39.084 15.312,41.511 				"/>
				<polygon fill="#DBB471" points="42.876,34.23 41.677,32.738 22.323,32.738 21.124,34.23 				"/>
				<polygon fill="#DBB471" points="57.876,53.006 54.931,49.34 9.069,49.34 6.124,53.006 				"/>
				<polygon fill="#DBB471" points="60.196,55.938 3.804,55.938 0,60.702 63.999,60.702 				"/>
				<polygon fill="#DBB471" points="52.595,46.408 50.249,43.477 13.751,43.477 11.405,46.408 				"/>
			</g>
			<polygon fill="#666666" points="11.031,64 30.147,24.739 29.999,24.739 11.031,61.068 			"/>
			<rect x="7.031" y="61.068" fill="#3E4347" width="4.031" height="2.932"/>
			<g>
				<polygon fill="#E6E6E6" points="29.604,24.739 7,61.068 11.031,61.068 29.999,24.739 				"/>
				<g>
					<polygon fill="#666666" points="52.968,64 33.851,24.739 33.999,24.739 52.968,61.068 					"/>
					<polygon fill="#E6E6E6" points="34.396,24.739 56.999,61.068 52.968,61.068 33.999,24.739 					"/>
					<rect x="52.937" y="61.068" fill="#3E4347" width="4.031" height="2.932"/>
				</g>
			</g>
		</g>
	</g>
	<path fill="#83BF4F" d="M27,24.739c0,0-4.747-1.776-6.73-0.782c-3.188,1.599-2.788-3.506-5.411-4.635
		c-2.787-1.2-6.089,3.255-8.827,2.948C2.622,21.888,0,16.033,0,16.033v38.153L27,24.739z"/>
	<path fill="#83BF4F" d="M36.999,24.739c0,0,3.883-0.641,4.957-1.855c0.953-1.076,2.834-4.171,4.906-4.332
		c2.564-0.198,5.416,2.838,6.949,2.876c1.592,0.038,1.094-4.545,5.145-5.395c3.166-0.665,5.043,3.476,5.043,3.476v34.677
		L36.999,24.739z"/>
</g>
</svg>
