<?xml version="1.0" encoding="utf-8"?>
<!-- Generator: Adobe Illustrator 15.0.0, SVG Export Plug-In . SVG Version: 6.00 Build 0)  -->
<!DOCTYPE svg PUBLIC "-//W3C//DTD SVG 1.1//EN" "http://www.w3.org/Graphics/SVG/1.1/DTD/svg11.dtd">
<svg version="1.1" id="Layer_1" xmlns="http://www.w3.org/2000/svg" xmlns:xlink="http://www.w3.org/1999/xlink" x="0px" y="0px"
	 width="64px" height="64px" viewBox="0 0 64 64" enable-background="new 0 0 64 64" xml:space="preserve">
<g>
	<g>
		<g>
			<g>
				<path fill="#3E4347" d="M30.608,26.304c0.656,1.01,0.545,2.255-0.254,2.779c-0.801,0.526-1.98,0.135-2.639-0.875
					c-0.66-1.01-0.548-2.256,0.25-2.78C28.764,24.901,29.944,25.293,30.608,26.304z"/>
				<path fill="#42ADE2" d="M30.708,17.295c0,0-1.406-2.149-2.537-3.881c-1.129-1.732-0.978-2.875,0.343-2.542
					c1.317,0.333,3.978,1.719,5.909,3.075c0.873,0.617,3.507,2.469,3.507,2.469c1.932,1.355,1.667,2.086-0.584,1.619L30.708,17.295z
					"/>
				<path fill="#3E4347" d="M34.474,26.663c0.658,1.011,0.545,2.256-0.254,2.78c-0.799,0.526-1.981,0.133-2.639-0.875
					c-0.659-1.011-0.547-2.256,0.252-2.779C32.63,25.262,33.812,25.653,34.474,26.663z"/>
				<path fill="#3E4347" d="M55.534,29.188c0.656,1.01,0.545,2.256-0.254,2.78c-0.8,0.526-1.981,0.135-2.638-0.875
					c-0.66-1.009-0.548-2.256,0.25-2.78C53.69,27.787,54.872,28.176,55.534,29.188z"/>
				<g>
					<path fill="#94989B" d="M54.949,30.05c-0.175-2.216-0.35-4.429-0.524-6.646c-0.091-1.119-1.816-0.936-1.729,0.177
						c0.174,2.215,0.35,4.431,0.526,6.646C53.31,31.347,55.038,31.164,54.949,30.05L54.949,30.05z"/>
				</g>
				<path fill="#DAE3EA" d="M3.775,12.262c0,0-2.713-1.324-3.423-0.005c-1.76,3.269,0.846,11.939,61.12,15.181
					c3.577,0.193,3.21-2.268-0.177-4.98C51.074,14.264,65.566,17.604,3.775,12.262z"/>
				<path fill="#3E4347" d="M57.5,20.297c-0.714,0.365-3.98,0.805-3.98,0.805s0.005,0.928,1.38,1.333
					c1.188,0.354,2.793,0.003,4.031-0.715L57.5,20.297z"/>
				<path fill="#42ADE2" d="M16.779,13.388c0,0-8.085-9.229-10.663-12.394C4.491-1.003,2.019,0.626,2.019,0.626
					S-0.112,12.332,0.42,12.377l15.862,1.638C16.813,14.065,17.037,13.78,16.779,13.388z"/>
				<path fill="#3E4347" d="M38.339,27.024c0.658,1.008,0.547,2.256-0.252,2.778c-0.799,0.526-1.982,0.133-2.639-0.873
					c-0.661-1.011-0.549-2.258,0.251-2.782C36.497,25.62,37.677,26.013,38.339,27.024z"/>
				<path fill="#94989B" d="M37.158,27.613c-1.92-1.742-3.843-3.484-5.763-5.227c-0.207-0.189-0.561-0.078-0.668,0.166
					c-0.654,1.511-1.311,3.021-1.966,4.532c-0.04,0.095-0.038,0.182-0.02,0.263c0.017,0.167,0.125,0.317,0.348,0.335
					c2.575,0.232,5.152,0.464,7.728,0.696C37.259,28.418,37.483,27.909,37.158,27.613z"/>
				<path fill="#C5D0D8" d="M25.217,29.479c0,0-8.472-4.405-17.452-2.315c-0.514,0.12-1.687,0.553-0.951,1.678
					c1.623,1.795,5.891,5.107,15.884,6.277L25.217,29.479z"/>
				<path fill="#94989B" d="M22.957,35.109c-0.821-0.189-1.06-1.642-0.536-3.226c0.526-1.589,1.619-2.729,2.441-2.537
					c0.822,0.195,1.063,1.637,0.536,3.225C24.874,34.163,23.78,35.303,22.957,35.109z"/>
				<path fill="#3E4347" d="M23.473,32.792c0.38-1.142,0.356-2.205,0.01-2.783c-0.423,0.456-0.806,1.11-1.062,1.875
					c-0.38,1.142-0.354,2.208-0.008,2.788C22.836,34.215,23.222,33.561,23.473,32.792z"/>
				<path fill="#42ADE2" d="M28.997,20.747c-2.498-0.361-3.688-0.472-5.879,0.606L7.583,28.391c-2.193,1.08-1.986,2.466,0.457,3.085
					c2.446,0.62,6.355,0.512,8.691-0.232l22.203-7.088c2.335-0.744,2.202-1.651-0.299-2.013L28.997,20.747z"/>
			</g>
			<g>
				<circle fill="#3E4347" cx="19.29" cy="17.419" r="0.868"/>
				<path fill="#3E4347" d="M23.068,16.857c-0.478-0.041-0.897,0.316-0.938,0.794c-0.038,0.477,0.32,0.897,0.798,0.936
					c0.476,0.041,0.896-0.317,0.936-0.795C23.902,17.315,23.547,16.895,23.068,16.857z"/>
				<circle fill="#3E4347" cx="26.707" cy="18.024" r="0.868"/>
				<circle fill="#3E4347" cx="30.414" cy="18.328" r="0.868"/>
				<circle fill="#3E4347" cx="34.125" cy="18.63" r="0.868"/>
				<circle fill="#3E4347" cx="37.831" cy="18.933" r="0.868"/>
				<path fill="#3E4347" d="M41.61,18.369c-0.477-0.04-0.897,0.318-0.937,0.796c-0.038,0.477,0.317,0.896,0.796,0.935
					c0.476,0.04,0.896-0.316,0.937-0.794C42.445,18.829,42.088,18.41,41.61,18.369z"/>
				<circle fill="#3E4347" cx="45.248" cy="19.538" r="0.867"/>
			</g>
		</g>
	</g>
	<ellipse fill="#94989B" cx="31.3" cy="61.499" rx="24.553" ry="2.501"/>
</g>
</svg>
