<?xml version="1.0" encoding="utf-8"?>
<!-- Generator: Adobe Illustrator 15.0.0, SVG Export Plug-In . SVG Version: 6.00 Build 0)  -->
<!DOCTYPE svg PUBLIC "-//W3C//DTD SVG 1.1//EN" "http://www.w3.org/Graphics/SVG/1.1/DTD/svg11.dtd">
<svg version="1.1" id="Layer_1" xmlns="http://www.w3.org/2000/svg" xmlns:xlink="http://www.w3.org/1999/xlink" x="0px" y="0px"
	 width="64px" height="64px" viewBox="0 0 64 64" enable-background="new 0 0 64 64" xml:space="preserve">
<g>
	<g>
		<g>
			<path fill="#94989B" d="M20.902,50.885l29.984-29.984c3.478,0.846,7.295-0.092,10.01-2.803c2.714-2.715,3.646-6.534,2.804-10.007
				l-8.655,8.656L48.901,15.1l-1.647-6.147l8.655-8.652c-3.476-0.845-7.294,0.09-10.006,2.806
				c-2.715,2.712-3.648,6.531-2.807,10.005L13.112,43.098c-3.477-0.844-7.295,0.09-10.007,2.805c-4.142,4.139-4.141,10.852,0,14.992
				c4.14,4.141,10.852,4.141,14.991,0C20.811,58.18,21.744,54.361,20.902,50.885z M12.248,59.543l-6.146-1.646L4.456,51.75
				l4.499-4.496l6.144,1.645l0,0l1.646,6.146L12.248,59.543z"/>
		</g>
	</g>
	<g>
		<polygon fill="#3E4347" points="28.791,21.93 23.209,27.685 17.661,21.961 23.24,16.207 		"/>
		<g>
			<path fill="#94989B" d="M16.716,5.067L6.861,15.231c-0.36,0.371-0.36,0.975,0,1.346l3.665,3.781l0.043,0.045l3.665,3.781
				c0.36,0.371,0.946,0.371,1.306,0l9.854-10.165c0.36-0.372,0.36-0.974,0-1.347L18.02,5.067
				C17.659,4.696,17.076,4.696,16.716,5.067z"/>
			<path fill="#94989B" d="M0.27,22.03c-0.36,0.371-0.36,0.975,0,1.346l7.375,7.607c0.358,0.371,0.944,0.371,1.305,0
				c0,0,2.033-2.122,2.077-2.178L2.38,19.887C2.326,19.932,0.27,22.03,0.27,22.03z"/>
			<path fill="#3E4347" d="M10.526,20.358l-3.665-3.781c0,0,1.206,2.111-1.958,2.491c-1.273,0.153-2.071,0.441-2.523,0.819
				l8.646,8.918c0.366-0.467,0.646-1.289,0.793-2.603c0.371-3.265,2.415-2.019,2.415-2.019l-3.665-3.781L10.526,20.358z"/>
		</g>
		<path fill="#3E4347" d="M39.572,4.288C29.512-6.007,18.411,5.471,18.411,5.471l6.542,6.746c0,0,6.29-8.465,14.242-6.124
			c0.925,0.272,1.747,0.74,1.981,0.501C41.493,6.268,40.282,5.015,39.572,4.288z"/>
		<path fill="#F2B200" d="M25.999,24.807l-3.608,3.724c0,0,1.864,2.999,5.063,6.297c3.529,3.641,8.194,5.684,12.853,10.488
			c7.006,7.227,12.835,14.986,14.948,17.898c0.798,1.1,0.925,0.996,1.899-0.01l3.038-3.133L25.999,24.807z"/>
		<path fill="#FFCE31" d="M25.999,24.807l3.61-3.723c0,0,2.908,1.923,6.106,5.221c3.531,3.641,5.511,8.453,10.169,13.257
			c7.006,7.227,14.529,13.238,17.354,15.418c1.064,0.822,0.965,0.951-0.011,1.959l-3.037,3.133L25.999,24.807z"/>
	</g>
</g>
</svg>
