<?xml version="1.0" encoding="utf-8"?>
<!-- Generator: Adobe Illustrator 15.0.0, SVG Export Plug-In . SVG Version: 6.00 Build 0)  -->
<!DOCTYPE svg PUBLIC "-//W3C//DTD SVG 1.1//EN" "http://www.w3.org/Graphics/SVG/1.1/DTD/svg11.dtd">
<svg version="1.1" id="Layer_1" xmlns="http://www.w3.org/2000/svg" xmlns:xlink="http://www.w3.org/1999/xlink" x="0px" y="0px"
	 width="64px" height="64px" viewBox="0 0 64 64" enable-background="new 0 0 64 64" xml:space="preserve">
<g>
	<polyline fill="#FFCE31" points="43.354,25.145 57.806,23.388 43.845,28.478 	"/>
	<path fill="#B2C1C0" d="M44.386,24.505c0,0-5.203-0.227-9.289,3.21V32c0,0,5.16,0,9.289-3.213c0.457-0.354,1.033-0.958,1.033-2.141
		C45.419,25.464,44.958,24.505,44.386,24.505z"/>
	<polygon fill="#42ADE2" points="9.291,25.125 17.548,41.375 30.581,37.157 13.419,23.875 	"/>
	<polygon fill="#428BC1" points="13.419,17.625 13.419,23.875 9.291,25.125 11.355,18.875 	"/>
	<ellipse fill="#3E4347" cx="35.096" cy="30.125" rx="1.032" ry="2.5"/>
	<path fill="#DAE3EA" d="M50.581,17.625l-5.656,9.789c0,0-23.3,6.491-31.509,9.321c-8.21,2.832-5.402,5.668-11.356,11.42
		c-6.755,6.529,2.738,6.905,33.947-5.64c2.797-1.122,4.215-5.723,8.678-8.643c4.803-3.142,8.992-4.373,8.992-4.373l3.098-14.375
		L50.581,17.625z"/>
	<polygon fill="#42ADE2" points="51.612,10.125 47.483,11.375 50.581,17.938 59.753,20.125 63.999,17.228 56.774,15.125 	"/>
	<polygon fill="#42ADE2" points="21.323,46.479 59.87,53.875 63.999,50.979 37.161,39.501 	"/>
	<polygon fill="#428BC1" points="63.999,43.874 63.999,50.979 59.87,53.875 61.995,45.186 	"/>
	<path fill="#3E4347" d="M8.161,39.664c-1.207,1.237-1.731,2.625-2.762,4.338c0.945,1.062,2.329,1.748,3.891,1.748
		c2.851,0,5.161-2.238,5.161-5c0,0-2.323,0-3.097,0C10.145,40.75,9.04,40.34,8.161,39.664z"/>
	<path fill="#DAE3EA" d="M10.373,49.3l-0.956,0.2c-0.599-6.489,1.113-9.861,1.184-9.999l0.75,0.968l-0.373-0.488l0.377,0.481
		C11.341,40.494,9.839,43.509,10.373,49.3z"/>
	<ellipse fill="#3E4347" cx="21.677" cy="40.75" rx="1.032" ry="1.875"/>
	<ellipse fill="#3E4347" cx="25.807" cy="39.501" rx="1.032" ry="1.874"/>
	<ellipse fill="#3E4347" cx="29.936" cy="38.25" rx="1.032" ry="1.874"/>
	<polyline fill="#FFCE31" points="51.612,30.041 63.999,26.707 52.103,33.374 	"/>
	<g>
		<path fill="#B2C1C0" d="M51.612,29.505c0,0-5.203-0.264-9.291,3.748v4.997c0,0,5.162,0,9.291-3.747
			c0.455-0.415,1.033-1.121,1.033-2.5C52.646,30.623,52.183,29.505,51.612,29.505z"/>
		<ellipse fill="#3E4347" cx="42.322" cy="35.75" rx="1.032" ry="2.5"/>
	</g>
</g>
</svg>
