<?xml version="1.0" encoding="utf-8"?>
<!-- Generator: Adobe Illustrator 15.0.0, SVG Export Plug-In . SVG Version: 6.00 Build 0)  -->
<!DOCTYPE svg PUBLIC "-//W3C//DTD SVG 1.1//EN" "http://www.w3.org/Graphics/SVG/1.1/DTD/svg11.dtd">
<svg version="1.1" id="Layer_1" xmlns="http://www.w3.org/2000/svg" xmlns:xlink="http://www.w3.org/1999/xlink" x="0px" y="0px"
	 width="64px" height="64px" viewBox="0 0 64 64" enable-background="new 0 0 64 64" xml:space="preserve">
<g>
	<path fill="#699635" d="M0,20.383c0,0,1.881-3.737,4.645-5.545c6.418-4.199,4.813,9.056,14.48,3.307
		c3.783-2.25,4.707,2.864,6.885,3.419c4.746,1.209,12.322,0.604,12.322,0.604s11.25-2.357,14.813-5.228
		c3.034-2.444,5,0.21,8.063-1.132C62.537,15.222,64,15.82,64,15.82v15.751H0V20.383z"/>
	<path fill="#83BF4F" d="M27,21.008c0,0-6.797,0.349-12.141-3.742c-3.652-2.795-5.527,5.418-8.828,5.418
		C2.602,22.685,0,18.045,0,18.045v35.207L27,21.008z"/>
	<path fill="#83BF4F" d="M37,21.008c0,0,2.471,0.527,9.395-2.636c3.225-1.473,4.128,5.687,5.938,5.735
		c1.592,0.041,4.25-3.75,6.625-3.873C62.188,20.069,64,21.851,64,21.851v31.401L37,21.008z"/>
	<polygon fill="#FFDD7D" points="38.146,21.008 25.854,21.008 0,46.129 0,64 64,64 64,46.129 	"/>
	<polygon fill="#666666" points="37,21.008 27,21.008 0,52.157 0,64 64,64 64,52.157 	"/>
	<polygon fill="#FFFFFF" points="64,58.04 64,54.348 36.598,21.008 36.176,21.008 	"/>
	<polygon fill="#FFFFFF" points="0,58.04 0,54.348 27.402,21.008 27.824,21.008 	"/>
	<g>
		<polygon fill="#FFFFFF" points="33.807,64 30.195,64 30.612,52.133 33.389,52.133 		"/>
		<polygon fill="#FFFFFF" points="33.147,45.285 30.854,45.285 31.206,35.258 32.795,35.258 		"/>
		<polygon fill="#FFFFFF" points="32.709,32.835 31.291,32.835 31.444,28.493 32.557,28.493 		"/>
		<polygon fill="#FFFFFF" points="32.514,27.265 31.487,27.265 31.572,24.848 32.428,24.848 		"/>
		<polygon fill="#FFFFFF" points="32.402,24.107 31.599,24.107 31.652,22.568 32.348,22.568 		"/>
		<polygon fill="#FFFFFF" points="32.331,22.074 31.67,22.072 31.707,21.008 32.293,21.008 		"/>
	</g>
</g>
</svg>
