<?xml version="1.0" encoding="utf-8"?>
<!-- Generator: Adobe Illustrator 15.0.0, SVG Export Plug-In . SVG Version: 6.00 Build 0)  -->
<!DOCTYPE svg PUBLIC "-//W3C//DTD SVG 1.1//EN" "http://www.w3.org/Graphics/SVG/1.1/DTD/svg11.dtd">
<svg version="1.1" id="Layer_1" xmlns="http://www.w3.org/2000/svg" xmlns:xlink="http://www.w3.org/1999/xlink" x="0px" y="0px"
	 width="64px" height="64px" viewBox="0 0 64 64" enable-background="new 0 0 64 64" xml:space="preserve">
<g>
	<path fill="#728084" d="M35.751,23.688h17.941C53.313,14.926,50.362,9,50.362,9s-5.566,0.795-9.535,0
		c-1.791-0.359-3.58-1.196-5.076-2.063V23.688z"/>
	<path fill="#728084" d="M28.249,23.688V6.938C26.752,7.805,24.967,8.641,23.174,9c-3.969,0.795-9.535,0-9.535,0
		s-2.951,5.926-3.332,14.688H28.249z"/>
	<path fill="#728084" d="M28.249,31.089H10.635c0.051,0.381,0.107,0.764,0.17,1.15c1.84,11.293,11.865,20.688,17.443,25.131V31.089z
		"/>
	<path fill="#728084" d="M35.751,31.089v26.284c5.578-4.445,15.605-13.838,17.445-25.133c0.063-0.387,0.117-0.77,0.168-1.15H35.751z
		"/>
	<g opacity="0.3">
		<g>
			<path fill="#B0BDC6" d="M36.54,22.711h17.941c-0.379-8.763-3.33-14.688-3.33-14.688s-5.566,0.796-9.535,0
				c-1.791-0.359-3.58-1.195-5.076-2.062V22.711z"/>
			<path fill="#B0BDC6" d="M27.459,22.711V5.961c-1.496,0.866-3.283,1.702-5.076,2.062c-3.969,0.796-9.533,0-9.533,0
				s-2.953,5.926-3.332,14.688H27.459z"/>
		</g>
		<path fill="#B0BDC6" d="M27.459,31.755H9.846c0.051,0.381,0.105,0.764,0.168,1.15c1.84,11.295,11.867,20.688,17.445,25.133V31.755
			z"/>
		<path fill="#B0BDC6" d="M36.54,31.755v26.284c5.578-4.445,15.605-13.838,17.445-25.133c0.063-0.387,0.117-0.77,0.168-1.15H36.54z"
			/>
	</g>
	<rect x="28" y="3.793" fill="#89969B" width="8" height="57.244"/>
	<rect x="29" y="3.793" fill="#B0BDC6" width="6" height="57.244"/>
	<rect x="8.821" y="23.256" fill="#89969B" width="46.36" height="8"/>
	<rect x="8.821" y="24.256" fill="#B0BDC6" width="46.36" height="6"/>
	<g>
		<g opacity="0.2">
			<path d="M31.998,60.801c-0.309,0-0.617-0.09-0.889-0.268c-0.754-0.496-18.51-12.344-21.068-28.268
				C7.914,19.009,12.71,9.064,12.914,8.647c0.314-0.638,0.998-0.999,1.691-0.901c0.023,0.003,2.301,0.327,4.854,0.327
				c1.467,0,2.729-0.104,3.746-0.311c3.758-0.763,7.695-4.135,7.734-4.168c0.609-0.527,1.51-0.528,2.122,0.001
				c0.039,0.032,3.973,3.404,7.73,4.168c1.02,0.207,2.277,0.311,3.746,0.311c2.551,0,4.832-0.324,4.855-0.327
				c0.697-0.102,1.377,0.263,1.691,0.901c0.205,0.417,5,10.361,2.871,23.618c-2.557,15.923-20.313,27.771-21.069,28.267
				C32.617,60.711,32.31,60.801,31.998,60.801z M15.392,11.178c-1.092,2.771-3.699,10.753-2.123,20.554
				c2.014,12.545,15.164,22.817,18.729,25.395c3.569-2.578,16.717-12.85,18.731-25.395c1.572-9.8-1.031-17.781-2.123-20.554
				c-0.99,0.1-2.469,0.213-4.068,0.213c-1.684,0-3.158-0.126-4.387-0.376c-3.314-0.674-6.539-2.835-8.153-4.051
				c-1.611,1.216-4.834,3.377-8.146,4.051c-1.23,0.25-2.707,0.376-4.391,0.376C17.861,11.391,16.38,11.277,15.392,11.178z"/>
		</g>
		<g>
			<g>
				<path fill="#B0BDC6" d="M31.998,64c-0.344,0-0.686-0.1-0.986-0.297c-0.84-0.553-20.564-13.715-23.408-31.407
					C5.24,17.566,10.568,6.517,10.792,6.054c0.352-0.709,1.109-1.11,1.881-1c0.025,0.003,2.559,0.364,5.396,0.364
					c1.629,0,3.029-0.117,4.16-0.346c4.174-0.849,8.549-4.594,8.592-4.632c0.68-0.586,1.678-0.587,2.358,0.001
					c0.043,0.037,4.412,3.782,8.59,4.631c1.131,0.229,2.527,0.346,4.16,0.346c2.836,0,5.369-0.36,5.395-0.364
					c0.777-0.114,1.531,0.292,1.881,1c0.229,0.463,5.557,11.512,3.191,26.242c-2.842,17.692-22.57,30.854-23.409,31.407
					C32.687,63.9,32.341,64,31.998,64z M13.546,8.865c-1.213,3.079-4.107,11.947-2.357,22.837
					C13.425,45.641,28.037,57.053,32,59.918c3.963-2.865,18.573-14.277,20.811-28.215c1.748-10.89-1.146-19.757-2.359-22.837
					c-1.1,0.111-2.742,0.237-4.52,0.237c-1.869,0-3.51-0.141-4.873-0.418C37.375,7.935,33.793,5.534,32,4.183
					c-1.793,1.352-5.373,3.753-9.055,4.501c-1.367,0.277-3.006,0.418-4.875,0.418C16.289,9.102,14.646,8.976,13.546,8.865z"/>
			</g>
			<g>
				<path fill="#B0BDC6" d="M31.998,61.67c-0.316,0-0.635-0.092-0.916-0.275c-0.775-0.512-19.066-12.717-21.703-29.12
					c-2.189-13.658,2.75-23.902,2.959-24.332c0.324-0.657,1.027-1.029,1.744-0.928c0.023,0.003,2.369,0.337,5,0.337
					c1.512,0,2.811-0.107,3.859-0.321c3.869-0.787,7.926-4.26,7.965-4.294c0.631-0.543,1.557-0.544,2.186,0.001
					c0.041,0.034,4.094,3.507,7.965,4.293c1.051,0.213,2.346,0.321,3.857,0.321c2.629,0,4.98-0.333,5.002-0.337
					c0.723-0.105,1.42,0.271,1.744,0.928c0.211,0.43,5.152,10.674,2.959,24.332c-2.635,16.403-20.928,28.608-21.706,29.12
					C32.636,61.578,32.318,61.67,31.998,61.67z M14.892,10.55c-1.125,2.855-3.813,11.077-2.189,21.174
					c2.074,12.922,15.621,23.504,19.295,26.161c3.676-2.656,17.223-13.238,19.297-26.161c1.619-10.096-1.063-18.317-2.188-21.174
					c-1.021,0.103-2.543,0.219-4.193,0.219c-1.732,0-3.252-0.13-4.518-0.387c-3.414-0.694-6.736-2.921-8.399-4.174
					c-1.662,1.253-4.979,3.479-8.395,4.174c-1.268,0.257-2.787,0.387-4.521,0.387C17.435,10.769,15.91,10.652,14.892,10.55z"/>
			</g>
			<g>
				<path fill="#DFE9EF" d="M31.998,62.943c-0.332,0-0.662-0.096-0.955-0.287c-0.811-0.533-19.885-13.264-22.635-30.37
					C6.123,18.042,11.275,7.359,11.494,6.911c0.338-0.686,1.072-1.073,1.818-0.967c0.023,0.003,2.473,0.352,5.217,0.352
					c1.574,0,2.93-0.113,4.021-0.334c4.035-0.821,8.268-4.443,8.309-4.479c0.658-0.567,1.623-0.567,2.28,0.001
					c0.043,0.035,4.27,3.657,8.307,4.478c1.094,0.222,2.445,0.334,4.021,0.334c2.742,0,5.193-0.348,5.217-0.352
					c0.752-0.11,1.48,0.282,1.818,0.967c0.223,0.448,5.373,11.132,3.086,25.375c-2.748,17.106-21.824,29.836-22.635,30.37
					C32.664,62.848,32.33,62.943,31.998,62.943z M14.156,9.629c-1.172,2.978-3.973,11.553-2.281,22.083
					c2.164,13.477,16.291,24.512,20.123,27.284c3.833-2.771,17.959-13.807,20.124-27.284c1.691-10.529-1.107-19.104-2.281-22.083
					c-1.063,0.107-2.65,0.229-4.371,0.229c-1.809,0-3.393-0.136-4.713-0.404c-3.561-0.724-7.021-3.046-8.758-4.353
					c-1.732,1.307-5.193,3.629-8.756,4.353c-1.322,0.268-2.906,0.404-4.713,0.404C16.81,9.858,15.22,9.736,14.156,9.629z"/>
			</g>
			<g>
				<g>
					<ellipse fill="#B0BDC6" cx="32" cy="3.127" rx="1.381" ry="1.402"/>
					<ellipse fill="#DFE9EF" cx="32" cy="3.128" rx="1.055" ry="1.069"/>
					<path fill="#89969B" d="M32,3.667c-0.42,0-0.797-0.179-1.064-0.464C30.99,3.758,31.437,4.197,32,4.197s1.008-0.438,1.065-0.994
						C32.796,3.488,32.419,3.667,32,3.667z"/>
				</g>
				<g>
					<ellipse fill="#B0BDC6" cx="50.865" cy="8.032" rx="1.383" ry="1.402"/>
					<ellipse fill="#DFE9EF" cx="50.865" cy="8.033" rx="1.055" ry="1.069"/>
					<path fill="#89969B" d="M50.865,8.572c-0.42,0-0.797-0.179-1.064-0.464c0.057,0.556,0.504,0.994,1.064,0.994
						c0.563,0,1.01-0.438,1.066-0.994C51.662,8.393,51.285,8.572,50.865,8.572z"/>
				</g>
				<g>
					<ellipse fill="#B0BDC6" cx="54.316" cy="21.22" rx="1.381" ry="1.402"/>
					<ellipse fill="#DFE9EF" cx="54.316" cy="21.221" rx="1.053" ry="1.069"/>
					<path fill="#89969B" d="M54.316,21.76c-0.42,0-0.797-0.179-1.066-0.464c0.057,0.556,0.504,0.994,1.066,0.994
						c0.561,0,1.008-0.438,1.064-0.994C55.113,21.581,54.736,21.76,54.316,21.76z"/>
				</g>
				<g>
					<ellipse fill="#B0BDC6" cx="52.285" cy="37.652" rx="1.381" ry="1.402"/>
					<ellipse fill="#DFE9EF" cx="52.285" cy="37.653" rx="1.053" ry="1.069"/>
					<path fill="#89969B" d="M52.285,38.191c-0.42,0-0.797-0.178-1.064-0.463c0.055,0.555,0.502,0.994,1.064,0.994
						s1.008-0.439,1.064-0.994C53.082,38.014,52.705,38.191,52.285,38.191z"/>
				</g>
				<g>
					<ellipse fill="#B0BDC6" cx="43.977" cy="50.492" rx="1.383" ry="1.402"/>
					<ellipse fill="#DFE9EF" cx="43.977" cy="50.491" rx="1.055" ry="1.069"/>
					<path fill="#89969B" d="M43.977,51.031c-0.42,0-0.797-0.18-1.064-0.465c0.055,0.557,0.502,0.994,1.064,0.994
						s1.01-0.438,1.064-0.992C44.773,50.854,44.396,51.031,43.977,51.031z"/>
				</g>
				<g>
					<ellipse fill="#B0BDC6" cx="31.998" cy="60.734" rx="1.383" ry="1.4"/>
					<ellipse fill="#DFE9EF" cx="31.998" cy="60.736" rx="1.055" ry="1.068"/>
					<path fill="#89969B" d="M31.998,61.275c-0.42,0-0.797-0.18-1.064-0.465c0.057,0.555,0.504,0.994,1.064,0.994
						c0.563,0,1.01-0.439,1.067-0.994C32.794,61.096,32.417,61.275,31.998,61.275z"/>
				</g>
				<g>
					<ellipse fill="#B0BDC6" cx="20.021" cy="50.492" rx="1.381" ry="1.402"/>
					<ellipse fill="#DFE9EF" cx="20.021" cy="50.491" rx="1.053" ry="1.069"/>
					<path fill="#89969B" d="M20.021,51.031c-0.42,0-0.797-0.18-1.066-0.465c0.057,0.557,0.504,0.994,1.066,0.994
						c0.561,0,1.008-0.438,1.064-0.992C20.816,50.854,20.439,51.031,20.021,51.031z"/>
				</g>
				<g>
					<ellipse fill="#B0BDC6" cx="11.71" cy="37.653" rx="1.383" ry="1.401"/>
					<ellipse fill="#DFE9EF" cx="11.71" cy="37.654" rx="1.055" ry="1.068"/>
					<path fill="#89969B" d="M11.71,38.193c-0.42,0-0.797-0.18-1.064-0.465c0.057,0.555,0.504,0.994,1.064,0.994
						c0.563,0,1.01-0.439,1.066-0.994C12.507,38.014,12.13,38.193,11.71,38.193z"/>
				</g>
				<g>
					<ellipse fill="#B0BDC6" cx="9.681" cy="21.22" rx="1.381" ry="1.402"/>
					<ellipse fill="#DFE9EF" cx="9.681" cy="21.221" rx="1.053" ry="1.069"/>
					<path fill="#89969B" d="M9.681,21.76c-0.42,0-0.799-0.179-1.066-0.464c0.057,0.556,0.504,0.994,1.066,0.994
						c0.561,0,1.008-0.438,1.064-0.994C10.478,21.581,10.101,21.76,9.681,21.76z"/>
				</g>
				<g>
					<ellipse fill="#B0BDC6" cx="13.072" cy="8.032" rx="1.381" ry="1.402"/>
					<ellipse fill="#DFE9EF" cx="13.072" cy="8.033" rx="1.053" ry="1.069"/>
					<path fill="#89969B" d="M13.072,8.572c-0.42,0-0.797-0.179-1.066-0.464c0.057,0.556,0.504,0.994,1.066,0.994
						c0.561,0,1.008-0.438,1.064-0.994C13.869,8.393,13.492,8.572,13.072,8.572z"/>
				</g>
			</g>
		</g>
	</g>
</g>
</svg>
