<?xml version="1.0" encoding="utf-8"?>
<!-- Generator: Adobe Illustrator 15.0.0, SVG Export Plug-In . SVG Version: 6.00 Build 0)  -->
<!DOCTYPE svg PUBLIC "-//W3C//DTD SVG 1.1//EN" "http://www.w3.org/Graphics/SVG/1.1/DTD/svg11.dtd">
<svg version="1.1" id="Layer_1" xmlns="http://www.w3.org/2000/svg" xmlns:xlink="http://www.w3.org/1999/xlink" x="0px" y="0px"
	 width="64px" height="64px" viewBox="0 0 64 64" enable-background="new 0 0 64 64" xml:space="preserve">
<g>
	<rect x="7.111" y="6.895" fill="#3E4347" width="49.777" height="50.211"/>
	<ellipse fill="#3E4347" cx="32" cy="57.105" rx="26" ry="4.895"/>
	<ellipse fill="#3E4347" cx="32" cy="23.571" rx="26" ry="4.895"/>
	<ellipse fill="#3E4347" cx="32" cy="40.428" rx="26" ry="4.895"/>
	<ellipse fill="#D0D0D0" cx="32" cy="6.895" rx="26" ry="4.895"/>
	<g>
		<path fill="#D0D0D0" d="M7.412,22.446c3.514,1.92,13.193,4.206,24.588,4.206s21.076-2.286,24.588-4.206
			C50.361,23.363,41.648,24.84,32,24.84S13.639,23.363,7.412,22.446z"/>
		<path fill="#D0D0D0" d="M7.412,39.303c3.514,1.922,13.193,4.208,24.588,4.208s21.076-2.286,24.588-4.208
			C50.361,40.222,41.648,41.698,32,41.698S13.639,40.222,7.412,39.303z"/>
		<path fill="#D0D0D0" d="M7.412,55.617c3.514,1.92,13.193,4.207,24.588,4.207s21.076-2.287,24.588-4.207
			C50.361,56.535,41.648,58.012,32,58.012S13.639,56.535,7.412,55.617z"/>
	</g>
	<ellipse fill="#3E4347" cx="15.67" cy="6.894" rx="3.887" ry="0.978"/>
</g>
</svg>
