<?xml version="1.0" encoding="utf-8"?>
<!-- Generator: Adobe Illustrator 15.0.0, SVG Export Plug-In . SVG Version: 6.00 Build 0)  -->
<!DOCTYPE svg PUBLIC "-//W3C//DTD SVG 1.1//EN" "http://www.w3.org/Graphics/SVG/1.1/DTD/svg11.dtd">
<svg version="1.1" id="Layer_1" xmlns="http://www.w3.org/2000/svg" xmlns:xlink="http://www.w3.org/1999/xlink" x="0px" y="0px"
	 width="64px" height="64px" viewBox="0 0 64 64" enable-background="new 0 0 64 64" xml:space="preserve">
<g>
	<g>
		<circle fill="#E8E8E8" cx="46" cy="16.5" r="3"/>
		<circle fill="#E8E8E8" cx="49" cy="14" r="4"/>
		<circle fill="#E8E8E8" cx="53" cy="15" r="4"/>
		<circle fill="#E8E8E8" cx="34" cy="5.833" r="3"/>
		<circle fill="#E8E8E8" cx="38" cy="4" r="4"/>
		<path fill="#FFFFFF" d="M41,17.612V50h8V17.612C46.6,15.27,43.4,15.666,41,17.612z"/>
		<path fill="#FFFFFF" d="M29,6.612V39h8V6.612C34.6,4.27,31.4,4.666,29,6.612z"/>
		<path fill="#ED4C5C" d="M29,8.612V41h8V8.612C34.6,6.27,31.4,6.666,29,8.612z"/>
		<path fill="#FFFFFF" d="M29,10.612V43h8V10.612C34.6,8.27,31.4,8.666,29,10.612z"/>
		<path fill="#ED4C5C" d="M41,19.612V52h8V19.612C46.6,17.27,43.4,17.666,41,19.612z"/>
		<path fill="#FFFFFF" d="M41,21.612V54h8V21.612C46.6,19.27,43.4,19.666,41,21.612z"/>
		<polygon fill="#94989B" points="60.5,49 9.5,49 9.5,23 11.5,21 11.5,18.103 13.5,17 13.5,14.811 21.5,11.207 37.5,14 60.5,35.48 
					"/>
		<polygon fill="#94989B" points="35.434,14 35.434,18 33.5,18.362 33.5,22 31.5,21.809 31.5,25.976 29.5,26 29.5,30.674 
			60.5,46.842 60.5,35.48 37.5,14 		"/>
		<path fill="#FFFFFF" d="M7,24c0,0-5.473,1.968-7,7c0,0,1.654,6.074,6.49,13.496C11.327,51.92,14,62,14,62V31.79L7,24z"/>
		<polygon fill="#3E4347" points="28,27 28,30 13.5,28 13.5,27 		"/>
		<polygon fill="#3E4347" points="30,23 30,26 15.5,24 15.5,23 		"/>
		<polygon fill="#3E4347" points="32,19 32,22 17.5,20 17.5,19 		"/>
		<polygon fill="#3E4347" points="34,15 34,18 19.5,16 19.5,15 		"/>
		<polygon fill="#FFFFFF" points="13.5,13 13.5,15 21.5,13 21.5,11 		"/>
		<polygon fill="#E8E8E8" points="21.5,11 21.5,13 37.5,15 37.5,13 		"/>
		<g>
			<polygon fill="#D0D0D0" points="37.5,15 37.5,13 60.5,35.48 60.5,36 			"/>
		</g>
		<polygon fill="#FFFFFF" points="11.5,17 11.5,19 19.5,17 19.5,15 		"/>
		<polygon fill="#E8E8E8" points="19.5,15 19.5,17 35.5,19 35.5,17 		"/>
		<g>
			<polygon fill="#D0D0D0" points="35.5,19 35.5,17 60.5,38.48 60.5,39 			"/>
		</g>
		<polygon fill="#FFFFFF" points="9.5,21 9.5,23 17.5,21 17.5,19 		"/>
		<polygon fill="#E8E8E8" points="17.5,19 17.5,21 33.5,23 33.5,21 		"/>
		<g>
			<polygon fill="#D0D0D0" points="33.5,23 33.5,21 60.5,41.48 60.5,42 			"/>
		</g>
		<polygon fill="#FFFFFF" points="7.5,25 7.5,27 15.5,25 15.5,23 		"/>
		<polygon fill="#E8E8E8" points="15.5,23 15.5,25 31.5,27 31.5,25 		"/>
		<g>
			<polygon fill="#D0D0D0" points="31.5,27 31.5,25 60.5,44.48 60.5,45 			"/>
		</g>
		<circle fill="#E8E8E8" cx="42" cy="4" r="4"/>
		<path fill="#D0D0D0" d="M43.094,5.509c-0.146,0.094-0.306,0.146-0.457,0.188c-0.153,0.033-0.297,0.065-0.449,0.056
			c-0.296-0.005-0.6-0.063-0.902-0.183c-0.154-0.05-0.309-0.118-0.457-0.193c-0.142-0.07-0.305-0.172-0.411-0.233l-0.456-0.264
			l-0.429,0.303l-0.357,0.252c-0.124,0.072-0.226,0.206-0.358,0.238L38.43,5.845c-0.064,0.04-0.138,0.024-0.207,0.047l-0.214,0.042
			c-0.146,0.052-0.298,0.011-0.459,0.021c-0.166,0.015-0.324-0.024-0.495-0.056C36.704,5.849,36.371,5.726,36,5.587
			c0.172,0.307,0.442,0.594,0.782,0.803c0.169,0.112,0.351,0.213,0.562,0.272c0.207,0.069,0.418,0.153,0.65,0.148l0.349,0.016
			c0.114-0.002,0.243,0.024,0.349-0.015l0.667-0.178c0.243-0.044,0.388-0.189,0.575-0.294l0.083-0.055
			c0.061,0.029,0.119,0.059,0.183,0.089c0.209,0.093,0.427,0.177,0.66,0.24c0.463,0.113,0.991,0.171,1.502,0.049
			c0.256-0.053,0.493-0.161,0.705-0.28c0.2-0.141,0.375-0.289,0.506-0.462c0.267-0.34,0.389-0.716,0.428-1.088
			C43.681,5.095,43.415,5.354,43.094,5.509z"/>
		<path fill="#D0D0D0" d="M54.075,16.297c-0.163,0.055-0.331,0.064-0.489,0.066c-0.156-0.006-0.304-0.011-0.448-0.059
			c-0.285-0.079-0.564-0.211-0.828-0.404c-0.137-0.087-0.269-0.191-0.393-0.302c-0.12-0.104-0.252-0.242-0.34-0.329L51.203,14.9
			l-0.492,0.185l-0.409,0.154c-0.138,0.039-0.271,0.143-0.407,0.14l-0.418,0.07c-0.072,0.022-0.139-0.011-0.211-0.006l-0.219-0.014
			c-0.154,0.014-0.291-0.064-0.449-0.096c-0.164-0.027-0.307-0.104-0.465-0.178c-0.326-0.137-0.617-0.34-0.942-0.567
			c0.089,0.341,0.278,0.687,0.556,0.974c0.135,0.151,0.285,0.295,0.475,0.405c0.183,0.119,0.365,0.253,0.593,0.308l0.333,0.103
			c0.111,0.026,0.229,0.084,0.341,0.073l0.69-0.004c0.247,0.019,0.423-0.086,0.631-0.141l0.094-0.032
			c0.051,0.044,0.101,0.087,0.154,0.132c0.18,0.143,0.369,0.279,0.578,0.399c0.42,0.226,0.917,0.414,1.442,0.425
			c0.261,0.013,0.518-0.032,0.752-0.095c0.229-0.085,0.437-0.186,0.606-0.319c0.344-0.262,0.557-0.596,0.688-0.945
			C54.748,16.044,54.426,16.229,54.075,16.297z"/>
		<g>
			<g>
				<polygon fill="#3E4347" points="37.5,16.835 36.5,15.95 36.5,17.5 37.5,18.362 				"/>
				<polygon fill="#3E4347" points="39.5,18.605 38.5,17.72 38.5,19.224 39.5,20.085 				"/>
				<polygon fill="#3E4347" points="41.5,20.375 40.5,19.49 40.5,20.947 41.5,21.809 				"/>
				<polygon fill="#3E4347" points="43.5,22.146 42.5,21.26 42.5,22.67 43.5,23.532 				"/>
				<polygon fill="#3E4347" points="45.5,23.916 44.5,23.03 44.5,24.394 45.5,25.255 				"/>
				<polygon fill="#3E4347" points="47.5,25.686 46.5,24.801 46.5,26.117 47.5,26.979 				"/>
				<polygon fill="#3E4347" points="49.5,27.457 48.5,26.571 48.5,27.84 49.5,28.703 				"/>
				<g>
					<polygon fill="#3E4347" points="50.5,28.341 50.5,29.564 51.5,30.426 51.5,29.227 					"/>
					<polygon fill="#3E4347" points="54.5,31.881 54.5,33.01 55.5,33.873 55.5,32.767 					"/>
					<polygon fill="#3E4347" points="52.5,30.112 52.5,31.288 53.5,32.149 53.5,30.997 					"/>
					<polygon fill="#3E4347" points="56.5,33.652 56.5,34.734 57.5,35.596 57.5,34.537 					"/>
					<polygon fill="#3E4347" points="58.5,35.422 58.5,36.457 59.5,37.318 59.5,36.307 					"/>
				</g>
			</g>
			<g>
				<polygon fill="#3E4347" points="35.586,20.662 34.5,19.815 34.5,21.297 35.586,22.12 				"/>
				<polygon fill="#3E4347" points="37.755,22.353 36.669,21.507 36.669,22.944 37.755,23.767 				"/>
				<polygon fill="#3E4347" points="39.924,24.044 38.838,23.199 38.838,24.591 39.924,25.415 				"/>
				<polygon fill="#3E4347" points="42.093,25.736 41.008,24.89 41.008,26.238 42.093,27.061 				"/>
				<polygon fill="#3E4347" points="44.263,27.428 43.178,26.582 43.178,27.885 44.263,28.708 				"/>
				<polygon fill="#3E4347" points="46.432,29.12 45.347,28.274 45.347,29.532 46.432,30.356 				"/>
				<polygon fill="#3E4347" points="48.601,30.813 47.516,29.966 47.516,31.179 48.601,32.003 				"/>
				<g>
					<polygon fill="#3E4347" points="49.686,31.659 49.686,32.827 50.77,33.65 50.77,32.504 					"/>
					<polygon fill="#3E4347" points="54.023,35.041 54.023,36.121 55.109,36.943 55.109,35.887 					"/>
					<polygon fill="#3E4347" points="51.854,33.35 51.854,34.473 52.939,35.297 52.939,34.195 					"/>
					<polygon fill="#3E4347" points="56.192,36.732 56.192,37.768 57.278,38.592 57.278,37.578 					"/>
					<polygon fill="#3E4347" points="58.361,38.426 58.361,39.414 59.447,40.238 59.447,39.271 					"/>
				</g>
			</g>
			<g>
				<polygon fill="#3E4347" points="33.673,24.479 32.5,23.659 32.5,25.093 33.673,25.891 				"/>
				<polygon fill="#3E4347" points="36.02,26.116 34.847,25.297 34.847,26.688 36.02,27.485 				"/>
				<polygon fill="#3E4347" points="38.367,27.753 37.193,26.935 37.193,28.283 38.367,29.081 				"/>
				<polygon fill="#3E4347" points="40.713,29.391 39.541,28.573 39.541,29.877 40.713,30.674 				"/>
				<polygon fill="#3E4347" points="43.061,31.029 41.887,30.209 41.887,31.471 43.061,32.268 				"/>
				<polygon fill="#3E4347" points="45.407,32.667 44.232,31.848 44.232,33.066 45.407,33.863 				"/>
				<polygon fill="#3E4347" points="47.756,34.305 46.581,33.486 46.581,34.66 47.756,35.457 				"/>
				<g>
					<polygon fill="#3E4347" points="48.929,35.123 48.929,36.254 50.102,37.053 50.102,35.941 					"/>
					<polygon fill="#3E4347" points="53.621,38.398 53.621,39.443 54.795,40.24 54.795,39.219 					"/>
					<polygon fill="#3E4347" points="51.275,36.762 51.275,37.848 52.447,38.646 52.447,37.58 					"/>
					<polygon fill="#3E4347" points="55.969,40.037 55.969,41.037 57.142,41.836 57.142,40.855 					"/>
					<polygon fill="#3E4347" points="58.315,41.676 58.315,42.633 59.488,43.43 59.488,42.494 					"/>
				</g>
			</g>
			<g>
				<polygon fill="#3E4347" points="31.762,28.859 30.5,28.114 30.5,29.418 31.762,30.141 				"/>
				<polygon fill="#3E4347" points="34.283,30.346 33.022,29.602 33.022,30.866 34.283,31.59 				"/>
				<polygon fill="#3E4347" points="36.806,31.834 35.545,31.09 35.545,32.316 36.806,33.039 				"/>
				<polygon fill="#3E4347" points="39.328,33.322 38.067,32.579 38.067,33.764 39.328,34.488 				"/>
				<polygon fill="#3E4347" points="41.851,34.811 40.59,34.066 40.59,35.213 41.851,35.938 				"/>
				<polygon fill="#3E4347" points="44.373,36.299 43.112,35.555 43.112,36.662 44.373,37.385 				"/>
				<polygon fill="#3E4347" points="46.896,37.787 45.636,37.043 45.636,38.109 46.896,38.834 				"/>
				<g>
					<polygon fill="#3E4347" points="48.159,38.531 48.159,39.559 49.419,40.283 49.419,39.275 					"/>
					<polygon fill="#3E4347" points="53.203,41.508 53.203,42.457 54.464,43.182 54.464,42.252 					"/>
					<polygon fill="#3E4347" points="50.681,40.02 50.681,41.008 51.941,41.732 51.941,40.764 					"/>
					<polygon fill="#3E4347" points="55.726,42.996 55.726,43.904 56.986,44.629 56.986,43.74 					"/>
					<polygon fill="#3E4347" points="58.248,44.484 58.248,45.354 59.509,46.078 59.509,45.229 					"/>
				</g>
			</g>
		</g>
		<path fill="#D0D0D0" d="M7,24c0,0-1.186,8.459,2.25,18.199C14,55.666,13.75,62,13.75,62h44.5c0,0,0.25-2.99,3-6.852S64,49,64,49
			S20.375,20.761,7,24z"/>
		<path fill="#42ADE2" d="M64,57.092l-1.738,1.189c-1.551,1.055-3.484,0.93-4.932-0.318c-0.332-0.287-0.624-0.631-0.881-1.002
			l-1.941,1.322c-1.547,1.055-3.479,0.936-4.916-0.314c-0.342-0.291-0.624-0.629-0.881-1.004l-1.94,1.322
			c-1.544,1.055-3.479,0.932-4.916-0.316c-0.341-0.289-0.633-0.627-0.88-0.998l-1.94,1.316c-1.545,1.055-3.479,0.936-4.927-0.313
			c-0.33-0.293-0.623-0.629-0.87-1.004l-1.95,1.322c-1.534,1.055-3.468,0.932-4.921-0.318c-0.326-0.287-0.626-0.625-0.876-0.998
			l-1.94,1.322c-1.553,1.055-3.479,0.934-4.924-0.313c-0.333-0.293-0.634-0.633-0.878-1.008l-1.936,1.322
			c-1.552,1.055-3.482,0.936-4.922-0.314c-0.34-0.291-0.636-0.625-0.883-1.002L8.07,58.309c-1.546,1.055-3.48,0.934-4.927-0.314
			c-0.333-0.291-0.625-0.631-0.882-1.002l-1.94,1.32C0.217,58.385,0.107,58.439,0,58.502V64h64V57.092z"/>
		<g>
			<path fill="#3E4347" d="M32.932,34.734c0-0.279-0.204-0.604-0.453-0.717l-1.154-0.523c-0.25-0.113-0.454,0.023-0.454,0.305v1.877
				c0,0.281,0.208,0.592,0.464,0.693l1.135,0.451c0.255,0.104,0.463-0.043,0.463-0.324V34.734z"/>
			<path fill="#3E4347" d="M37.054,36.65c0-0.281-0.203-0.605-0.451-0.723l-1.158-0.541c-0.248-0.115-0.452,0.018-0.452,0.299v1.648
				c0,0.279,0.207,0.596,0.461,0.701l1.141,0.475c0.253,0.105,0.46-0.037,0.46-0.318V36.65z"/>
			<path fill="#3E4347" d="M41.176,38.621c0-0.281-0.202-0.607-0.449-0.729l-1.162-0.559c-0.248-0.119-0.449,0.014-0.449,0.295
				v1.438c0,0.279,0.205,0.6,0.457,0.709l1.146,0.498c0.252,0.109,0.457-0.031,0.457-0.313V38.621z"/>
			<path fill="#3E4347" d="M45.299,40.652c0-0.281-0.201-0.609-0.445-0.732l-1.168-0.58c-0.246-0.121-0.447,0.008-0.447,0.289v1.25
				c0,0.281,0.205,0.604,0.454,0.717l1.153,0.525c0.25,0.113,0.453-0.021,0.453-0.303V40.652z"/>
			<path fill="#3E4347" d="M49.422,42.816c0-0.281-0.197-0.617-0.439-0.748l-1.184-0.645c-0.24-0.129-0.438-0.008-0.438,0.273v1.008
				c0,0.281,0.2,0.611,0.446,0.734l1.17,0.592c0.244,0.125,0.445-0.004,0.445-0.285V42.816z"/>
			<path fill="#3E4347" d="M53.544,44.791c0-0.281-0.198-0.617-0.44-0.746l-1.18-0.629c-0.243-0.129-0.441-0.006-0.441,0.275v0.977
				c0,0.281,0.201,0.611,0.445,0.734l1.172,0.59c0.244,0.127,0.444-0.002,0.444-0.283V44.791z"/>
			<path fill="#3E4347" d="M57.216,46.82c0-0.281-0.196-0.621-0.435-0.758l-0.741-0.414c-0.239-0.135-0.435-0.016-0.435,0.266v0.877
				c0,0.279,0.197,0.617,0.438,0.748l0.736,0.4c0.24,0.133,0.437,0.014,0.437-0.268V46.82z"/>
			<path fill="#3E4347" d="M60.5,48.574c0-0.279-0.199-0.611-0.443-0.738l-0.658-0.334c-0.244-0.123-0.445,0.002-0.445,0.283v0.758
				c0,0.281,0.201,0.611,0.447,0.734l0.655,0.33c0.244,0.125,0.444-0.002,0.444-0.283V48.574z"/>
			<path fill="#3E4347" d="M28.982,32.977c0-0.288-0.246-0.622-0.547-0.74l-1.389-0.541c-0.301-0.116-0.547,0.026-0.547,0.315v1.938
				c0,0.291,0.251,0.611,0.559,0.715l1.367,0.467c0.307,0.105,0.557-0.045,0.557-0.332V32.977z"/>
		</g>
		<g>
			<path fill="#E8E8E8" d="M58.25,45.498c0,0.891,0,1.779,0,2.668c0,0.322,0.5,0.322,0.5,0c0-0.889,0-1.777,0-2.668
				C58.75,45.176,58.25,45.176,58.25,45.498L58.25,45.498z"/>
		</g>
		<g>
			<path fill="#E8E8E8" d="M51.25,41.416c0,1.094,0,2.188,0,3.281c0,0.322,0.5,0.322,0.5,0c0-1.094,0-2.188,0-3.281
				C51.75,41.094,51.25,41.094,51.25,41.416L51.25,41.416z"/>
		</g>
		<g>
			<path fill="#E8E8E8" d="M43.75,36.969c0,1.578,0,3.154,0,4.732c0,0.322,0.5,0.322,0.5,0c0-1.578,0-3.154,0-4.732
				C44.25,36.646,43.75,36.646,43.75,36.969L43.75,36.969z"/>
		</g>
		<g>
			<path fill="#E8E8E8" d="M35.151,32.758c0,1.91,0,3.82,0,5.73c0,0.322,0.5,0.322,0.5,0c0-1.91,0-3.82,0-5.73
				C35.651,32.436,35.151,32.436,35.151,32.758L35.151,32.758z"/>
		</g>
		<g>
			<path fill="#ED4C5C" d="M58.883,48.195c0.411,0.607-0.5,0.787-2.036,0.402c-1.541-0.383-3.118-1.188-3.531-1.793
				c-0.411-0.605,0.5-0.785,2.036-0.402C56.892,46.787,58.47,47.59,58.883,48.195z"/>
			<path opacity="0.5" fill="#6F1F08" d="M58.678,48.74c-0.517-0.59-1.984-1.318-3.431-1.68c-0.838-0.209-1.479-0.246-1.832-0.143
				c0.517,0.59,1.985,1.318,3.432,1.68C57.686,48.807,58.326,48.844,58.678,48.74z"/>
			<path fill="#ED4C5C" d="M51.924,45.02c0.445,0.738-0.547,1.002-2.215,0.592c-1.673-0.41-3.383-1.34-3.83-2.076
				c-0.445-0.738,0.548-1.002,2.216-0.592C49.767,43.354,51.477,44.283,51.924,45.02z"/>
			<path opacity="0.5" fill="#6F1F08" d="M51.699,45.707c-0.559-0.713-2.151-1.555-3.722-1.939c-0.909-0.225-1.606-0.242-1.99-0.096
				c0.56,0.713,2.151,1.555,3.722,1.939C50.618,45.836,51.316,45.852,51.699,45.707z"/>
			<path fill="#ED4C5C" d="M44.354,41.523c0.512,0.727-0.543,1.018-2.355,0.652c-1.815-0.365-3.699-1.25-4.213-1.975
				c-0.513-0.727,0.543-1.018,2.355-0.652C41.956,39.914,43.839,40.799,44.354,41.523z"/>
			<path opacity="0.5" fill="#6F1F08" d="M44.143,42.219c-0.633-0.699-2.383-1.498-4.089-1.84c-0.99-0.201-1.739-0.199-2.145-0.043
				c0.634,0.697,2.384,1.496,4.089,1.84C42.986,42.375,43.738,42.373,44.143,42.219z"/>
			<path fill="#ED4C5C" d="M36.015,38.039c0.61,0.848-0.584,1.244-2.668,0.889c-2.087-0.354-4.271-1.328-4.885-2.174
				c-0.609-0.848,0.584-1.246,2.668-0.891C33.218,36.219,35.4,37.191,36.015,38.039z"/>
			<path opacity="0.5" fill="#6F1F08" d="M35.799,38.879c-0.748-0.807-2.778-1.686-4.739-2.018c-1.137-0.193-1.992-0.158-2.45,0.047
				c0.749,0.809,2.777,1.688,4.737,2.02C34.484,39.121,35.341,39.084,35.799,38.879z"/>
		</g>
		<g>
			<path fill="#E8E8E8" d="M28.75,29.469c0,2.301,0,4.601,0,6.902c0,0.322,0.5,0.322,0.5,0c0-2.301,0-4.601,0-6.902
				C29.25,29.147,28.75,29.147,28.75,29.469L28.75,29.469z"/>
		</g>
		<g>
			<path fill="#E8E8E8" d="M37.817,34.168c0,1.873,0,3.748,0,5.623c0,0.322,0.5,0.322,0.5,0c0-1.875,0-3.75,0-5.623
				C38.317,33.846,37.817,33.846,37.817,34.168L37.817,34.168z"/>
		</g>
		<g>
			<path fill="#E8E8E8" d="M46.182,38.424c0,1.586,0,3.172,0,4.758c0,0.322,0.5,0.322,0.5,0c0-1.586,0-3.172,0-4.758
				C46.682,38.102,46.182,38.102,46.182,38.424L46.182,38.424z"/>
		</g>
		<g>
			<path fill="#E8E8E8" d="M53.584,42.75c0,1.223,0,2.443,0,3.666c0,0.322,0.5,0.322,0.5,0c0-1.223,0-2.443,0-3.666
				C54.084,42.428,53.584,42.428,53.584,42.75L53.584,42.75z"/>
		</g>
		<path fill="#E8E8E8" d="M23.948,4.534c-0.018,0-0.035,0.005-0.054,0.006C23.719,3.659,23.046,3,22.242,3
			c-0.854,0-1.553,0.737-1.676,1.697c-0.152-0.101-0.327-0.163-0.515-0.163C19.472,4.534,19,5.085,19,5.767
			C19,6.448,19.618,7,20.199,7h3.789C24.551,6.976,25,6.431,25,5.767C25,5.085,24.528,4.534,23.948,4.534z"/>
		<path fill="#E8E8E8" d="M55.052,23.534c0.018,0,0.035,0.005,0.054,0.006c0.176-0.881,0.849-1.54,1.652-1.54
			c0.854,0,1.553,0.737,1.676,1.697c0.152-0.101,0.327-0.163,0.515-0.163c0.58,0,1.052,0.551,1.052,1.232
			C60,25.448,59.382,26,58.801,26h-3.789C54.449,25.976,54,25.431,54,24.767C54,24.085,54.472,23.534,55.052,23.534z"/>
		<path fill="#94989B" d="M3.612,14.827c0,0-0.111-1.394,1.874-1.877c0,0,0.621-1.762,2.993-1.639c0,0-2.451,0.921-2.271,2.45
			C6.209,13.761,4.462,13.353,3.612,14.827z"/>
		<path fill="#94989B" d="M4,5.204c0,0,0.678-1.224,2.6-0.529c0,0,1.49-1.125,3.4,0.287c0,0-2.552-0.586-3.246,0.788
			C6.754,5.75,5.523,4.444,4,5.204z"/>
	</g>
</g>
</svg>
