<?xml version="1.0" encoding="utf-8"?>
<!-- Generator: Adobe Illustrator 15.0.0, SVG Export Plug-In . SVG Version: 6.00 Build 0)  -->
<!DOCTYPE svg PUBLIC "-//W3C//DTD SVG 1.1//EN" "http://www.w3.org/Graphics/SVG/1.1/DTD/svg11.dtd">
<svg version="1.1" id="Layer_1" xmlns="http://www.w3.org/2000/svg" xmlns:xlink="http://www.w3.org/1999/xlink" x="0px" y="0px"
	 width="64px" height="64px" viewBox="0 0 64 64" enable-background="new 0 0 64 64" xml:space="preserve">
<g>
	<path fill="#D0D0D0" d="M24.415,24.388c3.204-3.204,3.204-8.399,0-11.604L12.811,24.388C16.016,27.592,21.21,27.592,24.415,24.388z
		"/>
	<path fill="#94989B" d="M27.035,27.007c-4.309,4.309-4.309,4.309-6.041,2.576c-1.732-1.731-1.732-1.731,2.578-6.04
		c4.307-4.308,4.307-4.308,6.039-2.576C31.343,22.7,31.343,22.7,27.035,27.007z"/>
	<path fill="#7F8285" d="M37.21,37.182c-4.309,4.309-4.309,4.309-6.041,2.576c-0.357-0.357-6.569-6.57-6.928-6.927
		c-1.73-1.732-1.73-1.732,2.576-6.04c4.308-4.308,4.308-4.308,6.042-2.576c0.357,0.357,6.568,6.57,6.925,6.927
		C41.517,32.875,41.517,32.875,37.21,37.182z"/>
	<path fill="#646669" d="M39.591,39.563c-3.23,3.23-3.23,3.23-4.53,1.932c-1.298-1.3-1.298-1.3,1.934-4.529
		c3.229-3.23,3.229-3.23,4.528-1.933C42.822,36.332,42.822,36.332,39.591,39.563z"/>
	<path fill="#94989B" d="M22.171,15.028l-7.115-1.348c-0.026-0.252-0.136-0.497-0.328-0.689c-0.449-0.449-1.176-0.449-1.625,0
		c-0.448,0.448-0.448,1.175,0,1.623c0.165,0.166,0.37,0.271,0.584,0.313l1.366,7.218l0.813-0.812l-0.181,0.035l-1.24-6.548
		c0.101-0.053,0.196-0.122,0.282-0.207c0.057-0.058,0.108-0.121,0.15-0.188l6.522,1.235l-0.031,0.17L22.171,15.028z"/>
	<g>
		
			<rect x="26.313" y="35.985" transform="matrix(-0.7069 -0.7073 0.7073 -0.7069 19.8171 82.2946)" fill="#3E4347" width="1.292" height="2.112"/>
		
			<rect x="36.012" y="26.286" transform="matrix(0.7071 -0.7071 0.7071 0.7071 -8.1865 34.0994)" fill="#3E4347" width="2.113" height="1.292"/>
	</g>
	<path fill="#428BC1" d="M31.068,42.644c0.187,0.188,0.194,0.485,0.015,0.665L12.522,61.869c-0.18,0.181-0.476,0.173-0.665-0.014
		l-9.712-9.714c-0.188-0.187-0.194-0.484-0.015-0.663l18.561-18.561c0.18-0.179,0.476-0.173,0.663,0.014L31.068,42.644z"/>
	<path fill="#428BC1" d="M31.068,42.644c0.187,0.188,0.194,0.485,0.015,0.665L12.522,61.869c-0.18,0.181-0.476,0.173-0.665-0.014
		l-9.712-9.714c-0.188-0.187-0.194-0.484-0.015-0.663l18.561-18.561c0.18-0.179,0.476-0.173,0.663,0.014L31.068,42.644z"/>
	<path fill="#428BC1" d="M61.855,11.858c0.188,0.187,0.192,0.484,0.015,0.664L43.31,31.083c-0.18,0.18-0.479,0.173-0.663-0.014
		l-9.714-9.714c-0.187-0.187-0.194-0.484-0.015-0.663L51.479,2.13c0.178-0.179,0.476-0.173,0.663,0.015L61.855,11.858z"/>
	<g>
		<polygon fill="#42ADE2" points="3.321,51.803 4,52.48 20.396,52.48 25.48,47.396 7.728,47.396 		"/>
		<polygon fill="#42ADE2" points="29.215,42.307 12.817,42.307 10.273,44.851 28.025,44.851 29.891,42.983 		"/>
	</g>
	<g>
		<polygon fill="#42ADE2" points="34.108,21.015 34.786,21.693 51.181,21.693 56.268,16.608 38.516,16.608 		"/>
		<polygon fill="#42ADE2" points="60.003,11.52 43.604,11.52 41.061,14.063 58.811,14.063 60.679,12.196 		"/>
	</g>
</g>
</svg>
