<?xml version="1.0" encoding="utf-8"?>
<!-- Generator: Adobe Illustrator 15.0.0, SVG Export Plug-In . SVG Version: 6.00 Build 0)  -->
<!DOCTYPE svg PUBLIC "-//W3C//DTD SVG 1.1//EN" "http://www.w3.org/Graphics/SVG/1.1/DTD/svg11.dtd">
<svg version="1.1" id="Layer_1" xmlns="http://www.w3.org/2000/svg" xmlns:xlink="http://www.w3.org/1999/xlink" x="0px" y="0px"
	 width="64px" height="64px" viewBox="0 0 64 64" enable-background="new 0 0 64 64" xml:space="preserve">
<g>
	<path fill="#00B9F1" d="M57.598,13.651c-0.656-0.974-1.637-1.658-2.674-2.167c-3.377-1.659-11.639-1.31-12.334-5.653
		c-0.914-5.695-5.855,0.061-6.771,0.061C34.76,5.892,34.246,2,32.096,2c-2.152,0-2.664,3.892-3.723,3.892
		c-0.916,0-5.859-5.756-6.771-0.061c-0.695,4.344-8.959,3.995-12.334,5.653c-1.037,0.51-2.02,1.194-2.674,2.167
		c-0.521,0.773,0.625,1.614,1.207,0.887c1.586-1.984,4.832-2.37,7.145-2.827c1.941-0.384,4.049-0.612,5.881-1.393
		c2.596-1,2.48-4.931,3.268-4.931c0.588,0,2.697,3.019,4.549,3.019c1.58,0,2.58-3.698,3.453-3.698c0.877,0,1.871,3.698,3.451,3.698
		c1.854,0,3.963-3.019,4.551-3.019c0.785,0,0.672,3.931,3.268,4.931c1.832,0.781,3.939,1.009,5.881,1.393
		c2.313,0.457,5.559,0.842,7.145,2.827C56.973,15.266,58.119,14.425,57.598,13.651z"/>
	<g>
		<path fill="#89967A" d="M53,57c0,2.762-2.238,5-5,5H16c-2.76,0-5-2.238-5-5V36h42V57z"/>
		<path fill="#B6C4A7" d="M32,12c-15.463,0-21,8.536-21,24v21h42V36C53,20.536,47.465,12,32,12z"/>
		<g>
			<path fill="#89967A" d="M11,54.98c-1.104,0-2-1.168-2-2.609v-6.783c0-1.439,0.896-2.607,2-2.607V54.98z"/>
			<path fill="#89967A" d="M53,42.98c1.105,0,2,1.168,2,2.607v6.783c0,1.441-0.895,2.609-2,2.609V42.98z"/>
		</g>
		<g>
			<polygon fill="#3E4347" points="7,19.979 5,19.979 5,49.98 7,49.98 9,49.98 9,47.98 7,47.98 			"/>
			<polygon fill="#3E4347" points="57,19.979 57,47.98 55,47.98 55,49.98 57,49.98 59,49.98 59,19.979 			"/>
		</g>
		<g>
			<g>
				<circle fill="#00B9F1" cx="58" cy="19.979" r="4"/>
			</g>
		</g>
		<g>
			<g enable-background="new    ">
				<circle fill="#FF5263" cx="6" cy="19.979" r="4"/>
			</g>
		</g>
		<g>
			<g>
				<g>
					<g>
						<path fill="#EFFFD9" d="M21.5,39.5c-4.415,0-8-3.583-8-8c0-4.42,3.585-8,8-8c4.422,0,8,3.58,8,8
							C29.5,35.917,25.922,39.5,21.5,39.5z"/>
					</g>
					<g>
						<circle fill="#545B61" cx="21.5" cy="31.5" r="6"/>
					</g>
				</g>
			</g>
			<circle fill="#FF5263" cx="21.5" cy="31.5" r="2.285"/>
		</g>
		<g>
			<g>
				<g>
					<g>
						<path fill="#EFFFD9" d="M42.5,39.5c-4.415,0-8-3.583-8-8c0-4.42,3.585-8,8-8c4.422,0,8,3.58,8,8
							C50.5,35.917,46.922,39.5,42.5,39.5z"/>
					</g>
					<g>
						<path fill="#545B61" d="M42.5,37.5c-3.313,0-6-2.688-6-6c0-3.315,2.688-6,6-6c3.317,0,6,2.685,6,6
							C48.5,34.813,45.817,37.5,42.5,37.5z"/>
					</g>
				</g>
			</g>
			<circle fill="#FF5263" cx="42.5" cy="31.5" r="2.286"/>
		</g>
		<path fill="#EFFFD9" d="M19.769,54.088c-7.358,0-7.358-13,0-13h24.463c7.358,0,7.358,13,0,13H19.769z"/>
		<path fill="#89967A" d="M20.488,52.588c-5.984,0-5.984-10,0-10h23.023c5.984,0,5.984,10,0,10H20.488z"/>
		<g opacity="0.7">
			<path fill="#3E4347" d="M21.193,50.662c0,1.234-2,1.234-2,0v-6.148c0-1.234,2-1.234,2,0V50.662z"/>
			<path fill="#3E4347" d="M25.916,50.662c0,1.234-2,1.234-2,0v-6.148c0-1.234,2-1.234,2,0V50.662z"/>
			<path fill="#3E4347" d="M30.639,50.662c0,1.234-2,1.234-2,0v-6.148c0-1.234,2-1.234,2,0V50.662z"/>
			<path fill="#3E4347" d="M35.361,50.662c0,1.234-2,1.234-2,0v-6.148c0-1.234,2-1.234,2,0V50.662z"/>
			<path fill="#3E4347" d="M40.084,50.662c0,1.234-2,1.234-2,0v-6.148c0-1.234,2-1.234,2,0V50.662z"/>
			<path fill="#3E4347" d="M44.807,50.662c0,1.234-2,1.234-2,0v-6.148c0-1.234,2-1.234,2,0V50.662z"/>
		</g>
		<g>
			<circle fill="#F5F5F5" cx="32" cy="36.98" r="2"/>
			
				<rect x="31.617" y="34.98" transform="matrix(0.7071 -0.7071 0.7071 0.7071 -16.7759 33.4585)" fill="#545B61" width="0.765" height="4"/>
		</g>
	</g>
</g>
</svg>
