<?xml version="1.0" encoding="utf-8"?>
<!-- Generator: Adobe Illustrator 15.0.0, SVG Export Plug-In . SVG Version: 6.00 Build 0)  -->
<!DOCTYPE svg PUBLIC "-//W3C//DTD SVG 1.1//EN" "http://www.w3.org/Graphics/SVG/1.1/DTD/svg11.dtd">
<svg version="1.1" id="Layer_1" xmlns="http://www.w3.org/2000/svg" xmlns:xlink="http://www.w3.org/1999/xlink" x="0px" y="0px"
	 width="64px" height="64px" viewBox="0 0 64 64" enable-background="new 0 0 64 64" xml:space="preserve">
<g>
	<circle fill="#FFDD67" cx="31.906" cy="32.094" r="29.906"/>
	<g>
		<path fill="#664E27" d="M42.59,49.84c-1.801-1.059-3.541-1.701-5.322-2.127c-1.775-0.426-3.566-0.609-5.361-0.611
			c-1.799,0.008-3.588,0.189-5.361,0.615c-1.781,0.428-3.52,1.066-5.322,2.123c0.771-1.977,2.484-3.531,4.396-4.525
			c1.932-1.004,4.119-1.486,6.287-1.486c2.166,0.004,4.354,0.486,6.283,1.49C40.1,46.313,41.814,47.865,42.59,49.84z"/>
		<g>
			<g>
				<circle fill="#664E27" cx="43.656" cy="30" r="4.5"/>
			</g>
		</g>
		<g>
			<g>
				<circle fill="#664E27" cx="20.156" cy="30" r="4.5"/>
			</g>
		</g>
	</g>
	<g>
		<path fill="#CCCFD4" d="M32,2c-6.038,0-11.655,1.79-16.361,4.859c17.616,9.12,33.116,23.082,41.685,41.217
			C60.28,43.43,62,37.918,62,32C62,15.432,48.568,2,32,2z"/>
	</g>
	<g>
		<path fill="#FFFFFF" d="M32.919,3.569c-5.501,0-10.618,1.631-14.905,4.427c16.684,7.687,31.572,19.31,39.378,35.832
			C60.475,37.984,60.25,30.9,60.25,30.9C60.25,15.806,48.014,3.569,32.919,3.569z"/>
	</g>
	<path fill="#CCCFD4" d="M15.826,6.75c14.525-0.069,28.896,3.29,41.879,9.779C60.431,21.046,62,26.34,62,32
		c0,0.468-0.014,0.932-0.035,1.395C44.828,22.803,24.587,18.07,4.511,19.986C6.898,14.532,10.866,9.936,15.826,6.75z"/>
	<path fill="#FFFFFF" d="M16.966,8.136c13.587-0.06,27.634,3.976,39.777,9.623c3.345,6.539,3.477,11.863,3.477,11.863
		C43.829,20.9,24.892,16.525,7.362,18.177C7.362,18.177,11.601,10.4,16.966,8.136z"/>
</g>
</svg>
