<?xml version="1.0" encoding="utf-8"?>
<!-- Generator: Adobe Illustrator 15.0.0, SVG Export Plug-In . SVG Version: 6.00 Build 0)  -->
<!DOCTYPE svg PUBLIC "-//W3C//DTD SVG 1.1//EN" "http://www.w3.org/Graphics/SVG/1.1/DTD/svg11.dtd">
<svg version="1.1" id="Layer_1" xmlns="http://www.w3.org/2000/svg" xmlns:xlink="http://www.w3.org/1999/xlink" x="0px" y="0px"
	 width="64px" height="64px" viewBox="0 0 64 64" enable-background="new 0 0 64 64" xml:space="preserve">
<g>
	<circle fill="#FFDD67" cx="31.999" cy="32" r="30"/>
	<g>
		<g>
			<path fill="#FFFFFF" d="M28.499,28c0,4.418-3.584,8-8,8c-4.418,0-8-3.582-8-8c0-4.416,3.582-8,8-8
				C24.915,20,28.499,23.585,28.499,28z"/>
			<circle fill="#664E27" cx="22.499" cy="30" r="4"/>
		</g>
		<g>
			<path fill="#FFFFFF" d="M51.499,28c0,4.418-3.584,8-8,8c-4.418,0-8-3.582-8-8c0-4.416,3.582-8,8-8
				C47.915,20,51.499,23.585,51.499,28z"/>
			<circle fill="#664E27" cx="41.499" cy="30" r="4"/>
		</g>
	</g>
	<g>
		<g>
			<g>
				<g>
					<path fill="#94989B" d="M25.7,47.329c0.165,0,0.299-0.134,0.299-0.3v-4.4c0-0.166-0.134-0.3-0.299-0.3h-2.4
						c-0.166,0-0.301,0.134-0.301,0.3v4.4c0,0.166,0.135,0.3,0.301,0.3H25.7z"/>
				</g>
				<g>
					<path fill="#6A6C6E" d="M25.842,46.802v-3.57c0-0.069-0.056-0.125-0.125-0.125s-0.125,0.056-0.125,0.125v3.57
						c0,0.065-0.054,0.118-0.118,0.118h-1.948c-0.069,0-0.125,0.057-0.125,0.125s0.056,0.125,0.125,0.125h1.948
						C25.677,47.17,25.842,47.005,25.842,46.802z"/>
				</g>
			</g>
			<g>
				<g>
					<path fill="#94989B" d="M22.7,49.829c0.165,0,0.299-0.134,0.299-0.3v-4.4c0-0.166-0.134-0.3-0.299-0.3h-2.4
						c-0.166,0-0.301,0.134-0.301,0.3v4.4c0,0.166,0.135,0.3,0.301,0.3H22.7z"/>
				</g>
				<g>
					<path fill="#6A6C6E" d="M22.842,49.302v-3.57c0-0.069-0.056-0.125-0.125-0.125s-0.125,0.056-0.125,0.125v3.57
						c0,0.065-0.054,0.118-0.118,0.118h-1.948c-0.069,0-0.125,0.057-0.125,0.125s0.056,0.125,0.125,0.125h1.948
						C22.677,49.67,22.842,49.505,22.842,49.302z"/>
				</g>
			</g>
		</g>
		<g>
			<g>
				<g>
					<path fill="#94989B" d="M19.7,47.329c0.165,0,0.299-0.134,0.299-0.3v-4.4c0-0.166-0.134-0.3-0.299-0.3h-2.4
						c-0.166,0-0.301,0.134-0.301,0.3v4.4c0,0.166,0.135,0.3,0.301,0.3H19.7z"/>
				</g>
				<g>
					<path fill="#6A6C6E" d="M19.842,46.802v-3.57c0-0.069-0.056-0.125-0.125-0.125s-0.125,0.056-0.125,0.125v3.57
						c0,0.065-0.054,0.118-0.118,0.118h-1.948c-0.069,0-0.125,0.057-0.125,0.125s0.056,0.125,0.125,0.125h1.948
						C19.677,47.17,19.842,47.005,19.842,46.802z"/>
				</g>
			</g>
			<g>
				<g>
					<path fill="#94989B" d="M16.7,49.829c0.165,0,0.299-0.134,0.299-0.3v-4.4c0-0.166-0.134-0.3-0.299-0.3h-2.401
						c-0.166,0-0.3,0.134-0.3,0.3v4.4c0,0.166,0.134,0.3,0.3,0.3H16.7z"/>
				</g>
				<g>
					<path fill="#6A6C6E" d="M16.842,49.302v-3.57c0-0.069-0.056-0.125-0.125-0.125s-0.125,0.056-0.125,0.125v3.57
						c0,0.065-0.054,0.118-0.118,0.118h-1.948c-0.069,0-0.125,0.057-0.125,0.125s0.056,0.125,0.125,0.125h1.948
						C16.677,49.67,16.842,49.505,16.842,49.302z"/>
				</g>
			</g>
		</g>
		<g>
			<g>
				<g>
					<path fill="#94989B" d="M37.7,47.329c0.165,0,0.299-0.134,0.299-0.3v-4.4c0-0.166-0.134-0.3-0.299-0.3h-2.4
						c-0.166,0-0.301,0.134-0.301,0.3v4.4c0,0.166,0.135,0.3,0.301,0.3H37.7z"/>
				</g>
				<g>
					<path fill="#6A6C6E" d="M37.842,46.802v-3.57c0-0.069-0.056-0.125-0.125-0.125s-0.125,0.056-0.125,0.125v3.57
						c0,0.065-0.054,0.118-0.118,0.118h-1.948c-0.069,0-0.125,0.057-0.125,0.125s0.056,0.125,0.125,0.125h1.948
						C37.677,47.17,37.842,47.005,37.842,46.802z"/>
				</g>
			</g>
			<g>
				<g>
					<path fill="#94989B" d="M34.7,49.829c0.165,0,0.299-0.134,0.299-0.3v-4.4c0-0.166-0.134-0.3-0.299-0.3h-2.4
						c-0.166,0-0.301,0.134-0.301,0.3v4.4c0,0.166,0.135,0.3,0.301,0.3H34.7z"/>
				</g>
				<g>
					<path fill="#6A6C6E" d="M34.842,49.302v-3.57c0-0.069-0.056-0.125-0.125-0.125s-0.125,0.056-0.125,0.125v3.57
						c0,0.065-0.054,0.118-0.118,0.118h-1.948c-0.069,0-0.125,0.057-0.125,0.125s0.056,0.125,0.125,0.125h1.948
						C34.677,49.67,34.842,49.505,34.842,49.302z"/>
				</g>
			</g>
		</g>
		<g>
			<g>
				<g>
					<path fill="#94989B" d="M31.7,47.329c0.165,0,0.299-0.134,0.299-0.3v-4.4c0-0.166-0.134-0.3-0.299-0.3h-2.4
						c-0.166,0-0.301,0.134-0.301,0.3v4.4c0,0.166,0.135,0.3,0.301,0.3H31.7z"/>
				</g>
				<g>
					<path fill="#6A6C6E" d="M31.842,46.802v-3.57c0-0.069-0.056-0.125-0.125-0.125s-0.125,0.056-0.125,0.125v3.57
						c0,0.065-0.054,0.118-0.118,0.118h-1.948c-0.069,0-0.125,0.057-0.125,0.125s0.056,0.125,0.125,0.125h1.948
						C31.677,47.17,31.842,47.005,31.842,46.802z"/>
				</g>
			</g>
			<g>
				<g>
					<path fill="#94989B" d="M28.7,49.829c0.165,0,0.299-0.134,0.299-0.3v-4.4c0-0.166-0.134-0.3-0.299-0.3h-2.4
						c-0.166,0-0.301,0.134-0.301,0.3v4.4c0,0.166,0.135,0.3,0.301,0.3H28.7z"/>
				</g>
				<g>
					<path fill="#6A6C6E" d="M28.842,49.302v-3.57c0-0.069-0.056-0.125-0.125-0.125s-0.125,0.056-0.125,0.125v3.57
						c0,0.065-0.054,0.118-0.118,0.118h-1.948c-0.069,0-0.125,0.057-0.125,0.125s0.056,0.125,0.125,0.125h1.948
						C28.677,49.67,28.842,49.505,28.842,49.302z"/>
				</g>
			</g>
		</g>
		<g>
			<g>
				<g>
					<path fill="#94989B" d="M49.7,47.329c0.165,0,0.299-0.134,0.299-0.3v-4.4c0-0.166-0.134-0.3-0.299-0.3h-2.4
						c-0.166,0-0.301,0.134-0.301,0.3v4.4c0,0.166,0.135,0.3,0.301,0.3H49.7z"/>
				</g>
				<g>
					<path fill="#6A6C6E" d="M49.842,46.802v-3.57c0-0.069-0.056-0.125-0.125-0.125s-0.125,0.056-0.125,0.125v3.57
						c0,0.065-0.054,0.118-0.118,0.118h-1.948c-0.069,0-0.125,0.057-0.125,0.125s0.056,0.125,0.125,0.125h1.948
						C49.677,47.17,49.842,47.005,49.842,46.802z"/>
				</g>
			</g>
			<g>
				<g>
					<path fill="#94989B" d="M46.7,49.829c0.165,0,0.299-0.134,0.299-0.3v-4.4c0-0.166-0.134-0.3-0.299-0.3h-2.4
						c-0.166,0-0.301,0.134-0.301,0.3v4.4c0,0.166,0.135,0.3,0.301,0.3H46.7z"/>
				</g>
				<g>
					<path fill="#6A6C6E" d="M46.842,49.302v-3.57c0-0.069-0.056-0.125-0.125-0.125s-0.125,0.056-0.125,0.125v3.57
						c0,0.065-0.054,0.118-0.118,0.118h-1.948c-0.069,0-0.125,0.057-0.125,0.125s0.056,0.125,0.125,0.125h1.948
						C46.677,49.67,46.842,49.505,46.842,49.302z"/>
				</g>
			</g>
		</g>
		<g>
			<g>
				<g>
					<path fill="#94989B" d="M43.7,47.329c0.165,0,0.299-0.134,0.299-0.3v-4.4c0-0.166-0.134-0.3-0.299-0.3h-2.4
						c-0.166,0-0.301,0.134-0.301,0.3v4.4c0,0.166,0.135,0.3,0.301,0.3H43.7z"/>
				</g>
				<g>
					<path fill="#6A6C6E" d="M43.842,46.802v-3.57c0-0.069-0.056-0.125-0.125-0.125s-0.125,0.056-0.125,0.125v3.57
						c0,0.065-0.054,0.118-0.118,0.118h-1.948c-0.069,0-0.125,0.057-0.125,0.125s0.056,0.125,0.125,0.125h1.948
						C43.677,47.17,43.842,47.005,43.842,46.802z"/>
				</g>
			</g>
			<g>
				<g>
					<path fill="#94989B" d="M40.7,49.829c0.165,0,0.299-0.134,0.299-0.3v-4.4c0-0.166-0.134-0.3-0.299-0.3h-2.4
						c-0.166,0-0.301,0.134-0.301,0.3v4.4c0,0.166,0.135,0.3,0.301,0.3H40.7z"/>
				</g>
				<g>
					<path fill="#6A6C6E" d="M40.842,49.302v-3.57c0-0.069-0.056-0.125-0.125-0.125s-0.125,0.056-0.125,0.125v3.57
						c0,0.065-0.054,0.118-0.118,0.118h-1.948c-0.069,0-0.125,0.057-0.125,0.125s0.056,0.125,0.125,0.125h1.948
						C40.677,49.67,40.842,49.505,40.842,49.302z"/>
				</g>
			</g>
		</g>
	</g>
	<g>
		<g>
			<g>
				<path fill="#AAAFB3" d="M53.22,44.311c-0.023-0.162-0.174-0.333-0.332-0.377c0,0-4.419-0.523-6.949,2.006
					c-2.529,2.53-2.006,6.949-2.006,6.949c0.045,0.158,0.215,0.309,0.378,0.332l3.2,0.465c0.164,0.024,0.393,0.14,0.509,0.256
					l3.118,3.119c0.117,0.116,0.308,0.116,0.424,0l5.498-5.498c0.117-0.117,0.117-0.308,0-0.424L53.94,48.02
					c-0.116-0.117-0.23-0.346-0.255-0.51L53.22,44.311z"/>
			</g>
			<g>
				<path fill="#6A6C6E" d="M56.663,51.625l-5.241,5.241c-0.048,0.049-0.128,0.049-0.177,0s-0.049-0.128,0-0.177l5.24-5.24
					c0.063-0.063,0.063-0.164,0-0.228l-2.973-2.972c-0.131-0.131-0.252-0.375-0.279-0.557l-0.443-3.049
					c-0.016-0.106-0.123-0.229-0.227-0.258l0,0c-0.002,0.001-0.873-0.098-2.027,0.017c-0.068,0.007-0.129-0.043-0.137-0.112
					c-0.006-0.068,0.045-0.13,0.112-0.137c1.189-0.117,2.063-0.017,2.1-0.012c0.217,0.059,0.396,0.262,0.426,0.466l0.444,3.049
					c0.019,0.13,0.115,0.323,0.208,0.415l2.972,2.973C56.821,51.205,56.822,51.466,56.663,51.625z"/>
			</g>
		</g>
		<g>
			<g>
				<path fill="#67686B" d="M56.079,53.797c0.141-0.141,0.141-0.372-0.001-0.514l-7.211-7.211c-0.142-0.143-0.372-0.143-0.515-0.001
					l-2.061,2.061c-0.143,0.143-0.143,0.373,0,0.515l7.211,7.211c0.143,0.143,0.373,0.143,0.516,0L56.079,53.797z"/>
			</g>
		</g>
		<g>
			<g>
				<path fill="#67686B" d="M56.475,52.148l-2.411-2.412c-0.221-0.221-0.579-0.221-0.799-0.001l-3.197,3.197
					c-0.221,0.222-0.221,0.579,0,0.8l2.412,2.411L56.475,52.148z"/>
			</g>
		</g>
		<g>
			<g>
				<path fill="none" d="M54.221,54.221c0.694-0.694,0.452-2.063-0.542-3.059l-2.517,2.518
					C52.156,54.674,53.526,54.916,54.221,54.221z"/>
				<path fill="#AAAFB3" d="M53.427,50.316l-3.111,3.111c-0.117,0.117-0.117,0.307,0,0.424l8.061,8.061
					c0.117,0.117,0.307,0.117,0.424,0l3.112-3.111c0.116-0.117,0.116-0.307,0-0.424l-8.062-8.061
					C53.733,50.199,53.544,50.199,53.427,50.316z M60.837,58.334c0.127,0.127,0.127,0.334,0,0.461l-2.043,2.042
					c-0.127,0.128-0.333,0.128-0.46,0l-2.233-2.233c-0.127-0.127-0.127-0.333,0-0.46l2.042-2.042c0.127-0.127,0.333-0.127,0.46,0
					L60.837,58.334z M54.221,54.221c-0.694,0.695-2.064,0.453-3.059-0.541l2.517-2.518C54.673,52.157,54.915,53.526,54.221,54.221z"
					/>
			</g>
			<g>
				<g>
					<path fill="#6A6C6E" d="M61.64,58.328l-7.475-7.475c-0.049-0.049-0.128-0.049-0.177,0c-0.048,0.049-0.048,0.128,0,0.177
						l7.475,7.474c0.046,0.047,0.046,0.121,0,0.168l-2.792,2.791c-0.049,0.049-0.049,0.129,0,0.178s0.128,0.049,0.177,0l2.792-2.793
						C61.783,58.705,61.783,58.471,61.64,58.328z"/>
				</g>
			</g>
		</g>
		<g>
			<g>
				<path fill="#AAAFB3" d="M54.487,52.791c0.117-0.117,0.117-0.307,0-0.424l-5.939-5.94c-0.117-0.117-0.308-0.117-0.424,0
					l-1.698,1.697c-0.116,0.117-0.116,0.308,0,0.424l5.94,5.94c0.117,0.117,0.307,0.117,0.424,0L54.487,52.791z"/>
			</g>
			<g>
				<path fill="#6A6C6E" d="M54.215,52.317l-5.353-5.353c-0.049-0.049-0.129-0.049-0.178,0s-0.049,0.127,0,0.176l5.354,5.354
					c0.046,0.046,0.046,0.121,0,0.167l-1.377,1.378c-0.049,0.049-0.049,0.128,0,0.176c0.048,0.049,0.127,0.049,0.176,0l1.378-1.377
					C54.358,52.694,54.358,52.461,54.215,52.317z"/>
			</g>
		</g>
	</g>
</g>
</svg>
