<?xml version="1.0" encoding="utf-8"?>
<!-- Generator: Adobe Illustrator 15.0.0, SVG Export Plug-In . SVG Version: 6.00 Build 0)  -->
<!DOCTYPE svg PUBLIC "-//W3C//DTD SVG 1.1//EN" "http://www.w3.org/Graphics/SVG/1.1/DTD/svg11.dtd">
<svg version="1.1" id="Layer_1" xmlns="http://www.w3.org/2000/svg" xmlns:xlink="http://www.w3.org/1999/xlink" x="0px" y="0px"
	 width="64px" height="64px" viewBox="0 0 64 64" enable-background="new 0 0 64 64" xml:space="preserve">
<g>
	<g>
		<circle fill="#FFDD67" cx="32" cy="29" r="27"/>
	</g>
	<g>
		<g opacity="0.8" enable-background="new    ">
			<path fill="#FF717F" d="M46.568,12.665c3.918-0.69,7.647,1.925,8.339,5.842c0.69,3.915-1.919,7.648-5.837,8.34
				c-3.916,0.689-7.65-1.925-8.342-5.84C40.036,17.091,42.652,13.355,46.568,12.665z"/>
		</g>
		<g opacity="0.8" enable-background="new    ">
			<circle fill="#FF717F" cx="14.478" cy="25.636" r="7.2"/>
		</g>
	</g>
	<g>
		<path fill="#664E27" d="M18.906,29.377c2.422,0.904,4.678,1.314,6.941,1.451c2.254,0.135,4.475-0.027,6.664-0.408
			c2.187-0.396,4.326-1.002,6.396-1.901c2.075-0.902,4.06-2.056,6.026-3.731c-0.517,2.577-2.27,4.836-4.383,6.461
			c-2.136,1.639-4.7,2.693-7.343,3.16c-2.636,0.459-5.404,0.348-7.972-0.467C22.699,33.141,20.277,31.615,18.906,29.377z"/>
	</g>
	<g>
		<g>
			<g>
				<g>
					<path fill="#FFFFFF" d="M27.314,47.541l-1.355-0.002c2.496,0.004,2.489-4.279,0.025-4.281h-11.09c0,0,5.366-0.258,4.65-2.877
						c-0.492-1.797-3.551-1.525-5.926-1.025c-2.824,0.598-3.634,0.973-5.195,1.719C0.116,45.049,2.669,55.539,6.898,58.75
						c2.941,2.232,5.168,2.27,8.203,2.27c2.474,0,8.494,0,8.494,0c2.924,0.004,3.387-4.014,0.465-4.02l2.265,0.006
						c2.53,0.002,2.524-4.406-0.007-4.41h1.002C30.958,52.604,30.953,47.549,27.314,47.541z"/>
					<path fill="#A5B3B2" d="M23.603,62c0,0-0.008,0-0.01,0h-8.492c-2.967,0-5.529,0-8.77-2.459
						c-2.838-2.154-4.677-6.865-4.277-10.953c0.367-3.754,2.485-6.738,5.967-8.402c1.688-0.809,2.555-1.189,5.406-1.789
						C14.665,38.133,15.757,38,16.673,38c2.654,0,3.525,1.15,3.789,2.115c0.212,0.771,0.093,1.51-0.343,2.131
						c-0.007,0.01-0.015,0.02-0.021,0.029h5.885c1.842,0.004,2.803,1.574,2.803,3.123c-0.001,0.455-0.086,0.914-0.251,1.334
						c1.624,0.484,2.466,1.924,2.464,3.35c0,1.32-0.73,2.654-2.138,3.219c0.208,0.467,0.313,0.988,0.312,1.51
						c0,1.42-0.791,2.854-2.309,3.129c0.082,0.275,0.123,0.559,0.123,0.84C26.987,60.363,25.72,62,23.603,62z M16.673,39.965
						c-0.787,0-1.75,0.119-2.862,0.354c-2.753,0.582-3.5,0.936-4.986,1.648c-3.646,1.742-4.661,4.67-4.871,6.818
						c-0.37,3.793,1.494,7.645,3.511,9.174c2.736,2.078,4.791,2.078,7.637,2.078h8.502c1.075,0,1.476-0.773,1.477-1.26
						c0-0.51-0.362-0.795-1.02-0.797h-0.002c-0.527,0-0.954-0.441-0.953-0.982c0.002-0.541,0.429-0.98,0.955-0.98h0.002l2.265,0.006
						c0.911,0,0.938-1.09,0.938-1.215s-0.025-1.229-0.949-1.23c-0.526,0-0.953-0.439-0.952-0.982c0-0.543,0.428-0.982,0.954-0.982
						h1.002c1.309,0,1.771-0.826,1.771-1.533c0.001-0.717-0.465-1.553-1.778-1.557l-1.355-0.002l0.003-1.965
						c0.872,0,0.917-0.967,0.918-1.16c0-0.119-0.025-1.156-0.895-1.158H14.894c-0.52,0-0.942-0.424-0.954-0.957
						c-0.014-0.533,0.39-0.979,0.907-1.004c1.211-0.063,3.232-0.479,3.724-1.18c0.077-0.109,0.116-0.229,0.054-0.451
						C18.463,40.053,17.333,39.965,16.673,39.965z"/>
				</g>
			</g>
		</g>
		<g>
			<path fill="#A5B3B2" d="M25.958,48.521h-8.682c-0.525,0-0.954-0.439-0.954-0.982c0-0.541,0.429-0.982,0.954-0.982h8.682
				c0.526,0,0.954,0.441,0.954,0.982C26.913,48.082,26.485,48.521,25.958,48.521z"/>
		</g>
		<g>
			<path fill="#A5B3B2" d="M26.318,53.578h-9.041c-0.525,0-0.954-0.439-0.954-0.982c0-0.541,0.429-0.982,0.954-0.982h9.041
				c0.527,0,0.955,0.441,0.955,0.982C27.273,53.139,26.845,53.578,26.318,53.578z"/>
		</g>
		<g>
			<path fill="#A5B3B2" d="M24.06,57.98h-6.783c-0.525,0-0.954-0.439-0.954-0.98s0.429-0.982,0.954-0.982h6.783
				c0.526,0,0.953,0.441,0.953,0.982S24.586,57.98,24.06,57.98z"/>
		</g>
	</g>
	<g>
		<g>
			<g>
				<g>
					<path fill="#FFFFFF" d="M36.679,52.596h1.004c-2.533,0.004-2.539,4.412-0.006,4.41L39.94,57
						c-2.924,0.006-2.461,4.023,0.463,4.02c0,0,6.022,0,8.494,0c3.037,0,5.264-0.037,8.203-2.27
						c4.229-3.211,6.783-13.701-1.523-17.676c-1.562-0.746-2.373-1.121-5.196-1.719c-2.373-0.5-5.434-0.771-5.926,1.025
						c-0.716,2.619,4.653,2.877,4.653,2.877H38.017c-2.465,0.002-2.473,4.285,0.025,4.281l-1.357,0.002
						C33.046,47.549,33.042,52.604,36.679,52.596z"/>
					<path fill="#A5B3B2" d="M40.397,62c-2.119,0-3.385-1.637-3.387-3.221c0-0.281,0.043-0.566,0.125-0.84
						c-1.52-0.277-2.311-1.711-2.313-3.129c0-0.521,0.105-1.045,0.316-1.512c-1.41-0.564-2.139-1.896-2.14-3.219
						c0-1.424,0.839-2.863,2.464-3.348c-0.166-0.42-0.25-0.879-0.252-1.334c0-1.549,0.963-3.119,2.803-3.123h5.887
						c-0.006-0.01-0.015-0.02-0.021-0.029c-0.437-0.621-0.556-1.359-0.344-2.131C43.8,39.15,44.672,38,47.326,38
						c0.916,0,2.009,0.133,3.247,0.396c2.85,0.6,3.718,0.98,5.404,1.789c3.483,1.664,5.6,4.648,5.968,8.402
						c0.4,4.088-1.438,8.799-4.276,10.953C54.429,62,51.867,62,48.897,62H40.397z M39.938,57.98
						c-0.656,0.002-1.018,0.287-1.018,0.797c0.002,0.486,0.4,1.26,1.477,1.26v0.982l0.004-0.982h8.496c2.847,0,4.901,0,7.637-2.078
						c2.019-1.529,3.882-5.381,3.512-9.174c-0.208-2.148-1.224-5.076-4.871-6.818c-1.486-0.713-2.233-1.066-4.986-1.648
						c-1.11-0.234-2.073-0.354-2.862-0.354c-0.659,0-1.788,0.088-1.952,0.682c-0.061,0.223-0.022,0.342,0.055,0.451
						c0.491,0.701,2.513,1.117,3.724,1.18c0.519,0.025,0.921,0.471,0.906,1.004c-0.01,0.533-0.433,0.957-0.95,0.957H38.017
						c-0.871,0.002-0.895,1.039-0.895,1.158c0,0.193,0.045,1.16,0.916,1.16c0,0,0,0,0.002,0l0,0c0,0,0,0,0.002,0
						c0.527,0,0.953,0.439,0.953,0.982c0.002,0.523-0.398,0.953-0.902,0.982l0,0h-0.002l0,0c0,0,0,0-0.002,0c0,0,0-0.002,0,0
						c-0.002,0-0.002,0-0.002,0l0,0l0,0c0,0,0,0-0.002,0l0,0h-0.002l0,0c0,0,0,0-0.002,0l0,0l0,0c-0.002,0-0.002,0-0.002,0
						s0,0-0.002,0l0,0c-0.002,0-0.002,0-0.002,0l0,0h-0.002l0,0l0,0c-0.002,0-0.002,0-0.002,0l0,0h-0.002c0,0,0,0-0.002,0l0,0l0,0
						h-0.002l0,0c0,0,0,0-0.002,0l0,0c0,0,0,0-0.002,0l0,0c0,0,0,0-0.002,0l0,0l0,0h-0.004l0,0c0,0,0,0-0.002,0l0,0l0,0h-0.002l0,0
						c-0.002,0-0.006,0-0.01,0l0,0l-1.355,0.002c-1.314,0.004-1.779,0.84-1.779,1.555c0.002,0.709,0.463,1.535,1.764,1.535h1.01l0,0
						h0.002c0.525,0,0.953,0.439,0.955,0.982c0,0.543-0.428,0.982-0.955,0.982c-0.922,0.002-0.949,1.104-0.949,1.23
						c0,0.125,0.027,1.215,0.938,1.215l2.268-0.006h0.002c0.526,0,0.953,0.439,0.955,0.98c0,0.541-0.427,0.982-0.953,0.982H39.938z"
						/>
				</g>
			</g>
		</g>
		<g>
			<path fill="#A5B3B2" d="M46.724,48.521h-8.682c-0.527,0-0.955-0.439-0.955-0.982c0-0.541,0.428-0.982,0.955-0.982h8.682
				c0.525,0,0.952,0.441,0.952,0.982C47.676,48.082,47.249,48.521,46.724,48.521z"/>
		</g>
		<g>
			<path fill="#A5B3B2" d="M46.724,53.578h-9.041c-0.527,0-0.955-0.439-0.955-0.982c0-0.541,0.428-0.982,0.955-0.982h9.041
				c0.525,0,0.952,0.441,0.952,0.982C47.676,53.139,47.249,53.578,46.724,53.578z"/>
		</g>
		<g>
			<path fill="#A5B3B2" d="M46.724,57.98H39.94c-0.529,0-0.955-0.439-0.955-0.98s0.426-0.982,0.955-0.982h6.783
				c0.525,0,0.952,0.441,0.952,0.982S47.249,57.98,46.724,57.98z"/>
		</g>
	</g>
	<g>
		<path fill="#664E27" d="M25.613,14.895c-3.751-4.839-11.834-3.414-13.701,2.416c-0.111,0.355,0.415,0.744,1.022,1.02
			c3.063-3.442,8.009-4.314,12.065-2.127C25.476,15.735,25.838,15.19,25.613,14.895z"/>
		<path fill="#664E27" d="M46.909,11.14c-3.751-4.84-11.833-3.414-13.703,2.415c-0.11,0.356,0.415,0.746,1.022,1.021
			c3.063-3.443,8.01-4.315,12.066-2.128C46.771,11.98,47.133,11.436,46.909,11.14z"/>
	</g>
</g>
</svg>
