<?xml version="1.0" encoding="utf-8"?>
<!-- Generator: Adobe Illustrator 15.0.0, SVG Export Plug-In . SVG Version: 6.00 Build 0)  -->
<!DOCTYPE svg PUBLIC "-//W3C//DTD SVG 1.1//EN" "http://www.w3.org/Graphics/SVG/1.1/DTD/svg11.dtd">
<svg version="1.1" id="Layer_1" xmlns="http://www.w3.org/2000/svg" xmlns:xlink="http://www.w3.org/1999/xlink" x="0px" y="0px"
	 width="64px" height="64px" viewBox="0 0 64 64" enable-background="new 0 0 64 64" xml:space="preserve">
<g>
	<g>
		<path fill="#FFDD67" d="M16.601,44.718c0.25,2.283,2.316,3.927,4.616,3.671l0.035-0.004c2.3-0.257,3.963-2.315,3.713-4.599
			l-3.576-32.635c-0.25-2.282-2.319-3.926-4.618-3.67l-0.036,0.004c-2.299,0.256-3.96,2.316-3.71,4.598L16.601,44.718z"/>
		<path fill="#EBA352" d="M19.241,47.663l0.042-0.005c2.297-0.257,3.94-2.344,3.688-4.629l-3.575-32.636
			c-0.135-1.238-0.808-2.291-1.76-2.951c1.929,0.181,3.531,1.686,3.75,3.679l3.576,32.635c0.25,2.285-1.396,4.37-3.695,4.626
			l-0.037,0.005c-1.051,0.116-2.052-0.162-2.851-0.719C18.656,47.696,18.947,47.695,19.241,47.663z"/>
	</g>
	<g>
		<g>
			<path fill="#FFDD67" d="M45.908,36.01v-4.2c0,0-22.27,3.865-24.468-2.754l-6.029,4.806c0,0-2.927,11.961,0.172,19.082
				c4.612,10.605,26.524,14.664,34-3.387C51.068,45.968,51.27,35.938,45.908,36.01z"/>
		</g>
		<g>
			<path fill="#FFDD67" d="M38.433,38.748c-0.11,2.293,1.671,4.247,3.981,4.36l0.037,0.002c2.311,0.113,4.274-1.656,4.386-3.949
				l1.585-32.795c0.111-2.293-1.673-4.247-3.982-4.36l-0.037-0.002c-2.311-0.114-4.273,1.655-4.384,3.948L38.433,38.748z"/>
			<path fill="#EBA352" d="M40.578,42.076l0.042,0.002c2.308,0.114,4.257-1.686,4.368-3.982L46.574,5.3
				c0.06-1.244-0.439-2.39-1.276-3.193c1.877,0.486,3.224,2.227,3.126,4.23l-1.586,32.795c-0.111,2.295-2.063,4.092-4.373,3.979
				l-0.039-0.002c-1.055-0.052-2-0.486-2.701-1.164C39.994,42.017,40.283,42.062,40.578,42.076z"/>
		</g>
		<path fill="#FFDD67" d="M22.297,26.333c0-2.347,1.867-4.251,4.172-4.251h0.066c2.305,0,4.174,1.904,4.174,4.251v6.573
			c0,2.349-1.869,4.255-4.174,4.255h-0.066c-2.305,0-4.172-1.906-4.172-4.255V26.333z"/>
		<path fill="#FFDD67" d="M30.709,25.858c0-2.347,1.865-4.251,4.17-4.251h0.07c2.301,0,4.17,1.904,4.17,4.251v6.573
			c0,2.348-1.869,4.254-4.17,4.254h-0.07c-2.305,0-4.17-1.906-4.17-4.254V25.858z"/>
		<path fill="#EBA352" d="M25.264,35.581h0.053c2.305,0,4.133-1.846,4.133-4.195v-6.578c0-0.633-0.135-1.234-0.379-1.776
			c0.996,0.777,1.639,2.002,1.639,3.38v6.577c0,2.348-1.83,4.171-4.132,4.171h-0.054c-1.682,0-3.131-1.004-3.791-2.466
			C23.434,35.243,24.313,35.581,25.264,35.581z"/>
		<path fill="#EBA352" d="M33.659,35.106h0.05c2.306,0,4.151-1.846,4.151-4.196v-6.578c0-0.633-0.14-1.234-0.378-1.776
			c0.994,0.777,1.637,2.002,1.637,3.38v6.578c0,2.347-1.846,4.17-4.147,4.17h-0.054c-1.682,0-3.132-1.003-3.792-2.466
			C31.83,34.768,32.707,35.106,33.659,35.106z"/>
		<path fill="#EBA352" d="M40.848,31.446c-3.129-2.402-4.137,0.746-9.842,0.304c-2.498-0.192-4.168,4.976-0.598,7.3
			c4.963,3.228,5.774-0.499,6.898,1.109c1.193,1.709,2.439,2.153,3.394,4.087c0.695,1.403,7.418,0.08,8.394-2.543
			C50.963,36.666,45.811,35.262,40.848,31.446z"/>
		<path fill="#FFDD67" d="M41.184,32.394c-3.25-2.5-4.301,0.777-10.239,0.318c-2.597-0.203-4.335,5.174-0.62,7.591
			c5.163,3.36,6.007-0.519,7.173,1.156c1.243,1.775,2.541,2.238,3.534,4.25c0.721,1.463-2.135,6.385-2.135,6.385
			s6.179,5.558,7.838,2.948c3.077-4.847,2.785-8.957,3.027-11.979C50.312,36.104,46.348,36.364,41.184,32.394z"/>
		<g>
			<path fill="#EBA352" d="M47.539,36.559c3.527,2.149,2.303,12.009-0.971,16.47c-8.145,11.09-23.196,9.27-29.678,2.162
				c5.857,7.986,21.838,10.434,30.623-1.023C51.029,49.577,53.161,38.425,47.539,36.559z"/>
		</g>
		<g>
			<path fill="#EBA352" d="M40.256,45.765c0.223,0.452,0.104,1.236-0.168,2.104c0.545-1.307,0.956-2.682,0.63-3.346
				c-0.993-2.012-1.626-2.473-2.867-4.25c-1.17-1.677-2.012,2.203-7.177-1.157c-1.909-1.242-2.371-3.265-2.021-4.913
				c-0.957,1.722-0.873,4.572,1.563,6.157c5.162,3.358,6.006-0.52,7.174,1.155C38.631,43.292,39.266,43.753,40.256,45.765z"/>
		</g>
		<g>
			<path fill="#EBA352" d="M27.733,53.706c0-6.521,4.708-11.865,10.694-12.406c-0.729-0.204-1.49-0.328-2.281-0.328
				c-5.129,0-9.285,4.43-9.285,9.891c0,1.576,0.355,3.057,0.971,4.377C27.773,54.735,27.733,54.226,27.733,53.706z"/>
			<path fill="#EBA352" d="M25.899,41.487c-1.006-0.289-2.02-0.18-2.909,0.224c0.382,0.025,0.766,0.081,1.15,0.192
				c2.938,0.846,4.717,3.979,4.114,7.115c0.356-0.484,0.638-1.047,0.796-1.682C29.695,44.792,28.285,42.175,25.899,41.487z"/>
		</g>
	</g>
</g>
</svg>
