<?xml version="1.0" encoding="utf-8"?>
<!-- Generator: Adobe Illustrator 15.0.0, SVG Export Plug-In . SVG Version: 6.00 Build 0)  -->
<!DOCTYPE svg PUBLIC "-//W3C//DTD SVG 1.1//EN" "http://www.w3.org/Graphics/SVG/1.1/DTD/svg11.dtd">
<svg version="1.1" id="Layer_1" xmlns="http://www.w3.org/2000/svg" xmlns:xlink="http://www.w3.org/1999/xlink" x="0px" y="0px"
	 width="64px" height="64px" viewBox="0 0 64 64" enable-background="new 0 0 64 64" xml:space="preserve">
<g>
	<g>
		<path fill="#D6A57C" d="M16.601,44.721c0.25,2.281,2.316,3.926,4.616,3.67l0.035-0.004c2.3-0.256,3.963-2.316,3.713-4.598
			l-3.576-32.637c-0.25-2.282-2.319-3.926-4.618-3.67l-0.036,0.004c-2.299,0.256-3.96,2.316-3.71,4.598L16.601,44.721z"/>
		<path fill="#B58360" d="M19.241,47.664l0.042-0.004c2.297-0.256,3.94-2.344,3.688-4.629l-3.575-32.636
			c-0.135-1.238-0.808-2.291-1.76-2.951c1.929,0.181,3.531,1.686,3.75,3.679l3.576,32.637c0.25,2.283-1.396,4.369-3.695,4.625
			l-0.037,0.005c-1.051,0.116-2.052-0.161-2.851-0.719C18.656,47.698,18.947,47.697,19.241,47.664z"/>
	</g>
	<g>
		<g>
			<path fill="#D6A57C" d="M45.908,36.012v-4.2c0,0-22.27,3.865-24.468-2.754l-6.029,4.806c0,0-2.927,11.962,0.172,19.082
				c4.612,10.607,26.524,14.664,34-3.385C51.068,45.969,51.27,35.939,45.908,36.012z"/>
		</g>
		<g>
			<path fill="#D6A57C" d="M38.433,38.75c-0.11,2.293,1.671,4.246,3.981,4.359l0.037,0.002c2.311,0.113,4.274-1.654,4.386-3.947
				l1.585-32.796c0.111-2.293-1.673-4.247-3.982-4.36l-0.037-0.002c-2.311-0.114-4.273,1.655-4.384,3.948L38.433,38.75z"/>
			<path fill="#B58360" d="M40.578,42.078l0.042,0.002c2.308,0.113,4.257-1.686,4.368-3.982l1.586-32.796
				c0.06-1.244-0.439-2.39-1.276-3.193c1.877,0.486,3.224,2.227,3.126,4.23l-1.586,32.796c-0.111,2.295-2.063,4.091-4.373,3.978
				l-0.039-0.002c-1.055-0.052-2-0.486-2.701-1.164C39.994,42.018,40.283,42.063,40.578,42.078z"/>
		</g>
		<path fill="#D6A57C" d="M22.297,26.334c0-2.347,1.867-4.251,4.172-4.251h0.066c2.305,0,4.174,1.904,4.174,4.251v6.574
			c0,2.348-1.869,4.254-4.174,4.254h-0.066c-2.305,0-4.172-1.906-4.172-4.254V26.334z"/>
		<path fill="#D6A57C" d="M30.709,25.859c0-2.347,1.865-4.251,4.17-4.251h0.07c2.301,0,4.17,1.904,4.17,4.251v6.573
			c0,2.349-1.869,4.255-4.17,4.255h-0.07c-2.305,0-4.17-1.906-4.17-4.255V25.859z"/>
		<path fill="#B58360" d="M25.264,35.583h0.053c2.305,0,4.133-1.846,4.133-4.196V24.81c0-0.633-0.135-1.234-0.379-1.776
			c0.996,0.777,1.639,2.002,1.639,3.38v6.578c0,2.348-1.83,4.17-4.132,4.17h-0.054c-1.682,0-3.131-1.002-3.791-2.465
			C23.434,35.244,24.313,35.583,25.264,35.583z"/>
		<path fill="#B58360" d="M33.659,35.107h0.05c2.306,0,4.151-1.846,4.151-4.195v-6.578c0-0.633-0.14-1.234-0.378-1.776
			c0.994,0.777,1.637,2.002,1.637,3.38v6.578c0,2.349-1.846,4.171-4.147,4.171h-0.054c-1.682,0-3.132-1.003-3.792-2.465
			C31.83,34.77,32.707,35.107,33.659,35.107z"/>
		<path fill="#B58360" d="M40.848,31.447c-3.129-2.402-4.137,0.746-9.842,0.305c-2.498-0.193-4.168,4.977-0.598,7.299
			c4.963,3.229,5.774-0.498,6.898,1.11c1.193,1.71,2.439,2.153,3.394,4.087c0.695,1.404,7.418,0.08,8.394-2.543
			C50.963,36.668,45.811,35.264,40.848,31.447z"/>
		<path fill="#D6A57C" d="M41.184,32.396c-3.25-2.501-4.301,0.776-10.239,0.316c-2.597-0.202-4.335,5.176-0.62,7.592
			c5.163,3.361,6.007-0.518,7.173,1.157c1.243,1.775,2.541,2.239,3.534,4.251c0.721,1.462-2.135,6.385-2.135,6.385
			s6.179,5.557,7.838,2.947c3.077-4.846,2.785-8.957,3.027-11.979C50.312,36.107,46.348,36.366,41.184,32.396z"/>
		<g>
			<g>
				<path fill="#B58360" d="M47.539,36.561c3.527,2.15,2.303,12.008-0.971,16.469c-8.145,11.092-23.196,9.271-29.678,2.164
					c5.857,7.984,21.838,10.433,30.623-1.024C51.029,49.579,53.161,38.426,47.539,36.561z"/>
			</g>
		</g>
		<g>
			<g>
				<path fill="#B58360" d="M40.256,45.767c0.223,0.452,0.104,1.237-0.168,2.103c0.545-1.307,0.956-2.681,0.63-3.345
					c-0.993-2.011-1.626-2.473-2.867-4.251c-1.17-1.676-2.012,2.205-7.177-1.156c-1.909-1.242-2.371-3.266-2.021-4.912
					c-0.957,1.721-0.873,4.571,1.563,6.156c5.162,3.359,6.006-0.52,7.174,1.154C38.631,43.294,39.266,43.756,40.256,45.767z"/>
			</g>
		</g>
		<g>
			<g>
				<path fill="#B58360" d="M27.733,53.707c0-6.521,4.708-11.863,10.694-12.404c-0.729-0.205-1.49-0.33-2.281-0.33
					c-5.129,0-9.285,4.43-9.285,9.892c0,1.575,0.355,3.058,0.971,4.378C27.773,54.737,27.733,54.227,27.733,53.707z"/>
				<path fill="#B58360" d="M25.899,41.488c-1.006-0.287-2.02-0.179-2.909,0.225c0.382,0.025,0.766,0.082,1.15,0.193
					c2.938,0.844,4.717,3.978,4.114,7.114c0.356-0.485,0.638-1.048,0.796-1.683C29.695,44.793,28.285,42.176,25.899,41.488z"/>
			</g>
		</g>
	</g>
</g>
</svg>
