<?xml version="1.0" encoding="utf-8"?>
<!-- Generator: Adobe Illustrator 15.0.0, SVG Export Plug-In . SVG Version: 6.00 Build 0)  -->
<!DOCTYPE svg PUBLIC "-//W3C//DTD SVG 1.1//EN" "http://www.w3.org/Graphics/SVG/1.1/DTD/svg11.dtd">
<svg version="1.1" id="Layer_1" xmlns="http://www.w3.org/2000/svg" xmlns:xlink="http://www.w3.org/1999/xlink" x="0px" y="0px"
	 width="64px" height="64px" viewBox="0 0 64 64" enable-background="new 0 0 64 64" xml:space="preserve">
<circle fill="#FFDD67" cx="32" cy="32" r="30"/>
<g>
	<path fill="#664E27" d="M48,37.5c0,6.461-5.314,14-16,14c-10.688,0-16-7.539-16-14c0,0,5.311,0,16,0C42.686,37.5,48,37.5,48,37.5z"
		/>
</g>
<g>
	<path fill="#664E27" d="M32,52.5c-11.041,0-17-7.729-17-15v-1h34v1C49,44.771,43.043,52.5,32,52.5z M17.045,38.5
		c0.523,5.99,5.727,12,14.955,12c9.229,0,14.434-6.01,14.957-12H17.045z"/>
</g>
<g>
	<path fill="#74E063" d="M32,40H22c0,0,0,2.787,0,5.92c0,10.703,4.478,16.076,9.998,16.08c5.523,0,10-5.377,10.002-16.082
		C42,42.787,42,40,42,40H32z"/>
</g>
<path opacity="0.33" enable-background="new    " d="M39.642,40v5.66c-0.001,8.348-3.001,13.74-7.643,13.74
	c-4.642-0.003-7.64-5.396-7.64-13.738V40h-0.805v5.662c0,8.878,3.314,14.617,8.443,14.621h0.001c5.13,0,8.446-5.74,8.448-14.623V40
	H39.642z"/>
<rect x="22" y="40" opacity="0.33" enable-background="new    " width="20" height="3.385"/>
<g opacity="0.33">
	<path d="M28.342,45.326c0.971-0.293,1.721-0.121,2.256,0.518c-0.646,1.166-1.043,2.01-1.191,2.535
		c0.008,0.979,0.237,1.517,0.691,1.611c0.362,0.022,0.713-0.275,1.051-0.896l0.8-1.748c0.548-1.092,1.317-1.658,2.312-1.699
		c0.574,0.041,1.088,0.251,1.545,0.629c0.457,0.379,0.757,0.804,0.9,1.277c0.145,0.475,0.217,0.768,0.221,0.881l1.281,0.13
		c0.295,0.629,0.26,1.226-0.104,1.787l-1.338-0.13c-0.006,0.545-0.292,1.268-0.864,2.168c-0.808,0.037-1.51-0.23-2.108-0.801
		c0.777-1.102,1.141-1.982,1.088-2.645c0.069-0.621-0.139-0.949-0.627-0.986c-0.276-0.021-0.636,0.416-1.076,1.313
		c-0.392,1.028-0.844,1.791-1.352,2.287s-1.123,0.719-1.852,0.662c-0.981-0.072-1.734-0.557-2.26-1.453
		c-0.375-0.57-0.586-1.006-0.635-1.306l-1.293-0.033c-0.316-0.911-0.238-1.583,0.236-2.013l1.318,0.109
		C27.402,47.006,27.736,46.273,28.342,45.326z"/>
</g>
<path fill="#664E27" d="M22.5,22.774l-2.34-0.814c-0.838-0.355-1.26-0.759-1.271-1.211c0.074-0.572,0.743-0.913,2.007-1.022
	c0.691,0.129,1.824,0.535,3.398,1.216c0.767-0.728,0.908-1.677,0.426-2.851c-1.286-0.653-2.268-0.992-2.941-1.014v-1.647
	c-0.605-0.544-1.479-0.573-2.622-0.087l0.095,1.607c-0.381,0.092-0.92,0.397-1.616,0.921c-1.102,0.743-1.646,1.729-1.635,2.953
	c0.005,0.909,0.358,1.649,1.052,2.229c0.695,0.579,1.728,1.062,3.096,1.443c1.204,0.453,1.809,0.854,1.809,1.2
	c0.005,0.607-0.396,0.9-1.205,0.879c-0.848,0.133-2.023-0.228-3.528-1.078c-0.673,0.801-0.942,1.699-0.809,2.697
	c1.223,0.617,2.187,0.897,2.89,0.85l-0.023,1.673c0.763,0.394,1.535,0.375,2.315-0.055l0.03-1.603
	c0.146-0.019,0.518-0.138,1.113-0.364c0.597-0.228,1.113-0.643,1.555-1.248c0.438-0.607,0.652-1.266,0.646-1.98
	C24.78,24.238,23.968,23.34,22.5,22.774z"/>
<path fill="#664E27" d="M45.5,22.774l-2.34-0.814c-0.838-0.355-1.26-0.759-1.27-1.211c0.073-0.572,0.742-0.913,2.006-1.022
	c0.691,0.129,1.824,0.535,3.398,1.216c0.766-0.728,0.908-1.677,0.426-2.851c-1.287-0.653-2.268-0.992-2.941-1.014v-1.647
	c-0.605-0.544-1.479-0.573-2.622-0.087l0.095,1.607c-0.381,0.092-0.92,0.397-1.616,0.921c-1.103,0.743-1.646,1.729-1.636,2.953
	c0.006,0.909,0.358,1.649,1.053,2.229c0.695,0.579,1.728,1.062,3.096,1.443c1.204,0.453,1.808,0.854,1.809,1.2
	c0.005,0.607-0.396,0.9-1.205,0.879c-0.848,0.133-2.023-0.228-3.528-1.078c-0.673,0.801-0.942,1.699-0.81,2.697
	c1.224,0.617,2.188,0.897,2.891,0.85l-0.023,1.673c0.763,0.394,1.535,0.375,2.315-0.055l0.03-1.603
	c0.146-0.019,0.518-0.138,1.113-0.364c0.596-0.228,1.113-0.643,1.554-1.248c0.438-0.607,0.653-1.266,0.646-1.98
	C47.779,24.238,46.968,23.34,45.5,22.774z"/>
</svg>
