<?xml version="1.0" encoding="utf-8"?>
<!-- Generator: Adobe Illustrator 15.0.0, SVG Export Plug-In . SVG Version: 6.00 Build 0)  -->
<!DOCTYPE svg PUBLIC "-//W3C//DTD SVG 1.1//EN" "http://www.w3.org/Graphics/SVG/1.1/DTD/svg11.dtd">
<svg version="1.1" id="Layer_1" xmlns="http://www.w3.org/2000/svg" xmlns:xlink="http://www.w3.org/1999/xlink" x="0px" y="0px"
	 width="64px" height="64px" viewBox="0 0 64 64" enable-background="new 0 0 64 64" xml:space="preserve">
<g>
	<g>
		<g>
			<path fill="#FFDD67" d="M59.345,29.346c0,15.106-12.237,27.346-27.345,27.346S4.653,44.452,4.653,29.346
				C4.653,14.24,16.893,2,32,2S59.345,14.24,59.345,29.346z"/>
		</g>
		<path fill="#917524" d="M48.04,10.664c-3.339-1.939-7.368-2.293-10.993-0.961c-0.501,0.193-1.297-1.643-0.688-1.875
			c4.18-1.536,8.832-1.131,12.684,1.109C49.604,9.273,48.498,10.942,48.04,10.664z"/>
		<path fill="#917524" d="M24.93,14.007c-3.337-1.939-7.367-2.293-10.994-0.962c-0.499,0.195-1.297-1.641-0.687-1.874
			c4.181-1.536,8.833-1.13,12.685,1.11C26.493,12.615,25.39,14.284,24.93,14.007z"/>
		<path fill="#664E27" d="M39.605,37.776H24.393c-0.796,0-0.796-2.735,0-2.735h15.213C40.402,35.041,40.402,37.776,39.605,37.776z"
			/>
		<g>
			<g>
				<circle fill="#FFFFFF" cx="21.444" cy="21.17" r="7.342"/>
				<circle fill="#664E27" cx="23.447" cy="18.166" r="3.671"/>
			</g>
			<g>
				<circle fill="#FFFFFF" cx="42.554" cy="21.17" r="7.342"/>
				<circle fill="#664E27" cx="44.557" cy="18.166" r="3.672"/>
			</g>
		</g>
	</g>
	<g>
		<path fill="#FFFFFF" d="M40.949,40.836c-4.258,1.83-15.238,5.086-17.66,3.396c-1.087-0.761-1.145-2.177-1.251-4.604
			c-0.106-2.395-2.852-4.567-4.583-4.484c-2.073,0.098-2.986,1.763-1.908,3.75c2.369,4.357-0.375,6.367,0.076,9.835
			c0.26,2.011,0.199,5.417,3.965,9.138c4.258,4.208,10.295,3.221,12.358,2.79c2.434-0.507,3.447-0.776,3.832-1.973
			c0.426-1.324,0.086-1.573,0.273-2.058c0.41-1.059,0.722-0.991,0.799-2.121c0.084-1.23-0.877-1.747-0.768-2.357
			c0.222-1.271,1.311-1.285-0.244-3.973c3.498-1.156,5.748-2.113,7.662-3.668C46.968,41.695,43.208,39.863,40.949,40.836z"/>
		<path fill="#A5B3B2" d="M28.098,62L28.098,62c-3.729,0-6.923-1.21-9.238-3.498c-3.587-3.544-3.928-6.812-4.152-8.974
			c-0.025-0.244-0.05-0.474-0.077-0.688c-0.195-1.502,0.132-2.721,0.446-3.902c0.467-1.744,0.869-3.25-0.422-5.627
			c-0.702-1.293-0.747-2.604-0.124-3.598c0.559-0.89,1.606-1.434,2.874-1.493c0.018-0.001,0.132-0.004,0.148-0.004
			c2.313,0,5.357,2.531,5.484,5.374c0.102,2.314,0.18,3.431,0.854,3.902c0.122,0.085,0.532,0.285,1.685,0.285
			c4.101,0,11.796-2.425,14.952-3.782c0.53-0.229,1.143-0.349,1.769-0.349c1.607,0,2.994,0.752,3.449,1.873
			c0.273,0.674,0.431,2.049-1.586,3.686c-1.875,1.522-4.014,2.481-6.939,3.49c0.688,1.502,0.463,2.214,0.075,2.999
			c-0.093,0.189-0.169,0.344-0.212,0.534c0.031,0.065,0.101,0.177,0.153,0.262c0.271,0.437,0.678,1.097,0.611,2.074
			c-0.058,0.847-0.237,1.209-0.505,1.666c-0.109,0.188-0.223,0.38-0.351,0.709c-0.007,0.028-0.001,0.12,0.003,0.188
			c0.018,0.346,0.047,0.869-0.26,1.822c-0.572,1.779-2.25,2.129-4.57,2.611C30.748,61.856,29.418,62,28.098,62z M17.553,36.069
			c-0.463,0.021-1.018,0.136-1.293,0.575c-0.277,0.441-0.211,1.109,0.182,1.833c1.623,2.989,1.067,5.069,0.576,6.905
			c-0.284,1.065-0.553,2.072-0.402,3.236c0.029,0.228,0.055,0.471,0.082,0.731c0.211,2.026,0.5,4.802,3.621,7.884
			c1.955,1.934,4.572,2.913,7.779,2.914l0,0c1.17,0,2.357-0.129,3.629-0.396c2.429-0.506,2.891-0.704,3.094-1.333
			c0.208-0.647,0.191-0.941,0.178-1.2c-0.014-0.24-0.029-0.539,0.112-0.905c0.18-0.464,0.351-0.755,0.476-0.969
			c0.169-0.287,0.232-0.396,0.267-0.899c0.028-0.421-0.139-0.691-0.351-1.034c-0.228-0.368-0.511-0.826-0.405-1.416
			c0.081-0.467,0.247-0.803,0.381-1.073c0.227-0.458,0.376-0.761-0.521-2.31c-0.137-0.237-0.156-0.519-0.051-0.771
			c0.104-0.251,0.322-0.449,0.597-0.539c3.245-1.073,5.487-1.989,7.339-3.491c0.799-0.649,1.186-1.262,1.031-1.641
			c-0.224-0.552-1.65-0.863-2.502-0.496c-3.106,1.336-11.188,3.954-15.795,3.954c-1.309,0-2.254-0.216-2.889-0.658
			c-1.46-1.021-1.534-2.711-1.646-5.269C20.958,37.847,18.774,36.069,17.553,36.069z"/>
	</g>
</g>
</svg>
