<?xml version="1.0" encoding="utf-8"?>
<!-- Generator: Adobe Illustrator 15.0.0, SVG Export Plug-In . SVG Version: 6.00 Build 0)  -->
<!DOCTYPE svg PUBLIC "-//W3C//DTD SVG 1.1//EN" "http://www.w3.org/Graphics/SVG/1.1/DTD/svg11.dtd">
<svg version="1.1" id="Layer_1" xmlns="http://www.w3.org/2000/svg" xmlns:xlink="http://www.w3.org/1999/xlink" x="0px" y="0px"
	 width="64px" height="64px" viewBox="0 0 64 64" enable-background="new 0 0 64 64" xml:space="preserve">
<g>
	<circle fill="#FFDD67" cx="32" cy="32" r="30"/>
	<g>
		<g>
			<path fill="#E5E5E5" d="M3.494,35.486l18.665,15.717l4.91-4.912L11.352,27.626C6.559,22.833-1.3,30.692,3.494,35.486z"/>
			<path fill="#FFFFFF" d="M4.965,33.813L23.14,50.219l2.947-2.945L9.681,29.099C6.903,26.32,2.188,31.035,4.965,33.813z"/>
		</g>
		<polygon fill="#ED4C5C" points="6.47,33.746 23.319,49.418 25.285,47.453 9.614,30.603 		"/>
		
			<ellipse transform="matrix(0.7072 -0.707 0.707 0.7072 -20.3927 15.106)" fill="#A5203C" cx="8.042" cy="32.175" rx="2.223" ry="0.744"/>
		<polygon fill="#51575B" points="14.76,39.875 12.631,42.004 11.95,41.389 14.079,39.26 		"/>
		<polygon fill="#51575B" points="16.617,41.701 14.574,43.744 13.895,43.127 15.936,41.086 		"/>
		<polygon fill="#51575B" points="18.46,43.541 16.501,45.502 15.821,44.885 17.781,42.924 		"/>
		<polygon fill="#51575B" points="20.315,45.371 18.546,47.139 17.87,46.518 19.639,44.75 		"/>
		<polygon fill="#51575B" points="22.173,47.197 20.538,48.832 19.862,48.209 21.499,46.574 		"/>
	</g>
	<path fill="#664E27" d="M43.584,47.633c-2.229-0.678-4.283-0.92-6.328-0.914c-2.035,0.002-4.023,0.273-5.975,0.74
		c-1.945,0.479-3.838,1.145-5.652,2.07c-1.816,0.932-3.535,2.08-5.213,3.697c0.318-2.346,1.771-4.48,3.584-6.059
		c1.828-1.594,4.076-2.691,6.426-3.258c2.352-0.563,4.848-0.613,7.203-0.029C39.963,44.459,42.227,45.693,43.584,47.633z"/>
	<g>
		<g>
			<g>
				<circle fill="#664E27" cx="43.497" cy="30.306" r="4.5"/>
			</g>
			<g>
				<circle fill="#664E27" cx="20.497" cy="30.306" r="4.5"/>
			</g>
		</g>
		<g>
			<path fill="#917524" d="M25.577,15.213c-3.236,2.732-7.523,3.881-11.693,3.133c-0.578-0.113-1.088,2.021-0.385,2.156
				c4.808,0.863,9.755-0.461,13.492-3.615C27.532,16.418,26.021,14.826,25.577,15.213z"/>
			<path fill="#917524" d="M50.112,18.193c-4.168,0.748-8.455-0.4-11.691-3.133c-0.443-0.389-1.955,1.205-1.412,1.674
				c3.732,3.152,8.68,4.479,13.492,3.615C51.204,20.215,50.692,18.08,50.112,18.193z"/>
		</g>
	</g>
</g>
</svg>
