<?xml version="1.0" encoding="utf-8"?>
<!-- Generator: Adobe Illustrator 15.0.0, SVG Export Plug-In . SVG Version: 6.00 Build 0)  -->
<!DOCTYPE svg PUBLIC "-//W3C//DTD SVG 1.1//EN" "http://www.w3.org/Graphics/SVG/1.1/DTD/svg11.dtd">
<svg version="1.1" id="Layer_1" xmlns="http://www.w3.org/2000/svg" xmlns:xlink="http://www.w3.org/1999/xlink" x="0px" y="0px"
	 width="64px" height="64px" viewBox="0 0 64 64" enable-background="new 0 0 64 64" xml:space="preserve">
<g>
	<g>
		<path fill="#B47D56" d="M16.601,44.721c0.25,2.281,2.316,3.926,4.615,3.67l0.036-0.004c2.3-0.256,3.962-2.316,3.712-4.598
			l-3.576-32.637c-0.25-2.282-2.318-3.926-4.617-3.67l-0.036,0.004c-2.299,0.256-3.96,2.316-3.71,4.598L16.601,44.721z"/>
		<path fill="#935E3E" d="M19.241,47.664l0.042-0.004c2.297-0.256,3.939-2.344,3.688-4.629l-3.576-32.636
			c-0.135-1.238-0.808-2.291-1.76-2.951c1.929,0.181,3.531,1.686,3.75,3.679L24.96,43.76c0.251,2.283-1.396,4.369-3.694,4.625
			l-0.038,0.005c-1.05,0.116-2.052-0.161-2.851-0.719C18.656,47.698,18.947,47.697,19.241,47.664z"/>
	</g>
	<g>
		<g>
			<path fill="#B47D56" d="M45.907,36.012v-4.2c0,0-22.268,3.865-24.466-2.754l-6.029,4.806c0,0-2.927,11.962,0.172,19.082
				c4.612,10.607,26.524,14.664,34-3.385C51.067,45.969,51.269,35.939,45.907,36.012z"/>
		</g>
		<g>
			<path fill="#B47D56" d="M38.433,38.75c-0.111,2.293,1.671,4.246,3.981,4.359l0.036,0.002c2.311,0.113,4.275-1.654,4.387-3.947
				l1.585-32.796c0.11-2.293-1.673-4.247-3.983-4.36l-0.037-0.002c-2.311-0.114-4.272,1.655-4.383,3.948L38.433,38.75z"/>
			<path fill="#935E3E" d="M40.577,42.078l0.043,0.002c2.308,0.113,4.256-1.686,4.367-3.982l1.586-32.796
				c0.061-1.244-0.439-2.39-1.275-3.193c1.877,0.486,3.223,2.227,3.125,4.23l-1.585,32.796c-0.111,2.295-2.063,4.091-4.374,3.978
				l-0.039-0.002c-1.055-0.052-2-0.486-2.701-1.164C39.994,42.018,40.282,42.063,40.577,42.078z"/>
		</g>
		<path fill="#B47D56" d="M22.296,26.334c0-2.347,1.867-4.251,4.172-4.251h0.066c2.305,0,4.174,1.904,4.174,4.251v6.574
			c0,2.348-1.869,4.254-4.174,4.254h-0.066c-2.305,0-4.172-1.906-4.172-4.254V26.334z"/>
		<path fill="#B47D56" d="M30.708,25.859c0-2.347,1.865-4.251,4.17-4.251h0.069c2.301,0,4.17,1.904,4.17,4.251v6.573
			c0,2.349-1.869,4.255-4.17,4.255h-0.069c-2.305,0-4.17-1.906-4.17-4.255V25.859z"/>
		<path fill="#935E3E" d="M25.264,35.583h0.052c2.306,0,4.134-1.846,4.134-4.196V24.81c0-0.633-0.135-1.234-0.38-1.776
			c0.996,0.777,1.639,2.002,1.639,3.38v6.578c0,2.348-1.83,4.17-4.131,4.17h-0.055c-1.682,0-3.13-1.002-3.79-2.465
			C23.433,35.244,24.312,35.583,25.264,35.583z"/>
		<path fill="#935E3E" d="M33.659,35.107h0.049c2.307,0,4.152-1.846,4.152-4.195v-6.578c0-0.633-0.14-1.234-0.379-1.776
			c0.994,0.777,1.637,2.002,1.637,3.38v6.578c0,2.349-1.846,4.171-4.146,4.171h-0.055c-1.682,0-3.13-1.003-3.791-2.465
			C31.831,34.77,32.707,35.107,33.659,35.107z"/>
		<path fill="#935E3E" d="M40.847,31.447c-3.128-2.402-4.136,0.746-9.84,0.305c-2.499-0.193-4.169,4.977-0.599,7.299
			c4.963,3.229,5.775-0.498,6.898,1.11c1.193,1.71,2.44,2.153,3.395,4.087c0.695,1.404,7.418,0.08,8.393-2.543
			C50.962,36.668,45.811,35.264,40.847,31.447z"/>
		<path fill="#B47D56" d="M41.183,32.396c-3.25-2.501-4.3,0.776-10.238,0.316c-2.598-0.202-4.335,5.176-0.62,7.592
			c5.163,3.361,6.006-0.518,7.172,1.157c1.243,1.775,2.541,2.239,3.533,4.251c0.722,1.462-2.134,6.385-2.134,6.385
			s6.179,5.557,7.837,2.947c3.078-4.846,2.786-8.957,3.027-11.979C50.312,36.107,46.347,36.366,41.183,32.396z"/>
		<g>
			<g>
				<path fill="#935E3E" d="M47.538,36.561c3.527,2.15,2.304,12.008-0.971,16.469c-8.145,11.092-23.195,9.271-29.677,2.164
					c5.858,7.984,21.838,10.433,30.623-1.024C51.029,49.579,53.161,38.426,47.538,36.561z"/>
			</g>
		</g>
		<g>
			<g>
				<path fill="#935E3E" d="M40.256,45.767c0.222,0.452,0.104,1.237-0.168,2.103c0.544-1.307,0.956-2.681,0.63-3.345
					c-0.993-2.011-1.626-2.473-2.867-4.251c-1.17-1.676-2.012,2.205-7.177-1.156c-1.908-1.242-2.37-3.266-2.021-4.912
					c-0.957,1.721-0.872,4.571,1.563,6.156c5.163,3.359,6.006-0.52,7.174,1.154C38.63,43.294,39.265,43.756,40.256,45.767z"/>
			</g>
		</g>
		<g>
			<g>
				<path fill="#935E3E" d="M27.734,53.707c0-6.521,4.707-11.863,10.693-12.404c-0.729-0.205-1.49-0.33-2.281-0.33
					c-5.128,0-9.285,4.43-9.285,9.892c0,1.575,0.355,3.058,0.971,4.378C27.774,54.737,27.734,54.227,27.734,53.707z"/>
				<path fill="#935E3E" d="M25.9,41.488c-1.006-0.287-2.02-0.179-2.91,0.225c0.383,0.025,0.767,0.082,1.15,0.193
					c2.939,0.844,4.717,3.978,4.115,7.114c0.356-0.485,0.637-1.048,0.795-1.683C29.695,44.793,28.286,42.176,25.9,41.488z"/>
			</g>
		</g>
	</g>
</g>
</svg>
