<?xml version="1.0" encoding="utf-8"?>
<!-- Generator: Adobe Illustrator 15.0.0, SVG Export Plug-In . SVG Version: 6.00 Build 0)  -->
<!DOCTYPE svg PUBLIC "-//W3C//DTD SVG 1.1//EN" "http://www.w3.org/Graphics/SVG/1.1/DTD/svg11.dtd">
<svg version="1.1" id="Layer_1" xmlns="http://www.w3.org/2000/svg" xmlns:xlink="http://www.w3.org/1999/xlink" x="0px" y="0px"
	 width="64px" height="64px" viewBox="0 0 64 64" enable-background="new 0 0 64 64" xml:space="preserve">
<g>
	<g>
		<path fill="#C94747" d="M41.543,14.914c0.053-0.805-0.738-2.479-2.973-3.631c-2.396-1.232-4.365-1.104-4.943,0.021
			c-0.572,1.107,0.707,2.91,2.861,4.018c0.957,0.494,1.441,0.504,2.094,0.729c1.133,0.396,0.723,0.889,0.324,1.16
			c-0.057,0.041-0.633,0.318,0.227,0.24C40.262,17.355,41.473,16.158,41.543,14.914z"/>
		<path fill="#703712" d="M38.047,10.3c-1.076-0.383-3.424-1.283-4.443,1.068c-0.158,0.363-0.127,0.793,0.055,1.246
			c1.387,2.287,4.996-0.791,7.271,0.639C40.93,13.253,39.545,10.832,38.047,10.3z"/>
	</g>
	<g>
		<path fill="#6B6B6D" d="M31.377,22.853c-1.564-1.6-2.221,1.244-4.918,2.797c-2.695,1.561-0.584,4.373,0.574,2.674
			C28.191,26.636,34.066,25.601,31.377,22.853z"/>
		<path fill="#3E4347" d="M30.781,22.439c-0.08,0.008-1.668,0.168-0.414,2.139c0.846,1.328-1.676,1.047-3.26,2.57
			c-0.313,0.301-0.992,1.043-1.676,1.27c0.385,0.523,1.086,0.662,1.602-0.094c1.158-1.688,7.033-2.723,4.344-5.471
			C31.164,22.636,30.969,22.507,30.781,22.439z"/>
	</g>
	<g>
		<path fill="#6B6B6D" d="M26.043,26.875c-1.963-1.078-1.777,1.818-3.918,4.078c-2.139,2.255,0.699,4.335,1.324,2.388
			C24.076,31.398,29.416,28.726,26.043,26.875z"/>
		<path fill="#3E4347" d="M26.043,26.875c-0.498-0.275-0.857-0.289-1.152-0.127c-0.154,0.414-0.176,0.965,0.447,1.439
			c0.744,0.568,0.547,0.988-0.119,1.707c-0.664,0.717-1.793,1.08-2.449,2.678c-0.477,1.154-1.012,0.957-1.273,0.759
			c0.418,0.895,1.58,1.176,1.953,0.01C24.076,31.398,29.416,28.726,26.043,26.875z"/>
	</g>
	<path fill="#6B6B6D" d="M40.717,27.062c-8.299,0-14.34,3.188-14.34,5.91c0,2.716,4.248,4.925,9.484,4.925
		c5.238,0,9.066-2.568,10.699-4.925C48.197,30.611,45.957,27.062,40.717,27.062z"/>
	<path fill="#6B6B6D" d="M50.045,7.429c-1.635,0-2.959,1.818-2.959,4.055c0,2.242,1.324,4.061,2.959,4.061s2.959-1.818,2.959-4.061
		C53.004,9.248,51.68,7.429,50.045,7.429z"/>
	<path fill="#6B6B6D" d="M51.164,5.707c-0.773-2.271-2.186-3.238-3.648-3.238c-1.535,0-2.27,1.93-1.66,4.24
		c0.529,2.018,2.729,4.674,4.146,4.125C51.418,10.285,51.939,7.984,51.164,5.707z"/>
	<path fill="#6B6B6D" d="M48.381,2.869c-0.873-1.105-3.463-1.164-5.783-0.127c-2.322,1.039-3.494,2.777-2.617,3.885
		c0.871,1.105,2.338,1.346,4.734,0.455C46.805,6.292,49.258,3.988,48.381,2.869z"/>
	<path fill="#6B6B6D" d="M33.307,31.123c-10.248,0-15.877,2.531-15.877,6.261c0,3.732,4.23,7.352,10.695,7.352
		c6.469,0,10.377-2.273,12.396-5.506S39.775,31.123,33.307,31.123z"/>
	<path fill="#6B6B6D" d="M38.441,26.328c0.994-2.006-2.035-1.406-4.547-3.1c-2.512-1.695-4.496,1.291-2.414,1.604
		C33.561,25.136,36.725,29.792,38.441,26.328z"/>
	<path fill="#6B6B6D" d="M33.354,29.871c0.924-2.037-2.08-1.348-4.648-2.969c-2.57-1.621-4.451,1.422-2.361,1.666
		C28.436,28.82,31.76,33.386,33.354,29.871z"/>
	<path fill="#6B6B6D" d="M42.377,5.162c-1.049-1.01-3.738-0.248-5.998,1.693c-2.258,1.947-3.236,4.35-2.18,5.377
		c1.047,1.004,2.594,0.824,4.951-0.992C41.205,9.66,43.432,6.171,42.377,5.162z"/>
	<path fill="#6B6B6D" d="M52.389,15.435c-0.973-2.723-4.787-3.883-7.4-0.594c-4.139,5.213-4.725,11.305-2.664,13.271
		c2.068,1.961,5.857,0.889,8.473-2.402C53.408,22.425,53.363,18.164,52.389,15.435z"/>
	<path fill="#3E4347" d="M37.285,24.599c-0.398-0.123-0.857-0.25-1.346-0.412c-1.291,0.162-1.988,0.641-3.223,0.195
		c-1.465-0.527-1.852-0.979-1.852-0.979l-0.002,0.002c-0.434,0.561-0.35,1.281,0.617,1.426c1.43,0.209,3.371,2.475,5.002,2.746
		C39.428,26.984,38.154,25.392,37.285,24.599z"/>
	<path fill="#3E4347" d="M39.15,10.302c-2.357,1.816-3.904,1.996-4.951,0.992c-0.199-0.193-0.303-0.447-0.363-0.725
		c-0.143,0.684-0.037,1.271,0.363,1.662c1.047,1.004,2.594,0.824,4.951-0.992c1.869-1.438,3.873-4.447,3.426-5.74
		C42.238,6.98,40.65,9.148,39.15,10.302z"/>
	<path fill="#3E4347" d="M48.453,2.994c-0.445,1.15-2.189,2.566-3.738,3.15c-0.846,0.314-1.568,0.48-2.197,0.525
		c-0.088,0.297-0.221,0.613-0.389,0.943c0.713,0.014,1.559-0.148,2.586-0.531C46.732,6.32,49.076,4.152,48.453,2.994z"/>
	<path fill="#3E4347" d="M48.582,4.716c0.646-0.65,0.639-1.332,0.471-1.848c-0.334-0.186-0.686-0.281-1.045-0.338
		c0.145,0.1,0.273,0.211,0.373,0.338c0.725,0.924-0.82,2.654-2.559,3.674c0.014,0.057,0.018,0.109,0.033,0.166
		c0.432,1.643,1.971,3.709,3.293,4.123C46.545,8.224,47.291,6.013,48.582,4.716z"/>
	<path fill="#3E4347" d="M51.988,8.451c-0.15-0.182-0.314-0.34-0.49-0.477c-0.039,1.371-0.564,2.498-1.496,2.859
		c-0.754,0.291-1.723-0.328-2.547-1.27c-0.229,0.574-0.369,1.221-0.369,1.92c0,0.568,0.086,1.107,0.24,1.598
		c-0.002-0.035-0.17-3.115,1.824-1.596C50.721,12.685,52.107,11.066,51.988,8.451z"/>
	<g>
		<path fill="#3E4347" d="M53.004,11.484c-0.229,1.443-1.129,1.814-2.002,1.814c-0.191,0-0.381-0.018-0.563-0.045
			c0.604,0.301,1.125,0.752,1.508,1.316C52.588,13.826,53.004,12.726,53.004,11.484"/>
	</g>
	<path fill="#3E4347" d="M49.621,23.304c0.746,0.498,1.279,1.145,1.586,1.846c2.191-3.197,2.102-7.139,1.182-9.715
		c-0.348-0.973-1.061-1.74-1.949-2.182C50.439,13.253,53.043,17.117,49.621,23.304z"/>
	<path fill="#3E4347" d="M44.145,16.671c-0.871,0.561,2.383-0.635,5.283,0.596C52.33,18.5,47.574,14.468,44.145,16.671z"/>
	<path fill="#3E4347" d="M42.662,19.855c-1.047,0.672,2.857-0.762,6.338,0.717C52.48,22.048,46.775,17.212,42.662,19.855z"/>
	<g>
		<path fill="#3E4347" d="M43.162,22.533C43.098,22.55,43.096,22.556,43.162,22.533L43.162,22.533z"/>
	</g>
	<path fill="#6B6B6D" d="M46.064,22.32c-7.115,0-12.291,3.188-12.291,5.91c0,2.719,3.637,4.925,8.129,4.925
		c4.488,0,7.77-2.568,9.17-4.925C52.473,25.869,50.553,22.32,46.064,22.32z"/>
	<path fill="#3E4347" d="M40.381,23.82c-1.143,0.201,2.975,0.133,6.27,1.822C49.943,27.332,44.873,23.027,40.381,23.82z"/>
	<path fill="#3E4347" d="M36.676,26.097c-1.143,0.201,2.977,0.133,6.27,1.822C46.24,29.611,41.168,25.306,36.676,26.097z"/>
	<path fill="#3E4347" d="M31.996,30.134c-1.43,0.336,3.689,0.061,7.709,2.34C43.725,34.753,37.607,28.806,31.996,30.134z"/>
	<g>
		<path fill="#3E4347" d="M28.832,31.896c-0.418,0-0.84,0.031-1.264,0.098c-1.658,0.258,4.189,0.41,8.521,3.427
			c0.736,0.514,1.164,0.723,1.336,0.723c0.385,0-0.527-1.063-2.156-2.123C33.643,32.958,31.301,31.896,28.832,31.896"/>
	</g>
	<g>
		<path fill="#3E4347" d="M14.806,38.702c-0.161,0.432-0.263,0.863-0.263,1.285c0,0.867,0.258,1.693,0.71,2.465
			c0.367-0.563,0.875-0.926,1.337-1.193C15.749,40.493,15.129,39.632,14.806,38.702"/>
	</g>
	<path fill="#3E4347" d="M47.49,22.457c0.084,0.057,4.984,3.459-0.594,7.846c0.191,0.537,0.234,1.092,0.117,1.627
		c1.873-0.967,3.268-2.367,4.059-3.699C52.314,26.136,50.943,23.117,47.49,22.457z"/>
	<g>
		<path fill="#3E4347" d="M36.01,32.281c3.977,1.767,6.002,6.101,1.025,7.972c-7.865,2.957-8.5,4.229-11.602,3.623
			c-0.371-0.072-0.426,0.607-0.686,0.859c0.457,0.076,0.922,0.145,1.395,0.189c6.705,0.652,11.65-1.518,14.086-4.834
			C42.186,37.425,41.51,33.884,36.01,32.281"/>
	</g>
	<path fill="#3E4347" d="M44.855,28.039c0.785,1.154,2.85,3.084-0.574,5.132c-2.777,1.66-3.287,1.354-4.25,1.506
		c0.674,0.674,1.039,1.447,1.156,2.252v0.002c2.508-0.961,4.361-2.5,5.373-3.958C47.662,31.382,47,29.259,44.855,28.039z"/>
	<path fill="#6B6B6D" d="M42.867,33.31c0-2.201,2.486-0.507,5.537-1.099c3.049-0.6,3.514,2.876,1.479,2.367
		S42.867,37.114,42.867,33.31z"/>
	<path fill="#3E4347" d="M50.502,32.591c-0.363,0.17-0.734,0.49-1.029,1.031c-0.18,0.332-0.283,0.631-0.332,0.906
		c0.271-0.014,0.525-0.004,0.742,0.049C51.283,34.929,51.5,33.388,50.502,32.591z"/>
	<path fill="#6B6B6D" d="M50.287,33.462c1.705-1.562,2.156,1.246,4.771,2.805c2.613,1.553,0.26,4.307-0.787,2.633
		C53.229,37.222,47.352,36.153,50.287,33.462z"/>
	<path fill="#3E4347" d="M53.479,38.155c0.346,0.238,0.631,0.484,0.793,0.744c0.881,1.408,2.672-0.314,1.672-1.82
		C55.26,37.073,54.293,37.267,53.479,38.155z"/>
	<path fill="#6B6B6D" d="M56.086,44.792c-0.48-0.141-1.537,0.488-1.264,1.08c0.279,0.594,2.896,0.617,2.896,0.311
		C57.719,45.817,56.918,45.056,56.086,44.792z"/>
	<path fill="#6B6B6D" d="M55.535,38.022c2.41,0,0.561,2.277,1.207,5.064c0.648,2.799-3.145,3.219-2.59,1.354
		C54.709,42.573,51.381,38.022,55.535,38.022z"/>
	<path fill="#6B6B6D" d="M37.244,38.935c0-2.201,2.486-0.508,5.537-1.1c3.049-0.6,3.514,2.877,1.477,2.367
		C42.225,39.692,37.244,42.739,37.244,38.935z"/>
	<path fill="#3E4347" d="M44.877,38.216c-0.361,0.17-0.732,0.49-1.027,1.031c-0.18,0.332-0.283,0.631-0.332,0.906
		c0.271-0.014,0.525-0.004,0.74,0.049C45.66,40.554,45.877,39.013,44.877,38.216z"/>
	<path fill="#6B6B6D" d="M44.664,39.087c1.703-1.563,2.156,1.246,4.77,2.805c2.615,1.553,0.262,4.307-0.785,2.633
		C47.605,42.847,41.729,41.778,44.664,39.087z"/>
	<path fill="#3E4347" d="M47.855,43.78c0.344,0.238,0.631,0.484,0.793,0.744c0.881,1.408,2.672-0.314,1.672-1.82
		C49.635,42.698,48.67,42.892,47.855,43.78z"/>
	<path fill="#6B6B6D" d="M50.461,50.417c-0.479-0.141-1.537,0.488-1.262,1.08c0.277,0.594,2.896,0.617,2.896,0.311
		C52.096,51.442,51.295,50.681,50.461,50.417z"/>
	<path fill="#6B6B6D" d="M49.912,43.647c2.41,0,0.561,2.277,1.207,5.064c0.646,2.799-3.146,3.219-2.59,1.354
		C49.084,48.198,45.758,43.647,49.912,43.647z"/>
	<path fill="#6B6B6D" d="M47.15,28.816c0-2.199,2.484-0.506,5.535-1.1c3.049-0.6,3.514,2.879,1.479,2.369
		C52.131,29.574,47.15,32.623,47.15,28.816z"/>
	<path fill="#3E4347" d="M54.783,28.097c-0.363,0.17-0.734,0.492-1.027,1.031c-0.182,0.332-0.285,0.633-0.334,0.908
		c0.271-0.014,0.525-0.006,0.742,0.049C55.566,30.437,55.781,28.896,54.783,28.097z"/>
	<path fill="#6B6B6D" d="M54.568,28.97c1.705-1.563,2.156,1.246,4.771,2.805c2.613,1.552,0.26,4.306-0.787,2.632
		C57.51,32.728,51.633,31.66,54.568,28.97z"/>
	<path fill="#3E4347" d="M57.76,33.661c0.346,0.238,0.631,0.484,0.793,0.746c0.881,1.406,2.674-0.314,1.672-1.822
		C59.541,32.58,58.574,32.773,57.76,33.661z"/>
	<path fill="#6B6B6D" d="M60.367,40.298c-0.48-0.139-1.537,0.488-1.264,1.08C59.383,41.972,62,41.995,62,41.69
		C62,41.323,61.201,40.562,60.367,40.298z"/>
	<path fill="#6B6B6D" d="M59.816,33.53c2.41,0,0.561,2.277,1.207,5.064c0.648,2.797-3.145,3.219-2.59,1.352
		C58.99,38.079,55.662,33.53,59.816,33.53z"/>
	<g>
		<path fill="#6B6B6D" d="M35.875,37.394c-1.799-0.393-2.41,1.258-1.594,2.652c0.816,1.385,1.406,1.504,1.875,4
			c0.465,2.492,4.881,1.498,5.414-0.934C41.961,41.335,39.744,38.243,35.875,37.394z"/>
		<path fill="#3E4347" d="M41.57,43.112c0.275-1.254-0.754-3.162-2.74-4.475c1.16,1.244,2.082,2.467,1.01,3.758
			c-0.631,0.76-0.871-0.98-4.168-0.906c-0.787,0.018-1.746-2.35-1.746-2.35c-0.529,2.275-0.236,4.094,2.23,4.906
			C38.564,44.839,41.037,45.544,41.57,43.112z"/>
	</g>
	<path fill="#3E4347" d="M32.41,28.255c-0.234-0.072-0.494-0.143-0.779-0.217c-0.006,0-2.047-0.24-3.506,1.352
		c0.227,0.148,0.459,0.305,0.691,0.463C29.775,29.251,30.99,28.705,32.41,28.255z"/>
	<g>
		<path fill="#6B6B6D" d="M20.336,34.95c1.076,1.107-0.01,2.258-1.486,2.271c-1.475,0.023-1.822-0.34-4.046,0.402
			c-2.222,0.738-3.269-2.824-1.509-4.256C14.577,32.324,18.023,32.572,20.336,34.95z"/>
		<path fill="#3E4347" d="M19.553,34.269c-0.182-0.141-0.363-0.277-0.553-0.395c-0.877,0.498-1.705,1.33-1.963,2.713
			c-0.342-0.045-0.563-0.17-0.715-0.434c-0.716-1.236-2.395-1.215-2.395-1.215c0.705,0.24,1.44,0.766,1.76,1.885
			c0.034,0.121,0.113,0.453,0.127,0.51c0.5-0.121,0.876-0.16,1.216-0.17c0.186-0.006,0.361-0.002,0.537,0.01
			C17.787,36.163,18.473,35.173,19.553,34.269z"/>
	</g>
	<g>
		<path fill="#6B6B6D" d="M33.016,42.476c-5.031,1.986-11.986,6.27-6.615,13.689c0,0-2.4-3.166,3.266-7.684
			c0.25-0.199,2.317,1.283,2.334,3.518c0.014,1.701-2,3-2,6c0,1.488-2.697,4-2.697,4s22.125-5.707,12.688-18.031
			C37.689,41.028,34.041,42.097,33.016,42.476z"/>
		<path fill="#3E4347" d="M28.146,59.546c-0.809,1.248-0.844,2.453-0.844,2.453c2.127-2.129,3.328-1.988,3.039-4.104
			s0.662-2.984,2.184-4.479c1.521-1.49-1.148-3.107-1.15-4.725c0-1.617-1.613-2.984-1.943-1.254
			c-0.328,1.727-1.162,1.006-2.914,3.742c-1.52,2.371-0.494,4.375-0.195,4.865c0.031,0.043,0.047,0.078,0.078,0.119
			c0,0-0.502-1.346,0.365-1.799c0.863-0.461-0.516-1.361,0.313-1.756c0.822-0.383-0.168-1.451,1.102-2.359
			c1.264-0.881,1.486-1.77,1.486-1.77s1.582,0.904,0.447,2.205c-1.137,1.314,0.063,1.244,1.076,1.555
			c1.014,0.303-2.125,0.705-1.039,1.627c1.086,0.9-1.48,0.758-0.836,1.916c0.639,1.172-1.455,0.561-0.705,1.918
			S28.957,58.282,28.146,59.546z"/>
		<path fill="#3E4347" d="M27.303,61.999c0,0,20.818-5.371,13.447-16.945C40.85,45.255,45.41,54.739,27.303,61.999z"/>
	</g>
	<g>
		<path fill="#6B6B6D" d="M16.498,37.706c0,0-0.178-0.52-0.244-0.689c-1.085-2.76-3.908-2.469-4.608-2.318
			c-16.032,3.389-7.24,17.422-7.24,17.422S7,41.999,13.487,42.214c1.513,4.785-4.05,6.447-4.05,6.447
			C17.57,46.269,17.611,41.185,16.498,37.706z"/>
		<path fill="#3E4347" d="M5.817,50.144c0.504-1.174-0.328-0.832,1.152-1.412c1.479-0.578-0.204-1.057,1.066-1.551
			c1.271-0.486-0.324-1.482,1.013-1.625c1.334-0.143-0.176-1.734,0.653-1.506c0.825,0.221,1.465,0.779,1.813-0.559
			c0.349-1.344,1.972-1.277,1.972-1.277s-0.559,0.686-0.517,1.809c0.041,1.131-1.359,1.408-1.178,2.006
			c0.178,0.617-1.326,0.629-1.173,1.283c0.152,0.68-1.182,1.35-1.182,1.35c4.466-1.314,6.484-3.439,7.219-5.666
			c-0.887,1.834-3.07,2.047-2.145,0.369c1.147-2.086-1.235-4.033-2.511-2.365c-1.276,1.672-3.12,1.635-4.371,4.031
			C6.378,47.425,5.209,45.403,5,47.999c-0.209,2.596-0.594,4.121-0.594,4.121S5.309,51.308,5.817,50.144z"/>
	</g>
	<g>
		<path fill="#6B6B6D" d="M19.006,39.587c-0.889,0.67-2.768,1.814-1.65,4.871c1.119,3.066,1.574,3.078,1.439,1.314
			c-0.143-1.82,0-1.941,3.846-1.404c3.844,0.539,0.592,2.375-0.037,3.152c-0.629,0.783,6.748-0.711,5.979-5.813
			C27.914,37.28,21.4,37.774,19.006,39.587z"/>
		<path fill="#3E4347" d="M18.457,44.431c0.396,1.611,0.15,2.52,0.15,2.52l0,0c0.188,0.051,0.25-0.377,0.188-1.178
			c-0.143-1.82,0-1.941,3.846-1.404c1.865,0.262,2.055,0.83,1.689,1.432l0.004-0.002C26.17,43.306,17.867,42.042,18.457,44.431z"/>
		<path fill="#3E4347" d="M28.582,41.708c-0.291-1.934-1.697-2.928-3.387-3.283c0.012,0.01,5.996,4.91-2.592,9.096
			C21.975,48.304,29.352,46.81,28.582,41.708z"/>
	</g>
	<g>
		<circle fill="#6B6B6D" cx="21.604" cy="35.64" r="3.5"/>
		<g>
			<ellipse fill="#FCFCFA" cx="21.604" cy="35.64" rx="3.033" ry="3.141"/>
			<ellipse fill="#3E4347" cx="21.604" cy="35.64" rx="2.086" ry="2.16"/>
		</g>
	</g>
	<g>
		<circle fill="#6B6B6D" cx="28.662" cy="36.757" r="4"/>
		<g>
			<ellipse fill="#FCFCFA" cx="28.661" cy="36.757" rx="3.468" ry="3.59"/>
			<ellipse fill="#3E4347" cx="28.662" cy="36.757" rx="2.383" ry="2.469"/>
		</g>
	</g>
</g>
</svg>
