<?xml version="1.0" encoding="utf-8"?>
<!-- Generator: Adobe Illustrator 15.0.0, SVG Export Plug-In . SVG Version: 6.00 Build 0)  -->
<!DOCTYPE svg PUBLIC "-//W3C//DTD SVG 1.1//EN" "http://www.w3.org/Graphics/SVG/1.1/DTD/svg11.dtd">
<svg version="1.1" id="Layer_1" xmlns="http://www.w3.org/2000/svg" xmlns:xlink="http://www.w3.org/1999/xlink" x="0px" y="0px"
	 width="64px" height="64px" viewBox="0 0 64 64" enable-background="new 0 0 64 64" xml:space="preserve">
<g>
	<g>
		<g>
			<g>
				<g>
					<path fill="#D64553" d="M27.609,5.411c-0.641,0.303-3.121,3.41-4.65,3.41s0.369-2.705,2.41-4.762
						C27.408,2,28.167,1.151,24.042,3.088c-2.34,1.1-3.785,2.209-4.709,3.297c-0.201-0.693-0.377-0.99-1.318,0.076
						c-1.857,2.105-4.045,5.588-3.125,9.387c0.127,0.521,0.295,0.955,0.49,1.32c-0.539,3.078,0.691,7.219,5.621,11.289h1.752
						c0,0-4.99-4.148-4.146-9.572c0.004,0,0.01,0,0.012-0.002c2.152-0.355,1.596-0.883,4.334-4.373
						c1.193-1.523,1.291-2.623,0.859-3.469C27.773,7.815,28.13,5.165,27.609,5.411z"/>
				</g>
			</g>
			<path fill="#ED4C5C" d="M14.89,15.848c-0.92-3.799,1.268-7.281,3.125-9.387c1.857-2.104,0.734,1.088,2.693,2.189
				c1.957,1.1,4.982,2.367,2.244,5.859c-2.738,3.49-2.182,4.018-4.334,4.373C17.617,19.051,15.605,18.792,14.89,15.848z"/>
		</g>
		<g>
			<g>
				<g>
					<path fill="#D64553" d="M36.391,5.411c0.641,0.303,3.121,3.41,4.65,3.41s-0.369-2.705-2.41-4.762
						C36.592,2,35.832,1.151,39.957,3.088c2.34,1.1,3.785,2.209,4.709,3.297c0.201-0.693,0.377-0.99,1.318,0.076
						c1.857,2.105,4.045,5.588,3.125,9.387c-0.127,0.521-0.295,0.955-0.49,1.32c0.539,3.078-0.691,7.219-5.621,11.289h-1.752
						c0,0,4.99-4.148,4.146-9.572c-0.004,0-0.01,0-0.012-0.002c-2.152-0.355-1.596-0.883-4.334-4.373
						c-1.193-1.523-1.291-2.623-0.859-3.469C36.227,7.815,35.869,5.165,36.391,5.411z"/>
				</g>
			</g>
			<path fill="#ED4C5C" d="M49.109,15.848c0.92-3.799-1.268-7.281-3.125-9.387c-1.857-2.104-0.734,1.088-2.693,2.189
				c-1.957,1.1-4.982,2.367-2.244,5.859c2.738,3.49,2.182,4.018,4.334,4.373C46.383,19.051,48.395,18.792,49.109,15.848z"/>
		</g>
	</g>
	<path fill="#D64553" d="M24.489,23.083c-0.582-1.943-1.569-1.041-1.271-0.154c0.302,0.885,1.887,4.477,0.541,7.469l0.567,0.422
		C24.327,30.819,25.909,27.819,24.489,23.083z"/>
	<g>
		<path fill="#D64553" d="M4.832,35.435c0.142,0.084,0.291,0.135,0.437,0.143c0.469,0.02,1.822-1.332,3.49-2.428
			c0.507,0.154,1.95-0.151,3.657-0.334c1.024,0.758,4.898,1.786,7.466,3.866c0,0,1.398-0.332,0.725-2.328
			c0,0-5.184-4.918-6.785-4.446c-0.316,0.092-0.575,0.23-0.803,0.385c-1.712-0.264-3.739-0.428-4.28,0.143
			c-0.259,0.273-0.426,0.561-0.527,0.84c-1.473,0.531-3.804,1.488-3.999,2.295c-0.074,0.309-0.08,0.586-0.039,0.834
			C3.424,35.3,2.392,37.03,2,40.052C2,40.052,2.587,37.739,4.832,35.435z"/>
		<path fill="#D64553" d="M16.608,52.339c0.436-0.305,1.104-1.639,2.031-3.105c1.227-0.336,4.438-2.756,7.642-3.488
			c0,0,0.619-1.313-1.339-2.029c0,0-7.025,1.027-7.666,2.588c-0.126,0.309-0.182,0.6-0.205,0.877
			c-1.273,1.189-2.668,2.689-2.566,3.475c0.049,0.377,0.165,0.688,0.318,0.943c-0.512,1.498-1.233,3.939-0.735,4.6
			c0.19,0.25,0.402,0.43,0.619,0.551c0.223,1.154,0.91,3.053,2.99,5.252c0,0-1.412-1.912-1.784-5.129
			c0.152-0.059,0.286-0.145,0.382-0.258C16.602,56.259,16.409,54.343,16.608,52.339z"/>
		<path fill="#D64553" d="M9.433,54.058c0.152-0.059,0.285-0.145,0.381-0.256c0.309-0.357,0.114-2.273,0.315-4.277
			c0.436-0.307,1.103-1.641,2.03-3.105c1.225-0.336,4.437-2.756,7.643-3.486c0,0,0.618-1.314-1.34-2.031
			c0,0-7.026,1.027-7.666,2.588c-0.126,0.309-0.181,0.6-0.205,0.877c-1.272,1.189-2.668,2.689-2.566,3.475
			c0.049,0.375,0.165,0.688,0.318,0.943c-0.513,1.496-1.233,3.939-0.735,4.598c0.19,0.252,0.402,0.432,0.619,0.553
			c0.222,1.152,0.91,3.051,2.989,5.252C11.216,59.187,9.804,57.274,9.433,54.058z"/>
		<path fill="#D64553" d="M11.646,39.161c1.218,0.365,5.205,0.014,8.311,1.098c0,0,1.208-0.787-0.087-2.439
			c0,0-6.513-2.867-7.865-1.877c-0.267,0.193-0.465,0.412-0.628,0.635c-1.7,0.336-3.665,0.869-3.984,1.592
			c-0.153,0.346-0.217,0.674-0.219,0.973c-1.211,1-3.091,2.695-3.008,3.521c0.032,0.314,0.12,0.58,0.241,0.801
			c-0.408,1.098-0.807,3.08-0.176,6.059c0,0-0.212-2.377,1.138-5.314c0.161,0.031,0.319,0.029,0.458-0.016
			c0.447-0.139,1.275-1.873,2.484-3.471C8.838,40.694,10.097,39.915,11.646,39.161z"/>
	</g>
	<path fill="#D64553" d="M39.509,23.083c0.582-1.943,1.571-1.041,1.272-0.154c-0.301,0.885-1.888,4.477-0.542,7.469l-0.568,0.422
		C39.671,30.819,38.091,27.819,39.509,23.083z"/>
	<g>
		<path fill="#D64553" d="M44.117,36.681c2.568-2.08,6.441-3.107,7.467-3.866c1.707,0.184,3.15,0.489,3.656,0.334
			c1.668,1.096,3.023,2.447,3.492,2.428c0.145-0.008,0.295-0.059,0.436-0.143C61.412,37.739,62,40.052,62,40.052
			c-0.393-3.021-1.424-4.752-2.174-5.648c0.041-0.248,0.037-0.525-0.037-0.834c-0.195-0.807-2.527-1.764-4-2.295
			c-0.102-0.279-0.27-0.566-0.527-0.84c-0.541-0.57-2.568-0.406-4.281-0.143c-0.227-0.154-0.486-0.293-0.801-0.385
			c-1.604-0.473-6.787,4.446-6.787,4.446C42.721,36.349,44.117,36.681,44.117,36.681z"/>
		<path fill="#D64553" d="M49.494,50.655c0.104-0.785-1.293-2.285-2.564-3.475c-0.023-0.277-0.08-0.568-0.205-0.877
			c-0.643-1.561-7.669-2.588-7.669-2.588c-1.957,0.717-1.338,2.029-1.338,2.029c3.204,0.732,6.417,3.152,7.642,3.488
			c0.93,1.467,1.598,2.801,2.031,3.105c0.201,2.004,0.006,3.92,0.314,4.275c0.096,0.113,0.229,0.199,0.383,0.258
			c-0.373,3.217-1.785,5.129-1.785,5.129c2.08-2.199,2.768-4.098,2.99-5.252c0.217-0.121,0.428-0.301,0.619-0.551
			c0.498-0.66-0.223-3.102-0.736-4.6C49.33,51.343,49.445,51.032,49.494,50.655z"/>
		<path fill="#D64553" d="M55.975,47.841c0.102-0.785-1.293-2.285-2.566-3.475c-0.023-0.277-0.08-0.568-0.205-0.877
			c-0.641-1.561-7.666-2.588-7.666-2.588c-1.959,0.717-1.34,2.031-1.34,2.031c3.205,0.73,6.418,3.15,7.643,3.486
			c0.928,1.465,1.594,2.799,2.031,3.105c0.199,2.004,0.006,3.92,0.314,4.277c0.096,0.111,0.229,0.197,0.381,0.256
			c-0.371,3.217-1.783,5.129-1.783,5.129c2.078-2.201,2.768-4.1,2.99-5.252c0.217-0.121,0.428-0.301,0.619-0.553
			c0.498-0.658-0.225-3.102-0.736-4.598C55.809,48.528,55.926,48.216,55.975,47.841z"/>
		<path fill="#D64553" d="M59.834,42.663c0.082-0.826-1.797-2.521-3.008-3.521c-0.002-0.299-0.064-0.627-0.219-0.973
			c-0.32-0.723-2.285-1.256-3.984-1.592c-0.164-0.223-0.361-0.441-0.627-0.635c-1.354-0.99-7.865,1.877-7.865,1.877
			c-1.297,1.652-0.088,2.439-0.088,2.439c3.105-1.084,7.094-0.732,8.311-1.098c1.549,0.754,2.809,1.533,3.336,1.561
			c1.209,1.598,2.035,3.332,2.482,3.471c0.141,0.045,0.299,0.047,0.459,0.016c1.35,2.938,1.137,5.314,1.137,5.314
			c0.631-2.979,0.232-4.961-0.174-6.059C59.715,43.243,59.803,42.978,59.834,42.663z"/>
	</g>
	<path fill="#ED4C5C" d="M37.942,26.571c-0.82,0-1.131-1.459-1.443-1.459c-0.273,0-0.088,0.762-0.641,1.156
		c-0.248,0.178-0.676,0.074-0.883-0.156c-0.676-0.744-0.377-1.789-0.727-1.789c-0.332,0-0.016,1.023-0.709,1.635
		c-0.211,0.184-0.629,0.17-0.834-0.031c-0.656-0.635-0.379-1.604-0.707-1.604s-0.051,0.969-0.707,1.604
		c-0.205,0.201-0.623,0.215-0.832,0.031c-0.695-0.611-0.377-1.635-0.711-1.635c-0.352,0-0.049,1.045-0.725,1.789
		c-0.209,0.23-0.639,0.334-0.883,0.156c-0.553-0.395-0.369-1.156-0.643-1.156c-0.311,0-0.622,1.459-1.442,1.459
		C20,26.571,17,31.944,17,36.509c0,5.859,6.715,17.814,14.999,17.814C40.284,54.323,47,42.368,47,36.509
		C47,31.944,44,26.571,37.942,26.571z"/>
	<g>
		<ellipse fill="#ED4C5C" cx="40.416" cy="22.258" rx="3.915" ry="3.826"/>
		<g>
			<ellipse fill="#FCFCFA" cx="40.417" cy="22.258" rx="3.394" ry="3.434"/>
			<path fill="#3E4347" d="M42.748,22.258c0,1.305-1.043,2.363-2.332,2.363c-1.288,0-2.333-1.059-2.333-2.363
				c0-1.301,1.045-2.357,2.333-2.357C41.705,19.901,42.748,20.958,42.748,22.258z"/>
		</g>
	</g>
	<g>
		<ellipse fill="#ED4C5C" cx="23.583" cy="22.258" rx="3.914" ry="3.826"/>
		<g>
			<ellipse fill="#FCFCFA" cx="23.582" cy="22.258" rx="3.393" ry="3.434"/>
			<path fill="#3E4347" d="M25.914,22.258c0,1.305-1.045,2.363-2.333,2.363c-1.286,0-2.331-1.059-2.331-2.363
				c0-1.301,1.045-2.357,2.331-2.357C24.869,19.901,25.914,20.958,25.914,22.258z"/>
		</g>
	</g>
</g>
</svg>
