<?xml version="1.0" encoding="utf-8"?>
<!-- Generator: Adobe Illustrator 15.0.0, SVG Export Plug-In . SVG Version: 6.00 Build 0)  -->
<!DOCTYPE svg PUBLIC "-//W3C//DTD SVG 1.1//EN" "http://www.w3.org/Graphics/SVG/1.1/DTD/svg11.dtd">
<svg version="1.1" id="Layer_1" xmlns="http://www.w3.org/2000/svg" xmlns:xlink="http://www.w3.org/1999/xlink" x="0px" y="0px"
	 width="64px" height="64px" viewBox="0 0 64 64" enable-background="new 0 0 64 64" xml:space="preserve">
<g>
	<g>
		<path fill="#3E4347" d="M61.999,33.859l-0.001-7.394c0.002-1.306-1.059-2.364-2.364-2.362h-3.179l2.754-1.59
			c1.129-0.654,1.52-2.101,0.865-3.229l-3.697-6.402c-0.652-1.133-2.1-1.521-3.229-0.864l-2.752,1.588l1.588-2.752
			c0.652-1.131,0.267-2.578-0.864-3.23l-6.402-3.696c-1.132-0.653-2.579-0.266-3.229,0.866l-1.59,2.752V4.366
			C39.896,3.059,38.838,2,37.531,2h-7.391c-1.307,0-2.365,1.059-2.365,2.365v3.178l-1.59-2.752c-0.651-1.132-2.099-1.52-3.229-0.866
			l-6.401,3.696c-1.131,0.652-1.519,2.1-0.865,3.23L8.773,23.118L29.398,34.6l12.088,20.938c0.652,1.13,2.1,1.52,3.229,0.863
			l6.402-3.694c1.131-0.653,1.519-2.101,0.864-3.229l-1.59-2.754l2.754,1.59c1.131,0.652,2.578,0.267,3.229-0.865l3.696-6.402
			c0.652-1.131,0.266-2.578-0.866-3.23l-2.749-1.588h3.176C60.939,36.225,62,35.166,61.999,33.859z"/>
		<g>
			<path fill="#F4BC58" d="M16.404,57.992c-4.399-1.946-0.487-5.516-4.506-5.749c-4.014-0.234-6.662-2.835-6.662-2.835
				c4.553-2.1,8.304,3.474,12.703-1.205C14.08,54.648,18.093,58.738,16.404,57.992z"/>
			<path fill="#F4BC58" d="M29.544,61.719c-4.53,0-5.479-1.324-7.599-0.689c-4.494,1.345-6.514,0.9-6.514,0.9
				c4.521-3.357,8.678-2.391,9.254-8.789C25.023,58.839,31.391,61.719,29.544,61.719z"/>
			<path fill="#3E4347" d="M40.121,31.551c0,11.133-7.652,20.156-17.089,20.156c-9.438,0-30.988-14.964-15.72-31.084
				c5.104-5.391,2.881,5.199,17.492,5.199C34.242,25.822,40.121,20.419,40.121,31.551z"/>
			<path fill="#3E4347" d="M30.818,49.498c0,2.32-3.164,7.268-5.993,7.268c-2.828,0-6.032-3.363-6.032-5.685
				C18.793,48.759,30.818,48.359,30.818,49.498z"/>
			<path fill="#51575C" d="M15.609,33.902C13.62,46.246,28.995,54.459,35.395,54.459c6.402,0-0.35-7.148,8.818-14.702
				c8.327-6.86-11.753-5.765-18.154-5.765S16.579,27.885,15.609,33.902z"/>
			<path fill="#51575C" d="M17.557,20.167c0.437,3.116,2.146,5.916,4.615,7.373c2.479,1.47,5.546,1.414,8.355,0.544
				c2.85-0.833,5.537-2.354,8.119-4.025c2.578-1.695,5.045-3.613,7.559-5.533c-1.928,2.511-4.146,4.799-6.643,6.795
				c-2.49,1.994-5.291,3.711-8.469,4.683c-1.592,0.448-3.281,0.715-4.988,0.571c-1.696-0.157-3.41-0.705-4.791-1.736
				C18.512,26.814,17.152,23.305,17.557,20.167z"/>
			<g>
				<path fill="#F29A2E" d="M6.162,16.036c3.216,0.896,3.662,3.258,5.042,1.601c2.153-2.589-0.24-5.861-2.69-6.802
					c-4.205-1.612-6.492,6.722-6.492,6.722S4.109,15.463,6.162,16.036z"/>
				<path fill="#ED4C5C" d="M5.041,21.968c-0.744,1-2.893,3.642-2.037,4.546c0.703,0.743,3.82-1.459,3.82-1.459
					s-0.291,3.902,0.732,4.107c2.029,0.406,2.615-6.077,4.486-6.964c1.504-0.714,6.175,0.702,6.239-2.331
					c0.065-3.035,0.071-10.809-2.466-12.87c-2.508-2.04-6-2.084-9.654,3.541C3.873,14.061,9.879,15.458,5.041,21.968z"/>
				<ellipse fill="#3E4347" cx="5.041" cy="13.527" rx="0.631" ry="0.324"/>
			</g>
		</g>
	</g>
	<g>
		<g>
			<path fill="#3E4347" d="M7.182,12.5c0,0-0.364-2.425,2.574-2.85C9.756,9.65,10.655,13.802,7.182,12.5z"/>
		</g>
	</g>
</g>
</svg>
