<?xml version="1.0" encoding="utf-8"?>
<!-- Generator: Adobe Illustrator 15.0.0, SVG Export Plug-In . SVG Version: 6.00 Build 0)  -->
<!DOCTYPE svg PUBLIC "-//W3C//DTD SVG 1.1//EN" "http://www.w3.org/Graphics/SVG/1.1/DTD/svg11.dtd">
<svg version="1.1" id="Layer_1" xmlns="http://www.w3.org/2000/svg" xmlns:xlink="http://www.w3.org/1999/xlink" x="0px" y="0px"
	 width="64px" height="64px" viewBox="0 0 64 64" enable-background="new 0 0 64 64" xml:space="preserve">
<g>
	<path fill="#AF7751" d="M59.577,19.802c-3.51-6.479-11.532-11.556-11.532-11.556l4.346,1.4c0,0-5.85-8.755-10.363-7.529
		c-1.351,0.367-2.789,0.971-4.145,1.635C38.084,2.58,38.674,2,38.674,2c-2.367,0.662-4.111,1.986-5.4,3.52C32.652,3.428,32,2,32,2
		s-0.652,1.428-1.273,3.52c-1.289-1.533-3.033-2.857-5.4-3.52c0,0,0.59,0.579,0.791,1.752c-1.355-0.664-2.794-1.268-4.145-1.635
		c-4.514-1.226-10.363,7.529-10.363,7.529l4.346-1.4c0,0-8.022,5.076-11.532,11.556C0.913,26.28,2.25,30.307,2.25,30.307
		s0.836-3.359,3.51-6.845c0,0-3.51,9.227-2.173,17.666c0,0,1.337-6.442,3.844-10.295c0,0-4.847,9.826-1.504,20.583
		c0,0-0.167-4.123,1.839-7.451c0,0-0.501,6.479,5.516,12.606c0,0-1.337-2.601-1.003-7.079c0,0,1.4,6.905,7.887,11.458
		c0,0-2.037-3.678-2.037-6.305c0,0,2.456,4.688,8.864,7.355c0,0-1.479-4.525-1.998-8.665c0.639,1.466,1.453,2.947,2.52,4.355
		c0,0-0.512-2.964-0.409-4.851c0,0,1.734,6.331,4.896,9.16c3.161-2.829,4.896-9.16,4.896-9.16c0.103,1.887-0.408,4.851-0.408,4.851
		c1.065-1.407,1.88-2.889,2.519-4.354C38.486,57.475,37.008,62,37.008,62c6.408-2.667,8.864-7.355,8.864-7.355
		c0,2.627-2.037,6.305-2.037,6.305c6.486-4.553,7.887-11.458,7.887-11.458c0.334,4.479-1.003,7.079-1.003,7.079
		c6.018-6.127,5.516-12.606,5.516-12.606c2.006,3.328,1.839,7.451,1.839,7.451c3.343-10.757-1.505-20.583-1.505-20.583
		c2.508,3.853,3.845,10.295,3.845,10.295c1.337-8.439-2.173-17.666-2.173-17.666c2.674,3.485,3.51,6.845,3.51,6.845
		S63.087,26.28,59.577,19.802z"/>
	<g>
		<g>
			<g>
				<g>
					<path fill="#E5BC5E" d="M21.27,9.655c0,3.853-2.588,7.045-5.775,6.973C6.138,16.417,7.432,6.556,9.992,4.623
						C12.592,2.658,21.27,5.809,21.27,9.655z"/>
				</g>
			</g>
			<g>
				<path fill="#3E4347" d="M17.732,10.42c0,2.054-1.38,3.756-3.081,3.718c-4.992-0.112-4.301-5.37-2.936-6.404
					C13.102,6.688,17.732,8.369,17.732,10.42z"/>
			</g>
		</g>
		<path fill="#AF7751" d="M26.334,7.274c0,0-10.616-3.554-15.787,11.757C7.444,28.221,26.334,7.274,26.334,7.274z"/>
	</g>
	<g>
		<g>
			<g>
				<g>
					<path fill="#E5BC5E" d="M42.73,9.655c0,3.853,2.588,7.045,5.775,6.973c9.356-0.211,8.063-10.071,5.502-12.005
						C51.408,2.658,42.73,5.809,42.73,9.655z"/>
				</g>
			</g>
			<g>
				<path fill="#3E4347" d="M46.268,10.42c0,2.054,1.381,3.756,3.081,3.718c4.992-0.112,4.302-5.37,2.936-6.404
					C50.898,6.688,46.268,8.369,46.268,10.42z"/>
			</g>
		</g>
		<path fill="#AF7751" d="M37.666,7.274c0,0,10.616-3.554,15.787,11.757C56.557,28.221,37.666,7.274,37.666,7.274z"/>
	</g>
	<g>
		<path fill="#E5BC5E" d="M51.852,25.292c-0.477-1.801-2.412-8.367-4.051-9.259c-0.397-0.216-1.811,0-1.811,0
			s-3.806-4.558-5.43-5.658c-1.15-0.779-5.15-2.085-5.15-2.085c-1.618-0.539-5.202-0.539-6.82,0c0,0-4.001,1.306-5.15,2.085
			c-1.624,1.101-5.43,5.658-5.43,5.658s-1.414-0.216-1.813,0c-1.637,0.892-3.572,7.458-4.049,9.259
			c-0.512,1.938,5.35,3.126,6.251,4.917c0.976,1.938,1.075,6.198,1.075,6.198h25.05c0,0,0.101-4.259,1.076-6.198
			C46.502,28.417,52.363,27.229,51.852,25.292z"/>
		<g>
			<g>
				<path fill="#3E4347" d="M37.742,23.921c0,0,1.307-5.027,4.759-5.027c3.457,0,5.241,2.215,5.241,2.215h-1.945
					c0,0-0.378,2.813-2.811,2.813c-2.161,0-3.135-1.083-3.135-1.083L37.742,23.921z"/>
				<circle fill="#FFDC14" cx="42.743" cy="21.408" r="2.243"/>
				<ellipse fill="#3E4347" cx="42.743" cy="21.408" rx="0.945" ry="1.27"/>
				<path fill="#3E4347" d="M43.041,20.195c1.527,0,2.708,0.433,3.573,0.914h1.128c0,0-1.784-2.215-5.241-2.215
					c-3.452,0-4.759,5.027-4.759,5.027l1.329-0.682C39.799,21.835,41.066,20.195,43.041,20.195z"/>
			</g>
			<g>
				<path fill="#3E4347" d="M26.258,23.921c0,0-1.305-5.027-4.759-5.027c-3.457,0-5.241,2.215-5.241,2.215h1.945
					c0,0,0.378,2.813,2.812,2.813c2.161,0,3.133-1.083,3.133-1.083L26.258,23.921z"/>
				<circle fill="#FFDC14" cx="21.257" cy="21.408" r="2.244"/>
				<ellipse fill="#3E4347" cx="21.258" cy="21.408" rx="0.945" ry="1.271"/>
				<path fill="#3E4347" d="M20.959,20.195c-1.527,0-2.709,0.433-3.573,0.914h-1.128c0,0,1.784-2.215,5.241-2.215
					c3.454,0,4.759,5.027,4.759,5.027L24.93,23.24C24.202,21.835,22.935,20.195,20.959,20.195z"/>
			</g>
		</g>
		<polygon fill="#FFFFFF" points="32,9.537 30.691,12.501 32,20.755 33.309,12.501 		"/>
		<g>
			<path fill="#FFDA87" d="M28.325,24.109c0,0-9.646,9.735-10.103,10.51c-0.71,1.206-0.447,4.272,0,5.6
				c0.533,1.58,3.145,5.884,3.145,5.884l10.632-6.121l10.632,6.121c0,0,2.61-4.304,3.144-5.884c0.448-1.327,0.71-4.394,0-5.6
				c-0.456-0.775-10.102-10.51-10.102-10.51H28.325z"/>
			<path fill="#FFFFFF" d="M25.969,52.054c1.279,1.627,2.465,3.211,4.029,4.589c-0.115-0.367-0.228-0.736-0.336-1.105
				c0.302,0.491,0.758,1.192,1.292,1.485c0.105-0.61-0.079-2.088-0.047-2.631c0.409,0.831,0.818,1.662,1.228,2.492
				c0.41-0.83,0.82-1.661,1.23-2.492c0,0.368-0.144,2.086-0.051,2.631c0.535-0.293,0.992-0.994,1.293-1.485
				c-0.107,0.369-0.219,0.738-0.334,1.105c1.646-1.233,2.775-2.995,4.027-4.589C34.189,52.054,30.079,52.054,25.969,52.054z"/>
			<g>
				<g>
					<path fill="#AF7751" d="M48.591,35.05c0,0-2.993-1.854-5.984-1.854c0,0,3.785,1.555,5.984,5.04V35.05z"/>
					<path fill="#AF7751" d="M45.566,43.325c0,0-1.668-2.795-4.334-3.938c0,0,2.533,2.834,2.614,6.775L45.566,43.325z"/>
					<path fill="#AF7751" d="M49.812,41.179c0,0-3.607-4.159-8.306-5.41c0,0,5.025,4.024,6.427,10.414L49.812,41.179z"/>
				</g>
				<g>
					<path fill="#AF7751" d="M15.408,35.05c0,0,2.993-1.854,5.984-1.854c0,0-3.784,1.555-5.984,5.04V35.05z"/>
					<path fill="#AF7751" d="M18.434,43.325c0,0,1.668-2.795,4.334-3.938c0,0-2.533,2.834-2.615,6.775L18.434,43.325z"/>
					<path fill="#AF7751" d="M14.188,41.179c0,0,3.607-4.159,8.306-5.41c0,0-5.025,4.024-6.427,10.414L14.188,41.179z"/>
				</g>
			</g>
			<g>
				<path fill="#FFFFFF" d="M32,40.711c-3.141,0-10.632,5.405-10.632,5.405c0,3.357,5.066,8.178,10.632,8.178
					c5.567,0,10.632-4.82,10.632-8.178C42.632,46.116,35.143,40.711,32,40.711z"/>
				<g>
					<path fill="#3E4347" d="M30.837,32.889l0.45,4.237c0.129,0.815,0.449,1.48,0.713,1.48c0.262,0,0.582-0.665,0.711-1.48
						l0.451-4.237H30.837z"/>
					<g>
						<path fill="#3E4347" d="M24.289,27.804v2.148c0,0.771,0.626,1.678,1.389,2.013l4.931,2.155c0.765,0.332,2.017,0.332,2.781,0
							l4.932-2.155c0.763-0.335,1.388-1.241,1.388-2.013v-2.148H24.289z"/>
						<path fill="#FFDA87" d="M39.711,27.804c-2.137-4.263-2.409-4.682-4.25-5.59c-1.552-0.767-5.371-0.767-6.923,0
							c-1.841,0.909-2.112,1.327-4.249,5.59H39.711z"/>
						<path fill="#AF7751" d="M39.244,27.343c-1.449-1.262-13.041-1.262-14.489,0c-1.042,0.908-0.237,0.308,2.527,2.248
							c1.717,1.201,3.358,4.333,4.685,4.433v0.019c0.01,0,0.021-0.009,0.033-0.009s0.023,0.009,0.033,0.009v-0.019
							c1.326-0.1,2.966-3.232,4.684-4.433C39.481,27.651,40.287,28.251,39.244,27.343z"/>
					</g>
					<path fill="#3E4347" d="M32,37.689l-10.632,8.427c0,0,4.742-3.141,6.553-3.605c1.976-0.508,6.183-0.509,8.157,0
						c1.812,0.467,6.554,3.605,6.554,3.605L32,37.689z"/>
				</g>
			</g>
		</g>
	</g>
</g>
</svg>
