<?xml version="1.0" encoding="utf-8"?>
<!-- Generator: Adobe Illustrator 15.0.0, SVG Export Plug-In . SVG Version: 6.00 Build 0)  -->
<!DOCTYPE svg PUBLIC "-//W3C//DTD SVG 1.1//EN" "http://www.w3.org/Graphics/SVG/1.1/DTD/svg11.dtd">
<svg version="1.1" id="Layer_1" xmlns="http://www.w3.org/2000/svg" xmlns:xlink="http://www.w3.org/1999/xlink" x="0px" y="0px"
	 width="64px" height="64px" viewBox="0 0 64 64" enable-background="new 0 0 64 64" xml:space="preserve">
<g>
	<path fill="#FFCE31" d="M2.051,31.382c0,0,0.059-3.226,0-4.559c-0.057-1.335,0.685-0.891,1.597-1.612
		c0.914-0.724,1.941-2.168,2.454-1.613c0.513,0.557,1.767,1.335,2.452-1c0.685-2.337,1.254-1.559,1.769-2.002
		c0.513-0.444,1.824,0.443,2.395-0.557s0.113-1.334,1.54-2.224c1.427-0.89,2.395-2.003,3.593-2.003c1.197,0,3.708-1,4.277-2.779
		c0.571-1.779,1.426-1.668,2.111-2.058c0.685-0.389,1.197-1.278,3.307-1.278c2.111,0,15.686-1.946,31.311,6.395
		c0,0,1.941,1,2.454,1.389c0.513,0.391,0.626,0.168,0.683,4.339c0.057,4.17-0.283,18.17-0.283,21.685
		c0,2.381-0.399,2.057-1.369,2.225c0,0-14.03,2.112-16.082,2.446c-2.055,0.332-2.339,0.223-2.967-0.279
		c-0.629-0.499-2.511-0.507-3.422,0.47c-0.914,0.977-0.344,0.977-1.996,1.144c-1.654,0.167-9.981,1.446-11.748,1.724
		c-1.77,0.278-2.454-1.224-4.449-1.167c-1.997,0.056-3.081,2.168-3.822,2.335c-0.741,0.167-11.235,1.668-12.09,1.778
		c-0.855,0.112-1.714,0.779-1.714-0.222c0-1.002-0.225-3.225,0.288-3.447c0.515-0.222,0.97-0.834,0.97-1.668
		c0-1.557-1.027-1.445-1.027-4.615c0-3.169-0.114-6.395,0.17-6.728c0,0,1.298-0.756,1.298-2.672
		C3.749,32.494,2.051,32.772,2.051,31.382z"/>
	<path fill="#FFEC40" d="M2.069,27.475c-0.271-2.069,0.618-1.542,1.53-2.264c0.914-0.724,1.941-2.168,2.454-1.613
		c0.513,0.557,1.767,1.335,2.451-1c0.686-2.337,1.255-1.559,1.77-2.002c0.513-0.444,1.823,0.443,2.395-0.557s0.113-1.334,1.54-2.224
		s2.395-2.003,3.593-2.003c1.197,0,3.708-1,4.277-2.779c0.571-1.779,1.426-1.668,2.111-2.058c0.685-0.389,1.197-1.278,3.307-1.278
		c2.111,0,15.685-1.946,31.311,6.395c0,0,1.941,1,2.454,1.389c0.061,0.046,0.883,1.046-0.525,1.347
		c-3.764,0.804-12.284,2.283-21.696,3.799c-0.339,0.055-1.39-1.041-1.73-0.986c-0.45,0.072-0.191,1.295-0.644,1.367
		C20.258,25.621,2.163,28.191,2.069,27.475z"/>
	<path fill="#D68F00" d="M3.558,27.528c0.875-0.142,6.491-0.952,6.921-1.013c0.981-0.141,0.549-0.732,1.386-1.181
		c0.837-0.45,2.364,0.505,2.97,0.448C15.442,25.729,30.412,23.479,32,23.28c1.586-0.195,2.537-0.364,2.221-0.758
		s-1.038-1.575,1.615-1.575s2.626,0.759,2.827,1.041c0.202,0.28,0.376,0.252,1.124,0.141c0.751-0.113,5.02-0.619,5.049-0.873
		c0.029-0.253,0.375-0.759,1.703-0.59c1.325,0.168,0.979,0.478,0.605,1.013c-0.375,0.534-0.605,0.934-0.203,1.493
		c0.404,0.559-1.846-0.257-2.047-1.043c-0.201-0.787-4.818,0.618-5.799,0.646c-0.98,0.027-1.154-0.366-1.529-0.731
		s-0.663,1.152,0.318,1.546c0.98,0.394-0.865,1.379-1.789,1.126c-0.922-0.253-0.922-1.406-1.904-1.237
		c-0.98,0.168-18.068,3.136-18.903,3.119c-0.837-0.018-1.778-0.208-2.354,0.354c-0.579,0.563-3.469,0.476-5.229,0.645
		C5.945,27.765,0.728,27.984,3.558,27.528z"/>
	<path fill="#D68F00" d="M61.31,17.48c-0.513-0.389-2.454-1.389-2.454-1.389c-6.629-3.539-12.889-5.223-18.061-5.992
		c0.534,0.146,11.393,3.141,15.736,5.718c2.969,1.761,3.125,2.009,2.74,2.558c-0.385,0.55-1.329,0.479-8.656,2.038
		c-1.365,0.29-2.383,0.374-2.346,0.712c0.038,0.338,2.116-0.186,4.27-0.355s8.423-1.481,8.885-0.92
		c0.232,0.284,0.543,2.547,0.572,4.084c0.006-0.844,0.004-1.566-0.004-2.114C61.936,17.648,61.822,17.871,61.31,17.48z"/>
	<g>
		<polygon fill="#F2B200" points="25.227,51.061 25.227,51.061 25.227,51.061 		"/>
		<path fill="#D68F00" d="M19.676,50.065c1.995-0.057,2.68,1.445,4.449,1.167c0.014-0.003,0.04-0.006,0.057-0.009
			c-0.352-0.132-0.812-0.404-1.412-0.923c-2.002-1.725-4.231-1.725-5-0.302C17,51.423,16.637,51.824,15.854,52.4
			C16.595,52.233,17.679,50.121,19.676,50.065z"/>
	</g>
	<g>
		<path fill="#D68F00" d="M39.652,46.551c-2.332,0.446-2.632,2.732-2.635,2.766c0.285-0.129,0.3-0.361,0.852-0.951
			c0.911-0.977,2.793-0.969,3.422-0.47c0.314,0.251,0.542,0.403,0.95,0.452C41.143,48.128,41.789,46.141,39.652,46.551z"/>
		<path fill="#F2B200" d="M42.658,48.361c0.09-0.003,0.188-0.007,0.291-0.017C42.858,48.345,42.76,48.351,42.658,48.361z"/>
		<path fill="#F2B200" d="M42.572,48.364c0.01,0,0.019,0,0.027,0C42.589,48.365,42.582,48.364,42.572,48.364z"/>
	</g>
	<path fill="#D68F00" d="M3.922,49.316c0.077-2.035-1.536-3.56-1.536-3.56c0.262,1.656,0.921,1.836,0.921,3.085
		c0,0.834-0.456,1.446-0.97,1.668c-0.086,0.037-0.145,0.146-0.194,0.28C2.575,50.53,3.858,51.008,3.922,49.316z"/>
	<path fill="#D68F00" d="M3.926,32.594c-0.839-0.074-1.302-0.224-1.569-0.367c0.489,0.586,1.392,0.896,1.392,2.601
		c0,1.916-1.298,2.672-1.298,2.672c-0.047,0.057-0.084,0.2-0.111,0.41c0.368-0.788,1.205-0.794,2.122-1.633
		C5.693,35.15,5.768,32.751,3.926,32.594z"/>
	<path fill="#D68F00" d="M22.801,11.779c-0.246,0.262-0.477,0.641-0.674,1.254c-0.569,1.779-3.08,2.779-4.277,2.779
		c-0.194,0-0.383,0.038-0.568,0.092c1.194,0.332,2.541,0.955,5.164-1.604C23.711,13.066,21.686,13.246,22.801,11.779z"/>
	<g>
		<path fill="#FFEC40" d="M9.035,45.999c0.075,0.231,0.163,0.477,0.27,0.739c0.924,2.249,5.885,3.262,6.116,0
			c0.029-0.395,0.007-0.756-0.048-1.09C13.795,47.404,10.718,47.472,9.035,45.999z"/>
		<path fill="#D68F00" d="M15.372,45.648c-0.414-2.43-2.873-3.283-4.566-2.849c-1.938,0.497-2.34,1.437-1.771,3.199
			C10.718,47.472,13.795,47.404,15.372,45.648z"/>
	</g>
	<g>
		<path fill="#FFEC40" d="M22.849,30.726c0.07,0.297,0.109,0.6,0.109,0.917c0,2.481-2.271,4.49-5.077,4.49
			c-2.135,0-3.955-1.17-4.704-2.823c-0.286,0.808-0.425,1.744-0.35,2.823c0.383,5.404,8.602,3.729,10.13,0
			C24.035,33.511,24.133,31.827,22.849,30.726z"/>
		<path fill="#D68F00" d="M17.881,36.133c2.806,0,5.077-2.009,5.077-4.49c0-0.317-0.039-0.62-0.109-0.917
			c-0.54-0.467-1.298-0.837-2.374-1.113c-2.554-0.655-6.155,0.461-7.297,3.697C13.926,34.963,15.746,36.133,17.881,36.133z"/>
	</g>
	<g>
		<path fill="#FFEC40" d="M28.694,45.724c-1.591,0-2.994-0.788-3.933-2.001c-0.643,1.921-0.305,4.27,3.377,4.615
			c4.444,0.421,6.345-4.247,5.457-6.58C32.986,44.04,31.033,45.724,28.694,45.724z"/>
		<path fill="#D68F00" d="M28.694,45.724c2.339,0,4.292-1.684,4.901-3.966c-0.063-0.168-0.139-0.325-0.234-0.467
			c-1.383-2.098-5.814-2.004-7.838,0.9c-0.301,0.43-0.572,0.962-0.762,1.531C25.7,44.936,27.104,45.724,28.694,45.724z"/>
	</g>
	<g>
		<path fill="#FFEC40" d="M58.941,39.024c-0.086,1.717-1.733,3.093-3.765,3.093c-1.697,0-3.118-0.966-3.595-2.281
			c-0.146,0.538-0.206,1.108-0.178,1.687c0.117,2.352,3.747,3.947,6.79,1.436C59.69,41.724,59.654,40.228,58.941,39.024z"/>
		<path fill="#D68F00" d="M55.177,42.117c2.031,0,3.679-1.376,3.765-3.093c-0.736-1.237-2.193-2.168-3.441-2.168
			c-2.176,0-3.467,1.321-3.918,2.979C52.059,41.151,53.479,42.117,55.177,42.117z"/>
	</g>
	<g>
		<path fill="#FFEC40" d="M48.424,32.648c0.008,0.084,0.029,0.164,0.029,0.252c0,2.829-2.626,5.123-5.865,5.123
			c-2.324,0-4.316-1.191-5.265-2.905c0.233,0.987,0.729,2.063,1.488,3.272c1.758,2.793,5.265,2.667,7.207,0.773
			C48.049,37.188,49.346,34.807,48.424,32.648z"/>
		<path fill="#D68F00" d="M42.588,38.023c3.239,0,5.865-2.294,5.865-5.123c0-0.088-0.021-0.168-0.029-0.252
			c-0.242-0.569-0.626-1.119-1.203-1.644c-2.771-2.521-8.037-1.261-9.322,0.616c-0.727,1.064-0.883,2.205-0.575,3.497
			C38.271,36.832,40.264,38.023,42.588,38.023z"/>
	</g>
	<g>
		<path fill="#FFEC40" d="M57.995,25.261c0.005,0.058,0.02,0.112,0.02,0.172c0,1.925-1.786,3.485-3.99,3.485
			c-1.581,0-2.937-0.811-3.581-1.977c0.158,0.672,0.496,1.403,1.012,2.227c1.196,1.899,3.582,1.814,4.903,0.525
			C57.739,28.35,58.622,26.729,57.995,25.261z"/>
		<path fill="#D68F00" d="M54.024,28.918c2.204,0,3.99-1.561,3.99-3.485c0-0.06-0.015-0.114-0.02-0.172
			c-0.165-0.387-0.427-0.761-0.818-1.117c-1.886-1.716-5.468-0.858-6.342,0.419c-0.495,0.725-0.602,1.5-0.392,2.379
			C51.088,28.107,52.443,28.918,54.024,28.918z"/>
	</g>
	<g>
		<path fill="#FFC543" d="M23.08,18.505c1.188,0,2.271,0.226,3.15,0.593c-0.268-0.59-0.953-1.144-2.218-1.658
			c-2.335-0.949-6.211-0.231-5.973,3.029c0.002,0.056,0.02,0.104,0.025,0.157C18.637,19.408,20.656,18.505,23.08,18.505z"/>
		<path fill="#D68F00" d="M25.326,21.517c0.888-0.866,1.243-1.671,0.904-2.419c-0.879-0.367-1.963-0.593-3.15-0.593
			c-2.424,0-4.443,0.903-5.015,2.121C18.447,23.727,22.932,23.853,25.326,21.517z"/>
	</g>
	<g>
		<path fill="#FFC543" d="M34.315,13.131c0.863,0,1.673,0.204,2.343,0.552c-0.211-0.451-0.63-0.919-1.322-1.473
			c-2.42-1.932-5.479-0.12-5.289,3.071c0.014,0.184,0.063,0.318,0.095,0.476C30.555,14.256,32.265,13.131,34.315,13.131z"/>
		<path fill="#D68F00" d="M35.336,16.63c1.26-1.226,1.746-2.049,1.322-2.947c-0.67-0.348-1.479-0.552-2.343-0.552
			c-2.051,0-3.761,1.125-4.174,2.626C30.627,18.437,33.555,18.369,35.336,16.63z"/>
	</g>
	<g>
		<path fill="#FFC543" d="M47.742,15.574c0.578,0,1.127,0.094,1.643,0.239c-0.076-0.261-0.219-0.53-0.521-0.803
			c-2.092-1.921-6.962-0.694-6.962,2.423c0,0.749,0.378,1.3,0.964,1.637C43.124,17.109,45.195,15.574,47.742,15.574z"/>
		<path fill="#D68F00" d="M47.828,18.298c0.695-0.542,1.859-1.45,1.557-2.484c-0.516-0.146-1.064-0.239-1.643-0.239
			c-2.547,0-4.618,1.535-4.877,3.496C44.084,19.774,46.217,19.563,47.828,18.298z"/>
	</g>
</g>
</svg>
