<?xml version="1.0" encoding="utf-8"?>
<!-- Generator: Adobe Illustrator 15.0.0, SVG Export Plug-In . SVG Version: 6.00 Build 0)  -->
<!DOCTYPE svg PUBLIC "-//W3C//DTD SVG 1.1//EN" "http://www.w3.org/Graphics/SVG/1.1/DTD/svg11.dtd">
<svg version="1.1" id="Layer_1" xmlns="http://www.w3.org/2000/svg" xmlns:xlink="http://www.w3.org/1999/xlink" x="0px" y="0px"
	 width="64px" height="64px" viewBox="0 0 64 64" enable-background="new 0 0 64 64" xml:space="preserve">
<g>
	<circle fill="#42ADE2" cx="32" cy="32" r="30"/>
	<g>
		<path fill="#FFFFFF" d="M36.51,25h-6.992c-2.633,0-5.145,1.05-5.584,2.333c-0.436,1.284,0.447,2.334,1.965,2.334
			s2.072,2.021,1.23,4.492L22.24,48.508C21.396,50.979,22.859,53,25.492,53h6.992c2.633,0,5.143-1.051,5.582-2.333
			c0.436-1.283-0.447-2.335-1.963-2.335c-1.518,0-2.072-2.021-1.23-4.491l4.889-14.349C40.605,27.022,39.143,25,36.51,25z"/>
		<path fill="#FFFFFF" d="M36.293,11c-2.666,0-5.406,2.238-6.121,5.001C29.455,18.762,31.041,21,33.705,21
			c2.668,0,5.408-2.238,6.123-4.999C40.545,13.238,38.961,11,36.293,11z"/>
	</g>
</g>
</svg>
