<?xml version="1.0" encoding="utf-8"?>
<!-- Generator: Adobe Illustrator 15.0.0, SVG Export Plug-In . SVG Version: 6.00 Build 0)  -->
<!DOCTYPE svg PUBLIC "-//W3C//DTD SVG 1.1//EN" "http://www.w3.org/Graphics/SVG/1.1/DTD/svg11.dtd">
<svg version="1.1" id="Layer_1" xmlns="http://www.w3.org/2000/svg" xmlns:xlink="http://www.w3.org/1999/xlink" x="0px" y="0px"
	 width="64px" height="64px" viewBox="0 0 64 64" enable-background="new 0 0 64 64" xml:space="preserve">
<g>
	<g>
		<g>
			<path fill="#E8E8E8" d="M23.133,62h-4.667c-0.514,0-0.934-0.421-0.934-0.938v-1.875c0-0.515,0.42-0.938,0.934-0.938h4.667
				c0.513,0,0.934,0.423,0.934,0.938v1.875C24.067,61.579,23.646,62,23.133,62z"/>
			<path fill="#62727A" d="M23.133,61.531c0.257,0,0.467-0.21,0.467-0.469v-1.875c0-0.258-0.209-0.469-0.467-0.469h-4.667
				c-0.257,0-0.467,0.211-0.467,0.469v1.875c0,0.259,0.209,0.469,0.467,0.469H23.133z"/>
		</g>
		<path fill="#E8E8E8" d="M23.133,58.25h-4.667c-0.514,0-0.934-0.421-0.934-0.938v-1.875c0-0.515,0.42-0.938,0.934-0.938h4.667
			c0.513,0,0.934,0.423,0.934,0.938v1.875C24.067,57.829,23.646,58.25,23.133,58.25z"/>
		<path fill="#E8E8E8" d="M23.133,54.5h-4.667c-0.514,0-0.934-0.421-0.934-0.938v-1.875c0-0.515,0.42-0.938,0.934-0.938h4.667
			c0.513,0,0.934,0.423,0.934,0.938v1.875C24.067,54.079,23.646,54.5,23.133,54.5z"/>
		<path fill="#E8E8E8" d="M23.133,50.75h-4.667c-0.514,0-0.934-0.421-0.934-0.938v-1.875c0-0.515,0.42-0.938,0.934-0.938h4.667
			c0.513,0,0.934,0.423,0.934,0.938v1.875C24.067,50.329,23.646,50.75,23.133,50.75z"/>
		<path fill="#E8E8E8" d="M42.733,62h-4.667c-0.513,0-0.933-0.421-0.933-0.938v-1.875c0-0.515,0.42-0.938,0.933-0.938h4.667
			c0.514,0,0.934,0.423,0.934,0.938v1.875C43.667,61.579,43.247,62,42.733,62z"/>
		<path fill="#E8E8E8" d="M42.733,58.25h-4.667c-0.513,0-0.933-0.421-0.933-0.938v-1.875c0-0.515,0.42-0.938,0.933-0.938h4.667
			c0.514,0,0.934,0.423,0.934,0.938v1.875C43.667,57.829,43.247,58.25,42.733,58.25z"/>
		<path fill="#E8E8E8" d="M42.733,54.5h-4.667c-0.513,0-0.933-0.421-0.933-0.938v-1.875c0-0.515,0.42-0.938,0.933-0.938h4.667
			c0.514,0,0.934,0.423,0.934,0.938v1.875C43.667,54.079,43.247,54.5,42.733,54.5z"/>
		<path fill="#E8E8E8" d="M42.733,50.75h-4.667c-0.513,0-0.933-0.421-0.933-0.938v-1.875c0-0.515,0.42-0.938,0.933-0.938h4.667
			c0.514,0,0.934,0.423,0.934,0.938v1.875C43.667,50.329,43.247,50.75,42.733,50.75z"/>
		<g>
			<path fill="#E8E8E8" d="M37.134,57.313c0-0.515-0.421-0.938-0.934-0.938H25.001c-0.513,0-0.933,0.423-0.933,0.938v3.75
				c0,0.517,0.42,0.938,0.933,0.938H36.2c0.513,0,0.934-0.421,0.934-0.938V57.313z"/>
			<path fill="#62727A" d="M36.2,61.531c0.257,0,0.467-0.21,0.467-0.469v-3.75c0-0.258-0.21-0.469-0.467-0.469H25.001
				c-0.258,0-0.467,0.211-0.467,0.469v3.75c0,0.259,0.208,0.469,0.467,0.469H36.2z"/>
		</g>
		<path fill="#E8E8E8" d="M37.134,51.688c0-0.515-0.421-0.938-0.934-0.938H25.001c-0.513,0-0.933,0.423-0.933,0.938v3.75
			c0,0.517,0.42,0.938,0.933,0.938H36.2c0.513,0,0.934-0.421,0.934-0.938V51.688z"/>
		<path fill="#FFFFFF" d="M18,60.125v-0.938c0-0.258,0.209-0.469,0.467-0.469h4.667c0.257,0,0.467,0.211,0.467,0.469v0.938H18z"/>
		<path fill="#62727A" d="M23.133,57.781c0.257,0,0.467-0.21,0.467-0.469v-1.875c0-0.258-0.209-0.469-0.467-0.469h-4.667
			c-0.257,0-0.467,0.211-0.467,0.469v1.875c0,0.259,0.209,0.469,0.467,0.469H23.133z"/>
		<path fill="#FFFFFF" d="M18,56.375v-0.938c0-0.258,0.209-0.469,0.467-0.469h4.667c0.257,0,0.467,0.211,0.467,0.469v0.938H18z"/>
		<path fill="#62727A" d="M23.133,54.031c0.257,0,0.467-0.21,0.467-0.469v-1.875c0-0.258-0.209-0.469-0.467-0.469h-4.667
			c-0.257,0-0.467,0.211-0.467,0.469v1.875c0,0.259,0.209,0.469,0.467,0.469H23.133z"/>
		<path fill="#FFFFFF" d="M18,52.625v-0.938c0-0.258,0.209-0.469,0.467-0.469h4.667c0.257,0,0.467,0.211,0.467,0.469v0.938H18z"/>
		<path fill="#62727A" d="M23.133,50.281c0.257,0,0.467-0.21,0.467-0.469v-1.875c0-0.258-0.209-0.469-0.467-0.469h-4.667
			c-0.257,0-0.467,0.211-0.467,0.469v1.875c0,0.259,0.209,0.469,0.467,0.469H23.133z"/>
		<path fill="#FFFFFF" d="M18,48.875v-0.938c0-0.258,0.209-0.469,0.467-0.469h4.667c0.257,0,0.467,0.211,0.467,0.469v0.938H18z"/>
		<path fill="#62727A" d="M42.733,61.531c0.257,0,0.467-0.21,0.467-0.469v-1.875c0-0.258-0.21-0.469-0.467-0.469h-4.667
			c-0.257,0-0.467,0.211-0.467,0.469v1.875c0,0.259,0.21,0.469,0.467,0.469H42.733z"/>
		<path fill="#FFFFFF" d="M37.6,60.125v-0.938c0-0.258,0.21-0.469,0.467-0.469h4.667c0.257,0,0.467,0.211,0.467,0.469v0.938H37.6z"
			/>
		<path fill="#62727A" d="M42.733,57.781c0.257,0,0.467-0.21,0.467-0.469v-1.875c0-0.258-0.21-0.469-0.467-0.469h-4.667
			c-0.257,0-0.467,0.211-0.467,0.469v1.875c0,0.259,0.21,0.469,0.467,0.469H42.733z"/>
		<path fill="#FFFFFF" d="M37.6,56.375v-0.938c0-0.258,0.21-0.469,0.467-0.469h4.667c0.257,0,0.467,0.211,0.467,0.469v0.938H37.6z"
			/>
		<path fill="#62727A" d="M42.733,54.031c0.257,0,0.467-0.21,0.467-0.469v-1.875c0-0.258-0.21-0.469-0.467-0.469h-4.667
			c-0.257,0-0.467,0.211-0.467,0.469v1.875c0,0.259,0.21,0.469,0.467,0.469H42.733z"/>
		<path fill="#FFFFFF" d="M37.6,52.625v-0.938c0-0.258,0.21-0.469,0.467-0.469h4.667c0.257,0,0.467,0.211,0.467,0.469v0.938H37.6z"
			/>
		<path fill="#62727A" d="M42.733,50.281c0.257,0,0.467-0.21,0.467-0.469v-1.875c0-0.258-0.21-0.469-0.467-0.469h-4.667
			c-0.257,0-0.467,0.211-0.467,0.469v1.875c0,0.259,0.21,0.469,0.467,0.469H42.733z"/>
		<path fill="#FFFFFF" d="M37.6,48.875v-0.938c0-0.258,0.21-0.469,0.467-0.469h4.667c0.257,0,0.467,0.211,0.467,0.469v0.938H37.6z"
			/>
		<path fill="#FFFFFF" d="M24.534,59.109v-1.797c0-0.258,0.208-0.469,0.467-0.469H36.2c0.257,0,0.467,0.211,0.467,0.469v1.797
			H24.534z"/>
		<path fill="#62727A" d="M36.2,55.906c0.257,0,0.467-0.21,0.467-0.469v-3.75c0-0.258-0.21-0.469-0.467-0.469H25.001
			c-0.258,0-0.467,0.211-0.467,0.469v3.75c0,0.259,0.208,0.469,0.467,0.469H36.2z"/>
		<path fill="#FFFFFF" d="M24.534,53.484v-1.797c0-0.258,0.208-0.469,0.467-0.469H36.2c0.257,0,0.467,0.211,0.467,0.469v1.797
			H24.534z"/>
	</g>
	<g>
		<g>
			<path fill="#E8E8E8" d="M23.133,2h-4.667c-0.514,0-0.934,0.422-0.934,0.938v1.875c0,0.516,0.42,0.938,0.934,0.938h4.667
				c0.513,0,0.934-0.422,0.934-0.938V2.938C24.067,2.422,23.646,2,23.133,2z"/>
			<path fill="#FFFFFF" d="M18.467,2.469C18.209,2.469,18,2.679,18,2.938v1.875c0,0.259,0.209,0.469,0.467,0.469h4.667
				c0.257,0,0.467-0.209,0.467-0.469V2.938c0-0.258-0.209-0.469-0.467-0.469H18.467z"/>
		</g>
		<path fill="#E8E8E8" d="M23.133,5.75h-4.667c-0.514,0-0.934,0.422-0.934,0.938v1.875c0,0.516,0.42,0.938,0.934,0.938h4.667
			c0.513,0,0.934-0.422,0.934-0.938V6.688C24.067,6.172,23.646,5.75,23.133,5.75z"/>
		<path fill="#E8E8E8" d="M23.133,9.5h-4.667c-0.514,0-0.934,0.422-0.934,0.938v1.875c0,0.516,0.42,0.938,0.934,0.938h4.667
			c0.513,0,0.934-0.422,0.934-0.938v-1.875C24.067,9.922,23.646,9.5,23.133,9.5z"/>
		<path fill="#E8E8E8" d="M23.133,13.25h-4.667c-0.514,0-0.934,0.422-0.934,0.938v1.875c0,0.516,0.42,0.938,0.934,0.938h4.667
			c0.513,0,0.934-0.422,0.934-0.938v-1.875C24.067,13.672,23.646,13.25,23.133,13.25z"/>
		<path fill="#E8E8E8" d="M42.733,2h-4.667c-0.513,0-0.933,0.422-0.933,0.938v1.875c0,0.516,0.42,0.938,0.933,0.938h4.667
			c0.514,0,0.934-0.422,0.934-0.938V2.938C43.667,2.422,43.247,2,42.733,2z"/>
		<path fill="#E8E8E8" d="M42.733,5.75h-4.667c-0.513,0-0.933,0.422-0.933,0.938v1.875c0,0.516,0.42,0.938,0.933,0.938h4.667
			c0.514,0,0.934-0.422,0.934-0.938V6.688C43.667,6.172,43.247,5.75,42.733,5.75z"/>
		<path fill="#E8E8E8" d="M42.733,9.5h-4.667c-0.513,0-0.933,0.422-0.933,0.938v1.875c0,0.516,0.42,0.938,0.933,0.938h4.667
			c0.514,0,0.934-0.422,0.934-0.938v-1.875C43.667,9.922,43.247,9.5,42.733,9.5z"/>
		<path fill="#E8E8E8" d="M42.733,13.25h-4.667c-0.513,0-0.933,0.422-0.933,0.938v1.875c0,0.516,0.42,0.938,0.933,0.938h4.667
			c0.514,0,0.934-0.422,0.934-0.938v-1.875C43.667,13.672,43.247,13.25,42.733,13.25z"/>
		<g>
			<path fill="#E8E8E8" d="M37.134,6.688c0,0.516-0.421,0.938-0.934,0.938H25.001c-0.513,0-0.933-0.422-0.933-0.938v-3.75
				c0-0.516,0.42-0.938,0.933-0.938H36.2c0.513,0,0.934,0.422,0.934,0.938V6.688z"/>
			<path fill="#FFFFFF" d="M25.001,2.469c-0.258,0-0.467,0.21-0.467,0.469v3.75c0,0.259,0.208,0.469,0.467,0.469H36.2
				c0.257,0,0.467-0.209,0.467-0.469v-3.75c0-0.258-0.21-0.469-0.467-0.469H25.001z"/>
		</g>
		<path fill="#E8E8E8" d="M37.134,12.313c0,0.516-0.421,0.938-0.934,0.938H25.001c-0.513,0-0.933-0.422-0.933-0.938v-3.75
			c0-0.516,0.42-0.938,0.933-0.938H36.2c0.513,0,0.934,0.422,0.934,0.938V12.313z"/>
		<path fill="#62727A" d="M18,3.875v0.938c0,0.259,0.209,0.469,0.467,0.469h4.667c0.257,0,0.467-0.209,0.467-0.469V3.875H18z"/>
		<path fill="#FFFFFF" d="M18.467,6.219C18.209,6.219,18,6.429,18,6.688v1.875c0,0.259,0.209,0.469,0.467,0.469h4.667
			c0.257,0,0.467-0.209,0.467-0.469V6.688c0-0.258-0.209-0.469-0.467-0.469H18.467z"/>
		<path fill="#62727A" d="M18,7.625v0.938c0,0.259,0.209,0.469,0.467,0.469h4.667c0.257,0,0.467-0.209,0.467-0.469V7.625H18z"/>
		<path fill="#FFFFFF" d="M18.467,9.969c-0.257,0-0.467,0.21-0.467,0.469v1.875c0,0.259,0.209,0.469,0.467,0.469h4.667
			c0.257,0,0.467-0.209,0.467-0.469v-1.875c0-0.258-0.209-0.469-0.467-0.469H18.467z"/>
		<path fill="#62727A" d="M18,11.375v0.938c0,0.259,0.209,0.469,0.467,0.469h4.667c0.257,0,0.467-0.209,0.467-0.469v-0.938H18z"/>
		<path fill="#FFFFFF" d="M18.467,13.719c-0.257,0-0.467,0.21-0.467,0.469v1.875c0,0.259,0.209,0.469,0.467,0.469h4.667
			c0.257,0,0.467-0.209,0.467-0.469v-1.875c0-0.258-0.209-0.469-0.467-0.469H18.467z"/>
		<path fill="#62727A" d="M18,15.125v0.938c0,0.259,0.209,0.469,0.467,0.469h4.667c0.257,0,0.467-0.209,0.467-0.469v-0.938H18z"/>
		<path fill="#FFFFFF" d="M38.066,2.469c-0.257,0-0.467,0.21-0.467,0.469v1.875c0,0.259,0.21,0.469,0.467,0.469h4.667
			c0.257,0,0.467-0.209,0.467-0.469V2.938c0-0.258-0.21-0.469-0.467-0.469H38.066z"/>
		<path fill="#62727A" d="M37.6,3.875v0.938c0,0.259,0.21,0.469,0.467,0.469h4.667c0.257,0,0.467-0.209,0.467-0.469V3.875H37.6z"/>
		<path fill="#FFFFFF" d="M38.066,6.219c-0.257,0-0.467,0.21-0.467,0.469v1.875c0,0.259,0.21,0.469,0.467,0.469h4.667
			c0.257,0,0.467-0.209,0.467-0.469V6.688c0-0.258-0.21-0.469-0.467-0.469H38.066z"/>
		<path fill="#62727A" d="M37.6,7.625v0.938c0,0.259,0.21,0.469,0.467,0.469h4.667c0.257,0,0.467-0.209,0.467-0.469V7.625H37.6z"/>
		<path fill="#FFFFFF" d="M38.066,9.969c-0.257,0-0.467,0.21-0.467,0.469v1.875c0,0.259,0.21,0.469,0.467,0.469h4.667
			c0.257,0,0.467-0.209,0.467-0.469v-1.875c0-0.258-0.21-0.469-0.467-0.469H38.066z"/>
		<path fill="#62727A" d="M37.6,11.375v0.938c0,0.259,0.21,0.469,0.467,0.469h4.667c0.257,0,0.467-0.209,0.467-0.469v-0.938H37.6z"
			/>
		<path fill="#FFFFFF" d="M38.066,13.719c-0.257,0-0.467,0.21-0.467,0.469v1.875c0,0.259,0.21,0.469,0.467,0.469h4.667
			c0.257,0,0.467-0.209,0.467-0.469v-1.875c0-0.258-0.21-0.469-0.467-0.469H38.066z"/>
		<path fill="#62727A" d="M37.6,15.125v0.938c0,0.259,0.21,0.469,0.467,0.469h4.667c0.257,0,0.467-0.209,0.467-0.469v-0.938H37.6z"
			/>
		<path fill="#62727A" d="M24.534,4.891v1.796c0,0.259,0.208,0.469,0.467,0.469H36.2c0.257,0,0.467-0.209,0.467-0.469V4.891H24.534z
			"/>
		<path fill="#FFFFFF" d="M25.001,8.094c-0.258,0-0.467,0.21-0.467,0.469v3.75c0,0.259,0.208,0.469,0.467,0.469H36.2
			c0.257,0,0.467-0.209,0.467-0.469v-3.75c0-0.258-0.21-0.469-0.467-0.469H25.001z"/>
		<path fill="#62727A" d="M24.534,10.516v1.796c0,0.259,0.208,0.469,0.467,0.469H36.2c0.257,0,0.467-0.209,0.467-0.469v-1.796
			H24.534z"/>
	</g>
	<g>
		<path fill="#E8E8E8" d="M52.066,28.25h-2.8v7.5h2.8c0.514,0,0.934-0.421,0.934-0.938v-5.625C53,28.672,52.58,28.25,52.066,28.25z"
			/>
		<ellipse fill="#62727A" cx="30.6" cy="32" rx="19.6" ry="19.688"/>
		<ellipse fill="#3E4347" cx="30.6" cy="32" rx="16.8" ry="16.875"/>
		<rect x="49.267" y="29.656" fill="#62727A" width="3.733" height="0.938"/>
		<rect x="49.267" y="31.531" fill="#62727A" width="3.733" height="0.938"/>
		<rect x="49.267" y="33.406" fill="#62727A" width="3.733" height="0.938"/>
		<ellipse fill="#E8E8E8" cx="30.6" cy="32" rx="1.867" ry="1.875"/>
		<path fill="#E8E8E8" d="M31.484,24.401c-0.13-0.499-0.417-1.261-0.417-1.776v-2.813c0-0.516-0.21-2.813-0.467-2.813
			c-0.257,0-0.467,2.297-0.467,2.813v2.813c0,0.516-0.287,1.277-0.417,1.776c-0.183,0.704-0.049,1.036-0.049,2.911
			c0,2.813,0,2.813,0,2.813c0,0.516,0.42,0.938,0.934,0.938c0.513,0,0.933-0.422,0.933-0.938c0,0,0,0,0-2.813
			C31.533,25.438,31.667,25.105,31.484,24.401z"/>
		<polygon fill="#E8E8E8" points="29.325,32.343 30.258,30.719 38.341,35.407 37.408,37.03 		"/>
		<circle fill="#62727A" cx="30.6" cy="32" r="0.933"/>
		<g>
			<circle fill="#FFFFFF" cx="30.6" cy="15.125" r="0.933"/>
			<circle fill="#FFFFFF" cx="22.2" cy="17.386" r="0.934"/>
			<circle fill="#FFFFFF" cx="16.051" cy="23.563" r="0.937"/>
			<circle fill="#FFFFFF" cx="13.8" cy="32.001" r="0.938"/>
			<path fill="#FFFFFF" d="M15.585,39.626c0.447-0.258,1.016-0.105,1.273,0.343c0.258,0.448,0.106,1.021-0.34,1.281
				c-0.447,0.259-1.016,0.106-1.274-0.342C14.985,40.458,15.137,39.885,15.585,39.626z"/>
			<path fill="#FFFFFF" d="M21.394,46.146c0.258-0.448,0.826-0.603,1.273-0.344c0.447,0.26,0.6,0.833,0.343,1.281
				c-0.259,0.449-0.828,0.603-1.274,0.343C21.287,47.168,21.133,46.596,21.394,46.146z"/>
			<path fill="#FFFFFF" d="M29.668,48.875c0-0.519,0.416-0.938,0.932-0.938s0.933,0.421,0.935,0.939
				c-0.002,0.517-0.417,0.936-0.933,0.936C30.084,49.814,29.667,49.395,29.668,48.875z"/>
			<circle fill="#FFFFFF" cx="39.001" cy="46.614" r="0.934"/>
			<circle fill="#FFFFFF" cx="45.151" cy="40.438" r="0.936"/>
			<circle fill="#FFFFFF" cx="47.402" cy="31.999" r="0.938"/>
			<path fill="#FFFFFF" d="M45.616,24.374c-0.446,0.259-1.018,0.106-1.274-0.342c-0.259-0.449-0.104-1.021,0.342-1.282
				c0.447-0.257,1.017-0.105,1.274,0.343C46.217,23.543,46.065,24.115,45.616,24.374z"/>
			<path fill="#FFFFFF" d="M39.809,17.854c-0.259,0.449-0.829,0.603-1.275,0.343c-0.446-0.259-0.598-0.831-0.341-1.281
				c0.26-0.447,0.828-0.602,1.274-0.343C39.915,16.833,40.068,17.405,39.809,17.854z"/>
		</g>
	</g>
</g>
</svg>
