<?xml version="1.0" encoding="utf-8"?>
<!-- Generator: Adobe Illustrator 15.0.0, SVG Export Plug-In . SVG Version: 6.00 Build 0)  -->
<!DOCTYPE svg PUBLIC "-//W3C//DTD SVG 1.1//EN" "http://www.w3.org/Graphics/SVG/1.1/DTD/svg11.dtd">
<svg version="1.1" id="Layer_1" xmlns="http://www.w3.org/2000/svg" xmlns:xlink="http://www.w3.org/1999/xlink" x="0px" y="0px"
	 width="64px" height="64px" viewBox="0 0 64 64" enable-background="new 0 0 64 64" xml:space="preserve">
<g>
	<path fill="#94989B" d="M52.895,30.641c0.017-0.299,0.325-7.366-3.922-11.835c-2.202-2.315-5.223-3.491-8.978-3.492
		c-4.928,0-8.428-2.388-10.402-7.1C28.098,4.644,28.081,0,28.081,0h-0.986c0,0,0.146,16.301,12.9,16.301
		c3.475,0,6.254,1.072,8.262,3.185c3.958,4.164,3.657,11.036,3.651,11.103L52.895,30.641z"/>
</g>
<path fill="#D0D0D0" d="M64,53c0,1.656-1.344,3-3,3H3c-1.656,0-3-1.344-3-3V32c0-1.656,1.344-3,3-3h58c1.656,0,3,1.344,3,3V53z"/>
<g>
	<g>
		<path fill="#94989B" d="M6.5,38.801c0,0.553-0.447,1-1,1h-2c-0.552,0-1-0.447-1-1H6.5z"/>
		<path fill="#94989B" d="M11.5,38.801c0,0.553-0.447,1-1,1h-2c-0.552,0-1-0.447-1-1H11.5z"/>
		<path fill="#94989B" d="M16.5,38.801c0,0.553-0.447,1-1,1h-2c-0.552,0-1-0.447-1-1H16.5z"/>
		<path fill="#94989B" d="M21.5,38.801c0,0.553-0.447,1-1,1h-2c-0.552,0-1-0.447-1-1H21.5z"/>
		<path fill="#94989B" d="M26.5,38.801c0,0.553-0.447,1-1,1h-2c-0.553,0-1-0.447-1-1H26.5z"/>
		<path fill="#94989B" d="M31.5,38.801c0,0.553-0.447,1-1,1h-2c-0.553,0-1-0.447-1-1H31.5z"/>
		<path fill="#94989B" d="M36.5,38.801c0,0.553-0.447,1-1,1h-2c-0.553,0-1-0.447-1-1H36.5z"/>
		<path fill="#94989B" d="M41.5,38.801c0,0.553-0.447,1-1,1h-2c-0.553,0-1-0.447-1-1H41.5z"/>
		<path fill="#94989B" d="M46.5,38.801c0,0.553-0.447,1-1,1h-2c-0.553,0-1-0.447-1-1H46.5z"/>
		<path fill="#94989B" d="M51.5,38.801c0,0.553-0.447,1-1,1h-2c-0.553,0-1-0.447-1-1H51.5z"/>
		<path fill="#94989B" d="M61.5,38.801c0,0.553-0.447,1-1,1h-7c-0.553,0-1-0.447-1-1H61.5z"/>
	</g>
	<g>
		<path fill="#94989B" d="M11.5,48.801c0,0.553-0.447,1-1,1h-7c-0.552,0-1-0.447-1-1H11.5z"/>
		<path fill="#94989B" d="M16.5,48.801c0,0.553-0.447,1-1,1h-2c-0.552,0-1-0.447-1-1H16.5z"/>
		<path fill="#94989B" d="M21.5,48.801c0,0.553-0.447,1-1,1h-2c-0.552,0-1-0.447-1-1H21.5z"/>
		<path fill="#94989B" d="M26.5,48.801c0,0.553-0.447,1-1,1h-2c-0.553,0-1-0.447-1-1H26.5z"/>
		<path fill="#94989B" d="M31.5,48.801c0,0.553-0.447,1-1,1h-2c-0.553,0-1-0.447-1-1H31.5z"/>
		<path fill="#94989B" d="M36.5,48.801c0,0.553-0.447,1-1,1h-2c-0.553,0-1-0.447-1-1H36.5z"/>
		<path fill="#94989B" d="M41.5,48.801c0,0.553-0.447,1-1,1h-2c-0.553,0-1-0.447-1-1H41.5z"/>
		<path fill="#94989B" d="M46.5,48.801c0,0.553-0.447,1-1,1h-2c-0.553,0-1-0.447-1-1H46.5z"/>
		<path fill="#94989B" d="M51.5,48.801c0,0.553-0.447,1-1,1h-2c-0.553,0-1-0.447-1-1H51.5z"/>
		<path fill="#94989B" d="M61.5,48.801c0,0.553-0.447,1-1,1h-7c-0.553,0-1-0.447-1-1H61.5z"/>
	</g>
	<g>
		<path fill="#94989B" d="M9,43.801c0,0.553-0.447,1-1,1H3.5c-0.552,0-1-0.447-1-1H9z"/>
		<path fill="#94989B" d="M14,43.801c0,0.553-0.447,1-1,1h-2c-0.552,0-1-0.447-1-1H14z"/>
		<path fill="#94989B" d="M19,43.801c0,0.553-0.447,1-1,1h-2c-0.552,0-1-0.447-1-1H19z"/>
		<path fill="#94989B" d="M24,43.801c0,0.553-0.447,1-1,1h-2c-0.553,0-1-0.447-1-1H24z"/>
		<path fill="#94989B" d="M29,43.801c0,0.553-0.447,1-1,1h-2c-0.553,0-1-0.447-1-1H29z"/>
		<path fill="#94989B" d="M34,43.801c0,0.553-0.447,1-1,1h-2c-0.553,0-1-0.447-1-1H34z"/>
		<path fill="#94989B" d="M39,43.801c0,0.553-0.447,1-1,1h-2c-0.553,0-1-0.447-1-1H39z"/>
		<path fill="#94989B" d="M44,43.801c0,0.553-0.447,1-1,1h-2c-0.553,0-1-0.447-1-1H44z"/>
		<path fill="#94989B" d="M49,43.801c0,0.553-0.447,1-1,1h-2c-0.553,0-1-0.447-1-1H49z"/>
		<path fill="#94989B" d="M54,43.801c0,0.553-0.447,1-1,1h-2c-0.553,0-1-0.447-1-1H54z"/>
		<path fill="#94989B" d="M61.5,43.801c0,0.553-0.447,1-1,1H56c-0.553,0-1-0.447-1-1H61.5z"/>
	</g>
	<g>
		<path fill="#94989B" d="M9,53.801c0,0.553-0.447,1-1,1H3.5c-0.552,0-1-0.447-1-1H9z"/>
		<path fill="#94989B" d="M14,53.801c0,0.553-0.447,1-1,1h-2c-0.552,0-1-0.447-1-1H14z"/>
		<path fill="#94989B" d="M19,53.801c0,0.553-0.447,1-1,1h-2c-0.552,0-1-0.447-1-1H19z"/>
		<path fill="#94989B" d="M44,53.801c0,0.553-0.447,1-1,1H21c-0.553,0-1-0.447-1-1H44z"/>
		<path fill="#94989B" d="M49,53.801c0,0.553-0.447,1-1,1h-2c-0.553,0-1-0.447-1-1H49z"/>
		<path fill="#94989B" d="M57.9,51.338c0,0.553-0.426,1-0.95,1h-1.9c-0.524,0-0.95-0.447-0.95-1H57.9z"/>
		<path fill="#94989B" d="M57.9,53.756c0,0.553-0.426,1-0.951,1H55.05c-0.524,0-0.95-0.447-0.95-1H57.9z"/>
		<path fill="#94989B" d="M53.588,53.756c0,0.553-0.426,1-0.95,1h-1.9c-0.524,0-0.95-0.447-0.95-1H53.588z"/>
		<path fill="#94989B" d="M62.15,53.756c0,0.553-0.426,1-0.95,1h-1.9c-0.524,0-0.95-0.447-0.95-1H62.15z"/>
	</g>
	<g>
		<path fill="#94989B" d="M6.5,33.801c0,0.553-0.447,1-1,1h-2c-0.552,0-1-0.447-1-1H6.5z"/>
		<path fill="#94989B" d="M11.5,33.801c0,0.553-0.447,1-1,1h-2c-0.552,0-1-0.447-1-1H11.5z"/>
		<path fill="#94989B" d="M16.5,33.801c0,0.553-0.447,1-1,1h-2c-0.552,0-1-0.447-1-1H16.5z"/>
		<path fill="#94989B" d="M21.5,33.801c0,0.553-0.447,1-1,1h-2c-0.552,0-1-0.447-1-1H21.5z"/>
		<path fill="#94989B" d="M26.5,33.801c0,0.553-0.447,1-1,1h-2c-0.553,0-1-0.447-1-1H26.5z"/>
		<path fill="#94989B" d="M31.5,33.801c0,0.553-0.447,1-1,1h-2c-0.553,0-1-0.447-1-1H31.5z"/>
		<path fill="#94989B" d="M36.5,33.801c0,0.553-0.447,1-1,1h-2c-0.553,0-1-0.447-1-1H36.5z"/>
		<path fill="#94989B" d="M41.5,33.801c0,0.553-0.447,1-1,1h-2c-0.553,0-1-0.447-1-1H41.5z"/>
		<path fill="#94989B" d="M46.5,33.801c0,0.553-0.447,1-1,1h-2c-0.553,0-1-0.447-1-1H46.5z"/>
		<path fill="#94989B" d="M51.5,33.801c0,0.553-0.447,1-1,1h-2c-0.553,0-1-0.447-1-1H51.5z"/>
		<path fill="#94989B" d="M56.5,33.801c0,0.553-0.447,1-1,1h-2c-0.553,0-1-0.447-1-1H56.5z"/>
		<path fill="#94989B" d="M61.5,33.801c0,0.553-0.447,1-1,1h-2c-0.553,0-1-0.447-1-1H61.5z"/>
	</g>
</g>
<g>
	<g>
		<path fill="#FFFFFF" d="M6.5,38.539c0,0.553-0.447,1-1,1h-2c-0.552,0-1-0.447-1-1v-2c0-0.553,0.448-1,1-1h2c0.553,0,1,0.447,1,1
			V38.539z"/>
		<path fill="#FFFFFF" d="M11.5,38.539c0,0.553-0.447,1-1,1h-2c-0.552,0-1-0.447-1-1v-2c0-0.553,0.448-1,1-1h2c0.553,0,1,0.447,1,1
			V38.539z"/>
		<path fill="#FFFFFF" d="M16.5,38.539c0,0.553-0.447,1-1,1h-2c-0.552,0-1-0.447-1-1v-2c0-0.553,0.448-1,1-1h2c0.553,0,1,0.447,1,1
			V38.539z"/>
		<path fill="#FFFFFF" d="M21.5,38.539c0,0.553-0.447,1-1,1h-2c-0.552,0-1-0.447-1-1v-2c0-0.553,0.448-1,1-1h2c0.553,0,1,0.447,1,1
			V38.539z"/>
		<path fill="#FFFFFF" d="M26.5,38.539c0,0.553-0.447,1-1,1h-2c-0.553,0-1-0.447-1-1v-2c0-0.553,0.447-1,1-1h2c0.553,0,1,0.447,1,1
			V38.539z"/>
		<path fill="#FFFFFF" d="M31.5,38.539c0,0.553-0.447,1-1,1h-2c-0.553,0-1-0.447-1-1v-2c0-0.553,0.447-1,1-1h2c0.553,0,1,0.447,1,1
			V38.539z"/>
		<path fill="#FFFFFF" d="M36.5,38.539c0,0.553-0.447,1-1,1h-2c-0.553,0-1-0.447-1-1v-2c0-0.553,0.447-1,1-1h2c0.553,0,1,0.447,1,1
			V38.539z"/>
		<path fill="#FFFFFF" d="M41.5,38.539c0,0.553-0.447,1-1,1h-2c-0.553,0-1-0.447-1-1v-2c0-0.553,0.447-1,1-1h2c0.553,0,1,0.447,1,1
			V38.539z"/>
		<path fill="#FFFFFF" d="M46.5,38.539c0,0.553-0.447,1-1,1h-2c-0.553,0-1-0.447-1-1v-2c0-0.553,0.447-1,1-1h2c0.553,0,1,0.447,1,1
			V38.539z"/>
		<path fill="#FFFFFF" d="M51.5,38.539c0,0.553-0.447,1-1,1h-2c-0.553,0-1-0.447-1-1v-2c0-0.553,0.447-1,1-1h2c0.553,0,1,0.447,1,1
			V38.539z"/>
		<path fill="#FFFFFF" d="M61.5,38.539c0,0.553-0.447,1-1,1h-7c-0.553,0-1-0.447-1-1v-2c0-0.553,0.447-1,1-1h7c0.553,0,1,0.447,1,1
			V38.539z"/>
	</g>
	<g>
		<path fill="#FFFFFF" d="M11.5,48.539c0,0.553-0.447,1-1,1h-7c-0.552,0-1-0.447-1-1v-2c0-0.553,0.448-1,1-1h7c0.553,0,1,0.447,1,1
			V48.539z"/>
		<path fill="#FFFFFF" d="M16.5,48.539c0,0.553-0.447,1-1,1h-2c-0.552,0-1-0.447-1-1v-2c0-0.553,0.448-1,1-1h2c0.553,0,1,0.447,1,1
			V48.539z"/>
		<path fill="#FFFFFF" d="M21.5,48.539c0,0.553-0.447,1-1,1h-2c-0.552,0-1-0.447-1-1v-2c0-0.553,0.448-1,1-1h2c0.553,0,1,0.447,1,1
			V48.539z"/>
		<path fill="#FFFFFF" d="M26.5,48.539c0,0.553-0.447,1-1,1h-2c-0.553,0-1-0.447-1-1v-2c0-0.553,0.447-1,1-1h2c0.553,0,1,0.447,1,1
			V48.539z"/>
		<path fill="#FFFFFF" d="M31.5,48.539c0,0.553-0.447,1-1,1h-2c-0.553,0-1-0.447-1-1v-2c0-0.553,0.447-1,1-1h2c0.553,0,1,0.447,1,1
			V48.539z"/>
		<path fill="#FFFFFF" d="M36.5,48.539c0,0.553-0.447,1-1,1h-2c-0.553,0-1-0.447-1-1v-2c0-0.553,0.447-1,1-1h2c0.553,0,1,0.447,1,1
			V48.539z"/>
		<path fill="#FFFFFF" d="M41.5,48.539c0,0.553-0.447,1-1,1h-2c-0.553,0-1-0.447-1-1v-2c0-0.553,0.447-1,1-1h2c0.553,0,1,0.447,1,1
			V48.539z"/>
		<path fill="#FFFFFF" d="M46.5,48.539c0,0.553-0.447,1-1,1h-2c-0.553,0-1-0.447-1-1v-2c0-0.553,0.447-1,1-1h2c0.553,0,1,0.447,1,1
			V48.539z"/>
		<path fill="#FFFFFF" d="M51.5,48.539c0,0.553-0.447,1-1,1h-2c-0.553,0-1-0.447-1-1v-2c0-0.553,0.447-1,1-1h2c0.553,0,1,0.447,1,1
			V48.539z"/>
		<path fill="#FFFFFF" d="M61.5,48.539c0,0.553-0.447,1-1,1h-7c-0.553,0-1-0.447-1-1v-2c0-0.553,0.447-1,1-1h7c0.553,0,1,0.447,1,1
			V48.539z"/>
	</g>
	<g>
		<path fill="#FFFFFF" d="M9,43.539c0,0.553-0.447,1-1,1H3.5c-0.552,0-1-0.447-1-1v-2c0-0.553,0.448-1,1-1H8c0.553,0,1,0.447,1,1
			V43.539z"/>
		<path fill="#FFFFFF" d="M14,43.539c0,0.553-0.447,1-1,1h-2c-0.552,0-1-0.447-1-1v-2c0-0.553,0.448-1,1-1h2c0.553,0,1,0.447,1,1
			V43.539z"/>
		<path fill="#FFFFFF" d="M19,43.539c0,0.553-0.447,1-1,1h-2c-0.552,0-1-0.447-1-1v-2c0-0.553,0.448-1,1-1h2c0.553,0,1,0.447,1,1
			V43.539z"/>
		<path fill="#FFFFFF" d="M24,43.539c0,0.553-0.447,1-1,1h-2c-0.553,0-1-0.447-1-1v-2c0-0.553,0.447-1,1-1h2c0.553,0,1,0.447,1,1
			V43.539z"/>
		<path fill="#FFFFFF" d="M29,43.539c0,0.553-0.447,1-1,1h-2c-0.553,0-1-0.447-1-1v-2c0-0.553,0.447-1,1-1h2c0.553,0,1,0.447,1,1
			V43.539z"/>
		<path fill="#FFFFFF" d="M34,43.539c0,0.553-0.447,1-1,1h-2c-0.553,0-1-0.447-1-1v-2c0-0.553,0.447-1,1-1h2c0.553,0,1,0.447,1,1
			V43.539z"/>
		<path fill="#FFFFFF" d="M39,43.539c0,0.553-0.447,1-1,1h-2c-0.553,0-1-0.447-1-1v-2c0-0.553,0.447-1,1-1h2c0.553,0,1,0.447,1,1
			V43.539z"/>
		<path fill="#FFFFFF" d="M44,43.539c0,0.553-0.447,1-1,1h-2c-0.553,0-1-0.447-1-1v-2c0-0.553,0.447-1,1-1h2c0.553,0,1,0.447,1,1
			V43.539z"/>
		<path fill="#FFFFFF" d="M49,43.539c0,0.553-0.447,1-1,1h-2c-0.553,0-1-0.447-1-1v-2c0-0.553,0.447-1,1-1h2c0.553,0,1,0.447,1,1
			V43.539z"/>
		<path fill="#FFFFFF" d="M54,43.539c0,0.553-0.447,1-1,1h-2c-0.553,0-1-0.447-1-1v-2c0-0.553,0.447-1,1-1h2c0.553,0,1,0.447,1,1
			V43.539z"/>
		<path fill="#FFFFFF" d="M61.5,43.539c0,0.553-0.447,1-1,1H56c-0.553,0-1-0.447-1-1v-2c0-0.553,0.447-1,1-1h4.5
			c0.553,0,1,0.447,1,1V43.539z"/>
	</g>
	<g>
		<path fill="#FFFFFF" d="M9,53.539c0,0.553-0.447,1-1,1H3.5c-0.552,0-1-0.447-1-1v-2c0-0.553,0.448-1,1-1H8c0.553,0,1,0.447,1,1
			V53.539z"/>
		<path fill="#FFFFFF" d="M14,53.539c0,0.553-0.447,1-1,1h-2c-0.552,0-1-0.447-1-1v-2c0-0.553,0.448-1,1-1h2c0.553,0,1,0.447,1,1
			V53.539z"/>
		<path fill="#FFFFFF" d="M19,53.539c0,0.553-0.447,1-1,1h-2c-0.552,0-1-0.447-1-1v-2c0-0.553,0.448-1,1-1h2c0.553,0,1,0.447,1,1
			V53.539z"/>
		<path fill="#FFFFFF" d="M44,53.539c0,0.553-0.447,1-1,1H21c-0.553,0-1-0.447-1-1v-2c0-0.553,0.447-1,1-1h22c0.553,0,1,0.447,1,1
			V53.539z"/>
		<path fill="#FFFFFF" d="M49,53.539c0,0.553-0.447,1-1,1h-2c-0.553,0-1-0.447-1-1v-2c0-0.553,0.447-1,1-1h2c0.553,0,1,0.447,1,1
			V53.539z"/>
		<path fill="#FFFFFF" d="M56.924,52.076h-1.848c-1.436,0-1.436-2.205,0-2.205h1.848C58.358,49.871,58.358,52.076,56.924,52.076z"/>
		<path fill="#FFFFFF" d="M56.924,54.494h-1.848c-1.436,0-1.436-2.205,0-2.205h1.848C58.358,52.289,58.358,54.494,56.924,54.494z"/>
		<path fill="#FFFFFF" d="M52.611,54.494h-1.848c-1.436,0-1.436-2.205,0-2.205h1.848C54.046,52.289,54.046,54.494,52.611,54.494z"/>
		<path fill="#FFFFFF" d="M61.174,54.494h-1.848c-1.435,0-1.435-2.205,0-2.205h1.848C62.609,52.289,62.609,54.494,61.174,54.494z"/>
	</g>
	<g>
		<path fill="#FFFFFF" d="M5.5,34.539h-2c-1.552,0-1.552-2.266,0-2.266h2C7.053,32.273,7.053,34.539,5.5,34.539z"/>
		<path fill="#FFFFFF" d="M10.5,34.539h-2c-1.552,0-1.552-2.266,0-2.266h2C12.053,32.273,12.053,34.539,10.5,34.539z"/>
		<path fill="#FFFFFF" d="M15.5,34.539h-2c-1.552,0-1.552-2.266,0-2.266h2C17.053,32.273,17.053,34.539,15.5,34.539z"/>
		<path fill="#FFFFFF" d="M20.5,34.539h-2c-1.552,0-1.552-2.266,0-2.266h2C22.053,32.273,22.053,34.539,20.5,34.539z"/>
		<path fill="#FFFFFF" d="M25.5,34.539h-2c-1.553,0-1.553-2.266,0-2.266h2C27.053,32.273,27.053,34.539,25.5,34.539z"/>
		<path fill="#FFFFFF" d="M30.5,34.539h-2c-1.553,0-1.553-2.266,0-2.266h2C32.053,32.273,32.053,34.539,30.5,34.539z"/>
		<path fill="#FFFFFF" d="M35.5,34.539h-2c-1.553,0-1.553-2.266,0-2.266h2C37.053,32.273,37.053,34.539,35.5,34.539z"/>
		<path fill="#FFFFFF" d="M40.5,34.539h-2c-1.553,0-1.553-2.266,0-2.266h2C42.053,32.273,42.053,34.539,40.5,34.539z"/>
		<path fill="#FFFFFF" d="M45.5,34.539h-2c-1.553,0-1.553-2.266,0-2.266h2C47.053,32.273,47.053,34.539,45.5,34.539z"/>
		<path fill="#FFFFFF" d="M50.5,34.539h-2c-1.553,0-1.553-2.266,0-2.266h2C52.053,32.273,52.053,34.539,50.5,34.539z"/>
		<path fill="#FFFFFF" d="M55.5,34.539h-2c-1.553,0-1.553-2.266,0-2.266h2C57.053,32.273,57.053,34.539,55.5,34.539z"/>
		<path fill="#FFFFFF" d="M60.5,34.539h-2c-1.553,0-1.553-2.266,0-2.266h2C62.053,32.273,62.053,34.539,60.5,34.539z"/>
	</g>
</g>
</svg>
