<?xml version="1.0" encoding="utf-8"?>
<!-- Generator: Adobe Illustrator 15.0.0, SVG Export Plug-In . SVG Version: 6.00 Build 0)  -->
<!DOCTYPE svg PUBLIC "-//W3C//DTD SVG 1.1//EN" "http://www.w3.org/Graphics/SVG/1.1/DTD/svg11.dtd">
<svg version="1.1" id="Layer_1" xmlns="http://www.w3.org/2000/svg" xmlns:xlink="http://www.w3.org/1999/xlink" x="0px" y="0px"
	 width="64px" height="64px" viewBox="0 0 64 64" enable-background="new 0 0 64 64" xml:space="preserve">
<g>
	<path fill="#3E4347" d="M52,52.001c0,2.2,1.8,3.999,4,3.999h4c2.2,0,4-1.799,4-3.999V11.999C64,9.799,62.2,8,60,8h-4
		c-2.2,0-4,1.799-4,3.999V52.001z"/>
	<path fill="#3E4347" d="M3.04,8.972C1.369,7.281,0,7.854,0,10.247v43.506c0,2.394,1.368,2.966,3.039,1.274l19.708-19.951
		c1.671-1.692,1.671-4.46,0-6.152L3.04,8.972z"/>
	<path fill="#3E4347" d="M27.04,8.972C25.369,7.28,24,7.854,24,10.247v43.505c0,2.394,1.368,2.967,3.039,1.275l19.708-19.951
		c1.671-1.692,1.671-4.46,0-6.152L27.04,8.972z"/>
</g>
</svg>
