<?xml version="1.0" encoding="utf-8"?>
<!-- Generator: Adobe Illustrator 15.0.0, SVG Export Plug-In . SVG Version: 6.00 Build 0)  -->
<!DOCTYPE svg PUBLIC "-//W3C//DTD SVG 1.1//EN" "http://www.w3.org/Graphics/SVG/1.1/DTD/svg11.dtd">
<svg version="1.1" id="Layer_1" xmlns="http://www.w3.org/2000/svg" xmlns:xlink="http://www.w3.org/1999/xlink" x="0px" y="0px"
	 width="64px" height="64px" viewBox="0 0 64 64" enable-background="new 0 0 64 64" xml:space="preserve">
<g>
	<path fill="#3E4347" d="M12,52.001C12,54.201,10.2,56,8,56H4c-2.2,0-4-1.799-4-3.999V11.999C0,9.799,1.8,8,4,8h4
		c2.2,0,4,1.799,4,3.999V52.001z"/>
	<path fill="#3E4347" d="M60.96,8.972c1.671-1.691,3.039-1.119,3.039,1.274v43.506c0,2.394-1.368,2.966-3.039,1.274L41.252,35.076
		c-1.671-1.692-1.671-4.46,0-6.152L60.96,8.972z"/>
	<path fill="#3E4347" d="M36.96,8.972c1.671-1.692,3.039-1.118,3.039,1.275v43.505c0,2.394-1.368,2.967-3.039,1.275L17.253,35.076
		c-1.671-1.692-1.671-4.46,0-6.152L36.96,8.972z"/>
</g>
</svg>
