<?xml version="1.0" encoding="utf-8"?>
<!-- Generator: Adobe Illustrator 15.0.0, SVG Export Plug-In . SVG Version: 6.00 Build 0)  -->
<!DOCTYPE svg PUBLIC "-//W3C//DTD SVG 1.1//EN" "http://www.w3.org/Graphics/SVG/1.1/DTD/svg11.dtd">
<svg version="1.1" id="Layer_1" xmlns="http://www.w3.org/2000/svg" xmlns:xlink="http://www.w3.org/1999/xlink" x="0px" y="0px"
	 width="64px" height="64px" viewBox="0 0 64 64" enable-background="new 0 0 64 64" xml:space="preserve">
<g>
	<ellipse fill="#428BC1" cx="32.082" cy="36.016" rx="27" ry="26.985"/>
	<ellipse fill="#FFFFFF" cx="32.082" cy="36.016" rx="21" ry="20.988"/>
	<path fill="#428BC1" d="M9.539,49.383L7.082,64h2c1.25,0,1.711-1.459,2.524-3.277c1.035-2.314,3.686-8.455,3.686-8.455
		L9.539,49.383z"/>
	<path fill="#428BC1" d="M54.626,49.383L57.081,64h-2c-1.25,0-1.709-1.459-2.523-3.277c-1.037-2.314-3.686-8.455-3.686-8.455
		L54.626,49.383z"/>
	<polygon fill="#428BC1" points="11.94,8.753 18.229,15.082 14.913,18.421 8.623,12.092 	"/>
	<polygon fill="#428BC1" points="52.224,8.753 45.935,15.082 49.251,18.421 55.54,12.092 	"/>
	<g>
		<path fill="#94989B" d="M3.791,23.024L22.724,3.971C20.3,1.519,16.942,0,13.235,0C5.84,0-0.154,6.032-0.154,13.474
			C-0.154,17.206,1.354,20.585,3.791,23.024z"/>
		<path fill="#D0D0D0" d="M11.396,1.84C5.01,0.831,0.658,5.222,1.673,11.646c0.51,3.223,2.272,6.347,4.711,8.785L20.131,6.563
			C17.703,4.115,14.598,2.346,11.396,1.84z"/>
	</g>
	<g>
		<path fill="#94989B" d="M41.13,4.019l19.054,18.933c2.451-2.423,3.97-5.78,3.97-9.488c0-7.396-6.031-13.39-13.473-13.389
			C46.948,0.073,43.569,1.581,41.13,4.019z"/>
		<path fill="#D0D0D0" d="M62.314,11.624c1.008-6.386-3.382-10.738-9.807-9.724c-3.224,0.51-6.347,2.273-8.786,4.711l13.869,13.747
			C60.039,17.931,61.809,14.825,62.314,11.624z"/>
	</g>
	<polygon fill="#ED4C5C" points="19.772,47.527 30.837,36.395 32.081,37.646 21.017,48.781 	"/>
	<circle fill="#428BC1" cx="32.081" cy="36.016" r="4"/>
	<rect x="30.081" y="21.025" fill="#428BC1" width="4" height="15.991"/>
	<rect x="34.081" y="34.019" fill="#428BC1" width="8" height="3.997"/>
</g>
</svg>
