<?xml version="1.0" encoding="utf-8"?>
<!-- Generator: Adobe Illustrator 15.0.0, SVG Export Plug-In . SVG Version: 6.00 Build 0)  -->
<!DOCTYPE svg PUBLIC "-//W3C//DTD SVG 1.1//EN" "http://www.w3.org/Graphics/SVG/1.1/DTD/svg11.dtd">
<svg version="1.1" id="Layer_1" xmlns="http://www.w3.org/2000/svg" xmlns:xlink="http://www.w3.org/1999/xlink" x="0px" y="0px"
	 width="64px" height="64px" viewBox="0 0 64 64" enable-background="new 0 0 64 64" xml:space="preserve">
<g>
	<path fill="#D0D0D0" d="M32,0c-3.313,0-6,2.686-6,6c0,3.313,2.687,6,6,6s6-2.687,6-6C38,2.686,35.313,0,32,0z M32,10.285
		c-2.366,0-4.286-1.918-4.286-4.285S29.634,1.714,32,1.714S36.286,3.633,36.286,6S34.366,10.285,32,10.285z"/>
	<g>
		<rect x="30.513" y="8.604" fill="#4E5C66" width="2.975" height="6.543"/>
		<path fill="#647A87" d="M34.514,11.644l-5.028,0.001V5.947c0.002-1.528,5.029-1.528,5.029,0L34.514,11.644z"/>
	</g>
	<g>
		<g>
			
				<rect x="11.585" y="18.585" transform="matrix(0.7069 -0.7073 0.7073 0.7069 -10.6198 15.7416)" fill="#4E5C66" width="4.202" height="4.202"/>
			<path fill="#647A87" d="M15.581,17.563l-5.019,5.021l-3.1-3.101c-0.616-0.616-0.615-1.615,0-2.23l2.789-2.79
				c0.616-0.615,1.615-0.615,2.231,0L15.581,17.563z"/>
		</g>
		<g>
			
				<rect x="48.213" y="18.585" transform="matrix(0.7071 0.7071 -0.7071 0.7071 29.3634 -29.5183)" fill="#4E5C66" width="4.201" height="4.201"/>
			<path fill="#647A87" d="M53.438,22.581l-5.021-5.019l3.101-3.101c0.616-0.616,1.615-0.615,2.23,0l2.79,2.789
				c0.615,0.616,0.615,1.615,0,2.231L53.438,22.581z"/>
		</g>
		<g>
			<circle fill="#647A87" cx="32" cy="39" r="25"/>
			<g>
				<circle fill="#D2D3D5" cx="32" cy="39" r="21.667"/>
				<g>
					<circle fill="#FFFFFF" cx="32" cy="39" r="20"/>
					<g>
						<path fill="#ED4C5C" d="M52,39c0,5.488-2.211,10.46-5.79,14.073L32,39V19C43.045,19,52,27.955,52,39z"/>
						<g>
							<polygon fill="#3E4347" points="43.482,50.372 33.29,38.296 31.296,40.29 							"/>
							<g>
								<g>
									<rect x="31.296" y="20.667" fill="#3E4347" width="1.408" height="5.642"/>
									<rect x="31.296" y="51.692" fill="#3E4347" width="1.408" height="5.642"/>
									<rect x="13.667" y="38.296" fill="#3E4347" width="5.641" height="1.409"/>
									<rect x="44.692" y="38.296" fill="#3E4347" width="5.641" height="1.409"/>
									
										<rect x="22.833" y="22.934" transform="matrix(0.8661 -0.4999 0.4999 0.8661 -9.0171 15.0254)" fill="#3E4347" width="1.411" height="2.821"/>
									
										<rect x="16.638" y="29.128" transform="matrix(0.5001 -0.866 0.866 0.5001 -17.7753 30.2845)" fill="#3E4347" width="1.411" height="2.821"/>
									
										<rect x="16.639" y="46.052" transform="matrix(-0.5007 -0.8656 0.8656 -0.5007 -15.0557 86.2408)" fill="#3E4347" width="1.409" height="2.822"/>
									
										<rect x="22.834" y="52.246" transform="matrix(-0.8659 -0.5002 0.5002 -0.8659 17.0848 111.8911)" fill="#3E4347" width="1.41" height="2.82"/>
									
										<rect x="39.757" y="52.245" transform="matrix(-0.8659 0.5002 -0.5002 -0.8659 102.336 79.8814)" fill="#3E4347" width="1.41" height="2.822"/>
									
										<rect x="45.951" y="46.051" transform="matrix(-0.5005 0.8658 -0.8658 -0.5005 111.0942 30.8212)" fill="#3E4347" width="1.409" height="2.821"/>
									
										<rect x="45.95" y="29.128" transform="matrix(0.5002 0.8659 -0.8659 0.5002 49.764 -25.1362)" fill="#3E4347" width="1.41" height="2.821"/>
									
										<rect x="39.756" y="22.934" transform="matrix(0.8658 0.5005 -0.5005 0.8658 17.6149 -16.9809)" fill="#3E4347" width="1.409" height="2.82"/>
								</g>
								<circle fill="#3E4347" cx="32" cy="39" r="2.821"/>
							</g>
						</g>
					</g>
				</g>
			</g>
		</g>
	</g>
</g>
</svg>
