<?xml version="1.0" encoding="utf-8"?>
<!-- Generator: Adobe Illustrator 15.0.0, SVG Export Plug-In . SVG Version: 6.00 Build 0)  -->
<!DOCTYPE svg PUBLIC "-//W3C//DTD SVG 1.1//EN" "http://www.w3.org/Graphics/SVG/1.1/DTD/svg11.dtd">
<svg version="1.1" id="Layer_1" xmlns="http://www.w3.org/2000/svg" xmlns:xlink="http://www.w3.org/1999/xlink" x="0px" y="0px"
	 width="64px" height="64px" viewBox="0 0 64 64" enable-background="new 0 0 64 64" xml:space="preserve">
<g>
	<path fill="#13618D" d="M62,38.095C62,57.476,48.567,61,31.999,61S2,57.476,2,38.095C2,18.712,15.431,3,31.999,3
		S62,18.712,62,38.095z"/>
	<path fill="#055672" d="M59.049,46.057c0,4.563-5.216,13.495-27.049,13.495c-21.833,0-27.049-8.932-27.049-13.495
		c0-2.109,7.88,7.669,27.048,7.669S59.049,43.947,59.049,46.057z"/>
	<ellipse fill="#428BC1" cx="32" cy="27.337" rx="22.479" ry="22.815"/>
	<g>
		<g>
			
				<ellipse transform="matrix(-0.8659 -0.5003 0.5003 -0.8659 19.8143 93.2274)" fill="#F5F5F5" cx="22.405" cy="43.958" rx="1.289" ry="1.309"/>
			
				<ellipse transform="matrix(-0.8659 -0.5002 0.5002 -0.8659 72.2542 40.8002)" fill="#F5F5F5" cx="41.596" cy="10.716" rx="1.289" ry="1.307"/>
		</g>
		<g>
			
				<ellipse transform="matrix(-0.5 -0.866 0.866 -0.5 -8.9144 68.7177)" fill="#F5F5F5" cx="15.379" cy="36.932" rx="1.289" ry="1.309"/>
			
				<ellipse transform="matrix(-0.5003 -0.8658 0.8658 -0.5003 57.5867 68.7143)" fill="#F5F5F5" cx="48.621" cy="17.741" rx="1.289" ry="1.308"/>
		</g>
		<g>
			<ellipse fill="#F5F5F5" cx="12.808" cy="27.337" rx="1.309" ry="1.289"/>
			<ellipse fill="#F5F5F5" cx="51.192" cy="27.337" rx="1.308" ry="1.289"/>
		</g>
		<g>
			
				<ellipse transform="matrix(0.5002 -0.8659 0.8659 0.5002 -7.6753 22.184)" fill="#F5F5F5" cx="15.379" cy="17.741" rx="1.289" ry="1.309"/>
			
				<ellipse transform="matrix(0.5003 -0.8658 0.8658 0.5003 -7.6826 60.5508)" fill="#F5F5F5" cx="48.621" cy="36.932" rx="1.289" ry="1.308"/>
		</g>
		<g>
			
				<ellipse transform="matrix(0.866 -0.5001 0.5001 0.866 -2.3559 12.641)" fill="#F5F5F5" cx="22.405" cy="10.716" rx="1.289" ry="1.309"/>
			<path fill="#F5F5F5" d="M42.712,43.313c0.362,0.626,0.154,1.422-0.461,1.776c-0.617,0.357-1.41,0.139-1.771-0.486
				c-0.361-0.628-0.155-1.422,0.462-1.779C41.557,42.468,42.351,42.687,42.712,43.313z"/>
		</g>
		<g>
			<ellipse fill="#F5F5F5" cx="32.001" cy="8.145" rx="1.289" ry="1.309"/>
			<ellipse fill="#F5F5F5" cx="32.001" cy="46.528" rx="1.289" ry="1.309"/>
		</g>
	</g>
	<g>
		<g>
			<circle fill="#B0BCC1" cx="32" cy="27.337" r="16"/>
			<circle fill="#F5F5F5" cx="32" cy="25.854" r="14.518"/>
		</g>
		<path fill="#B0BCC1" d="M37.667,33.261c0,7.261-11.334,7.261-11.334,0c0-7.262,2.537-21.239,5.668-21.239
			C35.13,12.021,37.667,25.999,37.667,33.261z"/>
		<path fill="#E4E7EA" d="M36.925,31.796c0,6.994-9.85,6.994-9.85,0c0-6.996,2.205-20.459,4.926-20.459
			C34.72,11.336,36.925,24.8,36.925,31.796z"/>
		<path fill="#FFFFFF" d="M36.146,29.101c0,6.057-8.291,6.057-8.291,0s1.855-17.719,4.146-17.719
			C34.29,11.382,36.146,23.044,36.146,29.101z"/>
	</g>
</g>
</svg>
