<?xml version="1.0" encoding="utf-8"?>
<!-- Generator: Adobe Illustrator 15.0.0, SVG Export Plug-In . SVG Version: 6.00 Build 0)  -->
<!DOCTYPE svg PUBLIC "-//W3C//DTD SVG 1.1//EN" "http://www.w3.org/Graphics/SVG/1.1/DTD/svg11.dtd">
<svg version="1.1" id="Layer_1" xmlns="http://www.w3.org/2000/svg" xmlns:xlink="http://www.w3.org/1999/xlink" x="0px" y="0px"
	 width="64px" height="64px" viewBox="0 0 64 64" enable-background="new 0 0 64 64" xml:space="preserve">
<g>
	<path fill="#FFFFFF" d="M13.995,51c-1.067,0-2.123-0.172-3.139-0.51C6.757,49.136,4,45.321,4,41c0-2.885,1.25-5.63,3.429-7.531
		c0.562-0.493,1.173-0.917,1.826-1.269l-0.033-0.003l0.664-2.314c1.655-5.773,7-9.806,13-9.806c0.597,0,1.21,0.048,1.931,0.151
		c0.552,0.08,1.094,0.191,1.624,0.334l0.265-0.478C29.13,15.714,33.73,13,38.714,13c7.567,0,13.725,6.162,13.725,13.736
		c0,0.371-0.023,0.732-0.054,1.094l-0.021,0.265c0.584,0.223,1.154,0.495,1.704,0.813C57.726,31.018,60,34.946,60,39.16
		c0,5.548-3.772,10.289-9.174,11.53C49.942,50.896,49.048,51,48.171,51H13.995z"/>
	<path fill="#75D6FF" d="M38.714,15c6.476,0,11.725,5.255,11.725,11.736c0,0.315-0.021,0.622-0.047,0.93
		c-2.71,0.207-5.172,1.288-7.107,2.969c1.439-0.828,3.104-1.31,4.885-1.31c0.66,0,1.303,0.067,1.926,0.192
		c1.063,0.21,2.063,0.597,2.971,1.122C56.013,32.339,58,35.513,58,39.16c0,4.67-3.257,8.578-7.622,9.581
		C49.667,48.906,48.931,49,48.171,49c0,0-0.001,0-0.002,0H13.995h-0.001c-0.876,0-1.717-0.145-2.506-0.407
		C8.302,47.54,6,44.539,6,41c0-2.407,1.065-4.56,2.744-6.024c0.76-0.666,1.646-1.186,2.618-1.525
		c0.825-0.288,1.708-0.453,2.633-0.453c2.577,0,4.863,1.227,6.325,3.122l0.071-0.001c-1.696-3.126-4.869-5.331-8.583-5.685
		c1.382-4.82,5.814-8.357,11.077-8.357c0.561,0,1.108,0.054,1.648,0.131c1.068,0.154,2.088,0.447,3.041,0.872
		c3.545,1.584,6.137,4.902,6.713,8.877c0-0.022,0.002-0.047,0.002-0.068c0-4.527-2.32-8.512-5.835-10.834
		C30.456,17.446,34.298,15,38.714,15 M38.714,11c-5.394,0-10.396,2.774-13.273,7.3c-0.111-0.019-0.223-0.036-0.335-0.052
		c-0.823-0.118-1.526-0.172-2.22-0.172c-6.886,0-13.022,4.628-14.922,11.255l-0.452,1.577c-0.491,0.317-0.96,0.67-1.404,1.06
		C3.5,34.243,2,37.537,2,41c0,5.187,3.309,9.764,8.233,11.391C11.445,52.794,12.713,53,13.994,53h34.175
		c1.03,0,2.077-0.122,3.113-0.362C57.589,51.188,62,45.646,62,39.16c0-4.927-2.658-9.519-6.937-11.986
		c-0.206-0.119-0.414-0.233-0.625-0.341c0-0.032,0-0.064,0-0.097C54.438,18.059,47.385,11,38.714,11L38.714,11z"/>
</g>
</svg>
