<?xml version="1.0" encoding="utf-8"?>
<!-- Generator: Adobe Illustrator 15.0.0, SVG Export Plug-In . SVG Version: 6.00 Build 0)  -->
<!DOCTYPE svg PUBLIC "-//W3C//DTD SVG 1.1//EN" "http://www.w3.org/Graphics/SVG/1.1/DTD/svg11.dtd">
<svg version="1.1" id="Layer_1" xmlns="http://www.w3.org/2000/svg" xmlns:xlink="http://www.w3.org/1999/xlink" x="0px" y="0px"
	 width="64px" height="64px" viewBox="0 0 64 64" enable-background="new 0 0 64 64" xml:space="preserve">
<g>
	<g>
		<path fill="#3E4347" d="M32,0c-0.553,0-1,0.447-1,1v5h2V1C33,0.447,32.553,0,32,0z"/>
		<g>
			<rect x="31" y="24" fill="#D0DFE2" width="2" height="26"/>
		</g>
		<g>
			<path fill="#FFBE5C" d="M32,5v26c1.867-2.434,4.836-4.014,8.191-4.014c3.356,0,6.323,1.58,8.191,4.014
				C46.822,16.358,40.237,5,32,5z"/>
			<path fill="#ED77A8" d="M32,5v26c-1.867-2.434-4.836-4.014-8.191-4.014c-3.356,0-6.323,1.58-8.191,4.014
				C17.178,16.358,23.763,5,32,5z"/>
			<path fill="#C7E86F" d="M32,5c8.237,0,14.822,11.358,16.383,26c1.867-2.434,4.836-4.014,8.191-4.014
				c2.928,0,5.56,1.203,7.426,3.124C60.778,15.75,47.68,5,32,5z"/>
			<path fill="#60D4E0" d="M32,5c-8.237,0-14.822,11.358-16.383,26c-1.867-2.434-4.836-4.014-8.191-4.014
				c-2.928,0-5.56,1.203-7.426,3.124C3.222,15.75,16.32,5,32,5z"/>
		</g>
	</g>
	<path fill="#3E4347" d="M30,50v6c0,2.205-1.795,4-4,4s-4-1.795-4-4c0-1.104-0.896-2-2-2s-2,0.896-2,2c0,4.411,3.589,8,8,8
		s8-3.589,8-8v-6H30z"/>
</g>
</svg>
