<?xml version="1.0" encoding="utf-8"?>
<!-- Generator: Adobe Illustrator 15.0.0, SVG Export Plug-In . SVG Version: 6.00 Build 0)  -->
<!DOCTYPE svg PUBLIC "-//W3C//DTD SVG 1.1//EN" "http://www.w3.org/Graphics/SVG/1.1/DTD/svg11.dtd">
<svg version="1.1" id="Layer_1" xmlns="http://www.w3.org/2000/svg" xmlns:xlink="http://www.w3.org/1999/xlink" x="0px" y="0px"
	 width="64px" height="64px" viewBox="0 0 64 64" enable-background="new 0 0 64 64" xml:space="preserve">
<g>
	<circle fill="#D0DFE2" cx="31.64" cy="26.946" r="12.444"/>
	<circle fill="#FFFFFF" cx="31.64" cy="26.946" r="10.313"/>
	<g>
		<polygon fill="#89664C" points="51.324,32.154 49.268,36.563 44.879,38.996 45.316,40.597 50.28,37.838 52.645,32.769 		"/>
		<g>
			<path fill="#13618D" d="M54.25,34.069c-1.248,0.41-4.561-1.036-4.913-2.291c-0.142-0.501,0.383-1.629,0.858-1.844
				c1.19-0.535,4.426,1.071,4.914,2.292C55.305,32.714,54.749,33.906,54.25,34.069z"/>
			<path fill="#428BC1" d="M56.491,23.212c-4.991-1.657-4.087,5.89-5.334,3.341c-0.814-1.665-2.285-1.681-1.94,1.163
				c0.338,2.791,3.324,5.184,5.978,4.182C57.795,30.916,60.627,24.586,56.491,23.212z"/>
		</g>
	</g>
	<g>
		<polygon fill="#89664C" points="12.675,32.154 14.731,36.563 19.121,38.996 18.683,40.597 13.719,37.839 11.356,32.769 		"/>
		<g>
			<path fill="#13618D" d="M9.749,34.069c1.249,0.41,4.56-1.036,4.913-2.291c0.143-0.503-0.382-1.629-0.859-1.844
				c-1.189-0.537-4.424,1.071-4.914,2.292C8.694,32.713,9.251,33.906,9.749,34.069z"/>
			<path fill="#428BC1" d="M7.508,23.212c4.992-1.658,4.086,5.89,5.334,3.341c0.815-1.665,2.285-1.682,1.94,1.163
				c-0.337,2.791-3.323,5.184-5.977,4.182C6.204,30.916,3.373,24.586,7.508,23.212z"/>
		</g>
	</g>
	<path fill="#D0DFE2" d="M51.389,49.834c0,8.925-8.681,11.229-19.389,11.229c-10.709,0-19.39-2.304-19.39-11.229
		c0-8.924,8.681-16.156,19.39-16.156C42.708,33.678,51.389,40.91,51.389,49.834z"/>
	<path fill="#FFFFFF" d="M49.337,48.926c0,7.44-7.764,11.779-17.338,11.779c-9.575,0-17.336-4.339-17.336-11.779
		c0-7.442,7.762-13.475,17.336-13.475C41.573,35.451,49.337,41.483,49.337,48.926z"/>
	<g>
		<ellipse fill="#3E4347" cx="32" cy="40.258" rx="1.595" ry="1.74"/>
		<ellipse fill="#3E4347" cx="32" cy="46.724" rx="1.595" ry="1.737"/>
	</g>
	<path fill="#D0DFE2" d="M62,62h-4.453l-32.83-2.232L6.746,62H2c0-4.164,9.806-11.078,25.822-7.213
		C43.911,58.671,55.244,55.197,62,62z"/>
	<path fill="#FFFFFF" d="M57.547,62H6.746c0-3.545,6.833-9.52,20.08-5.396C40.211,60.771,49.399,57.386,57.547,62z"/>
	<polygon fill="#A2CBDB" points="11.428,8.68 13.477,5.523 10.32,7.571 9.5,2 8.678,7.572 5.521,5.523 7.568,8.678 2,9.501 
		7.572,10.324 5.521,13.479 8.676,11.429 9.5,17.002 10.322,11.429 13.477,13.479 11.426,10.322 17,9.501 	"/>
	<polygon fill="#A2CBDB" points="55.082,11.826 56.299,9.951 54.425,11.168 53.938,7.86 53.45,11.168 51.575,9.951 52.791,11.825 
		49.484,12.313 52.793,12.802 51.575,14.675 53.448,13.459 53.938,16.768 54.426,13.459 56.299,14.675 55.081,12.801 58.391,12.313 
			"/>
	<polygon fill="#A2CBDB" points="19.932,51.005 21.713,48.259 18.968,50.04 18.254,45.195 17.54,50.041 14.794,48.259 
		16.574,51.003 11.732,51.719 16.578,52.435 14.794,55.179 17.538,53.396 18.254,58.242 18.969,53.396 21.713,55.179 19.93,52.433 
		24.777,51.719 	"/>
	
		<rect x="12.896" y="20.469" transform="matrix(0.7071 -0.7071 0.7071 0.7071 -11.2518 16.4548)" fill="#A2CBDB" width="2.681" height="2.682"/>
	
		<rect x="4.322" y="38.129" transform="matrix(0.7072 -0.707 0.707 0.7072 -26.2482 15.5602)" fill="#A2CBDB" width="2.681" height="2.682"/>
	
		<rect x="57.719" y="51.489" transform="matrix(0.7073 -0.7069 0.7069 0.7073 -20.0591 57.2145)" fill="#A2CBDB" width="2.681" height="2.682"/>
	
		<rect x="46.2" y="4.998" transform="matrix(0.707 -0.7072 0.7072 0.707 9.446 35.4773)" fill="#A2CBDB" width="2.681" height="2.682"/>
	
		<rect x="57.727" y="4.738" transform="matrix(0.7067 -0.7075 0.7075 0.7067 13.3028 42.893)" fill="#A2CBDB" width="1.325" height="1.325"/>
	
		<rect x="53.141" y="36.911" transform="matrix(0.7071 -0.7071 0.7071 0.7071 -10.8102 49.0502)" fill="#A2CBDB" width="1.326" height="1.326"/>
	
		<rect x="58.396" y="42.871" transform="matrix(0.7071 -0.7071 0.7071 0.7071 -13.4855 54.5116)" fill="#A2CBDB" width="1.324" height="1.326"/>
	
		<rect x="5.49" y="51.056" transform="matrix(0.7067 -0.7075 0.7075 0.7067 -34.7853 19.5201)" fill="#A2CBDB" width="1.325" height="1.325"/>
	
		<rect x="20.579" y="5.332" transform="matrix(0.7069 -0.7073 0.7073 0.7069 1.9852 16.7811)" fill="#A2CBDB" width="1.325" height="1.325"/>
	<g>
		<g>
			<g>
				<path fill="#3E4347" d="M31.641,31.015c-2.373,0-4.659-1.087-6.272-2.979c-0.276-0.328-0.237-0.818,0.09-1.098
					c0.325-0.277,0.817-0.239,1.096,0.089c1.335,1.568,3.143,2.433,5.086,2.433s3.75-0.864,5.084-2.433
					c0.279-0.328,0.771-0.366,1.097-0.089c0.326,0.279,0.365,0.77,0.088,1.098C36.299,29.929,34.013,31.015,31.641,31.015z"/>
			</g>
		</g>
		<g>
			<g>
				<circle fill="#FF8736" cx="31.649" cy="24.654" r="2.343"/>
			</g>
		</g>
		<g>
			<g>
				<circle fill="#3E4347" cx="25.538" cy="22.109" r="1.875"/>
			</g>
			<g>
				<circle fill="#3E4347" cx="37.743" cy="22.109" r="1.875"/>
			</g>
		</g>
	</g>
	<path fill="#ED4C5C" d="M19.975,16.529c0,0,0-5.472,4.732-6.416c0,0-0.326-4.796,12.457-7.554c5.618-1.211,6.729-1.341,8.059,9.077
		c0.513,4.024,5.407,7.193,1.656,8.434c-1.235,0.408-1.173,2.357-1.173,2.357l-13.105-5.055L19.975,16.529z"/>
	<path fill="#CC2E45" d="M24.707,10.114c0.974-0.245,1.979-0.355,2.984-0.403c1.007-0.049,2.019,0.001,3.022,0.136
		c1.985,0.285,4.028,0.965,5.496,2.368c-1.695-1.081-3.618-1.607-5.565-1.88C28.693,10.061,26.708,10.032,24.707,10.114z"/>
	<path fill="#CC2E45" d="M47.415,18.476c-1.082-0.42-2.125-0.975-3.051-1.714c-0.934-0.725-1.691-1.701-2.195-2.777
		c-0.507-1.077-0.808-2.197-1.283-3.229c-0.468-1.035-1.167-1.956-2.003-2.765c0.965,0.649,1.781,1.548,2.342,2.595
		c0.578,1.038,0.896,2.171,1.389,3.188c0.472,1.028,1.156,1.935,1.995,2.702C45.449,17.244,46.423,17.874,47.415,18.476z"/>
	<g>
		<circle fill="#C4CCCE" cx="48.201" cy="19.655" r="3.64"/>
	</g>
	<g>
		<circle fill="#F5F5F5" cx="48.201" cy="18.961" r="2.948"/>
	</g>
	<path fill="#F5F5F5" d="M33.786,14.87c-8.155-1.473-15.296,0.261-15.95,3.877c-0.255,1.413,0.443,2.966,1.97,4.347
		c-0.579-3.438,6.656-5.331,13.293-4.132c6.639,1.201,12.209,4.503,10.985,8.422c1.913-0.761,3.027-1.88,3.284-3.295
		C48.021,20.472,41.941,16.345,33.786,14.87z"/>
	<path fill="#C4CCCE" d="M33.1,17.892c-8.156-1.474-16.106,2.228-13.293,5.201c1.091-3.144,6.504-4.778,13.141-3.58
		c6.638,1.203,10.871,4.641,11.138,7.87C48.202,24.924,41.254,19.366,33.1,17.892z"/>
	<g>
		<path fill="#CC2E45" d="M20.139,32.531c-0.763-0.095,0,1.635,0,2.177c0,0.546-0.649,1.796,0,2.181
			c4.071,2.421,18.567-0.229,23.033,0c0.733,0.039,0-1.635,0-2.181c0-0.543,0.576-1.753,0-2.177
			C39.553,29.867,26.483,33.314,20.139,32.531z"/>
		<path fill="#ED4C5C" d="M41.191,47.844c-2.523-1.016-6.91,1.322-6.266,0c1.64-3.378,2.776-13.561,0.103-16.218
			c-1.066-1.061,4.853-0.936,5.959,0.091C44.081,34.578,42.868,48.522,41.191,47.844z"/>
	</g>
</g>
</svg>
