<?xml version="1.0" encoding="utf-8"?>
<!-- Generator: Adobe Illustrator 15.0.0, SVG Export Plug-In . SVG Version: 6.00 Build 0)  -->
<!DOCTYPE svg PUBLIC "-//W3C//DTD SVG 1.1//EN" "http://www.w3.org/Graphics/SVG/1.1/DTD/svg11.dtd">
<svg version="1.1" id="Layer_1" xmlns="http://www.w3.org/2000/svg" xmlns:xlink="http://www.w3.org/1999/xlink" x="0px" y="0px"
	 width="64px" height="64px" viewBox="0 0 64 64" enable-background="new 0 0 64 64" xml:space="preserve">
<g>
	<polygon fill="#62BBC7" points="25.453,8.314 4.851,48.433 4.851,59.148 15.566,59.148 	"/>
	<polygon fill="#62BBC7" points="55.686,38.547 4.851,48.433 4.851,59.148 15.566,59.148 	"/>
	<polygon fill="#6DD1DE" points="39.74,8.314 4.851,48.433 4.851,59.148 15.566,59.148 	"/>
	<polygon fill="#6DD1DE" points="55.686,24.26 15.566,59.148 4.851,59.148 4.851,48.433 	"/>
	<polygon fill="#7DF0FF" points="62,2 4.851,48.433 4.851,59.148 15.566,59.148 	"/>
	<polygon fill="#C2F8FF" points="33.426,30.574 4.851,48.433 4.851,59.148 15.566,59.148 	"/>
	<circle fill="#7DF0FF" cx="9.578" cy="54.422" r="7.577"/>
	<g>
		<circle fill="#5995C1" cx="9.577" cy="54.422" r="6.695"/>
		<g>
			<circle fill="#4B7EA3" cx="9.405" cy="49.943" r="1.477"/>
			<circle fill="#5995C1" cx="9.326" cy="49.591" r="1.223"/>
		</g>
		<g>
			<circle fill="#4B7EA3" cx="14.152" cy="52.705" r="0.972"/>
			<circle fill="#5995C1" cx="14.101" cy="52.474" r="0.805"/>
		</g>
		<g>
			<circle fill="#4B7EA3" cx="11.736" cy="58.846" r="1.454"/>
			<circle fill="#5995C1" cx="11.658" cy="58.499" r="1.202"/>
		</g>
		<g>
			<circle fill="#4B7EA3" cx="4.68" cy="52.903" r="0.971"/>
			<circle fill="#5995C1" cx="4.627" cy="52.672" r="0.805"/>
		</g>
		<g>
			<circle fill="#4B7EA3" cx="7.858" cy="56.248" r="2.461"/>
			<circle fill="#5995C1" cx="7.726" cy="55.661" r="2.036"/>
		</g>
	</g>
	
		<rect x="11.428" y="31.167" transform="matrix(0.7071 -0.7071 0.7071 0.7071 -19.2832 18.6396)" fill="#C2F8FF" width="2.86" height="2.86"/>
	
		<rect x="29.972" y="22.83" transform="matrix(0.7068 -0.7074 0.7074 0.7068 -7.9541 29.3288)" fill="#C2F8FF" width="2.86" height="2.86"/>
	
		<rect x="28.546" y="11.495" transform="matrix(0.7069 -0.7073 0.7073 0.7069 -0.3563 24.9891)" fill="#C2F8FF" width="2.86" height="2.86"/>
	
		<rect x="50.88" y="18.691" transform="matrix(0.7072 -0.707 0.707 0.7072 1.0901 42.8758)" fill="#C2F8FF" width="2.86" height="2.861"/>
	
		<rect x="44.712" y="35.515" transform="matrix(0.7071 -0.7071 0.7071 0.7071 -12.6098 43.4489)" fill="#C2F8FF" width="2.86" height="2.861"/>
	
		<rect x="20.455" y="29.254" transform="matrix(0.7071 -0.7071 0.7071 0.7071 -14.9875 23.7389)" fill="#C2F8FF" width="1.414" height="1.414"/>
	
		<rect x="18.431" y="23.553" transform="matrix(0.7071 -0.7071 0.7071 0.7071 -11.5488 20.6383)" fill="#C2F8FF" width="1.414" height="1.414"/>
	
		<rect x="35.181" y="37.84" transform="matrix(0.7075 -0.7068 0.7068 0.7075 -16.7449 36.641)" fill="#C2F8FF" width="1.414" height="1.414"/>
	
		<rect x="31.293" y="46.662" transform="matrix(0.7075 -0.7068 0.7068 0.7075 -24.1169 36.4736)" fill="#C2F8FF" width="1.414" height="1.414"/>
	
		<rect x="40.626" y="42.595" transform="matrix(0.7075 -0.7068 0.7068 0.7075 -18.5125 41.8806)" fill="#C2F8FF" width="1.414" height="1.414"/>
	
		<rect x="46.437" y="24.178" transform="matrix(0.7075 -0.7068 0.7068 0.7075 -3.7962 40.5994)" fill="#C2F8FF" width="1.414" height="1.414"/>
	
		<rect x="53.626" y="29.254" transform="matrix(0.7071 -0.7071 0.7071 0.7071 -5.2718 47.1946)" fill="#C2F8FF" width="1.414" height="1.414"/>
	
		<rect x="42.626" y="10.294" transform="matrix(0.7073 -0.7069 0.7069 0.7073 4.9073 33.8539)" fill="#C2F8FF" width="1.414" height="1.414"/>
	
		<rect x="45.437" y="2.92" transform="matrix(0.7073 -0.7069 0.7069 0.7073 10.9433 33.6821)" fill="#C2F8FF" width="1.414" height="1.414"/>
	
		<rect x="34.182" y="7.607" transform="matrix(0.7073 -0.7069 0.7069 0.7073 4.335 27.0977)" fill="#C2F8FF" width="1.414" height="1.414"/>
</g>
</svg>
