<?xml version="1.0" encoding="utf-8"?>
<!-- Generator: Adobe Illustrator 15.0.0, SVG Export Plug-In . SVG Version: 6.00 Build 0)  -->
<!DOCTYPE svg PUBLIC "-//W3C//DTD SVG 1.1//EN" "http://www.w3.org/Graphics/SVG/1.1/DTD/svg11.dtd">
<svg version="1.1" id="Layer_1" xmlns="http://www.w3.org/2000/svg" xmlns:xlink="http://www.w3.org/1999/xlink" x="0px" y="0px"
	 width="64px" height="64px" viewBox="0 0 64 64" enable-background="new 0 0 64 64" xml:space="preserve">
<g>
	<g>
		<path fill="#333333" d="M24.232,55.962c0,2.229-1.802,4.038-4.024,4.038h-5.556c-2.223,0-4.024-1.809-4.024-4.038v-2.581h13.604
			V55.962z"/>
		<path fill="#333333" d="M53.372,55.962c0,2.229-1.802,4.038-4.024,4.038h-5.556c-2.222,0-4.023-1.809-4.023-4.038v-2.581h13.604
			V55.962z"/>
	</g>
	<path fill="#676E72" d="M56.133,9.093C51.537,6.063,42.445,3.999,31.976,4C19.928,3.999,9.707,6.733,6.062,10.526
		C3.589,12.956,2,16.689,2,20.884c0,3.672,21.563,3.672,21.563,0c0-2.818-0.721-5.426-1.941-7.575
		c3.194-0.459,6.686-0.716,10.354-0.717c3.684,0,7.191,0.261,10.397,0.723c-1.218,2.147-1.936,4.753-1.936,7.569
		c0,3.672,21.563,3.672,21.563-0.001C62,15.741,59.613,11.292,56.133,9.093z"/>
	<g>
		<path fill="#333333" d="M17.916,10.897c1.357,2.382,5.246,8.501,2.814,10.926C25.985,21.565,21.028,11.866,17.916,10.897z"/>
		<path fill="#333333" d="M56.354,10.896c1.354,2.381,5.244,8.504,2.813,10.927C64.42,21.565,59.463,11.867,56.354,10.896z"/>
	</g>
	<path fill="#676E72" d="M57.553,51.711c0,2.23-1.802,4.039-4.025,4.039H10.472c-2.223,0-4.024-1.809-4.024-4.039v-7.285h51.105
		V51.711z"/>
	<path fill="#333333" d="M57.553,44.426H6.448c0,0,4.754-11.326,11.267-11.326h28.57C52.798,33.1,57.553,44.426,57.553,44.426z"/>
	<path fill="#676E72" d="M52.154,39.911H11.846c0,0.002,3.749-18.04,8.888-18.04h22.533C48.405,21.871,52.154,39.913,52.154,39.911z
		"/>
	<path fill="#333333" d="M40.761,8.079c-1.093,0.962-1.92,4.141-3.164,4.894c-2.397,1.449-8.796,1.449-11.194,0
		c-1.243-0.752-2.071-3.932-3.164-4.894c-0.755-0.665-3.473-0.847-4.019,0c-1.53,2.372,3.043,8.686,5.636,9.787
		c3.29,1.397,10.999,1.397,14.289,0c2.593-1.101,7.166-7.415,5.637-9.787C44.234,7.232,41.516,7.415,40.761,8.079z"/>
	<g>
		<path fill="#A59A7C" d="M46.811,25.125c1.807,6.513-4.68,13.159-14.954,13.159c-10.276,0-16.585-6.646-14.605-13.159
			c1.576-5.184,8.123-8.669,14.894-8.669C38.916,16.456,45.371,19.941,46.811,25.125z"/>
		<path fill="#F9EEB6" d="M46.129,24.488c1.62,6.06-4.585,12.162-14.251,12.162s-15.708-6.103-13.928-12.162
			c1.435-4.88,7.686-8.192,14.198-8.192C38.659,16.296,44.823,19.608,46.129,24.488z"/>
		<path fill="#A59A7C" d="M38.006,24.632c0.26,2.464-2.43,4.648-6.03,4.648c-3.602,0-6.234-2.184-5.908-4.648
			c0.296-2.247,2.98-3.925,6.021-3.925C35.128,20.707,37.77,22.385,38.006,24.632z"/>
		<path fill="#D1C5B5" d="M37.751,24.375c0.231,2.288-2.343,4.3-5.768,4.3c-3.424,0-5.944-2.012-5.654-4.3
			c0.267-2.094,2.836-3.668,5.761-3.668C35.012,20.707,37.541,22.28,37.751,24.375z"/>
		<g>
			<path fill="#A8A08D" d="M30.455,17.401c-0.97,0.561-1.039,1.5-0.11,2.1c0.954,0.618,2.55,0.618,3.521,0
				c0.944-0.601,0.898-1.54-0.056-2.1C32.881,16.855,31.398,16.855,30.455,17.401z"/>
			<path fill="#A8A08D" d="M35.866,20.017c0.063,0.898,1.279,1.652,2.724,1.652c1.439,0,2.474-0.753,2.313-1.652
				c-0.153-0.864-1.366-1.54-2.709-1.54C36.847,18.477,35.807,19.154,35.866,20.017z"/>
			<path fill="#A8A08D" d="M36.532,29.652c0.092,1.323,1.591,2.44,3.354,2.44c1.754,0,2.98-1.117,2.744-2.44
				c-0.227-1.262-1.714-2.242-3.327-2.242C37.684,27.41,36.445,28.39,36.532,29.652z"/>
			<path fill="#A8A08D" d="M29.585,34.042c1.253,1.083,3.374,1.083,4.653,0c1.237-1.046,1.16-2.663-0.092-3.615
				c-1.213-0.922-3.137-0.922-4.371,0C28.497,31.38,28.377,32.996,29.585,34.042z"/>
			<path fill="#A8A08D" d="M21.311,29.652c-0.271,1.32,0.923,2.44,2.681,2.44c1.759,0,3.292-1.12,3.417-2.44
				c0.12-1.262-1.094-2.242-2.711-2.242S21.57,28.39,21.311,29.652z"/>
			<path fill="#A8A08D" d="M20.01,25.765c0.928,0.801,2.749,0.801,4.008,0c1.223-0.777,1.4-1.987,0.457-2.706
				c-0.917-0.698-2.591-0.698-3.797,0C19.436,23.777,19.111,24.987,20.01,25.765z"/>
			<path fill="#A8A08D" d="M28.329,20.018c0.084-0.865-0.941-1.541-2.285-1.541c-1.346,0-2.573,0.676-2.75,1.541
				c-0.184,0.896,0.828,1.651,2.27,1.651C27.003,21.668,28.245,20.914,28.329,20.018z"/>
		</g>
		<g>
			<path fill="#FFFFFF" d="M30.469,17.568c-0.959,0.565-1.029,1.513-0.11,2.117c0.945,0.624,2.525,0.624,3.486,0
				c0.934-0.604,0.89-1.552-0.053-2.117C32.873,17.019,31.403,17.019,30.469,17.568z"/>
			<path fill="#FFFFFF" d="M35.827,20.205c0.061,0.907,1.268,1.667,2.698,1.667c1.424,0,2.448-0.76,2.287-1.667
				c-0.152-0.869-1.353-1.552-2.682-1.552C36.797,18.653,35.769,19.336,35.827,20.205z"/>
			<path fill="#FFFFFF" d="M36.488,29.929c0.09,1.336,1.577,2.464,3.323,2.464c1.741,0,2.955-1.128,2.72-2.464
				c-0.226-1.273-1.7-2.263-3.298-2.263C37.629,27.666,36.402,28.655,36.488,29.929z"/>
			<path fill="#FFFFFF" d="M29.602,34.364c1.24,1.096,3.343,1.096,4.613,0c1.226-1.057,1.148-2.689-0.093-3.653
				c-1.2-0.932-3.107-0.932-4.332,0C28.523,31.675,28.404,33.308,29.602,34.364z"/>
			<path fill="#FFFFFF" d="M21.402,29.929c-0.271,1.333,0.913,2.464,2.657,2.464c1.742,0,3.261-1.131,3.388-2.464
				c0.12-1.275-1.084-2.263-2.685-2.263C23.161,27.666,21.662,28.654,21.402,29.929z"/>
			<path fill="#FFFFFF" d="M20.119,26.004c0.918,0.809,2.722,0.809,3.972,0c1.211-0.784,1.389-2.005,0.455-2.73
				c-0.908-0.704-2.566-0.704-3.761,0C19.553,23.999,19.23,25.22,20.119,26.004z"/>
			<path fill="#FFFFFF" d="M28.363,20.207c0.083-0.872-0.931-1.554-2.26-1.554c-1.333,0-2.549,0.682-2.726,1.554
				c-0.183,0.904,0.819,1.665,2.247,1.665C27.051,21.872,28.279,21.11,28.363,20.207z"/>
		</g>
		<g>
			<polygon fill="#A59A7C" points="47.023,32.067 44.667,33.137 41.274,25.287 41.396,24.926 47.111,31.666 			"/>
			<polygon fill="#D1C5B5" points="47.111,31.666 44.775,32.709 41.396,24.926 42.71,24.483 			"/>
		</g>
	</g>
</g>
</svg>
