<?xml version="1.0" encoding="utf-8"?>
<!-- Generator: Adobe Illustrator 15.0.0, SVG Export Plug-In . SVG Version: 6.00 Build 0)  -->
<!DOCTYPE svg PUBLIC "-//W3C//DTD SVG 1.1//EN" "http://www.w3.org/Graphics/SVG/1.1/DTD/svg11.dtd">
<svg version="1.1" id="Layer_1" xmlns="http://www.w3.org/2000/svg" xmlns:xlink="http://www.w3.org/1999/xlink" x="0px" y="0px"
	 width="64px" height="64px" viewBox="0 0 64 64" enable-background="new 0 0 64 64" xml:space="preserve">
<g>
	<g>
		<polygon fill="#83BF4F" points="58.386,0 23.579,38.276 13.474,30.621 7.86,30.621 23.579,56.141 64,0 		"/>
		<path fill="#3E4347" d="M53.895,56.141c0,0.62-0.502,1.122-1.123,1.122H7.86c-0.621,0-1.123-0.502-1.123-1.122V11.228
			c0-0.621,0.502-1.123,1.123-1.123h30.712l6.127-6.737H2.246C1.006,3.369,0,4.375,0,5.614v56.14C0,62.996,1.006,64,2.246,64h56.14
			c1.241,0,2.246-1.004,2.246-2.246V18.129l-6.737,9.357V56.141z"/>
	</g>
</g>
</svg>
