<?xml version="1.0" encoding="utf-8"?>
<!-- Generator: Adobe Illustrator 15.0.0, SVG Export Plug-In . SVG Version: 6.00 Build 0)  -->
<!DOCTYPE svg PUBLIC "-//W3C//DTD SVG 1.1//EN" "http://www.w3.org/Graphics/SVG/1.1/DTD/svg11.dtd">
<svg version="1.1" id="Layer_1" xmlns="http://www.w3.org/2000/svg" xmlns:xlink="http://www.w3.org/1999/xlink" x="0px" y="0px"
	 width="64px" height="64px" viewBox="0 0 64 64" enable-background="new 0 0 64 64" xml:space="preserve">
<g>
	<g>
		<path fill="#83BF4F" d="M57.778,21.958c-4.905-3.304-11.013-1.404-16.069,1.542c4.281-4.208,7.953-9.663,6.076-15.271
			C44.313-2.143,33.041,2.51,31.999,7.69C30.564,2.17,19.57-1.948,16.215,8.237c-1.919,5.826,1.951,11.299,6.345,15.475
			c-5.115-3.049-11.361-5.107-16.34-1.754c-8.727,5.88-2.083,15.443,3.466,15.401c-4.607,2.349-6.139,14.451,4.486,15.122
			c8.222,0.521,13.357-9.853,15.934-16.313l3.421-0.875c2.457,6.348,7.695,17.733,16.299,17.188
			c10.626-0.671,9.094-12.773,4.488-15.122C59.863,37.401,66.506,27.838,57.778,21.958z"/>
	</g>
	<g>
		<path fill="#699635" d="M31.081,62h-7.007c0,0,6.317-15.611,6.317-32.086c0-0.826,3.217-0.826,3.217,0
			C33.608,47.09,31.081,62,31.081,62z"/>
		<g>
			<g>
				<path fill="#83BF4F" d="M49.826,52.481c10.626-0.671,9.094-12.773,4.488-15.122l-22.328-6.09
					C32.904,32.871,38.396,53.205,49.826,52.481z"/>
				<path fill="#7BB246" d="M57.778,21.958c-9.72-6.547-24.17,7.337-25.792,9.312l22.328,6.09
					C59.863,37.401,66.506,27.838,57.778,21.958z"/>
			</g>
			<g>
				<path fill="#7BB246" d="M16.215,8.237C12.479,19.58,30.684,29.601,31.986,31.27L31.999,7.69
					C30.564,2.17,19.57-1.948,16.215,8.237z"/>
				<path fill="#83BF4F" d="M47.785,8.229C44.313-2.143,33.041,2.51,31.999,7.69L31.986,31.27
					C33.289,29.943,51.52,19.388,47.785,8.229z"/>
			</g>
			<g>
				<path fill="#7BB246" d="M9.686,37.359c-4.607,2.349-6.139,14.451,4.486,15.122c11.431,0.724,16.896-19.61,17.814-21.212
					c-0.013-0.006,0.014,0.006,0,0L9.686,37.359z"/>
				<path fill="#83BF4F" d="M6.22,21.958c-8.727,5.88-2.083,15.443,3.466,15.401l22.3-6.09C30.307,29.295,15.877,15.455,6.22,21.958
					z"/>
			</g>
		</g>
	</g>
</g>
</svg>
