<?xml version="1.0" encoding="utf-8"?>
<!-- Generator: Adobe Illustrator 15.0.0, SVG Export Plug-In . SVG Version: 6.00 Build 0)  -->
<!DOCTYPE svg PUBLIC "-//W3C//DTD SVG 1.1//EN" "http://www.w3.org/Graphics/SVG/1.1/DTD/svg11.dtd">
<svg version="1.1" id="Layer_1" xmlns="http://www.w3.org/2000/svg" xmlns:xlink="http://www.w3.org/1999/xlink" x="0px" y="0px"
	 width="64px" height="64px" viewBox="0 0 64 64" enable-background="new 0 0 64 64" xml:space="preserve">
<g>
	<path fill="#94989B" d="M46.475,22.042c1.207-2.094,1.891-4.48,1.891-7.015C48.365,6.728,41.039,0,32,0S15.635,6.728,15.635,15.027
		c0,2.534,0.684,4.921,1.891,7.015c-1.15,0.819-1.891,2.099-1.891,3.538c0,2.472,2.182,4.475,4.873,4.475
		c0.254,0,0.504-0.019,0.748-0.054c-0.307,0.699-0.664,1.566-0.748,2.003c-0.359,1.836,1.646,3.377,3.678,3.377
		c0,0,0.982,0.081,1.193-0.112c0.76-0.697,0-3.832,0-3.832c0-0.528,0.467-0.956,1.043-0.956c0.574,0,1.039,0.428,1.039,0.956
		c0,0-0.758,3.247,0,3.944c0.619,0.567,2.881,0.567,3.498,0c0.76-0.697,0-3.944,0-3.944c0-0.528,0.467-0.956,1.041-0.956
		s1.041,0.428,1.041,0.956c0,0-0.76,3.247,0,3.944c0.617,0.567,2.879,0.567,3.496,0c0.76-0.697,0-3.944,0-3.944
		c0-0.528,0.467-0.956,1.041-0.956c0.576,0,1.041,0.428,1.041,0.956c0,0-0.76,3.135,0,3.832c0.211,0.193,1.195,0.112,1.195,0.112
		c2.031,0,4.035-1.541,3.678-3.377c-0.084-0.437-0.441-1.304-0.75-2.003c0.244,0.035,0.496,0.054,0.75,0.054
		c2.691,0,4.873-2.003,4.873-4.475C48.365,24.141,47.625,22.861,46.475,22.042z M23.172,22.886c-1.84-1.238-6.609-6.425-2.664-6.642
		c2.428-0.134,8.287,1.866,8.664,4.073C29.428,21.819,25.01,24.124,23.172,22.886z M34.756,27.578c-0.938,0.861-4.369,0.861-5.307,0
		c-0.879-0.808,0.566-1.428,1.068-2.297c0.58-1.01,0.873-1.924,1.586-1.924s1.004,0.914,1.586,1.923
		C34.189,26.149,35.615,26.79,34.756,27.578z M41.037,22.886c-1.838,1.238-6.256-1.066-6-2.568c0.377-2.207,6.234-4.207,8.664-4.073
		C47.645,16.461,42.877,21.647,41.037,22.886z"/>
	<path fill="#94989B" d="M59.518,51.546c-2.248-1.192-3.742-0.313-3.742-0.313c-1.545,0.906-4.104,0.96-5.691,0.118l-12.256-6.497
		l12.256-6.499c1.588-0.84,4.148-0.787,5.691,0.12c0,0,1.494,0.877,3.742-0.314c2.373-1.259,3.188-4.046,1.816-6.227
		c-0.453-0.719-0.453-0.719-0.453-0.719c-0.75-0.522-1.459-1.651-1.576-2.51c0,0,0,0-0.453-0.72
		c-1.371-2.179-4.406-2.926-6.781-1.667c-2.248,1.19-2.166,2.818-2.166,2.818c0.082,1.681-1.146,3.743-2.732,4.583L32,41.764
		L16.828,33.72c-1.586-0.84-2.816-2.902-2.732-4.583c0,0,0.082-1.628-2.166-2.818c-2.375-1.259-5.412-0.512-6.781,1.667
		c-0.453,0.72-0.453,0.72-0.453,0.72c-0.117,0.858-0.826,1.987-1.578,2.51c0,0,0,0-0.451,0.719
		c-1.371,2.181-0.557,4.968,1.816,6.227c2.248,1.191,3.742,0.314,3.742,0.314c1.543-0.907,4.104-0.96,5.689-0.12l12.258,6.499
		l-12.258,6.497c-1.586,0.842-4.146,0.788-5.689-0.118c0,0-1.494-0.879-3.742,0.313c-2.373,1.259-3.188,4.047-1.816,6.227
		c0.451,0.72,0.451,0.72,0.451,0.72c0.752,0.521,1.461,1.65,1.578,2.509c0,0,0,0,0.453,0.719c1.369,2.18,4.406,2.928,6.781,1.669
		c2.248-1.192,2.166-2.819,2.166-2.819c-0.084-1.68,1.146-3.743,2.732-4.584L32,47.942l15.172,8.043
		c1.586,0.841,2.814,2.904,2.732,4.584c0,0-0.082,1.627,2.166,2.819c2.375,1.259,5.41,0.511,6.781-1.669
		c0.453-0.719,0.453-0.719,0.453-0.719c0.117-0.858,0.826-1.987,1.576-2.509c0,0,0,0,0.453-0.72
		C62.705,55.593,61.891,52.805,59.518,51.546z"/>
</g>
</svg>
