<?xml version="1.0" encoding="utf-8"?>
<!-- Generator: Adobe Illustrator 15.0.0, SVG Export Plug-In . SVG Version: 6.00 Build 0)  -->
<!DOCTYPE svg PUBLIC "-//W3C//DTD SVG 1.1//EN" "http://www.w3.org/Graphics/SVG/1.1/DTD/svg11.dtd">
<svg version="1.1" id="Layer_1" xmlns="http://www.w3.org/2000/svg" xmlns:xlink="http://www.w3.org/1999/xlink" x="0px" y="0px"
	 width="64px" height="64px" viewBox="0 0 64 64" enable-background="new 0 0 64 64" xml:space="preserve">
<g>
	<circle fill="#3E4347" cx="32" cy="32" r="30"/>
	<circle fill="#FFE62E" cx="32" cy="32" r="27"/>
	<circle fill="#3E4347" cx="32" cy="32" r="5"/>
	<g>
		<path fill="#3E4347" d="M8,28.759l17.12,2.221c0.241-1.88,1.233-3.521,2.668-4.619L17.303,12.644
			C12.303,16.472,8.843,22.205,8,28.759z"/>
		<path fill="#3E4347" d="M32,38.816c-0.946,0-1.848-0.189-2.669-0.533l-6.639,15.939c2.865,1.194,6.01,1.856,9.308,1.856
			c3.299,0,6.441-0.662,9.308-1.856l-6.639-15.939C33.848,38.627,32.946,38.816,32,38.816z"/>
		<path fill="#3E4347" d="M38.88,30.98L56,28.759c-0.843-6.555-4.303-12.287-9.304-16.116L36.212,26.361
			C37.646,27.458,38.64,29.1,38.88,30.98z"/>
	</g>
</g>
</svg>
