<?xml version="1.0" encoding="utf-8"?>
<!-- Generator: Adobe Illustrator 15.0.0, SVG Export Plug-In . SVG Version: 6.00 Build 0)  -->
<!DOCTYPE svg PUBLIC "-//W3C//DTD SVG 1.1//EN" "http://www.w3.org/Graphics/SVG/1.1/DTD/svg11.dtd">
<svg version="1.1" id="Layer_1" xmlns="http://www.w3.org/2000/svg" xmlns:xlink="http://www.w3.org/1999/xlink" x="0px" y="0px"
	 width="64px" height="64px" viewBox="0 0 64 64" enable-background="new 0 0 64 64" xml:space="preserve">
<g>
	<path fill="#75A843" d="M41.166,60c-15.154,0-27.443-12.536-27.443-27.999c0-15.463,12.289-28,27.443-28
		C43.525,4,45.814,4.305,48,4.876C43.178,1.791,37.477,0,31.365,0C14.043,0,0,14.327,0,32.001C0,49.674,14.043,64,31.365,64
		c6.111,0,11.813-1.789,16.635-4.875C45.814,59.696,43.525,60,41.166,60z"/>
	<polygon fill="#75A843" points="51,38.37 59.035,44 56,34.845 64,29.168 54.09,29.141 51,20.001 47.91,29.141 38,29.168 
		46.002,34.845 42.965,44 	"/>
</g>
</svg>
