<?xml version="1.0" encoding="utf-8"?>
<!-- Generator: Adobe Illustrator 15.0.0, SVG Export Plug-In . SVG Version: 6.00 Build 0)  -->
<!DOCTYPE svg PUBLIC "-//W3C//DTD SVG 1.1//EN" "http://www.w3.org/Graphics/SVG/1.1/DTD/svg11.dtd">
<svg version="1.1" id="Layer_1" xmlns="http://www.w3.org/2000/svg" xmlns:xlink="http://www.w3.org/1999/xlink" x="0px" y="0px"
	 width="64px" height="64px" viewBox="0 0 64 64" enable-background="new 0 0 64 64" xml:space="preserve">
<g>
	<path fill="#F5F5F5" d="M53.212,10.788c11.717,11.716,11.717,30.708,0,42.425c-5.857,5.857-15.355,5.857-21.213,0
		s-5.857-15.355,0-21.213c5.857-5.857,5.857-15.354,0-21.212c-5.857-5.858-15.354-5.858-21.212,0
		C22.502-0.928,41.497-0.928,53.212,10.788z"/>
	<path fill="#3E4347" d="M10.787,53.213c-11.716-11.717-11.716-30.709,0-42.425c5.858-5.858,15.355-5.858,21.212,0
		c5.857,5.857,5.857,15.354,0,21.212c-5.857,5.858-5.857,15.356,0,21.213s15.355,5.857,21.213,0
		C41.497,64.928,22.502,64.928,10.787,53.213z"/>
	<circle fill="#3E4347" cx="42.606" cy="42.605" r="5.625"/>
	<circle fill="#F5F5F5" cx="21.393" cy="21.394" r="5.625"/>
</g>
</svg>
