<?xml version="1.0" encoding="utf-8"?>
<!-- Generator: Adobe Illustrator 15.0.0, SVG Export Plug-In . SVG Version: 6.00 Build 0)  -->
<!DOCTYPE svg PUBLIC "-//W3C//DTD SVG 1.1//EN" "http://www.w3.org/Graphics/SVG/1.1/DTD/svg11.dtd">
<svg version="1.1" id="Layer_1" xmlns="http://www.w3.org/2000/svg" xmlns:xlink="http://www.w3.org/1999/xlink" x="0px" y="0px"
	 width="64px" height="64px" viewBox="0 0 64 64" enable-background="new 0 0 64 64" xml:space="preserve">
<g>
	<g>
		<g>
			<g>
				<g>
					<circle fill="#F7C94B" cx="15.108" cy="51.233" r="1.655"/>
					<circle fill="#F7C94B" cx="12.768" cy="48.892" r="1.655"/>
				</g>
			</g>
			<g>
				<g>
					<circle fill="#F7C94B" cx="48.892" cy="12.768" r="1.655"/>
					<circle fill="#F7C94B" cx="51.232" cy="15.109" r="1.655"/>
				</g>
			</g>
		</g>
		<g>
			<g>
				<g>
					<g>
						<circle fill="#F7C94B" cx="6.457" cy="33.655" r="1.656"/>
						<circle fill="#F7C94B" cx="6.457" cy="30.344" r="1.655"/>
					</g>
					<circle fill="#F7C94B" cx="3.655" cy="32.001" r="1.656"/>
					<g>
						<polygon fill="#8896DF" points="3.313,32.001 5.51,33.315 7.707,32.001 5.51,30.687 						"/>
					</g>
				</g>
				<g>
					<g>
						<circle fill="#F7C94B" cx="57.543" cy="30.345" r="1.656"/>
						<circle fill="#F7C94B" cx="57.543" cy="33.656" r="1.655"/>
					</g>
					<circle fill="#F7C94B" cx="60.345" cy="32.001" r="1.656"/>
					<g>
						<polygon fill="#8896DF" points="60.687,32 58.49,30.687 56.293,32 58.489,33.315 						"/>
					</g>
				</g>
			</g>
		</g>
		<g>
			<g>
				<circle fill="#F7C94B" cx="12.768" cy="15.109" r="1.655"/>
				<circle fill="#F7C94B" cx="15.108" cy="12.768" r="1.655"/>
			</g>
		</g>
		<g>
			<g>
				<circle fill="#F7C94B" cx="51.232" cy="48.893" r="1.655"/>
				<circle fill="#F7C94B" cx="48.892" cy="51.233" r="1.655"/>
			</g>
		</g>
		<g>
			<g>
				<g>
					<g>
						<circle fill="#F7C94B" cx="30.345" cy="6.457" r="1.655"/>
						<circle fill="#F7C94B" cx="33.655" cy="6.457" r="1.655"/>
					</g>
					<circle fill="#F7C94B" cx="32" cy="3.656" r="1.656"/>
					<g>
						<polygon fill="#8896DF" points="31.999,3.313 30.685,5.51 31.999,7.708 33.314,5.51 						"/>
					</g>
				</g>
				<g>
					<g>
						<circle fill="#F7C94B" cx="33.655" cy="57.544" r="1.655"/>
						<circle fill="#F7C94B" cx="30.345" cy="57.544" r="1.655"/>
					</g>
					<circle fill="#F7C94B" cx="32" cy="60.346" r="1.656"/>
					<g>
						<polygon fill="#8896DF" points="32,60.688 33.314,58.49 32,56.293 30.685,58.49 						"/>
					</g>
				</g>
			</g>
		</g>
	</g>
	<g>
		<path fill="#F7C94B" d="M32,6.757C18.059,6.757,6.756,18.058,6.756,32C6.756,45.94,18.059,57.244,32,57.244
			c13.943,0,25.244-11.304,25.244-25.245C57.243,18.058,45.942,6.757,32,6.757z M32,56.533C18.452,56.533,7.467,45.549,7.467,32
			S18.452,7.467,32,7.467C45.55,7.467,56.534,18.45,56.534,32S45.55,56.533,32,56.533z"/>
		<path fill="#FBEFB4" d="M32,7.467C18.452,7.467,7.467,18.45,7.467,32S18.452,56.533,32,56.533
			c13.549,0,24.534-10.984,24.534-24.534S45.55,7.467,32,7.467z M32,53.168c-11.69,0-21.167-9.479-21.167-21.168
			c0-11.69,9.477-21.167,21.167-21.167c11.691,0,21.167,9.477,21.167,21.167C53.167,43.689,43.69,53.168,32,53.168z"/>
		<path fill="#F7C94B" d="M32,10.833c-11.69,0-21.167,9.477-21.167,21.167c0,11.69,9.477,21.168,21.167,21.168
			c11.691,0,21.167-9.479,21.167-21.168C53.167,20.309,43.69,10.833,32,10.833z M32,52.451c-11.294,0-20.451-9.156-20.451-20.452
			c0-11.296,9.157-20.452,20.451-20.452c11.296,0,20.453,9.156,20.453,20.452C52.452,43.295,43.296,52.451,32,52.451z"/>
	</g>
	<g>
		<g>
			<circle fill="#ED4C5C" cx="48.099" cy="15.902" r="1.191"/>
			<circle fill="#ED4C5C" cx="15.902" cy="48.098" r="1.19"/>
		</g>
		<g>
			<circle fill="#ED4C5C" cx="54.766" cy="32" r="1.191"/>
			<circle fill="#ED4C5C" cx="9.234" cy="32" r="1.191"/>
		</g>
		<g>
			<circle fill="#ED4C5C" cx="48.098" cy="48.098" r="1.191"/>
			<circle fill="#ED4C5C" cx="15.902" cy="15.902" r="1.19"/>
		</g>
		<g>
			<circle fill="#ED4C5C" cx="32" cy="54.766" r="1.191"/>
			<circle fill="#ED4C5C" cx="32" cy="9.234" r="1.191"/>
		</g>
	</g>
	<g>
		<g>
			<g>
				<path fill="#F7C94B" d="M33.302,17.216c-0.047-4.446,1.207-5.748,1.207-5.748L32,11.182l-2.508,0.286
					c0,0,1.253,1.302,1.207,5.748h-0.604c0,0,0.615,1.817,0.604,2.508c-0.011,0.629-0.604,2.508-0.604,2.508H32h1.906
					c0,0-0.594-1.878-0.604-2.508c-0.01-0.69,0.604-2.508,0.604-2.508H33.302z"/>
				<polygon fill="#79CB92" points="32,16.009 30.956,17.711 32,19.413 33.044,17.711 				"/>
			</g>
			<g>
				<path fill="#F7C94B" d="M30.699,46.785c0.046,4.445-1.207,5.748-1.207,5.748L32,52.818l2.509-0.285c0,0-1.254-1.303-1.207-5.748
					h0.604c0,0-0.613-1.818-0.604-2.508c0.01-0.631,0.604-2.509,0.604-2.509H32h-1.905c0,0,0.594,1.878,0.604,2.509
					c0.011,0.689-0.604,2.508-0.604,2.508H30.699z"/>
				<polygon fill="#79CB92" points="32,47.992 33.044,46.289 32,44.588 30.956,46.289 				"/>
			</g>
		</g>
		<g>
			<g>
				<path fill="#F7C94B" d="M46.786,33.303c4.443-0.048,5.746,1.207,5.746,1.207L52.817,32l-0.285-2.508
					c0,0-1.303,1.254-5.746,1.207v-0.604c0,0-1.819,0.614-2.508,0.604c-0.632-0.01-2.51-0.604-2.51-0.604V32v1.906
					c0,0,1.878-0.594,2.51-0.603c0.688-0.01,2.508,0.603,2.508,0.603V33.303z"/>
				<polygon fill="#79CB92" points="47.991,32 46.29,30.957 44.587,32 46.29,33.043 				"/>
			</g>
			<g>
				<path fill="#F7C94B" d="M17.215,30.699c-4.444,0.047-5.747-1.207-5.747-1.207L11.183,32l0.286,2.51c0,0,1.302-1.255,5.747-1.207
					v0.603c0,0,1.819-0.612,2.508-0.603c0.631,0.009,2.51,0.603,2.51,0.603V32v-1.904c0,0-1.879,0.594-2.51,0.604
					c-0.689,0.011-2.508-0.604-2.508-0.604V30.699z"/>
				<polygon fill="#79CB92" points="16.01,32 17.711,33.043 19.414,32 17.711,30.957 				"/>
			</g>
		</g>
	</g>
	<g>
		<g>
			<g>
				<path fill="#F7C94B" d="M43.374,22.465c3.111-3.176,4.918-3.21,4.918-3.21L46.72,17.28l-1.975-1.572
					c0,0-0.034,1.807-3.211,4.917l-0.427-0.427c0,0-0.851,1.719-1.347,2.2c-0.453,0.439-2.2,1.347-2.2,1.347l1.347,1.347
					l1.348,1.347c0,0,0.908-1.748,1.347-2.2c0.481-0.496,2.2-1.347,2.2-1.347L43.374,22.465z"/>
				<polygon fill="#8896DF" points="43.308,20.692 41.366,21.158 40.9,23.099 42.841,22.633 				"/>
			</g>
			<g>
				<path fill="#F7C94B" d="M20.625,41.533c-3.109,3.176-4.918,3.211-4.918,3.211l1.572,1.977l1.977,1.572
					c0,0,0.034-1.808,3.21-4.918l0.426,0.427c0,0,0.853-1.721,1.347-2.2c0.453-0.438,2.201-1.347,2.201-1.347l-1.347-1.347
					l-1.347-1.349c0,0-0.91,1.749-1.349,2.201c-0.479,0.495-2.2,1.347-2.2,1.347L20.625,41.533z"/>
				<polygon fill="#8896DF" points="20.692,43.308 22.635,42.842 23.099,40.9 21.159,41.367 				"/>
			</g>
		</g>
		<g>
			<g>
				<path fill="#F7C94B" d="M41.534,43.376c3.177,3.108,3.209,4.917,3.209,4.917l1.977-1.572l1.572-1.977
					c0,0-1.807-0.035-4.918-3.209l0.429-0.428c0,0-1.722-0.852-2.201-1.347c-0.438-0.452-1.347-2.201-1.347-2.201l-1.348,1.347
					l-1.347,1.348c0,0,1.747,0.908,2.2,1.348c0.496,0.479,1.347,2.2,1.347,2.2L41.534,43.376z"/>
				<polygon fill="#8896DF" points="43.308,43.308 42.843,41.367 40.9,40.899 41.366,42.842 				"/>
			</g>
			<g>
				<path fill="#F7C94B" d="M22.465,20.625c-3.175-3.111-3.209-4.917-3.209-4.917l-1.977,1.572l-1.572,1.977
					c0,0,1.809,0.033,4.918,3.209l-0.428,0.427c0,0,1.721,0.853,2.2,1.347c0.44,0.453,1.349,2.2,1.349,2.2l1.347-1.347l1.347-1.347
					c0,0-1.747-0.908-2.201-1.347c-0.494-0.479-1.347-2.2-1.347-2.2L22.465,20.625z"/>
				<polygon fill="#8896DF" points="20.694,20.692 21.159,22.633 23.1,23.099 22.635,21.158 				"/>
			</g>
		</g>
	</g>
	<circle fill="#F7C94B" cx="32.001" cy="32" r="10.61"/>
	<circle fill="#FBEFB4" cx="32" cy="32" r="9.769"/>
	<circle fill="#F7C94B" cx="32" cy="32" r="6.927"/>
	<g>
		<g>
			<polygon fill="#8896DF" points="27.29,40.16 28.383,39.551 28.364,38.301 27.27,38.908 			"/>
			<polygon fill="#8896DF" points="35.638,25.701 36.729,25.092 36.71,23.842 35.618,24.449 			"/>
		</g>
		<g>
			<polygon fill="#ED4C5C" points="23.842,36.712 25.092,36.73 25.701,35.639 24.45,35.619 			"/>
			<polygon fill="#ED4C5C" points="38.3,28.364 39.55,28.382 40.159,27.291 38.908,27.269 			"/>
		</g>
		<g>
			<g>
				<polygon fill="#8896DF" points="22.579,32.001 23.652,32.643 24.725,32.001 23.652,31.359 				"/>
				<polygon fill="#8896DF" points="39.274,32 40.348,32.642 41.421,32 40.348,31.357 				"/>
			</g>
		</g>
		<g>
			<polygon fill="#ED4C5C" points="23.84,27.291 24.449,28.383 25.7,28.365 25.091,27.271 			"/>
			<polygon fill="#ED4C5C" points="38.299,35.639 38.908,36.73 40.159,36.712 39.551,35.617 			"/>
		</g>
		<g>
			<polygon fill="#8896DF" points="27.288,23.842 27.27,25.092 28.362,25.702 28.381,24.45 			"/>
			<polygon fill="#8896DF" points="35.636,38.3 35.618,39.551 36.71,40.16 36.729,38.908 			"/>
		</g>
		<g>
			<polygon fill="#ED4C5C" points="31.999,22.579 31.358,23.653 31.999,24.727 32.641,23.653 			"/>
			<polygon fill="#ED4C5C" points="31.999,39.273 31.358,40.348 31.999,41.422 32.641,40.348 			"/>
		</g>
	</g>
	<g>
		<path fill="#8896DF" d="M31.493,31.673c-0.137-0.044-0.271-0.099-0.404-0.163c-0.07-0.033-0.139-0.066-0.206-0.105
			s-0.13-0.082-0.193-0.125c-0.327-0.223-0.599-0.497-0.812-0.808c-0.655-0.955-0.75-2.239-0.132-3.31
			c0.245-0.424,0.576-0.766,0.957-1.021C28.012,26.735,26,29.131,26,32c0,0.268,0.02,0.53,0.054,0.788
			c0.154,1.182,0.653,2.255,1.393,3.117c0.453,0.275,0.984,0.438,1.554,0.438c0.748,0,1.431-0.275,1.956-0.729
			c-0.035-0.107-0.064-0.218-0.088-0.329c-0.051-0.235-0.08-0.479-0.08-0.73c0-0.899,0.348-1.715,0.911-2.33
			c0.02-0.021,0.038-0.044,0.059-0.064c0.124-0.128,0.259-0.246,0.401-0.354C31.935,31.786,31.711,31.744,31.493,31.673z"/>
		<path fill="#79CB92" d="M34.464,31.118c-0.021-0.001-0.041-0.002-0.061-0.003c-0.514,0.421-1.145,0.664-1.798,0.7
			c-0.148,0.008-0.298,0.004-0.446-0.009c-0.143,0.107-0.277,0.226-0.401,0.354c-0.021,0.021-0.039,0.043-0.059,0.064
			c-0.563,0.614-0.911,1.43-0.911,2.33c0,0.251,0.029,0.495,0.08,0.73c0.023,0.111,0.053,0.222,0.088,0.329
			c-0.525,0.453-1.208,0.729-1.956,0.729c-0.569,0-1.101-0.162-1.554-0.438C28.546,37.187,30.177,38,32,38
			c0.438,0,0.866-0.049,1.278-0.138c2.024-0.439,3.667-1.898,4.363-3.813C37.407,32.458,36.091,31.225,34.464,31.118z"/>
		<path fill="#ED4C5C" d="M34.78,26.683C33.949,26.247,33.004,26,32,26c-0.445,0-0.879,0.05-1.297,0.142
			c-0.381,0.256-0.712,0.598-0.957,1.021c-0.618,1.07-0.523,2.354,0.132,3.31c0.213,0.311,0.484,0.585,0.812,0.808
			c0.063,0.043,0.126,0.086,0.193,0.125s0.136,0.072,0.206,0.105c0.133,0.064,0.268,0.119,0.404,0.163
			c0.219,0.07,0.442,0.112,0.666,0.133c0.148,0.013,0.298,0.017,0.446,0.009c0.654-0.036,1.285-0.279,1.798-0.7
			c0.02,0.001,0.041,0.001,0.061,0.003c1.627,0.107,2.943,1.341,3.177,2.931C37.873,33.409,38,32.719,38,32
			C38,29.689,36.694,27.686,34.78,26.683z"/>
	</g>
</g>
</svg>
