<?xml version="1.0" encoding="utf-8"?>
<!-- Generator: Adobe Illustrator 15.0.0, SVG Export Plug-In . SVG Version: 6.00 Build 0)  -->
<!DOCTYPE svg PUBLIC "-//W3C//DTD SVG 1.1//EN" "http://www.w3.org/Graphics/SVG/1.1/DTD/svg11.dtd">
<svg version="1.1" id="Layer_1" xmlns="http://www.w3.org/2000/svg" xmlns:xlink="http://www.w3.org/1999/xlink" x="0px" y="0px"
	 width="64px" height="64px" viewBox="0 0 64 64" enable-background="new 0 0 64 64" xml:space="preserve">
<g>
	<circle fill="#D8544A" cx="32" cy="32" r="30"/>
	<path fill="#FFFFFF" stroke="#FFFFFF" stroke-miterlimit="10" d="M44.301,17.012c-4.318-0.24-6.808,3.219-7.925,7.146
		C34.917,29.431,33.459,34.705,32,39.979c-1.459-5.274-2.917-10.549-4.376-15.822c-1.116-3.927-3.605-7.386-7.923-7.146
		c-3.885,0.215-6.501,3.767-6.698,7.549c-0.102,1.96,2.839,1.949,2.94,0c0.135-2.579,1.902-4.407,4.396-4.546
		c2.573-0.144,3.855,2.863,4.449,4.949c1.932,6.982,3.863,13.965,5.794,20.947c0.401,1.451,2.434,1.451,2.835,0
		c1.932-6.982,3.862-13.965,5.793-20.947c0.66-2.317,1.828-4.772,4.45-4.949c2.487-0.167,4.274,2.196,4.396,4.546
		c0.102,1.949,3.042,1.96,2.94,0C50.801,20.778,48.185,17.229,44.301,17.012z"/>
</g>
</svg>
