<?xml version="1.0" encoding="utf-8"?>
<!-- Generator: Adobe Illustrator 15.0.0, SVG Export Plug-In . SVG Version: 6.00 Build 0)  -->
<!DOCTYPE svg PUBLIC "-//W3C//DTD SVG 1.1//EN" "http://www.w3.org/Graphics/SVG/1.1/DTD/svg11.dtd">
<svg version="1.1" id="Layer_1" xmlns="http://www.w3.org/2000/svg" xmlns:xlink="http://www.w3.org/1999/xlink" x="0px" y="0px"
	 width="64px" height="64px" viewBox="0 0 64 64" enable-background="new 0 0 64 64" xml:space="preserve">
<g>
	<circle fill="#E26A3B" cx="32.001" cy="32" r="29.999"/>
	<path fill="#FFFFFF" stroke="#FFFFFF" stroke-miterlimit="10" d="M46.585,17c-2.268,0.026-4.963,0.365-6.778,1.872
		c-2.622,2.175-4.138,6.857-7.805,7.116c-3.669-0.259-5.184-4.94-7.805-7.116c-1.815-1.507-4.513-1.846-6.78-1.872
		c-1.889-0.022-1.887,2.976,0,2.998c3.766,0.046,5.861,1.673,7.975,4.75c0.618,0.898,1.251,1.667,1.945,2.299
		c-3.285,1.787-5.436,5.584-5.639,9.444c-0.313,5.927,4.918,10.202,10.248,10.495c5.629,0.311,9.72-4.748,10.203-10.049
		c0.032-0.136,0.053-0.281,0.044-0.446c0.009-0.162-0.011-0.305-0.042-0.44c-0.346-4.021-2.466-7.207-5.669-8.849
		c0.762-0.659,1.448-1.483,2.128-2.454c2.146-3.061,4.188-4.704,7.975-4.75C48.472,19.976,48.474,16.978,46.585,17z M39.266,36.491
		c-0.509,9.661-14.132,9.661-14.64,0C24.118,26.823,38.76,26.875,39.266,36.491z"/>
</g>
</svg>
