<?xml version="1.0" encoding="utf-8"?>
<!-- Generator: Adobe Illustrator 15.0.0, SVG Export Plug-In . SVG Version: 6.00 Build 0)  -->
<!DOCTYPE svg PUBLIC "-//W3C//DTD SVG 1.1//EN" "http://www.w3.org/Graphics/SVG/1.1/DTD/svg11.dtd">
<svg version="1.1" id="Layer_1" xmlns="http://www.w3.org/2000/svg" xmlns:xlink="http://www.w3.org/1999/xlink" x="0px" y="0px"
	 width="64px" height="64px" viewBox="0 0 64 64" enable-background="new 0 0 64 64" xml:space="preserve">
<g>
	<circle fill="#FF8736" cx="32" cy="32" r="30"/>
	<path fill="#FFFFFF" stroke="#FFFFFF" stroke-miterlimit="10" d="M49.956,46.013c-4.079-1.147-8.251-1.884-12.452-2.231
		c0-7.854,0-15.708,0-23.563c4.201-0.348,8.373-1.084,12.452-2.23c1.831-0.515,1.052-3.443-0.784-2.928
		c-11.211,3.15-23.123,3.143-34.344,0.033c-1.837-0.51-2.615,2.419-0.783,2.927c4.037,1.119,8.166,1.845,12.322,2.192
		c0,7.858,0,15.716,0,23.573c-4.156,0.349-8.285,1.073-12.322,2.192c-1.832,0.509-1.054,3.438,0.783,2.928
		c11.221-3.11,23.133-3.119,34.344,0.033C51.008,49.455,51.786,46.527,49.956,46.013z M29.313,43.602c0-7.734,0-15.469,0-23.203
		c1.747,0.069,3.497,0.072,5.243,0.004c0,7.732,0,15.463,0,23.194C32.811,43.529,31.061,43.532,29.313,43.602z"/>
</g>
</svg>
