<?xml version="1.0" encoding="utf-8"?>
<!-- Generator: Adobe Illustrator 15.0.0, SVG Export Plug-In . SVG Version: 6.00 Build 0)  -->
<!DOCTYPE svg PUBLIC "-//W3C//DTD SVG 1.1//EN" "http://www.w3.org/Graphics/SVG/1.1/DTD/svg11.dtd">
<svg version="1.1" id="Layer_1" xmlns="http://www.w3.org/2000/svg" xmlns:xlink="http://www.w3.org/1999/xlink" x="0px" y="0px"
	 width="64px" height="64px" viewBox="0 0 64 64" enable-background="new 0 0 64 64" xml:space="preserve">
<g>
	<circle fill="#F2B200" cx="32" cy="32" r="30"/>
	<g>
		<path fill="#FFFFFF" stroke="#FFFFFF" stroke-miterlimit="10" d="M28.316,32.131c2.145-3.539,0.619-8.074-2.617-10.28
			c-0.289-0.198-0.588-0.354-0.891-0.493c5.08-2.133,10.873-1.942,16.035,0.592c1.688,0.828,3.172-1.691,1.479-2.523
			c-8.186-4.018-17.438-3.024-24.453,2.833c-0.164,0.138-0.277,0.286-0.357,0.439c-0.531,0.459-1.002,0.984-1.395,1.562
			c-0.082,0.096-0.158,0.202-0.223,0.334c-0.074,0.123-0.123,0.242-0.158,0.363c-1.586,3.643-0.586,7.627,2.773,9.919
			C21.926,37.206,26.357,35.365,28.316,32.131z M18.422,26.068c3.109-5.137,9.803-0.425,7.367,4.588
			c-1.084,2.232-3.732,2.828-5.803,1.695C17.783,31.146,17.416,28.139,18.422,26.068z"/>
		<path fill="#FFFFFF" stroke="#FFFFFF" stroke-miterlimit="10" d="M48.264,39.047c1.588-3.645,0.586-7.629-2.773-9.921
			c-3.414-2.328-7.848-0.491-9.805,2.743c-2.145,3.542-0.623,8.074,2.615,10.282c0.289,0.197,0.586,0.354,0.889,0.493
			c-5.08,2.132-10.875,1.939-16.033-0.594c-1.688-0.829-3.172,1.691-1.479,2.523c8.182,4.019,17.439,3.025,24.453-2.832
			c0.164-0.137,0.277-0.287,0.357-0.44c0.531-0.459,1.002-0.985,1.395-1.563c0.082-0.095,0.158-0.2,0.223-0.332
			C48.18,39.285,48.227,39.166,48.264,39.047z M38.213,33.345c1.084-2.231,3.73-2.827,5.801-1.694
			c2.203,1.206,2.57,4.211,1.564,6.281C42.469,43.07,35.773,38.357,38.213,33.345z"/>
	</g>
</g>
</svg>
