<?xml version="1.0" encoding="utf-8"?>
<!-- Generator: Adobe Illustrator 15.0.0, SVG Export Plug-In . SVG Version: 6.00 Build 0)  -->
<!DOCTYPE svg PUBLIC "-//W3C//DTD SVG 1.1//EN" "http://www.w3.org/Graphics/SVG/1.1/DTD/svg11.dtd">
<svg version="1.1" id="Layer_1" xmlns="http://www.w3.org/2000/svg" xmlns:xlink="http://www.w3.org/1999/xlink" x="0px" y="0px"
	 width="64px" height="64px" viewBox="0 0 64 64" enable-background="new 0 0 64 64" xml:space="preserve">
<g>
	<circle fill="#FFCE31" cx="32" cy="32" r="30"/>
	<path fill="#FFFFFF" stroke="#FFFFFF" stroke-miterlimit="10" d="M42.962,40.159c-0.168,0.766-0.412,1.508-0.668,2.252
		c-0.252,0.707-0.574,1.387-0.967,2.033c-1.16,2.105-4.607,1.336-4.555-1.004c0.074-3.266,2.73-6.648,4.078-9.533
		c2.578-5.527,5.186-14.617-1.281-18.883c-4.85-3.197-11.211-1.642-13.957,3.238c-2.271,4.035-0.367,9.431,1.514,14.199
		c-3.057-0.782-6.418,0.713-8.123,3.221c-2.191,3.228-0.561,7.387,2.635,9.326c3.291,2.002,7.5,0.625,9.633-2.152
		c0.094-0.096,0.18-0.201,0.252-0.334c0.084-0.123,0.139-0.248,0.18-0.367c0.795-1.656,0.922-3.388,0.436-4.958
		c-0.012-0.091-0.025-0.181-0.055-0.278c-1.725-5.645-9.75-20.566,1.916-20.566c7.162,0,7.004,5.761,6.15,10.297
		c-0.779,4.145-3.023,7.982-4.984,11.713c-2.074,3.952-2.631,9.609,2.924,10.867c4.697,1.063,7.152-5.045,7.873-8.295
		C46.368,39.099,43.372,38.317,42.962,40.159z M21.688,37.157c2.455-4.494,9.568-0.547,7.148,3.891
		C25.948,45.296,19.255,41.613,21.688,37.157z"/>
</g>
</svg>
