<?xml version="1.0" encoding="utf-8"?>
<!-- Generator: Adobe Illustrator 15.0.0, SVG Export Plug-In . SVG Version: 6.00 Build 0)  -->
<!DOCTYPE svg PUBLIC "-//W3C//DTD SVG 1.1//EN" "http://www.w3.org/Graphics/SVG/1.1/DTD/svg11.dtd">
<svg version="1.1" id="Layer_1" xmlns="http://www.w3.org/2000/svg" xmlns:xlink="http://www.w3.org/1999/xlink" x="0px" y="0px"
	 width="64px" height="64px" viewBox="0 0 64 64" enable-background="new 0 0 64 64" xml:space="preserve">
<g>
	<circle fill="#83BF4F" cx="32" cy="32" r="30"/>
	<path fill="#FFFFFF" stroke="#FFFFFF" stroke-miterlimit="10" d="M44.125,45.045c-1.4-1.076-2.914-3.112-3.215-5.043
		c3.275-4.105,5.716-9.195,4.947-14.506c-0.09-0.629-0.814-1.188-1.396-1.134c-1.356,0.124-2.588,0.538-3.617,1.214
		c0-1.31,0-2.619,0-3.93c0-0.162-0.025-0.306-0.06-0.441c-0.349-3.004-2.514-5.039-5.39-5.198c-1.627-0.089-3.037,0.69-4.018,1.898
		c-0.978-1.114-2.363-1.809-3.982-1.898c-1.621-0.089-3.024,0.685-4.005,1.884c-0.995-1.127-2.404-1.838-3.989-1.884
		c-1.869-0.053-1.865,3.036,0,3.089c1.35,0.038,2.494,1.045,2.549,2.524c0,0.009-0.004,0.018-0.004,0.026
		c0.002,7.316,0.004,14.632,0.006,21.948c0.002,1.991,2.9,1.991,2.898,0c-0.001-7.288-0.003-14.575-0.005-21.862
		c0.001-0.029,0.007-0.055,0.005-0.086c0-0.007-0.001-0.014-0.001-0.014c0.194-3.301,4.923-3.295,5.097,0.014
		c0,7.316,0,14.632,0,21.948c0,1.991,2.898,1.991,2.898,0c0-7.316,0-14.632,0-21.948c0.174-3.316,4.928-3.316,5.102,0
		c0,2.966,0,5.933,0,8.898c-0.014,0.132-0.012,0.254,0,0.368c0,2.682,0,5.363,0,8.046c-1.119,1.276-2.336,2.459-3.576,3.543
		c-1.444,1.267,0.618,3.438,2.05,2.185c0.748-0.655,1.503-1.376,2.245-2.141c0.855,2.069,2.368,3.913,3.998,5.165
		C44.182,48.88,45.625,46.198,44.125,45.045z M43.045,27.783c0.84,3.449-1.473,5.797-2.201,7.104c0-1.446,0-2.895,0-4.343
		C40.998,29.09,41.918,28.222,43.045,27.783z"/>
</g>
</svg>
