<?xml version="1.0" encoding="utf-8"?>
<!-- Generator: Adobe Illustrator 15.0.0, SVG Export Plug-In . SVG Version: 6.00 Build 0)  -->
<!DOCTYPE svg PUBLIC "-//W3C//DTD SVG 1.1//EN" "http://www.w3.org/Graphics/SVG/1.1/DTD/svg11.dtd">
<svg version="1.1" id="Layer_1" xmlns="http://www.w3.org/2000/svg" xmlns:xlink="http://www.w3.org/1999/xlink" x="0px" y="0px"
	 width="64px" height="64px" viewBox="0 0 64 64" enable-background="new 0 0 64 64" xml:space="preserve">
<g>
	<circle fill="#699635" cx="32" cy="32" r="30"/>
	<g>
		<path fill="#FFFFFF" stroke="#FFFFFF" stroke-miterlimit="10" d="M47.566,43.456c-10.377,0-20.756,0-31.133,0
			c-1.912,0-1.912,3.029,0,3.029c10.377,0,20.756,0,31.133,0C49.479,46.485,49.479,43.456,47.566,43.456z"/>
		<path fill="#FFFFFF" stroke="#FFFFFF" stroke-miterlimit="10" d="M16.414,39.104c3.996,0,7.992,0,11.988,0
			c0.797,0,1.461-0.677,1.461-1.493c0-0.018,0-0.037,0-0.053c0-0.485-0.27-1.075-0.723-1.29C20.598,32.234,22.402,17.515,32,17.515
			c4.273,0,7.006,3.526,8.08,7.246c1.328,4.606-1.355,9.259-5.273,11.329c-0.449,0.239-0.723,0.785-0.723,1.29
			c0,0.06,0,0.118,0,0.178c0,0.813,0.664,1.49,1.461,1.49c4.014,0,8.027,0,12.041,0c1.885,0,1.885-2.983,0-2.983
			c-2.738,0-5.475,0-8.213,0c1.156-1.229,2.344-2.704,2.539-3.061c1.189-2.186,1.631-5.24,1.213-7.695
			C42.086,19.2,38.113,14.485,32,14.485c-5.551,0-9.949,4.563-11.367,9.482c-0.715,2.475-0.453,5.634,0.547,7.982
			c0.561,1.318,1.176,2.655,2.164,3.71c0.049,0.05,0.215,0.227,0.445,0.46c-2.459,0-4.918,0-7.375,0
			C14.529,36.12,14.529,39.104,16.414,39.104z"/>
	</g>
</g>
</svg>
