<?xml version="1.0" encoding="utf-8"?>
<!-- Generator: Adobe Illustrator 15.0.0, SVG Export Plug-In . SVG Version: 6.00 Build 0)  -->
<!DOCTYPE svg PUBLIC "-//W3C//DTD SVG 1.1//EN" "http://www.w3.org/Graphics/SVG/1.1/DTD/svg11.dtd">
<svg version="1.1" id="Layer_1" xmlns="http://www.w3.org/2000/svg" xmlns:xlink="http://www.w3.org/1999/xlink" x="0px" y="0px"
	 width="64px" height="64px" viewBox="0 0 64 64" enable-background="new 0 0 64 64" xml:space="preserve">
<g>
	<circle fill="#24BAC5" cx="32" cy="32" r="30"/>
	<path fill="#FFFFFF" stroke="#FFFFFF" stroke-miterlimit="10" d="M48.675,44.676c0.267-0.49,0.269-1.066,0.001-1.553
		c-0.064-0.135-0.144-0.262-0.244-0.375c-0.003,0-0.003-0.004-0.004-0.006c-1.599-1.607-3.198-3.217-4.797-4.83
		c-1.488-1.496-3.803,0.816-2.314,2.314c0.702,0.707,1.404,1.414,2.105,2.121c-1.846-0.113-3.486-0.693-3.606-2.816
		c0-6.342,0-12.682,0-19.025c0-0.165-0.026-0.31-0.062-0.446c-0.36-3.129-2.641-5.389-5.873-5.567
		c-1.77-0.093-3.262,0.716-4.311,1.951c-1.047-1.135-2.52-1.854-4.278-1.951c-1.762-0.093-3.251,0.71-4.3,1.937
		c-1.064-1.152-2.56-1.886-4.285-1.937c-2.111-0.055-2.106,3.214,0,3.275c1.51,0.04,2.601,1.23,2.654,2.707
		c0,0.01-0.002,0.019-0.004,0.031c0.003,7.82,0.005,15.638,0.008,23.458c0,2.109,3.274,2.109,3.274,0
		c-0.001-7.791-0.005-15.58-0.006-23.373c0-0.03,0.006-0.054,0.006-0.086c-0.001-0.011-0.003-0.018-0.003-0.025
		c0.209-3.495,5.128-3.485,5.314,0.025c0,7.82,0,15.638,0,23.458c0,2.109,3.273,2.109,3.273,0c0-7.82,0-15.639,0-23.458
		c0.187-3.521,5.131-3.521,5.316,0c0,6.343,0,12.683,0,19.025c0,0.166,0.025,0.311,0.063,0.453c0.371,3.129,2.632,5.369,5.869,5.561
		c0.296,0.018,0.595,0.02,0.892,0.027c-0.684,0.701-1.366,1.404-2.048,2.107c-1.473,1.514,0.842,3.826,2.314,2.313
		c1.599-1.645,3.198-3.289,4.797-4.938c0.004-0.004,0.006-0.008,0.009-0.012C48.534,44.932,48.612,44.805,48.675,44.676z"/>
</g>
</svg>
