<?xml version="1.0" encoding="utf-8"?>
<!-- Generator: Adobe Illustrator 15.0.0, SVG Export Plug-In . SVG Version: 6.00 Build 0)  -->
<!DOCTYPE svg PUBLIC "-//W3C//DTD SVG 1.1//EN" "http://www.w3.org/Graphics/SVG/1.1/DTD/svg11.dtd">
<svg version="1.1" id="Layer_1" xmlns="http://www.w3.org/2000/svg" xmlns:xlink="http://www.w3.org/1999/xlink" x="0px" y="0px"
	 width="64px" height="64px" viewBox="0 0 64 64" enable-background="new 0 0 64 64" xml:space="preserve">
<g>
	<circle fill="#428BC1" cx="32" cy="32" r="30"/>
	<path fill="#FFFFFF" stroke="#FFFFFF" stroke-miterlimit="10" d="M47.998,17.439c-0.001-0.025-0.004-0.051-0.007-0.072
		c-0.045-0.726-0.636-1.313-1.359-1.359c-0.024-0.002-0.048-0.004-0.072-0.006c-0.005,0-0.009-0.002-0.015-0.002
		c-4.848,0-9.695,0-14.543,0c-1.877,0-1.877,2.907,0,2.907c3.677,0,7.355,0,11.033,0c-6.103,6.103-12.204,12.204-18.306,18.307
		c-2.081-2.081-4.163-4.163-6.243-6.244c-1.328-1.327-3.385,0.729-2.057,2.057c2.081,2.083,4.162,4.162,6.243,6.244
		c-2.081,2.08-4.162,4.162-6.243,6.242c-0.006,0.008-0.008,0.01-0.012,0.016c-0.013,0.014-0.023,0.027-0.036,0.043
		c-0.449,0.49-0.464,1.07-0.229,1.539c0.177,0.473,0.585,0.848,1.223,0.879c0.022,0.002,0.044,0.006,0.066,0.006
		c0.006,0,0.01,0,0.015,0c0.011,0,0.019,0,0.029,0c0.096,0,0.193-0.01,0.291-0.031c0.012-0.002,0.021-0.006,0.033-0.006
		c0.068-0.02,0.138-0.039,0.205-0.066c0.068-0.027,0.131-0.061,0.189-0.098c0.011-0.008,0.022-0.014,0.033-0.021
		c0.081-0.053,0.156-0.111,0.221-0.18c0.009-0.01,0.019-0.012,0.027-0.023c2.08-2.08,4.162-4.162,6.243-6.244
		c2.081,2.082,4.163,4.164,6.243,6.244c1.328,1.328,3.385-0.729,2.057-2.057c-2.081-2.08-4.162-4.162-6.243-6.242
		c6.102-6.103,12.204-12.204,18.305-18.306c0,3.676,0,7.355,0,11.033c0,1.877,2.909,1.877,2.909,0c0-4.85,0-9.698,0-14.547
		L47.998,17.439z"/>
</g>
</svg>
