<?xml version="1.0" encoding="utf-8"?>
<!-- Generator: Adobe Illustrator 15.0.0, SVG Export Plug-In . SVG Version: 6.00 Build 0)  -->
<!DOCTYPE svg PUBLIC "-//W3C//DTD SVG 1.1//EN" "http://www.w3.org/Graphics/SVG/1.1/DTD/svg11.dtd">
<svg version="1.1" id="Layer_1" xmlns="http://www.w3.org/2000/svg" xmlns:xlink="http://www.w3.org/1999/xlink" x="0px" y="0px"
	 width="64px" height="64px" viewBox="0 0 64 64" enable-background="new 0 0 64 64" xml:space="preserve">
<g>
	<circle fill="#785AA0" cx="32" cy="32" r="30"/>
	<g>
		<path fill="#FFFFFF" stroke="#FFFFFF" stroke-miterlimit="10" d="M48.797,18.24c-3.172,2.391-6.344,4.783-9.518,7.174
			c0-1.951,0-3.902,0-5.855c0-1.072-1.275-2.018-2.203-1.318c-3.172,2.391-6.344,4.783-9.516,7.174c0-1.951,0-3.902,0-5.855
			c0-1.072-1.275-2.018-2.203-1.318c-3.906,2.945-7.813,5.891-11.719,8.836c-1.516,1.142-0.057,3.794,1.479,2.638
			c3.172-2.39,6.342-4.783,9.514-7.173c0,1.951,0,3.902,0,5.855c0,1.07,1.279,2.018,2.205,1.318c3.172-2.39,6.342-4.783,9.514-7.173
			c0,1.951,0,3.902,0,5.855c0,1.07,1.279,2.018,2.205,1.318c3.172-2.39,6.342-4.783,9.516-7.173c0,1.951,0,3.902,0,5.855
			c0,1.969,2.93,1.969,2.93,0c0-2.945,0-5.892,0-8.837C51,18.486,49.723,17.541,48.797,18.24z"/>
		<path fill="#FFFFFF" stroke="#FFFFFF" stroke-miterlimit="10" d="M48.797,34.24c-3.172,2.391-6.344,4.783-9.518,7.174
			c0-1.951,0-3.902,0-5.855c0-1.072-1.275-2.018-2.203-1.318c-3.172,2.391-6.344,4.783-9.516,7.174c0-1.951,0-3.902,0-5.855
			c0-1.072-1.275-2.018-2.203-1.318c-3.906,2.945-7.813,5.891-11.719,8.836c-1.516,1.143-0.057,3.795,1.479,2.639
			c3.172-2.391,6.342-4.783,9.514-7.174c0,1.951,0,3.902,0,5.855c0,1.07,1.279,2.018,2.205,1.318
			c3.172-2.391,6.342-4.783,9.514-7.174c0,1.951,0,3.902,0,5.855c0,1.07,1.279,2.018,2.205,1.318
			c3.172-2.391,6.342-4.783,9.516-7.174c0,1.951,0,3.902,0,5.855c0,1.969,2.93,1.969,2.93,0c0-2.945,0-5.893,0-8.838
			C51,34.486,49.723,33.541,48.797,34.24z"/>
	</g>
</g>
</svg>
