<?xml version="1.0" encoding="utf-8"?>
<!-- Generator: Adobe Illustrator 15.0.0, SVG Export Plug-In . SVG Version: 6.00 Build 0)  -->
<!DOCTYPE svg PUBLIC "-//W3C//DTD SVG 1.1//EN" "http://www.w3.org/Graphics/SVG/1.1/DTD/svg11.dtd">
<svg version="1.1" id="Layer_1" xmlns="http://www.w3.org/2000/svg" xmlns:xlink="http://www.w3.org/1999/xlink" x="0px" y="0px"
	 width="64px" height="64px" viewBox="0 0 64 64" enable-background="new 0 0 64 64" xml:space="preserve">
<path fill="#333333" d="M64,33C64,17.568,32,0,32,0S0,17.568,0,33c0,9.148,7.707,17,17,17c4.473,0,8.453-1.725,11.415-4.525L28,49
	c-0.538,3.828-3.192,7.33-7,8l-5,1v6h32v-6l-5-1c-3.808-0.67-6.462-4.17-7-8l-0.415-3.525C38.547,48.277,42.527,50,47,50
	C56.293,50,64,42.148,64,33z"/>
</svg>
