<?xml version="1.0" encoding="utf-8"?>
<!-- Generator: Adobe Illustrator 15.0.0, SVG Export Plug-In . SVG Version: 6.00 Build 0)  -->
<!DOCTYPE svg PUBLIC "-//W3C//DTD SVG 1.1//EN" "http://www.w3.org/Graphics/SVG/1.1/DTD/svg11.dtd">
<svg version="1.1" id="Layer_1" xmlns="http://www.w3.org/2000/svg" xmlns:xlink="http://www.w3.org/1999/xlink" x="0px" y="0px"
	 width="64px" height="64px" viewBox="0 0 64 64" enable-background="new 0 0 64 64" xml:space="preserve">
<path fill="#333333" d="M48,18c-0.047,0-0.092,0.008-0.139,0.008C47.943,17.348,48,16.682,48,16c0-8.836-7.162-16-16-16
	c-8.836,0-16,7.164-16,16c0,0.682,0.057,1.348,0.139,2.008C16.092,18.008,16.047,18,16,18C7.163,18,0,25.164,0,34s7.163,16,16,16
	c5.128,0,9.681-2.422,12.609-6.174L28,49c-0.537,3.828-3.191,7.33-7,8l-5,1v6h32v-6l-5-1c-3.807-0.67-6.461-4.17-7-8l-0.607-5.174
	C38.32,47.578,42.873,50,48,50c8.838,0,16-7.164,16-16S56.838,18,48,18z"/>
</svg>
