<?xml version="1.0" encoding="utf-8"?>
<!-- Generator: Adobe Illustrator 15.0.0, SVG Export Plug-In . SVG Version: 6.00 Build 0)  -->
<!DOCTYPE svg PUBLIC "-//W3C//DTD SVG 1.1//EN" "http://www.w3.org/Graphics/SVG/1.1/DTD/svg11.dtd">
<svg version="1.1" id="Layer_1" xmlns="http://www.w3.org/2000/svg" xmlns:xlink="http://www.w3.org/1999/xlink" x="0px" y="0px"
	 width="64px" height="64px" viewBox="0 0 64 64" enable-background="new 0 0 64 64" xml:space="preserve">
<g>
	<g>
		<path fill="#68963B" d="M16.187,58.105H30.35V41.658H10.267c0,0-0.683,5.748-0.729,7.674
			C9.326,57.994,16.187,58.105,16.187,58.105z"/>
		<path fill="#83BF4F" d="M19.504,34.754l6.501,3.754L17.438,23.32L0,23.496l6.504,3.752l-5.22,9.039
			c-0.528,0.916-1.086,2.398-0.313,3.738l8.861,15.346c1.588,2.75,4.352,2.734,6.354,2.734c0,0-9.087-1.867-3.278-11.93
			L19.504,34.754z"/>
	</g>
	<g>
		<path fill="#68963B" d="M62.473,32.678L55.39,20.412l-14.242,8.223l10.041,17.393c0,0,5.319-2.281,7.01-3.203
			C65.806,38.676,62.473,32.678,62.473,32.678z"/>
		<path fill="#83BF4F" d="M40.592,41.479v-7.504l-8.869,15.012L40.594,64l-0.001-7.508h10.435c1.059,0,2.622-0.26,3.395-1.598
			l8.859-15.346c1.588-2.752,0.192-5.137-0.809-6.871c0,0,2.926,8.803-8.691,8.803L40.592,41.479z"/>
	</g>
	<g>
		<path fill="#68963B" d="M18.024,4.137l-7.083,12.266l14.243,8.223L35.228,7.232c0,0-4.637-3.465-6.279-4.467
			C21.551-1.748,18.024,4.137,18.024,4.137z"/>
		<path fill="#83BF4F" d="M36.585,18.686l-6.5,3.754l17.438,0.172l8.566-15.189l-6.501,3.756l-5.217-9.037
			C43.841,1.225,42.834,0,41.29,0H23.569c-3.177,0-4.545,2.402-5.545,4.137c0,0,6.159-6.936,11.97,3.125L36.585,18.686z"/>
	</g>
</g>
</svg>
