<?xml version="1.0" encoding="utf-8"?>
<!-- Generator: Adobe Illustrator 15.0.0, SVG Export Plug-In . SVG Version: 6.00 Build 0)  -->
<!DOCTYPE svg PUBLIC "-//W3C//DTD SVG 1.1//EN" "http://www.w3.org/Graphics/SVG/1.1/DTD/svg11.dtd">
<svg version="1.1" id="Layer_1" xmlns="http://www.w3.org/2000/svg" xmlns:xlink="http://www.w3.org/1999/xlink" x="0px" y="0px"
	 width="64px" height="64px" viewBox="0 0 64 64" enable-background="new 0 0 64 64" xml:space="preserve">
<g>
	<circle fill="#428BC1" cx="32" cy="32" r="30"/>
	<g>
		<polygon fill="#FFFFFF" points="48.657,42.998 46.177,45.654 40.245,36.473 32.991,36.473 32.991,32.354 40.974,32.354 
			40.974,28.236 32.991,28.236 32.991,20 29,20 29,40.591 38.109,40.591 45.482,52 51,46.402 		"/>
		<circle fill="#FFFFFF" cx="31" cy="13" r="4"/>
		<g>
			<path fill="#FFFFFF" d="M29.375,48.882c-4.549,0-8.248-3.695-8.248-8.235c0-3.043,1.66-5.703,4.123-7.129V29
				C20.45,30.699,17,35.277,17,40.646C17,47.459,22.552,53,29.375,53c3.885,0,7.355-1.8,9.625-4.604l-2.459-3.682
				C35.119,47.201,32.441,48.882,29.375,48.882z"/>
		</g>
	</g>
</g>
</svg>
