<?xml version="1.0" encoding="utf-8"?>
<!-- Generator: Adobe Illustrator 15.0.0, SVG Export Plug-In . SVG Version: 6.00 Build 0)  -->
<!DOCTYPE svg PUBLIC "-//W3C//DTD SVG 1.1//EN" "http://www.w3.org/Graphics/SVG/1.1/DTD/svg11.dtd">
<svg version="1.1" id="Layer_1" xmlns="http://www.w3.org/2000/svg" xmlns:xlink="http://www.w3.org/1999/xlink" x="0px" y="0px"
	 width="64px" height="64px" viewBox="0 0 64 64" enable-background="new 0 0 64 64" xml:space="preserve">
<g>
	<g>
		<path fill="#89664C" d="M5.28,10.408c-0.861,0.86-0.86,2.268,0,3.128L48.256,56.5c0.864,0.859,2.272,0.857,3.13,0l3.132-3.13
			c0.863-0.862,0.862-2.271,0-3.13L11.54,7.278c-0.859-0.86-2.268-0.86-3.13-0.002L5.28,10.408z"/>
		<path fill="#3E4347" d="M27.387,11.397c0.875,0.872,0.874,2.299-0.001,3.169L12.568,29.379c-0.872,0.869-2.296,0.871-3.167,0
			l-6.748-6.743c-0.87-0.873-0.87-2.299,0-3.17L17.47,4.653c0.875-0.871,2.301-0.871,3.172,0.002L27.387,11.397z"/>
	</g>
	<g>
		<polygon fill="#3E4347" points="41.441,30.982 36.045,25.751 41.41,20.552 46.806,25.781 		"/>
		<g>
			<path fill="#94989B" d="M57.248,19.666l-9.526-9.233c-0.35-0.339-0.914-0.339-1.264,0l-3.543,3.433l-0.044,0.041l-3.543,3.434
				c-0.35,0.339-0.349,0.888,0,1.224l9.528,9.237c0.349,0.336,0.914,0.336,1.262-0.002l7.13-6.912
				C57.598,20.55,57.598,20.005,57.248,19.666z"/>
			<path fill="#94989B" d="M41.348,4.254c-0.35-0.338-0.914-0.338-1.264,0l-7.13,6.912c-0.35,0.335-0.35,0.884,0,1.223
				c0,0,1.989,1.905,2.041,1.946l8.362-8.104C43.313,6.181,41.348,4.254,41.348,4.254z"/>
			<path fill="#3E4347" d="M42.915,13.865l3.543-3.433c0,0-1.978,1.129-2.335-1.836c-0.143-1.193-0.413-1.94-0.767-2.365
				l-8.362,8.104c0.439,0.344,1.208,0.606,2.44,0.743c3.062,0.348,1.894,2.262,1.894,2.262l3.543-3.434L42.915,13.865z"/>
		</g>
		<path fill="#3E4347" d="M57.98,41.085c9.651-9.427-1.109-19.833-1.109-19.833l-6.324,6.134c0,0,7.936,5.894,5.74,13.348
			c-0.255,0.865-0.694,1.636-0.469,1.855C56.124,42.885,57.298,41.752,57.98,41.085z"/>
		<path fill="#F2B200" d="M38.744,28.364l-3.492-3.38c0,0-2.813,1.748-5.904,4.746c-3.415,3.307-5.328,7.679-9.833,12.044
			c-6.774,6.565-10.071,8.053-12.802,10.034c-1.03,0.745-0.933,0.863,0.01,1.778l2.936,2.848L38.744,28.364z"/>
		<path fill="#FFCE31" d="M38.744,28.364l3.489,3.386c0,0-1.804,2.726-4.896,5.723C33.927,40.781,29.414,42.637,24.91,47
			c-6.775,6.568-8.434,9.643-10.477,12.289c-0.771,0.996-0.894,0.902-1.837-0.01l-2.937-2.846L38.744,28.364z"/>
	</g>
</g>
</svg>
