<?xml version="1.0" encoding="utf-8"?>
<!-- Generator: Adobe Illustrator 15.0.0, SVG Export Plug-In . SVG Version: 6.00 Build 0)  -->
<!DOCTYPE svg PUBLIC "-//W3C//DTD SVG 1.1//EN" "http://www.w3.org/Graphics/SVG/1.1/DTD/svg11.dtd">
<svg version="1.1" id="Layer_1" xmlns="http://www.w3.org/2000/svg" xmlns:xlink="http://www.w3.org/1999/xlink" x="0px" y="0px"
	 width="64px" height="64px" viewBox="0 0 64 64" enable-background="new 0 0 64 64" xml:space="preserve">
<g>
	<path fill="#B2C1C0" d="M3.753,27c0,0-3.723,15.193-0.317,17.774c2.177,1.649,3.413-6.275,3.413-6.275s4.19,2.131,5.061-0.133
		C12.779,36.103,8.625,36,3.753,27z"/>
	<path fill="#B2C1C0" d="M60.247,27c0,0,3.723,15.193,0.317,17.774c-2.178,1.649-3.413-6.275-3.413-6.275s-4.19,2.131-5.062-0.133
		C51.221,36.103,55.375,36,60.247,27z"/>
	<path fill="#B2C1C0" d="M59,35c-23.087,28.109-24.08,6.19-24.142,0.37C34.802,30.026,34.403,14,34.403,14h-4.805
		c0,0-0.4,16.026-0.457,21.37C29.079,41.19,28.087,63.109,5,35c0,0-0.723,9.142,15.989,20.26C26.647,59.026,32,62,32,62
		s5.354-2.974,11.012-6.74C59.724,44.142,59,35,59,35z"/>
	<path opacity="0.5" fill="#62727A" d="M34.548,20c-0.08-3.425-0.145-6-0.145-6h-4.805c0,0-0.064,2.575-0.145,6H34.548z"/>
	<path fill="#B2C1C0" d="M32,2c-3.866,0-7,3.134-7,7s3.134,7,7,7s7-3.134,7-7S35.866,2,32,2z M32,13c-2.209,0-4-1.791-4-4
		s1.791-4,4-4s4,1.791,4,4S34.209,13,32,13z"/>
	<path opacity="0.5" fill="#62727A" d="M27.041,12.508c0.189-0.157,2.021,2.06,4.959,1.995c2.938,0.065,4.77-2.151,4.959-1.995
		c0.336,0.07-1.403,3.01-4.959,2.992C28.445,15.519,26.705,12.578,27.041,12.508z"/>
	<path opacity="0.5" fill="#62727A" d="M41.296,50.005L41.296,50.005c-3.323,0-7.31-2.537-7.438-14.624
		C33.827,32.397,33.687,26.017,33.57,21H32v39.853c1.44-0.817,5.873-3.373,10.458-6.425c9.713-6.463,13.361-12.222,14.729-15.744
		C50.503,46.293,45.287,50.004,41.296,50.005z"/>
	<path fill="#B2C1C0" d="M41,21.958c-5.916,1.39-12.084,1.39-18,0c0-1.305,0-2.61,0-3.915c5.916-1.39,12.084-1.39,18,0
		C41,19.348,41,20.652,41,21.958z"/>
	<path opacity="0.5" fill="#62727A" d="M40,21.057c-0.034-0.282-3.607-0.049-8-0.057c-4.392,0.008-7.966-0.225-7.999,0.057
		C23.963,21.323,27.536,22.007,32,22C36.465,22.007,40.036,21.323,40,21.057z"/>
</g>
</svg>
