<?xml version="1.0" encoding="utf-8"?>
<!-- Generator: Adobe Illustrator 15.0.0, SVG Export Plug-In . SVG Version: 6.00 Build 0)  -->
<!DOCTYPE svg PUBLIC "-//W3C//DTD SVG 1.1//EN" "http://www.w3.org/Graphics/SVG/1.1/DTD/svg11.dtd">
<svg version="1.1" id="Layer_1" xmlns="http://www.w3.org/2000/svg" xmlns:xlink="http://www.w3.org/1999/xlink" x="0px" y="0px"
	 width="64px" height="64px" viewBox="0 0 64 64" enable-background="new 0 0 64 64" xml:space="preserve">
<g>
	<g>
		<g>
			<path fill="#96A7A8" d="M48.005,23.961c7.484-6.249,9.669-12.946,10.272-16.977c2.328-1.619,3.682-3.001,3.682-3.001
				s1.277,10.903-10.45,20.696C36.181,37.477,20.956,45.515,20.956,45.515l-1.311-1.933C24.393,40.891,36.165,33.848,48.005,23.961z
				"/>
			<path fill="#B8C2C4" d="M19.646,43.582l-1.227-1.805c24.395-20.37,24.908-29.735,24.908-29.735
				c6.252,0.083,11.607-2.733,14.95-5.058c-0.604,4.031-2.788,10.729-10.272,16.977C36.165,33.848,24.393,40.891,19.646,43.582z"/>
		</g>
		<g>
			<path fill="#C19A61" d="M12.431,45.945c-0.921,0.833-0.787,2.301,0.293,3.281c1.081,0.981,2.7,1.102,3.621,0.27
				c0.918-0.833,0.785-2.303-0.295-3.283C14.968,45.235,13.347,45.113,12.431,45.945z"/>
			<path fill="#DBB471" d="M12.901,45.973c-0.797,0.721-0.682,1.992,0.255,2.842c0.938,0.853,2.343,0.957,3.14,0.235
				c0.796-0.723,0.681-1.995-0.255-2.846C15.102,45.355,13.696,45.25,12.901,45.973z"/>
		</g>
		<g>
			<path fill="#C19A61" d="M10.2,47.809c-0.92,0.832-0.787,2.299,0.293,3.279c1.081,0.983,2.701,1.102,3.621,0.271
				c0.917-0.833,0.785-2.302-0.295-3.282C12.736,47.099,11.116,46.977,10.2,47.809z"/>
			<path fill="#DBB471" d="M10.671,47.834c-0.798,0.721-0.683,1.994,0.254,2.844c0.938,0.851,2.343,0.955,3.141,0.234
				c0.796-0.722,0.681-1.994-0.256-2.845C12.872,47.217,11.467,47.113,10.671,47.834z"/>
		</g>
		<g>
			<path fill="#C19A61" d="M7.969,49.672c-0.92,0.831-0.787,2.299,0.293,3.279c1.082,0.981,2.701,1.102,3.621,0.271
				c0.918-0.833,0.785-2.302-0.295-3.282C10.506,48.961,8.886,48.84,7.969,49.672z"/>
			<path fill="#DBB471" d="M8.439,49.697c-0.797,0.721-0.682,1.994,0.254,2.844c0.938,0.851,2.344,0.955,3.141,0.233
				c0.796-0.722,0.682-1.993-0.256-2.846C10.641,49.08,9.235,48.976,8.439,49.697z"/>
		</g>
		<g>
			<path fill="#C19A61" d="M5.738,51.533c-0.921,0.833-0.787,2.301,0.293,3.281c1.081,0.98,2.701,1.102,3.622,0.269
				c0.917-0.833,0.785-2.3-0.295-3.28C8.275,50.823,6.654,50.703,5.738,51.533z"/>
			<path fill="#DBB471" d="M6.21,51.561c-0.798,0.721-0.683,1.992,0.254,2.844c0.938,0.851,2.342,0.955,3.14,0.233
				c0.796-0.722,0.682-1.995-0.255-2.846C8.409,50.943,7.005,50.839,6.21,51.561z"/>
		</g>
		<path fill="#89664C" d="M2.984,53.782c3.164-2.642,1.73-0.81,3.674,1.206c5.753,5.964,15.623-2.924,8.99-8.141
			c-3.755-2.952-1.125-6.917,0.838-8.558c1.248-1.041,0.276,0.806,3.767,4.946c3.538,4.196,1.929,10.818-2.682,14.666
			c-4.779,3.992-10.605,1.473-12.837-1.174C3.221,54.935,0.546,55.818,2.984,53.782z"/>
		<g>
			<path fill="#DBB471" d="M11.008,58.135c1.576-0.047,3.819-0.465,5.578-2.199c2.115-2.09,2.882-4.743,2.339-7.283
				c1.355,2.86,0.963,5.961-1.301,8.218c-1.572,1.568-3.683,1.865-5.175,1.839c-1.284-0.025-2.59-0.303-3.823-0.774
				C9.41,58.083,10.211,58.157,11.008,58.135z"/>
		</g>
	</g>
	<g>
		<g>
			<path fill="#B0BFC1" d="M15.995,23.961C8.511,17.713,6.326,11.015,5.723,6.984C3.395,5.366,2.041,3.983,2.041,3.983
				s-1.277,10.903,10.45,20.696c15.328,12.797,30.553,20.835,30.553,20.835l1.311-1.933C39.607,40.891,27.835,33.848,15.995,23.961z
				"/>
			<path fill="#C9D1D3" d="M44.354,43.582l1.227-1.805c-24.395-20.37-24.908-29.735-24.908-29.735
				c-6.252,0.083-11.607-2.733-14.95-5.058c0.604,4.031,2.788,10.729,10.272,16.977C27.835,33.848,39.607,40.891,44.354,43.582z"/>
		</g>
		<g>
			<path fill="#C19A61" d="M51.569,45.945c0.921,0.833,0.787,2.301-0.293,3.281c-1.081,0.981-2.7,1.102-3.621,0.27
				c-0.918-0.833-0.785-2.303,0.295-3.283C49.032,45.235,50.653,45.113,51.569,45.945z"/>
			<path fill="#DBB471" d="M51.099,45.973c0.797,0.721,0.682,1.992-0.255,2.842c-0.938,0.853-2.343,0.957-3.141,0.235
				c-0.795-0.723-0.68-1.995,0.256-2.846C48.898,45.355,50.304,45.25,51.099,45.973z"/>
		</g>
		<g>
			<path fill="#C19A61" d="M53.8,47.809c0.92,0.832,0.787,2.299-0.293,3.279c-1.081,0.983-2.701,1.102-3.621,0.271
				c-0.917-0.833-0.785-2.302,0.295-3.282C51.264,47.099,52.884,46.977,53.8,47.809z"/>
			<path fill="#DBB471" d="M53.329,47.834c0.798,0.721,0.683,1.994-0.254,2.844c-0.938,0.851-2.343,0.955-3.141,0.234
				c-0.796-0.722-0.681-1.994,0.256-2.845C51.128,47.217,52.533,47.113,53.329,47.834z"/>
		</g>
		<g>
			<path fill="#C19A61" d="M56.031,49.672c0.92,0.831,0.787,2.299-0.293,3.279c-1.082,0.981-2.701,1.102-3.621,0.271
				c-0.918-0.833-0.785-2.302,0.295-3.282C53.494,48.961,55.114,48.84,56.031,49.672z"/>
			<path fill="#DBB471" d="M55.561,49.697c0.797,0.721,0.682,1.994-0.254,2.844c-0.938,0.851-2.344,0.955-3.141,0.233
				c-0.796-0.722-0.682-1.993,0.256-2.846C53.359,49.08,54.765,48.976,55.561,49.697z"/>
		</g>
		<g>
			<path fill="#C19A61" d="M58.262,51.533c0.921,0.833,0.787,2.301-0.293,3.281c-1.081,0.98-2.701,1.102-3.622,0.269
				c-0.917-0.833-0.785-2.3,0.295-3.28C55.725,50.823,57.346,50.703,58.262,51.533z"/>
			<path fill="#DBB471" d="M57.79,51.561c0.798,0.721,0.683,1.992-0.254,2.844c-0.938,0.851-2.342,0.955-3.14,0.233
				c-0.796-0.722-0.682-1.995,0.255-2.846C55.591,50.943,56.995,50.839,57.79,51.561z"/>
		</g>
		<path fill="#89664C" d="M61.016,53.782c-3.164-2.642-1.73-0.81-3.674,1.206c-5.753,5.964-15.623-2.924-8.99-8.141
			c3.755-2.952,1.125-6.917-0.838-8.558c-1.248-1.041-0.276,0.806-3.767,4.946c-3.538,4.196-1.929,10.818,2.682,14.666
			c4.779,3.992,10.605,1.473,12.837-1.174C60.779,54.935,63.454,55.818,61.016,53.782z"/>
		<g>
			<path fill="#DBB471" d="M52.992,58.135c-1.576-0.047-3.819-0.465-5.578-2.199c-2.115-2.09-2.882-4.743-2.339-7.283
				c-1.355,2.86-0.963,5.961,1.301,8.218c1.572,1.568,3.683,1.865,5.175,1.839c1.284-0.025,2.59-0.303,3.823-0.774
				C54.59,58.083,53.789,58.157,52.992,58.135z"/>
		</g>
	</g>
</g>
</svg>
