<?xml version="1.0" encoding="utf-8"?>
<!-- Generator: Adobe Illustrator 15.0.0, SVG Export Plug-In . SVG Version: 6.00 Build 0)  -->
<!DOCTYPE svg PUBLIC "-//W3C//DTD SVG 1.1//EN" "http://www.w3.org/Graphics/SVG/1.1/DTD/svg11.dtd">
<svg version="1.1" id="Layer_1" xmlns="http://www.w3.org/2000/svg" xmlns:xlink="http://www.w3.org/1999/xlink" x="0px" y="0px"
	 width="64px" height="64px" viewBox="0 0 64 64" enable-background="new 0 0 64 64" xml:space="preserve">
<g>
	<g>
		<path fill="#D0D0D0" d="M23.563,36.671H2.938l10.313-26.25L23.563,36.671z M5.591,34.842h15.316L13.25,15.347L5.591,34.842z"/>
	</g>
	<g>
		<path fill="#D0D0D0" d="M61.063,36.671H40.438l10.313-26.25L61.063,36.671z M43.091,34.842h15.316L50.75,15.347L43.091,34.842z"/>
	</g>
	<path fill="#B8C2C4" d="M50.294,10.238c0,0-2.155-0.834-3.365-1.331C42.633,7.145,37.294,4.954,32,4.954
		c-5.294,0-10.633,2.191-14.929,3.953c-1.21,0.497-3.365,1.331-3.365,1.331l-3.3,2.545c0,0,2.659,1.683,4.039,1.182
		c1.063-0.382,2.229-0.86,3.463-1.367C22.018,10.912,27.133,8.812,32,8.812c4.867,0,9.982,2.1,14.091,3.787
		c1.232,0.507,2.398,0.985,3.463,1.367c1.38,0.501,4.039-1.182,4.039-1.182L50.294,10.238z"/>
	<path fill="#428BC1" d="M2,34.796c0,6.213,5.037,11.25,11.25,11.25s11.25-5.037,11.25-11.25H2z"/>
	<path fill="#428BC1" d="M39.5,34.796c0,6.213,5.037,11.25,11.25,11.25S62,41.009,62,34.796H39.5z"/>
	<rect x="30.125" y="12.296" fill="#B8C2C4" width="3.75" height="41.25"/>
	<rect x="28.975" y="18.639" fill="#D0D0D0" width="6.05" height="34.907"/>
	<rect x="27.725" y="36.671" fill="#545B60" width="8.55" height="19.682"/>
	<circle fill="#DBB471" cx="13.25" cy="13.233" r="3.75"/>
	<circle fill="#545B60" cx="50.75" cy="13.233" r="3.75"/>
	<circle fill="#545B60" cx="13.25" cy="13.233" r="3.75"/>
	<circle fill="#FFFFFF" cx="13.25" cy="13.233" r="1.875"/>
	<circle fill="#FFFFFF" cx="50.75" cy="13.233" r="1.875"/>
	<circle fill="#D0D0D0" cx="32" cy="7.608" r="5.625"/>
	<g>
		<path fill="#D0D0D0" d="M32,45.108c-8.285,0-15,4.197-15,9.375h30C47,49.306,40.283,45.108,32,45.108z"/>
	</g>
	<rect x="15.125" y="54.483" fill="#545B60" width="33.75" height="3.75"/>
	<rect x="11.375" y="58.233" fill="#6B767C" width="41.25" height="3.75"/>
</g>
</svg>
