<?xml version="1.0" encoding="utf-8"?>
<!-- Generator: Adobe Illustrator 15.0.0, SVG Export Plug-In . SVG Version: 6.00 Build 0)  -->
<!DOCTYPE svg PUBLIC "-//W3C//DTD SVG 1.1//EN" "http://www.w3.org/Graphics/SVG/1.1/DTD/svg11.dtd">
<svg version="1.1" id="Layer_1" xmlns="http://www.w3.org/2000/svg" xmlns:xlink="http://www.w3.org/1999/xlink" x="0px" y="0px"
	 width="64px" height="64px" viewBox="0 0 64 64" enable-background="new 0 0 64 64" xml:space="preserve">
<g>
	<circle fill="#B3E0FF" cx="32" cy="28.25" r="19.688"/>
	<path fill="#BD80FF" d="M15.125,28.25c0,9.318,7.556,16.875,16.875,16.875c9.318,0,16.875-7.557,16.875-16.875H15.125z"/>
	<polygon fill="#94989B" points="16.063,33.875 12.313,33.875 2,62 3.875,62 	"/>
	<polygon fill="#94989B" points="47.938,33.875 51.688,33.875 62,62 60.125,62 	"/>
	<polygon fill="#94989B" points="32.938,62 31.063,62 30.125,33.875 33.875,33.875 	"/>
	<path fill="#B3E0FF" d="M51.688,3.172c0,0-39.375-2.344-39.375,25.078H32c0,0-4.727-18.047,19.688-18.047V3.172z"/>
	<path fill="#B3E0FF" d="M53.563,10.203c0,0.646-0.42,1.172-0.938,1.172l0,0c-0.519,0-0.938-0.525-0.938-1.172V3.172
		C51.688,2.525,52.106,2,52.625,2l0,0c0.518,0,0.938,0.525,0.938,1.172V10.203z"/>
	<path fill="#C5CCD6" d="M9.5,35.75c0,1.031,0.843,1.875,1.875,1.875h41.25c1.031,0,1.875-0.844,1.875-1.875l0,0
		c0-1.031-0.844-1.875-1.875-1.875h-41.25C10.343,33.875,9.5,34.719,9.5,35.75L9.5,35.75z"/>
</g>
</svg>
