<?xml version="1.0" encoding="utf-8"?>
<!-- Generator: Adobe Illustrator 15.0.0, SVG Export Plug-In . SVG Version: 6.00 Build 0)  -->
<!DOCTYPE svg PUBLIC "-//W3C//DTD SVG 1.1//EN" "http://www.w3.org/Graphics/SVG/1.1/DTD/svg11.dtd">
<svg version="1.1" id="Layer_1" xmlns="http://www.w3.org/2000/svg" xmlns:xlink="http://www.w3.org/1999/xlink" x="0px" y="0px"
	 width="64px" height="64px" viewBox="0 0 64 64" enable-background="new 0 0 64 64" xml:space="preserve">
<g>
	<path fill="#3E4347" d="M13.268,17.795c1.127,0.25,1.669,1.373,1.205,2.494l-3.377,8.15c-0.464,1.121-1.641,1.533-2.614,0.912
		l-7.228-4.596c-0.973-0.619-1.391-2.043-0.926-3.164l1.688-4.076c0.465-1.119,1.767-1.832,2.892-1.58L13.268,17.795z"/>
	<path fill="#3E4347" d="M8.481,35.41c0.974-0.621,2.15-0.209,2.615,0.91l3.376,8.152c0.463,1.121-0.078,2.244-1.205,2.494
		l-8.36,1.859c-1.126,0.252-2.427-0.461-2.892-1.58L0.327,43.17c-0.464-1.121-0.047-2.545,0.926-3.164L8.481,35.41z"/>
	<path fill="#3E4347" d="M17.551,51.25c0.25-1.127,1.373-1.668,2.494-1.205l8.152,3.377c1.12,0.465,1.531,1.641,0.912,2.615
		l-4.598,7.227c-0.619,0.975-2.041,1.391-3.164,0.928l-4.075-1.689c-1.12-0.463-1.833-1.766-1.581-2.891L17.551,51.25z"/>
	<path fill="#3E4347" d="M35.166,56.037c-0.62-0.973-0.209-2.15,0.911-2.615l8.153-3.377c1.12-0.463,2.242,0.08,2.493,1.205
		l1.858,8.361c0.252,1.125-0.459,2.428-1.581,2.893l-4.075,1.688c-1.121,0.463-2.545,0.047-3.164-0.928L35.166,56.037z"/>
	<path fill="#3E4347" d="M51.006,46.967c-1.126-0.25-1.668-1.373-1.204-2.494l3.376-8.152c0.465-1.119,1.642-1.529,2.615-0.91
		l7.228,4.598c0.974,0.617,1.392,2.041,0.927,3.162l-1.688,4.076c-0.464,1.119-1.767,1.832-2.892,1.58L51.006,46.967z"/>
	<path fill="#3E4347" d="M55.793,29.354c-0.973,0.619-2.15,0.209-2.615-0.912l-3.376-8.152c-0.464-1.121,0.078-2.242,1.204-2.494
		l8.361-1.859c1.125-0.25,2.428,0.461,2.893,1.582l1.688,4.076c0.465,1.119,0.047,2.543-0.926,3.162L55.793,29.354z"/>
	<path fill="#3E4347" d="M46.724,13.512c-0.251,1.127-1.373,1.668-2.494,1.205l-8.151-3.377c-1.121-0.465-1.531-1.641-0.912-2.615
		l4.598-7.227c0.618-0.975,2.042-1.393,3.162-0.926l4.076,1.688c1.121,0.463,1.832,1.766,1.581,2.891L46.724,13.512z"/>
	<path fill="#3E4347" d="M29.108,8.725c0.62,0.975,0.209,2.15-0.911,2.615l-8.152,3.377c-1.121,0.463-2.242-0.08-2.494-1.205
		l-1.859-8.359c-0.251-1.127,0.461-2.43,1.582-2.893l4.075-1.689c1.122-0.465,2.544-0.047,3.163,0.928L29.108,8.725z"/>
	<path fill="#3E4347" d="M32.138,5.381c-14.911,0-27,12.09-27,27s12.089,27,27,27s27-12.09,27-27S47.049,5.381,32.138,5.381z
		 M32.138,49.381c-9.388,0-17-7.611-17-17s7.612-17,17-17s17,7.611,17,17S41.525,49.381,32.138,49.381z"/>
	<circle fill="#94989B" cx="32.138" cy="32.381" r="21"/>
	<circle fill="#3E4347" cx="32.138" cy="32.381" r="16"/>
	<circle fill="#FFFFFF" cx="32.138" cy="32.381" r="8"/>
</g>
</svg>
