<?xml version="1.0" encoding="utf-8"?>
<!-- Generator: Adobe Illustrator 15.0.0, SVG Export Plug-In . SVG Version: 6.00 Build 0)  -->
<!DOCTYPE svg PUBLIC "-//W3C//DTD SVG 1.1//EN" "http://www.w3.org/Graphics/SVG/1.1/DTD/svg11.dtd">
<svg version="1.1" id="Layer_1" xmlns="http://www.w3.org/2000/svg" xmlns:xlink="http://www.w3.org/1999/xlink" x="0px" y="0px"
	 width="64px" height="64px" viewBox="0 0 64 64" enable-background="new 0 0 64 64" xml:space="preserve">
<g>
	<g>
		<path fill="#C28FEF" d="M32.003,47.315c0.783-1.393,2.655-1.409,2.655-1.409v-4.578h-2.655h-2.652v4.578
			C29.351,45.906,31.221,45.923,32.003,47.315z"/>
		<path fill="#C28FEF" d="M32.001,2c-2.201,9.686-16.205,14.993-8.068,24.281c6.054,6.913,6.401,14.595,6.401,14.595h1.667h1.667
			c0,0,0.346-7.682,6.401-14.595C48.204,16.993,34.202,11.686,32.001,2z"/>
		<path fill="#C28FEF" d="M28.765,46.521c-2.729,0.668-1.334,3.42-1.604,4.504c-0.683,2.757-3.166,2.757-3.166,2.757
			s1.193,1.808,3.151,1.808c1.419,0,1.808-0.776,1.808-0.776C28.65,57.821,32.001,62,32.001,62V47.989
			C32.001,47.989,30.929,45.992,28.765,46.521z"/>
		<path fill="#C28FEF" d="M36.844,51.024c-0.269-1.084,1.125-3.836-1.605-4.504c-2.162-0.528-3.235,1.469-3.235,1.469V62
			c0,0,3.351-4.179,3.048-7.188c0,0,0.389,0.776,1.809,0.776c1.956,0,3.151-1.808,3.151-1.808S37.525,53.781,36.844,51.024z"/>
	</g>
	<path fill="#C28FEF" d="M17.394,39.342c0,0-0.49,3.547,3.111,3.547c5.245,0,3.467-8.67-3.341-8.67c-7.507,0-5.06,7.529-5.06,7.529
		C5.879,40.151,1.656,31.286,8.546,25.671c7.751-6.316,18.82,1.32,20.184,12.876c1.067,9.034-6.477,16.256-12.735,11.715
		C10.902,46.568,14.192,39.813,17.394,39.342z"/>
	<path fill="#CFA7F9" d="M16.505,41.038c0,0-2.268,6.247,3.912,6.585c4.674,0.258,7.177-5.991,4.001-12.116
		c-3.568-6.878-8.783-6.911-11.349-5.881c-7.279,2.927-2.625,10.347-2.625,10.347c-3.134-1.775-6.387-8.265-0.724-13.174
		c6.697-5.807,17.741,1.065,18.954,11.327c0.947,8.023-4.967,13.804-10.26,12.41C13.414,49.22,13.171,43.022,16.505,41.038z"/>
	<path fill="#C28FEF" d="M46.606,39.342c0,0,0.49,3.547-3.111,3.547c-5.245,0-3.467-8.67,3.341-8.67c7.507,0,5.06,7.529,5.06,7.529
		c6.226-1.597,10.448-10.462,3.559-16.077c-7.751-6.316-18.82,1.32-20.184,12.876c-1.067,9.034,6.478,16.256,12.735,11.715
		C53.098,46.568,49.808,39.813,46.606,39.342z"/>
	<path fill="#CFA7F9" d="M47.495,41.038c0,0,2.268,6.247-3.912,6.585c-4.674,0.258-7.177-5.991-4.001-12.116
		c3.568-6.878,8.785-6.911,11.347-5.881c7.281,2.927,2.627,10.347,2.627,10.347c3.134-1.775,6.389-8.265,0.724-13.174
		c-6.697-5.807-17.741,1.065-18.954,11.327c-0.947,8.023,4.967,13.804,10.259,12.41C50.586,49.22,50.829,43.022,47.495,41.038z"/>
	<rect x="21.415" y="36.567" fill="#CFA7F9" width="21.17" height="0.932"/>
	<rect x="22.788" y="37.499" fill="#C28FEF" width="18.426" height="0.933"/>
	<rect x="21.415" y="41.009" fill="#CFA7F9" width="21.17" height="0.933"/>
	<rect x="22.788" y="40.076" fill="#C28FEF" width="18.426" height="0.933"/>
	<rect x="21.415" y="38.432" fill="#CFA7F9" width="21.17" height="1.645"/>
	<g>
		<path fill="#CFA7F9" d="M30.097,41.328v3.812c0,0,1.342,0.014,1.904,1.104c0.561-1.09,1.902-1.104,1.902-1.104v-3.812h-1.902
			H30.097z"/>
		<path fill="#CFA7F9" d="M30.67,36.953h1.331h1.33c0,0,0.276-6.132,5.11-11.649c6.493-7.414-4.685-11.649-6.44-19.38
			c-1.758,7.73-12.934,11.966-6.44,19.38C30.395,30.821,30.67,36.953,30.67,36.953z"/>
		<path fill="#CFA7F9" d="M35.901,51.169c-0.149-1.36,0.732-3.215-0.967-3.61c-1.681-0.392-2.922,1.864-2.933,1.883
			c-0.011-0.019-1.251-2.274-2.934-1.883c-1.699,0.396-0.815,2.25-0.966,3.61c-0.256,2.312-2.616,2.901-2.616,2.901
			c2.434,1.891,3.999-0.745,3.999-0.745c0.217,4.274,2.494,5.767,2.516,5.781v0.001l0.001-0.001l0.001,0.001v-0.001
			c0.021-0.015,2.3-1.507,2.516-5.781c0,0,1.565,2.636,4.002,0.745C38.521,54.07,36.156,53.48,35.901,51.169z"/>
	</g>
</g>
</svg>
