<?xml version="1.0" encoding="utf-8"?>
<!-- Generator: Adobe Illustrator 15.0.0, SVG Export Plug-In . SVG Version: 6.00 Build 0)  -->
<!DOCTYPE svg PUBLIC "-//W3C//DTD SVG 1.1//EN" "http://www.w3.org/Graphics/SVG/1.1/DTD/svg11.dtd">
<svg version="1.1" id="Layer_1" xmlns="http://www.w3.org/2000/svg" xmlns:xlink="http://www.w3.org/1999/xlink" x="0px" y="0px"
	 width="64px" height="64px" viewBox="0 0 64 64" enable-background="new 0 0 64 64" xml:space="preserve">
<g>
	<g>
		<g>
			<g>
				<g>
					<path fill="#FFD85C" d="M45.392,55.059c-0.02,0.073-26.764,0.073-26.784,0c-0.9,1.028-1.178,1.973-0.969,2.331
						c0.478,0.816,1.153,1.489,1.959,2.041C23.043,61.8,28.891,62,32,62c3.109,0,8.957-0.2,12.402-2.569
						c0.806-0.552,1.481-1.225,1.959-2.041C46.569,57.031,46.292,56.087,45.392,55.059z"/>
					<path fill="#CF4D4D" d="M42.38,52.9H21.62c-1.393,0.637-2.361,1.418-3.012,2.158c0.02,0.073,0.291,1.077,1.762,2.138
						c1.721,1.241,5.086,2.563,11.63,2.563c6.544,0,9.91-1.321,11.63-2.563c1.471-1.061,1.742-2.064,1.762-2.138
						C44.741,54.318,43.772,53.537,42.38,52.9z"/>
					<path fill="#FFD85C" d="M23.104,54.101c1.396,0.736,4.023,1.537,8.896,1.537c4.421,0,6.996-0.661,8.48-1.332
						c1.537-0.697,1.9-1.405,1.9-1.405v-0.919H21.62V52.9C21.62,52.9,21.92,53.477,23.104,54.101z"/>
					<path fill="#CF4D4D" d="M51.815,23.075c-0.495-4.351-7.017-5.939-7.017-5.939H19.201c0,0-6.521,1.589-7.017,5.939
						c-1.743,15.318,9.436,28.907,9.436,28.907s0.479,0.365,1.483,0.809h0.001l0,0c1.574,0.694,4.451,1.584,8.896,1.584
						c4.074,0,6.834-0.748,8.48-1.407c1.297-0.52,1.9-0.985,1.9-0.985S53.558,38.393,51.815,23.075z"/>
				</g>
				<path fill="#FFD85C" d="M19.201,16.159v0.977c0,0,0.444,0.235,1.665,0.51c1.748,0.393,5.1,0.87,11.134,0.87
					c6.035,0,9.386-0.478,11.134-0.87c1.221-0.274,1.665-0.51,1.665-0.51v-0.977H19.201z"/>
			</g>
			<path fill="#CF4D4D" d="M41.209,13.411c0-0.888,0-2.506,0-3.37c0-0.74,0.338-1.641,1.925-2.305H20.866
				c1.587,0.664,1.925,1.564,1.925,2.305c0,0.864,0,2.482,0,3.37c0,1.462-3.59,2.748-3.59,2.748s0.444,0.244,1.665,0.529l0,0l0,0
				c1.748,0.409,5.1,0.907,11.134,0.907c6.035,0,9.386-0.498,11.134-0.907c1.221-0.285,1.665-0.529,1.665-0.529
				S41.209,14.873,41.209,13.411z"/>
		</g>
		<path fill="#FFD85C" d="M20.866,4.521v3.215c0,0,0.512,0.086,1.462,0.197C24.104,8.144,27.439,8.444,32,8.444
			c4.561,0,7.896-0.3,9.672-0.511c0.95-0.111,1.462-0.197,1.462-0.197V4.521H20.866z"/>
	</g>
	<path fill="#FFD85C" d="M37,2.101c-2.214-0.135-5-0.096-5-0.096s-2.786-0.039-5,0.096c-0.622,0.038-1.202,0.089-1.659,0.158v0.532
		h13.319V2.259C38.202,2.19,37.622,2.139,37,2.101z"/>
	<path fill="#CF4D4D" d="M38.659,2.792H25.34c-2.784,0.309-4.475,1.729-4.475,1.729s0.496,0.1,1.462,0.226
		C24.049,4.972,27.284,5.286,32,5.286c4.716,0,7.951-0.313,9.672-0.539c0.966-0.126,1.462-0.226,1.462-0.226
		S41.443,3.1,38.659,2.792z"/>
	<g>
		<path fill="#FFD85C" d="M33.516,48.845c-1.011,0.028-2.021,0.028-3.032,0c-0.064-8.024-0.129-16.048-0.193-24.073
			c1.14,0.032,2.278,0.032,3.418,0C33.645,32.796,33.58,40.82,33.516,48.845z"/>
		<path fill="#FFD85C" d="M23.862,33.848c-0.043-1.073-0.086-2.145-0.129-3.218c5.483,0.781,11.05,0.781,16.534,0
			c-0.043,1.073-0.086,2.146-0.129,3.218C34.739,34.616,29.26,34.616,23.862,33.848z"/>
	</g>
</g>
</svg>
