<?xml version="1.0" encoding="utf-8"?>
<!-- Generator: Adobe Illustrator 15.0.0, SVG Export Plug-In . SVG Version: 6.00 Build 0)  -->
<!DOCTYPE svg PUBLIC "-//W3C//DTD SVG 1.1//EN" "http://www.w3.org/Graphics/SVG/1.1/DTD/svg11.dtd">
<svg version="1.1" id="Layer_1" xmlns="http://www.w3.org/2000/svg" xmlns:xlink="http://www.w3.org/1999/xlink" x="0px" y="0px"
	 width="64px" height="64px" viewBox="0 0 64 64" enable-background="new 0 0 64 64" xml:space="preserve">
<g>
	<circle fill="#EFEFEF" cx="32" cy="32" r="30"/>
	<g>
		<g>
			<path fill="#CC4C5E" d="M28.508,2.201c0.429,4.269,1.889,8.265,3.899,11.918c2.034,3.645,4.597,6.984,7.553,9.921
				c2.938,2.954,6.278,5.517,9.923,7.55c3.652,2.009,7.647,3.47,11.916,3.902c-4.291,0.412-8.688-0.672-12.623-2.51
				c-3.963-1.838-7.53-4.462-10.63-7.528c-3.064-3.101-5.688-6.668-7.525-10.631C29.184,10.888,28.099,6.492,28.508,2.201z"/>
		</g>
		<g>
			<path fill="#CC4C5E" d="M2.33,28.379c4.291-0.409,8.687,0.676,12.621,2.513c3.963,1.838,7.53,4.461,10.631,7.526
				c3.066,3.1,5.69,6.666,7.528,10.631c1.838,3.934,2.922,8.332,2.51,12.621c-0.431-4.268-1.893-8.262-3.901-11.916
				c-2.033-3.645-4.596-6.982-7.55-9.922c-2.938-2.957-6.276-5.52-9.921-7.553C10.595,30.269,6.599,28.808,2.33,28.379z"/>
		</g>
	</g>
	<g>
		<g>
			<path fill="#ED4C5C" d="M7.547,25.225c-3.019-0.931-0.373,1.415-0.903,3.144c-0.535,1.73-4.039,2.186-1.022,3.111
				c3.017,0.932,5.896,0.283,6.428-1.447C12.58,28.304,10.566,26.15,7.547,25.225z"/>
		</g>
		<g>
			<path fill="#ED4C5C" d="M59.075,35.57c0.599-1.707-1.331-3.941-4.311-4.984c-2.976-1.05-0.429,1.401-1.025,3.109
				c-0.603,1.707-4.124,2.023-1.143,3.068C55.575,37.813,58.476,37.275,59.075,35.57z"/>
		</g>
		<g>
			<path fill="#ED4C5C" d="M30.162,11.921c1.729-0.533,2.378-3.412,1.446-6.428c-0.926-3.017-1.381,0.487-3.111,1.022
				c-1.729,0.53-4.075-2.114-3.145,0.904C26.278,10.438,28.432,12.452,30.162,11.921z"/>
		</g>
		<g>
			<path fill="#ED4C5C" d="M49.101,32.301c1.448-1.854,0.518-4.834-2.078-6.648c-2.59-1.819-1.121,1.536-2.566,3.392
				c-1.448,1.854-5.266,1.504-2.668,3.322C44.38,34.188,47.653,34.156,49.101,32.301z"/>
		</g>
		<g>
			<path fill="#ED4C5C" d="M41.67,26.998c1.727-1.6,1.285-4.688-0.987-6.897c-2.265-2.211-1.354,1.336-3.077,2.937
				c-1.726,1.598-5.436,0.64-3.164,2.85C36.709,28.101,39.947,28.595,41.67,26.998z"/>
		</g>
		<g>
			<path fill="#ED4C5C" d="M34.551,19.766c2.107-1.048,2.553-4.137,0.995-6.895c-1.549-2.761-1.676,0.901-3.779,1.951
				c-2.105,1.047-5.396-0.917-3.84,1.844C29.48,19.426,32.446,20.813,34.551,19.766z"/>
		</g>
		<g>
			<path fill="#ED4C5C" d="M36.892,52.469c-1.045-2.982-1.36,0.539-3.068,1.143c-1.707,0.596-4.157-1.951-3.108,1.025
				c1.043,2.979,3.275,4.91,4.984,4.311C37.403,58.348,37.94,55.447,36.892,52.469z"/>
		</g>
		<g>
			<path fill="#ED4C5C" d="M32.494,41.66c-1.817-2.598-1.468,1.219-3.321,2.668c-1.855,1.445-5.211-0.023-3.392,2.566
				c1.814,2.596,4.794,3.527,6.648,2.078C34.283,47.525,34.315,44.252,32.494,41.66z"/>
		</g>
		<g>
			<path fill="#ED4C5C" d="M26.017,34.313c-2.21-2.27-1.253,1.439-2.851,3.164c-1.6,1.725-5.147,0.813-2.937,3.078
				c2.209,2.273,5.297,2.713,6.896,0.988C28.724,39.818,28.229,36.58,26.017,34.313z"/>
		</g>
		<g>
			<path fill="#ED4C5C" d="M16.794,27.798c-2.761-1.556-0.797,1.734-1.844,3.84c-1.05,2.104-4.712,2.231-1.95,3.78
				c2.758,1.557,5.847,1.111,6.895-0.996C20.941,32.318,19.555,29.352,16.794,27.798z"/>
		</g>
	</g>
</g>
</svg>
