<?xml version="1.0" encoding="utf-8"?>
<!-- Generator: Adobe Illustrator 15.0.0, SVG Export Plug-In . SVG Version: 6.00 Build 0)  -->
<!DOCTYPE svg PUBLIC "-//W3C//DTD SVG 1.1//EN" "http://www.w3.org/Graphics/SVG/1.1/DTD/svg11.dtd">
<svg version="1.1" id="Layer_1" xmlns="http://www.w3.org/2000/svg" xmlns:xlink="http://www.w3.org/1999/xlink" x="0px" y="0px"
	 width="64px" height="64px" viewBox="0 0 64 64" enable-background="new 0 0 64 64" xml:space="preserve">
<g>
	<g>
		<circle fill="#D0D0D0" cx="31.91" cy="45" r="17"/>
	</g>
	<g>
		<path fill="#FFFFFF" d="M31.91,30c-8.272,0-15,6.73-15,15c0,8.271,6.728,15,15,15s15-6.729,15-15C46.91,36.73,40.183,30,31.91,30z
			"/>
	</g>
	<g>
		<circle fill="#D0D0D0" cx="31.91" cy="25.531" r="13"/>
	</g>
	<g>
		<path fill="#FFFFFF" d="M31.91,14.531c-6.065,0-11.001,4.936-11.001,11c0,6.065,4.936,11,11.001,11s10.999-4.935,10.999-11
			C42.909,19.467,37.976,14.531,31.91,14.531z"/>
	</g>
	<g>
		<circle fill="#FF8736" cx="31.91" cy="26.439" r="2.5"/>
	</g>
	<g>
		<g>
			<circle fill="#3E4347" cx="26.494" cy="21.814" r="2"/>
		</g>
		<g>
			<circle fill="#3E4347" cx="37.324" cy="21.814" r="2"/>
		</g>
	</g>
	<g>
		<g>
			
				<ellipse transform="matrix(0.9063 0.4226 -0.4226 0.9063 9.5277 -13.9184)" fill="#94989B" cx="36.153" cy="14.528" rx="10.075" ry="2.551"/>
		</g>
		<g>
			
				<ellipse transform="matrix(0.9063 0.4226 -0.4226 0.9063 6.1566 -16.5026)" fill="#94989B" cx="40.3" cy="5.635" rx="7.557" ry="1.914"/>
		</g>
		<path fill="#3E4347" d="M39.491,7.369c-3.549-1.654-6.147-3.698-6.088-4.736l-2.263,9.232c-0.335,0.719,1.693,2.373,4.53,3.696
			s5.408,1.813,5.743,1.095l5.617-7.668C46.275,9.701,43.039,9.023,39.491,7.369z"/>
	</g>
	<g>
		<path fill="#89664C" d="M62,33.369l-5.806-1.689c1.012-1.072,2.022-2.143,3.034-3.215c0.345-0.364,0.362-0.938,0-1.299
			c-0.346-0.346-0.954-0.365-1.298,0c-1.373,1.455-2.747,2.91-4.12,4.365l0.011-8.438l-1.837-0.003l-0.013,10.389
			c-1.687,1.787-3.372,3.574-5.059,5.36c-0.342,0.363-0.362,0.937,0,1.3c0.347,0.346,0.956,0.363,1.3,0
			c1.878-1.992,3.756-3.981,5.635-5.971c0.31-0.33,0.62-0.658,0.93-0.986l6.71,1.949L62,33.369z"/>
		<path fill="#89664C" d="M12.028,33.479L12.016,23.09l-1.837,0.003l0.011,8.438c-1.373-1.455-2.747-2.91-4.12-4.365
			c-0.344-0.365-0.952-0.346-1.298,0c-0.362,0.361-0.345,0.935,0,1.299c1.012,1.072,2.022,2.143,3.034,3.215L2,33.369l0.513,1.762
			l6.71-1.949c0.395,0.416,0.787,0.834,1.182,1.253c1.795,1.901,3.589,3.802,5.383,5.704c0.344,0.363,0.953,0.346,1.3,0
			c0.359-0.363,0.343-0.937,0-1.3C15.399,37.053,13.715,35.266,12.028,33.479z"/>
	</g>
	<g>
		<polygon fill="#3E4347" points="30.254,46.314 29.204,43.084 31.952,41.088 34.7,43.084 33.65,46.314 		"/>
	</g>
	<g>
		<polygon fill="#3E4347" points="30.254,56.107 29.204,52.877 31.952,50.881 34.7,52.877 33.65,56.107 		"/>
	</g>
	<g>
		<g>
			<path fill="#3E4347" d="M31.91,33.951c-3.076,0-6.045-1.309-8.145-3.592c-0.374-0.406-0.347-1.039,0.06-1.413
				c0.406-0.372,1.039-0.347,1.413,0.06c1.722,1.872,4.153,2.945,6.672,2.945c2.518,0,4.949-1.073,6.671-2.945
				c0.374-0.406,1.006-0.432,1.413-0.06c0.406,0.374,0.434,1.007,0.06,1.413C37.954,32.643,34.986,33.951,31.91,33.951z"/>
		</g>
	</g>
</g>
</svg>
