<?xml version="1.0" encoding="utf-8"?>
<!-- Generator: Adobe Illustrator 15.0.0, SVG Export Plug-In . SVG Version: 6.00 Build 0)  -->
<!DOCTYPE svg PUBLIC "-//W3C//DTD SVG 1.1//EN" "http://www.w3.org/Graphics/SVG/1.1/DTD/svg11.dtd">
<svg version="1.1" id="Layer_1" xmlns="http://www.w3.org/2000/svg" xmlns:xlink="http://www.w3.org/1999/xlink" x="0px" y="0px"
	 width="64px" height="64px" viewBox="0 0 64 64" enable-background="new 0 0 64 64" xml:space="preserve">
<g>
	<g>
		<g>
			<path fill="#FFCE31" d="M14.655,44.439l4.802-4.92c-1.707-0.369-3.297-1.045-4.717-1.961L14.655,44.439z"/>
			<path fill="#FFCE31" d="M30.346,6.562l-4.801,4.919c1.707,0.37,3.297,1.045,4.717,1.962L30.346,6.562z"/>
			<path fill="#FFCE31" d="M3.561,33.345l6.882-0.084C9.525,31.84,8.85,30.25,8.481,28.544L3.561,33.345z"/>
			<path fill="#FFCE31" d="M41.439,17.655l-6.881,0.084c0.916,1.421,1.592,3.012,1.961,4.718L41.439,17.655z"/>
			<path fill="#FFCE31" d="M3.561,17.654l4.921,4.802c0.369-1.707,1.044-3.296,1.961-4.718L3.561,17.654z"/>
			<path fill="#FFCE31" d="M41.439,33.345l-4.92-4.801c-0.369,1.706-1.045,3.296-1.961,4.718L41.439,33.345z"/>
			<path fill="#FFCE31" d="M14.656,6.561l0.084,6.881c1.421-0.917,3.011-1.592,4.717-1.961L14.656,6.561z"/>
			<path fill="#FFCE31" d="M30.346,44.439l-0.084-6.881c-1.422,0.916-3.012,1.592-4.717,1.961L30.346,44.439z"/>
		</g>
		<g>
			<path fill="#FFCE31" d="M10.715,33.674l-2.711,6.321l6.322-2.709C12.918,36.308,11.693,35.083,10.715,33.674z"/>
			<path fill="#FFCE31" d="M34.287,17.327l2.709-6.322l-6.32,2.709C32.084,14.693,33.309,15.917,34.287,17.327z"/>
			<path fill="#FFCE31" d="M8.391,22.943L2,25.499l6.391,2.557c-0.148-0.831-0.24-1.682-0.24-2.556
				C8.15,24.627,8.242,23.775,8.391,22.943z"/>
			<path fill="#FFCE31" d="M36.609,28.057L43,25.5l-6.391-2.557c0.15,0.832,0.24,1.684,0.24,2.557
				C36.85,26.374,36.76,27.226,36.609,28.057z"/>
			<path fill="#FFCE31" d="M14.327,13.713l-6.321-2.709l2.709,6.322C11.693,15.917,12.918,14.692,14.327,13.713z"/>
			<path fill="#FFCE31" d="M30.674,37.286l6.322,2.709l-2.709-6.321C33.307,35.083,32.084,36.308,30.674,37.286z"/>
			<path fill="#FFCE31" d="M25.057,11.391L22.5,5l-2.555,6.391c0.83-0.149,1.682-0.24,2.555-0.24
				C23.375,11.15,24.227,11.241,25.057,11.391z"/>
			<path fill="#FFCE31" d="M19.945,39.609L22.5,46l2.557-6.391c-0.83,0.149-1.682,0.24-2.557,0.24
				C21.627,39.85,20.775,39.759,19.945,39.609z"/>
		</g>
		<circle fill="#FFCE31" cx="22.501" cy="25.5" r="12.983"/>
	</g>
	<g>
		<path fill="#FFFFFF" d="M17.195,57.096c-0.996,0-1.981-0.163-2.93-0.485c-3.826-1.29-6.398-4.923-6.398-9.038
			c0-2.748,1.166-5.361,3.199-7.173c0.525-0.47,1.096-0.874,1.705-1.21l-0.03-0.002l0.619-2.203c1.545-5.5,6.534-9.341,12.133-9.341
			c0.558,0,1.13,0.046,1.803,0.145c0.515,0.075,1.021,0.183,1.516,0.318l0.247-0.456c2.263-4.161,6.557-6.746,11.208-6.746
			c7.063,0,12.81,5.868,12.81,13.082c0,0.353-0.022,0.695-0.049,1.04l-0.021,0.256c0.545,0.212,1.076,0.47,1.59,0.773
			c3.415,2.01,5.537,5.752,5.537,9.764c0,5.284-3.521,9.8-8.563,10.981c-0.823,0.195-1.658,0.295-2.478,0.295H17.195z"/>
		<path fill="#75D6FF" d="M40.267,22.81c6.044,0,10.942,5.005,10.942,11.177c0,0.301-0.02,0.593-0.043,0.886
			c-2.529,0.197-4.828,1.228-6.635,2.827c1.345-0.788,2.898-1.246,4.561-1.246c0.615,0,1.215,0.063,1.796,0.182
			c0.993,0.201,1.925,0.569,2.774,1.069c2.749,1.619,4.604,4.642,4.604,8.115c0,4.447-3.04,8.17-7.114,9.125
			c-0.662,0.157-1.35,0.247-2.06,0.247h-0.001H17.195h-0.001c-0.817,0-1.603-0.139-2.339-0.389c-2.974-1.003-5.122-3.86-5.122-7.23
			c0-2.293,0.994-4.343,2.561-5.738c0.71-0.635,1.536-1.129,2.444-1.453c0.77-0.273,1.594-0.432,2.457-0.432
			c2.405,0,4.539,1.168,5.904,2.974l0.066-0.001c-1.584-2.978-4.545-5.077-8.011-5.414c1.289-4.591,5.427-7.96,10.338-7.96
			c0.524,0,1.034,0.052,1.538,0.126c0.997,0.146,1.949,0.426,2.838,0.83c3.311,1.509,5.729,4.669,6.266,8.454
			c0-0.021,0.002-0.045,0.002-0.064c0-4.313-2.166-8.106-5.445-10.319C32.559,25.14,36.145,22.81,40.267,22.81 M40.267,19
			c-5.034,0-9.703,2.642-12.389,6.951c-0.104-0.017-0.208-0.032-0.312-0.049c-0.77-0.111-1.426-0.163-2.073-0.163
			c-6.427,0-12.154,4.407-13.927,10.719l-0.423,1.503c-0.458,0.301-0.896,0.638-1.31,1.007C7.399,41.138,6,44.274,6,47.572
			c0,4.939,3.088,9.298,7.685,10.848c1.13,0.385,2.313,0.58,3.51,0.58h31.897c0.962,0,1.939-0.115,2.906-0.345
			C57.883,57.275,62,51.996,62,45.819c0-4.691-2.48-9.065-6.473-11.415c-0.193-0.113-0.388-0.222-0.585-0.324
			c0.001-0.031,0.001-0.062,0.001-0.094C54.943,25.724,48.359,19,40.267,19L40.267,19z"/>
	</g>
</g>
</svg>
