<?xml version="1.0" encoding="utf-8"?>
<!-- Generator: Adobe Illustrator 15.0.0, SVG Export Plug-In . SVG Version: 6.00 Build 0)  -->
<!DOCTYPE svg PUBLIC "-//W3C//DTD SVG 1.1//EN" "http://www.w3.org/Graphics/SVG/1.1/DTD/svg11.dtd">
<svg version="1.1" id="Layer_1" xmlns="http://www.w3.org/2000/svg" xmlns:xlink="http://www.w3.org/1999/xlink" x="0px" y="0px"
	 width="64px" height="64px" viewBox="0 0 64 64" enable-background="new 0 0 64 64" xml:space="preserve">
<g>
	<circle fill="#C28FEF" cx="32" cy="32" r="30"/>
	<g>
		<path fill="#FFFFFF" d="M32,54c-9.374,0-17-7.625-17-17V14h6v23c0,6.065,4.935,11,11,11s11-4.935,11-11V14h6v23
			C49,46.375,41.374,54,32,54z"/>
	</g>
	<path fill="#FFFFFF" d="M56,22c-2.643,4.134-6.084,5.956-8.371,7.249c-3.492,1.963-7.873-0.194-11.742-2.105
		c-1.168-0.572-2.271-1.117-3.309-1.521C21.719,21.39,13.488,25.076,8,30.515V38c3.612-4.834,12.137-10.252,22.55-6.195
		c0.803,0.313,1.796,0.802,2.848,1.32c3.979,1.965,9.228,4.553,14.503,3.025c0.847-0.244,1.694-0.595,2.537-1.071
		c2.04-1.151,4.012-2.097,5.563-4.546V22z"/>
</g>
</svg>
