<?xml version="1.0" encoding="utf-8"?>
<!-- Generator: Adobe Illustrator 15.0.0, SVG Export Plug-In . SVG Version: 6.00 Build 0)  -->
<!DOCTYPE svg PUBLIC "-//W3C//DTD SVG 1.1//EN" "http://www.w3.org/Graphics/SVG/1.1/DTD/svg11.dtd">
<svg version="1.1" id="Layer_1" xmlns="http://www.w3.org/2000/svg" xmlns:xlink="http://www.w3.org/1999/xlink" x="0px" y="0px"
	 width="64px" height="64px" viewBox="0 0 64 64" enable-background="new 0 0 64 64" xml:space="preserve">
<g>
	<g>
		<path fill-rule="evenodd" clip-rule="evenodd" fill="#89664C" d="M55.182,61.495c2.308,2.328,8.629-4.014,6.319-6.341
			L25.336,18.999l-6.331,6.33L55.182,61.495z"/>
		<path fill-rule="evenodd" clip-rule="evenodd" fill="#AD8366" d="M56.041,60.639c1.646,1.654,6.302-3.023,4.653-4.682
			L24.532,19.804l-4.669,4.667L56.041,60.639z"/>
	</g>
	<g>
		<path fill-rule="evenodd" clip-rule="evenodd" fill="#89664C" d="M8.31,14.636c-2.329-2.308,4.015-8.626,6.343-6.317l6.184,6.182
			l-6.331,6.329L8.31,14.636z"/>
		<path fill-rule="evenodd" clip-rule="evenodd" fill="#AD8366" d="M9.166,13.777c-1.655-1.647,3.025-6.302,4.684-4.653l6.183,6.18
			l-4.669,4.668L9.166,13.777z"/>
	</g>
	<path fill="#94989B" d="M20.888,20.883C32.085,9.693,45.229,3.527,54.764,4.074C45.738-1.24,29.6,3.897,16.751,16.742
		C3.898,29.588-1.242,45.723,4.075,54.747C3.53,45.214,9.696,32.071,20.888,20.883z"/>
	<path fill="#A6AEB2" d="M21.876,21.87C33.073,10.681,45.813,4.11,54.764,4.074C46.569-0.41,31.067,5.363,18.218,18.209
		C5.365,31.055-0.412,46.555,4.075,54.747C4.114,45.797,10.684,33.059,21.876,21.87z"/>
	<path fill="#5C6368" d="M27.723,14.973c0.88,0.876,0.878,2.312,0,3.185l-9.563,9.561c-0.877,0.875-2.309,0.876-3.184,0.001
		l-4.784-4.78c-0.874-0.877-0.874-2.311,0-3.187l9.562-9.559c0.88-0.878,2.313-0.878,3.188,0L27.723,14.973z"/>
	<path fill="#474D51" d="M26.337,15.867c0.789,0.786,0.842,2.019,0.121,2.736l-7.853,7.851c-0.72,0.718-1.95,0.662-2.735-0.121
		l-4.292-4.289c-0.784-0.787-0.839-2.019-0.121-2.738l7.852-7.848c0.722-0.721,1.953-0.667,2.738,0.121L26.337,15.867z"/>
</g>
</svg>
