<?xml version="1.0" encoding="utf-8"?>
<!-- Generator: Adobe Illustrator 15.0.0, SVG Export Plug-In . SVG Version: 6.00 Build 0)  -->
<!DOCTYPE svg PUBLIC "-//W3C//DTD SVG 1.1//EN" "http://www.w3.org/Graphics/SVG/1.1/DTD/svg11.dtd">
<svg version="1.1" id="Layer_1" xmlns="http://www.w3.org/2000/svg" xmlns:xlink="http://www.w3.org/1999/xlink" x="0px" y="0px"
	 width="64px" height="64px" viewBox="0 0 64 64" enable-background="new 0 0 64 64" xml:space="preserve">
<g>
	<g>
		<g>
			<path fill="#D0D0D0" d="M19.199,64v-5.285c0-2.677-2.123-4.856-4.73-4.856c-2.61,0.004-4.734,2.183-4.735,4.86l-0.002,5.279
				L5.003,64l0.001-5.281c-0.001-5.358,4.245-9.717,9.466-9.715c5.215-0.002,9.46,4.356,9.462,9.713v5.281L19.199,64z"/>
		</g>
		<g>
			<path fill="#D0D0D0" d="M23.934,27.143v9.717c0,5.355-4.246,9.714-9.464,9.716c-5.221,0-9.467-4.358-9.467-9.718L5,27.141
				c0.002-5.355,4.249-9.713,9.466-9.716C19.688,17.425,23.934,21.783,23.934,27.143z M9.735,36.857
				c-0.001,2.678,2.125,4.859,4.734,4.859c2.607,0,4.729-2.182,4.732-4.859l-0.002-9.715c0.003-2.678-2.123-4.858-4.732-4.856
				c-2.607,0-4.729,2.178-4.731,4.856V36.857z"/>
		</g>
		<g>
			<path fill="#D0D0D0" d="M23.933,0l-0.002,5.281c0,5.358-4.245,9.714-9.465,9.714C9.25,14.998,5.004,10.64,5.002,5.283V0h4.733
				l0.002,5.283c-0.002,2.678,2.122,4.858,4.731,4.856c2.608-0.002,4.73-2.18,4.732-4.856l0.001-5.281L23.933,0z"/>
		</g>
		<g>
			<g>
				<path fill="#94989B" d="M16.833,53.86c0.003-4.049,0-8.1,0.001-12.144c0-3.134-4.734-3.134-4.736-0.003
					c0.003,4.051,0.003,8.098,0.002,12.145C12.1,56.991,16.834,56.994,16.833,53.86L16.833,53.86z"/>
			</g>
		</g>
		<g>
			<g>
				<path fill="#94989B" d="M16.836,22.287c-0.003-4.051-0.002-8.098,0-12.145c0-3.133-4.735-3.135-4.735-0.004
					c0,4.049,0,8.1,0,12.144C12.103,25.417,16.836,25.417,16.836,22.287L16.836,22.287z"/>
			</g>
		</g>
	</g>
	<g>
		<g>
			<g>
				<path fill="#D0D0D0" d="M59,43.009v9.786c0,5.392-4.246,9.781-9.465,9.783c-5.221,0-9.467-4.39-9.467-9.785l-0.002-9.787
					c0.002-5.393,4.248-9.782,9.465-9.784C54.754,33.222,59,37.611,59,43.009z M44.802,52.793c-0.002,2.696,2.124,4.893,4.733,4.893
					c2.607,0,4.729-2.196,4.73-4.893l-0.002-9.784c0.005-2.697-2.121-4.894-4.73-4.891c-2.607,0-4.729,2.193-4.731,4.891V52.793z"/>
			</g>
			<g>
				<path fill="#D0D0D0" d="M58.998,11.208l-0.003,9.784c0,5.397-4.243,9.784-9.464,9.784c-5.217,0.002-9.461-4.387-9.463-9.782
					v-9.786c0-5.396,4.246-9.786,9.465-9.784C54.754,1.426,59.002,5.815,58.998,11.208z M44.804,20.994
					c-0.002,2.697,2.122,4.893,4.731,4.891c2.607-0.002,4.729-2.196,4.73-4.891l0.003-9.783c-0.005-2.702-2.124-4.894-4.733-4.894
					c-2.613-0.002-4.735,2.191-4.733,4.891L44.804,20.994z"/>
			</g>
			<g>
				<g>
					<path fill="#94989B" d="M51.902,38.118c-0.005-4.081-0.002-8.156,0-12.232c0-3.155-4.735-3.157-4.735-0.004
						c0,4.078,0,8.158,0,12.231C47.169,41.271,51.902,41.271,51.902,38.118L51.902,38.118z"/>
				</g>
			</g>
		</g>
		<g>
			<g>
				<g>
					<path fill="#94989B" d="M51.9,64c0,0,0-2.575,0-6.647c0-3.155-4.733-3.155-4.735-0.004c0.004,4.08,0.002,6.649,0.002,6.649
						L51.9,64L51.9,64z"/>
				</g>
			</g>
			<g>
				<g>
					<path fill="#94989B" d="M47.167,0c0,0,0,2.575-0.002,6.648c0,3.155,4.732,3.155,4.735,0.003
						c-0.003-4.08-0.003-6.649-0.003-6.649L47.167,0L47.167,0z"/>
				</g>
			</g>
		</g>
	</g>
</g>
</svg>
