<?xml version="1.0" encoding="utf-8"?>
<!-- Generator: Adobe Illustrator 15.0.0, SVG Export Plug-In . SVG Version: 6.00 Build 0)  -->
<!DOCTYPE svg PUBLIC "-//W3C//DTD SVG 1.1//EN" "http://www.w3.org/Graphics/SVG/1.1/DTD/svg11.dtd">
<svg version="1.1" id="Layer_1" xmlns="http://www.w3.org/2000/svg" xmlns:xlink="http://www.w3.org/1999/xlink" x="0px" y="0px"
	 width="64px" height="64px" viewBox="0 0 64 64" enable-background="new 0 0 64 64" xml:space="preserve">
<path fill="#62727A" d="M63,62H1c-0.549,0-1,0.45-1,1l0,0c0,0.55,0.451,1,1,1h62c0.551,0,1-0.45,1-1l0,0C64,62.45,63.551,62,63,62z"
	/>
<polygon fill="#D0D0D0" points="60,62 4,62 4,44 32,32 60,44 "/>
<path fill="#89664C" d="M21.373,34.143L1.174,42.394c-0.967,0.395-1.43,1.497-1.029,2.45c0.4,0.952,1.518,1.408,2.484,1.014
	l20.199-8.251c0.965-0.395,1.428-1.497,1.027-2.45C23.457,34.204,22.338,33.747,21.373,34.143z"/>
<path fill="#89664C" d="M42.629,34.143l20.199,8.251c0.965,0.395,1.428,1.497,1.027,2.45c-0.398,0.952-1.518,1.408-2.482,1.014
	l-20.199-8.251c-0.967-0.395-1.43-1.497-1.029-2.45C40.545,34.204,41.662,33.747,42.629,34.143z"/>
<polygon fill="#E8E8E8" points="44,62 20,62 20,26 32,21 44,26 "/>
<polygon fill="#FFCE31" points="38.666,5 33.666,5 33.666,0 30.334,0 30.334,5 25.334,5 25.334,8.333 30.334,8.333 30.334,20 
	33.666,20 33.666,8.333 38.666,8.333 "/>
<rect x="20" y="63" fill="#E8E8E8" width="24" height="1"/>
<rect x="20" y="62" fill="#D0D0D0" width="24" height="1"/>
<path fill="#89664C" d="M47.828,25.42L32,19l-15.828,6.42c-0.965,0.391-1.428,1.486-1.027,2.432
	c0.398,0.946,1.518,1.399,2.484,1.008L32,23.029l14.373,5.83c0.965,0.392,2.084-0.062,2.482-1.008
	C49.256,26.906,48.793,25.811,47.828,25.42z"/>
<g>
	<g>
		<path fill="#42ADE2" d="M30.676,29.822c-0.084-0.567-0.609-0.926-1.168-0.796c0,0-0.137,0.032-0.701,0.265
			c-0.563,0.234-0.682,0.309-0.682,0.309c-0.486,0.303-0.605,0.928-0.264,1.389l3.119,4.21c0.342,0.461,0.553,0.374,0.467-0.193
			L30.676,29.822z"/>
	</g>
	<g>
		<path fill="#C28FEF" d="M25.992,32.862c-0.461-0.341-1.063-0.208-1.336,0.296l-0.566,1.365c-0.162,0.55,0.168,1.068,0.736,1.153
			l5.18,0.771c0.566,0.085,0.654-0.125,0.193-0.467L25.992,32.862z"/>
	</g>
	<g>
		<path fill="#ED4C5C" d="M24.822,38.324c-0.566,0.084-0.926,0.609-0.795,1.168c0,0,0.031,0.137,0.264,0.701
			c0.234,0.563,0.309,0.682,0.309,0.682c0.303,0.486,0.928,0.605,1.389,0.264l4.211-3.119c0.461-0.341,0.373-0.552-0.193-0.467
			L24.822,38.324z"/>
	</g>
	<g>
		<path fill="#FF8736" d="M27.863,43.008c-0.342,0.462-0.209,1.063,0.295,1.337l1.365,0.565c0.551,0.162,1.068-0.168,1.154-0.736
			l0.77-5.18c0.086-0.566-0.125-0.654-0.467-0.193L27.863,43.008z"/>
	</g>
	<g>
		<path fill="#42ADE2" d="M33.324,44.178c0.084,0.566,0.609,0.925,1.17,0.795c0,0,0.135-0.031,0.699-0.264
			c0.564-0.234,0.682-0.309,0.682-0.309c0.488-0.303,0.605-0.928,0.264-1.389l-3.119-4.211c-0.34-0.461-0.551-0.373-0.467,0.194
			L33.324,44.178z"/>
	</g>
	<g>
		<path fill="#C28FEF" d="M38.008,41.137c0.463,0.342,1.063,0.209,1.338-0.295l0.564-1.365c0.164-0.551-0.168-1.068-0.736-1.153
			l-5.178-0.771c-0.568-0.085-0.656,0.125-0.193,0.467L38.008,41.137z"/>
	</g>
	<g>
		<path fill="#ED4C5C" d="M39.178,35.676c0.566-0.084,0.926-0.609,0.797-1.169c0,0-0.033-0.136-0.266-0.7
			c-0.234-0.563-0.309-0.682-0.309-0.682c-0.303-0.487-0.928-0.605-1.389-0.264l-4.209,3.119c-0.463,0.341-0.375,0.552,0.193,0.467
			L39.178,35.676z"/>
	</g>
	<g>
		<path fill="#FF8736" d="M36.139,30.992c0.34-0.462,0.207-1.063-0.297-1.337l-1.365-0.565c-0.549-0.163-1.068,0.168-1.152,0.736
			l-0.771,5.179c-0.084,0.567,0.125,0.655,0.467,0.193L36.139,30.992z"/>
	</g>
</g>
<path fill="#D3976E" d="M32,47c-3.314,0-6,2.687-6,6v9h12v-9C38,49.687,35.314,47,32,47z"/>
<path fill="#D6EEF0" d="M28,56h8v-3c0-2.205-1.795-4-4-4s-4,1.795-4,4V56z"/>
<g>
	<g>
		<path fill="#62727A" d="M11.174,49.514c-0.055-0.354-0.381-0.578-0.731-0.497c0,0-0.085,0.02-0.437,0.165
			c-0.354,0.146-0.428,0.192-0.428,0.192c-0.305,0.19-0.378,0.58-0.164,0.868l1.949,2.632c0.213,0.288,0.346,0.234,0.293-0.122
			L11.174,49.514z"/>
	</g>
	<g>
		<path fill="#62727A" d="M8.245,51.414C7.957,51.199,7.581,51.283,7.41,51.6l-0.354,0.852c-0.102,0.345,0.105,0.668,0.459,0.721
			l3.238,0.482c0.355,0.054,0.41-0.078,0.121-0.292L8.245,51.414z"/>
	</g>
	<g>
		<path fill="#62727A" d="M7.516,54.827c-0.355,0.054-0.58,0.381-0.498,0.731c0,0,0.02,0.084,0.165,0.436
			c0.146,0.354,0.192,0.428,0.192,0.428c0.189,0.305,0.58,0.379,0.869,0.164l2.631-1.949c0.289-0.213,0.234-0.345-0.121-0.292
			L7.516,54.827z"/>
	</g>
	<g>
		<path fill="#62727A" d="M9.415,57.756C9.201,58.044,9.283,58.42,9.6,58.591l0.853,0.353c0.345,0.102,0.668-0.105,0.722-0.459
			l0.482-3.237c0.053-0.356-0.079-0.41-0.293-0.122L9.415,57.756z"/>
	</g>
	<g>
		<path fill="#62727A" d="M12.828,58.485c0.054,0.354,0.381,0.579,0.73,0.497c0,0,0.085-0.02,0.438-0.165
			c0.352-0.146,0.426-0.192,0.426-0.192c0.305-0.189,0.379-0.58,0.164-0.868l-1.947-2.632c-0.215-0.288-0.346-0.233-0.293,0.122
			L12.828,58.485z"/>
	</g>
	<g>
		<path fill="#62727A" d="M15.756,56.586c0.289,0.214,0.664,0.131,0.836-0.186l0.354-0.852c0.102-0.346-0.107-0.668-0.461-0.722
			l-3.236-0.482c-0.355-0.053-0.41,0.079-0.121,0.292L15.756,56.586z"/>
	</g>
	<g>
		<path fill="#62727A" d="M16.486,53.172c0.355-0.053,0.578-0.381,0.498-0.73c0,0-0.02-0.085-0.166-0.437
			c-0.146-0.353-0.191-0.427-0.191-0.427c-0.189-0.305-0.58-0.379-0.869-0.164l-2.631,1.948c-0.289,0.214-0.234,0.346,0.121,0.293
			L16.486,53.172z"/>
	</g>
	<g>
		<path fill="#62727A" d="M14.586,50.244c0.215-0.288,0.131-0.664-0.186-0.835l-0.852-0.354c-0.345-0.102-0.668,0.106-0.721,0.46
			l-0.482,3.236c-0.053,0.356,0.078,0.41,0.293,0.122L14.586,50.244z"/>
	</g>
</g>
<g>
	<g>
		<path fill="#62727A" d="M51.174,49.514c-0.055-0.354-0.381-0.578-0.732-0.497c0,0-0.084,0.02-0.436,0.165
			c-0.354,0.146-0.428,0.192-0.428,0.192c-0.305,0.19-0.379,0.58-0.164,0.868l1.949,2.632c0.213,0.288,0.346,0.234,0.293-0.122
			L51.174,49.514z"/>
	</g>
	<g>
		<path fill="#62727A" d="M48.244,51.414c-0.287-0.215-0.664-0.131-0.834,0.186l-0.354,0.852c-0.102,0.345,0.105,0.668,0.459,0.721
			l3.238,0.482c0.355,0.054,0.41-0.078,0.121-0.292L48.244,51.414z"/>
	</g>
	<g>
		<path fill="#62727A" d="M47.516,54.827c-0.355,0.054-0.58,0.381-0.498,0.731c0,0,0.02,0.084,0.164,0.436
			c0.146,0.354,0.193,0.428,0.193,0.428c0.189,0.305,0.58,0.379,0.869,0.164l2.631-1.949c0.289-0.213,0.234-0.345-0.121-0.292
			L47.516,54.827z"/>
	</g>
	<g>
		<path fill="#62727A" d="M49.414,57.756c-0.213,0.288-0.131,0.664,0.186,0.835l0.852,0.353c0.346,0.102,0.668-0.105,0.723-0.459
			l0.482-3.237c0.053-0.356-0.08-0.41-0.293-0.122L49.414,57.756z"/>
	</g>
	<g>
		<path fill="#62727A" d="M52.828,58.485c0.053,0.354,0.381,0.579,0.73,0.497c0,0,0.084-0.02,0.438-0.165
			c0.352-0.146,0.426-0.192,0.426-0.192c0.305-0.189,0.379-0.58,0.164-0.868l-1.947-2.632c-0.215-0.288-0.346-0.233-0.293,0.122
			L52.828,58.485z"/>
	</g>
	<g>
		<path fill="#62727A" d="M55.756,56.586c0.289,0.214,0.664,0.131,0.836-0.186l0.354-0.852c0.102-0.346-0.107-0.668-0.461-0.722
			l-3.236-0.482c-0.355-0.053-0.41,0.079-0.121,0.292L55.756,56.586z"/>
	</g>
	<g>
		<path fill="#62727A" d="M56.486,53.172c0.355-0.053,0.578-0.381,0.498-0.73c0,0-0.02-0.085-0.166-0.437
			c-0.146-0.353-0.191-0.427-0.191-0.427c-0.189-0.305-0.58-0.379-0.869-0.164l-2.631,1.948c-0.289,0.214-0.234,0.346,0.121,0.293
			L56.486,53.172z"/>
	</g>
	<g>
		<path fill="#62727A" d="M54.586,50.244c0.215-0.288,0.131-0.664-0.186-0.835l-0.852-0.354c-0.346-0.102-0.668,0.106-0.721,0.46
			l-0.482,3.236c-0.053,0.356,0.078,0.41,0.293,0.122L54.586,50.244z"/>
	</g>
</g>
<rect x="31" y="48" fill="#D3976E" width="2" height="14"/>
<rect x="26" y="55" fill="#D3976E" width="12" height="7"/>
<rect x="28" y="57.334" fill="#89664C" width="3" height="3"/>
<rect x="33" y="57.334" fill="#89664C" width="3" height="3"/>
</svg>
