<?xml version="1.0" encoding="utf-8"?>
<!-- Generator: Adobe Illustrator 15.0.0, SVG Export Plug-In . SVG Version: 6.00 Build 0)  -->
<!DOCTYPE svg PUBLIC "-//W3C//DTD SVG 1.1//EN" "http://www.w3.org/Graphics/SVG/1.1/DTD/svg11.dtd">
<svg version="1.1" id="Layer_1" xmlns="http://www.w3.org/2000/svg" xmlns:xlink="http://www.w3.org/1999/xlink" x="0px" y="0px"
	 width="64px" height="64px" viewBox="0 0 64 64" enable-background="new 0 0 64 64" xml:space="preserve">
<g>
	<rect y="46.972" fill="#42ADE2" width="64" height="17.028"/>
	<path fill="#2B95BF" d="M0,52.427c0,0,3.642,0.09,7.51,1.577c3.52,1.355,9.509,3.61,12.466,3.644
		c0.678,0.008,2.367-0.545,2.367-0.545s9.147,2.596,12.592,2.415c0.883-0.047,2.745-0.937,2.745-0.937s1.09,0.054,1.42,0
		c1.065-0.172,2.329-1.07,3.349-1.285c0.873-0.184,3.014-0.1,3.847-0.312c0.89-0.227,2.557-1.364,2.557-1.364
		s2.438-0.03,3.219-0.116c0.757-0.084,2.841-0.546,2.841-0.546s2.611,0.287,3.502,0.273C59.86,55.208,64,54.609,64,54.609v-7.638H0
		V52.427z"/>
	<path fill="#77994F" d="M0,28.302c0,0,3.642-0.31,7.51-5.401c3.52-4.635,9.509-12.356,12.466-12.47
		c0.678-0.025,2.367,1.868,2.367,1.868s9.147-8.892,12.592-8.268c0.883,0.158,2.745,3.198,2.745,3.198s1.09-0.182,1.42,0
		c1.065,0.593,2.329,3.666,3.349,4.402c0.873,0.627,3.014,0.342,3.847,1.067c0.89,0.774,2.557,4.668,2.557,4.668
		s2.438,0.103,3.219,0.398c0.757,0.286,2.841,1.867,2.841,1.867s2.611-0.982,3.502-0.932C59.86,18.778,64,20.832,64,20.832v26.14H0
		V28.302z"/>
	<g>
		<path fill="#8BCE4A" d="M56.285,32.419l-7.433-15.052C51.029,22.612,49.941,31.215,56.285,32.419z"/>
		<path fill="#8BCE4A" d="M54.912,19.633c0,0,0.898,5.852,5.573,7.468L54.912,19.633z"/>
	</g>
	<polygon fill="#8BCE4A" points="18.935,46.972 16.047,36.371 19.74,37.903 16.757,30.302 21.396,30.302 18.982,22.367 
		21.964,21.232 24,17.367 22.343,12.299 28.261,24.034 37.35,35.836 44.639,42.77 52.071,44.703 56.285,46.972 	"/>
	<polygon fill="#8BCE4A" points="37.681,7.229 38.627,14.968 41.089,19.966 39.385,19.966 45.018,27.833 41.35,26.234 
		44.166,34.571 49.799,38.771 47.669,40.369 54.012,43.671 57.941,46.972 64,46.972 64,44.237 57.255,40.837 55.717,39.171 
		54.485,40.369 48.853,30.693 43.314,17.833 41.041,14.297 	"/>
	<polygon fill="#DBF763" points="42.225,46.972 0,46.972 0,40.369 	"/>
	<polygon fill="#1D8299" points="42.225,46.972 0,46.972 0,50.148 	"/>
	<g>
		<path fill="#B4D7EE" d="M4.958,48.923c1.659-0.316,3.126,0.869,4.819,0.035c1.878-0.876,3.217,0.36,5.012,0.702
			c-1.659,0.32-3.126-0.868-4.82-0.035C8.09,50.495,6.756,49.266,4.958,48.923C5.376,48.843,5.377,49.003,4.958,48.923z"/>
		<path fill="#B4D7EE" d="M52.568,52.845c1.66-0.316,3.127,0.868,4.82,0.034c1.877-0.875,3.217,0.361,5.012,0.702
			c-1.659,0.321-3.127-0.867-4.82-0.034C55.7,54.416,54.366,53.187,52.568,52.845C52.986,52.764,52.987,52.924,52.568,52.845z"/>
		<path fill="#B4D7EE" d="M15.263,52.809c1.616-0.333,2.914,0.446,4.476,0.637c1.801,0.22,3.236-0.358,4.934-0.944
			c3.106-1.068,5.372,1.027,8.296,1.633c-1.616,0.34-2.914-0.444-4.477-0.633c-1.801-0.218-3.235,0.352-4.933,0.938
			C20.451,55.512,18.189,53.41,15.263,52.809C16.016,52.653,16.018,52.966,15.263,52.809z"/>
		<path fill="#B4D7EE" d="M34.863,57.3c1.615-0.333,2.913,0.447,4.476,0.637c1.802,0.22,3.235-0.358,4.934-0.943
			c3.106-1.069,5.372,1.026,8.296,1.633c-1.616,0.339-2.914-0.445-4.477-0.634c-1.801-0.218-3.235,0.353-4.933,0.938
			C40.051,60.003,37.789,57.902,34.863,57.3C35.615,57.145,35.617,57.458,34.863,57.3z"/>
		<path fill="#B4D7EE" d="M38.64,48.765c2.443-0.327,4.458,1.406,6.943,0.193c2.65-1.242,4.577,0.52,7.136,0.858
			c-2.443,0.332-4.459-1.399-6.943-0.191C43.121,50.861,41.201,49.103,38.64,48.765C39.238,48.686,39.238,48.844,38.64,48.765z"/>
		<path fill="#B4D7EE" d="M48.135,61.094c2.443-0.327,4.459,1.406,6.943,0.193c2.65-1.242,4.577,0.52,7.136,0.858
			c-2.442,0.332-4.458-1.399-6.943-0.191C52.616,63.19,50.697,61.433,48.135,61.094C48.734,61.015,48.734,61.173,48.135,61.094z"/>
		<path fill="#B4D7EE" d="M3.6,60.324c2.443-0.326,4.458,1.406,6.943,0.193c2.65-1.242,4.577,0.521,7.135,0.858
			c-2.443,0.332-4.458-1.398-6.943-0.191C8.081,62.421,6.162,60.663,3.6,60.324C4.198,60.245,4.199,60.403,3.6,60.324z"/>
	</g>
</g>
</svg>
