<?xml version="1.0" encoding="utf-8"?>
<!-- Generator: Adobe Illustrator 15.0.0, SVG Export Plug-In . SVG Version: 6.00 Build 0)  -->
<!DOCTYPE svg PUBLIC "-//W3C//DTD SVG 1.1//EN" "http://www.w3.org/Graphics/SVG/1.1/DTD/svg11.dtd">
<svg version="1.1" id="Layer_1" xmlns="http://www.w3.org/2000/svg" xmlns:xlink="http://www.w3.org/1999/xlink" x="0px" y="0px"
	 width="64px" height="64px" viewBox="0 0 64 64" enable-background="new 0 0 64 64" xml:space="preserve">
<g>
	<rect y="48.609" fill="#83BF4F" width="64" height="15.391"/>
	<g>
		<path fill="#D0D0D0" d="M32,55.801c-14.739,0-26.688-1.938-26.688-4.332v5.199C5.313,59.063,17.261,61,32,61
			s26.688-1.938,26.688-4.332v-5.199C58.688,53.863,46.739,55.801,32,55.801z"/>
		<ellipse fill="#E8E8E8" cx="32" cy="45.75" rx="30.5" ry="4.766"/>
		<ellipse fill="#42ADE2" cx="32" cy="45.75" rx="25.734" ry="2.859"/>
		<path fill="#E8E8E8" d="M35.813,42.891c-1.569-1.461-1.668-6.314-1.668-6.314H32h-2.145c0,0-0.099,4.854-1.668,6.314
			c-0.872,0.812-3.261,1.804-3.813,2.859c-0.244,0.467,3.414,0.953,7.625,0.953s7.868-0.486,7.625-0.953
			C39.073,44.694,36.685,43.702,35.813,42.891z"/>
		<path fill="#D0D0D0" d="M32,36.576h-2.145c0,0-0.036,1.658-0.378,3.328c0.798,0.082,1.645,0.127,2.522,0.127
			s1.725-0.045,2.522-0.127c-0.342-1.67-0.378-3.328-0.378-3.328H32z"/>
		<path fill="#E8E8E8" d="M36.766,37.172c-1.497,1.854-7.847,1.685-9.531,0c-1.011-1.011-0.953-5.719-0.953-5.719h11.438
			C37.719,31.453,37.664,36.061,36.766,37.172z"/>
		<path fill="#D0D0D0" d="M44.709,31.274c-3.995,2.507-20.924,2.278-25.417,0c-2.695-1.368-2.541-7.735-2.541-7.735h30.498
			C47.249,23.539,47.105,29.771,44.709,31.274z"/>
		<ellipse fill="#E8E8E8" cx="32" cy="23.828" rx="15.25" ry="1.906"/>
		<ellipse fill="#42ADE2" cx="32" cy="23.828" rx="13.344" ry="0.953"/>
		<path fill="#94989B" d="M58.688,53.33C53.94,54.792,43.776,55.801,32,55.801S10.06,54.792,5.313,53.33v2.34
			C10.06,57.132,20.224,58.141,32,58.141s21.94-1.009,26.688-2.471V53.33z"/>
		<path fill="#D0D0D0" d="M32,50.516c-16.845,0-30.5-2.133-30.5-4.766v5.719c0,2.633,13.655,4.766,30.5,4.766s30.5-2.133,30.5-4.766
			V45.75C62.5,48.383,48.845,50.516,32,50.516z"/>
		<path fill="#B4D7EE" d="M32,23.828c0,0-2.522-13.712-5.719-13.691C22.758,10.161,30.888,17.277,32,23.828z"/>
		<path fill="#D6EEF0" d="M31.384,22.774c0,0-10.273-17.854-13.427-13.429C16.75,11.04,26.637,15.227,31.384,22.774z"/>
		<path fill="#B4D7EE" d="M33.569,23.508c0,0,3.619-10.981,8.915-9.925C44.47,13.979,35.456,19.327,33.569,23.508z"/>
		<path fill="#D6EEF0" d="M34.859,23.508c0,0,5.512-8.413,11.438-8.413c5.878,0,3.336,3.261,0,3.261
			C42.958,18.355,38.513,19.327,34.859,23.508z"/>
		<path fill="#D6EEF0" d="M31.837,17.277c0,0-0.384-12.378-4.457-13.256C23.639,3.214,31.907,10.983,31.837,17.277z"/>
		<path fill="#B4D7EE" d="M32,24.305C32,24.305,31.999,0,35.634,0C38.217,0,32.636,15.009,32,24.305z"/>
		<path fill="#B4D7EE" d="M21.516,24.389c0,0-7.625-6.035-7.625,21.507c0,0,0.518,0.808,3.384,0.808
			C17.275,46.703,17.154,25.248,21.516,24.389z"/>
		<path fill="#B4D7EE" d="M42.484,24.389c0,0,7.625-6.035,7.625,21.507c0,0-0.519,0.808-3.384,0.808
			C46.726,46.703,46.847,25.248,42.484,24.389z"/>
		<path fill="#B4D7EE" d="M30.753,23.508c0,0-5.512-8.413-11.438-8.413c-5.877,0-3.336,3.261,0,3.261
			C22.653,18.355,27.099,19.327,30.753,23.508z"/>
		<path fill="#D6EEF0" d="M32.069,24.15c0,0,5.854-19.75,9.947-16.176C43.583,9.344,34.937,15.708,32.069,24.15z"/>
	</g>
</g>
</svg>
