<?xml version="1.0" encoding="utf-8"?>
<!-- Generator: Adobe Illustrator 15.0.0, SVG Export Plug-In . SVG Version: 6.00 Build 0)  -->
<!DOCTYPE svg PUBLIC "-//W3C//DTD SVG 1.1//EN" "http://www.w3.org/Graphics/SVG/1.1/DTD/svg11.dtd">
<svg version="1.1" id="Layer_1" xmlns="http://www.w3.org/2000/svg" xmlns:xlink="http://www.w3.org/1999/xlink" x="0px" y="0px"
	 width="64px" height="64px" viewBox="0 0 64 64" enable-background="new 0 0 64 64" xml:space="preserve">
<g>
	<ellipse fill="#97B113" cx="32" cy="49.721" rx="30" ry="12.279"/>
	<g>
		<path opacity="0.3" fill="#1E1E1E" d="M28,47c0,0,3-6.553,5.644-9.559l-0.909,0.004c0,0-4.725,5.709-6.709,9.318L28,47z"/>
		<g>
			<ellipse fill="#C7C7C7" cx="26.625" cy="50.336" rx="8.729" ry="3.665"/>
			<path fill="#3D2905" d="M26.625,48.244c4.176,0,7.662,1.232,8.521,2.879c0.133-0.254,0.207-0.517,0.207-0.787
				c0-2.024-3.908-3.666-8.729-3.666s-8.729,1.642-8.729,3.666c0,0.271,0.074,0.533,0.206,0.787
				C18.961,49.477,22.447,48.244,26.625,48.244z"/>
			<path fill="#ED4C5C" d="M44.982,9.292C44.08,8.825,29.174,1.123,27,0v20.729c2.172-1.122,17.072-8.82,17.982-9.292l0,0
				C45.723,11.056,45.723,9.673,44.982,9.292z"/>
			<path opacity="0.5" fill="#1E1E1E" d="M28,53.923c0,0-0.898,0.077-2.439,0.077v-7.237H28V53.923z"/>
			<g>
				<rect x="25" fill="#D3976E" width="2" height="54.001"/>
			</g>
			<rect x="25" y="52.169" fill="#89664C" width="2" height="1.832"/>
		</g>
	</g>
</g>
</svg>
