<?xml version="1.0" encoding="utf-8"?>
<!-- Generator: Adobe Illustrator 15.0.0, SVG Export Plug-In . SVG Version: 6.00 Build 0)  -->
<!DOCTYPE svg PUBLIC "-//W3C//DTD SVG 1.1//EN" "http://www.w3.org/Graphics/SVG/1.1/DTD/svg11.dtd">
<svg version="1.1" id="Layer_1" xmlns="http://www.w3.org/2000/svg" xmlns:xlink="http://www.w3.org/1999/xlink" x="0px" y="0px"
	 width="64px" height="64px" viewBox="0 0 64 64" enable-background="new 0 0 64 64" xml:space="preserve">
<g>
	<g>
		<rect y="50" fill="#3DD0E0" width="64" height="14"/>
		<g>
			<path fill="#B4E7ED" d="M4.279,54.351c1.658-0.281,3.125,0.771,4.818,0.031c1.879-0.777,3.217,0.319,5.013,0.623
				c-1.659,0.284-3.126-0.771-4.819-0.031C7.41,55.745,6.076,54.654,4.279,54.351C4.697,54.279,4.697,54.422,4.279,54.351z"/>
			<path fill="#B4E7ED" d="M49.889,57.831c1.66-0.281,3.127,0.771,4.82,0.03c1.877-0.776,3.217,0.32,5.012,0.623
				c-1.659,0.285-3.127-0.77-4.82-0.03C53.021,59.226,51.687,58.135,49.889,57.831C50.307,57.76,50.308,57.901,49.889,57.831z"/>
			<path fill="#B4E7ED" d="M14.584,58.293c1.615-0.295,2.913,0.396,4.476,0.565c1.802,0.195,3.235-0.318,4.934-0.838
				c3.106-0.948,5.372,0.911,8.296,1.449c-1.616,0.301-2.914-0.395-4.477-0.563c-1.801-0.193-3.235,0.313-4.933,0.833
				C19.771,60.692,17.51,58.827,14.584,58.293C15.336,58.155,15.338,58.434,14.584,58.293z"/>
			<path fill="#B4E7ED" d="M37.96,54.21c2.443-0.29,4.458,1.248,6.943,0.172c2.65-1.103,4.577,0.461,7.136,0.762
				c-2.443,0.294-4.459-1.242-6.943-0.17C42.441,56.071,40.521,54.51,37.96,54.21C38.559,54.14,38.559,54.28,37.96,54.21z"/>
		</g>
	</g>
	<polygon fill="#428BC1" points="61.895,52 5.245,52 0,42 64,42 	"/>
	<polygon fill="#B9C1C6" points="61,32 13.113,32 7,42 61,42 	"/>
	<rect x="52.978" y="34" fill="#3E4347" width="6" height="6"/>
	<rect x="44.977" y="34" fill="#3E4347" width="6" height="6"/>
	<rect x="36.976" y="34" fill="#3E4347" width="6" height="6"/>
	<rect x="28.975" y="34" fill="#3E4347" width="6" height="6"/>
	<rect x="20.974" y="34" fill="#3E4347" width="6" height="6"/>
	<polygon fill="#3E4347" points="18.973,40 11.973,40 14.973,34 18.973,34 	"/>
	<rect x="10" y="26" fill="#DCE1E5" width="54" height="6"/>
	<rect x="12" y="12" fill="#DCE1E5" width="38" height="4"/>
	<rect x="14" y="16" fill="#B9C1C6" width="34" height="10"/>
	<g>
		<g>
			<rect x="2" y="38" fill="#778389" width="1" height="4"/>
			<rect x="5" y="38" fill="#778389" width="1" height="4"/>
			<rect x="8" y="38" fill="#778389" width="1" height="4"/>
			<rect x="11" y="38" fill="#778389" width="1" height="4"/>
			<rect x="14" y="38" fill="#778389" width="1" height="4"/>
			<rect x="17" y="38" fill="#778389" width="1" height="4"/>
		</g>
		<rect y="37.001" fill="#8F989E" width="18.002" height="1"/>
	</g>
	<g>
		<g>
			<rect x="61" y="21.999" fill="#778389" width="1" height="4"/>
			<rect x="58" y="21.999" fill="#778389" width="1" height="4"/>
			<rect x="55" y="21.999" fill="#778389" width="1" height="4"/>
			<rect x="52" y="21.999" fill="#778389" width="1" height="4"/>
			<rect x="49" y="21.999" fill="#778389" width="1" height="4"/>
			<rect x="46" y="21.999" fill="#778389" width="1" height="4"/>
		</g>
		<rect x="45.998" y="21" fill="#8F989E" width="18.002" height="1"/>
	</g>
	<g>
		<g>
			<rect x="52.998" y="38" fill="#778389" width="1" height="4"/>
			<rect x="55.998" y="38" fill="#778389" width="1" height="4"/>
			<rect x="58.998" y="38" fill="#778389" width="1" height="4"/>
			<rect x="61.998" y="38" fill="#778389" width="1" height="4"/>
		</g>
		<rect x="52.998" y="37.001" fill="#8F989E" width="11.002" height="1"/>
	</g>
	<rect x="16" y="18" fill="#3E4347" width="6" height="6"/>
	<rect x="24" y="18" fill="#3E4347" width="6" height="6"/>
	<rect x="32" y="18" fill="#3E4347" width="6" height="6"/>
	<rect x="40" y="18" fill="#3E4347" width="6" height="6"/>
	<rect x="40" y="4" fill="#8F989E" width="2" height="8"/>
	<rect x="44" y="6" fill="#8F989E" width="2" height="6"/>
</g>
</svg>
