<?xml version="1.0" encoding="utf-8"?>
<!-- Generator: Adobe Illustrator 15.0.0, SVG Export Plug-In . SVG Version: 6.00 Build 0)  -->
<!DOCTYPE svg PUBLIC "-//W3C//DTD SVG 1.1//EN" "http://www.w3.org/Graphics/SVG/1.1/DTD/svg11.dtd">
<svg version="1.1" id="Layer_1" xmlns="http://www.w3.org/2000/svg" xmlns:xlink="http://www.w3.org/1999/xlink" x="0px" y="0px"
	 width="64px" height="64px" viewBox="0 0 64 64" enable-background="new 0 0 64 64" xml:space="preserve">
<g>
	<g>
		<g>
			<rect y="48" fill="#42ADE2" width="64" height="16"/>
			<rect x="31.5" y="2" fill="#3E4347" width="1" height="10"/>
			<path fill="#3E4347" d="M57,59H16.002L14,57C14,57,30.666,53.834,57,59z"/>
			<path fill="#89664C" d="M33,47c0,0.551-0.449,1-1,1l0,0c-0.549,0-1-0.449-1-1V9c0-0.55,0.451-1,1-1l0,0c0.551,0,1,0.45,1,1V47z"
				/>
			<path fill="#DAE3EA" d="M54,52c0,0-4.6-1.557-10-3c-3.404-0.91-7.682-1.727-9.572-2.236c-0.529-0.145-1.307-0.555-1.725-0.912
				l-1.408-1.203C30.875,44.293,30.084,44,29.533,44h-8.094c-0.549,0-1.318,0.318-1.709,0.705l-1.188,1.184
				c-0.389,0.389-1.158,0.705-1.709,0.705H12c-0.549,0-0.893,0.438-0.76,0.971l1.959,7.965c0.131,0.533,0.689,0.971,1.238,0.971H54
				l1-2.5L54,52z"/>
			<path fill="#C5D0D8" d="M7,46.5c0,0,1.834,4.5,7,10.5c0,0,29.578,2,43,2l-2-5C55,54,32,46.5,7,46.5z"/>
			<path fill="#3E4347" d="M29.5,46.5c0,0.275-0.225,0.5-0.5,0.5h-1c-0.275,0-0.5-0.225-0.5-0.5v-1c0-0.275,0.225-0.5,0.5-0.5h1
				c0.275,0,0.5,0.225,0.5,0.5V46.5z"/>
			<path fill="#3E4347" d="M25.5,46.5c0,0.275-0.225,0.5-0.5,0.5h-3c-0.275,0-0.5-0.225-0.5-0.5v-1c0-0.275,0.225-0.5,0.5-0.5h3
				c0.275,0,0.5,0.225,0.5,0.5V46.5z"/>
			<path fill="#89664C" d="M11.963,41.338c-0.604,0.521-1.391,1.234-2.139,1.986c-0.752,0.748-1.465,1.535-1.986,2.139
				C7.318,46.068,7,46.5,7,46.5s0.432-0.318,1.037-0.838s1.393-1.232,2.141-1.984c0.752-0.748,1.463-1.537,1.984-2.141
				C12.682,40.932,13,40.5,13,40.5S12.568,40.818,11.963,41.338z"/>
			<path fill="#F9F3D9" d="M31,9c0,0-14,21.75-21,34.5c0,0,9.539-2.496,21-2.496V9z"/>
			<polygon fill="#FF9D27" points="33,9 33,41 47,44 			"/>
			<g>
				<path fill="#F15744" d="M42.777,54H41c0-2.205,1.795-4,4-4v1.777C43.775,51.777,42.777,52.775,42.777,54z"/>
			</g>
			<g>
				<path fill="#F15744" d="M45,58v-1.777c1.227,0,2.223-0.998,2.223-2.223H49C49,56.205,47.207,58,45,58z"/>
			</g>
			<g>
				<path fill="#FFFFFF" d="M45,58c-2.205,0-4-1.795-4-4h1.777c0,1.225,0.998,2.223,2.223,2.223V58z"/>
			</g>
			<g>
				<path fill="#FFFFFF" d="M49,54h-1.777c0-1.225-0.996-2.223-2.223-2.223V50C47.207,50,49,51.795,49,54z"/>
			</g>
			<path fill="#F15744" d="M32.5,3c0,1.313,0,2.625,0,3.938c2.668,0.525,5.334-2.494,8-1.969C37.834,3.131,35.168,4.838,32.5,3z"/>
			<g>
				<path fill="#F15744" d="M21.141,24.672c-0.527,0.857-1.064,1.73-1.602,2.608C23.094,27.722,27.424,28.734,31,31v-3
					C31,28,27.893,25.811,21.141,24.672z"/>
			</g>
			<path fill="#FFCE31" d="M16.674,32C27.859,32,31,35.004,31,35.004V31c-3.576-2.266-7.906-3.278-11.461-3.72
				C18.463,29.039,17.736,30.227,16.674,32z"/>
			<rect x="44.5" y="49" fill="#FFFFFF" width="1" height="1"/>
			<rect x="44.5" y="58" fill="#FFFFFF" width="1" height="1"/>
			<rect x="49" y="53.5" fill="#FFFFFF" width="1" height="1"/>
			<rect x="40" y="53.5" fill="#FFFFFF" width="1" height="1"/>
			<g>
				<path fill="#89664C" d="M40.75,53.51l-0.5-0.02c0.004-0.082,0.088-2.039,1.195-3.148c1.158-1.158,2.99-1.09,3.066-1.092
					l-0.021,0.5c-0.012-0.004-1.688-0.057-2.691,0.945C40.832,51.664,40.752,53.49,40.75,53.51z"/>
			</g>
			<g>
				<path fill="#89664C" d="M49.25,53.51c0-0.02-0.08-1.846-1.049-2.814c-1.002-1.002-2.68-0.949-2.689-0.945l-0.021-0.5
					c0.074,0.002,1.906-0.066,3.064,1.092c1.109,1.109,1.193,3.066,1.195,3.148L49.25,53.51z"/>
			</g>
			<g>
				<path fill="#89664C" d="M44.416,58.75c-0.398,0-1.947-0.068-2.971-1.092c-1.107-1.109-1.191-3.066-1.195-3.15l0.5-0.018
					c0.002,0.018,0.082,1.846,1.049,2.814c1.004,1.002,2.68,0.951,2.691,0.945l0.021,0.5C44.502,58.75,44.469,58.75,44.416,58.75z"
					/>
			</g>
			<g>
				<path fill="#89664C" d="M45.584,58.75c-0.053,0-0.086,0-0.094,0l0.021-0.5c0.01,0.006,1.688,0.057,2.689-0.945
					c0.969-0.969,1.049-2.797,1.049-2.814l0.5,0.018c-0.002,0.084-0.086,2.041-1.195,3.15C47.531,58.682,45.984,58.75,45.584,58.75z
					"/>
			</g>
		</g>
	</g>
	<circle fill="#3E4347" cx="13" cy="50" r="1.5"/>
</g>
</svg>
