<?xml version="1.0" encoding="utf-8"?>
<!-- Generator: Adobe Illustrator 15.0.0, SVG Export Plug-In . SVG Version: 6.00 Build 0)  -->
<!DOCTYPE svg PUBLIC "-//W3C//DTD SVG 1.1//EN" "http://www.w3.org/Graphics/SVG/1.1/DTD/svg11.dtd">
<svg version="1.1" id="Layer_1" xmlns="http://www.w3.org/2000/svg" xmlns:xlink="http://www.w3.org/1999/xlink" x="0px" y="0px"
	 width="64px" height="64px" viewBox="0 0 64 64" enable-background="new 0 0 64 64" xml:space="preserve">
<g>
	<path fill="#D0D0D0" d="M13.111,50.735c0,0-5.13,4.147-6.693,5.685C4.051,58.748,2.455,62,20.501,62C32.001,62,59,62,59,62v-2.896
		h-3.854c0,0-2.196-6.632-2.679-8.369c-0.195-0.708-3.171,0.239-2.838,0.895c0.696,1.368-0.428,7.475-0.428,7.475H26.615
		c-2.35,0-0.915-1.783-0.332-3.786l-3.855-0.214c0,0,0.588,4-6.425,4c-4.445,0-7.965-0.692-6.516-2.116
		c1.301-1.279,5.605-4.727,5.605-4.727L13.111,50.735z"/>
	<path fill="#CE344A" d="M20.196,42.597c0,0,9.104-4.004,12.759-13.121C37,19.382,32.37,5.956,32.37,5.956s1.136-3.228,4.569-3.228
		c2.302-0.002,3.373,2.446,3.373,2.446s1.969,21.96-1.23,28.645C32.799,46.944,20.196,42.597,20.196,42.597z"/>
	<path fill="#F46767" d="M54.431,5.465c0,0-8.567-4.141-13.708-3.369c-3.434,0.516-4.494,4.022-4.598,5.685
		c-0.344,5.54,2.209,16.073,0.707,21.425c-1.326,4.728-8.995,13.845-14.1,13.88c-0.809,0.006-2.206-1.354-2.927-0.997
		c-2.445,1.211-10.228,2.12-9.479,7.226c0.677,4.613,8.05,7.388,16.403,7.668c4.122,0.139,12.563-1.495,14.409-7.904
		c0.688-2.392,3.796-2.063,3.796-2.063l1.57,6.247h9.995c0,0,2.07-7.573,2.07-15.441c0-8.344-4.32-9.616-5.711-14.81
		C51.642,18.464,54.431,5.465,54.431,5.465z"/>
	<path fill="#ED4C5C" d="M50.479,7.285c0,0-4.203-5.083-9.344-4.312c-3.434,0.516-4.494,4.022-4.597,5.684
		c-0.344,5.542,2.208,16.074,0.706,21.426c-1.326,4.728-8.995,13.845-14.1,13.88c-0.809,0.006-2.206-1.354-2.927-0.997
		c-2.445,1.211-9.732,2.584-7.444,7.226c2.51,5.09,22.426,5.239,28.55-6.026c2.216-4.076,5.32,1.973,8.371,0.391
		c4.897-2.539-2.352-10.813-2.86-18.282C46.515,21.582,50.479,7.285,50.479,7.285z"/>
	<ellipse fill="#A8203B" cx="25.653" cy="44.948" rx="1.327" ry="1.305"/>
	<ellipse fill="#A8203B" cx="30.052" cy="42.339" rx="1.327" ry="1.305"/>
	<ellipse fill="#A8203B" cx="34.09" cy="39.722" rx="1.327" ry="1.305"/>
	<ellipse fill="#A8203B" cx="37.312" cy="35.403" rx="1.327" ry="1.305"/>
	<ellipse fill="#A8203B" cx="38.639" cy="30.317" rx="1.327" ry="1.305"/>
	<ellipse fill="#A8203B" cx="40.164" cy="25.025" rx="1.327" ry="1.305"/>
	<ellipse fill="#A8203B" cx="40.403" cy="20.551" rx="1.327" ry="1.305"/>
	<ellipse fill="#A8203B" cx="39.966" cy="15.543" rx="1.327" ry="1.305"/>
	<ellipse fill="#A8203B" cx="39.966" cy="9.49" rx="1.327" ry="1.305"/>
	<g>
		<g>
			<path fill="#D0D0D0" d="M25.427,45.26c-0.293,0-0.578-0.147-0.738-0.414c-0.102-0.172-2.484-4.22-0.025-6.233
				c0.363-0.298,0.904-0.25,1.207,0.107s0.253,0.889-0.11,1.187c-1.11,0.91-0.052,3.315,0.406,4.086
				c0.238,0.4,0.103,0.917-0.306,1.151C25.724,45.223,25.574,45.26,25.427,45.26z"/>
		</g>
		<g>
			<path fill="#D0D0D0" d="M29.614,42.597c-0.25,0-0.497-0.106-0.667-0.312c-0.136-0.166-3.334-4.098-1.282-6.572
				c0.299-0.36,0.838-0.414,1.205-0.121c0.367,0.294,0.422,0.825,0.123,1.186c-0.975,1.177,0.643,3.667,1.285,4.447
				c0.298,0.36,0.242,0.892-0.126,1.185C29.994,42.535,29.803,42.597,29.614,42.597z"/>
		</g>
		<g>
			<path fill="#D0D0D0" d="M33.619,40.102c-0.189,0-0.382-0.062-0.539-0.188c-0.385-0.307-3.754-3.07-3.834-5.656
				c-0.025-0.854,0.306-1.616,0.959-2.205c0.349-0.315,0.89-0.292,1.21,0.051s0.297,0.875-0.052,1.189
				c-0.291,0.263-0.415,0.545-0.403,0.914c0.047,1.542,2.385,3.748,3.199,4.399c0.368,0.293,0.424,0.824,0.124,1.186
				C34.115,39.995,33.867,40.102,33.619,40.102z"/>
		</g>
		<g>
			<path fill="#D0D0D0" d="M36.941,35.857c-0.104,0-0.21-0.019-0.313-0.058c-0.461-0.178-4.525-1.802-5.401-4.24
				c-0.29-0.807-0.211-1.632,0.229-2.389c0.234-0.403,0.758-0.543,1.168-0.313c0.411,0.23,0.554,0.745,0.319,1.148
				c-0.195,0.337-0.228,0.643-0.102,0.991c0.464,1.294,2.952,2.671,4.411,3.234c0.44,0.17,0.657,0.658,0.484,1.091
				C37.605,35.654,37.282,35.857,36.941,35.857z"/>
		</g>
		<g>
			<path fill="#D0D0D0" d="M38.299,31.012c-0.039,0-0.077-0.003-0.116-0.008c-0.465-0.062-4.583-0.663-5.818-2.73
				c-0.426-0.714-0.478-1.523-0.149-2.343c0.173-0.433,0.669-0.646,1.11-0.477c0.44,0.171,0.656,0.659,0.483,1.092
				c-0.174,0.435-0.074,0.695,0.033,0.873c0.615,1.032,3.13,1.723,4.571,1.916c0.468,0.063,0.797,0.487,0.733,0.947
				C39.088,30.705,38.72,31.012,38.299,31.012z"/>
		</g>
		<g>
			<path fill="#D0D0D0" d="M37.133,26.03c-1.279,0-2.701-0.203-3.604-0.951c-0.643-0.533-0.965-1.28-0.935-2.16
				c0.018-0.465,0.409-0.84,0.887-0.813c0.474,0.017,0.843,0.407,0.826,0.872c-0.017,0.466,0.166,0.679,0.326,0.813
				c0.93,0.771,3.535,0.6,4.959,0.31c0.46-0.095,0.916,0.198,1.013,0.654c0.097,0.455-0.2,0.9-0.665,0.995
				C39.703,25.799,38.498,26.03,37.133,26.03z"/>
		</g>
		<g>
			<path fill="#D0D0D0" d="M37.304,21.647c-1.279,0-2.701-0.203-3.604-0.951c-0.644-0.532-0.966-1.28-0.935-2.16
				c0.017-0.465,0.414-0.821,0.887-0.812c0.474,0.016,0.843,0.406,0.826,0.871c-0.017,0.466,0.165,0.68,0.325,0.813
				c0.93,0.771,3.536,0.6,4.959,0.311c0.461-0.095,0.917,0.197,1.014,0.653c0.096,0.455-0.202,0.9-0.665,0.995
				C39.873,21.416,38.669,21.647,37.304,21.647z"/>
		</g>
		<g>
			<path fill="#D0D0D0" d="M36.914,16.848c-1.279,0-2.702-0.203-3.604-0.95c-0.645-0.533-0.967-1.28-0.936-2.161
				c0.018-0.464,0.413-0.828,0.887-0.812c0.473,0.016,0.843,0.406,0.826,0.871c-0.017,0.467,0.165,0.68,0.326,0.813
				c0.93,0.771,3.535,0.6,4.959,0.311c0.461-0.095,0.916,0.197,1.013,0.653c0.096,0.455-0.201,0.901-0.664,0.995
				C39.484,16.616,38.28,16.848,36.914,16.848z"/>
		</g>
	</g>
</g>
</svg>
