<?xml version="1.0" encoding="utf-8"?>
<!-- Generator: Adobe Illustrator 15.0.0, SVG Export Plug-In . SVG Version: 6.00 Build 0)  -->
<!DOCTYPE svg PUBLIC "-//W3C//DTD SVG 1.1//EN" "http://www.w3.org/Graphics/SVG/1.1/DTD/svg11.dtd">
<svg version="1.1" id="Layer_1" xmlns="http://www.w3.org/2000/svg" xmlns:xlink="http://www.w3.org/1999/xlink" x="0px" y="0px"
	 width="64px" height="64px" viewBox="0 0 64 64" enable-background="new 0 0 64 64" xml:space="preserve">
<g>
	<path fill="#B47D56" d="M29.948,28.068l-5.566-2.291l-2.49-5.998l-3.447,1.523l2.807,6.764c0.154,0.364,0.412,0.651,0.725,0.845
		l-0.002,0.002l0.02,0.008c0.154,0.093,0.32,0.157,0.494,0.203l6.02,2.479c0.947,0.398,2.039-0.071,2.438-1.049
		C31.345,29.58,30.896,28.464,29.948,28.068z"/>
	<g>
		<circle fill="#FF8736" cx="16.701" cy="13.46" r="8.683"/>
		<path fill="#231F20" d="M10.521,7.363c0.184,0.726,0.492,1.401,0.846,2.051c0.346,0.655,0.732,1.286,1.135,1.906
			c0.813,1.235,1.691,2.428,2.639,3.562c0.941,1.139,1.949,2.224,3.041,3.211c0.549,0.49,1.119,0.958,1.732,1.364
			c0.607,0.417,1.268,0.759,1.99,0.954c-0.754-0.05-1.475-0.344-2.152-0.679c-0.674-0.353-1.305-0.781-1.898-1.25
			c-1.191-0.938-2.244-2.03-3.213-3.185c-0.957-1.166-1.832-2.399-2.572-3.715c-0.371-0.656-0.707-1.335-0.99-2.035
			C10.815,8.843,10.56,8.117,10.521,7.363z"/>
		<path fill="#231F20" d="M8.022,13.227c0.521,1.085,1.152,2.096,1.969,2.923c0.814,0.828,1.795,1.46,2.859,1.938
			c1.059,0.498,2.199,0.838,3.32,1.318c0.559,0.239,1.117,0.525,1.596,0.934c0.477,0.407,0.824,0.977,0.906,1.578
			c-0.227-0.564-0.615-1.017-1.1-1.324c-0.48-0.315-1.029-0.521-1.586-0.714c-1.117-0.369-2.289-0.688-3.408-1.2
			c-1.113-0.514-2.172-1.231-2.963-2.19C8.817,15.54,8.288,14.399,8.022,13.227z"/>
		<path fill="#231F20" d="M23.685,18.621c-0.693,0.29-1.531,0.44-2.299,0.091c-0.76-0.369-1.205-1.124-1.506-1.835
			c-0.596-1.462-0.818-2.985-1.148-4.461c-0.311-1.478-0.662-2.946-1.318-4.273c-0.646-1.321-1.717-2.456-3.156-3.015
			c0.75,0.154,1.465,0.503,2.088,0.98c0.615,0.488,1.121,1.113,1.514,1.791c0.793,1.365,1.184,2.891,1.51,4.382l0.439,2.24
			c0.143,0.742,0.309,1.475,0.545,2.173c0.244,0.685,0.578,1.367,1.184,1.737C22.14,18.823,22.948,18.779,23.685,18.621z"/>
		<path fill="#231F20" d="M21.729,6.383c0.4,0.266,0.691,0.67,0.926,1.086c0.238,0.42,0.424,0.867,0.576,1.324
			c0.293,0.919,0.451,1.882,0.482,2.85c0.066,1.929-0.377,3.929-1.477,5.581c-0.553,0.818-1.264,1.532-2.08,2.083
			c-0.822,0.544-1.73,0.942-2.672,1.18c-1.887,0.495-3.844,0.437-5.709,0.124c1.893,0.062,3.799-0.061,5.568-0.611
			c1.762-0.544,3.354-1.612,4.352-3.138c1.021-1.511,1.473-3.369,1.512-5.216c0.012-0.925-0.07-1.859-0.281-2.768
			C22.712,7.98,22.413,7.05,21.729,6.383z"/>
	</g>
	<path fill="#3E4347" d="M49.987,60.597l-0.865-4.121c0.873-0.781,1.168-0.795,1.184-0.803c0.623-0.308,1.379-0.041,1.695,0.598
		l3.717,7.52C54.327,64.477,51.501,63.495,49.987,60.597z"/>
	<path fill="#3E4347" d="M36.618,56.873l-1.447-3.854c0.945-0.69,2.514-1.459,2.531-1.466c0.648-0.243,1.375,0.097,1.625,0.764
		l2.947,7.854C40.821,60.716,38.017,59.772,36.618,56.873z"/>
	<polygon fill="#B47D56" points="37.683,19.138 38.677,22.984 37.257,29.482 34.028,27.013 	"/>
	<path fill="#47B892" d="M39.079,42.559H25.886c0,0,0.299-7.885,3.404-13.468c2.428-4.367,8.697-3.015,8.697-3.015L39.079,42.559z"
		/>
	<path fill="#B47D56" d="M54.956,29.802c-2.123-1.688-2.611-2.067-3.479-1.158L45.8,24.94c-0.332-0.215-0.707-0.306-1.074-0.289
		v-0.002l-0.02,0.004c-0.178,0.01-0.354,0.051-0.521,0.111l-6.371,1.349c-1.006,0.206-1.643,1.211-1.42,2.242
		c0.219,1.029,1.221,1.696,2.225,1.49l5.887-1.249l4.73,3.084c-0.119,0.453,0.031,0.957,0.42,1.266l0.695,0.552
		c0.371,0.295,0.857,0.332,1.248,0.136c0.98,0.672,2.461,1.298,3.789-0.459C55.608,32.886,56.827,31.283,54.956,29.802z"/>
	<path fill="#B47D56" d="M37.466,25.95c-2.947,0.099-4.092,5.331-5.404,5.683c-2.148,0.573-2.523-2.114-0.82-4.276
		C33.374,24.649,37.466,25.95,37.466,25.95z"/>
	<g>
		<path fill="#B47D56" d="M49.122,56.476l0.865,4.121c0,0-5.451-1.983-8.516-2.263c-0.965-0.088-1.146-1.172-1.582-1.414
			c-2.725-1.519-3.912-5.917-3.912-5.917l5.598-1.202c0,0,0.166,1.675,1.02,4.071c0.109,0.309,0.252,0.654,1.188,0.634
			C45.591,54.466,47.589,56.815,49.122,56.476z"/>
		<path fill="#B47D56" d="M36.618,56.873l-1.447-3.854c-1.373,0.389-1.967-0.285-3.375,0.363c-0.639,0.294-0.865-0.07-0.785-0.312
			c0.432-1.322,0.35-1.988,0.35-1.988l-5.941-0.812c0,0-0.344,4.298,2.174,7.793c0.594,0.824,2.854,0.965,3.434,0.661
			C34.001,57.17,36.618,56.873,36.618,56.873z"/>
		<path fill="#3E4347" d="M25.886,42.559h13.193l3.516,7.022l-6.869,1.477c-0.352-0.735-0.697-1.443-1.021-2.093
			c-0.219-0.438-0.598-0.794-1.123-0.794c-0.643,0-0.984,0.532-1.18,1.121c-0.213,0.639-0.41,1.253-0.598,1.852l-6.639-0.907
			L25.886,42.559z"/>
	</g>
	<g>
		<g>
			<path fill="#935E3E" d="M36.606,19.308c-0.846,4.245-5.748,2.53-4.83,5.507c0.518,1.683-0.686,3.257-0.686,3.257
				c3.609,0.719,5.578-3.385,6.566-8.342L36.606,19.308z"/>
		</g>
	</g>
	<g>
		<path fill="#B47D56" d="M41.729,5.192L26.468,6.851c-2.262,2.695-1.451,4.524-1.77,5.817c-0.143,0.575-1.533,1.401-2.27,1.833
			c-1.641,0.96,0.496,2.426,1.404,2.418c0.293,1.413-0.674,1.589,1.506,1.826c1.199,0.129,3.008-0.643,3.008-0.643
			c-5.846,2.233-4.768,3.845-2.516,3.707c-0.549,2.754,1.16,3.095,4.908,3.842c3.055,0.608,6.072-1.676,6.918-5.922l4.236,0.101
			L41.729,5.192z"/>
		<path fill="#231F20" d="M37.06,0.222c10.598,2.111,10.191,11.388,7.477,17.334c-1.445,3.165-3.625,4.93-5.859,5.429l-0.902-0.876
			l-0.117-2.379c0,0,2.168-0.072,3.252-2.315c0.496-1.024-0.176-3.306-1.752-3.711c-1.102-0.285-2.865,0.226-3.256,0.409
			c0.547-2.748,1.674-5.482-0.037-6.672c-1.406-0.98-8.617,0.693-9.396-0.59C24.366,3.419,30.679-1.051,37.06,0.222z"/>
		<path fill="#47352D" d="M38.054,16.272c-0.191-0.065-0.393-0.076-0.58-0.038c0.129-0.175,0.279-0.343,0.441-0.507
			c0.201-0.202,0.43-0.384,0.66-0.606c-0.627,0.04-1.248,0.368-1.637,0.923c-0.387,0.565-0.422,1.292-0.197,1.875
			c0.115-0.304,0.176-0.595,0.277-0.854c0.066-0.164,0.139-0.319,0.221-0.468c0.078,0.02,0.154,0.034,0.225,0.057
			c0.15,0.047,0.283,0.076,0.41,0.127c0.133,0.041,0.258,0.104,0.406,0.157c0.145,0.057,0.287,0.139,0.484,0.204
			C38.728,16.753,38.435,16.412,38.054,16.272z"/>
		
			<ellipse transform="matrix(0.9807 0.1954 -0.1954 0.9807 2.9969 -5.057)" fill="#47352D" cx="27.131" cy="12.662" rx="1.162" ry="1.625"/>
		<path fill="#47352D" d="M28.347,18.103c0,0-2.18,2.106-2.678,2.362c-1.063,0.549-1.279,0.006-0.709-0.519
			C25.548,19.405,28.347,18.103,28.347,18.103z"/>
	</g>
</g>
</svg>
