<?xml version="1.0" encoding="utf-8"?>
<!-- Generator: Adobe Illustrator 15.0.0, SVG Export Plug-In . SVG Version: 6.00 Build 0)  -->
<!DOCTYPE svg PUBLIC "-//W3C//DTD SVG 1.1//EN" "http://www.w3.org/Graphics/SVG/1.1/DTD/svg11.dtd">
<svg version="1.1" id="Layer_1" xmlns="http://www.w3.org/2000/svg" xmlns:xlink="http://www.w3.org/1999/xlink" x="0px" y="0px"
	 width="64px" height="64px" viewBox="0 0 64 64" enable-background="new 0 0 64 64" xml:space="preserve">
<g>
	<g>
		<circle fill="#E8E8E8" cx="26.778" cy="9" r="9"/>
		<path fill="#B2C1C0" d="M41.778,25h-30c-0.55,0-1,0.45-1,1v3h32v-3C42.778,25.45,42.328,25,41.778,25z"/>
		<rect x="12.778" y="29" fill="#D33B23" width="28" height="31"/>
		<path fill="#62727A" d="M41.778,60h-30c-0.55,0-1,0.45-1,1v1h32v-1C42.778,60.45,42.328,60,41.778,60z"/>
		<path fill="#62727A" d="M42.778,62h-32c-0.55,0-1,0.45-1,1v1h34v-1C43.778,62.45,43.328,62,42.778,62z"/>
		<path fill="#FFFFFF" d="M30.778,30.5h-8c-1.1,0-2,0.9-2,2v6c0,1.1,0.9,2,2,2h8c1.1,0,2-0.9,2-2v-6
			C32.778,31.4,31.878,30.5,30.778,30.5z"/>
		<path fill="#FFFFFF" d="M30.778,44h-8c-0.55,0-1,0.45-1,1v2c0,0.55,0.45,1,1,1h8c0.55,0,1-0.45,1-1v-2
			C31.778,44.45,31.328,44,30.778,44z"/>
		<rect x="24.778" y="17" fill="#E8E8E8" width="4" height="4"/>
		<path fill="#D33B23" d="M40.778,25c-3.561-2.467-8.514-4-14-4s-10.439,1.533-14,4H40.778z"/>
		<g>
			<path fill="#D33B23" d="M26.778,15.5c-3.584,0-6.5-2.916-6.5-6.5s2.916-6.5,6.5-6.5s6.5,2.916,6.5,6.5S30.362,15.5,26.778,15.5z
				 M26.778,3.5c-3.032,0-5.5,2.468-5.5,5.5s2.468,5.5,5.5,5.5s5.5-2.468,5.5-5.5S29.811,3.5,26.778,3.5z"/>
		</g>
		<g>
			<path fill="#FFFFFF" d="M30.378,59h-7.199c-0.772,0-1.4-0.598-1.4-1.333v-7.334c0-0.735,0.628-1.333,1.4-1.333h7.199
				c0.772,0,1.4,0.598,1.4,1.333v7.334C31.778,58.402,31.15,59,30.378,59z M23.179,50c-0.217,0-0.4,0.152-0.4,0.333v7.334
				c0,0.181,0.184,0.333,0.4,0.333h7.199c0.217,0,0.4-0.152,0.4-0.333v-7.334c0-0.181-0.184-0.333-0.4-0.333H23.179z"/>
		</g>
		<path fill="#FFFFFF" d="M31.778,42c0,0.55-0.45,1-1,1h-8c-0.55,0-1-0.45-1-1v-4c0-0.55,0.45-1,1-1h8c0.55,0,1,0.45,1,1V42z"/>
		<path fill="#62727A" d="M24.778,41.5c0,0.275-0.225,0.5-0.5,0.5h-1c-0.275,0-0.5-0.225-0.5-0.5v-3c0-0.275,0.225-0.5,0.5-0.5h1
			c0.275,0,0.5,0.225,0.5,0.5V41.5z"/>
		<path fill="#62727A" d="M27.778,41.5c0,0.275-0.225,0.5-0.5,0.5h-1c-0.275,0-0.5-0.225-0.5-0.5v-3c0-0.275,0.225-0.5,0.5-0.5h1
			c0.275,0,0.5,0.225,0.5,0.5V41.5z"/>
		<path fill="#62727A" d="M30.778,41.5c0,0.275-0.225,0.5-0.5,0.5h-1c-0.275,0-0.5-0.225-0.5-0.5v-3c0-0.275,0.225-0.5,0.5-0.5h1
			c0.275,0,0.5,0.225,0.5,0.5V41.5z"/>
	</g>
	<g>
		<path fill="#3E4347" d="M45.381,53.472h-2.947c0-1.625-1.321-2.946-2.946-2.946H36.54v-2.947h2.947
			C42.737,47.578,45.381,50.222,45.381,53.472z"/>
	</g>
	<g>
		<path fill="#3E4347" d="M48.328,59.366c-3.25,0-5.895-2.645-5.895-5.895h2.947c0,1.626,1.321,2.947,2.947,2.947
			c1.625,0,2.946-1.321,2.946-2.947V31.369h2.947v22.103C54.222,56.722,51.578,59.366,48.328,59.366z"/>
	</g>
	<g>
		<path fill="#D0D0D0" d="M54.222,31.369h-2.947v-0.052c-2.496-0.359-4.42-2.512-4.42-5.105v-0.788l4.42-2.947
			c-0.027-1.602-1.338-2.896-2.946-2.896v-2.947c3.25,0,5.894,2.645,5.894,5.895V31.369z M49.919,26.922
			c0.217,0.64,0.721,1.147,1.355,1.374v-2.278L49.919,26.922z"/>
	</g>
</g>
</svg>
