<?xml version="1.0" encoding="utf-8"?>
<!-- Generator: Adobe Illustrator 15.0.0, SVG Export Plug-In . SVG Version: 6.00 Build 0)  -->
<!DOCTYPE svg PUBLIC "-//W3C//DTD SVG 1.1//EN" "http://www.w3.org/Graphics/SVG/1.1/DTD/svg11.dtd">
<svg version="1.1" id="Layer_1" xmlns="http://www.w3.org/2000/svg" xmlns:xlink="http://www.w3.org/1999/xlink" x="0px" y="0px"
	 width="64px" height="64px" viewBox="0 0 64 64" enable-background="new 0 0 64 64" xml:space="preserve">
<g>
	<g>
		<g>
			<circle fill="none" cx="17.362" cy="10.397" r="5.377"/>
			<path fill="#A9B5AE" d="M57.034,48.612c-4.523,8.166-15.741-3.055-30.778-12.578c-2.793-1.77-3.932-4.436-1.263-7.168
				c0,0-0.096-0.256-0.468-0.744l5.654-2.54L57.034,48.612z"/>
			<path fill="#454749" d="M24.13,2.507C19.77-1.232,13.208-0.731,9.469,3.63c-3.738,4.359-3.234,10.922,1.126,14.66
				c0.474,0.408,1.81,1.24,1.901,1.291c8.223,4.427,11.072,7.283,12.029,8.541l5.654-2.54l-1.86-1.594c0,0-6.167-2.815-6.778-4.08
				c1.385-0.608,2.663-1.519,3.713-2.742C28.993,12.806,28.489,6.244,24.13,2.507z M20.865,6.316
				c2.253,1.932,2.513,5.328,0.579,7.582c-1.933,2.254-5.328,2.516-7.582,0.583c-2.256-1.935-2.516-5.329-0.581-7.585
				C15.213,4.644,18.608,4.381,20.865,6.316z"/>
		</g>
		<g>
			<path fill="none" d="M21.444,50.103c-1.934-2.256-5.328-2.516-7.582-0.584c-2.256,1.936-2.516,5.33-0.581,7.586
				c1.933,2.252,5.327,2.516,7.583,0.58C23.118,55.753,23.377,52.356,21.444,50.103z"/>
			<path fill="#CEDBD5" d="M57.033,15.389c-4.522-8.166-15.74,3.055-30.777,12.579c-2.793,1.77-3.932,4.434-1.263,7.168
				c0,0-0.096,0.256-0.468,0.744l5.654,2.539L57.033,15.389z"/>
			<path fill="#454749" d="M25.254,46.833c-1.05-1.223-2.328-2.133-3.714-2.74c0.612-1.266,6.779-4.08,6.779-4.08l1.86-1.594
				l-5.654-2.539c-0.957,1.256-3.807,4.113-12.029,8.539c-0.092,0.051-1.428,0.883-1.901,1.291
				c-4.36,3.738-4.864,10.301-1.126,14.66c3.738,4.361,10.301,4.863,14.661,1.123C28.489,57.757,28.993,51.194,25.254,46.833z
				 M13.281,57.104c-1.935-2.256-1.675-5.65,0.581-7.586c2.254-1.932,5.648-1.672,7.582,0.584c1.934,2.254,1.674,5.65-0.58,7.582
				C18.608,59.62,15.213,59.356,13.281,57.104z"/>
		</g>
	</g>
	<path fill="#454749" d="M31.065,33.749c-0.967,1.18-2.704,1.348-3.881,0.381c-1.176-0.965-1.348-2.702-0.381-3.879
		c0.966-1.176,2.703-1.348,3.88-0.381C31.858,30.834,32.03,32.573,31.065,33.749z"/>
</g>
</svg>
