<?xml version="1.0" encoding="utf-8"?>
<!-- Generator: Adobe Illustrator 15.0.0, SVG Export Plug-In . SVG Version: 6.00 Build 0)  -->
<!DOCTYPE svg PUBLIC "-//W3C//DTD SVG 1.1//EN" "http://www.w3.org/Graphics/SVG/1.1/DTD/svg11.dtd">
<svg version="1.1" id="Layer_1" xmlns="http://www.w3.org/2000/svg" xmlns:xlink="http://www.w3.org/1999/xlink" x="0px" y="0px"
	 width="64px" height="64px" viewBox="0 0 64 64" enable-background="new 0 0 64 64" xml:space="preserve">
<g>
	<g>
		<path fill="#C5D0D8" d="M8.938,35.83c0,0-5.486,0.572-7.982,4.26c-1.287,1.902,0.08,3.803,1.607,3.803
			c2.952,0,6.092-2.16,7.66-7.707L8.938,35.83z"/>
		
			<ellipse transform="matrix(0.9056 -0.4241 0.4241 0.9056 -17.4132 4.9917)" fill="#DAE3EA" cx="2.507" cy="41.613" rx="2.13" ry="2.336"/>
		
			<ellipse transform="matrix(0.9056 -0.4241 0.4241 0.9056 -17.4811 4.9182)" fill="#3E4347" cx="2.31" cy="41.737" rx="1.588" ry="1.785"/>
	</g>
	<circle fill="#ED4C5C" cx="7.102" cy="32.893" r="0.962"/>
	<circle opacity="0.5" fill="#ED4C5C" cx="7.102" cy="32.893" r="1.504"/>
	<path fill="#42ADE2" d="M7.529,42.748c2.474-3.83,3.73-5.484,7.126-7.531c0.963-0.58,2.095-1.178,3.345-1.783
		c-5.554-0.436-10.272-0.689-13.036-0.686c-1.777,0.008-5.912,2.025-4.767,3.617C1.139,37.668,4.44,40.361,7.529,42.748z"/>
	<path fill="#DAE3EA" d="M53.297,22.538c-10.063,1.434-28.018,5.482-36.912,10.285c-5.318,2.871-5.625,4.902-12.662,14.172
		c-7.471,9.842,1.428,16.324,14.61,12.285C31.542,55.23,48.365,39.266,56.22,28.206C58.051,25.629,56.491,22.083,53.297,22.538z"/>
	<path fill="#C5D0D8" d="M30,47.748c-4.909,3.525-15.167,8.098-15.167,8.098l3.5,3.434C31.542,55.23,48.365,39.266,56.22,28.206
		c0.909-1.279,0.982-2.798,0.435-3.947C56.516,27.186,53.781,30.67,30,47.748z"/>
	<path fill="#42ADE2" d="M62.781,24.926c0.64-0.599-6.807-1.608-6.807-1.608s-6.879,2.961-5.693,4.102
		C58.139,26.985,61.81,25.836,62.781,24.926z"/>
	<g>
		<g>
			<path fill="#3E4347" d="M45.394,29.97c-0.491,0.226-0.894,0.823-0.894,1.329v1.255c0,0.504,0.382,0.7,0.848,0.43l2.305-1.32
				c0.466-0.27,0.848-0.901,0.848-1.406v-0.802c0-0.504-0.402-0.732-0.894-0.506L45.394,29.97z"/>
		</g>
		<g>
			<path fill="#3E4347" d="M32.394,35.955c-0.491,0.225-0.894,0.824-0.894,1.33v2.723c0,0.506,0.382,0.699,0.848,0.434l3.305-1.896
				c0.466-0.268,0.848-0.898,0.848-1.404v-2.158c0-0.506-0.402-0.732-0.894-0.508L32.394,35.955z"/>
		</g>
		<g>
			<path fill="#3E4347" d="M39.394,32.73c-0.491,0.227-0.894,0.824-0.894,1.33v1.934c0,0.504,0.382,0.699,0.848,0.432l2.305-1.322
				c0.466-0.266,0.848-0.898,0.848-1.402v-1.483c0-0.504-0.402-0.732-0.894-0.507L39.394,32.73z"/>
		</g>
	</g>
	<path fill="#3E4347" d="M22.65,39.555c-7.091-0.186-10.319-0.674-12.08-1.885c-0.946,1.195-2.08,2.803-3.469,4.746
		c0.604,0.756,4.587,4.984,14.688,2.248c1.506-0.408,2.322-1.561,2.93-2.926C25.324,40.373,25.087,39.617,22.65,39.555z"/>
	<path fill="#E6E6E6" d="M15.023,37.498c0,0-3.193,2.029-6.023,9.268c0,0,2.586,1.277,2.819,0.455
		C13.686,40.664,17,37.889,17,37.889L15.023,37.498z"/>
	<path fill="#3E4347" d="M19.166,59.01c-5.135,1.855-13.332,3.004-16.853-1.268C0.522,55.57,0,51.431,3.799,46.895
		C5.834,45.934,16.459,48.992,19.166,59.01z"/>
	<circle fill="#83BF4F" cx="61" cy="40.498" r="1.534"/>
	<circle opacity="0.5" fill="#83BF4F" cx="61" cy="40.498" r="2.43"/>
	<path fill="#C5D0D8" d="M53.014,40.66c0,0-8.074,2.545-11.779,8.576c-1.188,1.934,5.063,6.213,5.063,6.213
		c2.655-1.295,6.452-5.389,9.233-12.795L53.014,40.66z"/>
	<path fill="#42ADE2" d="M64,42.238c0-1.457-6.999-3.582-20.502-4.49c-2.998,0.041-7.498,3-13.498,10
		c10.703,0,25.133-0.404,29.953-2.107C62.997,44.564,64,43.471,64,42.238z"/>
	<path fill="#ACB8BF" d="M55.278,20.958c0-0.997-0.626-1.804-1.397-1.804c-0.046,0-0.091,0.012-0.137,0.018l-0.002-0.018
		l-6.951,1.183l1.053,5.249l6.734-3.007C55.006,22.233,55.278,21.818,55.278,20.958z"/>
	<path fill="#42ADE2" d="M48.173,20.715c0,0,3.742-12.625,6.452-15.972c0.398-0.493,2.101-1.417,2.101-1.417l-2.539,15.872
		L48.173,20.715z"/>
	<g>
		
			<ellipse transform="matrix(0.9199 -0.3921 0.3921 0.9199 -16.7189 21.5871)" fill="#DAE3EA" cx="44.494" cy="51.728" rx="4.006" ry="4.136"/>
		
			<ellipse transform="matrix(0.9199 -0.392 0.392 0.9199 -16.7938 21.5238)" fill="#3E4347" cx="44.307" cy="51.884" rx="2.987" ry="3.16"/>
	</g>
	<path fill="#DAE3EA" d="M55.929,3.326c0,0-1.686,0.938-2.101,1.417c-2.865,3.305-7.631,15.742-7.631,15.742l1.976,0.229
		c0,0,3.742-12.625,6.452-15.972c0.398-0.493,2.101-1.417,2.101-1.417H55.929z"/>
	
		<ellipse transform="matrix(0.9568 -0.2909 0.2909 0.9568 -4.6454 14.7185)" fill="#C5D0D8" cx="47.18" cy="22.983" rx="2.257" ry="2.688"/>
	
		<ellipse transform="matrix(0.9567 -0.291 0.291 0.9567 -4.6533 14.7094)" fill="#3E4347" cx="47.126" cy="22.999" rx="1.604" ry="1.946"/>
</g>
</svg>
