<?xml version="1.0" encoding="utf-8"?>
<!-- Generator: Adobe Illustrator 15.0.0, SVG Export Plug-In . SVG Version: 6.00 Build 0)  -->
<!DOCTYPE svg PUBLIC "-//W3C//DTD SVG 1.1//EN" "http://www.w3.org/Graphics/SVG/1.1/DTD/svg11.dtd">
<svg version="1.1" id="Layer_1" xmlns="http://www.w3.org/2000/svg" xmlns:xlink="http://www.w3.org/1999/xlink" x="0px" y="0px"
	 width="64px" height="64px" viewBox="0 0 64 64" enable-background="new 0 0 64 64" xml:space="preserve">
<g>
	<g>
		<g>
			<path fill="#B0BDC6" d="M0.602,48.697l18.517-19.292L4.863,8.938C4.18,9.832,3.677,11.064,3.534,12.42L0.041,45.129
				C-0.102,46.474,0.125,47.739,0.602,48.697z"/>
			<path fill="#B0BDC6" d="M62.692,5.457L35.918,30.356l21.099,28.518c1.155-0.971,1.989-2.492,2.186-4.326l4.755-44.538
				C64.154,8.163,63.642,6.549,62.692,5.457z"/>
		</g>
	</g>
	<g>
		<path fill="#CAD5DD" d="M25.732,39.382l-6.613-9.977L0.602,48.697c0.44,0.883,1.093,1.51,1.88,1.659l50.813,9.569
			c1.357,0.257,2.669-0.167,3.722-1.052L35.918,30.356L25.732,39.382z"/>
		<path fill="#DFE9EF" d="M59.266,4.009L7.052,7.54C6.25,7.595,5.482,8.13,4.863,8.938l14.256,20.467l6.613,9.977l10.186-9.026
			L62.692,5.457C61.841,4.48,60.647,3.918,59.266,4.009z"/>
	</g>
</g>
</svg>
