<?xml version="1.0" encoding="utf-8"?>
<!-- Generator: Adobe Illustrator 15.0.0, SVG Export Plug-In . SVG Version: 6.00 Build 0)  -->
<!DOCTYPE svg PUBLIC "-//W3C//DTD SVG 1.1//EN" "http://www.w3.org/Graphics/SVG/1.1/DTD/svg11.dtd">
<svg version="1.1" id="Layer_1" xmlns="http://www.w3.org/2000/svg" xmlns:xlink="http://www.w3.org/1999/xlink" x="0px" y="0px"
	 width="64px" height="64px" viewBox="0 0 64 64" enable-background="new 0 0 64 64" xml:space="preserve">
<g>
	<g>
		<g>
			<path fill="#B47D56" d="M52.376,23.396v-6.24c0,0-11.604-8.693-34.689-4.727c0,0-13.145,1.857-13.145,8.719
				c0,0-2.236,16.826,2.406,27.402c6.908,15.754,39.734,21.783,50.932-5.031C60.106,38.187,60.407,23.288,52.376,23.396z"/>
		</g>
		<path fill="#B47D56" d="M4.552,14.685c0-3.492,2.797-6.316,6.25-6.316h0.104c3.449,0,6.244,2.824,6.244,6.316v9.764
			c0,3.486-2.795,6.316-6.244,6.316h-0.104c-3.453,0-6.25-2.83-6.25-6.316V14.685z"/>
		<path fill="#B47D56" d="M17.003,9.021c0-3.486,2.799-6.314,6.252-6.314h0.098c3.453,0,6.254,2.828,6.254,6.314v9.764
			c0,3.49-2.801,6.32-6.254,6.32h-0.098c-3.453,0-6.252-2.83-6.252-6.32V9.021z"/>
		<path fill="#B47D56" d="M29.606,8.315c0-3.488,2.795-6.316,6.248-6.316h0.102c3.449,0,6.248,2.828,6.248,6.316v9.764
			c0,3.488-2.799,6.32-6.248,6.32h-0.102c-3.453,0-6.248-2.832-6.248-6.32V8.315z"/>
		<path fill="#B47D56" d="M41.915,11.536c0-3.49,2.797-6.314,6.248-6.314h0.102c3.451,0,6.248,2.824,6.248,6.314v9.766
			c0,3.486-2.797,6.316-6.248,6.316h-0.102c-3.451,0-6.248-2.83-6.248-6.316V11.536z"/>
		<path fill="#935E3E" d="M9.028,28.423H9.11c3.449,0,6.158-2.789,6.158-6.277v-9.771c0-0.943-0.209-1.834-0.572-2.637
			c1.492,1.154,2.453,2.971,2.453,5.02v9.773c0,3.486-2.701,6.234-6.154,6.234h-0.076c-2.523,0-4.691-1.49-5.682-3.662
			C6.294,27.915,7.603,28.423,9.028,28.423z"/>
		<path fill="#935E3E" d="M21.45,22.759h0.076c3.453,0,6.193-2.744,6.193-6.232V6.753c0-0.939-0.203-1.832-0.57-2.635
			c1.492,1.152,2.457,2.973,2.457,5.02v9.771c0,3.488-2.742,6.195-6.191,6.195h-0.08c-2.52,0-4.688-1.49-5.678-3.662
			C18.708,22.255,20.024,22.759,21.45,22.759z"/>
		<path fill="#935E3E" d="M34.026,22.054h0.076c3.453,0,6.219-2.744,6.219-6.232V6.048c0-0.939-0.209-1.832-0.57-2.635
			c1.492,1.152,2.453,2.973,2.453,5.02v9.771c0,3.488-2.764,6.195-6.213,6.195h-0.08c-2.52,0-4.691-1.49-5.68-3.662
			C31.286,21.55,32.599,22.054,34.026,22.054z"/>
		<path fill="#935E3E" d="M46.442,25.276h0.08c3.451,0,6.105-2.789,6.105-6.277V9.228c0-0.943-0.205-1.834-0.568-2.637
			c1.492,1.154,2.453,2.971,2.453,5.02v9.773c0,3.486-2.654,6.234-6.105,6.234h-0.08c-2.516,0-4.688-1.49-5.678-3.662
			C43.702,24.769,45.015,25.276,46.442,25.276z"/>
		<path fill="#935E3E" d="M44.796,16.616c-4.686-3.57-6.195,1.107-14.746,0.451c-3.74-0.287-6.242,7.393-0.895,10.842
			c7.436,4.797,8.652-0.74,10.334,1.65c1.787,2.537,3.656,3.197,5.086,6.07c1.039,2.086,11.111,0.117,12.57-3.779
			C59.946,24.37,52.229,22.282,44.796,16.616z"/>
		<path fill="#B47D56" d="M45.298,18.024c-4.869-3.713-6.443,1.154-15.34,0.471c-3.891-0.299-6.492,7.689-0.928,11.277
			c7.734,4.992,8.998-0.77,10.746,1.717c1.863,2.641,3.807,3.326,5.293,6.316c1.08,2.17-3.197,9.482-3.197,9.482
			s9.256,8.256,11.74,4.381c4.611-7.201,4.174-13.307,4.533-17.795C58.972,23.536,53.034,23.921,45.298,18.024z"/>
		<g>
			<g>
				<path fill="#935E3E" d="M54.817,24.212c5.283,3.191,3.451,17.836-1.455,24.461C41.165,65.149,18.614,62.444,8.907,51.886
					c8.773,11.863,32.715,15.5,45.873-1.521C60.048,43.548,63.241,26.979,54.817,24.212z"/>
			</g>
		</g>
		<g>
			<g>
				<path fill="#935E3E" d="M43.909,37.886c0.334,0.672,0.154,1.836-0.25,3.123c0.814-1.939,1.43-3.984,0.941-4.969
					c-1.486-2.988-2.438-3.674-4.297-6.314c-1.75-2.488-3.014,3.275-10.748-1.717c-2.861-1.846-3.553-4.852-3.029-7.299
					c-1.436,2.559-1.309,6.791,2.338,9.146c7.734,4.99,9-0.771,10.748,1.715C41.474,34.212,42.425,34.897,43.909,37.886z"/>
			</g>
		</g>
	</g>
	<g>
		<g>
			<path fill="#935E3E" d="M27.638,45.601c0-7.764,5.652-14.127,12.844-14.771c-0.877-0.244-1.791-0.391-2.742-0.391
				c-6.156,0-11.148,5.273-11.148,11.777c0,1.877,0.426,3.641,1.166,5.211C27.687,46.829,27.638,46.222,27.638,45.601z"/>
			<path fill="#935E3E" d="M25.437,31.054c-1.207-0.344-2.426-0.215-3.494,0.266c0.459,0.029,0.92,0.098,1.381,0.229
				c3.529,1.006,5.664,4.738,4.941,8.473c0.43-0.578,0.766-1.248,0.957-2.004C29.995,34.987,28.302,31.87,25.437,31.054z"/>
		</g>
	</g>
</g>
</svg>
