<?xml version="1.0" encoding="utf-8"?>
<!-- Generator: Adobe Illustrator 15.0.0, SVG Export Plug-In . SVG Version: 6.00 Build 0)  -->
<!DOCTYPE svg PUBLIC "-//W3C//DTD SVG 1.1//EN" "http://www.w3.org/Graphics/SVG/1.1/DTD/svg11.dtd">
<svg version="1.1" id="Layer_1" xmlns="http://www.w3.org/2000/svg" xmlns:xlink="http://www.w3.org/1999/xlink" x="0px" y="0px"
	 width="64px" height="64px" viewBox="0 0 64 64" enable-background="new 0 0 64 64" xml:space="preserve">
<g>
	<g>
		<g>
			<path fill="#FFDD67" d="M52.373,23.396v-6.24c0,0-11.604-8.693-34.689-4.727c0,0-13.145,1.857-13.145,8.719
				c0,0-2.236,16.827,2.406,27.403c6.908,15.754,39.734,21.783,50.932-5.031C60.104,38.188,60.404,23.289,52.373,23.396z"/>
		</g>
		<path fill="#FFDD67" d="M4.549,14.685c0-3.492,2.797-6.316,6.25-6.316h0.104c3.449,0,6.244,2.824,6.244,6.316v9.764
			c0,3.486-2.795,6.316-6.244,6.316h-0.104c-3.453,0-6.25-2.83-6.25-6.316V14.685z"/>
		<path fill="#FFDD67" d="M17,9.021c0-3.486,2.799-6.314,6.252-6.314h0.098c3.453,0,6.254,2.828,6.254,6.314v9.764
			c0,3.49-2.801,6.32-6.254,6.32h-0.098c-3.453,0-6.252-2.83-6.252-6.32V9.021z"/>
		<path fill="#FFDD67" d="M29.604,8.316C29.604,4.828,32.398,2,35.852,2h0.102c3.449,0,6.248,2.828,6.248,6.316v9.764
			c0,3.488-2.799,6.32-6.248,6.32h-0.102c-3.453,0-6.248-2.832-6.248-6.32V8.316z"/>
		<path fill="#FFDD67" d="M41.912,11.537c0-3.49,2.797-6.314,6.248-6.314h0.102c3.451,0,6.248,2.824,6.248,6.314v9.766
			c0,3.486-2.797,6.316-6.248,6.316H48.16c-3.451,0-6.248-2.83-6.248-6.316V11.537z"/>
		<path fill="#EBA352" d="M9.025,28.423h0.082c3.449,0,6.158-2.789,6.158-6.277v-9.771c0-0.943-0.209-1.834-0.572-2.637
			c1.492,1.154,2.453,2.971,2.453,5.02v9.773c0,3.486-2.701,6.234-6.154,6.234h-0.076c-2.523,0-4.691-1.49-5.682-3.662
			C6.291,27.916,7.6,28.423,9.025,28.423z"/>
		<path fill="#EBA352" d="M21.447,22.759h0.076c3.453,0,6.193-2.744,6.193-6.232V6.753c0-0.939-0.203-1.832-0.57-2.635
			c1.492,1.152,2.457,2.973,2.457,5.02v9.771c0,3.488-2.742,6.195-6.191,6.195h-0.08c-2.52,0-4.688-1.49-5.678-3.662
			C18.705,22.255,20.021,22.759,21.447,22.759z"/>
		<path fill="#EBA352" d="M34.023,22.054H34.1c3.453,0,6.219-2.744,6.219-6.232V6.048c0-0.939-0.209-1.832-0.57-2.635
			c1.492,1.152,2.453,2.973,2.453,5.02v9.771c0,3.488-2.764,6.195-6.213,6.195h-0.08c-2.52,0-4.691-1.49-5.68-3.662
			C31.283,21.55,32.596,22.054,34.023,22.054z"/>
		<path fill="#EBA352" d="M46.439,25.277h0.08c3.451,0,6.105-2.789,6.105-6.277V9.228c0-0.943-0.205-1.834-0.568-2.637
			c1.492,1.154,2.453,2.971,2.453,5.02v9.773c0,3.486-2.654,6.234-6.105,6.234h-0.08c-2.516,0-4.688-1.49-5.678-3.662
			C43.699,24.769,45.012,25.277,46.439,25.277z"/>
		<path fill="#EBA352" d="M44.793,16.617c-4.686-3.57-6.195,1.107-14.746,0.451c-3.74-0.287-6.242,7.393-0.895,10.842
			c7.436,4.797,8.652-0.74,10.334,1.65c1.787,2.537,3.656,3.197,5.086,6.071c1.039,2.086,11.111,0.117,12.57-3.78
			C59.943,24.371,52.227,22.283,44.793,16.617z"/>
		<path fill="#FFDD67" d="M45.295,18.025c-4.869-3.713-6.443,1.154-15.34,0.471c-3.891-0.299-6.492,7.689-0.928,11.277
			c7.734,4.993,8.998-0.77,10.746,1.717c1.863,2.641,3.807,3.327,5.293,6.317c1.08,2.17-3.197,9.482-3.197,9.482
			s9.256,8.256,11.74,4.381c4.611-7.201,4.174-13.307,4.533-17.795C58.969,23.537,53.031,23.921,45.295,18.025z"/>
		<g>
			<path fill="#EBA352" d="M54.814,24.212c5.283,3.191,3.451,17.836-1.455,24.461C41.162,65.15,18.611,62.445,8.904,51.887
				c8.773,11.863,32.715,15.5,45.873-1.521C60.045,43.549,63.238,26.98,54.814,24.212z"/>
		</g>
		<g>
			<path fill="#EBA352" d="M43.906,37.887c0.334,0.672,0.154,1.836-0.25,3.123c0.814-1.939,1.43-3.984,0.941-4.969
				c-1.486-2.988-2.438-3.674-4.297-6.315c-1.75-2.488-3.014,3.276-10.748-1.717c-2.861-1.846-3.553-4.852-3.029-7.299
				c-1.436,2.559-1.309,6.791,2.338,9.146c7.734,4.991,9-0.771,10.748,1.715C41.471,34.213,42.422,34.898,43.906,37.887z"/>
		</g>
	</g>
	<g>
		<path fill="#EBA352" d="M27.635,45.602c0-7.764,5.652-14.127,12.844-14.772c-0.877-0.244-1.791-0.391-2.742-0.391
			c-6.156,0-11.148,5.274-11.148,11.778c0,1.877,0.426,3.641,1.166,5.211C27.684,46.83,27.635,46.223,27.635,45.602z"/>
		<path fill="#EBA352" d="M25.434,31.054c-1.207-0.344-2.426-0.215-3.494,0.266c0.459,0.029,0.92,0.098,1.381,0.229
			c3.529,1.006,5.664,4.739,4.941,8.473c0.43-0.578,0.766-1.248,0.957-2.004C29.992,34.988,28.299,31.871,25.434,31.054z"/>
	</g>
</g>
</svg>
