<?xml version="1.0" encoding="utf-8"?>
<!-- Generator: Adobe Illustrator 15.0.0, SVG Export Plug-In . SVG Version: 6.00 Build 0)  -->
<!DOCTYPE svg PUBLIC "-//W3C//DTD SVG 1.1//EN" "http://www.w3.org/Graphics/SVG/1.1/DTD/svg11.dtd">
<svg version="1.1" id="Layer_1" xmlns="http://www.w3.org/2000/svg" xmlns:xlink="http://www.w3.org/1999/xlink" x="0px" y="0px"
	 width="64px" height="64px" viewBox="0 0 64 64" enable-background="new 0 0 64 64" xml:space="preserve">
<g>
	<g>
		<g>
			<path fill="#FFDD67" d="M31.521,43.336h7.963V9.793c0-2.248-1.78-4.121-3.972-4.121h-0.021c-2.193,0-3.97,1.873-3.97,4.188
				V43.336z"/>
			<path fill="#FFDD67" d="M22.114,43.336h9.407V6.973c0-2.744-2.103-4.973-4.7-4.973l0,0c-2.598,0-4.707,2.229-4.707,4.973V43.336z
				"/>
			<path fill="#FFDD67" d="M13.913,43.336h8.201V9.107c0-2.391-1.834-4.328-4.094-4.328h-0.014c-2.262,0-4.094,1.938-4.094,4.328
				V43.336z"/>
			<path fill="#FFDD67" d="M10.172,9.908c-2.105,0-3.738,1.799-3.738,4.02v29.408h7.479V13.928
				C13.913,11.707,12.28,9.908,10.172,9.908L10.172,9.908z"/>
		</g>
		<path fill="#EBA352" d="M35.513,5.672h-0.021c-0.238,0-0.471,0.031-0.697,0.074c1.857,0.348,3.272,2.045,3.272,4.047v33.543h1.418
			V9.793C39.484,7.545,37.704,5.672,35.513,5.672z"/>
		<path fill="#EBA352" d="M26.821,2c-0.242,0-0.477,0.037-0.709,0.076c2.258,0.363,3.993,2.408,3.993,4.896v36.363h1.416V6.973
			C31.521,4.229,29.418,2,26.821,2z"/>
		<path fill="#EBA352" d="M18.02,4.779h-0.014c-0.24,0-0.473,0.031-0.701,0.074c1.924,0.354,3.393,2.117,3.393,4.254v34.229h1.416
			V9.107C22.114,6.717,20.28,4.779,18.02,4.779z"/>
		<path fill="#EBA352" d="M10.172,9.908c-0.244,0-0.479,0.029-0.707,0.074c1.752,0.354,3.029,1.982,3.029,3.945v29.408h1.418V13.928
			C13.913,11.707,12.28,9.908,10.172,9.908z"/>
	</g>
	<path fill="#FFDD67" d="M57.679,29.27c-1.557-3.066-6.576-2.914-11.693,2.711c-3.573,3.93-4.333,5.154-7.919,5.15v-4.117
		c0,0-7.688-5.738-22.994-3.119c0,0-8.715,1.225-8.715,5.754c0,0-1.48,11.104,1.596,18.084c4.582,10.398,28.114,13.139,35.537-4.559
		c1.476-3.518,4.468-6.135,7.147-9.428C53.866,35.777,59.384,32.633,57.679,29.27z"/>
	<g>
		<path fill="#EBA352" d="M57.679,29.27c-0.295-0.582-0.717-1.045-1.238-1.381c0.084,0.125,0.168,0.248,0.238,0.387
			c1.705,3.363-3.813,6.508-7.041,10.475c-2.68,3.295-5.671,5.912-7.147,9.43c-6.437,15.342-24.97,15.318-32.777,8.266
			c7.094,8.02,27.049,8.766,33.777-7.271c1.476-3.518,4.468-6.135,7.147-9.428C53.866,35.777,59.384,32.633,57.679,29.27z"/>
	</g>
	<g>
		<path fill="#EBA352" d="M20.639,50.152c0-6.092,4.609-11.035,10.341-11.18c-1.012-0.441-2.11-0.701-3.272-0.701
			c-4.768,0-8.635,4.084-8.635,9.121c0,2.203,0.746,4.213,1.975,5.789C20.79,52.217,20.639,51.205,20.639,50.152z"/>
		<path fill="#EBA352" d="M20.395,46.871c0.367-2.893-1.346-5.703-4.092-6.484c-0.436-0.125-0.873-0.188-1.303-0.201
			c1.002-0.854,2.361-1.207,3.695-0.826c2.219,0.633,3.531,3.047,2.932,5.393C21.413,45.602,20.973,46.324,20.395,46.871z"/>
	</g>
	<path fill="#EBA352" d="M38.348,33.201c-6.542-4.219-23.583-4.387-30.777,0C13.973,25.648,34.056,27.357,38.348,33.201z"/>
</g>
</svg>
