<?xml version="1.0" encoding="utf-8"?>
<!-- Generator: Adobe Illustrator 15.0.0, SVG Export Plug-In . SVG Version: 6.00 Build 0)  -->
<!DOCTYPE svg PUBLIC "-//W3C//DTD SVG 1.1//EN" "http://www.w3.org/Graphics/SVG/1.1/DTD/svg11.dtd">
<svg version="1.1" id="Layer_1" xmlns="http://www.w3.org/2000/svg" xmlns:xlink="http://www.w3.org/1999/xlink" x="0px" y="0px"
	 width="64px" height="64px" viewBox="0 0 64 64" enable-background="new 0 0 64 64" xml:space="preserve">
<g>
	<g>
		<g>
			<path fill="#8A6859" d="M45.144,34.783l-0.439-4.137c0,0-8.254-4.941-23.184-0.674c0,0-8.525,2.164-8.045,6.713
				c0,0-0.287,11.314,3.518,17.998c5.66,9.955,27.707,11.623,33.195-6.949C51.28,44.043,50.429,34.143,45.144,34.783z"/>
		</g>
		<g>
			<path fill="#8A6859" d="M29.753,33.025c0.24,2.262,2.285,3.896,4.566,3.65l0.035-0.004c2.283-0.246,3.941-2.279,3.701-4.539
				L35.245,5.686c-0.24-2.262-2.287-3.896-4.57-3.652L30.64,2.039c-2.281,0.244-3.938,2.277-3.697,4.539L29.753,33.025z"/>
			<path fill="#705041" d="M32.362,35.949l0.041-0.004c2.281-0.246,3.918-2.307,3.678-4.57L33.271,4.928
				C33.14,3.699,32.478,2.656,31.534,2c1.914,0.186,3.498,1.68,3.707,3.654l2.811,26.447c0.24,2.264-1.4,4.324-3.684,4.568
				l-0.035,0.004c-1.043,0.113-2.037-0.166-2.828-0.721C31.782,35.982,32.071,35.98,32.362,35.949z"/>
		</g>
		<g>
			<path fill="#8A6859" d="M37.47,32.357c-0.283,2.256,1.336,4.32,3.611,4.607l0.037,0.006c2.277,0.287,4.354-1.309,4.635-3.564
				l3.301-26.391c0.283-2.256-1.338-4.32-3.615-4.607l-0.035-0.006c-2.277-0.287-4.352,1.309-4.633,3.564L37.47,32.357z"/>
			<path fill="#705041" d="M39.341,35.807l0.043,0.006c2.275,0.287,4.338-1.34,4.623-3.6l3.297-26.389
				C47.456,4.6,47.05,3.43,46.282,2.572c1.822,0.623,3.021,2.443,2.775,4.416l-3.299,26.389c-0.283,2.258-2.35,3.883-4.627,3.596
				l-0.037-0.006c-1.041-0.131-1.941-0.633-2.588-1.355C38.771,35.703,39.052,35.77,39.341,35.807z"/>
		</g>
		<path fill="#8A6859" d="M13.028,32.398c-0.246-2.314,1.396-4.387,3.672-4.631l0.068-0.008c2.271-0.244,4.313,1.432,4.559,3.746
			l0.688,6.473c0.246,2.313-1.395,4.387-3.668,4.631l-0.068,0.008c-2.275,0.246-4.316-1.434-4.563-3.744L13.028,32.398z"/>
		<path fill="#8A6859" d="M20.831,27.76c-0.244-2.311,1.398-4.385,3.672-4.629l0.066-0.008c2.273-0.244,4.318,1.432,4.564,3.744
			l0.686,6.475c0.246,2.313-1.398,4.389-3.672,4.633l-0.066,0.006c-2.273,0.246-4.316-1.432-4.563-3.746L20.831,27.76z"/>
		<path fill="#705041" d="M16.944,41.189l0.055-0.006c2.271-0.244,3.861-2.285,3.615-4.598l-0.688-6.479
			c-0.068-0.625-0.27-1.201-0.564-1.707c1.064,0.658,1.824,1.795,1.969,3.154l0.689,6.479c0.244,2.311-1.34,4.326-3.615,4.57
			l-0.049,0.006c-1.664,0.18-3.195-0.656-4.002-2.025C15.106,41.047,16.005,41.291,16.944,41.189z"/>
		<path fill="#705041" d="M24.729,36.555l0.051-0.006c2.273-0.244,3.885-2.258,3.639-4.572l-0.689-6.479
			c-0.064-0.623-0.262-1.201-0.559-1.707c1.063,0.658,1.826,1.797,1.971,3.154l0.688,6.479c0.246,2.313-1.369,4.301-3.641,4.545
			l-0.053,0.006c-1.66,0.18-3.193-0.654-3.998-2.025C22.886,36.414,23.788,36.656,24.729,36.555z"/>
		<path fill="#705041" d="M39.673,30.826c-3.338-2.035-4.004,1.174-9.68,1.346c-2.484,0.074-3.592,5.342,0.172,7.25
			c5.238,2.654,5.648-1.104,6.924,0.361c1.357,1.557,2.635,1.861,3.779,3.666c0.832,1.309,7.328-0.711,8.014-3.398
			C50.202,34.893,44.97,34.057,39.673,30.826z"/>
		<path fill="#8A6859" d="M40.103,31.725c-3.469-2.117-4.162,1.221-10.07,1.4c-2.584,0.076-3.734,5.557,0.184,7.541
			c5.447,2.762,5.873-1.148,7.199,0.377c1.414,1.619,2.742,1.936,3.932,3.813c0.865,1.363-1.438,6.514-1.438,6.514
			s6.678,4.818,8.041,2.072c2.531-5.1,1.813-9.119,1.734-12.119C49.499,34.408,45.616,35.084,40.103,31.725z"/>
		<g>
			<path fill="#705041" d="M46.81,35.15c3.707,1.742,3.529,11.582,0.768,16.322c-6.875,11.789-21.922,11.596-29.059,5.283
				c6.615,7.242,22.641,7.957,30.109-4.262C51.62,47.602,52.554,36.391,46.81,35.15z"/>
		</g>
		<g>
			<path fill="#705041" d="M40.587,44.992c0.268,0.42,0.234,1.205,0.057,2.088c0.398-1.344,0.662-2.742,0.27-3.361
				c-1.189-1.877-1.863-2.264-3.273-3.883c-1.33-1.525-1.756,2.385-7.203-0.375c-2.014-1.021-2.682-2.965-2.51-4.625
				c-0.764,1.797-0.383,4.596,2.186,5.898c5.447,2.76,5.873-1.15,7.201,0.375C38.726,42.729,39.399,43.115,40.587,44.992z"/>
		</g>
	</g>
	<g>
		<path fill="#705041" d="M27.687,53.443c0-6.541,4.762-11.9,10.82-12.445c-0.738-0.205-1.51-0.328-2.311-0.328
			c-5.186,0-9.393,4.441-9.393,9.92c0,1.582,0.359,3.068,0.984,4.391C27.728,54.477,27.687,53.965,27.687,53.443z"/>
		<path fill="#705041" d="M25.831,41.188c-1.016-0.289-2.043-0.182-2.943,0.225c0.387,0.025,0.777,0.08,1.164,0.191
			c2.975,0.848,4.771,3.992,4.164,7.139c0.361-0.488,0.643-1.053,0.805-1.688C29.673,44.502,28.245,41.877,25.831,41.188z"/>
	</g>
</g>
</svg>
