<?xml version="1.0" encoding="utf-8"?>
<!-- Generator: Adobe Illustrator 15.0.0, SVG Export Plug-In . SVG Version: 6.00 Build 0)  -->
<!DOCTYPE svg PUBLIC "-//W3C//DTD SVG 1.1//EN" "http://www.w3.org/Graphics/SVG/1.1/DTD/svg11.dtd">
<svg version="1.1" id="Layer_1" xmlns="http://www.w3.org/2000/svg" xmlns:xlink="http://www.w3.org/1999/xlink" x="0px" y="0px"
	 width="64px" height="64px" viewBox="0 0 64 64" enable-background="new 0 0 64 64" xml:space="preserve">
<g>
	<path fill="#B58360" d="M20.647,54.983c1.041,1.092,7.857,1.012,9.146,0.236c2.461-1.48,19.938-22.352,4.764-28.516
		c-11.482-4.666-14.033,5.908-15.232,6.814C17.036,35.251,18.661,52.899,20.647,54.983z"/>
	<path fill="#D6A57C" d="M57.647,54.304c-17.361,0.102-8.898,2.594-22.834,2.594c-5.527,0-10.16-3.621-10.238-8.627l0.002-0.086
		c8.588-5.736-5.842-3.213-3.615-16.725c0.742-4.5,5.484-4.848,11.758-5.373c5.326-0.451,23.203,6.322,23.203,6.322
		C62.364,34.671,64.808,54.265,57.647,54.304z"/>
	<path fill="#D6A57C" d="M20.101,23.19c2.813-1.949,15.955,3.168,15.955,3.168L27.937,46.79c0,0-28.557-0.814-19.275-8.588
		C16.468,31.665,16.233,25.868,20.101,23.19z"/>
	<g>
		<path fill="#B58360" d="M7.759,39.063c-2.227,5.471,17.859,6.424,20.637,6.529l-0.477,1.197
			C27.919,46.79,1.528,46.034,7.759,39.063z"/>
	</g>
	<path fill="#B58360" d="M27.554,35.075c3.408,5.193,4.912,6.256,4.912,6.256s-3.436-0.777-5.691-4.201L27.554,35.075z"/>
	<path fill="#B58360" d="M27.354,33.972c1.488-0.002,0.037,7.344,1.701,9.318c-0.412,1.287-3.008,0.547-3.008,0.547
		s0.832-8.959,0.674-9.471L27.354,33.972z"/>
	<path fill="#B58360" d="M19.63,40.509l1.531,1.521c0,0,13.678-12.613,17.461-15.139l-4.453-1.045L19.63,40.509z"/>
	<g>
		<polygon fill="#428BC1" points="8.538,44.487 12.87,48.79 47.552,14.347 43.22,10.044 		"/>
		<polygon fill="#574137" points="43.948,10.767 46.823,13.624 50.616,9.856 47.741,6.999 		"/>
		<polygon fill="#574137" points="37.802,14.085 43.405,19.649 44.354,18.708 38.751,13.142 		"/>
		<polygon fill="#574137" points="28.837,21.507 29.581,22.249 38.751,13.142 38.003,12.401 		"/>
		<polygon fill="#A9B5AE" points="12.87,48.79 3.126,54.165 8.538,44.487 		"/>
		<polygon fill="#574137" points="2.003,54.579 2.708,55.28 4.712,53.29 4.007,52.589 		"/>
	</g>
	<g>
		<g>
			<path fill="#D6A57C" d="M39.437,51.429c0.199-0.574,0.318-1.135,0.371-1.68c0.131-0.313,0.232-0.639,0.309-0.977
				c0.959-4.26-15.334-7.096-15.334-7.096l-1.236-0.303c-2.627-0.609-8.289-1.344-12.49,3.51c-2.908,3.357,0.082,6.779,2.789,7.033
				c7.309,0.701,12.699,2.496,16.773,4.223C34.263,57.681,37.901,55.784,39.437,51.429z"/>
		</g>
		<path fill="#B58360" d="M23.548,42.946c-2.613-0.852-6.814-3.189-12.16,1.566c5.041-6.121,13.082-2.992,13.398-2.947
			c7.563,1.004,12.602-2.018,12.602-2.018C35.81,43.39,27.253,44.151,23.548,42.946z"/>
		<g>
			<path fill="#B58360" d="M35.347,55.638c13.934,0,5.473-2.492,22.832-2.592c1.547-0.01,2.734-1.465,3.439-2.926
				c-0.516,2.68-1.963,4.174-3.914,4.184c-17.359,0.102-8.959,2.695-22.893,2.695c-5.529,0-10.699-2.779-15.117-4.232
				C19.474,52.694,30.12,55.638,35.347,55.638z"/>
		</g>
	</g>
</g>
</svg>
