<?xml version="1.0" encoding="utf-8"?>
<!-- Generator: Adobe Illustrator 15.0.0, SVG Export Plug-In . SVG Version: 6.00 Build 0)  -->
<!DOCTYPE svg PUBLIC "-//W3C//DTD SVG 1.1//EN" "http://www.w3.org/Graphics/SVG/1.1/DTD/svg11.dtd">
<svg version="1.1" id="Layer_1" xmlns="http://www.w3.org/2000/svg" xmlns:xlink="http://www.w3.org/1999/xlink" x="0px" y="0px"
	 width="64px" height="64px" viewBox="0 0 64 64" enable-background="new 0 0 64 64" xml:space="preserve">
<g>
	<path fill="#EBA352" d="M20.645,54.984c1.041,1.092,7.857,1.012,9.146,0.236c2.461-1.48,19.938-22.352,4.764-28.516
		c-11.482-4.666-14.033,5.908-15.232,6.815C17.033,35.252,18.658,52.9,20.645,54.984z"/>
	<path fill="#FFDD67" d="M57.645,54.305c-17.361,0.102-8.898,2.594-22.834,2.594c-5.527,0-10.16-3.621-10.238-8.627l0.002-0.086
		c8.588-5.736-5.842-3.213-3.615-16.725c0.742-4.5,5.484-4.848,11.758-5.373c5.326-0.451,23.203,6.322,23.203,6.322
		C62.361,34.672,64.805,54.266,57.645,54.305z"/>
	<path fill="#FFDD67" d="M20.098,23.191c2.813-1.949,15.955,3.168,15.955,3.168l-8.119,20.432c0,0-28.557-0.814-19.275-8.588
		C16.465,31.666,16.23,25.869,20.098,23.191z"/>
	<g>
		<path fill="#EBA352" d="M7.756,39.064c-2.227,5.471,17.859,6.424,20.637,6.529l-0.477,1.197
			C27.916,46.791,1.525,46.035,7.756,39.064z"/>
	</g>
	<path fill="#EBA352" d="M27.551,35.076c3.408,5.193,4.912,6.256,4.912,6.256s-3.436-0.777-5.691-4.201L27.551,35.076z"/>
	<path fill="#EBA352" d="M27.352,33.973c1.488-0.002,0.037,7.344,1.701,9.318c-0.412,1.287-3.008,0.547-3.008,0.547
		s0.832-8.959,0.674-9.471L27.352,33.973z"/>
	<path fill="#EBA352" d="M19.627,40.51l1.531,1.521c0,0,13.678-12.614,17.461-15.139l-4.453-1.045L19.627,40.51z"/>
	<g>
		<polygon fill="#428BC1" points="8.535,44.488 12.867,48.791 47.549,14.347 43.217,10.044 		"/>
		<polygon fill="#574137" points="43.945,10.767 46.82,13.625 50.613,9.857 47.738,7 		"/>
		<polygon fill="#574137" points="37.799,14.085 43.402,19.65 44.352,18.708 38.748,13.142 		"/>
		<polygon fill="#574137" points="28.834,21.507 29.578,22.25 38.748,13.142 38,12.402 		"/>
		<polygon fill="#A9B5AE" points="12.867,48.791 3.123,54.166 8.535,44.488 		"/>
		<polygon fill="#574137" points="2,54.58 2.705,55.281 4.709,53.291 4.004,52.59 		"/>
	</g>
	<g>
		<g>
			<path fill="#FFDD67" d="M39.434,51.43c0.199-0.574,0.318-1.135,0.371-1.68c0.131-0.313,0.232-0.639,0.309-0.977
				c0.959-4.26-15.334-7.096-15.334-7.096l-1.236-0.303c-2.627-0.609-8.289-1.344-12.49,3.51c-2.908,3.357,0.082,6.779,2.789,7.033
				c7.309,0.701,12.699,2.496,16.773,4.223C34.26,57.682,37.898,55.785,39.434,51.43z"/>
		</g>
		<path fill="#EBA352" d="M23.545,42.947c-2.613-0.852-6.814-3.189-12.16,1.566c5.041-6.121,13.082-2.992,13.398-2.947
			c7.563,1.004,12.602-2.018,12.602-2.018C35.807,43.391,27.25,44.152,23.545,42.947z"/>
		<g>
			<path fill="#EBA352" d="M35.344,55.639c13.934,0,5.473-2.492,22.832-2.592c1.547-0.01,2.734-1.465,3.439-2.926
				c-0.516,2.68-1.963,4.174-3.914,4.184C40.342,54.406,48.742,57,34.809,57c-5.529,0-10.699-2.779-15.117-4.232
				C19.471,52.695,30.117,55.639,35.344,55.639z"/>
		</g>
	</g>
</g>
</svg>
