<?xml version="1.0" encoding="utf-8"?>
<!-- Generator: Adobe Illustrator 15.0.0, SVG Export Plug-In . SVG Version: 6.00 Build 0)  -->
<!DOCTYPE svg PUBLIC "-//W3C//DTD SVG 1.1//EN" "http://www.w3.org/Graphics/SVG/1.1/DTD/svg11.dtd">
<svg version="1.1" id="Layer_1" xmlns="http://www.w3.org/2000/svg" xmlns:xlink="http://www.w3.org/1999/xlink" x="0px" y="0px"
	 width="64px" height="64px" viewBox="0 0 64 64" enable-background="new 0 0 64 64" xml:space="preserve">
<g>
	<g>
		
			<rect x="8.783" y="22.086" transform="matrix(0.7072 -0.707 0.707 0.7072 -13.913 31.7254)" fill="#FFCE31" width="45.124" height="21.148"/>
		<path fill="#ED4C5C" d="M61.297,4.607l-1.901-1.903c-3.606-3.603-9.444-3.602-13.052,0l-6.52,6.526l14.95,14.951l6.522-6.523
			C64.902,14.055,64.899,8.213,61.297,4.607z"/>
		
			<rect x="42.375" y="8.174" transform="matrix(0.7071 -0.7071 0.7071 0.7071 -3.356934e-004 37.4914)" fill="#93A2AA" width="5.77" height="21.144"/>
		
			<rect x="42.375" y="10.435" transform="matrix(0.7071 -0.7071 0.7071 0.7071 -1.907349e-004 37.4917)" fill="#C7D3D8" width="5.771" height="16.621"/>
		<polygon fill="#FED0AC" points="7.913,41.135 1.437,58.089 5.895,62.573 22.866,56.089 		"/>
		<path fill="#333333" d="M0.297,61.051c-0.895,2.355,0.299,3.546,2.651,2.646l8.229-3.141l-7.729-7.733L0.297,61.051z"/>
	</g>
	
		<rect x="20.798" y="10.038" transform="matrix(0.7071 0.7071 -0.7071 0.7071 28.1358 -8.4946)" fill="#FFDF85" width="7.048" height="39.355"/>
	
		<rect x="30.765" y="20.005" transform="matrix(0.7071 0.7071 -0.7071 0.7071 38.1029 -12.6228)" fill="#FF8736" width="7.048" height="39.355"/>
</g>
</svg>
