<?xml version="1.0" encoding="utf-8"?>
<!-- Generator: Adobe Illustrator 15.0.0, SVG Export Plug-In . SVG Version: 6.00 Build 0)  -->
<!DOCTYPE svg PUBLIC "-//W3C//DTD SVG 1.1//EN" "http://www.w3.org/Graphics/SVG/1.1/DTD/svg11.dtd">
<svg version="1.1" id="Layer_1" xmlns="http://www.w3.org/2000/svg" xmlns:xlink="http://www.w3.org/1999/xlink" x="0px" y="0px"
	 width="64px" height="64px" viewBox="0 0 64 64" enable-background="new 0 0 64 64" xml:space="preserve">
<path fill="#94989B" d="M42.434,32l18.652-18.653c1.219-1.218,1.219-3.209,0-4.427L55.08,2.913c-1.217-1.218-3.209-1.218-4.427,0
	L32,21.566L13.347,2.913c-1.218-1.218-3.209-1.218-4.427,0L2.913,8.92c-1.217,1.218-1.217,3.209,0,4.427L21.566,32L2.913,50.654
	c-1.217,1.217-1.217,3.208,0,4.426l6.006,6.007c1.218,1.218,3.209,1.218,4.427,0L32,42.434l18.653,18.653
	c1.218,1.218,3.21,1.218,4.427,0l6.006-6.007c1.219-1.218,1.219-3.209,0-4.426L42.434,32z"/>
</svg>
