<?xml version="1.0" encoding="utf-8"?>
<!-- Generator: Adobe Illustrator 15.0.0, SVG Export Plug-In . SVG Version: 6.00 Build 0)  -->
<!DOCTYPE svg PUBLIC "-//W3C//DTD SVG 1.1//EN" "http://www.w3.org/Graphics/SVG/1.1/DTD/svg11.dtd">
<svg version="1.1" id="Layer_1" xmlns="http://www.w3.org/2000/svg" xmlns:xlink="http://www.w3.org/1999/xlink" x="0px" y="0px"
	 width="64px" height="64px" viewBox="0 0 64 64" enable-background="new 0 0 64 64" xml:space="preserve">
<g>
	<path fill="#3E4347" d="M57,22.776c0,0-1.88-1.567-4.599-2.438c-0.754-2.49-2.626-4.253-4.816-4.253
		c-0.94,0-1.823,0.326-2.584,0.896c0.872,0.651,1.58,1.622,2.035,2.788H35.301V9.078c1.279,0.414,2.347,1.061,3.061,1.854
		c0.626-0.693,0.983-1.497,0.983-2.355c0-1.995-1.936-3.7-4.668-4.387C33.72,1.713,31.999,0,31.999,0s-1.72,1.712-2.678,4.189
		c-2.732,0.687-4.667,2.392-4.667,4.387c0,0.858,0.356,1.662,0.983,2.355c0.714-0.793,1.781-1.44,3.061-1.854v10.691H16.963
		c0.454-1.167,1.164-2.137,2.034-2.788c-0.76-0.57-1.642-0.896-2.584-0.896c-2.19,0-4.062,1.763-4.816,4.253
		C8.879,21.209,7,22.776,7,22.776s1.879,1.568,4.597,2.44c0.755,2.489,2.626,4.252,4.816,4.252c0.942,0,1.824-0.326,2.584-0.896
		c-0.87-0.651-1.58-1.622-2.034-2.79h11.735v12.433v16.707c-1.279-0.414-2.347-1.061-3.061-1.854
		c-0.627,0.693-0.983,1.496-0.983,2.354c0,1.996,1.935,3.701,4.667,4.387C30.279,62.288,31.999,64,31.999,64
		s1.721-1.712,2.678-4.189c2.732-0.686,4.668-2.391,4.668-4.387c0-0.857-0.357-1.66-0.983-2.354
		c-0.714,0.793-1.781,1.439-3.061,1.854V38.217V25.784h11.735c-0.455,1.167-1.163,2.138-2.035,2.79
		c0.761,0.569,1.644,0.896,2.584,0.896c2.19,0,4.063-1.764,4.816-4.252C55.12,24.344,57,22.776,57,22.776z"/>
</g>
</svg>
