<?xml version="1.0" encoding="utf-8"?>
<!-- Generator: Adobe Illustrator 15.0.0, SVG Export Plug-In . SVG Version: 6.00 Build 0)  -->
<!DOCTYPE svg PUBLIC "-//W3C//DTD SVG 1.1//EN" "http://www.w3.org/Graphics/SVG/1.1/DTD/svg11.dtd">
<svg version="1.1" id="Layer_1" xmlns="http://www.w3.org/2000/svg" xmlns:xlink="http://www.w3.org/1999/xlink" x="0px" y="0px"
	 width="64px" height="64px" viewBox="0 0 64 64" enable-background="new 0 0 64 64" xml:space="preserve">
<g>
	<g>
		<path fill="#FFE54D" d="M22,0c0,16.889-9.127,32-22,32c12.873,0,22,15.111,22,32c0-16.889,9.127-32,22-32
			C31.127,32,22,16.889,22,0z"/>
	</g>
	<g>
		<path fill="#6ADBC6" d="M53,0c0,8.445-4.563,16-11,16c6.437,0,11,7.556,11,16c0-8.444,4.563-16,11-16C57.563,16,53,8.445,53,0z"/>
	</g>
	<g>
		<path fill="#FF73C0" d="M48,32c0,8.445-4.563,16-11,16c6.437,0,11,7.556,11,16c0-8.444,4.563-16,11-16C52.563,48,48,40.445,48,32z
			"/>
	</g>
</g>
</svg>
