<?xml version="1.0" encoding="utf-8"?>
<!-- Generator: Adobe Illustrator 15.0.0, SVG Export Plug-In . SVG Version: 6.00 Build 0)  -->
<!DOCTYPE svg PUBLIC "-//W3C//DTD SVG 1.1//EN" "http://www.w3.org/Graphics/SVG/1.1/DTD/svg11.dtd">
<svg version="1.1" id="Layer_1" xmlns="http://www.w3.org/2000/svg" xmlns:xlink="http://www.w3.org/1999/xlink" x="0px" y="0px"
	 width="64px" height="64px" viewBox="0 0 64 64" enable-background="new 0 0 64 64" xml:space="preserve">
<path fill="#42ADE2" d="M60.825,30.826c-0.934,0-1.867,0-2.801,0c-1.75,0-3.5,0-5.25,0c0.604-0.605,1.209-1.211,1.814-1.816
	c0.998-0.998,1.996-1.996,2.994-2.992c0.453-0.453,0.453-1.209,0-1.662s-1.209-0.453-1.662,0c-1.273,1.273-2.547,2.547-3.82,3.82
	c-0.883,0.883-1.767,1.766-2.65,2.65c-2.973,0-5.945,0-8.918,0c-1.898,0-3.797,0-5.695,0c0.658-0.66,1.317-1.318,1.977-1.977
	c1.818-1.818,3.636-3.637,5.453-5.455c0.97-0.969,1.939-1.939,2.909-2.908c1.638,0,3.274,0,4.911,0c1.411,0,2.822,0,4.234,0
	c0.641,0,1.175-0.535,1.175-1.176s-0.534-1.174-1.175-1.174c-1.802,0-3.603,0-5.404,0c-0.463,0-0.928,0-1.391,0
	c1.051-1.053,2.104-2.105,3.156-3.156c0.713-0.715,1.428-1.43,2.142-2.143c0.13-0.131,0.259-0.26,0.389-0.389
	c0.453-0.453,0.453-1.209,0-1.662c-0.452-0.453-1.208-0.453-1.661,0c-0.34,0.34-0.679,0.68-1.019,1.018
	c-0.927,0.928-1.854,1.855-2.781,2.781c-0.629,0.631-1.259,1.26-1.888,1.889c0-0.854,0-1.707,0-2.561c0-1.412,0-2.824,0-4.234
	c0-0.641-0.535-1.176-1.175-1.176c-0.641,0-1.175,0.535-1.175,1.176c0,1.801,0,3.602,0,5.402c0,1.248,0,2.496,0,3.742
	c-1.659,1.658-3.317,3.318-4.977,4.977c-1.787,1.787-3.575,3.576-5.363,5.363c0-0.014,0-0.027,0-0.041c0-3.668,0-7.334,0-11.002
	c0-1.189,0-2.381,0-3.572c1.159-1.158,2.318-2.316,3.477-3.477c0.998-0.998,1.996-1.994,2.994-2.992
	c0.453-0.453,0.453-1.209,0-1.662s-1.209-0.453-1.662,0c-1.273,1.273-2.547,2.547-3.82,3.82c-0.33,0.33-0.658,0.658-0.988,0.988
	c0-0.686,0-1.371,0-2.055c0-1.754,0-3.508,0-5.262c0-0.244,0-0.49,0-0.734C33.175,2.535,32.641,2,32,2s-1.175,0.535-1.175,1.176
	c0,0.934,0,1.867,0,2.801c0,1.75,0,3.5,0,5.25c-0.605-0.605-1.21-1.211-1.815-1.814c-0.997-0.998-1.995-1.996-2.993-2.994
	c-0.453-0.453-1.209-0.453-1.662,0s-0.453,1.209,0,1.662c1.273,1.273,2.547,2.547,3.82,3.82c0.884,0.883,1.768,1.766,2.65,2.648
	c0,2.975,0,5.947,0,8.92c0,1.898,0,3.797,0,5.695c-0.659-0.658-1.318-1.318-1.977-1.977c-1.818-1.818-3.637-3.637-5.454-5.453
	c-0.97-0.971-1.939-1.939-2.909-2.91c0-1.637,0-3.273,0-4.91c0-1.412,0-2.824,0-4.234c0-0.641-0.534-1.176-1.175-1.176
	c-0.64,0-1.175,0.535-1.175,1.176c0,1.801,0,3.602,0,5.402c0,0.465,0,0.928,0,1.393c-1.052-1.053-2.104-2.104-3.156-3.156
	c-0.714-0.715-1.428-1.428-2.143-2.143c-0.129-0.129-0.259-0.26-0.389-0.389c-0.453-0.453-1.209-0.453-1.662,0s-0.453,1.209,0,1.662
	c0.339,0.34,0.679,0.678,1.018,1.018c0.927,0.928,1.854,1.854,2.781,2.781c0.629,0.629,1.259,1.26,1.888,1.889
	c-0.854,0-1.708,0-2.561,0c-1.412,0-2.823,0-4.234,0c-0.641,0-1.175,0.533-1.175,1.174s0.535,1.176,1.175,1.176
	c1.801,0,3.602,0,5.403,0c1.247,0,2.494,0,3.742,0c1.658,1.658,3.317,3.316,4.976,4.977c1.788,1.787,3.576,3.574,5.363,5.363
	c-0.014,0-0.027,0-0.041,0c-3.667,0-7.334,0-11.001,0c-1.19,0-2.381,0-3.572,0c-1.159-1.16-2.318-2.318-3.477-3.477
	c-0.998-0.998-1.996-1.996-2.994-2.994c-0.453-0.453-1.209-0.453-1.662,0s-0.453,1.209,0,1.662c1.273,1.273,2.547,2.547,3.821,3.82
	c0.329,0.328,0.659,0.658,0.988,0.988c-0.685,0-1.37,0-2.056,0c-1.753,0-3.507,0-5.261,0c-0.245,0-0.489,0-0.734,0
	C2.535,30.826,2,31.359,2,32s0.535,1.176,1.175,1.176c0.934,0,1.868,0,2.802,0c1.75,0,3.5,0,5.25,0
	c-0.605,0.605-1.21,1.209-1.815,1.814c-0.998,0.998-1.996,1.996-2.994,2.994c-0.453,0.453-0.453,1.209,0,1.662
	c0.453,0.451,1.208,0.451,1.662,0c1.273-1.273,2.547-2.547,3.821-3.822c0.883-0.883,1.766-1.766,2.649-2.648
	c2.973,0,5.946,0,8.918,0c1.898,0,3.797,0,5.695,0c-0.658,0.658-1.317,1.318-1.977,1.977c-1.818,1.818-3.636,3.635-5.453,5.453
	c-0.971,0.971-1.939,1.939-2.909,2.91c-1.637,0-3.274,0-4.911,0c-1.412,0-2.823,0-4.234,0c-0.641,0-1.175,0.533-1.175,1.174
	s0.535,1.176,1.175,1.176c1.801,0,3.602,0,5.403,0c0.464,0,0.928,0,1.392,0c-1.052,1.051-2.104,2.104-3.156,3.156
	c-0.714,0.713-1.428,1.428-2.142,2.143c-0.13,0.129-0.259,0.258-0.389,0.389c-0.453,0.451-0.453,1.209,0,1.66
	c0.453,0.453,1.209,0.453,1.662,0c0.339-0.338,0.679-0.678,1.018-1.018c0.927-0.928,1.854-1.854,2.781-2.781
	c0.629-0.629,1.259-1.258,1.888-1.889c0,0.855,0,1.709,0,2.563c0,1.41,0,2.822,0,4.234c0,0.639,0.535,1.174,1.175,1.174
	c0.641,0,1.175-0.535,1.175-1.174c0-1.803,0-3.604,0-5.404c0-1.248,0-2.494,0-3.742c1.659-1.658,3.317-3.316,4.977-4.975
	c1.787-1.789,3.575-3.576,5.363-5.363c0,0.014,0,0.027,0,0.041c0,3.666,0,7.334,0,11c0,1.191,0,2.381,0,3.572
	c-1.159,1.158-2.318,2.318-3.477,3.477c-0.998,0.998-1.996,1.996-2.994,2.994c-0.453,0.453-0.453,1.209,0,1.662
	c0.453,0.451,1.209,0.451,1.662,0c1.273-1.273,2.547-2.549,3.82-3.822c0.33-0.328,0.658-0.658,0.988-0.988c0,0.686,0,1.371,0,2.057
	c0,1.754,0,3.508,0,5.262c0,0.244,0,0.488,0,0.734C30.825,61.467,31.359,62,32,62s1.175-0.533,1.175-1.174c0-0.934,0-1.869,0-2.803
	c0-1.75,0-3.5,0-5.25c0.605,0.605,1.21,1.211,1.815,1.816c0.997,0.998,1.995,1.996,2.993,2.994c0.453,0.451,1.209,0.451,1.662,0
	c0.453-0.453,0.453-1.209,0-1.662c-1.273-1.273-2.547-2.547-3.82-3.82c-0.884-0.885-1.768-1.768-2.65-2.65c0-2.973,0-5.945,0-8.918
	c0-1.898,0-3.797,0-5.695c0.659,0.658,1.318,1.316,1.977,1.977c1.818,1.816,3.637,3.635,5.454,5.453
	c0.97,0.969,1.939,1.939,2.909,2.908c0,1.639,0,3.275,0,4.912c0,1.41,0,2.822,0,4.234c0,0.639,0.534,1.174,1.175,1.174
	c0.64,0,1.175-0.535,1.175-1.174c0-1.803,0-3.604,0-5.404c0-0.465,0-0.928,0-1.393c1.053,1.053,2.104,2.105,3.156,3.156
	c0.714,0.715,1.428,1.43,2.143,2.143c0.129,0.131,0.259,0.26,0.389,0.389c0.453,0.453,1.209,0.453,1.661,0
	c0.453-0.451,0.453-1.209,0-1.66c-0.339-0.34-0.679-0.68-1.018-1.02c-0.927-0.926-1.854-1.854-2.782-2.781
	c-0.629-0.629-1.258-1.258-1.887-1.887c0.854,0,1.707,0,2.561,0c1.411,0,2.822,0,4.234,0c0.641,0,1.175-0.535,1.175-1.176
	s-0.534-1.174-1.175-1.174c-1.802,0-3.603,0-5.404,0c-1.246,0-2.494,0-3.741,0c-1.659-1.66-3.317-3.318-4.976-4.977
	c-1.788-1.787-3.576-3.576-5.363-5.363c0.014,0,0.027,0,0.041,0c3.667,0,7.334,0,11.001,0c1.19,0,2.382,0,3.571,0
	c1.159,1.158,2.318,2.318,3.477,3.477c0.998,0.998,1.996,1.996,2.994,2.994c0.453,0.451,1.209,0.451,1.662,0
	c0.453-0.453,0.453-1.209,0-1.662c-1.273-1.273-2.547-2.547-3.821-3.82c-0.329-0.33-0.658-0.66-0.987-0.988c0.685,0,1.37,0,2.055,0
	c1.754,0,3.508,0,5.262,0c0.244,0,0.489,0,0.734,0C61.466,33.176,62,32.641,62,32S61.466,30.826,60.825,30.826z"/>
</svg>
