<?xml version="1.0" encoding="utf-8"?>
<!-- Generator: Adobe Illustrator 15.0.0, SVG Export Plug-In . SVG Version: 6.00 Build 0)  -->
<!DOCTYPE svg PUBLIC "-//W3C//DTD SVG 1.1//EN" "http://www.w3.org/Graphics/SVG/1.1/DTD/svg11.dtd">
<svg version="1.1" id="Layer_1" xmlns="http://www.w3.org/2000/svg" xmlns:xlink="http://www.w3.org/1999/xlink" x="0px" y="0px"
	 width="64px" height="64px" viewBox="0 0 64 64" enable-background="new 0 0 64 64" xml:space="preserve">
<g>
	<ellipse fill="#ED4C5C" cx="28.2" cy="55.809" rx="8.128" ry="8.191"/>
	<path fill="#ED4C5C" d="M47.334,6.436C43.119,2.165,37.959,0,32,0c-6.011,0-11.17,2.14-15.324,6.35
		c-4.213,4.213-6.35,9.369-6.35,15.324c0,1.196,0.971,2.167,2.168,2.167h9.753c1.197,0,2.167-0.971,2.167-2.167
		c0-2.072,0.722-3.822,2.185-5.326c1.521-1.521,3.288-2.26,5.401-2.26c2.062,0,3.804,0.739,5.324,2.26
		c1.521,1.522,2.262,3.264,2.262,5.326c0,2.113-0.74,3.879-2.238,5.38c-1.525,1.483-3.275,2.205-5.347,2.205h-9.753
		c-1.197,0-2.168,0.971-2.168,2.168v9.753c0,1.196,0.971,2.167,2.168,2.167H32c5.955,0,11.085-2.11,15.238-6.263
		c4.27-4.216,6.436-9.4,6.436-15.41C53.674,15.714,51.533,10.58,47.334,6.436z"/>
</g>
</svg>
