<?xml version="1.0" encoding="utf-8"?>
<!-- Generator: Adobe Illustrator 15.0.0, SVG Export Plug-In . SVG Version: 6.00 Build 0)  -->
<!DOCTYPE svg PUBLIC "-//W3C//DTD SVG 1.1//EN" "http://www.w3.org/Graphics/SVG/1.1/DTD/svg11.dtd">
<svg version="1.1" id="Layer_1" xmlns="http://www.w3.org/2000/svg" xmlns:xlink="http://www.w3.org/1999/xlink" x="0px" y="0px"
	 width="64px" height="64px" viewBox="0 0 64 64" enable-background="new 0 0 64 64" xml:space="preserve">
<g>
	<ellipse fill="#94989B" cx="28.2" cy="55.862" rx="8.093" ry="8.154"/>
	<path fill="#94989B" d="M47.334,6.487C43.119,2.218,37.959,0.052,32,0.052c-6.011,0-11.17,2.141-15.324,6.35
		c-4.213,4.213-6.35,9.369-6.35,15.324c0,1.197,0.971,2.168,2.168,2.168h9.753c1.197,0,2.167-0.971,2.167-2.168
		c0-2.072,0.722-3.822,2.185-5.326c1.521-1.52,3.288-2.26,5.401-2.26c2.062,0,3.804,0.74,5.324,2.26
		c1.521,1.523,2.262,3.264,2.262,5.326c0,2.113-0.74,3.879-2.238,5.381c-1.525,1.482-3.275,2.205-5.347,2.205h-9.753
		c-1.197,0-2.168,0.971-2.168,2.168v9.752c0,1.197,0.971,2.168,2.168,2.168H32c5.955,0,11.085-2.111,15.238-6.264
		c4.27-4.215,6.436-9.4,6.436-15.41C53.674,15.767,51.533,10.632,47.334,6.487z"/>
</g>
</svg>
