<?xml version="1.0" encoding="utf-8"?>
<!-- Generator: Adobe Illustrator 15.0.0, SVG Export Plug-In . SVG Version: 6.00 Build 0)  -->
<!DOCTYPE svg PUBLIC "-//W3C//DTD SVG 1.1//EN" "http://www.w3.org/Graphics/SVG/1.1/DTD/svg11.dtd">
<svg version="1.1" id="Layer_1" xmlns="http://www.w3.org/2000/svg" xmlns:xlink="http://www.w3.org/1999/xlink" x="0px" y="0px"
	 width="64px" height="64px" viewBox="0 0 64 64" enable-background="new 0 0 64 64" xml:space="preserve">
<path fill="#94989B" d="M58.042,21.69c1.741-0.19,3.729-0.322,5.958-0.334v-5.21c-6.476,0.036-11.188,0.977-13.836,1.689
	C44.352,15.955,38.274,15,32.039,15c-6.363,0-12.557,0.989-18.471,2.942C10.637,17.28,5.557,16.337,0,16.221v5.084
	c2.093,0.052,4.125,0.23,5.982,0.467c-3.563,2.795-5.854,7.124-5.854,11.975C0.128,42.157,7.006,49,15.455,49
	c8.456,0,15.334-6.843,15.334-15.254c0-5.417-2.857-10.18-7.149-12.888c2.756-0.43,5.557-0.648,8.399-0.648
	c2.854,0,5.669,0.222,8.438,0.657c-4.283,2.706-7.134,7.468-7.134,12.879c0,8.411,6.875,15.254,15.33,15.254
	C57.122,49,64,42.157,64,33.746C64,28.846,61.664,24.482,58.042,21.69z M25.676,33.746c0,5.607-4.583,10.169-10.221,10.169
	c-5.631,0-10.217-4.562-10.217-10.169c0-5.606,4.586-10.166,10.217-10.166C21.093,23.58,25.676,28.14,25.676,33.746z M48.673,43.915
	c-5.637,0-10.221-4.562-10.221-10.169c0-5.606,4.584-10.166,10.221-10.166c5.631,0,10.217,4.56,10.217,10.166
	C58.89,39.354,54.304,43.915,48.673,43.915z"/>
</svg>
