<?xml version="1.0" encoding="utf-8"?>
<!-- Generator: Adobe Illustrator 15.0.0, SVG Export Plug-In . SVG Version: 6.00 Build 0)  -->
<!DOCTYPE svg PUBLIC "-//W3C//DTD SVG 1.1//EN" "http://www.w3.org/Graphics/SVG/1.1/DTD/svg11.dtd">
<svg version="1.1" id="Layer_1" xmlns="http://www.w3.org/2000/svg" xmlns:xlink="http://www.w3.org/1999/xlink" x="0px" y="0px"
	 width="64px" height="64px" viewBox="0 0 64 64" enable-background="new 0 0 64 64" xml:space="preserve">
<g>
	<path fill="#94989B" d="M48,42c-5.967,0-10.821-4.669-10.821-10.404c0-2.747-2.321-4.98-5.179-4.98s-5.179,2.233-5.179,4.98
		C26.821,37.331,21.967,42,16,42S5.179,37.331,5.179,31.596c0-1.412-0.629-2.766-1.724-3.709C2.506,27.064,1.277,26.615,0,26.615V22
		c2.463,0,4.828,0.871,6.661,2.449c2.106,1.819,3.319,4.423,3.319,7.146c0,3.191,2.699,5.787,6.02,5.787s6.02-2.596,6.02-5.787
		C22.02,26.305,26.498,22,32,22s9.98,4.305,9.98,9.596c0,3.191,2.699,5.787,6.02,5.787s6.02-2.596,6.02-5.787
		c0-2.724,1.213-5.327,3.32-7.146C59.172,22.871,61.537,22,64,22v4.615c-1.277,0-2.506,0.449-3.453,1.271
		c-1.096,0.943-1.725,2.297-1.725,3.709C58.822,37.331,53.967,42,48,42z"/>
</g>
</svg>
