<?xml version="1.0" encoding="utf-8"?>
<!-- Generator: Adobe Illustrator 15.0.0, SVG Export Plug-In . SVG Version: 6.00 Build 0)  -->
<!DOCTYPE svg PUBLIC "-//W3C//DTD SVG 1.1//EN" "http://www.w3.org/Graphics/SVG/1.1/DTD/svg11.dtd">
<svg version="1.1" id="Layer_1" xmlns="http://www.w3.org/2000/svg" xmlns:xlink="http://www.w3.org/1999/xlink" x="0px" y="0px"
	 width="64px" height="64px" viewBox="0 0 64 64" enable-background="new 0 0 64 64" xml:space="preserve">
<path fill="#FFB031" d="M60.146,54.634c-14.061-8.682-16.969-24.088-18.702-39.227C41.064,12.096,39.1,5.048,34.082,8.39
	c-2.037,1.355-3.083,3.558-4.265,5.621c-1.354,2.367-2.869,4.558-4.625,6.536c-0.313-5.075-0.831-10.212-2.314-14.856
	c-1.144-3.582-5.334-5.153-7.992-1.972c-2.086,2.496-3.907,10.282-8.033,9.08c-4.873-1.419-6.938,6.131-2.088,7.544
	c4.295,1.251,8.079-0.104,11.037-3.358c0.41-0.452,0.785-0.935,1.142-1.432c0.522,4.406,0.579,8.974,0.851,13.188
	c0.178,2.742,3.275,5.158,5.909,3.378c4.475-3.027,7.69-6.679,10.557-10.787c0.101,0.868,0.196,1.736,0.316,2.602
	c2.081,15.102,8.167,29.159,21.605,37.456C60.499,64.056,64.44,57.285,60.146,54.634z"/>
</svg>
