<?xml version="1.0" encoding="utf-8"?>
<!-- Generator: Adobe Illustrator 15.0.0, SVG Export Plug-In . SVG Version: 6.00 Build 0)  -->
<!DOCTYPE svg PUBLIC "-//W3C//DTD SVG 1.1//EN" "http://www.w3.org/Graphics/SVG/1.1/DTD/svg11.dtd">
<svg version="1.1" id="Layer_1" xmlns="http://www.w3.org/2000/svg" xmlns:xlink="http://www.w3.org/1999/xlink" x="0px" y="0px"
	 width="64px" height="64px" viewBox="0 0 64 64" enable-background="new 0 0 64 64" xml:space="preserve">
<g>
	<circle fill="#ED4C5C" cx="32" cy="32" r="30"/>
	<g>
		<path fill="#FFFFFF" d="M25.842,37.545c-0.318-0.656-0.794-1.639-1.375-2.623V50h-4.389V36.508
			c-1.162,3.004-2.483,5.68-3.963,7.592c-0.371-1.42-1.375-3.551-2.115-4.861c1.956-2.35,3.858-6.337,5.128-10.106h-4.547v-4.589
			h5.497v-4.097c-1.531,0.272-3.013,0.491-4.439,0.655c-0.212-1.093-0.793-2.732-1.375-3.823c4.071-0.602,8.723-1.64,11.419-3.005
			l3.226,3.715c-1.323,0.601-2.854,1.092-4.441,1.529v5.025h3.699v4.589h-3.699v0.327c0.898,0.875,3.014,3.168,3.912,4.261
			c0.422-2.021,0.688-4.261,0.845-6.336l3.543,0.874c-0.317,4.425-0.952,9.451-2.749,12.51l-3.383-1.803
			c0.633-1.201,1.162-2.678,1.531-4.315L25.842,37.545z"/>
		<path fill="#FFFFFF" d="M45.612,39.566c-0.105-2.404-0.846-5.736-1.85-8.797c-1.745,3.88-3.807,7.322-6.239,10.326v2.459
			c0,1.529,0.159,1.748,1.217,1.748h3.172c1.004,0,1.216-0.766,1.375-5.682c0.95,0.766,2.695,1.529,3.963,1.803
			c-0.422,6.445-1.585,8.193-4.861,8.193h-4.283c-3.331,0-4.599-0.928-4.916-3.934c-1.321,1.148-2.696,2.24-4.123,3.225
			c-0.688-0.93-2.539-2.732-3.543-3.553c2.855-1.746,5.393-3.822,7.561-6.281V22.304h4.439v10.598
			c2.802-4.808,4.76-10.489,6.081-16.936l4.651,0.874c-0.847,3.771-1.851,7.267-3.066,10.489l1.639-0.437
			c1.639,3.551,2.908,8.248,3.172,11.363L45.612,39.566z"/>
		<path fill="#FFFFFF" d="M39.111,23.177c-1.482-1.802-4.652-4.369-7.402-6.009L34.723,14c2.696,1.475,5.974,3.823,7.561,5.682
			L39.111,23.177z"/>
	</g>
</g>
</svg>
