<?xml version="1.0" encoding="utf-8"?>
<!-- Generator: Adobe Illustrator 15.0.0, SVG Export Plug-In . SVG Version: 6.00 Build 0)  -->
<!DOCTYPE svg PUBLIC "-//W3C//DTD SVG 1.1//EN" "http://www.w3.org/Graphics/SVG/1.1/DTD/svg11.dtd">
<svg version="1.1" id="Layer_1" xmlns="http://www.w3.org/2000/svg" xmlns:xlink="http://www.w3.org/1999/xlink" x="0px" y="0px"
	 width="64px" height="64px" viewBox="0 0 64 64" enable-background="new 0 0 64 64" xml:space="preserve">
<g>
	<g>
		<ellipse fill="#FFFFFF" cx="32.011" cy="32" rx="29.254" ry="29.268"/>
	</g>
	<path fill="#4A4E51" d="M61.932,31.993c0.021-0.714,0.209-10.904-5.822-17.538c-0.268-0.593-1.539-2.983-5.64-5.904v0
		c-2.712-2.135-5.544-3.642-5.775-3.763l0,0c0,0,0,0-0.001,0c0-0.001-0.006-0.003-0.006-0.004l0,0C44.432,4.646,39.43,2,33.358,2
		c-0.459,0-0.915,0.027-1.366,0.058V2.05c-4.628-0.101-8.804,1.147-11.909,2.476l0.007-0.006l-0.025,0.014
		c-3.206,1.374-5.258,2.828-5.456,2.972c-3.402,1.905-9.858,9.545-10.369,13.595c-2.063,2.638-3.787,14.481,0.003,21.696
		c2.658,10.027,12.663,15.045,13.459,15.431c0.484,0.308,5.937,3.679,12.636,3.679c0.281,0,0.566-0.007,0.852-0.02
		C31.743,61.963,32.32,62,32.926,62c7.24,0,17.97-5.104,20.214-9.102C59.311,48.385,62.51,36.753,61.932,31.993z M17.759,47.055
		c-2.869-4.64-4.503-10.705-4.854-12.098c0.908-1.36,5.387-7.964,7.94-9.951c1.445,0.266,7.478,1.373,13.168,2.404
		c0.715,1.852,3.851,10.029,4.75,13.185c-0.992,1.173-4.879,5.702-8.707,9.247C25.991,49.862,19.077,47.517,17.759,47.055z
		 M53.822,14.58c-0.012,0.45-0.119,2.05-0.885,3.887c-1.52-0.777-5.344-2.441-10.582-2.722c-0.793-1.171-3.777-5.254-8.49-8.086
		c0.645-1.262,1.543-2.801,2.067-3.27c0.171-0.048,0.435-0.092,0.836-0.092c2.526,0,6.892,1.655,7.274,1.802
		C44.443,6.313,52.291,10.539,53.822,14.58z M11.776,34.013c-3.424-0.585-5.46-1.648-6.067-2.009
		C4.436,27.387,5.46,22.397,5.62,21.683c1.254-2.246,4.832-7.971,7.19-9.058c2.446-0.499,5.494,0.121,6.736,0.424
		c-0.118,1.615-0.342,6.127,0.326,10.862C17.165,26.089,12.883,32.357,11.776,34.013z M31.686,3.531
		c0.768,0.057,1.894,0.225,2.666,0.454c-0.77,1.024-1.558,2.542-1.931,3.292c-1.57,0.257-7.533,1.397-12.211,4.43
		c-0.943-0.25-3.79-0.917-6.486-0.687c0.667-1.293,1.666-2.249,1.772-2.347c0.372-0.266,7.514-5.263,16.191-5.155V3.531z
		 M50.779,41.623c-1.17-0.047-5.677-0.305-10.619-1.465c-0.947-3.302-4.074-11.445-4.789-13.296
		c3.065-4.382,6.086-8.511,6.927-9.655c5.688,0.312,9.681,2.387,10.455,2.82c3.294,5.298,4.017,10.711,4.116,11.616
		C55.119,37.089,51.659,40.756,50.779,41.623z M3.657,28.52c0.084,1.266,0.286,2.598,0.653,3.916
		c-0.338,0.863-0.555,1.76-0.68,2.652C3.404,32.826,3.445,30.543,3.657,28.52z M18.457,56.973l-0.379,0.587l0.303-0.63
		c-2.43-1.185-4.373-3.947-5.08-5.051c1.506-1.453,3.366-2.867,4.087-3.402c1.63,0.574,8.324,2.838,12.591,2.838
		c0.726,0.975,3.102,4.028,6.016,6.361c-1.814,1.775-4.432,2.614-4.896,2.752C24.347,60.707,18.516,57.01,18.457,56.973z
		 M34.762,60.416c0.922-0.537,1.882-1.244,2.678-2.139c1.297-0.178,6.863-1.137,11.893-4.832c0.33,0.037,0.877,0.08,1.488,0.063
		C47.804,56.466,40.441,59.768,34.762,60.416z M50.185,52.041c1.806-4.709,1.729-8.258,1.641-9.392
		c0.991-0.972,4.396-4.599,6.284-10.113c1.019,0.169,1.68,0.429,1.994,0.574c0.109,0.399,0.291,1.324,0.187,2.725
		c-0.769,5.042-3.427,12.599-8.083,15.94C51.741,52.014,50.918,52.067,50.185,52.041z"/>
</g>
</svg>
