<?xml version="1.0" encoding="utf-8"?>
<!-- Generator: Adobe Illustrator 15.0.0, SVG Export Plug-In . SVG Version: 6.00 Build 0)  -->
<!DOCTYPE svg PUBLIC "-//W3C//DTD SVG 1.1//EN" "http://www.w3.org/Graphics/SVG/1.1/DTD/svg11.dtd">
<svg version="1.1" id="Layer_1" xmlns="http://www.w3.org/2000/svg" xmlns:xlink="http://www.w3.org/1999/xlink" x="0px" y="0px"
	 width="64px" height="64px" viewBox="0 0 64 64" enable-background="new 0 0 64 64" xml:space="preserve">
<g>
	<g>
		<path fill="#699635" d="M61.536,26.768C59.059,12.695,46.783,2,32,2C17.217,2,4.941,12.695,2.464,26.768L32,12L61.536,26.768z"/>
		<path fill="#699635" d="M2.464,37.232C4.941,51.305,17.217,62,32,62c14.783,0,27.059-10.695,29.536-24.768L32,52L2.464,37.232z"/>
		<path fill="#FFE62E" d="M32,12L2.464,26.768C2.165,28.468,2,30.215,2,32s0.165,3.532,0.464,5.232L32,52l29.536-14.768
			C61.835,35.532,62,33.785,62,32s-0.165-3.532-0.464-5.232L32,12z"/>
	</g>
	<g>
		<path fill="#428BC1" d="M25.997,28.435c-3.174,0-6.175,0.687-8.895,1.871C17.04,30.863,17,31.426,17,32c0,8.284,6.716,15,15,15
			c5.604,0,10.482-3.079,13.057-7.633C41.361,32.864,34.212,28.435,25.997,28.435z"/>
		<path fill="#428BC1" d="M46.786,34.429C46.916,33.637,47,32.829,47,32c0-8.283-6.716-15-15-15c-5.923,0-11.03,3.443-13.468,8.428
			c2.367-0.689,4.867-1.083,7.464-1.083C34.5,24.344,42.043,28.319,46.786,34.429z"/>
		<path fill="#FFFFFF" d="M25.997,24.344c-2.598,0-5.097,0.394-7.464,1.083c-0.735,1.504-1.235,3.144-1.43,4.878
			c2.72-1.184,5.721-1.871,8.895-1.871c8.215,0,15.365,4.429,19.06,10.932c0.852-1.504,1.44-3.169,1.729-4.938
			C42.043,28.319,34.5,24.344,25.997,24.344z"/>
	</g>
	<circle fill="#FFFFFF" cx="22" cy="32" r="1"/>
	<circle fill="#FFFFFF" cx="26" cy="38" r="1"/>
	<circle fill="#FFFFFF" cx="32" cy="38" r="1"/>
	<circle fill="#FFFFFF" cx="32" cy="42" r="1"/>
	<circle fill="#FFFFFF" cx="40" cy="38" r="1"/>
	<circle fill="#FFFFFF" cx="40" cy="42" r="1"/>
	<circle fill="#FFFFFF" cx="36" cy="40" r="1"/>
	<circle fill="#FFFFFF" cx="22" cy="36" r="1"/>
</g>
</svg>
